<?xml version="1.0"?>
<!--
************* Copyright (c) 2017 Pareto Softare, LLC DBA Simplemaps.com *******************		
************* Free for Commercial Use, full terms at  http://simplemaps.com/resources/svg-license ************
************* Attribution is appreciated! http://simplemaps.com ***************************
-->
<svg baseprofile="tiny" fill="#7c7c7c" height="836" stroke="#ffffff" stroke-linecap="round" stroke-linejoin="round" stroke-width="2" version="1.2" viewbox="0 0 1000 836" width="1000" xmlns="http://www.w3.org/2000/svg">
 <path d="M258.8 607.2l-16.6-16.8-10.3-36.6-6.2-56.1 43.4-25.3 41.4-28.1 39.3-8.5 33.1-14 35.2 0-18.6 30.9-31 30.9-14.5 19.7-39.3 70.2-55.9 33.7z" id="AND4876" name="Andorra la Vella" data-id="AND4876" data-name="Andorra la Vella">
 </path>
 <path d="M416.1 329l2 39.4 0 53.4-35.2 0-33.1 14-39.3 8.5-41.4 28.1-43.4 25.3-39.4 11.2-37.2 19.7-27 21.8-9.5-59.7-48.9-43.8-62.7 8.4 9.2-42.9 46-80.1 0.3-14.6-23.3-15.8 3.5-35.7 15.5-38.2 12.4-22.7 61.5-25.3 23 19.7 31 0 29 5.6 14.5 19.7 16.6 47.8 24.8 25.3 39.3 11.3 47.6 11.2 64.2 8.4z" id="AND4877" name="La Massana" data-id="AND4877" data-name="La Massana">
 </path>
 <path d="M532.2 104.9l3.9 58.2 0 33.8-29 11.2-37.2 11.3-29 28.1-18.6 36.5-6.2 45-64.2-8.4-47.6-11.2-39.3-11.3-24.8-25.3-16.6-47.8-14.5-19.7-29-5.6-31 0-23-19.7 42.9-149.1 88 4.6 81.7-31.4 42.5-3.1 151 103.9z" id="AND4878" name="Ordino" data-id="AND4878" data-name="Ordino">
 </path>
 <path d="M865.4 415.1l-18.9-18.6-26.9-16.9-29-14-10.3-47.8-10.4-33.8-39.3 16.9-53.8 0-57.9 8.5-66.3 14-93.1 0-43.4 5.6 6.2-45 18.6-36.5 29-28.1 37.2-11.3 29-11.2 0-33.8-3.9-58.2 30.5 14.3 316.4 31.3-24.2 76.8 44.9 28.6 64.7 20.1 34.5 50.3-69.9 6.6-50.9 49.6-12.8 32.6z" id="AND4879" name="Canillo" data-id="AND4879" data-name="Canillo">
 </path>
 <path d="M865.4 415.1l-18 45.9-10 94.3-26.5 31.4-31.1 14.5-33.6 0.4-33.1-12.1-14.9-14.8-9-46.1-35.2-30.9-33.1-16.9-57.9-5.6-43.5 8.4-37.2-19.7-8.3-33.7-20.7-11.2-35.2 2.8 0-53.4-2-39.4 43.4-5.6 93.1 0 66.3-14 57.9-8.5 53.8 0 39.3-16.9 10.4 33.8 10.3 47.8 29 14 26.9 16.9 18.9 18.6z" id="AND4880" name="Encamp" data-id="AND4880" data-name="Encamp">
 </path>
 <path d="M698.2 574.7l-18.4 16-30.2 101.8-89.2 37.8-96.9 12.6-8.1-45.9-4.2-39.3 18.7-33.7-29-5.6-45.5 5.6-51.8 8.5-37.2-14.1-47.6-11.2 55.9-33.7 39.3-70.2 14.5-19.7 31-30.9 18.6-30.9 35.2-2.8 20.7 11.2 8.3 33.7 37.2 19.7 43.5-8.4 57.9 5.6 33.1 16.9 35.2 30.9 9 46.1z" id="AND4881" name="Escaldes-Engordany" data-id="AND4881" data-name="Escaldes-Engordany">
 </path>
 <path d="M258.8 607.2l47.6 11.2 37.2 14.1 51.8-8.5 45.5-5.6 29 5.6-18.7 33.7 4.2 39.3 8.1 45.9-78.5 10.3-15.6 17.8-12.1 21.6-17.5 21.4-32.2 17.9-22.7 3.1-168.6-22.5-31.9-23.8 0-47.3-80.2-125.6 47.1-21.6 15.8-4.1 55-39.7 27-21.8 37.2-19.7 39.4-11.2 6.2 56.1 10.3 36.6 16.6 16.8z" id="AND4882" name="Sant Julià de Lòria" data-id="AND4882" data-name="Sant Julià de Lòria">
 </path>
 <circle cx="312.6" cy="254.9" id="0">
 </circle>
 <circle cx="225.7" cy="366.3" id="1">
 </circle>
 <circle cx="267.7" cy="673.7" id="2">
 </circle>
</svg>