<?xml version="1.0"?>
<!--
************* Copyright (c) 2017 Pareto Softare, LLC DBA Simplemaps.com *******************		
************* Free for Commercial Use, full terms at  http://simplemaps.com/resources/svg-license ************
************* Attribution is appreciated! http://simplemaps.com ***************************
-->
<svg baseprofile="tiny" fill="#7c7c7c" height="789" stroke="#ffffff" stroke-linecap="round" stroke-linejoin="round" stroke-width="2" version="1.2" viewbox="0 0 1000 789" width="1000" xmlns="http://www.w3.org/2000/svg">
 <path d="M967.9 176.6l0.4 3.7 0.7 2.3 1.2 1.9-2 2.4-5.5 2.8-0.5 5.7 0.1 0.9-2.6 1-5.8 0.6-1.2 0.8-0.2 1.6 1.1 4.8 0.2 2.6-0.1 2.5-2.4 14.5-0.2 2.8 0.2 2 0.6 1.8 0.7 1.5 0.9 3.2-2.4 1.4-0.2 1.1 0.1 1.5 4.1 6.7 2.7 6.3 0.9 2.9 0 1.8-0.6 1.4-0.8 2.2-0.3 4.7 1.1 2.5 1.7 1.7 2 0.8 10.1 1.3 3.6 2.7 0.9 2.5-6.8 6.8-3.8 1.8-7.7 1-3.1 1.4-13.6 0.8-11.4-10.4-5.3-3.8-1.7-10.1-2.4-6.7-5.6-3.6-0.5-0.1 0.1-2.2-1.2-4.9-3.6-7-0.7-2.3-0.3-3.5 0-2.7 0.4-3 4.6-11.2 1.2-1.9 0.1-1-0.8-1.6-1.1-1.6-2.6-2.9-0.8-1.2-0.3-1.2 0-1 1.9-3.2 3-2.4 2.2-3.2 7.8 0.5 3.1 0.9 2.6 0.1 1.8-0.5 2-0.7 1.9 0 6.2 1.3 2.2-0.3 1.3-0.7 0.6-1 0.5-0.6 1.2-0.8 0.6-0.7 0.4-0.9 0-1.2-0.2-1.3 0.3-1.5 0.9-1.7 3.3-2.3 1.5-1.3 1.1-1.2 1-1.9 0.1-0.3-0.1-0.2-0.2-0.1-0.2-0.1-2.8 0.1-0.8 0-0.6-0.1-0.7-0.4-0.4-0.3-1-1.4-0.8-0.3-1.1-0.1-1.4 0.1-0.6-0.4 0.2-1.1 2.8-3 1.6-1.2 1.6-0.6 0.9 0.1 6.6 1.8 0.7 0.4 0.2 0.5-0.2 0.6-0.3 0.7-0.1 0.7 0.3 0.6 1.7 0.8 5.8-1z m-16.8-79.5l-2.8 2-8.7 2.4-2.8 0.1-1.8-0.2-1.3-0.5-0.9 0.3-1.2 0.7-2.5 2-5 5.5-2.3 1.3-1.8 0.6-1.3-0.1-1.7-0.2-2.1 0.3-1.7 1.3-0.7 1.5-0.1 1.8 1.1 4.7 0 1.8 1.7 7.5 0.5 3.7 0.2 0.9 0.4 0.6 0.8 0.5 2 0.3 0.6 0.3 1.4 0.6 0.8 0.1 6.3-0.6 4.5 0.2 1.3-0.3 1.1-0.6 2.8-2.1 0.2-0.1 0.4-0.2 0.8-0.2 1 0.1 0.6 0.2 0.2 0.1 0.1 0.1 1 0.9 2.7 3.7 0.6 1.4 0.5 1.9-0.5 2-1.3 2-5 5.6-0.6 0.9-0.1 0.5 0.3 0.5 0.2 0.3 0.3 0.5 0.2 0.5 0.2 0.7 0.4 0.7 0.7 0.5 1.2 0.3 1.3 0 1.7-0.4 1.5 0.6 0.9 1.5 0.4 4.7-0.7 1.8-0.9 0.7-1.2 0-1.1 0.4-1.5 1.7-1.2 1.2-1.7 0.9-1.8 0.3-2.2-0.3-10.1-3-1.4-0.8-1.1-1.2-0.8-1.3-0.8-1-1.6-1.3-4.4-2-1.4 0.2-1.5 0.9-0.7 2.2-1 5.2-2.8 6.1-3.3-5-4.4-5.4-5.5-5.2-0.2-1.9 0.8-1.7 1-1.8 0.1-2.3-1.4-2.1-7.8-8.5-1.4-2.9-0.6-2.2-0.1-0.8 0.1-2.2-0.3-3.6-0.9-4.9-5.6-18.5-1.1-1.8-1.5-0.8-2.1-0.6-1.6-0.2-5-4.7-0.3-0.3 2.8-4 2.3-1.7 1.9-0.3 2.6-0.8 2.3-1.2 1-1.6 1-0.5 6.1-1.7 7.4-6.1 11.3-14.4 5.6-4.8-1.2 2.1-1.3 4.7-2.1 4 0.8 1.4 1.5 0.4 0.8-0.8 0.4-3.4 2-6.5 0.4-4.4 1.3-2 8.8-8.3 1.8-2.4 1.6-2.6 1.2-3.3 0.9-4.3-1.4 0-0.8 2.2-1.2 1.8-1.6 1.3-2 0.9 5.5-9.2 4.4-9.7 3.8-14.7 0.8-2 4.8-0.4 10.5-2.8 2.4 0.3 3.3 8.9 1 4.7-0.4 4.2-1.4 6.9-0.9 20.7-1.4 3.3-4 5.7-1 3.4 0.9 4 4.9 6.5 0.9 2.8-1.5 3-2.6 2.1-2.3 2.4-0.1 4 1 10.3 1.1 2.7 0.4 0.2z" id="ARE338" name="Ras Al Khaymah" data-id="ARE338" data-name="Ras Al Khaymah">
 </path>
 <path d="M904.6 168.5l-3.8-0.1-0.6 0.6-0.3 0.8 0.9 2.9 0.5 1.9 0.3 2-0.2 1.8-0.6 1.3-1.2 0.9-1.5 0.6-3 0.9-2.4 1.3-1.6 0.6-2.8 0.6-3 0.1-2.6-0.1-1.9-0.8-1.4-1.2-1.6-2.4-2.2-4.9-1.3-6-1.7-2.7-2.6-3-9.6-8.6-3.9-2.7-14.6-6-2.5-1.7-6.2-5.4-13.6-8.5-0.6-0.3 1-2.8 0.9-3.9 2.3-4.6 3.2-3.7 3.5-1.4-1.7 3.8-2.3 3.1-1.3 2.8 1.2 3 3.2 1.3 4.1-0.7 4.5-1.4 4.4-0.8 1.3-1.8 3.2-8.9 1.9-3.4 5.4-5.9 3.4-2.6 7.1-2.8 2.5-3.6 0.3 0.3 5 4.7 1.6 0.2 2.1 0.6 1.5 0.8 1.1 1.8 5.6 18.5 0.9 4.9 0.3 3.6-0.1 2.2 0.1 0.8 0.6 2.2 1.4 2.9 7.8 8.5 1.4 2.1-0.1 2.3-1 1.8-0.8 1.7 0.2 1.9 5.5 5.2 4.4 5.4z" id="ARE339" name="Umm Al Qaywayn" data-id="ARE339" data-name="Umm Al Qaywayn">
 </path>
 <path d="M976.6 267.9l6.4 1.3 1.6-0.8-0.1 1.6-1.1 2.2-5.8 4.2-1.2 1.1-0.9-2.5-3.6-2.7 1.3-4.6 3.4 0.2z m18-35.3l-1.2-0.2-11-2.5-1.8-0.1-1.9 0.5-0.1 0.9 0.3 0.9 0.7 1.2 0.7 1.6 0.5 1.9 0.4 3.2 0.3 1.4 0.7 1.2 0.7 0.9 0.2 1.6-0.3 2-0.8 3.1-1.1 1.7-1.2 1.1-1.7 6.3-2.5 2.9-3.4-8.7-14.8-15.9-1.3-1-2.5-0.6-0.9-3.2-0.7-1.5-0.6-1.8-0.2-2 0.2-2.8 2.4-14.5 0.1-2.5-0.2-2.6-1.1-4.8 0.2-1.6 1.2-0.8 5.8-0.6 2.6-1 0.2 1.3 2.6 1.3 3.2 0.9 3.5-1.5 6.1-4.4 2.3-2 4.9-1.7 5.8-3.1 0.9-6.3 1.5-2 5.3-4.2 0.3 0 0.1 1.8-0.2 2.5-0.9 4.5-0.6 6.9-2 10-0.7 32.3z m0.5-81.4l-0.9 0.4-8.4 7.7-7.7 4.7-2.1 1.8-1.2 2.6-0.6 2.2-0.7 1.7-5.6 4.3-5.8 1-1.7-0.8-0.3-0.6 0.1-0.7 0.3-0.7 0.2-0.6-0.2-0.5-0.7-0.4-6.6-1.8-0.9-0.1-1.6 0.6-1.6 1.2-2.8 3-0.2 1.1 0.6 0.4 1.4-0.1 1.1 0.1 0.8 0.3 1 1.4 0.4 0.3 0.7 0.4 0.6 0.1 0.8 0 2.8-0.1 0.2 0.1 0.2 0.1 0.1 0.2-0.1 0.3-1 1.9-1.1 1.2-1.5 1.3-3.3 2.3-0.9 1.7-0.3 1.5 0.2 1.3 0 1.2-0.4 0.9-0.6 0.7-1.2 0.8-0.5 0.6-0.6 1-1.3 0.7-2.2 0.3-6.2-1.3-1.9 0-2 0.7-1.8 0.5-2.6-0.1-3.1-0.9-7.8-0.5 0.6-4.8-0.1-1.3-2.3-6.9 5.2-4.5 0.9-2.3-0.1-0.9-0.3-0.8-0.4-0.7-0.6-0.4-0.6-0.4-2.9-1.4 3.7-11.3 1.6 1.3 0.8 1 0.8 1.3 1.1 1.2 1.4 0.8 10.1 3 2.2 0.3 1.8-0.3 1.7-0.9 1.2-1.2 1.5-1.7 1.1-0.4 1.2 0 0.9-0.7 0.7-1.8-0.4-4.7-0.9-1.5-1.5-0.6-1.7 0.4-1.3 0-1.2-0.3-0.7-0.5-0.4-0.7-0.2-0.7-0.2-0.5-0.3-0.5-0.2-0.3-0.3-0.5 0.1-0.5 0.6-0.9 5-5.6 1.3-2 0.5-2-0.5-1.9-0.6-1.4-2.7-3.7-1-0.9-0.1-0.1-0.2-0.1-0.6-0.2-1-0.1-0.8 0.2-0.4 0.2-0.2 0.1-2.8 2.1-1.1 0.6-1.3 0.3-4.5-0.2-6.3 0.6-0.8-0.1-1.4-0.6-0.6-0.3-2-0.3-0.8-0.5-0.4-0.6-0.2-0.9-0.5-3.7-1.7-7.5 0-1.8-1.1-4.7 0.1-1.8 0.7-1.5 1.7-1.3 2.1-0.3 1.7 0.2 1.3 0.1 1.8-0.6 2.3-1.3 5-5.5 2.5-2 1.2-0.7 0.9-0.3 1.3 0.5 1.8 0.2 2.8-0.1 8.7-2.4 2.8-2 0.8 0.5 4.9 0.9 1.8 1.5 2.1 4.7 1.4 1.7 3.3 0.9 3.3-0.6 8.6-2.5 4.4 2.6 4.8 1.9 3.5 0.7 1.6 2.7 4.6 15.5-1.3 21.2 0.2 2.4z" id="ARE341" name="Fujayrah" data-id="ARE341" data-name="Fujayrah">
 </path>
 <path d="M985 264.3l-0.4 4.1-1.6 0.8-6.4-1.3-0.8-3.6-0.3-2.1 2.5-2.9 3 3.8 2.8 1.1 1.2 0.1z" id="ARE344" name="Neutral Zone" data-id="ARE344" data-name="Neutral Zone">
 </path>
 <path d="M914.8 183.6l-2.6-5.6 0.1-1.4 0.3-1.6 1-1 0.7-0.7 1.7-1.1 2.9 1.4 0.6 0.4 0.6 0.4 0.4 0.7 0.3 0.8 0.1 0.9-0.9 2.3-5.2 4.5z m-114.6-25.9l3-4.2 1.3 0 0.9 2.8 1.2 0.2 1.2-1.7 0.9-2.8 1.4 1.5 2.8-8.5 1.3-2.3 0.2 0.1 2.4 1.7 3.3 0.7 2.1 1 3.2 2.1 2.3 0.9 12.5 2.3 2.1 0.8 0.9 1.2-2.7 7.6-1.9 3.4-1.2 1-1.4 0.3-17.5-1-7.2-1.6-6.3-2.3-4.7-3.1-0.1-0.1z" id="ARE346" name="Ajman" data-id="ARE346" data-name="Ajman">
 </path>
 <path d="M924.7 275.1l5.3 3.8 11.4 10.4-4.8 11.2-1.4 4.5 0.3 3.1-0.2 1.9-2.9-0.4-6.4-5.1-6.1-15.8-7.7-7-1.5-3.4 0.7-2.9 3.6-1.1 2.9 0.7 2.7 1.4 4.9 3.6-0.8-4.9z" id="ARE347" name="Neutral Zone" data-id="ARE347" data-name="Neutral Zone">
 </path>
 <path d="M976.6 267.9l-3.4-0.2-1.3 4.6-10.1-1.3-2-0.8-1.7-1.7-1.1-2.5 0.3-4.7 0.8-2.2 0.6-1.4 0-1.8-0.9-2.9-2.7-6.3-4.1-6.7-0.1-1.5 0.2-1.1 2.4-1.4 2.5 0.6 1.3 1 14.8 15.9 3.4 8.7 0.3 2.1 0.8 3.6z m8.4-3.6l-1.2-0.1-2.8-1.1-3-3.8 1.7-6.3 1.2-1.1 1.1-1.7 0.8-3.1 0.3-2-0.2-1.6-0.7-0.9-0.7-1.2-0.3-1.4-0.4-3.2-0.5-1.9-0.7-1.6-0.7-1.2-0.3-0.9 0.1-0.9 1.9-0.5 1.8 0.1 11 2.5 1.2 0.2-0.1 2.5 4.4 18.1-11.2 1.3-2 2.3-0.7 7.5z m-6.9-74.6l-4.1 1.4-0.7-6.1 1.1-1.2 1.8-0.1 3 2.2-1.1 3.8z m13.7-8.9l-8.2-1.7-3.9-6-6.2-0.8 0.7-1.7 0.6-2.2 1.2-2.6 2.1-1.8 7.7-4.7 8.4-7.7 0.9-0.4 0.7 6.1-0.3 1.7-1.6 2.9 0.2 2.1 2.1 3.7 0.9 2.3 1 1.5 0.7 1.8 0.1 1.3-0.3 0-5.3 4.2-1.5 2z m-87.2-12.3l3.3 5 2.8-6.1 1-5.2 0.7-2.2 1.5-0.9 1.4-0.2 4.4 2-3.7 11.3-1.7 1.1-0.7 0.7-1 1-0.3 1.6-0.1 1.4 2.6 5.6 2.3 6.9 0.1 1.3-0.6 4.8-2.2 3.2-3 2.4-1.9 3.2 0 1 0.3 1.2 0.8 1.2 2.6 2.9 1.1 1.6 0.8 1.6-0.1 1-1.2 1.9-4.6 11.2-0.4 3 0 2.7 0.3 3.5 0.7 2.3 3.6 7 1.2 4.9-0.1 2.2-8.4-1.3-8 2.1-7.2 4.6-6.8 6.3-6.3 8-2.1 7.1 1.7 17.5 0 4.3-0.9 8.6 0.4 4.2 1.1 2.4-2.1 0.5-8.5 0-16.2-4.1 1.2-2.6 0.4-1.8 0.4-2.5 0.2-3-0.1-3.9-1-7.1-2.4-9.6-0.7-6.8 0-5.3-0.3-1.7-0.7-2.9-2.4-6.5-3.6-7.5-1.6-5.2 0.1-0.3 1.2-2.4 0.7-1 1-1.1 2.6-2.3 1.2-1.3 0.8-1.4 0.4-1.4-0.1-1.5-6-25.1-2.5-4.8-3.3-3.5-14.8-10-1.5-1.8-1.7-1.6-1.6-1.1-6.7-3.9-1.7-1.6-2.3-3.3-1.2-1.1-1.9 0.4-6.9 2.5-5.9 0.3-10.6-2.9-0.4-0.4 3-3.3 1.8-0.7 3.2 0.1-1-2.9 0.2-2.7 1.2-2.3 2.4-1.5 2.1 1.8 4.2-3.6 3.6-5 0.1 0.1 4.7 3.1 6.3 2.3 7.2 1.6 17.5 1 1.4-0.3 1.2-1 1.9-3.4 2.7-7.6-0.9-1.2-2.1-0.8-12.5-2.3-2.3-0.9-3.2-2.1-2.1-1-3.3-0.7-2.4-1.7-0.2-0.1 0.7-1.4 2.3-2-2.6-1.4 1.3-2.8 2.7-3.6 0.4-1.1 0.6 0.3 13.6 8.5 6.2 5.4 2.5 1.7 14.6 6 3.9 2.7 9.6 8.6 2.6 3 1.7 2.7 1.3 6 2.2 4.9 1.6 2.4 1.4 1.2 1.9 0.8 2.6 0.1 3-0.1 2.8-0.6 1.6-0.6 2.4-1.3 3-0.9 1.5-0.6 1.2-0.9 0.6-1.3 0.2-1.8-0.3-2-0.5-1.9-0.9-2.9 0.3-0.8 0.6-0.6 3.8 0.1z" id="ARE348" name="Sharjah" data-id="ARE348" data-name="Sharjah">
 </path>
 <path d="M94 426.2l-2.1 2.2-0.7-0.7-1.4-0.6-0.7-0.6 0.9-1.6 0-2.5 1.3-3.6 2.4-1 1.8 2.6-0.1 0.9-0.4 0.7 0.4 0.9-1.4 3.3z m382.5-3.2l5.3 3.3 0.8 0.5 7.1 1.5 1.5 0.6 4.3 1.7 2.1 6.5-2.9 5.2-6.3 2.2-7.4-0.3-6.2-2.5 0.5-2.1-1.7-2.9-2.4-0.7-2.2 4.3 1.6 1.4-5.7 3.7-6.7 1.3-6.9-0.7-6.2-2.6-3.6-2-2.1-0.7-5.6-0.4-3.7-0.5-2.3-0.8-0.1-1.8 3.2-3.2 2.7-1.7 5.1-1.9 2.2-1.1 3.9-3.5 2.6-1.8 0.9-0.2 2.5-0.8 1.9 0 3 1.3 1.6 0.4 1.4-0.7 4.9-4 5.7-2.5 2.3-1.3 1.8-2.4 1.1 2.8-0.2 0.7-0.9 1.1 2.1 3.5 1 1.1z m69.6-4.2l-1.7 5.9-2-4.1-4.5-2-5.2-1.5-4.5-2.6-2.3-5.9 2.9-4.7 4.5-1.9 1 0.9 1.8 1.5 5.2 5.9 2.6 2.9 2.2 5.6z m10.1-6.9l-1.7 0.5-2.3-0.1-1.3-0.7-3.5-4.2-2.6-1.8-2-0.9-0.7-1.5 1-3.6 1.6-2 2.4-1.8 3-0.9 3 0.1 1.8 3.8 2 3.2 4.7 5.4-1.5 1.9-1.9 1.6-2 1z m-339.8 3.4l-3.4 3.4-2.7-2.9-2.3-3.9-2.4-5.4 0.4-4.5 3.4-3.9 2.6-3.8 5-2.9 4.8 1.5 2.3 3.6 1.1 5.9-0.4 3.5-4.5 5.9-3.9 3.5z m358-21.8l0.1 3.1-2.2 6.6-3.4 1.7-5.7-9.9-0.5-1.6 1.5-0.2 2.3 0.6 2 1.2 0.9 0.5 0.3-1-0.6-1.3-3-2.2-0.7-2.2 2.7-0.3 4.3 3 2 2z m-188.2 8l-8.1 3.8-3.9 2.5-4.9 0.7-3 2.2 0 2.5-1.8 3.4-2.9-3.6-3-0.3-3.8-2-2.1 3.4-7.9-1.2-2.9-0.5-4.4 0.9-0.7 0.3-0.6 0-0.5-1.2 0.1-1.4 0.7-1.6 0.7-1.4 0.7-0.6 7.7 1.7 2.1-0.5 5.3-2.4 1.1-1 1.1-0.8 6.9-2.7 3.8-1.8 1.8 0 2 3.6 2.1 1.1 1.8-0.9 0.4-2.5-0.2-2.4-1.3-2.3 7.8-11.5 3.7-2.6 0.2 1.3 0.9 2.3 0.3 1.2 4.8 2.7-1.3 8.8-2.7 2.8z m216.2-21.9l-2.8 1-5.5-1-9.9-3.3-9.9-3.1 0-3.6 8.4-7.9 2.9-4.4 1.4 0-1.4 4.8 1.5 4.2 3.7 2.9 7.7 4 3.7 3.8 0.2 2.6z m-444.5-12.7l-2.5 1.2-3-1.7-1.1-1.4-1-0.6-1.3-1.2-0.2-3.1 1.8-2.5 1.6-2.7 2.3-1.4 4.7 3.2 1.4 5.5-2.7 4.7z m-122.5-27.1l0.9 2-0.4 1.4-0.1 0.7-0.9 2-0.5 1.7-1.1-0.8-0.2-3.1 0.5-1.4-0.8 0.4-0.1-0.8 0-1-0.2 0.3-0.3 0-0.3 0 0.1 0.4-0.2 0 0.2 0.9-1.3-1.1-0.2-2.2 1.7-1.3 0.9 0.1 2.3 1.8z m279.4-62.7l-0.8 4.7-1.3-1.3-0.3-1.1-1.7-2.2-1.1-2.9 0.6-1.7 3.8 0.6 0.8 3.9z m536.4 37.7l16.2 4.1 8.5 0 2.1-0.5 3.1 7 0.7 4.4-5.8 5.4-1.3 7.6-2.9 3.2-2.1 3.2 0.3 4.8 2.6 9.6-0.5 12.3 0.6 3.5 1.4 1.6 4.1 2.8 1.6 2 0.5 2-0.8 11-1.3 3.3-8 14.4-1.7 4 0.3 3.4 2.5 1.3 13 2.9 3.5 0.2 11.6-4.8 6.2 2.6 3.3 8.2 2.4 9.6 7.7 14-2.3 3.6-13.1 3.2-24.1 9.9-3.9-0.4-5.4-4.3-3.7 0.7-3.4 1.3-3.2 0.1-6.8-1.2-6.8-0.2-5.9 1.1-5.7 2.4-6.1 3.3-4 2.2-8.8 3.4-8.9 1.7-0.9 3.3 1.9 4.1 3.4 3.2 7.5 4.5 3.4 5 0.9 6.5 0.7 17.2-0.9 3-9.7 14.4-1.9 3.9-6.8 28.1-2.9 4.3-7.7 8.6-0.1 0-3.8 5.8-2.4 7.6-4.3 22.5-4.6 13.9-19.7 34.7-6.4 21.7-0.8 6.7 1.3 32.9-2.2 32.8-13.8 18-3.1 0.6-28.3-3.8-28.9-3.8-28.8-3.9-28.8-3.8-28.8-3.9-28.9-3.8-28.8-3.9-28.8-3.8-28.9-3.9-28.8-3.8-28.8-3.9-28.8-3.8-28.9-3.9-28.8-3.8-28.8-3.9-28.8-3.8-28.8-3.9-33.4-4.4-5.1-1.7-4.1-3.6-11.1-14.4-10.8-14-10.8-14-10.9-14-10.8-14-10.8-14-10.8-14-10.8-14.1-10.8-14-10.8-14-10.8-14.1-10.8-14-10.8-14.1-10.9-14-10.8-14.1-10.8-14.1-10.8-14.1-11.8-15.4-3.1-5.3-1.1-5.9 0.4-14.6 0.1-5.9-1.3-8.7 4.4-6.5 0.2-10-3.6-8.2 4.1-4.7 1.7 3.9 4.5 6.5 0.8 4.5 0 13.1 1.4 8 2.9 1.9 3-3.2 2-10.3 1.4 2.8 2.1 7.1 1.3 2.3 1 0.6 1.9 0.2 1.8-0.5 1.1-1.1 0.2-1.1-0.8-0.4 4-9.8 3.9-3 4.3 6.5 0.5 5-2.1 14.5 0.3 5.3 2.5 11.2 0.3 2.5-0.3 7.6 0.5 2.5 1.9 4.6 0.4 2.2 2.2 4.1 4.9 1.3 10.1 0.2 2.4 0.8 1.9 1.1 3.5 3.5 1.9 1.2 1.6 0 0.6-1-1.2-1.8-0.4-2.4 4.4-0.7 11.9 0.7 1.4-0.4 1.4 0.4 2.6 2.4 6.4 3.1 1.8-0.1 8.7-1.6 3.7 1 2-1.2 2.1 1.2 3.2-1.5 3.6-0.2 3.7 0.2 3.8-0.2 3.4-1.3 7.9-4.9 3.5-0.5 6.6-0.1 2.8-0.8 2.4-2 2.5-2.6 2.8-2.3 2.9-1 3.4-0.7 4-1.6 3.4-2.3 1.4-2.4 1.1-2.6 6.3-2.7 3.1-2.5 2.7-2.8 3.7-2.7 3.6-2.1 2.8-0.9 2.3-1.6 0.6-3.9 0.1-4.2 0.6-2.7 4-2.3 3.8 1.3 3.2 3.2 7.5 10.2 2.3 0.9 0.9-0.6 0.6-1.2 1.9-0.8 4.6 0.2 8.5 2.5 4.5 0.6 2.7-0.5 4.4-2.1 2.2-0.7 2.4 0.1 1.8 0.5 1.5 0.7 1.5 0.4 17.6 1.6 2-0.4 7.4-2.9 0.9-0.8 0.3-1.3 0.3-0.9 1.3-0.1 1.1 0.7 0.7 1 0.6 0.9 0.4 0.5 6.1 5.1 3.8 1.8 8.3-3.6 4.2 1.6 3.9 2.1 3.6-0.7-2.9-1.7-0.8-2.2-0.1-2.6-0.6-2.9 4.7-1 5.5 2.5 5 4 3.3 3.9 2.9 4.7 1.7 1.2 11.4 0.7 26.6-5.5 1.8 0 1.8 1.2 2.8 3.2 2.2 1.5 3 0.7 3-0.2 2.4-1.2 3.8 2.9 2.2 1.2 1.9 0.6 0.9 0.8 2.6 4.2 1.5 1.3 1.7 0.3 2.4 0 2.3-0.4 3.5-1.8 2.1 0.5 2 1 1.7 0.4 6.4-3.1 1.4-1 1.7-0.9 2 0.4 2 0.8 2 0.6 25.3 0.1 5.2-0.6 2.2-1.9 12.8-7 13-2.1 4.2-2.2 4.3-0.8 5.5-2.6 6.3-0.9 2.2-0.7 2.6-1.6 3.8-3 3.4-3.6 1.5-3.5 2-1.7 13.7-3.9 11-8.2 1.9-0.3 1.6-2.8 4 0.2 8.4 3.4 1.6-2.5 7.6-6 3.9-5.5 8.2-16.4-1.1-5.7 0.6-2.7 3.4-1.7-1.9-1.3-1-0.3 0-1.7 3.3 0.3 5.1 2.4 3 0.6-1.3-2.9-3.6-3.9-0.7-2.7 3.1 1.4 3.3 1 3 1.4 1.9 2.4 1.3 0-0.6-6-3.9-1.9-5.5-0.3-5.5-1.1-12.2-8.2-4.8-1.2 0-1.4 2.5-0.7 2.5-1.7 2.2-2.5 0.3 1.5 0.7 1.8 1.7 1.6-0.6-2.3 0.7-2.1 2.7-3.5 1.4 0 1.7 6.3 4 6.1 5.1 3.9 4.9-0.8-1.2-0.6-3.1-2.6 2.4 0.1 4.4 1.5 1.8 0.1 0.7-0.8 1.8-3.2 1-0.7 7.8-15.7-3.4-1.5-1.6-2 0.7-1.8 3.6-0.8 2.2-1.4 0.6-3.1 1.2-3.2 3.8-1.8 0-1.4-1.8-1.4-0.9-2.3-0.6-2.9-0.9-2.9 1.1-1.7-1.5-0.9-1.7-1.7 0.6-3.7 1.9-2.1 8.2-5.5 1-1.6 1-2.1 1.1-1.3 6.4 3 0.4 0.3 3-0.7 3-2 1-3.1-2.8-3.6 22.6-13.3 10.1-7.4 6.3-5.8 4.2-2.8 5.1-1.7 0.4-0.1 1.8-0.6 0.5-0.2 1.8 2.4 25.5 73.8 2.2 4.4 2.5 3.3 4.1 1.3 4.2 0.5 44-1.8 5.7-1.2 6.3-2.3 13.9-8.1 22.9-9.4 4.7-3.2z m-577.5-101.1l0.4 3.7-1.2-0.8-1.3-0.8-0.2-4.2 2.3 2.1z m279.1-21.3l1.8 8-2.7-1.3-2.6 0-3.4-4 2.7-4 4.2 1.3z" id="ARE349" name="Abu Dhabi" data-id="ARE349" data-name="Abu Dhabi">
 </path>
 <path d="M935.3 310l0.2-1.9-0.3-3.1 1.4-4.5 4.8-11.2 13.6-0.8-3.4 8.5-4.5 5.5-1.2 3.9-1.9 2.4-4 1.1-4.4 0.2-0.3-0.1z m-210.1-71.5l0.6 1.8-4 2.6-0.9-1.4 1.9-1.4-1.7 1.3 0.7 0.7 3.6-2.9-0.3-0.6-2 1.3 2.1-1.4z m17.2-10.5l-0.1-0.2-0.1-0.1-0.1-0.1 0-0.2 0-0.1 0.3-0.2 0.4-0.4 0.2-0.2 0.1-0.2 0.1 0.1-0.1 0.3-0.3 0.3-0.3 0.4-0.1 0.2 0 0.4z m-3.9-1.3l0.6 0.1 0.5 0 0.6 0 0.8-0.2 0.2 0.1 0.2 0.3 0.2-0.1 0.1-0.3 0 0.3-0.1 0.1-0.1 0.1-0.7 0.2-0.8 0-0.7 0.1-0.7-0.1-0.5-0.1-0.3-0.2-0.4-0.2-0.3-0.3 0-0.1 0-0.4 0.2 0.2 0.3 0 0.6 0.4 0.3 0.1z m7.3-3.3l0 0.1-0.2-0.1 0 0.1-0.1 0.4-0.1-0.1-0.1 0-0.1 0.1 0 0.1-0.2 0.1-0.1-0.1 0.5-0.6 0.2-0.3 0.1-0.3 0.4-0.1 0.2 0.2 0.2 0 0 0.1-0.2 0-0.2 0.2-0.2 0-0.1 0.2z m-1.1 2.7l-0.2 0.1-0.1 0-0.2-0.1-0.1 0-1.3-1.2-0.5-0.3-0.3 0-0.5 0-0.1-0.1 0-0.1 0.3-0.5-0.1-0.1-0.1-0.3-0.1-0.2-0.1-0.1 0.1-0.1 0-0.2-0.1 0-0.1 0.1-0.1 0.4 0 0.8 0 0.5 0 0.4 0.2 0.4 0 0.1-0.1 0.1-0.2 0-0.1-0.5-0.1-0.5 0.1-1.1 0-0.4 0.1-0.3 0-0.1-0.1 0.1-0.2 0.3-0.2 0.8-0.1 0.5 0 0.5 0 0.6 0 0.2-0.1 0.1-0.1 0-0.2-0.2 0-0.5 0.1-0.8 0.3-1 0.3-0.4 0.1-0.2-0.1-0.1-0.5 0.6-0.4 0.7-0.2 0.6-0.1 0.5-0.1 0.5 0 0.2 0 0.1-0.2 0.1 0-0.1 0-0.1 0-0.7 0.2-0.5 0.1-0.4 0.3-0.6 0.4-0.7 0.2-0.3 0.2-0.1-0.2-0.1-0.8 0.9-0.5 0.6-0.2 0.4-0.2 0.5-0.1 0.3 0 0.5-0.1 0.2-0.1 0-0.1-0.1 0-0.2 0-0.2 0.1-0.6 0.2-0.5 0.3-0.6 0.4-0.5 0.9-0.7 0.1-0.1 0-0.1-0.1 0-0.1 0-0.4 0.2-0.6 0.4-0.5 0.6-0.4 0.5-0.3 0.5-0.2 0.4-0.2 0.1-0.1-0.1-0.1 0 0-0.2 0.1-0.3 0.4-0.5 0.5-0.6 0.6-0.5 0.7-0.5 0.4-0.1 0-0.1-0.1 0-0.4 0.1-0.5 0.2-0.6 0.3-0.5 0.4-0.4 0.4-0.1 0.1-0.2-0.1 0-0.2 0.2-0.2 0.8-0.6 0.7-0.3 0.6-0.2 0.2-0.1-0.1-0.1-0.1 0-0.5 0-0.5 0.1-0.4 0.1-0.4 0.2-0.2 0 0-0.2 0.2-0.1 0.6-0.2 0.5-0.1 0.5 0 0-0.1-0.1-0.1-0.2 0-0.2 0-0.5 0-0.2 0-0.1-0.1 0-0.2 0.1 0 0.3 0 0.1-0.1-0.1-0.2 0-0.1 0-0.1 0.1-0.2 0.1 0 0.1 0.1 0.2 0 0-0.1 0-0.4 0.1-0.1 0.2 0 0 0.2 0 0.3 0.1 0.4 0.1 0.2 0.1 0.1 0.1 0 0-0.3 0-0.6 0-0.7 0.1-0.1 0.1 0 0.1 0.1-0.1 0.8 0 1.2 0.1 0.1 0.1 0 0-0.2 0-0.6 0.2-0.6 0.2-0.6 0.5-0.8 0.1 0 0.2 0.1 0 0.2-0.1 0.2-0.4 0.5-0.3 0.7-0.1 0.4-0.1 0.7 0 0.2 0.1 0 0.1-0.2 0-0.3 0.3-0.5 0.2-0.4 0.4-0.6 0.5-0.6 0.3-0.3 0.2-0.1 0.2 0.1 0 0.1-0.1 0.1-0.4 0.3-0.4 0.4-0.3 0.5-0.5 0.6-0.2 0.7-0.1 0.4 0.1 0 0.5-0.9 0.4-0.4 0.6-0.6 1-0.6 0.3-0.1 0.2 0 0 0.2 0 0.1-0.7 0.3-0.7 0.4-0.6 0.5-0.8 1.2 0 0.1 0.1 0 0.5-0.5 0.5-0.6 0.6-0.3 0.5-0.3 0.8-0.3 0.1 0.1 0 0.2-0.1 0.1-0.7 0.2-0.5 0.2-0.5 0.3-0.6 0.5-0.4 0.5 0 0.2 0.1-0.1 0.4-0.4 0.6-0.3 0.7-0.2 0.7-0.2 0.2-0.1 0.2 0 0.1 0.1 0 0.2-0.1 0.1-0.4 0-0.6 0.1-0.7 0.3-0.7 0.3-0.2 0.2-0.1 0.2 0.5-0.3 0.6-0.3 0.4 0 1.1 0 0.1 0.1 0 0.1-0.1 0.1-0.1 0-0.9 0-0.6 0-0.5 0.3-0.2 0.1 0 0.1 0.2 0.2 0.1 0 0.2-0.1 0.2 0.2 0 0.1 0.2 0 0.1-0.1 0-0.1 0.3-0.4 0.1 0.1 0.1 0.5-0.2 0.2 0.5 0.4 0.2 0.1 0.1-0.1 0.1-0.1 0-0.1 0.2 0 0.1-0.2 0.2 0.2 0 0.1-0.2-0.1 0 0.2-0.2 0.1 0 0.1 0 0.2 0.5 0.4 0.5 0.4 0.2 0.4 0 0.1-0.1 0.2-0.3 0.4z m0.6-3.7l-0.1 0.1-0.2 0-0.1-0.1 0.1-0.1 0.1 0.1 0.2-0.1 0-0.1-0.3-0.1 0-0.1 0-0.9 0-0.6-0.1-0.5-0.2-0.5-0.4-0.6-0.2-0.2 0-0.1 0.3-0.3 0.1 0.1 0.5 0.8 0.4 0.8 0.1 0.9 0 0.7-0.1 0.7-0.1 0.1z m-2.1-4.8l0.7 0.3 0.2 0.1 0 0.1-0.3 0.3-0.4-0.2-0.5-0.2-0.6-0.2-0.8 0-0.6 0-0.3 0.1-0.3 0.2-0.3 0.3-0.2 0.1-0.2 0-0.2 0-0.2 0.1-0.3 0.3-0.7 0.5-0.5 0.7-0.6 0.7-0.3 0.5-0.2 0.7-0.3 0.6 0 0.7 0.1 0.7 0.1 0.7 0.2 0.5 0 0.1 0.1 0.2 0.1 0.1-0.1 0.3-0.1 0.2-0.3-0.3-0.3-0.4-0.1-0.5-0.2-0.7 0-1.1 0-0.8 0.2-0.7 0.4-0.7 0.9-1.4 0.4-0.5 0.4-0.3 0.6-0.5 0.5-0.3 0.8-0.4 0.4-0.2 0.6 0 0.8 0 0.6 0 0.4 0.1 0.4 0.2z m0.9-10.4l0.3 0 0.4 0 1.3-0.1 0.6 0.1 0.5-0.1 0.4-0.2 0.2-0.2 0.1-0.3 0-0.3 0-0.2 0-0.2 0.2 0 0 0.3-0.1 0.5-0.2 0.4-0.1 0.1-0.4 0.2-0.6 0.1-0.6 0-1.2 0-0.4 0-0.4 0-0.5-0.1-0.4-0.2-0.9-0.3-0.2-0.1-0.3-0.3-0.3-0.6-0.3-0.5 0.1-0.1 0.2 0.5 0.4 0.7 0.2 0.2 0.2 0 1 0.4 0.3 0.2 0.5 0.1z m5.3-2.5l-0.1 0.1-0.3-0.1 0-0.2 0.2 0 0.1 0.1 0.1 0.1z m0.1 1.6l-0.5 0.2-0.3 0.1-0.1 0-0.2 0 0-0.1 0.5-0.3 0.2 0 0.3 0 0.5-0.3 0.6-0.4 0.3-0.2 0.3 0 0.1-0.1 0.4-0.2 0.1-0.2 0.1-0.2 0.2-0.1 0.1 0 0.1 0.2-0.1 0.1-0.2 0.1-0.2 0.1-0.4 0.3-0.3 0.2-0.4 0.1-1.1 0.7z m1.2-1.4l-0.1 0.1-0.2-0.1 0.1-0.3 0.3-0.1 0.1 0.1 0.1 0.1-0.1 0.2-0.2 0z m-1.2-0.5l-0.1 0.1-0.2-0.1-0.1 0 0.1-0.1 0.1 0 0.2 0.1z m-0.7 0.1l0 0.1-0.2-0.1-0.1-0.1 0.1-0.1 0.2 0 0 0.2z m-0.3-0.3l-0.1 0-0.1-0.1-0.1-0.1 0.1-0.1 0.1 0.1 0.1 0.1 0 0.1z m1.6 1.1l-0.2 0-0.1 0 0-0.2 0-0.3 0.1-0.2 0.2-0.3-0.1-0.2 0.1-0.2 0.2-0.1 0.4 0.2 0.2 0.2 0 0.1-0.4 0.1-0.3 0.1-0.1 0.4 0 0.4z m-1.1-1.2l-0.1 0.1-0.1 0-0.1-0.2 0-0.1 0.2-0.1 0.1 0.1 0 0.2z m0.6-0.1l-0.1 0.1-0.2 0 0-0.1 0.1-0.2 0.2 0 0.1 0-0.1 0.2z m-1.5-0.1l-0.2-0.1-0.1-0.1 0-0.1 0-0.1 0.3 0.1 0.1 0.1-0.1 0.2z m-3.3-0.3l-0.1 0-0.2 0 0-0.2 0.1 0 0.2-0.1 0.1 0 0 0.1-0.1 0.2z m3.9 0.2l-0.1 0-0.2-0.2-0.3-0.2 0.1-0.1 0.1 0 0.3 0.2 0.1 0.2 0 0.1z m-3.2-0.4l-0.4 0 0-0.1 0.3-0.1 0.1 0.1 0 0.1z m-1.4 0.2l-0.2 0-0.5-0.3 0.1-0.2 0.1 0 0.3 0.2 0.2 0 0 0.1 0 0.2z m3.3-0.1l-0.2 0-0.1-0.1 0.1-0.1 0.1-0.2 0.1 0 0.1 0.1 0 0.1-0.1 0.2z m1.3-0.2l-0.1 0-0.1 0-0.1-0.2 0.1-0.1 0.2 0.1 0 0.2z m-5.3-0.1l-0.1 0.1-0.4-0.1-0.1-0.1 0-0.2 0.1 0 0.2 0.1 0.2 0 0.1 0.2z m3.5 0l-0.1 0.1-0.2 0 0-0.1 0-0.1 0.1-0.2 0.2 0 0.1 0 0 0.2-0.1 0.1z m1-0.1l-0.2-0.1 0-0.1 0.1-0.2 0.3 0 0.1 0.1 0.1 0.1-0.1 0.1-0.3 0.1z m-3.9-0.3l0.1 0.1 0.1 0.1 0 0.2-0.2-0.1 0-0.1-0.1-0.1-0.2 0 0-0.1 0.1-0.1 0.1 0 0.1 0.1z m-0.6 0l0-0.1 0.1 0 0 0.1-0.1 0z m1.4 0l-0.2 0.2-0.2-0.2-0.1-0.1 0-0.1 0.2-0.1 0.2 0.1 0.1 0.2z m2.7 0.1l-0.2 0-0.2-0.2 0-0.2 0.1-0.1 0.3 0.1 0 0.2 0.1 0.1-0.1 0.1z m-4.7-0.4l-0.1 0.1-0.2 0-0.1-0.1 0-0.1 0.2-0.1 0.1 0 0.1 0.2z m5 0l-0.1 0.1-0.1-0.1 0.1-0.2 0.1 0 0.1 0 0.1 0.1-0.2 0.1z m0.8 0.2l-0.1 0.1-0.1 0 0-0.1 0-0.2-0.1-0.1 0.1-0.1 0.1 0.1 0.1 0.3z m-5.4 0l-0.2 0 0-0.1 0-0.1 0.2-0.3 0.2 0-0.1 0.2-0.1 0 0 0.3z m3.3 0l-0.1 0.1-0.1-0.1-0.1-0.2 0.3-0.2 0.1-0.1 0.1 0.2 0 0.1-0.2 0.2z m-2.5-0.4l-0.1 0.1-0.3 0-0.1-0.2 0.1-0.1 0.2 0 0.1 0 0.1 0.1 0 0.1z m2 0.1l-0.2 0 0.1-0.1 0.2-0.2 0.1 0 0 0.1-0.2 0.2z m1 0l-0.1 0-0.1-0.1 0-0.2 0-0.1 0.2 0 0.2 0.1 0 0.1-0.1 0.1-0.1 0.1z m-2.2-0.1l-0.1 0.1-0.1-0.1-0.2-0.1-0.1 0-0.1-0.1 0-0.1 0-0.1 0.3 0 0.2 0.2 0.1 0.1 0 0.1z m-1.8-0.2l-0.1 0.1-0.2-0.1 0-0.1 0.1-0.1 0.1 0 0.1 0.2z m3.5-0.1l-0.1 0 0-0.1 0.1-0.1 0.1 0 0 0.1-0.1 0.1z m1 0.1l-0.1 0 0-0.2 0.2-0.1 0.2 0 0 0.1 0 0.1-0.1 0.1-0.2 0z m-4-0.2l-0.1 0.1-0.2-0.2 0.1-0.2 0.1 0 0.1 0.1 0 0.1 0 0.1z m4.7 0.1l-0.1 0-0.2-0.2-0.1-0.2 0.1 0 0.1-0.1 0.2 0.2 0.1 0.2-0.1 0.1z m-4.3-0.2l-0.1 0-0.1-0.1 0-0.1 0.1-0.1 0.1 0.1 0.1 0-0.1 0.2z m1.1 0.3l-0.1 0 0-0.1 0-0.2 0.1-0.1-0.1-0.1 0-0.2 0.1 0 0.1 0.1 0.1 0.1-0.1 0.1 0.1 0.1 0 0.2-0.2 0.1z m-0.7-0.5l-0.1 0-0.1 0 0-0.2 0.1 0 0.2 0.1 0 0.1-0.1 0z m-1.8 0.2l-0.1 0 0-0.2 0-0.2 0.1-0.1 0.2 0 0.1 0.2-0.1 0.2-0.2 0.1z m0.6-0.2l-0.1 0.1-0.1-0.2 0.2-0.2 0.1-0.1 0.2 0.1-0.1 0.2-0.2 0.1z m2-0.3l-0.3-0.1 0-0.1 0.1 0 0-0.1 0.2 0 0.1 0.1 0 0.1-0.1 0.1z m-0.6 0.1l-0.1 0-0.1-0.1 0-0.3 0.1 0 0.1 0 0 0.4z m-1.7-0.3l-0.2 0-0.2-0.1-0.1-0.2 0-0.1 0.3 0 0.2 0.2 0 0.2z m1.3-0.1l-0.1 0.1-0.1-0.1-0.1-0.1 0-0.2 0.3 0 0.1 0.1-0.1 0.2z m-0.9-0.3l0 0.1 0.2-0.1 0.1 0.1-0.1 0.2-0.2 0-0.1-0.1-0.2-0.2 0-0.1 0.2 0 0.1 0.1z m2.1 0l-0.1 0.1-0.2-0.2-0.1-0.1 0.4 0 0.1 0.1-0.1 0.1z m3.3 0.1l-0.2 0.1-0.1 0 0-0.3 0.2-0.1 0.1 0 0 0.2 0 0.1z m-3.9-0.4l0.1 0.1-0.1 0.2-0.2-0.1 0-0.1-0.3-0.1 0.1-0.1 0.3 0 0.1 0.1z m5.6 0.2l0.2 0.1 0.2 0 0.1 0-0.1 0.2-0.2 0-0.2-0.1-0.2-0.1-0.1 0-0.1-0.1 0-0.1 0.2-0.3 0.2 0.1 0 0.1 0 0.2z m-6.8-0.1l-0.1 0 0.1-0.2 0.2-0.1 0.1 0 0.1 0.2-0.3 0-0.1 0.1z m6.3-0.1l-0.2 0-0.2 0-0.1 0 0-0.2 0.5 0.1 0 0.1z m1.3 0.2l-0.3 0-0.1-0.1 0-0.1 0.1-0.2 0.1 0 0.2 0.3 0 0.1z m0 0l0.1-0.1 0-0.1-0.1-0.1 0.1-0.1 0.1 0 0 0.4 0.2 0.1 0 0.1-0.2 0.2-0.1 0-0.1-0.2 0-0.2z m-8.6-0.1l-0.1 0.1-0.1-0.1-0.2-0.2 0.1-0.1 0.1-0.1 0.2 0.2 0 0.2z m5.6-0.1l-0.1 0-0.2-0.2 0.1-0.1 0.4 0 0.1 0.2-0.2 0.1-0.1 0z m0.9 0l-0.2 0-0.2-0.1 0.1-0.1 0.4-0.1 0.1 0.1-0.2 0.2z m-5.3-0.4l-0.1 0.1-0.1 0 0-0.1 0.1-0.2 0.1 0.1 0.1 0-0.1 0.1z m7.5 0l-0.2 0.1-0.2-0.1 0-0.1 0.1-0.1 0.2 0 0.1 0.2z m-8.1 0.2l-0.1 0-0.1 0-0.1-0.1 0-0.3 0.4 0 0.1 0 0 0.1-0.1 0.1-0.1 0.2z m7.4 0l-0.1 0-0.1-0.2 0-0.1 0.2-0.2 0.1 0.1 0 0.2 0 0.1-0.1 0.1z m-7.9-0.3l-0.1 0.1-0.2 0 0-0.1 0-0.1 0.2-0.1 0.1 0.1 0 0.1z m5.1 0.4l-0.2 0-0.1-0.2 0-0.2 0.1-0.2 0.1 0 0 0.2 0.1 0.2 0 0.2z m2.5-0.4l-0.2 0-0.1 0-0.1-0.2 0.1-0.1 0.1 0 0.1 0 0.2 0.1-0.1 0.2z m-1.8-0.4l0.1 0.1 0.3 0 0 0.2 0 0.1-0.1 0.1-0.2 0 0-0.2-0.2 0-0.1 0-0.1 0 0-0.2 0.3-0.1z m1.2 0.2l-0.1 0.1-0.1-0.1 0.1-0.3 0.1-0.1 0.2 0.1 0 0.2-0.2 0.1z m1-0.4l-0.1 0.3 0-0.1-0.2-0.1 0-0.1 0.1-0.1 0.1 0 0.1 0.1z m0.5 0.3l-0.2 0-0.1-0.1 0-0.2 0-0.1 0.1 0 0.2 0.2 0 0.2z m-3.3 0l-0.1 0-0.1-0.2 0-0.1 0.2-0.1 0.2 0 0.1 0.3-0.3 0.1z m5.7 0.6l-0.1 0 0-0.1 0.3-0.5 0.2-0.3 0.2-0.1 0.1 0.1 0 0.2-0.3 0.2-0.2 0.3-0.2 0.2z m-4.3-0.7l-0.1 0.1-0.1 0-0.1-0.2-0.1-0.2 0.1-0.1 0.1 0 0.2 0.2 0 0.2z m-4.3 0l-0.2 0-0.2 0 0-0.1 0-0.3 0.1-0.1 0.2 0.1 0.1 0.4z m-0.6-0.1l-0.2 0-0.2-0.2 0-0.1 0.1-0.1 0.1 0 0.1 0.1 0.1 0.2 0 0.1z m2.9-0.1l-0.2 0.1-0.2-0.1 0-0.3 0.3-0.1 0.2 0.2-0.1 0.2z m4.4 0.2l-0.1 0-0.2-0.3 0-0.2 0-0.1 0.2 0 0.3 0.5-0.1 0.1-0.1 0z m-2.9-0.4l-0.1 0.1-0.1-0.2 0-0.1 0.1 0 0.1 0.2z m1.3 0.1l-0.1 0.1-0.2-0.1-0.1-0.2 0-0.1 0.1-0.1 0.2 0.1 0.1 0.3z m-7.6 0l0-0.4 0.2 0 0 0.1-0.1 0.2-0.1 0.1z m7.9-0.3l-0.1 0.1-0.2 0 0-0.2 0.2 0 0.1 0.1z m-1.3-0.2l0.2 0.1 0 0.2 0 0.1-0.1 0-0.1-0.1 0-0.3z m-5.5 0.4l-0.1-0.2 0-0.2 0.1 0 0.1 0.1 0 0.2-0.1 0.1z m2.8-0.3l-0.1 0.2-0.1-0.1-0.2-0.2 0.1-0.1 0.2 0 0.1 0.2z m-4.2 0.2l-0.1 0 0-0.1 0-0.2 0.1-0.1 0.1 0 0.1 0 0 0.2 0 0.2-0.2 0z m1.7-0.2l0 0.1-0.2-0.2-0.1-0.1 0-0.2 0.1 0 0.2 0.2 0.1 0.2-0.1 0z m0.8 0.1l-0.1 0-0.2-0.1-0.1-0.3 0.1-0.1 0.2 0 0.1 0.3 0 0.2z m5.3-0.2l-0.3 0-0.1 0 0-0.2 0.1-0.1 0.3 0 0.1 0.2 0 0.1-0.1 0z m-6.8 0.1l-0.2 0-0.1 0 0-0.2 0.2-0.2 0.2 0 0 0.2-0.1 0.2z m5.4-0.1l-0.1 0 0-0.2 0.1-0.1 0.1 0 0.1 0.1-0.1 0.2-0.1 0z m-1.3 0.1l-0.3 0-0.1-0.1 0-0.3 0.3 0 0.1 0.1 0.1 0.2-0.1 0.1z m0.4 0l-0.1 0.1-0.1-0.2 0-0.2 0-0.1 0.2 0 0 0.2 0 0.2z m1.4-0.1l-0.1 0.1-0.1 0-0.1-0.1 0.2-0.3 0.1 0 0.1 0.1-0.1 0.2z m4.5-0.4l0.1 0.2 0.3 0 0.2 0.1 0.1 0.1-0.1 0.1-0.2 0-0.1 0.1-0.2 0.3-0.1 0.4-0.2 0.4-0.6 0.4-0.1 0.2 0 0.3-0.2 0.5 0 0.4 0 0.4 0.2 0.2-0.1 0.1-0.1 0.1-0.1-0.1-0.2-0.2 0-0.3 0-0.4 0.1-0.2 0.1-0.3 0-0.4 0.1-0.3 0.8-0.7 0.1-0.2 0-0.3 0.2-0.5 0-0.1-0.2 0.2-0.1 0 0-0.2 0.1-0.3 0.2 0z m-9.5 0.2l-0.2-0.1 0.1-0.1 0.1 0 0.1 0.1-0.1 0.1z m2.5 0.1l-0.1 0-0.3-0.1-0.1-0.2 0-0.1 0.1 0 0.4 0 0 0.1 0 0.3z m1.4-0.2l-0.1 0 0-0.2 0.1 0 0 0.1 0 0.1z m-5.4 0l-0.1 0.1-0.1-0.1 0-0.2 0.1-0.1 0.3 0 0 0.2-0.2 0.1z m7.9 0.1l-0.2-0.1-0.1-0.1 0-0.1 0.2-0.1 0.1 0 0 0.2 0 0.2z m0.9-0.2l-0.2 0-0.2-0.1 0-0.1 0.2-0.1 0.3 0.1 0 0.1-0.1 0.1z m-3.6 0l-0.3-0.1 0.1-0.1 0.1-0.1 0.1 0 0.1 0.1-0.1 0.2z m-4.5-0.1l-0.1 0-0.1-0.1 0-0.1 0.2-0.1 0.2 0 0 0.2 0 0.1-0.2 0z m3.7 0.1l-0.1 0 0-0.3 0.1-0.1 0.1 0.1 0 0.1 0 0.2-0.1 0z m-4.9 3.4l0.1 0.1 0 0.2 0.2 0 0 0.1-0.2 0.1 0 0.2-0.3 0.3-0.1 0.2 0.1 0.2 0.1 0.1-0.1 0.1-0.1 0-0.2 0-0.1 0.3 0.1 0.1 0 0.1 0.2 0.1 0.2-0.1 0.2-0.1 0.2-0.1 0.1 0.2-0.1 0.3-0.2 0.1-0.2 0-0.2 0-0.2 0-0.1 0.1-0.1 0-0.1-0.3 0-0.2-0.2-0.1-0.3 0 0-0.1 0-0.1 0.3 0 0-0.1-0.3-0.1 0.1-0.1 0.2 0.1 0.1 0 0.1-0.2 0-0.3-0.1-0.1-0.1-0.1 0-0.2 0.1 0 0.2 0.2 0.3-0.3 0-0.1 0-0.2-0.1-0.2-0.2 0-0.1 0 0.2 0.3-0.1 0.1-0.2-0.2-0.1 0.1-0.1 0.1-0.2 0 0.1-0.4 0-0.4 0.1-0.5 0.1-0.2-0.3-0.5 0-0.2 0.1-0.2 0.1-0.3-0.1-0.3-0.1-0.2 0.1-0.3 0.1-0.2 0.1-0.2 0-0.4 0.2 0 0.3 0.1 0.1 0.1-0.1 0.2-0.2 0.1 0.1 0.3-0.2 0.1-0.1 0.3 0.2 0.2 0.4 0.2 0.2 0.1-0.1 0.2-0.3 0-0.1 0.1 0.1 0.3 0.2 0.2-0.1 0.3-0.2 0.2 0 0.2 0.1 0.3 0.3 0.3 0.2 0z m1.7-3.5l-0.1 0 0-0.2 0.1-0.1 0.2 0 0 0.1 0 0.1-0.2 0.1z m0.9 0.1l-0.1 0-0.3-0.2 0-0.2 0.3-0.1 0.1 0.1 0.2 0.2-0.2 0.2z m7.1-0.2l-0.1 0.1-0.1-0.1 0-0.2 0-0.1 0.3 0 0 0.1-0.1 0.2z m-2.5-0.2l0.1-0.1 0.2 0.1 0 0.1-0.1 0-0.2 0 0-0.1z m-1.8 0.1l-0.1 0.1-0.1-0.1 0.1-0.2 0.1 0 0.1 0.1-0.1 0.1z m1.4 0l-0.2 0 0-0.1 0-0.2 0.2 0 0 0.1 0 0.2z m2.5-0.1l-0.1 0-0.1-0.1 0-0.1 0.3 0.1-0.1 0.1z m-1.4 0.1l-0.1 0.1-0.2-0.1 0-0.1 0.2 0 0.1-0.2 0.1 0 0.1 0.1-0.1 0.1-0.1 0.1z m-0.7-0.1l-0.1 0.1-0.1 0.1-0.1-0.1 0.1-0.2 0.1-0.1 0.1 0 0 0.1 0 0.1z m-0.8 0l0 0.1-0.1-0.1 0-0.3 0.1 0 0.1 0.1-0.1 0.2z m-4.8-0.1l0 0.1-0.2-0.1-0.1-0.2 0.2 0 0.1 0.1 0 0.1z m-0.9 0l-0.1 0-0.1 0 0-0.2 0.1 0 0.1 0 0.1 0.2-0.1 0z m4 0.1l-0.1 0 0-0.4 0.1-0.1 0.1 0.1 0 0.2 0 0.1-0.1 0.1z m6.7 5.2l-0.7 0.5 0.6-0.6 0.2-0.4 0.2-0.2 0.4-0.7 0.5-0.7 0.1-0.4 0-0.4 0.1-0.3 0.1-0.2 0.4-0.9 0.2-0.4 0.1-0.7 0-0.3 0.1 0 0 0.3-0.1 0.7-0.2 0.4-0.5 1-0.1 0.4 0 0.4-0.1 0.5-0.5 0.7-0.4 0.7-0.4 0.6z m-11-5.4l-0.1 0.1-0.1-0.1 0.1-0.3 0.1 0 0.1 0.1-0.1 0.2z m0.6 0l-0.2 0 0-0.4 0.2 0 0.1 0.1 0 0.2-0.1 0.1z m-0.9-0.1l-0.2 0.1-0.1-0.2 0.1-0.2 0.3 0 0 0.1-0.1 0.2z m5.2 0.1l-0.1 0-0.3-0.3 0-0.1 0.2 0 0.2 0.2 0 0.2z m0.9 0.2l-0.1 0-0.2-0.2-0.2-0.1 0-0.1 0-0.2 0.2-0.1 0 0.1 0 0.2 0.3 0.2 0 0.2z m0.8-0.4l-0.2 0-0.1 0-0.1-0.2 0.2-0.1 0.1 0 0.1 0.1 0 0.2z m-0.5-0.1l-0.1 0.1-0.2-0.1 0-0.1 0.2-0.1 0.1 0.1 0 0.1z m1.5-0.1l0 0.2 0 0.1-0.1 0-0.1-0.2-0.1 0.1-0.1 0.1-0.1-0.1-0.2 0-0.2-0.1 0.1-0.2 0.1 0 0.1 0.1 0 0.1 0.1 0 0-0.2 0.1 0 0.1 0.1 0.1 0 0-0.1 0.2 0 0 0.1z m-5.9 0.4l-0.1 0.1-0.1-0.1-0.4-0.3-0.1-0.1 0.1-0.1 0.1-0.1 0.3 0.2 0.3 0.1 0.1 0.1 0.1 0.1-0.2 0-0.1 0.1z m3.5-0.8l0.1 0.1 0 0.1-0.2 0-0.3-0.1-0.2 0-0.1-0.1 0.1-0.1 0.4 0 0.2 0.1z m-4.1 0.1l-0.2 0.3-0.3-0.2-0.1 0-0.3 0.2-0.2-0.1 0.1-0.1 0.3 0 0.1-0.1 0.1-0.2 0.2 0 0.2 0.1 0.1 0.1z m2.6 0.5l-0.2 0-0.1-0.4 0-0.3 0.1 0 0.1 0.1 0 0.2 0.2 0.1 0 0.2-0.1 0.1z m2-0.3l-0.1 0-0.1-0.1 0.1-0.3 0.1 0 0.1 0.1 0 0.1-0.1 0.2z m3.1 0l-0.1 0-0.2-0.2 0-0.1 0.1-0.1 0.2 0.1 0 0.1 0 0.2z m-8.5-0.3l-0.2 0-0.1-0.1 0.1-0.2 0.2 0 0.1 0.1 0 0.2-0.1 0z m6.5 0l-0.2 0.1-0.2 0-0.1-0.1 0.3-0.2 0.3-0.1 0.1 0.1 0 0.1 0 0.1-0.2 0z m2.8 0l-0.2 0 0-0.1 0.1-0.2 0.1-0.1 0.1 0.1-0.1 0.3z m-10.1 0.1l-0.1 0-0.1-0.1 0-0.2 0.1-0.2 0.3 0 0 0.1-0.1 0 0 0.2 0 0.1-0.1 0.1z m6.7-0.2l-0.2 0 0-0.1 0-0.2 0.1-0.1 0.2 0 0 0.1 0 0.2-0.1 0.1z m2.3 0.3l0 0.2-0.3-0.1-0.1-0.1-0.2-0.1-0.1 0-0.1-0.3-0.1-0.2 0.2-0.1 0.1 0.3 0.1 0.1 0.4 0.2 0.1 0.1z m-0.9-0.4l-0.1 0.2-0.2 0-0.1-0.1 0-0.2 0-0.2 0.2 0 0.1 0.1 0.1 0.2z m1.7-0.2l-0.2 0.1-0.2 0-0.1-0.1 0.1-0.1 0.3 0 0.1 0.1z m-1 0.2l0 0.1-0.1 0-0.2-0.2 0.2-0.2 0.1 0 0 0.3z m-2.9 0l-0.1 0.1-0.2-0.1-0.2-0.2 0-0.2 0.2 0 0.3 0.2 0 0.1 0 0.1z m5.1-0.4l0 0.1 0.2 0-0.2 0.5 0.2 0.2-0.1 0.1-0.2-0.1-0.3 0.1 0-0.2 0.2-0.2 0-0.4 0-0.1 0.2 0z m-6.4 0.1l-0.2 0-0.1-0.1 0.1-0.1 0.2 0 0 0.2z m-3.5 0.1l-0.2-0.1-0.1-0.1 0.1-0.1 0.2 0 0.1 0 0.1 0.1-0.2 0.2z m3.7 0.8l-0.2 0-0.1-0.2-0.1-0.2 0.1-0.2 0.2-0.2 0-0.1 0-0.2 0.2-0.1 0.2 0.1 0.1 0.1 0 0.1-0.1 0.1-0.1 0.1-0.1 0.1 0 0.2 0 0.3-0.1 0.1z m2.5-1l-0.1 0.1-0.1 0-0.1-0.1 0-0.2 0.1-0.1 0.2 0.1 0 0.2z m2.4-0.1l-0.2 0-0.2 0-0.1-0.1 0.1-0.1 0.3 0 0.1 0.2z m-5.7 0.1l-0.1 0.1-0.1 0 0-0.3 0.1-0.1 0.2 0-0.1 0.3z m2.3 0.2l-0.1 0-0.2-0.3-0.1-0.1 0-0.1 0.1 0 0.1 0.1 0.2 0.2 0 0.2z m1.4-0.3l-0.1 0.1-0.1-0.1 0-0.3 0.2 0 0 0.1 0 0.2z m-1.1 0l-0.2 0 0-0.3 0.2 0 0.1 0.1-0.1 0.2z m1.6 0l-0.1 0-0.1 0 0-0.1 0-0.2 0.3-0.1 0.1 0 0.1 0.2-0.1 0.2-0.2 0z m0.7-0.2l-0.2 0-0.1-0.1 0-0.1 0.3 0 0.3 0 0 0.1 0 0.1-0.3 0z m-3.2-0.1l-0.2 0.1-0.1-0.1-0.1-0.1 0-0.2 0.1 0 0.2 0 0.2 0.2-0.1 0.1z m2.2-0.2l0 0.1-0.2 0-0.1-0.2 0-0.1 0.2 0 0.1 0.1 0 0.1z m3.3 0l0.1 0.1 0.1-0.1 0.1 0 0.2 0.2 0.2 0.1 0.1 0 0.1 0 0.3-0.2 0.1 0 0.1 0.1 0.1 0.1 0.3 0 0.1 0 0 0.2-0.1 0.2-0.2 0.1-0.1-0.1 0.3-0.2 0-0.1-0.3 0-0.2 0.2-0.3 0.1-0.2 0.1-0.2-0.1 0 0.8-0.2 0.3-0.1 0-0.1-0.1-0.1 0 0.1-0.3 0-0.4 0.1-0.2 0.2 0 0-0.1 0-0.2-0.2-0.1-0.4-0.1-0.2 0.1-0.1-0.1 0-0.1 0-0.1-0.2 0 0.1-0.1 0.2 0 0.1-0.2 0.2 0 0 0.2z m-4.9 0l-0.2 0.1-0.2 0 0-0.2 0.2-0.1 0.1-0.1 0.2 0 0 0.2-0.1 0.1z m2.9-0.2l-0.1 0.1-0.2-0.1-0.1-0.2 0.4 0 0 0.2z m-2.1 0.1l-0.2 0.1-0.1-0.1 0-0.2 0.2-0.1 0.1 0 0.1 0 0.1 0.1-0.2 0.2z m1.5-0.1l-0.3 0.1-0.1-0.2 0-0.1 0.2-0.1 0.2 0 0.1 0-0.1 0.3z m-2.7 0l-0.2 0-0.1-0.1 0-0.1 0.1-0.1 0.2 0 0.1 0.1-0.1 0.2z m1.8-0.1l-0.2 0 0-0.1 0-0.1 0.5 0 0 0.1-0.3 0.1z m2.1 0.1l-0.1 0.1-0.2-0.1-0.1-0.1 0-0.3 0.2 0 0.1 0.2 0.1 0.2z m-4.8 0.4l-0.3 0 0-0.1 0.1-0.3 0.1-0.3 0.1-0.1 0.3 0 0.1 0.1 0 0.2-0.2 0.1-0.1 0.1 0 0.3-0.1 0z m-0.4-0.6l-0.2 0-0.1-0.2 0-0.1 0.1 0 0.2 0.1 0 0.2z m4.7-0.3l0 0.1-0.4 0 0-0.1 0.2-0.1 0.2 0.1z m-3.2-0.1l0.2 0.1 0.3 0 0.1 0-0.1 0.2-0.1 0.1-0.1-0.2-0.2 0-0.2-0.1 0-0.1 0.1 0z m3.8 0.1l-0.1 0-0.3 0 0-0.1 0-0.1 0.3 0.1 0.1 0.1z m1.7-0.2l0.2 0.1 0.4 0 0.2 0.1 0.3 0.2 0.1 0.2 0 0.2 0 0.1-0.1 0-0.2-0.2-0.4-0.2-0.8 0.1-0.1-0.4 0-0.1-0.1-0.1-0.3 0.4-0.1 0-0.3 0-0.1 0.1 0.1 0.2 0 0.2 0 0.1-0.2-0.1-0.1 0 0-0.2 0-0.2 0.1-0.1 0.2-0.1 0.2 0 0.2-0.1 0.1-0.1 0-0.1-0.2 0-0.3 0.1-0.1 0 0.1-0.1 0.3-0.1 0.8 0 0.1 0.1z m-2.3-0.1l0.1 0.1-0.3 0-0.2-0.1 0.4 0z m-1.2 0.3l-0.2-0.1 0-0.1 0.1-0.2 0.1 0.1 0 0.2 0 0.1z m1.9-0.3l-0.1 0-0.2-0.1 0-0.1 0.3 0 0 0.1 0 0.1z m-3.5-0.2l0.1 0 0.2 0 0.1 0.1 0.1 0.1 0.2 0.1 0.3 0 0.2-0.4 0.1 0 0 0.2-0.1 0.3-0.3 0.1-0.2 0-0.7-0.4-0.3-0.1-0.1 0 0.1-0.2 0.2 0.1 0.1 0.1z m-0.8 0.3l-0.1 0 0-0.3 0-0.2 0.1 0 0.1 0.1 0.1 0.1 0 0.2-0.2 0.1z m2.9 0.1l-0.2 0-0.1-0.3 0-0.3 0.1 0 0.2 0 0.1 0.2 0 0.3-0.1 0.1z m3.8-0.7l0.3 0.2 0.1 0 0.2 0.3 0 0.2 0.1 0.1 0.2 0.3-0.1 0.1-0.1 0-0.1-0.2-0.1-0.1 0-0.3-0.2-0.2-0.2-0.2-0.2-0.1-0.6 0.1-0.3 0.1 0.1-0.1 0.2-0.1 0.5-0.1 0.2 0z m-5 0.2l-0.2 0 0-0.1 0.3-0.2 0.1 0.1 0 0.2-0.2 0z m-2 0.5l-0.2 0-0.1 0 0-0.1 0-0.3 0-0.3 0.2-0.1 0.1 0 0.1 0.2-0.1 0.5 0 0.1z m-1.2 0l-0.2 0-0.1-0.3 0.1-0.4 0.1-0.2 0.1 0.1 0.1 0.2-0.1 0.1 0 0.4 0 0.1z m4.8-0.6l-0.1 0-0.2-0.1 0-0.2 0.1 0 0.2 0.1 0 0.2z m-0.6-0.3l-0.3 0.2-0.2 0 0-0.2 0.2-0.1 0.2 0 0.1 0.1z m-1.5 0.1l-0.2 0-0.1 0 0-0.1 0-0.2 0.1-0.1 0.3 0 0 0.2-0.1 0.2z m0.6-0.2l0 0.1-0.2-0.1-0.1 0 0-0.2 0.1 0 0.2 0.1 0 0.1z m-1.3 0.1l-0.3-0.1 0-0.1 0.1-0.1 0.3-0.1 0.1 0.1 0.1 0 0 0.2-0.1 0-0.2 0.1z m-0.7-0.2l-0.1 0-0.2 0 0-0.1 0-0.1 0.2 0 0.1 0.1 0 0.1z m1.2-0.2l-0.2 0-0.1-0.1 0.1-0.1 0.1-0.1 0.1 0.1 0 0.1 0 0.1z m0.9-0.1l-0.1 0-0.1-0.1 0-0.1 0.1 0 0.2 0 0 0.2-0.1 0z m1.1-0.1l0.2 0.2-0.1 0.1-0.1 0-0.1-0.1-0.1-0.1-0.1 0-0.1 0.2-0.3 0-0.2 0 0-0.2 0.2 0 0.3-0.1 0.1-0.2 0.1 0 0.1 0 0.1 0.2z m-1.4 0l-0.1 0-0.3-0.1 0-0.1 0.1-0.1 0.2 0.1 0.1 0.1 0 0.1z m2.3 0.4l-0.1 0-0.1 0 0-0.4-0.1-0.1 0-0.2 0.1 0 0.1 0 0.1 0.2 0.1 0.1 0 0.2-0.1 0.2z m-4.7-0.1l-0.2 0.1-0.3 0-0.1-0.3 0.1-0.4 0.1 0 0.4 0.1 0.1 0.1 0 0.2-0.1 0.2z m3-0.6l-0.1 0.1-0.2-0.1 0-0.1 0-0.1 0.2 0.1 0.1 0.1z m1.2-0.1l0 0.1-0.2 0-0.1-0.1-0.2-0.2 0.1 0 0.2 0 0.2 0.2z m2.7-0.1l0.2 0.1 0 0.1-0.1 0.1-0.3-0.2-0.2 0 0 0.2 0.1 0.1 0.3 0.2-0.1 0.1-0.1 0-0.3-0.3-0.3-0.3-0.1-0.2 0-0.1 0.1 0 0.4 0 0.2 0 0.2 0.2z m-6.4 0.2l-0.2 0-0.2-0.1-0.1-0.1 0-0.2 0.1-0.1 0.2 0.1 0.2 0.3 0 0.1z m2.7-0.2l-0.1 0-0.2-0.1 0-0.2 0.1 0.1 0.1 0.1 0.1 0.1z m-1.7 0.2l-0.1 0.1-0.1-0.1-0.2 0-0.2 0.1-0.2 0.2-0.2 0.1 0-0.1 0-0.1 0.2-0.3 0.2-0.4 0.2 0 0.1 0 0.3 0.5z m1-0.3l-0.1 0.1-0.2 0-0.1-0.1 0-0.2 0.1 0 0.3-0.1 0 0.1 0 0.2z m1.8-0.1l-0.2 0-0.1-0.1 0-0.1 0.1 0 0.1 0 0.1 0.2z m-0.7 0l-0.2 0-0.2-0.1 0-0.1 0.1-0.2 0.4 0 0 0.2-0.1 0.2z m-1.7 0.4l-0.1 0-0.4-0.5 0-0.1 0.3-0.3 0.2 0 0.2 0.1 0 0.1-0.1 0.1-0.3 0.3 0.2 0.3z m-0.4-0.8l-0.2 0.1-0.1-0.1 0.1-0.1 0.2 0 0 0.1z m0.9-0.2l0.3 0 0 0.3-0.1 0.1-0.2-0.1-0.1-0.1 0-0.1 0.1-0.1z m1.6 0.3l-0.1 0-0.1-0.1 0-0.2 0-0.1 0.2 0 0.1 0.1 0 0.2-0.1 0.1z m-10.1 13.3l0 0.1-0.1 0-0.3-0.2-0.2-0.4-0.7-1.4-0.4-1.2-0.1-0.8 0-0.8 0.2-0.9 0.2-0.7 0.1-0.6 0.2-1 0.3-0.7 0.2-0.6 0.1-0.6 0.1-0.5 0.3-0.4 0.7-1 0.2-1.1 0.2-0.7 0.3-0.3 0.1-0.2 0.4-0.2 0.1 0 0 0.1-0.2 0.1-0.3 0.2-0.1 0.2-0.4 1.1-0.1 0.4-0.1 0.5-0.4 0.5-0.3 0.5-0.2 0.4-0.1 0.4-0.2 0.6-0.3 0.7-0.3 0.7-0.1 0.9-0.1 0.6-0.3 1.7-0.1 0.8 0.2 0.7 0.4 1.2 0.3 0.7 0.5 0.8 0.3 0.4z m14.9-8.7l-0.1-0.1 0.2-0.8 0-0.4-0.1-0.8-0.2-0.6-0.2-0.7-0.2-0.7-0.2-0.4-0.5-0.5-0.4-0.4-0.6-0.4 0.1-0.1 1 0.8 0.5 0.6 0.2 0.4 0.2 0.7 0.2 0.6 0.2 0.7 0.1 0.9-0.1 0.6-0.1 0.6z m-6.4-4.9l-0.2 0-0.2-0.1 0.1-0.2 0.2-0.1 0.3-0.2 0.5-0.1 0.5-0.4 0.2 0 0.2 0.1 0.2 0.3-0.1 0.1-0.7 0.5-0.2-0.1-0.2-0.2-0.1 0 0 0.1 0.2 0.3-0.2 0-0.2-0.2-0.2 0.1-0.1 0.1z m-0.7-0.3l-0.4 0.1-0.1-0.1-0.1-0.1 0.1-0.3 0.3-0.5 0.2 0 0.1-0.2 0.5 0 0 0.2-0.2 0.1-0.2 0.1-0.1 0.3-0.1 0.4z m1.2-2.6l0.8 0.2 0.8 0.1 0.6 0.2 0.6 0.2 0.5 0.2 0.5 0.2 0.4 0.2 0 0.1-0.1 0-1-0.4-0.9-0.4-0.6-0.1-1.7-0.4-0.4-0.1-0.4 0-0.4 0.1-0.4 0.1-0.7 0.2-0.6 0.3-0.8 0.3-0.5 0.2-0.4 0.4-0.5 0.4-0.6 0.6-0.5 0.4-0.5 0.3-0.1 0 0-0.1 0.5-0.2 0.6-0.5 0.6-0.6 0.4-0.4 0.5-0.4 0.4-0.2 0.8-0.3 0.7-0.3 0.6-0.3 0.5-0.1 0.4 0 0.9 0.1z m101.5 125.6l-4.7 3.2-22.9 9.4-13.9 8.1-6.3 2.3-5.7 1.2-44 1.8-4.2-0.5-4.1-1.3-2.5-3.3-2.2-4.4-25.5-73.8-1.8-2.4-0.5 0.2-1.8 0.6-0.4 0.1 0-0.1 0-0.2-0.1-0.2-0.2-0.3-0.3-0.2-0.4-0.1-0.5 0-0.4 0-0.4-0.1-0.5-0.1-0.1 0.2-0.1 0.2 0.3 0.1 0.5 0.1 0.4 0.1-0.5 0-0.5-0.1-0.5-0.1-1-0.4-0.4-0.2-1.1-0.7-0.4-0.4-0.2 0 0-0.1 0.2-0.1 0.1 0.1 0.4 0.4 1 0.7 0.5 0.2 1 0.4 0.1 0 0-0.3 0-0.1-0.7-0.3-0.6-0.3-0.6-0.3-0.5-0.5-0.6-0.6-0.3-0.4-0.2-0.3-0.2 0.1-0.2 0.1 0 0.1 0 1.9-0.1 0-0.1-0.1 0.1-1.9 0.1-0.1 0.5-0.2 0.1-0.2-0.2-0.4-0.2 0.1-0.1 0-0.4-1.2 0-0.7-0.1-0.8 0.2-0.9 0.2-0.8 0.2-0.6 0.5-0.9 0.6-0.8 0.5-0.7 0.1-0.3 0.3-0.6 0.4-0.4 0.6-0.7 0.7-0.3 0.7-0.3 0.7 0 0.8 0 0.5 0.1 0.1 0.1 0 0.4-0.2 0.1-0.4 0.1-0.2 0.1-0.1 0.2-0.3 0.2-0.4 0.1-0.7 0.2-0.4 0.4-0.3 0.3-0.3 0.1-0.8 0.3-0.4 0.3-0.5 0.5-0.1 0.1 0 0.1 0.1 0.1 0 0.2-0.1 0.2-0.5 0.7-0.4 0.8-0.2 0.7 0 0.5-0.1 0.4 0.1 0.6 0.1 1.1 0 0.2 0.2 0.4 0.2 0-0.4 0.2 0 0.1 0.2 0.4 0.1 0 0.4-0.2 0 0.1-0.2 0.1 0.3 0.4 0.4 0.4 0.3 0.3 0.9 0.7 0.4 0.2 0.8 0.2 0.9 0.2 0.7 0 0 0.4 0.1 0 0.1 0.1 0.5 0.2 0.1 0.1 0.1 0 0.2-0.2 0.1-0.1 0.5 0.5 0.2 0.4 0.3 0 0.5-0.1 0.3-0.1 0.7-0.3 0.6-0.3 0-0.4-0.1-0.1-0.5 0 0-0.3-0.4-0.7-1.7-3.2 0-0.1 0.3-0.2-0.2-0.3-0.3 0.2-0.3 0.5-0.2 0.6-0.1 0.5 0 1.1 0.1 0.4-0.1 0.1-0.2 0-0.1-0.1-0.1-0.8 0.1-0.8 0.2-0.8 0.5-0.7 0.1-0.2 0-0.1 0-0.1-0.2 0-0.5 0.5-0.5 0.9-0.2 0.8-0.1 0.6-0.1 0.6-0.2 0.1-0.1 0-0.1-0.3 0.2-1 0.4-0.9 0.5-0.8 0.4-0.5 0.2-0.2 0-0.1-0.1-0.1-0.4 0.2-0.8 0.7-0.5 0.6-0.4 0.8-0.2 1-0.1 0.2-0.2-0.1 0-0.1 0.2-1.1 0.4-0.6 0.5-0.7 1-0.9 0.4-0.3 0-0.1 0-0.1-0.3 0-0.7 0.4-0.5 0.4-0.4 0.3-0.6 0.7-0.3 0.6-0.1 0.6-0.2 0.3-0.1 0-0.2 0 0-0.3 0.4-1 0.4-0.7 0.8-0.7 0.4-0.3 0.4-0.2 0.7-0.2 0.1-0.1 0-0.2-0.1-0.1-0.2 0-0.6 0.2-0.9 0.3-0.5 0.3-0.4 0.4-0.5 0.4-0.4 0.7-0.2 0.2-0.2 0-0.1-0.1 0-0.1 0.2-0.4 0.4-0.5 0.7-0.6 0.8-0.5 0.5-0.3 0.8-0.1 0.4-0.1 0-0.1 0-0.1-0.1-0.1-0.4 0-0.5 0.1-0.8 0.2-1.2 0.6-0.6 0.5-0.2 0.2-0.2 0 0-0.1 0-0.2 0.2-0.3 0.7-0.5 1-0.4 0.7-0.2 0.7-0.1 0.5 0 0-0.1-0.1-0.2-0.2-0.1-0.5-0.1-0.8 0-0.8 0.1-0.6 0.2-0.2 0.2-0.1 0-0.1-0.2 0.1-0.2 1.2-0.3 0.6-0.1 0.7 0 0.6 0.2 0-0.2-0.1-0.1-1.2-0.4-0.6-0.1-0.4 0.1-0.1-0.2 0.1-0.1 0.5 0 0.5 0 0.6 0.1 0.3 0.1 0.2 0-0.1-0.2-0.4-0.3-0.7-0.2-0.2-0.2 0.1-0.2 0.2 0.1 0.7 0.4 0.4 0.2 0.1 0 0.1-1.5 0.1-0.1 0.1 0.1-0.1 1.5 0 0.1 0.1 0 0-0.1 0.3-0.6 0.3-0.5 0.4-0.7 0.2 0 0.1 0 0 0.2-0.2 0.2-0.3 0.5-0.4 1.1 0 0.3 0 0.1 0.1 0 0.5-1 0.3-0.4 0.7-0.7 0.5-0.3 0.1 0 0.1 0.1 0 0.2-0.3 0.2-0.4 0.3-0.4 0.5-0.4 0.5-0.3 0.6-0.1 0.3 0 0.2 0.1 0.1 0.1 0 0.5-0.8 0.6-0.6 1-0.6 0.6-0.3 0.6 0 0.2 0 0 0.3-0.3 0.1-0.7 0.1-0.8 0.4-0.5 0.4-0.5 0.4-0.5 0.8-0.2 0.2 0.1 0.2 0.1-0.1 0.7-0.6 0.8-0.6 0.8-0.4 1-0.2 0.6-0.1 0.3 0 0.1 0.1 0 0.2-0.1 0.1-0.3 0-0.7 0-0.6 0.1-0.9 0.4-0.8 0.6-0.8 0.6 0 0.2 0.1 0.1 0.1 0 0.8-0.5 0.7-0.4 0.5-0.1 0.9-0.1 0.9 0 0.6 0.2 0.2 0.1 0.1 0.1-0.1 0.2-0.2 0-0.3-0.1-0.4-0.1-0.8-0.1-0.8 0-0.6 0.2-0.6 0.3-0.7 0.5-0.1 0.1 0.1 0.1 0.1 0 0.5-0.2 0.7-0.2 0.7-0.1 0.5 0 0.9 0 0.5 0.1 0.3 0.1 0.2 0.2 0.1 0.1-0.1 0.1-0.2 0.1-0.5-0.2-0.9-0.2-0.5-0.1-0.3 0-0.7 0.1-0.7 0.3-0.4 0.2-0.1 0.1 0.1 0.1 0.8-0.1 1.1-0.1 0.8 0.1 0.5 0.2 0.7 0.4 0.1 0.1 0 0.2-0.1 0-0.3 0-0.5-0.3-0.5-0.2-0.7-0.2-1.1 0.1-0.5 0-0.2 0.1 0 0.1 0.3 0.1 0.5-0.1 0.4 0.1 0.6 0.1 0.7 0.4 0.6 0.3 0.3 0.3 0 0.2 0 0.1-0.2 0.1-0.2-0.1-0.6-0.6-0.6-0.3-0.4-0.2-0.5-0.1-0.8 0-0.1 0.1-0.1 0.1 0.1 0.2 0.1 0 0.2-0.1 0.2 0 0.3 0.7 1.7 3.1 0.1 0.2 0.3 0.1 0.1 0.1-0.1 0.1-0.3 0.3-0.1 0 0.1 0.1 0.2 0.2 0.2-0.1 0.9-0.5 0.4-0.3 0.1-0.2-0.1-0.1-0.1-0.5 0.1-0.9 0-0.2 0.3-0.1 0.4-0.8-0.3-0.3 0-0.1 0.2 0.1 0.3-0.7 0.3-0.7 0.3-0.9 0-0.9 0-1-0.3-0.5-0.2-0.5 0-0.1 0.2-0.1-0.3-0.5-0.3 0.2 0-0.3-1.1-1.1-0.5-0.3-0.4-0.3-0.7-0.2-0.7-0.2-0.7 0-1.4 0 0 0.1-0.1 0 0.2-0.9 1.1 0 1 0.1 0.9 0.2 1.1 0.5 0.6 0.4 1 0.8 0.4 0.6 0.1 0.1-0.2 0.1 0.3 0.5 0.5-0.4 0.2 0.1-0.2 0-0.3 0.3 0.2 0.4 0.2 0.5 0.2 0.9 0 0.8 0 0.7-0.1 0.6-0.1 0.3 0.4 0.2 0.1 0 0.1-0.6 0.1-0.6 0-0.8-0.1-1.2-0.2-0.1 0-0.1 0.2-0.1 0.1 0 0 0.2 0 0.1 0.1 1.2-0.1 0.9-0.1 0.6-0.1 0.7-0.6 1.3 0 0.1-0.2 0 0-0.1 0.1 0 0.5-1.2 0-0.1-0.3-0.1-0.1 0-0.3 0.7-0.4 0.8-0.4 0.1-0.4 0.6 0 0.5 0 0.7 0 0.3 0.1 0.2-0.2 0.3 0.5-0.3 5.7-3.4-1.1-4.7 6.9-1.4 0.9 0.8 15.5-18.3 21.2-27.2 1-3.7-0.1-3.1 3.9-3.6 3.3 0.5 3.1 4.5 1.1 3.1-0.9 3-2.7 4.2 5.7-1.7 1.2-4.1-1.6-5.1-4.2-7.7-0.6-1.9 1.2-2 3.2-3.5 0.4 0.4 10.6 2.9 5.9-0.3 6.9-2.5 1.9-0.4 1.2 1.1 2.3 3.3 1.7 1.6 6.7 3.9 1.6 1.1 1.7 1.6 1.5 1.8 14.8 10 3.3 3.5 2.5 4.8 6 25.1 0.1 1.5-0.4 1.4-0.8 1.4-1.2 1.3-2.6 2.3-1 1.1-0.7 1-1.2 2.4-0.1 0.3 1.6 5.2 3.6 7.5 2.4 6.5 0.7 2.9 0.3 1.7 0 5.3 0.7 6.8 2.4 9.6 1 7.1 0.1 3.9-0.2 3-0.4 2.5-0.4 1.8-1.2 2.6z m-133.1-70.4l0.8 0.5 0.4 0.3 0.4 0.4-0.1 0-0.4-0.3-0.4-0.3-0.7-0.6z m-9.2 11l0.1-0.1 0 0.1-0.1 0.1 0-0.1z" id="ARE350" name="Dubay" data-id="ARE350" data-name="Dubay">
 </path>
 <circle cx="994.6" cy="186.2" id="0">
 </circle>
 <circle cx="580.9" cy="370.1" id="1">
 </circle>
 <circle cx="523.8" cy="634.9" id="2">
 </circle>
</svg>