<?xml version="1.0"?>
<!--
************* Copyright (c) 2017 Pareto Softare, LLC DBA Simplemaps.com *******************		
************* Free for Commercial Use, full terms at  http://simplemaps.com/resources/svg-license ************
************* Attribution is appreciated! http://simplemaps.com ***************************
-->
<svg baseprofile="tiny" fill="#7c7c7c" height="763" stroke="#ffffff" stroke-linecap="round" stroke-linejoin="round" stroke-width="2" version="1.2" viewbox="0 0 1000 763" width="1000"
	 xmlns="http://www.w3.org/2000/svg">
	<path d="M295 283.6l1.4 2.9 1 1.1 2.9 1.9 0.5 0.2 0.4 0 1.8-0.1 0.8 0.2 0.7 0.5 0.7 0.7 1 1.2 1.7 2.5 0.5 0.6 4.3 3 0.9 1.2 0.5 1 0.1 0.7 0.4 0.9 0.5 1.1 1.2 1.7 0.5 1 0.2 0.9-0.2 0.8-0.7 2.9-0.1 0.9 0 0.8 0.2 1.5-0.1 0.7-0.4 2.1-0.4 1.1-0.6 1.5-0.3 0.4-0.5 0.4-0.5 0.6-2.1 1-12.4 3.4-4.6 2.3-0.8 0.3-0.7 0-0.6-0.2-1-0.1-0.5-0.2-1.1-0.6-8.5-0.3-1.5 0.4-0.8 0.5-0.6 0.7-0.4 0.5-0.2 0.4-0.2 0.8-7.7 0.6-0.5-0.1-1.8-0.8-0.8-0.2-0.8-0.2-6.8-0.1-0.6 0.1-0.9 0.3-1 0.5-1.7 1.2-0.7 0.8-0.5 0.6-0.3 1.4-0.3 0.5-0.3 0.3-0.5 0.1-1.6 0.2-0.7 0.3-4.7 3.7-14.3 4.3-1.4 0.2-0.6-0.2-0.8-0.6-0.6-0.5-2-1.2-5.3-1.6-1.1 0.5-1.1 0.4-0.8 0-4-0.7-1.2-0.4-2.9-1.6-0.7-0.5-1-1.1-2.3-1.2-5-1.9-5.8-0.6-2.3-0.2-0.7 0.1-0.6 0.4-2.5 2.1-1.1 0.3-4.3-2.1-4.3-0.9-0.9 0.1-0.3-0.4 0.1-2.3-0.5-1.2-0.3-0.5-0.5-0.5-1-1.7-0.4-0.3-0.3-0.1-1.3 0.2-2.6-0.1-0.6-0.1-0.8-0.4-1-0.5-0.7-0.6-0.6-0.7-0.5-0.4-0.5-0.2-1.9-0.6-0.6-0.2-0.7-0.4-1.8-1.5-2.4-2.3-0.6-0.4-0.4-0.1-1.4 0.1-0.5-0.1-3.1-1.3-0.5-0.5-0.2-0.5-0.5-1.6-0.1-0.9-0.1-1 0.9-9.4 0.5-3.1 1.2-4.2 0.7-1.7 5.9-9.8 2.6-7.8 0.1-0.7 0.3-0.2 6.2-5 4.7-2.2 1.4-0.3 2.9-0.3 1.3-0.3 1-1 0.4-1.6 0.3-3.2 0.7-2.7-0.3-0.9-1.1-0.9-0.2-1.1-0.2-4.3 0.1-1.3 1.9-1.8 5.3-1.8 1.9-1.4 0.4-0.8 0.1-0.6-0.4-0.4-1.7-0.7-0.5-0.4-1-1.3-3.5-3.2-0.5-1.1-0.3-1.5-0.7-1.1-0.4-1.1 0.3-1.5 1-1.1 1.5-0.3 15.1 0.3 6-1.3 5.6-2.6 1-0.9 1.7-2.3 0.9-1 1.3-0.7 1.4-0.3 8.6-0.5 2.8-0.8 6.5-3.8 2.1-0.6 1.1-0.2 2 1.2 0.8 2.6 0.1 3.7-0.3 3.4-1.2 5.5-0.6 1.8-0.2 1.5 0.1 1.8-0.1 0.4-1 1.7-0.7 2.1-0.2 0.9 0.1 0.7 0.4 0.2 0.5 0.2 0.8 0.1 0.9 0.4 0.7 0.4 0.7 0.5 1.2 1.2 0.8 1 0.9 1.7 0.6 1.7 0.3 1.4 0.3 6 0 0.8-0.1 0.7-0.2 0.9 0 0.5 0.1 0.3 0.2 0.3 0.7 0.5 0.8 0.4 11 0.8 4.2 0.8 0.5 0.5 0.3 0.5 0.2 0.5 0 0.9-0.2 0.5-0.5 0.7 0 0.6 2.5 1.5 0.8 0.3 0.5 0.1 1.3-0.4 0.8-0.1 2.5-0.8 3-0.5 0.6 0.6 0.1 0.8-0.1 1.1-0.2 1.9-0.7 2.6 0 0.8 0 1.3-0.4 3.1 0 1.5 0.2 1.1 0.2 0.4 0.3 0.2 6.7 2.2 7 1 1.3 0 2.1-0.4 2.3-0.1 1.6-0.3 0.8-0.4z"
		  id="AFG1741" name="Badghis" data-id="AFG1741" data-name="Badghis">
	</path>
	<path d="M162.9 273.9l-0.1 0.7-2.6 7.8-5.9 9.8-0.7 1.7-1.2 4.2-0.5 3.1-0.9 9.4 0.1 1 0.1 0.9 0.5 1.6 0.2 0.5 0.5 0.5 3.1 1.3 0.5 0.1 1.4-0.1 0.4 0.1 0.6 0.4 2.4 2.3 1.8 1.5 0.7 0.4 0.6 0.2 1.9 0.6 0.5 0.2 0.5 0.4 0.6 0.7 0.7 0.6 1 0.5 0.8 0.4 0.6 0.1 2.6 0.1 1.3-0.2 0.3 0.1 0.4 0.3 1 1.7 0.5 0.5 0.3 0.5 0.5 1.2-0.1 2.3 0.3 0.4 0.9-0.1 4.3 0.9 4.3 2.1 1.1-0.3 2.5-2.1 0.6-0.4 0.7-0.1 2.3 0.2 5.8 0.6 5 1.9 2.3 1.2 1 1.1 0.7 0.5 2.9 1.6 1.2 0.4 4 0.7 0.8 0 1.1-0.4 1.1-0.5 5.3 1.6 2 1.2 0.6 0.5 0.8 0.6 0.6 0.2 1.4-0.2 14.3-4.3 4.7-3.7 0.7-0.3 1.6-0.2 0.5-0.1 0.3-0.3 0.3-0.5 0.3-1.4 0.5-0.6 0.7-0.8 1.7-1.2 1-0.5 0.9-0.3 0.6-0.1 6.8 0.1 0.8 0.2 0.8 0.2 1.8 0.8 0.5 0.1 7.7-0.6-1.1 7.2-0.1 2.3 0.4 1.3 1.1 2.5 0.1 1.1 0 0.7-0.3 0.4-0.5 0.1-0.9-0.2-1.2-0.1-0.4-0.1-0.2-0.3-0.4-0.6-0.6-1.3-0.4-0.1-0.5-0.1-0.5 0.2-1.4 1-1.2 0.6-1.5 0.2-0.8 0.2-0.5 0.4-0.4 0.4-0.8 0.6-0.9 0.2-0.9 0.1-1.5-0.1-1-0.3-0.8-0.1-0.7 0.1-1 0.4-0.4 0.3-0.3 0.4-0.2 1.1 0 0.7 0.4 2.5-0.1 0.4-0.2 1.1 0 0.6 0.1 0.7 0.2 1.3-0.1 0.6-0.3 1-0.2 0.5 0.1 0.5 0.8 1.1 0.3 0.5 0.2 0.6 0.1 0.8-0.1 1-0.5 1.3-0.4 0.6-0.5 0.3-0.9 0.1-0.7 0.2-1 0.6-1 1.2-0.7 0.5-0.5 0.3-0.5 0.1-1.7 0-0.8 0.1-0.9 0-0.6-0.2-3.1-1.6-0.3 0-0.5 0.8-0.5 1-0.9 0.5-8.8-0.2-1.1-0.3-1.2-1.2-1-0.8-1.1-0.7-2-0.8-1.1-0.3-5.9-0.5-1.2 0.1-0.6 0-9.5 0.4-1.2 4.9-1.9 3.6-4 6.1-0.3 0.9 0.1 0.8 2.8 4.8 0.4 0.9 0.2 1.3 0.3 0.7 0.3 0.6 0.5 0.5 2.2 1.9 1.3 1.6 0.9 1.2 0.5 1.1 1 3.6 0.4 0.6 1.9 2 0.7 1.2 0.1 0.7-0.4 0.7-0.6 0.4-0.8 0.4-0.7 0.3-0.6 0.2-1.2 0.1-0.3 0.1-0.6 0.4-0.2 0.4-0.3 0.5-0.1 0.5 0.1 0.4 0.9 2.8 0.1 0.8 0 0.7-1 2.1-1.6 1.1-1.9 0.7-6.7 0.6-7.8 2.2-1.1 0.5-0.2 0.4-0.4 0.4-1.1 0.8-1 0.4-1.2 0.2-2.8 1.3-2.8 2.1-0.9 1-0.2 0.5-0.1 0.5 0.2 0.5 0.6 0.6 0.3 0.4 0.3 0.4 0.2 0.7-0.1 0.6-0.3 0.9 0.2 0.9 0.5 1 1.4 2 0.5 1.1 0.3 1.4 0 1.6 0.3 3.1 0.4 1.5-1.2 1-1.5 0.7-0.6 0.4-0.6 1.1-0.8 1.6-1.2 3.3-0.4 1.5-0.2 1.1 0 0.3-0.3 0.9-1.9 1.9-6 2.2-0.5-0.1-0.2-0.3 0-0.4 0.2-0.9 0-0.3-0.2 0-1.7 0.3-5.8 2-1 0.2-0.9 0.1-2.8-0.1-0.4 0.1-0.4 0.4-0.4 0.8-0.2 0.8-0.3 0.6-0.3 0.6-0.8 0.7-1 0.6-2.9 0.9-3.5 0.7-0.6 0-1-0.2-1.8-1-0.6-0.2-1 0.1-0.9 0.3-2.9 1.5-2 1.3-1.8 1.5-1.1 0.7-0.4 0.4-0.5 0.7-0.4 1.4-0.1 0.9 0 0.6 0.3 0.9-0.1 0.9-0.1 0.6-1.6 3.5-0.3 0.7-0.1 0.5 0.3 1.5-0.3 0.2-0.5 0.1-1.3-0.3-1.6 0-2.6 0.5-5.7 0.6-2 0.4-1.1 0.5-0.5 0.3-2.1 2-1.1 0.6-0.6 0.2-0.9 0.1-1-0.1-0.5-0.1-0.4-0.2-0.5-0.8-0.2-0.7-0.6-0.9-0.1-0.3-0.1-0.7 0-1-0.4-1.2-0.2-1-0.1-2.1-0.4-0.4-0.4-0.1-0.6 0-1.1 0.5-3.5 2.6-1.8 2.1-0.8 0.8-0.5 0.3-0.5 0.3-0.5 0.1-0.6-0.1-0.9-0.7-2.6-2.6-0.8-1.3-0.4-0.6-0.5-0.3-0.7-0.2-4.2-0.2-0.7-0.2-0.7-0.3-0.6-0.4-0.4-1-0.1-1.3 0.1-2.9 0.3-2.7 0.4-1.3 0.3-0.5 0.4-0.4 1.6-0.9 0.4-0.3 0.3-0.4 0.4-0.9 0.2-0.5 0.3-0.4 0.9-0.7 2.4-2.4 0.7-1.1 0.5-0.5 0.6-0.6 1.9-1.4 0.7-0.9 0-0.9-3.1-5-2.7-3-0.3-0.7 0-0.8 0.2-0.3 0.6-0.6 0.3-0.4 0.6-0.8 0.4-0.4 1-0.7 1.2-1.3 0.4-0.6 0.2-0.5 0.1-0.7 0-3.5 0.1-0.8 0.2-0.5 0.2-0.4 1-1 0.3-0.4 0.3-0.6 0.1-0.7 0-0.9-0.2-0.5-0.6-0.6-4.6-1.1-5.2-0.4-2.2 0.2-1.2-0.1-0.9-1.1-3.3-0.7-3.2-0.1-1.6 0.3-0.7 0.4-0.5 0.6-0.3 0.8-0.5 0.9-0.5 0.5-0.9 0.5-1.9 0.7-0.9 0.1-0.7-0.1-1.5-0.7-0.8-0.1-1.3 0-9.9 1-4.8-0.4-9.1-2-4-1.8-3.8-0.4 0.1-0.1-0.6-1.2-1.2-1.1-1.1-0.6-2.3-0.6-2.7-0.2-5.1 0.3-5.4-0.5-5.6-2.3-4.4-4.2-1.7-6.1 0.6-2.7 2.1-4.8 0.2-3.3-2-12.8-0.9-8.4 0.4-3.7 2-4 2.1-2.8 2.5-2.5 3.3-1.8 1-1.2-0.4-1.8 4.9-0.3 7-0.4 5.2-0.3-0.8-1.6-5.2-6.7-1.1-2.2-0.6-0.9-0.9-0.8-1.7-0.8-0.6-0.6-0.6-2-0.4-0.6-0.6-0.3-0.8-0.1 1.1-1.8 1.7-0.9 3.8-0.5 1.7-0.5 1.4-0.9 3.1-3.6 0.4-0.7 0.4-0.5 0.9-0.6 1-0.1 0.9 0.1 0.8-0.2 0.7-1 0.3-2.1-0.2-2.1 0.1-2 1.2-1.5 2.2-1.7 1.4-2.4 0.4-1.4 2.1-0.8 0.5-2.7 0.3-3 0-0.8-0.3-1.5-0.1-0.9 0.2-1.1 1-1.5 0.2-0.9 0.3-1.6 1-3.2 0.4-3.5 0.5-1.2 1.7-2.4-0.8-0.7-0.1-0.7 0.2-0.8 0.1-1-0.1-0.3-2.5-3.3-0.4-0.9 0.4-0.4 0.7-0.3 0.1-0.9-0.4-0.8-0.4-0.3 0-0.9 0.1-1.8 0.4-1.8 1-0.8 1.4 0 1.7-0.3 1.3-0.8 0.6-1.5-0.4-4.4 0.4-1.7 0.4-1 1.4-1.9 0.4-0.9 0.6-2.7 0.8-1.6 1.6-2 0.9-1.6 0.4-1.8-0.1-1.7-0.8-3.5-0.5-0.8 1-0.3 3.6-0.7 0.6 0 0.5 0.2 0.7 0.6-0.1 0.2-0.6 1 0.9 0.8 0.2 0 1.1 1 0.1 0.3-0.3 0.9 0 0.4 0.5 0.7 0.4 0.5 0.6 0.3 0.7 0.1 1.1 0.5 4.5 4.1 3.2 3.6 4.6 1.8 9.3 1.5 4.1-0.4 8.3-2.9 4.1 0.1 2.1 1 1.8 1.3 7.1 7 1.9 1.3 3.8 1.7 1 1.1 0.8 1.3 0.4 1.5 0.1 1.5-0.1 3.4 0.4 1.3 1.3 3.1 0.8 0.9 1.1-0.6 6.7-9.2 2.3-2.1 1.8-0.1 4.6 4.2 0.7 0.4 0.7 0 0.7-0.3 0.8 0 2 0.9 0.6 0.1 1.2-0.3 5-2.2 1-0.6 0.9-0.9 0.9-1.2 1.8-1.9 4.4-2.1z"
		  id="AFG1742" name="Hirat" data-id="AFG1742" data-name="Hirat">
	</path>
	<path d="M527.6 262.5l-0.2 2.2 0.3 1.5 1.1 2.9 0.1 0.7-0.1 0.6-0.6 1.2-0.2 0.9 0 0.8 0.6 1.7-0.1 0.6-0.2 0.5-0.3 0.4-0.3 0.6-0.2 0.9-0.4 2.5-0.2 0.7-0.5 1-0.2 0.8-0.5 1-1.7 1-0.4 0.3-0.5 0.5-0.4 0.5-0.4 0.8-0.1 0.6-0.3 1.8 0 0.5 0.1 0.5 0.3 0.8 0 0.5 0 1.6 0.3 2.8 0.2 0.7 0.2 0.4 0.4 0.2 2.1 0.7 0.7 0.6 0.3 0.2 0.4 0 0.5-0.1 1.6-0.3 0.5-0.1 0.5 0.2 0.4 0.2 2.4 2.1 0.4 0.1 0.6 0 0.5-0.2 3.6 3.9 0.9 2.5 0.1 2.1 0.2 1.9-0.1 2.6-0.4 2.5 0.4 0.7 1.3 0.8 0.8 0.7-8 4.1-2 1.5-0.9 1.7-1.5 1.5-0.7 0.7-0.6 0.2-0.8-0.5-0.5-0.1-0.6 0-0.8 0.2-0.5 0.3-0.5 0.5-0.4 0.7-1.4 1.6-0.3 0.4-0.3 1.1-1.6 3.3-4.2-0.5-12.8-3.6-1.6-0.3-2.6 0.4-2-0.1-1.1-0.2-1.4-0.4-2.1-0.2-0.5-0.1-0.7-0.8-0.6-0.5-1.3-0.5-0.8-0.3-0.6-0.1-0.9 0.2-1.9 1.2-0.5 0.2-6 1.2-3.9 0.6-0.6 0.2-0.7 0.3-0.2 0.3-0.4 0.9 0.7 2.4 0.8 1 2 1.8 0.4 0.6 0.2 0.6-0.1 1.5-0.1 0.5-0.3 0.3-1.2 1-0.7 0.3-1.8 0.2-0.5 0.1-0.4 0.3-0.4 0.4-0.3 0.4-0.4 0.7-0.3 0.8-0.5 1.4 0 1 0.2 0.7 0.4 0.5 0.4 0.4 1 0.4 4.8 0.4 3.1-0.1 0.7 0 0.6 0.2 0.7 0.6 0.4 0.5 0.1 0.6 0.1 0.6-0.1 0.9-0.4 0.6-0.5 0.3-0.6 0.2-1.5 0.9-0.2 0.3 0 0.4 0.2 0.3 0.4 0.1 2.3 0.3 0.8 0.2 6.8 3.1 0.9 0.7 0.2 0.5-0.7 0.7-1 1.4-0.5 1.2-0.5 0.5-5.5 2.2-0.5 0.4-0.5 0.8-0.4 1.7 0 0.9 0.3 0.7 1.2 1.1-2.8 2.2-0.9 1.1-0.6 1.3-0.3 0.6-1.2 3.4-1 1.2-0.6 0.5-0.7 0.4-5.7 0.9-2.3 0.7-0.4 0.3-0.5 0.6-0.6 1.1-0.2 0.3-0.9 0.7-0.2 0-1-1.3-0.4-0.3-0.4 0-0.7 0-1.1 0.3-0.7 0.3-3.9 2.4-0.4 0.1-0.6 0-2.6-1.1-0.3-0.3-0.7-1-0.4-0.3-0.5-0.3-12.3-2.5-1.2 0-2 0.4-1 0.4-0.6 0.4-0.6 0.5-0.9 0.2-1.8 0.8-1.5-0.2-4-2.2-3.9-3.8-0.7-0.9-0.3-0.4-0.2-0.8 0-1.2 0.2-2.5 0.5-1.4 1.7-3.7 0.1-0.8 0-0.6-1-2.6-0.3-3.1 0.1-0.5 0.3-0.4 0.4-0.5 0.9-0.8 0.4-0.2 1-0.4 0.2-0.2 0.2-0.4-0.1-0.5-0.1-0.4-0.4-0.5-0.5-0.4-0.9-0.4-2.2-0.9-2.5-0.1-0.5-0.9-0.7-0.9 0.1-0.7 1.3-1.7 4.2-3 0.7-0.3 3.8-1.1 0.6 0 2.2 0.7 0.6-0.3 0.9-0.6 4.2-3.7 0.1-0.9-1.2-1.1-0.3-0.4-0.3-0.9-0.1-0.5 0.2-0.9 0.2-1.1 0.2-0.4 2.1-1.9 1.1-1.4 0.4-0.6 0.2-0.6 0.1-0.6-0.1-0.6-0.2-0.7-0.4-0.6-0.7-0.8-0.8-0.8-2.4-1.5-0.5-0.2-0.3 0-1.3 0.3-0.5-0.1-1.2-0.6-0.3 0-0.5 0.3-0.4-0.2 0-0.6 0.2-0.5 0.5-0.6 0-0.2-0.2-0.3-0.5-0.4-1.1-0.6-0.7-0.5-0.6-0.6-0.7-1.2-0.3-0.9-0.7-2.5-0.3-0.5-2.1-1.9-1.1-1.4-0.5-0.6-5.7-4.3-1.9-0.9-3.2-0.7-0.6-0.2-0.6-0.6-0.5-0.6-0.3-0.4-0.1-0.5-0.1-1.3 0.1-2.2 0.3-1.1 0.2-0.5 0.3-1 0.1-2.2 0.7-3.4-0.1-0.5-0.1-0.5-0.2-0.4-0.9-0.9-0.1-0.6 0.3-2.3 0.1-0.4 0.5-1.1 0.6-1.1 0.5-0.5 0.8-0.6 1.1-0.1 10 1.2 1.4-0.1 2.4-0.9 3.5-1.4 0.5-0.1 1.4-0.1 0.4-0.4 0.5-0.6 4.5-8.3 3.4-4.3 0.8-0.7 1.9-0.4 3.7 1.6 1.9 0.3 7 0.1 1.9-0.5 6.3-2.8 5.4-1.4 6.4-2.5 0.8-0.1 0.6 0.1 0.4 0.1 0.9 0.2 1.4 0.1 2.7 0.8 7.5-3.1 4.3-0.9 1.7 0 9.2 2.1 0.9 0.1 0.7 0 3.8-1.3 0.7 0 0.5 0.1 0.3 0.3 0.6 0.9 0.4 0.3 0.5 0.4 0.6 0 6.9-1 2.8 0.2 6-1.4z"
		  id="AFG1743" name="Bamyan" data-id="AFG1743" data-name="Bamyan">
	</path>
	<path d="M523.2 136.7l0 0.1 0.7 3.6 0.1 5 0.1 0.7 3.8 9.2 1.8 3.2 0.5 0.5 1.1 0.9 1.4 1.3 0.9 1.3 0.5 0.9 0.5 2.1-5.6 2.3-2 0.3-13.8-1.9-3.3-0.4-1.6-0.6-0.9-0.5-0.4-0.4-2.2-1.3-3.9-2-1-0.3-1.1 0.1-1.1 0.3-2 0.8-0.9 0.2-7.9-0.7-1 0.3-1 2.4-0.7 0.7-3.2 1-1.4 0.7-0.6 0.5-0.7 0.7-0.3 0.5 0.2 0.6 1.2 1.7 1.8 3.9 0.1 0.6 0 1-1.6 4.5-1 4.2-0.1 3.8-0.5 3.2-0.3 0.5-0.5 0.7-1.1 0.9-0.6 0.6-0.3 0.6-0.1 0.4 0.4 1.2 0 0.6-0.2 1.1-0.3 0.7-0.5 0.5-1.4 1.4-1.2 1.4-0.7 0.6-0.5 0.5-1 0.3-3.7 0.5-1.3 0.4-6.5 5.1-1.4 1.3 0 0.4 0.2 0.5 0.3 0.3 0.6 0.5 0.1 0.6 0.1 0.9 0.3 0.7 0.4 0.7 1.9 2.6 0.2 0.6 0 0.8-0.2 1.6-0.3 1-0.3 0.7-0.5 0.4-1.1 0.6-0.5 0.4-0.3 0.6-0.2 0.9-0.4 0.6-0.3 0.4-0.9 0.7-3.6 4.3-1.4 1.1-2.6 1.2-0.6 0.6-0.6 0.7-1.1 2.1-0.3 0.8-0.2 1.4 0 0.9-3.4 2.1-1.1 0.5-1 0.3-0.6 0.3-0.5 0.3-0.6 0.2-7.6 0.7-0.4-0.1-0.4-0.3-0.2-0.3-0.4-0.8-0.2-0.4-0.3-0.3-9.9 1.9-1-0.1-0.2-0.4 1.5-4.4 0.7-1.3 0.4-0.6 0.7-0.8 0.6-0.6 0.3-0.2 1-0.4 0.4-0.3 0.2-0.3 0.5-1.6 1.9-3.9 0.5-1.5 0.1-1.1-0.1-1.5-1.3-8.5-0.2-0.9-1-1.6-0.1-1.1 0.1-1.1 0.2-0.9 0.5-0.7 0.1-0.7-0.2-0.7 0-0.5-0.1-3.3 0.4-1.2 0-0.8-0.2-1.2-0.2-0.3-0.4-0.3-0.7-0.2-1.6 0.1-1.1-0.2-0.5-0.3-2.8-2.3-2.2-1.1-0.2-0.4-0.1-0.2 0.3-0.8 0.9-1.2 2.3-3.5 0.3-0.7 0.8-1.2 0.2-0.4 0.3-1.1 1.7-3.6 0.2-0.6 0.4-1.9 0.2-0.8 1.3-2.3 0.7-1.1 0.4-0.4 1.6-1.5 0.5-0.6 0.8-1.5 0.9-1 0.2-0.3 0.9-1.7 0.3-0.9 0-0.7-0.2-0.5-0.3-0.3-0.6-0.6-2-0.7-7.5-1.5-1.7-1.4-1.6-1.6-0.6-1.2-0.4-1.4-0.2-4.5-0.9-0.9-0.6-0.4-1.3-1.1-0.3-0.6 0-0.6 0.6-0.9 0.6-0.5 2.4-1 0.3-0.1 0.7 0.1 1.4 0.6 0.8-0.1 0.5-0.1 1.1-0.8 0.3-0.1 1.1-0.2 0.4-0.1 0.2-0.5 0.1-0.8-0.6-2.5-0.4-0.9-0.7-1.1-0.2-0.9-0.1-0.6 0.2-0.7 0-0.3-0.2-0.6-0.5-0.6-1.7-2-2.9-4.9-0.3-1.5 0.3-2.1 0.6-2.5 1.4-4.3 0.3-0.5 0.2-1.2-0.6-1.5-3.2-3.5-0.9-1.4-0.2-0.2-0.2-1.3-0.1-0.7-0.1-0.8-0.5-0.9-0.3-0.8-0.4-0.9-0.5-0.6-0.7-0.5-2.4-1.4-0.6-0.2-1.1-0.1-4.3-1.2-0.7-0.3-0.6-0.6-0.2-0.3-0.1-1 0.2-3.4 0.5 0.3 1.2 1.2 1.3 1 1.9 0.2 4.7-1.6 1.7-0.2 0.7 0.3 1 1.6 0.9 0.4 0.7-0.1 0.6-0.5 1.1-1.2 1.2-1 1.1-0.8 1.4-0.4 1.8-0.1 1.6 0.2 4.6 1.9 0.9 0.2 1.8 0 0.8-0.2 1.3-1.2 0.8-0.3 9-0.4 6.4-1.5 3.3 0.1 1.3 0.6 2.8 2 1.4 0.4 0.9 0.8 1.1 3.8 0.7 1.3 1.4 0.9 3 1.2 1.4 1.3 0.7 1.5 0.5 1.6 0.8 1.3 1.6 0.6 1.5-0.3 2.7-1.7 1.7-0.4 1.7-0.1 1.5-0.5 1.4-0.7 1.4-1 2.3-2.3 1.2-1 1.5-0.4 1.6 0.8 1.3 3.6 1.1 1 0.8-0.3 0.5-0.8 0.4-0.9 0.5-0.4 0.7-0.1 1.3-0.4 0.8-0.1 0.8 0.3 1.5 1.1 0.8 0.4 0.8 0.1 2.5-0.1 1.5 0.4 1.2 0.7 0.8 1.2 0.3 1.6-0.6 5.6 0.1 1.3 0.8 1.1 1.6 1.2 1.7 0.9 3.2 0.7 0.9 1.1 0.8 1.5 1.1 1.8 0.7 0.7 1.6 0.9 0.7 0.5 2.3 3 0.4 0.7 0.3 0.8 0.4 0.6 0.6 0.5 0.3 0z"
		  id="AFG1744" name="Balkh" data-id="AFG1744" data-name="Balkh">
	</path>
	<path d="M361.1 216.5l1.8-1.5 1.1-0.3 0.9 0.1 0.4 0.3 0.4 0.3 0.3 0.4 0.2 0.3-0.1 0.5-0.5 0.7 0 0.3 0 0.9-0.4 0.6-0.3 0.8 0.3 0.7 0.4 0.4 0.6 0.3 0.4 0.4 0.3 1.3 0.7 1.6 0.3 0.5 0.6 0.2 0.1 0.6 0.7 3.2 0 0.7 0.1 0.3 0.4 0 0.4 0.2 0 0.4-0.6 0.7-0.2 0.5-0.2 0.5-0.2 1-0.3 0.7-0.1 0.1-1.2 0.4-2.4 0.4-1.8-0.4-1.2-0.2-0.7 0.1-0.5 0.2-0.2 0.3 0.1 0.3 0.3 0.6 0.1 0.5-0.1 0.5-0.3 1.3-0.2 0.6-0.4 0.7-0.4 0.4-1.5 2.6-1.4 1.7-0.8 0.4-0.7 0.1-2.2-0.6-2.1-0.2-0.7 0-0.5 0.2-2.2 1.8-0.4 0.4-0.3 0.5 0 1.1-0.1 0.4-0.3 0.8-0.2 0.7 0 0.8 0.9 2.9 0.1 0.5 0 0.4-0.1 0.3-2.1 4.2-0.9 2.7-0.4 0.5-0.3 0.4-1 0.5-0.4 0.7-0.2 2.1-0.1 2.4 0.3 1.6-0.1 0.8-0.2 1.6 0 0.9 0.3 1.3 0.8 2.7 0.2 0.6 0.3 0.6 1.5 1.9-2.2 1.6-2.2 2.3-0.4 0.3-3.4 1.3-1 0.1-0.5-0.3-0.6-0.4-0.6-0.1-1.7 0.8-0.4-0.1-0.4-0.4 0.1-0.6 0.3-0.4 0.1-0.5-0.1-0.4-0.7-1.2-0.6-0.7-0.4-0.1-0.4 0-0.5 0.3-0.5 0.6-0.2 0.1-0.8 0.3-0.3-0.1-1.2-0.6-1-0.7-0.4-0.3-0.8-0.4-0.7-0.5-0.5-0.2-0.7 0-1.2 0.4-1 0.6-0.5 0.4-1.9 1.1-2.9 0.7-0.3-0.5 0-0.9-0.1-0.2-0.4-0.1-0.6 0.2-5.2 2-0.5 0-0.5 0-0.8-0.4-1.5-1.6-0.5-0.2-0.7 0-3.4 0.4-5.2 1.8-0.8 0.4-1.6 0.3-2.3 0.1-2.1 0.4-1.3 0-7-1-6.7-2.2-0.3-0.2-0.2-0.4-0.2-1.1 0-1.5 0.4-3.1 0-1.3 0-0.8 0.7-2.6 0.2-1.9 0.1-1.1-0.1-0.8-0.6-0.6-3 0.5-2.5 0.8-0.8 0.1-1.3 0.4-0.5-0.1-0.8-0.3-2.5-1.5 0-0.6 0.5-0.7 0.2-0.5 0-0.9-0.2-0.5-0.3-0.5-0.5-0.5-4.2-0.8-11-0.8-0.8-0.4-0.7-0.5-0.2-0.3-0.1-0.3 0-0.5 0.2-0.9 0.1-0.7 0-0.8-0.3-6-0.3-1.4-0.6-1.7-0.9-1.7-0.8-1-1.2-1.2-0.7-0.5-0.7-0.4-0.9-0.4-0.8-0.1-0.5-0.2-0.4-0.2-0.1-0.7 0.2-0.9 0.7-2.1 1-1.7 0.1-0.4-0.1-1.8 0.2-1.5 0.6-1.8 1.2-5.5 0.3-3.4-0.1-3.7-0.8-2.6-2-1.2 1.1-0.2 1.9 0.4 6.6 2.6 0.1-1.1-0.7-4 0-1.6 0.6-1.3 0.9-1.1 4.5-3.5 2.5-1.3 2.6-0.4 2.8 0.4 1.2 0.5 0.8 0.2 0.7-0.6 1.1-3.4 0.8-1.1 1.1-0.7 1.3-0.5 5.1-1.2 2.3-0.9 2.3-1.8 1.4-1.7 5.4-8.5 1.3-3 0.8-3.1 0.3-3.5-0.2-1.8-1-3.3-0.3-1.7 0-1.8 0.2-1.7 0.9-3.5 1.1-2.7 7.5-13.7 2.5-4.7 0.9-2.9-0.2-3.4-1.4-6.6 0.4-3.4 1.2-2.2 2.1-1.5 12.5-6.8 5.1-1.8 29.5-0.7-0.4 0.6-8 14.3-2 6.4-0.4 2.7-0.1 1.3 0.1 1.2 0.5 2.6 3.6 4.6 0.8 3.7 0.2 0.4 0.5 0.8 0.5 0.5 1 1.3 0.4 0.8 0.3 0.8 0 0.8-2 8.5-0.2 0.5-0.4 0.7-0.4 0.3-0.5 0.5-0.2 0.4 0.1 0.3 0.2 0.4 0.7 0.7 1.7 1 0.5 0.4 0.3 0.4 0.4 0.6 0.1 0.7-0.7 2.7-0.5 2.7 0.1 0.8 0.1 0.7 1.1 1.7 0.9 2.7 0.4 2 0.3 0.9 0.8 1.8-1.4 0.6-0.4 0.6 0 0.4-0.4 0.2-0.8-0.1-11.4 0.4-1.3 0.3-0.4 0.4-0.5 0.6-0.3 0.6-2.1 8.1 0 4 0.1 0.7 0.4 1.5 0 0.7 0 1-0.2 0.5-0.2 0.4-0.6 0.9-0.4 0.9-0.3 0.3-0.8 0.7-0.8 0.8 0.5 2.9 0.4 1.1-0.4 1-0.9 1.3-0.4 0.4-0.7 0.5-1.3 0.7-1.1 0.8-0.5 0.4-0.3 0.4-0.1 0.9 0.1 0.4 0.2 0.6 0.3 0.5 2.4 2.1 1.2 0.4 0.8 0.1 0.5 0 0.4-0.1 0.7-0.5 0.6-0.3 2.8-0.3 0.8-0.2 0.5 0 0.2 0.2 0.1 0.9 0.2 0.3 0.5 0.1 0.7-0.4 0.7-0.2 0.6 0 0.9 0.7 3.2 1.2 3.3 0.4 4.8-0.6 0.6-0.4 0.5-0.5 0.4-0.7 0.3-0.5 0.2-0.4 0.2-0.6 0.2-0.2 0.5-0.3 0.6 0 0.4 0.4 0.3 0.6 0.3 0.4 0.6 0.5 0.6 0.6 0.4 0.2 0.3 0 1.2-0.9 1.9-0.6 0.6-0.4 1.2-0.8 1.2-0.5 0.5-0.4 0.4-0.5 0.3-0.7 0.2-0.9 0-0.5z"
		  id="AFG1745" name="Faryab" data-id="AFG1745" data-name="Faryab">
	</path>
	<path d="M400.3 98.9l-0.2 3.4 0.1 1 0.2 0.3 0.6 0.6 0.7 0.3 4.3 1.2 1.1 0.1 0.6 0.2 2.4 1.4 0.7 0.5 0.5 0.6 0.4 0.9 0.3 0.8 0.5 0.9 0.1 0.8 0.1 0.7 0.2 1.3 0.2 0.2 0.9 1.4 3.2 3.5 0.6 1.5-0.2 1.2-0.3 0.5-1.4 4.3-0.6 2.5-0.3 2.1 0.3 1.5 2.9 4.9 1.7 2 0.5 0.6 0.2 0.6 0 0.3-0.2 0.7 0.1 0.6 0.2 0.9 0.7 1.1 0.4 0.9 0.6 2.5-0.1 0.8-0.2 0.5-0.4 0.1-1.1 0.2-0.3 0.1-1.1 0.8-0.5 0.1-0.8 0.1-1.4-0.6-0.7-0.1-0.3 0.1-2.4 1-0.6 0.5-0.6 0.9 0 0.6 0.3 0.6 1.3 1.1 0.6 0.4 0.9 0.9 0.2 4.5 0.4 1.4 0.6 1.2 1.6 1.6 1.7 1.4-2.7 1.4-0.4 0.1-0.9 0.1-0.9 0-2.1 0.1-5.2 1.5-8.1 1.3-6.6 0.4-2.8-0.8-1.9 0.2-1.6 0.7-3 1.9-0.6 0.6-0.7 1.1-0.7 0.8-0.6 0.3-6.4 1.3-1.9 0.9-4.2 3.2-3.5 3.6-1.7 1.2-1.6 0.5-7.5 1-3.7 0-1.1 0.7-0.3 0.5-0.4 0.8 0 0.8 0 0.8 0.5 2.7 0 0.8-1.2 13.8 1.6 1.5 0.8 1.3 0.3 0.8 0.3 0.9 0.1 0.7 0 0.6-0.7 2.1-0.1 1.6 0.2 0.7 0.4 0.3 8.9-1.3 1.1-0.5 0.5-0.4 0 0.5-0.2 0.9-0.3 0.7-0.4 0.5-0.5 0.4-1.2 0.5-1.2 0.8-0.6 0.4-1.9 0.6-1.2 0.9-0.3 0-0.4-0.2-0.6-0.6-0.6-0.5-0.3-0.4-0.3-0.6-0.4-0.4-0.6 0-0.5 0.3-0.2 0.2-0.2 0.6-0.2 0.4-0.3 0.5-0.4 0.7-0.5 0.5-0.6 0.4-4.8 0.6-3.3-0.4-3.2-1.2-0.9-0.7-0.6 0-0.7 0.2-0.7 0.4-0.5-0.1-0.2-0.3-0.1-0.9-0.2-0.2-0.5 0-0.8 0.2-2.8 0.3-0.6 0.3-0.7 0.5-0.4 0.1-0.5 0-0.8-0.1-1.2-0.4-2.4-2.1-0.3-0.5-0.2-0.6-0.1-0.4 0.1-0.9 0.3-0.4 0.5-0.4 1.1-0.8 1.3-0.7 0.7-0.5 0.4-0.4 0.9-1.3 0.4-1-0.4-1.1-0.5-2.9 0.8-0.8 0.8-0.7 0.3-0.3 0.4-0.9 0.6-0.9 0.2-0.4 0.2-0.5 0-1 0-0.7-0.4-1.5-0.1-0.7 0-4 2.1-8.1 0.3-0.6 0.5-0.6 0.4-0.4 1.3-0.3 11.4-0.4 0.8 0.1 0.4-0.2 0-0.4 0.4-0.6 1.4-0.6-0.8-1.8-0.3-0.9-0.4-2-0.9-2.7-1.1-1.7-0.1-0.7-0.1-0.8 0.5-2.7 0.7-2.7-0.1-0.7-0.4-0.6-0.3-0.4-0.5-0.4-1.7-1-0.7-0.7-0.2-0.4-0.1-0.3 0.2-0.4 0.5-0.5 0.4-0.3 0.4-0.7 0.2-0.5 2-8.5 0-0.8-0.3-0.8-0.4-0.8-1-1.3-0.5-0.5-0.5-0.8-0.2-0.4-0.8-3.7-3.6-4.6-0.5-2.6-0.1-1.2 0.1-1.3 0.4-2.7 2-6.4 8-14.3 0.4-0.6 0.9 0 2.5-1.3 3.2-4.5 1.9-2 0.9-1.2 0.4-1.8-0.1-1.9-0.5-3.7 0.3-2 0.7-1.9 1.6-3.1 0.7-0.9 0.9-0.5 1.1-0.3 2.9 0 0.9-0.7 0.4-2.3 0.2-1.3 1.1 0.5 1.4 0.3 0.5 0.4 1.2 2.6 0.5 0.8 0.5 0.6 1.3 1 15.6 5.8 1.2 1.1 2 2.6 1.2 1.2 1.3 0.7 0.8 0.1 2.3-0.1 0.8 0.2 1 0.8 0.6 0.2 0.6 0.3z"
		  id="AFG1746" name="Jawzjan" data-id="AFG1746" data-name="Jawzjan">
	</path>
	<path d="M408.1 308.9l3.2 0.7 1.9 0.9 5.7 4.3 0.5 0.6 1.1 1.4 2.1 1.9 0.3 0.5 0.7 2.5 0.3 0.9 0.7 1.2 0.6 0.6 0.7 0.5 1.1 0.6 0.5 0.4 0.2 0.3 0 0.2-0.5 0.6-0.2 0.5 0 0.6 0.4 0.2 0.5-0.3 0.3 0 1.2 0.6 0.5 0.1 1.3-0.3 0.3 0 0.5 0.2 2.4 1.5 0.8 0.8 0.7 0.8 0.4 0.6 0.2 0.7 0.1 0.6-0.1 0.6-0.2 0.6-0.4 0.6-1.1 1.4-2.1 1.9-0.2 0.4-0.2 1.1-0.2 0.9 0.1 0.5 0.3 0.9 0.3 0.4 1.2 1.1-0.1 0.9-4.2 3.7-0.9 0.6-0.6 0.3-2.2-0.7-0.6 0-3.8 1.1-0.7 0.3-4.2 3-1.6-0.6-8.7 1.3-0.6 0.3-0.7 0-0.4-0.2-0.9-0.8-0.9-0.5-0.7-0.3-3.7-0.7-0.9 0.1-0.5 0.2-0.5 1-0.2 0.4-1.4 1.6-0.6 0.4-0.7 0.4-0.7 0-1.8-0.2-2.6 0.5-0.5-0.1-1.3-0.2-2.6-0.1-0.5 0.1-0.2 0.1-0.9 1.2-0.6 0.5-0.8 0.5-1.2 0.6-0.8 0.2-0.8 0.1-4.4-0.9-9.2-0.6-5.2-1-2.6-0.2-6.5 0.3-0.7 0.3-0.7 2.7-0.1 1.3 0.1 0.7-0.1 0.7-1 2.5-0.3 1.2-0.4 2 0 0.7 0 0.6 0.5 0.5 0.2 0.5 0 0.4-0.9 1.6-0.1 0.6 0 0.7 0 0.9-0.4 1.6-0.4 1.3-0.2 2.1 0.1 0.4 0.5 0.4 0.3 0.5 0.2 0.4 0.4 1.1 0.3 0.4 0.5 0.2 0.9 0.1 0.5 0.6 0.4 2.5-0.4 2-0.5 0.9-0.9 0.4-1 1.7-0.5 1.5-0.3 0.7-0.3 0.4-0.2 0.1-1.3 0.1-0.7 0.3-0.4 0.3-1.6 1-0.4 0.3-0.2 0.4 0 0.5 0 0.6 0.3 0.8 0.1 1.2 0.2 0.4 0.3 0.2 1.8 1.2 0.4 0.5 0.2 0.9 0.4 0.5 0.4 0.2 0.8 0.3 0.4 0.3 0.3 0.5 0.4 0.5 0.5 0.8 0.4 2.5 0.6 4.6 0.6 1.3 1.5 0.7 1.1 1 0.9 1 0.4 0.8 0.3 0.9-0.1 0.4-0.1 0.3-1.8 1.4-1 0.6-1 0.4-0.4 0.3-2.3 2-2.1 2.5-2.2 1.9-0.5 0.6-0.7 0.3-0.9 0.1-0.6 0.4-1 1.5-0.2 0.4 0 0.2 0.5 0.5 0.1 0.4-0.1 1.2-2.7 1.5-1.3 0.4-2 0.4-1.5 0.6-1.1 0.7-1.8 1.5-2.6-0.2-0.8 0-0.8 0.2-3 1.9-1.2 1.1-0.8 0.9-0.3 0.3-6 2.8-0.4 0.4-1.9 1.4-0.7 0.7-0.5 0.2-0.6 0-1.3-0.2-1-0.6-0.4-0.1-0.5 0.2-1 0.8-2.2 2.5-0.5 0.4-0.9 0.5-0.5 0.1-0.4 0-1-0.2-0.5-0.6-0.2-2-0.3-0.8-0.9 0-3.1 1.5-2.1-1.6-0.5-1-0.1-0.5-0.2-0.8-0.2-0.3-0.5-0.2-0.7-0.2-2.4 0-1 0.1-0.4 0-0.5-0.3-0.9-0.6-0.6-0.7-0.3-0.3-0.3-1-0.5-0.4-0.8-0.1-1.2 0.3-0.8 0.8-1.6 4.2-1 1.8-0.7 0.8-0.7 0.7-0.9 0.7-1.3 0.8-1.2 0.6-1.9 0.4-0.4 0.2-0.4 0.4 0 0.3 0.1 0.3 1.5 1.5 0.3 0.7-0.1 0.5-0.5 0.3-0.5 0.1-1.8 0.1-0.6 0.1-0.6 0.3-0.7 0.7-0.6 0-3-1.7-1.6-1.5-0.4-0.2-0.5 0-0.9 0.4-0.3 0-0.4-0.4-0.6-0.8-2-4.1-0.6-0.7-0.9-0.8-0.3-0.3-0.2-0.4-0.2-0.8-0.3-0.4-0.4-0.2-0.8-0.1-0.6-0.1-0.9-0.5-0.3-0.3-0.2-0.4 0-0.7 0.1-1.3-0.3-1.4 0.1-1.4-0.2-0.6-2.2-5-3.9-6.5-1.2-1.1-2.5-1.4-1.7 0.2-3.1 1.5-1.3 1-1 0.9-1.4 1.7-1.1 1.7-0.9 0.7-1.1 0.5-4.6 0.5-3 0.6-2.2 0.9-1.4 0.9-2.6 2.2-2.8 1.1-3.6 0.7-14.1 0.6-5.2 1.6-1 0.2-2.3-0.1-2.3-1-0.4-1.5-0.3-3.1 0-1.6-0.3-1.4-0.5-1.1-1.4-2-0.5-1-0.2-0.9 0.3-0.9 0.1-0.6-0.2-0.7-0.3-0.4-0.3-0.4-0.6-0.6-0.2-0.5 0.1-0.5 0.2-0.5 0.9-1 2.8-2.1 2.8-1.3 1.2-0.2 1-0.4 1.1-0.8 0.4-0.4 0.2-0.4 1.1-0.5 7.8-2.2 6.7-0.6 1.9-0.7 1.6-1.1 1-2.1 0-0.7-0.1-0.8-0.9-2.8-0.1-0.4 0.1-0.5 0.3-0.5 0.2-0.4 0.6-0.4 0.3-0.1 1.2-0.1 0.6-0.2 0.7-0.3 0.8-0.4 0.6-0.4 0.4-0.7-0.1-0.7-0.7-1.2-1.9-2-0.4-0.6-1-3.6-0.5-1.1-0.9-1.2-1.3-1.6-2.2-1.9-0.5-0.5-0.3-0.6-0.3-0.7-0.2-1.3-0.4-0.9-2.8-4.8-0.1-0.8 0.3-0.9 4-6.1 1.9-3.6 1.2-4.9 9.5-0.4 0.6 0 1.2-0.1 5.9 0.5 1.1 0.3 2 0.8 1.1 0.7 1 0.8 1.2 1.2 1.1 0.3 8.8 0.2 0.9-0.5 0.5-1 0.5-0.8 0.3 0 3.1 1.6 0.6 0.2 0.9 0 0.8-0.1 1.7 0 0.5-0.1 0.5-0.3 0.7-0.5 1-1.2 1-0.6 0.7-0.2 0.9-0.1 0.5-0.3 0.4-0.6 0.5-1.3 0.1-1-0.1-0.8-0.2-0.6-0.3-0.5-0.8-1.1-0.1-0.5 0.2-0.5 0.3-1 0.1-0.6-0.2-1.3-0.1-0.7 0-0.6 0.2-1.1 0.1-0.4-0.4-2.5 0-0.7 0.2-1.1 0.3-0.4 0.4-0.3 1-0.4 0.7-0.1 0.8 0.1 1 0.3 1.5 0.1 0.9-0.1 0.9-0.2 0.8-0.6 0.4-0.4 0.5-0.4 0.8-0.2 1.5-0.2 1.2-0.6 1.4-1 0.5-0.2 0.5 0.1 0.4 0.1 0.6 1.3 0.4 0.6 0.2 0.3 0.4 0.1 1.2 0.1 0.9 0.2 0.5-0.1 0.3-0.4 0-0.7-0.1-1.1-1.1-2.5-0.4-1.3 0.1-2.3 1.1-7.2 0.2-0.8 0.2-0.4 0.4-0.5 0.6-0.7 0.8-0.5 1.5-0.4 8.5 0.3 1.1 0.6 0.5 0.2 1 0.1 0.6 0.2 0.7 0 0.8-0.3 4.6-2.3 12.4-3.4 2.1-1 0.5-0.6 0.5-0.4 0.3-0.4 0.6-1.5 0.4-1.1 0.4-2.1 0.1-0.7-0.2-1.5 0-0.8 0.1-0.9 0.7-2.9 0.2-0.8-0.2-0.9-0.5-1-1.2-1.7-0.5-1.1-0.4-0.9-0.1-0.7-0.5-1-0.9-1.2-4.3-3-0.5-0.6-1.7-2.5-1-1.2-0.7-0.7-0.7-0.5-0.8-0.2-1.8 0.1-0.4 0-0.5-0.2-2.9-1.9-1-1.1-1.4-2.9 5.2-1.8 3.4-0.4 0.7 0 0.5 0.2 1.5 1.6 0.8 0.4 0.5 0 0.5 0 5.2-2 0.6-0.2 0.4 0.1 0.1 0.2 0 0.9 0.3 0.5 2.9-0.7 1.9-1.1 0.5-0.4 1-0.6 1.2-0.4 0.7 0 0.5 0.2 0.7 0.5 0.8 0.4 0.4 0.3 1 0.7 1.2 0.6 0.3 0.1 0.8-0.3 0.2-0.1 0.5-0.6 0.5-0.3 0.4 0 0.4 0.1 0.6 0.7 0.7 1.2 0.1 0.4-0.1 0.5-0.3 0.4-0.1 0.6 0.4 0.4 0.4 0.1 1.7-0.8 0.6 0.1 0.6 0.4 0.5 0.3 1-0.1 3.4-1.3 0.4-0.3 2.2-2.3 2.2-1.6 0.8 1.2 0.6 0.3 4.1-0.1 2.2-0.4 0.6-0.2 0.5-0.2 0.7-0.8 0.6-0.3 2.4-0.8 0.8-0.1 0 0.3-0.3 0.8 0.1 0.7 0.2 0.4 0.5 0.4 1 0.5 0.4 0.4 0.5 0.7 0.3 1 0.3 0.4 0.4 0.2 0.7 0 0.5 0.2 1 0.6 0.6 0.1 1.1-0.3 0.4 0.1 0.2 0.6 0 0.3-0.2 0.9 0.1 0.4 0.2 0.9 0.1 0.5 1 1.8 0.3 0.6 0.8 0.8 0.5 0.4 0.5 0.3 7.2 2.5 2.1 0.2 3.5 0.8 0.4-0.1 0.5-0.3 0.6 0 0.9 0 0.5 0.2 0.4 0.3 0.5 0.7 0.2 0.5 0.1 0.7 0 0.4 0 1.8-0.1 0.4-0.2 0.5-0.2 0.2-0.8 0.3-0.2 0.2 0 0.4 0.2 0.4 1.3 1.1 0.2 0.3-0.1 0.3-0.6 0.7-0.1 0.5 0 0.5 1.2 0.4 0.5 0.5 0.5 0.8 0.5 1.2 2 6.9 0.1 0.6-0.1 0.3-0.5 1.1-0.1 0.6 0 0.7 0.2 0.4 0.2 0.1 0.5-0.2 0.7-0.7 1.8-2.3 0.4-0.2 1-0.3 0.2-0.1 0.3-0.4 0-0.5-0.1-0.6 0.1-0.5 0.6-0.2 1.2-0.1 0.4-0.2 0.2-0.5 0.1-0.8 0.3-0.3 1-0.2 0.5-0.3 0.2-0.5-0.3-0.6-0.2-0.6 0.2-0.7 0.3-0.3 0.5-0.3 0.3 0 0.4 0.2 0.6 0.3 1.2 0.6 0.9 0.3 1.2 0.1 0.6 0.1 0.8-0.2 0.7-0.4 1.3-0.6z"
		  id="AFG1747" name="Ghor" data-id="AFG1747" data-name="Ghor">
	</path>
	<path d="M445.6 240.6l6.6 3.1 1.6 1.4 0.2 1 0 0.6-0.1 0.4-0.4 0.5-0.4 0.3-1.3 0.6-0.4 0.3-0.2 0.3-0.1 0.6 0.2 0.3 1.5 0.8 0.4 0.5-0.2 1.1 0.1 1.1-0.1 0.6-1.1 0.4-0.4 0.2 0 0.5 0.4 2.2 0 1.3-0.1 1-0.2 0.7-0.2 0.7-0.3 0.6-0.5 0.5-3.2 3.3-1.2 1-1.3 0.8-2.2 1-1.1 0.7-0.8 0.8-1.9 0.4-0.8 0.7-3.4 4.3-4.5 8.3-0.5 0.6-0.4 0.4-1.4 0.1-0.5 0.1-3.5 1.4-2.4 0.9-1.4 0.1-10-1.2-1.1 0.1-0.8 0.6-0.5 0.5-0.6 1.1-0.5 1.1-0.1 0.4-0.3 2.3 0.1 0.6 0.9 0.9 0.2 0.4 0.1 0.5 0.1 0.5-0.7 3.4-0.1 2.2-0.3 1-0.2 0.5-0.3 1.1-0.1 2.2 0.1 1.3 0.1 0.5 0.3 0.4 0.5 0.6 0.6 0.6 0.6 0.2-1.3 0.6-0.7 0.4-0.8 0.2-0.6-0.1-1.2-0.1-0.9-0.3-1.2-0.6-0.6-0.3-0.4-0.2-0.3 0-0.5 0.3-0.3 0.3-0.2 0.7 0.2 0.6 0.3 0.6-0.2 0.5-0.5 0.3-1 0.2-0.3 0.3-0.1 0.8-0.2 0.5-0.4 0.2-1.2 0.1-0.6 0.2-0.1 0.5 0.1 0.6 0 0.5-0.3 0.4-0.2 0.1-1 0.3-0.4 0.2-1.8 2.3-0.7 0.7-0.5 0.2-0.2-0.1-0.2-0.4 0-0.7 0.1-0.6 0.5-1.1 0.1-0.3-0.1-0.6-2-6.9-0.5-1.2-0.5-0.8-0.5-0.5-1.2-0.4 0-0.5 0.1-0.5 0.6-0.7 0.1-0.3-0.2-0.3-1.3-1.1-0.2-0.4 0-0.4 0.2-0.2 0.8-0.3 0.2-0.2 0.2-0.5 0.1-0.4 0-1.8 0-0.4-0.1-0.7-0.2-0.5-0.5-0.7-0.4-0.3-0.5-0.2-0.9 0-0.6 0-0.5 0.3-0.4 0.1-3.5-0.8-2.1-0.2-7.2-2.5-0.5-0.3-0.5-0.4-0.8-0.8-0.3-0.6-1-1.8-0.1-0.5-0.2-0.9-0.1-0.4 0.2-0.9 0-0.3-0.2-0.6-0.4-0.1-1.1 0.3-0.6-0.1-1-0.6-0.5-0.2-0.7 0-0.4-0.2-0.3-0.4-0.3-1-0.5-0.7-0.4-0.4-1-0.5-0.5-0.4-0.2-0.4-0.1-0.7 0.3-0.8 0-0.3-0.8 0.1-2.4 0.8-0.6 0.3-0.7 0.8-0.5 0.2-0.6 0.2-2.2 0.4-4.1 0.1-0.6-0.3-0.8-1.2-1.5-1.9-0.3-0.6-0.2-0.6-0.8-2.7-0.3-1.3 0-0.9 0.2-1.6 0.1-0.8-0.3-1.6 0.1-2.4 0.2-2.1 0.4-0.7 1-0.5 0.3-0.4 0.4-0.5 0.9-2.7 2.1-4.2 0.1-0.3 0-0.4-0.1-0.5-0.9-2.9 0-0.8 0.2-0.7 0.3-0.8 0.1-0.4 0-1.1 0.3-0.5 0.4-0.4 2.2-1.8 0.5-0.2 0.7 0 2.1 0.2 2.2 0.6 0.7-0.1 0.8-0.4 1.4-1.7 1.5-2.6 0.4-0.4 0.4-0.7 0.2-0.6 0.3-1.3 0.1-0.5-0.1-0.5-0.3-0.6-0.1-0.3 0.2-0.3 0.5-0.2 0.7-0.1 1.2 0.2 1.8 0.4 2.4-0.4 1.2-0.4 0.1-0.1 0.3-0.7 0.2-1 0.2-0.5 0.2-0.5 0.6-0.7 0-0.4-0.4-0.2-0.4 0-0.1-0.3 0-0.7-0.7-3.2-0.1-0.6-0.6-0.2-0.3-0.5-0.7-1.6-0.3-1.3-0.4-0.4-0.6-0.3-0.4-0.4-0.3-0.7 0.3-0.8 0.4-0.6 0-0.9 0-0.3 0.5-0.7 0.1-0.5-0.2-0.3-0.3-0.4-0.4-0.3-0.4-0.3-0.9-0.1-1.1 0.3-1.8 1.5-0.5 0.4-1.1 0.5-8.9 1.3-0.4-0.3-0.2-0.7 0.1-1.6 0.7-2.1 0-0.6-0.1-0.7-0.3-0.9-0.3-0.8-0.8-1.3-1.6-1.5 1.2-13.8 0-0.8-0.5-2.7 0-0.8 0-0.8 0.4-0.8 0.3-0.5 1.1-0.7 3.7 0 7.5-1 1.6-0.5 1.7-1.2 3.5-3.6 4.2-3.2 1.9-0.9 6.4-1.3 0.6-0.3 0.7-0.8 0.7-1.1 0.6-0.6 3-1.9 1.6-0.7 1.9-0.2 2.8 0.8 6.6-0.4 8.1-1.3 5.2-1.5 2.1-0.1 0.9 0 0.9-0.1 0.4-0.1 2.7-1.4 7.5 1.5 2 0.7 0.6 0.6 0.3 0.3 0.2 0.5 0 0.7-0.3 0.9-0.9 1.7-0.2 0.3-0.9 1-0.8 1.5-0.5 0.6-1.6 1.5-0.4 0.4-0.7 1.1-1.3 2.3-0.2 0.8-0.4 1.9-0.2 0.6-1.7 3.6-0.3 1.1-0.2 0.4-0.8 1.2-0.3 0.7-2.3 3.5-0.9 1.2-0.3 0.8 0.1 0.2 0.2 0.4 2.2 1.1 2.8 2.3 0.5 0.3 1.1 0.2 1.6-0.1 0.7 0.2 0.4 0.3 0.2 0.3 0.2 1.2 0 0.8-0.4 1.2 0.1 3.3 0 0.5 0.2 0.7-0.1 0.7-0.5 0.7-0.2 0.9-0.1 1.1 0.1 1.1 1 1.6 0.2 0.9 1.3 8.5 0.1 1.5-0.1 1.1-0.5 1.5-1.9 3.9-0.5 1.6-0.2 0.3-0.4 0.3-1 0.4-0.3 0.2-0.6 0.6-0.7 0.8-0.4 0.6-0.7 1.3-1.5 4.4 0.2 0.4 1 0.1 9.9-1.9 0.3 0.3 0.2 0.4 0.4 0.8 0.2 0.3 0.4 0.3 0.4 0.1 7.6-0.7 0.6-0.2 0.5-0.3 0.6-0.3 1-0.3 1.1-0.5 3.4-2.1z"
		  id="AFG1748" name="Sari Pul" data-id="AFG1748" data-name="Sari Pul">
	</path>
	<path d="M294.6 450.1l0.5 0.9 0.4 0.5 0 0.2-0.1 0.3-2.2 2-0.3 0.6-0.2 0.7 0 1.1 0.1 0.9 1.2 0.7-6.3 4.8-0.7 0.7-0.6 0.8-0.6 0.8-1.3 1.3-0.7 0.9-0.4 0.8 0 0.4 0.1 0.3 0.4 0.2 0.2 0.4-0.1 0.4-0.3 0.6-0.8 1.1-0.6 1.4-0.4 0.7-0.1 0.5 0.3 0.2 1.7 0.7 0.6 0.5 0.1 0.3 0 0.3-0.3 0.4-0.5 0.4-9 3.6-1.7 0.3-0.5 0.2-0.7 0.5-0.7 0.6-0.8 1.3-1.1 1.1-1.1 1.7-0.3 0.5 0 0.3 0.1 0.6-0.3 0.6-0.7 0.6-2.9 2.1-1.1 1.2-0.7 1.3-0.2 0.9 0.1 0.4 0.3 0.3 1 0.4 1.4 0.8 0.3 0.2 0.1 0.3 0 0.4-0.5 0.9-0.1 0.5 0.1 1-0.6 0.7-1.2 0.9-3.2 1.5-2.3 1.5-0.7 0.2-3.6 0.1-5 1-0.7 0.1-0.5-0.1-0.2-0.6-0.1-0.6-0.1-0.2-0.4 0-0.7 0.3-1 0.9-0.2 0.5-0.1 1.7 0.1 1.9 0.3 0.7 0.7 0.8 0.3 0.5 0.3 0.8 0.2 0.9 0 0.7-0.2 0.6-0.4 0.4-1.1 0.5-0.9 0.6-1 0.9-0.5 0.7-0.4 0.6-0.4 0.4-0.4 0.2-0.5-0.2-0.7-0.7-0.3 0.1-0.5 0.3-4.9 4-0.4 0.4-0.2 0.5-0.2 1.1-0.2 0.4-0.4 0.3-1 0.1-2.2-0.6-0.7 0-0.6 0.1-1.5 0.5-1 0.1-0.6 0.4-3.9 4-0.8 0.7-1.2 0.8-5.4 2.6-1.7 1.3-1.6 0.1-13-3.2-7-0.3-3.3-0.9-0.9 0-0.6 0.3-0.6 0.4-1.5 1.7-0.6 0.9-0.5 1-0.7 1.9-0.1 0.9-0.2 6.1-0.1 0.9-0.3 0.9-0.4 0.9-0.7 1-1 1.1-1.3 1.2-2.5 1.9-1.1 0.5-3.8 1-3.8 0-0.6 0.1-6.4 2.4-0.5 0.3-1.4 1-0.9-0.4-0.7-0.4-5.2-5.9-3-3.5-0.5-0.3-0.7-0.3-0.8-0.3-2.3-0.5-1.4 0-0.9 0-7.7 2.4-28.8 1.8-0.3 0.5-0.2 0.5 0.1 0.8 0.2 0.4 0.2 1.2 0.4 2.1 0 0.6-0.3 0.7-1 0.9-4.3 2.2-0.6 0.6-0.5 0.8-0.3 0.9-0.1 0.5 0 0.5 0.6 1.8 0.2 1.3 0 0.9-0.1 0.5-0.5 0.8-0.9 1.2-2.1 2.3-1.1 0.9-1.7 2-3.2 6-2.2 2.9-0.6 0.4-0.8 0.3-1.9-0.1-0.8 0.1-0.2 0.4-0.2 0.6 0 1.1 0.3 1.2 0.5 0.9 0.2 0.4 0.1 0.5-0.1 0.9-0.3 0.7-1.1 1-0.6 0.3-0.5 0-0.2-0.1-0.3-0.5-0.3-0.1-0.4 0.5-0.1 0-0.4-0.9-0.5-0.3-0.1 0.3 0.1 0.6 0.5 1.6 0.5 0.7 0.6 0.5 0.1 0.5-0.4 1-0.1 0.5 0.3 1 0 0.6-0.5 0.8-0.9 2.3-8-1.1-37.1-5.5-7-1-2.3-1-0.8-7.6-1-3.9-0.2-1.9 0.9-6.1-1-7.5-0.1-4 0.5-5-0.1-1.8-0.3-0.9-0.4-0.8-0.1-0.8 0.6-1.8-0.4-0.5-0.6-0.3-0.2-0.5 0.5-1.3 1.8-2.3 0.4-1.4 1-6.5 0.1-6.7-2.4-8.7-3-11.4-2.8-9.6-2.6-8.6-2.4-8.3-2.3-8-2-6.7-1-5.3-0.1-6.6 0.4-1.1 3.4-4.6 3.7-5.1 6-8.2 2-1.7 2.3-1.5 0.7-0.9 0.4-1.7-0.1-1.4-0.3-1.4 0.2-1.2 1.3-0.8 3.2-0.2 1.1-0.4 0.5-0.9 3.8 0.4 4 1.8 9.1 2 4.8 0.4 9.9-1 1.3 0 0.8 0.1 1.5 0.7 0.7 0.1 0.9-0.1 1.9-0.7 0.9-0.5 0.5-0.5 0.5-0.9 0.3-0.8 0.5-0.6 0.7-0.4 1.6-0.3 3.2 0.1 3.3 0.7 0.9 1.1 1.2 0.1 2.2-0.2 5.2 0.4 4.6 1.1 0.6 0.6 0.2 0.5 0 0.9-0.1 0.7-0.3 0.6-0.3 0.4-1 1-0.2 0.4-0.2 0.5-0.1 0.8 0 3.5-0.1 0.7-0.2 0.5-0.4 0.6-1.2 1.3-1 0.7-0.4 0.4-0.6 0.8-0.3 0.4-0.6 0.6-0.2 0.3 0 0.8 0.3 0.7 2.7 3 3.1 5 0 0.9-0.7 0.9-1.9 1.4-0.6 0.6-0.5 0.5-0.7 1.1-2.4 2.4-0.9 0.7-0.3 0.4-0.2 0.5-0.4 0.9-0.3 0.4-0.4 0.3-1.6 0.9-0.4 0.4-0.3 0.5-0.4 1.3-0.3 2.7-0.1 2.9 0.1 1.3 0.4 1 0.6 0.4 0.7 0.3 0.7 0.2 4.2 0.2 0.7 0.2 0.5 0.3 0.4 0.6 0.8 1.3 2.6 2.6 0.9 0.7 0.6 0.1 0.5-0.1 0.5-0.3 0.5-0.3 0.8-0.8 1.8-2.1 3.5-2.6 1.1-0.5 0.6 0 0.4 0.1 0.4 0.4 0.1 2.1 0.2 1 0.4 1.2 0 1 0.1 0.7 0.1 0.3 0.6 0.9 0.2 0.7 0.5 0.8 0.4 0.2 0.5 0.1 1 0.1 0.9-0.1 0.6-0.2 1.1-0.6 2.1-2 0.5-0.3 1.1-0.5 2-0.4 5.7-0.6 2.6-0.5 1.6 0 1.3 0.3 0.5-0.1 0.3-0.2-0.3-1.5 0.1-0.5 0.3-0.7 1.6-3.5 0.1-0.6 0.1-0.9-0.3-0.9 0-0.6 0.1-0.9 0.4-1.4 0.5-0.7 0.4-0.4 1.1-0.7 1.8-1.5 2-1.3 2.9-1.5 0.9-0.3 1-0.1 0.6 0.2 1.8 1 1 0.2 0.6 0 3.5-0.7 2.9-0.9 1-0.6 0.8-0.7 0.3-0.6 0.3-0.6 0.2-0.8 0.4-0.8 0.4-0.4 0.4-0.1 2.8 0.1 0.9-0.1 1-0.2 5.8-2 1.7-0.3 0.2 0 0 0.3-0.2 0.9 0 0.4 0.2 0.3 0.5 0.1 6-2.2 1.9-1.9 0.3-0.9 0-0.3 0.2-1.1 0.4-1.5 1.2-3.3 0.8-1.6 0.6-1.1 0.6-0.4 1.5-0.7 1.2-1 2.3 1 2.3 0.1 1-0.2 5.2-1.6 14.1-0.6 3.6-0.7 2.8-1.1 2.6-2.2 1.4-0.9 2.2-0.9 3-0.6 4.6-0.5 1.1-0.5 0.9-0.7 1.1-1.7 1.4-1.7 1-0.9 1.3-1 3.1-1.5 1.7-0.2 2.5 1.4 1.2 1.1 3.9 6.5 2.2 5 0.2 0.6-0.1 1.4 0.3 1.4-0.1 1.3 0 0.7 0.2 0.4 0.3 0.3 0.9 0.5 0.6 0.1 0.8 0.1 0.4 0.2 0.3 0.4 0.2 0.8 0.2 0.4 0.3 0.3 0.9 0.8 0.6 0.7 2 4.1 0.6 0.8 0.4 0.4 0.3 0 0.9-0.4 0.5 0 0.4 0.2 1.6 1.5 3 1.7 0.6 0 0.7-0.7 0.6-0.3 0.6-0.1 1.8-0.1 0.5-0.1 0.5-0.3 0.1-0.5-0.3-0.7-1.5-1.5-0.1-0.3 0-0.3 0.4-0.4 0.4-0.2 1.9-0.4 1.2-0.6 1.3-0.8 0.9-0.7 0.7-0.7 0.7-0.8 1-1.8 1.6-4.2 0.8-0.8 1.2-0.3 0.8 0.1 0.5 0.4 0.3 1 0.3 0.3 0.6 0.7 0.9 0.6 0.5 0.3 0.4 0 1-0.1 2.4 0 0.7 0.2 0.5 0.2 0.2 0.3 0.2 0.8 0.1 0.5 0.5 1 2.1 1.6z"
		  id="AFG1749" name="Farah" data-id="AFG1749" data-name="Farah">
	</path>
	<path d="M328.9 438.9l1.4 1.6 1.3 0.7 2.3 0.3 0.4 0.1 0.1 0.4 0 0.4-0.3 0.8-0.1 0.4 0.2 0.7 1.6 2.9 0.7 0.9 0.7 0.8 0.9 0.7 0.4 0.5 0.2 0.7 0.1 1.4-0.1 0.7-0.3 0.9-0.2 1.9-0.2 0.9-0.1 1.2-0.2 1.2 0.1 1.1 0 1.2-1.3-0.1-0.3 0.1-0.6 0.4-1.5 1.6-0.4 0.5-0.2 0.4 0.3 1-0.1 0.8-0.3 0.7-1.2 1.3-0.8 0.7-0.8 1-4.1 7.5-0.1 0.7 0.2 0.3 0.4 0.5 0.6 0.3 0.5 0.5 0.1 0.4 0.1 0.8-0.1 0.7-0.8 3.4 0 0.6 0 0.5 0.3 0.6 0.4 1.3-0.9 4.4-1.2 2.8 0.3 0.5 0.5 0 0.5 0.3 0.7 0.5 0.6 0.1 1.1-0.3 0.4 0.1 0.3 0.3 0.3 0.7 0.3 0.3 0.3 0.2 0.3 0.1 0.8 0.3 0.2 0.9 0.8 3.7 0.5 1.6 0.1 1.1-0.1 0.7-0.6 0.9-1 1.3-0.3 0.6-0.1 0.4 0.4 1.3 0.2 0.9 0.2 1.8 0 1-0.1 0.8-0.2 1.1-0.4 1-0.6 1-0.6 1.9-0.8 4.6-1.1 4.2-0.1 0.4-0.1 0.3-0.3 0.2-1.2 0.7-2 1.8-0.3 1.2-0.1 1.1-0.6 1.4-0.2 1.3-0.1 0.4-0.3 0.3-0.6 0.3-0.4 0.4 0.2 0.3 0.6 0.5 0 0.5-0.2 0.6-0.5 1.2-1 3.7-0.4 0.7-0.5 0.3-1.1 0.2-1.3 0-0.7-0.2-0.6-0.2-1.1-0.8-0.6-0.2-1-0.1-0.7 0.1-0.6 0.4-1.1 0.9-1.3 0.7-0.8 0.3-0.3 0.3-0.4 0.6-0.5 0.9-0.6 1.5 0 2.7-0.6 3-0.4 0.7-1.1 1.2-3 3-0.5 0.6-1.2 1-0.2 0.2-0.4 1.1-1.3 6.8-0.1 0.9 0.2 0.6 0.6 0.6 0.6 0.4 0.4 0.3 0.2 0.4-0.6 1-1.1 7.2-0.1 0.4-1.1 2.6-2.1 7.9-0.9 4.6-1 12.6-0.2 2.8-3.1 40.2-1 26-2 15.4-9.1 51.8 0 0.5-1.5 0-18.7 5.6-2.5 1.2-1.5 2.1-2.6 4.9-1.8 0.8-7.9-3.4-28-5.4-20.8 1.9-6.8 0.7-3.4 0.3-6.7 0.6-29.2 2.8 8.2-39 0.1-3.6-0.4-3.7 0.1-0.7 0.3-0.7 1.8-2.5 0.5-0.9 0.2-1.2 0.5-5.8-0.1-4 0.2-0.8 0.4-0.6 0.4-0.3 0.6-0.3 0.6-0.1 0.7-0.1 0.6-0.2 2.4-1.3 2.8-2.8 2.1-2.6 2.9-4.6 1.7-3.3 0.9-2.5 0.8-1.5 0.9-1.2 3.6-2.7 1.1-1.1 0.4-0.9 0-0.8-0.2-0.6-0.2-0.6-0.4-0.6-1-1.2-0.4-0.7-0.2-0.5-0.1-1.4 1.6-2.4 0-0.9-1-0.6-0.5-0.4-0.5-0.9 0.1-0.6 0.4-0.7 0.6-0.7 2.4-3.1 0.7-0.7 0.7-0.5 1.3-0.7 0.5-0.5 0.3-0.6 0-0.7-0.7-3.9-0.1-5.5-0.2-3 0.9-1 2.7-1.3 0.9-0.6 1.3-1.1 0.5-0.8 0.7-1.6 2.9-5.5 0.5-0.7 0.7-0.6 1.5-0.5 1.3-1.6 0.1-1.3 0-0.7 0.4-7.2-0.1-0.9-0.2-0.6-0.3-0.5-0.8-1.3-1-3 0.2-1.3 1.6-2 0.7-1.4 0.2-8.6 3.7-26.5 1.5-4.5 2.8-2.3 0.8-0.9 1.1-1.5 2.5-5.2 0.3-1.2 0.2-0.9-0.5-1.9 0-0.7 0.2-0.3 1-1.1 1-1.2 0.3-0.7-0.1-0.6-0.9-0.9-0.2-0.4-0.1-1.2-0.2-0.4-0.6-0.9-0.1-0.3 0-1.1-0.3-1.2-0.3-2.9 1.7-1.3 5.4-2.6 1.2-0.8 0.8-0.7 3.9-4 0.6-0.4 1-0.1 1.5-0.5 0.6-0.1 0.7 0 2.2 0.6 1-0.1 0.4-0.3 0.2-0.4 0.2-1.1 0.2-0.5 0.4-0.4 4.9-4 0.5-0.3 0.3-0.1 0.7 0.7 0.5 0.2 0.4-0.2 0.4-0.4 0.4-0.6 0.5-0.7 1-0.9 0.9-0.6 1.1-0.5 0.4-0.4 0.2-0.6 0-0.7-0.2-0.9-0.3-0.8-0.3-0.5-0.7-0.8-0.3-0.7-0.1-1.9 0.1-1.7 0.2-0.5 1-0.9 0.7-0.3 0.4 0 0.1 0.2 0.1 0.6 0.2 0.6 0.5 0.1 0.7-0.1 5-1 3.6-0.1 0.7-0.2 2.3-1.5 3.2-1.5 1.2-0.9 0.6-0.7-0.1-1 0.1-0.5 0.5-0.9 0-0.4-0.1-0.3-0.3-0.2-1.4-0.8-1-0.4-0.3-0.3-0.1-0.4 0.2-0.9 0.7-1.3 1.1-1.2 2.9-2.1 0.7-0.6 0.3-0.6-0.1-0.6 0-0.3 0.3-0.5 1.1-1.7 1.1-1.1 0.8-1.3 0.7-0.6 0.7-0.5 0.5-0.2 1.7-0.3 9-3.6 0.5-0.4 0.3-0.4 0-0.3-0.1-0.3-0.6-0.5-1.7-0.7-0.3-0.2 0.1-0.5 0.4-0.7 0.6-1.4 0.8-1.1 0.3-0.6 0.1-0.4-0.2-0.4-0.4-0.2-0.1-0.3 0-0.4 0.4-0.8 0.7-0.9 1.3-1.3 0.6-0.8 0.6-0.8 0.7-0.7 6.3-4.8-1.2-0.7-0.1-0.9 0-1.1 0.2-0.7 0.3-0.6 2.2-2 0.1-0.3 0-0.2-0.4-0.5-0.5-0.9 3.1-1.5 0.9 0 0.3 0.8 0.2 2 0.5 0.6 1 0.2 0.4 0 0.5-0.1 0.9-0.5 0.5-0.4 2.2-2.5 1-0.8 0.5-0.2 0.4 0.1 1 0.6 1.3 0.2 0.6 0 0.5-0.2 0.7-0.7 1.9-1.4 0.4-0.4 6-2.8 0.3-0.3 0.8-0.9 1.2-1.1 3-1.9 0.8-0.2 0.8 0 2.6 0.2z"
		  id="AFG1750" name="Hilmand" data-id="AFG1750" data-name="Hilmand">
	</path>
	<path d="M211.8 534.8l0.3 2.9 0.3 1.2 0 1.1 0.1 0.3 0.6 0.9 0.2 0.4 0.1 1.2 0.2 0.4 0.9 0.9 0.1 0.6-0.3 0.7-1 1.2-1 1.1-0.2 0.3 0 0.7 0.5 1.9-0.2 0.9-0.3 1.2-2.5 5.2-1.1 1.5-0.8 0.9-2.8 2.3-1.5 4.5-3.7 26.5-0.2 8.6-0.7 1.4-1.6 2-0.2 1.3 1 3 0.8 1.3 0.3 0.5 0.2 0.6 0.1 0.9-0.4 7.2 0 0.7-0.1 1.3-1.3 1.6-1.5 0.5-0.7 0.6-0.5 0.7-2.9 5.5-0.7 1.6-0.5 0.8-1.3 1.1-0.9 0.6-2.7 1.3-0.9 1 0.2 3 0.1 5.5 0.7 3.9 0 0.7-0.3 0.6-0.5 0.5-1.3 0.7-0.7 0.5-0.7 0.7-2.4 3.1-0.6 0.7-0.4 0.7-0.1 0.6 0.5 0.9 0.5 0.4 1 0.6 0 0.9-1.6 2.4 0.1 1.4 0.2 0.5 0.4 0.7 1 1.2 0.4 0.6 0.2 0.6 0.2 0.6 0 0.8-0.4 0.9-1.1 1.1-3.6 2.7-0.9 1.2-0.8 1.5-0.9 2.5-1.7 3.3-2.9 4.6-2.1 2.6-2.8 2.8-2.4 1.3-0.6 0.2-0.7 0.1-0.6 0.1-0.6 0.3-0.4 0.3-0.4 0.6-0.2 0.8 0.1 4-0.5 5.8-0.2 1.2-0.5 0.9-1.8 2.5-0.3 0.7-0.1 0.7 0.4 3.7-0.1 3.6-8.2 39-8.7 0.8-7.1-1.3-6.6-2.2-5.8-1.8-5.7-1.9-11.6-3.7-5.7-1.9-11.6-3.7-11.5-3.7-5.8-1.9-5.7-1.9-11.6-3.7-17.3-5.6-4.9-1.6-2.2-1 9.3-10.9 10.7-12.8 5.7-6.9 11.4-13.7 5.6-6.8 8-9.6 14.5-17.5 1.1-1.3-0.2-0.5 0.1-1.5 0.1-0.5 0.5-0.3-0.3-5.5-0.3-0.9 1.3-2.7 0.5-1.7 0-1.6-0.3-1.6-0.9-2.6-1.2-2.6-0.2-0.8-0.1-2.4-0.6-1.8-1.8-3.1-0.7-1.7 0-1.6 0.5-3.5-0.5-1.5-2.5-3.1-1.4-1.1-1.7-0.7-3.8-0.6 0.9-2.3 0.5-0.8 0-0.6-0.3-1 0.1-0.5 0.4-1-0.1-0.5-0.6-0.5-0.5-0.7-0.5-1.6-0.1-0.6 0.1-0.3 0.5 0.3 0.4 0.9 0.1 0 0.4-0.5 0.3 0.1 0.3 0.5 0.2 0.1 0.5 0 0.6-0.3 1.1-1 0.3-0.7 0.1-0.9-0.1-0.5-0.2-0.4-0.5-0.9-0.3-1.2 0-1.1 0.2-0.6 0.2-0.4 0.8-0.1 1.9 0.1 0.8-0.3 0.6-0.4 2.2-2.9 3.2-6 1.7-2 1.1-0.9 2.1-2.3 0.9-1.2 0.5-0.8 0.1-0.5 0-0.9-0.2-1.3-0.6-1.8 0-0.5 0.1-0.5 0.3-0.9 0.5-0.8 0.6-0.6 4.3-2.2 1-0.9 0.3-0.7 0-0.6-0.4-2.1-0.2-1.2-0.2-0.4-0.1-0.8 0.2-0.5 0.3-0.5 28.8-1.8 7.7-2.4 0.9 0 1.4 0 2.3 0.5 0.8 0.3 0.7 0.3 0.5 0.3 3 3.5 5.2 5.9 0.7 0.4 0.9 0.4 1.4-1 0.5-0.3 6.4-2.4 0.6-0.1 3.8 0 3.8-1 1.1-0.5 2.5-1.9 1.3-1.2 1-1.1 0.7-1 0.4-0.9 0.3-0.9 0.1-0.9 0.2-6.1 0.1-0.9 0.7-1.9 0.5-1 0.6-0.9 1.5-1.7 0.6-0.4 0.6-0.3 0.9 0 3.3 0.9 7 0.3 13 3.2 1.6-0.1z"
		  id="AFG1751" name="Nimroz" data-id="AFG1751" data-name="Nimroz">
	</path>
	<path d="M440.4 445.7l1 2.7 1.8 0.3 7.1-0.4 1.2 0.3 0.4 0.6 0.4 0.9 0.1 1.3 0 0.8-0.2 0.5-0.2 0.3-1.2 0.6-0.4 0.3-0.3 0.4-0.5 0.9-0.4 0.4-2.4 1.8-0.3 0.3-0.2 0.6-0.1 0.9-0.3 1.4 0.1 2.4 0 0.6-0.1 0.4-0.2 1 0 1.3 0.3 3 0.3 1.5 0.5 1.3 0.6 0.8 0.6 0.6 0.8 0.4 3.4 0.8 0.8 0.3-0.3 4.9-0.1 0.6-0.2 0.8-0.3 0.5-0.5 0.8-0.2 0.4-0.8 0.3-0.8 0.5-0.5 0.1-0.5-0.1-0.6-0.1-0.4-0.2-0.7-0.4-0.6-0.3-0.8 0.1-1.3 1-0.4 0.2-0.5 0.1-1.7-0.1-2.1 0.2-1 0.3-0.7 0.4-0.5 0.4-4.5 2.9-1.2 1-1.1 1-1.1 1.6-0.2 0.3-0.2 0.8 0.2 1 0 0.4-0.4 0.7-0.8 0.5-1.7 0.8-0.8 0.2-0.7 0.1-0.5-0.5-0.1-0.6 0.1-0.6 1.6-4.8 0.1-0.7 0-0.4-0.3-0.5-1-0.1-3.1 0.3-2.1 4-1.1 1-3.4 0.5-3.3 1.6-0.6 0.6-0.8 1.4-0.9 1.2-3.4 3.8-0.6 0.9 0 0.6 0 1.2-0.1 0.9-0.8 1.6-0.2 0.5 0 0.4 0.4 0.9 0.7 1-1.7 1.1-0.4 0.3-0.7 0.4-4.6 0.7-0.7 0.2-0.8-0.2-0.3-0.2-0.3-0.5-0.2 0-0.4 0.1-0.4 0.6-0.1 0.4 0 1.3-0.1 0.5-0.1 0.4-0.4 0.4-2.3 0.4-4.3-0.5-1.1 0.1-0.6-0.1-0.7-0.2-0.5-0.6-0.7-1-0.4-1.1-0.9-0.4-3.2-0.2-3.7-0.5-1.1-0.3-0.6-0.1-1.5 0.2-0.4 0-2.2-0.8-0.7-0.1-0.5 0-0.7 0.2-1 0.5-0.5 0.5-0.8 1.5-0.6 0.6-0.6 0.4-1.2 0.3-0.5-0.1-0.1-0.8 0.1-2.3-0.4-4.7 0.2-1.1 0.4-1.3-0.1-0.3-0.4-0.1-1.1 0.4-0.9 0.1-5.1-1-0.6 0.1-0.5 0.1-0.3 0.2-0.5 0.4-2.4 3.1-0.7 1.2-0.4 1-0.2 1.3-0.2 1-0.7 1.1-0.5 0.7-0.5 0.5-0.3 0.1-1 0.4-1.2 0.6-0.3 0.4-0.1 0.5-0.1 0.8 0.2 1.8 0.4 1.7 0 0.3-0.4 0.4-0.6 0.3-0.5 0.5-0.1 0.3-0.4 1.5-0.2 0.4-0.4 0.6 0.1 0.7 1.1 2.2-0.4 0.3-0.6 0.2-1 0.1-0.9-0.2-1.1-0.4-2.6-1.5-1-0.3-3.8 0.2-0.8-0.2-0.6-0.3-1-1.2-0.6-0.2 0.8-4.6 0.6-1.9 0.6-1 0.4-1 0.2-1.1 0.1-0.8 0-1-0.2-1.8-0.2-0.9-0.4-1.3 0.1-0.4 0.3-0.6 1-1.3 0.6-0.9 0.1-0.7-0.1-1.1-0.5-1.6-0.8-3.7-0.2-0.9-0.8-0.3-0.3-0.1-0.3-0.2-0.3-0.3-0.3-0.7-0.3-0.3-0.4-0.1-1.1 0.3-0.6-0.1-0.7-0.5-0.5-0.3-0.5 0-0.3-0.5 1.2-2.8 0.9-4.4-0.4-1.3-0.3-0.6 0-0.5 0-0.6 0.8-3.4 0.1-0.7-0.1-0.8-0.1-0.4-0.5-0.5-0.6-0.3-0.4-0.5-0.2-0.3 0.1-0.7 4.1-7.5 0.8-1 0.8-0.7 1.2-1.3 0.3-0.7 0.1-0.8-0.3-1 0.2-0.4 0.4-0.5 1.5-1.6 0.6-0.4 0.3-0.1 1.3 0.1 2.1 0.5 2.1 1.4 0.6 0.2 0.4 0 0.3-0.9 0.2-0.5 0.4-0.4 0.9-0.2 0.8 0.2 0.8 0.4 0.9 0.6 0.4 0 0.1-0.3-0.1-0.7-0.6-2.4-0.7-1.7-0.1-0.4 0.2-0.4 0.6-0.1 5.6 0.2 0.8 0.2 0.6 0.2 0.7 0.3 4.1 2.7 0.4 0.1 0.5-0.1 1.5-0.6 0.7-0.1 0.8-0.1 0.6 0.1 2.3 0.5 0.5-0.1 0.4-0.1 0.3-0.4 0.9-1.4 0.6-0.7 0.7-0.1 0.4 0 0.6 0.6 2.7 2.7 1.7 1 8.7 2 2.1 0.5 1.1-0.1 0.3-0.3 0.4-0.5 0.2-0.6 0.1-0.6 0-0.6-0.1-0.5 0-0.7 0-0.8 0.9-3.8 0.5-1.3 0.5-0.6 0.5-0.5 1.9-1 1.3-0.4 2.1-1 8.4-6.3 1.4-0.8 0.8-0.3 0.6 0 0.3 0 1.6 0.9 0.6 0.3 0.8-0.1 1-0.3 3.3-1.3 1-0.3 1 0.1 0.5 0.3 1 1.4 0.2 0.5 0.2 1.3 0.3 0.6 0.7 1.2 0.9 1 1.9 0.5 4.9-2.7 1.9-0.7 1.4 0 1.2-0.3 0.7-0.4 0.8-0.8 1.4-1.6 0.4-0.3 0.3 0 0.2 0.3 0.3 1.7 0.3 1.3 0.3 0.4 0.5 0.2 1.1 0.1 0.9-0.1 2.3-0.8z"
		  id="AFG1752" name="Uruzgan" data-id="AFG1752" data-name="Uruzgan">
	</path>
	<path d="M416.7 353.2l-1.3 1.7-0.1 0.7 0.7 0.9 0.5 0.9 2.5 0.1 2.2 0.9 0.9 0.4 0.5 0.4 0.4 0.5 0.1 0.4 0.1 0.5-0.2 0.4-0.2 0.2-1 0.4-0.4 0.2-0.9 0.8-0.4 0.5-0.3 0.4-0.1 0.5 0.3 3.1 1 2.6 0 0.6-0.1 0.8-1.7 3.7-0.5 1.4-0.2 2.5 0 1.2 0.2 0.8 0.3 0.4 0.7 0.9 3.9 3.8 4 2.2 1.5 0.2 1.8-0.8 0.9-0.2 0.6-0.5 0.6-0.4 1-0.4 2-0.4 1.2 0 12.3 2.5 0.5 0.3 0.4 0.3 0.7 1 0.3 0.3 2.6 1.1 0.6 0 0.4-0.1 3.9-2.4 0.7-0.3 1.1-0.3 0.7 0 0.4 0 0.4 0.3 1 1.3 0.2 0 0.9-0.7 0.2-0.3 0.6-1.1 0.5-0.6 0.4-0.3 2.3-0.7 5.7-0.9 0.7-0.4 0.6-0.5 1-1.2 1.2 1 0.2 0.5 0 0.5-0.4 0.9-0.7 2.2-0.5 0.7-0.7 0.6-0.4 0.6-0.1 0.4 0.2 0.4 0.8 0.5 1.1 0.6 0.3 0.5 0.5 1.3 1 3-0.1 0.6-0.2 0.4-1.5 0.8-0.5 0.4-0.4 0.5-2.4 3.4-1.5 1.4-4.4 3.8-0.6 0.7-0.8 1.2-0.5 1.1-1.1 1.4-1.4 1.1-1.4 0.7-6.6 2-0.4 0-1.7 0-3.9 0.8-6.2 2.5-0.7 0.5-0.3 0.2-0.8 0.9-0.9 2.4-0.1 0.5 0 1.5 2.1 6.1 0.1 2.2-0.3 0.7-0.2 0.7-0.1 1-0.2 3.4-0.1 0.5-0.3 0.7-0.5 1.3-0.5 3.8-2.3 0.8-0.9 0.1-1.1-0.1-0.5-0.2-0.3-0.4-0.3-1.3-0.3-1.7-0.2-0.3-0.3 0-0.4 0.3-1.4 1.6-0.8 0.8-0.7 0.4-1.2 0.3-1.4 0-1.9 0.7-4.9 2.7-1.9-0.5-0.9-1-0.7-1.2-0.3-0.6-0.2-1.3-0.2-0.5-1-1.4-0.5-0.3-1-0.1-1 0.3-3.3 1.3-1 0.3-0.8 0.1-0.6-0.3-1.6-0.9-0.3 0-0.6 0-0.8 0.3-1.4 0.8-8.4 6.3-2.1 1-1.3 0.4-1.9 1-0.5 0.5-0.5 0.6-0.5 1.3-0.9 3.8 0 0.8 0 0.7 0.1 0.5 0 0.6-0.1 0.6-0.2 0.6-0.4 0.5-0.3 0.3-1.1 0.1-2.1-0.5-8.7-2-1.7-1-2.7-2.7-0.6-0.6-0.4 0-0.7 0.1-0.6 0.7-0.9 1.4-0.3 0.4-0.4 0.1-0.5 0.1-2.3-0.5-0.6-0.1-0.8 0.1-0.7 0.1-1.5 0.6-0.5 0.1-0.4-0.1-4.1-2.7-0.7-0.3-0.6-0.2-0.8-0.2-5.6-0.2-0.6 0.1-0.2 0.4 0.1 0.4 0.7 1.7 0.6 2.4 0.1 0.7-0.1 0.3-0.4 0-0.9-0.6-0.8-0.4-0.8-0.2-0.9 0.2-0.4 0.4-0.2 0.5-0.3 0.9-0.4 0-0.6-0.2-2.1-1.4-2.1-0.5 0-1.2-0.1-1.1 0.2-1.2 0.1-1.2 0.2-0.9 0.2-1.9 0.3-0.9 0.1-0.7-0.1-1.4-0.2-0.7-0.4-0.5-0.9-0.7-0.7-0.8-0.7-0.9-1.6-2.9-0.2-0.7 0.1-0.4 0.3-0.8 0-0.4-0.1-0.4-0.4-0.1-2.3-0.3-1.3-0.7-1.4-1.6 1.8-1.5 1.1-0.7 1.5-0.6 2-0.4 1.3-0.4 2.7-1.5 0.1-1.2-0.1-0.4-0.5-0.5 0-0.2 0.2-0.4 1-1.5 0.6-0.4 0.9-0.1 0.7-0.3 0.5-0.6 2.2-1.9 2.1-2.5 2.3-2 0.4-0.3 1-0.4 1-0.6 1.8-1.4 0.1-0.3 0.1-0.4-0.3-0.9-0.4-0.8-0.9-1-1.1-1-1.5-0.7-0.6-1.3-0.6-4.6-0.4-2.5-0.5-0.8-0.4-0.5-0.3-0.5-0.4-0.3-0.8-0.3-0.4-0.2-0.4-0.5-0.2-0.9-0.4-0.5-1.8-1.2-0.3-0.2-0.2-0.4-0.1-1.2-0.3-0.8 0-0.6 0-0.5 0.2-0.4 0.4-0.3 1.6-1 0.4-0.3 0.7-0.3 1.3-0.1 0.2-0.1 0.3-0.4 0.3-0.7 0.5-1.5 1-1.7 0.9-0.4 0.5-0.9 0.4-2-0.4-2.5-0.5-0.6-0.9-0.1-0.5-0.2-0.3-0.4-0.4-1.1-0.2-0.4-0.3-0.5-0.5-0.4-0.1-0.4 0.2-2.1 0.4-1.3 0.4-1.6 0-0.9 0-0.7 0.1-0.6 0.9-1.6 0-0.4-0.2-0.5-0.5-0.5 0-0.6 0-0.7 0.4-2 0.3-1.2 1-2.5 0.1-0.7-0.1-0.7 0.1-1.3 0.7-2.7 0.7-0.3 6.5-0.3 2.6 0.2 5.2 1 9.2 0.6 4.4 0.9 0.8-0.1 0.8-0.2 1.2-0.6 0.8-0.5 0.6-0.5 0.9-1.2 0.2-0.1 0.5-0.1 2.6 0.1 1.3 0.2 0.5 0.1 2.6-0.5 1.8 0.2 0.7 0 0.7-0.4 0.6-0.4 1.4-1.6 0.2-0.4 0.5-1 0.5-0.2 0.9-0.1 3.7 0.7 0.7 0.3 0.9 0.5 0.9 0.8 0.4 0.2 0.7 0 0.6-0.3 8.7-1.3 1.6 0.6z"
		  id="AFG1753" name="Uruzgan" data-id="AFG1753" data-name="Uruzgan">
	</path>
	<path d="M405.6 510.9l2.2 0.9 0.5 0 1 0 0.5-0.2 0.4-0.3 1.4-2.3 0.8-1.9 0.3-0.6 0.5-0.6 0.3-0.3 0.3-0.1 0.7 0.3 1-0.2 0.5 0.1 0.5 0.5 0.3 0.6 0.4 0.4 0.7 0.5 0.8 0.6 0.6 0.2 0.5 0.3 0.4 0.4 0.1 0.4 0 0.5-0.3 0.8 0 0.4 0.1 1.4-0.1 0.9-0.8 3.8-0.1 0.4-0.7 1.3-0.9 1.6-0.9 0.7-2.5 1.3-0.8 0.5-0.5 0.6-0.9 2.6-0.4 0.8-0.8 1.5-1.1 1.3-1.6 1.3-1.7 1.8-0.4 0.6-0.4 0.8-0.2 0.9 0 0.7 0.1 0.6 0.3 0.9 0.1 0.4 0.1 1 0.3 1 0.1 1.8 0.3 1.8-0.1 0.4-0.1 0.5-1 1.7-0.9 2.1 0 0.5 0.1 0.4 0.3 0.3 0.8 0.5 0.6 0.5 0.4 1.7 0.1 2.1-0.2 0.6-0.8 2-1.5 2.1-0.6 0.8-0.6 0.4-2.6 0.7-1.7 0.9-0.9 0.7-2.3 2.2 0 2 0.2 0.6 0.3 0.8 0.6 0.7 2.3 1.4 5.5 5.9 0.6 0.1 2.8-1.9 1.7-1.8 0.9-0.7 1.3-0.8 1.3-0.6 1.4-0.2 0.3 0 0.6 0.3 0.8 0.1 1 0 3.1-0.7 0.7-0.3 8.8-7.4 0.8-0.8 0.3-0.1 0.3 0.1 0.8 1 3.2 2.7 1.1 1.1 3.1 1.6 2.7 0.9 0.7 0.3 0.6 0.4 0.5 0.6 1.3 1 1.5 0.9 1.1 0.8 0.7 0.3 0.6 0.2 0.4 0 5 1.1 1.5-0.2 4.9-1.4 1.4-0.8 3-1.2 1.9 3.2 0.8 2.4 0.3 0.4 1 0.1 1 0.4 0.3 0.2 1 2.1 0.5 0.6 0.4 0.4 0.8 0.4 0.6 0.2 0.3 0.1 0.4-0.4 0.4-1 0.2-0.3 0.3-0.1 1.1 0.2 3.1 1.8 1.5 2.7 0.2 1.3 0 0.3-0.6 1.2-0.2 0.6 0.1 0.5 0.4 0.2 0.7 0.2 0.8 0 2.2-0.6 0.4 0 4.7 0.2 1.1-0.1 1.1-0.2 3.7-1.4 1.6-0.1 2.6 0.3 0.5 0.1 3.6 1.8-1.5 1-2.1 0.9-2.2 0.2-4.5-1-2.2 0.1-0.8 1.4 0.5 1.2 1 1.2 0.9 1.5 0.4 3.1 1 1.2 1.4 0.9 1.3 0.4 5.8-0.8 2.5 0.9 0.3 3.4-0.7 1.5-1.1 0.5-2.8-0.1-1.1 0.3-0.9 0.7-0.9 0.8-4.5 2.9-1.2 0.5-3.7 0.7-2.6 1.1-4.1 0.5-4.8 2.1-1.3 0.2-4.4-0.4-3.6 0.2-1.2-0.1-1.4-0.5-2.5-1.5-1.4-0.4-1.4 0.1-2.6 0.7-1.4-0.1-1.6-0.3-0.9-0.2-0.5-0.5-0.1-0.6 0.3-0.5 0.4-0.5 0.1-0.7-0.1-1.8-0.5-1.1-1-0.5-4.1 0-2.6 0.8-4.7 2.3-2 1.8-1.6 1.9-1.8 1.4-2.7 0.3-1.7 1.2-2.3 9.1-1.3 1.9-6.5 6.7-1.6 0.7-9.4 1.9-1.1 0.7-0.7 1.1-6.8 25.9-0.2 3.5 1.2 3.2 1.7 2.2 0.5 1 0.4 1.7 0.1 1.6-1.3 10.6 0.2 4.9-0.3 1.5-4.5 9.2-1 3-0.2 1.3 0.5 1.1 2.4 1.7 2.8 2.9 2.2 1.6 0.5 0.8-0.2 0.4-0.6 0.2-0.4 0.2-1.4 2.5-1.9 2.4-5.5 4-13.9 4.1-4.1 1.2-4 1.2-20.1 5.9-8 2.3-16.1 4.7-4.1 1.2-10 3-3.5-0.1-11.5-2.1-9.4-0.1-12.8-0.1 0-0.5 9.1-51.8 2-15.4 1-26 3.1-40.2 0.2-2.8 1-12.6 0.9-4.6 2.1-7.9 1.1-2.6 0.1-0.4 1.1-7.2 0.6-1-0.2-0.4-0.4-0.3-0.6-0.4-0.6-0.6-0.2-0.6 0.1-0.9 1.3-6.8 0.4-1.1 0.2-0.2 1.2-1 0.5-0.6 3-3 1.1-1.2 0.4-0.7 0.6-3 0-2.7 0.6-1.5 0.5-0.9 0.4-0.6 0.3-0.3 0.8-0.3 1.3-0.7 1.1-0.9 0.6-0.4 0.7-0.1 1 0.1 0.6 0.2 1.1 0.8 0.6 0.2 0.7 0.2 1.3 0 1.1-0.2 0.5-0.3 0.4-0.7 1-3.7 0.5-1.2 0.2-0.6 0-0.5-0.6-0.5-0.2-0.3 0.4-0.4 0.6-0.3 0.3-0.3 0.1-0.4 0.2-1.3 0.6-1.4 0.1-1.1 0.3-1.2 2-1.8 1.2-0.7 0.3-0.2 0.1-0.3 0.1-0.4 1.1-4.2 0.6 0.2 1 1.2 0.6 0.3 0.8 0.2 3.8-0.2 1 0.3 2.6 1.5 1.1 0.4 0.9 0.2 1-0.1 0.6-0.2 0.4-0.3-1.1-2.2-0.1-0.7 0.4-0.6 0.2-0.4 0.4-1.5 0.1-0.3 0.5-0.5 0.6-0.3 0.4-0.4 0-0.3-0.4-1.7-0.2-1.8 0.1-0.8 0.1-0.5 0.3-0.4 1.2-0.6 1-0.4 0.3-0.1 0.5-0.5 0.5-0.7 0.7-1.1 0.2-1 0.2-1.3 0.4-1 0.7-1.2 2.4-3.1 0.5-0.4 0.3-0.2 0.5-0.1 0.6-0.1 5.1 1 0.9-0.1 1.1-0.4 0.4 0.1 0.1 0.3-0.4 1.3-0.2 1.1 0.4 4.7-0.1 2.3 0.1 0.8 0.5 0.1 1.2-0.3 0.6-0.4 0.6-0.6 0.8-1.5 0.5-0.5 1-0.5 0.7-0.2 0.5 0 0.7 0.1 2.2 0.8 0.4 0 1.5-0.2 0.6 0.1 1.1 0.3 3.7 0.5 3.2 0.2 0.9 0.4 0.4 1.1 0.7 1 0.5 0.6 0.7 0.2 0.6 0.1 1.1-0.1 4.3 0.5 2.3-0.4 0.4-0.4 0.1-0.4 0.1-0.5 0-1.3 0.1-0.4 0.4-0.6 0.4-0.1 0.2 0 0.3 0.5 0.3 0.2 0.8 0.2 0.7-0.2 4.6-0.7 0.7-0.4 0.4-0.3 1.7-1.1z"
		  id="AFG1754" name="Kandahar" data-id="AFG1754" data-name="Kandahar">
	</path>
	<path d="M525.1 543.2l1.2 3.8 0.5 3.1 0 0.8-0.2 0.8-0.8 2.2-1.3 2.9-2 3.2-0.3 0.6-0.1 0.9 0.1 1.3 0.2 1.6 0.4 1.6 0.3 0.7 0.4 0.7 0.5 0.6 1.3 1 2.5 1.5 0.5 0.4-0.3 0.6-2.3 2.1-0.3 0.8-0.3 1.7-0.4 0.6-3.6 2-1.2 0.9-0.7 1.1-0.8 0.4-2.8 0.2-2.1-0.3-1 0-1.9 0.9-4.3 4.9-2.2 1.6-3.6-1.8-0.5-0.1-2.6-0.3-1.6 0.1-3.7 1.4-1.1 0.2-1.1 0.1-4.7-0.2-0.4 0-2.2 0.6-0.8 0-0.7-0.2-0.4-0.2-0.1-0.5 0.2-0.6 0.6-1.2 0-0.3-0.2-1.3-1.5-2.7-3.1-1.8-1.1-0.2-0.3 0.1-0.2 0.3-0.4 1-0.4 0.4-0.3-0.1-0.6-0.2-0.8-0.4-0.4-0.4-0.5-0.6-1-2.1-0.3-0.2-1-0.4-1-0.1-0.3-0.4-0.8-2.4-1.9-3.2-3 1.2-1.4 0.8-4.9 1.4-1.5 0.2-5-1.1-0.4 0-0.6-0.2-0.7-0.3-1.1-0.8-1.5-0.9-1.3-1-0.5-0.6-0.6-0.4-0.7-0.3-2.7-0.9-3.1-1.6-1.1-1.1-3.2-2.7-0.8-1-0.3-0.1-0.3 0.1-0.8 0.8-8.8 7.4-0.7 0.3-3.1 0.7-1 0-0.8-0.1-0.6-0.3-0.3 0-1.4 0.2-1.3 0.6-1.3 0.8-0.9 0.7-1.7 1.8-2.8 1.9-0.6-0.1-5.5-5.9-2.3-1.4-0.6-0.7-0.3-0.8-0.2-0.6 0-2 2.3-2.2 0.9-0.7 1.7-0.9 2.6-0.7 0.6-0.4 0.6-0.8 1.5-2.1 0.8-2 0.2-0.6-0.1-2.1-0.4-1.7-0.6-0.5-0.8-0.5-0.3-0.3-0.1-0.4 0-0.5 0.9-2.1 1-1.7 0.1-0.5 0.1-0.4-0.3-1.8-0.1-1.8-0.3-1-0.1-1-0.1-0.4-0.3-0.9-0.1-0.6 0-0.7 0.2-0.9 0.4-0.8 0.4-0.6 1.7-1.8 1.6-1.3 1.1-1.3 0.8-1.5 0.4-0.8 0.9-2.6 0.5-0.6 0.8-0.5 2.5-1.3 0.9-0.7 0.9-1.6 0.7-1.3 0.1-0.4 0.8-3.8 0.1-0.9-0.1-1.4 0-0.4 0.3-0.8 0-0.5-0.1-0.4-0.4-0.4-0.5-0.3-0.6-0.2-0.8-0.6-0.7-0.5-0.4-0.4-0.3-0.6-0.5-0.5-0.5-0.1-1 0.2-0.7-0.3-0.3 0.1-0.3 0.3-0.5 0.6-0.3 0.6-0.8 1.9-1.4 2.3-0.4 0.3-0.5 0.2-1 0-0.5 0-2.2-0.9-0.7-1-0.4-0.9 0-0.4 0.2-0.5 0.8-1.6 0.1-0.9 0-1.2 0-0.6 0.6-0.9 3.4-3.8 0.9-1.2 0.8-1.4 0.6-0.6 3.3-1.6 3.4-0.5 1.1-1 2.1-4 3.1-0.3 1 0.1 0.3 0.5 0 0.4-0.1 0.7-1.6 4.8-0.1 0.6 0.1 0.6 0.5 0.5 0.7-0.1 0.8-0.2 1.7-0.8 0.8-0.5 0.4-0.7 0-0.4-0.2-1 0.2-0.8 0.2-0.3 1.1-1.6 1.1-1 1.2-1 4.5-2.9 0.5-0.4 0.7-0.4 1-0.3 2.1-0.2 1.7 0.1 0.5-0.1 0.4-0.2 1.3-1 0.8-0.1 0.6 0.3 0.7 0.4 0.4 0.2 0.6 0.1 0.5 0.1 0.5-0.1 0.8-0.5 0.8-0.3 0.2-0.4 0.5-0.8 0.3-0.5 0.2-0.8 0.1-0.6 0.3-4.9 2.2 0 0.7-0.5 0.3-0.8 0.9-1.6 1.2-1.7 0.4-0.8 0.3-0.6-0.3-0.7-0.9-1.4-0.4-0.7-0.2-0.6 0-0.7 0.1-0.4 0.3-0.3 0.3-0.2 0.9-0.3 2-0.1 2 0.4 0.6 0.3 0.3 0.3 0.3 0.6 0.2 1.7 0.2 0.8 0.3 0.7 0.7 1.1 0.4 0.5 0.4 0.2 0.2 0 2.2-0.3 1 0 0.4 0.5 0.1 0.5 0 0.6 0 0.4 0.2 0.1 1 0.4 0.4 0.2 0.6 0.6 0.3 0.2 0.4 0 0.5-0.2 2.1 0 0.5-0.1 0.8-0.4 0.4-0.4 0.6-0.8 0.8-1.4 1.1-1.4 0.8-0.4 0.8-0.1 0.3 0 0.1 0.2-0.1 0.8-0.4 0.7-0.1 0.4 0.1 0.2 0.7 0.9 0.3 0.6 0.3 1-0.1 0.9-0.1 0.3-0.6 0.7-0.4 0.2-2.6 1.5-0.3 0.3-0.2 0.4 0.1 0.5 0.4 0.6 0.4 0.3 2.4 1 0.6 0.4 0.3 0.5 0.3 0.6-0.2 0.5-0.5 0.2-1 0.1-0.4 0.3-0.4 0.6-0.2 0.8 0 0.9 0.3 1 1.8 2.7 1.8 1.6 0.1 0.3 0.2 0.8 0.2 0.3 10.5 10.6 0.7 0.5 2.3 0.9 0.2 0.3-0.1 0.2-4.7 5.3 4.4 3.2 1.1 1.4 0.6 2.8 0.4 0.4 2.7 0.5 0.5 0.2 2.2 1.4 0.7 0.7 0.3 0.5 0 0.9-0.2 0.4-0.3 0.5-0.9 1-1.2 1.1-1.2 0.9-1.9 0.9-0.9 0.1-0.7-0.1-1-0.3-0.3 0-0.4 0.2-0.8 0.8-0.4 0.7-0.2 0.9-0.2 1.2 0.1 0.7 0.3 0.5 0.3 0.1 0.5 0.1 2-0.6 0.4-0.1 0.5 0.1 0.4 0.1 0.4 0.4 0.6 0.5 0.7 1 0.3 0.7 0.1 0.7-0.5 3.2 0 0.7 0.1 0.4 0.2 0.3 1.7 1.2 0.4 0.2 4.4 0.6 1.3 0.4 0.9 0.4 1.4 1.1 1.9 1.2 1.1 1 0.8 0.6 0.7 0.3 0.6 0.1 4.6-0.1 0.4-0.2 2.8-1.8z"
		  id="AFG1755" name="Zabul" data-id="AFG1755" data-name="Zabul">
	</path>
	<path d="M570.8 403.4l2.1 1 0.3 0.3 0.3 0.6 0.1 0.5 0.6 1.7 0.6 1.4 0.2 0.7 0.1 0.4-0.2 0.1-0.6 0.2-0.5 0.4-0.3 0.5-0.3 0.7-0.1 0.9 0.1 0.4 0.3 0.4 0.7 0.5 0.1 0.3 0 1 0 0.3 0.5 0.6 0.2 1.8-0.2 3.1 0.1 2.9 0.2 1.5 0.3 1 0.8 1.6 0.6 1.5 0.1 0.8 0 0.7-1.7 3.8-0.4 1.4-0.2 0.1-4.8 4.3-0.8 1.2-0.7 2.3-0.3 1.5-0.5 1.4-0.7 1.4-0.7 1.2-4.2 4.7-6.5 4.9-0.8 1-0.5 1.1-3.2 9.6-2.8 3-0.5 1-0.9 1.4-4.8 4.7-1.5 1.4-0.1 0.3-0.2 0.8-0.1 1.3-0.5 0.9-1.8 1.9-2.8 2.2-1 0.5-1.8 0.7-1.8 0.4-4.2 0.3-0.9 0.2-0.6 0-0.7-0.3-2.8-1.8-6-5.9-3.4 4.1-2.7 5-0.2 0.5-0.1 0.7 1.5 1.7 6.4 4.9 0.6 1.9 0.6 0.9 2 1.3 3.1 3 0.4 0.3 1.4 0.6 0.5 0.5 0.3 0.5 1.3 4.3 0.5 2.6 0.3 0.9 0.1 0.6 0 0.6-0.6 1.5-0.2 0.9 0 0.9 0.5 3.3-0.2 3.1-0.6 0.9-0.2 0.5-0.2 0.7 0.2 0.9 0.9 3.5 0.1 0.7 0 0.7-0.5 2.2-1.8 4.4-2.8 1.8-0.4 0.2-4.6 0.1-0.6-0.1-0.7-0.3-0.8-0.6-1.1-1-1.9-1.2-1.4-1.1-0.9-0.4-1.3-0.4-4.4-0.6-0.4-0.2-1.7-1.2-0.2-0.3-0.1-0.4 0-0.7 0.5-3.2-0.1-0.7-0.3-0.7-0.7-1-0.6-0.5-0.4-0.4-0.4-0.1-0.5-0.1-0.4 0.1-2 0.6-0.5-0.1-0.3-0.1-0.3-0.5-0.1-0.7 0.2-1.2 0.2-0.9 0.4-0.7 0.8-0.8 0.4-0.2 0.3 0 1 0.3 0.7 0.1 0.9-0.1 1.9-0.9 1.2-0.9 1.2-1.1 0.9-1 0.3-0.5 0.2-0.4 0-0.9-0.3-0.5-0.7-0.7-2.2-1.4-0.5-0.2-2.7-0.5-0.4-0.4-0.6-2.8-1.1-1.4-4.4-3.2 4.7-5.3 0.1-0.2-0.2-0.3-2.3-0.9-0.7-0.5-10.5-10.6-0.2-0.3-0.2-0.8-0.1-0.3-1.8-1.6-1.8-2.7-0.3-1 0-0.9 0.2-0.8 0.4-0.6 0.4-0.3 1-0.1 0.5-0.2 0.2-0.5-0.3-0.6-0.3-0.5-0.6-0.4-2.4-1-0.4-0.3-0.4-0.6-0.1-0.5 0.2-0.4 0.3-0.3 2.6-1.5 0.4-0.2 0.6-0.7 0.1-0.3 0.1-0.9-0.3-1-0.3-0.6-0.7-0.9-0.1-0.2 0.1-0.4 0.4-0.7 0.1-0.8-0.1-0.2-0.3 0-0.8 0.1-0.8 0.4-1.1 1.4-0.8 1.4-0.6 0.8-0.4 0.4-0.8 0.4-0.5 0.1-2.1 0-0.5 0.2-0.4 0-0.3-0.2-0.6-0.6-0.4-0.2-1-0.4-0.2-0.1 0-0.4 0-0.6-0.1-0.5-0.4-0.5-1 0-2.2 0.3-0.2 0-0.4-0.2-0.4-0.5-0.7-1.1-0.3-0.7-0.2-0.8-0.2-1.7-0.3-0.6-0.3-0.3-0.6-0.3-2-0.4-2 0.1-0.9 0.3-0.3 0.2-0.3 0.3-0.1 0.4 0 0.7 0.2 0.6 0.4 0.7 0.9 1.4 0.3 0.7-0.3 0.6-0.4 0.8-1.2 1.7-0.9 1.6-0.3 0.8-0.7 0.5-2.2 0-0.8-0.3-3.4-0.8-0.8-0.4-0.6-0.6-0.6-0.8-0.5-1.3-0.3-1.5-0.3-3 0-1.3 0.2-1 0.1-0.4 0-0.6-0.1-2.4 0.3-1.4 0.1-0.9 0.2-0.6 0.3-0.3 2.4-1.8 0.4-0.4 0.5-0.9 0.3-0.4 0.4-0.3 1.2-0.6 0.2-0.3 0.2-0.5 0-0.8-0.1-1.3-0.4-0.9-0.4-0.6-1.2-0.3-7.1 0.4-1.8-0.3-1-2.7 0.5-3.8 0.5-1.3 0.3-0.7 0.1-0.5 0.2-3.4 0.1-1 0.2-0.7 0.3-0.7-0.1-2.2-2.1-6.1 0-1.5 0.1-0.5 0.9-2.4 0.8-0.9 0.3-0.2 0.7-0.5 6.2-2.5 3.9-0.8 1.7 0 0.4 0 6.6-2 1.4-0.7 1.4-1.1 1.1-1.4 0.5-1.1 0.8-1.2 0.6-0.7 4.4-3.8 1.5-1.4 2.4-3.4 0.4-0.5 0.5-0.4 1.5-0.8 0.2-0.4 0.1-0.6-1-3-0.5-1.3-0.3-0.5-1.1-0.6-0.8-0.5-0.2-0.4 0.1-0.4 0.4-0.6 0.7-0.6 0.5-0.7 0.7-2.2 0.4-0.9 0-0.5-0.2-0.5-1.2-1 1.2-3.4 0.3-0.6 0.6-1.3 0.9-1.1 2.8-2.2 3.3 0.5 1.1 0 2.2-0.8 0.3-0.2 0.2-0.3 0.4-1.9 0.3-0.4 0.4-0.5 0.9-0.7 0.6-0.3 0.6-0.2 4.7-1 1.7-0.1 2.2 0.5 2.5 1 2.2 1.5 1.7 1.6 0.8 0.4 0.9 0.2 3.2 0.3 0.9-0.1 1.1-0.2 4.4-1.5 2-1.1 1-0.8 0.8-0.4 0.3-0.2 1-0.7 1.5 0.4 1 0.7 2.1 1.9 0.5 0.9 0.4 0.8 0.7 3.8 0 0.6-0.1 1.2 0 0.7 0.1 0.7 0.3 1 0 0.6 0 0.6-0.1 0.5 0 0.7 0.2 0.9 0.6 2.1 0.1 1.2 0.5 1.4 0.7 0.4 0.8 0.3 4.4 1.7 0.3 0.3 0.7 1.3 3.4 2 1 1.1 0.2 0.4 5.9 6.3 0.5 0.4 0.4 0.2 1 0 0.7-0.2 1.5 0 0.6 1.8 0 1.1-0.6 1.7-0.3 1.4-0.1 0.7 0.2 0.5 0.3 0.4 0.6 0.5 0.9 0.4 2.7 0.6 0.8 0 1.1-0.1 0.6-0.2 5.9-3.5 0.4-0.4 3-3.6 1.6-1.6z"
		  id="AFG1757" name="Ghazni" data-id="AFG1757" data-name="Ghazni">
	</path>
	<path d="M623.9 468.1l-6.5-2.4-2.7-0.3-0.3-2 2.1-2.4 2-2.9 0.2-0.7 0-0.9-0.2-1.9-0.3-0.9-0.4-0.8 0-1 0.8-3.2 0.3-1.7 0.3-0.4 0.9-1 1.2-1.5 0.3-1 0.2-0.9 0.3-0.6 3.8-3.3 1.6-1 0.4-0.5 0.7-1.1 0.4-1 1.6-5.3-1.2-1.2-0.1-1 0.4-1 1.2-2.2 0.3-1 2.2-1.8 1-0.7 1.1-0.5 4.2-1.3 4.8-0.5 0.3 0.1 1.1 0.9 2.1-3.2 0.4-0.3 0.6-0.4 0.6-0.1 1.6-0.6 1.2-0.7 1.6-0.7 1.9-1.2 1.8-0.6 0.4-0.3 1.2-1.3 0.3-0.6 0.2-0.6 0-1.2 1.1 0.1 3.7 1.6 3-0.5 0.6 0.9 0.6 3.3 0.4 1.3 0.3 0.4 0.7 0.6 1.1 0.5 0.6 0.4 0.2 0.5 0 2.1-1.4 5.2-0.1 1.6 0.2 1.6 0.6 1.5 1 1.2 0.5 0.4 1.9 0.6 0.5 0.5 0.6 1.3 0.3 0.6 3.7 4.2 1.1 2.5-0.5 2.8-11.8 9.9-1.3 0.8-1.5-0.1-1.7-0.6-0.8 0.3-2.3 4.4-0.6 0.8-0.8 0.4-2-0.2-0.7 0.1-5.2 3.2-2.9 0.2-4.6-2.3-2.7 0.4-3.3 2.4-1.3 0.3-0.6-0.1-0.6-0.3-0.6-0.2-2.3 0.5-1.4-0.1-2.8 0.4-2.3 1.5-1.8 2.3-0.7 1.5z"
		  id="AFG1758" name="Khost" data-id="AFG1758" data-name="Khost">
	</path>
	<path d="M618.6 448.7l-0.8 3.2 0 1 0.4 0.8 0.3 0.9 0.2 1.9 0 0.9-0.2 0.7-2 2.9-2.1 2.4 0.3 2 2.7 0.3 6.5 2.4-0.7 1.4 1.3 8.9-0.6 2.4-0.5 0.4-1.7 1.4-1.7 2.3-2.4 1.8-0.7 1.1 0.1 1.6 0.3 0.7 0.5 0.5 0.6 0.4 0.6 0.3 0.5 0.3 0.2 0.7 0.1 1.4 0.7 2.7-0.2 1.1-0.8 1.6-3.7 5.5-1.2 1-2.9 1-1.4 0.9-2.1 2.7-1.3 3.1-0.3 3.4 0.7 3.5 1.8 4.6 0.3 1.7-0.1 1.8-0.5 3.5 0 3.5-0.6 3.5 0 1.7 1.3 7.8 2.2 6.2 0.2 1.1-0.4 0.7-3.3 2.5-1.9 2.1-7.6 11.7-1 1.2-1 0.6-1 1.5-2.1 2-2.5 1.8-1.9 0.8-2.5-0.2-2.4 0.8-4.4 2.2-2.7 0.3-1.8-1.3-3.2-4.6-1.8-2.1-0.5-1.2-0.2-3.3-0.5-1-0.9-0.5-3.9-0.7-4-2.3-2.3-0.9-1.6 0-1.6 0.6-3 1.6-1.4 1 0.3 0.8 1.2 0.6 1.5 0.2 4.1-0.1 1.4 0.2 0.6 0.7-0.9 1.1-1.5 0.9-1.2 0.3-2.6-0.4-7.2-2.6-2.8-0.2-2.7 0.1-1.5-0.2-0.9-0.9-0.7-1-1.8-1.5-1.5-0.8-1.8-0.7-1.4 0.1-0.9 1.1-1.5 3.5-0.4 0.8-0.5-0.4-2.5-1.5-1.3-1-0.5-0.6-0.4-0.7-0.3-0.7-0.4-1.6-0.2-1.6-0.1-1.3 0.1-0.9 0.3-0.6 2-3.2 1.3-2.9 0.8-2.2 0.2-0.8 0-0.8-0.5-3.1-1.2-3.8 1.8-4.4 0.5-2.2 0-0.7-0.1-0.7-0.9-3.5-0.2-0.9 0.2-0.7 0.2-0.5 0.6-0.9 0.2-3.1-0.5-3.3 0-0.9 0.2-0.9 0.6-1.5 0-0.6-0.1-0.6-0.3-0.9-0.5-2.6-1.3-4.3-0.3-0.5-0.5-0.5-1.4-0.6-0.4-0.3-3.1-3-2-1.3-0.6-0.9-0.6-1.9-6.4-4.9-1.5-1.7 0.1-0.7 0.2-0.5 2.7-5 3.4-4.1 6 5.9 2.8 1.8 0.7 0.3 0.6 0 0.9-0.2 4.2-0.3 1.8-0.4 1.8-0.7 1-0.5 2.8-2.2 1.8-1.9 0.5-0.9 0.1-1.3 0.2-0.8 0.1-0.3 1.5-1.4 4.8-4.7 0.9-1.4 0.5-1 2.8-3 3.2-9.6 0.5-1.1 0.8-1 6.5-4.9 4.2-4.7 0.7-1.2 0.7-1.4 0.5-1.4 0.3-1.5 0.7-2.3 0.8-1.2 4.8-4.3 0.2-0.1 5-1.9 1.8-0.3 1.3 0.7 0.7 0.2 0.6-0.1 0.5-0.3 0.7 0.1 1.6 0.7 0.6 0.6 0.8 1.4 1.1 1.5 0.2 0.5 0.1 0.5 0 0.9-0.3 3.9 0.1 1.7 0.6 4.9-0.1 0.8 0 0.7 0.2 0.9 0.4 1.9 0.3 0.6 0.2 0 0.7-0.1 1-0.4 1-0.6 1.9-1.8 2.8-1.7 3.4-1.5 2.4-1.5 0.5-0.6 0.1-0.2-0.2-0.9 0-0.5 0.4-0.3 0.4 0 0.7 0.3 1.1 0.9 2.1 1.6 1.4 0.3 1.3-0.2 3.1-1.1 1.1-0.1 0.8 0.4 1.4 0.4z"
		  id="AFG1759" name="Paktika" data-id="AFG1759" data-name="Paktika">
	</path>
	<path d="M741.1 213.9l-1.1 0.9-0.7 0.9-0.7 1-1 1.8-0.6 1-0.5 0.6-0.9 0.7-0.4 0.7-0.3 0.9-0.6 3.2-0.1 1.6-0.2 0.9-0.4 0.9-2 3.1-0.6 1.1-0.3 0.5-0.4 0.3-1 0.5-1 0.4-0.4 0.3-0.4 0.5-0.3 0.8-0.2 1.3 0.2 1 0.3 0.5 1.6 0.9 0.5 0.4 0.4 0.5 0.3 0.5 0 0.6-0.4 0.7-2 1.8-1.3 2.4-2.6 1.1-1.3-0.1-0.5-0.1-0.5-0.1-0.4 0.2-0.4 0.4-0.6 1.5-0.2 0.7 0.2 1.1 0 0.5-0.1 1 0.1 0.4 0.4 0.9 0.2 1.5 0.3 1.1 0 0.6-0.1 0.6-0.1 0.5-0.9 1.3-0.1 0.4-0.6 0.1-0.9 0-3.5-0.9-2.4 0.4-2-0.8-1.1-1.1-1.4-1.9-0.4-0.3-0.6 0.1-0.8 0.5-1.2 1.6-0.3 0.8 0 0.7 0 0.5 0 0.4-0.3 0.9-0.5 0.5-0.6 0.6-1.5 0.8-1.9 0.6-2.3-0.3-0.4-1.1-0.1-1.2-0.1-0.8 0.1-1.3 0.1-0.8 0.4-1.4 0.7-1.8 0.1-0.5 0.1-0.7-0.1-0.7-0.3-0.6-0.5-0.7-3-3.4-0.3-0.6-0.1-0.5-0.1-1.2-0.4-1-0.5-0.5-0.7-0.4-3.2-1.1-1.9-1-0.8-0.2-0.9 0.1-1.3 0.6-0.7 0.5-1.7 1.5-1.7 0.5-4.3-0.8 0.5-1.1 0-1 0.5-4.2 0.3-1.5 0.3-3.7 1.3-3.9 0.7-0.6 0.5-0.7 0.5-0.9 0.4-0.5 1.6-0.6 3-2 0.8-0.7 1.3-1.6 0.4-0.4 3.5-1.8 0.4-0.5 0.1-0.6-0.4-1.1-1.5-2.1-0.3-0.6-0.2-0.7 0-0.6 0.4-0.8 0.5-0.9 0.1-0.4 0-0.8 0-0.7 0.7-2.4 0.3-1.5 0.4-0.9 0.8-1.2 0.2-2.5-0.4-9.1-0.6-0.8-0.3-0.3-0.5-0.3-0.8-0.3-2.4-0.2-2.6 0.2-0.5 0-4.5-1.5-2.3-0.4-0.5 0-1.5 0.3-0.7-0.4-1-0.9-4.9-5.8-3.9-3-2.7-1.5-0.4-0.4-0.2-0.7 0.2-3.1 0-0.8-0.3-0.9-0.9-2.2-0.3-2.2-0.5-1.3-0.4-2 0-3.2 0.4-3.8-0.1-18.9-0.1-0.7 0.3-0.4 0.9-0.7 0.6-0.3 0.4-0.3 0.1-0.3 0.2-1.3 1-1.7 1.9-0.7 0.8-0.7 0.3-1.3 1.7-2.8-1.7-2.8-1.1-1.4-2.6-1.9-0.5-0.8-0.4-1.1-0.1-1.7 0.2-2 0-0.9-0.4-1.2-1.6-4.1-0.1-2.4 0.4-5 0.5-2.2 0.4-0.7 0.8-1.1 0.3-0.4 0.2-0.3-0.2-0.2-0.5-0.3-0.6-0.2-0.6 0-0.4-0.1-0.3-1-0.2-1.7-0.2-9 0.4-1.7 0-0.1 0.2 0.2 0.6 0.3 2.2 0.3-0.4-0.6 1.9 0.3 2 0.8 2.1 0.3 2-0.8 2.4-3 0.5-0.3 0.2-0.7 1-2.6 1.4-0.1 0.3 0.1 0.5-0.5 0.4-0.7 0-0.6 0-0.8-0.1-0.7 0.7-0.5 0.8-1.3 0.2-1.1 0.2-0.7 0.2-0.8-0.1-1.2-0.7-2.6-0.2-1.2 0.4-1-0.6-0.7-0.7-0.9-0.4-1.1-0.2-1.3-0.5-0.7-2.3-0.7-0.8-0.4-1.1-1.8-1-2.6-0.3-2.7 0.8-2.2 1.4 1.1 1.5 0.3 1.7-0.2 1.6-0.6-0.6-0.8-0.2-0.7 0-0.7 0.3-0.8 0.4-0.3 0.9-0.2 0.7-0.3 0.4-0.8 0.3-0.4 1.7-0.9 0.6-0.5 3.1-4.1 3-3.2 0.8-0.5 2.3-1.1 0.7-0.7 0.9-1.5 1.8-4.8 2-4.1 0.7-2.1 0.8-0.5 1-0.3 0.7-0.3 0.9-3 0-0.8-0.1-0.9 0-0.9 0.3-0.8 0.7-0.4 1.6 0.1 0.6-0.3 2.4-1.9 0.6-1-1.4-1.1 0-0.6 1.3-0.8 4.1-0.4 0.8-1.5 0.5-0.6 1.1-0.3 2.2 0 0.6 0.1 1.2 0.4 0.6 0.1 0.4-0.3 0.3-0.4 0.4-0.3 0.8-0.2 2.9 1.4 1.6 0.4 0.8-0.9-0.3-2 0.5-0.6 1.6-0.1 0.9 0.2 0.8 0.5 0.7 0.6 0.7 0.8 0.4 0.7 0.6 1.6 0.5 0.8 0.7 0.6 0.5-0.1 0.5-0.2 0.9-0.1 0.8 0.3 2 0.9 2.6 2 4.3 4.5 5.7 2.4 2.4 1.6 1.7 2.6 0.4 3.9-0.4 2-1.2 3.8-0.5 2.6-1.3 2.5-0.9 3.6-2.1 3.9-0.4 2.2-0.7 2-0.1 1 0.2 1.1 0.4 0.2 0.5-0.2 0.8 0.1 2.6 2.2 1.5 0.6 1.4-0.8 1.2-0.9 8.5-2.9 2.5 0.1 2 1.4 2.2 2.7-0.6 0.6 0.3 1 0.1 1.9-0.1 2.1-0.3 1.6-1 1.6-2.6 1.6-0.6 1.6 0.1 0.8 0.7 1.9 0.1 1-0.1 0.8-0.8 2.7-0.3 2.7-0.2 0.9-0.3 0.8-0.9 1.1-0.2 0.5-0.3 3.9 1 7-0.7 3.5-0.8 2-0.2 1.2 0.5 3.4 0.1 3.6-0.1 1.9-0.5 1.1 0 2.4-2.6 4.4 0.3 2.1-0.5 0.8-0.4 1.3-0.5 3.6-0.2 5.2 0.2 1.1 0.4 0.9 1.2 1.9 0.2 1 0 3.6 0.2 1.8 0.6 1.6 4 6.4 0.7 1.7 0.4 4 0.5 1.8 0.8 1.6 0.9 1.6 2.4 2.4 2.9 1.6 3.2 0.7 3.4 0 3.4-0.7 2.7-1.1 20.1-15 1.8-2 2.4-1.4 0.6-0.6 1-1.6 0.7-0.7 2.7-1.9 7-2.9 3.1-0.6 4.8 0.9 2.4-1.2 10.3-1.6 0.6-0.8 0.4-1.7 2.9-4.5 3.2-6.8 2.1-2.8 2.8-1.7 3.2-0.6 1.7-0.6 1.6-1.9 4.9-3 5-0.5 1.4-0.9 0.8-1.2 1.2-2.6 1.1-1.3 2.6-2.1 0.6-0.2 1.5 0.5 0.8-0.3 3.3-3.7 1.1-0.8 1.4-0.5 1.8-0.1 1.6 0.2 1.2 0.7 1.1 0.3 4.3-2.4 3.1-0.1 8.3 3.1 4.8 1.3 3-0.1 2.5 0.3-0.4 2.2-0.1 0.8 0 3.6-0.5 1.3-1.2 1.4-1.2 1-1 0.5-2.6 0.3-1.5 0.5-1.4 1.3-0.9 1.7 0.3 1.8 1.1 0.7 2.9-1 1.4 0.1 0.6 0.5 1 1.4 0.4 0.4 0.8-0.1 1.1-0.9 0.7-0.2 1.6 0.1 1 0.3 1-0.2 2.6-2.5 1.4-0.4 3-0.4 3.9-1.8 1.5-0.3 5.2-1.9 7.7-1.6 1.7-0.7 1.3-1.5 0.1-3 1.1-1.2 1.8 0 2 0.5 1.7-0.2 0.8-2.3 0.4 1.1 0.8-0.6 0.8 0 0.7 0.4 1 1.7 0.7 0.3 0.8 0 2 0.4 1.2-0.3 1.3-0.1 1.5 0.6 2.5 0.8 0.6 0.1 0.6 0 7-0.4 2-1.2 8.9 5.5 2 2.1 3.1 5.5 2.1 1.1-5.5 1.4-1.3 0.1-0.8-0.5-2.7-6-0.4-0.6-1.1-0.2-0.9 0.6-0.7 0.9-1.6 1.5-0.3 0.2-1.4 0.1-0.3 0.5-0.3 0.5-0.9 0.9-0.4 0.7-0.6 0.2-0.4-0.2-0.9-0.9-0.4-0.2-1 0.1-3 0.8-2.3 0.1-0.9 0.5-0.7 1.4-0.6 1.7-0.8 1.1-1 0.6-1.5 0.2-2.6-0.3-1 0.4-0.2 1.7 1.2 1.8 2.2 1.7 4.3 2.1 1.2 1.5 0.8 1.6 1 1.5 1.6 0.7 0.3 0.6 0.1 0.6 0 0.6-0.3 0.7-0.5 2.7-1.1 0.3-1.4-1.2-1.2-1.8-0.5-0.5-1.4-0.4-1.4 0.1-2.9 0.8-1.8 1.4-5.8 3.7-3.4 2.8-1.6 0.6-4.6-0.5-1.1 0.2-1 0.8-0.5 1.2-0.3 3-0.7 0.9-4.1 1.3-2 0-2-0.8-2.1-0.5-5.7-3.6-2.1-0.9-4.3-0.8-9.2-0.4-9 1.6-2.3-0.4-2.1-0.3-4.6 0.6-3.3-0.2-3.5 1.2-1 0.1-1-0.1-2-0.6-2.2-0.2-10.4 1.1-1.1 0.4-1.6 1.2-0.9 0.4-0.9-0.1-2.1-0.8-1.8 0.4-1.6 0.9-2.1 0.5-6.1 0.4-5.8-0.9-4.6 0.3-4.4 1.1-3.4 1.7-4.3 3.7-1.5 0.4-3.1-0.2-2.9 0.9-3.1 0.2-6.1 1.4-3 1.3-1.1 0.8-0.3 1.2 1 1.6 0.5 1.4-1.2 0.7-4 0.6-1.8 0.6-0.8 0.4-0.6 0.8 0.1 0.7 0.3 0.7-0.1 0.8-1.1 1.1-2.8 0.7-1.5 0.8-1.1 1.1-3.3 1.9-0.9 0.8-0.9 0.9-0.9 0.8-1.1 0.4-4.5 0.3-1.4 0.9 0.1 2.8 1.2 2.3 0.2 1.2-0.8 0.9-1.1 0.4-1.1 0.1-1-0.4-2.1-2.2-4-2.7-1.4-0.6-1.3 0.1-0.6 0.8-0.9 2.6-0.5 1.4-0.6 0.9-1.7 1.8-0.4 1.3 0.7 1.3 0.4 1.1-1.3 0.8-1.7 0.3-1.3 0.5-1.2 0.8-5.3 5.9-1.4 1.1-4.3 1.6-0.4 0.5-0.3 1.9-0.5 0.8-0.7 0.5-2.1 1-2.7 1.7-0.4 0.7-0.3 1.8-0.4 0.8-2.2 2.3-0.7 1.3 0.3 1.3z"
		  id="AFG1760" name="Badakhshan" data-id="AFG1760" data-name="Badakhshan">
	</path>
	<path d="M770.5 262.3l-0.5 0.8-0.5 0.6-0.7 0.6-1.5 1.1-0.9 0.4-1.4 0.4-0.6 0.4-0.5 0.9-0.4 0.5-1.7 0.8-0.3 0.4-0.2 0.6-0.6 2.3-0.6 0.5-3 0.3-1.3-0.3-1-0.9-1 0.1-8.2 3.2-1.8 1.2-1 1.5-0.8 1.4-0.4 1.4 0 3-1.5 2-0.4 0.6-0.4 0.9-0.5 3-0.7 1.7-0.3 0.7-0.7 0.5-0.6-1.1-0.3-0.4-0.3-0.2-0.7 0.3-0.6 0.4-2.8 3.4-2.1-0.6-0.6-0.2-0.9-0.2-1.1 0-4.7 0.8-0.8 0.3-0.8 0.3-1 0.1-0.6 0-3.9-1.3-3.2-0.5-1.1-0.4-1.3-0.6-2.1-1.4-2.4-1.1-1.6 4.8-0.5 1.1-3.2 5.8-1.3 1.8-3.3 2.8-0.8 0.4-3.7 1.6-3.6 1-1 0-0.9-0.2-3.3-2-3.2-0.5-0.8-0.5-1.4-3.1-1.5-1.7-1.8-2.4-1-3.6-1.8-1.8-5.6-1-2.4 0.1-0.6-0.5-0.7-1.4-0.2-3.4-0.2-0.8-0.5-0.9-1.8-2.9-0.4-1.5 0.2-4.5-0.3-0.9-0.7-1.3-2.8-2.4 0.1-1.1 0.6-0.9 0.7-0.7 1.2-0.8 5.2-2.7 1.6-2.2 0.3-0.9 1.2-2 0.3-0.1 0.4 0.2 0.7 0.2 1 0 1.6-0.5 1.1-0.9 0.9-1 0.6-1.1 0.4-0.9 0.1-0.6-0.2-0.4-0.4-0.8 0-0.9 0.1-0.5 0.4-0.3 1.7-1 0.6-0.8 0.3-1.1 0.3-4 0.8-2.1 4.3 0.8 1.7-0.5 1.7-1.5 0.7-0.5 1.3-0.6 0.9-0.1 0.8 0.2 1.9 1 3.2 1.1 0.7 0.4 0.5 0.5 0.4 1 0.1 1.2 0.1 0.5 0.3 0.6 3 3.4 0.5 0.7 0.3 0.6 0.1 0.7-0.1 0.7-0.1 0.5-0.7 1.8-0.4 1.4-0.1 0.8-0.1 1.3 0.1 0.8 0.1 1.2 0.4 1.1 2.3 0.3 1.9-0.6 1.5-0.8 0.6-0.6 0.5-0.5 0.3-0.9 0-0.4 0-0.5 0-0.7 0.3-0.8 1.2-1.6 0.8-0.5 0.6-0.1 0.4 0.3 1.4 1.9 1.1 1.1 2 0.8 2.4-0.4 3.5 0.9 0.9 0 0.6-0.1 0.1-0.4 0.9-1.3 0.1-0.5 0.1-0.6 0-0.6-0.3-1.1-0.2-1.5-0.4-0.9-0.1-0.4 0.1-1 0-0.5-0.2-1.1 0.2-0.7 0.6-1.5 0.4-0.4 0.4-0.2 0.5 0.1 0.5 0.1 1.3 0.1 2.6-1.1 1.3-2.4 2-1.8 0.4-0.7 0-0.6-0.3-0.5-0.4-0.5-0.5-0.4-1.6-0.9-0.3-0.5-0.2-1 0.2-1.3 0.3-0.8 0.4-0.5 0.4-0.3 1-0.4 1-0.5 0.4-0.3 0.3-0.5 0.6-1.1 2-3.1 0.4-0.9 0.2-0.9 0.1-1.6 0.6-3.2 0.3-0.9 0.4-0.7 0.9-0.7 0.5-0.6 0.6-1 1-1.8 0.7-1 0.7-0.9 1.1-0.9 0.1 0.3 0.7 0.7 2.5 1.4 1 0.7 1.8 1.9 1.8 0.8 2 0.5 2 0.8 1 1.2 0.3 2.8 0.8 1.3 3.1 2.3 1 1.3 2.3 4.2 0.5 1.2 0 0.9 0 0.7 0 0.8 0.3 1 0.4 0.6 1 0.8 0.5 0.4 0.8 1.5 0.4 1.6-0.4 1.5-1.3 1.6-0.9 1.7 0.7 1.5 1.4 1.1 3.8 1.9 1.1 0.9 0.7 1.2-0.1 1.7-0.5 1.5-0.3 1.6 0.5 1.9 0.4 0.6z"
		  id="AFG1761" name="Nuristan" data-id="AFG1761" data-name="Nuristan">
	</path>
	<path d="M728.2 339.2l-8.5 0.7-2.6-0.4-3.7 1.6-1.9 0.2-0.7-2.1 0.7-0.9 0.9-0.5 0.4-0.3 0.2-0.4 0.1-0.3-0.3-0.4-0.6-0.3-1.5-0.4-0.7 0-0.7 0.1-0.7 0.4-0.3 0.1-0.8-0.5-2.2-2.9-0.4-1.5 0-1.4 0.3-2 0.4-1.2 0.4-1 0.2-0.7 0.1-1.3 0-0.9-0.4-1.1-0.2-0.6-1.1-1.5-1.9-1.1 0.3-2.7 0-3.3-0.2-1.6-0.4-1.6-0.8-1.6-0.4-1-0.1-0.8 0.1-0.8-0.2-0.9-0.3-1-0.8-1.1 3.2-5.8 0.5-1.1 1.6-4.8 2.4 1.1 2.1 1.4 1.3 0.6 1.1 0.4 3.2 0.5 3.9 1.3 0.6 0 1-0.1 0.8-0.3 0.8-0.3 4.7-0.8 1.1 0 0.9 0.2 0.6 0.2 2.1 0.6 2.8-3.4 0.6-0.4 0.7-0.3 0.3 0.2 0.3 0.4 0.6 1.1 0.7-0.5 0.3-0.7 0.7-1.7 0.5-3 0.4-0.9 0.4-0.6 1.5-2 0-3 0.4-1.4 0.8-1.4 1-1.5 1.8-1.2 8.2-3.2 1-0.1 1 0.9 1.3 0.3 3-0.3 0.6-0.5 0.6-2.3 0.2-0.6 0.3-0.4 1.7-0.8 0.4-0.5 0.5-0.9 0.6-0.4 1.4-0.4 0.9-0.4 1.5-1.1 0.7-0.6 0.5-0.6 0.5-0.8 0.5 0.7 0.9 1.1 0.6 1.1-0.1 1.7-0.7 1.2-3.4 3-2.1 2.8-0.1 2.3 1.2 2.1 3.8 4.4 2.1 1.8 0.3 1.1-0.6 1.7-1.7 2.7-4.8 3.3-1.8 2.3-0.1 3.7 0.4 0.8-0.1 0.8-0.5 0.7-0.8 0.6-0.5 0.9-0.6 1.9-0.5 0.9-0.7 0.6-9.3 3.8-2.5 2-1.3 2.6-1 2.8-3.7 5.3-0.9 0.9-2.7 1.4-4.9 4-0.7 1-0.1 1.3 0.5 1.9 0.3 1.7-0.3 2.1-0.7 1.7-1.3 0.6-2.8-0.5-1.4 0.1-0.2 0z"
		  id="AFG1762" name="Kunar" data-id="AFG1762" data-name="Kunar">
	</path>
	<path d="M612.2 120.1l0.1 0.3 1.9 2.2 0.1 0.9-1.3 1.7-0.2 0.4-0.4 2 0 0.8 0.1 0.8 0.2 1.2 0 0.7-0.8 12.2-0.8 2.4-0.8 0.9-0.4 0.2-3.2 0.4-0.9 1-0.2 0.9 0.3 1.8-0.1 1.8-0.1 0.6-0.4 0.6-0.2 0.4 0.1 0.5 0.7 1.1 0.2 0.8 0.1 0.7 0 0.7-0.1 0.8 0.1 0.3 0.2 0.1 0.5 0.1 0.4 0.4 0.4 0.7 0.8 1.8 0.1 0.8-0.1 0.7-1.3 2.9-0.5 1.9-0.3 0.6-0.6 0.8-1.9 1.7-0.3 0.4-0.2 0.5-0.5 0.4-0.8 0.3-1.1 1 0 0.7 0.6 0.8 0.7 1.2 0.7 3.1 0.9 1.5 0.6 0.8 0.2 0.7 0.1 0.7-0.1 0.9 0 1.2 0.3 0.9 0.6 1.2 0.3 0.9 0.2 0.7 0 1.4-1-1.4-0.6-0.9-0.5-0.4-0.9-0.4-2.6-0.7-1.3-0.2-2.8-1-1.3-0.9-2-1.8-0.8-1.1-0.5-0.5-0.8-0.6-0.3-0.5-0.8-0.4-5-0.9-0.8 0.2-1.9 1.2-0.5 0.2-0.5 0.1-0.6-0.1-0.7-0.5-3.1-2.4-4.4-5.5-0.8-2-4.3 0.7-1.1 0.4-0.7 0.1-0.8-0.1-5.9-1.6-11.3-0.8-3.7 0.2-0.6-0.2-1.7-1.1-3.4-0.7-2.3-0.7-1.2-1.2-0.5-2.1-0.5-0.9-0.9-1.3-1.4-1.3-1.1-0.9-0.5-0.5-1.8-3.2-3.8-9.2-0.1-0.7-0.1-5-0.7-3.6 0-0.1 0.6 0 0.8-0.3 0.7-0.5 4.6-4 0.8-0.5 1.3-0.5 1.1-1.2 1.3-1.1 1.8-0.2 2.9 0.9 1.7 0.1 0.7-1.3-0.5-3.6 0-1.8 0.5-1.4 1.3-1 1.3 0.1 1.4 0.5 1.4 0.4 1.8-0.2 1.3-0.7 0.5-1.3-1-2 4.3-0.4 3.3-0.7 0.7-0.1 0.6-0.4 1-1.6 0.3-0.4 1.4-0.2 2.6-0.8 1.2-0.2 0.3-0.7 0.4-1.4 0.8-1.2 1.6-0.3-0.4-1-0.2-0.4-0.3-0.4 0.7-0.9 1.3 0 2.7 0.4 1.4-0.2 0.9 0.1 0.8 0.4 2.6 1.6 0.8 0.1 0.3-0.8-0.1-1.9-0.9-2.6 0.3-1 1.5-0.5 1.5 0.4 0.7 1.1 0.7 1.4 0.9 1.2 1 0.5 0.8-0.2 0.3-0.8-0.2-1.3-0.3-0.4-1.2-0.8-0.4-0.6-0.4-1 0.2-0.3 0.7 0.2 4.7 0.6 1.4 0.8 1.4 1.2 1 1.6 1.1 3.2 1.3 1.2 1.6 1.1 1.3 1 1.2 3.1 0.7 0.7 1.5 1.1 0.3 0.2 6.6 4.4 1.4-0.1 1.4-0.7 1.6-0.3z"
		  id="AFG1763" name="Kunduz" data-id="AFG1763" data-name="Kunduz">
	</path>
	<path d="M728.2 339.2l-1 0.5-0.8 1.5-0.1 1.8 0.4 1.9 0.6 1.6 1.5 2.2 1.9 2.4 2.2 2 4.9 2.8 0.3 2.1-2 5.8 0 1.6 0.6 2.9 0.2 1.7-0.1 2-0.4 1.1-1.9 2.2-0.8 1.7 0.1 1.4 0.2 1.3-0.3 1.6-1.1 1-3.4 0.7-1.4 0.5-0.8 1.2-0.8 0.7-1 0.4-1.3-0.2-1.9-0.6-0.7 0.2-0.3 1.1-1.2 2.5-4.9 0.9-9.4-0.1-9.3 1.4-2.1-0.1-5.7-1.3-5.6-0.2-1.3-0.4-2.3-1.2-4-0.4-14.9-5.2-2.4-0.2-3.7 0.6-0.7 0.2-0.5-0.7-1.3-1.8-0.7-2.9-0.7-1.2-0.6-0.6-1-1.4-0.4-1.2-0.3-0.4-0.7-0.8-0.4-1-0.7-1.2-0.3-0.9-0.2-0.3-0.6-0.5-0.9-0.5-0.4-0.6-0.4-0.4-0.6-0.3-0.3-0.3-0.5-0.7-0.3-0.2-0.5-0.2-0.7 0.2-1.5 0.5-8.1 3.8-5.1 3.6-1.4-0.3-0.4-3 0.1-0.6 0.6-0.7 1.1-0.6 3.5-2.6 4.3-4.4 2.7-3.7 0.5-0.8 0.2-0.7 0-0.5-0.3-1.2-0.1-0.6 0.1-0.2 2.3-0.6 8-0.9 2.1 0.7 7.5-0.9 3.9-0.8 4 0.9 1.2-0.2 4.1-1.9 7.4-1.3 3.9-1.1 3.5-1.8 0.8-0.8 2-1.4 1.7-3.7 0.2-1.2 0-1.5-1.1-5.5 1.7-1.5 3.7-1.4 0.7-0.5 0.5-3.4 0.5-1 0.7-0.9 2.2-1.7 2.4-1.3 2.1-0.6 1.9 1.1 1.1 1.5 0.2 0.6 0.4 1.1 0 0.9-0.1 1.3-0.2 0.7-0.4 1-0.4 1.2-0.3 2 0 1.4 0.4 1.5 2.2 2.9 0.8 0.5 0.3-0.1 0.7-0.4 0.7-0.1 0.7 0 1.5 0.4 0.6 0.3 0.3 0.4-0.1 0.3-0.2 0.4-0.4 0.3-0.9 0.5-0.7 0.9 0.7 2.1 1.9-0.2 3.7-1.6 2.6 0.4 8.5-0.7z"
		  id="AFG1764" name="Nangarhar" data-id="AFG1764" data-name="Nangarhar">
	</path>
	<path d="M660.4 82.2l0 0.1-0.4 1.7 0.2 9 0.2 1.7 0.3 1 0.4 0.1 0.6 0 0.6 0.2 0.5 0.3 0.2 0.2-0.2 0.3-0.3 0.4-0.8 1.1-0.4 0.7-0.5 2.2-0.4 5 0.1 2.4 1.6 4.1 0.4 1.2 0 0.9-0.2 2 0.1 1.7 0.4 1.1 0.5 0.8 2.6 1.9 1.1 1.4 1.7 2.8-1.7 2.8-0.3 1.3-0.8 0.7-1.9 0.7-1 1.7-0.2 1.3-0.1 0.3-0.4 0.3-0.6 0.3-0.9 0.7-0.3 0.4 0.1 0.7 0.1 18.9-0.4 3.8 0 3.2 0.4 2 0.5 1.3 0.3 2.2 0.9 2.2 0.3 0.9 0 0.8-0.2 3.1 0.2 0.7 0.4 0.4 2.7 1.5 3.9 3 4.9 5.8 1 0.9 0.7 0.4 1.5-0.3 0.5 0 2.3 0.4 4.5 1.5 0.5 0 2.6-0.2 2.4 0.2 0.8 0.3 0.5 0.3 0.3 0.3 0.6 0.8 0.4 9.1-0.2 2.5-0.8 1.2-0.4 0.9-0.3 1.5-0.7 2.4 0 0.7 0 0.8-0.1 0.4-0.5 0.9-0.4 0.8 0 0.6 0.2 0.7 0.3 0.6 1.5 2.1 0.4 1.1-0.1 0.6-0.4 0.5-3.5 1.8-0.4 0.4-1.3 1.6-0.8 0.7-3 2-1.6 0.6-0.4 0.5-0.5 0.9-0.5 0.7-0.7 0.6-4.3-1.9-2-1.6-0.4-0.1 0 0.3 0.1 0.7 0 0.7-0.4 1-0.7 1-0.9 1-0.9 0.8-1.6 0.8-4.8 0.5-2.8 1.2-1.2 0.6-0.4-0.1-0.1-0.8-0.3-0.3-0.9-0.3-0.4-6.6-0.3-0.8-0.5-0.8-1-1.3-0.4-0.7-0.2-0.6 0.1-0.6-0.1-0.4-0.4-0.6-0.6-0.5-0.4-0.5-0.7-1.6-0.1-0.5 0-0.7-0.2-0.6-1.2-2.4-1.5-1.7-4.1-3.9-0.7-9.8-0.9-1.7-0.9-0.2-1.7 0.1-0.5-0.1-0.6-0.5-0.3-0.5-0.2-0.8-0.2-1.3 0-1.7-0.1-0.9-0.2-1-1.1-3.2-0.7-0.2-1.7 1.5-2.2 1.3-4.2 1.6-1.1 0.2-1.1 0.3-0.9 0.6-4.5 3.6-3 0.9-2.4-0.1-0.6 0.1-0.5 0.2-0.4 0.4-0.4-0.2-0.3-0.4-0.3-0.3-0.6 0-0.7 0.4-0.6 0.5-0.2 0.1-0.2-0.1-0.4-0.4-0.6-1.1-0.4-0.8-0.4-1.2-0.2-0.4-0.4-0.3-0.9-0.1-1.2-0.3-0.8-1.2 0-1.4-0.2-0.7-0.3-0.9-0.6-1.2-0.3-0.9 0-1.2 0.1-0.9-0.1-0.7-0.2-0.7-0.6-0.8-0.9-1.5-0.7-3.1-0.7-1.2-0.6-0.8 0-0.7 1.1-1 0.8-0.3 0.5-0.4 0.2-0.5 0.3-0.4 1.9-1.7 0.6-0.8 0.3-0.6 0.5-1.9 1.3-2.9 0.1-0.7-0.1-0.8-0.8-1.8-0.4-0.7-0.4-0.4-0.5-0.1-0.2-0.1-0.1-0.3 0.1-0.8 0-0.7-0.1-0.7-0.2-0.8-0.7-1.1-0.1-0.5 0.2-0.4 0.4-0.6 0.1-0.6 0.1-1.8-0.3-1.8 0.2-0.9 0.9-1 3.2-0.4 0.4-0.2 0.8-0.9 0.8-2.4 0.8-12.2 0-0.7-0.2-1.2-0.1-0.8 0-0.8 0.4-2 0.2-0.4 1.3-1.7-0.1-0.9-1.9-2.2-0.1-0.3 1-0.4 0.8-0.7 1.1-1.3 2.8-1.8 1.1-1.1 2.4-4 0.2-1.1-1.2-0.3-1.2-0.5 0.5-2-0.5-0.7-0.5-3-0.6-1.3-0.3-0.6-0.2-0.8-0.1-0.8-0.1-0.8 0.1-0.3 0.4-0.2 0-0.4-0.2-0.4-0.7-0.2-0.1-0.3 0-3.3 0.1-1.7 0.4-1.3 0.4-0.5 1-0.7 0.5-0.5 0.3-0.5 0.4-1 0.3-0.4 3-2.3 1.5-1.5 1.2-3.6 1.4-0.7 9.5 0.9 1.5-0.3 2.9-1.3 1.7-0.2 0.6 0.1 1.5 0.5 0.5 0.3 0.8 0.4 0.7-0.3 0.7-0.7 0.7-0.3 1.4-0.4 2.9-1.5 1.6 0.1 1.2 1 0.6 1.4 0.8 1.3 1.4 0.5 0.9 0.2 0.4 0.4 0.3 0.6 0.4 0.4z"
		  id="AFG1765" name="Takhar" data-id="AFG1765" data-name="Takhar">
	</path>
	<path d="M606.1 191l0.8 1.2 1.2 0.3 0.9 0.1 0.4 0.3 0.2 0.4 0.4 1.2 0.4 0.8 0.6 1.1 0.4 0.4 0.2 0.1 0.2-0.1 0.6-0.5 0.7-0.4 0.6 0 0.3 0.3 0.3 0.4 0.4 0.2 0.4-0.4 0.5-0.2 0.6-0.1 2.4 0.1 3-0.9 4.5-3.6 0.9-0.6 1.1-0.3 1.1-0.2 4.2-1.6 2.2-1.3 1.7-1.5 0.7 0.2 1.1 3.2 0.2 1 0.1 0.9 0 1.7 0.2 1.3 0.2 0.8 0.3 0.5 0.6 0.5 0.5 0.1 1.7-0.1 0.9 0.2 0.9 1.7 0.7 9.8 4.1 3.9 1.5 1.7 1.2 2.4 0.2 0.6 0 0.7 0.1 0.5 0.7 1.6 0.4 0.5 0.6 0.5 0.4 0.6 0.1 0.4-0.1 0.6 0.2 0.6 0.4 0.7 1 1.3 0.5 0.8 0.3 0.8 0.4 6.6-0.9 2.2-0.8 0.8-2.1 1-0.6 0.6-1.3 2.6-0.6 0.8-0.6 0.5-1 0.3-1 0.1-1.1 0-1.8 2.7-0.6 1.8-0.3 1.3-0.2 1.8-0.8 4.4-0.4 1-0.6 1-3.5 1-8.7 5.7-1.2 0.6-3.7-0.6-3.2 0.4-0.7 0.3-0.5 0.3-0.6 1.1-1.9 1.9-1.9-0.2-1 0.4-0.9 0.6-0.6 0.3-2.2-0.1-3.1 1-1.1-1.7-0.4-0.3-0.5 0.2-0.9 0-2.5-0.6-1.6 1.4-0.7 1-0.5 0.5-0.5 0.2-0.5 0.2-3.5 1.6-0.7 0.5-0.6 0.5-1.2 2.2-0.6 1-0.5 0.5-0.4 0.3-3 0.8-0.6 0.4-0.3 0.4-0.5 1-3.1 2.1-0.5 0.2-0.7 0-2.9-2-2.7 0.8-1 0.7-0.7 0.7-0.7 1.2-1.1 1.5-1.1 1.9-0.5 0.6-0.1 0.1-5.2 3.9-0.9 0.6-3.2 0.7-0.4 0.3-0.2 0.3 0.1 0.7 0.4 0.8 0.2 0.7-0.3 0.9-1.9 1.1-1.4 0.3-3.6 0.2-4.2-0.4-4.6 0.6-1-0.1-5.1-1.4-0.5 0-0.2 0.3-0.1 0.7-0.3 0.4-0.4 0.6-0.8 0.6-1 0.6-1.9 0.7-1.5 0.7-0.5 0.8-0.5 0.2-0.6 0-0.4-0.1-2.4-2.1-0.4-0.2-0.5-0.2-0.5 0.1-1.6 0.3-0.5 0.1-0.4 0-0.3-0.2-0.7-0.6-2.1-0.7-0.4-0.2-0.2-0.4-0.2-0.7-0.3-2.8 0-1.6 0-0.5-0.3-0.8-0.1-0.5 0-0.5 0.3-1.8 0.1-0.6 0.4-0.8 0.4-0.5 0.5-0.5 0.4-0.3 1.7-1 0.5-1 0.2-0.8 0.5-1 0.2-0.7 0.4-2.5 0.2-0.9 0.3-0.6 0.3-0.4 0.2-0.5 0.1-0.6-0.6-1.7 0-0.8 0.2-0.9 0.6-1.2 0.1-0.6-0.1-0.7-1.1-2.9-0.3-1.5 0.2-2.2 3.8-3.9 0.2-0.5 0.1-0.8 0.1-0.8 0.3-0.8 1.6-2 0.9-1.6 0.4-2.5-0.9-1.2-0.3-0.2-1.8-1.1-0.1-0.8 0.1-1 0.3-1.1 0.5-1.2 10-13.4 0.3-0.6 0.3-2.7 0.2-1 0.4-3.3 0-0.5-0.1-1.2 0-0.5 0.2-0.6 0.5-1.1 0.3-0.6 0.5-0.5 2-1.1 6.5-5.7 1.4-1.6 3-5.2-0.1-0.7-0.5-0.9-0.5-0.5-1.7-1.7-4.6-3.5-2.9-1.5-0.8-0.7-3.2-4.4-4.8-7.9-3.3-5.1-0.4-0.6-0.5-1.4-0.3-0.5-1-1.3-0.2-0.5 0-0.5 0.2-0.8 0.5-1.1 0.3-0.5 0.4-0.4 0.6-0.4 1.6-0.4 1-0.7 3.4 0.7 1.7 1.1 0.6 0.2 3.7-0.2 11.3 0.8 5.9 1.6 0.8 0.1 0.7-0.1 1.1-0.4 4.3-0.7 0.8 2 4.4 5.5 3.1 2.4 0.7 0.5 0.6 0.1 0.5-0.1 0.5-0.2 1.9-1.2 0.8-0.2 5 0.9 0.8 0.4 0.3 0.5 0.8 0.6 0.5 0.5 0.8 1.1 2 1.8 1.3 0.9 2.8 1 1.3 0.2 2.6 0.7 0.9 0.4 0.5 0.4 0.6 0.9 1 1.4z"
		  id="AFG1766" name="Baghlan" data-id="AFG1766" data-name="Baghlan">
	</path>
	<path d="M632.6 331.3l1.6 0.9 0.8 0 3.6-1 2 0 0.5-0.5 0.3-1 0.2-1.1 3.2-8.2 1.2-1 3.2-1.6 1-0.3 0.5-0.5 0.2-0.3 0.6-1.2 1.4-1.4 2.2 6.2 0.1 0.9-0.1 1.3-0.4 0.6-0.8 0.7-2.8 2.6-0.7 1.1-0.5 1.1-0.1 0.8 0.1 1.3-0.2 3.4-0.3 0.7-0.3 0.5-1.3 1.5 0.1 1.9 1 2.7-0.1 0.9-0.4 1.2-0.6 1.1-0.7 1.8-0.2 1.2-0.1 1.1 0 0.7 0.2 2-8 0.9-2.3 0.6-0.1 0.2 0.1 0.6 0.3 1.2 0 0.5-0.2 0.7-0.5 0.8-2.7 3.7-4.3 4.4-3.5 2.6-1.1 0.6-0.6 0.7-0.1 0.6 0.4 3-0.9 1.1-0.2 0.2-0.5 0-1.4-2.7-1.5-1.9-0.5-0.8-0.4-1.1-0.2-0.7-0.4-0.8-0.5-0.8-2.1-2.7-1.3-1.2-0.9-0.9-0.8-1.2-1.7-3.1-0.8-0.6-5.7 3.9-0.4 0.4-0.4 0.2-0.5 0.1-1.2-0.6-1.1 0.2-1.1 0.4-1 0.1-10.2-3.4-1.6-5.4-2.4-1.8-0.5-0.2-2.2-0.6-0.4-0.2-0.3-0.3-0.2-0.5-0.4-1.1-0.3-0.8-0.3-0.5-0.3-0.7-0.1-1 0.1-2.3 0.7-2.8-0.1-1.9 0.9-2.9 0.9-3.3-0.3-3.6 1.7-3.7 0.9-0.8 0.2-1.2 2-6 2.6-4.2 0.3-0.3 5 1.3 1 0 6.3 0.4 2.1-0.5 1.3 0.2 1.3 0.5 1.2 1 0.8 0.7 2.9 1.8 0.6 2.2 2.2 3.7 0.5 1.1 0.7 0.6 1.4 0.3 1.3 1.1 1.7 4 0.8 3.9 1.1 3.4 1.5 0.2 2.8-0.8 0.9-0.7 0.9-1 0.3-0.9 0.2-0.9 0.4-0.9 0.6-0.4 0.8 0 2.4 0.5z"
		  id="AFG1767" name="Kabul" data-id="AFG1767" data-name="Kabul">
	</path>
	<path d="M646 294.8l1.1 3.3 2.4 1.9 0.3 0.7 0.5 1.1 0.2 1.2 0.5 1.5 2.1 3.4 0.5 1.2 0.7 3-1.4 2-1.4 1.4-0.6 1.2-0.2 0.3-0.5 0.5-1 0.3-3.2 1.6-1.2 1-3.2 8.2-0.2 1.1-0.3 1-0.5 0.5-2 0-3.6 1-0.8 0-1.6-0.9 0.6-2.7 0.2-0.5 0-0.6-0.7-0.4-0.4-0.4-0.5-0.5-0.4-0.7-0.4-0.5-0.4-0.6-0.4-1.1-0.3-1.1-0.1-1.5 0.3-4.2 0-1.8 0.3-3.5-0.4-1.9-2.3-0.8-3-1.2-4.2-0.2-2-2.1-1.3-1.8-0.9-0.7-1.1-0.6-2-0.5-1.8-0.9-1.1-1.3-0.2-1.6 0.1-1.7 0.5-4.7-0.3-3.2 1.1-0.6 0.6-1.1 1 0.3 0.9 0.7 3.6 0.3 3 1.1 1.3-0.1 1.5-0.4 0.9-0.1 1.4 0.6 3.4-0.2 0.8 0.3 4.8-1.4 3.1 0.3 2.1 0.5 1.3 0.7 1 0.9 2.3 3.3 1.5 1.7z"
		  id="AFG1768" name="Kapisa" data-id="AFG1768" data-name="Kapisa">
	</path>
	<path d="M679 229.3l-1.3 3.9-0.3 3.7-0.3 1.5-0.5 4.2 0 1-0.5 1.1-0.8 2.1-0.3 4-0.3 1.1-0.6 0.8-1.7 1-0.4 0.3-0.1 0.5 0 0.9 0.4 0.8 0.2 0.4-0.1 0.6-0.4 0.9-0.6 1.1-0.9 1-1.1 0.9-1.6 0.5-1 0-0.7-0.2-0.4-0.2-0.3 0.1-1.2 2-0.3 0.9-1.6 2.2-5.2 2.7-1.2 0.8-0.7 0.7-0.6 0.9-0.1 1.1 2.8 2.4 0.7 1.3 0.3 0.9-0.2 4.5-0.5 1.3-0.5 1-2.6 3.5-1.1 1-2.1 1.4-2.3 1.1-0.5 0.3-0.7 0.3-0.5 0.1-0.2 0.2-0.3 0.5-0.1 0.9-0.7 1.5-1.5-1.7-2.3-3.3-1-0.9-1.3-0.7-2.1-0.5-3.1-0.3-4.8 1.4-0.8-0.3-3.4 0.2-1.4-0.6-0.9 0.1-1.5 0.4-1.3 0.1-3-1.1-3.6-0.3-0.9-0.7-1-0.3-0.6 1.1-1.1 0.6-2.6 0.4-0.1-3 0.3-1.5 0.2-9.6 0.8-3.8 0-2.1 3.1-1 2.2 0.1 0.6-0.3 0.9-0.6 1-0.4 1.9 0.2 1.9-1.9 0.6-1.1 0.5-0.3 0.7-0.3 3.2-0.4 3.7 0.6 1.2-0.6 8.7-5.7 3.5-1 0.6-1 0.4-1 0.8-4.4 0.2-1.8 0.3-1.3 0.6-1.8 1.8-2.7 1.1 0 1-0.1 1-0.3 0.6-0.5 0.6-0.8 1.3-2.6 0.6-0.6 2.1-1 0.8-0.8 0.9-2.2 0.9 0.3 0.3 0.3 0.1 0.8 0.4 0.1 1.2-0.6 2.8-1.2 4.8-0.5 1.6-0.8 0.9-0.8 0.9-1 0.7-1 0.4-1 0-0.7-0.1-0.7 0-0.3 0.4 0.1 2 1.6 4.3 1.9z"
		  id="AFG1769" name="Parwan" data-id="AFG1769" data-name="Parwan">
	</path>
	<path d="M699.9 302.2l0.8 1.1 0.3 1 0.2 0.9-0.1 0.8 0.1 0.8 0.4 1 0.8 1.6 0.4 1.6 0.2 1.6 0 3.3-0.3 2.7-2.1 0.6-2.4 1.3-2.2 1.7-0.7 0.9-0.5 1-0.5 3.4-0.7 0.5-3.7 1.4-1.7 1.5 1.1 5.5 0 1.5-0.2 1.2-1.7 3.7-2 1.4-0.8 0.8-3.5 1.8-3.9 1.1-7.4 1.3-4.1 1.9-1.2 0.2-4-0.9-3.9 0.8-7.5 0.9-2.1-0.7-0.2-2 0-0.7 0.1-1.1 0.2-1.2 0.7-1.8 0.6-1.1 0.4-1.2 0.1-0.9-1-2.7-0.1-1.9 1.3-1.5 0.3-0.5 0.3-0.7 0.2-3.4-0.1-1.3 0.1-0.8 0.5-1.1 0.7-1.1 2.8-2.6 0.8-0.7 0.4-0.6 0.1-1.3-0.1-0.9-2.2-6.2 1.4-2-0.7-3-0.5-1.2-2.1-3.4-0.5-1.5-0.2-1.2-0.5-1.1-0.3-0.7-2.4-1.9-1.1-3.3 0.7-1.5 0.1-0.9 0.3-0.5 0.2-0.2 0.5-0.1 0.7-0.3 0.5-0.3 2.3-1.1 2.1-1.4 1.1-1 2.6-3.5 0.5-1 0.5-1.3 0.4 1.5 1.8 2.9 0.5 0.9 0.2 0.8 0.2 3.4 0.7 1.4 0.6 0.5 2.4-0.1 5.6 1 1.8 1.8 1 3.6 1.8 2.4 1.5 1.7 1.4 3.1 0.8 0.5 3.2 0.5 3.3 2 0.9 0.2 1 0 3.6-1 3.7-1.6 0.8-0.4 3.3-2.8 1.3-1.8z"
		  id="AFG1770" name="Laghman" data-id="AFG1770" data-name="Laghman">
	</path>
	<path d="M624.4 372.5l1.4 0.3 5.1-3.6 8.1-3.8 1.5-0.5 0.7-0.2 0.5 0.2 0.3 0.2 0.5 0.7 0.3 0.3 0.6 0.3 0.4 0.4 0.4 0.6 0.9 0.5 0.6 0.5 0.2 0.3 0.3 0.9 0.7 1.2 0.4 1 0.7 0.8 0.3 0.4 0.4 1.2 1 1.4 0.6 0.6 0.7 1.2 0.7 2.9 1.3 1.8-4.2-2.5-0.5-0.2-0.8-0.1-0.4 0.1-0.4 0.2-2.4 3-3.9 2.4-0.7 0.3-0.9 0-0.2-0.3 0-0.6 0.1-1.1-0.1-0.4-0.3-0.3-0.5-0.3-0.6-0.3-2.4-0.5-3.1-0.3-0.8 0.1-1.2 0-0.7 0.1-0.6 0.2-1.5 1-0.5 0.4-0.5 1.7-1.1 2.2-0.7 1-1.2 1.3-0.7 0.7-0.9 0.5-2.7 2.4-0.4 0.4-3.7 3.9-0.5 1-0.3 0.5-2.2 1.5-7 3.3-6.7 5.1-0.9 0.7-0.9 0.9-1.1 2.2-0.8 2.3-1.3 2.4-0.9 0.8-0.5 0.3-0.8 0.4-0.9 0.3-1.1 0.2-0.8 0-1.4-0.6-1.1-0.2-10.3-0.1-0.2-1.8-0.5-0.6 0-0.3 0-1-0.1-0.3-0.7-0.5-0.3-0.4-0.1-0.4 0.1-0.9 0.3-0.7 0.3-0.5 0.5-0.4 0.6-0.2 0.2-0.1-0.1-0.4-0.2-0.7-0.6-1.4-0.6-1.7-0.1-0.5-0.3-0.6-0.3-0.3-2.1-1 2.3-2.7 0.3-0.5 0.6-1.2 0.4-3-0.1-0.6-0.2-0.8-0.7-0.9-0.2-0.4 0.2-0.2 0.9-1.8 0.8-1 1.7-1.5 0.9-0.5 1-0.4 3.3-0.7 0.7-0.2 0.2-0.2 0.1-0.4-0.1-0.6-1-2.5-0.3-0.4-0.7-0.6-0.9-0.5-1.6-1.5-0.7-1-0.3-0.9 0.2-3 0.7-2.9 1.5-3.2 1.2-1.6 1.5-1.4 0.9-0.6 2.1-4.9 1.3-2.2 1.9-2 10.2 3.4 1-0.1 1.1-0.4 1.1-0.2 1.2 0.6 0.5-0.1 0.4-0.2 0.4-0.4 5.7-3.9 0.8 0.6 1.7 3.1 0.8 1.2 0.9 0.9 1.3 1.2 2.1 2.7 0.5 0.8 0.4 0.8 0.2 0.7 0.4 1.1 0.5 0.8 1.5 1.9 1.4 2.7 0.5 0 0.2-0.2 0.9-1.1z"
		  id="AFG1771" name="Logar" data-id="AFG1771" data-name="Logar">
	</path>
	<path d="M609 268.4l0 2.1-0.8 3.8-0.2 9.6-0.3 1.5 0.1 3 2.6-0.4 0.3 3.2-0.5 4.7-0.1 1.7 0.2 1.6 1.1 1.3 1.8 0.9 2 0.5 1.1 0.6 0.9 0.7 1.3 1.8 2 2.1 4.2 0.2 3 1.2 2.3 0.8 0.4 1.9-0.3 3.5 0 1.8-0.3 4.2 0.1 1.5 0.3 1.1 0.4 1.1 0.4 0.6 0.4 0.5 0.4 0.7 0.5 0.5 0.4 0.4 0.7 0.4 0 0.6-0.2 0.5-0.6 2.7-2.4-0.5-0.8 0-0.6 0.4-0.4 0.9-0.2 0.9-0.3 0.9-0.9 1-0.9 0.7-2.8 0.8-1.5-0.2-1.1-3.4-0.8-3.9-1.7-4-1.3-1.1-1.4-0.3-0.7-0.6-0.5-1.1-2.2-3.7-0.6-2.2-2.9-1.8-0.8-0.7-1.2-1-1.3-0.5-1.3-0.2-2.1 0.5-6.3-0.4-1 0-5-1.3-0.3 0.3-2.6 4.2-2 6-0.2 1.2-0.9 0.8-1.7 3.7 0.3 3.6-0.9 3.3-0.9 0.3-1.1-0.2-2.1-1-2.4-0.7-1-0.5-0.6-0.1-2.1 0.1-0.9 0-1-0.4-1.2-1-0.7-0.3-1.2-0.4-1-0.4-5.1-1.3-0.7 0.1-1 0.4-4 2.7-2.2 1-1.1 0.4-0.4 0.2-0.6 0.6-0.3 0.2-0.5 0.1-1.3-0.2-0.4-0.1-0.6-0.8-0.4-2.5-0.1-1.2-0.2-0.7-0.4-0.8-3.5-3.6-0.3-0.7-0.3-1-0.2-1.6-0.4-1.6-0.8-0.7-1.3-0.8-0.4-0.7 0.4-2.5 0.1-2.6-0.2-1.9-0.1-2.1-0.9-2.5-3.6-3.9 0.5-0.8 1.5-0.7 1.9-0.7 1-0.6 0.8-0.6 0.4-0.6 0.3-0.4 0.1-0.7 0.2-0.3 0.5 0 5.1 1.4 1 0.1 4.6-0.6 4.2 0.4 3.6-0.2 1.4-0.3 1.9-1.1 0.3-0.9-0.2-0.7-0.4-0.8-0.1-0.7 0.2-0.3 0.4-0.3 3.2-0.7 0.9-0.6 5.2-3.9 0.1-0.1 0.5-0.6 1.1-1.9 1.1-1.5 0.7-1.2 0.7-0.7 1-0.7 2.7-0.8 2.9 2 0.7 0 0.5-0.2 3.1-2.1 0.5-1 0.3-0.4 0.6-0.4 3-0.8 0.4-0.3 0.5-0.5 0.6-1 1.2-2.2 0.6-0.5 0.7-0.5 3.5-1.6 0.5-0.2 0.5-0.2 0.5-0.5 0.7-1 1.6-1.4 2.5 0.6 0.9 0 0.5-0.2 0.4 0.3 1.1 1.7z"
		  id="AFG1772" name="Parwan" data-id="AFG1772" data-name="Parwan">
	</path>
	<path d="M534.6 165.5l1.2 1.2 2.3 0.7-1 0.7-1.6 0.4-0.6 0.4-0.4 0.4-0.3 0.5-0.5 1.1-0.2 0.8 0 0.5 0.2 0.5 1 1.3 0.3 0.5 0.5 1.4 0.4 0.6 3.3 5.1 4.8 7.9 3.2 4.4 0.8 0.7 2.9 1.5 4.6 3.5 1.7 1.7 0.5 0.5 0.5 0.9 0.1 0.7-3 5.2-1.4 1.6-6.5 5.7-2 1.1-0.5 0.5-0.3 0.6-0.5 1.1-0.2 0.6 0 0.5 0.1 1.2 0 0.5-0.4 3.3-0.2 1-0.3 2.7-0.3 0.6-10 13.4-0.5 1.2-0.3 1.1-0.1 1 0.1 0.8 1.8 1.1 0.3 0.2 0.9 1.2-0.4 2.5-0.9 1.6-1.6 2-0.3 0.8-0.1 0.8-0.1 0.8-0.2 0.5-3.8 3.9-6 1.4-2.8-0.2-6.9 1-0.6 0-0.5-0.4-0.4-0.3-0.6-0.9-0.3-0.3-0.5-0.1-0.7 0-3.8 1.3-0.7 0-0.9-0.1-9.2-2.1-1.7 0-4.3 0.9-7.5 3.1-2.7-0.8-1.4-0.1-0.9-0.2-0.4-0.1-0.6-0.1-0.8 0.1-6.4 2.5-5.4 1.4-6.3 2.8-1.9 0.5-7-0.1-1.9-0.3-3.7-1.6 0.8-0.8 1.1-0.7 2.2-1 1.3-0.8 1.2-1 3.2-3.3 0.5-0.5 0.3-0.6 0.2-0.7 0.2-0.7 0.1-1 0-1.3-0.4-2.2 0-0.5 0.4-0.2 1.1-0.4 0.1-0.6-0.1-1.1 0.2-1.1-0.4-0.5-1.5-0.8-0.2-0.3 0.1-0.6 0.2-0.3 0.4-0.3 1.3-0.6 0.4-0.3 0.4-0.5 0.1-0.4 0-0.6-0.2-1-1.6-1.4-6.6-3.1 0-0.9 0.2-1.4 0.3-0.8 1.1-2.1 0.6-0.7 0.6-0.6 2.6-1.2 1.4-1.1 3.6-4.3 0.9-0.7 0.3-0.4 0.4-0.6 0.2-0.9 0.3-0.6 0.5-0.4 1.1-0.6 0.5-0.4 0.3-0.7 0.3-1 0.2-1.6 0-0.8-0.2-0.6-1.9-2.6-0.4-0.7-0.3-0.7-0.1-0.9-0.1-0.6-0.6-0.5-0.3-0.3-0.2-0.5 0-0.4 1.4-1.3 6.5-5.1 1.3-0.4 3.7-0.5 1-0.3 0.5-0.5 0.7-0.6 1.2-1.4 1.4-1.4 0.5-0.5 0.3-0.7 0.2-1.1 0-0.6-0.4-1.2 0.1-0.4 0.3-0.6 0.6-0.6 1.1-0.9 0.5-0.7 0.3-0.5 0.5-3.2 0.1-3.8 1-4.2 1.6-4.5 0-1-0.1-0.6-1.8-3.9-1.2-1.7-0.2-0.6 0.3-0.5 0.7-0.7 0.6-0.5 1.4-0.7 3.2-1 0.7-0.7 1-2.4 1-0.3 7.9 0.7 0.9-0.2 2-0.8 1.1-0.3 1.1-0.1 1 0.3 3.9 2 2.2 1.3 0.4 0.4 0.9 0.5 1.6 0.6 3.3 0.4 13.8 1.9 2-0.3 5.6-2.3z"
		  id="AFG1773" name="Samangan" data-id="AFG1773" data-name="Samangan">
	</path>
	<path d="M581.3 333.6l-0.9 2.9 0.1 1.9-0.7 2.8-0.1 2.3 0.1 1 0.3 0.7 0.3 0.5 0.3 0.8 0.4 1.1 0.2 0.5 0.3 0.3 0.4 0.2 2.2 0.6 0.5 0.2 2.4 1.8 1.6 5.4-1.9 2-1.3 2.2-2.1 4.9-0.9 0.6-1.5 1.4-1.2 1.6-1.5 3.2-0.7 2.9-0.2 3 0.3 0.9 0.7 1 1.6 1.5 0.9 0.5 0.7 0.6 0.3 0.4 1 2.5 0.1 0.6-0.1 0.4-0.2 0.2-0.7 0.2-3.3 0.7-1 0.4-0.9 0.5-1.7 1.5-0.8 1-0.9 1.8-0.2 0.2 0.2 0.4 0.7 0.9 0.2 0.8 0.1 0.6-0.4 3-0.6 1.2-0.3 0.5-2.3 2.7-1.6 1.6-3 3.6-0.4 0.4-5.9 3.5-0.6 0.2-1.1 0.1-0.8 0-2.7-0.6-0.9-0.4-0.6-0.5-0.3-0.4-0.2-0.5 0.1-0.7 0.3-1.4 0.6-1.7 0-1.1-0.6-1.8-1.5 0-0.7 0.2-1 0-0.4-0.2-0.5-0.4-5.9-6.3-0.2-0.4-1-1.1-3.4-2-0.7-1.3-0.3-0.3-4.4-1.7-0.8-0.3-0.7-0.4-0.5-1.4-0.1-1.2-0.6-2.1-0.2-0.9 0-0.7 0.1-0.5 0-0.6 0-0.6-0.3-1-0.1-0.7 0-0.7 0.1-1.2 0-0.6-0.7-3.8-0.4-0.8-0.5-0.9-2.1-1.9-1-0.7-1.5-0.4-1 0.7-0.3 0.2-0.8 0.4-1 0.8-2 1.1-4.4 1.5-1.1 0.2-0.9 0.1-3.2-0.3-0.9-0.2-0.8-0.4-1.7-1.6-2.2-1.5-2.5-1-2.2-0.5-1.7 0.1-4.7 1-0.6 0.2-0.6 0.3-0.9 0.7-0.4 0.5-0.3 0.4-0.4 1.9-0.2 0.3-0.3 0.2-2.2 0.8-1.1 0-3.3-0.5-1.2-1.1-0.3-0.7 0-0.9 0.4-1.7 0.5-0.8 0.5-0.4 5.5-2.2 0.5-0.5 0.5-1.2 1-1.4 0.7-0.7-0.2-0.5-0.9-0.7-6.8-3.1-0.8-0.2-2.3-0.3-0.4-0.1-0.2-0.3 0-0.4 0.2-0.3 1.5-0.9 0.6-0.2 0.5-0.3 0.4-0.6 0.1-0.9-0.1-0.6-0.1-0.6-0.4-0.5-0.7-0.6-0.6-0.2-0.7 0-3.1 0.1-4.8-0.4-1-0.4-0.4-0.4-0.4-0.5-0.2-0.7 0-1 0.5-1.4 0.3-0.8 0.4-0.7 0.3-0.4 0.4-0.4 0.4-0.3 0.5-0.1 1.8-0.2 0.7-0.3 1.2-1 0.3-0.3 0.1-0.5 0.1-1.5-0.2-0.6-0.4-0.6-2-1.8-0.8-1-0.7-2.4 0.4-0.9 0.2-0.3 0.7-0.3 0.6-0.2 3.9-0.6 6-1.2 0.5-0.2 1.9-1.2 0.9-0.2 0.6 0.1 0.8 0.3 1.3 0.5 0.6 0.5 0.7 0.8 0.5 0.1 2.1 0.2 1.4 0.4 1.1 0.2 2 0.1 2.6-0.4 1.6 0.3 12.8 3.6 4.2 0.5 1.6-3.3 0.3-1.1 0.3-0.4 1.4-1.6 0.4-0.7 0.5-0.5 0.5-0.3 0.8-0.2 0.6 0 0.5 0.1 0.8 0.5 0.6-0.2 0.7-0.7 1.5-1.5 0.9-1.7 2-1.5 8-4.1 0.4 1.6 0.2 1.6 0.3 1 0.3 0.7 3.5 3.6 0.4 0.8 0.2 0.7 0.1 1.2 0.4 2.5 0.6 0.8 0.4 0.1 1.3 0.2 0.5-0.1 0.3-0.2 0.6-0.6 0.4-0.2 1.1-0.4 2.2-1 4-2.7 1-0.4 0.7-0.1 5.1 1.3 1 0.4 1.2 0.4 0.7 0.3 1.2 1 1 0.4 0.9 0 2.1-0.1 0.6 0.1 1 0.5 2.4 0.7 2.1 1 1.1 0.2 0.9-0.3z"
		  id="AFG1774" name="Wardak" data-id="AFG1774" data-name="Wardak">
	</path>
	<path d="M653 382.1l0.5 0.7-1.1 0.4-1.2 1.2-0.1 1.3 0.2 1.3-0.1 1.2-1.2 1.3-0.9 1.2 0.4 1.2 2 2.1 0.6 1.1 1 3.1 0.6 1.4 1.6 2.4 0.6 1.2 0.5 1.7 0.7 1.6 1.1 0.6 1.6 0.3 0 1.2-0.2 0.6-0.3 0.6-1.2 1.3-0.4 0.3-1.8 0.6-1.9 1.2-1.6 0.7-1.2 0.7-1.6 0.6-0.6 0.1-0.6 0.4-0.4 0.3-2.1 3.2-1.1-0.9-0.3-0.1-4.8 0.5-4.2 1.3-1.1 0.5-1 0.7-2.2 1.8-0.3 1-1.2 2.2-0.4 1 0.1 1 1.2 1.2-1.6 5.3-0.4 1-0.7 1.1-0.4 0.5-1.6 1-3.8 3.3-0.3 0.6-0.2 0.9-0.3 1-1.2 1.5-0.9 1-0.3 0.4-0.3 1.7-1.4-0.4-0.8-0.4-1.1 0.1-3.1 1.1-1.3 0.2-1.4-0.3-2.1-1.6-1.1-0.9-0.7-0.3-0.4 0-0.4 0.3 0 0.5 0.2 0.9-0.1 0.2-0.5 0.6-2.4 1.5-3.4 1.5-2.8 1.7-1.9 1.8-1 0.6-1 0.4-0.7 0.1-0.2 0-0.3-0.6-0.4-1.9-0.2-0.9 0-0.7 0.1-0.8-0.6-4.9-0.1-1.7 0.3-3.9 0-0.9-0.1-0.5-0.2-0.5-1.1-1.5-0.8-1.4-0.6-0.6-1.6-0.7-0.7-0.1-0.5 0.3-0.6 0.1-0.7-0.2-1.3-0.7-1.8 0.3-5 1.9 0.4-1.4 1.7-3.8 0-0.7-0.1-0.8-0.6-1.5-0.8-1.6-0.3-1-0.2-1.5-0.1-2.9 0.2-3.1 10.3 0.1 1.1 0.2 1.4 0.6 0.8 0 1.1-0.2 0.9-0.3 0.8-0.4 0.5-0.3 0.9-0.8 1.3-2.4 0.8-2.3 1.1-2.2 0.9-0.9 0.9-0.7 6.7-5.1 7-3.3 2.2-1.5 0.3-0.5 0.5-1 3.7-3.9 0.4-0.4 2.7-2.4 0.9-0.5 0.7-0.7 1.2-1.3 0.7-1 1.1-2.2 0.5-1.7 0.5-0.4 1.5-1 0.6-0.2 0.7-0.1 1.2 0 0.8-0.1 3.1 0.3 2.4 0.5 0.6 0.3 0.5 0.3 0.3 0.3 0.1 0.4-0.1 1.1 0 0.6 0.2 0.3 0.9 0 0.7-0.3 3.9-2.4 2.4-3 0.4-0.2 0.4-0.1 0.8 0.1 0.5 0.2 4.2 2.5z"
		  id="AFG3413" name="Paktya" data-id="AFG3413" data-name="Paktya">
	</path>
	<circle cx="395.7" cy="184.2" id="0">
	</circle>
	<circle cx="93.8" cy="652.4" id="1">
	</circle>
	<circle cx="254.1" cy="286.8" id="2">
	</circle>
</svg>