<?xml version="1.0"?>
<!--
************* Copyright (c) 2017 Pareto Softare, LLC DBA Simplemaps.com *******************		
************* Free for Commercial Use, full terms at  http://simplemaps.com/resources/svg-license ************
************* Attribution is appreciated! http://simplemaps.com ***************************
-->
<svg baseprofile="tiny" fill="#7c7c7c" height="3411" stroke="#ffffff" stroke-linecap="round" stroke-linejoin="round" stroke-width="2" version="1.2" viewbox="0 0 1000 3411" width="1000" xmlns="http://www.w3.org/2000/svg">
 <path d="M277.2 145.9l58.3 20.9 92.3-32.2 57.1 11.3 71 54.2 61.3 73.4 48.4 80.5 32.5 76 31.5 138.5 4.3 76.4-8.2 72.2-29.8 86.9-30.3 15.8-45.3-4.2-75.3 27.5-27.8-82.6-78.3-58.7-194.7-79.5-56.6 31.2-24.2-66.6-9.2-188.6-20-84.9-25.7-70.9-18.1-72.5 3.6-90.1 16.2 15.2 13.9 50.8 26.9 56.1 69.9 84.5 23.3 48.7-1.2 64.7-17.4 54.8 0 43.4 51.6 29.4 21.9-86.2 6.4-117.7-27.2-104.3-79.2-44.6-31.9-50.6 20.9-88.8 61.1-34.3 87.9 113.3-59.9 31.6z" id="ATG5091" name="Barbuda" data-id="ATG5091" data-name="Barbuda">
 </path>
 <g>
 </g>
 <path d="M607.7 2834.3l-24.4 27.6 22.5 37.7 4.5 47-49.5 18.8-31.4 65.9-31.5-14.1-62.9-42.4 8.9-51.7-13.4-98.8-36-32.9-4.5-94.1 62.9-4.7-7.9-92.5 55.9 82 33.7 95.1 73.1 57.1z" id="ATG5093" name="Saint George" data-id="ATG5093" data-name="Saint George">
 </path>
 <path d="M790.9 2931.4l-59.3 43.4-22.4 89.4-67.5 18.8-112.3 0 0-51.7 31.4-65.9 49.5-18.8-4.5-47-22.5-37.7 24.4-27.6 4.3-40.9 11.9-27 41.5-58.2 25.1 39.4 34.3 22.9 43 7.5 50.5-6.8-33.8 41.7-18.7 12.4-40.1 9 20 66 45.2 31.1z" id="ATG5094" name="Saint Peter" data-id="ATG5094" data-name="Saint Peter">
 </path>
 <path d="M740.7 3183.1l-31.5-118.9 22.4-89.4 59.3-43.4 58.1-1.6 59.7-32.7 32.8 0 37.6 45.6 19.9 51.8-29.9-2.3-60.6 4.5-29.9-2.2 40.8 51.4 37.8 24.5 21.5 24.8-9.8 53.8-49.7 79.9-49.8 3.4-57-29.3-71.7-19.9z" id="ATG5095" name="Saint Philip" data-id="ATG5095" data-name="Saint Philip">
 </path>
 <path d="M740.7 3183.1l-34.2 16.7-1.6 41.8 20.8 113.5-33 54.9-72.3-34.9-71.5-65.2-31.2-34.9-29.7 7.5-90.2 44.3-30.3-74.5 13.5-51.7-31.4-61.2 35.9-37.6 98.9-28.2 45 9.4 112.3 0 67.5-18.8 31.5 118.9z" id="ATG5096" name="Saint Paul" data-id="ATG5096" data-name="Saint Paul">
 </path>
 <path d="M349.6 3139.4l31.4 61.2-13.5 51.7 30.3 74.5-60.7 10.8-91.8 0.6-57.4-12.9-140.7-85.9-29.5-42 29.7-62.8 19.4-52.7-15.8-45 1.6-39.6 71.5-37.2 54.6-37 40.5 37.6 76.4 18.8 4.5 14.1-22.5 51.8-17.9 117.6 67.4-75.3 22.5 51.7z" id="ATG5097" name="Saint Mary" data-id="ATG5097" data-name="Saint Mary">
 </path>
 <path d="M445 2600.1l7.9 92.5-62.9 4.7 4.5 94.1 36 32.9 13.4 98.8-8.9 51.7 62.9 42.4 31.5 14.1 0 51.7-45-9.4-98.9 28.2-35.9 37.6-22.5-51.7-67.4 75.3 17.9-117.6 22.5-51.8-4.5-14.1-76.4-18.8-40.5-37.6-54.6 37-31.5-12.3-91.6-50.7 48.6-45.9 78.1-33.8 101.5-30.4-35.7-61 7.4-54.6 40.1-47.8 63.5-41.1 140.5 17.6z" id="ATG5098" name="Saint John" data-id="ATG5098" data-name="Saint John">
 </path>
 <circle cx="122.1" cy="2976.4" id="0">
 </circle>
 <circle cx="122.1" cy="2899.6" id="1">
 </circle>
 <circle cx="415.7" cy="3283.6" id="2">
 </circle>
</svg>