<?xml version="1.0"?>
<!--
************* Copyright (c) 2017 Pareto Softare, LLC DBA Simplemaps.com *******************		
************* Free for Commercial Use, full terms at  http://simplemaps.com/resources/svg-license ************
************* Attribution is appreciated! http://simplemaps.com ***************************
-->
<svg baseprofile="tiny" fill="#7c7c7c" height="402" stroke="#ffffff" stroke-linecap="round" stroke-linejoin="round" stroke-width="2" version="1.2" viewbox="0 0 1000 402" width="1000" xmlns="http://www.w3.org/2000/svg">
 <path d="M280.4 111.4l-17.2-0.6-0.5-7.8 15.4-2.4 2.3 10.8z m-33.2-14.4l-11.9 4.2-10.3-0.6-8-6.6-1.2-5.4 31.4 8.4z m-167.4-51.5l-47.4 31.3-28-10.2-3.4-18.1 26.8-15 23.6 11.3 28.4 0.7z" id="AIA99" name="" data-id="AIA99" data-name="">
 </path>
 <path d="M597.1 308.1l-113 70.8-8.4-13.2-20-14.5-14-15-0.1-21.8 33 0 2.4-13.7 42.4-1.2 18.9-16.2 25.5-16.6 1.5 29.2 19.7-9.5 12.2-20.8-0.1 42.5z" id="AIA5114" name="Blowing Point" data-id="AIA5114" data-name="Blowing Point">
 </path>
 <path d="M794.3 196.8l1.1-29.1-22.4 0 16.5-26.1 3.6-12.4-23.6-14.9-30.7 0 0.1-34.4 18.1-3.2-0.5 17.7 22.4 0 16.2-23.6 31.2-4.8 33.6 1.8-0.7 20.5-59.3 101.2-5.6 7.3z m140.5-143.1l-27.7 18.8-9.8-10.4 11.6-15-6.2-21.7 22.3-8.4 8.9-16 41 8.5 24.1 15-18.7 7.5-38.4 11.3-7.1 10.4z" id="AIA5115" name="East End" data-id="AIA5115" data-name="East End">
 </path>
 <path d="M597.2 265.6l-12.2 20.8-19.7 9.5-1.5-29.2 33.5-21.9-0.1 20.8z" id="AIA5116" name="George Hill" data-id="AIA5116" data-name="George Hill">
 </path>
 <path d="M757 76.7l38.1-5.9-16.2 23.6-22.4 0 0.5-17.7z" id="AIA5117" name="Island Harbour" data-id="AIA5117" data-name="Island Harbour">
 </path>
 <path d="M639.8 221.2l-42.5 23.6-23.6-1.2-19.4 10.2 0.9-13.2-7.1-17.1 15.4-16.8 76.3 14.5z" id="AIA5118" name="North Hill" data-id="AIA5118" data-name="North Hill">
 </path>
 <path d="M636.4 194l-38.7-32.3 18-26.7 50-41.8 45.3-8.2 1.9 24.3-10.6 29.8-39 1.3-26.9 53.6z" id="AIA5119" name="North Side" data-id="AIA5119" data-name="North Side">
 </path>
 <path d="M554.3 253.8l-8.9 4.7-54.5 7.1 33.7-16.3 23.5-25.8 7.1 17.1-0.9 13.2z" id="AIA5120" name="Sandy Ground" data-id="AIA5120" data-name="Sandy Ground">
 </path>
 <path d="M794.3 196.8l-17.1 22.4-32.5 21.6-56 16.9-2.9-30.3-8.3-9.9 14.6-22.7 18.4-49.4 35.4 2.4 47.2-18.6-3.6 12.4-16.5 26.1 22.4 0-1.1 29.1z" id="AIA5121" name="Sandy Hill" data-id="AIA5121" data-name="Sandy Hill">
 </path>
 <path d="M597.3 244.8l-33.5 21.9-25.5 16.6-18.9 16.2-42.4 1.2-2.4 13.7-33 0 0.1 21.8-25.9 19.6-0.6-76.4 75.7-13.8 54.5-7.1 8.9-4.7 19.4-10.2 23.6 1.2z" id="AIA5122" name="South Hill" data-id="AIA5122" data-name="South Hill">
 </path>
 <path d="M793.1 129.2l-47.2 18.6-35.4-2.4-18.4 49.4-39.8 0.9-4.1 8.2-11.8-9.9 26.9-53.6 39-1.3 10.6-29.8-1.9-24.3 27.9-5.1-0.1 34.4 30.7 0 23.6 14.9z" id="AIA5123" name="Stoney Ground" data-id="AIA5123" data-name="Stoney Ground">
 </path>
 <path d="M688.7 257.7l-21.4 6.4-70.2 44 0.1-42.5 0.1-20.8 42.5-23.6 37.7-3.7 8.3 9.9 2.9 30.3z" id="AIA5124" name="The Farrington" data-id="AIA5124" data-name="The Farrington">
 </path>
 <path d="M677.5 217.5l-37.7 3.7 8.4-17.3 4.1-8.2 39.8-0.9-14.6 22.7z" id="AIA5125" name="The Quarter" data-id="AIA5125" data-name="The Quarter">
 </path>
 <path d="M636.4 194l11.8 9.9-8.4 17.3-76.3-14.5 14.6-16 19.6-29 38.7 32.3z" id="AIA5126" name="The Valley" data-id="AIA5126" data-name="The Valley">
 </path>
 <path d="M415.8 355.8l-42.2 31.7-40.5 13.5-51.3-0.8 76.3-89.9 22.9-18.5 34.2-12.4 0.6 76.4z" id="AIA5127" name="West End" data-id="AIA5127" data-name="West End">
 </path>
 <circle cx="828.2" cy="148.5" id="0">
 </circle>
 <circle cx="729.5" cy="148.5" id="1">
 </circle>
 <circle cx="778.9" cy="200.5" id="2">
 </circle>
</svg>