<?xml version="1.0"?>
<!--
************* Copyright (c) 2017 Pareto Softare, LLC DBA Simplemaps.com *******************		
************* Free for Commercial Use, full terms at  http://simplemaps.com/resources/svg-license ************
************* Attribution is appreciated! http://simplemaps.com ***************************
-->
<svg baseprofile="tiny" fill="#7c7c7c" height="2256" stroke="#ffffff" stroke-linecap="round" stroke-linejoin="round" stroke-width="2" version="1.2" viewbox="0 0 1000 2256" width="1000" xmlns="http://www.w3.org/2000/svg">
 <path d="M324.2 825.8l19.9 25.1 22.2 17.6-1.3 12.2-1.6 4-7.3 14.2-4.5 5.9-9.7 9.5-5 2-4.3-0.6-5.5-4.5-2.4-1.2-1.3 2.2-1.8 5.9-2.7 1.8-23.2 9.5-16.5 11.6-5.8 3-4.8 1.5-6.7-0.2-3.5-1.9-4.9-10.7-4.2-3.9-1.9-3.5-1.1-3.5-1.9-12.5-1.6-4.3-2.2-1.7-2.9 3.5-1.6 4-2.7 3.5-3.4 1.7-11.5-3.1-14.7 3.4-1.1 42.4 0.4 8.9 3.2 7.3 3.1 3.1 5.5 2.5 1.2 3.4 0.1 5.7-1.1 12.8 0.5 9.3-0.5 8.8-1.6 8.1-3.4 5.6-14.7 12.8-11.1 20.7-10.6-7.5-15.4-6.6-14.1 1.8-1.5-12.2-5.8-13-8.4-9.3-9.1-3.4-12.3 0-10.3-2-7.1-6.6-2.7-14.2 0-30.9-1.9-6.7-8.3-7.8-1.6-8.6 7.4 9.9 12.5-0.7 9.3-10.4-2.4-19.3 13.3-7.5 13.9-11.4 10.9-15.6 4.4-19.9-1.3-12.4-4-4.8-6-1.8-7.9-3.9-8.1-7.8-9-15.4-6.2-8 49 6.6 15.9-4.8 1.7 1.3 17.8 9.8 2-4.5 3-2 8.6-1.1 12.5-5.1 3.2 0.2 9.6 6 2.4 2.2 4.8 6.2 3.1 2.9 4.1 2.8 7 0.8 8.8-1 17.6-5.7 6.9-5.1 3.7-4.7 2.1-5.8 3.3-2.4 2.8 0.1 3.1 2 5 6.3 5.2 4.9 4.2 3.1 14.8 1.1z" id="ALB1494" name="Durrës" data-id="ALB1494" data-name="Durrës">
 </path>
 <path d="M231.3 1207.6l-1 4.5 1.3 7.9 2.7 6.7 4.7 6.1 8.1 4.8 13.7 3.9 20.2-1.5 5.6 1.1 5.8 4.7 4 2.2 6.7-0.9 7.5 3.1-0.7 14.3-4.4 8.8-0.4 2.5 1.4 17.8-0.1 3.7-2.5 13.2 0.4 8.3 1.3 4.5 5.1 10.3 4.9 5 3.4 2.6 22.6 6.6 2.9 3.6 1.3 4.6-3.1 5.3-18.1-0.6-5.7 1.5-2.8-3.2-2.5-4-2.8-1.5-6.2 3.2-8.5 3-6.7 3.8-4 8.7 0.4 5.7-1.9 3.6 0.1 7.8-2.5 0.8-2.9-0.5-13 0.1-0.9 7.8 0.2 3.3 1.4 5.5 2.8 6.3 10.6 14.1 2.1 5.2-0.7 7.1-2.7 7.2-0.4 5.4 1.2 8.9 2.5 3 7.2 3.8 4.8 1.6 4.7 3.1 2.7 2.6 3.6 15.5 15.4 17.9 2.9 5.7-1.1 6.5-4.7 4.8-4.3 3.4-3.7 1.9-0.6 1.7 2.7 0.4 2.9 2.1 2.8 4.7 8.2 22.8 6.1 8.2 13.5 9.4 7.8 2.7 7.1 5.2 3.1 13.2-7.8 1.1-2.7 1.6-2.9 3.5-3.4 6.6-3.7 5.2-3.7 4.5-17 13.8-3.8 4.7-16 32.9-3.3 4.8-7.9-1.6-7.5-1.8-5.6 1-4.3-1.4-3.5-3.1-1.1-2.8 0-3 1.8-6.4 0.1-3.6-1.9-10.7 0.7-2.2 0.9-7.6 0-4.6-1.2-2.2-2.1-1.3-8.4-1.7-1-2.2 1.6-1.7 1.1-6-0.8-6.8-2-3.8-3.5-4.3-4.5-1.9-2.9 1-4.3-1.9-3.6-2.9-2.8-1.5-6.6-0.2-3.8-1.8-15.9-11.4-10.5 0.1-7.5-1.5-4.2-2.2-5.2 0.4-4.8-2.3-1.8-7.2-1.2-2.8 0.5-1.6-1.4-2-5.3-0.8-4.3 1.4-3.7-0.1-2.5-0.9-1.4-2.8-0.3-6-1.7-2.3-3.3-2.4-13.4-6.9-5.5-1.7-5.1-0.3-2.9-1.5-1.1-3.8 0.5-2.7-0.5-2.7-2.2-2.7-6.3-3.9-3.6-2.8-2.2-2.7 0-5.8-1.3-1.2-2.9 0.2-13.4 5.9-5.6 0.9-8.7-5.5-11.9-4.8-8-1.9-8.2-0.7-9 3.2-14.2 1.3 2.6-9.2 7.7-7.3 9-6.8 7.1-7.5 5-11.6 2.3-12.4 0.5-44.1 1.9-12 5-8.1 10.4-3 5.9-2.7-1.5-6.4-4.1-7-2-4.6 2.5-6 4-6 5.3-5.8-4.5-8.5-8.5-11.1-5.6-9.7 4.9-4.1 8.5-3.3 11-16 9.2-6.6-7.8 8.7 4.7 17.5-4.6 14.9 0 15.7 4.2 0 1.7-8.3 1.8 8.3 7.4-10.1 29.5-14.3 9.5-11.6 1-18.3-6-14.7-7.4-13.4-3.3-14.7-2 19.2-6.9 17.1-14.5 22.3-0.3-3.3-3.2-4.4 6.1-6.2 6.4-10.5 4.1-13.6-1.3-15.5-2.8-3.6-9.1-3.9-3.2-2.5 6.1-15.8 2.9-2.6 1.7 0.2 2.9-1.4-0.2-4.6-2.3-3.7 4.7-1.2 1.9 0.4 2.1 1.9 4.5 6.5 3.3 1.5 2.4-1.2 5.2-7.7 2.6-1.9 2.9-0.4 4.8 1.8 8.6 0.3 5.6-0.7 4.6-2.9 9.7-7.9 5.6-3.5 4.2-1.9 2 0.3 4.1 2.2 4.3 0.7 2 1.8 5.6 0 2.6 2.1 3 0.6 3-1.2 9.7-5.9 4.5-1.4 1.9 1.5 0.2 3.4-1.4 5.4z" id="ALB1495" name="Fier" data-id="ALB1495" data-name="Fier">
 </path>
 <path d="M320.2 143.1l-3.5 7.6-3.8 5.4-4.1 5-1.5 3.1-2.4 7.4-1.8 3.2-5.3 5-0.9 2.2 0.9 2.7 8.8 11.2 1.6 4.6 1.2 6.3 0.6 19.4-0.7 6.1 0.3 8.9 2.1 12 7.3 25.9 2 10.3 0.2 6.6-1.6 4.6-0.3 6-1.3 6.3-1.8 5.3 1.1 3 3.7 2.8 8 4.4 14.2 1.6 2.9-3.8 3.5-1.7 5.3-1.6 3.4-2.4 8.1-8.5 3.7-2.6 3.5-1.2 33.3 1.5 9.6-9.4 13.2 1.9 7.3 2.3 63.9 31.1 13.4-0.8 4 0.8 3.3 2.7 2.3 3.4 2.9 3 5 1.3 16.9 7.3 4.1 12.7-5.8 11.5-9.9 8.1-7.1 4.4-5 3.9-4.1 4.3-15.1 21.9-1.8 5.9 2.8 6 1.1 5.1-3.2 10.1-8.2 11.5-0.1 1.4 6.3-0.4 4.4-1.8 3.8-2.3 3.3-0.5 3.8 2.8 4.7 7.5 13.1 12.3-22.7 21.4-35.8 18-6.6 4.5-4.9 5.3-4.7 15.3-5.3 7.8-5.1 4.4-8.6 5.1-12.6 12.5-3.9 5.5-6.5 12.2-3.1 2.5-4.4 1.1-21.7-0.7-4.9-1.7-3-2.7-2.3-3.5-0.6-3.1 0.8-3 4.7-4.5 1.2-2.1-0.1-2.8-1.3-3.3-11-13.8-2.3-3.8-4.2-11.1-1.6-7.9-1-3.6-3.3-3.2-3.6-0.2-5.9 1.7-6.5 4-5.4 6.3-5.7 5.1-3.8 4.8-3 2.4-4.2 1.3-4.7-0.2-8.6-3-4.4-3.3-3.9-1.9-3.5 0.2-10.8 5.5-17.3 0.9 6.6 14.3 0.6 2.9-0.6 2.6-2 2.8-4.1 4-4.6 3.4-5.1 2.1-7.3-3-10.1-8.3-4.5-2.6-4.8-0.6-20.5 3.3-4.5-0.2-7.1-4.3-0.9-2.4 0.4-3.1 4.5-7.9-2.4-2-6.3-0.1-3.5-0.7-3.2-1.7-3.8-2.9-2-0.3-9.4 1.4-6.1 2.6 2.5 3.2 3 8.5 1.8 15.4-6.5 7.2-7.9 2.6-9.8-4.2-19.3-11.8-7.5-3.1-5.1 0.9-4.4 5.9-1.7 8.6 2.1 9.2 34 27 1.6 8.4-36-14.9-8-5.4-10.3-4.6-38.1 12.3-0.5-7.9 0.4-19.8-4.5-8-5.2-5.1-1.3-3 0.3-3.1-0.3-5.1 0.7-3.8 2.2-3.9 1.3-5.4-3.6-17.4 2.9-2.7 4.6-0.7 3.4-2.8 2.9-12.7-4.3-5.4-5.1-11.4-2.1-14.4 0.7-15 2.7-13 8.1-17.9 0.5 0.3 29.2 12.3 32.9 4.9-4.1-5.2 3.1-31-1.2-21.4-7.6-9.6-8.9-2-3.3-4.9-1.5-6.7-3.3-7.2-4.7-4.4-8.6-2.3-6.6-3.5-18.8-27.5 7.1-28.2 18-27.7 13.6-26-9.8 2.9-9.4 6.6 0.4-3.6-0.3-10.4 1.1-5.6 5.3-12.4 2.9-4.4 28.7-33.5 7.5-12.5 11.1-7.3 9.2-10.6 7.8-12.8 6.8-14.2 3.1-11.5 6.8-5.9 8.1-4.6 6.9-8.1 3.2-9.1 3.1-20 3.3-10.5 9.4-15.4 14.7-17.5 15.8-14.4 13-6.2 12.9 6.7 8.6 16.5 4.8 19.5 1 15.3-1-0.8-2.6 4.2-4.2 9.1-1 5.3-1 11.6 0.3 5.1 1.9 7.1 9.7 23.6 18.5 14.4 9.5 4.9 10.3 1.3 5.3-1.7z" id="ALB1498" name="Shkodër" data-id="ALB1498" data-name="Shkodër">
 </path>
 <path d="M720.3 616.3l-5.1-0.5-9.7 3.1-9.2 1.8-34.8-6.5-11.6 0.4-6.2 1.3 0.1 2.4 3.2 4.5-2.3 3.3-5.7 3.6-7.9 2.9-13.8 1.9 0.8-5.7-3.6-10.9-15.7-23.9-3.4-14.4 0.9-2.4-11.3-1.1-8.2 3.6-3.6 4.3-3.2 5.1-4.6 4.8-6 3.9-10.2 2.3-6.1-0.8-4.3-3.7-1.6-3.8-0.4-3.8 0-7.5-4.1-5.3 7.4-13.6 1.5-2.2 3.6-2.4 5.4-6.3 10.7-9.2 1.6-2.3 0.8-3.8-0.5-7.4 0.1-5.8 0.6-5.3 1.6-4 1.1-4.1-0.1-4.6-4.9-13.7-2.4-4.8-6.8-5.1-16.6-2.9-13.1-12.3-4.7-7.5-3.8-2.8-3.3 0.5-3.8 2.3-4.4 1.8-6.3 0.4 0.1-1.4 8.2-11.5 3.2-10.1-1.1-5.1-2.8-6 1.8-5.9 15.1-21.9 4.1-4.3 5-3.9 7.1-4.4 9.9-8.1 5.8-11.5-4.1-12.7-16.9-7.3-5-1.3-2.9-3-2.3-3.4-3.3-2.7-4-0.8-13.4 0.8-63.9-31.1-7.3-2.3-13.2-1.9-9.6 9.4-33.3-1.5-3.5 1.2-3.7 2.6-8.1 8.5-3.4 2.4-5.3 1.6-3.5 1.7-2.9 3.8-14.2-1.6-8-4.4-3.7-2.8-1.1-3 1.8-5.3 1.3-6.3 0.3-6 1.6-4.6-0.2-6.6-2-10.3-7.3-25.9-2.1-12-0.3-8.9 0.7-6.1-0.6-19.4-1.2-6.3-1.6-4.6-8.8-11.2-0.9-2.7 0.9-2.2 5.3-5 1.8-3.2 2.4-7.4 1.5-3.1 4.1-5 3.8-5.4 3.5-7.6 3.6-1.2 21.3-12.6 5.3-5.2 13.9-9.8 27.4 0.9 14.3-4.2 20.2-27.1 12.1-8.8 14.5 8.4 11.6 12.8 28.1 15.6 9.6 12.3 15.8 38.4 3.1 4.3 7.5 7.3 2.8 5.9-0.1 6.3-5.9 8.9-0.7 4.9 2.7 4.8 8.7 7.5 3.3 4.7 1.3 5.8-1 10.3 0.8 5.4 4.9 12.5 4.6 5.2 6.7 1 38.4-1 8.7 1.5 69.4 51.2 13.9 15.1 10.8 14.7 21.2 46.4 6.1 20.2 1.4 13.4 0.1 24.3 3.5 14.1 17.6 46.5 2.6 15.1 2.8 10 0 9.5-5.9 13.9-4.6 5.9-4 3.1-3.5 4.1-2.6 9.1 0.1 5.5 2.8 9.3-0.3 5.6-14.3 8.7-0.5 12.7z" id="ALB1502" name="Kukës" data-id="ALB1502" data-name="Kukës">
 </path>
 <path d="M15.1 1639.4l-0.5 0.9-3.8-0.9-1.8-5.5-3.1-7.4-4.9-9.7 1.6-4.8 3.8-0.9 2.3 4.7 1.9 2 5.2 3.5 2.4 3.8-3.1 14.3z m275.5 38.4l8.8 14.6 2.2 5.9 0.5 4.3-1.5 6.6-3.4 6.6-4.6 6.6-8.1 9.1-3.9 2.9 0.3 2.4 2.3 3.7 16.4 17.1 10 14.4 4.7 4.2 6.7 2 0.6 1.8-1.7 2.3-5.5 4.7 2 5.5 4.8 7.5 2.8 6.2 2.4 9.1-0.2 4.1-1 2.8-3.3 3.2 2.8 5.4 18.6 16.3 10.2 25.2 0.7 7.1 2.8 5.7 8 12.2 5.4 13 11.8 31 3.6 5.4 4.3 2.6 7.4 0 11-3.6 3.5-0.7 3.4 0.3 14.1 4.2 4 0.5 6 2.9 44 43.9 9.5 7.3 6.4 2.5 3.2 0 3.3 2.2 12.4 13.5 10.4 8.2 2.8 3.8 3.6 14.9 2.1 5.6 5.4 7.7 5.1 5.9 2.5 5.6 0.8 12.3 7.2 1.4 7.8 0 4 1.2 4.3 2.8 3.1 4.4 1.7 5.4-1.7 17.9 6.1 9.2 1.2 3.6-6.3-1.2-4.7 1.9-4 5.5 1.4 3 3.3 3.1 1.9 5.8-0.9 3.7-3.5 8.8-0.7 2.3 1.4 2.4 4.2 5.2 3.1 8.6 3 3.2 1.7 3.9-1.7 7.9-7.7 9.5-10.5 6.1-8.5 8.2-1.6 16-5-3-4.9-1.6-4.7 0-4.5 1.6-4.5 4.9-0.6 5.6 0.2 5.3-1.9 3.9-8.9 2.2-11.5-5.3-16-14.6-25.8-13.5-22.4-7.3-18.8-6.3-9.1 5.7-1.7 0.7-0.6 4.3-3.8 0-3.1-10.7 2-12.1 8.8-22.2-9.6-4-2.8-2.6 8.5-18.8 10.3-36.6 1.2-8.8-3.6-15.1-5.9-4.2-8.8-0.7-12.4-4.6-0.8-1.8-0.8-6.1-2.2-2.5-7.7-4.5-5.6-2.2-9.6-0.4-4.3-2.9 0-4.6 8.3-10.4 5.5-5.6 5.7-4-9.7-9.4-26.5-51-3.6-9.1-3.9-7.8-4.6-3.3-18-0.6-8.9-1.7-6.1-3.2 4.5-4.5-15.3-10.6-3.2 7-5.2-6.3-3.4-2.2-3.9-3.5-0.8-2.9-4-8.7-4.6-7.2-2.1 1.5-5.5-5.8-37.1-12-31.1-18.6-18-16.3-31.8-10.8-18.5-14.1-53.5-60.1-6.3-10.2-2.7-6.1-7.6-33-4.1-9.1-19.7-19.5-7-9.4-0.9-3.8-3.2-1.3 0-5 15-7.8 9.2-0.8 8.8 6.1 20 24.5 5.3 8.2 7.5 17.5 3 10.7 1.3 10.1 5.3 3.2 11.8-2.7 11.8-5.7 5.2-5.1 3.8-67-1.6-10.9-14.4-8.4-19.3-19.7-15.5-22.1-2.7-15.9 3.8 4.6 3 11.9 4.6-1.3 4.2 0 10.9 12.4 7-3.8 3.7-13.9 1.1-17.7-7-14.2-14.9-7.8-13.5 3.9-2.9 20.4-4.1-11.4-39-57.9-2.9-6.2 14.2-1.3 9-3.2 8.2 0.7 8 1.9 11.9 4.8 8.7 5.5 5.6-0.9 13.4-5.9 2.9-0.2 1.3 1.2 0 5.8 2.2 2.7 3.6 2.8 6.3 3.9 2.2 2.7 0.5 2.7-0.5 2.7 1.1 3.8 2.9 1.5 5.1 0.3 5.5 1.7 13.4 6.9 3.3 2.4 1.7 2.3 0.3 6 1.4 2.8 2.5 0.9 3.7 0.1 4.3-1.4 5.3 0.8 1.4 2-0.5 1.6 1.2 2.8 1.8 7.2 4.8 2.3 5.2-0.4 4.2 2.2 7.5 1.5 10.5-0.1 15.9 11.4 3.8 1.8 6.6 0.2 2.8 1.5 3.6 2.9 4.3 1.9 2.9-1 4.5 1.9 3.5 4.3 2 3.8 0.8 6.8-1.1 6-1.6 1.7 1 2.2 8.4 1.7 2.1 1.3 1.2 2.2 0 4.6-0.9 7.6-0.7 2.2 1.9 10.7-0.1 3.6-1.8 6.4 0 3 1.1 2.8 3.5 3.1 4.3 1.4 5.6-1 7.5 1.8z" id="ALB1504" name="Vlorë" data-id="ALB1504" data-name="Vlorë">
 </path>
 <path d="M762.2 1929.8l-11.2-11.3-8.2-11.8-26.6-28.4-3.8-5.2-3-14.1-14.3-35.5-1.5-9.1 0.3-4 1.7-3.5 2.9-3.9 5.8-5.9 1.5-2.4-1.4-1.3-3-0.7-4.9-0.4-8-1.9-1.3-1.8-10.5-32.5-0.9-5.6 5.2-20.6-0.4-11.2-1.6-5.9-3.4-5.5-9.5-11.5-1.8-5.5 0.2-6.2 3.3-8.7 1.9-2.6 5.3-5.3-9.9-2-7.1-15.1-0.2-4.9 2.3-29.5-1-7.4-2.2-5.2-5.5-5.7-1-2.5-0.4-3.4 1.5-9 4-5.7 3.5-10.1 0-2.4-1.2-2.3-0.4-3.9-3.7-3.8-3-1.2-6.3-0.9-4.9-2.3-8.4-0.2-2.9-1.9-4.2-5.1-2.6-7.8-3.4-4.7-1.4-4.9-8.8-14.8-4.8-14.9-12.2-28.7-2.9-5.4-6.8-8.3 4.4-8.1 21.7-6.2 42.8-5.2 8.8-3.9 7.5-6.1 4.8-7.9 8.5-17.3-15.1-33-6.5-10.2-17.7-23.1-3.3-6.5-6.4-20.1 13.9-7.1 1.5-4.3 1.9-7.8 1.3-11.9 1.4-6.2 3.4-10 3.5-4.1 3.7-2.5 19.9-6.8 7.8-2.4 22.5-13.5 4.3-1.9 5.7 0.4 20.7 7.6 5.9 0.6 2.9-2.4 2-4.3 2-13.6-0.2-4.2-2-11.6-0.3-12.1-0.3-2.3 4.4 2.1 7.7 0.8 7.1-0.4 1 1 1.8 6.6 4.1 1.3 4.2 0 1.8 2.4-2.2 10.3-8.4 14.9-1.3 13.2 6.4 32.2 1.7 13.6 0.3 14.1 1.3 11.4 5 7.6 10.6 2.9 19.8 0.2 6.2-1.8 9.1 7.9 14.2 3.1 9.9-4 18.7-15.7 11.5-2.9 29.7 4.3 27.9 8.4 0.6 0.6-8 10.8 4.8 10.5 10.5 8.6 6.3 4.1 0 3.6-7.5 6.7-4 1.3-2.3 2.6 0.2 6.2 0.6 6.7-0.5 5.3-4.6 6.6-5.5 6.1-5.1 7.2-3.6 10.5 7.3 10 13.7-17 11.2-7.3-2.3 10.8-9.7 11.5 5.5 4.5 2.1 5.6 1.1 6 2.5 5.5 16 15.3 13 15.9-10.6 4.5 0 5.7 13.1-4.6 0.9-0.6 4.3 7.8 3.6 12.9 0.8 14.6-2 13.6-6 25.7-0.9 8.6-0.3 6.1-0.9 5.8-2.9 7.4-3.8 4.3-5.2 2.9-5.2 4.2-3.8 7.6-7.3 2-6 4.2-3.3 6.5 0.4 9.2-3.5 8-5.4 7.6-14 9.6-12.6-3.1-12.8-6.1-15.1 0.3-7.5 5-3 6.2-2.2 7.1-4.6 7.6-5 2.8-11.6 2.8-5 5.2-1 6.9 2.5 20.1 0.3 7.7-2 9.1-2.5 6.1-6.1 11.6-10.4 25.8-4.4 4-6.1 3.2-6.1 4.3-4.4 7.1-2.6 16.8 1.2 14.8-0.2 15.1-6.2 17.5-3.1 2.5-8.3 2.6-2.6 4-0.3 4.5 1.8 8.2 0.2 3.7 2.7 13.6-0.8 3.4-8.5 23.9-2.3 5.1-4.2 2.9-13.9 6.7z" id="ALB1521" name="Korçë" data-id="ALB1521" data-name="Korçë">
 </path>
 <path d="M581.1 1453.5l6.8 8.3 2.9 5.4 12.2 28.7 4.8 14.9 8.8 14.8 1.4 4.9 3.4 4.7 2.6 7.8 4.2 5.1 2.9 1.9 8.4 0.2 4.9 2.3 6.3 0.9 3 1.2 3.7 3.8 0.4 3.9 1.2 2.3 0 2.4-3.5 10.1-4 5.7-1.5 9 0.4 3.4 1 2.5 5.5 5.7 2.2 5.2 1 7.4-2.3 29.5 0.2 4.9 7.1 15.1-24.6 3.1-9.9-0.5-5.1 2.2-0.7 5.1 1.1 6.6 0.2 6-1.6 7.4-4.8 4.2-5.3 2.3-16.3 3.7-6.8 4.2-2.7 2.5-2.9 7-2 8.5-3.9-0.5-12.1-3-5.1-3.1-6.6-6-39.1-50.8-1.4-2.8-13-17.8-2.8-2.6-4.3-0.9-8.8-0.4-5.6-2-3.9-3.1-3.9-7.1-5.3-5.6-11-3.6-0.9 6.4-1.5 4-2.1 0.3-2.9-1.4-5.7-3.8-4.1-0.6-12.1 2.3-22.3-11.4-12.7-0.1-11.7-2.1-18.1-11.4-3.1-13.2-7.1-5.2-7.8-2.7-13.5-9.4-6.1-8.2-8.2-22.8-2.8-4.7-2.9-2.1-2.7-0.4 0.6-1.7 3.7-1.9 4.3-3.4 4.7-4.8 1.1-6.5-2.9-5.7-15.4-17.9-3.6-15.5-2.7-2.6-4.7-3.1-4.8-1.6-7.2-3.8-2.5-3-1.2-8.9 0.4-5.4 2.7-7.2 0.7-7.1-2.1-5.2-10.6-14.1-2.8-6.3-1.4-5.5-0.2-3.3 0.9-7.8 13-0.1 2.9 0.5 2.5-0.8-0.1-7.8 1.9-3.6-0.4-5.7 4-8.7 6.7-3.8 8.5-3 6.2-3.2 2.8 1.5 2.5 4 2.8 3.2 5.7-1.5 18.1 0.6 3.1-5.3-1.3-4.6-2.9-3.6 12.2-4.4 45 5.3 13.8-9.2 4.8-1.6 6.4 2.5 1.8 3.4-2 5.2-0.2 4.7 1.8 6.8 0.2 6.9-1.8 6.8 0 3.2 2.7 2.4 7.8 2.6 9 0.9 6.7 2.7 5 4.3 13.7 23 5 5.1 6.2 3.7 12.8 3.4 6.4 3.5 4.1 3.1-5.3 8.6 12.9 5.8 5 1.3 8.4 0.1 4.9 0.9 4.2 2.9 3.5 7.6 4.4 1.9 18.2-0.4 21.9-7.3z" id="ALB1523" name="Berat" data-id="ALB1523" data-name="Berat">
 </path>
 <path d="M685 1009.6l-0.2 1.5 3 22.6 9.6 40.3 7.1 19 20.8 29.5 8.8 17.4 2.9 16.8-0.4 13.2 4 10.2 11.5 5.4 0.3 2.3 0.3 12.1 2 11.6 0.2 4.2-2 13.6-2 4.3-2.9 2.4-5.9-0.6-20.7-7.6-5.7-0.4-4.3 1.9-22.5 13.5-7.8 2.4-19.9 6.8-3.7 2.5-3.5 4.1-3.4 10-1.4 6.2-1.3 11.9-1.9 7.8-1.5 4.3-13.9 7.1 6.4 20.1 3.3 6.5 17.7 23.1 6.5 10.2 15.1 33-8.5 17.3-4.8 7.9-7.5 6.1-8.8 3.9-42.8 5.2-21.7 6.2-4.4 8.1-21.9 7.3-18.2 0.4-4.4-1.9-3.5-7.6-4.2-2.9-4.9-0.9-8.4-0.1-5-1.3-12.9-5.8 5.3-8.6-4.1-3.1-6.4-3.5-12.8-3.4-6.2-3.7-5-5.1-13.7-23-5-4.3-6.7-2.7-9-0.9-7.8-2.6-2.7-2.4 0-3.2 1.8-6.8-0.2-6.9-1.8-6.8 0.2-4.7 2-5.2-1.8-3.4-6.4-2.5-4.8 1.6-13.8 9.2-45-5.3-12.2 4.4-22.6-6.6-3.4-2.6-4.9-5-5.1-10.3-1.3-4.5-0.4-8.3 2.5-13.2 0.1-3.7-1.4-17.8 0.4-2.5 4.4-8.8 0.7-14.3-7.5-3.1-6.7 0.9-4-2.2-5.8-4.7-5.6-1.1-20.2 1.5-13.7-3.9-8.1-4.8-4.7-6.1-2.7-6.7-1.3-7.9 1-4.5 11.8 2.2 3.7-5.1 0.2-6.6 0.5-5.7 1.8-7.7 4.6-4.6 13.1-6.5 3.6-3.4 1.8-3.2 1.2-8 18-1.4 17.3 1.5 11.1-2.2 7.1-2.9 2.7-3.1 0.2-1.7-5.1-2.3-2.1-4 13.5-11.7 26.8-11.1 12.1-2.7 24.9-12.9 4-3.7 17-19.7 7-11.2 8.2-9.9 4.4-3.1 3.5-0.2 2.5 2.3 3.7 1.7 4.8 1 3.6-1 3.1-2.3 8.9-9 3.7-2.7 9.3-0.9 9.2-17.9 12.5-10.7 5.7-2.9 30.2-8.4 2.6-2.4 1.4-2.5 3.4-8.5 3.3-3.8 3.5-1.7 3.6-0.9 4.1-2.5 1.7-2.3 8.4-6.8 4.1-2.5 4.6-1.8 5.1-0.5 5.2 0.7 6.2 2.6 8.1 0.3 4.5-0.9 4.1-1.5 3.6-3 5.5-7.1 3.1-1.4 2.4 0.5 2.5 3.3 2.1-0.5 3.9-3 3.4-0.3 6.8 2.2 7.1 1.6 8-2.7 5.2-0.9-1.3 6.6 0.2 7.4 1.4 9.9 3.1 7.6 12.7 18.5z" id="ALB1524" name="Elbasan" data-id="ALB1524" data-name="Elbasan">
 </path>
 <path d="M665.1 1665.5l9.9 2-5.3 5.3-1.9 2.6-3.3 8.7-0.2 6.2 1.8 5.5 9.5 11.5 3.4 5.5 1.6 5.9 0.4 11.2-5.2 20.6 0.9 5.6 10.5 32.5 1.3 1.8 8 1.9 4.9 0.4 3 0.7 1.4 1.3-1.5 2.4-5.8 5.9-2.9 3.9-1.7 3.5-0.3 4 1.5 9.1 14.3 35.5 3 14.1 3.8 5.2 26.6 28.4 8.2 11.8 11.2 11.3-21.1 10.1-14 1.3-29.9-4.4-10.2 2.7-8.8 5.1-18.7-2.2-10.6 4.9-7.5 8.7-6.4 11.7-4.7 13-2.4 13.2-9.3 1.9-28.1 0.9-6.8 2.2 2.9 5.7 8.4 44.5 2.9 4.4 13.4 13.3 25.9 43.1 2.2 12.7-4.5 14.6-9.7 10.2-9.6-1.1-10-6.1-20.9-8-1.2-3.6-6.1-9.2 1.7-17.9-1.7-5.4-3.1-4.4-4.3-2.8-4-1.2-7.8 0-7.2-1.4-0.8-12.3-2.5-5.6-5.1-5.9-5.4-7.7-2.1-5.6-3.6-14.9-2.8-3.8-10.4-8.2-12.4-13.5-3.3-2.2-3.2 0-6.4-2.5-9.5-7.3-44-43.9-6-2.9-4-0.5-14.1-4.2-3.4-0.3-3.5 0.7-11 3.6-7.4 0-4.3-2.6-3.6-5.4-11.8-31-5.4-13-8-12.2-2.8-5.7-0.7-7.1-10.2-25.2-18.6-16.3-2.8-5.4 3.3-3.2 1-2.8 0.2-4.1-2.4-9.1-2.8-6.2-4.8-7.5-2-5.5 5.5-4.7 1.7-2.3-0.6-1.8-6.7-2-4.7-4.2-10-14.4-16.4-17.1-2.3-3.7-0.3-2.4 3.9-2.9 8.1-9.1 4.6-6.6 3.4-6.6 1.5-6.6-0.5-4.3-2.2-5.9-8.8-14.6 7.9 1.6 3.3-4.8 16-32.9 3.8-4.7 17-13.8 3.7-4.5 3.7-5.2 3.4-6.6 2.9-3.5 2.7-1.6 7.8-1.1 18.1 11.4 11.7 2.1 12.7 0.1 22.3 11.4 12.1-2.3 4.1 0.6 5.7 3.8 2.9 1.4 2.1-0.3 1.5-4 0.9-6.4 11 3.6 5.3 5.6 3.9 7.1 3.9 3.1 5.6 2 8.8 0.4 4.3 0.9 2.8 2.6 13 17.8 1.4 2.8 39.1 50.8 6.6 6 5.1 3.1 12.1 3 3.9 0.5 2-8.5 2.9-7 2.7-2.5 6.8-4.2 16.3-3.7 5.3-2.3 4.8-4.2 1.6-7.4-0.2-6-1.1-6.6 0.7-5.1 5.1-2.2 9.9 0.5 24.6-3.1z" id="ALB1525" name="Gjirokastër" data-id="ALB1525" data-name="Gjirokastër">
 </path>
 <path d="M720.3 616.3l-0.2 4.1 4.5 19 1.3 15.6-3.6 6.6-13.1 12.9-5.5 7.3-4.5 10.1-1.7 7.9 4.5 54.5 2.9 16 11.9 34.9 0 6.6-3 7.8-4.8 4.9-7.5 4.6-8.1 3.4-27.5 6.1 2.1 10.6-1.6 20.3 3.9 11.2 6.3 2.8 4.3 4.5 7.2 13.8 1.8 5.7 1.2 12.3 1.1 4.1 4 3.4 9.4 1.5 4.2 2.8 6.7 9.6 3.4 9.2-0.1 10.1-4 12.5-5.3 10.2-7.3 9.3-8.1 5-8.1-2.6-2 14.7-12.7-18.5-3.1-7.6-1.4-9.9-0.2-7.4 1.3-6.6-5.2 0.9-8 2.7-7.1-1.6-6.8-2.2-3.4 0.3-3.9 3-2.1 0.5-2.5-3.3-2.4-0.5-3.1 1.4-5.5 7.1-3.6 3-4.1 1.5-4.5 0.9-8.1-0.3-6.2-2.6-5.2-0.7-5.1 0.5-4.6 1.8-4.1 2.5-8.4 6.8-1.7 2.3-4.1 2.5-3.6 0.9-3.5 1.7-3.3 3.8-42.6-15-7.7-5.9-21.3-23-15.8 0.1-3.1 4.4-6 5.8-3.8 0.7-3.5-2-4.9-8-4-4.5-9.5-5.7-10.3-8.9-1.8-3.1-1.6-5.5-3.2-4.5-0.9-2.2-2-8.2-11.8-17.7-10.9-12.1-6.6-5.6-4.7-2.8-6.5-0.3-22.2-17.6-19.9-25.1-4.5-19 0.4-5.4-1.8-5.7-2.7-4.2-8.4-9.5-1.2-3.1 0.8-2.7 1.7-2 2.1-9.4-1.5-31.9 2.3-12.6 6.5 2.8 6.5 4.6 12.2 3.1 8.1-1.1 10-3.2 8.8-4.6 1.8 1.1 3.4 6.7 2.2 2.3 3.9 2.6 11.4 3.6 3.6-1.2 1.9-3.1 0.7-4.8 8.7-6.8 3.7-0.8 5.8 0.1 19.6 3.5 5-1.5 3.7-3.2 2.1-4 2.3-9.1 2.4-3.2 4.2-3 53.9-22.1 4.4-6.8 0.4-4.5-0.4-10.5-2.6-5.3-24.1-20.9-0.9-2.6 1.3-1.9 3.6-1.2 5.8-0.5 7-1.4 6.9-3 5-6.6 7.1-7.5 6.2-4.5 9.4-15.8-0.2-10.8 4.1 5.3 0 7.5 0.4 3.8 1.6 3.8 4.3 3.7 6.1 0.8 10.2-2.3 6-3.9 4.6-4.8 3.2-5.1 3.6-4.3 8.2-3.6 11.3 1.1-0.9 2.4 3.4 14.4 15.7 23.9 3.6 10.9-0.8 5.7 13.8-1.9 7.9-2.9 5.7-3.6 2.3-3.3-3.2-4.5-0.1-2.4 6.2-1.3 11.6-0.4 34.8 6.5 9.2-1.8 9.7-3.1 5.1 0.5z" id="ALB1526" name="Dibër" data-id="ALB1526" data-name="Dibër">
 </path>
 <path d="M532.7 575.2l0.2 10.8-9.4 15.8-6.2 4.5-7.1 7.5-5 6.6-6.9 3-7 1.4-5.8 0.5-3.6 1.2-1.3 1.9 0.9 2.6 24.1 20.9 2.6 5.3 0.4 10.5-0.4 4.5-4.4 6.8-53.9 22.1-4.2 3-2.4 3.2-2.3 9.1-2.1 4-3.7 3.2-5 1.5-19.6-3.5-5.8-0.1-3.7 0.8-8.7 6.8-0.7 4.8-1.9 3.1-3.6 1.2-11.4-3.6-3.9-2.6-2.2-2.3-3.4-6.7-1.8-1.1-8.8 4.6-10 3.2-8.1 1.1-12.2-3.1-6.5-4.6-6.5-2.8-2.3 12.6 1.5 31.9-2.1 9.4-1.7 2-0.8 2.7 1.2 3.1 8.4 9.5 2.7 4.2 1.8 5.7-0.4 5.4 4.5 19-14.8-1.1-4.2-3.1-5.2-4.9-5-6.3-3.1-2-2.8-0.1-3.3 2.4-2.1 5.8-3.7 4.7-6.9 5.1-17.6 5.7-8.8 1-7-0.8-4.1-2.8-3.1-2.9-4.8-6.2-2.4-2.2-9.6-6-3.2-0.2-12.5 5.1-8.6 1.1-3 2-2 4.5-17.8-9.8-1.7-1.3 5-1.6 11-25.9 3.8 0 0.4 8.3 2.1 4.4 3.9 0.7 5.6-2.7-4.5-20.2-2.7-5.2-4.8 4.9-2.5-6.1-16.6-14.9 11.5-20.4-1-23.6-2.9-25.2 0.1-13.6 10.2 3.6 5.3-9.8 0.5-15.9-4.6-14.4-3.6 0.2-31.3-12.9-1.6-8.4-34-27-2.1-9.2 1.7-8.6 4.4-5.9 5.1-0.9 7.5 3.1 19.3 11.8 9.8 4.2 7.9-2.6 6.5-7.2-1.8-15.4-3-8.5-2.5-3.2 6.1-2.6 9.4-1.4 2 0.3 3.8 2.9 3.2 1.7 3.5 0.7 6.3 0.1 2.4 2-4.5 7.9-0.4 3.1 0.9 2.4 7.1 4.3 4.5 0.2 20.5-3.3 4.8 0.6 4.5 2.6 10.1 8.3 7.3 3 5.1-2.1 4.6-3.4 4.1-4 2-2.8 0.6-2.6-0.6-2.9-6.6-14.3 17.3-0.9 10.8-5.5 3.5-0.2 3.9 1.9 4.4 3.3 8.6 3 4.7 0.2 4.2-1.3 3-2.4 3.8-4.8 5.7-5.1 5.4-6.3 6.5-4 5.9-1.7 3.6 0.2 3.3 3.2 1 3.6 1.6 7.9 4.2 11.1 2.3 3.8 11 13.8 1.3 3.3 0.1 2.8-1.2 2.1-4.7 4.5-0.8 3 0.6 3.1 2.3 3.5 3 2.7 4.9 1.7 21.7 0.7 4.4-1.1 3.1-2.5 6.5-12.2 3.9-5.5 12.6-12.5 8.6-5.1 5.1-4.4 5.3-7.8 4.7-15.3 4.9-5.3 6.6-4.5 35.8-18 22.7-21.4 16.6 2.9 6.8 5.1 2.4 4.8 4.9 13.7 0.1 4.6-1.1 4.1-1.6 4-0.6 5.3-0.1 5.8 0.5 7.4-0.8 3.8-1.6 2.3-10.7 9.2-5.4 6.3-3.6 2.4-1.5 2.2-7.4 13.6z" id="ALB1528" name="Lezhë" data-id="ALB1528" data-name="Lezhë">
 </path>
 <path d="M548.8 992.5l-3.4 8.5-1.4 2.5-2.6 2.4-30.2 8.4-5.7 2.9-12.5 10.7-9.2 17.9-9.3 0.9-3.7 2.7-8.9 9-3.1 2.3-3.6 1-4.8-1-3.7-1.7-2.5-2.3-3.5 0.2-4.4 3.1-8.2 9.9-7 11.2-17 19.7-4 3.7-24.9 12.9-12.1 2.7-26.8 11.1-13.5 11.7 2.1 4 5.1 2.3-0.2 1.7-2.7 3.1-7.1 2.9-11.1 2.2-17.3-1.5-18 1.4-1.2 8-1.8 3.2-3.6 3.4-13.1 6.5-4.6 4.6-1.8 7.7-0.5 5.7-0.2 6.6-3.7 5.1-11.8-2.2 1.4-5.4-0.2-3.4-1.9-1.5-4.5 1.4-9.7 5.9-3 1.2-3-0.6-2.6-2.1-5.6 0-2-1.8-4.3-0.7-4.1-2.2-2-0.3-4.2 1.9-5.6 3.5-9.7 7.9-4.6 2.9-5.6 0.7-8.6-0.3-4.8-1.8-2.9 0.4-2.6 1.9-5.2 7.7-2.4 1.2-3.3-1.5-4.5-6.5-2.1-1.9-1.9-0.4-4.7 1.2 2.3 3.7 0.2 4.6-2.9 1.4-1.7-0.2-2.9 2.6-6.1 15.8-4.2-8.5 0.4-4 2.4-3.5 6.1-56.6-2.9-12-3.2-5-2.5-5.9 0.5-4.9 12.2-5.6 1.9-8.4 0-10.1 0.9-8.5 23-37.2 3.9-14.3-0.3-3 14.1-1.8 15.4 6.6 10.6 7.5 11.1-20.7 14.7-12.8 3.4-5.6 1.6-8.1 0.5-8.8-0.5-9.3 1.1-12.8-0.1-5.7-1.2-3.4-5.5-2.5-3.1-3.1-3.2-7.3-0.4-8.9 1.1-42.4 14.7-3.4 11.5 3.1 3.4-1.7 2.7-3.5 1.6-4 2.9-3.5 2.2 1.7 1.6 4.3 1.9 12.5 1.1 3.5 1.9 3.5 4.2 3.9 4.9 10.7 3.5 1.9 6.7 0.2 4.8-1.5 5.8-3 16.5-11.6 23.2-9.5 2.7-1.8 1.8-5.9 1.3-2.2 2.4 1.2 5.5 4.5 4.3 0.6 5-2 9.7-9.5 4.5-5.9 7.3-14.2 1.6-4 1.3-12.2 6.5 0.3 4.7 2.8 6.6 5.6 10.9 12.1 11.8 17.7 2 8.2 0.9 2.2 3.2 4.5 1.6 5.5 1.8 3.1 10.3 8.9 9.5 5.7 4 4.5 4.9 8 3.5 2 3.8-0.7 6-5.8 3.1-4.4 15.8-0.1 21.3 23 7.7 5.9 42.6 15z" id="ALB1529" name="Durrës" data-id="ALB1529" data-name="Durrës">
 </path>
 <circle cx="289.2" cy="1211.7" id="0">
 </circle>
 <circle cx="667.7" cy="1241.1" id="1">
 </circle>
 <circle cx="666.9" cy="794.9" id="2">
 </circle>
</svg>