<?xml version="1.0"?>
<!--
************* Copyright (c) 2017 Pareto Softare, LLC DBA Simplemaps.com *******************		
************* Free for Commercial Use, full terms at  http://simplemaps.com/resources/svg-license ************
************* Attribution is appreciated! http://simplemaps.com ***************************
-->
<svg baseprofile="tiny" fill="#7c7c7c" height="1002" stroke="#ffffff" stroke-linecap="round" stroke-linejoin="round" stroke-width="2" version="1.2" viewbox="0 0 1000 1002" width="1000" xmlns="http://www.w3.org/2000/svg">
 <path d="M310.6 255.2l2.2 14.3 0 3.8-1.4 5.7 0.2 1.7 2.2 2.9 20.2 15.1 2.8 1.2 11.9 2 2.2 0.8 2.2 1.3-0.3 6.4-2.3 10.7-15.2 44.2 0.5 3.7 2.5 5.6 0.3 2.8-0.9 2.9-2.9 2.7-4.7 3-11.7 20.9-2.8 2.8-2.7 1.6-4.4 1.5-1.1 2 0.2 2.5 2.4 4.2 2.1 2 3.6 2.7 0.7 1.6-0.1 1.7-1.4 2.1-1.7 1.5-4 2.5-0.8 1.7 0 2.9 0.5 4.6 4 9.6-2.3 4.8-18.5-4.1-6.9-3.2-5.8-4.5-3.1-1.4-5.2-2.9-3.5-4.2-2.4-0.9-3.4 0.1-6.4 1.6-3.6 2-2.7 1.9-1.8 1-2.1-0.1-2.2-1.5-2.7-3.4-1.3-1.2-1.5-0.7-3.8-0.6-1.9 0.3-1.9 1.6-0.2 2.5 0.5 2.8 1.6 6.1 0.3 4-3.7 3.7-6.7 2.8-37.4-0.3-2.4-0.8-2.5-1.6-4.8-4-4.9-5.7-3-1.9-12-4.2-4.5-2.6-8-6.7-3.5-1.6-8.3-1.7-2.8-1.1-1.7-1.2-3.9-6.2-1.5-1.5-1.7-0.1-2.1 1-3.1 3.8-1.9 2.7-2.1 2.1-2.1 0.3-3.3-1.8-2.4-1.9-2.6-0.5-2.6 1.1-7.3 6.8-7.8 4.7-0.4 0.1-4.6-10.6-14-18.3-8.5-8.1-3.2-6.4 2.1-6.8 2.7-4.6 4.7-15.8 5.5 0.7 1.3-0.5 1.3-1.3 2.4-3.2 2.2-2.1 6.5-3.8 2.2-2 1.7-3.2 1.3-4.6 1.3-2.4 2-2 4.3-2 8.8-2.4 2.8-1.2 9.6-6 2.3-0.7 2.2 0.2 5 3 1.6 0.5 3.9 0.2 3.8 1.3 6.5 5 3.3 1.4 5.2 0.5 13.1-0.3 1.8-0.8 1-1.1 1-3.8 1-1 1.9-0.4 13.1 0.6 1.2 1.2 1.9 2.7 5.1 8.7 2.5 2.7 2.9 0.9 1.8-0.3 2.1-0.8 8.5-5.6 8.5-3.3 4.8-4.1 2.8-1.1 5.3-0.6 1.7-0.7 2.9-2.4 3.9-2.4 1.6-2.2 3.6-2.5-0.7-1.2-3.3-1.9-1.9-1.9-0.5-2.2 0-2.9 1-5.6 3.2-10.6 0.3-2.2-0.3-1.7-1.6-1.1-1.9-0.2-10.1 1.8-4.5 0.1-2.3-1.1-0.5-1.5-1-4.7-1.5-4-2-3.5-2.2-2.9-2.8-2.8-4.8-3.8-0.2-1.5 0.9-2 10.6-10.4 5.3-7.1 10.4-20.6 4.1-0.9 3.7 0.3 2 1 2.4 2.4 3.1 4 1.5 1.7 2.6 1.1 3.3 0.4 5.5-1.1 3.3-1.9 2.4-2.2 2.4-3.5 2.1-1.6 1.5-0.2 4.3 0.2 5 1.2 16.6 6.9 7.9 4.9 2.1 2.3 2.3 3 1.6 6.4z" id="ARM1553" name="Aragatsotn" data-id="ARM1553" data-name="Aragatsotn">
 </path>
 <path d="M310.6 459.2l2.8 4.1 0.6 5.5 0.4 1.7 3.1 3.5-0.7 3.5-2.8 1.6-8.7 3.5-3 1.9-2.1 2.5-4.7 7.7-4.2 3.9-1.6 2.6-0.3 1.8 5.6 11 2.8 7.8 0.7 4.1 0.2 7.3-17.4-10.3-11.5-3.6-10.7 0-19 5.2-9 1.1-6.4 2-3.3 0.4-2.7-0.9-4-3.9-3.1-0.8-6.7 1.8-11 7.7-5 1.7-37.9-6.4-34.5-19.1-28.8-8.3-14.5-8-4.1-11.9 4.4-4.1 14.3-3.1 3.1-5.3-2.1-4.6-9.8-12.2-3.4-7.3 5.8-4.5-0.3-0.7 0.4-0.1 7.8-4.7 7.3-6.8 2.6-1.1 2.6 0.5 2.4 1.9 3.3 1.8 2.1-0.3 2.1-2.1 1.9-2.7 3.1-3.8 2.1-1 1.7 0.1 1.5 1.5 3.9 6.2 1.7 1.2 2.8 1.1 8.3 1.7 3.5 1.6 8 6.7 4.5 2.6 12 4.2 3 1.9 4.9 5.7 4.8 4 2.5 1.6 2.4 0.8 37.4 0.3 6.7-2.8 3.7-3.7-0.3-4-1.6-6.1-0.5-2.8 0.2-2.5 1.9-1.6 1.9-0.3 3.8 0.6 1.5 0.7 1.3 1.2 2.7 3.4 2.2 1.5 2.1 0.1 1.8-1 2.7-1.9 3.6-2 6.4-1.6 3.4-0.1 2.4 0.9 3.5 4.2 5.2 2.9 3.1 1.4 5.8 4.5 6.9 3.2 18.5 4.1z" id="ARM1554" name="Armavir" data-id="ARM1554" data-name="Armavir">
 </path>
 <path d="M230.9 230.8l-10.4 20.6-5.3 7.1-10.6 10.4-0.9 2 0.2 1.5 4.8 3.8 2.8 2.8 2.2 2.9 2 3.5 1.5 4 1 4.7 0.5 1.5 2.3 1.1 4.5-0.1 10.1-1.8 1.9 0.2 1.6 1.1 0.3 1.7-0.3 2.2-3.2 10.6-1 5.6 0 2.9 0.5 2.2 1.9 1.9 3.3 1.9 0.7 1.2-3.6 2.5-1.6 2.2-3.9 2.4-2.9 2.4-1.7 0.7-5.3 0.6-2.8 1.1-4.8 4.1-8.5 3.3-8.5 5.6-2.1 0.8-1.8 0.3-2.9-0.9-2.5-2.7-5.1-8.7-1.9-2.7-1.2-1.2-13.1-0.6-1.9 0.4-1 1-1 3.8-1 1.1-1.8 0.8-13.1 0.3-5.2-0.5-3.3-1.4-6.5-5-3.8-1.3-3.9-0.2-1.6-0.5-5-3-2.2-0.2-2.3 0.7-9.6 6-2.8 1.2-8.8 2.4-4.3 2-2 2-1.3 2.4-1.3 4.6-1.7 3.2-2.2 2-6.5 3.8-2.2 2.1-2.4 3.2-1.3 1.3-1.3 0.5-5.5-0.7 0.3-3.8-12.8-10.9-6.7-7.5-1.3-5.5 10.8-12.9 6.8-4.7 7.5-0.9-0.9-3-1.5-2.9 4.7 1.6 1.9 1.5-0.3-10 4.2-8.6 13.4-15.7-2.4-9.4 1.9-2.6 6.5-11.7 1-3.4-1.7-28.8-1.1-6.8-2.9-7.8-13.1-21.1-3.2-8.2-1.7-9.5-0.7-8.4-1.4-8-3.6-8.2-9.9-12.4-12.4-10.4-13.6-6.8-13.5-1.9-6-5.8-5-11.9-2.6-13.3 1.3-9.8 3.2 0.8 3.1 0.1 3.1-0.7 17-7 13.4-0.5 51.4 7.3 7.7-0.7 6.2-2.6 14.7-12.9 13.5-5.7 29.2-0.6 6.9-1.7-3.7 31.8 0.2 2.4 0.9 1.8 2.7 2.6 2.3 1.2 7.3 3 1.6 1.2 1.9 2.5 5.8 9.5 2.7 3.2 2.4 2.3 5.7 3.8 1.6 2 0.2 1.8-0.2 3.1-1 1.8-1.2 1.3-2.8 2-0.9 1.1-0.3 1.6 0.5 1.6 1.7 2.1 1.9 1.2 2.2 0.8 7.1 0.9 7.1-0.4 1 0.7 0.5 1.5-2.3 13.4-1.3 2.1-3.6 3.5-1.1 2.3-0.5 2.8-0.4 4.4-1.3 2-1.8 1.4-2.6 0.8-2.4 0.1-2.2-0.4-5-2.8-1.3-0.3-1.7 0.3-0.9 0.9-1.7 4.2-2.5 11.3-2.8 5.4 0 2.7 0.9 2.8 2.6 4.3 1.4 3.2 2 5.8 1.6 2.4 2.4 1.6 11.1 1.6 2.3 1.4 2.2 3 2.1 5.3 1 1.7 4.7 1.9 13.1-0.5z" id="ARM1555" name="Shirak" data-id="ARM1555" data-name="Shirak">
 </path>
 <path d="M611.6 267.9l-6.1-2.3-3.9-3.9-2.9-3.9-3.5-3.4-4.1-2.4-5.5-1.5-1.8-0.8-1.7-1.3-7.2-9-1.8-1.7-3-0.9-10.9-1.1-6.2-1.9-2-0.2-2.2 0.7-9.2 7.2-2.6 1.6-12.2 5.1-1.7 1.3-1.5 1.7-1.2 2.1-3.7 9.9-2.5 3.5-3.5 2.4-4.6 1.8-13.2 2.6-4.8-0.7-3.6-1.6-1.9-1.4-3.9-3.7-2.2-1.7-4.6-2.6-4.7-1.4-37.5 8-7.5-6.3 0.3-24.2-2.5-8.1-1.3-2.4-3-10 0-2 2.2-2.8 2.3-1.9 5.9-2.9 10.8-2.9 2.2-1.1 2-1.6 1.7-2.4 1.8-3.3 6.6-21.6 1.3-2.8 1.5-2.2 3.9-3 2.6-3 1.9-1.6 1.6-1.8 0.8-2.1-1.7-3.3-4.8-4.5-1.4-3-1.1-1-5.8-3-1.1-0.2-4.3 0-4.6-0.5-2.1-0.6-4-2.3-7.9-7-3-3.5-1.2-2-0.2-2.2 0.5-2.5 10.3-11.9 1.9-1.5 2-0.5 2.2 0.1 2.2 1.1 4 2.9 2.5 0.8 2.7-0.2 3.4-1.5 20.4-15.8 0.8-2.7-0.5-3.3-3.7-5.7-3.2-2.6-3.4-1.7-2.6-0.7-2.4-2.3-1.5-4.1-1.2-8.8 0.5-5.7 0.8-2.9 1.3-1.2 4.6-2.6 4.4-3.3 1.4-1.6 0.8-2 0.2-2.1-0.7-2.5-3.2-3.4-10.7-7.2-7.6-0.8-2.1-3.1-11.9-5.7-2.6-5.9 6.2-6.2 30.4 4.8 11.9-0.4 3.9-2.6 7.1-6.5 3.9-2.5 11.7 24.9-3.2 8.8 1.8 5.2 5.4 2.3 20.5 0.1 5.4 1.7 16.5 13 4.1 5.9 0.4 6.7-10.8 7.9-31.2-1.3-3.3 13.5 4 6.9 6.9 4.7 6.1 0.6 1.9-5 0.9-7.6 5.2 2.8 10.3 10.8 6.5 4 4.8 5.3 5.2 4.4 14.9 1.7 13.8 5.7 7.2 1.2 17.7-8.9 8.7-1 1.9 9.9-2.8 13.5 3.9 4.3 7.6 2 8.3 6.9 13.5 17.4 5 5.1 6.4 2.1 7.4 0.5 5.5 2.9 0.6 9.2-5.9 17.2-8.3 9.5-37.2 17.9-12.3 10.2-8 14 0 10z m-48.2-136.6l-9.1-7.8-2.5 0-2.1 1.7 3 9.6 7.3 1.2 3.4-4.7z m-60.1-28l-3.5-12-12.4-3-4.9 3.5-1 5.8 2 6.3 3.9 5.1 11.4 3.9 4.5-9.6z" id="ARM1670" name="Tavush" data-id="ARM1670" data-name="Tavush">
 </path>
 <path d="M503.3 469.9l-1.6 11.8-3.5 13.6-0.3 5.2 0.6 4 13.4 32.7 1.9 5.1 1.5 1.7 3.5 1.5 1.3 1.4 0.3 2.7-0.2 9.3 0.6 3.7 1.1 3.5 1.9 4.7 0.8 3.7 0.7 8.9 0.4 2.8 2.7 6.2-7.5 16.8-2.2 6.7-0.3 1.4 0 13.7-0.9 9-2.4-3.1-10.7-5.4-11.8 4.1-11.6 9-10.1 5.7-10.7 2.5-13.8-0.2-14.6 2.7-9 3.9-4.9-8.3-19.3-25.5-1.8-3.2-1.5-1.3-1.5-0.4-3.5 0.6-1.6-0.2-5.9-3.6-11.4-13.2-4.2 2.6-1.2-2.4-0.1-4.6-0.9-4.1-4.8-3.5-2.7-2.7-1.1-3.6-1.5-6.2-3.5-6-8.1-9.1-18.3-15.9-26.3-15.4-0.2-7.3-0.7-4.1-2.8-7.8-5.6-11 0.3-1.8 1.6-2.6 4.2-3.9 4.7-7.7 2.1-2.5 3-1.9 8.7-3.5 2.8-1.6 0.7-3.5 3.8-0.9 1.4 0.6 2.2 1.9 0.7 1.5 0.2 3.8-0.9 5-0.2 2.3 0.6 3.2 1.7 3.4 2.7 2.6 11.1 2.6 3.1 1.4 2.2 1.9 2.7 6.7 1.7 2 3.2 2.6 2.9 0.2 3.8-0.9 8.6-5.8 13.8-18.5 3 1.5 3 7.2 2.2 2.2 3.8 2.1 2.2 0.3 15.7-2.8 12.8-4.2 23.7-13.4 9-3.8 11.5-3.3 12.2-5.1 9.6-1.1 11.8 0.7z" id="ARM1671" name="Ararat" data-id="ARM1671" data-name="Ararat">
 </path>
 <path d="M666.3 280.2l-10.5 8.2-10.9-3.3-1.9-4-0.6-4.3 0.7-4.4 1.8-4.1 4-2.8 4.3-1.3 4.6-0.1 4.6 0.6 8.2 4.7-4.3 10.8z m-54.7-12.3l0 7.7 4.5 9.6 6.1 6 6.3 5.1 5.5 6.8 1.3 4.1 0.7 9.2 1.4 4.5 2.9 3.2 6.6 4.4 2.6 4.8 10.2 21.8 18.7 17.5 73.4 41.8 13.7 15.1 6.3 0.3 6.6-1.9 6.9-0.5 4.6 2.5 4.5 4.4 8.1 10.7 0.6 2.4 0.2 2.4-0.2 2.5-5.7 26.5-3.9 10.1-6 8.1-7 6.2-1.1 3.1-3.7 18.9-2.2 4.4-4.2 3.6-22 2.1-51.8-8.6-20 13 0.4 4.1-1.2-0.1-2.8-1.9-1.6-2.2-1.7-1.7-2.6-0.2-3.1 3.1-3.2 5.2-4.5 3.9-11.1 5.9-5.3 1.7-21.5 3.7-7.9 0-9.7 1.8-23.2-1.3-2.9 0.6-9.9 3.9-3.9 2.1-3.9 2.8-12.6 11.6-14.9 9.7-2.7-6.2-0.4-2.8-0.7-8.9-0.8-3.7-1.9-4.7-1.1-3.5-0.6-3.7 0.2-9.3-0.3-2.7-1.3-1.4-3.5-1.5-1.5-1.7-1.9-5.1-13.4-32.7-0.6-4 0.3-5.2 3.5-13.6 1.6-11.8-4.8-7.2-21.4-25.3-1.2-2.6-0.2-2.7 0.8-4.6 1.7-2.7 2.9-3.4-0.6-4.8-14.8-54.9-1-2.8-2.6-2.8-9.3-6.4-1.1-1.5-0.5-2 0.5-3 1.3-5.1 0.6-2.9-0.4-3.5-1.4-3.8-3.4-5.6-2.2-2.8-1.9-1.6-1.7-0.4-7.1 0.4-2-0.4-1.6-1.9-1.4-3.2-3.4-22.1 0-3.9 0.5-3.4 3.1-6.6-1-8 37.5-8 4.7 1.4 4.6 2.6 2.2 1.7 3.9 3.7 1.9 1.4 3.6 1.6 4.8 0.7 13.2-2.6 4.6-1.8 3.5-2.4 2.5-3.5 3.7-9.9 1.2-2.1 1.5-1.7 1.7-1.3 12.2-5.1 2.6-1.6 9.2-7.2 2.2-0.7 2 0.2 6.2 1.9 10.9 1.1 3 0.9 1.8 1.7 7.2 9 1.7 1.3 1.8 0.8 5.5 1.5 4.1 2.4 3.5 3.4 2.9 3.9 3.9 3.9 6.1 2.3z" id="ARM1672" name="Gegharkunik" data-id="ARM1672" data-name="Gegharkunik">
 </path>
 <path d="M422.2 262.1l7.5 6.3 1 8-3.1 6.6-0.5 3.4 0 3.9 3.4 22.1 1.4 3.2 1.6 1.9 2 0.4 7.1-0.4 1.7 0.4 1.9 1.6 2.2 2.8 3.4 5.6 1.4 3.8 0.4 3.5-0.6 2.9-1.3 5.1-0.5 3 0.5 2 1.1 1.5 9.3 6.4 2.6 2.8 1 2.8 14.8 54.9 0.6 4.8-2.9 3.4-1.7 2.7-0.8 4.6 0.2 2.7 1.2 2.6 21.4 25.3 4.8 7.2-11.8-0.7-9.6 1.1-12.2 5.1-11.5 3.3-9 3.8-23.7 13.4-12.8 4.2-15.7 2.8-2.2-0.3-3.8-2.1-2.2-2.2-3-7.2-3-1.5-2.5-6.2-2-1.5-2.1-0.7-6.1 0.8-5.4-0.4-2.1-1.5-0.8-2.4 0.5-2.8 1.9-5.4 2.1-3.7 5.1-5.5 1.3-1.7 0.8-1.8-1.9-2.9-2.7-2.5-4.5-6.1-3-1.8-2.5-0.8-3.5 1-8.9 4.5-2 0.5-12.2 1.1-3.9-1-1 0.1-2.9 1.7-2.6 0.6-4.9-0.7-2.5 1-1.6 2.9-4-9.6-0.5-4.6 0-2.9 0.8-1.7 4-2.5 1.7-1.5 1.4-2.1 0.1-1.7-0.7-1.6-3.6-2.7-2.1-2-2.4-4.2-0.2-2.5 1.1-2 4.4-1.5 2.7-1.6 2.8-2.8 11.7-20.9 4.7-3 2.9-2.7 0.9-2.9-0.3-2.8-2.5-5.6-0.5-3.7 15.2-44.2 2.3-10.7 0.3-6.4-2.2-1.3-2.2-0.8-11.9-2-2.8-1.2-20.2-15.1-2.2-2.9-0.2-1.7 1.4-5.7 0-3.8-2.2-14.3 26.3-6.8 7.8-0.6 5.2 3.5 3 1.3 2.5-0.4 6.2-2.8 2.3-0.1 2 0.5 15.8 8.3 12.9 4.1 15 1.4 3.3-0.1 9.3-1.4z" id="ARM1673" name="Kotayk" data-id="ARM1673" data-name="Kotayk">
 </path>
 <path d="M447.8 29.1l7.6 0.8 10.7 7.2 3.2 3.4 0.7 2.5-0.2 2.1-0.8 2-1.4 1.6-4.4 3.3-4.6 2.6-1.3 1.2-0.8 2.9-0.5 5.7 1.2 8.8 1.5 4.1 2.4 2.3 2.6 0.7 3.4 1.7 3.2 2.6 3.7 5.7 0.5 3.3-0.8 2.7-20.4 15.8-3.4 1.5-2.7 0.2-2.5-0.8-4-2.9-2.2-1.1-2.2-0.1-2 0.5-1.9 1.5-10.3 11.9-0.5 2.5 0.2 2.2 1.2 2 3 3.5 7.9 7 4 2.3 2.1 0.6 4.6 0.5 4.3 0 1.1 0.2 5.8 3 1.1 1 1.4 3 4.8 4.5 1.7 3.3-0.8 2.1-1.6 1.8-1.9 1.6-2.6 3-3.9 3-1.5 2.2-1.3 2.8-6.6 21.6-1.8 3.3-1.7 2.4-2 1.6-2.2 1.1-10.8 2.9-5.9 2.9-2.3 1.9-2.2 2.8 0 2 3 10 1.3 2.4 2.5 8.1-0.3 24.2-9.3 1.4-3.3 0.1-15-1.4-12.9-4.1-15.8-8.3-2-0.5-2.3 0.1-6.2 2.8-2.5 0.4-3-1.3-5.2-3.5-7.8 0.6-26.3 6.8-1.6-6.4-2.3-3-2.1-2.3-7.9-4.9-16.6-6.9-5-1.2-4.3-0.2-1.5 0.2-2.1 1.6-2.4 3.5-2.4 2.2-3.3 1.9-5.5 1.1-3.3-0.4-2.6-1.1-1.5-1.7-3.1-4-2.4-2.4-2-1-3.7-0.3-4.1 0.9-13.1 0.5-4.7-1.9-1-1.7-2.1-5.3-2.2-3-2.3-1.4-11.1-1.6-2.4-1.6-1.6-2.4-2-5.8-1.4-3.2-2.6-4.3-0.9-2.8 0-2.7 2.8-5.4 2.5-11.3 1.7-4.2 0.9-0.9 1.7-0.3 1.3 0.3 5 2.8 2.2 0.4 2.4-0.1 2.6-0.8 1.8-1.4 1.3-2 0.4-4.4 0.5-2.8 1.1-2.3 3.6-3.5 1.3-2.1 2.3-13.4-0.5-1.5-1-0.7-7.1 0.4-7.1-0.9-2.2-0.8-1.9-1.2-1.7-2.1-0.5-1.6 0.3-1.6 0.9-1.1 2.8-2 1.2-1.3 1-1.8 0.2-3.1-0.2-1.8-1.6-2-5.7-3.8-2.4-2.3-2.7-3.2-5.8-9.5-1.9-2.5-1.6-1.2-7.3-3-2.3-1.2-2.7-2.6-0.9-1.8-0.2-2.4 3.7-31.8 7.3-1.8 12.7-5.8 6.3-0.6 13.3 3.7 6.7-1.2 6.2-3.3 4.9-5 1.6-4.1 0.3-3.5 0.8-3.2 3.7-2.6 3.4-0.1 8.5 3.6 15.3 10.6 5.8 2.2 7.4-1.2 2.9-2 2.3-2.6 2.6-2.3 3.7-1.2 3.9 0.4 16.8 10.3 6.9 2.5 7.1 0.5 7.6-2.2 6.4-7.2 2-1.5 3.4-0.1 1.7 3.1 1.1 4.3 1.7 3.2 6.5 1.9 4.7-4.2 3.8-6.7 4.1-5.4 6.7-3.1 6.4 0.9 13.2 5.3 46.2 0.9 8.3-1.1 3.1-4.4-1.2-1.7z" id="ARM1674" name="Lori" data-id="ARM1674" data-name="Lori">
 </path>
 <path d="M382.8 489.6l-13.8 18.5-8.6 5.8-3.8 0.9-2.9-0.2-3.2-2.6-1.7-2-2.7-6.7-2.2-1.9-3.1-1.4-11.1-2.6-2.7-2.6-1.7-3.4-0.6-3.2 0.2-2.3 0.9-5-0.2-3.8-0.7-1.5-2.2-1.9-1.4-0.6-3.8 0.9-3.1-3.5-0.4-1.7-0.6-5.5-2.8-4.1 2.3-4.8 1.6-2.9 2.5-1 4.9 0.7 2.6-0.6 2.9-1.7 1-0.1 3.9 1 12.2-1.1 2-0.5 8.9-4.5 3.5-1 2.5 0.8 3 1.8 4.5 6.1 2.7 2.5 1.9 2.9-0.8 1.8-1.3 1.7-5.1 5.5-2.1 3.7-1.9 5.4-0.5 2.8 0.8 2.4 2.1 1.5 5.4 0.4 6.1-0.8 2.1 0.7 2 1.5 2.5 6.2z" id="ARM1675" name="Erevan" data-id="ARM1675" data-name="Erevan">
 </path>
 <path d="M717.4 714.2l-1.8-4.8-0.7-3.8 8.5-33.1 1.2-8.7-0.2-6.3-5.9-11.1 0.7-4.5 2.7-6.1 16.7-28.5 4.8-5.8 5.5-3.2 2.4 5 14.2 14.2 17.1 8.8 19.9 6 8.6 8.4 12.2 24.8 9.9 7.9 11.9 3.5 5.5 3.1 4.5 5.6 7.4 14.1 4.6 4.4 7 2.2 11-2.3 21.5-11.1 10.8 0.8 4.5 3.7 7.4 10.1 4.7 3.4 6.2 1.1 19.9-1.9 5.1 1.1 5.2 3.4 3.9 5.3 1 6.7-2.9 5.2-4.6 2.9-3.7 3.3-0.1 6.8 2.2 4.3-0.1 3.8-2.2 3-3.8 1.9-23.2 4.3-10 6.3-4.1 10.5 4.3 12.8 10.4 8 22.6 10.2 5.1 4.1 2.3 5.9 1.7 6.5 3 6 7.6 8.1 13.5 9.5 2.1 1.9 2.1 2.4 1.5 3.9-2.8 1.4-6.6 0.2-14.6 10.5-3.9 0.5-19.1-9.7-11.1-1.4-7.2 6.8 0.3 12.5 8 8 10.5 6 7.6 6.2 4 13.3 1.8 11.5-0.9 11.4-4.2 12.9-1.8 7.4-0.5 5 0.3 4.9 1.3 4.7 11 23.2-5.7-1.6-32.8-14.7-4.3-0.9-3.4 0.4-7.6 2.5-12.2 0.5-4.2 1-6.1 2.9-16.4 11.9-5.5 2.7-21 2.8-18.4-35.2-16.4-45.9-6.4-12.9-8.2-11.8-6.6-11-2.9-10.6 1.9-10.4 9.8-12.8 0.6-2.9-0.7-3.1-2.1-3.2-6.4-6.2-22.6-11.1-7.5-5.8-6-6.5-6.5-5.3-17.9-4.7-2.6-6.1 2-8.2 10.6-17.5 1.4-6.4-2.9-18.7 1.1-10.4-0.1-6.9-2.8-5.2-7.2-5.2-8.7-3.3-7.3 0.1-1.7 0.4z" id="ARM1732" name="Syunik" data-id="ARM1732" data-name="Syunik">
 </path>
 <path d="M675.9 543.8l0.6 5.7 10 4.5 32.9 3.4 8.6 4.3 6.8 7.5 14.1 29.1-5.5 3.2-4.8 5.8-16.7 28.5-2.7 6.1-0.7 4.5 5.9 11.1 0.2 6.3-1.2 8.7-8.5 33.1 0.7 3.8 1.8 4.8-38.7 9.5-8.4 3.5-25.4 16.2-3.3 1.4-3.5 1.8-3.6 0.7-3.6-0.5-3.4-2-10-10.3-5.5-2.9-14.9-1.3-4.6-1.9-3.2-4.6-3.7-8.5-9.8-13.9-8.4 2.9-9 8.4-11.6 2.7-6.2-4-1.2-5.9 3.1-14.8 0.5-9.5-1.4-7.6-3.2-6.8-20.9-26.8 0.9-9 0-13.7 0.3-1.4 2.2-6.7 7.5-16.8 14.9-9.7 12.6-11.6 3.9-2.8 3.9-2.1 9.9-3.9 2.9-0.6 23.2 1.3 9.7-1.8 7.9 0 21.5-3.7 5.3-1.7 11.1-5.9 4.5-3.9 3.2-5.2 3.1-3.1 2.6 0.2 1.7 1.7 1.6 2.2 2.8 1.9 1.2 0.1z" id="ARM1733" name="Vayots Dzor" data-id="ARM1733" data-name="Vayots Dzor">
 </path>
 <circle cx="268.8" cy="431.8" id="0">
 </circle>
 <circle cx="430.9" cy="303" id="1">
 </circle>
 <circle cx="591" cy="506.3" id="2">
 </circle>
</svg>