<?xml version="1.0"?>
<!--
************* Copyright (c) 2017 Pareto Softare, LLC DBA Simplemaps.com *******************		
************* Free for Commercial Use, full terms at  http://simplemaps.com/resources/svg-license ************
************* Attribution is appreciated! http://simplemaps.com ***************************
-->
<svg baseprofile="tiny" fill="#7c7c7c" height="1125" stroke="#ffffff" stroke-linecap="round" stroke-linejoin="round" stroke-width="2" version="1.2" viewbox="0 0 1000 1125" width="1000" xmlns="http://www.w3.org/2000/svg">
 <path d="M826 320.6l-0.3-0.1-4.5 2.6-1.3 1.7-1.7 1.8-1.7 1.3-6.6 1.2-4.8 1.6-2.7 1.4-1.7 1.4-0.5 0.7-0.5 0.7-1.2 1.4-1.6 1.2-10.4 2.6-5.4 0-4.2-0.8-3.7-0.3-4.5 1-1.7 0-2.3 0.3-4.2 1.7-2.2 0.6-3.5 0.4-1.5 0.5-2.4 1.2-3.3 2.3-2.4 3.1-5.9 4.1-4 4.9-2.6 4.3-0.8 2-1.2 4-1.1 2.2-1.8 2.1-3.5 1.8-5.5 1.9-12.5 5.7-1.1 0.9-0.9 1.6-0.7 1.7-1.2 3.7-0.8 1.7-1.5 1.6-2.6 1.1-4.4 0.8-2.6 0.9-3.5 2.2-12.3 10.4-1.8 1.6-0.8 0.9-0.9 1.1-0.6 2.1-2.1 16.2-0.5 2-0.9 2.2-2.6 4-3.6 3.9-5.3 3.5-11.4 2.7-2.7 2.3-2 1.3-2.5 1.3-7.6 1.2-3 1.6-3.2 2.8-4.1 2.7-5.8 1.8-1.8 0.9-2.6 1.7-4 3.7-2 1.3-2.1 1.2-5.6 1.9-8.1 1.1-2 0.4-2.2 0.8-2.5 1.8-3.6 3.6-2.1 1.7-7 3.4-5.9 1.2-14.6-0.7 1.5 0.6-2.4 0.6-1.5 0.6-2.1-0.5-1.9-0.9-8-5.6-4.2-3.6-1.7-2.1-1.2-2-0.6-2 0.2-1.9 1.4-3.5 0.9-1.6 1.3-1.2 2.1-3.5 0.7-1.9-0.1-1.7-0.9-1.2-0.9-0.7-34.5-13.2-7.6-2.8-2.3-0.2-3.1-0.5-1.4-1.2-0.7-1.6-0.3-1.9-2.1-3.3-1.6-0.9-3.4-1.1-1.5-0.4-0.9-0.5-1-1.1-0.8-1.4-1.1-1.4-3-1.8-0.9-1.5-0.3-3.5-0.2-1.5-0.3-1-1.2-2.1-1.4-2.1-2.7-5.9-0.4-2.2 0.3-2 1.4-1.8 1.7-1.3 2.1-1 9.6-3.3 1.3-0.7 1.2-1.6 1-3.8 1.7-4.3 0.2-2.8-1.5-7.8-0.1-2.2 0.2-1.7 0.4-2.3 1.3-6.1 0.3-14.2-0.7-4.7-1.2-2.5-1.5-2.3-1.2-2.3-0.7-3-0.1-2.3 0.4-2.1 0.8-1.9 1-1.5 0.6-1 1.1-1.4-0.8-0.9-0.8-2-0.4-2.1 0.2-10.2-2-1.4-0.6-0.9 0.4-1 0.6-0.9 0.1-0.9-0.1-0.9 0.2-1 0.6 0.8 4.5 1.1 2.3-0.1 6.8-2.4 2.5 0.2 2.7 1 1-0.1 5-2.8 1.3-0.2 2.7 0.3 2.4 1.1 4.1 3.5 2.1 0.5 7.2-0.2-0.5-2 0.1-2.3 0.8-1.8 1.4-0.9 1.3-0.3 3.2-1.6 1.3-0.2 10 0.4 3 1.2 1 0 1.3-0.3 1.8-1 1.3-0.2 4.9-0.1 0.5 0.1 1.6 0-0.4-3.1 0.1-1.6 1-0.7 5.8 0.1 12.1 0 0.7 0.4 0.4 2.3 0.5 1 1.2 1.9 46.9 0-1.7-6.3-0.3-2.1 0.2-2.5 3.6-11.2 0.3-2.1-0.1-2-0.6-2.1-0.9-2.2-0.7-2.1 0.2-2.2 5.6 0.5 1.5-0.4 1.2-1.2 0.8-3.2 1.1-1.4 2.5-2 0-2.5-2.1-5.4-0.6-2.8-0.3-2.5 0.9-13.2 0.8-2.6 0.9-1.5 2.2-2.8 0.6-1.3-0.2-0.9-1.5-3.2 62.2 0 0-1.2 0.3-2.7 0.4-1.1 0.7-1.3 0.6-0.5 1-0.1 22.5-0.1-7 18.4-0.5 3.8 0.2 7.9 9.6-0.1 5.9 0 5.8 0 11.8 0 5.8-0.1 11.7 0 46.9-0.1 2.7 0 1.6 0 0 0.3 0.3 0.4 0.5 0.2 0.7 0.4 0.5 0.6 1.8 3.9 0.4 0.5 0.5 0.7-0.2 0.7-0.4 0.6-0.2 0.4 0.5 0.9 1 1.2 0.2 1-0.1 0.5-0.4 0.8-0.1 0.4 0.2 0.4 0.8 0.8 0.2 0.5-0.2 1-0.7 1.6-0.3 1 0 1 0.4 0.9 0.2 0.8 0 3.1-0.3 0.6-1.1 1.2-0.3 0.5-0.1 1.5-1 2.7-1.9 5.7-2 5.7-0.5 3.6 0.5 2.1 0.1 1-0.3 0.9-1.1 1.6-0.3 0.8 0.2 5.5 0.4 1.5 0.8 0.6 2.5 1.5 0.6 0.9 0.1 2 0.6 1.6 0.8 1.5 2.1 2.3 0.5 1.1 0.2 1.4 0.2 3.5 0.9 3.8 0.6 1.5 2.4 2.3 0.8 1.5-0.6 0.4z" id="AGO1874" name="Lunda Norte" data-id="AGO1874" data-name="Lunda Norte">
 </path>
 <path d="M826 320.6l-0.7 0.3-0.4 0.9 0.9 2.1 2 3.2 0.6 3.5-0.3 3.6-1.9 6.2 1 0.5 0.6 0-1.5 2.6-0.8 2.5-1.8 11.2-0.6 0.5-0.6 2.7-0.8 2-0.7 6.5 0.2 4.2-1.1 9.3 0.9 8.2 0 3.4-0.8 3.4-2.5 5.1-0.5 2.8-0.9 1.7-0.1 1 0.4 0.9 1.3 1.7 0.6 0.8 0.9 3.4 1 7.1 0.8 3.4 2 3.2 5.1 5.4 1.2 3.2 0.5-0.3 1.2-0.5 0.5-0.3 0.2 2.7 0.9 2.3 4.7 5.4 0.8 0.5 0.5-0.2 0.6-0.6 0.9 0.4 1.3 1.2 3.1 2 1.1 1.3 0.7 1.8 0.6 2.9 1.7 4.4 0.7 3.5 0.4 1-0.6 2.7 1.5 3.7 1.9 3.7 1.5 3.8 1.9 3.4 0.7 2.4 1.1 1.5 0.3 0.9-0.1 1-0.4 1.6-0.1 0.8-0.4 1.3-1.8 2.9-0.5 1.7 0.1 1.8 0.8 1.1 1 1 0.8 1.8 0.3 3.4-0.1 1.6-3 1.1-2.4 0.1-0.8-0.1-0.9-0.4-1.4-0.9-0.9-0.4-4.3-1.2-0.8 0-1.6 0.1-0.7 0-0.6-0.2-0.5 0-0.3 0.2-1.4 1.4-1.3 0.4-13.3 1.3-4.9-0.3-1.4 0.2-0.9 0.2-1 1.2-1.4 2.5-0.9 2.5-0.3 2.5-0.5 1.3-0.1 0.4 0 1.1 0.3 3 0 0.6-0.3 0.6-0.6 0.6-2.4 1.8-0.8 0.9-1.7 2.1-0.2 0.8 0 1.6-0.5 1.7-0.1 2.7-0.3 0.8-0.7 1-0.1 0.5 0 0.5 0.3 1.3 0.5 0.7 0.8 0.8 0.4 1.3 0.6 0.4 0.9 0.1 0.3 0.4-0.2 0.8 0 0.9 0.2 0.7 0.3 0.4-0.4 2.7-0.9 0.6-0.4 0.1-2.1 0.8-1 0.6-3.9 1.8-0.7 0.1-2.1 0-1.2-0.2-0.3-0.2-0.6-0.6-0.4-0.2-0.7 0.5-0.5 0-1.2-0.2-0.7 0.5-0.4 0.8-0.7 0.9-0.4 0.4-5.1 1-1.3 0.9-0.5 0.2-3.4 0.8-4.2 2.1-1.9 0.5-2.5 0.4-0.9 0.4-0.5 0.4 0.2 0.7-1.2 1.8-1.1 1-0.9 0.4-0.8 0.8-1 1.4-0.3 0.7-0.7 0.7-1.1 0.7-0.9 0.2-1.8-0.1-0.6 0-0.9 0.7-1.5 0.7-2.2 1.4-0.3 0.5-0.1 0.5 0.1 0.5 0.7 1.4 0 0.9-0.3 0.5-3.6 0.3-6.8-0.4-1.5-0.2-0.8-0.3-0.7-0.2-1.2 0-1.1-0.1-1.3-0.3-3.3-1.1-1-0.2-1.3 0.1-0.6 0.1-1.1-0.5-0.2-0.8-1.1-1.2-0.5-0.2-0.6 0-1.8 0.3-0.8-0.3-0.4-0.2-2.4-1.7-0.6-0.2-3.8-1-1.1-0.6-0.3-0.3-0.3-0.8-0.3-0.3-0.4-0.2-0.6 0-1.6 0.1-1.8-0.5-0.5-0.3-0.6-0.5-1-0.6-0.6-1-0.7-0.6-1.5-0.6-0.8-0.7-1-0.4-1-0.6-0.5 0-0.7 0-0.8 0.4-1 0.7-0.9 0.1-1.4-0.6-0.5-0.1-1.4-0.2-0.4-0.2-0.5-0.5-0.3-0.6-0.5-0.5-0.5-0.2-2.3-0.9-1.4-0.2-0.7-0.3-1.1-0.9-1.7-0.6-0.4-0.2-0.5-0.6-0.4-0.2-0.7 0.1-1.2 0.5-0.5 0.4-1.2 1.4-0.7 1-0.8 0.8-0.8 1-0.5 0.5-0.9 0.6-0.3 0.1-1.8-0.4-1.2-0.6-1-0.4-0.7-0.5-0.5-0.2-0.8 0-1.5 0.3-2.4-0.2-0.5 0.1-0.4 0.4-0.5 0.8-0.3 0.8-0.3 0.5-0.5 0.4-0.6 0.2-1.1 0-1.2-0.3-0.6-0.3-0.3-0.4-0.5-1.2-0.3-0.4-0.9-0.5-0.9-0.1-0.9-0.5-0.3-0.3-0.6 0.1-0.6 0.5-2.5 2.3-0.9 0.6-3.1 0.9-1.3 0.2-1.3-0.2-4-1.7-3.3-2.4-1.3-0.1-3.2 0.7-1 1.2-0.4 0.8-0.1 0.6-0.8 1.6-2.6 2.1-0.8 0.9-1.9 1.4-0.8 0.8-0.6 0.4-4.5 2.4-1.5 0.2-3.6 0-0.5-0.1-1.1-0.6-0.9-0.2-1.1 0-0.9 0.1-0.9 0.4-1 1.1-0.5 0.7-1.2 0.7-3.8 1.4 0-2.1 0.7-3.2 0.8-2 0.5-2.1 1.8-4-0.1-1.9-1.1-1.8-1.6-1.5-2.7-1-4.3-0.9-2-0.8-1.8-1.5-3.8-4-3.8-3-17-10.9-0.7-2.1-1-1.8-1.3-1.5-1.4-1.3-3-2.7-1.3-1.6-1.1-1.9-0.9-2.3-0.5-2.1-0.3-4.6-0.2-0.5-0.8-0.5 0.2-0.7 0.5-0.5 0.4 0.2 0.5 0.4 0.5 0 1.5-0.8 0-0.5-0.9-1 1.1-0.5 0.5 0-0.3-0.9 0.1-0.6 0.5-0.5 0.8-0.3-0.5-0.2-1.2-0.9 0.4-0.3 0.8-0.9-1.1-0.2-0.8-0.6-0.4-0.8 0.1-1.2-1.1 1.2-1.8-0.9-0.9-0.6-0.7-0.8-0.5 0.6-0.6-1.1-1.4-1.3-0.5-2.4-1-1.3-0.4-1.2-1 0-1.6-0.7-1.2 0.1 0.7-1.3 0.4-0.4-2.1-2-1.5-0.6 14.6 0.7 5.9-1.2 7-3.4 2.1-1.7 3.6-3.6 2.5-1.8 2.2-0.8 2-0.4 8.1-1.1 5.6-1.9 2.1-1.2 2-1.3 4-3.7 2.6-1.7 1.8-0.9 5.8-1.8 4.1-2.7 3.2-2.8 3-1.6 7.6-1.2 2.5-1.3 2-1.3 2.7-2.3 11.4-2.7 5.3-3.5 3.6-3.9 2.6-4 0.9-2.2 0.5-2 2.1-16.2 0.6-2.1 0.9-1.1 0.8-0.9 1.8-1.6 12.3-10.4 3.5-2.2 2.6-0.9 4.4-0.8 2.6-1.1 1.5-1.6 0.8-1.7 1.2-3.7 0.7-1.7 0.9-1.6 1.1-0.9 12.5-5.7 5.5-1.9 3.5-1.8 1.8-2.1 1.1-2.2 1.2-4 0.8-2 2.6-4.3 4-4.9 5.9-4.1 2.4-3.1 3.3-2.3 2.4-1.2 1.5-0.5 3.5-0.4 2.2-0.6 4.2-1.7 2.3-0.3 1.7 0 4.5-1 3.7 0.3 4.2 0.8 5.4 0 10.4-2.6 1.6-1.2 1.2-1.4 0.5-0.7 0.5-0.7 1.7-1.4 2.7-1.4 4.8-1.6 6.6-1.2 1.7-1.3 1.7-1.8 1.3-1.7 4.5-2.6 0.3 0.1z" id="AGO1875" name="Lunda Sul" data-id="AGO1875" data-name="Lunda Sul">
 </path>
 <path d="M438.2 242.9l0 2 0.5 1.1 1.1 0.8 0.7-1.2 0.4-0.1 1.2 0.7 1.7 0.4 0.7 0.4 0.3 0.6-0.4 0.5-1 0.3-0.9 0.4-0.4 1 0.2 0.8 0.5 0.5 0.7 0.5 0.7 0.7 1.1 1.8 1.3 3.9 1.2 1.8 4 2 1.6 1.2-0.3 1.5 0.3 1.3 0 1.9 0.2 1.3 1.2-0.6 0.3 0.9-0.3 0.3 1.3 0.6 0 0.7-0.5 0.7-0.3 0.8 0.4 1 1.5 1.3 0.3 0.8 0.4 0.4 1.8 0.3 0.8 0.4 0.2 0.7-0.1 1 0.4 0.8 1.5 0 0 0.5-0.7 0.8 0.5 0.2 1.1 0 0.8 0.2 0.2 0.9 0 1 0.2 0.6 1.2-0.3 0.9 1-0.3 0.7-0.7 0.8-0.4 1.1 0.3 0.5 0.7 0.6 1.7 0.8-0.4 0.6 0.4 1.1 0.2-0.4 0.9-0.8 0.7 2.6 0.5 0.8 0.8 0.8 1.7 0.9 0.7 0.6 0.3 1.4-1 2.3 0.7 1.2-0.2 1 0.1 0.9-0.1 0.9-0.6 0.9-0.4 1 0.6 0.9 2 1.4-0.2 10.2 0.4 2.1 0.8 2 0.8 0.9-1.1 1.4-0.6 1-1 1.5-0.8 1.9-0.4 2.1 0.1 2.3 0.7 3 1.2 2.3 1.5 2.3 1.2 2.5 0.7 4.7-0.3 14.2-1.3 6.1-0.4 2.3-0.2 1.7 0.1 2.2 1.5 7.8-0.2 2.8-1.7 4.3-1 3.8-1.2 1.6-1.3 0.7-9.6 3.3-2.1 1-1.7 1.3-1.4 1.8-0.3 2 0.4 2.2 2.7 5.9 1.4 2.1 1.2 2.1 0.3 1 0.2 1.5 0.3 3.5 0.9 1.5 3 1.8 1.1 1.4 0.8 1.4 1 1.1 0.9 0.5 1.5 0.4 3.4 1.1 1.6 0.9 2.1 3.3 0.3 1.9 0.7 1.6 1.4 1.2 3.1 0.5 2.3 0.2 7.6 2.8 34.5 13.2 0.9 0.7 0.9 1.2 0.1 1.7-0.7 1.9-2.1 3.5-1.3 1.2-0.9 1.6-1.4 3.5-0.2 1.9 0.6 2 1.2 2 1.7 2.1 4.2 3.6 8 5.6 1.9 0.9 2.1 0.5 1.5-0.6 2.4-0.6 2.1 2-0.4 0.4-0.7 1.3 1.2-0.1 1.6 0.7 1 0 0.4 1.2 1 1.3 0.5 2.4 1.4 1.3 0.6 1.1 0.5-0.6 0.7 0.8 0.9 0.6 1.8 0.9 1.1-1.2-0.1 1.2 0.4 0.8 0.8 0.6 1.1 0.2-0.8 0.9-0.4 0.3 1.2 0.9 0.5 0.2-0.8 0.3-0.5 0.5-0.1 0.6 0.3 0.9-0.5 0-1.1 0.5 0.9 1 0 0.5-1.5 0.8-0.5 0-0.5-0.4-0.4-0.2-0.5 0.5-0.2 0.7 0.8 0.5 0.2 0.5 0.3 4.6 0.5 2.1 0.9 2.3 1.1 1.9 1.3 1.6 3 2.7 1.4 1.3 1.3 1.5 1 1.8 0.7 2.1 0.1 2.3-1 3.9-0.2 2.2 0.6 2.3 2.2 4.1 0.5 2.1-0.4 2.3-0.7 1.6 0 1.5 1.7 1.9 1.4 1.1 0.6 0.7 0.6 1.1 0.3 1.3 0.1 1.7 0.2 1.6-0.7 1.4-1.4 0.4-3.5-0.4-1.9 0-4.1 0.8-8.4 3.2-4.3 2.2-1.6 1.1-5.4 5.6-1.6 1-1.8 0.6-2 0.1-4-0.3-4-0.9-2.1 0.1-6 1.6-1.6 0.4-1.2 0-1.3-0.4-1.9-0.2-1-0.3-0.7 0-0.8 0.3-1.4 0.7-0.8 0.2-0.6 0-0.6-0.3-0.4-0.4-0.5-1.2-0.3-0.3-0.6-0.5-0.7-0.4-1.1 0.2-1.9 0.5-0.6 0.2-2.1-0.1-0.9-0.2-0.7-0.4-0.5-0.7-0.3-0.7-0.1-0.7 0.3-2.9-0.1-0.5-0.3-0.7-0.7-1-0.5-1.7-0.4-0.8-0.5-0.5-1.2-0.7-2.4-2.1 1.1 5.5 0.1 5.8-0.7 2.5-1.5 2.1-7.6 8.1-1.9 1.3-3.8 3.1-1.4 0.6-1.4 0.3-2.3 0.6-6.7-3.2-0.3-0.3 0.3-0.5 0.4-1.5 0.2-1.3 0-0.9-0.2-1-2.2-4.8-0.3-1.9 0.8-1.9 0.7-0.4 2.1-0.8 0.6-0.5-0.1-1.4-1-0.2-1.3 0.5-1 0.6 0.2-1.1-0.2-2 0.3-0.7 1.2-0.7 0.5-0.4 0.2-0.5 0-1.2 0.1-0.6 0.2-0.5-0.3-1.4-3-5-1.1-1.5-0.5-0.9 0-1.1 0.2-1.6-0.6-1.4-0.6-0.3-0.7 0.1-1.4 0-1.7-0.9-0.5-1.3 0.7-1.5 2-1.4 0.6 0.6 1.1-0.9 0.4-1.1 0.2-2.8-0.5-1.7-1.8-2.7-0.9-2.7-2.1-2.1-0.8-1.3-0.2-1.4 0.1-2.8-0.5-1.4-1.5-1.3-4.2-2.5-0.9-1.5-0.7-0.4-4.3 0.6-1-0.3-1.2-0.6-1.2-0.4-1 0.2-1-2.8-0.8-0.7-1.5 0.7-1.5-0.5-0.7 1-0.9 0.8-2.2-1-1.5-1.2-1.3-0.8-8.5-2.5-1.3-0.6-1.7-0.7-3.3 1.2-1.4-0.2-1.7 0.7-1.8-0.2-1.6-0.7-1-0.9-2.3-3.7-0.9-0.8-0.9-0.2-2.2 0-0.9-0.3-0.7-0.8-1.4-2.6-0.6-0.4-0.8-0.2-0.6-0.5-0.3-1.2 0.3-0.6 0.6-0.6 1.4-1-0.9-0.8-1.3-0.6-1.2-1-0.9-2.1-1.9-1.5-0.5-0.5-0.2-0.5-4.7-5.9-2-1-1.2-0.9-0.6-0.3-0.4-0.4-0.2-1.1 0.5-2.8 0-0.8-3.5-4.5-0.4-0.2-1-0.7-0.8-0.2-1.1-0.1-0.6-0.1-0.4-0.4-0.4-0.5-0.7-1.1-0.3-1.5-0.1-3.4 0.4-1.7 1.2-1 1.3-0.6 0.9-0.9-3-12.2-1.2-0.7-0.7-1.4-0.7-5.3-0.3-0.5-0.7-0.6-0.6-0.2-1.8-0.3-0.3-0.3-0.5-0.6-0.9-0.9-1-1.1-0.4-1.4-0.2-1.7-0.6-1.5-0.7-1.2-0.7-0.9-1.5-1-1.5-0.5-3.4-0.2-1.8-0.3-1.3-0.5-1.1 0-1 0.8-1.7-1.4-0.6-0.3-1.1-0.1-0.7 0.2-0.7 0.3-1 0.2-0.4-0.3-0.5-0.6-0.6-0.3-0.7 0.4-0.6 0.5-0.8 0.4-0.8 0.3-0.9 0.2-1.6 0-2.5-0.5-1.6-0.1-0.5-0.2-1.1-0.7-0.7-0.2-0.8 0.2-0.3 0.4 0 0.8-0.2 0.8-0.6 1.1-0.8 1.1-1 0.9-1.2 0.3-7.6 0.7-1.5-0.1-1.8-0.6-1-0.1-2.4 1.3-1.4-0.1-1.5-0.5-1.9 0-0.4 0.2-0.7 0.9-0.7-0.1-1.2-0.4-0.6-0.1-6.2 0.7-1.8 0.8-1.1 0.2-1.3-0.1-1.2-0.4-1.1-0.1-1.3 0.6-0.9-0.8-1.7-0.6-1.7-0.3-0.7 0.3-0.4-0.3-0.9 0-1.7 0-0.5-0.3-1-1.4-0.5-0.5-0.7-0.3-1.5-0.2-0.5-0.1-0.5-0.5-0.3-0.5-0.4-0.5-1.5-0.5-0.2-1.1 2-2.3 1.1-1.6 0.6-2.2-0.2-2.8-0.5-2.1-1.8-3.7-0.3-1.4 4.3-5.5-0.9-3.4-4.1-3.7 0.7-1.4 1.2-0.3 1.2-0.1 3.5 0.3 3-1.3 1.3-3 1-3.3 2.1-2.3 1.7-0.4 3.5-0.1 1.7-0.5 0.7-0.6 1.2-1.3 0.8-0.5 0.6-0.2 1.4 0.1 0.7-0.2 1-0.6 1-0.8 1-0.6 1.1-0.2 0.8 0.2 1.5 1 0.8 0.2 3.2 0 3.2-0.5 1.1-0.5 0.6-0.3 0.8-0.8 0.4-5.5-0.3-2.5 0-2.3 0.1-1.5 0.8-2.8 1.2-7.5 2.3-7.5 1.7-3.7 0.6-1.9-0.3-1.7-1.1-1.5-3.6-1.5-1.7-1.3-1.2-2.1-0.6-1.6 1-2.7 3.1-4.5 0.5-1.6 0.1-1.1 0.4-1.3 1.4-0.8 8.2-2.8 1.4-1.4 0.1-1.6-0.4-1.3-0.3-4.6-0.8-4.3 0.1-3.7 5.1 0.7 2 0 2.4-0.6 2.9-1.7 6.2-2.1 1.4-0.7 3.5-3.5 1.3-7.3 1.5-2.9 0.5-1.4 0.2-1.8-0.1-1.9-0.7-4.1-5-15.6-0.4-1.9 0.3-2.1 1-1.9 2.8-1.7 2.4-0.7 4.2-0.3 2.2-0.8 5.1-3.7 5.1-7.3 5.4-3.7 12.5-5.1 1.8-0.3 1.3 0.2 1.7 0.7 1.5 1.3 1.2 1.7 1.8 3.9 7.9 10.9 1.6 1.6 1.8 1.3 1.8 0.7 1.7 0.4 1.9 0 1.8-0.4 1.8-1 1.7-1.7 1-2.4 0.4-1.8 0.3-3 0.3-1.5 0.9-1.6 0.9-1 3-2.1 4.6-1.6z" id="AGO1876" name="Malanje" data-id="AGO1876" data-name="Malanje">
 </path>
 <path d="M242 325.9l-2.2 0.8-1.1 0.9-0.4 0-0.4-0.3-0.5-0.9-0.8-0.3-3.3-0.7-0.5 0-2.1 0-1.6-0.1-3.5 0.2-0.5 0-1.7-0.5-1-0.2-2.1 0-1.2 0.2-2.6 1.2-3.6 2.3-3 3-0.2 2.4 0.1 0.7 0.5 1.4 1.3 1.8 2.1 1.9 1.9 2.4 2.8 8 0.3 1.8-0.1 1.9-0.6 1.8-1 1.7-1.4 1.7-1.7 1.5-2.7 1.5-3.6 1.3-9.2 2.6-2.8 2.2-0.4 1.7 0.3 1.1 1.2 1.2 2.8 2 0.6 0.7 0.1 0.9-0.1 1.5-1 2.2-1.6 1.3-1.7 0.9-1.1 1.2 0 1.4 1.9 1.3 4.2 1.2 1.4 1.2 0.7 1.6-0.4 1.7-0.2 1.4 1.2 2 1.3 2-0.1 0.6-0.4 1.5-2.7 3.3-0.9 1.7-1.9 6.3-3.3 7.8 0.8 0 2.4 2 1.8 4.8 1.2 1.6 1.3 0.4 2 0 2-0.3 1-0.4 0.8 0.3 1.5 1.2 0.4 0.6 0.4 1.9 0.5 0.5 2.7 0.6 0.6 0.2 0.6 0.1 2.7-0.9 1.9 0.2 1.7 0.4 1.6 0.7 1.2 0.9 2.2 2.3 0.7 0.6 2 1.1 0.6 0.4 1.4 1.5 0.5 0.2 0.6-0.3 0.6-0.5 0.5-0.2 0.5 0 0.8 6.5 0.2 5.9-0.2 2.9-0.7 2.1-1.1 1.6-1 2.2 0.2 2 1.6 4.4 0.6 2.9-0.8 2-0.4 2 0.1 1.8 0.9 1.9 1.3 1.3 2.3 2.1 0.5 3.7-0.4 1.6-0.6 2-2.2 3.6-2.3 2.3-5.4-2.5-3.5-3.2-1.5-1.8-2.1-1.9-6-2.7-2.5-0.7-2.3-0.4-1.8-0.2-1.9 0.1-1.9 0.5-1.9 0.9-1.9 1.1-5.1 4.5-3 1.6-1.6 1.5-1.3 0.5-0.7-0.2-0.7-0.8-0.8-0.6-1.2-0.6-2.3-0.7-1.5-0.1-1.2 0-4.8 0.7-0.9 0-0.6-0.3-0.3-0.5-0.8-0.5-0.8-0.1-2.4 0-1.2-0.2-2.2-0.9-0.6 0-0.2 0.2 0.1 0.7-0.1 0.3-0.8 0.2-0.5 0-0.4-0.3-0.6-1.2-2.4-3.3-1-1.5-0.9-0.7-3.8-2.2-0.8-0.2-0.9-0.1-0.5-0.2-1.1-1.5-1.2-0.9-0.9-0.4-0.7 0-0.4 0.1-0.6 0.6-1.1 2.4-2.7-3.9-1-1.8-0.9-4-1.3-1.7-3.1-3.2-4.8-7.8 0.2-1.2 0.8-1.1 0.5-1.7-0.7-3.3-1.7-3.6-2.3-3.3-6.3-7.6-0.6-1.6 0.4-1.4 1.8-1.9 0.5-1.5-0.1-1.4-0.5-1.6-0.7-1.4-0.6-0.5 0.1-1-2.7-7.5-0.1-1.6 0.2-3.6-0.3-1.3-1.5-2.9-0.4-1.7 2.7-1.2 0.6-0.5 1.7-2.6 1.4-3.1 1.8-3 2.9-2.5 1.9-0.9 1.4-0.1 3 0.4 1.9-0.2 1.1-0.3 1.1-0.3 1.7 0.3 3.5 1 0.6-1.8 1.8-14.6 3-4 2.4-4.4 1.6-1.4 1.4-0.6 2.3-0.6 0.3-2.6-0.7-3.8-1.3-5.1-1.1-2.2-1.5-1.5-1.6-0.5-1.5 0.5-1.4 0-0.9-0.2-3.8-3-1.8-1-1.5-0.6-4.7-0.7-0.4-1.2-1.1-5.5-0.8-2.6 1.1-0.2 0.8 0.1 0.6-0.1 0.6-0.9 0.2-0.8 0-6.1-0.3-1.8-0.8-1.9-7.4-11.8-1-0.7-1.1-3.7-0.7-1.4-0.7-0.9-0.9-2.2-0.6-0.8-1.4-3.1-0.7-3.7-5.3-9.6-2.4-5.3 4.5-0.5 2.1-0.6 1.5-0.6 0.7-0.4 1.1-0.9 2.1-1.6 0.7 0.1 0.9 0.5 1.2 0.2 0.8-0.3 0.4-1 0.4-0.5 0.9-0.7 1-0.4 1.9-0.7 3-0.6 0.9 0 0.6 0.1 0.8 0.3 1.4 1.4 1.4 0.8 0.3 0.3 0.7 0.2 0.8 0.2 2 0.1 0.9-0.1 9.3-2.7 0.6-0.3 0.6-0.6 1.2-0.8 1.6-0.5 1.1-0.2 2.8 0 1.4-0.3 0.9-0.8 1.2-0.5 0.9-0.7 0.4-0.2 1.9-0.8 0.7-0.4 0.7-0.6 5.8 0.8 16.4 0.3 2.6 0.7 1.6 1.5 1.2 1.7 5.6 5.5 4.7 5.8 1.9 1.7 2.3 1.4 6.3 2.8 2.4 0.8 1.9 0.3 2.7 0 11.4-2.4 3.8 1 1.1 1.3 0.8 1.8-0.6 13.3-0.6 1.8-3.4 5.5-1 2.1-0.7 2.3-0.3 3.4 0.3 3.1 1.8 6.9z" id="AGO1877" name="Bengo" data-id="AGO1877" data-name="Bengo">
 </path>
 <path d="M333.7 310.7l-0.1 3.7 0.8 4.3 0.3 4.6 0.4 1.3-0.1 1.6-1.4 1.4-8.2 2.8-1.4 0.8-0.4 1.3-0.1 1.1-0.5 1.6-3.1 4.5-1 2.7 0.6 1.6 1.2 2.1 1.7 1.3 3.6 1.5 1.1 1.5 0.3 1.7-0.6 1.9-1.7 3.7-2.3 7.5-1.2 7.5-0.8 2.8-0.1 1.5 0 2.3 0.3 2.5-0.4 5.5-0.8 0.8-0.6 0.3-1.1 0.5-3.2 0.5-3.2 0-0.8-0.2-1.5-1-0.8-0.2-1.1 0.2-1 0.6-1 0.8-1 0.6-0.7 0.2-1.4-0.1-0.6 0.2-0.8 0.5-1.2 1.3-0.7 0.6-1.7 0.5-3.5 0.1-1.7 0.4-2.1 2.3-1 3.3-1.3 3-3 1.3-3.5-0.3-1.2 0.1-1.2 0.3-0.7 1.4 4.1 3.7 0.9 3.4-4.3 5.5 0.3 1.4 1.8 3.7 0.5 2.1 0.2 2.8-0.6 2.2-1.1 1.6-2 2.3-0.7-0.3-1.2 0-0.8-0.3-6.4-2.7-2.4-0.5-0.8-0.3-0.6 0-0.3 0.8 0.4 1.7-0.3 0.7-1.2 0.6-6.3-0.5-2.9 0.8-0.4 0-1 0.6-0.8-0.1-0.8-0.3-1 0.1-0.5 0.5-0.6 1.2-0.5 0.6-0.6 0.3-8.5 1.3-0.9-0.1-1.7-0.3-3-0.1-0.5 0-0.5 0.2-0.6 0.5-0.6 0.3-0.5-0.2-1.4-1.5-0.6-0.4-2-1.1-0.7-0.6-2.2-2.3-1.2-0.9-1.6-0.7-1.7-0.4-1.9-0.2-2.7 0.9-0.6-0.1-0.6-0.2-2.7-0.6-0.5-0.5-0.4-1.9-0.4-0.6-1.5-1.2-0.8-0.3-1 0.4-2 0.3-2 0-1.3-0.4-1.2-1.6-1.8-4.8-2.4-2-0.8 0 3.3-7.8 1.9-6.3 0.9-1.7 2.7-3.3 0.4-1.5 0.1-0.6-1.3-2-1.2-2 0.2-1.4 0.4-1.7-0.7-1.6-1.4-1.2-4.2-1.2-1.9-1.3 0-1.4 1.1-1.2 1.7-0.9 1.6-1.3 1-2.2 0.1-1.5-0.1-0.9-0.6-0.7-2.8-2-1.2-1.2-0.3-1.1 0.4-1.7 2.8-2.2 9.2-2.6 3.6-1.3 2.7-1.5 1.7-1.5 1.4-1.7 1-1.7 0.6-1.8 0.1-1.9-0.3-1.8-2.8-8-1.9-2.4-2.1-1.9-1.3-1.8-0.5-1.4-0.1-0.7 0.2-2.4 3-3 3.6-2.3 2.6-1.2 1.2-0.2 2.1 0 1 0.2 1.7 0.5 0.5 0 3.5-0.2 1.6 0.1 2.1 0 0.5 0 3.3 0.7 0.8 0.3 0.5 0.9 0.4 0.3 0.4 0 1.1-0.9 2.2-0.8 2.3-0.5 1.1 0.2 2 0.5 2.5 0.5 1.1 0.1 1.3-0.3 2.1-0.7 0.9-0.7 1.5-1.7 1.1-1 0.5-0.8 0.8-2.5 0.5-0.8 0.7-0.7 1.1-1 0.7-0.4 0.6-0.2 0.5 0 1.1 0.5 0.5 0.1 1.1 0 0.8 0.3 1 0.7 0.5 0.6 0.7 0.5 0.5 0.2 0.9 0.2 0.6-0.1 0.6-0.2 1.8-1.1 0.8-0.3 0.6-0.2 1.6 0.1 1.3 0.4 0.6 0.1 0.6-0.6 0.3-1.4 0.4-0.9 0.6-0.6 0.5-0.2 0.7 0 0.7-0.4 0.1-0.5 0.5-0.9 0.9-0.1 0.4-0.2 0.2-0.4 0.4-1.1 0.6-1.1 0.2-1.1 0.3-2.7 0.4-1.9 0.6-0.7 0.4-0.7 0-0.5-0.1-0.7-0.5-0.9-0.5-0.5-0.4-0.3-0.4 0-0.8 0.3-0.3 0-0.2-0.5 0-0.8 0.5-1.8 0.7-1.5 0.2-0.3 0.1-1.1-0.7-2.6 1.9-1.3 5.3-1.3 10.2-0.3 1.6 2-0.2 1.8-0.5 1.9 0.1 2 1.7 1.5 2.7 0.7 2.9 0.1 2.3-0.2 1.9-0.6 3.3-1.9 1.7-0.7 3.6-0.6 2 0 1.7 0.3 0.4 0.2 1.9 1.6 1.2 1.2 0.2 0.6-1.2 0.8-0.1 1.4 0.9 1.3 1.7 0.3 1.5 1.4 0.4 4-0.1 3.5z" id="AGO1878" name="Cuanza Norte" data-id="AGO1878" data-name="Cuanza Norte">
 </path>
 <path d="M278 434l0.2 1.1 1.5 0.5 0.4 0.5 0.3 0.5 0.5 0.5 0.5 0.1 1.5 0.2 0.7 0.3 0.5 0.5 1 1.4 0.5 0.3 1.7 0 0.9 0 0.4 0.3 0.7-0.3 1.7 0.3 1.7 0.6 0.9 0.8 1.3-0.6 1.1 0.1 1.2 0.4 1.3 0.1 1.1-0.2 1.8-0.8 6.2-0.7 0.6 0.1 1.2 0.4 0.7 0.1 0.7-0.9 0.4-0.2 1.9 0 1.5 0.5 1.4 0.1 2.4-1.3 1 0.1 1.8 0.6 1.5 0.1 7.6-0.7 1.2-0.3 1-0.9 0.8-1.1 0.6-1.1 0.2-0.8 0-0.8 0.3-0.4 0.8-0.2 0.7 0.2 1.1 0.7 0.5 0.2 1.6 0.1 2.5 0.5 1.6 0 0.9-0.2 0.8-0.3 0.8-0.4 0.6-0.5 0.7-0.4 0.6 0.3 0.5 0.6 0.4 0.3 1-0.2 0.7-0.3 0.7-0.2 1.1 0.1 0.6 0.3 1.7 1.4 1-0.8 1.1 0 1.3 0.5 1.8 0.3 3.4 0.2 1.5 0.5 1.5 1 0.7 0.9 0.7 1.2 0.6 1.5 0.2 1.7 0.4 1.4 1 1.1 0.9 0.9 0.5 0.6 0.3 0.3 1.8 0.3 0.6 0.2 0.7 0.6 0.3 0.5 0.7 5.3 0.7 1.4 1.2 0.7 3 12.2-0.9 0.9-1.3 0.6-1.2 1-0.4 1.7 0.1 3.4 0.3 1.5 0.7 1.1 0.4 0.5 0.4 0.4 0.6 0.1 1.1 0.1 0.8 0.2 1 0.7 0.4 0.2 3.5 4.5 0 0.8-0.5 2.8 0.2 1.1 0.4 0.4 0.6 0.3 1.2 0.9 2 1 4.7 5.9 0.2 0.5 0.5 0.5 1.9 1.5 0.9 2.1 1.2 1-2.3 1.4-0.3 1 0.6 1.7 0 0.3-0.2 0.6-2.1 3.1-0.8 0.6-1.8 0.5-1.7 0.9-3.1 4-1.9 1.7-2.1 1.3-4.5 2.3-2.9 1.9-2 1.8-1.5 2-4.6 7.7-1.4 1.6-1.6 0.8-1.4 0-0.9-0.2-1.2-0.5-2.9-0.7-4.8 0.4-1.9 0-1.6-0.7-4.3-3-3.2 10.9-1.5 3.5-1.6 3-4.9 7.3-2.1 2.4 0.1 5.7-1.2 4.2-1.9 3.8-2.2 2-8.2 2.1-6.1 1-2.3 0.8-2.7 1.3-6.3 2.2-3 3-1.2 5.5 2 3.3 0.3 1.5 0 0.7 0.2 1.2 0.2 0.5 0.4 0.5 0.9 0.8 0.2 0.5-0.1 0.4-0.8 1.5-0.1 0.9 0 2-0.2 0.4-1.1 0.7-0.4 0.4 0.2 0.7 0.9 1.2 0 0.4-0.3 0.9-0.1 0.6-0.5 1.7-0.2 2.1 0.2 0.9 0.2 0.4 0.6 1-3.9-0.1-1.8 0.3-1.4 1-1.1 1-0.7 0.5-1.1 0.4-2.4 0.4-9 3.2-2.2 2.1-1.6 1.9-3.9 9-1.7-0.3-1.7-1.2-0.5-1.4-0.8-1.5-1.4-1.3-7.3-3.8-1.9-0.6-1.9 0.1-3.4 1.1-2.7 0.2-4.9-1.5-2.4-3.4-2.2-4.5-7.8-10.4-2.7-2-1.5-0.2-2.1 0.2-1.9 0.7-3.8 2.4-1.7 1.4-3.9 5.4-5 3.7-3.9-4.8-2-1.7-3.6-2.3-1.2-1.5-0.5-1.8-0.8-4-0.9-1.5-1.6-0.7-1.7-0.4-4.7 0.7-6.7-1.2-2-0.1-2.1-0.3-4-1.2-1.2-13.1 0.3-8.9 0.4-1.9 0.7-1.4-0.7-0.8 0.1-0.9 0.3-1 0.3-1-0.1-4.5 0.1-0.7 0.4-0.9 1.5-2.1 0.2-1 0-2.3 2-11.7 0.2-10.8-0.4-2.9-1.2-2.7-7.2-10.7-0.6-1.5-0.1-1.4 0.7-1.4 2.5-3 0.1-1.3-0.5-1.3-1-1.3-3.3-2.8-0.6-0.8-0.3-0.9-7.6-9.3-5.2-4.2-1.2-1.6-0.4-1.6-0.1-5.5-0.3-1.8-0.7-1.8-1.6-2.2 1.1-2.4 0.6-0.6 0.4-0.1 0.7 0 0.9 0.4 1.2 0.9 1.1 1.5 0.5 0.2 0.9 0.1 0.8 0.2 3.8 2.2 0.9 0.7 1 1.5 2.4 3.3 0.6 1.2 0.4 0.3 0.5 0 0.8-0.2 0.1-0.3-0.1-0.7 0.2-0.2 0.6 0 2.2 0.9 1.2 0.2 2.4 0 0.8 0.1 0.8 0.5 0.3 0.5 0.6 0.3 0.9 0 4.8-0.7 1.2 0 1.5 0.1 2.3 0.7 1.2 0.6 0.8 0.6 0.7 0.8 0.7 0.2 1.3-0.5 1.6-1.5 3-1.6 5.1-4.5 1.9-1.1 1.9-0.9 1.9-0.5 1.9-0.1 1.8 0.2 2.3 0.4 2.5 0.7 6 2.7 2.1 1.9 1.5 1.8 3.5 3.2 5.4 2.5 2.3-2.3 2.2-3.6 0.6-2 0.4-1.6-0.5-3.7-2.3-2.1-1.3-1.3-0.9-1.9-0.1-1.8 0.4-2 0.8-2-0.6-2.9-1.6-4.4-0.2-2 1-2.2 1.1-1.6 0.7-2.1 0.2-2.9-0.2-5.9-0.8-6.5 3 0.1 1.7 0.3 0.9 0.1 8.5-1.3 0.6-0.3 0.5-0.6 0.6-1.2 0.5-0.5 1-0.1 0.8 0.3 0.8 0.1 1-0.6 0.4 0 2.9-0.8 6.3 0.5 1.2-0.6 0.3-0.7-0.4-1.7 0.3-0.8 0.6 0 0.8 0.3 2.4 0.5 6.4 2.7 0.8 0.3 1.2 0 0.7 0.3z" id="AGO1879" name="Cuanza Sul" data-id="AGO1879" data-name="Cuanza Sul">
 </path>
 <path d="M119.7 401.9l-1.8-1.4-6.1-10.2-2.3-5.4-1.6-2.3-0.4-4.6 3.1-6.4 4.5-5.5 4.1-1.7-1.8 2.6-5.8 4.8-2.9 6.8-0.5 2.2 1 0.9 0.8-0.7 4.6-7.7 0.2-0.8 0.4-0.9 0.9-0.2 1.1-0.1 0.9-0.1 1.1-1.1 0.9-2.7 1-1.6 2-2.2 0.5-0.9 0-0.9-0.1-1.9 0.3-0.8 2.4-2.6 1.4-1.1 1.5-0.5-4.1 4-0.9 1.6 1.1-0.7 2.7-1.2 1.5-1 0.6-0.1 0.5-0.3 0.4-1.9 0.4-0.3 0.6-0.1 4.9 0.7 2-0.7 1-4.1 1.2-3 0.2-1.3-0.3-1.2-2.4-3.3-0.5-1.2 4.7 0.7 1.5 0.6 1.8 1 3.8 3 0.9 0.2 1.4 0 1.5-0.5 1.6 0.5 1.5 1.5 1.1 2.2 1.3 5.1 0.7 3.8-0.3 2.6-2.3 0.6-1.4 0.6-1.6 1.4-2.4 4.4-3 4-1.8 14.6-0.6 1.8-3.5-1-1.7-0.3-1.1 0.3-1.1 0.3-1.9 0.2-3-0.4-1.4 0.1-1.9 0.9-2.9 2.5-1.8 3-1.4 3.1-1.7 2.6-0.6 0.5-2.7 1.2z" id="AGO1880" name="Luanda" data-id="AGO1880" data-name="Luanda">
 </path>
 <path d="M438.2 242.9l-4.6 1.6-3 2.1-0.9 1-0.9 1.6-0.3 1.5-0.3 3-0.4 1.8-1 2.4-1.7 1.7-1.8 1-1.8 0.4-1.9 0-1.7-0.4-1.8-0.7-1.8-1.3-1.6-1.6-7.9-10.9-1.8-3.9-1.2-1.7-1.5-1.3-1.7-0.7-1.3-0.2-1.8 0.3-12.5 5.1-5.4 3.7-5.1 7.3-5.1 3.7-2.2 0.8-4.2 0.3-2.4 0.7-2.8 1.7-1 1.9-0.3 2.1 0.4 1.9 5 15.6 0.7 4.1 0.1 1.9-0.2 1.8-0.5 1.4-1.5 2.9-1.3 7.3-3.5 3.5-1.4 0.7-6.2 2.1-2.9 1.7-2.4 0.6-2 0-5.1-0.7 0.1-3.5-0.4-4-1.5-1.4-1.7-0.3-0.9-1.3 0.1-1.4 1.2-0.8-0.2-0.6-1.2-1.2-1.9-1.6-0.4-0.2-1.7-0.3-2 0-3.6 0.6-1.7 0.7-3.3 1.9-1.9 0.6-2.3 0.2-2.9-0.1-2.7-0.7-1.7-1.5-0.1-2 0.5-1.9 0.2-1.8-1.6-2-10.2 0.3-5.3 1.3-1.9 1.3 0.7 2.6-0.1 1.1-0.2 0.3-0.7 1.5-0.5 1.8 0 0.8 0.2 0.5 0.3 0 0.8-0.3 0.4 0 0.4 0.3 0.5 0.5 0.5 0.9 0.1 0.7 0 0.5-0.4 0.7-0.6 0.7-0.4 1.9-0.3 2.7-0.2 1.1-0.6 1.1-0.4 1.1-0.2 0.4-0.4 0.2-0.9 0.1-0.5 0.9-0.1 0.5-0.7 0.4-0.7 0-0.5 0.2-0.6 0.6-0.4 0.9-0.3 1.4-0.6 0.6-0.6-0.1-1.3-0.4-1.6-0.1-0.6 0.2-0.8 0.3-1.8 1.1-0.6 0.2-0.6 0.1-0.9-0.2-0.5-0.2-0.7-0.5-0.5-0.6-1-0.7-0.8-0.3-1.1 0-0.5-0.1-1.1-0.5-0.5 0-0.6 0.2-0.7 0.4-1.1 1-0.7 0.7-0.5 0.8-0.8 2.5-0.5 0.8-1.1 1-1.5 1.7-0.9 0.7-2.1 0.7-1.3 0.3-1.1-0.1-2.5-0.5-2-0.5-1.1-0.2-2.3 0.5-1.8-6.9-0.3-3.1 0.3-3.4 0.7-2.3 1-2.1 3.4-5.5 0.6-1.8 0.6-13.3-0.8-1.8-1.1-1.3-3.8-1-11.4 2.4-2.7 0-1.9-0.3-2.4-0.8-6.3-2.8-2.3-1.4-1.9-1.7-4.7-5.8-5.6-5.5-1.2-1.7-1.6-1.5-2.6-0.7-16.4-0.3-5.8-0.8 1.5-4.2 0.8-1.1 1.8-0.6 0.4-0.1 1.7 0 1-0.2 0.9-0.6 1.3-1.4 0.6-0.6 0.9-0.3 0.3-0.6-0.1-1.2-0.9-1.3-2.8-2.9-1.3-1.9-2.3-4.9 0-2.9 0.8-2.1 3.9-5.8 0.1-1.7-1.1-1.5-1.5-1.3-1.7-1.9-1.5-2.3-2.1-6.1-2.3-4.5 1.5-0.8 2.1-0.4 1.2 0 0.8 0.1 4.3-0.1 1.1-0.1 0.6-0.2 0.9-0.9 0.8-1 0.4-0.3 1.3-0.6 0.3-0.3 0.9-1.2 1-0.7 2.7-1.3 7.9-2.1 7.1-3.5 0.8-0.6 0.8-2.6 0.6-1.1 0.8-0.9 0.9-1.6 0.9-1.2 3.3-2.4 0.7-0.4 0.9-0.3 0.4 0 0.9 0.2 1.5-0.1 1.9 0.3 1.1 0 5.2-2 0.8-0.5 1.7-2.5 1.2-1.4 6.3 0 4.8-0.9 3.2-1.1 5-2.5 1.2-0.9 0.4-1.4 0.9-1.8 3.2-4.4 0.2-0.4 3.5-5.4 0.4-0.4 1.9-1.4 0.5-0.4 2.9-4 0.5-2.5-1.6-1.4-3.8-4.1-1-2.7-1.9-7.9-1.1-2.6-5.9-8.9-1.4-3.4 17.7-0.3 7.3-0.2 14.7-0.2 29.4-0.5 7.4-0.1 36.7-0.6 12.1-0.2 2 0.4 1.4 0.8 1.3 1 1.8 1 1.3 0.2 1.2-0.2 2.6-0.8 1.6-0.2 1.4 0 1.4 0.4 3.1 1.2 0.6 0.4 3 1.4-0.3 0.7-1.1 1.3 0 0.5 0.8 1 0.4 0.9 0.2 0.7 0.3 5.1 0.2 0.9 0.5 0 0.7-0.4 0.8-0.1 0.3 0.8-1.7 2 1.6 0.2 0.9 0.7 1.4 1.9 1 0.5 1 0.3 0.9 0.5 0.4 1.1 1.4 1.6 0.7 1.3-0.2 1-0.6 1.1-0.2 1.3 0.1 5.9 0.1 0.7 0.4 1.6-0.1 0.8-0.4 0.3-0.8 0-0.7 0.3-0.3 0.8 0 3.1 0.6 1.1 0.5 0.3 0.5-0.1 0.5 0.1 0.1 1-0.4 1.1-0.8 1.1 0 0.8 1.8 0.1-0.6 1.2 0.1 0.9 0.5 0.7 0.8 0.8 0.7 0.9 0 0.8-1 1.7-0.3 1.4 0.3 1.3 1.2 2.7 0.3 1.5 0.2 3 0.4 1.4 0.6 1.3 4.4 6.3 0.4 1.2 0.1 1.1 0.3 1.1 1 0.9 0.8 0.3 2 0.2 0.9 0.2 1.9 1.4 1 2 0.6 4.6-0.5 1.1 0.1 0.8 0.7 0.3 0.9 0.2 0.5 0.5 0.7 1.3 0.7 1.4-0.3 1.3-0.5 1.4-0.1 1.7-2.6-0.7-0.2 2.1 1.7 5.3-0.2 4.3 0.4 0.7 0.8 0.5 1 1.1 1.3 1.8 0.2 1.3 0 1.2 0.4 1 2.1 0.7 2.8 1.9 2 1 0.9 0.8 0.4 1.2 0 0.9z" id="AGO1881" name="Uíge" data-id="AGO1881" data-name="Uíge">
 </path>
 <path d="M249.9 121.5l1.4 3.4 5.9 8.9 1.1 2.6 1.9 7.9 1 2.7 3.8 4.1 1.6 1.4-0.5 2.5-2.9 4-0.5 0.4-1.9 1.4-0.4 0.4-3.5 5.4-0.2 0.4-3.2 4.4-0.9 1.8-0.4 1.4-1.2 0.9-5 2.5-3.2 1.1-4.8 0.9-6.3 0-1.2 1.4-1.7 2.5-0.8 0.5-5.2 2-1.1 0-1.9-0.3-1.5 0.1-0.9-0.2-0.4 0-0.9 0.3-0.7 0.4-3.3 2.4-0.9 1.2-0.9 1.6-0.8 0.9-0.6 1.1-0.8 2.6-0.8 0.6-7.1 3.5-7.9 2.1-2.7 1.3-1 0.7-0.9 1.2-0.3 0.3-1.3 0.6-0.4 0.3-0.8 1-0.9 0.9-0.6 0.2-1.1 0.1-4.3 0.1-0.8-0.1-1.2 0-2.1 0.4-1.5 0.8 2.3 4.5 2.1 6.1 1.5 2.3 1.7 1.9 1.5 1.3 1.1 1.5-0.1 1.7-3.9 5.8-0.8 2.1 0 2.9 2.3 4.9 1.3 1.9 2.8 2.9 0.9 1.3 0.1 1.2-0.3 0.6-0.9 0.3-0.6 0.6-1.3 1.4-0.9 0.6-1 0.2-1.7 0-0.4 0.1-1.8 0.6-0.8 1.1-1.5 4.2-0.7 0.6-0.7 0.4-1.9 0.8-0.4 0.2-0.9 0.7-1.2 0.5-0.9 0.8-1.4 0.3-2.8 0-1.1 0.2-1.6 0.5-1.2 0.8-0.6 0.6-0.6 0.3-9.3 2.7-0.9 0.1-2-0.1-0.8-0.2-0.7-0.2-0.3-0.3-1.4-0.8-1.4-1.4-0.8-0.3-0.6-0.1-0.9 0-3 0.6-1.9 0.7-1 0.4-0.9 0.7-0.4 0.5-0.4 1-0.8 0.3-1.2-0.2-0.9-0.5-0.7-0.1-2.1 1.6-1.1 0.9-0.7 0.4-1.5 0.6-2.1 0.6-4.5 0.5-8.6-19.7-3.8-9.3-2.3-8.2-2.2-2.4-1.2-1.3-1.5-1.9 0.4-2.8-0.4-2.1-1.4-16.2-0.8-2.5-0.1-1.3-0.5-1 1-1.4 0.2-0.9 0.3-0.5-0.4-0.6-2.4 1.5-1.6-0.7-5.8-8.2-7-6.4-5.6-8.3-7.5-13.5-2.9-6.9-2.1-4.6-4.1-5.7-2.1-2.7-3.2-5.9-0.3-2.7 1.2-1.4 1.8-0.5 1.7-1-0.5 1.2-0.2 2.3 1.8-0.1 2.8-0.8 4.1-0.1 5.1-1.2 2.5-1.6 1.8-0.6 2.5-0.4 4.2-2.3 1-0.4 2 0 1.7 0.7 2 0.6 2.1 0.3 2.3-0.6 3.8-0.8 3.5-1.2 1.7-1.3 3.6-1.6 1.5-2 1.6-2 0.6-1.5 1-1 2.1-0.4 1.5-0.2 1.3-0.6 1.4 0.1 3 0.3 0.9-0.1 1.4-0.5 3.2-1.8 1.3-0.4 6.8 0.6 3.3 0.8 2.5 1.4 0.9-0.7 1.7-1.7 0.5-0.4 9.1 0.2 2.4 0.7 0.9 0 1.5-0.7 0.8-0.1 6.3 0.7 13.4-1.1 10.9-0.9 3.2 1 1.9 1.1 1.2 0.4 9.6-0.7 1.8 0.2 4.8 1.7 1.6 0.2 8.4 0.1 7.3 0.2 3.6-0.6 5.1 1.3 2.5 0.2 10.3-1.9 4.5 0z" id="AGO1882" name="Zaire" data-id="AGO1882" data-name="Zaire">
 </path>
 <path d="M90.7 1.7l1.4 0.8 1.1 0.3 1.3-0.3 1-0.4 0.9-0.1 1.3 0.7 1.2 1.6 1.4 3.9 1.6 1.8 3.2 2.5 5.2 6.4 3.8 1.8-0.7 2.3-2.9 1.1-15.8 3.7-2.4 1.4-1.4 1.5-0.9 1.7-0.5 1.8-0.2 1.9-0.7 0.9-3.6 2.2-1.2 0.9-0.7 1.8-0.2 1.3-0.6 0.9-2 0.7-3.1 0.2-0.7 0.5-0.2 1.7-1.3 3-3 2-6.8 2.3-0.7 0.1-0.6-0.1-0.5 0.2-0.4 0.7 0 0.7 0.1 0.9 0.3 0.8 0.5 0.4 5 1.8 0.9 0.6 0.6 2.8-0.9 22.7-0.9 22.9-13.2-0.2-6.9 1-3.9 2.2-3.9-6.7-1.2-5.1 1.8-5.1 1-0.9 0.9-0.3 0.9 0 1.1-0.5 0.8-0.8 0.3-1.1 0-2.5-0.2-1-1.2-2.9-1.5-2.9-2-5.4 0.1-2.2-3.2-5.6-0.6-3.8-4.5-5.3-3.7-6 0-0.8 1 0.2 1.5 0.3 1.1 0.3 0.5 0.5 0.5 1.9 1.6 0.4 1.3-0.9 0.9-1.3 0.1-1.1 0.7-0.4 0-1.6-0.4-0.7-0.7-0.3-0.9 0-0.6 0.9-0.2 1.1 0.1 1.8-0.5 0.4-0.6-0.3-0.3-1.6-0.6-0.9-0.6-0.2-0.4 0.8-0.8 0-1-0.5-1.1 0.2-1.7-0.3 0.7-0.9 9.1-7.7 2.1-3.5 2.4-8.2 0.4-0.4 1 0 0.7 0.4 0.8 1 1 1.9 0.7-0.7 1.1-0.4 1.3-0.3 2.7-0.3 1.1-0.4 0.9-1 3.4-6.7 0.3-1.7-0.1-3.5 0.8-1.1 2.2 0.3 1.2-0.1 5.5-1.8 8.9-1.7 1.3-0.4 0.9-1 1.7-3.2 1.1-1.3 1.3-1.1 1.5-0.8 1.1-1.3 0.6-1.9 1-1.9 1.9-1.1 1.1 0.4 0.6 0.3z" id="AGO1885" name="Cabinda" data-id="AGO1885" data-name="Cabinda">
 </path>
 <path d="M572.2 535.3l17 10.9 3.8 3 3.8 4 1.8 1.5 2 0.8 4.3 0.9 2.7 1 1.6 1.5 1.1 1.8 0.1 1.9-1.8 4-0.5 2.1-0.8 2-0.7 3.2 0 2.1-1.9 0.3-1.2 1-1.1 1.1-3 4-0.9 1.7-0.5 1.9-0.5 4.1-1 2.5-1.5 1.7-1.5 0.8-2.6 0.3-1.3 0.3-0.9 0.9-0.2 1.6 0.4 1.7-0.7 2.3-1.5 1.1-2.1 1.3-1 1.5-1.9 3.9-1.8 2.5-0.8 2.2 0 2.1 1.5 3.3 0.3 0.8-0.1 0.9-0.5 2-1.1 1.8-3.3 3.9-0.6 0.5-2.2 1.2-2.6 2.7-1.2 1.6-0.3 1 0 0.9 0.5 0.9 0.3 1.1-0.5 1.6-1.2 1.3-4.3 2.5-2.7 2.3-2.3 1.5-4.4 1.9-1.8 1.3-6.9 6.8-1.3 3 0.2 2.2-0.5 1.5-1 1.8-1.4 1.9-5.1 5.6-0.9 2.2-0.2 1.7-0.6 2.4-1.4 1.7-7.8 6.5-1.9 1-0.5 1.7 0.3 1.8 1.4 4.2-0.4 2.5-2.8 3.7-1.3 2.3-1.3 1.3-2.1 1.3-1.5 1.5 0 1.5-1.5 3.8 0.4 1.8 1.9 4.8 0.6 3.6-0.4 2.1-1.5 1.4-3.6 1.5-1 0.6-1.6 1.1-1.3 1.4-1 1.8 0.3 2 0.6 1.9 0.4 2.1-1.2 3.4-0.3 1.4 0.3 1.4 0.4 2.6-1 3.2-1.3 3-2.6 2.3-6.8 1.6-0.9 1.6 0 1.8 0.6 2 0.2 7.6-0.2 0.8-0.4 0.8-1.7 2.4-0.6 0.7-0.6 0.5-0.4 0.1-1.3 0.9-1.2 1.3-1.2 0.9-0.9 0.3-0.8 0.4-3.5 2.5-0.9 0.4-0.5 0-1.9-0.2-0.9 0.1-3.3 1.3-0.8 0.2-2-0.3-1.3 0.1-0.8 0.2-1.2 0.6-1.1 0.9-2.5 3.7-2.5 3-0.6 0.5-3.3 2.2-0.4 0.4-0.3 0.8-0.2 0.9 0.2 3-0.1 1.2-0.3 0.9-0.3 0.8-2.4 3.3-0.1 0.4 0.2 0.9 0.7 1.2-1.4 0.2-1.4-0.3-2-0.6-2.1-1-4.8-3.4-2.7-1.1-4.3-2.7-3.5-3.1-0.8-1.8-1-3.9-0.7-1.9-2.5-4.1-1.2-1.5-1-0.7-1.8-0.6-1.8-0.1-2.3 0.8-0.7 0.6-1.5 0.7-1.8 0.7-1.8-0.3-1.6-0.7-2.7-1.8-1.6-0.7-2.2-0.3-2.6 0.7-2.7 1.1-3.6 0.4-7.4-0.3-0.9 0.1-1.6 0.7 0.3-13.6-0.4-1.3-0.1-0.5 0.2-1.2 0.4-1 0.7-1.3 0.3-1.4 0-1.4 0.6-2.3 0.2-0.7 0.5-1.8 0.9-2 0.2-0.4 1-9.3-0.1-0.8-0.8-7.1-0.4-1.8 0-1.7 0.7-4.6 1.1-6.9-0.1-4.5-0.4-2.4 0.1-1 0.3-0.7 0-0.5 0-0.8-1.6-7.4-0.6-10.6-0.2-2.4 0.1-1.6-0.5-2.4-0.2-4 0.4-4.2-0.2-0.6-3.6-1.3-3.8-1.9-1.8-1.3-1.6-1.7-1.3-2.7-2.9-3.5-0.9-1.8-0.2-2.2 0.4-1.2 1.3-1.3 2.6-1.6 0.5-0.6 0.7-1 0.4-1.7 0.4-2.3 0.1-2.3-0.3-2.3-1.2-2.6-0.8-2.5-1.1-1.6-0.3-0.8 0-1 0.3-0.9 0.3-0.8 0.5-0.5 0.8-0.7 2.3-1.5 1.4-0.9 4.7-3.8 1.2-1.2 2.2-3.7 0.3-1.9 0.7-2.3 1-1.5 2.4-3.8 1.2-1.4 0.2-0.4 0.3-2.3-0.1-1-0.5-1.8-0.4-0.7-0.6-0.7-1.3-1.2-0.7-0.8-4.1-3.5-0.5-0.6-0.1-1.5-0.4-2.4-0.6-1.2-0.8-0.7-4.1-2.9-1-1-0.5-0.7-0.3-0.7-0.7-0.7-1.8-1.4-1.4-1.8-1.1-1.1-0.6-0.9-0.6-4-0.1-1.1-0.1-0.7-0.4-0.8-0.6-2.2-0.8-0.5-1.6-0.7-4-0.3-3-1-9.7-1.9-4.5 1.6-1.2 0.7-3.4 0.4-3 0.5-2.5-0.3-3.6-0.7-6.5-2.7 1.9-3.8 1.2-4.2-0.1-5.7 2.1-2.4 4.9-7.3 1.6-3 1.5-3.5 3.2-10.9 4.3 3 1.6 0.7 1.9 0 4.8-0.4 2.9 0.7 1.2 0.5 0.9 0.2 1.4 0 1.6-0.8 1.4-1.6 4.6-7.7 1.5-2 2-1.8 2.9-1.9 4.5-2.3 2.1-1.3 1.9-1.7 3.1-4 1.7-0.9 1.8-0.5 0.8-0.6 2.1-3.1 0.2-0.6 0-0.3-0.6-1.7 0.3-1 2.3-1.4 1.3 0.6 0.9 0.8-1.4 1-0.6 0.6-0.3 0.6 0.3 1.2 0.6 0.5 0.8 0.2 0.6 0.4 1.4 2.6 0.7 0.8 0.9 0.3 2.2 0 0.9 0.2 0.9 0.8 2.3 3.7 1 0.9 1.6 0.7 1.8 0.2 1.7-0.7 1.4 0.2 3.3-1.2 1.7 0.7 1.3 0.6 8.5 2.5 1.3 0.8 1.5 1.2 2.2 1 0.9-0.8 0.7-1 1.5 0.5 1.5-0.7 0.8 0.7 1 2.8 1-0.2 1.2 0.4 1.2 0.6 1 0.3 4.3-0.6 0.7 0.4 0.9 1.5 4.2 2.5 1.5 1.3 0.5 1.4-0.1 2.8 0.2 1.4 0.8 1.3 2.1 2.1 0.9 2.7 1.8 2.7 0.5 1.7-0.2 2.8-0.4 1.1-1.1 0.9-0.6-0.6-2 1.4-0.7 1.5 0.5 1.3 1.7 0.9 1.4 0 0.7-0.1 0.6 0.3 0.6 1.4-0.2 1.6 0 1.1 0.5 0.9 1.1 1.5 3 5 0.3 1.4-0.2 0.5-0.1 0.6 0 1.2-0.2 0.5-0.5 0.4-1.2 0.7-0.3 0.7 0.2 2-0.2 1.1 1-0.6 1.3-0.5 1 0.2 0.1 1.4-0.6 0.5-2.1 0.8-0.7 0.4-0.8 1.9 0.3 1.9 2.2 4.8 0.2 1 0 0.9-0.2 1.3-0.4 1.5-0.3 0.5 0.3 0.3 6.7 3.2 2.3-0.6 1.4-0.3 1.4-0.6 3.8-3.1 1.9-1.3 7.6-8.1 1.5-2.1 0.7-2.5-0.1-5.8-1.1-5.5 2.4 2.1 1.2 0.7 0.5 0.5 0.4 0.8 0.5 1.7 0.7 1 0.3 0.7 0.1 0.5-0.3 2.9 0.1 0.7 0.3 0.7 0.5 0.7 0.7 0.4 0.9 0.2 2.1 0.1 0.6-0.2 1.9-0.5 1.1-0.2 0.7 0.4 0.6 0.5 0.3 0.3 0.5 1.2 0.4 0.4 0.6 0.3 0.6 0 0.8-0.2 1.4-0.7 0.8-0.3 0.7 0 1 0.3 1.9 0.2 1.3 0.4 1.2 0 1.6-0.4 6-1.6 2.1-0.1 4 0.9 4 0.3 2-0.1 1.8-0.6 1.6-1 5.4-5.6 1.6-1.1 4.3-2.2 8.4-3.2 4.1-0.8 1.9 0 3.5 0.4 1.4-0.4 0.7-1.4-0.2-1.6-0.1-1.7-0.3-1.3-0.6-1.1-0.6-0.7-1.4-1.1-1.7-1.9 0-1.5 0.7-1.6 0.4-2.3-0.5-2.1-2.2-4.1-0.6-2.3 0.2-2.2 1-3.9-0.1-2.3z" id="AGO1886" name="Bié" data-id="AGO1886" data-name="Bié">
 </path>
 <path d="M270.9 637.7l-0.3 10.3 0.2 1.6 2.5 8 0 2 1.5 3.6-1.5 2.2-3.4 0.4-2.8 0.7-1.9 0.9-1.9 1.1-1.6 1.3-1.4 2.1-3.9 2.2-1.6 1.4-1.2 1.7 0.3 3.9-0.1 2.1 0.3 2.2 2.2 6 0.8 4 2.6 5.1 1.8 2.6 0.4 1 1.1 5.2 0.4 4.3-0.6 1.7-0.3 1.4-0.3 1.9 0.5 2 0.9 2 2.6 4.2 1.9 1.9 4.2 3 2.5 3 3.4 1.9-1.9 6-8.8 4-1.8-0.1-3.5-0.5-4 2.8-3.1 3.4-2 1.7-1.9 1-7.8 2.8-3.2-0.1-6.5-2.7-3.1-1.3-1.1-0.2-2.5 0.7-0.1 2.1-0.4 1.4-1.2 1.7-5.6 11.2-2.5 3.5-4.2 1.6-17.7-2.2-2.8 0.1-2-0.4-3.9-1.5-1.4-0.1-1.9 0.2-6 1.5-3.9 0-2.5-0.4-2.2-0.5-1.9-1-2.6-0.7-2-0.2-8.6 3-2.5 0.2-1.2-0.3-3-1.1-2.5-0.5-3.9 0.4-1.6-0.8-1-1.5-2.1-3.9-2.9-3.9-1.1-1.9-0.5-1.9 0.2-1.9 1-3.7-0.1-1.5-1.2-1.4-14.9-3.3-2.1 0.3-1.2 1.1-1.3 1.4-1.4 0.8-8.6 3.5-2.3 0.4-1.9-0.5-3.5-2.5-5.7-0.8-4-1.3-7.3-1.4-2.3 0.3-1.5 0.7-2.6 1.8 0-0.2-0.8-1.2-0.1-0.5 0.3-0.7 0.1-2.6-0.2-1.3-0.8-2.6-0.2-1.3 0.2-1.3 0.6-1.3 0.8-1 1.2-0.3 1.7-0.2 0.6-0.6 0.4-0.8 1.1-1.3 1.3-0.7 1.1-0.2 0.8-0.5 0.7-1.4 0-0.8-0.4-1.2-0.1-0.6 0.1-0.6 0.8-0.8 0.7-1.8 2.3-1.3 0.5-0.9 0.2-0.9 0.5-0.1 1 0.4 1.5-1 0.1-0.1 1.4-0.6 1-0.7 5.2-6.9 2.3-1.7 0.9-0.9 1.3-2.2 5-5.7 1.1-2.3 0-2.1-0.7-2.3-1.2-2.3-0.6-2.6 1-2.1 3.7-3.9 1.9-1.1 5.3-5.1 2.1-1.1 0.7-0.6 1.3-2.5 0.6-0.6 2.3-2.1 1.3-0.8 1.6-0.2 0.1 0.4 1.8 0.3 0.9 0.5 2.6-2.6 1-0.3 1.4 0.2 1.3 1.1 1.4 0.4 2.9-0.5 2.3-1.9 3.6-3.8 1.8-1.4 0.7-1 0.4-1.3 0.1-3.4 0.3-1.5 0.6-1.6 1.6-2.4 5.1-4.9 0.5 0 0 0.5-0.8 0.3-0.6 0.6-0.1 0.6 0.4 0.8 1.3-1.2 1.6-2.7 2.6-2.9 0.8-1.2 1.9-6.5 2.4-4.9 0.9-2.7 0.9-5.7 0.5-1.3 1.2-1.2 1-1.4 0.7-1.5 0.7-1.8 1.3-8.2 0.8-2.5 0.2-1.7-0.2-1.8 4 1.2 2.1 0.3 2 0.1 6.7 1.2 4.7-0.7 1.7 0.4 1.6 0.7 0.9 1.5 0.8 4 0.5 1.8 1.2 1.5 3.6 2.3 2 1.7 3.9 4.8 5-3.7 3.9-5.4 1.7-1.4 3.8-2.4 1.9-0.7 2.1-0.2 1.5 0.2 2.7 2 7.8 10.4 2.2 4.5 2.4 3.4 4.9 1.5 2.7-0.2 3.4-1.1 1.9-0.1 1.9 0.6 7.3 3.8 1.4 1.3 0.8 1.5 0.5 1.4 1.7 1.2 1.7 0.3z" id="AGO1887" name="Benguela" data-id="AGO1887" data-name="Benguela">
 </path>
 <path d="M831.7 966.8l2.1 2.7 2.8 4.5-2 0.1-0.7-0.1 0.9 1.2 0.3 1.1 0.1 1 0.4 1.3 0.3 0.4 1 0.9 0.3 0.4 0.1 0.8 0 1.8 0.2 0.5 2.6 0.7 1.4 0.6-0.2 1-0.7 1.1-0.7 1.5-0.4 1.6-0.1 1.4 0.4 1 1.4 2.3 0.4 1.3-0.1 1.1-0.2 0.9 0.4 0.6 1.5 0.2 0.9 0.5 0.3 1.3 0.3 1.4 0.5 1.1 6.9 5.7 1.1 0.4 0.6-0.1 1.2-0.4 0.8-0.2 0.6-0.4 0.4 0.2 0.6 0.6 0.3 0.2 2.1 0.4 0.8 0.8 0.6 1.1 1.2 1.7 0.6 1.1 0.4 0.5 0.5 0.2 1.2 0.2 0.8 0.5 0.6 0.7 5.9 9.3 0.8 2.4 0.7 1.1 1.2 0.7 2.5 0.8 1 1.1 0.2 0.6 0 1.5 0.3 0.7 0.5 0.4 1 0 4.8 2 1.2 0.8 3.6 3.9 1.6 2.3 1.1 2.2 0.9 3.9 0.8 1.3 1 0.9 2.5 1.3 3.2 2.9 2.2 1.5 4.9 2.1 3.8 1.1 1.2 0.6 3.3 3.7 0.5 1 0.7 2.2 1.5 2.5 2 2.3 1.9 1.6 3.5 1.4 0.9 0.9 0.2 1.4-0.2 1.3 0.1 1.2 1 1 1.4 0.4 1.4-0.1 1.3-0.4 1.4-0.2 2.6 0.2 1.2 0.4 1.2 0.6 1.6 1.2 1.5 1.8 1.9 1.6-0.6 1.2 0.1 1.1 0.4 1.1-6.7 1.3-16.4 3.3-16.5 3.2-16.4 3.3-16.5 3.3-40.4 7.8-20.2 3.9-26 5-1.5 0.5-0.5-0.2-1.3-1.7-2.4-1.2-4.6-1.7-3.6-2-1.3-0.3-3.3 0.2-1.2-0.2-1.4 0.2-1.4 0.6-1.4 0.4-1.3-0.6-14.9 4.1-1.1 2.2-2.6 0.5-2.4 0.9-2.1 0.2-1.7-1.6-2.4-1.2-1.4-0.4-0.6 0.7-0.6 0.4-1.3-0.2-1.4-0.6-0.6-0.7-1.2-0.7-3-0.3-3.1 0.1-2.1 0.6-1-0.5-2.3-1.8-2.8-1.4-0.8-0.6-1.6-1.8-1.8-1.6-2-0.9-2.1 0.6-3.1-2.7-0.9-0.3-2.7 0.5-1.1 0-0.9-0.5-2.8 2.3-1.9-0.8-2.2-0.1-1.9 0.5-1.2 1.1-0.6-0.7-1.1 0.5-1 0.2-2.3 0-4.6 0.4-0.8-0.1-2.9-1-3-1.7-12.7 0-0.5 0.3-0.9 1.6-0.4 0.5-1.3-0.2-1.9-0.5-1.7-0.8-0.7-0.6-0.7-1.6-1.7-0.4-1.8 0.2-4.6 1.1-13.8 0.1-12.8-3.8-1.3-0.8-3.6 0.2-2.4-0.5-0.9 0-1.7 0.4-2.8 1-6.8 0.4-10.5-2-7.2-3.6-3.1-0.7-1.1-1-1.6-2.1-4.6-4.9-0.8-0.6-1.5-0.7-0.8-0.8-0.4-0.7-0.4-1.5-0.3-0.6-4.2-3.5-1-0.6-0.3-1-2.8-5.4-1.9-0.5-0.2-0.2-0.2-0.9-1.3-3.2-1-0.7-0.4-1.3-0.7-0.1-4.3 0-62 0-27.6 0 0.2-14.3-3.7-18.3-0.8-8.5 0.1-5.6 0.6-5.4 1-3 3.4-8 1.7-6.9 5.1-6.3 1.4-2.5 0.9-2.4 1.2-5-0.3-10.2-2.2-16.2-0.2-10.5-0.7-2.6-1.3-2.5-1.3-1.5-3.8-3.4-10.3-18.7-2.2-2-4.4-3.1-1-1.2-0.5-0.8-1-3.9-1.1 0.4-0.4 0.1-0.6-0.6-0.7-1.9-0.7-0.4-1.7 0.1-0.9-0.1-0.7-0.5-3-2.8-0.7-0.4-0.9-0.3 0-0.6 0.3-0.2 0.8-0.9-0.8-0.4-2-1.4-0.8-0.8-2.2-1.4-0.8-0.2 0-0.6 0.5-0.9-0.3-2.3-0.6-0.8-2.7-0.7-1.2-0.8-0.9-1.1-0.4-0.9 0.2-1 0.3-1 0-0.8-0.8-0.3-1-0.1-0.9-0.4-3.5-4.2-0.7-1.3-0.2-1.4 0.3-0.6 1.2-0.9 0.2-0.6-0.1-0.2-0.4-0.4-0.4-1.5-0.5-0.8-0.6-0.6-0.6-1.3-1.9-2.3-0.5-1.2-0.1-1.9 0.7-4.6-0.3-2-0.9-1.7-3.1-4-0.2-0.7 0.6-1.3 0.8-2.1 0.9-0.2-0.2-0.5-0.8-0.5-0.8-0.5-0.7-0.2-2.6-0.3 0.5-0.5 0.6-1.3-2-0.4-2-1.2-1.6-1.7-0.6-0.9-0.3-0.9 0-7 0.1-1.2 0.2-0.8 0-1.4-0.3-1.9 0-1 0.2-1.3 0-0.8 0-1.1-0.6-2.1-1.3-2.6-0.3-1.2-1.3-7.5 0.2-0.9 0.2-0.4 0.7-0.3 0.4-0.4 0.2-0.4 0.5-4.7 0.5-2.1 0.1-0.8-0.2-1-1.1-3.6-0.2-1.1 0-0.8 0.4-0.8 0.2-0.6 0-1-0.1-0.6-0.8-1.9 1.6-0.7 0.9-0.1 7.4 0.3 3.6-0.4 2.7-1.1 2.6-0.7 2.2 0.3 1.6 0.7 2.7 1.8 1.6 0.7 1.8 0.3 1.8-0.7 1.5-0.7 0.7-0.6 2.3-0.8 1.8 0.1 1.8 0.6 1 0.7 1.2 1.5 2.5 4.1 0.7 1.9 1 3.9 0.8 1.8 3.5 3.1 4.3 2.7 2.7 1.1 4.8 3.4 2.1 1 2 0.6 1.4 0.3 1.4-0.2-0.7-1.2-0.2-0.9 0.1-0.4 2.4-3.3 0.3-0.8 0.3-0.9 0.1-1.2-0.2-3 0.2-0.9 0.3-0.8 0.4-0.4 3.3-2.2 0.6-0.5 2.5-3 2.5-3.7 1.1-0.9 1.2-0.6 0.8-0.2 1.3-0.1 2 0.3 0.8-0.2 3.3-1.3 0.9-0.1 1.9 0.2 0.5 0 0.9-0.4 3.5-2.5 0.8-0.4 0.9-0.3 1.2-0.9 1.2-1.3 1.3-0.9 0.4-0.1 0.6-0.5 0.6-0.7 1.7-2.4 0.4-0.8 0.2-0.8-0.2-7.6-0.6-2 0-1.8 0.9-1.6 6.8-1.6 2.6-2.3 1.3-3 1-3.2 2.5 0.9 18.6 10.4 2.6 0.6 2.2 0.1 1.8-0.3 2.8 0.5 10.3 4.8 3.2 1.1 2.6 0.6 1.8 0.7 5.1 4.2 0.8 0.4 0.7 0.1 0.6 0.2 1 1 0.8 1.7 0.4 0.4 2.5 1.6 0.9 0.9 1.1 1.4 0.4 0.6 0.2 0.5 0 1.1 0.3 0.8 1 1.2 0.5 1.3 0.6 0.9 0.6 0.6 0.6 0.8 0.6 1.1 0.1 0.9-0.6 1.1-0.1 0.5 0.1 0.9 0.5 0.7 0.4 1.3 0.4 0.7 0.1 0.5 0 1.3 0.6 1.1 0.1 0.4-0.5 1.2-0.1 0.4 0.3 1.3 0.1 1.4 0.2 0.4 0.7 1.1 0.3 0.8 0.4 1.3 1.2 1.5 0.6 2 0.1 0.3 0.7 0.7 0.5 0.4 0.5 0.8 0.1 0.9 0.4 0.8 1 1.2 0.2 0.6 0.6 0.6 1 0.4 1.1 0.7 0.9 0.3 1-0.1 5.7-2 2.7-0.3 3.2 0.3 5.5 1.2 1.5-0.7 0.6-1.3-0.9-3.7 0-1.8 0.4-1.6 1.5-1.2 1.9-1 2.3-0.2 2.6 0.7 3.7 1.6 6.9 1.5 6.6-0.9 2.6 0.3 1.3 1.6 0.8 1.1 0.6 1.1 0.6 0.8 2.1 1.7 0.8 0.8 0.6 0.9 0.6 1.6 0.6 2.3 0.4 1 0.6 0.9 1.3 1.2 1.3 2 0.2 0.4 0.6 2.6 0.5 0.9 0.8 0.7 2.2 1.6 0.8 0.8 0.6 1.1 0.7 0.9 1 0.8 1 0.9 1 1.3 2.8 3.1 4.5 3.6 0.8 1.1 0.7 0.8 1.3 0.7 0.9 1.2 1.8 0.6 2.8 1.9 2.1 3.1 0.8 0.8 2.4 1.8 0.7 0.7 0.5 0.6 1.1 1.5 0.4 0.5 0.5 0.3 6.2 3.5 4 1.3 1.7 0.8 1.1 0.7 1 0.3 0.7 0 2.8-0.3 2.9 0.1 3.4 0.5 0.5 0.2 0.8 0 1.5 0.4 1.2-0.3 1-0.4 1.3-0.3 5.8 0 0.8 0.1 0.4 0.2 0.4 0 1.2-1 1.7-0.8 0.8-0.2 0.7 0.1 1.5 0.4 0.8 0.1 0.6-0.2 1.2-0.8 0.7-0.2 1.2 0.4 3.8 2.2 3 1 1.6 0.3 1.4 0.1 1.2-0.4 0.6-0.9 0.8-0.5 1.9 0.7 2.4 2.1 1.4 0.2 1.6-1.2 0.8 1.2 0.9 1.1 0.3 1.2 0.3 0.5 0.6-0.1 0.5 0.1 6.7 7.3 1.6 2.7 2.1 2.3 0.6 1.4 1.2-0.6 0.8-0.1 0.6 0.4 0.7 0.9 0.1 0.8 0.6 1.4 0.9 1 1.4-0.6 2.1-0.4 1.9 2.1 2.4 4.8 0.1 0.7-0.4 0.9 0.3 0.8 2.2 1.7 2.6 1.1 0.9 0.9 0.3 1.7 0.5-0.3 1.2-0.2 1.4 0.3 1.1 1.1 1.6 3.7 0.3 1.4 0.6 5.2 1.2 1.7 2.7 0.6 0.8 0.5 1.5 2.7 1.5 2.3 0.5 1.1 0.6 2.6 0.7 1.4 1.7 1.8 0.9 1.3 0.6 1.3 0.8 3 0.5 1.4 2.1 2.2 2.4 0.2 2.4-0.2 2.3 0.8 0.8 1.2 0 1.1 0.3 0.8 1.9 0.3 0.7 0.7 1.5 3.4 0.4 1.7 0.4 0.4 1.5 1.7 0.2 0.5 2.1 5.3 0.7 1.2 1.1 0.8 4.4 1.8 2.5 1.6 2.2 1.9 1.4 1.7z" id="AGO1888" name="Cuando Cubango" data-id="AGO1888" data-name="Cuando Cubango">
 </path>
 <path d="M410 882.9l0.9 0.4 1 0.1 0.8 0.3 0 0.8-0.3 1-0.2 1 0.4 0.9 0.9 1.1 1.2 0.8 2.7 0.7 0.6 0.8 0.3 2.3-0.5 0.9 0 0.6 0.8 0.2 2.2 1.4 0.8 0.8 2 1.4 0.8 0.4-0.8 0.9-0.3 0.2 0 0.6 0.9 0.3 0.7 0.4 3 2.8 0.7 0.5 0.9 0.1 1.7-0.1 0.7 0.4 0.7 1.9 0.6 0.6 0.4-0.1 1.1-0.4 1 3.9 0.5 0.8 1 1.2 4.4 3.1 2.2 2 10.3 18.7 3.8 3.4 1.3 1.5 1.3 2.5 0.7 2.6 0.2 10.5 2.2 16.2 0.3 10.2-1.2 5-0.9 2.4-1.4 2.5-5.1 6.3-1.7 6.9-3.4 8-1 3-0.6 5.4-0.1 5.6 0.8 8.5 3.7 18.3-0.2 14.3-34.4 0-20.6 0-20.7-0.1-41.3 0-62 0-20.6 0-41.4 0-6.4 0-0.1 0.4-0.7 1.7-1.8 0.3-3.6-0.6-0.5 0.2-1.3 0.7-0.9 0.3-0.9 0-1.3-0.4-1.8-0.2-1.5-0.5-0.9-0.1-0.7 0.2-1.3 0.8-1 0.2-1.8-0.4-1.2-0.9-3.7-5-1-0.9-7.6-4.2-7.7-4.4-7.1-5.8-6.9-3.9 0.8-2.4-0.7-1.3-1.1-1.2-1.1-3.3-1.2-1.2-1.7-0.7-1.9-0.2-1.4-0.5-2.9-1.9-1.5-0.5-1.4 0.3-1-4.1-2.3-4-8.7-9-3.4-4.3-0.8-2.3 0.2-2.1 1-1.7 1.6-1.5 1.7-1 1.8-1.6 1.3-2.1 0.7-2.7-0.3-1.8-0.5-1-0.5-0.6-0.8-0.6-1.6-1.7 1.3-1.9 0.7-1.4 1-0.5 0.9-0.1 0.7-0.3 0.8-0.3 1.5-2 0.5-0.3 0.9-0.4 1.1-0.2 0.5-0.3 1.1-1.7 0.7 0.7 0.8-0.2 2.6-1.6 2.1-1.8 5.3-6.1 5.1 4.6 1.9 2.1 3.9 3.2 1.8-0.1 4.9-1.9 3.1-1.6 2.2-1.7 1.8-1.8 6.3-8.2 2.3-2.3 2.2-0.8 2 0.6 1.6 1.4 1.3 1.4 1.2 0.8 1.1 0.2 1.6-0.5 1.7-1.4 2.6-3.4 1.4-1.4 1.3-0.6 3.7-0.9 7.2-2.6 8.4-4.7 1.6-1.1 9.5-10.3 1-0.9 1.5-0.9 3.6 0.2 1.9 0.4 3.7-0.2 2-0.2 3.7 0.3 11 2.8 9 2.9 3.5 2.5 1.1 1.3 0.9 1.9 0.9 3.6 7.1 1.3 1.6-0.4 1.7-1.2 2.1-3.8 4.3-5.2 6.7-13.6 3.8-4.9 6.5-11.6 6.5-7.2 5.8-3.5 2.3-0.8 5.7-2.9 2.3-0.5 6.7-0.6 1 0 2.7 0.9 1.9 0.5 13.7 0.1 3.3-0.7 2.5-0.3 6.3 0.1 1.7-1 9.7-11.2 1.8-2.7 4-2.3 7.3-2.6 2.9-0.5 2.5 0.1 3.9 0.8 9.3 0.2z" id="AGO1889" name="Cunene" data-id="AGO1889" data-name="Cunene">
 </path>
 <path d="M392.1 732.7l-5.3 0.8-2.4-0.5-3.1-0.7-7-0.2-2.5-0.8-2.5 0.1-2.1 0.9-1.7 1.3-3.6 4.9-1.2 0.9-3.1 0.6-1.9 0-1.9-0.8-3.2-2.6-1.1-0.6-1.6 0-1.3 0.3-3.6 3-13.7 14.9-6.6 3.7-2.7 3.4-1.4 1.5-6.4 3.7-1.1-0.2-0.9-0.6-0.3-1.6 0-4.1-0.2-1.8-0.6-1.6-1.4-0.6-1.8-0.2-3.7-0.1-1.6-1-1-1.8-1.2-10-0.6-2-1-2.3-2.4-3.1-2.2-0.2-10.4 2.2-3.6-0.9-3.4-1.9-2.5-3-4.2-3-1.9-1.9-2.6-4.2-0.9-2-0.5-2 0.3-1.9 0.3-1.4 0.6-1.7-0.4-4.3-1.1-5.2-0.4-1-1.8-2.6-2.6-5.1-0.8-4-2.2-6-0.3-2.2 0.1-2.1-0.3-3.9 1.2-1.7 1.6-1.4 3.9-2.2 1.4-2.1 1.6-1.3 1.9-1.1 1.9-0.9 2.8-0.7 3.4-0.4 1.5-2.2-1.5-3.6 0-2-2.5-8-0.2-1.6 0.3-10.3 3.9-9 1.6-1.9 2.2-2.1 9-3.2 2.4-0.4 1.1-0.4 0.7-0.5 1.1-1 1.4-1 1.8-0.3 3.9 0.1-0.6-1-0.2-0.4-0.2-0.9 0.2-2.1 0.5-1.7 0.1-0.6 0.3-0.9 0-0.4-0.9-1.2-0.2-0.7 0.4-0.4 1.1-0.7 0.2-0.4 0-2 0.1-0.9 0.8-1.5 0.1-0.4-0.2-0.5-0.9-0.8-0.4-0.5-0.2-0.5-0.2-1.2 0-0.7-0.3-1.5-2-3.3 1.2-5.5 3-3 6.3-2.2 2.7-1.3 2.3-0.8 6.1-1 8.2-2.1 2.2-2 6.5 2.7 3.6 0.7 2.5 0.3 3-0.5 3.4-0.4 1.2-0.7 4.5-1.6 9.7 1.9 3 1 4 0.3 1.6 0.7 0.8 0.5 0.6 2.2 0.4 0.8 0.1 0.7 0.1 1.1 0.6 4 0.6 0.9 1.1 1.1 1.4 1.8 1.8 1.4 0.7 0.7 0.3 0.7 0.5 0.7 1 1 4.1 2.9 0.8 0.7 0.6 1.2 0.4 2.4 0.1 1.5 0.5 0.6 4.1 3.5 0.7 0.8 1.3 1.2 0.6 0.7 0.4 0.7 0.5 1.8 0.1 1-0.3 2.3-0.2 0.4-1.2 1.4-2.4 3.8-1 1.5-0.7 2.3-0.3 1.9-2.2 3.7-1.2 1.2-4.7 3.8-1.4 0.9-2.3 1.5-0.8 0.7-0.5 0.5-0.3 0.8-0.3 0.9 0 1 0.3 0.8 1.1 1.6 0.8 2.5 1.2 2.6 0.3 2.3-0.1 2.3-0.4 2.3-0.4 1.7-0.7 1-0.5 0.6-2.6 1.6-1.3 1.3-0.4 1.2 0.2 2.2 0.9 1.8 2.9 3.5 1.3 2.7 1.6 1.7 1.8 1.3 3.8 1.9 3.6 1.3 0.2 0.6-0.4 4.2 0.2 4 0.5 2.4-0.1 1.6 0.2 2.4 0.6 10.6 1.6 7.4 0 0.8 0 0.5-0.3 0.7-0.1 1 0.4 2.4 0.1 4.5-1.1 6.9z" id="AGO1890" name="Huambo" data-id="AGO1890" data-name="Huambo">
 </path>
 <path d="M392.1 732.7l-0.7 4.6 0 1.7 0.4 1.8 0.8 7.1 0.1 0.8-1 9.3-0.2 0.4-0.9 2-0.5 1.8-0.2 0.7-0.6 2.3 0 1.4-0.3 1.4-0.7 1.3-0.4 1-0.2 1.2 0.1 0.5 0.4 1.3-0.3 13.6 0.8 1.9 0.1 0.6 0 1-0.2 0.6-0.4 0.8 0 0.8 0.2 1.1 1.1 3.6 0.2 1-0.1 0.8-0.5 2.1-0.5 4.7-0.2 0.4-0.4 0.4-0.7 0.3-0.2 0.4-0.2 0.9 1.3 7.5 0.3 1.2 1.3 2.6 0.6 2.1 0 1.1 0 0.8-0.2 1.3 0 1 0.3 1.9 0 1.4-0.2 0.8-0.1 1.2 0 7 0.3 0.9 0.6 0.9 1.6 1.7 2 1.2 2 0.4-0.6 1.3-0.5 0.5 2.6 0.3 0.7 0.2 0.8 0.5 0.8 0.5 0.2 0.5-0.9 0.2-0.8 2.1-0.6 1.3 0.2 0.7 3.1 4 0.9 1.7 0.3 2-0.7 4.6 0.1 1.9 0.5 1.2 1.9 2.3 0.6 1.3 0.6 0.6 0.5 0.8 0.4 1.5 0.4 0.4 0.1 0.2-0.2 0.6-1.2 0.9-0.3 0.6 0.2 1.4 0.7 1.3 3.5 4.2-9.3-0.2-3.9-0.8-2.5-0.1-2.9 0.5-7.3 2.6-4 2.3-1.8 2.7-9.7 11.2-1.7 1-6.3-0.1-2.5 0.3-3.3 0.7-13.7-0.1-1.9-0.5-2.7-0.9-1 0-6.7 0.6-2.3 0.5-5.7 2.9-2.3 0.8-5.8 3.5-6.5 7.2-6.5 11.6-3.8 4.9-6.7 13.6-4.3 5.2-2.1 3.8-1.7 1.2-1.6 0.4-7.1-1.3-0.9-3.6-0.9-1.9-1.1-1.3-3.5-2.5-9-2.9-11-2.8-3.7-0.3-2 0.2-3.7 0.2-1.9-0.4-3.6-0.2-1.5 0.9-1 0.9-9.5 10.3-1.6 1.1-8.4 4.7-7.2 2.6-3.7 0.9-1.3 0.6-1.4 1.4-2.6 3.4-1.7 1.4-1.6 0.5-1.1-0.2-1.2-0.8-1.3-1.4-1.6-1.4-2-0.6-2.2 0.8-2.3 2.3-6.3 8.2-1.8 1.8-2.2 1.7-3.1 1.6-4.9 1.9-1.8 0.1-3.9-3.2-1.9-2.1-5.1-4.6 1.5-1 0.8-0.8 1.4-3.5-0.4-2.7-2-5-0.3-1.8 0.1-2 0.6-2.4 0.8-2.1 5.5-10.3 0.7-2.1 0.1-2.2-3.2-7.3-0.4-16.9-2.7-4.4-2.8-1.3-1.7-1.3-1.5-1.6-0.9-2-0.4-5-0.5-1.7-1.3-1.2-1.8 0.7-1.8 1.3-1.7 0-1.3-1.3-0.5-1.9-0.8-1.8-1.6-0.8-3.6-0.3-1.2-1.1-0.1-1.5 1.2-1.4 3.1-1.8 0.7-1.2 0-1.3-3.3-5.5 0.1-1.7 0.4-1.2 2-3 0.1-1.4-0.6-6 0.9-2.3 1.5-1.8 1.9-0.9 1.4-0.4 1.7-1.3 14.9-10.4 2.3-2.4 1.5-2.1 1.6-3.9 0.6-1.9 0.1-2 0.9-4.5 4.1-7.5-1.2-13.4-1.5-1.6-1.5-0.8-1.6-2.1-0.3-1.6 0.5-2.9-2.1-7.2 1-4.7 1.3-2.4 0.4-1.1 0.5-2.2-0.5-1.9-1.1-1.7-1.4-1.4-0.8-1.4-1.1-2.7 8.6-3 2 0.2 2.6 0.7 1.9 1 2.2 0.5 2.5 0.4 3.9 0 6-1.5 1.9-0.2 1.4 0.1 3.9 1.5 2 0.4 2.8-0.1 17.7 2.2 4.2-1.6 2.5-3.5 5.6-11.2 1.2-1.7 0.4-1.4 0.1-2.1 2.5-0.7 1.1 0.2 3.1 1.3 6.5 2.7 3.2 0.1 7.8-2.8 1.9-1 2-1.7 3.1-3.4 4-2.8 3.5 0.5 1.8 0.1 8.8-4 1.9-6 3.6 0.9 10.4-2.2 2.2 0.2 2.4 3.1 1 2.3 0.6 2 1.2 10 1 1.8 1.6 1 3.7 0.1 1.8 0.2 1.4 0.6 0.6 1.6 0.2 1.8 0 4.1 0.3 1.6 0.9 0.6 1.1 0.2 6.4-3.7 1.4-1.5 2.7-3.4 6.6-3.7 13.7-14.9 3.6-3 1.3-0.3 1.6 0 1.1 0.6 3.2 2.6 1.9 0.8 1.9 0 3.1-0.6 1.2-0.9 3.6-4.9 1.7-1.3 2.1-0.9 2.5-0.1 2.5 0.8 7 0.2 3.1 0.7 2.4 0.5 5.3-0.8z" id="AGO1891" name="Huíla" data-id="AGO1891" data-name="Huíla">
 </path>
 <path d="M857.8 506.7l-0.1 1.8 0.2 2.8 1.4 2.2-0.6 0.7 0.2 3.2-0.2 1.5-0.8 0.7-1.5 0.3-2 0.6-3.4 1.4-1.4 1-1.9 1.7-1.4 1.8 0 1.3 0.7 1.3 1.8 5.7 0 3.2 0.2 0.4 1.2 0.9 0.3 0.4 0.2 1.4 1.4 2.4 0.5 1.5 0.9 7.3-0.2 3.4-1.2 3.4 2-0.1 1.6-1 3.5-3.8 1.2-0.8 8-2.7 2.4-2 2.5-6.6 3-0.4 9.1 3.7 3 0.8 3.2 0.3 2.9-0.5 1.7-1 1.7-1.2 1.8-0.9 2 0.1 1.6 0.8 3 2.1 1.7 0.6 3 0.5 3.7 0 8-1.4 6.6-1.1 14.3-7.9 3.4-1 3.2-0.2 3.1 0.3 11.9 3.3 2.6 0.2 3.2-0.3 3.1 0.4 3.3 1 3.2 0.6 2.8-0.9 0.5-0.8 0.6-1.9 0.5-0.8 0.8-0.6 1.7-1.1 0.7-0.7 0.7-1.6 0.3-2 0.7-1.6 1.5-0.8 0.6 4.1 0.5 1.3 1.5 2.5 0.3 1.2-0.5 1.5-0.3 1.5 0.1 4.6-0.4 3.1 0.5 1.2 1.6 0.2-0.4 11.7 0.5 2.1 3.6 7.9 0 1-0.8 1.1-2.5 2-0.9 1.2-0.2 0.9 0 1.1 0.2 2 0 1.3-0.3 1-2.3 3.4-1.4 3.3-0.4 1.6 0 2.1 0.6 1.6 0.8 1.6 0.7 2 0.4 6.1 0.3 2-0.1 0.9-1.7 4-0.5 10.6-0.5 11.5 0.4 3.7 1.7 2.6 2.1 2.1 0.8 2.1 0.3 5 0.8 3.7-0.2 1.5-0.7 1.4-6.3 9.3-1 2.4-3 11.9-1.6 3.7-0.5 3.2 0.7 2.7 1.7 2.3 4.4 4.5 1.8 2.4 1.3 2.6 1 3-162.8 0 0.2 200.4 0 11.3 0 8.6-0.1 17 0 8.6 0 3.8 0.1 0.2 0 11.8 0.2 1.8-1.4-1.7-2.2-1.9-2.5-1.6-4.4-1.8-1.1-0.8-0.7-1.2-2.1-5.3-0.2-0.5-1.5-1.7-0.4-0.4-0.4-1.7-1.5-3.4-0.7-0.7-1.9-0.3-0.3-0.8 0-1.1-0.8-1.2-2.3-0.8-2.4 0.2-2.4-0.2-2.1-2.2-0.5-1.4-0.8-3-0.6-1.3-0.9-1.3-1.7-1.8-0.7-1.4-0.6-2.6-0.5-1.1-1.5-2.3-1.5-2.7-0.8-0.5-2.7-0.6-1.2-1.7-0.6-5.2-0.3-1.4-1.6-3.7-1.1-1.1-1.4-0.3-1.2 0.2-0.5 0.3-0.3-1.7-0.9-0.9-2.6-1.1-2.2-1.7-0.3-0.8 0.4-0.9-0.1-0.7-2.4-4.8-1.9-2.1-2.1 0.4-1.4 0.6-0.9-1-0.6-1.4-0.1-0.8-0.7-0.9-0.6-0.4-0.8 0.1-1.2 0.6-0.6-1.4-2.1-2.3-1.6-2.7-6.7-7.3-0.5-0.1-0.6 0.1-0.3-0.5-0.3-1.2-0.9-1.1-0.8-1.2-1.6 1.2-1.4-0.2-2.4-2.1-1.9-0.7-0.8 0.5-0.6 0.9-1.2 0.4-1.4-0.1-1.6-0.3-3-1-3.8-2.2-1.2-0.4-0.7 0.2-1.2 0.8-0.6 0.2-0.8-0.1-1.5-0.4-0.7-0.1-0.8 0.2-1.7 0.8-1.2 1-0.4 0-0.4-0.2-0.8-0.1-5.8 0-1.3 0.3-1 0.4-1.2 0.3-1.5-0.4-0.8 0-0.5-0.2-3.4-0.5-2.9-0.1-2.8 0.3-0.7 0-1-0.3-1.1-0.7-1.7-0.8-4-1.3-6.2-3.5-0.5-0.3-0.4-0.5-1.1-1.5-0.5-0.6-0.7-0.7-2.4-1.8-0.8-0.8-2.1-3.1-2.8-1.9-1.8-0.6-0.9-1.2-1.3-0.7-0.7-0.8-0.8-1.1-4.5-3.6-2.8-3.1-1-1.3-1-0.9-1-0.8-0.7-0.9-0.6-1.1-0.8-0.8-2.2-1.6-0.8-0.7-0.5-0.9-0.6-2.6-0.2-0.4-1.3-2-1.3-1.2-0.6-0.9-0.4-1-0.6-2.3-0.6-1.6-0.6-0.9-0.8-0.8-2.1-1.7-0.6-0.8-0.6-1.1-0.8-1.1-1.3-1.6-2.6-0.3-6.6 0.9-6.9-1.5-3.7-1.6-2.6-0.7-2.3 0.2-1.9 1-1.5 1.2-0.4 1.6 0 1.8 0.9 3.7-0.6 1.3-1.5 0.7-5.5-1.2-3.2-0.3-2.7 0.3-5.7 2-1 0.1-0.9-0.3-1.1-0.7-1-0.4-0.6-0.6-0.2-0.6-1-1.2-0.4-0.8-0.1-0.9-0.5-0.8-0.5-0.4-0.7-0.7-0.1-0.3-0.6-2-1.2-1.5-0.4-1.3-0.3-0.8-0.7-1.1-0.2-0.4-0.1-1.4-0.3-1.3 0.1-0.4 0.5-1.2-0.1-0.4-0.6-1.1 0-1.3-0.1-0.5-0.4-0.7-0.4-1.3-0.5-0.7-0.1-0.9 0.1-0.5 0.6-1.1-0.1-0.9-0.6-1.1-0.6-0.8-0.6-0.6-0.6-0.9-0.5-1.3-1-1.2-0.3-0.8 0-1.1-0.2-0.5-0.4-0.6-1.1-1.4-0.9-0.9-2.5-1.6-0.4-0.4-0.8-1.7-1-1-0.6-0.2-0.7-0.1-0.8-0.4-5.1-4.2-1.8-0.7-2.6-0.6-3.2-1.1-10.3-4.8-2.8-0.5-1.8 0.3-2.2-0.1-2.6-0.6-18.6-10.4-2.5-0.9-0.4-2.6-0.3-1.4 0.3-1.4 1.2-3.4-0.4-2.1-0.6-1.9-0.3-2 1-1.8 1.3-1.4 1.6-1.1 1-0.6 3.6-1.5 1.5-1.4 0.4-2.1-0.6-3.6-1.9-4.8-0.4-1.8 1.5-3.8 0-1.5 1.5-1.5 2.1-1.3 1.3-1.3 1.3-2.3 2.8-3.7 0.4-2.5-1.4-4.2-0.3-1.8 0.5-1.7 1.9-1 7.8-6.5 1.4-1.7 0.6-2.4 0.2-1.7 0.9-2.2 5.1-5.6 1.4-1.9 1-1.8 0.5-1.5-0.2-2.2 1.3-3 6.9-6.8 1.8-1.3 4.4-1.9 2.3-1.5 2.7-2.3 4.3-2.5 1.2-1.3 0.5-1.6-0.3-1.1-0.5-0.9 0-0.9 0.3-1 1.2-1.6 2.6-2.7 2.2-1.2 0.6-0.5 3.3-3.9 1.1-1.8 0.5-2 0.1-0.9-0.3-0.8-1.5-3.3 0-2.1 0.8-2.2 1.8-2.5 1.9-3.9 1-1.5 2.1-1.3 1.5-1.1 0.7-2.3-0.4-1.7 0.2-1.6 0.9-0.9 1.3-0.3 2.6-0.3 1.5-0.8 1.5-1.7 1-2.5 0.5-4.1 0.5-1.9 0.9-1.7 3-4 1.1-1.1 1.2-1 1.9-0.3 3.8-1.4 1.2-0.7 0.5-0.7 1-1.1 0.9-0.4 0.9-0.1 1.1 0 0.9 0.2 1.1 0.6 0.5 0.1 3.6 0 1.5-0.2 4.5-2.4 0.6-0.4 0.8-0.8 1.9-1.4 0.8-0.9 2.6-2.1 0.8-1.6 0.1-0.6 0.4-0.8 1-1.2 3.2-0.7 1.3 0.1 3.3 2.4 4 1.7 1.3 0.2 1.3-0.2 3.1-0.9 0.9-0.6 2.5-2.3 0.6-0.5 0.6-0.1 0.3 0.3 0.9 0.5 0.9 0.1 0.9 0.5 0.3 0.4 0.5 1.2 0.3 0.4 0.6 0.3 1.2 0.3 1.1 0 0.6-0.2 0.5-0.4 0.3-0.5 0.3-0.8 0.5-0.8 0.4-0.4 0.5-0.1 2.4 0.2 1.5-0.3 0.8 0 0.5 0.2 0.7 0.5 1 0.4 1.2 0.6 1.8 0.4 0.3-0.1 0.9-0.6 0.5-0.5 0.8-1 0.8-0.8 0.7-1 1.2-1.4 0.5-0.4 1.2-0.5 0.7-0.1 0.4 0.2 0.5 0.6 0.4 0.2 1.7 0.6 1.1 0.9 0.7 0.3 1.4 0.2 2.3 0.9 0.5 0.2 0.5 0.5 0.3 0.6 0.5 0.5 0.4 0.2 1.4 0.2 0.5 0.1 1.4 0.6 0.9-0.1 1-0.7 0.8-0.4 0.7 0 0.5 0 1 0.6 1 0.4 0.8 0.7 1.5 0.6 0.7 0.6 0.6 1 1 0.6 0.6 0.5 0.5 0.3 1.8 0.5 1.6-0.1 0.6 0 0.4 0.2 0.3 0.3 0.3 0.8 0.3 0.3 1.1 0.6 3.8 1 0.6 0.2 2.4 1.7 0.4 0.2 0.8 0.3 1.8-0.3 0.6 0 0.5 0.2 1.1 1.2 0.2 0.8 1.1 0.5 0.6-0.1 1.3-0.1 1 0.2 3.3 1.1 1.3 0.3 1.1 0.1 1.2 0 0.7 0.2 0.8 0.3 1.5 0.2 6.8 0.4 3.6-0.3 0.3-0.5 0-0.9-0.7-1.4-0.1-0.5 0.1-0.5 0.3-0.5 2.2-1.4 1.5-0.7 0.9-0.7 0.6 0 1.8 0.1 0.9-0.2 1.1-0.7 0.7-0.7 0.3-0.7 1-1.4 0.8-0.8 0.9-0.4 1.1-1 1.2-1.8-0.2-0.7 0.5-0.4 0.9-0.4 2.5-0.4 1.9-0.5 4.2-2.1 3.4-0.8 0.5-0.2 1.3-0.9 5.1-1 0.4-0.4 0.7-0.9 0.4-0.8 0.7-0.5 1.2 0.2 0.5 0 0.7-0.5 0.4 0.2 0.6 0.6 0.3 0.2 1.2 0.2 2.1 0 0.7-0.1 3.9-1.8 1-0.6 2.1-0.8 0.4-0.1 0.9-0.6 0.4-2.7-0.3-0.4-0.2-0.7 0-0.9 0.2-0.8-0.3-0.4-0.9-0.1-0.6-0.4-0.4-1.3-0.8-0.8-0.5-0.7-0.3-1.3 0-0.5 0.1-0.5 0.7-1 0.3-0.8 0.1-2.7 0.5-1.7 0-1.6 0.2-0.8 1.7-2.1 0.8-0.9 2.4-1.8 0.6-0.6 0.3-0.6 0-0.6-0.3-3 0-1.1 0.1-0.4 0.5-1.3 0.3-2.5 0.9-2.5 1.4-2.5 1-1.2 0.9-0.2 1.4-0.2 4.9 0.3 13.3-1.3 1.3-0.4 1.4-1.4 0.3-0.2 0.5 0 0.6 0.2 0.7 0 1.6-0.1 0.8 0 4.3 1.2 0.9 0.4 1.4 0.9 0.9 0.4 0.8 0.1 2.4-0.1 3-1.1z" id="AGO1892" name="Moxico" data-id="AGO1892" data-name="Moxico">
 </path>
 <path d="M6.5 1011l0.1 1.1-1.9-1.7-1.1-2.5-2.6-8.3 0.2-2.3 0.8-1 1.6-1.5 1.5 0.5 0.1 4.2 0.3 1.8 0 3.5 0.1 3.2 0.9 3z m147.1-237.6l1.1 2.7 0.8 1.4 1.4 1.4 1.1 1.7 0.5 1.9-0.5 2.2-0.4 1.1-1.3 2.4-1 4.7 2.1 7.2-0.5 2.9 0.3 1.6 1.6 2.1 1.5 0.8 1.5 1.6 1.2 13.4-4.1 7.5-0.9 4.5-0.1 2-0.6 1.9-1.6 3.9-1.5 2.1-2.3 2.4-14.9 10.4-1.7 1.3-1.4 0.4-1.9 0.9-1.5 1.8-0.9 2.3 0.6 6-0.1 1.4-2 3-0.4 1.2-0.1 1.7 3.3 5.5 0 1.3-0.7 1.2-3.1 1.8-1.2 1.4 0.1 1.5 1.2 1.1 3.6 0.3 1.6 0.8 0.8 1.8 0.5 1.9 1.3 1.3 1.7 0 1.8-1.3 1.8-0.7 1.3 1.2 0.5 1.7 0.4 5 0.9 2 1.5 1.6 1.7 1.3 2.8 1.3 2.7 4.4 0.4 16.9 3.2 7.3-0.1 2.2-0.7 2.1-5.5 10.3-0.8 2.1-0.6 2.4-0.1 2 0.3 1.8 2 5 0.4 2.7-1.4 3.5-0.8 0.8-1.5 1-5.3 6.1-2.1 1.8-2.6 1.6-0.8 0.2-0.7-0.7-1.1 1.7-0.5 0.3-1.1 0.2-0.9 0.4-0.5 0.3-1.5 2-0.8 0.3-0.7 0.3-0.9 0.1-1 0.5-0.7 1.4-1.3 1.9 1.6 1.7 0.8 0.6 0.5 0.6 0.5 1 0.3 1.8-0.7 2.7-1.3 2.1-1.8 1.6-1.7 1-1.6 1.5-1 1.7-0.2 2.1 0.8 2.3 3.4 4.3 8.7 9 2.3 4 1 4.1-1.9 0.6-0.6-0.1-0.5-0.3-1.2 0.3-2.1 0.9 0-0.6-0.8 0.3-1 0-1.8-0.3-0.9-0.4-0.5-0.8-0.6-0.5-1 0.6-1.5-1.1-1.8 0.1-1.8 0.6-8.7 1.5-4.2 2.5-2.5 0.6-1.6 0.8-1.9 0.5-0.4 0.8-0.2 1-0.3 0.7-0.7 0.5-1.4 0.4-0.6 0.3-0.8 0.7-0.6 1.2-0.6 0.7-2.7 0.9-3.6 1.7-2.8 2.4-1.5 0.8-2.1 0.3-1.9 0.7-3.6 3.1-2 1-1 0.1-2.9-0.6-4.7-0.4-1.5-0.5-1.9-1.2-0.9 0.1-1 0.9-1.2 0.5-5.2-0.2-5.8 0.5-0.3-0.3-0.2-0.8-0.4-0.8-0.8-0.4-0.8-0.2-0.9-0.5-0.8-0.5-0.5-0.5-0.3-0.7-0.3-1.2-0.5-0.5-0.8-0.2-0.8 0.6-0.9 0.2-2.8-0.8-0.8-0.6-0.6 0-1 0.3-3.7 0.5-3.7 1.1-3.3 1.6-3.8 2.9-3.3 1.6-1.5 1-0.5 0.6-0.2 0.6-0.4 0.4-1.2 0.1-0.8-0.2-1.4-0.7-1.1-0.2 0-0.6-0.7-0.6-0.4-0.8-0.1-1 0-1.2 0.6-3.2 0-11.1 1.1-7.3 0.6-6.5-0.9-6 0-2.5 1.4-0.4 0.4 3.6 1 1.5 1.4-3.6-0.3-6.5 0.5-2.1-0.8-8 0.7-8.8-3.5-31.9 0.1-1.6 0.4-1.4 1.8-3.8-1.8-3.8-3.9-6.1-0.1-3.6 1.3-4.9 1-0.7 1.7-1.1 1.6-0.7 0.7 0.5 0.4 1.5 0.9 0.4 1.2-0.3 4-4 0.7-1.2 0.3-1.2 0.1-2.3 0.2-1.1 1.6-2 5-3 1-1.9 0.3-2.4 1.6-6.3 1-2.3-0.9-2.2 0.3-2.4 1.1-4.8 0.8-9.8 0.4-1.3 0.7-1.1 2.8-2.6 0.6-0.2 1.2 0.7 0.7 0 0.7-0.9 0.4-1.4-0.1-1.4-0.5-1.2-1.2-0.6-0.8 0.3-0.4-0.1 0.2-1.8 0.8-2.6 2.1-5.1 0.4-2.9 0.3-1.1 0.8-0.9 0.9-0.9 0.8-0.8 0.4-1.2 0.8-4.5 0-1.1 0.2-0.6 0.6-0.8 0.5 0 0.5 0.2 0.6-0.3 0.7-1.1 0.7-2.3 1.6-2.6 0-1.5-0.4-1.5-0.1-1.6 0.2-1 0.6-1.9 1.3-6.1 0.5-6.7 0.4-1.1 1.3-2.1 0.9-2.9 0.9-5.5 0.2-5.4-0.2-2.7-0.9-2.8-0.6-1.3-0.1-0.6-0.2-1.3-0.4-0.8-0.1-0.5 0.1-0.6 0.7 0.2 0.7-0.3 0.9-0.2 0.4-0.2 0.4-0.7 0.1-0.7 0-1.5-0.6-1.2-1-1.1-0.5-1.2 1.3-2.1 0.4-1.8 1.6-1.9 0.4-1.2 0.2-1.3 0.5-1.2 1.3-2.2 0.3-0.8 0.1-2.9 0.2-1.3 0.7-1 1.9-0.6 0.9-0.7 0.6 0.1 1.1 0.8 0.5 0.3 0.6 0 1.4-1.9 0.5-2.9 0.6-8.7-0.3-8.1 0.3-1 1.1-2.2 0.3-0.9 2.6-1.8 1.5-0.7 2.3-0.3 7.3 1.4 4 1.3 5.7 0.8 3.5 2.5 1.9 0.5 2.3-0.4 8.6-3.5 1.4-0.8 1.3-1.4 1.2-1.1 2.1-0.3 14.9 3.3 1.2 1.4 0.1 1.5-1 3.7-0.2 1.9 0.5 1.9 1.1 1.9 2.9 3.9 2.1 3.9 1 1.5 1.6 0.8 3.9-0.4 2.5 0.5 3 1.1 1.2 0.3 2.5-0.2z" id="AGO1893" name="Namibe" data-id="AGO1893" data-name="Namibe">
 </path>
 <circle cx="282.7" cy="571.3" id="0">
 </circle>
 <circle cx="312.3" cy="294.8" id="1">
 </circle>
 <circle cx="261.8" cy="448.5" id="2">
 </circle>
</svg>