<?xml version="1.0"?>
<!--
************* Copyright (c) 2017 Pareto Softare, LLC DBA Simplemaps.com *******************		
************* Free for Commercial Use, full terms at  http://simplemaps.com/resources/svg-license ************
************* Attribution is appreciated! http://simplemaps.com ***************************
-->
<svg baseprofile="tiny" fill="#7c7c7c" height="514" stroke="#ffffff" stroke-linecap="round" stroke-linejoin="round" stroke-width="2" version="1.2" viewbox="0 0 1000 514" width="1000" xmlns="http://www.w3.org/2000/svg">
 <path d="M86.5 342l2.2 5.5 1.6 8.7 0.1 1.9-0.3 5.3-1.9 4.8-5.1 7.7-1.4 3.6-1.5 7.7-0.2 3 0.1 2.3 0.4 2.7 0.1 2.1-0.4 3.3-0.8 2.4-1.4 2-1.6 1.4-1.7 2.1-0.4 1.7 0.3 1.8 2.9 4.9 2.4 6.3 0.1 0.6-1.8-0.1-5.6-1.8-3-1.7-5-4.9-14-4.5-3.3-2.5-1.6-2.4-0.3-1.8 0.5-2 0.3-4.5 0.5-1.9 0-1.1-0.5-0.6-0.8 0.1-0.5-0.5 0.2-2.2-24.7-7.8-2.2-0.3-6.9 0.8-2.4-0.6 3.6-4.6 0.9-5-1.4-4.9-3.1-4.4-3.9-2.3 0-1.7 1.3-2.9 0.2-1.3-1.2-2.7-1.2-1.7-0.6-1.7 0.9-2.7-2.2-2-1.2-1.8 4.2-7.1 4.5-5.4 0.5-1.4 0.6-3.4 0.7-1.7 5-6.4 1.3-3 0.1-8.2-3.7-3.3-4.9-2.2-3.9-5.9 3.1 1.8 1.9 0.5 2 0 0.9-0.5 1.6-1.7 1-0.3 0.8 0.3 0.2 1.7 0.8 0.5 2.7 0.1 0.9-0.1 0.7-0.8 0.7-2.5 0.4-0.7 1.6-0.4 5.5 0.4-1.6-3.6-1.8-1.6 1.6-3.5 2.9-3.4 1.9-1 1.9-0.2 1.9 0.7 1.5 1.6 0.5 2.3-0.3 2.4 0.5 2 2.7 1.4 1-0.1 1.6-1 0.7-0.2 3.9 1.5 3.9 0.3 2-0.4 1.6-1.3 0.3 3.2 1.4 1.9 1.6 1.6 1.2 2.6 0.3 2.3 1.4 0.9 1.2-0.5 1.1-1 1.5-0.7 6.5 9.4 1.1 2.3-0.6 2-3 2.4 1.5 1.6 0.3 2.1 0.1 2 0.7 1.9 1.3 1.2 0.9 0 1-0.8 1.7-0.8 0.6 0.1 1.4 0.8 1.2-0.4 1.6-1.7 5.7-1.1 2.4 1.3-0.1 3.5-2.3 7.2 0.3 2.4-0.3 1.3-0.6 0.6-1.7 0.5-0.6 0.4-1.7 3.4 0.6 0.3 1.9-0.2z" id="AUT2320" name="Vorarlberg" data-id="AUT2320" data-name="Vorarlberg">
 </path>
 <path d="M852.5 425.6l-0.3-2.9-0.7-1.3-1.6-1.3-0.7-0.9-0.1-1.2 0.6-3.2 0.1-2 0.4-1.8 1-1.8 4.7-4.1 6.3-8.4 3.4-5.1 1-2 0.1-1.3-0.3-1.6-4.8-6.1-1.1-2.1-0.6-2.7-0.1-2 1.4-6 0-5.2-3.6-13.9-0.2-3-1-7.4-1.3-5.3-1.4-4.8-2.3-5.6-0.2-1.6 0.4-1.6 2-2.8 1.4-1.4 1.5-0.1 0.8 1 0.8 2.2 2.4-1.4 7.6-7.9 7.5 0.1 3.4-0.6 3.2-1.8 2.2-1.7 6.8-7.3 0.2-2 0.1-2.3-0.7-2.3-0.4-2.8 0.4-4.3 0.7-2.2 1.3-2.3 0.8-1.3 4.3-8.4-3.8-6-4.5-5.2-2-3.4-1-2.4 0.1-11.9 4.5-0.6 1.5-1.2 1.6-1.9 0.8-1.7 0.5-2.3 0.2-7.6 2-3.8 2.1-2.2 6.3-5 3.8-1.1 4.6-0.3 9.1 3.1 5.2-2.7 2.5-2.6 4.5-3.2 1.9-1.7 1.3-2.4 1.8-4.9 3.2-2.7 2.8-1.3 1.6-0.3 1.5 0.2 5.5-2.6 5.3-3.9 3-1.4 2.7-0.4 2.1 1 4 3.1 2.1 1.1 1.5-1 1-1.8 0.1-1.6-0.4-1.5 0-1.4 0.5-2.9 1.7-1.8 0.9-0.4 2.5 1.5 1.6 0.3 2-0.8 1.7-1.7 0.6 1.1 1.7 1.8-1.4 1.7-0.6 2-0.8 3.6 2.1 1.7-0.7 3.2 3 1.6 4.2 1.5 3.1 2.8-8.2 6.9 1.4 1.6-0.1 1.2-0.6 1.2-0.4 1.7-1.5 1.2-0.3 0.5 0.1 0.9 1.4 0.6 0.2 0.4-0.5 3.5-0.8 2.5-1.3 2-2.1 1.7-4.5 1-1.7 0.9 0.1 2.1 0.8 0.9 2.7 1.3 1.1 0.7 1.2 3.7 0.9 1.2-2 2.2 0.2 3.4 0.9 3.9 0.2 6.4 0.7 1.9 1.1 1.5 1.5 1-2.7 1.2-9.6 1.3-10.3 2.6-5-0.9-1.9-5.1-1.7 1.5-2.6 4.1-1.5 1.4-1.1 0.3-7.4-1.2-1.4-0.9-1.4-1.5-1.1-2-0.4-2-0.7-1.8-1.7-1.2-10.5-4.1-5.5-0.6-4.8 2.1-0.7 1.9 0.2 2.6-0.7 1.7-1.1 1-5.3 2.8-1.5 1.4-0.9 0.5-0.6-0.1-1.4-1.5-1 0.9-1.9 3.3-1.2 1.4 2.4 1.4 7.3 3 3.6-0.8 8.6 3.5 4.4-0.7 2.8 1.3 2.3 3 1.1 4-0.7 3.7 2.2 1.3 1.8 1.8 1 2.5-0.1 3-1.4 2.4-3.8 1.6-1.5 1.7 0.5 7.8-6.7 5.2-14.1 6.5-1.6-2.6-1.7-1.2-1.6 0.5-1.4 2.4 0.4 7.4-0.3 0.6-1.3 0.9 0 1.1 0.3 0.7 1.6 1 3.9 8.3 0.6 3.2-0.9 2.6-1.9 1.7-4 2.2 0.4 3.4-2 4.2 0.5 3.2 0.7 0.7 2.2 0 0.9 1.2 0 1.7-1.1 3.3 0 1.1 1.7 1.1 4.5-2.1 2.1 0.2 1.6 2.3-0.6 2.3-3 4-2.8 1.7-0.8 2.8 1 2.5 2.6 0.9 1.5 0.8 0.5 1-0.5 1-1.5 1-5.9 2.4-1.6 1.5 3.8 0.4 1.8 0.7 1.9 1.7 0.6 2.1-2.5 0.6-3.4 0-2.2 0.4-0.5 0.6-1.4-0.1-2.9-2.2-2.8-0.3-5.3 0.6-4.9-1-1.8 0.3-1.2 2.1-0.6 2.9-1.1 0.9-1.3 0.3-1.3 1.1-0.3 1.2 0 2.2-0.9 1.4-0.9 0.7-2.7 1.2-3.3 2.4-1.5 1.6-4.8 6.5-1.7 1.6-2.1 1-8.1 4.8-0.4 0.1z" id="AUT2322" name="Burgenland" data-id="AUT2322" data-name="Burgenland">
 </path>
 <path d="M868.1 309l-7.6 7.9-2.4 1.4-0.8-2.2-0.8-1-1.5 0.1-1.4 1.4-2 2.8-0.4 1.6 0.2 1.6 2.3 5.6 1.4 4.8 1.3 5.3 1 7.4 0.2 3 3.6 13.9 0 5.2-1.4 6 0.1 2 0.6 2.7 1.1 2.1 4.8 6.1 0.3 1.6-0.1 1.3-1 2-3.4 5.1-6.3 8.4-4.7 4.1-1 1.8-0.4 1.8-0.1 2-0.6 3.2 0.1 1.2 0.7 0.9 1.6 1.3 0.7 1.3 0.3 2.9-5.4 1.4-0.8 0.4-1.2 1.4 0.7 0.8 0.1 1.4-0.9 5.9-0.2 3.4 0.1 3.3 1.5 4.7 2.8 1.8 1.4 2.9 0.3 4.4-2.4-3.1-1.5-1-5.3-0.9-8.8-4.5-3.7-0.7-3.6 0.3-8.9 3.6-3.5 0.2-10-1.5-2.1-1.3-0.4 2.9 0 2.4-0.8 1.7-1.3 1-1.7 0.5-2-0.6-2.8 0.1-2.8 0.7-2 1.5-1.3 2.7-0.4 2.2-0.8 1.9-2.4 1.9-4 0.7-2.9-1.8-3-2.6-3.8-1.5-24 1.3-13-1.4-1.1-1.5-8.2-9.4-1.6-4.6-0.3-6.3-1.5-6.8-1.9-4.6-0.7-2.6-0.2-1.7 0.9-3.4 0.8-1.7 0.8-2.3 0.3-5.8-10.3-15.8-5.2-6.4-1.9-1.5-1.3-0.9-2-0.3-14.5 3.4-16.1 1.3-3.6-1.5-8.5 0.6-3.6-0.3-13.3 4.7-2.4-0.1-1.1-0.2-0.3-0.5-1.4-1.1-2.2-1.1-9.3-2.9-5.3-3.8-3.4-1.5-4.6-0.1-3.9 0.7-14.3 6.9-2 1.5-1.1 1.4-1.1 2.3-2 3.4-4.9 2.3-8.1 6.3-2.3 0.7-2.4 0.3-1.2-0.5-1.8-1.3-5-4.2 5-6.5 5.6-10.4 1.5-3.7 0.7-2.2-0.3-3.8 0.2-2.5 1.1-1.7 3.9-3.7 2.5-3.3 0.3-1.9-1-1.7-3.9-2.8-4.3-5.5-1.1-1.8-0.9-3.7-0.7-1.8-2.9-4.5-2.1-4.3-1.8-1.2-1.9 0.6-2 1.3-3.7 0.4-2.1 1-1.9 1.4-1.8 0.7-1.9-0.6-2.3-1.6-4.1-3.9-3.4-7.1-3.9-13-1.2-6.9 0.1-1.5 1-3.6 1-2.8 12.1 2.3 1.3-0.6 1.6-0.4 0.4-0.7 3.3-2.9 0.9-1.5 0.5-2 0-2.6-0.6-3.2-1.3-2.6-1-1.6-1.6-1.9-1.5-1.9-1-2-0.5-2-0.1-1.9 0.3-3.8 0.3-2.4 0.7-2.8 1.7-2.2 2.2-1.8 13.9-7 1.5-0.3 1.1 0.2 3.2 1.9 1.8 0.8 3.9 0.7 3.5 1.3 2 0.5 5.7-0.8 6 7 1.4 3.7 0.2 1.5 0.7 1.9 0.8-0.1 2.6-1.9 6.4-1.7 4.9-2.3 1.7-0.4 1.3 0.2 7.3 5.2 2.9 1.3 2.6 0.8 3.9-0.1 3.2-0.9 5.9-4.5 3.2-2 4.2-1.2 2.2-1.2 1.5-1.4 0.4-1.3 1.5-2 18.8-7.6 8.4-6.7 4.5 3.6 13.6 0 0.8 0.4 1.2 1.3 3.9 3.3 2.8 0.4 3.3-0.8 3.2-2 5.3-2.3 2.6-0.7 2-0.1 2.2 0.4 1.2 0 4.1-1.2 6.6-2.6 5.1-1.1 1.4-0.9 1.2-1.4 0.8-1.5 3.6-4.6 5.4 0.8 0.9 0 8-2 2.6 0.2 2.1 0.9 5.5 5.1 10.8 5.3 5.1 3.7 8.8 0.7 2.7 2.9 1.6 2.2 1.8 1.3 2.5 1.3 1.5 0.3 2.4-0.2 1.7 0.3 0.9 0.9 0.6 1.4 0.8 5.6 0.4 2.2 1 2.6 1.3 0.9 1.4-0.1 4.4-2.5 1.7-0.3 1 0.6 0.6 0.8 0.8 1.5 0.5 1.7-0.2 2.7-0.7 2.7 0.3 1.3 1.9 0.7 3.1 0 3.4 2.6 1.6 3.1 1.6 4.4 10.7 1.8 3.2 1.8 1.2 1.2 1.1 0.4 0.9 0 1.3-0.4 3.1-1.6 0.6 0.3 0.8 1.5 0.4 1.4 0.3 2.2 0.8 2.1 1.4 2.8 4.5 4z" id="AUT2323" name="Steiermark" data-id="AUT2323" data-name="Steiermark">
 </path>
 <path d="M558.6 403.2l5 4.2 1.8 1.3 1.2 0.5 2.4-0.3 2.3-0.7 8.1-6.3 4.9-2.3 2-3.4 1.1-2.3 1.1-1.4 2-1.5 14.3-6.9 3.9-0.7 4.6 0.1 3.4 1.5 5.3 3.8 9.3 2.9 2.2 1.1 1.4 1.1 0.3 0.5 1.1 0.2 2.4 0.1 13.3-4.7 3.6 0.3 8.5-0.6 3.6 1.5 16.1-1.3 14.5-3.4 2 0.3 1.3 0.9 1.9 1.5 5.2 6.4 10.3 15.8-0.3 5.8-0.8 2.3-0.8 1.7-0.9 3.4 0.2 1.7 0.7 2.6 1.9 4.6 1.5 6.8 0.3 6.3 1.6 4.6 8.2 9.4 1.1 1.5-5.7-0.6-7.5 2.4-4.9 7-2.5-3.7-1.9-0.3-4.7 2.9-2.7 0.4-1.8-0.2-1.7 0.7-2.2 3.2-1.5 3.2-1.9 6-2.5 5.6-0.7 0.6-2.9 1.3-3.3 0.6-1.2-0.8-2.2 1-0.8 0.9-0.6 1.3-1.5 1.8-1 2.4-1.7-0.4-0.6 0.2-2.6 2.8-1.4 0.8-1.3 0.4-2.9 0.3-1.2 0.5-2 2.8-1.1 3.7-1.2 3.1-2.3 1-1.7-1.8-1.5-3.3-1.7-2.4-4.6 1-2.1-0.3-4.1-1.9-0.7-0.9-1.1-1.9-1.4-0.3-4.4 0.9-27.7-0.8-1.7-0.4-7.4-6.4-1.9-1-2.1-0.6-2.3-0.1-4.4 0.8-2.2-0.2-11.9-5.7-4-0.7-8.5 1.4-1.8 0.1-8.6-2.1-2-0.2-2 0.4-2-0.2-15.8-5.2-5.6-0.2-1-0.7-1.8-2.1-1-0.4-7.9 0.6-5.8-1-13.3 2.9-5.3-0.3-2.7-1.1-8.3-5.1-10.8-2.5-30.6-2.2-7.4-4.9-4.4-1.5-1.1 0.1-2.1 0.9-1.2 0-1.2-0.5-2.4-1.8-1-0.5 0.6-1.5 4.3-8.6 1-2.7 0.6-2.3 0.4-3.3 2.8-1.4 11.7-1.8 5.3-2.3 1.5-0.2 1.4 0.5 4.6 3.5 1.1 0.2 0.9-0.5 0.4-1.5-0.8-1.5-7.8-11-6-6.4-1.4-1.9-0.9-3.1-0.3-2.5-0.6-2.7-1.1-2-1.6-1.8-1.3-0.9-2.7-2.5-1.1-2.2-1.3-1.7-0.9-1.6-0.4-1.9-0.1-1.7 0.6-2.8 1.6-4 0.1-2-1.1-1.6-11.2-3.7-1.8-1.4-1-1.5-0.4-3.7 1.7-1.1 0.9-1.1 0.5-1.7 1-0.8 1.2 0.1 1.7 0.7 5.1 3.3 6 3 8.1 2 4.2 0.5 6.3 2 10.4 6.8 2.2 1.2 2.5 0.6 3.9 0.5 9.8-0.6 5.1-1.1 6.9-3.4 3-2.3 3.3-3.2 2-0.5 2.4-0.2 5.2 1.6 12 3.2 2.9 0.2 13.1 2.8 5.8 0.5 3.4 1.1 4.6 2.4 11.2 8.7 3.9 5.1z" id="AUT2325" name="Kärnten" data-id="AUT2325" data-name="Kärnten">
 </path>
 <path d="M677.5 85.1l0.3 0.6 2.4 2.3 8.2 1.9 4.3 1.8 4.2 2.2 4.7 0.7 2.2 0.8 1.8 1.5 1.3 2.2 0.2 2-0.5 1.2-3-0.3-0.5 0.2-0.3 1-0.1 1.8-0.2 1.2 0 1.7 0.6 2 3 4.2 3.2 1.2 0.7 6.3 2.5 1.9 0.7 1.8 1.5 9.8-0.9 16.9-0.1 4.4-2-2.3-1.6-1-1.4-0.4-6.5 0.3-2.4 1.1-1.9 1.9-1.9 2.8-1.8 1.5-18.8 4.5-2.7-0.8-2.2-2.1-3.6-5.2-1.7-1.9-2-1.3-2.2-0.8-5.9-0.2-1.8 1.5-1.7 1.3-0.9 1.2-0.2 1.2-0.8 7.9-0.3 1.7-0.7 1.6-0.2 1.1 0.6 5.6 0.7 1.9 0 0.7-0.7 1.2-1.5 1.8-0.3 0.9-0.1 1.6-1.9 3.5-1.2 0.9-1 0.3-0.2 0.9 2.4 2.9 21.1 16 6.9 3.4 4.1 1.3 2.8 1.5 2.8 2.2 1.4 1.7 0.9 1.4-0.1 3.7-2.3 3.4-1.8 7.2-0.1 4.5-0.2 2.4-2.2 4.8-8.4 6.7-18.8 7.6-1.5 2-0.4 1.3-1.5 1.4-2.2 1.2-4.2 1.2-3.2 2-5.9 4.5-3.2 0.9-3.9 0.1-2.6-0.8-2.9-1.3-7.3-5.2-1.3-0.2-1.7 0.4-4.9 2.3-6.4 1.7-2.6 1.9-0.8 0.1-0.7-1.9-0.2-1.5-1.4-3.7-6-7-5.7 0.8-2-0.5-3.5-1.3-3.9-0.7-1.8-0.8-3.2-1.9-1.1-0.2-1.5 0.3-13.9 7-2.2 1.8-1.7 2.2-0.7 2.8-0.3 2.4-0.3 3.8 0.1 1.9 0.5 2 1 2 1.5 1.9 1.6 1.9 1 1.6 1.3 2.6 0.6 3.2 0 2.6-0.5 2-0.9 1.5-3.3 2.9-0.4 0.7-1.6 0.4-1.3 0.6-12.1-2.3-7.5-4.8-4.6-4.8-1.1-2.6-0.2-2.9 0.7-2.6 2-3.4 0.8-1.5 0.3-2-0.3-1.7-2.2-3.8 4.8-14.8-0.7-1.7-0.9-1.8-3.3-0.4-2.7-1.2-2-1.4-1-2.1 0.2-0.9 0.9-0.7 5.2-0.2 2.1-0.4 1.6-2.1-3.1-2.8-23.6-5.3-2.1-1.4-1.2-1.6-0.5-1.7-1.7-7.2-0.4-2.5-0.1-2.6 0.3-5.5 0.3-2.3 0.5-1.7 0.4-0.9 0.7-0.6 0.9-0.1 3.6 1 1.9 0.2 1.8-0.5 1.2-1.4 0.1-1.5-1.1-1.4-2.5-1.5-4-2.9-8.9 4.1-7.5 0.9-5-0.5-5.2-1.8-1.2-0.8-3.9-4.1-3.2-1.9-3.3-0.4-5.5 0.3-2.5 0.7-1.6 1.3-1.3 3.8-1.6 1-6.1 1.8-2.7 1-0.3-2.1-2-4.4-9.2-9.6-1.2-2-1.2-2.3-0.6-2.6 0.2-2.7 0.8-1.4 1.7-0.2 0.8-0.4 1.9-2.9 0.5-0.7 5.2-3.6 1.7-2 2.4-3.8 1.2-1.3 2-1 7.2-1.5-0.1-0.4 2-1.7 4.2-2.3 4.9-4.7 2.1-1.5 13.6-5.4 18-3.2 4.4-2.5 12.8-11.2 1.8-3.1 1-5.2 1.2-2.3 0.2-2.1-0.2-5.6 0.2-1.8 0.7-1.8 1.7-3.8 0.4-1.9-0.3-1.7-1.2-1.9-0.5-3.6-0.5-1.6 0.7-1.4 1.2-1.1 4.3-1.6 4.3-0.6 13.6 3.8 2.3 1.3 2.1 1.5 2 3.1 5.4 2.5 0.3 0.3 1.1-5.3 1.1-2.3 0.5 0.1 2.7-0.4 1-0.5 1.1-1 0.6-1 2.3-4.9 0.8-2.6 0.4-2.8 0.1-3.3-0.7-6.4 0.3-2.4 1.8-1.7-1.7-0.8-0.6-0.6-1.4-2.7-0.7 0.2 0.3-1.9 3.9-8.2 5.3 1.4 2.5 1.3 2.4 1.9 2.8 2.4 8.8 4.9 1.2 1.2 2.2 3.4 0.8 1.6 0.7 0.6 1.7 0.9 0.3 1.2-0.3 1.3-1.6 0.3-0.9 1.9-0.9 0.8 0.6 2.7 0.5 1.1 2.3 2.9 1.1 0.9 4.4 1.9 18.6 2.1 13 4.6 1.2-0.1 1-0.5 2.7-2.1 6.8-2.9 2.1-2.2 2.9-7.8 1.9-1.3 3.1 3.7 5.3 2.8 1.5 0.3 2-0.4 3.9-1.9 2-0.2 0.8 0.8 0.2 2.6 0.4 0.8 1 0.1 2-0.7 0.9 0.2 1.4 1.9 0.8 1.8 1 1.3 2.2 0.2 2-2.1z" id="AUT2326" name="Oberösterreich" data-id="AUT2326" data-name="Oberösterreich">
 </path>
 <path d="M532.3 300.6l-1 2.8-1 3.6-0.1 1.5 1.2 6.9 3.9 13 3.4 7.1 4.1 3.9 2.3 1.6 1.9 0.6 1.8-0.7 1.9-1.4 2.1-1 3.7-0.4 2-1.3 1.9-0.6 1.8 1.2 2.1 4.3 2.9 4.5 0.7 1.8 0.9 3.7 1.1 1.8 4.3 5.5 3.9 2.8 1 1.7-0.3 1.9-2.5 3.3-3.9 3.7-1.1 1.7-0.2 2.5 0.3 3.8-0.7 2.2-1.5 3.7-5.6 10.4-5 6.5-3.9-5.1-11.2-8.7-4.6-2.4-3.4-1.1-5.8-0.5-13.1-2.8-2.9-0.2-12-3.2-5.2-1.6-2.4 0.2-2 0.5-3.3 3.2-3 2.3-6.9 3.4-5.1 1.1-9.8 0.6-3.9-0.5-2.5-0.6-2.2-1.2-10.4-6.8-6.3-2-4.2-0.5-8.1-2-6-3-5.1-3.3-1.7-0.7-1.2-0.1-1 0.8-0.5 1.7-0.9 1.1-1.7 1.1-5.1-5-2.3-1.2-2.5-0.6-3.5-0.3-3.8-1.3-3.5-0.1-4.5 0.9-3.1-0.1-2.7 0.5-2.2 1-7.8 7.5-11.7 5.4-3.6 1.9 0.1-2.4-3.1-1.1-6.2 1.2 0.1-0.9-0.4-7.2-0.4-1.9-1.1-2.7-1-1-2.2-1.8-0.8-1.2-0.6-2-0.3-2.1 0-3.6 0.3-2.8 1.8-7.6-0.3-3.9 3.6-1.9 1.9-0.4 4 0.2 14.6-5.3 4.6-2.8 1.9-0.3 1.6 0.3 2.9 1.7 1.8 0.5 2 0.1 4.2-0.6 2.5-0.9 1.7-0.9 1.6-1.6 1.3-2.1 1.2-3.6 1-1.7 0.7-1 2.3-0.9 6.4-0.6 1.5-0.7 1.4-0.8 1.1-1.1 1.1-1.2 0.9-1.4 2.7-6 1.4-2.3 2.6-3.3 0.9-1.5 0.9-2.2-0.3-1.3-2.6-6.4-0.5-2.3-0.1-1.6 0.7-2.4-0.4-0.9-1.2-1.4-4.7-3.1-2.7-2.5-3.3-5.9 4.5-4.1 2.5-1.2 4.7-1.2 4.7 0 7.3 1.9 2.3-0.3-1.4 3.4 2.1 2.6 3.4 2.2 2.6 2.5-3.6 1.8-1.6 4.5 0.7 4.8 3.2 2.6 2 0.4 1.3 0.4 1.1 0.9 5.9 6.6 6.4 4.9 1.5 0.6 2.2-1 1.3-0.1 1.3 0.7 1.5 1.3 1.4-0.1 1-0.8 3.7-4.4-0.1-1.6-1-3.3-0.1-1.2 0-3.3 0.3-0.5 1.2-3.2-0.1-0.2-0.1-4.4 0.4 0.2 2.1-2.8 0-0.5 1.6-3.9 0.3-0.4 0.3-2.4 0.1-2.3-0.4-2.5-1-2.8-2.6-4.4-1.6-2-1.6-1.2-2-0.3-3.3 1.4-2 0.4-7.3-1.4-2.1-2.2 3.3-5.2 0.5-3.7 0.7-1.6 8.5-13.6-0.7-0.6-2.8-4.2-4.4-10.3-2.2-2.2-1.1-0.6-2.6-2.7-3.2-1.9-1-1.6-0.8-2.3 2.7-1 6.1-1.8 1.6-1 1.3-3.8 1.6-1.3 2.5-0.7 5.5-0.3 3.3 0.4 3.2 1.9 3.9 4.1 1.2 0.8 5.2 1.8 5 0.5 7.5-0.9 8.9-4.1 4 2.9 2.5 1.5 1.1 1.4-0.1 1.5-1.2 1.4-1.8 0.5-1.9-0.2-3.6-1-0.9 0.1-0.7 0.6-0.4 0.9-0.5 1.7-0.3 2.3-0.3 5.5 0.1 2.6 0.4 2.5 1.7 7.2 0.5 1.7 1.2 1.6 2.1 1.4 23.6 5.3 3.1 2.8-1.6 2.1-2.1 0.4-5.2 0.2-0.9 0.7-0.2 0.9 1 2.1 2 1.4 2.7 1.2 3.3 0.4 0.9 1.8 0.7 1.7-4.8 14.8 2.2 3.8 0.3 1.7-0.3 2-0.8 1.5-2 3.4-0.7 2.6 0.2 2.9 1.1 2.6 4.6 4.8 7.5 4.8z" id="AUT2327" name="Salzburg" data-id="AUT2327" data-name="Salzburg">
 </path>
 <path d="M408.3 372.9l0.4 3.7 1 1.5 1.8 1.4 11.2 3.7 1.1 1.6-0.1 2-1.6 4-0.6 2.8 0.1 1.7 0.4 1.9 0.9 1.6 1.3 1.7 1.1 2.2 2.7 2.5 1.3 0.9 1.6 1.8 1.1 2 0.6 2.7 0.3 2.5 0.9 3.1 1.4 1.9 6 6.4 7.8 11 0.8 1.5-0.4 1.5-0.9 0.5-1.1-0.2-4.6-3.5-1.4-0.5-1.5 0.2-5.3 2.3-11.7 1.8-2.8 1.4-0.4 3.3-0.6 2.3-1 2.7-4.3 8.6-0.6 1.5-0.2-0.1-6.5-0.7-7.6 1-1.9-0.2-2.2-1-4-2.8-7.1-1.2-5.4-2.2-4.5-4-2.5-6.1-1.1-4.2-2.2-1.4-2.7-0.4-2.7-1.1-2-1.6-0.3-1.3 0-2.5 0.3-2.2 0.9-2.7-0.1-2.3-1.2-4.2-2-1.5-5.5-0.2-1.8-0.6-1.5-2.1-1.5-1.6-1.5-0.7-3.1-0.6-1.3-0.5 1.9-1.9 0-1.8-0.9-1.8-0.9-2.1-0.8-4.5-0.5-2.2-0.9-1.9 1.4-3.3 7.9-4.5 2.8-3.8 0-2.6 3.6-1.9 11.7-5.4 7.8-7.5 2.2-1 2.7-0.5 3.1 0.1 4.5-0.9 3.5 0.1 3.8 1.3 3.5 0.3 2.5 0.6 2.3 1.2 5.1 5z m-9.2-102.5l3.3 5.9 2.7 2.5 4.7 3.1 1.2 1.4 0.4 0.9-0.7 2.4 0.1 1.6 0.5 2.3 2.6 6.4 0.3 1.3-0.9 2.2-0.9 1.5-2.6 3.3-1.4 2.3-2.7 6-0.9 1.4-1.1 1.2-1.1 1.1-1.4 0.8-1.5 0.7-6.4 0.6-2.3 0.9-0.7 1-1 1.7-1.2 3.6-1.3 2.1-1.6 1.6-1.7 0.9-2.5 0.9-4.2 0.6-2-0.1-1.8-0.5-2.9-1.7-1.6-0.3-1.9 0.3-4.6 2.8-14.6 5.3-4-0.2-1.9 0.4-3.6 1.9 0.3 3.9-1.8 7.6-0.3 2.8 0 3.6 0.3 2.1 0.6 2 0.8 1.2 2.2 1.8 1 1 1.1 2.7 0.4 1.9 0.4 7.2-0.1 0.9-2.2 0.5-13.3 6.9-9.3 0.5-5.8 2-5.6 3-4.5 3.6-5.9 0.9-1.5 1-2.5 2.1-1.5 0.3-2.5-0.9-4.2-3.2-2.5-0.2-2 0-6.9-1.4-3.2 0.3-3.8 1.1-1.2 0.7-1.3 0.2-1.2-0.2-1.1-0.7-1.4-1.6-0.9-0.5-2.3-0.6-1.3 0.3-1.1 0.9-1 1.5-4.5 4.4-4-0.3-4.1-1.9-4.6-1.1-9.2 1.6-9.1 2.9-2.3 1.4-8.5 8.5-1.1 2.3-1.3 6.8-2.5 5.9 0 2.7-0.2 1-0.5 0.6-1.5 0.6-0.5 0.6-3 5-1.8 1.9-1.9 0.3-2.2-0.8-4.5-0.4-2.3 0.3-4.4 1.5-1.3 0.1-1.3-0.6-2.2-1.9-1.2-0.6-1.3 0-2.5 0.7-1.3-0.1-3.8-2.1-1.5-0.5-2.7 0.9-1.4-0.1-0.8-1.7 0.6-0.9 2.9-2.4 0.6-1.3-1.3-1.9-10-6.1-2-0.5-2.3 0.3-13.3 3.6-5.4-0.6-4.3-3.4-0.3-4.1 1.6-6.5-0.7-3.2-1.1-1.4-4.5-3.6-2.7-4.4-1.4-1.5-0.7-0.4-1.4 0-3.8 2.1-3.3 3.8-2.3 4.4-0.1 3.6-3.2 0.2-2.6-0.7-2.1 0.4-2 3.4-0.6 2.4-0.1 1.6-0.3 1.5-1.4 1.9-5.7 2.9-3.4 1-0.9 0-0.1-0.6-2.4-6.3-2.9-4.9-0.3-1.8 0.4-1.7 1.7-2.1 1.6-1.4 1.4-2 0.8-2.4 0.4-3.3-0.1-2.1-0.4-2.7-0.1-2.3 0.2-3 1.5-7.7 1.4-3.6 5.1-7.7 1.9-4.8 0.3-5.3-0.1-1.9-1.6-8.7-2.2-5.5 8.5-1.1 2.8-1.1 5.9-3.6 2.5-2.3 2.4-3.2 2.9-5.9 0.8-1.2 1.3-0.9 2.8-1 1.1-0.7 2.2-2.9 1.9-3.9 1.2-4.4 0-4.1-0.6-2.4-0.7-1.8-1.1-1.2-1.8-1 1.3-7.7 0.1-1.8-0.8-2.2-1.2-2.1-0.1-1.7 1.9-0.8 2.2-0.4 1-0.4 0.5 0.4 0.6 1.8-0.2 0.7-0.6 1-0.5 1.2 0.2 1.7 0.7 0.9 1.1 0.7 2 1 5.6 0.8 1.5-0.2 1.7-1.4 2.6-3.7 1.8-1.3 3.2 0.1 17.3 6.5 0.5 0.6 1.1 2 1.1 0.3 3.9-0.5 5.2-2.4 1.9-0.5 1.8 0.1 1.4 0.8 3 2.3-1.1 1.3-4.2 2.9 0.9 1.5 6.7 3.1 6.5 7.1 0.4 0.9 0.1 1.3-0.3 1.3-0.7 0.9 1.3 2.7 1.8 1 13.7 0.2 2.5-0.8 8.6-5.9 3.3-0.9 2.8 1.2-0.3 5.2 3.1 0.4 2.9-1.3 1.8-2 1.8-2.4 2.5-2.3 2.4-0.8 5.7-0.2 2.1-0.9 1.2-1.9-0.5-1.4-1.5-1-1.6-0.4 6.2-7.1 3-0.7 3.2 0.4 2.9 0.9 6.2-1 2.8-1.1 2.4-2.7 0.7-1.8 1-4.5 0.9-2 3.6-3.2 0.5-0.6 2.4 0.1 5.7 1.2 10.7 0 7.3 1.5 1.4-0.4 1.3-3.3 1.5-0.9 11-2.2 30 1.3 1.1-0.2 3.7-4.9 0.5-1.2 0.1-1.8-0.2-5.2-0.4-1.1-1.7-1.5-1-1.3-0.4-1-0.2-1.6 2-0.9 3.2-2.6 1.1-0.7 1.9-0.9-0.4 2.9-0.5 1.6-0.8 1.1-0.4 1.4 0.7 2.1 1.3 1.2 1.4-0.2 2.9-1.5 2.9-0.5 7.5 1.7 2.3-0.4 5.1-2 2.1 0.4 0.7 1.2 1.3 4.1 0.7 1.6 1.1 1.3 3.9 3.1 1.8 0.9 2.7 0.1 2.8-0.5 2-1 1.3-1.1z" id="AUT2329" name="Tirol" data-id="AUT2329" data-name="Tirol">
 </path>
 <path d="M987.8 178.5l-1.7 1.7-2 0.8-1.6-0.3-2.5-1.5-0.9 0.4-1.7 1.8-0.5 2.9 0 1.4 0.4 1.5-0.1 1.6-1 1.8-1.5 1-2.1-1.1-4-3.1-2.1-1-2.7 0.4-3 1.4-5.3 3.9-5.5 2.6-1.5-0.2-1.6 0.3-2.8 1.3-3.2 2.7-1.8 4.9-1.3 2.4-1.9 1.7-4.5 3.2-2.5 2.6-5.2 2.7-9.1-3.1-4.6 0.3-3.8 1.1-6.3 5-2.1 2.2-2 3.8-0.2 7.6-0.5 2.3-0.8 1.7-1.6 1.9-1.5 1.2-4.5 0.6-0.1 11.9 1 2.4 2 3.4 4.5 5.2 3.8 6-4.3 8.4-0.8 1.3-1.3 2.3-0.7 2.2-0.4 4.3 0.4 2.8 0.7 2.3-0.1 2.3-0.2 2-6.8 7.3-2.2 1.7-3.2 1.8-3.4 0.6-7.5-0.1-4.5-4-1.4-2.8-0.8-2.1-0.3-2.2-0.4-1.4-0.8-1.5-0.6-0.3-3.1 1.6-1.3 0.4-0.9 0-1.1-0.4-1.2-1.2-3.2-1.8-10.7-1.8-1.6-4.4-1.6-3.1-3.4-2.6-3.1 0-1.9-0.7-0.3-1.3 0.7-2.7 0.2-2.7-0.5-1.7-0.8-1.5-0.6-0.8-1-0.6-1.7 0.3-4.4 2.5-1.4 0.1-1.3-0.9-1-2.6-0.4-2.2-0.8-5.6-0.6-1.4-0.9-0.9-1.7-0.3-2.4 0.2-1.5-0.3-2.5-1.3-1.8-1.3-1.6-2.2-2.7-2.9-8.8-0.7-5.1-3.7-10.8-5.3-5.5-5.1-2.1-0.9-2.6-0.2-8 2-0.9 0-5.4-0.8-3.6 4.6-0.8 1.5-1.2 1.4-1.4 0.9-5.1 1.1-6.6 2.6-4.1 1.2-1.2 0-2.2-0.4-2 0.1-2.6 0.7-5.3 2.3-3.2 2-3.3 0.8-2.8-0.4-3.9-3.3-1.2-1.3-0.8-0.4-13.6 0-4.5-3.6 2.2-4.8 0.2-2.4 0.1-4.5 1.8-7.2 2.3-3.4 0.1-3.7-0.9-1.4-1.4-1.7-2.8-2.2-2.8-1.5-4.1-1.3-6.9-3.4-21.1-16-2.4-2.9 0.2-0.9 1-0.3 1.2-0.9 1.9-3.5 0.1-1.6 0.3-0.9 1.5-1.8 0.7-1.2 0-0.7-0.7-1.9-0.6-5.6 0.2-1.1 0.7-1.6 0.3-1.7 0.8-7.9 0.2-1.2 0.9-1.2 1.7-1.3 1.8-1.5 5.9 0.2 2.2 0.8 2 1.3 1.7 1.9 3.6 5.2 2.2 2.1 2.7 0.8 18.8-4.5 1.8-1.5 1.9-2.8 1.9-1.9 2.4-1.1 6.5-0.3 1.4 0.4 1.6 1 2 2.3 0.1-4.4 0.9-16.9-1.5-9.8-0.7-1.8-2.5-1.9-0.7-6.3-3.2-1.2-3-4.2-0.6-2 0-1.7 0.2-1.2 0.1-1.8 0.3-1 0.5-0.2 3 0.3 0.5-1.2-0.2-2-1.3-2.2-1.8-1.5-2.2-0.8-4.7-0.7-4.2-2.2-4.3-1.8-8.2-1.9-2.4-2.3-0.3-0.6 0.6-0.6 0.6-5.1 0-6.1 0.4-5.3 2.5-4 6.9-6.1 0.7-3.8 1.3-2.3 0.5-2.5 0.8-1.8 1.9-0.8 6.9 0.9 6.7 2.8 2.7-0.2 1.5-3.5-0.9-1.6-0.8-2.9 0.2-1.4 1-2.5 2.7-12.4 0-5.5-0.5-6.1 0.1-5.7 1.7-4.2-0.1-2 0.6-1 2.9-0.4 7.3 2.5 10.2 0.8 0.9 2.9 0.6 2.7-0.1 2.7-0.8 2.8 2.6 0.1 9.9-2.7 0.7-0.5 1.8-2.1 0.5-1.1 0.3-2.7 0.5-0.8 1 0 1.2 1.8 0.7 0.5 6.1 0 2.9 0.9 6.3 3.2 5.8 2 2.8 1.6 6.5 5.6 10.8 4.2 10.1 5.8 3 0.7 3 0 2.2-0.7 4.7-2.5 1.1-0.3 4 0 0.8 0.6 0.5 2.4 0.6 1 0.9 0.4 2.5 0.2 1.5 1.1 0.9 0.4 1.1-0.1-1.3 1.8 1.6-0.4 1.5 0.1 1 0.9 0.1 2.1 2.2-0.6 0.7 0.8 0.2 2.4 13.2 9.6 6.9 3 12.1-0.7 18.3 2.7 2.9-0.5 1.7 1.4 0.7 0.2 2.1-0.6 1.4-1.3 6.7-11.4 2.2-1.5 3.8 0.5 1.4-0.1 2.3-1 1.2-0.1 1.2 0.4 2.3 1.4 7.8 2.3 2.4 0.3 2.5 1 1 2.4 0.5 2.9 1 2.3 1.7 1.2 2.1 0.4 4.9-0.2 2 0.7 4.8 3.1 2.4 0.9 2.5-0.3 5-1.8 2.2 0.2 3.1 4.3 1.8 13.2 4.5 5.2 1.2 9.3-1 3.5-2.1 2.3-2.2 1.7-0.9 1.9-0.7 2.6-3.5 5-1.3 2.6-0.5 2.8-1.2 10.6-0.9 2.7-0.1 2.2 0.4 1.2 1.1 0.6 2.6 0.3 2.1 1.5 1.4 1.5 0.6 1.6-1.1 3 0.9 0.8 0.9 2.1 0.6 2.1 2.2 1.2 1.4 1.3 0.8 0.3 0.6 1.5-0.1 3.2 2.1 7.1 0.6 3.5 0 4.3 0.9 3.1 3.3 3.6 1.8 1.1 2.1 0.3 1.4 0.9 2 3.6z m-76.3-35.1l-3.6-6.3-0.7-0.9-4.1-0.4-0.5 1.5-1 0.9-2.3 0.6-4.6 2.3-8.8 5.7-0.7 1.1-1.5 1.4-1.1 0.7-1.7 0.5-1.7 0.2-3.2-1.5-1 1-1.2 2-0.4 1.5 0 1.7 1 1.8 1 1.1 1 2.5-1.2 5.6 1.1 1.9 0.8 0.9 0.5 1.3 1.6 0.8 8 0.7 3.5-0.6 3.4-0.1 1.8 1.3 2.4 1.1 1.2 0.3 2.9 0.1 1.4-1 0.7-0.7 0.8-1.7 1.1-0.9 1.9-0.6 6.1-0.3 9.1 1.7-2.8-6-0.9-2.8 0.6-5.3 1.1-4.8-0.5-1.2-1-1-0.5-2.5-0.4-1.5-1.4-1.5-0.7-1.6-1.3-1.3-2.5 0.5-1.2 2.3-0.5-0.5z" id="AUT2330" name="Niederösterreich" data-id="AUT2330" data-name="Niederösterreich">
 </path>
 <path d="M911.5 143.4l0.5 0.5 1.2-2.3 2.5-0.5 1.3 1.3 0.7 1.6 1.4 1.5 0.4 1.5 0.5 2.5 1 1 0.5 1.2-1.1 4.8-0.6 5.3 0.9 2.8 2.8 6-9.1-1.7-6.1 0.3-1.9 0.6-1.1 0.9-0.8 1.7-0.7 0.7-1.4 1-2.9-0.1-1.2-0.3-2.4-1.1-1.8-1.3-3.4 0.1-3.5 0.6-8-0.7-1.6-0.8-0.5-1.3-0.8-0.9-1.1-1.9 1.2-5.6-1-2.5-1-1.1-1-1.8 0-1.7 0.4-1.5 1.2-2 1-1 3.2 1.5 1.7-0.2 1.7-0.5 1.1-0.7 1.5-1.4 0.7-1.1 8.8-5.7 4.6-2.3 2.3-0.6 1-0.9 0.5-1.5 4.1 0.4 0.7 0.9 3.6 6.3z" id="AUT2331" name="Wien" data-id="AUT2331" data-name="Wien">
 </path>
 <circle cx="179.2" cy="346.3" id="0">
 </circle>
 <circle cx="866.2" cy="112.1" id="1">
 </circle>
 <circle cx="456.2" cy="174.4" id="2">
 </circle>
</svg>