<?xml version="1.0"?>
<!--
************* Copyright (c) 2017 Pareto Softare, LLC DBA Simplemaps.com *******************		
************* Free for Commercial Use, full terms at  http://simplemaps.com/resources/svg-license ************
************* Attribution is appreciated! http://simplemaps.com ***************************
-->
<svg baseprofile="tiny" fill="#7c7c7c" height="1326" stroke="#ffffff" stroke-linecap="round" stroke-linejoin="round" stroke-width="2" version="1.2" viewbox="0 0 1000 1326" width="1000" xmlns="http://www.w3.org/2000/svg">
 <path d="M784.4 1165.7l-51.6 35.8-93.6 95.8-34.5 4.2-28.1-0.4-27.1 4.8-30 19.1-43.3-74.5-81.1-46.6-98.6-23.3-58.6-4.3 136-72.4 1.9-0.2-0.5-6.1-6.6-29.8 251.8-95.8 41.1 12.8 6.5 6.5 7.5 12.2 7.1 49.1 1.3 3.5 25.7 44.3 5.6 12.6-0.2 1.9 4.2 3.3 7.4 2.3 25.1 9.8 11.2 5.6 21.4 29.8z" id="BRB1989" name="Christ Church" data-id="BRB1989" data-name="Christ Church">
 </path>
 <path d="M476.9 455.9l-10.3 2.3-55.5 26.4-13.3 3.5-5.4-2.6-1.3-1.1-1.4-2.4-1.2-0.9-1.1-0.7-1.6-0.2-1.8 0.2-2.5 0.7-13.7 22.2-45.3 105.8-20.1-26.5-15.6-5.9-52.3 3.1-22-116.2 2.6-152.3 5.7-11.7 4.2-19.6 2.7-0.9 1.4-1 1.3-0.4 2.5 0.9 1.3 1.4 2.8 1.4 3 1.2 3.7 1.1 2.1 0 2.3-0.7 1.8-0.4 2-0.3 3.4 0.5 1.3 0 2.6-0.5 1.6 0.5 2.5 1.9 6.6-0.7 10.4-4.2 18.7-18.2 10-5.9 6.4-1.8 2.1 1.1 2.3 0.7 1.6 0.3 1.4 1.1 2.1 0.3 2.6-0.3 7.3-6.5 0.9 0 0.4 0.5 6.1 1.4 25.6-1 7.5-2.7 84.1 182.8 17.5 24.3z" id="BRB1990" name="Saint Andrew" data-id="BRB1990" data-name="Saint Andrew">
 </path>
 <path d="M639.8 898.3l-19.3 73.7-251.8 95.8-73.1-239.7 103.6-41 8.8-5.4 31.7-38.2 58.9-10.8 2.9-0.2 92.1 85.4 8.8 9.8 37.4 70.6z" id="BRB1991" name="Saint George" data-id="BRB1991" data-name="Saint George">
 </path>
 <path d="M212.5 463.6l22 116.2-23.7 31.9-6.5 6.3-0.7-0.5-0.9-0.2-0.5 0.2-0.9 1-1.1 0.9-0.7 0.2-1.3-0.2-0.7 0-1.2-0.2-1.5 0-1.1 0.2-1 0.7-3.6 2.3-2.2 1-0.7 0-4.7 4.2-1.6 0.9-1 0.5-0.8 0-0.7 0.4-2.6 0-0.8 0.3-2 1.4-8.2 3-2.6 7.9-11.6 50.9-6.1 14.9-4.6 8.9-4.5 1.4-1.6 1.1-1.1 1.7-2.5 6.5-1.3 0.9 2.2 2.3 5.7 3.3 29 33.1 25.5 111-46.6 36.4-3.9 4.2-7.9 6.1-21.7 9.5-8.9 5.4-0.3 0.9-5.4-3.3-22.5-21.2-12.4 1-24-84.7-20.8-354 27.7 7.2 73.7-34.7 95.2 12.8z" id="BRB1992" name="Saint James" data-id="BRB1992" data-name="Saint James">
 </path>
 <path d="M820 714.3l-6.7 10.7-48.1 58.8-5.7 5.6-29.6 18.7-31.4 12.6-58.7 77.6-37.4-70.6-8.8-9.8-92.1-85.4 4.1-70.7 1-6.2 2.2-8.4 3.8 0 1.9-0.3 1.9-0.4 72-67.4 10.4-4.6 115.2 88.3 66.5 38.6 39.5 12.9z" id="BRB1993" name="Saint John" data-id="BRB1993" data-name="Saint John">
 </path>
 <path d="M598.8 574.5l-10.4 4.6-72 67.4-1.9 0.4-1.9 0.3-3.8 0-2.2 8.4-1 6.2-4.1 70.7-2.9 0.2-58.9 10.8-37.3-75.6-11.8-14.2-6.2-5.6-61.9-39 45.3-105.8 13.7-22.2 2.5-0.7 1.8-0.2 1.6 0.2 1.1 0.7 1.2 0.9 1.4 2.4 1.3 1.1 5.4 2.6 13.3-3.5 55.5-26.4 10.3-2.3 40.4 56 81.5 62.6z" id="BRB1994" name="Saint Joseph" data-id="BRB1994" data-name="Saint Joseph">
 </path>
 <path d="M344.7 182.3l-3.9 2.5-235.7 77-81.2 54.6-17.3 3.8-5.6-96 8.8-70 31-59.1 62.4-64.3 79.3-29.8 80.8 44.1 60.4 91.5 21 45.7z" id="BRB1995" name="Saint Lucy" data-id="BRB1995" data-name="Saint Lucy">
 </path>
 <path d="M368.7 1067.8l6.6 29.8 0.5 6.1-1.9 0.2-136 72.4-34.7-2.4-58.9-42-50.8-98.9-32.8-116 12.4-1 22.5 21.2 5.4 3.3 0.3-0.9 8.9-5.4 21.7-9.5 7.9-6.1 3.9-4.2 46.6-36.4 70.4-14.4 6.2-2.8 28.7-32.7 73.1 239.7z" id="BRB1996" name="Saint Michael" data-id="BRB1996" data-name="Saint Michael">
 </path>
 <path d="M375.3 248.8l-7.5 2.7-25.6 1-6.1-1.4-0.4-0.5-0.9 0-7.3 6.5-2.6 0.3-2.1-0.3-1.4-1.1-1.6-0.3-2.3-0.7-2.1-1.1-6.4 1.8-10 5.9-18.7 18.2-10.4 4.2-6.6 0.7-2.5-1.9-1.6-0.5-2.6 0.5-1.3 0-3.4-0.5-2 0.3-1.8 0.4-2.3 0.7-2.1 0-3.7-1.1-3-1.2-2.8-1.4-1.3-1.4-2.5-0.9-1.3 0.4-1.4 1-2.7 0.9-4.2 19.6-5.7 11.7-2.6 152.3-95.2-12.8-73.7 34.7-27.7-7.2-9.3-158.1 17.3-3.8 81.2-54.6 235.7-77 3.9-2.5 30.6 66.5z" id="BRB1997" name="Saint Peter" data-id="BRB1997" data-name="Saint Peter">
 </path>
 <path d="M784.4 1165.7l-21.4-29.8-11.2-5.6-25.1-9.8-7.4-2.3-4.2-3.3 0.2-1.9-5.6-12.6-25.7-44.3-1.3-3.5-7.1-49.1-7.5-12.2-6.5-6.5-41.1-12.8 19.3-73.7 58.7-77.6 31.4-12.6 29.6-18.7 5.7-5.6 48.1-58.8 6.7-10.7 46.4 15.2 81.1 37.4 51.5 65.4-13.8 155.5-112.7 116.8-88.1 61.1z" id="BRB1998" name="Saint Philip" data-id="BRB1998" data-name="Saint Philip">
 </path>
 <path d="M322.5 609.1l61.9 39 6.2 5.6 11.8 14.2 37.3 75.6-31.7 38.2-8.8 5.4-103.6 41-28.7 32.7-6.2 2.8-70.4 14.4-25.5-111-29-33.1-5.7-3.3-2.2-2.3 1.3-0.9 2.5-6.5 1.1-1.7 1.6-1.1 4.5-1.4 4.6-8.9 6.1-14.9 11.6-50.9 2.6-7.9 8.2-3 2-1.4 0.8-0.3 2.6 0 0.7-0.4 0.8 0 1-0.5 1.6-0.9 4.7-4.2 0.7 0 2.2-1 3.6-2.3 1-0.7 1.1-0.2 1.5 0 1.2 0.2 0.7 0 1.3 0.2 0.7-0.2 1.1-0.9 0.9-1 0.5-0.2 0.9 0.2 0.7 0.5 6.5-6.3 23.7-31.9 52.3-3.1 15.6 5.9 20.1 26.5z" id="BRB1999" name="Saint Thomas" data-id="BRB1999" data-name="Saint Thomas">
 </path>
 <circle cx="239" cy="202.2" id="0">
 </circle>
 <circle cx="92.6" cy="879.2" id="1">
 </circle>
 <circle cx="531.7" cy="1179.9" id="2">
 </circle>
</svg>