<?xml version="1.0"?>
<!--
************* Copyright (c) 2017 Pareto Softare, LLC DBA Simplemaps.com *******************		
************* Free for Commercial Use, full terms at  http://simplemaps.com/resources/svg-license ************
************* Attribution is appreciated! http://simplemaps.com ***************************
-->
<svg baseprofile="tiny" fill="#7c7c7c" height="1790" stroke="#ffffff" stroke-linecap="round" stroke-linejoin="round" stroke-width="2" version="1.2" viewbox="0 0 1000 1790" width="1000" xmlns="http://www.w3.org/2000/svg">
 <path d="M988.9 1645.5l-8.6 12.7-20.1-6.4-15.8 3.2-11.5 6.4-10.1-20.7 4.3-12.8-7.2-11.1 4.3-11.2 28.8 3.2 27.3 4.8 11.5 12.7-2.9 19.2z m2.9-81.4l-18.7 12.8-10-14.4-4.4-12.8 5.8-11.1 34.5 1.6-7.2 23.9z m-35.9-140.4l-5.8 22.3-17.2 25.5-17.3 22.4 11.5 11.2 17.3 19.1-8.7 12.8-27.3-6.4-12.9 9.6-18.7 17.5-8.6 9.6 10 33.5 17.3 23.9 4.3 16-15.8 6.4-8.6 15.9-2.9 20.7 12.9 9.6 10.1 14.4-14.4 14.3-12.9 22.4-11.5 22.3 5.7 15.9-7.2 6.4-25.8-12.8-17.3-27.1 8.6-23.9 17.3-39.9-1.4-23.9 0-35.1-20.2-22.3 4.3-52.7 8.7-33.5 23-36.7 30.2-36.7 12.9-12.8 18.7 3.2 18.7-14.3 23-12.8 0 16z m-21.6-60.7l-24.4 9.6-11.5-19.2 17.2-8 15.8 1.6 2.9 16z m-606.3-960.4l102.1 33.4 27-16.7 79.4 66.7 9.9 108.7-5 223.1-33.8 278.4-20.6 55.1-66 108.6-15.5-75.9-25.9-83.7-35.8-81.6-45.5-70.2-99.1-112.6-16.6-70.1 44.3-84.8 24.8-73.7 55.3 2.6 54-23.4-18-120.4-15-63.5z" id="BHR4926" name="Al Janūbīyah" data-id="BHR4926" data-name="Al Janūbīyah">
 </path>
 <path d="M93.7 387.1l4.8 38-41.4-10.8-43.9 2.7-12.2-40.8 4.9-51.6 34.1-38.1 24.4 8.2 24.4 13.6 0 43.5 4.9 35.3z m187.6-271l-4.3 65.6 75 6.7 37.6 48.7-67.6 14.9-27 26.8 33 123.8 15 63.5 18 120.4-54 23.4-55.3-2.6-12.9-95.2-34.6-93.6-38.6-68.2-9.3-30.5 1.5-41.4 26.4-119.8 16.7-29.5 29.4-14.4 51 1.4z" id="BHR4927" name="Ash Shamālīyah" data-id="BHR4927" data-name="Ash Shamālīyah">
 </path>
 <path d="M536.5 486l-79.4-66.7-27 16.7-102.1-33.4-33-123.8 27-26.8 67.6-14.9 98 86 23-36.6 34.1-27.1 14.7 38 14.6 59.8 29.3 2.7-23.1 28.8-1.3 47.3-45.8 11.5 3.4 38.5z" id="BHR4928" name="Al Wusţá" data-id="BHR4928" data-name="Al Wusţá">
 </path>
 <path d="M389.6 237.1l-37.6-48.7-75-6.7 4.3-65.6 28.3 5.9 66 30.3 93.7-37.4 15 9.9 9.4 33.1 16.6 22.9 10 20.8-12.7 26.9-21.5 6-64.7-9.1-31.8 11.7z" id="BHR4929" name="Al Manāmah" data-id="BHR4929" data-name="Al Manāmah">
 </path>
 <path d="M627.6 104.4l34.2 48.9 29.2 13.6-12.2 35.4-12.1 13.6-36.6-21.8-9.8-35.3-12.2-35.4-31.7-8.2-29.2-5.4-19.5 8.2-29.3-54.4 4.9-40.8 70.7-21.8 51.2 27.2 2.4 38.1 0 38.1z" id="BHR4930" name="Al Muḩarraq" data-id="BHR4930" data-name="Al Muḩarraq">
 </path>
 <circle cx="499.5" cy="1023.5" id="0">
 </circle>
 <circle cx="380.9" cy="175.4" id="1">
 </circle>
 <circle cx="443.4" cy="299.9" id="2">
 </circle>
</svg>