<?xml version="1.0"?>
<!--
************* Copyright (c) 2017 Pareto Softare, LLC DBA Simplemaps.com *******************		
************* Free for Commercial Use, full terms at  http://simplemaps.com/resources/svg-license ************
************* Attribution is appreciated! http://simplemaps.com ***************************
-->
<svg baseprofile="tiny" fill="#7c7c7c" height="1172" stroke="#ffffff" stroke-linecap="round" stroke-linejoin="round" stroke-width="2" version="1.2" viewbox="0 0 1000 1172" width="1000" xmlns="http://www.w3.org/2000/svg">
 <path d="M878.1 582l-9.6 3.6-0.7-12.2-3.4-13.9-4.1-6.1-5.7-4.5-10.8-5.5-4-4-5.5-2.3-12.4 6.7-14.9-3.5-12-9.8-1.1-7.2 0.5-7.5-3.3-6.7-4.9-5.8-7.9-3.5-8.9-0.7-8.7-3.3-7.3-5.6-6.6-3.2-12.4 2.4-9.3-4.2-20.6-6.8 22.3-19.3 4.3-2.4 7.3-2.2 3.5-2.8 7.1-15.1 2.8-20.9 4.1-6.3 14.2-3.9 1.5-3.9-0.5-11.4 1.8-6.1 7.6-3.9 2.6-8.4 6.7-5 5.1-0.7 3-2.7 8.4-12.2 5.9-3.8 2.7-1 10.7-14.8 6.4-5.3 7.6-2.8 4.4 0.7 35 21.1 9.5 4.6 2.9 12.1 1.5 2.3 7.2 1.6 11-3.5 6.7-0.5 6.6 2.5 12.4 8.1 7.1 2.1 12.7-1.1 25.2-7 12.6 0.1-5.2 9.3-16.7 19.3-3.6 8.7 2.7 7.9 13.3 12.5 5.3 7.5-2.9 13.2 1.9 4.1 7 5.2 2.2 3.8 0.6 6.9-0.9 6.7-4.7 13-7.7 10.9 3 16.7-8.2 14.6-13 8.8-15 1.7-14.3-7.1-1.6 6.5-3.5 4.8-5.3 3-6.6 0.8-14.8 5.6-11.9 7.4-10.2 9.5-9.9 12 3.7 2.1z" id="BDI2632" name="Cankuzo" data-id="BDI2632" data-name="Cankuzo">
 </path>
 <path d="M731.1 456.7l-4.3 2.4-22.3 19.3-7.1 10.5-53.9 53.7-10.6 7.4-11.1 3-24.7 2.6-5.3 2-5.1 4.5-12.5 1.5-5.2 2.2-3.8 4.1-1.4 6-4.3 5.5-9.5-2.9-9.1-8.3-3.2-10.9 1.7-1.8 11.2-18.6 7.7-10 1.5-12.3-3.2-12.9-7.4-8.4-8.6-6.6-6.6-7.4-6.8-16.3-4.8-1.9-12.4-0.3-3.7 2.9-2.3 5.4-3.5 3.1-7.1-4-3.7-5.7-0.1-5.4 3.8-11.4 5.1-22.4 21.5-5.3 4.5-9.7 11-5.9 9.3-9 11.7-18.5 21.2-9.2 20.7-0.8 35.2-24.5 15.7-19.5 23.4 4.6 22.3 10 9.1 19.3 0.1 21.6-8.1 22.3-11.3 21-4.7 15.7 4.3 5.3 11.3 8.4 5.5 2.7 13.6-3.7 7.4 2.1 8.9 4.5z" id="BDI2633" name="Karuzi" data-id="BDI2633" data-name="Karuzi">
 </path>
 <path d="M750 759.6l-0.6 10.1 5.3 17.5 1.7 8.4-1.8 9.5-24.1-7.9-13.7 8.8-20.7 35.9-28.4 29.1-6.5 11.1-9.4 39.1-8.4 20.3-4.8-1.3-7.2 5.6-15.2 8.1-45.9 1.8-24.4 14.1-14.1 17.6-8.7 5.9-13.5-18-9.7-6.9-10-5.6-5.5-10.7 4.7-16.1 1.3-25.4 3.6-12.4-2.6-13.3 17.9-22.5-3.8-11.9-5.9-8.4-1.1-10.4 11.2-9.2 5.7 5.9 6.8 0.4 1.9-7.7 0.2-8.2 24.2-24.6 1.4-12.2 6.7-10 18-7 17.7-9.2 9.8-12.5 2.2-14.9 13 0.1 12.2 3.7 6.2 8.6 6.4 6.1 29.6-17 32.3 11.9 12.8 7.3 14.3 4.3 12.8 11.9 6.1 0.2z" id="BDI2634" name="Rutana" data-id="BDI2634" data-name="Rutana">
 </path>
 <path d="M878.1 582l16.3 8.9-0.7 14.4-14.1 13.8-25.4 11.8-11.3 12.1-18.1 4.7-2.4 7.2-10.3 0.9-1.3-1.2-9 1.4-4.8 10.2-15 10.8-3 6.5 1.3 10.9-0.2 9.9-4 10.1-22.3 35.1-3.8 10.1-6.1-0.2-12.8-11.9-14.3-4.3-12.8-7.3-32.3-11.9-29.6 17-6.4-6.1-6.2-8.6-12.2-3.7-13-0.1 1.3-15.3-1-15.3-5.7-12.3-6.4-19.6-4-7-0.3-14.4 4.7-30.4-9.2-12.6-1.3-8.1-13.4-21.7 5.2-2.2 12.5-1.5 5.1-4.5 5.3-2 24.7-2.6 11.1-3 10.6-7.4 53.9-53.7 7.1-10.5 20.6 6.8 9.3 4.2 12.4-2.4 6.6 3.2 7.3 5.6 8.7 3.3 8.9 0.7 7.9 3.5 4.9 5.8 3.3 6.7-0.5 7.5 1.1 7.2 12 9.8 14.9 3.5 12.4-6.7 5.5 2.3 4 4 10.8 5.5 5.7 4.5 4.1 6.1 3.4 13.9 0.7 12.2 9.6-3.6z" id="BDI2635" name="Ruyigi" data-id="BDI2635" data-name="Ruyigi">
 </path>
 <path d="M310 427.3l-5.6 11.5-1.5 12.4 7 13.8-1.7 15-7.4 12.5-4.1 14.9 4.8 8.5-4.3 7.8-6.5 6.1-15.7-10.8-22 1.2-10.5 2.4-9.7-3.2-9.8-2-10.2 0.9-14.4 3.2-13.4 5.9-18.1 19.2-18.8-6.3-12.4-15.5 2.5-2.4-9.2-7.4-3.7-10.6-1.5-36.1 1.8-11 4.1-9.1 6.9-3.8 2.4-6.2-0.4-3.6 24.5-0.8 16.1-16.4-4.5-11-7-8.8-3.4-7.8 2.8-4.8 33.8-13.9 8.1-19.5 17.8-0.1 5 4.7 12.7-9.5 17.9-4.2 13.1-12.5 13.7 18.7 7.5 32.8 5.4 9.9 6.6 17.5 1.3 18.4z" id="BDI2636" name="Bubanza" data-id="BDI2636" data-name="Bubanza">
 </path>
 <path d="M400.4 725l15.6 1.4 14.5 4 0.9 12-3.1 12.3-6.2 40.3 0.5 6.4-6.2 10.8 9.2 9.8 14.5-9.1 10.9-13.3 7-19.8 4.8-7.6 14.3 19.6-7.8 13.5 17.5 7.2 14.5 0.4 8.4 9.6-11.2 9.2 1.1 10.4 5.9 8.4 3.8 11.9-17.9 22.5 2.6 13.3-3.6 12.4-1.3 25.4-4.7 16.1-7.6 5.6-8.8 4.3-8-4.1-3.7-13 0.3-21.1-6.7-17.4 0.6-9.9-0.8-7.7-7.5 4-2.2 12.4-9.8 25.2-20.4 18.3-19.9 5.7-16.9 11.4-19.1 21.3-25.8 12.1-14.2 1.3-18.4 15.7-9.8 0.6-6.9-8.6-2.1-11.3-0.1-10.2-1.6-9.1-5.6-8.3-4.8-5.1-8.2-15.5-12.1-16.9-2.7-5-0.8-5.9 3.5-8.7 0.9-5.8-2.2-5.6-10.2-10.3-4.6-13.3-11.1-7.9-5.1-5.2-2.2-5.4-1.8-17.4-18-50 0.4-18.4 49.3-1.2 11.5-3.9 12.2-1.6 8.5 0.3 5.6-5.8 0.4-13.5 1.6-6.4 3.3-5.7 12.8-35.9 7.5-14.2 10-6 10.5-5 8.8 16.2 22.9 29 14.2 8.9 3.8 14.9-0.5 22.9 14.7-18.5 2.2-7.7 10.7-14.7z" id="BDI2637" name="Bururi" data-id="BDI2637" data-name="Bururi">
 </path>
 <path d="M248.3 273.7l9.7 8.7 1.4 15.3 6.7 16.5 9.4 15.8-13.1 12.5-17.9 4.2-12.7 9.5-5-4.7-17.8 0.1-8.1 19.5-33.8 13.9-2.8 4.8 3.4 7.8 7 8.8 4.5 11-16.1 16.4-24.5 0.8-3.7-31.2-5-8-7.5-5.8-9.2-3.5-10-1.2-10.4-4.1-4.7-9.7-2.1-11.2-3.1-8.6-8.2-5.5-9.8-3.3-8.3-4.3-3.5-8.7-0.9-8.7-2.2-5.4-8-11.8-5-14.5-2.4-4.3-8.1-3.6-11.3-1-9.9-2.9-4.3-9.1 1-11.5 3.7-9.3 6.8-5.9 11-1.4-7.1-13.1 9.3-54.1 12.2-12.1 31.5-2 8.8 1.3 32.8 14.3 12 3.7 22.9 2.8 11.4 2.8 9.9 5.6 6.6 4.9-0.4 8.9 2 7.9 11.8 11 3.2 6.7-1.1 6.1-7.5 9.2-1.9 5.7 1.3 6.2 5 11.3 0.6 6.7 4.8 10.3 13.3-1.2 23.3-10.1 9.7-1.1 10.4 1.9z" id="BDI2638" name="Cibitoke" data-id="BDI2638" data-name="Cibitoke">
 </path>
 <path d="M498.5 425.3l-5.1 22.4-3.8 11.4 0.1 5.4 3.7 5.7 7.1 4 3.5-3.1 2.3-5.4 3.7-2.9 12.4 0.3 4.8 1.9 6.8 16.3 6.6 7.4 8.6 6.6 7.4 8.4 3.2 12.9-1.5 12.3-7.7 10-11.2 18.6-1.7 1.8 3.2 10.9 9.1 8.3 9.5 2.9 4.3-5.5 1.4-6 3.8-4.1 13.4 21.7 1.3 8.1 9.2 12.6-4.7 30.4 0.3 14.4 4 7 6.4 19.6 5.7 12.3 1 15.3-1.3 15.3-2.2 14.9-9.8 12.5-17.7 9.2-18 7-6.7 10-1.4 12.2-24.2 24.6-0.2 8.2-1.9 7.7-6.8-0.4-5.7-5.9-8.4-9.6-14.5-0.4-17.5-7.2 7.8-13.5-14.3-19.6-4.8 7.6-7 19.8-10.9 13.3-14.5 9.1-9.2-9.8 6.2-10.8-0.5-6.4 6.2-40.3 3.1-12.3-0.9-12-14.5-4-15.6-1.4 19.5-14.1 25.3 3-1.5-11-4.4-10.6-6.9-10.8-8.3-8.5 29.6-18.3 24-18.6 2.5-10.7 0.4-10.8 2.3-9.1 4.5-8.9-7.5-15.4-16.1-10.2-2.6-22.4-22.4-13.5 13.9-19.1 23.2-11.6-8.9-4.2-8-6.1-4.7-10.3-6-8.5 8.3-2.7 5.7-6.7-4-29.3 24.2-26.8 5.2 0.9 9 4.3 1.8 10.3z" id="BDI2639" name="Gitega" data-id="BDI2639" data-name="Gitega">
 </path>
 <path d="M352.3 265.4l2.6 27.4-19.9 14.6 6.5 3.4 6.1-1.8 11.5 10.8 12.7-1.2 5.9 4.1 19.7 5 11-5.3 10.8-0.5 11.2 5 6 18.3 5 24.7 19.5 2.4 7.6 5 8.3 2.4 5.6 3.9-1.9 7.2-0.5 9.7 2.5 9.3-24.2 26.8 4 29.3-5.7 6.7-8.3 2.7-12.9 3.4-13.1 2.2-6.4 4-8 1.7-9.8-5.2-5.5-9.8 0.9-8.2-3.2-5.7-13.6 5.6-12.2 1.4-1.3-22.1-6.8-4.9-8.3 2.6-5.6-3.1-5-6-13.2-0.3-14.3-3.6-1.3-18.4-6.6-17.5-5.4-9.9-7.5-32.8-13.7-18.7-9.4-15.8-6.7-16.5-1.4-15.3-9.7-8.7 19.6 3.7 12.6 7.1 10.2-3.5 10.1-6.4 11.9-1.6 5.6 0.2 8.3-4.1 16.1-5.8 9.6 2.1z" id="BDI2640" name="Kayanza" data-id="BDI2640" data-name="Kayanza">
 </path>
 <path d="M484.4 952.1l5.5 10.7 10 5.6 9.7 6.9 13.5 18 8.7-5.9 14.1-17.6 24.4-14.1 45.9-1.8 15.2-8.1 7.2-5.6 4.8 1.3-1.4 3.4-12.7 22-16.3 19.9-36.8 30.7-5.6 8-13.8 33.1-6.8 8.6-12 6.8-5.5 4.4-18.5 10.6-19.4 18.2-28.7 13.5-4.7 1.6-9.1-1.5-5.8-3-5.8-0.7-8.8 5.4-2.1 10.7-2.8 4.7-9.2 4.3-3.4 3.2-2 7.7-1.9 13.1-6.3 4.8-2.4-1-22.1-1.7-17.9-4.2 1.3-16.4-1.2-11.5-7-10.7-19.1-18-8-9.1-20.3-34.2-4.6-12.3-1.8-11.9-3-11.4-6.5-7.3-5.7-4.5 9.8-0.6 18.4-15.7 14.2-1.3 25.8-12.1 19.1-21.3 16.9-11.4 19.9-5.7 20.4-18.3 9.8-25.2 2.2-12.4 7.5-4 0.8 7.7-0.6 9.9 6.7 17.4-0.3 21.1 3.7 13 8 4.1 8.8-4.3 7.6-5.6z" id="BDI2641" name="Makamba" data-id="BDI2641" data-name="Makamba">
 </path>
 <path d="M590.6 259.6l13.5 7 8.7 14.3-7.9 16.9-12 17.1 12.5 6.5 12.4-10.9 7.7-8.1 9.2 1.2 6.9 3.9 7.9 0.1-0.2 15.3-15.7 19.5-35.2 24.5-20.7 0.8-21.2 9.2-11.7 18.5-9.3 9-11 5.9-4.5 9.7-21.5 5.3-1.8-10.3-9-4.3-5.2-0.9-2.5-9.3 0.5-9.7 1.9-7.2-5.6-3.9-8.3-2.4-7.6-5-19.5-2.4-5-24.7-6-18.3-11.2-5-10.8 0.5-11 5.3-19.7-5-5.9-4.1-12.7 1.2-11.5-10.8-6.1 1.8-6.5-3.4 19.9-14.6-2.6-27.4 22.5 7.4 10.2 1.6 12.1-1.5 5.2-3.2 2.4-5 1.7-11.4 4.1-5 6.2-0.1 12 3.6 13.5 0.4 10.9-2 10.1-6 11.1-11.3 7.2-9.8 6.6-11.1 5.1-11.8 2.9-12 0.3-6 14.1 2 26.3 7 16.2 20 7.3 13.6 11.1 9.5 19.2 25.3z" id="BDI2642" name="Ngozi" data-id="BDI2642" data-name="Ngozi">
 </path>
 <path d="M736.8 11.4l11.8 9.2 5.5 20.6 4.1 4.5 3.1 6.4 0.5 8 3.1 6.6 8.1 7.6 5.3 9.9-7.7 22.8 4.2 9.1 3.9 11.1-1.6 11.3-4.1 10.5-10.9 6-11.6 1.4-12 14.8-38.8 34.3-7.6-3.4-5.5 2.1-11.9 6.8-11.1 8.2-14.3 2.8-12.1 5-8.1 9.7-3.3 11.7-13.6 7.2-21.6 4-19.2-25.3-11.1-9.5-7.3-13.6-16.2-20-26.3-7-14.1-2 2.2-55.5 11.7-40.9-3.8-41.6 3.5-27.7 1.5-8 5.5-0.2 4.3 2.5 14.2 12.2 13.9 0.3 6.2 2.2 6.6 5.1 16.7 19.8 8.9 7.8 11.3 7.5 12.4 4.8 12.1-0.4 9.2-6.4 24.4-30.6 1.4-8.9 1.9-3.6 6.3 0.6 16.9 8.2 6.7 1.5 8.7-0.4 10.3-2.1 10.2-3.3 7.7-4 9.5-9.7z" id="BDI2643" name="Kirundo" data-id="BDI2643" data-name="Kirundo">
 </path>
 <path d="M812.2 347.4l-5.9 3.8-8.4 12.2-3 2.7-5.1 0.7-6.7 5-2.6 8.4-7.6 3.9-1.8 6.1 0.5 11.4-1.5 3.9-14.2 3.9-4.1 6.3-2.8 20.9-7.1 15.1-3.5 2.8-7.3 2.2-8.9-4.5-7.4-2.1-13.6 3.7-5.5-2.7-11.3-8.4-4.3-5.3 4.7-15.7 11.3-21 8.1-22.3-0.1-21.6-9.1-19.3-22.3-10-23.4-4.6 0.2-15.3-7.9-0.1-6.9-3.9-9.2-1.2-7.7 8.1-12.4 10.9-12.5-6.5 12-17.1 7.9-16.9-8.7-14.3-13.5-7 21.6-4 13.6-7.2 3.3-11.7 8.1-9.7 12.1-5 14.3-2.8 11.1-8.2 11.9-6.8 5.5-2.1 7.6 3.4 38.8-34.3 12-14.8 11.6-1.4 10.9-6 4.1-10.5 1.6-11.3-3.9-11.1-4.2-9.1 7.7-22.8-5.3-9.9-8.1-7.6-3.1-6.6-0.5-8-3.1-6.4-4.1-4.5-5.5-20.6-11.8-9.2 7.5-7.8 8.7-2.6 2.6 1.3 17.1 4.1 4.4 2.3 2.8 7.6 3.1 4.3 29.3 24.1 18 8.4 17.8 0.7-17.9 22.5-7.3 11.5-20.5 49.9-4.4 17.2-2.3 5.7-5.2 6.8-12.9 12.2-4.4 6.7-2.1 13.4 6 5.8 10.5 0.1 11.4-3.8 19.3-8.8 12.4-4.6-3.4 10.2-31.1 32.7-4.4 7.1-1.7 8.4-0.2 13.8-11.8 15.9-6.2 12 1.2 9.4 13.5 17.5 8.2 7.7 9.8 2.7-2.4 5.9 7.8 9 2.2 6.7z" id="BDI2644" name="Muyinga" data-id="BDI2644" data-name="Muyinga">
 </path>
 <path d="M192 682.2l1.5-85.6-7.6-22.3-11.6-7.8 4.6-2.9 9.5-8.6 9.8-7.2 12.4-2 8.6 0.4 9.1 7.9 2.6 9.8-0.6 14.4-3.1 12.9-9.2 32.1-5.8 39.3-9.8 11.2-10.4 8.4z" id="BDI3364" name="Bujumbura Mairie" data-id="BDI3364" data-name="Bujumbura Mairie">
 </path>
 <path d="M448.3 475.3l6 8.5 4.7 10.3 8 6.1 8.9 4.2-23.2 11.6-13.9 19.1 22.4 13.5 2.6 22.4-13.1 5.3-39.5 7.3-21.3-0.4-15.9 3.2-10.6 7.1-4.5 0.5-3-4.9-7.9-4.2-11 3-8.8 6.4-5.3-6.4-9.3 8-5.5-9.7-4.3-11.7-5.4-10.2 0.4-10.8-8.1-23.7 6.5-6.1 4.3-7.8-4.8-8.5 4.1-14.9 7.4-12.5 1.7-15-7-13.8 1.5-12.4 5.6-11.5 14.3 3.6 13.2 0.3 5 6 5.6 3.1 8.3-2.6 6.8 4.9 1.3 22.1 12.2-1.4 13.6-5.6 3.2 5.7-0.9 8.2 5.5 9.8 9.8 5.2 8-1.7 6.4-4 13.1-2.2 12.9-3.4z" id="BDI3365" name="Muramvya" data-id="BDI3365" data-name="Muramvya">
 </path>
 <path d="M290.7 529.8l8.1 23.7-0.4 10.8 5.4 10.2 4.3 11.7 5.5 9.7 9.3-8 5.3 6.4-1 9.9 7.4 25.1-6.7 19.6 0.5 13.1-4.8 12-10.5 5-10 6-7.5 14.2-12.8 35.9-3.3 5.7-1.6 6.4-0.4 13.5-5.6 5.8-8.5-0.3-12.2 1.6-11.5 3.9-49.3 1.2 1.6-90.7 10.4-8.4 9.8-11.2 5.8-39.3 9.2-32.1 3.1-12.9 0.6-14.4-2.6-9.8-9.1-7.9-8.6-0.4-12.4 2-9.8 7.2-9.5 8.6-4.6 2.9-5.9-3.9-23.5-4.1-25.1 0.8 1.1-15.8 2.3-7.2 12.5-11.5 12.4 15.5 18.8 6.3 18.1-19.2 13.4-5.9 14.4-3.2 10.2-0.9 9.8 2 9.7 3.2 10.5-2.4 22-1.2 15.7 10.8z" id="BDI4854" name="Bujumbura Rural" data-id="BDI4854" data-name="Bujumbura Rural">
 </path>
 <path d="M400.4 725l-10.7 14.7-2.2 7.7-14.7 18.5 0.5-22.9-3.8-14.9-14.2-8.9-22.9-29-8.8-16.2 4.8-12-0.5-13.1 6.7-19.6-7.4-25.1 1-9.9 8.8-6.4 11-3 7.9 4.2 3 4.9 4.5-0.5 10.6-7.1 15.9-3.2 21.3 0.4 39.5-7.3 13.1-5.3 16.1 10.2 7.5 15.4-4.5 8.9-2.3 9.1-0.4 10.8-2.5 10.7-24 18.6-29.6 18.3 8.3 8.5 6.9 10.8 4.4 10.6 1.5 11-25.3-3-19.5 14.1z" id="BDI5588" name="Mwaro" data-id="BDI5588" data-name="Mwaro">
 </path>
 <circle cx="361.8" cy="529.6" id="0">
 </circle>
 <circle cx="407.5" cy="530.3" id="1">
 </circle>
 <circle cx="377.9" cy="528.8" id="2">
 </circle>
</svg>