<?xml version="1.0"?>
<!--
************* Copyright (c) 2017 Pareto Softare, LLC DBA Simplemaps.com *******************		
************* Free for Commercial Use, full terms at  http://simplemaps.com/resources/svg-license ************
************* Attribution is appreciated! http://simplemaps.com ***************************
-->
<svg baseprofile="tiny" fill="#7c7c7c" height="2036" stroke="#ffffff" stroke-linecap="round" stroke-linejoin="round" stroke-width="2" version="1.2" viewbox="0 0 1000 2036" width="1000" xmlns="http://www.w3.org/2000/svg">
 <path d="M637.6 1198.3l-171.3-1.8 2.7-11.5-1.9-2-3-1.5-32.4-9.1-6.5-3.1-3-1.9-2.5-2.1-4.2-5.1-2.3-5-1.4-6.8-0.5-5.3 0.7-16.2 2.3-15 2.1-7.9 2.7-6.8 0.5-4-0.4-2.3-1.4-2.5-2.2-2.2-9.5-4.5-2.5-1.7-3.5-3.5-2-2.6-2.2-4.5-1.4-7.1-1-10.4 0.2-18.7 1.5-11.1 4.8-14.2 3-2.3 3.9-1.9 5.3-1 7.6-0.5 12.2 0.3 3.5-0.9 2.7-1.7 3.3-3.7 1.2-4.3 12.8-84.5-0.1-4.6-2.9-5.9-5.4-4.8-6.6-7.1-4.3-6.8-0.7-1.5-6.2-18.3-0.4-4.3 0.3-5.6 2.7-17.4 2.6-9.3 0-6.4-2.9-16.1 2.8-5 0.6-0.6 0.7-3.1-2.7-6.6-1.6-7.5 1.7-4.3 2.5-3.1 3.5-2.9 3.1-1.4 3.2-1 17.7-0.6 5.3-1.1 12.9-4.6 2.8-1.7 2.5-2 3.3-3.9 0.7-4 0.3-6.6-2.5-23.5-4.7-15.1-1-5.2-5-12.7-3.5-5.1-8.3-7.8-1.8-2.6-1.3-2.5-0.6-2.6-0.1-5 0.6-4.7 2.2-5.4 3.9-7 8.1-10.8 2-1.6 6.9-4 15.7-0.1 17-4 16.4-1.1 16.5-2.9 51 3.9 52.1-7.2 17.7 0.6 47.4 9.8 78.3-6.6 78.1-16 122.9-13.6 0.1 10.1-2.4 8.8-8.3 16.5-2.9 8.8-0.4 17-2.1 6.1-4.9 6.2-5.1 0.8-20.8-10.9-6.8-1.2-6.4 2-6.3 6.3-2.2 3.1-0.9 2.1-0.3 6.5-1.3 3.9-8.2 12.7-6.6 14.9 0.3 6.2 4.6 7.5 22 22.9 3 4.1 0.9 5.2-1.1 7.7-3 7.3-4 3-4.8 2.3-5 4.8-2.1 5.3-2 28.2-3.3 6.5-10.5 12.6-8.5 15.7-5.8 5.4-19.5-2.2-12.6 3.4-23.3 9.6-5.3 3.9-2.8 6.6-0.8 7.5 1.2 6.4 4 10.2 2.6 10-2.3 8.6-10.6 5.9-5.7-0.3-6.3-1.2-5.3 1.6-2.4 8.1 0.4 2.3 1.7 4.1-0.4 1.7-19.8 26.1-2.4 2.1-5.2 1.8-2.3 1.7-6.3 10.2-1.3 9.1 2.2 9.1 4.1 10.4 1.2 5.5-0.1 21.3-2 6.8-6.7 12.8-10.8 33.7-4.9 10.3-8 5.5-22.1 5.8-3.8 0-3.3-1.5-3.1-2.2-3.6-1.7-3.5-0.4-10 0.3-3.4 0.7-3.5 2.2-2.7 2.9-3.2 2.3-4.3 0.6-25-2 1 8.7-0.7 20.8-1.8 9-1 2-3.7 5.5-0.8 0.7 0.6 2.7 3 1.3 1.2 2.3-0.1 5-4.1 9.3-1.2 5.1 0.4 2.9 1.7 5-0.4 3-1.7 1.7-5.5 2.5-1.8 2.5-0.1 3.8z" id="BEN2169" name="Borgou" data-id="BEN2169" data-name="Borgou">
 </path>
 <path d="M998.9 586.5l-122.9 13.6-78.1 16-78.3 6.6-47.4-9.8-17.7-0.6-52.1 7.2-51-3.9-16.5 2.9-16.4 1.1-17 4-15.7 0.1 3.7-2.1-1.6-105.1 0.6-5.4 1.1-4.1 3.3-5.7 6.5-7.5 19.3-16.1-10.6-10.3-3.8-2.6-2.4-0.4-6-3.1-4.1-0.7-3-0.1-16-23-63.1-114-1.5-1.7 42.6-43.8 23.7-19.4 17.4-9.8 4.5-4.4 1.1-3.1-0.2-3.7 0.2-5.8 3.5-9.3 12.4-14.1 4.6-8.6 11.7-32-0.7-3.4-3.7-5.7-0.5-3.7 1.9-4.2 2.7-0.8 3.1 0.5 2.8-0.8 2.2-2.5 2.5-4.8 2.2-2.4 3.3-0.3 3.4 1.2 2.4-0.5 0.2-5.7-0.7-4.1-2.1-1.5-3.1-0.8-3.5-1.6-3.3-2.7-2.3-2.7-1.8-3.3-11-31.1-3.1-18.5-0.3-7.5 2.8-5.8 7.9-3.6 4.4-0.6 7.5 0.3 4.1-0.4 3.5-4.6 1.7-1.2 2.4 0.6 1.8 1.9 1.7 0.5 1.8-3.4 1.5-4.1 2.3-1 3 0.5 3.9 0.1 0.9 0.8 1.5 3.3 2.4-0.2 1.9-1.1 2.9-2.8 1.5-1 11.5-3.2 1.3 0.3 2.8 1.6 1.6 0.2 2-1 3.9-2.9 2.2-0.4 11.4 3.1 3-1.8 4.5-7.2 1.1-2.5 1.5-5 1.8-2 3.5-1.4 3.4 2.4 3.4-0.9 3-2.4 5.2-6.3 3.6-2.3 3.1-0.7 6.6 0.3 3.3-0.7 7.7-0.3 3.8-5 15.6 14 6.6 3.6 3.3 3.5 2.5 4.1 2 7.5 2.7 2.7 3.6 1.9 3.8 1.4 10.8 1.3 2.7 0.8 1.2 1.8 3.2 6.1 13.1 19.5 55.8 51.2 1 1.7 4.4 3.4 1 1.8 0.8 7 1.6 7.6 2.4 6 7.4 12.6 4.6 5.4 2.7 2.5 4 2.7 4.5 1.2 4.4-2 4.5-2.8 3.9 0.8 3.4 2 3.7 1.2 14.5 9.1 11.9 4.2 3.6 2.5 2.6 2.5 10.9 15.6 5.4 4.4 1.2 2.6 1.6 5.3 1.3 2.5 0.6 2.9 1.1 2.6 2.7 1.5 3.1 5.2 2.2 1.9-7.1 7.5-22.5 38.6-3.9 14.9-2 5.1-6.5 17.8 0.5 7.6 4.9 9 58.1 82.4 7.8 7.5 2.7 0.4 3.1-0.5 3 0.1 2.7 2.7-3.3 12.8 0 7.1 1.3 6.6 2.4 6.1 3.3 5.7 6.7 29.5-0.4 9.7-7 17.4-0.4 5.7 1.6 3.9 2.6 2.8 2.9 2.4 2.4 2.8 1.6 3.6 3.1 10.8 3 3.7 4.2 1.2 4.6 0.9 4.1 2.4 3 6.4 1.6 9.6 0 8z" id="BEN2170" name="Alibori" data-id="BEN2170" data-name="Alibori">
 </path>
 <path d="M637.6 1198.3l7.1 89.6-2.6 11-2.6 3.9-6.4 7.3-1.7 4.1-0.1 2.9 0.8 6.1 0 3-2.5 13.6-0.4 6.3 1.2 7.8 2.5 7.2 6.4 13.7 2.2 6.9-0.2 7.2-2.5 6.1-3.4 5.4-2.5 5.6-0.9 6-0.7 19.6-4.1 20.7-1.2 20.6-1.2 3-3.3 6.2-0.7 2.5 0.3 2.7 2.7 4 3.6 9.4 7.8 8.7 2.9 4.7 0.9 4.7-3.1 44.2-66.9-0.4-4.3 0.2-4.9 13.6-0.7 9.3 2.2 8.5-0.8 3.6-4.7 1.5-3.2 2.1-10.2 14.5-3.8 7.2 0.9 7.8 2.3 8.1-58.2-26.6-22.9-7.3-18.8-1.7-17.1 0.4-15.4-2.6-12.3-8.4-12.1-10.8-17.7-7.4-14.5-3.1-65.6 3.9-6.4-0.6-0.4-122.5 1.3-89.7-3.4-28.2-1.7-3-1.9-0.6-0.9-1.4 1.6-8 0-5.7 0.5-2.8 10.7-17.7 1.2-5.8-1.4-3.2-8.4-10.6-1.6-3.7-0.5-3.9-0.1-9.8 5.8 0.5 17.5 0.6 11.4-0.9 28.2-7.6 5.3-0.9 3.9-0.3 5.5 2 2.8 1.7 2.4 2.1 8.8 9.5 2.8 1.8 3.5 1.2 2 0.3 9.9-0.1 3.5 0.9 2.5 2 4.9 6.3 2.3 2.3 5.9 3.4 9.5 2.9 1.4 0.8 3.8 3.1 3.3 1 7.9-0.1 3.9 0.7 8.9 3.3 3.9 0.6 7.7-0.3 5.5-1.6 3.9-1.8 2.8-1.8 4.6-3.5 2.5-4-1.8-1.8-2.3-7.9 4.3-28.2-5.3-29.3-2.3-4.5-3-3.9 2.4-10.2 171.3 1.8z" id="BEN2171" name="Collines" data-id="BEN2171" data-name="Collines">
 </path>
 <path d="M554.8 1975.6l-15.3 1.9-6.9 1.9-5.7 3.8-4.1 3.8-3 8-17.1 1.6-26 5.8-77.5 8.9 0.2-2.8-1.2-5.9-2.7-8.5-5-7.3-1-10 1.6-6.8 9-23.1 0.9-3.9 0.3-6.7-1.1-18.5-0.3-8.9 0.4-3 1-2.8 2.4-4 4.3-4.8 0.8-2.2 0.6-3.5-0.3-6 1.7-8.4 4.3-8.9-0.3-6.4-0.6-4.1 0.5-2.7 1.2-3.3 4.6-8.2 2.7-3.1 1.5-2.9 5.1-13.1 2-3.9 1.6-4.9-3-8 97.6-0.4 11.1 18.1 3.2 13.3 1 18.9 1.7 44.8 2.3 29.7 3.6 6.4 1.8 0.4 3.3 1.5 3.8 2.7 1.4 14.9-1.3 8-5.1 12.6z" id="BEN2174" name="Atlantique" data-id="BEN2174" data-name="Atlantique">
 </path>
 <path d="M560.1 1991.3l-40.3 3.7 3-8 4.1-3.8 5.7-3.8 6.9-1.9 15.3-1.9-1.1 6.8 2.5 2.1 3.2 1.2 0.7 5.6z" id="BEN2175" name="Littoral" data-id="BEN2175" data-name="Littoral">
 </path>
 <path d="M430.4 1804.7l3 8-1.6 4.9-2 3.9-5.1 13.1-1.5 2.9-2.7 3.1-4.6 8.2-1.2 3.3-0.5 2.7 0.6 4.1 0.3 6.4-4.3 8.9-19.8-9.9-10-2.9-10.8-0.4-17.7 3.8-20.4 7.6-30.5 7.2-7.1-0.1-5.5-0.7-19.1-9.2 2.6-3.4 1.3-5-1.9-7.9-2.5-6.7-1.4-5.6-0.2-5.6 2.4-13.7-0.6-4.6-3-3.5-5.3-4-3.6-5.4-6.3-23.2 24.5 0.1 5.9-1.7-0.3-48-0.5-128.5 10.5 2.2 6.9 8.3 2.4 4.1 17 36.3 1.9 8.4 1.1 2.5 1.9 2.7 0.6 2.2 0.5 6.2 1.3 2.6 2.5 3.2 5.1 3.7 12.5 16.3 2.8 5.6 4.1 2.6 5 8.7 4.2 15.3 3.1 14.2 4 6.8 4.1 2.5 5.2 4 6.8 10.4 5.2 7.5 5.3 2.7 4.4 6.7 1.5 5.7 0.7 1.5 1.7 1.7 11.1 8.2 2.8 1.2 2.1 0.2 3.4-1.4 5.4-3 2.3 2z" id="BEN2176" name="Kouffo" data-id="BEN2176" data-name="Kouffo">
 </path>
 <path d="M571.8 1780.6l-0.6 16.6 3.2 16.5 15.5 37.8 6.6 38.3 6.3 10.2 15.7 13.3 5 5.4 12.7 21.5-1 3.2-3.7 21.3-0.1 19.9-71.3 6.7-0.7-5.6-3.2-1.2-2.5-2.1 1.1-6.8 5.1-12.6 1.3-8-1.4-14.9-3.8-2.7-3.3-1.5-1.8-0.4-3.6-6.4-2.3-29.7-1.7-44.8-1-18.9-3.2-13.3-11.1-18.1 0.5-6.6 3.6-6.4 5.3-7.2 5.2-2.8 9.1-0.9 20.1 0.2z" id="BEN2177" name="Ouémé" data-id="BEN2177" data-name="Ouémé">
 </path>
 <path d="M541.8 1639l1.8 6.2 0 14.6 1.1 2.9 1.8 2.4 1.5 3.2 0 5.1 6.1 23.2 5 10.8 15.3 10.5 1.9 2.1 0.1 1.8-0.4 5.5 7.2 36.4 1.6 14.6-1.1 1.6-1.4 0.7-4.3 0.4-6.2-0.4-20.1-0.2-9.1 0.9-5.2 2.8-5.3 7.2-3.6 6.4-0.5 6.6-97.6 0.4-2.3-2-5.4 3-3.4 1.4-2.1-0.2-2.8-1.2-11.1-8.2-1.7-1.7-0.7-1.5-1.5-5.7-4.4-6.7-5.3-2.7-5.2-7.5-6.8-10.4-5.2-4-4.1-2.5-4-6.8-3.1-14.2-4.2-15.3-5-8.7-4.1-2.6-2.8-5.6-12.5-16.3-5.1-3.7-2.5-3.2-1.3-2.6-0.5-6.2-0.6-2.2-1.9-2.7-1.1-2.5-1.9-8.4-17-36.3-2.4-4.1-6.9-8.3-10.5-2.2-0.2-28.1 6.4 0.6 65.6-3.9 14.5 3.1 17.7 7.4 12.1 10.8 12.3 8.4 15.4 2.6 17.1-0.4 18.8 1.7 22.9 7.3 58.2 26.6z" id="BEN2178" name="Zou" data-id="BEN2178" data-name="Zou">
 </path>
 <path d="M635.9 1563l-0.8 10.7 1.7 12.8 6.5 12.2 9.6 11.5 7.2 12-0.9 13.6-1 4.8-1 0.7-7-1.4-3.4-0.1-2.5 1.5-0.8 3.6 6.8 80.4-0.3 4.5-1.1 3.1-2.6 3.4-3 6.2-1.4 2.2-0.3 2.2 1.2 4.3 2.8 3.5 8.5 7 1.9 3.1-1.3 3.5-3.3 1.8-4.1 1.3-3.8 1.8-8.4 11.7 1 11.9 4.4 12.5 1.6 13.7-3.4 13.7-0.9 7.1 1.6 6.4 2.5 3.3 2.8 2 3.3 1 4 0.4 1.9 1.5 0.7 3.3 1 15-1.8 3.7-4 2.7-5.8 5.2-3.8 7-0.1 6.7 2.8 13.8-0.6 6.9-6.1 17.5-12.7-21.5-5-5.4-15.7-13.3-6.3-10.2-6.6-38.3-15.5-37.8-3.2-16.5 0.6-16.6 6.2 0.4 4.3-0.4 1.4-0.7 1.1-1.6-1.6-14.6-7.2-36.4 0.4-5.5-0.1-1.8-1.9-2.1-15.3-10.5-5-10.8-6.1-23.2 0-5.1-1.5-3.2-1.8-2.4-1.1-2.9 0-14.6-1.8-6.2-2.3-8.1-0.9-7.8 3.8-7.2 10.2-14.5 3.2-2.1 4.7-1.5 0.8-3.6-2.2-8.5 0.7-9.3 4.9-13.6 4.3-0.2 66.9 0.4z" id="BEN2179" name="Plateau" data-id="BEN2179" data-name="Plateau">
 </path>
 <path d="M410.8 1874.2l-1.7 8.4 0.3 6-0.6 3.5-0.8 2.2-4.3 4.8-2.4 4-1 2.8-0.4 3 0.3 8.9 1.1 18.5-0.3 6.7-0.9 3.9-9 23.1-1.6 6.8 1 10 5 7.3 2.7 8.5 1.2 5.9-0.2 2.8-33.5 3.8-85.9 19.9-2.3-6.8 6.7-3.6 41.6-9.9 6.8-0.4-6.1-23.9-6.3-24.5-8.4-13.5-2.8-2.1-6.9-3.6-2.2-1.8-0.7-2.8 0.8-7-0.4-3.3-2-2.8-5.4-4.4-0.9-2.3-0.4-3.7-2.3-0.9-3.2 0.3-3.1-0.3-2.5-1.5-2.7-2.2-2.6-2.6-1.9-2.7-1.1-3.3 0.8-5.8-0.1-2.5-3.5-6.5-4.2-3.5-2.1-3.6 2.7-7.4 4.8-6.5 19.1 9.2 5.5 0.7 7.1 0.1 30.5-7.2 20.4-7.6 17.7-3.8 10.8 0.4 10 2.9 19.8 9.9z" id="BEN2180" name="Mono" data-id="BEN2180" data-name="Mono">
 </path>
 <path d="M408.2 321.8l1.5 1.7 63.1 114 16 23 3 0.1 4.1 0.7 6 3.1 2.4 0.4 3.8 2.6 10.6 10.3-19.3 16.1-6.5 7.5-3.3 5.7-1.1 4.1-0.6 5.4 1.6 105.1-3.7 2.1-6.9 4-2 1.6-8.1 10.8-3.9 7-2.2 5.4-0.6 4.7 0.1 5 0.6 2.6 1.3 2.5 1.8 2.6 8.3 7.8 3.5 5.1 5 12.7 1 5.2 4.7 15.1 2.5 23.5-0.3 6.6-0.7 4-3.3 3.9-2.5 2-2.8 1.7-12.9 4.6-5.3 1.1-17.7 0.6-3.2 1-3.1 1.4-3.5 2.9-2.5 3.1-1.7 4.3 1.6 7.5-92.1-3-12.2 4.6-11.4 6.6-10.7 8.8-13.7 6.9-16.3 3.9-20.5-2.2-13.8-3.2-15.8-1.9-13.6-0.4-18.4 3.6-4.1 1.6 0-2.6-4.2-11.2-80.7-54-77.1-51.7-24.5-16.4-2.6-5-0.3-7.6 4.5-33.9 4.8-18.4 0.2-12.9-2.6-29.7 4.7-11.1 17.6-16.9 4.2-6.1 1-3.4 0.5-7.5 0.7-3.5 5-9.8-0.4-3.5-2.8-6.8-0.7-3.5 0.9-6.6 8.3-20.3 9.9 5.5 4.4 0.6 5.8 0 1.3-1.7 0.8-3.9-0.3-3.9-1.8-1.7-2.6-1.3-1.2-3-0.1-3.7 0.3-3.3 1.2-0.8 2.7-4.2 1.9-4 2.2-2.9 1.4-0.6 1.5 0.5 7.1 1.2 3.9 3.1 2.6 1.4 2.3 4 2.1-0.1 4.8-2.1 9.9 1.1 3.3 1.1 3.2 4.9 2.4 2.2 1.1-1.5 0.3-5.3-3.7-3.8-2-3.5-0.5-3.6-0.1-3.7-0.7-3.9-4.6-2.1-0.2-1.5 0.6-4.1-0.4-1.4-3-0.7-2.1 1.9-1.2 0.4-0.3-5 1.6-0.7 10.7-2.4 1.9-1.4 2.2-6 1.5-1.7 3.4 0.1 6.5 3.1 3.3 1.1-1.6-5.7-1.3-11.2-6.1-10.1 1.6-4.1 3.4-3.2 3.4-5.2 3.1 2.5 2.4 3.8-0.4 1.6 2.8 0.1 3.4-1.9 2.8-0.6 6.2 0.3 5.2 1.5 10.8 5.1 4.1-7.6 0.5-2.6-0.7-3.3-3.2-3.1-0.7-2.6 1.6-4 3.6 1.8 3.8 4.3 2.1 3.6 2.2-2.7 2.2-1 2.4 1 2.2 2.7 5.7-4.9-0.7-4.2-3.1-4.5-1.9-5.7 2.8-6.3 6.5-4.2 7.3-3.2 5.4-3.3-3.1-7.1 0.4-2.8 2.7-3.9 4.2-3.2 4-1.3 3.4-1.8 1.8-4.8 5.3 3 6.3 1.3 30.5 2.5-0.7 2.2-1.3 6.8 5.6-0.3 6.9 12.7 6.3-2.2 5.5-3 15-3.2 6.2-3 5.1-1.6 14.3 1.1 6.1-0.5 12.8-5.1 6.2-1.3 5.6 1.7 3.1-2.1 4 0.6 8.4 4 13.7 5.3 11.5 0.9 8.8-4.3 1.6-1.5z" id="BEN2181" name="Atakora" data-id="BEN2181" data-name="Atakora">
 </path>
 <path d="M433 784l2.7 6.6-0.7 3.1-0.6 0.6-2.8 5 2.9 16.1 0 6.4-2.6 9.3-2.7 17.4-0.3 5.6 0.4 4.3 6.2 18.3 0.7 1.5 4.3 6.8 6.6 7.1 5.4 4.8 2.9 5.9 0.1 4.6-12.8 84.5-1.2 4.3-3.3 3.7-2.7 1.7-3.5 0.9-12.2-0.3-7.6 0.5-5.3 1-3.9 1.9-3 2.3-4.8 14.2-1.5 11.1-0.2 18.7 1 10.4 1.4 7.1 2.2 4.5 2 2.6 3.5 3.5 2.5 1.7 9.5 4.5 2.2 2.2 1.4 2.5 0.4 2.3-0.5 4-2.7 6.8-2.1 7.9-2.3 15-0.7 16.2 0.5 5.3 1.4 6.8 2.3 5 4.2 5.1 2.5 2.1 3 1.9 6.5 3.1 32.4 9.1 3 1.5 1.9 2-2.7 11.5-2.4 10.2 3 3.9 2.3 4.5 5.3 29.3-4.3 28.2 2.3 7.9 1.8 1.8-2.5 4-4.6 3.5-2.8 1.8-3.9 1.8-5.5 1.6-7.7 0.3-3.9-0.6-8.9-3.3-3.9-0.7-7.9 0.1-3.3-1-3.8-3.1-1.4-0.8-9.5-2.9-5.9-3.4-2.3-2.3-4.9-6.3-2.5-2-3.5-0.9-9.9 0.1-2-0.3-3.5-1.2-2.8-1.8-8.8-9.5-2.4-2.1-2.8-1.7-5.5-2-3.9 0.3-5.3 0.9-28.2 7.6-11.4 0.9-17.5-0.6-5.8-0.5-0.6-43.9-1.4-107.3-1.7-9-2.6-7.9-6.7-11.8-46-48.5-7.8-12.1-4.7-13.1-2.2-33.4-3.8-9.3-5.5 2.7-4.8-4.9-3.3-8-1-6.7 1.3-4.3 5.8-8.9 2-4.2 0.4-3.3-0.1-6.6 0.7-3.3 0.5-4-2.5-15.4-1-61.5-0.4-24.2 4.1-1.6 18.4-3.6 13.6 0.4 15.8 1.9 13.8 3.2 20.5 2.2 16.3-3.9 13.7-6.9 10.7-8.8 11.4-6.6 12.2-4.6 92.1 3z" id="BEN2182" name="Donga" data-id="BEN2182" data-name="Donga">
 </path>
 <circle cx="805.6" cy="858.1" id="0">
 </circle>
 <circle cx="924.4" cy="526.6" id="1">
 </circle>
 <circle cx="51.2" cy="563.2" id="2">
 </circle>
</svg>