<?xml version="1.0"?>
<!--
************* Copyright (c) 2017 Pareto Softare, LLC DBA Simplemaps.com *******************		
************* Free for Commercial Use, full terms at  http://simplemaps.com/resources/svg-license ************
************* Attribution is appreciated! http://simplemaps.com ***************************
-->
<svg baseprofile="tiny" fill="#7c7c7c" height="767" stroke="#ffffff" stroke-linecap="round" stroke-linejoin="round" stroke-width="2" version="1.2" viewbox="0 0 1000 767" width="1000" xmlns="http://www.w3.org/2000/svg">
 <path d="M583.8 557.6l-8.9 11.3 0.4 15.1 22.9-9.4 2.5 12.9-5.3 13.5-16.7 25-5.2 14.3-4.1 30.3-5.6 10.8-67.4 64.5-34.5 20.1-30.1-3.5-3.7-5.8-5.4-18.2-3.6-7.6-5.8-5.6-15.6-10.9-46-42.7-10.5-14-7.1-14.4-15.3-46.5-9.2-9.7-13.6-0.8-30 5.4-32-6.3-25-1.8-3.4-6.7-1.3-11 2.4-4.3 10.2-9 2.4-7-5-32.9-10-15.1 0-20.4-5.7-20.6-4.3-8.1-7.7-8.6-4.8-15.5-5.3-2-11.3-0.3-4.5-2.2-5.6-15.1-8.6-5.6-18.1-7-23.9-18.6-15.4-8.1-40.2-6.2-47.9-22.9 185.3 6.3 55-10.5 50.6-28.6 72.3-26.1 6.2 17.7 7.2 16.8 11.3 11.6 9.5 12.3 30.3 2.8 9.6 14.9-3.5 22.4 4.4 18.4 22.8 14.2 16.9 16.8 15.8 19.9 17.7 17.2 14.2 17.5 11.4 21.5 5.8 22.4 13.6 19.2 26.4 14.5z" id="BRN1181" name="Belait" data-id="BRN1181" data-name="Belait">
 </path>
 <path d="M546.5 241.2l-5.2-12.6 5.6-23.7 2.4-16.2 6.4-14.8 2.8-18.8 1.6-20.2-1.2-17.3 123.3-74.9 94.8-39.4 18.4-2.3 13.8 5.4 1.1 9.6-10.7 7.5-22.9 10.3-6.1 9.9-12.1 29.2-2.2 8.8-4.9 10.1-22.8 21.2-7.4 11.7-16.7 16.7-2.3 11.3-0.6 12.3-4.8 11.3-11.6 7.2-12.9 0.3-26.9-3-16.4 4.5-13.3 8.3-23.6 22.7-12.4 7.8-26.9 11.3-6.3 5.8z" id="BRN1182" name="Brunei and Muara" data-id="BRN1182" data-name="Brunei and Muara">
 </path>
 <path d="M841.8 110.4l0.4 16.8 6.8 6.9 19.2 11.1 18.4 26.2 47.9 138.8 3.2 17.5-1.2 12.7-5.9 29.1-0.4 28.9 4.1 31 9.6 28.9 16.9 22.6 25.8 24.2 10.6 15.8 1.8 15.2-10.6 11.6-16.1-0.6-16.9-7.4-13.3-8.9-6.4-2.4-14.1 0.6-7.6-3.3-11.5-9.6-6.1-2.2-21.9 2.2-15.3-3.3-41.7-15.5-9.7-6.5-5.9-10.5-8.7-72.4-8.6-29-23.9-57.2-6.4-28.6-3-59.8 5.2-58.3 13.4 13.9 13.4-8.7 14.5-16.2 16.4-8.7 15.9-3.4 0.5-8.6-6.3-11.5-4.3-12.3 6.4-8.5 15.4-0.6z" id="BRN1183" name="Temburong" data-id="BRN1183" data-name="Temburong">
 </path>
 <path d="M546.5 241.2l-1.4 13 5.5 13.7 14.1 27.1 4.3 15.2 2.5 16.3 3.5 85.9 4.4 26.9 13.1 20.5 14.4 5.3 10.9-1.8 5.4 3.6-1.7 21-6.7 27.8-5.5 12.4-7.8 12.5-17.7 17-26.4-14.5-13.6-19.2-5.8-22.4-11.4-21.5-14.2-17.5-17.7-17.2-15.8-19.9-16.9-16.8-22.8-14.2-4.4-18.4 3.5-22.4-9.6-14.9-30.3-2.8-9.5-12.3-11.3-11.6-7.2-16.8-6.2-17.7 25.5-9.2 15.4-15.2 11.3-21.2 26.5-27 88.5-70.6 27.5-16.7 1.2 17.3-1.6 20.2-2.8 18.8-6.4 14.8-2.4 16.2-5.6 23.7 5.2 12.6z" id="BRN1184" name="Tutong" data-id="BRN1184" data-name="Tutong">
 </path>
 <circle cx="575.9" cy="423" id="0">
 </circle>
 <circle cx="746.9" cy="79.9" id="1">
 </circle>
 <circle cx="759.1" cy="116.6" id="2">
 </circle>
</svg>