<?xml version="1.0"?>
<!--
************* Copyright (c) 2017 Pareto Softare, LLC DBA Simplemaps.com *******************		
************* Free for Commercial Use, full terms at  http://simplemaps.com/resources/svg-license ************
************* Attribution is appreciated! http://simplemaps.com ***************************
-->
<svg baseprofile="tiny" fill="#7c7c7c" height="560" stroke="#ffffff" stroke-linecap="round" stroke-linejoin="round" stroke-width="2" version="1.2" viewbox="0 0 1000 560" width="1000" xmlns="http://www.w3.org/2000/svg">
 <path d="M266.5 410.5l4.4 6.5 5.7 16.7 7 2.4 1.6 3.4-0.4 1.9-0.7 1.5-0.7 4.5 18.6 0.1 6 11.8 1.5 4.3 3.7 14.8-5 10.4-0.2 4.3 0.6 1.3 3.3 4.9 1.5 4.5 0.2 3.2-0.3 4.4-0.8 4.1-0.6 2.4-2.6 5-1.7 1.4-2.1 4.9-2.6 1.8-3 8.1 1.2 7 2.3 3.4 1.7 1.9 0.6 1.1-0.1 3.6-0.2 1.3-4.7-0.8-15.9-7.1-6.5-0.3-10.4 4.3-5.5 0.1-3.7-2.9 4.8-9.2-0.6-5.8-7.5-6-11.8-4.5-12.2-2-18.6 2.2-10.6-5.5-11.4-8-0.1-7.2-1-5.2-1.5-0.4-2.4-0.1-6.3 1.5-1.1-0.4-0.3-0.8 0.3-2.7-0.9-1.9-1.4-5.2-2.2-1.7-6.1-3.4-1.7-0.5-2 0.7-1.5-0.1-0.8-0.7-1.2-3 10.2-7.2 11.6-15.8 1.2-7.3-2-4.2-1.5-1.6-1.5-1.4-1.7-0.7-3.5-0.7-0.1-8.5-1-6.6 1-3.9 1.5-2.5 4.3-2.6 0.3-6.1 3.3-6 2.7-3.6 0.3-2.4-0.7-1.7-2-2.2-1.3-1.8-2.5-6.8 20.8 0.4 8.4 1.7 3.9 1.6 5 2.8 2.5 0.7 9.1 1.3 2.8-1.2 0.5-2.1-1-3.4-0.3-2.4 0.2-2.9 4.2-12.9 2-4.3 1-3.3 0.8-8.3 5 3.8 1.9 3.7 1.2 3.6 0.9 4.7 1.1 1.3 1.2 0.5 2.1-0.8 9.3 2.7 1.5 1 0.6 2.8-16.7 11.7-6.1 8.2 0.2 2.7 7.8 4.3 3.2 2.5 7.4 3.7 6.8-0.8z" id="BTN2433" name="Chhukha" data-id="BTN2433" data-name="Chhukha">
 </path>
 <path d="M395.7 423.1l1.5 11-1.8 5.6 2.3 3.1-0.2 7.5-1.3 10.4-0.1 10.8-2.9 8.9-4.6 5.3-2.8 5.2-5.2 2.9-1 2.3 0.1 1.6-0.6 3 0 1.4 0.6 3 0 0.9-11 7.4-2.2 3 1.4 1 0.4 1.3-1.3 0.2-1.6-0.3-1.5-1-0.6-1.4-0.2-2.3-0.7-2.5-1-2.3-2.5-2-1.3-0.1-0.7 0.7 0 3.1-0.2 2.4-0.8 2.8-1.2 2.7-1.1 1-1 0.2-1.4-1.3-0.9-3.6-1.7 4.2-1.7 1-7.7 3-2.7 0-2.1-0.9-3.1-3.3-1.9-1.6-3.9-1.7-1.8 0-0.9 0.7 0.3 2.7-0.1 1.4-1.4 4.2-3.9-1.9-3.3-0.1-1.4 0.2-5.4 1.4 1.7-1.4 2.6-5 0.6-2.4 0.8-4.1 0.3-4.4-0.2-3.2-1.5-4.5-3.3-4.9-0.6-1.3 0.2-4.3 5-10.4-3.7-14.8-1.5-4.3-6-11.8-18.6-0.1 0.7-4.5 0.7-1.5 0.4-1.9-1.6-3.4-7-2.4-5.7-16.7-4.4-6.5 2.9-9.1 1.1-7.7 1.5-4.1 1.4-2.5 3.2-2.1 3.3-1.3 1.9-1 2.5-2.6 2-3.3 2.4-7.2 3.4 0.8 17.2-3.7 6.3 3.6 8.8-0.8 2.5 1 4.4 2.8 3.6 3.6 6.4 5.3 3 3.5 2.1 3.2 0.8 1.7 1.5 4 3.8 6.9 7 9.5 12.3 1.4 11.6 5.1 4.6 0.8 7.7 4.8z" id="BTN2434" name="Daga" data-id="BTN2434" data-name="Daga">
 </path>
 <path d="M111.6 248.7l6.7 7.3 9.3 7.9 3.7 1.6 3 1 3.7 2.8 1.9 0.4 2.5-0.9 1.6 0.2 1.4 2.2 5.4 16.7 0.9 4 2.7 5.6 3.6 3 2.1 2.2 1.9 1.4 1.1 5.3 3.4 4.9 7.9 13.9 4.6 6.3 12.4 18-2.6 3.7-3.6 3.2-1.9 1-4.4 1.7-1.8 1.1-1.7 2-1.2 2.2-0.6 2.9 2.5 5.8 0.5 3.5 2.6 7.6 2.5 6.8 1.3 1.8 2 2.2 0.7 1.7-0.3 2.4-2.7 3.6-3.3 6-0.3 6.1-13.7-2.6-6.4 2.8-2.8 6-0.7 2.6-3.9 6.1-0.3 0.3-13.5-17.6-9.9 9.1-4.5-0.4-0.9-1.3-0.7-2.8-1.7-3.5-0.8-0.9-0.8-2.1-0.4-1.9-1.2-2.3-21.4-2.2-5.7-2.5-0.5-2.4-0.9-2.6-1.4-2.3-0.7-1.6-0.6-2.6-0.2-3.1-1.2-2.7-0.1-1.6-1.2-3.2-1-0.5-1 0.1-1.8 1.2-2.4 2.1-3.3 0.4-7.1-8-3.8-7.2-1.4-1.2-2.2-1.2-10.6-2.9-4-1.5 2.5-2 2.3-9.7 6.8-5.2 10.6 0.9 6.3 5.3 7.4-6.2-4.7-7.9-5.1-12.9-3.8-13.5 1.9-7.9 2.6-7.1 4.9-4.9-2.3-4.8-0.6-3.6 1.6-4.3 4.3-2.4 3.6-4.1-0.7-3.6 4-5.1 5.1-1.1 1.9-5.2 3.3-4.6 3.9-2.6 8.2-3.4 3.2 0.8z" id="BTN2435" name="Ha" data-id="BTN2435" data-name="Ha">
 </path>
 <path d="M239.1 354.9l-0.8 8.3-1 3.3-2 4.3-4.2 12.9-0.2 2.9 0.3 2.4 1 3.4-0.5 2.1-2.8 1.2-9.1-1.3-2.5-0.7-5-2.8-3.9-1.6-8.4-1.7-20.8-0.4-2.6-7.6-0.5-3.5-2.5-5.8 0.6-2.9 1.2-2.2 1.7-2 1.8-1.1 4.4-1.7 1.9-1 3.6-3.2 2.6-3.7-12.4-18-4.6-6.3-7.9-13.9-3.4-4.9-1.1-5.3-1.9-1.4-2.1-2.2-3.6-3-2.7-5.6-0.9-4-5.4-16.7-1.4-2.2-1.6-0.2-2.5 0.9-1.9-0.4-3.7-2.8-3-1-3.7-1.6-9.3-7.9-6.7-7.3 2.2 0.5 2.9 1.3 1.5 1.1 0.9-4.1 8.5-12.9 12.5-21.9 2.3-5.6 5.2 1.7 1.6 0.7 4.5 1.3 1.3 0.7 1.9 1.9 1 0.6 6.1 2.3 2.3 0.3 2.6-0.5 3.2-2.2 3.3-1.6 7.2-0.5 3.1-0.5 4.3-2.6 5.7-1.9-0.6 9.8 0 2.2 0.6 4.3 0.4 1.8 4.4 6.7-8.1 9.4 4.6-0.6 2.1 0.6 2.7 1.6 5.2 5.1 6.7 9.2 4.3 8.6 3.1 2.9 3.4 1.6-2.4 5.2-0.6 4.2-0.3 7.8-2.3 15-0.3 12.6 2.1 3.6 2.4 1.3 1.2 0.2 3.7 1.5 1.3 1.3 0.7 2.6 0.4 3.4-2.2 9 7.6 4.7 1.9 2.1 1 1.5 0.4 8.9z" id="BTN2436" name="Paro" data-id="BTN2436" data-name="Paro">
 </path>
 <path d="M519.6 97.6l-13.5 0.3-6.4 5-0.8 6.9-1.8 4.3-3.2 5-2.8 2.5-9.3 5.6-1.8 3.2-0.6 2.8 0.6 1.9-0.2 2.6 0.2 1.5 0.8 1.6 0.8 3.2 0.1 3.3 0.5 3.9-0.8 1.8-1.6 1.3-3.2 0.3-1.8 0.3-1.8 0-4.1-1.1-2 0.1-1.7 0.7-3.2 2.6-1.8 0.2-2.5-1.7-4.1-3.7-5.8-9.6-0.6-2 0.5-2.7-0.4-1.6-1-1.9-4.9-4.3-4.8 0.2-9.8 0.7-1.4 0.3-1.4 1.1-1.3 1.8-2.1 5.7-12.6 21.8-1.1 2.5-1.9 2.6-2.7 2.8-6 3.3-3.3 1.2-6.1 1-1.4 0.5-2.7 0.3-2.2 2.4-1.5 10.9-5-1.2-1.2-0.8-3.5-2.6-13.8-5.7-7.2-6-1.6-1.1-1.7-0.2-2 0.5-3.6 1.7-2.1 0.7-7.4 1.4-1.6 0.5-1.7 1.7-1.8 2.5-5.6 9.8-9.8 12.7-8.4 0.6-4.8 0.9-5.8 3.9 1.6 3.2-11.8 3.7-5.5-1.9-2.3-0.5-2-0.1-3.4 0.4-3.2 0.9-1.9 3.9-11.2-6.5-2.4-2.5-0.4-2.6-2.1-5.4-0.9-4-6.4-0.5-2 1.1-2.6 3.6-2.1 3.4-1.1 0.3-2-0.5-1.7-1.2-1.4-1.6-1.1-1.9-0.7-2.2 2.4-2.8 1.7-7.2 0.2-2.7-0.1-2.2-1-4.5 0.6-1.8 1.4-2.6 10.3-13.6 1.4-1.4 3.2-1.9 2.1-1.4 0.2-1-0.8-0.8-7.3-1.4-4-1.5-1.8-3.2-1.8-11.3-3.6-4.9-8.2-4.6-2.5-1-4.1-0.4-7 0.7 8.1-14.4 4.2-5.6 5-4.6 5.9-2.2 5.8-4.7 13.8-17.8 5.4-3.4 5.4-1.7 35.7-6.5 11.3-5.2 5.3-9.6 2.1-5.4 4.5-3.8 10.1-6.4 2.6-3 4.6-6.5 2.6-2.9 3.2-1.7 2.3 1.1 10.3-6.1 10.8 2.5 5.7-3.3 5.6-0.9 23.9-8.3 15.7 3.3 8.8 4.4 6.8-1.1 6.9-7.8 7.8-3.3 10.7 7.8 0 12.2 8.9 12.8 11.3 1.9 7.2-14.7 9.8 0 8.8 5.6 11.8 0 14.6 11.1 12.7 1.1 11.8 4.5 2.9 11.1-8.8 3.4-5.9 11.1-9.7 1.1-8.8 10-3.1 17.6z" id="BTN2437" name="Gasa" data-id="BTN2437" data-name="Gasa">
 </path>
 <path d="M179.1 417.8l-4.3 2.6-1.5 2.5-1 3.9 1 6.6 0.1 8.5 3.5 0.7 1.7 0.7 1.5 1.4 1.5 1.6 2 4.2-1.2 7.3-11.6 15.8-10.2 7.2 1.2 3 0.8 0.7 1.5 0.1 2-0.7 1.7 0.5 6.1 3.4 2.2 1.7 1.4 5.2 0.9 1.9-0.3 2.7 0.3 0.8 1.1 0.4 6.3-1.5 2.4 0.1 1.5 0.4 1 5.2 0.1 7.2-8.1-5.6-12.3 3.3-4.1-0.2-3.8 0.3-3.2 2.6-3 3.1-3.5 2.4-8.4 2.2-8.3 0.9-16.8-1-9.4-2.7-4.2-4.8-2.4-6.8-4.1-8.4-4.7-5.2-6.9-5.2-7.4-3.4-6.3 0.4-2.9 2.1-3.3 0.9-3.5-0.4-3.1-1.8-2.1-3.4 0-3.2 0.5-3.5-0.7-4.1-5.3-6.5-6 0.7-5.8 5-4.6 6.2-1.8-16.5 0-18.2-1.4-8.6-3.9-7.6-6.7-5.1-18.6-9.9-3.7-2.7 2.5-9.7 4.7-11 6.4-9.4 7.5-5.2 17.9-4.7 4.4-3.4 4 1.5 10.6 2.9 2.2 1.2 1.4 1.2 3.8 7.2 7.1 8 3.3-0.4 2.4-2.1 1.8-1.2 1-0.1 1 0.5 1.2 3.2 0.1 1.6 1.2 2.7 0.2 3.1 0.6 2.6 0.7 1.6 1.4 2.3 0.9 2.6 0.5 2.4 5.7 2.5 21.4 2.2 1.2 2.3 0.4 1.9 0.8 2.1 0.8 0.9 1.7 3.5 0.7 2.8 0.9 1.3 4.5 0.4 9.9-9.1 13.5 17.6 0.3-0.3 3.9-6.1 0.7-2.6 2.8-6 6.4-2.8 13.7 2.6z" id="BTN2438" name="Samchi" data-id="BTN2438" data-name="Samchi">
 </path>
 <path d="M262 217.9l4.5 7 0.7 1.2 1.4 8.2 0.2 6.7-1 4.1 0 2.2 0.7 2.7 1.6 3.1 2.5 3 1.8 3.1 2.3 5.4 1.6 3.1 4 3.9 3.6 5.6 8.1-6.5 12.1-4 7 10.6 0.5 1.8 1.6 1.9 0.9 0.7 7.1 1 0.6 3.1-0.6 5.1-1.2 4.2-4.6 4.4-15.6 4.3-1.4 6.2-0.4 6.4 2.3 6.8-15.9 13.8 2.4 2.8 3.8 3.1 0.1 3.4-0.7 3.7 0.1 20.4-3.4-0.8-2.4 7.2-2 3.3-2.5 2.6-1.9 1-3.3 1.3-3.2 2.1-1.4 2.5-1.5 4.1-1.1 7.7-2.9 9.1-6.8 0.8-7.4-3.7-3.2-2.5-7.8-4.3-0.2-2.7 6.1-8.2 16.7-11.7-0.6-2.8-1.5-1-9.3-2.7-2.1 0.8-1.2-0.5-1.1-1.3-0.9-4.7-1.2-3.6-1.9-3.7-5-3.8-0.4-8.9-1-1.5-1.9-2.1-7.6-4.7 2.2-9-0.4-3.4-0.7-2.6-1.3-1.3-3.7-1.5-1.2-0.2-2.4-1.3-2.1-3.6 0.3-12.6 2.3-15 0.3-7.8 0.6-4.2 2.4-5.2-3.4-1.6-3.1-2.9-4.3-8.6-6.7-9.2-5.2-5.1-2.7-1.6-2.1-0.6-4.6 0.6 8.1-9.4-4.4-6.7-0.4-1.8-0.6-4.3 0-2.2 0.6-9.8-5.7 1.9-4.3 2.6-3.1 0.5-7.2 0.5-3.3 1.6-3.2 2.2-2.6 0.5-2.3-0.3-6.1-2.3-1-0.6-1.9-1.9-1.3-0.7-4.5-1.3-1.6-0.7-5.2-1.7 3.2-8 2.4-12.3 10.1-6.7 12.1-5.6 10.9-8.4 10.1-13.5 14-26.7 7-0.7 4.1 0.4 2.5 1 8.2 4.6 3.6 4.9 1.8 11.3 1.8 3.2 4 1.5 7.3 1.4 0.8 0.8-0.2 1-2.1 1.4-3.2 1.9-1.4 1.4-10.3 13.6-1.4 2.6-0.6 1.8 1 4.5 0.1 2.2-0.2 2.7-1.7 7.2-2.4 2.8 0.7 2.2 1.1 1.9 1.4 1.6 1.7 1.2 2 0.5 1.1-0.3 2.1-3.4 2.6-3.6 2-1.1 6.4 0.5 0.9 4 2.1 5.4 0.4 2.6 2.4 2.5 11.2 6.5z" id="BTN2439" name="Thimphu" data-id="BTN2439" data-name="Thimphu">
 </path>
 <path d="M379.1 189l0.3 10.1-2.8 5.7-3 2.6-4.6 5-1.1 1.6-1.5 4.4-0.2 3.7 0.3 3.4 2.4 2.5 2 1.1 2.1 0.3 3.9-0.7 2 0.2 2.2 0.9 2.2 2 2.4 3 2.4 2.3 0.9 1.6 0.2 2.5-0.8 2.1-4.3 4.4-6.7 2.2-7.6 10.3-10.4 8.7-1.4 5.1-7 5.9-14.7 3.7-13.1-0.9-7.1-1-0.9-0.7-1.6-1.9-0.5-1.8-7-10.6-12.1 4-8.1 6.5-3.6-5.6-4-3.9-1.6-3.1-2.3-5.4-1.8-3.1-2.5-3-1.6-3.1-0.7-2.7 0-2.2 1-4.1-0.2-6.7-1.4-8.2-0.7-1.2-4.5-7 1.9-3.9 3.2-0.9 3.4-0.4 2 0.1 2.3 0.5 5.5 1.9 11.8-3.7-1.6-3.2 5.8-3.9 4.8-0.9 8.4-0.6 9.8-12.7 5.6-9.8 1.8-2.5 1.7-1.7 1.6-0.5 7.4-1.4 2.1-0.7 3.6-1.7 2-0.5 1.7 0.2 1.6 1.1 7.2 6 13.8 5.7 3.5 2.6 1.2 0.8 5 1.2z" id="BTN2440" name="Punakha" data-id="BTN2440" data-name="Punakha">
 </path>
 <path d="M602.8 103.4l-1.4 10.7 0 3.4 0.2 2.7 1.1 3.3 0.3 8-0.7 2.5-0.8 1.5-3 1.9-1.3 1.5-0.8 1.7-0.3 2.4-1.5 2.9 0.3 1.5 1.1 1.8 3.5 3 2 1.1 1.9 0.7 3.3 0.8 1.5 0.6 1.7 2 4.5 10.4 0.7 8.7 4.2 2 4.3 4.5 2.3 3.3 1.7 1.9 1.3 0.8 2.1 0.5 1.2 0.5 3 1.9 1.8 0.8 1 2.2 2.9 13.1 0 7.8 0.7 1.1 1.9 1 4.7 0.6 1.4 0.4 1.4 0.9 8.3 8.1 1 2.4 0.9 3.4 1.2 7.6 0.4 7.8-4.7 15.8-0.6 3.5 2.7 6 0.7 8-0.2 2-0.8 1.8-0.3 1.4 0.7 1.9 1.5 2.1 3.4 2.4 4.6 6.2-4.6 10.3-2.8 3.4-0.5 3.8 4.6 9.4-6 2-1 0.6-4.3 4.4-1 3.4-0.8 0.8-4.1 2.2-6.8 0.2-3.9 3-3.4 0.6-9.3 4.2-9.4-4.5-3.5-3.9-1.4-2.6-2.5-2.1-2.5-2.7-1.3-1-3.2-0.6-3.5 0.3-2 1.1-1.7 1.1-1.4 7.2-16.3-17.9-6-4.4-2.2-1.1-3.9-1.3-2.8-1.2-1.5-1.1-1.4-2-2.1-1.5-3-0.6-7.3-2.7-2.4-6.8 1.6-4.1-1.3-8.6-6.9-23.9-2.4-1.5-1.1-4.2-1.2-9.2-2.1-2.1-0.4-1.5 0-2.5 0.5-4 0.1-2.7 0.2-1.9 2.3-7.3 0.7-8.8 0-4-0.4-2.9-1.3-2.9-3.5-5.1-0.8-1-1.4-0.8-1.6-0.6-1.7-0.1-2.3 0.5-0.9-0.1-4.2-3.5-2.2-13.4 0.3-1.4 0.7-1.6 1 0.1 1.6-1 1.8-2.6 3.3-6.4 1.6-9.8-0.3-3.2-0.4-2-2.1-3.8-1.1-4-0.8-1.4-1.8-1-3.6-0.8-0.7-0.6-1.6-3.4-0.8-2.6-1.7-2.7-0.2-1.5 1.9-2.8 0.9-1.7 0.8-3 0-2.4-0.7-2.4-6.5-8.5 4.6-7.9 9.1-8 5.1-0.7 5.2 0.1 19.4 2.8 6.6-1.6 7.2-0.8 8.7-4.7 4.9-1.1 4.9 1.1 12.7 8.5 8.5 2.2z" id="BTN2480" name="Bumthang" data-id="BTN2480" data-name="Bumthang">
 </path>
 <path d="M471.3 400.6l5.6 7.3-4.3 2.9-3.5 1.9-4.8 3.3-2.3 2-4.2 4.4-0.9 2.1-0.6 6.7-0.7 3.2-2.8 8.2-4.7 4.7 0.6 11.4-4.7 7.7-5 5.2-2.5 4.6-0.2 3.4-2.1 3.7-4.6 3.1-10.6 16.1-0.3 1.2 0.7 3.5 0 2.4-1.1 1.3-1.9 0.8-5.3 1.1-3.1 1.1-3.8 2.7-1.3 2-1.7 1.6-2.4 1.2-6.7-1.4-4-0.7-1.8-1.4-3.4-4.8-0.5-3.9-2.7-3.2 0-0.9-0.6-3 0-1.4 0.6-3-0.1-1.6 1-2.3 5.2-2.9 2.8-5.2 4.6-5.3 2.9-8.9 0.1-10.8 1.3-10.4 0.2-7.5-2.3-3.1 1.8-5.6-1.5-11-0.4-23 6.1-1.6 15.3 6.8 4 0.6 10.5-0.8 4.4-1.4 1.4-0.1 1.1 0.5 4.4 3.8 3.1 1.8 2.9 2.8 8.6-4.8 6.6-2.1 7.6-5z" id="BTN2481" name="Chirang" data-id="BTN2481" data-name="Chirang">
 </path>
 <path d="M531.9 415.6l1.8 5.3 5.3 5.4 5 3.9 7.6 4.2 4.3 1.8 1.6 0.4 1.6 0 1.5-0.5 2.5-1.4 2.5-1 7 3.7 2.7 3.2 1.3 2.1 0.4 3.6 0.7 2.9 1.8 2.1 0.6 1.7 0 3.6 0.3 1.9 1.1 4.2-0.6 2.6-1.8 2.8 1.4 5.3 2.8 1.4 8.9 1.4 1.5 1 2 1.8 2.4 3.9 2 2.2 1.3 0.8 1.7 0.3 1.2 0.9 1.6 2 2.8 1.7 2.2 4 0.6 2.1 3.1 6 0.7 1.7 1.2 7 1.9 4.4 1.7 1.8 1.6 0.9 5-1.2 11 1 4.3 0.9 10.9-0.8 7.2-3.4 2.9 13.3-1.6 1.1-1.8 0.6-0.6 1.2-67.6 4-38.4-4.4-33.4-17.4-27.6-19.8-10-1.7-6 2-4.3 3.5-4 4-4.8 3.7-5.5 1.9-11-0.5-5.4 0.5-9.9 6.5-7.5 20.1-7.5 6.8-11.3 3.2-33.8 3.3-18.8 5-6.4 0.7-3-0.5-6.1-1.9-2.7-0.4-1.1-0.6-2.4-2.1-1.2-0.1-1.5 1.3-0.7 1.7-0.2 3-0.5 2-0.9 2.2-1.4 1.6-1.1 0-2.9-1.2-1.2-0.2-11.8 0.1-1.7-0.3 0.2-1.3 0.1-3.6-0.6-1.1-1.7-1.9-2.3-3.4-1.2-7 3-8.1 2.6-1.8 2.1-4.9 5.4-1.4 1.4-0.2 3.3 0.1 3.9 1.9 1.4-4.2 0.1-1.4-0.3-2.7 0.9-0.7 1.8 0 3.9 1.7 1.9 1.6 3.1 3.3 2.1 0.9 2.7 0 7.7-3 1.7-1 1.7-4.2 0.9 3.6 1.4 1.3 1-0.2 1.1-1 1.2-2.7 0.8-2.8 0.2-2.4 0-3.1 0.7-0.7 1.3 0.1 2.5 2 1 2.3 0.7 2.5 0.2 2.3 0.6 1.4 1.5 1 1.6 0.3 1.3-0.2-0.4-1.3-1.4-1 2.2-3 11-7.4 2.7 3.2 0.5 3.9 3.4 4.8 1.8 1.4 4 0.7 6.7 1.4 2.4-1.2 1.7-1.6 1.3-2 3.8-2.7 3.1-1.1 5.3-1.1 1.9-0.8 1.1-1.3 0-2.4-0.7-3.5 0.3-1.2 10.6-16.1 4.6-3.1 2.1-3.7 0.2-3.4 2.5-4.6 5-5.2 4.7-7.7-0.6-11.4 4.7-4.7 2.8-8.2 0.7-3.2 0.6-6.7 0.9-2.1 4.2-4.4 2.3-2 4.8-3.3 3.5-1.9 4.3-2.9-5.6-7.3 0.1-5.2 2.8-3.5 4.2-4.3 18.7 10.7 9.6 7.9 3.8 2.3 2.3 2.7 3.1 1.7 2.5 0.6 3.1-0.2 1.6 0.3 4.4 1.5 4.4 0.5z" id="BTN2482" name="Geylegphug" data-id="BTN2482" data-name="Geylegphug">
 </path>
 <path d="M805.2 125.6l-5.3 5.8-4.4 4-1.5 0.8-1.5 0.2-2.9-0.9-1.4-0.1-1.7 1-9.5 11.5-1.5 1-4 1.2-0.9 1.5-0.4 2 0.2 3.9-0.8 27.9-1.3 5.8 0 3.7-0.6 5.6-1.4 3.9-1.3 2.5-0.6 2.4 0.3 2.4 2 7.7 0.1 2.5-1.3 8.2 1.2 20.3-2.9 7.2 3.7 5.3-4.3 1.1-1.4 0.8-0.9 1.6 0.3 5.5-0.4 2.7-7.2 5.9-3 3.3-2.3 5.7 1.7 4.1 2.2 2.9 0.4 1.5-0.5 6-3.8 10.1-24 13-6.8-10.8-2.1-1.3-5.7-1.1-5.1-0.3-6.3 2.1-16.5 14.6-15.3-3.2-4.6-9.4 0.5-3.8 2.8-3.4 4.6-10.3-4.6-6.2-3.4-2.4-1.5-2.1-0.7-1.9 0.3-1.4 0.8-1.8 0.2-2-0.7-8-2.7-6 0.6-3.5 4.7-15.8-0.4-7.8-1.2-7.6-0.9-3.4-1-2.4-8.3-8.1-1.4-0.9-1.4-0.4-4.7-0.6-1.9-1-0.7-1.1 0-7.8-2.9-13.1-1-2.2-1.8-0.8-3-1.9-1.2-0.5-2.1-0.5-1.3-0.8-1.7-1.9-2.3-3.3-4.3-4.5-4.2-2-0.7-8.7-4.5-10.4-1.7-2-1.5-0.6-3.3-0.8-1.9-0.7-2-1.1-3.5-3-1.1-1.8-0.3-1.5 1.5-2.9 0.3-2.4 0.8-1.7 1.3-1.5 3-1.9 0.8-1.5 0.7-2.5-0.3-8-1.1-3.3-0.2-2.7 0-3.4 1.4-10.7 9.9 2.6 18.5 1.2 17.4 3.8 15.2 12.8 4.3 4.3 10 5.1 12.8 1.4 12.1-3 8-7.8 4.2-6.5 12.5-14.7 5.6-4.4 7.7-1.4 7.6 1.1 7-0.4 6.1-6.3 5.8 11.8 9.4 8.7 23 12.1 5.3 1.8z" id="BTN2483" name="Lhuntshi" data-id="BTN2483" data-name="Lhuntshi">
 </path>
 <path d="M891.5 303.6l-0.8 2.5-1.7 2.1-2.3 1.1-8.1 1.2-10.2 4.3-17.5 5.6-3.3 0.2-6.8 8-1.3 1.2-7.3 2.9-1 1.4-27.5-9.6-11.5-1.4 4.7-9.3 0.7-2.9-0.3-1.3-3.8-9.1-20.7-27.8-5.3-9.8-3.7-5.3 2.9-7.2-1.2-20.3 1.3-8.2-0.1-2.5-2-7.7-0.3-2.4 0.6-2.4 1.3-2.5 1.4-3.9 0.6-5.6 0-3.7 1.3-5.8 0.8-27.9-0.2-3.9 0.4-2 0.9-1.5 4-1.2 1.5-1 9.5-11.5 1.7-1 1.4 0.1 2.9 0.9 1.5-0.2 1.5-0.8 4.4-4 5.3-5.8 2.9 1 4.3 0.7 10.9 0.1 11.9 5 12.2 1.5 6.6 1.9 6.2 2.8 4.8 3.7 4.5 7.8-1.2 6.6-3.5 6.7-2.6 8.3-0.3 7.7 1.6 23.6-1.8 14.5-13.9 19.7-2 12.8 6.5 24.6 2.8 4.8 8.4 6.9 2.6 5.6 4.7 5.3 6.8 2.1 7.3 1.4 6.6 2.9z" id="BTN2484" name="Tashi Yangtse" data-id="BTN2484" data-name="Tashi Yangtse">
 </path>
 <path d="M655.2 334.1l3.6 11.5 2.4 5.5 2.9 11 2.8 7.2 1 0.7 4.4 4.1 1.2 3.3 0.1 5.6 3 4.1 0.3 5.3-0.4 5.4-0.4 2.1-2 4.9-2 5.9 0.6 9 9.7 21.6 11.2 3.4 1.4 0.9 3.5 3.7 2.8 15.2 1.7 1.7 2.5 2.2 2.6 0.4 2.2 1 2.9 2.2 2.1 3.2 2.3 2.1 2.5 1.2 1.5 0.1 3.3-2.1 5.3 0.4-3.3 12.2-3.1 5.1-5.2 2.1-14 0.7-2.6 6.1-2.8-0.5-3.7 2.4-13 2.9-1.7 1-2.2 1.7-1.4 2.4-0.5 1.9-0.9 2.3-0.2 2.7 3.7 9.7-1.6 0.7-18.7 1.1 0.6-1.2 1.8-0.6 1.6-1.1-2.9-13.3-7.2 3.4-10.9 0.8-4.3-0.9-11-1-5 1.2-1.6-0.9-1.7-1.8-1.9-4.4-1.2-7-0.7-1.7-3.1-6-0.6-2.1-2.2-4-2.8-1.7-1.6-2-1.2-0.9-1.7-0.3-1.3-0.8-2-2.2-2.4-3.9-2-1.8-1.5-1-8.9-1.4-2.8-1.4-1.4-5.3 1.8-2.8 0.6-2.6-1.1-4.2-0.3-1.9 0-3.6-0.6-1.7-1.8-2.1-0.7-2.9-0.4-3.6-1.3-2.1-2.7-3.2-7-3.7-2.5 1-2.5 1.4-1.5 0.5-1.6 0-1.6-0.4-4.3-1.8-7.6-4.2-5-3.9-5.3-5.4-1.8-5.3 3.3-3.5 4.8-2 2.2-1.5 3.9-3.7 2.1-1.3 1.7-0.2 2.6 2.1 1.4 0.9 1.8 0.5 11-0.8 1.7-0.5 0.5-0.8-0.4-1-8.4-11.3-2.1-3.7 21.8-10.1 8.5-6.1 0.8-1.6-0.4-3 0-3.1-0.6-2.3 0.5-3.8 2.8-7 2.1-11 1.4-7.2 1.7-1.1 2-1.1 3.5-0.3 3.2 0.6 1.3 1 2.5 2.7 2.5 2.1 1.4 2.6 3.5 3.9 9.4 4.5 9.3-4.2 3.4-0.6 3.9-3 6.8-0.2 4.1-2.2 0.8-0.8 1-3.4z" id="BTN2485" name="Shemgang" data-id="BTN2485" data-name="Shemgang">
 </path>
 <path d="M593.5 340.8l-2.1 11-2.8 7-0.5 3.8 0.6 2.3 0 3.1 0.4 3-0.8 1.6-8.5 6.1-21.8 10.1 2.1 3.7 8.4 11.3 0.4 1-0.5 0.8-1.7 0.5-11 0.8-1.8-0.5-1.4-0.9-2.6-2.1-1.7 0.2-2.1 1.3-3.9 3.7-2.2 1.5-4.8 2-3.3 3.5-4.4-0.5-4.4-1.5-1.6-0.3-3.1 0.2-2.5-0.6-3.1-1.7-2.3-2.7-3.8-2.3-9.6-7.9-18.7-10.7 5.6-8 1.5-5.5-0.1-4.4-5-3.1-1.3-9.5-1.3-3.3-2.1-2.5-9-8-1.2-2-0.6-1.5 0.2-2.4 0.3-1.2-3.8-4.8-4.8-8.4-1.4-10.3-1-2.7-5.3-9.1 10.8-2.7 1.8-1.3 5.1-5 2.6-1.3 4-1.2 2.3-0.1 1.7 0.3 1.5 0.8 1-0.1 1.8-1.8 1.3-1 3.1-3.1-8.6-4.4-3.2-4-5.2-11-1.8-4.5-1.1-3.7-1.4-2.8-0.5-1.9 0.1-2.3 4-5.4 0.9-2 0.6-6.1 0.6-2.1 0.7-1.5 1.2-1.5 1-0.8 1.1-0.1 2.1 0.8 2.2 0.4 1.7-0.1 2.5-0.5 3.7-1.3 1.6 0 2.9 2.2 1.5 0.5 1.5 0 13.6-5.8 3.1-2.4 1.6-2.7 1.1-3.6 2.7-15.6 0.2-4.8 4.2 3.5 0.9 0.1 2.3-0.5 1.7 0.1 1.6 0.6 1.4 0.8 0.8 1 3.5 5.1 1.3 2.9 0.4 2.9 0 4-0.7 8.8-2.3 7.3-0.2 1.9-0.1 2.7-0.5 4 0 2.5 0.4 1.5 2.1 2.1 1.2 9.2 1.1 4.2 2.4 1.5 6.9 23.9 1.3 8.6-1.6 4.1 2.4 6.8 7.3 2.7 3 0.6 2.1 1.5 1.4 2 1.5 1.1 2.8 1.2 3.9 1.3 2.2 1.1 6 4.4 16.3 17.9z" id="BTN2486" name="Tongsa" data-id="BTN2486" data-name="Tongsa">
 </path>
 <path d="M516.5 197.4l-0.2 4.8-2.7 15.6-1.1 3.6-1.6 2.7-3.1 2.4-13.6 5.8-1.5 0-1.5-0.5-2.9-2.2-1.6 0-3.7 1.3-2.5 0.5-1.7 0.1-2.2-0.4-2.1-0.8-1.1 0.1-1 0.8-1.2 1.5-0.7 1.5-0.6 2.1-0.6 6.1-0.9 2-4 5.4-0.1 2.3 0.5 1.9 1.4 2.8 1.1 3.7 1.8 4.5 5.2 11 3.2 4 8.6 4.4-3.1 3.1-1.3 1-1.8 1.8-1 0.1-1.5-0.8-1.7-0.3-2.3 0.1-4 1.2-2.6 1.3-5.1 5-1.8 1.3-10.8 2.7 5.3 9.1 1 2.7 1.4 10.3 4.8 8.4 3.8 4.8-0.3 1.2-0.2 2.4 0.6 1.5 1.2 2 9 8 2.1 2.5 1.3 3.3 1.3 9.5 5 3.1 0.1 4.4-1.5 5.5-5.6 8-4.2 4.3-2.8 3.5-0.1 5.2-7.6 5-6.6 2.1-8.6 4.8-2.9-2.8-3.1-1.8-4.4-3.8-1.1-0.5-1.4 0.1-4.4 1.4-10.5 0.8-4-0.6-15.3-6.8-6.1 1.6 0.4 23-7.7-4.8-4.6-0.8-11.6-5.1-12.3-1.4-7-9.5-3.8-6.9-1.5-4-0.8-1.7-2.1-3.2-3-3.5-6.4-5.3-3.6-3.6-4.4-2.8-2.5-1-8.8 0.8-6.3-3.6-17.2 3.7-0.1-20.4 0.7-3.7-0.1-3.4-3.8-3.1-2.4-2.8 15.9-13.8-2.3-6.8 0.4-6.4 1.4-6.2 15.6-4.3 4.6-4.4 1.2-4.2 0.6-5.1-0.6-3.1 13.1 0.9 14.7-3.7 7-5.9 1.4-5.1 10.4-8.7 7.6-10.3 6.7-2.2 4.3-4.4 0.8-2.1-0.2-2.5-0.9-1.6-2.4-2.3-2.4-3-2.2-2-2.2-0.9-2-0.2-3.9 0.7-2.1-0.3-2-1.1-2.4-2.5-0.3-3.4 0.2-3.7 1.5-4.4 1.1-1.6 4.6-5 3-2.6 2.8-5.7-0.3-10.1 1.5-10.9 2.2-2.4 2.7-0.3 1.4-0.5 6.1-1 3.3-1.2 6-3.3 2.7-2.8 1.9-2.6 1.1-2.5 12.6-21.8 2.1-5.7 1.3-1.8 1.4-1.1 1.4-0.3 9.8-0.7 4.8-0.2 4.9 4.3 1 1.9 0.4 1.6-0.5 2.7 0.6 2 5.8 9.6 4.1 3.7 2.5 1.7 1.8-0.2 3.2-2.6 1.7-0.7 2-0.1 4.1 1.1 1.8 0 1.8-0.3 3.2-0.3 1.6-1.3 0.8-1.8-0.5-3.9-0.1-3.3-0.8-3.2-0.8-1.6-0.2-1.5 0.2-2.6-0.6-1.9 0.6-2.8 1.8-3.2 9.3-5.6 2.8-2.5 3.2-5 1.8-4.3 0.8-6.9 6.4-5 13.5-0.3-9.1 8-4.6 7.9 6.5 8.5 0.7 2.4 0 2.4-0.8 3-0.9 1.7-1.9 2.8 0.2 1.5 1.7 2.7 0.8 2.6 1.6 3.4 0.7 0.6 3.6 0.8 1.8 1 0.8 1.4 1.1 4 2.1 3.8 0.4 2 0.3 3.2-1.6 9.8-3.3 6.4-1.8 2.6-1.6 1-1-0.1-0.7 1.6-0.3 1.4 2.2 13.4z" id="BTN2487" name="Wangdi Phodrang" data-id="BTN2487" data-name="Wangdi Phodrang">
 </path>
 <path d="M792.2 323.1l1.4 4.2-3 3 7 4.6 4.2 4 8 4.5 1.4 1.3 0.7 1.4 0.1 1.3 1.9 3.3 0.6 1.6 1 6.6-11.9 6.1-11.6 11.3-2.2 5.7-0.7 17.1-0.8 4.1-0.7 3.3-2.4 8-3.2 7.7-3.9 6.1-5.8 4.8-20.2 9-6.2 5-5.1 6.3-8.1 14.4-2.5 9.1-5.3-0.4-3.3 2.1-1.5-0.1-2.5-1.2-2.3-2.1-2.1-3.2-2.9-2.2-2.2-1-2.6-0.4-2.5-2.2-1.7-1.7-2.8-15.2-3.5-3.7-1.4-0.9-11.2-3.4-9.7-21.6-0.6-9 2-5.9 2-4.9 0.4-2.1 0.4-5.4-0.3-5.3-3-4.1-0.1-5.6-1.2-3.3-4.4-4.1-1-0.7-2.8-7.2-2.9-11-2.4-5.5-3.6-11.5 4.3-4.4 1-0.6 6-2 15.3 3.2 16.5-14.6 6.3-2.1 5.1 0.3 5.7 1.1 2.1 1.3 6.8 10.8 24-13 3.8-10.1 0.5-6-0.4-1.5-2.2-2.9-1.7-4.1 2.3-5.7 3-3.3 7.2-5.9 0.4-2.7-0.3-5.5 0.9-1.6 1.4-0.8 4.3-1.1 5.3 9.8 20.7 27.8 3.8 9.1 0.3 1.3-0.7 2.9-4.7 9.3z" id="BTN2490" name="Mongar" data-id="BTN2490" data-name="Mongar">
 </path>
 <path d="M821.4 451.8l-11.4 3.5-0.7 2.9-5.2 10.1-0.5 2.2-0.3 3.5 1 4.6 0.1 2-1 2.6-4.3 7.3-4 4.4-3.2 3.1-4.8 5.4-3.1 6.3-3.7 1.4-8.3-3.2 2.5-9.8 1.1-1.4 0.3-3.1-3.6-8-6.8-0.6-2.8-1.9-2.1-1.9-1.9-3.1-1.7-0.9-2.8-0.5-11.6 1.5-12.4-1.3 2.5-9.1 8.1-14.4 5.1-6.3 6.2-5 20.2-9 5.8-4.8 3.9-6.1 3.2-7.7 2.4-8 0.7-3.3 12.4 1.5-4.1 7.1-3 3.8-0.5 2.3 0.1 1.6 2.1 3.1 2.8 5.1 2.3 2.2 6.3 4.3 1.3 1.1 4 2 10.7 0.1 0.4 0.4-1.7 14z" id="BTN2491" name="Pemagatsel" data-id="BTN2491" data-name="Pemagatsel">
 </path>
 <path d="M974.3 398.7l-0.8 1.2-2.1 4.9-1.5 5.8-0.9 6.2 0 6.1 3.6 10.8 14.8 15 5.1 10.6 5.1 19.3-3.4 16.5-10.9 11-18.1 2.7-5.2-2.5-9.5-8.2-5.2-2.1-4.4 1.2 0.7 4.4 0 4.9-6.4 3.1 3.5 4.5 0.3 5.5-2.4 3.8-4.7-0.6-3.1-4.6-0.9-5.4-1.7-4.9-5.5-3-8.9 1.6-18.9 12.5-8.8 4.2-14.4 1.9-4.7-0.4-13.1-3.9-5.4 0.2-10.8 3.8-5.5 0.4-3.9-3.5-6.9-14.9-2.8-4.3-4.3-1.3-12-0.7-4.1 0.7-5.3 3.7-3.1 5.2-2.4 6.1-3.4 6.1-3.8 3.8-4.6 3.1-5 2.3-5 1.4-6.1 0.1-4.2-1.6-8.7-5.4-10.2-2.4-21.2 0.5-10.4-1.3-8.9 0.1-14.6 6.7-3.7-9.7 0.2-2.7 0.9-2.3 0.5-1.9 1.4-2.4 2.2-1.7 1.7-1 13-2.9 3.7-2.4 2.8 0.5 2.6-6.1 14-0.7 5.2-2.1 3.1-5.1 3.3-12.2 12.4 1.3 11.6-1.5 2.8 0.5 1.7 0.9 1.9 3.1 2.1 1.9 2.8 1.9 6.8 0.6 3.6 8-0.3 3.1-1.1 1.4-2.5 9.8 8.3 3.2 3.7-1.4 3.1-6.3 4.8-5.4 3.2-3.1 4-4.4 4.3-7.3 1-2.6-0.1-2-1-4.6 0.3-3.5 0.5-2.2 5.2-10.1 0.7-2.9 11.4-3.5 4.4 2.5 23.8-13.7 13.4 2.9 40.3-14.2 6.7-12.1 6.1-5.4 13.8-4.6 7.6-1.2 4.3 0.2 0.7-0.6 0.3-1.2 0.5-10.7-0.6-6.2 0.7-5.1 1.6-3.9 1.3-1.3 1.5-0.2 1.4 0.9 1 1.3 0.7 1.5 1.5 5.4 0.7 2 1.7 3.4 1.2 2.8 1.4 1.3 2.4 1.4 2.7 0.7 2.7 0.5 8.3 0.4 0.8 0.1z" id="BTN2492" name="Samdrup Jongkhar" data-id="BTN2492" data-name="Samdrup Jongkhar">
 </path>
 <path d="M974.3 398.7l-0.8-0.1-8.3-0.4-2.7-0.5-2.7-0.7-2.4-1.4-1.4-1.3-1.2-2.8-1.7-3.4-0.7-2-1.5-5.4-0.7-1.5-1-1.3-1.4-0.9-1.5 0.2-1.3 1.3-1.6 3.9-0.7 5.1 0.6 6.2-0.5 10.7-0.3 1.2-0.7 0.6-4.3-0.2-7.6 1.2-13.8 4.6-6.1 5.4-6.7 12.1-40.3 14.2-13.4-2.9-23.8 13.7-4.4-2.5 1.7-14-0.4-0.4-10.7-0.1-4-2-1.3-1.1-6.3-4.3-2.3-2.2-2.8-5.1-2.1-3.1-0.1-1.6 0.5-2.3 3-3.8 4.1-7.1-12.4-1.5 0.8-4.1 0.7-17.1 2.2-5.7 11.6-11.3 11.9-6.1-1-6.6-0.6-1.6-1.9-3.3-0.1-1.3-0.7-1.4-1.4-1.3-8-4.5-4.2-4-7-4.6 3-3-1.4-4.2 11.5 1.4 27.5 9.6 1-1.4 7.3-2.9 1.3-1.2 6.8-8 3.3-0.2 17.5-5.6 10.2-4.3 8.1-1.2 2.3-1.1 1.7-2.1 0.8-2.5 5 7 0.3 5.2 1.6 2.5 8.7-0.9 23.1-8.1 8.1-1.4 10.8 0.7 3.8-1.3 8.8-6.7 3.5-1.1 6.6 7.9 26 48.4 1.2 4-2.1 5.8-9.2 7.9-4.1 5-1.1 3.1-1 6.3-0.8 2.9-1.7 2.7-3.9 4.1-0.8 1.1z" id="BTN2493" name="Tashigang" data-id="BTN2493" data-name="Tashigang">
 </path>
 <circle cx="804.2" cy="413.1" id="0">
 </circle>
 <circle cx="635.9" cy="206.2" id="1">
 </circle>
 <circle cx="457.8" cy="503" id="2">
 </circle>
</svg>