<?xml version="1.0"?>
<!--
************* Copyright (c) 2017 Pareto Softare, LLC DBA Simplemaps.com *******************		
************* Free for Commercial Use, full terms at  http://simplemaps.com/resources/svg-license ************
************* Attribution is appreciated! http://simplemaps.com ***************************
-->
<svg baseprofile="tiny" fill="#7c7c7c" height="1053" stroke="#ffffff" stroke-linecap="round" stroke-linejoin="round" stroke-width="2" version="1.2" viewbox="0 0 1000 1053" width="1000" xmlns="http://www.w3.org/2000/svg">
 <path d="M582.5 588.9l-21 42.5-232.6-0.8-325.7-0.3-2 0-0.1-32 0-19.9 0-19.9 0-17.4 0-17.3-0.1-44.6 105.8 0 1.4-4.2 0-4.7-0.3-79.3 0-6.6-0.1-13.1 0-6.7 308.8 0 165.9 224.3z" id="BWA1191" name="Ghanzi" data-id="BWA1191" data-name="Ghanzi">
 </path>
 <path d="M328.9 630.6l-1.5 10-2.2 1.9-4.8-0.1-1.1 0.4-0.9 1-0.4 4.3 0.2 11.2 0.2 0.9 0.7 0.3 1.1 0.1 6 0 1.9 8.5 0.4 41.5-0.5 96.4 0.2 1.5 0.6 1.2 1.5 0.4 1.5 0.1 102.2-0.6 1.6 0.2 1.7 0.5 1.6 1.3 12.4 12.9 1.3 1.8 1.1 2 0.5 2.5 1.7 56.1 3.5 4.6 12.3 12.5 1.7 0.5 4.9 0.4 2.8 2.2 1.5 10.1-4.7-1.8-2.1 0.3-2.2 0.9-2.9 0.8-5.3-0.9-4.5-3.4-7.4-8.8-4.7-2.7-5.6 0-11 3-2.3 0.4-0.2-0.6 0.6-1-0.1-1-1.1-0.9-1.1-0.7-1.2-0.2-5.5 1.4-2.1-1.3-1.6-2.3-4.8-3.5-4-5.4-1-0.6-2.1-0.7-1-0.6-0.7-1.1-1.1-2.4-1-0.9-6-1.9-1.3-1.4-0.8-1.1-11.3-8.9-2.7-1.7-3.1-1.4-1-0.8-1.4-1.5-1.7-2.5-0.9-1-1.5-0.5-1.4 0.3-3.5 1.3-1.9 0.1-1.7-0.3-4.8-1.9-5.8-1.1-5.3 0.3-5.1 1.6-8 3.8-1 0.8-1.3 0.8-0.6-0.6-0.5-1.2-0.7-1-2.6-0.4-2.5 1.4-4.1 4.2-0.6 1.1-0.3 1-0.4 0.9-1.2 0.8-1.5 0.7-1.1 0.7-0.9 1-0.9 1.4-1.7 4.6-1.1 1.4-2.8 1.1-0.7 1.2-2.1 7.3-0.8 1.8-0.3 1-0.1 1 0.6 1.1 1 1.3 0.5 1.2-0.9 1.2-1.5 1.1-0.1 0.9 0.4 1.1 0.2 1.3-0.3 1.6-0.2 1.3-0.6 1.1-4.8 5.7-1.4 2.4-0.7 2.6 0.1 1.6 1 0.6 0.8 1.2 0.7 1.7 0.1 0.7-1.1 2-1.7 1.8-2.1 1.9-1.1 1.9 1.3 2.2 0.6 1.5 0 2.6-0.3 2.8-0.5 2-1 1.5-1 0.7-3 1.2-1.2 0.9 0.1 1.1 0.4 1.2-0.1 1.4-4.4 6.8-1.3 1.4-2.1 1.5-1.2 1.5-1.8 4.2-2 3.1-1.8 0.7-4.8-1-3.4 0.6-2.3 1.9-3.6 5.4-5.6 5.4-2.6 1.4-1.6 0.6-4.9 0.8-1 0.8-1.1 2.3-4.3 4.5-2 4.2-3.4 9.5-4.1 6.2-5.4 5.5-6.2 3.9-6.7 1.6-10.4 0.1-3.3 0.6-2.9 1-1.2 1.3-0.2 1.8 1 5.4 0.1 2.3-0.4 2.2-1.2 2.1-2 1.9-6 4.1-2.4 1-2.3-0.1-6.3-1.7-9.1-0.2-5.2-2.4-2.5-0.5-4.8 0.2-9 2.4-1.5 0.1-3-0.4-1.5 0-9.3 2.7-3.3 0.1-14-3.2-4.3-2.6-4.5-2-6 0.8-2.7 1.5-5 3.5-6.9 3.2-2.2 1.7-0.3 0.3-0.6-1.2-1.1-3.8-1-1.3-1.6-1.1-1.3-1.5-1.5-3.3-1-4.4-0.6-4.4-0.1-3.6 2.4-8 0.1-2.8-0.4-1.7-1.8-2.5-0.6-1.4-0.4-3.1 0.4-3.4 1.3-6.4 0.5-1.5 3.1-2.3 1.5-1.9 3.2-5.9 6.1-7.9 2.5-4.2 1.9-4.6 4.6-6.5 0.4-1.9-4-7.1-0.3-2.2 0.2-8.5-0.9-10.3-2.9-7.1 0-0.4-1.2-1.4-0.6 0-1.1 0.5-1.4 0.5 0-1.1 1.2-2.3-2.3-7.8-1-2.1-1.1-0.9-2.7-1.4-0.9-1.2 0-1.2 0.9-2.6-0.1-1.3-0.8-0.7-1.2-0.2-1.1-0.4-0.4-1.3 0.6-0.8 2.3-1.5 0.7-1.1-0.9-3.1-4.7-4.3 0.2-3.3 0.7-1.9 3.1-2-1.4-1.2-0.9 0-1 0.6-0.9 0.4-1.1-0.5-0.1-1.2 0.6-1.4 0.1-1-1.6 0.2-0.4-2.3-0.6-1.1-3.1-1.4-1.8-1.2-0.6-1.3-0.7-3.7-0.5-0.9-1.1-1.5-0.4-0.8 0-0.9 0.8-1.4-0.2-1.1-0.7-0.7-1.9-1-0.7-0.7-0.2-0.8-0.2-3.1-2-0.8-2-1.2-1-1.6 0.9-2 0.2-1.7-1.2-2.5-2.9-4.6-3.3-7.3-1.1-1.5-13.8-11.4-8.1-5-1.1-0.3-2.2-0.2-1-0.2-1.2-0.9-2.9-3.2-5.5-4.4-2-3.2-1.8-1.4-0.7-0.9-0.6-1.9 0-20.2 0-20.1 0-20.1 0-20.1-0.1-80.1 0-7.8 2 0 325.7 0.3z" id="BWA2625" name="Kgalagadi" data-id="BWA2625" data-name="Kgalagadi">
 </path>
 <path d="M638.8 137.8l-104 0 0.1 112.5 0.6 0.6 17.5 7.6 0.6 0.7 0.2 1.2-0.8 26.4-0.2 1.4-0.4 1.1-1.2 0.4-68.2 5.7-2.8-0.3-2.2 0-3.8 1.3-2.1 0.2-2.5-1-1.7-1.9-3-4.5-4.1-3.3-1.6-1.7-2.9-5.8-1.2 0-1.5 0.8-2.1-0.8-2.8-3.1-1.1-1.1-1.6-0.8-1 0.1-1 0.6-1.4 0.6-4.1 0.7-1.1 0.6-1.9 1.7-1.1 0.5-1.3 0.3-1 0.5-0.8 0.6-2.5 3 0 0.4 0.2 1.3-0.2 0.6-6.6 1.8-1.2 0.1-1.4-0.5-2.7-1.8-0.5 2.3 0.2 77.8-308.8 0-0.2-71.1 0-14.2-0.1-28.4 0-14.1-0.1-14.2 0-14.1-0.1-14.2 0-14.1-0.1-14.1 0-14.1-0.1-14.1 0-76.7 49.3-2 4.1-0.2 25.2-4.9 18-3.5 9-1.8 35.9-7 9-1.8 17.9-3.5 36-7 9.3-1.8 29.1-2.6 4.1 0.2 1.3 0.7 0.6 0.5 0.2 0.8 0 1.5 0.3 0.8 1.6 0.3 0.3 0.4-0.1 2.6 0.1 0.8 0.3 0.6 1.2 1.7 1.3 2.8 3.2 3.8 0.6 1.1 0.1 0.7-0.2 1.9 0.1 0.6 1.6 0.7 0.9 0.1 1.1-1.1 1.6 1.3 1.5 1.9 0.6 0.9 1.5 0.6 1.4 0.3 1.1 0.5 0.4 1.3 0.6 1.2 1.1 0.9 0.6 1.1-0.9 1.8 3.5 3.8 1 2.3-1.5 2.4 0.9 1.5 1.7 4.8 0.9 4.7 1.3 1.2 1.9-0.1 3.8-1.3 1.2-0.9 2.5-3 2.2-0.4 1.6-1 10-10.9 1.7-0.5 1.2-1.3 1.9-2.9 1.4-1.2 3.1-2.1 1.7-1.6 0.3-3.9 3.7-2.7 1.2 0.1 1 0.6 0.4-0.7 0.5-0.6 1.3-1 3-1.3 0.9-0.6 3-3 0.9-0.5 3.9-0.7 3.6-2.6 5.1-6.3 3.7-1.9 2.1-0.3 2.3 0.3 1.1 0.4 1.9 1 0.9 0.2 1-0.8 3.1-5.4 1.7-1.7 1.6-0.6 3.6 0.2 2.4 0.5 1.3 1.2 1.8 3.5 0.8 0.8 0.7 0.3 0.5 0.7 0.2 1.7 3.6 3.4 1.4-0.3 4.9-0.6 1.1-0.2 0.3-0.7 1.5-1.8 0.3-0.6 0.4-0.2 5.4-6.5 1.6-1.5 3.6-2.3 2.9-3.7 1.4-1 0.9-0.3 1-0.2 0.9-0.3 0.6-1.6 0.7-0.4 2.2-0.5 2.5-2.1 1.8-0.4 2.1-0.2 7.8-2.6 0.7-0.4 0.8-0.8 0.4-0.7 0.5-0.6 1.2-0.2-0.7 1.6 1.1 0.8 0.7 1 0.9 0.4 1.6-0.7 0.9 1.3 1.4-0.2 2.9-1.9 1 2.3 3.3-0.1 3.5-1.4 3.6-3.6 4.2 0.1 7 1.3-4.3 9.6 0 3.1 0.7 2.7 3.1 7.8 4.4 7.5 2.9 3.2 3.6 2.1 3.2 2.6 2.3 4.2 3.4 8.6 3.5 5.7 0.8 2.2 1 4.7 0.5 1.5 1.4 2.3 7 7.5 3.7 2.5 1.4 1.5 5.1 7.3 3 2.7 4.1 2.1 2.7 2.4 1.2 4 0.7 8.2 3.8 8.5 13.3 12 2.9 8.9z" id="BWA2629" name="North-West" data-id="BWA2629" data-name="North-West">
 </path>
 <path d="M638.8 137.8l-0.3 2.4-1.8 4.2-0.3 2.3 0.4 2.7 0.8 2.2 2.6 4.4 3.3 4.3 2.4 5 10.2 29.1 2.7 4 4.2 2.6 4.7 1.3 5.7 0.1 1.2 0.6 1 0.8 0.8 0.8 1.1 1.5 0.3 0.9-0.8 2.4-0.8 1.4-0.7 0.6 1.3 0.8 0.8 0.4 3.3 0.6 2.4 1.3 2.9 4.6 2 1.9 2 0.8 4.2 0.9 2 0.9 4.3 2.8 1.9 1.9 0.9 2.1 0.7 2.6 1.5 1.5 1.9 0.9 4.9 1.4 1.5 0.8 1.2 1.3 1.4 2 1.7 1.7 1.8 1 2.1 0.4 2.5 0 4 0.8 12.1 6.2 3.8 0.7 3.5-0.1 3.5 0.4 3.5 2 1 1.1 1.8 2.6 1.2 1 1.3 0.5 1.1 0 1.1-0.1 1.2 0.1 2.3 0.3 2.2 0.7 1.9 1.2 1.4 2 5.5 14 1.9 13.3-1.7 16.5 0.4 7.6-2.3 6.4-2.2 9.7-1.5 8 0 8.1 1.5 11.3 4.5 6.4 3.8 7.3 4.5 11.3 3.7 10.5 2.3 10.6 3.8 7.2 5.2 6.5 8.3 4.1 7.6 0 9 2.4 6.8-0.8 7.5 0 6 3.2 8 0.7 1.3 1.4 1.5 1 1.7 0.6 6.2 0.4 8 1.6 12.7 0.2 3.9 0.7 4.3 1.5 8.6 4.5 2.3 0.6 1.8-0.4 1.7-0.7 3.7-0.9 1.1-0.6 1.2-0.2 3.4 0.9 3.2 0.3 1.5 0.5 4.1 3.3 4.9 1.6 15.6 7.3 3.2 0.9 6.5 0.3 3.1 0.8 1.9 1.3 4.2 1.3 1.8 1.4 0.3 2.2-1.3 2.7-1.8 2.8-1.2 2.4-0.4 4.9 0.8 4.9 2 4.4 3.3 3.4 3.9 2.1 3.9 0.7 10.1-0.3 0.5 0.4 1.1 1.3 0.6 1 0.8 2.3 0.7 1 8.1 7.1-2 0.7-3-0.3-5.8-1.2-2.8 0.3-2.1 1.4-1.7 1.5-1.9 0.8-12.9 0.7-1 0.4-2.2 3 0 0.6-1.6 0.9-2 2.2-2.5 3.2 0.8 8.1-0.5 1.4-1 1-2.5 4.6-1.9 1.5-4.6-0.6-2.4 0.1-1.1 1.6-0.6 2.2-1.5 1.2-2.1 0.6-2.4 0.4-4.6 1.4-7.7 4.4-3.7 1.3-2.9-0.1-2.1-0.3-1.9 0.4-2.2 2-1.7 0.5-6.8-1.8-8.7 0.7-4.1 1.1-3.9 2.2-1.6 1.4-3.9 4.6-1 0.6-2.6 0.2-1.2 0.4-1 0.6-3.3 4.3-0.6 1.1-0.2 1.5 0.2 1.4 0.4 0.9-0.1 0.9-0.8 1.5-0.9 0.9-1.1 0.4-1.1 0.3-0.9 0.4-0.4 0.7-0.6 1.8-0.4 0.7-1.6 0.7-2.5 0.7-1.9 0.9-0.2 1.3 0.9 2.4-0.5 2.6-1.3 2.3-1.6 1.8-1.5 0.9-2 1.1-2.2 0.8-2.1 0.4-1.2 1.1 0 2.6 0.9 5-1.7 3.2-3.7 2.6-4.4 1.9-4.1 1 0.7 2.1-1.7 0.7-2.3-0.2-1.1-0.2-0.3 0.9 0.3 0.9 0.7 1.4 0.9 1.3-0.5 0.2-1.1 0.8-1.6 4.5-0.6 1.1-1.5 0.8-1.5-0.7-2.9-3.3-4.2 3.5-1.2 0.5-1.5-0.5-1.5-0.8-1.2 0-0.9 3.2-2.1 2.3-0.7 3.1-0.4 0.5-0.7 0.5 0.7 2.4-0.6 2.6-1.6 2.1-2.1 1.4-2.3 0.7-4.5 0.2-1.4 0.6-1 1.1-0.8 1.3-1.1 0.7-1.5-0.8 0.8-1.6-0.8-0.3-1.6 0.6-1.3 0.6-0.3 0.7-1 1.3-1.1 0.7-1.2-3.6-1.5 1.2-2.5 4.1-1.8 1.7-1.8 1.4-4.1 2-4 1.3-1.2 1.3 1.5 2.3-1 0.4-1 0.1-0.8-0.5-0.8-0.9-0.3 0.7-0.8 1-0.4 0.7-0.9-1-1.2-0.5-1.1 0.2-0.5 0.9 0.5 1.4 0.9 0.8 0.6 0.8-0.5 1.3-1.3-0.8-1.2 0.2-1 0.8-0.9 1.4 0.8 0-2 1.4-0.6 0.7-0.3 1.1-1.5-0.8 0.2 2.3 0.6 2.1 0.1 1.6-1.6 1.2-1.9-0.1-0.8-1.2-0.6-1.4-1.1-0.5-1 0.8-1.9 4.8-2.1 3.7-0.5 2.2 0.3 1.1-2.7 0.4-1.3 1.2-2.5 3.4-1.5-2.5-0.8 2.2-1.1 1.8-2.4 3.3-0.4 0.8-0.7 1.8-0.4 0.5-0.8 0.2-2-0.3-0.8 0.1-2.7 2.7-5 6.2-0.4 0.9-0.8 0.7-74.3-44.4-14.3-20.4-4.8-4.8-9.4-3.1-1.4-0.6-0.8-0.8-31.2-41.6-165.9-224.3-0.2-77.8 0.5-2.3 2.7 1.8 1.4 0.5 1.2-0.1 6.6-1.8 0.2-0.6-0.2-1.3 0-0.4 2.5-3 0.8-0.6 1-0.5 1.3-0.3 1.1-0.5 1.9-1.7 1.1-0.6 4.1-0.7 1.4-0.6 1-0.6 1-0.1 1.6 0.8 1.1 1.1 2.8 3.1 2.1 0.8 1.5-0.8 1.2 0 2.9 5.8 1.6 1.7 4.1 3.3 3 4.5 1.7 1.9 2.5 1 2.1-0.2 3.8-1.3 2.2 0 2.8 0.3 68.2-5.7 1.2-0.4 0.4-1.1 0.2-1.4 0.8-26.4-0.2-1.2-0.6-0.7-17.5-7.6-0.6-0.6-0.1-112.5 104 0z m18.7 175.2l-1.8-0.3-0.6 2.7 2.8 1.3 5.7 1.7 5.5 0.5 0.4-4.5-2.4-0.9-2.5 0.4-1.6 0.4-5.5-1.3z m185.3 161.6l-0.3-0.4-1-0.6 0.3-1.9-0.4-1.2-0.4-0.5-1.1 0.4-0.6 1.1 0 0.8-0.9 0.9 0 1.1-1 0.5-0.7 0.1-0.8-0.3-1.1 0.6 0 0.5 0.4 1-0.4 0.6 0 0.9 0.3 0.6 1.1-0.2 0.9-0.7 0.8 0.1 0.7 0.7 0.9-0.3 0.8-0.6 1.5-0.5 0.4-1.1 0.1-1 0.5-0.6z" id="BWA2630" name="Central" data-id="BWA2630" data-name="Central">
 </path>
 <path d="M745 681.2l0.2 1-3 5.5 0.7 2.4-0.4 3.1-7.5 31-0.2 5.2-2.1 10.3-1.1 2-1.7 1.5-2.2 1.3-9.4 3.1-2.3 1.2-0.9 1.8-6.5 6.8-6.9 4.5-2.9 2.4-2.7 3.5-3.1 8.3-0.8 1.4-6.9 7.2-2.4-0.4-1.9-0.2-2.1-0.4-2-0.2-5 0.7-12 3.8-1-1.6-4.7-4.6-8.4-5.8-8.7-6-1.8-1.2-2.1-1-1.2-0.3-1-0.9-0.7-2.3-0.2-3.3 1.5-6.6 1.4-3.4 1.4-2.6 3.2-17.1 6.8-71.1 74.3 44.4 0.8-0.7 0.4-0.9 5-6.2 2.7-2.7 0.8-0.1 2 0.3 0.8-0.2 0.4-0.5 0.7-1.8 0.4-0.8 2.4-3.3 1.1-1.8 0.8-2.2 1.5 2.5 2.5-3.4 1.3-1.2 2.7-0.4z" id="BWA2646" name="Kgatleng" data-id="BWA2646" data-name="Kgatleng">
 </path>
 <path d="M644.4 660.2l-6.8 71.1-3.2 17.1-1.4 2.6-1.4 3.4-1.5 6.6 0.2 3.3 0.7 2.3 1 0.9 1.2 0.3 2.1 1 1.8 1.2-12.4 13.5-15.8 17.2-9-0.4-1.9-0.4-12.5-7.1-69.6-22.3-18.5-5.9-168.9-54-0.4-41.5-1.9-8.5-6 0-1.1-0.1-0.7-0.3-0.2-0.9-0.2-11.2 0.4-4.3 0.9-1 1.1-0.4 4.8 0.1 2.2-1.9 1.5-10 232.6 0.8 21-42.5 31.2 41.6 0.8 0.8 1.4 0.6 9.4 3.1 4.8 4.8 14.3 20.4z" id="BWA2647" name="Kweneng" data-id="BWA2647" data-name="Kweneng">
 </path>
 <path d="M659.9 788l-16.2 5.1-3.5 2.6-1.6 0.8-5.4-0.2-3.5 1.2-0.9 0.2-0.6 0.5-0.1 2.9 1.1 8.6-0.1 4.7-1.1 3.8-3.1 7.1-0.2 4.4-3.2 5.7-2.4 7.9-9.3 21-3.4 15.3-1.1 2.8-11.2-4.7-0.5-1.2-0.1-1.4 12.2-42.8 0.3-1.6 0-1.6-1-0.4-1.4-0.2-2.9 0.2-0.9-0.1-0.3-0.7 3.4-10.3 0.6-3.1-0.1-1.5 0.9-1 1.4-1.7 1.2-1.3 2-8.3 15.8-17.2 0.5 3.3 0.5 4.2 1.4 2.6 3.6 0.9 2.5-0.8 4.5-0.3 2.7-3.8 0-2.9 5.3-8 0.1-2.7 8.4 5.8 4.7 4.6 1 1.6z m-51.1 60.1l-0.5-0.1-0.4 1.1-0.6 2.1-0.1 1.8-0.3 1.3-0.9 1.3 0 0.3 1.1-0.1 1.1-0.4 0.8 0.5 1.2-0.6 0.7-1.1-0.1-1.2-0.9 0.1-0.3-0.7 0.8-0.6-0.2-0.6 0.7-0.7-0.5-0.6-0.2-0.8-1.2 0.2-0.2-1.2z" id="BWA2648" name="South-East" data-id="BWA2648" data-name="South-East">
 </path>
 <path d="M497.4 764.6l-0.2 23.3 19.5-1-0.8-16.4 69.6 22.3 12.5 7.1 1.9 0.4 9 0.4-2 8.3-1.2 1.3-1.4 1.7-0.9 1 0.1 1.5-0.6 3.1-3.4 10.3 0.3 0.7 0.9 0.1 2.9-0.2 1.4 0.2 1 0.4 0 1.6-0.3 1.6-12.2 42.8 0.1 1.4 0.5 1.2 11.2 4.7-4.7 11.3-2.3 7.1-13.7 10.9-7.7 3.8-22.2 2.3-4.5-0.8-4.8-1.5-4.1-0.7-4.1 0.6-4.9 2.4-6.3 4.9-2.1 0.8-6.4 1.7-3.2 0.4-3-0.8-3.4-0.8-7.8 0.9-3.8-0.8-5.6-3.9-8.1-3-1.5-10.1-2.8-2.2-4.9-0.4-1.7-0.5-12.3-12.5-3.5-4.6-1.7-56.1-0.5-2.5-1.1-2-1.3-1.8-12.4-12.9-1.6-1.3-1.7-0.5-1.6-0.2-102.2 0.6-1.5-0.1-1.5-0.4-0.6-1.2-0.2-1.5 0.5-96.4 168.9 54z" id="BWA2649" name="Southern" data-id="BWA2649" data-name="Southern">
 </path>
 <path d="M854.2 427.7l-8-0.7-6-3.2-7.5 0-6.8 0.8-9-2.4-7.6 0-8.3-4.1-5.2-6.5-3.8-7.2-2.3-10.6-3.7-10.5-4.5-11.3-3.8-7.3-4.5-6.4-1.5-11.3 0-8.1 1.5-8 2.2-9.7 2.3-6.4-0.4-7.6 4-2.1 3.7-0.5 12.1 0 8.5 1.1 6.1-1.1 3.7 1.7 4.3 0.1 1.9 0.8 1.5 1.5 0.8 2-0.3 4.5-1.3 4-0.9 4.1 2.7 9 0.2 4.6-1.6 9.2-0.6 1.3-0.8 1-0.6 1-0.1 1.5 0 1.3-0.2 2.6 0 1.1 0.8 6.4-0.2 2.4-1.3 6.1 0 1.9 0.9 2.2 3.7 5.1 1.6 1.7 7.4 5.5 3.1 3.9 2.8 4.3 3.8 4.7 1 1.6 0.2 0.9 0 1.8 0.1 0.8 0.7 1.1 1.8 1.9 3.1 6.5 0.3 1.2-0.3 0.9-0.9 1.4-0.2 1.1 1.1 0.4 0.5 0.7-0.6 1.5 0.4 1.1 1.2 0 0.7 0.4 0.5 1 1 2.3 0.6 1z m-46.1-40.4l-0.1-1.3 0.1-1.4-0.4-0.9-1.6-0.8-0.5-1.6 0.7-1.6 1.1-1 0.1-0.9-0.6-0.9-0.9-0.1-3.3 1.8-1.2 0.3-1.5 2.2-1.3 1-1.1 0.3 0.1 1.3-0.6 0.6-0.7 0.4-0.5 1.2 0 1.4 0.4 0.9 1.8 0.5 2.4 0 0.6-1.4 1.6 0.4 2.9 1.5 0.5 0.1 1.8-0.5 0.4-0.7-0.2-0.8z" id="BWA4853" name="North-East" data-id="BWA4853" data-name="North-East">
 </path>
 <path d="M645.8 776l-0.1 2.7-5.3 8 0 2.9-2.7 3.8-4.5 0.3-2.5 0.8-3.6-0.9-1.4-2.6-0.5-4.2-0.5-3.3 12.4-13.5 8.7 6z" id="BWA5501" name="Gaborone" data-id="BWA5501" data-name="Gaborone">
 </path>
 <path d="M808.1 387.3l0.2 0.8-0.4 0.7-1.8 0.5-0.5-0.1-2.9-1.5-1.6-0.4-0.6 1.4-2.4 0-1.8-0.5-0.4-0.9 0-1.4 0.5-1.2 0.7-0.4 0.6-0.6-0.1-1.3 1.1-0.3 1.3-1 1.5-2.2 1.2-0.3 3.3-1.8 0.9 0.1 0.6 0.9-0.1 0.9-1.1 1-0.7 1.6 0.5 1.6 1.6 0.8 0.4 0.9-0.1 1.4 0.1 1.3z" id="BWA5502" name="Francistown" data-id="BWA5502" data-name="Francistown">
 </path>
 <path d="M608.8 848.1l0.2 1.2 1.2-0.2 0.2 0.8 0.5 0.6-0.7 0.7 0.2 0.6-0.8 0.6 0.3 0.7 0.9-0.1 0.1 1.2-0.7 1.1-1.2 0.6-0.8-0.5-1.1 0.4-1.1 0.1 0-0.3 0.9-1.3 0.3-1.3 0.1-1.8 0.6-2.1 0.4-1.1 0.5 0.1z" id="BWA5503" name="Lobatse" data-id="BWA5503" data-name="Lobatse">
 </path>
 <path d="M842.8 474.6l-0.5 0.6-0.1 1-0.4 1.1-1.5 0.5-0.8 0.6-0.9 0.3-0.7-0.7-0.8-0.1-0.9 0.7-1.1 0.2-0.3-0.6 0-0.9 0.4-0.6-0.4-1 0-0.5 1.1-0.6 0.8 0.3 0.7-0.1 1-0.5 0-1.1 0.9-0.9 0-0.8 0.6-1.1 1.1-0.4 0.4 0.5 0.4 1.2-0.3 1.9 1 0.6 0.3 0.4z" id="BWA5504" name="Selebi-Phikwe" data-id="BWA5504" data-name="Selebi-Phikwe">
 </path>
 <path d="M657.5 313l5.5 1.3 1.6-0.4 2.5-0.4 2.4 0.9-0.4 4.5-5.5-0.5-5.7-1.7-2.8-1.3 0.6-2.7 1.8 0.3z" id="BWA5505" name="Sowa" data-id="BWA5505" data-name="Sowa">
 </path>
 <path d="M515.9 770.5l0.8 16.4-19.5 1 0.2-23.3 18.5 5.9z" id="BWA5506" name="Jwaneng" data-id="BWA5506" data-name="Jwaneng">
 </path>
 <circle cx="707.5" cy="681" id="0">
 </circle>
 <circle cx="330.3" cy="729.8" id="1">
 </circle>
 <circle cx="887.3" cy="472.7" id="2">
 </circle>
</svg>