<?xml version="1.0"?>
<!--
************* Copyright (c) 2017 Pareto Softare, LLC DBA Simplemaps.com *******************		
************* Free for Commercial Use, full terms at  http://simplemaps.com/resources/svg-license ************
************* Attribution is appreciated! http://simplemaps.com ***************************
-->
<svg baseprofile="tiny" fill="#7c7c7c" height="872" stroke="#ffffff" stroke-linecap="round" stroke-linejoin="round" stroke-width="2" version="1.2" viewbox="0 0 1000 872" width="1000" xmlns="http://www.w3.org/2000/svg">
 <path d="M336.4 507l-0.2 1.4-0.2 6.5 0.2 0.8 0.4 0.7 1 1.2 0.5 1 0.5 1.6 0.1 1.1 0 3.1-0.2 1.3-0.7 0.9-1 0.6-0.6 0.1-4.3 0.1-0.6 0.3-1.2 0.9-0.9 0.9-1.4 1.9-1.8 3.2-0.8 1.8-0.3 1.2 0 0.8 0.2 0.7 0.6 0.6 1.3 0.7 0.9 0.2 0.8 0 1.9-0.3 0.5 0.2 0.4 0.5 0.1 1.6 0.2 0.7 1.6 1.1 0.5 0.5 0.2 1 0.2 2.1 0.3 0.7 0.5 0.6 1 0.5 0.9 0.3 7.2 0.4 0.7 0.1 0.6 0.4 3.5 4.2 0.4 0.7 1.5 3.5 0.2 1.3-0.1 0.9-1 0.4-0.9 0.1-4.3-0.5-1.3 0.2-1.1 0.5-0.9 0.7-0.6 1-0.6 1.1-0.7 1.7-0.9 2.6-0.6 1.1-0.4 0.3-1.4 0.8-0.3 0.5 0 0.9 0.2 1.2 0.9 2 4.5 7.6 0.4 1.1 0.3 2 0.2 0.8 0.8 2.1-0.1 0.7-0.3 0.5-2.7 2.1-0.6 0.9 0 0.8 0.4 1 3 4.5 0.9 0.5 0.8-0.3 0.9-0.9 1-1.3 0.8-0.8 1-0.5 3.5 0 0.6-0.4 0.4-1.3 0.3-2.3 0.3-1.3 0.4-0.5 0.5-0.3 3-0.6 0.9 0.2 1.2 0.5 1.9 1.5 2.7 1.2 0.5 0.6 0.3 1.1 0.1 2.4 0.2 0.6 0.4 0.6 0.6 0.5 1.2 0.5 1.6 0.1 3.3-1.2 0.6-0.1 0.7 0.4 0.6 0.8 2.6 5 2.3 3.7 0.5 0.6 1 0.6 10.6 3.3 3.6 2.1 1.2 0.5 0.5 0 0.5-0.2 0.8-0.8 1.3-1.9 0.3-0.4 0.5-0.2 0.5 0.2 3.3 2.3 0.7 1 0 1-0.2 0.7-0.6 1.1 0 0.7 0.2 0.9 3.4 5.5 0.8 0.8 0.8 0.5 3.6 0.7 5.5 0 0.6 0.2 0.6 0.4 1 1.6 1.2 2 0.3 1.7-0.1 1.7-0.3 1.8-0.3 0.5-1 0.6-12.4 0.6-0.6 0.2-0.6 0.9-0.8 2.6 0 0.8 0.2 0.7 2.1 1.9 0.5 1.1-0.1 0.8-0.4 0.5-2 2 0.6 1.3 1.4 2 4.5 4.7 4.2 3.3 0.5 0.7 0.6 1.6 0.3 1 0 0.9-0.1 0.6-0.5 1.3-0.3 0.5-1.8 2.1-0.2 0.5-0.1 0.5 1.6 1.2 13.4 8.3 0.6 1.3 0 1.1 0.2 1.2 0.7 1.8 0.6 0.7 0.7 0.3 5.5 0.2 1.2 0.5 0.8 0.8 0.4 0.8 1.1 3.2 0.6 0.9 0.7 0.6 2.8 1.3 10.4 6.5 0.8 0.7 0.6 0.9 0.4 1 0 1.3-0.4 1.3-1.1 1.9-0.5 1.2-0.1 0.8 0.1 0.8 0.2 1.5 0.1 1.4-0.2 4.5 0.2 2.1 0.3 8.5 0.1 1.2 0.5 0.9 2 1.9 1.4 1.7 2.6 2.2 0.9 1.3 0.1 0.7-0.1 0.9-0.6 1.7-0.9 1.5-6.2 8.1-0.2 0.7 0 0.9 0.2 1.4 0.7 2.2 0 1.9-0.6 3.1-0.8 2.9-0.5 1.1-0.9 1.4-0.2 1 0.4 0.7 0.8 0.9 3.2 3.1 0.6 0.9 0.5 0.9 0.2 1.1 0.1 1.5-0.1 5-0.3 1.8-0.9 2.5-0.5 1.2-0.5 0.8-0.5 0.3-1.3 0.1-1 2.7 0.2 12.9 0.1 1-3.7-0.1-1.9 1-2.9 3.2-2.3 1.2-2.2 0.1-6.2-1-4.1 1.3-2.3 0.3-1.4-1.4 0.6-2.8 1.5-3.6 0.3-2.9-3.1-0.8-2.5 0.3-2.1-0.2-1.5-1.5-0.8-3.3 0-4.5 0.3-3.6-0.7-2.6-2.8-1.7-4.3-0.9-9.2-0.4-10.5 3.7-6.9-1.1-19.8-8.8-23-0.7-1.4-0.8-1.3-1.8-0.3-1.6 0.3-1.6 0-1.2-1.2-0.6-24.3-1.1-3.1-1.3-6.8-6.1-3.1-0.7-7.3 0.2-22.3-4.2-8.8 1.8-34.6-0.6-17.6-4.8-4.8 0.1-4.7 1.6-9.4 4.9-29.3 4.8-2.2-0.1-6.4-1.5-26 2-2.2 0.8-2.3 2.4-3.8 5.7-1.6 3.3-2.5 11-2.9 4.1-11.9 8.2-15.6 14.1-4.2 0.7-2.9-2.8-3-3.6-4.1-1.7-2.6-0.2-7.4-2.2-2.4-0.1-10.2 2.7-1.3 0.7-1.1 1.1-1.2 2.2-0.1 1.4 0.6 1.3 2.8 8.1 0.3 1.6-0.5 2.6-0.9 0.5-1-0.8-0.4-2.2-1.4-0.9-1.7-0.6-1.3-2.6 1.5 0-2.3-4-0.9-2.3-0.4-2.4 0.5-4.6-0.1-1.6-1.2-1.3 0-1.3 1-0.1 0.6-0.4 1.3-1.7-0.5-0.7-0.6-1.2-0.4-1 0.5-0.5 0.9-0.5-0.2-1-0.7-1.2-0.4-0.9 0.6-3.9 0.4-1.8 0.4-1.2 1.8-2 2.2-1.4 2-2 1.2-3.9-2-2.6-1.6-3.1 1.2-1.4 0.4-3.7 1.3-0.7-0.2-0.9-0.6-0.2 0.7-1.9 0.1-5.5 0.7-3.1 1.9-4.7 1.4-2.2 1.7-1.2-1.2-2.9-1.5-6.5-0.9-2.1-0.1-1.9-0.4-2-1.3-0.9-1-0.4-0.6-1.1-0.5-1.4-0.7-1.3-2-1.2-4.9 0.2-2.1-0.7-2.9-5.8 0.4-0.6 0.3-2-0.4-1.3-1.7 1.7-0.7-0.8-1-0.9-0.4-0.8-1.5 1.8-1-0.2-0.9-1-1.3-0.6-1.5 0.6-0.3-0.3 0.7-1.5 0-1.1-2.1-0.2-6.5-2.5-1.4-1.4-1.6 0.7-7.5-2.1-2.4-1.5 0.8-3-0.3-2.3-1.1-1.6-1.6-1.3-0.3-0.1 4.8-10 2-3 4.2-5.1 12.7-19.6 9.2-7.7 9.2-5.5 17.5-4.9 13.9-9.5 4.1-5.2 1.5-7.4-0.3-5.1 1.9-0.4 13.9 1.1 1.1-0.4 1-0.6 3.2-2.7 2.3-1.5 1-0.1 0.7 0.1 0.4 0.4 0.8 1.5 0.6 1 0.8 0.5 1.3 0.5 4.4 0.8 1.1-0.1 4.4-1.6 0.8 0 0.6 0.1 0.2 0.3 0.2 1.1 0.2 0.6 0.5 0.6 0.5 0.1 0.5-0.2 1.6-1.1 2.6-0.8 1-0.1 0.8 0.2 0.5 0.3 4.7 3.3 0.8 0.9 0.6 0.4 2.3 1.2 2.7 0.5 2.5-0.2 2.4-0.7 1.2-0.8 0.2-0.4 0.3-0.9 0.1-0.6-0.1-1.4-0.3-1.3-0.4-1.1-0.9-1.4-0.1-1.1 0.8-1.5 0.8-2.5 0.6-0.9 2.3-1.7 0.2-0.5 0.1-1.3-0.5-1.1-1.1-1.2-0.3-0.4 0-0.5 0.2-0.5 2.2-2.5 0.3-0.5 0.7-0.7 1-0.8 2.5-1.3 1-0.8 0.7-0.7 0.2-0.6-0.1-1.3-0.4-0.4-0.5-0.3-2.9-0.4-0.9-0.6-0.2-0.5 0.1-0.5 0.8-0.9 5.1-2.9 1.4-0.5 1-0.1 6.5 3.3 5.6 1.3 3.4 0 1.1-0.3 0.7-0.4 0.6-1 0.7-2 0.5-0.8 0.9-1 0.8-0.3 0.8-0.1 2.7 0.6 1.1 0.5 0.9 0.8 0.7 0.8 0.9 1.5 0.4 1.1 0.4 1.8 0 1.3-0.4 1.9 0 0.6 0.5 0.7 4.4 1.8 1.3 0.2 0.7-0.2 0.5-0.4 1.1-2.3 0.4-0.6 0.7-0.7 0.6-0.1 0.6 0.1 0.4 0.3 0.2 0.4-0.1 0.6-1.4 5.1-0.2 1.3 0 0.6 0.6 0.9 0.1 1.2-0.2 0.7-0.2 1.3 0.4 0.6 0.7 0.5 1.3 0.4 0.8-0.1 0.6-0.4 0.9-0.8 4.2-1.6 1.2-0.2 1.2 0.1 1.6 0.4 0.9 0.1 0.8-0.1 0.5-0.3 0.3-0.4 1.7-1.4 2.3-0.9 1.3-0.2 0.9 0.2 0.2 0.5 0.2 1.3 0.6 1 0.9 0.6 1.7 0.7 1.6 0.4 0.8-0.1 0.7-0.2 0.8-0.7 0.3-0.5 0.2-1.3-0.2-0.6-0.3-0.5-1.7-0.7-0.4-0.4-0.3-0.5-0.3-1.2 0-0.6 0.3-0.5 1.2-1.1 0.3-0.4-0.3-1-1.6-1.6-0.6-1-0.2-1.3 0.3-0.8 0.6-0.9 1.4-1 0.9-0.1 0.8 0.2 0.9 0.3 2.1 0.2 1.7-0.4 2.6-1.2 0.9-0.9 0.4-0.8 0.1-1.3 0.6-1.1 1.1-1.2 0.7-1 1.2-2.1 1.1-1.6 1-1.1 5.4-3.2 0.7-0.9 0.3-0.5 2.6-7.5 3.3-6.4 0.9-2.6 0.2-1.4-0.2-1.3-0.2-0.5-0.8-1.6-1.1-1.3-1-0.6-2.1-0.4-0.5-0.4-0.1-0.5 0-0.7 0.7-1.2 2.2-2 1.7-1.3 0.9-0.7 0.5-0.8 0.1-0.6-0.1-1.3-0.7-0.9-2-1.3-0.6-0.9-0.1-0.7 0.7-2.8 0.3-0.8 0.6-1 0.7-0.4 3.1-0.3 0.7-0.4 0.5-0.4 0.4-1.3 0.6-5.2 0.2-1.2 0.5-1.5 3-5.2 1.1-2.5 0.6-0.9 1.2-1.5 0.9-0.6 0.7-0.3 1.4 0.2 1.4 0.4 1.1 0 3.3-0.8 1 0 1.1 0.4 1.4 1.1 0.7 0.1 1 0 1.7-0.4 1.1-0.1 0.8 0.1 0.5 0.4 1.1 1.3 1 0.5 14.8 1.3 2.2-0.6 2.3-0.2 5.6 1.4 8.9 0.5 2.6 0.8 2.2 1.1 0.6 0.2 2.7-0.2 8.1-2.2z" id="BLR2338" name="Brest" data-id="BLR2338" data-name="Brest">
 </path>
 <path d="M857.1 549.7l0.4 1.8 0.2 1.9-0.3 1.7-1 1.2-2.6 0.5-1.1 0.5-5.2 8.3-2.3 2.5 7.9 6.4 1.7 3.4 2.8 8.5 2.3 3.6 3.2 3.1 3.4 2.2 3.1 1.1 2.5 0.4 0.8 1.3 0.3 2.2 0.9 2.9 1.5 2.1 1.3 0.8 1.1 1.4 0.9 3.3 0 7.3-2.3 3.4-7 4 1.1 2.7 4.7 6.3 3.1 6.9 1.4 2.1 3.7 3.3 1.4 1.9-0.4 1.7-1.4 0.3-3.8-0.9-1.6 0.1 0.5 0.6 1.2 2.2-1.8 0.8-0.8 1.4 0.2 1.6 1.3 1.7 2.4 1.7 0.1 4.2-0.6 5.1 0 4.4 0.7 1.9 1.1 1.4 0.8 1.9 0.1 3.1-0.7 2.3-1.1 2.1-1.3 1.7-1.3 1.2 3.2 4.6 1.7 2 1.8 1.4 1.8 0.6 3.7 0.7 1.6 1-1.1 1.4-0.7 2.1-0.2 2.5 0.3 2.4 0.7 1.8 1 1 5.2 3.7 1.4 2.4 0.5 3.3-0.3 5.1-11.9 0.6-18.3-3.6-9.6 0.1-8.2 3.4-2.1 2.8-1.6 3.4-1.8 2.8-2.4 1.1-2.5-1-4.8-4.1-2.5-1.5-4.1-0.5-14.3 0.9-2.6 0.8-1.6 1.8 0.6 2.9-0.5 0.8-0.5 1.7-0.4 0.8 3.1 0.5 1 2.2-1 2.2-2.7 0.2-0.7-1-0.6-0.2-0.6 0.2-0.8 0.7-0.9 1.1-0.2 1 0.1 1.4-1.1 1.5-1.2 1.3-1.2 1-1.5 0.9-3 1.2 0 0.6 0.2 1 0.6 0.8 0 1.1-1.4 2-0.9 1-1 0.5-3.1-0.3-0.8 0.3-0.4 1-0.1 1.6-0.3 1.5-2.1 1.1-0.7 1.1-0.5 1.1-0.5 0.6-0.3 0.5-2.3 3-0.7 1.3-0.4 0.5 0 0.6 0.8 1.6 0.1 2.6-1.9 2-2.3 1.5-1.3 1.5 2.1 1 0.8 0.1 0 1.3-1.1 1.2-0.4 2-0.1 2.1-0.6 1.6-1.2 0.5-3.2 0.1-1.3 0.4 0.6 2.3-1.2 3.6 0.6 2.3-0.7 0.7-0.9 1.3-0.5 0.4 0.3 0.7 0.4 1.6-1.4 0.6-3 2.7 0 1.3 2.1 1.7 0.9 0.6 0 1-0.9 0.3-1.3 1 0 1 1.2 1.6 3.5 1 1.7 0.9-0.8 1.8-0.5 0.8-0.9 0.8 1.3 1 1.1 1.1 0.4 1.2-0.6 1.4 0.5 2 0.9 1.3 1.1 0.7 1.1 0.5 0 1.2-1.4-0.2-1.2 0.4-0.8 1.1-0.2 2.2 0.4 2 0.8 0.4 1.1 0 1.3 1 0.5 1.1 1 4.7 0.5 0.9 0.7 1 0.2 0.9-1.4 0.5 0.6 4.8-2.9 3-3.2 2.4-0.3 2.4-1.9 3.3-0.2 0.3-0.2 4-0.5 1.1-1.1 0.3-0.8-1.6-1.2-1.3-1.3-0.9-1.4-0.3-1.5 0.1-1.6-0.5-2.3-3.5-1.6-1.5-1.5-0.3-3.1 0-1.6-0.6-1.4-1.3-3.2-4.1-0.8-1.8 0.3-0.2 0.9-3.5 0.2-1.3 0-1.7-0.1-1.4-0.3-1.1-0.6-1.1-1.4-1.3-5.2-2.6-1.5-1.5-3.9-5.4-3-2.2-3-0.8-14.6 0.4-2.4 0.7-6.3 3.3-1.3 0.1-1.7-1.1-1.1-0.1-1.3 0.9-1.7 3.3-1.1 1.1-1.9 0.5-9.5-1.6-1.3-1.8-0.9-2.6-1.7-3-1.8-1.3-2.3-0.3-2.4 0.4-2.1 0.9-2.1 1.9-1.5 2.2-1.6 1.9-2.4 1-2.7 0.3-1.4 0.8-1.1 1.9-1.5 4.1-1.5 2.7-2.1 0.1-4.6-1.9-2.4 0.8-4.1 3.5-2.1 0.8-2.4-1.4-1.3-3-0.9-3.6-1.2-3.3-2.1-2.5-1.8-1.3-0.7-1.9 1-4.3-0.4-4.4-1.2-2.8-3.5-5.3-2.2-6.1-1.3-2.1-2.5-1.6-4.2-1-2.1 0.1-2.1 0.8-2.1 2-2.4 5.3-2 2.2-2.8 1-6.4 0.1-3.1 0.7-3.3 1.8-3.3 2.6-3 3.6-2 4.6-0.3 2.8 0.2 6.4-0.5 2.5-1.9 2.1-1.1-1.7-0.7-3.1-0.8-2.1-1.3-0.1-1.4 0.9-1.5 0.6-1.7-0.8-1-1.8-0.7-2.3-1.6-9.4-0.3-3.4-0.9-2.3-2.7-1.1-9.4-2-2.8 0-2.7 1-5.2 3.5-2.7 2.6-1.4 0.7-1.3-0.5-0.6-1.3-1.1-4.7-0.7-1.7-1.3-1.5-3-1.9-1.3-1.2-0.9-1.9-0.1-1.6 0.1-1.4-0.4-1.7-1.5-1.7-2.2-0.2-2.3 1.2-2.2 2-2.1 3.1-3.4 6.6-2.5 2.2-2 0.8-10.2 0-1.9-0.5-2-1.1-6.3-6.9-2.2-1.2-2.4 0.4-2 1.8-1.3 2.9-0.7 3.3 0.1 2.2 0.2 1.8 0.1 1.8-0.5 2.3-0.5 1-4.9 6.7-1.1 1-1.7 0.3-1.4-0.7-1.7-1.3-1.4-1.6-0.7-1.3 3.5-8.5 0.8-4.2-1.3-3.5-1.7-1-5.8-0.1-11.3-4.6-0.1-1-0.2-12.9 1-2.7 1.3-0.1 0.5-0.3 0.5-0.8 0.5-1.2 0.9-2.5 0.3-1.8 0.1-5-0.1-1.5-0.2-1.1-0.5-0.9-0.6-0.9-3.2-3.1-0.8-0.9-0.4-0.7 0.2-1 0.9-1.4 0.5-1.1 0.8-2.9 0.6-3.1 0-1.9-0.7-2.2-0.2-1.4 0-0.9 0.2-0.7 6.2-8.1 0.9-1.5 0.6-1.7 0.1-0.9-0.1-0.7-0.9-1.3-2.6-2.2-1.4-1.7-2-1.9-0.5-0.9-0.1-1.2-0.3-8.5-0.2-2.1 0.2-4.5-0.1-1.4-0.2-1.5-0.1-0.8 0.1-0.8 0.5-1.2 1.1-1.9 0.4-1.3 0-1.3-0.4-1-0.6-0.9-0.8-0.7-10.4-6.5-2.8-1.3-0.7-0.6-0.6-0.9-1.1-3.2-0.4-0.8-0.8-0.8-1.2-0.5-5.5-0.2-0.7-0.3-0.6-0.7-0.7-1.8-0.2-1.2 0-1.1-0.6-1.3 6.6-9.5 1.2-2.9-0.6-1.6-0.4-1.2-0.2-1.2-0.1-1.6 0.1-1.2 0.4-0.6 0.6-0.3 2.9-0.2 0.7-0.2 0.4-0.6 0.6-2.2 0.8-2.4 0.7-0.9 0.7-0.4 2.8 0.1 0.4 0.3 0.3 0.5 0.4 1.7 0.4 0.2 7.2-6.1 0.9-0.3 0.6 0.1 1.5 3 0.7 1.6 0.7 0.7 0.2-0.4 0.7-1.8 0.8-1.5 0.7-0.6 0.8-0.2 0.6 0.2 0.3 0.5 0.2 1.3-0.3 4 0 1.9 0.1 1.3 0.3 0.5 0.6 0.9 3.4 2.7 5.4 2.9 1.3 0.3 8.2-0.2 3.4 0.7 11.6-1.1 1.4-0.6 0.3-0.5 0.6-0.4 1.3-0.7 0.4-0.4 0.3-0.5 0.1-1.3-0.3-2.6-0.3-1.1-1-1.9 0.1-0.9 0.5-0.8 1.2-1 0.8-0.4 0.8-0.2 9 1.9 1.1 0.6 0.8 0.7 0.6 1.7 0.9 2.1 0.9 1.4 0.8 0.4 1.2 0.2 21.6-2.5 6.7-5.8 0.5-1.1 0-1.9-0.7-5.1-0.2-3.4 0.2-5.7 0.2-2.3 0.1-0.8 0.6-0.8 1-0.9 2.3-1.3 0.9-0.8 0.4-0.7-0.3-0.4-0.3-1 1.6-2.1 0.4-0.2 6.6-0.6 5.1 0.8 0.8-0.1 0.7-0.3 1.3-1.3 0.6-0.4 0.8-0.3 1.5 0.1 2.9 0.8 0.7 0 0.7-0.3 0.8-0.7 0.8-0.5 1-0.4 5-0.1 0.8-0.3 0.9-0.9 1-1.2 0.6-0.4 0.9-0.1 2.6 0.1 0.9-0.3 0.7-0.7 0.5-0.7 0.3-0.7 0.1-1.3-0.1-0.5-0.9-0.8-2.6-0.8-0.9-0.6-0.3-0.6 0.1-0.8 0.8-0.7 1.9-1.1 14.7-4.7 0.6-1.1 0.3-1.3 0.1-2.2-0.1-7 0.1-0.7 0.4-0.5 1-0.3 10.4-0.3 0.7-0.3 0.6-1 0.4-1.6 0.4-0.6 0.6-0.5 2.1-1 0.5-0.4 1.4-2 2.4-4.1 0.8-0.9 0.5-0.4 0.9-0.2 1.3-0.1 4.4 0.3 10.2 3.1 0.4 0.3 0 0.9-0.2 1.4 0 0.6 0.3 0.3 0.6 0.1 4-1.7 0.5-0.6 0.3-0.7-0.1-0.6-0.3-0.5-0.8-0.8-0.2-0.4 0.1-0.5 0.3-0.4 0.7-0.3 0.8-0.1 1.5 0.4 0.8 0.4 0.6 0.4 1.3 2.6 0.3 0.4 0.5 0.3 0.8 0 3.9-2.3 0.9-0.7 0.7-1.4 0.5-0.4 0.6-0.3 2.2-0.6 11.1 0.2 1 0.2 0.7 0.3 1.3 1.1 1.2 0.6 0.8 0 0.9-0.2 1.2-0.7 1-1.3 1.3-2.6 0.1-0.9-0.6-0.9-4.3-2.4-1.2-1.1-0.8-0.9-0.8-0.8-3-2-0.4-0.3 0-0.5 0.3-0.5 2.1-2.9 0.5-1.1 0-0.7-0.1-1.3-0.4-1.1-0.4-0.3-1.1-0.3-0.5-0.3-0.2-0.5-0.7-2.4-0.2-1.1 0.4-0.7 3.2-1.5 0.5-0.7 0.1-0.6-0.4-0.4-1.2-1.1 0-0.4 1-0.2 9 0.9 0.5-0.5 0.6-1.1-0.1-0.5-0.4-0.4-1.7-0.9-0.7-0.8 0.3-0.7 0.6-0.6 1.3-0.9 0.6-0.8 0.3-0.8 0.4-2.8-0.4-1.1-1.7-1.6-0.6-0.8 0.5-0.4 1 0 2.1 0.4 1.1 0 0.8-0.4 0.1-0.6 0-0.7-0.4-1.2-1.8-4.2-0.4-1.1-0.5-2.4-0.8-2.3-0.4-1.8-0.1-1.3 0.3-3 0.4-1.4 0.3-0.5 1.7-1.5 1.3-2.1 0.8-0.8 0.5-0.2 0.8-0.1 0.9 0.2 1.7 1 0.7 0.6 0.9 1.1 0.5 0.3 0.6 0.1 0.6-0.4 1-0.8 0.6-0.1 0.7 0.3 0.9 0.9 0.3 0.7-0.1 0.7 0.4 0.4 0.9 0.4 2.5-0.1 1.1-0.3 0.8-0.5 0.4-0.5 1.1-1.2 0.5-0.4 1.1-0.5 0.6 0.1 0.8 0.3 0.9 0.9 1 1.3 0.8 0.5 4.1 1.5 1.2 0.7 0.7 0.7 0.2 2 0.3 0.4 0.8 0.3 3.4 0.3 1.2 0.3 1.1 0.7 0.4 0.7 0.5 1.2 1.5 5.2 0.4 1 0.7 0.5 1.1 0.3 5 0 1.1-0.1 0.8-1.6 1.6-0.6 3.9-0.1 5.4-2.3 1.9-0.1-0.4-1.4-0.2-1.4-0.1-2.3 0.7-0.3 1.4-0.2 0.8-0.8 0.5-1.3 0.7-0.8 0.7-0.1 2.8 0.3 1-0.1 0.7-0.2 1-0.6 1.1-0.4 0.7-0.1 11.3 3 1.7 1.3 0.7 1.4 0.8 0.5 1.3 0.5 3 0.6 2.4 0 1-0.6 0.4-0.5 0.4-1.3 0.4-0.5 0.8-0.8 0.8 0.1 1 0.4 1.6 1.1 1.2 0.5 1.3-0.1 1.4-0.4 7.7 1.4 1-0.1 0.2-0.5 0.2-1.3 0.3-1.3 0.7-1 0.4-0.4 1.1-0.4 0.6-0.1 8.8 1 0.7 0.4 0.4 1.3 0.3 2.2 0.1 0.5 0.4 0.7 1.5 1.9 0.3 1.7 0.1 1.9 0.3 1.1 0.5 0.4 0.8 0.4 1.5 0.3 0.8 0.5 0.6 0.7 0.2 0.7 0.5 0.8 0.8 0.8 1.8 1.4 0.5 0.8 0.1 0.8-0.5 1.2 0 0.7 0.1 1.3 0.6 1.7-0.1 1.2-0.6 1-1.2 1.2-0.4 0.9 0.1 0.5 0.7 0.9 0.7 0.3 0.8 0.1 4.5-1.1 0.7 0 0.7 0.2 0.9 0.6 0.5 0.6 0.9 1.5 0.7 0.9 1.2 1.3 0.8 0.2 0.5-0.6 0.6-1.3 0.3-0.5 0.9-0.8 0.6 0 0.7 0.1 0.8 0.6 1.1 1.6 0.5 0.4 2.6-0.2 6.8-1.8z" id="BLR2339" name="Gomel" data-id="BLR2339" data-name="Gomel">
 </path>
 <path d="M838.1 313.8l3.1 1 1.7 3.6 2.5 9.2 1.3 2.2 1.3 1.4 1.1 1.6 0.8 2.9 0.7 10.5 1.1 5.1 1.6 2.7 16.3 13 2.7 2.2 2.5 1.2 5.5 1.4 8.7 4.9 3.3 0.7 2.9 0.1 1.1 0.6 1.2 1.4 0.8 2 0.7 2.6 0.9 2.1 1.3 0.5 2.6-1.8 0.6-0.2 0.9 0.7 0.1 0.6 0 0.8 2.4 9.4-0.5 1.4-0.2 1.3-0.1 1.3-0.1 1.4-1.2 3.9-1.7 10.2-1.8 4.5-4.1 6.7-0.9 4.4 4.4 0 9 3.1 22-5.8 2.3 0.5 6.2 4.5 13.1 3.7 3.7 2.7 3.3 4.5 1.5 1 5.2-0.3 2.1 0.4 2.1 1.2 1.9 2.6 0.8 1.3 0.2 1.4-0.2 1.3-0.8 1.3-7.7 4-0.8 0.7-0.1 1.4 0.3 3.1 1.1 4.9 1.9 3.6 2.5 2.7 2.8 1.9 5.3 2.5 2.4 1.8 1.7 3.2 0.7 1.2 0.8 0.3 0.8-0.4 0.9-1 1.8-0.3 1.8 0.2 1.6 0.9-0.3 1.5-0.6 1.8 0.5 1.9 1.2 0.4 3.2-1.1 1.3 0 1.9 4-1.6 12.8 1.4 5.5-2.1 1.6-1.6-0.2-1.6-0.8-1.8-0.4-7.3 1.6 0.4 0.6 0.9 1.6 0.4 0.7-2.8 1.6-3.3 0.7-3.3-0.4-2.7-1.4-2.6 0.8-0.8 2.1 0.9 1.9 2.4 0.5-1 3.4-1.5 3.3-3.3 5.6-1.9 2-1.7 0.9-3.8 1.3-3.4 3.1-2.6 3.8-2.9 2.8-5.4-0.2-0.6 0.7-0.1 0.9-0.3 0.7 0.1 1.3-0.2 0.8-0.5 0.5-1.3-0.3-3.7 0.5-2.7 2.1-1 0.6-3.6-0.2-7.6-3.1-3.1 0.3-2.7 1.4-2.5 0.3-2.5-0.6-5.4-3.2-1.3-0.3-3.7 0.3-1.1-0.4-1.7-2.7-1.1-7.2-1.4-3-1.9-1-4.6-0.1-2-0.4-6.4-2.5-2.1-0.2-2.1 0.6-3.9 2.2-2.5 0.1-5.1-1-4.9 0-4 3.1-1.9 8.4 0.1 2.4-6.8 1.8-2.6 0.2-0.5-0.4-1.1-1.6-0.8-0.6-0.7-0.1-0.6 0-0.9 0.8-0.3 0.5-0.6 1.3-0.5 0.6-0.8-0.2-1.2-1.3-0.7-0.9-0.9-1.5-0.5-0.6-0.9-0.6-0.7-0.2-0.7 0-4.5 1.1-0.8-0.1-0.7-0.3-0.7-0.9-0.1-0.5 0.4-0.9 1.2-1.2 0.6-1 0.1-1.2-0.6-1.7-0.1-1.3 0-0.7 0.5-1.2-0.1-0.8-0.5-0.8-1.8-1.4-0.8-0.8-0.5-0.8-0.2-0.7-0.6-0.7-0.8-0.5-1.5-0.3-0.8-0.4-0.5-0.4-0.3-1.1-0.1-1.9-0.3-1.7-1.5-1.9-0.4-0.7-0.1-0.5-0.3-2.2-0.4-1.3-0.7-0.4-8.8-1-0.6 0.1-1.1 0.4-0.4 0.4-0.7 1-0.3 1.3-0.2 1.3-0.2 0.5-1 0.1-7.7-1.4-1.4 0.4-1.3 0.1-1.2-0.5-1.6-1.1-1-0.4-0.8-0.1-0.8 0.8-0.4 0.5-0.4 1.3-0.4 0.5-1 0.6-2.4 0-3-0.6-1.3-0.5-0.8-0.5-0.7-1.4-1.7-1.3-11.3-3-0.7 0.1-1.1 0.4-1 0.6-0.7 0.2-1 0.1-2.8-0.3-0.7 0.1-0.7 0.8-0.5 1.3-0.8 0.8-1.4 0.2-0.7 0.3 0.1 2.3 0.2 1.4 0.4 1.4-1.9 0.1-5.4 2.3-3.9 0.1-1.6 0.6-0.8 1.6-1.1 0.1-5 0-1.1-0.3-0.7-0.5-0.4-1-1.5-5.2-0.5-1.2-0.4-0.7-1.1-0.7-1.2-0.3-3.4-0.3-0.8-0.3-0.3-0.4-0.2-2-0.7-0.7-1.2-0.7-4.1-1.5-0.8-0.5-1-1.3-0.9-0.9-0.8-0.3-0.6-0.1-1.1 0.5-0.5 0.4-1.1 1.2-0.4 0.5-0.8 0.5-1.1 0.3-2.5 0.1-0.9-0.4-0.4-0.4 0.1-0.7-0.3-0.7-0.9-0.9-0.7-0.3-0.6 0.1-1 0.8-0.6 0.4-0.6-0.1-0.5-0.3-0.9-1.1-0.7-0.6-1.7-1-0.9-0.2-0.8 0.1-0.5 0.2-0.8 0.8-1.3 2.1-1.7 1.5-0.3 0.5-0.4 1.4-0.3 3 0.1 1.3 0.4 1.8 0.8 2.3 0.5 2.4 0.4 1.1 1.8 4.2 0.4 1.2 0 0.7-0.1 0.6-0.8 0.4-1.1 0-2.1-0.4-1 0-0.5 0.4 0.6 0.8 1.7 1.6 0.4 1.1-0.4 2.8-0.3 0.8-0.6 0.8-1.3 0.9-0.6 0.6-0.3 0.7 0.7 0.8 1.7 0.9 0.4 0.4 0.1 0.5-0.6 1.1-0.5 0.5-9-0.9-1 0.2 0 0.4 1.2 1.1 0.4 0.4-0.1 0.6-0.5 0.7-3.2 1.5-0.4 0.7 0.2 1.1 0.7 2.4 0.2 0.5 0.5 0.3 1.1 0.3 0.4 0.3 0.4 1.1 0.1 1.3 0 0.7-0.5 1.1-2.1 2.9-0.3 0.5 0 0.5 0.4 0.3 3 2 0.8 0.8 0.8 0.9 1.2 1.1 4.3 2.4 0.6 0.9-0.1 0.9-1.3 2.6-1 1.3-1.2 0.7-0.9 0.2-0.8 0-1.2-0.6-1.3-1.1-0.7-0.3-1-0.2-11.1-0.2-2.2 0.6-0.6 0.3-0.5 0.4-0.7 1.4-0.9 0.7-3.9 2.3-0.8 0-0.5-0.3-0.3-0.4-1.3-2.6-0.6-0.4-0.8-0.4-1.5-0.4-0.8 0.1-0.7 0.3-0.3 0.4-0.1 0.5 0.2 0.4 0.8 0.8 0.3 0.5 0.1 0.6-0.3 0.7-0.5 0.6-4 1.7-0.6-0.1-0.3-0.3 0-0.6 0.2-1.4 0-0.9-0.4-0.3-10.2-3.1-4.4-0.3-1.3 0.1-0.9 0.2-0.5 0.4-0.8 0.9-2.4 4.1-1.4 2-0.5 0.4-2.1 1-0.6 0.5-0.4 0.6-0.4 1.6-0.6 1-0.7 0.3-10.4 0.3-1 0.3-0.4 0.5-0.1 0.7 0.1 7-0.1 2.2-0.3 1.3-0.6 1.1-14.7 4.7-1.9 1.1-0.8 0.7-0.1 0.8 0.3 0.6 0.9 0.6 2.6 0.8 0.9 0.8 0.1 0.5-0.1 1.3-0.3 0.7-0.5 0.7-0.7 0.7-0.9 0.3-2.6-0.1-0.9 0.1-0.6 0.4-1 1.2-0.9 0.9-0.8 0.3-5 0.1-1 0.4-0.8 0.5-0.8 0.7-0.7 0.3-0.7 0-2.9-0.8-1.5-0.1-0.8 0.3-0.6 0.4-1.3 1.3-0.7 0.3-0.8 0.1-5.1-0.8-6.6 0.6-6-5.7-10.3-6.5-1.5-1.5-0.7-1 12.3-12.5 2.2-3.6 0.8-1.7 0.1-0.7 0.6-3 0.2-0.6 0.5-1.2 3-3.4 0.8-1.2 0.4-1.2 0.1-0.8-0.2-0.6-0.4-0.5-3-2.1-0.5-0.5 0-0.6 0.2-0.5 0.9-1.5 0.9-1.6 1.8-5 0.3-0.5 0.8-0.3 3.4 0.4 0.5-0.1-0.2-0.9-0.5-0.9-0.5-1.2-0.4-2 0.1-1.4 1-4.4 0.1-1.1 0-0.8-2.2-5.7-0.2-0.8-0.2-1.2 0.3-0.8 1.2-1.5 0-0.5-0.4-0.5-0.5-0.3-0.6-0.1-1.9 0.2-1.1 0.5-1.3 1.1-1 0.5-3.9 0.4-0.8-0.9-0.8-1.7-1-4.7-0.8-1.9-0.8-1-3.7-0.5-0.6 0.1-0.4 0.3-0.6 1.1-0.6 2-0.6 0.8-0.5-0.1-3.1-1.8-1.3-0.4-3.7-0.5-0.8-0.3-0.7-0.5-2-3.5-0.8-0.8-0.6-0.4-2.3-1-4.3-1.1-0.9-0.5-0.4-1-0.7-2.8-0.3-0.8-1.6-3.1 0-0.8 0.3-0.5 3.1-1.6 1.1-0.3 2-0.2 0.7 0.1 1.6 0.8 1 0.7 0.8 0.8 2.7 3.6 0.4 0.2 0.5-0.1 0.5-0.7 1.3-0.3 12.2 0.8 0.6-0.1 0.5-0.3 0.3-0.5 0.8-1.8 0.4-0.4 0.5-0.2 5.2-0.7 0.6-0.3 0.5-0.5 0.5-1 0.1-0.7-0.2-0.6-0.9-1.5-0.6-1.6-0.6-0.8-0.6-0.5-5.6-2.2-0.6-0.4-0.5-0.7-0.1-0.6 0.1-0.7 0.4-1.1 2.8-3 0.3-0.5 0.5-1.3 0.2-1.1 0.2-5.4-0.3-3.9 0-2.8 1.1-2.1 1.2-2 1.1-1.5 1.6-1.6 1-0.6 1.3-0.1 1.4 0 2.1 0.5 0.6 0.1 0.5-0.2 1.1-1.3 0.5-0.3 3.5-1.2 1.1-0.9 0.1-0.5-0.2-0.5-0.7-0.2-1.5-0.4-0.7-0.4 0.4-0.6 4.3-1 0.5-0.3 0.5-0.4 0.4-0.7 0.5-1.1 0.1-0.8 0-0.7-0.8-2.2-0.2-1.4 0-0.9 0.3-0.7 0.7-1.1 0.7-0.5 0.7-0.2 0.7 0.1 1.1 0.5 2 1.4 2.3 1.1 9.5 1.8 1.2-0.4 1.3-1 0.6-0.2 1.3 0.1 1.1 0.7 0.7 0.9 0.5 0.9 0.4 0.3 0.4 0 1.4-1.5 0.4-0.3 0.6 0 0.4 0.3 0.2 0.5 0.1 0.7-0.1 0.7-0.4 0.8-0.6 1-0.2 0.7 0.1 0.6 1.3 1.8 1.9 4.3 0.7 0.8 0.7 0.1 3.7 0.3 0.6-0.1 0.7-0.3 0-1-0.8-3.1 0-1.5 0.2-1-0.1-1.7-0.2-1.5 0.9-0.6 9.4-0.8 0.7-0.3 0.7-0.5 0.9-1 0.4-0.9 0.2-0.8-0.2-1.2-1-2.3-0.2-0.7 0-1.2 0.2-0.7 0.3-0.6 4.1-4.2 0.9-0.6 1.1-0.3 1.7 0.6 2 0.4 0.5 0.3 0.8 0.9 0.9 0.7 1.3 0.4 0.7 0 1.2-0.3 8.1-4.4 1.7-1.5 1-1.3 1.3-2.1 0.8-1.1 0.9-0.7 1.2-0.2 0.6 0.2 0.8 0.7 1 1.5 0.6 0.3 0.6 0 0.7-0.4 0.4-0.8 0.3-1.2 0.4-0.6 0.5-0.4 1.3-0.6 0.8-0.7 0.3-0.6-0.1-0.5-0.4-0.4-1.4-0.3-1.2-0.7-0.3-0.5-0.1-0.8 0.3-0.6 0.4-0.4 3.3-1.4 1.5-0.9 1.3-1.4 1.2-1.6 0.4-0.9 0.2-0.8-0.4-0.3-1.9-0.4-0.5-0.3-0.8-0.9-1-0.5-0.6 0-1.7 0.4-0.6-0.1-0.5-0.3-0.7-0.9-0.4-0.4-0.6-0.2-2.1-0.2-0.6-0.1-0.3-0.3 0.6-0.7 2.3-1.2 0.8-0.7 0.4-0.7 0.2-0.8-0.2-1.1-0.5-0.2-0.4 0.1-2 1.2-0.6 0.1-0.5-0.1-0.4-0.6 0.1-0.6 0.3-0.4 0.9-0.9 1.4-1.7 0.2-0.7-0.3-0.5-2.3-1.2-0.5-0.5-0.1-1.1 0.3-0.8 0.7-1.1 0.1-0.6-0.4-1-0.2-0.7 0.2-2.7 0-4.2-0.2-1.4-0.3-1.2-0.8-1.5-0.6-1-0.5-1.3 0.1-1.8 0.2-0.6 1-2.1 0.8-0.9 1.5-0.9 0.9-0.7 1-1.5 2-2 0.8-1.1 0.4-0.8 0.1-0.8-0.1-0.7-0.2-1.2-0.6-1-0.8-0.9-0.4-0.5-0.1-0.9 0.1-0.6 0.4-0.5 1.3-0.5 0.7-0.4 0.2-0.6 0.2-0.7 0-6.6-0.2-3 0.2-0.6 0.4-0.4 2.2-1.3 0.8-0.8 0.1-0.6-0.2-0.5-0.8-0.8-0.1-0.6-0.1-2.2-0.2-0.5-0.5-0.4-2.1-0.6-0.5-0.4-0.3-0.4-0.2-1.7 4.1-2.9 1.3-1.5 0.3-0.6 1-2.8 0.5-0.6 0.6-0.3 1.9-0.3 2.9-0.9 0.4-0.6 0.7-2 0.9-1.8 0.8-0.7 0.7-0.4 1.5 0 1.4 0.3 6.1 2.7 1.5 0.2 3-0.7 1.6 0.2 9.3-1.5 2.4-0.8 0.8-0.8 0.1-0.4-0.3-0.4-1.4-1-0.3-0.5 0.1-0.7 0.6-0.9 0.6-0.3 0.7 0 4 1.3 0.6 0.3 0.3 0.5 0.1 0.6-0.2 1.2 0.1 0.6 0.2 0.5 1.4 1.1 0.3 0.4 0.1 0.6-0.2 1.1 0 0.5 0.8 0.4 1.2 0.3 4.1 0.2 0.8 0.3 0.2 0.6-0.2 1.3 0.6 0.6 1.2 0.4 3.1 0.1 1.4-0.1 0.9-0.4 0.4-0.5 0.4-1.3-0.1-1.3-0.7-1.6-0.6-1.8-0.4-2.6 0.2-0.7 0.5-0.7 3.5-2.2 0.8-0.8 0.6-1.2 0.5-1.7 0.3-0.7 0.7-0.9 0.7-0.3 0.8 0 1 0.6 0.1 0.4-0.2 0.5-0.8 0.7-0.1 0.5 0.2 0.4 3.8 2.3 1.3 1.4 0.8 0.4 0.7-0.1 0.5-0.2 0.4-0.5 0.2-0.7 0.2-1.6 0.3-0.9 0.5-0.2 2.4 0.6 2 0.1 1.1-0.2 0.8-0.2 5-3.6 0.7-0.1 0.4 0.3-0.2 0.5-1.1 2.4-0.7 1.9-0.7 1.1-2.6 3.2-0.5 1 0.4 1.1 0.8 0.6 5.9 1.3 1.8-0.1 2.2-1 2.8-1.9 0.8-1 0.2-0.5 0.2-2 0.6-0.8 0.6-0.2 0.6 0.1 0.9 0.8 0.6 1 1.6 3.6 0.2 0.3 1.5 1.6 1.8 1.6 1.5 0.8 1.6 0.4 0.9 0 0.7-0.2 3.3-1.6 1.3-1.1 0.8-0.8 0.6-1.2 0.6-2.1 0.2-0.7 0.7-1 1.4-1.1 0.6-1-0.1-0.5-0.2-0.5-2.2-2.1-0.3-0.5-0.2-0.5 0-0.7 0.3-0.6 0.6-0.6 1-0.5 4.6-1.4 0.5-0.5 0.4-0.5 0.2-1.4 0.4-0.7 0.7-0.6 1.9-1 1.1-0.4 1-0.1 0.6 0.2 4.1 2 5.3 1 7 0.2 2.2-0.3 1-0.5 0.2-0.5 0.1-0.6-0.3-1.1 0-0.7 0.4-0.7 1.1-1 1.1-0.3 0.9-0.1 0.6 0.2 2.7 1.8 3.7 1.1 2.1 1.3 1 0.8 0.7 0.3 1 0.2 0.5-0.2 0.3-0.5-0.1-1.2-0.5-1.8-0.1-0.5 0.1-0.6 0.5-0.5 0.9-0.4 2.7-0.8 0.7-0.3 2.3-2 0.8-0.3 1 0 2.3 0.4 1.7 0 0.6-0.3z" id="BLR2340" name="Mogilev" data-id="BLR2340" data-name="Mogilev">
 </path>
 <path d="M838.1 313.8l-0.6 0.3-1.7 0-2.3-0.4-1 0-0.8 0.3-2.3 2-0.7 0.3-2.7 0.8-0.9 0.4-0.5 0.5-0.1 0.6 0.1 0.5 0.5 1.8 0.1 1.2-0.3 0.5-0.5 0.2-1-0.2-0.7-0.3-1-0.8-2.1-1.3-3.7-1.1-2.7-1.8-0.6-0.2-0.9 0.1-1.1 0.3-1.1 1-0.4 0.7 0 0.7 0.3 1.1-0.1 0.6-0.2 0.5-1 0.5-2.2 0.3-7-0.2-5.3-1-4.1-2-0.6-0.2-1 0.1-1.1 0.4-1.9 1-0.7 0.6-0.4 0.7-0.2 1.4-0.4 0.5-0.5 0.5-4.6 1.4-1 0.5-0.6 0.6-0.3 0.6 0 0.7 0.2 0.5 0.3 0.5 2.2 2.1 0.2 0.5 0.1 0.5-0.6 1-1.4 1.1-0.7 1-0.2 0.7-0.6 2.1-0.6 1.2-0.8 0.8-1.3 1.1-3.3 1.6-0.7 0.2-0.9 0-1.6-0.4-1.5-0.8-1.8-1.6-1.5-1.6-0.2-0.3-1.6-3.6-0.6-1-0.9-0.8-0.6-0.1-0.6 0.2-0.6 0.8-0.2 2-0.2 0.5-0.8 1-2.8 1.9-2.2 1-1.8 0.1-5.9-1.3-0.8-0.6-0.4-1.1 0.5-1 2.6-3.2 0.7-1.1 0.7-1.9 1.1-2.4 0.2-0.5-0.4-0.3-0.7 0.1-5 3.6-0.8 0.2-1.1 0.2-2-0.1-2.4-0.6-0.5 0.2-0.3 0.9-0.2 1.6-0.2 0.7-0.4 0.5-0.5 0.2-0.7 0.1-0.8-0.4-1.3-1.4-3.8-2.3-0.2-0.4 0.1-0.5 0.8-0.7 0.2-0.5-0.1-0.4-1-0.6-0.8 0-0.7 0.3-0.7 0.9-0.3 0.7-0.5 1.7-0.6 1.2-0.8 0.8-3.5 2.2-0.5 0.7-0.2 0.7 0.4 2.6 0.6 1.8 0.7 1.6 0.1 1.3-0.4 1.3-0.4 0.5-0.9 0.4-1.4 0.1-3.1-0.1-1.2-0.4-0.6-0.6 0.2-1.3-0.2-0.6-0.8-0.3-4.1-0.2-1.2-0.3-0.8-0.4 0-0.5 0.2-1.1-0.1-0.6-0.3-0.4-1.4-1.1-0.2-0.5-0.1-0.6 0.2-1.2-0.1-0.6-0.3-0.5-0.6-0.3-4-1.3-0.7 0-0.6 0.3-0.6 0.9-0.1 0.7 0.3 0.5 1.4 1 0.3 0.4-0.1 0.4-0.8 0.8-2.4 0.8-9.3 1.5-1.6-0.2-3 0.7-1.5-0.2-6.1-2.7-1.4-0.3-1.5 0-0.7 0.4-0.8 0.7-0.9 1.8-0.7 2-0.4 0.6-2.9 0.9-1.9 0.3-0.6 0.3-0.5 0.6-1 2.8-0.3 0.6-1.3 1.5-4.1 2.9-3.3 1.1-0.7 0-0.8-0.3-1.1-1.5-0.2-0.8-0.1-0.8 0.3-3.8 0.3-1.3 0.6-1 3.1-2.7 0.5-0.5 0.4-0.7 0.4-1.1 0.1-0.8-0.2-0.6-2.1-3.4-1.2-1.1-1-1 0.1-0.6 0.7-0.7 0.4-0.6 0.4-0.8 0.3-1.3 0.3-0.7 0.5-0.5 0.6-0.1 0.7-1.9 0.7-3.3 1.3-15 0.9-1.8 1.1-1.4 0.8-1.3 0.5-1.1 0-0.8-0.2-0.7-1.5-1.9-0.3-0.7 0-0.6 0.2-0.6 1.6-1.8 3.5-3.2 0.4-0.7 0-1-0.7-3.9-0.6-1-0.6-0.7-1.4-0.4-0.6 0.1-0.3 0.3-0.1 0.6 0.1 2.1-0.2 1.5-0.7 1.1-1 0.6-0.6 0-3-0.6-2.5-1-1.4-0.2-0.7 0-1.1 0.5-1 0.6-2.7 2.2-0.5 0.2-0.6-0.1-2.2-1.2-1.2-0.2-3.5-0.1-0.5-0.2-0.2-1.2 0.1-1.6 0-1.2-0.2-1.6-0.6-3-0.6-1.2-0.8-0.6-1.2 0.3-2.2 1-2.4 0.7-0.6 0.1-0.7-0.2-0.6-0.5-0.2-0.6 0.1-0.5 0.3-0.5 0.9-0.9 0.2-0.4-0.8-0.2-2.3 0.9-2.1 1.1-0.8 0.9-1.5 2.9-0.4 0.4-0.9 0.6-1.9 0.5-2.9 0-13.5-2.5-0.6 0.1-0.4 0.3-0.3 0.6-0.4 2-0.4 1.3 0.3 1.1 1.8 2.3 0.2 0.5-0.3 1.1-1 1.7-0.8 0.9-1.2 0.3-1.4 0.2-1-0.1-0.4-0.6 0-1.5-0.4-1.7-0.6-0.3-0.7-0.2-4.6-0.6-0.7 0-0.5 0.3-1.2 1.3-0.9 0.7-0.6 0.1-0.6 0-6.3-2.3-0.7-0.7-0.5-0.6-0.5-1.8-0.1-1.4 0.3-1.4 1.5-2.8 0-0.9-0.2-1.1-1.3-2.1-0.8-0.7-0.6-0.2-0.4 0.4-2.2 2.9-1 0.7-0.8 0.1-0.4-0.3-0.2-0.6-0.3-1.2-0.5-1.4-0.5-0.9-0.5-0.2-0.6 0-8.3 2.6-0.5 0.3-0.7 1.1-1 3.4-0.8 1.9-0.2 0.7-3.2 9.2-0.4 0.6-1 0.3-1.9-0.1-4-2.1-0.8-0.7-0.4-1.1-0.4-1.4-0.6-0.9-1.2-1.3-3.6-2.1-0.8-0.9-0.7-0.9-0.8-1.6-0.6-1.4-0.6-1-1.4-1.6-0.7-0.6-0.8-0.3-2.9-0.3-5.1 1-2.3 0.9-2.3 1.7-0.4 0.4-0.8 0.3-0.9 0.2-4.8-1.3-0.7-0.1-11.4 3.5-1.6 0.2-0.4-0.5-0.3-0.5-0.1-2.3 0-0.8-0.4-0.8-0.5-0.5-1.3-0.5-0.7-0.1-0.6 0-0.5 0.3-1.8 2.4-0.4 0.4-1.2 0.2-1.8-0.1-6-1.8-0.7-0.7-0.3-0.8-0.7-1.1-2.5-2.2-0.9-1-0.4-1-0.1-0.8-0.4-1-1.5-1.7-0.6-1-0.1-0.9 0.5-1.1 0.5-1.3 0.4-1.4 0.1-1.5-0.6-0.9-1.1-1.1-5.4-3.5-10.1-1.7-0.8-0.5-0.2-0.7 0.1-0.7 0.7-2.9-0.2-1.3-0.4-0.5-8.1-6.9-0.3-0.4-0.6-1.2-1-1.3-1-1-0.8-0.4-0.8-0.1-5.6 0.6-2.1-0.2-0.6-0.4-0.3-0.6-0.2-2.8-0.4-1.2-0.5-1.1-1.9-3-0.9-1-2.7-2.2-0.3-0.6-0.1-0.5 0.2-0.5 2.8-4.1 0.3-1.2-0.3-0.8-0.6-0.9-1.4-1.3-1-0.5-0.8-0.2-5.7 1.4-7.5-2.1-1-0.1-3.3 2.6-0.2 0.5 0.1 1.2 0.5 1.9 0.1 1.3-0.1 0.6-0.3 0.6-0.5 0.2-1.2 0.4-7.9 0.5-4.1-0.4-0.8-0.4-0.5-0.4-0.7-1.2-1.3-1.9-0.8-0.4-0.8-0.2-10.7 1.8-1.1 0.4-3.2 2.7-1.3 0.6-1.2 0.2-0.6-0.2-0.5-0.4-0.6-1.3-0.6-0.8-1.2-1.2-0.8-0.6-0.9-0.3-3.2-0.2-2.4 0.2-0.9 0.2-0.3 0.2-0.4 0.9-0.6 0.8-0.9 0.7-1.1 0.4-1.5 0.1-1-0.4-0.9-0.5-1-0.9-0.9-0.4-5.7 0.4-3-0.5-2.2-0.8-3.9-2.1-1.1-0.3-0.7 0.1-0.7 0.4-0.5 0.6-0.3 0.9 0 0.9 0.1 0.8 0.3 1.2-0.1 0.5-0.7 0.9-1.1 0.8-1.5-1.1-1.2 0.2-0.9 0.5-2.3 2.3-0.7 0.5-0.7 0.2-0.9-0.3-0.7-0.7-0.9-2.1-0.6-3.3 0-1-0.9-0.9-0.6-0.5-6.3-2.5-0.3-0.4 1.8-2.8 3.8-8.4 0.5-1.6 0.2-2.2-0.1-4.5 0.3-2.1 3.3-5.2 4.7-0.8 11.6 3 0.9 0 1-0.3 0.6-0.8 0.7-1 0.8-0.9 1.5-0.2 11.1 5 2.3-0.5 1.6-2.6 1.1-5.3 0.7-5.1 0.8-2 1.6-2.3 3-2.9 1.6-1 6.7-1.8 2.6-1.9 1.1-3-0.9-3.1-2.4-1.8-17.4-3.1-6.3 1.7-1.7-0.1-6.3-2.3-1.6-1.1-0.5-2 1-3.4 2.5-4.6 0.7-1.8 1.4-6.8 0.9-2.1 3.7-3.7 0.4-2.2-2-3.8 0.5-4.5 2-3.4 2.6-2.9 2-3.2 1-4.1 0.3-4.9-0.4-5-1-4.4 2.2-3.9 2.5-1.4 2.8 0.3 5.6 2.3 2.4-0.2 8.3-4.3 2.1-2.5 6-11 6-7.4 2.5-1.6 13.5-1.7 4.3 0.7 2.2 1.3 6.5 5.5 2.9 1.6 2-0.8 4.9-4.8 2.2-2.6 2.6 3.1 3.2 1.9 3.5 1.1 13.1 1.2 3-0.4 0.9-2.8 0.9-4 0.7-8.9 2.9-8.2 10.4-6.9 3.4-6.1 0.4-4.5 3.3-3.4 7.1-5.5 1.3-2.5 0.9-2.3 1-2 1.7-1.7 1.3-0.7 4.3-0.9 4.5-2.2 4.6-3.4 4.5-1.7 4 2.7 2.1 3.2 7.2 8 3.2 4.6 2.2 2.2 2.2 0.7 2.3-1.4 3.5-5.4 2.4-1.8 15.5-1.7 5.9 1 1.8 0.7 0.9 1 1.7 3.3 3.7 5.2 0.9 1.9 1 4.4 0.5 4.5 1.2 3.8 2.7 2.4 8 2.3 2.3-0.6 0.2-4.3 2.8-2.9 6.5-3 6.2-4 5.2-2 6 0.2 5.9 2.1 5 3.7 3.3 2.6 16 4.6 1.9 1.1 1.8 1.8 1.9 2.6 1 1.7 0.4 1.5-0.4 1.2-0.7 0.2-0.9-0.1-0.8 0.4-1 0.8-0.9 0.3-0.8 0.7-0.8 1.6-0.4 1.6-0.5 4.5-0.4 2-2.5 6.2-0.4 3 0.7 3.9 1.3 2.7 5.2 4.4 5 7.5 2.1 1.1 2.8-0.8 8.1-9.7 10.3-6.1 2.8-0.6 7.2 1.9 2.7-1.4 4.1-7.7 2.6-3.3 4-2.4 4.2-0.9 4.2 0.2 12.3 4.7 2.7-1 4.7-4.5 2.4-1.2 1.9 0.5 3.5 3.2 2 1.3 20.7 7 0.9 1 0 1.6-0.6 1.5-0.3 1.6 1.2 1.6 9.3 4.5 1.1 0.9 0.8 1.2 0.4 2.4-0.3 1.6-0.5 1.5 0 1.8 1.3 2.6 2.1 1.4 2.4 0.6 4.2-0.4 1.5 0.8 1 1.8 1 2.9 3 6 3 0.5 3.5-2 4.6-1.6 4 1.9 2.8 5.4 0.7 6.8-2.1 6.6 1.5 1 0.6 0.2-0.7 2.4-2.7 2.1-0.6 3.1 0.8 3.3 1.7 2.3 1.4 2.4-0.1 3.7-1.2 2.2-6.3 4.5-3.6 5.2-1.5 3.4-0.3 3.5 1 2.3 1.8 1.6 3.7 2 1.4 2.1 1.7 6.8 1.5 2.3 4.9 3.8 1.3 1.6 0.1 0.7-0.4 1.7 0.2 0.9 0.3 0.3 1.1 0.4 0.3 0.2 0.4 1 0.5 0.6 0.2 0.9-0.5 1.9-0.9 1.3-0.2 1.3 0.3 1.4 0.8 1.3 1.4 3.6 1.2 4.5 0 3.5-2.6 0.8-5-1.3-2.1 0.2-0.7 2.2 1.1 3 1.5 2 0.5 2.2-2 3.5-1.8 1.4-6.4 1.3-2.5 2 0.3 1.9 1.1 2.7-0.2 4.6-1.6 2.9-2.4 2.5-2 3.2-0.6 5.1 0.8 2.9 1.6 1.2 4.3 1.5 16.1 11.8 1.5 2.9 0.4 3.3 2.3-0.4 8.8 1 2.4 5 4.1 3.4-3 7-5.2 8.5-2.6 7.8 3.1 2.3 7.7 2.3 1.2 2.4z" id="BLR2341" name="Vitebsk" data-id="BLR2341" data-name="Vitebsk">
 </path>
 <path d="M333.4 225.2l-0.8 1-1.9 1-0.4 0.3-0.2 0.6 0.1 0.7 1.3 2.4 0.8 2 0.2 1.6-0.2 3.7 0 1.2 0.7 1.5 0.7 1.1 1 1.1 1.1 1 1.3 0.8 1.2 0.6 1 0.3 1.6 0.2 0.6 0.3 2.3 2.8 5.6 8.7 0.6 0.5 0.7 0.5 2.1 0.9 0.6 0.3 0.3 0.5 0.2 1.1 0.1 1.2-0.5 2.6-0.1 1.1 0.2 1.5 0.4 0.9 1.3 2.8 1 2.5 1 1.8 0.4 0.9 0.3 0.9 0.3 1.5 0.4 0.8 0.5 0.5 2 0.6 1.8 1.2 0.7 0.2 0.8-0.3 2.6-1.3 0.5 0 0.2 0.7 0 1.4-0.4 3 0.2 1.9 0.8 2.1 0 0.7-0.7 1-0.6 0.3-0.7 0-1.1-0.2-0.4 0.4-0.3 1-0.1 4.8-0.2 1-0.5 0.5-0.7-0.1-0.9-0.4-3.2-2.2-0.7 0-0.1 0.8 0.5 1.4 0.1 0.6 0 1.8 0.3 1 0.5 0.9 1 1.7 0.4 1.3 0.2 1.7-0.2 2.8-0.2 1.8-0.7 1.2-0.5 0.6-1.9 1.4-0.7 1.1-1.2 4.2-6.5 17.3-2 4.3-1.2 2-4.1 4.3-1.1 1.5-0.8 0.7-0.6 0.3-11.6 2.2-5-1-1.4 0.1-1.8 0.5-6.1 5.4-0.5 0.3-1.2 0.2-3-0.3-0.5 0.2-0.7 0.9-1.7 5.1-1 4.4 0 0.7 0.1 0.6 1.2 1 3 1.3 0.5 0.1 0.4-0.2 0.3-0.5 0.5-2.1 0.3-0.6 0.8-0.5 0.5 0.1 2.3 1.1 0.5 0.4 0.3 0.5-0.1 1.1-0.5 2.6-0.3 6 0 1.5 0.2 1.1 0.5 1.2 1.1 2.3 0.9 0.8 0.8 0.3 6.6-1 1-0.6 0.2-0.6 0.1-0.7-0.1-1.1 0.5-0.5 0.7-0.1 4.6 0.6 0.7 0.3 0.4 1.2 1.1 5.7 0.8 1.4 0.6 0.7 6.3 0.2 0.5 0.9 0.1 1.7-0.5 4-0.5 1.6-0.5 1-3.8 0.9-0.5 0.3-0.7 0.9-0.6 1.1-1.1 3.2-0.5 1.2-0.6 1-1.3 1.2-1 0.7-1.1 0.5-7.1 2.2-2 1.2-0.7 0.9-0.2 0.9-0.1 1.2-0.1 3.3 0.1 1 0.7 0.8 1.2 0.9 7.2 3 0.8 0.9-0.5 1.6-0.7 1.1-0.4 0.4-0.6 0.3-2.2-0.1-0.7 0.1-0.4 0.8-0.2 1.3 0 2.6-0.3 2.4 0 0.8 1 1.6 0.8 0.9 1.4 1.1 1.1 0.6 3.6 0.5 1 0.6 0.2 0.7 0.1 1-0.1 1.9 0 1.3 0.1 1.2 0.5 1.3 0.6 0.7 0.6 0.4 6.6 2 4.3 2.4 0.8 0.9 0.5 1 0.4 1.5 0.3 3 0.2 0.7 0.4 1.1 1.6 2.5 0.5 0.9 0.8 2.1-0.1 1.1-0.4 1.5-1.4 3.2-0.3 1.9 0 1 0.5 0.3 0.9 0.1 2.4-0.5 0.6 0 0.8 0.5 0.3 0.4 0.2 1.1 0 1.9-0.6 5.6 0 1.4 0.2 1.3 0.7 2.4 0.5 1 0.6 1 0.7 0.9-0.9 0.6-19.1 6.4-8.1 2.2-2.7 0.2-0.6-0.2-2.2-1.1-2.6-0.8-8.9-0.5-5.6-1.4-2.3 0.2-2.2 0.6-14.8-1.3-1-0.5-1.1-1.3-0.5-0.4-0.8-0.1-1.1 0.1-1.7 0.4-1 0-0.7-0.1-1.4-1.1-1.1-0.4-1 0-3.3 0.8-1.1 0-1.4-0.4-1.4-0.2-0.7 0.3-0.9 0.6-1.2 1.5-0.6 0.9-1.1 2.5-3 5.2-0.5 1.5-0.2 1.2-0.6 5.2-0.4 1.3-0.5 0.4-0.7 0.4-3.1 0.3-0.7 0.4-0.6 1-0.3 0.8-0.7 2.8 0.1 0.7 0.6 0.9 2 1.3 0.7 0.9 0.1 1.3-0.1 0.6-0.5 0.8-0.9 0.7-1.7 1.3-2.2 2-0.7 1.2 0 0.7 0.1 0.5 0.5 0.4 2.1 0.4 1 0.6 1.1 1.3 0.8 1.6 0.2 0.5 0.2 1.3-0.2 1.4-0.9 2.6-3.3 6.4-2.6 7.5-0.3 0.5-0.7 0.9-5.4 3.2-1 1.1-1.1 1.6-1.2 2.1-0.7 1-1.1 1.2-0.6 1.1-0.1 1.3-0.4 0.8-0.9 0.9-2.6 1.2-1.7 0.4-2.1-0.2-0.9-0.3-0.8-0.2-0.9 0.1-1.4 1-0.6 0.9-0.3 0.8 0.2 1.3 0.6 1 1.6 1.6 0.3 1-0.3 0.4-1.2 1.1-0.3 0.5 0 0.6 0.3 1.2 0.3 0.5 0.4 0.4 1.7 0.7 0.3 0.5 0.2 0.6-0.2 1.3-0.3 0.5-0.8 0.7-0.7 0.2-0.8 0.1-1.6-0.4-1.7-0.7-0.9-0.6-0.6-1-0.2-1.3-0.2-0.5-0.9-0.2-1.3 0.2-2.3 0.9-1.7 1.4-0.3 0.4-0.5 0.3-0.8 0.1-0.9-0.1-1.6-0.4-1.2-0.1-1.2 0.2-4.2 1.6-0.9 0.8-0.6 0.4-0.8 0.1-1.3-0.4-0.7-0.5-0.4-0.6 0.2-1.3 0.2-0.7-0.1-1.2-0.6-0.9 0-0.6 0.2-1.3 1.4-5.1 0.1-0.6-0.2-0.4-0.4-0.3-0.6-0.1-0.6 0.1-0.7 0.7-0.4 0.6-1.1 2.3-0.5 0.4-0.7 0.2-1.3-0.2-4.4-1.8-0.5-0.7 0-0.6 0.4-1.9 0-1.3-0.4-1.8-0.4-1.1-0.9-1.5-0.7-0.8-0.9-0.8-1.1-0.5-2.7-0.6-0.8 0.1-0.8 0.3-0.9 1-0.5 0.8-0.7 2-0.6 1-0.7 0.4-1.1 0.3-3.4 0-5.6-1.3-6.5-3.3-1 0.1-1.4 0.5-5.1 2.9-0.8 0.9-0.1 0.5 0.2 0.5 0.9 0.6 2.9 0.4 0.5 0.3 0.4 0.4 0.1 1.3-0.2 0.6-0.7 0.7-1 0.8-2.5 1.3-1 0.8-0.7 0.7-0.3 0.5-2.2 2.5-0.2 0.5 0 0.5 0.3 0.4 1.1 1.2 0.5 1.1-0.1 1.3-0.2 0.5-2.3 1.7-0.6 0.9-0.8 2.5-0.8 1.5 0.1 1.1 0.9 1.4 0.4 1.1 0.3 1.3 0.1 1.4-0.1 0.6-0.3 0.9-0.2 0.4-1.2 0.8-2.4 0.7-2.5 0.2-2.7-0.5-2.3-1.2-0.6-0.4-0.8-0.9-4.7-3.3-0.5-0.3-0.8-0.2-1 0.1-2.6 0.8-1.6 1.1-0.5 0.2-0.5-0.1-0.5-0.6-0.2-0.6-0.2-1.1-0.2-0.3-0.6-0.1-0.8 0-4.4 1.6-1.1 0.1-4.4-0.8-1.3-0.5-0.8-0.5-0.6-1-0.8-1.5-0.4-0.4-0.7-0.1-1 0.1-2.3 1.5-3.2 2.7-1 0.6-1.1 0.4-13.9-1.1-1.9 0.4-0.8-21-0.3-1.3-0.4-0.9-0.4-1-0.1-1.9 0.3-1.4 1.2-2.3 0.3-1.1-0.1-1.4-0.8-4.8-0.1-1.1 0.3-2.1-0.2-1.3-1.2-2.6-3.1-4.1-0.9-2.9 0.1-3.4 1-2.4 1.3-2.1 0.9-2.5 0.2-4.3-1.1-2.1-1.7-1.4-1.9-2-1.3-2.7-0.8-2.5-1-2.5-1.9-2.5-1.8-5-4.2-16.6-2.1-5.5-4.9-10.3-8.9-27.3-2.5-12.3-0.2-10.9-2.6-3.7-1.1-3.7-0.9-9.4-1.1-4.4-1.4-4.1-1-4.3-0.2-5.2 3.6 0.9 9.4 5.7 1.8 0.6 1.6-0.1 5.2-2.2 6.5-0.9 1.8-1.4 1.6-0.6 0.8 0.1 1.8 1.1 0.9 0.3 0.8-0.1 8-4.6 1.6-0.3 1.6 0.6 3.1 2 1.7 0.4 6.7 0 3.1-0.9 6.4-3.5 3.5-0.6 3.3 1.1 2.9 3.6 1.8 5.1 1.1 1.7 2 0.4 3.6-0.2 3.3 1 3.7 0.1 3.8-2 12-10.7 5.2-3.1 6.7-1.3 2.5-1.9 0.4-0.1 0.8 0.3 1.3 3.5 1.6 1.5 1.9 0.2 6.7-1.1 1.9-1 1.4-3.1 0.2-4.9-1-3.4-1.4-3-1.2-3.8-0.5-2.8 0.2-0.6 0.6 0 1-1.2 1.9-1.2 0.1-0.7-0.2-1.2 0.1-1.4 0.4-1.1 3.6-2.2 4.8-0.5 4.8 0.7 8.3 3.2 4.6-0.8 4.6-2.9 4.3-4.8 1.7-3.8 2.1-8.4 1.4-2.3 1.8-0.3 6.7 2.3 8.5-0.4 2.6-1.7 4.2-6.2 2.6-1.3 1.3 0.3 0.7 0.7 0.5 1 7.4 10.1-0.9 0.7-2.4-0.2-2.2 1.2-0.2 1.8 2.5 1.4 0.6 1.5-0.8 1.3-3 1.1-0.7 1.2 0.7 3.2 2.4 2.3 2.8 1.4 9.3 1.5 2.3-0.1 1.1-0.6 1.6-2.3 1.2-0.5 3.9 0.5 1.2-0.2 2.4-1.8 0.9-2.8 0.1-8.2 0.3-0.8 1.2-1.7 0.3-0.8-0.3-1-0.5-0.4-0.6-0.2-0.4-0.6-0.7-2-0.8-1.6-1-1.3-1-1.1-0.4-0.2-1.2 0.4-0.5-0.1-0.4-0.6-1.1-3.2-0.3-1.7-0.6-1.5-1.4-0.9-1.6 0.5-6.2 3.3-4.6 0.3-2.2-0.9-1.5-2.3 0.2-4.5 1.9-3.9 4.8-5.8 1.9-3.9 0.4-3.5-0.1-3.7 0.5-4.7 1.1-3.7 1.6-2.1 6.4-3.8 2-2.1 1.5-2.8 0.5-3.6-0.6-3.5-2.6-6.4-0.7-3.6 0.1-2.2 0.5-1.8 0.5-1.7 0.4-1.9 0.2-1.9-0.3-9.2 0.3-2.5 1.1-1.6 2.3-2 1-0.6 0.7 0 0.5-0.3 0.5-1.5-0.1-1.5-0.9-3.7-0.1-1.6 1.1-3.4 2.1-2.2 2.4-1.9 2.2-2.5 0.6-1.9 0.2-1.6 0.4-1.4 1.2-1.1 4-1.7 1.9 0.1 3.8 0.9 1.9 0 12.7-2.6 3.8-2.2 1.5-1.7 1.8-2.7 0.3 0.4 6.3 2.5 0.6 0.5 0.9 0.9 0 1 0.6 3.3 0.9 2.1 0.7 0.7 0.9 0.3 0.7-0.2 0.7-0.5 2.3-2.3 0.9-0.5 1.2-0.2 1.5 1.1z" id="BLR2344" name="Grodno" data-id="BLR2344" data-name="Grodno">
 </path>
 <path d="M653.8 353.6l0.2 1.7 0.3 0.4 0.5 0.4 2.1 0.6 0.5 0.4 0.2 0.5 0.1 2.2 0.1 0.6 0.8 0.8 0.2 0.5-0.1 0.6-0.8 0.8-2.2 1.3-0.4 0.4-0.2 0.6 0.2 3 0 6.6-0.2 0.7-0.2 0.6-0.7 0.4-1.3 0.5-0.4 0.5-0.1 0.6 0.1 0.9 0.4 0.5 0.8 0.9 0.6 1 0.2 1.2 0.1 0.7-0.1 0.8-0.4 0.8-0.8 1.1-2 2-1 1.5-0.9 0.7-1.5 0.9-0.8 0.9-1 2.1-0.2 0.6-0.1 1.8 0.5 1.3 0.6 1 0.8 1.5 0.3 1.2 0.2 1.4 0 4.2-0.2 2.7 0.2 0.7 0.4 1-0.1 0.6-0.7 1.1-0.3 0.8 0.1 1.1 0.5 0.5 2.3 1.2 0.3 0.5-0.2 0.7-1.4 1.7-0.9 0.9-0.3 0.4-0.1 0.6 0.4 0.6 0.5 0.1 0.6-0.1 2-1.2 0.4-0.1 0.5 0.2 0.2 1.1-0.2 0.8-0.4 0.7-0.8 0.7-2.3 1.2-0.6 0.7 0.3 0.3 0.6 0.1 2.1 0.2 0.6 0.2 0.4 0.4 0.7 0.9 0.5 0.3 0.6 0.1 1.7-0.4 0.6 0 1 0.5 0.8 0.9 0.5 0.3 1.9 0.4 0.4 0.3-0.2 0.8-0.4 0.9-1.2 1.6-1.3 1.4-1.5 0.9-3.3 1.4-0.4 0.4-0.3 0.6 0.1 0.8 0.3 0.5 1.2 0.7 1.4 0.3 0.4 0.4 0.1 0.5-0.3 0.6-0.8 0.7-1.3 0.6-0.5 0.4-0.4 0.6-0.3 1.2-0.4 0.8-0.7 0.4-0.6 0-0.6-0.3-1-1.5-0.8-0.7-0.6-0.2-1.2 0.2-0.9 0.7-0.8 1.1-1.3 2.1-1 1.3-1.7 1.5-8.1 4.4-1.2 0.3-0.7 0-1.3-0.4-0.9-0.7-0.8-0.9-0.5-0.3-2-0.4-1.7-0.6-1.1 0.3-0.9 0.6-4.1 4.2-0.3 0.6-0.2 0.7 0 1.2 0.2 0.7 1 2.3 0.2 1.2-0.2 0.8-0.4 0.9-0.9 1-0.7 0.5-0.7 0.3-9.4 0.8-0.9 0.6 0.2 1.5 0.1 1.7-0.2 1 0 1.5 0.8 3.1 0 1-0.7 0.3-0.6 0.1-3.7-0.3-0.7-0.1-0.7-0.8-1.9-4.3-1.3-1.8-0.1-0.6 0.2-0.7 0.6-1 0.4-0.8 0.1-0.7-0.1-0.7-0.2-0.5-0.4-0.3-0.6 0-0.4 0.3-1.4 1.5-0.4 0-0.4-0.3-0.5-0.9-0.7-0.9-1.1-0.7-1.3-0.1-0.6 0.2-1.3 1-1.2 0.4-9.5-1.8-2.3-1.1-2-1.4-1.1-0.5-0.7-0.1-0.7 0.2-0.7 0.5-0.7 1.1-0.3 0.7 0 0.9 0.2 1.4 0.8 2.2 0 0.7-0.1 0.8-0.5 1.1-0.4 0.7-0.5 0.4-0.5 0.3-4.3 1-0.4 0.6 0.7 0.4 1.5 0.4 0.7 0.2 0.2 0.5-0.1 0.5-1.1 0.9-3.5 1.2-0.5 0.3-1.1 1.3-0.5 0.2-0.6-0.1-2.1-0.5-1.4 0-1.3 0.1-1 0.6-1.6 1.6-1.1 1.5-1.2 2-1.1 2.1 0 2.8 0.3 3.9-0.2 5.4-0.2 1.1-0.5 1.3-0.3 0.5-2.8 3-0.4 1.1-0.1 0.7 0.1 0.6 0.5 0.7 0.6 0.4 5.6 2.2 0.6 0.5 0.6 0.8 0.6 1.6 0.9 1.5 0.2 0.6-0.1 0.7-0.5 1-0.5 0.5-0.6 0.3-5.2 0.7-0.5 0.2-0.4 0.4-0.8 1.8-0.3 0.5-0.5 0.3-0.6 0.1-12.2-0.8-1.3 0.3-0.5 0.7-0.5 0.1-0.4-0.2-2.7-3.6-0.8-0.8-1-0.7-1.6-0.8-0.7-0.1-2 0.2-1.1 0.3-3.1 1.6-0.3 0.5 0 0.8 1.6 3.1 0.3 0.8 0.7 2.8 0.4 1 0.9 0.5 4.3 1.1 2.3 1 0.6 0.4 0.8 0.8 2 3.5 0.7 0.5 0.8 0.3 3.7 0.5 1.3 0.4 3.1 1.8 0.5 0.1 0.6-0.8 0.6-2 0.6-1.1 0.4-0.3 0.6-0.1 3.7 0.5 0.8 1 0.8 1.9 1 4.7 0.8 1.7 0.8 0.9 3.9-0.4 1-0.5 1.3-1.1 1.1-0.5 1.9-0.2 0.6 0.1 0.5 0.3 0.4 0.5 0 0.5-1.2 1.5-0.3 0.8 0.2 1.2 0.2 0.8 2.2 5.7 0 0.8-0.1 1.1-1 4.4-0.1 1.4 0.4 2 0.5 1.2 0.5 0.9 0.2 0.9-0.5 0.1-3.4-0.4-0.8 0.3-0.3 0.5-1.8 5-0.9 1.6-0.9 1.5-0.2 0.5 0 0.6 0.5 0.5 3 2.1 0.4 0.5 0.2 0.6-0.1 0.8-0.4 1.2-0.8 1.2-3 3.4-0.5 1.2-0.2 0.6-0.6 3-0.1 0.7-0.8 1.7-2.2 3.6-12.3 12.5 0.7 1 1.5 1.5 10.3 6.5 6 5.7-0.4 0.2-1.6 2.1 0.3 1 0.3 0.4-0.4 0.7-0.9 0.8-2.3 1.3-1 0.9-0.6 0.8-0.1 0.8-0.2 2.3-0.2 5.7 0.2 3.4 0.7 5.1 0 1.9-0.5 1.1-6.7 5.8-21.6 2.5-1.2-0.2-0.8-0.4-0.9-1.4-0.9-2.1-0.6-1.7-0.8-0.7-1.1-0.6-9-1.9-0.8 0.2-0.8 0.4-1.2 1-0.5 0.8-0.1 0.9 1 1.9 0.3 1.1 0.3 2.6-0.1 1.3-0.3 0.5-0.4 0.4-1.3 0.7-0.6 0.4-0.3 0.5-1.4 0.6-11.6 1.1-3.4-0.7-8.2 0.2-1.3-0.3-5.4-2.9-3.4-2.7-0.6-0.9-0.3-0.5-0.1-1.3 0-1.9 0.3-4-0.2-1.3-0.3-0.5-0.6-0.2-0.8 0.2-0.7 0.6-0.8 1.5-0.7 1.8-0.2 0.4-0.7-0.7-0.7-1.6-1.5-3-0.6-0.1-0.9 0.3-7.2 6.1-0.4-0.2-0.4-1.7-0.3-0.5-0.4-0.3-2.8-0.1-0.7 0.4-0.7 0.9-0.8 2.4-0.6 2.2-0.4 0.6-0.7 0.2-2.9 0.2-0.6 0.3-0.4 0.6-0.1 1.2 0.1 1.6 0.2 1.2 0.4 1.2 0.6 1.6-1.2 2.9-6.6 9.5-13.4-8.3-1.6-1.2 0.1-0.5 0.2-0.5 1.8-2.1 0.3-0.5 0.5-1.3 0.1-0.6 0-0.9-0.3-1-0.6-1.6-0.5-0.7-4.2-3.3-4.5-4.7-1.4-2-0.6-1.3 2-2 0.4-0.5 0.1-0.8-0.5-1.1-2.1-1.9-0.2-0.7 0-0.8 0.8-2.6 0.6-0.9 0.6-0.2 12.4-0.6 1-0.6 0.3-0.5 0.3-1.8 0.1-1.7-0.3-1.7-1.2-2-1-1.6-0.6-0.4-0.6-0.2-5.5 0-3.6-0.7-0.8-0.5-0.8-0.8-3.4-5.5-0.2-0.9 0-0.7 0.6-1.1 0.2-0.7 0-1-0.7-1-3.3-2.3-0.5-0.2-0.5 0.2-0.3 0.4-1.3 1.9-0.8 0.8-0.5 0.2-0.5 0-1.2-0.5-3.6-2.1-10.6-3.3-1-0.6-0.5-0.6-2.3-3.7-2.6-5-0.6-0.8-0.7-0.4-0.6 0.1-3.3 1.2-1.6-0.1-1.2-0.5-0.6-0.5-0.4-0.6-0.2-0.6-0.1-2.4-0.3-1.1-0.5-0.6-2.7-1.2-1.9-1.5-1.2-0.5-0.9-0.2-3 0.6-0.5 0.3-0.4 0.5-0.3 1.3-0.3 2.3-0.4 1.3-0.6 0.4-3.5 0-1 0.5-0.8 0.8-1 1.3-0.9 0.9-0.8 0.3-0.9-0.5-3-4.5-0.4-1 0-0.8 0.6-0.9 2.7-2.1 0.3-0.5 0.1-0.7-0.8-2.1-0.2-0.8-0.3-2-0.4-1.1-4.5-7.6-0.9-2-0.2-1.2 0-0.9 0.3-0.5 1.4-0.8 0.4-0.3 0.6-1.1 0.9-2.6 0.7-1.7 0.6-1.1 0.6-1 0.9-0.7 1.1-0.5 1.3-0.2 4.3 0.5 0.9-0.1 1-0.4 0.1-0.9-0.2-1.3-1.5-3.5-0.4-0.7-3.5-4.2-0.6-0.4-0.7-0.1-7.2-0.4-0.9-0.3-1-0.5-0.5-0.6-0.3-0.7-0.2-2.1-0.2-1-0.5-0.5-1.6-1.1-0.2-0.7-0.1-1.6-0.4-0.5-0.5-0.2-1.9 0.3-0.8 0-0.9-0.2-1.3-0.7-0.6-0.6-0.2-0.7 0-0.8 0.3-1.2 0.8-1.8 1.8-3.2 1.4-1.9 0.9-0.9 1.2-0.9 0.6-0.3 4.3-0.1 0.6-0.1 1-0.6 0.7-0.9 0.2-1.3 0-3.1-0.1-1.1-0.5-1.6-0.5-1-1-1.2-0.4-0.7-0.2-0.8 0.2-6.5 0.2-1.4 19.1-6.4 0.9-0.6-0.7-0.9-0.6-1-0.5-1-0.7-2.4-0.2-1.3 0-1.4 0.6-5.6 0-1.9-0.2-1.1-0.3-0.4-0.8-0.5-0.6 0-2.4 0.5-0.9-0.1-0.5-0.3 0-1 0.3-1.9 1.4-3.2 0.4-1.5 0.1-1.1-0.8-2.1-0.5-0.9-1.6-2.5-0.4-1.1-0.2-0.7-0.3-3-0.4-1.5-0.5-1-0.8-0.9-4.3-2.4-6.6-2-0.6-0.4-0.6-0.7-0.5-1.3-0.1-1.2 0-1.3 0.1-1.9-0.1-1-0.2-0.7-1-0.6-3.6-0.5-1.1-0.6-1.4-1.1-0.8-0.9-1-1.6 0-0.8 0.3-2.4 0-2.6 0.2-1.3 0.4-0.8 0.7-0.1 2.2 0.1 0.6-0.3 0.4-0.4 0.7-1.1 0.5-1.6-0.8-0.9-7.2-3-1.2-0.9-0.7-0.8-0.1-1 0.1-3.3 0.1-1.2 0.2-0.9 0.7-0.9 2-1.2 7.1-2.2 1.1-0.5 1-0.7 1.3-1.2 0.6-1 0.5-1.2 1.1-3.2 0.6-1.1 0.7-0.9 0.5-0.3 3.8-0.9 0.5-1 0.5-1.6 0.5-4-0.1-1.7-0.5-0.9-6.3-0.2-0.6-0.7-0.8-1.4-1.1-5.7-0.4-1.2-0.7-0.3-4.6-0.6-0.7 0.1-0.5 0.5 0.1 1.1-0.1 0.7-0.2 0.6-1 0.6-6.6 1-0.8-0.3-0.9-0.8-1.1-2.3-0.5-1.2-0.2-1.1 0-1.5 0.3-6 0.5-2.6 0.1-1.1-0.3-0.5-0.5-0.4-2.3-1.1-0.5-0.1-0.8 0.5-0.3 0.6-0.5 2.1-0.3 0.5-0.4 0.2-0.5-0.1-3-1.3-1.2-1-0.1-0.6 0-0.7 1-4.4 1.7-5.1 0.7-0.9 0.5-0.2 3 0.3 1.2-0.2 0.5-0.3 6.1-5.4 1.8-0.5 1.4-0.1 5 1 11.6-2.2 0.6-0.3 0.8-0.7 1.1-1.5 4.1-4.3 1.2-2 2-4.3 6.5-17.3 1.2-4.2 0.7-1.1 1.9-1.4 0.5-0.6 0.7-1.2 0.2-1.8 0.2-2.8-0.2-1.7-0.4-1.3-1-1.7-0.5-0.9-0.3-1 0-1.8-0.1-0.6-0.5-1.4 0.1-0.8 0.7 0 3.2 2.2 0.9 0.4 0.7 0.1 0.5-0.5 0.2-1 0.1-4.8 0.3-1 0.4-0.4 1.1 0.2 0.7 0 0.6-0.3 0.7-1 0-0.7-0.8-2.1-0.2-1.9 0.4-3 0-1.4-0.2-0.7-0.5 0-2.6 1.3-0.8 0.3-0.7-0.2-1.8-1.2-2-0.6-0.5-0.5-0.4-0.8-0.3-1.5-0.3-0.9-0.4-0.9-1-1.8-1-2.5-1.3-2.8-0.4-0.9-0.2-1.5 0.1-1.1 0.5-2.6-0.1-1.2-0.2-1.1-0.3-0.5-0.6-0.3-2.1-0.9-0.7-0.5-0.6-0.5-5.6-8.7-2.3-2.8-0.6-0.3-1.6-0.2-1-0.3-1.2-0.6-1.3-0.8-1.1-1-1-1.1-0.7-1.1-0.7-1.5 0-1.2 0.2-3.7-0.2-1.6-0.8-2-1.3-2.4-0.1-0.7 0.2-0.6 0.4-0.3 1.9-1 0.8-1 1.1-0.8 0.7-0.9 0.1-0.5-0.3-1.2-0.1-0.8 0-0.9 0.3-0.9 0.5-0.6 0.7-0.4 0.7-0.1 1.1 0.3 3.9 2.1 2.2 0.8 3 0.5 5.7-0.4 0.9 0.4 1 0.9 0.9 0.5 1 0.4 1.5-0.1 1.1-0.4 0.9-0.7 0.6-0.8 0.4-0.9 0.3-0.2 0.9-0.2 2.4-0.2 3.2 0.2 0.9 0.3 0.8 0.6 1.2 1.2 0.6 0.8 0.6 1.3 0.5 0.4 0.6 0.2 1.2-0.2 1.3-0.6 3.2-2.7 1.1-0.4 10.7-1.8 0.8 0.2 0.8 0.4 1.3 1.9 0.7 1.2 0.5 0.4 0.8 0.4 4.1 0.4 7.9-0.5 1.2-0.4 0.5-0.2 0.3-0.6 0.1-0.6-0.1-1.3-0.5-1.9-0.1-1.2 0.2-0.5 3.3-2.6 1 0.1 7.5 2.1 5.7-1.4 0.8 0.2 1 0.5 1.4 1.3 0.6 0.9 0.3 0.8-0.3 1.2-2.8 4.1-0.2 0.5 0.1 0.5 0.3 0.6 2.7 2.2 0.9 1 1.9 3 0.5 1.1 0.4 1.2 0.2 2.8 0.3 0.6 0.6 0.4 2.1 0.2 5.6-0.6 0.8 0.1 0.8 0.4 1 1 1 1.3 0.6 1.2 0.3 0.4 8.1 6.9 0.4 0.5 0.2 1.3-0.7 2.9-0.1 0.7 0.2 0.7 0.8 0.5 10.1 1.7 5.4 3.5 1.1 1.1 0.6 0.9-0.1 1.5-0.4 1.4-0.5 1.3-0.5 1.1 0.1 0.9 0.6 1 1.5 1.7 0.4 1 0.1 0.8 0.4 1 0.9 1 2.5 2.2 0.7 1.1 0.3 0.8 0.7 0.7 6 1.8 1.8 0.1 1.2-0.2 0.4-0.4 1.8-2.4 0.5-0.3 0.6 0 0.7 0.1 1.3 0.5 0.5 0.5 0.4 0.8 0 0.8 0.1 2.3 0.3 0.5 0.4 0.5 1.6-0.2 11.4-3.5 0.7 0.1 4.8 1.3 0.9-0.2 0.8-0.3 0.4-0.4 2.3-1.7 2.3-0.9 5.1-1 2.9 0.3 0.8 0.3 0.7 0.6 1.4 1.6 0.6 1 0.6 1.4 0.8 1.6 0.7 0.9 0.8 0.9 3.6 2.1 1.2 1.3 0.6 0.9 0.4 1.4 0.4 1.1 0.8 0.7 4 2.1 1.9 0.1 1-0.3 0.4-0.6 3.2-9.2 0.2-0.7 0.8-1.9 1-3.4 0.7-1.1 0.5-0.3 8.3-2.6 0.6 0 0.5 0.2 0.5 0.9 0.5 1.4 0.3 1.2 0.2 0.6 0.4 0.3 0.8-0.1 1-0.7 2.2-2.9 0.4-0.4 0.6 0.2 0.8 0.7 1.3 2.1 0.2 1.1 0 0.9-1.5 2.8-0.3 1.4 0.1 1.4 0.5 1.8 0.5 0.6 0.7 0.7 6.3 2.3 0.6 0 0.6-0.1 0.9-0.7 1.2-1.3 0.5-0.3 0.7 0 4.6 0.6 0.7 0.2 0.6 0.3 0.4 1.7 0 1.5 0.4 0.6 1 0.1 1.4-0.2 1.2-0.3 0.8-0.9 1-1.7 0.3-1.1-0.2-0.5-1.8-2.3-0.3-1.1 0.4-1.3 0.4-2 0.3-0.6 0.4-0.3 0.6-0.1 13.5 2.5 2.9 0 1.9-0.5 0.9-0.6 0.4-0.4 1.5-2.9 0.8-0.9 2.1-1.1 2.3-0.9 0.8 0.2-0.2 0.4-0.9 0.9-0.3 0.5-0.1 0.5 0.2 0.6 0.6 0.5 0.7 0.2 0.6-0.1 2.4-0.7 2.2-1 1.2-0.3 0.8 0.6 0.6 1.2 0.6 3 0.2 1.6 0 1.2-0.1 1.6 0.2 1.2 0.5 0.2 3.5 0.1 1.2 0.2 2.2 1.2 0.6 0.1 0.5-0.2 2.7-2.2 1-0.6 1.1-0.5 0.7 0 1.4 0.2 2.5 1 3 0.6 0.6 0 1-0.6 0.7-1.1 0.2-1.5-0.1-2.1 0.1-0.6 0.3-0.3 0.6-0.1 1.4 0.4 0.6 0.7 0.6 1 0.7 3.9 0 1-0.4 0.7-3.5 3.2-1.6 1.8-0.2 0.6 0 0.6 0.3 0.7 1.5 1.9 0.2 0.7 0 0.8-0.5 1.1-0.8 1.3-1.1 1.4-0.9 1.8-1.3 15-0.7 3.3-0.7 1.9-0.6 0.1-0.5 0.5-0.3 0.7-0.3 1.3-0.4 0.8-0.4 0.6-0.7 0.7-0.1 0.6 1 1 1.2 1.1 2.1 3.4 0.2 0.6-0.1 0.8-0.4 1.1-0.4 0.7-0.5 0.5-3.1 2.7-0.6 1-0.3 1.3-0.3 3.8 0.1 0.8 0.2 0.8 1.1 1.5 0.8 0.3 0.7 0 3.3-1.1z m-165 38.3l-2.8-0.9-2.9 2.7-2.9 1.7-4.2 1.4-2.6 0-4.1-1.6-1.1-0.2-3.4-1.3-4.2-0.9-6.5-0.9-6.5 1.3-3.4 2.2-2.4 5.8-1 7.6-0.5 4.8 0 5.4 1.3 4.8 4.1 0.9 5.8 2.7 3.9 1.3 1.8 3.5 2.4 0.9 2.9-3.5 7-0.9 3.9-0.4 2.6 0.9 5 0.4 4.4-0.9 2.9-4.4-1-4.4-3.4-2.7-1.3-5.8 0.5-4.4 2.9-5.3 3.1-3.6-0.3-6.2z" id="BLR2345" name="Minsk" data-id="BLR2345" data-name="Minsk">
 </path>
 <path d="M488.8 391.9l0.3 6.2-3.1 3.6-2.9 5.3-0.5 4.4 1.3 5.8 3.4 2.7 1 4.4-2.9 4.4-4.4 0.9-5-0.4-2.6-0.9-3.9 0.4-7 0.9-2.9 3.5-2.4-0.9-1.8-3.5-3.9-1.3-5.8-2.7-4.1-0.9-1.3-4.8 0-5.4 0.5-4.8 1-7.6 2.4-5.8 3.4-2.2 6.5-1.3 6.5 0.9 4.2 0.9 3.4 1.3 1.1 0.2 4.1 1.6 2.6 0 4.2-1.4 2.9-1.7 2.9-2.7 2.8 0.9z" id="BLR4825" name="City of Minsk" data-id="BLR4825" data-name="City of Minsk">
 </path>
 <circle cx="483.4" cy="436.2" id="0">
 </circle>
 <circle cx="725.7" cy="464.3" id="1">
 </circle>
 <circle cx="601.8" cy="350.3" id="2">
 </circle>
</svg>