<?xml version="1.0"?>
<!--
************* Copyright (c) 2017 Pareto Softare, LLC DBA Simplemaps.com *******************		
************* Free for Commercial Use, full terms at  http://simplemaps.com/resources/svg-license ************
************* Attribution is appreciated! http://simplemaps.com ***************************
-->
<svg baseprofile="tiny" fill="#7c7c7c" height="1559" stroke="#ffffff" stroke-linecap="round" stroke-linejoin="round" stroke-width="2" version="1.2" viewbox="0 0 1000 1559" width="1000" xmlns="http://www.w3.org/2000/svg">
 <path d="M307.9 1378.4l-2 2.8-4.1-4.5 2.7-1.4 0.3-2.9 4.2-5.1 0.1 2.1-1.1 1.2 3.9 3-2.9 2.6-1.1 2.2z m234.4-195.9l-3.2 0.5 2.7-4.7 5 0.3 1.6 3.1-6.1 0.8z m66.8-97.6l0.5 8.2-1.6-1.8-1-4.9 2.1-1.5z m37.8-83.3l-1.9-1.6-1.9-2.9 2-3.7 1.8 8.2z m10.8-44.7l-2.7 7.2-0.8-3-0.3-7.1 3.9-4.7-0.1 7.6z m30.4-115.4l-1.5 4.6-2.4-0.3-6.1 0.3-3.9 2.7 3.4-9.2 9.6-0.9 0.9 2.8z m257.3-50.8l-2.3 6.5 0.7-9.4 3.9-10.9 4.2 2.8-0.3 3.7-6.2 7.3z m-292.6-6.4l-1.3 0.2 0-5.1 2.5-5.1 3.8 2.4-1.9 4-3.2 2.4 0.1 1.2z m4.7-47.1l-2.1-4.1 0.3-11.4 1.8-5.9 1.8-1 2.9 6.4-1.3 10.3-3.4 5.7z m16.7-71.3l-4.3 4.6-4-6-0.6-3.9 4.3-3.2 4.6 8.5z m322.9-33.2l-2.8 1.5-8.3-3.8-0.2-3.4 4.8-4.2 6.1 1 2.3 4.8-1.9 4.1z m-373.7-47.4l-1.7 8.2-3.7-3.6-2.4-3.5-1.1-5.2 3.6-0.5 4.3 2.9 1 1.7z m-22.4-8.8l-0.9-1.9-1.5-7.9 4.6 0.3 1.9 3.7-0.3 3.1-3.8 2.7z m2.6-12.8l-3.2 2.6-0.3-4.5 3.5-6.9 2.8-3.1 1 4.7-3.8 7.2z m88.1-115l-8.7 9.7-1-3.3 2.2-5.7 2.5 1 2.4-3.3-0.4-4.1-2.8-2.5 1-5.6 0.6-7 2.9-5.5 2.8-0.3-2.3 5.6-0.9 10.7 1.7 10.3z m-16.7-61.9l-6.9 1.1-3.5-4.9 8.9 0.7 6.2 1-4.7 2.1z" id="BLZ99" name="" data-id="BLZ99" data-name="">
 </path>
 <path d="M817 704.2l0.1 14.2-3.9 0 0-8.2-3.2 1-2.2 1.7-2.7 5.5 0.5-36.2-2-15-6.3-6.2 7.2-6.4 6.6 10.7 9.5 28.6-2.6 4.4-1 5.9z m-155.6-112l5.3 7.8-1.2 5.9-1.6 2.7-0.2 3.6-2.4 5.4-3.9-0.4-1-5-0.8-12.4-0.8-2.6-4.5 0.6-4.9-2.3-5.2-7.1-1.8-1.7 0.1-3.5 3.8-2.6 8.5 3.4 10.6 8.2z m163.9-16.9l3.5 11.9-2.4 9-11.7 23.4-7.6 10.2-5.8 10.1-8.2 5.5-11.3-8.9-5.9 9.7-7.2 5.6-6.5 7.2-4.1 14.5-3.6 26.7-1.4 4.4-2.9 6-2.5 7.5-0.6 8.4-8.1-8.1 2.1-2 1.8-6.2 1.3-12.7 5.3-21 2.7-28.6 4.6-9.5 7.3-6.8 9.9-7.3 11.7-12.2 5.7-0.5 8.5 3.5 7.1 1 5.5-5.2 4.4-11.7 1.1-12.5-4.8-7.6-6.3 5.6-5.2 3-4.4-0.5 0.3-3.8 5.7-16.2 6.9 0.2 8.1 2 7 5.9z m-145-12.5l-3.9 0-2.9-5.8-5-14.2-7.3-33.1 7.8 6.7 5.7 14.5 5.6 31.9z m-51.9-71.1l-18.5 1.7 0-2.8 0.8-1.9 3.1-3.5 12-5.6 32.3-22.2 6.6-3-5.2 19.4-13.3 11.9-17.8 6z m-88 320l-7.4 7.9-11.7 4.5-3 1.7-5.3 1.8-150.9 2.8 12.8-4.7 1.8-1 2.4-2.6 2-3.6 0.6-3 2-3.7 2.4-2.1 1.2-3 2-6.5 0.7-4.2 2.9-7.1 0.1-5.5-0.5-6.6-4.8-11.4-6.4-9.3-0.7-3.1 0.7-21.9-5.7-119-1.4-8.2-2.1-3.5-4.8 2.4-3.4 7.5-3.4 5.9-13.4 5.7-7.1-86.6 0.4-10.7 7.3-21 6.5-10.1 16.8-7.9 5.8-1.7 4.6-2.1 2.7-2.7 0.3-3.9-0.7-3.1-2.9-7.8-0.3-4.2 1.8-14.2-0.1-3.4-1.8-13.4 0.2-6 3.5-15.8 0.2-7.8-0.5-3.6-2.1-8-0.3-4.3 0.6-6.1 1.2-5.1 3.6-10.4 30.1-17.3 126.4-32.8 66.9 7.4-23.6 46.7 3.4 15.5-6.8 49.7-13.9 49.4-4.6 10-14.8 17.8-6 10.9-2.5 12.8 2.5 14.3 6.9 7.3 20.3 10.4 4.2 9 5.4 5 23.9 4.2 5.3 4.9-6.8 11.6-14.7-0.1-14.6-2.2-6.6 5.4-1.5 9.2-23.5 79-5.5 60.6-0.6 12.5-2 23.4 4 12.6 2.3 12.5z m181.6-560.2l-6.2 1.1-1.7-3.7 4.1-6 2.9-1.9 1.8-0.1 3.2-1.4 1.7 1.7-1.2 6.2-4.6 4.1z m16.1-12.2l-4.7 3.6-2-0.4-1.6-5.5 0.9-2.1 3-1.6 3-2.6 1-3.3 2-3.1 1.3 2.4 0.5 6.4-3.4 6.2z m54.1-37.4l-1 13.3-7.5 7-4.2 6.7-11.6 32.3-5.6 10.8-3.9-2.7-3.9-1.8-1.4 6.3-2.1 4.5-3.3 3.2-4.8 2.4 0 4 4.2 8.6 5.3-7.8 1.3-3.6 0.8-5.3 3.6 0-4.5 25.9-11.1 23.8-17.8 17.5-24.6 6.7 0-4 7.8 0 20.7-15 7.4-10.5 3-15.4-9 0.5 2.4-18.6 10.5-37.5 1.2-2.6 5.4-5 1.1-4.7 0.4-5.8 8.4-31.6 5.6-5.3 9 3.8 12.5-8.3 5.7 8.2z m-15.3-27.9l-0.3 3.1-2 6-5.5 7-3.2-2.8 1.5-10.3 2.3-3.6 2.1 0.2-0.7-3.6 3.4 0.6 2.1 1 0.3 2.4z" id="BLZ1323" name="Belize" data-id="BLZ1323" data-name="Belize">
 </path>
 <path d="M362.1 830.4l-1.9 5.8 2.1 5 8.2 13.6 7.9 6.8 3.9 4.2-0.2 5-2.7 2.7-3.1 2.2-2 2.7-5.8 12.1-3.4 9.5-3.6 6.8-3.5 5-6.6 4.9-2.8 2.6-3.9 6.8-17.1 19-1 2.9 0.5 5.1-0.1 3.4-1.3 8.2-0.2 3 0.9 7.5-1.5 5.5-3.4 3.5-5.4 2.6-3.3 3.1-1 1.9 0.5 2.2 7.5 5.4 2.2 2.4-0.3 1.9-1.7 1.5-2.3 0.7-10.2 1.7-10.9 3.8-3.1 2.1-2.8 2.7-15.7 24.3-3.3 8.9-6.1 11.3-3.2 11.7 0 2.5 1.9 7.6-9.6 0.5-4.4 2.4-4.9 4.7-6.1 7.8-1.5 2.9-0.5 2.5 2.5 10 0.4 3.1-1.6 6.2-11.5 11.8-9.2 7.1-2.5 1.1-4.6 1.3-4 2.1-15.3 11.8-5.1 3.1-3.5 1-2.7-0.5-3.4 0.7-6.4 3-5.7 4.5-2.6 3.8 0.7 7-2.3 1.8-22.5 8.5-5.6 0.7-1.8-1.1-3.9-4.1-3.6-2.9-2.7-0.9-1.5 0.8-3.6 4.3-11.7 11.3-4.4 3.2-3.7 1.9-9.6 1.1-6.3 1.9-7.5 0.5-20 8.3-2.6 1.7-4.3 5.7-0.8 4.3-2.5 4.9-3.9 4.8-6.1 7.1-6.2 9.6 5-61.3 10.4-167.1 9.6-154.4-0.8-169.8 17.1-14.2 23.7-15.8 8-2.9 6.3-0.4 4.5 1.8 4.6 1.1 66.2-7.5 7.9-2.7 5.9-4.1 3.3-4.9 4.2-4.6 3.8-1.4 8.5 1.5 10.2 0.7 13.4-0.6 5.9 0.4 8.2-0.8 15.3 0.7 12.9-1.7 10.2-3.7 16.8-11.3 9.7-3.6 6.6-1.1 11.6-5.7 4.3-1.1 8.1 2.6 13.4-5.7 3.4-5.9 3.4-7.5 4.8-2.4 2.1 3.5 1.4 8.2 5.7 119-0.7 21.9 0.7 3.1 6.4 9.3 4.8 11.4 0.5 6.6-0.1 5.5-2.9 7.1-0.7 4.2-2 6.5-1.2 3-2.4 2.1-2 3.7-0.6 3-2 3.6-2.4 2.6-1.8 1-12.8 4.7z" id="BLZ1324" name="Cayo" data-id="BLZ1324" data-name="Cayo">
 </path>
 <path d="M610.2 319.3l-66.9-7.4-78.3-71.3-41.4-56.7-26-19.3-36.3-16.1-5.8-1.2 0.5-2.1 1-9.5 2.1-10.2 5.5-9.7 17.6-20.4 7.1-11.2 1.9-6.9 2.3-15.2 5.1-14.5 3.1-18.1 2.9-6.5 4.4-4.5 17.6-13.7 5.7 0.6 5.3 3 5.9 1.6 5-0.7 11.4-4.1 6.1-3.1 3.9-1.1 3 1.1 5.4 5.3 4.4 2.6 3.3-0.5 3.3-1.9 4.4-1.2 35.3-0.3 3.2 0.6 0 2.1 9.8 9-11.2 14.7-44.1 32-4.1 8.7 6.5 9.4 8 0.5 27.3-12.5-3.2 8.8-5.3 9.2-13 16.7-3.2 5.3 1.7 2.7 4.4-0.3 5-3.6 9.6-10.9 18.9-13.7 8.9-4.2 9.4-1.8 12.8 1.8 16.5 8.1 7.5 2.4 12.1-1.8 17.2-12 19.7-6.2 6.7-0.9 3 2.3-1.1 8.4-3.2 5.6-11.3 8.7-13 5.6-2.5 2.6-0.2 6.5 4.1 1.4 5-2.1 4.3-7.1 4.6-3.3 5.8-2.5 5.6-1.1 1.8 3.3 4.6 70.9-4.5 55-1.9 9.4-7.9 14.3-1.9 9.4-21.4 55-9.8 6.8z" id="BLZ1325" name="Corozal" data-id="BLZ1325" data-name="Corozal">
 </path>
 <path d="M543.3 311.9l-126.4 32.8-30.1 17.3-3.6 10.4-1.2 5.1-0.6 6.1 0.3 4.3 2.1 8 0.5 3.6-0.2 7.8-3.5 15.8-0.2 6 1.8 13.4 0.1 3.4-1.8 14.2 0.3 4.2 2.9 7.8 0.7 3.1-0.3 3.9-2.7 2.7-4.6 2.1-5.8 1.7-16.8 7.9-6.5 10.1-7.3 21-0.4 10.7 7.1 86.6-8.1-2.6-4.3 1.1-11.6 5.7-6.6 1.1-9.7 3.6-16.8 11.3-10.2 3.7-12.9 1.7-15.3-0.7-8.2 0.8-5.9-0.4-13.4 0.6-10.2-0.7-8.5-1.5-3.8 1.4-4.2 4.6-3.3 4.9-5.9 4.1-7.9 2.7-66.2 7.5-4.6-1.1-4.5-1.8-6.3 0.4-8 2.9-23.7 15.8-17.1 14.2-5.6-294.7-0.5-52.1 4.2-23.8 12.2-17.5 47.3-17.3 12.2 4.3 9.4 8.5 8.6 9.6 9.5 7.4 6.8 0.7 6.5-1.3 5.4 1.2 7.8 16.8 7.3 5.7 22.9 13.4 5.1-1.5 3.4-4.8 2.6-13.2 2.5-4.3 29.1-22 5.3-6.3 8.2-23.5 2.7-5.4 8.4-7.1 7.8-4.6 6.8-5.2 5.6-8.8 1.8-6.5 1.7-13.5 1.6-6 14.1-23.9 1.9-6.8-1.9-8.3-2.1-1.8 16.2-12.1 16.6-8 6.8-5.2 5.7-9.1 1.7-6.9 5.8 1.2 36.3 16.1 26 19.3 41.4 56.7 78.3 71.3z" id="BLZ1326" name="Orange Walk" data-id="BLZ1326" data-name="Orange Walk">
 </path>
 <path d="M483.1 1191.4l-6.6-2.7-1.5-4.5-2.4-0.6-5.7-0.4-11.8 1.9-5.7-0.9-5.9-0.2-2.4 0.3-22.4-1.4-5.2 0.6-23.1-3.3-3.4-1.5 0.9-2.5 2.3-3.8 1.2-14.3 0.8-3.6 0.1-4.3-1.1-3-2.3-4.5-5.5-9.5-3.7-5.4-6.9-7.7-2.5-3.3-0.2-3 2.1-5.4 0.1-4.9-1.5-2.5-1.7-5.1-1.6-2.7-2.9-2.6-19.8-11.1-8.4-1.9-12.9-1.6-42.7 1.1-16.5 5.4-1.9-7.6 0-2.5 3.2-11.7 6.1-11.3 3.3-8.9 15.7-24.3 2.8-2.7 3.1-2.1 10.9-3.8 10.2-1.7 2.3-0.7 1.7-1.5 0.3-1.9-2.2-2.4-7.5-5.4-0.5-2.2 1-1.9 3.3-3.1 5.4-2.6 3.4-3.5 1.5-5.5-0.9-7.5 0.2-3 1.3-8.2 0.1-3.4-0.5-5.1 1-2.9 17.1-19 3.9-6.8 2.8-2.6 6.6-4.9 3.5-5 3.6-6.8 3.4-9.5 5.8-12.1 2-2.7 3.1-2.2 2.7-2.7 0.2-5-3.9-4.2-7.9-6.8-8.2-13.6-2.1-5 1.9-5.8 150.9-2.8 5.3-1.8 3-1.7 11.7-4.5 7.4-7.9 0.5 5.3 3 13.7 2.2 7.4 5.4 3.1 12.1 4.1 7 9.1 4.7 11.5 2.7 12.9 1.5 18.9 3.2 14.5-1.3 6.9-3.6 1.5-5 0-5.6 2-6.2 5.8-7.8 9-6.6 10.3-2.7 9.6 2.5 11 11.1 17.5 2.2 10.3 3 1.6 1.5 2.7-0.6 3.5-2.1 0.5-7.5-1-2.4 0.5-7.2 5.8-2.9 3.6-1.2 5.4-1.2 2.9-2.8 2.9-2.9 4-1.2 6.2 0.6 7.1 2.7 9.4 0.6 5.8-5.3 42.2-3.5 6.4-5 5.1-5.7 7.6-6.5 24.3-3.1 7.4-1.9 10.5 3.7 15-2.3 5.4-4.1 5.3-3.8 0.4-1.7-9.3 17.8-67.5 9.6-10.2 3.7-6-15.1 7.8-15.3 38.9-12.4 14.5 3.7 0.6 8 3.9-3.9 1.9-3 0.9-3.5-0.6-5.2-2.2 1.2 5.2 1.4 2.4 3 0.7 6-0.2 0 3.7-6 4-4.3 6-1 7.2 1.5 3.1z" id="BLZ1355" name="Stann Creek" data-id="BLZ1355" data-name="Stann Creek">
 </path>
 <path d="M483.1 1191.4l2.1 4.4-10.7 8-11.7 23.5-10.7 5-1.1 3.2-1 14.1 0.2 2.9-3.3 2-3 0.1-1.9-1-3.6 1.4-4.1 5.6-7.3 17.8-2.3 2.9-4.4 2.5-15 19.8-1.7 3.1-2.4 7.8-2 4.6 0.8 5.1-2 2-4.6-0.7-4.1 1.8-6.9 1.5-2.6 1.5-1.2 2.3-2.7 9.5 0-24.7-3.9 0-3.9 12.9-8 1.9-7.8-5-3.6-7.6-2.2-3.4-4.8-0.4-6.8 1.6-0.7 2.1 0.3 10.4-1.7 4-4.1 1.4-19.2 2.7-3.3 2.2-2.7 2.8-4.1 2.5-7.6 1-8.1 3.7-2.3 9.3 1.2 23.1-2.1 12.3-5.4 9-8 5.5-9.9 1.9-2.9 1.5-3.4 3.8-2.8 4.6-2.5 10.3-3.5 3-4.9 1.9-5.5 3.2-6.3 5.4-2.8 3.1-2.6 3.6-1.3 6.6 0.4 6.6-1.5 5.1-14.9 4.3-9.8 6-9.6 7.9-6.4 8.1-2 14.7 11.9 24.7-2.1 13.8-21.6 8.5-50.4-13.1-18.2 0.2-16.3 2.7-43.6-2-10.4 4.3-5.2 0.3-6.6 2.3-5.4 2.7-1.3 1.9-4.7-7.7 1.4-36.2 14.5-137 8.8-122.6 6.2-9.6 6.1-7.1 3.9-4.8 2.5-4.9 0.8-4.3 4.3-5.7 2.6-1.7 20-8.3 7.5-0.5 6.3-1.9 9.6-1.1 3.7-1.9 4.4-3.2 11.7-11.3 3.6-4.3 1.5-0.8 2.7 0.9 3.6 2.9 3.9 4.1 1.8 1.1 5.6-0.7 22.5-8.5 2.3-1.8-0.7-7 2.6-3.8 5.7-4.5 6.4-3 3.4-0.7 2.7 0.5 3.5-1 5.1-3.1 15.3-11.8 4-2.1 4.6-1.3 2.5-1.1 9.2-7.1 11.5-11.8 1.6-6.2-0.4-3.1-2.5-10 0.5-2.5 1.5-2.9 6.1-7.8 4.9-4.7 4.4-2.4 9.6-0.5 16.5-5.4 42.7-1.1 12.9 1.6 8.4 1.9 19.8 11.1 2.9 2.6 1.6 2.7 1.7 5.1 1.5 2.5-0.1 4.9-2.1 5.4 0.2 3 2.5 3.3 6.9 7.7 3.7 5.4 5.5 9.5 2.3 4.5 1.1 3-0.1 4.3-0.8 3.6-1.2 14.3-2.3 3.8-0.9 2.5 3.4 1.5 23.1 3.3 5.2-0.6 22.4 1.4 2.4-0.3 5.9 0.2 5.7 0.9 11.8-1.9 5.7 0.4 2.4 0.6 1.5 4.5 6.6 2.7z" id="BLZ1356" name="Toledo" data-id="BLZ1356" data-name="Toledo">
 </path>
 <circle cx="343" cy="1063.2" id="0">
 </circle>
 <circle cx="231.8" cy="1181.5" id="1">
 </circle>
 <circle cx="495.1" cy="389.6" id="2">
 </circle>
</svg>