<?xml version="1.0"?>
<!--
************* Copyright (c) 2017 Pareto Softare, LLC DBA Simplemaps.com *******************		
************* Free for Commercial Use, full terms at  http://simplemaps.com/resources/svg-license ************
************* Attribution is appreciated! http://simplemaps.com ***************************
-->
<svg baseprofile="tiny" fill="#7c7c7c" height="996" stroke="#ffffff" stroke-linecap="round" stroke-linejoin="round" stroke-width="2" version="1.2" viewbox="0 0 1000 996" width="1000" xmlns="http://www.w3.org/2000/svg">
 <path d="M537.3 65.6l1.2 0.8 1 0.5 2.2 0.5 0.5 0.2 0.9 0.5 6.4 5.2 0.8 0.4 0.7 0.1 1.2 0.1 0.5 0 0.5 0.3 0.6 3.4 0.6 0.9 0.6 0.5 0.7 0.4 1.7 0.6 0.2 0.4 2.4 0.5 1.2 0.1 3.6-1.3 0.4-0.6 1.1 0.4 1.7 1.1 1.8-1.3 0.6-0.1 1.8-0.1 0.8-0.2 0.8-0.4 0.6 0.4 0.5 0.2 0.5 0.1 0.7 0 0.6 0.1 0.6 0.8 1.4 0.4 1.6 1.3 0.8 0.2 0.6 0.1 0.8 0.2 1 0.2 0.6 0.5 0.3 0.1 1.1-0.3 1-0.6 0.9-0.3 0.9 0.3 0.3 0 2 0.6 0.6 0 0.6 0 0.5-0.2 0.4 0.1 0.1 0.2-0.1 0.9-0.3 1.4-0.4 0.8-0.6 1.1-0.5 0.5-1.8 1.5-0.5 0.6-2.1 2.7-0.5 0.6-0.7 0.4-0.6 0.3-0.6 0-0.6-0.2-1.1-0.9-0.7-0.3-0.6-0.1-0.6-0.1-1.2 0.1-0.6-0.1-0.7-0.2-0.6-0.4-0.6-0.6-0.6-0.4-0.6-0.1-0.6 0-0.7 0.3-1.1 0.9-4.6 5-0.6 0.4-1.2 0.5-0.5 0.1-1 0.1-0.9 0-2.1-0.4-0.7 0.1-0.6 0.4-0.7 0.5-1.5 0.8-0.6 0.2-3.9 1-5.1 1.8-0.6 0.3-0.5 0.5-0.4 0.5-0.5 0.6-0.4 0.7-0.3 0.9 0 1.1 0.2 0.9 0.6 0.9 0.7 0.5 0.6 0.4 0.6 0.2 2.6 0.5 1.3 0.4 0.6 0.2 0.6 0.4 0.5 0.7 0.4 0.9 0.2 1.4 0 1-1 6.1 0.1 1.3 0.1 0.8 0.3 0.8 0.6 1 0.3 0.5 0.3 0.3 0.3 0.1 0.6 0.1 0.5 0 0.4-0.2 0.5-0.3 1-1 4.2-5.2 1.1-1.1 1.1-0.8 1-0.4 0.5-0.2 0.7-0.1 0.6 0.1 0.6 0.2 0.5 0.6 0.4 0.8 0.1 1.4-0.1 1-0.2 0.9-0.6 1.6-1.5 3-0.2 0.6-0.2 0.7-0.2 1.9-0.2 0.6-0.3 0.6-0.9 1.4-0.4 0.5-0.2 0.6 0 1 0.6 4.7-0.2 0.9-1.1 1.9-0.3 0.6-0.1 0.8 0.3 0.8 0.7 1.3 2.9 3.7 1.3 1.3 0.7 0.5 0.6 0.4 0.6 0.3 0.9 0.3 0.5 0.1 0.6 0 0.7 0 7.5-1.6 0.8-0.1 1.1 0.1 0.6 0.1 0.4 0.2 0.5 0.3 0.6 0.4 0.6 0.7 0.4 0.7 1 1.2 0.7 0.6 1.3 0.8 5 2.4 3.8 2.7 0.5 0.6 0.4 1 0.4 1.3 0.4 3.8 0 1-0.5 0.4-0.5 0.2-0.6-0.1-0.6-0.1-0.6-0.2-3.2-1.4-1.2-0.3-8.1-1.5-0.6 0.1-0.7 0.3-5.5 4.1-5 3-1.3 0.6-0.7 0-0.7 0-0.6-0.3-0.6-0.4-3.3-3.5-0.5-0.3-0.3-0.1-0.3 0.3 0 0.8-0.2 0.3-0.7 0-0.4 0.1-0.5 0.3-0.1 0.6 0.1 0.7-0.2 0.5-0.4 0.6-0.4 0.3-0.3 0-0.8-0.1-0.5 0.1-0.1 0.4 0.1 0.8-0.2 0.4-0.2 0.1-0.5 0.1-0.2 0.1-0.2 0.6-0.2 0.2-0.5 0.1-0.4 0.6-0.3 0.2-0.9-0.1-0.3 0.1-0.7 0.3-0.6 0.3-0.8 0.2-0.7 0.2-0.4-0.1-0.4-0.3-0.3-0.3-0.5-0.3-0.5-0.1-0.7 0-0.4-0.3-0.4-0.5-1-1.6-0.4-0.5-0.6-0.4-2.3-1-0.7-0.2-0.6 0.1-0.4 0.3-0.1 0.6 0 0.7 0.4 1.4 0 0.7-0.1 0.7-3.3 6-0.3 1.1-1.3 8.5-0.5 1.4-0.3 0.7-0.3 0.7-0.5 0.6-1.2 1.2-1.3 1.1-3.8 2.4-1.2 1.2-0.4 0.6-0.4 0.6-0.2 0.6-0.2 0.9 0.3 0.3 1.4-0.2 0.4 0 0.7 0.3 0.3-0.1 0.5-0.2 0.4 0 0.6 0.3 0.4 0.1 0.4 0 0.4 0 0.8 0.3 0.9 0.1 0.3 0.2 0.7 0.6 0.5 0.2 0.5 0.2 0.6 0 0.5 0.2 0.8 0.7 1.4 0.7 0.4 0.2 1 1.2 0.2 0.2 0.5 0.3 0.6 0.6 0.7 0.7 0.4 0.3 0.4 0.2 0.4 0.3 0.4 0.6 1.4 3.3 0.5 0.7 0.7 1.9 0.4 0.5 0.6 0.6 0.2 0.3 1.4 2.3 0.4 1.1 0.5 1.1 0.3 1 0.3 0.5 0.4 0.3 0.2 0.3 0.2 0.7 0.1 0.4 0.2 0.5 0.2 0.6 1.3 1.7 0.2 0.4 0.3 0.8 0 0.9-0.2 0.8 0 0.7 0.3 1.3-0.1 0.9 0.1 0.3 0.6 1.4 0.4 1.1 0.8 1.8 0.3 0.8-0.3 1.6-0.1 2.9 0.1 0.6 0.3 1 0.6 0.9 1.4 1.8 0.9 0.9 0.2 0.4 0.6 1.8 0.5 3 0.4 1.6 1.4 3.4 1.2 2 3.9 4.6 0.7 0.9 2 4.6 1 1.6 5.5 6.3 7.9 11.7 0.5 1.3 0.1 0.9-0.2 0.8-0.5 0.6-0.6 0.3-0.7 0.2-1.3 0.2-0.6 0.3-0.6 0.4-0.4 0.6-0.6 0.5-0.6 0.4-0.7 0-0.7-0.1-0.7-0.1-3.2-1.3-1.3-0.4-0.6 0-0.7 0-0.6 0.2-0.7 0.3-1.3 0.9-5.6 4.8-0.3 0.4 0.3 0.1 0.4 0.2 10.5 0.7 0.6 0.2 0.7 0.4 1.1 1.8 0.6 0.7 0.8 0.4 0.8 0.1 0.7-0.1 7.3-2.6 0.6-0.1 0.8 0.4 1 0.9 5 6.4 2.2 2.1 0.3 0.5-0.1 0.6-0.4 0.5-0.6 0.4-0.7 0.2-1.4 0.3-2.6 0.7-0.9 0.4-6.4 4.8-0.4 0.7 0.1 0.8 0.8 1.2 1.3 1.4 8.5 7.1 4.4 2 2.7 1.6 0.7 0.6 0.7 0.6 0.7 1.2 0.8 2.2 0.4 0.6 0.5 0.5 2.4 1 0.7 0.4 7.7 6.4 4.5 2.4 1.2 0.5 1.3 0.3 1.2 0.1 6.7-0.4 0.6 0.1 0.7 0.3 0.6 0.7 1.8 3.8 1.3 2.1 0.4 0.8 1 3.3 1.6 10.2-17.7-2.2-2.3 0.2-1.4 0.2-0.7 0.4-0.7 0.2-3 0.1-2.3-0.1-1.8 0.1-1.2 0.2-0.8 0.3-0.5 0.4-0.6 0.6-0.3 0.6-0.1 0.7-0.1 3.3-0.4 0.7-0.8 0.8-2.1 1-0.9 1.1-0.4 0.8 0 1.9-0.2 0.6-0.6 0.2-0.6 0-3.9-0.6-1.3-0.1-1.3 0.1-14.6 2.8-0.6 0.4-0.6 0.3-0.9 0.3-0.7-0.3-0.5-0.5-2-3.3-0.5-0.7-1-1.2-0.6-0.5-0.7-0.4-0.6-0.4-0.8-0.2-1-0.2-1.7-0.1-0.9 0.1-0.7 0.1-2.9 1.2-0.4 0.1-0.2-0.1-1.3-2.2-0.3-0.4-1.7-1.2-1.2-0.6-0.6-0.2-0.6-0.4-0.8-0.3-2.1-0.1-0.5-0.2-0.8-0.6-1.8-0.8-1-0.6-0.4-0.2-0.5 0-0.8 0.1-0.7 0.2-0.2 0-0.5-0.3-0.4 0-0.9 1-3.1 5.1-0.6 0.7-0.5 0.5-0.9 0.4-0.7 0.2-0.9 0-7.9-0.5-2.4-0.4-5.2-1.5-0.4 0-0.3 0.4 0 0.5 0 0.6 0.2 0.7 1.8 4.2 0.5 2.1 0.6 5.5 3.3 11.7 0 0.8-0.2 0.9-0.5 0.8-1.3 0.9-0.9 0.1-0.9-0.1-0.5-0.4-0.6-0.5-0.3-0.6-0.3-0.7-0.1-0.8 0.3-3.8-0.1-0.8-0.3-0.8-0.3-0.6-0.5-0.5-0.5-0.2-1 0-0.8 0.3-0.7 0.5-1.5 2.1-0.5 0.5-1.4 1.3-1.2 0.7-2.8 1.3-0.5 0.6-2.1 2.7-0.2 0.3-0.9 0.6-0.5 0.3-3.1 1.4-0.7-0.2-0.3-0.1-1.7-0.8-1-0.8-0.4-0.3-0.5-0.2-0.9-0.2-2-0.9-1.1-0.7-0.4-0.3-0.4-0.6-0.4-0.3-1.9-0.4-0.7-0.4-1.2-1-0.4-0.6-0.4-0.4-0.5-0.2-1.2-0.2-0.5-0.2-1.7-0.9-0.3 0-0.2 0.2-0.3 0.7-0.6 5.3-0.6 0.7-1.3 0.5-5 1-0.5 0.2-1.3 0.3-1.6 0.2-3.9-0.1-9.2-1.1-0.3-4-0.3-1.1-0.4-1.1-15.5-18.2-0.9-0.4-0.7 0.1-0.5 0.6-0.4 0.5-0.6 0.2-0.7 0-2.5-0.5-0.7 0-0.6 0-0.6 0.2-0.6 0.3-2.1 1.3-1.3 0.7-0.7 0.2-1-0.1-1.3-0.3-3.3-1.6-0.9-0.3-1.4-0.1-0.6-0.2-0.7-0.6-0.3-0.5-0.3-0.5-0.3-0.4-1.7-1.5-0.9-0.6-0.9-0.5-0.7-0.1-3.9-0.3-4.2 0.5-1-0.1-3.2-0.4-0.9-0.3-0.7-0.4-0.5-0.6-0.4-0.7-2.6-6.1-0.6-2.3-0.6-0.9-1-1-2.3-1.7-1.3-0.3-1.1 0.1-0.6 0.5-1.2 1.2-2.6 3.9-0.5 0.6-0.5 0.4-0.4 0.2-0.3 0-2.6-0.3-0.8-0.3-0.4-0.2-0.3-0.2 0-0.4-0.1-1.3-0.2-1.4-1.2-5.2-0.6-1.4-3-4.9-1.6-2.1-0.9-1.4-2.2-5.2-0.2-0.7-1.5-2.6-4.2-4.4-2-2.8-1.5-2.7-3.2-4.5-0.3-0.8-0.7-4.2-0.2-2.5-0.2-0.7-0.6-1.7-0.4-0.9-0.6-0.9-1.2-1.3-0.8-0.3-0.6 0.1-0.4 0.6-0.3 0.6-0.3 1.4-0.3 0.7-0.4 0.7-0.6 0.6-0.6 0.5-2.1 1.3-2.7 1.1-0.6 0.4-0.6 0.5-0.3 0.6-0.3 0.6-0.2 1.3 0.1 2.6 0 0.4 0.2 0.6 0.2 0.6 0.4 0.6 0.4 0.6 2.3 2.5 0.4 0.7 0.3 0.7 0 0.7-0.3 0.7-1.1 1-0.3 0.6-0.4 0.6-0.3 0.6-0.5 0.5-0.6 0.4-0.7 0.3-0.7 0.1-0.7 0.1-4.3-0.3-1.4 0.2-1.4 0.4-2.1 0.9-0.7 0.1-1.5 0.2-0.7 0-0.8-0.1-1-0.2-1.3-0.4-1.9-1-0.8-0.5-3.3-3.3-0.7-0.3-0.7-0.2-7.6-1.1-1.6 0-0.6 0.1-0.4 0.5-0.9 2.2-0.8 1.3-2 2.5-2.8 2.8-4.6 3.3-2.1 1-4.6 0.9-1.9 0.7-0.8 0.4-2.9 1.9-0.8 0.4-0.8 0.2-3 0.7-1.8 0.5-2.7 1.3-17.7 10.4-5.6 4.4-1.7 0.2-2.4-0.1-7.8-0.9-1.5 0-0.4 0.4-0.1 0.6 0 0.5 0.2 0.6 0.5 0.4 0.6 0.3 1.7 0.8 0.6 0.4 0.5 0.5 0.3 0.6 0.1 0.6 0.2 4.7-0.1 0.2-0.6 0.2-12.7 0-0.9-0.2-0.6-0.4-1.5-2.7-1.6-2.3-1.7-1.8 4.2-5.4 0.7-1.4 0.3-1.5-0.1-1.8 0.1-0.6 0.3-0.9 0.3-0.8 1.8-2.7 1.2-2.5 1.7-2.2 2-3.9 0.8-1.2 0.8-2 1.3-2.1 0.5-1.5 0.3-0.4 0.3-0.3 1.2-0.7 2.4-2 1.7-1.9 2-1.8 1.3-1.5 0.1-0.3 0.3-0.1 0.6-0.4 0.3-0.1 1.7-0.3 2.5-0.7 3.5-1.4 1-0.3 2.6-0.4 2.8-0.8 0.5-0.3 1.1-1.2 0.1-0.3 1.4-0.7 0.4-0.3 1.1-1.3 1.3-1.3 10-12 1.1-0.8 0.7-0.8 0.6-0.4 0.3-0.4 0.1-0.8 0.2-0.4 0.3-0.4 3.3-3.1 1.1-1.6-0.4-9.2-1.3-5.3-0.1-1.3 0.1-1.3 2.1-9.8 1-1.9 4.1-11.2 4.5-6.3 0.3-0.9 0.3-5-0.1-0.9-0.3-1.1-0.5-0.8-0.8-0.4-1-2.6-0.3-1.2-0.1-1.5 0.8-4.1 0-1.4-1.5-6.7 0-4.1-0.6-3.7 0.3-1.2 1-2 1.2-1.2 2.2-3.7 0.3-1 0.2-3.3 1.9-5.9 0.2-1.9 0.3-1 3.1-6.8 0.1-1.1-0.4-15 0.1-0.9 0.6-1.8 0.1-0.9 0-0.8-0.3-2.4 0.3-5-0.1-1.6-0.3-1.6 0-0.8 2-5.5 0.4-0.6 1.2-1.6 0.2-0.5 0.9-0.3 0.6-0.7 0.7-1.9 0.6-0.9 0.4-1 0.4-1 0.6-3.1 0.4-0.9 0.6-0.8 3.1-2.8 0.5-0.2 0.1-0.5 4.1-6.8 1.3-3.5 0.2-1.4 0.1-0.7 1.3-2.7 0.9-1.4 0.3-0.5 0.2-1.2 0.2-0.5 0.8-1.3 1.7-5.2 0.7-0.9 1.1-0.8 1.8-0.9 0.9-0.7 0.3-0.9 0.1-0.6 0.5-1.2 0.6-7.6-0.4-6.6-0.4-1.4-1.8-12.2 1.1-6.5-0.1-2.4 0.1-1.2 1.1-1.8 0.4-1.2 0.2-1.3 0-3.3-0.7-4.4-0.7-2.1-1.9-3.5-0.2-1-0.4-0.5-1.4-1.3-0.4-0.9 0.2-1.1 0.8-1.4 1-1 1.1 0.1 0.9 0.6 1.1 0.2 1-0.1 1.1-0.2 2.4-0.8 1.7-1.2 1.2-1.8 2.7-6.6 1.3-1.8 1.8-1.4 0.6-1.6 0.3-0.3 1-0.3 0.3-0.2 1.7-3.1 1-0.7 0.9-0.6 0.7-0.8 0.5-2 0.3-0.4 0.5-0.4 0.4-0.4 0.3-0.6 0.5-1.6 0.5-1.2 0.8-1 1.7-1.6 0.9-0.4 2.4 0.1 0.9-0.2 1-1.4 0.8-1.4 0.3-0.4 2.5-1.1 4.7-3 1.1-1.5 0.7-0.7 1.2-0.3 3.4 0.1 1.1-0.1 1.7-0.8 1-0.2 1.9 0.9 6 0.1 0.5 0.1 1 0.5 1.6 0.3 2.4 1.1 0.7 0.5 0.6 0.8 1.4 2.2 0.2 0.8 0.6 0.7 1.3 0.5 4.6 1 1.4 0.9 1.2 1 1.7 1.2 3.5 1.3 1 0.6 2.4 3 1 0.8 0.9 0.5 2.5 0.8 1.1 0.2 0.8 0.3 0.8 0.9 1.1 1.6 1.1 2.5 0.4 0.4 0.9 0.4 1 1 0.9 1.2 0.3 1-0.3 0.8-0.5 0.9-0.3 1 0.6 1.1 5.6 5.3 1.1 0.7 1.2 0.3 4.4-0.7 4.2 0 1.3-0.2 0.7-0.4 0.7-0.5 0.7-0.4 2-0.1 4.8 1 5.1 1.9 0.8 0.1 0.5 0.4 1 1.9 0.5 0.6 1.3 0.4 0.6 0.4 0.4 0.8 0.4 0.2 1.1 0 0.5 0.2 0.4 0.3 0.4 0.3 0.7 0 0.4-0.3 0.7-0.9 0.3-0.3 0.8-0.5 0.5-0.2 0.7 0 0.5 0.2 0.6 0.7 2.5 1.6 0.9 0.4 1.2 0.3 1 0.1 2.3-0.1 0.6 0.2 0.5 0.3 0.4 0.4 0.4 0.2 0.6 0.1 1 0 0.5 0.3 5.1-2.6 0.8-0.1 2 0.2 1.8-0.2 0.8 0.1 1.1 0.4 0.4 0.5 0.2 0.1 0.6 0.1 1.5 0 0.5 0 0.9 0.5 0.8 0.6 0.8 0.5 1.2 0.3 3.1 0.2 1.1-0.2 1-0.4 0.6 0 0.4 0.1 2.5 1.2 2.7 0.5 1 0.3 0.3 0.3 1 1 0.5 0.3 1.2 0.5 1.2 0.7 5 1.2 6.2-0.4 1.6-0.6z" id="COD1461" name="Équateur" data-id="COD1461" data-name="Équateur">
 </path>
 <path d="M931.6 238.6l-3.4-1.6-0.6-0.4-0.6-0.6-0.4-0.6-1-2-0.4-0.5-0.6-0.1-0.5 0.1-2.4 1-0.6 0.4-1.7 1.8-0.7 0.5-0.9 0.4-0.8 0-1.4-0.2-1.9 0.2-1.6-0.1-0.6 0.1-0.6 0.3-0.4 0.7-0.2 1.3-0.4 0.6-0.8 0.3-0.8 0.1-0.7-0.1-0.6-0.1-3.7-1.7-0.7-0.2-0.7 0-0.6 0.2-0.4 0.6-0.9 1.2-0.6 1.3-0.2 0.7-0.2 0.7 0.1 0.6 0.3 0.6 0.4 0.5 0.5 0.6 0.6 0.4 0.7 0.3 2.6 0.7 0.6 0.4 0.3 0.5 0.1 0.6-0.6 0.8-0.8 0.7-1.6 0.8-1 0.3-0.9 0-0.7-0.3-2-1.2-0.7-0.4-0.6-0.2-0.7 0-1.6 0.5-0.5 0-0.4-0.1-1.2-1-0.7-0.4-0.7-0.3-0.6-0.1-0.9-0.1-1 0.2-0.7 0.2-1.5 0.8-2.9 1.8-1.1 0.5-0.9 0.3-2.3-0.1-2.2-0.4-5.8-0.4-4.2 0.4-8 1.9-0.7 0.1-0.7 0-0.6-0.2-0.6-0.2-0.7-0.3-1.1-0.7-1-0.8-3.5-4-1.3-1.2-0.7-0.3-0.7-0.3-0.7-0.1-0.7 0.1-14.3 2-2.8 0.9-1.9 0.8-0.6 0.5-2.3 2.4-0.6 0.4-0.7 0.4-0.6 0.3-0.7 0.1-2.7 0.4-1.8-0.1-0.3 0-0.8 0.4-0.7 0-0.2 0.2-0.1 0.4 0.1 0.8 0.2 0.3 0.3 0.2 1.8 0.7 1.6 0.9 1 0.8 0.2 0.1 0.9 0.2 0.7 0.3 0.3 0 0.6-0.3 0.2-0.1 0.6 0.2 0.6-0.3 0.6 0.4 0.6 0.1 0.7 0.4 0.6 0.1 1.4-0.3 0.4 0.2 0.4 0.4 0.5 0.2 0.3 0.3 0.2 0.9 0.2 0.2 0.7 0.4 0.1 0.2 0 0.5-0.3 0.8 0 0.6 0.2 0.2 0.5 0.4 0.2 0.4 0 0.4-0.1 2.3 0 0.4 0.5 2 0.3 0.8 0.3 0.4 0.7 0.7 0.5 0.3 0.9 0.2 0.3 0.4 0.1 0.3-0.1 0.9 0 0.3 0.6 0.6 0.4 0.6 0.1 0.8-0.3 0.8-0.2 0.5-0.4 0.4-0.6 0.3-0.4 0.5-0.3 1.3 0 0.6-0.3 1.1 0 0.3-0.2 1.2 0.2 1 0.2 2.9 0.2 0.6 0.3 1.1 0.2 1.6 0.1 0.6 0.5 1.3 0 0.3-0.1 1.2-0.3 1.2-0.5 1.2-0.5 0.7-0.8 0.9-2.9 1.8-0.8 0.4-2.1 0.7-0.7 0.5-0.8 0.8-1.2 1.6-1.2 2.5-1.2 1.8-2.9 3.1-1.7 1.3-2.8 1.6-0.9 0-2.4-0.7-3.8-1.7-0.6-0.1-1.1-0.1-2.2 0.2-0.5-0.1-0.2-0.2-0.3-0.4-0.3-0.8-0.4-0.4-0.4-0.2-0.6-0.1-0.3 0-3 1-1.4 0.2-0.6-0.1-0.4-0.2-0.4-0.4-0.3-0.4-0.2-0.5-0.2-0.2-1.1-0.7-1.3-0.4-3.6-0.3-2.3-0.4-0.8-0.3-0.6-0.5-1.1-0.3-0.5-0.6-0.4-0.7-0.3-0.4-1-0.4-0.8-0.7-0.3-0.4-0.2-0.5-0.1-0.5 0-0.5-0.1-0.5-0.5-0.6-0.9-0.5-0.5-0.2-0.4-0.3-0.4-0.4-0.5-0.5-0.5-0.2-1.2 0-0.8-0.2-1-0.5-0.4-0.3-0.7-0.7-0.3-0.1-0.4 0-0.5 0-0.6-0.1-0.7-0.5-0.5-0.5-0.5-0.2-0.3 0-0.2 0.2-0.3 0.4 0 0.6 0.4 0.7-0.1 0.5-0.1 0.3-0.3 0.2-0.5 0.1-0.4 0-0.7-0.3-0.6-0.1-0.6 0.3-3.5 2.2-0.6 0.2-2.3 0.2-0.6 0.1-0.6 0.5-0.5 0.6-0.5 0.4-0.6 0.4-1.2 0.7-0.6 0.3-0.5 0.1-0.6-0.1-1.9 0.1-0.9 0.2-0.6 0.1-0.7-0.1-0.5-0.2-0.4-0.3-0.7-1.1-0.2-0.5-0.3-1.1-0.3-0.5-0.4-0.2-0.9-0.2-0.5-0.2-1.3-1.2-0.4-0.7-0.2-0.2-0.7 0-0.3-0.4-0.8-2.1-0.3-0.4-0.4-0.3-0.2-0.1-0.9 0-0.4-0.3-0.3-0.8-0.1-0.2-0.7-0.4-1.1-1-0.2-0.2-0.5-0.1-0.6-0.2-0.3-0.3-0.3-0.5-0.1-0.2-0.5-0.2-0.6-0.4-0.3-0.1-0.5 0-0.6 0.4-0.5 0.7-1.3 2.1 0 1.1 0.3 0.9 2.6 1.8 2.5 2.3 2.3 2.5 5.6 3.9 1.1 1.2 0.4 0.6 0.3 0.6 0.2 0.7 0 0.6-0.5 0.9-0.7 0.9-4.6 4.1-0.5 0.6-0.5 0.6-0.3 0.7-0.2 0.6-0.1 0.7 1.5 10.6 0.1 0.7-0.1 0.7-0.2 0.7-0.7 0.8-1.3 0.9-4 2.2-0.8 0.7-0.3 0.7-0.2 1-0.5 4.4 0.2 0.6 0.3 0.6 0.4 0.5 0.2 0.6-0.3 0.7-0.5 0.9-0.3 0.7 0 0.7 0 1.6-0.2 0.5-0.5 0.3-0.1 0.3 0.2 0.8-0.2 0.3-0.4 0.3-1.2 0.5-0.7 0.4-0.4 0.4-0.1 0.3 0.1 0.6 0.2 0.5 0.1 0.5-0.3 1.1-0.1 1-0.2 0.3-0.5 0.5-1.1 0.7-0.4 0.5-0.1 0.3 0.4 1 0.1 0.6-0.1 0.3-0.6 0.6-0.1 0.3 0 0.6-0.3 0.5-0.5 0.4-0.6 0.2-0.8 0-0.4-0.1-0.6-0.2-1-0.1-0.2-0.1-0.1-0.2 0-0.7-0.2-0.1-0.8-0.3-0.5-0.5-0.3-0.5-0.4-0.7-0.1-0.2-0.9-0.9-0.5-0.5-0.1 0.2-0.2 1.9 0 6.7 0.3 2.3 0 1.1-0.2 1.2-0.7 2.2-0.2 1.1 0.1 3.4-0.1 1.1-0.4 1-1.1 1.6-0.2 0.4-0.7 0.1-1.5 0.2-2.9 0.7-1 0-1.4-0.3-2.4-1-1-0.2-0.9 0.1-1.3 0.3-1 0.4-0.8 0.5-1.6 1.3-8.5 9.4-0.6 0.5-0.6 0.3-1.2 0.5-1.3 0.3-1.5 0.2-2.3 0.1-2.6-0.2-1.4-0.3-0.9-0.4-0.2 0.1-0.5-0.1-1-0.6-0.3-0.4-0.2-0.6 0.2-0.5 0.7-1.1 0.2-0.6-0.1-1.1-0.1-0.5-0.1-0.4-1.4-1-1.4-0.8-0.1-0.1 0-0.4-0.5-0.2-1 0-5 0.5-2.8 0.6-20.2-1-0.9-6.3-0.6-1.6-1.6-10.2-1-3.3-0.4-0.8-1.3-2.1-1.8-3.8-0.6-0.7-0.7-0.3-0.6-0.1-6.7 0.4-1.2-0.1-1.3-0.3-1.2-0.5-4.5-2.4-7.7-6.4-0.7-0.4-2.4-1-0.5-0.5-0.4-0.6-0.8-2.2-0.7-1.2-0.7-0.6-0.7-0.6-2.7-1.6-4.4-2-8.5-7.1-1.3-1.4-0.8-1.2-0.1-0.8 0.4-0.7 6.4-4.8 0.9-0.4 2.6-0.7 1.4-0.3 0.7-0.2 0.6-0.4 0.4-0.5 0.1-0.6-0.3-0.5-2.2-2.1-5-6.4-1-0.9-0.8-0.4-0.6 0.1-7.3 2.6-0.7 0.1-0.8-0.1-0.8-0.4-0.6-0.7-1.1-1.8-0.7-0.4-0.6-0.2-10.5-0.7-0.4-0.2-0.3-0.1 0.3-0.4 5.6-4.8 1.3-0.9 0.7-0.3 0.6-0.2 0.7 0 0.6 0 1.3 0.4 3.2 1.3 0.7 0.1 0.7 0.1 0.7 0 0.6-0.4 0.6-0.5 0.4-0.6 0.6-0.4 0.6-0.3 1.3-0.2 0.7-0.2 0.6-0.3 0.5-0.6 0.2-0.8-0.1-0.9-0.5-1.3-7.9-11.7-5.5-6.3-1-1.6-2-4.6-0.7-0.9-3.9-4.6-1.2-2-1.4-3.4-0.4-1.6-0.5-3-0.6-1.8-0.2-0.4-0.9-0.9-1.4-1.8-0.6-0.9-0.3-1-0.1-0.6 0.1-2.9 0.3-1.6-0.3-0.8-0.8-1.8-0.4-1.1-0.6-1.4-0.1-0.3 0.1-0.9-0.3-1.3 0-0.7 0.2-0.8 0-0.9-0.3-0.8-0.2-0.4-1.3-1.7-0.2-0.6-0.2-0.5-0.1-0.4-0.2-0.7-0.2-0.3-0.4-0.3-0.3-0.5-0.3-1-0.5-1.1-0.4-1.1-1.4-2.3-0.2-0.3-0.6-0.6-0.4-0.5-0.7-1.9-0.5-0.7-1.4-3.3-0.4-0.6-0.4-0.3-0.4-0.2-0.4-0.3-0.7-0.7-0.6-0.6-0.5-0.3-0.2-0.2-1-1.2-0.4-0.2-1.4-0.7-0.8-0.7-0.5-0.2-0.6 0-0.5-0.2-0.5-0.2-0.7-0.6-0.3-0.2-0.9-0.1-0.8-0.3-0.4 0-0.4 0-0.4-0.1-0.6-0.3-0.4 0-0.5 0.2-0.3 0.1-0.7-0.3-0.4 0-1.4 0.2-0.3-0.3 0.2-0.9 0.2-0.6 0.4-0.6 0.4-0.6 1.2-1.2 3.8-2.4 1.3-1.1 1.2-1.2 0.5-0.6 0.3-0.7 0.3-0.7 0.5-1.4 1.3-8.5 0.3-1.1 3.3-6 0.1-0.7 0-0.7-0.4-1.4 0-0.7 0.1-0.6 0.4-0.3 0.6-0.1 0.7 0.2 2.3 1 0.6 0.4 0.4 0.5 1 1.6 0.4 0.5 0.4 0.3 0.7 0 0.5 0.1 0.5 0.3 0.3 0.3 0.4 0.3 0.4 0.1 0.7-0.2 0.8-0.2 0.6-0.3 0.7-0.3 0.3-0.1 0.9 0.1 0.3-0.2 0.4-0.6 0.5-0.1 0.2-0.2 0.2-0.6 0.2-0.1 0.5-0.1 0.2-0.1 0.2-0.4-0.1-0.8 0.1-0.4 0.5-0.1 0.8 0.1 0.3 0 0.4-0.3 0.4-0.6 0.2-0.5-0.1-0.7 0.1-0.6 0.5-0.3 0.4-0.1 0.7 0 0.2-0.3 0-0.8 0.3-0.3 0.3 0.1 0.5 0.3 3.3 3.5 0.6 0.4 0.6 0.3 0.7 0 0.7 0 1.3-0.6 5-3 5.5-4.1 0.7-0.3 0.6-0.1 8.1 1.5 1.2 0.3 3.2 1.4 0.6 0.2 0.6 0.1 0.6 0.1 0.5-0.2 0.5-0.4 0-1-0.4-3.8-0.4-1.3-0.4-1-0.5-0.6-3.8-2.7-5-2.4-1.3-0.8-0.7-0.6-1-1.2-0.4-0.7-0.6-0.7-0.6-0.4-0.5-0.3-0.4-0.2-0.6-0.1-1.1-0.1-0.8 0.1-7.5 1.6-0.7 0-0.6 0-0.5-0.1-0.9-0.3-0.6-0.3-0.6-0.4-0.7-0.5-1.3-1.3-2.9-3.7-0.7-1.3-0.3-0.8 0.1-0.8 0.3-0.6 1.1-1.9 0.2-0.9-0.6-4.7 0-1 0.2-0.6 0.4-0.5 0.9-1.4 0.3-0.6 0.2-0.6 0.2-1.9 0.2-0.7 0.2-0.6 1.5-3 0.6-1.6 0.2-0.9 0.1-1-0.1-1.4-0.4-0.8-0.5-0.6-0.6-0.2-0.6-0.1-0.7 0.1-0.5 0.2-1 0.4-1.1 0.8-1.1 1.1-4.2 5.2-1 1-0.5 0.3-0.4 0.2-0.5 0-0.6-0.1-0.3-0.1-0.3-0.3-0.3-0.5-0.6-1-0.3-0.8-0.1-0.8-0.1-1.3 1-6.1 0-1-0.2-1.4-0.4-0.9-0.5-0.7-0.6-0.4-0.6-0.2-1.3-0.4-2.6-0.5-0.6-0.2-0.6-0.4-0.7-0.5-0.6-0.9-0.2-0.9 0-1.1 0.3-0.9 0.4-0.7 0.5-0.6 0.4-0.5 0.5-0.5 0.6-0.3 5.1-1.8 3.9-1 0.6-0.2 1.5-0.8 0.7-0.5 0.6-0.4 0.7-0.1 2.1 0.4 0.9 0 1-0.1 0.5-0.1 1.2-0.5 0.6-0.4 4.6-5 1.1-0.9 0.7-0.3 0.6 0 0.6 0.1 0.6 0.4 0.6 0.6 0.6 0.4 0.7 0.2 0.6 0.1 1.2-0.1 0.6 0.1 0.6 0.1 0.7 0.3 1.1 0.9 0.6 0.2 0.6 0 0.6-0.3 0.7-0.4 0.5-0.6 2.1-2.7 0.5-0.6 1.8-1.5 0.5-0.5 0.6-1.1 0.4-0.8 0.3-1.4 0.1-0.9-0.1-0.2-0.4-0.1-0.5 0.2-0.6 0-0.6 0-2-0.6-0.3 0-0.9-0.3-0.9 0.3-1 0.6-1.1 0.3-0.3-0.1-0.6-0.5-1-0.2-0.8-0.2-0.6-0.1-0.8-0.2-1.6-1.3-1.4-0.4-0.6-0.8-0.6-0.1-0.7 0-0.5-0.1-0.5-0.2-0.6-0.4-0.8 0.4-0.8 0.2-1.8 0.1-0.6 0.1-1.8 1.3-1.7-1.1-1.1-0.4-0.4 0.6-3.6 1.3-1.2-0.1-2.4-0.5-0.2-0.4-1.7-0.6-0.7-0.4-0.6-0.5-0.6-0.9-0.6-3.4-0.5-0.3-0.5 0-1.2-0.1-0.7-0.1-0.8-0.4-6.4-5.2-0.9-0.5-0.5-0.2-2.2-0.5-1-0.5-1.2-0.8 0.3-0.1 1.8-1.3 0.9-0.9 0.5-0.8 0.2-0.3 0.9-0.8 0.3-0.5 0-0.5-0.3-1.1 0-0.6 1.5-2.8 0.4-0.5 0.6-0.2 0.6-0.4 0.5-0.6 0.3-0.6-0.2-0.3-0.9-1.1-0.2-1.1-0.1-1.4 0.2-1.3 1-0.5 2.3 0 1.1-0.1 0.7-0.3 0.3-0.5 0.1-0.6 0-1.2 0.2-0.3 0.7-0.6 0.3-0.6 0.5-0.9 0.1-0.3-0.1-0.5-0.3-1.1 0-0.6 0.8-0.5 0.5-0.6 0.5-0.6 0.4-0.8 0.6-1.8 0.5-0.8 0.9-0.3 0.8 0.3 1 0.6 0.8 0.1 0.6-1.4 1.2-0.9 0.4-0.5-0.4-0.6-0.3-0.6 0-0.7 0.4-0.6 0.5-0.6 0.4 0 0.4 0.2 0.8 0 0.6-0.2 0.6-0.4 0.7-0.2 0.6 0.1 0.4 0.4 0.6 1.4 0.6 1.1 0.2 0.8 0.3 0.7 0.6 0.3 0.7 0.1 0.7 0.2 0.6 0.4 0.5 0.5 1.2 0.5 1.3-0.2 2.3-1.2 0.8 0.7 1.3 1.8 0.6 0.4 0.2 0.2 1.5 0.9 0.7 1.4 0.4 0.2 1.1 0.2 1.2 1.1 1 0 0.9 0.2 0.9 0.3 0.9 0.6 0.4-0.3 1 0.1 0.4-0.2 0.3-0.4 0-0.8 0.1-0.6 0.4-1 0.6-0.6 0.8-0.4 1.3-0.2 0.9-0.3 3.1-2.6 1.2-0.5 2.4-0.5 2-1.2 1.1-0.3 2.3-0.3 1.2-0.5 2-1.4 0.9-0.3 0.7 0.1 1 0.2 0.4 0.1 0.4-0.2 0.6-0.4 0.4-0.1 2.2 0.4 1.2 0 0-0.6-0.3-0.6 0.1-0.6 0.1-0.5 0.3-0.3 0.3-0.2 0.3 0.2 0.8 0.7 0.9-0.6 2.7-1.2 1.3-1.1 0.9-0.6 1-0.1 0.6 0.2 1 0.7 0.7 0.2 0.6-0.3 1.4-1.9 1-0.6 1.1-0.3 0.8 0.4 0.4 1.2 0.3 0 0.5-0.3 0.1-0.4 0-0.5 0.1-0.6 0.7-1.5 0.6-0.5 3.7-0.5 1-0.5 0.6-0.7-0.1-0.7-1.3-0.3-0.5-0.5 0.3-1.1 0.8-1.2 0.7-0.8 0.3 0.6 0.5 1.5 0.3 0.5 0.7 0.3 0.1-0.4 0-0.8 0.2-0.5 1.2-0.4 1.5 0.3 1.3 0.8 1.1 0.7 0.3 0.4 0.4 1 0.3 0.4 0.5 0.2 1.4 0.2 0.6 0.3 0.5 0.5 0 1 0.3 0.6 0.6 0.5 1.5 0.5 0.8 0.5-0.7 0.9-0.2 0.6 0.5 0.2 3.5 0.4 1-0.1 0.9-0.6 0.6 0.6 0.6 0 0.5-0.5 0.6-0.6 0.5-0.2 0.9 0.3 0.6 0.1 1-0.4 1.9-1.2 1.2-0.3 0.3-0.1 0.9-0.7 0.4-0.2 0.6 0 1.9 0.6 1.8 0.9 1.9 0.6 0.5-0.1 0.2-1.1 0.6-1.1 0.2-0.2 0.5-0.1 0.4-0.4 0.4-0.5 0.6 0 0.7 0.5 0.5 0.2 3.3-0.3 0.6-0.3 0.5-0.4 2.3-0.2 0.8-0.2 0.5-0.6 0.2-0.5 0.1-1.3 0.1-0.6 0.8-0.9 0.1-0.3 0.1-0.6 0.3-1 0-0.4-0.4-0.3-1.1-0.2-0.3-0.2-0.4-1.2 0.5-0.9 0.6-0.7 0.4-0.7 0.1-1.2 0.3-1.1 0.6-0.7 1.1-0.4-0.6-0.9 0.3-0.3 0.8-0.3 0.5-0.6 1 0.5 1.1-0.2 2.3-1.3 0.3-0.1 0.6 0.5 0.4 0.1 1.3-0.5 0.6-0.1-0.4-0.9 0.6-0.2 0.9 0.1 1-0.1 0.5 0.7 0.1 0.7 0.5 0.4 1.1 0-0.4 0.6-0.3 0.2 0 0.3 0.8 0.5 0.4-0.1 0.3-0.3 0.7-0.1 0.2 0.1 0.4 0.5 0.3 0.1 1.2 0.4 0.7 0.5 1.5 1.6 0.6 0.5 0.7 0.3 0.7-0.1 0.5-0.7-0.6-0.3 0.5-0.2 0.7 0.3 0.1 1.3 1.1-0.3-0.2 0.7 0.1 0.5 0.3 0.4 0.4 1 0.5-0.3 0.5-0.6 0.2-0.3 1.2 0 0.6 0.7 0.5 1 0.9 0.8 0.1-1.1 0.7-0.6 0.9-0.1 0.8 0.4 0-1 0.2-0.5 0.5-0.1 0.7 0.1 0.6 0.3 0.9 1.1 0.7 0.5 0.5-0.5 0.7-0.1 0.9 0 0.2-0.6 0.3-0.2 0.5 0 0.5 0.2-0.2-0.4-0.2-1.3 0.3 0.1 0.5 0.2 0.5 0 0.3-0.2 0.3-0.3 0.3-0.6 0.7 0.4 0.4 0.6 0.3 0.4 0.7-0.3 0.6 0.5 0.1 0.2 0.8-0.7 0.4 1.6 0.4 0.5 0.6-0.3 0 1.1 1.1-0.3 0.4 0.9 0.9 0.7 1.1 0.4 1.3 0.2 1-0.1 0.9 0.1 0.5 0.6 0.3-0.2 1.1-0.5 0.5 0.8 0.8 0.6 0.8 0.5 0.6 0.5 1 2 0.1 0.3 0.7 0.1 1.4 0.6 0.9 0 0.4-0.1 0.7-0.2 0.7-0.4 0.4-0.4 0.3 0.4 0.6-0.8 1-0.3 0.9 0.1 0.4 0.6 0.3 0 0.4-0.5 0.4-0.1 0.7 0.3 0.5-0.3 0.7-0.5 0.6-0.3 2.5 0 0.7 0.1 0.4 0.2 2.2 2.3 0.3 0.3 0.4-0.1 0.5-0.5 0.4-0.2 0.3 0.2 0.3 0.2 0.2 0.4 1 0.1 0.3-0.2 0.6-0.7 0.3-0.4 0.5-1.3 0.2-0.4 1.6-1.7 1.4-1.3 1.6-1.1 1.9-0.9 2.4-0.7 2.2 0.1 2.2 0.8 4.3 2.1 1.2 0.4 1.1 0.1 0.9 0.2 0.8 0.5 0.6 0.6 0.8 0.6 0.4 0.1 0.6 0.1 1 0.1 0.5 0.1 0.8 0.5 0.5 0.1 1.3 0.5 0.1 0.7-0.3 2.4 0.6 0.5 0.7 0.3 1.6 1.3 0.5 0.5 0.2 0.5 0.2 1.1 0.3 0.5 0.9 0.8 1.1 0.4 4.6 0.5 0.9 0.6 0.7 1.2 0.4 2.2 0.4 0.9 0.6 0.5 0.4 0 1-0.3 0.5 0 0.5 0.3 0.4 0.5 0.4 0.6 0.2 0.5 0.2 1.2-0.4 3 0.1 2.2 0.2 1.3 0.4 0.8 0.2 0 1.3 0.3 0.4 0.1 0.5 0.5 1 1 0.6 0.3 0.4 0.1 1.5-0.2 0.3 0 0.9 0.4 0.3 0 0.3-0.9 0.5-0.2 0.3 0.1 0.5 0.5 0.4 0.1 0.5-0.1 2.7 0.4 0.2 0.6-0.3 0.9-0.1 1.2 0.1 1 0.4 0.9 1.6 2.3 0.5-0.1 0.9-0.9 0.5-0.3 0.8 0.1 0.4 0.4 0.2 1 1.4 1.9 1 1 1 0.7 2.1 0.2 2.3-0.4 2.2-0.1 1.7 1.3 0.5 1.1 0.2 0.8 0.4 0.5 1.3 0.4 1.2-0.2 1.1-0.7 0.9-0.9 2.1-2.6 0.7-0.6 1.2-0.3 0.5 0.1 1 0.1 0.5-0.1 0.4-0.5 0.1-0.6 0.2-0.6 0.6-0.4 2.2-0.5 0.7-0.5 0.8-1.1 2.2-4.2 0.5 0 1 0 0.8-0.4 0.4-0.4 0.5-0.3 0.7 0.2 0.7 1 0.1 1.2 0.3 1 1.3 0.6 0.5 0 1.6-0.2 2.5 0.2 1.2-0.1 3.1-0.8 0.5 0.4 2.5 1.7 0.6 0.2 0.1 0.8 0.2-0.1 2 0.9 0.6 0.4 3.4 3.4 1.1 0.6 1.4-0.2 0.3-0.8 0.2-1 0.6-0.6 1.3-0.1 1 0.3 0.9-0.2 0.8-1.3 0.5-1.2 0.5-0.8 2.7-2.3 0.7-1 0.4-1.1 0.3-1.2 0.4-0.5 1-0.9 0-0.6 0-0.6 0.2-0.9 0.1-1.8 0.4-0.7 0.8-0.1 1.1 0.2 0.3 0.1 0.5 0.6 0.2 0.1 0.9-0.4 0.3 0 0.6 0.2 1.6 0.6 1.5 0.1 0.7 0.1 2.1 1 0.6 0.5 1.6 1.3 0.7 0.5 0.4 0 1.2-0.3 0.3 0.2 1.2 0.7 0.6 0.2 0.6 0.4-0.2 0.6-0.5 0.6-0.3 0.5 0 0.4 0.4 0.9 0.1 0.5-0.1 0.5-0.5 1.6 0 2.3 0.6 1.9 1.4 1.2 2.4 0 1.2 0.1 1.3 0.8 1.2 1.1 0.5 1.1-0.2 0.5-0.4 0.5-0.3 0.6 0.1 0.6 0.4 0.5 0.5 0.1 0.6 0 0.7 0.1 1.2 0.8 0.8 0.9 1.2 2.4 0.8 1.1 0.8 0.5 2.2 0.5 1.2 0.6 0.5 1.1 0.3 1.2 0.5 1.2 1.2 1.5 0.4 0.6 0.1 0.5 0 0.6 0.1 0.5 0.3 0.5 0.9 0.3 3.4 0.1 3.5 1.1 4.3 2.5 2 0.7 0.4 0.1 1.1 0 1-0.2 0.5-0.1 0.5 0.2 0.8 1.3 1.2 7.7 0 1.1-0.4 2-0.3 0.7-0.3 0.3 0 0.2 0.5 0.5 0.5 0.2 0.5 0 1.1-0.2 0.6-0.1 1.7-0.9 0.9-0.4 0.6-0.1 1.4 0 1.2-0.6 0.8-1 0.8-0.6 1 0.7 0.2 0.5 0.2 1.8 0.3 0.8 0.7 0.5 1.6 0.7 0.8 0.9-0.5 2.7 0.6 1.1 1.1-0.4 1-0.9 0.9-0.3 0.6 1.3 0.1 0.5-0.4 1.4 0.1 0.6 0.5 1.1 0.1 0.7-0.3 1.1-0.7 0.9-1.5 1.7-1 1.8-0.1 0.2-0.1 0.6-0.2 0.3-0.2 0.1-0.6 0.1-0.2 0.2-1 1.8-2.9 8.9-0.2 1.1 0 1 0.7 0.8 2.4 1.7 0.9 0.8 1.2 2.2 0.6 2-0.1 2.1-1.3 3.5-0.3 0.6-0.2 0.1-0.7 0.1-0.2 0.1-0.1 0.3-0.1 0.8-1.7 4.7-0.2 0.9-0.1 0.4-1.1 1.6-0.2 0.6 0 1 0.2 1.9-0.1 0.9-0.4 0.9-0.6 1-0.5 1.1 0.1 0.9 0.8 0.3 3.7 0 0.5 0.3 0.1 0.6 0 0.8 0.1 0.8 0.6 0.9 0.8 1 1 0.9 0.9 0.4 1.5-0.8 0.7-1.7 0.9-1.4 1.9 0 0.9 0.6 3 3.3 0.2 0.6-0.1 0.3-0.4 0.4 0.2 0.5 0.8 0.4 2.3 0.4 0.7 0 0.9-0.1 2.5-1 0.1 2.3 0.2 1.1 0.4 0.9 1 0.8 3 1.7 0.1 0.1-1.5 1.2-0.1 0.6 0 0.6-0.1 0.5-0.7 0.1-0.6 0.1-0.5 0.3-1 0.9-0.4 0.5-0.8 1.3-0.4 0.5-0.5 0.3-1.2 0.2-0.5 0.2-2.3 1.5-2.2 1.9-0.4 0.5-0.3 0.5-0.3 0.4-0.6 0.3-0.6 0.1-1.5 0.2-2.2 1.2-5 5.6-2.7 2.2-0.7 0.4-0.4 0.2-0.5 1.6-0.5 0.5-3.7 2.3-0.8 0.9-0.4 1.1-0.5 1.1-1.3 0.8-2.5 1.2-0.4 0.5-0.8 1.4-0.4 0.3-0.5 0.2-0.6 0.5-0.4 0.7-0.1 0.5-0.2 1.2-0.4 1.2-0.6 1.1-0.7 1-1.6 3.2-0.7 0.3-0.8 0.5-0.4 0.7 0.7 0.7-0.2 0.5-0.1 0.5-0.1 0.6 0.1 0.5 0.8-0.2 0.7 0.4 0.5 0.7 0.1 0.9 0.7-0.7 0.1 0.3 0.2 0.1 0-1.7 0.2-0.5 0.3 0.3 0.2 0.5 0.1 0.3 0.6 0.6-1.1 0.9-0.6 0.5-0.8 0.3-1 0.2-0.7 0.1-1.1-0.1-0.7 0-0.8 0.7-0.7 1.1-0.6 0.6-0.9-0.4-0.6-0.4-0.5-0.1-0.4 0.1-0.5 0.2-1.6 1.7-0.1 0.3-0.1 1.1-0.1 0.6-0.2 0.4-0.7 0.7 0 1 0.3 2.1-0.4 1-1.1 1.2-0.3 0.9-0.1 0.2-1 1.7-0.6 0.7-0.5 0.3-5.6 1.3-2.2 0.9-0.7 0.6z" id="COD1559" name="Orientale" data-id="COD1559" data-name="Orientale">
 </path>
 <path d="M461.6 413.6l-2 3.8-0.3 0.9-0.1 0.8-0.1 1.2 0 2.1-0.1 0.7-0.3 0.9-0.6 1.2-0.7 0.9-2.5 2.6-2 2.7-9.2 23.7-0.5 2.5-0.7 9.5 1.2 12.4-0.2 6.3 0.4 3 0.5 9-0.1 1-0.3 1-0.5 0.8-0.2 0.2-0.7 0.2-0.3 0.4-0.2 0.6-0.3 0.6-1.5 1.2-2.1 1.1-2.2 0.8-2.2 0.5-0.8 0-0.6 0.3-0.2 0.9-0.2 0.2-0.3 0.1-0.7-0.3-0.3-0.2-1.2 0.3-0.9 0.8-0.6 1-0.3 1.2-0.1 1.6-0.3 0.6-0.5 0.7-0.3 0-0.4-0.2-0.7-0.2-1.1 0.2-0.8 0.3-0.7-0.1-0.8-0.7-1-1.6-0.5-0.7-1-0.6-0.9 0.4-1.1-0.7-1.6-1.9-1.3-0.3-2.8 0.2-0.5-0.1-0.4 0.5-0.1 0.2 0 0.8 0.2 2.2 0.3 0.7 0.7 0.7 0.3 0.5 0.5 1.3 0.6 0.8 0.2 0.6 0 1.2 0.2 0.7 0.3 0.4 0.6 0.5 0.4 0.6-0.1 0.3-0.7 1.5-0.2 0.2-0.8 0.5-0.2 0.3-0.8 2.1-0.1 0.4 0 0.6 0.1 1.1 0 1.8-0.3 0.5-0.2 0.5-0.1 0.2-0.1 2.1 0.2 2 0.1 0.4 0.3 0.4 0.5 0.6 0.3 0.4 0.2 0.5 0.3 1.5 0.5 1 0.5 3.8 0.2 0.5 0.4 0.7 1.4 1.8 0.1 0.6-0.2 0.5-0.1 0.9 0.1 0.7 0.4 0.6 0.5 0.6 0.3 0.4 0.2 0.9 0.3 0.7 0.1 0.6 0.6 1.9 0.1 0.4 0.2 6 0 0.3-0.3 0.2-0.7 0.5-0.3 1.4-0.4 0.7-0.3 0.4-0.3 0.5-0.1 1 0 9.9 0.2 0.6 0.6 1.2 0.3 0.8 0.3 0.7 0.2 0.9 0.1 1-0.1 1-0.1 0.6-0.4 0.8-0.1 1.6-0.1 0.5-0.3 0.8-0.4 0.7-0.7 0.8-0.6 0.4-0.4 0.4-0.1 0.4-0.5 1.9-0.3 0.3-0.9 0.6-0.3 0.1-1.1 0.3-0.3 0.1-0.5 0.7-0.2 0.7-0.5 0.8-0.4 1.6-0.2 0.3-0.6 0.4-0.4 0.6-0.7 0.5-1.1 0.8-0.5 0.2-0.9-0.2-0.5 0.1-0.3 0.2-0.5 0.6-0.3 0.2-0.7-0.2-0.4-0.1-0.3 0.2-0.5 0.9-0.4 0.3-1 0.1-0.4 0.3-0.8 1.1-0.6 0.6-0.8 0.4-0.4 0.3-0.5 0.5-0.6 0.2-0.6 0.5-0.6 0.2-0.2 0.1-0.4 0.7-0.9 0.9-0.7 0.4-0.3 0.5-0.1 0.9-0.3 0.8 0 0.5 2.1 18.5 1 2.2 3 4.9 5.9 7.2 0.8 1.4 0.4 0.9 0.5 2.2 0.7 5.1-23.1 0 0.9 2.1 0.1 0.5-0.3 0.9-1.4 1.8-0.6 1-0.6 1.7-0.5 8.6 0.1 1.6 0.4 1.9 1.4 3.5 0 1.6-1.6 1.3-0.7 0.9-0.6 2.1-0.7 0.8-1 0.2-3.7-0.3-0.1 1.4 0.5 1.4 0.6 1.4 0.4 1.4 0 1.3-0.2 1.4-2.3 7.2-0.1 1.7 0.1 1.3 1.1 4.1-30.4 0-0.8-1.2-0.4-0.7-0.2-1.5-0.5-0.2-7.8 0-3.8 0-0.6 0.4-0.1 1 0.2 2-1 0-0.3 0-3.2 0-0.9 0.2-1.1 0.6-0.8 0.2-0.7 0-2-0.8-6.4-0.2-0.9 0.1-2.1 1-0.8 0.2-1 0.6-0.5 1.2 0 1.5 0.3 1.3-4.7 0.1-1.4-0.3-2.7-2.3-1.5-0.7-1.8-0.2-0.8 0.2-3.3 1.8-0.6 0-1.8-0.6-1.6-0.1-4.4 1.5-1.5 0.1-2.9-0.8-0.4-0.4-0.4-0.9 0.6-1.5-0.2-0.9-0.4-0.4-1.2-0.5-0.5-0.5-0.3-0.6-0.5-1.6-0.5 0.5-0.2 0.2-0.2-0.7 0.2-0.4-1.1-0.5-0.5-0.4-0.2-0.3 0.3-0.7 0.5-0.5 0.2-0.5-0.6-0.7-0.8 0.2-0.2-0.4 0.1-0.6-0.2-0.6-0.5-0.1-0.7-0.1-0.3-0.1 0.4-0.4 0-0.4-1 0-0.2-0.5 0-0.7 0-0.5-0.6-0.2-1.2-0.2-0.2-0.3-0.2-0.4-1-0.9-0.2-0.7 0.1-0.5 0.4-0.4 0-0.5-0.9-0.4 0.2-0.2-0.2-0.5-0.8 0.3-0.1-0.8 0-1.2-0.2-0.9 0.2-1-1-0.8-2.6-1.3-0.8-1.1-0.9-2.5-0.7-1.2-0.4-0.5-0.5-0.3-0.3-0.4-0.2-0.5 0.3-0.6 0.6-0.3 0.7-0.2 0.2-0.3-0.2-0.4-0.4-0.2-1.2-0.3-0.7-0.5-0.3 0.1-0.4 0.8-0.8-0.5-0.3-0.8 0-1.8-0.2-0.8-0.6-0.5-1.3-0.7-1.8-1.3-1.4-0.4-0.2-0.6 0-0.8-0.2-0.9-0.8-1.2-0.7-0.7-0.5-0.3-0.2-0.4 0-2.8-1-3.5 0.1-1.3 1.7 0.4 0-1.1 0.4-0.9 0.2-0.8-0.5-1-0.4-0.8-0.4-0.3-0.6-0.1-0.4-0.3 0-0.5 0.3-0.7-0.4-3-0.7-1.3-1.2-0.9-0.6-0.1-1.3-0.2-0.5-0.2-0.7-0.5-0.2-0.7-0.1-0.8-0.2-0.8-2.8-4-0.5-0.9-0.2-0.9-0.1-2-0.3-0.9-0.7-1.8-0.2-0.8 0.2-0.9 0.6-1.1 0.1-0.5-0.5-0.6-0.5-0.6-0.4-0.4 0-0.6 0.3-0.8-1.1-0.1 0-0.5 0.5-0.7 0.3-0.7-0.1-0.7-0.3 0-0.3 0-0.4-0.2-0.4-0.7 0.1-2 0.2-0.5 0.4-0.2 0.5 0 0.3-0.2 0.1-0.5-0.3-1.1-0.1-0.4 0-3.9 0.1-0.8 0.4-0.7 0.1-0.7-0.5-0.8-0.9-1-0.2-0.7-0.6-0.4-0.7-0.2-0.6-0.3-0.9-1.3-0.6-0.4-1.1-0.1 1.1-1.3-0.2-0.6-0.4 0.1-0.5 0.3-0.3 0-0.2-0.6-0.2-3.3-0.1-0.5-0.3-0.6-0.5-0.6 0-0.4 0.7-0.8 0.2-0.4-1.9-1-0.4-0.2-2-0.8-0.9-0.2-1-0.1-1 0.2-1.7 0.5-0.8 0.1-0.8-0.1-1.2-0.6-0.8-0.7-0.9-0.6-1.3-0.2-11.3 0.2 0.8-1.3 3-2.2 0.6-0.5 0.3-0.6 1.7-3.8 0.2-1.1 0.2-1.6 0-6.9-0.5-4.3 0.3-2.8 1.5-6.6 0.2-1.9-0.5-6.2 0.3-1.9 1.2-3.5-0.3-6.1-0.5-2.8-0.2-1.3 0.1-0.6 0.2-0.6 0.4-0.6 2.5-3.1 5.3-9.5 0.5-0.6 0.5-0.5 0.6-0.2 1.7 0 0.3-0.1 0.2-0.5 0.1-0.5 0.5-0.6 0.2-0.4 0.1-0.9 0.4-1.2 0.6-1 0.6-0.7 0-0.3-0.2-0.5 0.3-0.8 0.2-0.8-0.7-1.4 0.1-0.6 0.2-0.6 0.1-0.5-0.1-0.7-0.9-1.4-0.5-0.4-0.9-0.7-1.2-0.9-0.7-0.7-0.6-0.8-2.3-3.8-0.8-0.6-6.6-3.6-2.4-1.6-0.9-0.4-1.3-0.4-1.4-0.3-4-0.2-4.4 0.5-1.7-0.4-3.4-1.9-0.1-0.1 1.2-1.2 1-3.1 0.3-0.5 0.4-0.5 1.6-2.8 0.9-2.5 0.7-0.7 0.4-1.2 2.1-4.3 3.3-4 1.2-2.3 1-2.8 2.6-4.5 0.7-1.6 0.2-1 0.1-1.2-0.2-0.5-0.7-0.5-0.6-0.6-0.2-1.1 0.3-2.3 0-1.2-0.5-1-0.2-0.8 0.2-2.9-0.3-2.9 0.2-2.6-0.6-5 0.1-0.7 0.1-0.7 1.2-3.8 1.1-7.7-1.7-12.6 0-2.6-0.1-0.5-0.2-0.2-0.4-0.7-0.2-0.9 0.1-0.8 0.7-2.4-0.1-0.7-0.1-1.2 0.4-1.2 0.7-1.1 1.2-1.7 1.3-1.1 1.5-1.1 2.9-2.8 2.3-1.6 3.3-3.3 0.8-1 0.4-0.4 1.1-0.5 0.9-0.7 0.3-0.2 0.2-0.7 0.4-0.8 1.7 1.8 1.6 2.3 1.5 2.7 0.6 0.4 0.9 0.2 12.7 0 0.6-0.2 0.1-0.2-0.2-4.7-0.1-0.6-0.3-0.6-0.5-0.5-0.6-0.4-1.7-0.8-0.6-0.3-0.5-0.4-0.2-0.6 0-0.5 0.1-0.6 0.4-0.4 1.5 0 7.8 0.9 2.4 0.1 1.7-0.2 5.6-4.4 17.7-10.4 2.7-1.3 1.8-0.5 3-0.7 0.8-0.2 0.8-0.4 2.9-1.9 0.8-0.4 1.9-0.7 4.6-0.9 2.1-1 4.6-3.3 2.8-2.8 2-2.5 0.8-1.3 0.9-2.2 0.4-0.5 0.6-0.1 1.6 0 7.6 1.1 0.7 0.2 0.7 0.3 3.3 3.3 0.8 0.5 1.9 1 1.3 0.4 1 0.2 0.8 0.1 0.7 0 1.5-0.2 0.7-0.1 2.1-0.9 1.4-0.4 1.4-0.2 4.3 0.3 0.7-0.1 0.7-0.1 0.7-0.3 0.6-0.4 0.5-0.5 0.3-0.6 0.4-0.6 0.3-0.6 1.1-1 0.3-0.7 0-0.7-0.3-0.7-0.4-0.7-2.3-2.5-0.4-0.6-0.4-0.6-0.2-0.6-0.2-0.6 0-0.4-0.1-2.6 0.2-1.3 0.3-0.6 0.3-0.6 0.6-0.5 0.6-0.4 2.7-1.1 2.1-1.3 0.6-0.5 0.6-0.6 0.4-0.7 0.3-0.7 0.3-1.4 0.3-0.6 0.4-0.6 0.6-0.1 0.8 0.3 1.2 1.3 0.6 0.9 0.4 0.9 0.6 1.7 0.2 0.7 0.2 2.5 0.7 4.2 0.3 0.8 3.2 4.5 1.5 2.7 2 2.8 4.2 4.4 1.5 2.6 0.2 0.7 2.2 5.2 0.9 1.4 1.6 2.1 3 4.9 0.6 1.4 1.2 5.2 0.2 1.4 0.1 1.3 0 0.4 0.3 0.2 0.4 0.2 0.8 0.3 2.6 0.3 0.3 0 0.4-0.2 0.5-0.4 0.5-0.6 2.6-3.9 1.2-1.2 0.6-0.5 1.1-0.1 1.3 0.3 2.3 1.7 1 1 0.6 0.9 0.6 2.3 2.6 6.1 0.4 0.7 0.5 0.6 0.7 0.4 0.9 0.3 3.2 0.4 1 0.1 4.2-0.5 3.9 0.3 0.7 0.1 0.9 0.5 0.9 0.6 1.7 1.5 0.3 0.4 0.3 0.5 0.3 0.5 0.7 0.6 0.6 0.2 1.4 0.1 0.9 0.3 3.3 1.6 1.3 0.3 1 0.1 0.7-0.2 1.3-0.7 2.1-1.3 0.6-0.3 0.6-0.2 0.6 0 0.7 0 2.5 0.5 0.7 0 0.6-0.2 0.4-0.5 0.5-0.6 0.7-0.1 0.9 0.4 15.5 18.2 0.4 1.1 0.3 1.1 0.3 4z" id="COD1871" name="Bandundu" data-id="COD1871" data-name="Bandundu">
 </path>
 <path d="M508.3 413.7l2.8 2.3 0.9 1.6 0.5 3.3 0.3 1.3 0.5 1.4 0.4 0.7 0.4 0.5 1.2 1.1 6.5 8.8 0.9 1.5 0.6 1.7 0.4 1.7 0.1 0.9-0.1 0.9-4.2 11.9-2.5 4.3-0.3 0.7-0.3 2.1-0.2 0.9-0.3 0.8-0.4 0.7-0.6 0.8-1.8 1.8-0.4 0.5-0.3 1 0 4 0.2 1.4 0.3 1.1 0.4 0.5 0.7 0.7 0.5 0.4 0.6 0.2 3.7 0.9 0.6 0.2 0.6 0.4 0.6 0.6 0.8 1.4 2.6 6.7 0.1 1-0.1 0.9-0.4 0.5-0.7 0.3-0.7 0.1-0.7 0-2-0.2-0.7 0-0.6 0.1-0.6 0.1-0.7 0.2-0.7 0.3-0.6 0.5-0.4 0.6-0.4 0.5-0.2 0.9 0.9 0 2.5 0.4 0.5 0.4 0.2 0.7 0.6 0.6 0.7 0.6 0.6 0.4 0.9 0.2 1.2 0 1.1-0.2 1-1 3.7-0.8 0.5-0.2 0.5 0.4 3.8 4.3 1.2 1.7 0.6 0.8 0.7 0.6 3.8 3 1 0.5 2.8 1.1 3 1.6 2.6 2 5.1 5.2 3.4 4.3 0.6 0.6 0.6 0.3 0.9 0.3 1.4 0.2 2.4 0 3.8 0.8 3.4 0.3 0.8 0.3 0.8 0.4 1.1 1.1 0.5 0.8 0.4 0.8 1.1 5.4 0.1 1.3-0.1 0.6-0.1 0.6-0.2 0.6-0.5 0.7-0.6 0.4-0.6 0.3-7.2 1.9-0.3 0.1-0.5 0.4-0.4 0.5-0.7 1.1-0.3 0.6-0.2 0.6-0.1 0.6-0.1 1.3 0.2 2.4 0.2 1 0.4 0.7 0.5 0.7 4.2 3.2 5.4 4.8 3.3 4.2 0.7 0.7 0.8 0.4 0.6 0.1 0.6 0 0.7-0.1 0.7-0.2 4.9-1.7 0.6-0.1 0.6 0.1 0.5 0.5 0.5 0.6 0.3 0.9 0.6 0.7 0.7 0.4 4.7 1.5 4.7 2.6 2.1 0.8 0.9 0.5 1.1 1 0.4 0.7 0.2 0.8 0.1 9.2-0.2 0.5-0.5 0.5-0.5 0.1-1.8-0.2-0.6 0.1-0.7 0.2-2 1.2-1.4 0.7-3.6 1.2-0.6 0.3-0.5 0.5-0.3 0.4-0.7 1.1-0.5 0.5-0.6 0.5-0.6 0.3-1.4 0.6-0.7 0.1-0.7-0.1-0.6-0.5-0.2-0.6 0.1-0.7 0.2-0.6 0-0.6-0.4-0.2-0.5 0-0.7 0.3-2.7 1.4-1.4 0.4-7.1 0.9-5.4 0.2-1.3 0.2-0.9 0.3-0.4 0.4-0.5 0.4-0.6 1.3-0.7 1.9-0.1 0.6 0.1 6.6 0.6 2.6 0.5 1.6 0.7 1.2 0.6 1 1 1 2.6 2.1 0.8 1.1 0.2 0.8-0.2 0.7-0.5 0.8-0.6 0.8-1.1 2-0.3 0.8-0.6 4.5-0.4 1.4-1.1 2.3-3.4 6.3-0.3 0.8-0.1 1 0.1 1.5 0.3 0.9 0.3 0.8 0.5 0.5 0.6 0.4 1.8 1 0.8 0.7 0.6 0.5 0.9 1.4 1.4 2.7 0.5 0.6 0.5 0.6 0.6 0.5 1.5 0.7 2 0.9 0.6 0.3 1.3 1 1.5 1.8 0.3 0.4 0.5 0.8 0.1 0.7-0.1 0.7-2.3 5.9-0.1 0.7-0.1 0.9 0 1.2 0.4 1.3 0.3 1.7-0.2 2.7 0 1.8 0.4 2.3 0.1 1.5-0.1 1.5-1.3 6.9-1.5 15.1-3.7 2.2-7.5 2.8-2.5 0.5-1.1 0-1-0.2-1.7-0.6-1-0.1-2.8 0-0.9-0.1-0.7-0.2-0.7-0.2-0.6-0.3-0.7-0.5-0.2-0.4-0.5-1-0.7-3.5-0.2-0.6-0.4-0.7-0.6-0.6-0.8-0.4-0.8-0.1-0.4 0-0.6 0.4-2.4 2.2-1.2 0.5-1.5 0.3-12.5 1-3.6-0.3-5.4-1.3-2.6-1.2-0.6-0.4-0.9-0.8-0.5-0.6-0.6-0.5-0.6-0.4-7.3-2.9 0.3-0.7 0.1-1 0.1-0.3 0.8-0.8 0.2-0.4 0-2-0.2-0.5-0.3-0.6 0.1-0.7 0.2-0.6 0.4-1 0.1-0.7-0.1-0.3-0.5-0.5-0.1-0.3 0-0.3 0.3-0.4 0.1-0.4-0.2-0.6-0.6-0.8-0.3-0.6 0.3-0.6 0.2-0.5-0.3-0.5-0.3-0.3-1.2-2.5-0.3-0.4-0.4-0.3-0.4-0.1-0.2-0.3 0.1-0.2-1.1 0-1.8 0-30.4 0.1-7.7 0-3.8 0-7.6 0.1-3.8 0-3.8 0-6.3 0-0.1-5.1 0.4-2.5 4.5-12-14.7 0.1-0.6 0.1-0.4 0.3-0.4 0.8-0.3 0.8-0.2 1.7 0 0.8-17.3 0-0.7-5.1-0.5-2.2-0.4-0.9-0.8-1.4-5.9-7.2-3-4.9-1-2.2-2.1-18.5 0-0.5 0.3-0.8 0.1-0.9 0.3-0.5 0.7-0.4 0.9-0.9 0.4-0.7 0.2-0.1 0.6-0.2 0.6-0.5 0.6-0.2 0.5-0.5 0.4-0.3 0.8-0.4 0.6-0.6 0.8-1.1 0.4-0.3 1-0.1 0.4-0.3 0.5-0.9 0.3-0.2 0.4 0.1 0.7 0.2 0.3-0.2 0.5-0.6 0.3-0.2 0.5-0.1 0.9 0.2 0.5-0.2 1.1-0.8 0.7-0.5 0.4-0.6 0.6-0.4 0.2-0.3 0.4-1.6 0.5-0.8 0.2-0.7 0.5-0.7 0.3-0.1 1.1-0.3 0.3-0.1 0.9-0.6 0.3-0.3 0.5-1.9 0.1-0.4 0.4-0.4 0.6-0.4 0.7-0.8 0.4-0.7 0.3-0.8 0.1-0.5 0.1-1.6 0.4-0.8 0.1-0.6 0.1-1-0.1-1-0.2-0.9-0.3-0.7-0.3-0.8-0.6-1.2-0.2-0.6 0-9.9 0.1-1 0.3-0.5 0.3-0.4 0.4-0.7 0.3-1.4 0.7-0.5 0.3-0.2 0-0.3-0.2-6-0.1-0.4-0.6-1.9-0.1-0.6-0.3-0.7-0.2-0.9-0.3-0.4-0.5-0.6-0.4-0.6-0.1-0.7 0.1-0.9 0.2-0.5-0.1-0.6-1.4-1.8-0.4-0.7-0.2-0.5-0.5-3.8-0.5-1-0.3-1.5-0.2-0.5-0.3-0.4-0.5-0.6-0.3-0.4-0.1-0.4-0.2-2 0.1-2.1 0.1-0.2 0.2-0.5 0.3-0.5 0-1.8-0.1-1.1 0-0.6 0.1-0.4 0.8-2.1 0.2-0.3 0.8-0.5 0.2-0.2 0.7-1.5 0.1-0.3-0.4-0.6-0.6-0.5-0.3-0.4-0.2-0.7 0-1.2-0.2-0.6-0.6-0.8-0.5-1.3-0.3-0.5-0.7-0.7-0.3-0.7-0.2-2.2 0-0.8 0.1-0.2 0.4-0.5 0.5 0.1 2.8-0.2 1.3 0.3 1.6 1.9 1.1 0.7 0.9-0.4 1 0.6 0.5 0.7 1 1.6 0.8 0.7 0.7 0.1 0.8-0.3 1.1-0.2 0.7 0.2 0.4 0.2 0.3 0 0.5-0.7 0.3-0.6 0.1-1.6 0.3-1.2 0.6-1 0.9-0.8 1.2-0.3 0.3 0.2 0.7 0.3 0.3-0.1 0.2-0.2 0.2-0.9 0.6-0.3 0.8 0 2.2-0.5 2.2-0.8 2.1-1.1 1.5-1.2 0.3-0.6 0.2-0.6 0.3-0.4 0.7-0.2 0.2-0.2 0.5-0.8 0.3-1 0.1-1-0.5-9-0.4-3 0.2-6.3-1.2-12.4 0.7-9.5 0.5-2.5 9.2-23.7 2-2.7 2.5-2.6 0.7-0.9 0.6-1.2 0.3-0.9 0.1-0.7 0-2.1 0.1-1.2 0.1-0.8 0.3-0.9 2-3.8 9.2 1.1 3.9 0.1 1.6-0.2 1.3-0.3 0.5-0.2 5-1 1.3-0.5 0.6-0.7 0.6-5.3 0.3-0.7 0.2-0.2 0.3 0 1.7 0.9 0.5 0.2 1.2 0.2 0.5 0.2 0.4 0.4 0.4 0.6 1.2 1 0.7 0.4 1.9 0.4 0.4 0.3 0.4 0.6 0.4 0.3 1.1 0.7 2 0.9 0.9 0.2 0.5 0.2 0.4 0.3 1 0.8 1.7 0.8 0.3 0.1 0.7 0.2 3.1-1.4 0.5-0.3z" id="COD1872" name="Kasaï-Occidental" data-id="COD1872" data-name="Kasaï-Occidental">
 </path>
 <path d="M42.1 591.2l-1.4 1-1.5 0.5-2.9 0.6-0.8 0.5-1.6 0.5-1.6 1.4-1.3 0.4-1.2-0.2-0.8-0.9 1.1-1.1 3.2-2.5 1.4-0.2 2.7 0.1 1.5 0.2 1-0.1 1-0.2 1.2 0z m112.9-75.9l6.5 9.2 2.5 2.3 0.6 0.4 0.6 0.3 0.6 0.1 0.7-0.1 0.6-0.2 0.5-0.3 0.4-0.5 0.3-0.6 0.1-0.6 0.1-0.6-0.2-1.3 0.1-0.6 0.3-0.6 0.5-0.5 0.6-0.4 0.6-0.3 1.1-0.1 1.5 0.1 5.6 1 2.3-0.1 1.3 0.1 0.6 0.4 0.2 0.6-0.3 0.6-0.8 1.2 0.2 0.8 0.7 0.9 2.2 1.5 1 1 0.5 0.8 0 0.6-1 2.3-0.2 1.3-0.2 2.5-0.2 0.7-0.2 0.6-0.5 0.5-0.6 0.4-0.5 0.3-0.6 0.2-2 0.2-0.5 0.3-0.4 0.6 0.1 0.8 0.7 1.2 0.7 0.8 1.3 1.2 1.4 0.9 1.7 0.9 1.3 0.5 2.6 0.5 1.3 0.1 0.7-0.2 0.6-0.3 0.6-0.4 0.5-0.7 0.2-0.6 0.2-1.3 0-1.5 0.1-0.7 0.3-0.4 0.6 0.2 0.6 0.4 1.4 1.2 2.3 0.8 2.4 1.1 12.8 0.7-1.2 3.5-0.3 1.9 0.5 6.2-0.2 1.9-1.5 6.6-0.3 2.8 0.5 4.3 0 6.9-0.2 1.6-0.2 1.1-1.7 3.8-0.3 0.6-0.6 0.5-3 2.2-0.8 1.3-20.5 0.3-4.8 0.1-19.1 0.3-9.5 0.2-4.8 0-14.4 0.3-6.7 1.2-1.6-0.2-3.3-0.8-2.4 0.4-4.8-0.1-5.4-0.1-1.1-0.1-3.1-1.1-1.2-0.2-6.2 0.5-0.8-0.3-1.2-0.7-2.1-0.6-7.1 0.6-8.7 0.7-4.1-0.5-0.5 0.1-1 0.4-0.6 0.1-1.5-0.5-5.9-0.1-0.4 0.2-1 1.1-0.6 0.5-1.7-0.9-2.2-0.6-4.4-0.3-0.7-0.4-0.9 0.1-1.6 0.6-0.8 0-1-0.1-1.1 0.1-1.7-0.3-2.4-1.1-0.7-0.2-1.9-0.7-0.8-0.2-1.5 0-2 0.2-1.9 0.6-1.3 0.8-0.4 0.2-1.2 0.8-0.6 0.9-0.6 1-1.4 1.6 0.3 2.5-2.6 1.1-3.4-0.1-2.7 1.5-5.6 1.4-0.7-0.1-0.2-0.9 0.2-0.4 1.1-0.7 0-1.6-0.5-0.3-0.9-0.1-0.8 0.2-0.2 0.4-0.4 0.2-0.4 0.8-0.6-1.1-0.2-1-0.2-0.3-0.3-0.3-0.8-0.5-1.1-1.4-3.6-3.5-0.9-1.2-2-3.4 2.5-1.4 4.5-0.7 8.6 0.1 0.6-14.8 0.6-14.9-0.4-1.7-0.6-0.5-3.2-1.1-0.3-0.3-0.2-0.5-0.1-0.6 0-0.4 0.2-0.5 0.4-0.1 0.4 0 0.4 0 4.4-1.5 2-1.3 0.8-2 0.2-1.1 0.4-0.3 2-0.2 1.3-0.4 0.4-0.6 0.1-0.8 0.5-1.2 0.8-0.6 2.3-1.4 0.5-0.6 0.1-1.2 0.3-1.2 0.6-1.1 0.9-1 1.6-0.9 10.3-2.4 1.9-0.7 0.4-1.5-0.1-1.8 0.8-1.1 1.3-0.2 1.2 1.4 0.4 0.8 0.9 1.3 0.7 1.7 0.5 0.6 1.4 0.9 2.4 2.1 1 0.6 3.2 1.2 0.7 0.4 0.5 0.5 0.3 0.6 0.4 1.9 1.1 2.3 0.6-0.5 1.4-1.8 2.7-1.9 0.6-0.4 0.1-0.4-0.2-0.4-0.5-0.5 1.7-1 0.6 0 0.7 0.3 1 1 0.6 0.3 1.1-0.3 1.1-2.1 1.1-0.7 0.5 0 1.2 0.3 0.5 0 0.3-0.4-0.2-1 0.2-0.5 0.5-0.3 0.8 0.2 0.3-0.5-0.7-2.2 0.2-1.2 0.8-2.1 0.2-1-0.5-5.1 0.2-0.6 0.6-0.3 3.3-1.2 1.1 0.1 1.2 0.8 0.4 0.6 0.8 1.4 0.5 0.5 0.5 0.1 1.5 0 1.6 0.4 0.5 0 0.5-0.3 0.9-1.1 0.9-0.6 1.7-2.4 2-0.7 4.6-0.6 2-0.7 1.9-0.9 2-1.7 1.1-0.8 2.3-0.5 2.3-1.3 1 0 0.3 0.2 0.1 0.4 0 0.6-0.1 0.7-0.2 0.7-0.2 0.3 0 0.3 0.4 0.7 0.8 1.4 1 1.2 1.9 1.1 0.3 0.4-0.2 1-0.7 1-0.9 1-0.6 0.8-0.6 0.7-2 0.8-0.8 0.7-0.4 0.8-0.1 0.4 0.4 1.2 0.5 2 0.8 1 0.7 0.7 0.6 0.8 0.2 1.4-0.1 0.5-0.4 0.9-0.1 0.5 0 0.6 0.5 1 0.2 0.5-0.8 4.1 0.2 1.6 1.9-0.3 0.6-0.3 1.1-1.2 0.6-0.3 1.1-0.3 0.9 0 0.5 0.6 0.2 0.2 1.1 0 0.4 0 0.3 0.2 0.4 0.7 0.3 0.2 0.6 0.2 1.6 1 0.6 0.2 2-0.2 1.6-0.5 3.4-2.2 2.5-1.1 0.8-0.6 0.6-0.8 0.4-0.9 4.3-7.2 4-4 0.3-0.7 0.5-0.5 2.8-1.5 1.1-1 2.8-3.9z" id="COD1883" name="Bas-Congo" data-id="COD1883" data-name="Bas-Congo">
 </path>
 <path d="M214 545.5l-12.8-0.7-2.4-1.1-2.3-0.8-1.4-1.2-0.6-0.4-0.6-0.2-0.3 0.4-0.1 0.7 0 1.5-0.2 1.3-0.2 0.6-0.5 0.7-0.6 0.4-0.6 0.3-0.7 0.2-1.3-0.1-2.6-0.5-1.3-0.5-1.7-0.9-1.4-0.9-1.3-1.2-0.7-0.8-0.7-1.2-0.1-0.8 0.4-0.6 0.5-0.3 2-0.2 0.6-0.2 0.5-0.3 0.6-0.4 0.5-0.5 0.2-0.6 0.2-0.7 0.2-2.5 0.2-1.3 1-2.3 0-0.6-0.5-0.8-1-1-2.2-1.5-0.7-0.9-0.2-0.8 0.8-1.2 0.3-0.6-0.2-0.6-0.6-0.4-1.3-0.1-2.3 0.1-5.6-1-1.5-0.1-1.1 0.1-0.6 0.3-0.6 0.4-0.5 0.5-0.3 0.6-0.1 0.6 0.2 1.3-0.1 0.6-0.1 0.6-0.3 0.6-0.4 0.5-0.5 0.3-0.6 0.2-0.7 0.1-0.6-0.1-0.6-0.3-0.6-0.4-2.5-2.3-6.5-9.2 1.9-2.8 0.3-0.7 0.5-1.1 1.3-0.7 1.5-0.6 1-0.7 5.8-2.9 2-0.8 1.3-0.7 0.5-0.2 0.2-0.3 1.2-1.2 0.2-0.5 1.7-5.2 0.6-0.9 0.8-0.7 0.9-0.4 7.6-2.4 4.7-0.7 2.3-0.7 2-1.1 0.3-0.2 0.1 0.1 3.4 1.9 1.7 0.4 4.4-0.5 4 0.2 1.4 0.3 1.3 0.4 0.9 0.4 2.4 1.6 6.6 3.6 0.8 0.6 2.3 3.8 0.6 0.8 0.7 0.7 1.2 0.9 0.9 0.7 0.5 0.4 0.9 1.4 0.1 0.7-0.1 0.5-0.2 0.6-0.1 0.6 0.7 1.4-0.2 0.8-0.3 0.8 0.2 0.5 0 0.3-0.6 0.7-0.6 1-0.4 1.2-0.1 0.9-0.2 0.4-0.5 0.6-0.1 0.5-0.2 0.5-0.3 0.1-1.7 0-0.6 0.2-0.5 0.5-0.5 0.6-5.3 9.5-2.5 3.1-0.4 0.6-0.2 0.6-0.1 0.6 0.2 1.3 0.5 2.8 0.3 6.1z" id="COD1884" name="Kinshasa City" data-id="COD1884" data-name="Kinshasa City">
 </path>
 <path d="M884.7 384l0.2 0.2 0.3-0.5 0.6 0 0.4 0.5 0.1 0.8-0.9 0.6-0.2 0.1 0 0.5 0.3 0.6 0.2 1.2 0.5 1.4-0.1 0.4-1.1 0.5-0.1 0.2-0.1 0.8-0.2 0.1-0.5 0.1 0 0.3 0.7 0.4 0.3 0.6 0.2 0.7 0.5 0.6 0.1 0.9-1 2.1 0.2 1 0 1.4-1.3 1.3-1.7 0.9-1.2-0.2 0-0.7 0.1-0.5 0.4-0.8-0.5 0.2-0.5-0.6 0-0.4 0.2-0.4-1.1 0.2-0.4 0.1 0.3-0.9 0.5-0.7 0.6-0.6 0.4-0.6 0.3-0.8 0-0.9 0.1-0.2 0.4-1.3-0.1-0.1 1.2-2 0.3-0.9 0.3-1.6-0.2-0.5-0.8 0.3 0.1-1.3 0.3-1.1 1.3-1.9 0.2 0.3 0.4 0.2z m-1.6-10.3l-0.4 0.6-0.9 0.8-0.9-0.2 0 2.2 0.7-0.4-0.2 0.9-0.4 0.6-0.6 0.4-0.6 0.6-2.4 5.8-1 1.3-0.8-0.3-0.6 1.4-0.3 0.6-0.6 0.6 0.3 0.3 0.1 0.6-0.1 1.2 0.5-0.3 0.6-0.6 0.3-0.6-0.1-0.3-0.5-0.2 0.1-0.4 0.6-0.6 0.1-0.6 0.3-0.2 0.8 0.2 0.4 0.2 0.2 1 0.2 0.4 0.5 2-1.8 1.7-2.5 1.6-1.4 1.4 1.6-0.2 0.5 0.6-0.4 0.8-1.4 0.2 0.4 0.6 0.3 0.1-0.6 0.7-0.4 0.6 0.1 0.6 0.6 0.3-0.3 0.4-0.1 0.5 0 0.9 0.5-0.4 0.2-0.3 0.7 0.4 0.2-0.6 0.2-0.4 0.3-0.3 0.5-0.2 0.7 1.5-0.4 1.4-1.8 2.5 1.4-0.8 1.2-1.1 2.1-2.4-0.1 1-0.5 1.5-0.1 0.9-0.6 0.1-4.9 2.6-0.7 0.6-0.3 1-0.1 1.9 0.1 1 0.3 0.8 0 0.4 1.7 0.4 0.2 0.6-0.9 0.8-0.2 0.7 0.2 0.7 0.5 0.3 0.5 0.3 0.6 0.6 0.3 1.2-0.3 4 0.4 0.4 1.9 1.3 0.7 0.3 1.6 0.1 1.1 0.6 0.8 0.9 0.7 1.2-1.1 0.2-0.7 0.5-0.3 0.9-0.1 1.1 0.4 0.9 1 0.3 1.1 0.1 0.7 0.4 0.3 0.4 0.5 1.4 0.7 1.1 0.2 0.5 0.1 0.9 0.4 0.8 0.8 0.5 0.9 0.3 0.8 0.5 0.3 0.8 0.2 1.1 0.5 1 1 0.4 1 0.1 0.8 0.3 0.8 0.6 0.5 0.8 0.4 3.3-0.3 0.6-0.6 0.4-0.4 0.9-0.2 1 0.1 3.5 0.4 1.1 0.9 0.7-1.5 1.3-0.2 0.7-0.1 1.6-2.2 0.8-1.2 1.8-0.4 2.2 0.9 13.3-0.9 0.8-0.2 0.3-0.3 1.1-1.3 1.8-0.2 0.9 0.5 1.2 0.6 0.9 0.4 0.9-1 2 0 1.6-0.5 1 0.3 0.4 0.2 0.7-0.2 2.5-0.6 1.7-0.1 1.2 0.4 4-0.1 0.5-0.5 0.8-0.1 0.4 0.2 0.4 0.7 0.6 0.2 0.4 0.1 1.6 0 0.9-0.3 0.4-0.7 0.4-1 1.1-0.7 1.2-0.3 1.2-0.3 0 2.2 0.7 0.5 0.3 0.3 0.3 0.7 0.5 0.7 0.4 0.6 0 0.7-0.9 0.3-3.1 0.6-1.2 0.7-1.1 0.6-3.1 1-2.3 1.1-4.1 0.4 0 0.9 3.8-2.1 13.2-0.7 1.5-0.3 0.9 0 1.1 0.4 3.1-0.3 1-0.6-0.2-0.8-0.6-0.8 0-0.5 0.7-0.3 1.9-0.3 1-1 1.5-0.3 0.9-0.8 8.2 0.4 11 0.4 0.9 0.1 0.2-15.2 0-1-0.8-1.6-1.7-1-1.2-0.7-1.2-4.6-11.6-2.3-3.7-6.3-12.3-0.8-1.1-0.4-0.5-0.6-0.5-5.4-3.5-0.8-0.8-2.3-2.8-3-1.9-1.1-0.9-1-0.7-1-0.3-1 0.1-1 0.4-0.8 0.7-0.6 0.7-0.4 0.7-0.3 0.8-0.3 0-0.4-0.4-0.6-0.5-0.6-0.2-0.2 0-1 0.1-0.5-0.1-0.1-0.3-0.1-0.5 0.1-0.8 0.3-0.8 0-0.2-0.5-0.1-0.8 0.3-0.5 0.1-0.5 0-4.4-1.4-1.9-0.8-2-1.3-3.2-2.9-1.2-0.8-0.7-0.4-1.7-0.5-2.1-0.4-8.5 0.1-0.4 0-0.5-0.2-3.7-0.9-4-1.7-7-2.2-1.2-0.7-1-0.8-1.8-2.3-1.2-1.9-0.5-1.1-0.2-1.2 0-1.4 2.1-11.1-0.4-1.1 0.1-1.5-0.6-0.6 0-0.6 0.2-0.6 0-0.3-0.1-0.3-0.2-0.2-0.6-0.2-0.2-0.4 0-0.7 0-0.2-0.3-0.5-0.1-0.3 0.2-0.7 0.5-0.7 1.4-1.5 0.2-0.5 0-0.4-0.1-0.3-0.4-0.5-0.2-0.5 0-0.3 0.1-1.7 0-0.3-0.2-0.8 0.2-1.3-0.1-0.2-0.7-0.2-0.3-0.3-0.1-0.2 0.1-0.6 0.4-0.3 0.2-0.5 0-0.5-0.1-0.4-0.6-0.9-0.4-1-0.2-0.2-0.5-0.2-0.3-0.4-0.3-1.1-0.2-0.5-0.1-0.3 0-0.5 0.2-0.7 0-0.8 0-0.3-0.9-1.8-0.3-0.3-2.2-1.8-0.6-0.6-1.9-2.7-0.4-0.4-0.6-0.3-0.2-0.2-0.2-0.5 0-1.7-0.2-1-0.3-1-0.8-1.4-0.3-0.8-3.1-9.4-0.5-2.8-0.1-1.2 0.5-7.6 1-6.4 0.5-1.9 0.2-0.3 0.3-0.2 0.4-0.1 0.5 0.1 0.3 0.1 0.9 0.6 0.5 0.2 1.8 0.4 1.5 0 0.7 0.2 0.6 0.2 0.8 0 0.5 0.2 0.4 0.4 1.1 1.4 0.4 0.3 0.5 0.2 1.4 0.1 0.5 0.4 0.2 0.5 0.3 0.3 0.6 0 0.7-0.5 0.3 0 0.4 0.7 0.4 0.3 0.7-0.1 0.3-0.3 0.4-0.3 0.6-0.2 1-0.2 1.2-0.4 1.5-0.6 2.3-1.4 1.3-1 1-1 0.7-0.9 0.4-1 0.3-0.9 0.3-2 0.8-1 1.1-0.5 17-0.9 2.8-1.5 1.1-0.3 1.2-0.2 0.9 0.3 0.8 0.6 1.7 2 0.8 0.7 1.2 0.8 1.1 0.4 0.9 0.2 3.4 0.2 1.2-0.2 2.4-1.2 1.9-0.7 5.9-1.1 1.2-0.3 0.9-0.7 0.4-0.9 0.3-1.1 0.1-3.9 0.3-1 0.4-0.8 0.4-0.6 0.8-0.5 0.6-0.2 0.6 0.1 0.6 0.2 0.5 0.3 0.4 0.5 0.3 0.6 0.9 3 0.2 0.4 0.3 0.2 1.1 0.3 0.9 0.4 0.8 0.2 1.3 0.1 1.3-0.2 1-0.4 0.9-0.6 0.7-0.9 0.6-1.2 1.2-3.3 0.4-0.6 0.9-0.5 1-0.1 1.3 0.2 1.8 0 1.2-0.4 0.9-0.8 2.5-3.5 0.6-0.6 1-0.8 0.7-0.1 0.5 0.2 0.3 0.3 0.7 1.9 0.3 0.5 0.6 0.4 0.9 0.2 4.1-0.4 1.9 0.1z" id="COD1894" name="Sud-Kivu" data-id="COD1894" data-name="Sud-Kivu">
 </path>
 <path d="M813.7 312.8l4.3 4.1 0.3 0.9 0.2 1.1-0.4 0.7-0.4 2.5-1.5 3.5-0.5 2.6-0.3 0.7-0.7 0.6-3.3 1.9-0.8 0.3-0.9 0.1-2.6 0-0.3 0.1-0.8 0-1.1 0.3-0.3 0.1-0.6-0.1-0.6-0.6-0.8-0.2-0.1-0.2-0.2-0.5-0.4-0.3-0.4 0.1-1 0.6-0.6 0-0.9-0.1-0.6 0.2-0.2 0.1-1.9 1.5-0.4 0.1-0.9 0-0.8-0.3-0.3 0-0.4 0.1-0.4 0.3-0.7 0.5-0.8 0.5-0.8 0.2-0.8 0.4-0.4 0.3-0.1 0.3-0.1 0.4 0.1 1.7-0.1 0.4-0.4 1 0 0.4 0.1 0.2 0.6 0.4 0.4 0.4 0.2 0.4 0.2 0.6 0 0.7 0.1 0.3 0.2 0.2 1.1 0.6 0.7 0.7 0.3 0.5 0.1 0.6-0.2 0.6-0.4 0.3-0.6 0-0.6-0.4-0.2-0.1-0.7 0.3-0.5-0.1-0.3-0.4-0.5-0.2-0.3 0-0.5 0.3-0.8 0.8-0.3 0.1-0.8 0.3-0.1 0.4 0.2 0.8 0.4 0.9 1.3 2.1 10.9 12.5 2.5 4.3 1.1 1.5 0.8 0.8 3.8 2.9 2 2.6 0.9 0.9 1.8 1 0.7 0.9 0.4 1.7 0.1 3.9 0.2 1.1 0.2 0.6 1.7 2.9-17 0.9-1.1 0.5-0.8 1-0.3 2-0.3 0.9-0.4 1-0.7 0.9-1 1-1.3 1-2.3 1.4-1.5 0.6-1.2 0.4-1 0.2-0.6 0.2-0.4 0.3-0.3 0.3-0.7 0.1-0.4-0.3-0.4-0.7-0.3 0-0.7 0.5-0.6 0-0.3-0.3-0.2-0.5-0.5-0.4-1.4-0.1-0.5-0.2-0.4-0.3-1.1-1.4-0.4-0.4-0.5-0.2-0.8 0-0.6-0.2-0.7-0.2-1.5 0-1.8-0.4-0.5-0.2-0.9-0.6-0.3-0.1-0.5-0.1-0.4 0.1-0.3 0.2-0.2 0.3-0.5 1.9-1 6.4-0.5 7.6 0.1 1.2 0.5 2.8 3.1 9.4 0.3 0.8 0.8 1.4 0.3 1 0.2 1 0 1.7 0.2 0.5 0.2 0.2 0.6 0.3 0.4 0.4 1.9 2.7 0.6 0.6 2.2 1.8 0.3 0.3 0.9 1.8 0 0.3 0 0.8-0.2 0.7 0 0.5 0.1 0.3 0.2 0.5 0.3 1.1 0.3 0.4 0.5 0.2 0.2 0.2 0.4 1 0.6 0.9 0.1 0.4 0 0.5-0.2 0.5-0.4 0.3-0.1 0.6 0.1 0.2 0.3 0.3 0.7 0.2 0.1 0.2-0.2 1.3 0.2 0.8 0 0.3-0.1 1.7 0 0.3 0.2 0.5 0.4 0.5 0.1 0.3 0 0.4-0.2 0.5-1.4 1.5-0.5 0.7-0.2 0.7 0.1 0.3 0.3 0.5 0 0.2 0 0.7 0.2 0.4 0.6 0.2 0.2 0.2 0.1 0.3 0 0.3-0.2 0.6 0 0.6 0.6 0.6-0.1 1.5 0.4 1.1-2.1 11.1 0 1.4 0.2 1.2 0.5 1.1 1.2 1.9 1.8 2.3 1 0.8 1.2 0.7 7 2.2 4 1.7 3.7 0.9 0.5 0.2 0.4 0 8.5-0.1 2.1 0.4 1.7 0.5 0.7 0.4 1.2 0.8 3.2 2.9 2 1.3 1.9 0.8 4.4 1.4 0.5 0 0.5-0.1 0.8-0.3 0.5 0.1 0 0.2-0.3 0.8-0.1 0.8 0.1 0.5 0.1 0.3 0.5 0.1 1-0.1 0.2 0 0.6 0.2 0.6 0.5 0.4 0.4 0.3 0 0.3-0.8 0.4-0.7 0.6-0.7 0.8-0.7 1-0.4 1-0.1 1 0.3 1 0.7 1.1 0.9 3 1.9 2.3 2.8 0.8 0.8 5.4 3.5 0.6 0.5 0.4 0.5 0.8 1.1 6.3 12.3 2.3 3.7 4.6 11.6 0.7 1.2 1 1.2 1.6 1.7 1 0.8-133.8 0-61-0.2-1.4-0.1-1-0.3-2.4-4.8-0.3-1.2-0.1-1.2-0.2-0.3-1-0.8-0.3-0.4-0.4-1.1-0.3-0.5-1.4-0.7-0.9-0.9-0.4-0.2-0.5-0.4-1.1-2.8-0.8-0.5-0.2-0.3 0.3-0.4-0.2-0.4-0.3-0.4-0.2-0.6 0.1-0.6 0.5-1 0.5-1.3 0.9-1 1-0.7 0.8-0.3 0-0.5 1.9-2.8 2.1-1.8 0.5-0.7-0.9-1.7-0.6-0.8-0.5-0.4 0.9-4.4 0.3-0.5 0.3-0.5 0.3-0.4 0.2-0.7-0.2-0.7-0.5-0.8-0.1-0.5 0-1.1 0-0.6 0.2-0.4 0.5-0.7-0.1-0.4-0.3-0.3-0.4-0.5-0.4-0.3-0.2-0.2 0.2-0.6 0.2-0.1 0.2-0.8 0-0.5-0.4-0.2-0.4-0.4-0.5-2-0.6-1.2-0.2-0.2-0.3-0.1-0.3 0.1-0.8 0.6-0.3-0.2-1.5-1.4 0-2.2-0.2-0.3-1.5-1.3-0.2-0.4-0.6-1.4-0.7 0.8-1.1-1.6-0.4-0.9-0.3-0.8 0.3 0 0.4-0.4 0.1-0.4-0.6-0.3-1.2 0-0.6-0.1-0.5-0.2 0.3-0.2 0.4-0.6-1-0.3-0.5-0.5-0.6-1.7 0.8-0.5 1.1-1.9 0.8-1 0.5-0.5 0.1-0.3-0.1-1.7-0.2-0.5-0.8-3.3-0.1-1.6 0-0.3 0.3-0.2 0.6-0.1 0.4-0.2 0.2-0.5 0-0.6-0.1-0.5-0.9-1.6-0.1-0.8 0.9-0.4 1-0.1 0.4-0.1 0.4-0.4 0.1-0.5 0-0.5 0.1-0.5 0.5 0 0.1-0.1 0.9-1.7 0.7-0.6 1.1-0.2 0.4-0.5-0.2-3.5-0.2-0.5 0.1-0.2 0.5-0.3 0.7-0.2 0.7 0.1 0.6 0 0.7-0.5 0.1-1.8 0.2-0.4 0.9-0.8 1.2-2.3 0.3-1.1-0.2-0.8 0-0.4 0.4-1-0.1-0.2-0.3-0.1-0.4-0.4-0.2-0.4 0.4-0.5 0.3 0.1 0.4 0.4 0.3 0.2 0.5-0.4 0.1-0.6-0.3-0.4-0.4-0.3-0.2-0.3 0.1-1.9 0.2-1.1 0.5-1.1 1.5-2.4 0.4-2.2 1.9-4.2 0.2-0.9 0-0.9-0.8-2.4-0.2-1-0.3-3.5-0.3-1-0.1-0.9 0.2-1.1 0.5-1.6 0.4-4.4 0-0.3-0.7 0-18 1.1-0.9-0.2-1-0.9-1.3-1.9-5.1-9.4-4.7-6.5-0.8-1.8-0.9-3.1-0.6-4 20.2 1 2.8-0.6 5-0.5 1 0 0.5 0.2 0 0.4 0.1 0.1 1.4 0.8 1.4 1 0.1 0.4 0.1 0.5 0.1 1.1-0.2 0.6-0.7 1.1-0.2 0.5 0.2 0.6 0.3 0.4 1 0.6 0.5 0.1 0.2-0.1 0.9 0.4 1.4 0.3 2.6 0.2 2.3-0.1 1.5-0.2 1.3-0.3 1.2-0.5 0.6-0.3 0.6-0.5 8.5-9.4 1.6-1.3 0.8-0.5 1-0.4 1.3-0.3 0.9-0.1 1 0.2 2.4 1 1.4 0.3 1 0 2.9-0.7 1.5-0.2 0.7-0.1 0.2-0.4 1.1-1.6 0.4-1 0.1-1.1-0.1-3.4 0.2-1.1 0.7-2.2 0.2-1.2 0-1.1-0.3-2.3 0-6.7 0.2-1.9 0.1-0.2 0.5 0.5 0.9 0.9 0.1 0.2 0.4 0.7 0.3 0.5 0.5 0.5 0.8 0.3 0.2 0.1 0 0.7 0.1 0.2 0.2 0.1 1 0.1 0.6 0.2 0.4 0.1 0.8 0 0.6-0.2 0.5-0.4 0.3-0.5 0-0.6 0.1-0.3 0.6-0.6 0.1-0.3-0.1-0.6-0.4-1 0.1-0.3 0.4-0.5 1.1-0.7 0.5-0.5 0.2-0.3 0.1-1 0.3-1.1-0.1-0.5-0.2-0.5-0.1-0.6 0.1-0.3 0.4-0.4 0.7-0.4 1.2-0.5 0.4-0.3 0.2-0.3-0.2-0.8 0.1-0.3 0.5-0.3 0.2-0.5 0-1.6 0-0.7 0.3-0.7 0.5-0.9 0.3-0.7-0.2-0.6-0.4-0.5-0.3-0.6-0.2-0.6 0.5-4.4 0.2-1 0.3-0.7 0.8-0.7 4-2.2 1.3-0.9 0.7-0.8 0.2-0.7 0.1-0.7-0.1-0.7-1.5-10.6 0.1-0.7 0.2-0.6 0.3-0.7 0.5-0.6 0.5-0.6 4.6-4.1 0.7-0.9 0.5-0.9 0-0.6-0.2-0.7-0.3-0.6-0.4-0.6-1.1-1.2-5.6-3.9-2.3-2.5-2.5-2.3-2.6-1.8-0.3-0.9 0-1.1 1.3-2.1 0.5-0.7 0.6-0.4 0.5 0 0.3 0.1 0.6 0.4 0.5 0.2 0.1 0.2 0.3 0.5 0.3 0.3 0.6 0.2 0.5 0.1 0.2 0.2 1.1 1 0.7 0.4 0.1 0.2 0.3 0.8 0.4 0.3 0.9 0 0.2 0.1 0.4 0.3 0.3 0.4 0.8 2.1 0.3 0.4 0.7 0 0.2 0.2 0.4 0.7 1.3 1.2 0.5 0.2 0.9 0.2 0.4 0.2 0.3 0.5 0.3 1.1 0.2 0.5 0.7 1.1 0.4 0.3 0.5 0.2 0.7 0.1 0.6-0.1 0.9-0.2 1.9-0.1 0.6 0.1 0.5-0.1 0.6-0.3 1.2-0.7 0.6-0.4 0.5-0.4 0.5-0.6 0.6-0.5 0.6-0.1 2.3-0.2 0.6-0.2 3.5-2.2 0.6-0.3 0.6 0.1 0.7 0.3 0.4 0 0.5-0.1 0.3-0.2 0.1-0.3 0.1-0.5-0.4-0.7 0-0.6 0.3-0.4 0.2-0.2 0.3 0 0.5 0.2 0.5 0.5 0.7 0.5 0.6 0.1 0.5 0 0.4 0 0.3 0.1 0.7 0.7 0.4 0.3 1 0.5 0.8 0.2 1.2 0 0.5 0.2 0.5 0.5 0.4 0.4 0.4 0.3 0.5 0.2 0.9 0.5 0.5 0.6 0.1 0.5 0 0.5 0.1 0.5 0.2 0.5 0.3 0.4 0.8 0.7 1 0.4 0.3 0.4 0.4 0.7 0.5 0.6 1.1 0.3 0.6 0.5 0.8 0.3 2.3 0.4 3.6 0.3 1.3 0.4 1.1 0.7 0.2 0.2 0.2 0.5 0.3 0.4 0.4 0.4 0.4 0.2 0.6 0.1 1.4-0.2 3-1 0.3 0 0.6 0.1 0.4 0.2 0.4 0.4 0.3 0.8 0.3 0.4 0.2 0.2 0.5 0.1 2.2-0.2 1.1 0.1 0.6 0.1 3.8 1.7 2.4 0.7 0.9 0z" id="COD1895" name="Maniema" data-id="COD1895" data-name="Maniema">
 </path>
 <path d="M640.4 376.8l0.6 1.6 0.9 6.3 0.6 4 0.9 3.1 0.8 1.8 4.7 6.5 5.1 9.4 1.3 1.9 1 0.9 0.9 0.2 18-1.1 0.7 0 0 0.3-0.4 4.4-0.5 1.6-0.2 1.1 0.1 0.9 0.3 1 0.3 3.5 0.2 1 0.8 2.4 0 0.9-0.2 0.9-1.9 4.2-0.4 2.2-1.5 2.4-0.5 1.1-0.2 1.1-0.1 1.9 0.2 0.3 0.4 0.3 0.3 0.4-0.1 0.6-0.5 0.4-0.3-0.2-0.4-0.4-0.3-0.1-0.4 0.5 0.2 0.4 0.4 0.4 0.3 0.1 0.1 0.2-0.4 1 0 0.4 0.2 0.8-0.3 1.1-1.2 2.3-0.9 0.8-0.2 0.4-0.1 1.8-0.7 0.5-0.6 0-0.7-0.1-0.7 0.2-0.5 0.3-0.1 0.2 0.2 0.5 0.2 3.5-0.4 0.5-1.1 0.2-0.7 0.6-0.9 1.7-0.1 0.1-0.5 0-0.1 0.5 0 0.5-0.1 0.5-0.4 0.4-0.4 0.1-1 0.1-0.9 0.4 0.1 0.8 0.9 1.6 0.1 0.5 0 0.6-0.2 0.5-0.4 0.2-0.6 0.1-0.3 0.2 0 0.3 0.1 1.6 0.8 3.3 0.2 0.5 0.1 1.7-0.1 0.3-0.5 0.5-0.8 1-1.1 1.9-0.8 0.5 0.6 1.7 0.5 0.5 1 0.3-0.4 0.6-0.3 0.2 0.5 0.2 0.6 0.1 1.2 0 0.6 0.3-0.1 0.4-0.4 0.4-0.3 0 0.3 0.8 0.4 0.9 1.1 1.6 0.7-0.8 0.6 1.4 0.2 0.4 1.5 1.3 0.2 0.3 0 2.2 1.5 1.4 0.3 0.2 0.8-0.6 0.3-0.1 0.3 0.1 0.2 0.2 0.6 1.2 0.5 2 0.4 0.4 0.4 0.2 0 0.5-0.2 0.8-0.2 0.1-0.2 0.6 0.2 0.2 0.4 0.3 0.4 0.5 0.3 0.3 0.1 0.4-0.5 0.7-0.2 0.4 0 0.6 0 1.1 0.1 0.5 0.5 0.8 0.2 0.7-0.2 0.7-0.3 0.4-0.3 0.5-0.3 0.5-0.9 4.4 0.5 0.4 0.6 0.8 0.9 1.7-0.5 0.7-2.1 1.8-1.9 2.8 0 0.5-0.8 0.3-1 0.7-0.9 1-0.5 1.3-0.5 1-0.1 0.6 0.2 0.6 0.3 0.4 0.2 0.4-0.3 0.4 0.2 0.3 0.8 0.5 1.1 2.8 0.5 0.4 0.4 0.2 0.9 0.9 1.4 0.7 0.3 0.5 0.4 1.1 0.3 0.4 1 0.8 0.2 0.3 0.1 1.2 0.3 1.2 2.4 4.8 1 0.3 1.4 0.1 61 0.2-1.2 2.3-2.1 6.2-0.6 1-3.7 5.3-1.3 2.5-0.7 2.7 0 0.9 0.2 0.9 2.3 3.4 0.3 0.7 0.1 0.6-0.2 0.6-0.4 0.6-1.3 1.4-0.7 1-0.9 1.8-0.3 1-0.1 0.8 0.3 0.9 0.3 0.6 0.4 0.6 0.5 0.6 2.4 2.2 0.6 0.6 0.5 1 0.3 1.6-0.3 7 0.3 3.2 0.2 0.9 0 0.6-0.1 0.6-0.3 0.7-1.3 2.3-0.1 0.8 0 0.8 0.3 0.7 1.4 2.7 0.3 1 0.1 0.7-0.2 0.7-0.4 0.7-0.4 0.5-0.5 0.5-0.6 0.2-0.7 0-2.8-0.3-0.6 0.1-0.6 0.1-0.6 0.2-0.6 0.3-0.6 0.5-0.8 0.9-0.5 0.4-0.6 0.2-0.5-0.1-0.6-0.2-0.3-0.5-0.2-0.6 0-1.2-0.2-0.6-0.4-0.6-0.6-0.4-0.7-0.3-3.9-1.3-1.3-0.3-0.6 0-0.6 0.1-0.7 0.2-0.6 0.3-5.9 5.4-0.6 0.3-0.6 0.1-1.9 0.1-0.6 0.2-0.6 0.2-1.9 1.3-0.6 0.3-0.5 0.1-0.9 0.1-5.4-1.3-3-0.1-0.8 0.2-0.9 0.5-1.1 1-0.6 0.8-0.5 0.7-0.1 0.5 0.1 0.2 1.5 2.2 3.8 4.2 0.8 0.5 0.7 0 0.3 0.1 0.4 0.6 1.2-0.1 2.2-0.4 1.6-0.2 0.4 0.1 0.4 0.3 0.2 0.6 0.1 0.5-0.1 0.5-0.4 0.3-1.4 0.7-0.5 0.4-0.3 0.4 0.1 0.3-0.1 0.9-0.1 0.8-1 2.4-0.1 0.5-0.6 0.6-0.6 0.5-4.9 1.9-0.6 0.2-0.8 0.1-0.7-0.2-3.1-2.7-0.6-0.4-3.9-1.5-1.3-0.3-2.5-0.3-2.5 0-2.6 0.2-0.7 0.1-0.7 0.3-0.8 0.7-0.5 0.6-0.5 0.7-0.2 0.7-0.1 0.8 0.2 1.4-0.1 0.9-0.4 0.5-7.5 5.8-1.5 0.7-0.7 0.3-1.4 0.3-0.9 0.4-1.1 0.7-2.7 2.2-0.9 0.4-2.6 0.1-0.7 0.1-0.5 0.3-0.3 0.4-0.6 1.1-0.7 1.1-0.6 0.5-0.7 0.4-0.6 0.1-0.6 0-0.6-0.1-2.6-0.8-6.5-3.3-0.5-0.5-0.2-0.5-0.1-0.7 0.1-1.3 0-0.6-0.2-0.6-0.3-0.6-0.5-0.6-0.6-0.5-0.7-0.2-0.9 0-0.7 0.2-0.6-0.2-0.6 0.2 0.2 0.4 0.3 0.4 0.3 0 0.2 1.6-0.1 0.2-0.6 0-0.5 0.1-0.4 0.3-0.1 0.6 0.2 0.1 1 1.1 0.1 0.4-0.3 0.2-0.3 0.5 0.2 0.3 0.2 0.1 0.4 0-0.2 1.2-0.5 1-0.8 0.8-1.2 0.3-0.7 0-0.5 0.2-0.5 0.2-0.3 0.3-0.2 0.8-0.3 0.4-0.6 0.2-1.3 2.5-0.1 0.6-0.3 0.3-1.5 1-0.4 0.6-0.1 0.5 0.4 3.4-0.2 1.2-0.6 1-0.1 0.6 0.5 0.4 1.2 0.6 0.5 0.7 0 0.3-0.1 0.5-0.3 0.3-0.3 0.2-0.4 0.4-0.8 4.7-0.4 0.9-0.4 0.7-0.2 0.3-0.7 0.6-0.2 0.3 0.2 0.9 0 0.4-0.3 0.5-0.2 8.8 0.3 0.9 1.2 2 0.3 1.3 0 0.5-0.1 0.4-0.4 0.2-2.3-0.2-1.2 0-0.7 0.1-0.7 0.2-0.7 0.4-0.8 0.7-1.4 1.9-0.6 0.5-0.7 0.2-0.6-0.1-1-0.9-0.5-0.2-2.8 1.3-0.6 0.2-0.6 0-4.7-0.2-0.8 0.1-0.7 0.2-1.2 0.5-1 0.3-1.1 0.1-1.4-0.1-0.8-0.2-2-0.8-0.7-0.1-0.7-0.1-1.2 0.2-0.6 0.1-0.7-0.2-0.6-0.2-0.8-0.2-0.9 0.3-0.6 0.5-0.8 0.8-0.7 0.4-0.6 0.2-0.6-0.2-0.6-0.3-0.4-0.5-0.4-0.6-0.2-0.7-0.4-2.6-0.4-1.4-0.5-1.2 1.5-15.1 1.3-6.9 0.1-1.5-0.1-1.5-0.4-2.3 0-1.8 0.2-2.7-0.3-1.7-0.4-1.3 0-1.2 0.1-0.9 0.1-0.7 2.3-5.9 0.1-0.7-0.1-0.7-0.5-0.8-0.3-0.4-1.5-1.8-1.3-1-0.6-0.3-2-0.9-1.5-0.7-0.6-0.5-0.5-0.6-0.5-0.6-1.4-2.7-0.9-1.4-0.6-0.5-0.8-0.7-1.8-1-0.6-0.4-0.5-0.5-0.3-0.8-0.3-0.9-0.1-1.5 0.1-1 0.3-0.8 3.4-6.3 1.1-2.3 0.4-1.4 0.6-4.5 0.3-0.8 1.1-2 0.6-0.8 0.5-0.8 0.2-0.7-0.2-0.8-0.8-1.1-2.6-2.1-1-1-0.6-1-0.7-1.2-0.5-1.6-0.6-2.6-0.1-6.6 0.1-0.6 0.7-1.9 0.6-1.3 0.5-0.4 0.4-0.4 0.9-0.3 1.3-0.2 5.4-0.2 7.1-0.9 1.4-0.4 2.7-1.4 0.7-0.3 0.5 0 0.4 0.2 0 0.6-0.2 0.6-0.1 0.7 0.2 0.6 0.6 0.5 0.7 0.1 0.7-0.1 1.4-0.6 0.6-0.3 0.6-0.5 0.5-0.5 0.7-1.1 0.3-0.4 0.5-0.5 0.6-0.3 3.6-1.2 1.4-0.7 2-1.2 0.7-0.2 0.6-0.1 1.8 0.2 0.5-0.1 0.5-0.5 0.2-0.5-0.1-9.2-0.2-0.8-0.4-0.7-1.1-1-0.9-0.5-2.1-0.8-4.7-2.6-4.7-1.5-0.7-0.4-0.6-0.7-0.3-0.9-0.5-0.6-0.5-0.5-0.6-0.1-0.6 0.1-4.9 1.7-0.7 0.2-0.7 0.1-0.6 0-0.6-0.1-0.8-0.4-0.7-0.7-3.3-4.2-5.4-4.8-4.2-3.2-0.5-0.7-0.4-0.7-0.2-1-0.2-2.4 0.1-1.3 0.1-0.6 0.2-0.6 0.3-0.6 0.7-1.1 0.4-0.5 0.5-0.4 0.3-0.1 7.2-1.9 0.6-0.3 0.6-0.4 0.5-0.7 0.2-0.6 0.1-0.6 0.1-0.6-0.1-1.3-1.1-5.4-0.4-0.8-0.5-0.8-1.1-1.1-0.8-0.4-0.8-0.3-3.4-0.3-3.8-0.8-2.4 0-1.4-0.2-0.9-0.3-0.6-0.3-0.6-0.6-3.4-4.3-5.1-5.2-2.6-2-3-1.6-2.8-1.1-1-0.5-3.8-3-0.7-0.6-0.6-0.8-1.2-1.7-3.8-4.3-0.5-0.4-0.5 0.2-3.7 0.8-1 1-1.1 0.2-1.2 0-0.9-0.2-0.6-0.4-0.7-0.6-0.6-0.6-0.2-0.7-0.5-0.4-2.5-0.4-0.9 0 0.2-0.9 0.4-0.5 0.4-0.6 0.6-0.5 0.7-0.3 0.7-0.2 0.6-0.1 0.6-0.1 0.7 0 2 0.2 0.7 0 0.7-0.1 0.7-0.3 0.4-0.5 0.1-0.9-0.1-1-2.6-6.7-0.8-1.4-0.6-0.6-0.6-0.4-0.6-0.2-3.7-0.9-0.6-0.2-0.5-0.4-0.7-0.7-0.4-0.5-0.3-1.1-0.2-1.4 0-4 0.3-1 0.4-0.5 1.8-1.8 0.6-0.8 0.4-0.7 0.3-0.8 0.2-0.9 0.3-2.1 0.3-0.7 2.5-4.3 4.2-11.9 0.1-0.9-0.1-0.9-0.4-1.7-0.6-1.7-0.9-1.5-6.5-8.8-1.2-1.1-0.4-0.5-0.4-0.7-0.5-1.4-0.3-1.3-0.5-3.3-0.9-1.6-2.8-2.3 0.9-0.6 0.2-0.3 2.1-2.7 0.5-0.6 2.8-1.3 1.2-0.7 1.4-1.3 0.5-0.5 1.5-2.1 0.7-0.5 0.8-0.3 1 0 0.5 0.2 0.5 0.5 0.3 0.6 0.3 0.8 0.1 0.8-0.3 3.8 0.1 0.8 0.3 0.7 0.3 0.6 0.6 0.5 0.5 0.4 0.9 0.1 0.9-0.1 1.3-0.9 0.5-0.8 0.2-0.9 0-0.8-3.3-11.7-0.6-5.5-0.5-2.1-1.8-4.2-0.2-0.7 0-0.6 0-0.5 0.3-0.4 0.4 0 5.2 1.5 2.4 0.4 7.9 0.5 0.9 0 0.7-0.2 0.9-0.4 0.5-0.5 0.6-0.7 3.1-5.1 0.9-1 0.4 0 0.5 0.3 0.2 0 0.7-0.2 0.8-0.1 0.5 0 0.4 0.2 1 0.6 1.8 0.8 0.8 0.6 0.5 0.2 2.1 0.1 0.8 0.3 0.6 0.4 0.6 0.2 1.2 0.6 1.7 1.2 0.3 0.4 1.3 2.2 0.2 0.1 0.4-0.1 2.9-1.2 0.7-0.1 0.9-0.1 1.7 0.1 1 0.2 0.8 0.2 0.6 0.4 0.7 0.4 0.6 0.5 1 1.2 0.5 0.7 2 3.3 0.5 0.5 0.7 0.3 0.9-0.3 0.6-0.3 0.6-0.4 14.6-2.8 1.3-0.1 1.3 0.1 3.9 0.6 0.6 0 0.6-0.2 0.2-0.6 0-1.9 0.4-0.8 0.9-1.1 2.1-1 0.8-0.8 0.4-0.7 0.1-3.3 0.1-0.7 0.3-0.6 0.6-0.6 0.5-0.4 0.8-0.3 1.2-0.2 1.8-0.1 2.3 0.1 3-0.1 0.7-0.2 0.7-0.4 1.4-0.2 2.3-0.2 17.7 2.2z" id="COD1896" name="Kasaï-Oriental" data-id="COD1896" data-name="Kasaï-Oriental">
 </path>
 <path d="M504.5 685l7.3 2.9 0.6 0.4 0.6 0.5 0.5 0.6 0.9 0.8 0.6 0.4 2.6 1.2 5.4 1.3 3.6 0.3 12.5-1 1.5-0.3 1.2-0.5 2.4-2.2 0.6-0.4 0.4 0 0.8 0.1 0.8 0.4 0.6 0.6 0.4 0.7 0.2 0.6 0.7 3.5 0.5 1 0.2 0.4 0.7 0.5 0.6 0.3 0.7 0.2 0.7 0.2 0.9 0.1 2.8 0 1 0.1 1.7 0.6 1 0.2 1.1 0 2.5-0.5 7.5-2.8 3.7-2.2 0.5 1.2 0.4 1.4 0.4 2.6 0.2 0.7 0.4 0.6 0.4 0.5 0.6 0.3 0.6 0.2 0.6-0.2 0.7-0.4 0.8-0.8 0.6-0.5 0.9-0.3 0.8 0.2 0.6 0.2 0.7 0.2 0.6-0.1 1.2-0.2 0.7 0.1 0.7 0.1 2 0.8 0.8 0.2 1.4 0.1 1.1-0.1 1-0.3 1.2-0.5 0.7-0.2 0.8-0.1 4.7 0.2 0.6 0 0.6-0.2 2.8-1.3 0.5 0.2 1 0.9 0.6 0.1 0.7-0.2 0.6-0.5 1.4-1.9 0.8-0.7 0.7-0.4 0.7-0.2 0.7-0.1 1.2 0 2.3 0.2 0.4-0.2 0.1-0.4 0-0.5-0.3-1.3-1.2-2-0.3-0.9 0.2-8.8 0.3-0.5 0-0.4-0.2-0.9 0.2-0.3 0.7-0.6 0.2-0.3 0.4-0.7 0.4-0.9 0.8-4.7 0.4-0.4 0.3-0.2 0.3-0.3 0.1-0.5 0-0.3-0.5-0.7-1.2-0.6-0.5-0.4 0.1-0.6 0.6-1 0.2-1.2-0.4-3.4 0.1-0.5 0.4-0.6 1.5-1 0.3-0.3 0.1-0.6 1.3-2.5 0.6-0.2 0.3-0.4 0.2-0.8 0.3-0.3 0.5-0.2 0.5-0.2 0.7 0 1.2-0.3 0.8-0.8 0.5-1 0.2-1.2-0.4 0-0.2-0.1-0.2-0.3 0.3-0.5 0.3-0.2-0.1-0.4-1-1.1-0.2-0.1 0.1-0.6 0.4-0.3 0.5-0.1 0.6 0 0.1-0.2-0.2-1.6-0.3 0-0.3-0.4-0.2-0.4 0.6-0.2 0.6 0.2 0.7-0.2 0.9 0 0.7 0.2 0.6 0.5 0.5 0.6 0.3 0.6 0.2 0.6 0 0.6-0.1 1.3 0.1 0.7 0.2 0.5 0.5 0.5 6.5 3.3 2.6 0.8 0.6 0.1 0.6 0 0.6-0.1 0.7-0.4 0.6-0.5 0.7-1.1 0.6-1.1 0.3-0.4 0.5-0.3 0.7-0.1 2.6-0.1 0.9-0.4 2.7-2.2 1.1-0.7 0.9-0.4 1.4-0.3 0.7-0.3 1.5-0.7 7.5-5.8 0.4-0.5 0.1-0.9-0.2-1.4 0.1-0.8 0.2-0.7 0.5-0.7 0.5-0.6 0.8-0.7 0.7-0.3 0.7-0.1 2.6-0.2 2.5 0 2.5 0.3 1.3 0.3 3.9 1.5 0.6 0.4 3.1 2.7 0.7 0.2 0.8-0.1 0.6-0.2 4.9-1.9 0.6-0.5 0.6-0.6 0.1-0.5 1-2.4 0.1-0.8 0.1-0.9-0.1-0.3 0.3-0.4 0.5-0.4 1.4-0.7 0.4-0.3 0.1-0.5-0.1-0.5-0.2-0.6-0.4-0.3-0.4-0.1-1.6 0.2-2.2 0.4-1.2 0.1-0.4-0.6-0.3-0.1-0.7 0-0.8-0.5-3.8-4.2-1.5-2.2-0.1-0.2 0.1-0.5 0.5-0.7 0.6-0.8 1.1-1 0.9-0.5 0.8-0.2 3 0.1 5.4 1.3 0.9-0.1 0.5-0.1 0.6-0.3 1.9-1.3 0.6-0.2 0.6-0.2 1.9-0.1 0.6-0.1 0.6-0.3 5.9-5.4 0.6-0.3 0.7-0.2 0.6-0.1 0.6 0 1.3 0.3 3.9 1.3 0.7 0.3 0.6 0.4 0.4 0.6 0.2 0.6 0 1.2 0.2 0.6 0.3 0.5 0.6 0.2 0.5 0.1 0.6-0.2 0.5-0.4 0.8-0.9 0.6-0.5 0.6-0.3 0.6-0.2 0.6-0.1 0.6-0.1 2.8 0.3 0.7 0 0.6-0.2 0.5-0.5 0.4-0.5 0.4-0.7 0.2-0.7-0.1-0.7-0.3-1-1.4-2.7-0.3-0.7 0-0.8 0.1-0.8 1.3-2.3 0.3-0.7 0.1-0.6 0-0.6-0.2-0.9-0.3-3.2 0.3-7-0.3-1.6-0.5-1-0.6-0.6-2.4-2.2-0.5-0.6-0.4-0.6-0.3-0.6-0.3-0.9 0.1-0.8 0.3-1 0.9-1.8 0.7-1 1.3-1.4 0.4-0.6 0.2-0.6-0.1-0.6-0.3-0.7-2.3-3.4-0.2-0.9 0-0.9 0.7-2.7 1.3-2.5 3.7-5.3 0.6-1 2.1-6.2 1.2-2.3 133.8 0 15.2 0 0.1 0.6-0.3 1.1-0.5 1-0.3 0.9 0.2 0.7 0.4 1.1 0.5 1 0.5 0.4 1 4.3 1.6 4.2 3.8 5.9 0.5 0.4 6 10.5-0.2 1.4-0.5 0-0.4-0.3-0.4-0.3-0.6 0.4-0.1 0.5 0.6 1.2-0.3 1.3 0.4 0.9 0.3 1.1-0.8 1 0.8 0.1 0.4-0.1-0.6 0.7-0.9 2.1-0.4 0.8-0.5 0.6-4 3.3-3 1.5 0.4 0.7 0.1 0.7-0.1 1.9 0.3 4.1 0.3 1.1 0.7 0.6 2.5 1.3 0.4 0.2 0.3 0.4 0.1 0.8 0.1 1 0.2 0.4 0.3 0.4 0.5 0.3 1 0.4 0.4 0.5 0.2 0.5 0.4 2.7 0.4 1.4 0.6 1.3 0.8 0.6-0.1 0.6 1.4 3 1.4 4.9 1.2 1.8 2.4-0.2-0.2 0.7 0.1 1 0.2 1.2-0.8 2.2 0.9 3 0.1 1.2 0.3 0.7 2.6 3.6 4 3 0.7 0.6 0.5 0.8 1.6 3 2.3 2.5 2.1 3.2 1.4 1.5 1.9 1.1 2.9 0.9 1.1 0.2 0.7 0 0.6 0.1 1 0.5 0.5 0.1 1 0.4 7.3 6.3 0.7 1 1.3 3.2 1.2 2.1 0.4 1.1 0.3 1.9 0.8 2.4 0.1 0.5 0.1 1 0.5 2.3 0.1 1.1-1.1 1.8 0.1 1.2 1.7 5.9 1.2 0.8 0.4 1 0.2 1-0.3 0.9 0.2 0.8 0.1 1.4 0.1 0.7 0.4 0.7 1.4 1.8 1.3-0.1 1.3 0.4 1 0.9 0.5 1.5 0.3 0.1 0.8 0.1 0.4 0.1 0.2 0.6 0.2 0.4 2.2 2.2-0.1 0.2-0.3 0.5 1.2 0.2 1.2 0.5 0.9 0.6 1.4 2.7 0.4 0.4 1.1 1.1 0.7 1.2-0.1 0.9-0.4 1-0.2 1.4 0 1-12.9 1.9-24.4 3.8-13.9 2.1-11.9 1.9-17.3 2.6-6.3 1-1.1 0.4-0.2 0-1.1 0.7-5.8 8.5-4.8 4.9-2.8 3.5-3.7 3.5-1.1 1.4-1.8 3.1-1.1 1.3-2 1.1-0.2 0.2-1.2 1.4-3.1 2.3-0.7 1.1-0.3 1.2-0.1 1.2 0.3 1.2 0.7 1 0.3 0.9-0.3 1.4-0.6 1.3-0.7 1 0.6 0.5-0.4 1.6 0.5 1.2-0.7 1.2 0.5 1 0.8 1 0.5 1.3 0.2 1.1-0.1 0.7-0.3 0.7-1 0.9-0.2 0.5 0.3 0.7-0.7 0.6 0.8 0.4 1.4-0.7 0.9 0.2 0.5 0.3 0.7 0.2 1.4 0 1.6-0.3 2.6-1 1.2 0.3 0-1.5-1.1-0.4-1.3 0-1.2-0.4 1.3-1.2 0-3.1 0.9-1.1 0 0.7 0.8 0 0.1 1-0.1 1.8 0.2 0.8 0.6 0.6 1.3 0.9 0.4 0.6 0.2 0.6 0.1 0.7 0 0.9 0.3 0.7 0.6 0.2 1.7 0-0.4 0.4-1.2 0.4-0.2 0.3 0.2 0.5 1 1.1 0.2 0.7 0.1 0.5 0.5 1.1 0.1 0.6 0 2.5 0.4 1 0.7 1.1 0.5 0.3 0.5 0.2 0.3 0.3 0.1 0.8 1.4 1.4-0.1 0.2-1 0.4-0.5 1-0.5 2.3-1.6 3.4-0.2 1.2 0.4 3.8-0.2 4.2-0.5 2.1-0.8 1.7-1.3 1.5-0.5 1 1.8 1.5 0.2 0.8 0.2 0.3 0.7 0.4 0.3 1-0.2 0.8-0.3 0.9-0.1 1.1 0.1 1.3 0.4 1 0.5 0.8 0.4 1.1 0 0.6 0 0.7-0.3 0.6-0.3 0.5-0.2 0.5 0.5 0.8-0.3 0.5 0.1 0.7 0.6 1 1.3 1.4 0 0.6-0.3 1.2 0 0.6 0.2 0.5 1.3 1 0.2 0.3-0.2 1.1-0.7 1-0.8 0.8-0.8 0.6-0.3 0.1-0.6-0.1-0.3 0.2-0.3 0.3-0.8 1.3-0.3 1.1-0.4 0.5-0.9 1-0.7 1.1-0.5 1.3-0.2 1.2 0 2.4-0.1 0.6-0.6 1-0.1 0.6-0.2 0.6-0.9 0.9-0.3 0.5-0.1 0.5 0.1 1.2 0 0.5-0.2 0.6-0.7 1.3-0.7 1-0.1 0.5 0.6 2.9 0 0.7-0.1 0.5-0.5 0.6-0.1 0.3-0.1 0.6 0.1 1.8-1 2-0.5 0.6-0.5 0.8-0.2 1.2 0.4 2-0.3 0.1-1.1 0.9-0.2 0.3-2.7 3.9-0.1 1 0 2.9 0.3 0.8 0.2 0.4 0.7 1.6 0.4 0.5 0.7 0.8 0.3 0.5 0.9 3.2 0 0.5-0.2 0.2 0.4 0.5 0.7 0.8 0.2 0.5 0.5 3.7 0.4 0.7 0.9 0.2 0.6 0.6 0.4 2.6 0.6 0.8 0.7-0.3 0.5 0 0.5 0.3 0.5 0.4 0.2 0.3 0.6 1 0.2 0.5 1.2-0.7 0.7 0.5 1 2 0.7 0.6 2.5 1.4 1.1 0.3 1.9-0.3 0.4 0.4 0.2 1.5 0.3 0.8 0.7 0.6 1.9 1 0.6 0.6 0.7 0.9 0.6 1 0.2 1 0.5 0.6 3.1 1.8 1.4 1.7 4.2 7.9 0.2 0.5 0.1 0.7 0.2 0.2 0.4 0 0.5 0.2 0.8 0.1 0.9-0.5 0.8-0.1 0.6 1 0.9-0.5 1.1-0.5 1.2-0.3 4.3-0.1 0.5 0.2 1 1.1 0.6 0.5 0.5 0.2 0.6 0.1 2.1 0.1 0.4 0.1 2.2 1.2 1.4 0.5 0.4 0 0.7 0 0.3 0 0.3 0.2 0.4 0.4 0.4 0.1 1-0.1 0.8-0.5 0.5-0.7 0.2-1-0.2-1-0.7-0.3-0.8 0-0.8-0.4-1.5-2-0.2-0.4 0-0.4 0.2-0.5 0.2-1.3 0.7-2.1 0.3-0.6 0.8-0.6 2.3-0.8 1-0.7 0.8-0.7 0.5-0.2 0.7 0 0.7 0.3 0.9 0.9 0.6 0.3 0.8-0.2 2.8-1.2 1.8-1.3 1.1-0.4 2.2-0.2 0 0.3 0 11.9 0 9 0 8 0 9.4 0 15.7-0.1 14-0.8 1.7-0.8 0.1-3.3 0-2.1-0.6-1.1-0.5-0.8-0.4-0.5-0.5-0.4-0.6-0.2-0.5-0.2-0.7 0-0.7 0.4-0.3 0.5-0.1 0.3-0.2 0.1-0.5-0.1-1.1 0.1-0.4 0.3-0.4 1-0.2 0.4-0.3 0.2-0.4 0.2-0.6 0.1-0.5-0.1-0.6-0.5-0.6-0.4 0-0.5 0.2-0.6-0.1-1-0.7-0.9-0.7-1-0.5-1.2-0.1-1.2 0.5-3 2.9-1.1 0.7-7.4 2.9-3 2-1.2 0.5-0.7 0.4-1 1.2-0.6 0.3-0.8-0.1-0.4-0.7-0.4-0.8-0.5-0.6-1.1-0.6-1.3 0-1.3 0.2-1.4 0.1-0.9 0.3-1 0.2-0.8-0.2-0.7-0.8-1.6-1.6-0.9-2.2-1.6-7.9-0.6-0.9-0.5-0.2-1 0-0.5-0.3-0.5-1.9-0.2-0.1-0.5-0.1-0.3-0.3 0-0.3 0.1-0.5-0.1-0.5 0.3-0.6 0-0.3-0.2-0.2-0.7-0.3-0.2-0.2-0.5-1.9-0.4-0.6-0.9-0.8-3.5-4.7-2.1-2.2-2.5-0.5-0.7 0.4-0.7 1.6-0.5 0.6-0.8 0.4-0.8 0-0.6-0.5-0.2-2.8-0.8-1.3-1.1-1.1-1.1-1.5-0.4-1.3 0.5-0.8 0.9-0.6 0.6-0.9 0-1.4-0.5-1-1.8-1.9-0.6-1.2-1-2.6-0.8-1.2-4.3-3.8-0.9-0.5-1-0.3-1-0.1-1.1 0.2-1.4 0-0.9-0.6-0.8-0.8-1-0.5-1.3 0.4-0.8 0.7-0.7 0.4-1.3-1.1-0.2-0.4-0.1-0.6-0.2-0.4-0.5-0.3-3.9-0.4-0.7 0.1-1 0.1-1.2-0.3-0.3-1.2-0.2-1.3-0.8-1-2.9-1.8-1.1-0.4-1.3-0.1-0.7 0.4-0.6 0.7-1 0.8-1.6 0.5-2.4 0.1-2.4-0.2-1.4-0.5-2.3-2.5-3.1-2.5-0.8-1.1-2.6-7.4-0.2-2.2-2.4-4.2-9.8-6.1-1.3-4.6 0.1-1.8-0.2-2.7-0.5-2.4-0.9-1.3-0.4 0.1-1.5 0.5-2.2 0.2-2 0.7-0.5 0-1.2-0.2-0.4 0.1-0.7 0.8 0 1 0.7 2.2-0.1 1.5-0.6 0.8-0.8 0.7-0.8 1.2-0.5 2.1-0.2 4.4-1 2.1-1.8 1.8-2 1.1-2.3 0.5-2.4-0.3-1.4 0.1-0.8 0.6-0.6 1-0.8 0.7-1 0.3-0.9-0.4-0.9-0.7-1-0.6-2-0.4-4.2-0.3-1.9-0.7-1-0.7-0.8-0.8-0.9-0.7-1.2-0.4-2 0.1-2 0.3-0.5 0.2-1 0.7-0.6 0.3-0.6 0-1.1-0.6-1.9 0.2-1.1-0.5-1-0.7-1.2-0.5-9 0.1-0.7 0-0.9-0.5-0.8-1.6-0.7-0.6-1.1-0.4-2.9-2.4-0.4-0.4-0.6-0.1-0.4 0.1-1 0.5-0.6 0.1-3-0.1-1-0.1-2-1.2-1.7-1.5-1.7-1.2-2.4-0.1-0.5 0.4-0.1 0.5-0.2 0.5-0.6 0.2-0.6 0.1-0.7 0.7-0.5 0.2-1 0.1-0.8-0.4-0.4-0.7 0.5-1.4 0-0.5-0.1-0.3-0.9-0.8-3-1.5-0.5-0.4-0.2-0.5-0.4-0.3-0.6-0.1-0.7 0-0.5-0.1-0.3-0.2-0.5-0.5-0.4-0.9-1.5-4.3-0.1-1 0-0.5 0.2-0.5 0.7-0.9 0.1-0.5-0.4-0.9-1.2-2.1-0.4-1.1 0-1.3 0.4-0.6 0.6-0.5 0.5-0.9-0.3-0.5-0.6-0.5-0.3-0.4 0.6-0.5 1.1-0.4 0.4-0.4 0.1-0.5-0.2-1.1 0.1-1.4-0.1-1.2-0.6-0.5-1.7 0.2-5 2.5-3.1 0.7-7.5 0.7-2-0.2-2.2 0.7-3.9 1.9-2 0.5-3.9 0-2.1 0.8-0.5 0.5-1 1.4-0.5 0.5-0.5 0.2-1.2 0.3-0.5 0.2-0.4 0.4-0.4 0.5-0.2 0.5-0.1 0.6-0.4 0.4-0.5 0.1-0.6 0-0.6 0-2.1 0.8-1.2 0.2-1.2-0.1-1-0.5-1.8-1.6-1.2-0.7-0.9-0.2-2.2 0-0.9-0.4-0.4-1 0.7-0.5 2.1-0.7 0.7-0.7 1.7-2.7 0.4-0.8 0.2-1.1 0.1-1.1-0.1-1.1-0.3-1-0.3-0.4-0.9-0.8-0.3-0.6 0-0.8 0.4-0.5 0.5-0.5 0.1-0.6-0.6-1.1-1.3-1.2-1.5-0.9-1.2-0.6-0.9-0.1-2 0-1-0.1-2-0.6-0.8 0-1.1 0.3-1 0.2-0.4-0.7 0.1-1.8-0.1-0.6-0.4-1.1-0.1-0.5 0-0.5 0.3-1 0-0.4-1.2-1.2-2.2-0.8-2.5-0.5-1.8-0.1-0.9 0.5-0.5 1.1-0.2 1.3-0.4 1-0.5 0.5-1.1 0.7-0.5 0.4-0.3 0.5-0.4 1.2-0.4 0.5-1.8 0.7-2.1-0.4-2.1-0.7-2-0.2-2.1 0.1-1.7-0.1-7.7-2.1-2-0.2-2.2 0.1-2.2 0.6-9.2 5.2-4.3 0.7-5.3 0.9-2.3 0-2-0.3-1.1-0.4-1.9-1.3-1.1-0.6-1.3-0.1-1.1 0.6-1.2 0.9-1.1 0.6-1.9 0.3-2-0.2-2-0.5-5.9-2.5-1.9 0.3-1.7 4.3-1.5 1.3-5.3 1.8-0.7 0.5-2.3 2.5-1 0.6-1.3 0.1 0.7-2.2 0.2-2.2-0.6-4.8-0.4-1-0.8-1.5-0.2-1-0.2-0.2-0.7-0.6-0.2-0.2 0-2.1-1.1-3.7-0.5-0.8 0-0.9 0.9-1.2 1.2-1.1 0.9-0.7 2.2-0.9 1.3-0.4 1-0.1 0.5-0.5 0.2-1-0.2-2 0.4-0.5-0.8-1.4-0.2-1.9 0.1-2.2-0.2-2.2-0.5-1.1-0.6-0.7-0.5-0.7-0.1-1.2 0.3-1.1 1.2-1.9 0.2-0.8 0.1-0.6 0.3-1 0-0.6-0.1-0.6-0.8-1-0.5-1.6-1.2-2.2-0.9-2.5-1.3-2.4-1-2.4 0.4-1.7-0.3-0.7-0.4-2.2-1.1-2.9-0.4-1.9-0.4-1.2-0.7-0.8-2-1.3-0.9-0.8-0.6-0.3-0.4 0.4-0.3 0.1-0.6-0.3-3-3.5-0.6-1.5-0.1-1.7-0.3 0.2-1.2 0.5-0.7-2.1-3.3-3.5-1.3-2.1-0.6-2.2-0.6-4.6-0.6-2.2-0.4-0.5-0.9-1.1-0.2-0.6 0.1-0.7 0.5-1.1 0.4-1.8 1.6-3.3 0.5-2.3 0.1-2.1-0.7-5.4 0.8-6-0.1-2.8 0.4-4.2 0.5-1.3 0.4-1.8 0.4-0.3 1.1-7.3 0.6-1.6 1-1.7-0.4 0-0.7-0.3 1.3-4.1 0.2-2.3-0.4-2.3-1.3-2-0.6-1.4 0.3-0.6 0.8-0.4-0.6-1-1.5-1.5-0.4-1-0.6-2.5-0.1-2.3-0.2-0.9-0.3-0.7-1.3-1.5-0.6-0.9-0.3-1.1-0.1-1.3-0.4-0.6-1.6-0.9-0.5-0.5-0.3-0.9-0.1-3.6 0.2-0.5 0.7-1.1 0.2-0.6-0.1-0.6-0.3-1.4 0.3-2.3 2.9-8.5z" id="COD1897" name="Katanga" data-id="COD1897" data-name="Katanga">
 </path>
 <path d="M931.6 238.6l-1.2 0.9-0.6 0.4-1 2.1-0.1 0.5 0.3 2.7-0.7 4.4 0 1.1 1 4.3 0.1 2-0.9 2-3.8 4.3-0.6 1-0.3 1.2-1.7 8.6-0.2 0.4-0.5 0.3-0.4-0.1-0.4-0.4-0.6-0.2-0.3 0.6-2.3 3.2-0.4 1.4-0.1 0.9 0.6 2.3 0.1 1-0.3 1-0.8 1.9-0.3 1.6-0.1 0.3-0.6 0.8-1 0.3-0.9 0.2-5.6 1.6-2 1.4-1.6 1.8-0.8 2.2-0.5 3.2-0.5 0.9-1.9 2.1-0.4 1.2 0.4 1.2-0.6 0.4-0.8 1.2-0.4 0.6-0.8 0.5-0.6 0.2-0.6 0.3-0.5 0.8 1.8 0.9-0.5 1.3-1.2 1.4-0.1 1.4 0.4 0 2 0 0.7 0.3 0.3 0.6 0.1 0.7 0 1.3-0.2 0.5-0.1 0.5-0.1 0.6 0 0.6 0.4 0 0.2-0.4 0.6-0.7 0.3 0.6 0.7-0.7 0.8-1.6 0.7-0.9-0.1-0.5 0.7-0.2 1 0.5 0.5 1.3 3.9-2 1.8-1.2 1.2-1.8 0.8-2.8 0.4-0.5 0.3-0.1 0.2 0.4 0.3 0.8 0.2 3.3-0.1 0.7-0.5 0.3-0.5 0-0.5 0.2-0.2 0.5 0.1 0.3 0.4 0.6 0.1 0.3-0.1 0.4-0.5 0.5-0.2 0.3-0.7 4.1 0 1.1 0.5 2 0.1 1.1-0.1 3.2-0.2 0.8-0.6 0.7-1.5 0.5-0.6 0.9-0.1 0.5 0 0.5 0.2 1 0.1 0.8-0.2 0.5-0.3 0.4-0.1 0.7 0.1 0.9 0.8 2 0.2 1 0 1-0.7 3.2 0 1.3 0.5 0.8 0.5 0.8 0.3 1.1 0 0.5-0.5 1.3 0 0.6 0.6 1 0.2 0.6 0 1-0.5 3.1-2 0.7-2.1 1.5-1.8 1.9-1.2 1.9-0.4 0.2-4 0.2-0.8 0.3-0.6 0.8-1.4 2.9-0.6 0.7-2.5 2.1-0.6 1-0.6 1.2-0.8-0.3-0.6-0.4-1.2-1-0.6-0.6-0.6-0.4-1.6-0.3-0.6-0.4-1-1.2-0.6-0.3-0.9-0.1-0.9 0.6-0.8 1.6-0.5 1.8-0.2 1.4 0.3 0 0.4-0.6 2.7-3 0.2-0.4 0.6 1.3 0.2 0.6-0.1 0.6-0.2 0.5-1.9 3-1.9-0.1-4.1 0.4-0.9-0.2-0.6-0.4-0.3-0.5-0.7-1.9-0.3-0.3-0.5-0.2-0.7 0.1-1 0.8-0.6 0.6-2.5 3.5-0.9 0.8-1.2 0.4-1.8 0-1.3-0.2-1 0.1-0.9 0.5-0.4 0.6-1.2 3.3-0.6 1.2-0.7 0.9-0.9 0.6-1 0.4-1.3 0.2-1.3-0.1-0.8-0.2-0.9-0.4-1.1-0.3-0.3-0.2-0.2-0.4-0.9-3-0.3-0.6-0.4-0.5-0.5-0.3-0.6-0.2-0.6-0.1-0.6 0.2-0.8 0.5-0.4 0.6-0.4 0.8-0.3 1-0.1 3.9-0.3 1.1-0.4 0.9-0.9 0.7-1.2 0.3-5.9 1.1-1.9 0.7-2.4 1.2-1.2 0.2-3.4-0.2-0.9-0.2-1.1-0.4-1.2-0.8-0.8-0.7-1.7-2-0.8-0.6-0.9-0.3-1.2 0.2-1.1 0.3-2.8 1.5-1.7-2.9-0.2-0.6-0.2-1.1-0.1-3.9-0.4-1.7-0.7-0.9-1.8-1-0.9-0.9-2-2.6-3.8-2.9-0.8-0.8-1.1-1.5-2.5-4.3-10.9-12.5-1.3-2.1-0.4-0.9-0.2-0.8 0.1-0.4 0.8-0.3 0.3-0.1 0.8-0.8 0.5-0.3 0.3 0 0.5 0.2 0.3 0.4 0.5 0.1 0.7-0.3 0.2 0.1 0.6 0.4 0.6 0 0.4-0.3 0.2-0.6-0.1-0.6-0.3-0.5-0.7-0.7-1.1-0.6-0.2-0.2-0.1-0.3 0-0.7-0.2-0.6-0.2-0.4-0.4-0.4-0.6-0.4-0.1-0.2 0-0.4 0.4-1 0.1-0.4-0.1-1.7 0.1-0.4 0.1-0.3 0.4-0.3 0.8-0.4 0.8-0.2 0.8-0.5 0.7-0.5 0.4-0.3 0.4-0.1 0.3 0 0.8 0.3 0.9 0 0.4-0.1 1.9-1.5 0.2-0.1 0.6-0.2 0.9 0.1 0.6 0 1-0.6 0.4-0.1 0.4 0.3 0.2 0.5 0.1 0.2 0.8 0.2 0.6 0.6 0.6 0.1 0.3-0.1 1.1-0.3 0.8 0 0.3-0.1 2.6 0 0.9-0.1 0.8-0.3 3.3-1.9 0.7-0.6 0.3-0.7 0.5-2.6 1.5-3.5 0.4-2.5 0.4-0.7-0.2-1.1-0.3-0.9-4.3-4.1 2.8-1.6 1.7-1.3 2.9-3.1 1.2-1.8 1.2-2.5 1.2-1.6 0.8-0.8 0.7-0.5 2.1-0.7 0.8-0.4 2.9-1.8 0.8-0.9 0.5-0.7 0.5-1.2 0.3-1.2 0.1-1.2 0-0.3-0.5-1.3-0.1-0.6-0.2-1.6-0.3-1.1-0.2-0.6-0.2-2.9-0.2-1 0.2-1.2 0-0.3 0.3-1.1 0-0.6 0.3-1.3 0.4-0.5 0.6-0.3 0.4-0.4 0.2-0.5 0.3-0.8-0.1-0.8-0.4-0.6-0.6-0.6 0-0.3 0.1-0.9-0.1-0.3-0.3-0.4-0.9-0.2-0.5-0.3-0.7-0.7-0.3-0.4-0.3-0.8-0.5-2 0-0.4 0.1-2.3 0-0.4-0.2-0.4-0.5-0.4-0.2-0.2 0-0.6 0.3-0.8 0-0.5-0.1-0.2-0.7-0.4-0.2-0.2-0.2-0.9-0.3-0.3-0.5-0.2-0.4-0.4-0.4-0.2-1.4 0.3-0.6-0.1-0.7-0.4-0.6-0.1-0.6-0.4-0.6 0.3-0.6-0.2-0.2 0.1-0.6 0.3-0.3 0-0.7-0.3-0.9-0.2-0.2-0.1-1-0.8-1.6-0.9-1.8-0.7-0.3-0.2-0.2-0.3-0.1-0.8 0.1-0.4 0.2-0.2 0.7 0 0.8-0.4 0.3 0 1.8 0.1 2.7-0.4 0.7-0.1 0.6-0.3 0.7-0.4 0.6-0.4 2.3-2.4 0.6-0.5 1.9-0.8 2.8-0.9 14.3-2 0.7-0.1 0.7 0.1 0.7 0.3 0.7 0.3 1.3 1.2 3.5 4 1 0.8 1.1 0.7 0.7 0.3 0.6 0.2 0.6 0.2 0.7 0 0.7-0.1 8-1.9 4.2-0.4 5.8 0.4 2.2 0.4 2.3 0.1 0.9-0.3 1.1-0.5 2.9-1.8 1.5-0.8 0.7-0.2 1-0.2 0.9 0.1 0.6 0.1 0.7 0.3 0.7 0.4 1.2 1 0.4 0.1 0.5 0 1.6-0.5 0.7 0 0.6 0.2 0.7 0.4 2 1.2 0.7 0.3 0.9 0 1-0.3 1.6-0.8 0.8-0.7 0.6-0.8-0.1-0.6-0.3-0.5-0.6-0.4-2.6-0.7-0.7-0.3-0.6-0.4-0.5-0.6-0.4-0.5-0.3-0.6-0.1-0.6 0.2-0.7 0.2-0.7 0.6-1.3 0.9-1.2 0.4-0.6 0.6-0.2 0.7 0 0.7 0.2 3.7 1.7 0.6 0.1 0.7 0.1 0.8-0.1 0.8-0.3 0.4-0.6 0.2-1.3 0.4-0.7 0.6-0.3 0.6-0.1 1.6 0.1 1.9-0.2 1.4 0.2 0.8 0 0.9-0.4 0.7-0.5 1.7-1.8 0.6-0.4 2.4-1 0.5-0.1 0.6 0.1 0.4 0.5 1 2 0.4 0.6 0.6 0.6 0.6 0.4 3.4 1.6z" id="COD1898" name="Nord-Kivu" data-id="COD1898" data-name="Nord-Kivu">
 </path>
 <circle cx="799.3" cy="117.2" id="0">
 </circle>
 <circle cx="798.1" cy="115.6" id="1">
 </circle>
 <circle cx="796.9" cy="123" id="2">
 </circle>
</svg>