<?xml version="1.0"?>
<!--
************* Copyright (c) 2017 Pareto Softare, LLC DBA Simplemaps.com *******************		
************* Free for Commercial Use, full terms at  http://simplemaps.com/resources/svg-license ************
************* Attribution is appreciated! http://simplemaps.com ***************************
-->
<svg baseprofile="tiny" fill="#7c7c7c" height="678" stroke="#ffffff" stroke-linecap="round" stroke-linejoin="round" stroke-width="2" version="1.2" viewbox="0 0 1000 678" width="1000" xmlns="http://www.w3.org/2000/svg">
 <path d="M322.7 513.3l-1.4-0.1-1.5 1.4-1.2 2.1-0.3 1.6-1.9-1.4-0.5-1 0.9-1.6-1.4-1.1-0.5-1.2 0.3-0.8 0.6-1.3 1.2-1.3 1.2-0.4 1.9 0 0.9 0.6 0.7 1.3 0.6 1.6 0.4 1.6z" id="CAF1460" name="Bangui" data-id="CAF1460" data-name="Bangui">
 </path>
 <path d="M325.7 408.9l4 4.8 2.8 1.1 1.3 0 8.7 1.4 0.8 0.7 0.5 1.3 1.2 7.5 0.8 1.5 1.2 1.3 2.7 2 1.6 0.9 0.8 0.7 1 1.3 1.6 2.8 0.6 1.8 0.2 1.4-0.3 1.8-2 5.8-0.4 1.9 0.1 1.8 0.6 1.9 7.1 9.6 1.2 2.9 0.1 0.3-0.3 2.6 0.2 2.3-1.8 1.7-1.1 1.4-0.8 1.8-0.7 2.4-0.4 0.7-0.6 0.7-0.7 0.5-0.5 0.6-0.7 3-1 1.1-1.3 0.9-1.4 1.1-2.6 4.5-0.4 0.2-1.5 0.6-0.5 0.4-0.8 2.2-2.6 2.1-1.9 2.6-3.9 9.7-1.8 2.6-2.5 1.8-3.5 1.2-1.6 0.3-1.5 0.1-1.5-0.3-1.5-0.9-0.4-1.6-0.6-1.6-0.7-1.3-0.9-0.6-1.9 0-1.2 0.4-1.2 1.3-0.6 1.3-0.3 0.8 0.5 1.2 1.4 1.1-0.9 1.6 0.5 1 1.9 1.4 0.6 1.3 2.1 1.8 0.4 0.9 0.4 1.4 2.8 5.1 1 3 1 6.5-0.1 4.9-0.3 1.8-0.5 1.7-1.6 2.7-0.1 1.7 0 0.9-6-2.6-1.9-0.4-0.8-0.4-0.6-0.6-1.2-1.6-0.5-0.9-0.6-0.8-0.7-0.5-1.1-0.5-1.2-0.6-0.8-0.9-0.3-0.4-0.3-0.6-0.6-1.1-3.2-3.6-0.9-1.3-0.3-1.1 0.6-2 0.1-0.9 0-1-0.5-2.4 0-1 0.2-1.5 0-0.7-2.9-5.9-0.8-0.9-1-0.6-1.6-0.4-2.3-0.4-0.9-0.3-1-0.7-1.2-1.2-2.2-4.6-1-1.3-1.2-0.9-1.6-0.4-1.2 0.3-1.3 0.5-1.1 0.1-1-0.3-0.8-0.8-0.9-0.3-0.9-0.2-1.5-0.2-1.9-0.6-1.7-0.4-1 0.1-0.9 0.2-0.4 0.3-0.8 1-0.6 0.2-0.8-0.1-1.7-0.7-0.8-0.1-1 0-0.5-0.2-0.5-0.7-0.3-0.7-0.3-1.1-0.3-0.5-0.6-0.4-3.7-1.6-0.8 0-0.8 0.1-0.7 0.4-1 0.2-3.5 0-0.6 0.2-0.7 0.6-0.4 0.3-0.8 0-1-0.2-2.2-0.9-1.2-0.6-2.1-2.3-0.7-1-0.6-1.1-2.4-10.5-0.8-1.7-2.6-3.4-0.8-0.6-1-0.7-6.1-2.8-3.2-2.1-3.2-3.2-1.9-1.5-1.7-1.8-0.8-0.8-3.6-1.9-1-0.8-0.9-1.1-0.3-0.7-1.1-0.5-0.8-0.1-6.3 0.9-3.1-4.5-0.1-0.6 0.2-0.3 0.4-0.2 1.1-0.1 0.6-0.2 0.4-0.3 1.1-0.9 0.8-0.6 1-0.4 2.8-0.9 0.6-0.5 0.4-0.6 0-0.8-4.9-7.6-1.6-1.8-7.8-5.7-1-0.5-1.2-0.1-1.8 0.3-3.1 0.8-2.9 0.2-2.1-0.3-1.4-0.7-1.9-1.4-1.7 0.4-2.7 1.2-11.2 6.8-1.1-5-0.9-2.3-0.2-1.3 0-2 1.5-8.2-0.1-3.7 2.7-1.2 3.8-2.8 4.4-4.2 1.1-1.4 1.4-2.5 1.3-1.8 3.2-2.4 9.4-3.3 4.2-0.5 0.7-0.4 0.7-0.4 0.7-0.7 1.8-0.8-0.1 3.8 0.3 1.2 1.6 2.2 1.4 3 1.8 0.5 4.3 0.5 36.9-0.6 3-1 14.7-8.3 0.7-0.5 0.6-0.7 0.6-0.8 0.9-0.9 1.2-0.8 2.2-0.6 1.3 0.2 1.1 0.4 1.5 1.1 4 1.8 0.4 0.5 0.2 0.8 0 1.3 0.2 0.5 0.4 0.4 1 0.4 0.8 0.1 0.9-0.1 1.6-0.6 1-0.2 0.8 0.1 0.7 0.4 1.4 1 0.8 0.2 0.9-0.4 6.1-0.5 1.5 0.1 1 0.3 0.4 0.4 0.2 0.4 0.1 0.6 0.1 1.4 0.2 0.5 0.4 0.4 0.3 0 1-0.4 1.1-0.2 2.4 0 1.7 0.2 1.4 0.4 0.9 0.4 0.6 0.4 0.3 0.4 0.1 0.8-0.3 0.8-0.5 0.5-1.1 0.6-0.2 0.3-0.2 0.6 0.1 0.6 0.4 0.9 1 1.8 0.3 0.8 0.2 1-0.1 2.8 0.2 0.7 0.5 0.7 0.4 0.2 0.8-0.2 2.7-1.3 3.6-1.3 6.6-3.5 0.8-0.6 0.5-0.8 0.3-0.8 0.2-1.1 0.1-1-0.1-1.8 0.2-0.6 0.4-0.3 0.9 0.4z" id="CAF4856" name="Ombella-M'Poko" data-id="CAF4856" data-name="Ombella-M'Poko">
 </path>
 <path d="M557.2 422.8l6.5 0.8 5 1.7 6.7 3.3-0.1 3.8 0.2 1.9 0 0.8 0.1 0.4 0.4 0.3 0 0.4-0.2 0.9-0.7 1.2-0.1 0.8-0.2 8.3-0.9 4.3-0.4 1.3-1.1 0.9-2.2 1.2-2.6 2.4-0.5 0.8 0.2 1.2 2.2 2.2 0.7 1.3 0.1 1.6-0.7 1.4-2.8 3.4-0.5 1.1-0.7 8.1-0.3 1.2-1.1 1.3-0.4 1.8-0.3 0.6-0.1 0.7 0.5 1.2-0.8 0.9-0.2 0.7 0.4 1.2 1.1 0.7 1.3 0.1 0.9-0.7 0.5 0 0.4 0.8 0.4 0.2 1.2-0.6 0.4 0.5 0.2 1.2 1.6 1 0.9 0.1 1.2-0.6 0.4 0.8 0.3 0.5 0.9 0.9 0.6-0.5 0.6-0.2 0.4 0.1 0.1 0.5-0.2 0.3-0.5 0.5 0.5 1.6 1.1 0.9 1.2 0.8 0.9 1.2-0.2 0.8-1 1.1 0.1 0.7 0.6 0.3 2.1 0.2 0.7 0.3 1.1 0.3 4.4-1.6 3.1-0.2 2.5 0.6 1.2 1.7-1.1 3.1-2 2.7-0.8 1.3-0.3 1.6-0.2 0.4-1.6 1.7-0.3 0.6-0.1 1 0.3 3.8-0.1 0.7-0.6 1-0.6 0.9-0.6 0.6-0.4 0.8 0 1.4-0.1 0.1-2.1-1-0.6-0.2-0.9 0.1-1.4 0.5-1.6 0.3-4.5-0.3-1.8-0.3-1.2-0.8-1.1-0.9-1.4-0.7-0.6-0.1-2.3 0.1-0.8-0.1-0.4-0.3-0.6-0.6-1.6-0.6-1.1-0.1-2.6 0.2-2.9-0.3-1.3 0.1-7.3 3.8-0.8-0.3-1.5 0-0.8-0.2-0.6-0.4-0.6-0.5-0.7-0.5-1-0.2-3.3 0.2-1.4-0.1-1.8-0.5-1.3-0.6-3.6-2.3-0.4-0.6-0.5-0.5-0.8-0.3-1 0.1-0.7 0.2-1.2 0.7-0.4 0.5-0.5 0.7-0.5 0.6-0.7 0.4-0.9 0-0.6-0.4-0.6-0.4-0.8-0.3-1.5-0.1-0.6-0.2-0.6-1.3-0.9-0.4-1.9-0.6-0.7-1-1.5-2.7-0.6-0.5-1.3-0.3-7.3-2.7-7.1-1.5-3 0.2-1 0.6-0.9 0.7-1.2 0.6-1.8 0.3-6.1 0-6.5 1-1.7-0.4-1.6-1.1-7.9-7.4 7-3.7 1.7-1.2 4.3-4.3 5.6-7 1-0.9 3.2-1.5 2.9-1.9 1.2-0.5 1 0 1.6 0.4 0.9 0.1 1-0.1 1.2-0.6 0.9-0.9 0.7-1.5 0.2-1.3 0-1.2-0.7-4.4-0.1-1.3 0.2-1.1 0.5-1.1 1.7-2.6 0.6-1 0.2-0.6-0.1-0.8-0.2-0.9-1.9-4-0.4-1-0.1-1 0.2-1 0.4-1.1 0.6-1 1.9-2.5 0.7-1.3 0.4-1.4 0.3-6.4-0.3-4.8 0.3-1.1 0.6-0.8 1.2-1.1 0.2-0.4 0.1-0.3-0.4-1.7-0.1-0.6 0-1.6-0.3-0.8-0.4-0.4-1.7-0.7-0.7-0.6-0.2-0.8 0-0.3 0.5-0.4 0.9-0.3 3.8-0.8 1.1-0.5 0.3-0.4 0.2-0.5 0-0.6-0.5-1.9 0-0.5 0.5-0.8 1.5-1.5 0.4-0.4 0.2-0.6 0.1-0.6 0-0.5-0.5-0.9-0.8-0.9-0.4-0.6-0.2-0.6-0.1-0.7 0.2-0.5 0.3-0.4 0.5-0.2 0.5 0 0.7 0.2 0.7 0.2 1.1 0.7 0.8 0.5 0.6 0.7 1.1 2.1 0.5 0.4 0.6 0.2 1.2 0 1.3-0.3 1-0.8 0.4-0.1 0.6 0.1 2.4 1.2 0.9 0.2 1.2-0.2 0.8-0.3 2.8-1.4 0.5-0.4 1.5-1.9 0.9-0.7 0.4 0 0.4 0.2 1 1 0.5 0.2 0.6-0.1 0.5-0.5 0.3-0.5 0.7-1.3 0.4-0.1 0.3 0.2 1 1.4 0.7 0.6 1 0.6 0.8 0.5 0.7 1 0.9 1.6 1.2 1.6 0.3 0.6 0.1 0.8 0.1 0.8-0.3 1-0.1 0.5 0.2 0.5 1.5 2.7 0.3 0.8 0.7 1.5 1.8 0.8 0.3 0.2 1.3 2 0.5 0.4 0.7 0.2 0.7-0.1 1.1-0.3 2.4-1.7 2.2-4.5z" id="CAF794" name="Basse-Kotto" data-id="CAF794" data-name="Basse-Kotto">
 </path>
 <path d="M324 552l0.1 2.6-1.6 9.5 2.6 17.8-3.4 0-0.9-0.9-1.2-2.9-3.1-5-1.3-1.5-1.9-1.6-1 0.1-0.9 1-1.3 1.4-0.7 0.3-1.3-0.1-0.9 0.1-0.3 0.3-0.4 1.1-0.3 0.3-0.5-0.1-0.9-0.4-0.4-0.1-6.1 0.6-0.9-0.1-0.6-0.2-0.6 0.2-0.5 1.1-0.5 2.3-0.3 0.7-0.9 1.4-1.3 1.2-1.6 0.8-1.7-0.2-1-1.1-1-3.1-1.3-1.3-2.6-0.9-2.7 0-2.6 0.7-2.4 1.2-0.9 0.1-0.8-0.3-2.7-1.7-0.4-0.2-0.4 0.4-2.9 1.4-1.5 0.4-1.1-0.2-0.5-1.2-0.4-1.5-0.7-1.4-1-1.2-1.1-0.6-0.7-0.1-1.5 0.3-0.7 0-0.4-0.3-0.8-0.8-0.5-0.3-0.5 0.1-1.3 0.4-6.3 0-3.1-0.5-2.8-1.2-2.8-2.4-0.3-0.2-1.1-0.1-0.4-0.3-0.3-1-0.3-0.3-1.8-0.3-1.2 0.5-1.2 0.9-1 0.5-5.9-9.1-1.1-0.8-4-1.9-2.9-1.8-1-0.5-2.4-0.7-1.8-0.9-0.8-0.2-2.4-0.2-2.5-0.7-0.3-0.2-3.9-2.7-1.4-0.3-3-0.1-0.5-0.2-2.8-2.2-0.6-0.9-2.2-4.3-4.7-7.1-0.4-0.7-5.3-6.3-1.8-1.3 3.5-7.2 2.1-2.6 1-0.9 1.9-2.2 0.8-0.8 0.7-0.3 0.7 0 0.9 0.2 0.9 0.3 4.5 2.9 0.6 0.5 0.5 0.7 1.2 1.2 0.9 0.5 3.7 0.5 0.7-0.2 0.6-0.3 0.2-1.4-1.7-0.5-0.4-0.1-0.2-0.4-1.3-1.5-0.4-0.7-0.7-2.4-0.8-1.7-1.1-1.7-1.3-1.3-1.8-0.5-0.7-0.7-6.1-11.4-0.7-1.4-0.9-2.9-0.2-1.6 0-9.9 0.5-0.5 0.5-0.2 1.5-0.4 3-1.3 5.8-3.9 1.7-0.7 1.3-0.4 0.7-0.4 0.6-0.6 0.3-0.8 0.2-0.6-0.3-2.2 6.3-0.9 0.8 0.1 1.1 0.5 0.3 0.7 0.9 1.1 1 0.8 3.6 1.9 0.8 0.8 1.7 1.8 1.9 1.5 3.2 3.2 3.2 2.1 6.1 2.8 1 0.7 0.8 0.6 2.6 3.4 0.8 1.7 2.4 10.5 0.6 1.1 0.7 1 2.1 2.3 1.2 0.6 2.2 0.9 1 0.2 0.8 0 0.4-0.3 0.7-0.6 0.6-0.2 3.5 0 1-0.2 0.7-0.4 0.8-0.1 0.8 0 3.7 1.6 0.6 0.4 0.3 0.5 0.3 1.1 0.3 0.7 0.5 0.7 0.5 0.2 1 0 0.8 0.1 1.7 0.7 0.8 0.1 0.6-0.2 0.8-1 0.4-0.3 0.9-0.2 1-0.1 1.7 0.4 1.9 0.6 1.5 0.2 0.9 0.2 0.9 0.3 0.8 0.8 1 0.3 1.1-0.1 1.3-0.5 1.2-0.3 1.6 0.4 1.2 0.9 1 1.3 2.2 4.6 1.2 1.2 1 0.7 0.9 0.3 2.3 0.4 1.6 0.4 1 0.6 0.8 0.9 2.9 5.9 0 0.7-0.2 1.5 0 1 0.5 2.4 0 1-0.1 0.9-0.6 2 0.3 1.1 0.9 1.3 3.2 3.6 0.6 1.1 0.3 0.6 0.3 0.4 0.8 0.9 1.2 0.6 1.1 0.5 0.7 0.5 0.6 0.8 0.5 0.9 1.2 1.6 0.6 0.6 0.8 0.4 1.9 0.4 6 2.6z" id="CAF795" name="Lobaye" data-id="CAF795" data-name="Lobaye">
 </path>
 <path d="M203.6 463.2l0.3 2.2-0.2 0.6-0.3 0.8-0.6 0.6-0.7 0.4-1.3 0.4-1.7 0.7-5.8 3.9-3 1.3-1.5 0.4-0.5 0.2-0.5 0.5 0 9.9 0.2 1.6 0.9 2.9 0.7 1.4 6.1 11.4 0.7 0.7 1.8 0.5 1.3 1.3 1.1 1.7 0.8 1.7 0.7 2.4 0.4 0.7 1.3 1.5 0.2 0.4 0.4 0.1 1.7 0.5-0.2 1.4-0.6 0.3-0.7 0.2-3.7-0.5-0.9-0.5-1.2-1.2-0.5-0.7-0.6-0.5-4.5-2.9-0.9-0.3-0.9-0.2-0.7 0-0.7 0.3-0.8 0.8-1.9 2.2-1 0.9-2.1 2.6-3.5 7.2-0.7-0.2-2.2-0.4-1.6-0.4-0.7 0.3-0.9 0.9-3 4.8-0.9 1.7-0.4 1.2-0.3 1.2-0.1 2.4 0.2 3.2 0 1-0.2 1-0.3 0.9-0.6 1.2-2.9 3.8-3 2.9-1.7 1.3-0.4 0.4-0.4 0.5-0.7 2.6-0.3 0.6-0.4 0.5-0.6 0.3-0.5 0.1-0.8-0.4-2.7-3-0.9-0.7-0.9-0.4-1-0.1-2.8 0.1-1-0.1-0.8-0.4-1-1-0.8-0.6-3.3-1.6-1.7-0.7-6.6-1.6-0.6-0.3-0.7-0.4-1.1-0.8-0.6-0.3-1.1-0.1-1.5 0.1-12.5 1.7-3.1 0.9-8.8 3.8-8.6 5.2-1.3 1.1-1.8 4.5-0.4 0.6-0.9 0.5-1.1 0.4-2.1 0.4-1.1 0-0.6-0.3-0.5-1.8-0.2-0.3-0.9-0.6-0.7-0.1-0.7 0-1.1 0.3-1.5 0.8-12 7.8-0.4 0.3-7-7.4-6.6-9.7-4.5-10.8 1.3 0 2.5 0.6 1.3 0.2 1.4-0.3 3-1.4 1.7-0.4 1.5-0.7-0.1-0.8-1-0.7-1.1-0.2-1.1 0-0.5-0.5-0.2-1-0.5-1.1-1.2-0.5-1.1 0.2-0.9-0.7-0.5-2.1-0.1-4.4-0.8-4.6-0.7-2.1-1.1-2.2-2.7-3.2-0.5-1.1-0.5-1.9-0.5-0.8-0.9-0.6-3.4-1.1-12.1-8.4-2.7-2.7-2.1-3.2-1-3.7-0.5-5.8-0.5-1.3 0.1-0.5 0.3-0.8 0.4-1.9 0-0.8-1.1-7.3-0.4-0.9-0.4-0.7-0.3-0.8 0.2-2.1-0.4-0.7-0.5-0.7-0.3-0.8 0.1-1.1 1-0.1 6.2 0.3 6.8 1.1 1.7 0 1.5-0.2 2.7-0.8 0.9-0.1 0.9 0.1 1.1 0.5 2.7 3.2 0.9 0.9 0.5 0.3 0.5 0.1 0.7-0.2 1.2-0.9 3.2-2.6 2.2-0.6 1.8-0.2 12.5-0.2 1.2-0.4 0.5-0.3 0.5-0.2 0.9 0.1 1.7 0.9 1 0.3 2.2-0.2 1.1-0.4 4.7-3.2 0.8-0.3 0.4-0.1 1.4 0.8 3.1 1.4 1.6 0 1.1 0.1 0.7 0.3 0.6 0.1 5.9-0.1 0.4-0.1-0.9-8.6-0.2-0.8-0.6-1-0.2-0.5 0.5-1 2.1-2.7 0.3-0.7 0-0.9 0.4-0.2 0.9-0.2 2.3 0.1 0.9 0.1 0.5 0.3-0.2 1.5 0 0.6 0.2 0.7 0.9 1.7 0.3 0.8 0.1 0.5-0.2 1.9 0 0.6 0.2 0.6 1.5 2.4 0.8 0.4 1.3 0.1 4.3-1.5 2.2-1.2 0.8-0.2 0.7 0.2 0.5 0.4 0.9 1.3 0.8 0.7 1.1 0.7 1.5 0.2 1.9-0.3 2.5-0.8 35.7-14.8 11.2-6.8 2.7-1.2 1.7-0.4 1.9 1.4 1.4 0.7 2.1 0.3 2.9-0.2 3.1-0.8 1.8-0.3 1.2 0.1 1 0.5 7.8 5.7 1.6 1.8 4.9 7.6 0 0.8-0.4 0.6-0.6 0.5-2.8 0.9-1 0.4-0.8 0.6-1.1 0.9-0.4 0.3-0.6 0.2-1.1 0.1-0.4 0.2-0.2 0.3 0.1 0.6 3.1 4.5z" id="CAF801" name="Mambéré-Kadéï" data-id="CAF801" data-name="Mambéré-Kadéï">
 </path>
 <path d="M180.7 523l1.8 1.3 5.3 6.3 0.4 0.7 4.7 7.1 2.2 4.3 0.6 0.9 2.8 2.2 0.5 0.2 3 0.1 1.4 0.3 3.9 2.7 0.3 0.2 2.5 0.7 2.4 0.2 0.8 0.2 1.8 0.9 2.4 0.7 1 0.5 2.9 1.8 4 1.9 1.1 0.8 5.9 9.1-2.9 1.5-1.6 1.9-1.6 1.6-2.8 0.2-1.9-0.7-1-0.1-1.1 0.4-1.1 0.9-0.6 0.8-0.7 0.7-1.3 0.6-1.1 0.2-3-0.1-1.1 0.3-2 0.8-1.1 0.1-2.1-0.1-0.6 0.2-1.3 0.6-0.5 0.3-0.9 0.8-0.6 0.2-0.5 0.1-1-0.2-0.6 0.2-1.1 0.3-0.6-0.4-0.5-0.6-0.9-0.5-0.7-0.1-2.1 0.3-0.7-0.2-1.4-0.5-0.8-0.2-1.1 0.2-0.1 0.6 0.2 0.8-0.1 0.6-1.5 0.8-1.6 0.1-6.3-1.6-1.6-0.1-1.7 0.1-3.6 1.1-3.1 2-2.4 2.9-1.2 3.4-0.7 6.4-1.9 4.9-0.1 1.8-0.4 1.7-2.6 3.6-0.9 1.8-0.1 1.9 0.6 1.6 0.8 1.6 0.6 1.7-0.5 2.8-2.9 5.6 0.2 3.4 0.9 1.5 1.1 1.2 0.7 1.4-0.4 1.8-5 10.7-6.7 14.3-2.5 5.2-7.4 15.8-1.3-0.8 0.2-0.7 0.4-1 0-0.7-0.3-0.2-1.1-0.7-0.2-0.4-0.1-1.5-0.2-0.7-0.2-0.7-0.6-0.8-1.4-1.6-1-1.9-0.6-1.6-0.1-0.7 0-2.8-0.3-1.4-1-1.8-0.3-1 0.1-1.7 1.2-2.6 0.3-1.5-0.2-1.6-1.2-2.6-0.2-1.6 0.3-0.9 0.5-1.1 0.7-1-0.8-0.2-1-0.1-1 0.2-0.8-0.1-0.3-0.6 0.1-1.1-0.3-2.6 0.3-2 2-2.1 0.7-1.8-0.2-2-0.8-1.7-0.9-1.6-1.2-2.6-1.6-2.4-0.6-0.6-0.8-0.3-0.7-0.1-0.9 0.2-1 0.4-0.6-0.7-0.2-0.4-1-3.9-0.6-1.5-1.3-1.6-1.5-1.2-1.2-0.4-3.3 0.3-1.1-0.6-0.5-0.1-1.3 0.6-0.3 0.1-0.9-0.1-0.6-0.2-0.6-0.4-5.7-6.1-7.2-7.6-15.5-16.5-6.4-6.8-5.2-5.5 0.4-0.3 12-7.8 1.5-0.8 1.1-0.3 0.7 0 0.7 0.1 0.9 0.6 0.2 0.3 0.5 1.8 0.6 0.3 1.1 0 2.1-0.4 1.1-0.4 0.9-0.5 0.4-0.6 1.8-4.5 1.3-1.1 8.6-5.2 8.8-3.8 3.1-0.9 12.5-1.7 1.5-0.1 1.1 0.1 0.6 0.3 1.1 0.8 0.7 0.4 0.6 0.3 6.6 1.6 1.7 0.7 3.3 1.6 0.8 0.6 1 1 0.8 0.4 1 0.1 2.8-0.1 1 0.1 0.9 0.4 0.9 0.7 2.7 3 0.8 0.4 0.5-0.1 0.6-0.3 0.4-0.5 0.3-0.6 0.7-2.6 0.4-0.5 0.4-0.4 1.7-1.3 3-2.9 2.9-3.8 0.6-1.2 0.3-0.9 0.2-1 0-1-0.2-3.2 0.1-2.4 0.3-1.2 0.4-1.2 0.9-1.7 3-4.8 0.9-0.9 0.7-0.3 1.6 0.4 2.2 0.4 0.7 0.2z" id="CAF802" name="Sangha-Mbaéré" data-id="CAF802" data-name="Sangha-Mbaéré">
 </path>
 <path d="M163.7 421.4l0.1 3.7-1.5 8.2 0 2 0.2 1.3 0.9 2.3 1.1 5-35.7 14.8-2.5 0.8-1.9 0.3-1.5-0.2-1.1-0.7-0.8-0.7-0.9-1.3-0.5-0.4-0.7-0.2-0.8 0.2-2.2 1.2-4.3 1.5-1.3-0.1-0.8-0.4-1.5-2.4-0.2-0.6 0-0.6 0.2-1.9-0.1-0.5-0.3-0.8-0.9-1.7-0.2-0.7 0-0.6 0.2-1.5-0.5-0.3-0.9-0.1-2.3-0.1-0.9 0.2-0.4 0.2 0 0.9-0.3 0.7-2.1 2.7-0.5 1 0.2 0.5 0.6 1 0.2 0.8 0.9 8.6-0.4 0.1-5.9 0.1-0.6-0.1-0.7-0.3-1.1-0.1-1.6 0-3.1-1.4-1.4-0.8-0.4 0.1-0.8 0.3-4.7 3.2-1.1 0.4-2.2 0.2-1-0.3-1.7-0.9-0.9-0.1-0.5 0.2-0.5 0.3-1.2 0.4-12.5 0.2-1.8 0.2-2.2 0.6-3.2 2.6-1.2 0.9-0.7 0.2-0.5-0.1-0.5-0.3-0.9-0.9-2.7-3.2-1.1-0.5-0.9-0.1-0.9 0.1-2.7 0.8-1.5 0.2-1.7 0-6.8-1.1-6.2-0.3-1 0.1 0-0.4 0.5-2.8-0.3-3 0-3.9-0.3-1.7-0.6-1.8-0.8-1.6-1.3-1.2-1.6-0.8-3.3-1.1-1.5-1-1.3-1.4-0.3-0.8 0.7-0.2 0.8-0.8 0.7-1.3 0.4-1.4 0.2-1 0.4-0.3 0.7-1.2 0.7-1.3 0-0.6 1-0.3 0.4-0.9-0.1-2.2 0.2-1.3 1.1-2.1 0.3-0.8 0.1-2.4-0.1-0.9-0.5-1.2-1.1-1.8-0.4-1.1-0.1-1.3 0.2-1.2 1.4-3.5 1-4.2 0.5-1.1-0.5-1.6-0.5-8.2-1.1-1.4-0.4-1.5-1-1.6-0.9 0-2.1 1.3-1.1 0.1-2.4-0.3-1.3 0-1.3-0.9-0.6-1.2-0.3-1.3-0.5-1.3-1.2-1.1-1.1-0.9-0.9-1.1-0.6-0.6-0.6-0.9-0.2-0.7 0.2-0.5 0.6-0.6 0.4-0.1 0.8 0.6 0.4 0 0.3-0.3 0.3-0.7 0.5-1-0.2-1.1 1-1 1.8-1.7 1.2-0.3 2.2-2.2 1.1-1.5 0.7-1.2 3.2 0 10.9-5.2 1.2-1 2.8-3.7 0.8-1.4 0.2-0.8 0-0.9-0.4-1.8 0.2-0.9 1.9-2.6 8.8-19.9 1.2 0 1.7 0.2 2.2-0.1 1.5-0.4 5.5-2.7 7.3-2.3 0.5 0 0.3 0.4 0.3 0.9 0 0.9-0.2 1.9 0.1 0.5 0.7 0.9 4.4 3.7 2.1 2.4 1.3 2 0.6 1.4 0.3 1.2 0.6 3.6 0.1 1.9 0.2 1.5 0.4 1.2 0 0.8 0.2 0.4 0.3 0.5 0.8 0.7 0.3 0.4-0.1 1 0.1 0.5 2 2.9 1.9 2.1 1.8 1.2 1.2-0.4 1.3-1 1.8-0.6 2.3 0.9 0.8 0.2 1.5 0.2 0.9-1 1.2-1 4.8-2.5 5.4-1.4 0.9-0.4 2.2-1.6 0.3-0.3 0.3-0.1 0.7 0.2 1.2 0.9 0.8 1.5-0.1 1.3-0.9 1.3-4.1 4-0.7 0.9-0.3 0.7 0.3 1.1 1 1.4 2.6 3 1.4 2.1 1.1 2.1 0.2 1.6 0.3 6.9 0.3 1.5 0.9 1.8 0.2 0.6-0.2 3.1 0.3 1.1 0.7 0.9 3.2 2.8 0.9 0.6 1.7 0.6 1.8 0.9 2.1 1.4 2.4 2.6 0.8 0.6 0.6 0.2 1.8 0 1.2 0.2 1.8 0.4 1.5-0.1 1.6-0.4 1.5-0.8 1.3-0.8 1.2-1 0.8-1.2 1.6-3.8 0.5-0.7 0.9-0.4 1.1 0 1.2 0.4 1 0.8 0.6 1.5 0.1 1.3 0.6 1.4 1.3 1.7 2.4 2.7 5.6 3.8 3.7 3.3 1.1 1.4 1.8 3.6 1.6 2.1 1.5 2.4z" id="CAF804" name="Nana-Mambéré" data-id="CAF804" data-name="Nana-Mambéré">
 </path>
 <path d="M186.6 268.7l0.2 0.2 0.4 1.8-0.1 0.5-0.5 2.6-0.1 0.7 0.1 0.5 0.9 1.2 0.3 0.8 0.1 1.1-0.4 0.8-0.5 0.5-1 0.5-0.4 0.3-0.3 0.5-0.3 0.7 0 0.9-0.2 0.6-0.4 0.7-0.2 0.7-0.2 1-0.3 5.5-0.2 0.8-1.3 3.4-0.2 1 0 0.7 0.6 1.5 0.3 0.9 0.2 1.7 0 0.8-0.2 0.7-0.5 1.7-0.5 0.7-0.9 0.6-0.5 0.7-0.4 1.1-0.5 0.5-1.3 0.3-0.5 0.2-0.2 0.4 0 0.6 0.2 1.3-0.2 0.4-0.3 0.2-0.5 0.2-0.5 0.6-0.1 0.4 0.3 1.1 0.3 1.7 0.3 0.4 0.9 0.7 0.3 0.4 0.3 0.5 0.3 1.8 0.2 0.5 0.4 0.6 0.2 0.8-0.1 5.4 0.3 2.1 0.3 1 1.1 2.8 0.6 2.8 0.1 2.8 0.4 2.3 0.3 0.9 0.4 0.3 0.4 0 0.4 0.4 0.3 0.6 0.6 2.5 0.2 0.6 0.5 0.5 0.4 0.1 1.4 0.3 0.3 0.2 0.5 0.5 0.4 0.8 0.6 2.1 0.3 0.5 0.6 0.5 0.3 0.1 0.8 0.2 0.4 0.1 0.9 1.2 0.6 0.4 0.8 0.4 0.7 0.1 1.1-0.4 1.1 0 0.5-0.4 0.2-1.2 0.5-0.4 0.4 0 0.7 0.3 0.4 0 1.1-0.2 1.3 0.4 0.4 0.1 0.7-0.3 0.6-0.4 0.4-0.1 0.7 0.2 0.9 0.7 0.4 0.5 0.6 0.3 0.6 0.1 0.9 0.6 0.3 0.5 0.1 0.5-0.2 2.5-0.2 0.8-0.6 0.4-0.3 0-0.6-0.4-0.7 0.2-0.6 0.4-0.5 0.5-0.6 1.1-0.2 0.2-1-0.1-0.3 0.2-0.3 0.5 0 0.8 0.1 0.5 0.3 0.7 0 0.4-0.5 0.7-0.3 1-0.3 0.2-1.2 0-0.7 0.5-0.8-0.5-0.4-0.1-0.7 0.2-0.5 0.6-0.3 0.7-0.3 0.8-0.1 0.9 0 1.4-0.2 1.1-0.2 2.8 0.1 2.5 0.3 1 0.5 0.9-0.1 0.7-0.8 0.8-0.7 0.3-1.1-0.2-0.4 0.2-0.3 0.7-0.1 0.6 0.1 0.6 0.5 2.4 0.5 0.9 0.3 0.6 0 0.7-0.1 1.3 0.7 4.4 0.2 0.8 0.2 0.6 1 1.1 0.4 0.9 0.3 0.7 0.3 1.5 0.5 1.3 0.6 0.7-1.8 0.8-0.7 0.7-0.7 0.4-0.7 0.4-4.2 0.5-9.4 3.3-3.2 2.4-1.3 1.8-1.4 2.5-1.1 1.4-4.4 4.2-3.8 2.8-2.7 1.2-1.5-2.4-1.6-2.1-1.8-3.6-1.1-1.4-3.7-3.3-5.6-3.8-2.4-2.7-1.3-1.7-0.6-1.4-0.1-1.3-0.6-1.5-1-0.8-1.2-0.4-1.1 0-0.9 0.4-0.5 0.7-1.6 3.8-0.8 1.2-1.2 1-1.3 0.8-1.5 0.8-1.6 0.4-1.5 0.1-1.8-0.4-1.2-0.2-1.8 0-0.6-0.2-0.8-0.6-2.4-2.6-2.1-1.4-1.8-0.9-1.7-0.6-0.9-0.6-3.2-2.8-0.7-0.9-0.3-1.1 0.2-3.1-0.2-0.6-0.9-1.8-0.3-1.5-0.3-6.9-0.2-1.6-1.1-2.1-1.4-2.1-2.6-3-1-1.4-0.3-1.1 0.3-0.7 0.7-0.9 4.1-4 0.9-1.3 0.1-1.3-0.8-1.5-1.2-0.9-0.7-0.2-0.3 0.1-0.3 0.3-2.2 1.6-0.9 0.4-5.4 1.4-4.8 2.5-1.2 1-0.9 1-1.5-0.2-0.8-0.2-2.3-0.9-1.8 0.6-1.3 1-1.2 0.4-1.8-1.2-1.9-2.1-2-2.9-0.1-0.5 0.1-1-0.3-0.4-0.8-0.7-0.3-0.5-0.2-0.4 0-0.8-0.4-1.2-0.2-1.5-0.1-1.9-0.6-3.6-0.3-1.2-0.6-1.4-1.3-2-2.1-2.4-4.4-3.7-0.7-0.9-0.1-0.5 0.2-1.9 0-0.9-0.3-0.9-0.3-0.4-0.5 0-7.3 2.3-5.5 2.7-1.5 0.4-2.2 0.1-1.7-0.2-1.2 0 0.8-1.9 1-1.2 1.3-0.8 4.6-2.3 0.9-0.8 0.6-1.1 1.3-3.5 1.6-3.2 2.5-6.7 1.2-4.7 0.6-1.5 0.8-1.3 0.7-0.4 1.7-0.8 0.7-0.8 0.2-0.8-0.4-4.5 0.1-0.7 0.4-0.9 1-1.7 1.5-3.7 2.8-2.4 5.9-3.3 3.6-2.8 0.3-0.5 0.6-1.3 0.5-0.4 0.5-0.1 1.4-0.1 0.3-0.1 0.2-1-1.5-1.4 0.3-1.2 4.1-5.6 0.6-1.1 2.7 0.9 2.7 0.2 5.6-0.8 3.4 0.3 3.9 3.6 2.9 1.1 2.7-0.2 10.1-2.4 1.3-0.5 2.5-1.5 1.2-1.1 1.6-2.4 1.1-1.2 1.3-0.7 1.7-0.5 4.8-0.7 2.6-0.9 1.8 0.1 1.6-0.2 1.6-1 2.6-2 1.6-0.6 6.7-1 1-0.6 0.3-1.1 0-5.3 0.4-1.6 1.1-0.9 0.9 0 0.7 0.3 0.7 0.3 1.1-0.3 0.5-0.6 0.9-2 0.5-0.8 1.2-1 1.3-0.7 3-0.9 0.2 1.3 0 0.7-0.4 2.4 0.3 1.4 0.8 1.1 1.3 0.9 0.8 0.4 0.7 0.2 0.7 0.3 0.6 0.7 0.4 1-0.2 0.8-0.3 0.8-0.2 1 0.4 1.7 0.7 0.8 3 0.9 1.8 0.9 1.8 1.4 2.8 3.1 1.7 2.8 1 0.8 1.8-0.2 0.7-0.5z" id="CAF805" name="Ouham-Pendé" data-id="CAF805" data-name="Ouham-Pendé">
 </path>
 <path d="M612.9 188.1l-1.4 1.6-0.7 0.2-1.1 0.1-14.9-1.5-1.4-0.4-2.9-1.5-1.7-0.5-1.7 0.1-1.7 0.3-2 0.6-0.6 0.4-0.7 0.6-0.9 1.2-0.7 1.2-0.5 1.4-0.2 1.4 0.1 1.9 0.4 1.5 2.4 4.3 0.3 0.9 0.1 0.8-0.1 1-0.2 0.7-2.6 5.9-0.2 1.1 0 0.8 0.3 0.9 0.5 0.6 1.1 0.9 0.3 0.6 0 0.7-0.7 0.9-1.5 0.7-2.3 0.6-2.1 0.4-1.7 0-1.3-0.4-0.7-0.9-0.5-1.1-0.5-1.3-0.6-1-0.7-0.8-1.8-1.2-0.8-0.7-0.6-0.8-0.4-0.6-0.3-1-0.4-0.4-0.7-0.1-1.4 0.2-5.1 2.8-1.3 0.5-2.3 0.4-0.5 0.2-0.5 0.5-0.7 1.9-0.6 0.7-0.6 0.1-0.9-0.2-2-0.8-0.8-0.3-1.1-0.1-1.3 0.2-1.5 0.4-0.9 1.6-0.9 1-1.4 1.1-2.8 1.7-1.4 1.2-0.7 1.3 0.4 1.7 2.2 5.5 0.1 2.7-3.4 1-12.2 0.8-4.7 0.7-1.6 2.1-0.3 1.7 0 1.5-0.1 1-0.3 0.9-1.3 2.4-0.2 1 0.1 0.8 1.4 3.4 0.6 7-1.5 1.4-0.4 0.7-0.4 1.1-0.5 2.4-0.4 0.7-0.5 0.6-0.7 0.5-1 1-0.3 1-0.1 1.1 0.2 0.7 1.2 2 0.2 0.7 0.1 0.7-0.2 0.6-0.5 0.6-2.8 2.2-0.9 0.9-5.3 7.6-1.2 1.4-3.2 4.1-0.5 0.4-0.8 1-5.4 2.5-0.9 0.5-1.3-0.1-0.8-0.2-1.8-0.7-0.7-0.1-2.7 0-0.9 0.4-0.9 1.2-2.1 5.5-0.3 1.3-0.8 1-4.7 3.8-1.7 0.8-1.7-0.5-0.4 0-0.8 0.5-1.9 1.4-1.8 1.5-1.4 0.5-0.5 0.1-0.6-0.2-0.3-0.7-0.4-0.2-2.5 0.1-0.4 0.2-0.9-0.5-0.7 0.4-1 0.9-1.1-0.4-1.7-1-0.6 0.3-1.3-0.1-1.9 0.2-1.7-0.1-0.8-0.8-0.5-1-1.3-0.5-1.6-0.3-1.4-0.5-0.3-0.4-0.1-1-0.1-0.3-0.4-0.1-1.1-0.1 0 0.2-1.4-1.8-0.5-0.3-1.5-0.3-1.6-0.9-2.4-2-0.7-0.7-0.8-1.2-0.6-0.7-0.9-0.6-1.7-0.7-1.8-1.1-1.9-0.5-1-0.8-1.3-2.4-1.5-5.9-1.4-1.7-0.4 0-0.3 0.3-0.4 0.7-0.9-0.6-1.8-1.9-0.4-0.7-0.4-0.7-0.1-1.1-0.2-0.8-0.5 0-0.5 0.4-0.6 0.2-1.4-1.3-0.4-4.8-1.6 0.2-0.5-0.8 0.2-1.6-0.3-0.7-0.9-0.1-1-0.5-0.8-0.3-0.4 0.6-0.5 0.1-2.5-0.8-0.7-0.1-1-1.1-1 0.4-1.2-0.3-0.5 0.5-1.1-1.4 0.4-1.7 0.9-1.7 0.3-1.6-0.4-0.5-0.7-0.1-0.7 0-0.5-0.2-0.2-0.7 0.6-0.8 1.4-1.4-2.1 0.4-0.8-0.1-0.8-0.8-0.8-0.2-1.5-2-1.1-0.5-0.7 0.2-0.6 0.5-0.6 0.3-1 0.1-0.4-0.4-1.6-2.3-0.1 1.8-1.1-0.3-2.5-2.5-0.9 1.5-0.1 0.6-1.3-0.8-2.7-3.7 0-0.7 1.9-1.5 0.4-0.7-0.6-0.4-1.2-1.3-0.6-1.4 2.4-1.2-0.1-1.3-0.7-1.4-0.7-0.9 1.1-0.7 0.4-0.8 0-2-0.4-0.9-0.2-0.8 0.1-0.7 0.6-0.7 1.5-0.7 0.6-0.7-1.5-0.3-0.5-0.9 0.4-2.1-0.2-2.4 0.2-0.7-1-0.6-0.2-0.7 0-0.8-0.4-1-4-3.5-1.6-1.7-1.1-1.6-0.1-1.2-1.1-0.3 0.2-0.5 0.6-0.6 0.3-0.7-0.3-0.4-1-0.4-0.2-0.6-0.1-1-0.4-0.8-1.2-1.5-2.9-2.2-1.2-1.1-3.7-6.3-0.4-1.9-0.2-2.1-0.6-1.8-1.9-1.7-0.1-1.2 0.9-2.2-0.2-0.4 0.7-0.4 0.7-1.2 2.5-1.7-1.5-1.8-2.3-1.7-1.2-0.7-0.7-1.3-9.2-3.9-0.9-0.7-0.3-1-0.3-1.3-0.5-0.8-1.2 0.7-1.3-1 0-1.2 1.7-2.6 0.7 0.3 0.7 0 0.6-0.3 0.4-1.5 0.4-0.3 0.6-0.1 1.2-0.7 1.5-0.5 0.3-0.3 0.2-0.6 0.5-0.5 1.1-1 1.7-1.2 3-1.5 3-0.9 2 0.7 1.2-0.2 2.1 0.5 0.4-0.1 0.4-0.9 0.9-0.3 3.2-0.2 1.5-0.5 0.8 0 0.9 0.5 0.8 0.7 0.7 0.3 0.8-0.9 0.8 0.6 1.3 0.5 1.5 0.4 1.3 0.1 1-0.2 2.9-1.1 0.7 0.3 5.9-0.1 0.7 0.4 0.4 0 0.7-0.4 1.8 0.1 2.2-0.9 2.4-0.5 2 1.3 1.2-0.5 3.4 0 0.7-0.3 0.3-0.3 1.9-0.8 0.6-0.2 0.9 0 2-0.6 1.6-0.1 6.5 0.3 0.9-0.4 1-1.4 1.1 0.6 1.1-0.3 1.9-1.3 0.6-0.1 0.7 0.1 0.6-0.1 0.5-1.6 0.5-0.4 0.6 0.3 0.3 1.2 0.5 0.1 0.4-0.4-0.1-0.8 0.2-0.4 2.2-1.9 0.7-0.3 0.6 0.1 1 0.5 0.7 0 0-0.8 0.1-0.6 0.7-0.2 0.6 0.4 0.6 0.9 0.9 1 1.3 0.4 1.2-0.4 2.1-1.5 1.2-0.3 0.7 0.2 0.9 0.6 1.7 1.4 1.6-0.3 6.3 0.3 1.4-0.3 0.5-0.3 1.4-1 0.7-0.4 0.8-0.1 1 0.4 1.5-1.6 1-2 1-1.5 2-0.7 0.4-0.8-0.8-1.9-0.5-1.8 1.4-0.8 0.9-0.2 0.6-0.4 0.3-0.8 0-1 0.3-0.7 0.7 0.1 1.7 0.9 0.1-0.1 1.4 0.1 1.3 0.4 0.5 0.1 4 0-1-3.2 3.1-1.6 3.4-1 0.8-0.6 0.5 0.6 0.7-0.8 0.4-0.8 0.4-0.8 1.2-0.5 0.4-0.7 0.3-0.2 0.9 0.5 2.3 2.4 1.6 0.5 1.3 0.2 0.7-0.1 0.5-0.2 0.2-0.3 0.8-1.4 0.5-0.5 0.7-1 0.5-0.5 0.4-0.3 2-0.7 1.2-0.2 1.1-0.4 1-0.7 0.6-1 0.4-1.2 0.4-0.8 0.5-0.5 1.7-1.4 2.7-1.6 1.2-0.5 1.2-0.4 1-0.1 1.9-0.5 0.9-0.2 1.6 0 1.2-0.2 3.5-1.1 0.7-0.4 0.2-0.3 0.9-0.7 0.5-0.6 0.6-0.4 0.5-0.6 0.6-1.7 0.3-0.4 0.5-0.5 1.5-1.2 1.6-1.6 1.7-1.2 0.9-0.5 1.1-0.4 1.1-0.6 0.9-0.8 0.5-0.7 0.4-0.8 0.7-1.1 0.4-0.2 0.4-0.1 1.8 0.4 0.7 0.3 0.4 0.6 0.4 0.9 0.2 0.7 0 0.6-0.2 1.5 0 0.9 0.2 1 0.7 2.7 0.1 0.9 0.1 1.5 0 0.7 0.3 0.6 0.3 0.5 0.8 0.3 1.1 0.1 1.9-0.2 2 0 1 0.3 0.7 0.8 0.6 0.9 0.7 1.1 4.5 4.1 0.3 0.5 0.4 1.5 0.3 1 0.6 0.9 0.8 0.8 2.7 2.3 0.6 0.9 0.4 1.4 0.8 5.1 0.2 0.9 0.5 0.8 0.6 0.7 0.7 0.8 0.6 1.1 1.6 4.9 0.4 0.9 0.6 0.6 2.1 1 0.9 0.6 0.8 0.7 1.9 2.5 1.1 0.9 2.7 1.7 0.9 0.7 0.4 0.5 0.4 0.8 0.2 1.1 0.7 1.3 0.9 1.2 3.6 2.4 0.7 0.7 0.1 0.8-0.1 2.1 2.1 10 0.7 1.9 1.1 1.4 5.7 4.2 1.2 0.5 4.3 1.2 5.8 0.8 1.2 0.5 0.8 0.6 0.4 0.7 0.2 1.8-0.2 2.7z" id="CAF806" name="Bamingui-Bangoran" data-id="CAF806" data-name="Bamingui-Bangoran">
 </path>
 <path d="M442 303.6l-0.5 2.9 0 4.2-0.6 2.5-2.1 5.6-0.9 1.6-1 1.2-2.1 1.8-0.9 1.2-0.7 1.5-0.7 1-0.7 0.7-0.9 0.6-3.6 3.7-2.4 1.9-0.8 0.9-3.8 5-0.6 1.6-0.3 1.9 1.4 8.6 0 0.9-0.3 0.7-0.4 0.1-0.7-0.3-2-1.3-1.5-0.6-3.1-0.4-2.3 0.4-16-2-5 0.3-12.5 3.2-5.2 0.6-3.2 0.8-1.5 0.1-1.9-0.3-2.8-0.9-1.9-1-1.3-1-1.1-1.7-0.9-1.8-0.7-1-1.8-0.5-2.9 0-17.1 2.2 1.2-4.2 0.7-1 1-1.3 1.3-0.9 3.9-2 0.7-0.5 0.3-0.7 0.1-0.8-0.4-1.1-0.4-0.6-0.5-0.5-3.5-1.3-1.6-1-1.5-1.1-1.3-1.2-0.6-1-0.1-1.2 0.4-1.3 0.5-1.1-0.6-0.4-1.2-0.1-0.3-0.2-0.2-0.6-1.3-4.2-0.7-1.2-1.1-1-1.9-1.5-0.4-0.9 0.1-0.9 0.7-1.1 0.7-0.6 1.2-0.8 0.4-0.4 0.3-0.6 0.9-3.4 0.6-1.3 0.6-0.6 1-0.5 0.4-0.4 0-0.5-0.4-0.7-2-0.8-0.2-0.4 0.1-0.5 0.7-0.8 0.6-0.4 2-1.1 0.9-0.9 0.2-0.5 0.1-0.6 0-1.1 0-0.7 0.2-0.6 0.6-0.6 0.6-0.4 3.1-1.2 0.5-0.4 0.4-0.5-0.1-1.6-8.2-23.6 0.9-2.6 3.7-3.3 16.1-8.2 0.8-0.8-0.1-0.2-1 0.2-0.6-0.1-0.6-0.5-0.2-0.3-0.2-1.3 0-0.9 0.8-1.2 0.1-0.9-0.2-0.5-0.5-0.7-0.1-0.3 0-0.5 0.3-0.5 0.4-0.3 0.7-0.4 0.4-0.3 0.2-0.7-0.4-0.7-0.7-0.5-0.2-0.6 0.5-0.5 1.2-0.5 0.9-0.7 0.5-0.7 0-0.8-0.5-0.8 0-0.5 0.4-1.3 0-0.6 0-0.9 0.1-0.7 0.4-0.9 0.4-0.3 0.3-0.5 0.8-2.1 0.1-0.5-0.3-0.6-0.5-0.7 0-0.4 0.7-0.7 0.3-0.4 0-0.6-0.2-0.7-0.3-1 0-0.8 0.8-0.8 0.2-0.3 0-0.4-0.3-1.2-0.3-3.9-0.3-0.5-0.7-0.2-0.6-0.3-1-0.7-0.3-0.7 0-0.6 0.1-0.8 0.7-1.3 0.8-1.1 0.2-0.5 0.1-0.8-0.1-1.8 0-0.4 0.7-0.4 0.3-0.3 0.1-0.5-0.2-1.6 0.1-0.5 0.4-0.3 0.8-0.4 0.1-0.3-0.8-2.3-0.1-0.5 0-0.6 0.7-1.4 0.1-0.5-0.2-0.6-0.7-1 0-0.1 0.7-0.9 0.5-1.3 0-3.2-0.8-1 1.9 1.7 0.6 1.8 0.2 2.1 0.4 1.9 3.7 6.3 1.2 1.1 2.9 2.2 1.2 1.5 0.4 0.8 0.1 1 0.2 0.6 1 0.4 0.3 0.4-0.3 0.7-0.6 0.6-0.2 0.5 1.1 0.3 0.1 1.2 1.1 1.6 1.6 1.7 4 3.5 0.4 1 0 0.8 0.2 0.7 1 0.6-0.2 0.7 0.2 2.4-0.4 2.1 0.5 0.9 1.5 0.3-0.6 0.7-1.5 0.7-0.6 0.7-0.1 0.7 0.2 0.8 0.4 0.9 0 2-0.4 0.8-1.1 0.7 0.7 0.9 0.7 1.4 0.1 1.3-2.4 1.2 0.6 1.4 1.2 1.3 0.6 0.4-0.4 0.7-1.9 1.5 0 0.7 2.7 3.7 1.3 0.8 0.1-0.6 0.9-1.5 2.5 2.5 1.1 0.3 0.1-1.8 1.6 2.3 0.4 0.4 1-0.1 0.6-0.3 0.6-0.5 0.7-0.2 1.1 0.5 1.5 2 0.8 0.2 0.8 0.8 0.8 0.1 2.1-0.4-1.4 1.4-0.6 0.8 0.2 0.7 0.5 0.2 0.7 0 0.7 0.1 0.4 0.5-0.3 1.6-0.9 1.7-0.4 1.7 1.1 1.4 0.5-0.5 1.2 0.3 1-0.4 1 1.1 0.7 0.1 2.5 0.8 0.5-0.1 0.4-0.6 0.8 0.3 1 0.5 0.9 0.1 0.3 0.7-0.2 1.6 0.5 0.8 1.6-0.2 0.4 4.8 1.4 1.3 0.6-0.2 0.5-0.4 0.5 0 0.2 0.8 0.1 1.1 0.4 0.7 0.4 0.7 1.8 1.9 0.9 0.6 0.4-0.7 0.3-0.3 0.4 0 1.4 1.7 1.5 5.9 1.3 2.4 1 0.8 1.9 0.5 1.8 1.1 1.7 0.7 0.9 0.6 0.6 0.7 0.8 1.2 0.7 0.7 2.4 2 1.6 0.9 1.5 0.3 0.5 0.3 1.4 1.8 0-0.2 1.1 0.1z" id="CAF807" name="Nana-Grébizi" data-id="CAF807" data-name="Nana-Grébizi">
 </path>
 <path d="M410.5 351.5l-0.4 1.9 0.3 1.1 0.3 0.6 0.6 0.7 0.7 0.6 0.7 0.7 0.8 0.4 2.5 0.9 1.1 0.7 1.7 1.2 1.1 1.6 0.3 1.4-0.3 1.6-1.4 3.7-0.2 1.6 0.1 0.9 1 1.5 0 0.7-0.5 0.7-1.5 1.4-0.4 0.9 0.1 0.7 0.7 1.4 0 0.5-0.3 0.4-0.8 0.8-0.6 1.1-1 1.5-1.1 1.8-0.4 0.5-0.5 0.2-0.7 0-1.3-0.3-0.9 0-1 0.2-0.7 0.4-0.5 0.6-0.3 0.8-0.9 1.1-6.5 5.1-1.1 1.4 0.1 1 1.8 7 0.1 1-0.2 0.7-0.9 0.9-0.1 0.8 0.6 0.5 3.1 0.9 0.6 0.6 0.3 1.1 0.1 2.4-0.4 1.6-0.9 1.5-7.1 5.8-0.9 0.5-3.6 0.5-0.7 0.3-0.8 0.4-0.6 0.9-0.1 0.5 0.3 0.5 1 0.9 0.4 0.6 0.8 1.6 1.4 0.4 32.5 0.2 3.9 0.7 1.4 1-0.1 1.1-0.3 1.1-0.2 0.7-0.4 0.5-0.7 0.8-0.4 0.6-0.9 2.3-0.7 1.2-0.4 0.8-0.2 1.4-0.1 5-0.4 1.3-0.1 1.1-0.1 2.3-1.3 5.3-1.3 2.3-1 1.2-1 0.7-0.8 0.2-1.6 1.2-0.7-1-0.8-1.1-1.1-0.7-3.5-1.6-2.3-0.5-1.5-0.7-0.7-0.2-8.8-0.2-2.8-1.3-1.5 0.3-2.4 1.2-1.6 0.2-5-0.2-1.7 0.4-1.1 1-1.6 2.3-6.9 4.3-3.5 1.6-0.6 0.7-1.1 2-1.5 2-1.3 0.3-3.5-0.1-1.3 0.5-0.7 0.7-0.2-2.3 0.3-2.6-0.1-0.3-1.2-2.9-7.1-9.6-0.6-1.9-0.1-1.8 0.4-1.9 2-5.8 0.3-1.8-0.2-1.4-0.6-1.8-1.6-2.8-1-1.3-0.8-0.7-1.6-0.9-2.7-2-1.2-1.3-0.8-1.5-1.2-7.5-0.5-1.3-0.8-0.7-8.7-1.4-1.3 0-2.8-1.1-4-4.8-0.8-4.1 0.1-3.5-0.3-1.3-0.6-2 0-1.4 0.3-1.5 0.8-2.2 0.1-1.3-0.1-1.2-0.2-1.3 0-0.7 0.1-0.3 4.1-1.7 1.5-1 2.4-1.4 1.3-0.9 4.2-4 2.7-2.1 1.4-1.3 0.6-0.4 2.3-1 1-0.9 0.2-0.7-0.1-0.5-0.6-0.3-1.7-0.7-0.6-0.6-0.4-1-0.2-1.4-0.1-2.1 0.2-4.3-0.3-1.1-0.8-1.2-7-6.9-1-1.5-0.2-0.9 0.1-0.5 0.6-1.2 17.1-2.2 2.9 0 1.8 0.5 0.7 1 0.9 1.8 1.1 1.7 1.3 1 1.9 1 2.8 0.9 1.9 0.3 1.5-0.1 3.2-0.8 5.2-0.6 12.5-3.2 5-0.3 16 2z" id="CAF808" name="Kémo" data-id="CAF808" data-name="Kémo">
 </path>
 <path d="M557.2 422.8l-2.2 4.5-2.4 1.7-1.1 0.3-0.7 0.1-0.7-0.2-0.5-0.4-1.3-2-0.3-0.2-1.8-0.8-0.7-1.5-0.3-0.8-1.5-2.7-0.2-0.5 0.1-0.5 0.3-1-0.1-0.8-0.1-0.8-0.3-0.6-1.2-1.6-0.9-1.6-0.7-1-0.8-0.5-1-0.6-0.7-0.6-1-1.4-0.3-0.2-0.4 0.1-0.7 1.3-0.3 0.5-0.5 0.5-0.6 0.1-0.5-0.2-1-1-0.4-0.2-0.4 0-0.9 0.7-1.5 1.9-0.5 0.4-2.8 1.4-0.8 0.3-1.2 0.2-0.9-0.2-2.4-1.2-0.6-0.1-0.4 0.1-1 0.8-1.3 0.3-1.2 0-0.6-0.2-0.5-0.4-1.1-2.1-0.6-0.7-0.8-0.5-1.1-0.7-0.7-0.2-0.7-0.2-0.5 0-0.5 0.2-0.3 0.4-0.2 0.5 0.1 0.7 0.2 0.6 0.4 0.6 0.8 0.9 0.5 0.9 0 0.5-0.1 0.6-0.2 0.6-0.4 0.4-1.5 1.5-0.5 0.8 0 0.5 0.5 1.9 0 0.6-0.2 0.5-0.3 0.4-1.1 0.5-3.8 0.8-0.9 0.3-0.5 0.4 0 0.3 0.2 0.8 0.7 0.6 1.7 0.7 0.4 0.4 0.3 0.8 0 1.6 0.1 0.6 0.4 1.7-0.1 0.3-0.2 0.4-1.2 1.1-0.6 0.8-0.3 1.1 0.3 4.8-0.3 6.4-0.4 1.4-0.7 1.3-1.9 2.5-0.6 1-0.4 1.1-0.2 1 0.1 1 0.4 1 1.9 4 0.2 0.9 0.1 0.8-0.2 0.6-0.6 1-1.7 2.6-0.5 1.1-0.2 1.1 0.1 1.3 0.7 4.4 0 1.2-0.2 1.3-0.7 1.5-0.9 0.9-1.2 0.6-1 0.1-0.9-0.1-1.6-0.4-1 0-1.2 0.5-2.9 1.9-3.2 1.5-1 0.9-5.6 7-4.3 4.3-1.7 1.2-7 3.7-0.3-0.3-0.8-1.6 0.4-1.5 0.8-1.3 0.4-1.1-0.5-1.6-1.2-1.7-1.5-1.4-1.3-0.6-0.7-0.6-1.6-3.6-1.5-2.4-1.2-1.2-1.2-0.6-1.6-0.2-3.6-1.2-1.4-0.7-1.5-1.2-3.5-4.3-1.4-1-5.1-1.9-2.4-1.7-1.8-1.5-2.1-1.3-6.8-1.4-1.8-0.7-0.8-1.1-0.4-1.2-1.3-2.2 1.6-1.2 0.8-0.2 1-0.7 1-1.2 1.3-2.3 1.3-5.3 0.1-2.3 0.1-1.1 0.4-1.3 0.1-5 0.2-1.4 0.4-0.8 0.7-1.2 0.9-2.3 0.4-0.6 0.7-0.8 0.4-0.5 0.2-0.7 0.3-1.1 0.1-1.1-1.4-1-3.9-0.7-32.5-0.2-1.4-0.4-0.8-1.6-0.4-0.6-1-0.9-0.3-0.5 0.1-0.5 0.6-0.9 0.8-0.4 0.7-0.3 3.6-0.5 0.9-0.5 7.1-5.8 0.9-1.5 0.4-1.6-0.1-2.4-0.3-1.1-0.6-0.6-3.1-0.9-0.6-0.5 0.1-0.8 0.9-0.9 0.2-0.7-0.1-1-1.8-7-0.1-1 1.1-1.4 6.5-5.1 0.9-1.1 0.3-0.8 0.5-0.6 0.7-0.4 1-0.2 0.9 0 1.3 0.3 0.7 0 0.5-0.2 0.4-0.5 1.1-1.8 1-1.5 0.6-1.1 0.8-0.8 0.3-0.4 0-0.5-0.7-1.4-0.1-0.7 0.4-0.9 1.5-1.4 0.5-0.7 0-0.7-1-1.5-0.1-0.9 0.2-1.6 1.4-3.7 0.3-1.6-0.3-1.4-1.1-1.6-1.7-1.2-1.1-0.7-2.5-0.9-0.8-0.4-0.7-0.7-0.7-0.6-0.6-0.7-0.3-0.6-0.3-1.1 0.4-1.9 2.3-0.4 3.1 0.4 1.5 0.6 2 1.3 0.7 0.3 0.4-0.1 0.3-0.7 0-0.9-1.4-8.6 0.3-1.9 0.6-1.6 3.8-5 0.8-0.9 2.4-1.9 3.6-3.7 0.9-0.6 0.7-0.7 0.7-1 0.7-1.5 0.9-1.2 2.1-1.8 1-1.2 0.9-1.6 2.1-5.6 0.6-2.5 0-4.2 0.5-2.9 0.4 0.1 0.1 0.3 0.1 1 0.3 0.4 1.4 0.5 1.6 0.3 1.3 0.5 0.5 1 0.8 0.8 1.7 0.1 1.9-0.2 1.3 0.1 0.6-0.3 1.7 1 1.1 0.4 1-0.9 0.7-0.4 0.9 0.5 0.4-0.2 2.5-0.1 0.4 0.2 0.3 0.7 0.6 0.2 0.5-0.1 1.4-0.5 1.8-1.5 1.9-1.4 0.8-0.5 0.4 0 1.7 0.5 1.7-0.8 4.7-3.8 0.8-1 0.3-1.3 2.1-5.5 0.9-1.2 0.9-0.4 2.7 0 0.7 0.1 1.8 0.7 0.8 0.2 1.3 0.1 0.9-0.5 5.4-2.5 0.8-1 0.5-0.4 3.2-4.1 1.2-1.4 5.3-7.6 0.9-0.9 2.8-2.2 0.5-0.6 0.2-0.6-0.1-0.7-0.2-0.7-1.2-2-0.2-0.7 0.1-1.1 0.3-1 1-1 0.7-0.5 0.5-0.6 0.4-0.7 0.5-2.4 0.4-1.1 0.4-0.7 1.5-1.4 3.2 2.7 2.2 2.5 1.8 1.4 1.5 0.8 5.4 1.1 1.7 0.9 1.8 1.3 1.8 1.6 1.2 1.4 0.7 1.1 0.6 1.1 0.2 0.7 0.2 1 0 1.4-0.8 8.2 0.1 1 0.6 1.4 0.8 0.7 1.1 0.5 4.1 0.1 1.4-0.2 1-0.1 1 0.1 1.7 0.8 0.8 0.8 0.3 1-0.2 7.4 2.1 13.4 0.4 0.8 1.5 1 0.3 0.7 0.2 3 1.1 3.9 0 0.6-0.1 0.4-0.6 0.8-0.2 0.9 0.3 0.9 0 1.3-0.1 0.4-0.4 0.5-1.6 0.9-0.4 0.4-0.1 0.5 0 0.8 0.3 0.6 0.6 0.6 0.6 0.8 2.2 6.4 0.6 1.3 0.7 0.9 0.6 0.6 0.7 0.8 0.5 1.2 0.4 0.6 0.4 0.3 0.6 0.1 2.5 0 0.8 0.3 1 0.4 1.1 1 0.4 0.7 0.1 0.9-0.1 0.7-0.8 2.6-0.2 0.7 0.5 3.9 1.6 6.1 0.1 1.7-0.6 1.5-0.7 1.5-3.2 4.5-0.5 1.1 0 1.1 0.5 0.7 2 1.5 1.1 1.4 0.5 1.2 0.7 2.5 0.6 1.3 0.3 1.1 0.3 2.5 0.6 0.7 0.9 0.3 1.3 0 1.2 0.3 0.8 0.5 0.6 1 1.3 4.6 0.5 1.1 1.8 2.7 0.2 1.3-0.4 6.1-0.9 4.3-1.3 3-0.5 2.9-0.3 0.8-0.6 0.8-1.6 1.6-0.9 1.5-0.5 0-0.9-0.5-2.9-2.5-1.3-0.9-0.9-0.3-0.8 0-0.8 0.4-2.7 2.2-3.3 3.4-0.8 3.7z" id="CAF809" name="Ouaka" data-id="CAF809" data-name="Ouaka">
 </path>
 <path d="M358.6 188.8l0.8 1 0 3.2-0.5 1.3-0.7 0.9 0 0.1 0.7 1 0.2 0.6-0.1 0.5-0.7 1.4 0 0.6 0.1 0.5 0.8 2.3-0.1 0.3-0.8 0.4-0.4 0.3-0.1 0.5 0.2 1.6-0.1 0.5-0.3 0.3-0.7 0.4 0 0.4 0.1 1.8-0.1 0.8-0.2 0.5-0.8 1.1-0.7 1.3-0.1 0.8 0 0.6 0.3 0.7 1 0.7 0.6 0.3 0.7 0.2 0.3 0.5 0.3 3.9 0.3 1.2 0 0.4-0.2 0.3-0.8 0.8 0 0.8 0.3 1 0.2 0.7 0 0.6-0.3 0.4-0.7 0.7 0 0.4 0.5 0.7 0.3 0.6-0.1 0.5-0.8 2.1-0.3 0.5-0.4 0.3-0.4 0.9-0.1 0.7 0 0.9 0 0.6-0.4 1.3 0 0.5 0.5 0.8 0 0.8-0.5 0.7-0.9 0.7-1.2 0.5-0.5 0.5 0.2 0.6 0.7 0.5 0.4 0.7-0.2 0.7-0.4 0.3-0.7 0.4-0.4 0.3-0.3 0.5 0 0.5 0.1 0.3 0.5 0.7 0.2 0.5-0.1 0.9-0.8 1.2 0 0.9 0.2 1.3 0.2 0.3 0.6 0.5 0.6 0.1 1-0.2 0.1 0.2-0.8 0.8-16.1 8.2-3.7 3.3-0.9 2.6 8.2 23.6 0.1 1.6-0.4 0.5-0.5 0.4-3.1 1.2-0.6 0.4-0.6 0.6-0.2 0.6 0 0.7 0 1.1-0.1 0.6-0.2 0.5-0.9 0.9-2 1.1-0.6 0.4-0.7 0.8-0.1 0.5 0.2 0.4 2 0.8 0.4 0.7 0 0.5-0.4 0.4-1 0.5-0.6 0.6-0.6 1.3-0.9 3.4-0.3 0.6-0.4 0.4-1.2 0.8-0.7 0.6-0.7 1.1-0.1 0.9 0.4 0.9 1.9 1.5 1.1 1 0.7 1.2 1.3 4.2 0.2 0.6 0.3 0.2 1.2 0.1 0.6 0.4-0.5 1.1-0.4 1.3 0.1 1.2 0.6 1 1.3 1.2 1.5 1.1 1.6 1 3.5 1.3 0.5 0.5 0.4 0.6 0.4 1.1-0.1 0.8-0.3 0.7-0.7 0.5-3.9 2-1.3 0.9-1 1.3-0.7 1-1.2 4.2-0.6 1.2-0.1 0.5 0.2 0.9 1 1.5 7 6.9 0.8 1.2 0.3 1.1-0.2 4.3 0.1 2.1 0.2 1.4 0.4 1 0.6 0.6 1.7 0.7 0.6 0.3 0.1 0.5-0.2 0.7-1 0.9-2.3 1-0.6 0.4-1.4 1.3-2.7 2.1-4.2 4-1.3 0.9-2.4 1.4-1.5 1-4.1 1.7-0.1 0.3 0 0.7 0.2 1.3 0.1 1.2-0.1 1.3-0.8 2.2-0.3 1.5 0 1.4 0.6 2 0.3 1.3-0.1 3.5 0.8 4.1-0.9-0.4-0.4 0.3-0.2 0.6 0.1 1.8-0.1 1-0.2 1.1-0.3 0.8-0.5 0.8-0.8 0.6-6.6 3.5-3.6 1.3-2.7 1.3-0.8 0.2-0.4-0.2-0.5-0.7-0.2-0.7 0.1-2.8-0.2-1-0.3-0.8-1-1.8-0.4-0.9-0.1-0.6 0.2-0.6 0.2-0.3 1.1-0.6 0.5-0.5 0.3-0.8-0.1-0.8-0.3-0.4-0.6-0.4-0.9-0.4-1.4-0.4-1.7-0.2-2.4 0-1.1 0.2-1 0.4-0.3 0-0.4-0.4-0.2-0.5-0.1-1.4-0.1-0.6-0.2-0.4-0.4-0.4-1-0.3-1.5-0.1-6.1 0.5-0.9 0.4-0.8-0.2-1.4-1-0.7-0.4-0.8-0.1-1 0.2-1.6 0.6-0.9 0.1-0.8-0.1-1-0.4-0.4-0.4-0.2-0.5 0-1.3-0.2-0.8-0.4-0.5-4-1.8-1.5-1.1-1.1-0.4-1.3-0.2-2.2 0.6-1.2 0.8-0.9 0.9-0.6 0.8-0.6 0.7-0.7 0.5-14.7 8.3-3 1-36.9 0.6-4.3-0.5-1.8-0.5-1.4-3-1.6-2.2-0.3-1.2 0.1-3.8-0.6-0.7-0.5-1.3-0.3-1.5-0.3-0.7-0.4-0.9-1-1.1-0.2-0.6-0.2-0.8-0.7-4.4 0.1-1.3 0-0.7-0.3-0.6-0.5-0.9-0.5-2.4-0.1-0.6 0.1-0.6 0.3-0.7 0.4-0.2 1.1 0.2 0.7-0.3 0.8-0.8 0.1-0.7-0.5-0.9-0.3-1-0.1-2.5 0.2-2.8 0.2-1.1 0-1.4 0.1-0.9 0.3-0.8 0.3-0.7 0.5-0.6 0.7-0.2 0.4 0.1 0.8 0.5 0.7-0.5 1.2 0 0.3-0.2 0.3-1 0.5-0.7 0-0.4-0.3-0.7-0.1-0.5 0-0.8 0.3-0.5 0.3-0.2 1 0.1 0.2-0.2 0.6-1.1 0.5-0.5 0.6-0.4 0.7-0.2 0.6 0.4 0.3 0 0.6-0.4 0.2-0.8 0.2-2.5-0.1-0.5-0.3-0.5-0.9-0.6-0.6-0.1-0.6-0.3-0.4-0.5-0.9-0.7-0.7-0.2-0.4 0.1-0.6 0.4-0.7 0.3-0.4-0.1-1.3-0.4-1.1 0.2-0.4 0-0.7-0.3-0.4 0-0.5 0.4-0.2 1.2-0.5 0.4-1.1 0-1.1 0.4-0.7-0.1-0.8-0.4-0.6-0.4-0.9-1.2-0.4-0.1-0.8-0.2-0.3-0.1-0.6-0.5-0.3-0.5-0.6-2.1-0.4-0.8-0.5-0.5-0.3-0.2-1.4-0.3-0.4-0.1-0.5-0.5-0.2-0.6-0.6-2.5-0.3-0.6-0.4-0.4-0.4 0-0.4-0.3-0.3-0.9-0.4-2.3-0.1-2.8-0.6-2.8-1.1-2.8-0.3-1-0.3-2.1 0.1-5.4-0.2-0.8-0.4-0.6-0.2-0.5-0.3-1.8-0.3-0.5-0.3-0.4-0.9-0.7-0.3-0.4-0.3-1.7-0.3-1.1 0.1-0.4 0.5-0.6 0.5-0.2 0.3-0.2 0.2-0.4-0.2-1.3 0-0.6 0.2-0.4 0.5-0.2 1.3-0.3 0.5-0.5 0.4-1.1 0.5-0.7 0.9-0.6 0.5-0.7 0.5-1.7 0.2-0.7 0-0.8-0.2-1.7-0.3-0.9-0.6-1.5 0-0.7 0.2-1 1.3-3.4 0.2-0.8 0.3-5.5 0.2-1 0.2-0.7 0.4-0.7 0.2-0.6 0-0.9 0.3-0.7 0.3-0.5 0.4-0.3 1-0.5 0.5-0.5 0.4-0.8-0.1-1.1-0.3-0.8-0.9-1.2-0.1-0.5 0.1-0.7 0.5-2.6 0.1-0.5-0.4-1.8-0.2-0.2 1.7-1.4 1 0.1 0.3-0.1 0.1-0.6-0.6-0.7 0-0.5 0.5-1.6 0.9-1 1.1-0.6 3-0.9 3.3-0.5 1.5 0.1 0.5-0.9 0.7-0.4 0.8-0.1 2.3 0.4 0.3-0.4-0.1-0.6 0.3-0.7 1.1-0.9 1.5 0.5 0.8 0.4 0.5 0.5 0.4 0 1.1-0.7 1.5-1.4 2.7-3.3 1.4-1.3 0.6 0 0.6 0.1 0.5-0.4 0.2-1.4 0.5-0.9 1.1-1 1.2-0.9 10.3-3.7 1.6-1 1-1.1 3.6 1.1 0.9-0.6 0.7-1.8 1.3-0.9 1.5-0.4 2.7-0.2 1.6-0.5 1.5-0.8 1.6-2.2 1.5-0.4 1.6-0.1 1.4 0 10.5 1.8 3.2 0.2 3-0.6 6.1-2.3 7.1-1.7 33.5-0.9 6.2-1.3 2.1-3.3 0.1-3.7 1.5-3 2.6-2.3 3.3-1.7 4.5-1.5 1.3-0.7 1.7-1.5 3.2-4.9 2.4-2.4 1.1-1.3 0.7-1.9 0.8-1.5 7.6-8.8 3.1-6.2 0.9-0.5 0.2 0.4-0.9 2.2 0.1 1.2z" id="CAF810" name="Ouham" data-id="CAF810" data-name="Ouham">
 </path>
 <path d="M694.8 144.6l-0.7-1.7-0.1-1.9 0.6-1.6 0.3-0.8-0.2-0.4-0.5-0.3-0.9-0.1-0.9 0.1-1.1 0.1-0.9 0.4-0.9 0.4-0.8 0.5-0.7 0.7-0.7 0.8-0.6 1.2-0.6 1.5-1.6 8.4-0.5 1.5-0.5 0.9-1.2 1.4-1.1 0.9-1.2 0.5-0.7 0.1-2.9 0.4-1.4 0.4-1.6 1-5.3 4-1.4 1.6-1 1.9-0.4 4.9-0.3 1.7-1 1.7-0.7 0.6-0.9 0.2-2.2-0.5-0.8 0-14.2 3.6-9.7 1.4-3 0.8-3.8 2.3-1.2 0.8-4.2 4.1-0.8 0.5-0.7 0.2-1.2 0-0.7-0.1-2.6-1-0.9-0.1-1 0.2-0.8 0.2-1.7 0.1 0.2-2.7-0.2-1.8-0.4-0.7-0.8-0.6-1.2-0.5-5.8-0.8-4.3-1.2-1.2-0.5-5.7-4.2-1.1-1.4-0.7-1.9-2.1-10 0.1-2.1-0.1-0.8-0.7-0.7-3.6-2.4-0.9-1.2-0.7-1.3-0.2-1.1-0.4-0.8-0.4-0.5-0.9-0.7-2.7-1.7-1.1-0.9-1.9-2.5-0.8-0.7-0.9-0.6-2.1-1-0.6-0.6-0.4-0.9-1.6-4.9-0.6-1.1-0.7-0.8-0.6-0.7-0.5-0.8-0.2-0.9-0.8-5.1-0.4-1.4-0.6-0.9-2.7-2.3-0.8-0.8-0.6-0.9-0.3-1-0.4-1.5-0.3-0.5-4.5-4.1-0.7-1.1-0.6-0.9-0.7-0.8-1-0.3-2 0-1.9 0.2-1.1-0.1-0.8-0.3-0.3-0.5-0.3-0.6 0-0.7-0.1-1.5-0.1-0.9-0.7-2.7-0.2-1 0-0.9 0.2-1.5 0-0.6-0.2-0.7-0.4-0.9-0.4-0.6-0.7-0.3-1.8-0.4-0.4 0.1-0.4 0.2-0.7 1.1-0.4 0.8-0.5 0.7-0.9 0.8-1.1 0.6-1.1 0.4-0.9 0.5-1.7 1.2-1.6 1.6-1.5 1.2-0.5 0.5-0.3 0.4-0.6 1.7-0.5 0.6-0.6 0.4-0.5 0.6-0.9 0.7-0.2 0.3-0.7 0.4-3.5 1.1-1.2 0.2-1.6 0-0.9 0.2-1.9 0.5-1 0.1-1.2 0.4-1.2 0.5-2.7 1.6-1.7 1.4-0.5 0.5-0.4 0.8-0.4 1.2-0.6 1-1 0.7-1.1 0.4-1.2 0.2-2 0.7-0.4 0.3-0.5 0.5-0.7 1-0.5 0.5-0.8 1.4-0.2 0.3-0.5 0.2-0.7 0.1-1.3-0.2-1.6-0.5-2.3-2.4 0.5 0.2 0.5-0.1 0.5-1.5 0.1-1.9 0.5-1.7 1.7-0.8 0.8-0.7 3-3.2 0.6-1.1 0.3-0.9 0.7-0.5 1.7-1 0.3-0.7 0.2-0.7 0.4-0.2 1.2 0.5-0.1-1-0.5-0.6 0-0.5 1.1-0.4 0.5-1 0-2.6 0.3-1.2 1-2.1 0.3-1.5 0.6-0.7 0.9-0.6 0.4-0.5 0.5-0.1 0.3 0.2 0.7 0.8 0.3 0.1 0.5-0.3 0.6-0.3 1-1 0.3 0 0.6 0.1 0.1-0.3 0-1.1 0-0.3 1.2-2.8 0.7-1.4 4.3-2.8 0.6-0.1 0.2-1.3 0.6-1 3.9-4.6 1.1-0.9 1.1 0.7 3.1 1.2 1 0.2 2.7-1 2.5-2.5 2-3.2 4-9.2 2.1-2.8 2.4-1.5 0.7 0.1 1 0.3 0.9 0.2 0.8-0.3 0.3 0.1 2.5-0.7 0.4-0.3 1.9-0.5 1-1.2 0.6-1.5 0.9-1.6 0.7-0.2 0.8-0.1 0.8-0.3 0.3-0.7 0-0.6-0.4-1.2 0-0.8 0.2-1.6 2.4-4-0.6-0.6-0.1-0.5 0.2-0.5 0-0.5-0.5-0.7-1.4-1.6-0.2-0.7-0.2-1.3-0.7-3-0.2-1.6 0.2-1.5 0.7-2.3 0.2-1.5 0.4-1.2 1.1-0.8 1.3-0.3 1.1-0.1 0.4-0.3 0.9-1.1 0.8-0.2 0.6-0.1 1.4-0.4 0.8-0.1 1.5 0.8 0.9 0.1 0.3-0.6 0.3-0.1 1.8-1.7 2.3-1.6 1.4-0.7 4.6-1.1 0.8-0.9-0.7-1.6 0.5-1.1 0.5-1.6 0.9-1.5 1.4-0.6 6.4 0.6 1.2-0.1 2.2 1.1 1-1.7 0.8-2.4 2.2-1.8 0.9-1.1 0.9-0.7 1.2 0.5 0.6 0 0.9-0.6 1.4-1.3 1-0.5 1.6-0.7 1.6-0.4 2.4-0.4 1.1-0.4 1-0.6 1.4-1.6 0.7-0.5 1-0.2 1.2 0.2 1.1 0.4 0.9 0.1 0.7-0.7 1.8 1.6 1.6 0.1 1.6-0.5 1.8-0.2 0.7 0.2 1.4 0.7 0.8 0.2 2.7-0.1 0.7 0.1 2.8 0.7 2 1.6 4.6 1.6 4.2 0.4 0.2 2.1 10.9 16 7.9 5.6 13.9 13.6 12.7 20.7 12.8 20.7 1.6 3.4 2.2 13.5-0.4 2.9-1 2.3-2.9 4.4-0.9 2.3 0 0.8 0.8 1.9 0.1 1-0.1 2.5 0.3 0.7 0.5 1 0.6 0 0.5 0.1 0.4 0.7 0 0.5-1.9 6-0.1 1.4 0.8 2.4 0.1 1.1-0.7 0.9-1 0.8-3 3.7-1.6 1.8-0.9 0.5-1.3 0.2-2.4-0.1-1.2 0.5-0.9 1.3z" id="CAF812" name="Vakaga" data-id="CAF812" data-name="Vakaga">
 </path>
 <path d="M694.8 144.6l-0.4 0.6-1.6 9.8 0.2 1.9 1 1.6 2 1.2 2.1-0.2 2.8-2.8 1.4 0.1 0.5 1.7-0.1 2.7-0.9 4.4-1.3 2.1-3.2 3.6-1 2 0 1.9 0.6 2 1.2 1.7 1.5 0.7 1.2-0.2 1.8-1.4 1-0.6 1.5-0.3 1.2 0.2 1.3 0.5 1.1 0.8 1 0.4 2.4-0.1 2.5 0.7 1.2-0.4 2.4-1.1 2.7-0.1 4.8 1.1 4.3-0.4 3 1.3 1.5 0.2 2.1-0.4 8 1.4 5.1-0.7 2.8-0.1 1.4 0.7-0.1 1.1-1.4 2.1-0.3 1.1 0.5 1.1 2.1 1.6 0.4 1-0.6 0.7-3.1 2.1-0.7 0.8-4.3 7.3-0.9 2.6-0.3 2.5 0.8 2.3 1.6 1.9 2.1 1.6 2 1.1 1.2 0.5 2.7 0.6 0.4 0 2.9 2.9 4.2 3.5 1.2 0.7 0.8 0.4 1.3 0.3 0.6 0.2 0.5 0.6 0.4 1 0.2 1.7 0.4 0.8 0.4 0.5 0.9 0.6 0.8 0.9 0.5 0.4 1 0.6 0.2 1.2-0.1 2-1.7 7.7 0.5 1.5 0.2 0.8 0.3 3.1 0.3 1.8 0.5 1.5 0.6 1.3 0.3 1 0 0.9-0.1 1.9 0.1 0.9 0.2 0.6 0.4 0.5 0.4 0.9-0.3 6.4 0.6 2 0.6 0.9 0.9 1 0.4 0.8 1 3 0.3 0.2 0.8 0.4 0.4 0.5-0.2 0.5 0.3 0.8 1.3 0.8 1 0.4 0 0.2-0.4 0.6-0.5 0.9-1.3 3.1-1 1.2-0.5 1.3-0.8 1.2-1.3 3-0.4 1.5-0.1 0.9 0.2 1 0.4 1.1 0 0.5-0.3 1.5 0.1 0.4 0.3 0.2 1-0.3 0.6 0.3 0 0.4-0.3 1.4 0.5 0.5 0.7 0.3 0.5 0.6 0.1 0.5-0.1 0.7-0.4 1.2-0.1 1.4 0.1 0.9-0.1 1.3-0.8 2.3 0.1 1.1 0.5 1 0.1 0.4 0.2 1.3 0 1.2-0.8 1.6-0.3 0.3-0.5 0-0.7-0.3-0.4 0.1-0.4 0.4-1.2 1.8-0.3 0.2-1.8 0.6-1.3 0.1-0.4-0.1-1.1-0.4-1.6 0-0.4 0-2.3 1-1.3-0.2-0.6 0.2-0.6 0.5-1.5 1.4-0.3 0.5 0.4 1.8 0.2 0.8 0.5 0.5 0.8 0.3 0 0.5-0.9 0.4-0.3 0.4-0.2 0.8 0.1 1-0.1 0.4-0.8 0.7-0.9 0.4-0.9 0.2-0.3 0.2-0.3 0.3 0.1 0.6 0.5 0.7 0.5 1 0.5 0.4 0 0.2-0.4 0.4-1.1 0.2-0.6-0.1-0.8 0.2-0.6 1.5-61.9 34.8-1 0.9-0.2 0.3-0.7 0.8-0.6 1-0.3 0.7-0.1 1-0.1 0.6-0.4 0.6-0.8 0.8-0.7 0.3-0.5 0.1-1.4 0.2-0.9 0-0.7-0.4-0.5-0.1-0.9 0.1-0.4 0.2-0.3 0.4-0.4 1-1.1 1.2-0.2 0.5 0 0.4 0.3 1.1-0.2 0.7-0.1 0.9 0.1 0.8 0 0.5-0.2 0.6-1.5 0.5-2.3 0.2-19.9-4.9-5.8-2-2.3-1.7-1.5-1.4-0.8-1.8-0.4-0.7-0.8-0.7-0.6-0.3-0.9-0.1-1.2 0.1-3.2 0.6-1.3 0.1-2.2-0.5-1.6-0.1-9.6 1.9-1.4 1-1.2 1.2-1.3 2.7-1.1 4.1-1 1.7-0.7 1-1.1 1-4.4 2.5-1.3 0.5-1 0.1-0.8-0.2-1-0.2-0.9 0.1-2.8 0.4-0.7-0.1-0.5-0.4-0.9-1.1-0.6-0.3-1.1 0-1.1 0.4-7.2 4.1-1.1 0.9-0.9 0.6-0.5 0.4 0.2 0.5 0.5 0.8-0.2 1.6-2.6 3-0.5 2.3 0.3 5.5-0.4 2.7-0.5 1.3-0.5 0.7-0.4 0.9-0.1 1.6 0.2 0.5 1.6 1.9 0.2 0.4 0.6 2.2-1.4 0.4-1.6-0.2-1.3 0.3-0.4 1.6 1.4-0.2-0.7 1.4-1.5 1.6-1.1 0.9-1.4 0.5-0.6 0.4-1.3 1.7-4.2 3.5-0.1 1.1-6.7-3.3-5-1.7-6.5-0.8 0.8-3.7 3.3-3.4 2.7-2.2 0.8-0.4 0.8 0 0.9 0.3 1.3 0.9 2.9 2.5 0.9 0.5 0.5 0 0.9-1.5 1.6-1.6 0.6-0.8 0.3-0.8 0.5-2.9 1.3-3 0.9-4.3 0.4-6.1-0.2-1.3-1.8-2.7-0.5-1.1-1.3-4.6-0.6-1-0.8-0.5-1.2-0.3-1.3 0-0.9-0.3-0.6-0.7-0.3-2.5-0.3-1.1-0.6-1.3-0.7-2.5-0.5-1.2-1.1-1.4-2-1.5-0.5-0.7 0-1.1 0.5-1.1 3.2-4.5 0.7-1.5 0.6-1.5-0.1-1.7-1.6-6.1-0.5-3.9 0.2-0.7 0.8-2.6 0.1-0.7-0.1-0.9-0.4-0.7-1.1-1-1-0.4-0.8-0.3-2.5 0-0.6-0.1-0.4-0.3-0.4-0.6-0.5-1.2-0.7-0.8-0.6-0.6-0.7-0.9-0.6-1.3-2.2-6.4-0.6-0.8-0.6-0.6-0.3-0.6 0-0.8 0.1-0.5 0.4-0.4 1.6-0.9 0.4-0.5 0.1-0.4 0-1.3-0.3-0.9 0.2-0.9 0.6-0.8 0.1-0.4 0-0.6-1.1-3.9-0.2-3-0.3-0.7-1.5-1-0.4-0.8-2.1-13.4 0.2-7.4-0.3-1-0.8-0.8-1.7-0.8-1-0.1-1 0.1-1.4 0.2-4.1-0.1-1.1-0.5-0.8-0.7-0.6-1.4-0.1-1 0.8-8.2 0-1.4-0.2-1-0.2-0.7-0.6-1.1-0.7-1.1-1.2-1.4-1.8-1.6-1.8-1.3-1.7-0.9-5.4-1.1-1.5-0.8-1.8-1.4-2.2-2.5-3.2-2.7-0.6-7-1.4-3.4-0.1-0.8 0.2-1 1.3-2.4 0.3-0.9 0.1-1 0-1.5 0.3-1.7 1.6-2.1 4.7-0.7 12.2-0.8 3.4-1-0.1-2.7-2.2-5.5-0.4-1.7 0.7-1.3 1.4-1.2 2.8-1.7 1.4-1.1 0.9-1 0.9-1.6 1.5-0.4 1.3-0.2 1.1 0.1 0.8 0.3 2 0.8 0.9 0.2 0.6-0.1 0.6-0.7 0.7-1.9 0.5-0.5 0.5-0.2 2.3-0.4 1.3-0.5 5.1-2.8 1.4-0.2 0.7 0.1 0.4 0.4 0.3 1 0.4 0.6 0.6 0.8 0.8 0.7 1.8 1.2 0.7 0.8 0.6 1 0.5 1.3 0.5 1.1 0.7 0.9 1.3 0.4 1.7 0 2.1-0.4 2.3-0.6 1.5-0.7 0.7-0.9 0-0.7-0.3-0.6-1.1-0.9-0.5-0.6-0.3-0.9 0-0.8 0.2-1.1 2.6-5.9 0.2-0.7 0.1-1-0.1-0.8-0.3-0.9-2.4-4.3-0.4-1.5-0.1-1.9 0.2-1.4 0.5-1.4 0.7-1.2 0.9-1.2 0.7-0.6 0.6-0.4 2-0.6 1.7-0.3 1.7-0.1 1.7 0.5 2.9 1.5 1.4 0.4 14.9 1.5 1.1-0.1 0.7-0.2 1.4-1.6 1.7-0.1 0.8-0.2 1-0.2 0.9 0.1 2.6 1 0.7 0.1 1.2 0 0.7-0.2 0.8-0.5 4.2-4.1 1.2-0.8 3.8-2.3 3-0.8 9.7-1.4 14.2-3.6 0.8 0 2.2 0.5 0.9-0.2 0.7-0.6 1-1.7 0.3-1.7 0.4-4.9 1-1.9 1.4-1.6 5.3-4 1.6-1 1.4-0.4 2.9-0.4 0.7-0.1 1.2-0.5 1.1-0.9 1.2-1.4 0.5-0.9 0.5-1.5 1.6-8.4 0.6-1.5 0.6-1.2 0.7-0.8 0.7-0.7 0.8-0.5 0.9-0.4 0.9-0.4 1.1-0.1 0.9-0.1 0.9 0.1 0.5 0.3 0.2 0.4-0.3 0.8-0.6 1.6 0.1 1.9 0.7 1.7z" id="CAF866" name="Haute-Kotto" data-id="CAF866" data-name="Haute-Kotto">
 </path>
 <path d="M772.7 457.2l0.9-0.9 0.6-0.7 0.6-0.2 0.4 0.2 1.1 0.9 0.7 0.3 0.4-0.1 0.9-0.6 0.3-0.3 0.1-0.6-0.1-0.3-0.4-0.2-0.8-0.1-0.3-0.2-0.2-0.4 0-0.5 0.6-0.9 0-0.3-0.4-0.7 0.1-0.6 0.3-0.7 0.7-0.1 0.6 0.4 0.4 0.6 0.3 0.1 0.2-0.3 0-1.8 0.1-0.3 0.6-0.6 0.4-0.7 0-1.2 0.1-0.3 0.8-0.7 0.2-0.3 0.2-0.9 0.2-0.2 0.4 0.2 0.8 0.6 0.3 0.1 0.7-0.2 1.4 0 0.8-0.1 0.9 0.1 1.2 0.3 0.7 0 1-0.5 0.6-0.6 0.5-0.9 0.4-0.3 1.3-0.5 0.3 0 0.6 0.2 0.6 0.5 0.7 0.2 0.3-0.1 0.2-0.4 0.1-1.2 0.4-0.4 1.2-0.2 0.7-0.5 1-1.5 0.5-0.4 0.3 0 0.8 0.7 1.2 0.5 0.5-0.4 0.4-2.1-0.1-2 0.2-0.2 0.6 0.5 0.3-0.3 0-1 0.2-0.5 1.4-0.5 0.1-0.8 0-0.7 0.5-0.2 1 0.5 0.5 0 0.6-0.6 0.2-0.1 1.1-0.3 0.6-0.4 0-0.4-0.6-0.6-0.3-0.4 0-0.6 0.4-0.5 0.7-0.3 0.5 0.1 0.6-0.3 0.6-1 1-0.4 0.6-0.9 0.1-0.5 0-0.8 0.2-0.7 0.4-0.5 1.3-0.8-0.1-0.3-1.6-0.5-0.2-0.3 0.3-0.3 1.4-0.7 0-0.4-0.5-0.3-0.3-0.4-0.3-0.8 0.1-1.1 0.5-0.5 0.2-0.3 0-0.6-0.3-1-0.1-0.6 0.1-0.5 0.3-0.7 0.2-1-0.1-0.8 0.2-1.1 0.3-0.7 0.1-1.1-0.4-1 0.2-0.5 1.6-0.9 1.3-0.1 0.7-0.3 0.6-0.5 0.5-1 0.5-0.5 0.4-0.1 0.6 0.4 0.2 0.3 0.9 1.9 0.3 0 0.2-0.6 0.2-0.9 0.4-1.1-0.1-1.3 0.1-1.5 0.7-2 1.3-2.1 0.2-1.1-0.4-1.2-1.6-1.9-1.3-0.6-1-0.2-0.7 0.2-0.7 0-0.8-0.3-0.6-0.9-0.2-0.7-0.5-0.8-0.5-0.8-1.2-1.4-0.4-0.7-0.2-0.7 0.1-0.4-0.2-0.5-0.5-0.4-0.8-0.2-1.4 0-0.6-0.2-1.2-1.9-9.8-8.7-1-1.4 0.1-0.4 0.4-0.2 2.6 1 1.3 0.3 1.3 0.1 1.1-0.2 1.7-1.1 0.8-0.4 1.5-0.4 0.5-0.3 0.2-0.4 0.4-2 0.5-1 0.7-0.5 0.9-0.2 1.4 0 0.9-0.3 0.6-0.6 0.2-1.1 0-1.3-0.2-1-0.7-1-1-1.1-3.5-2.9-2.7-1.9-1.9-0.9-1.3-0.9-2-1.8-1-0.5-1.5-0.2-4.3 0.4-1.2 0.3-1.7 1-4.6 4.6-1.4 1-1.1 0.2-2.3-0.3-1.1 0-1.1 0.3-0.7 0.4-5.3-4.3-21.5-23.6 0.6-1.5 0.8-0.2 0.6 0.1 1.1-0.2 0.4-0.4 0-0.2-0.5-0.4-0.5-1-0.5-0.7-0.1-0.6 0.3-0.3 0.3-0.2 0.9-0.2 0.9-0.4 0.8-0.7 0.1-0.4-0.1-1 0.2-0.8 0.3-0.4 0.9-0.4 0-0.5-0.8-0.3-0.5-0.5-0.2-0.8-0.4-1.8 0.3-0.5 1.5-1.4 0.6-0.5 0.6-0.2 1.3 0.2 2.3-1 0.4 0 1.6 0 1.1 0.4 0.4 0.1 1.3-0.1 1.8-0.6 0.3-0.2 1.2-1.8 0.4-0.4 0.4-0.1 0.7 0.3 0.5 0 0.3-0.3 0.8-1.6 0-1.2-0.2-1.3-0.1-0.4-0.5-1-0.1-1.1 0.8-2.3 0.1-1.3-0.1-0.9 0.1-1.4 0.4-1.2 0.1-0.7-0.1-0.5-0.5-0.6-0.7-0.3-0.5-0.5 0.3-1.4 0-0.4-0.6-0.3-1 0.3-0.3-0.2-0.1-0.4 0.3-1.5 0-0.5-0.4-1.1-0.2-1 0.1-0.9 0.4-1.5 1.3-3 0.8-1.2 0.5-1.3 1-1.2 1.3-3.1 0.5-0.9 0.4-0.6 0-0.2-1-0.4-1.3-0.8-0.3-0.8 0.2-0.5-0.4-0.5-0.8-0.4-0.3-0.2-1-3-0.4-0.8-0.9-1-0.6-0.9-0.6-2 0.3-6.4-0.4-0.9-0.4-0.5-0.2-0.6-0.1-0.9 0.1-1.9 0-0.9-0.3-1-0.6-1.3-0.5-1.5-0.3-1.8-0.3-3.1-0.2-0.8-0.5-1.5 1.7-7.7 0.1-2-0.2-1.2-1-0.6-0.5-0.4-0.8-0.9-0.9-0.6-0.4-0.5-0.4-0.8-0.2-1.7-0.4-1-0.5-0.6-0.6-0.2-1.3-0.3-0.8-0.4-1.2-0.7-4.2-3.5-2.9-2.9 1.4 0.2 1.1 0 0.6 0.1 0.5 0.3 1.3 1 0.4 0.2 4.9-1.7 2.7-0.3 1.8 1.8 0.3 0.7 0.4 0.5 0.6 0.3 0.7 0.2 2.4 1.5 2.4 0.1 5.4-0.9 4.3 0.8 1.5 0 1.5 0.2 2.5 1.4 4.4 0.5 2.4 1.1 6.6 6.1 0.7 1.2 0.2 2.8 1.6 1.6 0.1 1.4 0.5 0.5 0.5 0.5 0.6 0.5 0.6 0.3 3.7 4.2 2.3 1.7 2.3 0.9 1.1-0.1 2.3-0.5 1.1 0 1.9 0.3 0.6 0.4 0.8 0.9 1.9 0.6 1 1 0.8 1.2 0.7 2.4 1.2 2.1 0.4 1.3 0 1.1-0.2 3.3 0.2 1.2 0.5 1.1 0.2 1.1-0.3 1.4-1.7 1.5-5.1 1.7-1.6 1.6-0.1 0.9 0.4 1.3 1.6 3.8 4.6 2.4 1 0.7 0.5 0.6 0.7 1.2 0.5 0.5 0.6 0.3 1.2 0.4 0.5 0.4 0.6 1.1 0.5 2.2 0.4 1.2 0.9 1.1 1 0.7 4.3 2.2 3 2.2 1.9 1 1.5-0.5 1.3 0.2 1.1 0.7 3.4 3.2 1.3 0.6 4.7 1.2 1.4 0.6 1.8 1.5 0.7 0.2 1.4-0.1 0.8 0.4 1.2 1.2 0.9 0.2 1.9 0.1 0.4 0.6 0 1.1 0.7 1.2 1.1 0.4 3.5 0.3 1.2 0.6 0.4 0.6 0.1 1.5 0.4 0.7 2.4 1.4 0.8 0.2 1.5 0.2 0.8 0.3 0.4 0.6 0.1 0.5 0.2 0.5 0.9 0.3 3.4 0.3 0.5 1.7 0.2 4 0.8 1.7 0.4 0.3 1-0.2 0.4 0 0.3 0.3-0.1 0.9 0 0.5 0.3 0.9 0.1 0.9 0.3 0.9 0.8 0.9 1.7 1.1 1.4 0.3 1.2 0.6 2.4 3 3.1 2.1 1.3 1.4 2.6 1.3 4.5 1.7 3.7 2.1 0.2 2.6-0.6 0.8-1.3 2.3-2.4 3.3-1.5 3.1-0.6 0.5-0.8 0.5-0.7 0.5-0.5 0.9 1.4 0.5 0.1 1.1-0.4 1.5-0.2 1.3 0.6 1.6 0.8 0.8 1.2 0.4 1.4 0.9 1.3 1.2 1.8 2.5 1.5 0.9 3.2 0.7 1.2 0.9 0.2 2 0 1.8 0.8 0.5 1.1-0.1 1.2 0.3 1 1.2 0.1 1.5-0.8 1.4-1.2 1.1-1.4 0.7-1.5 1.1-1.3 1.3-0.6 1.5 0.3 1.7 1.2-0.4 3.1-2.1 1.3 0.4 0.9 1.3 0.6 1.6 0.8 1.4 1.2 1 4.4 1.5 2.5 0.3 5.4-0.2 5.5 2.1 1.3 0.9 0.9 1 0.4 3.5 0.6 1.3 1.8 0.8 1.8-0.1 1.2-0.4 1 0.1 0.7 1.8 1 1.3 1.6 0.1 3.3-0.8 0.8 0.9 0.9 2.1 1.4 1.1 0.6 1.2 0.5 0.4 0.7 0 1.4-0.5 0.7 0 3.2 1.2 0.7 0.5 0.6 1.3 0 0.8 0.4 0.6 1.5 0.5 1.1 0.6 0.9 0.9 0.6 1.3 0.3 1.1 0 0.7 0.2 0.5 0.3 0.3 1.4 0.9 0 0.4-0.2 0.5-0.1 1.4-0.3 1.1 0 0.5 0.5 0.7 0.4 0.1 0.9-0.3 0.4-0.3 0.6 0 0.7 0.5 0.3 0.6-0.1 1.4 0.1 0.7-3.1 8.4-0.2 1.2 0.2 1 0.6 1.9 0.4 3.8 0.3 1.2 2.1 4.8 1.2 2.3 1.6 2 4.4 2.9 2.1 1.8 1.2 3 2.2 1.6 0.8 1-2-0.8-0.7-0.1-1.1-0.8-0.9-0.1-1.4-0.1-0.8-0.1-0.6-0.3-1.1-0.8-1-0.9-1.1-0.7-1.3-0.3-1.6-0.2-1.8-0.5-6.3-3.1-3.1-1.2-3.3-0.2-3.5 1-2.8 1.5-2.3 1.5-2.1 1.9-2.3 2.5-0.3 0.6-0.8 1.9-0.4 0.6-0.9 0.9-0.4 0.4-1.4-0.2-0.3-0.5-0.4-0.4-0.5-0.2-0.5 0.2-0.8 0.8-0.6 0.1-0.5-0.4-3.1-3.3-0.6-0.4-1.1-0.1-3.6 0-0.8 0.4-1.1 0.8-0.7 0.4-1.1-0.4-0.6 0.1-0.5 0.8-0.4 0-0.6-0.9-1.3-0.2-1.5 0.5-0.9 1.2-0.5-0.6-0.5 0.5-1 0.6-1 0.3-0.6 0.2-1.4-0.1-2.1-0.8-0.9-0.1-0.2-0.5-1.4-3-1-0.7-1.1-0.7-1.1-0.8-0.7-1.2-1.6 0.6-0.6 0.4-0.7-0.9-1.3-0.1-1.4 0.2-2-0.4-1.5-0.6-1.4-1-0.5-1.4-1.6 0.6 0-1.7-1 0.4-0.5-0.6-0.6-2.4-1.1 1-0.2-0.3-0.5-0.3-0.3-0.4-1.1 0.5-0.5-0.6-0.5-0.9-1.1-0.6-0.3 0.8-0.4 0.6-0.6 0.2-0.6 0-0.9-0.2-0.3-0.3 0.2 2 0.3 0.6-0.7-0.3-0.7-0.1-0.5 0.3-0.2 0.9-1.3 0-1 0.2-0.8 0.6-1-0.7-1.3-1.5-0.9-0.5-1-0.2-0.7 0.3-0.4 0.7 0 1.4-1.1-0.5-1.4 0.1-1 0.9-0.1 1.6-1.4-1.2-0.7-1.4-0.8-1-1.8-0.1-0.3 0.5-0.7 0.9-0.8 0.4-0.5-1.6-0.4-0.5-0.2-0.7 0.2-1.1-1.5 0.5-0.2-1.9-1-0.4-0.7 0.3 0.9 0.4-0.7 1.1-1.1 0.1-1.1-0.5-0.8-0.7-2.1-2.3-1.1-0.8-1.7-0.5-0.4-0.2-0.6-0.7-0.4-0.2-1 0.2-0.5 0.5-0.6 0.1-1.1-0.8 0-0.5 0.4-0.2 0.7-0.9-1.7 0.1-0.7-0.7-0.2-1-0.6-1-0.5 0-1 0.2-1.4-0.2-0.8 0.2 0.6 1.4-0.9 0.2-1.9 0.7-0.7-0.1-0.8-0.9-0.4 0.2-3.4 1.9-1.6 0.4-1.4-0.8-0.8 0.9-1.1 0.4-0.5 0.5 0.9 1.3-1.5 0.5-1 1.1-0.5 1.6-0.1 1.8-0.5 0.9-1 1.1-0.6 1.3 0.5 1.7 0.5 0.3 1.5 0.3 0.6 0.5 0.1 0.5-0.5 1.6-0.1 0.8-0.2 0.5-1.1 1.3-0.2 0.8-0.1 1.9-0.3 0.8-0.7 0.8-1.2 0.3-3.3 0.3-0.7 0.6-0.9 0.5-4.9 0.3-0.7-0.3-1.1-0.6-0.8-0.1-0.6 0.8-0.6 0.5-0.7 0.2-0.3 0.4-0.8 1.5-0.5 1.6-0.6 0.1-2.7-0.8-2.6-1.4-2.9-0.8-0.8 0-0.6 0.3-1.4 1-0.4 0.2-1.8 0.4-2.7 1.7-1.5 0.6-0.9-0.1-1.3-0.5-0.7 0.3-0.8 0.9-0.8 0.7-0.9 0.1-0.9-0.9-1.3 0.9-1.4 0.1-5.1-0.6-0.8-0.3 0.3-0.8 1-1.4-1.1-0.7-2.2-0.8-0.9-0.6-0.5-0.9 0.1-1.5-0.7-0.8-1-0.4-1.9-0.2-0.8-0.4-0.4-0.5-0.7-1.5-0.4-0.6-1.5-1.1-2-1-0.5-0.1z" id="CAF867" name="Haut-Mbomou" data-id="CAF867" data-name="Haut-Mbomou">
 </path>
 <path d="M772.7 457.2l-1.7-0.4-1.7 0.5-0.3 0.9 0 1-0.2 0.7-1-0.5-0.4-0.7-0.8-2.2-0.4-0.9-1 1.1-1.2 1.8-0.5 1.7 0.8 0.7 2 0.4 0.1 1-1 1-1.3 0.8-5.5 0.7-0.9 0.8-0.9 2.2-0.3 0.9 0 0.7-0.1 0.6-0.7 0.4-0.4 0-0.6-1.8-1.2-0.6-1.6 0.4-1.4 0.9-2.1 2.8-0.8 0.4-1-0.2-1.5-1-0.9-0.4-1.4 0.3-1.4 0.7-1.9 1.7-3.9 1.8-1.4 0.8-1.1-1.1-0.5-0.1-0.5 0.2-0.3 0.5-0.2 0.7-0.1 0.9 0.4 0.8 0.1 0.9-1.9 0-3.2-0.7-0.6 0.2-0.8 0.7-0.7 0.2-0.5-0.1-1.5-0.4-0.9-0.1-1.4 0.5-2.9 2.1-1.7 0.6-3.5 0.4-1.5 0.5-3 1.7-3.5 0.9-1.6 0.7-4.7 3.7-1.3 0.5-1.8 0.2-1.3 0.6-0.8 1-0.6 1.3-0.1 0.9-0.1 1.3-0.3 0.5-0.7 0.3-1.4-0.1-0.6 0.3-1.3-0.7-1.3-0.5-1.4-0.3-1.5 0-0.2-0.2-0.9-0.9-0.5-0.5-1.7-0.3-0.6-0.2-1-2.2-2.1-1.3-0.3-0.3-0.9-0.5-1.9-2.7-1.1-0.9-3.5 1.7-1.8 0.3-1.7-0.7-0.8-0.7-0.9-0.6-1-0.4-1-0.2-0.9-0.4-0.5-1-0.3-1.1-0.8-1.7-0.8-2-0.7-0.6-0.9-0.1-0.9 0.3-0.9 0.5-0.9 0.3-1.1 0-0.7-0.3-0.6 0.1-0.7 0.8-0.5 0.9 0 1 0.3 0.9 0.7 0.9-0.7 0.7-1.6 1.3-0.9 2.1-1.3-0.2-1.5-0.8-1.1-0.5-1.3 0.5-0.7 1.1-0.9 2.6-0.6 1.2-0.7 1-0.8 0.8-1.1 0.6 0 1 0.5 1.5 0.1 0.7-0.2 0.6-0.7 1.3-0.4 0.9-1.1 0.8-0.2 0.4 0 1.8-0.2 0.8-0.4 0.8-1 0.5-1.7 0.2-3.3-0.2-1.4 0.9-0.4 1.8 0.1 2.1 0.4 1.5 1.3 1.6 0.2 0.6-0.3 0.8-0.7 0.9-0.9 0.6-0.9 0.3-0.6 0.7-2.3 4.1 0.1 0.8 0.4 1.6 0.1 0.7-0.5 0.8-1.4 1.2-0.3 0.3-0.6 1.2-1.3 1.4-2.7 1.9-2.7 1.1-9.1 0.4-7.4-1.6-1.7-1.1-1.7-0.7-0.8-0.5-1.4-1.4-0.4-0.4-1.5-0.5-3.9-0.7-1.6-0.8 0.1-0.1 0-1.4 0.4-0.8 0.6-0.6 0.6-0.9 0.6-1 0.1-0.7-0.3-3.8 0.1-1 0.3-0.6 1.6-1.7 0.2-0.4 0.3-1.6 0.8-1.3 2-2.7 1.1-3.1-1.2-1.7-2.5-0.6-3.1 0.2-4.4 1.6-1.1-0.3-0.7-0.3-2.1-0.2-0.6-0.3-0.1-0.7 1-1.1 0.2-0.8-0.9-1.2-1.2-0.8-1.1-0.9-0.5-1.6 0.5-0.5 0.2-0.3-0.1-0.5-0.4-0.1-0.6 0.2-0.6 0.5-0.9-0.9-0.3-0.5-0.4-0.8-1.2 0.6-0.9-0.1-1.6-1-0.2-1.2-0.4-0.5-1.2 0.6-0.4-0.2-0.4-0.8-0.5 0-0.9 0.7-1.3-0.1-1.1-0.7-0.4-1.2 0.2-0.7 0.8-0.9-0.5-1.2 0.1-0.7 0.3-0.6 0.4-1.8 1.1-1.3 0.3-1.2 0.7-8.1 0.5-1.1 2.8-3.4 0.7-1.4-0.1-1.6-0.7-1.3-2.2-2.2-0.2-1.2 0.5-0.8 2.6-2.4 2.2-1.2 1.1-0.9 0.4-1.3 0.9-4.3 0.2-8.3 0.1-0.8 0.7-1.2 0.2-0.9 0-0.4-0.4-0.3-0.1-0.4 0-0.8-0.2-1.9 0.1-3.8 0.1-1.1 4.2-3.5 1.3-1.7 0.6-0.4 1.4-0.5 1.1-0.9 1.5-1.6 0.7-1.4-1.4 0.2 0.4-1.6 1.3-0.3 1.6 0.2 1.4-0.4-0.6-2.2-0.2-0.4-1.6-1.9-0.2-0.5 0.1-1.6 0.4-0.9 0.5-0.7 0.5-1.3 0.4-2.7-0.3-5.5 0.5-2.3 2.6-3 0.2-1.6-0.5-0.8-0.2-0.5 0.5-0.4 0.9-0.6 1.1-0.9 7.2-4.1 1.1-0.4 1.1 0 0.6 0.3 0.9 1.1 0.5 0.4 0.7 0.1 2.8-0.4 0.9-0.1 1 0.2 0.8 0.2 1-0.1 1.3-0.5 4.4-2.5 1.1-1 0.7-1 1-1.7 1.1-4.1 1.3-2.7 1.2-1.2 1.4-1 9.6-1.9 1.6 0.1 2.2 0.5 1.3-0.1 3.2-0.6 1.2-0.1 0.9 0.1 0.6 0.3 0.8 0.7 0.4 0.7 0.8 1.8 1.5 1.4 2.3 1.7 5.8 2 19.9 4.9 2.3-0.2 1.5-0.5 0.2-0.6 0-0.5-0.1-0.8 0.1-0.9 0.2-0.7-0.3-1.1 0-0.4 0.2-0.5 1.1-1.2 0.4-1 0.3-0.4 0.4-0.2 0.9-0.1 0.5 0.1 0.7 0.4 0.9 0 1.4-0.2 0.5-0.1 0.7-0.3 0.8-0.8 0.4-0.6 0.1-0.6 0.1-1 0.3-0.7 0.6-1 0.7-0.8 0.2-0.3 1-0.9 61.9-34.8 21.5 23.6 5.3 4.3 0.7-0.4 1.1-0.3 1.1 0 2.3 0.3 1.1-0.2 1.4-1 4.6-4.6 1.7-1 1.2-0.3 4.3-0.4 1.5 0.2 1 0.5 2 1.8 1.3 0.9 1.9 0.9 2.7 1.9 3.5 2.9 1 1.1 0.7 1 0.2 1 0 1.3-0.2 1.1-0.6 0.6-0.9 0.3-1.4 0-0.9 0.2-0.7 0.5-0.5 1-0.4 2-0.2 0.4-0.5 0.3-1.5 0.4-0.8 0.4-1.7 1.1-1.1 0.2-1.3-0.1-1.3-0.3-2.6-1-0.4 0.2-0.1 0.4 1 1.4 9.8 8.7 1.2 1.9 0.6 0.2 1.4 0 0.8 0.2 0.5 0.4 0.2 0.5-0.1 0.4 0.2 0.7 0.4 0.7 1.2 1.4 0.5 0.8 0.5 0.8 0.2 0.7 0.6 0.9 0.8 0.3 0.7 0 0.7-0.2 1 0.2 1.3 0.6 1.6 1.9 0.4 1.2-0.2 1.1-1.3 2.1-0.7 2-0.1 1.5 0.1 1.3-0.4 1.1-0.2 0.9-0.2 0.6-0.3 0-0.9-1.9-0.2-0.3-0.6-0.4-0.4 0.1-0.5 0.5-0.5 1-0.6 0.5-0.7 0.3-1.3 0.1-1.6 0.9-0.2 0.5 0.4 1-0.1 1.1-0.3 0.7-0.2 1.1 0.1 0.8-0.2 1-0.3 0.7-0.1 0.5 0.1 0.6 0.3 1 0 0.6-0.2 0.3-0.5 0.5-0.1 1.1 0.3 0.8 0.3 0.4 0.5 0.3 0 0.4-1.4 0.7-0.3 0.3 0.2 0.3 1.6 0.5 0.1 0.3-1.3 0.8-0.4 0.5-0.2 0.7 0 0.8-0.1 0.5-0.6 0.9-1 0.4-0.6 1-0.6 0.3-0.5-0.1-0.7 0.3-0.4 0.5 0 0.6 0.3 0.4 0.6 0.6 0 0.4-0.6 0.4-1.1 0.3-0.2 0.1-0.6 0.6-0.5 0-1-0.5-0.5 0.2 0 0.7-0.1 0.8-1.4 0.5-0.2 0.5 0 1-0.3 0.3-0.6-0.5-0.2 0.2 0.1 2-0.4 2.1-0.5 0.4-1.2-0.5-0.8-0.7-0.3 0-0.5 0.4-1 1.5-0.7 0.5-1.2 0.2-0.4 0.4-0.1 1.2-0.2 0.4-0.3 0.1-0.7-0.2-0.6-0.5-0.6-0.2-0.3 0-1.3 0.5-0.4 0.3-0.5 0.9-0.6 0.6-1 0.5-0.7 0-1.2-0.3-0.9-0.1-0.8 0.1-1.4 0-0.7 0.2-0.3-0.1-0.8-0.6-0.4-0.2-0.2 0.2-0.2 0.9-0.2 0.3-0.8 0.7-0.1 0.3 0 1.2-0.4 0.7-0.6 0.6-0.1 0.3 0 1.8-0.2 0.3-0.3-0.1-0.4-0.6-0.6-0.4-0.7 0.1-0.3 0.7-0.1 0.6 0.4 0.7 0 0.3-0.6 0.9 0 0.5 0.2 0.4 0.3 0.2 0.8 0.1 0.4 0.2 0.1 0.3-0.1 0.6-0.3 0.3-0.9 0.6-0.4 0.1-0.7-0.3-1.1-0.9-0.4-0.2-0.6 0.2-0.6 0.7-0.9 0.9z" id="CAF868" name="Mbomou" data-id="CAF868" data-name="Mbomou">
 </path>
 <circle cx="368.9" cy="318.8" id="0">
 </circle>
 <circle cx="372.8" cy="327.8" id="1">
 </circle>
 <circle cx="110.3" cy="276.4" id="2">
 </circle>
</svg>