<?xml version="1.0"?>
<!--
************* Copyright (c) 2017 Pareto Softare, LLC DBA Simplemaps.com *******************		
************* Free for Commercial Use, full terms at  http://simplemaps.com/resources/svg-license ************
************* Attribution is appreciated! http://simplemaps.com ***************************
-->
<svg baseprofile="tiny" fill="#7c7c7c" height="1161" stroke="#ffffff" stroke-linecap="round" stroke-linejoin="round" stroke-width="2" version="1.2" viewbox="0 0 1000 1161" width="1000" xmlns="http://www.w3.org/2000/svg">
 <path d="M554 438.7l-3.2 4.5-3.3 2.9-4 2.2-5 2.3-4.6 2.7 3.8 7.6 8.6 6.3 2 9-6.6 7.1-9.8 3.2-10.2 1.9-2.5 0-2.5-0.4-5.1 0.8-4.7-0.4-4.3 0.5-1.3 4.9 1.2 5.1 0 2.1-0.2 2.2 0.9 3 3.6 7.6 1.2 5.1 1.6 4.3 4.1 2 9.8 1.3 4.5 1.3 1.9 4.6 6.2 23.7-0.9 4.6-2 4.6-2.6 4.3-7.5 7.6-5.7 7.3 20.9 18.2 2.4 4.3-2.8 4.6-2.4 5.8-13.1 14.8-7.3 6.2-9.9 2.3-24.9 1-5.5-1.3-3.2 1.5-3.2 3-9.4 2.7-17.2 3-0.5-0.6-0.9-1.6-0.1-1.1 0.8-2.3 0.1-1.2-0.5-1.5-1.4-2.9-3.8-10.4 0-1.9 1.4-2.8 0.7-5.7 0.7-3.1 2-3.2 2.4-2.6 1.5-2.9-0.6-4-0.9-3.4 0-3.2 0.7-3.3 5.4-11.6 0.9-4.3-1.2-4-3.1-6.4-1.6-1.8-5.3-3.6-2.9-3.9-4.5-2.8-5-2.3-3.7-1-2.3 0.3-2 1-2.1 0.7-2.1-0.5-2.5-1-2.2 0-2.2 0.7-2.3 1.2-0.2-4.9-1-5.5-1.6-5.3-2.2-4.6-3.5-3.3-4.8-2.4-5.3-0.8-4.9 1.3-0.9-1.3-1.1-0.9-1.3-0.5-4.7-0.6-1 0.4-0.9 1.8-0.6 0.6-1.7 0.6-0.9 0.2-0.8-0.6-6.1-7.3 0.1-3.7 1.4-3.3 7.7-10.2 1.3-1.3 1.4-1.7-0.1-1.4-0.7-1.5-0.3-1.9 0.6-1.3 1.9-2.5 0.2-1.4-1.1-1.6-1.5-0.3-1.6 0-0.9-0.9-0.5-9.6-0.6-3.2-1.3-4.2-0.7-3.3 0.6-3.2 4.5-6.7 4.7-10.5 2.8-3 9.8-5.4 2.5-2.9 0.5-2.7-0.8-2.7-1.5-2.8 4.1-5.6 6.5-0.9 7.5 0.8 6.6-0.3 1.8-0.7 0.7-0.5 0.5-0.7 9.9-8.5 0.8-2.9 0.4-6.8 3.9-5.5 6.1-5.3 4.5-5.4-0.9-6.2-0.4-1.6 1-1.1 1.6-0.9 1.2-1.3 0.2-1.8-1-1-3.1-1.6-2.6-2.3-2.2-2.7-1.9-2.9-1.4-3.1-2.1-6.8-1.8-2.7-6.4-2.9-2-2.8-1.1-3.3 0.1-10.1-0.3-3.4-2-8.3-0.8-1.5-1.4-1.1-1.5-0.6-1.2-0.8-0.2-0.7 2.2-1.1 2.1-0.7 2.5-0.3 5.1-1.2 1.6-0.1 5.9 0.5 1.6-0.2 2.4-0.4 1.2-0.4 1.5-0.3 2.4 0.5 1.5 0.1 6.4-1.2 0.7 0.2 0.7 0.4 0.7 1.3 0.3 1.1 0.1 2.2 0.2 1.1 0.7 2.1 1.1 8.4 0.4 1 0.6 0.8 3.9 2.8 2.8 1.3 14.4 4.3 7.2 1 2.1-0.3 1 0.1 1.3 0.3 1.7 0.7 2.9 2.1 1 1.2 1.5 2.7 1.2 1.1 1.4 0.9 7.4 3.7 5.1 3.4 3.5 1.2 3.4 0.6 3.5 0.2 4.2-0.2 1 0.1 0.9 0.3 1.6 2 1.3 1 3.8 1.5 1.1 0.7 0.8 0.6 1.7 3.7 0.3 1.2-0.1 1-0.6 1.2-1.2 0.6-1.5 0.2-1.4 0.4-1.1 0.7-0.9 1.5-0.7 0.6-1.2 0.7-0.7 1.2-1.4 1-0.4 0.8 0 0.7 0.4 2.3 0.7 2 1.8 2.7 0.3 1.2 0 1.2-1.2 6.9 0.1 9.7 0.4 2.3 1.7 5.5 0.1 1.5-0.1 0.6-1.8 2.7-0.3 1.1-0.1 1.4 0 1.6 0.5 3.2 0.4 1.4 1.4 1.1 6.9 2.4 0.6 0.3 1.4 1 0.3 1.3 0.3 0.6 0.7 0.5 2.1 0.7 1.3 0.8-0.1 1.4 1 0.9 1.1-0.1 4.3 1.2 1.2 0.8 0.3 0.6 0.4 2.3 0.3 0.3 1.4-1.1 0.8 0.3z" id="COG2185" name="Cuvette-Ouest" data-id="COG2185" data-name="Cuvette-Ouest">
 </path>
 <path d="M371 1089.5l-3.8 0.2-1.2-0.3-1.5-1.3-1.9-3.5-1.2-1.6-2.9-1.9-2.8-0.3-8.4 2.9-1.5 0.9-0.5 1.5 1.4 12.8-0.5 2.6-2 5.4-0.5 2.9 1.8 5.7-0.9 1.2-2.1-0.4-1.1 0.5-0.5 1.5 0.3 2.4-0.7 1-1.1 0.1-3.1-0.9-1.2 0-2.8 1.8-2.9 5.3-1.5 0.5-0.7-4.4-0.3-1-0.5-1-0.8-1.1-1.4-1.1-2.2-1.4-5.2-2.5-9.6-6.6-1.1-0.4-2.1-0.4-0.9-0.5-0.8-1-0.5-1.5-0.2-2.3-0.3-1-0.7-1.2-1.4-1.4-1.5-1.8-1.3-2.3-1.3-1.7-0.7-1.9-1.1-2.4-5.7-7.9-2.8-2.6-2-1.1-2.2-0.1-2-0.8-2-0.2-1-0.3-2-0.9-1 0-2 0.2-0.9-0.2-1.9-0.9-1-0.3-3 0.3-2.2-0.3-2.1 0-1.2-0.5-1.4-1-2-2.5-1.5-1-1.1-0.6-1.4-0.2-1.4-1.9-9.4-18.5-4.6-6.8-2.5-4.8-1.7-2.3-2.8-2.9-6-4.5-0.9-0.9-7.1-8.1-4.8-8.3-3-4-0.9-0.9-2.1-1.6-4-2.4-0.8-0.8-0.3-1 0.8-1.9 0.8-1.3 0.8-1.1 0.9-0.6 0.9-0.4 0.7-0.5 0.4-1-1.6-3.6-0.2-1-0.1-2.2 1.1-2.2 0.1-1.1-1.5-3.6-1.4-6.7-0.1-2.3 0.2-1.5 0.6-1.9 1.1-1.6 3.4-2.9 0.5 0.6 1.6-0.3 2.6-1.2 1.2-0.3 3 0.7-0.8 3.4 2.9 1.3 5.3-0.3 2.2 0.6 1.5 2.5-1.8 0.9 2 0.7 0.4 1.2 0 1.7 0.3 1.9 0.5 0.4 1.8 0.2 0.5 0.2 0.3 0.8 0.2 1.4 0.3 0.7 1.1 1.2 0.6 1 2 6 1.1 1.3 1.6 0.4-0.8 2.6-1.2 1.6 0.6 0.7 1.4 0.7 0 5 1.3 2.8 4.1 3.2 1.6 0.5 1.6 1.1 3.1 0.9 0.9 0.9 0.9 1.8 0.7 0.5 1.9 0.8 1.6 2.4 1 0.6 1.2 0.1 1.5-0.1 2.4-0.4 6.9-0.7 2.1 0.3 3.2 1.1 1.6-0.3 5.9-2 2-0.2 1.6 0.1 2.9 1.9 1 0.5 1.2 0 3.3-0.5 2.5 0.5 0.9 0.1 0.8-0.6 0.9 0.2 1.2 1.7 0.4 0.9-0.6 2.1-0.2 1 0.1 1 2.2 6.4 0.6 1 0.8 0.7 0.9 0.5 1 0.2 2.1 0.2 4.2 0.9 1.5-0.1 2.3-0.5 1.9-0.6 1.7-0.8 1.2-1.2 0.7-1 1-5 0.1-1-0.1-2.1 0.1-1 0.6-1.1 1.1-1.4 3.5-3.6 0.9-1.6 0.2-1.2 0-2 0.5-1 1.2-1.1 1.1-1.3 1.1-1.7 0.3-1.3-1.1-0.5-0.5-0.3-0.1-0.6 0.5-1.6-0.2-0.3-1.9-0.2-0.6-0.3-0.2-0.6-0.2-2.2 0.1-0.6 1.1-0.6 1.7-0.4 1.9 0.2 1.3 0.5 0.8 0 0.9-0.4 2.2-1.4 0.6-0.5 0-1.4 0.2-0.5 1.2-0.4 1.9 0 2 0.6 2-0.1 1.3 0.1 0.6-0.4 0.2-1.1-0.1-1.8 0.2-0.8 0.7-1 0.9-1 1.8-1.3 1.1-0.6 1.6-0.5 0.9-1.3 0.6-1.6 0.1-1.1-0.2-1.5 0-0.7 0.5-1.2 1.1-1.2 1.3-0.5 0.9-0.1 2.3-1.8 5.1-6.7 4.7 2.6 1.2 0.3 3.8 0.3 1.6 0.5 2.1 1 1.3 0.4 1.2 0.2 5.6-0.5 1.3-0.3 1-0.5 7.4-9.1 1.1-0.9 2.7-1.7 0.7-0.7 1-1.9 0.9-0.7 0.8 0.3 1.6 1.5 0.9 0.6 5.1 2.1 2.8 0.5 1.9 0.9 0.8 1.1 1.1 0.8 0.7 1 1.1 2.2 1.6 2.4 0.2 1 0 1.9 0.6 3 0.5 1.2 1 1.2 0.9 1.7-0.5 0.2-3.4 1.8-2 0.7-1.8 2.2-1.3 1-1.9 0.3-1.3-0.5-0.6 0.1 0.3 2 3.5 6.4 2.9 3.4 4.4 7.1 0 2.3 0.3 2.2 1.2 1.7 2.6 0.6 2.5 1.3 1.5 3.1 1.2 3.7 1.7 2.9-1.6 0.5-1.1 0.8-1.9 2.3-2.1 3.1-0.6 0.6-5.5 0-4.3-2.5-1.2-0.3-0.6 0.7-0.7 2.7-0.4 1.1-0.9 1-6.7 4.7-1.8 1.7-1.5 2.6 2.3 5.3-0.1 2.2-2.2 1.6 1 1-2.2 0.9-4.4 1.1-1.8 0.7-1.3 1.1-4 4.4-3 2.3-4.8 2.3-2 0.4-0.7 0.6-0.9 1.2-1.2 4-0.7 9-0.3 1.3-1.6 3.1-0.4 1-0.5 1.9-0.5 1-1.4 2.3-1 3.9z" id="COG2626" name="Bouenza" data-id="COG2626" data-name="Bouenza">
 </path>
 <path d="M853.6 593.6l-1.9-0.8-33.2-0.6-2.4-0.4-1.4-0.5-1.4-1.3-0.2-2.6-0.3-0.7-1.4-1.1-1.1-0.7-0.9 0-0.6-0.4-0.6-4.8 0.1-1.5 1.5-2.6-0.2-1.6-1.7-5.7 0.1-0.8 2.6-6 0.5-2.9-1-2.5-2.1-1.9-2.6-1.9-2.5-0.3-1.5 2.8-1.7-3.1 1-3.5 4.4-6.3-2.3-1.9-2.7-0.7-0.9-1 4.7-5.6 0-1.1-2.1-0.5-0.4-0.7 0.2-10.3 0.9-1.9 2.1-0.7 1.5-1.3-0.3-2.9-1.7-5-0.5-2.4-0.3-9-0.5-2.6-2-6.2-0.2-2.5 0.7-1.7 1.3-0.9 1.5-0.6 1.5-0.9 1.1-1.4 0-1.2-0.4-1.2-0.6-3.2-1.4-3.1-0.2-1.2 0.8-1.5 0.9 0 1 0.2 1-0.6 0.6-2.4-0.2-0.5-3.5-6.3-9.3-13.5-2-2-5.6-2.6-44.2-57.3-1.2-2.2-1-2.2-0.7-3.7-0.1-13.2 0.4-1.7 0.6-1 1.7-1.9 1-0.9 1-0.7 3.2-1.5 1.9-1.2 0.8-0.8 0.7-0.9 0.4-1 0.2-1 0-6.9 0.5-2 0.6-1.5 0.7-1 0.3-1.9-0.4-2.5-2.9-11.6-1-1.6-2-2.1-0.7-1-0.9-2.1-2.9-8-0.3-1.7 0.2-2.1 0.2-1.3 0.1-1.2-0.3-1-1.9-1.6-0.5-1 0.3-1.4 0.9-1.8 2.4-2.7 0.5-1 0.3-1 0-1.2-1.7-11.2-1.3-3.3-0.4-1.3 0.3-1.5 1.3-2.3 5.1-14.1 0.2-1.2-0.1-1.8-1-2.6-1.7-6.7-0.2-1.1 0.1-1.2 0.3-2.6-0.4-5.5-0.8-3.1-1-8.2 0.1-2.1 0.4-2.2 0.3-1 0.5-0.9 0.8-0.7 1.8-0.9 0.8-0.5 0.4-0.9 0.1-0.9-0.5-2.7-1.3-1.9-1.3-4.1-0.4-6.3 1.1-8.6-0.4-4.2 0.1-3.2-0.2-1.5-0.7-1.9-6.5-11.5-1.7-2-2.3-1.3-4.7-1.7-1.1 0.1-1 0.3-3.2 1.2-0.9 0.1-1-0.1-0.7-1-0.1-3.6-0.3-1.1-0.6-1.2-4.8-5.4-1.1-0.9-1.5-0.9-0.8-0.7-0.7-1.2-0.4-2.3 0.2-1.4 0.5-1.2 0.2-1.1-0.2-1.3-0.9-1.9-1.7-2.3-5.3-2.6 6.8-14.5 0.6-3.2-1.1-2.4-1.9-2.2-1.7-2.5-0.3-5.9 5.1-9.8 0.9-4.8-1-3-1.4-2.7-1.1-2.8 0.1-3.3 1.6-3 4.5-6.4 0.8-2.8 0-3.3 3.4-8.3 1.1-11.2 2.2-5.9 4-4.9 5.5-3.6 6.2-1.8 3.1-0.2 2.6 0.2 10.9 2.7 2.8-0.2 2.6-1.3 0.3-1.1-0.4-1.4 0.2-1.1 2-0.2 1.2 0.3 2.4 0.9 1.2 0.3 3.7-0.5 1.3 0.1 1.5 0.9 0.9 1.1 1.1 0.6 1.8-0.6 1-0.2 1.8 0.3 0.8-0.1 1.1-0.5 1.5-1.3 0.9-0.6 2.2-1 1.2-0.3 3.6 0.2 1.8-0.3 3.6-1.4 1.8-0.5 5.3 0.2 1.9-0.3 2.2-1 1.2-1.2 1.1-1.4 1.8-1.5 2-0.7 1.7 0.1 3.4 1.2 4.8-0.4 2.8-2.6 2.7-3.3 6.8-3.6 2.1-1.5 2.1-0.9 3.1 0.5 0.5 0.6 0.5 1.7 0.7 0.5 1.8 0.2 0.6 0.4 4.9 4.1 4.9 2.1 5.3 0.8 10.9 0 2.2-0.7 1-0.1 0.9 0.4 1.3 1.5 0.8 0.5 1.2 0 2.6-0.5 1.1 0.1 2 1.2 1.7 1.9 1.3 2.4 0.6 2.7 0.9 2 1.9 0.4 2.5-0.7 5.1-2.5 0.7-0.5 0.7 0.3 4.7 2.9 1.3 0.5 1.6-0.2 4.2-2 4.5-1.2 4.6 0 4.6 1.5 2.3 2.3 1.7 5.3 1.7 1.9 2.9 0.4 2.8-1.3 2.3-2.2 1.5-2.3 0.5-1.3 1-4 0.8-1.9 1-0.3 1.2 0.4 1.4 0 10.6-0.9 0.8 0.1 1.5 0.8 0.9 0 0.5-0.5 0.6-1.8 0.5-0.6 1.6-0.2 2.2 0.2 1.2-0.5 2.4-2.4 1.5-1.8 1.7-0.1 3.3 2.8 2.2 2.5 5.4 8.8 2.1 4.9 1.7 1.6 5.8 0.1 1.1 3.6 1 16.7-1.5 19.2-1.2 3-0.3 1.6-0.9 2.2-2.1 1.8-4.6 2.4-2.8 1.8-1.7 2.4-4.4 13.1-2.1 3.3-0.5 1.4-0.5 2.9-0.6 1.3-2.4 3.5-3.2 6.7-0.4 1.8-0.5 3.6-3.3 9-10.2 17.2-0.4 1.1-1.3 0.5-7.6 7.1-1.8 2.2-1 2.1-1.5 7.8-0.8 2.6-1.2 2.5-1.4 2.5-1.9 4.6-1.3 2-2.3 0.7-0.5 1.3-3.2 3.8-1 1.6-5.2 14 0 1.9 0.8 4.1 0.3 4-0.6 12.7 0.8 6.1-0.1 2.2-0.4 2.2-1.3 4.4-0.3 2.3 1 38.1-0.3 2.7-7.8 17.2-0.8 2.6-0.6 4.9-4.6 14.8-0.5 8.3-1 2.6-5.5 9.3-2.9 3.2-2.6 5-0.8 3.1 1.5 9.2 0 10.5 3.9 16.9 0 3.7-2 10.2 0.1 3.8 0.8 3.2 2.5 6.4 2 1 1.4 2.2 0.8 2.6 0.3 2.2-0.9 12.9-0.7 2.1-11.4 16-10.4 28.5-2.5 4.7-5.4 24.7-0.3 3.4 0.3 3.3 3.3 13.3 1.1 23.5-2.8 3.9-8.5 7.9-0.7 1-0.6 1-0.2 2-0.7 1-1.5 1.1-1.7 2-2.8 2-7.5 9z" id="COG2838" name="Likouala" data-id="COG2838" data-name="Likouala">
 </path>
 <path d="M787.8 441l-93.8 46.7-0.8-0.9-1.2-3-0.7 0-4 0.3-0.8-0.1-0.9-0.9-1-1.7-1-0.8-1.9-0.8-1.1-0.8-1-0.9-0.7-0.4-1.3-0.2-1.5 0.4-2.4 1.2-2.1 0.3-0.7-0.2-2.6-1.2-2-0.5-0.6-0.7 0.3-3 0-1.2-0.5-1.8-0.7-0.8-1.5-0.9-0.6-1-0.2-1 0.2-7.3-0.1-0.7-2.4-4.8-0.8-1.1-1.6-1.1-1.8-1.8-1.2-0.6-5.5-1.7-3.2-0.7-0.9-0.3-1.1-0.7-0.6-1.2-0.2-0.7 0-2.5-0.3-0.7-0.9-0.9-1.2-0.6-2.6-1-1.8-1-1.3-1.4-1.2-0.6-1.8-1.3-4.4-0.7-3.2-0.1-3.3-0.8-1.1 0.1-2 1-1.3 0.4-0.8-0.1-0.6-0.3-1.1-1.9-1-0.5-1-0.1-1.5 0.1-1.2 0.3-1.2 0.6-4 0.4-0.5 0.1-1.1 0.6-1.5 0.6-1.1 0.1-1.5 0.6-1 0.9-0.7 0.2-2.1 0.4-0.8 0.3-0.5 0.5-0.5 1.2-0.6 2.1-0.6 1.2-0.4 0.5-2.1 1.5-1.8 2.2-0.9 0.4-0.8 0.2-1.4-0.4-1.1-0.8-0.9-0.4-1.4-0.4-1.4 0.2-1.4 0-1-0.7-1.2-0.5-1.7-0.4-2.4-0.5-1.9-0.6-1.7-0.3-1.7 0.4-1.9 1-1.8 0.1-2.4-0.3-4.1-1.1-1.7 0.6-0.8-0.7 0.2-2.2-0.3-0.7-0.8-0.3-1.4 1.1-0.3-0.3-0.4-2.3-0.3-0.6-1.2-0.8-4.3-1.2-1.1 0.1-1-0.9 0.1-1.4-1.3-0.8-2.1-0.7-0.7-0.5-0.3-0.6-0.3-1.3-1.4-1-0.6-0.3-6.9-2.4-1.4-1.1-0.4-1.4-0.5-3.2 0-1.6 0.1-1.4 0.3-1.1 1.8-2.7 0.1-0.6-0.1-1.5-1.7-5.5-0.4-2.3-0.1-9.7 1.2-6.9 0-1.2-0.3-1.2-1.8-2.7-0.7-2-0.4-2.3 0-0.7 0.4-0.8 1.4-1 0.7-1.2 1.2-0.7 0.7-0.6 0.9-1.5 1.1-0.7 1.4-0.4 1.5-0.2 1.2-0.6 0.6-1.2 0.1-1-0.3-1.2-1.7-3.7-0.8-0.6-1.1-0.7-3.8-1.5-1.3-1-1.6-2-0.9-0.3-1-0.1-4.2 0.2-3.5-0.2-3.4-0.6-3.5-1.2-5.1-3.4-7.4-3.7-1.4-0.9-1.2-1.1-1.5-2.7-1-1.2-2.9-2.1-1.7-0.7-1.3-0.3-1-0.1-2.1 0.3-7.2-1-14.4-4.3-2.8-1.3-3.9-2.8-0.6-0.8-0.4-1-1.1-8.4-0.7-2.1-0.2-1.1-0.1-2.2-0.3-1.1-0.7-1.3-0.7-0.4-0.7-0.2-6.4 1.2-1.5-0.1-2.4-0.5-1.5 0.3-1.2 0.4-2.4 0.4-1.6 0.2-5.9-0.5-1.6 0.1-5.1 1.2-2.5 0.3-2.1 0.7-2.2 1.1-0.2-0.7-1.5-0.3-1-0.8-0.9-0.8-1.1-0.8-5.3-1.5-2.6-0.2-2.4 0.6-4.7 1.8-2.9-0.1-2-1.5-2-2-2.4-1.4-2.3-0.5-25-2.3-1.9 0.4-0.1 0.6-1.3 3.5-1.6 3.1-1.8 0.9-2-0.9-0.7-0.1-0.9 0.3-1.6 1.2-0.8 0.5-2.4 0.4-2.5 0-2.6 0.3-1.9 1.2-1.7 1.4-4.8 1.9-3 4.1-1.7 1.2-4.5 0.8-4 0-4.1-0.8-4.6-1.6-2-0.2-2.9 0.3-2.6 0.8-1.1 0.9-0.8 2.4-2.3 0.6-2.4 0.3-2.4 3.1-2.5 1-2.7 0.6-4.6-0.4-2.7 0.5-1.4-0.2-0.4-1.9-1.2-0.8-1.6-0.7-1.4-1.1 2.5-0.3 1-1.6 0.5-1.9 1.1-0.9 1.8-0.2 2.3-0.8 1.9-1.3 1.2-2.6 0.8-0.5 0.3-0.7-1.1-1.6-0.4-0.9 0-2.1-0.2-6.3 0.2-1.1-2.2-1.3-2.3-6.4-2.8-1.4 0.8-1.9-0.1-1.8-1-1.6-1.5-1.1-0.9 0.9-2.4-3.4-2.2-3.8 2.3-2.6 0.4-3.2-0.8-6.1 0.5-2.8 0.9-2.5 0.4-2.3-1-2.3 1.7-0.9 1.4-1.8 1-2 1.3-4.9 0.2-2.1-0.5-1.6-0.7-1-1.1-2.3-1.7-2.4 0.6-0.6 1.5-0.5 0.9-2 0.9-1.6 0.9-1 0.9-0.9 0.7-0.9 0.3-1.3-0.8-2.5 0-1.1 1.3-0.5 0.7-0.5 2.4-2.6 0.8-0.7 4.7-2.6 1.3-3.1 0.5-4.3 0-8 43.1 0.4 27 0.2 44.8 0.4 14 0.2 1.2-0.2 5.8-2.3 8.4 1.2 2.1 1.2 2.6 2.3 1.9 0.5 0.7-0.3 2.8-1.6 10.4-2.3 1.2-0.4 0.4-1.1-0.3-1.3 0-1.2 1.2-1.2 0.7-0.8 3.4 0.9 4.4 4.9 3.2 1.4-1.2 2.1 1.3 0.7 3.5-0.1 1.8 1.1 2.6 2.7 2 0.8-0.9-3.3 0.9-0.4 3.6 1.9-1.9 1.5-0.8 0.3 1.3 0.4 1.4-0.1 1.1-0.3 0.7 0 0.2 0.9-0.2 3 0.5 0.6 8.1-0.9 2-0.5 0.9-1.2 0.3-1.6 0-1.7 0.9-0.8 1.9 1.9 1.7 2.6 0.5 1.3 2.6 1.8-1.5 3.7-0.5 3.3 5.2 0.4 2.9-0.4 1.2-0.6 1.1-3.2 1.3 0.2 6.3 5 2 0.6 2.6-0.8 1.6 2.3 2.2-0.6 2.1-2.2 1.4-2.2 0.8 0 1.9 0.8 1.8-3.9 4.2 1.5 1.8-0.7 2-0.7 2.8 1.1 0.7 0.8 0.7 2.1 0.5 0.9 0.8 0.4 4.5 1.6 1 0.9 0.8 1 0.2 1-0.1 1.7-0.3 0.7 0.2 0.6 1.1 1.1 0.6 0.1 3.1 1.4 0 0.3 1.5-0.2 2.5-1.3 2.7-0.9 6.8-4 5.8-0.8 5.8 1.1 11.2 3.3 12.6 1.4 0.6 0.6 1.4 0.8 1.7 0.7 3.1 0.5 0.9 0.5 5.1 6.5 1.6 0.9 3.6 1.2 3.1 2.1 1.3 0.6 0.9 0.9 0.4 2 0.6 1.1 1.6 0 1.8-0.7 1.4-0.8 0.4 2.1 2 1 2.5 0.6 2.3 0.9 1.4-0.8 1.6 0 1.4 0.7 1.1 1 0.6 1.5-0.2 1.3-0.4 1.2 0 1.4 1.1 2.3 5.3 6.8 5.9-8.6 1.2-0.3 2.8 0.9 1.5-0.6 0.4-2.1-3.2-14.7-4.5-11.6-2.3-4-1.2-1-0.8-0.4-0.5-0.7-0.1-4.9 0.3-1.3 2-2.8 0-1.2-0.4-1-0.4-2.2 0.2-0.8 0.4-0.6 1.4-0.3 0.3-1.9-0.4-1.2-0.5-1.2-0.3-1.7 0.3-1.5 1.6-3 0.8-2.9 2.2-1.3 2.7 0.5 2.4 2.3 5.4-4 1-1.4-0.7-1.2-0.7-0.6 12.8-27.3 4.3-9.1 13.5-28.7 5.3 2.6 1.7 2.3 0.9 1.9 0.2 1.3-0.2 1.1-0.5 1.2-0.2 1.4 0.4 2.3 0.7 1.2 0.8 0.7 1.5 0.9 1.1 0.9 4.8 5.4 0.6 1.2 0.3 1.1 0.1 3.6 0.7 1 1 0.1 0.9-0.1 3.2-1.2 1-0.3 1.1-0.1 4.7 1.7 2.3 1.3 1.7 2 6.5 11.5 0.7 1.9 0.2 1.5-0.1 3.2 0.4 4.2-1.1 8.6 0.4 6.3 1.3 4.1 1.3 1.9 0.5 2.7-0.1 0.9-0.4 0.9-0.8 0.5-1.8 0.9-0.8 0.7-0.5 0.9-0.3 1-0.4 2.2-0.1 2.1 1 8.2 0.8 3.1 0.4 5.5-0.3 2.6-0.1 1.2 0.2 1.1 1.7 6.7 1 2.6 0.1 1.8-0.2 1.2-5.1 14.1-1.3 2.3-0.3 1.5 0.4 1.3 1.3 3.3 1.7 11.2 0 1.2-0.3 1-0.5 1-2.4 2.7-0.9 1.8-0.3 1.4 0.5 1 1.9 1.6 0.3 1-0.1 1.2-0.2 1.3-0.2 2.1 0.3 1.7 2.9 8 0.9 2.1 0.7 1 2 2.1 1 1.6 2.9 11.6 0.4 2.5-0.3 1.9-0.7 1-0.6 1.5-0.5 2 0 6.9-0.2 1-0.4 1-0.7 0.9-0.8 0.8-1.9 1.2-3.2 1.5-1 0.7-1 0.9-1.7 1.9-0.6 1-0.4 1.7 0.1 13.2 0.7 3.7 1 2.2 1.2 2.2 44.2 57.3z" id="COG2880" name="Sangha" data-id="COG2880" data-name="Sangha">
 </path>
 <path d="M673.1 883.5l0.6 4.8-0.5 6.6 0.7 7.5-0.6 7.1 0.6 2.2 1.2 2.5 0.1 3.1-0.9 5.8 0.7 2.8 1.6 1.5 1.6 1.1 0.7 1.4-0.3 3.1-0.6 2.5-1.8 4-6.5 11.3-2.7 7.1-3 5.8-8.2 10.1-5.4 10.9-1 3-1.9 1.9-2.2 6.3-2.2 3.8-2.7-3.3-2.1-2.6-2.2-3.2-0.5-4.8-2.1-5.8-3.2-6.3-4.2-6.9-3.5-4.4-7.3-2.7-4.8-2.1-4.7 1.1-3.7 3.7-2.7 4.7-3.1 6.9-3.2 3.2-3.5-0.9-4.2-4.2-4.8-5.8-3.7-3.7-3.2-3.7-5.8-2.1-7.4-2.2-4.2-3.1-3.7-0.6-2.6 4.8-1.1 8.5-0.5 9-1.1 8.4-2.6 8-5 5.3-7.4 4.2-3.7 6.9 0 6.9 2.6 8.4 0.6 6.9-2.1 10.1-4.3 6.9-3.1 7.9-2.7 6.4-5.8 7.4-3.5 5.8 4.8 4.8 3.7 4.2 3.1 6.4 4.3 5.4-7 3.6-1.1 1.4-0.9 1.8-10.2 10.1-10.9 18.2-1 2.2-1.3 2-2.1 1.7-6.3 2.7-8.7 5.5-3.9 1.4-5.1 0.5-1.5-0.6-4.1-2.5-1.7-0.6-0.6-0.3-1.1-1.8-0.6-0.6-1.1-0.1-2.8 0.1-0.6-0.5-1.1-1.4-2.4-0.1-2.6 0.7-1.6 0.8-2.7 2.9-1.7 0.8-4.8 0.8-0.6-4 2.2-10.4-0.5-1.3-0.7-1.2-0.5-1.3-0.1-1.6 0.3-1.2 1-2.3 0.3-1.3-0.6-3.3-1.4-2.2-2-1.8-2-2.5-1.1-5.1-1-3 0.1-1 1.1-1.9 2.1-2 5-2 1.6-1.7 1.4-2 2.3-2.5 1.8-2.7 0.5-2.5-0.9-0.9-4.6-2.9-2.6-3.1-2.2-3.3-0.8-1.9-0.1-0.7 0.5-0.7 0.5-1.9 0.3-1.7 0-1.4-0.3-1.1-0.8-0.6-2.5 0.2-5.7 3.1-6 1.4-2.7 1.9-5 4.4-4.9 2.3-5.1 1.7-11.7 1.4-4.9 2-4.5 5.9-2.1 1.6-2.2 2.6-1.4 0.9-1.3 0-3.9-1.1 1-3.9 1.4-2.3 0.5-1 0.5-1.9 0.4-1 1.6-3.1 0.3-1.3 0.7-9 1.2-4 0.9-1.2 0.7-0.6 2-0.4 4.8-2.3 3-2.3 4-4.4 1.3-1.1 1.8-0.7 4.4-1.1 2.2-0.9-1-1 2.2-1.6 0.1-2.2-2.3-5.3 1.5-2.6 1.8-1.7 6.7-4.7 0.9-1 0.4-1.1 0.7-2.7 0.6-0.7 1.2 0.3 4.3 2.5 5.5 0 0.6-0.6 2.1-3.1 1.9-2.3 1.1-0.8 1.6-0.5-1.7-2.9-1.2-3.7-1.5-3.1-2.5-1.3-2.6-0.6-1.2-1.7-0.3-2.2 0-2.3-4.4-7.1-2.9-3.4-3.5-6.4-0.3-2 0.6-0.1 1.3 0.5 1.9-0.3 1.3-1 1.8-2.2 2-0.7 3.4-1.8 0.5-0.2-0.9-1.7-1-1.2-0.5-1.2-0.6-3 0-1.9-0.2-1-1.6-2.4-1.1-2.2-0.7-1-1.1-0.8-0.8-1.1-1.9-0.9-2.8-0.5-5.1-2.1-0.9-0.6-1.6-1.5-0.8-0.3-0.9 0.7-1 1.9-0.7 0.7-2.7 1.7-1.1 0.9-7.4 9.1-1 0.5-1.3 0.3-5.6 0.5-1.2-0.2-1.3-0.4-2.1-1-1.6-0.5-3.8-0.3-1.2-0.3-4.7-2.6 1.5-1 0.6-1 0.1-1.1-0.1-1.5 0.2-0.7 1.5-1.3 0.8-1 1.6-2.9 0.6-1.5 1-2 0.2-0.8 0-1.6 0.5-0.6 2.8-2.7 2.1-1.4 1.2-0.6 4.9-5.5 0.5-0.9 0.9-1.6 1.1-1.5 2.2-1.3 0.2-0.4 1-2.4 0.4-0.6 1.8-1.2 1.7-0.8 0.5-0.5 0.1-0.8-0.2-0.6 0.2-0.9 0.8-0.5 1.3-1.5 1.1-2.9 0.5-0.6 1.3-0.8 0.4-0.5 0.1-3.2 0.4-1.3 2-4.5 2.2-8 0.9-1.9 2.5-2 9.7-5.7 3.2 4.4 2.7 1.1 4.1-0.3 1.8 0.4 2.9 1.7 1 0.3 0.9 0 1.5-0.3 4.5-0.2 1.4 0.6 1.9 1.8 1.6 1.1 3.6 2 2 0.6 1.3 0 0.5-0.5 1.5-2.6 2.1-2 0.8-1 1.9-3.6 0.8-0.8 2.4-1.4 3.1-3.1 1.1-0.9 2.1-1.4 0.7-0.7 0.6-1.7 0.9-1.2 3.6-2.5 3.8-3.6 1-1.5 1.7-1.3 4.6-2.6 1.1-1 1.4-1 0.8-1.4 0.5-2.2-0.1-2.4 0.2-0.8 0.5-0.7 0.9-0.7 3.1-1.8 1.2-0.9 4-2.4 1.5-0.5 1.1 0 0.9 1 0.9 1.7 0.8 1.1 0.4 1.3-0.2 2.3 0.2 0.6 1.3 1.3 0.7 1.1 0.3 1.6 0 3.4 0.9 4.4 0.1 1-0.3 1.2 0.1 1.5 0.7 0.5 1.3 0.4 2.7 0.2 2.3-0.1 2.7-0.8 2.9-1.2 1-0.1 8.4 0.8 1.2 0.3 0.6 0.4 1 1.6 1.5 1.3 0.6 1.2 0.6 4 0.7 2 0.4 0.6 1 0.8 2.9 0.6 1.3 0.7 0.7 1.2 0.5 0.2 1.7 0.5 0.9 0.6 2.6 0.9 5.2 0.9 1.3 0 2.4-0.6 2.6-0.3 2.6 0 4.8 1.4 2.2 0.1 9.5-3.2 1.7-0.8 3.3-2.2 1.8-1.1 1.9-1.8 2.1-1.5 1.4-1.5 0.9-0.7 1.8-1 1.3-0.6 2.9-0.7 1.2-0.5 1-0.9 1.3-0.5 1.7-0.3 0.9-0.4 0.6-0.5 0.8-2 0.8-1 1.2-0.7 1.5-1.2 2-1 1.2-0.5 8.6-1.8 0.9 0.2 1.3 0.8 0.5-0.2 0.9-1.2 0.9-0.6 1.3 0.7 2.1 0.7 1.6 0.8 1.6 0.3 3.7 1.5 1.5 1 1.5 1.2 1.3 0.6 0.7 0.2 1.2 0.7 1.3 1.4 0.7 1.1 0.6 2.1 0.5 0.4 1.2 0.6 1.1 0.8 1.1 1.1 1 0.5 2.2 0.4 1.7 0.1 1.9-1.2 1.3-0.4 2.4-0.6 2.7-0.1 3.3 0.3 3 0.6 5.3 0.6z" id="COG3341" name="Pool" data-id="COG3341" data-name="Pool">
 </path>
 <path d="M787.8 441l5.6 2.6 2 2 9.3 13.5 3.5 6.3 0.2 0.5-0.6 2.4-1 0.6-1-0.2-0.9 0-0.8 1.5 0.2 1.2 1.4 3.1 0.6 3.2 0.4 1.2 0 1.2-1.1 1.4-1.5 0.9-1.5 0.6-1.3 0.9-0.7 1.7 0.2 2.5 2 6.2 0.5 2.6 0.3 9 0.5 2.4 1.7 5 0.3 2.9-1.5 1.3-2.1 0.7-0.9 1.9-0.2 10.3 0.4 0.7 2.1 0.5 0 1.1-4.7 5.6 0.9 1 2.7 0.7 2.3 1.9-4.4 6.3-1 3.5 1.7 3.1 1.5-2.8 2.5 0.3 2.6 1.9 2.1 1.9 1 2.5-0.5 2.9-2.6 6-0.1 0.8 1.7 5.7 0.2 1.6-1.5 2.6-0.1 1.5 0.6 4.8 0.6 0.4 0.9 0 1.1 0.7 1.4 1.1 0.3 0.7 0.2 2.6 1.4 1.3 1.4 0.5 2.4 0.4 33.2 0.6 1.9 0.8-17.8 21.5-3.4 3.2-2.7 3.3-1.1 0.8-3.5 1.7-0.4 0.7-2.6 3.1-1.4 0.8-6.9 2-6.7 0.9-2.6 0.7-8.8 3.7-6.4 1.8-4.2 0.7-0.8 0.3-1.4 1-0.8 0.3-0.4 0.8-3.1 3.6-5.2 4.6-4.2 4.8-6.1 5-3.1 1.9-0.8 0.8-0.6 1-1.5 3.7-3 5.5-2.1 4.9-2.2 3.1-4.9 9.8-4.4 5.7-3 6.2-1.8 2.8-4.3 0-3.1 0.3-0.4-1.2 0.6-2 0.2-1.9-0.7-1.4-0.6 0-3.9-1.6-2.7-0.6-2.7 0.2-2.4 1.5-2.1 0.7-3.5 0-2.9-0.4-0.3-1-0.5-0.7-2.3-0.8-1.8-1.2 0.8-2.1-5.6-0.3-3.3-3-4.2-11.7-2.9-3.8-2-4.4-0.6-1-1.1-1-0.8-0.5-5.1-0.6-1-0.6-0.7-0.8-14.7-9.2-4.1-2.1-4.3-1.5-8.5-0.9-2.4-1.2-0.1-3-0.4-1.3-1.5 0.8-1 0-1.1-1.3-1.8-2.9-1.1-0.4-6.1-1.8-0.7-0.7-0.4-1-0.9-0.8-2.9-1.3-6.1-1.3-2.5-1-2-2.5-0.5-3.1-0.1-3.1-0.7-2.7-1.7-1.6-2.3-0.6-5.2-0.5-7.1-1.8-2.6 0.1-2.1 0.7-3.9 2-2.1 0.7-0.7 0-1.4-0.8-0.6-0.1-0.9 0.3-1.7 1-4.7 1.5-2.2 1.7-3.7 5.8-1.9 2.2-2.2 1.8-0.6 0.2-1.4-0.4-0.5 0.1-1.1 1.1-1.6 2.5-1 1.1-2.9 1.9-6.6 2.9-2.8 2.3-8.6 11.5-2.8 5.7-6.8 21.5-9.1 11.8-5 4.7-2.1 1.2-3.6 1.5-1.7 0.4-5.1-0.4-2.2 0.4-6.5 2.8-1.8 1.2-6.4 5.3-1.8 2-1 1.7-0.5 3.1-0.3 0.9-1.8 3-0.9 1.2-3.7 3.6-1.2 1.5-1.5 2.5-2.7 2.9-0.6 1-1.5 4-0.5 1-5.2 7.2-3 2.8-2 1.4-2.2 1-1.5 0.4-1 0.6-0.7 0.9-1 2.2-0.9 1.1-0.9 0.7-1 0.4-5 1-2.1 0.2-2.1-0.3-2-0.5-1.1-0.7-0.9-1.7-0.8-2.6-0.5-7.2-0.4-0.8 3.8-2 1-1.9-1-5.8 0.1-1.1 0.8-3.4 0.4-10.6 0.8-2.8 1.6-1.8 3.2-1.9-1-0.9-2.8-0.5-2.3-0.7-1.6-5.3-2.6-1.5-0.9-1 1.2-1 2.7-1 1.3-0.6 1.3-0.9 0.8-1.4 0.6-1.5 0.8-1.1 4.4-0.9-0.1-2-1.5-2.4-1.7-1.7 1.7-3.8 0.2-3.2 0.5-1.3 1.5-1.4 1.7-1.1 0.9-1.6-0.7-2.7-4.7-3.1-1.9-2-0.8-2.6 0.4-1.4 0.9-1 1.1-0.8 0.9-1.1 0.8-1.4 0.5-1.3 0.5-3 0.1-4.1-0.2-1.2-1-1.7-2.3-2.2 17.2-3 9.4-2.7 3.2-3 3.2-1.5 5.5 1.3 24.9-1 9.9-2.3 7.3-6.2 13.1-14.8 2.4-5.8 2.8-4.6-2.4-4.3-20.9-18.2 5.7-7.3 7.5-7.6 2.6-4.3 2-4.6 0.9-4.6-6.2-23.7-1.9-4.6-4.5-1.3-9.8-1.3-4.1-2-1.6-4.3-1.2-5.1-3.6-7.6-0.9-3 0.2-2.2 0-2.1-1.2-5.1 1.3-4.9 4.3-0.5 4.7 0.4 5.1-0.8 2.5 0.4 2.5 0 10.2-1.9 9.8-3.2 6.6-7.1-2-9-8.6-6.3-3.8-7.6 4.6-2.7 5-2.3 4-2.2 3.3-2.9 3.2-4.5 0.3 0.7-0.2 2.2 0.8 0.7 1.7-0.6 4.1 1.1 2.4 0.3 1.8-0.1 1.9-1 1.7-0.4 1.7 0.3 1.9 0.6 2.4 0.5 1.7 0.4 1.2 0.5 1 0.7 1.4 0 1.4-0.2 1.4 0.4 0.9 0.4 1.1 0.8 1.4 0.4 0.8-0.2 0.9-0.4 1.8-2.2 2.1-1.5 0.4-0.5 0.6-1.2 0.6-2.1 0.5-1.2 0.5-0.5 0.8-0.3 2.1-0.4 0.7-0.2 1-0.9 1.5-0.6 1.1-0.1 1.5-0.6 1.1-0.6 0.5-0.1 4-0.4 1.2-0.6 1.2-0.3 1.5-0.1 1 0.1 1 0.5 1.1 1.9 0.6 0.3 0.8 0.1 1.3-0.4 2-1 1.1-0.1 3.3 0.8 3.2 0.1 4.4 0.7 1.8 1.3 1.2 0.6 1.3 1.4 1.8 1 2.6 1 1.2 0.6 0.9 0.9 0.3 0.7 0 2.5 0.2 0.7 0.6 1.2 1.1 0.7 0.9 0.3 3.2 0.7 5.5 1.7 1.2 0.6 1.8 1.8 1.6 1.1 0.8 1.1 2.4 4.8 0.1 0.7-0.2 7.3 0.2 1 0.6 1 1.5 0.9 0.7 0.8 0.5 1.8 0 1.2-0.3 3 0.6 0.7 2 0.5 2.6 1.2 0.7 0.2 2.1-0.3 2.4-1.2 1.5-0.4 1.3 0.2 0.7 0.4 1 0.9 1.1 0.8 1.9 0.8 1 0.8 1 1.7 0.9 0.9 0.8 0.1 4-0.3 0.7 0 1.2 3 0.8 0.9 93.8-46.7z" id="COG3342" name="Cuvette" data-id="COG3342" data-name="Cuvette">
 </path>
 <path d="M97.3 985.8l2.7 4.1 2.1 1.4 2.9 0.4 3.9 1.9 17.8 13 4.6 1.9 1.2 0.4 4.4 0.3 3.9 1.3 2.4 1.6 2.1 0.9 0.7 0.7 0.2 0.5 0 1.7 0.4 1.4 0.8 0.4 2.8 0.5 4 1.3 3.4 0.6 3.2 1.1 2.5 0.3 1.8 0.3 2.9 1.1 1.4 0.7 0.9 0.9-0.2 1.3 0 0.9 0.4 0.8 0.8 0.6 4.5 1 1.4 0.8 1.2 1.1 11.1 12.6 1.3 2.3 0.8 1.2 0.3 1 0.1 0.8-1.2 6.4 0 2 0.3 1.1 1 2.2 4.7 6.2 1.2 1 1.1 0.5 2 0.3 8.5-0.4 1.2 0.1 1.3 0.4 2 0.9 1.4 0.8 2.5 2 3.7 3.6 0.5 1.5-1-0.5-1.8-0.6-3.1 1.8-1.5 3-1.1 3.2-1.8 2.2-2.4 1.3-2.2 1.8-1.8 2.1-2.9 5.4-1.5 1.5-2 0.8-14.7 2.7-9.1 2.9-2 0.2-3.5-0.4-1.3 1.8 0.2 5.7-0.7 2.8-5.5 11-1.4 1.6-1.9 0.8-4.5 0.4-2 0.5-1.9 0.8-1.2 1-1.6-3.1-1.2-1.5-1.3-0.8-1.6 0-0.6 0.6-4 13.6-3.5 5.7-15 12.7-1.1 1.5-2-1.8-1.8-2.2-3-5-5-6.1-3.3-3.1-1.2-3.7 1.5 0 0.1-15.1-7.5 0-2.4-3.1-5.6-5.1-0.6-1.6 0.1-1.4 3.1 0 2.5-2.7 0.6-3-2.4-5-15-15.1-13.8-11.8-12.1-10.8-6.3-3.9-6.5-5.7-2.5-4.1-0.6-0.8-1.8-2.9-0.3-1.3 0.1-2.9-0.1-1.5-0.5-1.1-11.7-9.3-13-8.6-4.4-3.2-3.3-2.2 2.1-3.8 8.8-23.8 2.2-4.2 3.4-3 4.5-2.9 4-3.3 4.3-2.6 5.4-1.1 5.1-1.7 2.9-3.8 2.5-4.1 3.7-2.5 6.6 0.9 4.9 3.8 10.5 17.1 2.3 2.4 2.8 1 7.3-1 2.6 0.3 7.7 2.2 2.4 0.1 0.3-0.1z" id="COG3343" name="Kouilou" data-id="COG3343" data-name="Kouilou">
 </path>
 <path d="M396.9 822.1l1.4 2 1.3 3.6 3.8 3.6 0.6 1.6-0.4 0.6-1.1 0.6-1.8 0.4-0.7 0.8 0.3 0.9 0.7 0.9 2 1.4 1 0.4 0.8 0.1 1.3-1.1 1-0.1 1.3 0.9 0.3 1-0.4 1-0.9 0.8-1.9 1.2-1.7 1.6-1.8 1.3-0.5 0.9 0.2 0.9 0.6 0.9 0.8 0.7 1 0.3 2.1 0 1.2 0.1 1 0.5 1.4 0.8 1.1 0.3 1.1-0.1 2.3-1.3 1.1-0.2 1.1 0.1 2.3 1.3 1.3 0 1.2-0.2 1.7 0.4 0.5 0.8 0.1 1-0.4 1.1-1.8 3.2-0.4 1.2-0.1 1.2 0.5 0.6 0.7-0.3 1.1-1.3 0.6 0 0.3 0.7 0.2 2.1 4.3 11.8 0.4 1.9-0.2 1.2-0.8 0.9-0.9 0.7-1.9 1-0.8 0.6-0.7 0.8-0.4 0.8-0.5 2.2-0.9 1-1.5 1.2-0.9 0.8-1.3 2.7-9.7 5.7-2.5 2-0.9 1.9-2.2 8-2 4.5-0.4 1.3-0.1 3.2-0.4 0.5-1.3 0.8-0.5 0.6-1.1 2.9-1.3 1.5-0.8 0.5-0.2 0.9 0.2 0.6-0.1 0.8-0.5 0.5-1.7 0.8-1.8 1.2-0.4 0.6-1 2.4-0.2 0.4-2.2 1.3-1.1 1.5-0.9 1.6-0.5 0.9-4.9 5.5-1.2 0.6-2.1 1.4-2.8 2.7-0.5 0.6 0 1.6-0.2 0.8-1 2-0.6 1.5-1.6 2.9-0.8 1-1.5 1.3-0.2 0.7 0.1 1.5-0.1 1.1-0.6 1-1.5 1-5.1 6.7-2.3 1.8-0.9 0.1-1.3 0.5-1.1 1.2-0.5 1.2 0 0.7 0.2 1.5-0.1 1.1-0.6 1.6-0.9 1.3-1.6 0.5-1.1 0.6-1.8 1.3-0.9 1-0.7 1-0.2 0.8 0.1 1.8-0.2 1.1-0.6 0.4-1.3-0.1-2 0.1-2-0.6-1.9 0-1.2 0.4-0.2 0.5 0 1.4-0.6 0.5-2.2 1.4-0.9 0.4-0.8 0-1.3-0.5-1.9-0.2-1.7 0.4-1.1 0.6-0.1 0.6 0.2 2.2 0.2 0.6 0.6 0.3 1.9 0.2 0.2 0.3-0.5 1.6 0.1 0.6 0.5 0.3 1.1 0.5-0.3 1.3-1.1 1.7-1.1 1.3-1.2 1.1-0.5 1 0 2-0.2 1.2-0.9 1.6-3.5 3.6-1.1 1.4-0.6 1.1-0.1 1 0.1 2.1-0.1 1-1 5-0.7 1-1.2 1.2-1.7 0.8-1.9 0.6-2.3 0.5-1.5 0.1-4.2-0.9-2.1-0.2-1-0.2-0.9-0.5-0.8-0.7-0.6-1-2.2-6.4-0.1-1 0.2-1 0.6-2.1-0.4-0.9-1.2-1.7-0.9-0.2-0.8 0.6-0.9-0.1-2.5-0.5-3.3 0.5-1.2 0-1-0.5-2.9-1.9-1.6-0.1-2 0.2-5.9 2-1.6 0.3-3.2-1.1-2.1-0.3-6.9 0.7-2.4 0.4-1.5 0.1-1.2-0.1-1-0.6-1.6-2.4-1.9-0.8-0.7-0.5-0.9-1.8-0.9-0.9-3.1-0.9-1.6-1.1-1.6-0.5-4.1-3.2-1.3-2.8 0-5-1.4-0.7-0.6-0.7 1.2-1.6 0.8-2.6-1.6-0.4-1.1-1.3-2-6-0.6-1-1.1-1.2-0.3-0.7-0.2-1.4-0.3-0.8-0.5-0.2-1.8-0.2-0.5-0.4-0.3-1.9 0-1.7-0.4-1.2-2-0.7 1.8-0.9-1.5-2.5-2.2-0.6-5.3 0.3-2.9-1.3 0.8-3.4-3-0.7-1.2 0.3-2.6 1.2-1.6 0.3-0.5-0.6 0-4.4-0.6-0.5-1.2 0-1.2-0.1-0.6-1.2-0.1-1.4-0.4-1-0.9-0.6-1.4-0.1 0-0.9 0.9-1.7-1.6-1.6 0.2-1.4 0.9-0.8 1.2-0.4 2.5 0 1.2-0.4 0.6-0.8 1-2.2 1.2-5.7 1.2-1.8 0.8-0.6 1.8-0.7 2-1.4 1.5-0.6 0.8-0.1 1.7 0 4 0.6 1.6-0.1 3-1.3 1.8-0.3 1.6 0 0.6 0.2 1.7 1.1 0.6 0.2 1-0.2 1.1-0.5 1.9-1.2 1-0.4 0.8 0.1 0.9 0.9 0.6 0.3 1-0.1 0.6-1.2-0.1-3.6 0.2-1 0.4-0.2 0.8 0.1 1.9 0.5 1 0 1-0.2 3-1.2 1.8-0.3 2.1-1 1.3-1.6 1.3-1 3.6-1.9 4.6-4.7 1.1-1.8 0.5-1.4-0.3-7.9 1.3-6 1.7-4.5 0.2-1.7-0.4-1.1-1.6-2-6.1-4.9-0.9-0.4-2-0.1-2.9-0.8-0.8-0.5-0.5-0.8-0.4-0.9-0.5-2-1.3-2.4 0-1.2 1.1-1 1.8-0.7 1-0.6 1.8-1.6 0.9-0.5 2.2-0.2 1.1-0.5 0.4-0.8-0.2-1-2.8-6.2-0.5-2.2-1.6-18.8 0.6-22.7 1.2-6.1 0-1.2-0.5-0.9-0.8-0.5-0.9 0-1.9 0.9-0.9 0.2-0.8-0.2-1.8-1.8 2.4-2.4 1.7-0.5 3.3 0.6 8.6 3.9 2.7 0.7 1.5-0.3 2.5-1.5 1.6-0.2 1.3 0.3 23.1 8.6 2.3 0.2 2.6-0.6 2.9 0.5 0.6 0 1.9-0.6 0.9 0.2 1.1 1.7 0.6 0.2 1.4-0.8 0.6-1.1 0.4-1.2 0.7-1.3 1.4-1.3 4.3-3 1.1-1.1 1.9-2.4 1.3-1.2 1.6-0.8 3.2-1 1.3-0.9 0.6-1.2 0.4-2.8 0.9-1.4 10.1-9.7 1-1.5 0.5-1.4 0.2-2.6 0.4-1.5 1.4-2.6 2.7-4.2 0.3-0.7 1.9 1.2 1.8 1.7 1.6 2.5 1.1 2.8 1.2 5.5 3.1 6.2 1.6 2.4 2.4 2.5 0.9 1.3 0.4 3.7 1.1 1 1.4 0.7 1.3 0.9 1.8 2.5-0.5 0.9-1.6 0.9-1.9 4-2.7 1.4-1 1.2-0.1 5.1-0.2 0.7 2.2 1.9 3 1 3.3 0.1 2.8-0.5 2.2-1.4 1.3-0.6 1.3 0 1.2 0.9 0.4 2.4 0.9 0.8 1 0 6.1-1.9 0.8-0.1 1.4 0.1 2 1.2 1.3 0.5 1.2-0.2 0.8-1 0.6-1.7z" id="COG3344" name="Lékoumou" data-id="COG3344" data-name="Lékoumou">
 </path>
 <path d="M250.2 806.4l1.8 1.8 0.8 0.2 0.9-0.2 1.9-0.9 0.9 0 0.8 0.5 0.5 0.9 0 1.2-1.2 6.1-0.6 22.7 1.6 18.8 0.5 2.2 2.8 6.2 0.2 1-0.4 0.8-1.1 0.5-2.2 0.2-0.9 0.5-1.8 1.6-1 0.6-1.8 0.7-1.1 1 0 1.2 1.3 2.4 0.5 2 0.4 0.9 0.5 0.8 0.8 0.5 2.9 0.8 2 0.1 0.9 0.4 6.1 4.9 1.6 2 0.4 1.1-0.2 1.7-1.7 4.5-1.3 6 0.3 7.9-0.5 1.4-1.1 1.8-4.6 4.7-3.6 1.9-1.3 1-1.3 1.6-2.1 1-1.8 0.3-3 1.2-1 0.2-1 0-1.9-0.5-0.8-0.1-0.4 0.2-0.2 1 0.1 3.6-0.6 1.2-1 0.1-0.6-0.3-0.9-0.9-0.8-0.1-1 0.4-1.9 1.2-1.1 0.5-1 0.2-0.6-0.2-1.7-1.1-0.6-0.2-1.6 0-1.8 0.3-3 1.3-1.6 0.1-4-0.6-1.7 0-0.8 0.1-1.5 0.6-2 1.4-1.8 0.7-0.8 0.6-1.2 1.8-1.2 5.7-1 2.2-0.6 0.8-1.2 0.4-2.5 0-1.2 0.4-0.9 0.8-0.2 1.4 1.6 1.6-0.9 1.7 0 0.9 1.4 0.1 0.9 0.6 0.4 1 0.1 1.4 0.6 1.2 1.2 0.1 1.2 0 0.6 0.5 0 4.4-3.4 2.9-1.1 1.6-0.6 1.9-0.2 1.5 0.1 2.3 1.4 6.7 1.5 3.6-0.1 1.1-1.1 2.2 0.1 2.2 0.2 1 1.6 3.6-0.4 1-0.7 0.5-0.9 0.4-0.9 0.6-0.8 1.1-0.8 1.3-0.8 1.9 0.3 1 0.8 0.8 4 2.4 2.1 1.6 0.9 0.9 3 4 4.8 8.3 7.1 8.1 0.9 0.9 6 4.5 2.8 2.9 1.7 2.3 2.5 4.8 4.6 6.8 9.4 18.5 1.4 1.9 1.4 0.2 1.1 0.6 1.5 1 2 2.5 1.4 1 1.2 0.5 2.1 0 2.2 0.3 3-0.3 1 0.3 1.9 0.9 0.9 0.2 2-0.2 1 0 2 0.9 1 0.3 2 0.2 2 0.8 2.2 0.1 2 1.1 2.8 2.6 5.7 7.9 1.1 2.4 0.7 1.9 1.3 1.7 1.3 2.3 1.5 1.8 1.4 1.4 0.7 1.2 0.3 1 0.2 2.3 0.5 1.5 0.8 1 0.9 0.5 2.1 0.4 1.1 0.4 9.6 6.6 5.2 2.5 2.2 1.4 1.4 1.1 0.8 1.1 0.5 1 0.3 1 0.7 4.4-1.2 0.4-1.6-0.7-2.6-2.8-1.7-0.7-1.6 0.2-4.3 2.5 1.4 1.2 0.5 1.1-0.4 1-1.5 0.8-6.8 5-3.6 4.5-1.4 1.1-2.9-5.8-0.9-4.6-0.7-1.6-1.3-1.3-1.9-1-8.1-2.9-2.4-1.6-6.2-5.4-3.5-2.3-1.3-1.3-1.7-4.4-2.3-3.5-1.1-2-2.9-3.3-3.2 0.3-2.2 3 0.3 4.4-6.2-3-8.7-10.5-5.2-4.2-2.6-2.9-2.4-6.4-1.9-2.7-2.1-1.2-1.6 0.2-1.6 0.7-2 0.4-1.9-0.3-2.4-1.4-0.5-1.5-3.7-3.6-2.5-2-1.4-0.8-2-0.9-1.3-0.4-1.2-0.1-8.5 0.4-2-0.3-1.1-0.5-1.2-1-4.7-6.2-1-2.2-0.3-1.1 0-2 1.2-6.4-0.1-0.8-0.3-1-0.8-1.2-1.3-2.3-11.1-12.6-1.2-1.1-1.4-0.8-4.5-1-0.8-0.6-0.4-0.8 0-0.9 0.2-1.3-0.9-0.9-1.4-0.7-2.9-1.1-1.8-0.3-2.5-0.3-3.2-1.1-3.4-0.6-4-1.3-2.8-0.5-0.8-0.4-0.4-1.4 0-1.7-0.2-0.5-0.7-0.7-2.1-0.9-2.4-1.6-3.9-1.3-4.4-0.3-1.2-0.4-4.6-1.9-17.8-13-3.9-1.9-2.9-0.4-2.1-1.4-2.7-4.1 2.4-0.9 2.8-2.2 2.4-2.8 1-3-0.9-2.8-2.6-1.4-3.1-1-2.7-1.6-1.3-2.8 0.3-3.1 7.6-17.9 1.8-3.2 5.7-4.3 1.8-2.8-1.4-4.3-5.1-2.4-6.3-1.7-4.9-2.3-5.3-4.4-2.8-1.7-7.5-3.2-1-0.7-1.2-1.2-0.2-0.5 0.2-0.7 0.1-9.2 0.7-2.4 1.7-3.3 1.4-0.8 1.8 0.2 3.1-0.4 3.3-2 0-2.8-2-3.1-10.1-10.7-4.5-6.7-2.2-2.4-2.6-0.9-3.8 1.2-5.4 3.7-2.3 0.4-0.6-3.1 1.5-6.1 9.7-15.7 1.2-3.4 0.7-2.8 0-2.7-0.8-3.4-1.2-3-3.4-5.4-1-2.8 0-2.3 0.9-7.3-0.5-3-2.8-7.7 1-2.6 0.3-0.1 4.9 0.2 6.7 2 1.9 0.9 0.8 1.1 0.5 1.1 1 1.2 4.5 3.5 2.4 1.3 2.2 0.1 2.2-1.3 4.5-4.1 3-1.2 4.7-0.9 5.6-1.8 4.2-2.1 1.4 0.8 2.3 1.8 4.5 5.6 4.1 2.8 4.1 0.4 52.6-11.3-1.5-2.9 1-4.3 1.8-4.6 0.9-3.8-1-5.5 0.3-1.9 0.9-2 2.4-3.8 0.6-2.3-5.2-2.3-2.7-4.3-1.2-5.4-1.1-14.3 0.5-1.8 1.5 0.4 4.1 4.3 2.4 0.8 1.7-1 0.5-1.3 0.1-1.5 0.3-1.1 0.8-1.7 0.6-0.9 0.8-0.7 6.5-4.4 1.5-0.5 6.5-0.2 5.6 2.4 9.4 6.7 5.6 1.9 2.2 1.5 1.5 3.2 3 9.7 1.2 2.8 0.7 0.9 2.1 2.1 0.6 0.8 0.5 3-0.2 0.1-0.2 1.4 0.3 0.7 2.5 0.6-0.1 0.8-1.3 2.5-0.2 0.8 0.3 0.9 1.7 1.7 0.5 0.9 0.1 1.4 0.6 2.4 1.9-0.1 3.2-1.7 1.2 1.2 2.4 4 1.3 1.6 0.7 3.5 0.3 1.1 1 1 1.4 0.1 0.3 1.5-1.1 1.2-0.7 1.1-0.4 2.5-0.4 1.1-1.1 2.1-1.5 1.2-0.7 1.3 0.4 0.8 1.8-0.1 1.5-1.6z" id="COG3345" name="Niari" data-id="COG3345" data-name="Niari">
 </path>
 <path d="M735.7 704.3l-2.6 4-1 2.2-0.7 2.2-0.2 1.5 0.1 4.5-0.8 3.9-1.7 3.4-10.8 14.3-0.7 1.6-0.5 1.8-0.8 0.4-2.3 1.7-2.7 1.2-1.2 1.1-2 2.6-8.4 8.2-5.6 4.3-7.4 7.1-3.7 2.5-3.3 3-3.3 4.2-1.6 2.8-1 3 0.2 3.1 0.2 1.8-1.7 6-0.3 2.2 0.4 2 1.3 1.8 0.3 0.7 0.2 1.3 0.1 6.4 4.4 31.9-2.8 19.6-3.1 9.4-0.4 1.9-0.1 1.9 0.9 7.7-5.3-0.6-3-0.6-3.3-0.3-2.7 0.1-2.4 0.6-1.3 0.4-1.9 1.2-1.7-0.1-2.2-0.4-1-0.5-1.1-1.1-1.1-0.8-1.2-0.6-0.5-0.4-0.6-2.1-0.7-1.1-1.3-1.4-1.2-0.7-0.7-0.2-1.3-0.6-1.5-1.2-1.5-1-3.7-1.5-1.6-0.3-1.6-0.8-2.1-0.7-1.3-0.7-0.9 0.6-0.9 1.2-0.5 0.2-1.3-0.8-0.9-0.2-8.6 1.8-1.2 0.5-2 1-1.5 1.2-1.2 0.7-0.8 1-0.8 2-0.6 0.5-0.9 0.4-1.7 0.3-1.3 0.5-1 0.9-1.2 0.5-2.9 0.7-1.3 0.6-1.8 1-0.9 0.7-1.4 1.5-2.1 1.5-1.9 1.8-1.8 1.1-3.3 2.2-1.7 0.8-9.5 3.2-2.2-0.1-4.8-1.4-2.6 0-2.6 0.3-2.4 0.6-1.3 0-5.2-0.9-2.6-0.9-0.9-0.6-1.7-0.5-0.5-0.2-0.7-1.2-1.3-0.7-2.9-0.6-1-0.8-0.4-0.6-0.7-2-0.6-4-0.6-1.2-1.5-1.3-1-1.6-0.6-0.4-1.2-0.3-8.4-0.8-1 0.1-2.9 1.2-2.7 0.8-2.3 0.1-2.7-0.2-1.3-0.4-0.7-0.5-0.1-1.5 0.3-1.2-0.1-1-0.9-4.4 0-3.4-0.3-1.6-0.7-1.1-1.3-1.3-0.2-0.6 0.2-2.3-0.4-1.3-0.8-1.1-0.9-1.7-0.9-1-1.1 0-1.5 0.5-4 2.4-1.2 0.9-3.1 1.8-0.9 0.7-0.5 0.7-0.2 0.8 0.1 2.4-0.5 2.2-0.8 1.4-1.4 1-1.1 1-4.6 2.6-1.7 1.3-1 1.5-3.8 3.6-3.6 2.5-0.9 1.2-0.6 1.7-0.7 0.7-2.1 1.4-1.1 0.9-3.1 3.1-2.4 1.4-0.8 0.8-1.9 3.6-0.8 1-2.1 2-1.5 2.6-0.5 0.5-1.3 0-2-0.6-3.6-2-1.6-1.1-1.9-1.8-1.4-0.6-4.5 0.2-1.5 0.3-0.9 0-1-0.3-2.9-1.7-1.8-0.4-4.1 0.3-2.7-1.1-3.2-4.4 1.3-2.7 0.9-0.8 1.5-1.2 0.9-1 0.5-2.2 0.4-0.8 0.7-0.8 0.8-0.6 1.9-1 0.9-0.7 0.8-0.9 0.2-1.2-0.4-1.9-4.3-11.8-0.2-2.1-0.3-0.7-0.6 0-1.1 1.3-0.7 0.3-0.5-0.6 0.1-1.2 0.4-1.2 1.8-3.2 0.4-1.1-0.1-1-0.5-0.8-1.7-0.4-1.2 0.2-1.3 0-2.3-1.3-1.1-0.1-1.1 0.2-2.3 1.3-1.1 0.1-1.1-0.3-1.4-0.8-1-0.5-1.2-0.1-2.1 0-1-0.3-0.8-0.7-0.6-0.9-0.2-0.9 0.5-0.9 1.8-1.3 1.7-1.6 1.9-1.2 0.9-0.8 0.4-1-0.3-1-1.3-0.9-1 0.1-1.3 1.1-0.8-0.1-1-0.4-2-1.4-0.7-0.9-0.3-0.9 0.7-0.8 1.8-0.4 1.1-0.6 0.4-0.6-0.6-1.6-3.8-3.6-1.3-3.6-1.4-2 0.8-2.4 1.2-1.1 1.2-1 1-1.2-0.1-3.5 0.6-1.3 1.1-1.2 2.5-2.1 1.2-0.8 1.3-0.6 6.4-1.5 0.6 0.3-1-4.2-10.1-8.5-0.4-4.5 1.8-1.4 4.5-1.7 1.8-1.9 0-1-0.8-2.4 0.2-1.3 0.7-0.6 2.3-0.8 0.9-0.9 0.6-1.9 0.7-7 0.9-2.6 0.1-1.3-0.6-1.2-1.1-0.8-0.7-0.7-0.1-0.8 0.7-1.2 0-1.5 0.3-1.2 0.7-1 0.9-1 15.4-6 0.4 0.8 0.5 7.2 0.8 2.6 0.9 1.7 1.1 0.7 2 0.5 2.1 0.3 2.1-0.2 5-1 1-0.4 0.9-0.7 0.9-1.1 1-2.2 0.7-0.9 1-0.6 1.5-0.4 2.2-1 2-1.4 3-2.8 5.2-7.2 0.5-1 1.5-4 0.6-1 2.7-2.9 1.5-2.5 1.2-1.5 3.7-3.6 0.9-1.2 1.8-3 0.3-0.9 0.5-3.1 1-1.7 1.8-2 6.4-5.3 1.8-1.2 6.5-2.8 2.2-0.4 5.1 0.4 1.7-0.4 3.6-1.5 2.1-1.2 5-4.7 9.1-11.8 6.8-21.5 2.8-5.7 8.6-11.5 2.8-2.3 6.6-2.9 2.9-1.9 1-1.1 1.6-2.5 1.1-1.1 0.5-0.1 1.4 0.4 0.6-0.2 2.2-1.8 1.9-2.2 3.7-5.8 2.2-1.7 4.7-1.5 1.7-1 0.9-0.3 0.6 0.1 1.4 0.8 0.7 0 2.1-0.7 3.9-2 2.1-0.7 2.6-0.1 7.1 1.8 5.2 0.5 2.3 0.6 1.7 1.6 0.7 2.7 0.1 3.1 0.5 3.1 2 2.5 2.5 1 6.1 1.3 2.9 1.3 0.9 0.8 0.4 1 0.7 0.7 6.1 1.8 1.1 0.4 1.8 2.9 1.1 1.3 1 0 1.5-0.8 0.4 1.3 0.1 3 2.4 1.2 8.5 0.9 4.3 1.5 4.1 2.1 14.7 9.2 0.7 0.8 1 0.6 5.1 0.6 0.8 0.5 1.1 1 0.6 1 2 4.4 2.9 3.8 4.2 11.7 3.3 3 5.6 0.3-0.8 2.1 1.8 1.2 2.3 0.8 0.5 0.7 0.3 1 2.9 0.4 3.5 0 2.1-0.7 2.4-1.5 2.7-0.2 2.7 0.6 3.9 1.6 0.6 0 0.7 1.4-0.2 1.9-0.6 2 0.4 1.2 3.1-0.3 4.3 0z" id="COG3346" name="Plateaux" data-id="COG3346" data-name="Plateaux">
 </path>
 <path d="M643.1 999.7l-1.9 3.4-1 1.1-0.7 1.3-2.4 7.8-3.9 3.7-5.1 2.7-5.9 1.8-11.8 1.8-19.1 6.1-2.4 1.1-2 1.5-1.7 2.5-4.1 13.1-0.7 1.2-2.9 3.1-0.5 0.9-1.2 0.4-3.3 1.7-5.1 1.9-14.8 7.5-2.6 1.7-3.6 1.5-3.2 1.9-1.4 2.6-0.7 1.8-12 17-2.9 2.7-4.3-5.4-3.1-6.4-3.7-4.2-4.8-4.8 3.5-5.8 5.8-7.4 2.7-6.4 3.1-7.9 4.3-6.9 2.1-10.1-0.6-6.9-2.6-8.4 0-6.9 3.7-6.9 7.4-4.2 5-5.3 2.6-8 1.1-8.4 0.5-9 1.1-8.5 2.6-4.8 3.7 0.6 4.2 3.1 7.4 2.2 5.8 2.1 3.2 3.7 3.7 3.7 4.8 5.8 4.2 4.2 3.5 0.9 3.2-3.2 3.1-6.9 2.7-4.7 3.7-3.7 4.7-1.1 4.8 2.1 7.3 2.7 3.5 4.4 4.2 6.9 3.2 6.3 2.1 5.8 0.5 4.8 2.2 3.2 2.1 2.6 2.7 3.3z" id="COG4855" name="Brazzaville" data-id="COG4855" data-name="Brazzaville">
 </path>
 <path d="M103.4 1138.1l-7.4-7.7-1.4-1.7-0.1-0.7 0.6-0.9 0.8 0.1 1.8 2.1 0.7-0.4 0.6-1.6-0.4-2.8-1.1-1.5 7.5 0-0.1 15.1-1.5 0z" id="COG5855" name="Pointe Noire" data-id="COG5855" data-name="Pointe Noire">
 </path>
 <circle cx="195.8" cy="1004.4" id="0">
 </circle>
 <circle cx="147.1" cy="945.3" id="1">
 </circle>
 <circle cx="642.1" cy="475.6" id="2">
 </circle>
</svg>