<?xml version="1.0"?>
<!--
************* Copyright (c) 2017 Pareto Softare, LLC DBA Simplemaps.com *******************		
************* Free for Commercial Use, full terms at  http://simplemaps.com/resources/svg-license ************
************* Attribution is appreciated! http://simplemaps.com ***************************
-->
<svg baseprofile="tiny" fill="#7c7c7c" height="1054" stroke="#ffffff" stroke-linecap="round" stroke-linejoin="round" stroke-width="2" version="1.2" viewbox="0 0 1000 1054" width="1000" xmlns="http://www.w3.org/2000/svg">
 <path d="M702.5 186.4l2 0.9 7.2 9.7 1.3 1 1.3 0.7 0.9 1 0.4 1.8 0 1.8 0.2 1.3 0.5 1.2 1 1.4 4.5 4.2 1.3 2.2 0.8 5.5 1.5 2.7 0.4 1.2-0.2 1.3-0.9 1.7-0.2 1.6-0.9 2.6-0.1 1.4 0.4 1.4 1.4 1.3 0.5 0.6 0.4 2.9-0.5 1.8-0.8 1.7-0.4 2.7 0.3 1.2 0.7 1.5 1.3 1.9 1.9 0.7 0.4-0.5 0.1-1.2 1-1.3 3.1-1.5 2.5-0.8 3.6-0.3 0.9-0.7 4.5 3.8 4.4 2.9 6.7 1.4 3.3 1.7 1.8 0.3 1.2 0.8 0.5 1.7 0.4 1.9 0.7 1.3 1.2 0.3 4.9-0.3 2.6 1-2 5.6 2.3 2.5-0.9 0.4-0.3 0.6 3.3-0.4 2.7-1 1.9 0 1.1 2.6 0.1 4.2-1.3 0.3-1.8-2-1.6-2.5-1.6 3.8-0.6 3.7 1.3 2.7 5.8 1.4 2.7 1 2.4 1.5 1.3 1.8-0.4 2.2-1.8 0.7-2.3 0.1-2.2 0.4-4 1.7-3.5 2.1-1.3 2.9 2.6 4 2.6 2.3 4.9 5.8 3.1 2.6 0 1.2-1.4 0.2-0.6 0.4-1.3 1.7 0.7 0.2 0.3 0.9 2.1-0.2 2.2 1.2 1.8 2 0.8 2.2-0.4 3.6-1.1 0.6-1.6-0.8-2-0.6-1 1.1-4.1 6.7-3.1 2.5-0.5 1.4 2.5 0.7-1.3 1.5-2.2 0.6-4.9 0.1-2.8 0.9-1.6 2.3-1.7 5.9 1.6 1.4 0.9 2.5-2.4 0.4-1.6 0.5-2.6 1-0.8 0.1-0.9-0.3-0.9-0.7-1.6-1.9-1-0.7-2.6-0.6-2 0-1.3 0.1-2.9 0.8-1.5 0-1.9-0.2-3.6-0.8-3.3-0.1-1.8 0.5-1 0-1.2-0.3-1.1-1-1.4-1.5-0.8-0.5-1-0.3-1.6 0.2-2.9 1-1.9 0.1-1-0.4-1.2-1-0.6-0.9-0.7-1.7-0.8-0.8-3.3-1.9-1-1-0.5-1-0.3-1.9-0.4-0.7-0.8-0.6-1.1-0.3-1.8 0-1.2 0.1-3.8 0.9-1.1-0.1-0.9-0.4-0.8-0.9-0.6-1.8-1.4-10-0.5-1.7-0.9-1.4-1.3-1.1-2.9-1.6-1.1-1.1-1.6-2.9-1.5-0.9-2.3-0.8-5.5-1.4-2.2-0.9-1.4-0.9-0.9-1.4-1-1.1-6-2.3-1.3-0.4-1.2 0-1.9 0.7-2 1-59.6-1.9 0-6.1 1.2-0.9 1.2-0.5 1.3-1.2 2.1-3.2 0.7-1.7 0.2-1.1-0.2-0.5 2.2-15.1-0.1-1.9-0.2-1.4-0.5-0.7-1.2-0.9-1.6-0.3-2.1-1-2.4-0.4-0.8-0.4-1.8-1.6-2.4-1-0.9-0.7-0.8-1.1-1.9-4.8-0.9-1.4-1.6-1.5-1.5-2.5-0.4-1.2-0.1-1.2 0-2.3-0.6-5.1-0.5-1.9-1.8-0.9-2.5-0.8-16.7-2.8-1.3 0.3-0.8 0.5-1 1.2-1.8 1.7-1.6 0.6-1.1-0.1-1.1-0.4-1.3-0.9-1.2-1.7-3.9-9.6-1-1.5-1-0.9-0.9-0.2-2 0-7.5 1.2-3.6-0.9-5.4 6.7-2.5 4.4-1 4.4-0.4 5.3-1.6 4.9-3.1 3-5-0.3 2.2 2.5 1 2.5 0 2.8-2 7.2-1.7 3.8-2.5 2.2-3.7-0.6-0.2 4.4 9.8 6.4 2.7 5-1.5-0.5-1.6-0.4-1.8-0.2-1.7 0.1 0 1 0.9 0.5 2.4 1.9-4 2.5 0.9 6.4-4.2 1.3-1.1 0.8 1.7 1.8 2.4 1.7 1 0.3 0.3 2-1.2 1.7-2.8 1-1.6-0.1-0.9 0.6-2.7-0.1-1.5-0.8-2.4-0.4-2.9 0.2-1.8 0.4-1.6 0.6-0.6 0.5-2.3 2.3-1.3 0.9-1.5 0.7-1.7 0.5-0.9 0-1.8-0.4-3-0.3-0.9-0.3-1.3-0.9-1-0.3-1 0-1.3 0.4-0.8 1.1-2.3 5.8-1.7 5.9-0.1 1.4 0.3 1 0.5 0 0.7-0.7 0.6-1.3 0.7-0.6 0.8-0.2 1.5 0.8 0.4 0.7 0.6 1.7 0.4 0.7 1.5 0.8 0.6 0.6 0 0.9-0.5 0.6-0.8 0.2-1.8 0-1 0.7-0.1 0.8 0.2 0.7 0.8 1.5 0.2 1.1-0.5 3-0.1 1.2-0.3 1.4-1.4 0.6-0.2 0.6 0 2.7 0.2 0.9 0.4 0.6 1.7 1.7 0.6 0.3 0.8-0.1 2-1.2 1.8 0 1.7 0.5 1.3 1.1 0.4 0.8-0.1 4.6-0.2 1.9 0.5 1.5 1.8 1.2 2.5-0.1 0.6 0.5 0.3 0.9 0.1 1.4-1.3 1.3-21.6-5.2-33.6-12.4-1.3-0.8-24.9-39.1-2.9-5.9-0.2-0.9-0.2-2.2-0.4-1.4-0.6-0.8-0.8-0.6-3.1-1.6-10.7-6.9-0.7-1.2-0.9-2.5-0.5-0.9-1.7-2.5-0.7-1.5-0.4-1.7-0.1-1 0.4-1.9 2.4-4.6 1-1.2 1.8-1.7 0.9-1.5 0.2-0.9-0.1-1.9-0.7-1.5-3.9-4.9-3.5-2.1-1.9-0.4-2.2-0.1-3.2-0.9-4.5 0.9-1.6 1.2-1.1 2.4-1 3.6-0.9 1.8-0.9 0.7-2.4 0.3-1.9 0.8-0.9 0.7-2.9 4.1-3.3 3.8-1.8 1.5-1.5 0.6-0.9-0.2-1.4-0.9-1.2-1.2-0.9-1.3-0.8-1.4-1.3-3.6-0.6-1.2-1-1.4-1.7-1.6-0.9-0.4-1.3-0.3-2.3 0-2.2 0.7-1.1 1.1-0.6 1.6 0.3 1.8 1.4 3.1-0.3 1.1-1 1.5-2.8 2.5-1.7 1-1.5 0.5-13.9-1-1.5-0.7-1.2-1.1-1.9-2.2 0.1-1.5 1.3-1.1-5.8-0.8 1.3-4.6-0.3-2.3-1.3-2.3 0.1-2.3 1.9-9.4 0.2-2.7-0.3-1.7-0.7-0.5-1.5-1.9-0.6-0.6-2.4-4.3-1.9-6.8-0.6-3.1 0-2.1 1.4-2.2 0.2-1.4-0.3-1.2-0.7-1.9-0.1-1.7 1.3-1.8 0.3-0.9 0.7-2.9 0.5-0.6 1.5-0.7 0.8-0.7 0.7-1.1 0.6-2.2 0.1-1.4-0.2-1.1-3.7-2.9-1.4-2-1-1-3-1.7 2-8.1 1-2.9 0.4-0.7 2.5-3.1 0.3-1.3 0.2-2 0.6-1.1 0.7-0.9 1.1-0.9 0.2-0.8-1.2-2.5-0.1-1.6 1.4-2.5 0.3-1.1 0-1-0.4-0.7-2.3-1.6-0.6-0.9 0.1-1.6 0.8-2.6 0.5-3.2 0.6-1.6 0.7-1.1 0.7-0.9 1-1.6 0.1-1-0.3-0.9-1.3-2-1-4.1-0.9-1.9-1.3-0.9-1.4-1.7-1.2-3.2-0.6-0.9-1.4-0.9-2-0.3-20.7 0.7-2.1-0.6-0.8-0.7 0.2-1.6 2.8-4.3 1.3-1.5 3.5-3.2 0.8-2.4 0-1.3 0.3-2.1 0.7-1.6 1.4-2.2 0.5-1.4 0.1-1.2-0.1-0.9-1.3-1.5 1.9-2.4 2.9-1.5 4.4-0.7 2.2 0.1 6.1-1.1 1.7 3.1 1.9 1.8 1.8 0.9 1.3 0.5 1.2 0.2 2.9-0.4 6.5-2.1 13.3-7.2 1.1-1.1 0.1-0.9-0.4-2.8 0-2.1 0.8-3.6-0.2-1-5.2-1.5-0.9-0.8-1.4-1.4-0.6-2.2 0.1-1 0.4-2.1 0-1.3-0.7-2.7-1.1-1.7-2.8-5.9-1.9-2 0.7-5.3 0.7-1.3 1-1.2 0.9-1.5 0-1.8-1-1.2-1.7-0.8-1.8-0.5-1.3-0.6-2-3.3-0.3-2.8 1.6-5.4 0.8-7.5-0.5-1.4-0.6-1.1-0.3-1.4 0.4-3.1 0.8-3.1 0.3-0.1 2.3-3.9-0.2-0.6 3.6-1.2 2.2 1.4 3.3 5.7 2.4 2.3 3.4 2.3 6.6 3.6 2.6 0.9 8.9 1.7 3.5 0.3 4-0.8 3-2.1 0.6-3.8-1.2-1.6-2.1-1-1.8-1.2-0.9-2.3 0.3-6.5 1.1-3 2.9-1.4 3.5-0.2 3.4 0.6 4.2 0.1 3.2-1.5 3-2.1 3.9-1.7 3.9-0.5 1.6 1 0.3 2.3-0.9 6.8 0.5 1.3 3.1 1.2 1.8 0.9 1.4 1.3 0.6 1.3-0.9 2-1.6 0.9-1.8 0.9-1.3 1.5 0.9 2.3 0.5 2-0.2 1.9-1.1 1.4-3 2.4-0.7 1.4-0.1 2.5 0.9 0.4 1.3-0.4 1.5 0.2 0.8 0.9 1.9 2.1 1.1 0.4 1.8-0.3 1.3-0.1 1 0.6 0.7 1.6-0.2 1-1.8 3-0.3 1.4 0.5 1.6 2.7 3.2-2.5 5.1-0.5 3.1 2.4 2-3.9 4.4 0.7 2.7-0.4 0.8-1.3 0.5-1.1-0.4-1.2-0.9-2 2.2-0.5 2.3 0.6 6.1 2.5-0.5 1.7 1.2 3.2 3.9 2.2 1.4 12.4 4.4 14.6-0.1 3-3 2-3.2 1.1-3.5 0.6-4.2 1.9-1.5 7.6 2.7 1.9-1.5-0.7-9.1 0.7-3 1.9-2.8 2.5-1.8 11.7-6.2 21-4.7 9.1-0.9 4.6-1.1 1.5-0.1 2.1 0.8 3.6 2.3 4.4 1.7 2.9 1.7 2.9 3.7 1.9 4.2 0.2 2.9 2.3 0.8 2.7 0.3 1 0.6 0.7 1.3 1 2.5 1.8 1.6 2.2 1.1 2.8 0.7 3.3 0.2 0.7-0.6 1.3-1.5 1.5 0.8 0.9 0.2 1.8-0.1 1.9-0.4 1.1-1.1 0.8-1.1 1.2-0.8 2.8 0.1 7.5 1.1 2.6-0.7 8 4.8 1.5-0.2 1.2-2.2 2.7 0.2 2.7 1.8 1.2 2.5 0 9.1-1.1 1.9 0.2 0.7 2 0.2 1.2-0.4 0.9-0.8 0.8-1.1 0.5-1.1 0.4 3.4-1.4 3-0.1 1.8 4.4-0.2-1.1 3 1 1.7 4.1 2.7 0.3 1.3-3.8 1.4-1.5 1.3 1.4 0.1 3 1.1-2.2 1 1.4 2 1.8 0.2 1.9-0.8 1.6-1.4 0.8 3 1.8 1.6 2.1 1 2 1.3 1.8 2.5 1.2 3.1-0.7 2.2-3.4 0.1 0.7 1.7 1.8 2.4 1.8 3.9 0.3 1-2.3 6.8 0.2 1.9 4.8 4.5 1.4 0.5 0.9-1.1 0.9-1.5 1.2-0.7 1.9 0.3 1.3 1.6 1.4 0.3 3.8 0.3 3.2 1.1 2.3 2 1.1 3.4 3.2-1 1.3 2.5 0.8 3.8 1.5 2.8-2.6 0.9-1.4 0.2-1.6-0.1 0 1.2 1.5 1.3 0.8 2 2.1-0.6 2.2 3.5 2.5-0.5-0.9-0.9-0.3-0.7 0.6-0.6 1.6-0.2 1.7 0.2 0.8 0.6 1.4 2.1 1.9 1.7 0.6 1.1 0.3 1.7 0.3 1.3 0.9 0.7 2.2 0.9 0.8 0.9 0.1 0.8 1.4-0.6 1.3-0.8 1-1.2 0.6-0.9-0.2-0.5 2.4 0 2.1-0.2 1.9-1.1 2.1-2.2 1.8 1.6 2.4 3.5 1.9 0.7 2.4-0.7 0.6-1.7 0.1-2.2 1.4-4.1 0.5-0.3 3 0 1.3 0.3 0.9 0.5 0.4 0.8-0.3 2.8-1.6 4.3-0.4 3.1 2.3 3.4 5.3 0.5 5.9-0.2 3.9 0.9 1.5 2.4 1.4 5.5 1.1 1.8 2.2 1 0.6-1.5-0.1-2.7 0.5-2.6 2.5 0.7 4.5 1.8z" id="CIV3431" name="Savanes" data-id="CIV3431" data-name="Savanes">
 </path>
 <path d="M319.5 60.9l1.9 2 2.8 5.9 1.1 1.7 0.7 2.7 0 1.3-0.4 2.1-0.1 1 0.6 2.2 1.4 1.4 0.9 0.8 5.2 1.5 0.2 1-0.8 3.6 0 2.1 0.4 2.8-0.1 0.9-1.1 1.1-13.3 7.2-6.5 2.1-2.9 0.4-1.2-0.2-1.3-0.5-1.8-0.9-1.9-1.8-1.7-3.1-6.1 1.1-2.2-0.1-4.4 0.7-2.9 1.5-1.9 2.4 1.3 1.5 0.1 0.9-0.1 1.2-0.5 1.4-1.4 2.2-0.7 1.6-0.3 2.1 0 1.3-0.8 2.4-3.5 3.2-1.3 1.5-2.8 4.3-0.2 1.6 0.8 0.7 2.1 0.6 20.7-0.7 2 0.3 1.4 0.9 0.6 0.9 1.2 3.2 1.4 1.7 1.3 0.9 0.9 1.9 1 4.1 1.3 2 0.3 0.9-0.1 1-1 1.6-0.7 0.9-0.7 1.1-0.6 1.6-0.5 3.2-0.8 2.6-0.1 1.6 0.6 0.9 2.3 1.6 0.4 0.7 0 1-0.3 1.1-1.4 2.5 0.1 1.6 1.2 2.5-0.2 0.8-1.1 0.9-0.7 0.9-0.6 1.1-0.2 2-0.3 1.3-2.5 3.1-0.4 0.7-1 2.9-2 8.1 3 1.7 1 1 1.4 2 3.7 2.9 0.2 1.1-0.1 1.4-0.6 2.2-0.7 1.1-0.8 0.7-1.5 0.7-0.5 0.6-0.7 2.9-0.3 0.9-1.3 1.8 0.1 1.7 0.7 1.9 0.3 1.2-0.2 1.4-1.4 2.2 0 2.1 0.6 3.1 1.9 6.8 2.4 4.3 0.6 0.6 1.5 1.9 0.7 0.5 0.3 1.7-0.2 2.7-1.9 9.4-0.1 2.3 1.3 2.3 0.3 2.3-1.3 4.6-6 3.6-4 1.1-1.5 0.7-2 1.4-2 0.7-6.5 1.5-1.7 0.9-0.9 1-0.7 2.2-1.1 1.6-0.3 1.2-0.2 1.1 0.2 2.5 0.8 7.5-0.1 1-0.3 1-1.1-0.3-1.2-1.1-1.8-0.8-1.9 0.2-1.2-0.2-0.9-0.4-1.5-0.9-1.1-0.3-4.7 1-2.6 0.2-2-0.2-0.9-0.3-1.4-0.9-0.5-0.6-1.8-2.7-1.3-1-0.9-0.1-2.8 0.2-1-0.2-1.3-0.7-0.6-0.6-1.2-0.7-1.5-0.4-1 0.1-0.9 0.4-0.7 0.7-0.3 0.7-1.5 1.8-2 1.3-2.6 2.4-2.3 1.7-4.1 1.2-2.2 0.1-0.4 1 0.4 0.7 0.7 0.4 1.2 0.1 1.6 0.4 0 1-1 1.9 0 2.2-0.4 1.7-0.7 1.5-1.3 1.5 2.4 0.9 1.3 1.9 0.7 2.6 0.2 3 0.4 1 1.4 2.8 0.3 1.3-0.3 1.2-1.5 1.4-0.3 1.4-0.3 2.8-1.9 8-0.2 6.1-0.6 3.2-1.6 3.1 2.3 0 1.2 0.7-0.3 0.8-1.9 0.7 2.1 1.6 1.7 3.1 1.2 3.4 0.9 6.2-5.3-4.8-1.4-2.5-1.1-2.5-0.9-1-1.5-1.4-4.1-2.7-1.2-0.6-1.8-0.5-1.5-0.7-1.4-0.9-2.2-2.2-4.4-6-1.6-2.9-1.9-1.9-3.6-2.3-1.9-0.9-1.4-0.9-7.2-8.4-6-3.5-1.1-1.1-4.5-7.1-1.2-1.3-9.5-8.4-5.1-1.7-3-1.4-1.4-1-1.2-1.1-1-1.5-7.3-13.8-4.1-5.7-2-0.5 0.3-0.1-2.1-2.6-6.8-3.8-3.6-2.8-1.8-1.8-2.2-4.3-1.4-0.2-1.7 0.6-2 0.4-8.3-3.3-0.2-6 5.9-14.4 0.5-3.8 4.3-13.2-0.9-1.5-6.7 0-3.4 0.8-6.3 3.5-3.3 1.3-3 0.2-3.7-0.1-3.5-0.8-2.7-1.4-2.7-2.9-9.5-13.6-1.2-2.6-0.8-2.9-0.6-3.8-0.1-3.7 6.3-44.6-0.8-3.5-3.1 0.2-0.6-0.2-0.7-1.5 0.5-0.6 1-0.6-0.2-0.9-0.4-2.9-0.6-0.9-1.8-0.3-0.6-0.3-0.6-1.4-0.5-1.7 0.1-1.4 3.5-1.4 2-1.6 0.7-1.6-2.1-0.8-1.6-1.8 1.8-4.1 3.3-4.5 3.1-2.9 8.3-3.1 3.7-2.1 3.2-4.1 0.5-2.4 0.8-2.2 1.2-2.1 1.7-1.9 3.1 1.2 3.4-0.1 3.4-0.9 3-1.4 3-2.5 1.5-1 4.2-0.6 1.6-0.6 1.5-1 1.5-1.3 3.9-5 0.7-1.3 0.5-1.8 1.1-0.9 1.2-0.8 0.9-1.3 0.3-2.4 2-3.3-2.2-2.8 3.3-0.7 3.6-2.2 1.9-2.7-2-2.5 2.3-1 0-1.1 2.2-1.9 1.4-0.3 2 0.2 1.4-0.4 0.9-1.8 0.6-2 0.9-1.4 3.4-0.6 5.9 3.6 3.8 0.4 1.6-0.2 3 0.1 1.4-0.6 1.3-1.1 3.9-5.1 2.3-0.1 1.9 0.4 1.6 1 1.4 1.5 0.9 1.9 0.1 2-0.1 1.7 0.1 1.5 0.6 1.6 2.8 4.6 0.2 1.8-0.4 1.6 0.2 1.1 2.2 0 1.5-0.4 4.4-1.6 3.7 0.2 1 2.6-1.1 6.7 0.2 4 1.4 2.1 2.6 0.7 10.3 0.2 13 2 16 4.5 2.8 1.6 2.7 3.2 2.4 3.7 2.9 2.7 4-0.2 3.8-1.3 3.4-2.6 2-3.5-0.3-4.2-1.6-1.8-2.1-1.4-1.8-1.5-0.3-2.2 3.9-13.2 1.9-2.1 3.7-0.6 9.3 1.2 3.1-0.4 9.6-4.5 3.6-0.4 3.5 1.2 6.2 3.6 3.6 0.4 3.8-1.2 1.4-2 0.1-0.8z" id="CIV3437" name="Denguélé" data-id="CIV3437" data-name="Denguélé">
 </path>
 <path d="M234.9 365.9l2.1 4.6 1 3.8 0 6.7 1.6 10.2 1.6 3.2 2.5 2.7 3.2 2-1.9 1.3-0.5 0.9 0.1 0.9 0.1 7.4-1.7 2.7 1 4.1 2.1 4.3 1.9 2.2-1 3.2 0.8 2.2 1.4 2.2 0.9 2.7-0.2 1.3-1.5 2.2-0.4 1.4 0 5.7 0.8 3.4 2.8 6.9-20.6 0.1-4.8-1-1.5-3-5.5-9-1.1-1.2-6-3.9-2.8-1.3-5.7-1.4-1.3-0.5-0.8-0.6-1.3-2.1-1.5-1.6-1.8-1.3-2.4-2.1-1.2-0.4-1.4 0-1.5 1.1-1 1.3-1.1 1.1-2.6 1.9-1.2 1-0.8 1.1-0.6 1.1-1.4 5.6-0.3 4.1 0.5 1.9 1.4 1.7 0.4 0.7-0.9 1.5-0.5 1.6 0.3 1.8 1.1 1.8 0.3 1.2 0.2 5.1 0.2 1.8-0.2 0.9-2.6 2-0.1 0.7 0.8 1.9-0.4 0.5-1.1 0.8-1.7 2.1-1 0.1-1.6 0.7-1.6 1.5-1.5 0.9-2.4 0.3-1.4-0.1-1.4 0.6-1.2 0.1-0.8-0.2-0.8-1.5-1-0.6-1.1 1.2-0.8 0.6-1.8 1.8-2.5 1.3-1.2 0.4-0.9 0.1-1.4-1.7-0.6-0.2-1.2 1.2-0.7 0.2-0.6-0.4-0.5-1.5-0.4-0.7-1.7-1.2-0.6-0.9-1.3-0.9-2.7-0.9-3.4-0.5-1.7-0.5-0.8-0.7-1.7-2.8-1.7-1.7-1.1-2.5-1.5-1-1.3-1.1-2.3-1.2-1.1-0.3-0.6-0.4-0.1-0.7 0.5-1.3-0.2-0.7-0.9-1.2-0.9-2.3-2.5-2.3-2.1-0.8-1.1 0.1-0.8 0.6-0.5 0.9-1.1 0.3-3.8-0.7-6.1-2.6-0.4-1.7-2-3.6-2.7-3-3-1.9-1-2.3 0-2.5 1-5 1.2-2 0.9-2.3-0.1-1.6-2 0-9.9 3.4-1.5 0.2-15.9-4.9-13.6-8.9 0.2-1.8 2.7-2.8 0.5-1.9-0.4-3.1 0-3.1 2-9.4-0.3-3.4-0.8-2.1-1.1-1.8-0.9-1.8 0-1.9 0.9-1.2 7.9-6.3 2.3-0.3 5.8 1.2 3.4-0.4 5.4-2.2 3.3-0.2 1.4 0.4 1.8 1.6 1 0.6 1.4 0 2.9-0.2 1.5 0.2 4.8-1.2 2.5-0.4 2.4 0.5 2 1.6 1.1 2.1 0.9 2.4 1.3 2.2 1.7 1.6 2.4 1.3 2.6 0.8 2.8 0.1 2.7-1.3 0.3-2.3-0.4-2.7 0.6-2.5 3.6-0.6 3.5 4.7 5.1 10.4 3.7 2.3 4.5 0.6 9.5-1-3.4-7-1-3.5 0.5-4 1.2-4.1 0-2.9-2-6.9-0.4-3.5 0.4-6.3-0.9-3.1-1.1-1.4-4.6-3.1-1.5-1.8-3.9-7.1-1.2-1.4-3-2.7-0.8-0.9-1.3-2.1-1.1-0.7-0.9-0.1-1.8 0.9-0.7 0.1-9.8-3-3.6-0.4-7.5-2.3-1.6-5.1 3-14.3 0.7-8.1 0.8-3.9 1.5-4 2.5-2.6 14.7-7.6 3.1-0.3 3.2 0 3.9-0.6 2.6-2 2 0.5 4.1 5.7 7.3 13.8 1 1.5 1.2 1.1 1.4 1 3 1.4 5.1 1.7 9.5 8.4 1.2 1.3 4.5 7.1 1.1 1.1 6 3.5 7.2 8.4 1.4 0.9 1.9 0.9 3.6 2.3 1.9 1.9 1.6 2.9 4.4 6 2.2 2.2 1.4 0.9 1.5 0.7 1.8 0.5 1.2 0.6 4.1 2.7 1.5 1.4 0.9 1 1.1 2.5 1.4 2.5 5.3 4.8z" id="CIV3440" name="Bafing" data-id="CIV3440" data-name="Bafing">
 </path>
 <path d="M251.6 454.1l2 5.1 0 3.4-1.1 1.9-1.7 1.6-1.7 2.1-0.6 1.2-0.3 1.1-0.2 2.7 0.4 1.6 1.4 1.8 0.3 1.2 0.7 10.7 1 5.8 1.8 4.3 0.1 1.9 0 1.8-0.5 1.6-0.8 1.5 1 2.7 1.8 7.2 1.1 1.5 3.6-1.1 1.8 0 1.5 2.9 3.6 0.4 1.3 1.1 0 3.2-2.4 1.8-2.9 1.3-1.4 2.2 0.9 3.9 0.2 1.7-0.2 0.5-0.7 0.7-0.2 1 0.5 0.6 2.2 1.3 0.6 1-0.4 4.4-2.8 1.8-3.2 1.1-1.5 2.3-0.5 1.8-1.1 1.6-1.1 1.3-0.9 1.5-1.5 0.7-0.3 1 0.1 1.1 0.7 1.7 1.5 8.3 0.3 4-1 2.9-0.8 1.7 0.3 1.8 0.7 1.8 0.4 1.5-1.1 5.6-0.1 1.8 6.3 15.1 0.2 2.5-0.6 2.3-2.8 9.4-0.8 5.1 0 1.9 0.4 3.4-1.2-0.1-7.7-1.3-2.4-1-4-2.7-0.7-0.4-1.7-0.1-12.6 1.4-5.5-1.4-3.2-0.2-15.3 2.6-4.7 1.3-1.6 0.2-17.3 0.1-10.5 1.6-2 3.8-0.3 1.2-0.7 8.5-2.2 0.5-27.3 0.4-2.6-0.2-2.4-0.5-1.5-1.5-0.7-1.1-1.9-5.2-0.7-1.5-0.8-0.7-1.3-0.7-3.9-1.1-2.3-0.4-1.2-0.6-1.4-0.8-3.5-3.2-2.1-1.5-4.2-1.8-3.7 1.2-6.4 6.2-1.8 1-1.4 0.3-0.8-0.2-0.5 0.5-1.2 1.9-2.1 1.1-0.2 0.5 0.5 1.1-0.7 2.2-1.3 2.8-0.4 1.9 0.3 0.6 1.1 0.2 0.4 0.6 1.6 4-0.1 1-3 1.5-1.5 1.2-2.8 1.6-0.9 1.3-1.9 1.4-0.4 0.6 0 1.7-0.6 3.3-0.7 1.8-1.3 1.3-1 0.6-0.9 0.1-0.6-0.3-0.4-1.4-0.4-0.5-1 0.1-3.2 2-0.6 0.9 0.2 0.7 1.1 2.3 0 1.1-0.5 0.4-3.3 0.7-1.7-0.3-0.4 0.4 0.3 1.3 0.1 0.9-0.5 2 0.2 1.7-0.1 1-1.2 0.6-4 3.1-1.1 0.2-2.1 0.7-1.3 0.7-1.8 1.3-1.2-0.1-1.5-0.6-16-10.3-1.1-0.4 14.7-16.5 2.3-3.6 2.1-4.8 1.3-4.9 0.3-2.3-0.1-2.2-0.8-1-1.4-0.9-0.8-1.2 2.1-4.6 0.2-2.5-0.2-2.7 0.2-3 0.9-1.4 3.3-2.6 1.2-1.5 0.4-4-2.8-15.7-0.2-4-0.4-1.5-1-1.7-2.4-2.5-0.6-1-0.2-1 0.4-2.1-0.1-1.1-0.6-1.3-2-2.5-0.8-1.3-1.3-5.1-1-2.1-2.8-4-1.1-2-0.9-3.2-1.9-15.9-3.4-11.7-2.9-5.8-6.8-3.4 7.4-6.9 4.1-2.2 3.9 4.5 3-0.2 5.8-1.8 5.5 1.4 6.2 4.9 5.9 2.6 4.7-5.3 0.1-1.2-0.5-2.7 0-1.2 0.8-1.9 3.3-4.2 0.7-0.6 1.9-1 0.6-0.7 0.1-0.7-0.4-1.6 0.1-0.7 5.2-6 0.8-2.4 0.6-5.5 0.6-2.7 0.8-0.9 1.1-0.6 0.9-0.9 0.3-1.7-0.8-1.8-3.7-3.2-1.2-1.7 0.4-6.6 8.1-12.4 1.7-6.4 0.2-4-0.3-1.4 2.5 0.1 6.9-1.1 1.6 0.5 1.5 1.4 2 1.2 2.9 0.2-0.5-1.9 6.1 2.6 3.8 0.7 1.1-0.3 0.5-0.9 0.8-0.6 1.1-0.1 2.1 0.8 2.5 2.3 0.9 2.3 0.9 1.2 0.2 0.7-0.5 1.3 0.1 0.7 0.6 0.4 1.1 0.3 2.3 1.2 1.3 1.1 1.5 1 1.1 2.5 1.7 1.7 1.7 2.8 0.8 0.7 1.7 0.5 3.4 0.5 2.7 0.9 1.3 0.9 0.6 0.9 1.7 1.2 0.4 0.7 0.5 1.5 0.6 0.4 0.7-0.2 1.2-1.2 0.6 0.2 1.4 1.7 0.9-0.1 1.2-0.4 2.5-1.3 1.8-1.8 0.8-0.6 1.1-1.2 1 0.6 0.8 1.5 0.8 0.2 1.2-0.1 1.4-0.6 1.4 0.1 2.4-0.3 1.5-0.9 1.6-1.5 1.6-0.7 1-0.1 1.7-2.1 1.1-0.8 0.4-0.5-0.8-1.9 0.1-0.7 2.6-2 0.2-0.9-0.2-1.8-0.2-5.1-0.3-1.2-1.1-1.8-0.3-1.8 0.5-1.6 0.9-1.5-0.4-0.7-1.4-1.7-0.5-1.9 0.3-4.1 1.4-5.6 0.6-1.1 0.8-1.1 1.2-1 2.6-1.9 1.1-1.1 1-1.3 1.5-1.1 1.4 0 1.2 0.4 2.4 2.1 1.8 1.3 1.5 1.6 1.3 2.1 0.8 0.6 1.3 0.5 5.7 1.4 2.8 1.3 6 3.9 1.1 1.2 5.5 9 1.5 3 4.8 1 20.6-0.1z" id="CIV3441" name="Dix-Huit Montagnes" data-id="CIV3441" data-name="Dix-Huit Montagnes">
 </path>
 <path d="M492.2 365l0.9 2.7 13.3 7.7-1.8 2-1.4 0.7-4.1-0.3-3-1.1-1.5-0.2-1.4 0.4-1.6 0.8-0.8 0.7 2 1.6 4.6 5.5 1.7 1.3 0.8 0.3 1.3 1.6 1.3 0.3 5.7 0 0.8 0.5 0.5 2.2 0.3 0.6 7.9 1.9 1 0.4 3.3 2.3 1.9 0.9 1.5 1.3 1.7 3.6 0.6 1 1.9 0.9 2.3 0.7 2.1 1.3 1.4 2.8-3.3 0 3 8 0.3 4.3-2.2 3.5-2.4 0-2.4 0.1-2.3 0.8 1.9 3.8-0.4 2.3-1.3 1.5-2-0.5-1.3 2.2-2.2-1.1-2.7-0.7-2.4 0.4-1.3 2.6-2.7-0.7-4.9-0.1-2.7 0.9 0.2 2.5-0.1 1.4-0.5 0.9-1 1.1-9.5 6.3-4.2 1.8-7 1.1-5.5-0.4-1.5 0.1-2.5 0.3-1.5 0.5-1.5 7.8 0.1 1.6 0.7 2.9 0.8 2.6-0.1 2-0.5 1.8-0.7 1.6-2.3 3.2-0.4 0.8-0.7 2.7-0.1 1 0.2 2.1 0.4 1.8 0.8 2.5-0.1 1.3-0.5 1.5-1.6 2.4-0.9 1-2.7 1.7-4.8 0.1-1.7 0.4-2.3 0.8-3.2 2.1-3 1.6-3 1.1-12.6-5-2.3-0.5-1.7 0.4-5.3 3.8-4.6 4.3-0.5 1.8-0.2 1.3 0.5 3.7-1.1 1.8-4.8 2.9-2.9-4.1-2.7-1.8-4.4-1.3-6.2-2.6-1.5-1-0.7-1-0.6-5.1-0.5-1.7-1.9-3.1-2-4.4-5-0.2-24.3 5.9-4.9 0.2-3.8-0.2-24.3-7.1-59.8 3.5-4.7 1.1-3.6 2.2-3.9 4.1-1.8-4.3-1-5.8-0.7-10.7-0.3-1.2-1.4-1.8-0.4-1.6 0.2-2.7 0.3-1.1 0.6-1.2 1.7-2.1 1.7-1.6 1.1-1.9 0-3.4-2-5.1-2.8-6.9-0.8-3.4 0-5.7 0.4-1.4 1.5-2.2 0.2-1.3-0.9-2.7-1.4-2.2-0.8-2.2 1-3.2-1.9-2.2-2.1-4.3-1-4.1 1.7-2.7-0.1-7.4-0.1-0.9 0.5-0.9 1.9-1.3-3.2-2-2.5-2.7-1.6-3.2-1.6-10.2 0-6.7-1-3.8-2.1-4.6-0.9-6.2-1.2-3.4-1.7-3.1-2.1-1.6 1.9-0.7 0.3-0.8-1.2-0.7-2.3 0 1.6-3.1 0.6-3.2 0.2-6.1 1.9-8 0.3-2.8 0.3-1.4 1.5-1.4 0.3-1.2-0.3-1.3-1.4-2.8-0.4-1-0.2-3-0.7-2.6-1.3-1.9-2.4-0.9 1.3-1.5 0.7-1.5 0.4-1.7 0-2.2 1-1.9 0-1-1.6-0.4-1.2-0.1-0.7-0.4-0.4-0.7 0.4-1 2.2-0.1 4.1-1.2 2.3-1.7 2.6-2.4 2-1.3 1.5-1.8 0.3-0.7 0.7-0.7 0.9-0.4 1-0.1 1.5 0.4 1.2 0.7 0.6 0.6 1.3 0.7 1 0.2 2.8-0.2 0.9 0.1 1.3 1 1.8 2.7 0.5 0.6 1.4 0.9 0.9 0.3 2 0.2 2.6-0.2 4.7-1 1.1 0.3 1.5 0.9 0.9 0.4 1.2 0.2 1.9-0.2 1.8 0.8 1.2 1.1 1.1 0.3 0.3-1 0.1-1-0.8-7.5-0.2-2.5 0.2-1.1 0.3-1.2 1.1-1.6 0.7-2.2 0.9-1 1.7-0.9 6.5-1.5 2-0.7 2-1.4 1.5-0.7 4-1.1 6-3.6 5.8 0.8-1.3 1.1-0.1 1.5 1.9 2.2 1.2 1.1 1.5 0.7 13.9 1 1.5-0.5 1.7-1 2.8-2.5 1-1.5 0.3-1.1-1.4-3.1-0.3-1.8 0.6-1.6 1.1-1.1 2.2-0.7 2.3 0 1.3 0.3 0.9 0.4 1.7 1.6 1 1.4 0.6 1.2 1.3 3.6 0.8 1.4 0.9 1.3 1.2 1.2 1.4 0.9 0.9 0.2 1.5-0.6 1.8-1.5 3.3-3.8 2.9-4.1 0.9-0.7 1.9-0.8 2.4-0.3 0.9-0.7 0.9-1.8 1-3.6 1.1-2.4 1.6-1.2 4.5-0.9 3.2 0.9 2.2 0.1 1.9 0.4 3.5 2.1 3.9 4.9 0.7 1.5 0.1 1.9-0.2 0.9-0.9 1.5-1.8 1.7-1 1.2-2.4 4.6-0.4 1.9 0.1 1 0.4 1.7 0.7 1.5 1.7 2.5 0.5 0.9 0.9 2.5 0.7 1.2 10.7 6.9 3.1 1.6 0.8 0.6 0.6 0.8 0.4 1.4 0.2 2.2 0.2 0.9 2.9 5.9 24.9 39.1 1.3 0.8 33.6 12.4 21.6 5.2z" id="CIV3443" name="Worodougou" data-id="CIV3443" data-name="Worodougou">
 </path>
 <path d="M483.7 574.8l-0.4 1.4 0.3 0.9-0.4 0.7-1.6 1-0.2 0.7 0.3 0.8 1 1.9 0.7 0.7 1.6 0.6 2 0 1.2 0.5 2.8 2.3 1.9 1.2 0.3 2.1 0.5 1.7 0.9 0.9 1.4 1 1 0.5 1.9 0.2 1.6-0.6 1.2-0.9 0.8-0.3 1.6-0.2 2.1 0.4 4.5 1.7 0.5 0.8 0.2 1-1.3 4.7-0.9 2.2-0.2 1 0.1 1.2 0.5 1.8 0.8 1.2 1.5 1.3 1.5 0.8 3.2 0.9 0.4 0.7-0.1 0.7-1.2 1.1-2 1-1.7 0.6-1.1 2-0.5 1.2-1.4 4.7-0.3 2.7-0.9 2.8-3.4 2.7-0.3 3 1.4 3.1 4.5 5.1 0.9 3.6 1.6 1.9 8 7.6 0.3 1.5 3.5 7.5 0.6 3.4-0.6 8.5-11.1-0.1-5 1.8-32.3 22.1-4.9 1.1-49.1-5.2-7.8-8.2-1.1-5.6 0.6-4-5.7-7.9-6.3-8.4-1.3-6.1 0-5.6-0.4-2.7-6-12.3-0.9-3.6-0.3-3.3 0.2-5.7 0.3-2.8 0.9-2.8 2.1-2.2 29.4-19 3.6-0.6 4.6-0.4 2.2-0.5 1.2-0.5 0.3-1.2 0.5-0.7 1.7-2-6.5-3.2-4-0.5-0.6-0.3-3-2.4-2-0.7-7.4-4.1-4.3-1.5-1.1-0.6-0.9-1.2-0.8-2.2-1.3-1.7-7.3-1.9-3.2-0.3-2.2 0.1-1 0.1-1.5 0.6-0.5 0.7-0.2 0.9 0 4.7-0.3 2.5-1.1 2.3-3.3 0.8-3.3 0.4-4.4-0.1-5.5-1-2.5-0.1-1.4-0.6-1.1-0.9-1-1.3-1.2-1.4-1.6-1.3-1.5-0.2-2 0.6-1.8 1-3.8 1.5-0.3-3.5 7.8-15.6 8.7-13.1 2-3.9 1.2-4.1 1.7-3.7 2.3-1.8 31.8-17.7 4.8-2.9 1.1-1.8-0.5-3.7 0.2-1.3 0.5-1.8 4.6-4.3 5.3-3.8 1.7-0.4 2.3 0.5 12.6 5 3-1.1 3-1.6 3.2-2.1 2.3-0.8 1.7-0.4 4.8-0.1 2 6 0.5 2.8-0.9 10.9 0.2 1.7 0.3 1.1 1.3 0.9 1.9 0.6 1.5 1.3 1.9 2.4 3.1 6.4 1.1 2.9 0.5 2-0.4 0.8-1.2 0.9-1.6 0.3-1.4 0 0.6 3.1 0.4 0.6 2.2 2.8-1.2 10.5 0.3 3.3 1 1.3 0.6 0.4 1.6 0.5 1.2 1.4 0.3 1-0.1 1-0.5 0.6-1.3 1.2-0.5 0.8 0.5 1.4 2.3 2.3 0.6 0.4 2.4 0.9 1 0.7 0.8 1 1.1 2 0.2 1-0.5 1z" id="CIV3444" name="Marahoué" data-id="CIV3444" data-name="Marahoué">
 </path>
 <path d="M524.3 676.3l0 1.1 0.7 3.2 1.8 1.1 8.9-0.2 3.8 1 2 2.1-1.5 3.6 0.6 2.6-3.8 5.4 2.7 1 2 0.2 0.4 0.7-0.8 2.4-0.3 2.2-0.4 0.7-0.9 1-0.6 1.3 0.7 0.9 1 0.8 0.5 1-0.2 4.4 0.2 3.2 1.2 2.6 2.8 2.8 2.7 0.8 5.7-2 3.2 1 0.2 5.7 0.2 1-0.3 4.4-4.9 13.3-7.5-2-3.6-0.6-31.4 11.1-36.6-4.9-4.5 9.3-1 3.5 0.7 6 0.8 3.5 0 1.5-4.5 8.4 0.2 3-0.2 3-0.6 1.1-0.9 1.1-2.2 1.6-1.5 0.5-1.3 0.1-7.5 6.9-30.2 35.6-0.4-1.9-0.5-0.5-1.4-0.9-0.3-1 0.3-2.8-0.5-1.6-0.5-0.6-3.6-3-1.3-3-0.7-1-3.9-2.4-1.2-0.5-3.8 0.1-9.4 2.7-4.9-10.9-0.9-1.5-0.8-0.9-1.9-1.5-0.6-1-0.5-1.6-0.8-9.2-0.3-1.3-0.5-1.4-1.3-2.5-0.8-1.2-1.3-1.6-3.5-3.1-1-1.3-3.2-5.7-3.2-8.7-2.1-7.8-2-25.3 4.8-0.6 6-1.7 4.9-2 2.9-0.7 2.3-0.3 8.2 0.6 1.8-0.4 1.4-0.8 9.5-8 1.5-0.4 1.6 0.5 3 1.6 1.3 0.9 1-0.7 1.4-1.8 3.9-7.6 1.4-4 1.7-10 49.1 5.2 4.9-1.1 32.3-22.1 5-1.8 11.1 0.1z" id="CIV3445" name="Fromager" data-id="CIV3445" data-name="Fromager">
 </path>
 <path d="M411.3 515.2l-31.8 17.7-2.3 1.8-1.7 3.7-1.2 4.1-2 3.9-8.7 13.1-7.8 15.6 0.3 3.5 3.8-1.5 1.8-1 2-0.6 1.5 0.2 1.6 1.3 1.2 1.4 1 1.3 1.1 0.9 1.4 0.6 2.5 0.1 5.5 1 4.4 0.1 3.3-0.4 3.3-0.8 1.1-2.3 0.3-2.5 0-4.7 0.2-0.9 0.5-0.7 1.5-0.6 1-0.1 2.2-0.1 3.2 0.3 7.3 1.9 1.3 1.7 0.8 2.2 0.9 1.2 1.1 0.6 4.3 1.5 7.4 4.1 2 0.7 3 2.4 0.6 0.3 4 0.5 6.5 3.2-1.7 2-0.5 0.7-0.3 1.2-1.2 0.5-2.2 0.5-4.6 0.4-3.6 0.6-29.4 19-2.1 2.2-0.9 2.8-0.3 2.8-0.2 5.7 0.3 3.3 0.9 3.6 6 12.3 0.4 2.7 0 5.6 1.3 6.1 6.3 8.4 5.7 7.9-0.6 4 1.1 5.6 7.8 8.2-1.7 10-1.4 4-3.9 7.6-1.4 1.8-1 0.7-1.3-0.9-3-1.6-1.6-0.5-1.5 0.4-9.5 8-1.4 0.8-1.8 0.4-8.2-0.6-2.3 0.3-2.9 0.7-4.9 2-6 1.7-4.8 0.6-4 0.6-10.1 4.1-2.8 0.1-2.9-1-8.1-4.9-1.8-0.7-1.4 0.8-12.1 9.1-1.8 0.9-1.5 0.4-23.5 0.1-1.8-0.5-2.4-1.6-18.9-22.7-3.3-8.6 0-0.9 0.7-1.3 1.6-1 2.5-0.7 0.6-0.4 0.6-1.4 0-2.5-0.3-1.8-1.4-3-5.5-4.7-1.5-1.2-0.5-0.7 0.5-2.8 5.1-7.8-0.4-4.7 0.3-2.2 0.7-1.6 0.3-1.9-2.8-14-0.7-2-0.9-1.5-2.1-2.6-2.2-2-3.3-1.2-0.7-0.4-1.3-1.6-0.7-1.4-0.3-1.3 0-1.3 0.7-1.8 1.3-1.8 0.3-1.7-2.4-3.6-0.4-3.4 0-1.9 0.8-5.1 2.8-9.4 0.6-2.3-0.2-2.5-6.3-15.1 0.1-1.8 1.1-5.6-0.4-1.5-0.7-1.8-0.3-1.8 0.8-1.7 1-2.9-0.3-4-1.5-8.3-0.7-1.7-0.1-1.1 0.3-1 1.5-0.7 0.9-1.5 1.1-1.3 1.1-1.6 0.5-1.8 1.5-2.3 3.2-1.1 2.8-1.8 0.4-4.4-0.6-1-2.2-1.3-0.5-0.6 0.2-1 0.7-0.7 0.2-0.5-0.2-1.7-0.9-3.9 1.4-2.2 2.9-1.3 2.4-1.8 0-3.2-1.3-1.1-3.6-0.4-1.5-2.9-1.8 0-3.6 1.1-1.1-1.5-1.8-7.2-1-2.7 0.8-1.5 0.5-1.6 0-1.8-0.1-1.9 3.9-4.1 3.6-2.2 4.7-1.1 59.8-3.5 24.3 7.1 3.8 0.2 4.9-0.2 24.3-5.9 5 0.2 2 4.4 1.9 3.1 0.5 1.7 0.6 5.1 0.7 1 1.5 1 6.2 2.6 4.4 1.3 2.7 1.8 2.9 4.1z" id="CIV3446" name="Haut-Sassandra" data-id="CIV3446" data-name="Haut-Sassandra">
 </path>
 <path d="M551.9 745.6l11.2 10.6 6.6 2.7 16.7 2 2.5 0.8 1.7 1.5 0.6 3.5 0.8 20.2 1.9 12.7 8.1 15.4-9 23.4-0.4 1.3 0.5 1.6 0.9 1.3 1.5 2.9 0.3 0.8 0.7 3.5-0.1 2-0.3 2.3-1.8 6-10.3 24.8-0.6 1.8-0.2 2.4 0.3 3.9-0.3 1.9-5.7 12.7-0.8 1-1.3 1.2-0.9 0.3-1.2 0-1.8-0.7-2.4-1.8-1.5-0.2-2.2 0-10.2 0.8-1.6 0.7-0.3-0.4-1 0-1.8 1.9-2.9-0.9-3.1-1.3-2.4 0.3-1 0-1.8-0.7-0.9 0.6-0.1 1.6 0.7 2-2.4-1.1 0 2.2 1.4-0.4 0.9 1.5-2.6-1.1-1.8-1.2-8.5-7.3-1.5-0.8-1.7-0.6-2.1-0.3-1.2 4.3 2.4 22.1-11 0.6-4.7-0.7-4.2-2.5-4.6 3.3 3.4 1 1.2 0.1-13.1 4.1-36.1 5.4-1.2 0.4-0.1-0.5-2.2-16.3 0.1-2 0.7-2.6 1.1-2.2 1.7-1.7 1.3-0.9 1.6-0.7 13.1-3.3 1.5-10.5-13.9-46.5-20.4 6.9-2.6 0.4-0.9-1.5-0.7-0.9-1.6-0.7-1.6-1.1-1.7-2-0.9-1.3-0.8-3.4-1-2.1-0.2-2.7 0.8-2.4 0.1-1.6-1.7-2.7-2.1-2.6-1.1-1.8 30.2-35.6 7.5-6.9 1.3-0.1 1.5-0.5 2.2-1.6 0.9-1.1 0.6-1.1 0.2-3-0.2-3 4.5-8.4 0-1.5-0.8-3.5-0.7-6 1-3.5 4.5-9.3 36.6 4.9 31.4-11.1 3.6 0.6 7.5 2z" id="CIV3447" name="Sud-Bandama" data-id="CIV3447" data-name="Sud-Bandama">
 </path>
 <path d="M363.3 731.4l2 25.3 2.1 7.8 3.2 8.7 3.2 5.7 1 1.3 3.5 3.1 1.3 1.6 0.8 1.2 1.3 2.5 0.5 1.4 0.3 1.3 0.8 9.2 0.5 1.6 0.6 1 1.9 1.5 0.8 0.9 0.9 1.5 4.9 10.9 9.4-2.7 3.8-0.1 1.2 0.5 3.9 2.4 0.7 1 1.3 3 3.6 3 0.5 0.6 0.5 1.6-0.3 2.8 0.3 1 1.4 0.9 0.5 0.5 0.4 1.9 1.1 1.8 2.1 2.6 1.7 2.7-0.1 1.6-0.8 2.4 0.2 2.7 1 2.1 0.8 3.4 0.9 1.3 1.7 2 1.6 1.1 1.6 0.7 0.7 0.9 0.9 1.5 2.6-0.4 20.4-6.9 13.9 46.5-1.5 10.5-13.1 3.3-1.6 0.7-1.3 0.9-1.7 1.7-1.1 2.2-0.7 2.6-0.1 2 2.2 16.3 0.1 0.5-18.4 5.7-2.7 1.5-1.2 1.5-1.9-0.1-8.6 3.2-12.9 6.6-44.6 15-1.4 1.1-1 2.5-2.4 1.3-17.3 4.2-3.3 0.4-2.7 0.9-4.3 4.2-2.7 1.7-20.6 6.1-16.4 1.1-4.2 2-3.9 1-1.8 1-4.6 5.6-8.8 7.4-10.1 6.2-6.7 2-12.1 1.3-9.7 4.2-2 1.3-1.7 3.2-1.7 0.3-2.1 0-1.6 0.5-2.9 2.5-8.8 4.8-12.8 10.7-3 1.1-3.9-0.3-7.1-1.4-2.7 0.3-5.4-3.7-0.9-2 0.2-1.6 1.8-3.1 0.5-1.6-0.3-1.5-1.1-3.3 0.3-4.2-0.3-1.7-0.5-1.5-0.2-1.5 0.7-35-0.7-8.6-0.4-1.4-1-1.2-1.3-1-1.2-1.2-0.9-1.9 0.1-1.4 0.9-3.4 0.2-1.9-1.1-5 0-1.6 5-3.9 2.2 0.2 1.3 1 0.7 0 0-2.5-1-3.1-1.5-2.2-1.1-2.2 0.2-3.6-1.3-9.5 0.4-2.8 2-3 2.7-1.2 2.8 0 2.3 1 4.4-8 0.9-2.9 0.2-2.8-1.4-7.7 1.7-5.4 0.7-1.5 1.2-1.5 4.3-2.3 0.4-0.5 1.8 0.4-0.2 0.6-0.9 0.8 0.2 0.9 0.5 1 0.1 1.3 0.3 0.6 1.6-0.7 0.8-1 0.6-2.7 0.4-1.1 2-2.8 1-1.7 0.1-1.8-0.4-3.2-0.9-3.1-1.2-0.2-1.7 0.3-2.5-1.4-1.5-2.2-1.1-2.8-0.7-2.9 0-2.6 2.3 1.2 0.7-1.8-0.1-6.1 1.2-2.4 1.9-1.6 0.9-1.3-2-1.9 1.1 0.1 3.2-0.2-2.2-2.9-0.8-3.1 1.2-2 3.4 0.6-2.1-2.6-3.4-7.1 2.9-0.6 49.9-9.7 2.1-50.6-0.8-14.7-1.8-7-2.2-32.2-0.8-21.8 0.9-5.1 1.8-1.6 1.3-0.8 2.6-1 1.2-1.1 2.1-3.1 0.4-0.4 2.6-1.5 0.8-0.4 4.4-1 1.2-0.1 5.5 4.7 1.4 3 0.3 1.8 0 2.5-0.6 1.4-0.6 0.4-2.5 0.7-1.6 1-0.7 1.3 0 0.9 3.3 8.6 18.9 22.7 2.4 1.6 1.8 0.5 23.5-0.1 1.5-0.4 1.8-0.9 12.1-9.1 1.4-0.8 1.8 0.7 8.1 4.9 2.9 1 2.8-0.1 10.1-4.1 4-0.6z" id="CIV3448" name="Bas-Sassandra" data-id="CIV3448" data-name="Bas-Sassandra">
 </path>
 <path d="M902.6 608.1l-0.2-3.1-6.8-13-1.9-2.2-2.6-2.3-5.4-3.4-3.7-2.8-2-1.2-11.8-3.7-3.5-0.5-2.1 0.1-1.3 2.2-1 1.3-0.6 0.5-0.8 0.1-1-0.4-2.7-3.1-2.2-2.2-0.8-1.4-2.5-8.4-0.6-0.8-1-0.9-2-1-1.1-0.7-0.9-0.3-1.4 0.3-1.5-0.9-1 0.3-2.6-0.9-1.4 0.1-5.2 1.6 2.4-3.7-0.2-3.8 2.6-1.4 0.5-2.6-1-6.7-0.5-0.1-3.6-5.3-0.5-1.3-0.7-1-1.4-0.7-1.8-0.3-2.1-0.7-2-0.9-1.3-0.9-0.2-1.6 3.2-3.1 0.9-2-1.4-4.9-3.2-0.8-6.5 1.7-1.4-0.9-0.8-1.6-1-1.4-1.9-0.6-0.6-1.1-0.2-2.3-0.6-2.4-1.9-1.1-4.1-0.7-1.8-1.8-1.5-5.4 1.3-3.8-2.1-1.8-3.6-0.4-3.3 0.3-1-1.1-1.3-0.8-1.6 0-1.8 0.8-1.1-3.3-1.7-1.7-2.5-0.6-3.7 0 0-1.1 1.8-0.8 0.2-1.2-1-3.2-0.4-0.7-1.1-1.5-0.2-1 1.5-2 0.4-0.9-0.8-2.8-1.7-3.1-2.1-1.5-2.2 1.8-1.6-1.4-4.9-1.2-2.4-0.8-2.6-1.5-0.1-0.5 1.5-0.4 2.2-1.1 2.9-2.4 1.3-1.6 0.4-1.5-1.2-3.2-1.6 0.2-1.7 1.3-1.6-0.1-2.3-0.5-2.8 0.9-2.4 0-1-2.7 1-7.4 0.8-6.1 1.8-4.1 2.8-2.1 3.6 1.2 0.7-0.8 1.3-1.8 0.4-0.8-2.2-1.9-6.2-7.8-1.8-0.8-1.6-0.2-1.2-0.5-0.5-1.9 0.6-2 2.4-3.4 0.4-2-0.9-1.6-3.9-2.3-0.8-1.2-0.2-1.6-0.7-2.4-0.1-1.5 1.7-0.3 8.1 0.1 2.4-0.5 1.3-1.7 0.4-1.7-0.3-1.6-0.8-1.3-1.7-1.8 0-0.6 0.7-0.4 0.7-2.1 0.9-1.2-0.1-1.2-0.5-0.7-1.7-0.3-0.9-1.3-0.9-1-0.4-1.3 1.1-2.2 0.5 0.6 2.2-0.4 3.4-1.2 1.8-5.2-1.5-3.2-6-3.4-0.4-2.9 0.9-0.9 2.8-0.9 1.3-2.2 4.5-3.5 0.3-2.3-1-3.6-0.7-0.9-0.9-2.5-1.6-1.4 1.7-5.9 1.6-2.3 2.8-0.9 4.9-0.1 2.2-0.6 1.3-1.5-2.5-0.7 0.5-1.4 3.1-2.5 4.1-6.7 1-1.1 2 0.6 1.6 0.8 1.1-0.6 0.4-3.6-0.8-2.2-1.8-2-2.2-1.2-2.1 0.2-0.3-0.9-0.7-0.2 1.3-1.7 0.6-0.4 1.4-0.2 0-1.2-3.1-2.6-4.9-5.8-2.6-2.3-2.6-4 1.3-2.9 3.5-2.1 4-1.7 2.2-0.4 2.3-0.1 1.8-0.7 0.4-2.2-1.3-1.8-2.4-1.5-2.7-1-5.8-1.4-1.3-2.7 0.6-3.7 1.6-3.8 1.6 2.5 1.8 2 1.3-0.3-0.1-4.2-1.1-2.6-1.9 0-2.7 1-3.3 0.4 0.3-0.6 0.9-0.4-2.3-2.5 2-5.6-2.6-1-4.9 0.3-1.2-0.3-0.7-1.3-0.4-1.9-0.5-1.7-1.2-0.8-1.8-0.3-3.3-1.7-6.7-1.4-4.4-2.9-4.5-3.8-0.9 0.7-3.6 0.3-2.5 0.8-3.1 1.5-1 1.3-0.1 1.2-0.4 0.5-1.9-0.7-1.3-1.9-0.7-1.5-0.3-1.2 0.4-2.7 0.8-1.7 0.5-1.8-0.4-2.9-0.5-0.6-1.4-1.3-0.4-1.4 0.1-1.4 0.9-2.6 0.2-1.6 0.9-1.7 0.2-1.3-0.4-1.2-1.5-2.7-0.8-5.5-1.3-2.2-4.5-4.2-1-1.4-0.5-1.2-0.2-1.3 0-1.8-0.4-1.8-0.9-1-1.3-0.7-1.3-1-7.2-9.7-2-0.9 1-1.2 2.2-4.2 0.4-2.1-0.5-3.9 0-1.5 0.9-1.5 4.9-5.2-2.6-0.8 2.2-1.9 2.8-1.1 6.1-0.7 3.1-1.7 4.6-6.6 3-2.3 2.8-0.3 9.3 2.7 1.7 1 0.9 0.3 1.1-0.2 0.5-2.1 2.5-1.2 1.4-0.5 5.2-0.1 1-2.3 0.7-2.7 2.5-1.3 3.5-0.9 6.1-4 3.3-1 10.8-0.2 3.2-0.9 1.4-1.1 2.6-2.8 1.6-1.1 2.4-0.8 7.9-0.9 1.3 0.1 2.1 1.2 1 0.3 0.9-0.6 1.5-1.8 0.6-0.4 2.2 0.7 1.2 1.2 1.1 1.3 1.7 1.3 2.8 0.6 9.8-1.3 25.7 2.1 2 0.8 2.9 2.6 1.7 1 1.5-0.6 1.9-1.2 1.7-0.6 0.7 1.1-0.1 3.3 0.3 3.4 1.6 2.2 3.9-0.4 2.3-2.3 5.5-7.9 2.5-1.8 2 1.2 0.1 3.2-0.4 3.9 0.7 3.4 2.9 1.6 3.7 0.1 3.7 0.9 3.3 4 2.1 8 1.6 3.8 2.8 2.4 3 0.2 5.6-1.7 3.1 0.7 2.5 2.6 2 3.9 2.9 7.7 8.2 15.9 16.2 21.8 3.8 2.9 3.9 0.3 3-2.7 4-8.5 5.1-4.9 2.3 2.9 0.1 2.3-0.6 5.3 0.2 1.3 0.8 2.8 0 4.4-0.9 2.8-1.9 1.3-2.2 1-1.7 2.2-0.3 3.1 1.3 2.6 2.3 1.7 2.9 0.6 2.5 1.5-0.2 3.1-1.9 3.2-5.2 2.7-1.9 3-2.9 5.8-3.4 3.6-0.7 1.4-0.3 8.3-0.7 2.6-1.5 2.3 1.6 0.9 1 1.1 1.3 0.9 2.2 0.4 4.2 0.2 4.2 0.9 4.1 2.2 1 2.7 0.2 3.4 2.6 7.7 0.9 0.8 1.1 0.1 0.9 0.4 0.4 1.5 0.2 2.8 3.3 11.5-0.1 2.3-1.8 1-1.2 1-0.4 2.2 0.8 1.3 1.5-0.7 0.8 2.6 7.5 46.3 7.5 46.2-1.1 2.5-7.4 4.4-2.2 0.7-1.9-0.2-2-1-1.4 0-1 0.9-1.2 2.2-0.7 2.6 0.4 2.1 2.2 4.8 1 3.9-0.1 2.9-1.6 2.1-3.4 1.8-9.7 3.2-3 2.2-7.5 8.6-2.7 2.3-1-1.5-1.1-0.7-1 0.1-0.5 1.2-0.7 12.3-0.5 1.8-1.3 1.4-3.7 2.2-1.4 1.4-0.1 0.8 0.5 2.1-0.1 0.9-0.6 1.1-1.7 2-0.6 1.1-11.8 25.4-2.2 6.6-7.9 50.5 0.1 1.9 1 2.3 1.1 1.4 0.8 1.3-0.2 2.3-1.4 3.2-7.5 9.4-0.8 1.6-1.4 8.3-0.8 1.1-8.1 2.7-0.2 0.1z" id="CIV3449" name="Zanzan" data-id="CIV3449" data-name="Zanzan">
 </path>
 <path d="M766.3 351l0.7 0.9 1 3.6-0.3 2.3-4.5 3.5-1.3 2.2-2.8 0.9-0.9 0.9 0.4 2.9 6 3.4 1.5 3.2-1.8 5.2-3.4 1.2-2.2 0.4-0.5-0.6-1.1 2.2 0.4 1.3 0.9 1 0.9 1.3 1.7 0.3 0.5 0.7 0.1 1.2-0.9 1.2-0.7 2.1-0.7 0.4 0 0.6 1.7 1.8 0.8 1.3 0.3 1.6-0.4 1.7-1.3 1.7-2.4 0.5-8.1-0.1-1.7 0.3 0.1 1.5 0.7 2.4 0.2 1.6 0.8 1.2 3.9 2.3 0.9 1.6-0.4 2-2.4 3.4-0.6 2 0.5 1.9 1.2 0.5 1.6 0.2 1.8 0.8 6.2 7.8 2.2 1.9-0.4 0.8-1.3 1.8-0.7 0.8-3.6-1.2-2.8 2.1-1.8 4.1-0.8 6.1-24 4.8-3.5 1-2.2 1.9-3.6 5.6-9.3 10.1-3.1 2.4-12.8 6.3-4.2 3.7-2.4 1.1-2.7 0.6-1.9 0.2-2.2 0-3.3-1.3-1.7-0.2-1.2 0-6.4 1.5-1.5 6.3 0.3 2.8 0.4 0.9 0.5 1.8 2.5 19.4-0.5 1.8-0.8 1-1 0-5.2-1.4-2 0-0.9 0.4-1 0.7-0.8 0.9-1.6 2.2-1.7 1.9-0.9 0.8-4.1 2.9-3.5 4.3-13.1 0.5-4.2-0.5-0.9-0.6-3-3-2.1-1.3-1.4-0.5-1.2-0.1-9.7 0.6-2.5 0.7-1.9 1-2.8 3.5-2.5 4.5-1.3 1.3-2 1.2-9.2 3.5-2.3 1.3-1.9 1.8-1.5 1.9-1 2.1-0.4 1.1-1 1.2-1.7 1.4-18.3 8.9-2.9 3.4-1.8 3.8-0.9 1.1-0.9 0.3-2.6 0.1-2 0.9-1.2 1.3-3 3.9-1.3 0.8-1.1 0.3-3.1-0.5-1.1 0-5.1 1.4-1.5 0.2-1.3 0-2-0.9-1-0.8-2.8-3.1-3.3-4.8-0.8-0.9-1-0.9-1.5-0.6-1.2 0-1.1 0.2-6.8 2.8-18.8 4.7-2.7 0.1-4.8-0.6 0.5-1-0.2-1-1.1-2-0.8-1-1-0.7-2.4-0.9-0.6-0.4-2.3-2.3-0.5-1.4 0.5-0.8 1.3-1.2 0.5-0.6 0.1-1-0.3-1-1.2-1.4-1.6-0.5-0.6-0.4-1-1.3-0.3-3.3 1.2-10.5-2.2-2.8-0.4-0.6-0.6-3.1 1.4 0 1.6-0.3 1.2-0.9 0.4-0.8-0.5-2-1.1-2.9-3.1-6.4-1.9-2.4-1.5-1.3-1.9-0.6-1.3-0.9-0.3-1.1-0.2-1.7 0.9-10.9-0.5-2.8-2-6 2.7-1.7 0.9-1 1.6-2.4 0.5-1.5 0.1-1.3-0.8-2.5-0.4-1.8-0.2-2.1 0.1-1 0.7-2.7 0.4-0.8 2.3-3.2 0.7-1.6 0.5-1.8 0.1-2-0.8-2.6-0.7-2.9-0.1-1.6 1.5-7.8 1.5-0.5 2.5-0.3 1.5-0.1 5.5 0.4 7-1.1 4.2-1.8 9.5-6.3 1-1.1 0.5-0.9 0.1-1.4-0.2-2.5 2.7-0.9 4.9 0.1 2.7 0.7 1.3-2.6 2.4-0.4 2.7 0.7 2.2 1.1 1.3-2.2 2 0.5 1.3-1.5 0.4-2.3-1.9-3.8 2.3-0.8 2.4-0.1 2.4 0 2.2-3.5-0.3-4.3-3-8 3.3 0-1.4-2.8-2.1-1.3-2.3-0.7-1.9-0.9-0.6-1-1.7-3.6-1.5-1.3-1.9-0.9-3.3-2.3-1-0.4-7.9-1.9-0.3-0.6-0.5-2.2-0.8-0.5-5.7 0-1.3-0.3-1.3-1.6-0.8-0.3-1.7-1.3-4.6-5.5-2-1.6 0.8-0.7 1.6-0.8 1.4-0.4 1.5 0.2 3 1.1 4.1 0.3 1.4-0.7 1.8-2-13.3-7.7-0.9-2.7 1.3-1.3-0.1-1.4-0.3-0.9-0.6-0.5-2.5 0.1-1.8-1.2-0.5-1.5 0.2-1.9 0.1-4.6-0.4-0.8-1.3-1.1-1.7-0.5-1.8 0-2 1.2-0.8 0.1-0.6-0.3-1.7-1.7-0.4-0.6-0.2-0.9 0-2.7 0.2-0.6 1.4-0.6 0.3-1.4 0.1-1.2 0.5-3-0.2-1.1-0.8-1.5-0.2-0.7 0.1-0.8 1-0.7 1.8 0 0.8-0.2 0.5-0.6 0-0.9-0.6-0.6-1.5-0.8-0.4-0.7-0.6-1.7-0.4-0.7-1.5-0.8-0.8 0.2-0.7 0.6-0.6 1.3-0.7 0.7-0.5 0-0.3-1 0.1-1.4 1.7-5.9 2.3-5.8 0.8-1.1 1.3-0.4 1 0 1 0.3 1.3 0.9 0.9 0.3 3 0.3 1.8 0.4 0.9 0 1.7-0.5 1.5-0.7 1.3-0.9 2.3-2.3 0.6-0.5 1.6-0.6 1.8-0.4 2.9-0.2 2.4 0.4 1.5 0.8 2.7 0.1 0.9-0.6 1.6 0.1 2.8-1 1.2-1.7-0.3-2-1-0.3-2.4-1.7-1.7-1.8 1.1-0.8 4.2-1.3-0.9-6.4 4-2.5-2.4-1.9-0.9-0.5 0-1 1.7-0.1 1.8 0.2 1.6 0.4 1.5 0.5-2.7-5-9.8-6.4 0.2-4.4 3.7 0.6 2.5-2.2 1.7-3.8 2-7.2 0-2.8-1-2.5-2.2-2.5 5 0.3 3.1-3 1.6-4.9 0.4-5.3 1-4.4 2.5-4.4 5.4-6.7 3.6 0.9 7.5-1.2 2 0 0.9 0.2 1 0.9 1 1.5 3.9 9.6 1.2 1.7 1.3 0.9 1.1 0.4 1.1 0.1 1.6-0.6 1.8-1.7 1-1.2 0.8-0.5 1.3-0.3 16.7 2.8 2.5 0.8 1.8 0.9 0.5 1.9 0.6 5.1 0 2.3 0.1 1.2 0.4 1.2 1.5 2.5 1.6 1.5 0.9 1.4 1.9 4.8 0.8 1.1 0.9 0.7 2.4 1 1.8 1.6 0.8 0.4 2.4 0.4 2.1 1 1.6 0.3 1.2 0.9 0.5 0.7 0.2 1.4 0.1 1.9-2.2 15.1 0.2 0.5-0.2 1.1-0.7 1.7-2.1 3.2-1.3 1.2-1.2 0.5-1.2 0.9 0 6.1 59.6 1.9 2-1 1.9-0.7 1.2 0 1.3 0.4 6 2.3 1 1.1 0.9 1.4 1.4 0.9 2.2 0.9 5.5 1.4 2.3 0.8 1.5 0.9 1.6 2.9 1.1 1.1 2.9 1.6 1.3 1.1 0.9 1.4 0.5 1.7 1.4 10 0.6 1.8 0.8 0.9 0.9 0.4 1.1 0.1 3.8-0.9 1.2-0.1 1.8 0 1.1 0.3 0.8 0.6 0.4 0.7 0.3 1.9 0.5 1 1 1 3.3 1.9 0.8 0.8 0.7 1.7 0.6 0.9 1.2 1 1 0.4 1.9-0.1 2.9-1 1.6-0.2 1 0.3 0.8 0.5 1.4 1.5 1.1 1 1.2 0.3 1 0 1.8-0.5 3.3 0.1 3.6 0.8 1.9 0.2 1.5 0 2.9-0.8 1.3-0.1 2 0 2.6 0.6 1 0.7 1.6 1.9 0.9 0.7 0.9 0.3 0.8-0.1 2.6-1 1.6-0.5 2.4-0.4z" id="CIV3450" name="Vallée du Bandama" data-id="CIV3450" data-name="Vallée du Bandama">
 </path>
 <path d="M842 808.1l-40.9-11.2-1.1-0.2-1.3 0.2-1.4 0.6-12 7.7-6.9 7.2-2 1.8-1.9 0.7-1.3 0.3-2.4 1.1-3.4 4.9 1.1 18.4-0.4 2.3-1.8 1.7-61.4 3.3-5.3-0.2-4.8-2.1-7.7-4.4-2.5-1.8-1.6-1.9 0.7-2.5-4-8.4-32.2-20.9 32-60.1 5.1-8.5 0.7-0.5 0.9-0.1 1.2 0.9 0.6 0.7 1.1 2.5 1.1 1.1 2.3 1.2 4 2.7 1.9 1.5 1 0.5 5.5 1.3 5.4 1.9 3.5 0.7 0.8 0.5 3.5-0.8 13.1-7.2 0.3-2.4-0.1-2.1-0.9-2.5-0.7-3.5 0.1-1.7 0-1.8 0.2-2.9-0.4-2.8 0-3.2 0.8-3.7 1.4-3.1 0.9-1.4 4.1-4.5 0.7-1.3 0.7-2 0.9-1 1.4-1.1 8.9-3 42.4-20.6 0.9 1.8 2.1-0.7 2.4-0.4 3.6 0.1 0.9-0.1 2.3-2.7 1.6-0.9 1.6 1.4 0.4 2.1-1.3 4.8-0.1 2.1 0.6 1 2.1 1.6 0.7 0.7 0.4 1.3 0.4 2.7 0.8 1.1 0.7 1.6 1 7.5-0.3 1.1-1.7 1.6-0.3 0.6 0.2 1.3 1 2.1 0.7 1 3.2 3.3 1.1 0.6 1.7 8 3.4-0.5 3.1 1 2.6-0.1 2.1-3.8 6.8 7.7 3.8 5.4 2.3 6.7 1.1 1.6-0.2 0.9-3.2 0.3-1 0.6 0.4 1.4 0.8 1.2 0.8 0.5 1.2 1.7 0.9 1.9-0.3 0.6 1.9 0.2 0.8-2.7 1.8-0.9 2.1 1 2.7 5.7 1.3 1.3 0.6 8.3-1.1 2-2.2 1.4-2 1.8-0.4 3.2 0.9-0.4 2.6-0.7-1.2 3.4 2.6 1.4 1.8 2.8 0.2 3.3-1.8 3.2-1.5 0.8-1.7 0.4-1.4 0.6-0.5 1.6-0.2 2.1-0.4 1.8-5.2 10.2-0.7 2.9-0.2 3.3z" id="CIV3451" name="Agnéby" data-id="CIV3451" data-name="Agnéby">
 </path>
 <path d="M831 561.4l-1.5 2.5 0.3 3.6 2.4-1.1 0.1 0.9 0.9 0.2-1.1 2.5-1.2 0.8-3.3 0.2-4.3 0.8-0.2 1 0.2 4.8 0.3 1.8 0.1 1.8-0.6 2-0.9 2.1-0.6 1.1-1.1 0.6-1.9 0.8-0.5-2.7-1.7-0.6-2 1.1-1.4 2.2 0 2.1 1.5 5.3 0.7 1.6 1.5 1.7 1.7 0.9 4.7 0.8 0.1-0.5 1.2-0.7 1.3-0.3 0.7 0.9-0.2 1.2-0.4 0.8-0.7 0.6-0.9 0.3 1.1 2.7-2.1 0.2-5.8-1.8-0.4 3.5-2.2 1.5-5.1 0.7-3 1.2-1.7 1.8-1.4 1.9-1.8 1.8-6.1 1-3.9 3.5-0.9 4.2 1.6 2.7 1.5 0.1 1.1-3.7 2.3 1.7 1.5 3.1 0.4 2.9-1.4 1.4-1.6 1-2.2 2.4-1.8 2.9-0.5 2.7 1.4 0.9 2.7 2.3 1.6 2.4-1.8 1.1-0.4 1.2-6.9 6.8 4.2 8.9-0.3 3.5-5 2.2 2.3 1.8 1.1 2.1 0.7 2.4 0.5 0.9-42.4 20.6-8.9 3-1.4 1.1-0.9 1-0.7 2-0.7 1.3-4.1 4.5-0.9 1.4-1.4 3.1-0.8 3.7 0 3.2 0.4 2.8-0.2 2.9 0 1.8-0.1 1.7 0.7 3.5 0.9 2.5 0.1 2.1-0.3 2.4-13.1 7.2-3.5 0.8-0.8-0.5-3.5-0.7-5.4-1.9-5.5-1.3-1-0.5-1.9-1.5-4-2.7-2.3-1.2-1.1-1.1-1.1-2.5-0.6-0.7-1.2-0.9-0.9 0.1-0.7 0.5-5.1 8.5-38.9-9.5 1-0.3 0.2-0.7-0.9-2.2-0.7-0.6-0.8-0.1-1.7 0.3-0.7-0.2-0.2-0.5 1.5-3.3 1.3-1.3 0.5-1.3 0.4-2.4 0.5-1.3 0.2-1.1-0.3-0.9-1.7-1.6-0.1-0.5 1.4-0.9 0.1-0.6-0.6-0.2-1.9-0.1-0.7-0.4-0.3-0.8 0.1-1.5-0.1-1-0.8-0.7-1.6-0.7-0.1-0.7 0.5-0.8 0.6-0.2 0.5-0.6-0.1-1.3-0.9-2.7-0.9-1.1-0.9-0.7-2.6-0.7-0.8 0.2-2.4 0.9-0.9 0-0.7-0.4-0.5-1 0.1-2.2 0.3-1.9 0.7-2.5 0.3-2.5 0.2-0.7 1-0.4 2.5 0.5 0.7-0.4 0.4-0.6-0.3-1.2-0.8-1.7-0.1-1.5-1-1.1 0.5-1.2 4.3-1-11.3-4.2-2.3 0.2-2.2-0.4-1.7 0.2-1.5 0.8-1.2 1-1.5 0.6-2.9 0.3-0.6 0.4-0.3 2.1-0.6 0.4-1.7 0-1-0.4-0.8-0.8-1-1.3 0.1-1.6 0.8-0.9 0.2-0.6-0.4-1.6-0.5-0.6-1-0.2-1-0.5-2.1-2.4-0.4-1.1 0.1-2 0.9-1.9 0.5-2 0.5-1.4-0.4-1-1.6-1.1-1.3-1.2-0.9-0.6-0.7-2.4 2-6.7 0.9-5.4 3.6-1.8 1.4 0.6 2 0.2 14.9-6.8 1.4-0.8 1.2-1.4 0.4-1.2 0-1.2-1-2.4-0.2-1.1 0.1-1.1 1-2.5 0.4-2.1-1.5-4-1.5-3.6 0.1-1.8 0.4-0.8 2.2-2.1 5-8 0.4-1.6 1.4-3 8.4-27.1-0.1-1.9-3.7-20.7 0.2-1.7 0.7-1.7 2.7-1.6 2.1-1 4.2-1.1 6.3 0.1-0.4-2.5-0.4-1.1-3.9-7.5 3.5-4.3 4.1-2.9 0.9-0.8 1.7-1.9 1.6-2.2 0.8-0.9 1-0.7 0.9-0.4 2 0 5.2 1.4 1 0 0.8-1 0.5-1.8-2.5-19.4-0.5-1.8-0.4-0.9-0.3-2.8 1.5-6.3 6.4-1.5 1.2 0 1.7 0.2 3.3 1.3 2.2 0 1.9-0.2 2.7-0.6 2.4-1.1 4.2-3.7 12.8-6.3 3.1-2.4 9.3-10.1 3.6-5.6 2.2-1.9 3.5-1 24-4.8-1 7.4 1 2.7 2.4 0 2.8-0.9 2.3 0.5 1.6 0.1 1.7-1.3 1.6-0.2 1.2 3.2-0.4 1.5-1.3 1.6-2.9 2.4-2.2 1.1-1.5 0.4 0.1 0.5 2.6 1.5 2.4 0.8 4.9 1.2 1.6 1.4 2.2-1.8 2.1 1.5 1.7 3.1 0.8 2.8-0.4 0.9-1.5 2 0.2 1 1.1 1.5 0.4 0.7 1 3.2-0.2 1.2-1.8 0.8 0 1.1 3.7 0 2.5 0.6 1.7 1.7 1.1 3.3 1.8-0.8 1.6 0 1.3 0.8 1 1.1 3.3-0.3 3.6 0.4 2.1 1.8-1.3 3.8 1.5 5.4 1.8 1.8 4.1 0.7 1.9 1.1 0.6 2.4 0.2 2.3 0.6 1.1 1.9 0.6 1 1.4 0.8 1.6 1.4 0.9 6.5-1.7 3.2 0.8 1.4 4.9-0.9 2-3.2 3.1 0.2 1.6 1.3 0.9 2 0.9 2.1 0.7 1.8 0.3 1.4 0.7 0.7 1 0.5 1.3 3.6 5.3 0.5 0.1 1 6.7-0.5 2.6-2.6 1.4 0.2 3.8-2.4 3.7z" id="CIV3452" name="N'zi-Comoé" data-id="CIV3452" data-name="N'zi-Comoé">
 </path>
 <path d="M521.9 929.3l-2.4-22.1 1.2-4.3 2.1 0.3 1.7 0.6 1.5 0.8 8.5 7.3 1.8 1.2 2.6 1.1 2.1-0.8 2.3-0.3 0 1.2-1.3 1.4-3.8 1.9-1.6 1.1 0-3.2-2.3 6.8-1.1 2.1-5.5-7.9-1.2 0 0 2.2-2.2-1.1 2.4 4.6 6.7 3.1 8 0.8 6.5-1.7-2.7-2-2.7 0.1-2.9 0.4-3-0.7 0-1.1 1.7 0.1 1.3-0.2 2.5-1.2 0.9-0.7 2-2.1 0.6-0.5 2.5 0.5 2.7 1.4 2.6 0.7 2.3-1.5 2 1.2 2 0.5 1.6-0.7 1-2.1-2.9 0.4-1.4-1.3-1.1-1.7-2.3-0.8 0-1.1 2.2 1.1 5.4-0.8 9.9 5.8 4.2-1.1 2.3-1.8 2.2-0.3 5.6 0.6 0.7 1.2 0.9 2.8 1.4 3 2 1.9-41.2 1.3-6.4 2.4-21.9 1.2z m118.7-194.2l38.9 9.5-32 60.1 32.2 20.9 4 8.4-0.7 2.5 1.6 1.9 2.5 1.8 7.7 4.4 4.8 2.1 5.3 0.2 61.4-3.3 1.8-1.7 0.4-2.3-1.1-18.4 3.4-4.9 2.4-1.1 1.3-0.3 1.9-0.7 2-1.8 6.9-7.2 12-7.7 1.4-0.6 1.3-0.2 1.1 0.2 40.9 11.2 0 1.1 0.4 3.9 1.2 1.8 1.8 1 2.1 1.6 2.5 3.3 0.7 1.3-0.1 0.8-0.7 1.4-1.8 2-0.5 1.3-0.9 12.9 0.2 1.7 0.6 0.7 1.5 0.9 0.8 1.4 0.3 1.4 0.8 7.3 1.1 2.8 0 1.3-0.3 1.7-1.5 4.4-3 6.8-0.5 1.8-0.1 3.9 1.2 11.7-1.3 7.3 0.1 1.9 0.4 1.6 1 1.2 3.1 2.6 1 1.2 0.5 1.6 0.1 0.9-4.1 3.7-18.2 9.4-15.2-3.2-7.6-0.5-5.1-1-1.3-0.4-0.6-0.9 0.3-1.5 0.4-1.1-0.3-1.2-1.6-1.4 1.2-2.1-1.7 1.4-1.3 2.1-0.9 2.4-0.4 2-1.3 0-1.9-1.1-3.2-0.3-6.6 0.2-2.2-0.6-7.3-4-11.5-1.4-5.1-1.6-2.4-3.7 3 1 3.5-0.3 3-1.6 1.8-2.4 2.3 2.9 1.2 1.2 1.4 0.5 1-0.5 0.5-0.9-0.2-1.2-0.8-0.9 0-1.1 2.3 0.5 5.6 2.3 1.1 0 1.7-0.5 3.7 1.4 5.9 3.2-0.4-1.1-0.3-1.6-0.4-0.9 2.5 0.1 4.4 0.6 1.8-0.7 2.1-2.6-1-1.4-2.1-1.2-1.1-2-1.9-5.5-0.4-2.3-0.5-1.3-1.4-0.9-1.8-0.2-1.7 0.6-1.1-0.7-1.5-0.4-1.4 0.2-0.6 1.5 0.5 0.9 3.5 2.5 4.1 5.6 2.5 2.6 2.8 1.3-1.5 2.1-2.5-0.2-2.8-0.6-2 1-1.3 0-2-2.5-1.5-0.6-1.7 0.1-2.6-0.4-1.7-0.6-1.9-1.1-1.5-1.6-0.4-2.1-1.8 1.4-0.4 0.7-0.7-1.4-0.5-1.2-0.2-1.4 0.1-1.7-1.1 0-0.2 2.3-0.8 2-1.4 1-1.9-0.7-1.3 0.9-1.8 0.3-1.9-0.3-1.8-0.9-3.8 0.6-1.9 0.5 1.6 1.5 2.5 0.6 2.7-0.2 2.1-0.9 2.3 2.3-2.1 1.7-2.8 1.6-3 0.7-2.7-1.2-2-1.2-3.6-1.6-3.4-1-1.5 0.5-1.4 1.4-3-0.8-4.7-2.4-2.1 0.7-1.8 1.1-1.7 0.5-2.3-1.1-0.9 1-1.1 0-1.1-0.8-1.2-1.4-4.5 3-2.1 0.9-2.4-0.5 0.3-0.8 0.5-1.9 0.3-0.7-4.2-0.8-1.8 0.3-1.9 1.7-1.2-1.1-1.5-0.7-1.3 0-1 2.6-2.6 2.1-1.2 1.6-1.2-1.2-2-1.5-2.1-1.3-1.4-0.5-1.8 1-1.7 1.5-1.7 0.5-1.6-1.9 0.8-0.5 0.4-0.6-6.1 0.3-2.3 1.1-0.6 3.1 1.5-0.8 1.4 0.2 1 1.1 0.6 1.8-3.1-0.8-11.6-0.5-0.6-1.5-0.8-1.4-1.8-2.6-0.9 1.6-0.1 1.3 0.7 1 1.3 0.6 0 1-2.9 0.6-2.3 1-3.7 3-3-2-3.5 0.3-3.1 1.3-1.6 1.5-1.1 0-1.1-0.5-1.4-0.8-1.2-1-0.7-1 1.9-0.9 1.6 0.2 1.7 0.5 2.5 0.2-0.4-1.6-0.5-1-0.9-0.6-1.5-0.2 0-1.2 1.7-0.8 1.1-1.1 0.5-1.6 0-2-1 0-2 3.8-2.8 2-3.4 0.8-4.2 0.1 4.4 3.4-3.3 2.9-6 2.5-4 2.4-1 2.4 0.2 1.5 1.5 1 2.6 0.7 2.9 0.2 2.9-0.5 1.7-1.2-0.8-1.8 0-1.2 4.1-1.1 2.1-1.1 1.5 1.8 1.3 0.4 2-0.5 3.4-1.4 2.4-0.3 5.1 0 1.5 0.3 1.1 0.7 1.2 1.2 2.5 0.4 1.7-0.3 2.1-1-2-0.2-1.6-0.7-0.4-1.5 1-0.9 5.7-1.4 0 2.3 1.2 0 3.6-1.8 9.6 0.6 4.7-2.2 0.8 2.4 1.3-0.9 1.3-2.3 1.1-1.4 3 0 2.5 1.2 2.3 0.6 2.1-1.8 3.1 1.2 3.2-0.5 3.2-1.2 6.7-1.2 4.2-2.4 2.6-0.5 20.2-0.5 5.1 1.7-1.6 0.7-1.6 0.4-1.7 0-1.8-0.1 12.1 5.7-102 8.4-26.8 6-14.8 1.3-2.8 1.2-1.8-0.9-1.9-0.3-8.8-0.2-2.1 0.2 0-1 2.1 0 0-1.1-4.6 0-1.1-1.9 0.1-3-1.1-3.1 2.1-2.5-2-0.5-8.9 1.1-3 0.9-2.7 1.5-2.2 1.9-2.7-2.4-4.7-2.4-5.5-1.1-4.9 1.3-2.1-2 1.6-0.7 10.2-0.8 2.2 0 1.5 0.2 2.4 1.8 1.8 0.7 1.2 0 0.9-0.3 1.3-1.2 0.8-1 5.7-12.7 0.3-1.9-0.3-3.9 0.2-2.4 0.6-1.8 10.3-24.8 1.8-6 0.3-2.3 0.1-2-0.7-3.5-0.3-0.8-1.5-2.9-0.9-1.3-0.5-1.6 0.4-1.3 9-23.4-8.1-15.4-1.9-12.7-0.8-20.2-0.6-3.5-1.7-1.5-2.5-0.8-16.7-2-6.6-2.7-11.2-10.6 4.9-13.3 0.3-4.4-0.2-1-0.2-5.7 2.8-2 0.8-0.3 1 0 1.4 0.6 25.1 20.6 2.9 1.7 5.5 0.8 4.4 0.1 1.5-0.2 10-3 1.4-0.1 2.3 0.2 2.5 0.6 2.2 0.7 0.9 0.1 1.6 0.6 5.1 0.2 4.7-0.3 3.8-1.7 4-4.7z" id="CIV3458" name="Lagunes" data-id="CIV3458" data-name="Lagunes">
 </path>
 <path d="M255.1 628.7l2.4 3.6-0.3 1.7-1.3 1.8-0.7 1.8 0 1.3 0.3 1.3 0.7 1.4 1.3 1.6 0.7 0.4 3.3 1.2 2.2 2 2.1 2.6 0.9 1.5 0.7 2 2.8 14-0.3 1.9-0.7 1.6-0.3 2.2 0.4 4.7-5.1 7.8-0.5 2.8 0.5 0.7 1.5 1.2-1.2 0.1-4.4 1-0.8 0.4-2.6 1.5-0.4 0.4-2.1 3.1-1.2 1.1-2.6 1-1.3 0.8-1.8 1.6-0.9 5.1 0.8 21.8 2.2 32.2 1.8 7 0.8 14.7-2.1 50.6-49.9 9.7-2.9 0.6-2.2-4.3-3-12.8 0.2-6 1-7-0.7-5.7-5.2-2.3-0.6 4.9-0.8 2.7-1.2 1.3-1.6-1-0.8-2.3-1.1-2.2-2.5-0.4 0.5-2.8-1.2 0.5-2 1.7-1.9 0.9-1.2-0.6-2.1-2.7-1.3-1.1 1.3-1.7-0.8-1.1-3.5-1.5-0.5-0.1-3.3-1.8-0.3-0.7-2.9-0.4-2.4-1.9-1.8-2.1-1-0.9-1.8 2.2-1.9 3.3-2.3 1.1-2.9-4-2-2-6.4-3.4-2.2-2.7-0.1-1.2 0.1-4.6 0.3-0.8 1.5-0.8 0.4-0.9-0.4-1-1.7-0.7-0.5-0.6-0.6-3.7-0.6-1.6-1.6-1.4-1.5-0.1-2 0.5-1.6 0.9 0 0.7-1.8-2.2-0.5-3.4 0.4-3.7 0.8-3.4 2.2-6.4-0.4-2.2-2.6-3.1-7.2-5.8-0.6-0.8-0.4-1.9-0.3-0.6-1-0.3-1.5 0.5-0.8-0.1-10.6-2.6-2.6-1.8-2.9-0.6-4.4 0.1-7.6 1-1.9 0.8-3.6 2-2.3 0.6-2.6 0-1.4-0.4-1.1-0.9-1.8-1-1.9-0.7-12.7-2.9-1.5-0.5-0.2-0.7-0.2-2.5-0.8-1.3-1.2-0.7-1.2 1.3-0.8 0.1-1.7-1.6-1.6-1.8-1.7-0.7-2.1 1.8-1.8-0.7-2-0.1-2 0.8-1.7 1.7-2-2 0.6-1 1.5-0.8 0.8-1.5-0.3-1.3-1.5-3-0.3-1.5 0.8-2.7 1.3-1.1 0.2-0.9-2.2-2.5-5.1-2.7-1.9-2.5-1-0.7-0.8 1.4-0.7 3-1.3 3.1-2.1 1.7-3-1-4.8-6.6-1.8-1.6-1.9-0.5-4 0.1-1.5-0.3-2.8-0.2 4-5.1 0.8-0.4 2-0.3 0.7-0.5 0.4-0.7 0.7-2.6 2.7-1.5 0.4 0 2.2-2.7 11.8-9.3 3.2-3.6 1.1 0.4 16 10.3 1.5 0.6 1.2 0.1 1.8-1.3 1.3-0.7 2.1-0.7 1.1-0.2 4-3.1 1.2-0.6 0.1-1-0.2-1.7 0.5-2-0.1-0.9-0.3-1.3 0.4-0.4 1.7 0.3 3.3-0.7 0.5-0.4 0-1.1-1.1-2.3-0.2-0.7 0.6-0.9 3.2-2 1-0.1 0.4 0.5 0.4 1.4 0.6 0.3 0.9-0.1 1-0.6 1.3-1.3 0.7-1.8 0.6-3.3 0-1.7 0.4-0.6 1.9-1.4 0.9-1.3 2.8-1.6 1.5-1.2 3-1.5 0.1-1-1.6-4-0.4-0.6-1.1-0.2-0.3-0.6 0.4-1.9 1.3-2.8 0.7-2.2-0.5-1.1 0.2-0.5 2.1-1.1 1.2-1.9 0.5-0.5 0.8 0.2 1.4-0.3 1.8-1 6.4-6.2 3.7-1.2 4.2 1.8 2.1 1.5 3.5 3.2 1.4 0.8 1.2 0.6 2.3 0.4 3.9 1.1 1.3 0.7 0.8 0.7 0.7 1.5 1.9 5.2 0.7 1.1 1.5 1.5 2.4 0.5 2.6 0.2 27.3-0.4 2.2-0.5 0.7-8.5 0.3-1.2 2-3.8 10.5-1.6 17.3-0.1 1.6-0.2 4.7-1.3 15.3-2.6 3.2 0.2 5.5 1.4 12.6-1.4 1.7 0.1 0.7 0.4 4 2.7 2.4 1 7.7 1.3 1.2 0.1z" id="CIV3459" name="Moyen-Cavally" data-id="CIV3459" data-name="Moyen-Cavally">
 </path>
 <path d="M902.6 608.1l-2.1 1.3-18.8 32.4-2.8 6.4-0.2 5.9 0.7 1.7 2.1 2.6 2.2 4.3 0.3 1.1-3.2 9-0.9 1.1-3 1.7-1.1 1.7-0.3 2.7 12.9 58.1 2 2.3-6.5 11.9-1.5 4.1 0 1 0.5 3.3 0.2 1.9-0.7 2.6-1.6 1.9-1.5 1.3-1.5 2.6-9.9 23.8-11.8 19.6-1.2 1.1-0.8 0.3-6.6 1.7-2.1-1.6-1.8-1-1.2-1.8-0.4-3.9 0-1.1 0.2-3.3 0.7-2.9 5.2-10.2 0.4-1.8 0.2-2.1 0.5-1.6 1.4-0.6 1.7-0.4 1.5-0.8 1.8-3.2-0.2-3.3-1.8-2.8-2.6-1.4 1.2-3.4-2.6 0.7-0.9 0.4 0.4-3.2 2-1.8 2.2-1.4 1.1-2-0.6-8.3-1.3-1.3-2.7-5.7-2.1-1-1.8 0.9-0.8 2.7-1.9-0.2 0.3-0.6-0.9-1.9-1.2-1.7-0.8-0.5-0.8-1.2-0.4-1.4 1-0.6 3.2-0.3 0.2-0.9-1.1-1.6-2.3-6.7-3.8-5.4-6.8-7.7-2.1 3.8-2.6 0.1-3.1-1-3.4 0.5-1.7-8-1.1-0.6-3.2-3.3-0.7-1-1-2.1-0.2-1.3 0.3-0.6 1.7-1.6 0.3-1.1-1-7.5-0.7-1.6-0.8-1.1-0.4-2.7-0.4-1.3-0.7-0.7-2.1-1.6-0.6-1 0.1-2.1 1.3-4.8-0.4-2.1-1.6-1.4-1.6 0.9-2.3 2.7-0.9 0.1-3.6-0.1-2.4 0.4-2.1 0.7-0.9-1.8-0.5-0.9-0.7-2.4-1.1-2.1-2.3-1.8 5-2.2 0.3-3.5-4.2-8.9 6.9-6.8 0.4-1.2 1.8-1.1-1.6-2.4-2.7-2.3-1.4-0.9 0.5-2.7 1.8-2.9 2.2-2.4 1.6-1 1.4-1.4-0.4-2.9-1.5-3.1-2.3-1.7-1.1 3.7-1.5-0.1-1.6-2.7 0.9-4.2 3.9-3.5 6.1-1 1.8-1.8 1.4-1.9 1.7-1.8 3-1.2 5.1-0.7 2.2-1.5 0.4-3.5 5.8 1.8 2.1-0.2-1.1-2.7 0.9-0.3 0.7-0.6 0.4-0.8 0.2-1.2-0.7-0.9-1.3 0.3-1.2 0.7-0.1 0.5-4.7-0.8-1.7-0.9-1.5-1.7-0.7-1.6-1.5-5.3 0-2.1 1.4-2.2 2-1.1 1.7 0.6 0.5 2.7 1.9-0.8 1.1-0.6 0.6-1.1 0.9-2.1 0.6-2-0.1-1.8-0.3-1.8-0.2-4.8 0.2-1 4.3-0.8 3.3-0.2 1.2-0.8 1.1-2.5-0.9-0.2-0.1-0.9-2.4 1.1-0.3-3.6 1.5-2.5 5.2-1.6 1.4-0.1 2.6 0.9 1-0.3 1.5 0.9 1.4-0.3 0.9 0.3 1.1 0.7 2 1 1 0.9 0.6 0.8 2.5 8.4 0.8 1.4 2.2 2.2 2.7 3.1 1 0.4 0.8-0.1 0.6-0.5 1-1.3 1.3-2.2 2.1-0.1 3.5 0.5 11.8 3.7 2 1.2 3.7 2.8 5.4 3.4 2.6 2.3 1.9 2.2 6.8 13 0.2 3.1z" id="CIV3460" name="Moyen-Comoe" data-id="CIV3460" data-name="Moyen-Comoe">
 </path>
 <path d="M647.2 532.1l3.9 7.5 0.4 1.1 0.4 2.5-6.3-0.1-4.2 1.1-2.1 1-2.7 1.6-0.7 1.7-0.2 1.7 3.7 20.7 0.1 1.9-8.4 27.1-1.4 3-0.4 1.6-5 8-2.2 2.1-0.4 0.8-0.1 1.8 1.5 3.6 1.5 4-0.4 2.1-1 2.5-0.1 1.1 0.2 1.1 1 2.4 0 1.2-0.4 1.2-1.2 1.4-1.4 0.8-14.9 6.8-2-0.2-1.4-0.6-3.6 1.8-0.9 5.4-2 6.7 0.7 2.4 0.9 0.6 1.3 1.2 1.6 1.1 0.4 1-0.5 1.4-0.5 2-0.9 1.9-0.1 2 0.4 1.1 2.1 2.4 1 0.5 1 0.2 0.5 0.6 0.4 1.6-0.2 0.6-0.8 0.9-0.1 1.6 1 1.3 0.8 0.8 1 0.4 1.7 0 0.6-0.4 0.3-2.1 0.6-0.4 2.9-0.3 1.5-0.6 1.2-1 1.5-0.8 1.7-0.2 2.2 0.4 2.3-0.2 11.3 4.2-4.3 1-0.5 1.2 1 1.1 0.1 1.5 0.8 1.7 0.3 1.2-0.4 0.6-0.7 0.4-2.5-0.5-1 0.4-0.2 0.7-0.3 2.5-0.7 2.5-0.3 1.9-0.1 2.2 0.5 1 0.7 0.4 0.9 0 2.4-0.9 0.8-0.2 2.6 0.7 0.9 0.7 0.9 1.1 0.9 2.7 0.1 1.3-0.5 0.6-0.6 0.2-0.5 0.8 0.1 0.7 1.6 0.7 0.8 0.7 0.1 1-0.1 1.5 0.3 0.8 0.7 0.4 1.9 0.1 0.6 0.2-0.1 0.6-1.4 0.9 0.1 0.5 1.7 1.6 0.3 0.9-0.2 1.1-0.5 1.3-0.4 2.4-0.5 1.3-1.3 1.3-1.5 3.3 0.2 0.5 0.7 0.2 1.7-0.3 0.8 0.1 0.7 0.6 0.9 2.2-0.2 0.7-1 0.3-4 4.7-3.8 1.7-4.7 0.3-5.1-0.2-1.6-0.6-0.9-0.1-2.2-0.7-2.5-0.6-2.3-0.2-1.4 0.1-10 3-1.5 0.2-4.4-0.1-5.5-0.8-2.9-1.7-25.1-20.6-1.4-0.6-1 0-0.8 0.3-2.8 2-3.2-1-5.7 2-2.7-0.8-2.8-2.8-1.2-2.6-0.2-3.2 0.2-4.4-0.5-1-1-0.8-0.7-0.9 0.6-1.3 0.9-1 0.4-0.7 0.3-2.2 0.8-2.4-0.4-0.7-2-0.2-2.7-1 3.8-5.4-0.6-2.6 1.5-3.6-2-2.1-3.8-1-8.9 0.2-1.8-1.1-0.7-3.2 0-1.1 0.6-8.5-0.6-3.4-3.5-7.5-0.3-1.5-8-7.6-1.6-1.9-0.9-3.6-4.5-5.1-1.4-3.1 0.3-3 3.4-2.7 0.9-2.8 0.3-2.7 1.4-4.7 0.5-1.2 1.1-2 1.7-0.6 2-1 1.2-1.1 0.1-0.7-0.4-0.7-3.2-0.9-1.5-0.8-1.5-1.3-0.8-1.2-0.5-1.8-0.1-1.2 0.2-1 0.9-2.2 1.3-4.7-0.2-1-0.5-0.8-4.5-1.7-2.1-0.4-1.6 0.2-0.8 0.3-1.2 0.9-1.6 0.6-1.9-0.2-1-0.5-1.4-1-0.9-0.9-0.5-1.7-0.3-2.1-1.9-1.2-2.8-2.3-1.2-0.5-2 0-1.6-0.6-0.7-0.7-1-1.9-0.3-0.8 0.2-0.7 1.6-1 0.4-0.7-0.3-0.9 0.4-1.4 4.8 0.6 2.7-0.1 18.8-4.7 6.8-2.8 1.1-0.2 1.2 0 1.5 0.6 1 0.9 0.8 0.9 3.3 4.8 2.8 3.1 1 0.8 2 0.9 1.3 0 1.5-0.2 5.1-1.4 1.1 0 3.1 0.5 1.1-0.3 1.3-0.8 3-3.9 1.2-1.3 2-0.9 2.6-0.1 0.9-0.3 0.9-1.1 1.8-3.8 2.9-3.4 18.3-8.9 1.7-1.4 1-1.2 0.4-1.1 1-2.1 1.5-1.9 1.9-1.8 2.3-1.3 9.2-3.5 2-1.2 1.3-1.3 2.5-4.5 2.8-3.5 1.9-1 2.5-0.7 9.7-0.6 1.2 0.1 1.4 0.5 2.1 1.3 3 3 0.9 0.6 4.2 0.5 13.1-0.5z" id="CIV3461" name="Lacs" data-id="CIV3461" data-name="Lacs">
 </path>
 <path d="M899.6 927.8l-0.7 2.7-7.2-1.6-16.1-1.6-2.3-1.1 0.6-2.4 3.1-2.8 3.2-2.3 4.3 1.1 1.2 0.8 0.7 1.9 0.5 0.7 1.3 0.6 3.5 1.1 0.7 0 0.7-0.3 1.4 1 2.4 2.2 2.2 0.2 0.5-0.2z m-69.2-8.1l18.2-9.4 4.1-3.7-0.1-0.9-0.5-1.6-1-1.2-3.1-2.6-1-1.2-0.4-1.6-0.1-1.9 1.3-7.3-1.2-11.7 0.1-3.9 0.5-1.8 3-6.8 1.5-4.4 0.3-1.7 0-1.3-1.1-2.8-0.8-7.3-0.3-1.4-0.8-1.4-1.5-0.9-0.6-0.7-0.2-1.7 0.9-12.9 0.5-1.3 1.8-2 0.7-1.4 0.1-0.8-0.7-1.3-2.5-3.3 6.6-1.7 0.8-0.3 1.2-1.1 11.8-19.6 9.9-23.8 1.5-2.6 1.5-1.3 1.6-1.9 0.7-2.6-0.2-1.9-0.5-3.3 0-1 1.5-4.1 6.5-11.9 0.4 0.6 4.8 4.4 3.5 9.2 5 27.4 2.3 5.9 6.3 11.5 2 5.9 0.4 6-1.6 18.7 10.6-0.9-1.6 10.2 0.9 4.3 3.8 2.1 3.2-0.4 5.3-3.2 2.7-1 11.6 3 2.1 1.7 1.3 2.1 0.6 2.7 0.4 8.6 2.9 11.7 4.5 10.5 0.7 2.9-0.5 2.9-1.6 2-2.1 0.4-5.5-1-1.1 10.2 0.4 2.3 2.3 3.2 0.8 1.9-0.1 1.4-0.7 3.5 0.1 1.5 0.5 0.5 2.2 1.9 0.9 1-1.6 3.1-2.3 1.7-3.8 0.5-6.5-0.2-0.4-4.6-5.4-0.7-6.7 0.8-4.3-0.1 1.3 3.3-0.8 3.3-2.3 2.6-3.3 1-2.5-0.8-8.7-4-2.7-2.1-3.2 0.9-6.5 0.2-2.7 1.3-1.3-3.1-2.5-3.8-3-3.1-2.7-1.3-1.3-1.2 1.8-2.6 2.5-2.4 1-0.5 0.8-2.4 0.5-4.8 0.9-1.9 2.3-1.4 1.7-0.4 1.1-1.1 0.4-3.2-0.4-2.5-1.1-1.1-1.9-0.4-2.7 0-0.7 0.4-2.2 1.6-1.5 0.4-1.4-0.2-2.2-1-1.4-0.1-1.6 0.6-3.1 2.2-2.1 0.7 1.6 3.8 0.9 3.3-1.2 2.3-4.6 0.6 0.7 1.2 0 1.2-0.7 1.1-1.2 1.1 2.7 1.8 1.7 0.4 1.7 0.1 1.9-0.1 0 1.1-1.6 0.7-2.5-0.2-1.6 0.5-1.4 1.1-1.3 1.4-1 1.6-0.8 1.7-1.7-1.1-1.2 0.6 0.3 1.4 2.6 1.3-1 2.2 1 1.3 2.1 0.7 2.4 0.4-6 4.8-10.7-0.6-26.3-5.6z" id="CIV3462" name="Sud-Comoé" data-id="CIV3462" data-name="Sud-Comoé">
 </path>
 <circle cx="295.7" cy="319.1" id="0">
 </circle>
 <circle cx="824.7" cy="824.7" id="1">
 </circle>
 <circle cx="830.3" cy="839.2" id="2">
 </circle>
</svg>