<?xml version="1.0"?>
<!--
************* Copyright (c) 2017 Pareto Softare, LLC DBA Simplemaps.com *******************		
************* Free for Commercial Use, full terms at  http://simplemaps.com/resources/svg-license ************
************* Attribution is appreciated! http://simplemaps.com ***************************
-->
<svg baseprofile="tiny" fill="#7c7c7c" height="1498" stroke="#ffffff" stroke-linecap="round" stroke-linejoin="round" stroke-width="2" version="1.2" viewbox="0 0 1000 1498" width="1000" xmlns="http://www.w3.org/2000/svg">
 <path d="M738.4 411.4l-0.2-0.4 1.1-8-1.2-2.1-12-3.5-2.1 0-3.8-1-2.7-3.5-4.1-3-0.6-0.5-3.2-4.8-1.8-1.2-4.2-1.4-7-1.4-2.6-0.2-5.4 0.6-5-0.5-8.2-1.7-1.9 0.2-1.9 0.5-2.2 1.9-1.1 1.5-0.6 1.6-0.1 1.4 0.6 1.4 2 2.9 0.5 1.4-0.6 1.4-1.6 0.9-8.3 2.8-3 1.4-1.9 0.7-2.6-0.4-4.7 0-6.3 1.9-1.6 0-1.6-0.8-1.2-1-2.6-4.4-0.4-0.9 1.2-0.7 2.7-2.1 1.5-2 2.1-4.4 0.3-1.8-0.2-1.5-0.9-2.7 0-1.7 2.9-8.2 4.4-24.8 4.9-16.5 3.6-7.6 23-33.2 1.7-3.7-0.9-5 0.6-2.7 1.4-2.3 2.1-1.8 4.9-2.9 1.6-2 2.2-5.3 3.1-5.5 4.3-5.5 4.9-5 5-4 4 0 5.1 1.5 9 3.9 2.7 0.4 2.9-0.8 2.8-1.4 2.3-1.7 3.5-3.8 1.6-0.6 3.5-0.5 1-0.4 11.6-10.7 2.4-1.4 7.7-2.4 2.7-1.6 4.7-4.3 2.8-1.7 6.7-2.4 2.2-1.2 1.5-2.4 1.4-3.2 1-3.3 0.5-2.7-0.1-3.4-0.7-2.7-1.5-2.2-2.1-2.2-0.7-0.8-1-1.8-0.9-0.6-2.2 0-0.6-0.2-1.1-1.6-0.2-1.2 0.6-1.1 4.7-6.3 1-2.3 2.8-13.4 1.4-4.2 0.5-4.5-0.2-2.4-2.5-5.7-0.2-2.5 2.3-1.6-0.3-1.3 2.2-9.5 1.8-3.2 2.5-2.6-0.3-1.4-0.6-1.2-1.5-0.9-2.9 1.4-1.7 0.6-0.7-0.6-0.9-2.8-2-1.7-2.6-1.4-2.6-1.8 1.8-0.9 0-1-1.4-0.6-3.9-2.9-0.9-1-0.3-1.2 0.7-1.9-0.4-1.4-3.5-1.9-8.3-2-26.7-0.8-2-0.5-1.7-1-1.1-2-0.1-1.6 0.7-4 0.1-2.6-0.9-2.8-0.2-10.3-14.5-70.7 32.5-0.3 0.7 1.3 0.4 1.7-5.1-0.6-1.5 0.5 1.5 1.3 0.7 0.8 0.5 2-0.1 1-1.4 0.9-2.5 0.2-0.8 0.2-1.3 1.4 1.7 0.8 1.4 1.2 0.1 1.4 1.8 1.6 1 2-1.2 0.8-1.4 0.4 1.9 4.5-1.6 0.7-0.9 1.4 4.1 0.1 1.3 0.3 0.3 1.4 0.7 0.6 3.2-1.2 1.4 0.1 1.2 0.6 1.2 0.1 2-1.2 0.9-0.1 1.5 0.1 0.5-1.6-1.5-1.7 1-1.2 2.2-2 1.2-0.7 1.1 0.4 1 0.9 0.5-0.8 0-1.5 0.5-1 0.7-0.8 0.4 0.8 0.5 1.6 0.6 0.3 0.7-2 0.9-0.7 1.3-1.7 0.8-0.5 0.3 0.7 0.4 2.2-0.2 2.7-2 6.1 0 1.7 1.3 1.9 4 3 2.3 2.4 0 5 0.3 1.2 0.4 0.6 0.8 0.1 1.1-0.4 0.2 2.5 0.6 0.8 1.2-0.2 2.5-1.9 0.9-0.3 1 0.5 0.3 1.5 0.4 0.8 2.3 1.4 0.8 0.8 2.1 1.2 3.9-1 2 0.7 0.9 2.2-1.9 4.3 1.5 2.2 2-3.2 0.7-0.5 1.2 0.5 1.1 1.1 0.9 1.3 0.3 1.3 1 2.1 2.2 0.3 4.3-1 1.5 2.7 4.3 16.3-1.5 2.8-0.4 2.3 1.6 0.7 0.5-0.1 1.5 0.7 0.2 0.6-0.2 2.1 1.8 3.2 2.2 10.1-0.2 1.2-0.2 9.2-0.2 1.6-0.7 2.2 0 1.6 0.4 1 1.2 1.3 0.2 1.3-0.6 0.9-0.9 0.2-0.7 0.6 0.4 2 0.7 0.9 3.3 2.3 2.8 3.3 1.9 1.5 1.5-0.3 2.2-1.6 2.4-0.3 2.4 1 2.4 2.2-0.6 0.8-0.5 1.5 0 1.5 0.6 1.3 1 1.1 0.1 0.8-0.6 2.6 1.4 2 2.2 1.9 0.5 1.5-3.7 0.6-0.5 0.5 0.3 1.4 1.1 2.1 0.5 1.3-0.8 1.1-1.3 1.1-0.6 1.1 0.2 3.3 0.9 2.1 1.6 1 2.2 0.3 0.8 1.5 3.2 7.6-0.7 1.3-2.1 2-0.8 1.3 0.3 0.5 1.4 1.3 0.1 0.9-0.5 0.6-2.2 0.2-1 2.8-0.3 2.6 0.4 2.6 2.1 6 1.3 2.3 3.7 4.7 1.5 4.2-1.7 3.7-6 6.6-1.2 2.3-0.8 2.6-0.8 6.9-0.7 2 0 1.5 0.4 1 1.3 1.3 0.1 1.3-0.9 2.2-3 4.4-0.6 2.1-0.9 8.2 1.8 24.8 3.5 8.4 1.3 2 0.9 2.3-0.5 3.3-1.6 5.6 0.4 5 9.9 19.3 0.9 3.1-0.1 2.1-1.3 2.3-0.8 3.2-0.1 3.3 0.8 2.5 0.8 0.7 1.2 0.6 1.5 0.4 2.8 0.4 1.5 1.2 2.6 1.3 1.2 2.2 1.8 4.9 1.8 2.1 1.7 1.4 1.3 1.6 0.5 2.6 0.3 3.3 0.8 2.7 1.4 2.3 17.8 16.6 4.8 7 1.9 1-0.1 0.6 6 5.2 8.6 5.2 4.6 1.5 5.6 5.1-2.3 0.7-29 7.1-7.4 0.2-21.7-7.1-7.7-0.3-6 0.7-1.1 0.3-1.5 0.9-2.3 2.1-1.3 0.9-3.7 0.9-4-0.3-7.5-1.9-6-0.2-16.2 5.1-5.2-0.2-37.9-9.5-31.6 2.2z m20.1-410.4l2.9 0 0.9 2.3-2.3-0.6-1.5-1.7z" id="CMR1462" name="Extrême-Nord" data-id="CMR1462" data-name="Extrême-Nord">
 </path>
 <path d="M108.1 1202.7l4.3-3.9 2.3-1.4 1.3-0.4 0.6-0.9 0.3-1.3 1.3-3.2 5.2-8.5 0.4-0.5 0.6 0.7 2.2 0.7 1.3 0.8 0.1 0.6 1.3 3.1 1.5 1.6 2.2 1.7 1.1 2.2-1.8 2.4-3.7-1.3-1.7-1.3-1.6-2.8-1.4-0.8-0.3-0.6-0.1-1.2-1.6 0.2-1.2 0.5-0.6 1-0.2 1.4 3.5 2.1 0.9 1.1 0.3 1.5-0.9 2.4-0.2 1.8 0.4 1 2 1.1 1 1-1.6 0.8-2.1 0.5-4.7 0.5-2.4-0.3-4.4-1.2-2.1-0.3-1.5-0.8z m151.8-128.2l-2.4 5.7-2.8 3.2-4.4 3.6-5.3 2.7-1.1 1.1-1.1 2.4-0.9 7 0.9 0.8 1.3 0.3 6.3-3.9 4.3-2 3-0.5 1.4 1.9 0.5 1.7 0.2 1.8-0.1 1.5-0.5 2.2-0.5 1.4-0.9 1.3-5.7 5.9-5 8.3-1 2.3-0.4 2 0.2 2.1 0.8 1.1 1.2 0.5 1.4 0 2.9-0.6 1.4 0.4 2.4 2.1 1.4 0.6 2.3 0.2 1 0.2 1.3 0.7 2.5 1.9 1.5 1 5.2 0.8 1.6-0.5 1.9-0.8 5.2-5 2.1-0.9 1.7-1.5 1.3-1.7 1.3-1.2 1 0.5 0.5 0.9 0.3 1.6 0.9 1.1 2.2 0.9 3.8-3.9 1.5-3.3 1.4-6.7 0.6-1.9 1.3-1.3 1.4-0.7 1.6-0.1 1.6 0.3 1.5 0.6 1.3 0.1 1.1-0.3 2.4-1.1 2.6-0.1 1.1 0.7 0.5 3.7-0.8 12.1 4.3 11 6.4 10.8 13.4 12.1 1.8 2.5-3.1 2.8-4 2.7-2.2 1.1-6.9 1.7-1.6 0.9-1.7 1.7-2.2-0.5-5 2.5-6 1.2-4.6 2.4-2.6 0.7-3-0.2-1.4 0.2-1 0.4-1.5 1-2.3 0.5-1.7 1.3-1 0.3-2.6 4.1-1.2 2.6-3 4.9-1.3 2.7-0.8 2.4 0.1 1.6 0.7 3.4 0.2 2.9-1.4 5 0.4 3.4-1.4 4-0.9 1.6-1.1 1.4-1.3 1-1.4 0.4-1.4-0.5-1.2-1.1-2.2-3-1.5-1.4-1.8-1.2-4.3-1.1-1.3-0.5-0.8-0.6-3.9-3.5-7.1 3.4-3 2.9-1.5 3.2-0.5 1.6-0.8 6-2.8 7.2-0.6 2.2-0.5 6.1-0.9 1-1.6 1.1-3.3 2.9-1.9 0.8-1.6 0-1.1-0.5-0.8-0.7-0.9-2.6-2.2-1.6-2.4-1.6-1.9-0.7-1.4 1.2-1.2 0.6-3 0.5-1.6 0.5-1.6 1.4-1.2 1.7-0.5 0.9-1.9 2.7-0.9 1-2.3 1.9-0.7 0.9-0.4 2.2-0.2 2.6 0.2 1.6 0.5 1.9 0 0.8-0.6 1-1.2 1.2-0.2 1 0.1 1.3-0.3 1.4-3.1 5.5-1.3 1.3-3.3 2.1-2.7 2.5-1.2 1.5-1.6 1.4-2.2 0.9 0-0.3-2.1 0.2-1.4-0.4-1.9-1.6-0.9-1.2-3.4-6.4-9.6-12.1-5.4-4.7-12.6-8.5 2.9-0.7 3.2-1.6 10.6-8.1 2.8-1.1 3.5-0.1-4.1-1.2-3.7 1.4-3.3 2.2-3.5 1.2-8.9 0.8-1.5-0.8-0.7-1.6 0.6-1.8 2.1-1.1-3.8-9.1-6.2-8.6-1.7-3.2-0.7-3.1 3.2 3.2 1.4 0.9 1 2.9 0.6 1 1.7 0.8 2.2 0.2 5 0-1.3-0.7-4.1-1.2-1.3-0.7-1.8-2.4-1-2.7 0.3-3.3 1.6-3.1 2.2-2.1 4.9 4.4 2.7 0.7 1.3-3.2 4.4 2.2 1.6 1.2 1.1 1.9 0.7-1.4 0.1-1.3-0.6-1.3-1-1.3 1.8 0-6.1-2.2-2.9-1.7-0.8-2.4 1.6-1.7 3.4-1.2 3.6-0.6 2.8 0-0.2-1-0.6-0.8 0.8-0.3 0-0.7-12.9 2.2-3.9-0.3-2.1-2.3 0.6-3.3 2.1-3 2.5-1.3 2.2-1.9 5.6-8.6 3.8-1.9 1.1-2-0.3-0.8-2.1 1-2.5 1.7-1.1 1.2-0.9 1.6-0.9 0 0-2.7-2.3 1.8-4.2 6.4-2.3 2.5-2.9 1.5-3.5 1-2.6-0.5 0-2.9-1.7 1.7-2.5-1.3-2.4-2.4-1.3-3 0.8-3-0.2-0.2 1.8-0.8 1.1-1 1.4-2.6 0.9-1.2 1.7-1.6 0.8-1-0.1-1.4-1.1-2.9-1.1-1.4-1.8-1.2-9.1-1.7-2.7-1.5 0.2-3.4 0.8-3.7 8.9-14.3 0.8-2.7-1.3-3.6-0.2-1.9 0.6-7.5 0.9-3.6 4.2-7.3 2-2.9 1-0.9 3-0.1 1.7 0.5 1.1-0.1 1.2-0.5 0.9-1.1 0.8-4.4 3.7-5.2 3.4-2.8 1.4-3.1 0-3.4 0.2-1.4 0.6-2 1.3-2.1 4.2-3.8 2.4-3.2 1.3-1.3 0.9-1.3 0.2-1.4-2.9-3.1-0.9-1.7 0.4-1.9 1-3.2 1.7-4 2.2-2.6 4.5-0.9 1.4-1.6-0.4-2.4-2.5-5.5-1.8-3.1-4.9-6.1-2.2-5.2-1-4.9-0.1-1.3 0.6-1.1 1.1-0.3 1.4 0 1.5-0.2 1.5-0.9 4.6-5.4 4.4-1-0.9 9.5 2.1 2.9 1.3 0.1 1.4-0.5 2.5-1.8 1.4-0.1 1.7 0.6 4.3 3.1 0.9 1.1 0.5 1 0.3 2.1 1.8 3.4 0.2 5.3-1.4 3.1 0.4 1.2 0.9 1.6 0.9 2.5 1.1 1.9 4.9 2.7 0.5 0.7 0.4 1.1 0.5 3.3 0.4 1.5 0.8 1.1 1.7 1.2 1.8 1.9 0.8 4.2 1.1 1.3 1.5 0.1 2.6-0.4 3.3-6.9 1.5-2.2 4.8-3.3 1.8-1.5 0.8-1.8 0.7-1.8 1.2-2.1 1.3-0.3 1.5 0.2 1.4 0.5 1.4 0.3 1.4-0.2 2.8-1 1.5-0.3 3.5-0.4 1.7 2.1 1.1 4.6 1.4 2.1 1.1 2.4 2.3 6.2 1.5 1.5 2.9 1.1 1.2 1.5 1.1 0.9 2.4 1.1z" id="CMR1476" name="Littoral" data-id="CMR1476" data-name="Littoral">
 </path>
 <path d="M350.5 875.4l0.8 6.7-0.2 3.7-1.3 5.6-1.2 3-5 4.9-1.6 1-2.5 1-1.8 0.3-1.6 0-10.4-1.1-0.9 3 0.8 6.1-1.8 8.4-1 1.9-1.2 1.5-1.5 1.3-6 3.3-5.8 1.9-2.9 0.4-2.2 3.1-5.6-1.4-9.2-1.7-1.8 0.2-2.1 0.7-0.7 1-0.7 1.3-5 12.3-5.3 8.7-1.2 0.7-2.9 1-6.9-0.5-2.3 0-22.8 4.2-2.1 7.9-1.1 1.4-1.5 1.2-1.3-0.4-1-1-1.5-2.8-1.2-1-1.3-0.6-6.2-1.6-2.1-0.3-1.3 0.3-1.1 0.6-7.9 6.1-4-1.4-6.5-1.4-5-1.7-7.3 3.9-8.1-3.8-7.6-2.3-3.9-2-1.6-1.7-1.1-1.5-1.1-2.3-0.7-0.8-1.3-0.5-3.4 0.7-3-0.9-3.2-4.4-1.4-1.5-2.8-1.4-1.1-1.1-0.5-1.8 1.5-6.5-1.3-1.8-1.2-1.1-0.7-1.4 0.6-1.7 1.7-2.1 12.6-7.9 3.1-3.8 2.7-0.8 1.2 0.5 1.5 0.3 1.3-0.5 1-1.5 0.7-2.2-0.1-4.2 0.8-2.7 0.6-6.7-6.3-20.3-1.3-2.6-1.7-5.4-3.2-5.1-2-1.6 9.9-31.3 2.4-2.7 3.1 0.2 2.5 1.2 2.5 0.8 3-1.3 31.8-27 3-1.7 1.8 0.3 1.1 2.2 1.8 9.6 1.4 2.5 2.7 2.1 3.6 1.1 33.4-0.5 0-2.9 0.6-2 1-1.8 1.6-2.2 2.1-1.2 0.8-10 1.1-4.9 1.6-4.7 1.9-3.7 2.4 3.1 0.7 6.4 2.3 1.9 3.4 1.1 9.1 4.8 10.6 4 4.3 2.9 2.1 5.2 1.2 6 2.6 5.7 4.1 4.1 12.1 2.3 4.4 3.4 2.5 5.3 0.4 6.2-0.2 5.2 0.4 5.1 2.2 10.1 2.5 6.2 2.2 1.9 3.4 0.5 8.1-0.8z" id="CMR1477" name="Nord-Ouest" data-id="CMR1477" data-name="Nord-Ouest">
 </path>
 <path d="M568.2 932.3l-0.3 1.6-0.3 2.2 0.5 2.7 0.1 1.4-0.8 4.3 0.4 1.8 0.8 1.5 3.4 3.9 3.2 4.8 1 2 1.8 5.9 1.5 2.8 3.4 3.8 1 1.8 0.4 1.9 1.8 4.9 2.6 4.4 1.3 3 2.2 3 0.2 2.1-0.6 3.4-5.7 13.8-6.1 10.6-0.9 1-1.6 0.9-2.1 0.4-8.2-0.3-6.6 1.7 1.4 2.3 8.8 6.8 14.5 15.3 1.8 2.5 2.4 4.4 0.7 2.6 0.2 2.1-1 4.7 0.3 1.3 1.6 1 6.6 2.5 3.2 0.6 2.9 0.1 1.7 0.8 1.9 2 4.7 9.5 1.9 4.8-3.6 29.3-1.2 2-1.1 0.6-1.3 0-2.9-0.9-1.5-0.1-1.5 0.1-2.9 1.1-1.6 0.4-1.6-0.1-3-0.9-1.6-0.2-3.4 0.4-1.8 0.1-2.5-0.5-1.1-0.5-2-0.3-1.4 0.2-1.5 0.6-6.1 3.7-1.5 1.8-1.6 2.6-2 5.4-2.1 8.7-1.7 3.2-4.2 3.5 1.4 4.3 0.2 3-1 5.4-4.6 14.9 0 2.1 1.4 2.5 1.5 2.1 0.4 1.1 0.2 1.4-0.6 1.4-0.9 1.3-2.6 1.2-1.3 0.4-2 0.8-1.7 1.2-2.6 2.5-1.3 2.1-2.9 2.2-1.2 1.5-0.9 0.3-2.9 0-9.6 3.7-0.6 0.6-0.8 1.5-1.1 1.6-2.2 1.1-0.9 0-1.2 0.9-0.6 1.4-0.1 1.5 0.3 1.7 1.7 3.6 2.6 2.5 7.8 3.4 1.1 1 0.6 1.6-0.3 2.3 0.2 7.6-0.3 3.3-1.2 4-3.9 7.9-2-2.2-2.7-3.4-3.1-6.1-0.9-1.2-1.7-1.1-1.4 0.1-1.5 0.8-7.3 7.6-13.7 11.1-4.6 4.7-1.6 2.8-4.4 16.6-2.6 1.5-6.2 1.9-2.2 0.2-1.5-0.4-0.3-1.5 1.3-2.8-0.2-1.1-1.9-1.3-14.6-7-2.9-2.1-1.7-0.8-4.5-1-2.3-1.7-2.3-1.1-4.2 8-1 1.3-5.9 3.2-2.6 1.8-1.5 0.8-2.9 0.9-1.3 1.2-4.2 7.5-1 3.6-1.9 4.8-1.4 1.1-9.7 4.6-6.3 2-3 0.3-20.2-0.2-5.3 1.2-2.2 0.2-5.4-1-3.5 0.4-4.9 0.8-5.5-5.7-1.5-1.2-0.7-1.3-0.6-3.7-0.7-1.4-1.1-0.7-1.4-0.5-1.4-1-1.4-2-2.2-9.7-1.3-3.3-3.9-4.8-1.6-1.2-1.5 0-4 0.6-1.5 0.1-1.2-0.7-1.8-0.8-3-0.5-6.1 0.9-5.5 0.3-0.6-0.7-0.5-3-0.8-2.7-0.6-1-1-0.7-2.4-0.4-2.8 0.1-8.4 1.8-3.4 0.9-40.8 12.1-10.2 1.6-0.9-0.4-6.5-21.4 1.2-4.1 0.8 0.7 1.1 0.5 1.6 0 1.9-0.8 3.3-2.9 1.6-1.1 0.9-1 0.5-6.1 0.6-2.2 2.8-7.2 0.8-6 0.5-1.6 1.5-3.2 3-2.9 7.1-3.4 3.9 3.5 0.8 0.6 1.3 0.5 4.3 1.1 1.8 1.2 1.5 1.4 2.2 3 1.2 1.1 1.4 0.5 1.4-0.4 1.3-1 1.1-1.4 0.9-1.6 1.4-4-0.4-3.4 1.4-5-0.2-2.9-0.7-3.4-0.1-1.6 0.8-2.4 1.3-2.7 3-4.9 1.2-2.6 2.6-4.1 1-0.3 1.7-1.3 2.3-0.5 1.5-1 1-0.4 1.4-0.2 3 0.2 2.6-0.7 4.6-2.4 6-1.2 5-2.5 2.2 0.5 1.7-1.7 1.6-0.9 6.9-1.7 2.2-1.1 4-2.7 3.1-2.8-1.8-2.5-13.4-12.1-6.4-10.8-4.3-11 0.8-12.1-0.5-3.7-1.1-0.7-2.6 0.1-2.4 1.1-1.1 0.3-1.3-0.1-1.5-0.6-1.6-0.3-1.6 0.1-1.4 0.7-1.3 1.3-0.6 1.9-1.4 6.7-1.5 3.3-3.8 3.9-2.2-0.9-0.9-1.1-0.3-1.6-0.5-0.9-1-0.5-1.3 1.2-1.3 1.7-1.7 1.5-2.1 0.9-5.2 5-1.9 0.8-1.6 0.5-5.2-0.8-1.5-1-2.5-1.9-1.3-0.7-1-0.2-2.3-0.2-1.4-0.6-2.4-2.1-1.4-0.4-2.9 0.6-1.4 0-1.2-0.5-0.8-1.1-0.2-2.1 0.4-2 1-2.3 5-8.3 5.7-5.9 0.9-1.3 0.5-1.4 0.5-2.2 0.1-1.5-0.2-1.8-0.5-1.7-1.4-1.9-3 0.5-4.3 2-6.3 3.9-1.3-0.3-0.9-0.8 0.9-7 1.1-2.4 1.1-1.1 5.3-2.7 4.4-3.6 2.8-3.2 2.4-5.7 9.7 1.7 1.8-0.1 2-0.5 17.9-8.5 1.3-0.9 1.2-1.1 0.8-1.2 0.7-1.6 1.4-1.4 1.3-0.4 1.9 0.7 1.5 0.9 5.5 5.4 1.7 0.4 2.8 0.3 3.1 0 1.5-0.6 1.3-1.1 1.4-3.4 0.3-1 2.7-7.3 1.3-4.4 0.4-3 0.5-1.7 0.7-1.9 2-2.3 2.1-1.7 3.5-1.7 2.7-0.9-1-2.6 0.1-2.6 0.9-3.7 0-0.8-0.5-2.9 0-1.6 1-2.1 1.5-1.4 2-0.8 2.1-0.5 0.7-0.8 3.3-5.4 2.1-0.8 0.9-1 0.8-2.3 0.2-1.5-1.8-2.4 2.6-3.6 0.4-1.1 1.2-3.7 0.3-2.1-0.2-4.7-0.6-2.1-1.5-2.8 0-0.9-0.5-1.4 1.1-2 1.6-2.2 1-2.1-1-1.7 2.8-1.6 1.2-1.2 0.9-2.3 2.2-0.7 0.9-0.6 0.7-1 2.5-4.9 1.8-0.9 0.4-0.7-0.5-1.9-1.2-0.1-1.5 0.2-1.2-0.4-0.8-1.6 0-1.3 0.5-1.3 0.3-1.7-0.3-1.6-1.6-2.4-0.2-1.5-0.1-2.5-0.6-1.3 1.9-1.3 0.9-2.1-0.3-1.9-1.6-0.9 1.2-1.3 2.2-1.5 2.1-1.1 1.2-0.2 2.1 0.8 2.7-0.7 4.5-2.3 29.4-6.5 2.1-1.1 1-0.7 3-1.6 6.3-5.7 5.1-3.3 2.4-2.1 2.4-1.6 2.7-0.4 2.6 0.1 2.5-0.3 1.4-1.1 0.9-0.6 1.7-0.2 1.6-0.5 1.8-2.5 1-0.5 1.1 0.3 1 0.9 1-0.3 0-2.7 1.4-0.5 3.4-0.3 1.5 2 4.2 4.6 3 2.2 3 1.5 1.7 0.7 2.3 0.5 3.2 0.3 3-0.1 2.9-0.8 1.5-0.7 3-1.9 2.2-0.9 2.7-0.5 4.8-0.1 2.6 0.5 2.2 0.9 16.5 12.2 1.3 1.2 1 1.4 1.3 3.8 0.5 0.8 2.2 2.4 0.9 1.3 0.5 0.9 3.1 1.2 13.4 0.3 33.2 0z" id="CMR1480" name="Centre" data-id="CMR1480" data-name="Centre">
 </path>
 <path d="M769 922l0.1 0.7-1.4 2.9-0.6 0.6-0.6 0-1.4-1-0.6 0.1-1 1.1-0.4 0.8 0.3 1.1 1.1 1.5 1.1 1.1 1.5 1.8 1.9 1.5 1.9 2 0.9 2.1 0.5 2.3 1 2.1 2.1 1.4 2.2 0 4.1 0.5 1.9-0.2 3.5-2.2 1.6 0.1 1.7 2.6 0.7 2.6 1.9 2.4 0.8 13.9 0.9 2.7-0.8 1.8-1.8 7.1-2.3 5.9-0.4 2.1 0.2 2.2 0.6 1.8 1.9 3.1 0.8 2 0.2 1.7-0.1 3.9-0.5 1.3-1.9 3.7-0.4 2.2 0.1 3.7-0.5 1.5-1.7 0.6-0.1 1-1.1 2.2-1.3 2-0.6 0.5-0.3 1.7-0.7 2.3-1.1 2.2-1.5 1.4-1.1 0.3 0.5 1.5 2.1 2.3 2.7 1.7 5.6 1.9 2.7 1.3 2 2.1 1.5 2.7 0.9 2.9 0.6 3 0 6.6 0.5 5-0.9 4.8-0.1 2.4 0.5 1.5 0.8 1.1 0.6 1.3-0.3 3.5 0.5 1.3 1.5 2.8 1.8 12.3-0.1 1.3-0.6 3.2-0.7 2.3 0.9 2.2 0.9 9.9 1.7 6.1 3.4 5.5 4.7 4.5 20.5 14.2 5.7 2 1.5 1 0.9 1.3 0.9 3.3 0.8 1.7 4.5 5.6 2 3.6 1.2 3.6 1.3 7.9 0.2 7.4 0.8 3.5 1.5 1.2 2-0.3 1.9 0.8 0.9 1.8 0.4 1.8 0.8 0.9 1.8 0 1.9 0.3 1.6 1.1 0.3 1.4-2.5 1.1-2.9 0.7-5.1 2.4-2.5 0.5-2.1-0.3-4.2-1-2.2 0 7.6 18.2 11.2 16.5 20.5 21.8 11 11.6 26.2 27.9 21.9 23.2 1 0.6 2.6 0.6 2.7-1.2 0.8 0.1 1.9 1.1 5.5-0.6 2.1 0.7 2.6 2.1 2.1 2.7 1.1 2.6 1.7 6.5 1.4 1.9 3.1-1 1.2 0.1 1.4 0.6 1 1.1 2.8 4 1.9 4.3 1.6 2.7 1.3 2.9 0.3 3.4-1.1 3.1-3.4 3.5-0.5 3.4 0.5 4.4-0.1 1.9 0.4 1.1 1.3 0 1.8-0.3 1.6 0.2 1.5 0.3-1.2 1.8-1 1.9-0.4 1.4 0.3 2.7 2 4.5 0.4 2.7-0.6 2.4-2 4.5-0.1 2.9 0.5 1.7 1.7 3 0.5 2.4 0 4.8 0.2 1.1 1.1 2.7 1.6 3.2 2.4 2.8 0.9 1.3 0.7 2.4 0.2 2.6 0.4 0.6 2.3 1.6 0 1.1-0.7 1.6-0.2 1.3 1.7 0.9 1.2 1 0.7 1.2-1.1 1.4-5.2 3.9-2.4-2.3-2.6-0.5-2.1 1.3-0.8 2.8-1.6 2.9-0.3 1.5 0.3 1.7 0.9 2.3-0.3 1.9-1.4 0.3-0.5 1.3 0.3 2.2 0.4 1 0.1 1.1-2 2.8-0.4 1.2 0.2 4.8 0.5 0.7 0.8 0.4 1.1 1 2.3 3.9 4.4 11.4 3.1 14.3-0.4 2-1.4 0.6-2.8-0.9-1.1 0.3-5.9 8.4-5.1-6.6-1.1-2.2 0-1.4 0.6-2.5-0.6-1.5-1-0.9-1.5-0.6-1.5-0.1-1.3 0.8-2.3-0.9-2.5-0.6-1.9-0.9-0.4-2.1-1.4 0.8-1.7 0.6-1.6 0.1-0.6-1.1-0.4-1.9-0.8-0.9-1.3-0.7-3.1-2-3.4-1.2-1.7-0.8-4.9-6.4-0.9-0.5-3.1-0.5-1.6-0.6-1.3-0.8-0.6-0.6-12.3-1.3-11-3.3-5.7-1.1-5.7 0.8-6.6 3.9-2.6 0.9-2.4 1.2-1.5 0-3.1-1.4-0.6-0.1-1-1.1 0.2-2.9-0.3-1-0.7-1-1-0.8-4.4-1.6-0.7-0.4-0.5-0.9-0.8-2-0.6-0.8-2.7-1-2.1 0.6-1.7 0.7-4.1-1.5-1.7 3.8-1.9-0.7-0.8 0-1.3 2.1-2.1 2.1-2.2 0.7-1.5-2.3-2.5 0.8-2-0.6-6.2-4.9-1.2-0.2-1.1 3.1-1.2 0.6-2.8 0.4-5.1-0.4 0.5-3.2 1.4-3.6-2.5-1.8-0.4-1.2-1.7-2.6-1.9-1.8-0.9 0.8 0 1.6-0.2 1.5-1 1.3-1.9 0.4-8 0.9-0.4-0.6 0.2-2.9-0.2-0.9-3.1 0.4-0.5-0.7 1.9-1.5-3.5-1.9-1 0.5 0.9 3.2-1.9-0.8-2.6-2.6-1.8-1.1-3.3 0.1-1.3-0.6 1.1-2.1-3.1-1.4-4.3-4.8-3.3-0.9-1.9 2 0.1 1.2 0.2 1.2-0.4 1.1-1.1 0.4-10.2 2.2-2.7 1.6-0.7 0.3-1.9-0.4-2.5-2.4-2-1.1-8.2-1.1-5.8 2.2-1.2 0.1-57.3-0.5-21-0.2 0-0.3-4.1-88.8-1.3-8-3.1 1.1-1.4 0.8-4.9 4-2 0.7-0.2 0.9 1.3 2.1-1.7-0.5-1.8-0.8-1.3-0.1-0.5 1.8 0.8 3.5-0.2 1.6-1.9 0.6-7.6 0-1.4-0.5-4.9-3-1.2-1.6-0.9-0.3-0.4 1.5-1.3 0.5-1.9-0.1-1.1-0.6-2.5-3-1.2-0.5-1.3-0.9-1.2-0.2-1.2 1.6 0.2 1 1.5 3.9 1 1.4-1.8 0-1.4-0.2-0.9-0.7-0.7-3.3-0.9-0.9-3.2-1.2 0.3-1.9-1.3-1.7-1.9-0.5-1.5 1.4-1.8-0.6-1.8 0.6-1.5-1-2.1-0.4-1.8 0.5-1.2 2.4-0.9 0.5-0.9-0.4-0.8-2.4-0.8 0.1-0.9 0.8-0.6 0.9-1.8-0.8-5.8-1.6-2.5 0-2.2-2.3-1.1-0.3-2.6 2.3-1.7-1.2-1.9-0.4-4.3-0.2-1.8-0.5-2.3-1.1-3.1-0.3-1.7-1.7-3.2-1.3-3.9-5.6-0.4-1.6-0.4-14.6-1.2-6.4-2.1-5.8-4.8-8.3-3.3-4.2-9.1-8.6-4.1-5.3-1.5-2.6-0.6-1.4-0.4-2.1 2.3-15.6 3.9-7.9 1.2-4 0.3-3.3-0.2-7.6 0.3-2.3-0.6-1.6-1.1-1-7.8-3.4-2.6-2.5-1.7-3.6-0.3-1.7 0.1-1.5 0.6-1.4 1.2-0.9 0.9 0 2.2-1.1 1.1-1.6 0.8-1.5 0.6-0.6 9.6-3.7 2.9 0 0.9-0.3 1.2-1.5 2.9-2.2 1.3-2.1 2.6-2.5 1.7-1.2 2-0.8 1.3-0.4 2.6-1.2 0.9-1.3 0.6-1.4-0.2-1.4-0.4-1.1-1.5-2.1-1.4-2.5 0-2.1 4.6-14.9 1-5.4-0.2-3-1.4-4.3 4.2-3.5 1.7-3.2 2.1-8.7 2-5.4 1.6-2.6 1.5-1.8 6.1-3.7 1.5-0.6 1.4-0.2 2 0.3 1.1 0.5 2.5 0.5 1.8-0.1 3.4-0.4 1.6 0.2 3 0.9 1.6 0.1 1.6-0.4 2.9-1.1 1.5-0.1 1.5 0.1 2.9 0.9 1.3 0 1.1-0.6 1.2-2 3.6-29.3-1.9-4.8-4.7-9.5-1.9-2-1.7-0.8-2.9-0.1-3.2-0.6-6.6-2.5-1.6-1-0.3-1.3 1-4.7-0.2-2.1-0.7-2.6-2.4-4.4-1.8-2.5-14.5-15.3-8.8-6.8-1.4-2.3 6.6-1.7 8.2 0.3 2.1-0.4 1.6-0.9 0.9-1 6.1-10.6 5.7-13.8 0.6-3.4-0.2-2.1-2.2-3-1.3-3-2.6-4.4-1.8-4.9-0.4-1.9-1-1.8-3.4-3.8-1.5-2.8-1.8-5.9-1-2-3.2-4.8-3.4-3.9-0.8-1.5-0.4-1.8 0.8-4.3-0.1-1.4-0.5-2.7 0.3-2.2 0.3-1.6 62.9 0 51-0.4 11.9-1.5 13.5-5.1 2-0.4 2.1 0.2 6.5 2.2 2.3 0.5 10.6-1.5 6.8-0.9 12.3-3.1 6.7-0.4 1.7-0.6 1.9-2.9 0.9-0.8 1.2-0.3 1.3 0.4 2.2 2.8 3 1.5z" id="CMR1481" name="Est" data-id="CMR1481" data-name="Est">
 </path>
 <path d="M874.5 767l-3 2.5-2.4 6.2-1.8 3-0.6 1.4-0.2 1.3 0.7 7.6-0.4 1.3-1.1 1.3-3 1.4-1.1 0.8-1.4 2.1-1 2.5-2 8.1-4.3 11.3-2.7 5.4-2.2 6-1 1.8-1.6 1.3-7.8 3.9-2.1 1.5-1.7 2-16.2 36.9-3.3 4.4-0.3 1.5 0.6 3.1 0 1.4-0.3 1.4-1.3 2.4-4.8 6.3-2.1 1.6-18.5 8.9-5.3 0-1.2 2-1.9 2.5-3.8 3.7-1.9 0.6-4.8 4.5 0.3 1.1-3-1.5-2.2-2.8-1.3-0.4-1.2 0.3-0.9 0.8-1.9 2.9-1.7 0.6-6.7 0.4-12.3 3.1-6.8 0.9-10.6 1.5-2.3-0.5-6.5-2.2-2.1-0.2-2 0.4-13.5 5.1-11.9 1.5-51 0.4-62.9 0-33.2 0-13.4-0.3-3.1-1.2-0.5-0.9-0.9-1.3-2.2-2.4-0.5-0.8-1.3-3.8-1-1.4-1.3-1.2-16.5-12.2-2.2-0.9-2.6-0.5-4.8 0.1-2.7 0.5-2.2 0.9-3 1.9-1.5 0.7-2.9 0.8-3 0.1-3.2-0.3-2.3-0.5-1.7-0.7-3-1.5-3-2.2-4.2-4.6-1.5-2-3.4 0.3-1.4 0.5 0 2.7-1 0.3-1-0.9-1.1-0.3-1 0.5-1.8 2.5-1.6 0.5-1.7 0.2-0.9 0.6-1.4 1.1-2.5 0.3-2.6-0.1-2.7 0.4-2.4 1.6-2.4 2.1-5.1 3.3-6.3 5.7-3 1.6-1 0.7-2.1 1.1-29.4 6.5-4.5 2.3-2.7 0.7-2.1-0.8-1.2 0.2-2.1 1.1 0.6-2.6 2.1-5.4-0.1-2.2-0.7-3-2.1-5.5-0.7-2.9-0.3-2.3 0.3-2.9 0.4-1.5 1.3-3 0.1-1.4-0.4-1.4-2-1.4-1.7-0.9-10.3-2.5 1.2-3 1.3-5.6 0.2-3.7-0.8-6.7 3.8-0.4 0.7 0.2 1.4 0.9 1 0.2 0.7-0.4 1.9-1.5 1.4 0.1 2.8 0.7 1.5 0.1 3.2-0.7 3.3-1.7 2.5-2.4 0.8-2.9 0.8-5.4 2-4.5 3.4-2.7 5.1-0.5 3.5-2 3.1-4.3 3.7-8.8 0.9-3.5 0.3-3.5-0.6-2.4-2.9-3.2-0.8-1.9 0.7-3.5 2.3-3.3 8-7.4 7.5-4.7 0.5-0.7 0.5-1.7 1.1-0.8 1.3 0.1 1.5-0.3 2-0.1 0.9-0.3 0.7-1 0.6-2.5 2-1.2 5.5-5 1.4-0.9 1.8-0.6 1.5 0.2 2.2 0.8 1.3-0.5 1.1-3-1.6-3.2-5-5.6-6.4-9.3-1.9-1.6-3.1-0.6-0.7-0.7 1-1.2 2.3-1.7 2.7-2.5 8-12 15.7-15.5 3.5-5.1 2-1.4 1.7-1.5 0.5-2.7-1.9-7.7-0.2-2.7 0.4-2.9 0.9-2.7 4.6-8.5 12.9-18 4.9-5.1 0.8-1.9-0.4-2.2-0.9-3.2-0.7-5 0-5.1 0.7-3.2 5.3-7.6 0.6-1.7 1.5 1.5 5.5 7.6 24.7 22.5 3.1 1.6 2.9 0.8 3.2 0.6 4.9 0.1 1.7 0.2 2.1 0.6 1.2 1.3 2.7 4.4 0.3 1.5-0.1 1.3-0.7 1.3-0.9 1.1-0.4 1.3 0.4 3 0.2 4 0.9 2.1 1.2 1.4 1.6 0.9 3.1 1.2 3 0.6 3.3 1.6 2.1 2 10.5 3 20.8 3.1 1.8 0.6 11.1 5.9 2 0.5 1.8 0.1 2.9-0.6 3.1-0.9 3.6-0.5 6.8 0.4 0.9-1.6 0.4-5.1 0.3-1.7 0.4-1.1 1.3-1.4 0.9-1.4 1.4-0.9 9.1 2 3.6 2.7 1.2 1.6 2.2 1.9 2.2 1.2 2.9 1.2 6.8 4.6 1.8 0.3 1.3-0.6 1.7-1.8 1.2-0.9 4.7-1.7 1.4-0.6 3.1-1.9 1.8-0.8 2.4-0.5 1.8 0.1 3.2 1.1 1.5 0.2 1.5-0.2 14.8-3.4 2.9-0.1 1.6 0.2 1.6 1.6 0.2 5.8 0.9 1.1 1.4 1.2 3.4 0.9 22.6 2.4 1.3 0.6 0.9 1 1 4.7 0.6 1.4 1.4 2 5.4 4.1 1.4 1.4 0.8 1.1 0.2 2.1 2.5 4.3 7 7.4 2.3 1.8 1.5 0.9 1.9 1.6 2 4.2 0.5 7.1-0.7 3.4 0.2 2 1.1 1.3 1.4 0.7 1.6 0.3 3.2 0.2 9.3-0.9 1.8 0.2 1.8 0.6 2 1.3 1.5 1.6 1.2 2.1 0.8 1.7 3.2 4.7 8 1.6 1.9 2.9 0.9 0.8 1.8 1.1 1.5 0.4 1.6 0.1 2.9-0.6 3.2-1.4 9.6-5.9 27-11.9 2-0.6 2.1-0.4 2.1 0 2.9-0.3 2.1-0.7 1.7-1.1 8.1-7 2.8-1.8 2.2-0.7 1.7-0.2 1.5 0.3 1.4 0.6z" id="CMR1482" name="Adamaoua" data-id="CMR1482" data-name="Adamaoua">
 </path>
 <path d="M738.4 411.4l-1.9 0.1-1.1 0.4-0.3 1-0.3 2.6-6.3 12.6-4.1 5.6-10.6 9.2-7.8 11.4 0.2 2 11.5 9.1 36.9 42.7 1.3 5.7 2.3 4.2 28.8 23.2 28.8 23.3 2.1 0.7 2.3-0.6 2.4 0.3 1.8 1 5.1 3.8 1.1 1.2 0.7 1.6 1.8 1 0.9 0.8 0.8 1.2 1.1 3.4 0.3 1.5 0 1.3 0.5 0.8 1.7 0.6 4.9 0.7 3.3 1 2.6 2 2.2 2.6 5.5 9 7.5 7.4 1.9 2.6 21 44.9 7.9 28.1 4.4 10.7 6.1 4.5 2.8 0.2 4.1 0.9 2.9 0.6-0.1 13.4-1.8 7.7-3.4 7.2-5.4 6.9-1 1.8-6.9 9.5-0.5 2.1 2.5 2.3-0.3 1.7-3.8 0.5-0.8 0.7-1.6 2.9-6.1 4.8-9.9 5.6-1.9 1.6-1.4-0.6-1.5-0.3-1.7 0.2-2.2 0.7-2.8 1.8-8.1 7-1.7 1.1-2.1 0.7-2.9 0.3-2.1 0-2.1 0.4-2 0.6-27 11.9-9.6 5.9-3.2 1.4-2.9 0.6-1.6-0.1-1.5-0.4-1.8-1.1-0.9-0.8-1.9-2.9-8-1.6-3.2-4.7-0.8-1.7-1.2-2.1-1.5-1.6-2-1.3-1.8-0.6-1.8-0.2-9.3 0.9-3.2-0.2-1.6-0.3-1.4-0.7-1.1-1.3-0.2-2 0.7-3.4-0.5-7.1-2-4.2-1.9-1.6-1.5-0.9-2.3-1.8-7-7.4-2.5-4.3-0.2-2.1-0.8-1.1-1.4-1.4-5.4-4.1-1.4-2-0.6-1.4-1-4.7-0.9-1-1.3-0.6-22.6-2.4-3.4-0.9-1.4-1.2-0.9-1.1-0.2-5.8-1.6-1.6-1.6-0.2-2.9 0.1-14.8 3.4-1.5 0.2-1.5-0.2-3.2-1.1-1.8-0.1-2.4 0.5-1.8 0.8-3.1 1.9-1.4 0.6-4.7 1.7-1.2 0.9-1.7 1.8-1.3 0.6-1.8-0.3-6.8-4.6-2.9-1.2-2.2-1.2-2.2-1.9-1.2-1.6-3.6-2.7-9.1-2-1.4 0.9-0.9 1.4-1.3 1.4-0.4 1.1-0.3 1.7-0.4 5.1-0.9 1.6-6.8-0.4-3.6 0.5-3.1 0.9-2.9 0.6-1.8-0.1-2-0.5-11.1-5.9-1.8-0.6-20.8-3.1-10.5-3-2.1-2-3.3-1.6-3-0.6-3.1-1.2-1.6-0.9-1.2-1.4-0.9-2.1-0.2-4-0.4-3 0.4-1.3 0.9-1.1 0.7-1.3 0.1-1.3-0.3-1.5-2.7-4.4-1.2-1.3-2.1-0.6-1.7-0.2-4.9-0.1-3.2-0.6-2.9-0.8-3.1-1.6-24.7-22.5-5.5-7.6-1.5-1.5 0.4-1.1 0.1-2.6-2-10.6-0.4-5.9 1-5.7 3-4.2 2.8-1.2 5 0.8 2.8-0.3 1.5-1.2 1-1.5 0.9-1.5 0.9-1.4 3.9-2.7 1.2-1.2-0.1-3.6-0.4-1.9-3-7.4-1.1-1.9 3.6 1.1 1.8 0.3 1.8-0.1 2.1-0.9 1.5-1.1 1.6-0.8 2.3-0.3 1.7 0.5 4.2 1.9 1.9 0.4 2-0.5 13.3-7.1 2.3-2.5 1.9-4.2 1.1-3.7 1-1.6 1.4-0.7 1.9 0.1 1.6 0.3 1.6 0 1.8-0.7 2.8-3.9 1.4-5.6 2.9-24.8-0.9-4.7 0.1-5.3 2.6-6.3 6-10.8 0.8-2.3 0.5-2.4 0.1-5.2-1-3.9-1.3-2.7-3.6-0.6-0.7-0.4 1-2.4 0.8-0.6 7.6-3.6 1.1-0.8 1.4-1.4 3.8-4.9 1.7-1.4 9-3.9 10.2-1.6 8.4-3.4 3.6-9.3 0.7-8.5 1.7-8.9 1.2-3.1 1.2-2.2 0.4-2.1-1.5-2.9-3.7-4-1.4-2.1-0.2-3 1-2.6 3.1-4.9 0.5-3.1-0.5-2.5-1.5-4.3-0.1-2.6 2.3-4.5 4.3-1.7 10.2-1.1 2.4-1.1 1.9-1.1 0.4 0.9 2.6 4.4 1.2 1 1.6 0.8 1.6 0 6.3-1.9 4.7 0 2.6 0.4 1.9-0.7 3-1.4 8.3-2.8 1.6-0.9 0.6-1.4-0.5-1.4-2-2.9-0.6-1.4 0.1-1.4 0.6-1.6 1.1-1.5 2.2-1.9 1.9-0.5 1.9-0.2 8.2 1.7 5 0.5 5.4-0.6 2.6 0.2 7 1.4 4.2 1.4 1.8 1.2 3.2 4.8 0.6 0.5 4.1 3 2.7 3.5 3.8 1 2.1 0 12 3.5 1.2 2.1-1.1 8 0.2 0.4z" id="CMR1483" name="Nord" data-id="CMR1483" data-name="Nord">
 </path>
 <path d="M362.1 933.3l-2.2 1.5-1.2 1.3 1.6 0.9 0.3 1.9-0.9 2.1-1.9 1.3 0.6 1.3 0.1 2.5 0.2 1.5 1.6 2.4 0.3 1.6-0.3 1.7-0.5 1.3 0 1.3 0.8 1.6 1.2 0.4 1.5-0.2 1.2 0.1 0.5 1.9-0.4 0.7-1.8 0.9-2.5 4.9-0.7 1-0.9 0.6-2.2 0.7-0.9 2.3-1.2 1.2-2.8 1.6 1 1.7-1 2.1-1.6 2.2-1.1 2 0.5 1.4 0 0.9 1.5 2.8 0.6 2.1 0.2 4.7-0.3 2.1-1.2 3.7-0.4 1.1-2.6 3.6 1.8 2.4-0.2 1.5-0.8 2.3-0.9 1-2.1 0.8-3.3 5.4-0.7 0.8-2.1 0.5-2 0.8-1.5 1.4-1 2.1 0 1.6 0.5 2.9 0 0.8-0.9 3.7-0.1 2.6 1 2.6-2.7 0.9-3.5 1.7-2.1 1.7-2 2.3-0.7 1.9-0.5 1.7-0.4 3-1.3 4.4-2.7 7.3-0.3 1-1.4 3.4-1.3 1.1-1.5 0.6-3.1 0-2.8-0.3-1.7-0.4-5.5-5.4-1.5-0.9-1.9-0.7-1.3 0.4-1.4 1.4-0.7 1.6-0.8 1.2-1.2 1.1-1.3 0.9-17.9 8.5-2 0.5-1.8 0.1-9.7-1.7-2.4-1.1-1.1-0.9-1.2-1.5-2.9-1.1-1.5-1.5-2.3-6.2-1.1-2.4-1.4-2.1-1.1-4.6-1.7-2.1-3.5 0.4-1.5 0.3-2.8 1-1.4 0.2-1.4-0.3-1.4-0.5-1.5-0.2-1.3 0.3-1.2 2.1-0.7 1.8-0.8 1.8-1.8 1.5-4.8 3.3-1.5 2.2-3.3 6.9-2.6 0.4-1.5-0.1-1.1-1.3-0.8-4.2-1.8-1.9-1.7-1.2-0.8-1.1-0.4-1.5-0.5-3.3-0.4-1.1-0.5-0.7-4.9-2.7-1.1-1.9-0.9-2.5-0.9-1.6-0.4-1.2 1.4-3.1-0.2-5.3-1.8-3.4-0.3-2.1-0.5-1-0.9-1.1-4.3-3.1-1.7-0.6-1.4 0.1-2.5 1.8-1.4 0.5-1.3-0.1-2.1-2.9 0.9-9.5 4.9-3.8 5.4-13.5 0.7-2.2 0.6-5.7 1.1-2.1 2.2-2.6 10.1-8.8 5.8-2.2 0.6-2.4-2.2-5.1 7.9-6.1 1.1-0.6 1.3-0.3 2.1 0.3 6.2 1.6 1.3 0.6 1.2 1 1.5 2.8 1 1 1.3 0.4 1.5-1.2 1.1-1.4 2.1-7.9 22.8-4.2 2.3 0 6.9 0.5 2.9-1 1.2-0.7 5.3-8.7 5-12.3 0.7-1.3 0.7-1 2.1-0.7 1.8-0.2 9.2 1.7 5.6 1.4 2.2-3.1 2.9-0.4 5.8-1.9 6-3.3 1.5-1.3 1.2-1.5 1-1.9 1.8-8.4-0.8-6.1 0.9-3 10.4 1.1 1.6 0 1.8-0.3 2.5-1 1.6-1 5-4.9 10.3 2.5 1.7 0.9 2 1.4 0.4 1.4-0.1 1.4-1.3 3-0.4 1.5-0.3 2.9 0.3 2.3 0.7 2.9 2.1 5.5 0.7 3 0.1 2.2-2.1 5.4-0.6 2.6z" id="CMR798" name="Ouest" data-id="CMR798" data-name="Ouest">
 </path>
 <path d="M207.1 967.7l2.2 5.1-0.6 2.4-5.8 2.2-10.1 8.8-2.2 2.6-1.1 2.1-0.6 5.7-0.7 2.2-5.4 13.5-4.9 3.8-4.4 1-4.6 5.4-1.5 0.9-1.5 0.2-1.4 0-1.1 0.3-0.6 1.1 0.1 1.3 1 4.9 2.2 5.2 4.9 6.1 1.8 3.1 2.5 5.5 0.4 2.4-1.4 1.6-4.5 0.9-2.2 2.6-1.7 4-1 3.2-0.4 1.9 0.9 1.7 2.9 3.1-0.2 1.4-0.9 1.3-1.3 1.3-2.4 3.2-4.2 3.8-1.3 2.1-0.6 2-0.2 1.4 0 3.4-1.4 3.1-3.4 2.8-3.7 5.2-0.8 4.4-0.9 1.1-1.2 0.5-1.1 0.1-1.7-0.5-3 0.1-1 0.9-2 2.9-4.2 7.3-0.9 3.6-0.6 7.5 0.2 1.9 1.3 3.6-0.8 2.7-8.9 14.3-0.8 3.7-0.2 3.4 2.7 1.5 9.1 1.7 1.8 1.2 1.1 1.4 1.1 2.9 0.1 1.4-0.8 1-1.7 1.6-0.9 1.2-1.4 2.6-1.1 1-1.8 0.8-1.7-1.8-1.5 0.6-3.6 4 0.3 0.5-0.4 0.5-5.2 8.5-1.3 3.2-0.3 1.3-0.6 0.9-1.3 0.4-2.3 1.4-4.3 3.9-2.3-1.1-1.5-4.5 0.7-4.8 2.4-3.1 0-0.8-3.2 0.8-1.5 2.1-0.7 2.3-4.4 4.1-3.9-0.7-1.3 0.2 0.1-2.4 0.3-1.8-0.4-1.5-1.8-1.4-1.5-0.2-2.4 0-2.3 0.2-1.3 0.5-2-0.3-6.9-4.4-11.2-5.3-1.6-1.1-0.2-3.7 2.4-7.8 0.4-3.7-4-3.7-3.1-4.3-2.3-5.1-3.1-18.5 0.7-3.2 3.3-5.8 1.3-3-2.9 3.2-1.7 0.9-0.7-1.9 0.3-1.6 0.6-1.5 0.3-1.7-0.3-1.9-1-0.9-2.9-1-1-2.1-1-1.5-1.2-1.3-1-0.4-0.5 1.7 4.1 6.1 0.9 3-0.8 2-1.2 0.5-1-0.9-0.5-2-6.3-5 0 1.7 0.1 1.4 0.7 1 1.1 0.5-1.7 3.1-0.6 0.4-0.9-0.3-2.6-1.5-1.5-1.6-2.1-0.8-2.1-1.2-1-2.2-1.4-4.8-5.8-8.4-0.8-5.1-2.1 3.3 0.9 3.8 1.9 3.9 3.3 12 1.2 1.1 1.5 0.7 1.3 1.1 0.8 3.4-2.7 1.5-16.2 1.2-1.5-0.7 0.7-1.6 1.6-1.7 1.4-1.3-1.6-0.7-1.4 0-1 0.7-0.8 2.8-1.1 0.5-1.4-0.1-1.5-0.4-2-2-0.7-3.1 0.6-2.4 2.1 0.4 0.6-1.7 2.8-4.6-1.8 1.3-1.6 0-1.3-1.1-0.6-2.1 0.3-1.7 1-1.8 2.2-2.6 3.8-2.6 0.7-1 0.1-1.6-0.5-1.6-0.3-1.5 0.7-1.6 0.9 0.9-0.4-5.1 0.2-2.6 1.5-1.2 0.7-0.2 2.2-2.2-0.9-3.6-0.4-2.8 1.1-2 3.6-2.6 0.8-2.4 5-8 2-2.8 1.2-2.5 1.9-5.7 0.8-1.7 2.5-3.9 1.3-1.4 1.5-0.7 1.5-0.2 1.3-0.6 1-1.7 3.4-17.7-0.1-1.4-1.1-3.1-0.1-1.8 0.8-3.1 2.8-5.5 0.9-2.9-0.1-2.8-0.5-2.5-0.1-2.5 0.8-2.9 1.9-2.5 2.4-2.3 2-2.6 0.6-3.1-1.3-3.5-2.5-2.5-2.9-2.3-2.6-2.5-1.7-3.3 1-1.9 2.3-1.7 2.3-2.8 0.5-3.3-1.1-2.2-1.4-2.1-0.2-2.7 1.4-2.1 4.5-3.1 1.8-2.2 2.2-2.1 2.8 0.4 2.8 1 2.3-0.3 0.5-1.7 0.2-3.7 0.7-0.9 2.1-1.1 1.6-1.7 2.8-4.1 12-12.4 17.7-14.4 3.3-4.7 3.7-7.8 1.8-2 1.8-1 1.5-0.1 1.7 0.1 2-0.1 3.6-2.2 3.9-7.6 3.9-2.4 5.9-2.2 2.7-1.4 2-2 3-5.7 2-1.6 3.8-0.8 6.2-0.1 1.6-1.3 0.1-0.3 2 1.6 3.2 5.1 1.7 5.4 1.3 2.6 6.3 20.3-0.6 6.7-0.8 2.7 0.1 4.2-0.7 2.2-1 1.5-1.3 0.5-1.5-0.3-1.2-0.5-2.7 0.8-3.1 3.8-12.6 7.9-1.7 2.1-0.6 1.7 0.7 1.4 1.2 1.1 1.3 1.8-1.5 6.5 0.5 1.8 1.1 1.1 2.8 1.4 1.4 1.5 3.2 4.4 3 0.9 3.4-0.7 1.3 0.5 0.7 0.8 1.1 2.3 1.1 1.5 1.6 1.7 3.9 2 7.6 2.3 8.1 3.8 7.3-3.9 5 1.7 6.5 1.4 4 1.4z" id="CMR799" name="Sud-Ouest" data-id="CMR799" data-name="Sud-Ouest">
 </path>
 <path d="M527.6 1250l-2.3 15.6 0.4 2.1 0.6 1.4 1.5 2.6 4.1 5.3 9.1 8.6 3.3 4.2 4.8 8.3 2.1 5.8 1.2 6.4 0.4 14.6 0.4 1.6 3.9 5.6 3.2 1.3 1.7 1.7 3.1 0.3 2.3 1.1 1.8 0.5 4.3 0.2 1.9 0.4 1.7 1.2 2.6-2.3 1.1 0.3 2.2 2.3 2.5 0 5.8 1.6 1.8 0.8 0.6-0.9 0.9-0.8 0.8-0.1 0.8 2.4 0.9 0.4 0.9-0.5 1.2-2.4 1.8-0.5 2.1 0.4 1.5 1 1.8-0.6 1.8 0.6 1.5-1.4 1.9 0.5 1.3 1.7-0.3 1.9 3.2 1.2 0.9 0.9 0.7 3.3 0.9 0.7 1.4 0.2 1.8 0-1-1.4-1.5-3.9-0.2-1 1.2-1.6 1.2 0.2 1.3 0.9 1.2 0.5 2.5 3 1.1 0.6 1.9 0.1 1.3-0.5 0.4-1.5 0.9 0.3 1.2 1.6 4.9 3 1.4 0.5 7.6 0 1.9-0.6 0.2-1.6-0.8-3.5 0.5-1.8 1.3 0.1 1.8 0.8 1.7 0.5-1.3-2.1 0.2-0.9 2-0.7 4.9-4 1.4-0.8 3.1-1.1 1.3 8 4.1 88.8 0 0.3-47.6-0.4-0.1-3.2 0.6-3.9-0.6-1.9-1.2-1.5-2-1.8-2-1.4-1.4-0.6-0.9 0.2-1.9 0.8-1.2-0.1-0.9-0.3-1.8-1.4-3.6-0.7-3.9-0.2-1.2 0.4-1.5 1.1-2.6 2.5-1.2 0.5-5.5 0.7-3.6-1.5-2.1-0.5-1.8 0.8-1.4 0.4-2.3-0.4-3.9-1.4-1.3 1.3-1.5 0.5-1.6-0.1-1.8-0.8-1.1 1.6-2.6-0.5-3-1.3-2.2-0.7-1.6 0.7-1.5 1.2-1.8 1.2-2.6 0.5-17.5-2.6-3.1-1.2-2.1-1.5-3 0.7-9.5-3.1-5-0.3-7.1 1.6-2.4-0.5-4.2-2.6-1.6-0.5-1.2 0.1-2.7 1.5-1.4 0.3-2.6 0.4-4.9 1.6-2.6 0.5-5.6-0.2-5.3-0.8-2.3-0.1-7.6 0.6-9.9-0.7-9.9 0.9-11.3-0.3-4.4 0.6-2-0.3-6.7-2.2-2.6-2.1-1.3-0.7-1.8-0.2-1.6 0.3-3.4 1.2-34.6 1.3-0.2 1.2 0.6 1.7 0.2 1.7-0.8 1.8-1 1.4-0.8 1.5-0.2 2.1 0 1.6-0.3 1.6-0.5 1.5-0.8 1.4-77.5 0-95 0-2.6-0.4-8.2-4.1-2.2-0.5-2.4-0.9-3.3-2.2-3-2.7-1.6-2.1-0.3-2.6 0.4-2.7-0.1-2.4-1.5-2.2 1.7-1.6 0-0.8 0.9-2.2 0.5-24.1 3.9-17.4 2.2-5.4 0.5-2.1 0.5-16.5 1.3-5.9 2-5.3 2.4-3.8 2.8-3.4 1.6-3.5 0.3-4.1-5-19-2.3-3 0-0.8 1.2 0 2.4-0.9 0-0.6 2.2-0.9 1.6-1.4 1.2-1.5 2.7-2.5 3.3-2.1 1.3-1.3 3.1-5.5 0.3-1.4-0.1-1.3 0.2-1 1.2-1.2 0.6-1 0-0.8-0.5-1.9-0.2-1.6 0.2-2.6 0.4-2.2 0.7-0.9 2.3-1.9 0.9-1 1.9-2.7 0.5-0.9 1.2-1.7 1.6-1.4 1.6-0.5 3-0.5 1.2-0.6 1.4-1.2 1.9 0.7 2.4 1.6 2.2 1.6 0.9 2.6-1.2 4.1 6.5 21.4 0.9 0.4 10.2-1.6 40.8-12.1 3.4-0.9 8.4-1.8 2.8-0.1 2.4 0.4 1 0.7 0.6 1 0.8 2.7 0.5 3 0.6 0.7 5.5-0.3 6.1-0.9 3 0.5 1.8 0.8 1.2 0.7 1.5-0.1 4-0.6 1.5 0 1.6 1.2 3.9 4.8 1.3 3.3 2.2 9.7 1.4 2 1.4 1 1.4 0.5 1.1 0.7 0.7 1.4 0.6 3.7 0.7 1.3 1.5 1.2 5.5 5.7 4.9-0.8 3.5-0.4 5.4 1 2.2-0.2 5.3-1.2 20.2 0.2 3-0.3 6.3-2 9.7-4.6 1.4-1.1 1.9-4.8 1-3.6 4.2-7.5 1.3-1.2 2.9-0.9 1.5-0.8 2.6-1.8 5.9-3.2 1-1.3 4.2-8 2.3 1.1 2.3 1.7 4.5 1 1.7 0.8 2.9 2.1 14.6 7 1.9 1.3 0.2 1.1-1.3 2.8 0.3 1.5 1.5 0.4 2.2-0.2 6.2-1.9 2.6-1.5 4.4-16.6 1.6-2.8 4.6-4.7 13.7-11.1 7.3-7.6 1.5-0.8 1.4-0.1 1.7 1.1 0.9 1.2 3.1 6.1 2.7 3.4 2 2.2z" id="CMR803" name="Sud" data-id="CMR803" data-name="Sud">
 </path>
 <circle cx="589.9" cy="1214.2" id="0">
 </circle>
 <circle cx="570.4" cy="1149.3" id="1">
 </circle>
 <circle cx="423.6" cy="1194.7" id="2">
 </circle>
</svg>