<?xml version="1.0"?>
<!--
************* Copyright (c) 2017 Pareto Softare, LLC DBA Simplemaps.com *******************		
************* Free for Commercial Use, full terms at  http://simplemaps.com/resources/svg-license ************
************* Attribution is appreciated! http://simplemaps.com ***************************
-->
<svg baseprofile="tiny" fill="#7c7c7c" height="1264" stroke="#ffffff" stroke-linecap="round" stroke-linejoin="round" stroke-width="2" version="1.2" viewbox="0 0 1000 1264" width="1000" xmlns="http://www.w3.org/2000/svg">
 <path d="M796.5 389.2l-23-14.1-0.6-0.2-2.1-1-1.9-1.6-5.6-5.9-2.6 0.8-0.9 1-1.1 2-1.1 1.1-1.7 0.6-1.4 0.1-2.5-0.2-1.8 0.5-3 1.5-0.8-0.4-0.5-2.9-0.7-2.4-0.2-0.5-0.6-0.6-1-0.6-3.3-1.1-1.7-1.2-2.4-3.4-4.2 0.5-1.1 0-4.8-1-0.6-0.2-0.6-0.5-0.8-0.9-1.1-1.7-0.9-1.8-0.6-1.6-1.5-3.1-1.6-2.8-1-0.8-0.9-0.4-1.8-0.2-0.9 0.2-1.6 0.8-1.1-0.3-4.5-2.2-2.7-1-0.6-0.1-1.2-1.1-4.8-6.3-2-3.3-0.2-1-1.2-1-4.2-1.4-1.5-2.7-0.8-2.2-0.5-2.1-1.8-0.3-8.1 1.8-1.3-0.3-1.3-0.2-0.6 0.1-1.8 0.5-2.6 1-1.3 0-0.5-0.2-0.5-1-0.2-1.3 0.2-1 0.7-1.4 1.4-2.4 3.9-3.5 2.7-1.9 1.6-1.7 6.3-10.3-4.3-1.9-1.2-0.8 0.3-1.8 5.8-9.6 10.1-3.6 0.2-0.1 5.8-0.1 2 0.3 1.1 0.5 1.6-0.4 2.7-3.1 2.7-0.3 1.2-0.4 0.8-0.7 0.7-0.9 0.5-1.8-1-4.9-0.4-5.8-0.6-2-0.8-1.2-4.4-5-1.5-0.9-1.8-1.3-1.9-1.7-0.9-1-0.5-0.9-3-10.5 27.4 12.4 9.6 4.5 13.2 6.3 21.5 10.1 5.7 2.1 31.6 0.2 23.2 0.5 4.4 0.9-0.5 0.9-2.7 4-1.7 3.6-0.7 3.9 0.3 4.9 2.5 7.9 0.6 4.1-1.5 3.8-9.3 11.7-6.6 8.1-1.8 2.7-4.9 12.6-12.7 15.2-3 6.3-0.8 6.8 0.5 2.1 0.5 2.7 1.3 3 1.6 2.1 1.4 2.9 0.7 2.4z" id="CRI1327" name="Cartago" data-id="CRI1327" data-name="Cartago">
 </path>
 <path d="M735.9 98.4l0.6 0.5 2.5 0.7 0.7 0.3 1 0.7 1.1 1 0.9 1 0.6 1.1 0.1 1.5-0.6 4.5 0.2 1.9 1.5 1.6 0.8 0.7 1.9 1.2 0.8 0.7 1 1.3-0.2 0.6-1-0.3-1.6-0.1-2.3 0.6-6.4 0.6-1.3 0.2-2.3 0.8-3.7 2.4-2.2 2.4-0.8 0.6-2.1 1.1-1.9 1.3-1.2 1.1-0.4 1.3-0.2 2-0.3 6.8 0.1 2.1-1.2 9.6 0 1.3 0.2 0.5 1 1.3 0.6 1 0.1 1.4-0.3 1.8 0.2 1.4 0.9 2.2 0.1 1.7-1.2 4.7-2 3-0.9 0.9-0.9 0.7-1.2 0.2-0.5 0.2-0.4 0.5-1.8 3.4-0.6 1-0.8 1.6-0.3 2.2 0.5 3.3 0.3 0.8 2.9 5.5 0.7 2.4 0.4 1.1 1.5 2.3 0.1 1.1-0.2 1.6-0.7 3.1-0.2 2.7 0.1 0.7-0.3 1.2-0.6 1.6-2.7 5.7-0.6 1.1-10.4 11.1-8.1 0.8-4.2 5.5-1.3 1.4-1.1 0.4-4.8 0.4-4.3 0.9-9.6 0.7-1.1 0.4 0.1 1.2 0.8 1.7 5 7.5 2.9 3.2 0.6 1.7 0.4 5.4 1.8 1.9 1 1 0.7 0.8 0.2 1.6-1.3 4.4-2.7 7.4-4.3 2.5-5.8 1.9-2.2 0.4-5.7-0.4-1 0-8 3.7-2.6-1.1-4.3-2.2-3.8 0.7-0.4-2 0-1.2 0.2-1.2 1.1-1.8 4-4.3 0-0.5 2.6-33.8 0.3-30.6 0.4-25.4 0.4-35.9 0.6-47.6 0-0.9 2 0.3 2.6-0.5 4.1 4 2.5 1 2.5-1.9 1.5 0 2.7 2.6 5.4-3.5 3.7 0.9 2.6-2.6 3-0.5 2.4 1.6 1 3.8 13.2 10.5 1.5 0.7 2 0.3 2.2-0.4 3-2.1 1.5-0.5 6 1.2 0.8-0.5 4.5-5.3 14.5-5.5 1.2-0.3z" id="CRI1328" name="Heredia" data-id="CRI1328" data-name="Heredia">
 </path>
 <path d="M916.5 477.3l-2.2-1.8-0.7-0.5-3.6-1.1-3.7-3.7-1.1-1.7-1.4-3.8-1.1-1.9-0.9-0.5-1.4-0.7-7.6-2.1-1.2-0.9-0.7-1.2-0.3-0.8-2.4-11.9-0.8-2.2-0.8-1.4-0.8-0.7-7.9-4.5-0.8-0.6-1.6-1.5-8.6-11.2-0.9-0.2-1.5-0.2-4.7 0.4-3 0.5-0.8 0-1.1-0.2-1.6-0.5-3.4-1.7-2.1-1.4-1-0.6-4.1-1.3-2.1-1.1-4.1-3.5-0.9-0.7-1.1-0.5-0.7 0-0.9 0.1-1.7 0.9-0.8 0.5-0.5 0.6-2.6 3.6-0.3 0.4-1 0.3-4.1 0.4-1.2 0.2-0.8 0.4-0.8 0.8-0.9 0.7-1-0.2-0.5-1.7-0.3-1.3-1.5-1.2-5.8-1.6-2.7-2-0.7-0.7-1.9-2.6-7.3-20-0.7-2.4-1.4-2.9-1.6-2.1-1.3-3-0.5-2.7-0.5-2.1 0.8-6.8 3-6.3 12.7-15.2 4.9-12.6 1.8-2.7 6.6-8.1 9.3-11.7 1.5-3.8-0.6-4.1-2.5-7.9-0.3-4.9 0.7-3.9 1.7-3.6 2.7-4 0.5-0.9-4.4-0.9-23.2-0.5-31.6-0.2-5.7-2.1-21.5-10.1-13.2-6.3-9.6-4.5-27.4-12.4 2.9-10.1 1.5-1.9 1.9-2 10.4-11.1 0.6-1.1 2.7-5.7 0.6-1.6 0.3-1.2-0.1-0.7 0.2-2.7 0.7-3.1 0.2-1.6-0.1-1.1-1.5-2.3-0.4-1.1-0.7-2.4-2.9-5.5-0.3-0.8-0.5-3.3 0.3-2.2 0.8-1.6 0.6-1 1.8-3.4 0.4-0.5 0.5-0.2 1.2-0.2 0.9-0.7 0.9-0.9 2-3 1.2-4.7-0.1-1.7-0.9-2.2-0.2-1.4 0.3-1.8-0.1-1.4-0.6-1-1-1.3-0.2-0.5 0-1.3 1.2-9.6-0.1-2.1 0.3-6.8 0.2-2 0.4-1.3 1.2-1.1 1.9-1.3 2.1-1.1 0.8-0.6 2.2-2.4 3.7-2.4 2.3-0.8 1.3-0.2 6.4-0.6 2.3-0.6 1.6 0.1 1 0.3 0.2-0.6-1-1.3-0.8-0.7-1.9-1.2-0.8-0.7-1.5-1.6-0.2-1.9 0.6-4.5-0.1-1.5-0.6-1.1-0.9-1-1.1-1-1-0.7-0.7-0.3-2.5-0.7-0.6-0.5 14.3-3.5 7.7-3.9 0.7-6.1-2-7.9-0.2-9.6 0.1-1.1-0.3-1.1 1.6-1.2 1.3 0.3 1.4 0 1.5 0.1 4.4 5.2 5.6 10.3 4 11-0.5 7-3.2-4-5.8-14.2 3.7 17.8-0.3 7.2-6.4 5.4 3.4-0.6 2.2-1.6 2.2-1.9 2.8-1.8-1 1.1-0.2 1.4 0.4 1.6 0.8 1.8 0.9-2.6 0.9-5.1 1.2-2.8 10.7 29.5 13.3 31.5 15.7 26.4 41.8 55 3.3 2.6 14 17.1 8.6 8.6 5.2-2.9 2 1.2 5.8 1.1 1.2 1.7 0.2 4.1 0.7 3.5 1.6 3.1 2.8 2.9 10.2 15.2 3.3 2.4 12.6 17.1 9.5 9 5.6-1.7 1.3 3.5 1.2 9 2 4.1 3.4 2.6 14.7 5.1 5.2 0.5 5.2-0.1 4.8 0.4 4.3 2.2 5.4 8.3 3.9 2.4 2.4 8.4-1.7 0.1-3.3-1.8-3.4-0.6-1.5 2.4-1 8.6-1.4 2.8-2.9 0.5-4.1-0.7-3.8-1.2-2.1-1-2.4-2.6-2.8-5.4-2.2-2.5-1.8 0.8-2.1-0.8-9.1-7.8-12.7-5.1-4.1 0.5-4 3.5-2.5 3.5-0.4 2 2.6 4.8 1.5 6.1 1 1.2 1.4 0.5 1 0.6-0.3 1.8-3.3 1.9-11.7 1.6-4.1 1.5-1.8 3.1-0.6 4.2 1.1 81.4z" id="CRI1329" name="Limón" data-id="CRI1329" data-name="Limón">
 </path>
 <path d="M5.1 1262.8l-4.1 0.2 2.9-4.9 2.6-2.1 3.1-1.8 3-0.6 0 2.2-0.2 2.9-2.8 3.1-4.5 1z m707.4-703.7l-1.7 0.7-2.7-0.5-1.3-1.2 2.8-1.5 3.2-0.1-0.3 2.6z m-297.7-227.1l0.5-0.6 2.3-1.1 1.4-2.9 1.2-0.9 0.6-0.6 0.4-0.9 0.7-2 0.9-1.6 1.2-1 0.1-0.9-0.6-0.7-0.3-1 0.1-1.3 2.2-8.6 0.9-2.2 0.6-1.4-0.1-0.6-0.4-0.4-3.2-0.7-1-0.6-0.3-0.4-0.3-1.3-0.2-1.3-0.5-1-1.1-2-1.2-1.1-0.9-1.3-1-0.6-1.7-0.6-1.4-0.8-1.3-0.3-2 0-1.2-0.3-1.5-0.8-1.9-0.4-1.4 0-2.1 0.3-0.9-0.2-0.9-0.4-0.8-0.8-0.8-1-0.4-1.3 1-1.7 2-1.9 5.4-2.6 2.3-0.7 1.4-0.1 1.2 1.1 0.4 0.2 1.1-0.3 5.6-3.3 1.1-0.5 4.8-1.1 1.3-1.8 2.2-7.2 5 4.4 13.3 5.5 1.7 0.9 1.6-0.6 3.5 1.4 8.4 4.9 3.9 1.3 4.2 0.1 4-1.7 2.5 2.1 5.6 3.5 2.5 2.1 0 1.4-4.4 1.1 0.2 3.2 2.6 3.7 2.9 2.8-1.8 0.6-1.6 1.2-2.7 2.7 3.2 1.5 3.9 0.4 7.9-0.2 0 1.4-3.1 2.1-3.9 1.6-3.4 2.3-1.5 3.9-0.8 0.9-5.2 3-0.9 1.6-1.1 4.1-0.9 1.7-6.9-3.4-3.7-0.3-1.5 3 0.9 1.8 3.4 4.3-0.5 0.8-7.1 3.5-1.2 0.3-0.8 1.2-5.2 2.6-1.1 1.8-4.8 15.3-2 3.9-2.6 3.4-1.6 0-6.1-12.7-18.3-24.8 0-0.1z m18.4-84.3l2.1 1.2 0.9-0.1 2.2 0.5 1.2 1.1 1.8 0.4 2.3 0 0 1.4-2.7 0.9-3.4 0.8-3.7 0.4-3.7-0.5-3.8-1.6-2-2-3-5.6 4.1-1.4 1.8-0.2 7 1.2 6.5 2 0 1.5-7.6 0z m125.8 62.1l-2 1.6 2.1 1 1.6 0.8 0.9 0.7 1.2 1.2 1.2 1.8 1.1 2 0.3 2.1-0.3 1.8-0.4 0.9-0.4 0.6-1 0.5-1.3 0.3-4.2-0.3-1.9 0.4-0.9 0.6-0.5 1 0 1.2 1.7 5.6 0.6 2.7-0.2 4.3 0.1 0.6 0.5 1.4 4.9 8.5 0.1 0.5 1.5 7.4 0.6 1.7 0.9 2.1 1.4 1.8 1.5 1.5 0.7 0.5 2.3 0.2 6.8-1.1 1.5 0.7 1.4 0 3.4-0.9 1.4 0.1 1 0.5 1.4 1.6 1.1 0.5 1.2-0.1 0.7-0.3 0.6-0.5 1.3-2.7 0.9-1 2.5-2 0.8-0.8 0.6-1.2 0.2-1.4-0.8-4.4 0-0.5 0.6-0.4 1.2-0.2 2.6 0 5.7-1.1 9.4-0.5 3.2 0.3 1.2 1.1 0.8 0.6 1.5 1.8 0.4 0.4 2.3 0.4 7.8-0.2 2.9 1.2 3.2 0.3 9.8-0.9 2 0.2 0.5 0.2 0.8 0.6 0.6 1 0.4 1.8 0 1.9-0.4 1.8-0.1 1.5 0 0.6 0.4 0.8 0.8 1 1.6 1.5 1.7 0.6 1 0.2 2-0.3 2.9-0.1 2 0.3 1.6 0.7 0.5 0.8 0.5 1.3 0.4 2.7 0 1.4-0.2 0.9-0.5 1-0.5 1.1 0.8 1.4 4.8 2.2 3.6 6.9 5 4.9 14.3 9.6 3.4 1.1 0.3-0.5 0.7-0.8 1-0.5 1.2-0.3 1.3 0.1 0.7 0.5 0.7 0.8 1.6 2.8 0.3 0.9 0.9 4.3 0.2 0.6 7.1 7.2 1.5 1.9 0.8 1.4-0.3 2.2 0 1.3 0.4 2.5 1.4 4.5 1 2.1 0.6 0.9 0.8 0.9 1.5 1.4 10.9 4.9 1.7 0.5 1.1-0.3 0.8-0.7 1.9-2.7 0.4-0.3 1.1-0.5 1.4-0.3 0.5 0 1.3 0.3 2.1 1 3 2.9 5 6.2 0.8 1.3 0.2 1.2 1.6 5.7 0.8 1.3 1.5 1.8 19.9 12.9 0.5 0.3 2.4-0.2 1.9-0.3 1.3 0.1 0.6 0.2 0.9 0.7 1.3 1.5 1 0.6 1.2 0.3 1.1-0.2 0.8-0.7 2.4-3.3 0.8-0.7 1.6-1 0.4-0.4 0.3-0.8 0.2-1.2-0.6-5.1 0.1-0.9 0.3-1.2 1.7-3.1 0.4-1.3-0.1-2.7-0.2-1.2-1.1-2.4-0.4-0.3-1.7 0.1-0.5-0.2-1.2-1.1-0.4-0.2-2-0.4-0.7-0.7-0.1-0.6 2.2-11.2 0.2-0.6 0.7-1.1 6-6.7 1-2.2 1.5-5.4 0.7-1.2 0.5-0.8 4.8-5 5.8 1.6 1.5 1.2 0.3 1.3 0.5 1.7 1 0.2 0.9-0.7 0.8-0.8 0.8-0.4 1.2-0.2 4.1-0.4 1-0.3 0.3-0.4 2.6-3.6 0.5-0.6 0.8-0.5 1.7-0.9 0.9-0.1 0.7 0 1.1 0.5 0.9 0.7 4.1 3.5 2.1 1.1 4.1 1.3 1 0.6 2.1 1.4 3.4 1.7 1.6 0.5 1.1 0.2 0.8 0 3-0.5 4.7-0.4 1.5 0.2 0.9 0.2 8.6 11.2 1.6 1.5 0.8 0.6 7.9 4.5 0.8 0.7 0.8 1.4 0.8 2.2 2.4 11.9 0.3 0.8 0.7 1.2 1.2 0.9 7.6 2.1 1.4 0.7 0.9 0.5 1.1 1.9 1.4 3.8 1.1 1.7 3.7 3.7 3.6 1.1 0.7 0.5 2.2 1.8 0 2.5 6.6-2.8 2 0 1.5 1.1 0.8 1.7 0.6 1.8 1 1.3 1.3 0.8 4.9 2.2 10 7.4 10 3.5 3 1.9 5.6 9.6 0.9 2.1-3.2 5.2-6.5 4-22.6 9.3-2.6 1.8-2.1 2.9 1 1 1.8 1.1-0.1 3-2 2.4-6.5 4.1-1.8 1.9-0.3 3.3 1.1 3.1 2 2.9 6.8 7.8 3.7 5.1 2.7 5.8 1.8 6.7 1.3 15.4-0.7 7.8-2 6.6-4.9 6-5.7 2.8-6.2 1.9-6.3 3.2-9.7 9.3-10 5.7-1.9 1.5-0.3 2.8 2.1 2.2 6.1 3.6 1.2 1.2 2.1 3.2 1.2 0.9 1.4 0.1 2.6-1 2 0.2 3.9 2.1 1.5 2.2 1 7.1 11.5 25.3-1.1 9.9-1.4 5.1-2.9-2.4 0.3-3.3 1.7-3.8 0.9-3.4-0.6-2.7-14.9-25.7-5.3-5.6-27.2-19.8-7.4-7.4 6.4-7.9 1.2-0.6 1.2-2.3 2.4-2.9 1.5-3.4-1.4-3.6-7.1-9-1.2-2.5-0.2-3.3 1.6-1.1 2.7-0.8 3.5-2.2-2.6-0.8-6.4 0.3-3.1-1.2-1.7-1.8-4.3-8.6 0.7-1.2 0.8-2 1.5 0 2.1 3.6 0.6 1.8 0.3 2.9 0.9 0.5 6.5-2.6 0-1.6-3-1.3-3.1-2.4-2.7-2.8-1.6-2.6-1.5 0-1.7 2.7-4 0.2-4.5-0.6-3.4 0.7-1.6-3-2.6-3.1-3-1.6-3.2 1.7-6.9-4.1-2-3.4 1.3-4.7-1.5-0.1-1.5 0.1 0.9-3.6-3.1-1.7-4.6-1-3.6-1.2-1.3 2.6-1.2-0.2-1.4-1.1-2.3 0.1-1 1.1-0.3 1.6-0.9 1.4-2.9 0.5-7.3-1.1-2.9 1.1-1.1 4.4 1.6-1.2 1.4-0.1 7.7 11.6 1 3.5 4.5 7.1 1.7 2.1 2.9 1.5 8.2 2.5 3.3 0.4 3 1.8 2.9 3.6 2.7 2.3 2.7-1.6 0.2 5.4-0.5 2.3-1.3 1.5 0 1.5 3.3 4.5 1.3 7.8-0.5 8.1-2.5 5.5-4.9 0.1-8-2.6-7.5-3.6-3.6-3 1.3 0 1 0.8 0.8 0.3 3 0.4-4.2-1.9-1.8-1.1-1.8-1.7 0 3.2-12.6-5.6-4.5-0.6-13.4 1.6-3.7 0-3.2-1.5-2.9-3-5.4-6.9-19-17.8-1.2-2.1-1-0.2-4.5-1.8-1.3-0.9-0.7-6.9 6.7-10.3 1.5-1.8 3.5-2.1 2.3-0.9 1.1 0.7 0.7 1.3 1.5-1.5 5.3-8.2 1.5-1.5-2.8-3.6 3.3-3.9 6-3.3 5.4-1.4 0-1.3-4.7-0.6-2.4 0.2-1.6 1.3-2.6 2.8-2.5 1.2-0.9-2.1 1.1-3.8 3-3.7 5.5-2.7 2.5-1.7 1-2.5-1.4-2.2-2.8-1.6-2.6-2.1-0.5-3.9 4.2 2.2 2 0.6 2.7 0.1-1.3-1.6-1.6-1.2-3.2-1.7-1.3-1.1-0.8-1.1-1.2-0.7-2.5-0.1 2.6-1.7-0.3-1.1-1.6-0.9-0.7-0.8 1-2.4 1.1-1.8 1.5-1.6 2.2-1.9-5.8-15.3-1.1-1.9-3.6-4-1.5 1.5-4.9-6.4-4.5-7.5-5.7-5.8-8.8-1.6 0.5-5.7-4.8-4.9-6.6-3.4-4.9-1.3-17.2-16.5-16.9-7.9-2.7-2.1-21.1-8.4-1.4 0-1.4 1.1-1.2 0-1-1-0.9-1.7-3 1.3-1.8-1.5-2-2.1-3.7-0.6 2.3-4.1-3.1-5.8-5.7-5.1-5.5-1.8 0 1.5 1.9 0.3 1.3 0.6 2.9 2.1-5.7-1-9-5.4-5.8-1.2-5.5-0.4-29.3-8.2-5.6-0.5-2.7 0.5-2.8 0.9-2.9 0.6-2.9-0.5-2.6-2.1-0.9-2.7-1-2.1-3-0.7 0.9 1.6 0.5 1.6-3.7-2.9-8.1-5.3-1.6-3.3-0.7-3.1-2-1.4-2.4-1-2.4-1.5-0.7-2.2 0.3-2.4-0.6-1.5-3.4 0.2 0.8-2.5-0.2-2.5-0.6-2.2 0-2 1.3-2.5 3.7-3.8 1.5-3.8 1.6-1.9 1.5-2.4 0.7-3.2-0.7-2.6-1.7-2.3-3.5-3.5-8.8-13.2-2.5-2-3.6-1.5 0.5-3.4 3.1-5.1-5.4-4.4-1-2.2 1.2-3.3-6.3-1.9-19.4 1.9 0-1.6 2.7-1.1 3.4-0.4 7.6 0.1 0-1.5-7-0.4-6.2-1.1-5.7-1.9-5.2-2.8-6.6-5.6-1-1.1-1.4-0.4-2.8-1.9-1.9-2.1 1-1-3.7-1.9-8.9-8.4-4.8-2.4-2.3-2.1-1.4-0.5-1.1 0.5-0.9 0.8-1.3 0.2-1.9-1.5 1.3-2.4 0.4-1.5 4.4-1.3 1.8 0 1.4 0.1 3.2-0.4 1 0.4 1.3 1 1.1 0.4 0.9-0.1 1.1-0.4 0.9-0.1 1.4 0.2 1 0.4 2.1 1.1 2 1.7 2.7 3.4 0.8 0.8 1.7 1.4 2.1 1 1.1 0.4 0.5-0.1 0.4-0.3-0.1-0.9-0.9-2.4-0.2-1.2 0.2-2.1 0.6-1 1-1.2 4-3.5 0.9-0.7 4.2-1.8 0.9-1.3 0.1-1.7-0.2-0.8-0.3-0.6-1-1.3-0.4-1 0.3-1.4 1.3-2.8 0.2-0.7 0.5-4.3 1-2.9 0.1-0.6-0.2-1.2-0.3-0.4-1.6-1.5-0.6-0.9-0.1-1.3 0.1-0.6 1-1.7 1-1 1.3-0.9 2-1 0.8-0.7 1.9-2 1.3-0.9 1.7-0.5 1.6 0 1.1 0 1.3 0.4 0.9 0.5 3.4 2.8 5 7.8 1.4 1.7 1.8 1.3 1.2 0.1 1.8-0.1 4.2-0.8 3-0.8 1.4-0.9 1.1-0.4 1.7 0.2 3.9 2.6 1.2 3.4 0.9 1.3 1.6 1.4 0.1 0.8-0.2 1.2-2.3 4.2-0.7 1.7-1.3 4.9 0.2 1.8 1.2 2.2 0.3 2.1-0.8 5.6 1 3.5 2.4 5.1 1.3 2 3.6 4.4 1.8 2.9 3.6 4.3 1.3 2.2 0.7 1.5 1.2 0.2 1.6-0.5 1.8-1.3 0.5-0.3 1.6 0.8 2.8 4.6-0.2 1.6-0.2 0.5-0.7 0.7-1.1 0.6-3.4 1.3-10.8 7.1-2.4 0.7-1.7 1.7-4.1 6.4-1.5 0.7-0.8 0.8-0.1 0.6 0.1 1.3-0.4 1.2 0.8 0.8 1.5 1.1 4.6 1.8 3.6 1 2.8 0.2 2.7 0.5 1.9 1.5 4.8 6.4z" id="CRI1330" name="Puntarenas" data-id="CRI1330" data-name="Puntarenas">
 </path>
 <path d="M696.7 240.5l3 10.5 0.5 0.9 0.9 1 1.9 1.7 1.8 1.3 1.5 0.9 4.4 5 0.8 1.2 0.6 2 0.4 5.8 1 4.9-0.5 1.8-0.7 0.9-0.8 0.7-1.2 0.4-2.7 0.3-2.7 3.1-1.6 0.4-1.1-0.5-2-0.3-5.8 0.1-0.2 0.1-10.1 3.6-5.8 9.6-0.3 1.8 1.2 0.8 4.3 1.9-6.3 10.3-1.6 1.7-2.7 1.9-3.9 3.5-1.4 2.4-0.7 1.4-0.2 1 0.2 1.3 0.5 1 0.5 0.2 1.3 0 2.6-1 1.8-0.5 0.6-0.1 1.3 0.2 1.3 0.3 8.1-1.8 1.8 0.3 0.5 2.1 0.8 2.2 1.5 2.7 4.2 1.4 1.2 1 0.2 1 2 3.3 4.8 6.3 1.2 1.1 0.6 0.1 2.7 1 4.5 2.2 1.1 0.3 1.6-0.8 0.9-0.2 1.8 0.2 0.9 0.4 1 0.8 1.6 2.8 1.5 3.1 0.6 1.6 0.9 1.8 1.1 1.7 0.8 0.9 0.6 0.5 0.6 0.2 4.8 1 1.1 0 4.2-0.5 2.4 3.4 1.7 1.2 3.3 1.1 1 0.6 0.6 0.6 0.2 0.5 0.7 2.4 0.5 2.9 0.8 0.4 3-1.5 1.8-0.5 2.5 0.2 1.4-0.1 1.7-0.6 1.1-1.1 1.1-2 0.9-1 2.6-0.8 5.6 5.9 1.9 1.6 2.1 1 0.6 0.2 23 14.1 7.3 20 1.9 2.6 0.7 0.7 2.7 2-4.8 5-0.5 0.8-0.7 1.2-1.5 5.4-1 2.2-6 6.7-0.7 1.1-0.2 0.6-2.2 11.2 0.1 0.6 0.7 0.7 2 0.4 0.4 0.2 1.2 1.1 0.5 0.2 1.7-0.1 0.4 0.3 1.1 2.4 0.2 1.2 0.1 2.7-0.4 1.3-1.7 3.1-0.3 1.2-0.1 0.9 0.6 5.1-0.2 1.2-0.3 0.8-0.4 0.4-1.6 1-0.8 0.7-2.4 3.3-0.8 0.7-1.1 0.2-1.2-0.3-1-0.6-1.3-1.5-0.9-0.7-0.6-0.2-1.3-0.1-1.9 0.3-2.4 0.2-0.5-0.3-19.9-12.9-1.5-1.8-0.8-1.3-1.6-5.7-0.2-1.2-0.8-1.3-5-6.2-3-2.9-2.1-1-1.3-0.3-0.5 0-1.4 0.3-1.1 0.5-0.4 0.3-1.9 2.7-0.8 0.7-1.1 0.3-1.7-0.5-10.9-4.9-1.5-1.4-0.8-0.9-0.6-0.9-1-2.1-1.4-4.5-0.4-2.5 0-1.3 0.3-2.2-0.8-1.4-1.5-1.9-7.1-7.2-0.2-0.6-0.9-4.3-0.3-0.9-1.6-2.8-0.7-0.8-0.7-0.5-1.3-0.1-1.2 0.3-1 0.5-0.7 0.8-0.3 0.5-3.4-1.1-14.3-9.6-5-4.9-3.6-6.9-4.8-2.2-0.8-1.4 0.5-1.1 0.5-1 0.2-0.9 0-1.4-0.4-2.7-0.5-1.3-0.5-0.8-1.6-0.7-2-0.3-2.9 0.1-2 0.3-1-0.2-1.7-0.6-1.6-1.5-0.8-1-0.4-0.8 0-0.6 0.1-1.5 0.4-1.8 0-1.9-0.4-1.8-0.6-1-0.8-0.6-0.5-0.2-2-0.2-9.8 0.9-3.2-0.3-2.9-1.2-7.8 0.2-2.3-0.4-0.4-0.4-1.5-1.8-0.8-0.6-1.2-1.1-3.2-0.3-9.4 0.5-5.7 1.1-2.6 0-1.2 0.2-0.6 0.4 0 0.5 0.8 4.4-0.2 1.4-0.6 1.2-0.8 0.8-2.5 2-0.9 1-1.3 2.7-0.6 0.5-0.7 0.3-1.2 0.1-1.1-0.5-1.4-1.6-1-0.5-1.4-0.1-3.4 0.9-1.4 0-1.5-0.7-6.8 1.1-2.3-0.2-0.7-0.5-1.5-1.5-1.4-1.8-0.9-2.1-0.6-1.7-1.5-7.4-0.1-0.5-4.9-8.5-0.5-1.4-0.1-0.6 0.2-4.3-0.6-2.7-1.7-5.6 0-1.2 0.5-1 0.9-0.6 1.9-0.4 4.2 0.3 1.3-0.3 1-0.5 0.4-0.6 0.4-0.9 0.3-1.8-0.3-2.1-1.1-2-1.2-1.8-1.2-1.2-0.9-0.7-1.6-0.8-2.1-1 2-1.6 1.6 0 0.3-0.4 0.3-1.7 0.4-0.9 4-5 0.1-1.3 0.6-0.8 1.5-1.1 3.7-2 2.6-2.5 0.5-0.8 1.7-1.1 6.8-3 9.7-0.8 5.4-1.1 4.2 1.2 4.4 0.8 1.9 0.5 2.6 0.3 1.1 0.4 3.9-0.6 14.7-4.1 6.1-2 3.2-3.5 3.8-0.7 4.3 2.2 2.6 1.1 8-3.7 1 0 5.7 0.4 2.2-0.4 5.8-1.9 4.3-2.5 2.7-7.4 1.3-4.4-0.2-1.6-0.7-0.8-1-1-1.8-1.9-0.4-5.4-0.6-1.7-2.9-3.2-5-7.5-0.8-1.7-0.1-1.2 1.1-0.4 9.6-0.7 4.3-0.9 4.8-0.4 1.1-0.4 1.3-1.4 4.2-5.5 8.1-0.8-1.9 2-1.5 1.9-2.9 10.1z" id="CRI1331" name="San José" data-id="CRI1331" data-name="San José">
 </path>
 <path d="M649.5 95.1l0 0.9-0.6 47.6-0.4 35.9-0.4 25.4-0.3 30.6-2.6 33.8 0 0.5-4 4.3-1.1 1.8-0.2 1.2 0 1.2 0.4 2-3.2 3.5-6.1 2-14.7 4.1-3.9 0.6-1.1-0.4-2.6-0.3-1.9-0.5-4.4-0.8-4.2-1.2-5.4 1.1-9.7 0.8-6.8 3-1.7 1.1-0.5 0.8-2.6 2.5-3.7 2-1.5 1.1-0.6 0.8-0.1 1.3-4 5-0.4 0.9-0.3 1.7-0.3 0.4-1.6 0-4.8-6.4-1.9-1.5-2.7-0.5-2.8-0.2-3.6-1-4.6-1.8-1.5-1.1-0.8-0.8 0.4-1.2-0.1-1.3 0.1-0.6 0.8-0.8 1.5-0.7 4.1-6.4 1.7-1.7 2.4-0.7 10.8-7.1 3.4-1.3 1.1-0.6 0.7-0.7 0.2-0.5 0.2-1.6-2.8-4.6-1.6-0.8-0.5 0.3-1.8 1.3-1.6 0.5-1.2-0.2-0.7-1.5-1.3-2.2-3.6-4.3-1.8-2.9-3.6-4.4-1.3-2-2.4-5.1-1-3.5 0.8-5.6-0.3-2.1-1.2-2.2-0.2-1.8 1.3-4.9 0.7-1.7 2.3-4.2 0.2-1.2-0.1-0.8-1.6-1.4-0.9-1.3-1.2-3.4-3.9-2.6-1.7-0.2-1.1 0.4-1.4 0.9-3 0.8-4.2 0.8-1.8 0.1-1.2-0.1-1.8-1.3-1.4-1.7-5-7.8 3.6-6.7 0.3-2.3-0.8-1.4-0.6-1.5-0.9-4.1 3.4-12.3-4.8-9.6-1.6-2.5-12.5-9.7-4-2-12-3.2-3.1-1.2-2.3-2.6-5.9-5.3-0.7-0.8-1.2-1.9-0.7-1.6-1-6-2.5-4.5-3.1-4.9-1.3-1.5-1.4-0.9-3-1.3-2.4-0.7-11.7-2.8-3.4-1.1-1.3-1-1.7-1.6-6.5-4.4-1.7-0.9-1.2-0.5-1.4-0.1-1.5 0-2.7 0.3-4.8 1.2-5.7 0.6-6.5-0.3-5.4-10.7-2-2.9-1.4-1.1-1.1-0.4-5-0.6-1.3-0.5-5.3-3.1-2.5-1.9-10-11.6-0.7-1.3 0-1.1 0.8-1 7.5-0.6 2-0.8 0.6-1.1 0.5-0.9 17.2-11.8 10.4-11.9 0.9-0.6 1.4-0.3 1.3-0.4 1.7-0.4 0.5-0.5 31.5 11.7 35.3 13.2 5.1 0.5 5.1-1.8 38.8-25.8 6.9-1.6 3.9 1.7 8.3 6 3.8 0.6 4.8-0.3 5 1.6 10.9 4.9 1.2 0.3 1.2 0.4 1 0.6 0.9 0.7 5 6.2 1.9 1.6 2 1.1 2.3 1 2.4 0.2 2.1-0.9 11.8-7.7 1.8-1.1 2.1 1 0.5 1.7 0 2.3 0.4 2.7 1 1.7 2.9 3.6 0.6 1.6 2.3 2.2 10.2 3.9 2.3 1.6 2 2.2 4.2 2.1 3.8 3.2 0.8 5.4-3.1 1.6-0.9 0.6-1 1.7 0.5 1.3 0.8 0.9 0.5 0.8 4.9 3.9 1.1 1.5 2.5-1.8 3.4 0.1 1.5 0.2z" id="CRI1333" name="Alajuela" data-id="CRI1333" data-name="Alajuela">
 </path>
 <path d="M413.2 36l-0.5 0.5-1.7 0.4-1.3 0.4-1.4 0.3-0.9 0.6-10.4 11.9-17.2 11.8-0.5 0.9-0.6 1.1-2 0.8-7.5 0.6-0.8 1 0 1.1 0.7 1.3 10 11.6 2.5 1.9 5.3 3.1 1.3 0.5 5 0.6 1.1 0.4 1.4 1.1 2 2.9 5.4 10.7 6.5 0.3 5.7-0.6 4.8-1.2 2.7-0.3 1.5 0 1.4 0.1 1.2 0.5 1.7 0.9 6.5 4.4 1.7 1.6 1.3 1 3.4 1.1 11.7 2.8 2.4 0.7 3 1.3 1.4 0.9 1.3 1.5 3.1 4.9 2.5 4.5 1 6 0.7 1.6 1.2 1.9 0.7 0.8 5.9 5.3 2.3 2.6 3.1 1.2 12 3.2 4 2 12.5 9.7 1.6 2.5 4.8 9.6-3.4 12.3 0.9 4.1 0.6 1.5 0.8 1.4-0.3 2.3-3.6 6.7-3.4-2.8-0.9-0.5-1.3-0.4-1.1 0-1.6 0-1.7 0.5-1.3 0.9-1.9 2-0.8 0.7-2 1-1.3 0.9-1 1-1 1.7-0.1 0.6 0.1 1.3 0.6 0.9 1.6 1.5 0.3 0.4 0.2 1.2-0.1 0.6-1 2.9-0.5 4.3-0.2 0.7-1.3 2.8-0.3 1.4 0.4 1 1 1.3 0.3 0.6 0.2 0.8-0.1 1.7-0.9 1.3-4.2 1.8-0.9 0.7-4 3.5-1 1.2-0.6 1-0.2 2.1 0.2 1.2 0.9 2.4 0.1 0.9-0.4 0.3-0.5 0.1-1.1-0.4-2.1-1-1.7-1.4-0.8-0.8-2.7-3.4-2-1.7-2.1-1.1-1-0.4-1.4-0.2-0.9 0.1-1.1 0.4-0.9 0.1-1.1-0.4-1.3-1-1-0.4-3.2 0.4-1.4-0.1-1.8 0-4.4 1.3-1-0.7-0.8-0.4-2.9-2.6-3.9 1.3-14.9 0.2-3.9-1-3.5-2.5-5.5-5.7 0-1.4 1.3-4.1-3.9-4.7-9.4-6.6 1.4 4.5 6.3 4.7 1.5 5.4 0.5 10.4 1.4 6 2.5 4.1-2.8 1.9 0.4 3.1 2.6 2.9 6.7 2.3 2.4 2.6 2.8 5.6 1.4 0 1.8-0.7 0.7 0.6 0.4 1.5-1.9 0.1-2-0.2-1.9-0.6-1.6-0.7 0 1.4 4.1 3.7-2.2 7.2-1.3 1.8-4.8 1.1-1.1 0.5-5.6 3.3-1.1 0.3-0.4-0.2-1.2-1.1-1.4 0.1-2.3 0.7-5.4 2.6-2 1.9-1 1.7 0.4 1.3 0.8 1 0.8 0.8 0.9 0.4 0.9 0.2 2.1-0.3 1.4 0 1.9 0.4 1.5 0.8 1.2 0.3 2 0 1.3 0.3 1.4 0.8 1.7 0.6 1 0.6 0.9 1.3 1.2 1.1 1.1 2 0.5 1 0.2 1.3 0.3 1.3 0.3 0.4 1 0.6 3.2 0.7 0.4 0.4 0.1 0.6-0.6 1.4-0.9 2.2-2.2 8.6-0.1 1.3 0.3 1 0.6 0.7-0.1 0.9-1.2 1-0.9 1.6-0.7 2-0.4 0.9-0.6 0.6-1.2 0.9-1.4 2.9-2.3 1.1-0.5 0.6-1.2-2.8-0.9-1-2-1.3-5.5-2.3-0.5-1.8 0.1-2-0.2-1.5-5.2-5.8-7.2-4.1-23.6-8.5-2.1 0.5-3.1 2.2-1.5 0.5-2.1-0.5-2.9-2.2-2.5-0.5-1.4-0.1-0.5-0.4-0.2-0.6-0.8-1-1.6-0.7-1.2 0.3-0.9 0.7-0.1 0.4-12.4-4-6-0.9-1.4-0.9-1.1-1-1.7-0.9-2.5 0.1-1.6 1-1.4 0.1-2-2.6 1.6-4.1-2.3-5.6-22.5-27.7-1.3-2.5-1.8-5.9-2.7-4.2-8.5-21.1-0.8-6.3-0.9-3.8-1.3-2.8 3-3 1.2-2.1-0.4-1.8-4.7-6-2.9-1.8 1.6-2.2 3.8-3 2.6-3.8 1.8-3.7 3.7 1.5 2-2.3 1.6-3.5 4.7-3.5-1.8-4-3.3-4.2-2.3-2.4 1.9-1.2 1.1-0.3 0-1.5-3 0 0-1.5 2.5-0.5 1.6-1.6 1.9-4.2 1.5 0 3 2.5 4.3-1.8 4.4-2.4 3.3 0.4 1.4 0-0.3-3 0.8-1.4 1.2-0.7 1.2-1 2-3.5 0.8 0.2 2.7 0.2 6.6-6.9-0.5-1.8-1.2-1.5-2.8-1.9-9 9.1-0.2-0.8 0-0.6-0.2-0.4-1.1 0.1 0-1.4 2.5-2.7 1.6-1.2 1.9-0.6-1.5-1.5-0.9 1.1-0.7 0.4 0.5-1.9 0.1-0.6 2.5-0.7 0-1.4-1.5 0 0-1.7 3.7-2.9 0.7-7.6-1.3-14.7-3.3-3.9-7.2-3.2-7.3-1.2-3.3 2.3-1.3 0-6-5.1-1.8-1.9 1.1 0.4 1.3-0.6 0.5-1.3-1.2-1.5-1.6-0.4-4.3 0.4-1.7 0-6.5-2.5-5.1-2.9-5.6-2.6-8.3-1 0-1.7 5-1.2 9.3-4.3 5.2-0.6-0.9-1.4-0.6-0.8-1-0.5-2-0.3 0-1.5 10.8-0.7 2.8 0.7 1.1 1.7-0.3 2-0.5 1.6 0.4 0.7 0.9 0.5 2.9 2.6 1.3 0 1.7-1.7 0-1.4-2.5-2.4 2.4-1.6 4.6-0.7 4.4 0.2 1.5 0.7 2 1.9 1.8 0.4 1.4-0.5 0.6-1.3-0.2-1.5-1.1-1.2 0-1.7 3.3-1.2 0.9-2.5-0.8-2.9-1.8-2.6-1.5-1.1-3.7-1.6-1.6-1.1-1.9-1.9 0-0.6 1.1-0.2 1.5-1.1 3.4-3.1 1.9 1.1 2.3 2.1 4.4-0.1 2.6-2.4-0.5-3.3-2.4-3.1-2.7-2-1.9-0.8 5.3-8.6 4-8.8 6.2-8.3 7.3-3.1 6.3 3.3 6.2 5.5 7.1 4 22.1 8.3 37.5 13.9z" id="CRI1334" name="Guanacaste" data-id="CRI1334" data-name="Guanacaste">
 </path>
 <circle cx="636.3" cy="368.1" id="0">
 </circle>
 <circle cx="747.5" cy="402.4" id="1">
 </circle>
 <circle cx="921.5" cy="526.3" id="2">
 </circle>
</svg>