<?xml version="1.0"?>
<!--
************* Copyright (c) 2017 Pareto Softare, LLC DBA Simplemaps.com *******************		
************* Free for Commercial Use, full terms at  http://simplemaps.com/resources/svg-license ************
************* Attribution is appreciated! http://simplemaps.com ***************************
-->
<svg baseprofile="tiny" fill="#7c7c7c" height="344" stroke="#ffffff" stroke-linecap="round" stroke-linejoin="round" stroke-width="2" version="1.2" viewbox="0 0 1000 344" width="1000" xmlns="http://www.w3.org/2000/svg">
 <path d="M652.5 271.1l-0.2 0-0.1-1.1-0.9-0.4 0.8-0.3 1.3 0.4 0 0.6-0.9 0.8z m-45-8.4l-1 0.1-0.6-0.4 0.5-0.4-0.5-0.4 0.5-1.1 0.3 0 0.6 1.3 0.6 0.1-0.4 0.8z m26.3-3.9l-0.7 1.2-0.4-0.2-0.4-0.6 0.2-0.3 1-0.3 0.3 0.2z m294.3-0.6l-0.1 0.9-1.3-0.8-0.4-0.7 1.8 0.6z m-345.1-8.1l0.1 0.3 0.4 0.1 0.1 0.8-0.6 1.3-0.1 0.5 0.4 0.4-0.2 0.3-0.6 0-1.3-2.4-0.2-0.4 0.3-0.4 0.7-0.2 0.4-0.4 0.5-0.3 0.1 0.4z m14 1.5l-0.2 1.2-1-1.6-0.4-1.9 0.6 0.7 0.5 1 0.4 0.3 0.1 0.3z m-12.1-6.7l-0.5 0.1-0.4-0.5-0.5-1.2 0.1-0.2 0.8-0.1 0.5 0.8 0.1 0.5-0.1 0.6z m-9.4-28.2l0.7 0.8 0.2 0.6-0.3 0.1-0.7-0.2-0.5-0.7-0.6 0.1-0.7-0.8 1.3-0.4 0.2 0.3 0.4 0.2z m-3.6-30.9l-0.8 1.5-0.3-0.5 0.5-0.1-0.2-0.9 0.8 0z m-337.6-14l-0.7 0.5-1.8-1-0.9-0.3-0.4-0.4 0.1-0.5 0.8-0.2 1.8 0.3 1.3 0.7 0.2 0.4-0.4 0.5z m13.2-2.4l-0.8 0.5-1.5 0.5-2 0.2-1.1 0.4 0-0.2 0.6-0.9 0.6-0.4 0.4 0 0.9-0.3 0.8 0.4-0.1-0.4 0.3-0.4 1-0.4 0.1 0.5 0.5 0.5 0.3 0z m-25.9-15.7l0.4 0.1 0.5-0.5 0.3 0.2 0.3 0.8 0.6 0.1 0.5-0.2 0.8 2.4-0.8 0-0.5-0.7-0.4-0.2-0.5 0.4-0.8 0.3-1.5-0.2 0.9-0.6 0-0.5-0.7-0.6 0.2-0.5 0-0.9-0.5-0.8 0.2-0.5 0.8 0.8 0.6 0.4-0.4 0.7z m-57.7-4l0 0.8-0.6-0.7-1.4-2.9-0.2-1.2 0.2-0.4 0.4 0.5 1.6 3.9z m124.2-8.7l-0.1-0.3 0.6-0.7 1.4 0 0.1 0.4-0.8 0-1.2 0.6z m-70.1-2.6l0.8 0.8-0.1 0.7-0.6 0.6-0.5-0.2 0.3-0.7-0.1-0.4-0.5-0.1-0.9-0.8 0.2-0.2 0.4 0 1 0.3z m448.6-0.2l0.4 0.4 0.6-0.1 0.1 0.9-0.6 0.4-1.9-1.1-0.1-0.8 1-0.3 0.3 0.1 0.2 0.5z m-451.2 0l-0.1 0.1-0.8-0.4 0.3-0.2 0.6 0.5z m-67-5l-7.5 0.7-0.3-0.3 4.3-1.3 0.7 0 1.4 0.3 1 0.1 0.7 0.3-0.3 0.2z m175.3-12.9l0.8 0.6 0.7-0.2 0.4 0.3 0.2 0.7 0.5 0.6 1.8 1.4 0.5 0.1 0.3-0.3 0.4 1.1 0.5 0.3 0.9 0 1-0.4 0.3-0.7-0.4-1.1-0.1-0.7 0.4 0 0.5 0.4 0.3-0.2-0.1-0.7 0.3-0.3 0.7 1.3-0.1 1 0.4 0.6 0.5 0.5 0.9 0.2 0.9-0.5 0.6 0.1 0.2 0.3-3.5 1.2-1.1-0.9-0.8 0.1-1 0.5-1.1 0-4.7-3.9-1.1-0.5-0.3-0.5 0.3-0.4z m312-9.5l0.4 0 0.2-0.5 0.5-0.1-0.2 0.8-0.9 0.4-0.9-0.6-0.8-0.6-0.2-0.9-0.4-0.6 0.2-0.3 0.3 0.5 1.4 1 0.6 0.5-0.2 0.4z m-24-5l0.1-0.7-0.2-0.4-0.9-0.2-0.2-0.6 0.2-0.7 1.6-1.6 1.8-0.3 0 0.6-1 1.5-0.4 1.1-1 1.3z m39-5.2l-0.3 0.4-1.5 1.5-0.7 0.4 0-0.6-0.8-0.9 0.1-0.4 0.3-0.4 0.4 0 0.7 0.4 0.7 0 0.6-0.5 0.5 0.1z m0.9-3.3l-0.6 0.1-0.4-0.4-0.1-0.8-0.2-0.4-1.2-1-0.3-0.5-0.8-0.9-0.3-0.5 0.3-0.4 0.6 0.2 1.3 1.5 0.6 0.4 0.7 0.8 0.6 1.2-0.2 0.7z m-602.8-10.9l3.3 1 0.9-0.3 0.5 0.1 0.2 0.7-0.4 0.6-0.8-0.2-1.5 0.8-1.1-0.3-1.1-0.6-1-0.3 0-0.8 0.5-0.9 0.4-0.4 0.1 0.6z m579.5-5.8l1 1.3 0.7 1.3-0.1 0.8-0.6-0.4-0.4-1.4-0.6-1.2-0.4 0-0.5 1-0.3 1.2-0.3 0.2-0.3-0.4-0.5-0.1-0.9 0.2-0.5-0.3 0.4-0.4 0.7-0.3 0.8-0.8 0.4-0.8-0.1-0.4 0.3-0.2 1.2 0.7z m-389.6-0.7l0.1 0.7-0.9-0.4 0.1-0.5 0.2-0.4 0.3-0.7 0-0.9 0.6-0.2 0 0.7-0.4 1.7z m323.9-2.7l1.9 0.1 1.3 2.5-0.4 0.4-0.8-0.3-0.6-0.7-1.1-0.3-1-0.1-0.3-0.5 0.3-0.6 0.7-0.5z m-10.1-0.4l-1 0.5-0.1-0.5-0.4-0.2 0.1-1 0.6-0.3 0.8-0.1 0.5 1.2-0.5 0.4z m-16.3-3.4l0.6 0.9-1.2 0.4-2.2-0.8 0.4-0.9 0.4 0.7 0.2 0.2 0.4-0.1-0.5-0.6 0.6-0.1 0.5-0.4 0.6 0.2 0.2 0.5z m44.9-5.6l1.6 2.1 0.1 0.7-0.6 0.2-0.7-0.5-0.1-0.6-0.5-0.1-0.9-0.9-0.6 0 0.4 0.6-0.5 0.4-0.3-0.5 0.5-1.1-0.5 0-0.1 0.4-1-0.3 0.2-0.5-0.1-0.4-0.5-0.3-0.2-0.3 0.5-0.2 1.4 0.1 1.9 1.2z m-43.3-1.8l0 0.4-0.6 0-0.5 0.8-0.3-0.2-0.1-0.7-0.6-0.1-0.7 0.1-0.7-0.5 0.1-0.6 1.5-1 0.9-0.1 0.6 0.3-0.1 0.8 0.5 0.8z m-34.7-5.2l0.2 0.3 0.6-0.1 0.1 0.5-0.4 0.4-0.4 0.7 0.2 0.5-0.1 0.4-0.9-0.1-0.6-0.7-0.1-0.8-0.4-0.7 0.8-1.3 0.3 0 0-0.8 0.7-0.2 0.2 0.4-0.2 0.7 0 0.8z m-392.6-14.1l0 0.4-0.4 0.4-0.4 0.1 0.1-0.6-0.2-0.3-0.8 0.1-0.6 0.4-1.2 0.1-0.7 0.6-0.3 0.7 0.1 0.5-0.8 0.7 0.3-1.1 1-1.6 1.6-1 1.1 0.1 1.2 0.5z m362.3-8.2l-1.1 0.2 0.5-1.5 0.6-0.2 0.4 0.5 0 0.8-0.4 0.2z m-11.4-6.3l-0.5 0.1-0.2-1.3-0.3-1-0.4-0.3 0.2-0.3 1.1 0 1.1 0.7 0.5 0.8-0.1 0.5-0.8 0.4-0.6 0.4z m-4.7-9.1l1.2 1 0.2 0.4-1.6 2.2-0.9 0.7-0.6 0-0.4-0.9 0-1.4 0.4-0.8 0.2 0.2 0.9 0.3 0.2-0.2 0.2-0.8-0.8 0.2-0.2-0.2 0.2-0.5 0.4-0.4 0.6 0.2z m-92-18.3l-0.4 0 0.1-0.9 0.7-1.5 0.6-0.2 0.2 0.5-0.1 0.5-1.1 1.6z" id="CUB99" name="" data-id="CUB99" data-name="">
 </path>
 <path d="M455.5 134l-3.4 3.5-2.5 2-0.9 1.2-0.1 0.5-0.2 4.1-0.4 0-3.8-1.5-3.9-0.8-2.7-2.3-4.8-1.6-2.9-2.4-10-10.9-0.2-0.4-0.1-1.1-0.4-0.6-0.4 0-1.1 0.1-0.4-0.1-1-0.9-0.2-0.6 0-1.2 1.3 0.3 1.6-0.1 1.6-0.5 1.2-1-1.4 0.3-0.5 0.3 0.3-0.9 0.5-0.8 0.4-0.9 0-0.8-0.7-0.3-1.1 0.3-0.9 0 0.1-1.3-1.8 0-1.1-0.8-0.2-1.2 1.4-1.5-2.2-1.4-0.9-0.8-0.7-1.2-0.7 1-1.1 0.4-1.4-0.2-1.3-0.6-0.5 2.1 0.9 1.4 2.8 2 1.3 1.9 1.2 2.3 0.6 2.4-0.6 2.3-3.9-1.5-7.4 0.2-0.7-1.1-0.2-0.6-0.1-1.1-0.1-1.7-0.1-0.6-0.4-0.8-0.7-0.8-0.6-0.2-1-0.1-1.9 0.3-1.3 0.3-0.9 0.1-0.4-0.2-0.6-0.6-0.5-0.2-1.5 0.1-1.5 0.1-0.3 0.1-0.8 0.8-0.3 0-0.7-0.3-1.3-0.8-3.2-1.3-2.9-1.7-1-1.5-1.1-1.1-3.9-2.8 0.4-1.8-0.3-1.7-0.3-0.3-0.4 0-1.5 0.1-0.3-0.1-0.5-0.5-0.2-1.4 0.3-1.6 0.5-1.4 0.1-1.3-0.4-1.1 0.4-1.1 0.7-1.1 0.1-0.5-0.1-0.4-0.9-0.3-1.1 0.4-0.6 0 0.1-0.7 1.4-2.4 0.3-0.7 0.6-1.6-0.1-0.6-0.8-0.3-0.3-0.3 0.7-0.9 1.1-0.8 1.9-1.8 0.5-0.4 2-0.9 1.1-0.7 1.1-0.8 0.8-0.2 1 0.1 4.6 1.2 0.7 0.1 2.2-0.2 8.5 0.9 0.9 0.3 1 0 2.1-0.9 0.6-0.3 1.7-0.3 0.4-0.4 0.6-0.8 2-3.8 0.4-0.5 1.8-1.2 3.9-2.3 1.7-2 0.4-0.2 0.8 0 0.5 0.2 2.2 1.8 2.3-0.4 0.7 0.1 0.5 0.6-0.1 1.4-0.1 1-0.5 1.3-0.1 0.4 0.2 0.5 0.9 0.2 1.1-0.4 0.6-0.3 1-0.7 0.4-0.2 1.8 0 0.4-0.4 0.7-2.3 0.7-1 0.8-0.1 1.3 0.1 1.2-0.1 0.9-0.9 0.2 0.3 0.1 0.7 0 1.7-0.1 0.9-0.2 0.5-1 0.4-0.2 0.2 0 1.4 1.1 2.4 0.3 0.5 1.8 1 0.2 1.1-0.3 0.8-0.2 0.7 0.1 0.6 0.3 0.7 0.7 0.4 0.6 0.8-0.3 1.3-1.7 2 0 1 0.3 0.7 0.6 0.8 3.3 3.3 1.2 0.6 0.6 0.1 0.7-0.1 1.4-0.4 0.8 0 0.4 0.6 0.3 2.2 0.3 0.9 0.5 1.2 0.8 1.4 1.1 1.5 2.3 1.1-1 3.2-0.7 1.5-0.1 0.9 0.4 3.8-0.1 2 0.1 0.8 0.9 4 0.5 1.3 0.6 1.3 1.8 1.4 0.4 0.7 0.3 0.8 0.1 2.7 0 1.5 0.1 0.9 0.3 0.9 1.9 1.4 0.1 0.2 0 1.4z" id="CUB1319" name="Cienfuegos" data-id="CUB1319" data-name="Cienfuegos">
 </path>
 <path d="M265 170.9l-2 0-0.4-0.2 1.1-0.4 1.9-1.6 1-0.3 0.8-0.5 0.7-0.8 0.6-0.5 2.6-1 1.1 0 1.1-0.5 0.8-0.9 0.6-1.2 0.7 0.7 0.1 1.8-1.6 1.3-3.7 1.4-2.7 1.4-0.6 0.1-0.5 0.4-0.3 0.4-1.3 0.4z m20.1-7.1l-2.9 2.4-1.6 0-1.2-1.3-0.3-1.4 0.2 0.2 1 1.1 1.6-0.2 1.2-1 0.4-0.6-0.1-0.2 2.7-1.2 0.7-0.2 1.2-0.3 0.1 0.5-1.4 1.1-1.6 1.1z m41.8-2.8l-7.3 4.9-2.9 1.2-3 0.3 0-1.9 0.8-0.5 2.6 0.4 1-0.8 0.9-1.4 0.9-1.2 1 0.3 1.2 0.6 1.4-0.3 1.1-0.9 0.4-0.7 0.6-1.7 1.3-1.3 2.9-1.8 0.8-0.3 0.5 0.4 0.2 0.6-0.6 0.6-3.8 3.5z m-133-26.5l7.5 1.8 5.2 1.5 1.6 0.7 1.3 1.1 0.5 1.6-0.4 1.8-0.4 1.3 0 1.1 1.4 1.6 4.1 3.4 1.3 0 0.9 0.4 0.6 1.1 0.5 1.3 0.5 0.9 0 0.8-0.5 1.1-1 1.9-0.7 0 0.5 0.8 0.1 0.9-0.2 0.9-0.4 0.8 2.1 1.3 1.1 0.6 1.2 0.1 0 0.8-0.6 1.2 0.7 1.2 1.4 1.1 1.1 0.6-1 1.5-1.9 2-2.1 1.8-1.7 0.8-1.7 0.3-11.8 6-7 2.6-6.6 0.7-1.1-0.4-0.8-1-6-0.1-0.9-0.3-1.8-0.8-1.1-0.2-3.3 0-0.9-0.4-3-4-1.1-1.1-2.6-1.7-1-1.1-0.8-1.9-0.7-2.7-1-2.5-0.2-1 0.6 0 1 1 4.7 3.4 0.6 1.4 1.4 1.2 1.8 0.8 1.6 0.3 3.8 0 0.3-0.4 2.6-2.2 1.4-1 0.7-0.6 0.3-0.8 0.3 0.1 0.5 0.6 0.1 1-0.9 1.4 0.7 0.6 1.6-3.1-0.4-1.2-2.8-0.4-1.1-1.1-7.9-14-1.1-3.9 0.9-4.3 4-3.1 0.5-1.3 0.8-1 1.8-1.4 2.1-1 1.6-0.4-1.1-0.5-1-0.2-1 0-1.2-0.5 1.4-1.1 12.1 1.5z m23.6 1.1l-2.5 0.2-2.6-1.2-0.9-1.7 2.1-0.5 3.5 1.6 1.5 1.2-1.1 0.4z" id="CUB1320" name="Isla de la Juventud" data-id="CUB1320" data-name="Isla de la Juventud">
 </path>
 <path d="M128.5 131.2l1.4 0.5 0.2 0.2-1.8 0.1-2.1-0.2-1.4-0.6 0.9-0.5 2.8 0.5z m57.5-102l-0.1 0.6 0.4 3.6 0 0.5-0.3 2 2.3 4.5 0.5 2.4-0.2 0.9-1.7 2.1-0.5 0.4-0.7 0.3-2.2 0.2-0.6 0.4 0.4 0.3 1 0.5 0.8 1 1.5 2.6 1.2 1.5 1.1 0.8 0.6 0.4 0.5 0.8 0.7 1.2 1.9 4.3 0.4 0.8 3 3.4 0.7 1.1 0.3 0.6 0.1 0.4-2.3 0.8-5.6 4.7-1.1 0.7-2 0.2-1.5 0.5-6.1 3.2-3 2-2.6 2.7-5.2 10.2-2.2 2.1-3 0.4-3-0.9-1.3-0.1-1.3 0.4 0 1.6-0.2 0.4-0.8-0.2-0.6 0.3-0.8-0.2-0.1 0.4 0 1.7-3.4 2.2-1.1 1.2-0.5 0.9-0.1 1.2-0.6 1.5-0.5 0.6-0.8 0.7-0.3-0.4-0.2 0.9-0.7 0.7-0.5-1-0.8-0.3-0.8 0.1 0 1.6-1.6 1.7-4.6 0.4-4.7-0.6-4.1-1.7 0.8-0.9-0.3-1-0.7-1.1-0.5-1.2-0.6 0-1.3 2.7-2.3 2.4-2.7 1.8-2.5 0.6 0.5-1.4-10.2 1.5-0.5-0.1-0.3-0.4-0.3-0.7-0.1-0.6 0.1-0.3-1.1 0.3-1 1.4-1.4 0.3-7.2-0.4-2 0.4-3.8 3.8-0.1 0.7-0.7 2.8-0.4 1 0.4 0.6 0.2 0.6 0 1.5-1-0.9-1 0.2-0.6 1.1 0.1 1.6 0.7 1.4 0.9 0.5 1-0.3 1.2-0.9-0.5 2.1-3.2 2.4-0.8 2 0.4 0.5 0.6 0.6 0.4 0.7-0.5 1-0.8 0.8-1 0.8-1.1 0.5-1.1 0.3-1.8-0.5-3.4-1.8-2.1-0.5-2 0.5-3.6 2.2-1.7 0.7-0.9 0.1-1.9-0.1-0.9 0-1.1 0.5-2.1 1.3-2.8 0.9-10.9 9.2-4 2.1-3.9 0.4-1.2-2 3.7-7.8 0.7-3.9-2.1-2.9-3.6-0.7-4.1 0.6-7.4 2.2-3.6 1.7-9.3 6.3-3.7 0.9-4-0.1-3.9-1.2-1.2-1-0.8-1.4-0.2-1.7 0.3-1.6 0.8-1.5 0.6-0.6 0.6-0.3 0.5 0.3 0.8 1.5 0.6 0.6 0.8 0.3 0.8 0.1 0.8-0.1 1.6-0.7 1.1-1.1 0.1-1.3-1.6-1.1 1.6-0.8 1.4 0 0.9 0.9 0 2 7.5-4 6.7-2 7.9-3.6 5-3.7 0.7-0.3 1.2-0.1 1.2 0.1 0.5 0.5-0.4 0.8 2.9 1.3 2.2-0.7 2.1-1.2 2.7-0.7 1.3 0.4 1.6 1 1.3 1.2 0.5 1.1 0.5 0.6 2.5-1.8 1.4 0.2 1.3-5.5-1.1 1.2-1 1.8-1 0.9-1.3-1.1-0.6-1.9 0.2-1.5-0.3-1.2-1.9-0.9 0.9-2.1 0.4-0.7-1.7-0.2-1.8-0.7-1.7-0.9-1.2-0.9-0.7-1.4-0.6-1.7-0.9-1.3-1.5-0.3 0.9-0.9 1.1-1.5 0.8-1.8 0.3-1.7 0.2-2.3 0.4-2.2 1.3-4.4 0.3-0.2 1.3-2.6 0.5-0.2 1-0.1 0.4-0.3 0.4-0.7 0.4-1.2 0.2-0.5 2-2.9 1.3-1.6 1.7-1 0-0.7-1.9 0 1.6-1.3 3.9-0.8 1.8-1 1.1-1.5 1.1-2.2 0.5-2.2-1.1-1.3 0-0.7 0.9 0.3 1 0.4 1.3-1 1.2-0.2 1.1 0.6 0.8 1.2 0.8-3.7 0.5-1 0.9-0.4 2.4-0.2 0.5-0.5 0-1 0.3-1.7 0.7-1.2 1.2 0.5 1.2 0.8 1-0.5 0.9-1.1 1-0.9-0.7-1.2-1-0.7-1.2-0.2-1.5 0.1 0.4-0.8 0.7-0.7 0.8-0.5 0.9-0.2 1.5 0.6 0.7 1.2 0.7 1.2 0.8 0.6 1.3-0.3 1.1-0.5 5.6-4.1 1.3 1.3 0.8-2.1 1.5-1 4-0.3 1.5-0.3 6.4-3.2 3.2-1.2 1.5-0.1 1 0.2 1.2 0.5 1 0 0.6-0.2 1.3-0.8 0.7-0.3 0-0.8-1.4 0.8-0.1-0.7-0.5-0.1 2-1.2 2-0.6 4.6-0.2 0.4-0.6 1.1-3.2 0.6-0.3 3.8-0.1-0.2 0.7-0.4 0.7 1.8 0.4 1.1-1.1 0.7-1.5 0.8-1.2 1.4-0.6 1.1 0.4 1.1 0.9 1.5 0.7-0.6 1 1-0.3 1.4-0.9 0.8-0.8 0.6-1.7 1.3-2.2 1.8-1.9 1.6-0.8 1.3-0.4 4.7-3.1 1.9-0.8 1.7 0 1.5 0.5 1.2 1.1 0 0.6-0.8 0.6-0.4 1.3 0.2 1.4 0.7 1.2 1.1 0.5 1-0.6 0.8-1 0.6-0.7-1.6-1.4 0.1-1.3 1.3-1.1 2.1-0.9 3.8-0.7 0.7-0.4 1.2-0.9 0.6-0.1 0.9 0.2 1.3 0.8 1 0.4 0.5-0.3 0.5-0.6 0.7-0.3 0.9 0.5 0.5 1-0.6 0.3-0.9 0.2-0.4 0.5 0.4 1.1 0.6 0.3 0.7-0.3 0.9-1.1-0.2 2 1.6 0.1 1.8-1.2z" id="CUB1321" name="Pinar del Río" data-id="CUB1321" data-name="Pinar del Río">
 </path>
 <path d="M556.7 88l-0.4 1.4-0.3 3.1-0.7 0.7-0.8 0.7-1.5 3.2-0.8 3.2-0.9 1.9-1.3 2.4-1.3 2.1-0.8 2.4-1.2 1.1 0.2 2.8-1.4 3.2 0.2 2 1.4 1.3 2.9 2.4 3.2 1.6 0.4 1.7 0 2.3-1.4 2.5-1.6 2.5-0.5 1.1-1.4-0.3-1.4-0.1-1.1 0.7-0.5 2.1-1.1 2.1-1.4 2.6-0.9 2.2-0.9 3.9-2.1 4.4-0.6 1.6 1.5 2.3 0.6 1.6-0.4 2.8-0.5 1.7 0.8 1.2 2.5 0 2.7-1.2 1.1-1.3 0-1.6 1.3-2 2.3 1 2 1.4 0.6 1.3-0.3 2.6 0.3 3.1 0.4 2.1-0.9 0.4-0.7-0.8-1.6 0.9-1.6 0.4-4 0.1-1.8 0.3-4.9 2.4-3.8 1-3.6 0.3-3.8-0.3-7.4-2.2-1.5-0.9-1.7-1.6-1.3-0.2-4.8 0.6-1.8 0-2-0.7-0.9-0.5-0.9-0.9-1.4-2.3-0.8-0.9-0.4 0.8-0.2 1-0.7 0.7-1 0.1-0.9-0.5-0.9-0.8-0.5-0.3-3.9-1.1-0.6-0.2-0.7-0.6-0.6-1-0.4-1.1-0.6-0.9-1.2-0.4-6.5-0.2-6.3-1.8-2.3 0-1.1 1.6-0.6 1.8-1.6-0.3-2-1-2.1-0.8 0-0.7 1.9-0.7 0-0.6-1.4-0.4-0.3-1.1 0.1-1.4-0.3-1.2-1.5 1.1-1.7 0.5-1.8 0.1-2-0.4-1.9-0.7-1.1-0.2-0.8 0.2-0.2 0.7 0.5 0.7 1 0.5 0.7 0.1-1.1 1.3-1.7-0.8-1.6-1.8-0.7-1.7-0.2-2.1-0.6-1.9-1.1-1.3-1.6-0.5-1.5-0.3 0.2-4.1 0.1-0.5 0.9-1.2 2.5-2 3.4-3.5 3.2-1.5 1.8-1.5 0.6-0.1 1.3 0.1 0.5-0.3 0.3-0.5 0.2-0.9 0.3-0.8 0.9-1.1 1-0.4 0.8-0.2 5.4 1.3 0.7 0.3 0.4 0.4 1.3 0.7 2.8 0.2 2.3-2 1.8-3 1.5-3.1 0.5-1.8 0.1-1.3-0.4-0.6-0.4-0.2-1 0.1-0.4-0.1-0.3-0.3-0.3-0.7-0.4-1.1-1.4-2.6-0.6-1.8 0-1 0.2-0.7 1-0.9 3.1 0.1 1 0.9 0.8 1.3 1 0.9 1 0.2 0.7 0 0.7-0.4 1.3-0.9 1.3-0.1 0.8 0 3.8 1.2 1.9-0.6 1.2 0.5 0.8 0.6 1.3 0.5 1.3-0.1 1.1-0.5 0.8-0.7 0.8-1.1 0.7-1.4 0.4-1.3 0.5-1.8 1.7-1.7 1.1-0.6 1.6-0.6 1.1 0 0.9 0.2 2.3 1.2 2.4 0.4 0.3-1.8-0.1-1.6 0.2-1.2 0.4-1.3-0.1-0.7-2.6-3.6-3.1-6.3-0.8-1.2-1-0.9 1.7-3.2-0.1-2.3 0.1-0.1 6.9 6 2.7 1.3 2.5-0.4 0.9 0.9 1.7 1.3 1.7 0.5 0.8-1 1-0.2 4.8 1.1 1.7 0 1-0.7 0.5-1.1 1.1-0.1 0.9 0.2 1.5 0.9 1 0.2 2-0.3 3.5-1.3 1.8-0.4 2.1-0.1 5.1 0.6z m-25.8-22.6l-0.6 0 0-0.7-0.3-0.5-0.8-0.3 0.8-0.3 3.6-0.2-1.2 1-1.5 1z m22.6-2.5l-2.1 1.2-0.5-1.4-1.4-0.5-5.5-0.4-0.9-0.4-1.2-0.7 1.5-0.3 8.7 0.6 1.5 0.8-0.1 1.1z" id="CUB1322" name="Sancti Spíritus" data-id="CUB1322" data-name="Sancti Spíritus">
 </path>
 <path d="M572.9 254.4l-1.6 1.4-2.2-0.8-2.1-1.7-1.1-1.6 1.8-0.4 2 0.8 3.2 2.3z m-16.1-9.4l0 1.3 4.5-0.1 1.7 0.9 1.1 2.7-0.7 0-1.6-1.2-6.5-0.8-2.1-2.1 1.2-1.7 0.9-0.8 0.8 0 0.5 0.8 0.2 1z m-5.3-2.3l-0.5 0.5-0.3-0.6-0.3-0.4-2.2-0.6-4.6-3-1-1.1 1.2-0.2 1.6 0.1 1.6 0.4 0.6 0.7 1.1 0.4 2.2 0.3 1.7 0.6-0.3 1.5-0.8 1.4z m-18.4-16.2l4.1 2.5 3.6 3.5 2.3 2.9-0.4 0-1.4 0 0.2 0.6 0.4 1.5-2.6-1.4-1.8-1.6-3.2-3.7 0-0.8 1.6 0.7 1.2 1.1 1.1 1.3 1.2 1-1.2-1.9-2.1-2.6-2.3-2-2-0.3 0 0.8 0.3 0.3 0.3 0.9-1-0.3-0.9-0.5-0.7-0.8-0.6-1 3.9-0.2z m-13.8-10.4l3.6 3.8-1.4 0.6-1.5 0-1.5-0.4-1.2-1 0.6 0.1 1.9-0.1-0.4-1-0.7-0.7-0.8-0.2-0.6 0.6-2.4-1.8-0.8-0.9 2.9-0.5 2.3 1.5z m37.4-128.1l9 1.1 4.4-0.3 0.4 1 1.8 5.9 1.2-0.7 0.9 1.3 0.9-0.8 1.4-3.2-1.2-1.7-0.6-0.6-0.8-0.5 0-0.7 2.8 0.4 2.9 3 10.1 3.6 1.3 0.9 0.8 1.3 1.8 1.6 2.1 1.4 1.7 0.9 2.2 0.6 5.5 1 1.7-0.3 0 0.7 0.1 1.4-0.1 0.7 1-0.5 0.3-0.3 0.6 1 0.9 1.9 0.7 0.9 0.8 0.6 1.7 0.9 0.7 0.6 0.7 0.4 0.9 0 1-0.1 0.8 0.1 3.2 1.3 1.4 0.4 4.6 0.3 0.8 0.4 0.2 1 0.1 1.2 0.4 0.8 0.8 0.2 2.4 0-0.6 0.5 0.9 0.9 1.2 0.5 1.2 0.2 1 0.4-0.2 0.9 0.8 0.5 0.4 0.9-0.1 1.1-0.3 1.1-0.4 0.5-0.5 0.3-1.2 0.5-1.1 0.6-1.7 1.4-2.2 2.3-1 0.8-0.8 0.4-1.1 0.2-1.5 0.1-1.5 0.4-1.1 0.2-1.2 0.6-1 2.9 0.5 1.7 0.4 0.4 4.5 3.8 1.5 1.6 1.9 3.2-1.2 0.8-1.3 0.7-0.4 0.6 0 0.4 0.4 2.4-0.5 0.2-3.6 0.4-1.3 0-0.9-0.5-1.4-1.9-0.4-0.5-0.5-0.6-0.4-1 0-0.6-0.3-0.6-0.6-0.1-0.8 0.3-0.9 0.6-1.4 1.4-0.9 1.3 0.3 1.9 0.5 1.6 0.1 1.4-0.1 0.6-0.4 0.5-0.7 0.3-0.6 0.9-0.5 0.5-1.1 1.7 0.1 0.7 0.3 0.5 0.6 0.5-0.2 0.2-0.7 0.1-1.7 0.1-1.3-0.2-2.1-0.2-0.5-0.1-0.8 0.5-0.9 2.4-1.1 2.9-0.8 1-0.6-0.1-0.8-1.1-0.5-0.2-1.5 0.5-2.1 1-1.1 0.6-1 1-0.4 0.4-0.6 0.5-4.8 3.1-3.4 1.5-0.7-0.7-1.5-1-1.4-0.6-4.9-0.7-1.2-0.4-0.4-0.8 0.6-1.3 1 0.6 1.2 0.2 2.6-0.1 0.3-0.4-0.4-1.1-1.2-1.5-0.6-0.6-1-0.7-1.9-1.1-1.4-0.4-0.6 0.1-0.6 0.4-1.2 0.5-4.3 1-4.2 0.4-0.5 0.2-0.5 0.4-0.4 0.6-0.2 0.5-0.3 0.4-0.7 0-2.9-0.1-1.1-0.3-1 0-0.4-2.1-0.3-3.1 0.3-2.6-0.6-1.3-2-1.4-2.3-1-1.3 2 0 1.6-1.1 1.3-2.7 1.2-2.5 0-0.8-1.2 0.5-1.7 0.4-2.8-0.6-1.6-1.5-2.3 0.6-1.6 2.1-4.4 0.9-3.9 0.9-2.2 1.4-2.6 1.1-2.1 0.5-2.1 1.1-0.7 1.4 0.1 1.4 0.3 0.5-1.1 1.6-2.5 1.4-2.5 0-2.3-0.4-1.7-3.2-1.6-2.9-2.4-1.4-1.3-0.2-2 1.4-3.2-0.2-2.8 1.2-1.1 0.8-2.4 1.3-2.1 1.3-2.4 0.9-1.9 0.8-3.2 1.5-3.2 0.8-0.7 0.7-0.7 0.3-3.1 0.4-1.4z m18.3-14.3l-0.7 1.1-0.3 0.6-1.6 0.6-0.9 0-0.1-0.6-0.1-1.7 0.6-0.2 1.3 0.4 0.8-0.1 0.1-0.8 0.2-0.3 0.7 0.4 0 0.6z m34.7-0.1l1.1 1.4-1.2-0.6 0.4 1.4 6.2 6.3 0.3 0.9-0.3 1-0.6 0-0.9-0.4-0.7-0.2-11.5 2.6 0-0.6 0.6-1 0.1-0.7 0.3-0.4 1.2 0.2 0.4-0.1 0.1-1-0.3-0.9-0.8-0.5-1.2 0.6-1.8 0.8-2.5 0.4-4.2-0.1-2.1-0.7-2.5-1.7-3.8-0.8-2.7-0.8-1.6-1.1 1.3-1.1-1.4-1.6-1.9 1.4-1.5 0.8-0.2-3.4 0.3 0.3 0.9 0.4 0.3-2 0.8-0.2 1 0.5 0.7 0 1-0.2 4.1 0.9 2.3 1.4 2.6 0.2 2.6-0.2 2.3 0.2 2.3-0.1 1.4-1.2 1.3-1.4 1.6-0.6 2.1 0.2 2.2 0.6 1.9 1.1z" id="CUB1363" name="Ciego de Ávila" data-id="CUB1363" data-name="Ciego de Ávila">
 </path>
 <path d="M606.8 270.6l1.5 0.8 0.3-1.6 0.8-0.3 1.1 0.6 1 1.3 0.6 1.9-0.2 1.3-1 0.4-1.7-1.3-1-0.6-1.4-0.4-1.2-0.5-1.2-2.7-1.7-1.2-3.3-1.7 1.4-1 1.4 0.3 1.3 1.1 1 1 1.4 1.8 0.9 0.8z m-18-9.4l0 0.9-0.6 0.5-0.8 0-0.6-0.2-1-0.8-0.2-0.5 0.4-0.2 0.5 0.2 2.2 0.4 0.1-0.3z m-4.8 0.4l-1.4 0.1-0.9-0.6 0.1-0.5 0.3-0.1 0.7 0.1 1.3 0.5-0.1 0.5z m14.1-7.5l0.1 0.3 1-0.5 0.9-0.1 1.9 0.6-1.2 1.4-4.3 1.1-1.5 1-1.5-0.8-1.6-0.5 1.1-0.9 3.2-0.7 1.4-1.2 0.5 0.3z m141.5-72.2l-1 0.9-1.5 0.6-2.6 2-1.2 0.6-2.5 0.6-1.6 0.1-2.2-0.5-1.8-0.2-1.5 4.5-0.7 0.9-0.6 1.3-0.1 0.9 0.4 1.7 0.5 0.6 0.4 0.2 3.5 0 0.6 0.2 0.2 0.3-0.2 0.4-5.2 4.8-0.5 1.2 0 0.7 0.4 6.4-3.4 5.6-0.6 0.7-1.2 1.1-0.6 0.2-2.7 0.5-1.3 0.8-1.1 0.5-1.3 1.9-2.7 6.4-0.7 0.4-0.8-0.3-0.5-0.2-1-0.9-0.4-0.4-0.4-0.1-0.6 0.3-0.6 0.5-0.9 2.1-1-1-0.3-0.6 0.1-0.6 0.6-1 0.1-0.4-0.2-0.3-1.2-0.3-1.6-0.1-1.6-0.4-0.3-0.5 0.1-0.6-0.3-0.9-0.8-1.2-0.7-0.9-0.4-0.7-0.3 0.3-0.7 0.7-1.3 0.7-0.5 0.6 0.1 1 0.2 0.9-0.4 0.8-0.1 0.7-0.3 0.7-0.6 0.8-1.7 0.3-1.2 0.2-1.4-0.1-0.3 0.3-0.2 1.4-1.4 0.2-1.8 0.6-1 0.5-0.5 1.3 0 1.3-0.4 0.6-1.2-0.2-1.6-0.2-0.3-0.3-1.3-1.9-0.6-0.3-0.6 0.1-0.7 0.5 0 0.8 0.3 1.3-0.1 0.6-0.4 1.6-0.1 0.7 0 1.3-0.7 0.5-1.4 0.6-5.6 1.1-2.2-0.1-4.8 6.8-1.2 8.1-0.9-0.3-3.4-0.4-2 0.5-1.4 1.1-1.2 1.1-1.4 0.7-5.9 0.2-3.2-0.9-1-2.1-0.7 0-0.5 1.4-3.1-3.6-1.1-0.5-2-0.4-1.1-1.1-1.6-3.2-1-1.1-1.7-1.5-1.9-1.2-1.4 0-1 0.6-0.4-0.5 0-0.9-0.2-0.8-1.1-1.3-0.6-0.9-0.2-0.9-0.7-1.4-6.5-4.8-1.3-0.4-3.2 0.2-1.2-0.6-1-1.5-1.4-2.7-1.1-1.1-3.4-2.6-0.8-0.1-0.6-1-0.6-3.3-0.3-6.5-0.8-2.8-1.4-2.8-1-2.8 0.6-2.8 0.9 1 1 0.1 0.9-0.7 0.3-1.4-0.6-1-3-1-0.7-0.7-0.2-1.8-0.9-3.2-0.2-1.9-0.4-1.7-1.7-3-0.4-1.4-0.6-3.3-1.4-3.2-1.9-2.7-1.2-1.3 3.4-1.5 4.8-3.1 0.6-0.5 0.4-0.4 1-1 1.1-0.6 2.1-1 1.5-0.5 0.5 0.2 0.8 1.1 0.6 0.1 0.8-1 1.1-2.9 0.9-2.4 0.8-0.5 0.5 0.1 2.1 0.2 1.3 0.2 1.7-0.1 0.7-0.1 0.2-0.2-0.6-0.5-0.3-0.5-0.1-0.7 1.1-1.7 0.5-0.5 0.6-0.9 0.7-0.3 0.4-0.5 0.1-0.6-0.1-1.4-0.5-1.6-0.3-1.9 0.9-1.3 1.4-1.4 0.9-0.6 0.8-0.3 0.6 0.1 0.3 0.6 0 0.6 0.4 1 0.5 0.6 0.4 0.5 1.4 1.9 0.9 0.5 1.3 0 3.6-0.4 0.5-0.2-0.4-2.4 0-0.4 0.4-0.6 1.3-0.7 1.2-0.8-1.9-3.2-1.5-1.6-4.5-3.8-0.4-0.4-0.5-1.7 1-2.9 1.2-0.6 1.1-0.2 1.5-0.4 1.5-0.1 1.1-0.2 0.8-0.4 1-0.8 2.2-2.3 1.7-1.4 1.1-0.6 1.2-0.5 0.5-0.3 0.4-0.5 0.3-1.1 0.1-1.1-0.4-0.9-0.8-0.5 0.2-0.9 0.1 0.1 1.4-0.5 0.9 0.9 1.2 2.6 1.8 1.7 0.5 0.7 0.6 1.8 1.6 3 0.8 0.9 1.1 0.4 1.1 0.8 4.2 4.4 0.3 0.8 1.6 2.9 0.6 0.7 1.1-0.1 0.6-1 0.4-7.5 0.5-1 1-0.4 2.5 0.4 1.5 0-0.8 1.1-3 0.5-0.6 0.9 0.1 1.7 0.4 1.4 0.6 1 0.8 1 1 1 0.8 0.4 2.3 0 1 0.6 0.7 1.6 0.4 1.7 0.1 1.2 0.4 1.2 0.8 0.8 1.2 0.6 2.7 0.9 0.5 0.1 1.3-0.7 0.8 0.4 0.8 0.7 0.7 0.4 5.7-0.9 1.6 0.2 1.5 0.7 4.1 2.7 0.1-1.4 0.7-0.7 2.4-0.6 0.1 1 0.6 0.5 0.8 0.1 1.1-0.2-0.7-1.4 1.3 0.4 1.3 1 1.8 2-1.3 0.2-0.9-0.5-0.6-0.1-0.3 1.7 0.2 1.9 1.4 3.1 0.3 1.6 0.5 1 1.1 0.4 2.8 0.3 2.2 1.2 0.7 0.2 0.8-0.2 1-1.2 0-0.5-0.6-1.2-0.8-1.2-2.4-1.1-1-1.3-1.2-3-0.5-2.3-0.4-0.7-0.7-0.3-1.8-0.8-0.3-0.3-0.2-1-0.4-1.4-1-0.7-1.6 0.8-1.3-1.4-1.3 1.1-1.3-0.8-2.5-3.1-3.4-3-1-1.5-0.6-0.2-1.3 0.6 0.8-1.7 1.4-1.8 1.7-1.1 1.5 0.2 3.2 2.7 0.3 0.8 0.6 2.5 0.3 0.6 9.8 7.1 1.9 1 4.7 1.4 1.3 1 1.3 1.3 3.2 2.6 1.2 0.5 5.4 4.1 1.4 0.7 1.3 0.4 1.4 0 1.6-0.4-0.7 1.9 0.5 1.2 0.9 0.8 0.6 0.9-0.4 2-2.2 2.4-0.6 1.7-0.8-0.5-1.6-1.8-0.4-0.4-6-2.8-1.5-0.4-1.7-0.2-0.2 0.6-0.6 0.8-0.5-0.2-1.4-0.7-1-0.9-0.8-0.3-2.1 0.2-0.7 0.9 0.3 1.1 1 0.6 1.1 0.2 0.7 0.6 0.8 0.7 0.8 0.5 0.9 0.2 2.6-0.2 1.8 0.7 0.5 1.7-0.7 1.7-1.6 0.7-0.2 0.8 0.5 1.8 0.8 1.7 0.5 0.7 1 0.2 2.1-0.3 1.4 0.1-0.7 1.8 0.9-0.3 2.3-1.1 1-0.7 0.8-0.1 0.8-1.5 1.2-5.3 2.3-4.4 0.8-1 1.7-0.3 1.7 1 9.9 12.3 1.7 1.5z m-87.1-61.6l1.5 0 1.1-0.5 0.9-0.8 1-0.7 1.6-0.5 1.3 0.1 1.1 0.5 1 0.6 0.4 0.4 0.8 1.3 0.4 0.3 0.8-0.2 1.4-0.9 0.6-0.2 1.1 0.4 2.9 2 1.1 0.3 1.2-0.6 0.7-0.9 0.9-0.1 1.7 1.6 0.7 1.3 0.2 1.2-0.3 1.3-2 4.5 0.3 1 1.1 1.6-1.5 0.1-1.1 0.4-1.9 1.5 0.4-1.8-0.6-0.8-1 0.3-0.7 1.6 0.6 1 0.1 0.7-0.7 0.4-0.5-0.1-0.7-1.1-1.1-1.5-0.5-1-0.5-0.9-1.2-0.9-1.3 0.7-2-0.5-1.9-0.9-1.3-1-0.3-0.8 0.4-1.1 0.5-1.1 0.3-1.1-0.4-0.7-1-0.4-1.8-0.6 0.5 0.9 0.2 0.9-0.2 0.8-0.5 0.9-0.6-2.1-0.6 0-0.9 1.4-1.5 0.4-1.4-0.6-0.7-1.6-0.8-1.2-1.6-1.2-1.1-1.7 0.4-2.3-0.6-0.7 1.7 0.1 1.3 0.8 1.2 1 1.4 0.8z m12.1-10.3l-2.3 0.1-2.3-2.5-3.7-5.7 0.7-1.4-1-1.5-1.7-1.3-1.1-0.7 2.3-0.4 2 1.7 1.5 2.5 1.1 4.3 1.5 1.6 1.6 1.6 1.4 1.7z m-21.2-5.8l0.8 0.4 2.2-0.4 1.1 0.4 0.7 0.9 0.4 1 0.7 0.7 1.3 0.2-1.2-0.8 0.8-1.1 1-0.9 0.7 1.2 0.9 0.6 0.9-0.1 0.7-1.1 0.8 1.7-1 0.8-1.7 0.3-1.3 0.7 1.1 0.3 0.8 0.6 0.6 0.6 0.7 0.5 1 0.4 1.9 0.4 1 0.6-2.1 4.2-1.4 1.7-1-1.1-0.4 0.2-1.1 0.3-0.4 0.2-0.5-1.2-0.8-0.8-0.4-2-1.9-0.7-1.6 0.8 0.8 2.5-1.1-0.5-3.3-2-0.6-0.6-0.7-1.4-2.9-2.2-0.9-1.5 1.5-0.6 1.2-1.3 0.8-1.6 0.3-1.6 0.1-3.6-0.3-1.2-1-1.7 1.4 0.2 1.4 0.5 1.1 0.9 0.5 1.4-0.6 0.9-1 1-0.6 1.3 0.6 1.6z m-19.4-20l0.7 1.2 1.8-1 2.4 0.6 2.3 1.5 1.7 1.7 0.9 1.2 0.8 1.5 0.6 1.6 0.4 3.3 0.4 1 2 2.3 0.8 0 1.2 0.5 1.2 0.2-1.5 1.5-2.3-0.6-4.5-3-2-0.4-2.2 0-2.3-0.5-2.3-1.8 1.9-1.3-0.9-1.6-1.8-1-1.1 0.8-0.1 1-0.3 1-0.6 0.6-0.9-0.2-0.6-1.1 0-1.2 0.4-0.8 0.8 0.4 0-1.8-1.4-2-2.2-0.9-2.1 1.3-0.4-0.5-1.4-0.2 1.2-1.7 1.9-0.5 3.2 0.1 3-1.2 1.3 0z" id="CUB1364" name="Camagüey" data-id="CUB1364" data-name="Camagüey">
 </path>
 <path d="M883.7 337.6l-5.6-7.9-1.9-1.9-0.6-0.6-1.2-2.1-0.5-1.5-0.1-3.6 1.9-0.8 1.1-1.4 2.2-1.1 0.4-0.8 0-0.9-0.3-0.5-0.5-0.3-0.7-0.1-0.2-0.2-0.3-1.1 0-2.6-0.8-0.7-0.3-0.3-0.5-1.3-0.2-0.5-0.5-1.4-0.5-2.3 0.1-1.1 0.6-1.2 0.8-0.7 0.1-0.5 0.2-3.2-0.3-1.6-1.3-2.9 0.6-0.6 1.2-0.5 1-0.7 1.1-0.8 0.9-1.5 0.4-0.7 0.2-1.5 0.4-0.5 0.4 0.1 1.2 0.5 0.5-0.1 0.4-0.3 0.4-0.8 0.9-0.7 1-0.3 1.8-1.3 0.7-0.1 0.6 0.2 0.4 0.3 0.9 0.6 0.5 0.5 0.4 0.8 0.6 0.5 1.2 0.7 0.5 0 1.6-0.9 0.4 0 0.5 0.5 1.3 1 0.8-1.5 0.3-2.9 0.3-0.6 1.2-1.1 2.1-1.3 0.6-0.1 0.5 0.1 0.8 0.6 0.4 0.1 0.6 0 1.7-1 2.1-0.8 0.6-0.1 0.5 0 0.6 0.5 2.6 2.8 2 1.7 3 0.3 2.5 1.7 0.6 0.1 0.4-0.1 0.1-0.6-0.2-0.6-0.6-0.8-0.5-0.5-0.7-0.1-0.2-0.1 0.3-1.1-0.2-0.5-0.3-0.8 0.7-0.3 2.5-0.4 0.8 0.1 0.9 0.5 3.1 2.2 3.4 1.6 1 0.6 1 0.7 1.2 0.6 0.6 0.2 0.3-0.2 0.6-1.6 0.5-0.5 3.7-1.5-0.8-2.6 0.1-2 0.6-1.5 0.4-0.9 0.7-1 0.5-0.6 0.7-0.6 0.3-0.2 1.1 0 0.6-0.3 0.9-0.7 1.2-0.6 0.5 0.4 3.3 1.1 0.3 1.3 1.8 1.5 4.2 2.7 0.8 0.8 0.9 2.1 3 4.1 0.7 0.4 0.3 0.7 4.5 4.8 0.8 0.4 1.3 0.1 2 0.6 2.5 1.6 2.1 2 0.7 2 0.7 0 1.2-1.4 1.9 0 2 0.6 1.8 0.1 1.6-0.7 1.6-1 1.7-0.8 2-0.2 1.1 0.4 1 0.6 1.8 1.7 3.1 2 1.1 1.4 0.8 1.7 0.4 1.8 0.2 1.9-0.8 2.2-2 1.2-1.9 0.7-1.3 1.4-1.9 1.1-0.6 0.2-0.5 0.5-0.5 3.5-2.9 2.6-3.4-0.1-3.9-1-4.3-0.1-5.8 1.2-3.9 0.3-7.6 1.8-3.5-0.7-2.9 1.2-5.8-0.9-7 1.2-2.2 0.2-2.4 1.1-1.5 1.3-1.5 1.5-1.6 1.3-2 0.6-2.2 0-1.2 0.2-0.8 0.8-0.6 2.1-1.5 2.3-2.9 1.2-3.3 0.4-0.5-1.2-0.7-0.4-0.5 0.2-0.2 0.7 0 0.9-2.4 0.8-0.3 0 0-7.3-3.8 0 0.1-0.5 0.5-0.5 1.4-0.9 1.2-0.2 1.1-2.1 0.5-1.2-0.6-0.9-0.1-2.6-1.9 0.4-0.9 1.3-1.2 2.3-1.7-1-1.4 0.5-0.6 1.2-0.2 1 0.3 1 1.1 0.3 0.4-0.1 0.5-0.8 0.5 1.5-1.1 0.6-0.1 0.7-1.7 0-4.6 3.3-0.4 3.7-4.8 1.2-9 0.5z" id="CUB1365" name="Guantánamo" data-id="CUB1365" data-name="Guantánamo">
 </path>
 <path d="M760.1 254.8l0.5 0.8 0.4 0.4 0.5 0.4 0.7 0.1 0.9-0.3 0.9-0.5 0.6 0.2 0.8 1.5 0.6 0.5 0.8 0.3 1.3 0.3 0.7 0.2 0.9 0.1 0.9-0.2 2.5-1.3 1 0 0.5 1.7 0.2 1.8-0.1 1.9 0.4 0.4 0.8 0.4 4.3 1.1 1.7 0.7 4.3 2.6 3.2 1 0.8 0.3 0.3 0 0.7-0.5 0.4-0.1 0.6 0.1 0.3 0.3 0.3 0.6 0.1 0.5-0.5 2.1 1.1 0.2 2 0.8 2.4 0.4 1.1 0.3 1.9 0.9 2.5 0.6 0.8 0.4 0.9 0.7 2.8 2.8 2.3 3.6-2.4 3.3-1.3 1-0.7 0.1-0.4-0.4-0.4-1.3-0.5-1-0.1-0.5 0.1-1.8-0.2-0.6-0.5-0.5-0.9-0.6-1.1 0.2-0.1 0.4 0.4 1.9 0 0.9-0.2 0.8-0.3 0.7-1 1.1-0.5 0.9-0.1 1.4-0.3 0.6-0.5 0.2-0.9 0-2-0.4-0.9 0-1.5 0-0.7 0.6-0.6 1-1.9 7.9 0 0.8 0.1 1-1.4 1.4-0.8 0.9-0.6 0.4-0.1 0.5 0.3 0.7 0.5 2.9 0.4 8.3-1 1.8-2.6 2.5-1.4 1-1.4 0.7-1.1 0.5-1.5 0.2-2.2-0.1-2.6-0.4-0.6 0.3 0.2 0.9 0.7 1.9-0.1 0.5-0.7 0.2-2.5-0.6-1.3-0.5-0.2 0.2-0.3 0.9-0.4 0.1-2.1 0.1-1.7 0.2-1.3 0-0.5-0.3-1.5-0.3-0.8-0.3-0.5-0.4-0.8-1-0.6-0.4-0.5 0-1.8 0.4-0.8 0.5-0.5 0.6-0.3 0-1.1-0.8-1-0.3-1.4-1.5-1.5 0.9-1.6 1.6-0.9 0.4-1.4 0.3-2 0-1.3-0.1-2.2 0.2-1.1 0.3-3.5 4.8-0.5 0.3-0.7 0.2-5.3 0.6-0.8 0.3 0 0.6 0.3 0.4 0.8 1.8 0.1 2.2-5 0.2-2.3-0.4-4.6-1.8-2.4-0.4-1.2 0.9-0.7 0-0.7-0.6-0.9-0.2-0.9 0.4-0.6 1-2.4-0.7-2.7-0.3-2.3 0.7-1.5 1.7 2.5 0 0 0.7-1.6 0.1-2.6 1-1.7 0.2-8.6 0.3-5.8 1.4-3.4 0.4-3.9-0.4-5.6 1.6-1.8 0.1-1.3-0.2-1.2-0.6-1-0.9-0.7-1 0.2-1.9 1.7-3.2 0.1-0.9 0.7-0.2 1.1-0.2 0.7-0.3 0.6-0.6 0.7-1 0.6-0.4-0.3-1.1 0.5-0.7 1.7-1.6 2.1-2.9 0.4-1.2 4.4-4.1-0.2-0.8-1.2-1.3 0.2-0.6 0.8 0.1 2.4 0.8 0.9-0.9 1.8-0.6 0.4-0.3 0.3-0.6 1.6-2.5 1.6-1.1 4-2.1 1.5-2.3 1.7-1.3 9.3-4.4 1.8-0.2 1.4-0.8 1.4-3.6 1.4-1.1 1.2 0-0.6 1.2 0.6 0.5 1.2 0.1 1.3-0.4 1.3-0.8 1-1.2 0.6-1.5 0.2-1.6 0.7-0.6 3.8-2.4 0.3-4.7 0.6-0.7 0.7-0.7 1.3-3.4-2.9-4.7-0.9-0.8-2.5-1.7-3.3-1.3-0.9-0.1 0.6 1.1-0.6 0.7-1.7-1.2-1.4-0.7-1-1-0.3-2.2 0.3-0.6 0.7-0.4 0.9-0.3 0.6-0.4 1.9-2.7 0-0.6-3.3-2.2-1.8-0.4-0.6 1.9-1.9-1.9-1.6-2.4-1.8-2.2-2-0.7 0.4-0.3 1.4-0.7 0.6-0.4 0.3-0.9 0.3-0.6 1-1 0.4-1.1 0.1-1 0.2-0.5 0.4-0.1 0.5 0.6 0.4 0.9 0.3 0 0.6-0.3 1.5-1 0.6-0.3 0.6 0 0.6 1.1 2.2 0.6 9 0.3 3.4 1.3 1.3 0.9 0.6 0.3 0.9-0.1 1.5-0.5 1.2 0 1.4-0.2 2-0.7 3.9 0.7 0.7-0.1 1.9 0 3.9 0.4 2.1 0 1.4 0.4 0.8 0.7 1.7 3.7 1 0.4 1.5-1.3 0.4-0.3 3.7-1.5z" id="CUB1366" name="Granma" data-id="CUB1366" data-name="Granma">
 </path>
 <path d="M874.2 252.1l0.3 1.1-1.7 0-3.1-0.8-1.6-0.3-1.5-0.7-0.9-1.3-0.1-1.8 4.6-0.8 1.1 0.2 0.8 0.7 1.3 2.5 0.8 1.2z m71.1 19.1l-1.2 0.6-0.9 0.7-0.6 0.3-1.1 0-0.3 0.2-0.7 0.6-0.5 0.6-0.7 1-0.4 0.9-0.6 1.5-0.1 2 0.8 2.6-3.7 1.5-0.5 0.5-0.6 1.6-0.3 0.2-0.6-0.2-1.2-0.6-1-0.7-1-0.6-3.4-1.6-3.1-2.2-0.9-0.5-0.8-0.1-2.5 0.4-0.7 0.3 0.3 0.8 0.2 0.5-0.3 1.1 0.2 0.1 0.7 0.1 0.5 0.5 0.6 0.8 0.2 0.6-0.1 0.6-0.4 0.1-0.6-0.1-2.5-1.7-3-0.3-2-1.7-2.6-2.8-0.6-0.5-0.5 0-0.6 0.1-2.1 0.8-1.7 1-0.6 0-0.4-0.1-0.8-0.6-0.5-0.1-0.6 0.1-2.1 1.3-1.2 1.1-0.3 0.6-0.3 2.9-0.8 1.5-1.3-1-0.5-0.5-0.4 0-1.6 0.9-0.5 0-1.2-0.7-0.6-0.5-0.4-0.8-0.5-0.5-0.9-0.6-0.4-0.3-0.6-0.2-0.7 0.1-1.8 1.3-1 0.3-2.4-3.3-1.5-1.3-0.6-0.8-0.1-0.3 0.7-0.5 0.5-1 0.4-0.7 1-0.4 0.3-0.6 0.3-2.5-0.1-0.6-0.1-0.3-0.9 0.4-0.8 0.2-1.2 0-4 0.8-1.7-0.5-1.5-1.2-0.5-0.2-0.4 0.1-0.7 0.5-0.5 0.2-0.7 0.4-0.3 0.4-1.9 1.9-1.3 1.1-0.7 0.5-0.5 0.1-1.1-0.6-1.3-0.6-0.5 0.4-0.1 0.8 0.6 1.3-0.6 1.6-4 2.8-3.9 0.4-2.9-0.4-1.1 0.1-0.7 0.2-6.7 3.1-2.9-0.3-1.6-0.8-0.3-0.3-0.2-0.6-0.4-1.6-1.6-0.4-2.7-1.9-0.7-0.6-0.3-0.4 0.8-1.4 0.1-0.6-0.2-0.3-0.6-0.1-1.2 0-1.6-0.1-0.7-0.3-0.3-0.4 0.4-1-0.8-1.5-4.4-3.3-1.3-0.5-0.2 0.1-0.2 0.6 0.2 0.9 0.7 1.6 0 0.6-0.2 0.5-1.6 0.7-0.5 0.3-1.2 1-1.4 1-0.2 0.3 0.6 0.8 0.2 0.9 0.6 1.5-0.3 2.2-0.5 2.1-0.2 0.3-1.7 1.7-0.4-0.8 0.7-1.6 0.1-0.6-0.9 0.2-0.5-0.1-1.5-0.7-0.8-0.2-0.8 0-2.2 0.1-2.3-3.6-2.8-2.8-0.9-0.7-0.8-0.4-2.5-0.6-1.9-0.9-1.1-0.3-2.4-0.4-2-0.8-1.1-0.2 0.5-2.1-0.1-0.5-0.3-0.6-0.3-0.3-0.6-0.1-0.4 0.1-0.7 0.5-0.3 0-0.8-0.3-3.2-1-4.3-2.6-1.7-0.7-4.3-1.1-0.8-0.4-0.4-0.4 0.1-1.9-0.2-1.8-0.5-1.7-1 0-2.5 1.3-0.9 0.2-0.9-0.1-0.7-0.2-1.3-0.3-0.8-0.3-0.6-0.5-0.8-1.5-0.6-0.2-0.9 0.5-0.9 0.3-0.7-0.1-0.5-0.4-0.4-0.4-0.5-0.8 0.9-0.3 0.9-0.7 0.3-0.4 0.1-0.6-0.4-1-0.5-0.7-1-1.1-0.2-0.6 0-0.8 0.1-1.2 0.3-0.9 0.7-1.3 1.6-2.3 0.4-0.9 0.1-1.4-0.1-7 1.2-3.4 1.1 0.5 0.9 0.9 0.9 0.5 1.2 0 1.5-0.4 4.9-2.1 1.2-0.3 0.9-0.1 1 0.3 0.6-0.1 0.3-0.3 0.3-1.4 1.1-2.8 1.7-1.8 2.3-1.8 0.5-0.3 1.5-1.3 4.1-2.6 2-0.9 2.5-1.6 0.5-0.6 0.2-0.6-0.4-1.8 0.1-0.6 0.4-0.7 0.9-0.6 0.7-1.7 0.3-5.6 0.1-0.1 2.1 1.8 1.4 0.9 9.8 3.7 2.9 2 0.4 2.3 0.3 0.8 0 2.2 0.4 1.2 0.9 1 0.6-0.1 0.9-0.9 1.5-0.9 1-0.2 1.4 0.3 0.9 0.6 0.6 0.7 0.4 0.9 0 1.3 0.6 0 0.7-1.4 0.6 1.5 0.8 0.3 0.5-0.8 0-1.7 0.7 0.1 2.5 0.1 1.2-0.2 0.5-0.4 1.5-1.3 0.8-0.3 1.1 0.1 1.2 0.2 0.9 0.5 0.7 1.7 0.8 0.2 0.5-0.4-0.5-0.9 4.8-3.5 0.5 0.1 1.4 0.7 0.2 0.2 0.4 0.8 0.9 0 1.6-0.4 3.2 0 2.6 0.4 1.9 1.6 0.8 3.4 3.6-0.8 2.1 1.4 3.2 4.9-1.9 4-0.5 0.7-1 0.9-0.4 0.5-0.2 0.7-0.2 1.4-0.2 0.6-0.8 1.2-1.3 1.3-1.5 0.9-1.5-0.1-0.4-0.9-0.4-1.5-0.6-1-1.1 0.7-0.8-0.4-0.6-0.1-0.5 0.2-0.6 0.3 0.8 0.2 0.5 0.2 0.4 0.4 0.2 0.6-2.6 0.2 0 1.2 1.2 1.7 0.8 1.7 0.6 0 1-1.5 2.4-0.8 2.8-0.1 2 0.3 3.8 2 0.6 0.5 0.1 1.3 0.4 1.1 0.8 0.6 1.2 0-0.7 2.3-1.3 0-1.5-1-1.2-0.6-0.7-0.2-0.3-0.6-0.2-0.7-0.4-0.7-1-0.7-5 0.8-1.8 0.7-6.1-0.8 0.5 1.2-0.1 1.2-0.9 2.4 0 0.6-0.1 1.3-0.2 1.2-0.4 1 0.8 0.9 1.1 2.1 3.5 2 1.5 0.5 0.6-1 1-2.2 4.5-3.7 0.9-2 1.4 1.2 0.9 1.5 0.2 1.7-0.6 1.8 2.4-0.3 0.8 0.3-0.4 1-0.1 1 0.9 0.6 2 0.7-0.5-2.2 5.5 1.3 1.4-1.8 0.6 0 0.4 0.6 0.6 0.5 0.7 0.5 0.9 0.5 0.6-2.1-1.5-0.6-0.8-0.1-0.9 0.1 1.1-1.6 2.2-0.6 2.4-0.1 1.8 0.2 1.7 0.7 1.8 1.2 0.7 1.1-2.2 0.5 0.8 1.2 0.4 1.4 0.7 0 0.1-0.4 0.5-0.9 0.8 2.1 2.2 0.5 5.2-0.6-1.6-1.1-3.5-1.8-1.8-0.4 1.2-1.3 2.2-0.6 2.5 0 1.7 0.5-0.7-0.8 1.5 0.1 4.3 0.9 1.1 0.7 0.3 0.7-1.5 0.4 0 0.7 2.6 0.6 0.3-0.4 0.3-0.2 1 0.8 1.6-0.5 1.6 0.1 0.8 2.3 0.6-1.4 0.1-0.7 0.8 0.7 0.9 0.4 0.8 0 0.6-0.4-1.3-1.3 7.4-1 1.8 0.6 0.9 0.5 1 0.2 0.7 0.4 0.3 0.9 0.7 0.6 1.4 0 2.3-0.2 1.5 1.1 1.4 1.3 1.7 1.2 7.2 0.8 2 0.6 1.4 1.1-1.3 0.6 1.3 2.4 0.1 1.1 0.2 0.2 0.4 0.1 1.2 0.8z" id="CUB1367" name="Holguín" data-id="CUB1367" data-name="Holguín">
 </path>
 <path d="M797.8 202.3l-0.1 0.1-0.3 5.6-0.7 1.7-0.9 0.6-0.4 0.7-0.1 0.6 0.4 1.8-0.2 0.6-0.5 0.6-2.5 1.6-2 0.9-4.1 2.6-1.5 1.3-0.5 0.3-2.3 1.8-1.7 1.8-1.1 2.8-0.3 1.4-0.3 0.3-0.6 0.1-1-0.3-0.9 0.1-1.2 0.3-4.9 2.1-1.5 0.4-1.2 0-0.9-0.5-0.9-0.9-1.1-0.5-1.2 3.4 0.1 7-0.1 1.4-0.4 0.9-1.6 2.3-0.7 1.3-0.3 0.9-0.1 1.2 0 0.8 0.2 0.6 1 1.1 0.5 0.7 0.4 1-0.1 0.6-0.3 0.4-0.9 0.7-0.9 0.3-3.7 1.5-0.4 0.3-1.5 1.3-1-0.4-1.7-3.7-0.8-0.7-1.4-0.4-2.1 0-3.9-0.4-1.9 0-0.7 0.1-3.9-0.7-2 0.7-1.4 0.2-1.2 0-1.5 0.5-0.9 0.1-0.6-0.3-1.3-0.9-3.4-1.3-9-0.3-2.2-0.6-0.6-1.1-0.6 0-0.6 0.3-1.5 1-0.6 0.3-0.3 0-0.4-0.9-0.5-0.6-0.4 0.1-0.2 0.5-0.1 1-0.4 1.1-1 1-0.3 0.6-0.3 0.9-0.6 0.4-1.4 0.7-0.4 0.3-0.6-0.2-2.6 0.2-2.9 0.7-2.4 1-1.2 1.4-0.9-0.5-0.6 0-1.1 0.5-0.9 0.3-1.3 0.4-1 0-1.6-0.3-4.7-1.7-3.6 1.9-0.8 0.1-1.3-1-0.6-0.3-0.7-0.2-2.8 0.2-0.7-0.1-1.8-0.6-0.6-0.3-0.3 0.2-1.2 0.1-4.6-0.3-1.5-0.5-2.5-1.7-0.8-0.2 1.2-8.1 4.8-6.8 2.2 0.1 5.6-1.1 1.4-0.6 0.7-0.5 0-1.3 0.1-0.7 0.4-1.6 0.1-0.6-0.3-1.3 0-0.8 0.7-0.5 0.6-0.1 0.6 0.3 1.3 1.9 0.3 0.3 1.6 0.2 1.2 0.2 0.4-0.6 0-1.3 0.5-1.3 1-0.5 1.8-0.6 1.4-0.2 0.2-1.4 0.3-0.3 1.4 0.1 1.2-0.2 1.7-0.3 0.6-0.8 0.3-0.7 0.1-0.7 0.4-0.8-0.2-0.9-0.1-1 0.5-0.6 1.3-0.7 0.7-0.7 0.3-0.3 0.4 0.7 0.7 0.9 0.8 1.2 0.3 0.9-0.1 0.6 0.3 0.5 1.6 0.4 1.6 0.1 1.2 0.3 0.2 0.3-0.1 0.4-0.6 1-0.1 0.6 0.3 0.6 1 1 0.9-2.1 0.6-0.5 0.6-0.3 0.4 0.1 0.4 0.4 1 0.9 0.5 0.2 0.8 0.3 0.7-0.4 2.7-6.4 1.3-1.9 1.1-0.5 1.3-0.8 2.7-0.5 0.6-0.2 1.2-1.1 0.6-0.7 3.4-5.6-0.4-6.4 0-0.7 0.5-1.2 5.2-4.8 0.2-0.4-0.2-0.3-0.6-0.2-3.5 0-0.4-0.2-0.5-0.6-0.4-1.7 0.1-0.9 0.6-1.3 0.7-0.9 1.5-4.5 1.8 0.2 2.2 0.5 1.6-0.1 2.5-0.6 1.2-0.6 2.6-2 1.5-0.6 1-0.9 1.3 0.9 3.4 1.7 5.1 1 1.2 1-0.7 1.3 1.9 0-0.5 2.1-0.7 1-1.2 0.4-3.2 0.2-1.3 0.5-1 1-0.3 1.4 1.3 2.4 4.7-2.5-0.3 2.5 0.9-0.7 0.4-1 0.2-1.2 0.4-1.2-0.6 0 1.3-1.9 0.3-1 0.2-1.2 5.7 2 0.5-0.1 0.7-0.4 0.4 0.2 1.6 1 2.5 0.6 1 0.1 1.4 0.6 1.3 1.4 0.5 1.4-0.7 0.6-1.5 0.4-5.1 2.4 0.3-1.5-0.8-0.9-1-0.1 0.2 1.1-0.5 1.6 1.3 0.6 1.8 0.3 1.5 0.6 1.4 1.1 1.6 0.7 1.7 0.4 2 0.1 0-0.6-2-0.7-0.7-0.5-0.5-0.8-0.6-1.5 0-0.6 1.8-0.7 1.6-0.1 2.2 0.7 2.1 1.3 1.2 1.5 0.5 0 0-2 0.7 0-0.4 3.9-1 1.3-4.9 0.2 0 0.7 1.8 0-1.2 0.7 0.7 1.3 0.9-0.1 1.1-0.5 1.1 0 0.8 0.6 0.9 1.8 0.8 0.3 0.5-0.2 0.6-0.5 0.6-0.6 0.5-0.8 1.6 0 2.7-1.6 1-0.4-1.4-0.5-3-0.4-1.2-0.4-1.1-1.4-0.3-1.6 0.6-1.3 1.7-0.5 11.1 0.3 2.2 0.7 1.4 1.1 2.9 1.2 0.3 0.2z" id="CUB1368" name="Las Tunas" data-id="CUB1368" data-name="Las Tunas">
 </path>
 <path d="M884.4 284.4l-0.9 0.7-0.4 0.8-0.4 0.3-0.5 0.1-1.2-0.5-0.4-0.1-0.4 0.5-0.2 1.5-0.4 0.7-0.9 1.5-1.1 0.8-1 0.7-1.2 0.5-0.6 0.6 1.3 2.9 0.3 1.6-0.2 3.2-0.1 0.5-0.8 0.7-0.6 1.2-0.1 1.1 0.5 2.3 0.5 1.4 0.2 0.5 0.5 1.3 0.3 0.3 0.8 0.7 0 2.6 0.3 1.1 0.2 0.2 0.7 0.1 0.5 0.3 0.3 0.5 0 0.9-0.4 0.8-2.2 1.1-1.1 1.4-1.9 0.8 0.1 3.6 0.5 1.5 1.2 2.1 0.6 0.6 1.9 1.9 5.6 7.9-1.1-0.1-3.1-0.7-0.9-0.5-0.6-0.1-0.3 0.2-0.7 0.9-0.6 0.3-2.5 0.4-3-0.1-2.7-0.5-1.9-1.2-3.1 0.5-3.8-2-3.8-2.8-3.2-1.7-2-0.2-6.6 0.2-1.8-0.2-3.6-0.9-1.9-0.3-3.5 0.4-1.9 0.6-1.2 0.7-1.3 0.2-12.2-2.9-8.3-1-4.3 0.2-7.3 2-3.5 0.5-6.7 0-2 0.3-3.9 1.3-2.1 0.5-11.7-0.7-11.9 1-1.9 1-2.1-0.1-2-0.5-1.9-0.1-1.4 0.6-3 2.4-2 1-2.1 0.6-7 0.3-0.1-2.2-0.8-1.8-0.3-0.4 0-0.6 0.8-0.3 5.3-0.6 0.7-0.2 0.5-0.3 3.5-4.8 1.1-0.3 2.2-0.2 1.3 0.1 2 0 1.4-0.3 0.9-0.4 1.6-1.6 1.5-0.9 1.4 1.5 1 0.3 1.1 0.8 0.3 0 0.5-0.6 0.8-0.5 1.8-0.4 0.5 0 0.6 0.4 0.8 1 0.5 0.4 0.8 0.3 1.5 0.3 0.5 0.3 1.3 0 1.7-0.2 2.1-0.1 0.4-0.1 0.3-0.9 0.2-0.2 1.3 0.5 2.5 0.6 0.7-0.2 0.1-0.5-0.7-1.9-0.2-0.9 0.6-0.3 2.6 0.4 2.2 0.1 1.5-0.2 1.1-0.5 1.4-0.7 1.4-1 2.6-2.5 1-1.8-0.4-8.3-0.5-2.9-0.3-0.7 0.1-0.5 0.6-0.4 0.8-0.9 1.4-1.4-0.1-1 0-0.8 1.9-7.9 0.6-1 0.7-0.6 1.5 0 0.9 0 2 0.4 0.9 0 0.5-0.2 0.3-0.6 0.1-1.4 0.5-0.9 1-1.1 0.3-0.7 0.2-0.8 0-0.9-0.4-1.9 0.1-0.4 1.1-0.2 0.9 0.6 0.5 0.5 0.2 0.6-0.1 1.8 0.1 0.5 0.5 1 0.4 1.3 0.4 0.4 0.7-0.1 1.3-1 2.4-3.3 2.2-0.1 0.8 0 0.8 0.2 1.5 0.7 0.5 0.1 0.9-0.2-0.1 0.6-0.7 1.6 0.4 0.8 1.7-1.7 0.2-0.3 0.5-2.1 0.3-2.2-0.6-1.5-0.2-0.9-0.6-0.8 0.2-0.3 1.4-1 1.2-1 0.5-0.3 1.6-0.7 0.2-0.5 0-0.6-0.7-1.6-0.2-0.9 0.2-0.6 0.2-0.1 1.3 0.5 4.4 3.3 0.8 1.5-0.4 1 0.3 0.4 0.7 0.3 1.6 0.1 1.2 0 0.6 0.1 0.2 0.3-0.1 0.6-0.8 1.4 0.3 0.4 0.7 0.6 2.7 1.9 1.6 0.4 0.4 1.6 0.2 0.6 0.3 0.3 1.6 0.8 2.9 0.3 6.7-3.1 0.7-0.2 1.1-0.1 2.9 0.4 3.9-0.4 4-2.8 0.6-1.6-0.6-1.3 0.1-0.8 0.5-0.4 1.3 0.6 1.1 0.6 0.5-0.1 0.7-0.5 1.3-1.1 1.9-1.9 0.3-0.4 0.7-0.4 0.5-0.2 0.7-0.5 0.4-0.1 0.5 0.2 1.5 1.2 1.7 0.5 4-0.8 1.2 0 0.8-0.2 0.9-0.4 0.1 0.3 0.1 0.6-0.3 2.5-0.3 0.6-1 0.4-0.4 0.7-0.5 1-0.7 0.5 0.1 0.3 0.6 0.8 1.5 1.3 2.4 3.3z" id="CUB1369" name="Santiago de Cuba" data-id="CUB1369" data-name="Santiago de Cuba">
 </path>
 <path d="M263.9 8.8l0.3 1-0.2 1 0.6 0.9 1.5 2-0.5 0.4-0.8 0-0.3 0.4 0.1 0.6 0.2 0.9 0 0.4-0.8 0.7-0.1 0.5-0.1 1.7-0.9 1.6-3.2-3.8-0.6-0.4-0.8-0.4-0.4 0.1-0.5 0.6-0.1 0.6-0.4 1.2-0.6 0.6-0.6 0.4-0.3-0.1-0.6-0.9-0.5-0.6-0.7 0.2 0.2 0.7 0 1-0.2 0.8-0.1 0.7 0.2 0.8 0.8 1.6 0 0.9-3.1 3.5-0.7 1.3-0.6 0.8-0.8 0.3-1.1 0-0.9-0.1-1-0.5-2.4 0.2-3.6-0.3-0.8 0.8-0.4 0.7-1.2 1.1-0.6 0.3-0.5-0.2-1-1.2-0.7-0.4-0.7 0.2-1.5 0.6-0.8-3.3-0.5-0.5-0.5 0.1-3.4-1.5-0.7-0.5-0.3-0.4 0.1-0.2 1.9-1.6 0.7-1.2-0.1-0.9-0.9-1.3-0.7-0.2-0.7 0.2-0.5 0.4-1.1 0.6-1.6-0.7-0.4-0.7 0.7-0.3 2-0.7 0.5-0.3 0.9-1.4 0.5-0.3 1.1-0.2 0.9-0.3 1.4-0.9 2.8-2.1 1.4-0.9 3.7-0.6 4.2-1.8 6.5-1.1 2.9-1.2 6.4 1.5 2-0.2 2.6-0.7z" id="CUB1428" name="Ciudad de la Habana" data-id="CUB1428" data-name="Ciudad de la Habana">
 </path>
 <path d="M210.5 69.8l-1 0.8-0.8-1.3 0.7-0.6 0.4-0.5 0.7 1 0 0.6z m14.8 1.5l-0.4 0.6-0.4-0.4 0.2-6.3-0.3-0.8 0-0.6 0.3 0 0.5 0.4 0.3 0.7 0.5 1.6 0.3 2.4-0.5 1.7-0.5 0.7z m7.6-39.3l-0.1 3.5 0 2.7-1.1 2.4-0.8 3.3 0 3.7 1.9 3.9 1.9 2.7 2.3 1.4 0.4 1.3-0.4 2.1-6.1 0.8-4.8-1.2-1.1 0.2-1.8 1-0.9 0.2-4.3-1-3.3 0.8-9.7-2.6-2 0-1.9 1-0.9 1.7-0.3 1.9-0.1 2-0.5 1.8-1.4 0.9-0.8 0.3-0.1-0.4-0.3-0.6-0.7-1.1-3-3.4-0.4-0.8-1.9-4.3-0.7-1.2-0.5-0.8-0.6-0.4-1.1-0.8-1.2-1.5-1.5-2.6-0.8-1-1-0.5-0.4-0.3 0.6-0.4 2.2-0.2 0.7-0.3 0.5-0.4 1.7-2.1 0.2-0.9-0.5-2.4-2.3-4.5 0.3-2 0-0.5-0.4-3.6 0.1-0.6 0.2-0.1 1-2.5 1.3-2.1 3-0.1 3.3 0.5 2.2-0.3 2-0.8 8.4 0.4 8.5-1.1 2.3-0.9 1.8 0.1 3.4-2 0.4 0.7 1.6 0.7 1.1-0.6 0.5-0.4 0.7-0.2 0.7 0.2 0.9 1.3 0.1 0.9-0.7 1.2-1.9 1.6-0.1 0.2 0.3 0.4 0.7 0.5 3.4 1.5 0.5-0.1 0.5 0.5 0.8 3.3z" id="CUB1429" name="Artemisa" data-id="CUB1429" data-name="Artemisa">
 </path>
 <path d="M314.7 122l0.2 1.4-0.7 0.1-1-0.6-0.9 0.1-0.6-0.2-0.4-0.6-0.2-0.8 0-0.8 0.6-0.4 1 0.3 1.4 0.8 0.6 0.7z m65.1-112.2l1.5 1.3 0-1.4 0.6 0 0.9 1.5 0.6 0.7 0 0.4-0.8 0.9-1.6 0.9-1.1-0.1-0.9-0.5-1.2-0.3-3 0.3-2.2 0.8-4.6 2.3 1.1-1.2 5.6-3.7 1.6-0.4 1.8 0.1 2 0.5-0.4-0.6-0.5-1-0.4-0.6 0.6-0.6 0.4 0.7z m29.3-1.4l0.8 0 2.4 0 1.1-0.4 0.6 0 0.2 0.7-0.2 0.8-0.5 0.4-0.7 0.3-0.8 0.6-0.9-0.2-1.7-0.7-1.8-0.5-1.6 0.3-0.4-0.6-0.4 0-1.1 0.6 0.3-1.3 0.6-0.9 1-0.4 1.5-0.1 0.4 0.2 0.7 0.9 0.5 0.3z m-12.7-0.9l-0.2 0.7-0.7 0-0.1 0.7-0.5 0.2-1-0.3-0.7 0.4-0.2 0.7-0.3-0.3-0.1-1.3 1-1.1 1.6-0.6 0.8-0.2 0.2 0.3 0.2 0.8z m6.6 13.4l-0.6 0.2-1.5 2.9-0.3 2.3 0.1 1 0 1.7-0.5 0.8-0.7 0.5-0.9 0.3-1 0-0.8-0.6-0.7-0.2-0.9 0.1-1.3 0.5-0.4 0.1-2.3-0.1-0.5 0.3-0.3 0.4-0.3 0.9 0 0.8 0 1.2 0.4 1.5 0.1 0.8-0.2 1.5-0.5 0.7-0.5 0.5-0.7 0.3 0.1 0.7 0.7 0.4 0.1 0.4 0.1 0.6 0.5 1 1 1 0.6 0.9 0.5 0.9 0.4 0.4 1.5 1 1.9 1.6 1.5-0.1 0.6-0.3 1.9-1.3 1.8-0.7 0.9-0.1 0.7 0.4 0.2 0.3 0.9 2.1 0.7 2.1 1.4 2.4 0.2 0.8-0.1 0.5-1.4 0.6-0.5 0.8-0.1 0.6 0.2 0.4 0.6 0.7 0.4 0.7 0.2 0.7 0 0.8-0.4 4.7 0 0.8 0.7 0.9 0.4 0.7 0.2 2 0.3 1 0.4 1 0.6 0.7 1.3 2.3-1.8 1.2-0.4 0.5-2 3.8-0.6 0.8-0.4 0.4-1.7 0.3-0.6 0.3-2.1 0.9-1 0-0.9-0.3-8.5-0.9-2.2 0.2-0.7-0.1-4.6-1.2-1-0.1-0.8 0.2-1.1 0.8-1.1 0.7-2 0.9-0.5 0.4-1.9 1.8-1.1 0.8-0.7 0.9 0.3 0.3 0.8 0.3 0.1 0.6-0.6 1.6-0.3 0.7-1.4 2.4-0.1 0.7 0.6 0 1.1-0.4 0.9 0.3 0.1 0.4-0.1 0.5-0.7 1.1-0.4 1.1 0.4 1.1-0.1 1.3-0.5 1.4-0.3 1.6 0.2 1.4 0.5 0.5 0.3 0.1 1.5-0.1 0.4 0 0.3 0.3 0.3 1.7-0.4 1.8 3.9 2.8 1.1 1.1 1 1.5 2.9 1.7 3.2 1.3 1.3 0.8 0.7 0.3 0.3 0 0.8-0.8 0.3-0.1 1.5-0.1 1.5-0.1 0.5 0.2 0.6 0.6 0.4 0.2 0.9-0.1 1.3-0.3 1.9-0.3 1 0.1 0.6 0.2 0.7 0.8 0.4 0.8 0.1 0.6 0.1 1.7 0.1 1.1 0.2 0.6 0.7 1.1-4.1 0.2-11.3-0.8-13.3 1.5-8.1-0.9-1.8-0.6-3.4-1.8-3.7-0.7-1.4-1-0.9-1.5-2.4-5.1-0.3-1 0-1.6 0.7-4.2-0.5-0.3-2.4-3.8-1.2-0.8-1.3-0.3-1 0.4-0.6 1 0 1.3 1.3 4.2 0 12.1-0.7 3.1-1.9-0.1 1.3-2.2-0.4-3.1-1.3-2.9-0.9-0.7-2.5 0.9-0.6 0.4-0.3 0.9 0.1 1.8-0.4 0.8-1.1 0.5-0.7-0.4-0.6-0.6-0.8-0.2-0.7 0.5-0.1 0.7-0.2 0.6-1.2 0.3-3.3-1.5-2-6.7-3.5-1.5-4.5 0-1-0.3-1.8-1.3-1-0.3-0.7 0.3-1.4 1.3-1.3 0.4-0.4 0.5-0.6 0.1-0.3-0.1-0.2-0.9-0.4-0.3-3.8-1.3-0.5-0.3-1.1-0.5-1.1 0-0.5 1.1-0.9 0.4-2 0.1-2.2-0.2-1.3-0.6-0.5 0-0.3 1.2-0.6 0.3-1.7-0.2 0.4 0.6 0.3 0.7-1 0-4.3-0.5-1.4-0.5-2.3-2.6-0.8-1.4-0.4-1.5-1.6-1.7-13-5.2-1.4-0.8-1.4-1.2-0.8-0.4-1.8-0.2-0.8-0.3-0.5-0.6-1-1.8-0.1-0.4-1.3 0-1.7-0.2-1.5-0.8-0.9-1.7 0.5-1.6 1.1-0.9 1.4-0.6 1.2-0.4 10.6 0.4 3.5-0.9 2.4 0.4 2.8-0.3 1.7-0.3 2.5 0.6 2.1 0.2 4.8-0.7 3.6-1.6 1 0.2 1-0.5 1.8 0 1-0.3 1.3-0.4 2.1-2 0.9-0.4-0.1-2.1 0.3-1-0.2-1.5 0.8-2.8 0-1.1-0.7-0.2 0.2-0.4 1.1-0.8 1.2-1.9 0.8-1.1 0.5-0.9 0.5-1.4 0.7-5.1-0.2-1.5-1.5-1.3-3.5-2.2-0.5-0.9 0-1.5 1-2.6 0-0.6-0.3-0.6-1.2-0.8-1.5-1.4-1.5-2.7 1.2-3.7 0.3-2.9 0.1-0.4-0.2-1-1.1-1.6-1.5-2-1.4-1.2-0.6-0.2-1.1-0.2-0.4-0.5 0.5-1.4 0.5-0.4 1.9-1.3 0.9-1.2 0.3-0.2 0.2-0.6-0.4-0.5-0.8-0.7 0-0.3 0.1-0.5 0.7-1 0.5-0.2 0.4 0 0.9 0.5 0.4 0 0-0.7-0.2-1.2-1.1-5.3 0.9-1.2 0.1-0.9 2.4 0.1 1.4-0.3 1.3-0.6 1 0.6 1.1 0 1 0 1.3 0.2 0.6 0.3 1.6 1.4 2 1.1 0.3 2-0.3 2.3-0.4 1.8-0.6 0.8-0.6 0.4 0 0.3 1.2 0.5 1 0.2 1-0.3 1.4-0.5 0.4-0.6 0.6-2.4 0.3-0.9 0.8-0.7 0.6-0.2 0.9 0 7.7-1.4 1.1-0.4 1-1.1 2.3-0.7 4.3-0.6 1.4-0.5 3.4-1.7 2.2-1.8 4.1-2.4 1.5-0.4 1.8 0.6-1.3 1.2-2.6 1-4.2 1.2-5 3-1.3 1.2 0 0.6 4.1 1.1 5.3 6.2 3.2 1.7 1.9 0.1 0.8-0.5 0.6-1 1.4-1.7 0.5-0.8 0.9-2.5 0.5-0.5 1-0.1 1.9-0.5 0.6-0.1 3.9 0.7 0.6 0 0.4-0.2 0.1 0.3 0.1 1.6 0.7 2.2 1.7 0.6 2-0.4 1.9-0.6 14.5-2.8 2.3-0.1 4.3 0.9 2.3-0.1 1.9-0.8 1.7-1.5 0.6-1.9-1.7-2 1.2-0.5 1.2-0.2 1.2 0.2 0.9 0.5 0 0.7-0.8 0.7-2.4 4.8 2.5 2 0.2 0.2z m-11.1-13.3l0.2 0.3-0.1 0.6-0.6 0.2-0.6-0.4-0.7 0-0.4 0.6-0.4 0.3-1.9-0.9-1.1-0.4-0.7-0.1-1.7 0.2-1-0.1-2.6-0.9-0.9-0.2-0.7-1-0.5-0.2 0.4-0.6 1.8 0.2 2.5 1 3.3 0.7 5.7 0.7z m-18.5-6.6l2.6 1.6 0.6-0.1 0.4 0.2 0.3 0.8-0.7 0.9-1.1-0.2-1-0.3-1.1-0.2-1-0.4-0.5-0.7-0.4-0.5-0.8-0.3 0.6-0.6 2.1-0.2z" id="CUB1430" name="Matanzas" data-id="CUB1430" data-name="Matanzas">
 </path>
 <path d="M497.3 47.4l4.8 5.5 2 1.6 4.3 1.3 3.4 2.9 3.8 1.5 1.9 1.9 1.5 2.3 0.8 1.8-2.1-1.9-1.6-0.4-0.8-0.4-1.2-0.8-1.4-1.2-3.1-3.5-1.7 0.6-1.7-0.2-1.5-0.8-2.1-1.6-0.6-0.2-0.4-0.5-0.1-1.1-0.4-0.4-1.4-1.1-0.5-0.3-0.7-0.6-0.5-1.4-0.8-1.4-1.8-0.7-2.7 1.2-1.2-0.1-0.2-1.8 2.6-0.8 1.9-0.1 1.5 0.7z m-10.1-5.6l1.3 0.8 0.5 0.7-0.9 0.9-1.4 0.2-0.6-0.6 0-0.7-0.7-0.6-0.5 0.1-0.6-0.2-1.8-1.2-0.8-1 0.1-1 1.1-0.3-0.2-0.7 0.1-0.8 0.5-0.4 0.6 1.2-0.2 1.6 0.6 0.2 1.8 0.4 0.6 0.8 0.5 0.6z m-21.3-10.7l1.4 0.7 0.8 0-0.1 1.3-1 1-1.9-1.3-0.9 0.3-1 1.4-0.9 0.4-0.7-2.5 1.3-0.8 1.5-0.5 1.5 0z m7 5.5l-1.1 0.1-1-0.6-0.6-0.9 0.3-0.6 0.5-0.5 0.2-0.5-0.8-0.1-0.8-0.5 0.9-1.5 2.1-0.6 1.1 0.4 0.7 1 0.2 0.7-0.6 0.5-1.1 0.4-0.7 0.7 0.5 0.5 0.7 0.2 0.2 0.5-0.7 0.8z m-38.4-7.5l0.8 0.4 0.6 0.6 0.3 0.7 0.1 1-9.3-1.6-1.4-1.1 0.5-0.5 0.6-0.2 0.6 0.1 0.8 0.6 4.5-2.3 2-0.2 1.7 1.1-0.5 0.3-0.9 0.8-0.4 0.3z m77 51.5l-0.1 0.1 0.1 2.3-1.7 3.2 1 0.9 0.8 1.2 3.1 6.3 2.6 3.6 0.1 0.7-0.4 1.3-0.2 1.2 0.1 1.6-0.3 1.8-2.4-0.4-2.3-1.2-0.9-0.2-1.1 0-1.6 0.6-1.1 0.6-1.7 1.7-0.5 1.8-0.4 1.3-0.7 1.4-0.8 1.1-0.8 0.7-1.1 0.5-1.3 0.1-1.3-0.5-0.8-0.6-1.2-0.5-1.9 0.6-3.8-1.2-0.8 0-1.3 0.1-1.3 0.9-0.7 0.4-0.7 0-1-0.2-1-0.9-0.8-1.3-1-0.9-3.1-0.1-1 0.9-0.2 0.7 0 1 0.6 1.8 1.4 2.6 0.4 1.1 0.3 0.7 0.3 0.3 0.4 0.1 1-0.1 0.4 0.2 0.4 0.6-0.1 1.3-0.5 1.8-1.5 3.1-1.8 3-2.3 2-2.8-0.2-1.3-0.7-0.4-0.4-0.7-0.3-5.4-1.3-0.8 0.2-1 0.4-0.9 1.1-0.3 0.8-0.2 0.9-0.3 0.5-0.5 0.3-1.3-0.1-0.6 0.1-1.8 1.5-3.2 1.5 0-1.4-0.1-0.2-1.9-1.4-0.3-0.9-0.1-0.9 0-1.5-0.1-2.7-0.3-0.8-0.4-0.7-1.8-1.4-0.6-1.3-0.5-1.3-0.9-4-0.1-0.8 0.1-2-0.4-3.8 0.1-0.9 0.7-1.5 1-3.2-2.3-1.1-1.1-1.5-0.8-1.4-0.5-1.2-0.3-0.9-0.3-2.2-0.4-0.6-0.8 0-1.4 0.4-0.7 0.1-0.6-0.1-1.2-0.6-3.3-3.3-0.6-0.8-0.3-0.7 0-1 1.7-2 0.3-1.3-0.6-0.8-0.7-0.4-0.3-0.7-0.1-0.6 0.2-0.7 0.3-0.8-0.2-1.1-1.8-1-0.3-0.5-1.1-2.4 0-1.4 0.2-0.2 1-0.4 0.2-0.5 0.1-0.9 0-1.7-0.1-0.7-0.2-0.3-0.9 0.9-1.2 0.1-1.3-0.1-0.8 0.1-0.7 1-0.7 2.3-0.4 0.4-1.8 0-0.4 0.2-1 0.7-0.6 0.3-1.1 0.4-0.9-0.2-0.2-0.5 0.1-0.4 0.5-1.3 0.1-1 0.1-1.4-0.5-0.6-0.7-0.1-2.3 0.4-2.2-1.8-0.5-0.2-0.8 0-0.4 0.2-1.7 2-3.9 2.3-1.3-2.3-0.6-0.7-0.4-1-0.3-1-0.2-2-0.4-0.7-0.7-0.9 0-0.8 0.4-4.7 0-0.8-0.2-0.7-0.4-0.7-0.6-0.7-0.2-0.4 0.1-0.6 0.5-0.8 1.4-0.6 0.1-0.5-0.2-0.8-1.4-2.4-0.7-2.1-0.9-2.1-0.2-0.3-0.7-0.4-0.9 0.1-1.8 0.7-1.9 1.3-0.6 0.3-1.5 0.1-1.9-1.6-1.5-1-0.4-0.4-0.5-0.9-0.6-0.9-1-1-0.5-1-0.1-0.6-0.1-0.4-0.7-0.4-0.1-0.7 0.7-0.3 0.5-0.5 0.5-0.7 0.2-1.5-0.1-0.8-0.4-1.5 0-1.2 0-0.8 0.3-0.9 0.3-0.4 0.5-0.3 2.3 0.1 0.4-0.1 1.3-0.5 0.9-0.1 0.7 0.2 0.8 0.6 1 0 0.9-0.3 0.7-0.5 0.5-0.8 0-1.7-0.1-1 0.3-2.3 1.5-2.9 0.6-0.2 3.3 6.1 1.9 1.3 1.5 0.1 3.7 0.8 1.4 0.5 0.9 0.8 0.9 1.2 1.3 1 1.6 0.5 5.2 0 1.2 0.3 1.4 1.3 1.5 0.8 1.5 0.6 1.6 0.4 3 0.1 2.9-0.6 5.5-2.2-0.7-2.4 1.5-0.1 4.9 2.5 2.2 0.7 1.9-0.4 0.3-2.4 1 0.6 1 0.7 0.8 0.8 0.3 1 2.1 3.8 0.2 0.7 3.5 2 0.5 0.1 1.6-0.1 0.7 0.3 0.2 0.4 0.1 0.8 1.9-0.6 3-2.9 5.7-1.6 0.8 0.2 0 0.8-0.9 0.8-1.7 1.1-2.1-1-1 0.8-1.3 3.7 1.1 1.5 0.5 0.7 0.9 0.6 1 0.2 3.8 0.4 1.6 0.5 5.4 3.9 0.7 0.9 0.5 0.2 0.5-0.2 0.6-0.5 0.5-0.7 2.1-0.3 0.8 0.5 2.3 10.2 1.4 0.5 1.1 0.6 1 0.8 1.1 1.1 1 1.6 1.3 3.1 0.9 1.5 2.3 2.7 0.5 0.4 1.4 0.3 2.7 0 1 0.3 2.5 3.9 0.5 1.1 0.7 0.6z m-59.8-58.7l0.7 1.6 0.3 1.3-0.2 0.2-0.5-0.7-0.5-0.5-1 0.2-0.7-0.1-0.5-0.5-0.4-0.5 0.4-0.2 0.1-0.6 0.2-1.2 1-0.2 1.1 1.2z m-7.2-1.8l-1.8 0.9-1.9-0.4-3.9-1.9 0.2-1 0.5-0.8 0.6-0.7 0.6-1 0.7 0 0.6 1.3 1 1.1 1.2 0.8 1.3 0.3 1.5 0.1 0.5 0.2-0.3 0.4-0.8 0.7z m-9.4-1l-0.5 0.1-0.6-0.5-0.9-1.4-0.7-0.3-1.8-0.9-0.3-0.7-0.6-0.4-0.2-0.8 0.9-0.6 1.3-0.2 0.8 0.2 0 0.6 0.7 0.7 1.3 1.2 0.8 1.1 0.4 0.7-0.1 0.7-0.5 0.5z m-12.3-6.2l-0.7 0.2-0.8-0.1-2.3 0.3-0.9 0.7-1.4 0.6-1.3 0.4-0.4-0.9 0.4-0.2 0.8 0.1-0.1-0.9 0.4-0.5 1.3-0.2 2.8-0.2 1.1 0 1.3 0.2-0.2 0.5z" id="CUB1431" name="Villa Clara" data-id="CUB1431" data-name="Villa Clara">
 </path>
 <path d="M302.3 11.9l-0.1 0.9-0.9 1.2 1.1 5.3 0.2 1.2 0 0.7-0.4 0-0.9-0.5-0.4 0-0.5 0.2-0.7 1-0.1 0.5 0 0.3 0.8 0.7 0.4 0.5-0.2 0.6-0.3 0.2-0.9 1.2-1.9 1.3-0.5 0.4-0.5 1.4 0.4 0.5 1.1 0.2 0.6 0.2 1.4 1.2 1.5 2 1.1 1.6 0.2 1-0.1 0.4-0.3 2.9-1.2 3.7 1.5 2.7 1.5 1.4 1.2 0.8 0.3 0.6 0 0.6-1 2.6 0 1.5 0.5 0.9 3.5 2.2 1.5 1.3 0.2 1.5-0.7 5.1-0.5 1.4-0.5 0.9-0.8 1.1-1.2 1.9-1.1 0.8-0.2 0.4-0.7-0.3-1.4 0-2.5-2.2-1.7-1.4-3.2-2.5-3.2-1.2-8.3-2.9-3.2 0.1-7.4 0.7-9.8 1.7-2.9-1.3-6.3-1.8-7 0-5.9 0.7-2-0.2-2.9-0.8 0.4-2.1-0.4-1.3-2.3-1.4-1.9-2.7-1.9-3.9 0-3.7 0.8-3.3 1.1-2.4 0-2.7 0.1-3.5 1.5-0.6 0.7-0.2 0.7 0.4 1 1.2 0.5 0.2 0.6-0.3 1.2-1.1 0.4-0.7 0.8-0.8 3.6 0.3 2.4-0.2 1 0.5 0.9 0.1 1.1 0 0.8-0.3 0.6-0.8 0.7-1.3 3.1-3.5 0-0.9-0.8-1.6-0.2-0.8 0.1-0.7 0.2-0.8 0-1-0.2-0.7 0.7-0.2 0.5 0.6 0.6 0.9 0.3 0.1 0.6-0.4 0.6-0.6 0.4-1.2 0.1-0.6 0.5-0.6 0.4-0.1 0.8 0.4 0.6 0.4 3.2 3.8 0.9-1.6 0.1-1.7 0.1-0.5 0.8-0.7 0-0.4-0.2-0.9-0.1-0.6 0.3-0.4 0.8 0 0.5-0.4-1.5-2-0.6-0.9 0.2-1-0.3-1 1.1-0.2 2.1-0.2 1-0.3 1-0.4 1-0.1 0.9 0.4 3.5 2.5 2.7 0.8 5.9 0.5 2.7 0.7 2.1-0.6 14.4 0z" id="CUB5489" name="Mayabeque" data-id="CUB5489" data-name="Mayabeque">
 </path>
 <circle cx="518.1" cy="142.1" id="0">
 </circle>
 <circle cx="520.6" cy="147" id="1">
 </circle>
 <circle cx="211.6" cy="44.5" id="2">
 </circle>
</svg>