<?xml version="1.0"?>
<!--
************* Copyright (c) 2017 Pareto Softare, LLC DBA Simplemaps.com *******************		
************* Free for Commercial Use, full terms at  http://simplemaps.com/resources/svg-license ************
************* Attribution is appreciated! http://simplemaps.com ***************************
-->
<svg baseprofile="tiny" fill="#7c7c7c" height="925" stroke="#ffffff" stroke-linecap="round" stroke-linejoin="round" stroke-width="2" version="1.2" viewbox="0 0 1000 925" width="1000" xmlns="http://www.w3.org/2000/svg">
 <path d="M251.9 909.2l-1.4 6.1-3.1 2.8-3.4 2-2.2 3.9-2.8 0-2.8-3.9-7.1-4.8-2.5-4.7-1.2-0.7 0.5-3.3-0.5-3.3-1.6-3.4 5.1 0-1.5-7.2 4.3-2.5 6.8-0.9 5.6-2.5 4.1 3.9 2.4 5.6 1 6.4 0.3 6.5z" id="CPV5041" name="Brava" data-id="CPV5041" data-name="Brava">
 </path>
 <path d="M366.4 869.9l-3.5 14.2 3.6 8.6 7.7 6.1 11.9-1.2 8.4-8.7 1.8 4.3 0.2 4.4-2.5 3.7-12.9 12-15.6 6.1-14.3-1.9-12.6-6.6-21.3-18-5.1-7.3-2.2-7.9 2.1-7.9 5.2-9.2 6.6-8.2 9-6.6 12.9-6.6 8.5 13.1 12.1 17.6z" id="CPV5042" name="São Filipe" data-id="CPV5042" data-name="São Filipe">
 </path>
 <path d="M393.3 866.1l-13.5 0.7-13.4 3.1-12.1-17.6-8.5-13.1 9.7-5 6.7-2.1 7.6-0.8 8 1.8 5.2 4.7 3.4 6 4.8 12.9 2.1 9.4z" id="CPV5043" name="Mosteiros" data-id="CPV5043" data-name="Mosteiros">
 </path>
 <path d="M394.5 888.9l-8.4 8.7-11.9 1.2-7.7-6.1-3.6-8.6 3.5-14.2 13.4-3.1 13.5-0.7 2.1 9.4-0.3 4.9-1.8 4.3 1.2 4.2z" id="CPV5044" name="Santa Catarina do Fogo" data-id="CPV5044" data-name="Santa Catarina do Fogo">
 </path>
 <path d="M632.4 760.5l-5.3 9-5.7 8.5-14.4 1.7-11.1-1.3-5.7-0.3 1.2-3.7 0.3-4.6 0.9-4.1 3.6-4.5 0.8-2.1-1.2-6.5-3.1-7.4-4.1-6.1-4.2-2.4 2.4-0.9 7.7-4.1-5.4-2.2-2.4-0.5 10.3-8.1 2.8 0 0.2 3 2.1 5.1 6.9-4.3 5.9 3.7 2 6.5-4.7 4.6 4.9 7.1 5.8 4.3 12.3 6.8-2.8 2.8z" id="CPV5045" name="Tarrafal" data-id="CPV5045" data-name="Tarrafal">
 </path>
 <path d="M643.3 798.3l2.3 3.1 0.8 6.8-8.7 7-2.3 2.1 1.4 7.3 2.7 5.3 2.8 3.8-3.7 4.2-0.8 5.5-2.9 1.7-7.8 0.9-3.3 5.1-6.9 3-6.3 6.8-5.8-6.7 0-12.5-4.2-3-6.1-1.9-5.1-2.6-2.7-10.2-3.9-5.1-1-3.1 1.1-3 5.2-9.4 1.3-3.5-0.3-5.1-4.7-13 3.5-1.1 2.3-2.6 5.7 0.3 11.1 1.3 14.4-1.7-0.4 6.8 6.9 6.8 6.6 4.7 0.8 5.9 2.9 0.9 5.1-4.8z" id="CPV5046" name="Santa Catarina" data-id="CPV5046" data-name="Santa Catarina">
 </path>
 <path d="M656.3 783.4l-10.7 12.9-2.3 2-5.1 4.8-2.9-0.9-0.8-5.9-6.6-4.7-6.9-6.8 0.4-6.8 5.7-8.5 5.3-9 6.4 1.4 3.2 2.7 5.6 9.3 8.7 9.5z" id="CPV5047" name="São Miguel" data-id="CPV5047" data-name="São Miguel">
 </path>
 <path d="M695.9 824.2l-2.3 4.8-5 2.1-8.2-5.1-8.5-7.5-5.4 1.6-5.9-2.6 0.6-2.5-0.9-3.9-13.9-2.9-0.8-6.8-2.3-3.1 2.3-2 10.7-12.9 2.7 3 6.3 4 5.5-0.8 1.8 3.1 4.9 5 2.6 2.2 4.9-0.3 1.2 1.5-0.2 4.3 9.9 18.8z" id="CPV5048" name="Santa Cruz" data-id="CPV5048" data-name="Santa Cruz">
 </path>
 <path d="M660.6 817.5l-1.9 9.8-7.4 5.5-2.6 0.3-6.4 0.6-2.8-3.8-2.7-5.3-1.4-7.3 2.3-2.1 8.7-7 13.9 2.9 0.9 3.9-0.6 2.5z" id="CPV5049" name="São Salvador do Mundo" data-id="CPV5049" data-name="São Salvador do Mundo">
 </path>
 <path d="M680.4 826l-6.1 2.1-7 6-5.3 5.9-7.4 4.3-5.7-5.1-0.2-6.1 2.6-0.3 7.4-5.5 1.9-9.8 5.9 2.6 5.4-1.6 8.5 7.5z" id="CPV5050" name="São Lourenço dos Órgãos" data-id="CPV5050" data-name="São Lourenço dos Órgãos">
 </path>
 <path d="M700.8 858.9l-7.2-4.8-7.4 1.2-9.4 6.4-10.3 2.1-6.2-2.9-1.2-10.2-4.5-6.4 7.4-4.3 5.3-5.9 7-6 6.1-2.1 8.2 5.1 5-2.1 2.3-4.8 5.3 10 3.6 2.7 2.3 4.6 2.3 2.5 1.9 0.7-1.7 5.7-2.6 3.8-6.2 4.7z" id="CPV5051" name="São Domingos" data-id="CPV5051" data-name="São Domingos">
 </path>
 <path d="M654.6 844.3l4.5 6.4 1.2 10.2 6.2 2.9 1.3 7.3 4.8 6.2 3.1 6.9-3-0.3-3.1-1.7-2.8-0.3-12.3-0.3-10.3-1.4-19.4-6.7-14.2-12.6 6.3-6.8 6.9-3 3.3-5.1 7.8-0.9 2.9-1.7 0.8-5.5 3.7-4.2 6.4-0.6 0.2 6.1 5.7 5.1z" id="CPV5052" name="Ribeira Grande de Santiago" data-id="CPV5052" data-name="Ribeira Grande de Santiago">
 </path>
 <path d="M700.8 858.9l-2.4 1.7 2.8 2.7-3.6 6-2.3 6-2.8 4.7-5.3 1.9-3 0.3-5.8 1.6-2.7 0.4-3.1-6.9-4.8-6.2-1.3-7.3 10.3-2.1 9.4-6.4 7.4-1.2 7.2 4.8z" id="CPV5053" name="Praia" data-id="CPV5053" data-name="Praia">
 </path>
 <path d="M810.2 726.2l5.3 2.5 8.3-2 4.3 2.3 2.2 4.9 0.5 6-0.4 10.4 4.2 21.9-0.6 10.5-5.9 9.8-1.8 0.7-5.9 0.8-2.4 0.9-1.4 1.8-1.8 4.6-1.9 1.5-5.1 0.4-4.9-1.3-7.9-4.4-8.7-6.3-4.2-4.6-2.3-4.8 1.2-4.8 2.9-4.7 1.4-4.7-2.9-4.4 5.2-3.2 2.3-4.9-1.4-4.2-6.1-0.6 2-5.6 8-6.1 5.4-9.6-1.8-0.7-1-2.1 5.2-2.2 4.9-3.1 0 5.3 4.1-3.4 1-1.9 2.7 2.9-2.7 2.4z" id="CPV5054" name="Maio" data-id="CPV5054" data-name="Maio">
 </path>
 <path d="M930.1 384.2l8.6 1.1 3.7-3.5 2.8-6 6.7-1.1 21.9 5.6 4 1.6 3.7 2.7 1.5 2.7 2.2 7.4 1.6 1.5 6.3 2.7 1.4 6.5-1.3 14.8 1.4 0.6 2.8 3.7 1.6 4.2-3.3 3.6-1.6 7.3-6.2 4-20.2 16.3-13.5 7.3-6.9 2.2-21.3 1.4-3.8-0.6-3.6-1.9-5.3-4.5-4.2-1.3-13.5-6.1-4.5-4.3-2.3-8.2 0.3-7.4 2-6.9 3.9-5.1 5.4-2 7.1-7-4-33.7 3.2-12 3.1 4.9 4.5 3.3 6.4 3 9.4 3.2z" id="CPV5055" name="Boa Vista" data-id="CPV5055" data-name="Boa Vista">
 </path>
 <path d="M913.5 189.5l4.9 4.6 1 2.2-0.4 4.3-2.6 13.8-3.4 2.5-1.2 2 0.2 2 1.7 5.3 0.6 0.6-2.4 3.1-10.2 4.8-4.5-29.4-5.6-11.6-7.8 4-1.6-5.6-0.5-7.5 1.2-7 3.4-3.9 0-2.6-4.4-1.4-2.4-3.7-0.9-5.2 0.3-12.1 7.6-6.1 17.7-11.2 2 2.8 6.7 6.3 1.4 2.9-2.8 6.3-2.6 3.8 2.9 3.2-1 22.9 1 7.3 1.7 2.6z" id="CPV5056" name="Sal" data-id="CPV5056" data-name="Sal">
 </path>
 <path d="M384.7 277.6l-0.5-11.6 2.2-16.3 2.1-10.3-2.1-12.2-6.8-5.7-10.4-0.7-3.7-5.1 3.7-5.1-3.4-8.2 5.3-1.8 2.7 0.4 5 2 4.4 3 8.7 7.7 4.6 2.3 3.9 0.2 20.6-3.2 3.6 0.7 13.5 6.6 3 0.6 30.6 2.6 8.3 3.3 7.2 5.9 3.9 2.2 1.7-1.5 0 13.3-4.1 1-26.2 0.3-28.6-12.9-15.3-3.7-14.5 5.7-5.2 6.4-10.7 19.5-3.5 14.6z" id="CPV5057" name="Ribeira Brava" data-id="CPV5057" data-name="Ribeira Brava">
 </path>
 <path d="M384.7 277.6l-3.2-4.8-5.2-14.3-2.2-3.3-2.5-2.6-2.1-3.2-0.8-5.3-0.2-4-0.9-2.9-1.9-1.8-3.4-0.7-8.6-2.6-6-6.5-2.2-8.7 2.9-8.8 17.4-5.7 3.4 8.2-3.7 5.1 3.7 5.1 10.4 0.7 6.8 5.7 2.1 12.2-2.1 10.3-2.2 16.3 0.5 11.6z" id="CPV5058" name="Tarrafal de São Nicolau" data-id="CPV5058" data-name="Tarrafal de São Nicolau">
 </path>
 <path d="M294 224.5l-2.1 5.6-5.4-0.6-4.3-1.1-1.1-4.5 4.3-1.1 8.6 1.7z m-57.9-53.2l7 1.6 4.3-2.8 4.3 1.7-0.6 5.1-6.4 2.8-7.5 0.5-6.4 0-3.2-3.3-2.2-4.5-7-2.8-5.3-5.1 0-5.6 5.3-5 9.2 3.4 4.8 5.6 3.7 8.4z m-74.8-62.2l3.3 3.7 1.5 3.6-3 3.2 3.1 3.6 5.3 3.7 5.3 1.6 1.8 2.1 1.8 4.9 1 5.4-0.6 3.7-5.9 4.8-9.1 3.2-10.1 2-9.4 0.6-2.3 0.9-5 4.4-2.7-0.4-23.3-9.1-3.7-2.1-3-2.8-1.8-3.9-4.9 2.4 1.7-8.2 4.3-6.8 5.4-4.7 5-1.7 11.6-0.2 4.7-2.2-2.3-5.3 10.5-5.7 2.1-2.7 2.6 0 2.2 5.5 3.7-0.8 6.5-4.7 3.7 2z" id="CPV5059" name="São Vicente" data-id="CPV5059" data-name="São Vicente">
 </path>
 <path d="M107.5 33.2l16.5 3.1 15.5 10.4-10.6 11.5-10.2 4.1-4.8 5.3-22.3 10.7-10.2 10.6-7.2 9.6-9.3 6.6-16.1 2-14 0-4.3 0.9-3.3 1.4-3.3-0.1-4.5-3.4-1-4.8-0.2-25.8-5-9-1.3-1-6.4-1.3-2.4-1.7-2.1-6.5 1.8-5.5 9.1-10.6 5.3-3.6 5.4-0.7 8.3 0.2 3.7-2.7 9-8.7 20.1 11.3 12.2 8.5 16.9-6.9 14.7-3.9z" id="CPV5060" name="Porto Novo" data-id="CPV5060" data-name="Porto Novo">
 </path>
 <path d="M124.9 21.1l-4.5 2.5-5.9 4.2-7 5.4-14.7 3.9-16.9 6.9-12.2-8.5-20.1-11.3 7.1-3 8.7-5.5 8.6-2.2 22.6-11 5.9-1.5 4.3 1.4 4.3 3 9.4-0.4 5.4 1.5 3.4 2.7 1.5 3 0.1 8.9z" id="CPV5061" name="Ribeira Grande" data-id="CPV5061" data-name="Ribeira Grande">
 </path>
 <path d="M139.5 46.7l-15.5-10.4-16.5-3.1 7-5.4 5.9-4.2 4.5-2.5 2 1.7 8.7 2.4 2 1.3 1.1 2 5.1 4.4 1.4 2.7-0.7 4.2-2.2 3.8-2.8 3.1z" id="CPV5062" name="Paul" data-id="CPV5062" data-name="Paul">
 </path>
 <circle cx="949.6" cy="373.9" id="0">
 </circle>
 <circle cx="153.1" cy="128.9" id="1">
 </circle>
 <circle cx="72.8" cy="19.1" id="2">
 </circle>
</svg>