<?xml version="1.0"?>
<!--
************* Copyright (c) 2017 Pareto Softare, LLC DBA Simplemaps.com *******************		
************* Free for Commercial Use, full terms at  http://simplemaps.com/resources/svg-license ************
************* Attribution is appreciated! http://simplemaps.com ***************************
-->
<svg baseprofile="tiny" fill="#7c7c7c" height="1088" stroke="#ffffff" stroke-linecap="round" stroke-linejoin="round" stroke-width="2" version="1.2" viewbox="0 0 1000 1088" width="1000" xmlns="http://www.w3.org/2000/svg">
 <path d="M868.2 603.5l-2 6.4-10.8-7.6 3.2-2.8 9.6 4z" id="DJI99" name="" data-id="DJI99" data-name="">
 </path>
 <path d="M861.6 795.8l-158.5 249.2-9.3-3.3-6 5.2-6 7.4-8.8 3.2-7.9-1.3-14.7-4.3-24.8-2.5-13.3-3-10.1-8.6-15.1-33.1-11.5-4.4-14.3-0.5-42.3-10.1-4.5 0.3 3-62.9 7.6-16.7 48.2-27.9 75.8-44.7 18.6-15 28.7-52.6 87.3-17.6 18.8 7.6 59.1 35.6z" id="DJI1566" name="Ali Sabieh" data-id="DJI1566" data-name="Ali Sabieh">
 </path>
 <path d="M852.2 714.1l-73.2 13.8-22 0.1-34.4-3.6-32.5-34.7-0.7-1.5 83.5-1.1 12.8-2.6 11.9 0.4 12.9 7.7 11.8-2.8 6.2-8.4 4.6-8.1 6.4-2 3.6 6.4 8.6 35.7 0.5 0.7z" id="DJI1567" name="Djibouti" data-id="DJI1567" data-name="Djibouti">
 </path>
 <path d="M469.3 710.6l0.3 14.6 3.4 12.5 19.7 7.6 11.9 11 7.3 2.9 8.3-1.6 9.5-8.8 6.7-2.1 10.8 4 5.8 1.2 5.4-2.9 3.5-7.8-4.1-4.6-6.1-3.2-3.1-3.4 5.3-10.1 12-8.4 27.3-10.7 40.4-4.8 13-3.4 6.2-4.6 4.8-5.1 4.9-1.8 6.7 5 4.9 2.4 15.3-0.3 0.7 1.5 32.5 34.7 34.4 3.6 22-0.1 73.2-13.8 6.4 9.2 6.8 5.1 18.6 10 8.6 8.5-31 48.9-59.1-35.6-18.8-7.6-87.3 17.6-28.7 52.6-18.6 15-75.8 44.7-123.9-21.9-49-72.6-15.2-48.4-13.5-68.6-2.3-25.6 21.1 26 9.1 7.3 69.7 31.9z" id="DJI1568" name="Arta" data-id="DJI1568" data-name="Arta">
 </path>
 <path d="M369.4 645.4l2.3 25.6 13.5 68.6 15.2 48.4 49 72.6 123.9 21.9-48.2 27.9-7.6 16.7-3 62.9-23 1.8-53.8 16.5-39.7 26.3-12.9 6.1-9-0.5-9.2-3.2-13.6-2.2-19.5 6.7-20.9 0.6-21.4 9.7-8 2-11.4-0.1-30.7-7.1-32.9 3.6-16 5.3-18.6 18.9-16.5 4.2-33.8 1.4-4.1 1.7-5.9 5.3-5.2-0.8-3.5-3-3.6-6.7-70.6-14.4-14.9-5.7-7.5-9.8 10.7-17.4 3.8-26 0.2-13.9 33.7-26.6 19.2-23.1 4.7-21.2-10-12.9-40.1-30.3-7.9-3.6-5.7-51.8-15.5-70.1-0.4-33.3 17.7-55.4 8.2-46.3 9.4-19.4 8.9-6 23.4-10.3 6-7.9 3.3-8.7 5.1-3.6 6.7-2 8.4-4 8.2-6.4 6.6-6.8 22.9-32.6 9.8 1.9 96.9 23.3 24.8 9.9 102.1 103.3z" id="DJI1569" name="Dikhil" data-id="DJI1569" data-name="Dikhil">
 </path>
 <path d="M800.1 532.7l-14.2-14.4-5-7.6-16.9-36.5-6.9-11-123.4-137.6-15.3-4.3-11.7-6-29.7-25.6-7.6-9.5-14-28.8-1.4-4.7 0.8-9.3 4-6.8 8-6.8 1.8-12.2-1.5-9.9 18.9-5.3 8.1-11.8 5.1-5.5 17.9-3.4 7.4-4 3.5-16.5-5.6-19.2-2.1-18.2 26.1-24.7 13.9-33.2 10-8.8 5.3 0.7 7.4 5.9 6.2-0.6 129.9-56.1 9.7 6.6 5.6 10.8 4.7 12.1 6.3 10.4 58.5 67 14.1 22.6 8.5 8.9 9.3 2.6 9.8-6.8 0 21.6 1.1 10.3 3 10.3 4.7 8.4 5.4 6.7 4.4 7.5 1.8 10.8 0.7 23.4 1.9 12.4 3.7 8.5 22.3 31.3 1.8 10.3-1.8 35.6 4.4 46.1-3.2 19.6-8.7 18.2-13 15.1-15.9 10.3-4.7 1.4-16.1 2.8-16.3 8.3-11.9 2.2-25.7 0.6-11.3 3.1-19.5 13.9-45.9 55.3-6.7 3.5z" id="DJI1570" name="Obock" data-id="DJI1570" data-name="Obock">
 </path>
 <path d="M567.1 201.7l1.5 9.9-1.8 12.2-8 6.8-4 6.8-0.8 9.3 1.4 4.7 14 28.8 7.6 9.5 29.7 25.6 11.7 6 15.3 4.3 123.4 137.6 6.9 11 16.9 36.5 5 7.6 14.2 14.4-10 5.2-2.7 4.2-2.3 8.5-3.2 3.6-8.4 3.1-32.7 1.5-8.5 3.2-9 6.3-8.9 4.1-16.2-6-11.4 1.9-55.6 19.9-15.7 9.6-13.8 14.8-41.8 76.7-4 5.3-5.6 3.1-18.6 5.5-5.5 0.3-14.3-2.7-15.8 0.6-5-0.6-3.3-2.3-5.7-8-3.2-2.1-13 0.8-7 5.1-0.1 4.2 7.8-1.8 2.7 13.9-69.7-31.9-9.1-7.3-21.1-26-102.1-103.3-24.8-9.9-96.9-23.3-9.8-1.9 49.4-70.5 24.2-45.2 6.6-7.3 14.1-6.9 4.7-7.6 9.1-22.2 79.6-109.4 18.3-40 36-48.7 30.8-33.3 10.5-1.9 16.2 4.4 27.4 12.3 93.7 83.3 7.9-11.5 2.8-0.8z" id="DJI1571" name="Tadjourah" data-id="DJI1571" data-name="Tadjourah">
 </path>
 <circle cx="686.3" cy="176.3" id="0">
 </circle>
 <circle cx="830.4" cy="697.1" id="1">
 </circle>
 <circle cx="637.8" cy="586.3" id="2">
 </circle>
</svg>