<?xml version="1.0"?>
<!--
************* Copyright (c) 2017 Pareto Softare, LLC DBA Simplemaps.com *******************		
************* Free for Commercial Use, full terms at  http://simplemaps.com/resources/svg-license ************
************* Attribution is appreciated! http://simplemaps.com ***************************
-->
<svg baseprofile="tiny" fill="#7c7c7c" height="1869" stroke="#ffffff" stroke-linecap="round" stroke-linejoin="round" stroke-width="2" version="1.2" viewbox="0 0 1000 1869" width="1000" xmlns="http://www.w3.org/2000/svg">
 <path d="M918.3 537l-22.9 29.3-6.8 16 1.6 6.1 3.1 87.8-1.1 8.4-1.6 0.6-2.6 2.1-15.1 15.5-4.3 3.5-2.4 1.4-2.2 0.7-2 0.3-6.7 0.1-3 1-10.6 9.1-7.1 7.8-3.5 3.1-2.9 1.7-1.4 0-2.8-0.6-1.7-0.1-4.2 0.9-3.2-1.2-1.6-1-19 13.4-78.9 75.2-22.9-58.1-63.5-51.5-24.4-13.5-16.2-7-12.6-1.3-13.2-2.8-15.2-5.2-43.3-19.3-5.2-1.1-4.5 0.9-17.1 8.7-16.8 5.4-24.5 2.6-20-9-15-9.7-53.4-53.4-8.5-37-10.1-84.8-5.4-21.4-27.2-22.6-3.6-25.4 2.4-125.3-3.9-46.8-2-0.8-3.1-4.7-1.2-0.7-2.7-0.9-4.7 0.9-3.9-0.3-2.2-0.3-7.5-3.2-1.6-1.2-1.6-1.6-1.9-3.9-1.1-1.8-15.1-6.1-28-28.1-11.2-19.3-37.1-164.2 49.8 2 47.1 17.9 50.8 38.6 67.3 99.2 53.9 35.8 62-32.8 51.7-10.2 206.7 82.4 7.4 29.4 26.5 66 41.3 70.2 23.2 41.3 64.2 92.9z" id="DMA1432" name="Saint Andrew" data-id="DMA1432" data-name="Saint Andrew">
 </path>
 <path d="M979 1303l-176.2 30.9-15.9 8.3-33.4 29.9 6.4-25.1 0.3-4.7-0.9-8.3-1.9-7.1-3.4-8.7-0.7-3.3-0.2-3 1.7-7.1-13.9-12.8-68-44.6 0.5-182.5-29.7-74.3 71.7-172.5 78.9-75.2 19-13.4 1.6 1 3.2 1.2 4.2-0.9 1.7 0.1 2.8 0.6 1.4 0 2.9-1.7 3.5-3.1 7.1-7.8 10.6-9.1 3-1 6.7-0.1 2-0.3 2.2-0.7 2.4-1.4 4.3-3.5 15.1-15.5 2.6-2.1 1.6-0.6 1.1-8.4-3.1-87.8-1.6-6.1 6.8-16 22.9-29.3 6.1 9.1 39.5 152.2 7 158.4-28.8 121.2 18.9 6.8 17.3 14.5 20.7 8.2-26.1 157.7 6.1 137.9z" id="DMA1433" name="Saint David" data-id="DMA1433" data-name="Saint David">
 </path>
 <path d="M753.5 1372.1l14.9 11 2 2.5-0.7 6.4-51.1 85.6-11.9 11.7-16.7 11.8-38.5 20.3-41.4 33.4-58.1 88.7-69-28.2-0.5-26.3 2.1-18.4-22.9-49.1-52.7-61.5-9.5-51.8-1.6-22.7 48.5 2.9 1.3-0.2 7.4 0.5 2.5-0.2 8-2.2 3.9 0 1.9 0.6 1.7 0.2 6.1-1.5 6.2-5.5 3.8-6.7 9.3-30.5 2.7-6.4 171.7-89.1 68 44.6 13.9 12.8-1.7 7.1 0.2 3 0.7 3.3 3.4 8.7 1.9 7.1 0.9 8.3-0.3 4.7-6.4 25.1z" id="DMA1434" name="Saint George" data-id="DMA1434" data-name="Saint George">
 </path>
 <path d="M166.4 4.3l37.1 164.2 11.2 19.3 28 28.1 15.1 6.1 1.1 1.8 1.9 3.9 1.6 1.6 1.6 1.2 7.5 3.2 2.2 0.3 3.9 0.3 4.7-0.9 2.7 0.9 1.2 0.7 3.1 4.7 2 0.8 3.9 46.8-2.4 125.3 3.6 25.4 27.2 22.6 5.4 21.4 10.1 84.8-231.1-124.4-1.5 0.7-2.7 0.3-3.2-0.2-17.7-3.5-1.9 0.1-21.7-5.7-3.5-0.4-3.8 0.7-2.6 0-9.3-2.3-3.2 1.9-1.7 1.5-13.7 16.4-3.6-3.2-16.9-23.2 0.2-40.5 20.3-28.2 69.6-49.2 21.4-43.3-28.8-5.6-50.5-18.5-32-3 34.4-50.9 48.4-185.3 82.4 3.3z" id="DMA1435" name="Saint John" data-id="DMA1435" data-name="Saint John">
 </path>
 <path d="M715.4 818.1l-71.7 172.5-139.3 65.8-12.9 1.7-18.1-2.6-71.1-17.2-51.3 1.4-46.4 14.9-8.6-68.3-13.1-38-95.7-95.4-15.2-35.9-8-41.2-18.6-43.9-4.5-6.5 67.3-57 25.4-25.8 4.1-7.2 5.9-7.6 28.4-13.7 75.6-10.3 53.4 53.4 15 9.7 20 9 24.5-2.6 16.8-5.4 17.1-8.7 4.5-0.9 5.2 1.1 43.3 19.3 15.2 5.2 13.2 2.8 12.6 1.3 16.2 7 24.4 13.5 63.5 51.5 22.9 58.1z" id="DMA1436" name="Saint Joseph" data-id="DMA1436" data-name="Saint Joseph">
 </path>
 <path d="M552 1643.5l3.9 43.2-71.5 34-0.6 0.2 0.8-5.7-1.6-99.9 69 28.2z" id="DMA1437" name="Saint Luke" data-id="DMA1437" data-name="Saint Luke">
 </path>
 <path d="M594.5 1825.3l-18.1 28.3-50.5 14.4-46.7-13-8.5-34.6 13.1-99.5 0.6-0.2 71.5-34 38.6 138.6z" id="DMA1438" name="Saint Mark" data-id="DMA1438" data-name="Saint Mark">
 </path>
 <path d="M594.5 1825.3l-38.6-138.6-3.9-43.2 58.1-88.7 41.4-33.4 38.5-20.3 16.7-11.8 11.9-11.7 51.1-85.6 0.7-6.4-2-2.5-14.9-11 33.4-29.9 15.9-8.3 176.2-30.9 1.4 34.4-12.2 169.9-85.6 151.7-30 23.3-20.3 5.3-16.3-1.2-42.4 5.6-35.4-8.5-26.2 5-22.6 20.7-21.3 56.2-58.1 25.5-13.6 31.6-1.9 2.8z" id="DMA1439" name="Saint Patrick" data-id="DMA1439" data-name="Saint Patrick">
 </path>
 <path d="M672.9 1247.4l-171.7 89.1-2.7 6.4-9.3 30.5-3.8 6.7-6.2 5.5-6.1 1.5-1.7-0.2-1.9-0.6-3.9 0-8 2.2-2.5 0.2-7.4-0.5-1.3 0.2-48.5-2.9-5.8-84.3-19-78.1-59-127.1-8.1-30.6-1.4-10.8 46.4-14.9 51.3-1.4 71.1 17.2 18.1 2.6 12.9-1.7 139.3-65.8 29.7 74.3-0.5 182.5z" id="DMA1440" name="Saint Paul" data-id="DMA1440" data-name="Saint Paul">
 </path>
 <path d="M339.1 566.8l8.5 37-75.6 10.3-28.4 13.7-5.9 7.6-4.1 7.2-25.4 25.8-67.3 57-19.6-28.3-23-14.1-27.2-22.7-9.1-52.2-3.9-105.1-17.3-33.2-19.3-17.9 13.7-16.4 1.7-1.5 3.2-1.9 9.3 2.3 2.6 0 3.8-0.7 3.5 0.4 21.7 5.7 1.9-0.1 17.7 3.5 3.2 0.2 2.7-0.3 1.5-0.7 231.1 124.4z" id="DMA1441" name="Saint Peter" data-id="DMA1441" data-name="Saint Peter">
 </path>
 <circle cx="510.1" cy="940" id="0">
 </circle>
 <circle cx="926.5" cy="1228.1" id="1">
 </circle>
 <circle cx="371.3" cy="1300.1" id="2">
 </circle>
</svg>