<?xml version="1.0"?>
<!--
************* Copyright (c) 2017 Pareto Softare, LLC DBA Simplemaps.com *******************		
************* Free for Commercial Use, full terms at  http://simplemaps.com/resources/svg-license ************
************* Attribution is appreciated! http://simplemaps.com ***************************
-->
<svg baseprofile="tiny" fill="#7c7c7c" height="688" stroke="#ffffff" stroke-linecap="round" stroke-linejoin="round" stroke-width="2" version="1.2" viewbox="0 0 1000 688" width="1000" xmlns="http://www.w3.org/2000/svg">
 <path d="M396.8 122.1l-1.2 5.8-4 4.6-3.7 6.2-1.6 7.2 0.8 6.5-0.1 6.4-8.2 6.2-14.3 4.7-13.6 7.2-6.7 1.9-2 5.9 6.6 5 8.3 2.3 4.3 7.6-2 9.7 0.8 8.3-7.1-1.4-5.9 0.4-3.3 7.7-14.2 10.8-16.9 8.2-8.9 3.9-7.9 3.9 2 6.1-1.2 6.4-14.1-4.4-6.6 1.4-6.2 3.1-12.3-3.8-12.1-7.8-5.1-4.7-0.9-7.1-2.3-4.3-15.6-7.8-10.2-6 1.4-9.1-0.3-8.7-4.5-4.3-1-6 1.7-17.6 3.8-5.2 4.9-4.2 3.4-3.9 4.1-2.8 5.2 0.6 5.1-0.3 9.8-4.7 10.4-3.5-2.3-2.9-3.6-2.5 0.6-5.7 3.5-4.9 7.6 4.2 7.9 3.3 4 0.9 3.9-0.5 5-6.8 11.2 4.8 11.9 0 1.1-5.1-6.2-4.7 1.9-8.3 0.2-7.9-4-2.5-3.9-1.9-2.2-5.2-0.5-5.8 6.7 4.8 7-1 3.9-8.7 1.8-9.7 8.5 2 7.5 2.2 12.1 10.6 12.2-0.6 1-16.9 14.4 6.5 5.7 13.7 8 13 16.5 5.2z" id="DOM1390" name="Santiago" data-id="DOM1390" data-name="Santiago">
 </path>
 <path d="M224.1 116.7l9.6 16.1 19.9 3.7-3.5 4.9-0.6 5.7 3.6 2.5 2.3 2.9-10.4 3.5-9.8 4.7-5.1 0.3-5.2-0.6-4.1 2.8-3.4 3.9-4.9 4.2-3.8 5.2-1.7 17.6 1 6 4.5 4.3 0.3 8.7-1.4 9.1-14.5-0.2-11.7-5.8-11.9-6.4-12.1-6.1-8.4-11.3-11.3-7.2-4.5-5.1-2.7-6.2 13.2-5.9 3.3-18.3 2.1-6.1-0.6-6.5 3.3-12.2 6.3-10.5 3.6-4.6 4.7 3.5 8.3 3.1 8.8-0.7 5.2-2.8 5.8-0.7 8.5 5 8.5 0.8 4.1-2.9 4.7 1.6z" id="DOM1391" name="Santiago Rodríguez" data-id="DOM1391" data-name="Santiago Rodríguez">
 </path>
 <path d="M310.9 86.4l-1.8 9.7-3.9 8.7-7 1-6.7-4.8 0.5 5.8 2.2 5.2 3.9 1.9 4 2.5-0.2 7.9-1.9 8.3 6.2 4.7-1.1 5.1-11.9 0-11.2-4.8-5 6.8-3.9 0.5-4-0.9-7.9-3.3-7.6-4.2-19.9-3.7-9.6-16.1 3.1-9.9-1.7-10.5 1.7-6.1 6.6 0.7-1.5-19.1 2.4-8.7 3-8.4 9.3 3.3 8.7 4.3 6.1 4.6 7.3 2 11 3.5 9.2 7.3 10.2 5.2 11.4 1.5z" id="DOM1392" name="Valverde" data-id="DOM1392" data-name="Valverde">
 </path>
 <path d="M211.4 222.2l10.2 6 15.6 7.8 2.3 4.3 0.9 7.1 5.1 4.7 12.1 7.8 12.3 3.8 6.2-3.1 6.6-1.4 14.1 4.4 4.5 4.6 2.3 6.2-2.3 6.1-5.7 2.9-1.1 5.5-3.8 3.7-6.7 4.7-3.2 7.2-1.9 14.2-0.1 14.8-2.1 4.8-3.7 3.6-4-1.6-2.3-5-8.8 2.8 1.7 10.8-0.3 3.6-2.8 3.9 1.8 3.2 0.6 3.6-5.1 2.5-4.5 1.7-7.1 10.6-11.9 3.2-9.9-5.5-12.9 3.8-7.4 1.3-7.5-0.8-6.3 2.2-5.8 3.7-13.3-1-12.1-6.2-13.5-2.7-12.7-4.7 3.8-9.2-3.1-8.1-7.3-1.7-5.1-5.4 0-7.1-1.9-6.6-5.5-4.8-6.2-4 3.3-14-4.7-6 2.3-15.5 6.7-14.3 6-5.5 7.7-0.7 8.4-2.5 4.2-9.1 3.2-12.3 5.5-10.3 9.2 1.5 8.5 5.2 10.3-0.6 8.6-6.6 0.5-8.9 1.9-8.6 11.7 5.8 14.5 0.2z" id="DOM1393" name="San Juan" data-id="DOM1393" data-name="San Juan">
 </path>
 <path d="M660.7 372l-3.4 3.7-1.6 4.4 3-0.5 1.2 7.2-0.5 7.2-5.6 7.2-4.3 7.5 10.7 11.5 16 3.3-1.8 9.1-0.9 7.5-14.1-9.8-6-3.2-4-0.4-1.7 2.6 0.6 6.5-0.7 2.6-2.5 0.8-3.8 0-3.5-0.7-1.5-1-4.6-7.8-2.1-2.1-2.1-0.7-41.8-4.6-7.5 0.4 0.4-8.5-7.6-1.2-5.1 1.4-5.1-0.5-6.7-10-7.3 4.1-0.7 8.2 6.1 9-1.6 10.3-6.3 2.6-1-1.8-0.2-6.2-3.4-5.1-6.1-0.3-6.2 0.2-3.1-3.3-0.7-4.9-5.1-6.2-6.6-5-5.1-9.1-2.9-10.2 1.4-7 2.3-6.4-7.3-11.9-0.3-12.8 7.7 2.7 5 9 8.6 3.2 8.9 2.5 12.8 2.5 11.6-5.4 1.9-5.2 3.2-1.1 3.5-0.1 12.5 0.6 7.4 5.8 6.2 7 3.7 5 1.5 5.6 5.7 5.6 2.2 8.1 12.5-13.2 15.8-5.8 5.9-1.3 5.1-3.3 9.3-2 9.7 3.7z" id="DOM1394" name="Santo Domingo" data-id="DOM1394" data-name="Santo Domingo">
 </path>
 <path d="M567 259.8l-4 18.5-4.7 18.6-7.6 5.9-8.8-4.3-5.5-1-3.3 5-10.5-1.9-7.2 1.7-5.2 4.7-11.5 2.8-14 3-7.1-12.3-17.4-12.6-4.2-5.6-0.9-4.3-2.4-3.1-6.9-3.4-1.3-7.7-2.4-6.7-3.1-6.8 7.6-8.9 10.8-5.1 6.6-3.5 6.1-2.3-1.1-1.5-0.1-1.2 4.2-1.4 5.3 1.4 5.7 1 5.5-1 12.1-0.2 11.8 1.4 7.7 0.6 13.2 6.1 6.4 2 8.4 0.1 8.7 0.6 6.8 2.1 5.7 3.7-0.9 7.7-2.5 7.9z" id="DOM1395" name="Sánchez Ramírez" data-id="DOM1395" data-name="Sánchez Ramírez">
 </path>
 <path d="M748 374.3l7.3 4.9 4.5-0.5 4.4 1.3 6.6 7.2 7.7 5.7 8.6-1.2 7.9 0.8-1.4 6.7-2 7.4-4.3 7.2-3.5 7.6 1.8 3.8 3.2 2.8 3.4 8.3 1.7 7.9-5.4-0.9-11.9-4-5.4-0.9-4.7-1.5-7.8-6.7-6-1.6-5.3 1.1-5.3 1.8-5.4 0.4-5.4-3.3-5.7 5.3-35.2 2.7-10.6 3.9-5.5 0.2-0.8-0.6 0.9-7.5 1.8-9.1-16-3.3-10.7-11.5 4.3-7.5 5.6-7.2 0.5-7.2-1.2-7.2-3 0.5 1.6-4.4 3.4-3.7 15.4-27.3 16.1-17 0 10 4.8 9 1.6 11.9 1.9 11.7 12.4 18.9 3.8 9.6 4.1 9.4 7.7-9.2 5.8-7.5 4.4-10.7 9.3-6.5z" id="DOM1396" name="San Pedro de Macorís" data-id="DOM1396" data-name="San Pedro de Macorís">
 </path>
 <path d="M213.9 30.8l1.8 9.8 5.4 8.4 8.5 2.4 8.1 3.3-3 8.4-2.4 8.7 1.5 19.1-6.6-0.7-1.7 6.1 1.7 10.5-3.1 9.9-4.7-1.6-4.1 2.9-8.5-0.8-8.5-5-5.8 0.7-5.2 2.8-8.8 0.7-8.3-3.1-4.7-3.5-3.6 4.6-11.1-5.3-10.4-6.9-4-7.5-6.9-1.9-28.5 3.5-26.4-11.2-3-0.8 0.3-4.6-1-5.1-2.4-7.9 5.2 1.1 4.9 2.5-1.1-5.7-4.8-11.1 0.3-5-7.3-0.4-0.9-3.1 2.9-4.5 4.3-4.7 2.6-1.2 3 0.1 1.9-0.8 4.6-5.1 8-3.1 3.2-2.8-1.9-3.6-0.3-3.3 1.4-2.3 3.5-0.9 2.1 0.4 3.3 1.4 2 0.4 3.8-4 27.9-2.1 7.1 1 7 2.5 25.9 13.6 7.6 1.5 7.2-2.8 5.5 4 3.9 1.8 12 0.4 0.6-0.1z" id="DOM1964" name="Monte Cristi" data-id="DOM1964" data-name="Monte Cristi">
 </path>
 <path d="M444.3 65.5l-2.9 8.2-4.1 7.7-4.5 1.4-4.9 0-4.8 1.3-4.8 0.6-3.4-0.8-3.6-0.1-4.2 3.9-2.1 5.7-2.2 15.3-6 13.4-16.5-5.2-8-13-5.7-13.7-14.4-6.5-1 16.9-12.2 0.6-12.1-10.6-7.5-2.2-8.5-2-11.4-1.5-10.2-5.2-9.2-7.3-11-3.5-7.3-2-6.1-4.6-8.7-4.3-9.3-3.3-8.1-3.3-8.5-2.4-5.4-8.4-1.8-9.8 2.6-0.8 0.9-5.1 1.4-3 3.2-1.3 2.3 2.7 3 7.6 3.7-2.7 1.9-3.5-2.3-0.8-1.4-3 4.2 1.7 3.6-0.2 3.6-1 4.4-0.5 2.8-2.1 5-9.5 3.3-2.2 4.1-1.1 8.8-4.4 4.8-0.6 4.4 1.1 4.2 2.5 2.2 3.6-1.4 4.6 5.3 2.2 2 0-2-6.1 13.1 2.1 3.8-0.4 8.1-1.8 3.1 0.1 3.3 2.3 12 14.3 0.9 2.7-1.4 2.7 10.2 0.1 3.9 1.9 10.4 8.8 9.8 5 10.5 3.7 12.1 1.8 16.4 0.2 2.7-2.8 3.3-2.3 3.7-1.9 2.7-0.8 10.6 3.3 16.6 17.6z" id="DOM1965" name="Puerto Plata" data-id="DOM1965" data-name="Puerto Plata">
 </path>
 <path d="M161.9 114.4l-6.3 10.5-3.3 12.2 0.6 6.5-2.1 6.1-3.3 18.3-13.2 5.9 2.7 6.2 4.5 5.1-4.6 4.8-5.6 3.4-6.4-2.2-6.7-1.8-3.3 4-2 5.3-5.7 2.1-5.5 3.3-4.5 4.3-17.6-8.5-10.1-10.4-4.8-6.8-1.4-5.8 1.8-1.8 7.3-4.2 2.6-2 3.4-8.8 1.5-1.6 3.1-6.7 0.2-12.8-3.2-22.5-7.6-18.1-1.3-6.5 0.5-7.6 3 0.8 26.4 11.2 28.5-3.5 6.9 1.9 4 7.5 10.4 6.9 11.1 5.3z" id="DOM1966" name="Dajabón" data-id="DOM1966" data-name="Dajabón">
 </path>
 <path d="M519.9 87.9l0.2 1.7-5.1 15-13.4 7.8-6.3-0.4-5.8 0.4-1.6 7.4-0.9 8.2-5.8-0.5-6.2-10.2-7.8-6.9-8.2 4.7-5.5 8.2-6.4 4.3-3.2-7.7-4.5-2.2-4.9-1.8-9.1 11.3 0.1 19.2-1 16.2-5.9 16.8-7.6 1.5-5.5-13.8-5.6 1.2-6 2.4-8.6-0.8-6.5-4.9 8.2-6.2 0.1-6.4-0.8-6.5 1.6-7.2 3.7-6.2 4-4.6 1.2-5.8 6-13.4 2.2-15.3 2.1-5.7 4.2-3.9 3.6 0.1 3.4 0.8 4.8-0.6 4.8-1.3 4.9 0 4.5-1.4 4.1-7.7 2.9-8.2 9.9 10.6 4.5 3.2 4.9 2.5 5.6 1.7 12.4 1.3 9.9 3.6 18.3 3.7 4-0.1 2.7-1 3.4-3.1z" id="DOM1967" name="Espaillat" data-id="DOM1967" data-name="Espaillat">
 </path>
 <path d="M481.2 127.5l-3.8 16.6-7.7 6.6-11.4 5.5-5.3 12.2-2.2 13.4-3.8 12.4-0.3 12.2-11.1-0.7-7.5-7.4-5.5-9.1-4-9.8 5.9-16.8 1-16.2-0.1-19.2 9.1-11.3 4.9 1.8 4.5 2.2 3.2 7.7 6.4-4.3 5.5-8.2 8.2-4.7 7.8 6.9 6.2 10.2z" id="DOM1968" name="Hermanas" data-id="DOM1968" data-name="Hermanas">
 </path>
 <path d="M230.3 381.2l12.9 13.1 16.9 5.9 8.5 1.6 7.3 4.8-0.1 5.1-5.8 2.2-5.3-6.9-3.6 7.5-4.3 7-7 5.2-8.3 3-4.4 3.6-3 4.7-9 5.9-4.7 7.5-0.8 9.3-9.8 0.7-7.6-6.3-7-13.2-13-0.8-10.4 4.1-10.5-2.7-9.8-6.1-10.4-4.7-27.9-10.9-7.6-25.1 3-6 1.9-6.4-0.4-3.7 1.3-3.1 8.6-2.8 8.9-2.4 12.7 4.7 13.5 2.7 12.1 6.2 13.3 1 5.8-3.7 6.3-2.2 7.5 0.8 7.4-1.3 12.9-3.8 9.9 5.5z" id="DOM1969" name="Bahoruco" data-id="DOM1969" data-name="Bahoruco">
 </path>
 <path d="M270 413.9l2.8 4.6 0.8 9.2-5.4 7.1-8.4 7.2 2.6 6.6 2.6 2 3.4 1.3 8.8 2.4 7.9 1.9-0.7 4.2 0.9 6.1 2.1 9.2-4 6.8-5-7.7-2.8-2.1-2.9-1.3-11.8-2.6-5.4-0.1-4.2 1.7-2.3 6.8-2.4 4.2-0.6 3.2 0.5 3.6 3.1 3.9 2 3.1 4.4 15.6 1.4 2.6 0.1 3.4-5.3 8.1-4.5 11.5-25.7 37.6-2.3 6.5-1.1 2.3-2.6 1.8-5.4 2.8-3.3 2.8-2.4 2.8-1.8 3.5-1.7 4.7-3.6-1.9-0.2-0.7 0-11.1-4.3-10-8.2-0.4-6.8 1.7-13.4-11.1-5.9-14.6 1.9-2.5 5.6-2.1 1.5-3.1 0.5-5.1-0.6-16.9-8.4-4.8 1.2-7.7 5-5.4 6.8 1.9 6.3-0.8-4.3-15.7-4-16.4 12.1-2.6 13.7 4.7 14.3-3.9 9-12 0.8-9.3 4.7-7.5 9-5.9 3-4.7 4.4-3.6 8.3-3 7-5.2 4.3-7 3.6-7.5 5.3 6.9z" id="DOM1970" name="Barahona" data-id="DOM1970" data-name="Barahona">
 </path>
 <path d="M128.9 371.3l-8.9 2.4-8.6 2.8-1.3 3.1 0.4 3.7-1.9 6.4-3 6 7.6 25.1 27.9 10.9 10.4 4.7 9.8 6.1 10.5 2.7 10.4-4.1 13 0.8 7 13.2 7.6 6.3 9.8-0.7-9 12-14.3 3.9-13.7-4.7-12.1 2.6 4 16.4 4.3 15.7-6.3 0.8-6.8-1.9-5 5.4-1.2 7.7-8.1-6.9-7.7-7.3-9.4-3.8-10-2.5-23.1-11.5-22.4-12.7-0.6-0.2 3.3-5.8-3-3.1-3.9-2.5-14.6-5.6-10.2-6.8-2.2-2.6-4.2-6.1-2.2-2-10.6-2.7-4.1-2.2-1.6-5.3 1-3.2 3.5-2.7-0.7-4.3-2.2-3.1-9.8-10.2-3.4-6.6-3.4-5.4-6.4-4.3-2.2-2.3-0.3-1.5 3.7-2.8 10-2.1 20.4 3.8 10.6-3.6 3.5-3.9 5.6-9.5 3.7-4.2 2.5-1.6 15.1 1.8 18.3 2.9 17.4 1.4 17.1 3.7z" id="DOM1971" name="Independencia" data-id="DOM1971" data-name="Independencia">
 </path>
 <path d="M185.2 216.2l-1.9 8.6-0.5 8.9-8.6 6.6-10.3 0.6-8.5-5.2-9.2-1.5-5.5 10.3-3.2 12.3-4.2 9.1-8.4 2.5-7.7 0.7-6 5.5-6.7 14.3-2.3 15.5 4.7 6-3.3 14 6.2 4 5.5 4.8 1.9 6.6 0 7.1 5.1 5.4 7.3 1.7 3.1 8.1-3.8 9.2-17.1-3.7-17.4-1.4-18.3-2.9-15.1-1.8 7.3-4.5 3.8-3.1 3.3-5.4 1.8-4.8 1.4-5.3 0.4-5.4-2.2-11.3-0.3-11.6-1.5-5.3-2-2.6-6.2-5.7-2.5-3-3.9-8.1-2.4-2-6.4-0.2-6.7 2.3-4.9 0.8-0.8-5 4.7-3.2 13.9-3.8 3.6-2.2 11.7-13.1 8.1-11.4 4.2-3.7 9.2-6.6 3.4-5.1 1.4-4.9 1.2-17.2-3.4-1.7 4.5-4.3 5.5-3.3 5.7-2.1 2-5.3 3.3-4 6.7 1.8 6.4 2.2 5.6-3.4 4.6-4.8 11.3 7.2 8.4 11.3 12.1 6.1 11.9 6.4z" id="DOM1972" name="La Estrelleta" data-id="DOM1972" data-name="La Estrelleta">
 </path>
 <path d="M136.3 685.4l-4.6 1.6-4.5-2.6-0.1-6.1 2.5-7.2 3-5.7 3.9 2.2 3.9 2.8 6.9 6.7-4.2 1.3-6.8 7z m61.5-86.1l-1.1 2.6 0.8 0.9-2.5 4.2-3.9 1.6-1 1.2-1.8 5.7-4.3 6.9-9.2 26.7-2.8 5.3-11.2 15.7-2.7-1.3-2.3-2.2-0.2-1.2-2.6-2.3-18.7-30.9-4.5-4.9-9.2-3.6-21.6 3-9.3-2.3 2.6-2 8.7-9.1 1.8-3.6-0.4-6.1-1.1-4.4-4.2-8.1-2.9-4.5-0.8-5.1 1.9-10.8-2.1-4.9-4.7-5.6-9.9-8.2-15.2-5.8 3.2-8.6 1-5-0.6-8.3 0.2-4.7-0.7-3.2-2.9-8.2-0.4-2.7 0.8-5.6 2.1-5.4 12.1-20.8 0.6 0.2 22.4 12.7 23.1 11.5 10 2.5 9.4 3.8 7.7 7.3 8.1 6.9 8.4 4.8 0.6 16.9-0.5 5.1-1.5 3.1-5.6 2.1-1.9 2.5 5.9 14.6 13.4 11.1 6.8-1.7 8.2 0.4 4.3 10 0 11.1 0.2 0.7z" id="DOM1973" name="Pedernales" data-id="DOM1973" data-name="Pedernales">
 </path>
 <path d="M355.5 363.8l7.8 15.4 5.6 14.5 4 2.5 2.1 4.2 4.7 4.6 6.3 2.2 9 6 8.8 4.5 5.6 9.7 6 11.9 1.8 5.3-2.6 5.2-2.2 7.7 0.7 8.1-9.8 11.3-15.1 2.9-3.6-2.4-1.1-2.6 0.6-2.8 3.5-2.3 1.4-2 1.3-5.8 0.1-6-0.7-5.3-1.5-3.4-6-7.5-3.6-2.6-6.3-2.4-5.3-1.3-6.8-0.5-5.8 1.6-2.4 5 0.9 5.9-0.7 2.4-8.1 8-2.2 1.5-2.9 0.8-3.2-0.1-5.6-1.8-2.5-0.2-2.1 0.8-3.8 2.7-2.5 0.6-3.5-0.5-4.6 4.4-2.8 5.9-5 1.9-7.2 8.6-3.8 2.3-6.5 0.8-2.5-1 4-6.8-2.1-9.2-0.9-6.1 0.7-4.2-7.9-1.9-8.8-2.4-3.4-1.3-2.6-2-2.6-6.6 8.4-7.2 5.4-7.1-0.8-9.2-2.8-4.6 5.8-2.2 0.1-5.1-7.3-4.8-8.5-1.6-16.9-5.9-12.9-13.1 11.9-3.2 7.1-10.6 4.5-1.7 5.1-2.5-0.6-3.6-1.8-3.2 2.8-3.9 0.3-3.6-1.7-10.8 8.8-2.8 2.3 5 4 1.6 3.7-3.6 2.1-4.8 0.1-14.8 1.9-14.2 3.2-7.2 6.7-4.7 3.8-3.7 1.1-5.5 5.7-2.9 2.3-6.1 14.2 9.7 3.1 26.5 11.5 15.8 16.6 8.4 10.3 12.6-3.8 16.4z" id="DOM1974" name="Azua" data-id="DOM1974" data-name="Azua">
 </path>
 <path d="M418.6 179.4l4 9.8 5.5 9.1 7.5 7.4 11.1 0.7 8.8 13.6 13.5 9 1.1 1.5-6.1 2.3-6.6 3.5-10.8 5.1-7.6 8.9-2.1-7.5-6.5-3.8-5.3 1.9-2.9 5.3-13 3.6-5.6 10.5-0.3 19.7-16.2 13.3-2.4 19.9 15.9 18.7-3.9 12.8-7.1 9-5.7 5.3-4.1 4.6-12.1-0.1-12.2 0.3 3.8-16.4-10.3-12.6-16.6-8.4-11.5-15.8-3.1-26.5-14.2-9.7-2.3-6.2-4.5-4.6 1.2-6.4-2-6.1 7.9-3.9 8.9-3.9 16.9-8.2 14.2-10.8 3.3-7.7 5.9-0.4 7.1 1.4-0.8-8.3 2-9.7-4.3-7.6-8.3-2.3-6.6-5 2-5.9 6.7-1.9 13.6-7.2 14.3-4.7 6.5 4.9 8.6 0.8 6-2.4 5.6-1.2 5.5 13.8 7.6-1.5z" id="DOM1975" name="La Vega" data-id="DOM1975" data-name="La Vega">
 </path>
 <path d="M439 250.3l3.1 6.8 2.4 6.7 1.3 7.7 6.9 3.4 2.4 3.1 0.9 4.3 4.2 5.6 17.4 12.6 7.1 12.3-5.6 6.2-1.8 9-9.3 4.5-3.9 8.1-3.6 11-10.1-0.2-6.9-4.9-7.3-2.9-6.5 2.3-6.8 0.8-10.9-8.1-11.4-6.7-15.9-18.7 2.4-19.9 16.2-13.3 0.3-19.7 5.6-10.5 13-3.6 2.9-5.3 5.3-1.9 6.5 3.8 2.1 7.5z" id="DOM1976" name="Monseñor Nouel" data-id="DOM1976" data-name="Monseñor Nouel">
 </path>
 <path d="M496.5 490.5l-5.9 0.2-5.1 0.8-3.4 1.9-4.7-2.9-5.1-1.1-34.8 0.1-5.8 1.9-11.2 6.3-6.3 1.4-18.8 0-4.4-1.8-0.3-2.4 4.5-3.6 1.2-1.8-0.8-3.1-3.7-2.8-2.1-2.8-1.6-1 15.1-2.9 9.8-11.3-0.7-8.1 2.2-7.7 2.6-5.2-1.8-5.3 7.3-10.9 13.3-3.9 6.8-4.7 5.9-6.4 13.1 5.8 10.7 10.4 8.6 4-0.5 6.9-7 4.1-1.4 7.4 5 6.4 5.5 6.4 3.9 7.3 7 6.5 1.2 6.4 1.7 5.5z" id="DOM1977" name="Peravia" data-id="DOM1977" data-name="Peravia">
 </path>
 <path d="M450.4 351.4l-5.1 11.6-0.9 12.4 1.2 10.1-3 10.1 2 9.3 4.1 8.5-5.9 6.4-6.8 4.7-13.3 3.9-7.3 10.9-6-11.9-5.6-9.7-8.8-4.5-9-6-6.3-2.2-4.7-4.6-2.1-4.2-4-2.5-5.6-14.5-7.8-15.4 12.2-0.3 12.1 0.1 4.1-4.6 5.7-5.3 7.1-9 3.9-12.8 11.4 6.7 10.9 8.1 6.8-0.8 6.5-2.3 7.3 2.9 6.9 4.9z" id="DOM1978" name="San José de Ocoa" data-id="DOM1978" data-name="San José de Ocoa">
 </path>
 <path d="M487 128l9.7 5.9 9.2 6.3 3.2 9.1 0.8 9.9 3.3 12.1 9.4 6.9 8.3 1.1 3.7 6.7 13.2 11.2 18.6 4.7 18.3 8.6 18.8 3.7 13.2-6.4 16.4 3.9 0 7.8-11.4 7.7-3.7 4.6-1 9-5.3 5.1-17.8-0.7-14.5 1.7-1 7.7-4.1 5.5-7.3-0.3 2.5-7.9 0.9-7.7-5.7-3.7-6.8-2.1-8.7-0.6-8.4-0.1-6.4-2-13.2-6.1-7.7-0.6-11.8-1.4-12.1 0.2-5.5 1-5.7-1-5.3-1.4-4.2 1.4 0.1 1.2-13.5-9-8.8-13.6 0.3-12.2 3.8-12.4 2.2-13.4 5.3-12.2 11.4-5.5 7.7-6.6 3.8-16.6 5.8 0.5z" id="DOM1979" name="Duarte" data-id="DOM1979" data-name="Duarte">
 </path>
 <path d="M759.3 265l-1.4 16.9 7.5 13.5-22.4-5.3-15.4 2.8 9.8 19.9 15.5 16.3 4.2 11.5-1.1 12.2-4.7 10.9-3.3 10.6-9.3 6.5-4.4 10.7-5.8 7.5-7.7 9.2-4.1-9.4-3.8-9.6-12.4-18.9-1.9-11.7-1.6-11.9-4.8-9 0-10 4.8-6.7 5.7-5.9 5.6-3.4 5.1-3.6-5-5.1-9.8-1.3-13.3-7.3-13.6-6.8-15.5-7.8-12.5-11.3 3.6-8.2 1.6-8.7-0.8-7.7 0.2-2.1 3.4 2.4 14.9-2.3 5.2 1.9 6.5-2 12.7 4.9 6.8-0.7-3.9-2.8-5.6-1.3 0-2 14.5-0.8 4.2 0.8 4.9 3.6 3.7 8.8 4.6 3.5 4.6 1.2 9.3 1.2 25.2 6.8z" id="DOM1980" name="Hato Mayor" data-id="DOM1980" data-name="Hato Mayor">
 </path>
 <path d="M611.7 245.9l15.5 11.8 8.6 4.9 7.9 5.9 12.5 11.3 15.5 7.8 13.6 6.8 13.3 7.3 9.8 1.3 5 5.1-5.1 3.6-5.6 3.4-5.7 5.9-4.8 6.7-16.1 17-15.4 27.3-9.7-3.7-9.3 2-5.1 3.3-5.9 1.3-15.8 5.8-12.5 13.2-2.2-8.1-5.7-5.6-1.5-5.6-3.7-5-6.2-7-7.4-5.8-12.5-0.6-3.5 0.1-3.2 1.1-1.9 5.2-11.6 5.4-12.8-2.5-8.9-2.5-8.6-3.2-5-9-7.7-2.7-6.5-4.9-7-4-4.8-5.5-4.4-5.7 1.8-9 5.6-6.2 14-3 11.5-2.8 5.2-4.7 7.2-1.7 10.5 1.9 3.3-5 5.5 1 8.8 4.3 7.6-5.9 4.7-18.6 4-18.5 7.3 0.3 4.1-5.5 1-7.7 14.5-1.7 17.8 0.7z" id="DOM1981" name="Monte Plata" data-id="DOM1981" data-name="Monte Plata">
 </path>
 <path d="M607.4 183.9l-0.6 1.5-0.9 7.7-2.6 7.2-1.7 7.1 1.9 6.8-18.8-3.7-18.3-8.6-18.6-4.7-13.2-11.2-3.7-6.7-8.3-1.1-9.4-6.9-3.3-12.1-0.8-9.9-3.2-9.1-9.2-6.3-9.7-5.9 0.9-8.2 1.6-7.4 5.8-0.4 6.3 0.4 13.4-7.8 5.1-15-0.2-1.7 9-9.7 5.1-2.4 15 0.3 7.4-0.8 3.3 0.5 4.2 2.4 9.2 9.9 2.9 6.7-0.1 7.3-4.5 15.8 5.5 2.3 2 5.1-0.1 13.2 0.7 5.7 1.7 4.6 18.1 27.1 8.1 8z" id="DOM1982" name="María Trinidad Sánchez" data-id="DOM1982" data-name="María Trinidad Sánchez">
 </path>
 <path d="M648.3 241.8l-0.2 2.1 0.8 7.7-1.6 8.7-3.6 8.2-7.9-5.9-8.6-4.9-15.5-11.8 5.3-5.1 1-9 3.7-4.6 11.4-7.7 0-7.8-16.4-3.9-13.2 6.4-1.9-6.8 1.7-7.1 2.6-7.2 0.9-7.7 0.6-1.5 1.1 1 9.2 3.8 5.5-0.9 10.6-4.1 5.4-0.9 12.2-0.5 5.4-1.2 5.6-2.2 8-5.4 3.1-0.7 2.8 0.6 5.8 2.9 3.5 0.6 6.6-1.7 2.9-0.3 3 0.5 1.1 0.8 1.3 3.1 4.8-2.4 15.8 6.5 4.6 3.3 3.1-6.2 5-4.6 12.3-6.9 7.9-2.4 1.9 3.3-2.1 6.9-4 8.1 5.4 2 6.1 0 6-1.5 4.9-2.6 1.6 6.3-3.5 5-4.9 4.5-2.4 4.9-1.2 5.2-3.2 4.7-4.7 3.5-5.9 1.4-21.3-3.9-23.4 1.8-5.5-1.6-10-5-34.6-4.3-3.9 1-1.5 3.9-0.9 13.7-2 11.6 0.8 4.4 2.6 1.9z" id="DOM1983" name="Samaná" data-id="DOM1983" data-name="Samaná">
 </path>
 <path d="M500 348.1l0.3 12.8 7.3 11.9-2.3 6.4-1.4 7 2.9 10.2 5.1 9.1 6.6 5 5.1 6.2 0.7 4.9 3.1 3.3 6.2-0.2 6.1 0.3 3.4 5.1 0.2 6.2 1 1.8-3.4 1.7-6 5.4-4.6 7.2-1.8 8.6-1.5 2.4-6.2 3.3-1.4 2.1-1.1 3.1-9.2 8.6-6.6 7.6-3.7 3.2-2.3-0.8-1.7-5.5-1.2-6.4-7-6.5-3.9-7.3-5.5-6.4-5-6.4 1.4-7.4 7-4.1 0.5-6.9-8.6-4-10.7-10.4-13.1-5.8-4.1-8.5-2-9.3 3-10.1-1.2-10.1 0.9-12.4 5.1-11.6 10.1 0.2 3.6-11 3.9-8.1 9.3-4.5 4.4 5.7 4.8 5.5 7 4 6.5 4.9z" id="DOM1984" name="San Cristóbal" data-id="DOM1984" data-name="San Cristóbal">
 </path>
 <path d="M578.2 422.7l-5.6 1.4-8.5 4.1-7 4.8-6.5 2.5 1.6-10.3-6.1-9 0.7-8.2 7.3-4.1 6.7 10 5.1 0.5 5.1-1.4 7.6 1.2-0.4 8.5z" id="DOM1985" name="Distrito Nacional" data-id="DOM1985" data-name="Distrito Nacional">
 </path>
 <path d="M875.1 276.9l-5.1 6.6-7.7 6 0.2 3.9-1.6 3.2-2.1 12 7.4 14.1-5.6 16.3-13.9 11-7.3 1.2-6 3.6-1.1 6.2 2.1 6-11.9 4.6-6.8 13.3-10.4 13.2-13.7 8.5 2-7.4 1.4-6.7-7.9-0.8-8.6 1.2-7.7-5.7-6.6-7.2-4.4-1.3-4.5 0.5-7.3-4.9 3.3-10.6 4.7-10.9 1.1-12.2-4.2-11.5-15.5-16.3-9.8-19.9 15.4-2.8 22.4 5.3-7.5-13.5 1.4-16.9 10.5 2.9 4.3-0.3 5.1-2.9-1.7-2.1-3.4-2.1 0-2.8 4.8-1.3 4.3 3.8 5.7 9.3 3.7 2.2 4.1 1.2 3.5 1.6 1.8 3 3.3-2.6 6.6-3.1 3.1-2.3-2.1-2.3 5.8-1.4 3.7-4.2 10.8 0.5 5.7 1.1 5.1 1.9 4.5 2.5 0.8 2.9 1.1 1 6 1.8 9.7 2.1 6.1 0.2 2.9 1.3z" id="DOM1986" name="El Seybo" data-id="DOM1986" data-name="El Seybo">
 </path>
 <path d="M895.3 507.3l12.7 1.7 14-0.4 3.7 1.3 2.7 3.7 3.1 5.6 1.9 5.2-0.4 2.2-4.1-0.9-8.8-4-4.5-0.9-4.9 0.5-8.4 2.7-4.6 0.7-9.5-2.6-6.8-6.2-4.4-7.6-2.4-7.1 4-1.2 4.8 0.9 4.7 2.4 4.1 2.9 3.1 1.1z m-51.7-65.3l4.9-11.6 4.8-13 3.7-8.3-0.3-8.9-5.7-7.2-6.9-6.2-5.2-9.5-4.5-10.3-2.1-6 1.1-6.2 6-3.6 7.3-1.2 13.9-11 5.6-16.3-7.4-14.1 2.1-12 1.6-3.2-0.2-3.9 7.7-6 5.1-6.6 4.7 2.9 4.8 0.4 2.8 1.1 31.6 29.4 11.6 14.2 16.3 12.5 11.8 8.2 5 2.7 12.3 11.8 15.5 9.5 7.5 11.5-1.5 11.2-25.5 39-3.6 3.5-0.8 2.7 0.5 9.9-0.5 2.9-3.1 4.8-4.5 2.3-5.6 0.7-6.4 0-5-1.7-10.7-7.1-3.9-1.1-4.5 3 0.7 4.6 1.4 5.4-2.3 5.6-3.3 4.5-2.1 5.1-4.2 16.7-1.5 2.9-3.1 1.2-23 1.8-4.6-1.7-0.7-10.5-6.6-13.8-9-13.5-8-9.2-8.5-5.9-5.5-2.4z" id="DOM1987" name="La Altagracia" data-id="DOM1987" data-name="La Altagracia">
 </path>
 <path d="M843.6 442l-5.8-2.4-11.3-1.7-13.1 5.4-19.5 0.9-1.7-7.9-3.4-8.3-3.2-2.8-1.8-3.8 3.5-7.6 4.3-7.2 13.7-8.5 10.4-13.2 6.8-13.3 11.9-4.6 4.5 10.3 5.2 9.5 6.9 6.2 5.7 7.2 0.3 8.9-3.7 8.3-4.8 13-4.9 11.6z" id="DOM1988" name="La Romana" data-id="DOM1988" data-name="La Romana">
 </path>
 <circle cx="174.5" cy="390.6" id="0">
 </circle>
 <circle cx="805.2" cy="285.6" id="1">
 </circle>
 <circle cx="451.4" cy="282.9" id="2">
 </circle>
</svg>