<?xml version="1.0"?>
<!--
************* Copyright (c) 2017 Pareto Softare, LLC DBA Simplemaps.com *******************		
************* Free for Commercial Use, full terms at  http://simplemaps.com/resources/svg-license ************
************* Attribution is appreciated! http://simplemaps.com ***************************
-->
<svg baseprofile="tiny" fill="#7c7c7c" height="400" stroke="#ffffff" stroke-linecap="round" stroke-linejoin="round" stroke-width="2" version="1.2" viewbox="0 0 1000 400" width="1000" xmlns="http://www.w3.org/2000/svg">
 <path d="M801.5 252.8l-0.4 1.8 0.1 0.6 0.2 0.6 0.5 0.4 0.5 0.3 0.4-0.1 0.3-0.3 0.1-0.7 0.2-0.6 0.4-0.6 0.6-0.6 0.6-0.3 0.5-0.2 0.6 0.1 0.3 0.1 1.9 1.4 0.4 0.4 0.4 1.1 0 0.5-0.3 0.5-0.6 0.5-6.6 3.4-0.6 0.5-0.5 0.7-1.9 3.4-0.1 0.4 0.2 0.4 0.4 0.5 0.5 0.6 0.4 0.6 0.2 0.6 0 0.5-0.3 0.9-2.8 4.6-0.4 1-0.2 0.6-1.4 3-0.2 1 0 0.9 0.1 0.9-0.2 1.1-0.6 1-1.6 1.7-1.4 1.2-2.1 1.1-2.2 0.7-1.2 1.2-7.3 5.9-0.3 0.6-0.1 0.4 0.3 1.1-1.2 1.1-3.3 1.8-1.1 0.8-0.8 0.8-0.5 0.8-0.3 0.6-0.1 0.5 0.1 0.5 0.3 0.9 0.3 0.3 0.2 0.4 0 0.5-0.4 1.2-0.1 0.6-0.1 0.7 0.4 2.1-0.7 3.5-0.2 0.6-0.3 0.4-0.9 0.4-1 0.1-1.1-1.4-0.2-1.9 0-1.4-0.4-1.1-1.8-2.9-0.6-1.3-0.5-1.2-0.3-0.3-0.5 0.1-1.7 0.8-0.9 0.2-1.2 0-1.5-0.7-0.7-0.7-0.3-0.8-0.2-1.3 0.1-1.1 0-0.7-0.4-0.9-0.6-0.6-0.7-0.4-0.8 0-1.7 0.1-2 0-1.6-0.2-1.5-0.6-2-0.8-1-0.1-0.8-0.1-2.2 0.3-3.4 0.8-2.1-0.1-0.7-0.2-0.3-0.3 0.1-0.5 0.2-0.3 1.2-0.5 0.6-0.4 0.3-0.6 0.3-1.2 1.4-2.6 0.2-0.8 0.1-0.9-0.1-0.9-0.3-0.8-2.3-1.9-7.2-3.8 0-1.2 0.2-0.5 0.4-0.8 3.3-4 0-0.4-0.1-1.7-0.4-1.6-0.1-1.2 0.3-1.5 0.5-1.4 13-13.6 1-0.7 0.5-0.4 1.3-1.4 0.4-0.6 0.1-0.7-0.5-0.7-0.7-1.5 2 0.1 0.9 0.6 0.7 0.7 1 2.4 0.6 0.6 0.8 0.2 1.5 0.2 1 0.6 0.5 0.6 0.6 1.3 0.5 0.7 5.3 5.5 0.8 0.5 0.7 0.2 0.6-0.4 0.2-0.4 0.1-1.1 0.3-0.4 0.5-0.3 1.2-0.5 0.5-0.4 0.3-0.4 0.4-0.8 0.3-0.3 0.4-0.1 0.7 0.3 0.7 0.5 0.9 0.8 0.8 0.8 1.7 2.2 1.1 0.8 1.3 1.3 0.4 0.6 0.2 0.6 0.3 1.5 0.3 0.6 0.9 0.3 2.2 0.2 0.9 0 1.2-0.2 0.4-0.1 1 0.2 0.2-0.1 0.1-0.4-0.1-0.9 0-0.5 0.3-0.5 1.1-1.4 0.2-0.3 0.1-0.5 0-0.4-0.2-0.6-0.2-0.7 0.2-0.5 0.4-0.6 0.5-0.5 0.6-0.3 0.8 0.1 1.1 0.2 0.5 0 0.6-0.3 0.8-0.6 1.1-1 0.6-0.4 1.4-0.3 0.7-0.2 0.9-0.7 0.3-0.8 0.1-0.7 0.3-0.6 0.6-0.6 2.2-1.5 0.9 0z" id="ECU1266" name="Azuay" data-id="ECU1266" data-name="Azuay">
 </path>
 <path d="M729.5 282.8l7.2 3.8 2.3 1.9 0.3 0.8 0.1 0.9-0.1 0.9-0.2 0.8-1.4 2.6-0.3 1.2-0.3 0.6-0.6 0.4-1.2 0.5-0.2 0.3-0.1 0.5 0.3 0.3 0.7 0.2 2.1 0.1 3.4-0.8 2.2-0.3 0.8 0.1 1 0.1 2 0.8-0.4 3.1 0.1 1.1 0.3 1 0.3 0.5 0.3 0.3 0.9 0.3 0.3 0.2 0.2 0.4 0 0.3-0.2 0.7-2.1 2.4-0.3 0.6-0.3 0.7 0 1.4 0 0.8-0.8 2.7-0.1 0.8 0.1 0.6 0.3 0.4 0.3-0.2 0.5-0.3 0.7-0.8 0.7-0.9 0.4-0.3 0.5-0.2 0.7 0.1 0.4 0.3 0.7 0.7 0.7 0.4 0.4 0.3 0.4 0.5 0.3 0.7 0.1 0.8-0.1 0.9-0.3 0.9-0.3 0.6-0.3 0.4-0.9 0.9-0.3 0.4 0 0.4 0.4 1.6 0 0.6-0.2 0.5-0.5 0.7-0.4 0.4-0.8 0.5-1.1 0.2-1.1 0-0.7-0.2-1.1-0.4-0.8-0.2-2 0.4-1-0.2-0.7-0.3-1-0.9-0.3-0.4-0.5-0.8-0.3-0.1-0.5 0-0.6 0.4-0.8 0.3-1.8 1-0.7 0.6-1.5 1.8-0.9 0.4-1.2 0.3-3.9 0.2-1-0.1-1.2-0.4-0.9-0.2-1.1 0-3.4 0.3-1.2 0.3-3.5 1.7-3.8 0.8-4.3 0.2-0.9 0.1-0.4-0.5-0.5-0.3-0.5-0.6-0.2-0.5 0-1.1 0-0.6-0.6-1.2-1.2-1.9-0.2-1.2 0.1-0.4 0.4-0.9 0-0.6-0.4-1.1-0.1-1.1 0.1-0.5 0.4-1.2 0.1-0.6-0.1-0.6-0.3-1.2 0-0.6-0.2-0.6-1.1-0.4-0.4-0.4 0.1-0.5 0.4-1.6 0.1-1.1 0-0.6-0.1-0.6-0.4-0.4-1-0.4-0.3-0.3-0.2-1.3 0.4-1.2 0.1-1.1-0.8-0.6-2.3-0.6-1.3-0.7-0.2-0.9 0.1-0.6 0.8-0.5 0.4-0.7 0.3-0.8 0.6-0.9-0.6 1.7-0.2 0.4 0.3 1.2 0.7-0.5 0.4-1.9 0.6-0.9 1.6 1.7 0.8-0.4 4.3-0.9 1.7 0.3 0.6-0.3 1.3-1.6 0.3-0.2 2.2-4.7 0.7-0.8 1.3 0.2 0.3 1.4-0.5 2.9 0.7-0.4 0.4-0.6 0.3-0.6 0.5-0.7 0.5-0.4 1.9-1.2 0.9-1 0.6-1.3 0.3-1.3 0.3-2.3 0.9-2.2 1.3-2 0.5 0.1 4.5 0.2 0.6 0.1 2.5 0.8z" id="ECU1267" name="El Oro" data-id="ECU1267" data-name="El Oro">
 </path>
 <path d="M768.6 316.8l-1.2 1.5-0.4 0.2-0.9 0.8-0.2 0.4 0 0.8 0 0.4-0.3 0.4-0.6 0.3-1.3 0-0.3 0.2-0.2 0.7 0.2 1 0.6 1.1 0.8 2 0.6 0.9 1.2 1.3 0.7 1.2 0.1 0.6 0.2 1-0.1 0.6-0.2 0.6-0.6 1.3-0.3 1.3-0.2 1.9 0.1 1.4 0.3 1.8-0.1 0.9-0.9 3.3-0.1 1.3 0 0.9 0.3 0.7 0.6 0.5 0.6 0.3 0.5 0.4 0.2 0.3 0.7 0.8 0.2 1 0 1-0.1 0.8 0.2 1.5-0.5 3.4 0.1 0.7 0.1 1.5-0.1 1.2-0.4 1.9-0.4 0.9-0.8 0.7-0.8 1.2-0.5 0.9-0.4 0.4-0.5 0.2-1 0.3-0.3 0.2-0.3 0.6-0.4 0.3-0.6 0-0.5-0.4-0.6-0.5-0.5-0.2-0.8-0.1-0.7-0.3-0.6-0.1-0.4 0-0.5 0.4-0.3 0.7-0.4 0.4-0.9 0.7-0.3 1.8 0.1 0.6 0.2 1.1-0.1 0.7-0.3 0.8-0.3 0.7-1.9 2.6-0.7 0.9-2 3.2-2.6 2.7-0.5 0.3 0-0.1-1.6-2.9-0.7-3.6-1.7-2.5 0-1.3 1.4-2.4 0.1-0.9-0.3-0.6-1.2-0.7-1.4 0-0.4-0.2-0.8-0.6-0.5-0.2-3-3-1.7-0.8-2.1 0.3-2.1 1.2-3.9 1.2-2.3-0.3-1.4-1.6-1.3-1.8-1.5-1.4-1.5-0.4-1.6 0-1.5-0.2-1.6-0.9-1.2-0.8-2-2.2-1-0.9-1-0.3-1.3-0.3-0.9-0.3-0.4-0.6-0.2 0-2.4 0.4-0.7 0.2-0.6 0.3-0.5 0.4-0.5 0.8-0.6 2.1-0.4 1-1 1-4.5 3.5-2.5 1.3-0.6 0.5-1.5 0.1-1-0.4-2.6-1.5-0.8-0.7-0.6-1.3 0.3-1 7.8-10.5 0.7-1.3-2.8 0.4-2.5 0.7-2.1-0.2-1.3-2.6 0-0.6 0.3-1.1-0.1-0.6-0.3-0.8-1-1.3-0.3-0.7 0.2-1.2 0.5-1.5 0.7-1.4 0.6-1 0.9-0.6 1.1-0.4 1.2 0 1.2 0 1.2 0.4 2.5 1.4 1.2 0.2 1.2-0.6 1-1.3 0.9-1.3 0.8-1.1 4.6-2.1 1-1.1 0-0.5 0.9-0.1 4.3-0.2 3.8-0.8 3.5-1.7 1.2-0.3 3.4-0.3 1.1 0 0.9 0.2 1.2 0.4 1 0.1 3.9-0.2 1.2-0.3 0.9-0.4 1.5-1.8 0.7-0.6 1.8-1 0.8-0.3 0.6-0.4 0.5 0 0.3 0.1 0.5 0.8 0.3 0.4 1 0.9 0.7 0.3 1 0.2 2-0.4 0.8 0.2 1.1 0.4 0.7 0.2 1.1 0 1.1-0.2 0.8-0.5 0.4-0.4 0.5-0.7 0.2-0.5 0-0.6-0.4-1.6 0-0.4 0.3-0.4 0.9-0.9 0.3-0.4 0.3-0.6 0.3-0.9 0.1-0.9-0.1-0.8-0.3-0.7-0.4-0.5-0.4-0.3-0.7-0.4-0.7-0.7-0.4-0.3-0.7-0.1-0.5 0.2-0.4 0.3-0.7 0.9-0.7 0.8-0.5 0.3-0.3 0.2-0.3-0.4-0.1-0.6 0.1-0.8 0.8-2.7 0-0.8 0-1.4 0.3-0.7 0.3-0.6 2.1-2.4 0.2-0.7 0-0.3-0.2-0.4-0.3-0.2-0.9-0.3-0.3-0.3-0.3-0.5-0.3-1-0.1-1.1 0.4-3.1 1.5 0.6 1.6 0.2 2 0 1.7-0.1 0.8 0 0.7 0.4 0.6 0.6 0.4 0.9 0 0.7-0.1 1.1 0.2 1.3 0.3 0.8 0.7 0.7 1.5 0.7 1.2 0 0.9-0.2 1.7-0.8 0.5-0.1 0.3 0.3 0.5 1.2 0.6 1.3 1.8 2.9 0.4 1.1 0 1.4 0.2 1.9 1.1 1.4z" id="ECU1268" name="Loja" data-id="ECU1268" data-name="Loja">
 </path>
 <path d="M811.8 310.5l-0.1 0.2-1.1 2.4-0.4 1.3-0.1 1.1 0 2.2 0.2 1.2 0 0.6-0.4 0.3-1.1 0.2 0 1.1 0.7 3.9-0.3 1.1-1.5 1.4-0.4 0.3-0.8 0.4-0.3 0.2-0.6 1.2-0.5 1.1-0.6 4.5 0 0.4-0.2 0.2-0.8 0.5-0.8 0.2-0.7 0.1-0.7 0.1-0.6 0.7-0.3 0.9 0.1 3.6-0.7 2.6-3.6 7.7-0.5 2.6-0.6 1.1-1.1 0.9-0.4 1.3 0 2.2 0.5 2.3 0.7 1.1 1.4 0.9-0.1 0.9-0.9 1.2-0.9 1.3-0.1 1.1 0 1.2-0.1 1.2-0.5 0.9-2.3 1.5-5.4 2.2-2.5 1.4-2.7 2.5-1.1 1.6-0.7 1.6 0.1 1.7 1.3 2.6 0.3 1.5-0.6 1.2-1.4 0.3-1.6 0-1.2 0.3-0.6 1-0.7 2.9-0.4 1.2-1.5 1.7-1.7 1.4-1.1-1.1-0.7-0.5-0.6-0.3-0.6 0-1 0.2-0.6 0-1-0.2-2-0.7-1.1-0.2-4.2 0.2-1.4-0.4-0.8-1-0.6-1.3-0.8-1.1-0.5-0.4-1.2-0.4-0.5-0.4-0.3-0.5-0.4-1.2-0.3-0.5-1.1-0.8-1.2-0.6-1-0.8-0.4-1.3-0.2-1.1 0.5-0.3 2.6-2.7 2-3.2 0.7-0.9 1.9-2.6 0.3-0.7 0.3-0.8 0.1-0.7-0.2-1.1-0.1-0.6 0.3-1.8 0.9-0.7 0.4-0.4 0.3-0.7 0.5-0.4 0.4 0 0.6 0.1 0.7 0.3 0.8 0.1 0.5 0.2 0.6 0.5 0.5 0.4 0.6 0 0.4-0.3 0.3-0.6 0.3-0.2 1-0.3 0.5-0.2 0.4-0.4 0.5-0.9 0.8-1.2 0.8-0.7 0.4-0.9 0.4-1.9 0.1-1.2-0.1-1.5-0.1-0.7 0.5-3.4-0.2-1.5 0.1-0.8 0-1-0.2-1-0.7-0.8-0.2-0.3-0.5-0.4-0.6-0.3-0.6-0.5-0.3-0.7 0-0.9 0.1-1.3 0.9-3.3 0.1-0.9-0.3-1.8-0.1-1.4 0.2-1.9 0.3-1.3 0.6-1.3 0.2-0.6 0.1-0.6-0.2-1-0.1-0.6-0.7-1.2-1.2-1.3-0.6-0.9-0.8-2-0.6-1.1-0.2-1 0.2-0.7 0.3-0.2 1.3 0 0.6-0.3 0.3-0.4 0-0.4 0-0.8 0.2-0.4 0.9-0.8 0.4-0.2 1.2-1.5 1-0.1 0.9-0.4 0.3-0.4 0.2-0.6 0.7-3.5-0.4-2.1 0.1-0.7 0.1-0.6 0.4-1.2 0-0.5-0.2-0.4-0.3-0.3-0.3-0.9-0.1-0.5 0.1-0.5 0.3-0.6 0.5-0.8 0.8-0.8 1.1-0.8 3.3-1.8 1.2-1.1 4.9 3.5 0.4 0.4 0.2 0.5 0 0.3-0.1 0.4-1.3 1.2-0.2 0.4 0 0.8 0.2 0.8 0.1 1.1 0.3 1 0.5 0.7 0.5 0.4 0.2 0.4 0.2 0.8 0.4 0.3 0.6 0.3 1.7 0.3 2.5 0.7 2 0.2 0.6 0.2 1 0.5 0.4 0.1 0.4-0.3 0.3-0.4 0.6-1.1 0.5-0.5 0.6-0.1 0.7-0.1 2.3 0.2 1.2 0 4.3-0.8 7.5 0.1z" id="ECU1269" name="Zamora Chinchipe" data-id="ECU1269" data-name="Zamora Chinchipe">
 </path>
 <path d="M140.7 180l1.6 0.5 1.2 1.3 0.1 1.2-1.8 0.6-1.9-0.2-4.8-2.2 1.2-1.2 0.9 0.2 2.8-0.1 0.7-0.1z m-48.2-7.4l0.6 0.9 1.2-0.3 1.6 0.3 1.5 0.6 0.7 0.9 0.6 0.5 0.1 0.4 0 0.4-0.5 0.8-1.1 0.4-0.1 0.3 0.1 0.7 0 0.2-0.3 0.4-2 1.2-0.4 0.1-2.1-0.3-0.9-0.6-0.8-0.8-1.2-0.8 0.5-0.6 0.5-0.8 0.4-0.8 0.4-1.8 0.6-1 0.6-0.3z m69.3-31.6l0.7 0.4 0.8 0 0.7-0.3 0.8-0.4 0.1 2.3-1.1 2.4-1.7 2.2-1.8 1.4-2.1 0.6-0.3 0.3-0.1 0.6-0.7 1.7-1.2 1.9-0.8 0.8-0.9 0.6-0.9 0.3-0.9 0.1-2 0-0.7 0.2-1.2 0.8-0.8 0.2-0.6-0.2-1.3-0.8-0.5-0.2-2.2-0.3-0.5-0.3-0.1-0.6 0.4-0.6 0.7-0.9 0.5-0.5 2.4-1.1 0.8-0.6 0.6-2 0.6-0.1 2.5-0.6 0.7-0.7 0.9-1.9 0.5-0.7 1.6-1.5 0.3-0.5 0.5-0.4 2.1-0.7 0.7-0.7 0.9 0 1.8-0.5 0.8 0.3z m-55.5-10.7l-0.1 0.7 0.1 0.6 0.5 0.2 0.6 0.1 1.1 0.2 0.7 0.1 0.7 0.6-0.2 1.4-0.7 2.5 0 0.7 0.3 0.9 0.1 0.7-0.1 0.1-0.5 1.3 0 0.3-1 0.4-0.7 1-0.7 1.1-0.7 0.8-0.5 0.4-0.3 0.1-2.9-0.1-0.3 0.2-0.3 1.2-0.8 0.6-1.1 0.2-1.1-0.1-2-0.7-1.3-0.2-0.7-0.6-0.3-0.2-0.4-0.4-1.3-1.8-0.5-0.6-0.9 0.1-1.1-0.3-1-0.5-0.7-0.6-0.1-0.7 0.1-2.9 0.4-1.6 0.6-1.4 0.9-1.3 0.9-1 0.6-0.4 1.6-0.7 0.7-0.1 0.7 0 1.3 0.3 0.5 0.1 0.5-0.2 0.7-0.4 0.4-0.2 5.6-0.6 1.3-0.7 0.3 0.1 0.7 0.5 0.3 0.3 0.1 0.5z m-72.2-14.8l2 2.1 0.6 0.3 0.7 0.6 0.2 1.2-0.3 2.3 0 5.1-0.6 0.3-4.1 1.7-1 0.2-0.6 0.1-0.6-0.2-1.3-0.9-1.1-0.3-1.7-0.7-0.9 0.1-0.6-0.3 0-0.4-0.1-0.2-1-1.1-0.8-1.2-0.5-1.4-0.4-2.7-0.8-2.2 0.2-0.8 5.2 0.1 2.2-1.1 2.8-0.6 1.4-0.5 0.4 0.1 0.7 0.4z m40.3-6.6l1.2 0.9 4 1.4 1.5 0.2 1.9 0.7 3.1 3.5 1.7 1.1-0.4 0.1-0.4 0.3 0.8 0.5-0.4 1.1-1.2 1.9-0.5 1.2-1.1 0.4-1.3-0.2-2.5-0.8-4.2 0-1.1-0.3-1.1-0.7-1.1-0.4-1.3 0.6-0.9-1-0.4-1.6-0.6-1.2-1.5-0.3 2.6-3.5 0.1-0.8-0.3-1 0.4-1.1 1-0.7 1.1-0.3 0.5 0.4 0.4-0.4z m-33.4-17.9l0.9 0.8 0.5 1.4 0.2 1.3 0.2 0.5 0.8 0.6 0.7 2.6 0.5 0.5 0.4 0.3 0.8 1.1 0.4 0.3 1.3 0 0.6 0.2 0.4 0.2 0.4 1 0.1 1.5-0.1 2.8 1.1 6.6 0.6 1.1 2.5 2.2 0.2 0.3 0.1 1 0.2 0.7 0.4 0.3 0.4 0.1 0.2 0.1 6 3.9 0.5 0.6 0.1 0.6 0.4 0.5 0.7 0.8 0.3 0.1 1 0.3 0 0.3-0.4 0.9 0.5 2.2 0.3 2.5-0.4 1.1-1.6 1.4-0.5 0.9 1.4-0.8 0.4 0.5 0 1.1 0.3 0.9 2.5 0.5 1.2 0.6-0.1 1.3 0.8 0.2 0.7 0.3 0.6 0.5 0.4 0.7-0.4 0.8 0.8 0.4 2.1 2.1 0.5 0.3 0.4 0 0.2 0.2 0 0.9-0.3 0.3-1.4 0.6-0.5 0.3-1.9 5.8 0.3 1.5-0.1 1.1-1.3-0.4-0.7 1-1.5 1.7-0.7 0.9-1-0.4-1-0.1-1.9 0.1-1.1 0.3-1.9 1.4-6.9 2.3-1.3-0.3-0.9 0.3-5.3-0.8-6.7 0.1-1.3-0.4-0.9-0.8-0.2-0.7-0.1-0.6 0-1.4-0.3-0.7-0.5-0.1-0.7-0.1-0.6-0.1-1.5-2.4 0.5-2.7 1.6-2.5 1.8-1.8 7-4.5 0.3-0.5 0-0.4 0.2-0.3 0.9-0.1 1.5-0.6 2.1-0.5 0.7 0 0.6 0.1 1 0.7 1 0.4 0.7 0 0.6-0.2 0.3-0.4 0.5-0.9 0.4-0.2 0-0.6 0.5-1.2 0.8-0.9 0.9 0.3 0.7-1 0.1-0.9-0.5-0.7-0.7-0.7-0.8-0.4-1.7-0.5-0.8-0.3-1.4-1.3-1.4-1.9-1.1-2.1-0.6-2 0.1-1.7-0.1-0.7-0.8-0.5-0.4-0.2-0.8 0-0.4-0.2-0.2-0.3-0.6-0.9-3.6-2-1.3-1.5 0-1.9-1.2-0.7-0.7-1.3 0.1-1.2 1.4-0.4-1.1-1.6-0.4-0.8-0.1-1.1 0-2-0.1-0.5-0.3-1 0-0.6-0.5-2-1.3-0.9-1.9-0.1-2 0.8-2.1 1.4-1 0.2-1.2-0.6-1.2-1.6-0.2-0.4 0.1-0.5 0.3-0.3 0.5-0.2 4-2.2 1.2-1.2 0.4-2.4 1.5 0.5 1.1-0.3 1.2-0.6 1.9-0.6 0.4-0.4 0.4-0.6 0.4-0.4 0.7-0.2 1.1 0 0.7-0.2z m52.6-6.8l-1.3 0.3-0.7-0.3-0.8-0.8-0.7-0.1-0.6-0.3-0.6-0.4-0.4-0.6-0.3-0.4 0.2-1.3 0.9-1 1.3-0.7 1.3-0.2 1.3 0.4 1.5 0.7 1.1 0.9 0.6 1.2-0.4 0.9-1.1 1-1.3 0.7z m-17.3-18.9l-0.9 1.9-2.7-1.1 0.5-1.3-0.5-2.5 0.5-1.1 2.4 1.4 0.7 2.7z m-63.5-46.9l-0.3 0.3-0.3-0.2-0.1-0.4 0-0.3 0.3-0.2 0.3 0.1 0.2 0.4-0.1 0.3z m-11.1-16.6l-0.4 0.1-0.3-0.6 0.3-0.3 0.4 0.3 0 0.5z" id="ECU1270" name="Galápagos" data-id="ECU1270" data-name="Galápagos">
 </path>
 <path d="M782.6 170.3l-1.3 2.4-0.1 0.8-0.1 2.2-0.3 1-0.8 1.7-0.4 1.1-0.6 3 0.2 0.9 1.4 2.1 0.7 0.7 0.5 0.9-0.1 1.2 0.2 0.6 0.3 0.7 0.9 1.5 0.3 0.8 0 1-0.2 1.4-0.1 1.4 0.1 2-0.2 1.6-0.6 1.5-1.2 1.8-2.1 1.9-0.8 0.2-2.2 0.3-0.7 0.4-0.5 0.4-0.3 0.5-0.2 0.6 0 1-0.2 2.7 0.1 1.9 0.4 1.3 0 0.6-1.5 7.7 0 0.7 0.2 0.6 0.3 0.5 0.1 0.6-0.1 0.7-0.3 0.7-1.1 1.7-2.2 2.1-3.2 1.7 0.2-2.4-0.3-0.5-0.4-0.5-0.6 0-0.6 0.3-0.3 0.4-0.4 0.2-0.7 0.1-0.7-0.1-2.4-0.4 0.9-1.9 0.4-2 0.5-0.9 0-0.5-0.4-0.9-2.1-3.3-1.9-2.5 0-0.5 0.2-0.5 0.7-0.5 0.3-0.3 1-4 0.6-1.1 0.1-0.9-0.2-0.6-0.5-0.7-0.4-0.8-0.2-0.7-0.1-0.7 0.3-1.1-0.1-0.5-1.8-2.7-0.7-1.3-0.4-0.6-0.4-0.2-0.4 0.1-0.3-0.2-0.2-0.3-1.2-0.4-0.2-0.3 0.2-0.4 0.8-0.5 0.4-0.4 1.7-1.8 0.3-0.1 0.7 0.3 0.3 0 0.2-0.2 0.6-1 0.3-0.9 0.1-0.8-0.3-0.7-0.5-0.5-1.9-1.3-0.8-0.8-0.6-1-0.2-1.3 0.1-4.6 0.1-0.6 0.3-0.4 0.5 0 0.7-0.4 0.2-0.4-0.1-0.3-1.7-1.2-0.6-1.1-0.4-0.3-0.3 0.1-0.4 0.3-0.8 1.1-0.4 0.4-0.5 0.2-0.4-0.1-0.2-0.3 0.1-0.8 0.9-1 1.5-2.3 1.1-1.5 2.8-1.3 2.7-0.2 4.4-2.2 1.4-0.4 1.7-0.2 0.8 0 0.8 0.1 0.4 0.4 0.7 0.8 1.7 1.2 1.2 0.5 1.4 0.4 1.3-0.1 1.1-0.3 1.6-1.4 1-0.5 0.7-0.1 1.7 0.5z" id="ECU1277" name="Bolivar" data-id="ECU1277" data-name="Bolivar">
 </path>
 <path d="M799.7 237.9l0 0.6 0.8 0.5 3.7 1.6 0.9 0.7 0.4 0.7-0.2 1.2 0.1 3.4-0.3 1.1 0 1.2-0.1 0.5-0.2 0.5-1.5 2.2-0.6 0.7-0.4 0.3-0.4 0-0.4-0.3-0.9 0-2.2 1.5-0.6 0.6-0.3 0.6-0.1 0.7-0.3 0.8-0.9 0.7-0.7 0.2-1.4 0.3-0.6 0.4-1.1 1-0.8 0.6-0.6 0.3-0.5 0-1.1-0.2-0.8-0.1-0.6 0.3-0.5 0.5-0.4 0.6-0.2 0.5 0.2 0.7 0.2 0.6 0 0.4-0.1 0.5-0.2 0.3-1.1 1.4-0.3 0.5 0 0.5 0.1 0.9-0.1 0.4-0.2 0.1-1-0.2-0.4 0.1-1.2 0.2-0.9 0-2.2-0.2-0.9-0.3-0.3-0.6-0.3-1.5-0.2-0.6-0.4-0.6-1.3-1.3-1.1-0.8-1.7-2.2-0.8-0.8-0.9-0.8-0.7-0.5-0.7-0.3-0.4 0.1-0.3 0.3-0.4 0.8-0.3 0.4-0.5 0.4-1.2 0.5-0.5 0.3-0.3 0.4-0.1 1.1-0.2 0.4-0.6 0.4-0.7-0.2-0.8-0.5-5.3-5.5-0.5-0.7-0.6-1.3-0.5-0.6-1-0.6-1.5-0.2-0.8-0.2-0.6-0.6-1-2.4-0.7-0.7-0.9-0.6-2-0.1-1.7 0.5-1.4 0.7-0.9-0.1-0.5-0.4-0.1-0.8 3.3-3.1 2-1.3 0.1-0.3-0.5-0.9 0.1-0.5 0.3-0.5 0-1.4 0.5-0.8 0.6-0.6 1.7-1.3 0.8-0.4 0.7-0.3 7-1.3 1.2-0.3 1.4-0.6 1.3-0.8 0.9-0.6 0.9-1.1 0.5-1.3 0.3 1.6 0.5 0.9 0.4 0.2 0.6 0.4 0.3 0.2 0.3 0.9 0.3 0.5 1 0.6 0.5 0.5 1.9 2.7 0.9 0.8 0.8 0.6 1.3 0.5 1.2 0.8 0.7 0.4 1.4 0.1 1.7-0.1 1.9-0.5 2-1 1-0.9 1.4-1.4 1.5-0.5 2.2-0.5 7.5-0.9 1.2 0.6z" id="ECU1278" name="Cañar" data-id="ECU1278" data-name="Cañar">
 </path>
 <path d="M810.5 140.9l-0.5 1.5 0.1 0.7 0.6 2.1 0.3 2.1 0.1 1.3-0.2 1.1-0.7 1.3-0.6 0.9-0.3 0.8-0.1 0.6 0 0.9-0.2 0.5-0.2 0.4-0.8 0.5-0.1 0.4 0.2 0.4 0.4 0.3 1.4 0.3 1 0.5-1.7 1.5-0.3 0.5-0.3 0.6-0.2 0.6-0.1 0.6 0 1.1-0.7 1.2-0.5 0.6-0.8 0.3-1.4 0.1-0.8-0.2-0.5-0.4-0.3-0.3-0.8-0.5-0.7 0-0.6 0.1-0.6 0.6 0 1.1-0.2 0.5-0.5 0.3-0.5 0.2-1.6 0.1-0.6 0.2-1.4 1.2-1 0.5-0.9 0.2-1.5-0.1-2.8-0.6-1.1 0.1-1.1 0.2-1.5 0.5-1.6 1.4-1.7 0.6-1.7-0.5-0.7 0.1-1 0.5-1.6 1.4-1.1 0.3-1.3 0.1-1.4-0.4-1.2-0.5-1.7-1.2-0.7-0.8-0.4-0.4-0.8-0.1-0.8 0-1.7 0.2-1.4 0.4-4.4 2.2-2.7 0.2-0.4-1.9-1.6-2.1-0.5-0.9 0-1.4 0.1-1.5 0.9-4.2-0.1-1 0-1.1 0.2-1 0.8-2.1 0.5-0.9 0.6-0.6 0.7-0.5 0.7-0.6 1.6-3 0.5-0.5 0.5-0.5 1-0.6 0.4-0.5 0.9-1.6 4.1-9.6 0.6-2.7 0.9 1.4 0.6 0.4 0.4 0.2 0.5 0 0.6-0.3 0.5-0.9 0.2-0.8 0.3-0.3 0.4-0.3 1.1-0.4 0.2-0.2 0-0.3-0.3-1-0.3-0.4-0.5-0.4-1-0.4-0.4-0.6 0.8-1.5 0.8-1.8 0.5-0.6 1.2-0.6 0.5-0.5 0.2-0.9 0.5-0.8 0.5-0.4 0.7-0.1 0.6-0.7 0.3-0.1 0.5 0.4 0.2 0.4 0 0.7 0.2 0.4 2.2 2.9 0.9 1.6 0.7 1.1 0.2 0.5 0.4 1.5 0.2 0.7 0.8 0.7 3.8 2.6 1 1.4 0.6 1.3 0.1 1 0.2 0.6 0.4 0.5 0.4 0.2 0.5-0.1 1.6-1.2 0.5-0.2 0.5-0.2 0.8-0.4 0.7-0.5 0.7-0.3 0.5-0.1 0.8 0.8 0.4 0.2 0.6-0.2 1.6-0.9 0.6-0.1 0.9 0 1.4 0.2 0.8-0.1 1.7 0.7 3.8 4.1z" id="ECU1279" name="Cotopaxi" data-id="ECU1279" data-name="Cotopaxi">
 </path>
 <path d="M708.4 278.8l-1 1.4-2.1-0.3-1.2 0.7-1 0.3-1.5-0.1-1.3-0.3-0.9-0.5-0.4-1.3 0.4-2.1 0.2-7.2 0.2-0.8 2-3.7 0.9-2.4 0.8-0.6 3.7-1.1 3.2-1.6 1.3-0.4 2.6 0.1 4.1 2.5 2.6 0.7-0.3 0.8-0.5 0.8-0.7 0.5-3 1.3-0.2 0.6-0.8 0.8-0.2 0.3-0.4 0.9-0.4 0.9-0.5 0.5-0.2 0-0.6 1.1-0.7 1.5-0.8 1.3-0.3 1-1 0.4-0.8 0.9 0 1.4-0.9 0.8-0.3 0.9z m16.7-21.6l-1.4 0.9-1.2-0.1-0.3-1.3 0.9-2.3 1.2-3.3 1.6-2.9 0.7 1.6 1.4 0.5 0.7 1.3-1.2 1.9-2.1 1.1-0.3 2.6z m35.6-28.7l2.4 0.4 0.7 0.1 0.7-0.1 0.4-0.2 0.3-0.4 0.6-0.3 0.6 0 0.4 0.5 0.3 0.5-0.2 2.4-0.5 1.3-0.9 1.1-0.9 0.6-1.3 0.8-1.4 0.6-1.2 0.3-7 1.3-0.7 0.3-0.8 0.4-1.7 1.3-0.6 0.6-0.5 0.8 0 1.4-0.3 0.5-0.1 0.5 0.5 0.9-0.1 0.3-2 1.3-3.3 3.1 0.1 0.8 0.5 0.4 0.9 0.1 1.4-0.7 1.7-0.5 0.7 1.5 0.5 0.7-0.1 0.7-0.4 0.6-1.3 1.4-0.5 0.4-1 0.7-13 13.6-0.5 1.4-0.3 1.5 0.1 1.2 0.4 1.6 0.1 1.7 0 0.4-3.3 4-0.4 0.8-0.2 0.5 0 1.2-2.5-0.8-0.6-0.1-4.5-0.2-0.5-0.1 0.7-1.2 0.6-1.2-0.6-1 0.2-1.4 0.8-2.3 0.1-1 1.8-6.1 1.3-2.3 0.1-0.4 0.6-1.2 0.2-1.4 1.3-3.5 0.7-1 1.8-1.9 0.5-1 0.1-1.5-0.4-2.6-0.8-2.1-0.2-0.3-1.3 0.1-0.7-0.1-0.5-0.2-0.7-1.1-1.1-3.2-0.8-1.2-0.3-0.7-0.2-0.9 0.1-3.5-0.4-2.7 0-0.8 0.3-1.3 0.1-0.8-0.3-0.6-0.8-1-0.2-0.2-0.1-0.4-0.3-0.7 0.1-0.7 0.3-0.7 0.3-0.5 0.2-0.5-0.5-0.8 0.9-0.9 1-0.3 0.7-0.5 0.3-1.4 0.5-0.6 0.9-0.5 1-0.6 0.4-1.3-3.5 2-0.4 0.3-0.1 0.5-0.1 1.1-0.4 0.1-1.9 0.2-0.5 0.5-0.1 0.4-0.5 1.5-0.5 2.4-0.1 1.7 0.4 1.7 1.8 3.2 0.2 1.8-1 11.6-0.6 2.4-0.4 0.7-1.6 1.8-0.6 0.4-1 0.3-2 1.2-0.9 0.1-0.6-0.3-0.3-0.8-0.5-0.1-1.3 0.1-0.4-0.1-0.8-0.6-0.3-1 0.8-0.9 1.8-1.2 0.5-1.3 0.3-0.9 0.6-0.5 1.6-0.2 0.4 0.3 0.3 0.5 0.5 0.4 0.7 0.1 0.5-0.4 0.3-0.5-0.1-0.6-0.3-0.6-0.3 1.2-0.8-0.2-1.4-1.4-1.3 0.2-1.2 0.6-0.8 0.2-0.4-0.8 0.3-1.3 1.1-2.6 0.3-1.4 0.2-0.7 0.5-0.3 0.7-0.1 0.6-0.3 0.5-0.5 1.2-1.9-0.6 0.1-0.3 0.2-0.6 0.7-0.5 0.2-1.2-0.1-0.5 0-0.7 0.5-0.5 0.7-2.6 6.7-4.1 5.7-1.8 2-1.9 0.8-0.5 0.8-0.4 0.5-0.6 0.4-0.5 0-0.3-0.3-0.6-0.8-0.8-0.3-0.6 0.4-0.2 1 0.2 1.2 0.2 0.2 1.6 1.6 0.2 0.5 0.1 0.7-0.1 1.3-0.6 0.5-1.3-0.2-2.5-1-2.6-2.1-0.8-0.5-0.8-0.7-0.4-0.3-0.3-0.1-1.1-0.2-0.5-0.1-2.3-1.5-4.5-5.2 4.3-4.1 3.6-2.7 5.1-1.2 2.9-1.7 2.6-4 1-6.1 0.1-5.2-2.3-3.6-2.1-2-3.5-2.1-4.7-1.2-3.1-1.8-1.7-2.8-0.6-2.6 2.5 0.1 1.7-0.2 0.5-0.2 0.3-0.3 0.2-0.8 0.1-1 0.1-0.6 0.5-0.7 0.5-0.6 0.4-0.6 0.4-0.7 0.4-0.6 0.7-0.5 0.6-0.3 0.8-0.4 0.4-0.3 0.6-1 0.4-0.5 0.5-0.2 0.5 0.3 0.8 0.6 0.4-0.1 0.3-0.4 0.8-0.5 2.3 0.2 0.9-0.2 0.2-0.6-0.5-1.8-0.1-0.5 0.1-0.8-0.2-0.2-1-0.3-0.5-0.3-0.8-0.6-0.6-0.8-0.4-0.5 0.1-0.4 3.6-0.5 2-1.3 0.3-0.6 0-0.4-0.7-1-0.2-0.6-0.2-0.8 0-0.7 0.3-1.5 0.3-0.7 0.4-0.5 0.6-0.3 1-0.6 1.3-0.3 0.3-0.3 0.1-0.4-0.2-1.4 0.1-1.1 0.4-0.9 0.7-0.5 1.3-0.6 2.3-1.9 0.5-0.7 1.2-3.2 0.5-1.9 0.5-1.2 0.4-1.3 0.4-0.9 0.6-0.6 0.4-0.3 0.2 0.2-0.2 0.9 0.1 0.3 0.3 0.1 1 0 0.9 0.2 1.1-0.3 0.9-0.5 3-2.4 0.7-0.8 1-1.6 0.8-0.9 0.5-0.6 0.3-0.6 0.2-0.9 0-0.9 0.3-0.3 0.9-0.6 0.3-0.6 0.3-0.7 0.3-0.7 2.2-3.2 0.6-0.5 0.7-0.4 1-0.3 3.8-0.6 2-0.5 2.1-0.3 0.9 0 0.8 0.5 0.3 0.9-0.3 1.9-0.9 2.6 0 0.6 0.3 0.8-0.4 0.5-0.9 0.6-0.4 0.5-0.5 1.2-0.4 2-0.3 0.6-0.4 0.4-0.5 0.3-0.5 0-0.6 0.2-0.4 0.4-0.2 0.3-0.6 0.7-0.6 0.9-0.4 0.4-0.9 0.1-0.4 0.1-0.2 0.4-0.2 0.7-0.3 0.8-0.4 0.2-0.6 0.2-0.3 0.1-0.1 1-0.6 0.4-0.6 0.1-0.5 0.3-0.2 0.3-0.1 0.4 0 1.1-0.3 1.2-3.3 6.3-0.5 0.7-1.1 1.1-0.7 1.1-0.3 0.6-1 2.7-0.1 0.7-0.3 3.7 0.1 0.7 0.8 2.6-0.1 0.4-0.4 1 0 0.7 0.1 0.9 0.2 0.6 0.2 0.4 4.9 2.5 0.8 0.8 0.7 1.2 0.4 1.3 0.6 0.9 1.5 2 0.4 0.8 0.8 2 1.3 2.5 0.4 1.3 0.5 0.5 1.3 0.3 2-0.3 3.1-1.2 1-0.1 1.3 0.2 1.2 0.6 2.7 1.8 1.3 0.7 0.7 0.4 1.8 1.4 0.7 0.8 4.5 7.4 3 2.8z" id="ECU1280" name="Guayas" data-id="ECU1280" data-name="Guayas">
 </path>
 <path d="M769.5 133l-0.6 2.7-4.1 9.6-0.9 1.6-0.4 0.5-1 0.6-0.5 0.5-0.5 0.5-1.6 3-0.7 0.6-0.7 0.5-0.6 0.6-0.5 0.9-0.8 2.1-0.2 1 0 1.1 0.1 1-0.9 4.2-0.1 1.5 0 1.4 0.5 0.9 1.6 2.1 0.4 1.9-2.8 1.3-1.1 1.5-1.5 2.3-0.9 1-0.1 0.8 0.2 0.3 0.4 0.1 0.5-0.2 0.4-0.4 0.8-1.1 0.4-0.3 0.3-0.1 0.4 0.3 0.6 1.1 1.7 1.2 0.1 0.3-0.2 0.4-0.7 0.4-0.5 0-0.3 0.4-0.1 0.6-0.1 4.6 0.2 1.3 0.6 1 0.8 0.8 1.9 1.3 0.5 0.5 0.3 0.7-0.1 0.8-0.3 0.9-0.6 1-0.2 0.2-0.3 0-0.7-0.3-0.3 0.1-1.7 1.8-0.4 0.4-0.8 0.5-0.2 0.4 0.2 0.3 1.2 0.4 0.2 0.3 0.3 0.2 0.4-0.1 0.4 0.2 0.4 0.6 0.7 1.3 1.8 2.7 0.1 0.5-0.3 1.1 0.1 0.7 0.2 0.7 0.4 0.8 0.5 0.7 0.2 0.6-0.1 0.9-0.6 1.1-1 4-0.3 0.3-0.7 0.5-0.2 0.5 0 0.5 1.9 2.5 2.1 3.3 0.4 0.9 0 0.5-0.5 0.9-0.4 2-0.9 1.9-3-2.8-4.5-7.4-0.7-0.8-1.8-1.4-0.7-0.4-1.3-0.7-2.7-1.8-1.2-0.6-1.3-0.2-1 0.1-3.1 1.2-2 0.3-1.3-0.3-0.5-0.5-0.4-1.3-1.3-2.5-0.8-2-0.4-0.8-1.5-2-0.6-0.9-0.4-1.3-0.7-1.2-0.8-0.8-4.9-2.5-0.2-0.4-0.2-0.6-0.1-0.9 0-0.7 0.4-1 0.1-0.4-0.8-2.6-0.1-0.7 0.3-3.7 0.1-0.7 1-2.7 0.3-0.6 0.7-1.1 1.1-1.1 0.5-0.7 3.3-6.3 0.3-1.2 0-1.1 0.1-0.4 0.2-0.3 0.5-0.3 0.6-0.1 0.6-0.4 0.1-1 0.3-0.1 0.6-0.2 0.4-0.2 0.3-0.8 0.2-0.7 0.2-0.4 0.4-0.1 0.9-0.1 0.4-0.4 0.6-0.9 0.6-0.7 0.2-0.3 0.4-0.4 0.6-0.2 0.5 0 0.5-0.3 0.4-0.4 0.3-0.6 0.4-2 0.5-1.2 0.4-0.5 0.9-0.6 0.4-0.5-0.3-0.8 0-0.6 0.9-2.6 0.3-1.9-0.3-0.9-0.8-0.5-0.9 0-2.1 0.3-2 0.5 1.2-2.5 0.8-4.1 0.5-1 0.6-0.7 0.5-0.3 0.6-0.2 0.6-0.4 0.2-0.3 0.7-2.1 1.3-2.7 0.5-1.2 0.8-2.8 1.8 0.1 1.3 0.2 3.2-0.2 1.4 0.3 0.5 0.3-0.6 0.8-0.3 0.5 0.2 0.8 0.3 1 0.1 0.9-0.2 0.7-0.4 0.8-0.2 0.5 0.3 1.1 0.3 0.5 0.6 0.4 0.7 0.3 0.8 0.1 0.7 0 0.8-0.2 0.6-0.5 0.7-0.7 0.8-0.8 0.7-0.5 1.6-0.8 0.7-0.5 4.4-4.4 0.9-0.5 0.6-0.1 1.1 0.4z" id="ECU1281" name="Los Rios" data-id="ECU1281" data-name="Los Rios">
 </path>
 <path d="M739.3 101l-0.5 0.5-0.1 0.4-0.1 0.7 0.2 1.2 0.3 0.6 0.5 0.4 0.8 0.3 0.5 0.5 0.7 0.5 0.5 0.4 1.5 1.8 1.5 1.5 0.4 0.2 2.1 0.6 0.4 0.1 1.4-0.1 0.5 0.2 0.3 0.5-0.1 1 0.4 10.7-0.2 0.9-0.4 0.9-1.9 2.9-0.1 1.3-0.1 0.5-0.7 1.8-1 1.2-0.8 2.8-0.5 1.2-1.3 2.7-0.7 2.1-0.2 0.3-0.6 0.4-0.6 0.2-0.5 0.3-0.6 0.7-0.5 1-0.8 4.1-1.2 2.5-3.8 0.6-1 0.3-0.7 0.4-0.6 0.5-2.2 3.2-0.3 0.7-0.3 0.7-0.3 0.6-0.9 0.6-0.3 0.3 0 0.9-0.2 0.9-0.3 0.6-0.5 0.6-0.8 0.9-1 1.6-0.7 0.8-3 2.4-0.9 0.5-1.1 0.3-0.9-0.2-1 0-0.3-0.1-0.1-0.3 0.2-0.9-0.2-0.2-0.4 0.3-0.6 0.6-0.4 0.9-0.4 1.3-0.5 1.2-0.5 1.9-1.2 3.2-0.5 0.7-2.3 1.9-1.3 0.6-0.7 0.5-0.4 0.9-0.1 1.1 0.2 1.4-0.1 0.4-0.3 0.3-1.3 0.3-1 0.6-0.6 0.3-0.4 0.5-0.3 0.7-0.3 1.5 0 0.7 0.2 0.8 0.2 0.6 0.7 1 0 0.4-0.3 0.6-2 1.3-3.6 0.5-0.1 0.4 0.4 0.5 0.6 0.8 0.8 0.6 0.5 0.3 1 0.3 0.2 0.2-0.1 0.8 0.1 0.5 0.5 1.8-0.2 0.6-0.9 0.2-2.3-0.2-0.8 0.5-0.3 0.4-0.4 0.1-0.8-0.6-0.5-0.3-0.5 0.2-0.4 0.5-0.6 1-0.4 0.3-0.8 0.4-0.6 0.3-0.7 0.5-0.4 0.6-0.4 0.7-0.4 0.6-0.5 0.6-0.5 0.7-0.1 0.6-0.1 1-0.2 0.8-0.3 0.3-0.5 0.2-1.7 0.2-2.5-0.1-1.2-0.3-1-0.5-0.5-0.6-0.1-0.6 0-0.5 0.4-1.1 0.7-1.1 0.1-0.3 0.2-1.8-0.1-0.5-0.2-0.5-0.8-0.7-0.1-0.4 0.1-0.9-0.3-0.5-0.8-0.5-1.8-0.2-1 0-2.1 0.7-1.2 0.2-4.2-0.2-0.9 0.3-0.4 0-1.1-0.1-1.6 0.3-1.1-2.5-0.8-1.1-0.3-0.8-0.1-0.8 0.3-0.7 2.1-1.5-0.3-1.4 0-1.7 1.3-1.2 0.7-0.1 1 0 0.2-0.8 0-0.9 0.1-1.1 0.3-1-0.2-1.4 0.2-0.9 1.1-0.5-0.1-1.4-1.8-2.5-3.6-4.2-2.8-5.1-1.3-3-0.8-1.8 0.4-1.2 0.7-0.7 0.9-0.7 0.8-0.9 0.9-1.1 0.7-0.9 0.7-0.8 0.2-0.5 0.7-0.3 0.8 0.3 0.8 0 0.9-0.6 0.8-0.3 0.9 0.2 1.4-0.5-0.2 0.5 1.1 0.5 0.9 0.1 0.7-0.6 0.5-0.2 0.4-0.6 0.7-0.2 0.6 0.9 0.5 0.1 1.1 0.1 1.4-0.6 1.3-1.1 1.4-1.4 0.8-3.7 1-5.1 1.1-2.9 1.4-2.7 0.7-1.8 0.3-0.3 0.5-0.4 0.9-0.1 0.7-0.2 0.1 1.5 0.9 1.2 1.6 0.7 1.5 0.2 3.2 0.1 0-0.7-1.6-0.5-1.8-0.4-1.2 0-0.9-0.6-0.6-1.7-0.8-1.4-0.8-0.3-0.5-0.6 0-1.5-0.7-1.6-0.2-1.8-0.8-1.8-1.1-1.3-0.7-2.5 0.6-0.9 1.3-0.1 1.9-1.6 1.8-2.8 0.6-1 0.2-0.8 0.5-1.3 0.5-1 1.3-0.4 1.6-2.5 1.1 0.9 1.2-0.6 1.5-1.1 1.6-1.2 3.6-3.9 2.8-3.6 1-1.3 0.4-1.2 0.1-0.7 0.3-0.2 1.7-0.6 0.9-2.2 0.5-2 0.3-3.1-0.1-1.5-0.4-2.5-0.2-4.5 0.6-1.6 0-0.5 0.1-0.2 0.7 0.3 0.3 0.3 0.2 0.4 0.3 0.9 0.4 0 0.1-0.7 0.2-0.5 1.6 3.6 0.7 1.1 0.9 0.3 0.8 0.1 0.4-0.1 0.9-0.8 0.3-0.4 0.6-1.2 0.1-0.7 0.2-0.3 0.4-0.1 2 0.1 1-0.1 1.1-0.2 1.2-0.5 0.6-0.4 1.2-1.4 0.7-0.4 0.7-0.3 0.8-0.1 0.6 0.3 0.6 0.4 0.5 0.5 0.2 0.5-0.1 0.3-0.6 0.6-0.4 0.8 0 0.4 0.1 0.5 0.4 0.4 2.8 1.7 0.3 0.4 0.1 0.2-0.2 0.4-0.4 0.4-0.4 0.2-0.6 0.8-0.3 0.4-1.1 1.6 0 0.4 0.9 0.8 0.6 0.2 0.6-0.2 0.5-0.1 0.2 0.3 0.1 1 0.2 0.5 0.3 0 0.7-0.4 0.3-0.2 0.5 0.3 0.4 0.4 1.2 1.1 0.8 0.3 0.4 0 0.3 0.4-1.6 1.7-0.2 0.5-0.1 0.7-0.3 0.3-0.4 0.2-0.4 0.6 0 0.4 0.2 0.6 0 0.7 0.2 0.3 1 1.6z" id="ECU1282" name="Manabi" data-id="ECU1282" data-name="Manabi">
 </path>
 <path d="M813.1 191.1l-0.6 0.9-0.1 0.5 0 0.8 0.6 1.7 0.1 0.6-0.1 0.6-0.2 0.5-0.5 0.6-0.6 0.4-1.4 0.8-0.5 0.5-0.4 0.5-0.5 0.6-1.1 1.1-0.3 0.6-0.1 0.6 0 1.3 0.1 1 0.2 1 0.3 0.5 0.6 0.7 0.2 0.5 0.2 1.4 0.4 1.8-0.1 0.8-2.4 2.6-1.6 2.6-0.3 0.6 0.1 0.7 0.2 0.5 0.4 0.4 0.5 0.3 0.4 0.6 0.2 0.7 0 1.5 0.2 0.7 0.6 1.2-0.1 0.4-0.8 0.6-0.9 0.4-0.8 0.7-0.6 1-0.4 1.6 0.2 2.4 0.3 0.6 0 0.3-0.3 0.5-1 0.8-0.6 0.5-0.2 0.8 0 0.7-0.3 0.7-0.4 0.6-2 1.5-1.2-0.6-7.5 0.9-2.2 0.5-1.5 0.5-1.4 1.4-1 0.9-2 1-1.9 0.5-1.7 0.1-1.4-0.1-0.7-0.4-1.2-0.8-1.3-0.5-0.8-0.6-0.9-0.8-1.9-2.7-0.5-0.5-1-0.6-0.3-0.5-0.3-0.9-0.3-0.2-0.6-0.4-0.4-0.2-0.5-0.9-0.3-1.6 3.2-1.7 2.2-2.1 1.1-1.7 0.3-0.7 0.1-0.7-0.1-0.6-0.3-0.5-0.2-0.6 0-0.7 1.5-7.7 0-0.6-0.4-1.3-0.1-1.9 0.2-2.7 0-1 0.2-0.6 0.3-0.5 0.5-0.4 0.7-0.4 2.2-0.3 0.8-0.2 2.1-1.9 1.2-1.8 0.6-1.5 0.2-1.6-0.1-2 0.1-1.4 0.2-1.4 0-1-0.3-0.8-0.9-1.5-0.3-0.7-0.2-0.6 0.1-1.2 1.2-0.4 1.9-1.3 0.9-0.3 0.8-0.1 0.7 0.2 0.9 0.4 1.8 1.3 1.2 0.7 1.4 0.6 3.1 0.7 1.6 0 1.4-0.2 1.1-0.4 1.1-0.1 0.9 0.1 1 0.2 0.7-0.2 0.5-0.6 0.4-1 0.5-0.7 0.7 0 0.8 0.3 1.4 1 0.8 0.3 1.1 0.3 0.7 0.3 0.6 0.4 0.8 0.3 0.4 0.2 0.2 0.2 0.2 1.1 0.5 0.7z" id="ECU1284" name="Chimborazo" data-id="ECU1284" data-name="Chimborazo">
 </path>
 <path d="M913.2 252.9l-0.9 0.6-12.9 4.5-15 5.3-14.9 5.2-7.5 2.6-18.9 6.6-1.1 0.6-4.4 3.9-6 8-2.9 2.4-0.8 0.9-1.8 3.6-0.8 1-2.1 1.7-0.7 0.8-0.1 1.3 0.7 1.1 1 0.7 0.7 0.8 0.1 1.7-0.5 1.2-0.9 0.4-1.1 0.2-0.9 0.8-0.8 0.3-0.6-1-0.8-3.9-0.5-0.9-0.7-0.6-2.6-0.7-1.2-0.2-1 0.3-0.7 1.2 0.1 0.4 0.3 1.1 0 0.7-0.4 2.6-0.8 2.4-7.5-0.1-4.3 0.8-1.2 0-2.3-0.2-0.7 0.1-0.6 0.1-0.5 0.5-0.6 1.1-0.3 0.4-0.4 0.3-0.4-0.1-1-0.5-0.6-0.2-2-0.2-2.5-0.7-1.7-0.3-0.6-0.3-0.4-0.3-0.2-0.8-0.2-0.4-0.5-0.4-0.5-0.7-0.3-1-0.1-1.1-0.2-0.8 0-0.8 0.2-0.4 1.3-1.2 0.1-0.4 0-0.3-0.2-0.5-0.4-0.4-4.9-3.5-0.3-1.1 0.1-0.4 0.3-0.6 7.3-5.9 1.2-1.2 2.2-0.7 2.1-1.1 1.4-1.2 1.6-1.7 0.6-1 0.2-1.1-0.1-0.9 0-0.9 0.2-1 1.4-3 0.2-0.6 0.4-1 2.8-4.6 0.3-0.9 0-0.5-0.2-0.6-0.4-0.6-0.5-0.6-0.4-0.5-0.2-0.4 0.1-0.4 1.9-3.4 0.5-0.7 0.6-0.5 6.6-3.4 0.6-0.5 0.3-0.5 0-0.5-0.4-1.1-0.4-0.4-1.9-1.4-0.3-0.1-0.6-0.1-0.5 0.2-0.6 0.3-0.6 0.6-0.4 0.6-0.2 0.6-0.1 0.7-0.3 0.3-0.4 0.1-0.5-0.3-0.5-0.4-0.2-0.6-0.1-0.6 0.4-1.8 0.4 0.3 0.4 0 0.4-0.3 0.6-0.7 1.5-2.2 0.2-0.5 0.1-0.5 0-1.2 0.3-1.1-0.1-3.4 0.2-1.2-0.4-0.7-0.9-0.7-3.7-1.6-0.8-0.5 0-0.6 2-1.5 0.4-0.6 0.3-0.7 0-0.7 0.2-0.8 0.6-0.5 1-0.8 0.3-0.5 0-0.3-0.3-0.6-0.2-2.4 0.4-1.6 0.6-1 0.8-0.7 0.9-0.4 0.8-0.6 0.1-0.4-0.6-1.2-0.2-0.7 0-1.5-0.2-0.7-0.4-0.6-0.5-0.3-0.4-0.4-0.2-0.5-0.1-0.7 0.3-0.6 1.6-2.6 2.4-2.6 0.1-0.8-0.4-1.8-0.2-1.4-0.2-0.5-0.6-0.7-0.3-0.5-0.2-1-0.1-1 0-1.3 0.1-0.6 0.3-0.6 1.1-1.1 0.5-0.6 0.4-0.5 0.5-0.5 1.4-0.8 0.6-0.4 0.5-0.6 0.2-0.5 0.1-0.6-0.1-0.6-0.6-1.7 0-0.8 0.1-0.5 0.6-0.9 1-1.4 0.7-0.5 1.1-0.6 0.9-0.2 2 0.3 1.5 0 0.8-0.3 1-0.4 0.6-0.5 1.2-1.2 2.5 0.6 1.5 1.1 0.8 0.9 0.8 1 0.5 0.8 1.8 4.7 0.5 2 0.6 1.4 0.7 0.7 3.6-0.7 1.1 0.1 0.9 0.6 0.7 1.3 0.8 3.9 1.1 1.8 0.2 0.5 0 1.3 0.2 0.8 0.9 1.5 0.3 0.8 0.1 1.8 0.2 0.9 0.6 0.7 1 0.6 2.4 0.5 1.1 0.5 0.8 0.7 0.3 0.9 0.3 1 0.4 0.9 0.7 0.7 1 0.4 2.1 0.5 16.3 7 13.7 8.8 1 0.3 0.9 0.4 0.7 0.9 1.1 1.9 2.1 2.5 0.5 0.9 0.8 0.7 0.3 0.8 0.8 2 1.4 1.7 2 1.4 2.5 0.7 2.6-0.1 1.8-0.6 0.7 0.1 1 0.7 0.8 0.4 2 0.4 2.5 1.3 1.3-0.4 1.2-0.6 0.8 0.2z" id="ECU1285" name="Morona Santiago" data-id="ECU1285" data-name="Morona Santiago">
 </path>
 <path d="M996.7 138.4l-0.8 0.4-0.6 0.4-0.3 0.7 0.1 0.6 0.2 1.1 0.1 0.6-0.1 0.6-0.4 1.1 0 0.7 2.6 9 0 0.6-0.1 1 0.1 0.5 0.5 0.7 0.6 0.5 0.4 0.6 0 0.4-0.5 0-2.8 0-2.6 0.3-1.3 0-0.6-0.5-0.4-0.6-0.8-0.9-1.7-1.5-0.3 0.5-2.6 9.9-6.2 24.5-0.8 2.1-0.4 0.6-0.7-1.2-0.2-1.3-0.4-0.5-0.4-0.3-0.5 0-0.6-0.2-0.4-0.4-0.4-0.2-0.3 0-0.4-0.3-1.7-0.7-0.6-0.1-0.3-0.2-0.3-0.6-0.1 0-0.5 0.4-0.4 0.2-0.2-0.2-0.1-0.5-0.6-0.8-0.8-1.5-0.3-0.3-0.7 0.1-0.9-0.3-0.9 0-0.2-0.2-0.5-0.4-0.5-0.3-0.4-0.1-0.7 0.2-0.7-1.6-0.4-0.2-1.4-0.4-0.3-0.3-0.1-0.3 0.2-0.5-0.2-0.1-0.7 0.1-0.2 0.4 0.1 0.5-0.7 0.3-0.5-0.1-1.1 0-1-0.2-0.8-0.4-0.4-0.4-0.3-0.2-0.7 0-1-1-0.7-0.2-0.8-0.1-1-0.5-0.6 0.2-0.1-0.1 0-0.7-0.3-0.6-0.2-0.1-0.3 0.3-0.4 0.1-0.6 0-1-0.5-0.9 0-0.3 0.3-0.1-0.3-0.3 0-0.8 0.7-0.4 0.4-1.2 0-0.5-0.3-1.4 0.1-0.5-0.2-0.6 0-0.6 0.4-0.3-0.1-0.3-0.5-0.1 0-0.7 0.7-0.6 0-0.5 0.4-0.3 0.5-0.3 0.1-0.1-0.5-0.7-0.3-0.9-0.1-1.5-0.4-0.8-0.1-0.4-0.2 0.2-0.5-0.4-0.7-1.1-0.1-0.8-0.5-0.3 0-0.8 0.3-0.7 0.1-0.6-0.1-0.6 0.1-0.2-0.2 0-0.6-0.4 0.2-0.5 0.1-0.3-0.2-0.4-0.5-0.1-0.7-0.4-0.6-0.6-0.4-1-1.4-0.4-0.9-0.1-1.3 0-2.3 0.2-0.8 0-0.9-0.2-0.7-0.8-0.9-0.8-0.3-1-0.3-1-0.1-0.9 0.1-1.5 0.4-1.1 0.2-0.3 0.2-0.5 0.6-0.3 0.3-0.5 0.1-0.6 0.1-1.2 0.3-1.2 0.2-1.4 0.1-0.4 0.1-0.9 0.4-0.5 0.1-0.9-0.2-0.6-0.4-0.6-0.1-0.4 0.1-1.1 1.1-0.3 0.5-0.2 0.6-0.3 1.4-0.4 0.4-1.1 0.1-5.7-2.4-4.8-1.1-0.7-0.3-0.4-0.7-0.3-1.6-0.3-0.9 0.1-0.4 1.2-1.4 0.5-1.3-0.5-0.7-0.3-0.3-0.3-0.5 0.2-0.3 1-1 0.4-0.5-0.1-0.4-0.3-0.3-0.8-0.2-2.5-0.4-1-0.4-2.7-1.9-0.5-0.2-0.5-0.2-0.6-0.3-0.4-0.5-0.2-1 0.1-0.9 0.4-1 0.7-1 2.9-2.7 0.5-0.7 0.3-0.6-0.2-0.4-0.4-0.3-0.8 0-0.8 0.5-0.8 0.4-2.7 2.5-1.4 2.9-0.8 1-0.5 0.2-2.1 0.8-9.4 4.5-0.7 0.5-1.1 0.3-0.2 0.1-1 0.4-1.1 0.3-1.5 0.1-1.4-0.2-0.7-0.5 0-0.5 0.6-0.5 0.5-0.7 0.5-0.8 1.4-3.4 0.1-0.8-0.5-1.9 0.1-0.9 0.3-1.1 0.5-1 0.4-0.7 0.8-1.1 0.2-0.6 0-0.8-0.5-1.5-0.3-0.6-0.5-0.4-0.8-0.5-0.3-0.4-0.7-1.3-1.6-2.1-0.7-0.6-0.6-0.3-0.6-0.1-0.7-0.4-0.2-0.5 0.1-0.5 0.4-0.4 0.5-0.5 1.9-1.1 0.4-0.4 0.2-0.5 0-0.7 0-0.5 0.2-0.5 0.5-0.1 0.8 0.3 2.6 1.6 1.3 0.6 1.5 0.5 1.1 0.2 0.8-0.1 0.7-0.3 0.5-0.5 1.4-2.3 0.7-1.5 0.2-0.4 0.3-0.2 0.3 0 0.8 0.2 0.2-0.1 0.2-0.4 0-0.9 0-0.5 0.2-0.4 1.8-0.8 0.6-0.3 0.5-0.5 0.3-0.5-0.1-1 0.1-0.4 0.7-0.6 0.2-0.5 0-0.9-0.6-1.1 0.2-0.6 0.2-0.8-0.2-0.4-0.7-1-0.8-1-0.4-0.6-0.3-0.7 0-0.6 0.2-0.8 0.1-1.7 0.2-0.6-0.6-4.2 0.9-0.6 0.8 0.2 1 0.3 1.6 0.8 1.8 1.2 0.6 0.2 0.7-0.2 0.7-0.2 0.9-0.2 1.1 0.2 3.3 0.9 1.5 0.1 1.3-0.2 0.8-0.5 0.7-0.5 0.9-0.4 0.9-0.4 1.5-0.2 0.9 0.2 0.8 0.5 0.4 0.5 0.6 1 6.1 7.3 1.8 1.6 0.3 0.5 0.2 0.9 1.1 1.6 0.5 0.6 1.1 1.7 0.7 0.6 3.3 2.4 0.5 0.6 0.3 0.5 0.7 0.9 1.3-0.8 1.4-0.4 1.3 1.7 3.1 2.4 1.1 0.5 2.4-0.1 0.9 0.3 0.4 0.9 0.7 0.5 1.4-0.6 2.4-1.8 0.5-0.2 1.9-0.6 1.3-0.6 0.5-0.2 4.6-0.4 5.6 0.4 0.3 0.3 0.4 0.6 0.3 0.8 0.2 1.4 0.3 0.4 1.2 0.6 2.4 1.7 1.4 0.8 1.3 0.3 1.4 0.1 0.7 0.1 0.3-0.2 0.1-0.2-0.4-0.7-0.3-0.7-0.5-4.9 0-0.9 0.2-0.7 0.7-0.3 1-0.3 1.9 0.1 1.1 0.2 0.8 0.5 0.7 0.5 0.7 0.2 0.5-0.1 0.6-0.2 0.5-0.1 1.4 0 0.7-0.1 1.2-0.4 0.5 0.1 0.5 0.4 0.3 0.4 0.5 0.8 0.4 0.4 0.7 0.4 0.7 0 0.9-0.3 0.5-0.2 0.6-0.1 0.6 0.3 0.7 0.4 1.3 0.6 0.7 0.4 0.3 0.3 0.3 0.7 0.2 0 0.7-0.3 0.3 0.5 0.1 0.6 0.4 0.8 1.1 0.9 1.9 0.6 0.9 0 2.7 0 0.7 0.3 0.6 0.4 0.5 0.1 0.9 0 0.3 0.2 0.3 0.5 0.3 1.1 0.4 0.4 1 0.2 0.9 0.4 2.1 0.6 0.7 0 0.8-0.2 0.3 0.3-0.1 0.7 0.2 0.5 1-0.1z" id="ECU1286" name="Orellana" data-id="ECU1286" data-name="Orellana">
 </path>
 <path d="M774 84.2l1 2.3 0.6 0.4 0.9 0.4 1 0.3 0.9-0.1 0.8-0.2 1.2-0.1 2.4-0.7 5.1-0.6 1.4 0.1 6 1.3 1.3 0 0.8-0.1 0.6-0.2 3.1-0.4 1.3-0.3 0.8 0 3.2-0.6 3.1-0.2 1.6 0.2 1 0.4 0.4 0.5 0.2 0.6 0.1 0.7-0.1 0.6-0.3 1-0.1 0.4 0.1 0.3 0.4-0.1 1-1 0.7-0.3 0.6 0.1 0.6 0.5 1.3 1.1 0.9 0.7 1.1 0.5 1.6 0.5 1.5-0.1 1.6-0.3 2.7-1.3 1-0.6 1.4-1.1 0.7-0.4 1 0 6.9 2.1-1.5 2.5 0 0.3 0.3 0.2 0.7 0.2 0.7 0.2 0.6 0 1.5 0.8 0.9 0.3 0.8 0.2 0.8 0.5 0.5 0.6 0.2 0.6 0.2 0.9 0.2 0.2 0.8 0.2-0.8 1.4-0.7 0.5-4.2 2.2-2.2 0.7-0.4 0.4-0.2 0.5-0.1 1.6-0.2 0.6-0.3 0.3-0.3 0.2-0.4 0.3-0.6 1.1-0.3 0.2-0.6 0.1-1.3-0.4-0.5 0-0.3 0.1-0.3 1.1-0.7 1.2-0.5 0.5-0.7 0.3-0.5 0-0.3-0.1-0.6-0.6-0.5-0.2-0.5 0-1.4 0.5-1.1 0.2-0.4 0.4-0.1 0.5 0.1 0.6-0.2 5.4-0.4 1.4-0.8 1.4-1.6 2.2-0.7 1.2-0.3 0.8 0.9 1.7-0.1 0.6-0.3 0.8-0.7 1.2-0.3 0.7-0.1 0.6 0 0.6-0.1 0.8-0.5 1.2-0.7 0.9-1.1 1.1-0.6 0.8-0.3 0.8-0.2 1.6-0.2 0.8-0.4 0.5-0.5 0.3-1.5 0.3-0.7 0.2-1.3 0.6-3.8-4.1-1.7-0.7-0.8 0.1-1.4-0.2-0.9 0-0.6 0.1-1.6 0.9-0.6 0.2-0.4-0.2-0.8-0.8-0.5 0.1-0.7 0.3-0.7 0.5-0.8 0.4-0.5 0.2-0.5 0.2-1.6 1.2-0.5 0.1-0.4-0.2-0.4-0.5-0.2-0.6-0.1-1-0.6-1.3-1-1.4-3.8-2.6-0.8-0.7-0.2-0.7-0.4-1.5-0.2-0.5-0.7-1.1-0.9-1.6-2.2-2.9-0.2-0.4 0-0.7-0.2-0.4-0.5-0.4 1.8-2.8 7.6-0.8 1.1-4.1-3-3.4-5.7-3.1-1.8-1.8-10.6 0.3-0.4-4.9-12-0.4-3.3-2.4 1.2-2.9 0.8-1.4 0.7-1.7 0.7-1.1 0.2-0.4 0-0.3-0.2-0.4-0.9-0.9-1.6-1.1-0.2-0.4 0-0.4 0.4-0.4 0.5-0.4 1.2-0.5 0.8-0.5 1.3-1.1 0.5-0.3 0.8-0.3 0.6-0.3 1.7-1.2 0.7-0.1 0.9 0 1.4 0.1 1.5-0.1 6.3 1.4 0.8 0.5 0.9 1.1z" id="ECU1287" name="Pichincha" data-id="ECU1287" data-name="Pichincha">
 </path>
 <path d="M978 192.3l-1 1.1-3.2 3-11.3 13.2-6 7-8.9 10.4-7.1 5.4-3.5 2.7-21.1 16.2-2.7 1.6-0.8-0.2-1.2 0.6-1.3 0.4-2.5-1.3-2-0.4-0.8-0.4-1-0.7-0.7-0.1-1.8 0.6-2.6 0.1-2.5-0.7-2-1.4-1.4-1.7-0.8-2-0.3-0.8-0.8-0.7-0.5-0.9-2.1-2.5-1.1-1.9-0.7-0.9-0.9-0.4-1-0.3-13.7-8.8-16.3-7-2.1-0.5-1-0.4-0.7-0.7-0.4-0.9-0.3-1-0.3-0.9-0.8-0.7-1.1-0.5-2.4-0.5-1-0.6-0.6-0.7-0.2-0.9-0.1-1.8-0.3-0.8-0.9-1.5-0.2-0.8 0-1.3-0.2-0.5-1.1-1.8-0.8-3.9-0.7-1.3-0.9-0.6-1.1-0.1-3.6 0.7-0.7-0.7-0.6-1.4-0.5-2-1.8-4.7-0.5-0.8-0.8-1-0.8-0.9-1.5-1.1-2.5-0.6 1.4-1.3 1.6-3.1 0.3-0.9 0.1-0.9-0.1-6.5 3 0.2 1.7-0.1 4.2-0.7 1.5 0 0.9 0.2 1.2 0.6 0.5 0 0.4-0.3 0.3-0.8 0.2-0.2 0.4-0.1 0.5 0.2 0.6 0.3 0.7 0.2 0.9-0.2 1.4-0.7 2.3-1.6 0.6-0.3 1.2-0.4 0.8-0.2 1.2-0.7 0.5-0.3 0.9-0.1 0.7-0.2 0.8 0 0.8 0.2 0.6 0 0.7 0 0.7-0.4 0.8-0.1 2.9-0.3 5.3-2.4 0.7-0.5 0.6-0.2 2.1 0 1.6-0.3 5.7-1.7 1.3-0.8 0.7-0.5 0.6-0.2 0.9-0.2 9.9-0.7-1.2 1.4-0.1 0.4 0.3 0.9 0.3 1.6 0.4 0.7 0.7 0.3 4.8 1.1 5.7 2.4 1.1-0.1 0.4-0.4 0.3-1.4 0.2-0.6 0.3-0.5 1.1-1.1 0.4-0.1 0.6 0.1 0.6 0.4 0.9 0.2 0.5-0.1 0.9-0.4 0.4-0.1 1.4-0.1 1.2-0.2 1.2-0.3 0.6-0.1 0.5-0.1 0.3-0.3 0.5-0.6 0.3-0.2 1.1-0.2 1.5-0.4 0.9-0.1 1 0.1 1 0.3 0.8 0.3 0.8 0.9 0.2 0.7 0 0.9-0.2 0.8 0 2.3 0.1 1.3 0.4 0.9 1 1.4 0.6 0.4 0.4 0.6 0.1 0.7 0.4 0.5 0.3 0.2 0.5-0.1 0.4-0.2 0 0.6 0.2 0.2 0.6-0.1 0.6 0.1 0.7-0.1 0.8-0.3 0.3 0 0.8 0.5 1.1 0.1 0.4 0.7-0.2 0.5 0.4 0.2 0.8 0.1 1.5 0.4 0.9 0.1 0.7 0.3 0.1 0.5 0.3-0.1 0.3-0.5 0.5-0.4 0.6 0 0.7-0.7 0.1 0 0.3 0.5 0.3 0.1 0.6-0.4 0.6 0 0.5 0.2 1.4-0.1 0.5 0.3 1.2 0 0.4-0.4 0.8-0.7 0.3 0 0.1 0.3 0.3-0.3 0.9 0 1 0.5 0.6 0 0.4-0.1 0.3-0.3 0.2 0.1 0.3 0.6 0 0.7 0.1 0.1 0.6-0.2 1 0.5 0.8 0.1 0.7 0.2 1 1 0.7 0 0.3 0.2 0.4 0.4 0.8 0.4 1 0.2 1.1 0 0.5 0.1 0.7-0.3-0.1-0.5 0.2-0.4 0.7-0.1 0.2 0.1-0.2 0.5 0.1 0.3 0.3 0.3 1.4 0.4 0.4 0.2 0.7 1.6 0.7-0.2 0.4 0.1 0.5 0.3 0.5 0.4 0.2 0.2 0.9 0 0.9 0.3 0.7-0.1 0.3 0.3 0.8 1.5 0.6 0.8 0.1 0.5 0.2 0.2 0.4-0.2 0.5-0.4 0.1 0 0.3 0.6 0.3 0.2 0.6 0.1 1.7 0.7 0.4 0.3 0.3 0 0.4 0.2 0.4 0.4 0.6 0.2 0.5 0 0.4 0.3 0.4 0.5 0.2 1.3 0.7 1.2z" id="ECU1288" name="Pastaza" data-id="ECU1288" data-name="Pastaza">
 </path>
 <path d="M827.2 173.6l0.1 6.5-0.1 0.9-0.3 0.9-1.6 3.1-1.4 1.3-1.2 1.2-0.6 0.5-1 0.4-0.8 0.3-1.5 0-2-0.3-0.9 0.2-1.1 0.6-0.7 0.5-1 1.4-0.5-0.7-0.2-1.1-0.2-0.2-0.4-0.2-0.8-0.3-0.6-0.4-0.7-0.3-1.1-0.3-0.8-0.3-1.4-1-0.8-0.3-0.7 0-0.5 0.7-0.4 1-0.5 0.6-0.7 0.2-1-0.2-0.9-0.1-1.1 0.1-1.1 0.4-1.4 0.2-1.6 0-3.1-0.7-1.4-0.6-1.2-0.7-1.8-1.3-0.9-0.4-0.7-0.2-0.8 0.1-0.9 0.3-1.9 1.3-1.2 0.4-0.5-0.9-0.7-0.7-1.4-2.1-0.2-0.9 0.6-3 0.4-1.1 0.8-1.7 0.3-1 0.1-2.2 0.1-0.8 1.3-2.4 1.7-0.6 1.6-1.4 1.5-0.5 1.1-0.2 1.1-0.1 2.8 0.6 1.5 0.1 0.9-0.2 1-0.5 1.4-1.2 0.6-0.2 1.6-0.1 0.5-0.2 0.5-0.3 0.2-0.5 0-1.1 0.6-0.6 0.6-0.1 0.7 0 0.8 0.5 0.3 0.3 0.5 0.4 0.8 0.2 1.4-0.1 0.8-0.3 0.5-0.6 0.7-1.2 0-1.1 0.1-0.6 0.2-0.6 0.3-0.6 0.3-0.5 1.7-1.5 1.2 2.1 1.5 1.7 0.6 1.1 0.2 0.9 0 2.8-0.1 0.8-0.1 0.6-0.6 1.1-0.2 0.6 0.2 0.3 0.4 0 2.1-1.3 0.7-0.1 0.8-0.1 1.3 0.3 0.5 0.1 1-0.3 0.6-0.1 0.2 0.3 0.4 0.9 0.2 0.1 1.1-0.1 0.2 0.3 0.6 1.2 0.9 0.3 2 0.3 0.4 0.4 0.2 0.5 0 1.4z" id="ECU1289" name="Napo" data-id="ECU1289" data-name="Napo">
 </path>
 <path d="M875.8 103.6l0.6 4.2-0.2 0.6-0.1 1.7-0.2 0.8 0 0.6 0.3 0.7 0.4 0.6 0.8 1 0.7 1 0.2 0.4-0.2 0.8-0.2 0.6 0.6 1.1 0 0.9-0.2 0.5-0.7 0.6-0.1 0.4 0.1 1-0.3 0.5-0.5 0.5-0.6 0.3-1.8 0.8-0.2 0.4 0 0.5 0 0.9-0.2 0.4-0.2 0.1-0.8-0.2-0.3 0-0.3 0.2-0.2 0.4-0.7 1.5-1.4 2.3-0.5 0.5-0.7 0.3-0.8 0.1-1.1-0.2-1.5-0.5-1.3-0.6-2.6-1.6-0.8-0.3-0.5 0.1-0.2 0.5 0 0.5 0 0.7-0.2 0.5-0.4 0.4-1.9 1.1-0.5 0.5-0.4 0.4-0.1 0.5 0.2 0.5 0.7 0.4 0.6 0.1 0.6 0.3 0.7 0.6 1.6 2.1 0.7 1.3 0.3 0.4 0.8 0.5 0.5 0.4 0.3 0.6 0.5 1.5 0 0.8-0.2 0.6-0.8 1.1-0.4 0.7-0.5 1-0.3 1.1-0.1 0.9 0.5 1.9-0.1 0.8-1.4 3.4-0.5 0.8-0.5 0.7-0.6 0.5 0 0.5 0.7 0.5 1.4 0.2 1.5-0.1 1.1-0.3 1-0.4 0.2-0.1 1.1-0.3 0.7-0.5 9.4-4.5 2.1-0.8 0.5-0.2 0.8-1 1.4-2.9 2.7-2.5 0.8-0.4 0.8-0.5 0.8 0 0.4 0.3 0.2 0.4-0.3 0.6-0.5 0.7-2.9 2.7-0.7 1-0.4 1-0.1 0.9 0.2 1 0.4 0.5 0.6 0.3 0.5 0.2 0.5 0.2 2.7 1.9 1 0.4 2.5 0.4 0.8 0.2 0.3 0.3 0.1 0.4-0.4 0.5-1 1-0.2 0.3 0.3 0.5 0.3 0.3 0.5 0.7-0.5 1.3-9.9 0.7-0.9 0.2-0.6 0.2-0.7 0.5-1.3 0.8-5.7 1.7-1.6 0.3-2.1 0-0.6 0.2-0.7 0.5-5.3 2.4-2.9 0.3-0.8 0.1-0.7 0.4-0.7 0-0.6 0-0.8-0.2-0.8 0-0.7 0.2-0.9 0.1-0.5 0.3-1.2 0.7-0.8 0.2-1.2 0.4-0.6 0.3-2.3 1.6-1.4 0.7-0.9 0.2-0.7-0.2-0.6-0.3-0.5-0.2-0.4 0.1-0.2 0.2-0.3 0.8-0.4 0.3-0.5 0-1.2-0.6-0.9-0.2-1.5 0-4.2 0.7-1.7 0.1-3-0.2 0-1.4-0.2-0.5-0.4-0.4-2-0.3-0.9-0.3-0.6-1.2-0.2-0.3-1.1 0.1-0.2-0.1-0.4-0.9-0.2-0.3-0.6 0.1-1 0.3-0.5-0.1-1.3-0.3-0.8 0.1-0.7 0.1-2.1 1.3-0.4 0-0.2-0.3 0.2-0.6 0.6-1.1 0.1-0.6 0.1-0.8 0-2.8-0.2-0.9-0.6-1.1-1.5-1.7-1.2-2.1-1-0.5-1.4-0.3-0.4-0.3-0.2-0.4 0.1-0.4 0.8-0.5 0.2-0.4 0.2-0.5 0-0.9 0.1-0.6 0.3-0.8 0.6-0.9 0.7-1.3 0.2-1.1-0.1-1.3-0.3-2.1-0.6-2.1-0.1-0.7 0.5-1.5 1.3-0.6 0.7-0.2 1.5-0.3 0.5-0.3 0.4-0.5 0.2-0.8 0.2-1.6 0.3-0.8 0.6-0.8 1.1-1.1 0.7-0.9 0.5-1.2 0.1-0.8 0-0.6 0.1-0.6 0.3-0.7 0.7-1.2 0.3-0.8 0.1-0.6-0.9-1.7 0.3-0.8 0.7-1.2 1.6-2.2 0.8-1.4 0.4-1.4 0.2-5.4-0.1-0.6 0.1-0.5 0.4-0.4 1.1-0.2 1.4-0.5 0.5 0 0.5 0.2 0.6 0.6 0.3 0.1 0.5 0 0.7-0.3 0.5-0.5 0.7-1.2 0.3-1.1 0.3-0.1 0.5 0 1.3 0.4 0.6-0.1 0.3-0.2 0.6-1.1 0.4-0.3 0.3-0.2 0.3-0.3 0.2-0.6 0.1-1.6 0.2-0.5 0.4-0.4 2.2-0.7 4.2-2.2 0.7-0.5 0.8-1.4 2.6 0.7 0.6 0.3 0 0.4-0.3 0.5-0.1 0.9 0.4 1.9 0.4 1.2 0.8 0.5 1.1 0.2 5.9 0.2 1.7 0.4 0.7 0.3 0.7 0.4 0.4-0.1 0.6-0.4 1.3-1.4 0.6-0.4 1.1-0.1 0.5-0.2 0.4-0.3 0.4-0.6 0.5-0.2 0.8-0.6 0.8-0.3 0.3 0.2 0.3 0.4 0.1 0.7 0.5 0.7 0 0.2-0.3 1 0 0.3 0.2 0.5 0 0.6-0.2 0.7 0 0.4 0.1 0.4 0.6 0.2 2.7 0.6 1 0.1 0.7 0 0.8-0.5 0.3-0.5 0.7-1.3 0.4-0.8 1.6-1.8z" id="ECU1290" name="Tungurahua" data-id="ECU1290" data-name="Tungurahua">
 </path>
 <path d="M780.7 24.4l-0.8 1.6-1.4-0.7-0.6 0.7-0.7 0.5-1.2-0.9-0.9-1-0.2-1.1 0.9-1.3 4.7-3.9 0.1 1 0.3 0.7 0 2-0.2 2.4z m25 5l-1 1-0.1 0.4 0 0.8 0.1 1.1 0.1 1.9-0.4 1.3-1.4 2.3-0.4 1.1-0.3 3.4 0.2 1.1 0.5 1 0.9 1 0.7-0.1 0.9 0.6 1.1 1.1 0.9 0.7 0.3 0.1 0 2.3 0.1 1.1-0.2 0.8-0.4 0.7-0.5 0.5-0.4 0.2-0.4 0.2-1.2 0.1-0.5 0.1-0.6 0.3-0.1 0.4 0.1 0.5 1.8 3.3 0.3 0.6 0.4 1.7 0.3 0.7 0.3 0.6 1.6 1.9 0.5 1 0.1 0.9-0.2 0.8-0.3 0.4-0.5 0.4-0.5 0.2-0.9 0.1-0.6 0-0.9-0.2-0.5 0.1-0.6 0.2-1.9 1.4-0.5 0.5-0.8 1.2-2 2.1-2 2.6-1 1.1-1 0.7-0.4 0.2-0.4 0.1-0.4-0.2-0.5-0.3-0.8-0.8-0.4-0.3-0.6-0.2-1.1-0.1-1.2-0.3-0.7-0.3-2.1-0.2-1.8-0.6-0.7 0.1-0.7 0.2-1.1 0.7-0.7 0.6-0.7 0.8-0.5 0.9 0 0.6-0.1 0.2-0.7 0.3-1.2 1.4-2 3.1-0.6 0.6-0.3 0.1-1.1-0.1-0.9-1.1-0.8-0.5-6.3-1.4-1.5 0.1-1.4-0.1-0.9 0-0.7 0.1-1.7 1.2-0.6 0.3-0.8 0.3-0.5 0.3-1.3 1.1-0.8 0.5-1.2 0.5-0.5 0.4-0.4 0.4 0 0.4 0.2 0.4 1.6 1.1 0.9 0.9 0.2 0.4 0 0.3-0.2 0.4-0.7 1.1-0.7 1.7-0.8 1.4-1.2 2.9-0.3 0.7-0.8 0.8-0.8 0.3-1.6 0.4-0.5 0.3-1.1 0.4-0.1 0.3 0.1 0.3 0.6 0.9 0.3 0.2 0.5-0.1 0.4 0.3-0.1 0.4-0.3 0.2-0.4 0.4-0.2 0-0.5-0.4-1.1-0.6-1.7-0.4-3.7-0.5-1.2-0.3-1.2 0.1-1-1.6-0.2-0.3 0-0.7-0.2-0.6 0-0.4 0.4-0.6 0.4-0.2 0.3-0.3 0.1-0.7 0.2-0.5 1.6-1.7-0.3-0.4-0.4 0-0.8-0.3-1.2-1.1-0.4-0.4-0.5-0.3-0.3 0.2-0.7 0.4-0.3 0-0.2-0.5-0.1-1-0.2-0.3-0.5 0.1-0.6 0.2-0.6-0.2-0.9-0.8 0-0.4 1.1-1.6 0.3-0.4 0.6-0.8 0.4-0.2 0.4-0.4 0.2-0.4-0.1-0.2-0.3-0.4-2.8-1.7-0.4-0.4-0.1-0.5 0-0.4 0.4-0.8 0.6-0.6 0.1-0.3-0.2-0.5-0.5-0.5-0.6-0.4-0.6-0.3-0.8 0.1-0.7 0.3-0.7 0.4-1.2 1.4-0.6 0.4-1.2 0.5-1.1 0.2-1 0.1-2-0.1-0.4 0.1-0.2 0.3-0.1 0.7-0.6 1.2-0.3 0.4-0.9 0.8-0.4 0.1-0.8-0.1-0.9-0.3-0.7-1.1-1.6-3.6 0.4-0.7 0.1-0.5-0.1-0.8-0.3-0.5-0.8-0.8-1.5-2.3-0.4-1.2-0.1-1.2 0.1-1.3 0.4-0.7 0.6-0.6 0.5-0.9 0.1-1.2-0.3-1.3-0.4-1-0.5-1.7-0.5-0.7-0.8-0.5-1.1-0.1-0.8-0.3-0.5-0.7-0.3-0.9-0.2-1 0-2.5 0.6-2.5 1.3-2.2 1.8-1.4 1 0.5 0.9 0.2 1.9-0.2 0.9-0.3 1.2-1.1 0.8-0.2 0.8-0.2 1.5-0.5 1.9-0.4 1.1-0.8 0.8-0.2 0.4-0.2 1.8-1.4 0.5-0.5 0.7-1.1 0.4-0.4 1.5-0.7 3.5-1.1 1.6-1.1 0.3 0.6 0 0.5-1.2 3.8 0.3 0.8 0.5 0.6 0.6 0.4 0.7 0.6 0.8 1.6 0.4 0.5-1-2.7-0.7-0.6-0.3-0.4 0-0.3 0.3-0.6 0.1-0.3-0.1-1.5 0.1-1.1 0.6-0.9 1-0.6 2.6 0.8 2.8-1.6 4-3.7 1.3-0.4 4.2 0.4 0.5-0.2 1.4-0.5 0.5-0.1 1.7 0 0.7-0.1 0.7-0.4 1.4 0.8 1.7-0.2 1.7-0.6 1.5-0.4 1.1-0.5 4.5-6 0.9-0.5 1.4 0.5 1.2 1 0.7 1.2 0.4 1.5 0.2 1.7 1.1-0.7 0.6-0.8 0.3-1.2 0.2-2.6 0.3-0.7 0.6-0.5 0.6-0.9 0.2 0.5 0.3 0.2 0.5 0 0.6-0.3 0.6-0.5 0-0.4 0-0.5 0.2-0.6 1-1.1 1-0.2 2.5 0.9-0.4-0.9-1.1-0.3-1.2-0.1-1-0.4-0.4-0.8 0.2-0.8 0.5-0.7 2.2-2.2 0.4-0.8 0-0.9-0.3-0.8 0.2-0.7 3.4 2.4 1.3 1.7 1.8 1.5 0.6 1 0.5 1.3 0.9 1.2 1.2 0.9 1.4 0.4 0.9-0.1 0.9-0.3 0.5 0.2 0.1 1.1 0.3 0.6 1.2 1.4 0.3 0.9 0.9-0.5 0.9-0.1 3.3 0.8 0.4 0.3z" id="ECU1335" name="Esmeraldas" data-id="ECU1335" data-name="Esmeraldas">
 </path>
 <path d="M863 60.8l-0.2 0.3-2.1 1.6-1 0.2-1.2-0.4-0.3-0.1-1.6 0-0.6-0.1-0.9-0.3-0.5-0.1-0.6 0-0.4 0.5-0.1 0.6 0.2 0.7 0.7 0.5 0.4 0.6 0.1 0.5-0.2 0.4-0.4 0.4-2.2 1.6-0.5 0.5-4.1 5.2-0.5 0.9-0.3 0.7-0.1 1 0 0.5 0.1 0.8-0.2 0.7-1.3 1.6-1.5-0.8-1-1.3-0.7-0.5-2.8-1.5-2.4-1.7-2.7-1.6-2.1-0.5-1-0.1-1.2-0.3-0.8-0.4-0.4-0.4-2.2-0.5-0.7-0.9-0.3-1-0.1-1.1 0.1-1.7-0.1-0.5-1.2-3.5-2.3-2.9-1.6-2.7-1.4-1.7-1.9-1.6-2.7-1.8-1-0.9-0.5-0.4-0.7-0.1-2.2-0.2-1.2-0.4-0.8-0.4-0.3-0.1-0.9-0.7-1.1-1.1-0.9-0.6-0.7 0.1-0.9-1-0.5-1-0.2-1.1 0.3-3.4 0.4-1.1 1.4-2.3 0.4-1.3-0.1-1.9-0.1-1.1 0-0.8 0.1-0.4 1-1 0.7 0.6 5.6 6.2 1.4 1.1 1.1 0.5 3.5 1 1.3 0.6 7.7 5.9 2.5 1.2 4.2 0.1 4.1 1.6 0.6 0 0.3-0.2 0.3 0.1 0.6 0.6 0.2 0.6 0 0.6 0.1 0.7 0.6 0.5 1.4 0.6 1.3 0.2 1.2 0.1 1.2-0.3 4.7-1.8 1.5 0 1.8 1.4 0.3 4.3 1.3 1.9 3.9 2.7 2.2 0.8 1.7-0.2z" id="ECU1409" name="Carchi" data-id="ECU1409" data-name="Carchi">
 </path>
 <path d="M845.2 79.6l-1.9 2.4-0.4 0.7 0.1 0.7 0.9 0.3 0 0.4-1.1 1.3-1.1 1.5-0.3 0.4-0.5 0.3-0.6 0.2-0.9 0.5-2 2.2-6.9-2.1-1 0-0.7 0.4-1.4 1.1-1 0.6-2.7 1.3-1.6 0.3-1.5 0.1-1.6-0.5-1.1-0.5-0.9-0.7-1.3-1.1-0.6-0.5-0.6-0.1-0.7 0.3-1 1-0.4 0.1-0.1-0.3 0.1-0.4 0.3-1 0.1-0.6-0.1-0.7-0.2-0.6-0.4-0.5-1-0.4-1.6-0.2-3.1 0.2-3.2 0.6-0.8 0-1.3 0.3-3.1 0.4-0.6 0.2-0.8 0.1-1.3 0-6-1.3-1.4-0.1-5.1 0.6-2.4 0.7-1.2 0.1-0.8 0.2-0.9 0.1-1-0.3-0.9-0.4-0.6-0.4-1-2.3 1.1 0.1 0.3-0.1 0.6-0.6 2-3.1 1.2-1.4 0.7-0.3 0.1-0.2 0-0.6 0.5-0.9 0.7-0.8 0.7-0.6 1.1-0.7 0.7-0.2 0.7-0.1 1.8 0.6 2.1 0.2 0.7 0.3 1.2 0.3 1.1 0.1 0.6 0.2 0.4 0.3 0.8 0.8 0.5 0.3 0.4 0.2 0.4-0.1 0.4-0.2 1-0.7 1-1.1 2-2.6 2-2.1 0.8-1.2 0.5-0.5 1.9-1.4 0.6-0.2 0.5-0.1 0.9 0.2 0.6 0 0.9-0.1 0.5-0.2 0.5-0.4 0.3-0.4 0.2-0.8-0.1-0.9-0.5-1-1.6-1.9-0.3-0.6-0.3-0.7-0.4-1.7-0.3-0.6-1.8-3.3-0.1-0.5 0.1-0.4 0.6-0.3 0.5-0.1 1.2-0.1 0.4-0.2 0.4-0.2 0.5-0.5 0.4-0.7 0.2-0.8-0.1-1.1 0-2.3 0.8 0.4 1.2 0.4 2.2 0.2 0.7 0.1 0.5 0.4 1 0.9 2.7 1.8 1.9 1.6 1.4 1.7 1.6 2.7 2.3 2.9 1.2 3.5 0.1 0.5-0.1 1.7 0.1 1.1 0.3 1 0.7 0.9 2.2 0.5 0.4 0.4 0.8 0.4 1.2 0.3 1 0.1 2.1 0.5 2.7 1.6 2.4 1.7 2.8 1.5 0.7 0.5 1 1.3 1.5 0.8z" id="ECU1410" name="Imbabura" data-id="ECU1410" data-name="Imbabura">
 </path>
 <path d="M996.7 138.4l-1 0.1-0.2-0.5 0.1-0.7-0.3-0.3-0.8 0.2-0.7 0-2.1-0.6-0.9-0.4-1-0.2-0.4-0.4-0.3-1.1-0.3-0.5-0.3-0.2-0.9 0-0.5-0.1-0.6-0.4-0.7-0.3-2.7 0-0.9 0-1.9-0.6-1.1-0.9-0.4-0.8-0.1-0.6-0.3-0.5-0.7 0.3-0.2 0-0.3-0.7-0.3-0.3-0.7-0.4-1.3-0.6-0.7-0.4-0.6-0.3-0.6 0.1-0.5 0.2-0.9 0.3-0.7 0-0.7-0.4-0.4-0.4-0.5-0.8-0.3-0.4-0.5-0.4-0.5-0.1-1.2 0.4-0.7 0.1-1.4 0-0.5 0.1-0.6 0.2-0.5 0.1-0.7-0.2-0.7-0.5-0.8-0.5-1.1-0.2-1.9-0.1-1 0.3-0.7 0.3-0.2 0.7 0 0.9 0.5 4.9 0.3 0.7 0.4 0.7-0.1 0.2-0.3 0.2-0.7-0.1-1.4-0.1-1.3-0.3-1.4-0.8-2.4-1.7-1.2-0.6-0.3-0.4-0.2-1.4-0.3-0.8-0.4-0.6-0.3-0.3-5.6-0.4-4.6 0.4-0.5 0.2-1.3 0.6-1.9 0.6-0.5 0.2-2.4 1.8-1.4 0.6-0.7-0.5-0.4-0.9-0.9-0.3-2.4 0.1-1.1-0.5-3.1-2.4-1.3-1.7-1.4 0.4-1.3 0.8-0.7-0.9-0.3-0.5-0.5-0.6-3.3-2.4-0.7-0.6-1.1-1.7-0.5-0.6-1.1-1.6-0.2-0.9-0.3-0.5-1.8-1.6-6.1-7.3-0.6-1-0.4-0.5-0.8-0.5-0.9-0.2-1.5 0.2-0.9 0.4-0.9 0.4-0.7 0.5-0.8 0.5-1.3 0.2-1.5-0.1-3.3-0.9-1.1-0.2-0.9 0.2-0.7 0.2-0.7 0.2-0.6-0.2-1.8-1.2-1.6-0.8-1-0.3-0.8-0.2-0.9 0.6-1.6 1.8-0.4 0.8-0.7 1.3-0.3 0.5-0.8 0.5-0.7 0-1-0.1-2.7-0.6-0.6-0.2-0.1-0.4 0-0.4 0.2-0.7 0-0.6-0.2-0.5 0-0.3 0.3-1 0-0.2-0.5-0.7-0.1-0.7-0.3-0.4-0.3-0.2-0.8 0.3-0.8 0.6-0.5 0.2-0.4 0.6-0.4 0.3-0.5 0.2-1.1 0.1-0.6 0.4-1.3 1.4-0.6 0.4-0.4 0.1-0.7-0.4-0.7-0.3-1.7-0.4-5.9-0.2-1.1-0.2-0.8-0.5-0.4-1.2-0.4-1.9 0.1-0.9 0.3-0.5 0-0.4-0.6-0.3-2.6-0.7-0.8-0.2-0.2-0.2-0.2-0.9-0.2-0.6-0.5-0.6-0.8-0.5-0.8-0.2-0.9-0.3-1.5-0.8-0.6 0-0.7-0.2-0.7-0.2-0.3-0.2 0-0.3 1.5-2.5 2-2.2 0.9-0.5 0.6-0.2 0.5-0.3 0.3-0.4 1.1-1.5 1.1-1.3 0-0.4-0.9-0.3-0.1-0.7 0.4-0.7 1.9-2.4 1.3-1.6 0.2-0.7-0.1-0.8 0-0.5 0.1-1 0.3-0.7 0.5-0.9 4.1-5.2 0.5-0.5 2.2-1.6 0.4-0.4 0.2-0.4-0.1-0.5-0.4-0.6-0.7-0.5-0.2-0.7 0.1-0.6 0.4-0.5 0.6 0 0.5 0.1 0.9 0.3 0.6 0.1 1.6 0 0.3 0.1 1.2 0.4 1-0.2 2.1-1.6 0.2-0.3 0.3 0 2.5 0.6 0.8 2.9 0.3 6.2 0.6 2 0.2 1.8 0.7 1.5 1.6 1.3 2 0.7 6.4 1.3 1.1 0.4 0.9 0.5 0.9 0.2 1.3 0 3-1.2 1-0.2 2.1 0.6 2.2 2.5 1.8 0.6 2.4 0.1 0.7 0.1 1 0.3 0.6 0.5 1.3 1.3 1 0.7 0.9 0.3 0.9 0.1 4.1-0.6 0.8 0 2.1 1 0.9 0-0.2-2.4 0.8-0.3 2 0.6 2.9 0.3 0.9 0.2 0.9 0.7 1.6 1.5 1.1 0.4 0.9-0.1 1.5-0.8 5.9-0.7 1.1-0.7-0.6-4 0.1-4.4 0-0.4 0.6 0.1 1.2-0.1 0.7-0.1 0.5-0.2 1.5-1.8 1.7-1.3 0.7-0.2 0.6 0.3 1.6 1.8 1.2 0.7 1.1 0.5 1.3 0.3 1.5 0.1 1.3-0.1 0.7 0.1 0.4 0.2 0.4 0.6 0.3 1.6 0.3 0.5 1.1-0.1 1.5-0.4 1.4-0.2 0.5 0.9 0.3 0.7 4 5 0.3 0.8 0.3 1.1 0.6 1 1.5 1.4 3.6 2.2 0.5 0.8 2.4 1.8 1.7 0.9 0.9 0.4 1.2 0.3 1.3 0.1 1.4-0.1 2.5-0.6 1.2-0.1 1.1 0.3 1 0.9 0.7 0.8 0.7 0.4 1 0.4 2.8 2.5 3.5 2.1 1.4 0.5 1.2 0.8 3.3 0.7 3.8 1.4 1.1 0.6-0.7 0.9-1.4 1-0.8 0.4-0.7 0.2-1 0.1-2-0.3-0.5 0-1.6 1.1-1.6-0.2-4.1-2.2-0.9-0.2-0.8 0-1 0.1-1-0.2-1.1-0.4-1-0.3-0.9 0.3-0.3 1 0.3 1.3 0.5 1.2 0.6 0.6 0.5 0.1 1.3-0.1 0.6 0.1 0.7 0.5 1.3 1.1 0.7 0.4 1.3 0.4 0.9 0.6 0.7 0.9 1.9 6.7 1.1 2.5 1.7 2.4 1.1 1 0.7 0.5 0.6 0.1 0.7-0.1 0.4 0.2 0.2 0.3 2.3 1.8 0.3 0.3 0.3 0.7 0.2 0.3 0.3 0.1 0.6-0.3 0.2 0.1 0.7 1 0.2 1.1-0.2 2.4 0.1 0.4 0.2 0.9-0.1 0.6-0.5 0.5z" id="ECU1411" name="Sucumbios" data-id="ECU1411" data-name="Sucumbios">
 </path>
 <path d="M684.5 209.8l0.6 2.6 1.7 2.8 3.1 1.8 4.7 1.2 3.5 2.1 2.1 2 2.3 3.6-0.1 5.2-1 6.1-2.6 4-2.9 1.7-5.1 1.2-3.6 2.7-4.3 4.1-1.8-2.2-4.9-4.6-1.9-0.7-1.8-0.8-1.9 0.1-3.2-1.1-1.1-0.5-2.5-2.2-1.3-0.5-0.9 0-0.7-0.1-0.5-0.6-0.3-2-0.5-0.9-0.9-1.4-0.9-0.8-2.2-1.8-0.5-1-0.1-0.6 0.2-0.2 0.5 0.1 0.5 0.7 1.5 0.4 0.7 0 0.4 0.2 0.3 1 0.7 0.8 1.5 0 2.1-0.8 3.1-2.4 2.3-1.2 2.1-2.4 0.5-3.5-0.9-1.8-0.4-1.9-0.2-0.5 0.2-0.6 0.7-0.1 0.8-0.5 0.2-1.4-0.2-1.5-1.6-6.4-1.3-3.6-0.5-0.9-0.6-0.7-0.7-1.1-0.3-0.9 1.6-0.3 1.1 0.1 0.4 0 0.9-0.3 4.2 0.2 1.2-0.2 2.1-0.7 1 0 1.8 0.2 0.8 0.5 0.3 0.5-0.1 0.9 0.1 0.4 0.8 0.7 0.2 0.5 0.1 0.5-0.2 1.8-0.1 0.3-0.7 1.1-0.4 1.1 0 0.5 0.1 0.6 0.5 0.6 1 0.5 1.2 0.3z" id="ECU5507" name="Santa Elena" data-id="ECU5507" data-name="Santa Elena">
 </path>
 <path d="M779.3 120.7l-0.3 0.1-0.6 0.7-0.7 0.1-0.5 0.4-0.5 0.8-0.2 0.9-0.5 0.5-1.2 0.6-0.5 0.6-0.8 1.8-0.8 1.5 0.4 0.6 1 0.4 0.5 0.4 0.3 0.4 0.3 1 0 0.3-0.2 0.2-1.1 0.4-0.4 0.3-0.3 0.3-0.2 0.8-0.5 0.9-0.6 0.3-0.5 0-0.4-0.2-0.6-0.4-0.9-1.4-1.1-0.4-0.6 0.1-0.9 0.5-4.4 4.4-0.7 0.5-1.6 0.8-0.7 0.5-0.8 0.8-0.7 0.7-0.6 0.5-0.8 0.2-0.7 0-0.8-0.1-0.7-0.3-0.6-0.4-0.3-0.5-0.3-1.1 0.2-0.5 0.4-0.8 0.2-0.7-0.1-0.9-0.3-1-0.2-0.8 0.3-0.5 0.6-0.8-0.5-0.3-1.4-0.3-3.2 0.2-1.3-0.2-1.8-0.1 1-1.2 0.7-1.8 0.1-0.5 0.1-1.3 1.9-2.9 0.4-0.9 0.2-0.9-0.4-10.7 0.1-1-0.3-0.5-0.5-0.2-1.4 0.1-0.4-0.1-2.1-0.6-0.4-0.2-1.5-1.5-1.5-1.8-0.5-0.4-0.7-0.5-0.5-0.5-0.8-0.3-0.5-0.4-0.3-0.6-0.2-1.2 0.1-0.7 0.1-0.4 0.5-0.5 1.2-0.1 1.2 0.3 3.7 0.5 1.7 0.4 1.1 0.6 0.5 0.4 0.2 0 0.4-0.4 0.3-0.2 0.1-0.4-0.4-0.3-0.5 0.1-0.3-0.2-0.6-0.9-0.1-0.3 0.1-0.3 1.1-0.4 0.5-0.3 1.6-0.4 0.8-0.3 0.8-0.8 0.3-0.7 3.3 2.4 12 0.4 0.4 4.9 10.6-0.3 1.8 1.8 5.7 3.1 3 3.4-1.1 4.1-7.6 0.8-1.8 2.8z" id="ECU5508" name="Santo Domingo de los Tsáchilas" data-id="ECU5508" data-name="Santo Domingo de los Tsáchilas">
 </path>
 <circle cx="716.4" cy="358.5" id="0">
 </circle>
 <circle cx="683.6" cy="185.5" id="1">
 </circle>
 <circle cx="719.2" cy="222.3" id="2">
 </circle>
</svg>