<?xml version="1.0"?>
<!--
************* Copyright (c) 2017 Pareto Softare, LLC DBA Simplemaps.com *******************		
************* Free for Commercial Use, full terms at  http://simplemaps.com/resources/svg-license ************
************* Attribution is appreciated! http://simplemaps.com ***************************
-->
<svg baseprofile="tiny" fill="#7c7c7c" height="652" stroke="#ffffff" stroke-linecap="round" stroke-linejoin="round" stroke-width="2" version="1.2" viewbox="0 0 1000 652" width="1000" xmlns="http://www.w3.org/2000/svg">
 <path d="M110.5 465.6l-4.6 6.8-0.5-2.8-3.1-3.7 2.7-6.4 0.2-3.4 2.1 0.3 0.7 2 1.3 1.9 0.2 3.2 1 0.6 0 1.5z" id="EST99" name="" data-id="EST99" data-name="">
 </path>
 <path d="M426.7 39.2l-4.2 1.1-4.2-4.7-0.3-5.9 2.1-5.5 2.4-0.6 2.3 4.4 3.1 8.1-1.2 3.1z m203.3-8.9l0.1 1.2-0.1 7.3-0.7 1.4-2.8 3.7-0.2 1.8 0.2 1.7 1.5 3.5 2.6 4.1 1.2 12.6 0.4 1.7 1.3 2.3 4.6 3.6 0.9 4-0.3 2.2 0.8 6.4 0.5 3.1 1 2.7 1.7 3.4 1 3.5 3.2 15.4-0.1 4.5-2.9 2.6-12.2-4.1-7.7-0.7-20.9 6-0.2 3.9-2.6 0.6-2.4-0.8-6.2-3.6-11 1.3-5.3 1.3-0.3 1.3 0.3 1.8 1.6 3 1.7 3.7 1 6.2-0.6 4-1.4 4.3-2.9 5.4-4.3 10.7 2.4 8.1 2.5 3 0 3.1-2 3.2-1.8 1.2-2.3-0.2-2.6-0.9-3.6 0-1.5 1.6-0.4 2.7 0.5 6.4-0.8 7.3-12 7.3-6.5-3.4-5.1-4.5-4.9-3.3-2.1-2.4-0.9-2.3-0.9-5.9-1-5.3-2.7-2.8-1.7-1.3-2.4 0.3-3.6 0-9.1-5-2.2-4.9-10.4-3.7-3.7-2.7-5.2-8.8-2.8-2.7-1-2.6-0.2-3 0.9-7.2-5.9-0.3-10.7 3-2.2 1.2-1.3 1.2-17.6-2.4-5.2 3.7-2.2 3-3 2.5-1.3 1.7-2.5 4.7-0.8 6.1-2.1 3.5 0.3 1.7 2.3 4.2 0.2 1.6-1.1 4.1-1.5 0.4-11.5-1.1-17 3.9-1.5 1.8-8.4 13.6-3.4 6.3-10.6-0.9-5-1.6-3.5 0.2-2.2 1.1-1.1 1.5-1 2.9-1.3 2.8-4.4 3.4-1.8-2.1-0.6-1.3 0.5-4.4 2-4.2 6.2-9.3 0.5-2.1-0.7-1.2-3.4-3.8-0.6-3 0.2-2.2-0.7-3.8-6.5-5.9-8.1-3.3-8.5 0.7-4 1.6-1.7 0.4-3.7-1-5.2-6.8-2.3-1.9-3.4-1.8-5-1.5-1.7-1.6-2.7-6.5-1.9-2.8-5-3.2-2.6-4.6 1.9 0.4 1.9-2.8 0.1-3.3-1.1-2.9-1.9-1.7 1.7-3.9 3.5-1.8 13.9-0.3 6.8 1.8 7.3-0.6 8.2-3.1 8-0.8 6.6 6.8 3.1-7.1-1.3-5.6-10-13.9-1.4-3 0.4-3.3 2-3.3 2.1-1.9 2.4-0.7 2.7 0.5 4.4 3.3 8.9 9.5 4.5 2 4.4-2.3-1.3-5.3-4.1-5.7-3.8-3.6 3.1-2 13.9-1 5.4-2.2 1.9-3.6 1.8-10.2 0.7-2.1 10.3-2.5 3.6 0.4 3.1 2.4 5.7 6.6 3.1 1.4 2.9-1.4 2.5-2.6 2.5-1.9 2.9 0.9 9.1 6.5 2.8 0.8 2.8-1.3-0.6-2.9-2.6-2.8-2.9-1.3 0-2.3 4.2 0.5 1.6-0.9 1.2-6.2 1.4-1.2 1.7 0.3 1.8 1.2 2.8 4.7 2 5.4 2.6 3.5 4.4-0.9 1.8-1.5 0.9-1.3 3.7-7.7 0.4-1.7-1.4-4.7-1-1.8-2.7-2.9-0.5-2.8-0.2-5.2-1-4.4 4.9-3.3 5.9 5 10.7 13.3 3.9 1 12.2-3.2 3.7 1 6.5 4.4 3.3 1 2.9-1.6-1.3-8 2.2-3.3 3.7 0.1 7.6 5.1 33.6 9.8 0.2 0-1.1-7.2 2.1-4 3.8-1.5 14.7 0 1.6-1 0-2.1-1.2-2.2-1.6-1-4.5-5.7-2.4-12.5-0.5-12.6 1-5.7 2.7 2.4 5.2 10.3 2.9 2.4 3.3 1.4 2.7 3.4 4.8 7.9 3.5 2.7 5 1.8 4.6-1 2-5.7-1.2-5.3-2.4-3.5-1.7-4 0.9-6.4-1-0.3-2.1-1.6 3.7-4.8 4.8 1.6 8.7 9.3-1.2 2.4 2 3.9 1.3 7.6 2.1 3.3 3 1.6 1.7-0.4z" id="EST1654" name="Harju" data-id="EST1654" data-name="Harju">
 </path>
 <path d="M806.3 248.7l-5.4-0.6-2.3-1.4-2.2-3.2-3.9-2.3-3.9-0.8-3.6 0.6-4.2 1.9-3.4 0.1-2.5 0.9-1.2-0.2-1-1.6-0.8-4.7-0.6-6.5-0.9-1.5-0.5-3.9-3.9-4.4 5.6-4.4 4.9-1.9 1.7-2.5 0.4-4.3 0.9-2.5 2.2-2.3 1.2-1.7 0-1.9-1.8-4.3 0-17.2 0.4-4.6 1.1-1.6 10.5-6.6 8.4-1.2 1.3-0.8 0.6-1.4-0.6-2.8-1.1-2.1 1.3-8.9-0.8-1.7-1.7-1.5-4.7-0.4-2.2-0.9-2.8-3.2-1.1-2.7-1.6-8.1-10.8 3.6-1.1-0.4-2.1-1.6-2-3.5 0.9-7.1 6.6-13.4 1.5-3.9-0.6-1.6-1.4-0.6-6.4-1-3.1 0.2-1.3-0.6-1.2-1.7 0.2-1.8 2.8-2 2.5-2.8-0.8-6.3 1.6-2.5 2.2-0.7 1.2 0.8 2.3 2.6 1.3-1.8-0.8-7.1 0.1-3.6-0.8-3.3-2.5-6.1-0.6-3.1 0.7-2.4 1.7-4.7 7.3 8 7.6 2.8 6.6 4.2 3.2 1.3 28 2.5 25-1.6 21-1.5 24.2 6.1 24.2 1.6 24.5 6 6.5-2.1 6.1-4.3 4.7-5.8 5.6-10.7 3.1 5.8 7 3.7 3.4 3.6 3.7 9.2 1.5 2.8 1.8 2.3 4.1 3.4 1.7 2.2-0.7 5.8-0.8-0.7-3.1-1.8-6.9 5.7-12.8 1.1-4.9 2.6 11.4 4.5 3.6-0.1-3.1 4.2-18.4-0.3-8.8 4.9-3.4 4.6 1.4 5.4-2.8 6.6-4.8 23.1 0.1 0.1-9.2 25.7-2.7 6.5-6.7 12.7-1.4 5.7-28-6.3-39.3 4.5-32.3 12.7-5.8 4.8-5.2 6.5-5 8.4-2.3 5.8-0.8 3.3z" id="EST1655" name="Ida-Viru" data-id="EST1655" data-name="Ida-Viru">
 </path>
 <path d="M643.9 123l0.7 1.1-1.8 4.8-0.1 2 1.1 1.9 1.2 0.7 2.4 5 1.9 3.6-1.1 3.4 0.6 2.3 4.1 3.2 5.6 2-1.1 7-4.3 6.2-2 4.3-5.1 5.9-0.2 5.7-1.5 5.9 0.4 1.7 1.4 0.6 4.2-0.4 2.2 0.4 4 2 3.4 0.4 2.1 1.3 4 8.3 3.2 1.2 4.5 6.8 3.1 3.1 2 4.2 2 5.8 0.9 6.3-0.6 4.8-1 4.1-0.4 3.4-4.1 3.5-1.7 2.3-0.8 3.5 1 3.8-0.6 2.7-13.1 1.1-3.3 1.9-1.3 1.5-3.9 1.2-1.7 1.8-0.7 3.4 0 2.9-0.9 5-4.4 3.6-3.1-2.5-3.2 0.7-4.8 4.2-3.3 1.9-1.3 1.7-1.2 3.6-1.2 2.5-4.5 5-1 4.6-7 3-11.5 4.1-3.2 2.3-2.7 1.5-10.2 3.5-2.7 3.7-4.8-1.1-5.7 4.4-5.5 1.6-14-0.4-3.2-1.7-3.6-0.7-7.4-3.1 2.7-11.5 0.6-3.9 2.1-5.4 0-1.7-1.5-1.8-2.6-1.5-5-0.4-5.5-1.8 3.3-8.2 0.3-2.3-0.5-4-2.6-5-0.4-1.9 0.6-1.7 2.1-1.4 3.6-1.1 2-3 1.2-4.1 1.4-2.5 1.2-3.7-2.8-3.9-2.4-1.4-1-2.4 3.2-8.1 2.6-2.2 3-1.6 1.1-2 0.3-3.2 0-3.1-0.3-3.2-2.1-2.6-0.2-2.5 5.4-5.8 12-7.3 0.8-7.3-0.5-6.4 0.4-2.7 1.5-1.6 3.6 0 2.6 0.9 2.3 0.2 1.8-1.2 2-3.2 0-3.1-2.5-3-2.4-8.1 4.3-10.7 2.9-5.4 1.4-4.3 0.6-4-1-6.2-1.7-3.7-1.6-3-0.3-1.8 0.3-1.3 5.3-1.3 11-1.3 6.2 3.6 2.4 0.8 2.6-0.6 0.2-3.9 20.9-6 7.7 0.7 12.2 4.1z" id="EST1656" name="Järva" data-id="EST1656" data-name="Järva">
 </path>
 <path d="M766 221.1l3.9 4.4 0.5 3.9 0.9 1.5 0.6 6.5 0.8 4.7 1 1.6 1.2 0.2 2.5-0.9 3.4-0.1 4.2-1.9 3.6-0.6 3.9 0.8 3.9 2.3 2.2 3.2 2.3 1.4 5.4 0.6-1.2 5.1-0.8 8.8 1.3 7.2 4 5.3 14.8 10.3 3.7 5.1 6.8 13.5-8 2-1.9 1.1-2 1.7-2.5 2.8-3.5 2.2-1.3 0-0.9 1-0.5 2.1 1.2 8.4-0.7 3-3.8-0.3-2-1-6-1.1-7.4-5.9-4.6-1-3.2 12.6-4.7 9-14.3 3.5-5.5-2.5-1.8-1.5-1.6 0.2-1.7 2-2.5 6.8-1.9 2.7-1.2 0.7-5.9-0.4-5.9-2.2-5.4-3.1-5.4 2.3-2.1 1.5-0.8-0.1-2.8-2.5-4 0.8-3.5 4.1-1.6 0.8-1.3-1-1-2.2-1.3-1.6-2.2-0.4-3 1.1-13.9 10.2-2.7 1.3-3.3 0.9-4.6-0.3-5.7 2-10.5-8.7-4.9-6.2-0.7-2.3-1.1-2.6-1.4-1.9-5-0.1-2-0.7-2.8-3.9-1.2-4.2-2.2-1.8-1.9-1.3-13.9-2-2.5 0.4-3.4-0.7-4.8 0.1-1.5-0.9-0.2-1.9 1.3-2.3 1.6-1.4 2.9-1.6 0.9-1.4 0.3-2.5-1-4-0.3-7.7-1.3-2.2 1-4.6 4.5-5 1.2-2.5 1.2-3.6 1.3-1.7 3.3-1.9 4.8-4.2 3.2-0.7 3.1 2.5 4.4-3.6 0.9-5 0-2.9 0.7-3.4 1.7-1.8 3.9-1.2 1.3-1.5 3.3-1.9 13.1-1.1 0.6-2.7-1-3.8 0.8-3.5 1.7-2.3 4.1-3.5 12.8-3.3 9.4-5.5 3.1-0.7 2.4 0.8 4.2 6.1 8.4 3.1 6.5-2.9 0.8-2.7 0-4.9 7.6-5.7 3.4 0.4 1.8 1.4 3.2 0.5 2.5-0.6 6.2-3.3 8.4-3.5 1.5-0.3 4.1 0.2z" id="EST1657" name="Jõgeva" data-id="EST1657" data-name="Jõgeva">
 </path>
 <path d="M778.2 53.2l-1.7 4.7-0.7 2.4 0.6 3.1 2.5 6.1 0.8 3.3-0.1 3.6 0.8 7.1-1.3 1.8-2.3-2.6-1.2-0.8-2.2 0.7-1.6 2.5 0.8 6.3-2.5 2.8-2.8 2-0.2 1.8 1.2 1.7 1.3 0.6 3.1-0.2 6.4 1 1.4 0.6 0.6 1.6-1.5 3.9-6.6 13.4-0.9 7.1 2 3.5 2.1 1.6 1.1 0.4 10.8-3.6 1.6 8.1 1.1 2.7 2.8 3.2 2.2 0.9 4.7 0.4 1.7 1.5 0.8 1.7-1.3 8.9 1.1 2.1 0.6 2.8-0.6 1.4-1.3 0.8-8.4 1.2-10.5 6.6-1.1 1.6-0.4 4.6 0 17.2 1.8 4.3 0 1.9-1.2 1.7-2.2 2.3-0.9 2.5-0.4 4.3-1.7 2.5-4.9 1.9-5.6 4.4-4.1-0.2-1.5 0.3-8.4 3.5-6.2 3.3-2.5 0.6-3.2-0.5-1.8-1.4-3.4-0.4-7.6 5.7 0 4.9-0.8 2.7-6.5 2.9-8.4-3.1-4.2-6.1-2.4-0.8-3.1 0.7-9.4 5.5-12.8 3.3 0.4-3.4 1-4.1 0.6-4.8-0.9-6.3-2-5.8-2-4.2-3.1-3.1-4.5-6.8-3.2-1.2-4-8.3-2.1-1.3-3.4-0.4-4-2-2.2-0.4-4.2 0.4-1.4-0.6-0.4-1.7 1.5-5.9 0.2-5.7 5.1-5.9 2-4.3 4.3-6.2 1.1-7-5.6-2-4.1-3.2-0.6-2.3 1.1-3.4-1.9-3.6-2.4-5-1.2-0.7-1.1-1.9 0.1-2 1.8-4.8-0.7-1.1 2.9-2.6 0.1-4.5-3.2-15.4-1-3.5-1.7-3.4-1-2.7-0.5-3.1-0.8-6.4 0.3-2.2-0.9-4-4.6-3.6-1.3-2.3-0.4-1.7-1.2-12.6-2.6-4.1-1.5-3.5-0.2-1.7 0.2-1.8 2.8-3.7 0.7-1.4 0.1-7.3-0.1-1.2 1.2-0.2 2.6-2.8 2.3-4.5-1.1-2.2 2.2-7.3 3.4 2.3 3.5 5.8 2.8 3.3 3.2-0.8 0.3-2.1-0.7-2.7 0.3-2.7 2-3.1 1.8-0.9 2.1 0.5 5.4 2.9 6 5.9 0.6 1.2 0.5 4.1 1.5 0.5 29.7-0.5 3 0.9 6.4 4.3 9.7 2.3 8.8 5.3 6.3 1.8 3.4 0.2 2.6-1 5.4-4.4 2.2-0.9 6.6 0.5 6 1.9 5.9 3.3 5.8 4.8 6.5 7.2z" id="EST1658" name="Lääne-Viru" data-id="EST1658" data-name="Lääne-Viru">
 </path>
 <path d="M895.6 397l-2.6 0.9-2.4-0.3-4.8-2.9 0.6-1.9 1.8-2 1.6 0.3 3.1 2 1.4 1.5 1.3 2.4z m-7.4 54.2l-0.3 0-23.1-7.6-2.5 0.8-3.1 0.1-3.4-1.3-1.3-1.2-0.7-5.4-2.9-3.1-13.9 0.1-2.4-1.8-1.1-1.6-1.9-0.1-2.4 3.1-2 0.8-3.1-0.4-4.5-3-1.6-0.4-1.9 1.1-2.5 5.8-1.4 2.1-3.2 0.3-4.1-4.2-7.2 1.3-1.1-0.8-1.8-0.2-1.6 0.7-1.9 1.5-2.4 5.1-1.4 4.9-4.3 4.5-9.8 3.3-4.7-0.1-0.5-1.1-1.6-2.4-1.3-0.1-1.8 1-1.9 2.8-1.5 1.5-1.6 0.2-2.3-1.2-0.7 0.3 0 1.7 0.6 5-0.2 2.5-1.3 2.6-1.1 1.3-4.5 2.2-2.6-5.1-1.4-1.6-3.3-2.4-1.5-1.8-3-2.3-9 2.8-2.1 1.2-3 1.1-1.7 0.3-3.1-3.6-1.6-1.4-1.7-2.7-1.9 0-1.9 1.4-6.3 7.6-2.7 2.4-2.6 0.8-3.5 2.5-3 1.6-26.3-2.1-4.2-28.6-0.9-22.8 3.9-8.8 5.4-9.7 10.6-15.3 0-2.2-5.4-19.4 5.7-2 4.6 0.3 3.3-0.9 2.7-1.3 13.9-10.2 3-1.1 2.2 0.4 1.3 1.6 1 2.2 1.3 1 1.6-0.8 3.5-4.1 4-0.8 2.8 2.5 0.8 0.1 2.1-1.5 5.4-2.3 5.4 3.1 5.9 2.2 5.9 0.4 1.2-0.7 1.9-2.7 2.5-6.8 1.7-2 1.6-0.2 1.8 1.5 5.5 2.5 14.3-3.5 4.7-9 3.2-12.6 4.6 1 7.4 5.9 6 1.1 2 1 3.8 0.3 0.7-3-1.2-8.4 0.5-2.1 0.9-1 1.3 0 3.5-2.2 2.5-2.8 2-1.7 1.9-1.1 8-2 3.1 6 5.6 16.1 5.1 26.7 0.4 8-0.4 14.7 1.2 6.4 3.6 4.7 3.6 1.2 6.9 0.1 10.9 6.1 2.3 1.9 1.2 2-0.5 1.5-1.2 1.5-0.6 2 0 6.4 0.7 3.4 1.1 2.7 0.4 2.7-1.2 3.4 6.4 8.9 1.8 1.3 0.4 1.9 0.3 9.1 0.3 3.3 1.9 5.2z" id="EST1659" name="Tartu" data-id="EST1659" data-name="Tartu">
 </path>
 <path d="M140.5 204.1l2.5 2 15.8-1 15.2 7.5 2.5 4 0.5 3.1-0.8 4.7 0.3 2.7 1.4 2.9 3.3 2.8 2.2 3.6 2.3 2.5 1.1 1.7 0.6 3-0.1 3.5 0.5 2 2.7 0.9 0.3 6.1-1.1 3.2-2.3 0.4-6.5-4.6-3.3-1-1.1 1.1-0.4 1.9-0.8 1-2-1.7-2.6 1.3-2.7 0-2.5 0.9-2 3.8 1.5 0.1 1 0.8 0.6 1.6 0.2 2.7-0.2 3.8-2 0.8-1.6 1.7-2.9 1.7-4.5 0.2-4.2-1.5-1.8-3.4 1.7-3.2 3.4-2.5 2.5-2.5-1.2-3.2-2.7-0.2-3.8 1.8-3.9 2.8-2.6 2.7-3.3 7.4-5.4 17.5-4.1 6.5-6.9 3.7-8.7 1-8.5-2.3-6-6.6 2.8-2.5 2.5-3.9-2.1-3.2-2.9-5.6-2.5-6.1-1-4.9 0-7.3-0.5-4.3-1.5-3.4-7.6-9.1-4.3-2.9-4.6-1.4-5.2 0.4-10.2 2.7-5-0.5-20.9-11.5-2.8-3.2 1.7-5 6.1-1 11.7 1.7 46.3-6.2-3.1-2.1-0.2-2.1 1.9-0.8 3.5 2 1.8-0.2-0.1-10.7 2.6-2.8 3.6-0.3 2.7-1.1 2.4-2.5 2.1-4.4 0.6-2.8 0.3-5.1 1.4-2.6 1.6-0.8 6.7 0.8 4.1 0.6 4.7 1.8 2.8 2.9-3.5 8.7 1.5 5 3 4z" id="EST1660" name="Hiiu" data-id="EST1660" data-name="Hiiu">
 </path>
 <path d="M217.1 194.2l11 3.6 6.9-2 3.5-0.1 3.1 3.1 4 6.6 0.6 3.4-1.4 4.8-1.6 1.5-1.9-0.6-1.9-1.3-1.6-0.6-1.7 0.6-4.7 3.4-3.3 0-5.3-3.2-3.3-0.8-0.9 0.6-1.1 2.7-5.8 1.4-1.7-0.1-2.3-1.6-4.6-12.8-0.8-1.8 0.8-3.5 1.9-2.2 2.7-1.2 3.4-0.4 6 0.5z m140.8 18.2l-3.1 6 0.6 4.4 6.1 10.2 6 15.9 1.7 3.5 1.6 2.5-0.1 2.4-1.5 1.5-4.3 2-1.1 1.7 0 3 0.6 2.1 2.3 2.6-6.6 5.5-1.2 2-5.7 2.6-0.7 3 0.9 1.6 2.8 1.1 7.4 0.1 1.6 1 0.5 1.5-0.4 1.8-2.9 8-7.3 3.9-4.2 1.4-6 3.9-2.6 0.1-5.2-1.4-1.2 0.7-0.8 4.6-0.9 3.4-3.3 4.8-2.6 1.6-2.7 0-4.2-2.4-1.7-0.3-0.4 1.2 0.9 3.9-0.5 4.7 0.6 4.7 5.2 6 0.5 0.8 0.2 2.4-12.3-1.1-12.1 3.1-15.1-2.2-2.5 0.2-7.7 3.3-0.1 0.1-1.9-2.3-1.2-4.2-0.1-3.5-0.7-1.7-2.3 1-2.1 2.9-1.3 3.2-1.3 1.5-2.3-2.4-0.6-2.9 1-3.3 1.4-3.2 0.8-3-0.9-5.6-1.8-7.5-1.2-8 0.7-7 1.3-2.6 1.4-0.4 3.3 1.2 1.1-0.7 0.6-1.4-0.1-1.4-2.6-2.6-0.4-4 0.9-3.5 2.1 0 6 2.9 5.8-1 5.9-2.3 6-0.7 3.1 1.3 6 4 2.6 0.9 4.8 0 0.7-3.1-0.3-2.1-0.9-1-2.5-1.4-0.6-3.2 1-3.5 2.2-2.2 2.6 0.2 6.1 3.4 3 0.5-4.2-5-5-3.6-4.9-0.3-4.2 4.8-2.9-3.9-3.2-0.3-6.6 2.1-11.5-0.8-3.7 0.8-3.1 1.9-1.6 1.5-1.2 1.7-0.9 0.3-5-1.5-3 0.6-8.9 3.8 5.9-10.9 3-2.7 5.2-0.9 1.1-2.2-9.8-13.5-1.3-5.7-5.2-7.8 0-6.1 3.4-4.7 10.4 0.8 3.4-4.6 2.7 1.8 2.8 0.2 2.8-1.1 5.1-4.3 1.2-1.5 0.5-2 0-3.7-1-7.3-2.5-5.3-3.5-3.7-3.7-2.4 2 4 4.6 4.6 2 4-1.3 0.9-2.9 0.3-1.2 0.7-3.2 4.2-0.2 2.9-0.9 3.4-1.5 0.3-1.8-3.3-0.9-1-10.2-2.6-4.1-3.5-4.2-6.6 4.4 0-1.1-5.5 0.9-3.8 7.1-8.5 1.7-1.4 1.6 0.9 2.7 3.7 0.2-15.8-5.2-15.1-2.4-11.6 8.6-5.6 1.7 0.2 3.3 1.3 1.9 0.4 1.3-0.7 2.3-2.9 3.6-1.8 1.9-2.6 2.2-2.2 3.2-0.3 8.4 8.2 0.4 0 2.6 4.6 5 3.2 1.9 2.8 2.7 6.5 1.7 1.6 5 1.5 3.4 1.8 2.3 1.9 5.2 6.8 3.7 1 1.7-0.4 4-1.6 8.5-0.7 8.1 3.3 6.5 5.9 0.7 3.8-0.2 2.2 0.6 3 3.4 3.8 0.7 1.2-0.5 2.1-6.2 9.3-2 4.2-0.5 4.4 0.6 1.3 1.8 2.1z" id="EST1661" name="Lääne" data-id="EST1661" data-name="Lääne">
 </path>
 <path d="M341.8 476.2l-4.9 2.6-4.3-4-0.9-7.2 2.7-4.3 4.6-1.6 4.6 1.1 1.3 7-3.1 6.4z m188.1-185.2l5.5 1.8 5 0.4 2.6 1.5 1.5 1.8 0 1.7-2.1 5.4-0.6 3.9-2.7 11.5-4.1 2.1-1.1 2-0.3 2.2 1.3 4.3 0.1 3-1.7 1.4-6.2 2.3-2.2 2.3-2.1 3.3-2 2.5-6.6 5-10.6 5-5.9 6.5-1.1 2.4 2.1 4.8 0.8 3.4 0.1 7.2-4.6 3.5-0.7 3.6 0.5 6.7-1.1 6.5-2.2 9.2 1.8 3.8 1 0.8 2.7 0.8 4.9-4.9 2.2 0.2 0.9 1 12.5 2.4 2.2 1.1 6.2 5.6 9.3 6.1 1.8 1.9 0.7 2.9-2.8 3.3 0.2 3.9 0.2 10.4-0.7 1.3-0.9 0.2-0.9-1.3-1.9-1.3-8.5 2-1.3 1.6-1 2.2 0.3 2.5 0.5 2.4-0.1 2.5-0.7 0.9-2.5-1.1-1.9-0.2-2.2 2.3-0.8 1.7 0.1 1.4 2.2 2.2 1.4 2.1-0.2 2.1-1.5 0.5-2.2-0.1-2.4-0.6-2.1 0.4-0.9 1.1-1.2 4-1.6 1.5-2.8 1.8-1.2 1.8-0.2 1.7 1.4 2.8 0.8 4.8 1.7 3.3-9.4 9.7-4 2.8-12.1 1.8-3.8 2.4-5 4.6-4-0.7-4.1-2.6-4.9-1.3-2.3 3.1-2.9 8.2-2.5 1.9-9.5 1.1-11-1-3.2 0.7-8.2 7.6-6.3 3.3-1.9 2.3-2.6 7-1.8 3-3.6 2.1-4.5 0.2-6.9-2.8 1.7-2.7 1.2-2.8 1.5-10.2 7.4-18.5 2.7-11.7 7.6-9.3 2.8-5.2 0-14.4 1.1-6.5 0.2-3.7-0.8-3.1-1.2-2.8-0.8-3.2 0-3.3 2-6.4 0-6.5 0.5-3.4 3.2-4.4 4.8-3.1 4.2-3.9 1.9-6.9-1.5-6.4-3.5-5.1-13.3-10.6-6.4-2.8-6.5-0.5-5.5 2.7-1.7 2.5-1.8 3.5-1.4 3.9-0.5 3.6-0.3 4.6-0.6 2.7-4.9 8.7-1.9 2.8-2.3 1.8-2.8 0.8-5.8-1.6-2.8 0-2.7 2.7-2.9 6.8-1.4 1.2-2.8-1.1-1.6-1.8-4.8-8.2-7.2-6.7-4.2-5.3-10.5-4.5-6.3-0.5-3-1.4-3.3-4.3-1.4-0.1-1.8 1.8-1.2 0.6-2.9-2-1.6-0.6-1.4 1.4-1.9 3.1-1.1 0.3-1.2-1.2-1-2.5-0.9-3.4-0.6-3.6-0.2-3-0.8-4.4-1.8-2.4-2.1-1.7-1.7-2.7-0.9-3.9 0-3.1 0.9-7.4 0.2-8.9-0.9-7.4-2.3-3.6-4.6 2.4-1.9-0.2-3.1-2.1-2.7-2.5 0.1-0.1 7.7-3.3 2.5-0.2 15.1 2.2 12.1-3.1 12.3 1.1-0.2-2.4-0.5-0.8-5.2-6-0.6-4.7 0.5-4.7-0.9-3.9 0.4-1.2 1.7 0.3 4.2 2.4 2.7 0 2.6-1.6 3.3-4.8 0.9-3.4 0.8-4.6 1.2-0.7 5.2 1.4 2.6-0.1 6-3.9 4.2-1.4 7.3-3.9 4.4 3.8 19.4 3.9 12.4 1.7 8-2.1 2.3-1.4 2.1-2.6 1-3.7 1.9-3.5 4.9-4.4 5.1-2.3 1.8 0.1 2.4 0.7 0.6 1.1-0.2 3.5 1.7 2.1 2.1 0 5.1-2.1 6.8-1.7 5.7-8.2 5.3 0.3 9.8 2.7 4-0.7 3.9-1.7 3-0.2 3.8 1 1.8 1.4 0.9 1.9 0.5 4.9 1.4 7 0.4 4.4 0.7 2.9 3.3-1.3 5.4-7.4 2.5-2.5 3.2-2.3 2.4-1.1 3.6 0.8 2.3-0.6 0.3-2.5 10.5 2.4 4.9-0.2 6.1-1.5z" id="EST2346" name="Pärnu" data-id="EST2346" data-name="Pärnu">
 </path>
 <path d="M888.2 451.2l0.2 0.5 8.1 16.6 2.3 8.2 1.5 3 5 2.4 0.5 3-0.6 7 0.2 6.5 0.6 7.3 1.2 7.2 2.2 6.3 2.8-8.8 1.2-2.6 1.4 0.6 2.9 2.4 1 7.1-0.8 3.8-1.1 3.3-0.6 3.4 0.9 4.2 1.3 1.6 15.9 6.6 2.6 2.9 1.3 5.8-2 4-3.6 2.6-9.9 4.1-22.7 3.5-1.6-1.4-15.2-6.2-8.6-1.7-5.5 1.4-6 3.1-3.6-0.7-2.4-4-1-0.8-2.7 0.4-1-0.3-0.6-1.6 1-3.9 1.5-2.9 5.3-4.8-0.4-4.2-2.4-3.3-1.1-0.2-2.7 2.4-1.6 0.1-2.4-0.8-8.8-4.4-10.1-7.2-2.5-1.6-3.2 0.2-2.8 1.1-2.3 2.2 0.8 7-1.3 1.1-17.5-6.7-4.3 1.7-3.8 1.2-3.3-0.9-13.9 1.1-4.8-2.4-8.4-1.9-3.7 1.4-3.9 0.5-4.7-0.6-2.4-0.8-1.6-1.3-6.1-2.4 0.7-15.5 1.3-3.7 0.5-5.2-0.4-5.9 0.3-3.2-0.2-2.3 1.8-6.4 1.5-4.2 3.1-3.4 4.5-2.2 1.1-1.3 1.3-2.6 0.2-2.5-0.6-5 0-1.7 0.7-0.3 2.3 1.2 1.6-0.2 1.5-1.5 1.9-2.8 1.8-1 1.3 0.1 1.6 2.4 0.5 1.1 4.7 0.1 9.8-3.3 4.3-4.5 1.4-4.9 2.4-5.1 1.9-1.5 1.6-0.7 1.8 0.2 1.1 0.8 7.2-1.3 4.1 4.2 3.2-0.3 1.4-2.1 2.5-5.8 1.9-1.1 1.6 0.4 4.5 3 3.1 0.4 2-0.8 2.4-3.1 1.9 0.1 1.1 1.6 2.4 1.8 13.9-0.1 2.9 3.1 0.7 5.4 1.3 1.2 3.4 1.3 3.1-0.1 2.5-0.8 23.1 7.6 0.3 0z" id="EST2347" name="Põlva" data-id="EST2347" data-name="Põlva">
 </path>
 <path d="M548.9 210.1l-5.4 5.8 0.2 2.5 2.1 2.6 0.3 3.2 0 3.1-0.3 3.2-1.1 2-3 1.6-2.6 2.2-3.2 8.1 1 2.4 2.4 1.4 2.8 3.9-1.2 3.7-1.4 2.5-1.2 4.1-2 3-3.6 1.1-2.1 1.4-0.6 1.7 0.4 1.9 2.6 5 0.5 4-0.3 2.3-3.3 8.2-6.1 1.5-4.9 0.2-10.5-2.4-0.3 2.5-2.3 0.6-3.6-0.8-2.4 1.1-3.2 2.3-2.5 2.5-5.4 7.4-3.3 1.3-0.7-2.9-0.4-4.4-1.4-7-0.5-4.9-0.9-1.9-1.8-1.4-3.8-1-3 0.2-3.9 1.7-4 0.7-9.8-2.7-5.3-0.3-5.7 8.2-6.8 1.7-5.1 2.1-2.1 0-1.7-2.1 0.2-3.5-0.6-1.1-2.4-0.7-1.8-0.1-5.1 2.3-4.9 4.4-1.9 3.5-1 3.7-2.1 2.6-2.3 1.4-8 2.1-12.4-1.7-19.4-3.9-4.4-3.8 2.9-8 0.4-1.8-0.5-1.5-1.6-1-7.4-0.1-2.8-1.1-0.9-1.6 0.7-3 5.7-2.6 1.2-2 6.6-5.5-2.3-2.6-0.6-2.1 0-3 1.1-1.7 4.3-2 1.5-1.5 0.1-2.4-1.6-2.5-1.7-3.5-6-15.9-6.1-10.2-0.6-4.4 3.1-6 4.4-3.4 1.3-2.8 1-2.9 1.1-1.5 2.2-1.1 3.5-0.2 5 1.6 10.6 0.9 3.4-6.3 8.4-13.6 1.5-1.8 17-3.9 11.5 1.1 1.5-0.4 1.1-4.1-0.2-1.6-2.3-4.2-0.3-1.7 2.1-3.5 0.8-6.1 2.5-4.7 1.3-1.7 3-2.5 2.2-3 5.2-3.7 17.6 2.4 1.3-1.2 2.2-1.2 10.7-3 5.9 0.3-0.9 7.2 0.2 3 1 2.6 2.8 2.7 5.2 8.8 3.7 2.7 10.4 3.7 2.2 4.9 9.1 5 3.6 0 2.4-0.3 1.7 1.3 2.7 2.8 1 5.3 0.9 5.9 0.9 2.3 2.1 2.4 4.9 3.3 5.1 4.5 6.5 3.4z" id="EST2348" name="Rapla" data-id="EST2348" data-name="Rapla">
 </path>
 <path d="M749 471.8l-3.1 3.4-1.5 4.2-1.8 6.4 0.2 2.3-0.3 3.2 0.4 5.9-0.5 5.2-1.3 3.7-0.7 15.5-18 2.6-5.2 1.9-0.5 1.5-0.1 5.1-0.8 3.8-2.9 5.2 0 2.5 4.4 1.1 1.5 3.2-2 5.7 0.2 1.4 0.3 9.3 4.2 3.6 4.4 1.4 1.3 2.3 0.2 2.2-0.8 3.9-1.1 1.8-2.6 2.2 0 1.7 0.8 2.2 0.3 3 1.2 2 3.8 3.3 0.2 2.3-0.7 2-3.1 2.9-3 5.2 0.3 1.1 2 2.6 3.4 3.6 0 1.6-0.6 1.8-1.3 1.4-2.9 2.1-0.9 1.6 0.1 1.1 1.3 3-1 6.4 0.4 4.4-14.4-6.3-6.5-4.7-5.4-6.4-14.8-24.4-5.3-6.1-17.3-14.6-1.4-3.6-0.5-6.1 0.5-2.7 1.5-3.5-0.6-2.9-1.1-1.4-1.9-0.9-33-3-3.9-3.8-2-5.9-1.5-6-2.4-4.1-2.4-0.1-10.2 3.5-3.9 0.4-3.7-0.6-3.5-2.1-3.3-4.4-0.8-2.4-0.2-2.2 3-5.7 1-3 1.1-2.5 3.9-6.7 0.3-2.6 0-5.2 1.5-1.5 4-0.7 2.4 0.4 2.6-0.5 2.6-1.8 4.5-5.3 5.8-4.8 8.6-4.3 1.1-1.5 0.6-2.1-0.9-2.9 0.5-1.8 1.1-1.4 2.2-1.9 0.5-2.7 0.9-1.3 2 0.3 4.1 3 2.1 3.2 2 4 1.9 2.1 4.9 0 3.2-1.6 14.1-4 26.3 2.1 3-1.6 3.5-2.5 2.6-0.8 2.7-2.4 6.3-7.6 1.9-1.4 1.9 0 1.7 2.7 1.6 1.4 3.1 3.6 1.7-0.3 3-1.1 2.1-1.2 9-2.8 3 2.3 1.5 1.8 3.3 2.4 1.4 1.6 2.6 5.1z" id="EST2349" name="Valga" data-id="EST2349" data-name="Valga">
 </path>
 <path d="M676.2 363.7l5.4 19.4 0 2.2-10.6 15.3-5.4 9.7-3.9 8.8 0.9 22.8 4.2 28.6-14.1 4-3.2 1.6-4.9 0-1.9-2.1-2-4-2.1-3.2-4.1-3-2-0.3-0.9 1.3-0.5 2.7-2.2 1.9-1.1 1.4-0.5 1.8 0.9 2.9-0.6 2.1-1.1 1.5-8.6 4.3-5.8 4.8-4.5 5.3-2.6 1.8-2.6 0.5-2.4-0.4-4 0.7-1.5 1.5 0 5.2-0.3 2.6-3.9 6.7-1.1 2.5-1 3-3 5.7-0.3-1.7-1.3-2.2-1.5-1-5.6-1.3-6.2-4-9.5-11.6-6.3-3.4-1.6 0.1-2 0.8-1.4-0.9-1-1.7-1.9-5.4-1-2.1-2.8-2.3-2.9-0.5-2 2-0.2 5.1 4.4 8.1 1.1 4.7-3.1 4.1-5.1 2.6-2.4 0-2.3-1.9-2-6.4-1.4-7.3-2.2-6.1-4-2.8-7.4 0.2-3.7 1.1-3.4 2.2-2.2 2.3-1.7-3.3-0.8-4.8-1.4-2.8 0.2-1.7 1.2-1.8 2.8-1.8 1.6-1.5 1.2-4 0.9-1.1 2.1-0.4 2.4 0.6 2.2 0.1 1.5-0.5 0.2-2.1-1.4-2.1-2.2-2.2-0.1-1.4 0.8-1.7 2.2-2.3 1.9 0.2 2.5 1.1 0.7-0.9 0.1-2.5-0.5-2.4-0.3-2.5 1-2.2 1.3-1.6 8.5-2 1.9 1.3 0.9 1.3 0.9-0.2 0.7-1.3-0.2-10.4-0.2-3.9 2.8-3.3-0.7-2.9-1.8-1.9-9.3-6.1-6.2-5.6-2.2-1.1-12.5-2.4-0.9-1-2.2-0.2-4.9 4.9-2.7-0.8-1-0.8-1.8-3.8 2.2-9.2 1.1-6.5-0.5-6.7 0.7-3.6 4.6-3.5-0.1-7.2-0.8-3.4-2.1-4.8 1.1-2.4 5.9-6.5 10.6-5 6.6-5 2-2.5 2.1-3.3 2.2-2.3 6.2-2.3 1.7-1.4-0.1-3-1.3-4.3 0.3-2.2 1.1-2 4.1-2.1 7.4 3.1 3.6 0.7 3.2 1.7 14 0.4 5.5-1.6 5.7-4.4 4.8 1.1 2.7-3.7 10.2-3.5 2.7-1.5 3.2-2.3 11.5-4.1 7-3 1.3 2.2 0.3 7.7 1 4-0.3 2.5-0.9 1.4-2.9 1.6-1.6 1.4-1.3 2.3 0.2 1.9 1.5 0.9 4.8-0.1 3.4 0.7 2.5-0.4 13.9 2 1.9 1.3 2.2 1.8 1.2 4.2 2.8 3.9 2 0.7 5 0.1 1.4 1.9 1.1 2.6 0.7 2.3 4.9 6.2 10.5 8.7z" id="EST2350" name="Viljandi" data-id="EST2350" data-name="Viljandi">
 </path>
 <path d="M900 563.7l-2.9 0.4-2.1 1.3 1.3 0.6 3.3 3.1-4.3 2.2-2.2 1.7-1.5 2.6-0.8 5 1.8 8.3-0.2 3.7-2.7 3-13 4.6-2.6 2.6-1 1.7-0.8 2.3-0.4 2.9 0.5 2.6 0.4 3.9 0.6 2-0.3 6.1-1.6 2.7-1.9 0.9-2.2 0.2-1.9 0.7-1.3 2.5 0 3.7 1.2 4.9 1.4 4.6 1.3 3.1-5.2 3.3-24.2-8.9-12.6-0.8-3.8-1.9-3.2-3.7-5.7-8.9-3.7-3-5.4-1.9-2.8 0-2.7 0.6-2.5-0.5-1.7-2-2-1.5-2.9 1.3-2.4 3.8-1.6 4.3-1.9 4.1-3.2 2.9-2.8 0.8-12.2-0.7-5.3 1.7-5.1 3.1-4.6 4.1-1 1.9-1.3 4-1.6 0.7-1.6-0.5-2.9-2.1-1.5-0.4-2.1 1.2-2.1 2-2.5 0.4-2.9-3.3-5.2-7.6-2.7-2.5-0.4-4.4 1-6.4-1.3-3-0.1-1.1 0.9-1.6 2.9-2.1 1.3-1.4 0.6-1.8 0-1.6-3.4-3.6-2-2.6-0.3-1.1 3-5.2 3.1-2.9 0.7-2-0.2-2.3-3.8-3.3-1.2-2-0.3-3-0.8-2.2 0-1.7 2.6-2.2 1.1-1.8 0.8-3.9-0.2-2.2-1.3-2.3-4.4-1.4-4.2-3.6-0.3-9.3-0.2-1.4 2-5.7-1.5-3.2-4.4-1.1 0-2.5 2.9-5.2 0.8-3.8 0.1-5.1 0.5-1.5 5.2-1.9 18-2.6 6.1 2.4 1.6 1.3 2.4 0.8 4.7 0.6 3.9-0.5 3.7-1.4 8.4 1.9 4.8 2.4 13.9-1.1 3.3 0.9 3.8-1.2 4.3-1.7 17.5 6.7 1.3-1.1-0.8-7 2.3-2.2 2.8-1.1 3.2-0.2 2.5 1.6 10.1 7.2 8.8 4.4 2.4 0.8 1.6-0.1 2.7-2.4 1.1 0.2 2.4 3.3 0.4 4.2-5.3 4.8-1.5 2.9-1 3.9 0.6 1.6 1 0.3 2.7-0.4 1 0.8 2.4 4 3.6 0.7 6-3.1 5.5-1.4 8.6 1.7 15.2 6.2 1.6 1.4z" id="EST2351" name="Võru" data-id="EST2351" data-name="Võru">
 </path>
 <path d="M226.8 571.8l-3.1 0.3-3.3-2.1-1.8-2.7 0.4-5 0.6-1.8 2.4 0.4 3.3 2.6 1.6 1.7 0.7 2.7-0.8 3.9z m-98.8-239.4l1.1 0.6 1.6-0.6 2.8-2.9 1-0.6 3.2 1 2.6 1.8 2.7 0.9 3.4-1.5 5.1-6.6 3.3-2.4 5.5 2.9 8.3-2.1 3.5 0.8 3.5 2.2 7.2 2.6 7.3 5.3 8.6 4 3.2 4.5 2.3 6.3 1.2 1.8 2.3 2.2 6.3 3.4 6.6 1.7 3.9 1.4 5.2 3.6 4.7 4.7 2.3 4.8-1.3 4.3-10-7.1-3.7 2.8 3.8 1.5 1.5 1.6 1.1 2.9-6.8-1-3-1.8-3.1-3.2-1.2-3.5-1-2-1.6-0.8-2.4 0-1.2 2.2-1.2 5.5-0.5 1.7-1.2 2-3.4 3.1-2.6-0.7-1.3 0.6-0.6 3.3 0.3 3.7 0.7 3.4-3.6 2.8-3.3 4.2-3.3 2.5-6.9-5.6-3.6 0.2-1.1 2.5 3.4 3.8-10.5 14.4-2.5 1.4-2.5 0.8-2.6 1.8-4.6 5.8-2.2 1.7-3.5 0.6-7.2-0.7-3.4 1.1-1.7 3.7 7.3 4.6-5.3 5.1-8.5 1.1-2.2-6.9-2.4-1.6-2.9-0.8-2.9 0.2-2.6 1.3-3.3 3.7-0.8-0.6-1.7-3.1-2.2-1.9-1.4 2-1.4 5.1-2.1 2-1.1 0.2-1-6.5-2.2-0.1-2.7 1.2-2.6 2.1-1.7 2.2-1.6 1.5-3.7-1.8-1.6 0.3-1.2 0.9-3 1.8-1.2 0.2-4.8 3.1-4.4 4.1-2.1 3-1.1 1-0.5 1.5-0.3 11.1-0.7 6.5-1.3 6.5-4.4 12.2-1.3 2.8-1.7 2.4-1.6 2.6-0.2 2.9 0.7 6.6-2 3-22.3 20.3-4.9 0.2-4.2-6.2 0.6-3.5-0.5-3.2-1.6-2.5-2.6-1.4-0.1-3.8 4.1 0.4 1.2-0.4 1.1-2 1.7-6.3 1-2.7 5.9-9.2 2.7-6.3 1.5-2.7 1.6-1.1 2.3 0.7 2 1.3 1.9 0.8 1.9-0.8 0.9-2 0.9-6.2 1-2.9 5.9-9.2-3.5-3.9-6.1-2.6-10.9-1.9-3-3.2-5.7-14.1-3.6-3.2-10.2-0.1-5.1-1.7-4.5-4.1-2.6-5.2-1.2-3.5-0.1-2.6 2-1.4 8.2 2.5-1.8-4.6-2.7-4.7-1-3.6 3.4-1.4 2.8 2 2.5 3.9 2.5 2.4 3-2.4-1.4-5.2 2.1-3.1 3.5-1 3.3 1.1-1.4-3.4-1.9-6.4-7-13.6-3.3-4.5-3.7-6.4-2.1-2.7-4.5-4.3-4.2-5.8 8.3 3.9 2.5 0 2.4-0.9 0.4-2.7 1.5-2.5 6 0.2 4.5 1.5 4 4 6.8 12.8 0.9 3.1 0.6 5.9 0.7 0.9 1.8 0.5 1.4-1.2 0-2.6-0.8-4.4 0.8-7.9 0.8-3.4 1.6-3.3 2-2 5.1-2.7 2-2.4 1.8-4.2 0.7-2.2 1.1-0.9 2.9-0.1 1.4 4 0.4 5 0.7 1.7 2.2 1.8 4.7 0.8 1.6-6 0.1-8.3 0.7-6 5.3-4.6 22.2-2.5 13.7-11 5.1-1.5 1.7 1.6 3 7.1 2.7 2.2 1.7 2.9z m111.1-11l-0.4 2.9 0.3 2.5 1.3 2.7 2.8 3.6 1.2 2 2.5 4.9 0.5 2.4-3.2 2.4-1.3 2.7-1.5 1.9-2.4-1-2.5-1.8-2.7-0.9-5.6-0.5-2.1 0.7-4.7 2.8-1.8-0.3-14-13.3-8-3.2-3.8-3.9 0.6-6.4 1.9-1.6 4.9 1.7 2.3-1.2 0.4-1.7 1.1-6.2 0.6-2.3 3.2-4.2 3.3-1.6 3.5 0.2 14.2 4.2 6.6 4.1 2.1 2.5 0.8 2.9-0.1 3z" id="EST2352" name="Saare" data-id="EST2352" data-name="Saare">
 </path>
 <circle cx="157.3" cy="221.2" id="0">
 </circle>
 <circle cx="606.9" cy="503.6" id="1">
 </circle>
 <circle cx="804.8" cy="354.1" id="2">
 </circle>
</svg>