<?xml version="1.0"?>
<!--
************* Copyright (c) 2017 Pareto Softare, LLC DBA Simplemaps.com *******************		
************* Free for Commercial Use, full terms at  http://simplemaps.com/resources/svg-license ************
************* Attribution is appreciated! http://simplemaps.com ***************************
-->
<svg baseprofile="tiny" fill="#7c7c7c" height="899" stroke="#ffffff" stroke-linecap="round" stroke-linejoin="round" stroke-width="2" version="1.2" viewbox="0 0 1000 899" width="1000" xmlns="http://www.w3.org/2000/svg">
 <path d="M998.8 1l0 12.6 0 12.5 0 12.6 0 12.6 0 1.8 0 5.2 0 8.1 0.1 10.4 0 12.4 0 13.8 0 14.7 0 15.2 0 15.1 0 14.7 0.1 13.7 0 12.3 0 10.4 0 8 0 5.1 0 1.8 0 6-0.8 1.7-2.3 0.7-10.1 0-11.9 0-12 0-11.9 0-11.9 0-12 0-11.9 0-11.9 0-11.9 0-12 0-11.9 0-11.9 0-12 0-11.9 0-12 0-11.9 0-11.9 0-12 0-11.9 0-11.9 0-11.9 0-12 0-11.9 0-11.9 0-12 0-11.9 0-11.9 0-12 0-11.9 0-12 0-11.9 0-11.9 0-11.9 0 0 10 0 10 0 9.9 0 10 0 9.9 0 9.9 0 10 0 9.9 0 9.9 0 9.9 0 9.9 0 9.9 0 9.9 0 9.9 0 9.9 0 9.8 0 9.9 0 9.9 0 9.8 0 9.9 0 9.8 0 9.9 0 9.8 0 9.8 0 9.8 0 9.9 0 9.8 0 9.8 0 9.8 0 9.8 0 9.8 0 9.7 0 10.5-0.5 4.4-1.6 2.1-12.1 3.3-26 12.5-4.2 1.3-20 2.8-7.2 2.6-7.5 5.1-12.7 8.9-14.9 10.3-11.8 8.3-2.3 2.9-10.1 14.4-3.9 8.1-1.5 8.7 1.2 8.2 5.8 16.5 1.5 8.3 2 32.1 1.9 32 3.4 52.8 0.7 11 1.3 20.6-17.4 0-4.9 0-13.8 0-21.5 0-27.9 0-33 0.1-33.2 0-3.7 0-39.4 0-40.6 0-40.7 0-39.4 0-36.8 0-33 0-27.9 0-21.5 0-13.9 0-4.9 0-13.7 0-1.2 1.1-2 11-2.3 12.2-5 14.5-0.8 4.1-2.8 11.5-0.4 3.8 2.9 13.7-1.4-3.2-3.8-5.8-0.5-3.1 0.4-1.8 1.1-3 0.2-1.8 0-6 0.5-2.3 2.2-6.5 4.8-37.9 1.1-4.6 0.3-1.9 0.2-5.1 7.5-1.2 26.1-5.1 17.8-1.4 46.2 0 17.7-2.5 14.3 0 20.1 1.3 16.6 2.6 17.8 2.5 20.1 0 16.6 1.2 21.3 0 15.4-1.2 10.7-6.4 9.5-12.7 3.5-10.2 3.6-9-1.2-8.9-1.2-5.2 5.9-6.3 7.1-10.3 7.1-6.3 2.4-5.2 7.1-5.1 8.3-9 4.7-6.4 5.9-8.8 1.2-7.8 2.4-10.3 0-17.9 2.4-21.8 3.5-14.2 2.4-11.6 2.4-18 7.1-31 2.3-9 4.8-14.2 5.9-13 4.7-9.1 6-7.7 8.3-5.2 13-5.2 9.5-5.2 11.8-5.2 10.7-3.9 9.5-5.2 3.5-5 5.9-9.2 8.3-16.9 4.8-10.4 7.1-13.1 8.3-9 5.1-3.5 4.3-3 10.7-6.6 13.1-7.8 9.4-6.5 8.3-6.6 7.1-5.1 8.3-7.9 3.6-6.5 4.7-11.7 5.9-18.4 4.8-19.6 4.7-21 3.6-13.1 3.5-15.8 4.8-11.9 3.5-13.2 2.4-5.2 0-6.6 2.4-9.3 0.5-0.7 3-4.6 8.3-2.5 9.5-2.7 14.9-2.1 4.4-2.3 2.2-7.8 1.8-6.7 5.6-10.8 6.3-8.7 3.6-5.3 4.9-9.1 4.9-6.6 8.4-8.5 7.3-6.6 2.5-6.7 0-8-5.2-6.5-3.8-12 15.3-3.6 13.4-4 12.3-3.9 14.7-5.3 11 0 8.6-1.3 12.2 2.6 12.2 1.3 8.6 4 14.7 7.9 12.2 5.3 7.4 0 7.9-2.6 6.6-3.7 4.1-0.3 6.1 2.7 9.5 5.4 9.8 0 9.8-1.5 7.3-6.6 12.3-10.6 9.8-8 8.8-5 7.1-1.3 8 0 9.1-0.3 14.7 1.3 9.8 0 13.3-1.8 11.2-2.2 4.9-4.1 0-5.3-2.5-7.9-2.6-7.7-0.7-7.1 1.6-7.4 1.7-5.9-1.2-9.4-3.5-11.1-0.6-6.1 0.2-0.3 7.6 0 8.3 0z" id="SAH00" name="Western Sahara" data-id="SAH00" data-name="Western Sahara">
 </path>
 <circle cx="488.2" cy="27.6" id="0">
 </circle>
 <circle cx="137.4" cy="527.3" id="1">
 </circle>
 <circle cx="770.6" cy="209.5" id="2">
 </circle>
</svg>