<?xml version="1.0"?>
<!--
************* Copyright (c) 2017 Pareto Softare, LLC DBA Simplemaps.com *******************		
************* Free for Commercial Use, full terms at  http://simplemaps.com/resources/svg-license ************
************* Attribution is appreciated! http://simplemaps.com ***************************
-->
<svg baseprofile="tiny" fill="#7c7c7c" height="870" stroke="#ffffff" stroke-linecap="round" stroke-linejoin="round" stroke-width="2" version="1.2" viewbox="0 0 1000 870" width="1000" xmlns="http://www.w3.org/2000/svg">
 <path d="M998.9 814.2l0.1 1.2-1.3 0.1-0.7-1 1.9-0.3z m-29.9-16.7l0.3 1.2-1.5-0.5-1.2-1-0.3-2 1.1 0.2 1.6 2.1z m0.1-8.4l1.5 2.2-0.6-0.1-2-1.6-1.1-1.4-0.1-1.7 1.4-0.5 0.7 1.2 0.2 1.9z m-5.7-11.9l6.5 3.1 0.8 0.8 0.3 1.2-1.3 0.4-0.3 2.3-1.1 0.6-1.2-0.7-0.5-1.7-1.9-0.2-1 0.2-1.1 1-0.7-0.7-1.2-2.5-0.3-2.4 0.9-0.8 2 1.3 0.5-0.5-0.4-1.4z m-5.7-12l-1.2 0.7-1.2-0.6-0.9 0.5 0.2 0.8 0.7 0.3 0.7 1.1 1.4 1.6 1 0.4-0.6 0.9-4.2-1.4-1.2-1 0.3-1.9 2.1-1.5 2.9 0.1z m-380.2-296.9l-1.7 1-1-0.1-3.3 0.3-0.5-0.8-0.2-1.2 3.5-6.2 0.5-2.9 0.7-1 1.8-0.1 3.1 0.7 1.7 2.4 0.7 3.4-0.9 1.1-1.7 0.8-2.7 2.6z m-4.5-20.6l-3.1 1.5-1.3-0.1-0.7-0.9-1.9-0.5-0.2-0.5-0.6-2.6 0.1-1.3 0.6-1.3 0-1.5 0.9-1.4 6.3-3.6 1.8-0.2 0.8 1-0.6 0.9-1.4 1.3-0.8 2-0.6 0.7-1.3 0-0.4 0.7 1.7 1.9 0.9 2.2-0.2 1.7z" id="ERI99" name="" data-id="ERI99" data-name="">
 </path>
 <path d="M351.4 380.3l0.3 61.7-9.9-1.1-4.7 0.7-6.1 2.6-12.8 3.2-13.2 0.9-2.2 0.5-2.2 0.9-2.7 1.7-5.7 6.4-3.2 5.6-2.2 2.8-2 1.8-5.6 2.2-3.3 2-2.6 2.4-1.4 2-2.2 6.1-2.8 5.7-0.5 2.7 0.3 3.6 1 4.4 4.6 10.3 0.7 5.6-1.7 4.3-1-2.4-1.5-1.8-2.3-1-3.5-0.2-8.4 1.5-2.7-0.5-16.1-6.7-1.2-1-0.9-1.5-0.4-2.5-1.4-1.1-1.7-0.3-0.7-0.8-0.9-2.6-0.1-2.2-0.5-0.5-1.4-0.2-0.7-0.5-2.8-5.7-1.8-2.6-2.6-2.3-6 14.7-28.5 68.8-13.9 33.4-1.7 1.7-2.6-1.7-1.6-1.9-0.7-2.5-0.2-3.9-0.4-1.5-1.2-1.1-1.5-0.8-1.5-0.3-1.9-0.7-0.9-1.7-0.7-3.8-1.1-2.9-0.7-0.9-6-5.1-2.1-1.2-0.4-1.6 0-3.5-0.2-2.3-0.5-1.3-2.3-2.2-5.6-8.2-2.8-1.6-3.6-3.2-2.1 0.3-3.2 1.2-11-0.2-5.1 1.1-4.3 3.3-2.2 3.3-1.2 3-0.5 3.1-0.1 3.7-0.4 3.2-1.1 2.5-1.6 1.9-1.9 1.3-1.1 0.2-2.7-0.3-1.2 0.1-2.2 1.8-0.9 0.3-1.5-0.2-1.3-0.4-2.3-1.5-2.7-3.7-0.9-0.6-4.9-0.6-9.7-2.9-4.7-0.7-10.2 0-1.4 0.4-2.4 1.5-1.3 0.3-6.7 0-2.9 0.5-4.6 2.2-2.1 0.5-3.1 0-2.5 0.6-1.9 1.6-1.1 3-2.9-0.1-3.2-28.1-10.3-87.3-1.7-14.6 0.2-3.4 1.2-2.6 10.9-10.7 2.7-4.3 7.5-22.3 2.9-4.8 4.9-3.3-2-6.7 0.3-6.5 8.1-29.5 1.8-3.4 7.3-7.6 4-6.6 13.8-39.6 5-14 2.4-4.1 6.2-6.4 1.5-4-0.4-3.3-2.7-6.2-0.8-3.3 0.3-3.3 0.5-2.8 0.1-2.7-1-2.7 4.1 0.7 3 4.3 1.2 3.4 0.9 4 1 8.6 1 3.9 0.9 2.4 1.1 1.5 2.4 2.1 1.3 1.3 1.2 1.8 2 4.8 1.1 1.5 2 1.2 3.4 1.3 13.9 3.3 7.6 2.6 9.2 5.7 5.7 5.7 4.4 7 2.8 6.5 2.5 3.6 2.9 2.2 5.1 1.6 4.5 1.9 2.8 1.8 1.1 1.6 0.3 1.4-0.1 1.4 1 1.1 2.2 0.8 10.8 0 10.5-1.4 4.1 0 4.2 1.1 5.2 2.6 4.2 3 3.1 1.7 3.4 0.6 5.2 0.2 3.9 0.5 4.8 1.5 8.6 3.8 14.5 9.8 2.6 1 3.8-0.4 3.2-1.1 8.2-4.1 3.6-1.2 4 0.1 5 1.5 7 4.6 4.9 4.9 4 5.4 4 8 3.2 2.3 4.9 1.2 27.2 0.8 15.1-1.8z" id="ERI1560" name="Gash Barka" data-id="ERI1560" data-name="Gash Barka">
 </path>
 <path d="M431.5 438.9l-1.6 2-1.2 0.7-1.8 0.7-1.6-0.3-73.6 0-0.3-61.7 1.8-1.4 1.2-0.1 2 0.3 1.2 0.7 1.7 1.3 1.1 0.1 1.7-0.3 5.5-1.9 9.4-1.6 2.6 6.8 3.6 7 13.5 20.9 8.7 9.6 7.1 6.3 12.9 6.8 6.1 4.1z" id="ERI1561" name="Anseba" data-id="ERI1561" data-name="Anseba">
 </path>
 <path d="M535.4 330.1l5.4 2.1 4.3 3 2 3.2-0.7 2.3-1.6 1.7-0.3 1.7 1.2 1.1 1.4 0.1 2.6-1.2-1-1.7-0.1-1 1.6-0.4 1.5 0.9 0.4 2.1-0.9 12.5 0.4 2.4 1 2.2 2.6 4.5 0.6 1.2 1.4 0.1 8.7 2.6 2.3-4.3 0.8-1-0.7-1-3-0.9-1.3-1.8 1.1-1.7 2.6-0.9 3.4-0.2 3 0.2 3 0.8 2.1 1.3 0.5 1.2 0.7 2.6 3.4 0.9 3.1 2.1 1.9 0.5 2.2 0.1 0.7 0.4 1.2 6.1-0.9 2.8-2.1 1.2-3.1-1.6-2.4-0.5-7.2 1.8-3.1 0.2-3.2-1.1-5.1-2.5-3.4-0.5-7.4 1.6-2.3-0.4-2-2.5-1-0.9-1.4 2.5-1.7 1.3-2.5 0.3-3.6-0.7-6-2.4-2.8-0.6-3.4 0.8-2.2-3.1-3.9-11.7 1.7 0.1 1 0.3 0.2 0.7-0.9 1 1.2 0.7 0.9 1 0.9 2.5 1.1 0 1.4-0.5 2 0.8 2.1 1.2 1.6 0.6 1.9-0.1 6.2-2-2.7-4.8-3.6-4.1-4.4-2.7-5-1-4.9 1-1.7-0.4-1.1-2.8 0.2-3 1.3-1.7 2-0.3 4.4 2.9 2 0.2 0.6-1.3-1.8-2.6-1-3.1 2.9-1.5 3.9-0.3 1.8 0.1 0.6-1.9-1-2.4-1.7-2.2-1.5-0.9-5.1 0.4-1.7-0.8-1.8-2.6 5.4 0.4 5.8 1.3z m13.1-15.9l-2.7 0.7-4.3-1.4-3.7-2-6.3-0.7-1.5-1.5 0-2.6 1.2-2.4 2.6-1 3.4-0.2 1.3-0.9-0.8-2.8-0.1-1.6 0.3-1.7 1.1-0.7 3.7 3 1.1 0.6 1.5 0.4 2.6 1.2 1.2 1.8-1 1.4-2.5 0.9-2.2 2-0.4 2.4 0.9 0.8 1.3 0.7 1 1.1 1.5 1.1 0.8 1.4z m67.9 159.2l-0.2 1 0.3 4.9 2.9 14.7 0.4 6.3-0.7 5.7-2.2 5.7-13.2 19-7.5 16.4-10.7 17.9-1.6 2.9-11.3-10.7-5.9-3.5-6.4-2.6-13.3-3.3-2.6 0.1-7.4 2.2-2.1 0-6.4-1.2-2.7 0.7-4.6 3.9-2.9 0.9-2.8-0.5-2.3-1.1-7.8-6.8-4.1-2.6-4.4-1.5-4.7 0.2-1.8 0.3-51.1-88.6-3.1-7.2-4.7-7.7-6.1-4.1-12.9-6.8-7.1-6.3-8.7-9.6-13.5-20.9-3.6-7-2.6-6.8-5-18.8-13.1-22.1-2.2-2.9-1.9-1.3-20-2.6-7-2.1-7-2.9-7.2-4.9-3.2-4.3-1.6-5.1-0.4-12.5 0.5-3.8 1-2.8 1.3-2.4 0.7-2.2 0.4-3-0.1-3.6-0.9-4.5-1.8-5.3-4.3-7.7-3.8-4.6-3.5-3-3.3-3.8-1.5-3.9-2.2-8.3-1.8-3.4-3-4.3-1.3-3.1-0.9-3.2-0.9-2.3-1.7-1.4-33.8-6.1-3.6-1.8-3.4-3.6-0.9-3.5 0.5-4.7 2.1-10-0.1-5-0.8-3.2-1.9-2.7-2.4-2.5-3.2-4.3-1.1-3.2 0.3-3.7 1.1-3.2 1.6-7.6 2.6-63.7-1.1-17.4-0.2-1.6 3.6-1.4 3.4 0 1.4 1.6 0.1 2.6-0.2 3.1 0.9 3.4 2.2-0.1 2.4-2.1 1.6-3 0-1.6-0.5-2.1 0.6-1.4 0.9-0.1 5.2-1.7 2.4 1.5 2.3 2.3 2.6 1.7 3.5-0.6 2.5-2.5 0.4-3.1-0.2-3.3 0.8-3 2.5-2.4 7.4-3.6 3-2.3 4.1-6.7 8.9-23.9 4.1-6 21.1-17.8 0.4 1.6 1.3 1.7 1.1 4.8 6.3 9 0.5 1.6 0.2 3.2 0.4 1.6 2.6 3.8 0.5 0.9 0.7 2.7 14 21.4 10.3 24.3 10.3 18 3.6 13.2 1.7 3.1-1.8 6 2.8 4.7 4 4.3 2.1 4.7 0.8 6 1.2 5.2 4.4 9.2 0.7 3 0.5 6.3 0.8 3.1 2.3 4.5 0.8 6.3 0.7 2.6 4.9 11.3 3.2 12.1-2-1.1 3 6.9 0.8 3.4 0.3 4.5-2.8 2.9 2.4 7.1-0.6 3.9-1.1-1 0.2 2.4 1.5 0.7 1.6 0 0.8 0.5-0.2 5.4 0.2 1.4 1.8 4 0.2 1.9-0.2 6.1 0.2 2 0.5 1.4 1.4 2.5 0.2 1.9-0.2 1.9-0.9 3.8 0 2.2 4.6 20.2 0.6 6.8 0.5 2.3 3.5 7.7 5.2 20.1 2.8 5.4 8.9 5.4 1.4 2.4 1.1 1 5.5 2.5 1.5 1.3 0 2-0.7 1.7-0.9 1.5-0.5 1.6 0.5 1.9 2.1 2.2 0.5 1.2 0.2 4.1 0.8 2.5 4 4.5-2.5 0.3-1.8 1.5-0.6 2.2 0.9 2.4 0.6-1.3 1.4-1.5 1.6-0.7 1.5 1.3-0.4 3-2.8 1.3-3.4 0.5-1.5 0 0.3 1.4 2.7 4.4 0.7 5.1 0.3 1.2 2.1 0.8 3.4 0.3 3.3-0.4 1.4-1.3 1.1-1.8 2.7-0.4 3 0.6 2.2 1.1 3.6 4.9 7.8 25.2 0.6 0.5 2.8 1.1 0.6 0.5 0.3 2.7 0.9 2.6 1.3 2.1 1.6 1.6-2.2 8.4-0.8 13.1 0.3 0.7 1.4 1 0.4 0.5 0.5 2.4 1.4 1.2 1.9 0.1 2.1-1.1 1.5 2.9 1.7 0.4 2.3-0.7 3.3-0.5 1-0.8 0.8-1.8 0.4-1.9-0.2-1.3-0.8-1.4 0.6-1 1.8-1.2 2.8-5.1 0.3-3-2.9-5.2-1.6-6.2-1.3-2.2-1.9 0-1.2 2.4-1 1.3-1.3-3.2-0.4-3 0.4-8-0.2-1.7-0.8-2.9-0.1-1.7 0.3-1.9 1.8-0.9 0.9-0.9 1-5.3 1-1.5 2.1 1.5 1 0 0.1-1.2 1-3 0.9 0 0 2 1.6-1.3 2-3.3 1.4-1.7 2.2 4 2.9 3.2 14.1 11.8 2.2 1.1 3.4 0.7 1.2 0.5 1.5 0.9 1.7 1.4 1.1 1.6 0.5 1.6-0.3 1.7-1 1.8-2.7 2.1-1.3 1.4-0.8 1.5-2.3 5.8 1.7-0.2 1.2 0.4 0.9 1 0.3 1.5-0.4 0.5-1.5 0.6 0 1.1 0.7 0.6 1 1.7 3.4 2.6 0.8 1.4 0.5 1.9 1.9 4 0.7 2-0.1 1.7-0.4 2-0.2 2 0.7 1.7 1.8-0.7 2 0.5 1.7 1.1 0.9 2.9 1.4 0.4 0.4 0.9-0.1 1.4-0.8 2.3-0.2 1.1 1.4 2.8 3.5 1.7 10.9 3.9 2.4 1.2 1.1 0.9 1 2.8 2.2-0.5 3.4-2.9 3.4-1.3 2.3-3.1 1.9-3.4 2.1-2.6-0.2 2.5 0.5 2.1 1.4 1.1 2.4-0.4 0.8-1.4-0.3-1.7 0.3-1.5 2.6-0.7 2.1-0.2 1.5 1.2-0.5 1.6 0.3 1 2.9 1 1 1.7 1.4 0 1.8-1.2 1.3-1.9-0.7-1.3-0.3-1.2-0.1-2.9 0.9 0.8 0.7 1.7 0.5 0.7 4.1 1 0.3 1.3-0.1 2.7 0.8 1.4 1.1 0.7 0.6-0.1z" id="ERI1562" name="Debub" data-id="ERI1562" data-name="Debub">
 </path>
 <path d="M377 377.4l-9.4 1.6-5.5 1.9-1.7 0.3-1.1-0.1-1.7-1.3-1.2-0.7-2-0.3-1.2 0.1-1.8 1.4-15.1 1.8-27.2-0.8-4.9-1.2-3.2-2.3-4-8-4-5.4-4.9-4.9-7-4.6-5-1.5-4-0.1-3.6 1.2-8.2 4.1-3.2 1.1-3.8 0.4-2.6-1-14.5-9.8-8.6-3.8-4.8-1.5-3.9-0.5-5.2-0.2-3.4-0.6-3.1-1.7-4.2-3-5.2-2.6-4.2-1.1-4.1 0-10.5 1.4-10.8 0-2.2-0.8-1-1.1 0.1-1.4-0.3-1.4-1.1-1.6-2.8-1.8-4.5-1.9-5.1-1.6-2.9-2.2-2.5-3.6-2.8-6.5-4.4-7-5.7-5.7-9.2-5.7-7.6-2.6-13.9-3.3-3.4-1.3-2-1.2-1.1-1.5-2-4.8-1.2-1.8-1.3-1.3-2.4-2.1-1.1-1.5-0.9-2.4-1-3.9-1-8.6-0.9-4-1.2-3.4-3-4.3-4.1-0.7-0.2-0.4-2.1-2.8-2.3-2.5-1.9-2.8-1-3.6 0.1-2.1 1.8-6.2 0.5-2.9-0.3-5.1 0.2-2.7 1.4-3 2.2-2 4.9-3.6 1.6-2.1 3.7-9.3 0.5-9.3 0.3-0.7 1.3-1.8-0.1-0.9-1.1-2 0.3-6.2-0.4-2-1.3-1.9-1.5-1.6-0.5-1.6 3.6-5.2 0.7-3-0.6-3-2.9-4.1-0.4-1.4 0.4-1.3 0.9-1.2 3.1-0.4 2.3 1.1 2.3 1.5 2.6 1.1 3.8 0.7 1.6 0.5 5.7 3.6 1.5 0.2 8-1.3 2.2 0.4 4.5-0.3 7.1-4.4 4.2-0.4 13.9 3.9 8.4-10 1.2-3.1 0.7-3.5 3.3-5.8 0.9-3.2 0.7-6.5-0.1-2.8-1.7-7.1 0.4-1.8 1.6-1 19.6-6.1 6-0.8 6-3.2 6.5-11.7 5.2-2.8 3 0.8 4.4 4.3 3.4 1.1 3.6-0.8 2.9-2.3 4.6-6 10.1-6.8 0.2 1.6 1.1 17.4-2.6 63.7-1.6 7.6-1.1 3.2-0.3 3.7 1.1 3.2 3.2 4.3 2.4 2.5 1.9 2.7 0.8 3.2 0.1 5-2.1 10-0.5 4.7 0.9 3.5 3.4 3.6 3.6 1.8 33.8 6.1 1.7 1.4 0.9 2.3 0.9 3.2 1.3 3.1 3 4.3 1.8 3.4 2.2 8.3 1.5 3.9 3.3 3.8 3.5 3 3.8 4.6 4.3 7.7 1.8 5.3 0.9 4.5 0.1 3.6-0.4 3-0.7 2.2-1.3 2.4-1 2.8-0.5 3.8 0.4 12.5 1.6 5.1 3.2 4.3 7.2 4.9 7 2.9 7 2.1 20 2.6 1.9 1.3 2.2 2.9 13.1 22.1 5 18.8z" id="ERI1563" name="Semenawi Keyih Bahri" data-id="ERI1563" data-name="Semenawi Keyih Bahri">
 </path>
 <path d="M490.4 542.4l-6.7 1.1-4-0.4-7.6-2.3-1.8-1.3-3-3.7-2.3-1.9-2.9-1.6-2.6-0.1-1.1 3.1-2.7 3.6-6 2.9-12.2 3.4-2.8 0.2-8-1.3-3.7 0.6-2 1.8-3.3 5.2-3.7 0.1-3-5.7-4.4-12.7-2-3.3-2.6-3.1-2.9-2.8-3.3-2-1.5-0.6-4.2-1-5.3-0.6-0.2-0.6-1.9 1.9-0.3 2.6 0.3 2.8-0.5 2.9-2.1 2.7-3 2-6.2 2.9-4.9 4.5-2.7 1.9-6.6 0.6-8.9 3.7-2.8 0.7-2.7 0.2-2.7-0.2-2.7-0.9-2.9-0.1-9.2 4.8-5.5 1.4-11.4 1.3-7.3 0-1.2 0.3-1.3-0.1-1.8-1.4-0.8-1.4-1-3.3-1.2-1.1-8-4.4-2.3-1.8-1.7-2.2-1.2-2.7-1.4-5.9-1-1.9-1.5-1.2-1.8-1-1.4-1.3-0.7-1.5-0.7-4.2-0.3-0.7 1.7-4.3-0.7-5.6-4.6-10.3-1-4.4-0.3-3.6 0.5-2.7 2.8-5.7 2.2-6.1 1.4-2 2.6-2.4 3.3-2 5.6-2.2 2-1.8 2.2-2.8 3.2-5.6 5.7-6.4 2.7-1.7 2.2-0.9 2.2-0.5 13.2-0.9 12.8-3.2 6.1-2.6 4.7-0.7 9.9 1.1 73.6 0 1.6 0.3 1.8-0.7 1.2-0.7 1.6-2 4.7 7.7 3.1 7.2 51.1 88.6z" id="ERI1564" name="Maekel" data-id="ERI1564" data-name="Maekel">
 </path>
 <path d="M583.9 567.9l1.6-2.9 10.7-17.9 7.5-16.4 13.2-19 2.2-5.7 0.7-5.7-0.4-6.3-2.9-14.7-0.3-4.9 0.2-1 1-0.5 1.3-0.1 2.8 0.4 1.4 0.6 0.6 1.5 0.6 6 0.5 1.2 4.3 1.8-0.7-2.6 1.2-0.8 4.1 0.3 1 0.7 0.4 1.3-0.7 0.9-2.3-0.8-0.9 1 7.1 7.4 0.6-0.6 0.7 0.3 0.7 1.3 0.2 1.1-0.2 4.2-1.2 3.5-0.1 1.7 1.3 2.1 3.8 2.7 1.2 1.7 0.1 3 2.9-1.7 1.6-0.1 1.6 0.6 0-2.9 3.4 1.5 8-0.4 4.3 2.4 4.6 3.3 4.1 1.2 10.1 0.4 17.1 3.9 1.7 0.7 1.8 2.4 2.4 5.6 2 2.6 11 7.7 3.5 4.4 2.3 5.3 0.9 5.6 1.1 2.4 2.5 1.5 2.4 1.2 1.2 1.3 0.6 1.1 2.8 3.4 1.9 6.2 3.1 3.7 6.8 6 3.9 4.5 1.3 2.2 1 2.7 1.2 5 0.6 1.8 1.3 1.7 2 1.5 4.9 3 2.6 2.2 2.2 2.8 5.4 10.3 1.6 6.3 1.2 2.3 9.5 2.8 2 0.2 4.7-1.9 1.9-0.2 1.1 0.7 2.9 5 2.4 2.5 1.1 0.7 2.1 0.5 1.7-0.1 3.3-0.8 1.1-0.2 2.6 1 5.2 3.5 1.9 0.7 1.7 1.2 0.7 2.8 0.5 3.2 0.7 2.3 6.1 4.8 1 2 0.6 0 3.4 4.7 1 2.1 2.1 1 0.6 1.8 0.9 3.3 1 1.7 1.6 0.4 1.8-0.7 1.5-0.9 0.7 0.2 0.5 0.9 2.5 1.8 1 0.9 0.6 1.4 0.8 3.5 0.6 1.3 3.5 2.6 0.6 0.2 0.6 2.1 1.1 0 1-1-3-3.9-0.5-0.9-1.2-1.1 0-1.1 3 0 0.1-4-2-1.8-2.5-1.3-3.2-0.2-1.2-0.4 0.4-0.9 1.4-0.7 1.9-0.1 5.1 4.2 5.5 7.4 2.1 0.9 2.7 1.7 0.9 3.8 0 6.2 1.7 5 1.3 2.3 1.6 1 1.4 1.7 1.1 3.9 2.3 17.6 2.1 3.7 0.8 7.4 0.3 1.1 4.6 2.7 3.1 1 6.7 0.6 2.9-0.5 1.7-1.4 1-2 1-2.4 1.9 0.5 0.6 0.9 0 1.3 0.6 1.5 1.9 1.3 0.8 0.8 0.3 1.6 1.2 2 7.5 6.3 5.1 8.7 2 1.2 2.9 0.5 2.4 1.1 2.1 1.5 1.7 1.6 1.1 2.4 1.5 8.5 2.4 5.6 0.6 2.8 0.4 4.3 0.5 2.5 1.1 1.5 2.1 0.6 1.9-0.6 2-1.1 2.1-0.8 2 4.1 2.9 2.5 4.1 1.2 5.3 0.4-0.7 0.7-1.3 2.4 1.4 0.1 1.1-0.3 4.1-2.9 0.5 0 1.7-2 1.4-2.2 0.6-3.2 1.4-0.8-0.9-1.6-0.2-1.4 0.3-1.4 0.8-1 4.2 3.2 2 2 1.5 3.2 1.6 1.3 1.9 1.2 1.5 1.2 1 1.9 0.2 4.6 0.4 2.3 3.9 7.2-0.9 1.1-32.2 14-1.5 0.1-1.9-1.5-1.3-0.1-2.5 2.2-3.4 8.2-6.5 6.1 0.5 4.5 1.4 4.8-0.9 4.1-1.8 1-4.4 0.8-1.3 1.4-2 2.9-5.4 1.5-2 2.9-23.2-20.7-6.8-3-4.1-1.1-2.6 0.5-7.6 8.2-7.1-7.5-12.1-16.5-9.6-16.6-7.1-6.1-8.3-4.7-8.4-3.5-11.6-7.5-7.8-10.9-11.5-25.1-4.7-7.9-5-6.6-5.8-6.1-26.9-22.2-45.7-29.4-4.5-4.5-22-39.2-31.2-35.7-9.1-6.4-10-3.8-13.4-2-4.2-1.3-15.8-7.6-8.6-4.5-10.1-9.4z" id="ERI1565" name="Debubawi Keyih Bahri" data-id="ERI1565" data-name="Debubawi Keyih Bahri">
 </path>
 <circle cx="360.6" cy="469.9" id="0">
 </circle>
 <circle cx="278" cy="287" id="1">
 </circle>
 <circle cx="160.7" cy="419.8" id="2">
 </circle>
</svg>