<?xml version="1.0"?>
<!--
************* Copyright (c) 2017 Pareto Softare, LLC DBA Simplemaps.com *******************		
************* Free for Commercial Use, full terms at  http://simplemaps.com/resources/svg-license ************
************* Attribution is appreciated! http://simplemaps.com ***************************
-->
<svg baseprofile="tiny" fill="#7c7c7c" height="778" stroke="#ffffff" stroke-linecap="round" stroke-linejoin="round" stroke-width="2" version="1.2" viewbox="0 0 1000 778" width="1000" xmlns="http://www.w3.org/2000/svg">
 <path d="M453.1 176.2l-1.1 3.2-0.1 0.7 0 1.7 0.5 2 1.7 3.5 0.5 1.8 0 1-0.1 0.9 0 0.8 1.3 1.8 0.4 0.9 0.2 1.1 0.2 1-0.1 2 0.1 0.9 0.4 1 0.4 0.9 0.9 1.1 1.6 1 0.1 0.3-0.5 6.6 0 1.9 0.5 1.3 2.3 4.3 1.2 1.4 1.4 1.2 1.5 0.7 0.5 0.7 0.4 1.5 0.5 3.5 0.6 1.5 2.8 4.7 0.6 1.6 0.6 3.7 0 2-0.2 2 2.1 2.2 1.2 1.2 1 1.3 2.7 4.9 0.7 1.8 0.4 1.8 0.2 3.2 0.3 2.4 0 1.2-0.3 1.2-0.4 1-3.8 5.7 1.7 1.9 0.7 1.8-0.1 1.8-0.7 1.8-2 3.4-0.5 1.5 0 1.5 0.8 1.8 2.1 2.6 0.4 0.8 0 1.5-0.7 3.3 0 1.7 1.5 4.9 0.1 0.9-0.3 1.3-0.8 1.4-0.3 1.4-0.7 8.5-0.2 1.3-1.3 3.1-0.2 1.9 0.2 1.7 0.4 1.8 0.2 1.8-0.1 1.4-0.5 0.4-1-0.1-1.5-0.4-1.4-0.2-1.6-0.1-1.6 0.4-1.1 0.9-0.7 1.7 0.1 1.4 0.8 1.2 1.5 1.1 2 1.2 1.4 1 0.6 1.4-0.1 2.6-0.5 1.4-1.9 2.7-0.6 1.3-1.8 2.4 0 0.9 0.8 1.5 0.3 0.8-0.9 1.9-2.6 0-5.6-1.6-2.7 0.7 0.2 2.7 2.5 6.4 0.1 3.5-0.4 3.4-1.3 3.1-2.4 2.4-1.4 1-0.9 1.1-0.2 1 0.9 1.1 0.7 0.3 1.8 0.5 0.9 0.4 2.4 1.9-0.1 3.2-1.8 3.1-2.2 3-1.6 2.6-2.9 2.4 0.2 13.7-0.7 2-2.1 1.3-6.8 2.4-2.3 1.4-3.2 2.3-1.4 0.3-1.7-0.9-2.4-3.7-2-0.7-1 0.4-3.4 3.4-1.5 0.1-1.2-0.3-0.8-0.6-0.5-0.7-1.7-3.7-0.1-1.1 0.2-1.3-0.2-3.9 5.7-9.3 0.8-2.2-0.2-2-1.4-1.1-3.5-0.7-1.4-1.1-0.9-2.2-0.6-2.5-0.2-1.9 0.4-0.6 1.1-0.1 1.6 0.1 5.7-0.4 0.9-0.4 3.3-2.4 1.7-0.3 2.3 0.8 0.1 0-3.9-4.1-0.4-0.6 0.2-1.6-1.4-0.8-2-0.4-1.5 0.1-2.4-0.5-2.2-2.8-2.4-4.3-3.2-4.7-7.7-3.4-12.1-2.5-4.3-2.1-2.2-2.7-1.1-3.1-0.5-3.3-0.1-3.4-0.2-0.4-1.2-1.8-0.8-0.7-1.2-0.9-4.2-1.6-1.3-1.2-0.1-2 2.6 0.5 2.6-0.6 4.4-2.3 0.8-1 2.9-13.6 0.1-2.5-1.2-0.9-7.7-1.4-15.6 0.8-0.6 0.5-0.4 0.7-1.7 7.3-0.5 0.7-0.5 0.5-0.7 0.3-0.3 0.4 0 0.9 0.5 1.4 0.1 0.7-0.2 0.8-0.9 1.3-1.5 0.7-1.7 0.3-1.6 0-1.7-0.5-1.3 0.2-1.8 0.6-1.9 0.4-0.8 0.7-0.6 1.4-1.7 1.7-1.1 0.7-4 1-9.5 4.5-3.1 2.2-0.6 0.2-1.8 0.2-0.5 0.3-1 1.3-0.6 0.6-4.7 2.6-0.6 0.2-1.7-0.3-1 0.2-1.8 1-1.1 0-6.2-4.6-1-1.2-0.4-0.8-1.5-1.8-1.4-1.9-0.9-0.7-6.4-2.9-2.2-0.6-2.3-0.3-1 0.3-0.6 1.9-0.7 0.8-0.7 0.1-0.5-0.4-0.8-1.1-0.3-0.8 0-1.5-0.1-0.8-0.5-0.7-1.1-0.5-1.1-0.3-0.9 0-1.2 0.2-1-0.4-1.6-1.7-0.9-2.3 0.8-2 1-2-0.2-1.8-1-0.5-4.5 0-1.3-0.5-1.3-0.7-1.9-1.6-9.6-1.8-2.7-1-1.4-0.3-3.1-0.2-1.3-0.5-1.2-1.2-0.6 0-1.6 0.4-0.6 0.1-7.6-0.7-3.1 0-1.3-0.5-0.9-1.3-0.1-1.2 0.2-1.2 0-1.1-0.7-1-0.8-0.3-0.7 0.1-3.3 1.6-1.6-0.1-1.6-1.1-1.4-1.7-1.4-2.1-1-2.9-0.5-3.8 4.4-9.9-0.9-1.2-1.5 0-1.3 0.5-0.9 0.9-0.6 1.4-0.2 0-0.2-1.2 0-1.9 0.2-2 1.6-3.8 0-1 0.2-1 0.9-1.4 1.1-1.4 1-1.1 3.5-2.7 1.8-2 1.7-2.9-2-4.3 0.2-0.9 0.6-1.2-0.2-1.4-0.3-1.4-0.2-1.2 0.7-1.5 1.2-1.7 1-2 0.2-2.7-4.1-4.1-1.1-0.7-1.6-1.4 0.6-1.4 1.3-1.3 0.8-1.1-0.1-0.6-3.9-5.9-2.2-2.3-0.8-1.3-0.3-6.1 0.3-4.5-0.4-0.7-1.6 0.5-2.6 1.9-2.6 2.3-2.8 3-1.2 0.8-1.4 0.1-1.3-0.6-1-3.1-0.5-3.4-0.7-1.6-1.6-2-2.3-3.8-0.3-0.4-2.8-2.4-0.9-0.9-0.8-1.8-0.6-0.8-1.6-1-0.3-0.3-1.1-0.3-1.9 0-1.7-0.2-0.8-1.3-0.7-0.1-2 0-2.8-0.3-0.4 0.4-1.8 4.4-1.1 1.5-8.4 6.6-1.6 1.7-1.4 1.2-1.4 0.2-1.8-0.2-2 0.3-3.7 1.2-1.4 0-1.6-0.8-1.7-1.4-1.8-2-2.6-6.1-1.7-1.5 0.2-0.9 0.6-0.6 2.5-1.5 1.3-1.5 0.5-1.6 0.7-3.7 1.2-3 0.5-0.8 0.6-0.6 1.5-0.7 0.7-0.6 0.6-0.9 0.2-0.9 0.2-1.9 0.7-1.9 12.5-21 0.6-0.7 0.6-0.2 1.3-0.1 0.5-0.3 0.7-0.7 0.8-3.2 0.2-0.5 1-0.5 1.7-0.6 20.1-2.9 1.4 0.1 1.4 0.9 1.8 0.5 1.1-0.5 0.6-1.3 1.3-7.6-0.1-1.7-0.2-1-1.6-2.7-0.1-1.5 0.8-1.2 1-1 0.6-1 0-0.6-0.8-1.6-0.1-1.4 6.5-22.5 9.9-14.3 0.6-2 0.2-3.9 0.2-1.3 2.8-6.9 0.9 0.7 4.8 10.4 0.9 1 1.1 0 8.7 2.3 1.3 0.6 7.4 6.9 3.7 2.2 1.6 1.9 1.2 0.5 7.8 1.1 1.4 0 0.9-0.6 0.8-0.8 3.6-1.9 1.9-0.5 2.2-0.2 1.6 0.4 2 0.8 1.8 1.2 1 1.3 0.6 0.5 1 0.2 11.5 0.4 1.9-0.4 9.3-4.4 1-0.8 1-1.1 0.6-1.3 1.6-4.8 1.6-1.2 2.6 0 7.4 1.8 8.8 4.5 2.3 0.4 0.8-0.3 1.4-0.7 1.3-0.9 0.6-0.8 1.1-1.2 2.4 0.2 3.3 0.5 3.9 0.2 6.6-0.9 1.3-0.7 1.1-1.1 0.6-1.1 0.7-1 1.1-0.5 0.8 0.2 0.6 0.7 0.5 1.2 0.3 1.5-2 4.7 0.4 0.3 5.6-1.4 1.5-0.7 1.1-0.2 1.3-0.1 4.7 0.5 0.2 0.5 0.9 2 0.5 3 0.4 1.2 2.8 1.3 14.8 14.8 1.8 2.2 0.3 2.1 0 1.3 0.1 1.7 0.3 1.5 0.5 1 0.9 0.6 1.2 0.2 3.4 0 7.2-1.3 1.3 0.5 0.6 1.3 0.2 2.1 0.5 2.2 0.8 2.5 0.6 3-0.1 3.8-4.9 9-0.3 2.3 0.5 2.4 2.7 6.9 0.7 7.5 0.3 1.5 0.7 1.8 0.9 1.7 1.2 1 0.6 0.1 4.9-0.2 0.3-1.7 2-0.5 8.4 0.3 0.6 1 0.2 1.5-0.1 1.4-0.4 1.1 0.1 0.2 6-3.6 0.7-0.2 4.8-0.3 2.3-0.3 2.2-0.6z" id="ETH3109" name="Amhara" data-id="ETH3109" data-name="Amhara">
 </path>
 <path d="M467.7 30.2l-1.1 0.7 0.2 1.5-0.1 1.8-0.5 1.1-0.5 0.6-0.4 0.3-1.8 0.2-5-0.5-2.7-0.8-1.1-0.2-4.6 0.9-2.1 1.3-1.9 1.5-0.4 0.6 0 0.6 1.5 0.8 4.1-0.3 1 0.9-0.2 0.9-3 3.3-1.7 3.5-0.3 1.3 0.5 0.4 2.1 0.1 1.2 0.2 1 0.6-2.2 2.5-0.4 0.6 0.5 1.2 1 0.1 1-0.4 0.8-0.2 0.8 0.7 0.5 1.3 0.2 1.4 0.1 1.1-0.3 2.6 0 0.9 0.4 0.8 1 0.8 0.4 1.4 0.1 4-1.2 6.4-0.3 3 0.5 2.5 0.9 2.4 0.6 3.4-0.3 2.9-2 1.2-2.5-1.2-0.5 0.9-1.6 5.3 0 1.7 1.1 2.8 0.2 1.7-0.2 1.7-1.3 6.9 0.1 0.9 0.7 1.4 1 1.1 1.2 0.7 0.4 0.8 1.1 5.2 0.4 0.7 0.8 1 0 0.4-0.3 1.1-0.8 1.2-0.8 0.9-0.9 0.1 0.3 3.2 0 1.4-0.3 1.9 0 1.5-0.7 1.9 0.1 0.3 2 1.7 1 0.5 1.5 0.2 1.4 0.4 1 1 1.7 2.8 0.4 2.2-0.3 3.2-0.7 3.1-1.1 2-2.3 2.5-1.4 2.5-0.8 2.9-0.3 3.4 0.2 1.1 1 2.1 0.2 1.4 0 1.6-0.2 1.6-0.5 1.3-1.2 1.1-2.2 0.6-2.3 0.3-4.8 0.3-0.7 0.2-6 3.6-0.1-0.2 0.4-1.1 0.1-1.4-0.2-1.5-0.6-1-8.4-0.3-2 0.5-0.3 1.7-4.9 0.2-0.6-0.1-1.2-1-0.9-1.7-0.7-1.8-0.3-1.5-0.7-7.5-2.7-6.9-0.5-2.4 0.3-2.3 4.9-9 0.1-3.8-0.6-3-0.8-2.5-0.5-2.2-0.2-2.1-0.6-1.3-1.3-0.5-7.2 1.3-3.4 0-1.2-0.2-0.9-0.6-0.5-1-0.3-1.5-0.1-1.7 0-1.3-0.3-2.1-1.8-2.2-14.8-14.8-2.8-1.3-0.4-1.2-0.5-3-0.9-2-0.2-0.5-4.7-0.5-1.3 0.1-1.1 0.2-1.5 0.7-5.6 1.4-0.4-0.3 2-4.7-0.3-1.5-0.5-1.2-0.6-0.7-0.8-0.2-1.1 0.5-0.7 1-0.6 1.1-1.1 1.1-1.3 0.7-6.6 0.9-3.9-0.2-3.3-0.5-2.4-0.2-1.1 1.2-0.6 0.8-1.3 0.9-1.4 0.7-0.8 0.3-2.3-0.4-8.8-4.5-7.4-1.8-2.6 0-1.6 1.2-1.6 4.8-0.6 1.3-1 1.1-1 0.8-9.3 4.4-1.9 0.4-11.5-0.4-1-0.2-0.6-0.5-1-1.3-1.8-1.2-2-0.8-1.6-0.4-2.2 0.2-1.9 0.5-3.6 1.9-0.8 0.8-0.9 0.6-1.4 0-7.8-1.1-1.2-0.5-1.6-1.9-3.7-2.2-7.4-6.9-1.3-0.6-8.7-2.3-1.1 0-0.9-1-4.8-10.4-0.9-0.7 1.2-3-0.2-3.4-1.1-3.5-0.4-1.7 0-1.7 0.3-1.5 6-18.7 1.3 0 0.4-1.3 0.9-0.7 1.1-0.3 1.4 0 0.9-0.2 2.1-1 1.3-0.2 3 0 0.6-0.2 1.1-0.6 0.6-0.2 4.6 0 2.1 0.3 4.4 1.3 2.2 0.3 0.4 0.2 1.2 1.7 1 0.7 1.3 0.2 0.4-0.1 0.9-0.8 0.6 0 1.2 0.1 0.5-0.1 0.8-0.6 0.8-0.8 0.5-1.2 0.1-1.4 0.1-1.7 0.2-1.4 0.6-1.3 1-1.5 1.9-1.5 2.3-0.5 4.9 0.1 1.4-0.5 1-0.1 1.6 1.4 1.2 0.7 2.6 3.7 1 1 0.2 0.6 0.1 1 0 1.6 0.2 0.7 0.9 0.5 2.7 2.3 0.3 0.4 0.5 1.3 0.4 1.7 0.4 0.8 1.5 0.5 0.7 0.3 0.5 0.5 0.2 0.7 0.1 1.7 0.3 1.2 0.7 0.8 1.2 0.8 0.7-0.8 6.2-15 12.8-30.9 2.8-6.6 1.1 1 0.8 1.2 1.3 2.5 0.3 0.3 0.6 0.1 0.3 0.2 0 1 0.4 1.2 0.3 0.3 0.8 0.1 0.6 0.5 0.2 1.2 0.4 0.6 0.5 0.5 7.3 3 1.2 0.2 3.7-0.7 1.6 0.1 1.1 0.5 0.6 0.8 0.6 1.4 0.3 1.9 0.3 0.6 0.7 0.6 1.4 1 0.5 0.9 0.6 2.6 0.5 1.2 0.8 1 1.1 0.9 3.5 1.9 0.6 0.5 0.4 1.5 0.4 0.6 0.8 0.6 0.6 0.1 0.5-0.2 3.3 0.1 5.1-0.6 2.5-0.7 4.1-2.1 1.3 0 1.2 0.4 1.2 0.1 1.2-0.1 1.3-0.3 4-1.6 2.9-0.3 1.3-0.9 2.2-2 2.7-1.3 1.4-0.9 1-1.2 0.2-1.3-0.2-1.3 0.2-1.1 0.8-0.9 0.1 0.3 2.4 0.2 1.9 0.5 0.7 0.3 1.4 0.9 1.3 1.2 1.2 1.4 0.9 1.5 1.9 5.7 1.4 2.6 1.7-0.1 1.4-2.3 0.9-0.8 1.7-0.3 3.6 0.6 1.3-0.1 5.4-1.5 2.7-1.3 1.2-1.6 0.6-1.4 1.1 0 1.3 0.7 1 0.9 1.4 1.7 0.8 0.5 3.4 1.1 1.8 0.1 3.8-0.6 2.1-0.1 2 0.7 1.9 1.2 3.5 3 1 0.5 1.2 0.2 1.3-0.4 2.1-1.7 1.2-0.3 1.3 0.2z" id="ETH3110" name="Tigray" data-id="ETH3110" data-name="Tigray">
 </path>
 <path d="M585.4 267l-0.8 0.4-1.1 0.7-1.2 0.5-2 0.2-26.5-0.2-1.5 0.4-1.3 1.4-0.5 1.7-0.3 1.9-0.4 1.7-1.9 3.1-5.1 5.1-2.3 2.8-0.6 1.4-0.2 1.3 0.4 2.8 0 1.9-9.6 36.8 0.1 1.7 0.5 1.7 1.1 1 3 1.2 0.6 0.9-1 1.5-8.4 7.3-3.7 4.2-5.9 9.2-1 2.5-1.2 4.9-0.6 4.7-1.7 1.8-1.8 1-2.1 0.5-5.5 0.9-2.3 1-2 1.6-2.1 2.2-1.8 2.2-4.5 7.4-0.9 1.2-4.2 4.1-0.5 1-0.2 1-0.1 1.5-0.8 2.2-1.5 1.3-1.7 1.1-2.2 0.2-2.4 4.2-1.3 1.4-4.1 2.8-0.8-0.3-0.4-1.5 1.6-4.4 0-3-1.2-1.3-2.2-0.4-2.9-0.1 0.2-1.3-0.3-0.7-0.6-0.6-0.6-0.8-0.3-1.2-0.5-3-0.5-1.1-1.3-0.7-1.8 0-3.6 0.4 1.6-2.6 2.2-3 1.8-3.1 0.1-3.2-2.4-1.9-0.9-0.4-1.8-0.5-0.7-0.3-0.9-1.1 0.2-1 0.9-1.1 1.4-1 2.4-2.4 1.3-3.1 0.4-3.4-0.1-3.5-2.5-6.4-0.2-2.7 2.7-0.7 5.6 1.6 2.6 0 0.9-1.9-0.3-0.8-0.8-1.5 0-0.9 1.8-2.4 0.6-1.3 1.9-2.7 0.5-1.4 0.1-2.6-0.6-1.4-1.4-1-2-1.2-1.5-1.1-0.8-1.2-0.1-1.4 0.7-1.7 1.1-0.9 1.6-0.4 1.6 0.1 1.4 0.2 1.5 0.4 1 0.1 0.5-0.4 0.1-1.4-0.2-1.8-0.4-1.8-0.2-1.7 0.2-1.9 1.3-3.1 0.2-1.3 0.7-8.5 0.3-1.4 0.8-1.4 0.3-1.3-0.1-0.9-1.5-4.9 0-1.7 0.7-3.3 0-1.5-0.4-0.8-2.1-2.6-0.8-1.8 0-1.5 0.5-1.5 2-3.4 0.7-1.8 0.1-1.8-0.7-1.8-1.7-1.9 3.8-5.7 0.4-1 0.3-1.2 0-1.2-0.3-2.4-0.2-3.2-0.4-1.8-0.7-1.8-2.7-4.9-1-1.3-1.2-1.2-2.1-2.2 0.2-2 0-2-0.6-3.7-0.6-1.6-2.8-4.7-0.6-1.5-0.5-3.5-0.4-1.5-0.5-0.7-1.5-0.7-1.4-1.2-1.2-1.4-2.3-4.3-0.5-1.3 0-1.9 0.5-6.6-0.1-0.3-1.6-1-0.9-1.1-0.4-0.9-0.4-1-0.1-0.9 0.1-2-0.2-1-0.2-1.1-0.4-0.9-1.3-1.8 0-0.8 0.1-0.9 0-1-0.5-1.8-1.7-3.5-0.5-2 0-1.7 0.1-0.7 1.1-3.2 1.2-1.1 0.5-1.3 0.2-1.6 0-1.6-0.2-1.4-1-2.1-0.2-1.1 0.3-3.4 0.8-2.9 1.4-2.5 2.3-2.5 1.1-2 0.7-3.1 0.3-3.2-0.4-2.2-1.7-2.8-1-1-1.4-0.4-1.5-0.2-1-0.5-2-1.7-0.1-0.3 0.7-1.9 0-1.5 0.3-1.9 0-1.4-0.3-3.2 0.9-0.1 0.8-0.9 0.8-1.2 0.3-1.1 0-0.4-0.8-1-0.4-0.7-1.1-5.2-0.4-0.8-1.2-0.7-1-1.1-0.7-1.4-0.1-0.9 1.3-6.9 0.2-1.7-0.2-1.7-1.1-2.8 0-1.7 1.6-5.3 0.5-0.9 2.5 1.2 2-1.2 0.3-2.9-0.6-3.4-0.9-2.4-0.5-2.5 0.3-3 1.2-6.4-0.1-4-0.4-1.4-1-0.8-0.4-0.8 0-0.9 0.3-2.6-0.1-1.1-0.2-1.4-0.5-1.3-0.8-0.7-0.8 0.2-1 0.4-1-0.1-0.5-1.2 0.4-0.6 2.2-2.5-1-0.6-1.2-0.2-2.1-0.1-0.5-0.4 0.3-1.3 1.7-3.5 3-3.3 0.2-0.9-1-0.9-4.1 0.3-1.5-0.8 0-0.6 0.4-0.6 1.9-1.5 2.1-1.3 4.6-0.9 1.1 0.2 2.7 0.8 5 0.5 1.8-0.2 0.4-0.3 0.5-0.6 0.5-1.1 0.1-1.8-0.2-1.5 1.1-0.7 1.6 0.3 0.9 0 3.3-1 1.2 0 6 1.5 2.9 1.1 2.6 1.6 9.6 9 3.9 2 7.1 3.4 1.8 0.7 6 0.8 4.6 1.7 4 2.9 14 16.1 9.9 17.6 2 2 20.6 13.2 12 10 2.6 2.7 2.3 3 2.1 3.5 5.2 11.3 3.4 4.9 5.2 3.4 3.8 1.6 3.7 2.1 3.2 2.7 4.4 7.5 5.4 7.4 3.2 3.4-4 5.4-2.1 4.4-8.8 12.2-1.1 2.5-0.5 0.9-1.6 0.7-0.7 0.8-2.7 5.1-8 11.5-0.8 0.7-0.9 0.7-0.9 0.5-0.8 0.2-0.5 0.4-0.4 1-0.7 0.9-2.6 1.1-1 0.7-1 2.1-0.9 5.2-2 6.2 0 3.7 1.8 7.8 0.6 5.8-0.8-0.4-1.9 0.2-1.6 1-1.2 1.5-1 1.7-0.5 2.8 1.1 3 2.3 2.5 2.7 1.5 0.9-0.7 0 1.6-0.4 2.9-1.2 1.9 0.4 0.4z" id="ETH3111" name="Afar" data-id="ETH3111" data-name="Afar">
 </path>
 <path d="M244.6 708.3l-0.4-0.1-1-0.5-0.5-0.2-22.8 0.5-0.9-0.1-1.2-0.6-0.6-0.2-0.8 0-2.2 0.3-10 0.1-1.6-0.4-1.4-0.9-2.6-2.2-1.1-0.8-0.5-0.9 0-1.2 0.2-1.3 0-1.3-0.9-1.6-0.2-1.1-9-9.7-1.7-2.8-0.5-3.3 0.3-13.9 0.3-0.9 2.6-3.2 0.5-1.4 0-1.4-0.6-1.6-1.3-2.5-0.2-1.3 0.4-1.6 1.8-2.6-0.3-0.6-3.7-1.4-4.3-2.7-1.7-0.5-1.3 0.3-1.2 0.6-1.5 0.3-1.7-0.4-2.8-2.3-1.5-0.9-1.2-0.3-1.4-0.2-1.4 0-1.2 0.2-1.5 1-2.7 3-1.5 1-1.6 0.3-1.2-0.6-1-1.1-2.2-3.5-0.3-0.6 0.1-0.8 1.1-1.5 0.4-0.7-0.8-2.2-2.6-2-5.3-3.2-3-2.2-0.7-1.2-0.6-3.9-0.9-1.8-5.4-7.7-0.7-1.5-0.1-0.9 0.5-2.4-0.2-0.8-1.1-1.1-0.3-0.8 0-0.7 0.2-0.8 0.7-1.4-0.7-4.4-0.5-1.3-1.1-1.4-1.3-1.2-1.1-1.2-1.3-3.3-2.3-4.1-0.3-1.4-0.1-3.9-0.4-1.7-2.7-4.6-0.5-1.4-0.6-3.8-1.4-3.9-1.4-5.4-0.5-0.3-0.8-0.9-0.3-1.2-0.4-0.8-4.5-3-1.2-0.4-1.4-0.2-2.9 0-1.1-0.3-0.8-0.6-0.5-2.8-0.4-1.4 0.9-0.6-0.1-1.4-0.3-1.1-0.4-1.1-0.6-0.8-4.3-3-9.4-2.3-1.1-0.8-0.4-1.1-0.3-0.4-2.7-2.1-1.1-1.2-0.5-0.2-0.5-0.6-0.2-2.3 1.5-0.6 1.9 1.1 2 1.7 1.5 1.1 1.7 0.2 1.7-0.5 3.3-1.3 2.4-0.5 2.6 0 2.5 0.6 2 1.3 1.8 1.4 1.9 0.9 2.1 0.4 2.2-0.1 2.1-0.4 1.5-0.6 1.4-1 1.7-1.5 1.9-1.5 1.9-0.8 2-0.4 2.4-0.1 4 0.2 1.8-0.6 0.8-1.6 1.3 0.5 1.6-0.3 1.4-0.9 1-1.2 1.1 1.2 1.7 0.9 1.7 0.8 1.6 0.4 1.7-0.1 2.8-1.3 1.6-0.3 3.8 0.8 1.6-0.2 0.5-1.6-0.2-0.6-0.6-1.2-0.2-0.7 0.1-0.7 0.2-1.4 0.2-1.6 0.8-1.8 0-0.9 0-0.9 0.1-0.9 1.3-4.6 0.2-1.5-0.5-1.3-1.1-1.1-4.6-2.5-0.6-0.8 0.6-2-0.6-1.3-1.3-5.9-0.1-3.3 0.9-1.9 1.2-0.9 1.7-2.4 2.7-1.7 0.3-1.3 0-1.5 0.8-1.4 0.4-0.2 1.2 0.1 0.7-0.2 1.6-1.1 1.5-1.1 1 0 1.1 0.1 1.4-0.4 2.8 0 0.8 1.6 0.4 1.3 0.7 1.1 1.7 0.8 1.5-0.1 1.4-0.6 2.6-1.7 0.9-0.4 1.3-0.5 2.2-0.4 0.5-0.2 1-0.7 1.4-1.2 1.1-1.4 0.5-1.1-0.5-1.1-1-0.9-2.3-1.6-1.2-1.3 0.1-1.3 1.5-2.3 1-1.1 1.4-0.4 1.6-0.1 1.5 0.2 1.5 0.3 0.9 0.7 0.5 1.1 1.8 6.3 0.1 1.6-0.5 1.5-0.8 1.3-1.9 2.4 0 1.2 1.3 1.3 4.1 2.5 2.2 1 1 0.6 0.8 1 1.6 3.3 1.5 2.4 0.1 1-0.4 1.8-0.1 1.8 0.5 1.3 1.1 0.8 5.2 0.7 2.6 1.6 2.4 1.9 3 1.5 4 1.5 1.5 0.2 0.5 0.2 1.2 0.8 0.9 0.4 2.4 0.8 0.6 0 2.9 0 1.3 0.2 1.5 0.5 5.2 2.2 1.3 0 11.4 7.6 2.9 1.3 3 0.8 3.1 0.3 2.4-0.2 4.8-0.8 5.3 0.3 2.2-0.4 1.9-1.1 4.4-3.4 6.6-3 2.2-1.4 0.8 0.3 0.2-0.3 0.9-2.1 0.3-3 0.4-1.4 0.3-0.5 1.8-7 0-0.9-1.6-5.1-0.5-2.6 0-6.9 0.2-1.2 0.4-1.3 1.2-2.3 0.3-1.2-0.4-1.9-2.4-2.7 0-1.8 4-1.2 2.2-0.2 1.7 0.7 1.3 2.8 1 0.7 1.4 0.2 1.3-0.3 1.9-0.5 0.1-0.8 0-1-0.4-1.2-1.1-2.1-0.3-1.3 0.1-4.9 0.8-5.8-0.1-0.8-0.6-0.4-4.9-1.2-1.1-0.5-1.1-0.7-0.7-0.9-0.3-1.2-0.4-0.6 0.3-1.9 1.2-2.9 0.8-1.3 1-1.1 1.4-0.7 1.5 0 1.3 1.2 0.9 1.8 0.9 1.3 1.4 0 4.5 0.6 1.3 0.7 0.9 0 1-0.3 1.5-0.1 4.5 1 1.7-0.1 12.6-3.1 9.1-1.1 3.6-0.9 1.4 0.3 1.1 0.7 1 1 0.5 0.9 0.4 1.5 0.3 2.8 1 2.5 2.4 0.4 2.8-0.9 2-1.7 0.6-1.1 0.8-4.3 0.5-1.1 1-1.4 1.4-1.6 0.4-0.2 1.3-0.4 1.5-0.3 1.4 0.1 1.1 1 4.2 2 0.8 1.3 0.6 1.5 0.2 1.5-0.7 3.3 0.3 1.2 0.8 0.9 1.6 1.1-1.1 4.5-0.1 1.6 0.3 1.6-0.1 1.5-0.6 1.4-1.7-1.9-0.7-1-0.6-1.1-1.2-5.4-0.6-1.4-3.9 1.3 0.4 1.4 2.1 2.9 0.5 1.7 0.2 0.9 0.7 2.4 1 5.1-0.2 0.7-0.6 1.3-0.9 2.7-2.2 3.6-2.9 3.6-1.5 2.7-2.4 2.4-0.6 1.2-0.4 1.4-1.2 2.5-0.2 1.2-0.2 3.2 0.7 5 0 1.7-0.6 0.9-1.1 0.5-1.5 0.5-1.7 0.7-0.9 0.9-0.5 1-0.5 1.6-0.8 1.4-1.8 2.1-0.6 1.4-0.6 2.7-0.7 1-9.2 5.7-1.8 1.6-1 2.1-0.5 2.3-0.2 2.5 0.4 1.3 1.1 1.2 1.8 0.9 2.3 0.6 6.1-1.3 1.1-0.8 2.7-3.2 0.6-1 1.3-2.1 1.7 0.6 2.1 1.3 2.6 0.5 1.9 0.5 2.1 1.4 2.3 0.9 2.2-1 1.7-0.3 2.2 1.7 2 3.2 1.5 3.9-1.9 10.1 0.2 2.3 0.5 0.8 1.1 0.9 1.2 0.7 2.3 0.7 8.7 4.5 1.1 0.2 3.2 0.3 1.7 0.4 1 0.9 0.7 0.9 2.6 1.7 5 4.6 1.1 1.2 0.3 1.2 0.4 3 1.6 6.1 0 3-0.7 1.5-1 1.2-0.7 1.3 0.2 1.6 1.1 2.9 0.6 1.3 1 1.1-6.6 0.9-2.9-0.2-3.2-2.8 0-0.5-0.4-1.5-1.3-2-1.9-3.5-1.6-1.9-0.3-0.6-5.1-2.4-0.5-0.6-0.9-1.7-2.4 0.3-1.8 0-0.5-0.1-5-1.5-2.7-0.5-2.7-0.1-3.3 0.6-2.4 1.3-1.3 2.3-0.4 3.3 0.8 5.7-0.2 2-0.7 1-1.2 0.7-1.5 1.1-0.8 1.2-0.8 2.7-2.3 4.1-0.8 1.2-1.2 1.1-0.2 0.5 0.4 0.7 1.8 1.8 3.9 2.2 0.7 0.7-0.2 0.8-4.8 3.2-1.4 0.3-1.4 0-1.4 0.3-1.5-0.2-1.3-1.7-8.2-14.4-0.3-1.4 0.1-1.8 0.5-1.5 1 0 1.4 0.7 1.5 0.2 1.4-0.5 1.1-1.5 0.2-1.6-1.2-2.6 0.1-1.4 1.1-2.5 0.7-1 4.3-1.6 1.7-2.4-0.1-2.8-2.4-2.2-1.2-0.3-1.3 0.1-1.4 0.2-1.4 0.4-0.8-0.1-1.7-2-1.2-1.1-2.8-1.7-0.7-0.3-1.3-0.7-0.9-1.1-1.1-1-1.4-0.2-1.7 0.6-0.8 0.1-2.2-0.1-0.3-0.2-1.5-1.3-1.2 0.1-1.1 1-3.1 4.4-1.3 2.9 0.2 2.8 2.2 2.6 1.3 2.5-0.3 3.5-1.1 3.5-1.3 2.5-1.8 2.7-0.7 1.4-0.1 1.6 0.7 4.9-0.1 1.7 0.5 1 1.5 0.4 2.2 0.5 6.7 2.8 1.4 0.7 0.6 1.1 0.4 1.7 1.3 2.8 0.6 3.2 0.7 1.4 1.1 1.1 1.6 0.5 1.2 0.8 0.5 1.6-0.3 1.7-1 1-4.2 2.2-3.2 0.6-1.1 0.8-0.5 1.2 1 4.6 0 3.5-0.6 3.4-1.2 2.9-0.9 1.6-0.5 1.3-0.1 1.4 0.4 3.2-0.1 1.5-0.4 1.3-1 0.9-1.6 0.1-1.4-0.8-1.2-1.1-1.2-0.8-3.2-0.9-3.2-1.3-1.5-0.3-1.4 0.3-1.1 0.8-0.8 1.2-0.9 0.9-1.6 0.7-3 1.1-6.5 3.5-3.5 1.4-3.5 0.2-1.6-0.6-2.8-1.6-1.7-0.5-2-0.2-1.1 0.1-6.3 0.9-1.6 0-5.1-0.8-1.6 0.2-1.5 0.9-2 2.3-1.4 2.9-3.1 9.9 0 1.5 0.4 1.8 1.5 3.2 0.4 1.8-0.4 3.8-1.7 3.5-4.8 6.2-3.2 4.9-1.2 2.7-1 2.7-0.6 0.8-1.3 0.9-2.3 0.8-0.8 0.7z" id="ETH3129" name="Southern Nations, Nationalities and Peoples" data-id="ETH3129" data-name="Southern Nations, Nationalities and Peoples">
 </path>
 <path d="M152.4 500l0.6 1.3-0.6 2 0.6 0.8 4.6 2.5 1.1 1.1 0.5 1.3-0.2 1.5-1.3 4.6-0.1 0.9 0 0.9 0 0.9-0.8 1.8-0.2 1.6-0.2 1.4-0.1 0.7 0.2 0.7 0.6 1.2 0.2 0.6-0.5 1.6-1.6 0.2-3.8-0.8-1.6 0.3-2.8 1.3-1.7 0.1-1.6-0.4-1.7-0.8-1.7-0.9-1.1-1.2-1 1.2-1.4 0.9-1.6 0.3-1.3-0.5-0.8 1.6-1.8 0.6-4-0.2-2.4 0.1-2 0.4-1.9 0.8-1.9 1.5-1.7 1.5-1.4 1-1.5 0.6-2.1 0.4-2.2 0.1-2.1-0.4-1.9-0.9-1.8-1.4-2-1.3-2.5-0.6-2.6 0-2.4 0.5-3.3 1.3-1.7 0.5-1.7-0.2-1.5-1.1-2-1.7-1.9-1.1-1.5 0.6 0-2.1-0.3-1.4-0.7-1.1-0.9-0.6-1.1 0.5-1.2 0.3-1.3-0.9-1.8-2.3-3.1-2.4-0.6-0.6 0-6.2-0.5-2.3-1.1-1.9-8.3-8.4-2-1.2-2-0.3-0.7-0.2-3.3-2.5-2.2-3-0.8-1-0.7-0.3-2.1-0.6-1.8-1.2-0.7-0.2-4.3 0.4-1.4-0.4-0.7-0.5-1-1.2-0.6-0.6-0.7-0.3-1.2-0.4-0.6-0.5-1.1-0.4-1.8 0.1-2.8 0.6-0.6 0.3-1.7 1-0.8 0.1-3.7-1-1.2-1.1-1.1-1.2-1-0.9-0.5-0.2-2.2-0.3-1.9-0.8-0.6-0.1-2.1 0.5-0.4 0.2-0.4 0.5-0.9-0.1-1.4-0.6-1.8-0.2-0.5-0.3-0.7-1.6-1.2-0.6-0.5-1.1-1.7-4.5 0.3-0.7 0.8-1 0.4-0.7 0.6-0.8 0.3-1.4 0.4-0.7 0.8-1.1 3.8-3.9 1.1-2.2 2-0.4 1.2-0.5 0.8-0.7 0.5-0.9 0.2-1.4-0.2-0.3-0.9-0.7-0.2-0.3 0.1-1.7 0.8-1.3 0.6-0.5 1.1-0.5 0-0.9-1.5-0.7-0.4-0.8-1-1.1-0.2-0.8 0.1-0.5 0.6-1.3 0.2-0.8-0.7-0.7-0.1-0.6 0.4-0.7 0-1.2 0.4-1 0.9-0.4 1-0.2 0.5-0.5-0.3-0.6 1.9-1.7 1.2-0.2 7.2 1.6 0.7-0.2 0.9-0.7 1-0.3 0.9 0.2 4.5-0.6 0.6-0.3-0.3-0.8 1.3 0 1.1 0.6 1 0.8 1 0.5 1.3-0.2 1-0.6 0.9-0.4 1.4 0.2 2.1 1.8 1.3 2.3 1.6 1.9 3 0.3 1-0.2 2.8-2.3 0.7-0.5 1-0.5 1.2-0.3 2.2-0.3 3.8 0 1.3-0.3 1.3-0.8 6.6-6 1.4-1.5 0.8-1.6 0.3-1.4 1.6 0.8 1.2 1.2 0.8 0.6 0.8-0.2 3.2-2.3 1.6-0.6 1.7 0.2 2 0.9 3.4 2.3 5.8 5.6 3.3 2.6 6.7 3.4 1.9 1.6 2.4 3.5 1.4 1.4 2 0.9 3.9 0.8 1.3 1 1.1 2.1 1.2 1.7 1.8 0.8 2.1 0 4.8-0.8 3.8-0.1 3.6 0.4 2.1 1.5-0.6 1-1.6 0.8-3.4 1.1-4 2.3-3 1.3-0.6 0.8 0.6 0.7 3.2 1.1 0.4 0.7-0.4 0.8-4.2 6-1.1 2.8 0.1 3.2 1.4 2.9 2.1 2 2.4 1.9 2.2 2.2 0.7 1.4 0.4 3.2 0.5 1.4 1 0.8 6.7 2.4 0.9 0.8-0.5 1.1-0.9 0.8-1.1 1.3-0.3 1.1 1.2 0.5 2 0.1 0.9 0.2 1.6 0.7 0.4-0.2 1.1-0.8 1.3-0.7 1.4-0.9 0.8-1.2-0.1-1.5z" id="ETH3130" name="Gambela Peoples" data-id="ETH3130" data-name="Gambela Peoples">
 </path>
 <path d="M455.1 392.3l3.6-0.4 1.8 0 1.3 0.7 0.5 1.1 0.5 3 0.3 1.2 0.6 0.8 0.6 0.6 0.3 0.7-0.2 1.3 2.9 0.1 2.2 0.4 1.2 1.3 0 3-1.6 4.4 0.4 1.5 0.8 0.3 4.1-2.8 1.3-1.4 2.4-4.2 2.2-0.2 1.7-1.1 1.5-1.3 0.8-2.2 0.1-1.5 0.2-1 0.5-1 4.2-4.1 0.9-1.2 4.5-7.4 1.8-2.2 2.1-2.2 2-1.6 2.3-1 5.5-0.9 2.1-0.5 1.8-1 1.7-1.8 0.6-0.3 0.8 0.1 3.7 0 3.3-0.7 3.1 0 3.1 1.9 0.7 1.4-0.9 0.9-1.7 0.4-1.7 0.1-2.9-0.6-1.2 0.1-0.3 1.4 0.4 1.7 0.6 1.4 1 1 1.5 0.5 1.4-0.1 1.7-0.4 2.9-1 2.1-1.4 0.7-0.3 0.7-0.2 1.5-0.1 0.6-0.4 1.2-1 1.3-0.9 1.4-0.7 3.2-1.2 1.5-0.7 1.5-0.9 1.4-1.2 1.8-1.9 0.7-0.4 2.6-0.7 2.8 0.1 5.5 1.1 5.1 1.8 1.5 0.1 1.2-0.6 2.3-2 1.3-0.7 1.6-0.4 1.7-0.2 1.5 0.3 0.8 0.9 1 1.4 1.4 0.6 1.7 0.2 1.7-0.4 2.1-1 1.9 0.2 1.9 0.3 2.1-0.4 0.8-0.1 1.9 0.6 0.8 0.2 1.6-0.2 3.7-1.7 1.8 0 4 2 1.2-1.5 1.9-1.5 1.6-1.5 0.3-1.6-1.3-2.1-0.2-0.8 0.3-0.6 0.9-0.7 2-1.1 1.6-0.6 3.4-0.2 1.1-0.6 1.1-1 2.4-2.1 1.3-0.7 2.7 0.8 0.8 2.9-0.4 6.6 2.1 0.5 2.4 2.4 2.2 3.1 4.2 8.6 0.2 0.6 0.1 1.6 0.2 1 2.2 6.4 0.8 1.3 1.2 1.3 0.3 0.5-0.2 1.8 0.2 1.2 1.2 2.7 4.1 6.5 4.6 5.1 1.3 1.2 2.9 2.2 1.3 1.1 0.5 2.8-2.1 6.2 0.7 3.1 3.4 3.5 0.7 1.3 0.4 1.7 0.2 1.8-0.1 1.9-0.6 3.2-0.1 1.8-0.4 1.6-1.1 0.9-5.9 1.5-1.4 0.8-1.8 2.5-2.6 9.8-2.4 2.8-2.2-0.5-2.1-2.4-1.6-3.2-1.1-3.5-2-11.3-2-2.8-3.8-1.6-7.9-1.5-0.9-0.9-2.6-4.8-4.5 1.2-6.3 5.4-2.8 2.9-2.5 3.3-0.5 1.6 0.4 3.9-0.1 1.8-0.9 1.8-3.7 5.3-1.3 3.2-0.7 3.8-0.9 16.3 0.2 1.7 0.7 1.6 1.1 1.9 0.4 3-1.1 3.8-3.1 6.8-0.9 2.8-0.2 1.3 0.1 1.5 0.6 3.5 0.5 2 0.6 1.1 20.4 8 0.5 0.5 0.8 4.2-0.3 3.2-0.9 3.1-1.3 2-0.3 0.6-0.1 0.7 0.1 1.5-0.1 0.9-0.4 0.7-0.9 1.4-0.8 2.1-0.8 0.7-0.3 0.5 0.1 0.8-2.2 1.2-0.7 1-0.3 1.7-0.7 1.6-0.2 0.7 0.3 1.5-0.1 0.7-0.6 0.8 0.7 1.3-0.7 1.5-1.8 2.8-1.2 4.7-0.7 1.2-0.8 1.3-0.6 1.2-0.4 0.7-1.8 1.8-0.4 0.3-1.5 0.8-1.5 0.6-1.5 0.4-1.6 0-1.1-2.2-2.6 0.3-2.8 1.7-1.9 2-2.2 4.4-1.1 1.3-2.5 1.7-1 0.9-0.8 1.6-10.8-11.1-1.4-1.1-1.5-0.8-1.6-0.5-3.3-0.5-8.3-4.4-3.2-2.2-3.2-1.5-3.2 0.2-1.6 0.9-1.4 1.3-3.3 4.5-3.9 3.8-1 1.4-2.6 4.7-0.5 1.5 0.5 3.2-0.2 2.8 0.4 1.5 0.6 1.6 0.3 1.4 0.1 1.7-0.1 1.7-0.2 1.7-0.4 1.7-0.5 3.5 0.9 12.7-0.1 5.3 0.1 2 0.5 1.8 2.4 5.7-4.9 3.6-9.7 5.4-10.5 9.5-1.1 0.5-1.8 0.3-1 0.6-3.1 0-5 1.1-2.7 0.3-2.1 0.4-1.7-0.1-0.6 0.1-3.4 1.2-1.4 0.2-4.8-1-2.4-1-1.9-1-1 0-1.4 1.1-6.3 9.1-4.1 10.6-2.5 4.9-1.4 5.5-1.9 5.4-1.3 7.3-0.2 4-0.4 1.7-10.5 24.3-2.4 3.1-0.5 0.9-1.4 5.9-2.1 5.6-0.3 1.4 0.1 1.3 0.9 2.8-2 4.2-9.1 15.6-2.1 2.7-2.6 1.7-5.7 2.5-5.4 2.9 0.5 0.5-0.8 0.7-1.5-0.5-3.8 0.8-1.1 0-1-0.4-1.1-0.1-2.8 0.5-1.7 0-11.5-3.1-1.3-0.7-1-1-1.8-2.4-0.1 1.8-3.8-0.2-0.4-0.3-0.2-0.6-0.9 0.4-1.3 0-0.9-0.3-0.4-0.9-0.5-0.6-1.3-1.1-0.3-0.1-0.7 0.2-0.1 1.6-3.4 1.5-3.8 0.3-14.1-1.6-2.1 0.1-2.1 0.6-0.8-0.2-1.6-1.3-2-0.6-0.8-0.5-1-1.2-1.7-2.7-1.3-1.3-21.9-14.1-11.5-7.4-7.6-4.9-16.6-10.7-1.1-0.2-0.2-0.3-0.3-1.5-0.3-0.7-0.4-0.6-0.5-0.1-1.4 0.1-0.5-0.4-1-1.7-0.7-0.5-2.7-0.6-4.7-2.4-4-1.1-12.8 0.1-0.2-0.1 0.8-0.7 2.3-0.8 1.3-0.9 0.6-0.8 1-2.7 1.2-2.7 3.2-4.9 4.8-6.2 1.7-3.5 0.4-3.8-0.4-1.8-1.5-3.2-0.4-1.8 0-1.5 3.1-9.9 1.4-2.9 2-2.3 1.5-0.9 1.6-0.2 5.1 0.8 1.6 0 6.3-0.9 1.1-0.1 2 0.2 1.7 0.5 2.8 1.6 1.6 0.6 3.5-0.2 3.5-1.4 6.5-3.5 3-1.1 1.6-0.7 0.9-0.9 0.8-1.2 1.1-0.8 1.4-0.3 1.5 0.3 3.2 1.3 3.2 0.9 1.2 0.8 1.2 1.1 1.4 0.8 1.6-0.1 1-0.9 0.4-1.3 0.1-1.5-0.4-3.2 0.1-1.4 0.5-1.3 0.9-1.6 1.2-2.9 0.6-3.4 0-3.5-1-4.6 0.5-1.2 1.1-0.8 3.2-0.6 4.2-2.2 1-1 0.3-1.7-0.5-1.6-1.2-0.8-1.6-0.5-1.1-1.1-0.7-1.4-0.6-3.2-1.3-2.8-0.4-1.7-0.6-1.1-1.4-0.7-6.7-2.8-2.2-0.5-1.5-0.4-0.5-1 0.1-1.7-0.7-4.9 0.1-1.6 0.7-1.4 1.8-2.7 1.3-2.5 1.1-3.5 0.3-3.5-1.3-2.5-2.2-2.6-0.2-2.8 1.3-2.9 3.1-4.4 1.1-1 1.2-0.1 1.5 1.3 0.3 0.2 2.2 0.1 0.8-0.1 1.7-0.6 1.4 0.2 1.1 1 0.9 1.1 1.3 0.7 0.7 0.3 2.8 1.7 1.2 1.1 1.7 2 0.8 0.1 1.4-0.4 1.4-0.2 1.3-0.1 1.2 0.3 2.4 2.2 0.1 2.8-1.7 2.4-4.3 1.6-0.7 1-1.1 2.5-0.1 1.4 1.2 2.6-0.2 1.6-1.1 1.5-1.4 0.5-1.5-0.2-1.4-0.7-1 0-0.5 1.5-0.1 1.8 0.3 1.4 8.2 14.4 1.3 1.7 1.5 0.2 1.4-0.3 1.4 0 1.4-0.3 4.8-3.2 0.2-0.8-0.7-0.7-3.9-2.2-1.8-1.8-0.4-0.7 0.2-0.5 1.2-1.1 0.8-1.2 2.3-4.1 0.8-2.7 0.8-1.2 1.5-1.1 1.2-0.7 0.7-1 0.2-2-0.8-5.7 0.4-3.3 1.3-2.3 2.4-1.3 3.3-0.6 2.7 0.1 2.7 0.5 5 1.5 0.5 0.1 1.8 0 2.4-0.3 0.9 1.7 0.5 0.6 5.1 2.4 0.3 0.6 1.6 1.9 1.9 3.5 1.3 2 0.4 1.5 0 0.5 3.2 2.8 2.9 0.2 6.6-0.9-1-1.1-0.6-1.3-1.1-2.9-0.2-1.6 0.7-1.3 1-1.2 0.7-1.5 0-3-1.6-6.1-0.4-3-0.3-1.2-1.1-1.2-5-4.6-2.6-1.7-0.7-0.9-1-0.9-1.7-0.4-3.2-0.3-1.1-0.2-8.7-4.5-2.3-0.7-1.2-0.7-1.1-0.9-0.5-0.8-0.2-2.3 1.9-10.1-1.5-3.9-2-3.2-2.2-1.7-1.7 0.3-2.2 1-2.3-0.9-2.1-1.4-1.9-0.5-2.6-0.5-2.1-1.3-1.7-0.6-1.3 2.1-0.6 1-2.7 3.2-1.1 0.8-6.1 1.3-2.3-0.6-1.8-0.9-1.1-1.2-0.4-1.3 0.2-2.5 0.5-2.3 1-2.1 1.8-1.6 9.2-5.7 0.7-1 0.6-2.7 0.6-1.4 1.8-2.1 0.8-1.4 0.5-1.6 0.5-1 0.9-0.9 1.7-0.7 1.5-0.5 1.1-0.5 0.6-0.9 0-1.7-0.7-5 0.2-3.2 0.2-1.2 1.2-2.5 0.4-1.4 0.6-1.2 2.4-2.4 1.5-2.7 2.9-3.6 2.2-3.6 0.9-2.7 0.6-1.3 0.2-0.7-1-5.1-0.7-2.4-0.2-0.9-0.5-1.7-2.1-2.9-0.4-1.4 3.9-1.3 0.6 1.4 1.2 5.4 0.6 1.1 0.7 1 1.7 1.9 0.6-1.4 0.1-1.5-0.3-1.6 0.1-1.6 1.1-4.5-1.6-1.1-0.8-0.9-0.3-1.2 0.7-3.3-0.2-1.5-0.6-1.5-0.8-1.3-4.2-2-1.1-1-1.4-0.1-1.5 0.3-1.3 0.4-0.4 0.2-1.4 1.6-1 1.4-0.5 1.1-0.8 4.3-0.6 1.1-2 1.7-2.8 0.9-2.4-0.4-1-2.5-0.3-2.8-0.4-1.5-0.5-0.9-1-1-1.1-0.7-1.4-0.3-3.6 0.9-9.1 1.1-12.6 3.1-1.7 0.1-4.5-1-1.5 0.1-1 0.3-0.9 0-1.3-0.7-4.5-0.6-1.4 0-0.9-1.3-0.9-1.8-1.3-1.2-1.5 0-1.4 0.7-1 1.1-0.8 1.3-1.2 2.9-0.3 1.9 0.4 0.6 0.3 1.2 0.7 0.9 1.1 0.7 1.1 0.5 4.9 1.2 0.6 0.4 0.1 0.8-0.8 5.8-0.1 4.9 0.3 1.3 1.1 2.1 0.4 1.2 0 1-0.1 0.8-1.9 0.5-1.3 0.3-1.4-0.2-1-0.7-1.3-2.8-1.7-0.7-2.2 0.2-4 1.2 0 1.8 2.4 2.7 0.4 1.9-0.3 1.2-1.2 2.3-0.4 1.3-0.2 1.2 0 6.9 0.5 2.6 1.6 5.1 0 0.9-1.8 7-0.3 0.5-0.4 1.4-0.3 3-0.9 2.1-0.2 0.3-0.8-0.3-2.2 1.4-6.6 3-4.4 3.4-1.9 1.1-2.2 0.4-5.3-0.3-4.8 0.8-2.4 0.2-3.1-0.3-3-0.8-2.9-1.3-11.4-7.6-1.3 0-5.2-2.2-1.5-0.5-1.3-0.2-2.9 0-0.6 0-2.4-0.8-0.9-0.4-1.2-0.8-0.5-0.2-1.5-0.2-4-1.5-3-1.5-2.4-1.9-2.6-1.6-5.2-0.7-1.1-0.8-0.5-1.3 0.1-1.8 0.4-1.8-0.1-1-1.5-2.4-1.6-3.3-0.8-1-1-0.6-2.2-1-4.1-2.5-1.3-1.3 0-1.2 1.9-2.4 0.8-1.3 0.5-1.5-0.1-1.6-1.8-6.3-0.5-1.1-0.9-0.7-1.5-0.3-1.5-0.2-1.6 0.1-1.4 0.4-1 1.1-1.5 2.3-0.1 1.3 1.2 1.3 2.3 1.6 1 0.9 0.5 1.1-0.5 1.1-1.1 1.4-1.4 1.2-1 0.7-0.5 0.2-2.2 0.4-1.3 0.5-0.9 0.4-2.6 1.7-1.4 0.6-1.5 0.1-1.7-0.8-0.7-1.1-0.4-1.3-0.8-1.6-2.8 0-1.4 0.4-1.1-0.1-1 0-1.5 1.1-1.6 1.1-0.7 0.2-1.2-0.1-0.4 0.2-0.8 1.4 0 1.5-0.3 1.3-2.7 1.7-1.7 2.4-1.2 0.9-0.9 1.9 0.1 3.3 1.3 5.9 0.1 1.5-0.8 1.2-1.4 0.9-1.3 0.7-1.1 0.8-0.4 0.2-1.6-0.7-0.9-0.2-2-0.1-1.2-0.5 0.3-1.1 1.1-1.3 0.9-0.8 0.5-1.1-0.9-0.8-6.7-2.4-1-0.8-0.5-1.4-0.4-3.2-0.7-1.4-2.2-2.2-2.4-1.9-2.1-2-1.4-2.9-0.1-3.2 1.1-2.8 4.2-6 0.4-0.8-0.4-0.7-3.2-1.1-0.6-0.7 0.6-0.8 3-1.3 4-2.3 3.4-1.1 1.6-0.8 0.6-1-2.1-1.5-3.6-0.4-3.8 0.1-4.8 0.8-2.1 0-1.8-0.8-1.2-1.7-1.1-2.1-1.3-1-3.9-0.8-2-0.9-1.4-1.4-2.4-3.5-1.9-1.6-6.7-3.4-3.3-2.6-5.8-5.6-3.4-2.3-2-0.9-1.7-0.2-1.6 0.6-3.2 2.3-0.8 0.2-0.8-0.6-1.2-1.2-1.6-0.8 0.3-1.7-1.9-39.1 3.1 0.1 12.4 1.1 1.9-0.2 1.3-0.9 0.9-1.2 0.7-1.2 0.6-1.2 0.5-1.6 2.6-11.7 1.4-12.5 1.6-1 1.5 0 2.5-0.4 1.2 0.2 1.5 1.1 3.1 2.7 1.7 0.9 2.1-0.3 7.5-8.1 2.5-4.7 3.9-12.3-0.5-1-1-1-0.6-1.6 0.3-0.6 8.5 0.6 1.1 0.4 0.4 0.7-0.1 1.7 0.1 1.6 0.7 1.1 1.7 0.1 5.2-0.8 2.2 0.1 3.1 0.5 1.3 0 1.3 0.2 1.4 0.8 2.5 1.9 13.4 13.4 9.1 11.1 3.3 3.4 2.8-0.5 0.9 0.1 0.9 1.2 1.3 2.9 0.2 0.8-0.1 3.8 0.7 0.8 0.8 0.4 0.8 0.1 2-0.1 2.6 0.2 1.3-0.1 0.6 0.3 0.5 0.9 0.6 1.3 2.4 4.2 0.6 0.8 0.8 0.1 2.1-0.2 1.1 1.3 0.9 4.2 1.5 0.6 9.7-12.7 1.9-5.5 0.8-4.8-0.4-3.7-2-2-1.1-0.8-4.5-5.3-2.1-1.8 0.1-0.3 1.3-1 0.6-1.1-0.1-1.4-0.7-1.6-0.4-1.4 0.4-6.4-0.6-11.9 0.8 0 1.2 0.9 1.3-0.1 1.3-0.5 2.7-1.5 5.9-4.3 2.2-2.5 3.5-5.8 1-1.2 2.5-2.6 1.2-1 1.4-0.6 4.1-0.4 0.4 0.2-2.3 6.6-0.2 0.8 0.4 0.4 1.2 0.4 1.1 0.5 1.1 0.3 1.4-0.3 1.5-3 0.9-0.7 5.8-3 1.2 0.1 2.9 1.8 3.6 1.5 1.4 1.1 6.9 2.1 1.3 0.1 0.8-0.4 0.7-0.9 0.7-1.3 1.3-3.7 1.9 1.6 1.3 0.7 1.3 0.5 4.5 0 1 0.5 0.2 1.8-1 2-0.8 2 0.9 2.3 1.6 1.7 1 0.4 1.2-0.2 0.9 0 1.1 0.3 1.1 0.5 0.5 0.7 0.1 0.8 0 1.5 0.3 0.8 0.8 1.1 0.5 0.4 0.7-0.1 0.7-0.8 0.6-1.9 1-0.3 2.3 0.3 2.2 0.6 6.4 2.9 0.9 0.7 1.4 1.9 1.5 1.8 0.4 0.8 1 1.2 6.2 4.6 1.1 0 1.8-1 1-0.2 1.7 0.3 0.6-0.2 4.7-2.6 0.6-0.6 1-1.3 0.5-0.3 1.8-0.2 0.6-0.2 3.1-2.2 9.5-4.5 4-1 1.1-0.7 1.7-1.7 0.6-1.4 0.8-0.7 1.9-0.4 1.8-0.6 1.3-0.2 1.7 0.5 1.6 0 1.7-0.3 1.5-0.7 0.9-1.3 0.2-0.8-0.1-0.7-0.5-1.4 0-0.9 0.3-0.4 0.7-0.3 0.5-0.5 0.5-0.7 1.7-7.3 0.4-0.7 0.6-0.5 15.6-0.8 7.7 1.4 1.2 0.9-0.1 2.5-2.9 13.6-0.8 1-4.4 2.3-2.6 0.6-2.6-0.5 0.1 2 1.3 1.2 4.2 1.6 1.2 0.9 0.8 0.7 1.2 1.8 0.2 0.4 0.1 3.4 0.5 3.3 1.1 3.1 2.2 2.7 4.3 2.1 12.1 2.5 7.7 3.4 3.2 4.7 2.4 4.3 2.2 2.8 2.4 0.5 1.5-0.1 2 0.4 1.4 0.8-0.2 1.6 0.4 0.6 3.9 4.1-0.1 0-2.3-0.8-1.7 0.3-3.3 2.4-0.9 0.4-5.7 0.4-1.6-0.1-1.1 0.1-0.4 0.6 0.2 1.9 0.6 2.5 0.9 2.2 1.4 1.1 3.5 0.7 1.4 1.1 0.2 2-0.8 2.2-5.7 9.3 0.2 3.9-0.2 1.3 0.1 1.1 1.7 3.7 0.5 0.7 0.8 0.6 1.2 0.3 1.5-0.1 3.4-3.4 1-0.4 2 0.7 2.4 3.7 1.7 0.9 1.4-0.3 3.2-2.3 2.3-1.4 6.8-2.4 2.1-1.3 0.7-2-0.2-13.7 2.9-2.4z m-246.6 7.7l-2.8-0.7-1 0.1-0.5 0.7-0.1 1.1 0 1.2-0.1 1-0.4 0.7-1.1 1.3-0.5 0.9 0 0.8 0.3 1.7 0 0.8-0.4 0.5 0.3 0.7 0.5 0.5 1.3 0.7 0.6-0.5 1.2 0 1.3-0.2 0.4 0.2 0.6 0.8 1.4-0.1 1-0.6 1.6-1.7 0.7 1 1.6 1.3 0.7 0.8 0.1 0.6-0.1 1.1 0.4 0.6 1 0.6 1.3 0.1-0.2-0.7-0.3-0.7-0.8-1.2 1-0.4 0-0.9-0.6-0.9-1-0.4-0.2-1.5 0.1-2 0.4-2.1 0.5-1.2-0.8 0.3-0.9-0.1-0.8-0.3-0.8-0.8-0.5-0.8 0-0.3 1-1-0.7-0.4-1.9-0.6-0.9-0.1-0.7 0.3-1.2-0.2z m180.8-3.9l-0.2-1-1.4 1.4-0.7-0.1-0.5-0.9-0.3-0.3-0.8 0.1-2.7 0.6-0.8 0.3-1.1 0.9-1.2 1.6-0.9 1.8-0.5 1.4 0.6 0.9-0.1 0.5 1 1.6 0.6 2 0.5 0.6 0.6 0.6 1.5 0.5 0.7 0.6 0.6 0.7 1.3 1.6 0.8 0.6 1.3 0.7 1.3 0.2 0.8-1.1 0.4-1.3 0.9-0.1 1 0.1 0.8-0.5 0.1-1-1-2.5-0.2-1.2 1.4 0.4 1.4 0.1-0.2-0.8 0.5-1.5 0.2-0.9 0-1.3-0.4-1.2-1.7-3.8-1.4-0.1-1.7 0.1-0.5-0.3z m-168.2 10l1.5-0.6 0.7-0.5 0.5-0.6-1.1-0.6-1.2-1.4-0.8-0.5-2.9 1.5-0.6 0.8 0.6 0.8 0.9 0.6 0.6 0.4 0.6 0.2 1.2-0.1z m9.8-31.9l-0.2-1.5 0.7-1.3 2.6-1.2 0.5-0.5 0.1-0.8-0.4-0.6-2.2-1.6-1.2-0.3-1.2 0.3-1.3 0.9-0.8 0.9-0.4 1-0.7 2.6 1.6 5.4 0.8 1.3 0.2-0.1 0.3-1.4 0.8-0.4 2.3 0.4-1.5-3.1z m387.1 1.5l-1.4 0.1-1.6 0.8-1.5 0.5-1.7-0.5-1.2-0.7-1.1-0.1-1.5 1.6-2 3.4-0.7 1.9-0.3 2 0.1 1.5 1.1 0.2 1.3-0.3 1.3-0.1 0.6 0.4 1 0.9 0.5 0.3 1-0.1 1.8-0.8 0.9 0.3 1.8 1.6 1.1 0.3 1.1-0.6 0.6-1.3-0.4-1.2-0.7-1.3-0.4-1.2 0.1-0.9 0.8-1.4 0.4-3.2 0-0.6-1-1.5z" id="ETH3131" name="Oromiya" data-id="ETH3131" data-name="Oromiya">
 </path>
 <path d="M221.1 406.1l-1.2 0.1-0.6-0.2-0.6-0.4-0.9-0.6-0.6-0.8 0.6-0.8 2.9-1.5 0.8 0.5 1.2 1.4 1.1 0.6-0.5 0.6-0.7 0.5-1.5 0.6z m-12.6-6.1l1.2 0.2 0.7-0.3 0.9 0.1 1.9 0.6 0.7 0.4-1 1 0 0.3 0.5 0.8 0.8 0.8 0.8 0.3 0.9 0.1 0.8-0.3-0.5 1.2-0.4 2.1-0.1 2 0.2 1.5 1 0.4 0.6 0.9 0 0.9-1 0.4 0.8 1.2 0.3 0.7 0.2 0.7-1.3-0.1-1-0.6-0.4-0.6 0.1-1.1-0.1-0.6-0.7-0.8-1.6-1.3-0.7-1-1.6 1.7-1 0.6-1.4 0.1-0.6-0.8-0.4-0.2-1.3 0.2-1.2 0-0.6 0.5-1.3-0.7-0.5-0.5-0.3-0.7 0.4-0.5 0-0.8-0.3-1.7 0-0.8 0.5-0.9 1.1-1.3 0.4-0.7 0.1-1 0-1.2 0.1-1.1 0.5-0.7 1-0.1 2.8 0.7z m22.4-25.8l1.5 3.1-2.3-0.4-0.8 0.4-0.3 1.4-0.2 0.1-0.8-1.3-1.6-5.4 0.7-2.6 0.4-1 0.8-0.9 1.3-0.9 1.2-0.3 1.2 0.3 2.2 1.6 0.4 0.6-0.1 0.8-0.5 0.5-2.6 1.2-0.7 1.3 0.2 1.5z m40.2-60.6l-1.3 3.7-0.7 1.3-0.7 0.9-0.8 0.4-1.3-0.1-6.9-2.1-1.4-1.1-3.6-1.5-2.9-1.8-1.2-0.1-5.8 3-0.9 0.7-1.5 3-1.4 0.3-1.1-0.3-1.1-0.5-1.2-0.4-0.4-0.4 0.2-0.8 2.3-6.6-0.4-0.2-4.1 0.4-1.4 0.6-1.2 1-2.5 2.6-1 1.2-3.5 5.8-2.2 2.5-5.9 4.3-2.7 1.5-1.3 0.5-1.3 0.1-1.2-0.9-0.8 0 0.6 11.9-0.4 6.4 0.4 1.4 0.7 1.6 0.1 1.4-0.6 1.1-1.3 1-0.1 0.3 2.1 1.8 4.5 5.3 1.1 0.8 2 2 0.4 3.7-0.8 4.8-1.9 5.5-9.7 12.7-1.5-0.6-0.9-4.2-1.1-1.3-2.1 0.2-0.8-0.1-0.6-0.8-2.4-4.2-0.6-1.3-0.5-0.9-0.6-0.3-1.3 0.1-2.6-0.2-2 0.1-0.8-0.1-0.8-0.4-0.7-0.8 0.1-3.8-0.2-0.8-1.3-2.9-0.9-1.2-0.9-0.1-2.8 0.5-3.3-3.4-9.1-11.1-13.4-13.4-2.5-1.9-1.4-0.8-1.3-0.2-1.3 0-3.1-0.5-2.2-0.1-5.2 0.8-1.7-0.1-0.7-1.1-0.1-1.6 0.1-1.7-0.4-0.7-1.1-0.4-8.5-0.6-0.3 0.6 0.6 1.6 1 1 0.5 1-3.9 12.3-2.5 4.7-7.5 8.1-2.1 0.3-1.7-0.9-3.1-2.7-1.5-1.1-1.2-0.2-2.5 0.4-1.5 0-1.6 1-1.4 12.5-2.6 11.7-0.5 1.6-0.6 1.2-0.7 1.2-0.9 1.2-1.3 0.9-1.9 0.2-12.4-1.1-3.1-0.1-1.1-22 2.1-10 8.2-23.5 4-3.6 1.5-2.3 0.1-0.7-0.3-1.7 0.1-0.7 1-1.5 0.6-2.8-0.1-3.1-3.3-14.9-0.2-2.8 0.5-2.4 5.7-8.1 2.6-5.1 1-1.4 1.2-1 8-5.6 1.1-0.4 0.8 0.3 8.1 7.2 2 1.2 0.8 0.8 0.5 1-0.3 2.1 0.1 1 0.7 0.2 0.5-0.5 0.9-2.1 0.8-0.7 1.1-0.1 0.9 0.2 0.7-0.1 0.8-1.1 0.4-1.2 0-0.8 0.3-0.9 1.2-1.1 3.6-2.8 1.2-1.6 0.5-2.3-0.4-1-2-1.5-0.6-0.9 0-0.7 4.4-13 0.3-2.1-0.9-1.4-1.1-1.3-0.7-1.9 0.2-1.4 8.4-18.7 0.3-1.3-0.2-1.3-1.4-2.8-0.5-1.4 0.1-2.7-0.5-2.6 0.1-1.4 0.5-1.6 0.7-1.7 0.9-1.5 1-1.4 2.6-1.6 5.9-2.3 2-2.3 0.1-0.7 0.1-1.2 1.7 1.5 2.6 6.1 1.8 2 1.7 1.4 1.6 0.8 1.4 0 3.7-1.2 2-0.3 1.8 0.2 1.4-0.2 1.4-1.2 1.6-1.7 8.4-6.6 1.1-1.5 1.8-4.4 0.4-0.4 2.8 0.3 2 0 0.7 0.1 0.8 1.3 1.7 0.2 1.9 0 1.1 0.3 0.3 0.3 1.6 1 0.6 0.8 0.8 1.8 0.9 0.9 2.8 2.4 0.3 0.4 2.3 3.8 1.6 2 0.7 1.6 0.5 3.4 1 3.1 1.3 0.6 1.4-0.1 1.2-0.8 2.8-3 2.6-2.3 2.6-1.9 1.6-0.5 0.4 0.7-0.3 4.5 0.3 6.1 0.8 1.3 2.2 2.3 3.9 5.9 0.1 0.6-0.8 1.1-1.3 1.3-0.6 1.4 1.6 1.4 1.1 0.7 4.1 4.1-0.2 2.7-1 2-1.2 1.7-0.7 1.5 0.2 1.2 0.3 1.4 0.2 1.4-0.6 1.2-0.2 0.9 2 4.3-1.7 2.9-1.8 2-3.5 2.7-1 1.1-1.1 1.4-0.9 1.4-0.2 1 0 1-1.6 3.8-0.2 2 0 1.9 0.2 1.2 0.2 0 0.6-1.4 0.9-0.9 1.3-0.5 1.5 0 0.9 1.2-4.4 9.9 0.5 3.8 1 2.9 1.4 2.1 1.4 1.7 1.6 1.1 1.6 0.1 3.3-1.6 0.7-0.1 0.8 0.3 0.7 1 0 1.1-0.2 1.2 0.1 1.2 0.9 1.3 1.3 0.5 3.1 0 7.6 0.7 0.6-0.1 1.6-0.4 0.6 0 1.2 1.2 1.3 0.5 3.1 0.2 1.4 0.3 2.7 1 9.6 1.8z" id="ETH3132" name="Benshangul-Gumaz" data-id="ETH3132" data-name="Benshangul-Gumaz">
 </path>
 <path d="M389.3 396.1l0.5 0.3 1.7-0.1 1.4 0.1 1.7 3.8 0.4 1.2 0 1.3-0.2 0.9-0.5 1.5 0.2 0.8-1.4-0.1-1.4-0.4 0.2 1.2 1 2.5-0.1 1-0.8 0.5-1-0.1-0.9 0.1-0.4 1.3-0.8 1.1-1.3-0.2-1.3-0.7-0.8-0.6-1.3-1.6-0.6-0.7-0.7-0.6-1.5-0.5-0.6-0.6-0.5-0.6-0.6-2-1-1.6 0.1-0.5-0.6-0.9 0.5-1.4 0.9-1.8 1.2-1.6 1.1-0.9 0.8-0.3 2.7-0.6 0.8-0.1 0.3 0.3 0.5 0.9 0.7 0.1 1.4-1.4 0.2 1z" id="ETH3133" name="Addis Ababa" data-id="ETH3133" data-name="Addis Ababa">
 </path>
 <path d="M407.2 769.3l0.8-0.7-0.5-0.5 5.4-2.9 5.7-2.5 2.6-1.7 2.1-2.7 9.1-15.6 2-4.2-0.9-2.8-0.1-1.3 0.3-1.4 2.1-5.6 1.4-5.9 0.5-0.9 2.4-3.1 10.5-24.3 0.4-1.7 0.2-4 1.3-7.3 1.9-5.4 1.4-5.5 2.5-4.9 4.1-10.6 6.3-9.1 1.4-1.1 1 0 1.9 1 2.4 1 4.8 1 1.4-0.2 3.4-1.2 0.6-0.1 1.7 0.1 2.1-0.4 2.7-0.3 5-1.1 3.1 0 1-0.6 1.8-0.3 1.1-0.5 10.5-9.5 9.7-5.4 4.9-3.6-2.4-5.7-0.5-1.8-0.1-2 0.1-5.3-0.9-12.7 0.5-3.5 0.4-1.7 0.2-1.7 0.1-1.7-0.1-1.7-0.3-1.4-0.6-1.6-0.4-1.5 0.2-2.8-0.5-3.2 0.5-1.5 2.6-4.7 1-1.4 3.9-3.8 3.3-4.5 1.4-1.3 1.6-0.9 3.2-0.2 3.2 1.5 3.2 2.2 8.3 4.4 3.3 0.5 1.6 0.5 1.5 0.8 1.4 1.1 10.8 11.1 0.8-1.6 1-0.9 2.5-1.7 1.1-1.3 2.2-4.4 1.9-2 2.8-1.7 2.6-0.3 1.1 2.2 1.6 0 1.5-0.4 1.5-0.6 1.5-0.8 0.4-0.3 1.8-1.8 0.4-0.7 0.6-1.2 0.8-1.3 0.7-1.2 1.2-4.7 1.8-2.8 0.7-1.5-0.7-1.3 0.6-0.8 0.1-0.7-0.3-1.5 0.2-0.7 0.7-1.6 0.3-1.7 0.7-1 2.2-1.2-0.1-0.8 0.3-0.5 0.8-0.7 0.8-2.1 0.9-1.4 0.4-0.7 0.1-0.9-0.1-1.5 0.1-0.7 0.3-0.6 1.3-2 0.9-3.1 0.3-3.2-0.8-4.2-0.5-0.5-20.4-8-0.6-1.1-0.5-2-0.6-3.5-0.1-1.5 0.2-1.3 0.9-2.8 3.1-6.8 1.1-3.8-0.4-3-1.1-1.9-0.7-1.6-0.2-1.7 0.9-16.3 0.7-3.8 1.3-3.2 3.7-5.3 0.9-1.8 0.1-1.8-0.4-3.9 0.5-1.6 2.5-3.3 2.8-2.9 6.3-5.4 4.5-1.2 2.6 4.8 0.9 0.9 7.9 1.5 3.8 1.6 2 2.8 2 11.3 1.1 3.5 1.6 3.2 2.1 2.4 2.2 0.5 2.4-2.8 2.6-9.8 1.8-2.5 1.4-0.8 5.9-1.5 1.1-0.9 0.4-1.6 0.1-1.8 0.6-3.2 0.1-1.9-0.2-1.8-0.4-1.7-0.7-1.3-3.4-3.5-0.7-3.1 2.1-6.2-0.5-2.8-1.3-1.1-2.9-2.2-1.3-1.2-4.6-5.1-4.1-6.5-1.2-2.7-0.2-1.2 0.2-1.8-0.3-0.5-1.2-1.3-0.8-1.3-2.2-6.4-0.2-1-0.1-1.6-0.2-0.6-4.2-8.6-2.2-3.1-2.4-2.4-2.1-0.5 0.4-6.6-0.8-2.9-2.7-0.8-2.5-2.8-3.3-1.2-3.4 0.4-3.1 2-7.7 7.8-1.2 0.2-1.8-0.6-5.1-2.8-1.8-0.5-1.7 0.4-3.2 2.1-1.3-0.1-2.4 0.5-1.5 3.8-0.6 4.5 0.4 3-1.7 0.4-1.7-0.2-1.4-0.6-1-1.4-0.8-0.9-1.5-0.3-1.7 0.2-1.6 0.4-1.3 0.7-2.3 2-1.2 0.6-1.5-0.1-5.1-1.8-5.5-1.1-2.8-0.1-2.6 0.7-0.7 0.4-1.8 1.9-1.4 1.2-1.5 0.9-1.5 0.7-3.2 1.2-1.4 0.7-1.3 0.9-1.2 1-0.6 0.4-1.5 0.1-0.7 0.2-0.7 0.3-2.1 1.4-2.9 1-1.7 0.4-1.4 0.1-1.5-0.5-1-1-0.6-1.4-0.4-1.7 0.3-1.4 1.2-0.1 2.9 0.6 1.7-0.1 1.7-0.4 0.9-0.9-0.7-1.4-3.1-1.9-3.1 0-3.3 0.7-3.7 0-0.8-0.1-0.6 0.3 0.6-4.7 1.2-4.9 1-2.5 5.9-9.2 3.7-4.2 8.4-7.3 1-1.5-0.6-0.9-3-1.2-1.1-1-0.5-1.7-0.1-1.7 9.6-36.8 0-1.9-0.4-2.8 0.2-1.3 0.6-1.4 2.3-2.8 5.1-5.1 1.9-3.1 0.4-1.7 0.3-1.9 0.5-1.7 1.3-1.4 1.5-0.4 26.5 0.2 2-0.2 1.2-0.5 1.1-0.7 0.8-0.4 0.4 0.7 1.7 0.6 7.9 1.6 0.4 0.8 0.4 0.3 0.5 0.1 0.7-0.6 0.5-0.2 3.7-0.1 1.9-0.5 2-2.1 1.8-0.6 3.7-0.4 3.4 0.8 1.3 0 0.9-0.2 2.3-1.1 2.4-0.1 2.1-0.7 1.6 0.2 1 0.4 1 0 1.4-0.7 4.4-2.9 6-1.8 3.1-0.3 4.7 1.2 1.6 0 1.3 0.5 1.7 3.7 1.1 1 1.5 0.3 2.7 0.3 1.7 0.5 0.8 0.1 1-0.4 0.7-0.8 0.7-0.6 1 0.4-0.8 1.5-0.7 2.7-0.5 1.2-1.1 0.9-2.8 1.2-1 1.1-0.6 1.3-0.2 1.2-0.4 1-1.1 1.1-2.4 1.9-0.8 1.1-0.6 1.7-0.6 2.7-0.5 1.4-0.8 1.1-1.3 0.7-1.3 0.4-0.9 0.7 0.1 1.4 1.3 3.1 1.8 2.8 3.7 3.6 1 1.3 0.7 1.9 0.9 6.1 1.2 4.4 1.9 4.1 1.7 2.1 6.4 4.2 1.6 1.6 1.2 2 0.8 2.2 0.6 2.3 1.2 3.1 1.9 1.9 2.4 0.9 3.1 0.6 2.4 1.1 1.3 2.2 1.9 10.8 1 2.6 1.4 1.6 1.8 0.5 0.6 0.3 0.6 0.6 0.6 1.5 0.5 0.7 0.6 0.6 1.4 0.9 0.6 0.6 1.5 3.1 0.4 1.2 0.1 2.3 0.3 1.2 0.9 1.1 8.6 5.2 1.2 0.1 1.6-0.6 1.1-0.1 1 0.5 5.1 4.7 5.9 5.5 13.2 12 2.6 1.6 40.5 13.4 35.2 11.7 23.5 7.8 16.8 5.7 22.3 7.6 16.8 5.7 27.9 9.4 9.8 3.3 3.9 2 5.9 0 51.2 0 9.5 0-9.7 9.5-13 12.6-6.4 6.3-16.2 15.7-6.5 6.3-12.9 12.6-3.3 3.2-12.9 12.5-9.7 9.5-12.9 12.6-8.2 8.3-12.2 12.6-12.1 12.6-21.5 23.5-21.4 23.6-14.3 15.7-3.8 4.1-5.2 5.7-2 0.8-13.9-0.8-17.3-1-31.6-1.8-2.4 0.6-5.8 2-21.1 4.9-27.3 13-10.6 8.7-0.9 1.4-0.9 2.2-1.2 4.7-1 2.1-2 2.3-2.5 1.7-2.8 1.1-25 4.2-7.8 1.4-10.8 0.1-2.1 0.5-2.3 1.2-3.8 3-4.7 2.9-1.2 1-0.4 1.3 0 2.1-0.3 0.8-1 0.8-0.9 1.3-3.2 1.8-3-0.6-2.9-1.5-3.2-1-2.8 1.6-1 0.2-0.9-0.2-1.8-0.7-1-0.1-5.4 1.3-1.7 0.1-3.4 1-14.2 0.8-3.5-0.4-3.3-1.3-2.9-2.3-4.3-6-1.7-1.6-1.1-0.7-3.2-1.1-1.2-0.6-0.7-0.7-1.1-2-1.6-1.9-4-2.7-1.5-2-4.2 2.8-21.2 8.1-0.4 0.4-0.3 1.1-0.4 0.3-12 4.2-1.2-0.2 0 0.7-0.3 0.4-3.1 1.5-17.8 8.6-1.4 1.7-3.2 8.4-1.1 2-1.2 1.7-9.6 8.8-1.8 2.1-1.4 4.4-1.1 1.8-2.2 0.1-1-0.7-0.5-0.9-0.4-0.9-0.5-0.8-2.1-0.6-8.3-0.3 0.6-1.2-0.3-0.7-0.9-0.1-3 1.8-2.5 0-2.6-0.5-6-2.8z" id="ETH3134" name="Somali" data-id="ETH3134" data-name="Somali">
 </path>
 <path d="M623.6 353l-1.3 0.7-2.4 2.1-1.1 1-1.1 0.6-3.4 0.2-1.6 0.6-2 1.1-0.9 0.7-0.3 0.6 0.2 0.8 1.3 2.1-0.3 1.6-1.6 1.5-1.9 1.5-1.2 1.5-4-2-1.8 0-3.7 1.7-1.6 0.2-0.8-0.2-1.9-0.6-0.8 0.1-2.1 0.4-1.9-0.3-1.9-0.2-2.1 1-0.4-3 0.6-4.5 1.5-3.8 2.4-0.5 1.3 0.1 3.2-2.1 1.7-0.4 1.8 0.5 5.1 2.8 1.8 0.6 1.2-0.2 7.7-7.8 3.1-2 3.4-0.4 3.3 1.2 2.5 2.8z" id="ETH3135" name="Dire Dawa" data-id="ETH3135" data-name="Dire Dawa">
 </path>
 <path d="M618 375.7l1 1.5 0 0.6-0.4 3.2-0.8 1.4-0.1 0.9 0.4 1.2 0.7 1.3 0.4 1.2-0.6 1.3-1.1 0.6-1.1-0.3-1.8-1.6-0.9-0.3-1.8 0.8-1 0.1-0.5-0.3-1-0.9-0.6-0.4-1.3 0.1-1.3 0.3-1.1-0.2-0.1-1.5 0.3-2 0.7-1.9 2-3.4 1.5-1.6 1.1 0.1 1.2 0.7 1.7 0.5 1.5-0.5 1.6-0.8 1.4-0.1z" id="ETH3136" name="Harari People" data-id="ETH3136" data-name="Harari People">
 </path>
 <circle cx="559.8" cy="634.6" id="0">
 </circle>
 <circle cx="436.7" cy="644.7" id="1">
 </circle>
 <circle cx="371.2" cy="616.8" id="2">
 </circle>
</svg>