<?xml version="1.0"?>
<!--
************* Copyright (c) 2017 Pareto Softare, LLC DBA Simplemaps.com *******************		
************* Free for Commercial Use, full terms at  http://simplemaps.com/resources/svg-license ************
************* Attribution is appreciated! http://simplemaps.com ***************************
-->
<svg baseprofile="tiny" fill="#7c7c7c" height="29" stroke="#ffffff" stroke-linecap="round" stroke-linejoin="round" stroke-width="2" version="1.2" viewbox="0 0 1000 29" width="1000" xmlns="http://www.w3.org/2000/svg">
 <path d="M1.3 10.4l-0.1 0-0.1 0 0-0.1 0.2 0.1z m0 0l0.1 0 0 0.1-0.1 0 0-0.1z" id="FJI99" name="" data-id="FJI99" data-name="">
 </path>
 <path d="M993.9 18.2l-0.1 0 0-0.1 0-0.1 0.1 0 0 0.1 0 0.1z m0.8-2.5l0.1 0 0.1 0.1 0.1 0 0 0.1 0.1 0 0 0.1 0 0.1-0.1 0.1 0 0.1 0.1 0 0 0.1 0 0.1 0.1 0 0 0.1 0 0.1-0.1 0 0 0.1 0.1 0.1 0.1 0 0 0.1 0.1 0 0 0.1 0 0.1-0.1 0-0.1 0.1-0.1 0.1 0-0.1-0.1 0.1 0-0.1-0.1 0 0-0.1-0.1 0.1 0 0.1-0.1 0 0-0.1-0.1 0-0.1 0-0.1 0 0 0.1-0.1 0-0.1 0 0 0.1-0.1 0 0 0.1-0.1 0 0 0.1-0.1 0-0.1 0-0.2 0.1-0.1-0.1-0.1 0-0.1 0.1-0.1 0-0.1-0.1 0 0.1-0.1 0 0-0.1-0.1-0.1 0-0.1 0-0.1 0.1-0.1-0.1 0-0.1 0 0-0.1 0-0.1 0.1 0 0-0.1 0-0.1 0.1 0 0.1 0 0.2 0.1 0.1 0 0-0.1 0.1-0.1-0.1 0 0-0.1 0-0.1 0-0.1 0-0.1 0.2-0.1 0-0.1 0.1 0 0-0.1-0.1 0-0.1 0.1 0-0.2 0-0.1 0-0.1 0-0.1 0.1 0 0 0.1 0.1 0 0 0.1 0.1 0.1 0.1 0 0.1 0 0.1 0 0.1 0 0-0.1 0.1 0 0.1 0 0 0.1 0.1 0 0.1 0 0.1 0 0-0.2 0-0.1z" id="FJI2617" name="Central" data-id="FJI2617" data-name="Central">
 </path>
 <path d="M4.6 24.9l-0.1 0 0-0.1 0.1 0.1z m0.8-4.5l0-0.1 0.1 0 0 0.1-0.1 0z m993 0l0.1 0.1-0.1 0-0.1 0 0-0.1 0.1 0z m0 0l-0.1-0.1 0.1 0 0 0.1z m-993.5-0.1l0.1 0.1-0.1 0 0-0.1z m0 0l0.1-0.1 0 0.1-0.1 0z m-0.9-0.5l-0.1 0.1-0.1-0.1 0.1 0 0-0.1 0.1 0.1z m990.4 0.2l0-0.1-0.1 0-0.1 0-0.1 0.1 0 0.1-0.1 0-0.1 0.1 0.1 0 0 0.1 0 0.1-0.1 0 0-0.1-0.1 0 0 0.1-0.1 0-0.1 0 0-0.1-0.1 0.1 0-0.1-0.1 0-0.1 0 0.1-0.1 0.1 0 0-0.1 0.1 0 0.2 0 0.1-0.1 0-0.1 0.1 0 0.1-0.1 0.1 0 0.1 0 0-0.1 0.1 0 0.1 0 0.1 0 0 0.1 0.1 0 0.1 0 0 0.1 0 0.1-0.1 0-0.1 0 0 0.1-0.1 0-0.1 0 0-0.1z m-992.9-0.3l0.1 0.1-0.1 0.1 0-0.1-0.1 0 0-0.1 0.1 0z m993.4-0.1l0 0.1-0.1 0 0-0.1 0-0.1 0.1 0 0 0.1z m-990.9 0l0-0.1 0.1 0 0 0.1-0.1 0z m1.2-0.7l-0.1 0 0.1-0.1 0 0.1z m993.5-0.2l0.1-0.1 0.1 0.1-0.1 0-0.1 0z m0 0l0 0.1 0.1 0-0.1 0.1-0.1 0 0-0.1-0.1-0.1 0.1 0 0.1 0z m-994.3-1l-0.1 0-0.1-0.1 0.1-0.1 0.1 0 0.1 0.1 0 0.1-0.1 0z m-0.8-0.8l0.1 0 0 0.1-0.1 0 0-0.1z m993.4 0.2l-0.1 0 0-0.1 0-0.1 0-0.1 0.1 0 0.1 0 0.1 0.2 0 0.1 0 0.1 0 0.1-0.1 0 0-0.1 0-0.1-0.1 0z m-991.2-0.2l-0.1 0-0.1-0.1 0-0.1 0.1-0.1 0.1 0.1 0.1 0 0 0.1-0.1 0.1z m991.6-0.4l-0.1 0 0-0.1 0-0.1 0.1 0.1 0 0.1z m-994.4-0.2l-0.1 0-0.1 0 0-0.1 0.1 0 0.1 0 0 0.1z m992.6-0.1l-0.1-0.2 0-0.1 0.1 0 0.1 0 0 0.1 0.1 0 0 0.1 0 0.1-0.1 0-0.1 0z m0.7-0.3l-0.1 0 0-0.1 0.1 0 0 0.1z m-992.9-0.5l-0.1 0 0-0.1 0.1 0 0 0.1z m0-0.5l-0.1 0 0-0.1 0.1 0 0 0.1z m994 0.3l-0.1 0 0-0.2 0-0.1 0-0.1 0.1 0 0.1 0 0 0.1 0 0.1-0.1 0.1 0 0.1z m-993.6-0.3l0-0.1 0.1-0.1-0.1-0.1 0.1 0 0.1 0 0 0.1 0 0.1-0.1 0 0 0.1-0.1 0z m0-0.3l-0.1 0 0-0.1 0.1 0 0 0.1z" id="FJI2618" name="Eastern" data-id="FJI2618" data-name="Eastern">
 </path>
 <path d="M994.3 13.5l0.1 0 0 0.1-0.1 0-0.1-0.1 0-0.1 0.1 0.1z m4.5 0.6l0-0.1-0.1 0 0-0.1 0-0.1 0.1 0 0.1-0.2 0.1-0.2 0 0.6-0.1 0 0 0.1-0.1 0z m-997.4-0.4l-0.1 0-0.2 0.1-0.1 0.1 0-0.5 0.2-0.2 0.1-0.1 0.1 0 0 0.1 0 0.1 0.1 0 0 0.1-0.1 0.1 0 0.1 0 0.1z m997.3-0.6l0-0.1 0.1 0 0-0.1 0.1 0 0 0.1-0.1 0.1-0.1 0z m-3.7-0.2l0.1-0.1 0.1 0-0.1 0.1 0 0.1-0.1 0.1 0-0.1-0.1 0 0.1-0.1z m-993.8-0.5l0.1 0.1-0.1 0 0 0.1-0.1 0.1-0.1 0 0-0.1 0-0.1 0.1 0 0-0.1 0.1 0z m996.4 0.9l0.1 0 0 0.1 0.1-0.1 0.1 0 0.1-0.1 0-0.1 0.1 0 0.1-0.1 0-0.1 0.1 0 0-0.1 0.1 0 0.1-0.1 0.1-0.1 0.1 0 0.1-0.1 0.1 0.1-0.1 0.1 0 0.1-0.1 0.1 0 0.1-0.1 0 0 0.1 0.1 0 0 0.1 0.1 0 0.1 0.1-0.1 0-0.1 0 0.1 0.1-0.1 0-0.1 0 0-0.1-0.1 0 0-0.1-0.1 0.1-0.1 0 0-0.1-0.1 0 0 0.1-0.1 0-0.1 0.1-0.1 0-0.1 0.1-0.1 0-0.1 0-0.1 0-0.1 0-0.1 0-0.2 0 0-0.1 0.1 0 0-0.1-0.1-0.1-0.1 0-0.1 0-0.2 0.1-0.1 0.1-0.1 0.1-0.1 0-0.1 0.3-0.1 0-0.1 0 0-0.1-0.1 0-0.1 0-0.1 0-0.1 0.1 0 0.1-0.1 0 0 0.1 0.1 0-0.1 0.1-0.1 0-0.1 0 0-0.1-0.1-0.1 0-0.1 0-0.1-0.1 0 0-0.1 0-0.1-0.1 0 0-0.1-0.1 0.1-0.1 0-0.1 0 0-0.1 0-0.1 0.1 0 0.1-0.1 0.1-0.1 0-0.1 0.1 0 0.1 0 0 0.1 0.1 0 0-0.1 0.2-0.1 0.1 0 0.1-0.2 0 0.1 0.1 0 0-0.1 0.1 0 0-0.1 0-0.1 0.1 0 0.1 0 0.2 0 0.1-0.1 0.1 0 0.1 0 0-0.1 0.1 0 0.1 0 0.1 0 0.1 0 0.1 0 0.1 0 0-0.1 0.1 0 0-0.1 0.1 0 0-0.1 0-0.1 0.1 0 0.1 0 0.1 0 0.1 0 0.1 0 0-0.1 0.1 0 0.1 0 0.1-0.1 0.1 0 0 0.1 0.1 0 0-0.1 0.1 0.1 0.1-0.1 0.1 0 0.2-0.1-0.2 0.2-0.1 0 0 0.1-0.1 0 0 0.1 0 0.1-0.2 0.1 0 0.1-0.1 0.1 0 0.1-0.1 0-0.3 0.2 0 0.1-0.1 0 0 0.1 0 0.1-0.1 0 0 0.1-0.1 0 0 0.1 0 0.1z m-996.6-1.7l0.1-0.1 0.1 0-0.1 0.1-0.1 0z" id="FJI2619" name="Northern" data-id="FJI2619" data-name="Northern">
 </path>
 <path d="M984.1 28l-0.1 0 0-0.1 0.1 0 0 0.1z m8.4-9.4l0 0.1-0.1-0.1 0-0.1 0-0.1 0.1 0 0 0.1 0 0.1z m2.2-2.9l0 0.1 0 0.2-0.1 0-0.1 0-0.1 0 0-0.1-0.1 0-0.1 0 0 0.1-0.1 0-0.1 0-0.1 0-0.1 0-0.1-0.1 0-0.1-0.1 0 0-0.1-0.1 0 0 0.1 0 0.1 0 0.1 0 0.2 0.1-0.1 0.1 0 0 0.1-0.1 0 0 0.1-0.2 0.1 0 0.1 0 0.1 0 0.1 0 0.1 0.1 0-0.1 0.1 0 0.1-0.1 0-0.2-0.1-0.1 0-0.1 0 0 0.1 0 0.1-0.1 0 0 0.1 0 0.1 0.1 0 0.1 0-0.1 0.1 0 0.1 0 0.1-0.3 0-0.1 0 0-0.1-0.2 0-0.1-0.1-0.1 0-0.1 0-0.1 0-0.2-0.1-0.1 0 0-0.1-0.1 0 0-0.1 0-0.1-0.1 0 0-0.1 0-0.1 0-0.1 0-0.1 0.1 0 0.1-0.1 0.1 0 0-0.1 0-0.1 0.1 0 0.1 0 0-0.1 0-0.1-0.1-0.1 0-0.1 0.1-0.1 0.1 0 0-0.1 0.1 0 0-0.1 0-0.1 0.1 0.1 0.1-0.1 0.1-0.1 0-0.1 0.1 0 0.1 0 0.1 0 0.1 0 0-0.1 0.1 0 0-0.1 0.1 0 0 0.1 0 0.1 0.1-0.1 0.1 0 0.1 0 0.1 0 0.1 0 0-0.1 0.1 0 0.1 0 0.1 0 0.1 0 0.1-0.1 0.1 0 0.1 0 0 0.1 0 0.1 0 0.1-0.1 0.1 0.1 0 0-0.1 0.1 0 0.1 0 0.1 0.1 0 0.1 0.1 0.1 0.1 0.1z m-3.7-0.9l0.1 0 0 0.1-0.1 0.1 0-0.1 0-0.1z m0.2-0.3l0-0.1 0.1 0 0-0.1 0.1-0.1 0 0.1 0.1-0.1 0 0.1-0.1 0.1-0.1 0.1-0.1 0z m0.6-0.8l0 0.1 0 0.1-0.1-0.1 0.1-0.1z m0.2-0.2l0 0.1-0.1 0 0-0.1 0.1 0z m0 0l0.1-0.1 0.1-0.2 0.1 0 0 0.1-0.1 0-0.1 0.2-0.1 0z m0.3-0.3l-0.1-0.1 0.1 0 0 0.1z" id="FJI2620" name="Western" data-id="FJI2620" data-name="Western">
 </path>
 <path d="M990.8 1.1l0-0.1 0.1 0 0.1 0 0 0.1-0.1 0-0.1 0z" id="FJI2658" name="Rotuma" data-id="FJI2658" data-name="Rotuma">
 </path>
 <circle cx="996.5" cy="12.5" id="0">
 </circle>
 <circle cx="995.7" cy="16.2" id="1">
 </circle>
 <circle cx="998.1" cy="11.8" id="2">
 </circle>
</svg>