<?xml version="1.0"?>
<!--
************* Copyright (c) 2017 Pareto Softare, LLC DBA Simplemaps.com *******************		
************* Free for Commercial Use, full terms at  http://simplemaps.com/resources/svg-license ************
************* Attribution is appreciated! http://simplemaps.com ***************************
-->
<svg baseprofile="tiny" fill="#7c7c7c" height="1545" stroke="#ffffff" stroke-linecap="round" stroke-linejoin="round" stroke-width="2" version="1.2" viewbox="0 0 1000 1545" width="1000" xmlns="http://www.w3.org/2000/svg">
 <path d="M548 1198.1l15.8-0.4-34.9 32.1 0 9.4 64-7.5 19.2 25.4 44.6 6.7 15.8 17 1.7 20.4-8 12.1-11.8 2.4-9.5-8.5-9-11.5-11.9-5.4-10.9 1.5-5.7 9.7 14 3.8 8.5 12.8 5.8 14.7 6.7 10.1 7.2 1.5 15.8-3.8 7.1 2.3 7.1 8.9 3 9.6-2.2 8.2-7.9 5.4 0 10.3 30.1 15.9-2.7 13-6.5 2.3-16.4-1.2-24.8 14-12.6 1.6-16.5-5.2 0 11.3 8.3 2 7 5.3 5.4 9.6 3.5 14.2 8.4-17.3 12.7-5.5 28.8 2.1-5 20.7 16 6.8 10.8 22.1 3.5 25.8-6.1 18.4-16.5 2.8-16-15.3-26.7-40.1-65.6-62.2-31.1-45 3.3-38.5-19.1-23.5-22.3-36-16.6-37.4-2.1-27.5-3.3-7.4-6.5-22.9 14.8 0-5-11.3 26.6-17.9 12.7-1.8 10.6 10.3-19.8 20.7 6.9 6.7 7.3 3.2z m33.2-422.9l14.6 3.1 23.1-3.9 8.7 3.9 6.8 7.8 10.3 18.3 8 5.3 55 15.9 8.7 10.9 4.8 21.7 21 21.3 4.8 15-14.9 26.6 3.9 12.9-1.5 44-15.3 26.4-7.2 4.9-5.1-4.3-47.2-99.5-9.7-11-66.3-12.1-11.6-5-9.6-10.9-4.1-19.6-3-26.7-15.6-37.3-6-24.6 16.7 3.1 30.7 13.8z m-509.4-305.2l-9 1.3-59.3-5.7-2.5-11.1 19.4-11.5 21.2-1.1 20.5 11.5 16.6 13.8-6.9 2.8z m279.2-55l11.6 25.4 7.4 10.8 18 6.5 19.1-1.2 17.8 3.9 14.2 22.5-8.9 19.8-6.6 20-8.7 15.9-15.3 7.6-13-2.6-11.8-5.7-11.8-1.5-12.8 9.8 11.7 9.2 13.5 2.2-42.3 21.1-12.5 10.6 9.5-22.1-5.1-21.4-8.2-19-10.1-9.3-10.8 7.5 14.9 15.8 6.6 13.3-1.3 13.1-7.6 1.8-32.3-22.8-45-9.7-29.2-20.9-10.2-1.1 0-10.4 69 0-16.1-12.8-18.6-9.7-36.8-8.3-19.5-16.8-13.6-35.2-1.5-30.5 17.3-3 25.8 26.6 14.2 6.3 16.8-1.1 5.6-3.3 2.4-14.5 10.5-6.8 12.6-15.2 50.8-13.1 0 9.6-4.9 0 0 11.5 28 19.6 9.3 2.6 7.9 5z m603.1-177.7l-11.4 4.4-12-2.3-8.6-15.7-7.5-20.5-2.6-17.3 8.6-12.1 12.2-6 24.7-25.2 21.8 0.6 11.2 7.7-0.8 10-21.1 22.6 4.7 15.9 0.1 14.4-3.4 9.8-6.5 8.1-9.4 5.6z m-624.9-97.4l60.6 15.2 24.5 15.2 10.4 21.1 9.2 37.8 34.9 70.2-0.1 35.6 24.3 8.2 41.3 36.3 36.6 11.7 6.3 9.1 0.7 13.4-4.6 16.5-6.9 11.3-9.5 10-10.1 7.2-8 3.1 63.2-3 10.8 19.3 10.1 23.2 3.5 16.4-6 7.3-42.2 0 0 11.5 25.6 11.7 48.9-1.2 19.8 20.2-7.7 19-5.7 25.2 1.6 21.9 23.9 14-5.1 32.8 2.9 25.7-23.6 9-22.1-23.8-20.8-32.1-45.6-31.2-38.5-66.5-25.6-15-10.3-3.6-6.8-10.8-3.6-17.9-1.1-25.2-4.7-14.2-11.2-15-13.3-12.5-10.7-7.3-56.8-9.5-12.7-6.8-7.3-14.8 0.7-14.6 11.5-6.2-6.2-18.5-9.9 2-11.7 10.3-11.8 6.2-7.7-3.5-20.3-19.1-13.3-18.1-3.1-17.4 1.7-16.7 9-4.7 4.1-5.1 4-21.3 0.6-15.9 3.2-10.8 11.6-5.9-13.8-23 0-32.6 9.2-61.3 3.7 7.5z m218.9-18.1l3.2 15.9-12.7 11-16.4 9.7-8.1 11.8 0.3 26 2.1 21 5.8 17.2 11.5 14.9-7.3-47.4 3.3-18.4 53.8-19.3 17.8 1.2 11.4 20.2-5.7 1.5-13.6 10 56.5 9.7 6.9 7.3-6 15.7-13.1 14.9-14.7 4.6 0 11.6 8.4 2.8 13.7 14.1 7.5 4.1 5.9-1.2 13.8-8.3 7.3-1.9 39.5 14.8 30.6 21.5 2.3 9.9-9.6 5.8-18.2 1.9-43.4-6.3-13.4 6.3 0 10.6 88.5 47.7 26 27.3-37.7-5.2-37.3-17 0 10.6 15.9 3.5 14.7 11.7 24.2 26.1 0 11.5-13-2-14.9 2.1-13.4 7.6-8.5 14.4 9.8 9.6 0 11.4-8.8 12.8 3.4 17.9-26.4-18.5-7.2-32.2-0.2-38.5-5.6-37.4-12.6-27.9-19.4-31.6-21.9-20.3-20.2 5.8 16.9 20.1 21.5 19.3 18.6 26 7.6 40.4-12.9 33.4-29.3-24.1-57-72.8-29.4 1.9-27.2-30.4-14.2-11.6-45.4-77.7-25.1-78.7-6.2-9.4-14.8-17.7-1.1-10.7 6.1-10.9 7.6 1.8 8.3 6.3 7.7 2.8 15.7-6.8 26.3-20.7 33.1-7.3 8.8 3 20.6 19.7 9 1.5z m362.3 95.6l-13.5 23.9-22.6 3.4-23.2-10.1-15.2-17.2-5 11.6 26.9 37.9 14.1 12.4 13.8-8.8 2.1 27.1 2.5 8.9 5.3 7.4 0 10.5-12.1 8.6-14.8 3.7-14.2-3.8-11-13.8-19.8-42.3-11.3-12.2-11.1 5.9 15.5 52.7 9.3 27.5-4.9 0.4-14.1-10.5-5.8-16.2-24.5-34.6-8.3-23.6 3.2-26.6 5.1-9.5 7.4 9.5 5.8-2.1 1.2-14.7 3.9-24-2.1-42.9-1.6-12.8-8.8-32-6.1-28.7 3.8-22.7 21-13.3-5.4 11.6 20.2 61.3 24.8 43.5 30.7 31 38.8 23.6z m-139.7-10.6l-10.6 8.7-15.8-7.9-14.6-21.5-7.1-14.8-19.6-48.9-7.9-35.8 2.5-34.4 12-12.7 11.7 12 6.4 22.7 31.1 73.6 7.9 23.1 3.3 12.9 0.7 23z m-46 43.9l-11 3.2-13.1-7.6-10.4-16.9-5.7-25.2-7.2-23-19.5-32.5-19.1-36.7-5.2-12.9-12.8-39.4-1.4-21.9 7.2-6.6 10 9.1 9.7 18.1 19.9 51.9 50.4 100.7 4.7 6.6 6.5 16.8-3 16.3z m136.3-133.2l4.2 9.9 7.7-1.9 7.9-10.6 8.7-0.6 10.1 9.7 5 15.8-3.5 13.7-4.7 10.6-12.9 6.1-23.1-8.8-21.5-21.8-17.2-30.8-10.7-26.1-6.8-39.5-9.3-9.8-7-20 9.7-12.4 17 5.6 10.4 12.1 7.2 19.7 5.5 22.8 8.9 17.1 10.4 14.8 4.1 13.7-0.1 10.7z" id="FRO1443" name="Eysturoyar" data-id="FRO1443" data-name="Eysturoyar">
 </path>
 <circle cx="342.1" cy="235.7" id="0">
 </circle>
 <circle cx="688.9" cy="295.1" id="1">
 </circle>
 <circle cx="999" cy="108.6" id="2">
 </circle>
</svg>