<?xml version="1.0"?>
<!--
************* Copyright (c) 2017 Pareto Softare, LLC DBA Simplemaps.com *******************		
************* Free for Commercial Use, full terms at  http://simplemaps.com/resources/svg-license ************
************* Attribution is appreciated! http://simplemaps.com ***************************
-->
<svg baseprofile="tiny" fill="#7c7c7c" height="1080" stroke="#ffffff" stroke-linecap="round" stroke-linejoin="round" stroke-width="2" version="1.2" viewbox="0 0 1000 1080" width="1000" xmlns="http://www.w3.org/2000/svg">
 <path d="M296.7 228.3l-0.9 24.5-2.7 8.6-1.9 3.5-2.5 6.6-0.7 3.4 0.2 2.4 2.6 3.7 1.7 3.1 1.5 5.1 0.8 1.5 1.4 0.4 2.5-0.5 89.7-31 1.5 0 0.7 0.4 1.7 6.9 0.5 3.7-0.4 11.9-0.3 2.2-1.7 4.7-0.9 4.1-0.7 1.8-2.6 2.1-1.3 1.8-1.9 7.1-0.6 1.3-2.1 3-0.9 1.9-0.8 2.6-2.1 3.5-0.7 1.6-3.6 12.7-0.5 4.5-0.6 2.3-2 2-0.8 2.7 1.3 5.7 0.1 2-0.3 1.8-0.9 2.1-2.2 2.5-1.1 1.5-1.1 1-3.2-0.6-1.4 0.1-5.2 2.5-10.5 1.3-2.5 0-1.4 1-0.2 1.6 0 2.4-0.3 1.3-1.3 1.8-3 2.7-1.2 2.6 0.2 2.1 0.4 1.2 1.5 3.2 0.1 1.5-0.8 1.6-4.7 2.3-1.5 1.1-1.8 2.3-3.6 3.6-2.8 1.6-2 2.3 0.7 2.3 0.6 3.4 0 2.4-0.6 0.7-3.4 1.3-0.4 1-0.1 1.7-0.8 0.9-20.7 16.3-2.1 1.3-3.2 1.2-12.3 7.4-2 1.8-5.8 7.1-3.7 3.1-20.8 13.2-15.7 6.5-3 0.2-1-1.1-0.3-1.5-0.3-3.3-0.7-1.7-1.1-5.1-0.8-1.6-1.3-1.5-3.1-1.5-3.3-0.3-3.3-1.3-1.8-0.5-1.7 0.3-3.1 3.5-2.2 2.2-2.9 2.1-5.3 2.8-2.9 0.5-1.9-0.6-3.5-3.1-1.6-0.3-3 1.9-4.2 2.1-1.8 0.3-5.1 0.3-1.7 0.4-7 2.6-6.7 3.4-3.1 1.3-0.9 1.4 2.4 22.1-1 4.2-7.9-9.6-5.5-3.8-5.8-2.7-1.6-0.4-3.2-0.3-2.3-1.4-2.5-2.5-8.9-11.9-1.5-3.4-3.8-14.4-2.4-2.3-0.1-11.8 1.3-3.6 3.9-7.7 0.8-3.5 0.2-1.9 0.7-3.7 0.2-2-0.4-1.6-2-4.4 0.2-2.2 0.5-2 1-1.9 1.3-1.6 0.9-1.6-0.4-1.5-1.1-2.7-0.3-3.7-6-32.6-2-5.5 0.6-1.6 0.9-4.5 1.1-1.5 5.4-4.9 1.9-0.5 1.7 1.2 1.5 3.4 0.7 4.2-0.4 3.5-1.6 6.4 0.3 2 0.8 1.9 0 1.4-1.7 0.6-0.9 0.7-0.3 1.7 0.1 2 0.5 1.6 1.5-1.4 2-2.8 1.9-0.5 5.6 0 0.9 0.6 0.9 2.2 4.5 4.4 1.6 3.3 0.6 6.6 2.5 1.8 1.2 0 0.5-1.8-0.9-7.4 0.1-3.1 1.9-3.1 8.5 2.4 2.2 1.1 0.9 1.9 1.4 6 1.2 1.6 0.7-1.2 4.9-4.8 1.5-1.1 2.6 0.1 1.5 1.1 1.8 3.5 8.6-1.5 6.2 6.4 5.3 8.3 5.6 4.5-6.3-11.5-2.4-3.2-0.5-2.9 3.4-1.5 4.4 0.2 2.7 2.5 2.1-1.4 3.2-4.1 1.8-1.8 6.1-3.8 2.2-0.8 2.7 0.1 5.1 1.8 2.7 0.6 2.6-0.3 6.9-2.2 0-1.3-8.6 0.2-3.4-1-3.3-2.7-2.7 1.7-3.2 1.6-3.4 1.1-13.2 0.8-2.3 0.8-7.7-2.7-2.2-1.4-2.6-2.4-1.4-0.8-5.5 0.2-1.8-0.9-8.2-6.1-6-3.6-2.5-2.5-0.9-3.4-1.2 0-1 2.1-1 0.6-2.1-0.4-1.4 0.4-3.9 1.7-1.2 0.3-1.4-2-1-6.1-1.8-1.3-2.5-2.5-8.2-18.9-2.2-3.3-4.8-5.4-3.2-1.5-3 0.2-2.7-0.1-2.3-2.7-0.1-2.5 0.7-9.5 1.2-2.1 3.7-0.4 3.9-0.8 1.9-0.8 3.5-2 1.8-0.7 2.3-0.3 3 1 2.3 0.3 1.5-0.3 2.3-1.6 3.1-1.3 2.7-1.7 3.1-1.3 3.3 0.4 2.8 2.8 1.2 3.9-0.6 3.6-2.9 1.5-7.4-1.6-3.7 0.5-2.3 3.5 3.9-1.2 5.1 0.3 4 2.2 1 4.5 2.1-0.6 1.5-1.2 0.9-1.8 0.2-2.2 2.1 2.7 0.3 5.1-0.9 4.9-1.5 2.6 1.7 4.9 1.4 1.5 2.9 0.6-0.8-2.7 0.1-3.5 0.8-3.1 1.5-1.3 1.1-1.5 1.8-7.5 1.4-2.7-2.4-3.4-0.6-3.6 0.6-8.4-1.7-20.4-6.1-16.2-0.5-4.1-0.8-2.8-1.4-1.8-1-2 0.9-3.5 2.1-3.6 2.3-1.7 2.5-0.5 3.1 0 3-0.9 1.7-2.1 1.2-2.3 1.7-1.8 3.1-0.5 10 0.2 2.8 0.9 2.3 3.8 1.4 7.3 1.6 3.7 1.4-2.9 0.7-2.2 5.1 0.6 2.7 1 2.8 2 4.5 5.1 2.8 2.2 3 1.3 3.1 0.5 2.7-0.6 2.1-2 0.6-2.3 0-5.1 0.9-2.5 8.4-1.1 18.8 0.1 47.5 0.1z" id="GAB2168" name="Estuaire" data-id="GAB2168" data-name="Estuaire">
 </path>
 <path d="M893.9 416.7l-12.7-4.5-8.5-6.1-3.7-2.2-3.5-1.4-34.3-7.5-2.6-0.2-6.7 0.4-32.3-1.3-3.4 0-1.5-0.3-3.5-1.9-1.9-0.7-4.5 0.2-2.1-0.3-1.9-0.9-1.8-1.1-6.5-3.2-1.2-1.3-0.7-1.6-3.3-10.4-0.3-3.4-0.7-1.4-2.9-2-2.3-2.4-1.5-0.7-5.1 0.8-2.9-0.2-2.5-1-3.3-2-2.7-2.1-1.4-0.5-5 4.6-1.9 1.1-2.5 0.3-2-0.2-5.2-1.6-4.3-0.6-3.2 0.3-2-0.7-1.5-1.2-0.9-1.6-1.3-1.5-2.9-2.7-1.7-0.9-2.3-0.4-11.2 5.5-1.7 0.3-1.7-0.3-1.6-0.9-2.8-2.9-1.1-0.9-0.9 0.6-26.1 116.3-27 13.7-126.9 46.8-5.1-10.9-0.6-1.7-2.8-13.9-2.5-5.6-2.1-3-1.5-1.7-6.4-5.3-1.4-1.7-1-1.8-2.7-8.9-0.4-2.7 0.2-4.3-0.2-2.7-0.5-2.2-0.9-1.8-8.9-13.4-0.9-1.7-0.8-3.4 0-4.1 0.5-4.9-0.7-7.8-1.4-5.8-0.5-1.2-1.2-1.1-1.5-0.6-3.1-0.6-1.5-1.7-0.6-1.4 0-1.6 0.4-1.7 2.9-5.4 1.5-5.4 1.4-1.7 4.3-3.1 2.5-2.4 24.2-12.6 2.9-0.5 1.9-0.7 2.5-2.1 2-1.4 3.4-2.8 1-1.8 0.6-2.3-0.3-2.4 0.8-5.6-17.5-18.4-0.8-1.5 0.2-1.1 1.4-1.3 123.7-84 1.2-1.4 0.7-1.5 1-4.8-0.7-1.5 0-1.5 0.6-2.9-0.5-6.3 0.1-3.5 0.8-3.2 5-6.3 1.3-2.3 3.1-6.7 3.1-3.8 3.2-6.4 2.2-2.2 0.8-1.4 0.6-3.5 2.4-3.1 0.5-1.1 0.4-3.2 142.7 2.1 1.8 0.3 3.5-0.6 6 0.4 3.5-0.7 3.2-1.4 3.2-3.9 3.1-0.4 2.9-0.8 1.1-3 1.4-1.3 3.3-1 3.8-0.4 2.6 0.3 6 2.1 5.3 1 5.2 0 5.8-1.1 2.2-1.6 3.9-5.3 6.2-2.4 2.2-1.8 2.5-1.6 3.4-0.3 3.2 0 3.1-0.6 1.2-0.6 2-1.6 1.2-0.4 3.4 1.3 2.4-1.1 2.1-4.1 1.6-4.5 0.2-0.8 2.4-0.6 32.5 3.1 2.9 0.6 3.2 1.9 2.5 2.5 2.7 1.9 3.6 0.3 6.2-2.4 3.1-0.8 3.4 0.3 6.8 1.9 1.5 1 2.4 2.1 2 0.4 0.6 1.9 1.5 0.9 1.9 0.8 1.9 1.5 1 1.9 2.5 10.7 0.5 4.5-0.2 13 1.4 4.4 2.7 3.6 8.3 3.8 2.3 3.5 2.7 8.8 1.9 4.1 2.4 3.7 2.9 3.4 3.3 3 4.1 2.1 1.3 1.4-0.3 2.3-1.6 1.6-2.1 1.2-1.3 1.4 0.6 2.1 1.2 8.1-5.9 7.1-7.9 6.8-5 7.1-0.5 8.9-1.2 3.6-12.7 11.1-1.6 1.6-2.3 0.9-8.7 0.4-9.6-1.1-8.5 1.2-5.3 7.3 2 3.6 1 3.5-0.6 3.5-3.3 3.7-12.7 7-3.6 3.9-6.1 13.7-5.9 8.7-0.8 4.1 0.9 4.4 1.7 5.3 0.8 4.2 0.7 12.4 1.1 1.2 2 0.1 2.1 0.3 1.4 2.2-0.3 1.8-2.4 3.1-0.8 1.7 0.4 2.5 0.9 2 0.1 1.8-1.8 2.2-1.7 1.7-2.2 2.8z" id="GAB2186" name="Ogooué-Ivindo" data-id="GAB2186" data-name="Ogooué-Ivindo">
 </path>
 <path d="M773 190.4l-142.7-2.1-0.4 3.2-0.5 1.1-2.4 3.1-0.6 3.5-0.8 1.4-2.2 2.2-3.2 6.4-3.1 3.8-3.1 6.7-1.3 2.3-5 6.3-0.8 3.2-0.1 3.5 0.5 6.3-0.6 2.9 0 1.5 0.7 1.5-1 4.8-0.7 1.5-1.2 1.4-123.7 84-1.4 1.3-0.2 1.1 0.8 1.5 17.5 18.4-133.4-0.2 1.1-1 1.1-1.5 2.2-2.5 0.9-2.1 0.3-1.8-0.1-2-1.3-5.7 0.8-2.7 2-2 0.6-2.3 0.5-4.5 3.6-12.7 0.7-1.6 2.1-3.5 0.8-2.6 0.9-1.9 2.1-3 0.6-1.3 1.9-7.1 1.3-1.8 2.6-2.1 0.7-1.8 0.9-4.1 1.7-4.7 0.3-2.2 0.4-11.9-0.5-3.7-1.7-6.9-0.7-0.4-1.5 0-89.7 31-2.5 0.5-1.4-0.4-0.8-1.5-1.5-5.1-1.7-3.1-2.6-3.7-0.2-2.4 0.7-3.4 2.5-6.6 1.9-3.5 2.7-8.6 0.9-24.5 55.4 0.2 51.5 0.2 51.5 0.2-1-180.5-0.1-13.8-1.3-6.6 1.1-1.8 0.7-2 0.3-2.1 0-2.2 0.3-2.8 1-2 1.4-1.8 1-2.4-0.3-2.3-0.8-2.3 0.4-1.5 45.9-1.7 4.4-1.6 2.2-0.5 2.4 0.3 1.7 0.9 3.5 2.9 8.8 2.9 2.7 0.3 5.8-0.8 15.1 0.5 13.1-1.2 13.1 0.8 10.1-0.7 3.1 0.1 6.9 1.1 7.5 0.3 3.4-0.7 6.6-2.2 3.4-0.5 1.8-0.4 3.6-2 1.7-0.1 2.1 0.7 5.6 3.5 3.1 0.6 9.5-2.2 6.6 0.5 12.6 4.1 4-1 2.7 2.1 4.1 1.5 23.3 3.5 3.5-0.7 2.4-1.5 2-1.6 2.1-0.9 3 0.8 3.9 1.7 3.4 0.8 1.5-2.1 2.4 0.9 2.2 0.2 1.9-0.7 1.8-1.6 5.2 1.8 2.9 0.5 1.9-0.5 2.4-1.1 2.7 0.6 4.9 2.1 7.3-0.9 1.6-0.7 3.5-3.3 2-1.5 1.5-0.6 5.2 0.3 4.8 0.9 2.4 1.9 1.1 0.5 1.6 0 3.7-1.3 1.9 0.8 2.7 1.9 2.6 2.3 1.6 2 0.7 2.6-0.7 5.2 0.1 14.5-0.6 5.6-1.7 4.1-6.2 3.4-1 0.8-3.1 3.4-2.5 1.3 0 1.4 0.9 3.2-0.3 1.8-3.2 3.6-1.2 2-1.1 2.7-2.1 0.6-0.7 0.8 2.2 3.1 1.4 3.1 0.9 1.2 0.7 2.1-0.2 2.7-1.8 6.4-1.3 2.6-1.8 2.3-2.2 1.2 1.3 3-0.5 3-1.2 3.2-0.6 3.6 1 7.9-0.5 4.1-3 3.4 2.8 5 3.2 4.4 1.2-1.2 1.9 1.5 1.2 2 0.3 2.3-1.1 2.5 3.6 1.8 3.1 8.3 2.7 1.7-0.2 1.5 0.3 8.1-0.1 2.8 2 3.2-0.3 0.9-1.1 0.6-1.6 3.5-2.5 1.6-2.9 1-2.4 0.4-1.4 1.1-0.6 2.4-1.3 2.1-3.3 0.4 1.8 1.5 2.1 0.8 1.6 1.1 0.5 2.4z" id="GAB2187" name="Wouleu-Ntem" data-id="GAB2187" data-name="Wouleu-Ntem">
 </path>
 <path d="M364.1 361l133.4 0.2-0.8 5.6 0.3 2.4-0.6 2.3-1 1.8-3.4 2.8-2 1.4-2.5 2.1-1.9 0.7-2.9 0.5-24.2 12.6-2.5 2.4-4.3 3.1-1.4 1.7-1.5 5.4-2.9 5.4-0.4 1.7 0 1.6 0.6 1.4 1.5 1.7 3.1 0.6 1.5 0.6 1.2 1.1 0.5 1.2 1.4 5.8 0.7 7.8-0.5 4.9 0 4.1 0.8 3.4 0.9 1.7 8.9 13.4 0.9 1.8 0.5 2.2 0.2 2.7-0.2 4.3 0.4 2.7 2.7 8.9 1 1.8 1.4 1.7 6.4 5.3 1.5 1.7 2.1 3 2.5 5.6 2.8 13.9 0.6 1.7 5.1 10.9-14.9-0.7-5.6-0.8-10.2-3.6-9.9-4.7-26.4-20.4-2.3-0.5-2.1 0-6.9 1.6-30.8 1.8-3.5 0.9-1.8 0.8-1.5 1.1-2.3 2.8-1.5 0.9-1.5-0.5-3.7-2.5-1.7 0-1.6 0.9-2.1 3-1.6 1.2-2.3 0.6-1.8-0.4-1.6-1.2-0.9-1.6-1.5-1.7-1.8-0.7-2.5-0.4-1.9 0.2-1.7 0.8-1.3 1.1-1.9 0.8-4-0.9-1 0.8 0.2 1.4 2 3.2 0.5 1.6-0.4 1.5-2.7 2.2-1.4 1.5-5 7.5-3.6 3.5-8.7 5.2-1.6 1.5-1.1 1.5-1.5 5.4-0.6 3.4-0.1 1.7 0.5 3.3-0.5 1.7-6.9 11.9-2.2 1.8-6.3 3-0.9 0.6-0.3 1.4 1.7 2.6 0.4 1.6-0.4 1.7-0.8 1.7-2.4 3.2-1.4 1.5-1 1.6-0.4 3.2-0.4 1.5-1 1.3-1.8 0.8-0.8 1.4-1 3.1-1.2 1.4-2-1.8-1.9-1.1-10.2-0.2-4.1-0.9-2.7-0.2-4.3 0.3-2.6 0.7-2.3 1-5.2 3.3-14.7 15.2-2.8-1.4-8.1-1.2-2.3-1-1.6-1-10.6-9.7-1.5-1.9-0.2-1.5 0.4-1.7 4.5-8.4 1.2-3.5 0.3-3.6-0.3-1.7-2.8-6.8-0.1-2.1 1.2-3 0.1-1.7-0.7-2.1-1.3-2.2-6-4.9-2.2-1.1-1.7-0.4-3.3 0.2-6.5-0.3-2.4-0.4-4.7 0.4-1.7-0.1-1.6-0.6-1.5-1.2-0.9-1.9-1.8-1.8-4.6-3-3.6-1.7-7-9.4-11.3-36 1-4.2-2.4-22.1 0.9-1.4 3.1-1.3 6.7-3.4 7-2.6 1.7-0.4 5.1-0.3 1.8-0.3 4.2-2.1 3-1.9 1.6 0.3 3.5 3.1 1.9 0.6 2.9-0.5 5.3-2.8 2.9-2.1 2.2-2.2 3.1-3.5 1.7-0.3 1.8 0.5 3.3 1.3 3.3 0.3 3.1 1.5 1.3 1.5 0.8 1.6 1.1 5.1 0.7 1.7 0.3 3.3 0.3 1.5 1 1.1 3-0.2 15.7-6.5 20.8-13.2 3.7-3.1 5.8-7.1 2-1.8 12.3-7.4 3.2-1.2 2.1-1.3 20.7-16.3 0.8-0.9 0.1-1.7 0.4-1 3.4-1.3 0.6-0.7 0-2.4-0.6-3.4-0.7-2.3 2-2.3 2.8-1.6 3.6-3.6 1.8-2.3 1.5-1.1 4.7-2.3 0.8-1.6-0.1-1.5-1.5-3.2-0.4-1.2-0.2-2.1 1.2-2.6 3-2.7 1.3-1.8 0.3-1.3 0-2.4 0.2-1.6 1.4-1 2.5 0 10.5-1.3 5.2-2.5 1.4-0.1 3.2 0.6z" id="GAB2621" name="Moyen-Ogooué" data-id="GAB2621" data-name="Moyen-Ogooué">
 </path>
 <path d="M494 530.6l-3.2 5.1-4.6 5.3-1.4 2.2-0.8 2.1-1.1 9.9 0.1 1.6 0.7 3 0.4 4.2 1 3.5 1 1.6 3.3 3.6 1 1.5 1 3.4 0.5 2.2 0.3 3.5-0.3 2.8-0.6 3.3 0.5 3 1.2 1.6 1.6 0.6 3.4 0.9 1.8 0.1 1.7-0.5 3.5-1.5 5-1.2 11.9-7.5 3.4-1.1 1.7 0.2 0.6 1.4-0.3 1.5-0.2 2.8 0.5 3.7 1.6 5.2 0.9 1.8 6.1 8.5 2.8 3 8.3 5.9 6.3 6 1.4 0.9 6.6 3 1.5 0.9 3.5 3.5 6.1 7.5 1.1 1.8 0.1 4.3 0.4 2 2.4 8.1 0.6 6.4-0.4 4.1-0.5 1.9-1.9 2.8-1.3 1.1-1.2 2.4 0 1.6 0.5 2 1.6 3.9 1.8 1.5 3.4 1.6 1.6 1.2 11.4 15.5 2.3 2.5 10.6 9 1.7 0.9 21.2 7.3 1.7 0.1 12.1-1.1 1.7 0.1 2.8 1 0.9 2.5-0.7 3.7-2-2.2-1.9-0.4-0.7 2.3 1.5 18.6 1.4 7 3.6 5.5 6.7 3-0.8 3-3.1 4.9-1.2 2.6-0.3 2.5 1.2 7.2-1.2 4.9-2.3 5.9-1.2 5.6 1.9 3.8-68.2 14.6-5.4-0.5-5.2-3.7-5.9-7.2-3.1-2.3-1.7-1-5.4 2.6-7.3 2.4-6.2 1.2-3.8 1.5-5.8 5.4-2.9 1.7-2.8-0.3-3.2-1.6-5.8-4.6-1.3-1.5-0.7-1.5-1.1-1.3-2.3-1.2-8.7-2.6-6.4-0.2-0.3 0.1-1.4 3.3 3.7 10.1 0.6 3.8-1.2 9.5 0 3 1.4 3.7 4.3 6.9 1.6 3.9 1 4.4 0 3.6-0.9 3.5-1.6 4.4-12.5 20.5-0.3 1.2-12.1-15.6-13.8-14.2-13.5-11-10-11.2-3.3-2.9-0.8-1.6-3.2-11.9-0.8-1.7-1.5-1.6-14.2-8.7-1.4-1.4-0.9-1.6-1.4-5.1-0.9-1.7-1.3-1.6-1.7-1.4-1.9-1-2.5-0.7-74.5 9.6-6.9-11-2.5-2.9-2.2-1.8-4.6-6.8-1.1-2.5-3.1-11.8-1-1.6-3.1-2.3-1.5-1.6-1-1.9-0.5-2.4 0.2-3.8 2.2-5.6 0.2-1.8-0.5-1.7-1.8-1.2-3.5-1.2-3.5-2.9-7.3-4-1.6-0.1-3.1 2.2-1.7 0.9-1.8 0.3-1.9-0.1-12.1-2.9-3.4 0-1.8-0.9-1.9-1.7-1.8-1-3.9-2.7-5.4-1.4-5.5-3-8.6-2.8-3.5-0.6-5.7-0.1-1.6-0.1-1.5-0.8-1.7-1.2-1.5-1.5-5.7-7-1-1.7-2.1-5.3-0.9-1.8-2.4-3.3-2.5-2.5-0.2-1.5 3-2.9 1-1.5 0.5-3.5 1.7-2.1 1.7-1.1 1.7-0.4 3.3-0.3 1.5-0.8 1.4-2.3 1.5-3.5 1.1-5.4 0.2-3-0.2-2.4-1.8-8.9-0.4-3.4 0.1-3.3 0.6-1.9 1-2 12.1-11.6 2.4-4.9 1-6.9 14.7-15.2 5.2-3.3 2.3-1 2.6-0.7 4.3-0.3 2.7 0.2 4.1 0.9 10.2 0.2 1.9 1.1 2 1.8 1.2-1.4 1-3.1 0.8-1.4 1.8-0.8 1-1.3 0.4-1.5 0.4-3.2 1-1.6 1.4-1.5 2.4-3.2 0.8-1.7 0.4-1.7-0.4-1.6-1.7-2.6 0.3-1.4 0.9-0.6 6.3-3 2.2-1.8 6.9-11.9 0.5-1.7-0.5-3.3 0.1-1.7 0.6-3.4 1.5-5.4 1.1-1.5 1.6-1.5 8.7-5.2 3.6-3.5 5-7.5 1.4-1.5 2.7-2.2 0.4-1.5-0.5-1.6-2-3.2-0.2-1.4 1-0.8 4 0.9 1.9-0.8 1.3-1.1 1.7-0.8 1.9-0.2 2.5 0.4 1.8 0.7 1.5 1.7 0.9 1.6 1.6 1.2 1.8 0.4 2.3-0.6 1.6-1.2 2.1-3 1.6-0.9 1.7 0 3.7 2.5 1.5 0.5 1.5-0.9 2.3-2.8 1.5-1.1 1.8-0.8 3.5-0.9 30.8-1.8 6.9-1.6 2.1 0 2.3 0.5 26.4 20.4 9.9 4.7 10.2 3.6 5.6 0.8 14.9 0.7z" id="GAB2622" name="Ngounié" data-id="GAB2622" data-name="Ngounié">
 </path>
 <path d="M489.4 883.8l-1.7 6.6 0.9 4.1 2.9-0.5 7-4.9 4.9-1.5 3.4 1.1 2.8 3.2 5.9 8.6 13.1 14 2.5 3.9 0 3.7-4.2 2.6-4 0.5-2.3-0.2-1.8 1-2.3 4.3-0.9 3.1-0.1 11.9 0 1.6 2.8 2.5 9.8 4.1 3.6 2.2 6.9 5.7 6.3 3 8.1 2.2 6.7 3.1 1.8 5.6-2.3 3.7-7.4 5.5-2.3 4.2-9.9 23.2-0.4 4 1.7 3.6 3.5 2.1 4.1 1.4 3.3 1.8 1.2 3.6-1.3 3.9-3.1 3.6-3.7 2.8-3.4 1.3-3.2-0.1-9.9-2.8-3.5-0.4-9.4 1.2-3.7-1.2-2.9-3.2-13.6-22.1-6.4-4.9-8.6-1.2-4.8 3.2-3.2 5.3-3.8 5-6.6 2.2-7.1 1.4-5.5 3.4-5.1 4.2-5.9 3.8-4.5 3.9-2.8 5.4-11.4 30.9-2.7 5-7.5-4.8-8.5-8.8-2.6-11.2-1.7-3-1.1-3.2-0.6-3.4-0.3-3.9-3.5-4-5.8-4.2-21.1-18-27.7-19.1-1.4-7.8 0.2-2.7 1-2.9 0.6-3.9-0.7-3.3-1.6-3.3-2.5-2-3.8-2.3-5-3.8-2.9-1.4-0.7-3.3-6.4-7.2-2.3-2.7-7.8-8.4-18.2-15.3-22-17.1-8.7-7.2-22.3-16.2-10.4-8.8-2.9-2.2 6.6-1.8 51-14.9 3.4 0 1.6-0.7 1.6-2.5 0.8-2.1 1.4-7.3 0.6-1.8 1.2-1.8 1.8-1.8 3.1-2 4-1.2 1.1-0.9 0.2-1.2-0.4-1.3-2.4-3.8-0.5-1.7 0.4-1.8 1.1-2.1 2.2-2.8 1.8-4.3 5.9-5 24.5-12.3 74.5-9.6 2.5 0.7 1.9 1 1.7 1.4 1.3 1.6 0.9 1.7 1.4 5.1 0.9 1.6 1.4 1.4 14.2 8.7 1.5 1.6 0.8 1.7 3.2 11.9 0.8 1.6 3.3 2.9 10 11.2 13.5 11 13.8 14.2 12.1 15.6z" id="GAB2623" name="Nyanga" data-id="GAB2623" data-name="Nyanga">
 </path>
 <path d="M57 530.9l-2.5 1.1-2.4-0.1-2.7-1.8-1.5-2.3 0-2.2 0.5-2.3 0-2.7-0.8-1.4-2.3-2.5-0.6-1.9 0-2 0.3-1.3 2-2.6 1.9-1.9 3.8-2.2 1.5-1.9 0.9 1.7 0 1.4-0.7 1-1.5 0.6 0 1.3 6.2 1.3 1.4 6-0.6 7.2 0.1 5.5-3 2z m94.4-30.6l11.3 36 7 9.4 3.6 1.7 4.6 3 1.8 1.8 0.9 1.9 1.5 1.2 1.6 0.6 1.7 0.1 4.7-0.4 2.4 0.4 6.5 0.3 3.3-0.2 1.7 0.4 2.2 1.1 6 4.9 1.3 2.2 0.7 2.1-0.1 1.7-1.2 3 0.1 2.1 2.8 6.8 0.3 1.7-0.3 3.6-1.2 3.5-4.5 8.4-0.4 1.7 0.2 1.5 1.5 1.9 10.6 9.7 1.6 1 2.3 1 8.1 1.2 2.8 1.4-1 6.9-2.4 4.9-12.1 11.6-1 2-0.6 1.9-0.1 3.3 0.4 3.4 1.8 8.9 0.2 2.4-0.2 3-1.1 5.4-1.5 3.5-1.4 2.3-1.5 0.8-3.3 0.3-1.7 0.4-1.7 1.1-1.7 2.1-0.5 3.5-1 1.5-3 2.9 0.2 1.5 2.5 2.5 2.4 3.3 0.9 1.8 2.1 5.3 1 1.7 5.7 7 1.5 1.5 1.7 1.2 1.5 0.8 1.6 0.1 5.7 0.1 3.5 0.6 8.6 2.8 5.5 3 5.4 1.4 3.9 2.7 1.8 1 1.9 1.7 1.8 0.9 3.4 0 12.1 2.9 1.9 0.1 1.8-0.3 1.7-0.9 3.1-2.2 1.6 0.1 7.3 4 3.5 2.9 3.5 1.2 1.8 1.2 0.5 1.7-0.2 1.8-2.2 5.6-0.2 3.8 0.5 2.4 1 1.9 1.5 1.6 3.1 2.3 1 1.6 3.1 11.8 1.1 2.5 4.6 6.8 2.2 1.8 2.5 2.9 6.9 11-24.5 12.3-5.9 5-1.8 4.3-2.2 2.8-1.1 2.1-0.4 1.8 0.5 1.7 2.4 3.8 0.4 1.3-0.2 1.2-1.1 0.9-4 1.2-3.1 2-1.8 1.8-1.2 1.8-0.6 1.8-1.4 7.3-0.8 2.1-1.6 2.5-1.6 0.7-3.4 0-51 14.9-6.6 1.8-10.2-7.8-30.5-37.7-3.7-6.6 3.2 2.3 4.9 5.3 3.7 1.9 4 0.4 2.3-1.4 2.2-2.8 3.2-3.4-0.4 2.5-1.3 3.7 0.5 2.2 1.6-0.8 0.8 1.6 0.6 3.2 1.4 1.8 2.7-1.1 6.1 2.1 1.4 0.9 2.5 3.9 0.7 3.8 1.1 0 0.4-1.7 0.6-0.8 1 0.2 1.6 1 0.3-1.1 0.8-0.1 0.6 6.3 0.6 2.1 1.2-1.4 1.4-0.8 1.5-0.3 1.8 0.1-0.6 2.4 0.7 0.6 1.5-0.7 1.9-1.2 1.3-1.4 1.3-3.2 1-1.3 2.5-0.9 3.8-0.6 3.6-0.1 1.9 0.4 4.5-0.4 1.5-0.8 1-2.2-3.2-2-1.4-0.5 0.4-3.2-3.4-1.7-4.2-1.6-2.3-2.9-1.1 0 1.1 3.1 2.4 8.8-2.4-0.4-1.4-1.2-0.8-1.4-2.1-1.4-2-3.2-1.3-0.7-1.3-0.2-2.2-0.8-1.3-0.2-0.6 0.4 0.1 3-2.3 3-1.3 3.1-2.4-1.1-2.2-1.4 0.7-1.7-1.1-3.6 0.4-1.7 1.6-0.8 3.7-0.1 0.6-1.5-2.1-1.7-4.4-1.4-4.7-0.8-3 0.3-3.9-8-0.3-1.3-1.8-1.2-0.8 0-0.4 1.7-0.6 0.1-2.8 1.6-4.4-0.9-4.1 3.1-3.9 3.8-4 1.1-1.7-0.9-1.6-1.6-1.1-2-0.4-2 2.4-2.4 1.5-0.9-1.3-1.1-1.9-0.9-0.7 0-0.3-1.4 0.3-2.5-1.1-0.8-2.6-0.1-0.7 0.6-0.4 1.2 2.2 4.1 0.6 2.5-1.6 2.2-2.7-1.2-7.2-8.6-3-2 1.6 2.5 3.8 4.6 1.6 2.5-3.9-2.6-4.6-4.5-3.9-5.1-1.7-4.4 0-1-1.4-3.9-1-15.6-1.3-2.6-17-16.8-4.6-2.6-5.2-6.2-2.5-2 1.2-2.4-3.7-1-2.2-3-2.3-6.5-7.2-7.1-1.2-1.8-0.8-0.3-3-3.1-0.3-0.8-1.8-0.8 0.4-1.6 1.3-1.2 0.7 0.7 1.3 3.1 3.1 2.5 3.9 1.2 3.6-0.3-1.3 1.3 2.2 0.9 1.2-0.9 1.4-3.7 1 0 1.3 3.7-1.8 0.8-0.5 2 0.5 1 1.2-0.7 0.9-1.4-0.3-0.7 8.8 0 4.8 1.2 2.4 2.9-0.4 3.5-3.8 3.1 2 2.3 2.1 1.2 3.8 0.4 0.9 0.2 0.5 1.1-0.1 2.9 0.3 1.3 3.5 2.4 0.9 2.9 1 1.4 1-2.2 2.4-0.9 0.6-0.6-0.5-3.1-1.1-3.4-1.5-2.4-1.6 0-1.9-2.1-4.2-3-1-1.9 2-3 1.7-1.2-0.3-1.1-5.6-9.7-3.2-3.2-1.7 1.6-2.7-1.5-0.9-0.8-0.6 1.6 0 1.6 0.6 3.8-3.2-2.6-4.3-8-3-1.3-1.3 1.2-1.7 4.8-1.7 0.6-0.9 1.4-0.4 1.8 0.1 2.1-1.2-1.2-1.4-0.9-1.5-0.3-1.9 0 2-3.5-0.4-1.9-3.9-2.9-3.8 2.5-2.5-0.9-1.5-3.4-0.4-5.1 0.1-2 0.9-4.5 0-7.1-0.3-1.9-1.5-3.8-0.5-2 0.2-5.3-0.2-1.8-2.9-7.1-3.9-5.4-9.6-9.9-21.5-30.1-1.6-3-3.3-8.1-0.8-3.6 2.3 4.6 1.8 5.2 2.1 3 3.3 3.7 2.7-0.3 2.7 1.2 2.1 2 1.8 5.5 4 4.2 0.9 3.3 1.1 1.7 5.4 6.8 2.3 1.5 1.1 1.1 8.3 6.7 1.4 0.7 5.1 1.5 1.6 21.4 1.1 2.7 2-0.9 0.5-1.8-1.6-2.3 0.5-1.3 1.5-0.7 1.3 0.7 0.9 1.4 0.4 1.5 2.6-2.9 4-2.4 4.6-1.4 4.2-0.3-1 2.7-0.2 2.9 1 2.5 2.5 1.4 1.2-5.8-0.1-2.9-1.1-2 5.4-0.8 14.2 2 5.2-1.2-7.1-2.7-2.7-2.1-2.1-3.4-1.6-6.5-0.2-3.7 0.8-2.9-1.4-0.4-3.4-1.9-3 0-1.2 0.4-0.1 1.1 0.7 2.6-0.2 1.8-1.3 1.4-4.3 5.8-4 2.8-4.6 1.4-5.6 0.4-3.4 0.7-1.3-0.7-1-1.3-0.2-2.7-1.2-2.6-0.1-1.5 0.1-3.2-0.7-0.8-4.1-0.9-0.3-2.7 1.4-1.9 2.5-1 3-0.3 1.4-1 0.3-2.4-0.7-2.4-1.6-1.4 0-1 1.6-0.5 4.1-0.3 1.3-0.5 1.4-1.7 0.8-3.3 2.7-5-0.5-2.9-3.2-6 1.1-1.9-2.3-1.7 0 3.5 1.2 9-0.5 1.8-1.2 1.7-1.7 1.3-1.9 0.5-1.5-0.5-1.5-2.4-1.1-0.6-2.8 0.9-1.7 2.5-1.4 2.5-1.8 1.1-8.2 1.6-2.9-0.4-1.9-2.3-0.5-3.6 0.3-3.3 0.4-1.5-1.5-1.3-0.7-1.1-3.4 1.7-1.1 1.1-2.2-0.4-2.5-1.4-6.1-4.6-2.6-0.9-2.1-1.2-1.5-2.9-0.4-3.5 1.2-3.1-1.3-2.3 3.3-2.4-0.8-4-2.9-4.1-3.2-2.5 2.1 5.2-1 4.6-0.6 1.6-1.1-0.2-0.5-1.8-1.3-10.6-2.9-7.5-17-22 4.4 4.3 2.5 1.2 2.6-0.9-2.5-1 1-2.4 1.5-1.9 1.3-1.3-1.1-1.2-5.1 3.4-2.9-0.7-1.2-2.8-1-4.2-1.3-3-1.8 1.1-1.2 0-1.5-6.1-0.9-2.1-2.6-4.4-4.5-10.3-3.7-6.3-2.3-9.1-5.3-6.8-4-12.7 2.3-3.6 1.3 1.3-1.5 3.3 1.9 1.5 5.5 1.1-0.9 2.6 0.9 2 3.7-0.1 2.6 4.2 1.4 5.8 0.8 7.2 1 2.6 1.7 2 2.3 0.8 1.4 1.2 0.4 2.5 0.8 2.4 2.8 0.8-1.5-2.9 0.2-2.9 0.8-3 0.5-3.5 0.9-2.4 2.3-0.2 3 0.7 3.1 0.1 0-1.1-1.7-0.8-1.8-1.4-1.2-1.8 0.1-2 1.2-1.1 1.7 0.1 4.2 2 1.7 2.4 1.2 2.9 0.6 2.6 1.3 3.5 6.2 5.8 2 3 0 3.5-1.2 6.1 1.2 2.4 1.1 0 0.8-3.2 0.4-10.5 0.9-3.2 4.1-4.5 1-2.9-0.2-3.9 2.3-2 2.8-1 0.9-0.6 0.5-1.8-0.3-1.8 0.2-1.6 2-0.8 2.3 4.6-0.3-4-2-2.8-1.4-2.9 1.4-4.4 10.2-9.1 3.1-6.2 15.3-17 4.3-6.6 2.5-7.1-0.1-10.5 2.4 2.3 3.8 14.4 1.5 3.4 8.9 11.9 2.5 2.5 2.3 1.4 3.2 0.3 1.6 0.4 5.8 2.7 5.5 3.8 7.9 9.6z" id="GAB2624" name="Ogooué-Maritime" data-id="GAB2624" data-name="Ogooué-Maritime">
 </path>
 <path d="M893.9 416.7l-7.8 10.4-1.8 4.2-0.1 4.9 7.9 9.5 1 0.8 3.4-1.1 0.7-0.8 1.2-2.3 1.3-0.5 6.1 0.7 1.7 0.7 1.4 1.1 1.3 1.7 6.2-1.7 6.9 1.1 6.3 3.1 4.5 4.4 2.9 5.9 2.1 6.9 1.2 7.1 0.4 6.4 2.8-1.6 2.9-0.9 2.9-0.1 3.2 1.3 2.8 0.7 2.6-0.9 2.7-1.3 2.9-0.4 4.8 1.4 6.6 2.9 5.8 3.6 3.8 5.1 6.8 4.7 2.1 2.3 4.1 8.3 1.5 5.2-1.2 5.5-7 15.2-0.9 4.2 0 4.2 1.2 4.4 0.7 5.2-1.9 3.7-3.1 3.3-2.6 4.3-0.9 3.9-0.9 7.5-1.8 3.6 0 2.5 4.9 13.5 1.8 3.7 0.6 2-0.2 1.5-0.9 3 0 1.5 1.3 2.1 3.6 3.5 1.3 2.3 0.3 1.5-0.2 5.4-0.7 3.8-1.6 3.5-1.2 1.4-2.6 2.4-0.5 1.9 1 3.3 2.6 2.6 6 4 1 3.6-1.3 1.9-2.1 1.4-2 2-0.7 1.6-0.2 4.1-2.2 5 2.2 2.3 2 3.1 0 2.5-5.6 1.1-1.1 1.5-0.7 2-1.2 1.7-1.6 1.2-1.6 0.8-3.5 1.3-1.6 1.4 1.2 1.2 3.3 1.9 2.1 7 2.9 0.9 3.6 0.6 1.4 1.1-4.1 2.5-2.1 2.3-1.1 3.7-0.5 13.7-1.1 4.5-0.1 1.4 1.4 7.5-1.3 2.4-4.6 2.5-20.3 8-2.1 2.5-0.4 1.5 0 2-0.9 1.6 0.1 1.1 2.3 1.9 0.9 1.5-0.2 1.7-1.1 3.4-1 9.1-0.8 2.4-1.2 1.2-2.9 1.1-1 0.8-0.2 1.7 1.1 3 0 1.3-2.3 2.5-5.9 2.2-2.4 1.8 0.6 5.9 13 11 1.3 5.5-0.7-0.5-8.3 1.9-3.2 1.9-3.3 2.8-1.4 1.5-0.8 1.7 0.1 4.5-1.2 1.5-1.7 1.3-1.4 1.5-1.9 5.4-1 1.3-1.6 0.2-1.7-0.7-2.6-1.6-2.9 0.1-7.9 2.5-1.3-0.1-1.1-1-0.5-3.1-1.6-1.2-1.7 0-1.6 0.8-3 1.8-3.6 0.7-4.2-0.2-3.9-1.3-2.8-2.5 0.2-0.8 0.1-6.7 1.3-1.5 3.5-1.8 2.5-5.2 2-1.2 0.8-1.2-2.4-3.2-1.8-1.2-1.8-0.9-1.3-1.3-0.6-4.8-1.1-1.6-3.2-3.3-2.1-3.1-3.9-8-1.6-7.1-1.5-3.7-2-3.2-2.4-2.3-2.4-1.5-0.4 0.9-3.6 5.4-1.8 3.4-0.4 1.9-0.3 3.4-0.6 1.8-1.4 1.9-13.1 12.7-1.2 1.8-0.5 3.7-0.7 1.5-1.7 1.2-4.1 1.3-2.1 1-1.7 1.5-2.5 3.2-1.5 1.4-5.5 3.9-1.7 1.7-1 1.6-1.2 3-1.9 1-0.9-0.3-1.4-2.1-1.1-0.3-2.4 0.8-4.6-0.6-3.3 0.8-3.1-0.4-30-11.1-1.7-0.4-2 0.3-3.2 1.9-1.9 0.4-3.6-0.9-11.1-5-4.3-0.8-2.2 0.7-5.1 5.1-2.3 0.1-0.5-1 0.9-1.6 1.9-1.6 1.5-2.7 0.5-1.5 0.5-3.2 2.4-3-0.5-1.9-1.8-0.2-1.3-1.3-0.4-1.4-0.9-4.6-1.6-2-3.2-5.3-1.5-1.4-4.2 2.1-2.5 0.1-0.7-3-0.1-1.8-0.7-1.2-2.2-2.2-0.4-1.2 0.3-1.1 1.7-3.2 0.1-1-3.3-0.9-0.3-0.9 0.5-1.9-0.7-3.9-0.8-1-2.7-2.7-1-1.2-1.5-3.7-3.8-12.5-2-4.2-2.9-2-7.3-2.3-0.7-0.6 0.3-1.2 2.4-6.3 1.2-4.7 2.4-5.3 0-1.6-0.6-3.4 0.4-1.7 12.7-26.3 3-3.8 0.9-1.5 0.6-1.7 1.4-1.8 1.1-2 0.7-2 0.4-5 0.6-1.6 1.5-2.4 1.5-1.7 3.2-2.5 1.2-1.9 0.9-2.9 1.8-1.6 5.1-2.7 2.2-0.1 2.8 0.1 1.7-0.5 1.7-1.1 3.1-3.1 2.5-3.2 1.4-1.4 1.6-1 3.1-1.2 1-1.2 2.9-5.1 1.7-1.5 1.9-1.1 1.6-0.6 1.3-2.1 0.7-3.4 0.1-7.1-0.6-6.5-1.6-6.5-0.1-1.1 1.5-1.3 12.5 6.2 3 2.5 1.4-0.5 1-0.9 27.9-34 21.4-31.7 0.3-2.8-1.2-4.1-42.9-84.3-1.6-1.4-1.7-0.8-3.3-1-1.4-1.2-0.9-2.2-0.4-1.9-0.3-3.7-1.6-6.9-1.9-2.6-0.7-1.3 1.1-1.9 4.2-6 4.4-8.6 0.4-8.7 32.3 1.3 6.7-0.4 2.6 0.2 34.3 7.5 3.5 1.4 3.7 2.2 8.5 6.1 12.7 4.5z" id="GAB2627" name="Haut-Ogooué" data-id="GAB2627" data-name="Haut-Ogooué">
 </path>
 <path d="M789.6 393.9l-0.4 8.7-4.4 8.6-4.2 6-1.1 1.9 0.7 1.3 1.9 2.6 1.6 6.9 0.3 3.7 0.4 1.9 0.9 2.2 1.4 1.2 3.3 1 1.7 0.8 1.6 1.4 42.9 84.3 1.2 4.1-0.3 2.8-21.4 31.7-27.9 34-1 0.9-1.4 0.5-3-2.5-12.5-6.2-1.5 1.3 0.1 1.1 1.6 6.5 0.6 6.5-0.1 7.1-0.7 3.4-1.3 2.1-1.6 0.6-1.9 1.1-1.7 1.5-2.9 5.1-1 1.2-3.1 1.2-1.6 1-1.4 1.4-2.5 3.2-3.1 3.1-1.7 1.1-1.7 0.5-2.8-0.1-2.2 0.1-5.1 2.7-1.8 1.6-0.9 2.9-1.2 1.9-3.2 2.5-1.5 1.7-1.5 2.4-0.6 1.6-0.4 5-0.7 2-1.1 2-1.4 1.8-0.6 1.7-0.9 1.5-3 3.8-12.7 26.3-0.4 1.7 0.6 3.4 0 1.6-2.4 5.3-1.2 4.7-2.4 6.3-0.3 1.2-11.4-8.2-7.3-3-8.5 0.2-1.8 0.7-8.4 5.6-1.9 2.1-1.1 2.2-0.4 3.4-0.8 1.7-2.2 1.2-3-0.9-3.3-3.5 0.7-3.7-0.9-2.5-2.8-1-1.7-0.1-12.1 1.1-1.7-0.1-21.2-7.3-1.7-0.9-10.6-9-2.3-2.5-11.4-15.5-1.6-1.2-3.4-1.6-1.8-1.5-1.6-3.9-0.5-2 0-1.6 1.2-2.4 1.3-1.1 1.9-2.8 0.5-1.9 0.4-4.1-0.6-6.4-2.4-8.1-0.4-2-0.1-4.3-1.1-1.8-6.1-7.5-3.5-3.5-1.5-0.9-6.6-3-1.4-0.9-6.3-6-8.3-5.9-2.8-3-6.1-8.5-0.9-1.8-1.6-5.2-0.5-3.7 0.2-2.8 0.3-1.5-0.6-1.4-1.7-0.2-3.4 1.1-11.9 7.5-5 1.2-3.5 1.5-1.7 0.5-1.8-0.1-3.4-0.9-1.6-0.6-1.2-1.6-0.5-3 0.6-3.3 0.3-2.8-0.3-3.5-0.5-2.2-1-3.4-1-1.5-3.3-3.6-1-1.6-1-3.5-0.4-4.2-0.7-3-0.1-1.6 1.1-9.9 0.8-2.1 1.4-2.2 4.6-5.3 3.2-5.1 126.9-46.8 27-13.7 26.1-116.3 0.9-0.6 1.1 0.9 2.8 2.9 1.6 0.9 1.7 0.3 1.7-0.3 11.2-5.5 2.3 0.4 1.7 0.9 2.9 2.7 1.3 1.5 0.9 1.6 1.5 1.2 2 0.7 3.2-0.3 4.3 0.6 5.2 1.6 2 0.2 2.5-0.3 1.9-1.1 5-4.6 1.4 0.5 2.7 2.1 3.3 2 2.5 1 2.9 0.2 5.1-0.8 1.5 0.7 2.3 2.4 2.9 2 0.7 1.4 0.3 3.4 3.3 10.4 0.7 1.6 1.2 1.3 6.5 3.2 1.8 1.1 1.9 0.9 2.1 0.3 4.5-0.2 1.9 0.7 3.5 1.9 1.5 0.3 3.4 0z" id="GAB2628" name="Ogooué-Lolo" data-id="GAB2628" data-name="Ogooué-Lolo">
 </path>
 <circle cx="509.1" cy="27.8" id="0">
 </circle>
 <circle cx="443.1" cy="891.6" id="1">
 </circle>
 <circle cx="511.4" cy="23.9" id="2">
 </circle>
</svg>