<?xml version="1.0"?>
<!--
************* Copyright (c) 2017 Pareto Softare, LLC DBA Simplemaps.com *******************		
************* Free for Commercial Use, full terms at  http://simplemaps.com/resources/svg-license ************
************* Attribution is appreciated! http://simplemaps.com ***************************
-->
<svg baseprofile="tiny" fill="#7c7c7c" height="1458" stroke="#ffffff" stroke-linecap="round" stroke-linejoin="round" stroke-width="2" version="1.2" viewbox="0 0 1000 1458" width="1000" xmlns="http://www.w3.org/2000/svg">
 <path d="M815.1 547.9l-8.9-1.2-1.3 0.1-7.2 1.4-2.7 0.1-2.6-0.6-5.2-3-2.4-0.6-1.2 0-2.3 0.6-5.5 2.3-1.6 1.4-0.5 2.7 1.5 2 0.4 1.1 0 1.3-1.1 1.8-1.4 3.9-1.9 3.6-4.5 5.8-0.9 1.9-0.3 1.7 0.6 2.4 0.5 1 1.2 1.9 3.3 3 0.5 1 0.3 1.2-0.3 1.4-0.8 1.1-2 0.8-1.4 0-1.3-0.4-2-1.2-1.1-0.3-1.3 0.4-1.3 1-2.4 3.8-1.6 3.4-2.5 7.1-0.3 1.2-0.1 2.6 0.3 1.1 0.6 0.9 0.9 0.7 4.2 2 0.9 0.8 0.5 1 0.2 1.2-0.6 1.2-1.1 0.9-2.3 0.8-1.6 0.3-1.4 0.8-0.9 0.9-0.5 1.9 0.2 1.3 0.8 2.3 0.5 2.5 0 1.4-0.5 2.5 0.1 1.1 1.4 1.5 1.1 0.4 2.4 0.7 2.5 0.3 1.2 0 5.2-0.8 4.9-1.2 6.8-0.8 1.4 0.1 2.3 0.8 1.8 1.4 2.4 3.7 0.4 1.1 0.3 2.7-0.3 2.6-0.8 0.8-1.5 0.7-6.9 0.3-1.5 0.2-1.1 0.7-0.7 1.5-0.1 1.4 1.5 9.2 0.5 1 0.2 2.2-0.3 1.3-2.1 1.3-3.6 0.9-9.1 1.1-3.9 0-2.5-0.2-2.7-2-4.9-4.8-2-2.5-3.2-3.1-7.9-5.1-3.6-1.6-4.7-1.5-5.5-1-4.7 0.1-9.9 3.5-1.8 1-2.3 1.6-3.3 3.1-1.1 1.7-0.4 1.5 0.3 2.6-0.2 1.2-2.5 4-0.4 1.3-0.7 1-1.8 0.5-1.3 0.7-0.9 1.7-1.4 1.5-1.8 1.1-3.8 0.8-2.2 0-1.7-0.2-1.2-0.4-5.3-2.5-1.2-0.4-1.5 0-7.8 2.6-2 0.3-1.7 0-2.5-0.6-1.4 0.7-1.4 1.5-4.5 9.8-4.8 4.8-2.3 0.8-4.1 0.2-9.1-1.4-4.2-1.4-12.4-7.3-23.3-18.9-2.1-2.6-0.7-0.8-2.6-3.5-3.7-3.9-1.7-1.4-2.3-0.9-1.4-0.2-5.1 0.3-5 1-2.3 0.1-2.8-0.2-4.3-0.7-2.8-0.1-2.3 0.3-2.1 1.2-1.5 1.6-2.8 3.7-1.5 1.6-1.6 1.5-2 1-3.3 1.1-2.1 0.9-2.1 1.2-1.8 1.6-0.7 0.7-1.2 1.8-3.6 9.4-1.1 2.1-1.4 1.7-3.3 3-1.8 1.3-1.1 0.5-7.1 1.7-2.1 0.8-1.8 1.4-1.2 2-0.4 1.1-0.5 2.7 0 1.5 0.5 2.5 0.9 2 2.4 3.8 0.9 2.1 0.5 2.3 0.1 5.5-0.6 2.7-0.7 1.1-0.9 0.8-1.1 0.6-1.6 1.1-0.4 0.5-2 3.8-1.3 1.8-1.1 1.9-0.8 0.6-1.1-0.3-1.7-1.2-1.5-0.8-2.3-0.6-1.6-1-1.3-2-23.8-67.1-2.4-4.1-3.1-4-6.1-4-2.3-2.2-1.2-1.6 0.3-1.2 1.1-2 1.4-1.8 1.6-1.5 2.5-2.2 1.4-1.7 0.9-2.2 0.2-1.4 0.1-7.4 0.6-2.5 1.1-2.1 1.3-1.8 11.5-10.4 1.3-1.6 2.3-4.4 0.9-2.3 0.2-1.3-0.2-2.3-0.8-3.6-3.3-7.6-1.1-5-1.2-3.5-1.2-0.8-1.9-0.6-4.8 0-3.4-0.3-4.8-0.9-3.8-1.3-2-1-11.1-7.5-3.3-2.8-2.1-2.2-3.3-2.9-2-1-2.6-0.7-2.8-0.2-12 0.5-5.5 0.8-3.6 2.3-1.6 1.7-1.1 2-0.3 1.2-1.3 6.7-0.5 1.1-1.6 1.5-2 1.1-4.3 1.9-2.5 0.5-5.5 0.6-2.3-0.1-13.3-2.6-1.7 0-2.8 0.8-1.6 0.7-1.2 0.9-1.1 1.9-0.7 2.4-1.3 1.9-1.6 1.3-2.8 0.8-6.6 2.9-16.7-5.3-9.2 3.9-2.9 3.9-1.9 4.4-1 4.8-0.3 4.8 0.6 13.6-0.6 4.3-1 2.6-1.2 2.2-3.1 3.8-1.1 2.1 0.4 2 1 1.9 0.5 1.7 0.5 4.2 1.2 3.8 1.9 3.2 2.4 2 8.5 1.5 8.6-0.7 7 1.6 3.8 8.5 0.1 4-0.8 4.1-2.2 3-4.2 1.3-4.9-1.1-8.9-4.4-5.4-0.6-4.7 2.3-3.7 4.2-2.7 4.1-2 1.8-3.6 6.2-1.5 1.4-0.9 0.6-21.4 4.4-9.7 0.2-8.2-2-3.8-3.7-5.8-9.8-6.9-3.6-6.3-7.9-3.2-3-3.4-1.9-3-2.2-2.1-3-1.8-14.2-2.1-8.1-2.7-5-0.3-2-1-1.9-4.2-1.4-1-1.4-1.4-3.4-2.7-3.4-1.8-3.7 1.3-4.2-4-7.9-0.5-2.4-1.3-1.9-5.3-3.3-1.2-2.4-2-5.2-8.4-6.5-6.5-12.4-3-3.1-1-0.4-1.1 0-1.2 0.4-9-9.8-4.7-2.6-1.8-0.3-0.6-0.4-0.7-1-1.3 0.7-2.1 1-1.1-1.9 0.6-2.9 1.6-1.5 2.4-1.3 0.3-3.1-4.6-15.8-0.3-3.9-0.5-2-1.2-0.5-1.6-0.3-1.3-1-3.5-10.6-0.2-4.7-1.5-3.6-5.6-3.1-5.7-1.2-5.7-0.3-3.2-0.5-1.7-1.3-1.5-1.5-2.1-1.2 2.1-3.2 0.9-3.6 0.4-11.4 1-1.9 4.7-4.9 3.9-8 2.7-4.2 7.1-3.7 2.7-4.3 0.3-4.3-3.6-2-3.9-0.9-3.2-2.3-1.7-3.5 0.3-4.3 2.4-3 3-1.5 2.7-1.7 1.1-3.8 0-6.2-1.1-3.8-0.3-1.7 0.9-7.3-0.2-3.2-11.1-14.2-8.1-7.3-1.1-2.4-0.4-3.7 0.3-3.6 1.1-3.8 2-3.3 2.8-2.5-0.7-0.5 25.4-3.5 1.6-0.7 1.8-1.2 1.9-2.2 1.1-1.4 1.9-3.2 1.1-0.8 1.5-0.7 4-0.9 1.6-0.6 1.2-1 1.1-1.8 1.4-4.2 0.5-1.1 1.3-1.8 0.8-0.8 1.3-0.8 1.9-0.8 3.4-1 3.4-0.6 11.1-0.2 2.7-0.4 20.8-6.4 1.3-0.2 19.9 1.5 1.3-0.1 7.3-2.2 2.6-0.4 3.1 0 5.9 0.4 2.6 0.6 5.4 0.8 8.5-0.3 29.2-6.6 14.6 1 2.8-0.3 3.6-0.7 0.9 0 12.5 1.7 5.4-0.2 1.4-0.8 1.3-1.3 1.9-3.2 1.4-1.8 2.1-1.5 5.2-1.6 1.1-0.5 0.8-0.9 0.7-1.5 0.5-2.5 0.8-2.5 0.3-1.9 0.1-1.6-0.6-2.5-1.8-2.8-0.4-1 0-2.4-0.3-3.8 0.2-1.4 1.4-3.4 0.7-1 1-0.9 1.8-0.9 1.5-0.4 3-1.7 2.5 0 1.3 0.3 1.4 0 1.2-0.5 0.7-1 0.3-1.8-0.7-0.9-1.1-0.6-3.7-1-0.6-0.5 0.2-0.7 1.4-0.5 2.8-0.5 2.2-0.6 1.1 0.2 2.2 0.9 1.4 0.2 2.4-0.1 1-0.3 2.8-1.4 2.4-0.9 0.9-0.8 0.6-1.3-1-1.7-1.7-1.8-17-15.3-1.5-1.6 0.1-1.5 0.7-1.6 3.6-6.6 0.7-2.9 0.6-8.9 0.6-2.7 0.4-1.2 1.3-2.4 2.1-3 2.8-2.9 9-6.7 3.2-3.1 1.3-1.8 4.5-8.5 3-3.9 1.9-1.3 1.6-0.5 3.1-0.2 3 0.3 4.8 2 8.1 4.2 7.2 2.3 0.4 2.1 0.7 2.1 1.4 1.8 2 1.1 1.6 1.5 0.9 2.3 0.5 1 0.9 0.7 3.6 0.8 2 1.3 4 2.2 1.1 0.4 1.4 0.2 3.5-0.1 1.5 0.2 1.1 0.6 0.9 2.1 1 0.6 1.4 0.1 3.1-1.7 1.4-1.3 1-1.3 0.5-2.7 0.1-1.4-0.3-2.8-1.6-7.7 0-2.6 0.7-2.3 1.2-1.9 1.6-1.5 7.8-3.8 1.7-1.5 1-1.4 1-3.8 1-2.2 0.7-0.9 1.5-1.6 1.9-1.2 23.5-8.7 2.6-0.7 1.7-0.1 2.4 0.3 3 0.9 2.9 0.3 1.3 0.3 2 1.2 1.4 0.5 2 0.2 3.4-0.1 1.4 0.6 0.3 0.8-0.5 0.9-1.1 1.2-2.8 2.8-0.5 0.8 0 1 0.9 0.4 1.5-0.2 2.3-1.2 2.5-1.9 1.7-1.7 8.9-8 1.1-2.1 0.8-2.3 2.2-2.8 0.3-1 0.2-2.5 0.3-1.2 1-0.9 1.5-0.8 2.5-1 1.4-0.9 1-1 0.5-1.1 0.5-4.3 0.4-1.2 1.4-0.7 2.3-0.4 13.5 0.3 1.9 0.6 1.3 0.8 0.6 1 0.3 1.1-0.1 1.2-0.4 1-1.3 1.6-0.2 1 0.2 1.1 0.6 1 2.6 2.1 0.6 0.9 0.6 2.5-0.2 2.7-0.9 2.3-0.7 0.9-2.3 2.4-0.4 1.1-0.1 1.1 0.4 1 0.8 0.5 1-0.1 1.9-1.6 1.2 0.3 0.9 0.7 1.1 0.6 1.3-0.1 2.1-1.4 1.1-1.1 1.4-2.2 1-0.8 1.5-0.5 7.3 0 3.4 1.1 1.3-0.1 1.3-0.5 2.9-2.3 1.4-0.7 1.4-0.4 2.5 0 1.4 0.5 2.1 1.2 1.3-0.1 1.3-0.6 1.5-1.6 0.8-1.1 0.5-1.2 1.4-6.9 0.9-2.2 0.7-0.9 0.9-0.7 1.1-0.3 1.6 0.5 2.5 2.4 1 0.6 1.3 0.3 4.1 0.3 1.5 0 5.5-1.5 10.3-4.7 1.9-0.2 1.7-1.1 2.9-1 22.9-4.9 10.9-0.9 14.1-7.3 4.5-1.1-1.4 5.8-0.1 4.7 2.2 4.7 2 1.7 2.5 1.2 2.6 0.7 5.2 0.6 1.6 1.1 1.4 1.4 2.1 1.4 7 2.3 2 1.3 1.8 2.1 2.6 5.1 1.8 2.2 11.9 7.5 3.6 3.8 11.4 21.4 0.6 0.8 1.8-0.2 0.9-1.3 0.6-1.5 0.6-0.6 5.9 2.3 2.2 0.3 2.5-0.7 2.1-1 2.1-0.6 2.3 0.5 2.2 2.2 0.1 2.5-0.8 2.5-0.3 1.9 2.5 4.1 3.9 3.5 2.3 3.6-2 4.7 3.2-0.1 9.8-1.6 2.2 1 4.5 3.8-5.5 4.1-1 3.5-0.7 3.8-1.6 3 0.4 7.7-1.2 16.1 2.2 5.9 2.8 1.9 2.5 0.6 1.8 1.5 0.7 4.6-1 4.4-2.5 0.7-3.4-0.6-4 0.8 1.4 2.2-0.2 1.5-0.7 1.4-0.5 2.1 0.4 1.5 2.7 5.4 1.5 4.5-0.1 1.9-1.6 1.4-2.9 3.1-1.8 3.5-0.4 3.1 1 9.2-0.1 2.5-4.8 17.7 0.3 4.3 1.2 2.4 1.6 1.8 1.5 2.3 1.1 3.3 0.5 4.1-0.7 4-2.3 2.8-4 0.5-3.8-2.1-6-6.3-3.2 6.5 0.2 6.6 3.6 4.8 6.9 0.8 9.1-2.4 4.5 0.9 1.9 4.7-1.5 3.1-3.7 1.1-4.1-0.7-3.1-2.1-4 2.7-5.4 0.3-11.3-1.3-0.5 1.5-1.1 6.4 0.1 1.4 2.2 2.1 2.2 1.6 2.4 1 5.7-1.1 3.1 0.2 2 2.4-0.8 2.4-2.9 2-3.5 1.4-9.4 1.9 0 3.2 1.6 3.6-1.8 2.6 1 3.1 4.1 0.4 4.2-0.8 10.3-3.6 1.7-1.5 0.9-1.9 0.6-4.6 1.2-1.8 3.4-1.5 5-0.9 9-0.5 4.2 0.7 11.9 4.4 1.5 2 0.4 2.2-0.5 2.3-1.5 2.6 0.1 0.7 6.7 2.3 4.1 3.5 1.4 5.4-2.1 11.5-0.4 6.6-0.9 2.9-2.3 2.4-2.5 1.4-1.9 2.2-0.2 4.5 2.8 8.1 0.1 3.6-2.7 4.7-5.1 4.5-1.4 2.2 0 3.6-1.2 7.3-3.8 7-2.3 7 3.1 7.1 10.8 18.4 2.8 11.1-5 7.2-1.1 2.8-0.3 3.5-0.8 3-2.5 1.2-2.9-0.5-2.3-0.7-2-0.2-2.4 0.7 1.2 0.9-1.5 3.8-2.3 2.7-2.4-5.1-2.7-1.1-2.8 0.5-1.6 2.2 0.5 2.9z" id="GHA2155" name="Northern" data-id="GHA2155" data-name="Northern">
 </path>
 <path d="M712.1 106.7l-4.5 1.1-14.1 7.3-10.9 0.9-22.9 4.9-2.9 1-1.7 1.1-1.9 0.2-10.3 4.7-5.5 1.5-1.5 0-4.1-0.3-1.3-0.3-1-0.6-2.5-2.4-1.6-0.5-1.1 0.3-0.9 0.7-0.7 0.9-0.9 2.2-1.4 6.9-0.5 1.2-0.8 1.1-1.5 1.6-1.3 0.6-1.3 0.1-2.1-1.2-1.4-0.5-2.5 0-1.4 0.4-1.4 0.7-2.9 2.3-1.3 0.5-1.3 0.1-3.4-1.1-7.3 0-1.5 0.5-1 0.8-1.4 2.2-1.1 1.1-2.1 1.4-1.3 0.1-1.1-0.6-0.9-0.7-1.2-0.3-1.9 1.6-1 0.1-0.8-0.5-0.4-1 0.1-1.1 0.4-1.1 2.3-2.4 0.7-0.9 0.9-2.3 0.2-2.7-0.6-2.5-0.6-0.9-2.6-2.1-0.6-1-0.2-1.1 0.2-1 1.3-1.6 0.4-1 0.1-1.2-0.3-1.1-0.6-1-1.3-0.8-1.9-0.6-13.5-0.3-2.3 0.4-1.4 0.7-0.4 1.2-0.5 4.3-0.5 1.1-1 1-1.4 0.9-2.5 1-1.5 0.8-1 0.9-0.3 1.2-0.2 2.5-0.3 1-2.2 2.8-0.8 2.3-1.1 2.1-8.9 8-1.7 1.7-2.5 1.9-2.3 1.2-1.5 0.2-0.9-0.4 0-1 0.5-0.8 2.8-2.8 1.1-1.2 0.5-0.9-0.3-0.8-1.4-0.6-3.4 0.1-2-0.2-1.4-0.5-2-1.2-1.3-0.3-2.9-0.3-3-0.9-2.4-0.3-1.7 0.1-2.6 0.7-23.5 8.7-1.9 1.2-1.5 1.6-0.7 0.9-1 2.2-1 3.8-1 1.4-1.7 1.5-7.8 3.8-1.6 1.5-1.2 1.9-0.7 2.3 0 2.6 1.6 7.7 0.3 2.8-0.1 1.4-0.5 2.7-1 1.3-1.4 1.3-3.1 1.7-1.4-0.1-1-0.6-0.9-2.1-1.1-0.6-1.5-0.2-3.5 0.1-1.4-0.2-1.1-0.4-4-2.2-2-1.3-3.6-0.8-0.9-0.7-0.5-1-0.9-2.3-1.6-1.5-2-1.1-1.4-1.8-0.7-2.1-0.4-2.1 1.6-1.4 0.3-1.3 0.3-3.7-0.5-4.7-1.2-4-1-1.9-1-1.3-2.2-0.9-1.2-0.2-1.1 0.3-1 0.5-2.1 2.5-0.7 0.7-1.2 0.3-2.8-2.5-1.9-1.1-1.7-1.3-0.8-0.8-0.5-1-0.8-2.4-0.2-1.3 0.5-2.2 0.1-1.4-0.6-1.6-0.8-0.8-3.2-1.6-1.2-0.3-2.7-0.3-1-0.4-1.7-2-1.4-1.3-1.1-0.4-0.9-0.7-1.4-3.3-0.8-0.8-1-0.5-2.8-0.2-1.3-0.2-0.9-0.7-0.6-0.9-0.9-2.3-1-2.1-0.3-1.2-1.3-8.1-1.4-3.2-0.2-1.6-0.1-2.1 1.2-6.4 0.6-2.2 0.8-1.9 2.1-2.4 1.5-1.2 1.4-0.8 2.1-1 1.3-0.9 3.1-3.8 3.2-2.8 0.5-2.3 0.1-2.9 0.4-2 1.7-2.2 3.3-2.5 0.8-0.8 2.2-1 1.1-0.9 0.8-1.5 0.1-9.6-0.5-2.6 0.3-1.2 0.9-1.7 0.5-1.9 0.1-3.1-0.4-3.5 1.2-4.5 4.4-9.9 9.7 3.8 5.6 1.1 55.5 0.5 2-3.4 6.4-1 30.9 2.4 1.9 0.4 1.7 1.2 1.6 3.1 1.1 0.7 2.3-0.1-1.4 3.2 3.9-0.6 5-5.5 4.8-0.9 1.3-1.5 1.3-0.6 1.2 0.5 1.2 1.7 27.1 0.5 0.3 2.6 1 0.2 1.6-0.6 2.1 0.2 1.3 1.6-1 1.8-1.6 1.8-0.7 1.6 10.8 10.5 3.9-2.5 2.3-5.1 1.6-5.6 2.1-3.8 3.2-1.3 4.6-0.5 8.8 0.3 0.8-0.2 1.4-0.9 2.6-3.2 5.9-2.9 2.7-2.1 1.2-2.4 0.5-5.2 1.1-3.4 4.3-5.4 4.3 0 4.2 3.4 4.1 4.8 11.2-8.2 2.9-2.8 1.7-3.4-0.5-2.1-0.9-2.1 0.7-3.7 30.4 6.4 1.6 3.8 3.7 3.4 4.6 2.6 4.1 1 4.1-0.4 7.6-2 4.3-0.1 7.5 2.9 3.3 5.3 0.8 7.1-0.7 8.1-0.5 2.9-1.6 1.5-1.9 1.3-1.8 1.9-1.1 2.1-4.9 23 0.2 2.2 1.1 4.5-0.4 2.4-1.9 1.9-4.6 3.1-3.2 4-1.7 4-1.2 9.6-0.7 3.2z" id="GHA2156" name="Upper East" data-id="GHA2156" data-name="Upper East">
 </path>
 <path d="M413.4 34.1l-4.4 9.9-1.2 4.5 0.4 3.5-0.1 3.1-0.5 1.9-0.9 1.7-0.3 1.2 0.5 2.6-0.1 9.6-0.8 1.5-1.1 0.9-2.2 1-0.8 0.8-3.3 2.5-1.7 2.2-0.4 2-0.1 2.9-0.5 2.3-3.2 2.8-3.1 3.8-1.3 0.9-2.1 1-1.4 0.8-1.5 1.2-2.1 2.4-0.8 1.9-0.6 2.2-1.2 6.4 0.1 2.1 0.2 1.6 1.4 3.2 1.3 8.1 0.3 1.2 1 2.1 0.9 2.3 0.6 0.9 0.9 0.7 1.3 0.2 2.8 0.2 1 0.5 0.8 0.8 1.4 3.3 0.9 0.7 1.1 0.4 1.4 1.3 1.7 2 1 0.4 2.7 0.3 1.2 0.3 3.2 1.6 0.8 0.8 0.6 1.6-0.1 1.4-0.5 2.2 0.2 1.3 0.8 2.4 0.5 1 0.8 0.8 1.7 1.3 1.9 1.1 2.8 2.5 1.2-0.3 0.7-0.7 2.1-2.5 1-0.5 1.1-0.3 1.2 0.2 2.2 0.9 1 1.3 1 1.9 1.2 4 0.5 4.7-0.3 3.7-0.3 1.3-1.6 1.4-7.2-2.3-8.1-4.2-4.8-2-3-0.3-3.1 0.2-1.6 0.5-1.9 1.3-3 3.9-4.5 8.5-1.3 1.8-3.2 3.1-9 6.7-2.8 2.9-2.1 3-1.3 2.4-0.4 1.2-0.6 2.7-0.6 8.9-0.7 2.9-3.6 6.6-0.7 1.6-0.1 1.5 1.5 1.6 17 15.3 1.7 1.8 1 1.7-0.6 1.3-0.9 0.8-2.4 0.9-2.8 1.4-1 0.3-2.4 0.1-1.4-0.2-2.2-0.9-1.1-0.2-2.2 0.6-2.8 0.5-1.4 0.5-0.2 0.7 0.6 0.5 3.7 1 1.1 0.6 0.7 0.9-0.3 1.8-0.7 1-1.2 0.5-1.4 0-1.3-0.3-2.5 0-3 1.7-1.5 0.4-1.8 0.9-1 0.9-0.7 1-1.4 3.4-0.2 1.4 0.3 3.8 0 2.4 0.4 1 1.8 2.8 0.6 2.5-0.1 1.6-0.3 1.9-0.8 2.5-0.5 2.5-0.7 1.5-0.8 0.9-1.1 0.5-5.2 1.6-2.1 1.5-1.4 1.8-1.9 3.2-1.3 1.3-1.4 0.8-5.4 0.2-12.5-1.7-0.9 0-3.6 0.7-2.8 0.3-14.6-1-29.2 6.6-8.5 0.3-5.4-0.8-2.6-0.6-5.9-0.4-3.1 0-2.6 0.4-7.3 2.2-1.3 0.1-19.9-1.5-1.3 0.2-20.8 6.4-2.7 0.4-11.1 0.2-3.4 0.6-3.4 1-1.9 0.8-1.3 0.8-0.8 0.8-1.3 1.8-0.5 1.1-1.4 4.2-1.1 1.8-1.2 1-1.6 0.6-4 0.9-1.5 0.7-1.1 0.8-1.9 3.2-1.1 1.4-1.9 2.2-1.8 1.2-1.6 0.7-25.4 3.5-1.7-1.4-0.7-2.1-0.3-2-1.1-1.9-2-1-1.2 0.2-1.3-0.2-1.8-2.1-1.5-4.7 0.8-4.8 3.8-7.6 7.7-8.7 1.4-2.3-0.6-2.2-5.3-8.7-1-5.7 2.1-10.4 0.2-5.8-1.4-4.1-5.1-7.7-1.1-4.6 0-19.5-2.3-10.3 0.1-4.5 2.9-4.7 4.5-3.6 1.7-2 0.7-3-0.1-3-0.7-1.2-1.5-0.7-2.2-1.4-2.2-0.8-2 0.1-1.4-0.6-0.6-2.6-0.8-1.5-1.9-0.5-2.3-0.2-1.9-0.9-1.8-3.7 0-4.8 1.1-4.6 1.5-3.4 1.6-2.1 1.7-1.4 2.2-0.8 2.9-0.2 2.5-1 2-2.1 1-2.1-0.9-1-5.5-0.2-3.6-0.6-2.8-1.4-7.8-7-1.8-2.9-0.7-4.4-0.6-1.1-3.1-3-1-1.4-0.6-2.2-0.4-4.9-0.5-2.2-6.7-12-1-4.4 0.6-2.2 3-5.5 1.4-3.7 1.1-1.9 0-1.5-0.6-1-1-0.5-1.4-0.2-0.8-3.3 0.7-1.4 2.4-2.3 1.2-2.2 0.8-5.2 3.8-6.2 2.5-10.6 1.6-4.8 3-3.4 3.6-2.8 3-3.3 1.3-5.3-1.4-4.3-2.4-4.1-1.4-4.4 0.7-1.6-0.4-1.3 19.4 0.3 0.1 2.5 69.7-0.7 54.2-0.6 50.5-0.5 83.9-0.8 2.6-1.5 1.6-4 3.9-1.2 28.4 0.8 2.8 1.1z" id="GHA2157" name="Upper West" data-id="GHA2157" data-name="Upper West">
 </path>
 <path d="M684.7 903.2l-12.9 2.3-4.1 1.4-1.7 1.4-1.5 1.5-4.5 5.6-1.4 1.5-2.7 2.2-2.7 1.7-11.2 3.7-2.5 1.1-1.7 1-1.5 1.6-0.7 1.1-2.5 2.7-2.1 0.7-30 0.5-3.4 0.8-2.5 2.1-40.3 56.5-1.9 1.6-1.4 0.9-1.1 0.4-16.2 2.3-4.9 1.8-5.5 2.6-2.3 1.6-1.4 1.4-0.9 2.3-0.6 2.4-0.1 1.4 0.3 2.5 0.4 1.1 1.2 1.9 1.3 1.8 1.6 1.5 5.3 4.1 1.5 1.5 1.2 1.9 1 2.1 0.6 2.4 0 1.9-0.8 1.5-1.5 1.8-6.3 6.3-2.9 4.3-29 30.1-9.6 15.2-3.5 9-2.6 9.8-0.5 3.1-0.6 1.8-1.2 2.5-1.9 2.4-1.7 1.3-5.1 2.9-0.4 0.9 1.6 2.5 0.4 1.1 0.2 2.7-0.5 2.8-0.5 1.7-2.6 4.3-0.5 1.3 0.5 1.9-0.1 2.2 0.5 0.7 1 0.3 0.9 0.6 0.6 1-0.1 1.4-0.8 0.7-2.8 0.8-0.8 0.9-0.6 2.6-1.5 5-0.7 1.4-1.9 3.2-1.7 4.7-0.5 3-1.3 2.9-0.3 1.1 0 0.9 0.5 0.7 2.8-0.1 1.5 1.3 0.1 3.1-4 8-0.3 1.2-0.8 0.9-1.5 1-0.9 3-0.6-0.1-1.3-1.1-1.2 0.2-1.8 1.3-2.3 0.9-2.1-0.2-1.1-2.3-0.8-2.3-0.9-0.5-2.8 0.5-1.3-0.1-1.2-0.4-1.5-1.2-5.1-1.3-1.8 0-1.3 0.4-0.7 0.7-1.1 0.5-2.4 0.2-4.2 0.8-2.1 2.4-2 0.3-1.9 0.7-2.5 0-2.2 0.5-0.4 0.7 0.4 1.8 0.2 1.1-1.3 3-0.6 0.9-1 0.4-1.1-0.1-2-0.7-2-1-3.6-2.1-0.9-1.4 0-1.1 0.9-0.6 1.9-0.4 0.4-0.7 0-1-0.5-1.2-0.9-1.3-1.8-1.7-1.3-0.8-3.6-0.7-2.2-0.7-3.5 0.5-2.4 0-2.1 0.6-1.3 0-1.8-0.7-2.8-0.1-2.4 0.4-5 0.4-2.5 0.5-1.5-0.1-1.2 0.5-1.4 0.1-2.1-0.5-3.3-1.8-1.9-0.7-1.5-0.9-1.1-1.8-1.1-1.1-6.1-2.4-2.5-0.1-3.1-0.7-0.8-0.7-0.7-1.3-0.8-0.9-4.8-2.4-1.1-0.9-0.3-1.7 0-1.9 0.6-2.3 0.1-1.1-0.5-1-3-1.4-2.4-0.2-1.1 0.1-0.8 0.5-1.3 1.3-1.9 0.9-1.5 0-1.8-0.3-2.9-1.3-1.4 0-1 0.6-1.2 1.6-1.1 0.1-1.4-0.4-2-1.9-3.7-4.6-0.8-0.8-1.9-0.3-1.4-1.2-1.4-2.4-3.1-8.8-1.1-2-1.5-0.5-1.1 0-1.8 0.7-0.7 0-1.2-1.3-1-2.7-3.3-17.5 0.5-1.4 0.6-1.2 0.8-0.8 0.5-1 0.2-1.3-0.4-3.3 0.1-1.4 0.4-1.2 1-2.2 0.4-2.2-0.6-2.7-2.7-1.6-10.3-0.4-5.2 0.2-1.8-0.3-1.4-0.6-1.3-1.5-1.2-2.7-1-3.6-0.5-1.1-1.7-2.8-1.8-1.4-1-0.5-16.5-3.8-2-1-0.6-1-0.3-2.5 0.3-2.8 4.3-12.8-0.1-2.4-0.5-1.6-0.6-0.8-1.1-0.7-1.8-0.3-1.7 0.3-4.9 1.6-1.7 0-1.4-0.3-6.9-4.2-2.1-1-1.2-0.4-1.3 0-1.2 0.6-1.2 1.1-1.2 2.6-0.6 1.8-2.3 15.7-0.6 2.5-0.8 2.3-1.1 2.3-0.7 1.1-2.9 2.8-0.9 0.6-2 1-1.2 0.3-3 0.1-2-0.2-1.8-1.3 0.7-5.4 0.4-2.2 0-1.1-0.3-1.1-0.8-0.8-2.3-0.8-0.9-0.6-0.5-0.9 0.1-1.1 0.4-1 1.3-1.6 0-0.9-0.9-1.7 0.1-0.9 1.7-2.7 0.8-2.3 0.5-1.2 0.8-1 1.2-1 1.1-2.4 0.7-1.1 2.1-1.9 1.5-2 1.6-1.4 0.7-0.9 0.9-2.2 0.7-1-0.4-2.1-1.1-1.9-0.2-1.1 0.2-1 1.8-2.8 0.2-1-1.1-1.7-2.9-1.8-0.8-0.7-0.4-1.1-0.3-4-0.4-1.1-0.9-0.7-2-0.8-0.7-0.8-0.2-1.2 0.1-1.3 0.8-3.8 0.3-2.4 0.7-0.6 1.7 0.2 5.6 1.3 2.9 0.2 2.1-0.3 2.6-0.6 4.6-1.8 2.2-1.1 1.4-1 1.5-1.6 1.1-2.2 0.9-2.5 0.3-1.3 1.6-13.2 0.7-2.3 0.5-1.1 1.5-1.7 2.4-1.5 2-0.9 1.3-0.7 0.8-0.8 0.2-1-0.9-1.9-1.8-1.5-1.1-0.5-2.6-0.7-4.4-0.5-11.3-0.3-8 2.3-2.6 0-1.2-0.5 0.1-0.8 0.6-2.2 0.8-0.8 0.9-0.6 3.1-1.5 2.5-2.1 0.8-0.8 1.3-1.8 1.6-1.4 0.7-0.9 1.1-2 1.2-1.8 0.3-1-0.1-3.6 0.2-1.1 1-1.9 0.3-1.1 0.5-0.9 0.1-2.5 0.8-2.1 14.2-15.6 2.7-1.8 1.5-0.5 1.8-0.1 3.2 0.5 1.6 0.8 1 1 1 3.4 0.5 1.1 0.6 0.9 2.3 0.3 27.3-1.6 4.3-1.5 6.2-3.5 6-4.5 3.1-3.3 5.3-7.1 2.4-2.4 1.5-0.7 2.3-0.6 4.7-0.5 2.4-0.6 1.8-0.5 0.9-0.7 0.6-0.9 1.6-4.5 0.2-1.2-0.6-3.6 0.2-1.2 0.4-1.1 1.7-3 0.3-1.9-0.7-0.5-11-2.7-2.2-0.8-1.9-1.3-5.9-6.5-8.5-7-0.9-0.5-1.8 0-8.4 1.7-1.3 0.1-1.1-0.4-1.9-1.2-5-5.9-0.9-0.6-2.4-0.7-2.7 0-2.7 0.3-2.7-0.4-1.1-0.4-1.5-0.8-0.2-0.8 0.3-2.3 1.3-3.3 0-4 0.5-2.4 1.4-1.6 0.5-0.9 0.7-2.5 1-2.1 0.9-3.7 1.8-0.7 2.9 0 10.6 1.7 3.3-0.4 1.3-0.7 1.9-1.5 1.5-0.3 5.5 0.1 3.6-0.4 1.3 0.2 2.5 1.5 1.5 0.5 2.2 0.2 8.3-0.3 1.3-0.2 2.3-0.9 4.9-1.2 1.5-0.1 1.5 0.3 1.9 1 0.8 1.2 0.5 1.4 0.5 10 0.6 2.5 1 2 2 1 3.6 1.2 5 2.8 2.6 2.1 2.1 2.5 0.8 0.8 1.1 0.6 1.4 0.2 3.7-0.8 4.6-1.8 2.6-0.4 1.6 0.2 3.4 1.6 1.8 0.5 2.1 0.2 3.7-0.5 1.8-0.7 1.3-0.8 1.5-1.6 3.5-5.8 2.3-2.4 2-1.1 1.1-0.4 1.6-0.2 5.2-0.1 2.2-0.4 2.5-0.9 0.7-1.2 0.3-1.4-0.1-1.4-1.3-4.9-1.7-4.4-0.4-1.1 0-1.2 0.6-1.4 0.7-0.7 6.6-4.8 9-5.5 1.7-1.3 2.8-3.5 7.3-11.8 2.4-2.3 1.9-1.1 2.3-0.8 1.2-0.2 1.6 0.2 2.1 0.7 3.2 2 1.5 1.3 1.1 1.2 1 2 1.6 4.5 0.4 2.4 0.5 11 0.5 2.2 1.4 3.1 1.3 1.8 1.2 1.4 1.2 1 1.7 0.7 2.6 0.6 5.2 0.7 4.9 0.1 4.9-0.7 4.4 0 1.2-0.3 3.5-1.2 2.4-0.3 2.7-0.7 2-0.1 3.4-0.7 2.5-0.2 4.2-1 0.9-0.7 0.6-0.9 0.9-2.3 1.2-1.9 1.6-1.5 2.8-1.9 2.6-3.5 1.4-0.5 2 0.1 6.4 0.9 1.1 0.4 2 2.1 1.1 0.6 1.8 0 2.7-0.6 1.2-0.1 1.1 0.4 1.7 2.2 1 0.9 1.1 0.5 2.2 0 2.9-0.4 2.6 0.2 1.1-0.2 1.6-1.3 1.1-0.5 1.5-0.2 1.9 0 1.5-0.1 1.5 0.2 2.3 1.4 2 0.9 3.1 0.7 1.7 0.2 1.1 0.5 1 1.7 1 0.3 1.3-0.4 1.7-1.7 1-2.1 0.6-0.6 0.9-0.2 1.4 1.1 1.6 0.3 1.3-0.2 3.3-3 2-1.1 4.6-1.5 1.9-1.2 1.8 0.3 2.6 1.5 5.4 4.6 3.9 4.1 5.2 8.4 4 9.7 2.3 3.8 1.4 1.7 1.4 0.9 2 1 6.8 2.2 23.4 4.1 31.7 11.7 2.4 1.3 4.4 5.6 10 17.8z" id="GHA2158" name="Ashanti" data-id="GHA2158" data-name="Ashanti">
 </path>
 <path d="M644 689l12.8 3.4 4.5 2.1 31.2 25.2 2.7 3.2 2.6 4.2 9.6 22.7 0.6 2.4 1 8.2 0.7 2.3 0.6 1.1 5.5 8.8 1.8 1.9 2 1.6 2.3 1 2.3 0.5 5.1 0.8 1.6 0.6 2.7 1.7 1.2 1.7 0.9 2.3 0.3 2.8 5.3 14.9 14.8 25.5 2.7 6.5 0.3 1.3 0.7 13.4 0.4 1.9 1 2.7 0.9 1.5 1 1 8.2 4.2 6.2 1.7 3.3 1.9 2.8 2.4 1.3 1.5 0.8 1.4 1 6.8 0 2.9-0.9 6.9-3.8 12-0.3 2.6 0 1.4 1.1 7-10.6-3.7-1.5-0.1-1.6 0.2-3.4 1.4-4.1 2.5-3.2 1.3-1.3 0.3-1.6 0-1.8-0.3-2.7-1.1-4.9-2.5-2.2-0.9-2.6-0.6-56.6-2.2-10-17.8-4.4-5.6-2.4-1.3-31.7-11.7-23.4-4.1-6.8-2.2-2-1-1.4-0.9-1.4-1.7-2.3-3.8-4-9.7-5.2-8.4-3.9-4.1-5.4-4.6-2.6-1.5-1.8-0.3-1.9 1.2-4.6 1.5-2 1.1-3.3 3-1.3 0.2-1.6-0.3-1.4-1.1-0.9 0.2-0.6 0.6-1 2.1-1.7 1.7-1.3 0.4-1-0.3-1-1.7-1.1-0.5-1.7-0.2-3.1-0.7-2-0.9-2.3-1.4-1.5-0.2-1.5 0.1-1.9 0-1.5 0.2-1.1 0.5-1.6 1.3-1.1 0.2-2.6-0.2-2.9 0.4-2.2 0-1.1-0.5-1-0.9-1.7-2.2-1.1-0.4-1.2 0.1-2.7 0.6-1.8 0-1.1-0.6-2-2.1-1.1-0.4-6.4-0.9-2-0.1-1.4 0.5-2.6 3.5-2.8 1.9-1.6 1.5-1.2 1.9-0.9 2.3-0.6 0.9-0.9 0.7-4.2 1-2.5 0.2-3.4 0.7-2 0.1-2.7 0.7-2.4 0.3-3.5 1.2-1.2 0.3-4.4 0-4.9 0.7-4.9-0.1-5.2-0.7-2.6-0.6-1.7-0.7-1.2-1-1.2-1.4-1.3-1.8-1.4-3.1-0.5-2.2-0.5-11-0.4-2.4-1.6-4.5-1-2-1.1-1.2-1.5-1.3-3.2-2-2.1-0.7-1.6-0.2-1.2 0.2-2.3 0.8-1.9 1.1-2.4 2.3-7.3 11.8-2.8 3.5-1.7 1.3-9 5.5-6.6 4.8-0.7 0.7-0.6 1.4 0 1.2 0.4 1.1 1.7 4.4 1.3 4.9 0.1 1.4-0.3 1.4-0.7 1.2-2.5 0.9-2.2 0.4-5.2 0.1-1.6 0.2-1.1 0.4-2 1.1-2.3 2.4-3.5 5.8-1.5 1.6-1.3 0.8-1.8 0.7-3.7 0.5-2.1-0.2-1.8-0.5-3.4-1.6-1.6-0.2-2.6 0.4-4.6 1.8-3.7 0.8-1.4-0.2-1.1-0.6-0.8-0.8-2.1-2.5-2.6-2.1-5-2.8-3.6-1.2-2-1-1-2-0.6-2.5-0.5-10-0.5-1.4-0.8-1.2-1.9-1-1.5-0.3-1.5 0.1-4.9 1.2-2.3 0.9-1.3 0.2-8.3 0.3-2.2-0.2-1.5-0.5-2.5-1.5-1.3-0.2-3.6 0.4-5.5-0.1-1.5 0.3-1.9 1.5-1.3 0.7-3.3 0.4-10.6-1.7-2.9 0-1.8 0.7-0.9 3.7-1 2.1-0.7 2.5-0.5 0.9-1.4 1.6-0.5 2.4 0 4-1.3 3.3-0.3 2.3 0.2 0.8 1.5 0.8 1.1 0.4 2.7 0.4 2.7-0.3 2.7 0 2.4 0.7 0.9 0.6 5 5.9 1.9 1.2 1.1 0.4 1.3-0.1 8.4-1.7 1.8 0 0.9 0.5 8.5 7 5.9 6.5 1.9 1.3 2.2 0.8 11 2.7 0.7 0.5-0.3 1.9-1.7 3-0.4 1.1-0.2 1.2 0.6 3.6-0.2 1.2-1.6 4.5-0.6 0.9-0.9 0.7-1.8 0.5-2.4 0.6-4.7 0.5-2.3 0.6-1.5 0.7-2.4 2.4-5.3 7.1-3.1 3.3-6 4.5-6.2 3.5-4.3 1.5-27.3 1.6-2.3-0.3-0.6-0.9-0.5-1.1-1-3.4-1-1-1.6-0.8-3.2-0.5-1.8 0.1-1.5 0.5-2.7 1.8-14.2 15.6-0.8 2.1-0.1 2.5-0.5 0.9-0.3 1.1-1 1.9-0.2 1.1 0.1 3.6-0.3 1-1.2 1.8-1.1 2-0.7 0.9-1.6 1.4-1.3 1.8-0.8 0.8-2.5 2.1-3.1 1.5-0.9 0.6-0.8 0.8-0.6 2.2-0.1 0.8 1.2 0.5 2.6 0 8-2.3 11.3 0.3 4.4 0.5 2.6 0.7 1.1 0.5 1.8 1.5 0.9 1.9-0.2 1-0.8 0.8-1.3 0.7-2 0.9-2.4 1.5-1.5 1.7-0.5 1.1-0.7 2.3-1.6 13.2-0.3 1.3-0.9 2.5-1.1 2.2-1.5 1.6-1.4 1-2.2 1.1-4.6 1.8-2.6 0.6-2.1 0.3-2.9-0.2-5.6-1.3-1.7-0.2-0.7 0.6-0.3 2.4-0.8 3.8-0.1 1.3 0.2 1.2 0.7 0.8 2 0.8 0.9 0.7 0.4 1.1 0.3 4 0.4 1.1 0.8 0.7 2.9 1.8 1.1 1.7-0.2 1-1.8 2.8-0.2 1 0.2 1.1 1.1 1.9 0.4 2.1-0.7 1-0.9 2.2-0.7 0.9-1.6 1.4-1.5 2-2.1 1.9-0.7 1.1-1.1 2.4-1.2 1-0.8 1-0.5 1.2-0.8 2.3-1.7 2.7-0.1 0.9 0.9 1.7 0 0.9-1.3 1.6-0.4 1-0.1 1.1 0.5 0.9 0.9 0.6 2.3 0.8 0.8 0.8 0.3 1.1 0 1.1-0.4 2.2-1.7-0.1-2-1-3-2.2-2.5-1.4-2.4-0.6-6.2-0.3-1.2-0.2-1.3-0.5-1.1-1-9.9-21.2-0.9-1.1-1.4-1-2.6-1.1-4.5-1.3-2.2-1.2-1-1-1.2-1.6-0.9-2.4-1-4.5-0.9-1.3-1.4-1.2-3-1.4-2-0.5-1.9-0.2-8.5 0.7-2.9-0.1-2.5-0.6-1-0.5-8.8-6.8-2.1-1-6-1.6-2-1.3-0.7-1.1 0.1-1.6-0.2-1.9-0.6-2.2-1.5-3.6-0.6-2.3-0.2-1.9 0.5-2.6 1.8-4.3 0.2-1.2 0-1.3-0.7-2.3-0.5-1.1-0.5-2.4-0.1-4-0.4-1.5-3.4-7.7-1.2-4.8-5.3-9.8-2.5-2.9-3.3-2.9-6.8-3.8-3.4-1.4-2.4-0.5-2.5 0.5-8.5 3.4-2.4 0.4-2.8-0.3-1.4-0.6-1.3-0.7-1.7-1.4-1.8-2-2.4-4.2-1.5-4.6-2.3-11.9-0.2-0.8 0.4-0.2 11.1-3.6 1.1-1.6 1.9-11.3 1.1-2.3 10.3-12.9 2-4.4 0.1-3.1-1-1.8-1.5-1.9-1.4-3.2-0.2-2.6 11-69.3 3-9.2 16.2-34.8 0.8-1.5 2.3-2.8 0.9-1.5 0-1.2-0.6-2.9 0.1-1.2 2-1.8 5-3 1.7-1.9 0.8-2.5 1-17 0.6-1.6 1.4-0.2 1.5 1 1.2 1.3 0.3 0.7 3.6-3.1 10.3-11.8 4.1-3 13.4-4.5 4.6-2.3 2.2-3 0.2-3.9-1.4-5.4-3-6.5-0.5-2.9 0.9-3.6 1.6-3 1.4-1.4 1.9 0.2 2.8 1.3 2.6 0.3 3.1-1.1 10-5.9 1.6-3.5-10.3-63.5-10.4-63.5-1-3.6 1.3-0.7 0.7 1 0.6 0.4 1.8 0.3 4.7 2.6 9 9.8 1.2-0.4 1.1 0 1 0.4 3 3.1 6.5 12.4 8.4 6.5 2 5.2 1.2 2.4 5.3 3.3 1.3 1.9 0.5 2.4 4 7.9-1.3 4.2 1.8 3.7 2.7 3.4 1.4 3.4 1 1.4 4.2 1.4 1 1.9 0.3 2 2.7 5 2.1 8.1 1.8 14.2 2.1 3 3 2.2 3.4 1.9 3.2 3 6.3 7.9 6.9 3.6 5.8 9.8 3.8 3.7 8.2 2 9.7-0.2 21.4-4.4 0.9-0.6 1.5-1.4 3.6-6.2 2-1.8 2.7-4.1 3.7-4.2 4.7-2.3 5.4 0.6 8.9 4.4 4.9 1.1 4.2-1.3 2.2-3 0.8-4.1-0.1-4-3.8-8.5-7-1.6-8.6 0.7-8.5-1.5-2.4-2-1.9-3.2-1.2-3.8-0.5-4.2-0.5-1.7-1-1.9-0.4-2 1.1-2.1 3.1-3.8 1.2-2.2 1-2.6 0.6-4.3-0.6-13.6 0.3-4.8 1-4.8 1.9-4.4 2.9-3.9 9.2-3.9 16.7 5.3 6.6-2.9 2.8-0.8 1.6-1.3 1.3-1.9 0.7-2.4 1.1-1.9 1.2-0.9 1.6-0.7 2.8-0.8 1.7 0 13.3 2.6 2.3 0.1 5.5-0.6 2.5-0.5 4.3-1.9 2-1.1 1.6-1.5 0.5-1.1 1.3-6.7 0.3-1.2 1.1-2 1.6-1.7 3.6-2.3 5.5-0.8 12-0.5 2.8 0.2 2.6 0.7 2 1 3.3 2.9 2.1 2.2 3.3 2.8 11.1 7.5 2 1 3.8 1.3 4.8 0.9 3.4 0.3 4.8 0 1.9 0.6 1.2 0.8 1.2 3.5 1.1 5 3.3 7.6 0.8 3.6 0.2 2.3-0.2 1.3-0.9 2.3-2.3 4.4-1.3 1.6-11.5 10.4-1.3 1.8-1.1 2.1-0.6 2.5-0.1 7.4-0.2 1.4-0.9 2.2-1.4 1.7-2.5 2.2-1.6 1.5-1.4 1.8-1.1 2-0.3 1.2 1.2 1.6 2.3 2.2 6.1 4 3.1 4 2.4 4.1 23.8 67.1 1.3 2 1.6 1 2.3 0.6 1.5 0.8 1.7 1.2 1.1 0.3 0.8-0.6 1.1-1.9 1.3-1.8 2-3.8 0.4-0.5 1.6-1.1 1.1-0.6 0.9-0.8 0.7-1.1 0.6-2.7-0.1-5.5-0.5-2.3-0.9-2.1-2.4-3.8-0.9-2-0.5-2.5 0-1.5 0.5-2.7 0.4-1.1 1.2-2 1.8-1.4 2.1-0.8 7.1-1.7 1.1-0.5 1.8-1.3 3.3-3 1.4-1.7 1.1-2.1 3.6-9.4 1.2-1.8 0.7-0.7 1.8-1.6 2.1-1.2 2.1-0.9 3.3-1.1 2-1 1.6-1.5 1.5-1.6 2.8-3.7 1.5-1.6 2.1-1.2 2.3-0.3 2.8 0.1 4.3 0.7 2.8 0.2 2.3-0.1 5-1 5.1-0.3 1.4 0.2 2.3 0.9 1.7 1.4 3.7 3.9 2.6 3.5 0.7 0.8 2.1 2.6 23.3 18.9 12.4 7.3 4.2 1.4 9.1 1.4 4.1-0.2 2.3-0.8z" id="GHA2159" name="Brong Ahafo" data-id="GHA2159" data-name="Brong Ahafo">
 </path>
 <path d="M454.7 1191.6l7.3 3.9 6.6 2.5 1.1 0.9 0.6 1 6.9 15.2 3.3 5.7 1.8 1.7 1.4 0.3 2 0.2 19.4-0.2 1.6 0.1 2.1 0.5 3.3 1.1 1.7 0.9 2.2 1.6 1.5 0.5 2 0.2 5.6-0.7 2.7-0.6 2.6-0.3 4.3 0.4 21.8 4.8 1.2 0.5 2.6 0.6 4.8 0 37.8-3 6 1 10.1 3.9 8.3 16.5 3.4 5 1.9 1.5 2.2 1 1.2 0.4 3.5 1.8 3.1 2.2 1.5 1.5 1 1.3 3.5 8 3.4 12-2.7 1.3-16.5 13.9-1.8 2.5-1.1 3.5-3 3.1-8.1 5-15.7 3.8-2.7 0.1-1.6 1.6-3.6 2.8-3.8 1.1-1.8-3.1-11.6 8.1-2.9 1.1-13.1 10.7-5.3 6.3-3.4 2.2-16.7 2.4-5.1-0.2-3.3-3-1.5 2-2.1 0.7-5.6 0.4-5.4 1.4-2.6-0.1-1.2-2.1-0.8-2-1.8 0.5-2.7 2.3-3.7 0.3-3.6 1-23.4 10.1-2.4 3.3-2 1.9-4.6 2.7-8.8 4-4.6 1-14.6 0.4-2.4 0.7-5.2 3.1-2.5 1-2.2 0.2-4.7-0.3-2.2 0.1-4.2 1.3-8.1 4-15.6 2.3-5.1 1.9-3.8 2.7-1.9-14.7 0.1-2.4 0.9-5.5 0.7-2.5 1-2.3 4.4-8.2 1.4-1.6 1.7-1.4 2-0.9 2.2-0.7 1.2-0.1 3.1 0 2.4-0.4 1-0.3 1.8-1.2 0.8-0.8 2.8-3.4 6.7-5.2 0.7-0.8 0.1-1.2-0.7-1.7-2.3-2.7-1.5-1.4-9-5.8-7.4-6.6-2.8-3.4-0.8-1.3-0.7-1.7-1.6-4.9-0.8-1.7-0.9-1.3-1.9-1.8-1.4-1-1.4-0.7-2.3-0.9-1.8-1.3-0.8-0.8-3.6-4.4-1.5-3.9-0.6-2.7 0-2.6 0.4-2.6 0.7-2.4 1.3-1.9 2-0.8 1-0.6 1.7-2.6 0.3-0.9-0.3-2.1-2.2-3.3-2.8-3-3-2.7-4.1-2.2-2.1-1-2.4-0.8-2.7-0.4-5.4-0.1-1.3-0.3-2.3-0.9-2.5-2.1-2.2-1.1-2.8-0.2-2.6 0.3-2.3 0.6-7.4 3-2.5 0-1.1-1.1-0.9-2-0.8-4.5 0-2.4 0.2-2 1.4-3.7 1.2-4.8 0.3-2.5-0.2-4.5 0.6-2.5 1.2-1.8 1.6-1.6 0.6-0.9 0.1-1.1-0.5-1.4-1.6-1.3-2.9-1.3-0.9-0.9-0.5-1.4-0.2-2.4 0.3-3.5 0.9-4 0.1-1.4-0.5-2-1.1-2.3-3.1-4.2-1.7-1.9-1.4-1.3-1.1-0.4-5.3-1.3-2.1-1.1-4.1-3.1-1.3-1.5-10.2-14.7-4.3-4.4-1.7-1.3-3.4-1.8-7.1-2.9-1.7-1.2-0.9-1-2.4-6-0.7-1.4-2.3-2.4-1.8-1.3-4.6-1.5-3-0.9-3.7-1.7-6.6-4.4-0.9-1-1.6-2.8-1-3.2-0.3-2.9 0.1-2.8 0.4-2.7 0.4-1.2 1.1-1.4 1.7-1.4 3.8-2 6.1-2.5 2.8-2 3.6-3.3 1.6-2.3 1.2-3.3 10.3 0.4 2.7 1.6 0.6 2.7-0.4 2.2-1 2.2-0.4 1.2-0.1 1.4 0.4 3.3-0.2 1.3-0.5 1-0.8 0.8-0.6 1.2-0.5 1.4 3.3 17.5 1 2.7 1.2 1.3 0.7 0 1.8-0.7 1.1 0 1.5 0.5 1.1 2 3.1 8.8 1.4 2.4 1.4 1.2 1.9 0.3 0.8 0.8 3.7 4.6 2 1.9 1.4 0.4 1.1-0.1 1.2-1.6 1-0.6 1.4 0 2.9 1.3 1.8 0.3 1.5 0 1.9-0.9 1.3-1.3 0.8-0.5 1.1-0.1 2.4 0.2 3 1.4 0.5 1-0.1 1.1-0.6 2.3 0 1.9 0.3 1.7 1.1 0.9 4.8 2.4 0.8 0.9 0.7 1.3 0.8 0.7 3.1 0.7 2.5 0.1 6.1 2.4 1.1 1.1 1.1 1.8 1.5 0.9 1.9 0.7 3.3 1.8 2.1 0.5 1.4-0.1 1.2-0.5 1.5 0.1 2.5-0.5 5-0.4 2.4-0.4 2.8 0.1 1.8 0.7 1.3 0 2.1-0.6 2.4 0 3.5-0.5 2.2 0.7 3.6 0.7 1.3 0.8 1.8 1.7 0.9 1.3 0.5 1.2 0 1-0.4 0.7-1.9 0.4-0.9 0.6 0 1.1 0.9 1.4 3.6 2.1 2 1 2 0.7 1.1 0.1 1-0.4 0.6-0.9 1.3-3-0.2-1.1-0.4-1.8 0.4-0.7 2.2-0.5 2.5 0 1.9-0.7 2-0.3 2.1-2.4 4.2-0.8 2.4-0.2 1.1-0.5 0.7-0.7 1.3-0.4 1.8 0 5.1 1.3 1.5 1.2 1.2 0.4 1.3 0.1 2.8-0.5 0.9 0.5 0.8 2.3 1.1 2.3 2.1 0.2 2.3-0.9 1.8-1.3 1.2-0.2 1.3 1.1 0.6 0.1 0.9-3 1.5-1 0.8-0.9 0.3-1.2z" id="GHA2160" name="Central" data-id="GHA2160" data-name="Central">
 </path>
 <path d="M782.8 908.9l0.9 12.1-0.5 4.1-0.6 0.9-1.7 3.9-1.5 4.5-0.4 2.5 0 1.9 0.4 1.2 1 5.2 0.5 6.4-0.2 3.6-0.5 2.4-0.5 1.1-1.9 2.7-3.2 3.1-0.8 0.7-4 3.7-1.1 1.8-1.2 2.7-2.1 5.9-0.6 2.9-0.1 2.2 0.7 2.4 1 2 1.5 1.6 1 0.6 3.4 1.2 2.2 1 1.7 1.4 1.5 1.6 1.2 1.9 0.9 2.1 1.3 9.7-0.2 2.6-0.3 1.8-1.5 1.6-8.8 5.1-0.9 0.7-3.1 3.1-3.4 4.3-1.1 2.5-3.5 13.3-0.7 4.2-0.1 2.9 0.6 0.8 1.2 0.3 6.6-0.4 2.2 0.5 1.8 1.4 0.6 1 0.6 2.4 0.9 5.2 0.7 2.3 1.2 1.9 1.6 1.6 2.8 1.8 1 1 1 1.5 0.9 3.2 0.1 2.1-0.1 1.8-6.5 19.7-1.8 3-1.4 1.6-3.6 2.6-3.8 2.2-10 3.9-1 1.3 1.2 2.4 1.5 4.3 0.5 4-1.1 2.8-1.6 3-0.8 4 0.2 3.8 1.4 2.3 10.6 8.1 4 1.2 15.4-0.4 3.9 0.6 2.9 1.6 4.7 4 7.8 4.6 0.9 1.6 0.4 1.8-0.6 20.7-9.7 11-3.5 3.3-2.9 1.8-1.3 0.4-1.8 0.2-1.4-0.3-1.2-0.4-0.9-0.7-2.3-2.2-1.4-1.6-3-4.6-1.7-1.9-6.1-2.6-2.8-1.9-1.6-1.5-1.3-1.8-3-6.2-0.8-1-1.5-0.9-2.8-0.3-3.2 0-2.6 0.6-1.6 0.4-8.1 5.5-2.7 1.3-2.5 0.7-0.8-0.4-1.5-1.8-1.1-0.8-1.4-0.8-2.5-0.9-1.3 0.3-0.8 0.8-3.7 13.2-0.9 1.3-1.7 1.4-9.4 3.9-1.2 0.7-0.9 1.1-2.5 5.2-2.4 8.7-2.1 4.4-1.3 1.8-1.1 1.1-1.6 1.3-3.2 1.9-2 0.6-1.8 0.1-2.3-0.8-1.9-1.2-1.6-1.5-1.2-0.8-1.5-0.7-2.6-0.4-1.4 0.4-1.2 0.6-4.3 5.1-1.3 1.1-1.9 1.1-3.8 1.9-2.2 0.7-1.8 0.4-5.7-0.2-2.2-0.3-4.1-1.6-1-0.5-3.5-1.2-2.1-1.2-0.7-0.8-0.5-1 0-3.9-1.4-0.8-2.5-0.3-9.7 0.7-2.2 0.4-2 0.6-1.1 0.8-0.6 1.4-0.9 4.9-0.1 2 0.3 2.2 0.5 1.7-10.1-3.9-6-1-37.8 3-4.8 0-2.6-0.6-1.2-0.5-21.8-4.8-4.3-0.4-2.6 0.3-2.7 0.6-5.6 0.7-2-0.2-1.5-0.5-2.2-1.6-1.7-0.9-3.3-1.1-2.1-0.5-1.6-0.1-19.4 0.2-2-0.2-1.4-0.3-1.8-1.7-3.3-5.7-6.9-15.2-0.6-1-1.1-0.9-6.6-2.5-7.3-3.9 4-8-0.1-3.1-1.5-1.3-2.8 0.1-0.5-0.7 0-0.9 0.3-1.1 1.3-2.9 0.5-3 1.7-4.7 1.9-3.2 0.7-1.4 1.5-5 0.6-2.6 0.8-0.9 2.8-0.8 0.8-0.7 0.1-1.4-0.6-1-0.9-0.6-1-0.3-0.5-0.7 0.1-2.2-0.5-1.9 0.5-1.3 2.6-4.3 0.5-1.7 0.5-2.8-0.2-2.7-0.4-1.1-1.6-2.5 0.4-0.9 5.1-2.9 1.7-1.3 1.9-2.4 1.2-2.5 0.6-1.8 0.5-3.1 2.6-9.8 3.5-9 9.6-15.2 29-30.1 2.9-4.3 6.3-6.3 1.5-1.8 0.8-1.5 0-1.9-0.6-2.4-1-2.1-1.2-1.9-1.5-1.5-5.3-4.1-1.6-1.5-1.3-1.8-1.2-1.9-0.4-1.1-0.3-2.5 0.1-1.4 0.6-2.4 0.9-2.3 1.4-1.4 2.3-1.6 5.5-2.6 4.9-1.8 16.2-2.3 1.1-0.4 1.4-0.9 1.9-1.6 40.3-56.5 2.5-2.1 3.4-0.8 30-0.5 2.1-0.7 2.5-2.7 0.7-1.1 1.5-1.6 1.7-1 2.5-1.1 11.2-3.7 2.7-1.7 2.7-2.2 1.4-1.5 4.5-5.6 1.5-1.5 1.7-1.4 4.1-1.4 12.9-2.3 56.6 2.2 2.6 0.6 2.2 0.9 4.9 2.5 2.7 1.1 1.8 0.3 1.6 0 1.3-0.3 3.2-1.3 4.1-2.5 3.4-1.4 1.6-0.2 1.5 0.1 10.6 3.7z" id="GHA2161" name="Eastern" data-id="GHA2161" data-name="Eastern">
 </path>
 <path d="M188.6 1085.3l-0.7 5.4 1.8 1.3 2 0.2 3-0.1 1.2-0.3 2-1 0.9-0.6 2.9-2.8 0.7-1.1 1.1-2.3 0.8-2.3 0.6-2.5 2.3-15.7 0.6-1.8 1.2-2.6 1.2-1.1 1.2-0.6 1.3 0 1.2 0.4 2.1 1 6.9 4.2 1.4 0.3 1.7 0 4.9-1.6 1.7-0.3 1.8 0.3 1.1 0.7 0.6 0.8 0.5 1.6 0.1 2.4-4.3 12.8-0.3 2.8 0.3 2.5 0.6 1 2 1 16.5 3.8 1 0.5 1.8 1.4 1.7 2.8 0.5 1.1 1 3.6 1.2 2.7 1.3 1.5 1.4 0.6 1.8 0.3 5.2-0.2-1.2 3.3-1.6 2.3-3.6 3.3-2.8 2-6.1 2.5-3.8 2-1.7 1.4-1.1 1.4-0.4 1.2-0.4 2.7-0.1 2.8 0.3 2.9 1 3.2 1.6 2.8 0.9 1 6.6 4.4 3.7 1.7 3 0.9 4.6 1.5 1.8 1.3 2.3 2.4 0.7 1.4 2.4 6 0.9 1 1.7 1.2 7.1 2.9 3.4 1.8 1.7 1.3 4.3 4.4 10.2 14.7 1.3 1.5 4.1 3.1 2.1 1.1 5.3 1.3 1.1 0.4 1.4 1.3 1.7 1.9 3.1 4.2 1.1 2.3 0.5 2-0.1 1.4-0.9 4-0.3 3.5 0.2 2.4 0.5 1.4 0.9 0.9 2.9 1.3 1.6 1.3 0.5 1.4-0.1 1.1-0.6 0.9-1.6 1.6-1.2 1.8-0.6 2.5 0.2 4.5-0.3 2.5-1.2 4.8-1.4 3.7-0.2 2 0 2.4 0.8 4.5 0.9 2 1.1 1.1 2.5 0 7.4-3 2.3-0.6 2.6-0.3 2.8 0.2 2.2 1.1 2.5 2.1 2.3 0.9 1.3 0.3 5.4 0.1 2.7 0.4 2.4 0.8 2.1 1 4.1 2.2 3 2.7 2.8 3 2.2 3.3 0.3 2.1-0.3 0.9-1.7 2.6-1 0.6-2 0.8-1.3 1.9-0.7 2.4-0.4 2.6 0 2.6 0.6 2.7 1.5 3.9 3.6 4.4 0.8 0.8 1.8 1.3 2.3 0.9 1.4 0.7 1.4 1 1.9 1.8 0.9 1.3 0.8 1.7 1.6 4.9 0.7 1.7 0.8 1.3 2.8 3.4 7.4 6.6 9 5.8 1.5 1.4 2.3 2.7 0.7 1.7-0.1 1.2-0.7 0.8-6.7 5.2-2.8 3.4-0.8 0.8-1.8 1.2-1 0.3-2.4 0.4-3.1 0-1.2 0.1-2.2 0.7-2 0.9-1.7 1.4-1.4 1.6-4.4 8.2-1 2.3-0.7 2.5-0.9 5.5-0.1 2.4 1.9 14.7-0.1 0.1-3.3-1.5-3.9-0.3-3.8 1-2.8 2.2-0.4 1.8 1.6 3.4-0.5 1.8-2.3 2.4-15.4 7.6-2.7 2.1-6.5 7.2-0.5 1.6 0.4 1.5-0.1 1.1-2 0.4-2.1 0.1-15.4 4.4-17.2 7.8-3.6 3.1-5.4 7.8-3.3 3.2-3.2 1.3-15.5 1.9-3 1.3-6 0.2-1.3-0.3-1.7-1.5-0.6-2.3 0.2-2.5-0.5-2.1-2.9-0.8-1.8-0.2-3.4-1.1-2.5-0.2 0.2-1.1-2.1-2.2-9.5-7.6-4.8-2-2.1-1.3-1-2-0.3-1.7-1-1.7-1.3-1.4-23.3-9.1-37.9-7.8-36.9-12.6-29.3-2.2-32.3-5.7-31.1-9.5-3.6-0.8 1-3.7 1.6-0.5 2.1-0.8 2.5-0.4 16.1 0.2 4.8 1.4 1.3 1.3 2.8 4 1.2 0.8 2.9-0.4 4.6-1.9 2.5-0.8-0.6-6.1 6.2-2.7 8.1-1.2 4.8-2.2 9 0.3 5.1-0.7 3.2-2.3 2.2-4.3-1.3-1.4-2.9-2.6-0.7-0.7-0.2-2.1 0.9-4.7 0.1-1.9-1-2.6-3.1-4.5-0.6-3.1 1.5-14 7.5 1.4 3-0.5 2.2-2.9 0.6-3.9-1-4.1-6.1-14.3-4-16.2-0.5-11.8-0.9-3.6-1.7-3-2.9-2.3-16-4.1-3.6 1.4-7.3 4.5-4.4 0.5-5.3-3-1.2-5.8 2.3-14.1-14.6 1.3 2.2-25.7-0.6-8.2-2.7-8.2-8.7-15.8-3.2-8.1-6.8-37.6-4.8-12.6-6.6-6-3.3-4-17.7-79.8 0.3-3.8 1.6-2.3 4.2-2.3 1.2-1.5 4.4-12.4-0.5-1.5-3.1-5.8-2.8-3.7-0.9-2.3 0.3-8.1 3.7-8.7 25.9-44.5 2.8-1.8 0.2 0.8 2.3 11.9 1.5 4.6 2.4 4.2 1.8 2 1.7 1.4 1.3 0.7 1.4 0.6 2.8 0.3 2.4-0.4 8.5-3.4 2.5-0.5 2.4 0.5 3.4 1.4 6.8 3.8 3.3 2.9 2.5 2.9 5.3 9.8 1.2 4.8 3.4 7.7 0.4 1.5 0.1 4 0.5 2.4 0.5 1.1 0.7 2.3 0 1.3-0.2 1.2-1.8 4.3-0.5 2.6 0.2 1.9 0.6 2.3 1.5 3.6 0.6 2.2 0.2 1.9-0.1 1.6 0.7 1.1 2 1.3 6 1.6 2.1 1 8.8 6.8 1 0.5 2.5 0.6 2.9 0.1 8.5-0.7 1.9 0.2 2 0.5 3 1.4 1.4 1.2 0.9 1.3 1 4.5 0.9 2.4 1.2 1.6 1 1 2.2 1.2 4.5 1.3 2.6 1.1 1.4 1 0.9 1.1 9.9 21.2 1.1 1 1.3 0.5 1.2 0.2 6.2 0.3 2.4 0.6 2.5 1.4 3 2.2 2 1 1.7 0.1z" id="GHA2162" name="Western" data-id="GHA2162" data-name="Western">
 </path>
 <path d="M883.6 1226.8l-69.2-5-9.6 0.5-5.3 1.2-2.8 1.1-1.1 1.3-1.1 0.7-5.4 0.2-1.9 0.7-4.3 3-15 4.1-3.4 2.3-6.2 5.8-8.7 2.5-3.2 3.3-2.4 4.1-3.7 3.7-17.8 6-1 0.6-3 3-1.3 1-1.9 0.7-3.6 0.3-48.1 15.6-10.2 1.3-1.4 0.7-3.4-12-3.5-8-1-1.3-1.5-1.5-3.1-2.2-3.5-1.8-1.2-0.4-2.2-1-1.9-1.5-3.4-5-8.3-16.5-0.5-1.7-0.3-2.2 0.1-2 0.9-4.9 0.6-1.4 1.1-0.8 2-0.6 2.2-0.4 9.7-0.7 2.5 0.3 1.4 0.8 0 3.9 0.5 1 0.7 0.8 2.1 1.2 3.5 1.2 1 0.5 4.1 1.6 2.2 0.3 5.7 0.2 1.8-0.4 2.2-0.7 3.8-1.9 1.9-1.1 1.3-1.1 4.3-5.1 1.2-0.6 1.4-0.4 2.6 0.4 1.5 0.7 1.2 0.8 1.6 1.5 1.9 1.2 2.3 0.8 1.8-0.1 2-0.6 3.2-1.9 1.6-1.3 1.1-1.1 1.3-1.8 2.1-4.4 2.4-8.7 2.5-5.2 0.9-1.1 1.2-0.7 9.4-3.9 1.7-1.4 0.9-1.3 3.7-13.2 0.8-0.8 1.3-0.3 2.5 0.9 1.4 0.8 1.1 0.8 1.5 1.8 0.8 0.4 2.5-0.7 2.7-1.3 8.1-5.5 1.6-0.4 2.6-0.6 3.2 0 2.8 0.3 1.5 0.9 0.8 1 3 6.2 1.3 1.8 1.6 1.5 2.8 1.9 6.1 2.6 1.7 1.9 3 4.6 1.4 1.6 2.3 2.2 0.9 0.7 1.2 0.4 1.4 0.3 1.8-0.2 1.3-0.4 2.9-1.8 3.5-3.3 9.7-11 1.7-3.4 0.7-1 1.6-1.7 4.2-3.1 3.9-2.2 2.2-0.7 2.3-0.4 1.7-0.2 18.2 0.9 17.5 3.9 3.1 1.6 1.8 1.4 2.3 2.4 7.9 21.6 2.5 3.1 2.5 1.9 3.1 2 4.9 1.8 3.2 1.6 2.7 2 1.4 2 0.4 1.5-0.6 1.3-0.7 0.8-4.5 1.4-4.8 3.2z" id="GHA2172" name="Greater Accra" data-id="GHA2172" data-name="Greater Accra">
 </path>
 <path d="M815.1 547.9l1.5 8.3 6.5 14.3 9 12.5 8.9 6.1 3.9 4.5 5.4 5 5.8 4.2 14.7 7 3.9 8.3 2.9 8.6 8.6 7.1 0.5 2.4-0.1 2.6 0.6 3.3-0.2 2.3 0.2 1.1 0.8 0.7 2.7 0.5 0.9 0.7 0.8 5.6-1.7 3.5-3.5 2.2-9.9 4.4-3.8 2.5-7.5 6.7-1.8 0.9-1.8 0.3-1.1 0.8-0.3 3 1 2.3 1.7 1.7 1.5 2 0.4 3.1-1.2 2.9-1.7 1.4-1.2 1.6 1.2 5.6 0.9 10.6 2 8.5 0.1 4.3-0.1 8.5 2.3 16-0.2 13.6 2.1 12.9-0.5 11.9 0.6 4.4-6.5-1.1-2.9 4.6-0.7 7 0.1 6.2-1.3 3-3 1.6-3.6 1-2.9 1.3-2.3 2.2-1.4 2.4-0.8 2.8-0.9 13.1 1.2 11.2 3.6 9.9 7 6.3 4.1 0.6 4.5-0.8 8.2-3.1 1.5 2 3.6 14.8-0.3 4.9-3 8.3-2.1 10.5-5.4 13.5-0.7 8.9 1 10.2-0.2 9.8-4.3 7.8-2.9 1.6-9.4 2.5-3.3 0.2-3.3 1 2.6 3.5 6.4 4.9 2.6 4.8-0.5 3.8-4.8 8-1.5 4.7 0.7 2.2 2.2 1.3 2.7 2.1 6.5 12.1 1.5 2 3.9 0.8 3.9 2.2 3.2 3.1 1.9 3.6 0.3 3.7-2 11.4 1.3 4.7 2.9 2.7 3.2 2.3 1.9 3.6 2.2 0.2 6.2-0.2 2.1 0.4 2.8 2.9-0.1 2.1-1.6 2.1-1.4 2.9-0.4 6 1.4 5.5 2.7 5.4 3.5 5.4 4.8 4.9 11 5.5 5.7 3.5 7.3 8.9 2.9 2.2 4.6 1.2 17.1 0.1 5.8 18.1 3.5 4.9 1.8 1.4 1.7 0.6 1.6 1 1.8 1.9 2.9 4.6 2.4 2.8 3.1 1.6 18.6 2.1 2.6 3.6-0.6 7.9-1.5 0.6-10.2 5.5-7.7 6-11.4 12.3-2.6 3.9-5.5 11-1.1 4.4-0.3 4.7-2.3 10.5-2 4.2-7.1 6.7-9 3.2-42.9 4.8-11.2-0.8 4.8-3.2 4.5-1.4 0.7-0.8 0.6-1.3-0.4-1.5-1.4-2-2.7-2-3.2-1.6-4.9-1.8-3.1-2-2.5-1.9-2.5-3.1-7.9-21.6-2.3-2.4-1.8-1.4-3.1-1.6-17.5-3.9-18.2-0.9-1.7 0.2-2.3 0.4-2.2 0.7-3.9 2.2-4.2 3.1-1.6 1.7-0.7 1-1.7 3.4 0.6-20.7-0.4-1.8-0.9-1.6-7.8-4.6-4.7-4-2.9-1.6-3.9-0.6-15.4 0.4-4-1.2-10.6-8.1-1.4-2.3-0.2-3.8 0.8-4 1.6-3 1.1-2.8-0.5-4-1.5-4.3-1.2-2.4 1-1.3 10-3.9 3.8-2.2 3.6-2.6 1.4-1.6 1.8-3 6.5-19.7 0.1-1.8-0.1-2.1-0.9-3.2-1-1.5-1-1-2.8-1.8-1.6-1.6-1.2-1.9-0.7-2.3-0.9-5.2-0.6-2.4-0.6-1-1.8-1.4-2.2-0.5-6.6 0.4-1.2-0.3-0.6-0.8 0.1-2.9 0.7-4.2 3.5-13.3 1.1-2.5 3.4-4.3 3.1-3.1 0.9-0.7 8.8-5.1 1.5-1.6 0.3-1.8 0.2-2.6-1.3-9.7-0.9-2.1-1.2-1.9-1.5-1.6-1.7-1.4-2.2-1-3.4-1.2-1-0.6-1.5-1.6-1-2-0.7-2.4 0.1-2.2 0.6-2.9 2.1-5.9 1.2-2.7 1.1-1.8 4-3.7 0.8-0.7 3.2-3.1 1.9-2.7 0.5-1.1 0.5-2.4 0.2-3.6-0.5-6.4-1-5.2-0.4-1.2 0-1.9 0.4-2.5 1.5-4.5 1.7-3.9 0.6-0.9 0.5-4.1-0.9-12.1-1.1-7 0-1.4 0.3-2.6 3.8-12 0.9-6.9 0-2.9-1-6.8-0.8-1.4-1.3-1.5-2.8-2.4-3.3-1.9-6.2-1.7-8.2-4.2-1-1-0.9-1.5-1-2.7-0.4-1.9-0.7-13.4-0.3-1.3-2.7-6.5-14.8-25.5-5.3-14.9-0.3-2.8-0.9-2.3-1.2-1.7-2.7-1.7-1.6-0.6-5.1-0.8-2.3-0.5-2.3-1-2-1.6-1.8-1.9-5.5-8.8-0.6-1.1-0.7-2.3-1-8.2-0.6-2.4-9.6-22.7-2.6-4.2-2.7-3.2-31.2-25.2-4.5-2.1-12.8-3.4 4.8-4.8 4.5-9.8 1.4-1.5 1.4-0.7 2.5 0.6 1.7 0 2-0.3 7.8-2.6 1.5 0 1.2 0.4 5.3 2.5 1.2 0.4 1.7 0.2 2.2 0 3.8-0.8 1.8-1.1 1.4-1.5 0.9-1.7 1.3-0.7 1.8-0.5 0.7-1 0.4-1.3 2.5-4 0.2-1.2-0.3-2.6 0.4-1.5 1.1-1.7 3.3-3.1 2.3-1.6 1.8-1 9.9-3.5 4.7-0.1 5.5 1 4.7 1.5 3.6 1.6 7.9 5.1 3.2 3.1 2 2.5 4.9 4.8 2.7 2 2.5 0.2 3.9 0 9.1-1.1 3.6-0.9 2.1-1.3 0.3-1.3-0.2-2.2-0.5-1-1.5-9.2 0.1-1.4 0.7-1.5 1.1-0.7 1.5-0.2 6.9-0.3 1.5-0.7 0.8-0.8 0.3-2.6-0.3-2.7-0.4-1.1-2.4-3.7-1.8-1.4-2.3-0.8-1.4-0.1-6.8 0.8-4.9 1.2-5.2 0.8-1.2 0-2.5-0.3-2.4-0.7-1.1-0.4-1.4-1.5-0.1-1.1 0.5-2.5 0-1.4-0.5-2.5-0.8-2.3-0.2-1.3 0.5-1.9 0.9-0.9 1.4-0.8 1.6-0.3 2.3-0.8 1.1-0.9 0.6-1.2-0.2-1.2-0.5-1-0.9-0.8-4.2-2-0.9-0.7-0.6-0.9-0.3-1.1 0.1-2.6 0.3-1.2 2.5-7.1 1.6-3.4 2.4-3.8 1.3-1 1.3-0.4 1.1 0.3 2 1.2 1.3 0.4 1.4 0 2-0.8 0.8-1.1 0.3-1.4-0.3-1.2-0.5-1-3.3-3-1.2-1.9-0.5-1-0.6-2.4 0.3-1.7 0.9-1.9 4.5-5.8 1.9-3.6 1.4-3.9 1.1-1.8 0-1.3-0.4-1.1-1.5-2 0.5-2.7 1.6-1.4 5.5-2.3 2.3-0.6 1.2 0 2.4 0.6 5.2 3 2.6 0.6 2.7-0.1 7.2-1.4 1.3-0.1 8.9 1.2z" id="GHA2173" name="Volta" data-id="GHA2173" data-name="Volta">
 </path>
 <circle cx="669.4" cy="1184.1" id="0">
 </circle>
 <circle cx="769.4" cy="1129.6" id="1">
 </circle>
 <circle cx="923.2" cy="1134.9" id="2">
 </circle>
</svg>