<?xml version="1.0"?>
<!--
************* Copyright (c) 2017 Pareto Softare, LLC DBA Simplemaps.com *******************		
************* Free for Commercial Use, full terms at  http://simplemaps.com/resources/svg-license ************
************* Attribution is appreciated! http://simplemaps.com ***************************
-->
<svg baseprofile="tiny" fill="#7c7c7c" height="260" stroke="#ffffff" stroke-linecap="round" stroke-linejoin="round" stroke-width="2" version="1.2" viewbox="0 0 1000 260" width="1000" xmlns="http://www.w3.org/2000/svg">
 <path d="M785.7 104.8l-5.1 3.2-2.9 3.6-0.6 2.5-1.7 4.6-1.3 2.2-1.3 1.5-5.9 4 8.1 17.4 2 1.3-4.8 2.8-2.8-1.4-2.4 1.5-2.3 2-7.3 16.5-1.5 4.4-9.5-8.9-3.8-1.4-10.7 2.7-12.3 1.5-12.1-1.5-11.1-4.7-9.2-8.3-6.7-9.4-3.5-2.2-6.8-1.3-6.1-2-11.1-6.9-5-1.4-12.7-1.1-11.2-2.9-21.6-11.2-16.7-12.1-14.9-14.1-9.1-6-7.5 3.1-6.9 7.2-0.9-0.7-1.9-0.3-2.6 0.6-4 3-8.2 3.9-21 12.3-0.8 3-0.6 0-19.5-14.3-3.9-9.6 0.5-15.8 1-4.9-3.8-2.1-11.4-0.6-2.6 0.2-5.7-0.2-15-2.2-4.6-0.2 0.4-2.4 2.6-7.5 3.4-7.2 3.7-5.8 10.3-11.2 14-10.4 15.4-5.9 14.3 2.3 3.1 3 6.5 8.6 2.8 2.2 7-1.7 25-16.1 24.2-9 7.1 0.4 19.7 7.5 33.5 1.5 12.1 4.1 11.7 9.5 4.2 5.9 2.9 6.3 6.5 22.2 2.3 2.6 13.6 8.3 4.6 1.7 4.1-1.3 20.4-11.5 13.4-3.7 13.6 1.1 14.3 6.7 6.4 5.2 4.5 5.7 3.1 6.5 4.4 14.8 2.2 4.6 3.3 3.7 2.7 2z" id="GMB2151" name="Central River" data-id="GMB2151" data-name="Central River">
 </path>
 <path d="M755.9 170.9l1.5-4.4 7.3-16.5 2.3-2 2.4-1.5 2.8 1.4 4.8-2.8-2-1.3-8.1-17.4 5.9-4 1.3-1.5 1.3-2.2 1.7-4.6 0.6-2.5 2.9-3.6 5.1-3.2 24.1 17.3 7.9 3.8 6.1 0.8 5.7-1.4 19.5-7 18.4-11.5 6.3-2.8 19.1-4.3 15.3-8 6.7-1.7 3.6-0.1 5.8 0.5 3.4-0.5 3.9-1.8 6.8-4 4.4-0.7 7 1.2 8.4 3 8 4.1 5.5 4.5 1.7 3 2.1 6.5 1.8 2.9 3 2.6 7.5 4.4 3.4 2.8 7.9 16.2-1.3 17.5-9.4 14.5-16.4 7.2-25.1 2.2-13.3 3.6-13.3 0.1-14.3 5.2-5.7 0-5 2.2-15.9 12.1-7.2 3.6-9.6 0.4-18-3.4-18.9 1.6-8.9-0.7-8.7-2.4-12.1-6.4-3.5-2.4-3.1-2.8-2.6-3.5-3.7-3.8-4.4-1.3-10.4-0.4-4.8-1.4-4.4-2.5-3.1-2.9z" id="GMB2152" name="Upper River" data-id="GMB2152" data-name="Upper River">
 </path>
 <path d="M78.6 149.7l-7.9 6.5-14.6 10.8-13.6-1.1-10.4-10.8-9-12.2 19.4-24 8.5-7.1 0.7 3.5 1.9 2.4 2.8 1.9 3.4 1.7 5.9-3.1 5.8-0.3 5.2 2 3.5 3.8 1.8 6.1-3.6 1.1-5.5 0.3-3.8 4.1 5.1 4.6 4.4 9.8z" id="GMB2153" name="Banjul" data-id="GMB2153" data-name="Banjul">
 </path>
 <path d="M547.4 90l-7.5 7.8-4.7 7.6-1.2 21.2-2 9.4-6.9 9-9.5 6.4-10.8 4-10.8 2-12.2 0-36.2-7.7-10.3-0.5-7.8 2.9-7.7 4.3-9.9 3.3-5.4 0.6-22.4-2.2-4.2 0.1-14.9 4.8-23.1 2.2-3.8 2.1-1.3 4.8-0.6 24.3-48.5-10.6-2.7-0.1-8.9 2.2-6.8 0.8-4.7 0.9-2-0.2-3.2-1.1-2.4-0.2-3.5 1.5-2.3 3.8-1 1.2-2.1 0.1-2.4-1-3.4-3.2-1.1-2.4-1-4-1.4-1.5-6.3-0.6-4.6 2.3-3.7 0.4-3.4 1.2-3 1.8-2.7 2.7-3.1 2.3-1.5-2-1.5-9.3-0.1-3.8-0.8-3.4-3.7-2.2-1.1-2-0.6-2.7-0.1-2.8 1-6.3 2.7-4.3 13.3-11.1 2.5-2.7 1-3.6 1.5-1.7 3.2 0.6 5.4 2.2 46.5 2.6 17.8-4.3 6.3-0.6 7.1 0.6 3.2-0.6 2.4-1.1 4.2-3.6 7.2-0.4 21.4 2.5 6.8-0.7 19.3-6 3.1-1.8 6.2-4.5 3.1-1 3.3 1.2 4.7 4.9 3.2 1.2 4.7-0.1 3.4-0.6 3.2-1.3 3.7-2.7 2.9-3.4 5.3-8.3 3.2-2.3 3.9-0.2 4.2 1.4 3.7 2.1 3 2.3 3.4 1.6 3.6-0.6 3.4-1.4 3.1-0.7 6.2 1.8 4.1 4.2 3.1 4.7 3.5 3.5 11.4 3.8 14.6 0.9 11.8-5 3.4-13.9-1.8 0 0.8-3 21-12.3 8.2-3.9 4-3 2.6-0.6 1.9 0.3 0.9 0.7z" id="GMB2154" name="Lower River" data-id="GMB2154" data-name="Lower River">
 </path>
 <path d="M78.6 149.7l2.4 10.2-0.8 5.7 12.2 14.6 2.7 2 16.8 0.7 4.7 1.4 4.4 2.7 2.6 2.4 3.4 1.7 6.7 0.6 3.2 2.3 1.9 5.3 0.2 6.1-2 4.7 6.5-5.5 3-0.1 4.3 3.3-2-3.5-6-6.2-1.3-0.9-0.8-4.3-2.3-2.9-3.6-1.2-4.6 0.4 0-2.4 9.7 0.2 4.6-0.7 4-2 3.3 6.8 3.8-1.5 4.5-4.7 5.4-2.7 6.2-1.9 12.2-8.2 6.6-1.8 9.2 2.9 1.4 6.8-1.4 7.8 0.9 6 5.9 1.7 8-2.5 11.4-6.2 0-2.5 4.6-2.3 6.3 0.6 1.4 1.5 1 4 1.1 2.4 3.4 3.2 2.4 1 2.1-0.1 1-1.2 2.3-3.8 3.5-1.5 2.4 0.2 3.2 1.1 2 0.2 4.7-0.9 6.8-0.8 8.9-2.2 2.7 0.1 48.5 10.6-0.7 29.6-2.2 1.7-209.5-1.9-69-0.7-11.6 2.6-4.9 8.4-1 3.2-5.3 5.2-2.1 2.8-1.2 3.8-0.5 7.9-5-4.4-5.2-1.7-0.8-2.5 3.8-7.7-0.6-5.1-6.5-16.9-0.2-4.1 0.8-15.9-0.8-4.5-1.8-4.5-5.7-6.5-1.5-4.6 2.6-5.4-1.2-1.8-3.1-7.8 3-3.6 3.5-10.5 3.5-2.2 4-1 4.4-2.4 3.7-3 9 12.2 10.4 10.8 13.6 1.1 14.6-10.8 7.9-6.5z" id="GMB5512" name="West Coast" data-id="GMB5512" data-name="West Coast">
 </path>
 <path d="M507.4 111.8l-0.7 5.1-2.5 4.5-3.4 3.3-3.7 1.3-6.2-0.8-11.4-3.2-5.1-0.7-4.7-1.7-5.5-3.9-8-7.3-2.9-1.4-3 0.5-2.9 1.2-2.6 0.7-3-0.7-6-3.9-4.6-1.1-3.7-2-4.4-0.9-6.5 1.8-3.4 2.7-4.8 6.7-3.3 2.1-5.7 0.3-8.9-4.3-5.8-0.7-6 1.4-14.6 7.9-11.8 3.7-106.2 8.4-10.5-3.8-6.5-1-6.3 1.3-5.9 3.3-9.3 7-13.9 14.2-3.2 2.4-2.5 1.1-2.5 2.1-2.5 1-2.8-2.1-0.2-2.5 1-3.6 0.6-4-1.4-3.9-5.6 5.2-0.7 2.8 2 3.9-3.3 1.7-1.5 0.4 0 2.3 1.6 0.5 3.2 1.7-6.6 3.3-11.3 1.7-11.4 0.4-7.1-0.6-25.7-6.3-10.8-0.7 2.1-3 4-8.4 0.7-3.6-0.7-4.8-3.3-6.7-0.7-2.6-1.4-2.4-6.1-4.6-2.1-3.8-3.3-2-0.7-1.3 0-7 2.9-14.4-0.4-5.4-1.9-4.5-2.2-3.4 82.5 0.4 61.8 0.2 41.2 0.1 102.9 0.4 57.4 0.2 5.2-1.7 0.7-13.6 0.8-4.6 4.6 0.2 15 2.2 5.7 0.2 2.6-0.2 11.4 0.6 3.8 2.1-1 4.9-0.5 15.8 3.9 9.6 19.5 14.3z" id="GMB5513" name="North Bank" data-id="GMB5513" data-name="North Bank">
 </path>
 <circle cx="624" cy="116.1" id="0">
 </circle>
 <circle cx="712.4" cy="161.7" id="1">
 </circle>
 <circle cx="469.4" cy="53.5" id="2">
 </circle>
</svg>