<?xml version="1.0"?>
<!--
************* Copyright (c) 2017 Pareto Softare, LLC DBA Simplemaps.com *******************		
************* Free for Commercial Use, full terms at  http://simplemaps.com/resources/svg-license ************
************* Attribution is appreciated! http://simplemaps.com ***************************
-->
<svg baseprofile="tiny" fill="#7c7c7c" height="918" stroke="#ffffff" stroke-linecap="round" stroke-linejoin="round" stroke-width="2" version="1.2" viewbox="0 0 1000 918" width="1000" xmlns="http://www.w3.org/2000/svg">
 <path d="M6.4 914.8l-2.4 2.2-3-2.1 2.5-1.3-1.1-2-0.2-2 0.7-1.8 1.8-1.3 2.3 4-0.6 4.3z" id="GNQ1467" name="Annobón" data-id="GNQ1467" data-name="Annobón">
 </path>
 <path d="M856.2 325.4l4.5 5.5 11.7 9.3 1 2.9-0.3 4-1 4.2-1.1 3.2-4.5 6.7-0.7 2.5 0.3 2.3 2.2 3.3 0.6 2-0.9 4.9-2 3.6 0.2 2.8 5.8 2.8 5.4 1.4 4.8 0.6 4.6-0.5 5-1.6 5.8-2.8 2-0.5 1.6 0.2 3.1 0.9 1.7 0.3 1.7-0.8 1.4-1.3 1.2-0.3 2.3 4.1 1.4-0.5 2.1-2.4 2.5-1.4 1.3-0.5 1.1 0.6 0.7 2.7 0.5 0.5 2.8 0.8 8.9 1.5 0.8-0.1 2.3-1.2 0 1-1 1.9-1.8 0.9-6.2 2.4-1.9 1.4-7.9 8.6-1.4 2-2.5 4.9-7.2 9.7-3.3 5.5-2.3 5.5-0.3 1.9 0.4 2.4 1.3 2.7 11.3 12.6 2.2 1.5 7.2 3.3 2 2.4 1.8 3.6 2.8 11.4 1.6 3 2.8 1.7 2.3 2.2-0.1 3.4-2.7 4-39.5-0.1-52.2-0.2-52.2-0.1-19-0.1-5.1 0.6-0.1-0.3 1.2-3.7 1.6-3.4 1-1.4 1.9-1.8 4-2.2 4.3-1.7 2.9-1.2 1.6-0.3 1.6 0.2 3.6 1 2.1 0.4 2.7 0.2 3.3-0.3 6.5-1.4 2.8-0.9 2.7-1.4 2.3-1.7 1.5-2.3 0.6-2.2-0.2-2.2-0.6-2.1-1-1.6-1.5-0.8-1.1 0.1-2.3 2.3-1.4 0.6-1.9-0.2-1.9-1-0.9-1.3-0.9-4.4-0.6-1.4-0.9-1.2-0.6-1.4-0.1-4.4-0.3-1.7-1-1-1.9-0.1-1.6-0.5-1.4-1.3-1-3.4-0.5-2.7-0.5-11.4-0.7-1.9-3.5-1.9-1.5-1.4-1.3-2.8-0.3-2.3 0.3-2.1 1.8-4 1.3-2.2-0.8-1.7-3-2.6-5.2-2.4-11.2-3.2-12.2-3.4-1.3-0.7-0.6-1.1-0.2-1.5 0.9-1.9 1.6-1.4 2.9-1 3.4-0.7 2.3-1.6 3.2-4.5 10.8-19.1 6.2-8.3 1.5-3.4 1-18.9 0.6-3.1 1-2.8 2.1-3.3 1.6-1.9 6.6-5.8 1.3-1.8 0.9-2.2 0.7-3 0.2-8.4-1.4-9.6 38.3 0 0.3 8.7 1.5 5.6 2.7 7.5 0.3 2.5-0.2 2.1-1.5 3.5-0.6 2.6-0.5 4 0.4 2.3 0.7 1.5 2.3 1.9 1.9 0.3 7.4-0.6 3.2 0.7 0.9 1.1z" id="GNQ1468" name="Centro Sur" data-id="GNQ1468" data-name="Centro Sur">
 </path>
 <path d="M998.2 357.3l-18.1-2.5-7.6 1.2-2 0.9-2.1 0.3-11.1-1.2-3.9 0.2-3.5 0.8-3.4 0.4-2.9-0.2-2.9-1.5-1.5-1.5-0.9-2.1-5.1-32.7-0.7-2.3-1.2-1.4-1.5-0.7-2.4 1-1.7 1.3-2.8 3-1.7 1.3-2.4 0.9-2.8 0.3-4.5-0.8-3-1-20-8.5-4.8-1-1.7-0.1-6.3 2.4-19.5 11.6-0.9-1.1-3.2-0.7-7.4 0.6-1.9-0.3-2.3-1.9-0.7-1.5-0.4-2.3 0.5-4 0.6-2.6 1.5-3.5 0.2-2.1-0.3-2.5-2.7-7.5-1.5-5.6-0.3-8.7 54.8 0 104.3 0 1.3 6.6 0.1 14.1 0.3 54.9z" id="GNQ1469" name="Kié-Ntem" data-id="GNQ1469" data-name="Kié-Ntem">
 </path>
 <path d="M650 505.1l-2.1 0.7-1.5-2.4-2.1-1.4 0.9-5.8 2.2 0 1.4 1 0.7 1.5-0.5 1.9 2.4 2-1 0.8-0.4 1.7z m149.1-223.4l1.4 9.6-0.2 8.4-0.7 3-0.9 2.2-1.3 1.8-6.6 5.8-1.6 1.9-2.1 3.3-1 2.8-0.6 3.1-1 18.9-1.5 3.4-6.2 8.3-10.8 19.1-3.2 4.5-2.3 1.6-3.4 0.7-2.9 1-1.6 1.4-0.9 1.9 0.2 1.5 0.6 1.1 1.3 0.7 12.2 3.4 11.2 3.2 5.2 2.4 3 2.6 0.8 1.7-1.3 2.2-1.8 4-0.3 2.1 0.3 2.3 1.3 2.8 1.5 1.4 3.5 1.9 0.7 1.9 0.5 11.4 0.5 2.7 1 3.4 1.4 1.3 1.6 0.5 1.9 0.1 1 1 0.3 1.7 0.1 4.4 0.6 1.4 0.9 1.2 0.6 1.4 0.9 4.4 0.9 1.3 1.9 1 1.9 0.2 1.4-0.6 2.3-2.3 1.1-0.1 1.5 0.8 1 1.6 0.6 2.1 0.2 2.2-0.6 2.2-1.5 2.3-2.3 1.7-2.7 1.4-2.8 0.9-6.5 1.4-3.3 0.3-2.7-0.2-2.1-0.4-3.6-1-1.6-0.2-1.6 0.3-2.9 1.2-4.3 1.7-4 2.2-1.9 1.8-1 1.4-1.6 3.4-1.2 3.7 0.1 0.3-3.4 0.5-1 2.5 0 5.2-0.6 2.3-2.1 2-2.7 0.6-3.1-0.5-3.1-1.3-2.9-2.2-4.5-5.2-2.9-2-2.7-1-5.2-0.6 0.3-0.9-0.3-3-1.3-4.5 0.4-2.1 1.3-1 2.3-0.8 2.6-0.5 2.2-0.1-1-1-2.1-0.7-2.6-0.5-2.1-0.1-1.8-0.6-4.4-2.4-2.1-0.6-7.1 1.6-1.9-0.5-0.7-1.8 0.8-1.8 1.3-1.6-2.1 0.7-4 3.5-3.4 3.9-1.4 2.5-1.2 1.2-5.7 1.5-4.4 1.8-1.5-2.1-2.7-8.3-1.5-2.2-1.8-1.7-2.8-1.5-3.2-0.7-2.3 0.5-2 0.9-5.6 1.1-5.1 2.4-2.7 0.6-1.5-1-4.1-4.5-2.2-1.6 0.3-1.8-0.4-1.4-2.3-2.9 2.7-1.1 2.1-2.1 1.5-2.5 2.8-9 1.5-3.1 2-1.4 2.7-1.4 2.4-3.4 1.9-3.9 0.9-3.2-0.5-6.7 0.7-2.8 4.8-2.1 6.9-6.3 5.5-7.1 0.4-1.9 2.1-5 2.8-5.1 3.6-2.8 2.2 0.7 2.2 2.1 3.3 1.2 4.7-0.7 3.2-1.5 3.1-2 3.9-1.9-3.5 0.2-7.2 4.8-3.1-0.7-7.5-7.2-2.7-4.9 1.8-4.7 10.3-10.1 1.5-2.6 0.8-1 3.6-2.4 1.4-1.4 0.7-1.2 1.5-3.5 1.5-1.8 0.6-1.1 0.7-4.3 1.6-2 1.3-2.5 6.2-6.1 1.8-6-0.6-7.2-4.9-14.2-1.6-3.3-0.6-1.5-0.2-1.9 0.4-1.9 1.6-2 0.4-0.9 1.5-21.7-0.5-4-1.5-3-1.4-3.9 2.2-3 3.5-2.5 2 3 0.1 3.2-0.5 3.7 0.3 3.6 2.3 2.7 4 3.6 4.4 3 3.2 1.2 3 0.7 11 5.5 3.5 0.6 34.7 0z" id="GNQ1470" name="Litoral" data-id="GNQ1470" data-name="Litoral">
 </path>
 <path d="M998.2 357.3l0.8 127.9-64.9-0.2 2.7-4 0.1-3.4-2.3-2.2-2.8-1.7-1.6-3-2.8-11.4-1.8-3.6-2-2.4-7.2-3.3-2.2-1.5-11.3-12.6-1.3-2.7-0.4-2.4 0.3-1.9 2.3-5.5 3.3-5.5 7.2-9.7 2.5-4.9 1.4-2 7.9-8.6 1.9-1.4 6.2-2.4 1.8-0.9 1-1.9 0-1-2.3 1.2-0.8 0.1-8.9-1.5-2.8-0.8-0.5-0.5-0.7-2.7-1.1-0.6-1.3 0.5-2.5 1.4-2.1 2.4-1.4 0.5-2.3-4.1-1.2 0.3-1.4 1.3-1.7 0.8-1.7-0.3-3.1-0.9-1.6-0.2-2 0.5-5.8 2.8-5 1.6-4.6 0.5-4.8-0.6-5.4-1.4-5.8-2.8-0.2-2.8 2-3.6 0.9-4.9-0.6-2-2.2-3.3-0.3-2.3 0.7-2.5 4.5-6.7 1.1-3.2 1-4.2 0.3-4-1-2.9-11.7-9.3-4.5-5.5 19.5-11.6 6.3-2.4 1.7 0.1 4.8 1 20 8.5 3 1 4.5 0.8 2.8-0.3 2.4-0.9 1.7-1.3 2.8-3 1.7-1.3 2.4-1 1.5 0.7 1.2 1.4 0.7 2.3 5.1 32.7 0.9 2.1 1.5 1.5 2.9 1.5 2.9 0.2 3.4-0.4 3.5-0.8 3.9-0.2 11.1 1.2 2.1-0.3 2-0.9 7.6-1.2 18.1 2.5z" id="GNQ1471" name="Wele-Nzás" data-id="GNQ1471" data-name="Wele-Nzás">
 </path>
 <path d="M567.9 46l-2.8-6.9-1-1.4-1.6-1.1-2.3-0.8-4.7-1-4.4-0.2-2.8 0.2-2.1-0.4-2.4-0.9-7.6-5.4-2.3-1.3-4.7-1.6-2.6 0.2 0.2-2.7 2.3-6.2 4.5-7.4 6.2-6.1 7.1-2-1.1 2.5 5.5 1.1 2.4 0.1 1.7-1.2 3.9 1.2 5.6 0.8 6-0.1 4.8-1.9 1.1 1 1.4 0.3 4.6 5.7 1.8 3 0.7 3.7-0.3 3.4-0.7 3-1.1 2.7-1.4 2.4-6.3 5.6-1.8 4.8-5.8 6.9z" id="GNQ1478" name="Bioko Norte" data-id="GNQ1478" data-name="Bioko Norte">
 </path>
 <path d="M567.9 46l-0.5 0.6-3.5 9.3-3 2.4-0.8 4.1-0.9 1.6-5 3-0.6 2.8-0.1 8-1.1 2.9-7.8 9-6 9.8-1.6 2-1.7-1.1-4-1.7-0.9-1.2-1.1 0.5-2.5-0.9-4.9-2.7-1.2 0.4-4 0.9-1.8 0-1.9-0.8-3.7-2.4-2.2-0.5-3.8-0.1-4.1-1-3.4-2.6-1.4-5.1-0.8-1.9-1.6-2.3-1.1-2.3 1.3-3.5 1-7.4 1.2-3.4 2.3-4.4 3.3-2.9 4.1 1.1 2.2-1.3 2.9 0.2 6.2 1.1 3-1.2 0.9-2.8-0.4-3.2-1.6-2.4 2.1-1.2 2.8-2 2.4-2.3 1-2.2 1-13.5 2.6-0.2 4.7 1.6 2.3 1.3 7.6 5.4 2.4 0.9 2.1 0.4 2.8-0.2 4.4 0.2 4.7 1 2.3 0.8 1.6 1.1 1 1.4 2.8 6.9z" id="GNQ1479" name="Bioko Sur" data-id="GNQ1479" data-name="Bioko Sur">
 </path>
 <circle cx="944.7" cy="326.3" id="0">
 </circle>
 <circle cx="688.8" cy="405.4" id="1">
 </circle>
 <circle cx="665.6" cy="453.9" id="2">
 </circle>
</svg>