<?xml version="1.0"?>
<!--
************* Copyright (c) 2017 Pareto Softare, LLC DBA Simplemaps.com *******************		
************* Free for Commercial Use, full terms at  http://simplemaps.com/resources/svg-license ************
************* Attribution is appreciated! http://simplemaps.com ***************************
-->
<svg baseprofile="tiny" fill="#7c7c7c" height="999" stroke="#ffffff" stroke-linecap="round" stroke-linejoin="round" stroke-width="2" version="1.2" viewbox="0 0 1000 999" width="1000" xmlns="http://www.w3.org/2000/svg">
 <path d="M155.6 572.7l2.8 1.6 3.6-0.9 4.6 1.9 4.1 3.2 1.7 3.1 1.9 3.8 7.7 5.1 1.1 4.3-1.5-1.8-3.2-1.7-3.8-1.1-3-0.2-1.7 0.7-1 1.3-0.8 1.2-0.8 0.6-1.4 0.7 0 1.7 1.1 2.4-0.2 1.9-0.5 0.9-1.3 0.2-2.3 0-0.8-0.6-3.5-4.3-5.5-4.6-2.7-2.8-0.2-2.3-2.5-2.2-4.3-5.9-2.5-1.7 0.7-1.6-0.5-2.4 0.7-0.9-0.9-1 4.5-6.6 2.9-2.7 2.6 0.6 0.1 0.8 2.8 5.4 0.8 2.8 1.2 1.1z m-20.3-88.8l6.1 17.6 0.2 1.2-0.2 2.2-0.7 1.1-1 1-1.3 1.6 0.9 1.3 2.6 5.1 1.4 0.6 1.6-1.3 1.5-1.8 1-0.5-0.5 1.6 2.1 0.4 0.7 1.5 0.2 2 0.8 1.9 4.8 4.4 1.2 3.7 4 5.6 0.9 2.3 0.3 2.3-0.4 2.4-1.1 2.4-0.6 0.1-2.9-0.7-1 0.2-1.3 0.7-1.1 0.2-1.7-0.6-1.4-1.3-2.7-3.2-3.3-1.9-4.3-1.2-3.8 0.6-1.8 3.6-2.1-1.7-4.1-1.2-1.5-2-0.4-1.3-0.2-2.6-0.2-1.1-1.9-3.2-0.4-1.6 1.4 0.4 1.9 1.9 1.3 0.7 0-1.1-1.8-1.7-1.1-2.2-3-7.8-1.4-2.1-1.1-0.4-0.8 2.4 0 2.4 0.9 4.7-0.2 2.8-1 2.5-1.5 1.1-1.5 0.7-1.4 1.6-0.7 0-0.7-2.5-3.2-1.8-0.7-2.6 0.4-1.2 0.9-1.5 0.7-1.4-0.2-1.3-0.4-1.2 0.2-1 0.7-0.8 0.7-0.5 1.5-1.7 1.4-3.8 0.7-4.7 0.2-4.5 0.6 2.1 0.2 0.9 0.8 0 1.5-2.9 0.9 1.1 0.8 2.6 1.4 2.1 1-1.2 0.4 0.9 0.4 1.5 0.9 0.8 1.2-0.5 1.9-2.1 2.7-1.4 1-2.4 0.1-2.9-1-2.6 2.3 1-1.4-4.8-0.1-1.1 0.2-1.9 0.3-1.5 0.1-1.3-0.6-1.3 0-0.9 3.8 0z m11.5-1.6l-0.7 2.1-0.8 1.4 2-0.1 1.2 0.5 1 0.9 1.2 0.8-0.7 2.9-0.8 2.5-2.3 4.5 0.8 0.5 1.2 0.4 1.3 0.1 1.3-0.1 0-0.9-1.5-1.1 2.3 0-0.8-1 1.4 0.4 1.2 0.7 2.1 1.9-2.2 0 0.6 3.9 0.8 1.4 1.5 0.6 0 1-3.1 0.5-1.9 0.6-1.5-0.4-2-2.6 0.8-1-1.7-1.9-1.5-2.1-2.2-4.9-0.2-1.1-0.3-3.3-0.3-1.5-0.9-0.9-1.2-0.8-0.8-1.3 0.6-2 1.8 1.2 0.9-0.8 1.2-3.4 2 0.6 0.2 1.8z m26.3-9.2l-1.5 0 0-1 4.3-6.8 1-0.1-2.5 3.6-1.1 2.3-0.2 2z m-3.3-5.1l-0.9 0.3-0.3-1.4 0.3-1.6 2-3.7 1.8-2 2-0.8 2.6-0.6 0.8 0.5 0.1 1.5-1.3 1.6-1.4 1.2-1.6 1-1.9 0.9-1.2 1.4-1 1.7z m-10.1-12.4l1.2 0.7 0.7 0 0 0.5-1 1.6-0.9 0.9-2.9 0.8-0.4 1.7 1.6 1.3 1.1 1.3 0.8 0.6 1.1 1.4-1.5-0.6-4-3.8-1.6-3.7 1.1-1.7 1.7-0.4 2.4-1.2 0.6 0.6z m-10.1-1.8l0.8 0.4 0.5-1.1 0.6-1.6 0.8-1.2 0.1 2.1-0.3 7.8-0.6 1.7-0.7 0.2-0.8-1.9-0.8 0 0.8 3-1.6-1-0.1 1.1-0.6 1.9-1.9-1-1.8 0.3-0.9 1.2 0.7 1.5 0 0.9-1.2-0.1-0.7-0.5-0.1-1 0.4-1.3-2.2-0.4-1.3-2.9-1.9 1.3-1 1.4-1.2 2.1-1.6 3.5-0.8 0 0.1-3.7 1.9-13.9 2.1-4.8 0.5-2.9 1.9-5.4 1.1-0.6 0.9-1.4 1.5-3 1.4-1.7 2.1-1.8 2.5-1.3 0.4 1.2 1.4 0.7 1.7 2 0.5 2.2 0.1 2.1 0.7 1.6-0.6 1.7 0.1 1.4 0.5 2.3 0 2-0.4 0.9-2.7 3.8-0.5 1.2 0.2 1z m-52-67.4l0.9 1.2 1.5 1.1-1.3 0.4-2.2-1.6-0.9 0.1-0.5-1.1 0.3-0.7 1.2-0.6 1 1.2z m-5.3-7.9l1.3 3.4-2.3-0.1-1.4-0.4-1.1-0.9-2.3-3-1.2-2-0.3-1.8 1.7-0.9 1.7 2 2 1.6 1.9 2.1z m-73.4-81.3l-0.8 0.5-0.9-0.4-0.4-1-1.1-1.7 0.4-1 1.9 2.1 0.9 1.5z m44-4.8l0.6 1.4 0.7 0 0-1.1 0.8 0-0.2 4.6-1.4 2.6-2.3 1.6-6.9 2.9-1.2 0.9-0.6 1.7 0.4 1.9 0.9 1.4 1.3 0.6 0 1.1-1.6 0 0 0.9 6.6 3.4 2.7 0.6-0.4 3.2-0.8 0.6-1.9-0.7 1.3 3 2.4 15.3 0.4 0.8 1.3 0.9 1.5 0.6 3.2 0.7 1.5 0.6 2.3 1.8 1.1 0.3 2-0.1 1.6-0.6 1-0.7 0.9 0.3 1.1 2 0.6 1.6 1 4.4 1.3 2.1 0.1 1-1.4 0.9-1-0.8-2.8-0.9-2.6-1.9-1.9-0.8-1.9-0.5-1.8-0.1-1-0.6-2.9-2.6-1.1-0.7-1.9-0.3-1.6 0-1.4-0.3 1.2-1.1 0.6-1.4-3.9-1.3-1.5-0.7-0.1 1.1-1.5-2.2-1.2-3-0.8-3-0.8-6.2-1.3-3-2.1-2.4-2.9-2.2-2.6-1.3-1.4-1.1-3.1-6.7-0.3-1-2 0-1.3-0.2-0.9-0.8-0.8-2 0.3-3.4-0.6-1.1-2.1 1.4 0.1-2.3-0.4-1.7-1-0.9-1.7 0 1.1-1.2 2.9-4.2 0.6-1.3 1.1-0.2 10.4-0.4 3.3-0.7 3-1.3 3-1.9 1.5 0.5 1.1 0.8 0.9 1 1.1 0.8 2.9 0.9 1.2 0.7z m-55.9-10.9l-2.6 3.7-1.8 0.5-0.7-0.3-0.7-0.8-0.2-1.4 0.4-1.2 1-0.5 2.1 0.5 1.5-0.6 1 0.1z m17-1.9l-1 0.6-1.1-2.3 1.1-1.3 2.2 1.3-0.2 1.7-1 0z" id="GRC2883" name="Ionioi Nisoi" data-id="GRC2883" data-name="Ionioi Nisoi">
 </path>
 <path d="M446.3 857.9l-0.7 0-0.7-1.3-2.8-2.9-0.9-1.5-0.8-1.7-1-3 0.6 0.1 0.1 0.8 2 1.6 2.3 0.9 1.6 2.1 0.3 4.9z m-31.4-52.1l-0.2 8.2-0.6 0.2-1.7-0.2-2-0.5-1.3 0.2-1.3 1.4-0.4-2.1-1.2-0.9-3.1-0.9-0.1-0.5 0.2-1.1-0.5-0.3-1.9 0-0.6-0.9-1-2.2-0.7-0.8 1-7.8-0.1-3.2-0.9-3.3-0.6-1.5-0.4-1.2 0.2-1.5 3.5-6 1.4-1.1 1.3 0.8 4.5 8.3 1.7 2.2 7.4 5.3 1.9 2.3 1.1 2.4-0.7 0.6-1.7 0-1.8 0.9-0.9 1.4-0.5 1.8z m94-88.5l-0.5 0.3-0.8-0.6-0.1-1 0.9 0 0.5 1.3z m-47.5-10.1l-0.4 0.3-0.6-0.3-0.6-1.4 0-0.7-0.3-1.1 0.7 0.2 0.4 0.9 0.5 0.6 0.3 1.5z m-34.3-47.7l-1.2 0.6-2.3-0.6-1.4-1.3-1.1-1.6-1.7-1.5 0.8-0.8 0.9-0.7 1-0.3 1.2-0.1 0.6 0.5 1.9 1.1 0.8 0.8 0.5 1 0.2 1.5-0.2 1.4z m43.4-15l-2.8 0.5-2-0.5 0.4 2.8-1.3 1.4-2.4 0.5-2.5 0-6.4 1.9-2.5 0.1 0-1 10-6.8 2.7-0.8 5.1-0.1 2.3-1 3.8 0-1.8 1.8-2.6 1.2z m44.5-16.1l-1 0-0.9-0.5-1.2-1.9-2.1-1.4 0.2-0.6 1.1 0.6 1.3 0.3 1.6 1.3 1 2.2z m-49.2-7l-2.8 0.4-2.9-0.4-2.2-1.3 0-0.9 3.2-0.8 1.2-1 0.3-2.2 0.6 0.2 0.1 0.8 0.9 1.4 1 1 1.2 0.5 1.6 0.1 0 0.9-2.2 1.3z m-7.2 13.9l-0.1-3.6-1.2-1.7-4.3 0-2.2 1.1-5.6-1.4-2 0.4-3.3-3.3-1.9-0.3-3.5-2.6-5.5-1.7-1.7-1.9-0.8-2 0.7-3.8 2.6-6.1 0.1-0.6 0.3 0.1 4.5 3.6 0.9-1.1 4.1 4.1 1.1 0.3 0.9 0.4 2.3 1.9 1.2 0.8 1.5 0.3 2.7-1.8-0.2-3.8-2-3.7-3.2-1.4 0-1 1.9-1.5 2.1-0.9 5.7-0.5 1.2 1.7-0.6 3.8-1.5 4-1.8 2.1 1.1 1.3 1.2 0.8 1.4 0.6 1.6 0.3 0 1-2.1 0.8-0.9 0.1 0 1 0.8 0 1 0.4 2.8 0.5 2.6 1.7 2.3 0.8 5.2 4.4-0.8 1 0.8 1 0 0.9-2.3 1.3-6.6 2.2-0.5 0z m57.5-32.3l-1.3 0-0.6-0.6 0.3-1.5 1.7 0 0.7 0.8 0 1.2-0.8 0.1z m17.4-0.7l-0.7-0.5-0.1-1.3 3-11.9 1.3-1.4 0.6 0 0.9 2.7-0.3 1.6-0.5 0.6-0.8 0.6-0.4 1.2-0.3 1.2-0.6 1.4 0 0.4-0.9 2.4-0.4 0.7-0.8 1.6 0 0.7z m-69-5.2l-1.2 0.7-1.4-1.4-1.6-0.6 0-1 1.3-0.8-0.1-1.3-1-1.3-1.4-0.5-1.4-0.9-0.8-2.1-0.3-2 0.1-0.9 13.6-0.9 1.9 0.9-0.7 1.5-1.3 1.8 0.1 1.7-1.6 1.1-0.3 1.6 0.1 1.6-0.5 1.5-0.9 0.6-2.6 0.7z m30.3-13.2l0.4 0.9-0.4 0.8-0.8 0.2-0.5-1 0.6 0-0.2-0.8 0.9-0.1z m-26.1-29.2l0.3 1.8 1.2 1.5 0.1 0.7 3.1 0-3.9 1.9 0.5 1.5-2.4 2.1-0.4 2.2-0.7 0-1.2-1-1.1 0.8-1.2 1.5-1.6 0.8-1.6-0.2-3.5-1.1-1.5-0.8-0.7-1 0-0.9 0.8-1.4 1.5-1.6 1.9-0.9 3.3 1 1.5-1.3 1.1-2.1 0.7-1.5-1.4 0.1-1.8 1.5-1 0.4-1-0.2-2.1-0.9-1.3 0 4-1.9-1.5-0.8-1.6-1.2 1.2-0.2 1.3 0.1 1.1 0.4 1 0.7 0.5-1.3-0.5-0.6 0.9-0.7 0.9-0.3 1-0.1 2.6 0.4 1.4 0.6 0.7 0.9-0.6 1.1z m-41.9 5.7l-2-5.2-3.5-6.5-3.9-5.3 2.8-0.4 8.1-2.4 1.9-2.2 1.9-0.5 1.1-0.8-0.7-1.7-1.8-1.6-2.1-0.7 0-1.9 1.4-0.2 2.5-0.6 1.5-0.2 0-1.1-1.2-0.1 0.5-0.2-0.2-1-5-1.6 6.4 0.1 3.8 0.7 1.5-1.7 0.9-6.5 1.5-1.8 2.2-1.1 4.2-1.2 1.7 1.1 1.1 2.5-1.1 1.8-0.3 1.9 1.7 1.5 1.9 0.3 2-0.4 1.8 1.1 4.4 6.3 1.8 1.1 3.8 0.7 1.7 1.5 1.9 0.3 4.1-2.8 3-3.3 1-13.6 2.3-3.9 3.9-3.6 6.4-2 3.1-1.5 0.4-0.7 1.7-0.3 2.6 1.6 1.2 0.3 10.9 4.6 2.3 0.3 2 0.7 1.8 1.7 2.7 3.6 5.4 4.4 0.9 1 0.4 0.9 2.1 0.8 0.5 1.2-0.6 2.2 0.2 1.1 1.2 1.1-1.2 0.4-0.6 1.1-0.4 1.6-0.2 1.8-0.7-2-1.7 0.3-5.5 3 0.1 2.9 1.7 6.2 0.5 2.6 1 2 1.1 1.5 0.5 1.2-0.3 1.4-1.5 3-0.5 1.5 0 1.2 0.3 1.4 0.1 1.6-0.4 1.7 1.2-0.1 1.3 0.4 1 1 0.4 1.5-0.5 0.7-3.4 1.3 0.8 0.9 1 0.7 1.2 0.4 1.6 0-0.7 1 0.6 0.1 1.7 0.8-0.7 1.3-0.2 1 0.3 0.8 0.6 0.8-1.1 0.7-0.5 1.3 2.7 1.7 0.9 1.3 0.3 2.4-0.2 3.1-0.4 1.6-2.6 2.7 1.6 0.9 0 1-1.6 0 0 0.9 0.7 0.1 0.2 0.5-0.9 1.4 1.5 1.4-1 1.6-1.9 1.8-1.6 2-1.3-0.8-4.3-1.8-1.7-0.4-2-0.6-0.8-1.8 0.1-5.3-0.8 0-1.6 0.8-1-2.6-1.2-6-1.6 1-0.8-2.3-1.8-2.4-2-1.5-1.6 0.3-1.3-1.2-0.3-0.7-0.7 0-0.7 3-1.1 0-1.2-0.5-0.9 1.4-0.2-1.7-0.4-0.4-1 0.1 0.7-1.7-0.5-1.6-2.4-2.6-0.3-2.7-4.7-7-0.4-2-1.9-0.9-1.9 0.4-1.9 0.9-2.1 0.6 0-1 1.1-0.5 0.4-0.4 0.1-1-1.7 0.7-1-0.8-0.9-1.3-1.4-0.6-1.6-0.1-1.4-0.2-1.1-0.6-0.9-1.1 4-3.7 1-2.1-0.8-2.5-1-1.1-0.8-0.1-1.6 0.6-4.3 0-1.2 0.3-1.3 1.4-0.6 0.3-2.7 0.2-1.1 0.3-1.2 0.6-4.3 3.8-1.9 1 3.9 1-2.3 0.9-9-0.9-11.6 1-4.2 2.1-3.3 2.6z" id="GRC2884" name="Attiki" data-id="GRC2884" data-name="Attiki">
 </path>
 <path d="M407.2 767.6l0.4 0.8-0.4 1.7-1.3-1-0.5-1.2-0.5-0.3-1.6 0.2-0.5 0.3-0.7 0.9-1 0.2-0.7-0.6 0-0.9 0.4-1.2 0.7-0.6 0.7-0.3 0.5-1.3 0.8-0.8 1.1-0.6 0.8-0.2 0.8 0.5 0.6 1.2 0.4 3.2z m-136-34.2l-0.1 2.9-1.3-1.7-0.2-1.2-1.5 1.1 0.6-4.1 0.4-1.5 0.5-0.3 1.8 0.9 0.2 1.6-0.4 2.3z m-6.8-10.8l1.3 0.3 0 0.8-1.5 1.1 0 1.4-0.7 1.4-0.9 1.3-0.7 1.6 0.1-4.9 0.5-2.2 0.9-1.5 1 0.7z m-18.6-34.4l-0.4-0.6-0.7-0.4-0.7-1.3 1.8-1 0.6 1.5-0.3 0.5 0 1.1-0.3 0.2z m171.6-144.8l3.9 5.3 3.5 6.5 2 5.2-2 1.5-5.4 2.7-4.7-2-1.1 0.5-0.9-0.1-2.2-0.4-0.4 0.8 0 1.6-0.1 1.7-1 0.7-0.8 1.4 0.5 2.7 1.5 2.2 2.2-0.4 2 1 2.7 0.3 2.6-0.3 1.9-1 3.7 3.5 1.9 1.5 2.1 0.9-0.5 1.4-0.1 1.3 0.1 1.2 0.5 1-1.5 0.3-2.1 1.3-2.5 0.4-0.3 0.5-0.5 2.3 2.8 2.2 1.5 0.7 1.9 0.1-1.1 3.3-0.3 2.2 0.4 2.1 1 3.1-1.6 0 0.3 3.1 0.5 1.3 2.1 0.8-0.1 0.6-2.6 6.1-0.7 3.8 0.8 2 1.7 1.9 5.5 1.7 3.5 2.6 1.9 0.3 3.3 3.3 2-0.4 5.6 1.4 2.2-1.1 4.3 0 1.2 1.7 0.1 3.6-13.4 0.7-1.9-0.3 0.3 1.4 0.4 0.5-4.1-0.5-1.5 0.1 0.2 1.5-3.9 0.9 0 1.3 0.8 0.7 1.2 0.1 1.1-0.2-0.7 1.1 0 0.8 0.9 0.2 2.1 0.9-1.8 0.8-2 0.2-4.2-0.1-2.3 0.4-0.1 1.2 1 1.8 1 2.4-2.3 0.5-1.6-0.1-1.4-0.5-1.7-0.9 0-1 2.3 0 0-0.9-1.3-0.4-1.6 0.3-1.4-0.1-1.1-1.7 2.4 1-0.6-1.3-0.8-1-2.5-1.7-0.9 1-1.1 0-1.1-0.7-0.3-4.7 0.3-1.8 1.2 1 1.3 0.7 1.1-1.1 0.9-2 0.1-2 2.5 1.4 0.6-0.4-0.5-1.3-0.2-2.2-0.3-0.8-1.6-0.6-0.8-0.5-1.6-0.8-3.9 1-1.8-0.7 1.5-1-1.5-2.9-2.8 1.7-1.1 0.9-0.8 1.3-1.5-5.1-1.2-1.9-1.9-1.8-0.5-0.1-1.3 0.2-1-0.6-0.3-1.4-1.6-0.7-0.4 0.6 0.5 1.1-2.3-1-2 0.3-1.7 1.1-1.7 1.5-0.8-0.9-3.2-2 0.8-2-1.4-0.6-1.3-1.1-0.7-1.1 0.3-1.1-1.1-1.7-1.2-1.2-2.4 1-2.1 1.3-1.3 2.1-0.4 3.5 0.3 0.7 1 1.7 0.2 0.9-0.1 0.9-0.5 1.7-0.1 0.8 0.5 1.6 1.2 1.4 0.6 0.9 0.1 0.7-0.1 2.7 0.2 0.5 1.4 1.1-0.1 1.4-0.7 1.9 0 1.4 5.9 7.1 1 0.7-0.7 2 1.5 0 0 0.9-0.8 0 0 0.9 1.2 1.2 2.7 4.9 0.8 2.5 3.9 7 1.3 1.8 0.5 1.5-1.2 1.4-0.4 1.9-0.2 3.7 0.9 1.7 2.1 0.5 2.3-0.3 1.6-0.5 0.1 0.6 0.7 1.3-0.8 0.5 0.8 0.5-0.8 1 1.9 0.7 0.9 1.2-0.3 0.7-1.7-0.7 1 2.5 3.1 4.5-0.2 1.6 0.9 2.4 0.6 2.5-2.3 0 1.1 2.2 0.7 0.2 0.5-0.4 0.4 1.3 0.1 1.2-0.1 1.1-0.4 1.2 1.1 1.8 2.3 5.7 0.8 1.2-0.3 1.1 1.5 2.5 3.1 3.2 0.7 1.5 0.3 1.6-0.5 1.2-1.2 0.5 0 0.8 2 0.3 1.7 0.8-0.4 1.1-1.3 0.9-0.6 1.7 0.1 1.6-0.6 1.5-1.5-0.1-1.6-1-1-0.9-1 1.6-1.4 1.4-0.6 1.4 1.5 1.3-0.8 2 3.1 0-2.8 2.5 0.1 3.6 1.7 3.7 2.2 3.6 1.2 2.5 0.4 0.4 2.3 1 1.3 1 2.1 0.9 0.7 1.4 0.5 0.5 1.1 0.1-1.6 1 0 0.9 0.7 0.8 0.1 0.7-0.5 0.7-1 0.6 1.9 2.9 3.4 2.1 2.4 2.2-0.8 3.3-3.9-1.9-1.1 1.5-1.4 0.2-5-1.2-1.1-1.5-0.8-1.6-1.3-1.2 0-0.9 0.6-1.8-0.8-2.3-1.6-1.9-1.7-0.7-4.8 1-2.3 0.1-1-1.6-0.5-2.3-2.5-5.4-0.9-1.4-1.3-1.3-4.8-3.5 1.6-1.7-0.5-1.6-4.7-4.4-0.6-0.2-0.5 1.1-1.6 1.9-0.4-0.7-0.2-1.3 0.6-3.3-0.2-2.1-1-3-0.8-5.1-1.6-2.5-2.5-1.5-3.2-0.7-5.7-0.1-7.1 0.9-5.1 2.8 0.2 6-3.7 2.7-1.5 2-0.9 3.1 1.7 0 1.1 1 0.4 1.7-0.1 2.1-0.8 0-0.6-2-0.7-0.7-1-0.2-0.9 0.8-0.6 1.3-0.2 1.2 0.5 0.6 1.9 1.6-0.6 2.8-1.5 1.4-0.9-3-1.7 1-0.6 1.4-0.1 8.3 0.4 3.2 0.7 2.6 2.1 5.6-0.5 0.7 0.5 1.3-1.5 1-0.5 1.4 0.3 1.7 0.9 1.6 0 1-1-0.1-0.3 0.4-0.2 1.6-1.3-1.6-0.4-2.4-0.1-2.6-0.6-2-1.7-1.4-3.9-1.6-1.3-1.9-0.8 0-1.2 1.2-1.1-0.3-1.1-1.1-0.8-1.2-1.1-2.1 0.1-1.5 0.7-1.5 0.6-2 1.9 0.5 0.5-1.7-0.5-2.3-1.2-1.4 0.6-0.7 1.1-2.1-2.4 0 0.3-1.8-0.2-2.2 0.4-1.6 1.9-0.2 0-1-2.2-0.8 0.2-2.4 2-4.6-3.4 0.6-2.1-3.4-1.8-4.4-2-2.4 0.1-2.8-1.7-3.6-7.9-10.9-2.4-1.2-2.8 2.1-3-2.2-1.2-1.4-0.5-2.2 0.8-0.7 0.5-1.2 0.3-1.4 0.1-1.6 0.6-2.8 0.1-3.8-0.2-1-7.6-1.7-4.2-0.3-2.1 0.6-4.2 2.7-4.3 1.2-1.3 1.4-0.6 1.9-1.1 13.5-0.6 1.7-0.1 1.3 0.5 1.6 0.7 1.2 0.3 1.2-0.7 1.7 1.9 1.9 1.2 0.8 1.6 0.2 0 1-1.5 0.1-1.3 0.6-0.7 0.9 0.3 1.2-0.7 1.2-6 5.6-0.9 0-2-4-0.3-0.3-3.5-7.3-2 0.2-1.7 0.4-2.9 1.4-1.3-1.4-2.7-1.1-0.7-1.4-0.7 0-1 0.6-0.6-1-0.6-1.9-0.9-1.5 0.4-1.4-0.4-2.5 0-2 0.3-1.3 1.5-2.3 0.5-1.3 0.1-2.3-0.8-2.1-1.7-1-0.8-0.3 0.1-0.9-1-0.1-0.6 0.4-0.6 1.6-0.8-5-2.9-3.7-3.4-3.5-2.3-4.4-1-5.5-0.3-5.7 0.8-5.1 2-3.9 7.1-5.8 3.1-3.3 1.5-4.6-0.5-5.7-1.1-3.1 1.8-0.9 7.5 1.6 4.1-0.9 3.7 1 2.2-1.2 4-5.2-0.9-2 0.7-1.9 3-3.4 1.8-1.6 2.4 1.9 2.1-0.8 1.1-1.7-3.3-4.1-10.3-8.2-3.7-1.4-2 0.5-1.9-0.3-0.2-15.6-2.3-7 0.6-5.7 6.5-10.7 4-0.9 0.9 4.1 4.1 1.4 3.5 2.5 7.6 3.6 2-0.1 3-3.4 2.1-0.8 3.9 0.2 0.4 2.1 1.8 0.6 2.1-0.8 3-3.4 6.3-2.5 0.8-2.2-0.8-2-1.7-1.9 0.3-3.8 1.1-1.8 0.4-2.3-0.4-2.4 0.7-1.8 8.5-3.7 2.3-1.6 1.1-1.7 0.7-1.9-0.1-1.9 3.3-7.3-2.7-4.8 0.5-4 0.5-1.7 0.7 0.7 3.5 1.4 1.1 0.9 1.2 0.6 2-0.8 8.9 2 12.3 6.6 6.7 2.4 1 1.1 1 0.3 9 8 2.1 3.5 0.6 0.4 2.2 0.6 3.5 3.1 1.6 1.2 1.8 0.3 1.7-0.4 2.8-0.9 2.6 0 0.8-0.4 2.3-3.5 0.2-0.8-1.1-1.6-1.6-1.7-1.3-0.8-1.8-0.6-2.8-2.2-2-0.2 0.7-0.7-3.7-0.2 2.4-2 1.1-0.7 1.5-0.3 1.4-0.6 2.5-2.6 1.1-0.7 3 0.2 5.5 2.4 2.3-0.7 3.3 1.6 0.9-0.1z" id="GRC2885" name="Peloponnisos" data-id="GRC2885" data-name="Peloponnisos">
 </path>
 <path d="M336.4 528.6l-0.5 1.7-0.5 4 2.7 4.8-3.3 7.3 0.1 1.9-0.7 1.9-1.1 1.7-2.3 1.6-8.5 3.7-0.7 1.8 0.4 2.4-0.4 2.3-1.1 1.8-0.3 3.8 1.7 1.9 0.8 2-0.8 2.2-6.3 2.5-3 3.4-2.1 0.8-1.8-0.6-0.4-2.1-3.9-0.2-2.1 0.8-3 3.4-2 0.1-7.6-3.6-3.5-2.5-4.1-1.4-0.9-4.1-4 0.9-6.5 10.7-0.6 5.7 2.3 7 0.2 15.6 1.9 0.3 2-0.5 3.7 1.4 10.3 8.2 3.3 4.1-1.1 1.7-2.1 0.8-2.4-1.9-1.8 1.6-3 3.4-0.7 1.9 0.9 2-4 5.2-2.2 1.2-3.7-1-4.1 0.9-7.5-1.6-1.8 0.9-0.8-2.4-7.6-14.7-4.3-6.6-2.1-2.2-9.8-7-2.3-1.2-1.2-1.3-2.2-2.9-1.2-1-6.6-2-2.2 0.6-0.6 3.9-0.7 0-0.2-1.4 0-1.4-0.3-1.2-1-1 1.4-2.9 0.4-2.3-0.4-2.4-1.8-6.5-1.2-1.9-1.6-1.2-4.9-2.6-11.8-3.6-1.1-0.9-0.6-1.7 0.5-2.2-0.6-1 3.1-9.8 0.7 0 2.7 2.4 4.9-2.4 5-4.3 2.9-3.5 1.6 0.5 1.3-0.8 1.3-1.5 1.2-1.1 0-1.1-0.8-0.9-1.1 0.5-1.1 0.7-1.7 1.6 5.1-7.8 0.2-0.9 4.1-6.4 0.5-1.5 0.2-1.8 0.2-8.6-0.1-2.4 1.2 1.4 1.5 2.6 1.1 1-0.2-3.2 1.6 0.9 2 0.2 2.4 0.1 1.6 0.6 5.6 4.3 8.9 2 2.2-0.4 2.3-1.1 3.6-2.5 3-3.7 4.5-9.2 2.6-3.8 8.6-5.4 1-1.1 7.4 1.6 2.5-0.1 1-0.2 1.1-0.6 1.1 0.9 1.4 1 1.6 0.7 1.7 0.2 1.4 0.5 0.8 1.3 0.4 1.7 0.8 1.5 1.3 1.1 3.3 1.6 1.2 0.2 0.9-0.1 1.3-0.7 0.6 0 1.7 1.6 0.9 0.3 0.7 0.8 1.2 3.6 0.8 1.5 1 0.5 4.1 1.4 1.4 1.7 0.9 0.3 3.5 0 4.8 1.2 1.4 0.8 2.1-1 1.7 1.2 1.2 1.1z m-57-32.3l-0.6-1.1-0.6-0.5-1.1 0.4-5.5 4.7-0.8 1.6-0.4 2.7-1 0.8-2.2-1.4-3-2.9-6.6 0-1.8 0.5-1.6 0.9-1.6 0.5-1.5-0.9-7.3 5.3-1.3 2.6-0.7 0-1-0.9-1.6-0.3-2.1-0.2-0.7-1-4.6-2.5 1.9-0.5 1.8 1 1.6 1.5 1.6 1 0-1.1-0.8-1.1 0.1-0.6 0.7-1.1-1.6-1 0-1.1 1.6-1-2.2 0 0.6-1.9-1 0.5-0.9 0.2-0.9-0.1-0.9-0.6-0.7 0.5-1.6 0.5 0.7-2.8-1.4-1.5-2.3-0.6-2.1-0.1-0.8-1.3-1.1-8.6-2.4-2.8-1.3-1-0.6-0.3-1.5 0.3 0.4 1.1 4.6 7.7-1.6 0 0.8 1-0.4 1.5-0.2 1.6-0.5 1.3-0.8 0.5-1.1 0.3-2.4 1.2-0.8 0.6 0.3 0.6 0.6 0.3-0.9 1-1.5-0.9-0.9 0.4-0.4 0.9 0.7 1-0.8 1.1-1.7 1.5-1.2 0.8-0.8 0.2-2.2-0.1-0.9-0.6-0.9-0.8-0.8-0.2-1 1.6 1.3 0.9-1.1 0.7-0.9 0.8 0 1.6-2.2-0.2-0.7-1.5-0.4-1.8-0.6-1.4-1.3-0.5-3.5-0.1-1.4-0.4 1.3-0.6 1-0.8 0.4-1-0.3-1.6-1.1 0.6 0.5-1.8 1.4 0.8 1.3-0.8 1-1.3 0.7-1.5-2-1.6-0.9 0.1-0.9 1.5-1.3-0.6-0.9-1-0.6-1.5-0.3-1.8 0.5-0.4 0.2-0.6 1.1 1.4 1.3 0.7 1.1-0.4 0.4-1.7-1.5 1 0.5-1.9-1.1-2.6 0.6-1.4 0-1-1.1 0-2-0.9 1.5-0.9 0.8-0.1-1.6-1.1 1.1-2.3 0.3-1.2-0.2-0.8-1-0.7-0.9 0.6-0.9 1-1 0.5-0.4 0.5-1.3 1-1.2 0.7-0.6-0.7-0.3-1.3-1-2.1-0.3-1.5 0.9-5.9 0-3.1-2.4-2.6-1.7-5.5-1-1.2-4.4 0-1.6-0.6-1.3-1.4-0.8-1.7-2.7-11.7-1.1-2.3-1.6-1.2-1.6 0.6-1.7 1.7-1.3 2-0.8 1.6-0.9-1.6-0.6 0.3-0.7 0.7-0.9-0.2-1.2 1-0.5-0.5-0.2-1.4-0.4-1.1-3.9-3.1 0-0.9 0.9-1.9 0.5-2.6 0.9-2.4 2-1 2.4 0.1 1.3-0.1 0.6-0.5-0.4-0.9-0.9-0.8-0.9-0.6-2.4-1.2-1-2.2-0.2-2.6 0.4-2.2 1.4-2.7 0.6 1.1 0.7 2.4 1.8 1.2 2.2 0.7 2.1-1.1 1.6-2.1 1.1-2.4 0.8 0 0.5 1.9-0.5 1 0.6 0.6 0 0.5-0.6 0.9 2.3 0 1.9-0.2 1.3-1.2 0.6-2.6 0.7 0 1.1 1.5 1.2 0 1.4-0.4 1.7-0.1 1.6 0.6 1 0.7 1.3 0.6 2 0.2 0.3 0.9-0.4 2.1-0.1 2 0.9 0.9 1.6 0.4 1.5 1 2.7 2.6 0.2-1.3 0.2-0.8 1.2-1 0-0.9-0.9-1.8 1.2-0.9 2.1 0 1.8 1.2 2.7 3.1 0 0.4 1.4 0.7 0.5-0.4 0.4-1.4-0.9-0.8-0.4-0.7-0.3-2.1-0.9 0-0.5-0.4-1.4-2.5-0.2-1.6 0.8-1.8-0.6-1.2 0.4-1.3 0.8-0.8 0.9 0.4-0.1-3.4-2.7-3.8-5.7-5.7-0.8 0.9-0.4 1 0 1 0.5 1-1.5-0.6-0.6 0.2-0.2-1.7 1.2-3.8 1.9-1.7 2.1-0.8 14.1-0.3 2-0.5 4.4-2.1 6-5 2.5-0.8 0.1 4.8 2.9 4 0.9 2.1-0.7 1.9 0 2-2.9 5.5 0.5 2 11.3 6.9 0.8 2.5-0.7 3.9 0.5 2 1.8 1.5 1.9 0.3 1.8 1.5 6.1 1.3 3.7 1.8 0.1 2-6.5 3.3-1.9 1.7-0.8 2.2 0.1 2 1.7 4.2 1.7 1.9 6.1 4.1 3.6 1.7 4 0.3 6.1-1 1.3 2.1-0.4 2 2.5-0.4 4.1-3.3-0.1-4 0.7-1.9 5.9 0.6 4.3-2.1 1.9-1.6 4.7-2.1 0.2 1.3 4.4 2.6 0 2-1.8 3.7 0.5 4-1.4 3.7 0.4 4.4-1.5 1.8 0.1 1.9 3.3 3.7-1.8 4.1 0.4 4.4-1.1 1.8-2.2 1.2-4.1 0.9-4.6 4-2.4 4.3 0.4 2.8-0.8 2.4z" id="GRC2886" name="Dytiki Ellada" data-id="GRC2886" data-name="Dytiki Ellada">
 </path>
 <path d="M268.8 125.3l0.7 5.2 3.9 1.8 1.7 1.9-0.3 2-2 1.7-2.2 0.9-4.2 1-4.1-0.3-0.8 2 1.8 1.9 1.7 6.8 1.3 2.2 3.9 1.4 0 2.1-2.7 6.5 2 0.7 2-0.1 4.7 1.6 2.1-0.1 1.8 1.1 2.5 0-2.8 6.5 0.2 4.1 3 4.1-1.5 3.8 0.1 2.1 1.8 1.5 2.4 4.8 1.8 1.9 4.1 1.9 3.7 2.6 0 2.1 1.9 1.1 6.3-1 0.9 2.2-0.4 1.9 0.5 2.1 3.8 4.3 0.5 4.1 1.2 2.3 5.3 2.5-1.8 3.3-0.3 4.4-1.6 1.8-4.4 2.1-0.8 2.3 0.3 2.8-2.6 3.3-1 3.8-3.4 5.5-5.4 5.6-1.1 3.9-2.3 4-4.5 2.5-5.3 5.2-2.3 1.6 3.7 2.2 0.8 2.2-0.3 2 0.9 4.1-0.3 2-1.5 1.3-5.9-0.9-8.4 1.9-4-0.3-11.3-2.9-16.7-2.2-4.3 1.7-2.3 1.6-2.6 3.7-2.2 1.2-4.7 1.7-2.1 0.1-1.4-1.4 0-2-7.5-4.4-4-0.2-6.3 1.5-4.3 1.7-1.9-0.7-2.2-4.3-1.5-8.3-3.5-3.3 3-6 0.2-4.4-1.7-1.5-4.4 2.2-3.1-4.1-1.4-6.2-1.8-1.5 2.8-5.2 0.4-2.4-1.5-6.2-3-6.6-4.8-5.9-2.2-6.8-1.7-2.3-4.2 1-1.5 1.8-2.2 1.3-2.1 0.1-1.3-1.1-0.4-0.5 1.7-4.3 1.3-2.4 0.5-1.2 0.3-1.8 0-1.5-0.5-4.1 0.2-1.4 1-1 2.3-0.6 1-0.5 0.9-1.5 0.5-1.5 0.6-1.2 1.5-1 3-0.1 2.6 1.2 2.5 0.7 2.8-2 1.1-1.5 0.7-1.6-0.1-1.8 0.7-1.3 1.2-0.9 1.4-0.4 0.8-1.5 1-0.8 1.1-0.6 0.7-0.9 0.6-1.5 0.5-4.1 1.2-5.1 0.3-2.8-0.1-2.9-0.7-2.6-0.9-1.5 7.3-4.2 1.5-1.4 0.5-1.3 2.2-3.6 0.8-0.7-0.2-0.9-1.4-4.5-0.3-1.8-1.8 0-1.4 0.5-1.2 1.1-1 1.4-1.3 1-0.4 0.7 0.5 0.9 2.9 2 0.5 0.7-0.8 3.4-2.9 3.1-3.6 2.3-0.6 0.3-2.6-3.2-3.2-3.1-0.5-1.1-0.2-1.2-0.4-1.1-1.1-0.9 1.9-2.3 0.5-2.2 4.9-3.2 1.7-4.2 0.7 0 2.2 0.1 1.5 0.9 1 1.4 0.8 1.8 3-2.8 1.1-1.7 0.3-1.2 7.3-2.2 3 0.1 5.8 1.3 3.9 0 3.8-0.9 1.8-1 4.1-4.1 2.6-1.2 2.8 0 9 1.2 5 4.5 3.1 0.6 1-0.6 2.6-2.6 1.2-0.9 0.6-0.1 1.6 0 0.6-0.2 0.4-0.8 0.3-1.9 0.2-0.6 3.2-1.5 5.8 1.4 2.3-0.5z" id="GRC2892" name="Dytiki Makedonia" data-id="GRC2892" data-name="Dytiki Makedonia">
 </path>
 <path d="M534.3 396.7l1.1 0.8 0 1.3-1.2 0.6-1.4-0.3 1.1-1.3-0.9-1-0.4-2.3 0.5-1 0.6-0.4 1-0.1-0.3 1 0.4 0.7-0.5 2z m-67.7-14.7l-0.9 2.8-1.8-1.4-1.6 1.6-1.6 3.8-0.9-0.2-0.9-1.3-1-0.6-1.2-0.3-1.2-0.2-1.2 0.1-1 0.4 0.4-2.5 1.4-1 1.4-0.3 0.7-0.5 0.5-1.6 1.2-1.7 1.5-1.4 1.4-0.8 1.8 1.1 1.9 1.7 1.1 2.3z m10-4.4l1.4 0.2 2.7 2.9 3.1 2.6 3.5 2.1 3.8 1.3-0.4 2.2 2.1 0.3 3 0 2.3 0.7 0 0.9-3.7 4-2.1 1.5-2.8 0.4-1.1-0.3-1.6-1.4-3-0.5-0.9-0.7 0.1-1 1.2-1 0-1-1.2-0.7-3.5-3.5-0.7-1.3-0.5-1.9-3.4-5.6 1.6-0.9 0.1 0.7z m33.1 6.9l-3.5 2.5-3.5-0.3 1.5-2 1.6-1.3 1.3-1.6 1.9-5.4 5.7-9.1 1.9-1.4-0.4 1.5-0.4 0.6 2.5 0.4-0.6 3.1-1.9 3.2-1.5 1.1-1.7 4.5-2.9 4.2z m19.5-27.9l0.1 1.1 1.3-1 1 0.5 0.5 0.5-0.1 2.3-1.3 3.7-2.2 1.1-1-1.2 0.1-1 0.5-0.4-0.4-0.6-1.1-0.6-0.5-1.1 0.4-1.6 0.7-1.5 0.8-1.4 1-0.2 0.2 1.4z m29.4 0l-1 3.3-1-0.6 0.6-3.2 0.6-1.8 0.9 0.7-0.1 1.6z m-17.2-4.4l-2.7 3.1 0-0.6-1.2-0.7 0.2-0.9 0.9-1.2 0.3-2.2 0.3-0.8 1.1-1.2 0.6-1.9 0.4 0.5 0.8 4.4-0.7 1.5z m-165.3-80.8l1.5 5.5 0.8 1.8 1.2 1.6 4.3 3.7 2.5 1.4 1.6 1.6 2.8 3.8 1.1 1.9 1 2.5 0.7 2.9 0.2 3.2 0.5 2.3 3.4 8.4 2.7 8.6 1.6 2.8 1.5 1.6 5.8 3.8 5.8 2.4 4.3 3.4 0.9 1 1.3 4.4 1.3 1.8 9.7 11 1.4 3 5.4 5.2 2.3 7.9 5.7 11.1 0.1 1.9-1.2 0.7-3.6 3.4-2.2 0.7-4.3 0.7-2.1 0.6-1.7 0.8 1.6 1 0.7 0.1 0 0.9-1 0.3-0.8 0.5-1.2 1.2-1.3-0.5-2.5 0.2-2.6 0.7-1.7 1.1-1.8 0.8-2.6-0.1-4.5-1.2 1-2.1 1.3-1.8-0.6-2 1.5-1.3 3.7-1.8 0 1.9-1.5 6.1 8-4.4 1.2-1.7-0.7-1.3 0.6-0.5 1.1 0.1 0.6 0.3 0.3 0.7 0.8-0.9 0.8-1.6 0.5-1.6-0.6-1.6-2.9-5-1.2-1.4 0.5-2.4-1.3-2.6-2-2.3-1.8-1.8-2.2-1.5-1.9-0.7-8.8-0.8 0.1-1.2-2-3.9-0.6-0.7-0.8-0.1-3.1 0.1-2.5-0.7-0.6 0.2 0.8 1.4 0 1-1.2 1.2-0.4 1.7 0.4 1.8 1.2 1.3-2.7 0.6-4.4 0.5-4.2 1-1.9 2.4-0.2 5.6 0.2 1.8 3.2 9 0.6 0 0.9-1.5 1.5-1.4-0.5-1.6 0.6-0.1 0.9 1 0.6 1.7 0.7-1 1.1 2.3 0.4 2.9 0.6 2.7 1.8 2 0-0.7 0.8-0.3-0.8-2 2.8 1.9 1.4 2.4 1 2.6 1.8 2.1-0.7 1.8 0.7 1.2-3.6 2.1-0.8 1.4 0.5 2.3 5.8-3.5 3.1-1 3.4-0.3 0 0.9-0.9 1.1-3.7 1.9-1 1-0.5 1.1-0.8 2.9-0.5 1-1.2 1.5-3.4-1.5-4.4 2-6.5 0.5-3.4-3.4-1.9-0.7-4.1 0.5-6.1-1.9-2 0.1-7.1-4.8-2.3-0.8-8.6 0.9-4.3-0.3-1.8-1.1-0.9-2.1-0.4-6.5 0.6-3.5-7.4 0.8-1.7-1.5-0.9-6.5-1.7-1.5-4-2.6-7.9-3-5.5-3.2-10 11.5-3.4 8.1-2.3 2-4.2 0.9-2.2 1.3-3 3.5-4.8 2.4-4.2 0.9-1.9-0.3-0.5-2.1 0.7-1.9-0.5-4-1.6-2.3-3.8-1.4-3.9-3-2 0.1-6.4 4.5-2.1 0.9-2-0.3-1.7-1.5-0.9-2.1 1.1-3.8-0.9-2.1-3.6-2.2-0.6-6.1-0.9-2.1-1.8-1.5-9.6 2.5-2.3 1.6-0.7 1.9-1.9 1.7-3.5-2.9-2.1 0.4-4.1 3-5.3 5.5-1.5-0.6-2.9-4.4-0.4-2.5 5.9-11.4-1.7-4.2-2.7-3.2-2.1 0.4-5.9-0.9-3.9-3-1.6-5-5.4-4.4-0.8-2.5 0.4-2.3-0.8-2.5-1.6-2.3 0.3-1.9 1.4-1.8-0.9-4.1 0.6-3.9-1.2-2.2-1.9-0.7-1.7-2.3-0.2-4-1.3-4.6 1.5-1.8 2.3-1.2 4.4 0.2 1.7 1.5 2.1-0.1-0.2-4-1.8-8.7 0.7-1.9 1.1-2.2 2.3-1.3 1.1-1.8 2.1-0.9 3.1 0.9 1.4 1.4 2.1-0.1 4.7-1.7 2.2-1.2 2.6-3.7 2.3-1.6 4.3-1.7 16.7 2.2 11.3 2.9 4 0.3 8.4-1.9 5.9 0.9 1.5-1.3 0.3-2-0.9-4.1 0.3-2-0.8-2.2-3.7-2.2 2.3-1.6 5.3-5.2 4.5-2.5 2.3-4 1.1-3.9 5.4-5.6 3.4-5.5 1-3.8 2.6-3.3 0.9 2.2 1.1-1.8 2.3-1.3 5.9 1.4-0.4 2-1.1 1.8 0.4 2.1-0.4 2.3 0.9 2.2 1.9 0.7 2.4-2 2.2-3.7 2-1.7 4.7-1.6 3.7 2.2 0.9 2.2-0.3 6.4 1.3 4.2 3.4 3.8 7.6 5.3 2.5 4.5 3.4 3.4 4.2 1.5 9-2.5 2 0.3 1.7 1.6 5.9-1 1.2-0.3z" id="GRC2900" name="Thessalia" data-id="GRC2900" data-name="Thessalia">
 </path>
 <path d="M216.3 290.6l-3.1-0.9-2.1 0.9-1.1 1.8-2.3 1.3-1.1 2.2-0.7 1.9 1.8 8.7 0.2 4-2.1 0.1-1.7-1.5-4.4-0.2-2.3 1.2-1.5 1.8 1.3 4.6 0.2 4 1.7 2.3 1.9 0.7 1.2 2.2-0.6 3.9 0.9 4.1-1.4 1.8-0.3 1.9 1.6 2.3 0.8 2.5-0.4 2.3 0.8 2.5 5.4 4.4 1.6 5 3.9 3 5.9 0.9 2.1-0.4 2.7 3.2 1.7 4.2-5.9 11.4 0.4 2.5 2.9 4.4-2.5 0.8-6 5-4.4 2.1-2 0.5-14.1 0.3-2.1 0.8-1.9 1.7-1.2 3.8 0.2 1.7-0.6 0.2-2 2.3 2.4 1.8-6.2-0.9 0-0.9-1.4-0.4-1.3-0.9-1.6-1.3-1.3 0.8-1.1-0.7-0.7-1.3-0.3-1.3 0.5-0.6 1-0.3 0-1-0.8 0-1.1 0.7-1.3 0.1-1.2-0.6-0.9-1.3-0.8 0-0.7 1.5-2 1.1-0.4 0.9 0.5 1.5 1.2 0.3 0.5 0.7-4.7-0.1 1.7-0.8-0.2-1 0-1.4-0.3-1-1 0.4 0-2.1-1-0.1-0.6 0.2 0.7-2.2-0.5-2.4-1.3-0.9-1.2 1.5-0.7-1-0.5 1-0.6 0.8-0.9 0.6-1.2 0.6 0 1 1.7 0.4-0.5 1.2 0 1.7-0.4 1.7-0.8 1.1-1.7 1.3-0.5 1.6-1.6-1.1 0.2 2.1 1.4-0.1 5.2 4.4 2.2 1.1 0.7 1 0.3 1-0.4 0.5-1-0.3-2-1.2-3.3-1.1-0.7 0.1-1 0.5-0.1 0.6-1.1 1.7-1.3 1.2-0.7-1.1-0.3-1.3-1.6-1.8-0.5-1.7-0.6-1.1 0.2-1 1.1-1 0.2-0.5-1.1-4.8-2.2-3.5-3-2.5-3.6-2.1-3.6-2.8-8.8-11.2-3.3-2.3-1.1-1.3 0.4-1.3-0.6-1.3-0.2-1.7 0.1-1.7 0.7-1.2 0-1.1-1.3 0.6-1.2 0.2-0.8-0.5-0.5-1.3-1.7 0.9-1.6 0-1.5-0.8-1.4-1.2-3.1 1.3-4.6-2.3-3.6-4.3-0.3-4.6-1.5-1.4-0.8-1.9-1.3-1.4-2.5-0.3 0-1 0.7 0 0-0.9-0.9-1.2-1.2-2.3-0.9-0.6 1.9-0.6 2.3 0 1.6-0.4-0.4-2-1.1-1.2-4.3-2.9 0-0.9 1.9 0.1 1.4 0.4 1.1-0.1 1-1.4 0-1-1.2-0.8-1.9-1-1.6 0 0 1.8-1-0.9-1.3-0.8-1.2-0.2 1.2-1.2-2.1-0.5-2-0.2-1.8 0.2-1.8 0.5 0.9-1.1 0.5-1.4 0.2-1.6-0.1-1.8 0.8 0.9 0.8 0 0.8-0.8 0.7-1 0-3.1 1.6-0.9-0.7-3-1.9-1.3-1.9-0.6-0.9-0.7-0.4-0.6-1.8-1.5-1.8-0.7-1-0.7-0.8-1-5-1.2-2.6-1-1.3-0.8-1.1 0 1.8-1.2 3.8 1.3 4.4 1.5 5.2 2.7 3.2 2.9 2.3 1.1 1.8-0.5 0.4-0.8 0.1-2.2 0.9-0.9 0.9-0.4 0.9 0 1 0.4 1 0.6 0.3-3.2 1.7-1.7 2.1-1.2 1.6-1.9 0.3-1.6-0.3-0.8-0.6-0.6-0.7-1.7-1.1-1.6 0.9-2.2 0.1-0.7-0.3-1.2-0.7-0.6-0.3-0.6 0.8-1.1 1-0.4 1.1 0.2 4.3 1.7 2 1.2 1.9 0.2 2-2.1 0.9-2.9-0.5-2.5-5.1-8.7-2.7-2.6-0.6-0.9-1.7-8.9-0.6-1.2 1.4-0.4 5.6-0.2 1.9-0.4 0.5-2.6 0.9-2.6 1.3-2.4 1.5-1.7 2.1-1 3.8 0.4 1.7-1 2.1-0.5 6 0.9 2.8-0.3 7-3.4 0.8-0.5 0.5-1.1 1.7-4.8 0.1-0.6-0.5-2.8 0-0.7-0.4-1.6 0.1-1 0.5-0.8 1.6-0.5 0.7-0.5 1.2-3.5 0-3-0.2-3 0.5-3.3 0.9-1.5 1.2-0.8 1.3-0.7 0.9-0.8 0.3-0.8 0.4 0.5 1.3 1.1 2.1-0.1 2.2-1.3 1.5-1.8 4.2-1 1.7 2.3 2.2 6.8 4.8 5.9 3 6.6 1.5 6.2-0.4 2.4-2.8 5.2 1.8 1.5 1.4 6.2 3.1 4.1 4.4-2.2 1.7 1.5-0.2 4.4-3 6 3.5 3.3 1.5 8.3 2.2 4.3 1.9 0.7 4.3-1.7 6.3-1.5 4 0.2 7.5 4.4 0 2z" id="GRC2949" name="Ipeiros" data-id="GRC2949" data-name="Ipeiros">
 </path>
 <path d="M782.7 604.1l-10 9-1.9 0.8-9.7 1.4-2.2 0.9-1.2 0.9-2.2 2.2-1.2 0.8-1.1 0.4-3.1-0.4-4.4 1.2-1.7-0.4-0.5-2.7 0.9-1.9 3.7-3.8 0.8-1.6 0.8-2 1.7-2.3 2.1-2 1.6-1 2.8-0.2 6.4 0.9 2.4-0.7 2.3 0.8 3.3-1.1 3.1-1.7 2.9-3.4 3.7-1.1 5.5-0.4-2 3.8-2.8 3.6z m71.6-17.5l1.2 1.3 0.5-1.5-0.7-1.3-1.1-1.3-1-1.7 1.8 0.6 1.4 0 1.1-0.6 1.1-1.1 0.1 1.8 3 0.9 5.3 0.4-3.2 1.5-0.6 0.4-0.2 1.2 1.1 2.1 0.6 1.6 1.3-1 0.7 0.7 0.2 1.5-0.7 1.7-2.7-0.9-4.1 0.9-10.2 4.1-1 0.6-1.3 1.2-0.6 1-0.6 1.3-1.1 0.6-0.9 0.2-7.2-0.2-1.1-0.3-0.4-0.9-0.3-1.1-0.5-1.1-1.8-3-1.1-1-2.7-0.7-1.2-1.4-0.9-0.3-1 0.2-1.8 0.6-3 0.4-1.8 0.8-1.4 1.3-0.6 1.7-0.9 0 0-1.1-0.7 0-1.2 1.3-1-1.4-0.7-2.4-0.2-1.8-0.1-3.5 0.4-1.6 1.2-1.3 2-0.6 2-0.3 1.5-0.7 0.7-1.8 0.9-1.1 12.9-3 3.8-0.1 4.1 0.8 1.5 0.9 2.9 2.5 4 1.1 4.3 2.9z m-74.6-105.5l-0.3 0.3-0.8-0.3-0.5-0.5 0-0.7-0.4-1.4 0.5-0.5 1 1.2 0.6 1.2-0.1 0.7z m-9.1-5.8l1-0.1 1.1 0.2 1.2 1 2.5 0.9 0.5-0.1 0.2 1.1-0.8 0.4-1.1 1.2-1.2-0.6-2.7-0.8-1.1-0.6-0.8 0-0.3-1-1.6-2.3 0.1-0.5 2.1 0.2 0.4 0.2 0.5 0.8z m-77.6 0.2l-0.6 0.5-1.2-0.2-0.7 0.1-0.8-0.4 0.2-0.5 1.4-2.4 1.1 0.1 0.6 0.9-0.2 1.3 0.2 0.6z m61.2-7.3l4.7 5.8 0.8-1.8 0.7-0.1 0-0.9 1-0.7 1.5 0.4 1.2 1.2 1 1.9-1.4 1.8-0.2 2.9-0.5 2.5-2.6 0.8 0.9 1.3 1.5 0.6-0.7 0.9 2 0.1 0 0.9-1.3 2.1-0.4 2.2 0 1.8 1.2 10.8 1.5 5.9-2.9 0.4-2.7 2.2-1.3 3.2 1.1 3.5 0 2.2-2.7 1.4-5.4 1.8-0.9 1.5-0.7 3.2-0.7 1.1-1.1 0.4-2.3-1-1.6-0.3-1.2-0.9-2.5-3.3-0.9-0.1-1.1-1.1-1.1-1.7-0.5-1.7-2.3 0.9 0-3.9-1.9 1.2-0.8-0.9 0.2-2 1-2.2 1.1-1 1.4-0.5 2.1-0.5 0.6-0.4 1.3-1.5 2.8 0.2 0.6-0.2 0.7-1.7 0.1-1.8 0.5-1.5 1.8-0.9-0.6-1.6 0.3-3.5-0.6-1.3-0.7 0.4-0.5-1.1-0.7-0.8-0.8-0.6-1-0.4 0.6-1.3-0.1-2-0.6-2-0.7-1.6-1.4-1.4-1.2-0.5-1.5-0.3-2-0.8-1.6-1.3-3.6-4.6-1-1.9-0.2-2.3 0.6-1.6 0.8-1.5 0.4-2.1 16.5-3.4 2.3 0.3 5.4 1.7 0.3 1z m-53.8-4.1l0.7 1.1 3.1 2.9 0 0.7-0.9 0.3-0.8 5.1-0.3 0.9-1.5-0.3-1.2-0.5-1-0.1-1.3 0.9-0.3-1.3 0.5-1.8-0.2-0.9-0.4-0.7-1.3-1.3-0.6-1-1.3-1.1-0.6-0.8 0.3-1 0.8-0.4 0.7 0.3 0.8 1.1 0.7-1.1 0.9-0.7 0.8-0.1 0.8 0.9 0.7 0 0-1.1 0.9 0z m92.7-102.8l-3.6 5.6 0.3 0.8 4.7 4.6 3.8 1.6 1.4 1.3 3.9 5.9 1.5 1.3 2.4 1.4-1.5 1 0.5 1.3 0.8 1.1 1 1.1 0.1 1.5 0.3 0.8 0.7 0.4 1.3-0.2-0.2 2.9 1.5 3.3 2.1 2.7 1.6 1.1 0 1.3-0.3 2.5-1.4 1.6-3.3-1.4-1.9 1-1.3-0.7-1.1-1.3-1.2-1.1 0.8-0.9-1-0.8-0.1-0.7 0.4-2 0.7-1.6 0-0.9-1.3-1.1-1-2.6-1.9-0.7-3.8 0.4-2.1 1.1 1.8 2.5 4.4 3.4 4.2 6.1 2 1.7 0 1.1-0.2 0.6 0.2 1.4-2.9 1.3-3.6 0.9-7.3 0.8-1.9-0.3-3.6-1.4-4.1-0.6-1.5-0.7-2.8-2-2.8-1.3-6.6-1.5-5.8-0.2-1.2-0.4-1-1-3.5-5-1.2-1.2-1.9-0.4 0-0.9 0.7-0.2 0.9-0.8 0.8-0.3 1.4 0.3 4.4-1 0.5-0.5 1.8-3 1.2-0.9 1.2-0.2 1.3 0 1.3-0.4 3-3 3.4-2.5 0.1-0.4 1.2-0.7-0.4-1.4-1.1-1.4-1.2-0.6-3.6-0.9-1.4-0.1-2.4 0.3-1.9 0.5-1.6 1-1.4 1.7-1.7 4-0.3 0-5.1 7.3-1.7 1.5-2.1 0.7-2.3-0.4-9.6-3.5-1.6-1-1.6-1.3-1.1-0.6-1.5-0.2-2-0.9-3.9-3.9-2.2-1.1 0-1.1 1.3-0.5 0.4-1.3 0.2-1.7 0.4-1.5-0.5-0.1-1-0.9 0.9-0.6 0.4-0.6 0.2-0.9 0-1.4 0.4-1 0.9-0.6 1.8-0.8 3.2-3 0.7-1.1 0.8 0 1.3 3 3.7-0.3 4.2-1.2 3.1 0.6 1.2-2.1 0.3-0.9 0.6 1.3 0.2 0.7 0.7 0 1.4-2 2.4-1.1 4.8-0.8 2.9-1.1 1.1-1.7-0.1-2.6-0.9-3.7 20.3-0.6 2.1 0.6-0.8 3.2 2.1 1.4 3 0.8 1.9 1.6-0.6 1.4z m-160-21.3l-0.7 0-1.3-7 0.3-3.3 2.4-1.9-0.3-1.1 0.2-0.6 1.8-0.2 3.9 2.7-0.8 3.6-5.5 7.8z m50.2-81.4l0 0.9 0.5-0.1 0.5 2 0.2 1.5 0.2 0.7-2.6 1.5-2.8 2.1-1.8 2.9 0.4 3.6-1.6 0-1.2 0.4-1 0.6-0.8 1 1.5 0.9 0.8 0.1-1.7 1-1.3 1.3-0.2 1.4 1.7 1.3-1.4 1.6 0.6 1.6 1.4 1.5 0.9 1.3 0.1 1.1-0.6 0.1-1 0.9-0.3 2.5-0.4 0.8-1.9-1.3-3.2-1-1-0.7-0.2-1.3 0-1.4-0.3-0.6-2-0.8-1.8-2.9-2-0.3 2.6-1.9 1.4-1.4 0.6-1.3-0.5-2.1-1.3-1.5-1.5-0.7-1.3-0.2-4.7 4 1.9 0.1 1.2 0.9-2 0.4-1.5 1.4-1 2-0.9 2.2 1.2-0.6 0.4-0.4 1.2 1.6 1.4 2.4 0.8 2.1-0.8 1-2.4-0.2-2-0.4-3.6-1.4 2.5-4.1 0.5-0.5-0.6-1.6-1.2 0.5-1.3 1.4-0.7 1.3-0.8 0-0.1-1.2-0.7-1.8-6.5 2-1.2 1-0.7 0 0.8-1.7 0.5-0.7 1-0.6-1.5-0.9-0.8-0.2 0.1-1.3-0.1-0.7 1.4-1 0-1-0.7 0 0-1 0.5-0.1 0.2-0.9 1-2.2-0.5-1.2-1.1-1.1-0.8-1.6-0.1-2.1 0.1-1.9-0.2-1.4-1.4-0.6 0-1 4-0.2 7.2-1.8 1.1 0.3 1.6 1.7 1.7-0.3 6-1.7 2.5 0.9 1.6 1.7 1.2 2.2 1.7 2.2-0.2 1.2 2.5-1 3-1.8 1.6-1.4 0-1.3 2.4-3.5 1.4-1.2 0.5 0.1 3-0.1 1-0.3 3.1-1.7-0.9 1.5-0.5 0.5z" id="GRC2988" name="Voreio Aigaio" data-id="GRC2988" data-name="Voreio Aigaio">
 </path>
 <path d="M552.7 554.1l-1.4 0.9-1.2-0.4-1.7 0.5-1.2-0.7-0.1-0.8 1.7-3.5 1.3-1 1 0.1 1.4 1.4 0.8 1.6-0.6 1.9z m10.7-123.1l-0.1 1-0.4-0.2-1.2 1.1-1.7-0.9 0.2-1 0.9-1.3 0.4-0.1 1.9 1.4z m22.7-6.5l0.5 1.5 0.6 0.6 1.9 1 4.7 3.3 2.3 2.1 2 3.3 0.4 1.7-0.1 1.2-0.9 0-0.6 0.3-1.4 1.8-0.8 0.2-0.9-1.1-0.8 0-1.1 0.9-1.3-0.5-1.1-1.4-0.4-1.4-2.1 0.7-1.4 1.4-0.3 2.2-3.9-4.8 4.7-2-1.2-4.2-0.7-1-1.3 1.3-0.6 0-0.4-1.7-1-0.5-1.2 0.3-1.4 0.8 0-1.6-2.5-1.1-0.5-2.2-0.8 1-0.9-1.3-1-0.7-1 0.1-1 0.9-0.2-1.5 0.5-1.3 0.8-0.9 0.9-0.3 0.9-0.8 0-1.6-0.6-2.6 0.1-2.1 0.4-1.9 1.1-1.3 2.3-0.6 7.8 5.3 1.5 1.7 0.2 1.4-0.4 3.5 0.2 1.9z m-127.5-1.8l0.9 1.8 0.1 1.6 1.3 2.7 2 2.6 5 2.1 4.9 4.3 2.9 0.7 0 1-0.3 1.1 0.3 0.6 0.7 0 0.8-0.8 1.4 1.5 3.2 0.6 1.6 0.9 1.2-0.8 1.2 0.8 2.1-1.5 2.3 0.5 1.8 1.8 0.7 2.6 1 1.8 2.2 1.6 4.5 2.1 5 1.6 5.4 0.4 2.5 0.6 2.3 0.9 2.1-0.1 2-2.4 2.4 1.2 2.6 0 2.6-0.3 2.4 0.1 7.1 2.6 2.2 1.3-1.2 0.4-1.2 0.9-0.9 1.2-0.6 1.5 0 2.4 0.6 1.4 10.1 8.5 1.7 2.5-2.8 2.2-2.1 4.7-0.4 5 2.2 3 0 0.9-2.1 0.7 0.3 1.2 2.6 3.1 0.2 1.7 0 2.3 0.2 1.9 2.7 3.4 0.2 1.4 1.4 1.5-0.1 2.6 0.1 1.3 0.6 0.9-1.2 1.9-0.3 0.7 0.9 1.9 1.4 1.7 3.1 2.3 3.9 2 0.7 2.2 0.5 1.1 0.7 0.5 3.9-0.7 1.6 0.1 3.1 2.3 4.5 0.5 2 0.8 2.1-1.1 10.2-1.9-1 7.2 0.2 3.6 1.6 3.1-0.9 2-1.2 6.3-1 2.4-1.7 1.4-2.3 1.2-2.5 1-2.4 0.3-1.2-0.3-0.5-0.9-0.2-1.7-2.6-4.3-0.5-0.1-1.6-1.4-3 1.3-1.8 2.2 1.7 1.3 0 1-1.7 1.5-1.7-0.3-1.6-1.2-2.1-2.3-0.6-0.9-0.7-1.8-1.5-1.9 0-0.9 1.5-1.1-1.4-3.2-1-0.9-1.5 0.2-0.7-2.3-1.9-1.3-2.4-0.2-1.9 0.9-1.5-0.9-0.6 0.1-1 0.8 0.1-0.9 0.7-0.2 0-3.8-0.9-0.8-1.9 0.4-0.4-1.1 0.5-1 2.1-2.1 0.6-1.3-0.3-1.8-1.6-2-1-3.7-1.4-1.2-1.8-0.4-1.6 0.3 0.7 2-2.5-0.6 0.5-2.6 2-3 1.6-1.6-1.1-2-0.9 0.1-0.8 1-1.1 0.9-0.3 1.6-0.9 0.3-0.9-0.3-0.1-0.6 0.7-1 0-1.1-1.6 0 2.3-4.9-2.3-1.3-2.4-1-2.8-0.6-3.3-0.1 2.7-0.9 1.2-0.7 0.8-1.4-0.9-1.3-0.2-1.3 0.2-1.2-1.1-2.4-0.8-1-0.4 0.8-6.5-0.5-7.7 1-2.3-0.3-3.9-1.3-1.6-0.3-2.1 0.2-3.5 0.8-1.7-0.1-7.7-1.9-1.7 0.2-3.6 1-1.6-0.2-1.2-1.5-2.7-6.5-0.8 1-0.6 0.2-0.9-0.1 1.1-2.2 2.1-2.3 1.5-2.3-0.9-2.1 0-1 0.9 0 0-0.9-2.4-4.3-1.6-1.9-1.9-0.8-4.9-0.8-2.4-0.9-1.5-1.2-0.4-1.2-0.1-2.5-0.3-1.2-2.7-2.1-0.8-1-0.8-0.2-0.8-0.6-0.3-1.6-0.5-1.1-1-0.9-3.4-2.2-2.8-1.3-3.2-3.5-1.1-0.4-0.7-0.7-1.1-2.8-0.5-0.6-2.6-1.4-11-8.3-3.9-2.1-2.7-0.9-1.5-0.2-1.9 0.2-3.4 0.7-1.6-0.1-1.5-1.2-2.2-2.9-0.9-0.4-1.5-0.1-1.8-0.4-1.8-0.7-1.6-0.5-1.4 0.5 0 1.1 1.6 0.1 1.5 0.6 0.9 1.2-0.1 2.1-1.1 0.8-1.8 0.6-12.3 1.1-2.6 1.5-0.1-1.6 0.2-1.7 0.4-1.3 1.6-1 2.6-1.9 1.1-0.5 2.6-0.6 5.1-2.8 3.4-0.9 3.2-1.7 2.7-1 0.4-0.4 0.5-2 0.3-0.6 1.3-0.4 2.3-0.1 1-0.5 0.8-1.2 0.4-1.4 0-1.3-0.4-1 1.7-0.6 2.1-2 1.1-0.5 7 0 2.4-0.8 5.8-3.5 3-0.5 1.1 0.6 1.7 1.9 0.6 0.5 1.5 0.1 1.7 0.6 1.6 0.9 1.1 1.3-0.8 2.8 1.1 2.1 2.3 1.5 2.3 0.5 0 1.4 1.9 6.7z m-50.2-9.5l-1.3 1.4-0.7 0.1-1.6-0.3-0.9 0.2-1.4 1-0.9 0 0.8 2.1-1.7 0.2-2.2 1.4-1.1 0.3-1.4-0.3-1.5-0.6-1.5-0.4-1.5 0.3-0.5 1.1-0.6 3.2-0.8 0.7-2.8 0.1-0.9 0.6-0.5 1.3-1.6-0.1-2.7 0.7-2.4 0.2-1.1-1.3-0.5-1.2-1.2 0.4-2.1 1.3-1-0.3-1.9-1.4-0.8-0.7-3.9-2.9-1 0.2-2 1.5-1.6 1.4-2.4 0.3-0.9 0.3-0.7 0.6-0.8 1-1.5-1.1 0 4 5.4-0.9 0 0.9-2.2 1.4 1.1 1.8 2.2 0.6 1.2-1.8 0.8 0-0.8 2 1.7 0 1.5-0.5 1.2-0.2 1 0.7 5.5-2.8 1.4-0.1 2.7 4.5 2.4 2.9 1.2 0.8 1.2 1.3 1 0.4 0.9-0.1 2.2-0.8 1.2-0.1 1.5 0.4 1.8 1.2 1.6 1.6 0.8 1.7 2.3-2.3 1.2-0.6 1.9-0.1 1.2 0.6 2.2 2 1.7 0.4 6.3 0.1 2.9 1.1 2 2.7 3.5 11.4 1.6 1.5 2.1 0.3 1.1-0.5 1.3-1.3 1.3-0.6 1.4 0.1 1.5-0.2 1.6-1.8-2.2-1.5-1-0.4 2.1-0.9 2.1 0.4 3.7 2.4 1.8 0.7 3.7 0.5 2.2 0.8 1.6 1.3 1.2 1.9 0.5 2-0.3 1.8-1.3 1.4-1.7 0.8-1.5 1.4-0.9 3.3 1.2-1.7 1.3-0.1 1.4 1 1.1 1.3 1.3 1 3 0.8 1.6 0.7 0 1-1 0.3-2.6 0.1-1.1 0.5-0.9 1-0.3 1 0.6 0.7 1.8 0.2 7.6-0.3 11.4 1.9 1.4-1 1.3-2 2.7 1.5 3.8 3.9-2.3 1.5-0.8 0.4 0 1.1 1.4 0.3 1.2 0.6 0.4 0.9-0.7 1.1 0 1 3.5 1.8 5.4 8.2 4.2 2.9 1.6 0.1 4.8-0.8-0.4 0.7-3.1 1.5-6.4 2-3.9 3.6-2.3 3.9-1 13.6-3 3.3-4.1 2.8-1.9-0.3-1.7-1.5-3.8-0.7-1.8-1.1-4.4-6.3-1.8-1.1-2 0.4-1.9-0.3-1.7-1.5 0.3-1.9 1.1-1.8-1.1-2.5-1.7-1.1-4.2 1.2-2.2 1.1-1.5 1.8-0.9 6.5-1.5 1.7-3.8-0.7-6.4-0.1 5 1.6 0.2 1-0.5 0.2-7.8-1-1.7-0.7 2.3-2-3-3.2-1.5-0.3-3.6 3.5-1.2 0.4-3.9-0.4 0-1 2.3 0-1.5-2.2-1.6-1.2-1.6-0.5-6.6-0.7-2.1 0.4-1.2 2.2 1.5-0.5 1.6 0.1 1.4 0.8 0.8 1.6-2 0-3.3-0.6-1.6 0.6-1.5-6.9-0.8 0-0.8 2-0.7-2-2.1 0.7-4.1 0.5-1.6 0.8-4.6-3 0.9-1.5 2.1-1.7 0.8-1.7-2.1-0.9-4.2-1.2-2.6-1.9-1.9-0.6-0.7-0.4-0.6-0.7-1.8-3.1 1-2.5-1.6-3-2.6-1.2-2.2 2.7 2 0.2 0.1 1.2-1 0.8-1.5-0.7-1.3-0.4-1.3 1.1-1 1.7-0.5 1.1 0 0.9 1.3 0.8 0.9 0.2 0 0.9-0.9 0.6 0.2 1.5-1.3 1.3-1.4 0.5-1.6-0.5-1.9-1.3 0-0.5-1.3-2.4-0.9-1.3 0.3-0.3 1.1-0.4-1.5-3.2-5.4-6.7-1-2.3-0.6-0.7-1.7-0.6-5.2-3.3 0.1 1.5 0.5 2.6 0.2 1.3-3.1 2.4-0.9 1 1.4 1.7 0.5 0 0.5-0.7 0.5 1.3-0.3 1.1-0.7 0.9-1 0.6 0.8 1-0.7 1.2-1.6 0.1-2.2-0.8-2.9-0.5-4.3 0.5-0.6-0.8-1.4-0.8-1.6-0.3-1 0.4-0.7 0-1.4-0.3-1.8 1-1.5 2-0.7 2.3-1-1-0.6-1.9-0.7-1.1-1.1-0.4-1 0.2-0.5-0.2 0.2-1.5-1.7-1.2-3.6-1.1-5.8-2.6-2.2-0.1-2.1 1-2.6-2.6-3.4-0.2-3.2 1.3-4.6 3.3-1 0.2-1.8 0.1-0.8-0.5-0.6-1 0.8-2.4-0.4-2.8 2.4-4.3 4.6-4 4.1-0.9 2.2-1.2 1.1-1.8-0.4-4.4 1.8-4.1-3.3-3.7-0.1-1.9 1.5-1.8-0.4-4.4 1.4-3.7-0.5-4 1.8-3.7 0-2-4.4-2.6-0.2-1.3-4.7 2.1-1.9 1.6-4.3 2.1-5.9-0.6-0.7 1.9 0.1 4-4.1 3.3-2.5 0.4 0.4-2-1.3-2.1-6.1 1-4-0.3-3.6-1.7-6.1-4.1-1.7-1.9-1.7-4.2-0.1-2 0.8-2.2 1.9-1.7 6.5-3.3-0.1-2-3.7-1.8-6.1-1.3-1.8-1.5-1.9-0.3-1.8-1.5-0.5-2 0.7-3.9-0.8-2.5-11.3-6.9-0.5-2 2.9-5.5 0-2 0.7-1.9-0.9-2.1-2.9-4-0.1-4.8 1.5 0.6 5.3-5.5 4.1-3 2.1-0.4 3.5 2.9 1.9-1.7 0.7-1.9 2.3-1.6 9.6-2.5 1.8 1.5 0.9 2.1 0.6 6.1 3.6 2.2 0.9 2.1-1.1 3.8 0.9 2.1 1.7 1.5 2 0.3 2.1-0.9 6.4-4.5 2-0.1 3.9 3 3.8 1.4 1.6 2.3 0.5 4-0.7 1.9 0.5 2.1 1.9 0.3 4.2-0.9 4.8-2.4 3-3.5 2.2-1.3 4.2-0.9 2.3-2 3.4-8.1 10-11.5 5.5 3.2 7.9 3 4 2.6 1.7 1.5 0.9 6.5 1.7 1.5 7.4-0.8-0.6 3.5 0.4 6.5 0.9 2.1 1.8 1.1 4.3 0.3 8.6-0.9 2.3 0.8 7.1 4.8 2-0.1 6.1 1.9 4.1-0.5 1.9 0.7 3.4 3.4 6.5-0.5 4.4-2 3.4 1.5z" id="GRC2989" name="Stere치 Ell치da" data-id="GRC2989" data-name="Stere치 Ell치da">
 </path>
 <path d="M536.7 997.1l0 0.9-3-0.2-2.6-1.4-4.4-3.1 0-0.8 1.3 0 1-0.5 1.5-1.4 1.4-0.1 1.4 0.2 2.6 0.7 0 1.1-0.7 1.2-0.1 1.4 0.5 1.3 1.1 0.7z m179.8-7.9l0 0.5-2.5 1.3-1 0.1-1.8-0.6-0.5-0.7 0.9-0.9 1.3 0.3 2.1 0.2 1.3-0.5 0.2 0.3z m46-7.1l-0.8 1.1-0.2-0.9-1.1-0.9 0.2-0.9 0.5-0.7 2.2 0.6 0.3 1.3-1.1 0.4z m-101.4-69.9l-0.1 1.3-0.6-0.4-0.7-0.1-1.3-0.7-0.8 0.5-0.4-0.5-2.1-0.6 0-0.9 0.9-0.8 1.4-0.3 0.7-0.9 1-0.2 2.7 1.9-0.7 1.7z m-150.8-12.4l3.1 0.9 1.7-0.6 6.4 0.7 2.8-0.1 1.2-0.4 1-0.5 0.7-1 0.2-1.4 0.5-1.1 1.2-0.4 2.9 0.2-1.4-5 3.8-1.5 5.1 0.5 2.5 1.6 2.3 6.1-0.3 1-0.5 0.4-0.9 1.9-0.6 0.7-1 0.5-1.1 0.2-2.4 0.1-4.4-0.9-2.5-0.2-1.6 1.1 0.5 1.2 2 1.3 2.1 1 3.3 1 3.7 2.6 1.9 0.6 2-0.4 2-0.9 1.9-1.3 1.5-1.2 1.3 6.3 0.1 2.6-0.2 5 0.2 1.2 0.9 0.7 2.3 0.1 1.1 0.6 4.1 1.6 10-3 4 1 2.4-1.3 9.2-1.7 3-1 7-3.6 2.4-0.8 2.4-0.5 2.5 0 11.2 1.9 2.3 1.3 1.1-0.8 1.9-1 3.2-1.1 7 2.9 1.3-1.7 0.2-1.2 5.4 1.3 1.2 1.7 2-0.3 0.7 0.2 0.1 0.9-0.6 1.5-0.2 0.8 0.9 3.5 2.4 1.5 3.4 0.3 5.2-0.3 3.2-0.8 1.8 0.1 1.7 1.6 1 0.3 3.4 0 6.3-1 2.7 0.8 1.7 0.2 1.7-1 0.8 1 0.8-1 2.1 2 1.5 2.2 2 1.8 3.2 0.7 3.2-0.4 17.6-6.7 2.4-0.5 1.3 0.3 2.4 1.3 1.7 0.3 6.6 0-0.8 1.9-1.3 1.6-2.6 2.2 0.8 0.9-0.6 1.3-0.1 1.1 0.4 0.8 1.1 0.7-0.1-2.4 0.5-1.1 1 0.1 0.9 1.4-0.6 0.9 0 0.5 0.6 0.6-0.7 1-0.9-0.7-0.6 0.4-0.9 1.1 0.4 1.3-1 1.5-0.8 2.1 0.6 2.8-1.3 1.1 0.1 1.2 0.8 1.4 0.4 1.4 0.4 2.8 1.2 0.3 1.6-0.2 1.9 0.9 1.5 1.1 1.4 0.4 2.5-0.1 1.4-0.9 2-3.9 1.2-0.8 1.6-0.3 1.1-0.8 1.4-2.4 0.2-0.4 1.3-0.3 3.7-0.3 4.2-0.8 0.8-0.4 3.5-2.3 1-1 0.9-0.5 1-0.3 1.4 0.1 0.6-0.9 0.8 0 1.6 1.4 4.3 1.1-1.3 1.4 2.4 1.3 2.9-0.3 2.7-1.3 2.1-1.6-0.6-0.3-0.2-0.6 3.1-3 2.2-3 2.4-2.1 3.9-0.5-0.8-1.8 1.6 0-0.8-2 3.1 0-1 2.6-1.6 1.6-1.9 1.5-1.7 2 2 7.1 1.7 3.1 2.5-1.7-1.1 2.2-1.8 2.2-1.2 2.1 1 2-0.8 2.5-1 2.5-1.2 2.2-1.2 1.7-0.6 1.2-1.1 3.3-0.7 0.7-1.3 0.2-2.1 1.2-6.5 3-1.6 0.4-3.1 0-0.2-0.4-1.6-1.9-0.9-0.5-2.7-0.5-2.2 0.3-2 0-2-1.3-1.1-0.9-0.9-0.3-0.9 0.3-1 0.9-0.9 0.2-4-0.7-4.8 1-8.3 2.9-23.3-1.1-7.1 2.3-1.7 1-1.9 0.7-10.3-1.3-7.6 0.3-2.1 0.6-2.8 0.4-1 0.5-1.7 1.1-6.4 2.6-1.7 0.4-6.4-0.6-2.5 0.6-0.7 0.4-0.9 1.1-0.8 0.3-1.2 0-1.3-0.7-0.9-0.2-2 0.1-1.7 0.4-2.9 1.3-1.8-0.8-2.2-0.2-27.6 1 0-0.9 1.5-1.2 0.4-1.5-0.3-5.3 0.2-1.6 0.6-2.7-0.1-1.9-0.3-1.4-0.7-1.9-0.8-1.6-1.5-1.1-1.3-1.3-1.2-0.3-9.9-0.1-2.8-0.6-1.6-1.1-0.7 0-1.1 0.5-1.2-1.2-2.4-3-1.5-1.1-2.1-1.1-2.2-0.5-1.9 0.8-6.8-3.4-0.2-2.2-12.2 1.2-8.5-1.2-1.1-1.1-0.5-0.9-0.7 0-1.7 1-8 0-2-0.9-1 0-0.5 1.4-0.5-0.1-3 0.6-2-0.9-3.2-4.1-1.8-0.9-9.6 0.3-4.7-0.7-3.8-2.2-1.6 1.1-1.5-0.3-1.9 1.6-7.9-0.2-3.2 1.5-1.6-1.6-6.6 0.3-2.7-0.6-0.5-0.8 0.2-1.3-0.4-0.7-0.9-0.5-1.5-0.2-0.7-0.3-0.9-1-1.6-2-1.4-0.8 0.8-0.9-0.7-0.1-0.1-0.8 1.6-0.9 1.5-0.2 0.2-0.8 0.6 0-1.3-2.1-0.1-1.2 0.6-1.5-0.8-2.5 1.2-3.2 1.8-3 0.9-2.2-0.2-0.9-0.6-0.8-0.7-0.6 0.1-1 1.1-3.5 0.8-1.2 0.1-1.1-1.4-0.9 0-0.8 0.7-1-0.7-1 1.7-3.5 0.3-1.6-0.4-1.6 2.2-3.8 0.5-1.3 0.3 2.8 0.1 5.6 0.7 2.4 0.6 1.5 0.4 0.3 1.8 0.4 0 1.1 0.3 0.5 2 0.8 2.7 0.2 2.2-0.4 1.7-1.4 1.1-2.3 0.3-3.4-0.7-2.7-0.9-2.5-0.4-2.1 1.2-1.4-1.1-2.5-0.3-1.9 0.5-1.8 1.3-1.9 1.6-1.6 1 0 1.1 1 2.1 1.1 0 1.1-1.2 1.4 0 1.7 1.2 4.4-0.1 3.6 0.1 1.1 2.3 4.3 2 1.4 9.5 1z" id="GRC2990" name="Kriti" data-id="GRC2990" data-name="Kriti">
 </path>
 <path d="M512.4 214.3l0.5 0.4 1 0.3 1 0.6-0.6 0.7-2.3-1-0.4-0.6-0.8-0.1-2.1-0.9-0.4-0.6 0.7-0.9 1.9-0.8 0.6 0.2 0.7 1 0.2 1.7z m-33.2-157.1l0 0.3-0.7 3.1 1.7 6.5 9.5 4.6 0.1 2.1-1.2 1.9-0.8 3.9 0.8 2.3 5.4 4.6 6.7 8.3 5.8 4.4 6 1.5 3.4 3.5 2.1-2.1 2.2-0.4 2 0.4 2.1 1.6 2.5 4.6 5.3 4.7 2.6 1.3-0.8 1.9 1.2 4.4-0.3 2-1.2 1.8 0 2-1.6 1.8-6.4 5-2.3 3.6-6 5-2.3 1.3-9.7 2.2-0.3 1-1.4-0.3-3.7 0.4-6.2 2.6-2.5 1.7-2.4 2.1-1.5 2.4-0.6 3.9 1 3.2 2 2.2 2.6 0.9 1.6 1.1 1.9 2.6 1.6 3.2 0.7 2.7 0.7 0.2 3.9 3.4 1.5 0.5 1.7 0.2 1.7-0.2 1.3-0.5 0.7 1.6 2.2 2.1 0.1 1.4-0.9 0.6-7.8 1-1.7 1.7-0.5 2.9 0.9 3.9 4.7 7.1 1.1 1.1 3.6 1.7 0.6 0.8 4.3 1 1.2 0.4 1.3-0.6 3-0.4 0.2-0.1 0.2 0.3-0.1 3.8 0.1 2.5-0.1 2-0.4 1.3-0.9-0.6-4.1-4.2-2.3-1.9-1.6-0.6-4.2 0.6-4.2-1.1-1.6 0.1-5.8 2.9-2.5 0.5-3.3-1.4-1.1 2-0.5 0-1.9 2.8-0.7 2.5 0.3 2.4 1.7 4.7 1.4 1.8 3.8 2.6 0.8 2.4 1.6 1.8 1.6 1 0.7-0.2 7.7 3.7 1.4-0.6 1.9 0.8 1.9 1.4 1.4 1.7 1.7 1.3 4.4 1.6 1.2 1.7-0.1 1.3-1.4 1.4 0 1.4 0.6 0.9 2.1 1.5 0.4 1.1-0.4 1.2-1.6 0.2-0.3 0.6 0.3 1.7 0.7 0.7 1-0.2 1.1-0.7 0 2.5 0.3 0.8 0.5 0.7-3 2.6-0.5 1.3 1.2 1.2 0 1-2.2 0.1-1.1 0.9 0.4 0.9 2 0.1 0 1.1-5.7 0.2-2.3-0.6 0.3-1.7 0-1-0.8 0-0.9 0.7-0.8-0.2-0.3-1 0.6-1.5-4-2.3-0.7-0.3-0.6-1.6-1.2-1.1-1.6-0.3-0.8 0.7-0.1 0.7 0.4 1.2-4.1-6.9-0.6-1.7 0.8-2.4 0.2-1.5-0.6-0.7-1.1-0.5-0.7-1.1-0.9-2.5-10-13.5-3.8-2.6-2.2-0.6-9.2-0.8-6.4-3.6-5.1-1.5-4.5 0.3-3.8 2.3-2.8 5-0.3 2.9 0.9 2.5 1.1 2.4 0.6 2.7 0.4 0.9 0.8 0.5 2.3 0.2 1 0.3 0.7 0.7 1 1.9 6.1 8.7 3.3 3.7 11.7 6.4 7.6 1.8 0.3 0.9 0 1.3 0.3 1.5 1.1 1.8 1.3 1.2 1.8 0.8 2.4 0.2 1.5 0.5-0.8 1.1-2.1 1.1-2.1 0.4-9.8-1.5-16.4-7.1-2.7-0.5-8.4 1.4-1.3 0.6 0.6-1.6 1.5-2.8 0.3-1.7-0.4-1.2-1.6-2.3-0.4-0.9-0.9-3.6-2-2.6-2-2.1-1.2-2.3 1.5-4.7 0.6-5.7-0.7-5.2-2.2-3.7-4.6-2.6-2.4-1-4.2-0.9-2-1.2-1.8-0.9-1.9 0.6-5.9-4.4-1.1-0.2-1.2-1.1-2.7-0.6-2.6-1-2.1-3.8-5.3-4.2-2.1-1-2-0.3-4.4 0.3 1.1-2.3-0.9-2.4-3.4-4.4 0.9-0.2-0.1-0.7-4.1-4.7-1-2.4 2.5-1.1 7.2-0.4 3.8-0.8 1.7-1.3 0.7-1.3 1.4-1.1 0.9-1.5-0.7-2.7-4-2.5 0.2-1 0.7-1.7-1.8-3.7-2.6-2.1-3.1-0.4-3.2 1.2 0.7 2.8-0.2 2.3-0.9 1.7-1.2 1.4-1.8 0.9-1 0.8 0.1 0.3-2.3 0-1-0.3-1-0.8-2.2 1.5-1.4 1.9-0.4 2.2 0.9 2.6-0.7 0-0.9-1 0 2.1-0.7 0 0-1.1-0.8 0-0.5 1.7-0.9 0-1.2-1-1.2-0.7-0.1-0.7-1.7 0.1-1.8 1.5-0.1 1.8 2.1 1.2-1 0.2-0.7 0.3-0.5 0.8-0.1 1.4-0.4 0.8-1.1-0.3-1.6-1-2.7 0.1-1.4 0.5-1.3 1.4 1.6 1.5 1.2 2.1 0.5 2.3-0.2 2.2 1.3 1.2 1.1 1.7 1.3 1.5 2.1 0.6 0.3 1.6-1.5 3.4-3 5.2-3.4 10.2 0 1.7-4.3 9.4-0.3 3.3 0.8 2.5 1.2 2.4 0.6 3.4-0.5 3.4 0.3 1.5 1.3 0.7 0.5 0.7 1.5 4.2 5.9 5 1 0.6 0.6 0.6 2.7 0.9 0.8 1.1 1.1-0.1 0.2 0.6-0.1 2.7 0.1 0.5-1.2 0.3-5.9 1-1.7-1.6-2-0.3-9 2.5-4.2-1.5-3.4-3.4-2.5-4.5-7.6-5.3-3.4-3.8-1.3-4.2 0.3-6.4-0.9-2.2-3.7-2.2-4.7 1.6-2 1.7-2.2 3.7-2.4 2-1.9-0.7-0.9-2.2 0.4-2.3-0.4-2.1 1.1-1.8 0.4-2-5.9-1.4-2.3 1.3-1.1 1.8-0.9-2.2-0.3-2.8 0.8-2.3 4.4-2.1 1.6-1.8 0.3-4.4 1.8-3.3-5.3-2.5-1.2-2.3-0.5-4.1-3.8-4.3-0.5-2.1 0.4-1.9-0.9-2.2-6.3 1-1.9-1.1 0-2.1-3.7-2.6-4.1-1.9-1.8-1.9-2.4-4.8-1.8-1.5-0.1-2.1 1.5-3.8-3-4.1-0.2-4.1 2.8-6.5-2.5 0-1.8-1.1-2.1 0.1-4.7-1.6-2 0.1-2-0.7 2.7-6.5 0-2.1-3.9-1.4-1.3-2.2-1.7-6.8-1.8-1.9 0.8-2 4.1 0.3 4.2-1 2.2-0.9 2-1.7 0.3-2-1.7-1.9-3.9-1.8-0.7-5.2 0.9-0.2 1.5-1.5 0.4-1.7 0-1.6 0.2-1.3 1.1-1.4 4.2-2.9 1.6-2.8 4-3.9 1.5-2.3 0.3-1.2 0.1-2.9 0.4-1.5 0.9-1 2.9-2.1 3.4-1.9 7.2-2.1 0.6-0.4 1.1-1.3 0.5-0.3 0.8 0.3 0.8 1.9 3.8 2 0.8 0.3 2.4-0.8 4-3.7 2.6-1.2 2.5-0.2 2.2 0.2 4.3 1.4 3.4 0.5 1 0.3 0.3 0.5 0.2 2 0.2 0.5 0.7 0.1 1-0.6 2.1-0.1 2.9-0.5 1.4 0.1 1 0.5 2.4 1.6 1.3 0.5 3.3 0.1 1.8-0.2 3.8-1.1 1.7 0 3.7 0.6 2.5-0.2 2.1-0.8 2-1.6 1.9-2.5 0.3-1.2-0.1-1.4 0.3-1.1 1.8-0.4 1.3 0.3 0.6 0.8 0.5 1.2 0.9 1.2 2 1.8 1.5 0.7 1.2-0.9 1.3-3 1-5.8 0.5-11.8 1.2-4.8 3.3-2.9 5.1-0.9 10.2 0.7 22.4 3.5 4.7-0.5 2.5-0.8 1.3-0.7 1-1 0.6-1.5 0.1-2.7 0.4-1.2 1.7-1.6 2.5-1.6 2.6-1.1 2-0.1 2.1 1.4 1 1.8 1.2 1.1 2.4-0.3 2-1.1 3.4-2.5 2.2-0.7 11.1 0.3 7.4 3.9 3.8 0.1 1.4-0.9z" id="GRC2991" name="Kentriki Makedonia" data-id="GRC2991" data-name="Kentriki Makedonia">
 </path>
 <path d="M521.6 214.7l0.4-1.3 0.1-2-0.1-2.5 0.1-3.8-0.2-0.3 0.9-0.8-0.1-1.4-0.6-1.9-1.7-2.9 0.9-1-0.9-1 2.3-0.2 2 2.5 2.7 5.9 1.4 1.7 2.3 2.2 2.6 1.3 2.2-1.2 1.2 0.7 3.4 1.2 1.2 0.2 0.8 0.7 1.2 3.3 0.7 1 3.3 0.1 3.7 4.1 6.2 9 7 7.2 1.2 3.9-3.7 3-4.8 1.1-2.1-0.5-0.8-2.1-0.7-2.6-1.7-1.6-2-1.1-1.7-1.2-3-4.5-2.2-4.7-2.6-3.9-4.6-2.2-9.1-1.6-3.2-1.4-2-1.4z" id="GRC2992" name="Ayion Oros" data-id="GRC2992" data-name="Ayion Oros">
 </path>
 <path d="M709.8 189.9l1.8 1.9 1 2.1-0.7 1.9 0.5 2.2-1.4 1.5-10.6 3.7-2.4-0.3-3.9-2.2-7.5-6.1-1.6-1.9-1-1.9 2.1 0 6.6-3.9 2.9-1.1 3.3 0.1 9.1 2.7 1.8 1.3z m-100.2-19.7l-0.3 1.2-0.8 0.1-1.9-1.2-1.3 1.7-2 0.8-3.7 0.7-1.4 0.5-2.7 2.6-1.7 1-0.6-1.4-0.7-1-1.8-1.7-1.3 0.1-0.4-0.5 0.1-1.7-1.6-1.4-0.7-0.5-3.1-0.8-2.5 0-1.6-1.3-0.5-4.1 0.7-3.8 1.7-3.8 3.8-5.6 8.5-7.2 3.6 1.9 4.6 0.5 1.9 0.7 0.4 0.9 0.3 1.4 0.6 1.3 1.3 0.5 1.2 0.3 1.1 0.7 0.8 1 0.4 1.1-2.3 0.1-0.7 1.6 0.8 1.8 2.2 0.5 0 3-1.9 0.7-0.4 2 0.8 4.5 0.7 1.7 0.4 1.1z m-104.6-23.9l0.3-1 9.7-2.2 2.3-1.3 6-5 2.3-3.6 6.4-5 1.6-1.8 0-2 1.2-1.8 0.3-2-1.2-4.4 0.8-1.9-2.6-1.3-5.3-4.7-2.5-4.6-2.1-1.6-2-0.4-2.2 0.4-2.1 2.1-3.4-3.5-6-1.5-5.8-4.4-6.7-8.3-5.4-4.6-0.8-2.3 0.8-3.9 1.2-1.9-0.1-2.1-9.5-4.6-1.7-6.5 0.7-3.1 0-0.3 0.3-0.2 2.8-2.8 2.2-0.8 3.7-0.1 3.7 0.9 1.9-0.5 2.5-4.3 1.7-0.8 2 0.1 2.4-0.3 2.3-0.6 1.8-0.8 3.1-2.9 0.9 0.1 5.3 3.9 1.7-0.1 1.8-1.8 1.8-1 0.4-1 2.5 1.6 1.3 0.3 1.3-0.6 0.7-1.2 0.1-1.2-0.4-3.4-0.2-4.8 3.3-1.6 4.5 0.4 3.3 1 0.9 0.7 1 1.5 0.8 0.1 0.3-0.5 0.5-2.4 0.5-1 1.6-1.4 2.1-1.3 2.1-0.9 2-0.3 1.8 2.1 2.2 1.4 0.1 1.3-0.3 1.3 0.2 0.8 1.1 0.4 1.5-0.7 1-0.2 3 0.4 1-0.1 3.8-1.2 1.7-0.1 2.4 0.4 1.7-0.4 2.3-3.3 2.5-0.6 3.2-1.2 2.3 2.1 1.4 3.9 0.4 4.2 0.3 1.3 2.1 2.6 1.1 0.6 0.4 0.5 0.1 0.8-0.3 1.7 0.1 0.5 1.8 1.6 1.5 0.4 3.9-0.1-0.7 1.5 2.6 0 2.2 0.4 2.1 0.9 2.2 2 3.8 5 2.5 2.2 2.2 0.1 1-2.2-0.3-2.6 0.3-2 4.4-0.3 2.3-0.9 1.2-0.2 1.5 0.2 3.4 2.1 18.4 7.9 1.9-0.4 0.5 0 1.7 2.4 4.7 2.2 2.1 1.8 4.8 6.6 2.2 1.4 2.6 0.4 2.7-0.2 18.9-6.2 2.8-0.5 1.2 0.1 1.8 0.4 1.1-0.4 1-1.2 0.7-1.7 0.9-1.4 1.5-0.5 9.9 0.6 1.1 0.4 2.4 1.4 1.1 0.3 1.2-0.2 1.6-1.3 1.4-1 1.3-0.5 3.9-0.2 4.2-2.9 1.1-0.5 2.5 1 3.3 3.7 2.2 0.9 1.6-0.3 2.8-1.5 1.6 0 1.5 0.3 1.3-0.1 2.5-1.3 3-2 1.5-0.7 9.6-2.3 0.8 0.2 0.7-0.4 1.3-2 1.8-3.8 1.2-3.8 0.6-0.9 1.3-0.6 0.2-1.2-0.4-0.9-1.5-1.5-0.5-0.7-1.2-2.6 0.2-1 1.4-1.4 0.4-1.9 0.1-1.7-0.1-1.7-0.6-2-0.6-0.7-1.8-0.3-0.6-0.6-0.2-1 0.2-2.4-0.1-1.1-1-3.8-0.7-1.3-1-1.2-1.3-0.6-1.5-0.3-1.6-0.7-1.4-2-0.5-1.8-0.3-2.1 0-2.2 0.7-1.9 0.7-0.9 1.6-0.3 0.8-0.3 3-2.5 3-0.8 6.2-0.2 2.5-2.4 1.6 0.1 0.9 0.6 3 3.4 1.5 1.3 2.3 0.7 7.3-0.7 2 0.6 3.1 2.9 4.3 1.1 2 0.8 1.8 0.5-0.4 2.2-1 1.9 6.4 4.8 5.1 2.7 1.1 1.2 2.2-3.3 0.1 2.3 0.7 1.8-0.5 1.8 0.4 3.9-0.7 1.5 1.2 2.2 0.5 2.6 0.6 5.6 1.8 7.3 0.5 3.1 0 3.1-0.5 3.2-1.1 2.5-1.4 1.5-2.1 0.2-2.4-0.6-2.2-1.3-1.1-1.5-5.8 6.2-1.2 0.2-1.4 1.8-3.1 2.1-3 2.6-1.9 1.1-7.1 0.7-1.3 1.2 1.8 2.6-1.2 3.2-0.5 2.9 0.3 2.7 1.4 2.6-2.1 3.3 0 1.2 1.6 0.5 0.9 0.7-2 3.9 0.3 2.1 1.6 3.4 1 1.6 3 1.5 0.1 1.7-0.8 1.7-1 0.8-1.7 0.2-0.9 0.6-0.4 1 0.4 1.3 1.1 1.5 1.1 0.6 0.4 0.5-1.2 1.5-1.5 1.2-3.3 1.6-1.3 1.3 1 1.7 0.1 1-1.5 0.4-1-0.2-0.8-0.4-0.6-0.7-0.4-0.8-0.7 0-0.9 2.9-0.6 1.4-0.8 0.9-0.8 0-0.7-2.1-0.1 2.4-1.5 0.6 0.1 0.9-0.8 1.2-0.1 1 0.8 1.7-6.1 5.2-1.7 2.7-0.9 4-2.5 3-3.5 1.7-4.2-0.4 0.3-0.6-1.2-2.3-0.3-3-0.7-2.7-2.4-1.2 0-1 1.5 0 2.1-0.3 1.8-0.5 0.7-0.7-0.7-1.5-1.7-0.2-1.8 0.5-1.2 0.7-0.4-1-0.3-1.2-0.9 0 0 1.2 0.5 0.7 0.4 1.4-0.9 0-1.7-2.1-3.5-2.2-3.8-1.1-2.4 1.2-1.9-0.5-6.1-0.2-1.3-0.8-1.2-0.2-8.1 0.7-4.6-0.9-4.9-1.8-4.8-0.9-4.2 1.6-3.4-0.8-2.3-1.3-1.7-1.5-1.7-1.2-5.6-1.2-2-0.1-4.1-1.9-4.7-3.4-4.7-1.5-3.7 3.7-0.8 0-0.1-0.7-8.8-1.6-2.3-1.4-1.5-1.1-1-0.1-0.4-0.5 0.2-1.8 0.5-1.2 0.9-1 1.1-0.6 1.3-0.3-2.1-1.4-1.4-0.7-9.2 0.1-2 0.5 0 2.5-2.3 2.1-1.4 0.8-1.7 0.2 0.9 2.8-1.1 1.1-2 0.2-2 0-1.5 0.5-3.7 2.1-1.8 0.4-3.2 2.3-3.3 4.6-3.6 3.2-4.1-1.8-4.2 1.9-2.2 0.1-2.1-1 0.8-1-3.9-2.2-2.4 2.3-0.7 0.9-0.8 0-1-2.4-1.2-2.1-1.4-1.9 0.5-1.8-1.6-0.8-1.2-1.2-0.8-1.6-0.2-2.1-5.5-1-1.5-0.5-1 0.9-1.3 0.2-1.3 0.4-1 1.6-2.4-1-3.1 0.3-2.6 1.4-2.2 3.3-5.1 4.2-1.6 0.9 1.3 1.2 0.9 1.4-0.1 1.1-2.5 0.7-0.4 0.5 0 0.8 0.4 1 0.6 0.4 1.9-0.1 1 0.3-26 15.4-4.1 0.9-4.9-0.3-4.9-1.3-12.7-6.8-2.2-0.5z" id="GRC3001" name="Anatoliki Makedonia kai Thraki" data-id="GRC3001" data-name="Anatoliki Makedonia kai Thraki">
 </path>
 <path d="M859.3 914l0.9 2.9 0 0.8-1.7 0.1-2.8 0.5-1 0.5-1.4 0.9-1 0.9-1.1 0.7-1.5 0.3-1 0.4-1.9 2-1.3 0.4-1.4-0.6-1.2-1.3-0.6-1.3 0.4-0.6 1.1-0.5 2-2.6 1.2-1.1 0.7-1.9 0.4-0.5 1 0.2 1.2 0.7 0.6 0.1 4-1.7 1.8-0.2 2.9-0.8 1.1-0.1 0.2 0.9-1.6 0.9z m25.8-53.3l-1.5 2.7-0.4 1.7 0 3.4 0.2 1.2 0.6 1.4 0 1.1-0.7 1.1-1.3 1.3-1.3 1.6-0.6 2.2-0.4 1.2-1.1 1.3-1.1 1.7-0.5 2.4 0 2.1 0.2 1 2.9 2.2 2.8 5 1.3 1.2-0.5 1-1.2 1.3-0.1 1 0.8 0.9 2.4 2.3 0.5 1.5-0.6 2.9-2.9-0.7-2.9 1.2-2.1 2.6-0.6 3.5 0.9-1 0.7 0.1-0.6 1.1-0.8 1.1-1.2 0.9-1.3 0.7 0.8-2.3-0.9-0.8-1.6-0.2-1.4-0.5-1-1.3-0.8-1.6 0.2-1.3 1.6-0.6 0-0.9-0.7 0 0-0.9 1.8-0.5 0.1-1.5-1.2-3.8 0.1-1.9 0.5-2.3-0.6-1.5-0.9-0.7-2.9-1.8-0.8-1.2 0.2-1.9 0.8-1.9 1-1.4 0.7-0.6 2.7-1.6 0.9-3.6 0.5-3.5 2.9-3.4 0.9-4 0.1-4.3-0.7-2.3 0-1 1.6-1 0.8 0 0 1 0.7 0 2.4-2.9 0.9-0.8 0.8-0.2 0.7 0.3 0.6 0.7-0.4 1.8z m43.5-57.2l-0.5 0.5-0.9-0.1-2.2 0.6-1.6-0.3-2-0.2-2.2 0.6-1.4-0.7-0.2-1.9 1.1-1.3 2.5-0.6 1.9-0.1 5.7 0.3 0.3 0.7-0.1 1.3-0.4 1.2z m12-7.3l-0.2 0.7-1.7 2.8-0.5-0.1-0.5-0.8 0.6-0.9 0.2-0.9-0.5-0.2-1 0.6-0.6-0.1 0.4-1.2 0.8-1 0.7-0.5 1.2-0.3 0.8 0.4 0.3 1.5z m-210.2-12.8l-0.9 1.9-1-0.2-1.1-1.1-1.2-0.6-1.8 0.3-1.4 0.7-1.4 0.4-2.9-0.6-0.9-0.1-1.2-2-0.3-1 0.6-0.5 1.6-0.6 1.1-1.1 1-0.8 3.9 1.7 3.7 3.2 2.2 0.4z m268.6-9.7l-1.6 2.1 1.2 6.3-2.3 1.3-0.5 0.8-0.7 4.9-0.9 1.5-2.4 3-0.6 1.8-0.2 3.9-0.6 1.7-1 0.7-0.7 0.9-1.4 4.3-0.6 1.4-0.3-0.1-2-0.1-0.8 0.2-0.4 1.5-0.5 1-1 0.4-2.8 6.7 2 1.3 2 0.5-0.8 2.2-1.6 1.7 0.5 0.6 1.1 2.3-5.9-1.9-2.3-0.1-2.6 1-5.1 3.2-1.8 1.9-4.5 7.5-3.3 4.3-4 3.8-5.3 3.3-4.7-3.2-0.7-0.3-0.3-0.9-2-4.4 1.5-2 3.2-9.7 0.7-3.5-0.4-3.1-1.1-1.6-1.6-1.2-2.7-3.2-0.2-0.6 0.7-1.1-0.1-0.7-1.1-0.8-1.3 0.1-0.8-1.2 1.9-0.7 4.4-3.1 2.6-0.9 1-0.8-0.5-1.2 1-0.8 0.5-2.9 0.7-1.7 0.8-1.3 1-2.2 0.6-0.6 3.3-0.9 1.3-1.8 3.8-3.9 0.8-1.6 1.1-1 6.7-2.3 12.6-6.8 1.7-1.4 3.6-1.8 7.4 0.5 3.4-4.4 0.9 0 1 0.8 1 1.6 0 0.8z m-309.8 7.7l-1.1 2.8-1.6 2.2-2.1 0.8-2.3-0.2-5.2-1.6-2.1-1 1.3-0.7 2.7 0 1.4-0.3 1.1-0.9 1.1-2.2 0.9-0.7-0.8-3.7-0.5-1.4-1-0.8 0-0.8 0.6-1.8-1.7-0.9-4.3-1.2 0-1 1.5-0.9 4.1 1.3 3.8 2.9 3 3.6 1.4 3.7-0.2 2.8z m211.7-13.2l1.4 3.9 1.8 0.8-1.1 2.5 1.4 1.5 2.3 0.2 2-1.3 0.6 0.8 0.1 1.1-0.6 1.4-1.2 1.3-1.4 0.7-1.3-0.5-0.6 0.7-1-0.7-1.4 0.2-1.5-1.6-0.8-2.3 0.6-2.1-1.5-0.9-1.3 0.4-1 1.1-0.8 1.3-0.8 0-0.6-1.2-1.4-1.1-0.3-1.1 0.1-2.8 0.2-1.3 0.4-1.2 1.1 2.2 1.7-0.6 1.8-1.6 1.6-0.9 1.5 1.1z m-21.9-12.4l-1.5 0-2.4-0.4-1.1-0.9-0.4-1.4 1.2-2.8 3.3-2.1 2.2-0.1 1 1.2 1.3 2.8-0.9 2.6-2.7 1.1z m-80.5-5.1l0.7 2-0.7 0.7-0.5 0.1-0.6-0.5-0.6-1.3-1.7 1.6-1.5 0.5-3.3-0.1-1.5 0.4-1.2 1.3-1.6 3.1-0.1 1.9 0.2 1.7-0.9 0.9-2.7 0.2-1.9-0.8-2.1-3.7-1.8-1.1 0.4-1.4 0.4-0.5-1-1.7-0.3-2 0.5-1.2 1.6 0.9 1.6-1 1.9 1.2 1.9 1.8 1.5 0.9 1-0.5 1.1-1.9 0.6-0.5 2.3 0.5 0.9 0.1 1.1-0.6-1.5-0.8-0.6-1.3 0.5-1.6-1.2-0.4-1.9-1.6 0-1.1 3.5 0.2 4.2 2.5 3.3 3.1z m153.5-3.8l-0.8 2 1.5-0.5 0.8 1.5 3.8-3 0.8 1-0.6 0.5-0.2 0.9 0.4 0.2 0 0.8-0.4 1.4 0.1 1.7 0.2 1.2 0.5 1.1-1.5 0.8 1 0.7 0.5 1.3-2.5 1.5-1.3 0.4-1.6 0 0-0.9 0.6-0.3 1.7-1.6-4.9-1.7-1.5-1 1.8-1.2-5.4 0 0.7-1.4 1.3-1.4 1-1.5 0.1-1.5 0.5 0 1-1 0 1 1.9-2.4 2.7-1.5 2.1-0.3 0.3 1.2-3.2 1-1.4 1z m-322 3l0 0.9-2.9-0.2-1.7-0.7-3.1-3-1.8-1.2-1.8-0.8-1.5-1.2-1.1-2.6 2.4-0.1 0.7 0.1 9 5.8 1.8 3z m18.7-8.1l-4.1 3.3-2.9-0.2 4.2-8.6 1.3-0.4 2.2-2 1.1-0.5 4.5 0.1-0.3 0.4 0 1.4-6 6.5z m-76.5-13.1l2.7 0.9 4.3-2.4 2.3-0.5 1.4 1.9-0.3 1.6 0.3 7.6-0.9 1-2.2 1.1-3.8 1.2-13.5 0.3-4.2 1.7-0.5-2 1-3.1-0.5-1.7 0.5-0.4 1-1.4-1.5-1.1 1.1-1.1 0.9-2.5 1-1.2 1.3 1.6 1.8 1.3 1.6-0.3 1.3 4 2.2 1.1 3.8 0 1.2-0.7-0.3-1.5-1-1.6-1-1-1.6 0.9-1.1-0.9-0.9-1.6-1.1-1.3 0-0.9 1.3-1.5 1.4 0.9 2 1.6z m23.5 0.4l-1.6 0.5-1.7-1.5-2.5-3.3 1.6-1.9 1.9 0 0.6 0.2-0.2 0.6 1.6 0.9 1 1.1 0.2 1.5-0.9 1.9z m83.4 3.2l1.1 2.2-1.4 0.2-0.8 1-0.1 1.3 0.7 1.3 0 0.9-2.5 3.5-4-2-7.3-7.3 0.8-0.9-1 0.1-2.2-0.1 0.6-1.3 0.6-2 0.3-1.7-0.2-0.8 5-3.8 1.4 1.8 1.8 3.4 1.4 1.5 2 1.1 2 0.6 1.8 1z m-92.3-15.6l0.6 0.3 0.8-0.1 0.9-0.8 0.3 0.9 0.5 0.1 0 1-0.8 0.9-3.1 5.7-1.9 0.2-1.9-0.6-0.8-1-0.3-1.7-0.6-0.9-0.4-1 0.6-1.6 0.9-1 1.5-0.9 1.6-0.5 1.4 0.4 0.7 0.6z m98.8 2l-2.6 0.3-1.3-1.4 0.8-1.6 1.9-1.9 2.7-1.9 0.9 0-0.9 1.1 0.9 0.4-0.1 3.5-2.3 1.5z m195.2 1.7l-6.8 7.3-2.4 0.3-2.9-0.4-2.6-0.9-1.4-1-6.2 3-1.9 1.8 1.2 2.9-1.6 0.5-0.7 1.5 0.1 2 0.7 1.8-2-0.4-2-1.6-1.6-1.9-0.6-1.3 0.3-5 0.7-2 1.2 0.7 0.6-0.8 1.3-1.4 0.5-0.7 0.6 0.5 2.5 1.4 1.5-1.5 0.9-1.3 1.5-3 3.9-3.3 0.6-1 11.7-7.3 11.4-1.8 1.7-0.5 1.2 2.2 5.6 1.4 1.6 2.7-3.6 2-12.3 3.5-2.7 1.6z m-170.8-9.4l-2.2 0-2.6-0.5-2.6-0.1 0.7-1.4 1.2-0.7 1.4-0.7 1.4-1.2 1.1 0.6 2.8 2.3-1.2 1.7z m45.1-2.6l0 0.6-0.8 0.3-1.9-0.8-2.1 0.4-1.8 0.7-1.1-0.3-1.7 1.7-4.8 3.5-1.6 0.7-1.4 1.2-3.2 5.3-1.5 1.2-9.2 3.1-4.8 0.4-1.9-3.5 1.6 0.8 0.9-1.4 1.5-1.1 1.6-0.3 1.3 1 0.8 0 0.8-0.7 1-0.3 2.5 0 0.4-0.5 1.6-3.3-1.3 0.7-0.7-0.8-0.2-1.2 0.2-0.6 1.3-0.2 12.9-6.6 0-0.9-1.4-0.9-0.9-0.2 0-0.9 3.1-0.9 1.3-0.9 0.9-1.1 0.9 0 1.5 1.9 1.8 1.7 2.1 1.4 2.3 0.8z m122.6-8.4l0.5 1.2-0.6 1.6 0.6 1.3 0.1 0.8-1-0.5-0.9 0.3-1.6 0.2-3.2-3.7 0-0.7 0.8-0.5 2.1-0.2 1.1 0.7 0.9-0.7 1.2 0.2z m-235.5-0.9l1 1.6-1.6-0.4-2.2-2-1.9-2.8-0.5-2.6 1.1-2 2-1.8 2.2-1.1 1.7 0.1-2.1 7.3-1.1 2.4 1.4 1.3z m-46.9-12l2.7 2.2 1.1 0.6 0.9-0.9 0.8 0 1.3 2.1 4 4.9 1.5 4.1 0.1 1-0.4 0.6-1.5 0.8-0.4 0.6-3.9 4.4-1.7-2.7-1.9-4-1.1-3.8 0.8-2.1 0-1-1.2-1-1.3-2.4-1.3-0.4 0.2-1.2 0.6-0.8-0.7-0.2-0.1-0.8 1.5 0z m275.6-1.7l0.4 1-2 0-1.2-0.5 0.1-0.7 0.7-0.3 2 0.5z m-14.6 2.7l1 1.8 1.5 0.8 1.2 1 0.2 2.2 0.9-1.2 1-0.5 0.9 0 1 0.7 0.3 1.6-0.8 2.5 0.5 1.6-0.6 1-0.2 1.1 0.8 0 0-1 0.7 0-0.8 2-1.9 0-3.4-1-0.6 0.8-0.5 2.4-0.8 0.5-1.1-0.2-0.9-0.5-0.8-0.1-0.7 0.8-0.9-1.3-0.8-1.1-1-0.6-1.1 0.2 1-1.8 1.2-1.2-0.7-2 0.6-1.8 0.9-1.5 1.5-2.3 0.3-1-0.3-1-0.9-0.8-1 0.2-1.1 0.6-1.4-1.7-1-2.1-0.9-1-0.8-0.2-0.3-0.7 0.4-2 1.4 1.8 9.5 4 0 1-1.5 0z m-128.9-11.6l1 1.4 0.5 0.5-0.6 1.1-0.8 0.7-1.2 0.1-1.3-0.9-0.2 0.7-0.6 0.3-2.2-3.9 1.9 0.1 1.4-0.5 2.8-1.6-0.7 2z m-61.8 0l-1.9 4.8 0 2 1.9 0.9 0 1-1.5 0 0 1 1.5 0 0 0.9-1.2 0.4-0.7 0.8-0.5 1.3-0.8 1.3-0.8 1-1.4 1.4-3.1 2.2-1.8 0.5-4-0.2-1.1-0.4-2.4-2.1-1.2-0.4-0.9-0.7 0-1.7 1.1-5.4 1.4-1.6 3.5-2.2-0.8-0.5-0.8-0.2-0.7 0.1 1.6-2.3 3.2-2.7 3.5-2.1 3.3-1.1-1.7 2.5 0.9 1 3.1 0.5 1.5-2-0.7-2 1.5-0.1 1.5 0.1-0.2 1.1-0.8 2.1-0.5 0.8z m173.2-10l1 0 0.9 0.5 1.7 0.5 0.4 0.8-0.8 1.5-0.2 1.3 1.1 0.5 1.2 0.7 0.8 2.7 0.7 0.8 1 1.7 0 1.6-1.3 0.2 0 0.5-1.5 0.4-1.3-0.1-1.4-0.9 0-1.1 1.2-0.8 0.4-0.9-1-0.1-1.5 0.9-1.4-0.2-0.8-1.3 0.7-2.4-1.2-0.7-1.2-0.6-0.8-0.9-1.4-1.1-0.3-1.8 1.2-1.3 1.6 0.2 0.3-0.3 0-1 0.9-0.1 1 0.8z m-137.7 13.4l-0.3 2.7-1.1 5.8-0.2 3.1-3.2 6.9-0.6 0.5-0.8 0.1-1.6 0.7-3.9 3.8-1.3 0.6-2.1 0.5-1.3 0.9-0.2-0.9-0.4-0.2-0.8-0.9-0.5-1-0.7-2.8-0.4-1.1-0.7-0.8-3.1-2 0.5-0.7 0.1-0.9-0.4-0.8-1.1-2.1-0.2-1.1 0.3-1.2-1.7-3.4-1.3-1.7-1.5-0.8 0-0.8 1.2-0.9 1 0.9 1.2-0.9 4.2-4.9 7.3-5.4 0.7-0.8 1.6-3 0.9-0.4 2.2-0.2 1.3-1.1 1.8 1 2.8 2.2 1.3 2.5 0.7 2.5 0.3 6.1z m-125-15l1.5 0.9 0.7 0 0.6-0.8 0.5-0.1 1.3 0.9 0.7 2 0.3 2.5-0.1 2.7-0.2 2.6-0.7-2-0.8 0 0 1.7-0.4 1.3-0.8 1-1.1 0.8-0.8-1.1-0.1-0.6 0.9-0.2-1-0.6-1-0.2-0.9 0.1-1 0.7-0.2-1.4-0.7-0.3-0.6 0.8-1-0.6-0.8 0-0.7 0.6-0.7 0.9-0.4-1.7 1.3-1.2-0.8-0.8 0-0.7 0.5-0.7 1-0.7-0.4-1.1 0.2-0.4 1-0.4-0.8-1 3.6-2.4 1.9-0.5z m294.7-9.7l-1 0.3-1.2-0.8 0.2-1.8-0.2-0.3 0.6-1.3 1.8 0.3-1.3 1.7 0.7 0.4 0.9 0.9-0.5 0.6z m-40.8-6.5l0.5 0.4 0.7 1.2 2 0.6 1.9-0.6 0.6 0.6 0.3 1.2-0.3 0.8 0.2 0.4-0.5 0.5-0.3 1-0.5 0.5-0.6-1.1-0.9 0.6-0.5-0.5-0.4-1.7-0.7-0.4-1.6 0.2-0.4-0.8-1.7-0.2-0.5-1.2-0.6-0.6 0.4-1.1 0.5-0.2 0.2-0.7 1.1 0.1 1.1 1z m-19.2-7.7l1.3 0.6 1.1 0.8 0.7 0.8 0.8 1.4 0.3 1.4-0.6 0.3-0.6-0.6-1.6-0.8-1 0-1 0.8-0.6 1.6-1.1 0.5 0.6 0.9 1.3 1.7 0.3 4.8-1.2 0.4-1.2-0.8 0.1-0.9-0.3-0.7-1.4-0.5-0.4-1.2 0.5-3.5 0.4-0.9 0.2-0.9-0.3-1.3-0.3-1.9 0.3-1.7 1-0.1 1.3 0.1 1.4-0.3z m17.7-3.7l0.9 0.3 0.4 1.1 1.6 1 0.8 1.1-0.8 0.5-0.9 1.7-0.4-0.9 0.2-1.1-0.6 0.2-1.2-1.9-0.7-0.1-0.6-1.6-0.5-0.6 0.4-0.5 1.4 0.8z m23.2-10.7l4.5 0.5 0.8-0.5 0.8 0.4 1.1 0.9 1.3 1.4 0 0.8-0.5 0-1.2-1-0.5-0.1-0.6 1.3-0.9 0.5-1.1-1.1-0.7 1.5-1-0.5-0.7-1.2-0.1-1-0.5-0.7-1.3-0.9 0.6-0.3z m-277.4 6.9l1.5 2.1-0.5 3.1-1.7-0.5-1.2 1.5-0.7 2.5-0.3 2.3-3.6 3.7-2.5 1.4-2.4 0.6 1-5 1-2.3 1.8-1.4 0-0.9-1.5-1 0-0.9 0.9-1.5-0.2-1.5-1.2-0.7-1.8 0.7 0.8-3.8 2.3-2.6 2.7-2.1 1.9-2.2 0.8 0 0 2.1-0.3 1.1-0.7 2-0.5 0.7 4.4 2.6z m99-11.5l3.3 5.8 0.5-0.3 0.4-2.9 1.1-0.6 3.5 1 1.9 1.7 2.2 0.7 0.3 1-0.3 1.2-0.6 1.3-1.7 0.7-2.1 0-1.8 0.6-0.6 2.6-2.2-0.2-8.5 1.1 0.2-1.1-0.2-1.3 0.2-1 1.4-0.5 0.5-3.3-0.4-1.2-1.7-0.2 0.6-2.2 1.3-1 1.5-0.6 1.2-1.3z m-43.3 15.1l-0.8 0.7-6.8 3.6-1.6 1.2 0-2.4 0.7-1.5 0-1.1-0.7 0.1-2.3-0.1 0.3-1.2 0.4-1.1 0.7-0.9 0.9-0.6-1.6-0.9 2.1-0.5 1.3-1.9 0.5-2.4 0-2.1-0.7-3.1-0.1-1.2 1.1 0 2.8 0.3 1 1.2 1 2 0.8 2.2 0.3 1.5-0.3 1-1.1 1.3-0.2 1.2 1.8 1.5 0.5 0.9 0.3 1.5-0.3 0.8z m167.5-27.5l0.6 2.3 0.1 0.6-0.7 1.3-0.5 0.2-1.2-0.4-0.2-1.2-0.5-0.2-1.3-0.2-1.1 0.6-1.3-0.7 1-1 1.3-0.5 0.5 0 1.6-1.7 1.1 0.1 0.6 0.8z m-192.6 0l-2.6 0.3-5.1-1-1.5-0.9 2.1-0.4 1.8-0.8 1.1-1.3 1.4-0.9 1.9-0.2 0.9 0.9-0.4 2.6 0.4 1.7z m201.7-0.3l-1 0.9-0.7 1.1-0.9 0.2-1.1 1 0 0.9 0.3 1.1 1.1 1.7 0 1.8-0.4 0.8-0.5 0.5-0.7-0.5-1.3-2.2 0.1-1-0.8-0.8 0-0.7-0.6-0.7 0-2.5 0.2-1-0.2-1.3 0.5-0.4 0.7 0.3 0.4 0.7 0.4 1.7 0.7 0.2 0.6-1.4 0.9-0.1 0.3-0.4-0.1-2.7-0.3-1-1.5-0.4-0.1-1.5 0.3-0.8 0.7-1 1-0.4 0.8 0.4 1.1 1.2 0 0.9-0.3 0.9 0.4 0.8 0.8 0.3 0.2 0.7-0.3 1.4-0.7 1.3z m-163.1-7.5l0.5 0.8 1.8-1.3 2.1 0.3 1.9 1.3 1.1 1.7 1.7-2.1 3.2 0.6 3.4 1.6 2.5 0.8-0.7 1 0.9 0.4 0.6 0.8 0.5 1.3 0.3 1.4-2.8 3.9-0.8 3.6-1.3 0.6-5.2-0.8-3.1-2-1.9-0.5-1.1-0.6-1.4-2.6-2.5-1.2-3.8-4.3-4.4-2-1.2-0.9-0.7-1.2-0.8-1.7-0.3-1.7 0.4-1.2 1.4-0.5 6.3 0.5 1.6 0.8 0 1.1-0.9 0 0 1 1.2 0.1 0.8 0.4 0.7 0.6z m-79.9-5.1l3.2 4.3-0.8 4.5-2.9 4.2-3.3 3.6-3.1 4.5-2.2 1.7-2-0.8-0.1-2 0.6-7.1-0.2-1.2 0-2.7 1.2-3.2 1.9-2.2 1.7 0.4 0.8-1 0.6-1.1-1.4 0 0-0.8 1.1-0.8 1-0.3 0.9 0.2 0.7 0.9 0.8 0 0.1-0.9 1.4-0.2z m53.4-32.6l3 1.3 8.9 0 1.1 1.3-0.5 2.9-1.8 4.7 4.7 3.9-0.8 0.7-0.8 0.3 0.1 1.8-0.7 1.2-0.8 1-0.1 0.9 0.8 0.9 1.8-0.8 1.2 0.8 0.3 2-1 2.6-1.6 2.5-1.5 1.7 0.2 0.6 0.5 2.3-0.7 0-0.9-1.4-2.6-2-1.2-1.4-2.1-6-0.6-0.9-1.7-0.2-1.3-0.6-1.2-1.1-1.2-1.5-1.8-3.6-1.3-0.9-1.9 1.1-0.6-4-2.1-2.6-2.4-2-1.8-2.2-0.7 0-0.8 1.4-1 0.4-0.4-0.7 0.6-2.1-1-1.1-1.5-2.6-1.3-1.1 1.3-0.5 0.1-0.6-0.4-1-0.3-1.3 0.4-1.4 0.9-1 6.2-3.4 2.5-0.5 1.6 0.9-0.1 1.5 0.2 0.9 0.7 0.4 1.1 0.1 1.2 0.5 1 1 0.5 1.1-0.4 0.4 0 0.7 0.8 3.2 0.3 0.9 0.9 0.6z" id="GRC3013" name="Notio Aigaio" data-id="GRC3013" data-name="Notio Aigaio">
 </path>
 <circle cx="746.6" cy="128.8" id="0">
 </circle>
 <circle cx="658.1" cy="108.3" id="1">
 </circle>
 <circle cx="395.6" cy="565.2" id="2">
 </circle>
</svg>