<?xml version="1.0"?>
<!--
************* Copyright (c) 2017 Pareto Softare, LLC DBA Simplemaps.com *******************		
************* Free for Commercial Use, full terms at  http://simplemaps.com/resources/svg-license ************
************* Attribution is appreciated! http://simplemaps.com ***************************
-->
<svg baseprofile="tiny" fill="#7c7c7c" height="585" stroke="#ffffff" stroke-linecap="round" stroke-linejoin="round" stroke-width="2" version="1.2" viewbox="0 0 1000 585" width="1000" xmlns="http://www.w3.org/2000/svg">
 <path d="M242.7 265l-1.2 8.7-2.5 4-3.3 3.8-2.5 4.6-2.9 13-1.9 5.3-3.9 4.7-3.3-2.4-3.8 0.5-3.7 1.4-2.9 0.5-4.1-2.6-8.1-12.3-3.8-1.9-4 0-3.2-0.7-1.3-4.2-0.1-9.3-0.6-4.3-1.5-3.4 5.7-2 6.3 0.2 11.5 1.8 4.4-0.6 4.8-1.8 9.7-4.8-1.2-1.3 0.6-0.8 9-0.3 4.7 0.4 3.1 3.8z m117.6-26.1l-15.4 28.2-2 11.2-0.3 5.7 0.5 8.6-0.9 0.3-21 3.9-3.2 1.9-3.1 2.9-15.5 8.1-6.2 1.6 6.6-27 6-11.2 7.9-0.5 1.8 1.2 2.5 0.8 3 0.4 3.4-0.2 0-2.3-6.1-0.4-7.6-6.5-6.2 0.1-5.2 3.9-1.4 5.7-0.6 6.3-10.6 20.7-3.3 2-6.4-1.6-1.3-4.3 2.1-12.3-5.4 2.6-1.3 5.5-0.2 6.5-2.2 6.1-2 1.1-7.2 2.6-3 2-3.3 2.8-1.9 0.5-1.3-1.5-1.3-3-0.8-6.6 1.9-6.7 5.6-11.9 4.7-18.4 2-4.5 3.3-2.7 2.4-1.1 2.1-0.5 1.3-1.2 2.2-8.1 8.4-12.8 2.7-2.9 4.6-2.8 6.9-2.8 7.2-1.9 5.7 0.2 1.8 2 1.2 3.1 1.7 2.9 3.2 1.3 6.4 0.4 2.9 0.8 2.8 1.3 1-4.7 2.4-4.8 1.2-4.1-0.2-0.2 0.4-0.4 13-7.1 10.5 13 1 1.9 2.1 6.9z" id="GNB5500" name="Biombo" data-id="GNB5500" data-name="Biombo">
 </path>
 <path d="M385.8 261.5l-3.2 1.7-9.6 13.9-2.7 2.2-6.5 1.9-14.5 8.7-6.2 2.7-0.5-8.6 0.3-5.7 2-11.2 15.4-28.2 3.8 7 3 2.7 4 1.2 2.6 1.3 4.3 5.2 1.8 1.6 6 3.6z" id="GNB769" name="Bissau" data-id="GNB769" data-name="Bissau">
 </path>
 <path d="M270 512.8l2.2 14.4 2.3 3.1 2.3 2.4 1 2.9-1.7 4.3-3.8 2.1-4.5 0.3-3.3-1-2.6 1.6-3.4-0.2-8.6-1.4-2.7 2.2-2.1 0.5-1-1.6 0-4.4 1.1-0.9 2.4-0.3 3.4-0.9 9.1-4.3 2-1.6-1.5-3.7-3.7-1.3-3.3 1.8-0.4 5.5-2.4-2.3-2.1-2.5 2.9-4.9 1.5-3.9 0.4-4-0.3-5.1-1.8-7.5 0.5-4.3 3.5-4.3 6.3 4.8 5 6.5 3.3 8z m-23.5-5.7l0.7 9.8-0.9 4.5-3.2 5-6.9 8.4-3.8 2.4-1.6-3.9-1.1-5.3-1.9-4.1-0.4-4.2 3.4-5.8-7.5 0-3.6-3.2-0.3-5 2.7-5.2 4.6-3.7 17.4-5.6 1.3 2.8 0.7 4.5 0.4 8.6z m-29.9-4.5l-1.2 3.4 0.6 4.9 1.4 3.1 4.7 6.7-4.7 0 0 2.5 3.2 6.4-1.3 6.1-1.6 4.9 2.2 3-6.7 4.4-5.8 0.3-5.7-0.4-6.7 2.5-1.1-2.9-0.4-2.7 0.4-2.8 1.1-3.1-2 0-4.2 7 2 4.5-4.1-1.3-1.1-0.9-1.5-2.3-7.4 0.9-8.1-5.3-7-8.3-4.3-8 4.2-4.3 5.4-3.9 5.5-2 4.8 1.2-4.4 1.9-2 0.3 0.6 2.5 1.6 2.3 2.9-2.9 3.7-1.7 3.2-2.5 2.5-11.3 2.8-2 2.9-1.2 2-3.6 1.7 1.8 5 2.8 0.8-8.2 5-3.5 6.5 0.6 5.4 4.5 2.2 2.5-1 1.9-2 2.2z m71.3-9.3l-8.1 0.2-8-5.9-0.1-10.2 5.1-10.6 7.7-7.3 8.4-0.1 1.7 3.4-3.4 12.4-0.4 13.7-2.9 4.4z m60.2-27.8l1.6 10.9-0.6 6-1.6 1.3-2-3.8-3-4.3-4.7-0.4 0 2.4 2.4 0 0 2.3-2.4 4.5-1.8 2.3-2.4 2.1-2.7-3.5-4 1.4 1.7 3.5 0.4 4.9-0.8 5.1-1.3 4.7-2.5-4.4-3.2 0.4-3.2-0.4-3.2 3.8-3.1-1.8-2.2-4.5-0.6-4.5 2.3-2.1 3.7-2.6 1.3-2.5-5.1-1.8 0-2.1 6.9-7.2 0.3-1.5-0.6-3.9 0.3-1.4 1.5-0.4 4.1 0.5 0.8-1.2 3.5-6.6 7.8-2.2 8.4 0.2 5 0.8-1 6z m-177.3-8.5l2.9 3.9 3.7 0.4 4.2-0.6 4.7 0.9 1.4 2.4 1 4.3 0.4 4.3-0.3 2.6-3.9 1.6-3.2 2-1.4 3.1 1.4 4.8-21.3 1.8-4.2-0.8-8.7-4.2-1.5-0.1 0.4-4 1.2-3.2 2.2-2.3 3.2-0.8-0.4-5.6 4.5-5.3 6.3-3.2 5 0.5 2.4-2.5z m176.1-61.2l1.2 1.6 1.1 0.6 2.1-0.2-0.6 2.6-1.6 2.2 1.9 2.6-1.6 2.7-7.2 5.8-2-4.3-2.4 0-3.7 3.6-5.3 0-4.6-2.4-1.8-3.5 1.6-3 2.7-0.3 4.4 0.8 2.5-2.4 1.8-2.8 1.4-2.9 1-3.2 2.4 2.5 1.7-1.5 5-3.3 1.6 1.4 0.1 0.9-1.7 2.5z m-175.8 14.7l-1 1.8-1.7 1.4-2.8 0.1-10.5-2.3-6.9 0-3.9-0.5-4.6-1.6 3.9-2.7 5.9-3.1 5.4-3.9 2.4-5.2 3.7-3.2 8.3-2.5 9.1-1 5.7 0.9 1.6 3.4-1.1 3.1-9.7 10.3-1.9 1.6-1.1 1.5-0.8 1.9z m-12-42.5l0.4 2.6-1.1 6-2.5 4.9-5.3 7.2-1.3 3-1 3.7-2 0.8-3.3 0-4.8 2.2-2.3 2-2-1.3-4.2-4.9-2-0.7-17.1-0.2-2.9 2.6-2.6 1.6-3.6 0.3 1-2.2 1.5-2.3-2.1-4.2 2.1-2.6-3.3-1.9-1.4-0.4 12.1-6.1 13.4-0.3 12.3-1.6 8.9-10.1 1.5 0.4 0.9 1.8 4.8-0.3 2.2-0.8 1.9-1.1 1.8 1.9z m101.4-0.2l2.7 0.2 1.3-4.4 4 4.2-1 8.9 3.7 3-4.1 6.7-1 8.1 1.5 8.1 3.6 6.8-6.5 2.3-8.4 4.8-7.2 1.8-2.6-6.8-2.4 0-0.4 1.5-1.6 3.2-4.5-4.7-1.9 3.6-2.9 2.7-3.2 1.7-3.1 1-3.1-4.3-11.2-8-1.4-3.6 11.3-6.8 7.3-8 1.4 0.1 1-5.5 2.5-7.2 3.2-6.2 3.4-2.7 5.2-2.1 7.4-7.8 4.1 0.6 0.4 5.3 2.5 3.5z m148.8-17.9l-0.2 4.6-3.6 3.8-0.9 4.1 1.9 3.7 3 3.4 0.4 2.4-6.3 1-4.1-0.6-2.8-2.1-3 0.4-0.5 0.9-6.3 5.9-1.7 0.4-7.2-0.4 0 2.3 6.9 2.5-1.3 5.2-4.5 3-3.1-3.9-3.7 1-4.4-0.5-5.3-1.7-1.6 1.2-2.7-2.2-0.9-3.1 4-1.5 4.3-2.4 3-5 4.1-4.2 7.6 0.2 0.6-5 3.3-3.7 4-3.3 3-3.9 5.5 1.5 4.9-1.5 4.2-2.1 3.4-0.4z m14.9-16l1-0.9 11.1-2.6 4.5-0.5 1.7 0.1 6 1.1 3.6 1.5 0.1 0.5-2.8 0.9 2.3 4.6-4.5 0 1.3 8.7 1.6 3.8 3.8 3.4-2.2 4.5-4.9-3.5-4.4-4.7-6.5-9.9-1 5.8 2.3 5.6 3.3 5.5 2.1 5.8-1.6-0.7-5.1-1.6-1.5 4.5-2.7 0-2.3-3.3-0.1-5.7-2.3 0-1.3 3-1 3.4-0.3 3.6 0.2 3.8-4-2.3 0 6.6-3.4-2.2-1.3-2.9-0.9-3.6-2.4-3.8-1.8-3.6 1.4-2.6 3.7-2.8 1.6-5 3.4-5.1 3-6.1 0.3-3.3z" id="GNB770" name="Bolama" data-id="GNB770" data-name="Bolama">
 </path>
 <path d="M346.7 217.1l-13 7.1-0.4 0.4-2.2-2.3-1.9 1.3-3 3-4.5 2.6-6.1-0.1-2-1.3-2.2-3.9-2.5-1.6-2.9-0.9-2.7 0.6-12.3 0.9-4.2-1.2-2.3-4-2.2 0-2.4 5.5-6 3.5-7.5 1.8-6.6 0.6 0.9 2.4 1.4 2.4-2.3 0.6 0 1.4-2.6-1.4-1.7 0.1 1.1 4.5-0.6 4.1-2.8 4.3-4.8 4.4-4.4 1.9-24.1 0.3-3.2 1.1-6.5 3-2.6 0.7-1.7 1.1-2 2.4-2.8 2.4-3.7 0.9-3.1-1.1-2.9-2.5-5.1-5.7-7.9 1.8-10.4-1.9-9.1-3.9-3.8-3.9-6.7-14.6-3.1-1.9-8.7-1.3-3.8-1.6-2.8-3.1-2-4.1-1.2-4.7-1.2-10.2-3.2-8.5-0.7-4.6 8.9-19.4 3.4-4.1 3.8-3.2 4-2.4 4.2-1.9 0.1 4 1.6 2.9 2.5 0.7 2.8-3 0.3-2.8-2.8-4.9 0.1-3.7 3.6-5.2 5.6-3.5 6-2.5 23.9-14.2 5.3-4.4 2.6-3.1 3.6-5.7 2.9-2.6 2.9-1.3 7.2-1.8 3.2-1.2-8.6-0.3-5.8 2.4-4.5 4.5-4.5 5.8-6.6 4.6-16.7 3.5-6.8 2.3-11.2 7.2-3.2 2.9-11 12.6-6.1-2.6 0.5-6.1 2.4-7.5-0.3-6.5-1.6 4.9-4.2 6.6-2 12.1-3.2 4.9-4.9 1.6-6.3-2.8-2.2 2.2-0.9-1.4-3.7-3.1-0.7 4.4-2.6 2-4 0.5-4.9-0.1-2.7 3.6-2 1.5-1.4-2.9-1.4-1.1-1.8-0.8-6.3-1.2-3.1-2.2-1.8-3.3-0.6-3.8-2.1-1.8-7.8-8.9-0.1-2.1-2.3-1.2-6.9-5.8-3-1.8-1.6 0.3-4.9 1.9-2.4-0.2-1.9-1.6-3.1-5.2-1.7-2.3-12.1-9.5-3.7-1.9-4.8 0-3.7 1.6-3.3 2-3.9 1.2-2.4-2.9 7.4-5.2 12-2.9 44.1 3 6-0.3 17-4.2 16.3-0.2 9.9-4 26.1-14.2 22.4-12.2 3.4-0.7 3.5 0.6 7 2.8 2.7 0.5 3-1.7 2.2-1 24.5-4.3 11.6 1 20.3 6.9 6.3 1.1 25.8-1.8 59.3 3.5 11.2-2.4 82.2-38.6 0.9-0.7 0.8 1.9 6 20.5 1.2 7.6-0.3 4.5-0.7 4.7-2 7.4-1.5 2.1-3.3 2.1-10.8 7.6-1.9 0.7-1.8 0-2.3-2.2-1.7-5.4-1.4-0.9-1.8-0.3-6 0.8-1.5-0.4-2.5 0.4-3.3 1.2-6 4.3-3.3 1.6-6.2 2.4-12.4 7.9-1.7 2.1-1.8 3-1.6 1.5-6.5 3.3-1.8 0.3-6.1-0.3-2.4 0.3-2.9 1.3-1 1.5 0.4 3.3-0.2 2.1-1.4 1.1-1.8 0.6-3.7 0.2-1.1-0.8-0.6-3.2-1-1.6-1.7 1-2 2.3-3.7 5-0.3 2.2 1.4 2.8-0.4 2.1-2.6 2.2-0.5 2.9 1.6 2.7 4.5 5.1 7.5 6.3 3.2 3.6 2.6 2 1.6 0.8 8.7 2.8 1.4 1 1.9 2.7 0.2 2.6-0.4 3.5-3.9 13.7 0 2 0.7 4.1 0 2.7-2.6 9.7 0.1 2.1 1.2 4.2z" id="GNB771" name="Cacheu" data-id="GNB771" data-name="Cacheu">
 </path>
 <path d="M604.9 1.4l3.7 6.8 0.5 3.9-0.1 3.8-1.4 4-5.2 8.7-1.5 3.4-3.1 4.7-1.5 2.7-1.9 5.2-0.1 2.8 0.6 2 1.2 1 8.1 5.6 4.4 4.3 1.6 2.3 2 4.6-0.4 1.8-2.2 2.3-4.8 2.2-5.3 4-5.1 1.9-15.7 3.2-1.7 0.7-0.5 1.8 1.2 32.7 1 3.9 1.7 2.7 6.3 5.2 1.3 1.4 0.9 2.7 0.7 4.5-0.9 6.5-0.2 15.3-0.7 2.8-1.3 0.9-3.6-0.6-6.3-0.3-3.6-0.8-8.5-4.7-2.3-0.7-1.6 0-3.4 1-1.8 0.3-5.1-0.8-1.4 0.6-2.5 2.1-3.1 3.7-2.5 3.8-0.6 2.5 0.2 2 10.2 17.7 1.4 3.2 1.2 8.2 0.5 1.7 1.1 1.2 1.5 0.9 3.6 0.9 2.7 1.3 1.7 1.3 13.2 7.6 1 1.6-1.7 4.7-0.6 2.3-0.1 2.1 0.6 2.4 2.2 4.7 0.9 3.4-0.7 1.5-2.3 1.5-3.3 1.4-3.5 0.8-4.7-0.5-0.1-2-2-2.4-2.3-1.4 0-1.1-3.3-1.1-3.7-0.2-3.2 1.4-2.6 0.5-7.2-3-3.5-0.8-4.6 1.4-10.1 6.1-5.2 1.4-2.8 2.2-9.3 10.4-4.7 3.3-7.4 1.3-6.1-1.2-13.1-4.5-12.6-2.1-4.1-1.9-4.6-4.1-6.1-4.1-7.3-1.7-7.7 0.4-7.1 2-2.4 1.6-5.3 4.5-2.1 0.9-7-0.4-3.6 0.2-2.7 1.2-10.2 10.4-2 1.2-3.5 1.4-6-3.6-1.8-1.6-4.3-5.2-2.6-1.3-4-1.2-3-2.7-3.8-7-2.1-6.9-1-1.9-10.5-13-1.2-4.2-0.1-2.1 2.6-9.7 0-2.7-0.7-4.1 0-2 3.9-13.7 0.4-3.5-0.2-2.6-1.9-2.7-1.4-1-8.7-2.8-1.6-0.8-2.6-2-3.2-3.6-7.5-6.3-4.5-5.1-1.6-2.7 0.5-2.9 2.6-2.2 0.4-2.1-1.4-2.8 0.3-2.2 3.7-5 2-2.3 1.7-1 1 1.6 0.6 3.2 1.1 0.8 3.7-0.2 1.8-0.6 1.4-1.1 0.2-2.1-0.4-3.3 1-1.5 2.9-1.3 2.4-0.3 6.1 0.3 1.8-0.3 6.5-3.3 1.6-1.5 1.8-3 1.7-2.1 12.4-7.9 6.2-2.4 3.3-1.6 6-4.3 3.3-1.2 2.5-0.4 1.5 0.4 6-0.8 1.8 0.3 1.4 0.9 1.7 5.4 2.3 2.2 1.8 0 1.9-0.7 10.8-7.6 3.3-2.1 1.5-2.1 2-7.4 0.7-4.7 0.3-4.5-1.2-7.6-6-20.5-0.8-1.9 17.3-12.7 19.8-9.2 18.9-13.6 8.4-3.9 9.3-1.4 105.1 0.4z" id="GNB772" name="Oio" data-id="GNB772" data-name="Oio">
 </path>
 <path d="M587.6 304.3l1.4-4.4 2.1-1.8 3.5-0.2 2.9 1.3 1.2 2.4 0.5 2.5 1.8 3 1.2 2.9 0.9 1.2 3.3-1.7 1.3 0.2 8.3 3.7 1.3 1.4-1.2 2.7-8.2 9.7 0.5 1.7 10.3-1-7.8 14.2-14.7 22-4.4 9.5-0.8 6.1 0.2 6.1-0.1 2.1-0.9 3.5-0.8 1.3-4.4 5.2-3.7 7.9-3.6 5.4-1.9 1.4-2.8 1.3-12.6 2.9-4.8 2.1-1.8 0.5-7.7 1.2-11.8 4.2-4.9-0.6-3.6-1.8-3.5-2.8-5.1-6.5-1.1-1-3.8-1.6-5.4-4-5.8-3-1.7-0.6-5.9 2-16 13.4-3.1 2.2 1.7-4.3-17.9 14.6-6.5 3.5-5-2.9-1.1-3.9 1.6-10.2 2-3.2 3.8-4.1 2.6-3.7-1.7-1.7-5.6 1.5-4.2 4.2-2.8 5.6-0.9 5.9-2.1 3.8-4.7 2.4-5.3 1.9-3.7 2.2-3 5.2-1.7 4.4-2.8 3-6.7 1.2-4.3 1.3-3.6 1.9-2.7-0.9-1.5-7.1 1-3.5 4.9-12 1.6-2.6 1-2.3 9.1-13.6-5.7-0.2-2-2.3 0.1-3.9 1-4.9 2.5 1.6 2.9 0.2 2.9-1.4 3-2.9 0.2 2.1 1.8 4.9 1.4-4.4 2.5-3.7 2.7-0.8 2.3 4.4 2.4 0-0.3-3.3-0.9-3-1.4-2.8-2-2.5 1.5-0.3 0.7-2 2.9 1.3 3.6 0.7 4.6 0.3 5.4 1.4 1.8-1.1-2.6-4.8 1.1-2.6 1.1-4.2 2.3 0 2.6 3.6 4.5-0.6 3.8 0.1 0.2 5.9 6.2-2.2-0.2-4.5-3.8-5.1-4.7-4-1.3 0.8-5.1 1.4 0-2.2 7.1-2.5 3.3-1.9 3.1-2.7 2.4 4.2 4.1 4.8 5.3 2.6 6-2.3-4-0.6-0.3-2.2 0.7-3.1-0.9-3.4-2.5-1.3-2.8 0.1-2.3-1-1.3-4.4 3.8 1.3 7 1.5 2.6 1.6 4.4-2.3-0.7 2.2-0.9 4.7-0.8 2.2 8.1 5.7 2.4-0.5 3-5.2-1.6-2.9-4.2-5.6-0.8-1.7 0.9-2.2 2.2-2.6 2.8-2.2 2.7-1 3.2 2.3 3.4 1.6 3.6 0.6 2.1 1.2 1.2 2.9 0.4 3.7-0.1 3.6 6.3-2.3-2.1-4.5 4.9 0.3 3.4 1.8 2.6 3.1 2.4 3.9-12.8 2.5-4.7 0 2.2 3 1.2 0.9 2.9 0.6-1.4 5.2 1.8 3 2.8-0.3 3.1-8.8 3.8-0.4 3.9 0.8 1.7-0.6 10.3-0.7 3-0.5 3.8-1.9 2.6-2.1 1.6-3.1 1.1-4.4-4.1 1.3-2.9 1.6-3.3 1.3-10.9 1.2-2.4-0.8-1-3.5 0.6-1.5 1.7-1.1 2.2-0.6 2.3-0.2-1.2-3-0.1-1.8 1.3-4.3-3.7-0.9-2.9 1.8-1.9 3.6-0.6 4.6-4.4-5.1-2.8-1.6-4 0.1 0-2.5 2.3-1.3 4.7-5.5 0-2.3-2.4-4.5-2.2 0-4.5 11.3-3.9 1-4.9-2.8-4.5-0.4 3.4-5.1 4.6-2.3 3.9-2.6 1.4-6.1-2.7 2.9-3.1 1.5-2.9 0-2.6-2.2-2 0-0.3 3.5-1 2.1-2 1.1-3.4 0.3 1 4.9-2.4 1.3-3.3-1.7-1.9-4.5-5 7.2-2.7-1.9 1.6-5.7 8.1-4.1-2.9-2.1-1.2-2.7 0.4-3.1 1.7-3.5 2 0 2.7 1.4 3.9 0.7-1.4-4.6-2.9-3-6.5-3.5-2.3 0-0.9 5.4-2.2 4.3-1.7 4.6 0.4 6.1-3.4 1.4-2.9 4.2-2.8 1.2-2-1.1 0.9-3.1 3.3-5.1-3.8-1.6-0.7-4.1 2.3-10-3.2 1.9-2 2.9-1.1 3.5-0.4 4.1-1.3 0.3-6.8-0.1-3 0.9 4.5 2.2 0 2.5 3.7 2.6 3.8 2.4 1.5 3-1.2 4.4-2.9 1.1-3.1-1.4-1.8-3-1.6 2.6-1.2 2.8-1 2.9-0.7 3-2.4-12.8-2-4.5-1.7 0.5-0.1-0.5-3.6-1.5-6-1.1-1.7-0.1-4.5 0.5-11.1 2.6-1 0.9 0.4-4.4-10.6 10.2-5.6 2.9-5.8-4 1.6-2.9-0.1-7 0.5-3.9-4.2-0.2-2.7 1.3-1.9 2-2.1 1.6-0.1 1.1-2.4 2.9-2.9 1.8-1.4-2.4-1.2-5.5-1.7-5.4-0.1-5.6 6-9.1 2.7-7.3 2.2-3.4 12.2-12.5 3.6-2.5 2-0.8 0.9-1.1 0.2-3.8 0.8-3.3 1.9-2.9 4.2-4 2 0 0.9 2.2 3.5 2.5 1.3-3.1 1.6-1.2 1.9 0.3 2.1-0.7 7.5 0.2 13 3.6 7.2 0.9 40.1 0 1.7-1.1 5.5-5 1.7-1.1 8.6-2.1 5.4-4.7 4.3-5.3 5.1-3.6 7.5 0 1.4 5-2.3 6.8-3.2 5.1-2.5 6.3 0.3 8.3 2.2 8.2 3.3 5.7 6.3 2.9 8.2 1.4 7.3 2.4 3.1 6 3.4 3.8 7.6 1.7 7.6-1.3 3.4-5.5z" id="GNB773" name="Quinara" data-id="GNB773" data-name="Quinara">
 </path>
 <path d="M777 2.2l-5.3 10.9-1.4 4.7-1.4 2.3-1.6 1.6-3.5 0.7-1.5-0.4-1.1-1.1-1.8-2.7-3.6-2.9-1.2 0.6-0.6 2.4 1.4 18.9 1.2 4.4 2.1 2.5 3.2 1.3 2.2 2.1 2.4 0.6 0.7 1.4-0.4 2.5-1.7 4.4-2.5 3.9-2.1 0.7-1.6-0.2-1.6-1.1-2.2-2.1-2.8-1.7-1.9 0.1-2.8 1.6-3.7 3.9-2.4 1.1-1.3-0.1-1.5-1.4-1.2-2.9-1.1-1-1.6-0.4-3.6 0.5-1.8 0-1.4-0.6-2.6-2-2.7 1-1.5 0.3-1.3-0.6-0.4-1.5 0.3-3.8-1.5-1.3-1.6 0.1-1.4 0.7-0.7 2.1-0.3 3.1 1.1 5.9 0.9 3 1.3 2.1 1.4 0.7 1.9 0.1 3.1-1.1 4.5-2.7 3-0.4 2.6 1.7 4.3 5 1.5 3.2 0 2-0.6 2-1.9 1.8-3.4 1.3-2.1 2.3-1.2 0.8-1.3-0.1-1.1-0.9-1.5-2.8-1.6-1.1-1.2 0.3-0.8 1.4-0.1 2.2 1.6 5.8 0.8 1.7 0.1 2.2-1.2 1.5-3.3 1.7-3.9 0.5-1.7-0.2-2.5-1.3-2.5 0.9-2.3 2.3-1.2 2.6 0.4 1.1 2.4 1.5-0.6 1.5-1.6 2.1 0.5 1.5 5.4 1 2.6 2 1.9 2.7 2.4 2.2 1.6 0.8 5.5 1.6 4.2 2.2 2.4 2.3 0.9 1.3 0.5 1.9 0 2.3-1.1 3.9-0.9 2.2-1.8 3.2-0.4 2.1 0.1 2.7 5.1 17.4 2.2 3 2.8 1.7 3.3 1.2 2.4 2.1 0.4 2.7-0.7 3.9-2.8 7.2-2.1 2.5-2 1.1-1.6-0.2-3 1-3.6 3-1.4 0.8-3.1 0.3-4-0.8-3.6 0.5-1.5 1.2-1 2-0.6 3.8 0 2.9 1.1 3.2 2.7 2.9 2.7 1.6 4.9 2.2 1.2 0.8 0.9 2.6-0.1 4.4-1.5 9.3-1.2 4-2.4 4.6-0.1 2 1 3.2 2.1 3 6.7 4.9 1.1 1.1 0.5 1.9-0.1 2.7-4 11.3-0.4 2.8-0.3 3.9 0.7 15.2 1.8 12.2-0.1 6.2 0.6 2.2 0.9 1.7 3.5 3.4 0.3 1.7-0.5 2-2.4 2.7-1.9 1.4-5.3 2.4-2.4 1.8-1.2 4.4-1.7 18.6-7.4-0.5-14.9 1.5-7.4 1.7-9.1 4-3 0.3-2.1-0.9-4.8-3.7-5.4-0.3-3.3 1.1-8.6 8.9-7.8 2.5-9-3.8-8.2-7.1-5.3-7.4-1.6-5.5 0-3.8-1.4-3-5.7-3-10.3 1-0.5-1.7 8.2-9.7 1.2-2.7-1.3-1.4-8.3-3.7-1.3-0.2-3.3 1.7-0.9-1.2-1.2-2.9-1.8-3-0.5-2.5-1.2-2.4-2.9-1.3-3.5 0.2-2.1 1.8-1.4 4.4-8.5 2.9-5.9-5.2-4.5-7.5-4.4-3.8-9.6-1.2-2.9-0.9-3.7-2.3-1.9-2.3-1.6-2.6-2.7-3.2-1.4-4.3 2.9-4 4.1-3.8 2.1-3.9 6-16.3 0.2-2 1.4-0.9 4.8-0.3 3.3-1 4.7 0.5 3.5-0.8 3.3-1.4 2.3-1.5 0.7-1.5-0.9-3.4-2.2-4.7-0.6-2.4 0.1-2.1 0.6-2.3 1.7-4.7-1-1.6-13.2-7.6-1.7-1.3-2.7-1.3-3.6-0.9-1.5-0.9-1.1-1.2-0.5-1.7-1.2-8.2-1.4-3.2-10.2-17.7-0.2-2 0.6-2.5 2.5-3.8 3.1-3.7 2.5-2.1 1.4-0.6 5.1 0.8 1.8-0.3 3.4-1 1.6 0 2.3 0.7 8.5 4.7 3.6 0.8 6.3 0.3 3.6 0.6 1.3-0.9 0.7-2.8 0.2-15.3 0.9-6.5-0.7-4.5-0.9-2.7-1.3-1.4-6.3-5.2-1.7-2.7-1-3.9-1.2-32.7 0.5-1.8 1.7-0.7 15.7-3.2 5.1-1.9 5.3-4 4.8-2.2 2.2-2.3 0.4-1.8-2-4.6-1.6-2.3-4.4-4.3-8.1-5.6-1.2-1-0.6-2 0.1-2.8 1.9-5.2 1.5-2.7 3.1-4.7 1.5-3.4 5.2-8.7 1.4-4 0.1-3.8-0.5-3.9-3.7-6.8 172.1 0.8z" id="GNB776" name="Bafatá" data-id="GNB776" data-name="Bafatá">
 </path>
 <path d="M748 373.8l-7.5-10.6-1.6-5.8 0-2.4-1.2-4.9-14-3.2 1.7-18.6 1.2-4.4 2.4-1.8 5.3-2.4 1.9-1.4 2.4-2.7 0.5-2-0.3-1.7-3.5-3.4-0.9-1.7-0.6-2.2 0.1-6.2-1.8-12.2-0.7-15.2 0.3-3.9 0.4-2.8 4-11.3 0.1-2.7-0.5-1.9-1.1-1.1-6.7-4.9-2.1-3-1-3.2 0.1-2 2.4-4.6 1.2-4 1.5-9.3 0.1-4.4-0.9-2.6-1.2-0.8-4.9-2.2-2.7-1.6-2.7-2.9-1.1-3.2 0-2.9 0.6-3.8 1-2 1.5-1.2 3.6-0.5 4 0.8 3.1-0.3 1.4-0.8 3.6-3 3-1 1.6 0.2 2-1.1 2.1-2.5 2.8-7.2 0.7-3.9-0.4-2.7-2.4-2.1-3.3-1.2-2.8-1.7-2.2-3-5.1-17.4-0.1-2.7 0.4-2.1 1.8-3.2 0.9-2.2 1.1-3.9 0-2.3-0.5-1.9-0.9-1.3-2.4-2.3-4.2-2.2-5.5-1.6-1.6-0.8-2.4-2.2-1.9-2.7-2.6-2-5.4-1-0.5-1.5 1.6-2.1 0.6-1.5-2.4-1.5-0.4-1.1 1.2-2.6 2.3-2.3 2.5-0.9 2.5 1.3 1.7 0.2 3.9-0.5 3.3-1.7 1.2-1.5-0.1-2.2-0.8-1.7-1.6-5.8 0.1-2.2 0.8-1.4 1.2-0.3 1.6 1.1 1.5 2.8 1.1 0.9 1.3 0.1 1.2-0.8 2.1-2.3 3.4-1.3 1.9-1.8 0.6-2 0-2-1.5-3.2-4.3-5-2.6-1.7-3 0.4-4.5 2.7-3.1 1.1-1.9-0.1-1.4-0.7-1.3-2.1-0.9-3-1.1-5.9 0.3-3.1 0.7-2.1 1.4-0.7 1.6-0.1 1.5 1.3-0.3 3.8 0.4 1.5 1.3 0.6 1.5-0.3 2.7-1 2.6 2 1.4 0.6 1.8 0 3.6-0.5 1.6 0.4 1.1 1 1.2 2.9 1.5 1.4 1.3 0.1 2.4-1.1 3.7-3.9 2.8-1.6 1.9-0.1 2.8 1.7 2.2 2.1 1.6 1.1 1.6 0.2 2.1-0.7 2.5-3.9 1.7-4.4 0.4-2.5-0.7-1.4-2.4-0.6-2.2-2.1-3.2-1.3-2.1-2.5-1.2-4.4-1.4-18.9 0.6-2.4 1.2-0.6 3.6 2.9 1.8 2.7 1.1 1.1 1.5 0.4 3.5-0.7 1.6-1.6 1.4-2.3 1.4-4.7 5.3-10.9 200 0.8-2.6 22 0.6 7.4 3.1 9.1 16.4 20.7 3.6 6.8 0.9 5.7-1.2 5.7-5.7 13.7-0.7 2.8-0.4 4.3 1.1 9.6-0.4 3.9-2.6 6.5-1.3 8.7-5.4 8.5-9.5 3.6-22 0.2 4.2-7.5-5.5-1.6-8.9 2.1-6.2 3.7-7.9 6.6-19.7 9.2-7.1 8.1-0.9 3.5 0 7.1-1.3 3.7 2.5 1.2 8.5 1.2 6.6 2.2 6.2 3.8 6.3 6.2 3.3 2.3 8.9 3.1 1.5 2 0.8 2.6 1.8 3.2 7.2 7.9 3.8 2.7 5.3 2.3 11.5 1.8 3.1 1.5 3.5 5.5 0.5 6.3-2.9 13.5-1 13.8 4.9 39.3 0 5.9-1.7 14.3-1.7 4.4-5.2 3.9-7.9 3.2-8.3 1.5-6.5-0.9-2-2.5 0.7-2.4-0.2-2.2-4.7-1.3-2.7-1.7-1.1-6.7-2.8-2-4.9-0.1-1 1.8 1.5 3.7-0.7 7.6-0.9 3.2-4.2 6.3-5.6 3.4-6.6 0.1-7-3.5-2.6 2-14 8.6-6.1 2.2-14.2-2.3-5.2 0.1-9.7 1.7-4.5 0.2-5.4-1.2-3.1-1.9-2.8-2.5-2.8-2-3.3-0.6-7.5 1-27.3-1.8-1.8-1-1.7-0.2-3.5 1.9-2.5 2.8-3.8 8-2.2 3.3-4.1 3.3-30.3 16.7z" id="GNB777" name="Gabú" data-id="GNB777" data-name="Gabú">
 </path>
 <path d="M723.7 346.9l14 3.2 1.2 4.9 0 2.4 1.6 5.8 7.5 10.6-28.9 15.8-13.4 2.5-27-3.2-13.5 1.5-7.9 4.3-5.8 6.5-32.3 47.6-4.9 12.5-6.5 26.1-31.2 60.7-10.9 13.1-9.2 9.6-12.7 9-8.2 4.2-3.8-0.6 0.9-4.3 2.3-2.3 2.9-1.5 2.8-2 4.8-7.5 2.1-1.8 0-2.3-2.4 0-1.4 3.1-1.7 2.7-2.3 2.1-3.5 1.2-3.9 0.1-3.5-0.8-2.7-1.9-1-3 5.8-24.4 1.9-4 3.5-1.8 2-4.4 1.6-4.9 1.9-3.7 1.9-1 4.1 0.3 1.7-0.6 0.2-1.3-0.4-4.4 0.2-1.1 13.5-1.1-0.6-2.8-1.7-2.2-2.1-1.8-2.2-1.1 4.3-4.7 2.6-6.3-0.4-5.9-4.5-3.5-3 8.6-4.8 6.3-6.5 3.9-7.9 1.6 1.8 5.3-1.4 3.3-3.3 0.6-3.6-2.5-2.2 4.6-0.2 2.2-1.3-0.8-3.3-1.4-0.2 6.4-1.9 3-3.3 2.1-4.5 3.4-3.7 4.8-4.8 9.4-8.4 11.5-3.6 3.5-4 1.4-4.2-1.9-5-4.3-3.7-5-0.4-3.5 3.6-2.6 9.7-4.9 3.5-2.7 1.6-3.8 2.6-14.6-3.5-27.9 3.5-8.1-7.3 1.1-1.9 4.9 1 6.4 1.7 5.7 0.5 5.1-0.4 8-2.4 5.7-8.4-3.3-11.5 0.2-3.4-1-5.7-3.6-7.5 1.1-4-0.6-1.8-3.7-0.9-3.7-2.3-2.4-3.2-1.4-3.7-0.4-4.8-3.5-1.2-8 0.4-15.9 0.8-3.6-0.2-2.2-1.8-1-3-0.4-0.5-3.1 0.4-3.5 1.7-4.4 0.3-3.5 1.6-3.1 8.3-11.2 3.5-2.8 2.1 0.5 6.5 3.1 3.8 0.8 3.2-1.1 4.6-4.5 3.3-1 3.3-1.9 3.9-4.4 3.3-5.3 3.1-2.2 16-13.4 5.9-2 1.7 0.6 5.8 3 5.4 4 3.8 1.6 1.1 1 5.1 6.5 3.5 2.8 3.6 1.8 4.9 0.6 11.8-4.2 7.7-1.2 1.8-0.5 4.8-2.1 12.6-2.9 2.8-1.3 1.9-1.4 3.6-5.4 3.7-7.9 4.4-5.2 0.8-1.3 0.9-3.5 0.1-2.1-0.2-6.1 0.8-6.1 4.4-9.5 14.7-22 7.8-14.2 5.7 3 1.4 3 0 3.8 1.6 5.5 5.3 7.4 8.2 7.1 9 3.8 7.8-2.5 8.6-8.9 3.3-1.1 5.4 0.3 4.8 3.7 2.1 0.9 3-0.3 9.1-4 7.4-1.7 14.9-1.5 7.4 0.5z" id="GNB778" name="Tombali" data-id="GNB778" data-name="Tombali">
 </path>
 <circle cx="536.2" cy="454.8" id="0">
 </circle>
 <circle cx="514.5" cy="454.8" id="1">
 </circle>
 <circle cx="547" cy="465.9" id="2">
 </circle>
</svg>