<?xml version="1.0"?>
<!--
************* Copyright (c) 2017 Pareto Softare, LLC DBA Simplemaps.com *******************		
************* Free for Commercial Use, full terms at  http://simplemaps.com/resources/svg-license ************
************* Attribution is appreciated! http://simplemaps.com ***************************
-->
<svg baseprofile="tiny" fill="#7c7c7c" height="1506" stroke="#ffffff" stroke-linecap="round" stroke-linejoin="round" stroke-width="2" version="1.2" viewbox="0 0 1000 1506" width="1000" xmlns="http://www.w3.org/2000/svg">
 <path d="M588.8 1450.6l0-0.3 1.7-11.9 1.7-4.7 7.1-10.2 8.8-8.9 2.3-3.3 10.2-24.1 8.5-12.6 7.4-14.1 32.3-90.4 13.9-27 2.6-7 0.9-3.8 0.4-4.2 0.1-6-2.2-26.2 0-3 0.9-4.4 3.2-6.1 15.9-21.4 0.7-1.5-0.7-4-12.8-30.2-21.4-30.7-2.2-6.2-1.1-5.9-0.5-5.5 1-9.3 0-3.8-7-27.2 0-4.7-0.6-4.5-1.1-3-6.5-13.3-18.9-28.1-1.6-3.3-1.6-4.3-6.3-26.2-0.4-3.6 0-2.7 1.4-5.8 0.1-4.5-8.3-28.3-12.3-17-3-5.9 0.8-4.3 8.1-22.2 3.6-13.4 17.3-30.4 2.2-7.7 34-0.7 6.3-1.3 3.6-2 8-23.1 3.1-12.7 3.2-8.4 5.2-7.1 19.8-22.3 10-26.2 4.2-7.5 6.6-8.8 4.9-12.8 3.2-5.7 6.5-6.8 1.2-3 0.9-4.5 1.6-19.5 10.9-45.5 3.8-9.4 0.3-1.6-0.3-3.5-3.1-3-2.7-0.6-3.3-3.6-6.2-13.5 0.6-6.9-0.8-9.8-1.1-4.8-3.5-5.7 2.5-2.4 2.5-1.1 1.8-0.5 1.4 0.1 1.8 1 2.8 2.3 2.2-0.3 1.9-1.8 4.2-7.5 1-3.3 0.1-1.2-0.8-1.9-3.1-2.5-0.4-0.9-1.6-6.6-0.3-3 0.5-2.6 1.9-2.6 2.1-1.1 10.5-1.7 2.9-0.9 2.1-1.2 1-1.1 0.3-2.5-1.1-4.3 0.8-3.8 1.1-2.3-0.3-1.4 0.7-4.2 0-3.4 2.6-2.9 3.7-2.1 4 0.3 4.2 1.6 7.5 3.6 8.9 5.1 7 4.8 8.2 6 16.7 17 4.3 6.2 3.9 7.4 1.8 8.3 0.6 5.1 0.7 2.4 1.1 2.1 0.5 1.7 0.1 2.3-3-4.3-1.5-1.4 3.6 7.3 1.3 2.9 0 4.4 0.9 10.7-3.3 7.1-0.9 3.8-2.4 5.9-0.2 4.2-2 4.9-0.5 4.8 4.8 7.9-0.4 11-2.4 6.4-2.5 4.1-2.3 4.6-10.3 14.9 0 1.4-1.9 4.3-0.6 3.2-0.3 4.4-0.8 4.8-2.1 3.2-9.8 10-1.7 2.2-0.7 2.2 0.8 1.9 1.8 0 3-1.2 3.9 1 0.3 14.3 0.4 1.6 1 1.1 1.8 0.5 1.8-0.2 1.3-0.9 0.5-1.4-2-2.4-1.1-2 0.4-2 1.7-1 2.3-0.1 2 0.6 0.9 1.3 1.5 3.9 6.8 8.2 1.5 4.1-1 2.8-2.4 2.4-3.2 1.9-3.2 1.3-1.1-4.1-1.7-2.1-2.6-0.8-3.6-0.1-2.3 1.2-1.3 2.8-1.4 5.8-3 6.9-0.6 2.3-0.3 2.7 0.9 2.3 7.4 6.7-2 1.2-1.7-0.2-3.3-1-2.9 0.4-5.5 2.4-5.1 1.4-16 1.6-3.4 1.1-2.7 0.2-1.3-0.7-3.1-2.9-1.1-0.7-5.2 0.3-4.7 0.8-8.9 3.2-8-3.5-7.6 0.5-6.8 3.3-5.5 5.3-3 5.8-2.4 1.8-5 0.7-2.5-0.5-1.9-0.9-2-0.6-2.6 0.6-1.5 1.5-4.1 6.9-2.8 3.4-3.7 4-3.2 4.7-1.4 6.8 1.5 2.8 3.4 1.7 3.4 2.3 2.7 8.4 5.4 6.9 1.7 3.7-0.3 3.8-1.6 3.6-3.6 5.2-3.2 10.4-3.5 5.8-3.7 9-1.5 6.8-1.9 2.6-2.4 2.6-2 3.2-0.8 3.7 0.7 3.2 1.1 3.1 0.5 3.4-0.4 5.1-1.3 4-2.3 3.5-17.6 18.1-2.9 4.3-0.3 4.2 2.5 8.8 2.7 17.3 2 7.2 4.9 6.2 13.4 10.6 3.3 3.8 10.3 15.1 4.3 9.3 0.9 3.9 0.5 9.3 1.2 4.3 2.3 3.7 3.4 2.2 9.9 4.1 7.7 5 0.8 1.4 1 3.6 1.6 3 0.4 1.4 1.9 1.5 2.2 0.3 1.2 1 4.3 2.4 3.3 3.8-0.3 3.6-3.1 6 0.5 3.8-0.1 1.4-1 3.7-0.2 1.7 0.4 2.1 0.9 2.4 1.7 1.9 1.7 0.7 5.8 1.2 9.7 5.5 2.2 0.6 1.9-0.3 2-4 2.6 0.5 3.8 2.4 3.2 0.4 1.2 0.6 1.2 2 1.5-0.9 1.9-2.1 5.8-1.4 1.4-1.8-0.2-3.7 6.4 2.8 5.4 1.6 5.4-0.9 6.5-5 5 10.4 0.6 2.8-0.4 7.1-0.3 1.3-1.7 2.5 0.4 1.7 1.3 1.7 0.7 2.4-0.2 2.4-1.1 4.2-0.2 2.5 0.5 2.2 2.2 4.7-0.6 2.5-1.3 1.6-0.4 1.4 2.3 1.6 2 0.3 2-0.6 3.2-2.5 1.2 1.3-3.1 6 1.9 3.7 3.5 3.2 1.9 4.5 0.2 1.6 0.9 2.6 0.3 1.5-0.7 0.8-2.9-0.1-0.6 0.7 0.4 2.5 0.5 1.7 0.2 1.6-2.8 4.5 2.6 1.5 6.8 0.8 1 3-2.3 2.8-3.1 2.6-1.9 2 2.7 10.5 0.8 2.1 1.6 0.9 1.6 3.8 2.4 0.8 1.9-0.4 4.1-1.9 2.4-0.4 1.4 1.3-3.5 7.3 1.4 3.9 0.6-0.5 7-1 1.9 0.9-0.4 2.2-1.4 2.6-0.8 2 1 2.7 5.3 5.5 2 3.7 1.2 8.1 1.6 1.2 4.2-2.4 1.4 2.6-0.5 2.4-1 2.6 0.1 3.5 1 1.8 5.2 6 0.3 1.5-1 6.8 1.3 1.9 2.8-1 4.2-3 1.7 1.9-0.3 2.2-1 2.2-0.4 2 0.6 2.8 1 1.8 3.4 3.1 0.9 2-0.3 2.1-1.3 2.9 1.5 3.7 7.3 6.3 2.3 4.6-0.2 7.3 0.9 1.8 1.9 1 4.7 0.8 1.8 1 2.6 4 2 8.9 1.5 4.5 1.5 6 19.5 27.7 5.6 2.3 19.9 0.3 7.7 4 1.1 1.8 1.4 1.3 1.8 1.1 4.2 1.3 1.8 1.5 1.2 2 0.7 2.3-9.5 3.6-6.2 3.5-3.2 0.3-3.1-1.6-2.9-2.3-3.2-2.1-3.9-0.4-3.5 1.4-2.6 2-2.9 1.6-4.1-0.1-4.1-0.7-2.7 0.6-8.8 6.9-2.4 1.2-2.8-0.1-14.5-2.4-2.6-0.9-3.3-2.7-1.3-1.9-1.8-1.1-4.4 0-6.7 0.7-3.3 0-3.7-0.8-5.3-2.8-3.8-3.2-2.4-4.2-1.3-5.8-6.1-4.9-9.9 3.9-17.3 10.9-4.1-0.7-7.4-4.6-5-0.5-4.5 1.7-2.9 2.7-2.6 3.2-3.2 3-4.3 2.2-2.8 1-2 1.8-5.1 13.5-2.1 3.7-13.5 17.1-6.1 4.6-9.5 2.4-6.2 0.2-17.2-3.1-7.2-0.4-6.5 1.7-16.4 7.3-6.9 4.2-3.4 1.2-3.4-0.2-6.1-2.4-3.2-0.5-1.2 1.5 0.2 3.2 1.2 6.2-0.6 3.5-1.4 3.7-3.5 6.6-3.3 3.9-8.5 1.6-9.6-0.3-6.6-1.7-1.4-1.7-1.4-4.4-1.6-2-3.4-1.8-2.1 0.4-1.9 1.2-2.6 0.8-3.8-0.2-4.5-0.7-4.3-1.3-3.5-1.7-1.5-1.6-2-3.2-0.9-0.5-2.3 1.6-1.4 2.7-1.1 3-1.4 2.4-1.8 1.2-4.7 2.1-1.4 1.3-0.3 2 1.2 4.3-0.1 2-5.5 3.6-17.4 3-0.6 0.8z" id="GUY671" name="Mahaica-Berbice" data-id="GUY671" data-name="Mahaica-Berbice">
 </path>
 <path d="M519.2 644.3l-2.9 1.3-1.5 4.2-1.8 3.3-0.7 2-0.4 5.8-0.9 1.4 9.5 14.4 2.3 2.3 1.3 3.2-0.2 14.7-4.9 29.4 0.3 8.4 5 13 5.1 29 2.8 3.4 9.3-2.7 2.9 3.2 2.9 8.7 4.9 6.7 3.8 2.1 8.8 2.8 2.1 1.1 4.4 2.7 4.1 1.5 9.5 1.5 30.6-0.3 14.9-3.4 3-0.5-2.2 7.7-17.3 30.4-3.6 13.4-8.1 22.2-0.8 4.3-15.6-6.6-3.2-0.8-3.3-0.1-3.2 0.4-1.7 0.4-5.1 2.3-4.2 2.7-2.9 2.4-3.1 3.5-4.1 7-1.1 1.4-27.2 24.2-3.8 4.8-5.5 5.8-3.2 2.5-2.3 1.2-2.2 0.2-6.8-0.1-2.8-0.8-3.3-2.6-13.8-17.9-1.2-2.2-0.7-2.1-1.1-5.1-1.9-4.8-1.7-1.7-2.6-0.7-1.4 0-2.8 0.8-9.1 4.5-2.9 0.9-1.4 0-4.3-0.7-2.8-0.1-12 1.9-27.6-0.9-2.9-0.7-3-1.1-6.7-3.2-3.1-2.4-1.5-1.9-0.6-1.8-0.1-2 1.1-2.6 1.1-1.8 2.4-3 0.9-1.7 0-1.9-1.5-8.6-0.3-8.7 0.8-4 1.1-2.8 2.1-2.8 0-2.5-0.9-3.4-2.8-6.9-1-3.3-1.6-3.4-4.4-1.7-4.3 1.2-3.2 1.6-3.3 2.7-3.4 4.3-6.5 13.4-2.2 2.7-1.6 1.1-2 0.9-4.1 0.5-7.4-0.8-2.5 0.4 0.1-1.9-0.7-0.7-2.4-0.2-2.3-0.8-1.8-1.7-1.5-2-1.7-1.6-11.8-6.7-2.7-3.6-1.7 1.9-1.7 0.4-4.3-1.1-3.2-0.1-0.9-0.3-0.8-1.3 0.5-2.5-0.8-0.8-2.6 0-4 1.9-1.8 0.2-1.1-1-2.9-3.9-1.9-1.1-4.3-0.6-2 0.6-0.9 1.7-1.2 1.3-2.5-0.4-4.8-1.6-3.9 0.6-3.2 0.9-2.1-0.6-1.1-3.7-1.1-1.5-2.2-1.1-2.2-0.1-1.1 1.6-0.5 2.3-1.1 0.9-1.8 0-2.5-0.5-3.2-1.7-2.3-3-1-3.8 0.7-3.8 5.4-5.8 1.8-0.3 4.1-0.1 1.8-0.6 1.9-1.8 0.7-2 0.7-4.3 1.1-2.5 5.8-8.4 1.7-3.3 1.2-3.6 0.5-3.8-0.9-8.9 2.9-9.1 0.5-12.2 1.4-6 1.5-3.7 0.7-3.8 0.2-7.8 3.6-12.4-0.4-5.8-5.6-2.9-9-5.1-4.2-3.2-2.6-2.9 1.7-1.4 4-4.3 9.5-7.5 2.9-2.6 1.7-2.1 0.9-2.8 3.6-7.8 1.9-6.1 2.4-4.7 1.8-2.5 2-1.8 2.2-1.1 13.3-4.2 2.8-0.3 8.9 0.5 6.4-1.1 3.2 0 18.5 3.7 3.1 0.1 11.7-1.1 2.2-3.9-1.5-16.9-1.6-7.6 0-2.3 0.7-1.8 1.1-1.4 5.8-5.4 8.6-5.9 1.2-0.5 2.1-0.2 15.1 4.6 3.1 0.5 4.4 0.1 1.9-0.4 2.2-0.8 3.5-1.9 1.7-1.6 1.1-1.6 2.8-4.9 3.8-4.9 2.2-2.4 2.1-1.8 7.4-4.1 3.6-0.8 1.5 0.2 1.6 0.6 2.8 2.7 4.4 5.7 3.8 3.9 1 1.3 2.9 5.8 2.4 2.9 2.7 2.4 1 1.3 0.3 1.4-0.4 7.8 0.2 1.4 0.8 1.4 1.6 1.1 2.8 0.6 1.9-0.1 1.7-0.5 7.4-3.3 2.1-0.1 1.6 0.5 0.9 0.9 5.4 7 2.9 2 1.6 0.4 9.1 0.6 3.7 0.8 2.7 1.6 1.1 1.4 5.1 8.3z" id="GUY672" name="Potaro-Siparuni" data-id="GUY672" data-name="Potaro-Siparuni">
 </path>
 <path d="M635 503.2l5.3 2.4 2.7-0.3 3.6-1.8 7.6-2.1 6.8 6.1 1.3 0.6 3 0.5 2.3 6.6 0.1 3.6-2.6 8.3 2.3 3.6 2.9 1.3 13.7 4.6 6.5 1.1 1.6 0.2 8.6 1.4 0.9 1.4 1.4 3.4 2.3 2.1 3.8 5.3 1.3 0.8 3.7 0 2.9 0.2 1.9 1.2 3.6 3.6 1.5 0.4 1.5-0.6 2.3-2.4 1.7-1.1 2.3-0.7 9.2 0.6 1.6-0.3 4.6-1.9 1.5-0.3 4.1 0.1 2.3-0.7 6.2 13.5 3.3 3.6 2.7 0.6 3.1 3 0.3 3.5-0.3 1.6-3.8 9.4-10.9 45.5-1.6 19.5-0.9 4.5-1.2 3-6.5 6.8-3.2 5.7-4.9 12.8-6.6 8.8-4.2 7.5-10 26.2-19.8 22.3-5.2 7.1-3.2 8.4-3.1 12.7-8 23.1-3.6 2-6.3 1.3-34 0.7-3 0.5-14.9 3.4-30.6 0.3-9.5-1.5-4.1-1.5-4.4-2.7-2.1-1.1-8.8-2.8-3.8-2.1-4.9-6.7-2.9-8.7-2.9-3.2-9.3 2.7-2.8-3.4-5.1-29-5-13-0.3-8.4 4.9-29.4 0.2-14.7-1.3-3.2-2.3-2.3-9.5-14.4 0.9-1.4 0.4-5.8 0.7-2 1.8-3.3 1.5-4.2 2.9-1.3 8.3-0.4 17.6-2.7 4.9-1.5 3.5-3.7 4.7-8.9 3.6-8.4 2.5-8.3 1.1-8.6-0.2-14.1 1.4-13.1-0.8-12.9 0.8-4.5 5.1-10.9 2.6-3.8 0.6-4.9 0-16.7-0.5-2.1-2.2-5-0.2-4.2 2.9-27.3-0.6-2-1.9-3.5 0.5-1.5 1-1.4 0.6-1.7 0.4-3.8-0.6-3.5-4.9-9.8-0.5-4 0-9.1-0.4-2.2 2.4-0.2-1.5-1.2 3.3-8.2 0-0.3 4.4 2.7 11.4 17.7 2.5 3 2.1 2 8.3 5.1 7.8 8.9 2.5 4.8 1.2 3.4 0.5 2.1 0.4 4.4 3.3 11.5-0.3 2.9 1.8 0.6 9 0.6 3.8 1.3 3.6 2.3z" id="GUY673" name="Upper Takutu-Upper Essequibo" data-id="GUY673" data-name="Upper Takutu-Upper Essequibo">
 </path>
 <path d="M601.4 881.5l3 5.9 12.3 17 8.3 28.3-0.1 4.5-1.4 5.8 0 2.7 0.4 3.6 6.3 26.2 1.6 4.3 1.6 3.3 18.9 28.1 6.5 13.3 1.1 3 0.6 4.5 0 4.7 7 27.2 0 3.8-1 9.3 0.5 5.5 1.1 5.9 2.2 6.2 21.4 30.7 12.8 30.2 0.7 4-0.7 1.5-15.9 21.4-3.2 6.1-0.9 4.4 0 3 2.2 26.2-0.1 6-0.4 4.2-0.9 3.8-2.6 7-13.9 27-32.3 90.4-7.4 14.1-8.5 12.6-10.2 24.1-2.3 3.3-8.8 8.9-7.1 10.2-1.7 4.7-1.7 11.9 0 0.3-2.4 3 1.4 4.2 3.8 8 1.3 4.2 0.1 4.9-1.3 3.6-6.3 10-1.7 0-3.2-1.9-1.9-1.7-1.9-0.1-2.6 2-1.3 0.5-20.7-1.9-3.1 0.2-2.3 1.8-5.6 8.2-3.2 3.5-3.9 2.8-4.9 1.9-4.1 0.9-3.6 0.3-3.7-0.6-4.1-1.7-5.2-4.2-1.7-4.2-1.1-4.4-3.2-4.9-3.8-3-4.1-2.3-9.1-3.5-33.9-6-13-4.2-3.6-2-2.5-3.4-4.4-9.7-1.7-2.2-3.7-2.2-0.9-3.5-0.4-3.8-2.4-3-1.8-0.3-4.2 1.1-2.4-0.6-0.8-0.9-1.4-3.2-0.8-1.2-1-0.5-2.5-0.3-1-0.4-1.8-2.1-4-7.2-1.9-2.1-6.3-5-3.4-4.4-5.7-9.2-4.2-3.5-4.3-1.4-3.7 0.5-3.5 1-4.1 0.2-2.3-0.6-2.1-1.1-1.8-1.4-4.5-4.7-0.3-1.7 3.2-4.4 4.3-8.2-0.2-2.5-1.8 0-2.6-0.6-7.6-3-2.4-0.1-4.1 1.5-2.5-0.1-1.8-2.2-1-4.2-0.3-4.5 0.1-3.2 0.8-2.3 2.5-3.9 0.9-2.2 0.2-1.8-0.5-5.4 0.4-1.7 1.2-3.4 0.1-1.6-0.7-2.3-2.2-4.2-0.3-2.7 0.6-2.1 2.3-3.6 0.6-2-0.1-2.1-1.8-6.1-0.2-7.5 1.2-7.9-0.3-7-4.4-4.9-1.8-0.5-4-0.1-1.9-0.4-2.5-1.3-6.3-5.3-8-4.2-3.9-2.7-2.1-3.9 0.3-1.9 2.1-3.4-0.1-2.2-0.4-2.2-0.2-4.4-0.4-2.2-5.9-13.3-0.7-3.8 0.1-2.6-0.4-1.5-1.6-3.4-0.9-0.9-2.6-0.9-1-0.8 1.2-3.2 0-1.1-6.4-12.4-0.7-4 1.3-33.2 4.2-16.6 0.5-4.3-0.7-11.7 1-5.1 2-4.8 5.4-8.9 1.1-0.8 2.5-1.2 0.7-1.3-0.3-1.4-1.5-2.2-0.3-1.2 0.7-0.6 2.6-0.4 0.5-0.8-0.5-1.3-1.7-1.9-0.6-1.3 0-2.7 1.1-1.5 1.5-1.3 1.3-1.9 2.8-9.2 0.9-2 5.2-8.7 2.2-6.9 3.3-0.6 1-0.9 0.2-1.4-1.3-2.7-0.3-1.4 0.9-9.8-3.5 1.3 0.6-3.6 3.5-8.4-1.7-5.2-3.6-4.2-3.2-4.5 0.1-5.9 5.1-5.7 16.6-5.8 7.7-7.2 4.6-2 1.8-1.4 1.3-2.4-0.2-3.5 0.2-2.4 1.7-5.2 2.5-2.5 8.3-3.8 4-3.1 0.7-2.8-0.9-3.4-0.6-4.6 1.3-4.1 2.9-4.8 3.8-3.8 3.8-1.6 2-0.2 1.1-1 0.3-1.6-0.4-2-1.4-1.7-2.4-0.8-6.5-1.1-1.9 0.1-1.3-0.8 0.2-5.3-2.1-2.1-2.9-5.3-6.9-6.4-1.9-3.1 0.6-4.8 2.3-3.4 0.6-2.9-4.3-3.4-8.8-2.8-3.3-2.4-2.4-5.4-0.4-4 0.5-3.6 0.5-1.2 1.8-2.4 0.5-1.3-0.5-1.3-2-2.3-0.4-1 2.2-3.8 6.9-7.2 1.3-4.8 0-1.5 2.5-0.4 7.4 0.8 4.1-0.5 2-0.9 1.6-1.1 2.2-2.7 6.5-13.4 3.4-4.3 3.3-2.7 3.2-1.6 4.3-1.2 4.4 1.7 1.6 3.4 1 3.3 2.8 6.9 0.9 3.4 0 2.5-2.1 2.8-1.1 2.8-0.8 4 0.3 8.7 1.5 8.6 0 1.9-0.9 1.7-2.4 3-1.1 1.8-1.1 2.6 0.1 2 0.6 1.8 1.5 1.9 3.1 2.4 6.7 3.2 3 1.1 2.9 0.7 27.6 0.9 12-1.9 2.8 0.1 4.3 0.7 1.4 0 2.9-0.9 9.1-4.5 2.8-0.8 1.4 0 2.6 0.7 1.7 1.7 1.9 4.8 1.1 5.1 0.7 2.1 1.2 2.2 13.8 17.9 3.3 2.6 2.8 0.8 6.8 0.1 2.2-0.2 2.3-1.2 3.2-2.5 5.5-5.8 3.8-4.8 27.2-24.2 1.1-1.4 4.1-7 3.1-3.5 2.9-2.4 4.2-2.7 5.1-2.3 1.7-0.4 3.2-0.4 3.3 0.1 3.2 0.8 15.6 6.6z" id="GUY674" name="Upper Demerara-Berbice" data-id="GUY674" data-name="Upper Demerara-Berbice">
 </path>
 <path d="M532.2 184.2l-9.9 12.4-7.8 7.3-4.2 2.7-24.8 10.3-3 1.5-12.1 12.7-2.3 3-1.2 2.5 0.4 3.1 0.7 1.4 3.8 6 1.4 3.1 0.1 1.6-0.3 2-1.5 1.7-5.2 4.1-2.8 3.5-11.3 34.6-0.4 2.9-0.1 2.8 0.3 2.9 4.1 15.1 0.2 2.2-10.9-4.8-9.2-2.2-3.1 0.1-2.3 0.9-1.8 1.8-1.1 4.9-0.6 0.9-2.6 1.7-4.2 3.6-2.2 0-3-0.5-12.2-4.1-2.9-2.4-2.8-1-5.7 0.4-2.8-1.5-16.8-17.5-2.7-1.6-21.2-5.2-29.4-16.1-2-0.1-2.9 0.3-6.1 1.5-2.5 1.3-1.4 1.3-1.2 3.7-0.9 1.5-4 3.9-1.9 2.9-2.7 2.3-1.7 0.3-2-0.2-8.1-2.9-3.1 0.4-1.7 1.1-1.2 1.1-1.8 2.6-2.7 2.7-1.4 1-2.7 0.8-7.2-1.9-6.3-3-3.6-0.7-2.3-0.2-2.8 1-1.5-0.3-1.7-1-4.6-4.5-6.4-3.8-7.3-2.7-3.4-0.9-3.4 0.1-2.4 0.6-2.4-2.7-2.4-1.3-2.7-0.3-3.3 0.5-2.9 0-2.2-1.2-2.2-1.4-2.5-0.9-5.2-0.1-4.3 1.7-3.3 3.1-4.5 8.1-2.7 0-14.1-11.2-2.2-2.2-3-6.1-0.1-6.1 2.6-5.5 4.9-4.5 0.9-1.4 0.5-1.5-0.4-3.4-1.8-2.7-2.3-5.7-1.4-2.7-1.5-1.1-1.8-0.7-1.6-1.1-0.9-1.9 0.3-4.3-0.9-1.5-2.8-1.9-2.8-0.6-2.6-1-4.7-8.7-1.2-3-0.1-3.1 2.8-5.3 9.2-3 3.2-3.9 2.9-5.3 1.9-2.8 1.4-1 2.9 0.6 1.9-1.5 0.8-2.6-0.5-3.1 3.1-5.5 0-2.2-0.6-3.9 0.1-1.8 1-1.9 4.6-5.5 4-7.6 2.9-2.7 4.5-1.5 17.2 0.3 8.9-0.9 5-3.7 1.6-4.7 4.5-4.1 9.8-6.8 3.8-3.4 2.1-3.3 2.4-2.8 9.7-3.8 3.6-3 3.2-3.3 4.2-3.2 4.3-1.4 8.1 0.8 4.4-0.2 3.4-2 2.1-3.6 1.7-8.3 2.3-3 0.3-2.4-0.5-2.4 0-2.9 1.5-3.2 5.2-4.1 2.1-2.4 3.6-1.7 10.1-2.4 4.2-0.2 4.2-1.4 3.9-3.6 2.5-4.5 0.3-4.2-8.2-13.2-21.1-23.9-12.4-18.4 4 1.9 6.7 4.3 7.2 7.4 11.6 17.8 7.6 7.4 5.8 2.9 9.9 2.8 5.1 2.5 11.2 8.2 5.8 3.2 6 1.2 2.3 3.6 0.2 1.7 2.1 0.2 11.4 2.4 1.5 1.4 2.7 3.3 18.1 15.6-4.7-7.6-7.1-7-8.5-5.6-15.2-6.3-18.7-13-12.3-6.7-1.7-2.3-2.5-5.7 0.5-2.6 4.8-0.8 3.3 1.5 7.2 5.8 8.3 2.4 4 2.8 6.6 5.6 13.3 8 18.6 8.5 21.5 15.5 37.1 22.2 12.3 9.2 3 2.8 3 4 10.9 10.2 27.8 31.2 10.4 8.3 5.9 8.6 4.8 6.4z" id="GUY675" name="Barima-Waini" data-id="GUY675" data-name="Barima-Waini">
 </path>
 <path d="M456.3 323.6l-0.1 4.2-4 13-0.4 3.5 0.7 2.4 2.8 1.3 5.1 1.1 4.4 2.5 7.4 2.8 2.4 0.4 2.7 0.1 2.5-0.3 2.2-1 3.8-3.9 1.2-1 2.4-0.2 5.4 1.8 1.9 3.2 0.3 1.1 0.7 8.3 1.3 2.7 1.5 1.7 1.8 1 3.7 1.1 3 0.2 2.4-0.5 4.1-1.2 1.7 0.1 1 1.8 0.1 1.6 3.2 7.5 3.3 5.9 0.6 3.3-1.1 11.5-0.9 4.5-0.6 7.1 0.8 2.3 0.9 1.3 3.7 0.8 10.1 0.5 2.4 0.6 2 0.8 12.1 6.4 1.9 0.6 1.6 0.1 2.5-1 1 0 3.6 1.5-0.6 2.3-13.5 19.3 1.4 1.3 6.3-5.7 2-1.3 1.2-2 0.8-0.6 2.8 1.2 2.7 0.2 0.4 2.2 0 9.1 0.5 4 4.9 9.8 0.6 3.5-0.4 3.8-0.6 1.7-1 1.4-0.5 1.5 1.9 3.5 0.6 2-2.9 27.3 0.2 4.2 2.2 5 0.5 2.1 0 16.7-0.6 4.9-2.6 3.8-5.1 10.9-0.8 4.5 0.8 12.9-1.4 13.1 0.2 14.1-1.1 8.6-2.5 8.3-3.6 8.4-4.7 8.9-3.5 3.7-4.9 1.5-17.6 2.7-8.3 0.4-5.1-8.3-1.1-1.4-2.7-1.6-3.7-0.8-9.1-0.6-1.6-0.4-2.9-2-5.4-7-0.9-0.9-1.6-0.5-2.1 0.1-7.4 3.3-1.7 0.5-1.9 0.1-2.8-0.6-1.6-1.1-0.8-1.4-0.2-1.4 0.4-7.8-0.3-1.4-1-1.3-2.7-2.4-2.4-2.9-2.9-5.8-1-1.3-3.8-3.9-4.4-5.7-2.8-2.7-1.6-0.6-1.5-0.2-3.6 0.8-7.4 4.1-2.1 1.8-2.2 2.4-3.8 4.9-2.8 4.9-1.1 1.6-1.7 1.6-3.5 1.9-2.2 0.8-1.9 0.4-4.4-0.1-3.1-0.5-15.1-4.6-2.1 0.2-1.2 0.5-8.6 5.9-5.8 5.4-1.1 1.4-0.7 1.8 0 2.3 1.6 7.6 1.5 16.9-2.2 3.9-11.7 1.1-3.1-0.1-18.5-3.7-3.2 0-6.4 1.1-8.9-0.5-2.8 0.3-13.3 4.2-2.2 1.1-2 1.8-1.8 2.5-2.4 4.7-1.9 6.1-3.6 7.8-0.9 2.8-1.7 2.1-2.9 2.6-9.5 7.5-4 4.3-1.7 1.4-0.5-0.6-6.5-15-1.7-2.4-9.1 3.3-3-2.6-1.9-4.8-2.6-0.8-8.5 2.2-3.8 1.9-8.2 8.2-3.8 2.7-4.5 0.2-8.9-3.1-4.2 0.2-1.6 1.3-2.4 4-2 1.4-1.5-0.1-2.7-2.5-1.5-1-4.1-0.8-11.5 1.6-2.9-0.3-2.2-1.1-2.1-1.3-2.5-1.1-2.4-0.5-12-0.8-4.5 0.2-9.1 2-15.7-16.9-30.7-34.1-46.2-51.1-15.4-17-21.9-24.4-3.5-8.2 2.1-2.3 6.8-3.8 3-2.3 9.5-15.2 2.6-6.5 1.9-2.9 2.7-1.5 6.7-1.2 3.3-1.1 2.5-1.5 1.9-2.7 2.2-5.2 2.6-2.3 2.8-0.4 3 0.3 2.3-0.7 0.6-3.2 0.1-2.8 1-7.7-0.4-2.1-1.3-1.1-1.6-2.8-3.5-2.2-1.1-1.9-1.5-5.7-0.3-2.3 1.2-9.8 1-2.9 1.8-2.4 0.4-1.7-0.1-3.4-0.6-1.7-2.2-3-1.9-6.1-1.6-3.1-3.1-2.9-2.9-1.6-1.9-2-0.5-4.2 1.5-7 2.9-7.6 4-7.3 8.3-9.6 3.8-0.8 4.5 0.4 3.8 1.2 1.8-3.8 4.3 0.7 4.4 1.3 3.7-2.8 9.3 1.1 4.2-0.6 1.1-0.8 5.5-5.9 0.4-2.5-0.4-1.9-2-2.9-0.5-2.2 1.2-0.9 2.7 0.3 4.5 1.2 4.6 3.7 2.4 0.7 1.9-0.1 4.7-1.1 2.4-0.3 4.1 1.1 7.5 4.9 3 1 4.3-1.5 3.3-3.5 5.7-8.3 3.3-2.7 3.9-1.6 14.6-3.6 25.9-16.2 5.5-1.2 3.4 2 1.9-10.1 1.7-3.5 3-2.6 3.5-2.2 2.9-2.4 2-2.9 1.5-3.4 0.9-3.5-0.1-3.5-1.6-3.2-2.6-2.4-7.2-4.1 2.4-0.6 3.4-0.1 3.4 0.9 7.3 2.7 6.4 3.8 4.6 4.5 1.7 1 1.5 0.3 2.8-1 2.3 0.2 3.6 0.7 6.3 3 7.2 1.9 2.7-0.8 1.4-1 2.7-2.7 1.8-2.6 1.2-1.1 1.7-1.1 3.1-0.4 8.1 2.9 2 0.2 1.7-0.3 2.7-2.3 1.9-2.9 4-3.9 0.9-1.5 1.2-3.7 1.4-1.3 2.5-1.3 6.1-1.5 2.9-0.3 2 0.1 29.4 16.1 21.2 5.2 2.7 1.6 16.8 17.5 2.8 1.5 5.7-0.4 2.8 1 2.9 2.4 12.2 4.1 3 0.5 2.2 0 4.2-3.6 2.6-1.7 0.6-0.9 1.1-4.9 1.8-1.8 2.3-0.9 3.1-0.1 9.2 2.2 10.9 4.8z" id="GUY676" name="Pomeroon-Supenaam" data-id="GUY676" data-name="Pomeroon-Supenaam">
 </path>
 <path d="M708.2 379.2l-0.1 0.3 0.3 11.3 0.6 2.7 1.2 2.9 1.7 3.2 1 3.6-0.7 5.4 0.3 1.4 2.1 3.9-0.1 1.1-1.8 1-1.5 0.1-4.3-0.7-2.7 0.6-0.9 1.1-0.2 1.9 0.4 1.6 1.6 4.6 0.2 1.4-0.3 3-1.4 3-1.7 1.3-1.5 0.4-6 0.8-2.7 0.6-1.8 1.1-1.4 1.7-4.2 6.3-1.9 1.9-4.5 3.1-1.7 2-1.5 2.7-10.7 28-0.7 2.4-0.3 3.1 0.4 10.7 1.9 9.9-3-0.5-1.3-0.6-6.8-6.1-7.6 2.1-3.6 1.8-2.7 0.3-5.3-2.4 3.3-5.3 0.2-2.6-0.6-2.1-2-4.9-1-3.2-1.6-2.6-1.2-2.9 0.3-2.6 2.2-3.4 1.3-3.1 0.8-3.1 0.1-1.8-0.8-2.3-2-2.2-2.4-2.1-1.6-2.8-1.1-3.4-0.3-3.7 0.6-2.3 2-4.4 0.6-2.1-0.2-2.7-1.3-3.2-1.2-3.9 0.4-2.7 3-4 6.8-6.9 0.7-0.5 1.7-2.4 10.7-20.9 2.2-5.7-0.1-2.8-1.4-4.2-0.8-3.4-0.3-3.3 0.2-1.9 1-3.8 2.3-9.3 0-0.5 0.8 0.4 0.8-0.9 0.7-2.4 1.7-0.5 17.4 2.1 12.7 6.1 4 3.4 6 4.6 7.7 7.5 0.9 0.7z" id="GUY677" name="East Berbice-Corentyne" data-id="GUY677" data-name="East Berbice-Corentyne">
 </path>
 <path d="M577.5 374l-1.7 4.6-1.4-1.2-0.3-3.1 1.2-5.7 1-6 1.5-4.3 4.3-7.8 2.6-1.9 4.1-2.6 2.8-0.7 0.5 1.9-1.9 3.1-2.9 3.5-4.8 8.8-4.1 6-0.9 5.4z m57.5 129.2l-3.6-2.3-3.8-1.3-9-0.6-1.8-0.6 0.3-2.9-3.3-11.5-0.4-4.4-0.5-2.1-1.2-3.4-2.5-4.8-7.8-8.9-8.3-5.1-2.1-2-2.5-3-11.4-17.7-4.4-2.7 0.8-26.6 2.1-8.6 21.4-37.8 5.4-7.4 7.4-5.2 9-2.3 8.5 0.5 7.8 2.4 12.1 6.4 4 3.7 1 0.6 2.3 2.2 1 0.4 0 0.5-2.3 9.3-1 3.8-0.2 1.9 0.3 3.3 0.8 3.4 1.4 4.2 0.1 2.8-2.2 5.7-10.7 20.9-1.7 2.4-0.7 0.5-6.8 6.9-3 4-0.4 2.7 1.2 3.9 1.3 3.2 0.2 2.7-0.6 2.1-2 4.4-0.6 2.3 0.3 3.7 1.1 3.4 1.6 2.8 2.4 2.1 2 2.2 0.8 2.3-0.1 1.8-0.8 3.1-1.3 3.1-2.2 3.4-0.3 2.6 1.2 2.9 1.6 2.6 1 3.2 2 4.9 0.6 2.1-0.2 2.6-3.3 5.3z m-33.8-163.3l-4 4.4-0.6-3.5 1.2-4.6 2.2-4.1 3.1-2.4 2.6-3.6 1.8-0.3 6.4 0.3 9.1 1.4-0.2 0.9-11.5 8.4-10.1 3.1z m-35.8 85.2l-3.6-1.5-1 0-2.5 1-1.6-0.1-1.9-0.6-12.1-6.4-2-0.8-2.4-0.6-10.1-0.5-3.7-0.8-0.9-1.3-0.8-2.3 0.6-7.1 0.9-4.5 1.1-11.5-0.6-3.3-3.3-5.9 8.7-5.5 6.4-3.2 3.2-2.6 5.9-9.4 1.7-1.6 2.1-1.3 3.6-1.1 2.5-0.1 2-0.4 1.4-0.9 1-1.9 0.5-1.8 1.6-10 1.7-2.5 3.7-2.9 13.9-7.6 3.8-1.1-3.2 2.5-3.1 3.8-2.2 4-1.3 4.2-1.2 7.9-4.8 12.2-0.5 4.4 0.5 13.4-0.5 2.1-1.9 2.5-0.4 2.3 0 36.4-1.2 4.4z m28.6-88.6l-2.9 4.2-2.3-0.2 0.7-3.3 3.1-5.7 2.6-5.5 2.7-5 1.9-5.2 2.9-0.3 2.6 1.9 2.1 2.2-2.2 2.4-4 2.1-3.3 3.8-3.2 5.5-0.7 3.1z" id="GUY678" name="Demerara-Mahaica" data-id="GUY678" data-name="Demerara-Mahaica">
 </path>
 <path d="M788.1 468.1l0.3 1.4-1.1 2.3-0.8 3.8 1.1 4.3-0.3 2.5-1 1.1-2.1 1.2-2.9 0.9-10.5 1.7-2.1 1.1-1.9 2.6-0.5 2.6 0.3 3 1.6 6.6 0.4 0.9 3.1 2.5 0.8 1.9-0.1 1.2-1 3.3-4.2 7.5-1.9 1.8-2.2 0.3-2.8-2.3-1.8-1-1.4-0.1-1.8 0.5-2.5 1.1-2.5 2.4 3.5 5.7 1.1 4.8 0.8 9.8-0.6 6.9-2.3 0.7-4.1-0.1-1.5 0.3-4.6 1.9-1.6 0.3-9.2-0.6-2.3 0.7-1.7 1.1-2.3 2.4-1.5 0.6-1.5-0.4-3.6-3.6-1.9-1.2-2.9-0.2-3.7 0-1.3-0.8-3.8-5.3-2.3-2.1-1.4-3.4-0.9-1.4-8.6-1.4-1.6-0.2-6.5-1.1-13.7-4.6-2.9-1.3-2.3-3.6 2.6-8.3-0.1-3.6-2.3-6.6-1.9-9.9-0.4-10.7 0.3-3.1 0.7-2.4 10.7-28 1.5-2.7 1.7-2 4.5-3.1 1.9-1.9 4.2-6.3 1.4-1.7 1.8-1.1 2.7-0.6 6-0.8 1.5-0.4 1.7-1.3 1.4-3 0.3-3-0.2-1.4-1.6-4.6-0.4-1.6 0.2-1.9 0.9-1.1 2.7-0.6 4.3 0.7 1.5-0.1 1.8-1 0.1-1.1-2.1-3.9-0.3-1.4 0.7-5.4-1-3.6-1.7-3.2-1.2-2.9-0.6-2.7-0.3-11.3 0.1-0.3 4.5 3.3 10.9 10.5 6.5 6.6 1.8 3 3.7 1.6 4.5 4.7 18.1 14.6 4.2 3.7 5.9 6.1 3.9 4.3 4.2 10 6.2 14.5 2.2 2.9 0.6 4 1 1.6 1.7-2.5z" id="GUY679" name="Essequibo Islands-West Demerara" data-id="GUY679" data-name="Essequibo Islands-West Demerara">
 </path>
 <path d="M585.2 325l-3.8 1.1-13.9 7.6-3.7 2.9-1.7 2.5-1.6 10-0.5 1.8-1 1.9-1.4 0.9-2 0.4-2.5 0.1-3.6 1.1-2.1 1.3-1.7 1.6-5.9 9.4-3.2 2.6-6.4 3.2-8.7 5.5-3.2-7.5-0.1-1.6-1-1.8-1.7-0.1-4.1 1.2-2.4 0.5-3-0.2-3.7-1.1-1.8-1-1.5-1.7-1.3-2.7-0.7-8.3-0.3-1.1-1.9-3.2-5.4-1.8-2.4 0.2-1.2 1-3.8 3.9-2.2 1-2.5 0.3-2.7-0.1-2.4-0.4-7.4-2.8-4.4-2.5-5.1-1.1-2.8-1.3-0.7-2.4 0.4-3.5 4-13 0.1-4.2-0.2-2.2-4.1-15.1-0.3-2.9 0.1-2.8 0.4-2.9 11.3-34.6 2.8-3.5 5.2-4.1 1.5-1.7 0.3-2-0.1-1.6-1.4-3.1-3.8-6-0.7-1.4-0.4-3.1 1.2-2.5 2.3-3 12.1-12.7 3-1.5 24.8-10.3 4.2-2.7 7.8-7.3 9.9-12.4 0.4 0.6 5 10.3 3.3 4.8 0.8-1.3-2-5 0.4-2.3 2.8 0.2 5 1.8 4.3 3.5 3.9 3.8 3.3 4.1 3.3 5.1 4.3 6.9 5.1 6.3 3.3 4.6 15.9 15.8 3.7 6.3 1.5 6.8-2.1 6.6 1.4-1.5-1 8.8 1 26.3-3.6 21.5-2.5 3.3-4.5 3.5z" id="GUY680" name="Cuyuni-Mazaruni" data-id="GUY680" data-name="Cuyuni-Mazaruni">
 </path>
 <circle cx="528.1" cy="436.8" id="0">
 </circle>
 <circle cx="732.4" cy="450.9" id="1">
 </circle>
 <circle cx="186.5" cy="248.8" id="2">
 </circle>
</svg>