<?xml version="1.0"?>
<!--
************* Copyright (c) 2017 Pareto Softare, LLC DBA Simplemaps.com *******************		
************* Free for Commercial Use, full terms at  http://simplemaps.com/resources/svg-license ************
************* Attribution is appreciated! http://simplemaps.com ***************************
-->
<svg baseprofile="tiny" fill="#7c7c7c" height="786" stroke="#ffffff" stroke-linecap="round" stroke-linejoin="round" stroke-width="2" version="1.2" viewbox="0 0 1000 786" width="1000" xmlns="http://www.w3.org/2000/svg">
 <path d="M582.1 546.2l-5.7 40.5-22.6 1.6-23.4-17.9-16.6-9-25.8-0.1 1.5-12.1 27.8-14.9 17.7-6 19.1 6 12.7 7.5 15.3 4.4z" id="HKG5153" name="Central and Western" data-id="HKG5153" data-name="Central and Western">
 </path>
 <path d="M622.9 584.5l-46.5 2.2 5.7-40.5 23.3 0 13.3 7.8 15.2 3-11 27.5z" id="HKG5154" name="Wan Chai" data-id="HKG5154" data-name="Wan Chai">
 </path>
 <path d="M733.9 604.6l-36.4-16.3-52.5-4.5-22.1 0.7 11-27.5-15.2-3-13.3-7.8 16.4-14.9 15.3-9 33.3 12 10.9 11.9 11.2-2.9 13.7 5.9 13.8 25.3 13.9 10.6 0 19.5z" id="HKG5155" name="Eastern" data-id="HKG5155" data-name="Eastern">
 </path>
 <path d="M565.5 637.4l-7.3 1.4-13.7-10.5-4-10.3 25 5.8 0 13.6z m10.9-50.7l46.5-2.2 22.1-0.7 52.5 4.5 36.4 16.3-11 13.4 6.7 17.9 8.3 16.3-8.3 3.1 12.5 35.9-22.1 4.5-5.6-7.6-13.6-12-0.2-20.1-5.6-22.2-12.1-10-10.4 8.6 10.4 3.5 0 14.8-7.1 1.5-12.2 15 12.2 19.4-5.4 13.5 6.9 13.5-20.9 4.5-2.9-30 5.8-4.4-4.9-9.3-18.6 9.3-8.2-4.6 8.2-10.3-12.4-7.5 8.2-12-4-10.5-15.4-2.9 2-16.3-22.5 14.8-6.9 10.4-4.2 0-6.9-24-15.5-8.8-28.7-1.4-12.2-6-9.8-23.9-8.4-15-11.1-4.4 25.8 0.1 16.6 9 23.4 17.9 22.6-1.6z" id="HKG5156" name="Southern" data-id="HKG5156" data-name="Southern">
 </path>
 <path d="M601.2 523.8l-8.2 4.5-8.2-10.4 1.8-21.7-6-18.6-9.5 0 0-13.5 28-1.5-1.1 16.7 4.2 19.4-1 25.1z" id="HKG5157" name="Yau Tsim Mong" data-id="HKG5157" data-name="Yau Tsim Mong">
 </path>
 <path d="M651.9 440.6l11.7 45.9 5.5 18-4.2 0-30.1-32.7-15.8 18.2 8.6 13 0 5.9-13.7-5.9-3.6 14.4-9.1 6.4 1-25.1-4.2-19.4 1.1-16.7 1.7-25.2-11-16.4 27.5-6.1 13.9 28.5 20.7-2.8z" id="HKG5158" name="Kowloon City" data-id="HKG5158" data-name="Kowloon City">
 </path>
 <path d="M535.4 474l10.7 0.6 2.6 6-9.7 5.9-8.2-5.9 4.6-6.6z m63.7-11.4l-28 1.5-12.9-12-11.5-6.6 4.6-13 19.8-5.9 18.7-5.6 11 16.4-1.7 25.2z" id="HKG5159" name="Sham Shui Po" data-id="HKG5159" data-name="Sham Shui Po">
 </path>
 <path d="M703 443.4l-51.1-2.8-20.7 2.8-13.9-28.5 66.4-14.8 19.3 43.3z" id="HKG5160" name="Wong Tai Sin" data-id="HKG5160" data-name="Wong Tai Sin">
 </path>
 <path d="M703 443.4l13.8 25.4-9.7 35.9 12.6 28.5-8 8.6-19.2-19.5-28.9-35.8-11.7-45.9 51.1 2.8z" id="HKG5161" name="Kwun Tong" data-id="HKG5161" data-name="Kwun Tong">
 </path>
 <path d="M812.6 594l0 12.1 4.5 10.4-5.9 10.3-12.2 9.1-5.5-10.5-6.8-1.6 2.8-19.2 23.1-10.6z m131.4-97.1l-11.1-14.8 4.2-10.6 6.9 13.5 0 11.9z m-69-40.2l-20.7 4.5-5.6-24 12.6-6 9.5 4.4 4.2 21.1z m-62.4-68.8l0 25.4-11-8.9-1.3-29.9 6.7-4.5 5.6 17.9z m58.2 37.4l-37.3 0-4.1-6.2-1.3-25.3-2.8-11.9 13.7-20.9 9.7 0 5.6 32.8 16.5 16.5 0 15z m-151.1 107.9l-12.6-28.5 9.7-35.9-13.8-25.4-19.3-43.3 26.2-41.9 23.5-34.3 53.8-9 31.8-19.4 33.1-16.5 26.3 15 30.3 14.9 24.9-16.4-2.8-40.4 8.1-25.5 5.1 12 27.5 1.5 24.8 5.9-4.2 14.8 6.9 30-21.2-9.9-13.4-2.2-20.4 40.4 8.5-4.9 17.6 25.3 8.5 41-7.1-8.1-16.6-0.9 5.5 16.4-6.9 16.5-9.5 8.9-16.6 5.8-5.7 25.6-9.4-13.5 0-23.9-18.3 11.8-5.2-13.2-11.1-13.6 2.8-29.8-24.6-10.4-3.2-16.5-15.1 10.7-17.8 4.2-24.9-18-14.1 0-16.4 24 8.2 28.4 11.4 16.5-5.9 13.4-16.4-14.9-1.5-19.4-14.1 7.4-5 11.8 18.1 18.3 12 49.1 33.1 8 1.4 21.8 20.9-3 13.7 18-10.5 12.5-14.1 9.9-15.4-3 1 25.4 18.5-6 5.5 15 0 13.5-11.4 7.4-13.6-12.1-18.9-11.2 2.6-17.1-11.4-31.3-15.1-11.9 2.7-26.9-19.1-12.1-7.2 32.9 2.7 18-16.9 18.3z" id="HKG5162" name="Sai Kung" data-id="HKG5162" data-name="Sai Kung">
 </path>
 <path d="M733.9 256.4l0.8 34.6-1.3 32.9-23.5 34.3-26.2 41.9-66.4 14.8-27.5 6.1-18.7 5.6-9-23.5-6.9-23.9 40.1-56.8-4.2-41.3 19.4-0.6 41.6-12.9 11.5 8.2-3.2 15 8.7 7.4-9.8 19.6 11.1-3.2 13.8-28.1 19.1-18.7 7.1-20.3 9.9-0.3 13.6 9.2z" id="HKG5163" name="Sha Tin" data-id="HKG5163" data-name="Sha Tin">
 </path>
 <path d="M535.4 474l-4.6 6.6-13.5-4.5 9.3-7.5 8.8 5.4z m-61-17.3l-28 7.4-3.9-32.9-13.6-19.5 0-11.8 10.9-6.1 30.5 10.6 11 25.3-6.9 27z m96.7-30.1l-19.8 5.9-4.6 13-37.8-19.6-1.4 9.7-18-29.7-1.6-9.6 31.4-5.2 14.5-6.4-7.6-25 13.8-5.9 15.2 25.4 6.9 23.9 9 23.5z" id="HKG5164" name="Kwai Tsing" data-id="HKG5164" data-name="Kwai Tsing">
 </path>
 <path d="M342.8 475.8l-61.7 0.6 6.9-12.3 31.6-25.4 5.6 13.4 41.2-33 9.8 6.8 9.7 11.3-5.4 14.9-2.8 16.5-7.2-6.2-26-2.7-1.7 16.1z m55.4-44.6l-9.5 0-2.8-15 5.5-8.9 13.8 6-5.4 5.8-1.6 12.1z m157-52l-15.2-25.4-13.8 5.9 7.6 25-14.5 6.4-31.4 5.2-2.6-15.8-10.9-7.5-13 13.1-32.5-5.6-1.5 5.9-14 0-5.6 7.4-16.4-4.5-32 12.1-34.2 8.9 17.4-25.2-15.2-16.4 24.8-19.4 64.9-23.9 74.6-22.5 40.1-10.4 29-10.5 30.3-0.9 4.2 41.3-40.1 56.8z" id="HKG5165" name="Tsuen Wan" data-id="HKG5165" data-name="Tsuen Wan">
 </path>
 <path d="M352.2 349.3l-24.8 19.4 15.2 16.4-17.4 25.2-9.8-5.9 0-10.6-29 0-11.9-9.8-16.3-5.1-10.5-23.8-6.8-1.5-4-13.6-11.1 12.3 18.1 16.5-34.8 4.2-17.9 14.9-25-13.4-8.4 0-20.4-13.5 6.9-22.5-13.7-20.7-24-19.3 22-18.9 37.6-2.3 18.3-13.4 35.2 19.6 48.3 23.9 82.9 0 1.3 41.9z" id="HKG5166" name="Tuen Mun" data-id="HKG5166" data-name="Tuen Mun">
 </path>
 <path d="M535.9 184.8l-24.9 31.4 20.8 76.3-40.1 10.4-74.6 22.5-64.9 23.9-1.3-41.9-82.9 0-48.3-23.9-35.2-19.6 23.2-43.5 41.4-17.9 37.3-56.9 11.1 0 13.8 4.6-2.7 25.4 6.8-4.5 20.9-5.8 8.2-7.6-1.5-25.5 20.6-10.5 27.8-7.4 6.8-7.5 7-13.6 22.2-7.4 12.4-6.2 10.5 6.5 19.3 94.2 51.1-5.9 15.2 10.4z" id="HKG5167" name="Yuen Long" data-id="HKG5167" data-name="Yuen Long">
 </path>
 <path d="M849.9 88.8l-8.2 10.3-21.9 12.2-11.3-12.2 8.6-5.9 8.2 3.1 9.5-22.6 15.1 15.1z m-49.6-73.3l15.4 11.9 19.1-7.4 13.9 4.4-22.1 7.5-15.4 0 9.9 24.1-20.8-10.6-5.4-12 5.4-17.9z m77.4 85.2l-32.5 25.8-30.4 14.9-26.2-5.9-41.4 4.5-38.7 1.4-16.6-16.4-23.4-1.5-56.7 29.9-9.6-4.5-20.7 4.5-2.8 15-42.8 16.4-15.2-10.4-51.1 5.9-19.3-94.2-10.5-6.5-5.2-12.3 16.1-9.6 30 0 9.9 10.7 5.5 2.4 20.8-20.2 16.5-2.4 18.6 2.4 9.2-26.4 14.3-16.7 19.9-6.5 17.4 14.9 29.8 0 36.8 2 24.8-2-22.2 28.2-12.9 13.4-8.7 0-1.1 20.7 15.2-4.5 1.3-7.3 20.8-5.9 6.9-7.7 13.7-25.4 6.9-1.5 5.5 6 9.7-6 5.5 6-7.8 16.1 10.6-2.6 11.3 10.6-0.8 13 8.6 5.6 14.1-8.2 3.2 7.3 0 12.1-3.8 15.5 13.3 0.9 7.2 11.5 16.4 8 49.7-14.9 10.9-6.1z" id="HKG5168" name="North" data-id="HKG5168" data-name="North">
 </path>
 <path d="M938.9 226.6l-8.1 25.5 2.8 40.4-24.9 16.4-30.3-14.9-26.3-15-33.1 16.5-31.8 19.4-53.8 9 1.3-32.9-0.8-34.6 27.8 0 3.9 10-3.9 18.3 9.5 12.1 6.9-19.5 22.2-11.9-22.2-34.4 22.2-17.9 22.3-6.2-1.5-16.3 40.7-28.7 2.3 9.2 10 2.1-10 18.9 18.8 4.9 4.2 29.4-9.4 12.2 8.3 16.1 9.5-11.7 8.5 28.3 8.3-1.4-1.3-33.2 14.7-38.7 14.1 11.9-0.9 16.7z m-3.4-54l-11.1 16.6-10.8-28.5 9.4-11.9 8.5 1.4 4 22.4z m-283.4 95l-41.6 12.9-19.4 0.6-30.3 0.9-29 10.5-20.8-76.3 24.9-31.4 42.8-16.4 2.8-15 20.7-4.5 9.6 4.5 56.7-29.9 23.4 1.5 16.6 16.4 38.7-1.4 41.4-4.5 26.2 5.9 30.4-14.9 32.5-25.8 4.2 10.6-33.2 26.9-19.3 18-44.3 19.4-20.7 15-8.2 13.4-18.3 12.1-13.8 0-26.1-34.6-24.9 4.7-9.5-6.2-4.3 9.2 2.9 16.3 8.2 4.4 2.7 13.5-12.7-3-1.1-8.8-12.6-7.6-20.5 2.9-7 9.2-33.9 7.1 15.9 9.2 50.9 35.2z" id="HKG5169" name="Tai Po" data-id="HKG5169" data-name="Tai Po">
 </path>
 <path d="M117.8 777.6l-11 0 4.4-8.8 19.4-6 0 14.8-12.8 0z m638.4-7.5l-14.1 14.9-9.7-14.9 9.7-17.8 18.1-13.4 5.5 13.4 0 13.6-9.5 4.2z m-26.6-28.3l-11 3 0-17.9 19.3-3 4.2 8.9-12.5 9z m-457.1-28.2l-2.9 10.3-8.2-2.9-12.3-10.3 11-10.6 6.9 0 5.5 13.5z m55.6-28.5l8.2 3 13.6 0-5.4 17.9-8.2-5.9-19.5 13.5-1.4-12 12.7-8.9 0-7.6z m168.6-28.8l14.7 16.1 12.5-5.2 0 11.9-12.5 9 42.3-1.6 8.8 4.7-20.4 14.3-7.1 9.6 11.1 23.8-14.1-0.2-47 3.3 5.8-16.6 0-58.2-17.4 0.4 3.7-12.3 0.6-25.7 11.6 4.7 7.4 22z m-131.8-37l-8.2 0-12.2-16.4-13.7-11.9 32.8 0 1.3 28.3z m8.7-29.8l-8.7 0 4.2-10.3 11.4 1.5-6.9 8.8z m45.3-44.7l-6.7 0 0-10.5 8.3 2.9-1.6 7.6z m-58-21l-4.2 10.5 8.2 0 0 7.5-15 4.4 0-17.9 11-4.5z m-18.1-48l-1.5 13.7-30-4.5 0 25.4 16.8-7.3-8.1 24.6 2.3 46.8-26.1 0-15.5-6.1 21 30-26.2 20.9 39.9 27-26.2 20.9-32.3 15.1-2.3-13.5 0-42-61.9 0-30.6 25.4-12.2 0-5.6 9.1 17.8 4.5 0 11.7-16.4 11-22.7 1.9-21.6-21.6-2.8-13.5-15.1 4.5-18.1 13.3-25.8 22.3-22.5 8.3-12.8-15-3.3-45.4 3.3-10.6 17.7 0 0-19 13.4-3.6 0-12-10.9-8.6 28.9-23.4 1.2-3.3 16.2-3 12.7-13.6 15.1-25.5 33.3 0 18 1.6 12.2 13.4 18.2-7.4 41.2-23.8 26.2 5.9 12.4-20.9 15.4-3 5.6-10.1 61.7-0.6z m-155.6-11.7l-5.5 18-5.9 5.9-8.2 32.7-2.7-16.2-11.1-19.5 0-4.4 11.1-4.5 5.5-12 5.4 7.4 11.4-7.4z" id="HKG5170" name="Islands" data-id="HKG5170" data-name="Islands">
 </path>
 <circle cx="273" cy="196" id="0">
 </circle>
 <circle cx="495.3" cy="187.5" id="1">
 </circle>
 <circle cx="711.1" cy="437" id="2">
 </circle>
</svg>