<?xml version="1.0"?>
<!--
************* Copyright (c) 2017 Pareto Softare, LLC DBA Simplemaps.com *******************		
************* Free for Commercial Use, full terms at  http://simplemaps.com/resources/svg-license ************
************* Attribution is appreciated! http://simplemaps.com ***************************
-->
<svg baseprofile="tiny" fill="#7c7c7c" height="739" stroke="#ffffff" stroke-linecap="round" stroke-linejoin="round" stroke-width="2" version="1.2" viewbox="0 0 1000 739" width="1000" xmlns="http://www.w3.org/2000/svg">
 <path d="M469.5 273.1l0 1.4-1.2 0-0.3 0.6 0.6 2.4 0.3 2.4 0.5 1.3 1 1.3 2.3 1.9 1.4 1.5 1.8 4 0.5 0.9 1.5 0.6 0.9 0.4 1.6-0.1 1 1.1 0.2 3.9 0.1 3.7-0.7 2.2-1.6 1.5-3.7 1.5-3.5 2.1-3.5-1.5-4.4-0.8-4.1 0.5-1.1 0.3-1.1 0.4-1.3 0.2-1.4-0.1-1.7-0.7-1.6-0.2-5.8 0.4-5.8-1.6-2.7-0.5-1.9 0.3-3.4 1.2-3.4 1.5-6.7 3.7-4 1.4-3.4 0.9-5 0-2.4 0.3-3-0.7-2-2.7-11.4 3.1-7.2-0.2-2.9 0.5-6.1 5.3-2.6 2.9-1.5 1.3-2.9 1.6-10.4 3.8-4.9 3.5-1.6 1.4-0.8 0.5-6.6-0.1-11.4-2.7-1.6 0-1.5-0.3-1.5-1-1.8-0.7-1.2-0.2-1.1 0.3-0.8 0.6-1 0.3-0.7 0.6-1.7 0.7-1.8-0.4-2.4-1.1-1.4-0.9-1-0.8-1.1-1.5-1.1-1.8-0.9-4.2-0.1-2.1-0.2-1.7-2.8-1.9-1.5-0.1-0.8 0.3-6.2 3.6-2.3-0.3-6.8 1.8-7.1 0.6-2.5-1-6.4-7.1-1-1.9-0.8-5.1-0.2-2.4-1.5-5.8-1.7-3.1-2.7-1.4-11.6-8.2 2.3-0.6 1.4-0.8 0.9-1.7 0.1-1.9-0.5-1.5-1-0.8-1.3 0.3-0.6-2.2-2.5-2.8 0-1.8 0.9-1.5 2.5-2.6 1.1-1.7 1.5-4 0.9-1.5 1.8-1.7 1.6-1 0.9-1.5-0.6-4 1-0.3 2.9 0.4 2.7 0.9 7.1 4.3 2.7 0.3 0-1.1-1.6-1.6 1.6-1.9 5.6-3.4-3.1 4.2-1.1 2.6 1.4 1.2 0.9 1.1 15 13.7 4.8 2.1 5.1-1 0.9-1 1.7-2.6 0.7-0.9 1.6-0.1 4.1 0.2 0.9-0.7 0.9-2.8 2.4-1.5 3.2-0.3 16.5 3.8 14.5 5.1 14.8 1.6 17.1 4 5.7 0.5 6.1-0.7 9.8-2.9 2.8-0.5 0.5-0.5 2.7-2.1 0.6-0.3 0.9-0.7 1.9 0.7 2 1.1 0.7 0.6 6.8 0.6 31.3-2.8 5.3 0.2 4.9 2 0.4 0.2z m-8.2-27.9l-0.8 0.9-0.7-0.6 0.6-0.8 0.3-0.9 0.6 1.4z m3.7-1.8l-0.6 0.6-0.5-0.7-0.6-0.6-0.1-0.6 0.9-0.6 0.9 0.5 0 1.4z" id="HND637" name="Atlántida" data-id="HND637" data-name="Atlántida">
 </path>
 <path d="M699.7 240.3l0 152.8-9.6-11.3-5.3-5-22.4-9.9-2.6-1.7-9.3-11.4-8.5-12.6-5.7-4.6-17.5-6.7-16.4-14.2-12.9-7.1-3.4-0.7-1.4 0.8-1.6 0.6-1.2 0.2-1.6-0.6-1.1-1-1.1-0.4-0.8-0.2-3.5 1.8 0.3 1.6-0.6 1.2-1.2 1.5-3.5 2.8-3.1 2-1.8-0.1-1.9-1.3-1-0.4-1.1-0.1-1.1 0.4-0.8 0.9-3.9 6.5-9.7 9.6-9.2 5-0.7 1-1.1 0-1.1-0.5-1.3-0.4-1.6-0.2-2.9 0.5-1.4 0.6-2.6 0.5-3.1 1.5-3.6 0.9-3.7-0.9-9.8-5.2-0.3-4.4-1-2.2-0.1-0.8 0.9-7.5-0.2-2.2-0.5-1.4-0.5-0.4-0.7-0.1-0.4 0.2-0.4 0.7-0.8-0.5-1.4-0.5-1.4-1.4-0.9-0.4-1.3 0-4-1.1-7.7 0.3-1.6-0.1-0.9-0.3-0.3-0.6-1.9-2.2-4.7-3.9 3.5-2.1 3.7-1.5 1.6-1.5 0.7-2.2-0.1-3.7-0.2-3.9-1-1.1-1.6 0.1-0.9-0.4-1.5-0.6-0.5-0.9-1.8-4-1.4-1.5-2.3-1.9-1-1.3-0.5-1.3-0.3-2.4-0.6-2.4 0.3-0.6 1.2 0 0-1.4 3.7 2.4 2.5 0.7 3.9 0.2 3.1-0.5 2.7-1.2 15.2-9.6 4-4.4 1.8-1.4 5.5-2.3 5.6-1.4 22.9-0.8 2-0.6 1.6-0.8 6.3-4.6 3.3-3.8 1.5-4-2.6-3.4-10.1-1.4-4.9-1.3 0.8-1.8 4.2-0.4 12.3 2.5 8.6 1.6 6 0.7 7.6 2.2 7.5 1.9 2.6 0.6 1.8 0.8 0.4 1.9 0 2.3 0.4 1.8 1.2 0-0.1-1.1 0.3-0.5 0.9-0.7 2.6 0.1 1.4 2.1 2.9 2.4 3.4 2.4 7.1 3.1 12 3.2 8.4-0.7 11.9-1.2 17.3-0.5 9.2-3.9 11.7-8.5 7.6-4.6 12.2-0.3z" id="HND638" name="Colón" data-id="HND638" data-name="Colón">
 </path>
 <path d="M381.5 401.9l0.4 1.8 0.6 1.1 1.7 2 1.4 1.5 3.8 1.9 1.8 2 2.3 1.2 1 1-1.5 1.3-1.3 4.5-1.6 1.3 1 3.5 0.6 1.2 1 1.8 0.8 1.7 0.4 4.5 0.4 1.8 1.3 1.8 1.3 6.1 4.9 12.4 1.9 3.5 2.2 2.4 1.4 1.2 3.1 0.8 1.5 1.5 5.6 5.3 3 3.8-0.1 3-0.7 2.7 0.2 1.4 0.4 1.5 1.6 2.6 0.6 1.2 0.3 2.5 0.5 2.3 2 5.6-0.1 2.3-11.9 9.2-5.3 5-1.2 5.5-3 5.5-7.8 6.9-2 5.1-1.7 2.5-0.3 0.9 0.2 0.6 1.3 0.3 0.9 0.5 0.6 0.8 0.2 0.7-1.7 3.3-3.3 0.5-2.6-0.5-2.2 0-3.4 1.3 0.9 3 4.2 5.7 4.4 3.3 1.2 0.7 0.5 1 0.3 1.8-0.6 6.6-1.7 3.3-1.9 2-2.6 1.4-5.5-1 0.6 2.4 0.2 1.2-0.1 1.4-0.8 1.6-0.4 2.1 0.2 3.3-0.7 7.6-3 7.5-2.6 3.5-0.8 0.6-2.5 0-4-0.7-1.3-0.7-3.6-3.2-2.4-1.2-1.1 1.3-0.2 0.7-0.3 1.2-0.1 2.4 0.1 2.3 0.5 1.7 0.9 1.3 1.9 3.4-0.1 2.6-1.3 1.7-1.2 2.7-0.5 3.5-0.7-0.1-7.7-3.4-5 1.7-7.9-2.9-5.5 0.7-1.6-0.7-1.9-1-6.5 0.8-5.2-5.1-0.4-2.2 1.2-2.8 0.1-0.6-0.6-0.2-1.6 0.2-3.7-1-3.1 0.1-1.8 0.6-0.5 1.8-0.4 4.3-0.9 3.6 0.1 2.4 0.6 2.2-1.2 0.7-1.6-0.5-4.2-2.6-5.7-4.4-0.5-0.6-1.3-0.7-3 0.4-4.9-1-6.5-4.5-1.2-1.9 0.3-7.1 0.1-4.9 4.4-5.7 1.3-3.9 0.4-0.6 0.4-1.1 1.3-5.9 0.2-3.1-2.9-21.7 0.1-3.4 3.3-4 1.3-1.1 1-0.6 1 0.1 5.1-0.6 4.6-2.1 1.9-1.2 1-1.3 0.1-0.9 1.7-3.5 3.2-2 4.2-0.9 1.2-0.6 0.6-1.1 0-1-0.7-1.7-0.6-0.5-1.1-0.5-0.7-0.4-1.8-2-0.6-1-0.3-1.7-0.3-6.5 0.3-1.7 0.4-1 0.8-0.3 1.6 0.1 2 1 1.2-0.5 0.8-0.5 4.2-5.8 1.7-3.5-0.6-1.2-3.9-3-0.4-1 0.5-0.5 0.4-0.7 0.1-1.6-0.3-0.7-0.5-0.6-3.7-3.4-2.6-1.7-0.8-1.2-0.7-1.5-0.4-1.3-0.4-2.6 8.1-8.1 1.5-3 0.4-2.7-0.1-2.5 0.3-0.6 0.5-0.4 1.3 0.3 1.4 0.7 0.7 0.2 1.5 0 0.6 1.3 1.8 0.6 1.8 0.1 2.4-4.3 0.6-2.3-0.1-1.8-0.3-1.3 0.3-0.7 0.8 0.6 0.6-0.1 0.2-0.5 0.3-1.5 1.8-0.6 1.4-1 1.9-0.7 0.7-0.4 1.2-0.8 0.4-0.4-0.2-0.6 0.1-0.7 1.8-4.5 0.9-3.9-0.6-5.7-0.8-2.5 0.2-2.6 0.4-1.6 0.5-0.9 1-0.6 3.3-0.3 2.6-2-1.6-2.5-0.2-1.2-1.4-1.4-2.8-1.3 3.1-4.3 1-2.3 1.6-2.4 3.2-2.8 0.5-0.9 0.3-1 0.2-3.4-0.1-1.7 2.8-2.4 7.6-1 1.6 0.1 1.9 0.4 1.2 0.6 2.5 0.7 8.6-0.3 5.4 1.2z" id="HND639" name="Francisco Morazán" data-id="HND639" data-name="Francisco Morazán">
 </path>
 <path d="M699.7 447.2l0-54.1 0-152.8 7.9 2.6 15.4 7.1 19.3 5.8 9.2 3.1 2.2 1.7-1 2.1-1.9 3.1-0.1 6.7 3.4 3.3 3.2 0.5 3.9-1.3 0.6-3.4 0.4-1.5 1.5 0.1 1.1 2.1 2.8 2 4.1-0.7 3.8 0.5 7.8 1 1.5-1.7 2.5-1.1-3.4-1.4-4-0.9-12.7-2.2-4.7-2.1-4.1-2-1.4-2.6 6.5 1.3 22 4.2 14.3 1.5 9.5 0.5 3.3 1.1 8.7 7.3 11.7 9.6 17.4 14.9 16.9 14.5 9.4 7.9 12.3 7.6 2.9 1.7 3 1.3 5.6 1 1.4 0.7 1.1 1.6 0.1 1.3-1 0.9-2.4 0.3-2.8-1.1-6.1-4.8-4.5-1.6-3.1-2.1-1.5-0.7-4.8-0.1-2.1-0.4-1.9-1.9 0.7-0.3 0.7-0.5 0.8-0.2-1.4-2.1-5.3-6-1.1 0-1.7 0.9-2.2-1.3-2.2-1.9-2.1-1-3.2 0.4-1.6 1.1-1.1 1.4-2.3 1.6-1-0.7-4.4-1.6 2-1.8 0.9-1 0.4-1.1-0.8-0.4-1.7-0.3-1.9-0.1-1.2 0.3-0.5 1.8 1.1 2.8 1.8 3.1 2 2.4-0.7 0.6-0.3 0.6-1.1 0-4.8-9.4-1.8-1.9-1.8-0.4-2.1 0.5-2.8 0.9-1.9-0.2-2.7-0.6-1.9-0.2 1.2 3.7 1.1 1.3 2.9 1.1 0 1.4-0.5 1.8-0.3 2 1.1 0 0.5-2.5 3.2-1.6 1.4-4.6 1.5-0.5 1.5 1 2.2 5.4 2.6 4.4 0.9 3.7-3.4 1.6-1.7 1.9 1.2 4.2 2.7 4.5 2.8 2.9 4.1 2.2 3.4 0.9 1.5-1.6-1.5-4.9 2.2 1.7 1.9 2.3 0.7 2.5-1.3 2.7 2.2 2.7 3.1 0.6 7.8-1 0 1.1-1.5-0.1-1.1 0.3-1.8 0.9 0 1.1 1.4 2.8 1.9 2.6 2.7 1.9 3.3 0.7 2.9-0.4 3.8-0.9 3.6-1.5 2.4-1.7-2-2-6.8-3.7-1.2-1.1-0.5-1.1-0.7-0.9-1.5-0.3-1.7-0.1-12.2-4.4-2-1.3-3.7-5.4-1.9-1.4 1.4-1.2 1.6-0.9 3.6-1.3 14.3 6.3 2.3 3.4 0.9 1.8 2.2 1.6 2.7 1.2 4.5 1 1.9 1.3 1.7 1.9 1.4 2-1.1 0.8-1.3 1.1-0.9 0.4 0 1 2.6 0.6 2.3-1.6 1.7-0.2 1.2 4.8-0.4 6.2 0.4 1.7 1.1 1.2 1.2-0.1 0.9-1.2-0.1-2.2 1.2 0 1.4 3.2 1.4-0.7 2.7-4.9 2.5-1.4 3.3-1 5.7-0.8 0.7-0.7-0.3-3.8 0.2-1.3 1.1-0.7 1 0 1.2 0.4 10.4 2.1 2.7-0.6 0 1-0.9 1 0.1 0.7 0.5 0.7 0.3 1.2 0 5-0.8 2.5-1.9 1.1-1.8-0.7-0.9-2.9-0.5-0.8-1.4-0.6-1.7-0.3-1.4-0.1-0.9 0.7-0.9 1.5-1 2.5-0.7 0.8-0.7 0.6-0.6 0.8-0.2 1.7 0.4 1.6 0.9 0.2 1.1-0.4 0.9-0.8-0.8-1.4-0.2-1.1 0.3-1 0.7-1 1.2 0 0.3 4 1.1 3 2 1.1 3.1-1.3 0.9-1 1.5-2.4 0.9-1.1 1.3-0.8 7.1-2.6 0-0.6-0.7-1.7-0.7-1.1-0.9-0.7-0.9-1-0.7-1.7-0.6-2.3-1.1-3.2-2-1.9-3 1.6-4.7-2.9-2.4-0.5-2.8 1.2-1-1.1 0.4-0.7 0.6-1.6-2.6-0.4-6.9-2.5-1.4-1.1-1.7-1.9-3.4-1-2.4-1.5 0.9-3 2.6-1.3 2.5 1.3 2.3 2.2 1.9 1.2 1.7 0.5 17.3 9.1 21.6 8.2 8.2 6.1 1.9 3.1 2.6 10.7 2.8 6.6 4.3 6.4 4.8 3.9 19.8 7.9-2.1 0.3-5.4-0.3-2.2 0.4-4.3 2-7.1-0.1-0.6 0.1-2-0.8-1.2-0.8 0.2-0.9 1.9-0.9-7.1-0.8-2.7 0.2-2.4 1.6-0.9-2.2-1.7-1-2-0.8-2-1.6-1.5 2.8-2.5 2.8-3.3 1.9-3.7 0.5-1.5-0.8-2-3-0.8-0.8-2.1-0.4-1.6 0.2-0.6 0.8 1.1 1.6-0.8 1.1-0.3 1-0.1 2.6-1.6-1.5-0.9 0.7-0.2 1.9 0.5 2.3-0.9-0.5-2.3-0.7 0.3 0.5 0.8 1.8-2.4 0.7-3.9 3.2-4 1.4-0.7 1.8-0.4 2.3-0.7 2-1.2 0-1.3-1.7-3-0.9-3.5-0.2-3.2 0.4-3 1.5-0.6 1.8 1.5 4.8-1.2 0-0.6-1.5-1.2-0.7-1.6-0.2-2 0.1 0.3 2.6-3.3 1.3-9 0.5 1.2 2 0.8 0.8 1.2 0.8-2.9 0-3.2 1.1-2.9 1.6-1.9 1.7-1-1.2-0.5-0.4-1.8-0.6 0.8 1.5 0.2 0.7-2.1-0.5-2.5-2.8-2-1.1-0.8 3.8 0 1.5 0.8 1.4-15.8 0.8-2.7-0.3-0.4-1.3-0.8-0.4-2.7 0.1-1.7-0.3-0.6-0.5-0.4-0.8-3.6-2.4-1.2 0.1-1.8 1.5 1.9 3.9 1.1 1.5 1.4 1.4 0 1.2-1.1 0.7-0.7 0-0.7-0.4-1.4-0.3-1.4 0.3-0.9 0.7-0.6 0.8-0.9 0.6-4 1.1-2.3 0.2-1.9-0.8-3.8-4.1-1.3-1-1.4-0.9-2.2-0.7-2 0.1-0.9 2 0.8 7.7-0.8 3.7-3.3 1.7-1.8-0.1-3.9-0.9-2.4-0.2-1.2-0.9-1.2-4.3-1.5-1.6-2.1 3.1-2.3 4.2-2.9 3.7-6 2.1-4.1 2.3-1.8 0.5-2.5-0.7-1.6-1.4-1.7-1-2.5 0.8 0.5-3.3 0.6-1.1-11.7-0.4-3.6-0.8-6.2-2.7-3-0.3-3 1.8-2.4-5.7-1.7-2.7-3.2-2.3 0.1-2.2-0.4-2-3.2-0.4 0.1-0.3 1.2-1.6 0.5-0.5-2.3-3.9-3.5-2.6-4.2-1.3-4.2 0.2-9.6 1.7-2.6 1.6-7.4 7.1-2.8 2.1-2.5 1.6z" id="HND640" name="Gracias a Dios" data-id="HND640" data-name="Gracias a Dios">
 </path>
 <path d="M398.5 220.8l0.4 1.9-3-0.1-2.5 0.6-4.4 1.8-3.7 2.2-2.5-1.9-2.9-1 1.4-1.9 7.1-3.6 4.1-0.9 2.3-0.3 2.2-0.6 1.9 0 1 1.1-1.4 2.7z m108.7-53l-3.5 1.7-3.1-0.9-4.8 1.1-3.4-0.7-2.8 0.5-1.1 0.5-2.2 1.5-1 0.4-1.4 0.1-2.3 0.5-2.9 2.1-5.9 2.9-5.8 2.1-6.1 4.4-5.4 1.7-3.7 0.4-5.2 5-3.2 2.2-0.9-2.6 1.1-4 4.6-3.9 6.4-3.9 4.9-2.2 9.6-4.6 10.4-3.5 6.9-2 4.8-0.6 11.4 0.7 7.9 0.1-3.3 1z m9.2-4.1l1.1 0.5 1.3-0.3 0.9 0.2-0.7 1.2-1.4 1-1.8-0.5-1 0.1-1.9 0.5 0-0.8 2.6-1.6 0.9-0.3z m39.9 1.7l-8.3 5.6-0.6-1.5 1.7-3 2.2-4.1 2.4-1.2 2.6-4.5 1.8-2.3 5.3-2.4 3 1.1 2.5 2-0.8 2.1-3.6 0.4-0.8 2.4-2.2 2.8-3.1 0.2-2.1 2.4z m317.5-163.1l-1.5 0.3-1.4 0-1-0.6-0.7-1 1.2 0.1 2.4 0.7 1 0.5z" id="HND641" name="Islas de la Bahía" data-id="HND641" data-name="Islas de la Bahía">
 </path>
 <path d="M699.7 393.1l0 54.1-0.3 0.3-2.2 2-1.5 2.6-0.8 6.2-0.5 0.9-0.8 0.4-2.6 0.7 0.9 1.6 4.5 3.3-3.5 3.3-0.9 1.3 4.1 0-1.2 2.8-5.7 5.7-3.4 1.6-2.7-2-2.5-2.8-2.9-0.8-1.3 2.4-0.7 4.6-0.3 8.3-0.6 1.1-3.7 4-0.2 1 0.4 2.5-0.2 1.1-4.4 3.4 2.6 1.7 2.9 2.6 2 3.3 0.2 3.8-1.9 2.7-3.3 2-4 1.3-3.9 0.7-6.1 0-1.7 0.4-3.8 1.9-1.5 0.4-0.9 0.9-0.6 1.1-1.1 1.4-0.5 1.2-0.4 0.5-0.7 0.2-1.7-0.3-0.7 0.1-1.6 1.5-1.8 2.4-1.5 2.6-1.2 4.3-1.3 3.1-1.8 3.2-1.9 2.3-4.1 3.3-2.7 1.6-5.8 1.6-0.9 2.1-0.4 2.7-1.5 2.2-2.9 1-2.7 0.5-2-5.4-0.7-0.8-1.2-0.9-1.3-0.7-1.6-1.3-0.6-1.3-0.3-1.6 0-1.9-0.7-3.5-0.9-2-1.6-1.8-2.5-2.2-1.4-0.4-0.7 0.2-0.3 1.2-0.5 0.2-1.1-0.1-6.1-1.9-7.6-1.7-1 0.2-0.7 0.7-1.9 3.8-0.7 0.6-1 0.3-2.1-0.4-1.6-0.8-2.1-1.5-1.6-0.3-1.3 0.2-2 1.5-1.7 0.7-0.5 0.5-0.7 1.4-0.1 1.7-0.2 0.7-0.5 0.7-0.8 0.7-1.1 0.4-2.2 0.1-1.1-0.3-1.9-1.5-3.1-4.2-6.2-2.8-1.2-1.1-0.8-1.3-0.3-1.5-0.6-2.2-0.9-2.2-2-3.3-1.7-1.5-1.7-0.9-2.8-0.6-1.4 0.2-1 1-0.5 1.3-0.7 0.7-1.3 0.1-4.1-1-4.5-1.7-1.1-1.2-4.3-7.8-1.4-1.7-1.5-0.8-2-0.4-4.2-0.1-1.6 0.3-3.1 0.8-2.3 1.2-1.7 1.1-1.9 0.7-0.7 0.6-1.6 1.4-3.6 2.3-1.1 0.5-1.9 0.2-11.8-0.7-1.5-0.5-0.7-0.6-0.9-2.3-0.8-1.1-0.7-0.8-3-2.3-3.7-1-0.6-0.4-3.3-3.2-8.9-2.6-3.4-0.3-1.2 0.2-0.7-0.2-0.6-0.7-0.8-1.7-1.6-1.9-0.7-0.4-0.6-0.1-1.7 0.3-1 0.5-1.6 0.1-0.9-0.1-6.9-2.9 0.1-2.3-2-5.6-0.5-2.3-0.3-2.5-0.6-1.2-1.6-2.6-0.4-1.5-0.2-1.4 0.7-2.7 0.1-3-3-3.8-5.6-5.3-1.5-1.5-3.1-0.8-1.4-1.2-2.2-2.4-1.9-3.5-4.9-12.4-1.3-6.1-1.3-1.8-0.4-1.8-0.4-4.5-0.8-1.7-1-1.8-0.6-1.2-1-3.5 1.6-1.3 1.3-4.5 1.5-1.3-1-1-2.3-1.2-1.8-2-3.8-1.9-1.4-1.5-1.7-2-0.6-1.1-0.4-1.8 2.2-4.1 1.6-1.2 2 0.3 4.8-1.4 3.2-2.9 2.4-1.6 0.9-1.5 0.2-1.3 0.2-2.1 0.3-1.2 0.7-1.5 1.1-1.8 0.4-1-0.1-1.8 1.3-2.8-1.3-10 0.1-1.3 0.6-2.3 0.5-0.7 0.6-0.5 1.1-0.2 2.4-1.3 0.6-0.2 1.3-1 0.4-1.4 7.5-1.6 4.9 4 1.3 0.4 1.8 0.3 2.9 0 1.3-0.3 1-0.5 1.6-1.3 1.6-0.5 1-2.3 1.3-1.6 1.6-4.2 0.6-1 0.8-0.6 1.4 0.3 0.9 0.1 1.2-0.5 13.6-7.4 2-0.5 1.7 0 3.8 1.1 2.4 1.3 2 1.4 1.5 1.3 1.3 1.4 0.8 1.2 0.5 1 1 0.8 1.8 0.6 3.8 0.1 2.1-0.3 4.2-2 8.9-5.4 2-0.7 7.2-5.2 9.8 5.2 3.7 0.9 3.6-0.9 3.1-1.5 2.6-0.5 1.4-0.6 2.9-0.5 1.6 0.2 1.3 0.4 1.1 0.5 1.1 0 0.7-1 9.2-5 9.7-9.6 3.9-6.5 0.8-0.9 1.1-0.4 1.1 0.1 1 0.4 1.9 1.3 1.8 0.1 3.1-2 3.5-2.8 1.2-1.5 0.6-1.2-0.3-1.6 3.5-1.8 0.8 0.2 1.1 0.4 1.1 1 1.6 0.6 1.2-0.2 1.6-0.6 1.4-0.8 3.4 0.7 12.9 7.1 16.4 14.2 17.5 6.7 5.7 4.6 8.5 12.6 9.3 11.4 2.6 1.7 22.4 9.9 5.3 5 9.6 11.3z" id="HND642" name="Olancho" data-id="HND642" data-name="Olancho">
 </path>
 <path d="M472.2 307.7l4.7 3.9 1.9 2.2 0.3 0.6 0.9 0.3 1.6 0.1 7.7-0.3 4 1.1 1.3 0 0.9 0.4 1.4 1.4 1.4 0.5 0.8 0.5 0.4-0.7 0.4-0.2 0.7 0.1 0.5 0.4 0.5 1.4 0.2 2.2-0.9 7.5 0.1 0.8 1 2.2 0.3 4.4-7.2 5.2-2 0.7-8.9 5.4-4.2 2-2.1 0.3-3.8-0.1-1.8-0.6-1-0.8-0.5-1-0.8-1.2-1.3-1.4-1.5-1.3-2-1.4-2.4-1.3-3.8-1.1-1.7 0-2 0.5-13.6 7.4-1.2 0.5-0.9-0.1-1.4-0.3-0.8 0.6-0.6 1-1.6 4.2-1.3 1.6-1 2.3-1.6 0.5-1.6 1.3-1 0.5-1.3 0.3-2.9 0-1.8-0.3-1.3-0.4-4.9-4-7.5 1.6-0.4 1.4-1.3 1-0.6 0.2-2.4 1.3-1.1 0.2-0.6 0.5-0.5 0.7-0.6 2.3-0.1 1.3 1.3 10-1.3 2.8 0.1 1.8-0.4 1-1.1 1.8-0.7 1.5-0.3 1.2-0.2 2.1-0.2 1.3-0.9 1.5-2.4 1.6-3.2 2.9-4.8 1.4-2-0.3-1.6 1.2-2.2 4.1-5.4-1.2-8.6 0.3-2.5-0.7-1.2-0.6-1.9-0.4-1.6-0.1-7.6 1-2.8 2.4 0.1 1.7-0.2 3.4-0.3 1-0.5 0.9-3.2 2.8-1.6 2.4-1 2.3-3.1 4.3-4.3-3.9-2-0.4-1.1 0.9-0.8 0.3-0.9-0.5-1.3-1-0.7-0.4-5.7-1.5-3.8-0.3-3.1 3-4 2.1-2.4-0.1-1.7-0.3-1.2-1 0-1.2-1.1-2.9-0.2-0.9 0.1-2.3-0.2-0.9-0.5-1-0.8-0.4-0.7-0.9-0.6-0.4-1.6-0.6-1.5-1.2-0.7-1.4-0.4-2-0.5-1.5-1.7-2.5-1.3-1.3-2-1.4-1.7-0.6-1.1 0.4-4.6 3.4-0.6 1.4-7 1.6-1.8-0.2-15 0.2-0.8-7.4 0.2-1.1 0.4-1.2 0.6-0.4 0.2-0.6-0.2-2.2-0.6-1.7-0.2-1-4.7-4.8-2.5 0.5-0.8-0.1-0.9-0.4-0.4-1.6-0.5-0.7-1.8 0-0.5-0.2-0.6-0.5-0.7-0.3-2.3 0-0.9-0.1-0.5-0.8-0.1-0.7-0.4-0.7-0.7-0.8-2.4-1.8-1.7-0.4-3.1-0.3-3.3 0.9-0.7-0.5 0-0.7 0.5-1.6-0.1-1.1 0.5-2.4 0-2-0.6-0.4-0.9 0.4-0.7 0.1-0.7-1.2 1.4-2.4-0.3-1.8 0.5-1 0.2-1.2 0-1.1-0.3-1.1 2-2.1 0.4-0.7 0-0.6-0.4-1.1 0.3-0.5 0.8-0.4 2.1-0.6 0.9-0.5 1.5-1.2 1.4-0.9 1.1-1.4 3.9-6.6 2.4-1.9 0.5-1.4-0.5-2.3-1.6-1.6-2-1-1.1-1 1.1-1.4 1.7 0 1.8 1.2 1.2 0.2 0.5-2.9-0.8-2.2-1.4-2-0.6-2.3 1.8-3.1 1.6-1.1 0.9-2.4 0.6-2.7 1-2.2 1.5 0.4 1.1 0.2 1.1-0.7-0.1-0.5 1.1-4.3 0.4-0.5-2.4-3.9-4.2-3.4-2.6-3 2.3-2.7-2.9-0.6 0.9-1.6 4.9-3.3 11.6 8.2 2.7 1.4 1.7 3.1 1.5 5.8 0.2 2.4 0.8 5.1 1 1.9 6.4 7.1 2.5 1 7.1-0.6 6.8-1.8 2.3 0.3 6.2-3.6 0.8-0.3 1.5 0.1 2.8 1.9 0.2 1.7 0.1 2.1 0.9 4.2 1.1 1.8 1.1 1.5 1 0.8 1.4 0.9 2.4 1.1 1.8 0.4 1.7-0.7 0.7-0.6 1-0.3 0.8-0.6 1.1-0.3 1.2 0.2 1.8 0.7 1.5 1 1.5 0.3 1.6 0 11.4 2.7 6.6 0.1 0.8-0.5 1.6-1.4 4.9-3.5 10.4-3.8 2.9-1.6 1.5-1.3 2.6-2.9 6.1-5.3 2.9-0.5 7.2 0.2 11.4-3.1 2 2.7 3 0.7 2.4-0.3 5 0 3.4-0.9 4-1.4 6.7-3.7 3.4-1.5 3.4-1.2 1.9-0.3 2.7 0.5 5.8 1.6 5.8-0.4 1.6 0.2 1.7 0.7 1.4 0.1 1.3-0.2 1.1-0.4 1.1-0.3 4.1-0.5 4.4 0.8 3.5 1.5z" id="HND643" name="Yoro" data-id="HND643" data-name="Yoro">
 </path>
 <path d="M279.5 693.1l-3.6 0.6-1.9-0.3-1.3-0.8 0-1.1 1.1 0-0.6-0.8-1-1.8-0.6-0.9 2.6-0.9 2-0.3 4.8 0.2 0.5 1.1-0.3 2.6-1.7 2.4z m0.3-19.1l1.6 0.5 4.3-1 2.4 0 0 1-2.8 1.3 1.9 6.5-2.4 2.3-7.4-2.4-3.5-2.1 0.5-2.8 2-3.1 1.5-1 1.9 0.8z m25.8-49.6l0.3 0.3 2.9 2.4 1.3 0.7 1.1 0.8 0.7 1.1-0.4 6.5 0.7 1.3 0.7 1.3 0.2 1.1 2.3 5 5.7 4.3-0.5 3.4 0.2 1.5 0.9 2.5 1.8 3.5 0.3 3.3-1.8 4.1-3.2 2.5-2.4-2.2-1.1-0.8-1.4-0.3-3.3 0.6-1.2-0.3-1.6-1.5-2.7 2-0.8 0.9-0.8 1.6-0.3 2.2 0.5 1.2 0.1 0.9-1.5 1.3-1 0.1-5.6-0.1-2.5 0.6-1.4 0.1-1.5-0.7 0-1.1 2.2 0 0-1-3-0.7-3.1-1.1-2.8-0.3-2.1 2.1-1.1 0 0.3-1.6 1.8-4.2-2.2-0.8-0.5-1.8 0.6-4.7-0.9-2.4-1.9 0.4-2.3 1.9-1.5 1.8 1.4 4.7-2.3 4.4-4.4 3.2-4.5 1.2-2.8-0.5-3.8-2.3-3-1.1-0.3-1.1 0-1.1-0.6-0.5-1.5-0.1-1.1-0.3-2.3-0.8 12.6-5.8 2.8-3.2 0.4-2.1-0.3-2.2-0.8-1.9-1.3-1.5-2.3-0.9-3.4 1.1-1.6-0.5-1.7-3.8 0.9-4.6 3.9-9.3 0.3-3-0.1-6.1 0.6-2.9 1.4-2 1.6-1.6 0.8-1.7-1.1-2.8 0.8-2.7 3.3-7.4 1.4-2.4-2.8-1.2-4.5-3.9 2.4-0.4 6.6-0.3 3.9 2.6 3.5 0-0.1 4.9-0.3 7.1 1.2 1.9 6.5 4.5 4.9 1 3-0.4 1.3 0.7 0.5 0.6 5.7 4.4 4.2 2.6 1.6 0.5 1.2-0.7z" id="HND645" name="Valle" data-id="HND645" data-name="Valle">
 </path>
 <path d="M340.1 421.4l2.8 1.3 1.4 1.4 0.2 1.2 1.6 2.5-2.6 2-3.3 0.3-1 0.6-0.5 0.9-0.4 1.6-0.2 2.6 0.8 2.5 0.6 5.7-0.9 3.9-1.8 4.5-0.1 0.7 0.2 0.6-0.4 0.4-1.2 0.8-0.7 0.4-1.9 0.7-1.4 1-1.8 0.6-0.3 1.5-0.2 0.5-0.6 0.1-0.8-0.6-0.3 0.7 0.3 1.3 0.1 1.8-0.6 2.3-2.4 4.3-1.8-0.1-1.8-0.6-0.6-1.3-1.5 0-0.7-0.2-1.4-0.7-1.3-0.3-0.5 0.4-0.3 0.6 0.1 2.5-0.4 2.7-1.5 3-8.1 8.1 0.4 2.6 0.4 1.3 0.7 1.5 0.8 1.2 2.6 1.7 3.7 3.4 0.5 0.6 0.3 0.7-0.1 1.6-0.4 0.7-0.5 0.5 0.4 1 3.9 3 0.6 1.2-1.7 3.5-4.2 5.8-0.8 0.5-1.2 0.5-2-1-1.6-0.1-0.8 0.3-0.4 1-0.3 1.7 0.3 6.5 0.3 1.7 0.6 1 1.8 2 0.7 0.4 1.1 0.5 0.6 0.5 0.7 1.7 0 1-0.6 1.1-1.2 0.6-4.2 0.9-3.2 2-1.7 3.5-0.1 0.9-1 1.3-1.9 1.2-4.6 2.1-5.1 0.6-1-0.1-1 0.6-1.3 1.1-3.3 4-0.1 3.4-5.7 0.6-2.1 1.5-4.2 4.1-0.1-5.6-1-1.7-1.1-1.5-1.7-0.9-2.8-2.4-1.8-1-1.8-0.7-1.6-0.4-2.7-1-0.6-0.6-0.2-0.6 0.6-1.5 0.8-2.6-2.2-2.7-5.5-2.3-0.5-3.3 0.4-1.1 1.1-0.3 1 0.4 5.9-1.5 3.2 0.3 2.6-0.4 2-0.5 3.4-1.2 1.5-0.8 2.1-1.5 2.4 0.3 2.5-0.5 1.4-0.6 0.8-0.6 1.5-1.9 0.5-2.2-1.3-1.3 1.1-1.7-0.6-3.2-0.4-1.3-2-4.3-0.7-0.6-7.2 3-1.3-0.4-1.7-0.1-3.3-1.2-1.7-0.9-4.9-1-0.4-0.2-1.5-1.5-0.2-0.4-6.3-1.7-2.2-2.3-1.6-2.5 0.6-0.6 0.2-0.9 0-0.6-1.3-2.3-5.1-6.6-1.9-1.8 0.2-1.5-0.1-1.7-0.6-0.7-1-0.8-3.9-2-1.2-1-1-2-0.4-1.1-0.1-1.7-0.2-0.6-1.3-2.5-1.5-2-2.9-1.1-2.7-2-5.5-1.4-1.2-0.2-1.6-0.5-0.9-0.3-2.1-3.1 2-3.4-1.5-4.2-1-1.7 0.1-2.3 0.4-1.2 0.8-0.8 1.8-0.8 0.9-0.6 4.8-5.1 5.7-1 0.2-7.3 0.9 2.7 1.1 1.6 1.7 1.2 12.7-9.1 2.3-3.1 3.5-3.6 0.6-0.5 3.5-0.8 3.1-1.5 7.2-5.4 2.7-2.4 0.8-3.5-0.1-5.5 15-0.2 1.8 0.2 7-1.6 0.6-1.4 4.6-3.4 1.1-0.4 1.7 0.6 2 1.4 1.3 1.3 1.7 2.5 0.5 1.5 0.4 2 0.7 1.4 1.5 1.2 1.6 0.6 0.6 0.4 0.7 0.9 0.8 0.4 0.5 1 0.2 0.9-0.1 2.3 0.2 0.9 1.1 2.9 0 1.2 1.2 1 1.7 0.3 2.4 0.1 4-2.1 3.1-3 3.8 0.3 5.7 1.5 0.7 0.4 1.3 1 0.9 0.5 0.8-0.3 1.1-0.9 2 0.4 4.3 3.9z" id="HND646" name="Comayagua" data-id="HND646" data-name="Comayagua">
 </path>
 <path d="M253.4 284.7l-4.9 3.3-0.9 1.6 2.9 0.6-2.3 2.7 2.6 3 4.2 3.4 2.4 3.9-0.4 0.5-1.1 4.3 0.1 0.5-1.1 0.7-1.1-0.2-1.5-0.4-1 2.2-0.6 2.7-0.9 2.4-1.6 1.1-1.8 3.1 0.6 2.3 1.4 2 0.8 2.2-0.5 2.9-1.2-0.2-1.8-1.2-1.7 0-1.1 1.4 1.1 1 2 1 1.6 1.6 0.5 2.3-0.5 1.4-2.4 1.9-3.9 6.6-1.1 1.4-1.4 0.9-1.5 1.2-0.9 0.5-2.1 0.6-0.8 0.4-0.3 0.5 0.4 1.1 0 0.6-0.4 0.7-2 2.1 0.3 1.1 0 1.1-0.2 1.2-0.5 1 0.3 1.8-1.4 2.4 0.7 1.2 0.7-0.1 0.9-0.4 0.6 0.4 0 2-0.5 2.4 0.1 1.1-0.5 1.6 0 0.7 0.7 0.5 3.3-0.9 3.1 0.3 1.7 0.4 2.4 1.8 0.7 0.8 0.4 0.7 0.1 0.7 0.5 0.8 0.9 0.1 2.3 0 0.7 0.3 0.6 0.5 0.5 0.2 1.8 0 0.5 0.7 0.4 1.6 0.9 0.4 0.8 0.1 2.5-0.5 4.7 4.8 0.2 1 0.6 1.7 0.2 2.2-0.2 0.6-0.6 0.4-0.4 1.2-0.2 1.1 0.8 7.4 0.1 5.5-0.8 3.5-2.7 2.4-7.2 5.4-3.1 1.5-3.5 0.8-0.6 0.5-3.5 3.6-2.3 3.1-12.7 9.1-1.7-1.2-1.1-1.6-0.9-2.7-0.3-6.8-1.2-3.9-5.1-4.6-3.5-0.1-0.7-0.2-0.5-2.7 1.1-7 0.9-1.4 2.1-7.5 2-2.2-0.6-1.2-1.1-0.4-1.1-1-1.1-0.6-3.6-1.2-4.6-3.1-1.9-2.2-1.2-2.7 0.9-3.2 6.5-7 0.9-2.6-3.2-1-2.1-1.3-1.2-1-3.5-7.1-1.1-16.2-0.6-0.8-3.9-0.8-1.6-0.7-2.2-1.5-2.4-2.1-4.7-2.8-1.1-1.1-0.7-1.1-0.3-0.9-0.2-1 0.1-1.2 0.4-1.9-0.1-0.9-0.3-1.5 0.2-1.4-0.2-0.7-1.1-0.9-2.3-1.3-15.1-4.7-8.6-1.3-9.1 3.2-0.1 0 11-8.6 7.4-7.4 4.8-8.3 1-1.3 3.3 0 2.6-1 2.3-1.3 2.8-1.2 1 1.3 1-2.2-0.1-1.9 0.5-1.4 1.9-0.8 0.9 0.5 7.3 5.2 3.9 1.2 4.2-1.9 9.3-10 3.9-2.5-0.8-2.6 1.6-0.5 6.3 0.8 9.3-5.7 1.2-2.2 0.3-1.7-0.9-0.7-1.8-0.5-1.4-1.2-0.7-1.2 0.6-0.5 6.8-0.2 2.7-0.8 2.6-1.9 4.7-1.6 13.8-0.9 2.8-0.8 1-2.4 1.2-0.4 0.6 4-0.9 1.5-1.6 1-1.8 1.7-0.9 1.5-1.5 4-1.1 1.7-2.5 2.6-0.9 1.5 0 1.8 2.5 2.8 0.6 2.2 1.3-0.3 1 0.8 0.5 1.5-0.1 1.9-0.9 1.7-1.4 0.8-2.3 0.6z" id="HND647" name="Cortés" data-id="HND647" data-name="Cortés">
 </path>
 <path d="M242.9 499l-7.2 5.3-1.9 1.1-2 0.9-1.6 0-1.3-0.3-1.1-0.4-0.8 0-0.5 0.9-0.3 2.2 0.6 5.1-2.5 4.9-0.9 1.1-1.5 1-1.9 0.8-1 0.8-0.6 2.1 0.1 1.2-1.3 2.3-6.7 0.3-5.5 4.6-2.6 2.6-1.4 3.5-1.3 1.9-0.5 0.4-4.6 2.3-1.7 1.7-8.7 9.7-1 0.9-0.6-0.2-0.4 0.4 0 0.8 1 1.7 1 1.1 1.5 3.1-1.4 8.2 0.2 0.5-2.8-0.4-1.6 0.6 0 0.6 0.1 3.2 0.4 0.6 1.4 1.4 0.3 0.4-0.8 2.3-1 0.2-1.4-0.2-2 0.8-1 1.2-1.2 2-1.2 1.3-1.8 0.6-1.9 0.1-1.8 0.6-1.1 2.1-1-0.4-1.3-0.4-1.3-0.2-1 0-0.5 0.6-0.1 2-0.2 0.5-1.2-0.1-2.5-1-1.6-0.1-6.4 1.4-2.9 1.3-3 1.8-4.3 0.2 1.4-2.3-0.1-2.7-1.7-4.3-0.5-1.6 0.4-2.4 0.5-2 0.1-1.9-1-2.2 0.9-0.1 0.3-0.2 1.8-2.4 0.6-1.2 2.6-2 5.2-2.4 9-5.2 3.5-3.3 2.7-1 0.5-0.7 0-1.3 0.4-1.8 1.4-1.4 0.3-2.3-1.1-7.3-0.2-3.5 0.1-2.3 0.2-0.7-0.3-1.7-2.9-1.7-3.4-0.7-1.8 0-1.5 0.1-1.7-0.8-0.9-0.6-2-1-0.7-0.6-0.4-0.9 0.1-1.2 1.6-3.4 0.2-3-1.7-8.2-1-1.4-0.6-0.6-3.5-0.4-3.3-2.9-3.1-4.3-1.1-6.9 0.5-1.3 2.7-1.7 3.9-1.2 7.3 0.1 3.7-0.6 4.4-2.3 1.7-2.8 0.3-1.9 1-3.1 3.1-5.8-1.8-10.4-1.6-3 12.5 0.9 9.3-1 7.1-0.6 5.4 1 4.7 0.5 1.1-0.9 3-1.7 2.1 3.1 0.9 0.3 1.6 0.5 1.2 0.2 5.5 1.4 2.7 2 2.9 1.1 1.5 2 1.3 2.5 0.2 0.6 0.1 1.7 0.4 1.1 1 2 1.2 1 3.9 2 1 0.8 0.6 0.7 0.1 1.7-0.2 1.5 1.9 1.8 5.1 6.6 1.3 2.3 0 0.6-0.2 0.9-0.6 0.6z" id="HND648" name="Intibucá" data-id="HND648" data-name="Intibucá">
 </path>
 <path d="M281 555.3l2.9 21.7-0.2 3.1-1.3 5.9-0.4 1.1-0.4 0.6-1.3 3.9-4.4 5.7-3.5 0-3.9-2.6-6.6 0.3-2.4 0.4-2.6-2.2-1-0.5-2.2-0.9-0.8-0.5-1.3-1.9-1.6-4.4-1.5-1.2-2.4 0.1-1.6 1.4-1.3 1.7-1.6 1.1-1.5 0.1-3.2-0.7-1.6-0.1-1.2 0.4-2.1 1.6-0.7 0.4-1.1-0.3-2.4-1.6-1.2-0.2-2.4 0.6-7.3 3.7-1.3-4.1-2.6-3.1-3-2.7-2.3-2.8-2.4-6.1-1.8-1.6-4.2-0.2-8.4 1-2.5-0.1-3.9-0.8-0.2-0.5 1.4-8.2-1.5-3.1-1-1.1-1-1.7 0-0.8 0.4-0.4 0.6 0.2 1-0.9 8.7-9.7 1.7-1.7 4.6-2.3 0.5-0.4 1.3-1.9 1.4-3.5 2.6-2.6 5.5-4.6 6.7-0.3 1.3-2.3-0.1-1.2 0.6-2.1 1-0.8 1.9-0.8 1.5-1 0.9-1.1 2.5-4.9-0.6-5.1 0.3-2.2 0.5-0.9 0.8 0 1.1 0.4 1.3 0.3 1.6 0 2-0.9 1.9-1.1 7.2-5.3 1.6 2.5 2.2 2.3 6.3 1.7 0.2 0.4 1.5 1.5 0.4 0.2 4.9 1 1.7 0.9 3.3 1.2 1.7 0.1 1.3 0.4 7.2-3 0.7 0.6 2 4.3 0.4 1.3 0.6 3.2-1.1 1.7 1.3 1.3-0.5 2.2-1.5 1.9-0.8 0.6-1.4 0.6-2.5 0.5-2.4-0.3-2.1 1.5-1.5 0.8-3.4 1.2-2 0.5-2.6 0.4-3.2-0.3-5.9 1.5-1-0.4-1.1 0.3-0.4 1.1 0.5 3.3 5.5 2.3 2.2 2.7-0.8 2.6-0.6 1.5 0.2 0.6 0.6 0.6 2.7 1 1.6 0.4 1.8 0.7 1.8 1 2.8 2.4 1.7 0.9 1.1 1.5 1 1.7 0.1 5.6 4.2-4.1 2.1-1.5 5.7-0.6z" id="HND649" name="La Paz" data-id="HND649" data-name="La Paz">
 </path>
 <path d="M221.6 431.6l-0.2 7.3-5.7 1-4.8 5.1-0.9 0.6-1.8 0.8-0.8 0.8-0.4 1.2-0.1 2.3 1 1.7 1.5 4.2-2 3.4-3 1.7-1.1 0.9-4.7-0.5-5.4-1-7.1 0.6-9.3 1-12.5-0.9 3.5-5.8 0.8-5-1-2-2 0.3-2.7-0.4-2.3-1.2-2.6-4.4-0.9-1.1 4.5-7.7-3.3-2-4.2 0.1-2-2.8-0.4-0.4-1.8-0.8-1.4 0.1-1.8 1.8-1.6 2.6-2.5 2.2-1.3 0.4-2.9-3.8-4.4-7.2-3.5-9.4-7.5-1.1-1.2 0.6-5.7 1.7-5.6 1.1-1-0.3-1-0.7-0.5-0.9-0.7-1.8-0.4-1.5 2.1-5.4 1.6-5.7 0.2-3 1.4-3.2 3.9-3.4 0.4-1.2 0-1.2-0.4-0.9-1.3-2-0.7-0.9-1-4.2 1.9-2.5-0.5-1.3-1.3-0.9-2.6-1.3-3.3-3.5-2.9-3.3 0.2-2.3 0.2-1.1-0.1-1.3-6.7-8.4-0.5-0.7 13.9-10.8 27.9-21.7 5.2-4.2 0.1 0 9.1-3.2 8.6 1.3 15.1 4.7 2.3 1.3 1.1 0.9 0.2 0.7-0.2 1.4 0.3 1.5 0.1 0.9-0.4 1.9-0.1 1.2 0.2 1 0.3 0.9 0.7 1.1 1.1 1.1 4.7 2.8 2.4 2.1 2.2 1.5 1.6 0.7 3.9 0.8 0.6 0.8 1.1 16.2 3.5 7.1 1.2 1 2.1 1.3 3.2 1-0.9 2.6-6.5 7-0.9 3.2 1.2 2.7 1.9 2.2 4.6 3.1 3.6 1.2 1.1 0.6 1.1 1 1.1 0.4 0.6 1.2-2 2.2-2.1 7.5-0.9 1.4-1.1 7 0.5 2.7 0.7 0.2 3.5 0.1 5.1 4.6 1.2 3.9 0.3 6.8z" id="HND650" name="Santa Bárbara" data-id="HND650" data-name="Santa Bárbara">
 </path>
 <path d="M116.1 416.5l0.9 5.3-0.6 4.4-2.2 1.5 0.3 1.8-0.3 0.8-1.2 1.4-0.8 0.8-0.7 1.3-0.4 1.4-0.3 2.1 0.2 2.5 1.1 1.8 1.6 3.7 0.7 3 0.1 1-0.2 1-1.2 0.1-4.5 1.3-5.8 0.4-8-0.9-2.4 0.8-0.3 2.4 0.1 0.7 1.7 4.2 4.9 4.7 1.2 1.8 1.9 3.4 0.5 10-3.8 0.4-3.1-0.5-1.3-0.1-1.5 0.3-1.5 0.4-2.7 1-1.1 0.8-0.6 1.3 0.1 2.6 0.5 1.1-0.4 0.3-1.6 0.5-2-0.4-1.9-1.7-2.2-0.5-2.9-1.2-2.7-3-2.2-3.3-0.2-1.3 0.1-4.3-1-2.3-10.3-7.8-1.3-2.3-1.2-5-2.5-3.4-9.6-1.4-2.1 0.8-5.1 1.5-2.5 0.7-0.7-1.1-1.4-1.3-1.8-2.2-3-7.3-1.5-2.5-3.2-4-1.4-2.1-0.8-2.3 0.2-3.1 1.2-2 4-3.4 2.8-4 2-4.7 0-4.3-3.1-3 2.5-7.6 1.9-3 3.2-2.7 5-2.5 16.2-5.4 5.6-2.7 34-26.5 0.5 0.7 6.7 8.4 0.1 1.3-0.2 1.1-0.2 2.3 2.9 3.3 3.3 3.5 2.6 1.3 1.3 0.9 0.5 1.3-1.9 2.5 1 4.2 0.7 0.9 1.3 2 0.4 0.9 0 1.2-0.4 1.2-3.9 3.4-1.4 3.2-0.2 3-1.6 5.7-2.1 5.4 0.4 1.5 0.7 1.8 0.5 0.9 1 0.7 1 0.3 5.6-1.1z" id="HND651" name="Copán" data-id="HND651" data-name="Copán">
 </path>
 <path d="M164.3 461.8l1.6 3 1.8 10.4-3.1 5.8-1 3.1-0.3 1.9-1.7 2.8-4.4 2.3-3.7 0.6-7.3-0.1-3.9 1.2-2.7 1.7-0.5 1.3 1.1 6.9 3.1 4.3 3.3 2.9 3.5 0.4 0.6 0.6 1 1.4 1.7 8.2-0.2 3-1.6 3.4-0.1 1.2 0.4 0.9 0.7 0.6 2 1 0.9 0.6 1.7 0.8 1.5-0.1 1.8 0 3.4 0.7 2.9 1.7 0.3 1.7-0.2 0.7-0.1 2.3 0.2 3.5 1.1 7.3-0.3 2.3-1.4 1.4-0.4 1.8 0 1.3-0.5 0.7-2.7 1-3.5 3.3-9 5.2-5.2 2.4-2.6 2-0.6 1.2-1.8 2.4-0.3 0.2 0.2-1-1.4-1.4-1.6-0.6-7-0.6-12.1-3.8-4.1-0.3-4.1 0.6-1 0.4 0.1-1.2-0.4-1.3-0.7-1.1-1.2-1-0.7-0.3-3.5-0.5-2.5-1.6 0.1-2.3 1-2.8 0.1-2.8-1.1-1.8-1.4 0.1-1.7 1-1.9 0.8-7-0.6-2.8 0.5-1.1-4.7-2.4-4.9-3.3-4.3-4-2.5-2.5-0.1-2.2 1-1.9 1.1-1.6 0.4-1.4-1.1-0.5-1.7-0.2-1.4 0.2-4.4-0.3-5.3-1.3-4.1 0.2-1.2 0.6-0.9 1.2-1 0.9-1.1 1.4-2.2 1-1.2 1-0.7 2.6-0.3 5.3-2.5 0.8-1.4 1-2.3 0.2-2.1 0.4-1.6 0.8-0.3 1.2 0 1.5 1.8 0.9 0.9 1.8 0.8 4.2-0.1-2-2.7 0-1.9 0.3-1.6 0.6-0.4 1 0.8 3.4 0.4 4.7-1.5 1.2-0.7 0.9-0.8 0.6-0.7 0.3-1.9 4.2-12.3-0.5-2.6-0.4-0.3-1.5-0.6-0.5-10-1.9-3.4-1.2-1.8-4.9-4.7-1.7-4.2-0.1-0.7 0.3-2.4 2.4-0.8 8 0.9 5.8-0.4 4.5-1.3 1.2-0.1 0.2-1-0.1-1-0.7-3-1.6-3.7-1.1-1.8-0.2-2.5 0.3-2.1 0.4-1.4 0.7-1.3 0.8-0.8 1.2-1.4 0.3-0.8-0.3-1.8 2.2-1.5 0.6-4.4-0.9-5.3 5.7-1.7 1.2-0.6 7.5 1.1 3.5 9.4 4.4 7.2 2.9 3.8 1.3-0.4 2.5-2.2 1.6-2.6 1.8-1.8 1.4-0.1 1.8 0.8 0.4 0.4 2 2.8 4.2-0.1 3.3 2-4.5 7.7 0.9 1.1 2.6 4.4 2.3 1.2 2.7 0.4 2-0.3 1 2-0.8 5-3.5 5.8z" id="HND652" name="Lempira" data-id="HND652" data-name="Lempira">
 </path>
 <path d="M102.4 479.2l1.5 0.6 0.4 0.3 0.5 2.6-4.2 12.3-0.3 1.9-0.6 0.7-0.9 0.8-1.2 0.7-4.7 1.5-3.4-0.4-1-0.8-0.6 0.4-0.3 1.6 0 1.9 2 2.7-4.2 0.1-1.8-0.8-0.9-0.9-1.5-1.8-1.2 0-0.8 0.3-0.4 1.6-0.2 2.1-1 2.3-0.8 1.4-5.3 2.5-2.6 0.3-1 0.7-1 1.2-1.4 2.2-0.9 1.1-1.2 1-0.6 0.9-0.2 1.2 1.3 4.1 0.3 5.3-0.2 4.4-0.1-0.7-0.6-2.1-1.4-2.5-1.5-1.7-4.1-3.1-0.7-1.5-0.6-5.1-1-2-2.6-1.3-5.5-0.7-1.8-1.5 0.6-1.7 0.2-1.6-0.4-1.7-0.8-1.5-0.9-1.2-0.8-0.8-0.9-0.2-1.4 0.4-1.3 1.3-2.3 4.5-1.5 1.4-7.4-2.2-4.1-2.9-8.1-1.7-5-2.4-8.7-1.4-0.3-5.1 0.3-2.7 1-2.1 1.7-1.1 3.5-0.9 1.3-1.4 1.6-2.9 2.3-2.4 5-4.4 1.4-1.8 0.8-1.3 1.2-0.8 2.7-0.3 2 0.3 4 1.4 1.9-0.1 1.9-1.8 0.7-2.8 0.1-2.9-0.7-8.4 0.6-1 1.7-1.9 0.4-1.3-0.3-2.8-0.3-0.4 2.5-0.7 5.1-1.5 2.1-0.8 9.6 1.4 2.5 3.4 1.2 5 1.3 2.3 10.3 7.8 1 2.3-0.1 4.3 0.2 1.3 2.2 3.3 2.7 3 2.9 1.2 2.2 0.5 1.9 1.7 2 0.4 1.6-0.5 0.4-0.3-0.5-1.1-0.1-2.6 0.6-1.3 1.1-0.8 2.7-1 1.5-0.4 1.5-0.3 1.3 0.1 3.1 0.5 3.8-0.4z" id="HND653" name="Ocotepeque" data-id="HND653" data-name="Ocotepeque">
 </path>
 <path d="M345.2 624.2l-1.6 7 1.1 2.1 1.7 0.6 1.4 1.5 1 0.9 1.2 5.2 2.2 1.3 7.4 0.4 1.3 1.1 0.1 1.5 1.4 3.2 2.8 2.2 2 0.2 1.1-0.3 4.9-2.9 3.6-4.2 0.4-2.4 0.6-1.4 1.7-1.6 2.4-0.8 1.3-0.8 1.7-1.4 2.6-2.8 1.2-1.7 0.7-1.6 0.5-3 0.3-0.6 1.9 0.7 4.7-0.4 0.7 1.2 6.2-4.1 1.3-0.5 2.7-0.2 1.2 0 1.1-0.2 1.3-2 1.1-1 1.3-0.2 2.4-1.1-0.5 8.8 0.3 1.5 0.7 0.9 2 1.5 0.6 1.1 0.1 2.6-1 5.3 0.1 2.8 5.2 19.8-0.3 2.5-2 4.6-0.2 2.3 0.6 1.7 0.9 0.5 1.1 0.2 1 1 1.2 2.1 0.3 1 1 4.7-0.4 2.5-1.2 2.2-2.2 2-2.3 1.6-1.5 0.4-1.5-0.5-9.2-4.5-2.8-0.3-2.5 0.8-2.2 1.4-7.7 6.7-1.2 1.6-1.2 2.2-1.1 4.6-0.3 0.5 0.3 0.9 1.2 2.7 0.3 0.4-1.4 8.6 0.4 1.1 0.9 0.4 0.6 0.6-0.4 1.6-0.8 0.8-2.4 1.2-0.9 0.7-3.7 5.9-1.8 2-4.1 2.6-3.4 1.6-0.9 2.7-1.8-0.1-3.7-2.3-2.4-0.3-36.7 2.4 1.6-1.1 0.5-2.1 1.2-1.6 1.7-1.2 2.2-0.8 0-1.1-4.5-0.1-3.1-0.6-2.5-1.4-2.1-2.4-1-1.7-0.2-0.9 0.3-2.6 1-0.3 4.9-0.8 1.6-0.5-9.3-2.5-5.2-0.5-3 0.9-1 0-0.4-6.4-2.2-6.5-3.1-5.7-3.1-4.1-1-2.6-0.6-0.8-2 0.2-0.8-0.2-1.1-1.5-0.6-1.3 0.3-1.3 1.4-1.6 1.4-0.9 2.6-1.2 1.5-1.3 3.2-4.5 1.1-1.1 2.2 0.5 2.5-0.6 5.2-2-0.2-1.4 0-1 0.2-1.1 3.2-2.5 1.8-4.1-0.3-3.3-1.8-3.5-0.9-2.5-0.2-1.5 0.5-3.4-5.7-4.3-2.3-5-0.2-1.1-0.7-1.3-0.7-1.3 0.4-6.5-0.7-1.1-1.1-0.8-1.3-0.7-2.9-2.4-0.3-0.3-0.6-2.2-0.1-2.4 0.9-3.6 0.4-4.3 0.5-1.8 1.8-0.6 3.1-0.1 3.7 1 1.6-0.2 0.6 0.2-0.1 0.6-1.2 2.8 0.4 2.2 5.2 5.1 6.5-0.8 1.9 1 1.6 0.7 5.5-0.7 7.9 2.9z" id="HND661" name="Choluteca" data-id="HND661" data-name="Choluteca">
 </path>
 <path d="M609.5 563l-1.4 0.3-3.5 1.1-1.5 2.3-1.5 1.6-5.7 1.8 0.6 1.7-1.2 0.3 0.1 0.8-1 0-1.4-0.4-3.2 2.8-2.1 1-2.8-0.2-1.7-0.4-0.8 0.9-0.1 3.6-1.6 5-0.7 3.2 0.6 1.4 2.4 0.8 0.9 1.9-0.3 2.5-1.3 2.7-1.5 1.3-0.4-0.1-2.1-2.4-3.3-0.3-3.7 0.1-3.6-1.2-2.5-3.1-1.6-3.4-1.9-2.9-3.5-1.5-2.2 0.1-1.4 0.6-1.5 0.3-2.2-0.7-1.1-1.1-3.5-4.6-11.3-8.2-0.4-4.4 1.7-3.5 0-1.9-12.2 1.9-2.2 1.1-1.8 1.7-0.9 1.4-0.6 1.6-1.1 2.1-1.9 1.9-1.9 1.1-1.9 0.7-1.7 1.1-5.5 8.7-10.5 11.3-2.6 4-1.2 4.9-0.9 2.5-1.9 2.1-2.4 1.2-2.9 0.7-8.3 0.6-1.1-0.2-1.5-0.5-1-0.7-2.5-2.6-2.3 0.3-2.2 1.2-2.3 0.7-2.9-0.8-5.3-2.9-6.3 0.4-13 2.5-7-0.9-3.4 0.3-3.6 1.8-1.8 1.3-0.8 0.7-0.3 1-0.4 2.3-0.1 2.8-2.4 1.1-1.3 0.2-1.1 1-1.3 2-1.1 0.2-1.2 0-2.7 0.2-1.3 0.5-6.2 4.1-0.7-1.2-4.7 0.4-1.9-0.7-0.3 0.6-0.5 3-0.7 1.6-1.2 1.7-2.6 2.8-1.7 1.4-1.3 0.8-2.4 0.8-1.7 1.6-0.6 1.4-0.4 2.4-3.6 4.2-4.9 2.9-1.1 0.3-2-0.2-2.8-2.2-1.4-3.2-0.1-1.5-1.3-1.1-7.4-0.4-2.2-1.3-1.2-5.2-1-0.9-1.4-1.5-1.7-0.6-1.1-2.1 1.6-7 5-1.7 7.7 3.4 0.7 0.1 0.5-3.5 1.2-2.7 1.3-1.7 0.1-2.6-1.9-3.4-0.9-1.3-0.5-1.7-0.1-2.3 0.1-2.4 0.3-1.2 0.2-0.7 1.1-1.3 2.4 1.2 3.6 3.2 1.3 0.7 4 0.7 2.5 0 0.8-0.6 2.6-3.5 3-7.5 0.7-7.6-0.2-3.3 0.4-2.1 0.8-1.6 0.1-1.4-0.2-1.2-0.6-2.4 5.5 1 2.6-1.4 1.9-2 1.7-3.3 0.6-6.6-0.3-1.8-0.5-1-1.2-0.7-4.4-3.3-4.2-5.7-0.9-3 3.4-1.3 2.2 0 2.6 0.5 3.3-0.5 1.7-3.3-0.2-0.7-0.6-0.8-0.9-0.5-1.3-0.3-0.2-0.6 0.3-0.9 1.7-2.5 2-5.1 7.8-6.9 3-5.5 1.2-5.5 5.3-5 11.9-9.2 6.9 2.9 0.9 0.1 1.6-0.1 1-0.5 1.7-0.3 0.6 0.1 0.7 0.4 1.6 1.9 0.8 1.7 0.6 0.7 0.7 0.2 1.2-0.2 3.4 0.3 8.9 2.6 3.3 3.2 0.6 0.4 3.7 1 3 2.3 0.7 0.8 0.8 1.1 0.9 2.3 0.7 0.6 1.5 0.5 11.8 0.7 1.9-0.2 1.1-0.5 3.6-2.3 1.6-1.4 0.7-0.6 1.9-0.7 1.7-1.1 2.3-1.2 3.1-0.8 1.6-0.3 4.2 0.1 2 0.4 1.5 0.8 1.4 1.7 4.3 7.8 1.1 1.2 4.5 1.7 4.1 1 1.3-0.1 0.7-0.7 0.5-1.3 1-1 1.4-0.2 2.8 0.6 1.7 0.9 1.7 1.5 2 3.3 0.9 2.2 0.6 2.2 0.3 1.5 0.8 1.3 1.2 1.1 6.2 2.8 3.1 4.2 1.9 1.5 1.1 0.3 2.2-0.1 1.1-0.4 0.8-0.7 0.5-0.7 0.2-0.7 0.1-1.7 0.7-1.4 0.5-0.5 1.7-0.7 2-1.5 1.3-0.2 1.6 0.3 2.1 1.5 1.6 0.8 2.1 0.4 1-0.3 0.7-0.6 1.9-3.8 0.7-0.7 1-0.2 7.6 1.7 6.1 1.9 1.1 0.1 0.5-0.2 0.3-1.2 0.7-0.2 1.4 0.4 2.5 2.2 1.6 1.8 0.9 2 0.7 3.5 0 1.9 0.3 1.6 0.6 1.3 1.6 1.3 1.3 0.7 1.2 0.9 0.7 0.8 2 5.4z" id="HND662" name="El Paraíso" data-id="HND662" data-name="El Paraíso">
 </path>
 <circle cx="459.5" cy="426.6" id="0">
 </circle>
 <circle cx="198" cy="451.4" id="1">
 </circle>
 <circle cx="88.6" cy="423.8" id="2">
 </circle>
</svg>