<?xml version="1.0"?>
<!--
************* Copyright (c) 2017 Pareto Softare, LLC DBA Simplemaps.com *******************		
************* Free for Commercial Use, full terms at  http://simplemaps.com/resources/svg-license ************
************* Attribution is appreciated! http://simplemaps.com ***************************
-->
<svg baseprofile="tiny" fill="#7c7c7c" height="981" stroke="#ffffff" stroke-linecap="round" stroke-linejoin="round" stroke-width="2" version="1.2" viewbox="0 0 1000 981" width="1000" xmlns="http://www.w3.org/2000/svg">
 <path d="M746.1 913.7l-1 1.1-10.2-7.3 0.2-0.4 0.8 0-0.5-1.3-1.3-1.6-0.6-1.5 2-0.2 8.5 4.8 2.4 2.7 0.5 1.9-0.8 1.8z m-232.7-13.2l-1.4 1.3-2.1-0.7-2.2 0.9-0.9 1.2-0.1 0.8-0.8 0.2-0.6-1.2 0.5-0.2 0.5-1 0.5-0.5 0.9-1.6 1.1-1.3 2-0.4 2.6 2.5z m-86.3-48.9l-0.9 4-1.4-0.8-1.7 1.8-1.1 0.2 0.2-1.3 0.9-3.6 0.5-4.4 1.4 0.3 0.8 1 0.8 0.2 0.5 2.6z m-46.2-13.5l2 0 0.7 0.4-0.3 2-2.3 1.3-2.1 0.6-2.1-0.4-0.7-0.4 0.7-1.7 4.1-1.8z m159.7-15.3l0.5 0.8 1.6 0 1-0.4 0.9 0.2 1.2 0 2.1 1 0.1 1.3-1.2 0.4-0.9 0.1-1.1 0.6-0.6 0-6-0.4-1.3-0.2-2.2-1.1 0.8-1 1.7-1.1 1.3-0.3 2.1 0.1z m-89.5-81.3l0.9 3.1-1 0.8-2-0.8-0.8 0.2-0.5 1-0.6 0.4-1 0-1 0.3-2.5-0.3-0.4-0.9 1.5-2.5 0-0.9 0.7-0.6 2 0.2-0.5-1.5 0.5-0.6 2-0.1 2.7 2.2z m-50.1-51.5l-0.1 1.8-0.8 0-1.5-2.2-4.8-4.7-0.4-1.8 1.3-0.6 0.9-0.9 0.8-0.2 3.4 4.2 0.8 2 0.4 2.4z m-25.3-1.6l0.1 1-3.8-2-0.4-0.9 0.6-0.6 0.9-0.3-3.5-2.4-0.5-1.2-0.3-1.3-0.8-0.9 0.2-0.7 1.3-0.1 1.2 0.4 0.4 0.5 0.1 0.9 2.5 2.4 1.1 1.8 2.1 0.4-0.7 2-0.5 1z m-23.2-34.5l0.8 0.4 0.6-0.4 0.2-1.6 0.6 0 1.7 1.7 0.2 1.8 0.7 1.8 1.9 1.2 1.1 1.3 0.7 0.3 0.6-0.3 0.9 0.1 1.5 2-0.2 1.5 2 1.7 0.7 1 0.2 1.1-1 0.6-4.9-1.7-3.7-5.3-1.6 0-3.1-3.5-2.3-4.4 0-1 0.7-0.3 0.7 0.5 1 1.5z m-71.5-41.9l0.1 1-13.8-12.7-0.7-1.9 0.1-1.9-0.5-1.5 0.3-1.2 1.8 0.8 2.8 2.1 1.3 1.9 0.1 1.5 5.7 6.2 0.9 0.5 1.9 5.2z m-13.6-72.9l1.4 1 1.9-0.3 2.4 1.7 1.3 1.5 1.3 0.9 1.1 0.2 0.6 0.8-0.5 0.6-1.5 0.7-1.4 0.3-0.3-1.1-0.8-1.3-3.9-1.7-1.1 0.3-0.8 0.7-0.4 1.3-0.8 0.8-1.9 0-2.4-0.9-2.2-2-0.9-4 0.9-2.8 2.5 0.3 0.7 0.7 1.2 0.4 1.5 0 1 0.6 1.1 1.3z m-60-9.2l-1.6 0.1-2.1-1.4-0.7-0.1-0.7-0.5-0.4-1.9-0.2-1.6-1.6-3.3-2.1-0.9-1-1.8 0.6-1.8 1.2-1.1 2.5 0.7 2.5 1.8 0.5 1.3-0.4 1-0.2 1.1 0.2 2.2 0.8 1.3 1.6 1 1 1.1 0.1 2.8z m39.2-14.6l1.3 2.2-0.3 1-1.1-1.8-1.4 0-2.2-0.7-6.8-7.4-1-2.3 0.2-1.1 9.8 8.8 1.5 1.3z m-108.8-22.7l0.9-0.2 0.7 0.2-2 1-0.7 1.6-1 0.5-1.6-2.2-1.1-4 1.3 0.1 2 0.9 1 1.7 0.5 0.4z m-95.2-98.9l1.8 1.2 0.6-0.1 2 1.3 0.8 1 0.2 1.4-0.3 0.6-2.2 0.2-0.6-0.4-0.4 0.7-0.1 1.5-0.4 1-0.7 0.7-0.8-0.1-0.2-1 0.2-1-0.3-1.2 0.3-0.8 0.6-0.8-0.1-1.3-0.9-1.1-1.3-0.5-0.3-1 1-0.4 1.1 0.1z m183.1 6.4l0.8 2.8-1 0-8.7-5.2-1.8-2.2 0-2.6 0.9-1.2 1.2 0.2 4.5 2.9 3.7 4.1 0.4 1.2z m-47.9-14.9l-0.8 1.3-1.4-0.1-3-1.6-0.7-0.9-3.8-2.7-0.8-1.4 7.1-0.6 3.1 4.3 0.3 1.7z" id="HRV99" name="" data-id="HRV99" data-name="">
 </path>
 <path d="M581 898.6l0.4 3.5-2 3.3-3.2 2.2-3.5 0.6-0.5-1.7-1.3-0.2-2.7-1.3-1.8 2.2-2.2 0.6-2.3-1.2-1.9-3.1 2.1-1.3 0.3-2-0.9-1.2-1.5 1.3-1.1 0 1.2-2.7 3-1.3 5.1-0.7 10.6 1.6 2.2 1.4z m75.7-6.2l-1.8 1.6 1.9-0.2 1.8 0.1 1.7 0.6 1.5 1.1 1.3-1.6 2.9 1.9 8.3 0.1 6.3 4 8.6 1.7 3.9 1.8-0.7 0.6-0.4 0.9 9.7 1.1 1.8-1.1 3.4 3 8.7 3.8 3.1 4.4-61.3-17.6-2.1 2.5-3.4-1.5-3.2-3.2-1.9-2.4 3.1-0.6 5.4-2.1 3.1 0.2-1.7 0.9z m-103.7-40.2l9.4 2.3 9.2 0 2.4-0.7 3.9-2.1 19.7-1.9 13.3 4.2 3.5-1.2 2.9 3.9 2.6 2.6 6.1 4.5-1.2 1.8-3.2-1.8-3.6 0.2-7.7 1.6-15.6-3.3-7.1 0.4-12.6 4.8-8 1.2-18.8-3.8-8.2-2.6-3.1 0.4-0.1 1.1-2.9-1-2.8-2 11.5-6.3 0-1.7-3.2-1-6.7-0.9-2.8-1.1 3.6-2.3 3.7-0.1 3.8 0.6 3.9 0.1 3.5 2.1 4.6 2z m149.5 18.7l2.2-3.2 2.3-2.5 3.7-0.8 3.7 0.7 7.1 2.8 3.6 0.6 1.3-0.7 1.4-1.2 1.5 0 2 2.6 0.5 2.3-0.2 5.5 0.3 2.7 5.3 8.3 1.9 1.2 5.9 1.7 4.1 3.1 7.3 8.3 3.9 3.3 9.2 5.9 29.5 19.9 5.6 3.1 9.2 3.1 4.5-0.3 1.9 1.4 3.5 5.2 2.5 1.7 6.1 0.6 2.7 1.1 0.8 3.7-0.9 7.4 0.1 3.9 1.2 3.6 1.8 3 2.2 2.6 4.2 2.5 0.8 2.6-0.2 3.4-3.7-5.7-2.3-1.5-5.6-1.7-2.5-1.5-0.2-3.3-29.2-19-3.1-4.6 0-2.1 0.4-3.2 0.1-2.9-1-1.2-8.7-1.6-7-4-2.7-0.7-2.9-0.2-2.6-0.7-2.1-1.4-1.1-2.4 3.4 0-3.6-3.5-1.4-1.7-0.8-2.7-2.5 2.5-4.2-2.1-7.1-6.6-10.1-5.2-3.5-3.9 2-5.1-4.7 0.2-5.1-4-4.8-1-1.1 0.2-1.3 0.5-1.1 0.8-0.9 1.9-1.1-0.4-1.4-1.3-1.1-0.7-4-3.4-2.4-0.9 3.1 3 1.6 2.2 2.2 5.7 0 1-1.2 0.8-1-0.3 0-1.4 0.2-1.7-0.2-1.2-3.4-2.3-8.5-3.5-7.6-1.6-9-4.2-9.3-1.7-14.3-5.7 0.4-5.8-4.4-2.9-11.2-2.5-13.4-9.6-5.7-1.8-2.7-2-1.3-0.6-2-0.4-18 0-5.6-1.3-2.8-1.2-3.1-2-1.6-2.3 1.7-2.4 0-1.6-1.6-0.7-1-1.2-0.8-1.4-1.1-1.4 3.7 0.6 5.5 4.6 2.9 1.1 14.5-1.6 13.7 1.9 25.4 10.4 6 3.9 4.8 4.3 0.3 0.9 0.1 2.6 0.6 1.2 0.8 0.3 2-0.4 0.8 0.1 3 2.3 1.4 0.7 1.9 0.2 0.7-0.5-0.1-2.2 0.6-0.5 1.1 0.3 1.5 1.2 0.9 0.3 2.1 0.3 1.5 0.9 2.7 1.9 6.6 2.2 3.2 1.5 1.8 2.6 1.1 0 2.5-0.4 7.1 7.1 4.3 1.2-5.1-4-1.6-2.8 2-2.8-1-1.5-4.9 1.8-4.3-2.7z m-34.2-59.4l23.1 15.3 6.9 8.2 5.2 12.2 0.1 0.1 0.5 6.4-4.7 3.5-9.1 1.9-5.3-3-2.5 1.1-3.2-1.9-2.9-3.1-1.7-2.4-2.4-4.3-0.6-2.8 1.4-2.1 3.9-2-2.4-0.9-2.8 1-3 1.8-2.2 0.7 3.3-2.6-1.6 0-1.7-0.3-1.4-0.9-1.1-1.9 1.3-1.6-1-2.2-0.3-1-3.6 3.2-5.7-5.2-0.9-1.3 4.8-3.4 1.1-0.6 1-0.9-0.1-0.7-0.6-0.6-1.8-1.2-0.8-0.8-0.5-0.9-0.8-2-0.7-1.1-0.8-0.9-0.9-0.4-1.9-0.2-0.9-0.3-0.5-1.1 0.3-2.1 0.4-0.6 0.6-0.1 2.9 0.9 3.5 0.5 1.3 0.6 0.6 0.9 0.7 0.6 0.9 0.3 1.3 0.1 3-0.3 2.1-1.2 0.2-0.4z" id="HRV1490" name="Dubrovacko-Neretvanska" data-id="HRV1490" data-name="Dubrovacko-Neretvanska">
 </path>
 <path d="M368.9 695.2l10.4 4.8-10-3-1.5 0.7-1.6-1.9-7.3-5.5-2.7-1.3 1.3-1.7 0.7 1.2 0.7 0.3 5.2 0.6 1.9 1.8 1.4 2.2 1.5 1.8z m-52.6-33.2l3.3 3.1-10-4.5-3.2-2.2-3.5-4.7-4.6-3.3-2.2-2.2-2.5-3.1-0.9-2.9 2.2-1.4 3.4 3.2 0.9 2.3 12.9 10.6 2 2.7 2.2 2.4z m166.2-31.9l-2.3 7.1 0.9 2.6 4.7 2.3 1.2 0.9 1.5 1.3 6.8 8 0.9 1.4 0 1.6-1.1 1.5-11.6 8-1.1 1.2-0.3 1.9 0.3 1.8-0.1 0.6-1.8 3.5 0.3 1.3 0.4 0.8 0.8 1 0.8 1-0.4 1.5-1.5 1.3-4 1.8-4.6 1.1-3.7 1.5-1.3 0.8-1.3 1-1.4 1.8-1.1 1-1.7 0.2-9.3-3.9-0.7-0.1-1.5 1.2-11.6 15.1-1.9 0.4-0.9-0.5-0.9 0.1-1 0.5-1.9 2.1-0.7 1.1-0.6 1.3 0.4 2.6 0.6 1.7 0.8 1.6 2.4 2.8 0.9 2 0.6 0.4 0.8 0.3-0.1 0.5-0.9 0.6-2.8 1.2-1.6 0.4-1.4 0.5-0.6 0.7 0 1.5 0.5 0.8 2.2 1.3 0.1 0.6-0.9 0.5-3.6 0.1-1.8 0.4-1.1 1.1-0.8 0 0 1.6-2-1.4-3.8 0-1.2-1.8-0.3 1.7-0.9-0.1 0.3-2.5 0.9-0.5 1.3 0.1 1.6-1.1 0.6-1.4-0.8-2.3 0.8-1.8-2.7 0.3-1 0.4-1 0.9-0.5-2.3-1.4-1.2-3.8-1.3 2.8-0.3 0.3-1.6-1.4-1.4-3 0 0-1.5 0.8-0.5 1.6-1.2-1.7-1.3-0.7-0.3 1.3-1.5-1.3-1.5 1.3-1.8-1.1-3.5 1.8-1.2 6.2 0.1 0-1.8-7.6-1.6-2.8 0 2-1.3 1.7 0.2 1.4 0.7 1.2 0.4 1.8-0.6-0.2-1.6-1.5-1.6-1.8-0.9 2.3-0.9 1.1-1.8-0.3-2-1.9-1.9 0.1 4.4-1.5 0.3-4.1-3.5-2.3-2.1-1.2 0-1.5-0.3-1.1-0.4-1-1.1-2.3-3.7-1.2-1.4-6.8-3.9-1.9-1.9-3.6-1.2-10.9-0.8-2.4-2.7-1.7-5.2-4-1.9-4.3-1.3-2.7-3.5 5.1 2.3 2.6 0.7 2.7 0.2 0-1.7-1-0.5-0.7 0.1-0.5 0.4-4.5-4-11-5.5-4.6-3.9 4.8-4.8 3.8 2.4 5.3 4.9 0.7 0.5 0.9-0.1 0.9-0.5 5.8-5.1 1.2-0.4 3.8 3.1 3.3 1.7 1 0.2 1.1-0.2 1.2-1.2 0.7-1.2 0.3-1.2 0.3-2 0.5-0.7 0.9-0.6 1.5-0.8 1-0.9 0.8-1.1 0.9-2-0.3-0.9-1.9-2.1-0.4-0.7 0.1-0.6 0.9-1.2 0.6-0.3 0.8 0 2.3 1.3 1 0.3 3.4-0.6 2.1 0.1 6 2.2 0.6 0.4 3.4 3.8 1 0.6 1.2-0.3 1-1 3.5-3.9 1.2-1 1.5-0.9 1.1-0.4 6.3-1.4 0.7-0.6 0.1-0.7-0.4-1.9 0.2-1.5 0.8-1.4 1-0.6 1.8-0.4 1-0.5 0.4-1.3-0.9-2.2-0.3-1.1 0.4-1.3 0.7-1.3 0.5-0.6 1.2-0.4 4.1 0.1 3.4 0.7 1.4-0.1 2.1-1.1 4.3-4.1 1.9-0.3 1.2 2 0.2 1-0.2 1.5 0.1 1.4 0.8 2.3 0.2 3.1-0.2 3.4-0.1 4.7 0.1 1.8 1 2.1 1.7 2.1 3.7 1.5 3.1 0.6 3.5-0.1 12.2-3.6 1.8-1.3 0.8-0.4 2.1 0 2.3 1 1.1 2.4z" id="HRV1491" name="Šibensko-Kninska" data-id="HRV1491" data-name="Šibensko-Kninska">
 </path>
 <path d="M456.1 828.6l-0.3 0.5 3.8-1.6 2.1 0.1 2.2 1.5 0.8-1 0.7-0.7 0.6 0.4 0.2 2.1-0.4 1.4-1.1 1.1-2 1.5-2 2.6-2 1.6-15 4.6-5.8 0.4-4.1-1.4 3.7-1.9 0.4-3.6-1.4-2.8-1.6 0.5-1.1 0-2.4-3.2 1.5-1.2 2-0.4 3.9-2.5 6.4-1.3 6.7 0.2 5 1.9-0.8 1.2z m62.2-35.8l3.4 3 0.7-0.1 1.6-1.3 1.2-0.4 2.1 0 5 0.9 2.3 0.9 1.2 1.2 1 1.8 1.4 1.9 2.1 1.4 0.1 1.1-1.3 0.5 3.3 2.5 3.7 1.5 4 0.6 16.4-0.1 2.7-1.5 2.4 2.3 3.1 1 10.5 0.5 10.1 2.7 15.4-0.7 7.7 0.8 6.4 3-84.5 0-3.9 0.4-18.6-4-14.3-5.5-5.1-1-3-2.1-1.9-0.4-7.5-3.2 0.7-1 0.7-0.5 1.9-0.1 2.1 1.2 1.9-0.3 4.2-2.6 1 1.7 0.6-0.9 1.9-2.2 0 1.4 6.1-1.9 5.1 3.2 4.7 3.8 4.8-0.2-4.6-4.9-4.5-2.7-1.5-1.7 2.5 0.2 4.7-0.2z m41.2-26.4l1.6 0.5 1.3-0.2 1.1-1.2 1.5 1.3 3.2 3.6 1.8 0.6 1.5-0.2 1.2 0.4 1.3 2.2-2.2 4.3-1.2 1.4-1.4-0.9-3 4.3-5.6 1.3-31.3 0.9-10.8-1.5-10.7-3.3-13.3-7.7-2.8-3.5 1.4 0.9 1 0.8 1.1 0 0.1-1.4 0.5-0.3 0.8 0.2 0.9-0.2-0.9-1.7 0.1-1.5 1.1-1.1 2-0.5-2.3-4.1-2.3-5.4 3.5-0.2 1.1 0.2 6.8 2.7 32.8 1.3 20.6 5.5 0 1.6-2.3 0 1.8 0.9z m-85.9-14.2l0.7 3.8 4.6-0.6 3.2 2.7 3 4 4.2 3.4-2.6 3-4.6-1.2-11.3-7.1-8.4-3.6-4.2-0.6-0.1-1.1 1.1-0.5-1.7-1.4-0.5-1.6 0.9-1.4 2.5-0.5 9.6 0.8 3.6 1.9z m6-22.8l7 2.6-0.8 1.4-6.3 0.7-8.7-1.5-2.5 0.2-1.4 0.8-2.1 0.5-2.7-0.4-2-0.8-1.2-0.8 0.1-1.3 1.2-0.5 1.8 0.4 2.3 0.2 1.5-1.1-0.7-2 2.8-1 7.7 1.2 4 1.4z m188.7 82.1l-0.2 0.4-2.1 1.2-3 0.3-1.3-0.1-0.9-0.3-0.7-0.6-0.6-0.9-1.3-0.6-3.5-0.5-2.9-0.9-0.6 0.1-0.4 0.6-0.3 2.1 0.5 1.1 0.9 0.3 1.9 0.2 0.9 0.4 0.8 0.9 0.7 1.1 0.8 2 0.5 0.9 0.8 0.8 1.8 1.2 0.6 0.6 0.1 0.7-1 0.9-1.1 0.6-4.8 3.4-8.3-11.1-24.3-12.6-5.8-4.8-2.8-1.5-1.3-1-1-3-1.3-1.3-1.7-0.8-1.7-0.3-1.1-0.6-1.2-1.3-1.7-2.8-0.4-1-0.5-3-0.3-0.9-0.7-0.4-2.2-0.6-0.7-0.5-15.9-20.7-4.7-3.2-1.8-1.7-1.2-1.5-1.3-1.1-21.7-3.2-9.9-4.4-11.5-2.5-15.4-11.2-0.3-1.7-0.5-1-0.9-0.5-1 0.3-1.5 1.1-0.9 0.2-6.4-1.6-12.7 0 0-1.6 3.4 0 3.9-0.9 3.6-1.7 3-2.1-2.8-1.8-3.9-0.9-16.4-0.4-2 0.6-3.2 2-1.1 0.5-3.1 0.5-7 2.2-20.6 0.5 0 1.5 5.5 1.5 2.4 1.7 1.3 3.4-10.4 0 0.4 2.5-2.5-0.3-5.4-2.2-4.5-0.3-1.9-1-2.5-2.1-0.2 0 1.1-1.1 1.8-0.4 3.6-0.1 0.9-0.5-0.1-0.6-2.2-1.3-0.5-0.8 0-1.5 0.6-0.7 1.4-0.5 1.6-0.4 2.8-1.2 0.9-0.6 0.1-0.5-0.8-0.3-0.6-0.4-0.9-2-2.4-2.8-0.8-1.6-0.6-1.7-0.4-2.6 0.6-1.3 0.7-1.1 1.9-2.1 1-0.5 0.9-0.1 0.9 0.5 1.9-0.4 11.6-15.1 1.5-1.2 0.7 0.1 9.3 3.9 1.7-0.2 1.1-1 1.4-1.8 1.3-1 1.3-0.8 3.7-1.5 4.6-1.1 4-1.8 1.5-1.3 0.4-1.5-0.8-1-0.8-1-0.4-0.8-0.3-1.3 1.8-3.5 0.1-0.6-0.3-1.8 0.3-1.9 1.1-1.2 11.6-8 1.1-1.5 0-1.6-0.9-1.4-6.8-8-1.5-1.3-1.2-0.9-4.7-2.3-0.9-2.6 2.3-7.1 5.3 1.5 2.9 0 1.8-0.6 0.7-0.8 0.7-2.3 3.1-3 5.7-3.7 2.3-1 1.7-0.4 5.6 0.5 4.8 7.2 8.3 8.5 5.5 7.7 6.9 6.5 1.3 3.4 0.6 3.9 1.5 5 2.4 3.9 18.8 15 26.7 27.4 8.2 9.7 9.1 8.2 9.9 5.5 16.3 2.6 5.3 3.5 2.6 6-3.1 19.6 3.7 11.6 6.6 10 6.9 6.4 3.4 2.2 1.8 1.7 1.1 2.4 1.4 4.8 2 4.4 2.5 3.1 1.5 1z" id="HRV1492" name="Splitsko-Dalmatinska" data-id="HRV1492" data-name="Splitsko-Dalmatinska">
 </path>
 <path d="M329 636.5l0.6 2.7-1.3-0.8-1.2-0.4-1.3-0.3-1.5-0.1-1.3-0.4-0.6-1-0.3-1.1-0.7-0.7-4.3-1.4-2.3-1.3-1.5-2.3 0.8-0.5 0.4-0.9-2.2-1-3.1-2.1-2.7-2.4-1.1-1.8-1-2.8-4.5-5.2-1.6-2.5 3.3 0 2.7 1.3 9 6.9 4.9 1 0.9 0.4 0.4 1.3 0.5 4 0.4 1.3 1 1.1 2.3 1 1.3 0.9 1.3 1.7 1.5 2.5 1.2 2.9z m-36.6-39.3l3.6 4.6 1.2 6.8-2.1-2.3-1.6-3.3-1.6-2-1.7 1.2-1.1 0-0.2-1.1-1.1-2.1-1.6 2.6-3.3-2.6-3.6-4.2-4.5-3.7-5.9-7.4-3.1-2.4 0.4-0.9 0.8-0.7-0.7-1.3-1.5-3.7 27.6 22.5z m-66-19.9l1.2 0.6 1.3-0.9 1.2 0 1.1 0.9 0.9 1.8-2.2 0.9-3.5-1.1-2.6-2.7 0.4-3.7 0.8 2.5 1.4 1.7z m25.3 14.1l1.5 0.7 2.2-1.2-1.1 3.2 2.3 0.4 1.4 1.3 0.7 2.3 0.2 3.3 0.7 2.8 1.6 2.4 7.9 8.6 1.9 1.1 2.4 0.3 0.6 1.2 4.6 6.8 12.2 8.7 0.6 2.7-4.2 1.4-8.4-6.7-2.1 0.6 0.8 0.8 0.4 1.1 0.7 1.2 4.3 3 1 1 1.3 0.9 1.3-0.1 1 0.3 0.3 2-0.7 1.2-1.7-1.1-1.6-1.7-0.5-0.7-6-3.7-2.6-2.2-2.5-3-6.7-10.4-4.1-4.9-6.7-14.5-3.4-3.3-4.7-2.2-14.3-15.3-0.4-2.7-0.8-2.1-2.3-3.4 0.9-0.2 1.4 0.2 3.3 3.8 9.5 7.6 0.9 1.6 0.7 2.1 1 1.9 1.4 0.8 2.3 0.8 1.5 1.3z m-37-41l-1.1 1.2-1.9-0.4-1.7-2.5 0.2-1.9 1.7 0 0.6-0.8 0-1.7 1.1-0.3 2.3 1.6 3.1 3-0.3 1.3-2.4 0.1-1.6 0.4z m-17.7-10.3l-0.7 0.8-2.8-1.6-7.1-6.4-0.6-1.9 3.1 1.5 5.1 3.5 3 4.1z m25.3-9.8l-1.7 1.7-2.7-0.9-1.9-1.4-3-2.7 0.3-1.9 1.7-2.9-0.8-7.3 1.4-0.6 1.9-0.3 2 1.1 1.5 2.1 0.3 2.3-0.9 1.9-0.5 1.5 0.2 0.9 1.3 2.3 0.9 4.2z m155.9-138.8l-0.5 1.7 0.6 6 2.3 4.8 2.7 4.3 1.6 4.5-0.8 4.2-3 1.4-3.4 1.1-2.5 3.3 0.2 4 1.9 4.1 4.3 7.1 0.9 1.2 4 2.8 1.3 2.2 1.1 2.4 1.4 1.6 2.5-0.4 1.6-0.6 3.1-0.2 1.4-0.5 1.3-1.5 0.9-2.1 1.2-1.4 2.1 0.1 1.1 1.3 0.7 2.3 0.4 2.4 0.6 2.1 1.3 1.3 1.4-0.3 1.4-0.8 1.3 0.1 1.8 2.6 1.3 5.9 2.2 3.3 1.7 1.1 2.2 0.7 4.1 0.6 2.1 1 1.3 2.3 0.8 2.9 0.6 3.2-1.6 1-0.8 3.1-2.8 3.6-1.3 3.8 3.5 3.8 3.5 0.4 6.1-2.8 3.6 0.7 2 2.5 1.1 4.2 0.9 4.6 4.1 11.7 1.2 4.5 0 3.6-1 1.7-1.5 1-1.1 0.9-0.1 1.9 0.7-0.8 1.9 0.1 3 0.8 3.5 2.3 1.9 1.8 0.5 2.4-0.5 3.9-0.6 2-1.7 3.8-0.5 2.6 0.2 3.6 1.6 7.4 3.1 10.1 2.8 4 7.3 8 2.5 4.3 3.7 9.2 2.5 4.1 3.3 3.3 1.9 1.5 1.6 0.9 1.8 0.2 4.4-0.3 1.7 0.7 2.2 3.6 0.8 3.4 1.4 2.8 7.4 2.7 2.9 2.3 2.7 3.1 1.8 2.7-5.6-0.5-1.7 0.4-2.3 1-5.7 3.7-3.1 3-0.7 2.3-0.7 0.8-1.8 0.6-2.9 0-5.3-1.5-1.1-2.4-2.3-1-2.1 0-0.8 0.4-1.8 1.3-12.2 3.6-3.5 0.1-3.1-0.6-3.7-1.5-1.7-2.1-1-2.1-0.1-1.8 0.1-4.7 0.2-3.4-0.2-3.1-0.8-2.3-0.1-1.4 0.2-1.5-0.2-1-1.2-2-1.9 0.3-4.3 4.1-2.1 1.1-1.4 0.1-3.4-0.7-4.1-0.1-1.2 0.4-0.5 0.6-0.7 1.3-0.4 1.3 0.3 1.1 0.9 2.2-0.4 1.3-1 0.5-1.8 0.4-1 0.6-0.8 1.4-0.2 1.5 0.4 1.9-0.1 0.7-0.7 0.6-6.3 1.4-1.1 0.4-1.5 0.9-1.2 1-3.5 3.9-1 1-1.2 0.3-1-0.6-3.4-3.8-0.6-0.4-6-2.2-2.1-0.1-3.4 0.6-1-0.3-2.3-1.3-0.8 0-0.6 0.3-0.9 1.2-0.1 0.6 0.4 0.7 1.9 2.1 0.3 0.9-0.9 2-0.8 1.1-1 0.9-1.5 0.8-0.9 0.6-0.5 0.7-0.3 2-0.3 1.2-0.7 1.2-1.2 1.2-1.1 0.2-1-0.2-3.3-1.7-3.8-3.1-1.2 0.4-5.8 5.1-0.9 0.5-0.9 0.1-0.7-0.5-5.3-4.9-3.8-2.4-4.8 4.8-0.3-0.3-3.4-5.3-2.1-2.5-2.5-1.1-2.6-0.4-1.5-0.4-1.2-0.6-1.9-1.5-0.9-1.5-0.7-1.6-1.2-2-9.2-11.2-4.4-6.7-3.1-3.2-3.4-1.3-7.1-8.8 0.1-0.7-7.6-8.4-1.9-1.1-1.5-1.2-0.7-1.7 0.7-2.4-2.7-1.9-8.9-9.2 2.7-4.2-1.4-5.2-3.5-4.6-3.5-2.3 2-2.4 3.1-1.8 2.8 0.5 1.3 4.5 1.9 2.6 3.7-1.7 1.6-3.6-3.8-3 1.3-0.4 0.3-0.4 0.7 0.8 1.3 0-0.9-2.9-0.5-1 8.3 5.6 3.6 4.6 1.8 1.6 2.7 0.3-2.3-8.2 1.5-0.5 0.7-0.7 1.4-2.1-2.3-0.7-1.9-1.8-1.6-2.5-1.3-2.9 3.3 1.2 4.8 4.3 4.7 1.8 12.1 7 2.7 1 13.4 2.1 3.7-0.4 0.5-2.6-2.3-1.6-11.1-1.6-0.8-0.8-5.1-6.6-1.4-0.9-16.6-8-2.4-2.5 3.8-8.3 0.7-1.2 1.3-1.6 1.5-0.5 1.3 0.1 1.2 0.4 2.1 1.3 3.7 3.3 2.5 2.9 0.8 0.6 0.9 0.5 1.2 0.3 12.9 1.3 1.3 0.3 1.9 1.9 5.6 6.8 1.3-3.9 0.8-0.5 1.3-0.6 1.7-0.2 2.1-0.9 1.9-1.8 2.7-3.6 1.4-2.6 1.1-2.7 0.7-2.3 0.1-1.6-0.3-0.8-1.8-1.4-0.5-0.7-0.3-1.8-0.4-0.6-1.7-0.8-1.3-1-0.8-0.9-0.4-1.2 0.5-1.1 1.3-1.4 8.7-6.5-2.7-7.7-2.4-3.3-10.2-9.5-0.7-1.6-0.1-1 1-1.7 0-1.3-0.4-1.2-1-4.9-0.8-1.3-2.6-2.8-0.4-1.6-0.2-4.5-0.7-3.6-1-2.3-0.9-1.5-1.1-0.9-2.9-1.9-1.2-1.1-1.6-2-0.6-1.9 0-2.2 0.4-0.9 1.3-0.3 6 0 1.3-0.2 1.2-0.5 1-0.9 1-0.6 1.9-0.9 1.6-1.5 4.8-2.9 0.9-1.4 0.4-1.8-0.2-1-0.6-0.7-2.7-0.6-1.1-0.5-1.9-1.5-2.7-1.3-2.7-2-1-1.1-0.1-0.7 0.4-0.6 3.3-2.5 2.1-2.3 1.3-4.7-0.6-3.2-4.3-6.3-0.6-1.2-0.3-0.9 0.3-1.3 1.4-1.4 1.7-2.5 1-0.2 1.5 0.3 3.6 1.4 3.6 3.1 1.4 0.3 2.3-1 1-0.7 3.1-2.8 0.7-0.1 0.9 0.2 3.9 2.6 2.5 0.7 1.3 0.8 1.3 0.2 1.1-0.1 1.4-1.2z" id="HRV1493" name="Zadarska" data-id="HRV1493" data-name="Zadarska">
 </path>
 <path d="M466.4 119.9l-2.4-0.7-1.2 0.3-2.3 1.3-1.3 0.1-2.5-0.7-0.7-0.1-0.6 0.4-0.5 0.8 0.1 1.4 0.8 1.3 1 0.4 1.1 0.9 0.5 0.6-0.1 0.7-0.5 0.8-2.6 1.4-0.6 0.6 0.6 1.4 1.6 1.1 1 1.2 0 0.6-0.5 0.5-1.7 0.4-1.3 0-1-0.5-1.4-0.3-0.8 0-0.4 0.9-0.1 1.5 0.4 1.3 1.3 1.4-1.1 1.1-5 1.9-2.5 0.3-2 1.8-3.1 0.9-21.2 11.5-1.7-0.8-0.6-1.1 0-1.3-0.3-0.7-1.9-1.7-0.7-1.7-1.6-2.9-1-1-1.3-0.8-10.6-3.1-2.2-0.9-2.3-1.3-1.4 0-2.9 1.1-2.2 1.6-3.5 0.6-11.9-0.9-3-0.1-0.2-5 1.3-5 2-2.9 0.7-2.6-2.3-3.6-2.1-1.5-4.7-2-2.1-1.2-4.7-5-2.3-5.5 0-6.2 2.4-6.9 3.1-6 2.9-3.9 3.6-1.9 15 1.2 3.2-2.1 3.4-5.8 2.4-1.9 2.6-1.2 2.7-0.7 7.6-0.2 0.4 1.1 0.3 2.1 0 1.9 0.7 1.4 1.2 1.1 7.3 2.5 1 0.7 0.8 1 0.7 2.9 0.4 0.9 0.8 0.4 1.6 0.2 2.3-0.1 1.4 0.2 4.8 1.8 1.9 0.2 1.5-0.1 1.9-0.8 2.3-0.5 2.5 0.2 2.6-0.2 2.4-0.6 1.2-0.1 1.6 0.2 2.4 1 3.1 0.1 1-0.4 1-0.7 0.8-1 1.4-2.2 0.8-1.1 1.2-0.6 1 0 1.1 1.1 1.5 2.9 1 0.7 1.2 0.3 2.2-0.2 0.6 0.4 0.3 0.8-0.9 3.1 0 1.3 0.8 1.9 1.3 2.4 0.1 2.2-0.7 3.3-0.1 2.1-0.3 2 1.2 12.6z" id="HRV1582" name="Krapinsko-Zagorska" data-id="HRV1582" data-name="Krapinsko-Zagorska">
 </path>
 <path d="M391.6 250.2l2.4 9.4 0.9 1.4 0.8 1.7 0.9 1.3-0.2 1.2-0.6 1.3-0.6 2.7 0.5 2-0.5 1.2-1.7 3.5 0 2.3-0.6 1.2-1.1 0.8-3.4 1.2-1.3 0.1-1.1-0.4-2.3-2-1.5-1.2-1.4-0.7-1.2-0.1-1.7 0.3-0.8-0.3-1.1-1.6-0.8-0.6-2.2 0.1-4.5-1.2-2.3 0.7-0.9 0.9-0.1 0.8 0.6 0.8 1.6 1.6 0.4 0.8 0 0.9-1.1 4-0.1 1.3 0.5 1.6 1.6 2.6 0.5 1.4-0.2 1-2.6 2.3-0.4 1 0.1 1.1 0.5 2.5 0 1.5-0.5 2.9-0.8 2.8-0.2 1.2 0.1 1.2 0.8 2.9-0.3 0.6-2.3 2-0.6 1.6-1.2 1.8-0.7 0.9 0 2 0.3 1.3 0.1 2 0.4 1.1 0.5 0.5 11.1 2.4 0.9-0.3 0.9-1 1.1-0.5 2.5-0.1 1.7 0.5 0.6 0 1.5-0.8 0.8 0.1 0.9 0.5 2 0.2 0.6 0.3 3 2.1-1.7 1.6-1.9 5.2-0.2 1.9 0.6 14.2-0.7 3.7-4 10.4 0 4.4 2 7.3-0.7 4.2-4.2 7.3-0.8 2.5-1.4 1.2-1.1 0.1-1.3-0.2-1.3-0.8-2.5-0.7-3.9-2.6-0.9-0.2-0.7 0.1-3.1 2.8-1 0.7-2.3 1-1.4-0.3-3.6-3.1-3.6-1.4-1.5-0.3-1 0.2-1.7 2.5-1.4 1.4-0.3 1.3 0.3 0.9 0.6 1.2 4.3 6.3 0.6 3.2-6.6-5.5-1.2-1.3-0.8-1.9-0.7-0.8-1.2-0.5-2.1-0.3-2.6 0.4-1.4-0.4-0.8-0.5-0.8-1.5-0.7-1.3-1.3-4.4-0.4-1.1-0.9-0.9-3.4-2.6-1.9-2.1-0.8-1.5-3.4-7.6-1.2-1.4-22.6-14-1-0.8-0.8-1-1.1-1.5-2.1-2.1-0.9-1.1-1.4-2.3-0.9-1-0.6-0.3-1.1 0.6-4.2 4.2-5.7 0.4-19.8-4.5-6.3-6.2-0.4-0.8-0.1-1.2 0.9-0.5 1-1.1 0.3-1.1 0.2-12.4 0.7-4.8-0.9-2.6-0.8-1.5-0.9-2.4-0.1-1.3 0.4-0.9 1.1-0.9 0.5-1.3 0.2-1.3 0.9-3 0.9-1.8 5.9-4 1.8 0.2 1.3 1.1 2 1.2 4.9 1.6 1.8 1 1.1 1 0.4 1 1.5 1.1 1 0.3 2.1-3.9 1.2-1.4 5.4-2.3 1.2-1 0.5-1.2-0.2-2.1 0.5-1.6 0.9-1 3.2-2.8 1.1-1.1 0.8-1.2 1.4-4.7 0.6-2.3 0.2-2.3 0-1.1-0.3-1.8-0.7-1.8-0.4-0.9 9.4-3.5 5.5 0.1 1.9-0.5 1.4-1.4 3-4.2 1.7-1.4-8.5-5.8-2.5-4.1-1.3-5.2-1-6.3-1-2.9-1.2-2.6-0.2-2 2.1-1.1 1.1-1 0.7-1.9 1-1.8 4.9-1.6 2.1-1.1 2.4-0.9 3.5 0.1-1-2.2-2.7-4.6-0.3-0.3 2.4-1.5 3.1-3.6 6.4-1.1 1.6 0.2 0.9 0.6 0.9 0.9 1.2 2.2 2.6 2.6 1.8 1.6 5.7 2.9 0.9 0.6 0.1 0.5-0.4 1.6 0.4 1.5 2.9 3.1 4.5 3.4 1.8 0.8 1.3-0.1 1.6-2.8 1.4-1.6 1.2-0.6 2-0.2 1.3 0.2 1 0.4 6.3 4 4.4 0.9 1.7 0.6 1.6 0.7 2 1.3 1 0.4 0.8 0 0.5-0.3 1.6-1.8 0.6 0.5 0.8 4.6-0.1 1.2-0.6 1.1-0.9 0.9-0.6 1 0.3 1.1 2.4 2.2 1 1.1 3.2 4.4 0.7 0.4 0.9 0.2 1.8-0.2 2.2-0.6z" id="HRV1583" name="Karlovacka" data-id="HRV1583" data-name="Karlovacka">
 </path>
 <path d="M228.1 471l6.5 4.9-0.6-7 4-0.2 5.8 3.8 4.7 4.9 3.9 6.4 2.5 2.5 6.3 2 1.8 2.7 1.6 3.7 2.4 3.9-3.3-0.5-4.7-4-3.6-0.4 0.8-2.4 0.4-0.9-7-4.1-3.4-1.3-1.8-1.4-2.3-1.2-2.9 0 0 1.6 9.3 5.2 13.8 20 8.2 5.7-2.6-2.2-2.7-3.2-2.4-4.1-1.6-5 7.1 3.5 15.7 16.7 3.8 2.4 2.4 2.8 4.8 4.3 2.2 2.6-3.3 0.9-3.9-2.4-4.1-3.2-3.8-1.8 0 1.6 3 0.7 3 1.9 2.6 2.7 1.9 2.8-3.5 0 0.3 1.3 0.5 0.8 1.5 1.1-3.6-1-7.5-3.3-4-0.4 0 1.5 7 5 0 1.4-3.9-0.9-3.4-2.1-3-3-2.5-3.6 0-1.5 2.4 0 0-1.8-1.4-0.8-0.9-1-1.3-3 1.8 0.1 1.2-0.3 0.9-1.1 0.8-1.8-4.3-2.9-1.5-0.5-1.6 0.3-2.6 1.5-1.5-0.1-1.8-2.1-3-6.3-10.4-8.7-1.6-0.3-8.8-5.4 0-1.5 0.9-0.3 1.7-1 1-0.5-2.1-3.8-4.9-7.2-0.1-2-1.9-1.6-17.6-21.9-3-5.2-1.7-5.4 0.8 0 0.5 0.4 6.5 7.6 11.1 16.4z m121.9-66.2l-1.3 4.7-2.1 2.3-3.3 2.5-0.4 0.6 0.1 0.7 1 1.1 2.7 2 2.7 1.3 1.9 1.5 1.1 0.5 2.7 0.6 0.6 0.7 0.2 1-0.4 1.8-0.9 1.4-4.8 2.9-1.6 1.5-1.9 0.9-1 0.6-1 0.9-1.2 0.5-1.3 0.2-6 0-1.3 0.3-0.4 0.9 0 2.2 0.6 1.9 1.6 2 1.2 1.1 2.9 1.9 1.1 0.9 0.9 1.5 1 2.3 0.7 3.6 0.2 4.5 0.4 1.6 2.6 2.8 0.8 1.3 1 4.9 0.4 1.2 0 1.3-1 1.7 0.1 1 0.7 1.6 10.2 9.5 2.4 3.3 2.7 7.7-8.7 6.5-1.3 1.4-0.5 1.1 0.4 1.2 0.8 0.9 1.3 1 1.7 0.8 0.4 0.6 0.3 1.8 0.5 0.7 1.8 1.4 0.3 0.8-0.1 1.6-0.7 2.3-1.1 2.7-1.4 2.6-2.7 3.6-1.9 1.8-2.1 0.9-1.7 0.2-1.3 0.6-0.8 0.5-1.3 3.9-5.6-6.8-1.9-1.9-1.3-0.3-12.9-1.3-1.2-0.3-0.9-0.5-0.8-0.6-2.5-2.9-3.7-3.3-2.1-1.3-1.2-0.4-1.3-0.1-1.5 0.5-1.3 1.6-0.7 1.2-3.8 8.3-23.4-24.1-7.9-11.2-4.8-5.2-4.7-2.3-0.7-1.1-5.5-4.5-1.4-0.1-1-2.1-16.9-26.5-2.9-8 1.9-2.9-0.2-3.6-1.1-4.1-0.6-4.9-0.4-13.1 0.4-4.2 3.6-15.1 1.6-3.6 1.2-4.5-1.3-5.4-5.5-13 0.8-1.6 0-3.1 0.2-0.8 0.5-0.6 6.1-3.9 1.3-0.3 0.9 0.2 0.9 1 1.1 0.5 2.7-0.4 4.7 0.5 2.9-0.3 1.1-0.3 0.6-0.8 0.6-1.9 0.2-1.7 0-1.3-3.2-6.3 19.8 4.5 5.7-0.4 4.2-4.2 1.1-0.6 0.6 0.3 0.9 1 1.4 2.3 0.9 1.1 2.1 2.1 1.1 1.5 0.8 1 1 0.8 22.6 14 1.2 1.4 3.4 7.6 0.8 1.5 1.9 2.1 3.4 2.6 0.9 0.9 0.4 1.1 1.3 4.4 0.7 1.3 0.8 1.5 0.8 0.5 1.4 0.4 2.6-0.4 2.1 0.3 1.2 0.5 0.7 0.8 0.8 1.9 1.2 1.3 6.6 5.5z" id="HRV1584" name="Licko-Senjska" data-id="HRV1584" data-name="Licko-Senjska">
 </path>
 <path d="M131.1 468.1l-1.3 0.3-1.9-1.3-2.2-0.7-1.2-1.5 0.2-2.1 0.3-1.7 1.5-4.6 3.6-4.3 2.5 0.5 0 2.3-1 1.5-2.3 0.5-0.6 0.6-0.1 0.9 0.3 1.2-0.3 1.3 0 1.3 1.5 2.8 1 3z m23.4 2.8l6 8.3 13.7 14.7 1.3 4.7-3.8 0.4-4.5-4.3-5.6-7.4-2.3-1.6 0-1.7 3.5 1.1 1.2 0.6-4.8-6.2-2.6-2.2-3.1-1.4-1.2 2.5-1.7 0.9-2.1-0.5-1.9-1.4 0-1.5 1.1 0-0.8-1.8 3-3.8-1.1-4.7-4.5-7.6-0.8-3.2-1.3-7.4-0.2-4 3.3 2.3 4.3 2 2.8 3.1-1.2 5.5 0.8 2.1 0.8 3.8 0.7 6.5 1 2.2z m58-58.3l0.5 2.5-2.6 2.1 0 1.5 1.2 0.9 6.7 6.5 4.1 2.4 1.8 1.9 4.9 8.1 1.3 4.7-1.6 3.4-4.8-4.2-8.2-9.4-5.4-4.3 0 1.9 0.4 1.1 1.9 1.9-2.3-1.6-2.7-0.7-2.5-0.1-1.8 0.6-7-7.9 2.1-0.2 2.1 0.2 2 0.5 1.9 0.9 0-1.4-0.6-0.9-0.5-2.6 2.8 2.4 0.7 1.1 1.1 0-2.1-4.7-1.4-2-2.3-1.6-0.4-0.8-0.7-2.5 3.6 0.5 3.3 1.2-0.4-1-0.7-2.5 3.2 0.3 2.4 1.8z m-47.7-25.7l-1.4 4.2-1.8 3.3 1.2 1.6-1.5 4.2-0.3 3.4 0.6 7.8 2.2 7.1 0.3 3.9-2.5 1.5 0.9 2.6 2 3.5 0.6 1.8 0.2 2.6-1.1 2.9-0.2 3 1 5.2 2.3 3.7 2.6 3.3 2.2 3.8-1 2.2 0.1 1.8 1.1 0.8 2.1-1.4 1.1 3.3-1.2 1.7-1.1 1.3-1.2 0.6-1.9-0.3-4.9 0-7.7-8.6-5.6-12.1 0.5-10.5-0.8-0.2-1.6-1.3-1.5 0.9-1.1-1.7-0.6-3.1-0.2-7.7-0.3-2.2-0.8-1-1.8-0.1-2.7-3.2-2.7-14.3-3.4-3.5 0.4-1.8 0.9-1.5-1.5-4.3 1.5-0.7 4 1.6 1.2 1 3 4.6 1.6 1.1 3 0.1 1.7-0.2 1-1.4 0.7-3.4-0.7-1.4-0.7-3.7 0.2-2.4 2.3 2.6 1.2-1.6-3.3-3.2-2.5-4.1-5.1-14.5-1-2-9-10.8-1.5-3-0.1-3.5 1.8-5 1.9-3.2 2.3-2.4 3.1-0.8 4.1 1.5 1.4 2.8-0.6 9.6 0.4 5.8 1.1 4.3 3 8.7 4.2 8.5 0.9 1.3 2.2 1.9 3.9 0.5 2.1 1 1.2 3-0.4 4.2z m15.6-70.9l5.5 3-2.3 0 0.3 1.7 0.5 1.4 0.8 1.1 0.7 0.8 2.5 4.4 2.2 5.4-4.4 2.2 2.5 1.7 5.3 0.6 3.7-1.2 0.9 4.4-2 8.4 1.1 5.1 2.1 2.3 3 1 7.6 0.1-0.1 6.8 10.1 9.4 2.5 6.6-1 0-2 1.5-2.1 0.5-2.1-0.5-1.9-1.5-2.3 1.8 0 1.5 2.3 2.1-0.7 1.5-2.5 0.9-3.1 0.4-2.9-0.8-8.2-5.6-4.9-1.9-0.7-1.8-0.2-3.8 0.5-8.6-1-2-2.9 1.6 0 1.7 2.3 1.8-4.5 0.3-13.5-2.1-4.3-1.4-4.2-3.5-3.6-4.3-2.3-4 1.3-2.1 1.4-0.9 1.7-0.3 1.9 0 0.7-1-0.2-2.3 0.3-2.2 1.5-1.1 6.4-0.1 2.7-1.4-1.5-3.4 2.2-3.2 0.9-1.9 0.4-2.1-0.4-1.9-0.6-1.7 0.2-1.9 1.8-2 0.3-2.7-0.1-2.1-0.9-1.3-1.6-0.4 2.5-2.7 2.4-0.3z m112-44.9l0.4 0.9 0.7 1.8 0.3 1.8 0 1.1-0.2 2.3-0.6 2.3-1.4 4.7-0.8 1.2-1.1 1.1-3.2 2.8-0.9 1-0.5 1.6 0.2 2.1-0.5 1.2-1.2 1-5.4 2.3-1.2 1.4-2.1 3.9-1-0.3-1.5-1.1-0.4-1-1.1-1-1.8-1-4.9-1.6-2-1.2-1.3-1.1-1.8-0.2-5.9 4-0.9 1.8-0.9 3-0.2 1.3-0.5 1.3-1.1 0.9-0.4 0.9 0.1 1.3 0.9 2.4 0.8 1.5 0.9 2.6-0.7 4.8-0.2 12.4-0.3 1.1-1 1.1-0.9 0.5 0.1 1.2 0.4 0.8 6.3 6.2 3.2 6.3 0 1.3-0.2 1.7-0.6 1.9-0.6 0.8-1.1 0.3-2.9 0.3-4.7-0.5-2.7 0.4-1.1-0.5-0.9-1-0.9-0.2-1.3 0.3-6.1 3.9-0.5 0.6-0.2 0.8 0 3.1-0.8 1.6-4.2-9.7-0.7-4.2-1.7-2.8-2.6-2-10.3-5.6-18.3-14.2-8.6-11.5-2.4-1.3-2.8-3-1.3-3.3 2.3-2.2-1.9-2-6.2-4.6 3.1 3.6 0.5 0.4-0.6 1.9-1.5 1-1.7 0-1.5-1.1-2.3-2.7-18.3-9.3-6.5-1.5-3-1.7-2.7-0.5-3.1 2.4-3.5 5.6-3.2 7.3-2.3 8.3-1.8 16.6-2.2 7.7-4-1.7-0.7-0.9-0.7-1.5-0.2-1.6 0-2.1 0.3-2.2-0.2-5.6-1.3-13.3-0.1-4.1 0.2-1.5 0.4-1.4 1.5-3.2 0.7-2.5 0.1-1.8-0.4-2.5-1.6-7.2-0.3-2.4 0.1-1.9 0.9-2.5-0.4-0.9-1.5-1.2-9-5.2-1.5-1.6-1.5-2.5-0.6-1.9-0.2-1.2 0.2-2.2 0.4 0.1 4.3-0.9 8.1-3.7 4.3-1.3 3.7 0.9 6.7 3 7.9 1.5 7.7-0.7 6.5-3.7 3.1-3 6.7-4.9 2.2-4 0.9-3.4 0.8-6.5 1.1-3.1 1.6-2.3 4.2-4.8 1.8-2.6 2.1-4.9 1.3-1.5 2.9-1.2 1.9 1.1 0.3 3.7-0.2 4.4 0.2 3.3 1.5 3 2.2 2.3 5.8 4.7 1.2 0.5 1.1 0.6 1 1.3 0.3 1.9-0.6 4.3 0.1 1.2 3.3 2.9 15.7 6.9 2.7 6.8 7.1 1.5 7.2-2.6 3.2-5.6 0.7-5.2 3-0.1 3.9 2.5 2.9 2.8 4 0.5 1.9 0.9 1.7 1.5 8.2 0.3 14 12 7.6 1 7.1-2.6z" id="HRV1586" name="Primorsko-Goranska" data-id="HRV1586" data-name="Primorsko-Goranska">
 </path>
 <path d="M507.1 191.8l2.5 2.6 0 1.6-0.7 1.4-0.5 1.8-0.6 3 0.1 1.1 0.6 0.5 1.3 0.2 1.4 0.5 1.9 1.5 1.5 0.8 1.8 0.5 2.2 0.9 3.8 2.9 2.6 3.4 1.5 1.5 0.9 0.5 3.1 0 3.5 0.8 11.5 5.4 0.9 0.8 1.8 2.4 1.2 0.8 1.6 0.5 4.1 0.6 1 0.7 0.7 1 2.4 6.4 0.7 1.5 1.4 2.3 1 0.9 1.5 0.6 1 0.8 1.6 2.7 2.5 3.3 0.8 1.4 0.3 0.9-3 3.1-1.4 0-1-0.2-1 0.1-0.3 0.6 0.1 1 1 2.3 1.3 1.3 1.3 1 1.3 0.5 1.5 0.2 3.4-0.2 1.2 0.6 0.6 0.9 0.9 1.7 0.5 0.4 0.9-0.2 2.9-1.8 6 5 5.7 2.8 1.3 1.4 2.8 4.6 2.1-0.4 2.3-1.1 0.8-0.2 0.7 0.1 0.5 0.6 0.3 1.4-0.2 1.3-0.3 0.9-0.8 1.3-0.8 1.6-0.1 1.9 0.3 0.8 1.8 1.6 13.8 8.7 6.4-1.5 1.4 4.1 0.1 1-0.4 0.8-1.4 1.4-0.3 0.9 0.8 1.2 2.4 2.1 0.5 0.6 0.1 0.8-0.2 0.5-1.1 0.9-2.1 0.4-2.5 0.2-2.5 1.2-0.6 0.8-2 3.5-2.6 2.4-0.9 0.7-4.4 4.4-0.7 1.5-0.5 2.3 0.3 1 0.7 1 1.7 1.1 2.2 2.5 2.4 5.7-4.4-2.1-7.2-5.4-3.3-7.2-1 0.8-2.7 1.7-1.1 0.9 0.8-2 0.1-1.5-0.2-1.4-0.7-1.8-1.6 3-1.8-1.2-2-2.6-2.5-0.9 0.7 1.7 0.4 1.6-3.5 0.4-0.9-1.3 0.1-2.1-0.3-1.9-1.3-5-1.4-1.4-4.7 3.9-0.5 1.1-1.3 2-1.8 2-1.4 0.9-0.9 2.6-1.7 1.2-1.9 0.8-1.7 1.7-0.9 2.9 0.1 2-0.3 1.8-2.1 1.9-4.3 0.5-33.6-10-9.8-0.4-8 5.5-5.5 12.3-2.3 3.7-1.9 1.3-4.4 1.4-1.6 1.1-1.2 2.2 0 1.4 0.4 1.5-0.4 2.8-0.8 2-3.4 6.4-2.8 10.2-4.1 1.1-6.2-1.4-6.5-2.8-4.7-3-15.5-15.5-2.9-3.9-3.6-9.3-2.6-4.3-2.1-1.7-3.7-0.8-1.5-1.1 0.1-1.1 0.6-1.7 0.1-2.1-1.5-2.2-2-1-1.8-0.1-3.9 0.8-16.2-0.5-9.1 1.5-3.8 3.5-3-2.1-0.6-0.3-2-0.2-0.9-0.5-0.8-0.1-1.5 0.8-0.6 0-1.7-0.5-2.5 0.1-1.1 0.5-0.9 1-0.9 0.3-11.1-2.4-0.5-0.5-0.4-1.1-0.1-2-0.3-1.3 0-2 0.7-0.9 1.2-1.8 0.6-1.6 2.3-2 0.3-0.6-0.8-2.9-0.1-1.2 0.2-1.2 0.8-2.8 0.5-2.9 0-1.5-0.5-2.5-0.1-1.1 0.4-1 2.6-2.3 0.2-1-0.5-1.4-1.6-2.6-0.5-1.6 0.1-1.3 1.1-4 0-0.9-0.4-0.8-1.6-1.6-0.6-0.8 0.1-0.8 0.9-0.9 2.3-0.7 4.5 1.2 2.2-0.1 0.8 0.6 1.1 1.6 0.8 0.3 1.7-0.3 1.2 0.1 1.4 0.7 1.5 1.2 2.3 2 1.1 0.4 1.3-0.1 3.4-1.2 1.1-0.8 0.6-1.2 0-2.3 1.7-3.5 0.5-1.2-0.5-2 0.6-2.7 0.6-1.3 0.2-1.2-0.9-1.3-0.8-1.7-0.9-1.4-2.4-9.4 4.5-5.5 2.5-0.9 1.7 0.6 0.5 0.6 0.2 0.8-0.1 1.6 1.1 0.9 4.7 0.8 3.4 4 1 2-0.1 4.5 1.3 2.3 7.1 0.5 2.4-0.6 1.4-1.4 1.2-1 1.3-0.2 1.8 0.1 1.2 0.4 0.8 0.5 1.5 1.4 4.8-5.7 1.1-0.7 2.1-0.5 2.1 0.2 0.8-0.6-0.3-0.7-1-1.3-0.2-0.9 0-3.6-0.4-1.3-1-1.3-2.9-2.3-0.6-0.7-0.4-0.8-0.2-1-0.1-1.7-0.3-0.9-0.8-0.6-1.5-0.5-0.7-0.4-0.4-0.7-0.2-1.3 0.1-1.2 0.5-0.8 0.9-0.4 3.6 0.4 1.6-0.2 1.3-0.6 4.8-3.9 2.8-3.1 0.6-0.6 1.1-0.5 0.9 0 1.3 0.3 1.8 1 1.3 2.4 0.6 0.8 0.7 0.3 1.8 0.3 1.1 0.4 1.3 0.9 1.1 1.2 1.4 1.1 1.9 0.4 4.5-1.9 2.3-2.1 3.2-7-0.9-7.1 0.7-3.2-1.1-6.4 0.3-2.3 0.4-1.7 2.7-4.1 0.9-0.8 0.8-0.1 2.9 1.8 1.7 0.4 3.3-1 0.6-0.4 0.5-1 0.7-4.8 1.2-4.9 0.2-1.5-0.2-2.2-0.5-1.8 6.9 0 0.3-0.3 0.7-1.7 0.5-0.6 1 0 0.5 0.5 0.4 1.5 2 3.3 7.2 8.7z" id="HRV1587" name="Sisacko-Moslavacka" data-id="HRV1587" data-name="Sisacko-Moslavacka">
 </path>
 <path d="M466.4 119.9l2.6 4.3 0.5 1 0.8 3.1 1.1 1.9 1.4 1.4 1.1 0.1 2-0.3 2.8-1.6 5.2-1.1 12.4 4.1 1.8 0.9 2.8 4.1 1.3 1.6 0.7 1.1 0 0.5-0.8 3.3 0.4 0.4 1 0.2 2.3-0.6 1.8-1.4 0.9-1.7 0.9-1 0.6 0 1 0.5 4.3 4.5 1 0.8 6.5 3.8 1 1 0.7 0.9 0.3 0.8 1.1 0.4 1.4-0.5 1 0 1.4 0.9 0.7 0.6 1.1 0.4 1.2-0.2 5.1-2.1 2.4 1.2-0.2 2.5 0.1 2.3 0.7 7.7-0.1 1.5-0.3 3.1-0.9 3.5-2.4 3.2-1.3 0.9-1.5 0.5-2.2 0-1.2-0.6-0.6-0.9 0.1-1.1 0.4-1.2 0-1.2-0.5-0.9-0.9-0.1-1.1 0.7-3.7 6-0.4 1.7 0.1 2 0.6 3.7-0.5 1.2-1 0.5-5.5-2.2-4.9 0.1-1.4 0.7-1.8 3.2-2.7 1.8-7.2-8.7-2-3.3-0.4-1.5-0.5-0.5-1 0-0.5 0.6-0.7 1.7-0.3 0.3-6.9 0 0.5 1.8 0.2 2.2-0.2 1.5-1.2 4.9-0.7 4.8-0.5 1-0.6 0.4-3.3 1-1.7-0.4-2.9-1.8-0.8 0.1-0.9 0.8-2.7 4.1-0.4 1.7-0.3 2.3 1.1 6.4-0.7 3.2 0.9 7.1-3.2 7-2.3 2.1-4.5 1.9-1.9-0.4-1.4-1.1-1.1-1.2-1.3-0.9-1.1-0.4-1.8-0.3-0.7-0.3-0.6-0.8-1.3-2.4-1.8-1-1.3-0.3-0.9 0-1.1 0.5-0.6 0.6-2.8 3.1-4.8 3.9-1.3 0.6-1.6 0.2-3.6-0.4-0.9 0.4-0.5 0.8-0.1 1.2 0.2 1.3 0.4 0.7 0.7 0.4 1.5 0.5 0.8 0.6 0.3 0.9 0.1 1.7 0.2 1 0.4 0.8 0.6 0.7 2.9 2.3 1 1.3 0.4 1.3 0 3.6 0.2 0.9 1 1.3 0.3 0.7-0.8 0.6-2.1-0.2-2.1 0.5-1.1 0.7-4.8 5.7-1.5-1.4-0.8-0.5-1.2-0.4-1.8-0.1-1.3 0.2-1.2 1-1.4 1.4-2.4 0.6-7.1-0.5-1.3-2.3 0.1-4.5-1-2-3.4-4-4.7-0.8-1.1-0.9 0.1-1.6-0.2-0.8-0.5-0.6-1.7-0.6-2.5 0.9-4.5 5.5-2.2 0.6-1.8 0.2-0.9-0.2-0.7-0.4-3.2-4.4-1-1.1-2.4-2.2-0.3-1.1 0.6-1 0.9-0.9 0.6-1.1 0.1-1.2-0.8-4.6-0.6-0.5-1.6 1.8-0.5 0.3-0.8 0-1-0.4-2-1.3-1.6-0.7-1.7-0.6-4.4-0.9-6.3-4-1-0.4-1.3-0.2-2 0.2-1.2 0.6-1.4 1.6-1.6 2.8-1.3 0.1-1.8-0.8-4.5-3.4-2.9-3.1-0.4-1.5 0.4-1.6-0.1-0.5-0.9-0.6-5.7-2.9-1.8-1.6-2.6-2.6-1.2-2.2-0.9-0.9-0.9-0.6-1.6-0.2-6.4 1.1-3.1 3.6-2.4 1.5-2.8-3.2-0.5-0.4-0.6 0.3-2.1 0.5-0.7 0.7-0.3 1-0.7 0.5-2.2-0.9-1.5-1.1-0.9-1.2-1.6-3.2-1.7-1.6-1.2-0.6-0.3-1 1-2.9 1.4-1.6 6.8-3.9 21.2-7 2-1.7-0.2-2.3-0.7-2.5 0.8-2.3 1.9-0.9 1.9 0.3 1.9 0.6 1.9 0.3 1.7-0.6 3.1-2.6 1.7-0.8 10.7 1.8 6.6-0.2 3.3-1 3.4-1.8 1.7-2.4-0.1-3.5-2-4.9-0.7-3.1 0.7-2.9 1.2-2.8 0.9-3.1 0.2-4-0.3-7.5 3 0.1 11.9 0.9 3.5-0.6 2.2-1.6 2.9-1.1 1.4 0 2.3 1.3 2.2 0.9 10.6 3.1 1.3 0.8 1 1 1.6 2.9 0.7 1.7-4.3 2.5-8.8 2-2.5 0.1-3.1-0.1-1.3 0.4-0.7 0.9 0.5 2.7 0.1 1.7-0.1 1.6-0.9 1.8-1.3 0.7-4.3 0.8-1.6 1-0.2 1.6-0.8 3.6 1.4 1.3 6.1 0 2.1 1.9 4.1 5.7-1.8 2.8-3.9 5.4 3.5 4.9-3.5 7.5-5.2-3.3-1.4 3-0.6 2.4-0.1 1.4 0.1 1.1 0.4 1.2 0.8 0.9 1.2 1.3 4.7 3.5 10.5 4.8 2.1 1.5 0.8 1 1.3 3.2 0.8 0.8 2.9 1.9 2.9-4.9 1.3-12.4 3.4-5.6 20.8-13.6 8.2-8.5 0.6 0.1 4.8 3.1 2.9 1.2 0.8-0.9 0.5-2.1 1.2-2.5 0.5-1.9 0.3-2.3 0.4-1.2 2.6-2.9 0.4-0.6-0.4-1.4-1-2.1-6.1-8.5-1-1.8-2.2-6.6-4.6-9 5-1.9 1.1-1.1-1.3-1.4-0.4-1.3 0.1-1.5 0.4-0.9 0.8 0 1.4 0.3 1 0.5 1.3 0 1.7-0.4 0.5-0.5 0-0.6-1-1.2-1.6-1.1-0.6-1.4 0.6-0.6 2.6-1.4 0.5-0.8 0.1-0.7-0.5-0.6-1.1-0.9-1-0.4-0.8-1.3-0.1-1.4 0.5-0.8 0.6-0.4 0.7 0.1 2.5 0.7 1.3-0.1 2.3-1.3 1.2-0.3 2.4 0.7z" id="HRV1588" name="Zagrebacka" data-id="HRV1588" data-name="Zagrebacka">
 </path>
 <path d="M412.9 150.8l1.9 1.7 0.3 0.7 0 1.3 0.6 1.1 1.7 0.8 21.2-11.5 3.1-0.9 2-1.8 2.5-0.3 4.6 9 2.2 6.6 1 1.8 6.1 8.5 1 2.1 0.4 1.4-0.4 0.6-2.6 2.9-0.4 1.2-0.3 2.3-0.5 1.9-1.2 2.5-0.5 2.1-0.8 0.9-2.9-1.2-4.8-3.1-0.6-0.1-8.2 8.5-20.8 13.6-3.4 5.6-1.3 12.4-2.9 4.9-2.9-1.9-0.8-0.8-1.3-3.2-0.8-1-2.1-1.5-10.5-4.8-4.7-3.5-1.2-1.3-0.8-0.9-0.4-1.2-0.1-1.1 0.1-1.4 0.6-2.4 1.4-3 5.2 3.3 3.5-7.5-3.5-4.9 3.9-5.4 1.8-2.8-4.1-5.7-2.1-1.9-6.1 0-1.4-1.3 0.8-3.6 0.2-1.6 1.6-1 4.3-0.8 1.3-0.7 0.9-1.8 0.1-1.6-0.1-1.7-0.5-2.7 0.7-0.9 1.3-0.4 3.1 0.1 2.5-0.1 8.8-2 4.3-2.5z" id="HRV1589" name="Grad Zagreb" data-id="HRV1589" data-name="Grad Zagreb">
 </path>
 <path d="M105.1 262.3l-0.2 2.2 0.2 1.2 0.6 1.9 1.5 2.5 1.5 1.6 9 5.2 1.5 1.2 0.4 0.9-0.9 2.5-0.1 1.9 0.3 2.4 1.6 7.2 0.4 2.5-0.1 1.8-0.7 2.5-1.5 3.2-0.4 1.4-0.2 1.5 0.1 4.1 1.3 13.3 0.2 5.6-0.3 2.2 0 2.1 0.2 1.6 0.7 1.5 0.7 0.9 4 1.7-0.4 1.2-3.9 5.5-5.1-1.9 2.7 3.3-0.3 3.6-2.2 3.4-2.7 2.7-1-1.7-0.7 2 0 1.6 0.7 4.5-1.8-1-0.7-0.5 0 1.5 2.7 3.1 1.1 5.1-0.4 5.6-2.1 4.3-1.9 1.5-1.4-0.2-1.3-0.8-1.8-0.5-2 0.8-2 1.8-1.6 2.3-0.8 1.8-1.1 0 0.4-4.7 1.4-2.1 0.7-2-1.4-4.4-3.5-3.3-0.6-1.8 0.3-1.7-0.2-1.1-2-0.3 0.7 2.8-0.7 4.3 0.7 1.9 1.8 1.2 1.6 0.2 1.2 0.5 0.7 2.3-1.8 1.8-2.4 4.7-1.1 1.3-0.7-1.2-0.9 0 0.7 1.6 0.2 2-0.2 2.2-0.7 2.3-1.4-0.4-0.7 0.1 0.1 0.7 0.8 1.2 0 1.7-0.8 0-0.4 1.8-1.7-1-3.7 1-2.7 0 1.4 1 0.8 1.1 1.3 2.6-1.2 0 0 1.5 1.2 0 0 1.7-1.3 0.9-0.7 1-1.5 3 0.6 2.9-0.6 2 1.8-0.1 1.1 0.5 0.7 1.1 1 1.7-6.1 0.3-2.9-0.4-2.5-1.6-0.4 1.2-0.8 0.5-1-3.8-1.5-0.4-1.7 0.4-1.6-1-1.2 1.6 1.8 0.8 1.8 1.4 0.8 2-0.8 2.5 1.5 3.8 0.8 1-2.5 1.4-0.7-2.2 0.1-3.9-0.5-3.6-1.2-0.9-5-2.1-1.9-0.2 0.4-0.8 0.4-1.7 0.4-0.7-0.5-0.2-1.8 0.2 1.1-1.7-1.1-1.8-1.9 0.5-2.6-0.9-2.8-1.9-2-2.5 1.2-1.5 1.8 2.5 2.5 0.7 2.3-1.3 1.5-3.5-4.6 1.1-1.7-0.5-1.8-2.3 0-1.4 0.7-0.7 0.8-1.6 0.8-1.2-1.9-2.2-3.8-9.3-7-7.4-8.7-12.3-1.4-1.2-2.1-2.4-2.8-2.2-3.5-0.6 0.7-1.5 0.9-2.4 0.7-1-4.1-5.9 4.4-2.9 14.8-1-3.3-1.6-3.9-0.6-7.9 0.4-4.2 1.2-2-0.1-0.7-2 0.3-2.5 0.4-2.1-0.2-1.6-1.7-1 0.8-1.6 0.1-1.2-0.6-1.1-1.4-1.1 0-1.5 1.3-0.9 0.7-1.5 0-1.9-0.9-2.4 1.1-2.4-0.1-2.4-1.1-2.1-2.2-1.3 0.6-1.5 0.9-1.2 1.3-0.7 1.8 0 0-1.5-1.7-0.9-1.3-1-1-1.4-0.6-1.8 1.7-0.3 1.5-0.8 2.6-2.2-2-1-4.5-0.2-1.6-0.3-1.9-1.9-1.6-2.8-0.1-2.6 2.4-1 0-1.5-2-2.2-5-14.4 1.3-1.6-0.9-1.1 0.4-0.6 0.5-1.8-2.8-6.4-0.5-3.5 0.9-3.2 1.1 0 1.7 1.3 7.6 3.7 3.6 0.5 6.7 7.2 22-1 7.9 5.1 2.3 2.3 2.7 0.8 9 1.3 1.8-1.3 1.5-2.3 2.4-2.5 7.9-3.4 2.2-2.9-3.6-4.3 0-2.6 0.6-1.7 1.2-0.8 7.1 1.5 2.4 1.3 2.3 2.3 4.2 3.1 4.4 1.5 4.2 0.2z" id="HRV1592" name="Istarska" data-id="HRV1592" data-name="Istarska">
 </path>
 <path d="M774.9 310.8l6.6 5 0.8 1 1.5 0.9 11.3 4.2 3.8 0.5 5.3-0.3 2.2-0.9 1.3-1.2 0.8-1.2 1.2-0.9 2.1-0.5 4.5-0.6 6.2 1 20.8 7.4 8.5 4.3-4.1 4.9-0.7 1.4-0.5 1.3-0.3 1.5-0.2 2 0 1.9 0.3 2.5 1.3 3.6 3.7 6 0.2 0.1-0.1 1.6 0.8 3 0.4 3.3-4.1-0.1-4.5-1.7-4.1-2.7-6.2-6.7-3-2.5-3.2-1.4-11.9-1.1-2.5-1.1-7.7-5.5-4.1-1.6-4.1 0.8-1.9 2.4-0.4 3-0.1 3-1.2 2.5-2.9 1.8-3.6 0.8-3.7-0.1-3.3-0.6-3.7-1.8-9.4-8.5-2.7-1.4-2.6 0-2.5 1.3-10.3 12.4-2.8 2.7-1.4 0.7-4.7 0.9-5 2.1-1.6 0.2-3.4-1.3-3.1-2.9-9.5-12.2-4.5-4.5-5.1-2.9-5.6-0.3-3.6 1.9-6.2 6.6-3.5 2.2-1.9 0.3-3.7-0.4-8.5 1.1-1.2 0.5 0.8-1.6 1.6-5-4 2.2-2.1 0.3-2.1-0.7 1.2-1.5 0.5-1.3-0.1-1.4-1-1.6-1.3-0.8-0.8 0.9-0.8 2.3-5.6 1.8-3.1 0.3-2.4-1.3-1.5-1.3-5.6-3.7-3.1-1.3-6.6-4.3-3.3 7.1-0.7 1.1-8 0.5-1.8 1.1-10.6-4.9-2.4-5.7-2.2-2.5-1.7-1.1-0.7-1-0.3-1 0.5-2.3 0.7-1.5 4.4-4.4 0.9-0.7 2.6-2.4 2-3.5 0.6-0.8 2.5-1.2 2.5-0.2 2.1-0.4 1.1-0.9 0.2-0.5-0.1-0.8-0.5-0.6-2.4-2.1-0.8-1.2 0.3-0.9 1.4-1.4 0.4-0.8-0.1-1-1.4-4.1 7.4-6.1 2-1.3 2.3-0.4 2.8 0.8 1.8 1.2 2.1 0.6 2.4-0.3 8.5-3.8 6.2-0.1 14.8 10.5 2.8 3 6.2 7.6 3.1 2.5 4.5 2.9 4.7 2.1 2.8 0.4 5.1-0.5 2.5 0.1 3.6 1 1.5 0.7 0.8 0.6 0.6 1.5 0.2 1.5-0.3 2.2 0.2 1 2.3 3.8 0.4 1.3-1.8 3.2-0.4 1.1 0.5 0.6 2.8 0.9 2.9 0.4 2.3-0.2 1.9-0.6 0.6-0.4 0.6-0.8 0.6-2.3 0.2-3 0.5-0.5 1-0.2 4.1 0.4 1.3-0.2 3.6-1.4 1.8-1.3 1.8-2 1.4-2.8 1-1 1.5-0.3 0.5-0.6-0.2-0.9-0.6-0.9-0.5-1.1-0.1-0.6 0.7-1.3 1.5-1.5 1-0.7 1.2-0.3 1.6-0.2 27.5 4.1z" id="HRV1602" name="Brodsko-Posavska" data-id="HRV1602" data-name="Brodsko-Posavska">
 </path>
 <path d="M932.2 268.2l-1.7 1.2-2.6 2-5.8 1.2-1.5-0.1-0.9-0.4-0.7-1.6-1.4-1.5-1.9-1.1-0.5-0.5-0.7-1.1-0.5-1.7-1.6-1.8-2.2-1.7-1.5-0.6-2.1-0.2-2 0.6-0.6 0.5-1 1.1-1 0.7-1.6 0.6-4.7 0.8-1 0.3-0.4 0.5 0.1 1.2 1.7 2.2 0.5 1.1 0.2 1.7 0 1.4-0.2 1.4-1 1.1-1.5 1.1-12.3-0.6-3.2 2.1-4 1.8-1.7 1.1-1.1 0.9-0.4 1.7-0.4 5.7-0.3 1.1-0.3 0.8-1.2 0.9-0.7 1.1-0.2 1.7 0 2.4-0.3 1.5-0.5 0.6-0.7 0.3-6-0.2-1 0.4-0.7 0.9-0.4 0.9-0.8 1-7.3 1-1.8 0.9-1.2 1.1-0.4 2.1-0.5 6.9 0 1 0.6 0.8 1.7 0.8 5.6 0.8 1 0.3 0.9 0.8 0.4 0.9 0.2 1.5-0.1 2.9-0.7 2.9-0.8 1.7-0.8 0.8-0.9 0.3-0.7 0-1.3-0.7-8.5-4.3-20.8-7.4-6.2-1-4.5 0.6-2.1 0.5-1.2 0.9-0.8 1.2-1.3 1.2-2.2 0.9-5.3 0.3-3.8-0.5-11.3-4.2-1.5-0.9-0.8-1-6.6-5 4.5-7.4 0.2-2.4-0.8-1.8-0.5-1.9-0.8-2.1-0.5-0.6-1.5-0.9-1.4-0.6-0.2-1.3 0.8-1 1.1-0.8 1.2-0.5 1.2-0.3 0.9-0.5 0.9-1 2.1-4 0.8-1.1 5.8-5.7 1.9-1.4 1.9-0.7 4.3-0.1 3.5-0.8 1-0.3 9.5-7.6 1.8-1 1.2 0 4.3 1.5 2 0.2 7.4-3.4 2.7-0.7 3.7-0.1 1.8-0.3 0.4-0.9-1.2-1.6-0.5-1-0.4-1 0.1-1.4-0.2-0.9-0.5-0.7-3.3-2.2-1.7-1.8-0.7-0.4-1.2-0.1-0.7 0.5-0.5 1.6-0.1 2.7-0.5 1.5-0.9 0.5-1.1 0.2-7-0.4-2.4 0.8-0.7 0-1.3-0.9-1.9-2.7-0.9-0.8-0.5-0.2-7.2 0.2-1.6-0.6-0.7-0.8-1.5-2.5-0.6-0.7-0.7-0.4-1.3-0.4-0.5-0.4-0.2-4.4 0.2-1.4 0.3-0.3 2.3-0.9 1.1-0.6 1.2-1.6 0.2-1.2-1.2-2.3-1.6-2.5-1.3-0.7-3.2-0.9-1-0.6-2-2.1-0.9-0.6-1.1-0.5-11.5-2.4-0.4-2.9-0.7-0.8-8.3-4.5-1.9-1.4-1.1-1.2-0.5-3.2-0.6-1.9-1.4-2.8-1.2-1.5-1-1.1-1-0.4-4.8-1-0.7-0.6-0.8-1.4-0.7-2.2-2-3.6-1.6-4-1.2-4.7 11.7 0 17.7 4.9 2 0 1.8-0.7 2.9-2.1 1.5-0.5 13.9 0 3.2 1 5.1 4 3.9 0 2.9 3.2 2.9 1.1 2.9-1.2 2.8-1.5 2.7 0 2.8 3.7 1.1 0.3 1.2 0.1 1.1-0.1 1.3-0.3 3.2-2.6 5.9-7.3 2.7-1.8 3.8 1.8 4.4-1.7 7.3-6.2 2-2.5 3.7-7.3 2.5-2.8 0.3-0.1 0.4-1.5 0.5-2.9 0.7-1.2 3.8-3.8 3.2-0.7 8.3 2.9 6.7 3.5 2.1 0.3 1.7-1 0.8-1.7 0.7-2.2 1.7-2.6 2.2 2 1.8-0.1 2.9-2 3.4-1 1.8-1 1.7-2 2.5-0.1 1 3.7-2.9 1.9-1.4 1.3-1.5 1.8 3.5 2.8 1.8 1.9 0.5 1.9-1.3 1.6-2.1 0.5-5.4 0.5-0.4 6.6-0.4 1.4-0.6 1-0.3 1.1 0.6 1.5 2.6 2.6 1.2 2.1 4.9 6.1 0.8 3.7 0.7 7.3 1.4 3.1 2.3 1.9 2.9 1.6 2.5 2.2 1 3.5-1 2.1-4.6 6.4-1.9 1.4-2 2-0.7 4.6-0.2 4.5-0.6 2.1 1.4 1.2 3.4 5.4 1.6 1.6 3.2 0 2.1-1.7 1.7-2.1 3-1.5 1.4-1.1 1.5-0.4 1.6 1.1 1 1.9 0.6 1.3 0.7 1.1 1.7 1.4 2.8 1.4 2.5 0.5 2.2 1.2 1.8 3.5-4.9 4.8-11.4-1.7-2.2 6 1.1 4.5 1.6 1.6z" id="HRV1603" name="Osjecko-Baranjska" data-id="HRV1603" data-name="Osjecko-Baranjska">
 </path>
 <path d="M774.9 310.8l-27.5-4.1-1.6 0.2-1.2 0.3-1 0.7-1.5 1.5-0.7 1.3 0.1 0.6 0.5 1.1 0.6 0.9 0.2 0.9-0.5 0.6-1.5 0.3-1 1-1.4 2.8-1.8 2-1.8 1.3-3.6 1.4-1.3 0.2-4.1-0.4-1 0.2-0.5 0.5-0.2 3-0.6 2.3-0.6 0.8-0.6 0.4-1.9 0.6-2.3 0.2-2.9-0.4-2.8-0.9-0.5-0.6 0.4-1.1 1.8-3.2-0.4-1.3-2.3-3.8-0.2-1 0.3-2.2-0.2-1.5-0.6-1.5-0.8-0.6-1.5-0.7-3.6-1-2.5-0.1-5.1 0.5-2.8-0.4-4.7-2.1-4.5-2.9-3.1-2.5-6.2-7.6-2.8-3-14.8-10.5-6.2 0.1-8.5 3.8-2.4 0.3-2.1-0.6-1.8-1.2-2.8-0.8-2.3 0.4-2 1.3-7.4 6.1-6.4 1.5-13.8-8.7-1.8-1.6-0.3-0.8 0.1-1.9 0.8-1.6 0.8-1.3 0.3-0.9 0.2-1.3-0.3-1.4-0.5-0.6-0.7-0.1-0.8 0.2-2.3 1.1-2.1 0.4-2.8-4.6-1.3-1.4-5.7-2.8-6-5-0.6-1.9 0.2-2.3 0.1-2.3 0.5-3.6 2.3-7 2.6 1 0.5 1.9-0.1 1.1 0.1 1.2 1.1 1.2 8 3.8 1.6 0.4 1-0.1 1-0.5 1.1-0.3 2.3-0.2 2.2 0.8 2-0.4 4.4-1.4 2.5-0.4 3.9-0.2 2.2-0.5 1.6-0.9 0.8-1 1.1-1 0.8 0 0.9 0.7 1.4 1.5 2.4 2 1.7 1 1.8 0.2 17.2-2.8 2.4 0.2 5.8 1.7 2.6 0.1 1.9-0.3 1.4-0.7 0.9-1 0.8-1.4 2.1-7.1 0.2-1.3-0.2-1.1-0.4-0.7-1.4-2.2 7.1 1.4 1.1 0.8 1.1 0.8 1.1 1.1 0.7 0.5 1.4-0.2 0.9-0.9 0.6-1.6 0-1.7 0.6-0.6 11.7 6.7 1 0.3 0.7 0.4 1.9 2.2 1.3 1.2 5.9 3.9 9.6 3 1.5 0.8 1.6 0.6 7.5 0.9 1.6 0.7 1.1 0.9 0.6 1.1 0.8 2 0.9 0.6 1.4 0.3 1.7-0.1 5.7-1 2.8 0.3 1.9 0.7 0.9-0.2 1.1-0.6 5.8-4.4 1.2-1.2 1.2-1.7 1.5-2.8 2.5-6.5 16-19.6 4.3-1.5 11.5 2.4 1.1 0.5 0.9 0.6 2 2.1 1 0.6 3.2 0.9 1.3 0.7 1.6 2.5 1.2 2.3-0.2 1.2-1.2 1.6-1.1 0.6-2.3 0.9-0.3 0.3-0.2 1.4 0.2 4.4 0.5 0.4 1.3 0.4 0.7 0.4 0.6 0.7 1.5 2.5 0.7 0.8 1.6 0.6 7.2-0.2 0.5 0.2 0.9 0.8 1.9 2.7 1.3 0.9 0.7 0 2.4-0.8 7 0.4 1.1-0.2 0.9-0.5 0.5-1.5 0.1-2.7 0.5-1.6 0.7-0.5 1.2 0.1 0.7 0.4 1.7 1.8 3.3 2.2 0.5 0.7 0.2 0.9-0.1 1.4 0.4 1 0.5 1 1.2 1.6-0.4 0.9-1.8 0.3-3.7 0.1-2.7 0.7-7.4 3.4-2-0.2-4.3-1.5-1.2 0-1.8 1-9.5 7.6-1 0.3-3.5 0.8-4.3 0.1-1.9 0.7-1.9 1.4-5.8 5.7-0.8 1.1-2.1 4-0.9 1-0.9 0.5-1.2 0.3-1.2 0.5-1.1 0.8-0.8 1 0.2 1.3 1.4 0.6 1.5 0.9 0.5 0.6 0.8 2.1 0.5 1.9 0.8 1.8-0.2 2.4-4.5 7.4z" id="HRV1604" name="Brodsko-Posavska" data-id="HRV1604" data-name="Brodsko-Posavska">
 </path>
 <path d="M932.2 268.2l3.2 3.5 1 2.8-1.5 2.5-8.9 4.1 2.2 3.8 2.5 3.2 2.9 2.1 3.4 0.8 7 0 1.6 0.9 0.6 2.3 0.1 2.8 0.5 2.2 4.4 5.2 6.3 3.2 33.9 8.8 2.6 4.5 3.2 1.5 1.8 4.8-0.4 5.6-2.5 2.5-14.6 0.7-0.8-0.6-1.4-2.1-0.8-0.4-1.2 0.5-1.1 2.1-0.9 0.7-7 0.9-3.7-0.2-3.2-1.3-1.8-1.8-3.2-4.6-2-1.1-3.7 0.9 1.1 3.5 2.2 4.5-0.6 3.9-3.7 0.8-9.5-1-2.5 2.3 0.2 2.1 1.3 1.9 1.7 1.7 1.3 1.5 1.3 3 0.5 2.3 0.6 5.8 1.4 7 0.2 2.5-0.4 2.3-0.8 2.9-0.5 2.9 0.3 2.4 1.9 1.7 3.4-1.3 1.6 1.7 0.6 3.6-1.2 1.8-1.9 0.8-1.6 1-2.7 4.5-1.5 2-2 1.3-2.5-0.3-3.4-3.8-2.3-0.7-4.6 2.6 0.5 4.8 3.7 6.9-1.9 0.6-19.5 0.5-5.2-1.8-6.9-4.5-5.8-6.3-1.8-6.8 1.2-2.3 3.7-2.8 0.5-2.4-0.3-0.8-1.2-1.9-0.2-2.5-1-2.4-0.7-0.7-1.1-0.4-4.7-0.5-2-0.9-2.1-2.4-6.3-12.9-0.8-1.1-1-0.7-1.1 0.2-0.9 0.9-0.9 2.8-0.5 1.2-1.6 0.9-1.3-0.7-1.2-1.6-1-1.9-1.1-3.1-0.8-1.1-1.3-0.6-1.1 0.2-2.3 1.4-1.2 0.5-1.3-0.1-2.8-0.6-1.3-0.1-2.5 1 0 0.5-0.2-0.1-3.7-6-1.3-3.6-0.3-2.5 0-1.9 0.2-2 0.3-1.5 0.5-1.3 0.7-1.4 4.1-4.9 1.3 0.7 0.7 0 0.9-0.3 0.8-0.8 0.8-1.7 0.7-2.9 0.1-2.9-0.2-1.5-0.4-0.9-0.9-0.8-1-0.3-5.6-0.8-1.7-0.8-0.6-0.8 0-1 0.5-6.9 0.4-2.1 1.2-1.1 1.8-0.9 7.3-1 0.8-1 0.4-0.9 0.7-0.9 1-0.4 6 0.2 0.7-0.3 0.5-0.6 0.3-1.5 0-2.4 0.2-1.7 0.7-1.1 1.2-0.9 0.3-0.8 0.3-1.1 0.4-5.7 0.4-1.7 1.1-0.9 1.7-1.1 4-1.8 3.2-2.1 12.3 0.6 1.5-1.1 1-1.1 0.2-1.4 0-1.4-0.2-1.7-0.5-1.1-1.7-2.2-0.1-1.2 0.4-0.5 1-0.3 4.7-0.8 1.6-0.6 1-0.7 1-1.1 0.6-0.5 2-0.6 2.1 0.2 1.5 0.6 2.2 1.7 1.6 1.8 0.5 1.7 0.7 1.1 0.5 0.5 1.9 1.1 1.4 1.5 0.7 1.6 0.9 0.4 1.5 0.1 5.8-1.2 2.6-2 1.7-1.2z" id="HRV1605" name="Vukovarsko-Srijemska" data-id="HRV1605" data-name="Vukovarsko-Srijemska">
 </path>
 <path d="M745.3 185.2l1.2 4.7 1.6 4 2 3.6 0.7 2.2 0.8 1.4 0.7 0.6 4.8 1 1 0.4 1 1.1 1.2 1.5 1.4 2.8 0.6 1.9 0.5 3.2 1.1 1.2 1.9 1.4 8.3 4.5 0.7 0.8 0.4 2.9-4.3 1.5-16 19.6-2.5 6.5-1.5 2.8-1.2 1.7-1.2 1.2-5.8 4.4-1.1 0.6-0.9 0.2-1.9-0.7-2.8-0.3-5.7 1-1.7 0.1-1.4-0.3-0.9-0.6-0.8-2-0.6-1.1-1.1-0.9-1.6-0.7-7.5-0.9-1.6-0.6-1.5-0.8-9.6-3-5.9-3.9-1.3-1.2-1.9-2.2-0.7-0.4-1-0.3-11.7-6.7-0.6 0.6 0 1.7-0.6 1.6-0.9 0.9-1.4 0.2-0.7-0.5-1.1-1.1-1.1-0.8-1.1-0.8-7.1-1.4-1-4.3 11.4-20 0.1-3.2-0.5-1.1-6.9-5-1.3-0.7-1.5-0.5-1-0.1-0.6 0.2-1.1 1.1-0.9 0.6-1.5 1.5-0.8 0.5-2.1 0.1-3.2-2.7-1.1-1.9 0.3-0.8 0.8-1.8 0.2-1.1-0.2-1.4-0.6-1.9-0.8-0.8-0.8-0.3-5 1.1-1.4-1.4-1.6-2-2.6-1.6-1.2-1.5-0.7-1.3-0.1-0.8 0.1-2.9-0.3-1.3-23.1-16.2-1.2-4.5-0.2-1.2 0.1-0.8 0.8-1.7 0-0.6-0.8-1.3 0.4-1 1.1-1.4 2.7-2.9 5-7.7 0.9-1.1 0.9-0.7 3.2-2 1.7-0.5 1.6-0.1 8.9 1.3 1.6-0.1 1.4-0.4 1.6 1.5 1.8 0.4 1.8-3 1 4.1-0.2 2.2 0.5 0.7 3.4-0.2 4-1.6 1.8 0.8 1.1 3.9 0.9-0.7 1.1-1.5 1.4-0.9 14.4 0.6 7.2 1.5 6.2 2.8 8 8.5 1.3 2.3 0.2 2 0.8 3.6 0.2 2.8 0.6 2.9 1.4 0.9 3.8 0.2 20.6 6.4 4.9 3.6 3.3 5.7 0 1 2.1-0.4 0.9-1.7 0.8-1.9 1.6-0.9 2.8 0z" id="HRV1606" name="Viroviticko-Podravska" data-id="HRV1606" data-name="Viroviticko-Podravska">
 </path>
 <path d="M615.9 166.3l23.1 16.2 0.3 1.3-0.1 2.9 0.1 0.8 0.7 1.3 1.2 1.5 2.6 1.6 1.6 2 1.4 1.4 5-1.1 0.8 0.3 0.8 0.8 0.6 1.9 0.2 1.4-0.2 1.1-0.8 1.8-0.3 0.8 1.1 1.9 3.2 2.7 2.1-0.1 0.8-0.5 1.5-1.5 0.9-0.6 1.1-1.1 0.6-0.2 1 0.1 1.5 0.5 1.3 0.7 6.9 5 0.5 1.1-0.1 3.2-11.4 20 1 4.3 1.4 2.2 0.4 0.7 0.2 1.1-0.2 1.3-2.1 7.1-0.8 1.4-0.9 1-1.4 0.7-1.9 0.3-2.6-0.1-5.8-1.7-2.4-0.2-17.2 2.8-1.8-0.2-1.7-1-2.4-2-1.4-1.5-0.9-0.7-0.8 0-1.1 1-0.8 1-1.6 0.9-2.2 0.5-3.9 0.2-2.5 0.4-4.4 1.4-2 0.4-2.2-0.8-2.3 0.2-1.1 0.3-1 0.5-1 0.1-1.6-0.4-8-3.8-1.1-1.2-0.1-1.2 0.1-1.1-0.5-1.9-2.6-1-2.3 7-0.5 3.6-0.1 2.3-0.2 2.3 0.6 1.9-2.9 1.8-0.9 0.2-0.5-0.4-0.9-1.7-0.6-0.9-1.2-0.6-3.4 0.2-1.5-0.2-1.3-0.5-1.3-1-1.3-1.3-1-2.3-0.1-1 0.3-0.6 1-0.1 1 0.2 1.4 0 3-3.1-0.3-0.9-0.8-1.4-2.5-3.3-1.6-2.7-1-0.8-1.5-0.6-1-0.9-1.4-2.3-0.7-1.5-2.4-6.4-0.7-1-1-0.7-4.1-0.6-1.6-0.5-1.2-0.8-1.8-2.4-0.9-0.8-11.5-5.4-3.5-0.8-3.1 0-0.9-0.5-1.5-1.5-2.6-3.4-3.8-2.9-2.2-0.9-1.8-0.5-1.5-0.8-1.9-1.5-1.4-0.5-1.3-0.2-0.6-0.5-0.1-1.1 0.6-3 0.5-1.8 0.7-1.4 0-1.6-2.5-2.6 2.7-1.8 1.8-3.2 1.4-0.7 4.9-0.1 5.5 2.2 1-0.5 0.5-1.2-0.6-3.7-0.1-2 0.4-1.7 3.7-6 1.1-0.7 0.9 0.1 0.5 0.9 0 1.2-0.4 1.2-0.1 1.1 0.6 0.9 1.2 0.6 2.2 0 1.5-0.5 1.3-0.9 2.4-3.2 0.9-3.5 0.3-3.1 0.1-1.5-0.7-7.7-0.1-2.3 0.2-2.5 0.2-10.2 0.6-3.7 2.3-4.9 1.4-4.2 3.7-6.6 2.9-1.8 3-1.3 1.4-0.1 1 0.8 0.6 1.2 1.2 1.1 0.7-0.1 1.1-1 1.6-1.4 1-1.4 0.6-2.6 0.7-1.4 0.8-0.6 0.9-0.1 2.4 0.5 1.2 0.5 0.6 0.6 0.4 0.8 0.6 2.6 0.7 1.8 0.9 1 1 0.8 2.8 1.6 0.9 0.7 0.5 0.9-0.1 1.2-1.8 4.7 1.1 2 2.4 1.7 6.9 3.6 3 2.1 1.8 2.2 0 2-0.3 2.4-0.1 2 0.7 1.8 0.8 0.5 0.9 0 2.8-2.1 1.1-0.4 1.3-0.1 2.3 0.3 1.3 0.9 1.4 1.6 2.3 3.6 1 1.2 0.9 0.9 2.4 1.8 5.9 5.7z" id="HRV1607" name="Bjelovarska-Bilogorska" data-id="HRV1607" data-name="Bjelovarska-Bilogorska">
 </path>
 <path d="M644 139.6l-1.4 0.4-1.6 0.1-8.9-1.3-1.6 0.1-1.7 0.5-3.2 2-0.9 0.7-0.9 1.1-5 7.7-2.7 2.9-1.1 1.4-0.4 1 0.8 1.3 0 0.6-0.8 1.7-0.1 0.8 0.2 1.2 1.2 4.5-5.9-5.7-2.4-1.8-0.9-0.9-1-1.2-2.3-3.6-1.4-1.6-1.3-0.9-2.3-0.3-1.3 0.1-1.1 0.4-2.8 2.1-0.9 0-0.8-0.5-0.7-1.8 0.1-2 0.3-2.4 0-2-1.8-2.2-3-2.1-6.9-3.6-2.4-1.7-1.1-2 1.8-4.7 0.1-1.2-0.5-0.9-0.9-0.7-2.8-1.6-1-0.8-0.9-1-0.7-1.8-0.6-2.6-0.4-0.8-0.6-0.6-1.2-0.5-2.4-0.5-0.9 0.1-0.8 0.6-0.7 1.4-0.6 2.6-1 1.4-1.6 1.4-1.1 1-0.7 0.1-1.2-1.1-0.6-1.2-1-0.8-1.4 0.1-3 1.3-2.9 1.8-3.7 6.6-1.4 4.2-2.3 4.9-0.6 3.7-0.2 10.2-2.4-1.2-5.1 2.1-1.2 0.2-1.1-0.4-0.7-0.6-1.4-0.9-1 0-1.4 0.5-1.1-0.4-0.3-0.8-0.7-0.9-1-1-6.5-3.8-1-0.8-4.3-4.5-1-0.5-0.6 0-0.9 1-0.9 1.7-1.8 1.4-2.3 0.6-1-0.2-0.4-0.4 0.8-3.3 0-0.5-0.7-1.1-1.3-1.6-2.8-4.1-1.8-0.9-12.4-4.1-1.1-4.3 0.4-8.8-0.4-2.8-1.3-4.9 0.2-1.8 0.6-1.2 2.5-0.8 0.6-0.1 2.5 0.3 1.6-0.5 5.9-4.4 0.6-0.2 0.7 0.5 0.7 1.7 1.2 0.4 4.5-1 2-0.9 1-0.9 0.6-1.1 0.5-1.8 0.5-0.8 16.2-10.1 6.1-2.1 2.8-0.3 0.9 0.3 0.5 0.7 0.6 1.6 0.6 0.4 2.1-0.7 3.2-1.6 6.2-4.2 2.8-2.6 1.5-2.2 1-3 1.2-2.3 0.4-1.4 0.2-1.3-0.3-1.9-0.7-0.8-1.6-1.1-2.3-2.5 5.7 0.8 2.1 1.1 1.5 2.3 1.4 1.8 1.1-0.8 5-11.6 0.5-1.8 1.4-4.6 0.6-1.7 1 1.4 1.6 4-0.5 3.8 2.9 8.6 1.2 1.4 1.2 1.1 6.3 7.4 4.2 7.8 1.6 2.2 9 7.3 1.4 1.9 0.8 2.6 2 2.1 8.1 6.2 2.6 1.2 13.7 0.5 1.9 1.1 6.8 8.9 0.9 2.3 2.1 7.8 0.4 2.4 1.2 4.1 2.6 1 2.8 0.4 1.5 2.1-1.3 0.3-2.1 0.9-1.1 0.3 0 1.7 2.5 0.8 0.3 0.3z" id="HRV1608" name="Koprivničko-Križevačka" data-id="HRV1608" data-name="Koprivničko-Križevačka">
 </path>
 <path d="M568.4 45.7l-0.6 1.7-1.4 4.6-0.5 1.8-5 11.6-1.1 0.8-1.4-1.8-1.5-2.3-2.1-1.1-5.7-0.8-4.2-1.4-19.4-1.1-1.8-0.5-1.6 0.2-11.7 3.8-5.5-0.1-20.7-4.4-0.4-0.2-1.2-1.4-0.8-1.9-0.4-1.2-0.3-2.4-0.3-0.8-1.8-2.4-0.9-0.9-1.1-0.8-3.5-0.3-3-2.1-0.2-2.1-0.8-1.2-2.9-1.9-1-1.3-0.5-2 0.3-4-0.1-1.9-2-6.8-0.6-3.3 0.2-3.6 4.9-5.6 5.3-2.1 2.6-1.6 3.2-1.1 2.4-2.8 1.3 1.8 1.1-1.8 1.9 1.6 2.2 0.3 2.1-0.2 1.9 0.1 1.5 1 2.9 3 1.4 1.1 1.5 0.1 3.6-0.4 1.8 0.3 1.7 0.9 5 4.1 7.3 4.6 2.3 2.2 1 0 0.7-2.1 1.1-0.9 1.3 0.2 1.5 1 4.5 0.9 3.7 2.5 3 3.8 2.8 4.7 3.2 4.2 5.1 3.2 2.1 4.3 1.1 0 1.3-3.5 1.2 0.8 4.5 1 1.5 0.9 1.5 1.7 1.1 1 0.8-1.9 0.9 0 2.2 2.2 1.5 2z" id="HRV1609" name="Medimurska" data-id="HRV1609" data-name="Medimurska">
 </path>
 <path d="M470.5 42.3l3 2.1 3.5 0.3 1.1 0.8 0.9 0.9 1.8 2.4 0.3 0.8 0.3 2.4 0.4 1.2 0.8 1.9 1.2 1.4 0.4 0.2 20.7 4.4 5.5 0.1 11.7-3.8 1.6-0.2 1.8 0.5 19.4 1.1 4.2 1.4 2.3 2.5 1.6 1.1 0.7 0.8 0.3 1.9-0.2 1.3-0.4 1.4-1.2 2.3-1 3-1.5 2.2-2.8 2.6-6.2 4.2-3.2 1.6-2.1 0.7-0.6-0.4-0.6-1.6-0.5-0.7-0.9-0.3-2.8 0.3-6.1 2.1-16.2 10.1-0.5 0.8-0.5 1.8-0.6 1.1-1 0.9-2 0.9-4.5 1-1.2-0.4-0.7-1.7-0.7-0.5-0.6 0.2-5.9 4.4-1.6 0.5-2.5-0.3-0.6 0.1-2.5 0.8-0.6 1.2-0.2 1.8 1.3 4.9 0.4 2.8-0.4 8.8 1.1 4.3-5.2 1.1-2.8 1.6-2 0.3-1.1-0.1-1.4-1.4-1.1-1.9-0.8-3.1-0.5-1-2.6-4.3-1.2-12.6 0.3-2 0.1-2.1 0.7-3.3-0.1-2.2-1.3-2.4-0.8-1.9 0-1.3 0.9-3.1-0.3-0.8-0.6-0.4-2.2 0.2-1.2-0.3-1-0.7-1.5-2.9-1.1-1.1-1 0-1.2 0.6-0.8 1.1-1.4 2.2-0.8 1-1 0.7-1 0.4-3.1-0.1-2.4-1-1.6-0.2-1.2 0.1-2.4 0.6-2.6 0.2-2.5-0.2-2.3 0.5-1.9 0.8-1.5 0.1-1.9-0.2-4.8-1.8-1.4-0.2-2.3 0.1-1.6-0.2-0.8-0.4-0.4-0.9-0.7-2.9-0.8-1-1-0.7-7.3-2.5-1.2-1.1-0.7-1.4 0-1.9-0.3-2.1-0.4-1.1 0.7 0 11-6.1 5.6-1 2.8-0.8 3.5-1.8 3.4-2.3 2.2-2.5 1.3-3.4 0-3.1-0.4-3.6 0.1-4.3 6.1 1.3 2-0.4 1.6-1.4 1.3-1.8 1.4-1.5 2.1-0.4 1.6 0.8 4.1 3.8 2.4 1.5 2.8 0.6 1.5 0 6-1.5 3.8 0 0.8-0.7 0-0.6z" id="HRV1610" name="Varaždinska" data-id="HRV1610" data-name="Varaždinska">
 </path>
 <circle cx="240.3" cy="371.7" id="0">
 </circle>
 <circle cx="313.3" cy="308" id="1">
 </circle>
 <circle cx="649.3" cy="859" id="2">
 </circle>
</svg>