<?xml version="1.0"?>
<!--
************* Copyright (c) 2017 Pareto Softare, LLC DBA Simplemaps.com *******************		
************* Free for Commercial Use, full terms at  http://simplemaps.com/resources/svg-license ************
************* Attribution is appreciated! http://simplemaps.com ***************************
-->
<svg baseprofile="tiny" fill="#7c7c7c" height="767" stroke="#ffffff" stroke-linecap="round" stroke-linejoin="round" stroke-width="2" version="1.2" viewbox="0 0 1000 767" width="1000" xmlns="http://www.w3.org/2000/svg">
 <path d="M272.2 553.7l-8 4.8-11.2 0-8.7-5-0.7-9.9 8.3-4 11.4 0.9 8.8 5 0.1 8.2z m-8.6 21.2l-3 6.1-6 7 1.7 5.1 5.7 2.7-7.8 8.9-6.3 14.2-22.4 6.2-16.1 0.3-4.9 7.2 0.6 8.8-16.6-1.4-16.7-4.7-14.6-4.9-14.8-3.7-35.5 2.8-35.1 7.3-19.2 4-19.4 2-9.7-1.9-8.4 0.9-1.3 0.7-0.6-1.5-0.8-7.2-2.3-5.1-9.1-11.5 12.2-17.9-2.6-5 6.4-4.6 4.1-17.1 5.2-3.8 1-1.9-0.6-4.3-2.8-7.6-0.9-3.9 2.7-3.4 11.9-7 15.6-6.3 6.6-1.1 8.1 1.9 3.5-0.1 3.3-5.5 3.9-1.2 4.1-0.2 19.6 1.1 14 3 45.8 20.5 20.2 0.9 3.4 3.9 0.8 2.8 6.6-1.7 10.2 5.4 4.5 1.6 15.8 0.6 3.7 0.7 4.1 1.8 7.5 6.5 2.3 1.3 3.6 0.3 4.7-3 3.5 0.5 4.4 2.2 3.1 0 3.1-1.7z" id="HTI1359" name="Grand'Anse" data-id="HTI1359" data-name="Grand'Anse">
 </path>
 <path d="M502.9 606.5l2 4.1 0.1 4.4-5.4 9.3 0.8 9.9 8.7 0.3 6.1 6.2 2.6 8.9 5.5 7-1.4 10.9-4.5 10.4 0 8.1 0.7 8.1-8.9-12.2-2.8-16-11.2-10.4-13.3-10.9-8.5-2.3-8 2.4-18-2.2-18.5 0.4-18.3-2.5-10.9 4.4-12.6 3.3-11-0.4-11.1 1.1-22.3 3.6-17.8-4.5 3.5-8 3.2-6.3-7.8-4-5.1-6.3-6.1-5.2-9.6-0.9-11.2 1.6-8 6.7-5.9-2-7-3.5-11.6 0.5-11.4-1.6 6.3-14.2 7.8-8.9-5.7-2.7-1.7-5.1 6-7 3-6.1 5.4-4.2 4.4-5.5 2.4-1.2 8.4 0 15.9-4.6 4.5-0.7 12.5 3.2 0.2 6.3-7.1 4.8-9.3-1.4 0 2.3-7.5-2.6-6.8-0.9-6.7 0.8-7.7 2.7 8.2 4.7 5.7 1.4 0.3 5 1.5 2.8 6.2 2.8 11.1-1.6 5.5 2.8 12.3-7.5 15-1.9 55.4 4.3 7.1 1.6 13.9 7.1 7.8 1.6 28.1-1 13.7 1.2 12.3 4.6 6.5 3.8 5.3 2 5.9 0.4 8.9-1.5z" id="HTI1360" name="Nippes" data-id="HTI1360" data-name="Nippes">
 </path>
 <path d="M674.7 80.8l-2.8 2-3.5 5.3-2.2 4.5-2.9 2.2-8.5 7.8-3.7-0.5-3.5-2.2-5.6-1.5-4.9 1.4-1.1 4.4 0.1 2.3-10.7-1.5-8.6 6.2-5.8 3.4-7.4 1.9-21.7 18.7-26.4 4.7-14.4-2.7-14.4-1.2-14.1-3.5-13.5 1.3-16.5 17.5-2.8 20.3 0.4 1-2.3 0.8-3.9 3.6-3.7 0.9-5.2-1.3-7.8-3.3-7.5-4.2-4.8-4.1-7 6.9-15.1 2-33.3-1.7-6.7-1.8-3.8-0.4-2.5-1.6-6.2-7-3.4-1.5-4.9-3.3-1.9-7.4-0.7-7.8-1-4.4 12.5-20.2 1.9-4.2 3.4-0.1 18.3-8.5 0-2.8-19.3 0 5.6-4.3 6.7-0.7 7.1 0.6 7.1-0.5 42.7-19.7 12.4-9.1 7-9.8 4.2 5.1 4 1.4 10-1.2 5.1 0.8 9.2 3.4 4.9 0.7 6.5-0.4 7-1.9 5.2-0.7 5.3 0.5 4.9 1.8 3.7 3.5 2.5-5.8 6.6-3.6 8.1-0.8 6.7 2.5 9.4-3.8 11.1-3 11.7-1.4 10.9 0.6 35.7 8.4 8.8 5.5 7.3 3.5 20.8 6.5 1.2 1.5z m-69.1-71.4l33.2 13 14.1 9-4 8.7-5.7-2.4-29.6-4.1-13.8-5.5-17-3.8-5.8-2.7-4 0.8-4.2 1.6-3.8 0.6-7.3-1.5-8.6-2.8-7.8-4-5-4.6 2.5-0.5 2.1-1.8 16.2-5.5 17.7-2.4 10.1-0.5 6.8 1 6 2.6 7.9 4.8z" id="HTI1361" name="Nord-Ouest" data-id="HTI1361" data-name="Nord-Ouest">
 </path>
 <path d="M279.4 736.2l2.2 2.3 4-2.8 1.9 1 1.4 2.5 2.5 1.6 10.8 0 5.9 0.4 7 1.4 5 3.1 0 5.2-4.4 2.8-7.1 0.7-13.7-0.8-6.1-1.3-5.3-3.3-8.8-8.2 1.1-3.6 1.6-1.5 2 0.5z m238.7-42.1l1.9 12.9-0.4 1.8-28.9-3.2-9.3 0.4-2.9-0.4-10.2-6.5-3.1-1.1-46.5-7.5-20.9 2.2-3.2-0.9 1.9-4.8 4.6-1.9 12.6 0.1 0-2.3-23.3-2.5-28.4 0.2-8.3 2.3-11.2 6.7-4.3 0.9-2.8-1.5-3-6.7-2.6-2.1-4.6 2.8-2.6 7.2-2.6 5.4-4.7-2.6-2.2 0-4.1 2.7-3.5-1.9-1.6-4.8 1.8-6.1-5 1.5-4.3 9.7-5 3.9 0.2-4.9 1.2-4.5 3.3-8.4-2.7 2.2-4 5.2-3.1 2-5.8-1.6-1.3 0.6 0.2 4.4-15.3 12.3-25 11.6-6.4 6.3-6.1 10.1 14.7 15.8 2.3 5.7 1.7 7.2-0.8 2.9-4.6 1.1-23.2-0.1-3.4-0.6-3.4-1.6-2.6-2.6-1.3-5.4-22.4-32.3-5-2.7-1.3-1.4-1.4-3.9-6.5-6.1-33.9-25-6.1-3-10.7-1.8-4.5-1.9-3.8-2.7-1.6-3.5-0.7-4-2-1.2-6.6-1.1-9.1-3.6-2.9-1.7-2.4 2.7-6.6-2.3-7 2.9-7.4 4.6-7.7 2.4-6.4-1.3-8-3.3-6.8-3.8-2.9-3-3-4.2-13.2-6.7-2.3-5.3 1.3-0.7 8.4-0.9 9.7 1.9 19.4-2 19.2-4 35.1-7.3 35.5-2.8 14.8 3.7 14.6 4.9 16.7 4.7 16.6 1.4-0.6-8.8 4.9-7.2 16.1-0.3 22.4-6.2 11.4 1.6 11.6-0.5 7 3.5 5.9 2 8-6.7 11.2-1.6 9.6 0.9 6.1 5.2 5.1 6.3 7.8 4-3.2 6.3-3.5 8 17.8 4.5 22.3-3.6 11.1-1.1 11 0.4 12.6-3.3 10.9-4.4 18.3 2.5 18.5-0.4 18 2.2 8-2.4 8.5 2.3 13.3 10.9 11.2 10.4 2.8 16 8.9 12.2z" id="HTI1362" name="Sud" data-id="HTI1362" data-name="Sud">
 </path>
 <path d="M636.1 106.5l4.1 9 7.2 5.7 1 8.3 7.6-1.1 7.3 5.5-3.3 12.5 4.4 6.4 8.4 3.7 4.8 14.8 5.8 15.1 9.7 9.6 10.6 8.6 12.5 5.2 10.5-3.4 0.1-9.6 6.9 0.2 6.5-6.2 6-0.5 11.9 6.1 1.6 23.6 13.6 12.6 14 6.9 5.9 13.3-1.8 10.2 1.7 10.6 5.8 10.6 3.7 10-16.1 22.6-2 26.9 9.4 9.4-3.2 7.9 0.7 9 2.4 11-4.8 18.8 3.1 28.4-4.8 12-1.3 11.4-8.3 4.7-16.6-1.9-16.4 1-8.2-8.5-9.4-6.9-18-7.6-3.5-5.7-3.8-5.3-8.6 0.4-8.3-1-26.4-3.8-22.3-0.8-5.9 4.3-4.9 6.3-0.9-0.5-36.8-39.8-1.6-9.5 14.8-6 13.4-0.9 7.4-2.5 3.3-5.4-2.1-7-5.1-3.6-6.3-2.5-5.9-3.4-3.7-4.7-8.4-15-2.2-5.9 2.4-1.7 0.2-3.3 3.4-3.3 3.9-8.5 2.3-3.4 3.8-1.9 5.6-1.1 5.6-0.3 4.1 0.7-5-10-3.6-2-7-0.7-4.2-3.1-1.4-7.3 0.6-7.7 1.5-4.7 5.1 4.4 3.4 1 3.4-0.5 3.9-2.8 0.2-2.7-1.2-3.1-0.7-9.9 5 0.9 4.2 3.3 3.4 1.7 4.4 0.1-6.8-13.5-3.5-2-18.1-1.1-4.6-3.4-3.1-4.9-4.6-5.7-6.6-4.8-22.3-10.2-18.6-11.6-6.6-1.6-5.8-2.7-12.3-10.6-2.3-0.5-3.5 1.5-21.7-8-3.6-0.4-6.9-1.7-3.5-0.4-0.4-1 2.8-20.3 16.5-17.5 13.5-1.3 14.1 3.5 14.4 1.2 14.4 2.7 26.4-4.7 21.7-18.7 7.4-1.9 5.8-3.4 8.6-6.2 10.7 1.5z" id="HTI1384" name="L'Artibonite" data-id="HTI1384" data-name="L'Artibonite">
 </path>
 <path d="M960.3 302.4l11.6 11.9 27.1 13.2-1.6 22.1-1.8 6.4-4.4 6.5-11.9 8.6-5.3 4.8-10.4 14.7-15.2 16.9-4.6 2.9-18 4.8-6 4.1 1 6.4 6.3-0.9 8.7-3 8.2 0.2 3.2 2.6 4.9 10.5 3.2 3.8 8.1 7.4 2.6 3.3 1.9 6.9 0.4 15 2.8 14.5-0.5 7-1.8 6.8-2.4 6.3-4.2 6.9-4.9 4-11.8 7.3-2.4-3-13.3-7.9-14.6-3.9-23.7-8.4-28.2 5.2-27.7 9-26.7-9.2-21.1-20.9-10.5-7.2-11.9-3.1-11.5-7.2-9.2-12.3 16.4-1 16.6 1.9 8.3-4.7 1.3-11.4 4.8-12-3.1-28.4 4.8-18.8-2.4-11-0.7-9 3.2-7.9-9.4-9.4 2-26.9 16.1-22.6 10.3 3.6 7.7 7.7 3.2 4.9 6.8-0.7 24.2-15.2 25.2-12.9 12.5 7.4 13 6 6.5 5.5 9.5 1.3 8 1.6 6.4-0.5 12.4 1.1 12-1.6z" id="HTI1385" name="Centre" data-id="HTI1385" data-name="Centre">
 </path>
 <path d="M960.3 302.4l-12 1.6-12.4-1.1-6.4 0.5-8-1.6-9.5-1.3-6.5-5.5-13-6-12.5-7.4-5.8-19.2-17.7-17.9-12.9-3.7 3.4-5.5 1.1-9.8-6-9.7-3.5-11-4.7-8.8-1.1-8.7 1.4-4.8-0.3-5.1 4.3-2.8 5.6-1.2 7.5-11 1.5-14.3 3-6.4 2.4 1.2 4.7 3.5 3.2 0.8 2.7-1.3 4.1-5.5 4-1.1 6.6-5.1 10 0.1 17.1 5 9.4 1.3 2.5 1.9-2.1 4.7-3.1 2-4.1 0.6-9.8-0.1 3.7 6.8 6.1 0.7 6.5-1.8 5.2-0.9 6.3 5.4 4 2.4 1.7-1.1 1.9-5.1-0.8-2.7-7.7-2-2.5-2.3-1.3-3.3 0.6-3.7 2.7-2.3 4 0.2 9.1 2.1 14.7 0.4 3.1 10.2 1.2 6.6-0.9 15.6 1.6 8.5 9.8 23.3 4.2 29-0.3 16.6-4 8.5-1.9 2.2-4.4 11.3-3.4 2.6-9.4 5.4-2.3 2.4 1.7 7.4 6.3 8.8 1.4 1.5z" id="HTI1386" name="Nord-Est" data-id="HTI1386" data-name="Nord-Est">
 </path>
 <path d="M855.8 141.7l-3 6.4-1.5 14.3-7.5 11-5.6 1.2-4.3 2.8 0.3 5.1-1.4 4.8 1.1 8.7 4.7 8.8 3.5 11 6 9.7-1.1 9.8-3.4 5.5 12.9 3.7 17.7 17.9 5.8 19.2-25.2 12.9-24.2 15.2-6.8 0.7-3.2-4.9-7.7-7.7-10.3-3.6-3.7-10-5.8-10.6-1.7-10.6 1.8-10.2-5.9-13.3-14-6.9-13.6-12.6-1.6-23.6-11.9-6.1-6 0.5-6.5 6.2-6.9-0.2-0.1 9.6-10.5 3.4-12.5-5.2-10.6-8.6-9.7-9.6-5.8-15.1-4.8-14.8-8.4-3.7-4.4-6.4 3.3-12.5-7.3-5.5-7.6 1.1-1-8.3-7.2-5.7-4.1-9-0.1-2.3 1.1-4.4 4.9-1.4 5.6 1.5 3.5 2.2 3.7 0.5 8.5-7.8 2.9-2.2 2.2-4.5 3.5-5.3 2.8-2 7.3 9.1 9.4 6.4 9.7 3.5 5.4-3.5 6.4 3.4 10.6 4.2 9.9 2.5 4.4-1.3 2.2 5.9 16.9 15.8 0 2.4-7.1-2.4 4.4 10.9 1.5 1.6 6.2 1.4 1.3-0.5-1.3-3.2 4.6-5.3-4.6 0 2.2-4.9-2.2-5 2.2 0 5.2 2.8 7.2 0.7 6.3-2.1 2.8-5.5 3.6-3.7 6.9-0.1 4.7 4-3 8.9 5.9 3.6 5.8 0.6 13.8-2.4 3.2 0.6 2.4 1.6 5 5.1 3.4 1.1 12.1 0 2.8 0.8 3.6 3.9z" id="HTI1387" name="Nord" data-id="HTI1387" data-name="Nord">
 </path>
 <path d="M585.3 516.9l-3.7 1.6-2.5-2.3-3.1-6.6-3-2.7-2.7-0.7-7.9-0.5-31.2-7-10.6-0.8-11.2-2.8-30.9-19.9-31.2-8.6-8.4-5.5-7-10-6.6-4.6-4.4-4.9-2.3-3.8-1.1-4.1 1.2-4 4.4-4.9 6.1-4.2 7.1-2.8 7.6-1 8.2 0.9 48.7 20.5 24 7.9 26.6 13.6 25 10.5 10.1 12.5 2.7 8 1.2 9.6-1 9.3-4.1 7.3z m159.4-61.5l9.2 12.3 11.5 7.2 11.9 3.1 10.5 7.2 21.1 20.9 26.7 9.2 27.7-9 28.2-5.2 23.7 8.4 14.6 3.9 13.3 7.9 2.4 3-5.6 6-7.2 12.3-4.6 4.9-13.6 4.7-26.3-4.9-13 2.7-4.7 3.6-0.8-3.8-0.4-10.5-1.4-3.6-2.9-2.5-10.2 9.2-4.5 11.2 1.6 12.5 8.1 13 5.5 3.3 7.3 2.5 6.4 3.7 2.7 7.1 3.1 3.2 7.2-0.2 8-2 4.7-2 1.3 2 0.9 5.6-1.9 2-2.6 1.5-1.3 4.1 2.1 6.8 5.2 2.9 13.7 3.4 2.9 2.7 5.4 7.9 2.8 3.2 13.2 8.9 18.8 7.1 5 3.3 4 4-4.1 7.1-31 5.4-18.1-11.4-23.6-1.8-29.4 0.4-30.3-6.9-30.4-6.3-29.9 1.9-29-1.7-4.8-5.5-4.2-5.8-10.2 0.7-15.8-7.9-12.7-0.8-11.6 5.4-8.6 10.5-3.5 2.7-4.3 0.1-8.6 3.7-12.7 1.6-4 3.4-6.7 0.9-6.8 0.2-7.9 7.2-6.1-0.9-5.5-3-0.9 5.3-2 4.6-4.2 3.4-2.8 5.2-11.5-3-11.9-4-6 3.5-3.9 4.3-7.6-3.8-3.9-5.8-10.6-0.7-9.4 2.1-7.4 1-4.2-8.1-5-6.7-5.5-7-2.6-8.9-6.1-6.2-8.7-0.3-0.8-9.9 5.4-9.3-0.1-4.4-2-4.1 24.6-4.5 30.3 7.4-1.8 6 6.7-1.3 9.4-3.3 6.2 0 5.1 2.2 24.9 4.2 13.4-3.1 9.5-8.1 7-11.4 5.9-12.9 8.5-10.6 11.1-2.5 58.4 5.3 2.2-0.8 1.4-3.5 3.4-0.3 2.8 2.3 7.3 8.2 3.4 1.9 6.1-1.7 2.9-6.2 0.8-8.6-0.6-22.5 0.6-4.2 2.4-5 2.7-3 1.3-2.7-1.9-4.4-3.1-2.3-16-7.8-4.3-0.8-8.5-0.3-4.2-1.2-7.1-6.1-6.3-7.7-6.7-5.4-8.5 1-12-7.3-3-3.3-2.9-7-18-28.1-5-5.1-7-5.7-7.3-4.7-6-1.9-5.6-2.9 4.9-6.3 5.9-4.3 22.3 0.8 26.4 3.8 8.3 1 8.6-0.4 3.8 5.3 3.5 5.7 18 7.6 9.4 6.9 8.2 8.5z" id="HTI1388" name="Ouest" data-id="HTI1388" data-name="Ouest">
 </path>
 <path d="M970.3 667.2l-15.8 27.2-2.7 6.9-1 7.3 0.5 3.4 3.8 10.6 0.8 4.1-0.2 6.2 0.7 10.7-1.2 6.4-4.2 11.1-5.7-3.9-24.5-32-10.7-9.6-12.3-7.8-27.5-9.4-11.4-6-11.4-4.4-13.6 0-28 4.7-36.4-0.4-51.1 0.7-27.4 5-7.1-3.7-4.2-1.6-1.9 1.5 2.4 14.1-3.3 3.7-4.1 0.1-9.6-3.8-5.3-0.9-41.2 3.8-8.4-0.6 2.3 7.6-7.2-1-2.5-1.8-9.7 6.3-19.3-1.9-9.5 3.6-9.2-5.3-12.4-4.9-13.2-3.5-8-0.9 0.4-1.8-1.9-12.9-0.7-8.1 0-8.1 4.5-10.4 1.4-10.9 5 6.7 4.2 8.1 7.4-1 9.4-2.1 10.6 0.7 3.9 5.8 7.6 3.8 3.9-4.3 6-3.5 11.9 4 11.5 3 2.8-5.2 4.2-3.4 2-4.6 0.9-5.3 5.5 3 6.1 0.9 7.9-7.2 6.8-0.2 6.7-0.9 4-3.4 12.7-1.6 8.6-3.7 4.3-0.1 3.5-2.7 8.6-10.5 11.6-5.4 12.7 0.8 15.8 7.9 10.2-0.7 4.2 5.8 4.8 5.5 29 1.7 29.9-1.9 30.4 6.3 30.3 6.9 29.4-0.4 23.6 1.8 18.1 11.4 31-5.4z" id="HTI1389" name="Sud-Est" data-id="HTI1389" data-name="Sud-Est">
 </path>
 <circle cx="311.7" cy="615.3" id="0">
 </circle>
 <circle cx="283.2" cy="541.8" id="1">
 </circle>
 <circle cx="300.7" cy="652.7" id="2">
 </circle>
</svg>