<?xml version="1.0"?>
<!--
************* Copyright (c) 2017 Pareto Softare, LLC DBA Simplemaps.com *******************		
************* Free for Commercial Use, full terms at  http://simplemaps.com/resources/svg-license ************
************* Attribution is appreciated! http://simplemaps.com ***************************
-->
<svg baseprofile="tiny" fill="#7c7c7c" height="615" stroke="#ffffff" stroke-linecap="round" stroke-linejoin="round" stroke-width="2" version="1.2" viewbox="0 0 1000 615" width="1000" xmlns="http://www.w3.org/2000/svg">
 <path d="M164 258.8l6.6 8.2 8.2 5.7-9.8 4.5-1.3 1.2 0.1 3.3-1.1 2.5-1.9 1.8-1.7 5.4 1.2 6.2-0.6 10.4 3 22.7-18 4.4-4.1 5.7-1.6-0.5-1.7 0.3-1-1.1-0.5-1.8-3.5 0-2 3.1 0.7 2.6-1.3 2.3-6.1 3.7-6.8 1.5-3.5-0.5-6.8 1.5-1.7 4-2.8 0.1-3.2-1.1-5.2 3.7-14.7 0.9-5.5 2.7-2.5 4-1.7 5-2.6 4-6.8 6.3-3 5.6-6.1 4.1-7 0.1 1.3 7.4-7.1 11-0.9 0.9-1.2-0.6-0.1-3.6-2 0.4-1.4-1.7-1.2-2.4-1.7-2.2-2.4-7 0.6-2.4 1.9-3.2 1.8-5.1 0.4-1.9-0.7-1.1-2.1-0.1-1.3-0.7-2.9-3.6-1.5-0.9-20.1 1.8-6.1-1.5 2.4-1.1 1.8-1.8 5.4-7.4 1.7-1.7 3.7-2.8 3.1-1.3 2-2.4 0.3-3.8 1.5-1.3 2.7-1.3 0.6-3.3 1.4-2.4 2-0.2 5.5 1.1 6-0.7 3.1 0.3 3.3 2.6 4.6-1.1 3.8 0 2.8-0.7-0.6-2.3-2.1-2-2.1-0.7-4.3-0.5 1.9-1.7 6.6-2.7 1.6-1 0.6-1.2-0.5-1.2-4.7-1.8-1.1-2.9 1-3.1 3.1-2 3.3-4.4 0.7-2.6-1.8-2.6-2.4-0.2-5 2.4-1.9-1.4 0-1.2 1.2-3.6 0-2-1-1.4-2.4 0-0.9-0.7-0.5-3.6 2.2-4.8-0.4-3.8 4.5-2.5 2.1-1.9 1-2.9-0.6-3.6-4.5-9.4-1.7-1-0.3-2.1 1.7-1.6-0.4-8.4 1.5-2.7 1.8-0.5 2 1.3 1.8 2.9 15.8-7.3 5.5-4.3 2.2 2.7 2 1.6 7.6 1.7 4 4 4.3-0.8 11-7 3.6 3 12 2.1 15.7-9.2 3.7 1.1-1.5 4.4-1.2 5.7 13.9-7.5 3.9 2.9 3.4 5.6z m-83.6 23.4l-9.5 3.4-1.8-1.4-3.7 0-0.7 2.5 1.7 5.4 1.7 7.7 3.1 9.7 4.4 3.7 4.1-3.9 3.5 0.5 4.1 0.9 0.3-6.7 1.1-4.9 0.9-5.8-3.1-10.4-2.4 0.2-3.7-0.9z" id="HUN3138" name="Vas" data-id="HUN3138" data-name="Vas">
 </path>
 <path d="M397 538.1l2.7-0.3 2.6 0.5 1 2.2 0 3 2.4 5.2 0.1 5.1 1 3.1-1.1 4.5-2 4.1-1.1 6.4-3.3 4.3 3.1 3.1-0.7 0-1.9-1.7-1.5 2.2-1.3 3.4-1.5 0.9-1.8-0.3-5.8-3-7.3-2.5-2.7 0.5-3.4 3.4-1.6 4.9-2.1 2.5-3.3 6.3-1.7 2.2-6.4 5.4-3.8 1.5-3.3-1.6-2.4 1.6-5.1 6.4-2.8 2.2-2.1 0.4-2-0.4-2.5-3.2-2.3 0-5 2.3-2.5-0.9-2.5-2.8-3.4 0-4.5-3.4-2.7-0.9-12.1 0-1.3 0.4-2.6 1.9-3.3 0.6-15.4-4.3-12.6 0-1.4 0.7-1.5 3.2-1.8-0.5-2.9-5-4.3-3.1-17.9-5.6-3.3-0.2-1.2-0.8-0.3-1.4 4 0.3 3.4-1.8 0.5-6.2-2.4-4.3-4.2-3.8-3.1-5.1-1.8-6.4 2.3-4.3-4.2-13 8.7-4.5 2.5-6.6-0.4-13.1 4.3-4.9 6.8-2.5 7.2-0.2 4.5-3.6 13.6-17.9 16.8-2.1 2.9-3.2 1-4.7 2.8-2.4 3.8 1.1 3.7 0.3 2.9-3.9 2.5-4.6 17.3-1.6 4.5 0.8 0.7 2.8-0.5 3.4 5.7 6.5 2.8 7.6 2.2 18.3 5.8-4.2 2.5-2.9 3.6-0.7 7.4 7.2 2.9 0 2.9-1.9 2.4 2.7 3.8 8.1 4.5 6.9 4.7 5.5 7.3 4 7.8 2.4z m-68.6-15l-6.1 3.8-5.8-1.3-6.1-0.6-6 4.2-3.1 3.8-1.5 8.5 2.7 4.5-2.2 5.1 4.8 3.1 5.7 5.7 5.3 2.6 4-2.6 2.6-4.4 1.8-5.1 2.6-4.4 2.6 0 4.9 1.2 1.3-2.5-2.2-8.3-5.3-13.3z" id="HUN3155" name="Baranya" data-id="HUN3155" data-name="Baranya">
 </path>
 <path d="M264.3 181.4l0.4 2.9 1.2 4.7 0.2 4.8-0.6 3.9 1.1 3.8-0.3 6.7 4.4 3.8-3.2 8.8 3.5 4.9-1.7 3.8-3.3-1.1-1.3 1.3 1.7 6.1-2.3 6.3 0 4.4-4.5-5-5.2-3.4-0.1 4.1-2.7-1.2-2.8-0.3-2.5 2.3-5.2-2.5-6.8 2.3-6.2 4.9-5.9-2.7-4.3 2.7-7.5-1.1-3 4.5-3.3 1-3.3 0.1-2.1 1.9-2.7-0.1-2.4-0.9-5-3.6-5.5 0.5-5.4 1.7-2.7-0.5-1.3 2.3-4 3.2-5.7 2.1-3.4-5.6-3.9-2.9-13.9 7.5 1.2-5.7 1.5-4.4-3.7-1.1-15.7 9.2-12-2.1-3.6-3-11 7-4.3 0.8-4-4-7.6-1.7-2-1.6-2.2-2.7 2.1-1.6-0.6-8.8 1.6-1.8 4.3-1.8 1.6-2.8 0.2-3.4-1.2-2.7-2-2.1-2.5-1.4 0.8-4.2-1.2-4.4-2.6-3.5-3.2-1.5-4.9 0.9-2.6-1.1 4.9-3.8 5.5-0.1 8.2 2 1.1-1.9-0.5-5.2 4.2-5.7 2 2.4 1.6 1 8.3 1.3 1.3-0.3 1.6-1.6 2.9-4.6 1.9-1.7 2.2 5.7 5.6 1.1 11.6-3 10.7-1.4 3.1-1.4-1.7-1.1-1.2-1.6-0.8-2.3-0.2-7.1-1-4.5-0.2-3.7 2.2-2.5-1-1.4-1.4-4.1-4.2-2.3-1-1 0-2.4 1.8-0.9 5.1-1.2 2.4-1.9 1.5-2.2 0.8-2.9 0.7-3.9-1.9-1.1 0.3-1.6 1.6-1.3 1.2-3.3 0-1.4-1.5-1.8 9.2-7.7 5.4-3.3 5.3 1.1 7.6 2.2 9.6 1.4 4.6 3.9 15.1 20.3 1.5 1.4 1.5 0.6 3.7 0.8 1.4 0.9 4.9 7.5 1.8 1.8 1.5 0 3.2-1 2.2 1.1 3 2.2 2.7 2.6 1.2 2.3 1.5 1.7 9.6 5.2 12.4 3.4 8.5-0.6z m-30.1 3.4l-14.3 5-2.8 10.8-8.5 6.6 4.8 7.6 2.1-0.7 5.2 3.6 5.8-4.3 9.5 0 6.2-3.3 9.2-5.7 1.2-4-1.7-7.2-3.1-7.5-6.6 0.7-7-1.6z" id="HUN3156" name="Gyor-Moson-Sopron" data-id="HUN3156" data-name="Gyor-Moson-Sopron">
 </path>
 <path d="M307.5 355.3l3.2 8.4 3 5.5-1.1 2.8-0.1 12.3 1 6-6.8 3-1.7 0.3-1.3 1.2-1.7 3.5-2 3-1 3-0.3 3.6-2.9 6.5-1.2 8.1-0.4 8.3-4.4 8.6-2.8 10 1.4 8.7 3.2 1.9 4.2 20.3-2.8 2.4-1 4.7-2.9 3.2-16.8 2.1-13.6 17.9-4.5 3.6-7.2 0.2-6.8 2.5-4.3 4.9 0.4 13.1-2.5 6.6-8.7 4.5 4.2 13-2.3 4.3 1.8 6.4 3.1 5.1 4.2 3.8 2.4 4.3-0.5 6.2-3.4 1.8-4-0.3-0.4-3.5-0.9-4.9-1.1-2-7-7.4-5.4-2.5-6.2-1.3-12.5-0.6-3.1 2.8-0.9-3.4-1.6-0.7-3.5 1.3-2.9 0.3-0.3-2.6-0.8-3.6-1.6 2.7-1.5-0.4-1.8-1.5-2.1-0.8 0-1.4 3.9-1.3-1.3-1.9-2.4-0.3-2.3-0.9-1.4-5.7-1.8-6.8-0.8-2-5.9-7.7-1.7-1-11.9-0.4-2.2-1.1-7.1-5.3-1.7-1.9-0.8-2.3-1.2-1.6-7.8-6.4-1.4-1.9-3.6-6.8-5.5-6.5-2.1-2.2-1.5-4.2 5.7-2.2 3.6 4.4 10.3-3.9 2.5-0.2 2.6-0.9 2.8-3.4 0.7-4.8-2.5-5.6-1.3-6.3 3.5-0.9 16.6-4 1.8-7 2.5-4.8 2.3-7.6-0.9-28.3 5.6-9.8 6-5 9.8 0.7 6-3.1 7.6-1 30-12.8 26.5-15.9 6.6-1.8 5.8-6.2 3.4-2.3 3.9-1 14.2-8 8 0.7 7.4 3.4z m-63 107.2l-1.7 3.9-0.1 5.7-0.9 5.8-3.5 4.5 4 11.5 1.3 12.7 5.7-4.4 4.8 3.1 1.8-5.1 3.1-7 4.8-3.8-1.3-11.5-4.4-12.2 0-1.2-9.6 1.2-4-3.2z" id="HUN3157" name="Somogy" data-id="HUN3157" data-name="Somogy">
 </path>
 <path d="M264.1 246.5l0.5 6.2-1 6 5.6 2.2 4.8 0.8 0.8 4.6 1.7 3.9 3.3 0.8 16.8-3.7 4.9 9.6-5.3 1.5-0.8 5.9 1.7 5.8 6.3 6.2 5.3 12.1 4.1 2.5 2.1 5.3-1.2 14.3 1.5 5.5-2.1 10.6-5.6 8.7-7.4-3.4-8-0.7-14.2 8-3.9 1-3.4 2.3-5.8 6.2-6.6 1.8-26.5 15.9-30 12.8-7.6 1-6 3.1-9.8-0.7-6 5-5.6 9.8-7.9 3.3-4.5-6.8 1.9-14.9-1.9-48.7 0.5-2.7 1.2-2.1 0.8-2.4-0.9-2.1-3.9-1.7-1.7-1.9-1.6-2.3 18-4.4-3-22.7 0.6-10.4-1.2-6.2 1.7-5.4 1.9-1.8 1.1-2.5-0.1-3.3 1.3-1.2 9.8-4.5-8.2-5.7-6.6-8.2 5.7-2.1 4-3.2 1.3-2.3 2.7 0.5 5.4-1.7 5.5-0.5 5 3.6 2.4 0.9 2.7 0.1 2.1-1.9 3.3-0.1 3.3-1 3-4.5 7.5 1.1 4.3-2.7 5.9 2.7 6.2-4.9 6.8-2.3 5.2 2.5 2.5-2.3 2.8 0.3 2.7 1.2 0.1-4.1 5.2 3.4 4.5 5z m17.9 72.6l-1.7-9.3-4.6-9.3-4.3-4.7-4.9 1.6-1.7 6.7-8.5 0.5-0.3 3.7 2.8 3.6-0.4 5.7-2.8 6.7 8.1 17.1 6.7 1.6 3.2-3.1 2.8-9.4 6 2.1-0.4-13.5z" id="HUN3158" name="Veszprém" data-id="HUN3158" data-name="Veszprém">
 </path>
 <path d="M166.7 417.4l0.9 28.3-2.3 7.6-2.5 4.8-1.8 7-16.6 4-4.2-8.5-1.2-7.9-4-3.9-1.5-9.3-6.1 0.4-1 8.6-4.2 0.7 0.1 6.3 0.2 8.3 0.5 10 5.9 4.2 7.6 1.1 5.7-2.8 2.5 5.6-0.7 4.8-2.8 3.4-2.6 0.9-2.5 0.2-10.3 3.9-3.6-4.4-5.7 2.2-1.1-3.3 0.5-3.3-1.4-3.5-2.2-2.9-1.9-1.9-1.5 1.6-2.2-2.3-1.3-0.8-4-0.9-1-0.7-1.1 3.1-1 0-1.8-3.8-4.5-2.8-2.8-3.6-2.4-4.1-2.6-3.3-3.2-2.2-3.9-0.8-2.5-1-0.9 0.7-0.7 1.9-0.9 0-1.9-2-7.2-4.7-2.2-9.2-4.9-4.2-5.4-8.6-5.3-3.1-2.7-2.2-1.1-2.9 1.3-2.2 2.8-1.3 2.1-2-0.8-4-2.3-1.5-3.5-0.5 0.9-0.9 7.1-11-1.3-7.4 7-0.1 6.1-4.1 3-5.6 6.8-6.3 2.6-4 1.7-5 2.5-4 5.5-2.7 14.7-0.9 5.2-3.7 3.2 1.1 2.8-0.1 1.7-4 6.8-1.5 3.5 0.5 6.8-1.5 6.1-3.7 1.3-2.3-0.7-2.6 2-3.1 3.5 0 0.5 1.8 1 1.1 1.7-0.3 1.6 0.5 4.1-5.7 1.6 2.3 1.7 1.9 3.9 1.7 0.9 2.1-0.8 2.4-1.2 2.1-0.5 2.7 1.9 48.7-1.9 14.9 4.5 6.8 7.9-3.3z m-50.8-26.9l5.5-2.2-2.4-16.7-7.4-6.7-11 1.9 0.6 13.4 5.2 3.6 0 8.5 9.5-1.8z" id="HUN3159" name="Zala" data-id="HUN3159" data-name="Zala">
 </path>
 <path d="M421 265.1l1-7.7 2.8-6.4-0.1-2.8-5.2-14.8-1.3-12.9 8.9-1.3 4-1.9 3.4-3.5 7.1-0.5 6.4 4.1 3.3 4.2 5.5 3.8 0.5 2.6 3.2-0.5 11.2 8.6 2.9 1.2 2 2.4-3.3 8.4-7 5.4-2.8 3.6-14 10-4.3-0.6-7.4-4.5-16.8 3.1z" id="HUN3160" name="Budapest" data-id="HUN3160" data-name="Budapest">
 </path>
 <path d="M523.7 342.6l-2.9 3.2-7.5-3.8-2.1 3.8-0.8 5.1 2.6 6.8 2.9 8 4.9 8.9 3.4 12.3 5.8 4.6 4.6-8.8 0-9.8 4.4-6.7 5.2 0 4.6-3.4 0.2-5.9 2.9-0.2 2.6-3.4 4.1-3.9 4.7-1.1 4.3 3.3 4.7 1.6 6.1-7.5 4.2-3 4.3-1.9 4.8 2.9 5.5 6-5.1 3.8-0.9 1.7 0.9 1.7 4.5 1.1 1.7 0.8 0 1.3-2.6 4-1.4-0.2-2.6-2.4-3.3-0.3 0 3.5 2.9 1.8-2.1 4.1-4.5-0.3-5 1.9-3.2 4.7 0.9 0.5-2.1 5.5 0.6 3 2.1 1.7 2.8-0.8 3.9 1.4-7.3 6.5-6.4 9 3 2.3 1.3 3.9-2.7 23.4-5.2 5.7-12.8-2-5.5 3.9 0.2 8.8 7 4.9 1.6 10-2.4 9.7-2 4.2-3.1-0.2-4.6 1.6-4.1 3-4.3 0.4-4-1.3-3.4 0.4-2.9 2.2 0.3 5.1-0.1 4.8-2.2 4.5-0.5 6.1 2.8 7.3 3.6 6.8 2.3 6.3-3.2-2-3.1-1-3.2-0.2-8.5 1.7-3.1-0.1-2.8 0.5-3.6 1.6-3.4 2.3-2.1 2.4 0.2 1.8 1.1 1.9 0.4 1.8-3.9 2.1-2.8 4.5-2.5 2-2.9 0.8-1.8 0.9-2.3 3.9-1.5 1.7-2.5 0.9-5.4 0-2.7 0.6-3 2.2-1.7 5.2-1.7 2.2-4.1 0.8-12.9-1.4-3.3-1.9-2.1-4.2-3.4-1.2-3.3 1.4-2.4 4-0.1 6.3-2.6 0.7-3.8-0.5-3.4 2.5-0.7 1.5 1.3 2.6-0.6 2-2.9-1.3-9-0.7-2.2 0.2-1.4 1.7-1.7 0.9-2.9 0.9-2.5 1.7-0.9 0.1-3.1-3.1 3.3-4.3 1.1-6.4 2-4.1 1.1-4.5-1-3.1-0.1-5.1-2.4-5.2 0-3-1-2.2-2.6-0.5-2.7 0.3 3.4-1.8 3-3.1-3.2-1.8-1.8-4.3 1.1-2.1 2.2 1.2 2.3-1.3 3-6.7-1-2.6-1.8 0.6-1.7-0.8 0.1-2.3 2.6-1.8 8.4-1.8 2.3-2.5-0.1-18.1-0.5-2.6-2.1-4.3-0.5-3.3 1-7.7 3.5-11.6-0.4-6.4-1.9-7.1-4.4-12.7-2.8-5.1 3.9-4.4 10-4.5 4.2-4.3 2.2-4 0.8-2.9-0.4-3.2-1.5-4.7-0.6-6.5-3.9-5.5-3.7-4.2-0.8-1.4-0.2-4.6 0.2-3.6 0.5-2.6 1.1-3.1 1.5-2.7 2.6-2.9 0.1-4-1-8.9-0.8-3.8-0.1-2.3 1.8-3.9 0.2-2.1 3.2-7.2 6.9-0.4 6.9-2.1 10.9-8.8 15.9-7.1 5.3 1.4 4.2 4.5 0.6 6.2-3.5 5.8-1.1 6 2.9 4.7 4.4-1.6 3.2-6.3 4.2-2.7 4.5-1.8 1.8-3.1 0.3-4.3 2.1-2.7 10.1 1.5 5.5 5.6 8.2 13.6 3.4 3.4z" id="HUN3161" name="Bács-Kiskun" data-id="HUN3161" data-name="Bács-Kiskun">
 </path>
 <path d="M402 267.9l4.2 5.2 1.2 3.2 1.8 2.3 5 0.8 2.4 3.6-1.7 10.8-3 6.3-0.8 4-0.4 4.5 0.1 4.3 1.4 8.4 1.2 4.4 0.9 1.8 2.3 1.7 7.2 8.8-0.2 2.1-1.8 3.9 0.1 2.3-8.5-4.5-8.1 8.4-2 11.9 2.3 7.2 12.1 8.6-6.7 2.1-6.4 4.5-14.4 18.3-6.3 4.1-2.7 0.9-2.7 1.6-4.4-1.2-10.3-16.5-3 0.3-3 2.2-1.8 3.4-1.8 2.2-1.9 0.3-6.1-1.1-6.2-2.9-10.1-8.5-1.3 0.6-7.5 0-7.6 2.1-1-6 0.1-12.3 1.1-2.8-3-5.5-3.2-8.4 5.6-8.7 2.1-10.6-1.5-5.5 1.2-14.3-2.1-5.3-4.1-2.5-5.3-12.1-6.3-6.2-1.7-5.8 0.8-5.9 5.3-1.5-4.9-9.6 0.9-3.5 1.7-2.6-0.4-6.4 1.5-5.1 3.4-0.2 3.6-1 2.4-4 3.1 0.1 8.6 7.5 2 3.2 2.6 1.7 7.8-2.1-1.4-2.7-1.9-1.9 2.1-3.2 7.5-3.8 4.2-4.3 2.8-1.1 2.3-2.4 3-7.3 4.9-3.6 24.9-1.5 5.8 11.9 7.5 9.4 1.7 5.5-1 6.2 3.9 9.6 1.9 2.2z m-50.2 11.6l-2.9-0.9-3.8 6-8.1 8.1-7.2 8.3 6.9 7.9 4.4 7.6 1.7 8.1 1.7 6.4 9-5.5 4.9 2.5 5.2-8.5 2.6-5.9 0-6-3.5-4.7 0-5.5 1.5-7.7-5.5-4.3-4 0-2.9-5.9z" id="HUN3162" name="Fejér" data-id="HUN3162" data-name="Fejér">
 </path>
 <path d="M382.2 223.1l-24.9 1.5 1.2-4.5-4.9-7.3-7.5-1.7-5.8-0.8-4 4.3 1.7 5.5-1.4 4.3 5.2 6.5 7.6 4.6-2.3 2.4-2.8 1.1-4.2 4.3-7.5 3.8-2.1 3.2 1.9 1.9 1.4 2.7-7.8 2.1-2.6-1.7-2-3.2-8.6-7.5-3.1-0.1-2.4 4-3.6 1-3.4 0.2-1.5 5.1 0.4 6.4-1.7 2.6-0.9 3.5-16.8 3.7-3.3-0.8-1.7-3.9-0.8-4.6-4.8-0.8-5.6-2.2 1-6-0.5-6.2 0-4.4 2.3-6.3-1.7-6.1 1.3-1.3 3.3 1.1 1.7-3.8-3.5-4.9 3.2-8.8-4.4-3.8 0.3-6.7-1.1-3.8 0.6-3.9-0.2-4.8-1.2-4.7-0.4-2.9 33.7-2.2 18.1 1.9 5.5-0.5 11-4.5 30.1-3.5 6.6 0.5 5.4 2.3 4.3 0.9 4.3-0.5 3.6-2.2 4.9-5.6 2.5-1.9 3.4-0.9 3.6-1.2 4.9 3.3 5.2 1 3.3 5.3 1.4 3.7 0.9 6.6 1.9 1.9-2.7 2.4-3.3-1.1-6 2.1 1.6 11.2-7.7-0.9-7.7 1.1 1.4 2.7 0.9 3.2-4 3-3.2 4.2-2.3 5.8-3.7 3.6z" id="HUN3163" name="Komárom-Esztergom" data-id="HUN3163" data-name="Komárom-Esztergom">
 </path>
 <path d="M514 184.8l2.1 3.4 3.6 1.3-0.9 2.9-1.7 2.9 1.5 4 2.8 3.2 4.1 6.8 0.2 3.7 2.1 2.7-1.5 6.5 2.8 6 4.7 3.1 5.5-0.6 0.8 4.1-0.1 3.5 6.2 5.4 2.8 3.8 26.4 26.4 1.2 3 0 4-0.6 3.3 0.4 3 2.5 4 3.7 2.6 5.2 8.6-3.9 9.9-0.7 10.5 4.7 9.8 8.2 7.3 9.3 3.6-8.2 6.2-5.5-6-4.8-2.9-4.3 1.9-4.2 3-6.1 7.5-4.7-1.6-4.3-3.3-4.7 1.1-4.1 3.9-2.6 3.4-2.9 0.2-2.6-0.7-4.7 0.2-11.3-7-6.7-6.8-3.4-3.4-8.2-13.6-5.5-5.6-10.1-1.5-2.1 2.7-0.3 4.3-1.8 3.1-4.5 1.8-4.2 2.7-3.2 6.3-4.4 1.6-2.9-4.7 1.1-6 3.5-5.8-0.6-6.2-4.2-4.5-5.3-1.4-15.9 7.1-10.9 8.8-6.9 2.1-6.9 0.4-3.2 7.2-7.2-8.8-2.3-1.7-0.9-1.8-1.2-4.4-1.4-8.4-0.1-4.3 0.4-4.5 0.8-4 3-6.3 1.7-10.8-2.4-3.6 3.8-3.2 2-5.6 1-5.5 16.8-3.1 7.4 4.5 4.3 0.6 14-10 2.8-3.6 7-5.4 3.3-8.4-2-2.4-2.9-1.2-11.2-8.6-3.2 0.5-0.5-2.6-5.5-3.8-3.3-4.2-6.4-4.1-7.1 0.5-3.4 3.5-4 1.9-8.9 1.3 1.3 12.9 5.2 14.8 0.1 2.8-2.8 6.4-4.6-5.2-4.9-3-4-4.2-3.8 1.7 0.9 7.2 2.6 7.3-6.2 6.7-1.9-2.2-3.9-9.6 1-6.2-1.7-5.5-7.5-9.4-5.8-11.9 3.7-3.6 2.3-5.8 3.2-4.2 4-3-0.9-3.2-1.4-2.7 7.7-1.1 7.7 0.9-1.6-11.2 6-2.1 3.3 1.1 2.7-2.4-1.9-1.9-0.9-6.6-1.4-3.7-3.3-5.3-5.2-1-4.9-3.3-5.4-4.3-4.3-4.2-1-4.1 0.4-4.7 1.4-9-0.4-2.6-1.3-1.7 2-2.3 1.3-0.8 2.9-0.5 1.4-1.2 3.9-8.3 2.6-2.1 14-3.1 4.9 7.1 0.4 10.2-5.1 4.6 3.5 7.8 18.2 13 11.9-0.3 31.4 6 5.7 2.6 4.9 11.1 1.4 14.4 8.9-5.1 9.1-1.7z" id="HUN3164" name="Pest" data-id="HUN3164" data-name="Pest">
 </path>
 <path d="M397 538.1l-7.8-2.4-7.3-4-4.7-5.5-4.5-6.9-3.8-8.1-2.4-2.7-2.9 1.9-2.9 0-7.4-7.2-3.6 0.7-2.5 2.9-5.8 4.2-2.2-18.3-2.8-7.6-5.7-6.5 0.5-3.4-0.7-2.8-4.5-0.8-17.3 1.6-2.5 4.6-2.9 3.9-3.7-0.3-3.8-1.1-4.2-20.3-3.2-1.9-1.4-8.7 2.8-10 4.4-8.6 0.4-8.3 1.2-8.1 2.9-6.5 0.3-3.6 1-3 2-3 1.7-3.5 1.3-1.2 1.7-0.3 6.8-3 7.6-2.1 7.5 0 1.3-0.6 10.1 8.5 6.2 2.9 6.1 1.1 1.9-0.3 1.8-2.2 1.8-3.4 3-2.2 3-0.3 10.3 16.5 4.4 1.2 2.7-1.6 2.7-0.9 6.3-4.1 14.4-18.3 6.4-4.5 6.7-2.1 0.2 4.6 0.8 1.4 3.7 4.2 3.9 5.5 0.6 6.5 1.5 4.7 0.4 3.2-0.8 2.9-2.2 4-4.2 4.3-10 4.5-3.9 4.4 2.8 5.1 4.4 12.7 1.9 7.1 0.4 6.4-3.5 11.6-1 7.7 0.5 3.3 2.1 4.3 0.5 2.6 0.1 18.1-2.3 2.5-8.4 1.8-2.6 1.8-0.1 2.3 1.7 0.8 1.8-0.6 1 2.6-3 6.7-2.3 1.3-2.2-1.2-1.1 2.1 1.8 4.3 3.2 1.8-3 3.1-3.4 1.8z m-4.1-63.2l-2.7-4.3-3.4 0.6-1.3 4-3.8 0.6-2.7-0.9-2.2 3-3.1 2.8-1.5 3.1-0.4 2.9 0.9 2.3 1.4 1.8 3.2-1.9 1.4-1.8 1 6 1.9 1.6 2.9 1 2.4-3.6 1.4-3.5 1.4-2.1 3.3 1.4 3.6 1.2 3.3 0.4 7.3 2 3.4-0.1 1.4-2.5-0.3-2.1-1.1-1.5-2 0.4-1.9 1-0.7-3.3-2.3-1-2 2.3-0.7 0-1.4-2.3-5 0-1.7-7.5z" id="HUN3165" name="Tolna" data-id="HUN3165" data-name="Tolna">
 </path>
 <path d="M541.3 92l-4.9 6.1-1.1 9-2.2 8.9 11.5 2.2 4.1-7.2 7.1-5 5.9-6.3 3.4-1.3 6.7-6.3 3.4-2.1 6.1-2 1.5 2 4.1 3 2.8 2.9-1.5 1-1.1 1.6-4.2 1.9-3.2 3.4-4.3 1.1-2 1.4-0.7 2.9 1 1.3 1.8 0.8 3.2 6 1 7.2-4.4 0.6-3.6 3.2-1.9 5.5-0.5 5.1-3.8 3.9-4.1 2.6-1.9-2-2.5 0.1-2.1 3.3-1.6 3.9-3.6 2.7-4.8-2.7-4.1 2.9-7.5 12.8-5.5 1.8-13.8 16.6-9.1 1.7-8.9 5.1-1.4-14.4-4.9-11.1-5.7-2.6-31.4-6-11.9 0.3-18.2-13-3.5-7.8 5.1-4.6-0.4-10.2-4.9-7.1 7.1-1.6 2.1-1 6.2 0.3 8.8-1.3 18.3 2.2 1.6-0.3 8.8-5.7 19.8 0.4 7.9-5.6 0.3-2.3-0.4-2.7 1.8-3.7 1.4-8.5 1.6-3.2 2.6-1.5 13.5-3.6 3.1 0.4 1.6 1.5 3.2 3.9 1.5 0.8 6.8-1.3 3.4 0.6 2.6 3.1 0.1 2.2-1.2 3.8z" id="HUN3166" name="Nógrád" data-id="HUN3166" data-name="Nógrád">
 </path>
 <path d="M893.2 38.1l-3.1 3.4-5.5 11.7-3.1 5-4 2.6-1.4-0.3-2.9-1.5-1.7 0.1-0.8 1-5 7.4-4.2 4.9-2.1 1.7-2.9 1.1-9.3 0.6-2.1 1.7-2.7 2.8-2.8 2.2-4.1 0.6-11.2 7-2.8 0.5-2.8-0.5-5.8-2.8-2.5-0.1-5.4 0.8-9.5-0.5-2.7 0.5-2.2 1.5-2.1 2.7-1.7 3.2-1 3-0.3 3.9 1.9 3.7 0.5 3-1.5 6.9-3.8 3.7-4.9 1.5-11 0.7-2.1-0.5-1.8-1.6-1.3-1.8-1.5-1.3-2.4 0.2-1 1-1.1 2.9-1.4 0.6-4.7 0-6.4 4.3-1.6 1.7-1 2.7-0.9 5.7-1.1 5-1.2 1.9-4.8 5.7-1.3 2.8 0.3 7.9-0.5 3.4-0.9 1.7-3 3.3 0.8 6.7 0 1.3-8.1 1.5-0.1 1.7-3.5 7-1.8 3.3-7.4 7.5-10.7 1-4.1 0.5-2.6 1.1-4.8-0.8-3.3-2.2-16.2-3.3-3-5.1-2-6.8-6.8-8-9.4-16.8-1.2-0.8-1.2-1.9 2.5-4.1-0.6-4.3-2-3.4-2.8-3.1-1-4.5 1.8-3.3 6.6-6.8 1.9-8.9 5.5-3.5 7.4-1.7 8.9-0.5 4.9 6.7 7.8 5.5 7.8 5.1 6-0.6 7.4-2.2 4.8-5.6-0.7-5-3.3-6.2 0-6.7-3-8.3-4.1-6.2-5.6-3.3-5.2 0-6.3-4.5-15.4 11.7-7.1 6.1-7.8 0.6-4.8 5.8-8-8.4-9.4 12.4-5-3.6-5.3 0.3-4.2 3.8-5.2 0-2.4-2-1.9-3.2-2.1-0.7-2.4 0.3-2.8-3.5-3.5-3.1-3.3 1.5-2.8-2.9-4.1-3-1.5-2 5.8-3.6 2.8-1.1 1.2-1 1.1-2 1.4-5.5 1.8-2.2 5.4 0.6 2.5-1.1 4.4-4.1 1.6-0.8 3 1.5 1.6 1.9 1.8 0.7 3.4-1.7 4.3-4.4 3.6-5.6 3.1-6.4 5.7-17.6 1.7-3.5 2.2-2.9 4.8-5.1 2-3 0.2-1.5-0.4-5.5 0.2-3.5 4.3-1.7 9.1-0.6 31.1-7.3 2.4 0 2.3 1.2 4.3 4 2.2 0.6 4.6 0.5 8 4.9 5.2 0.5 3.7-0.3 4.4 0.8 4.1 1.8 2.9 3 3.8 0.8 11.3-5.4 4.9-1.2 2.7 1.2 1.8 1.6 1.7 0.7 2.2-1.2 1.7-2.5 0.8-2.4 1.2-2.1 2.9-1.7 2.5-0.5 5-0.1 7.6-2.4 2.2 0.6 4.9 3 2.7 1 1.2 1.2 1 1.9 1.3 4.3 1 1.6 2.4 1.1 5.4-0.1 2.5 0.6 1.3 2.5 1.9 9.2 1.2 2.3 8.3 12.8 3.4 4 3.9 2.9 4.6 1.6 4.5-0.4 7.6-3.9 6.4-0.9 4.4-2.6 2.2-0.9 7.7-0.4 2.7-0.9 2.6-0.2 8.8 0.9 2.8-0.8 2.5-2.1 2.8-3.5 3.8 0.5z" id="HUN3168" name="Borsod-Abaúj-Zemplén" data-id="HUN3168" data-name="Borsod-Abaúj-Zemplén">
 </path>
 <path d="M892.6 218.7l-3.2-4.1-3-12.7-2.5-3.8-6.8 7.6-3.9-3.8 0.9-5.7-4.3-7.6-10.2-5.8-5.1 0.3-3.5 6.2-1.8 4.5-2.7 2.8-3.1-1.8-2.7-3.3-3-1.3-3.1 0-6.2-2.3-2.8-2.7-7.2-1.6-2.5-3.3-13.7-10.9 0.6-12.4 1.8-11.7-1.5-4.6-4.6-1.6-5.7 3.4-23.8 1.8-6.6 2.6-12.2-9.7-10.7-1.5 0.9-5.7 1-2.7 1.6-1.7 6.4-4.3 4.7 0 1.4-0.6 1.1-2.9 1-1 2.4-0.2 1.5 1.3 1.3 1.8 1.8 1.6 2.1 0.5 11-0.7 4.9-1.5 3.8-3.7 1.5-6.9-0.5-3-1.9-3.7 0.3-3.9 1-3 1.7-3.2 2.1-2.7 2.2-1.5 2.7-0.5 9.5 0.5 5.4-0.8 2.5 0.1 5.8 2.8 2.8 0.5 2.8-0.5 11.2-7 4.1-0.6 2.8-2.2 2.7-2.8 2.1-1.7 9.3-0.6 2.9-1.1 2.1-1.7 4.2-4.9 5-7.4 0.8-1 1.7-0.1 2.9 1.5 1.4 0.3 4-2.6 3.1-5 5.5-11.7 3.1-3.4 1.6-1.6 4.8-1.9 5 0.6 5.3 2.7-2.2 6.7 0 3.5 5-0.1 1.1 1.9-0.3 4.7 0.1 3.1 1.6 4.5 7.2 11.2 1 1 2.2-0.1 1.7-1.2 1.3 0 2.8 1.2 2.4 0.5 2.3-0.2 2.8-1.4 1.8 0.3 11 14.5 1.9 4.5 2.1 7 2.5 5.3 1.1 0.9 2-1.1 10.6 0 2.7-0.9 2.5-1.6 2.5-0.7 2.4 1.6 0.5 1 5.3 3 4.3 4.1 2 2.5 1.5 3 1 4.2-0.5 2.3-1 2-0.2 3.5-2.5 3.1 1.2 2.7 5.4 4.4-2.4 2.8-3.7 6.9-2.4 2.2-5.9 2.2-2.4 1.7-1.6 3 0.1 1.9 1 3-1.2 2.4-0.9 0.6-3.2 0.4-3 1.3-1.8 1.5-3.6 4.8-4.3 3.8-5.4 2.3-5.6 0.8-5.1-0.8-10.9-5.8-4.5 1-2.4 8.7-1.7 1.6-1.9 0.8-2.1 0.2-6.8-1-1.9 0.2-2.6 0.9-2.7 1.5-1.7 1.8-3.2 4.9-3.7 2.9-1.6 3-0.9 5.9-3.7 5.2-0.8 4.8-0.8 1.6-1.1 0.9z m-52.6-96.8l-4.2-2.9-5.6 3.9-2.6-2.8-7.5 0.5-2.6 5-1.3 4.7-1.1 11.1-1.1 13.4 8.9 2.8 10 2.7 4.9 3.4 8.2-1.7 3.3-7.2 0.4-7.8 4.8-1.1 0.4-8.4-0.4-7.8-3-3.3-3.7 2.8-7.8-0.6 0-6.7z" id="HUN3169" name="Szabolcs-Szatmár-Bereg" data-id="HUN3169" data-name="Szabolcs-Szatmár-Bereg">
 </path>
 <path d="M816.1 341l0.3 1.1 2.7 0.9 1 0.9 0.9 2.9-2.8 10.7-1.3 1.6-7.5 6.3-0.1 5.2 0.5 4.6-1.2 2.8-1.5 1.3-5.4 1.5-3.1 2.9-1.8 3.5-3.2 8.6-1.1 2.2-0.5 2.6 1.1 1.5 4 2.7-0.5 4.3-2.7 4-2.9 1.6-4.1 0.8-1.5 2.5-1.3 3.6-3.1 4-3.1 1.7-5.5-0.4-3.1 0.8-2.3 2.7-0.8 4.1-0.6 8.2-1.8 3.9-2.5 3.3-2.1 3.4-0.4 4.4 4.3 8.2 1 4.7-3.4 2.6-6.3 0.3-2.9 1-2.4 2.9-1.5 4.7-0.6 9.5-1.3 4.1-1.7 3.2-1.4 1.1-4.3 0-0.9 0.5-7.1 8.6-2.6 1-3.9-3.8-2.4-0.5-1.4 0.5-2.9 0.2-5.4-2.4-2.7-0.6-3.1 1.5-2.7-0.4-2.6-2.3-1.4-0.7-3-0.1-3.1 0.9-1.6 0.9-1.8-2.7-2.7-2.2-1.1-3.3 1.2-5.2 0.2-5-1.7-4.1-2.4-3.2-2.9 0.3-1.4-2.5-7.7 2.1-7.4-0.1 2.6-5.9-4.7 1.3 0.1-9 1.5-2.7-1-4.3 3.2-5.5 2-6.9-4.3-1.9-2.3-4.3-0.6-16 2.1-10.2-0.5-13.7-4.7-4.4-7.3-2-12-4.3-2.2-7.1 1.6-6.3 5.7-5.1 5.2-0.5 5 1.3 4.1-5.9 4.3 1.2 3.4-3 2.3 1.5 1.8 2.6 2.9-0.7 2.8-2 2.4-0.4 2.3-1.5 1.5-6.5-0.7-7.1-1.4-2.7-0.2-3.3 5.6-6.8-0.1-2.9-0.5-1.2 1.5-2.9 2.4-1.7 8.9-11 2.9-1.1 3 0.9 2-1.3 1.3-2.7 2.1-0.8 1.6-2.7 1.2-2.8 3.6-1.4 1.6-2.3 1.2-2.9 2.1-3 2.9-1.4 18.1 11.9 6.3 2.3 6.7 0.7 9.5 4.7 3 6.3-0.1 15.6-0.3 6.2 1.9 3.4 3.5 1 2.8 2.7-1.4 5.3 2.8 2.7 4.9 1.1 10.2-2.9 6.2 0.1 10.1-10.3 6.3-3 3.6-0.9z m-62.9 68.1l-2.6-7.2 1.8-8.5-6.7-9.7-14.1-6.6-6.1 11-6.4 6.7 2.3 11 1.8 11.4 8.1-0.1 6.9-1.3 9.2 0.4 5.8-7.1z" id="HUN3171" name="Békés" data-id="HUN3171" data-name="Békés">
 </path>
 <path d="M691.5 503.3l-1.3 0.7-5.8 4.8-0.6 1.2 0.1 2 1.3 4.7 0 1.7-1.2 1.2-2.7-0.7-1.2 0.4-0.7 1.6-0.2 3-0.7 2.1-2.3 2.5-2.9 1.5-8.3 1.8-2.8-0.8-1.5-1-4.3-3.9-5.8-2.5-6-1.3-3.6 5.8-23.7 0.6-5.9 7.6-8-6.9-2.7-1-3.7 1.7-2.2-0.4-2.3-2.8 1.9-7.6 2-2.5 3.5 0.4 3.5 4.2 2.6 5.4 3.4-0.8 0.3-4.6-2.9-2.6-2-3.7-0.3-3.4 1.8-3.2 5.1 1 4.1-0.3-0.3-5 8.5-1.4 6.4 0 6.3 3.3 8.7 0.9 6.9-5.5 4.1-11.7 5.2-6.3 2.5-6.1 7.4 0.1 7.7-2.1 1.4 2.5 2.9-0.3 2.4 3.2 1.7 4.1-0.2 5-1.2 5.2 1.1 3.3 2.7 2.2 1.8 2.7z m-29.7-39.5l-2.9-3.4-5.2-5.4-4.9-5.9-5.2-3.4-12.7 5.1-6.3-2.1-5.2-0.4-2.3 5-2.9 12.6-3.5 5-2.6-8.8-3.3-2.4-1.5 7.2 0.1 5.1 0.9 4.5 0.5 4.9 0.8 2.2 1.8 1.6-0.7 3.5 0.8 3.2-4.4 0.2-2.9-5.5-2.9-2.9-5.2 5.9-8.7-1.7-5.7 3.8-0.6 11.3 8.7 2.5 1.4 5.4-1.4 2.5-0.8 15-4.2 0.5-6.2-3.5-9.4-0.9-5.9 1.3-14.5 6-2.6-0.5-8.9-5.8-2.3-6.3-3.6-6.8-2.8-7.3 0.5-6.1 2.2-4.5 0.1-4.8-0.3-5.1 2.9-2.2 3.4-0.4 4 1.3 4.3-0.4 4.1-3 4.6-1.6 3.1 0.2 2-4.2 2.4-9.7-1.6-10-7-4.9-0.2-8.8 5.5-3.9 12.8 2 5.2-5.7 2.7-23.4-1.3-3.9-3-2.3 6.4-9 7.3-6.5 10.8 6.9 16.9-5.6 5.3 5 5.4 1.5 4.7-3.8 5.2-1.6 4.9-3 12 4.3 7.3 2 4.7 4.4 0.5 13.7-2.1 10.2 0.6 16 2.3 4.3 4.3 1.9-2 6.9-3.2 5.5 1 4.3-1.5 2.7z" id="HUN3172" name="Csongrád" data-id="HUN3172" data-name="Csongrád">
 </path>
 <path d="M892.6 218.7l-0.9 0.6-7.2 1.9-9.1 6.9-4.4 4.7-2.8 5.4 0.4 6.8 1.3 7.5 0.2 7.3-2.9 6-6.6 2-2.6 1.6-2.7 3-5.7 8.3-0.9 2.6-1.7 7.8-2.5 5.1-0.6 2.4 0 2.6 0.4 3.9-0.9 2.7-1.2 1.7-3.3 3.2-1.4 2-1.4 5.8-1 1.9-2.9 3-7.3 4.8-3.3 3.1-5.7 7 0.2 0.7-3.6 0.9-6.3 3-10.1 10.3-6.2-0.1-10.2 2.9-4.9-1.1-2.8-2.7 1.4-5.3-2.8-2.7-3.5-1-1.9-3.4 0.3-6.2 0.1-15.6-3-6.3-9.5-4.7-6.7-0.7-6.3-2.3-18.1-11.9 4.1-10.9 0.8-13.8-1.4-10.3-2.5-10.3-1.7-18.5-2-8.7-4.5-4.4-4.8-0.6-4.7-2.2-5.7-5.8-3.4-11.2 10.7-1 7.4-7.5 1.8-3.3 3.5-7 0.1-1.7 8.1-1.5 0-1.3-0.8-6.7 3-3.3 0.9-1.7 0.5-3.4-0.3-7.9 1.3-2.8 4.8-5.7 1.2-1.9 1.1-5 10.7 1.5 12.2 9.7 6.6-2.6 23.8-1.8 5.7-3.4 4.6 1.6 1.5 4.6-1.8 11.7-0.6 12.4 13.7 10.9 2.5 3.3 7.2 1.6 2.8 2.7 6.2 2.3 3.1 0 3 1.3 2.7 3.3 3.1 1.8 2.7-2.8 1.8-4.5 3.5-6.2 5.1-0.3 10.2 5.8 4.3 7.6-0.9 5.7 3.9 3.8 6.8-7.6 2.5 3.8 3 12.7 3.2 4.1z m-91.7-21.2l1.9-11.6-3 2.2-6.3 6.6-6.2 18-3.3 12.7 0.4 11 10 0 3 10.5 4.6 2 3.8 2.8 1.8 8.8 9 0 8.1-10.5 5.6-1.1 6 6.1 10-11.6 3-8.3 0.4-13.8-4.8-8.9-5.6-7.1-5.2 1.6-4.9 6.1-6.7 3.9-4.1-5.6-3.3-9.9-2.6-10-7.5 1.1-1.9 6.7-2.2-1.7z" id="HUN3173" name="Hajdú-Bihar" data-id="HUN3173" data-name="Hajdú-Bihar">
 </path>
 <path d="M645.2 102.1l2.5 2.6 0.8 5.2-0.5 5-1.9 8.9-6.6 6.8-1.8 3.3-4-5 0-6.3-1.4-4.2-7-1.4-2.3 7.7-3.7 2.1 0.9 7 1.9 8.3-1.9 9 0 9.1 3.3 8.3 6.5 0 3.2-4.1 0-6.3 3.3-3.5 5.1-1.3 1.2 1.9 1.2 0.8 9.4 16.8 6.8 8 2 6.8 3 5.1 16.2 3.3 3.3 2.2 4.8 0.8-1.6 3.7-1.9 2.8-4.4 1.8-1.5 1.4 0.9 2.6-1 2.3-2.1 0.8 0 1.4-0.8 3.8-26.1 17.7-1.3 1.8-0.8 4.6-2 1.8-5.3 1.8-2.6 3.4-1.4 1.1-3.6 1.1-3.3-0.9-8.4-5.7-2.6-3.3-1.7-3.9 1-4.8-2.5-6.9-5.6-3-2.8-3.8-1.6-5.7-2-1.6-13.9 3.9 1.4 3.1 2.3 1.6-7.3 2-7.8-5.4-2.5-8.3-1.1-8.9-5.7-1.9-7.1 2.3-3.4-0.9-2.5 2.3-8 11.1-1.8-0.4-3.3-2.6-8.1 0.8-7.9 3.7-2.1-2.7-0.2-3.7-4.1-6.8-2.8-3.2-1.5-4 1.7-2.9 0.9-2.9-3.6-1.3-2.1-3.4 13.8-16.6 5.5-1.8 7.5-12.8 4.1-2.9 4.8 2.7 3.6-2.7 1.6-3.9 2.1-3.3 2.5-0.1 1.9 2 4.1-2.6 3.8-3.9 0.5-5.1 1.9-5.5 3.6-3.2 4.4-0.6-1-7.2-3.2-6-1.8-0.8-1-1.3 0.7-2.9 2-1.4 4.3-1.1 3.2-3.4 4.2-1.9 1.1-1.6 1.5-1 3.3-1.5 3.5 3.1 2.8 3.5 2.4-0.3 2.1 0.7 1.9 3.2 2.4 2 5.2 0 4.2-3.8 5.3-0.3 5 3.6 9.4-12.4 8 8.4z" id="HUN3174" name="Heves" data-id="HUN3174" data-name="Heves">
 </path>
 <path d="M722 294.1l-2.9 1.4-2.1 3-1.2 2.9-1.6 2.3-3.6 1.4-1.2 2.8-1.6 2.7-2.1 0.8-1.3 2.7-2 1.3-3-0.9-2.9 1.1-8.9 11-2.4 1.7-1.5 2.9 0.5 1.2 0.1 2.9-5.6 6.8 0.2 3.3 1.4 2.7 0.7 7.1-1.5 6.5-2.3 1.5-2.4 0.4-2.8 2-2.9 0.7-1.8-2.6-2.3-1.5-3.4 3-4.3-1.2-4.1 5.9-5-1.3-5.2 0.5-5.7 5.1-1.6 6.3 2.2 7.1-4.9 3-5.2 1.6-4.7 3.8-5.4-1.5-5.3-5-16.9 5.6-10.8-6.9-3.9-1.4-2.8 0.8-2.1-1.7-0.6-3 2.1-5.5-0.9-0.5 3.2-4.7 5-1.9 4.5 0.3 2.1-4.1-2.9-1.8 0-3.5 3.3 0.3 2.6 2.4 1.4 0.2 2.6-4 0-1.3-1.7-0.8-4.5-1.1-0.9-1.7 0.9-1.7 5.1-3.8 8.2-6.2-9.3-3.6-8.2-7.3-4.7-9.8 0.7-10.5 8.6 1.7 7.3 5.6 2 0.7 6.3 3.6 7.5-1.1 4.5-3.3 0.3-7.1-5.2-2.2-3-6.3 4.6-3.4 1.1-2.7-3.8-7.4-10.1-8.2-8.9-11-10.4 12.1-5.8 7.9-2.5-4-0.4-3 0.6-3.3 0-4-1.2-3-26.4-26.4-2.8-3.8-6.2-5.4 0.1-3.5-0.8-4.1-5.5 0.6-4.7-3.1-2.8-6 1.5-6.5 7.9-3.7 8.1-0.8 3.3 2.6 1.8 0.4 8-11.1 2.5-2.3 3.4 0.9 7.1-2.3 5.7 1.9 1.1 8.9 2.5 8.3 7.8 5.4 7.3-2-2.3-1.6-1.4-3.1 13.9-3.9 2 1.6 1.6 5.7 2.8 3.8 5.6 3 2.5 6.9-1 4.8 1.7 3.9 2.6 3.3 8.4 5.7 3.3 0.9 3.6-1.1 1.4-1.1 2.6-3.4 5.3-1.8 2-1.8 0.8-4.6 1.3-1.8 26.1-17.7 0.8-3.8 0-1.4 2.1-0.8 1-2.3-0.9-2.6 1.5-1.4 4.4-1.8 1.9-2.8 1.6-3.7 2.6-1.1 4.1-0.5 3.4 11.2 5.7 5.8 4.7 2.2 4.8 0.6 4.5 4.4 2 8.7 1.7 18.5 2.5 10.3 1.4 10.3-0.8 13.8-4.1 10.9z" id="HUN3175" name="Jász-Nagykun-Szolnok" data-id="HUN3175" data-name="Jász-Nagykun-Szolnok">
 </path>
 <path d="M80.4 282.2l3.7 0.9 2.4-0.2 3.1 10.4-0.9 5.8-1.1 4.9-0.3 6.7-4.1-0.9-3.5-0.5-4.1 3.9-4.4-3.7-3.1-9.7-1.7-7.7-1.7-5.4 0.7-2.5 3.7 0 1.8 1.4 9.5-3.4z" id="HUN4903" name="Szombathely" data-id="HUN4903" data-name="Szombathely">
 </path>
 <path d="M92.6 193.6l-4.2 5.7 0.5 5.2-1.1 1.9-8.2-2-5.5 0.1-4.9 3.8-7.1-2.9-4 0.9-8.3-3.4-2.6-1.5 3.5-5.3 1.1-1.1 2.2 1.9 2.8-2.2 5.8-3.1 1.3-1.2 0.8-1.9-0.3-2.9 0.9-2.1 5.4-2.4 6.2 0.7 11.8 4.7 1.8 1.3 1.4 4.2 0.7 1.6z" id="HUN4904" name="Sopron" data-id="HUN4904" data-name="Sopron">
 </path>
 <path d="M234.2 184.8l7 1.6 6.6-0.7 3.1 7.5 1.7 7.2-1.2 4-9.2 5.7-6.2 3.3-9.5 0-5.8 4.3-5.2-3.6-2.1 0.7-4.8-7.6 8.5-6.6 2.8-10.8 14.3-5z" id="HUN4905" name="Gyôr" data-id="HUN4905" data-name="Gyôr">
 </path>
 <path d="M357.3 224.6l-4.9 3.6-3 7.3-7.6-4.6-5.2-6.5 1.4-4.3-1.7-5.5 4-4.3 5.8 0.8 7.5 1.7 4.9 7.3-1.2 4.5z" id="HUN4906" name="Tatabánya" data-id="HUN4906" data-name="Tatabánya">
 </path>
 <path d="M422 257.4l-1 7.7-1 5.5-2 5.6-3.8 3.2-5-0.8-1.8-2.3-1.2-3.2-4.2-5.2 6.2-6.7-2.6-7.3-0.9-7.2 3.8-1.7 4 4.2 4.9 3 4.6 5.2z" id="HUN4907" name="Érd" data-id="HUN4907" data-name="Érd">
 </path>
 <path d="M351.8 279.5l2.9 5.9 4 0 5.5 4.3-1.5 7.7 0 5.5 3.5 4.7 0 6-2.6 5.9-5.2 8.5-4.9-2.5-9 5.5-1.7-6.4-1.7-8.1-4.4-7.6-6.9-7.9 7.2-8.3 8.1-8.1 3.8-6 2.9 0.9z" id="HUN4908" name="Székesfehérvár" data-id="HUN4908" data-name="Székesfehérvár">
 </path>
 <path d="M282 319.1l0.4 13.5-6-2.1-2.8 9.4-3.2 3.1-6.7-1.6-8.1-17.1 2.8-6.7 0.4-5.7-2.8-3.6 0.3-3.7 8.5-0.5 1.7-6.7 4.9-1.6 4.3 4.7 4.6 9.3 1.7 9.3z" id="HUN4909" name="Veszprém" data-id="HUN4909" data-name="Veszprém">
 </path>
 <path d="M115.9 390.5l-9.5 1.8 0-8.5-5.2-3.6-0.6-13.4 11-1.9 7.4 6.7 2.4 16.7-5.5 2.2z" id="HUN4910" name="Zalaegerszeg" data-id="HUN4910" data-name="Zalaegerszeg">
 </path>
 <path d="M144.4 469.1l-3.5 0.9 1.3 6.3-5.7 2.8-7.6-1.1-5.9-4.2-0.5-10-0.2-8.3-0.1-6.3 4.2-0.7 1-8.6 6.1-0.4 1.5 9.3 4 3.9 1.2 7.9 4.2 8.5z" id="HUN4911" name="Nagykanizsa" data-id="HUN4911" data-name="Nagykanizsa">
 </path>
 <path d="M244.5 462.5l4 3.2 9.6-1.2 0 1.2 4.4 12.2 1.3 11.5-4.8 3.8-3.1 7-1.8 5.1-4.8-3.1-5.7 4.4-1.3-12.7-4-11.5 3.5-4.5 0.9-5.8 0.1-5.7 1.7-3.9z" id="HUN4912" name="Kaposvár" data-id="HUN4912" data-name="Kaposvár">
 </path>
 <path d="M328.4 523.1l5.3 13.3 2.2 8.3-1.3 2.5-4.9-1.2-2.6 0-2.6 4.4-1.8 5.1-2.6 4.4-4 2.6-5.3-2.6-5.7-5.7-4.8-3.1 2.2-5.1-2.7-4.5 1.5-8.5 3.1-3.8 6-4.2 6.1 0.6 5.8 1.3 6.1-3.8z" id="HUN4913" name="Pécs" data-id="HUN4913" data-name="Pécs">
 </path>
 <path d="M392.9 474.9l1.7 7.5 5 0 1.4 2.3 0.7 0 2-2.3 2.3 1 0.7 3.3 1.9-1 2-0.4 1.1 1.5 0.3 2.1-1.4 2.5-3.4 0.1-7.3-2-3.3-0.4-3.6-1.2-3.3-1.4-1.4 2.1-1.4 3.5-2.4 3.6-2.9-1-1.9-1.6-1-6-1.4 1.8-3.2 1.9-1.4-1.8-0.9-2.3 0.4-2.9 1.5-3.1 3.1-2.8 2.2-3 2.7 0.9 3.8-0.6 1.3-4 3.4-0.6 2.7 4.3z" id="HUN4914" name="Szekszárd" data-id="HUN4914" data-name="Szekszárd">
 </path>
 <path d="M523.7 342.6l6.7 6.8 11.3 7 4.7-0.2 2.6 0.7-0.2 5.9-4.6 3.4-5.2 0-4.4 6.7 0 9.8-4.6 8.8-5.8-4.6-3.4-12.3-4.9-8.9-2.9-8-2.6-6.8 0.8-5.1 2.1-3.8 7.5 3.8 2.9-3.2z" id="HUN4915" name="Kecskemét" data-id="HUN4915" data-name="Kecskemét">
 </path>
 <path d="M607.5 491.9l1.3 2.9 0.6 2.8-1.1 3 3.7 2.8 3.2 0.8 0.3 5-4.1 0.3-5.1-1-1.8 3.2 0.3 3.4 2 3.7 2.9 2.6-0.3 4.6-3.4 0.8-2.6-5.4-3.5-4.2-3.5-0.4-2 2.5-1.9 7.6-2.4-0.6-1.4 0.2-3.7 1.9 0.8-15 1.4-2.5-1.4-5.4-8.7-2.5 0.6-11.3 5.7-3.8 8.7 1.7 5.2-5.9 2.9 2.9 2.9 5.5 4.4-0.2z" id="HUN4916" name="Szeged" data-id="HUN4916" data-name="Szeged">
 </path>
 <path d="M661.8 463.8l-0.1 9 4.7-1.3-2.6 5.9-2.5 6.1-5.2 6.3-4.1 11.7-6.9 5.5-8.7-0.9-6.3-3.3-6.4 0-8.5 1.4-3.2-0.8-3.7-2.8 1.1-3-0.6-2.8-1.3-2.9-0.8-3.2 0.7-3.5-1.8-1.6-0.8-2.2-0.5-4.9-0.9-4.5-0.1-5.1 1.5-7.2 3.3 2.4 2.6 8.8 3.5-5 2.9-12.6 2.3-5 5.2 0.4 6.3 2.1 12.7-5.1 5.2 3.4 4.9 5.9 5.2 5.4 2.9 3.4z" id="HUN4917" name="Hódmezôvásárhely" data-id="HUN4917" data-name="Hódmezôvásárhely">
 </path>
 <path d="M583.9 312.3l3.9-9.9-5.2-8.6-3.7-2.6 5.8-7.9 10.4-12.1 8.9 11 10.1 8.2 3.8 7.4-1.1 2.7-4.6 3.4 3 6.3 5.2 2.2-0.3 7.1-4.5 3.3-7.5 1.1-6.3-3.6-2-0.7-7.3-5.6-8.6-1.7z" id="HUN4918" name="Szolnok" data-id="HUN4918" data-name="Szolnok">
 </path>
 <path d="M753.2 409.1l-5.8 7.1-9.2-0.4-6.9 1.3-8.1 0.1-1.8-11.4-2.3-11 6.4-6.7 6.1-11 14.1 6.6 6.7 9.7-1.8 8.5 2.6 7.2z" id="HUN4919" name="Békéscsaba" data-id="HUN4919" data-name="Békéscsaba">
 </path>
 <path d="M637.7 133.9l1 4.5 2.8 3.1 2 3.4 0.6 4.3-2.5 4.1-5.1 1.3-3.3 3.5 0 6.3-3.2 4.1-6.5 0-3.3-8.3 0-9.1 1.9-9-1.9-8.3-0.9-7 3.7-2.1 2.3-7.7 7 1.4 1.4 4.2 0 6.3 4 5z" id="HUN4920" name="Eger" data-id="HUN4920" data-name="Eger">
 </path>
 <path d="M561.7 99.7l-5.9 6.3-7.1 5-4.1 7.2-11.5-2.2 2.2-8.9 1.1-9 4.9-6.1 1.4 2.1 1.4 0.2 5.3-2.1 3.6 1.2 5.6 5.1 3.1 1.2z" id="HUN4921" name="Salgótarján" data-id="HUN4921" data-name="Salgótarján">
 </path>
 <path d="M648 114.9l0.5-5-0.8-5.2-2.5-2.6 4.8-5.8 7.8-0.6 7.1-6.1 15.4-11.7 6.3 4.5 5.2 0 5.6 3.3 4.1 6.2 3 8.3 0 6.7 3.3 6.2 0.7 5-4.8 5.6-7.4 2.2-6 0.6-7.8-5.1-7.8-5.5-4.9-6.7-8.9 0.5-7.4 1.7-5.5 3.5z" id="HUN4922" name="Miskolc" data-id="HUN4922" data-name="Miskolc">
 </path>
 <path d="M840 121.9l0 6.7 7.8 0.6 3.7-2.8 3 3.3 0.4 7.8-0.4 8.4-4.8 1.1-0.4 7.8-3.3 7.2-8.2 1.7-4.9-3.4-10-2.7-8.9-2.8 1.1-13.4 1.1-11.1 1.3-4.7 2.6-5 7.5-0.5 2.6 2.8 5.6-3.9 4.2 2.9z" id="HUN4923" name="Nyíregyháza" data-id="HUN4923" data-name="Nyíregyháza">
 </path>
 <path d="M800.9 197.5l2.2 1.7 1.9-6.7 7.5-1.1 2.6 10 3.3 9.9 4.1 5.6 6.7-3.9 4.9-6.1 5.2-1.6 5.6 7.1 4.8 8.9-0.4 13.8-3 8.3-10 11.6-6-6.1-5.6 1.1-8.1 10.5-9 0-1.8-8.8-3.8-2.8-4.6-2-3-10.5-10 0-0.4-11 3.3-12.7 6.2-18 6.3-6.6 3-2.2-1.9 11.6z" id="HUN4924" name="Debrecen" data-id="HUN4924" data-name="Debrecen">
 </path>
 <path d="M421.9 346.3l0.8 3.8 1 8.9-0.1 4-2.6 2.9-1.5 2.7-1.1 3.1-0.5 2.6-0.2 3.6-12.1-8.6-2.3-7.2 2-11.9 8.1-8.4 8.5 4.5z" id="HUN4925" name="Dunaújváros" data-id="HUN4925" data-name="Dunaújváros">
 </path>
 <circle cx="349.1" cy="370.6" id="0">
 </circle>
 <circle cx="482.3" cy="525.1" id="1">
 </circle>
 <circle cx="263" cy="333.3" id="2">
 </circle>
</svg>