<?xml version="1.0"?>
<!--
************* Copyright (c) 2017 Pareto Softare, LLC DBA Simplemaps.com *******************		
************* Free for Commercial Use, full terms at  http://simplemaps.com/resources/svg-license ************
************* Attribution is appreciated! http://simplemaps.com ***************************
-->
<svg baseprofile="tiny" fill="#7c7c7c" height="1484" stroke="#ffffff" stroke-linecap="round" stroke-linejoin="round" stroke-width="2" version="1.2" viewbox="0 0 1000 1484" width="1000" xmlns="http://www.w3.org/2000/svg">
 <path d="M221.9 1479l-2.7 1.5-1.7-0.2-0.8-0.5-1.6 2.7-1.3 0.5-1.3-2.2-0.2-0.7 2-3.3 6.1-4 3.5 0.2 0 3.3-2 2.7z m-53.6-658.2l0.2 4.7-5-1.3-2.8 0.6 0.1-1.6 2.3-0.2 0.8-0.8 0.1-1.2 2.1-3 2.7 1.5-0.5 1.3z m11.4-25.2l4 2.4 1.8 0 2.2 1.1-0.5 1.8-7.5 2.4-5.8-0.1-2.4-4.8 1-1.3 1.8-1.3 2.1-0.7 3.3 0.5z m-37.8 3.3l-0.2 3.6-1.4-0.6-0.4-3-4-1.9-0.3-1.3 1.3-1.3 1.1 0 0.5-0.9 1 0.4 0.6 2 1 0.6 0.8 2.4z m-29.6-185.5l-15.7 0.7-0.7-1.1-0.2-2.6 0.6-1.2 10.2-4.1 4.2-4.1 1.7 0.8 2.4 2.4 2.9 1.7 1.3 1.4-0.4 1.5-2.3 2.6-4 2z" id="IRL99" name="" data-id="IRL99" data-name="">
 </path>
 <path d="M693.9 1153l8.7 6 2.8 2.7 4.4 6.6 7.3 8.4 6.5 5.6 3.4 2.2 2 0.6 1.7-1.6 3.6-5 2.1-1.5 1.7-0.5 2.9-0.2 3.2 15.5 8.5 8 10.6-1.5 4.9 1.5 6.2-5.8-7-12.5 5.1-3.5 3.4-1.4 0.9 1.4 0.3 1.9 0.2 3.6 0.7 1.7 3.1 6.1 0.7 3.6-2.8 9 0.5 3.5 5.5-0.1 0 2.5-3.5 2.9-6.4 8.9-3.9 3-5 1.2-10 0.3-4.8 1.2 1.3-4 6.3-8.6-4.9-2.2-2.7-0.4-3.1 0.4 0 2.2 1.2 1.1 1.9 3.9-2.3-0.4-2.9-1.7-1.7-0.4-2.8 0.9-1.5 2.2-1 2.4-1.4 1.9-4.5 2.1-4.1 0-8.4-2.1-42.7 4.6-15.3 8.4-8.3 1.9-1 0.9-0.9 1.9-1.2 1.7-2.2 0.4-1.5-1.4-1-2.5-0.6-2.4-0.7-1.1-3.9 1.2-4.2 3.2-2.7 4.7 0.8 6 2.2-2.8 3.4-0.5 4.1 1.1 6.6 3 1.6 0.4 0.4 1.5-1.3 4.5-7 5.1-0.9 11-0.8 2.5-1.8 0.8-2.2 0.4-1.9 1.5-4.2 2.5-11.8-1.3-4.6 2.4-1.9 5 0.1 3.7-1.3 1.9-23.6-3.2-0.7-1.5-0.4-3.3-1-3.3-2.5-1.6-0.4 1.1-3.3-0.8-8.7 0.1-1.5-0.2-1-1.1-0.9-1.5-1.1-5.9-1.8-3.1-6.4-6.9-2.9-1.7-2.2-1.7-1.1-1.3-2.4-1.8-1-1.4-1-2.5-2.5-9.5-1.5-3.9-2.9-4.4-3.5-3.2-0.8-1.1-0.1-3.7-0.5-1.5-1.6-0.8-2.7-0.9-2.4-1-8.9 0.5-2.6-0.9-0.6-1.2 0.5-2.7 1.3-3.7 3.5-8 1.1-3.3 4.4-5 19.8 0.8 2.1-0.7 2.3-1.1-0.3-4.3-0.1-1.7 0.4-1.7 1-2.2 1.9-0.8 7.2-0.6 2.4 0.4 1.6 0.6 1.7 1.6 1.6 0.9 2.2 0.8 29.5 3.1 3.1-0.8 1.6-1.2-0.5-5.6-0.5-3-0.5-2.6-0.8-2.3-1.9-1.6-3.6-1.4-0.6-0.8-0.9-5.4-0.2-7.9-0.3-2.9 0.2-1.9 0.7-2.3 1.8-2.6 1.7-1.1 1.6-0.4 6.2-0.2 32.7-5.9 14.9 2.1 8.8 3.3 26.7 3.5z" id="IRL1444" name="Waterford" data-id="IRL1444" data-name="Waterford">
 </path>
 <path d="M862.9 518.1l5.9 1.5 1.9 1 0.9 1 1.1 2.3 1.6 5.2 0.2 1.5-0.2 5 0.6 2.2 0.1 1.7-0.4 1.9-1.4 2.4-2.4 1.2-1.6-0.1-1.2-0.6-1.9-1.6-2.4-0.8-1.7 0.7-2 1.6-3 3.8-1.2 2.4-0.4 2.9 0.2 3.5 0.6 1.5 1.1 1.4 0.1 2.2-0.6 1.7-11.5 7.2-9.4-4.3-4.9 1-13.7-8.2-3.7-3.6-1.6-5-0.9-2.4-8.2-14.7-2-2.7-1.6-1.7-1.4-0.5-4.5-3-19.8-20.3-1.4-2.3 1.3-2.3 0.2-1.8-0.8-0.9-1.3-0.3-5.7 0.8-1.2 0.6-3 2-1.5 0.4-1.9 0-5.6-1.7-1.9-0.2-1.3 0.4-1.1 0.7-1.7 1.6-1.5 0.4-2-0.1-15.6-4.8-1.4 0-2.7 0.8-4.9-0.7-13.3-5.7-0.7-0.7 1.4-0.1-5.1-10.7 0-2.5 1.6-2 6.8-4 0.7 0.9-0.6 2.8-0.3 3.4 0 4.3-0.3 3.5 0.8 1.5 3.1-1.6 2.1-2.3 1.6-3.3 0.6-3.9-1-3.8 4.3-2.2-0.2-2-2.1-1.8-1.1-1.5 1.3-3.8 1.4-2.5 1.8-1.9 2.5-1.9 12.2-3.3 4.8-3.1-1.4-6.3 3.1-4.3-8-6.7 1.4-5.3-7.5-3.8-0.5-4.1 1-0.2 1.7 0.5 1.5-1.5 1.7-3.5-0.6-0.8-0.9-2-0.5-2.3 0.3-1.8 1.5-0.9 3.9 0.8 1.8-0.1 7.4-5.6 10.8-17.1 6.5-6.5 7-0.6 7.5 3.9 13.8 11.6 1.5 2.6 2 6.4 1.8 1.1 2.7 0.2 1.4 1.6 4.7 13 0.4 5.6-1.8 3.8-3.9 2.1 7.9 4.1 2 2.3 1 3.2 0.8 3.7 1.3 3.8 3.7 6.1 4.3 5.1 4.8 4 4.8 3.1 2.7 0.3 1.8-1.9 1.6-2.5 2.4-1.5 2.7 0.4 2.4 1.4 4.6 4 5.1 6 1.2 6.8-2 6.9-5 6.5 2.3 4.4-0.3 4.3-3.4 8.9 3.4 2.8 5.9 7.3 3.2 1.7 1.2-0.7 1.3-2z" id="IRL3412" name="Monaghan" data-id="IRL3412" data-name="Monaghan">
 </path>
 <path d="M342.7 812l0-2.5-17.7-2.6-4.4 0.8-7.8 3.5-9.5 0.8 0.6-9.3 7-8.5 10.1-8.3 15.2 6.9 11.1 5.4 2.8 13.9-7.4-0.1z" id="IRL5568" name="Galway" data-id="IRL5568" data-name="Galway">
 </path>
 <path d="M466 1313.2l-4.5 0.6-4.6 2.6 7.4 2.8-4 8.9-10.2 0-11-0.7-7.6-5 2.7-12.3 8.4-7.9 11.5 2.2 11.9 8.8z" id="IRL5569" name="Cork" data-id="IRL5569" data-name="Cork">
 </path>
 <path d="M426.1 1028.3l1 12.9-5.3 6.5-12.9-2.2-4.6-8.5 6.2-2.3 0.6-1.1 0.7-5 1.1-1.7 1.8-0.2 1.6 2.2 1.2 0.7 3.3 0.1 2.8-0.4 2.5-1z" id="IRL5570" name="Limerick" data-id="IRL5570" data-name="Limerick">
 </path>
 <path d="M767.4 1181.5l7 12.5-6.2 5.8-4.9-1.5-10.6 1.5-8.5-8-3.2-15.5 5.3 2.6 6 3.8 2.9 1.1 2.1 0.4 1.2-0.4 4.3-0.4 2.5-0.8 2.1-1.1z" id="IRL5571" name="Waterford" data-id="IRL5571" data-name="Waterford">
 </path>
 <path d="M693.9 1153l-26.7-3.5-8.8-3.3-14.9-2.1-32.7 5.9-6.2 0.2-1.6 0.4-1.7 1.1-1.8 2.6-0.7 2.3-0.2 1.9 0.3 2.9 0.2 7.9 0.9 5.4 0.6 0.8 3.6 1.4 1.9 1.6 0.8 2.3 0.5 2.6 0.5 3 0.5 5.6-1.6 1.2-3.1 0.8-29.5-3.1-2.2-0.8-1.6-0.9-1.7-1.6-1.6-0.6-2.4-0.4-7.2 0.6-1.9 0.8-1 2.2-0.4 1.7 0.1 1.7 0.3 4.3-2.3 1.1-2.1 0.7-19.8-0.8 0.6-3.1-0.1-1.1-0.6-1.4-6.8-1.9-3.3-1.9-1.2-1.3-1.2-2.2-1.1-4.9-1.5-4.9-3.8-3.4 5.8-7.9 0.7-3.5-1.6-1.7-2.4-1.4-1-1.2 0.2-2.3 2.1-8.8-0.2-2.5-0.9-1.4-6.1-0.4-1.8-1.4-1.8-2.7-2.9-6.5-1.6-2.7-1.6-1.6-4.2 0.4-1.7-0.4-8.8-8.4-1.9-1.2-1.7-0.6-2.7 0.3-1.4-0.1-2.6-0.8-2-0.4-1.1 0.2-1.9-1-2.5-2.4-0.7-1.8 0-1.3 1-2.7 0.6-5.7 0.9-2.4 0.6-1 2.7-2.3 2.1-2.5 1.3-0.8 1.1-0.3 2 0.7 0.7 0.9 0.3 2 0 5.5 0.3 1.5 0.8 0.9 1.2 0.3 1-1 0.8-1.8 0-4.5 0.2-3.2 3.9-2.6 3.4-1.6 2.6-0.6 1.4 0.1 2.5 0.7 2.5 0 1.9-1.2 0.8-1.5 0.6-2.6 0.4-5.1 0-5.5-0.4-3.2-0.7-3.5 0.2-1.6 0.6-1.2 1.6-1.7 0.8-1.6 0.6-2.2 0.8-7.3 0.4-2 2.4-6.1 0.7-3.5 1.1-6.7 10.3-4 9.2 0 12.4 13.6 19.5 23.7 7 4.5-2.5 12.4 0.3 1.7 0.9 0.4 1.2-0.4 0.8-1.3 3.2-13.4 3.3 2 11.5 0.8 14.8-5.9 17-10 12.4-19.8 1.4-8.6-2.5-7.2-0.1-7.1 4-5.7 5 1.9 1.1 0.6 4 2.9 4.4 2.4 1.7 1.8 1.4 2.2 10.5 21.8 6.3 7.4 1 3.2 0 5.2 0.5 1.7 1.2 1.1 2.3 1.5 0.7 1.5 0.3 2-0.2 3.7-0.8 8.9 0.2 6 0.4 1.5 0.6 1.2 1.5 0.5 3.5-0.5 0.8 0.7 0.5 1.2 0 2.8-0.2 2-0.9 1.8-1.8 1.6-3.3 1.9-1.5 1.5-1.1 2.1 0.1 1.2 1.1 1.1 4.3 2.9 1.5 1.8 1.4 2 6.5 6.9 0.7 1.6 0.5 2.3-0.2 7.2-0.4 3.6-0.2 3.2 0.9 4.7 4.7 12.3z" id="IRL5572" name="South Tipperary" data-id="IRL5572" data-name="South Tipperary">
 </path>
 <path d="M920.2 775.6l-3.8 1.9-2.8 4.6 1.4 2.8 6.1-1.4 2.2 4.2 8.3 2.3 5.3 4.2 1.9 7.4-1.1 5.1-3.1 4.2 0.6 7-0.6 6-0.6 4.7-1.4 0.3-1.9 1.7-0.9 1.7-0.4 1.6-0.3 3.1-0.9 2.7-1.3 2.3-1.7 1.6-1.5 0-2.1-0.8-3.3-3-1.2-1.9-0.6-2 0-1.4-2.3-1.8-2-1.3-18.8-5.3-1.4-3.9-2-1.8-1.2-0.4-6.1-0.1-1.2-0.4-0.5-1.1 0.2-1.4 1.5-1.7 2-2.2 0.1-1.2-0.7-1.4-0.8-0.8-2.6-1.4-0.8-1.7-0.1-2.6 1.4-6.1 1.3-3.7 2.5-4 1.1-1.3 1.7-1.6 0.5-1.2 2.1-9.6 2.2-4.7 4.3 2.4 3.1-0.4 2.5-3.3 4.7 0 3.6 1.4 2.5-1.4 3.9 0 3 5.1z" id="IRL5573" name="South Dublin" data-id="IRL5573" data-name="South Dublin">
 </path>
 <path d="M996.4 730.4l-1.2 1.2-3-1-2.1-2.7 1.3-2.4 5.1-0.4 1.3 2.3-1.2 1-0.2 2z m-32.2 35.1l-1.6-12.2-13.3-1.4-3.3 5.1-5.3 0.5-6.1-2.3-6.6 6-6.9 9.3-0.9 5.1-3-5.1-3.9 0-2.5 1.4-3.6-1.4-4.7 0-2.5 3.3-3.1 0.4-4.3-2.4 3.4-7 8.6-8.8 3-4.8 1.2-2.9 2.4-2.3 7.4-2.9 1.3-1.1 0.6-1.4-0.1-1.2 0.4-1.8 0.9-2.2 2.4-4.7 0.7-2.7 0-2-0.7-1.3-3.6-3-1.3-1.9-1.1-2.3-1.8-1.6-4.6-2.3-1-0.7-2.4-2.7-1-0.8-0.9-1.3-0.8-1.8-0.6-3.1 0.2-2.1 0.6-1.9 1.2-2.1 5.1-5.9 1.2-0.8 2.8-0.5 3 0.2 1.3 0.5 1.1 0.8 2.5 4.1 0.8 0.8 1.2 0.1 2.3-1 3.3-3.4 4-2.4 2.1-2 1.3-2.3 2.5-7.3 1-2.1 1-1.2 1.9-0.2 2.7 0.4 1.9-0.1 2.4-1 1.1-1.1 2.4 1.7 3.9 9.2 6 4.1 6.7 3.3 4.5 3.2 1.8 3.5 1.6 5 0.5 5.6-1.5 5.1-3.8 6.1-1 2.5-0.5 2.9-1.6 3.2-2.6 6.8-2 2.8-1.7-3.8-3.9-0.6-4.5 1.6-3.6 2.8 14.3 6.9 1.1 4.1 0.8 4.4 2 2.7-3 5.1 3.6 1.8 9.2 0.6 4 2.7-2.4 6.7-2.8 0.2-3.1-2.7-3.1-1.7-0.9-0.8-2.8-3.7-0.9-0.8-2.1 0.4-3.9 1.9z" id="IRL5574" name="Fingal" data-id="IRL5574" data-name="Fingal">
 </path>
 <path d="M959.5 780.4l-1.6 3.1-1.7-1.6 1.4-2.9 2.4-2.4 0.9-0.4 3.8-2.5 3-1.1 1.8 0.6-2.7 0.8-2.1 2.4-2.2 1.3-3 2.7z m4.7-14.9l-1.6 0.5-13 10.2-0.6 4 1.5 3.2 5.2 5.5 1.7 2.5-12.8 0-7.7 2.8-5.3-4.2-8.3-2.3-2.2-4.2-6.1 1.4-1.4-2.8 2.8-4.6 3.8-1.9 0.9-5.1 6.9-9.3 6.6-6 6.1 2.3 5.3-0.5 3.3-5.1 13.3 1.4 1.6 12.2z" id="IRL5575" name="Dublin" data-id="IRL5575" data-name="Dublin">
 </path>
 <path d="M977.8 833.5l-3.6 1.8-2.3 2-2.1 0.7-3.1-0.9-9.7-5.6-1.5-0.3-1.8 0.1-6.6 3.5-1.8 0-2.2-0.5-3.8-1.9-1.9-1.3-2.2-2-1.2-0.5 0.6-4.7 0.6-6-0.6-7 3.1-4.2 1.1-5.1-1.9-7.4 7.7-2.8 12.8 0 2.7 4 2.9 2.6 6.3 1.5 2.3 1.9 1.7 0.4 2.7 1.4 0 2.9-1.9 4.6-0.3 8.2 0.4 5.1 1.3 5.5 2.3 4z" id="IRL5576" name="Dún Laoghaire–Rathdown" data-id="IRL5576" data-name="Dún Laoghaire–Rathdown">
 </path>
 <path d="M942.9 637l-14.1 5.2-2 0.2-21.5-1.1-6 0.9-1.5-0.4-1.3-1.3-1.4-3.7-0.2-2.2 0.4-1.7 0.5-1.1 2.9-4.3 0.5-1.2 0-1.3-0.8-1.2-2.3-1.1-1.8-0.4-7.6-0.1-2-1.1-4.2-4.1-1.9-4.2-0.8-1.3-1.1-0.8-2-0.8-1.5-1.3-1.3-2.8-1.5-4.9-2.4-4.7-0.4-2.7 0-3.1-0.1-1.5-0.6-2.7-4.4-4.1-17.2-11.3 11.5-7.2 0.6-1.7-0.1-2.2-1.1-1.4-0.6-1.5-0.2-3.5 0.4-2.9 1.2-2.4 3-3.8 2-1.6 1.7-0.7 2.4 0.8 1.9 1.6 1.2 0.6 1.6 0.1 2.4-1.2 1.4-2.4 0.4-1.9-0.1-1.7-0.6-2.2 0.2-5-0.2-1.5-1.6-5.2-1.1-2.3-0.9-1-1.9-1-5.9-1.5 1.1-1.7 1.1-1.3 1.8-0.4 3.4 1.5 1.7 0.2 19.1-7.1 6.1-0.3 1.1 2.3 1.3 1.7 1.4 1 1.6-0.1 5.7-2 5.2-0.9 1.5-1.4 0.9-3.1-0.2-3.2-0.3-2.9 0.2-2.4 3-5 1.8 0.3 1.7 2.6 2.7 1.9 2.9-0.7 3.2-1.6 3.3-0.5 3.3 2.8 14 13.8 3.5 1.8 1.5 1.2 3.2 5.3 1.4 1.2 4.7 0.5 2 0.7 1.6 1.2 4.3 6.3-0.8 4.7-7.3 8.6-3.8 1.5-5.5-2-5.3-3.3-3-2.6-3.2 0.6-15.6-6.9-11.7-1.5 0 2.8 2.7 1.9-1.4 3.5-2.8 5-1.4 6.3-1.2 11.2-0.2 6.8 1.4 6.6 4.9 6.8 7.4 3.9 16.5 2.2 0 2.8-2.4 6.7-0.2 6.7 2.2 5.8 5 4-4.6 5.2-1.1 10 0.6 9.9z" id="IRL712" name="Louth" data-id="IRL712" data-name="Louth">
 </path>
 <path d="M162.6 859l2.7 0 5.4-1.1 4.2 0.6 5.7 2.3 1.7 2.7-1.9 2.7 0.1 2.5 5.2 2.8 0.7-0.4 0.9 0.4-0.3 2.9-4 1.2-26.3-12.2-7.3-5.2 2.3-3.3 5.2-0.2 5.7 4.3z m20.8-36.1l-7.5 2.3-4-4.6-0.8-5.4-1.2-2.7-0.2-2.1 2.2-3.5 2.5-1.9 3.2-0.7 2.9 0.7 2 1.9 5.4 9.1-4.5 6.9z m358.9-16.3l0.3 1.3 2.9 4.1 12 9.4 1.8 4.4-1.6 6.4-4 3.8-9.7 3.9-8.5 6.1-4 2.8-5 1.2-4.6 2.5-3.7 6-6.2 14.6-3.7 6.8-1.8 3.1-2.2 2.5-6.1 4.8-2 2.1-1.1 1.7-0.7 2.9-2.7 5.2-7.1 10.7-1 3.6-8 2.9-3.7 0-8.9-2.4-2.1 0.3-1.9 0.8-2.4 1.4-2.6 0.1-7.6-1.8-3.9-1.9-1.1-2.2-0.6-2.6-1-2.8-2.5-2.3-5.1-2.6-7.5-5.5-2.3-0.8-2.8-0.3-15.7 1-2.5 0.8-3.8 2.1-3.9 1.2-1.1 0.7-1.6 1.9-1.4 2.2-1.2 2.3-1.3 2.1-0.8 0.8-3.9 2.8-3.1 3.1-2.8 1.4-2.1 0.3-2.5-0.1-1.8-0.5-1.5-0.9-1.6-1.2-1.1 0.2-1.5 2.3-1.5 1.5-2.3-0.2-3.3-1.8-0.9-1.2-0.9-2.4-0.7-4-0.1-1.9 0.4-1.1 1.8-3 0.3-1.2-0.7-2.4-1.2-2.1-0.6-2.7 0.4-4.3 0-1.5-0.8-2.5-0.8-0.9-24.1-13.9-1.6-1.5-1.9-3.1-0.7-2.5-0.3-3 0.1-1.4 1.1-2.2 2.6-1 0.8-1.6 0.2-2.2-0.7-0.5 0-1.9-9.2-5.3 0-2.8 5.1 2.4 2.9 0.5 2.6-2.9 2.5-1.2 1.8 0.5-1.2 3.5 2.2 3.1 2.4 2.3 2.7 1.5 3.3 0.7-2-7.5-1-2.9-1.6-2.2 2.9-5.7 3.5-4 7.4-5.6-2.3 0.1-4.2 1.8-1.9 0.4-22-0.7-3.1-1.6 3.9-2.4 10.1-2.6 4.4-0.3 0-2.5-6.3 0 0-2.3 2.1-1.9 5.8-1.7 2.9-1.5 7.4 0.1-2.8-13.9-11.1-5.4-15.2-6.9-10.1 8.3-7 8.5-0.6 9.3-62.7 5.1-7 3.5-3.3 2.5-5 1.4-9.2 0-4.8-2.3-2.5-3.4-1.9-3.6-3-3.2 4.3-6.4-1.7-4.4-3.7 0.1-2.1 6.9-1 8-2.6 4.8-3.4 0.6-3.6-4.5 0-2.8 4.3-7.7-1.8-16.8 4.4-3.2 2.9 1.9 1.7 0.4 0.8-0.8 1.5-3.5 1.3-2.2-9-8.8 2.4-2.8 8.3-4.8-8-0.4-3.9 0.6-3.4 2.3 2.9 4.5 0.5 6.4-2 5.5-4.3 1.7-4-4.2 1.1-6.9 2.2-6.6-0.1-2.9-1.3-0.8-0.9-1.4-1-0.6-1.4 1.4-3 3.9-2.7 1.3-1.8 2.8-2.4 5.9-5.4 9.6-3.4 4.3-10.5 4.8-3.7 0-3.7-4.4-4.3-3.7-9.7 2.3-3.5-2.5 0.9-1.5 1.2-4.7 0.4-4.2 0.8-2.8 1.6-1.4 1.9-0.6 3-0.1 3.7-1.1 9.1-6.2 3.3-3.1 0-2.3-7.7 0 0-2.8 4.7-2.3 0-2.6-3.3 0-2.5 1.1-5 3.8 0.2 2.6-3 2-3.4-0.4-1.2-4.2 1.2-3.4 4.3-3.1 1.9-3.7-2.8 0.5-1.7 1.8-1.6 2.1-2.1 0.9-2.1-0.7-1.9-1.4-2-0.3-2.5 2.4-0.6 3.7 0.6 4.2 0.1 3.4-2.4 1.5-2.5 0.4-3.8 1.7-8.8 0.2-2.9-0.8-2.6-1.5-2.3-3.2-1.3-3.3-1.7-2.7-3.1-1-8.9 1.6-5.4-0.6-3.1-3.6-1.9 1.7-1.8 0.8-4.1 0.1 2-6 2.4-4.1 3.3-2.3 4.6-0.6 8.5 1.8 3.4-0.5 3.3-3.6 0-2.8-2.6-0.3-2.1-1.5-1.7-2.4-1.2-3.4 4.9 0.8 5.4 2.5 4.5 0.8 1.9-4.1-4.4 0.4-8.3-1.7-8.5-3.6-4.6-5.4-0.2-2.4-1.3-4.4-1.8-4.3-2.2-1.9-6.4 1.9-2.6 0.2-2.2-2.1 5.1-4.4 5.2 0.1 5.4 1.7 5.6 0.3-0.5-1.7-0.7-4.3-0.5-1.7 9.9 0.1 10 2.7 1.3 1.4 3.2 5.8 2.2-1 3.1-4.7 2.4-1.5-13.6-9.1-3.3-4.6 8.5-1.9 17.3 1.7 6.4-1.7 7.6-4.8 3-0.3 2.3 1 4.7 3.4 10.7 1.9 17.4 1.1 0-1.6 24.5-0.2 1.7-0.5 2-1.4 1.4-0.5 1.4 0 1.3 1.6 0.5 1.7 0.6 4.7 1.5 1.9 1.3 0.4 6.1 1 2.2 1.4 2.5 2.5 4.6 2.2 2.8 0.6 21.2-1.4 2.3 0.7 0.2 2.6-0.7 2.8 0.2 1.2 0.7 0.9 1.9 0.5 8.2 0 2.1 0.8 1.2 1.2 0.7 4.2 1.5 3.7 1.5 2.2 2 1.4 3.3 1.5 0.9 0.8 0.8 1.4 1.6 3.4 1.6 1.6 2.3 1.2 3.8 1.5 1.7 0.1 7.1-1.8 1.7-0.1 1.9-0.5 2.1-1 5.2-4.3 1.9-2.1 3.6-5.7 8.9-11.4 1.2-2.6 0.3-2-1.4-2.1-0.5-1.2 0-1.3 0.8-1.1 1.3-0.9 2.5-1.1 1.5-1.1 0.8-2.3 0.3-1.7 0.8-1.9 4.3-4.7 2-3.7 1-4.2 0.3-4.6 1.4-1.3 2.4-0.8 14.8 0 9.3-2.5 6.8-4.3 3.5 2.8 8.5 0.2 5-0.9 1.1-0.5 17.5-4.5 1.9-1.7 0.5-1.1 0.7-2.8 1.3-1.4 2-1.4 7.3-3.3 5.4-3.4 2-0.5 1.7 0 2.7 0.8 15.1 0.5 2.8 0.9 1.9 1.4 1.1 1.2 0.4 1.4 0 3.5 0.3 2.6 1.1 2.3 1.9 1.7 2.3 1.2 5.9 1.6 1.8 0.9 4 2.6 1.1 1.2 1.2 2.2 0.1 1.2-0.6 1-1.1 0.5-4.5 0.4-1.3 0.4-0.7 0.9-0.1 1.2 2.2 3.5 0.7 1.4 0.3 1.4 0.7 1.7 1.3 1.7 5.3 3.2 5.3 4.9 8.2 5.9 1 1.3-1.9 0.3-0.9 0.5-0.2 1.2 0.2 1.3 3 7.2 0.5 1.9 0.2 2.1-1.1 3.9 0 2.9 1.3 4.2 0.5 2.4 0.1 1.4-0.3 2.8 0 1.6 0.7 1.6 4 6.4 2.4 2.8 0.8 1.8-2.1 2.6-0.4 1.3 0.1 1.7 0.7 1.9 3.4 4.3 0.8 1.5 1 2.3 0.2 1.3-0.2 1.2-1.8 3.5-0.9 2.4-0.3 1.7 0.2 1.8 0.7 2.4 1.6 1.7 2.1 1.7 4 2.5 2 1.5 1.3 1.5 0.7 2.3 0.1 2-0.4 4.3 0.4 2.1 1 2.6 2.9 4.4 1.8 1.9 1.6 1.4 2.4 1 12.8 1.1 7.9 0.2z" id="IRL713" name="Galway" data-id="IRL713" data-name="Galway">
 </path>
 <path d="M117 528.9l4.6 10.1-4.6 0 0.6 3.1-0.1 2.9-0.7 2.6-1.3 2 0 2.8 2.6-1.5 2.5-0.8 2.2 0.3 1.8 2 0 2.6-1.8 2.9-1.4 6-0.7 6.6 0.9 5.1-4.8 4.5-4.2-2.4-4.3-5.3-5-4.5-2.9-0.3-3 0.6-2.3-0.6-1-3.7 0.5-5.6 0.7-4.3-0.3-3.5-2.4-3.3-4.6-1.4-16.8 3.8-6.1-0.9-11-4.2-5.9-0.1 0-2.6 5.8-0.2 4.8-1.4 3.8-3.8 2.6-7.5 1.7 2.2 1.9 0.7 1.9-0.8 2-2.1 4.8 5.9 5.7-1.6 5.6-4.4 4.5-2.5 19.5 0.6 4.2 2z m183.2-56.6l0.5 2 5.5 5.4 1.3 0.9 1.5 0.5 4.8 0.3 1.7-0.3 1.2-0.5 0.9-0.9 1-2.3 1.1-0.8 2.5-0.9 1.5-0.2 14.7 3.3 1.8 1.1 1.3 1.3 1.7 4 0.9 1.6 2.8 3.9 0.5 1.8-0.3 1.3-0.9 0.8-3.8 1.3-1 0.7-0.6 1.1-0.8 2.7-0.8 1-1.8 1.7-0.6 1.1-0.3 2.9-0.3 1.3-1.6 1.8-3.2 1.9-1.3 1.7-0.9 1.7-1.5 5.4 0 2.9 1.2 1.2 2.2 0.7 7.6 1.1 4 2.5 1.7 0.6 2.4-0.4 1.6-0.6 3.6-1.9 1.2-0.3 1.3 0.2 1 0.7 0.5 3.4 0.9 4 0.7 1.5 3.2 3.1 1.5 4.1 1.9 1.7 6.2 0.9 9.7-1.1 2.1-0.8 1.7-1.7 1.8-3.5 1.2-0.8 1.6-0.6 2.6-0.5 2.3-2.6 0.8-0.5 4.7-1.8 2.1-1.5 0.8-1 0.4-1.2 0.3-3 0.4-1.3 1.8-1.6 1.2-0.4 3 0.3 12.3 6.8 0.8 1.6 0.5 2.4-0.8 11.5 1 5.8-4 2.3-2.7-0.3-10.8-5.3-2.3-0.3-1.7 0.7-0.8 1.7-0.3 1.4 0.2 1.4 1.3 2.2 0.4 1.3-0.9 5.1-0.1 2.9 0.9 2.7 1.4 1.9 7.6 4.8 0.7 0.9 0.3 1.8 0 2.4-0.8 4.2-1.1 1.7-1.3 0.8-1.2-0.4-3.5-1.8-1.4-0.4-1.6 0-2 0.5-0.9 1.1-0.5 1.4 0 3.2-0.4 2.1-1 1.5-2 2.5-1.4 2.7-1.8 4.9-0.5 2.6 0.4 1.8 7.1 4.9 1.5 1.9 0.5 1.3 0.2 2.9-0.2 4.4-1.8 10.4-1.3 4.4-1.3 2.9-3.7 4.6-0.9 0.7-6.2 4.1-2.3 1-2.7 0.4-3.2 1.3-6 8.1-6.8 4.3-9.3 2.5-14.8 0-2.4 0.8-1.4 1.3-0.3 4.6-1 4.2-2 3.7-4.3 4.7-0.8 1.9-0.3 1.7-0.8 2.3-1.5 1.1-2.5 1.1-1.3 0.9-0.8 1.1 0 1.3 0.5 1.2 1.4 2.1-0.3 2-1.2 2.6-8.9 11.4-3.6 5.7-1.9 2.1-5.2 4.3-2.1 1-1.9 0.5-1.7 0.1-7.1 1.8-1.7-0.1-3.8-1.5-2.3-1.2-1.6-1.6-1.6-3.4-0.8-1.4-0.9-0.8-3.3-1.5-2-1.4-1.5-2.2-1.5-3.7-0.7-4.2-1.2-1.2-2.1-0.8-8.2 0-1.9-0.5-0.7-0.9-0.2-1.2 0.7-2.8-0.2-2.6-2.3-0.7-21.2 1.4-2.8-0.6-4.6-2.2-2.5-2.5-2.2-1.4-6.1-1-1.3-0.4-1.5-1.9-0.6-4.7-0.5-1.7-1.3-1.6-1.4 0-1.4 0.5-2 1.4-1.7 0.5-24.5 0.2 0-0.7-3.9-2-15.5 1.3-9.6-3.7-18.1-11.2-3.2-16.8 1.3-8 2.5-6.2 1.4-5.8-2-6.8 2.1-1.5 8.4-1.6 6.1-2.3 5.2-0.6 2.4-0.9 2.3-2.4 1.3-0.2 4.5 3 2.5 1.1 41.3-7.5 0-2.8-3.4-0.6-8.9-4.5 3.2-2.3 1.4-0.3 0-2.6-1-3.1 2.4-3.4 7.7-6.4-1.8-0.1-4.2-2.5 1.8-1.5 1.4-2.3 0.9-3 0.5-3.5-2.4 0.7-2.2 1.9-6.3-2.4-31.8-0.2-21.9 12.5-12 2.8-7.4-7.8 2.8-2.1 1.4-10.6 3.7-2.7-0.6-3.5-0.1-1.7 0.7-2.6 0-2.3-1.7 0 0-2.6 10.7-2.8 1.9 1 5 3.6 3 0.8 2.6 2 0.9 8.9 2.6 2 1.9-1.2-0.1-3.1-0.4-4.2 0.9-4.4-2-2.3-1.9-2.8-2.1-2.2-3.1-0.5 0 2.4 1.4 2.8-2.5-0.9-1.6-2.8-2.6-9.4 0.2-3.4-1.1-1.9-1.4-0.2-3.8 0.4-0.7-1.3-0.8-2.4-1.6-2-1.6-3.2-0.7-5.6 1-5.6 2.4-1.8 3-0.9 2.5-3.5-3.1-1.3 0-2.2 1.9-2.3 2.9-1.7-1.7-2.6 6.3-5.4-2.2-1.8-2.5-0.2-5.8 2 0.5 3.1-0.2 1.4-1.2 0.5-2.3 0.4 0 2.6 1.5 0-6.4 8.1-6.3 1.3-5.6-4.6-4.5-9.9 4.3 0.1 10.1-3 4-2.3-6.8-5.1-2.7-3.6-1.3-4.6 1.5 1 3 1 1.5 0.9-2.8-4.5-7.7-8.8 3 2.2 2.6 0.1 2.1-1.6 1.4-3.3-11.6-9.8-5-1.9-3.3 4 3.2 4-1.3 3.2-3.7 1.5-4.3-1 2 4 1 1.2 0 2.6-3.1-0.4-2.7 0.6-4.8 2.7 0 2.3 2.9 1.2 1.1 2.2 0.6 7.3-1.9 0.1-4.3 2.5 2.9 2 2.7 3.5 0.5 3.4-3.8 1.4-4.1-0.3-3.3-1.5-2.1-3.9-0.3-7.2 1.3-4.5 5-10.8 1.2-4.4 0.7-6.9 1.9-3.1 2.5-2.5 2.6-4.7-7-0.1-2.8-1.5-2.5-3.3 4.2-0.1 2-3.4 1.3-5.1 1.8-4.4 2.4-2.3 9.8-5.8 0.9-1.6 0.6-1.9 0.9-1.5 2.2-0.2 1.3 1.3 0.5 2.2 0.3 2.5 0.8 1.8 2.9 2.4 3.8 2 4 0.5 3.1-2.2 1.6 2.9 1.9 1.7 1.9 0 2.2-1.8 0.6 2.1 1.1 0.2-5 9.6-5.3 4.2-5.5-0.6-5.6-5.4-1.4 7.5 3.4 2.2 5.3 0.4 4 1.9 3.7 2.5 3-2.7 3-4.3 3.3-2-3.1-4.6 1.5-6.2 3.6-5.3 3.4-2.3 4.8 1.4 7.8 5.7 4.9 0.9-1.3-3.3-1.7-2.1-4.6-2.6 0-2.7 2.2-0.9 2.1-0.1 4.8 1-4.1-2.4-11.7-2.7-2.4-3.9-1.3-5.4 0.4-2.8 13-3.6 4.8 1.2 8.4 5.4 4.3 1.2 38.2 2.8 2.5-0.4 4.2-1.9 2.4-0.5 2 0.7 3 3.3 1.8 1.2 17.7 2.6 2.1-0.6 2.8-1.5 2.5-2.1 1.7-2.2 2.1-1.6 2.7 0.4 10 4.8 1.9 0.2 1.7 1.6 1.8 7.2 1.1 1.7 4-0.8 2.3-0.8 0.4-1.1 1.5 3 0.3 3.1-0.5 2.7-1.3 1.9 0 2.6 4.9 2.3 0 2.9-4.3 3 1 3.5 10.8 9.9 2.8 4.3 1.8 5.8 0 7.5 1.4 0 0.3-7.4z" id="IRL714" name="Mayo" data-id="IRL714" data-name="Mayo">
 </path>
 <path d="M845.3 570.8l17.2 11.3 4.4 4.1 0.6 2.7 0.1 1.5 0 3.1 0.4 2.7 2.4 4.7 1.5 4.9 1.3 2.8 1.5 1.3 2 0.8 1.1 0.8 0.8 1.3 1.9 4.2 4.2 4.1 2 1.1 7.6 0.1 1.8 0.4 2.3 1.1 0.8 1.2 0 1.3-0.5 1.2-2.9 4.3-0.5 1.1-0.4 1.7 0.2 2.2 1.4 3.7 1.3 1.3 1.5 0.4 6-0.9 21.5 1.1 2-0.2 14.1-5.2 1 16.5 1 5.6 1.5 5.3 1.6 4 2.1 2.1 3.4 2.2-1.1 1.1-2.4 1-1.9 0.1-2.7-0.4-1.9 0.2-1 1.2-1 2.1-2.5 7.3-1.3 2.3-2.1 2-4 2.4-3.3 3.4-2.3 1-1.2-0.1-0.8-0.8-2.5-4.1-1.1-0.8-1.3-0.5-3-0.2-2.8 0.5-1.2 0.8-5.1 5.9-1.2 2.1-0.6 1.9-0.2 2.1 0.6 3.1 0.8 1.8 0.9 1.3 1 0.8 2.4 2.7 1 0.7 4.6 2.3 1.8 1.6 1.1 2.3 1.3 1.9 3.6 3 0.7 1.3 0 2-0.7 2.7-2.4 4.7-0.9 2.2-0.4 1.8 0.1 1.2-0.6 1.4-1.3 1.1-7.4 2.9-2.4 2.3-1.2 2.9-3 4.8-8.6 8.8-10.5-1.9-3.6-1.7-1-0.7-1.5-0.2-1.7 0.3-4.2 2.4-1.5 0.7-1.5 0-4.9-2.4-3.3-1-6.5-0.8-2-0.7-1.4-0.8-0.8-0.9-2.8-2.4-2.3-1.3-15.8-2.6-3.5 0.5-3.4 1.9-1.4 1.3-0.8 1.1-1.6 3.4-1.4 0.7-2 0.3-6.4-0.9-3.3-1-1.9-1.3-0.7-0.8-0.7-1.7-0.9-3.7-0.9-1-2.8-2.3-0.7-1-1.7-3.4-1.3-0.6-2.1-0.1-3.8 0.7-1.9-0.2-1.4-0.5-1.7-0.1-2.1 0.8-18.3 16.3-2.3 2.5-3.1 7.9-24-19.4 1.3-1.3 2-1.2 3.5-1.6 2.8-2.2 1.2-0.4 2.9 0.2 2.8-0.3 2.2-1.1 5.7-4.4 2.4-2.9 1.3-2.8 0.6-2.4 0-1.8-0.2-4.6 0.7-1.1 1-0.2 2.4 0.9 1.4-0.4 1.3-1.9 1.2-5.9 0.8-2.6 1.5-3.9 0-1.8-0.3-2.4-1.1-3.9-0.1-2.3 0.3-1.7 0.8-0.9 1.8-1.2 3.4-0.3 0.9-0.8 0.5-1.4 0-2 0.5-3.1 1.1-2.3 0.8-2.7 0.4-4.6 1.1-2.4 1.7-1.8 1-2.5 0.5-2.9-0.7-1.8-1.6-2-3.8-3.1-3.1-1.2-2-0.3-2 0.6-1 0.6-1.8 1.6-3.1 2-0.9 0.7-2.4 2.8-1.2 0.3-2-1.1-2.7-2-4.9-4.9-3.2-1.7-2.2-0.6-1.7-0.1-1.9-0.5-5.5-2.9-11.5-8-1-0.9-0.6-1.3-0.2-1.9 0-3.4-0.1-1.4-0.9-1.5-1.7-2-3.5-2.7-3.9-5.6-1.2-2.8-3.3-3-11.4-7 9.1-4.5 3.1 0.5 2 3.5 1.5 1.5 2.5 1.9 6.2 3.3 3 0.6 2.2-0.6 1.3-1.2 1.7-1.1 3.1-0.8 3-1.6 4.4-3.1 1.5-0.1 1.6 0.5 1.8 0.9 3.3 1 8.9 4.4 15.6 3.2 5.3-0.7 6.8-3.5 1.9-1.9 2.2-3.3 1.9-1.3 1.2-1.3 0.6-1.3 0.1-1.4-0.9-2.4-6.3-7.4-1.3-2-2.7-6-0.8-2.8 0.1-1.4 1.1 0 3.1 1.7 1.4 0 1.4-0.3 1.4-1.9 0.2-1.3-1.1-3.9 0.1-1.5 1-0.4 2.5 0.5 2.3 1.3 2.8 2.5 1.8 0.5 2.5 0 4.9-0.7 6.5-3.9 2.3-0.9 2.3 0 3.2 0.3 1.5-0.5 1.2-1.5 0.4-1.4 4.6-4.9 4.9-1 9.4 4.3z" id="IRL715" name="Meath" data-id="IRL715" data-name="Meath">
 </path>
 <path d="M758.6 769.6l-0.2 3.8 0.9 1.3 15.2 14.7 2.5 3.6 0.7 2.1-0.8 1.1-0.7 1.5-0.2 3-1 2.4-1.8 1-0.8 1.4-0.6 2.1-0.1 4.5-0.2 2.5-0.5 1.8-0.8 1-1.8 1.8-5.9 4.5-1 1.1 0 0.9 0.7 0.8 2.1 1.3 1.3 0.3 2.9 0 1.6 0.4 1.6 1.3 0.2 1.3-1.2 2.9-1.4 4.3-0.7 1.3-1.1 0.6-18.2 0.4-3-0.6-1.5 0-1.5 0.5-0.2 0.9 0.5 0.8 8.9 3.2 2 1.8-4.5 5.4-3.3 0.9-2.5-0.8-9.8-0.3-4.2 1-1.9 1.5-7 3.6-3.9 0.8-5.8 0.1-2.3-0.8-1.5-1-1.6-3.4-0.7-2.7-0.2-4.6-0.4-1.3-4.9-8.4-1.1-1.4-1.4-1.3-3-1.9-2-0.4-1.7-0.2-5.7 0.9-2.3 1.2-1.3 2-0.6 3.2-0.5 1.2-1.1 1.1-1.9-0.1-7.3-2.1-2.6-0.2-2 0.1-29.6 9.3-1.6 1-1.2 2.3-0.6 2.8 0.1 1.5 0.7 2.4 1.2 2.2 6.2 9.1 1.6 1.8 1 1.9-0.6 2.5-1.2 2.2-1.5 3.7-1.7 1.9-5.6 4.1-0.9 1-1.3 2.2-1.3 3.8-1.6 1.9-3.6 3-1.5 2-1 2.4-1.2 5.1-0.6 5.5-0.7 2.7-2.4 3.6-3.7 4.2-14.7-5.2-4.1 0.3-2.2 3.2-2.7 2.4-2.9 1.7-1.3 1.2-0.4 0.9 1.6 2.2 0.3 1.2-0.2 1.2-2 3.5-7.3 6.2-3 3-3.7 5.1-1.4 0.7-1.1 0-2.7-2.6-1.2-0.6-0.6 0.6-0.1 1 1.3 5.2-0.5 1.9-1.1 2-2.8 2.9-1.7 0-1.1-0.7-1.4-3.2-0.5-1.7-0.4-2.8-1.4-1.8-4.2-1.6-2.4-2-1.2-2.3-0.1-1.3 0.2-2.7-0.2-1.4-0.5-1.3-1.4-2-0.9-2 0-1.2 0.6-1 1.1-0.5 2.4 0.5 3.4 1.7 1.2 0.3 1.8-0.2 1-0.5 1.7-1.5 2.3-3.1 0.9-2.3 0.2-1.3-0.1-1.4-1.4-2.8-3.4-4.1-0.9-2.3 0.1-1.4 1.2-2.1 2.2-0.8 4.2 0.7 1.3 0 1.2-0.5 0.6-0.8-0.2-2.1-2.1-3.2-0.9-2.5-0.1-2.9 0.5-2.9 1.2-2.3 1-0.6 3.9-1.1 0.8-0.9 0.4-1.2 0-4.5 0.1-1.5 0.7-2.7 0.9-2.2 0.5-1.8-0.1-1.2-1.3-3.6-1.1-3.6-1.1-3-0.9-1.5-1.1-1.2-14.3-6.7-15.8-12.8 8.5-6.1 9.7-3.9 4-3.8 1.6-6.4-1.8-4.4-12-9.4-2.9-4.1-0.3-1.3-0.4-2.2 1.3-3.8 4.8-8 1.7-3.7 1.9-2.4 9.3-8.1 4-5.5 10.3 2.2 1.6 0.7 1.8 1.7 2.1 1.3 2.4 0.9 2 1.2 1.2-0.1 1.4-1.9 1.3-0.9 2.1-0.2 8.6 1.5 6.9-1.4 11.5-4.7 1.9-1.6 0.5-2.8 0.4-1.2 1.4-1.9 3.6-3.4 7-4.9 1.8-0.4 2.5 0 3.2 1.3 3.9 2.8 3.5 1.7 0.7 0.9 0.6 1.7 0.3 2.4 1.6 6.7 0.5 1.3 2.6 5.7 2.4 4.3 1.5 1.9 1 0.3 1-0.3 0.4-1.9-0.1-1.5 0.4-1.4 0.9-0.8 2.6 0.2 1.4 0.7 1.8 2 1.3 0.5 3.2 0.3 1 0.6 1.6 1.9 1.9 0.3 2.9-0.4 13.6-5.6 21.3-19.4 1.4-1 1.8-0.8 8.6-1.6 2.9-2.2 5.7-7.4 24 19.4z" id="IRL716" name="Offaly" data-id="IRL716" data-name="Offaly">
 </path>
 <path d="M734.6 750.2l-5.7 7.4-2.9 2.2-8.6 1.6-1.8 0.8-1.4 1-21.3 19.4-13.6 5.6-2.9 0.4-1.9-0.3-1.6-1.9-1-0.6-3.2-0.3-1.3-0.5-1.8-2-1.4-0.7-2.6-0.2-0.9 0.8-0.4 1.4 0.1 1.5-0.4 1.9-1 0.3-1-0.3-1.5-1.9-2.4-4.3-2.6-5.7-0.5-1.3-1.6-6.7-0.3-2.4-0.6-1.7-0.7-0.9-3.5-1.7-3.9-2.8-3.2-1.3-2.5 0-1.8 0.4-7 4.9-3.6 3.4-1.4 1.9-0.4 1.2-0.5 2.8-1.9 1.6-11.5 4.7-6.9 1.4-8.6-1.5-2.1 0.2-1.3 0.9-1.4 1.9-1.2 0.1-2-1.2-2.4-0.9-2.1-1.3-1.8-1.7-1.6-0.7-10.3-2.2 2.5-3.3 0.1-8.4-5.6-21.1-0.2-3 1.1-4.6 0-5.1-2.1-13.4 9.2-5.5 3.7-1.5 16.8-2.4 2.8 0 1.4 0.4 2.1 1.3 0.9 0.8 8 3.1 9.9 0.7 9-1.6 3.7-1.4 1.7-1.5 0-2.8 0.7-2.6 2.9-4 0.7-1.1 1.6-4 1-1.4 1.9-1.8 1.1-1.4 2.2-3.2 2.3-2 3.8-1.4 1.6-1.5 0.7-1.5 0-3.1-0.4-1.2-1.5-1.9-6.5-4.1-1.3-2.1 0.3-1.4 1-0.5 2.5 0.5 2.3 1.4 1.3 0.6 0.8-0.7 2.2-3.5 5.6-4.8 1.2-1.6 1.7-3.7 1.9-3 1.3-1.3 1.1-0.7 4.4-0.2 1.3-0.6 1-0.9 1.8-3.3 1.8-2.5 2.4-2.1 2.5-0.6 1.5 0.1 3.3 0.8 3 0 1.7-0.7 1.1-0.8 1.4-2.1 0.5-1.3 0.2-4.4 0.3-2.8-1.1-3-1.1-2-1.4-1.8 11.2-6.2 11.4 7 3.3 3 1.2 2.8 3.9 5.6 3.5 2.7 1.7 2 0.9 1.5 0.1 1.4 0 3.4 0.2 1.9 0.6 1.3 1 0.9 11.5 8 5.5 2.9 1.9 0.5 1.7 0.1 2.2 0.6 3.2 1.7 4.9 4.9 2.7 2 2 1.1 1.2-0.3 2.4-2.8 0.9-0.7 3.1-2 1.8-1.6 1-0.6 2-0.6 2 0.3 3.1 1.2 3.8 3.1 1.6 2 0.7 1.8-0.5 2.9-1 2.5-1.7 1.8-1.1 2.4-0.4 4.6-0.8 2.7-1.1 2.3-0.5 3.1 0 2-0.5 1.4-0.9 0.8-3.4 0.3-1.8 1.2-0.8 0.9-0.3 1.7 0.1 2.3 1.1 3.9 0.3 2.4 0 1.8-1.5 3.9-0.8 2.6-1.2 5.9-1.3 1.9-1.4 0.4-2.4-0.9-1 0.2-0.7 1.1 0.2 4.6 0 1.8-0.6 2.4-1.3 2.8-2.4 2.9-5.7 4.4-2.2 1.1-2.8 0.3-2.9-0.2-1.2 0.4-2.8 2.2-3.5 1.6-2 1.2-1.3 1.3z" id="IRL717" name="Westmeath" data-id="IRL717" data-name="Westmeath">
 </path>
 <path d="M963.9 1004.4l-3.8 9.1-10.5 18.7-1.1 6.8 0.2 5.5 2.3 10.4 0.6 5.7-0.6 15.6-2.9 6.4-13.5 22.4-4 4.9-3.8 2.1-3.4 4.9-5.1 9.3-2.1 5.7-0.1 6.6 0.4 6.4-0.4 4.8-1.6-2.7-1.7-1.7-2-0.8-13 1.1-4.6-1.5 1.3-6.6-2 0.8-1.9 1-1.8 1.4-1.7 1.8 0 2.3 3.3 1.2 3.1 2.9 2.6 4 1.6 4.8-1.4 3.8 7 1.5 2 3 1.2 3.8 2.7-3.2 5.4-8.9 0 2.2-3.8 7.6 4.5 8.4 11.4 11.6-6.4 15.8-2.8 4-2.2 2.2-1.7 0.7-2.1-0.4-2.8-2.3 0.4-1.8 1.7-1.7 2-4.5-0.3-1.6-2.6-0.3-1.4 0.7-1.9 2.8-3.8 3.4-9.6 0.1 0-2.2 4.5 0-3-2.7-2.3 0-3.8 2.7-10.6 2.2-9.5 5.6-3.8-0.5-5.8-6.2-4.1-2.2-16.5-5.1-15.7 2.4-4.3-1 0-2.7 3.4-1.5 3.2-3.2 2.2-4.5 0.4-5.7-2.6 3.8-3.8 3.8-4.4 1.9-4.4-2-1.5 2.2 0.6 5.2-0.6 2.7 2.4-1.7 0.8-1 1.4 0-0.7 5.3-0.7 2.1-1.7 2.3 3.1 0 0 2.7-3.1 0 1.7 2.5-16.1 9.9-2.2 2.3-2.6 4.6-3 3-3.7-2.3 2-4.4 2.7-2.4 2.8-1.8 2.5-2.7 0-3.6-3.8-14.8-1.3-2.5-2.2-3.4-2.6-3-2.3-1.2-2.5-2.4-3.3-11.4-2.8-3.8 0.6 4.2-2.1-0.7-2.3-1.4-1.1-2.2 0.2-1.8 0.7-2.2 2.8-5.6 0.6-1.7 0.3-1.7 0.2-3.1-0.1-4 0.3-1.7 0.8-1.9 4.7-5.3 0.8-1.2 1.9-4 0.7-2 0.5-2.5 0.1-4.2-0.5-4 0.3-1.1 1.3-0.8 1.2 0.1 2.4 0.6 1.2-1.3 0.9-2.8 0.8-5.9-0.7-6.3 8.8-0.4 1.3-0.4 2.1-1.1 0.9-1.2 0.7-1.4 0.8-4.6 0.9-2.4 3.9-7.5 0.9-2.7 0.5-2.1 1.1-2.3 9.1-11.3 1.4-3 0.4-3.3 0.4-9.8 1.1-2.1 2.2-2.3 5.6-3.9 3-1.4 2.4-0.6 4 1.1 2.9 0.1 1.3-0.4 1.4-0.8 1.4-1.3 2.1-2.7 0.9-1.7-0.3-1.5-0.6-0.6-2.7-1.1-1.5-1.5-0.5-2.7 0.5-1.3 0.9-0.9 3.6-0.5 3.5-2.1 5.5-8.3 7.8 3.1 2.7 2.5 0.8 1.7 1.6 2.3 1.5 1 1.6 0.4 2.7-0.4 8.5-4.1 2.1-1.9 2.5-4.4 1.7-1.7 3-2 1.7-1.8 1.1-2.1 1.4-3.9 0.6-1.1 2.5-2.5 1.2-2.3 0.3-1.4 1.8-3.9 2.7-2.9 2-1.5 2.2-1 9.6-1.2 1.6 0.5 3.3 2.5 1.9 0.8 1.7-0.5 1.8-1 2.7-2 1.9-0.5 1.7-0.1 1.3 0.5 0.8 0.8 1.5 3.6 0.7 0.8 1.3 0.7 6.7 0.4 1.5 0.4 3.2 2 1.6 1.8 1 2.3 1.2 3.6 0.9 1.5z" id="IRL718" name="Wexford" data-id="IRL718" data-name="Wexford">
 </path>
 <path d="M934 828.6l1.2 0.5 2.2 2 1.9 1.3 3.8 1.9 2.2 0.5 1.8 0 6.6-3.5 1.8-0.1 1.5 0.3 9.7 5.6 3.1 0.9 2.1-0.7 2.3-2 3.6-1.8 2.6 3.3 1.4 4-1.6 6.7 3 4.4 7.6 16.1-0.4 1.4-1.1 0.9 1 6.1-0.3 9-1.2 8.8-1.8 5.6-0.9 5.9 2.9 5.7 9.3 10.7 0.7 2.8-2.9 1.2-1.2 1.6-2.2 7-1.1 1.5-2.5 2.6-7.5 17.6 1.6 2.7-9.5 9.2-2.6 3.4-2.5 5.3-5.3 17.6 1.4 8.1-0.8 1.7-0.9-1.5-1.2-3.6-1-2.3-1.6-1.8-3.2-2-1.5-0.4-6.7-0.4-1.3-0.7-0.7-0.8-1.5-3.6-0.8-0.8-1.3-0.5-1.7 0.1-1.9 0.5-2.7 2-1.8 1-1.7 0.5-1.9-0.8-3.3-2.5-1.6-0.5-9.6 1.2-2.2 1-2 1.5-2.7 2.9-1.8 3.9-0.3 1.4-1.2 2.3-2.5 2.5-0.6 1.1-1.4 3.9-1.1 2.1-1.7 1.8-3 2-1.7 1.7-2.5 4.4-2.1 1.9-8.5 4.1-2.7 0.4-1.6-0.4-1.5-1-1.6-2.3-0.8-1.7-2.7-2.5-7.8-3.1-3.9-6.9-0.9-1.1-1.8-3.4-0.6-3-0.8-2.2-2.8-4-1.1-1-1-0.4-1.1 0.1-2 1-1-0.3-0.6-1.4 0-3.3 0.4-3.9 0.8-2.7 1-2.4 2.4-4.4 1.3-4 0.7-0.9 1.2-0.2 1.2 0.2 5.4 3 1.7 1.8 2 3 2 1.4 2.7 0.7 2.9 0 1.3-0.4 2.2-1 1.8-1.5 2.1-1.3 4.7-1.8 1-0.7 0.6-1.1 0.2-3-0.3-7.6 0-1.4 0.5-1 0.8-0.7 1.6-0.7 0.5-0.8 0.1-1.4-0.7-1.6-1.6-1.9-1-0.5-1.2-0.2-2.9 1.8-1.4 0.4-3 0-3.4-1.3-2.1-1.9-7.6-3.6-27.4-7.7 0.5-4.2-0.5-2.8-0.9-2.3-1.2-2.1-2.8-4-6.2-7.3-0.6-2.4 0.8-3.1 3.4-7 6.6-11.1 2.8-5.8 0.8-1.4 1.4-1.2 5.8-2.7 4.2-2.7 8-3.4 1.2-0.8 10.1-9.3 1.5-1.8 0.9-1.6 0.4-2.2-0.2-3 0.4-1.6 0.9-1.4 3.4-2.2 1.1-1.1 0.2-2.2-0.4-1.5-1-2.5-0.1-1.4 0.6-1.4 1.1-1.1 5.5-1.7 1.1-1 1-1.6 1.2-4.7 1.7-2.4 5.8-4.1 18.8 5.3 2 1.3 2.3 1.8 0 1.4 0.6 2 1.2 1.9 3.3 3 2.1 0.8 1.5 0 1.7-1.6 1.3-2.3 0.9-2.7 0.3-3.1 0.4-1.6 0.9-1.7 1.9-1.7 1.4-0.3z" id="IRL719" name="Wicklow" data-id="IRL719" data-name="Wicklow">
 </path>
 <path d="M896 764.8l-3.4 7-2.2 4.7-2.1 9.6-0.5 1.2-1.7 1.6-1.1 1.3-2.5 4-1.3 3.7-1.4 6.1 0.1 2.6 0.8 1.7 2.6 1.4 0.8 0.8 0.7 1.4-0.1 1.2-2 2.2-1.5 1.7-0.2 1.4 0.5 1.1 1.2 0.4 6.1 0.1 1.2 0.4 2 1.8 1.4 3.9-5.8 4.1-1.7 2.4-1.2 4.7-1 1.6-1.1 1-5.5 1.7-1.1 1.1-0.6 1.4 0.1 1.4 1 2.5 0.4 1.5-0.2 2.2-1.1 1.1-3.4 2.2-0.9 1.4-0.4 1.6 0.2 3-0.4 2.2-0.9 1.6-1.5 1.8-10.1 9.3-1.2 0.8-8 3.4-4.2 2.7-5.8 2.7-1.4 1.2-0.8 1.4-2.8 5.8-6.6 11.1-3.4 7-0.8 3.1 0.6 2.4 6.2 7.3 2.8 4 1.2 2.1 0.9 2.3 0.5 2.8-0.5 4.2-4.9 11.1-2.3 3.8-2.2 1.4-1.8 0.6-7.2 0.4-6.1 1.5-5.4-0.8-1.3 1-1.9 0.6-1.1-0.3-1.8-1.4-1.6-1.8-1.7-1.5-5.2-3 0-4.4-0.1-1.4-0.7-4.4-1.1-3.1-6.9-13.9-2.7-3.3-1.9-1.4-2.6 1.1-2 0.4-4.5-2.1-2.9-0.6-2.3-1.1-1.3-2.1-2.8-4-0.7-1.6-0.5-2.4 0.4-3.3 0.6-1.8 0.7-1.4 4-4.6 0.6-1 0.8-2.2 0.1-4.8-0.8-6.1-1.1-5.2-3.2-8.9-3.2-5.7-1.3-1.5-0.2-2.4 1.3-3.5 0.8-0.9 2.2-0.2 1.1-0.4 0.7-0.9 0.3-1.3-0.1-1.5-1.1-1.6-1.1-0.8-4.4-0.3-2-1.8-8.9-3.2-0.5-0.8 0.2-0.9 1.5-0.5 1.5 0 3 0.6 18.2-0.4 1.1-0.6 0.7-1.3 1.4-4.3 1.2-2.9-0.2-1.3-1.6-1.3-1.6-0.4-2.9 0-1.3-0.3-2.1-1.3-0.7-0.8 0-0.9 1-1.1 5.9-4.5 1.8-1.8 0.8-1 0.5-1.8 0.2-2.5 0.1-4.5 0.6-2.1 0.8-1.4 1.8-1 1-2.4 0.2-3 0.7-1.5 0.8-1.1-0.7-2.1-2.5-3.6-15.2-14.7-0.9-1.3 0.2-3.8 3.1-7.9 2.3-2.5 18.3-16.3 2.1-0.8 1.7 0.1 1.4 0.5 1.9 0.2 3.8-0.7 2.1 0.1 1.3 0.6 1.7 3.4 0.7 1 2.8 2.3 0.9 1 0.9 3.7 0.7 1.7 0.7 0.8 1.9 1.3 3.3 1 6.4 0.9 2-0.3 1.4-0.7 1.6-3.4 0.8-1.1 1.4-1.3 3.4-1.9 3.5-0.5 15.8 2.6 2.3 1.3 2.8 2.4 0.8 0.9 1.4 0.8 2 0.7 6.5 0.8 3.3 1 4.9 2.4 1.5 0 1.5-0.7 4.2-2.4 1.7-0.3 1.5 0.2 1 0.7 3.6 1.7 10.5 1.9z" id="IRL721" name="Kildare" data-id="IRL721" data-name="Kildare">
 </path>
 <path d="M764.5 985.4l-4.6 4.7-2.2 4.9-1.4 4.9-0.5 2.9 0.1 4.5-1.5 3.2 0.5 0.7 2.5 0.9 1 0.9 0.9 1.4 0.9 2.2 1.1 1.1 1.2 0.3 1-0.4 3-2 2.4-0.1 1.1 0.5 2.3 3.2 2.9 6 1.8 2.3 1.8 1.6 1.1 0.6 0 1.7-1.1 3.1-0.2 2.5 0.2 3.4 0.9 6.7 0.6 3.3 0.6 2.2 1.3 2.1 1.4 1.9 6 5.5 1.8 2.1 0.7 1.7 0.1 1.6-0.6 4.6-0.9 2.8-2 2.9-0.2 6.1 3.6 21.5 0.7 6.3-0.8 5.9-0.9 2.8-1.2 1.3-2.4-0.6-1.2-0.1-1.3 0.8-0.3 1.1 0.5 4-0.1 4.2-0.5 2.5-0.7 2-1.9 4-0.8 1.2-4.7 5.3-0.8 1.9-0.3 1.7 0.1 4-0.2 3.1-0.3 1.7-0.6 1.7-2.8 5.6-0.7 2.2-0.2 1.8 1.1 2.2 2.3 1.4 2.1 0.7 0.6 3.9-0.9-1.4-3.4 1.4-5.1 3.5-2.1 1.1-2.5 0.8-4.3 0.4-1.2 0.4-2.1-0.4-2.9-1.1-6-3.8-5.3-2.6-2.9 0.2-1.7 0.5-2.1 1.5-3.6 5-1.7 1.6-2-0.6-3.4-2.2-6.5-5.6-7.3-8.4-4.4-6.6-2.8-2.7-8.7-6-4.7-12.3-0.9-4.7 0.2-3.2 0.4-3.6 0.2-7.2-0.5-2.3-0.7-1.6-6.5-6.9-1.4-2-1.5-1.8-4.3-2.9-1.1-1.1-0.1-1.2 1.1-2.1 1.5-1.5 3.3-1.9 1.8-1.6 0.9-1.8 0.2-2 0-2.8-0.5-1.2-0.8-0.7-3.5 0.5-1.5-0.5-0.6-1.2-0.4-1.5-0.2-6 0.8-8.9 0.2-3.7-0.3-2-0.7-1.5-2.3-1.5-1.2-1.1-0.5-1.7 0-5.2-1-3.2-6.3-7.4-10.5-21.8-1.4-2.2-1.7-1.8-4.4-2.4-4-2.9-1.1-0.6-5-1.9-5.1-8.1-1.1-2.5-2.4-7.2 11-2.1 2.3-2.1 0.5-1.9 1.3-2.4 4.5-4.4 2.2-1.3 1.8-0.1 1.9 1.9 1.6 1.1 3.6 1 4.4 2.3 3.1 0.9 1 0.5 2.9 2.5 1.4 1 2.7 1 1.6 0 11.3-4.4 2.5-1.7 1.5-1.6 1.2-2.8 1.3-1.5 2.5-2 1.7 0 2.5 1.4 1.3-1.5 1.2-3.7 1.2-2.3 2.3-2.9 2.6-2.2 1.8-0.9 1.6-0.5 1.3 0.3 4 2 2.4 0.6 1.5-0.3 1.1-0.7 0.6-1.2 0.9-4 9.8-7.3 2-0.6 1.5 0.2 1.1 0.6 7.5 6.2 0.7 1 0.6 2.5-0.1 4.7 0.4 1.2 1.4 2.1 1.1 2.1 2.3 2.1 6.5 1.5 1.1 0.7 1.5 1.9 2.6 5.7 2.1 2.5z" id="IRL722" name="Kilkenny" data-id="IRL722" data-name="Kilkenny">
 </path>
 <path d="M754.5 847.2l4.4 0.3 1.1 0.8 1.1 1.6 0.1 1.5-0.3 1.3-0.7 0.9-1.1 0.4-2.2 0.2-0.8 0.9-1.3 3.5 0.2 2.4 1.3 1.5 3.2 5.7 3.2 8.9 1.1 5.2 0.8 6.1-0.1 4.8-0.8 2.2-0.6 1-4 4.6-0.7 1.4-0.6 1.8-0.4 3.3 0.5 2.4 0.7 1.6 2.8 4 1.3 2.1 2.3 1.1 2.9 0.6 4.5 2.1 2-0.4 2.6-1.1 1.9 1.4 2.7 3.3 6.9 13.9 1.1 3.1 0.7 4.4 0.1 1.4 0 4.4-0.5 4.9 0.2 9.5-0.2 1.5-1 6-1.6 1.5-2.5 1.4-14.1 4.3-6.2 4.5-2.1-2.5-2.6-5.7-1.5-1.9-1.1-0.7-6.5-1.5-2.3-2.1-1.1-2.1-1.4-2.1-0.4-1.2 0.1-4.7-0.6-2.5-0.7-1-7.5-6.2-1.1-0.6-1.5-0.2-2 0.6-9.8 7.3-0.9 4-0.6 1.2-1.1 0.7-1.5 0.3-2.4-0.6-4-2-1.3-0.3-1.6 0.5-1.8 0.9-2.6 2.2-2.3 2.9-1.2 2.3-1.2 3.7-1.3 1.5-2.5-1.4-1.7 0-2.5 2-1.3 1.5-1.2 2.8-1.5 1.6-2.5 1.7-11.3 4.4-1.6 0-2.7-1-1.4-1-2.9-2.5-1-0.5-3.1-0.9-4.4-2.3-3.6-1-1.6-1.1-1.9-1.9-1.8 0.1-2.2 1.3-4.5 4.4-1.3 2.4-0.5 1.9-2.3 2.1-11 2.1-2.2-12-1.5-3.9-2-2.2-1.3-1.8-2.2-3.4-0.6-2.2-0.1-1.7 1-3.9 0.3-4.4 0.4-2.3 0.6-1.8 2.4-4.6 0.6-1 1.7-1.6 4-2.9 1.5-2.7-0.2-1.3-0.7-0.8-1.3-0.5-6-1-1.2-0.5-2-1.3-2.3-2.9-2.3-4.2 3.7-4.2 2.4-3.6 0.7-2.7 0.6-5.5 1.2-5.1 1-2.4 1.5-2 3.6-3 1.6-1.9 1.3-3.8 1.3-2.2 0.9-1 5.6-4.1 1.7-1.9 1.5-3.7 1.2-2.2 0.6-2.5-1-1.9-1.6-1.8-6.2-9.1-1.2-2.2-0.7-2.4-0.1-1.5 0.6-2.8 1.2-2.3 1.6-1 29.6-9.3 2-0.1 2.6 0.2 7.3 2.1 1.9 0.1 1.1-1.1 0.5-1.2 0.6-3.2 1.3-2 2.3-1.2 5.7-0.9 1.7 0.2 2 0.4 3 1.9 1.4 1.3 1.1 1.4 4.9 8.4 0.4 1.3 0.2 4.6 0.7 2.7 1.6 3.4 1.5 1 2.3 0.8 5.8-0.1 3.9-0.8 7-3.6 1.9-1.5 4.2-1 9.8 0.3 2.5 0.8 3.3-0.9 4.5-5.4z" id="IRL723" name="Laoighis" data-id="IRL723" data-name="Laoighis">
 </path>
 <path d="M612.9 925.4l2.3 4.2 2.3 2.9 2 1.3 1.2 0.5 6 1 1.3 0.5 0.7 0.8 0.2 1.3-1.5 2.7-4 2.9-1.7 1.6-0.6 1-2.4 4.6-0.6 1.8-0.4 2.3-0.3 4.4-1 3.9 0.1 1.7 0.6 2.2 2.2 3.4 1.3 1.8 2 2.2 1.5 3.9 2.2 12 2.4 7.2 1.1 2.5 5.1 8.1-4 5.7 0.1 7.1 2.5 7.2-1.4 8.6-12.4 19.8-17 10-14.8 5.9-11.5-0.8-3.3-2-3.2 13.4-0.8 1.3-1.2 0.4-0.9-0.4-0.3-1.7 2.5-12.4-7-4.5-19.5-23.7-12.4-13.6-9.2 0-10.3 4-11.8 0.8-3.5-1.3-0.3-1.4-0.8-1.9-1.5-1.9-3.5-2.7-2.2-0.8-1.8-0.1-7.1 2.8-18.8 0-4.5-0.8-2.6-1-1.3-3.8-0.2-1.3-0.6-7-0.5-1.9-0.4-3.6-0.8-2.2-2.3-4.9 3.9-6 2.9-8.1-0.5-8.6 2.2-6.4 0.1-2 1.1-3.3 4.1-6.2 0.9-1.9 0.8-2.5 1.4-7.5 0.9-2.3 1.3-1.3 1.3-0.1 9.2 0.4 1.3-0.3 1.4-1.3 10.8-14.8 0.9-2.1 0.3-1.8-0.4-1.3-1.6-1.6-3.2-2-1.8-1.9 1-3.6 7.1-10.7 2.7-5.2 0.7-2.9 1.1-1.7 2-2.1 6.1-4.8 2.2-2.5 1.8-3.1 3.7-6.8 6.2-14.6 3.7-6 4.6-2.5 5-1.2 4-2.8 15.8 12.8 14.3 6.7 1.1 1.2 0.9 1.5 1.1 3 1.1 3.6 1.3 3.6 0.1 1.2-0.5 1.8-0.9 2.2-0.7 2.7-0.1 1.5 0 4.5-0.4 1.2-0.8 0.9-3.9 1.1-1 0.6-1.2 2.3-0.5 2.9 0.1 2.9 0.9 2.5 2.1 3.2 0.2 2.1-0.6 0.8-1.2 0.5-1.3 0-4.2-0.7-2.2 0.8-1.2 2.1-0.1 1.4 0.9 2.3 3.4 4.1 1.4 2.8 0.1 1.4-0.2 1.3-0.9 2.3-2.3 3.1-1.7 1.5-1 0.5-1.8 0.2-1.2-0.3-3.4-1.7-2.4-0.5-1.1 0.5-0.6 1 0 1.2 0.9 2 1.4 2 0.5 1.3 0.2 1.4-0.2 2.7 0.1 1.3 1.2 2.3 2.4 2 4.2 1.6 1.4 1.8 0.4 2.8 0.5 1.7 1.4 3.2 1.1 0.7 1.7 0 2.8-2.9 1.1-2 0.5-1.9-1.3-5.2 0.1-1 0.6-0.6 1.2 0.6 2.7 2.6 1.1 0 1.4-0.7 3.7-5.1 3-3 7.3-6.2 2-3.5 0.2-1.2-0.3-1.2-1.6-2.2 0.4-0.9 1.3-1.2 2.9-1.7 2.7-2.4 2.2-3.2 4.1-0.3 14.7 5.2z" id="IRL724" name="North Tipperary" data-id="IRL724" data-name="North Tipperary">
 </path>
 <path d="M34.9 1300.2l1.7 1.6 1.2-0.2 2.5 0.3 0.9 2.3-1.6 2.8-4 2.7-8.6 4-7.8 0.8-2.1 2.1-4.5 0.6-0.7-2.7 3.8-5.1 11.4-7.8 2.1-2 4.1 0.2 1.6 0.4z m214.4-234.8l1.1 2.2 3 4 0.7 3.4 0.4 3 2.1 3.6 1.8 2.4 2.7 2.8 1.2 1.8 0.8 2 0.2 2.6-0.4 1.5-0.8 1.2-1.8 1.6-1.1 2.1-0.4 2.8-1.3 3.2-0.7 2.9 0.1 1.8 0.4 1.5 2.8 4.5 0.9 2-0.1 1.4-0.5 1-1.7 1.8-1.4 3-0.5 3 0 1.4 0.9 2.3 2.5 2.6 0.9 1.1 1 1.9-0.1 1.5-0.5 1.2-0.8 0.8-3.4 1.7-0.9 1-0.6 2 0.3 1.2 0.7 0.9 3.6 1.8 0.9 0.8 1.5 1.9 1.9 2.9 1 0.7 3.9 1 3.2 2 3.4 1.7 1 0.6 1.9 2.1 2.6 4.5 0.8 3.7-0.5 0.8-8.5 8.4-1.7 3-0.9 2.9-0.3 3.5 0.5 3.6 2.8 5.5 1.9 3.5 1.3 3.6 3.8 20 5.3 15.8 1.6 2.8 1.4 1.2 0.9 0.2 0.1 1.5-0.9 2.1-1 1.1-2 1.1-1.1 1.6-0.9 2.5-0.9 5.9 0.1 2.8 0.6 1.9 1.1 0.5 2.8 0.5 2.2 0.9 3.7 3 4.8 2 3 0.7 1.6 1 0.4 1.3-0.2 1.4-0.5 1.4-1 1.4-1.1 0.9-1.4 0.3-2.6-0.3-1.4 0.1-17.7 5.1-3.8 2.6-2.3 2.6-2.1 1.4-3.4 1.4-2.2 2-1.2 2-0.2 1.5 0.1 1.4 1.2 2 2.3 2.8 0.6 1.1 2 6.6 0 1.8-0.3 1.6-1 1.5-2.6 2.8-2 2.7-1.5 2.7-3 3.8-1.5 0.7-2.7 0.9-3.1 1.8-1.2 0.5-4.3 0.4-2.4 0.9-5.1 3-1.4 1.2-1.4 1.9-2.2 4.2-1.3 2.1-1.3 1.3-2.3 0.9-5.8 0.6-4.1 1.1-2.4 0.3-1.4-0.1-2.5-0.7-2.9-0.2-13.6 2.6-1.1 0.5-1.2 1.1-6.9 8.4-2.8 2.5-2.5 0.9-6 0-2.4 0.7-2.9 2.1-10.9 13.8-2 1.3-1.3 0.3-2.9 0.2-3.8 0.9-1.2-0.3-0.5-0.9-0.2-1.3 1-3.6 0.2-1.3-1-1.9-2.2-1.2-0.4-1.1 0.2-3.8-0.6-2.4-2-3.1-1.4-1.6-2.3-2 0.9-1.4 0.5-6 2.9 2 3.9 0.7 8.5-0.3 0-2.4-1.7-0.4-4.5-2.1 0-2.2 3-2 5.7-6.6 4.4-2.5 2.6-4.8 1.2-1.5 1.7-0.5 5.9 0.5 7.2-2.3 13-7.4 7.1-2.4 0-2.7-16.1 2.1-23.3 9-4.3 2.6-1.9 2.3-1.3 2.3-7.4 0-3.4 1.2 1.4 2.6-6.7 4.3-2.4 0.7 0.4-1.8 0.7-4 0.4-1.8-3.2 0-1.8 1.4-1.3 2-1.3 1.5-2.7 0.9-5.4 0.9-2.5 0.9-9.8 7.7-5.1 2.3-5.1-2.7-4.4 4.8-5.6 4.6-5.9 3.6-5.5 1.7 1.3-4.7-21-10 8.5-2.7 2-8.6-3.8-9.2-9-4.3-2.6 2-5.5 8.6-2.6 1.9-2.7 1.4-6.9 6.6-3.4 2.1-1.2-4.6 2.6-10.5-1.4-4.8-3.2-0.7-4.5 0.4-2.9-0.6 1.5-4-0.1-1.7-1.4-0.8 1.3-3.2 0.2-1.7-3 0 0-2.5 7.3-0.9 18.5-6.7 3.9 0 1.8-1.1 0.7-2.4-0.2-2.5-0.7-1.1-3.2-2-1.9-4-2.3-3.6-4.2-0.5 0-2.3 2.6-1.6 5.5-2 2.7-1.5-1.7-5.3 4.6-2.4 6.2-1.4 5.7-3.9 14.2-6.8 21.1-4.5 9-5.4 4.9-12.3 1.6 0 0 6.5 2.1 2.8 3.1 0.7 3.1-0.1-0.7-3.4 4.7-21.4 6.9 4.2 6.9 0.3 16.6-2.2-1.6-1.4-1.9-2.5-1.2-1.1 7.7-4.9-44.2 2.5 2.9 7.4-1.4 4.2-1 1.6-1.3-5.9-2.2-2.4-2.9-1.6-3.2-0.9-6.7-0.4-29.9 7.6-5.3 3.3-2.5-2.1-2.2-3.5-2.3-2.2-2.3 1-1.5 2.1-1.7 1-5.7-5.8-2.5-0.2-6.2 1.9 0 2.3 2.2 0 1.9 0.5 3.7 2 0 2.2-5.7-1-10.5-3.7-5.3 0 0.2 2.4 0.7 1.2 2.3 1.1-4.8 0.2-8.8 4.2-4.7 0.8-5.4-2-1.5-4.4-0.4-6.2-2-7.2 1.9-1.1 4.2-3.9 0-2.2-2.3-3 2.5-3.2 4.8-2.7 4.2-1.2-1.6 4.9 4.9 4.1 2.8 1.1 2.2-1.4 0.6-2.9-0.7-2.5-0.1-2.6 2.6-3.3-2.3-1.7-0.9-0.5 2-5.6 2.7-1.4 3.3 0.1 4.3-1 2.6-2.6 4.8-7.9 2.5-1.7 23.2-6.8 3.5 3-2.7 13.8 0.4 2.2 14.6-2.2 6.5-3.9 5.9-6.5 2-7.7-5.3-7 7.8-0.2 2.5 1.4-1.1 3.8 1.1 5.3 0.2 5.6 0.9 4.6 3.2 1.9 3.6 0.6 6.8 3.2 7.5 1.7 9.2 0.1 3.2-1.8 4.6-6 2.6-1.5 2.7 1.2-2.9 2.5 3.7 2.2 16.1-2.2-3.5-3.7-3.2-1-7-0.1-7.3-4.1-3.3-0.9-3.4 2.5-1.6-1.8-1.3-2.2-0.8-2.8-0.5-3.3 2.7 2.6 2.1 1.5 2.3 0 3.4-1.6-2.9-1.8-1.5-0.5-1.9-0.2 0-2.7 2.3-0.1 5.6-2.2-2.5-6.1 0.8-17.8-3.7-3.7-11.8-2.2-6.2-3.1-4-4.4 3.3-3.5 4.2-1.5 15.1-1 22.1-10.3 3-2.5 3.3-5 3.8-2.3 5.8 0.1 5.8 1.6 3.7 1.9-0.9-4.9-2.6-2.5-3.5-0.7-3.8 0.4 1.3-1.8 0.5-1.9-0.4-1.9-1.4-1.9 0-2.5 1.9-2.2 0.3-2.1-0.5-4.4 0.8-2.6 5.3-6.4 1.2 1.1 1.4-1 1.8-1.7 2.3-0.9 9.2 2.5 17.6 0 1.8 0.8 2.1 1.6 2.2 0.8 2.2-1.8 1.7-2.4 1.4-1.1 1.8-0.4 16.9 0.7z" id="IRL725" name="Kerry" data-id="IRL725" data-name="Kerry">
 </path>
 <path d="M510.8 1032.4l-1.1 6.7-0.7 3.5-2.4 6.1-0.4 2-0.8 7.3-0.6 2.2-0.8 1.6-1.6 1.7-0.6 1.2-0.2 1.6 0.7 3.5 0.4 3.2 0 5.5-0.4 5.1-0.6 2.6-0.8 1.5-1.9 1.2-2.5 0-2.5-0.7-1.4-0.1-2.6 0.6-3.4 1.6-3.9 2.6-0.2 3.2 0 4.5-0.8 1.8-1 1-1.2-0.3-0.8-0.9-0.3-1.5 0-5.5-0.3-2-0.7-0.9-2-0.7-1.1 0.3-1.3 0.8-2.1 2.5-2.7 2.3-0.6 1-0.9 2.4-0.6 5.7-1 2.7 0 1.3 0.7 1.8 2.5 2.4 1.9 1 1.1-0.2 2 0.4 2.6 0.8 1.4 0.1 2.7-0.3 1.7 0.6 1.9 1.2 8.8 8.4 1.7 0.4 4.2-0.4 1.6 1.6 1.6 2.7 2.9 6.5 1.8 2.7 1.8 1.4 6.1 0.4 0.9 1.4 0.2 2.5-2.1 8.8-0.2 2.3 1 1.2 2.4 1.4 1.6 1.7-0.7 3.5-5.8 7.9-3.1-1.9-1.1-0.4-1.9-0.2-10.1 2.4-1.5-0.1-1.8-0.4-2.3-1.5-2.3-2.5-0.5-1.1-1.2-3.8-1-2.2-0.9-0.9-1.3-0.6-3.3-1.1-1.8 0.2-2.2 1.6-1 1.4-1.4 2.5-2.8 2.2-2.3 2.7-1.8 0.6-9.8 1.3-10.4 3.4-4.2-0.1-4.1-1.2-2-0.9-1.5-1.1-4-5.7-0.9-0.9-1.4-0.7-4.5-1.3-2.4-1.9-1.8-3-0.9-2.4-1.2-2.4-2.1-1.4-3.3-1-1.8-1.5-1.4-2.4-2.3-2.5-1.2-2.2-0.7-2.6-2-0.9-3.5-0.4-8.1 0.7-14.6-1.5-2 0.2-8.5 6.1-2 2.9-1.9 1.4-3.2 1.9-1.3 2-0.3 1.4-0.9 2.4-1.5 1.9-1 0.7-13.5 4.5-3.1 1.5-1.3 1.4 1.2 2-0.5 1.1-4-1.9-2.3-1.7-3.4-3.4-2-1.3-12.6-4-6.2-0.9-2.4-0.9-1.8 0.4-2.7 1.4-9.7 8.6-7.1 3.3-2.6-4.5-1.9-2.1-1-0.6-3.4-1.7-3.2-2-3.9-1-1-0.7-1.9-2.9-1.5-1.9-0.9-0.8-3.6-1.8-0.7-0.9-0.3-1.2 0.6-2 0.9-1 3.4-1.7 0.8-0.8 0.5-1.2 0.1-1.5-1-1.9-0.9-1.1-2.5-2.6-0.9-2.3 0-1.4 0.5-3 1.4-3 1.7-1.8 0.5-1 0.1-1.4-0.9-2-2.8-4.5-0.4-1.5-0.1-1.8 0.7-2.9 1.3-3.2 0.4-2.8 1.1-2.1 1.8-1.6 0.8-1.2 0.4-1.5-0.2-2.6-0.8-2-1.2-1.8-2.7-2.8-1.8-2.4-2.1-3.6-0.4-3-0.7-3.4-3-4-1.1-2.2 2.7 0.6 3.2-1.6 14.2 0.3 7.9-1.6 3.6-1.5 3.1-3.1 3.1-2.3 27.1-8.7 4.1-2.8 1.8 4 4.1 0.9 4.5-0.9 3.2-1.5 1.3-2.1 1.4-3.3 1.8-3.2 2.5-1.4 38.9-5 7.5-2.6 3 0 3.3-0.3 3.5 0.7 2.7 2.1 1.2 3.8 1.6 1.7 3.7-0.6 4.6 8.5 12.9 2.2 5.3-6.5-1-12.9 2.2-1.4 1.4-2.1 0.6-2.5 0.9-2.1 2.2-0.8 1.6-0.3 1.7-0.7 1.6-1.1 1.3-1.5 0.6-3.9-1-4.7 0-3.8 7.1-4 2.3 4.9 0.8 2.2 0.4 3.6 0.5 1.9 0.6 7 0.2 1.3 1.3 3.8 2.6 1 4.5 0.8 18.8 0 7.1-2.8 1.8 0.1 2.2 0.8 3.5 2.7 1.5 1.9 0.8 1.9 0.3 1.4 3.5 1.3 11.8-0.8z" id="IRL726" name="Limerick" data-id="IRL726" data-name="Limerick">
 </path>
 <path d="M569.8 606.1l1.5 4.8 3.2 3.3 1.6-1 1.4 1.5 0.7 3.1-0.6 4.1-1.5 1.5-7.8 3.9 0.6 1.4 0.9 3.7-2-0.4-1.7 0.5-1.3 1-1 1.3-0.3 1.4 0.4 3.3-4.6 3.2-4.1 7.3-2 4.7-1.6 6-1.1 3-3.7 8.4-1.1 3.7-0.4 2.7 1 4.1 1.3 3.3 7.4 13.5 5.7 14.6 2.1 13.4 0 5.1-1.1 4.6 0.2 3 5.6 21.1-0.1 8.4-2.5 3.3-4 5.5-9.3 8.1-1.9 2.4-1.7 3.7-4.8 8-1.3 3.8 0.4 2.2-7.9-0.2-12.8-1.1-2.4-1-1.6-1.4-1.8-1.9-2.9-4.4-1-2.6-0.4-2.1 0.4-4.3-0.1-2-0.7-2.3-1.3-1.5-2-1.5-4-2.5-2.1-1.7-1.6-1.7-0.7-2.4-0.2-1.8 0.3-1.7 0.9-2.4 1.8-3.5 0.2-1.2-0.2-1.3-1-2.3-0.8-1.5-3.4-4.3-0.7-1.9-0.1-1.7 0.4-1.3 2.1-2.6-0.8-1.8-2.4-2.8-4-6.4-0.7-1.6 0-1.6 0.3-2.8-0.1-1.4-0.5-2.4-1.3-4.2 0-2.9 1.1-3.9-0.2-2.1-0.5-1.9-3-7.2-0.2-1.3 0.2-1.2 0.9-0.5 1.9-0.3-1-1.3-8.2-5.9-5.3-4.9-5.3-3.2-1.3-1.7-0.7-1.7-0.3-1.4-0.7-1.4-2.2-3.5 0.1-1.2 0.7-0.9 1.3-0.4 4.5-0.4 1.1-0.5 0.6-1-0.1-1.2-1.2-2.2-1.1-1.2-4-2.6-1.8-0.9-5.9-1.6-2.3-1.2-1.9-1.7-1.1-2.3-0.3-2.6 0-3.5-0.4-1.4-1.1-1.2-1.9-1.4-2.8-0.9-15.1-0.5-2.7-0.8-1.7 0-2 0.5-5.4 3.4-7.3 3.3-2 1.4-1.3 1.4-0.7 2.8-0.5 1.1-1.9 1.7-17.5 4.5-1.1 0.5-5 0.9-8.5-0.2-3.5-2.8 6-8.1 3.2-1.3 2.7-0.4 2.3-1 6.2-4.1 0.9-0.7 3.7-4.6 1.3-2.9 1.3-4.4 1.8-10.4 0.2-4.4-0.2-2.9-0.5-1.3-1.5-1.9-7.1-4.9-0.4-1.8 0.5-2.6 1.8-4.9 1.4-2.7 2-2.5 1-1.5 0.4-2.1 0-3.2 0.5-1.4 0.9-1.1 2-0.5 1.6 0 1.4 0.4 3.5 1.8 1.2 0.4 1.3-0.8 1.1-1.7 0.8-4.2 0-2.4-0.3-1.8-0.7-0.9-7.6-4.8-1.4-1.9-0.9-2.7 0.1-2.9 0.9-5.1-0.4-1.3-1.3-2.2-0.2-1.4 0.3-1.4 0.8-1.7 1.7-0.7 2.3 0.3 10.8 5.3 2.7 0.3 4-2.3 2 1.2 1.2 0.1 7.4-0.3 1.3 0.5 1.8 1.7 0.8 2.6 0.6 4.4 1.7 1.7 3.9 0.9 4.8 3.3 2.5 1.1 1.3 0.3 2.9-0.2 1.7-1.2-0.5-1-1.4-1 0.5-0.8 1.1-0.8 2.2-0.5 17.9 1.1 1.1-0.5 0.7-0.9-0.5-1.4-1.5-2.2-1.3-3.7-0.7-0.9-1.2-0.4-2.7-0.1-1.3-0.4-4.5-2.4-0.8-0.6-0.4-1.2 0.7-3.3 1.8-4.2 0.3-2.2-0.1-2.9 0.9-1.2 3.7-1.4 2.2-0.4 1.9 0.3 2.7 0.9 1.4 0.2 2.6-0.5 1.7-2.2 1.4-3.4 1-4.2 1.1-1.9 2.1-1.8 4.6-2.6 2.4-0.5 1.6 0.3 2.4 2.2 0.9-0.3 0.2-1.9-0.2-3 0.7-1.5 2.3-2 1.2-1.7 1-2.8 0.9-1.7 2.3-1.2 4.3-1.5 2.2-1.6 2-3.4 0-3.8 5.1-2.5 4 0.9 10.5 4.3 2.8 2 1.5 1.9 0 4.8-0.1 1.5-0.9 2.4-0.6 1-2.5 0.4-2.9 2.2-1.8 3-0.2 4.3 1.5 11.2 0.6 1.9 3.5 2.2-0.6 3.2-1.6 3.1-0.9 1.3-1.6 1.2-2.9 4.1-1.7 4.5 2.3 2 1 1.3-0.4 6.4 0.3 2.4 1.7 1.3 4-0.4 1.7 1.9 2.8-2.1 2.3-2.6 1.7-2.8 1.1-3 6.4 9.7 2.1 5.7 0.6 7.8-0.7 2.3 0.5 3.2 1.1 1.9 3.5 2.7 5.2 4.9 2.9 5.3 1 5.3z" id="IRL727" name="Roscommon" data-id="IRL727" data-name="Roscommon">
 </path>
 <path d="M467.6 356.5l1.4 6.2-1.3 2.1-1.7 1.3-2 2-3 4.8-0.6 2.3 0.4 1.3 1.2 0 1.1-0.6 1.8-1.6 1.1-0.5 1.3 0 6 1.7 1.5 1.6 0.2 1.5-0.1 1.4-0.9 3.4-0.8 7.1-0.6 2.4-0.7 1.7-3.3 2.5-1.1 1.5-1.2 2.9-0.2 1.9 0.1 1.7 1.7 7.8 1.3 2.7 1.3 0.5 1.7 1.2 1.8 2.1 1.8 6.1 0.7 4 0.3 5.8 0.6 3.2 1 4.4 0.4 2.4 0 2.1-0.7 6.7-0.9 4.5 0.3 1.6 0.6 1.1 2.5 1.7 1.5 2.1 0.4 2 0.1 2.5 1.2 2.5 6.8 5.4 1.2 0.5 1.3 0.1 5.1-1.6 2.9 0 2.7 0.8 1.8 1.7 6.7 10.6 1.8 1.8 3.4 2.6 0 3.8-2 3.4-2.2 1.6-4.3 1.5-2.3 1.2-0.9 1.7-1 2.8-1.2 1.7-2.3 2-0.7 1.5 0.2 3-0.2 1.9-0.9 0.3-2.4-2.2-1.6-0.3-2.4 0.5-4.6 2.6-2.1 1.8-1.1 1.9-1 4.2-1.4 3.4-1.7 2.2-2.6 0.5-1.4-0.2-2.7-0.9-1.9-0.3-2.2 0.4-3.7 1.4-0.9 1.2 0.1 2.9-0.3 2.2-1.8 4.2-0.7 3.3 0.4 1.2 0.8 0.6 4.5 2.4 1.3 0.4 2.7 0.1 1.2 0.4 0.7 0.9 1.3 3.7 1.5 2.2 0.5 1.4-0.7 0.9-1.1 0.5-17.9-1.1-2.2 0.5-1.1 0.8-0.5 0.8 1.4 1 0.5 1-1.7 1.2-2.9 0.2-1.3-0.3-2.5-1.1-4.8-3.3-3.9-0.9-1.7-1.7-0.6-4.4-0.8-2.6-1.8-1.7-1.3-0.5-7.4 0.3-1.2-0.1-2-1.2-1-5.8 0.8-11.5-0.5-2.4-0.8-1.6-12.3-6.8-3-0.3-1.2 0.4-1.8 1.6-0.4 1.3-0.3 3-0.4 1.2-0.8 1-2.1 1.5-4.7 1.8-0.8 0.5-2.3 2.6-2.6 0.5-1.6 0.6-1.2 0.8-1.8 3.5-1.7 1.7-2.1 0.8-9.7 1.1-6.2-0.9-1.9-1.7-1.5-4.1-3.2-3.1-0.7-1.5-0.9-4-0.5-3.4-1-0.7-1.3-0.2-1.2 0.3-3.6 1.9-1.6 0.6-2.4 0.4-1.7-0.6-4-2.5-7.6-1.1-2.2-0.7-1.2-1.2 0-2.9 1.5-5.4 0.9-1.7 1.3-1.7 3.2-1.9 1.6-1.8 0.3-1.3 0.3-2.9 0.6-1.1 1.8-1.7 0.8-1 0.8-2.7 0.6-1.1 1-0.7 3.8-1.3 0.9-0.8 0.3-1.3-0.5-1.8-2.8-3.9-0.9-1.6-1.7-4-1.3-1.3-1.8-1.1-14.7-3.3-1.5 0.2-2.5 0.9-1.1 0.8-1 2.3-0.9 0.9-1.2 0.5-1.7 0.3-4.8-0.3-1.5-0.5-1.3-0.9-5.5-5.4-0.5-2 0.7-5.3 0.4-5.3-1.4-5.6 5-2.1 5-5.1 3.8-7.7 1.5-9.9 3.3-6.4 7.6-0.9 13.4 3.2 1.6-0.5 1.2-1.3 1.2-0.6 2.6 2.2 3.8 2.4 3.6 1.3 5 3.5 3.4 0.8 10.9 0 4.9-1.4 4.5-3.7 6.2 4.7 13.6-2.7 6.2 3.1 1.3 3.6 0.7 4.4 1.4 3.7 6.2 2.6 2.6 2.5 4.6 7.1 3-2.4 3.5-0.8 7.2 0.4 0-2.6-3.2-1.7-4-1.2-3.5-2.1-1.4-4.3-1.4-2.9-3.4-2.2-4.1-1.2-3.4 0 0-2.9 1.5-1.8 2.6-4.5 2-1.5 4.9 2.4 3 0.8 1.3-1.9 2.5-1.6 15.7 3-3.5-4.6-4-3.3-4.3-1.9-4.2-0.7-4.5 0.4-1.6-1.1-0.7-3.1 1.3-3.9 2.7 1 5.2 4.3 4.4-2.7-1.6-3.6-4.8-3-4.8-1.3-22.1 0-1.2-1.2-0.3-4 0.9-2.9 2.3-2.5 2.7-1.8 6.4-1.9 25.9-18.3 3.6-1.3 1.4-1.2 0.6-3 0.2-7.7 0.8-6.6 1.7 1.2 1.6 4.2 0.6 2.4 1.2 0.5 0.2 2.3 6.5-4.6 6.6-3.4 0.6-0.1z" id="IRL728" name="Sligo" data-id="IRL728" data-name="Sligo">
 </path>
 <path d="M444.8 161.1l-9.7 3.2-4.9-0.4-3.6-2.8 0-2.4 0.5-1.7-0.5-3.6 3.3-2.3 1.2-0.6-1.5-2.6 1.9-2.2 1.6-0.5 1.4 0.9 1.2 1.8 3.5 1.6 2.8 1.9 1.8 3.4 1 6.3z m70.2 197.4l-0.7-0.2-12.3-1.4-4.5 1-9.7-2.9-2.1-2.1 2.8-0.6 10.1-7 7.1-1.6 0-2.8-7.4-0.3-3.2-1.6-2.9-3.6 12.1-10.2-0.5-7.5 10.3-9.5-0.6-9.5 2.3 1.5 1.6 1.7 1.7 1.5 2.8 0.5 2.5-12.4 1.2-3.3-1.1-1.2-0.4-1.2-4.3 4.1-4.4 2.3-15.2 2.6-8.1 6.7-4.6 2.4 0-2.3 2.3-3.4 0.3-3.5-1.5-2.7-3.3-1.2-3.3 1.7-5.7 7.4-5.7 2.9-10.4 11.6-3 2.6-3.1 1.9-3.2 0.8 0-2.4 5.4-6.5 3.4-2.8 4.2-1.2 3-2.9-0.7-5.4-2.7-3.4-3.4 3.6-1.5 0 0.7-8.5-2.9 0-3.7 5.3-1.8 7.2-1.1 2.3-2.4-1.9-2.1-3.1-1-2.7 0.2-1.7-0.2-1.5-1.8-0.7-1.5 0.4-2.3 1.6-1.4 0.7-5.4 0.3-2.6 1-2.3 5.3-2.9-0.8-4.4-3.2-16.9-0.1-3.9-2.5 1.8-3.8-2.1-2.1-18.4-7.1-3.9 0.1 1.8-4.2 1.2-1.3 0-2.4-2.9-1.9-1.4-2.7 0.5-2.5 3.1-1.1 3.2-0.3 2.6-1.4 1.8-2.8 0.6-4.6 2.5-2.9 15.8-11.6 5.7-2.3 22.4 0.6 11.6 3.9 6.1 0.2 0-2.4-15.6-3.9-4.2-4.3 3.5-1.6 10-0.5 2.5 1 2.8 4.6 3.6 4.5 4 2.3 4.1-2.1-11.8-11.9-8.3-3-8.1-5.9-5.2-0.5 0.9-3.8 1.7-0.9 2.2 0.1 2.7-0.7 2.2-1.7 2.9-4.1 2.5-2.1 4.4 4.4 4.8 0.4 10.5-1.9 12.4 4.9 4.6 0.1 0-2.6-3.9-0.7-4.9-2.1-3.6-4.1 0.1-6.4 3.2-3.3 8.7 1.6 3.3-0.9-2.9-2.5-2.5-6.9-3-1.4-4.1-0.4-1.1 0.4-1 1.7-0.3 2.8-0.3 3.7-6.3-0.4-5.2-5.6-4-7.9-2.8-7.3 2.8-2.1 2.2 1.1 2.1 2.2 2.9 1.2 3-0.4 3-1.2 5.5-3.7-6.6-2.7-5-5-8.4-10.6 0-2.9 1.9-1.8 2.3-0.9 2.5 0.5 2.5 2.2 2.3-3.8 0.6-1.5-1.4 0 1.2-5.5 1.7-0.9 2.2 0.3 2.6-1.6 4.3-9.4 1.6-1.4 2.1 2.3 0.6 9 2.1 1.9 1.3-1.6 1.4-7.1 1.9-2.1-2.6-11.4-0.8-6.8 1-3.1 2.6-2.5 3.5-12 2.2-4.1 3.5-0.2 12.5 5.6 4.1-0.9 6.8-3.6 3.6-0.9-1.3 3.5-1.5 2.5-1.2 2.5-0.5 3.6 1.2 2 2.6-2.2 6.6-9.6 13.5-8.7 4.3-1.5 3.1-3.1 2.1-6.3 2.7-5.7 5-0.9 6 4.5-1.9 4.4-10.1 7.1 0 2.6 9.3-5.1 1.4 1 1.5 1.9 3.4-0.3 3.5-1.5 2.1-1.5 3.1 5.5 0 2.5-0.9 4.4 1.9-0.7 3.3-2.6 3.4-1.1-1.1 3.8-1.7 2.5-2.3 1.4-2.6 0.5 0 2.6 4.1-0.2 2.5 0.8 1.9-0.2 2.2-3 2.7-7.1-0.7-4.2-5-7.4-1.3-7.9 3.5-4.8 5.9-4.4 5.6-6.8 0.6 1.9 1 1-5.1 18.2-0.3 2.8 2.3 4.1 1.5 1.3 2 0 2.2-2.6 2-0.3 3 1.4 4.6 3.2 4.2 3.9 1.9 3.7 0.4 1.4 2 5.1 0.6 2.8-0.1 2.8-1.1 6.9-0.3 3.6 1.7-3.5 3.6-10.3 1.5-2.2 0.8-2.8-1.4-6.1-2.1-6.1-1.1-2.4-0.3-3.8-1.1-5.1-1.9-4.2-2.7-1.4-1.8 2.9 0.5 5.6 1.4 5.9 1.4 4.2-3.1-0.6-2.2-2.2-1.8-2.8-2-2.4-6.6-1.9-2.7-2.5 0.8-4.9 6.1-12.4 0-2.2 8 1.3 3.5-1.3 7.9-7 2.9-1 3.7 1.4 2.4 3.8 1.8 3.9 1.9 1.8 1.2 2.8-0.4 6.1-1 5.9-0.5 2.2 1.2 3.5 2.9 2.6 6.4 3.3 0.1 4.6 1.8 5.2 2.6 4.3 2.4 1.8 3.1 2.9 0.4 6.4-1.3 6.4-2.2 2.9-3.3 1-2.6 2.3-4.1 4.9-12.1 8 0 2.6 13.3-2.5 4.3 2.3-2.4 8.2-2.7 2.8-11 8-7.4 10.6-3.1 2.7 0 2.6 4.4-1.3 4-2.9 21.2-20.6 2.3-0.6 1.9-4.2 4.5-2 5.1-1.3 3.8-1.8 2.9-4.7 1.4-6.3-1-5.5-4.1-2.3-1-1.6 0.9-3.5 2.3-5.5 0-9.3-1.6-0.7-8.9-13.9-5.2-4.5-1.8-2.2-0.9-2.6-0.9-4.2 0.1-3.8 4.9-4.5 2.4-6.8 0.6-7.9-2.4-6.2 3.8 0.5 3.3 1.4 3.1 0.6 3.5-2.5-0.6-1.3-0.8-4 4.5 3.8 4.7 3 4.9-0.2 8.5-9.2 4.5-1.5 4.4 2.3 3.5 7.1-4.7 0.3-1.5-0.3 4.2 3.2 4.9 2.3 5 0.2 4.4-3.2-14.2-11.5-6.7-8.6-0.5-9.1-5.9-3.6-2.7-2.3-1.9-2.6 3.5-2.4 4 0.9 7.5 4.4 15.4 5.6 3.6 0.5 8.5 4.8 3 2.5 11.4 17.6 3.4 3 11.1 5.2 8.3 1.5 10.1 4.3 4.6 3.6 5-2.3 3.1 6-0.7 8-6.7 4-6.2 1.2-7.5 3.3-7 4.6-7.6 7.6-7.2 3.9-6.1 1.8-2.9 2.9-9.8 13.7-3.5 6.4-2.8 7.1-0.5 1.6-4.3 1.6-1.9 2.5-1.8 2.7-1.8 2.1-14.2 2.2-2.6 2-2.3 2.6-6.3 9.9 1 3.4-0.6 0.6-1.2 0.4-0.9 2.8 1.3 9.9-0.3 3.2-1.9 3.1-4.4 1.9-1.9 2.4-0.8 4.5 1 9.9 0 4-2.3 8.3-3.6 6.9-16.1 20.1-1.4 5.2-0.5 9.6 0.8 2.9 1.2 1.4 0 0.8-2.9 1.2-2.4-0.1-4.2-2.3-6.6 2.1-7.7-2.2-3.9 2.4-7.8 7.7-7.6 4.4-7.5 0.5-7.4-3.9-6.4-5.6-3-0.1-7.6 7.7-11.1 5.5 3.7 3.1 1.4 0.8-1.8 5.7 1.9 4 3.6 2.4 3.9 1.1 1.9 1.2 2.2 4.9 1.8 1.9 1.8 0.1 3.5-2.7 1.7-0.5 3 1.8 7.2 6.5 3.4 1.3 3.8-1.8 3.4-2.5 2.4 0.6 0.6 7.7-9.2 3.1-22.2 21.2-8.5 3.4-8.7-0.4-16.9-4-4.7 5.3-4.5 6.7-2.7 5.6-1.2 1.6-2.5 2.4-5.5 3.3-11.8 3.5-4.1 2.3z" id="IRL729" name="Donegal" data-id="IRL729" data-name="Donegal">
 </path>
 <path d="M515 358.5l-1.2 0.6 2.8 2.7 0.7 2.9 0.5 3.1 2.1 3.2 5.3 5.9 9.5 13.4 5.2 5.5 5.6 3 6.5 0 4.7 12 2.9 5.5 3.8 4.3 2 0.8-1.3 1.9-2 2.4-2.6 2.3-1.1 1.8-0.7 2.7-1.4 2.2-3.6 3.8-2 1.1-2.5 0.1-1.2-0.5-2.5 0.3-1.9 1.7-0.9 2.4 0.3 1.8 4 8.2 0.4 1.9-0.1 1.4-0.5 1.3-1.8 2.7-0.4 1.2 0.3 1 0.7 0.4 2 0.1 4.3-0.8 2.3 0.6 3.7 2.6 1.8 0.9 4.9 1 3.1 2.3 25.5 25.4 1.9 0.7 1.1-0.5 0.7-2.7 0.7-1 1-0.6 1.3-0.1 1.4 0.5 3.9 2.4 1.7 0.6 2.6 0.5 1.9 1 9.8 9.4 4.4 5.2 3 2.2 6.1 5.6 3.9 5.9 1.5 0.7 2.5 0.1 1.2 0.6 1.1 1.3 1.2 2.8 0.3 1.8 0.2 6.9 0.2 1 1.2 3.4-0.2 1.9-0.6 2.3-3.2 6.4-1.2 6.3-8.9-0.7-4.3 2.3-4.7 4.4-0.8 1.6-5.4 6.6-9.1 8-3.5 3.9-1.9 2.8-0.5 6.5-0.3 1.5-1.5 4.6-1.1 2.2-1.2 0.9-1.4 0-2.8-0.2-2.7 0.2-1.3-0.3-0.8-0.9-1.4-2.3-0.9-1-1.5-0.7-0.8 0.7-0.3 1.1 0 3.2-0.3 1.9-1.2 0.9-0.8-0.5-1.2-2-1.1-2.3-3-0.8-7.3 4.3-1-5.3-2.9-5.3-5.2-4.9-3.5-2.7-1.1-1.9-0.5-3.2 0.7-2.3-0.6-7.8-2.1-5.7-6.4-9.7-1.1 3-1.7 2.8-2.3 2.6-2.8 2.1-1.7-1.9-4 0.4-1.7-1.3-0.3-2.4 0.4-6.4-1-1.3-2.3-2 1.7-4.5 2.9-4.1 1.6-1.2 0.9-1.3 1.6-3.1 0.6-3.2-3.5-2.2-0.6-1.9-1.5-11.2 0.2-4.3 1.8-3 2.9-2.2 2.5-0.4 0.6-1 0.9-2.4 0.1-1.5 0-4.8-1.5-1.9-2.8-2-10.5-4.3-4-0.9-5.1 2.5-3.4-2.6-1.8-1.8-6.7-10.6-1.8-1.7-2.7-0.8-2.9 0-5.1 1.6-1.3-0.1-1.2-0.5-6.8-5.4-1.2-2.5-0.1-2.5-0.4-2-1.5-2.1-2.5-1.7-0.6-1.1-0.3-1.6 0.9-4.5 0.7-6.7 0-2.1-0.4-2.4-1-4.4-0.6-3.2-0.3-5.8-0.7-4-1.8-6.1-1.8-2.1-1.7-1.2-1.3-0.5-1.3-2.7-1.7-7.8-0.1-1.7 0.2-1.9 1.2-2.9 1.1-1.5 3.3-2.5 0.7-1.7 0.6-2.4 0.8-7.1 0.9-3.4 0.1-1.4-0.2-1.5-1.5-1.6-6-1.7-1.3 0-1.1 0.5-1.8 1.6-1.1 0.6-1.2 0-0.4-1.3 0.6-2.3 3-4.8 2-2 1.7-1.3 1.3-2.1-1.4-6.2 18.1-3.6 2.1 2.1 9.7 2.9 4.5-1 12.3 1.4 0.7 0.2z" id="IRL730" name="Leitrim" data-id="IRL730" data-name="Leitrim">
 </path>
 <path d="M641.8 560.2l3.9 7.3 0.9 1.4 1.4 1.4 3.3 0.9 1.5 1.1 1.4 2.8 0.6 1.9 0.3 1.7-0.3 1.1-3.2 1.4-1.3 2.1-1.4 3.8 0 1.2 0.8 0.8 3.2 0.1 5.2-1.8 1.4-0.2 2.8 0 4.5 1 1.5 1.3 1.5 1.9 2.1 4.4 0.8 2.6 0.5 2.2 0.3 3 2.9 4.2 12.1 10.6 1.4 1.8 1.1 2 1.1 3-0.3 2.8-0.2 4.4-0.5 1.3-1.4 2.1-1.1 0.8-1.7 0.7-3 0-3.3-0.8-1.5-0.1-2.5 0.6-2.4 2.1-1.8 2.5-1.8 3.3-1 0.9-1.3 0.6-4.4 0.2-1.1 0.7-1.3 1.3-1.9 3-1.7 3.7-1.2 1.6-5.6 4.8-2.2 3.5-0.8 0.7-1.3-0.6-2.3-1.4-2.5-0.5-1 0.5-0.3 1.4 1.3 2.1 6.5 4.1 1.5 1.9 0.4 1.2 0 3.1-0.7 1.5-1.6 1.5-3.8 1.4-2.3 2-2.2 3.2-1.1 1.4-1.9 1.8-1 1.4-1.6 4-0.7 1.1-2.9 4-0.7 2.6 0 2.8-1.7 1.5-3.7 1.4-9 1.6-9.9-0.7-8-3.1-0.9-0.8-2.1-1.3-1.4-0.4-2.8 0-16.8 2.4-3.7 1.5-9.2 5.5-5.7-14.6-7.4-13.5-1.3-3.3-1-4.1 0.4-2.7 1.1-3.7 3.7-8.4 1.1-3 1.6-6 2-4.7 4.1-7.3 4.6-3.2-0.4-3.3 0.3-1.4 1-1.3 1.3-1 1.7-0.5 2 0.4-0.9-3.7-0.6-1.4 7.8-3.9 1.5-1.5 0.6-4.1-0.7-3.1-1.4-1.5-1.6 1-3.2-3.3-1.5-4.8 7.3-4.3 3 0.8 1.1 2.3 1.2 2 0.8 0.5 1.2-0.9 0.3-1.9 0-3.2 0.3-1.1 0.8-0.7 1.5 0.7 0.9 1 1.4 2.3 0.8 0.9 1.3 0.3 2.7-0.2 2.8 0.2 1.4 0 1.2-0.9 1.1-2.2 1.5-4.6 0.3-1.5 0.5-6.5 1.9-2.8 3.5-3.9 9.1-8 5.4-6.6 0.8-1.6 4.7-4.4 4.3-2.3 8.9 0.7z" id="IRL731" name="Longford" data-id="IRL731" data-name="Longford">
 </path>
 <path d="M329 854.7l0.7 0.5-0.2 2.2-0.8 1.6-2.6 1-1.1 2.2-0.1 1.4 0.3 3 0.7 2.5 1.9 3.1 1.6 1.5 24.1 13.9 0.8 0.9 0.8 2.5 0 1.5-0.4 4.3 0.6 2.7 1.2 2.1 0.7 2.4-0.3 1.2-1.8 3-0.4 1.1 0.1 1.9 0.7 4 0.9 2.4 0.9 1.2 3.3 1.8 2.3 0.2 1.5-1.5 1.5-2.3 1.1-0.2 1.6 1.2 1.5 0.9 1.8 0.5 2.5 0.1 2.1-0.3 2.8-1.4 3.1-3.1 3.9-2.8 0.8-0.8 1.3-2.1 1.2-2.3 1.4-2.2 1.6-1.9 1.1-0.7 3.9-1.2 3.8-2.1 2.5-0.8 15.7-1 2.8 0.3 2.3 0.8 7.5 5.5 5.1 2.6 2.5 2.3 1 2.8 0.6 2.6 1.1 2.2 3.9 1.9 7.6 1.8 2.6-0.1 2.4-1.4 1.9-0.8 2.1-0.3 8.9 2.4 3.7 0 8-2.9 1.8 1.9 3.2 2 1.6 1.6 0.4 1.3-0.3 1.8-0.9 2.1-10.8 14.8-1.4 1.3-1.3 0.3-9.2-0.4-1.3 0.1-1.3 1.3-0.9 2.3-1.4 7.5-0.8 2.5-0.9 1.9-4.1 6.2-1.1 3.3-0.1 2-2.2 6.4 0.5 8.6-2.9 8.1-3.9 6-7.1 4 0 3.8 1 4.7-0.6 3.9-1.3 1.5-1.6 1.1-1.7 0.7-1.6 0.3-2.2 0.8-0.9 2.1-0.6 2.5-1.4 2.1-2.2 1.4-2.5 1-2.8 0.4-3.3-0.1-1.2-0.7-1.6-2.2-1.8 0.2-1.1 1.7-0.7 5-0.6 1.1-6.2 2.3-3.7 0.6-1.6-1.7-1.2-3.8-2.7-2.1-3.5-0.7-3.3 0.3-3 0-4-0.1-14.5-5.8-7.4-1.6-14.5 2.3-3.8-0.6-2.4-1.8-0.3-2.3 2.8-2.6 0-2.5-0.9-3.1 0.3-4.4-0.5-3.8-3.4-1.4 1.8-3 2.5-4.8 1.7-2.1-5.8 1.7-7 3.8-5.2 4.9-0.5 4.7-7.2 13.8-19.7 26.8-4.2 2.2-19.9 2.3-1.1 1-3.5 4.9-2.3 1.6-2.7 0.4-2.8-0.3-2.7-1-2.3-1.6 3.6-3.2 4.8-3.2 3.7-3.9 0-4.9-7.1 4.4-16.2 5.2-11.3 0.4-4.9-0.9-4.3-1.9-1.8-3.2-1.6-2.1-7.6-1.1-3-3.1 1.2-5.7-2.5-2.1-8.1 0.3 0 2.5 2.1 0.7 1.8 1.5 1.4 2.2 0.9 2.9-16.8 7.9-9.9 2.2-4.8 2.2-2 4.2-0.8 5.1-1.7 0.6-2-1.3-1.6-0.7-5.9 4.4-39.8 5.6 0-2.3 4-1.8 9.5-6.9 11.5-3.1 45-43.5-0.6-1.3-0.9-3.7 2.4-1.2 3.2-2.6 2.1-1.2 2.9-0.8 7 0.8 2.5-0.4 4.1-1.9 2.5-0.4 2.2-1.5 0.9-3.5 0.7-4.2 1.7-3.4-1.2-1.5 0.5-0.7 0.7-2.6-1.7-2.7 2.4-1.4 2.4-2.3 2.3-3 2-3.4 1.3-3.3 0.7-2.9 0.9-2.3 1.8-1.5 0-2.6 0.4-4.8 13.9-13.5 2.5-7.1-4.2-1.4-17.5 1-5.8-2.1 6.2-6.4 2.7-3.4 6.6-11.2 2.1-2.6 2.4-1.7-1.7-2.5 11.9-22.8 4.9-5.2 3.6-6.2 3.1-7.9 3.9-6.5 4.7-2 5.2 3.2 10.5 9.9 4.9 2.1 4.2-1.6 4.6-3 4.9-1.3 5.3 3.2 0.7-6-3.2-3.3-9.8-3.2 0-2.7 13.1-2.6 3.4 1.4 6.8 5.7 4.3 0.5 0-0.4z" id="IRL76" name="Clare" data-id="IRL76" data-name="Clare">
 </path>
 <path d="M862 1015.4l-5.5 8.3-3.5 2.1-3.6 0.5-0.9 0.9-0.5 1.3 0.5 2.7 1.5 1.5 2.7 1.1 0.6 0.6 0.3 1.5-0.9 1.7-2.1 2.7-1.4 1.3-1.4 0.8-1.3 0.4-2.9-0.1-4-1.1-2.4 0.6-3 1.4-5.6 3.9-2.2 2.3-1.1 2.1-0.4 9.8-0.4 3.3-1.4 3-9.1 11.3-1.1 2.3-0.5 2.1-0.9 2.7-3.9 7.5-0.9 2.4-0.8 4.6-0.7 1.4-0.9 1.2-2.1 1.1-1.3 0.4-8.8 0.4-3.6-21.5 0.2-6.1 2-2.9 0.9-2.8 0.6-4.6-0.1-1.6-0.7-1.7-1.8-2.1-6-5.5-1.4-1.9-1.3-2.1-0.6-2.2-0.6-3.3-0.9-6.7-0.2-3.4 0.2-2.5 1.1-3.1 0-1.7-1.1-0.6-1.8-1.6-1.8-2.3-2.9-6-2.3-3.2-1.1-0.5-2.4 0.1-3 2-1 0.4-1.2-0.3-1.1-1.1-0.9-2.2-0.9-1.4-1-0.9-2.5-0.9-0.5-0.7 1.5-3.2-0.1-4.5 0.5-2.9 1.4-4.9 2.2-4.9 4.6-4.7 6.2-4.5 14.1-4.3 2.5-1.4 1.6-1.5 1-6 0.2-1.5-0.2-9.5 0.5-4.9 5.2 3 1.7 1.5 1.6 1.8 1.8 1.4 1.1 0.3 1.9-0.6 1.3-1 5.4 0.8 6.1-1.5 7.2-0.4 1.8-0.6 2.2-1.4 2.3-3.8 4.9-11.1 27.4 7.7 7.6 3.6 2.1 1.9 3.4 1.3 3 0 1.4-0.4 2.9-1.8 1.2 0.2 1 0.5 1.6 1.9 0.7 1.6-0.1 1.4-0.5 0.8-1.6 0.7-0.8 0.7-0.5 1 0 1.4 0.3 7.6-0.2 3-0.6 1.1-1 0.7-4.7 1.8-2.1 1.3-1.8 1.5-2.2 1-1.3 0.4-2.9 0-2.7-0.7-2-1.4-2-3-1.7-1.8-5.4-3-1.2-0.2-1.2 0.2-0.7 0.9-1.3 4-2.4 4.4-1 2.4-0.8 2.7-0.4 3.9 0 3.3 0.6 1.4 1 0.3 2-1 1.1-0.1 1 0.4 1.1 1 2.8 4 0.8 2.2 0.6 3 1.8 3.4 0.9 1.1 3.9 6.9z" id="IRL77" name="Carlow" data-id="IRL77" data-name="Carlow">
 </path>
 <path d="M146.6 1404.8l1.5 0 2.2-0.5 1.8 1.2-1.8 2.6-1.4 0.7-17.5 5.9-2.3-1.1-3.4-1.8 0.5-3.5 3.2-2.7 4.3-1.6 5.3-0.5 7.6 1.3z m364.8-232l3.8 3.4 1.5 4.9 1.1 4.9 1.2 2.2 1.2 1.3 3.3 1.9 6.8 1.9 0.6 1.4 0.1 1.1-0.6 3.1-4.4 5-1.1 3.3-3.5 8-1.3 3.7-0.5 2.7 0.6 1.2 2.6 0.9 8.9-0.5 2.4 1 2.7 0.9 1.6 0.8 0.5 1.5 0.1 3.7 0.8 1.1 3.5 3.2 2.9 4.4 1.5 3.9 2.5 9.5 1 2.5 1 1.4 2.4 1.8 1.1 1.3 2.2 1.7 2.9 1.7 6.4 6.9 1.8 3.1 1.1 5.9 0.9 1.5 1 1.1 1.5 0.2 8.7-0.1 3.3 0.8-0.3 0.7-0.3 8.6-0.5 3.1-3 4.8-3.2 3.8-3.7 2.3-4.7 0.3 6.6 6.1 2.7 1-2.5 3.7-5 2.2-9.3 2-11.6 5.2-3.3 4.4 4.2 4.9-3.7 2.2-16.8 3.5-8.5 3.4-14 1.3-6.1-0.5-2.6 0.1-2.2-0.2-1-1.3 0.6-2.6 1.5-1.8 2-1.2 2-0.6-1.5-4.7 3.2-0.7 3.1-1.2 3-2.2 2.9-3.3-2.6-1.7-1.4-0.7-2.1-0.1 1.6-4.7 1.1-1.4 1.8-1.3-1-3.1-1.5-0.8-1.8 1.2-1.9 2.7-2.9-2-4.5-1-9.2 0.3 0-2.2-1.9-1.8-3.8 0.9-4.1 1.9-4.1 1.2-9.2-0.5-11.9-8.8-11.5-2.2-8.4 7.9-2.7 12.3 7.6 5 11 0.7 10.2 0 4-8.9 9.4 1.4 5.5 4.2-4 11.3 8.3-0.8 2.6 0.8 0 2.3-1.5 0 0 2.6 2.9 2.3-3.2 0.8-2.9 1.9 7.7 0-3.8 6-0.7 1.3 0.3 2 0.9 1.8 0.5 2-1 2.8-7.3 8.3-2.4 3.8-6 3.3-8.4 2-2.7 2.1-2.9 4.1-1.4-4.1-3.1-3-3.6-1.4-2.7 0.9 3.3 2.6 1.1 4.1-1.1 4-3.3 2-1.6-7.3-4.8-2.6-10.2-0.2 0 2.3 2.3 1.3 4.5 0.5 2.3 0.9 2.1-2.4 1.3-0.4 1.1 2.8-0.5 2-1.5 1.6-1.9 1.1-1.4 0.4-3.4 8.5-0.6 2.3 0.2 3.9 1 5.4 0.5 4.1-2.9-2.5-3.1-7.2-3.2-2.5-3.6-0.4-10.9 3.1-26.6-2.7 3.2 3.5 3.7 1.4 8.1 0 0 2.7-1.4 1-1.4 1.4 4.5 2.2-2.4 2.2-1.4 2.7-0.3 3.3 1.1 4.1-8.5-1.2-1.9 1.5-1.6-1.3-1.6-2.4-1.8-1.5-8.2 0-2.3-0.6-1.7-1-1.5-0.2-1.5 1.8-4.5-2-3.2 4.1-2.3 6.1-2.1 4.2-7.9 2.7-1.2 0.8-1 3.8-2-0.9-1.8-2.6-0.6-1.6-1.5-0.7-4.5-3.3-2.5-0.8-2.6 0.3-3.3 1.9-12.3 2.6-2.8-1-5-3.1-2.8-0.7 0 2.6 1 0.5 1.9 1.7-1.8 4.1-2.8 3.1-3.3 2-3.4 0.6-5.8-1.5-1.8 0.6 0.7 3.6 0 2.2-3.2 0.1-1.6 2.3-1.1 2.9-1.8 2.2-2.4 0.3-2-1-2.1-0.6-2.6 1.3-0.1-2.4-1.1-3.2-0.4-1.9-6.1 3.9-0.5 3.1-1.3 0.5-1.7-0.1-1.9 1.4-2.6 2.4-3.1 1.1-7.1 0.1 2.5-1.8 2.1-1.8 1.7-2.5 1.4-3.6-3.2 2.2-2.6 1.2-0.9-1.2 2-4.9 2.4-3.1 5.5-3.8 2.8-2.6-1-1.1-0.7-1.6-1.9 1.9-7.1 4.3-0.9 2.1-2.1 2.5-4.6 4.1-2.7-3.7 0.3-3.4 1.5-4 0.9-5-1.5-2.3-3.6-1.9-4.1-0.7-2.9 1.4 1.9 4.3-6.4 3.1-15.8 3.4-0.9 1.5-0.3 3.5-0.7 1.2-4-0.3-1.5 0.2-4.3 4.1-2.5 1.1-3.8-0.1-0.3-3.6-2.7-3.9-3.1-1.8-1.5 3.1-12.2 11.1 2.1 2.1 1 0.3-15.2 7.3 0.6-3.9-2 0.7-6.4 5.9-1.5-2.7-1.5 2.7 0.3-4.6 0.4-1.6 0.8-1.6 0-2.2-1.9-0.6-0.9-0.8-1.7-3.5 4.8-1.5 4.1-2.9 7.9-8 4.1-2.8 7.8-2.1 4.8-2.4 4-3.3 9.7-11.1 4.2-3.3 8-3.7 4.7-3.1-10.3-1-42.9 21.9-14 1.1 9.4-6.2 2.1-0.9 2.2-1.5 1.5-3.3 2-3.4 8.7-3.1 27.5-14.9 2.9-4.7 7.3-0.9 8.3-4.4 8.2-2 6.5-2.9 0.5-5.8 1-1.8 1-2.1 1-1 0-2.3-3.2-1.6-3.5 2.1-3.8 1.5-5.1-4.1-1.9 0.2-0.9-0.5-0.2-1.4 0.4-4.6-0.2-1.4-1.4-1.5-1.9-1.6-2.2-1.3-2.2-0.7 0.9 4.6-0.3 3.4 0.2 3 2.4 3.9-4.5 1.2-3 2.2-6.2 6.5-4.3 2.7-4.8 1.5-14.5 1.6-7.7 3.2-28.1 4.1-9.2 4.1-3.2 2.6-0.4 1-0.3 2.6-0.7 1.3-1.3 0.9-13.9 4.5-5.4 4.4-2.5-0.5-4.4-1.8-2.3-0.4-10.2 1.3-5 2.3-3.9 4-1.5-2.7 1.7-1.3 0.4-2 0.1-2.1 0.8-2 1.3-1 15.2-4.2 3.4-2.1 0-1.6-1.5-0.6 0.9-4.5-1.8-2.6-3.3-1-3.4 0.3 2.8-4.5 4.8-1 9.1 0.8 4.9-2.1 10.4-10.2 0-2.6-9.1 0 3.8-6.5 7-5.5 7.6-3.8 5.9-1.4-0.7 1.6-1.2 3.7-1.1 2 3.9-0.8 3.7-1.8 1.6-2.2 2.3 2 1.4 1.6 2 3.1 0.6 2.4-0.2 3.8 0.4 1.1 2.2 1.2 1 1.9-0.2 1.3-1 3.6 0.2 1.3 0.5 0.9 1.2 0.3 3.8-0.9 2.9-0.2 1.3-0.3 2-1.3 10.9-13.8 2.9-2.1 2.4-0.7 6 0 2.5-0.9 2.8-2.5 6.9-8.4 1.2-1.1 1.1-0.5 13.6-2.6 2.9 0.2 2.5 0.7 1.4 0.1 2.4-0.3 4.1-1.1 5.8-0.6 2.3-0.9 1.3-1.3 1.3-2.1 2.2-4.2 1.4-1.9 1.4-1.2 5.1-3 2.4-0.9 4.3-0.4 1.2-0.5 3.1-1.8 2.7-0.9 1.5-0.7 3-3.8 1.5-2.7 2-2.7 2.6-2.8 1-1.5 0.3-1.6 0-1.8-2-6.6-0.6-1.1-2.3-2.8-1.2-2-0.1-1.4 0.2-1.5 1.2-2 2.2-2 3.4-1.4 2.1-1.4 2.3-2.6 3.8-2.6 17.7-5.1 1.4-0.1 2.6 0.3 1.4-0.3 1.1-0.9 1-1.4 0.5-1.4 0.2-1.4-0.4-1.3-1.6-1-3-0.7-4.8-2-3.7-3-2.2-0.9-2.8-0.5-1.1-0.5-0.6-1.9-0.1-2.8 0.9-5.9 0.9-2.5 1.1-1.6 2-1.1 1-1.1 0.9-2.1-0.1-1.5-0.9-0.2-1.4-1.2-1.6-2.8-5.3-15.8-3.8-20-1.3-3.6-1.9-3.5-2.8-5.5-0.5-3.6 0.3-3.5 0.9-2.9 1.7-3 8.5-8.4 0.5-0.8-0.8-3.7 7.1-3.3 9.7-8.6 2.7-1.4 1.8-0.4 2.4 0.9 6.2 0.9 12.6 4 2 1.3 3.4 3.4 2.3 1.7 4 1.9 0.5-1.1-1.2-2 1.3-1.4 3.1-1.5 13.5-4.5 1-0.7 1.5-1.9 0.9-2.4 0.3-1.4 1.3-2 3.2-1.9 1.9-1.4 2-2.9 8.5-6.1 2-0.2 14.6 1.5 8.1-0.7 3.5 0.4 2 0.9 0.7 2.6 1.2 2.2 2.3 2.5 1.4 2.4 1.8 1.5 3.3 1 2.1 1.4 1.2 2.4 0.9 2.4 1.8 3 2.4 1.9 4.5 1.3 1.4 0.7 0.9 0.9 4 5.7 1.5 1.1 2 0.9 4.1 1.2 4.2 0.1 10.4-3.4 9.8-1.3 1.8-0.6 2.3-2.7 2.8-2.2 1.4-2.5 1-1.4 2.2-1.6 1.8-0.2 3.3 1.1 1.3 0.6 0.9 0.9 1 2.2 1.2 3.8 0.5 1.1 2.3 2.5 2.3 1.5 1.8 0.4 1.5 0.1 10.1-2.4 1.9 0.2 1.1 0.4 3.1 1.9z" id="IRL78" name="Cork" data-id="IRL78" data-name="Cork">
 </path>
 <path d="M704.6 491.6l0.7 0.7 13.3 5.7 4.9 0.7 2.7-0.8 1.4 0 15.6 4.8 2 0.1 1.5-0.4 1.7-1.6 1.1-0.7 1.3-0.4 1.9 0.2 5.6 1.7 1.9 0 1.5-0.4 3-2 1.2-0.6 5.7-0.8 1.3 0.3 0.8 0.9-0.2 1.8-1.3 2.3 1.4 2.3 19.8 20.3 4.5 3 1.4 0.5 1.6 1.7 2 2.7 8.2 14.7 0.9 2.4 1.6 5 3.7 3.6 13.7 8.2-4.6 4.9-0.4 1.4-1.2 1.5-1.5 0.5-3.2-0.3-2.3 0-2.3 0.9-6.5 3.9-4.9 0.7-2.5 0-1.8-0.5-2.8-2.5-2.3-1.3-2.5-0.5-1 0.4-0.1 1.5 1.1 3.9-0.2 1.3-1.4 1.9-1.4 0.3-1.4 0-3.1-1.7-1.1 0-0.1 1.4 0.8 2.8 2.7 6 1.3 2 6.3 7.4 0.9 2.4-0.1 1.4-0.6 1.3-1.2 1.3-1.9 1.3-2.2 3.3-1.9 1.9-6.8 3.5-5.3 0.7-15.6-3.2-8.9-4.4-3.3-1-1.8-0.9-1.6-0.5-1.5 0.1-4.4 3.1-3 1.6-3.1 0.8-1.7 1.1-1.3 1.2-2.2 0.6-3-0.6-6.2-3.3-2.5-1.9-1.5-1.5-2-3.5-3.1-0.5-9.1 4.5-11.2 6.2-12.1-10.6-2.9-4.2-0.3-3-0.5-2.2-0.8-2.6-2.1-4.4-1.5-1.9-1.5-1.3-4.5-1-2.8 0-1.4 0.2-5.2 1.8-3.2-0.1-0.8-0.8 0-1.2 1.4-3.8 1.3-2.1 3.2-1.4 0.3-1.1-0.3-1.7-0.6-1.9-1.4-2.8-1.5-1.1-3.3-0.9-1.4-1.4-0.9-1.4-3.9-7.3 1.2-6.3 3.2-6.4 0.6-2.3 0.2-1.9-1.2-3.4-0.2-1-0.2-6.9-0.3-1.8-1.2-2.8-1.1-1.3-1.2-0.6-2.5-0.1-1.5-0.7-3.9-5.9-6.1-5.6-3-2.2-4.4-5.2-9.8-9.4-1.9-1-2.6-0.5-1.7-0.6-3.9-2.4-1.4-0.5-1.3 0.1-1 0.6-0.7 1-0.7 2.7-1.1 0.5-1.9-0.7-25.5-25.4-3.1-2.3-4.9-1-1.8-0.9-3.7-2.6-2.3-0.6-4.3 0.8-2-0.1-0.7-0.4-0.3-1 0.4-1.2 1.8-2.7 0.5-1.3 0.1-1.4-0.4-1.9-4-8.2-0.3-1.8 0.9-2.4 1.9-1.7 2.5-0.3 1.2 0.5 2.5-0.1 2-1.1 3.6-3.8 1.4-2.2 0.7-2.7 1.1-1.8 2.6-2.3 2-2.4 1.3-1.9 1.7 0.7 8.8 1.3 3.2 2.5 1.5 6.1 0.9 16.8 2.9 5.9 4.4 2.7 12.2 1.6 13.2-0.9 4 0.8 16 12.1 1.6 2.4 0.3 3.4 0.8 3.2 2.6 1.9 23.7 5.6 4.8-1 9.2-7.3 5.5 0.5-2.4 3.3 0.8 0.6 2.2-0.4 1.8 0.5 1.7 3.4 0.4 1.6 1 0.3 3.3-0.8 10.8 3.7 2.3-0.3z" id="IRL79" name="Cavan" data-id="IRL79" data-name="Cavan">
 </path>
 <circle cx="458.2" cy="247.2" id="0">
 </circle>
 <circle cx="456.6" cy="253.3" id="1">
 </circle>
 <circle cx="203.1" cy="1336.7" id="2">
 </circle>
</svg>