<?xml version="1.0"?>
<!--
************* Copyright (c) 2017 Pareto Softare, LLC DBA Simplemaps.com *******************		
************* Free for Commercial Use, full terms at  http://simplemaps.com/resources/svg-license ************
************* Attribution is appreciated! http://simplemaps.com ***************************
-->
<svg baseprofile="tiny" fill="#7c7c7c" height="2798" stroke="#ffffff" stroke-linecap="round" stroke-linejoin="round" stroke-width="2" version="1.2" viewbox="0 0 1000 2798" width="1000" xmlns="http://www.w3.org/2000/svg">
 <path d="M353.7 1167.9l16.4 21 5.6 4.3 1.4 0.2 2.3 0.9 0.8 0.8 0.8 1.3 0.4 1.9-0.2 3.2-0.4 1.9-1.1 2.6-0.2 1.3 0 1.3 0.2 1.2 2.5 7.5 0.4 2.9-0.1 3.1-0.3 1.3-1.5 3.6-0.5 2.7 0 1.6 0.8 9.1-0.4 4.2 0.1 1.5 1 3.8 0.2 1.4-0.1 6.3-0.6 4.2 5.2 4.8 43.6 31.5-9.7 18.8-2.7 19.3-0.2 20-3.5 23.2-27.4 46.1-8.9 23.9 7.1 23.9 13.5 10.2 16.1 2.6 16.7-2.7 15.5-5.3 36.4-5.1 76 0.7 35.5-13.4 66.4-55.4 35.1-20.2 4.7-0.4 1.8 10.9-4.3 26 5 29 2.5 35.9 5.4 13 5.1 1 0.4 0.5-1 15.4-8.6 14.9-7.6 17.3 3.3 19.1-0.2 0.4-18.9-3.6-6.8 17.8 3.1 24.7 15 24.1 2.9 20.7 4.7 8.4 9.3 5 9.3 1.7-24.2 48-3.9 20.8 0.1 22.3-6.8 12.8-23.9 23.1-7.7 16.1-1.6 16 0.3 15.9-2.1 15.7-3.5 6.7-10.3 9.3-4.8 5.6-4 8.6-2.1 8-2.7 17.9-4.7 16.9-35.6 72.7-26.3 86.5-2.9 16.8-10.6 28.8 0 16.9 3 7.3 8.8 14.3 1.7 10-1.4 9.8-3.3 7.6-4.1 7.2-3.6 8.9-5.8 36.7-4.3 12.1-0.3 20.1 12.5 43.1 0 22.2-9.9 23.7-26 39.2-7.1 27.7-0.3 8.5-2.3 6.2-3 5.4-2.4 6.1-4.5 23.8-0.5 42.7-2.6 14.3-28.3 76.6-4.5 17.4-3.2 39.4-5.8 17.5-8.1 13.2-4.3 15.4-2.7 19-2.5 9.4-3.9 6.1-10.5 13.2-4.8 7.4-2.5 5-1 4.5-2 2.7-4.8 0.2-5.6-0.6-4.3 0.3-5.2-9.9-13.9-29-4.3-16.7 1.1-48.4-15.6-72.2-23.9-65.9-26.6-73.4-3.9-38.2 0.3-4.3-0.3-4.2-1.1-4.1-1.7-4-23.6-67.8-35.9-103.8-20.2-58.2-6.7-10.1-33.2-29.2-4.3-6.6-1.3-8.2 1.1-12.4 5.8-21.1 0.1-9.6-6-8.7-9.7-13.3-3.7-12-1.3-29.2-13.3-56.3-37.5-99.2-31-82.3-23.3-61.8-19.2-59.9-24-74.9-6.2-19.5 9.8-9 31.3-23.3 21.3-23.1 1.8-12.1-5.1-24.5 0.2-12.1 13.1-25.1 68.8-66.2 9.2-6.3 0.1 0 19.9-18.3 1.3-15.2-11.6-14.4-18.4-15.4 5.1-12.4 14.8-19.1 54.1-93.4 4.2-5.6 34.3-77.6 2.3-0.8 5.3-1.6 1.3-0.6 2.4 0 2.8 0.6 5 1.9 2.5 0.4 1.9 0 1.2-0.4 1.2 0.5 1.1 1.2 0.6 3.3-0.3 1.7-0.6 1.3-2.4 2.6-0.3 1.1 0.8 5.5-0.1 1.3-1 3.7 0 6.1-0.3 1.3-0.8 0.9-0.8 0.7-1.2 0.2-2 0-2.5-0.4-3.7-1.3-2.5-0.5-1.3 0.1-1.2 0.4-1.3 1.1-0.9 1.4-0.6 1.6 0 2.3 0.5 1.8 1.1 1.4 1.8 1.7 4.1 2.9 2.5 2.6 0.3 1-0.1 1.2-0.4 1.2-1.4 1.9-1.9 1.3-3.5 1.6-2 1.2-1.5 1.8-0.4 1.1-0.2 1.2 0.4 1.7 0.8 1.5 14.6 5 2.8 0.3 2.1-0.8 6.3-4.8 2.4-1.3 3.4-1 1-1.2 0-0.9-1.7-1.6-1.1-2.2-0.4-1.3-0.7-1-2.1-1.3-1.2-0.4-1-0.6-0.5-0.8 0.3-0.8 1.8-0.6 10-1.5 1.4-0.8 1.9-2.3 1.8 0.4 3.1 1.1 10.3 6 2 1.6 2 3 1.5 3.5 4 12.4 1.4 2.6 1 1.6 2.3 2.4 5-2.6 20.1-16.1z" id="ISR3053" name="HaDarom" data-id="ISR3053" data-name="HaDarom">
 </path>
 <path d="M586.5 628.6l-1-0.6-10.9 0.7-8.5 6.5-15.3 17.9-18.9 12-18.2 8.7-16.1 11.6-11.9 20.9-7.3 37.5-6.9 0.7-4.2-1-2.1-3.1-1.2-1-2-1.3-9.6-8.8-2.6-1.5-2-0.8-30.3-2.6-5.8 0.8-1.4 0.4-6.9 0.6-25.4-0.7 3.3-16.4 18.8-94.1 3.5-6.9 3.7-32.3 3-9.6-1-10.7 13.9-58.9 3.3-64.9 4.9-14.7 9.1-5.1 7.7 1.9 12.4 8.2 9.3 1.8 5.4-1.2 21.4-23 2.6-6.1 5.1-19 5.7 1.7 1.6 1.3 1.5 2 2.2 4.9 1.2 2.2 1 1.4 2.5 1.5 0.5 1.5 0.2 2.2-1.5 9 0.3 1.4 0.9 1.4 5.1 3.5 2.5 2.4 2.9 2.2 2.2 1 9 2.5 2.2 1.3 0.9 0.7 0.6 1.6 0.1 2.3-1.6 9-0.1 1.4 0.6 2.7 1.2 3.5 6.4 13.7 0.2 2.2 0 2.8-0.7 5.9-0.8 2.8-0.6 1.9-6.1 9.5-0.6 0.9-0.9 2-0.2 1.4 1.1 10.2-0.3 2.2-0.8 1.5-3.1 1.9-0.6 1.3-0.4 1.9 0.4 3.7-0.1 3.1-1 2.1-1.4 1.9-1.6 1.7-2 1.2-1 0-1-0.4-1.6-1.8-1.7-3.1-1.8-1.3-1.2 0-0.9 0.6-0.7 0.9-0.9 2.4-0.5 4.4 0 1.3 2.9 12.9 0.1 2.9-0.4 1.8-8.8 4.8-1.6 1.6-1.3 2-4.5 10.3-1.9 3-2 1.4-1.2 0.3-1.2-0.2-8-3.5-2.6-0.7-1.5-0.1-1.4 0.2-2.5 0.8-1 0.6-1.6 1.7-1.9 3.1-0.4 1.2-0.6 2.6-0.1 1.5 1.1 2.3 1.8 2.9 4.8 5.3 0.9 2.1-0.1 1-2.8-0.4-3.4-1.4-1.7-0.5-1.3-0.2-2.9 0.2-2.3 0.9-0.7 1 0 1.6 0.9 2.4 2.6 4.2 1 2.6 0.5 2.1 0.2 2.8 0.9 2.3 2.5 2.2 8.2 5.5 0.9 1.2 0.4 1.6-0.4 2.9-1.4 5.1-0.2 1.4 0.1 1.3 0.4 1.2 1 1.1 4 2.6 1.1 1.3 0.8 1.4 1.1 1.5 1.8 1.5 3.8 2.2 2 1.4 2.8 1.2 17.6 3.5 2.6 0.8 1.9-0.3 2.4-1 4.1-3 1.8-1.9 1.2-1.5 1.1-2.1 1.1-0.9 3.3-2.1 1-1.2 0.7-1.4 0.4-2.6 0.5-1.2 1.8-1.6 5.5-2.8 0.9-0.7 1.5-1.9 1.7-3.3 1.5-1.7 2-1.1 2.7 1.6 2 1.4 17.2 16.4 1.4 3.3z" id="ISR3054" name="Haifa" data-id="ISR3054" data-name="Haifa">
 </path>
 <path d="M478.4 743.8l-2.4 12.3-4.4 14.8-2.3 1.7-8.1 3-2.3 1.7-2.5 9.1-2.2 22.7-1.8 9.4 7.6 2.4 4.2 5.4 1.1 7.6-2.2 9.1-4.5 9-23.6 21.9-8.1 10.5-1.2 6.9 9.9 22.3 3 12.1 7.7 67.7 0.3 13.4-1.1 15.9 0.2 1 0.8 0.6 0.5 2.4 0.2 2.6-0.2 2.6-0.5 2.5-2.6 21.5 12 28 7.3 24-16.7 9.4-16.5 5.8-3.6 9.7-1 1.3-9 3.9-9.4 0-2.5 0.9-1.6 2.2-4.5 10.6-3.9 3.7-3.8 2.2-37 10.3-20.1 16.1-5 2.6-2.3-2.4-1-1.6-1.4-2.6-4-12.4-1.5-3.5-2-3-2-1.6-10.3-6-3.1-1.1-1.8-0.4-1.9 2.3-1.4 0.8-10 1.5-1.8 0.6-0.3 0.8 0.5 0.8 1 0.6 1.2 0.4 2.1 1.3 0.7 1 0.4 1.3 1.1 2.2 1.7 1.6 0 0.9-1 1.2-3.4 1-2.4 1.3-6.3 4.8-2.1 0.8-2.8-0.3-14.6-5-0.8-1.5-0.4-1.7 0.2-1.2 0.4-1.1 1.5-1.8 2-1.2 3.5-1.6 1.9-1.3 1.4-1.9 0.4-1.2 0.1-1.2-0.3-1-2.5-2.6-4.1-2.9-1.8-1.7-1.1-1.4-0.5-1.8 0-2.3 0.6-1.6 0.9-1.4 1.3-1.1 1.2-0.4 1.3-0.1 2.5 0.5 3.7 1.3 2.5 0.4 2 0 1.2-0.2 0.8-0.7 0.8-0.9 0.3-1.3 0-6.1 1-3.7 0.1-1.3-0.8-5.5 0.3-1.1 2.4-2.6 0.6-1.3 0.3-1.7-0.6-3.3-1.1-1.2-1.2-0.5-1.2 0.4-1.9 0-2.5-0.4-5-1.9-2.8-0.6-2.4 0-1.3 0.6-5.3 1.6-2.3 0.8 16.6-37.7 11.3-18.1 13.4-44.2 5.5 6.2 3 1.9 19.6 2.5 12.5 0.3 2-0.3 2.9-1.2 10.7-11.6 1.7-1.2 3.7-2.1 2.3-0.6 1.8-0.1 1.1 0.5 1 0.6 2.3 2.6 2.5 2.1 1.6 0.5 2.7-0.5 10.7-4.4 2.6-2.1 1.4-1.8-0.2-1.3-0.8-1.5-2.4-2.2-5.4-2.6-1-0.7-0.8-2.3-2.7-17-0.9-2.3-0.7-1-1.7-1.6-2.8-2.1-2.7-2-1.6-1.9-0.9-2.3-0.2-2.7 0.6-2.7 0.6-2.5 0.4-7.1 0.5-3.3 0.6-1.4 3.9-5 1.3-2.2 4.2-8.6 1.6-5.5-0.2-3-1.1-3.1-0.2-1 0.1-1.6 0.5-2.4 0.5-3 0-5.5-0.1-1.4-0.4-1.3-0.5-1-0.8-0.9-3.3-1.7-0.9-0.6-0.8-0.8-1.4-2-2.9-1.9-3.6-3.1-1-0.7-2.2-1.1-2.6-0.7-12.9-1.6-3.7 0.1 20.2-63.5 18.3-91.4 25.4 0.7 6.9-0.6 1.4-0.4 5.8-0.8 30.3 2.6 2 0.8 2.6 1.5 9.6 8.8 2 1.3 1.2 1 2.1 3.1 4.2 1 6.9-0.7z" id="ISR3055" name="HaMerkaz" data-id="ISR3055" data-name="HaMerkaz">
 </path>
 <path d="M586.5 628.6l-1.4-3.3-17.2-16.4-2-1.4-2.7-1.6-2 1.1-1.5 1.7-1.7 3.3-1.5 1.9-0.9 0.7-5.5 2.8-1.8 1.6-0.5 1.2-0.4 2.6-0.7 1.4-1 1.2-3.3 2.1-1.1 0.9-1.1 2.1-1.2 1.5-1.8 1.9-4.1 3-2.4 1-1.9 0.3-2.6-0.8-17.6-3.5-2.8-1.2-2-1.4-3.8-2.2-1.8-1.5-1.1-1.5-0.8-1.4-1.1-1.3-4-2.6-1-1.1-0.4-1.2-0.1-1.3 0.2-1.4 1.4-5.1 0.4-2.9-0.4-1.6-0.9-1.2-8.2-5.5-2.5-2.2-0.9-2.3-0.2-2.8-0.5-2.1-1-2.6-2.6-4.2-0.9-2.4 0-1.6 0.7-1 2.3-0.9 2.9-0.2 1.3 0.2 1.7 0.5 3.4 1.4 2.8 0.4 0.1-1-0.9-2.1-4.8-5.3-1.8-2.9-1.1-2.3 0.1-1.5 0.6-2.6 0.4-1.2 1.9-3.1 1.6-1.7 1-0.6 2.5-0.8 1.4-0.2 1.5 0.1 2.6 0.7 8 3.5 1.2 0.2 1.2-0.3 2-1.4 1.9-3 4.5-10.3 1.3-2 1.6-1.6 8.8-4.8 0.4-1.8-0.1-2.9-2.9-12.9 0-1.3 0.5-4.4 0.9-2.4 0.7-0.9 0.9-0.6 1.2 0 1.8 1.3 1.7 3.1 1.6 1.8 1 0.4 1 0 2-1.2 1.6-1.7 1.4-1.9 1-2.1 0.1-3.1-0.4-3.7 0.4-1.9 0.6-1.3 3.1-1.9 0.8-1.5 0.3-2.2-1.1-10.2 0.2-1.4 0.9-2 0.6-0.9 6.1-9.5 0.6-1.9 0.8-2.8 0.7-5.9 0-2.8-0.2-2.2-6.4-13.7-1.2-3.5-0.6-2.7 0.1-1.4 1.6-9-0.1-2.3-0.6-1.6-0.9-0.7-2.2-1.3-9-2.5-2.2-1-2.9-2.2-2.5-2.4-5.1-3.5-0.9-1.4-0.3-1.4 1.5-9-0.2-2.2-0.5-1.5-2.5-1.5-1-1.4-1.2-2.2-2.2-4.9-1.5-2-1.6-1.3-5.7-1.7 2.5-9.3-1.1-8.7-7.5-3.8 3.7-10.8 4.2-44.2 8.3-23.4 2.5-14-2.4-12.6 2.6-2.6 3.3-4.6 2.8-2.2-4.2-5 2.8-0.7 0.6-0.3 48.7 3.6 2.7-1.1 6.7-5.2 4-1.5 3.6 0.2 8.7 2.3 4.3 0.3 22.5-7.5 7.4 0 6.7 3.1 6.8 5.5 6 7.4 4.2 8.6 5.7 7.4 8.1 1.1 34.3-8.9 29.1-12.6 18.7-1.6 3-11 11.4-20.4 5.2-12.2 3.2-18.5 1.5-35.9 4.7-16 5.5-9.9 3.6-10 4.1-6.9 7.1-0.8 3.6 4.3 11 17.5 7.7 5.7 3.7 3.1 0.5-3.1-1.9-13.4 5.4-5.5 18.3-4 12.2-9.8 23.1-24.3 10.8-3 8-0.8 8.7-2.4 8.5-3.8 7.2-4.6 9.9-11.1 12.2-24.4 9.3-11.2 0.9 3.9-3.4 4.5-0.9 11.9-1.9 4-1.5 9.7-10 7.4-4.7 5.1-13.3 6.2 23.3 16-20.4 29 4.3 5.6 17 12 2.5 34 13.7 8.6 1.9 20.9-6.6 14.3-6.7 10.7 0 10.8 22.8 9.6-1.9 9.7 8 69.1 3.4 9.1 14.3 23.8-8.6 16.4-4.3 1.1-10.4 18.1-7.1 21.6 2.3 9-4.7 18.6-30.4 36.2-16.2 24.3-10.6 2.8-33.5 21.2-20.2 18.1-9.7 5.1-14.5-1.8-11.2 8.1-9.2 12.3-5.4 4.8-4.3 1.8-1.3 2.4-0.4 6 2.5 5.2 5.2 3 0 4.5-4.3 0 0 5.4 3.5 6.5 1.9 18.7 3.4 8.9-2.5 3.9-0.9 0.4-0.3-1.7-0.8-2.6-1.5 2.6-2.8 7.7-3.7-4.9 2 15.1 1.7 4.6-8.3 0 0 4.9 3.2-0.3 2.6 0.1 4.3 6.4 1.3 3.1 5.7 5.9 0 4.6-5.5 1.6-3.6 3.8-2.3 4.9-1.1 4.9 2.2 1.6 1.4 1.3 1.6 1 2.8 0.5 0 5.4-3.9 2.6-4.1 1.9 3.7 4.9-8.3 5.4 1.4 1.3 1.2-0.2 1 0.4 1 3.4-4.6 0 0 4.5 3.8 3.8 0.6 2.9-2.6 2-5.9 1.1 2.7 8 1.4 2.3 3 3.2 2.5 4.5-49.2-12.8-14.3-3.7-14.5-0.5-15.8-4.7-3.3-18.2 0.2-22.3-5.4-17-18.1-11.3-18.1-2.1-38.3 1.9-11.1-4-17.4-14.4-8.1-4.3z" id="ISR3056" name="HaZafon" data-id="ISR3056" data-name="HaZafon">
 </path>
 <path d="M296.5 1009.2l5.8-19.1 0.4-3.4-0.8-7.9 0.4-3.4 8.3-4.5 28.9-90.5 3.7-0.1 12.9 1.6 2.6 0.7 2.2 1.1 1 0.7 3.6 3.1 2.9 1.9 1.4 2 0.8 0.8 0.9 0.6 3.3 1.7 0.8 0.9 0.5 1 0.4 1.3 0.1 1.4 0 5.5-0.5 3-0.5 2.4-0.1 1.6 0.2 1 1.1 3.1 0.2 3-1.6 5.5-4.2 8.6-1.3 2.2-3.9 5-0.6 1.4-0.5 3.3-0.4 7.1-0.6 2.5-0.6 2.7 0.2 2.7 0.9 2.3 1.6 1.9 2.7 2 2.8 2.1 1.7 1.6 0.7 1 0.9 2.3 2.7 17 0.8 2.3 1 0.7 5.4 2.6 2.4 2.2 0.8 1.5 0.2 1.3-1.4 1.8-2.6 2.1-10.7 4.4-2.7 0.5-1.6-0.5-2.5-2.1-2.3-2.6-1-0.6-1.1-0.5-1.8 0.1-2.3 0.6-3.7 2.1-1.7 1.2-10.7 11.6-2.9 1.2-2 0.3-12.5-0.3-19.6-2.5-3-1.9-5.5-6.2z" id="ISR3057" name="Tel Aviv" data-id="ISR3057" data-name="Tel Aviv">
 </path>
 <path d="M430 1299.3l-43.6-31.5-5.2-4.8 0.6-4.2 0.1-6.3-0.2-1.4-1-3.8-0.1-1.5 0.4-4.2-0.8-9.1 0-1.6 0.5-2.7 1.5-3.6 0.3-1.3 0.1-3.1-0.4-2.9-2.5-7.5-0.2-1.2 0-1.3 0.2-1.3 1.1-2.6 0.4-1.9 0.2-3.2-0.4-1.9-0.8-1.3-0.8-0.8-2.3-0.9-1.4-0.2-5.6-4.3-16.4-21 37-10.3 3.8-2.2 3.9-3.7 4.5-10.6 1.6-2.2 2.5-0.9 9.4 0 9-3.9 1-1.3-1.2 3.2 5.8 12 20 3.5 9.5 0.1 4.4-0.9 6-3.7 10.8-11.7 4.5-2.9 8.6 1.5 31.8 15.3 42.3 10 10.3 6.4 4.8 8.9 1.1 11.9-0.9 15.4-2.3 4-2.7 0.9-3.2-1.5-3.4-3.3-37.6 8.1-11.6 5.9-10.8 8.8-21.2 21.7-49 37.1-11.1 13.2-1.3 2.6z" id="ISR3058" name="Jerusalem" data-id="ISR3058" data-name="Jerusalem">
 </path>
 <circle cx="321.8" cy="1058.1" id="0">
 </circle>
 <circle cx="97.9" cy="1560.8" id="1">
 </circle>
 <circle cx="532.3" cy="321.7" id="2">
 </circle>
</svg>