<?xml version="1.0"?>
<!--
************* Copyright (c) 2017 Pareto Softare, LLC DBA Simplemaps.com *******************		
************* Free for Commercial Use, full terms at  http://simplemaps.com/resources/svg-license ************
************* Attribution is appreciated! http://simplemaps.com ***************************
-->
<svg baseprofile="tiny" fill="#7c7c7c" height="1018" stroke="#ffffff" stroke-linecap="round" stroke-linejoin="round" stroke-width="2" version="1.2" viewbox="0 0 1000 1018" width="1000" xmlns="http://www.w3.org/2000/svg">
 <path d="M541 8.9l-0.5 1.9 0.4 0.6 0.6 0.4 0.2 0.7 0.2 0.2 0.9 0.6 0.2 0.7-0.9 1.9-0.3 0.8-0.1 1 0.2 0.7 0.1 0.8 0.2 0.4 0.7 0.3 0.6 0.1 0.3 0.2 0.3 1.5-0.1 0.8-1.1 0.5-1.1 0.9-0.8 0.8-1.2 1.7-0.3 0.7-0.1 0.5 0.5 0.9-0.2 0.3-0.6 0.4-1.3 0.6-2.1 1.1-0.6 0.5-1.5 2.2-0.4 0.7-0.6 0.5-0.8 0.6-1.8 0.8-0.9 0.3-0.5 0.3 0.4 0.7 0 0.3-0.4 0.3-3.9 1.5-1.7 1.1-0.6 0.5-0.4 0.7-0.4 1.4-0.4 0.7-0.5 0.4-0.8 0.2-1.4 0.7-2.1 2.3-3.2-0.8-2.8-1.1-7.2-1.3-1.1-0.3-1.8-1-0.9-0.2-0.7 0.4-0.8 0.9-0.5 1-0.2 1.9-0.4 1-0.2 1-0.1 0.5 0.1 0.8 0.3 0.6 0.1 0.7 0.3 0.4 1 0.8 0.6 0.3 0.6 0.1 1.4 0.1 0.8 0.1 0.8 0.5 1.8 0.6 0.6 0.1 0.6 0.2 0.3 0.4 0.2 0.6 0.3 1.3-0.1 0.6-0.2 0.6-0.8 1.8-0.5 0.5-0.5 0.3-0.5 0.2-0.1 0.3 0.2 0.8 0.2 2.1 0.1 0.8-0.1 1.5-0.5 1.4-0.3 0.4-0.4 0-0.3-0.2-1.8-0.6-0.9 0.1-0.7 0.4-0.4 0.5-0.2 0.6 0 0.8-0.1 0.6-0.2 0.6-0.7 0-1.5-0.3-14.8-4-3.2-1.6-1.8-1.7-3.1-2.2-1.4-1.4-1.6-1.3-1.5-0.9-3.9-0.4-1.6 0.5-1.5 1.1-0.7 1.3-3.2 3.8-3 5-0.8 2.9-1 2.3-0.4 2-1.6 1.1-3.4 1.7-4.1 0.4-13.3 1.8-8.4 4.7-1.2-0.3-1.5 0-1.2 0.3-0.9 0.7-0.9 1.5-0.9-1.9-0.5-0.9-0.7-0.6-1.5-0.8-0.8-0.1-3.6 1.8-1.1 0.1-0.7-1 0.2-1 1-0.8 2.3-0.8-0.9-1-0.8-0.2-0.8-0.1-1-0.5-1.8-1.6-3.1-3.5-0.9-0.7-1.2-0.3-0.9 0.3-0.6 0.6-0.4 0.5-0.5 0.3-4.3-0.1-1.7-0.8-1.4-3.9-1.7-1.3-3.2-1.7-2 0.8-1.1-1 0.5-1.3 2.6-0.2-1.1-2.1-0.8-1-0.3-1.2 0.8-2.8-1.7-0.4-0.1-2 0.5-2.6 0-1.9-2 2.3-1.8 0-1.8-1.4-3.9-3.8-1.8-2.8-1.4-3-0.7-2.7 0-1.9-0.6-1.4-0.7-1.3-0.7-1.6 4.6-0.5 5.8-1.9 8.8-1.5 1.6-0.7 0.4-0.7 1.2-3.5 12.8-18.8 0.4-1 0.1-0.9 0.2-0.9 0.7-1 0.6-0.5 5.1-2 0.9-0.1 1.2 0.2 0.9 0.6 0.4 2.2 0.9 0.7 8.4 2.8 4.2 0.6 4.3-1.5 2.6-2 3.9-1.6 4.1-1.1 3.2-0.3 1.7 0.5 13.4 7.2 0.8 0.3 0.8 0.1 0.9-0.2 1-1 0.9-0.4 1.8-0.3 1.3 0.3 4 3.2 4.2 2.1 4.7 3.9 1.7 0.7 1.3-0.2 2.5-1 1.3-0.2 1.3 0.2 0.8 0.5 1.9 1.4 2.6 1 2.4 0.4 10.5-0.8 2.7 0.3 2.4 0.6 1 0.7 2.2 2.2 0.7 0.5 1.3-0.4 1.9-1.9 5.4-1 3.1-3.6 3.1-4.4 3.7-3.2 4.6-0.7 3.4 0.5z" id="IRQ3046" name="Dihok" data-id="IRQ3046" data-name="Dihok">
 </path>
 <path d="M598 190.5l5.6 12.5 2.6 2.8 2.3 3.2 4.7 4.2 0.9 2.5 0.1 2.1-1.7 3.1-0.5 1.4-0.2 3.2-0.4 1.4-0.3 4.5-0.4 3.6 0.3 1.3 0.7 1.2 2.1 2.5 2 2.7 0.1 1.4-0.5 1.8-1.1 2.1-3.7 5-0.7 2.5 0.3 1.9 0.6 2.1 0.4 1.8-0.4 2-1.2 2.6-0.2 1.7-0.3 0.8-0.4 0.5-0.7 0.3-1 0.5-1.2 0.8-1.1 1.6-0.4 1.2 0 1 0.1 0.9 0.7 1.8-0.2 1-1.1 1.1-8 2.5-4.5 3.8-1.3 0.1-0.6 0.3-0.7 0.5-1 1.2-0.8 1.3-0.6 2.2 0.1 1.8 2.1 4.9-0.1 1.8-1 1.6-2.8 2.1-1.5 0.7-1.3 0.8-0.8 0.8-2.2 3.3-2.2 2.2-1.6 2.4-0.2 1.6 0 0.7-0.3 0.6-0.4 0.9-0.1 0.6 0.1 0.4-0.1 0.4-0.6 1.1-0.2 0.7-0.4 0.5-1.1 0.6-1.6 2.3-0.4 1.3-0.3 0.7-0.6 0.7-1.3 1.1-0.3 0.5-0.1 0.5 0 1.2-0.1 0.7-0.3 1.3 0.1 0.6 0.4 0.8-0.2 0.8 0.2 0.5 0.4 0.2 1.1 0.1 0 0.3-0.4 0.7-2.3 2.7-1.6 0.1-1-0.3-7.8-6-8.5-8.6-6.2-3.8-8.6-3.9-7.2-2.7-27-16.3-7.9-3.6-2.3-1.6-1-1.5-1.9-1.3-2.6-1.3-1.4-2-6.7-7.2-0.8-0.7-1-1.4-0.9-1.5-0.4-1.1 0.4-1.4 1-0.6 1.2-0.4 0.9-0.6 0.4-2.4-2.1-1-5.3-0.9 0.7-0.8 0.3-0.8 0.4-1.8-0.1-0.5-0.4-0.4-0.2-0.5 0.3-0.8 0.4-0.3 0.6-0.2 0.1-0.4-0.6-1.6-1.5-1-2.8-1.1-1.2-1.1-2.6-2.8-0.7-1.3-0.5-0.3-0.4-0.7-0.2-1.2 0.1-1.2 0.3-0.8 0-0.7-0.4-1.1 0.6-1.9 1.6 0.5 0.4 0.3 0.3 0.5 0.2 0.7 0.4 0.7 0.1 1.1 0.5 0.9 0.7 0.3 0.9-0.1 1.7-2.8 1.8-1.1 4.6 3 1 0.5 2.1 0.5 1.1 0.1 1.1-0.2 2-1.8 1.5-0.5 4.4-0.2 2-0.4 1.6-0.9 0.9-1.5 1.2-3.6 1-1.4 1.4-0.6 2.2 0.1 3.4-0.3 3.4-2 2.1-0.2 1.1-0.5 1-1.3 1.1-3.8 0.6-3.1 0.7-1.5 1.5-1.9 1.3-1.2 0.9-1.2 0.1-1.4-0.5-1.1-0.6-1.1-2.2-2.6-0.7-0.6-0.1-0.8 0.7-1 6.2-5.3 7.4-8.1 1-2.7 1.6-0.3 2.3 0.8 10.7 7.8 3.8-0.2 2.2-0.4 1-0.6 0.9-1.9 1.4-4 2.4-0.9 1.7-0.3 7.8 1.5 2 1 0.6 0.1 0.8 0 1-0.3 1.5-0.8 0.5-0.5 0.5-0.8 0.4 0 1.3 0.6 0.6 0.2 1.6 0.3 0.8 0.3 0.3-0.1 0.5-1.1 0.4-0.3 1.9-0.8 0.5-0.3 0.5-0.5 0.5-0.4 0.8 0 1.2 0.2 0.9 0 2.2-1.3 2.3 0.7 0.5 0.5 0.5-0.1 0.9-0.5 0.6-0.1 0.7 0.2 0.5 0.5 0.6 0.9 0.4 0.3 0.4-0.1 0.2-0.6-0.3-1.2 0-0.4 0.4-0.3 0.4-0.1 1.1 0.7 0.4 0.1 0.5-0.6 0.4-0.5 0.6-0.7 0.9-0.7 0.4-0.6 0.3-1 0.3-0.4 0.5-0.3 1.1-0.6 0.3 0.1 0.4 0.5 0 1.2 0.6 1z" id="IRQ3049" name="At-Ta'mim" data-id="IRQ3049" data-name="At-Ta'mim">
 </path>
 <path d="M636.9 110.8l-0.4 1.2-0.5 1.2-1.4 2.1-1.2 0.9-1.4 0.5-3.5-0.2-4.4-1.1-2.1 0-2.2 0.5-5.3 2.7-4.5 1.2-4.6 0.7-3-0.8-1.7-0.3-2.1 0.7-3.1 2.4-2 2.3-1.1 1.7-3.4 2.9 0 2.7 0.6 1.5 5.8 9 1-1.1 0.7-0.5 1.1 0 1 0.9 5.1 6.2 0.6 0.9 0.3 1.1-1 1.1-2.4 1.1-0.7 0.6-0.6 1-0.5 0.9-0.8 0.8-2.2 1.7 0.4 1.6 0.6 1.2 10.2 7.3 2.3 1 1.2 0.8 1 0.8 7.5 9.1 3.2 3 2.5 1.8 6.9 3.5 0.7 0.8 0.2 0.3-0.1 0.7-0.3 1-0.2 0.4-0.7 0.5-0.7 0.3-1.1 0.1-2.3-0.1-1-0.2-0.5-0.4-0.2-0.3-0.5-0.3-0.5-0.5-0.3-0.2-0.5-0.1-1.1 0.2-0.3-0.1-0.7-0.2-0.3-0.1-0.9 0.2-0.2 0.2-0.1 0.3 1.1 2.1 0.1 0.3-0.6 0.8-1.5 0.5-1 1-0.3 0.1-0.3-0.2-0.2-0.7-0.1-1.8-0.5-0.7-0.7-0.1-0.4 0.4-0.5 0.8-0.1 1.3-0.4 0.3-0.4-0.1-0.9-0.6-0.3-0.6-0.5-0.5-0.4-0.2-0.7 0-0.8 0.3-0.6 0.3-0.6 0.3-0.5-0.1-0.6-0.5-0.5-0.8-0.6-0.2-0.7 0-2.5 0.7-0.6 0.1-0.5-0.1-0.4-0.5 0-1-0.5-0.4-0.4-0.1-1.1 0.7-0.4 0.1-0.7-0.9-0.8-0.2-1.8 0.8-0.6-1 0-1.2-0.4-0.5-0.3-0.1-1.1 0.6-0.5 0.3-0.3 0.4-0.3 1-0.4 0.6-0.9 0.7-0.6 0.7-0.4 0.5-0.5 0.6-0.4-0.1-1.1-0.7-0.4 0.1-0.4 0.3 0 0.4 0.3 1.2-0.2 0.6-0.4 0.1-0.4-0.3-0.6-0.9-0.5-0.5-0.7-0.2-0.6 0.1-0.9 0.5-0.5 0.1-0.5-0.5-2.3-0.7-2.2 1.3-0.9 0-1.2-0.2-0.8 0-0.5 0.4-0.5 0.5-0.5 0.3-1.9 0.8-0.4 0.3-0.5 1.1-0.3 0.1-0.8-0.3-1.6-0.3-0.6-0.2-1.3-0.6-0.4 0-0.5 0.8-0.5 0.5-1.5 0.8-1 0.3-0.8 0-0.6-0.1-2-1-7.8-1.5-1.7 0.3-2.4 0.9-1.4 4-0.9 1.9-1 0.6-2.2 0.4-3.8 0.2-10.7-7.8-2.3-0.8-1.6 0.3-1 2.7-7.4 8.1-6.2 5.3-0.7 1 0.1 0.8 0.7 0.6 2.2 2.6 0.6 1.1 0.5 1.1-0.1 1.4-0.9 1.2-1.3 1.2-1.5 1.9-0.7 1.5-0.6 3.1-1.1 3.8-1 1.3-1.1 0.5-2.1 0.2-3.4 2-3.4 0.3-2.2-0.1-1.4 0.6-1 1.4-1.2 3.6-0.9 1.5-1.6 0.9-2 0.4-4.4 0.2-1.5 0.5-2 1.8-1.1 0.2-1.1-0.1-2.1-0.5-1-0.5-4.6-3 1.1-0.3 0.2-0.4 0.2-0.7 0.1-1.5 0.4-1.7 0.1-0.8 0.1-1.1-0.5-9.8-0.3-1.9-0.8-1.5-0.6-0.6-0.6-0.3-0.9-0.3-0.3-0.4-0.1-0.5 0.3-0.8 0.2-1-0.4-1.5-0.6-1.2-0.4-0.8-0.8-0.9-0.1-0.5 0.6-1.3 0.7-3.4-1.7-4-0.1-0.7-0.1-1.1 0.4-1.5 2.2-5.1 0.5-0.8 0.6-0.3 0.7 0 0.8-0.2 0.8-0.7 1.1-2.6 0.9-8.7 0-2.3-0.4-0.9-1.3-0.1-1.6-0.2-1.1-1.1-0.7-3.2 0.9-1.3 13.2-5.5 1.1-1.1 1.4-2.2 0.3-0.6 0.2-0.6-0.2-2.5 0-0.9 0.3-1 2.1-4.1 0.6-1.7 0.5-1.2 0.3-0.3 0.9-0.2 2-1.4 1.1-2.5 0.6-1.5 0.5-0.8 3.2-2.9 1-1.3 1.1-2.1 0.9-1.1 0.8-0.7 2.3-1 1.4-1.8 0.8-0.3 1.9-1.2 1.6-1.6 4.3-5.1 1.8-3 0.7-2.5-0.1-1.9-0.2-1.2-0.4-1.1 0.1-0.5 0.2-0.3 0.4-0.1 1.1 0.3 0.8 0 0.7-0.3 0.8-0.5 1-0.7 0.3-0.6 0.2-0.7-0.1-1-0.6-1.4 0-1.3 0.2-0.5 0.4-0.3 2.6 0.4 0.6-0.1 1-0.3 0.4-0.7 0.2-0.8-0.1-1.6 0.2-0.9 0.2-0.3 0.3-0.1 0.7 0.6 0.3 0.5 0.5 0.1 0.6-0.2 1.4-1.1 0.8-0.9 1-0.8 0.6-1.1 0.5-1.1 2.5-3 0.9-0.7 0.5-0.3 0.6 0.4 0.5-0.1 0.1-0.3-0.3-0.6-0.2-0.4 0.1-0.7 0.4-0.2 0.5 1.2 0.7 0.5 0.5 0.1 1-0.2 0.9-0.1 0.3 0.5-0.3 0.9-0.1 0.5 0.1 0.4 0.3 0.4 0.7 0.2 0.3-0.2 0.2-0.4 0.2-1.2 0.2-0.3 0.4-0.1 0.7 0 1.1-0.5 0.5-0.2 0.5 0.1 0.6 0.1 0.5 0.5 0.1 0.7 0.4 0.2 1.1-0.2 1.3-1.1 1.7-1.1 2.8-2.6 0.8-0.5 1.7-0.6 1.7-2.5 2.8-2.6 3.7-4.9 0.5-1.1 0-0.6-0.2-0.9-0.5-0.2-0.7 0.4-0.3-0.1-0.6-1.4-0.3-1-1.1-1.1-0.2-1.7-0.2-0.5-0.5-0.5-0.9-0.5-1.7-1.4-9.6-4.2-0.7-0.5-0.5-0.6-0.3-0.6-0.9-0.5-3-0.3-1-0.2-1.7 0.2-0.3-0.2-0.9-1.4-0.1-0.3 0.3-0.9-0.1-0.6-0.6-1-0.4-0.4-0.5-0.1-0.4 0.1-1.6 0.1-0.2-0.5 0.6-0.3 0.3-0.2 0.1-0.3-0.5-0.8-0.3-0.7-0.1-0.6-0.6-0.8-0.6-0.5-1.3-0.7-1.4-1.1-2.1-1.3-2.2-2.2-0.6-0.4-0.5-0.2-0.6 0.2-2.4-0.6-6.5-3.5 2.1-2.3 1.4-0.7 0.8-0.2 0.5-0.4 0.4-0.7 0.4-1.4 0.4-0.7 0.6-0.5 1.7-1.1 3.9-1.5 0.4-0.3 0-0.3-0.4-0.7 0.5-0.3 0.9-0.3 1.8-0.8 0.8-0.6 0.6-0.5 0.4-0.7 1.5-2.2 0.6-0.5 2.1-1.1 1.3-0.6 0.6-0.4 0.2-0.3-0.5-0.9 0.1-0.5 0.3-0.7 1.2-1.7 0.8-0.8 1.1-0.9 1.1-0.5 0.1-0.8-0.3-1.5-0.3-0.2-0.6-0.1-0.7-0.3-0.2-0.4-0.1-0.8-0.2-0.7 0.1-1 0.3-0.8 0.9-1.9-0.2-0.7-0.9-0.6-0.2-0.2-0.2-0.7-0.6-0.4-0.4-0.6 0.5-1.9 2 0.4 9.8 4.1 2.3 1.5 1.6 1.7 1.2 2.2 0.9 2.9 0.5 2.9 0.1 1.6-0.1 1.2-0.8 1.5-1 0.5-1.2 0.2-1.3 0.8-1.7 2.2-0.9 2.6-0.1 2.7 0.8 2.7 4.1 9.3 0.7 1.3 0.9 0.8 4.2 1.1 1.3-0.1 1-1 0.9-2.1 1.6-2.8 0.4-2 0.8-1.4 8.6-2.9 2.7-1.4 2.6-2 2.4-3.2 3.7-3.5 4-2.9 3.2-1.5 1.9-0.1 10.7 1.5 2.1 1.1 1.2 2.2-1.4 3.6 0 1.3 0.9 2.3 0.6 0.8 0.7 0.4 0.7 0.2 0.8 0.5 0.4 0.9 0.5 1.9 0.5 0.7 0.9 0.2 2-0.7 1 0 0.7 0.4 1.2 1.3 2.2 1.1 0.7 1.2-0.2 1.4-1.1 1.4-0.6 3.4 0.6 2.3 0.9 2 0.5 2.9-0.5 3.1-1.4 2.3-3.6 4.4-1.1 3.2 0.8 2.2 2 1.3 2.7 0.7 3.1-0.2 1.5 0.2 1.3 1.1 0.9 1.2 1.1 0.7 1.1 0.4 1.4 0 1.7 1 1.5 2 2.5 4.6 1.1 2.8-0.2 2.3-2 4.6-1.1 4.4-0.1 2.7-0.3 0.2-1.2 0.5-0.5 0.3-0.2 2 1.5 1.9 0.3 0.4z" id="IRQ3050" name="Arbil" data-id="IRQ3050" data-name="Arbil">
 </path>
 <path d="M516.4 47.6l6.5 3.5 2.4 0.6 0.6-0.2 0.5 0.2 0.6 0.4 2.2 2.2 2.1 1.3 1.4 1.1 1.3 0.7 0.6 0.5 0.6 0.8 0.1 0.6 0.3 0.7 0.5 0.8-0.1 0.3-0.3 0.2-0.6 0.3 0.2 0.5 1.6-0.1 0.4-0.1 0.5 0.1 0.4 0.4 0.6 1 0.1 0.6-0.3 0.9 0.1 0.3 0.9 1.4 0.3 0.2 1.7-0.2 1 0.2 3 0.3 0.9 0.5 0.3 0.6 0.5 0.6 0.7 0.5 9.6 4.2 1.7 1.4 0.9 0.5 0.5 0.5 0.2 0.5 0.2 1.7 1.1 1.1 0.3 1 0.6 1.4 0.3 0.1 0.7-0.4 0.5 0.2 0.2 0.9 0 0.6-0.5 1.1-3.7 4.9-2.8 2.6-1.7 2.5-1.7 0.6-0.8 0.5-2.8 2.6-1.7 1.1-1.3 1.1-1.1 0.2-0.4-0.2-0.1-0.7-0.5-0.5-0.6-0.1-0.5-0.1-0.5 0.2-1.1 0.5-0.7 0-0.4 0.1-0.2 0.3-0.2 1.2-0.2 0.4-0.3 0.2-0.7-0.2-0.3-0.4-0.1-0.4 0.1-0.5 0.3-0.9-0.3-0.5-0.9 0.1-1 0.2-0.5-0.1-0.7-0.5-0.5-1.2-0.4 0.2-0.1 0.7 0.2 0.4 0.3 0.6-0.1 0.3-0.5 0.1-0.6-0.4-0.5 0.3-0.9 0.7-2.5 3-0.5 1.1-0.6 1.1-1 0.8-0.8 0.9-1.4 1.1-0.6 0.2-0.5-0.1-0.3-0.5-0.7-0.6-0.3 0.1-0.2 0.3-0.2 0.9 0.1 1.6-0.2 0.8-0.4 0.7-1 0.3-0.6 0.1-2.6-0.4-0.4 0.3-0.2 0.5 0 1.3 0.6 1.4 0.1 1-0.2 0.7-0.3 0.6-1 0.7-0.8 0.5-0.7 0.3-0.8 0-1.1-0.3-0.4 0.1-0.2 0.3-0.1 0.5 0.4 1.1 0.2 1.2 0.1 1.9-0.7 2.5-1.8 3-4.3 5.1-1.6 1.6-1.9 1.2-0.8 0.3-1.4 1.8-2.3 1-0.8 0.7-0.9 1.1-1.1 2.1-1 1.3-3.2 2.9-0.5 0.8-0.6 1.5-1.1 2.5-2 1.4-0.9 0.2-0.3 0.3-0.5 1.2-0.6 1.7-2.1 4.1-0.3 1 0 0.9 0.2 2.5-0.2 0.6-0.3 0.6-1.4 2.2-1.1 1.1-13.2 5.5-0.9 1.3 0.7 3.2 1.1 1.1 1.6 0.2 1.3 0.1 0.4 0.9 0 2.3-0.9 8.7-1.1 2.6-0.8 0.7-0.8 0.2-0.7 0-0.6 0.3-0.5 0.8-2.2 5.1-0.4 1.5 0.1 1.1 0.1 0.7 1.7 4-1 0.9-0.6 2.7-1 0.6-1.4 0.1-1.5 0.5-0.7 0.9-1.6 2.8-1.4 1.1-2 0.6-2 1.4-6.6 2.8-12.4 8.5-1.7 0.1-0.8 0.3-1.1 0.6-2.3 2-1.3 0.8-2.9 1.4-0.8 0-0.4 0.2-1-0.1-0.3 0.2-0.7 0.8-0.3 0.8-0.3 0.2-0.3 0.4 0.9 1.5 1 2.4 0.2 0.8-0.1 0.8-0.6 1.1-0.6 1-0.3 1.7 0.1 0.8 0.2 1 0.5 0.8 0.1 1.6 0.2 0.8 2.8 3.7 0.8 0.7 1.6 1.3 0.4 0.6 0.5 0.9 0.2 1.9 1.2 3.2 0.5 0.4 0.4-0.1 0.2 0.3 0 0.6-0.4 1-0.2 0.8 0 0.8-0.3 2.1 0 0.9 0.2 0.5 0.6 0 0.5 0.2 0.4 0.9 0.8 1.4 0.1 0.8 0.1 0.2 0.6 0.2 0.3 0.8 0.5 0 0.1 0.5-0.3 0.3 0.3 0.4 1.3 0.1 0.5 0.1 0.3 1.2 0.4 1.4 0.1 0.5-0.2 0.6-0.4 1.3 0 0.3 0.4 0.6 0.2 0.6-0.2 0.8-1.1 0.7-3.8 0.5-36.3 0.3-11.7 2.6-2.6 12.1-22.2 3-3.1-1.3-3.6-1.7-1.8-0.4-14.4 1.9-6.6-0.4-13.5-5.3-27.9-11.6-6.9-1.1-17.2-5-13.1-1.2-2.2-0.1-0.1-2.9 1-7.6 4.3-15.5 0.9-12.2 0.9-3.8 8.3-12.4 1.6-3.8 0.6-4-0.5-17.3-0.5-4.1-1.1-4-7.8-17.3-2.7-6.1-0.4-2.2 0-2.1 3.3-31.8 0.8-3.4 9-17.6 2.1-2.9 3-1.4 6.6-1.1 31.7-6.7 2.8-1.4 2.7-2.3 13.7-14.7 20.4-21.9 10.5-11.3 6.6-6.3 3.1-2.4 0.7 2.7 1.4 3 1.8 2.8 3.9 3.8 1.8 1.4 1.8 0 2-2.3 0 1.9-0.5 2.6 0.1 2 1.7 0.4-0.8 2.8 0.3 1.2 0.8 1 1.1 2.1-2.6 0.2-0.5 1.3 1.1 1 2-0.8 3.2 1.7 1.7 1.3 1.4 3.9 1.7 0.8 4.3 0.1 0.5-0.3 0.4-0.5 0.6-0.6 0.9-0.3 1.2 0.3 0.9 0.7 3.1 3.5 1.8 1.6 1 0.5 0.8 0.1 0.8 0.2 0.9 1-2.3 0.8-1 0.8-0.2 1 0.7 1 1.1-0.1 3.6-1.8 0.8 0.1 1.5 0.8 0.7 0.6 0.5 0.9 0.9 1.9 0.9-1.5 0.9-0.7 1.2-0.3 1.5 0 1.2 0.3 8.4-4.7 13.3-1.8 4.1-0.4 3.4-1.7 1.6-1.1 0.4-2 1-2.3 0.8-2.9 3-5 3.2-3.8 0.7-1.3 1.5-1.1 1.6-0.5 3.9 0.4 1.5 0.9 1.6 1.3 1.4 1.4 3.1 2.2 1.8 1.7 3.2 1.6 14.8 4 1.5 0.3 0.7 0 0.2-0.6 0.1-0.6 0-0.8 0.2-0.6 0.4-0.5 0.7-0.4 0.9-0.1 1.8 0.6 0.3 0.2 0.4 0 0.3-0.4 0.5-1.4 0.1-1.5-0.1-0.8-0.2-2.1-0.2-0.8 0.1-0.3 0.5-0.2 0.5-0.3 0.5-0.5 0.8-1.8 0.2-0.6 0.1-0.6-0.3-1.3-0.2-0.6-0.3-0.4-0.6-0.2-0.6-0.1-1.8-0.6-0.8-0.5-0.8-0.1-1.4-0.1-0.6-0.1-0.6-0.3-1-0.8-0.3-0.4-0.1-0.7-0.3-0.6-0.1-0.8 0.1-0.5 0.2-1 0.4-1 0.2-1.9 0.5-1 0.8-0.9 0.7-0.4 0.9 0.2 1.8 1 1.1 0.3 7.2 1.3 2.8 1.1 3.2 0.8z" id="IRQ3051" name="Ninawa" data-id="IRQ3051" data-name="Ninawa">
 </path>
 <path d="M468.5 244.2l-1.8 1.1-1.7 2.8-0.9 0.1-0.7-0.3-0.5-0.9-0.1-1.1-0.4-0.7-0.2-0.7-0.3-0.5-0.4-0.3-1.6-0.5-0.6 1.9 0.4 1.1 0 0.7-0.3 0.8-0.1 1.2 0.2 1.2 0.4 0.7 0.5 0.3 0.7 1.3 2.6 2.8 1.2 1.1 2.8 1.1 1.5 1 0.6 1.6-0.1 0.4-0.6 0.2-0.4 0.3-0.3 0.8 0.2 0.5 0.4 0.4 0.1 0.5-0.4 1.8-0.3 0.8-0.7 0.8 5.3 0.9 2.1 1-0.4 2.4-0.9 0.6-1.2 0.4-1 0.6-0.4 1.4 0.4 1.1 0.9 1.5 1 1.4 0.8 0.7 6.7 7.2 1.4 2 2.6 1.3 1.9 1.3 1 1.5 2.3 1.6 7.9 3.6 27 16.3 7.2 2.7 8.6 3.9 6.2 3.8 8.5 8.6 7.8 6 1 0.3 1.6-0.1 2.3-2.7 0.4-0.7 0-0.3-1.1-0.1-0.4-0.2-0.2-0.5 0.2-0.8-0.4-0.8-0.1-0.6 0.3-1.3 0.1-0.7 0-1.2 0.1-0.5 0.3-0.5 1.3-1.1 0.6-0.7 0.3-0.7 0.4-1.3 1.6-2.3 1.1-0.6 0.4-0.5 0.2-0.7 0.6-1.1 0.1-0.4-0.1-0.4 0.1-0.6 0.4-0.9 0.3-0.6 0-0.7 0.2-1.6 1.6-2.4 2.2-2.2 2.2-3.3 0.8-0.8 1.3-0.8 1.5-0.7 2.8-2.1 1-1.6 0.1-1.8-2.1-4.9-0.1-1.8 0.6-2.2 0.8-1.3 1-1.2 0.7-0.5 0.6-0.3 1.3-0.1 10.3 10.9 1.7 0.8 2.3 0.6 1.7-0.6 11.2 0.4 3.8 0.7 8.8 6.2 1.2 1.5 0.3 0.5 0 0.5 0 0.6-0.4 1.7 0.3 8.8-4.8 4.5-3.4 1.7-2.6 1-1.2 1-0.7 1-0.1 0.8 0.2 1.8-0.4 1.4-1.4 2.3-1.9 2-1.5 1.2-1.2 0.6-2.9 0.8-2.1 1.2-1 0.9-0.5 0.8 0 0.7 0.2 0.8 0.5 0.8 0.5 0.7 0.3 1.5-0.2 1.8-1.6 3.4-1.2 1.8-1.5 1.4-1.7 1.1-1.7 1.5-1.1 1.4-0.7 1.2-0.5 1.5-0.3 0.1-0.6-0.4-3.7-3.4-1.1-0.7-0.9-0.4-1.6-0.4-2-0.8-0.9-0.5-0.4 0.2-1.2 1.5-0.3 1.2-0.1 1.2 1.6 4-0.1 0.7-0.2 0.9-1.3 1.1-0.1 0.3 0.8 0.3 0.4 0.4 0.4 1-0.1 0.5-0.3 0.3-1 0.3-0.9 0.1-0.4 0.4-0.5 0.8 0 0.7 0.7-0.4 0.4 0.2-0.1 0.3-0.7 0.9 0 0.3 0.2 0.3 0.8 0 0.5-0.4 0.4 0 0.3 0.2-0.6 1.9-0.3 0.4-0.7 0.7 0.4 1.1 0.3 1.2 0 1-0.7 2.3-1 2.2-0.8 1.3 0 0.5 0.3 0.7 0.6 0.8 0.9 1.1 0.8 0.7 0.7 0.4 1.2 1.4-1.4 1 0.3 2.4-0.1 0.5-0.4 0.3-0.5 0.2-0.8 0.5-0.1 0.7 0 2.2-0.2 0.5-0.3 0.2-0.3-0.3-0.6-0.6-0.3-0.1-1.2 0.8-1.5 0.1-0.9 0.3-0.4 0.3-2.1 3.1-0.5 0.9-0.2 1-0.2 0.4-0.4 0.2-0.3 0-0.2-0.3 0.3-0.6-0.3-0.7-0.6 0.1-0.7 1.2-0.3 0.8-0.4 0.3-0.5 0.2-1.2-0.1-1 0.3-0.3 0.2 0 0.3 0.4 0.8 0.1 2.9-0.3 0.5-1.2 0-0.9 0.3-0.4 0.3-0.2 0.4 0.2 0.5 0.7 1.3 0.1 0.5 0 0.5-0.2 0.8-0.4 0.4-2.2 1.5-0.2 0.4 0.6 0.8 0.1 0.6-0.7 2.1-0.3 1.5-1.1 1.6-0.1 0.6 0 1.1 0.3 0.3 0.5 0.1 0.7-0.1 0.9-0.2 2.8-0.4 2.7 0.4 1.5 0.7 4.7 4.3 1.3 1.5 0.7 1.9 0.4 2.4-0.1 2.3-0.6 2.1-3.5 5.5-1.9 5.3-0.2 1.1 0 1.1 0.2 1.1 0.6 1.1 0.6 0.9 2.1 2 0.2 0.5 0 0.5-1.4 2.3-0.4 0.9-1.5 6.7 1.1 2.8-0.3 3-0.8 3.2-4 3.6-1.8 1.3-2.4 2.2-1.5 1.8-5.5 7.9-7.5-0.4-3.4-2.4-3.8-1.2 3.4-2.6-1-1.2-2.3-3.8-3.2-8.1-1.8-3.5-1.6-1.7-3.6-3.3-3.1-0.9-17.1 0.4-9.2-3-12.5-5.1-11-1.8-5.4-2.1-14-12.2-16.4-16.5-7-9.4-5.3-13.1-1-6.5-1.6-6.6-2.6-3.8-0.8-3.7-0.5-7.7-1.9-10.6-12.2 7-3.2-0.4-4.5-2.5-19.8-16.4-4-17.9-0.2-27.2-0.7-1.8 2.6-12.1 11.7-2.6 36.3-0.3 3.8-0.5 1.1-0.7 0.2-0.8-0.2-0.6-0.4-0.6 0-0.3 0.4-1.3 0.2-0.6-0.1-0.5-0.4-1.4-0.3-1.2-0.5-0.1-1.3-0.1-0.3-0.4 0.3-0.3-0.1-0.5-0.5 0-0.3-0.8-0.6-0.2-0.1-0.2-0.1-0.8-0.8-1.4-0.4-0.9-0.5-0.2-0.6 0-0.2-0.5 0-0.9 0.3-2.1 0-0.8 0.2-0.8 0.4-1 0-0.6-0.2-0.3-0.4 0.1-0.5-0.4-1.2-3.2-0.2-1.9-0.5-0.9-0.4-0.6-1.6-1.3-0.8-0.7-2.8-3.7-0.2-0.8-0.1-1.6-0.5-0.8-0.2-1-0.1-0.8 0.3-1.7 0.6-1 0.6-1.1 0.1-0.8-0.2-0.8-1-2.4-0.9-1.5 0.3-0.4 0.3-0.2 0.3-0.8 0.7-0.8 0.3-0.2 1 0.1 0.4-0.2 0.8 0 2.9-1.4 1.3-0.8 2.3-2 1.1-0.6 0.8-0.3 1.7-0.1 12.4-8.5 6.6-2.8 2-1.4 2-0.6 1.4-1.1 1.6-2.8 0.7-0.9 1.5-0.5 1.4-0.1 1-0.6 0.6-2.7 1-0.9-0.7 3.4-0.6 1.3 0.1 0.5 0.8 0.9 0.4 0.8 0.6 1.2 0.4 1.5-0.2 1-0.3 0.8 0.1 0.5 0.3 0.4 0.9 0.3 0.6 0.3 0.6 0.6 0.8 1.5 0.3 1.9 0.5 9.8-0.1 1.1-0.1 0.8-0.4 1.7-0.1 1.5-0.2 0.7-0.2 0.4-1.1 0.3z" id="IRQ3052" name="Sala ad-Din" data-id="IRQ3052" data-name="Sala ad-Din">
 </path>
 <path d="M598.2 649.6l-1.5 4.9-0.7 1-1.2 0.1-1 0.7-0.3 0.6 0 0.8 0.4 0.8 0.5 0.7 0.6 0.6 0.9 0.7 0.6 0.8 0 0.6-0.5 0.3-3 1.1-3.7 2.5-2 0.8-0.8 1.3-0.9 2.9-0.7 3.7 3.4 17.1-0.4 3.9 0 7.6 1.3 8.9-2 2.9-1.7-1.1-2.8-1-2.2 0.5-2.2 2.6-0.5 2.8 2.2 4 6.6 7.9 1.9 1.2 19.6 8.2-7.7 42-2.5 5.8-4.8 8.6-4.8 4.3-3.9 4.7-5 7.8-0.7 0.5-6.1 2.6-5.1 3.7-1.6 1.6-4.2 5.5-3.6 7.2-18.4 53.1-22.4 39.3-1.3 2.3-16.6-13.6-11.7-9.5-11.7-9.5-20.7-16.9-17.9-14.7-19.8-16.2-7.7-6.7 0.8-1.2 2.6-6.3 6.6-12.4 3.1-7.3 1.3-4.2 1.2-10.5 0.4-1.2 0.7-1.8 3.5-6 5.8-8.1 0.7-1.7 0.7-2.5 0.7-5.8 0.3-1.5 4-10.6 0.5-2.6-0.1-1.8-0.4-0.8-0.2-1 0-1.6 0.3-2.1 1-2.9 10.8-23.3 1.5-4.4 0.6-3.3 0.1-3.9 1.4-2.6 15.9-23.6 3-3.2 1.8-1.5 1.7-0.8 2.1-0.2 0.8-0.2 3.1-2 1.2-0.5 6.5-1 1.6-0.6 1.4-0.9 2.6-2.1 9.5-5.2 1.7-1.7 1.8-2.2 0.5-3.6 0.1-2.4-10.7-10.2 47.6-13.7 9.5-3 2.6-0.3 1.3 1.1 0.8 0.5 0.5-0.7 0.5-1.3 0.1-0.8 1.3-3 1.4 5.8 0.7 1.2 0.6 0.6-0.4 2.1-2.4 1.4-0.8 1.2 0.2 1.3 0.8 2.2 1.9 3.1 0.7 0.8 0.7 1.2 0.5 1 1.6 2.1 3.6-3.5 2.1-1.4 0.5 0 0.8-0.2 0.8 0.1 5-3.6 2.8 1.5 2.3 1.9 3 1.8 5.2 1.6z" id="IRQ3061" name="An-Najaf" data-id="IRQ3061" data-name="An-Najaf">
 </path>
 <path d="M547.2 574.4l2.8 0.4 3.6 1 0.5 0.1 0.5-0.1 1.1-0.6 0.5-0.2 0.5-0.1 0.6 0.3 0.7 0.5 2.5 2.6 0.4 0.9 0.1 2.1-0.9 1-3.6 13.2 0.2 4.5 1.7 4.1 5.7 8.5 0.7 2.4-0.9 2.4-0.5 2 0.7 2.5 2.1 4.2 0.4 1.3-1.3 3-0.1 0.8-0.5 1.3-0.5 0.7-0.8-0.5-1.3-1.1-2.6 0.3-9.5 3-47.6 13.7-4.9-4.3-16.8-12.6-24.1-24.4-2.4-3.7-0.7-3.7 5.4-2.9 4.8-1.8 14.7-2.1 1.1-0.3 2.7-1.8 19.1-16.9 8.1-4 8.6-1.1 11.7 0 17.5 5.4z" id="IRQ3062" name="Karbala'" data-id="IRQ3062" data-name="Karbala'">
 </path>
 <path d="M585.5 526.4l-17-0.9-2.6-0.7-1.3-0.2-1.3 0.2-1.2-1.3-2.7-1.8-1.2-1.1-1-2.1-0.5-2.5-0.1-2.6 0.5-2.3 1.2-2.4 3.2-3.5 1-2.4 0-0.6-0.2-0.6 5.3-1.4 1.4-4.3 0.7-0.9 0.5 0.1 7.3 0.4 1.1 0.2 2 1.1 3.8 3.3 3.2-2.4 0.8 0.9 0.1 1.4 0.3 1.1 0.5 1.7 0.1 0.3-0.1 0.5-0.1 1.5-0.6 1.2 0.2 3.6 0.1 3.7-0.2 0.9-0.4 0.8-0.4 0.3-0.4 0 0-0.4 0.2-0.3 0-1.2-0.7 2 0.2 1 0.4 0.9 0.1 0.5-0.1 0.5-1 1.1-1 1.4-0.1 5.3z" id="IRQ3063" name="Baghdad" data-id="IRQ3063" data-name="Baghdad">
 </path>
 <path d="M909 760.4l-0.4 28.8 33.5 0 1.1 0.7 0.3 1.5-0.3 57.2 0.1 3.7 10.8 1.5 1.2 0.4 1 0.7 1.7 1.8 1.3 2.3 1 2.6 0.8 5.2 0.4 1.2 0.9 0.8 1.1 0.5 1.2 0.2 1.2 0 3.8-0.7 1.3 0.1 1.2 0.4 0.9 0.8 2.1 3.5 3.3 3.8 4 3.6 0.6 1 0.5 1.2 0.2 1.3-0.2 1.2-0.8 1.1-0.9 0.8-0.8 1-0.3 1.3 0.2 0.8 1.3 2.8 2 2.3 0.6 1.2 0.3 0.2 1.9 5.9 0.2 1.5 0.9 2.3 0.5 0.8 0.6 0.7 1.4 1.1 1.5 0.9 3.2 0.9 0.7 0.3 0 0.6 2.5 0 0.4 1.2-1.3 1.4-2.7 0.7-11-1.2-7.8-2.7-3.7-2.7-3.5-1.1-5.7-3.6-4.4-1.6-4.8-0.8-4.4-0.1-3.8 1-7.1 3.9-0.7-3.1-0.4-3.6-0.7-3.2-1.7-2.3 1.3 3.9 0.1 1.4-0.2 1.6-0.5 1.4-0.1 1.2 0.8 1.1 0 2.8-22.1-11.2-5.9-1.1-26.3 0-5.9 0.7-16.4 6.8-5.4 3.7-3.5 5-8.6 22.2-3.8 7-0.5 1.7-0.4 3.5-0.2 1.2-2 4.4-7.7 12.7-3 8-1.5 2.3-6.5 7.2-6.4 10.8-15.4 17.2 0.6-3 2.2-23.6 0.8-3 1.2-2.7 3.8-6.6 0.4-3 0.1-15 1.3-11.9 8.3-44.6 0-3.3-0.3-3.1-0.6-2.3-0.9-2.2-10-14.7-1.3-3-0.9-3.3-1.6-11-1.7-7.3 33.3-9.1 1.8 0 14.2 2.6 3.1-0.6 0.6-3.3-0.6-8.6 0.2-2.7 0.6-3.4 2.6-13.4 1.3-24.8-0.9-9.9 1.2-7.3 1.9-3 2-1.7 3.6-1.7 14.1-3.7 4.6-0.4 14.6 1.5 14.2 3.6z" id="IRQ3222" name="Al-Basrah" data-id="IRQ3222" data-name="Al-Basrah">
 </path>
 <path d="M716.1 710.7l3.2 3.8 0.6 1.7-0.1 0.6-0.1 1.7 0.2 1.6-0.1 0.8-0.2 0.6-0.4 0.2-0.5-0.1-1-0.8-0.6-0.4-0.5-0.2-0.6 0.5-0.5 0.9-0.6 2.6 0 1.1 0.3 0.7 1.2 0.3 0.5 0.8 0.6 1.4 0.7 3.6 0.1 1.6-0.3 1.4-7.1 8.8-1.1 2.2 0.3 1.7 2.8 0.5 5.6 0.3-5.8 13.9-1.2 3.8 0.3 1.3 1.9 0.8 0.4 0.4 1.2 1 1.5 0.7 0.3 1.2-0.1 2.1-0.6 3.6-0.7 1.3-1.3 0.1-2-0.7-1.6 0.2-0.8 1.6-0.5 3.1-0.5 2.2-0.4 3.5-0.6 2.6 1.4 16.6 50.1 6.6 16.3 5.8 9.4 15.5 4.2 8.7 1.1 1.5 1.3 1.1 1.4 0 3.4-0.8 1.7 7.3 1.6 11 0.9 3.3 1.3 3 10 14.7 0.9 2.2 0.6 2.3 0.3 3.1 0 3.3-8.3 44.6-1.3 11.9-0.1 15-0.4 3-3.8 6.6-1.2 2.7-0.8 3-2.2 23.6-0.6 3-2.9 3.3-17.9 3.8-18.5-1.7-7.8-0.7-36.4-3.3-10.5-0.9-20.9-1.9-10.4-1-10.5-0.9-10.4-1-8.2-0.7-8.1-0.8-8.1-0.7-8.1-0.7-9.3-0.9-2.7-1-7.8-6.4-9.7-7.8-9.7-7.9-19.5-15.8-11.7-9.4-23.3-19-6.8-5.5 1.3-2.3 22.4-39.3 18.4-53.1 3.6-7.2 4.2-5.5 1.6-1.6 5.1-3.7 6.1-2.6 0.7-0.5 5-7.8 3.9-4.7 4.8-4.3 4.8-8.6 2.5-5.8 7.7-42 17.4 12.8 8.3 4.5 2.1-12.5 6.4-17.5 3.2-6.3 1.5-4.3 0.2-1.8-2.2-1-0.7-1.2-0.5-1.4-0.6-1.1-0.7-0.4-1.9-0.7-0.9-0.5-1.2-1.2 2.4-0.3 16.5-3.9 1-1.8 7.4 0.2 24.8 4.9 18.1 5.9 4.4 0 2.2-0.8 0.8-0.9z" id="IRQ3223" name="Al-Muthannia" data-id="IRQ3223" data-name="Al-Muthannia">
 </path>
 <path d="M656.2 621.3l5.9 0.8 0.7 1.9 2.5 1.1 7.2 0.9 1.2 1.8 2.2 0.7 0.4 0.9-0.2 1.2-1.3 3.2-0.3 1.8 0.6 1.8 1.5 1.7 10.2 9.7 1.8 2.5 1.3 2.2 1 1.5 1.6 1.1 6.4 2.4 7 2.1 0.4 1.4-0.8 0.7-0.4 0.5 0.1 0.8 4.8 11.1-0.7 3-0.2 1.7 0.1 2.5 4.1 12.5 2.8 15.9-0.8 0.9-2.2 0.8-4.4 0-18.1-5.9-24.8-4.9-7.4-0.2-1 1.8-16.5 3.9-2.4 0.3 1.2 1.2 0.9 0.5 1.9 0.7 0.7 0.4 0.6 1.1 0.5 1.4 0.7 1.2 2.2 1-0.2 1.8-1.5 4.3-3.2 6.3-6.4 17.5-2.1 12.5-8.3-4.5-17.4-12.8-19.6-8.2-1.9-1.2-6.6-7.9-2.2-4 0.5-2.8 2.2-2.6 2.2-0.5 2.8 1 1.7 1.1 2-2.9-1.3-8.9 0-7.6 0.4-3.9-3.4-17.1 0.7-3.7 0.9-2.9 0.8-1.3 2-0.8 3.7-2.5 3-1.1 0.5-0.3 0-0.6-0.6-0.8-0.9-0.7-0.6-0.6-0.5-0.7-0.4-0.8 0-0.8 0.3-0.6 1-0.7 1.2-0.1 0.7-1 1.5-4.9 3.1 1 5.6 3.5 1.4 0.5 1.2-0.1 0.9-0.3 0.9-0.4 0.7-0.7 1.9-2.4 0.6-0.5 1.6-0.9 0.5-0.5 0.5-0.6 0-0.9-0.1-1.1-0.8-0.8-0.5-0.5-0.1-0.5 0.3-0.9 0.6-1 0.9-1.1 0.8-0.4 0.6 0.1 0.6 0.5 1.2 1.2 0.6 0.3 0.7-0.4 3-2.8 4.4-3.5 6.6-2.7 8.8-5.8 0.7-0.7 1.2-1.5 1.2-0.9 4.6-2.8 1.4-0.6 0.9-0.2 1.5 0.1z" id="IRQ3224" name="Al-Qadisiyah" data-id="IRQ3224" data-name="Al-Qadisiyah">
 </path>
 <path d="M852.8 773.1l0.9 9.9-1.3 24.8-2.6 13.4-0.6 3.4-0.2 2.7 0.6 8.6-0.6 3.3-3.1 0.6-14.2-2.6-1.8 0-33.3 9.1-3.4 0.8-1.4 0-1.3-1.1-1.1-1.5-4.2-8.7-9.4-15.5-16.3-5.8-50.1-6.6-1.4-16.6 0.6-2.6 0.4-3.5 0.5-2.2 0.5-3.1 0.8-1.6 1.6-0.2 2 0.7 1.3-0.1 0.7-1.3 0.6-3.6 0.1-2.1-0.3-1.2-1.5-0.7-1.2-1-0.4-0.4-1.9-0.8-0.3-1.3 1.2-3.8 5.8-13.9-5.6-0.3-2.8-0.5-0.3-1.7 1.1-2.2 7.1-8.8 0.3-1.4-0.1-1.6-0.7-3.6-0.6-1.4-0.5-0.8-1.2-0.3-0.3-0.7 0-1.1 0.6-2.6 0.5-0.9 0.6-0.5 0.5 0.2 0.6 0.4 1 0.8 0.5 0.1 0.4-0.2 0.2-0.6 0.1-0.8-0.2-1.6 0.1-1.7 0.1-0.6-0.6-1.7-3.2-3.8-2.8-15.9-4.1-12.5-0.1-2.5 0.2-1.7 0.7-3 10.2 0.7 6.3-2.6 0.5 0 0.5 0.4 0.4-0.1 0.4-0.2 0.4-0.5 0.3-0.1 1.1 0.8 0.4-0.1 3.6-2.7 0.8-0.3 0.9 0.1 1 0.3 1.5 0.3 0.8 0 0.4-0.2 0.4-1 0.5-0.4 3.4-1.2 26.5-0.1 2.3 2.3 1.3 1.6 0.1 1.1-1.6 0.4-1.7 1-1 2 2.6 5.7 7.9 13.2-0.1 2.8-0.4 1.6 2.4 6.1 4 4.5 3.2 1.8 0.6 0.7 3.1 5.1 1.7 1.7 3.3 2.8 1.1 1.3 0.7 1.9 0.3 1.9-0.4 2.4-0.5 1.4-1.1 2.2-0.1 1.6 0 1.1 1.7 4.9 9.1 5.7 1.2 1 1.2 1.1 1.3 1.8 0.6 1.2 0.3 1.1 0.1 1 0 1.4-0.5 4.2 0 1.3 0.1 1.1 0.2 1 0.4 0.8 0.7 1 4.4 3.5 1.4 1.4 4 2.1 10.8-0.1 17.8 1.2z" id="IRQ3225" name="Dhi-Qar" data-id="IRQ3225" data-name="Dhi-Qar">
 </path>
 <path d="M909 760.4l-14.2-3.6-14.6-1.5-4.6 0.4-14.1 3.7-3.6 1.7-2 1.7-1.9 3-1.2 7.3-17.8-1.2-10.8 0.1-4-2.1-1.4-1.4-4.4-3.5-0.7-1-0.4-0.8-0.2-1-0.1-1.1 0-1.3 0.5-4.2 0-1.4-0.1-1-0.3-1.1-0.6-1.2-1.3-1.8-1.2-1.1-1.2-1-9.1-5.7-1.7-4.9 0-1.1 0.1-1.6 1.1-2.2 0.5-1.4 0.4-2.4-0.3-1.9-0.7-1.9-1.1-1.3-3.3-2.8-1.7-1.7-3.1-5.1-0.6-0.7-3.2-1.8-4-4.5-2.4-6.1 0.4-1.6 0.1-2.8-7.9-13.2-2.6-5.7 1-2 1.7-1 1.6-0.4-0.1-1.1-1.3-1.6-2.3-2.3 12.8-0.5 4 0.5 3.7 1.9 3.9 1 2.1-0.3 2.7-18-1.2-2.3-2-3-12.4-5.4-1.9-1.5-0.3-1.8 0.6-2.2 4.2-12.4 0.2-1-0.4-1-0.5-0.7-1.6-1.4-0.9-0.9 0.1-1.1 0.6-1.4 1.4-2.2 0.3-0.7 0.4-1.8 0.3-1.2 0.1-1.3-0.1-7.4 0.6-5.8 6.7-20.2 0.7-1.1 2.3-1.6 0.9-1.2 1.6-2.8 0.4 0.2 4.7 3.8 6.7 4.1 4.2 4.8 30.7 26.9 3.3 2.4 3.1 1.6 3.2 0.7 3.6-0.4 1.8-0.6 4.7-2.6 1.4 0.1 5.8 2 2.2 1.1 1.3 1.5 1.1 1.9 1.7 2.2 2.8 2.1 0.5 0.9 0.2 1.4-0.4 0.7-0.5 0.7-0.9 2.3-0.5 0.4 0 0.6 0.7 1.6 0.5 0.7 3 3 0.5 0.6 0.4 0.7 1.8 2.5 0.6 0.7 1 0.5 0.6 1.5 2 1.5 0.5 1.6-0.2 1.7-0.5 1.1-0.6 1.1-0.4 1.3-0.2 1.7 0.1 1 0.7 0.5 1.6 0.5 1.3 0.8 0.8 1.2 0.9 1.1 1.6 0.2 1.9 0.8 1.8 2.5 2.3 5.2 1.5 1.8 3.6 1.8 1 2.1 0.5 2.1 3.6 6.6 0.7 1 1.9 1.2 0.8 0.7 0.5 1.1 0.6 2.1 0.3 0.9 1.7 1.8 4 3.1 1.4 2.1 0.3 2.6-0.6 2.7-15.6 42.4-0.2 20.5z" id="IRQ3226" name="Maysan" data-id="IRQ3226" data-name="Maysan">
 </path>
 <path d="M799.2 569.4l-1.6 2.8-0.9 1.2-2.3 1.6-0.7 1.1-6.7 20.2-0.6 5.8 0.1 7.4-0.1 1.3-0.3 1.2-0.4 1.8-0.3 0.7-1.4 2.2-0.6 1.4-0.1 1.1 0.9 0.9 1.6 1.4 0.5 0.7 0.4 1-0.2 1-4.2 12.4-0.6 2.2 0.3 1.8 1.9 1.5 12.4 5.4 2 3 1.2 2.3-2.7 18-2.1 0.3-3.9-1-3.7-1.9-4-0.5-12.8 0.5-26.5 0.1-3.4 1.2-0.5 0.4-0.4 1-0.4 0.2-0.8 0-1.5-0.3-1-0.3-0.9-0.1-0.8 0.3-3.6 2.7-0.4 0.1-1.1-0.8-0.3 0.1-0.4 0.5-0.4 0.2-0.4 0.1-0.5-0.4-0.5 0-6.3 2.6-10.2-0.7-4.8-11.1-0.1-0.8 0.4-0.5 0.8-0.7-0.4-1.4-7-2.1-6.4-2.4-1.6-1.1-1-1.5-1.3-2.2-1.8-2.5-10.2-9.7-1.5-1.7-0.6-1.8 0.3-1.8 1.3-3.2 0.2-1.2-0.4-0.9-2.2-0.7-1.2-1.8-7.2-0.9-2.5-1.1-0.7-1.9-5.9-0.8-0.2-2.5-0.2-3.8-1.4-0.1-6.1-0.2-1.7-0.5-1.6-1.2-2-1.9-1.7-2.3-4-9-4.4-14.5-0.6-1.4-1.4-1.5-1.5-1.2-2.6-1.4-3.3-1.4-0.5-1-0.9-0.3-3.7-0.3-5.2-1.7-6.5-3.7-0.7-0.2-14.4-1-0.6-0.2-1.2-1.1-0.7-1.9-0.6-3-0.4-12.3-0.7-3.6 1.7-1 2.2 0.7 0.8-0.5 0.3-0.7 0.5-1.2 1.1-1.7 1-3.2 0.7-1.7 0.7-0.4 0.6 1.2 0.9 2.4 0.6 1.1 0.6 0.8 0.8 0.8 0.9 0.6 1.1 0.6 1.1 0.3 1.2 0.1 1.1-0.4 1.1-1 0.5-0.2-0.6-1.8-0.3-0.6-0.6-1.3 1-1.5 1.8-1.8 4.4-3.4 2.3-3.4 2.2-2.7 2-1.6 3.1 0.1 11.7 2.9 3.6 0.3 9.9-1.1 32 9.2 5.9 1.8 0.8-0.4 1.2-0.6 1.3-1.7 1.6-1.7 3.9-3.4 0.7-0.7 2.4-3.6 2.7-3.2 1.3-2 1-2.6 0.4-1.7 0.6-1.3 1-1.5 3.6-4.3 1.1-1.7 0.6-0.6 0.5-0.3 1.2 0.4 0.4 0 1.6-0.7 1.2-0.8 0.8-0.8 1.1-1.3 4.8-3.5 1.4-0.6 0.6-0.1 0.8-0.2 1.3-0.5 2.4-1.4 1.1-0.9 0.7-0.9 1.2-4.4 0.4-0.8 1.6-2.8 1.7-1.9 1.1 0.6 3.4 4.3 1.1 2.1 0.9 2.3 0.3 2.5 0 2.1 0.6 1.7 3.4 3.3 4 5.8 3.3 2.6 1.4 1.5 0.9 2.1 0 1.2-0.6 2.4-0.1 1 0.5 1.1 1.2 0.7 0 1.1-0.7 1.6-1.4 1.7-2.7 2.8-2.2 1.6-1.6 0.3-1.7-0.1-2.3 0.2-2 1.1-0.1 1.5 1.4 1.3 4.5 0.5 1.9 0.8 1.4 1.3 0.6 1.7-0.6 2-1.6 1.6-1.7 1.4-1.2 1.5 2.2 4.9 5.9 0.7 12.1-1.4 10.8 3.4 10.2 4.9 2.8 2.9 9.5 5.5z" id="IRQ3227" name="Wasit" data-id="IRQ3227" data-name="Wasit">
 </path>
 <path d="M717.2 313.6l-0.7-1.4-0.9-11.4 0.1-0.9 0.5-0.1 0.8-0.1 0.4 0 0.9 0.3 0.5 0 0.8-0.3 0.3-0.2-1.1-1.8-6.9-7.4-0.6-0.9-0.5-0.5-0.8-0.7-0.6-0.4-0.7 0-0.6 0.4-0.9 1-0.1 0.6-0.1 0.9-1 1.4-1.1 1.3-0.5 0.8-0.4 1-0.3 0.5-0.8 0.4-0.6 0.4-0.4 0.1 0-0.6-0.3-0.5-0.3 0.1-0.4 0.4-0.7 1.1-0.2 0.7 0 1 0.6 0.3 0.5-0.2 0.2 0.2-0.1 0.4-0.5 1-0.8 0.5-0.4 0.5-0.4 1.8-1 0.9 0.2 0.7 1.3 0.2 0.7 0.2 0.2 0.3 0 0.9-0.3 0.8-0.5 1.1-2.4 3.8-0.8 1.2-2.6 2.4-1-0.1-0.3 0.3-0.1 0.7-0.2 0.6-0.4 0.7-1 1.1-0.8 1.9-0.3 1.5-0.9 2.3-0.3 0.9-0.6 0.3-0.5 0.4-0.5 0.6-1.3 3.5-1.2 2-0.5 1.6-0.2 0.9 0 0.9 0.2 0.7-0.3 1.2-0.3 0.6-1.1 2.1-0.4 1.1-0.1 0.7-0.5 0.6-0.7 0.6-1.9 1.1-1.1 0.4-0.9 0.3-0.6 0-1 0.2-1.1 0-1.4 1.2-11.1 13.4-3.4 2-0.2-2-0.2-0.6-0.3-0.3-1.1-0.2-0.8-0.2-0.3-0.3-0.2-0.5 0-0.5 0.7-1.4 0.3-0.8 0.1-0.7 0.1-0.7-0.1-0.6-0.6-1.9-0.2-0.7 0-0.8 0.1-0.5 0.3-0.6 1.4-1.6 0.5-0.6 0.2-0.5 0-0.5-1.2-3.2-0.6-2.8-0.1-1.5 0.1-1.3-0.5-2.8-0.2-4.4-0.4-1.2-0.8-1.3-0.8-1-1.4-1.2-1-0.5-1.3-0.4-2.2-0.3-1.1 0.2-0.9 0.2-2.4 1.4-0.6 0.2-0.7-0.2-0.7-0.5-1-1.3-2.1-2.1-5.4-3.6-0.3-8.8 0.4-1.7 0-0.6 0-0.5-0.3-0.5-1.2-1.5-8.8-6.2-3.8-0.7-11.2-0.4-1.7 0.6-2.3-0.6-1.7-0.8-10.3-10.9 4.5-3.8 8-2.5 1.1-1.1 0.2-1-0.7-1.8-0.1-0.9 0-1 0.4-1.2 1.1-1.6 1.2-0.8 1-0.5 0.7-0.3 0.4-0.5 0.3-0.8 0.2-1.7 1.2-2.6 0.4-2-0.4-1.8-0.6-2.1-0.3-1.9 0.7-2.5 3.7-5 1.1-2.1 0.5-1.8-0.1-1.4-2-2.7-2.1-2.5-0.7-1.2-0.3-1.3 0.4-3.6 0.3-4.5 0.4-1.4 0.2-3.2 0.5-1.4 1.7-3.1-0.1-2.1-0.9-2.5-4.7-4.2-2.3-3.2-2.6-2.8-5.6-12.5 1.8-0.8 0.8 0.2 0.7 0.9 0.4-0.1 1.1-0.7 0.4 0.1 0.5 0.4 0 1 0.4 0.5 0.5 0.1 0.6-0.1 2.5-0.7 0.7 0 0.6 0.2 0.5 0.8 0.6 0.5 0.5 0.1 0.6-0.3 0.6-0.3 0.8-0.3 0.7 0 0.4 0.2 0.5 0.5 0.3 0.6 0.9 0.6 0.4 0.1 0.4-0.3 0.1-1.3 0.5-0.8 0.4-0.4 0.7 0.1 0.5 0.7 0.1 1.8 0.2 0.7 0.3 0.2 0.3-0.1 1-1 1.5-0.5 0.6-0.8-0.1-0.3-1.1-2.1 0.1-0.3 0.2-0.2 0.9-0.2 0.3 0.1 0.7 0.2 0.3 0.1 1.1-0.2 0.5 0.1 0.3 0.2 0.5 0.5 0.5 0.3 0.2 0.3 0.5 0.4 1 0.2 2.3 0.1 1.1-0.1 0.7-0.3 0.7-0.5 0.2-0.4 0.3-1 0.1-0.7-0.2-0.3-0.7-0.8-6.9-3.5-2.5-1.8-3.2-3-7.5-9.1-1-0.8-1.2-0.8-2.3-1-10.2-7.3-0.6-1.2-0.4-1.6 2.2-1.7 0.8-0.8 0.5-0.9 0.6-1 0.7-0.6 2.4-1.1 1-1.1-0.3-1.1-0.6-0.9-5.1-6.2-1-0.9-1.1 0-0.7 0.5-1 1.1-5.8-9-0.6-1.5 0-2.7 3.4-2.9 1.1-1.7 2-2.3 3.1-2.4 2.1-0.7 1.7 0.3 3 0.8 4.6-0.7 4.5-1.2 5.3-2.7 2.2-0.5 2.1 0 4.4 1.1 3.5 0.2 1.4-0.5 1.2-0.9 1.4-2.1 0.5-1.2 0.4-1.2 1.7 1.4 1.3 1.4 0.1 1.8 0.6 1 0.9 0.9 0.8 1.2 0.5 1.6 0.2 1.3 0.3 1.1 1.2 1.4 2.8 1.3 2.9-0.2 5.8-2.3 2.5 0.2 1.8 2.2 1.1 3.2 0.5 2.9 0.3 5.5 0.7 2.2 1.9 2.5-2.5 1.6 0.6 1.5 1.9 1.5 1.5 1.5 0.5 2.4-0.3 5.8 0.5 2.7 3.2 4.1 1.3 2.6-0.4 2.5-1.3 2-1.2 2.6-0.6 2.6 0.6 2 1.9 1.9 2.1 0.3 2.3-0.7 2.1-1.5 1.8-0.5 3.4-1.7 2.7 0 6.1 2.3 3.8 3.5 1.3 0.8 2.8 0.5 3 2.8 4.8 6.8 2.6 6.5 1.2 1.6 1.9 0.5 3.8-1.1 1.2 0.2 1.6 1.1 2.1-0.1 2-1 2.5-2.1 1 0 1 0.4 1.1 0.1 3.3-1.2 6.5 0.3 2-0.6 2-1.2 1.6-0.6 1.7 0 3.2 1.3 0.7 0.1 0.5 0.4 0.5 2.6 0.4 0.9 0.7 0.7 0.8 0.7 2 0.8 2.2 0 4.4-1 1.9-0.7 1.7-1.2 1.9-0.9 2.2 0.2 1.7 1.2 0.7 1.7-0.2 2-1.2 2-1.6 1.5-3.1 2-1.4 2-1.6 1.5-2.1 0.3-4-0.2-5.1 2.7-2.1 0.5-7.2-0.2-2 0.7-1.3 1.4-0.9 2-0.3 2.2 0 2.1 1 4.8-0.3 1.8-3.1-1-0.5 0-0.5 0.1 0.9 2.6 1.1 2.4 0.4 0.5 0.2 0.5-0.1 0.5-0.5 0.5-0.8 0.6-0.5 0.9-0.2 1 0 1.1 1.3 3.7 6.5 10.5 5.7 5 2.4 2.8 0.8 3.7-0.8 1.8-1.3 1.5-0.9 1.6 0.3 2 1.4 1 4-0.1 1.5 1.3-0.4 3.3-2.2 3.8-1.3 3.5 2.1 2.5-0.8 1.5-1.1 0.6-1.3 0.3-2.6 0.8-1.8-0.5-1 0.1-2.8 1.7-1.5 1.4-1.6 0.4-3.1-1.3-1.3 0.1-1-0.4-2.2-1.4-1.5-0.6-0.7 0.3-1.4 2.4-0.1 0.5 0.3 1.6-0.2 0.6-0.6 0.3-1.5 0.1-0.6 0.3-1.1 1-0.5 1.5 0 1.6 0.3 1.7 0.9 3.3-0.3 2.3-0.8 2.3-0.8 3-1.6 2.1-2.7-1-1.2-0.6z" id="IRQ3242" name="As-Sulaymaniyah" data-id="IRQ3242" data-name="As-Sulaymaniyah">
 </path>
 <path d="M717.2 313.6l-1.8-1-2.4 0.1-0.7 2.4 0.2 3.2-0.5 3-2.8 2-2.9 0.3-1.3 0.5-1 1.4-0.3 1.5 0.2 2.6-0.3 1.4-2.9 3.2-0.7 2 1.5 1.8 0.8 0.5 0.9 0.7 0.8 0.9 0.3 1 0.4 1.3 0.5 0.8 0.5 0.6 0.4 0.8 0.3 2.4 0.1 2.3 0.3 2.1 1.1 1.6 0.3 0.8 0 1.4-0.3 1.3-0.4 0.8-0.6 0.1-2.2-0.8-7-0.5-3.2-0.8-3.5-1.9-4-1.1-0.4 3.4 0.9 5-0.2 3.7-0.5 0.9-0.5 0.9-0.7 0.8-0.7 0.7-5.4 1.2-1 1.6 3.2 10.2 1.3 2.7 1.9 1.4 2-1.7 2.3 0 2.1 1.4 1.5 2.4 0.6 2.8-0.2 3.1-1.4 5.9-0.5 1.1-1.4 2.3-0.2 1.2 0.5 1.4 0.7 1.1 0.6 1 0 1.4-1 1.4-4.1 3.4-1.5 1.6-2.5 2.2-1.2 2.7-0.8 3.2-1.6 3.4-0.9 0.9-1 0.7-2.1 0.9 2.1 3 2.3 1.3 2.6 0.2 3.1-0.5 0.6 0.3 9.1 16.6 1.4 1.5 1.5 1.4 1.4 1.4 0.7 2.1 0.4 2.5 0.8 2.1 1 2 1.4 2 1.5 1.6 4.8 3.4 0.7 1.9 0 4.3 0.7 0.9 1.8-0.4 1.7-1.2 2.9-2.8 1.9-0.8 4.9-0.1 2.2-0.6-0.4 3.8 1.8 1.8 2.2 1.5 0.7 2.8-1.2 1.8-4.9 3-1.6 2.1 1.8 1.5 3 0.7 3.1-0.4 1.9-1.8 0.5-0.3 0.5-0.1 0.6 0.2-1.7 1.9-1.6 2.8-0.4 0.8-1.2 4.4-0.7 0.9-1.1 0.9-2.4 1.4-1.3 0.5-0.8 0.2-0.6 0.1-1.4 0.6-4.8 3.5-1.1 1.3-0.8 0.8-1.2 0.8-1.6 0.7-0.4 0-1.2-0.4-0.5 0.3-0.6 0.6-1.1 1.7-3.6 4.3-1 1.5-0.6 1.3-0.4 1.7-1 2.6-1.3 2-2.7 3.2-2.4 3.6-0.7 0.7-3.9 3.4-1.6 1.7-1.3 1.7-1.2 0.6-0.8 0.4-5.9-1.8-32-9.2-9.9 1.1-3.6-0.3-11.7-2.9-3.1-0.1-2 1.6-2.2 2.7-2.3 3.4-4.4 3.4-1.8 1.8-1 1.5 0.6 1.3 0.3 0.6 0.6 1.8-0.5 0.2-1.1 1-1.1 0.4-1.2-0.1-1.1-0.3-1.1-0.6-0.9-0.6-0.8-0.8-0.6-0.8-0.6-1.1-0.9-2.4-0.6-1.2-0.7 0.4-0.7 1.7-1 3.2-1.1 1.7-0.5 1.2-0.3 0.7-0.8 0.5-2.2-0.7 0.6-1.7 0-4.8-0.4-2.5-0.8-3-1.8-4.7-1.3-2.6 0.1-1.4 0.1-5.3 1-1.4 1-1.1 0.1-0.5-0.1-0.5-0.4-0.9-0.2-1 0.7-2 0 1.2-0.2 0.3 0 0.4 0.4 0 0.4-0.3 0.4-0.8 0.2-0.9-0.1-3.7-0.2-3.6 0.6-1.2 0.1-1.5 0.1-0.5-0.1-0.3-0.5-1.7-0.3-1.1-0.1-1.4-0.8-0.9-3.2 2.4-3.8-3.3-2-1.1-1.1-0.2-7.3-0.4-0.5-0.1-0.7 0.9-1.4 4.3-5.3 1.4-0.3 0.1-3.1-6.8 5.5-7.9 1.5-1.8 2.4-2.2 1.8-1.3 4-3.6 0.8-3.2 0.3-3-1.1-2.8 1.5-6.7 0.4-0.9 1.4-2.3 0-0.5-0.2-0.5-2.1-2-0.6-0.9-0.6-1.1-0.2-1.1 0-1.1 0.2-1.1 1.9-5.3 3.5-5.5 0.6-2.1 0.1-2.3-0.4-2.4-0.7-1.9-1.3-1.5-4.7-4.3-1.5-0.7-2.7-0.4-2.8 0.4-0.9 0.2-0.7 0.1-0.5-0.1-0.3-0.3 0-1.1 0.1-0.6 1.1-1.6 0.3-1.5 0.7-2.1-0.1-0.6-0.6-0.8 0.2-0.4 2.2-1.5 0.4-0.4 0.2-0.8 0-0.5-0.1-0.5-0.7-1.3-0.2-0.5 0.2-0.4 0.4-0.3 0.9-0.3 1.2 0 0.3-0.5-0.1-2.9-0.4-0.8 0-0.3 0.3-0.2 1-0.3 1.2 0.1 0.5-0.2 0.4-0.3 0.3-0.8 0.7-1.2 0.6-0.1 0.3 0.7-0.3 0.6 0.2 0.3 0.3 0 0.4-0.2 0.2-0.4 0.2-1 0.5-0.9 2.1-3.1 0.4-0.3 0.9-0.3 1.5-0.1 1.2-0.8 0.3 0.1 0.6 0.6 0.3 0.3 0.3-0.2 0.2-0.5 0-2.2 0.1-0.7 0.8-0.5 0.5-0.2 0.4-0.3 0.1-0.5-0.3-2.4 1.4-1-1.2-1.4-0.7-0.4-0.8-0.7-0.9-1.1-0.6-0.8-0.3-0.7 0-0.5 0.8-1.3 1-2.2 0.7-2.3 0-1-0.3-1.2-0.4-1.1 0.7-0.7 0.3-0.4 0.6-1.9-0.3-0.2-0.4 0-0.5 0.4-0.8 0-0.2-0.3 0-0.3 0.7-0.9 0.1-0.3-0.4-0.2-0.7 0.4 0-0.7 0.5-0.8 0.4-0.4 0.9-0.1 1-0.3 0.3-0.3 0.1-0.5-0.4-1-0.4-0.4-0.8-0.3 0.1-0.3 1.3-1.1 0.2-0.9 0.1-0.7-1.6-4 0.1-1.2 0.3-1.2 1.2-1.5 0.4-0.2 0.9 0.5 2 0.8 1.6 0.4 0.9 0.4 1.1 0.7 3.7 3.4 0.6 0.4 0.3-0.1 0.5-1.5 0.7-1.2 1.1-1.4 1.7-1.5 1.7-1.1 1.5-1.4 1.2-1.8 1.6-3.4 0.2-1.8-0.3-1.5-0.5-0.7-0.5-0.8-0.2-0.8 0-0.7 0.5-0.8 1-0.9 2.1-1.2 2.9-0.8 1.2-0.6 1.5-1.2 1.9-2 1.4-2.3 0.4-1.4-0.2-1.8 0.1-0.8 0.7-1 1.2-1 2.6-1 3.4-1.7 4.8-4.5 5.4 3.6 2.1 2.1 1 1.3 0.7 0.5 0.7 0.2 0.6-0.2 2.4-1.4 0.9-0.2 1.1-0.2 2.2 0.3 1.3 0.4 1 0.5 1.4 1.2 0.8 1 0.8 1.3 0.4 1.2 0.2 4.4 0.5 2.8-0.1 1.3 0.1 1.5 0.6 2.8 1.2 3.2 0 0.5-0.2 0.5-0.5 0.6-1.4 1.6-0.3 0.6-0.1 0.5 0 0.8 0.2 0.7 0.6 1.9 0.1 0.6-0.1 0.7-0.1 0.7-0.3 0.8-0.7 1.4 0 0.5 0.2 0.5 0.3 0.3 0.8 0.2 1.1 0.2 0.3 0.3 0.2 0.6 0.2 2 3.4-2 11.1-13.4 1.4-1.2 1.1 0 1-0.2 0.6 0 0.9-0.3 1.1-0.4 1.9-1.1 0.7-0.6 0.5-0.6 0.1-0.7 0.4-1.1 1.1-2.1 0.3-0.6 0.3-1.2-0.2-0.7 0-0.9 0.2-0.9 0.5-1.6 1.2-2 1.3-3.5 0.5-0.6 0.5-0.4 0.6-0.3 0.3-0.9 0.9-2.3 0.3-1.5 0.8-1.9 1-1.1 0.4-0.7 0.2-0.6 0.1-0.7 0.3-0.3 1 0.1 2.6-2.4 0.8-1.2 2.4-3.8 0.5-1.1 0.3-0.8 0-0.9-0.2-0.3-0.7-0.2-1.3-0.2-0.2-0.7 1-0.9 0.4-1.8 0.4-0.5 0.8-0.5 0.5-1 0.1-0.4-0.2-0.2-0.5 0.2-0.6-0.3 0-1 0.2-0.7 0.7-1.1 0.4-0.4 0.3-0.1 0.3 0.5 0 0.6 0.4-0.1 0.6-0.4 0.8-0.4 0.3-0.5 0.4-1 0.5-0.8 1.1-1.3 1-1.4 0.1-0.9 0.1-0.6 0.9-1 0.6-0.4 0.7 0 0.6 0.4 0.8 0.7 0.5 0.5 0.6 0.9 6.9 7.4 1.1 1.8-0.3 0.2-0.8 0.3-0.5 0-0.9-0.3-0.4 0-0.8 0.1-0.5 0.1-0.1 0.9 0.9 11.4 0.7 1.4z" id="IRQ3243" name="Diyala" data-id="IRQ3243" data-name="Diyala">
 </path>
 <path d="M380.1 304.9l0.7 1.8 0.2 27.2 4 17.9 19.8 16.4 4.5 2.5 3.2 0.4 12.2-7 1.9 10.6 0.5 7.7 0.8 3.7 2.6 3.8 1.6 6.6 1 6.5 5.3 13.1 7 9.4 16.4 16.5 14 12.2 5.4 2.1 11 1.8 12.5 5.1 9.2 3 17.1-0.4 3.1 0.9 3.6 3.3 1.6 1.7 1.8 3.5 3.2 8.1 2.3 3.8 1 1.2-3.4 2.6 3.8 1.2 3.4 2.4 7.5 0.4 3.1 6.8 0.3-0.1 0.2 0.6 0 0.6-1 2.4-3.2 3.5-1.2 2.4-0.5 2.3 0.1 2.6 0.5 2.5 1 2.1 1.2 1.1 2.7 1.8 1.2 1.3-3.1 4.3-1.8 1.8-2.2 0.6-2.2-0.7-6.5-3.8-2.6-0.8-2.4-0.4-9.7 0-9.1-2.4-4.6-0.6-3.4 0.4 0.5 2.6 1.3 1.7 5.1 1.3 9.9 5 3.1 3.1 2.4 7.3 1.8 9.1 1.3 3.2 2.8 3.2 4.4 3.2-1.1 11.5-17.5-5.4-11.7 0-8.6 1.1-8.1 4-19.1 16.9-2.7 1.8-1.1 0.3-14.7 2.1-4.8 1.8-5.4 2.9 0.7 3.7 2.4 3.7 24.1 24.4 16.8 12.6 4.9 4.3 10.7 10.2-0.1 2.4-0.5 3.6-1.8 2.2-1.7 1.7-9.5 5.2-2.6 2.1-1.4 0.9-1.6 0.6-6.5 1-1.2 0.5-3.1 2-0.8 0.2-2.1 0.2-1.7 0.8-1.8 1.5-3 3.2-15.9 23.6-1.4 2.6-0.1 3.9-0.6 3.3-1.5 4.4-10.8 23.3-1 2.9-0.3 2.1 0 1.6 0.2 1 0.4 0.8 0.1 1.8-0.5 2.6-4 10.6-0.3 1.5-0.7 5.8-0.7 2.5-0.7 1.7-5.8 8.1-3.5 6-0.7 1.8-0.4 1.2-1.2 10.5-1.3 4.2-3.1 7.3-6.6 12.4-2.6 6.3-0.8 1.2-2-1.7-19.3-16.8-9.7-8.5-8.6-7.5-17.2-14.9-8.7-7.5-6.7-5.9-9.1-5.4-9-5.4-8.9-5.3-17.9-10.7-9-5.3-8.9-5.4-26.8-16-9-5.4-8.9-5.3-9-5.4-17.9-10.7-8.9-5.4-9-5.3-10.5-6.3-5.6-3.4-5.5-2.1-34.8-6.8-8.2-1.4-20.2-3.4-40.3-7-20.2-3.5-1.2 0.4 0-0.9 12.3-10.5 2.6-3.8-2.1-8.2-1.6-3.7-2.1-1.2-19.3 5.4-1-0.6-0.8-1.8-4.9-17.4-0.2-0.5 8-2.5-6.8-25.3-4.8-17.8-4.7-17.3-3.5-13-4.3-15.6-4.7-17.4 22.6-13.6 22.5-13.6 22.6-13.5 22.5-13.6 11.3-6.8 11.3-6.9 22.5-13.6 22.6-13.6 11.3-6.9 26.2-15.9 25.1-6.8 2.9-1.9 2.4-3.3 3.6-8.1 0-0.1 17.5-34 0.9-3 0.3-3.3-0.9-21.7-0.6-20.6 2.2 0.1 13.1 1.2 17.2 5 6.9 1.1 27.9 11.6 13.5 5.3 6.6 0.4 14.4-1.9 1.8 0.4 3.6 1.7 3.1 1.3 22.2-3z" id="IRQ3471" name="Al-Anbar" data-id="IRQ3471" data-name="Al-Anbar">
 </path>
 <path d="M563.3 524.8l1.3-0.2 1.3 0.2 2.6 0.7 17 0.9-0.1 1.4 1.3 2.6 1.8 4.7 0.8 3 0.4 2.5 0 4.8-0.6 1.7-1.7 1 0.7 3.6 0.4 12.3 0.6 3 0.7 1.9 1.2 1.1 0.6 0.2 14.4 1 0.7 0.2 6.5 3.7 5.2 1.7 3.7 0.3 0.9 0.3 0.5 1 3.3 1.4 2.6 1.4 1.5 1.2 1.4 1.5 0.6 1.4 4.4 14.5 4 9 1.7 2.3 2 1.9 1.6 1.2 1.7 0.5 6.1 0.2 1.4 0.1 0.2 3.8 0.2 2.5-1.5-0.1-0.9 0.2-1.4 0.6-4.6 2.8-1.2 0.9-1.2 1.5-0.7 0.7-8.8 5.8-6.6 2.7-4.4 3.5-3 2.8-0.7 0.4-0.6-0.3-1.2-1.2-0.6-0.5-0.6-0.1-0.8 0.4-0.9 1.1-0.6 1-0.3 0.9 0.1 0.5 0.5 0.5 0.8 0.8 0.1 1.1 0 0.9-0.5 0.6-0.5 0.5-1.6 0.9-0.6 0.5-1.9 2.4-0.7 0.7-0.9 0.4-0.9 0.3-1.2 0.1-1.4-0.5-5.6-3.5-3.1-1-5.2-1.6-3-1.8-2.3-1.9-2.8-1.5-5 3.6-0.8-0.1-0.8 0.2-0.5 0-2.1 1.4-3.6 3.5-1.6-2.1-0.5-1-0.7-1.2-0.7-0.8-1.9-3.1-0.8-2.2-0.2-1.3 0.8-1.2 2.4-1.4 0.4-2.1-0.6-0.6-0.7-1.2-1.4-5.8-0.4-1.3-2.1-4.2-0.7-2.5 0.5-2 0.9-2.4-0.7-2.4-5.7-8.5-1.7-4.1-0.2-4.5 3.6-13.2 0.9-1-0.1-2.1-0.4-0.9-2.5-2.6-0.7-0.5-0.6-0.3-0.5 0.1-0.5 0.2-1.1 0.6-0.5 0.1-0.5-0.1-3.6-1-2.8-0.4 1.1-11.5-4.4-3.2-2.8-3.2-1.3-3.2-1.8-9.1-2.4-7.3-3.1-3.1-9.9-5-5.1-1.3-1.3-1.7-0.5-2.6 3.4-0.4 4.6 0.6 9.1 2.4 9.7 0 2.4 0.4 2.6 0.8 6.5 3.8 2.2 0.7 2.2-0.6 1.8-1.8 3.1-4.3z" id="IRQ3472" name="Babil" data-id="IRQ3472" data-name="Babil">
 </path>
 <circle cx="466" cy="351.6" id="0">
 </circle>
 <circle cx="465" cy="352.1" id="1">
 </circle>
 <circle cx="468.8" cy="351.1" id="2">
 </circle>
</svg>