<?xml version="1.0"?>
<!--
************* Copyright (c) 2017 Pareto Softare, LLC DBA Simplemaps.com *******************		
************* Free for Commercial Use, full terms at  http://simplemaps.com/resources/svg-license ************
************* Attribution is appreciated! http://simplemaps.com ***************************
-->
<svg baseprofile="tiny" fill="#7c7c7c" height="1224" stroke="#ffffff" stroke-linecap="round" stroke-linejoin="round" stroke-width="2" version="1.2" viewbox="0 0 1000 1224" width="1000" xmlns="http://www.w3.org/2000/svg">
 <path d="M908.2 897.2l-0.9 2.7-2.3 0.4-1.7-2.7 0.1 1.3-0.2 1.4-0.5 1.1-1.2 0.6-0.6 0.6-0.7 0.2-0.9-0.3-0.7-0.6-0.6-0.8-1.6 0.2-2.3 0.8-4.6 2.4-1.2-0.8-1.1 0.2-0.8 1-0.4 1.7 0.7 1 1.3 0.8 1 0.9-0.5 1.3-1.5 0-1-0.8-0.6-1.2-0.2-1.5-2.8 0.6 0-2.9 1.5-4 1.7-2.8 2.3-1.3 3-0.8 2.5-1.4 1.1-2.5 1.5-1.7 3.4 0.2 3.8 1.3 2.6 1.5 2.4 3.9z m-303.8-254.7l23.6 3.5 1.6-0.6 1-1.2 0.8-1.6 0.9-1.4 1.4-0.8 2-0.7 4-0.7 3.8 0 1 0.3 1.1 1.2 0.5 0.3 1.6 1.3 6.6 8.2 10.8 0.4 2.3 1.1 2.3-0.3 2.5-0.5 2.7 0.1 2 1 1.1 1.2 1.4 0.9 3.8 0.6 0.9 0.6 0.8 0.7 0.3 0.6 0.7 0.3 4.5 1 1.7 0.7 1.9 1.3 1.7 1.4 1.2 2 1.7 1.3 0.7 1 1.4 3.5 1.4 0.7 1.9-0.2 1.1 0.4 0.5 0.6 1.3 2.3 0.4 0.5 2.1 1.3 1.7 3 4.8 18 0.9 1.9 1.5 0.4 0.9 1 0.5 1.4 0.1 1.9 0.7 0.1 3.2 3.8 0.5 0.8 1.4 0.6 3.3 0.3 2 0.8 1.6 1.1 1.1 1.4 0.7 1.7 0.2 2.3 3.9 5.7 0.1 0.8-0.2 1.9 0.2 2 1.1 1.2-1 1.8 0.3 1.8 1.6 4.2 0.3 4 0.4 1.2 1-0.1 0.8 0-0.2 1.8-0.2 0.8-0.4 0.9 0.6 1.2 2 5.7 0 0.8 0 2.6 1.6 2.6 0.7 2.1 0.8 3.6 4.5 8.9 1.8 1.8-0.9 1-0.7 1.1-1 2.2 2.8 0.3 2.2 1.8 1.4 2.6 0.5 2.6 2.8 3.3 1.5 4.9 0.6 10.6 0.8 4.9 1.2 4.4 0.9 8.1 0.4 1.3 0.7 1.1 5.2 10.9 1 1.5 1.7 1.6 1 1.9 0.3 8.1 0.7 3.3 0.2 0.1-0.3 1-0.6 0.7-0.5 0.5-0.3 0.4-0.1 2.2 0.9 5.5-0.2 1.1-0.7 1.3 0.1 1 0.6 1.2 1.3 1.4 0.6 0.9 1 6 0.8 1.7-0.5 0.4-1.3 1.4 1 1.7 1.6 6.9 1.7 3.8 0.6 1.9-0.5 1.3 0 0.7 0.5 2.4 6.9-2.7 97.2-43.5 0.8-0.1 67-4.3-0.1 2.6-9.6 9.8-4.6 7-0.5 2.2-2.8 1.6-7.1 6.5-4.5 5.5-2.6 1.6-1.9-2.4-2.4 1-2.2-0.2-1.4-1.5-0.1-2.7-2.5 2.6-0.5 3-1.2 2.9-3.6-0.3-4.9-1.2-1.1 0-1.6 0.9-2.5 2.8-3.4 1.4-1.3 1.7-1.3 1.4-2-0.1-1.7-0.9-1.2-0.8-0.8-1.2-0.5-1.8 0.1-1.9 1.2-3.5-0.1-1.5-0.3-1.7 0.5-1.6 1.9-2.8-4.4 3.4-0.5 14.8-2.7 3.4-2.4-1.8-2.3-7.7-2.3-1.8-1.3-0.7-1.1-1.4-1.2-0.4-1.5 1.8 0.8 1.8 0.4 1.7-0.4 1.6 2.1-0.9 1.6 0.4 1.1 1.4 0.4 2.1-0.3 0.8-1.2 0.7-0.2 0.7 0.4 1.2 1.8 0.5 0.4 0.9 0.2 9.1 0.8 4.9 1.6 3.2 1.1 0.3 1.4-0.2 1.5 0.1 1.6 1.1 1.2 1.8 0.2 1.4-1.4 3.3-3.1 3.8-2.8 0.5-0.4-1.4 4.1-2-2.1-0.8-1.8-1.2-3-3.2-0.5-1 0.2-0.6-0.1-0.5-1.2-0.3-0.8 0.3-1.9 0.4-3.1 1.7-2.8 3.4-2.7 2.3-2.6-1.4 0.1 1.1 0.3 1.1 0.7 0.9 1.1 0.4 0.6 0.4-0.3 0.8-0.8 1.3 0.8 1.9 3.5 2.4 0.9 1.7-1.5 2.9-3.4 3.4-4 2.9-5.8 2.4-7.7 9.1-4.3 1.7-3.9-0.9-3.7-1.6-4-1-4.1 0.5-12.7 4-5.3 3.7-3.1 1-3.7 2.3-6.3 5.1-1.5 1.6-1.1 1.7-2.3 5.3-3.8 4.7-0.5 2.2 0.2 0.9 1.9 2.5 0.2 0.8-0.5 2-0.2 1.1-2.3 8-0.3 4.1 2.6 2.1-0.6 3.3 1.5 1.4 2.6-0.2 2.6-2 0.1 1.4-1 1.5-4.4 4.2-2.6 3.5-0.7 1.5-0.5 6.4-0.8 2.2-4.3 6.1-0.1 1.7 1.4 4.6 0 2.3-0.8 2-1.1 1.8-1.5 1.6-1.8 1.1-6 2.8-1.7 1.1-3 3.6-1.7 1.3-2.2 0.4 0.9-2.2 1.4-4.8 0.2-1.7-2.2 0.5-1 1.3-0.2 1.6 0 1.8-0.1 1.1-0.8 3.1 0.3 0.7 0.4 0.7 0.3 0.8-2.2 3.6-2.6 6.7-3.4 5.4-1.3 7.3-1.4 2.9-1.6 1.4-1.1 0.3-2.7-1.2-0.6-0.4-1.7-1.9-0.6-0.1-3.3-0.3 0.5-1.1 0.1-0.5-1.3-1-1 2.3 0.4 1.9 1.5 1.1 2.5 0-1.5 1.8 0.5 1.4 1.8 0.6 4.4-1.8 1.4 1.1 0.8 1.9 0.3 1.9-0.3 3.9-10.1 28-3.2 3.1-3.6 0.6-2.6-1.9 0.1-4.3-2.8 1.6-0.8 0.9 0.4 1.3 0.9 1.3 0.4 1.2 0.6 1.1 1.3 1.2 2.7-0.2 1.4 0.6-0.3 2.2-2.7 2.9-0.4 0.9-0.3 1.1-0.9 1.6-1.1 1.4-1.1 0.6-1.2-0.7-0.9-2.9-1-0.6-0.8-1.6 0.3-2.9-0.2-1.7-2.2 1.9-3.3-1.8-1.4-0.2-1.4 1.1 1.3 1.2 1.4 0.6 3.4 0.8-1 2.2-1.1 1.1-4 0.9-1.3 0-1.4-0.1-1.1 0.1-0.5 0.9 0.1 2.7 0.2 1.2 0.6 1.3 1.8-2.5 4.2-0.2 4.4 1.2 2.4 2.4-0.5 3-6.2 10.8-4.1 10.3-4.1 15.5-1.4 3.5-1.1-1.6-1.1 0.1-1 1.1-1 1.4-0.2 0.7 0.1 1.6-0.4 0.7-1.8 1.6-0.4 0.6-4.3 12.9-0.8-2.3 0.4-3.7-0.5-1.8-1.6 1.3-0.9 1.7-0.7 2-1.1 1.9-0.6-0.1-0.9-0.4-0.8 0.1-0.3 1.7 0.2 1.1 2 2.7-1.3 1.8-4.2 0.6-4.8-1.2-3-3.7-0.1 0.7-0.7 1.9-3.7-1.1-2.7 2.6-2.3 3.6-2.5 1.8-1.4 0.4-0.4 0.5-10.7-7.7-10.7-7.8-21.5-15.5-21.4-15.5-10.7-7.7-10.8-7.8-10.7-7.7-10.7-7.8-10.8-7.7-10.7-7.7-21.5-15.5-10.7-7.8-10.7-7.7-6.8-4.9-1.8-2.3-1.2-2.6-2.2-7.7-1-2-1.7-1.6-2.4-1.1-2.6-0.7-2.7-0.3-6.1 0.4-0.3-1.8 1-2.4 0.5-2.1-0.6-1-2.1-0.3-0.9-0.9-0.2-1.3 0.3-1.5 0.6-1.4 0.6-1.1 1.9-2 2.8-2.3 3-1.6 2.3-0.1-0.1-2.3 0.4-1.8 1.3-1 2.2-0.2-2.5-15.4 2.3-0.7 11.6-1.6 1 0.1 1.3 0.1 2-0.2 0.8-1.1 0.5-1.5 1.9-18 8.5-29 3.3 1 3-1 15.2-7.2 3.1-2 1.1-1.4 0.9-0.5 0.7-0.2 1.2 0.5 0.9 0.8 2.2 2.9 0.4 0.5 3.9 2.9 4.2 1.8 0.7 0.2 1.7 0.7 0.6 0.4 2.2 2 5.5 8.3 2.5 5.2 0.6 2 0.7 1 0.9 0.8 0.6 0.3 5.4 2.2 0.5 0.3 1.8 1.6 1.6 1.9 0.8 0.8 0.6 0.1 0.7-0.9 1.1-0.6 1.3-0.3 1.6-0.1 1.8 0.1 0.4 0 1-0.8 0.7-0.5 1.3 0.1 1.4 0.3 1.8 0.7 2.1 1.3 1.8 0.7 1.6 1.1 1.2 1.3 0.5 0.3 0.6 0.3 1.4 0.3 1.2 0.5 2 1.4 0.6 0.3 0.6 0.1 0.7-0.1 3.7-0.5 0.8 0 1.4 0.3 3.7 1.4 6.1 0.5 0.5 0.4 0.2 0.5-0.3 1-0.1 1 0.3 0.2 0.9 0 1.9-0.6 1.6-0.9 0.6-0.2 2.2-0.2 1.2-0.5 1.9-1.5 0.5-0.4 1.4-0.3 0.7-0.1 2.3 0.3 1.4-0.1 0.6-0.2 1.4-0.3 0.7 0 1.8 0.7 0.6 0.2 0.7-0.1 0.5-0.3 1.3-1.3 0.9-0.8 0.8-0.4 0.5 0 0.6 0.2 1 0.6 1.3 0.4 1.3 0.1 0.2-0.5-51.8-76.4-0.1-0.5 0.6-0.2 1.9 0.5 2 0.3 1.5 0.1 1.6-0.2 1.3-0.5 2.2-1.3 0.5-0.3 2.4-3.6 0.4-0.5 1.1-0.6 0.5-0.3 2.1-0.5 1.2-0.5 1.3-1.1 0.5-0.6 23-45.9 0.5-2.7 0.2-3.4-3.2-19.6 0-1.7 0.3-1.7 1.3-1.7 2.8-2.8 0.5-1.1 0.2-0.7-0.5-68-0.9-2.8-14.9-32.6-57.2-98.6 0-1.6 1.2 0.2 1.2 0 1.1-0.5 2.8 1.2 3.8-1.7 6.3-4.7 3.5 0 7.4 2.4 3-0.7 1.7 0.9 2 0.1 1.6-0.3 0.7-0.2 0.6 1 1.5 0.9 3.1 1.1z" id="KEN1193" name="Coast" data-id="KEN1193" data-name="Coast">
 </path>
 <path d="M395.8 631.8l2.9 3 26 19.5 0.9 1.3 13.3 32.4 0.4 2 0 9.6 0.1 1.1 0.4 1.2 4.1 4.7 1 1.9 0 3.2-0.1 1 0.3 9 0.2 1.5 0.7 2.1 0.8 1.5-0.2 0.5-1.3 0.8-16.6 6.3-1 0.1-0.8-0.1-0.5-0.3-2.5-1.8-1.7-1.8-1-0.7-1.1-0.3-1 0.1-0.7 0.2-1 0.5-0.3 0.2-0.4 0.7-0.3 1.1-1.2 9.1 0 1.3 0.3 0.9 4.6 3.9 0.8 0.9 0.3 0.6 1.3 4.8 1.2 2.2 0.8 1 0.6 0.2 0.6 0.1 0.8-0.1 1.2-0.5 2.1-1.3 0.6-0.2 0.5 0 0.8 0.8 0.2 0.6 0 0.9-0.2 0.9-0.5 1.2-0.5 2.8 0 2.5-3.4 4.8-1.4 1.4-0.6 0.1-4-2.7-1.2-0.2-1.4 0.2-0.6 0.3-1.1 0.6-0.8 0.3-1.2 0.2-1.5 0-1.4-0.2-0.7 0.1-0.6 0.2-2.4 1.6-0.8 0.8-0.6 0.8-0.3 1 0.1 1.6 0.4 1.8 0 0.9-1.4 4.2-2.6 5.3-1.7 1.8-1.9-2.2-1.2-1-1.7-1-3.6 0.7-1.7 0.6-0.8 0.2-1.1 0.1-1.8 0-1.9-0.3-0.9-0.3-2.1-0.9-2.2-1.4-0.4-0.4-0.2-0.6 0.2-1.3 1.2-2.1 0-0.6-0.2-0.4-0.4-0.2-1.3-0.4-1.2-0.7-0.6-0.1-0.6 0.1-3.5 3.7-1.2 0.8-2.2 0.3-0.9 0.2-1.2 0.5-0.8 0.1-0.6 0-5.1-1.7-0.7-0.1-1 0.5-1.3 1-4 5-0.8 0.7-1.5 0.7-1 0.3-0.9 0.4-0.7 0.8-2.1 3.1-3.4 3.6-1-0.5-2.1-1.2-1.9-1.4-0.6-0.3-0.8-0.2-14.7-2.2-0.7-0.9-0.2-1.7 4.8-14.1 0.4-0.5 0.6-0.2 2.3 0 1.3-0.3 0.6-0.5 0.3-0.7 0.2-1.4-0.1-0.9-0.8-3.8-0.1-0.7 0.2-2.3 0.9-3.2 0-0.8-1.8-2.3-0.3-0.6-0.9-2.7-0.1-0.6 0-0.9 0.2-2.2-0.1-1.3-4.4-11.9-1-5.2 0.2-1.1 1.1-3.3 0.1-1.2 0-1-1.6-7-0.2-2.4-0.8-3.8-0.3-0.6-0.9-0.3-0.5-0.1-1.2-0.4-1.3-0.5-1-0.7-0.5-1.2-0.4-0.6-0.5-0.3-0.6-0.2-1.5 0-1.6 0.2-2.6 0.5-0.6-0.2-0.2-0.5-0.4-2-0.5-1.3-0.4-1.4-0.1-3.3-0.9-6.1 0.1-1.8 0.3-1.2 0.3-1.7-0.1-0.7-0.5-2-0.6-1.1-0.5-0.2-0.4 0-3.8 0.8-0.6-0.1-0.4-0.3-0.6-1.1-0.3-0.5-0.5-0.2-1.4 0-2.7 0.7-1.5 0.2-0.8-0.1-1.1-0.3-0.7-0.5-6.2-13.7-0.4-1.3-0.3-1.5-0.1-1.6 0.1-0.8 0.2-0.8 1.3-3.6 0.2-1.4-0.2-6.4 0.3-3 0.5-1.6 0.3-0.9 0.6-2.4 1.8-3 0.3-0.6 1.7-5.1 0.6-1.2 1.7-1.6 1.2-0.7 5.1-2 0.4-0.4 0.4-0.5 0.3-1.3 0.3-0.5 0.8-0.4 1.4-0.1 2.8 0.2 2.1-0.3 1.1-0.4 6.6-4 0.5-0.4 0.3-0.6 0.4-1.3 0.4-0.4 0.6-0.1 0.9 0.4 0.6 0.5 3 3.1 0.4 0.5 0.3 0.6 0.5 2.1 0.6 0.7 1.1 0.7 2.5 0.7 1.1 0.5 0.9 0.5 2.8 3.1 0.7 0.3 0.7 0.1 1.4-0.4 0.8-0.4 1.8-1.1 0.6-0.1 0.7 0.1 0.6 0.5 0.3 0.6-0.2 0.9-0.4 0.3-11.1 6.7-0.9 0.8-0.7 0.7-0.6 1.2-0.1 0.7 0 0.8 0.3 1.4 0.6 1.2 3.8 3.4 1.7 1.2 2.1 0.3 5.7 0.4 2.3 0.7 5.8-0.9 9.1-2.2 1.5-0.2 1.1 0.2 5.9 2.1 0.6 0.4-0.3 0.8 0 1.5-0.4 2.6-0.3 0.8-0.6 1.1-0.4 0.4-1 0.5-0.3 0.3 0 0.5 0.7 1.9 0.3 0.6 5 6.2 1.4 1.2 1.5 1 0.4 0.2 0.9 0.1 0.8-0.4 1.2-1.1 0.5-0.3 0.6 0 1.6 0.9 0.6 0.2 0.8 0 0.8-0.3 1-1 1.5-1.9 0.4-0.8 1.1-1.2 2-2 0.8-0.9 0.3-1.2 0.4-1.7 0.4-5-0.1-1.1-3-4.8-0.4-1.3-0.1-1.5 0.4-1 0.7-1.1 3.3-3.1 1.6-2.2 4.4-7.6z" id="KEN1195" name="Central" data-id="KEN1195" data-name="Central">
 </path>
 <path d="M401.5 789.8l-3.2 3.2-0.7 0.8-1.5 1.3-2.3 2.5-0.5 0.3-0.5 0.2-1.1 0-6.5-1.2-1.5 0-2-0.5-0.6 0.3-0.5 0.5-0.2 2-0.3 0.9-0.6 0.9-5.8 3.8-0.4 0.8 0.3 0.7 1.9 2.4-0.4 1-0.9 1-1 1.2-1.2 0.5-3.4-0.4-2.1-1.9-1.3-1-0.8-0.3-1.4-0.2-3.4 0.2-1.4-0.2-3.9-1.7-1.3-0.8-1.1-1-1.2-1.7-1-1.8-1.3-1.3-4.2-2.8 3.4-3.6 2.1-3.1 0.7-0.8 0.9-0.4 1-0.3 1.5-0.7 0.8-0.7 4-5 1.3-1 1-0.5 0.7 0.1 5.1 1.7 0.6 0 0.8-0.1 1.2-0.5 0.9-0.2 2.2-0.3 1.2-0.8 3.5-3.7 0.6-0.1 0.6 0.1 1.2 0.7 1.3 0.4 0.4 0.2 0.2 0.4 0 0.6-1.2 2.1-0.2 1.3 0.2 0.6 0.4 0.4 2.2 1.4 2.1 0.9 0.9 0.3 1.9 0.3 1.8 0 1.1-0.1 0.8-0.2 1.7-0.6 3.6-0.7 1.7 1 1.2 1 1.9 2.2z" id="KEN1196" name="Nairobi" data-id="KEN1196" data-name="Nairobi">
 </path>
 <path d="M11.2 696.8l-1.2 0.9-2.3-0.8-3.4-2.3-2.5-0.4-0.8-0.5 0.1-1.1 0.6-1.1 0.5-0.7 1.1-0.6 4-0.4 4.4-1.2 1.8 0.6 0.8 2.9 0.3 0.9 0.7 0.4 0.3 0.5-0.5 1.1-1.1 0.9-2.8 0.9z m24-13.6l-1.7 2.3-5.4 3.6-1.4-0.4-2.2-0.2-1.6-0.4 0-1.6 3.3-1.3 1-0.5 0.6-0.9 1.1-3.4 1.8 2.6 1.2 0.9 1.3 0 0.7-0.8 0.8-2.5 1.1-1.1-0.6 3.7z m68-48l1.6-0.1 1.3 0.5 0.5 0.3 1.7 1.7 1 0.8 1.1 0.5 1.4 0.3 1.7 0 2.4-0.3 3.3 0 5.9 0.7 0.8-0.1 1.4-0.3 0.6-0.3 1.7-1 0.6-0.2 0.7-0.2 1.5 0 1.1 0.6 1.2 1.3 0.5 0.3 1.2 0.1 0.5 0.2 1.4 1.1 1.2 0.6 0.6 0.1 0.7-0.2 1.3-0.4 1.1-0.6 0.4-0.5 0.9-1.8 0.6-1 0.5-0.3 0.6-0.3 0.8 0 0.7 0 1.4 0.3 1.9 0.7 2.1 1.3 1.2 0.5 0.7 0 0.7-0.1 0.6-0.3 1.5-0.9 0.9 0 1.2 0.4 0.5 0.3 0.7 1 0.4 0.6 0.4 1.3 0.6 3.7 0.4 0.5 1 0.7 2.5 1 0.5 0.5 0.4 0.7 0 1.5 0.1 0.9 0.4 0.6 5.7 4.5 0.7 1 0.3 0.6 0.1 1.1-0.1 0.8-0.6 4.1-0.2 0.7-0.6 0.6-1 0.3-0.8 0-1.5-0.2-1.2-0.4-0.5-0.4-0.9-0.8-0.4-0.5-0.3-0.6-0.4-1.3-0.3-0.6-0.5-0.3-0.6-0.2-1.5-0.2-0.7-0.2-0.5-0.3-0.8-1-0.7-1.8-0.9-0.9-0.6-0.3-0.6-0.1-0.6 0.2-1.1 0.5-0.6 0.2-0.7 0-0.6-0.2-0.6-0.3-1.4-1.2-1.5-1-0.8-1-0.9-1.6-0.9-0.8-0.8 0.5-0.8 1.2-2.9 5.5-1.2 1.4-0.6 0.3-1.2 0.5-1.1 0.7-0.4 0.5-0.3 0.7-0.2 1-0.2 5.6-0.3 2.2 0 0.7-0.1 0.8-0.3 0.8-1.1 1.6-0.5 0.6-1.5 1.2-0.4 0.4-1.1 1.5-0.1 0.3-0.2 1.3 0 1.3 0.3 1.3 0.8 1.8 0.4 1.4 0.3 0.5 2 3.1 0.3 1.3-0.5 4.3 0.1 0.6 0.3 1.8 0.2 0.7 0.9 1.4 0.4 1 1.5 13.6-0.3 3.6-0.8 2 0.1 1.5 0.3 1.5 2.5 7 0.4 1.6 0 1.5-0.9 1.2-1.5 1.1-1.6 1-1.7 1.3-1.4 1.4-1.5 3.8-0.7 2.3-0.5 1.1-0.9 0.6-1.4 0.6-33.7 9.6-0.9 0.1-4.6-0.4-0.7-0.2-1.1-0.5-0.7-0.1-1.3 0.5-2.5 1.7-2.3 1.2-2.1 1.6-0.7 0.9-0.1 1.2 0.3 1.2 2.2 3.8 0.3 0.8 0.1 1.4 0.4 1.2 0.7 1.5 1.8 2.4 1.4 6.1 0.6 0.8 3 2.2 1.9 3.2 0.8 2.2 4.7 20.9 0.2 1.8-20.4-11.4-27-15.1-33.7-18.8 0.2-0.5-1-0.6-0.3-1 0.9-1.3 1.9-0.3 1.3-0.5-0.7-1.9-1.6 1-2 0.5-1.9-0.5-1.4-1.8 2.7 0.6 0.9-0.8 0.8-3.3 5.7 3.7 2 0.6 0-0.8-1.1-2.5 0.4-3 1.5-5.3 1.3-1.7 2.5-1.5 1.7-1.9-1.1-3.1-1.2-0.6-5.7-2-5.2-3.6-0.8-0.2-0.1-2.5-0.5-3.4-1.2-2.6-2.6 0.3 1.3-11.2 0.9-1.7 1-0.4 1.2-1 1.2-1.1 0.5-1.1-0.4-1.6-0.9-1.2-1.2-1-1-1.3 0.7-0.4 1.8-0.1 1-0.4 2-2.1 0.1-0.3 4.4 0.3 1.6-0.4 1.4-1.8 1.7-8.4 1.8-3.5 4.2-0.9-0.3 0.4-0.5 1.2 3.6 0.1 5 4.6 3.4 1.4-0.5-0.9-0.4-1.1 0-1.1 0.9-0.3 0.8 0.5 1.1 2.2 0.6 0.7 2 0.3 1.7-0.8 0.6-1.7-0.8-2.2 1.9 0 1.5 0.4 1.1 0.7 1.1 1.2 0.7 1.1 1.2 2.6 0.2 1-0.6 0.9-1 1.1 0 1.1 2 0.4 1.6-0.5 3.1-2.5 1.4-0.5 0.3-0.4 3.6-2.2 0.3-1.1-0.1-1.7-0.6-1.6-5.4-2.2-1-3.4 0.2-3.8-0.3-2.6 2.4-1.1 3.8-1 3.7-0.6 2.1 0.1 1.3-0.8 1-0.1 0.9 0.5 0.8 0.8 1.4 0.9 1.1-0.1 1.1-0.3 1.1-0.1 5.7 1.6 2.5 0.2 7.8-0.8 1.7-0.5 0-1.9-0.7-2.5 0.2-1.7 2.6 0.5 1.5-0.6 3.4 2.5 2.4 0.7 1.2-0.4 0.6-0.9 0.4-0.9 0.4-0.4 0.7-0.5-1-1-1.3-0.9-0.5-0.1-4.3-8.2-0.4-1.3-1.7-0.7-1.7-1.4-1.4-1.7-0.9-1.4-0.8 0.9-1.5-3-0.1-1.8 0.6-1.7 0.1-3-1.7 0.6-6.1-0.2-0.6 1.2-1.3 1.2-1.6 1.1-2.8 0.8-3 1.7-4.6 0.7-1.9 0.8-1.8 1.3-1.7 1.6-1.9 1.1-1.8-0.1-3.7-1.5-1.9 0-5 1.8-3.7-0.5-2.2 0.1-1.9 1.2-0.4 1.9 0.6 2 1.4 1.1 1.9-0.7 1.3 2.7 0.7 2.6-0.2 2.5-1.4 2.1-6.4 5-0.9 1.9-0.5 2.2-1.4 2.1-1.9 0.7-2.1-1.9 0.1-0.6 0.6-1 0.3-1.3-0.2-1.5-0.7-0.7-1.1-0.8-1.4-0.7-1.1-0.4 1.3-1.4 0.4-1.2-0.7-0.8-1.8 0 2.1-4.3-0.6-1.5-2.4-1.9-4.2-2-1.4-1.6 0.4-2.5-3.8 0.3-4.5-0.7-3.6-2.1-1-3.6 0.7-0.6 3.1-1.6 0.9-0.3 1.9-0.4 0-0.7-1.2-0.7-2 0.1 2.3-3.4 0.5-1.9-1.5-0.8-3.6 0.1-2.2 0.5-1.5 1.2 0.9 0-0.5 1.1-0.3 0.9-0.1 1 0 1.3-1-0.6-0.2-0.7 0-1.1-1.5-1.9-0.6 0.2-1.5 0.1-0.8-0.6 1.2-1.5 0-0.8-0.7-0.5-0.8-0.3-2.3-0.1-0.5-0.5 0-3.8 0-0.3 0.9-2.1 1.9-3.2 0.4-1.3 0-0.7-0.3-2.2 0-0.8 0.3-1.3 0.6-0.8 1.2-1.1 1.5-1.1 1.2-0.5 2.4-0.9 0.5-0.7 0.4-1.5 0.1-4.1 0.5-2.7 0.5-2 0.5-0.9 2.2-2.4 3.8-2.3 0.8-0.3 1.1 0 2.3 0.2 1.1-0.2 0.8-0.3 0.8-0.9 0.4-0.5 0.9-2.4 0.3-0.5 0.6-0.6 0.9-0.6 0.5-0.3 1.4-0.4 1 0 1 0 6.8 1.3 1.5 0.2 0.7-0.1 0.6-0.2 1.1-0.7 1.2-0.5 0.7-0.2 0.9 0.2 1.1 0.4 2.2 2.3 0.5 0.7 0.4 1.3 0.4 2.3 0 2.4 0.4 1.3 0.3 0.6 6.9 6.9 0.3 0.6-0.1 0.6-0.3 2 0.3 0.8 1 0.8 2.3 0.9 3.3 2.1 0.7 0.6 0.2 0.5 0.2 0.7-0.1 0.7-0.3 1.4 0 3.8-0.4 1.3-0.6 1.1-0.6 1.8 0.1 1 0.6 1 1.3 0.9 0.9 0.2 1.1-0.1 1.5-0.5 3.4-1.4 2.1-0.5 0.8 0 2.8 0.8 3 1.5 0.9 0 1-0.1 2.9-1 1-0.2 1-0.1 2.6 0.6 1.8 0.1 3-0.8z" id="KEN1197" name="Nyanza" data-id="KEN1197" data-name="Nyanza">
 </path>
 <path d="M673.6 195l0 1.9 1.8 23.4 1.2 4.3 0.9 7.2 0.1 16.6-0.3 2-0.3 1.2-0.4 0.4-2.8 2-0.6 0.7-1.4 2.1-0.9 0.8-1 0.6-6.4 2.1-1.2 0.5-0.9 0.7-1.9 2.1-1 0.7-1.2 0.5-3.4 0.8-1.8 1-0.6 0.6-1 1.1-0.3 1-0.2 0.8 0.1 1.8-0.4 2.6-0.5 0.6-0.9 0.5-15.6 35-2.6 3.8-6.7 2.1-1.5 0.8-0.4 0.7 0 0.8-0.3 0.5 0 0.6 0.4 0.7 0.6 2 1.8 3.6 1.8 7.8 0.4 6.9 1.5 7.7 0.7 2 0.7 4.5 0.2 0.6 0.2 3.1-0.5 4.1 0 1.9 0.2 1.3 0.8 0.9 0.7 1.1 0.7 1.9 0.3 0.5 1.8 1.6 0.6 1.2 1.8 5.3 3.8 7.4 5.2 7.9 0.9 0.9 4 2.8 1.9 1.7 0.4 0.5 1.3 2.1 1.1 2.3 0.7 1.1 1.3 1.3 0.7 1 1.2 2.4 1.3 5.7 0.2 0.5 0.7 1.1 1.8 1.7 1.1 0.7 3.1 1.1 1.7 0.8 0.6 0.4 1.7 1.7 0.9 0.7 7.7 4.4 0.9 0.8 0.9 0.9 0.7 1 1.1 2.3 2.9 3.3 1 0.6 1.3 0.4 0.5 0.4 1.8 1.6 2.3 1.2 0.4 0.2 0 0.6-19.7 7.9-1.3 0.8-0.7 0.8 0.2 1.4 20.8 55.7 0.2 0.8 0 1.1-1.2 0.8-1.4 0.7-14.9 5.7-0.7 0.9-4.1 7-1.6 1.9-1.4 1.3-2.8 2.2-1.7 1.9-3.5 5.1-1.4 2.7-0.3 1.1-0.4 1.9-0.3 0.5-0.5 0.6-41.8 15.7-1.5 0.8-0.7 0.9-1.6 3.4-1.7 2.7-0.9 0.8-1.2 0.5-7.7 1-1.2 0.4-2.2 1.2-0.9 0.7-0.6 0.9-0.1 0.7 0.2 0.6 0.5 0.4 2.4 1.7 0.4 0.7 6.9 29.2 0.3 4.8-0.2 0.9-0.3 0.8-0.9 1.8-0.2 0.9 1.1 26.1-3.1-1.1-1.5-0.9-0.6-1-0.7 0.2-1.6 0.3-2-0.1-1.7-0.9-3 0.7-7.4-2.4-3.5 0-6.3 4.7-3.8 1.7-2.8-1.2-1.1 0.5-1.2 0-1.2-0.2 0 1.6 57.2 98.6 14.9 32.6 0.9 2.8 0.5 68-0.2 0.7-0.5 1.1-2.8 2.8-1.3 1.7-0.3 1.7 0 1.7 3.2 19.6-0.2 3.4-0.5 2.7-23 45.9-0.5 0.6-1.3 1.1-1.2 0.5-2.1 0.5-0.5 0.3-1.1 0.6-0.4 0.5-2.4 3.6-0.5 0.3-2.2 1.3-1.3 0.5-1.6 0.2-1.5-0.1-2-0.3-1.9-0.5-0.6 0.2 0.1 0.5 51.8 76.4-0.2 0.5-1.3-0.1-1.3-0.4-1-0.6-0.6-0.2-0.5 0-0.8 0.4-0.9 0.8-1.3 1.3-0.5 0.3-0.7 0.1-0.6-0.2-1.8-0.7-0.7 0-1.4 0.3-0.6 0.2-1.4 0.1-2.3-0.3-0.7 0.1-1.4 0.3-0.5 0.4-1.9 1.5-1.2 0.5-2.2 0.2-0.6 0.2-1.6 0.9-1.9 0.6-0.9 0-0.3-0.2 0.1-1 0.3-1-0.2-0.5-0.5-0.4-6.1-0.5-3.7-1.4-1.4-0.3-0.8 0-3.7 0.5-0.7 0.1-0.6-0.1-0.6-0.3-2-1.4-1.2-0.5-1.4-0.3-0.6-0.3-0.5-0.3-1.2-1.3-1.6-1.1-1.8-0.7-2.1-1.3-1.8-0.7-1.4-0.3-1.3-0.1-0.7 0.5-1 0.8-0.4 0-1.8-0.1-1.6 0.1-1.3 0.3-1.1 0.6-0.7 0.9-0.6-0.1-0.8-0.8-1.6-1.9-1.8-1.6-0.5-0.3-5.4-2.2-0.6-0.3-0.9-0.8-0.7-1-0.6-2-2.5-5.2-5.5-8.3-2.2-2-0.6-0.4-1.7-0.7-0.7-0.2-4.2-1.8-3.9-2.9-0.4-0.5-2.2-2.9-0.9-0.8-1.2-0.5-0.7 0.2-0.9 0.5-1.1 1.4-3.1 2-15.2 7.2-3 1-3.3-1-1.4-6.5-1.3-3.1-37.2-43-0.5-0.9-0.4-1.3 0.1-0.9 0.2-0.7 0.8-0.9 1.3-1.2 1.1-0.7 0.6-0.2 2.2-0.5 1.1-0.6 0.5-0.4 0.6-1.2 0.2-0.6 1.2-6.5 0.5-1.2 0.8-0.9 1.1-0.7 1-0.4 2.3-0.6 0.4-0.2-0.2-0.5-0.8-1-2.9-1.8-1.9-0.8-1.7-0.4-0.9 0.1-1.5 0.2-1.6 0.2-0.7-0.1-3.8-1.3-7.8-6.3-0.8-0.4-2.6-0.7-0.6-0.3-2.8-1.8-2.4-2-3.4-2.2-7-3.6-3.5-1.2-6.1-1-5.5-5.5-2.5-1.8-2-1-2.6-0.9-1.3-1-1.2-1.5-1.3-2.8-0.7-2.1-0.1-0.5-1.5-3.4-0.2-1.5 0-1.3 1.2-4.4-1.8-2.7-18.5-22.1-3-5.3-0.8-2.1-0.4-1.4 0.2-1 1.1-2.7 0.8-2.9-0.4-0.8-1.2-0.4-3.3-0.7-1.6 0-1.2 0.1-4.1 1.9-0.6 0.2-0.8 0-0.7-0.2-0.6-0.9-0.3-0.8 1-4.3 3.4 0.4 1.2-0.5 1-1.2 0.9-1 0.4-1-1.9-2.4-0.3-0.7 0.4-0.8 5.8-3.8 0.6-0.9 0.3-0.9 0.2-2 0.5-0.5 0.6-0.3 2 0.5 1.5 0 6.5 1.2 1.1 0 0.5-0.2 0.5-0.3 2.3-2.5 1.5-1.3 0.7-0.8 3.2-3.2 1.7-1.8 2.6-5.3 1.4-4.2 0-0.9-0.4-1.8-0.1-1.6 0.3-1 0.6-0.8 0.8-0.8 2.4-1.6 0.6-0.2 0.7-0.1 1.4 0.2 1.5 0 1.2-0.2 0.8-0.3 1.1-0.6 0.6-0.3 1.4-0.2 1.2 0.2 4 2.7 0.6-0.1 1.4-1.4 3.4-4.8 0-2.5 0.5-2.8 0.5-1.2 0.2-0.9 0-0.9-0.2-0.6-0.8-0.8-0.5 0-0.6 0.2-2.1 1.3-1.2 0.5-0.8 0.1-0.6-0.1-0.6-0.2-0.8-1-1.2-2.2-1.3-4.8-0.3-0.6-0.8-0.9-4.6-3.9-0.3-0.9 0-1.3 1.2-9.1 0.3-1.1 0.4-0.7 0.3-0.2 1-0.5 0.7-0.2 1-0.1 1.1 0.3 1 0.7 1.7 1.8 2.5 1.8 0.5 0.3 0.8 0.1 1-0.1 16.6-6.3 1.3-0.8 0.2-0.5-0.8-1.5-0.7-2.1-0.2-1.5-0.3-9 0.1-1 0-3.2-1-1.9-4.1-4.7-0.4-1.2-0.1-1.1 0-9.6-0.4-2-13.3-32.4-0.9-1.3-26-19.5-2.9-3 3.7-1.8 12-4.3 4.5-2.9 0.9-0.8 13.1-13.5 0.3-0.7 0.1-0.7 0.5-5.5 0.1-0.7 0.4-0.8 0.5-0.9 1.7-2.2 0.5-0.7 0.4-1.4 0.2-3.1-0.2-1.5-1.5-3.7-0.3-0.6-1.5-2-0.4-0.4-0.6-1.1-1-2.6-0.3-1.4 0.2-6.3-0.2-1.7-0.1-0.7-0.4-0.8-0.5-0.8-1.4-0.3-56.8-7.3-1.4-0.5-0.6-0.3-0.2-0.7 0-0.7 0.2-0.7 0.3-0.5 2-1.5 0.7-0.9 0.4-0.6 1.2-1.4 0.3-0.5 0.3-1.4 0.2-0.6 0.4-0.5 1.2-1.4 0.2-0.8 0-1-0.2-2.7 0-1.9 0.5-2.3 0.5-0.6 0.7-0.3 0.7 0 1.4 0.2 1.5 0 9.4-1.9 2.9-0.9 0.8-0.4 1.2-0.7 0.6-0.3 0.7-0.2 1.4-0.1 1.1 0.1 1.2 0.4 1.6 1 0.5 0.2 1.3 0.4 2.2 0.3 0.4 0.4 0.7 0.7 0.7 0.7 1 0.6 0.6 0.2 1.4 0.1 1.5 0.1 0.7-0.2 0.5-0.3 1.4-1.3 1.1-0.5 1.3 0.1 1.1 0.6 1.7 1.7 2.1 1.4 0.8 0.9 3.9 5.6 1.1 2.4 1.1 1.4 0.9 1.8 0.4 2.3 0.2 0.6 1.3 1.3 0.7 1 0.9 0.9 0.5 0.3 1.1 0.6 1.4 0.3 0.7 0 5-1 1.9-0.7 1.4-0.3 0.6 0.1 0.6 0.2 1.1 0.7 1.5 1.1 1.2 0.5 1.6 0 2.3-0.7 0.9 0 0.5 0.2 1.5 1 0.5-0.1 0.4-0.4 0.7-1.1 0.6-0.5 0.7-0.4 2.5-1 1.7-1.4 2.6-2.4 0.8-0.5 1.6-0.9 1.4-0.8 0.8-0.8 0.8-1.1 0.7-0.5 0.7-0.1 1.1 0.5 0.9 0.1 1-0.2 3-1.7 1-0.4 0.7-0.1 1.6 0.1 1.5 0.2 1.5 0 3-1 1.1-0.5 0.7-0.5 0.5-0.7 1-1.8 0.5-0.6 0.8-0.6 2.3-1.4 1-0.2 0.8 0.1 1.5 0.9 0.7 0.1 0.9 0 5-2.9 1.9-1.5 2.1-2.2 0.9-1.2 1-0.7 1.1-0.2 0.7 0 0.7 0.1 1.8 0.7 2 0.6 0.6 0.1 0.2-0.4-2.7-43.1-0.6-2-1.3-1.9-7.7-8.9-1.5-2.2-0.6-2.1-1.2-17-0.7-1.9-1.5-1.9-6.9-6.3-1.2-1.4-0.6-0.2-1.2 0.1-0.7 0.3-0.9 0.6-1.8 1.7-1 0.6-1.4 0.2-2.2-0.3-0.7 0-1.4 0.2-0.6 0.3-1.9 1.3-2.3 1.1-0.6 0.2-1.5 0.1-2.2-0.3-0.6 0-0.7 0.2-1 0.6-0.5 0.4-1.1 0.7-0.6 0.2-1.3 0.4-3.6 0.4-1.4 0.4-1.7 0.8-1.4 0.3-1.4-0.1-1.2-0.6-0.8-0.9-8.5-20.2-1.4-2-0.8-0.8-5.3-4.2-3.2-3.6-0.6-1.1-0.5-1.2-1.2-8.7-0.2-0.7-0.3-0.5-0.9-0.8-5.1-2.6-1.4-1.1-0.9-0.9-0.3-0.6-2.1-5.5-3-5.4-1.5-2-0.8-0.8-1.9-1.6-1.7-1-1.8-1.4-0.8-1-1-2.4-1.4-1.6-0.7-0.5-2.3-1-1.4-0.4-12.4-1.1-5.8 0.1-3.7 0.4-0.6 0-0.6-0.2-0.1-0.5 0.4-3.5-1-4.1-5.5-14.5-0.7-1.4-1.1-1.6-7.3-6.5-1-1.6-10.2-28.9-0.7-1.5-0.9-1-1.6-0.3-1.5 0-1.5 0.4 1.5 3.8-0.7 2.8-1.5 2.4-6.9 7.3-1 0.6-0.8 0.1-3.1-0.5-0.4-0.1-1.5 0.1-1.2 0.3-1 0.5-0.8 0.8-3.3-3.5-0.7-5.3 0-5.8-1-5.1-3-5-2.2-2.6-4.2-2.4-0.9-3 0.1-8.7-0.1-0.8-0.6-1.4-1.7-2.9-0.9-3.4-1.3-2.8-2.5-4.2-2.9-2.5-6.9-4.5-5.2-4.5-0.4-0.6-0.8-3.7-0.5-1-1-0.2-2.1 1.8-1.2 0.6-1.3-0.4-1.7-1.7-0.9-0.5-5.1 0.1-1.9-0.6-0.8-2.6 3.5-13.7 0-1.4-0.4-1.5-1.1-2.6-0.2-1.5 0.2-1.2 1.2-2.6 0.3-1.3-0.7-0.9-1.5 0-3.1 0.5-4.3-1.8-0.9-0.6-0.7-0.5-0.8-0.5-0.9-3.1-0.1-148.2 18.4-0.1 4.3-0.6 1.3 0 1.3 0.3 2.3 1.1 1.6 0.2 23.3-0.4 19.7-0.4 1.1 0.2 1.9 1.1 1 0.3 24.2-0.2 7.5 2 9 4.6 5.1 1.1 1.2 1 2 3.3 0.9 0.6 2.5-0.2 1 0.3 0.8 1.1 0.5 1.3 0.7 2.8 0.4 0.6 0.6 0.2 0.8 0 0.7 0.2 6.8 4.3 24.5 15.8 14.4 9.3 10.1 6.5 11.6 7.5 41.3 26.6 2.4 2.4 3.2 5.1 1.9 2.3 1.6 0.9 3.8 1.1 2.9 2.6 1.5 0.2 3.9-1 4-0.3 13.3 1.5 13.5 1.5 7-0.6 6.4-2.8 0.2-0.7-0.1-1.1 0.2-1.1 1.2-0.4 0.7 0.2 2.4 2 1 1.2 0.2 1 0.5 0.8 1.8 0.4 1.6 0.2 0.7-0.1 1.8-0.7 0.2 0.4 0.1 0.7 0.7 0.4 7.3 0.5 0-0.8 0.2-1.8-0.1-0.8 3.4 4.5 2 2 2.3 1.2 21.8 5.9 3.2 0 5.3-1 2.1 0.3 1.9 0.7 2-0.1 7.2-1.5 1.2 0.3 12.9 5.9 4.9 1.1 4.8-0.1 4.9-2.8z" id="KEN889" name="Eastern" data-id="KEN889" data-name="Eastern">
 </path>
 <path d="M264.9 75l0.1 148.2 0.9 3.1 0.8 0.5 0.7 0.5 0.9 0.6 4.3 1.8 3.1-0.5 1.5 0 0.7 0.9-0.3 1.3-1.2 2.6-0.2 1.2 0.2 1.5 1.1 2.6 0.4 1.5 0 1.4-3.5 13.7 0.8 2.6 1.9 0.6 5.1-0.1 0.9 0.5 1.7 1.7 1.3 0.4 1.2-0.6 2.1-1.8 1 0.2 0.5 1 0.8 3.7 0.4 0.6 5.2 4.5 6.9 4.5 2.9 2.5 2.5 4.2 1.3 2.8 0.9 3.4 1.7 2.9 0.6 1.4 0.1 0.8-0.1 8.7 0.9 3 4.2 2.4 2.2 2.6 3 5 1 5.1 0 5.8 0.7 5.3 3.3 3.5 0.8-0.8 1-0.5 1.2-0.3 1.5-0.1 0.4 0.1 3.1 0.5 0.8-0.1 1-0.6 6.9-7.3 1.5-2.4 0.7-2.8-1.5-3.8 1.5-0.4 1.5 0 1.6 0.3 0.9 1 0.7 1.5 10.2 28.9 1 1.6 7.3 6.5 1.1 1.6 0.7 1.4 5.5 14.5 1 4.1-0.4 3.5 0.1 0.5 0.6 0.2 0.6 0 3.7-0.4 5.8-0.1 12.4 1.1 1.4 0.4 2.3 1 0.7 0.5 1.4 1.6 1 2.4 0.8 1 1.8 1.4 1.7 1 1.9 1.6 0.8 0.8 1.5 2 3 5.4 2.1 5.5 0.3 0.6 0.9 0.9 1.4 1.1 5.1 2.6 0.9 0.8 0.3 0.5 0.2 0.7 1.2 8.7 0.5 1.2 0.6 1.1 3.2 3.6 5.3 4.2 0.8 0.8 1.4 2 8.5 20.2 0.8 0.9 1.2 0.6 1.4 0.1 1.4-0.3 1.7-0.8 1.4-0.4 3.6-0.4 1.3-0.4 0.6-0.2 1.1-0.7 0.5-0.4 1-0.6 0.7-0.2 0.6 0 2.2 0.3 1.5-0.1 0.6-0.2 2.3-1.1 1.9-1.3 0.6-0.3 1.4-0.2 0.7 0 2.2 0.3 1.4-0.2 1-0.6 1.8-1.7 0.9-0.6 0.7-0.3 1.2-0.1 0.6 0.2 1.2 1.4 6.9 6.3 1.5 1.9 0.7 1.9 1.2 17 0.6 2.1 1.5 2.2 7.7 8.9 1.3 1.9 0.6 2 2.7 43.1-0.2 0.4-0.6-0.1-2-0.6-1.8-0.7-0.7-0.1-0.7 0-1.1 0.2-1 0.7-0.9 1.2-2.1 2.2-1.9 1.5-5 2.9-0.9 0-0.7-0.1-1.5-0.9-0.8-0.1-1 0.2-2.3 1.4-0.8 0.6-0.5 0.6-1 1.8-0.5 0.7-0.7 0.5-1.1 0.5-3 1-1.5 0-1.5-0.2-1.6-0.1-0.7 0.1-1 0.4-3 1.7-1 0.2-0.9-0.1-1.1-0.5-0.7 0.1-0.7 0.5-0.8 1.1-0.8 0.8-1.4 0.8-1.6 0.9-0.8 0.5-2.6 2.4-1.7 1.4-2.5 1-0.7 0.4-0.6 0.5-0.7 1.1-0.4 0.4-0.5 0.1-1.5-1-0.5-0.2-0.9 0-2.3 0.7-1.6 0-1.2-0.5-1.5-1.1-1.1-0.7-0.6-0.2-0.6-0.1-1.4 0.3-1.9 0.7-5 1-0.7 0-1.4-0.3-1.1-0.6-0.5-0.3-0.9-0.9-0.7-1-1.3-1.3-0.2-0.6-0.4-2.3-0.9-1.8-1.1-1.4-1.1-2.4-3.9-5.6-0.8-0.9-2.1-1.4-1.7-1.7-1.1-0.6-1.3-0.1-1.1 0.5-1.4 1.3-0.5 0.3-0.7 0.2-1.5-0.1-1.4-0.1-0.6-0.2-1-0.6-0.7-0.7-0.7-0.7-0.4-0.4-2.2-0.3-1.3-0.4-0.5-0.2-1.6-1-1.2-0.4-1.1-0.1-1.4 0.1-0.7 0.2-0.6 0.3-1.2 0.7-0.8 0.4-2.9 0.9-9.4 1.9-1.5 0-1.4-0.2-0.7 0-0.7 0.3-0.5 0.6-0.5 2.3 0 1.9 0.2 2.7 0 1-0.2 0.8-1.2 1.4-0.4 0.5-0.2 0.6-0.3 1.4-0.3 0.5-1.2 1.4-0.4 0.6-0.7 0.9-2 1.5-0.3 0.5-0.2 0.7 0 0.7 0.2 0.7 0.6 0.3 1.4 0.5 56.8 7.3 1.4 0.3 0.5 0.8 0.4 0.8 0.1 0.7 0.2 1.7-0.2 6.3 0.3 1.4 1 2.6 0.6 1.1 0.4 0.4 1.5 2 0.3 0.6 1.5 3.7 0.2 1.5-0.2 3.1-0.4 1.4-0.5 0.7-1.7 2.2-0.5 0.9-0.4 0.8-0.1 0.7-0.5 5.5-0.1 0.7-0.3 0.7-13.1 13.5-0.9 0.8-4.5 2.9-12 4.3-3.7 1.8-4.4 7.6-1.6 2.2-3.3 3.1-0.7 1.1-0.4 1 0.1 1.5 0.4 1.3 3 4.8 0.1 1.1-0.4 5-0.4 1.7-0.3 1.2-0.8 0.9-2 2-1.1 1.2-0.4 0.8-1.5 1.9-1 1-0.8 0.3-0.8 0-0.6-0.2-1.6-0.9-0.6 0-0.5 0.3-1.2 1.1-0.8 0.4-0.9-0.1-0.4-0.2-1.5-1-1.4-1.2-5-6.2-0.3-0.6-0.7-1.9 0-0.5 0.3-0.3 1-0.5 0.4-0.4 0.6-1.1 0.3-0.8 0.4-2.6 0-1.5 0.3-0.8-0.6-0.4-5.9-2.1-1.1-0.2-1.5 0.2-9.1 2.2-5.8 0.9-2.3-0.7-5.7-0.4-2.1-0.3-1.7-1.2-3.8-3.4-0.6-1.2-0.3-1.4 0-0.8 0.1-0.7 0.6-1.2 0.7-0.7 0.9-0.8 11.1-6.7 0.4-0.3 0.2-0.9-0.3-0.6-0.6-0.5-0.7-0.1-0.6 0.1-1.8 1.1-0.8 0.4-1.4 0.4-0.7-0.1-0.7-0.3-2.8-3.1-0.9-0.5-1.1-0.5-2.5-0.7-1.1-0.7-0.6-0.7-0.5-2.1-0.3-0.6-0.4-0.5-3-3.1-0.6-0.5-0.9-0.4-0.6 0.1-0.4 0.4-0.4 1.3-0.3 0.6-0.5 0.4-6.6 4-1.1 0.4-2.1 0.3-2.8-0.2-1.4 0.1-0.8 0.4-0.3 0.5-0.3 1.3-0.4 0.5-0.4 0.4-5.1 2-1.2 0.7-1.7 1.6-0.6 1.2-1.7 5.1-0.3 0.6-1.8 3-0.6 2.4-0.3 0.9-0.5 1.6-0.3 3 0.2 6.4-0.2 1.4-1.3 3.6-0.2 0.8-0.1 0.8 0.1 1.6 0.3 1.5 0.4 1.3 6.2 13.7 0.7 0.5 1.1 0.3 0.8 0.1 1.5-0.2 2.7-0.7 1.4 0 0.5 0.2 0.3 0.5 0.6 1.1 0.4 0.3 0.6 0.1 3.8-0.8 0.4 0 0.5 0.2 0.6 1.1 0.5 2 0.1 0.7-0.3 1.7-0.3 1.2-0.1 1.8 0.9 6.1 0.1 3.3 0.4 1.4 0.5 1.3 0.4 2 0.2 0.5 0.6 0.2 2.6-0.5 1.6-0.2 1.5 0 0.6 0.2 0.5 0.3 0.4 0.6 0.5 1.2 1 0.7 1.3 0.5 1.2 0.4 0.5 0.1 0.9 0.3 0.3 0.6 0.8 3.8 0.2 2.4 1.6 7 0 1-0.1 1.2-1.1 3.3-0.2 1.1 1 5.2 4.4 11.9 0.1 1.3-0.2 2.2 0 0.9 0.1 0.6 0.9 2.7 0.3 0.6 1.8 2.3 0 0.8-0.9 3.2-0.2 2.3 0.1 0.7 0.8 3.8 0.1 0.9-0.2 1.4-0.3 0.7-0.6 0.5-1.3 0.3-2.3 0-0.6 0.2-0.4 0.5-4.8 14.1 0.2 1.7 0.7 0.9 14.7 2.2 0.8 0.2 0.6 0.3 1.9 1.4 2.1 1.2 1 0.5 4.2 2.8 1.3 1.3 1 1.8 1.2 1.7 1.1 1 1.3 0.8 3.9 1.7 1.4 0.2 3.4-0.2 1.4 0.2 0.8 0.3 1.3 1 2.1 1.9-1 4.3 0.3 0.8 0.6 0.9 0.7 0.2 0.8 0 0.6-0.2 4.1-1.9 1.2-0.1 1.6 0 3.3 0.7 1.2 0.4 0.4 0.8-0.8 2.9-1.1 2.7-0.2 1 0.4 1.4 0.8 2.1 3 5.3 18.5 22.1 1.8 2.7-1.2 4.4 0 1.3 0.2 1.5 1.5 3.4 0.1 0.5 0.7 2.1 1.3 2.8 1.2 1.5 1.3 1 2.6 0.9 2 1 2.5 1.8 5.5 5.5 6.1 1 3.5 1.2 7 3.6 3.4 2.2 2.4 2 2.8 1.8 0.6 0.3 2.6 0.7 0.8 0.4 7.8 6.3 3.8 1.3 0.7 0.1 1.6-0.2 1.5-0.2 0.9-0.1 1.7 0.4 1.9 0.8 2.9 1.8 0.8 1 0.2 0.5-0.4 0.2-2.3 0.6-1 0.4-1.1 0.7-0.8 0.9-0.5 1.2-1.2 6.5-0.2 0.6-0.6 1.2-0.5 0.4-1.1 0.6-2.2 0.5-0.6 0.2-1.1 0.7-1.3 1.2-0.8 0.9-0.2 0.7-0.1 0.9 0.4 1.3 0.5 0.9 37.2 43 1.3 3.1 1.4 6.5-8.5 29-1.9 18-0.5 1.5-0.8 1.1-2 0.2-1.3-0.1-1-0.1-11.6 1.6-2.3 0.7-2.5-15.3-1.9-3.1-37.4-20.9-27-15.1-26.9-15.1-27-15.1-27-15-27-15.1-27-15.1-53.9-30.2-27-15-27-15.1-27-15.1-33.6-18.7-0.2-1.8-4.7-20.9-0.8-2.2-1.9-3.2-3-2.2-0.6-0.8-1.4-6.1-1.8-2.4-0.7-1.5-0.4-1.2-0.1-1.4-0.3-0.8-2.2-3.8-0.3-1.2 0.1-1.2 0.7-0.9 2.1-1.6 2.3-1.2 2.5-1.7 1.3-0.5 0.7 0.1 1.1 0.5 0.7 0.2 4.6 0.4 0.9-0.1 33.7-9.6 1.4-0.6 0.9-0.6 0.5-1.1 0.7-2.3 1.5-3.8 1.4-1.4 1.7-1.3 1.6-1 1.5-1.1 0.9-1.2 0-1.5-0.4-1.6-2.5-7-0.3-1.5-0.1-1.5 0.8-2 0.3-3.6-1.5-13.6-0.4-1-0.9-1.4-0.2-0.7-0.3-1.8-0.1-0.6 0.5-4.3-0.3-1.3-2-3.1-0.3-0.5-0.4-1.4-0.8-1.8-0.3-1.3 0-1.3 0.2-1.3 0.1-0.3 1.1-1.5 0.4-0.4 1.5-1.2 0.5-0.6 1.1-1.6 0.3-0.8 0.1-0.8 0-0.7 0.3-2.2 0.2-5.6 0.2-1 0.3-0.7 0.4-0.5 1.1-0.7 1.2-0.5 0.6-0.3 1.2-1.4 2.9-5.5 0.8-1.2 0.8-0.5 0.9 0.8 0.9 1.6 0.8 1 1.5 1 1.4 1.2 0.6 0.3 0.6 0.2 0.7 0 0.6-0.2 1.1-0.5 0.6-0.2 0.6 0.1 0.6 0.3 0.9 0.9 0.7 1.8 0.8 1 0.5 0.3 0.7 0.2 1.5 0.2 0.6 0.2 0.5 0.3 0.3 0.6 0.4 1.3 0.3 0.6 0.4 0.5 0.9 0.8 0.5 0.4 1.2 0.4 1.5 0.2 0.8 0 1-0.3 0.6-0.6 0.2-0.7 0.6-4.1 0.1-0.8-0.1-1.1-0.3-0.6-0.7-1-5.7-4.5-0.4-0.6-0.1-0.9 0-1.5-0.4-0.7-0.5-0.5-2.5-1-1-0.7-0.4-0.5-0.6-3.7-0.4-1.3-0.4-0.6-0.7-1-0.5-0.3-1.2-0.4-0.9 0-1.5 0.9-0.6 0.3-0.7 0.1-0.7 0-1.2-0.5-2.1-1.3-1.9-0.7-1.4-0.3-0.7 0-0.8 0-0.6 0.3-0.5 0.3-0.6 1-0.9 1.8-0.4 0.5-1.1 0.6-1.3 0.4-0.7 0.2-0.6-0.1-1.2-0.6-1.4-1.1-0.5-0.2-1.2-0.1-0.5-0.3-1.2-1.3-1.1-0.6-1.5 0-0.7 0.2-0.6 0.2-1.7 1-0.6 0.3-1.4 0.3-0.8 0.1-5.9-0.7-3.3 0-2.4 0.3-1.7 0-1.4-0.3-1.1-0.5-1-0.8-1.7-1.7-0.5-0.3-1.3-0.5-1.6 0.1 2.1-3.1 5.3-5.4 2.4-2.9 0.9-2.8 0.9-1.9 0.6-1 0.5-0.7 1.4-1.3 3.7-2.8 1.3-1.5 0.4-1.3 1.1-4.3 1.1-2.5 0.3-1.2 0-0.9-0.5-1.2-0.6-1.2-0.6-2-0.1-1.5 1.1-8.2 0-0.8-0.1-0.7-1.3-3.9-0.4-2.2-1.7-3.6-0.3-0.5-0.9-0.8-5.2-2.5-1.5-0.9-0.2-0.9 0.3-5.4 0.4-1.7 0.5-1.1 1.6-0.9 1.3-0.4 0.8-0.1 1.4 0.2 1.7 0.9 1.4 0.3 0.7-0.1 0.9-0.5 0.9-0.8 3.2-4.9 0.5-0.5 1-0.5 0.7 0 1.6 0.4 1.4 0.1 0.9-0.3 2.2-1.1 1.3-0.4 1.5 0.1 0.7 0.2 1.1 0.5 0.6 0.3 1.5 0.1 0.7-0.1 0.8-0.3 2.3-1.5 0.9-0.8 0.4-0.9 0.7-2.2 0.5-0.7 0.5-0.5 2.9-1.6 0.5-0.4 1-0.9 0.4-0.7 0.4-0.9 0-0.8-0.1-1.2-0.2-0.8-0.4-0.5-0.8-0.9-0.3-0.8 0.1-3.2-0.2-2-0.3-0.6-2.3-3.1-0.6-1.7-0.2-0.4-0.6-0.7-1.2-0.7-2.5-0.9-1.3-0.3-0.6-0.2-1.2-0.6-1-0.7-1.3-0.3-7.3-0.3-3.9 0.5-1.3 0.4-0.5 0.4-0.9 0.8-2.2 3-0.5 0.4-0.5 0.2-0.7 0-2-0.6-0.7 0-0.7 0.1-3.5 0.8-2.6 0.9-4.7 0.5-1.4-0.3-0.6-0.2-1-0.6-0.6-0.6-0.5-0.9-0.5-1.5-0.1-1.2 0.1-1.2 0.2-1.5-0.2-0.9-0.3-0.6-0.5-0.3-1.5-0.2-1.3-0.4-0.6-0.5-12.9-13.5-2.3-3.5-0.2-2.3-3.6-3.2-1.1-1.3 0.6-1.1 0.2-2.9 0.9-2.3 6.1-1.3 4.3-4.2 2.6-1.6 10.3-1 4-1.8 1.6-5.1-1.3-5-2.2-5.2-0.4-4.4 7.4-6.1 2.7-10.2 2.9-4.3 1.2-0.7 2.7-0.5 1.2-0.6 1.3-1.2 0.9-1.4 4-8.4 0.8-2.8 0.1-24.4 0.5-1.6 2.4-2.9 0.5-1.4-0.7-1.4-2.9-2.7-1.1-1.3-0.9-2.2-0.6-2.6-0.1-2.6 0.2-2.4 1.2-5.6 0-2.5-12.9-30.9-0.8-4.9 1.1-3.1 2.3-1.8 2.5-1.4 1.9-2.2 0.3-2.9-1.1-2.1-3.5-3.6-0.7-2.4-0.7-6.2-1.3-1.7-1.1 0.1-0.8 1.1-1 0.9-1.8-0.1-1.2-1.2-5.3-11-1.9-10.9-2.5-8-0.5-1.1-0.9-1.1-0.7-0.1-3.5-1.7-0.5-0.6-0.5-0.9-0.5-0.2-0.3 0.2-0.5 1-0.9 0.5-1.4 1.1-0.7 0.3-1.8-0.5-1.1-1.2-1.9-3-4-4.4-1.2-2.2-3.7-19-1.5-2.7-2.6-1.8-5.9-1.7-2.6-1.6-1.4-2.9-1.3-15.5-1.6-5-0.9-1.3-1.2-1.3-1-1.4-0.3-1.5 0.4-1.4 1.2-3.1 0.2-1.2-0.5-1.4-1.5-2.7-0.1-1.3 0.7-1.1 1.1-0.5 1.3-0.4 1.2-0.6 2.4-3.7 1.1-5 0.3-10.1-0.8-2.7-1.8-1.2-2.4-0.7-2.4-1.2-4-4.4-2.3-0.9-3.4 1-1.3 1.2-0.6 1.2-0.6 0.6-1.4-0.9-1.9-5.1-2.8-3.6-0.1-0.6-1.3 0.1-2.5 0.7-2.5 0.2-2.1 0.6-1.1 0-1.6-0.6 0.8-0.9 2.5-1.7-1.5-1.9-2-0.7-0.2-0.7 6-3.1 1.3-1.7-0.3-1.7-2.8-1.5-2.4 0-5 1.8-2 0.4-2.9-1.1 0.2-2.2 1.6-2.9 1.3-3.2-0.3-2-1.5-1.5-1.8-1.2-1.5-1.4-1-2 0.1-1.3 0.5-1.2 0.5-1.8 0.4-2.9-0.1-1.5-0.4-1.4-1-1.5-1.4-1.2-1.1-1.4-0.2-1.7 0.2-3.9-1.6-2.9-2.8-2.3-3.6-1.7 25.4-25.3 12.6-12.6 12.8-12.6 18.6-9.7 17.2-8.6 12.2-4.5 60.6-22.9 2.2 4.2 18.7-10.3 2.8 3.3-4.8 9.8 12.5 0 9.5 2.8-6.1 15.6 11.1 20.3 11.3 3.9 0.7-3.9 0.7-5.3 3.5-2.4 4.9 0.3 0.3 7.4 17.6 0.1 0.2 2.1 1.7 3 0.1 2.4-0.3 2.6-0.1 2.1 0.9 1.8 2.2 1.4 4.9 4.3 2.7 1.7 2.8 0.7 0.5 0z" id="KEN890" name="Rift Valley" data-id="KEN890" data-name="Rift Valley">
 </path>
 <path d="M103.2 635.2l-3 0.8-1.8-0.1-2.6-0.6-1 0.1-1 0.2-2.9 1-1 0.1-0.9 0-3-1.5-2.8-0.8-0.8 0-2.1 0.5-3.4 1.4-1.5 0.5-1.1 0.1-0.9-0.2-1.3-0.9-0.6-1-0.1-1 0.6-1.8 0.6-1.1 0.4-1.3 0-3.8 0.3-1.4 0.1-0.7-0.2-0.7-0.2-0.5-0.7-0.6-3.3-2.1-2.3-0.9-1-0.8-0.3-0.8 0.3-2 0.1-0.6-0.3-0.6-6.9-6.9-0.3-0.6-0.4-1.3 0-2.4-0.4-2.3-0.4-1.3-0.5-0.7-2.2-2.3-1.1-0.4-0.9-0.2-0.7 0.2-1.2 0.5-1.1 0.7-0.6 0.2-0.7 0.1-1.5-0.2-6.8-1.3-1 0-1 0-1.4 0.4-0.5 0.3-0.9 0.6-0.6 0.6-0.3 0.5-0.9 2.4-0.4 0.5-0.8 0.9-0.8 0.3-1.1 0.2-2.3-0.2-1.1 0-0.8 0.3-3.8 2.3-2.2 2.4-0.5 0.9-0.5 2-0.5 2.7-0.1 4.1-0.4 1.5-0.5 0.7-2.4 0.9-1.2 0.5-1.5 1.1-1.2 1.1-0.6 0.8-0.3 1.3 0 0.8 0.3 2.2 0 0.7-0.4 1.3-1.9 3.2-0.9 2.1-0.7-3.3-0.1-1.1-0.4-1.4-1.1-0.9-1.1-0.7-0.9-0.9-0.4-1.1-0.3-1.1-0.1-2.5 0.4-1.3 0.9 0 1.1 0.3 1-0.4 0.8-1.6 0.2-2-0.1-3.7 0.3-2.1 1.2-4 0.3-1.6-0.2-0.9-0.8-1.7 5.6-7.5 4.6-3.5 1-1.7 0.4-2.5-1.4-4.6-0.2-2.3 0.6-1.2 2.2-2.5 0.9-1.4 0.3-1 3.2-12.9 2.1-3.8 3.8-2.6 5.1-1.8 4-2.1 3.1-3.2 2-5.4 0.7-4.5 1.1-1.1 8.1-4 2.1-2 1.8-5.1 3.6-4.7 3.3-8 0.7-2.6 0.1-5.7 0.7-2.6 1-2.6 1.3-2.2 2.5-2.6 2.1 0.5 2.1 1.2 2.6-0.5 0.7-1.2 1.1 1.3 3.6 3.2 0.2 2.3 2.3 3.5 12.9 13.5 0.6 0.5 1.3 0.4 1.5 0.2 0.5 0.3 0.3 0.6 0.2 0.9-0.2 1.5-0.1 1.2 0.1 1.2 0.5 1.5 0.5 0.9 0.6 0.6 1 0.6 0.6 0.2 1.4 0.3 4.7-0.5 2.6-0.9 3.5-0.8 0.7-0.1 0.7 0 2 0.6 0.7 0 0.5-0.2 0.5-0.4 2.2-3 0.9-0.8 0.5-0.4 1.3-0.4 3.9-0.5 7.3 0.3 1.3 0.3 1 0.7 1.2 0.6 0.6 0.2 1.3 0.3 2.5 0.9 1.2 0.7 0.6 0.7 0.2 0.4 0.6 1.7 2.3 3.1 0.3 0.6 0.2 2-0.1 3.2 0.3 0.8 0.8 0.9 0.4 0.5 0.2 0.8 0.1 1.2 0 0.8-0.4 0.9-0.4 0.7-1 0.9-0.5 0.4-2.9 1.6-0.5 0.5-0.5 0.7-0.7 2.2-0.4 0.9-0.9 0.8-2.3 1.5-0.8 0.3-0.7 0.1-1.5-0.1-0.6-0.3-1.1-0.5-0.7-0.2-1.5-0.1-1.3 0.4-2.2 1.1-0.9 0.3-1.4-0.1-1.6-0.4-0.7 0-1 0.5-0.5 0.5-3.2 4.9-0.9 0.8-0.9 0.5-0.7 0.1-1.4-0.3-1.7-0.9-1.4-0.2-0.8 0.1-1.3 0.4-1.6 0.9-0.5 1.1-0.4 1.7-0.3 5.4 0.2 0.9 1.5 0.9 5.2 2.5 0.9 0.8 0.3 0.5 1.7 3.6 0.4 2.2 1.3 3.9 0.1 0.7 0 0.8-1.1 8.2 0.1 1.5 0.6 2 0.6 1.2 0.5 1.2 0 0.9-0.3 1.2-1.1 2.5-1.1 4.3-0.4 1.3-1.3 1.5-3.7 2.8-1.4 1.3-0.5 0.7-0.6 1-0.9 1.9-0.9 2.8-2.4 2.9-5.3 5.4-2.1 3.1z" id="KEN891" name="Western" data-id="KEN891" data-name="Western">
 </path>
 <path d="M955.1 845l-67 4.3-0.8 0.1-97.2 43.5-6.9 2.7-0.5-2.4 0-0.7 0.5-1.3-0.6-1.9-1.7-3.8-1.6-6.9-1-1.7 1.3-1.4 0.5-0.4-0.8-1.7-1-6-0.6-0.9-1.3-1.4-0.6-1.2-0.1-1 0.7-1.3 0.2-1.1-0.9-5.5 0.1-2.2 0.3-0.4 0.5-0.5 0.6-0.7 0.3-1-0.2-0.1-0.7-3.3-0.3-8.1-1-1.9-1.7-1.6-1-1.5-5.2-10.9-0.7-1.1-0.4-1.3-0.9-8.1-1.2-4.4-0.8-4.9-0.6-10.6-1.5-4.9-2.8-3.3-0.5-2.6-1.4-2.6-2.2-1.8-2.8-0.3 1-2.2 0.7-1.1 0.9-1-1.8-1.8-4.5-8.9-0.8-3.6-0.7-2.1-1.6-2.6 0-2.6 0-0.8-2-5.7-0.6-1.2 0.4-0.9 0.2-0.8 0.2-1.8-0.8 0-1 0.1-0.4-1.2-0.3-4-1.6-4.2-0.3-1.8 1-1.8-1.1-1.2-0.2-2 0.2-1.9-0.1-0.8-3.9-5.7-0.2-2.3-0.7-1.7-1.1-1.4-1.6-1.1-2-0.8-3.3-0.3-1.4-0.6-0.5-0.8-3.2-3.8-0.7-0.1-0.1-1.9-0.5-1.4-0.9-1-1.5-0.4-0.9-1.9-4.8-18-1.7-3-2.1-1.3-0.4-0.5-1.3-2.3-0.5-0.6-1.1-0.4-1.9 0.2-1.4-0.7-1.4-3.5-0.7-1-1.7-1.3-1.2-2-1.7-1.4-1.9-1.3-1.7-0.7-4.5-1-0.7-0.3-0.3-0.6-0.8-0.7-0.9-0.6-3.8-0.6-1.4-0.9-1.1-1.2-2-1-2.7-0.1-2.5 0.5-2.3 0.3-2.3-1.1-10.8-0.4-6.6-8.2-1.6-1.3-0.5-0.3-1.1-1.2-1-0.3-3.8 0-4 0.7-2 0.7-1.4 0.8-0.9 1.4-0.8 1.6-1 1.2-1.6 0.6-23.6-3.5-1.1-26.1 0.2-0.9 0.9-1.8 0.3-0.8 0.2-0.9-0.3-4.8-6.9-29.2-0.4-0.7-2.4-1.7-0.5-0.4-0.2-0.6 0.1-0.7 0.6-0.9 0.9-0.7 2.2-1.2 1.2-0.4 7.7-1 1.2-0.5 0.9-0.8 1.7-2.7 1.6-3.4 0.7-0.9 1.5-0.8 41.8-15.7 0.5-0.6 0.3-0.5 0.4-1.9 0.3-1.1 1.4-2.7 3.5-5.1 1.7-1.9 2.8-2.2 1.4-1.3 1.6-1.9 4.1-7 0.7-0.9 14.9-5.7 1.4-0.7 1.2-0.8 0-1.1-0.2-0.8-20.8-55.7-0.2-1.4 0.7-0.8 1.3-0.8 19.7-7.9 0-0.6-0.4-0.2-2.3-1.2-1.8-1.6-0.5-0.4-1.3-0.4-1-0.6-2.9-3.3-1.1-2.3-0.7-1-0.9-0.9-0.9-0.8-7.7-4.4-0.9-0.7-1.7-1.7-0.6-0.4-1.7-0.8-3.1-1.1-1.1-0.7-1.8-1.7-0.7-1.1-0.2-0.5-1.3-5.7-1.2-2.4-0.7-1-1.3-1.3-0.7-1.1-1.1-2.3-1.3-2.1-0.4-0.5-1.9-1.7-4-2.8-0.9-0.9-5.2-7.9-3.8-7.4-1.8-5.3-0.6-1.2-1.8-1.6-0.3-0.5-0.7-1.9-0.7-1.1-0.8-0.9-0.2-1.3 0-1.9 0.5-4.1-0.2-3.1-0.2-0.6-0.7-4.5-0.7-2-1.5-7.7-0.4-6.9-1.8-7.8-1.8-3.6-0.6-2-0.4-0.7 0-0.6 0.3-0.5 0-0.8 0.4-0.7 1.5-0.8 6.7-2.1 2.6-3.8 15.6-35 0.9-0.5 0.5-0.6 0.4-2.6-0.1-1.8 0.2-0.8 0.3-1 1-1.1 0.6-0.6 1.8-1 3.4-0.8 1.2-0.5 1-0.7 1.9-2.1 0.9-0.7 1.2-0.5 6.4-2.1 1-0.6 0.9-0.8 1.4-2.1 0.6-0.7 2.8-2 0.4-0.4 0.3-1.2 0.3-2-0.1-16.6-0.9-7.2-1.2-4.3-1.8-23.4 0-1.9 0.8-0.5 1.7 0.1 0.5 1.3-1.1 2.3 15.7 0.5 3.8 1.3 1.1 1.4 0.7 1.7 0.9 1.7 2 1.3 4.1-0.2 2.1-3.3 2.7-8.4 3.3-3.9 8.2-7.5 9.9-9.1 2.4-3.2 2.1-3.8 3.5-9.3 2.5-6.6 2.5-3.1 10.8-5.2 10.8-5.3 12.2-5.9 5.7-2.8 0.5-0.7-0.1-0.8 0.2-0.5 1.2 0.1 0.7 0.3 0.4 0 12.7-4.5 9.9-3.4 0.7-0.6 0.7-2.1 0.8-0.6 16.2-6.3 23.7-9.1 8-5.3 2.7 3.7 7.6 5.2 3.1 3.5 2.1 3.9 1.3 1.3 2.3 1.1 6 2.1 2 1.2 3.3 3 8.1 11.3 5.5 4.4 6.1 2.5 6.6 0.7 12.8-0.7 14.1-0.8 6.4-1.8 3.3-0.2 10.1-2.5 2 0.2 3.3 1.4 1.8 0.3 1.8-0.4 5.3-3.1 6 2 5.5 2.9 5.6 1.1 6.2-3.5-10.5 15.1-10.6 15.2-10.5 15.1-17.1 24.4-19.5 28-10.3 10.2-10.3 10.3-20.7 20.4-4.3 4.3-1.8 3.5 0.2 23 0.2 16.9 0 314.4 0.1 10.3 0.1 8.5 0.1 8.5 0.8 54.6 0.2 17.7 0.1 9.5 3.2 4.2 3.2 4.1 3.2 4.2 3.2 4.1 6.2 8 6.5 8.4 6.9 8.9 5.7 7.4 12.7 16.4 6.3 8.2 11.2 14.4 1.5 2.8 0.5 2.4-0.4 7.8z" id="KEN893" name="North-Eastern" data-id="KEN893" data-name="North-Eastern">
 </path>
 <circle cx="652.6" cy="1184.8" id="0">
 </circle>
 <circle cx="653.2" cy="1192.3" id="1">
 </circle>
 <circle cx="877.9" cy="885.5" id="2">
 </circle>
</svg>