<?xml version="1.0"?>
<!--
************* Copyright (c) 2017 Pareto Softare, LLC DBA Simplemaps.com *******************		
************* Free for Commercial Use, full terms at  http://simplemaps.com/resources/svg-license ************
************* Attribution is appreciated! http://simplemaps.com ***************************
-->
<svg baseprofile="tiny" fill="#7c7c7c" height="493" stroke="#ffffff" stroke-linecap="round" stroke-linejoin="round" stroke-width="2" version="1.2" viewbox="0 0 1000 493" width="1000" xmlns="http://www.w3.org/2000/svg">
 <path d="M491 57.2l-0.3 0.4-0.8 0-1.4-0.3-1.2 1.3-0.7 1.6-0.5 0.7-0.6 0-0.6-0.7-0.5-1-0.1-1.6 0.3-1.1-0.1-1.6-1.4-0.8-3.7-3.1-1-2 1.4-1.6 4.9-1.2 1.7-1.3 1.1-1.5 0.9-2.1 0.6 0.2 0.7 2.2 0.8 1.7 1.5 1.6 1.1 1.5 0.6 1.2-0.3 0.7-1 0.5-0.5 1.1-1 0.8-0.2 1.5 0 1.5 0.3 1.4z" id="KGZ1115" name="Bishkek" data-id="KGZ1115" data-name="Bishkek">
 </path>
 <path d="M723.5 44.7l0.9 3.1-0.4 1.9-0.6 0.2-0.6 0-1.3-0.4-0.5 0-1 0.7-2.3 2.5-0.4 1-0.5 2.2-0.5 0.8-0.7 0.6-2.4 0.8-1.8 0.4-21.4-0.5-1.1 0.2-0.9 1.2-0.5 1.6-1 1.5-1.3 0.4-2.9-0.4-4.2-1.8-0.9-0.2-0.7 0.2-4.8 2.6-1.3 0.3-1 0-2.8-1-2.4 0.1-5.7-1.3-0.9-0.1-0.6 0.3-0.5 0.5-1.7 3.9-1.1 0.6-6.8 1.6-6.3 2.9-2 1.2-1.9 1.5-4.9 6-0.6 0.6-2.2 1.6-0.9 0.4-0.8 0.2-1.3-0.1-1.1-0.3-1.5-0.9-2.1 0-12.6 3.1-1.6 0.1-6.8-0.6-1.3 0.2-0.8 0.5-0.8 2.1-1.5 1.1-2.2 1-1.2 0.8-2.2 1.9-1.2 0.4-1 0.3-1.3 0.1-0.5 0.4-0.2 0.6 0 1.9-0.5 1.6-0.3 0.5-0.8 0.6-3.5 2.3-1.7 0.8-0.3 0.5-1.2 1.4-4.7 3.1-1.3 0.4-0.6-0.1 0.3-2.9-0.1-0.7-0.4-1.1-0.8-0.9-0.5 0.1-1.5 0.7-6.6 1.6-1.3 0.1-0.7-0.2-3.7-1.8-1.3 0.3-1.1 0.8-2.6 0.9-1 0.2-13.8-0.6-3.6-1.2-1.4 0.4-0.4 0.4-1.2 1-2.9 1-2.4-3-0.9-0.4-0.8-0.1-1.2 1.1-1.2 0.5-13.1 2.1-1 0.6 1.7 4.4 4.2 6.8 0.7 1.6 0.1 1.3-0.5 0.4-0.6 0.1-0.7-0.2-2-0.8-0.7 0-7 0.7-1.8 0.9-3.5 4.8-2.1 3.1-1.2 0.1-0.7-1.8-0.5-0.5-2.1-0.1-16 2.5-1-0.3-1.5-0.7-3.6-0.6-2.2 0-1.3 0.5-0.3 1.2-1.6 10.2 0.1 1.3 0.2 1.4 2.3 0.6 0.8 0.4 0.6 0.8 0 0.9-1.1 0.8-0.9 0.8-1.1 1.6-0.8 1.4-0.3 1.2-0.1 1.5 0.4 2-0.1 1-0.4 1-2.3 2.5-0.7 1.1-0.3 0.8-0.1 0.9 0.2 2.1-0.3 0.9-0.6 0.8-1 0.8-1 0.5-0.7 0-1.1-0.5-1.2-1-0.9-0.2-0.6 0.2-2.5 1.8-0.8 0.8-0.4 0.8-0.2 1-0.5 3-0.4 0.7-0.6 0.5-0.8-0.3-0.5-1-0.2-1.5 0.5-2.7-0.1-1.5-0.6-0.7-0.5 0-2.2 0.7-1.5 0.1-1.4-0.6-1.1-1.1-1-1.9-1.3-1.3-0.4-0.6-0.8-2.2-0.9-1.5-3.7 3-1.7 0.7-1.5-0.1-10.8 1.1-1.5-5.1-0.9-1.7-1.3-0.7-0.8-0.2-1.9-0.4-0.8-0.1-1.1 0.3-2.1 1.1-0.5 0.4-1.3 1.6-0.4 0.4-0.8 0.4-1.4 0.2-1-0.1-8.3-3.3-1.2-0.2-1.3 0.1-2.7 0.6-1.3 0-2.9-1.2-1.9-0.3-2.6 0.7-0.6-0.6-0.6-2.4-0.4-1.1-0.9-1.1-0.8-0.7-1.6-1-1.1-0.4-1-0.3-1.5 0-0.6-0.3-1.3-1.4-1.1-0.4-4-0.7-4.7-1.8-1.2-0.3-1 0-0.6 0.2-0.7-0.8-0.6-1.6 0.9-1.8 0.3-0.7-0.2-0.8-0.7-0.5-3.3-1-0.6-0.5-0.3-0.6 0-1.5 0.8-3.7 0.3-0.9 0.6-0.7 1-0.4 3 0.1 1.2-0.2 1-0.9 1-1.3 0.7-0.6 2.6-1.3 2.1-0.6 1.7-0.2 1.7-0.5 1.3-0.2 1.7 0.3 1.1 0.4 1.3 0.3 1.4-0.2 3.5-1.5 1.6-0.4 2.1-0.1 3.4 0.5 0.7 0.3 2.5 1.4 1.5 0 1.9-0.5 5.5-2.4 1.3-0.7 2.6-3.5 0.2-2 0.5-1.1 1.5-2.1 2.4-2.3 0.4-0.7 0.3-1-0.1-1.4-0.2-0.9-1.2-1.7-1.4-0.3-2.6 0.3-0.9 0-1.5-0.5-0.9-0.8-0.5-1.1-0.6-2.1-0.3-0.4-0.4 0-0.7 0.9-0.4 1.1-0.2 1.5 0.4 1.8-0.7 1.4-2.2 2.1-2.6-0.4-6.5-12.6-1.4-3.9-0.7-4.1 0.2-4.7 1.1-4.3 4.8-10.9 2.4-5.3 0.3-1.9-0.3-2.3-1.1-4.1-0.2-2.1 0.3-2.1 0.7-1.8 1.9-3.3 3.4-10 1.1-1.9 1.4-1.2 4.3-2.5 15.5-6.5 1.5-0.4 3.8 0.2 3.4-1.8 3-8.6 2.7-2.1 1.9 0.6 3.2 3.2 1.7 0.5 14.2-1.7 1.5-0.9 0.3-1.7-1-2.2-2.5-3.4 2.7 1.5 4.6 4.2 2.5 1.1 3 0.7 2.6 1.3 4.7 3.9 1.8 1 3.8 0.4 3.3 2.1 3.7 1.1 1.7 0.9 1.2 1.6 2.3 4 1.3 1.5 9.3 7.2 3.1 1.2 10.3 1.8 7.8 3.8 2.6 2.3 2.5 1.3 5.5 1.7 2.6 1.5 2.1 1.7 5.5 3.3 2.4 0.6 6-0.1 20.4 2.7 3.5-0.4 1.8 0.2 5.9 2.5 2.3-0.1 2.6-1.2 2.6-1.8 2.2-2.3 0.9-1.6 3-7.9 1-0.9 1.4-0.4 5.6-0.4 3.5 0.5 7.1 2.1 2 0.1 6-2 2.3-0.1 6.6 1.7 8.2 0 7.8 2.4 1-0.2 1.8-0.8 1.1-0.1 0.9 0.6 1 2 0.9 0.5 1.6-0.5 2.7-2.7 1.7-0.7 2.4 0.3 4.7 2 2.3 0.4 1.9-0.4 3.5-1.6 4 0.1 1.8-0.4 3.4-1.9 0.4-0.4 0.3-1.1 0.7-0.1 1.6 0.3 0.6 0 0.7-0.4 1.9-2.3 1.7-1.3 1.8-0.3 4 0 3.6-1.5 1.8-0.3 1.8 0.8 10.2 1.7 3.1 1.2 1 0.9 2.6 3.7 1.4 1.1 1.4 0.3 1.6 0.1z m-232.5 12.5l-0.3-1.4 0-1.5 0.2-1.5 1-0.8 0.5-1.1 1-0.5 0.3-0.7-0.6-1.2-1.1-1.5-1.5-1.6-0.8-1.7-0.7-2.2-0.6-0.2-0.9 2.1-1.1 1.5-1.7 1.3-4.9 1.2-1.4 1.6 1 2 3.7 3.1 1.4 0.8 0.1 1.6-0.3 1.1 0.1 1.6 0.5 1 0.6 0.7 0.6 0 0.5-0.7 0.7-1.6 1.2-1.3 1.4 0.3 0.8 0 0.3-0.4z" id="KGZ1116" name="Chuy" data-id="KGZ1116" data-name="Chuy">
 </path>
 <path d="M815.7 256.7l-1.9-1.3-1-1.3-0.5-1-0.7-1.9-0.7-1.8-0.6-0.9-0.7-0.6-1.7-0.7-1.5 0-1 0.5-2 1.2-1.3 1.1-4.1 2.3-2.2 0.6-4.3 0.5-6.7 0-11.6-3.1-8.5 0.1-1.2-0.2-0.8-0.4-0.3-0.5-0.3-1.2 0-1.3 0.4-1.4 1.2-2.7 0.1-1.4-0.3-0.7-0.8-0.7-1.4-0.3-3-0.1-1 0.2-3.1 1.5-14.9 4.2-2.9 0.4-0.4-0.4 0-0.5 0.3-0.6 1.3-1.2 0.8-1 0.3-0.7 1-3.9 0.2-1.4 0.3-1.3 1.5-2.2 0.3-1-0.1-0.5-1.2-1.1-3-1.9-4.6-2.1-1.3-1.3-0.1-1.3-0.4-2.4-1.4-3.8 0.3-0.5 1 0.5 0.8 0.1 0.6-0.3 0.7-0.6 1.6-4.2 0.7-3 0.5-5.1-0.7-2.3-0.9 0-1.4 1-1.8 0.7-3 0.8-0.7 0.4-1.8 1.3-1.3 0.6-0.9 0.2-16.3 0.4-5.1-1.3-6.4-0.6-1.1 0-1.1 0.4-2.8 1.3-1.9 0.5-2.1 0.2-4.5-0.6-0.7-0.3-0.6-0.3-0.5-1.1-1-1-1.1-0.5-0.7 0-1.7 0.7-1.5 0.4-0.6-0.2-0.3-0.5 0.5-1.2 1.5-2.2 1-1.9 0.6-2.2 0.2-2.1 0.5-1.5 0.3-0.7 1.4-2.3 0.3-0.6 0.4-2.2 0-1.3-0.6-1-2-1.3-2.4-1.3-1.4-0.4-1-0.3-0.6 0.2-1.5 0.8-1.8 0.4-12.1-0.6-0.4-0.4-0.4-1.3-1.5-1.8 1.4-2.6 0.9-0.8 1.1-0.6 0.7-0.2 2-0.2 5.7 0.4 2.8-0.3 0.8-0.5 0.4-0.6 0.3-2.7 0.8-3 1.8-4-0.3-0.4-1 0-2.1 1.1-1.3 0.1-1.4-0.4-2.9-1.1-7.4-4-1.4-0.3-6.7-0.2-0.7-0.1-2.7-1.1-2-1.3-3.5-1-1.4-0.1-2.2 0.8-1.3 0.1-1-0.4-1.3-0.7-2.2-1.7-1.2-0.7-0.9-0.3-0.5 0.1-2.2 1-6.9 2-1.6 0.1-1.4-0.4-0.5-0.6-0.3-0.6 0.4-1.3 0.8-1 2-1.3 1.8-1.6 0.9-0.9 0.6-1.2 0.5-2.2 0-0.9-0.2-1-0.9-1.5-1.4-1.3-3.3-2.2-0.7-0.8-0.3-0.7 0.2-1.6-0.1-0.9-0.4-0.6-1.5-0.4-0.7-0.3-0.4-0.5-0.1-1.3 0.5-3 0.2-0.7 1.5-4.3 0.1-1.5-0.4-1.2-0.5-1.2-1.1-1.2-1.6-1.1-0.5-1.2 0-1.3-0.3-1.8-0.4-1.4-0.6-0.7-0.8-0.4-2.3-0.6-1.3 0-0.4 0.5-0.6 1.2-0.7 1.1-0.8 0.7-1.6 0.8-6.6 0.4-0.8-0.1-0.8-0.9-1.4-2.9-1.1-1.1-2.6-1.2-0.6-0.4-1.3-0.5-2.3-0.2-0.7-0.9-1.2-4-0.2-1.1 3.5-2.3 0.8-0.6 0.3-0.5 0.5-1.6 0-1.9 0.2-0.6 0.5-0.4 1.3-0.1 1-0.3 1.2-0.4 2.2-1.9 1.2-0.8 2.2-1 1.5-1.1 0.8-2.1 0.8-0.5 1.3-0.2 6.8 0.6 1.6-0.1 12.6-3.1 2.1 0 1.5 0.9 1.1 0.3 1.3 0.1 0.8-0.2 0.9-0.4 2.2-1.6 0.6-0.6 4.9-6 1.9-1.5 2-1.2 6.3-2.9 6.8-1.6 1.1-0.6 1.7-3.9 0.5-0.5 0.6-0.3 0.9 0.1 5.7 1.3 2.4-0.1 2.8 1 1 0 1.3-0.3 4.8-2.6 0.7-0.2 0.9 0.2 4.2 1.8 2.9 0.4 1.3-0.4 1-1.5 0.5-1.6 0.9-1.2 1.1-0.2 21.4 0.5 1.8-0.4 2.4-0.8 0.7-0.6 0.5-0.8 0.5-2.2 0.4-1 2.3-2.5 1-0.7 0.5 0 1.3 0.4 0.6 0 0.6-0.2 0.4-1.9-0.9-3.1 1.6 0 8.9 1.5 2.9-0.9 3.9-1.9 1.4-0.3 1.3 0.1 2.6 0.9 3.6 0 1.7 0.9 1.6 1.3 1.8 1.1 1.5 0 4.7-2.3 1.9-0.4 6 0.2 6.1 1.5 0.5 0.8 0.4 0.8 0.6 0.7 1.1 0.7 2.3-1 1.5-1 0.8-0.4 2.1-0.3 2 0.3 2.1 0.7 5.1 3.1 4 0.7 9.7-0.9 4.2 0.2 4.1-0.6 1.8 0.3 3.7 1.4 1.9 0.1 1.6-0.6 3.2-2.1 1.9-0.7 4-0.3 6 0.6 8.9 3.1 3.7 2.2 3.2 2.7 1.5 0.8 11 1.1 7.2 3 6 0.3 3.5 1.4 3.4 0.2 7.1-3.6 3.5-0.7 2.3 0.6 0.7 1.3-0.5 4.7 0.1 2.9 0.5 2.5 0.9 2.3 1.3 2.3 3.2 3.2 7.2 3.4 2.9 3.1 4.1 9.9 2.4 3.3 4.6 2 8.7 0.5 7.3-1.4 3.9 0.1 20.1 4.4 3.8 2.6 1.2 1.4 3.5 5.2 5.9 5.4 3 3.9 2.4 4.2 2.7 3.7 3.9 2.4 0.6 1.8 0.3 4 0.4 2 1 1.8 1.1 1.5 0.8 1.7 0.1 2.4-2.4 3.8-4.4 1.6-22.8-0.3-4.6 1.2-3.3 1.4-1.5 1.2-1.2 1.8-0.8 2.1-1.1 4.5-0.8 2.2-3.2 3.1-4.1 0.6-4.2-0.1-4.1 1-5.1 3.6-5.9 2.2-7.1 5-1.8 0.7-2.1 0-5.8-1.8-1.9 0.5-1.6 1.1-4.3 4-1.9 1.4-2 0.9-4.2 1-3.5 1.4-10.2 7.4-5.5 1-1.7 0.9-8.1 5.8-12.2 4.8-1.3 0.7-1.2 1.1-0.7 1.3-0.7 3-0.9 1.2-3.2 1.5-6.7 1.4-8.4 6.5-3.6 1.7-1.6 1.1-1.5 1.9-0.3 2.1 1.5 4.7 0.3 2.2-0.9 2-1.7 1.4-3.6 2.2-1.4 1.4-2.3 3.4-1.7 3.4z" id="KGZ1117" name="Ysyk-Köl" data-id="KGZ1117" data-name="Ysyk-Köl">
 </path>
 <path d="M815.7 256.7l-2.4 4.7-1.3 1.9-1.3 1.5-9.2 7.9-1.6 0.6-1.8-0.2-3.6-1.6-11.8-1.7-3.2 0.1-3.1 1-11.9 6.4-1.4 0.5-1.7 0.2-4.6-0.3-7 2-2.5-0.1-2.7-1.4-5.1-2.2-5.1-1-2.9 0.1-5.2 1.7-11.3-0.8-2.7-0.9-4.8-2.5-2.5-0.5-9.7 2.3-3.6 1.5-2.3 2.3-1.3 1.9-3.4 2.5-1.5 1.5-0.9 2.3 0.4 2.3 0.6 2.3 0.3 2.4-0.8 2.4-1.4 1.5-3.6 2-3 2.7-2.4 3.6-1.5 4.3-0.6 12.1-0.3 2-1 1.7-4.8 3.7-2.3 3.7-2.9 8.4-2.1 3.4-2.5 2.4-7.8 5.2-2.9 2.9-1.5 0.5-1.3-1.5-1.4-7.3-0.9-2-2.7-0.8-2.6 2.9-2.7 3.9-3.1 1.9-1.7-0.4-3.4-1.9-1.7-0.6-2.2 0.2-8.1 4-1.2 1.6-1 2.1-1.5 2-1.8 1.2-1.9 0.4-2-0.1-5.8-1.5-2-0.1-1.9 0.2-4.2 1.8-2.1 0.2-1.5-1.7-0.8-2.1-1.4-5.2-0.2-2.3 0.7-2.3 1.2-1.6 0.9-1.6-0.2-2.1-0.9-1.3-2.5-2.4-1-1.5-0.7-2.3-0.5-6.7-1.6-5.1-2.5-2.5-3.3 0-3.8 2.3-19.7 15.9-0.9 0.5-1.1 0.3-1.1 0.4-0.5 0.9-0.3 1.2-0.7 1-1.7 0.4-1.7-0.9-1.7-1.1-1.7-0.7-2.2 0.3-4.4 2.1-2.3 0.3-3.3-0.8-3.3-1.4-7.9-5.4-2-1-1.9 0.2-0.3 0.4-2.4-1-7 0.1-1.6-0.2-1.1-0.3-0.5-0.4-1.4-1.9-6.7-1.1-1.3-0.7-0.7-0.7 0.9-2.7 0.1-0.7 0-1.3-0.8-1.6-1.2-1.2-1-0.6-12.5-4.6-1.9-1.2-3.7-3.1-1.5-1.8-0.7-1-0.7-1.5-0.7-1-6.4-6.2-1.5-0.9-0.9-0.9-0.5-0.6-0.2-2.1-0.2-0.9-0.5-1.3-0.5-0.8-0.6-0.6-2.3-1.5-9.9-8.8-1.6-2.4 8-9.7 1.2-1.9 0.1-1-6.9-5.7-0.2-0.9 0.2-0.8 0.7-1.7 0.6-0.7 0.7-0.4 1.4 0.1 0.9 0 0.8-0.4 1-1.2 1.3-0.9 1.5-0.3 0.7-0.4 2.4-1.6 0.4-0.1 4.6-0.2 7.2-1.6 1.3 0.2 1.6 0.7 1 0.3 1.3-0.3 0.6-0.6-1.1-1.3-2.4-3.5-0.5-0.9-1.2-3 0-1 0.4-0.5 1-0.5 7.2-2.6 2.3-1.4 1.5-0.6 1.3-0.4 5.6-0.9 1.5-0.5 3.2-1.6 2.7-0.9 0.8-0.6 0.7-0.7 3.2-4.4 0.5-1.1 1.1-3.4 1.1-4.6 0.8-2.5 0.3-1.3 0.2-4 0.2-1.2 1.2-2.7 0.3-0.8-0.1-1.2-0.8-0.8-2.6-1.7-1.8 0-0.7 0.2-0.8 0.7-0.3 1.1-1.1 0.9-11.3 4.9-1.5 0.2-1.5-0.6-1.1-0.1-1.8 0.1-0.9 0.4-1.9 1.6-1.9 1-1.2 0.1-0.9-0.3-1.2-0.8-4.9-0.6-4.6 0.2-2.1 0.3-1.4 0.5-0.9 0.6-1.2 0-0.5-0.3-1.4-1.3-1-0.7-1.2-0.5-2.1-0.3-1.5 0.1-2.9 0.9-1 0.1-1.1-0.2-1.9-1-2-1.9-0.4-0.3-1.8-0.5-0.6-0.4-0.9-1.2-0.6-0.7-0.9-0.4-1.1-0.4-1.6 0.3-0.5-0.9-1.3-3.4-0.9-1.5-0.4 0-0.2-0.7 0.5-0.4 2.3-2.1 0.5-0.4 1.2-0.2 3.7 0.5 1.7 0.5 0.8 0.3 0.8 0.6 0.8 0.8 0.5 0.9 0.4 1.1 0.1 0.9 0 1.6-0.2 1.8 0.6 1 1.1 0.8 3 1 1.2 0.1 0.6-0.4 0-0.9-1.1-9.6-0.5-2.6-0.4-1-0.4-0.6-0.6-0.3-2.9-0.7-3.9-0.2-3.2-0.7-0.5-0.5 0-0.6 0.5-6.6-0.1-1.9-0.2-1.8-0.7-1.6-0.8-0.7-2.1-0.7-1-0.5-0.7-0.1-2.4 1.3-0.6 0.1-0.5-0.2-1.7-1.5-3-1.3-0.3 0.2 0.1 1.2-0.4 1.5-0.5 0.7-0.7 0.6-0.8 0.2-0.8-0.1-1-0.5-1.1-0.9-2-2.6-0.7-0.6-1.3-1-0.2-1 0.7-0.4 1.2 0 1.1-0.4 0.5-0.5 0.9-1.8 2.1-3 0.6-1.5 10.8-1.1 1.5 0.1 1.7-0.7 3.7-3 0.9 1.5 0.8 2.2 0.4 0.6 1.3 1.3 1 1.9 1.1 1.1 1.4 0.6 1.5-0.1 2.2-0.7 0.5 0 0.6 0.7 0.1 1.5-0.5 2.7 0.2 1.5 0.5 1 0.8 0.3 0.6-0.5 0.4-0.7 0.5-3 0.2-1 0.4-0.8 0.8-0.8 2.5-1.8 0.6-0.2 0.9 0.2 1.2 1 1.1 0.5 0.7 0 1-0.5 1-0.8 0.6-0.8 0.3-0.9-0.2-2.1 0.1-0.9 0.3-0.8 0.7-1.1 2.3-2.5 0.4-1 0.1-1-0.4-2 0.1-1.5 0.3-1.2 0.8-1.4 1.1-1.6 0.9-0.8 1.1-0.8 0-0.9-0.6-0.8-0.8-0.4-2.3-0.6-0.2-1.4-0.1-1.3 1.6-10.2 0.3-1.2 1.3-0.5 2.2 0 3.6 0.6 1.5 0.7 1 0.3 16-2.5 2.1 0.1 0.5 0.5 0.7 1.8 1.2-0.1 2.1-3.1 3.5-4.8 1.8-0.9 7-0.7 0.7 0 2 0.8 0.7 0.2 0.6-0.1 0.5-0.4-0.1-1.3-0.7-1.6-4.2-6.8-1.7-4.4 1-0.6 13.1-2.1 1.2-0.5 1.2-1.1 0.8 0.1 0.9 0.4 2.4 3 2.9-1 1.2-1 0.4-0.4 1.4-0.4 3.6 1.2 13.8 0.6 1-0.2 2.6-0.9 1.1-0.8 1.3-0.3 3.7 1.8 0.7 0.2 1.3-0.1 6.6-1.6 1.5-0.7 0.5-0.1 0.8 0.9 0.4 1.1 0.1 0.7-0.3 2.9 0.6 0.1 1.3-0.4 4.7-3.1 1.2-1.4 0.3-0.5 1.7-0.8 0.2 1.1 1.2 4 0.7 0.9 2.3 0.2 1.3 0.5 0.6 0.4 2.6 1.2 1.1 1.1 1.4 2.9 0.8 0.9 0.8 0.1 6.6-0.4 1.6-0.8 0.8-0.7 0.7-1.1 0.6-1.2 0.4-0.5 1.3 0 2.3 0.6 0.8 0.4 0.6 0.7 0.4 1.4 0.3 1.8 0 1.3 0.5 1.2 1.6 1.1 1.1 1.2 0.5 1.2 0.4 1.2-0.1 1.5-1.5 4.3-0.2 0.7-0.5 3 0.1 1.3 0.4 0.5 0.7 0.3 1.5 0.4 0.4 0.6 0.1 0.9-0.2 1.6 0.3 0.7 0.7 0.8 3.3 2.2 1.4 1.3 0.9 1.5 0.2 1 0 0.9-0.5 2.2-0.6 1.2-0.9 0.9-1.8 1.6-2 1.3-0.8 1-0.4 1.3 0.3 0.6 0.5 0.6 1.4 0.4 1.6-0.1 6.9-2 2.2-1 0.5-0.1 0.9 0.3 1.2 0.7 2.2 1.7 1.3 0.7 1 0.4 1.3-0.1 2.2-0.8 1.4 0.1 3.5 1 2 1.3 2.7 1.1 0.7 0.1 6.7 0.2 1.4 0.3 7.4 4 2.9 1.1 1.4 0.4 1.3-0.1 2.1-1.1 1 0 0.3 0.4-1.8 4-0.8 3-0.3 2.7-0.4 0.6-0.8 0.5-2.8 0.3-5.7-0.4-2 0.2-0.7 0.2-1.1 0.6-0.9 0.8-1.4 2.6 1.5 1.8 0.4 1.3 0.4 0.4 12.1 0.6 1.8-0.4 1.5-0.8 0.6-0.2 1 0.3 1.4 0.4 2.4 1.3 2 1.3 0.6 1 0 1.3-0.4 2.2-0.3 0.6-1.4 2.3-0.3 0.7-0.5 1.5-0.2 2.1-0.6 2.2-1 1.9-1.5 2.2-0.5 1.2 0.3 0.5 0.6 0.2 1.5-0.4 1.7-0.7 0.7 0 1.1 0.5 1 1 0.5 1.1 0.6 0.3 0.7 0.3 4.5 0.6 2.1-0.2 1.9-0.5 2.8-1.3 1.1-0.4 1.1 0 6.4 0.6 5.1 1.3 16.3-0.4 0.9-0.2 1.3-0.6 1.8-1.3 0.7-0.4 3-0.8 1.8-0.7 1.4-1 0.9 0 0.7 2.3-0.5 5.1-0.7 3-1.6 4.2-0.7 0.6-0.6 0.3-0.8-0.1-1-0.5-0.3 0.5 1.4 3.8 0.4 2.4 0.1 1.3 1.3 1.3 4.6 2.1 3 1.9 1.2 1.1 0.1 0.5-0.3 1-1.5 2.2-0.3 1.3-0.2 1.4-1 3.9-0.3 0.7-0.8 1-1.3 1.2-0.3 0.6 0 0.5 0.4 0.4 2.9-0.4 14.9-4.2 3.1-1.5 1-0.2 3 0.1 1.4 0.3 0.8 0.7 0.3 0.7-0.1 1.4-1.2 2.7-0.4 1.4 0 1.3 0.3 1.2 0.3 0.5 0.8 0.4 1.2 0.2 8.5-0.1 11.6 3.1 6.7 0 4.3-0.5 2.2-0.6 4.1-2.3 1.3-1.1 2-1.2 1-0.5 1.5 0 1.7 0.7 0.7 0.6 0.6 0.9 0.7 1.8 0.7 1.9 0.5 1 1 1.3 1.9 1.3z" id="KGZ1118" name="Naryn" data-id="KGZ1118" data-name="Naryn">
 </path>
 <path d="M253.1 365.6l3.3-0.2 4.4-1.7 8-2.2 1.4 0.2 0.9 0.9 0.7 1.8-0.1 1.2-0.6 2.2 0 1.2 0.2 1 0.6 1.3-0.2 1.1-0.6 0.8-0.9 0.5-0.5 0.5 0.3 0.8 0.8 0.8 3.8 1.6 1.3 1 0.6 1.2 0.1 1.9-0.6 1.3-1.9 1.7-0.4 0.5 0.2 0.6 2.9 1.4 0.9 0.8 0.5 0.9 0.1 1.2-0.3 0.8-0.4 0.8-0.1 0.9 0.3 1.2 0.8 1.8 0.2 1.3-0.3 1.1-0.5 1-0.4 1.1-0.2 1 0.1 0.8 0.3 0.7 1 0.5 2.3 0.5 1.3 0.5 1.5 1 1 0.8 0.9 1.4 1.4 2.9 1.9 3 1.5 0.7 0.9 0 1.6-1.2 0.9-0.4 0.9 0.2 0.6 0.7 0.5 2.5 0.5 1.2 1.2 1.1 2 2.4 2 3.8-1.2 1.5-0.4 1.3-0.4 0.6-1.4 1.1-3.1 1.6-4.5 1.5-4.3 2-2.4 2.1-1.1 0.7-1.3 0.6-2.9 0.8-2 0.9-3.2 0.6-5.7-1-2.8 0.3-1.5 0.4-1.9 0.8-1 0.2-0.9-0.1-1.8-1.2-0.7-0.3-1.3 0.2-1.4-0.1-1.9-0.4-1.2-0.5-2-1.5-1.2-0.9-1.4-0.6-13.3-2.8-1.4-0.5-1.3-0.7-0.7-0.7-0.5-1.6-0.7-0.5-1.3-0.3-1.6 0-1.1 0.4-0.8 0.6-0.9 1.4-1.1 1.1-1.6 1-7 1.7-2.2 2-1.9 3.8-0.3 0.8-0.7 3.3-0.8 2-1.5-1.3-3.1-1.9-1.6 0.2-3.1 1.4-2.6 0.5-0.9 0.3-0.6 0.5-1.3 1.3-0.6 0.6-3.2 1.7-1.2 0.9-2.9 3.4-1 0.7-1.1 0-5.2-1-3.8 0.2-3.8 1-2.9 2-1.9 3.3-1.3 3.8-1.7 3.2-2.9 1.5-2.5-0.7-2.2-1.4-2-0.9-1.7 0.8-1.1 1.3-0.7 0.2-0.8-0.1-1.4 0-1.1 0.4-2.7 1.5-2.5 0.4-2.8-0.5-2.4-1.4-1.3-2.4 0-1.5 0.4-1.5 0.2-1.7-0.5-1.6-0.9-0.8-2.1-0.9-1-0.8-1.8-5.7-1.2-2.5-2.2-1.7-1.6-0.2-3.3 0.6-1.6-0.1-1.1-0.7-2.1-1.8-1.2-0.5-1.6 0.2-2.9 1.1-1.5 0.3-0.9 0.3-1 1.3-0.5 0.4-0.9-0.1-1.9-0.5-1-0.2-1.1 0.5-8.1 5.9-1.6 0.4-1.6-0.6-0.1-1.6 1-4.2-0.1-2-0.4-2.2-0.8-1.2-1.4 1.1-2.6 5.5-0.7 1.1-1.5 0.5-1.5-0.5-3-1.8-1.9-0.5-2 0-1.8 0.6-1.6 1.4-1.4 2-0.7 0.6-2.8-1.2-3.6-0.4-7 1.4-3.6-1.1-3.7-2.1-3.6-1.2-3.7-0.5-7.9 0.5-1.6 0.7-3 2.6-1.5 1-1.7 0.6-1.7 0.2-2 0-3.9 0.6-1.9-0.6-2.2-2.3-0.5-0.3-0.8 0.3-0.6 1.7-0.5 0.9-3.6 1.4-1.3-2.8 0.5-14-0.4-2.2-0.6-2-1.3-1.6-1.6-1.3-1.4-1.6-0.6-2.2 0.3-4.6 1-4.5 4.1-12.7 1.8-3.9 0.4-1.1 0-0.8 0.3-0.2 1.3 0.2 2.7 3 4.3 7.5 8.7-3.1-0.1-1.6-2.1-3.8 0.1-0.8-0.3-1.5-0.3-0.7-0.8-3.8 0.6-3 1.5-2.7 1.8-2.7 0.3-0.8 0.4-2.1 0.4-0.5 0.7 0.3 1 1.8 0.6 0.5 1.4 0.2 1.5-0.2 35.6-12.8 3.2 0.3 12.9 8.5 2 0.6 4.5-0.2 2 0.1 2 1 1.3 1.5 1.2 1.6 1.4 1.6 1.6 0.9 3.2 0.4 3.5 1.5 7.2 1.1 2.2 0.7 2.1 1.5 1 2.1-1.4 2.6-1.4 1-1.5 0.8-1.4 1-1.2 1.6-0.8 2.2-0.3 2.1 0.7 1.6 2 0.7 0.8-1.1 0.7-2.6 0.6-1 1.1-0.6 3.8-0.1 2-0.7 1.8-1.2 1.5-1.6 1.3-2.1 0.7-4.1-0.1-3.7 0.4-3 2.4-2.3 5.8-2 1.3-0.7 3.5-3 0.9-1.1 0.5 0 0.8 0.6 1.6-0.8 0.7-0.6 1.2-0.4 4.8 1.1 2.8-1 3-2.2 1.5-2.9-1.8-2.9 3.2-3.4 5.3-0.9 10.5 1.6 2.9-0.3 1.2-2 0.8-2.7 1.4-2.1 1.3-0.4 0.9 0.7 0.9 1.2 0.9 1.2 1.2 0.5 1.5 0.1 2.9-0.3 1.8 0.2 2.8 2.6 4.1 1.3 0.9 1.4 0.7 1.8 1.6 1.6 2 1.2 2 0.8 4.3 0.8 2.2-0.2 0.8-1.3 0.2-2.1 0.6-2.3 1.6-1.4 1.6 1.3 1.3 2.7 0.6 2.4 0 4.9 0.6 1.8 1.8 0.8 1.2-0.3 4.8-2.9 1.5-1.4 0.9-1.6 1.7-3.8 2.8-2.8 3.3-0.2 3.6 0.9 3.6 0.3 1.5-0.4 1.8 0.6 1.5 0.2 1.2-0.3 0.6-1.3-0.5-0.9-0.6-0.4z m-76.3 26l-0.7-0.5-5-2.1-2.5-1.7-1.5-1.9-1.3-3.3-1.5-2.9-2.1-1.2-2.8 1.5-1.6 3.7-0.5 2.1-0.1 2 0.5 1.9 2.2 4.9 1.1 1.5 1.2 0.6 2.4 0.5 1 0.9 0.4 3.4-3.8 6.1 0.1 3 1.1 0.6 1.3-0.8 1.3-1.2 1-0.7 1.7 0.1 0.4 1 0.3 1.3 1 1 1.4 0.1 4.2-1.2 3.1 0 1.2-0.5 1-1.4 0.2-3.7-4-4.3-0.2-3.1 1.4-1.4 4.2-2.9 0.6-1.9-0.6-1.1-1.2-0.2-2.3 0.6-1.5 1.1-1.1 0.1z m53.2 16.5l0.9-1.5 2-7.5-0.4-1.2-2.2 0.7-3.3 2.5-1.6 0.7-2.3 0.2-1.4 1.7 0.9 1.7 1.9 1.4 1.8 0.9 2.3 0.7 1.4-0.3z m-102.9 6.2l-11-3.7-1.3 0-0.1 1.8 0.6 1.9 1.2 1.8 3.1 2.1 0.9 1.2 2.6 4.4 0.5 0.4 4.7-3.8 2.6-1.3 2.9-0.6 1-0.8 0.1-2.2-0.7-2.1-1.1-0.3-2.8 1.3-3.2-0.1z" id="KGZ1119" name="Batken" data-id="KGZ1119" data-name="Batken">
 </path>
 <path d="M352.6 139.4l0.6 1.6 0.7 0.8 0.6-0.2 1 0 1.2 0.3 4.7 1.8 4 0.7 1.1 0.4 1.3 1.4 0.6 0.3 1.5 0 1 0.3 1.1 0.4 1.6 1 0.8 0.7 0.9 1.1 0.4 1.1 0.6 2.4 0.6 0.6 2.6-0.7 1.9 0.3 2.9 1.2 1.3 0 2.7-0.6 1.3-0.1 1.2 0.2 8.3 3.3 1 0.1 1.4-0.2 0.8-0.4 0.4-0.4 1.3-1.6 0.5-0.4 2.1-1.1 1.1-0.3 0.8 0.1 1.9 0.4 0.8 0.2 1.3 0.7 0.9 1.7 1.5 5.1-0.6 1.5-2.1 3-0.9 1.8-0.5 0.5-1.1 0.4-1.2 0-0.7 0.4 0.2 1 1.3 1 0.7 0.6 2 2.6 1.1 0.9 1 0.5 0.8 0.1 0.8-0.2 0.7-0.6 0.5-0.7 0.4-1.5-0.1-1.2 0.3-0.2 3 1.3 1.7 1.5 0.5 0.2 0.6-0.1 2.4-1.3 0.7 0.1 1 0.5 2.1 0.7 0.8 0.7 0.7 1.6 0.2 1.8 0.1 1.9-0.5 6.6 0 0.6 0.5 0.5 3.2 0.7 3.9 0.2 2.9 0.7 0.6 0.3 0.4 0.6 0.4 1 0.5 2.6 1.1 9.6 0 0.9-0.6 0.4-1.2-0.1-3-1-1.1-0.8-0.6-1 0.2-1.8 0-1.6-0.1-0.9-0.4-1.1-0.5-0.9-0.8-0.8-0.8-0.6-0.8-0.3-1.7-0.5-3.7-0.5-1.2 0.2-0.5 0.4-2.3 2.1-0.5 0.4 0.2 0.7 0.4 0 0.9 1.5 1.3 3.4 0.5 0.9 1.6-0.3 1.1 0.4 0.9 0.4 0.6 0.7 0.9 1.2 0.6 0.4 1.8 0.5 0.4 0.3 2 1.9 1.9 1 1.1 0.2 1-0.1 2.9-0.9 1.5-0.1 2.1 0.3 1.2 0.5 1 0.7 1.4 1.3 0.5 0.3 1.2 0 0.9-0.6 1.4-0.5 2.1-0.3 4.6-0.2 4.9 0.6 1.2 0.8 0.9 0.3 1.2-0.1 1.9-1 1.9-1.6 0.9-0.4 1.8-0.1 1.1 0.1 1.5 0.6 1.5-0.2 11.3-4.9 1.1-0.9 0.3-1.1 0.8-0.7 0.7-0.2 1.8 0 2.6 1.7 0.8 0.8 0.1 1.2-0.3 0.8-1.2 2.7-0.2 1.2-0.2 4-0.3 1.3-0.8 2.5-1.1 4.6-1.1 3.4-0.5 1.1-3.2 4.4-0.7 0.7-0.8 0.6-2.7 0.9-3.2 1.6-1.5 0.5-5.6 0.9-1.3 0.4-1.5 0.6-2.3 1.4-7.2 2.6-1 0.5-0.4 0.5 0 1 1.2 3 0.5 0.9 2.4 3.5 1.1 1.3-0.6 0.6-1.3 0.3-1-0.3-1.6-0.7-1.3-0.2-7.2 1.6-4.6 0.2-0.4 0.1-2.4 1.6-0.7 0.4-1.5 0.3-1.3 0.9-1 1.2-0.8 0.4-0.9 0-1.4-0.1-0.7 0.4-0.6 0.7-0.7 1.7-0.2 0.8 0.2 0.9 6.9 5.7-0.1 1-1.2 1.9-8 9.7-10.4-5.4-0.4-0.6-0.4-0.9-0.2-1.8 0.1-1.6-0.1-1.1-0.4-0.9-1.8-1.4-0.6-0.7-0.2-1.1 0.3-1.7-0.1-0.6-0.4-0.4-1-0.4-1.4 0.2-1.5 1.8-4.8 8-0.6 0.6-3.4 2.3-1.1 1.1-0.8 1-0.3 1-0.1 0.9 0.1 2.5-0.1 1.1-0.9 0.4-1.2-0.3-1.8-1.5-1.1-0.5-1.6-0.2-0.6-0.3-0.3-0.5-0.3-2-0.7-0.8-2.3-0.2-0.5-0.6 0.5-1.2 1.1-1.3 7.7-7.3 0.5-0.8 0-1.2-0.4-0.9-2.2-2.8-0.5 0-2.7 0.5-1 0.6-0.3 1 0.5 1.8 0.1 1-0.3 0.5-0.5 0.3-1.3 0.4-1 0.1-7.7-0.7-3 0.1-1-0.3-0.9 1-1.7 2.8-0.6 0.8-1.1 0.7-0.7 0.7-0.6 1.1-0.8 1.7-0.8 0.3-1.3 0.2-0.5-0.5-0.6-1.1-0.9-1.1-0.4-0.3-1.1 0.3-4.7 3.5-0.8 0.9-0.7 0.9-0.4 1.4 0.1 1 0.2 1.7-0.4 2.1 0 0.6 0.7 2.1 0 1.4-0.3 0.7-0.8 0.9-1.2 1-5.3 2.4-2.5 2.6-1.6 1.4-2-0.5-5.3 0.4-1.9-1.3-1.2-1.8-1.5-1-6.7 3.1-4.2 3-1.1 0.2 0.2-2-0.4-3.6-3.5-0.9-11.6 1.1-3.9-0.5-3.5-1.6-2.8-3.1-3.9-6-1.8-0.7-2.2-0.2-1.6-0.8 0-2.8 0.1-1.3-0.7-0.9-4.8-0.4-2.6-0.8-1.9-1.2-2.6-4.1-1.2-0.8-1.6 1.3-0.5 0.9-1.1 3.2-0.6 0.5-3.4 0.5-7.9 2.4 1.2-2.8 0.6-2.2 0-2.3-0.8-6.3-0.2-3.5-0.4-3.2-1-2.3-2.3-1.4-2.2 0.3-2.2 1.4-1.9 1.8-2.7 1.6-1.6-0.8-1.4-2-2.1-1.8-7.2 1.2-2.4-1.1-0.5-5.1 0.3-5.2-0.6-3.9-1.4-3.6-8.5-12.8-0.7-0.6-0.8-0.3-0.6 0.5 0 2.5-0.7 0.7-0.9-0.4-0.5-2-1-0.4-0.4 0.7-0.3 1.3-0.6 1-0.8-0.3-0.1-1.5 1.6-6.8 0-2.5-0.4-2.3-1.2-1.7-2-0.3-2 0.8-1.1 1.4-1.8 4.6 1 2.1 2.5 3.3 0.3 2.2-0.4 2.4-1.2 4-3.1 6.6-2.5 2.6-3 0.6-4-1.7-4.3-4.1-1.2-0.3-0.6 1.6 0.8 20.8-0.5 4.1-2 1.8-6.2-5.4-2.3 3-0.9 2.3-1.2 0-1.2-1.2-0.9-1.7-1.1-4.5-1-1.5-2.2-0.2-1.8 1.1-0.3 1.6 0.5 2.2 0.2 2.5-0.9 2.4-1.5-1-2.2-3.9-1.5-1.2-3.4-0.4-1.6-1-1.9-1.4-2-1-4.3-0.8-3.9 0.6-1.8-0.2-1.6-1.5-1.3-1.8-1.5-1.5-1.6-1.2-1.7-0.7-2.1 0.2-1.7 0.8-1.5 0.3-1.1-1.7-0.2-2.1 1.4-7.4-0.2-2.5-0.9-2.5-5.1-8.8-1.5-2.1-1.7-1.1-3.1 0.5-11 6.4-3.1 1.2-2.2-0.1-1.4-1.3-2.2-4.2-1.3-1.7-1.5-1.4-3.4-2.1-12.8-1.4-3.3-1.8-1.7-3.9 1.9-3.1 14.7-8.7 5.4-4.3 2.9-1.4 2.7-1.8 2.2-3.2 2.6-5.8 4-4.6 8.9-7.7 2.8-1.7 9-1.1 3.1-1.2 1-2 0.3-7 1.6-4.5 3.7-1 4.5 0.2 3.7-0.9 12.8-9.6 7.5-2.2 3.3-2.3 1.4-4.6-0.3-0.1 2.3-0.7 12 2.7 1.1 0.2 1.3-0.1 3.3-1 1.9-1 0.9-0.3 11.3-0.3 2.5 0.7 15.1 6.8 1.3 0.4 1.8-0.4 2.9 0.6 10.1 4.2 1.7 0.7 1.7 1 2.2 2 5.9 0.2 1.7-0.4 1.7-1 2-2.4 0.9-2.3 0.9-3.8 0.6-1.6 0.8-1.5 1.2-1.2 2.1-0.9 1.6-0.5 6.8-1.1 2.9 0 1.2 0.4 1.3 1.3 0.7 1.3 0.5 1.3 1.1 0.7 1.6 0.4 2.9-0.2 3.1 0.2 3.1 2 1.6 0.5 3.6-1.2 1.5-0.1 2.9 1.8 5 1.9 1.9 1 1.7 1.3 4.3 4.6 1.3 0.6 1.5 0.1 2.8-0.4 1.9-0.7 1.1-1.1 0.2-1.1 0.1-1.4 0.2-1.3 1.5-1.3 2.4-1 8.7-2.2 0.7 0.1 0.7 0.8 2 0.9 2.9-1z" id="KGZ1120" name="Jalal-Abad" data-id="KGZ1120" data-name="Jalal-Abad">
 </path>
 <path d="M388.1 104.8l2.6 0.4 2.2-2.1 0.7-1.4-0.4-1.8 0.2-1.5 0.4-1.1 0.7-0.9 0.4 0 0.3 0.4 0.6 2.1 0.5 1.1 0.9 0.8 1.5 0.5 0.9 0 2.6-0.3 1.4 0.3 1.2 1.7 0.2 0.9 0.1 1.4-0.3 1-0.4 0.7-2.4 2.3-1.5 2.1-0.5 1.1-0.2 2-2.6 3.5-1.3 0.7-5.5 2.4-1.9 0.5-1.5 0-2.5-1.4-0.7-0.3-3.4-0.5-2.1 0.1-1.6 0.4-3.5 1.5-1.4 0.2-1.3-0.3-1.1-0.4-1.7-0.3-1.3 0.2-1.7 0.5-1.7 0.2-2.1 0.6-2.6 1.3-0.7 0.6-1 1.3-1 0.9-1.2 0.2-3-0.1-1 0.4-0.6 0.7-0.3 0.9-0.8 3.7 0 1.5 0.3 0.6 0.6 0.5 3.3 1 0.7 0.5 0.2 0.8-0.3 0.7-0.9 1.8-2.9 1-2-0.9-0.7-0.8-0.7-0.1-8.7 2.2-2.4 1-1.5 1.3-0.2 1.3-0.1 1.4-0.2 1.1-1.1 1.1-1.9 0.7-2.8 0.4-1.5-0.1-1.3-0.6-4.3-4.6-1.7-1.3-1.9-1-5-1.9-2.9-1.8-1.5 0.1-3.6 1.2-1.6-0.5-3.1-2-3.1-0.2-2.9 0.2-1.6-0.4-1.1-0.7-0.5-1.3-0.7-1.3-1.3-1.3-1.2-0.4-2.9 0-6.8 1.1-1.6 0.5-2.1 0.9-1.2 1.2-0.8 1.5-0.6 1.6-0.9 3.8-0.9 2.3-2 2.4-1.7 1-1.7 0.4-5.9-0.2-2.2-2-1.7-1-1.7-0.7-10.1-4.2-2.9-0.6-1.8 0.4-1.3-0.4-15.1-6.8-2.5-0.7-11.3 0.3-0.9 0.3-1.9 1-3.3 1-1.3 0.1-1.1-0.2-12-2.7-2.3 0.7-2.9-1-12.7-9.1-2.9-1.2-2.9 0.4-4 2.9-2 1.9-2.6-0.6-1.9-1-3.6-3.6-0.5-1.9 1.1-1.9 3.3-3.1 2.9-3.6 0.6-1.4-0.2-0.9-0.5-0.8-0.2-1.3 0.6-2.4 1-2.4 1.3-2.1 1.4-1.3 4.3 2.8 1.5 0.2 1.2-0.7 0.9-1.2 0.2-1.5-0.8-1.4-3.2-2.8-0.9-1.2-0.8-4.6 3.3-2.1 7.9-1.2 1.4-1.5 0.5-1.8-0.2-4.9 0.2-2.6 0.8-1.2 3.4-1.2 1.5-1 1.1-1.5 2-3.6 1.5-0.8 2 0.6 2.2 1 1.9 0.4 1.6-0.7 1.4-1.4 1.2-1.7 1-1.9 1.6-1.4 2.2-0.1 4.3 1.5 1.5-0.7 1-0.1 0.9 0.5 3.6 3.1 1.1 0.4 1.6-0.3 9.9-6.4 3-1 6.3-0.3 3.2-1.2 1.5-0.3 1.4 0.7 1.4 0.9 1.5 0.7 5.5 1.4 10.5 5.8 2.9 0.9 1.4-0.2 2.6-1.3 1.4-0.3 11.6 0.5 6 2.4 10.7 7.2 3.1 0.7 6.6-0.1 12.8 3.1 2.8 1.6 2.2 2.4 3.1 5.8 2.3 2.2 3.1 1.4 3 0.9 3.1 0.1 11.6-2 4 0.2 3.4 1.4 1.8 1.4 1.5 0.9 1.6 0.4 6.5 0.5 2.1 0.7 1.3 1.7-0.2 3.7 0.1 2.7 1 1.6 8.3 1.4 5.4 2.2 2.5-0.5 0-2.3z" id="KGZ1121" name="Talas" data-id="KGZ1121" data-name="Talas">
 </path>
 <path d="M436.7 280.8l1.6 2.4 9.9 8.8 2.3 1.5 0.6 0.6 0.5 0.8 0.5 1.3 0.2 0.9 0.2 2.1 0.5 0.6 0.9 0.9 1.5 0.9 6.4 6.2 0.7 1 0.7 1.5 0.7 1 1.5 1.8 3.7 3.1 1.9 1.2 12.5 4.6 1 0.6 1.2 1.2 0.8 1.6 0 1.3-0.1 0.7-0.9 2.7 0.7 0.7 1.3 0.7 6.7 1.1 1.4 1.9 0.5 0.4 1.1 0.3 1.6 0.2 7-0.1 2.4 1-1.1 1.7-0.5 1.6-0.7 2.2-1.1 2.5-0.7 2.4 0.7 1.8 4.2 4 1.1 1.6 0.8 3.9-2.8 0.7-7.7-2-2-0.1-1.7 0.7-4.6 4.8-1.5 1.1-3.6 1.9-3 2.3-8 8.8-9.7 7.9-3.2 1.4-2.8 0.5-2.8-0.5-3.1-1.2-3.1-0.7-3.3 0.4-3.1 1.4-2.9 1.9-2.8 1.3-6 0.8-2.4 2.1-1 1.2-0.7 1.4-0.6 1.6-0.2 1.7-0.5 2.8-1.5 2-1.8 1.8-1.3 2.3-0.7 4.9-0.4 1.4-0.7 1-2.6 2.2-1.1 1.7-0.8 2.1-0.4 2.3 0.1 2.3 0.9 2.3 1.2 0.8 1.5 0.4 1.8 1.1 1.2 2 0.6 2.5 0.4 5.1 2.1 6.3-0.5 1.2-2 1.3-1.5 1.2-1.1 1.7-1.1 2.6-1 4.1-0.9 1.6-1.5 0.9-17.1 2.3-2.5-1.3-8.4-0.9-3.1 0.3-9.9 2.5-2.2 1.5-0.7 1.8-0.2 1.7-0.7 1.2-5.1 1-9.2 3.1-2.9 0.3-3.2-0.9-1.5-0.8-1.2-0.4-1.1 0.3-4.4 2.3-1.4 0.1-1.6-0.5-5.6-1.2-1.9-0.2-3.9 0.9-1.4 0.1-16.7-4.5-1.5 0-1.6 0.4-0.9 0.9-1.8 2.1-1 0.7-1.5 0-2.2-1.5-1.4-0.4-1 0.4-2.8 3-1.5 0.3-1.5-0.1-3-0.8-1.6 0.1-3.4 1.7-1.9 0.3-1.6 0.6-1.1 1.7-2.1 6.4-3.7 8.1-1.1 0.1-0.9-1.4-0.8-1.9-0.3-1.1 0-0.9-0.3-0.7-1.9-1-1.3-1.1-0.8-0.5-3.9-0.6-1.9-0.8-0.8-1.8-0.2-2.5-0.5-3-1-2.5-1.6-1.2-1.6 0.2-3.2 1.8-3.4 0.7-1.5 0.8-8.9 6.3-3.3 1.4-3.3 0.4-1.8-0.5-1.6-1.3-1.3-1.9-0.7-2.3 0.2-2.4 0.9-1.5 1.2-1.2 1-1.8 0.4-2.3-0.2-3.1-0.9-2.7-1.4-1.3-1.8 0.1-9.2 1.9-4.4-0.2-3.7-1.7-1.9-4.1 0.8-1.8 2.3-3.4 0.4-1.8-0.5-1.8-1.4-1.9 0.8-2 0.7-3.3 0.3-0.8 1.9-3.8 2.2-2 7-1.7 1.6-1 1.1-1.1 0.9-1.4 0.8-0.6 1.1-0.4 1.6 0 1.3 0.3 0.7 0.5 0.5 1.6 0.7 0.7 1.3 0.7 1.4 0.5 13.3 2.8 1.4 0.6 1.2 0.9 2 1.5 1.2 0.5 1.9 0.4 1.4 0.1 1.3-0.2 0.7 0.3 1.8 1.2 0.9 0.1 1-0.2 1.9-0.8 1.5-0.4 2.8-0.3 5.7 1 3.2-0.6 2-0.9 2.9-0.8 1.3-0.6 1.1-0.7 2.4-2.1 4.3-2 4.5-1.5 3.1-1.6 1.4-1.1 0.4-0.6 0.4-1.3 1.2-1.5-2-3.8-2-2.4-1.2-1.1-0.5-1.2-0.5-2.5-0.6-0.7-0.9-0.2-0.9 0.4-1.6 1.2-0.9 0-1.5-0.7-1.9-3-1.4-2.9-0.9-1.4-1-0.8-1.5-1-1.3-0.5-2.3-0.5-1-0.5-0.3-0.7-0.1-0.8 0.2-1 0.4-1.1 0.5-1 0.3-1.1-0.2-1.3-0.8-1.8-0.3-1.2 0.1-0.9 0.4-0.8 0.3-0.8-0.1-1.2-0.5-0.9-0.9-0.8-2.9-1.4-0.2-0.6 0.4-0.5 1.9-1.7 0.6-1.3-0.1-1.9-0.6-1.2-1.3-1-3.8-1.6-0.8-0.8-0.3-0.8 0.5-0.5 0.9-0.5 0.6-0.8 0.2-1.1-0.6-1.3-0.2-1 0-1.2 0.6-2.2 0.1-1.2-0.7-1.8-0.9-0.9-1.4-0.2-8 2.2-4.4 1.7-3.3 0.2-0.6-0.5-2.6-1.2-1.7-1.2-0.7-1.8 0.5-1.7 7.8-4 2.4-2.4 1.3-3.3 0.6-2.2 0.8-1.3 6-3.3 1.6-0.4 4.8-0.3 1.6 0.2 0.9 0.7-0.4 1.2-1.3 0.5-1.5 0.1-1.1 0.3-0.4 1.1 1.1 0.4 4.1-0.2 1.4 0.5 5.3 3.2 2.5 0.9 2.1-0.5 1.8-2.5 1-3 0.1-2.8-1-2.4-3.9-2.8-0.8-1.1 0-1.3 0.6-2 0-2.1-1.9-3.3 0.3-2 2.7-1.2 3 2.6 3 3.6 2.6 1.3 3.5 0.4 6.3 4.4 3.6-0.2 1.4-1.1 0.9-1.5 0.4-1.7 0.1-1.7 0.7-2 1.7 0 3.3 1.5 2.6-1.2 1.1-7.9 2.2-3.4 3.1-1.3 6.5-1.7 7.8-4.9 8.5-3.2 4.3-2.4 2.8-3.7-0.5-2.4-0.8-0.2 1.6-1.4 2.5-2.6 5.3-2.4 1.2-1 0.8-0.9 0.3-0.7 0-1.4-0.7-2.1 0-0.6 0.4-2.1-0.2-1.7-0.1-1 0.4-1.4 0.7-0.9 0.8-0.9 4.7-3.5 1.1-0.3 0.4 0.3 0.9 1.1 0.6 1.1 0.5 0.5 1.3-0.2 0.8-0.3 0.8-1.7 0.6-1.1 0.7-0.7 1.1-0.7 0.6-0.8 1.7-2.8 0.9-1 1 0.3 3-0.1 7.7 0.7 1-0.1 1.3-0.4 0.5-0.3 0.3-0.5-0.1-1-0.5-1.8 0.3-1 1-0.6 2.7-0.5 0.5 0 2.2 2.8 0.4 0.9 0 1.2-0.5 0.8-7.7 7.3-1.1 1.3-0.5 1.2 0.5 0.6 2.3 0.2 0.7 0.8 0.3 2 0.3 0.5 0.6 0.3 1.6 0.2 1.1 0.5 1.8 1.5 1.2 0.3 0.9-0.4 0.1-1.1-0.1-2.5 0.1-0.9 0.3-1 0.8-1 1.1-1.1 3.4-2.3 0.6-0.6 4.8-8 1.5-1.8 1.4-0.2 1 0.4 0.4 0.4 0.1 0.6-0.3 1.7 0.2 1.1 0.6 0.7 1.8 1.4 0.4 0.9 0.1 1.1-0.1 1.6 0.2 1.8 0.4 0.9 0.4 0.6 10.4 5.4z" id="KGZ1122" name="Osh" data-id="KGZ1122" data-name="Osh">
 </path>
 <circle cx="242.9" cy="88.6" id="0">
 </circle>
 <circle cx="246.1" cy="89.8" id="1">
 </circle>
 <circle cx="240.4" cy="93.6" id="2">
 </circle>
</svg>