<?xml version="1.0"?>
<!--
************* Copyright (c) 2017 Pareto Softare, LLC DBA Simplemaps.com *******************		
************* Free for Commercial Use, full terms at  http://simplemaps.com/resources/svg-license ************
************* Attribution is appreciated! http://simplemaps.com ***************************
-->
<svg baseprofile="tiny" fill="#7c7c7c" height="831" stroke="#ffffff" stroke-linecap="round" stroke-linejoin="round" stroke-width="2" version="1.2" viewbox="0 0 1000 831" width="1000" xmlns="http://www.w3.org/2000/svg">
 <path d="M212 160.1l-2.4 3-0.5 4.2 0.4 8.5-0.5 6.3 2.7 11.3-0.3 3.6-2.1 4.2-1.9 2.4-1 2.9 0.4 42.7-28.9 1.1-5.7-1.2-5.1-2.4-4.1-2.6-2.3-0.8-9.5 1.2-25 7.7-2.7 0.9-12.5-1.1-16.2-4.2-6-3-3.2-3.2-3 2.9-1.6 2.3-4.1 4.5-1.6 0-7.4-1.4-5.2-7.1-53.5-4.4-5.2-0.1 0.1-2.3-0.1-1.6-0.7-1.7-2-3.3-0.3-2.1 3.5-4.6 7.4-0.8 15.3 1.3 11.4-1 3.7-1.2 8.8-5.2 3.5-1-6.7-4.4-4-4 0.2-4.1 6.1-4.7 18.9-9.3 4.5-3.8 0.7-1.9 0.3-4 0.5-1.9 0.9-1.7 3.3-4.2 1.5-3.4 3.3-10.6 3.5-6.2 4.6-4.6 10.8-8.6 2.8-3.2 0.7-2.5-0.1-2.9 0.6-4.5 1.4-3 3.9-5.7 1.3-3.1 0.5-3.8 0.1-3.5 0.8-3.1 2.9-3 3.2-1.5 7-2 3.2-1.9 2.2-2 2.6 1.2 8.8 6.5 2.2 1 1.9 1.8 1.6 2.7 1.6 4.3 1.2 2.3 1.7 1.4 2 0.5 9.2 1.2 0.4 0.4 0 1.9-1.7 9.7 0.1 1.1 1 0.1 1.9-0.2 2.2 0 2.4 2 7.5 8.4 5.3-6.6 2.7-2.7 4.4-2.9 2.4 11.6 0.2 0.6 1.1 1.1 11.3 9.1 1.4 1.4 2.6 4.4 0.5 6.1z" id="KHM1777" name="Bântéay Méanchey" data-id="KHM1777" data-name="Bântéay Méanchey">
 </path>
 <path d="M206.8 249.2l3.6 4.4 1.4 1.2 1.6 0.9 2.8 0.6 6.2-1.1 6.4 2.6 2.9 0.5 1 0.4 0.9 0.8 2.2 3.1 1.2 1 1.6 1 2.8 1 15.1 2.9 2.7 2.4 5.1 9.8 7.2 11.2 11.2 12.1-14.7 14.9-7.7 6.1-0.8 0.8-0.8 1.1-0.3 1.5 0.4 1.9 1 1.3 0.7 0.7 1.3 0.8 1 1 0.5 1.6-0.5 2-3.2 4.7-1 1.7-0.2 2.3 0 1.2 0.3 1.6-0.1 1.6-0.5 1.6-1.6 1.8-1.3 1-1.2 0.7-3.8 1.6-0.7 0.5-0.9 1.1-0.6 1.7-0.4 2.7 0.5 1.8 0.9 1.2 1.8 0.8 0.6 0.9 0 1.7-3.8 10.5 0.2 1.5 1.1 5 1.2 2.7 1.3 5-0.1 1.5-1.3 3.1-3.9 5.9-0.5 1.4-1.8 3.7-1.2 1.5-1.8 1.5-3.1 1.8-5.5 1.8-6.6 0.7-13-3.3-18.3-2.3-3.8 0.5-15.8 4.4-8.3 3.5-4.3 3-3.3 1.8-2.1 0.4-5.4 0.1-3.6 0.8-1.5 0.7-0.9 0.5-1.1 1.6-2.2 1-1.9 0.2-1.4 0.1-2.4-0.3-2.2-0.9-2.6-2.2-1.5-1.5-1.8 0.5-3.7 4.2-2.1 2.8-1.4 0.9-10.2 4.2-3.5 2-2.8 1-1.9 0.5-1.8 0.3-1.4 0.8-3.4 2.9-1.3 0.6-1.2 0.2-1.6-0.3-1.5-1.1-4.6-1.8-0.3-2.1-2.1-2.5-6.1-3.3-2.6-2.7-0.5-1.5-0.3-3.3-0.7-1.6-1.3-1.3-4.7-2.8-14.4-14.6-5.6-4.1-10.7-3.6-1.1-0.8 4-1.3 27-6.5 14.8-9.2 2.7-5 0.9-8 0-25.2-1.1-11.7-2.2-8.4-3.6-6.3-4.5-4.9-4.5-2.4-4.5-0.4-4 1.4-3.8 2.5-2.5 3.6-1 3.3 0 3.7-0.7 4.1-1.7 2.5-3.2 1.2-2.5 0.4-5.7 0-5 0.6 0-0.2-3.2-1.9-1.9-2.6-3-6.1-8.5-10.1-3.8-6.5-10.1-26.8-0.2-13.7 1.2-11.7-0.8-14.7 0-0.5 5.2 0.1 53.5 4.4 5.2 7.1 7.4 1.4 1.6 0 4.1-4.5 1.6-2.3 3-2.9 3.2 3.2 6 3 16.2 4.2 12.5 1.1 2.7-0.9 25-7.7 9.5-1.2 2.3 0.8 4.1 2.6 5.1 2.4 5.7 1.2 28.9-1.1z" id="KHM1778" name="Batdâmbâng" data-id="KHM1778" data-name="Batdâmbâng">
 </path>
 <path d="M190.2 799.6l1.3 0.1 1.3-1.1 0.5-0.9 0.9 0.8 0 1.5-0.8 1.4-0.9 2.2-1.2 1.6-2-1.3-3.9-6-1.3-3.1 0.7-2.6 2.5-1 2.2-0.3 1.1 0.4 0.3 1.4-1.8 2.6-0.2 1.9 0.3 1.5 1 0.9z m-7.6-32l1.1 0.3 1.2-0.1 1 0.3 0.4 1.4 0.8 0.7 1.7 0.3 1.4 0.9 0.1 2.8-2.5 0.8-2.2 1.1-1.8 1.7-1.2 2.9-1.6-1.3-0.9-2.3-0.4-2-0.4-0.9 0.2-0.5-6-2.3-2.9-2.3-2.2-2.8-0.6-2.8 1.8-2.6 3.8-1.3 3.1 0.9 2.6 2.1 2.2 2.4 0.4 0.6 0.4 1.4 0.5 0.6z m-53.4-129.9l0.3 0.8 2.1-1.8 1.8-0.2 1.5 1.1 2.4 4.9 0.1 2.1-0.2 1.9 0.1 2.5 0.9 2.2 1 1.6 0.3 1.4-1 1.4 1 2.6-0.1 3.6-0.9 3.5-1.2 2.2-2.5 1.3-3 0-1.8-1 0.9-1.7-2.1-2.1-0.6-4 0.1-7-1.4-8.2 0-4.8 1.4-4.1 0.9 1.8z m7.7-2.9l-0.8 1.1-1.9-0.1-0.2-2 0.8-4.5-1.7-3.1-2.5-3.6-1-3.6 2.5-2.9 3.2 1.9 0.8 0.7 0.4 1 0 0.9-0.4 0.7 0.9 1.8 2.1 3.2 0.8 1.6 0 1.4-0.8 1.4-2.2 4.1z m156.1-91.8l-13.2 2-1.2 0.6-0.6 1.2-0.1 1.3 0 1.4 0.3 1.4 0.4 1.4 0.2 1.8-0.2 2.4-1.2 3.7-0.5 2.3-0.2 2.1 0.3 3.6 3.6 13.7 0.2 2-0.1 3.2 0 1.6 0.3 1.2 0.6 1.1 1.2 1.1 1.9 0.7 1.4 0.3 3.8 3.7 13.3 8.6 1.9 1.6 1.4 2.5 1.4 0.9 2.6 0.6 0.9-0.2 1.9-0.6 1.5-0.3 2.2 0.1 3.4 0.8 3.3 1.9 5.2 1.8 3.6 3.5 0 2.3-2.1 3.1-1.1 2.3 0 1.6 0.3 1.6 2.8 5.7 0.7 1.1 2.5 2.6 1.6 2.5 2.6 4.8 0.9 2.6 0.3 2-0.4 1-0.6 0.8-1.5 1.4-0.8 1.5-0.6 2.1-0.8 4.5-0.1 2 0 1.3 1 1.7 1.7 1.7 1.2 1.5 5.9 17.2-6.4 1.5-1.8 1.1-1.2 4.6-0.1 0.4-5.5 9.6-2.7 3.3-0.9 0.5-2 0.7-1.5-0.1-1.5-0.4-1.2-0.6-1.4-0.5-1 0.2-0.9 0.5-1.8 1.9-8.3 10.4-16.2 13.8-3.1 2-1.3 0.5-2.3 0.3-3.9-0.3-1.3 0.7-1.1 1.3-1.4 3.1-0.9 3 0 2.4-0.2 1.6-0.9 1.9-2.8 4.5-1.3 2.8-0.6 1.5-0.9 1.2-4.4 3.9-5.1 3 0-0.9-2.5-0.8-0.6-1.1 1.1-8.4 0.6-1.5 1.6-1.3 2.2-1.2 2.3-1.6 1.7-2.7 0.3-2.2-0.3-7.4-2.9-6.8-5.4-9.6-3.6-9.6 2.8-6.5-3.6-2.8-1.8-0.8-5.5-0.6-2.3-1-1.7-1.4-2.2-6.9-4.1-3.5-5.4-2-5.7-0.7 0.4 0.9 0.9 0.4-2.5 4-1.4 0-0.9-1.3-0.6-0.6-2.4-0.6 0 1.2 1.1 2.3-1.1 2.8-3.8 5.5 3.8-1.7 0.3 1.9-1.4 3.5-4.8 8.8-1.2 3.6-0.5 4.3-2.1 5-0.4 2.3 0.1 1.8 0.9 3 0.2 2.3-1 2.9-2.6 1.9-3 0.6-2.5-0.7-0.8 0.9-0.9 0.6-2.2 1-1.5-4.6-4-2.7-4.7-2-3.9-2.4-7.7 4.7-3.3 3 0.7 2.8-2.6-0.1-2.3 0.4-1.7 0.9-1.2 1.4-3.7-1.8-4.3-0.5-2.3-0.9 2.6-3.4-5.8-4.5-1.4-0.7-1.2-1.6 0.8-3.3 1.6-3 0.8-0.8-0.4-5.9-1.8-9.9-0.5-5.2 0.6-1.8 1.3-2 1.4-2.6 0.6-3.5-0.3-3.3-0.7-2.3-2.9-4.9-0.4-1.5-0.6-3.2-0.8-1.3-1.3-0.3-3.7-0.1-0.9-0.2 0.4-2.1 2.1-1.3 1.6-1.3-1.5-2 0-1.2 1.4-2.2 5.1-4.9 5.3-3.3 2.4 2.6 1.2 0-0.2-3-1.8-4.9-0.4-2.8-2.8 1.1-1.2 0.7-1.2 1-2.4-2.4-0.7-2.1-0.1-2.6-0.7-3.5-1.2-2.9-2.8-4-1.2-2.5 2.1 0.6 0.6 2.2 1.2 0 1.2-2.1 1.9-1.7 2.4-1.1 2.9-0.4 2.6 1.1 2.9 4.6 2.9 0.9-6-11.3-1.7-1.8 0.8-2.1 0.5-0.7-1.3 0-0.5 0.7-0.8 2.1 0.8 1.5-0.4 1.7-1.2 1.4-1.8 0.5-1.9-0.9-2.2-3.5-5-2.5-1.3-4.2-0.2-4.8 0.2-3.8-1.3 1.3 0.6-3.9 0.7-1.5-1.7 0-1-0.6-1.2-2 0.1 6.7-0.3 3-1 2.2-1.3 0-2.1-0.6-2.6 0.6-2.6 1.3-1.8 1.4-3.9-5.4 3.9-2.5 0.9 1.2 2.9 2.7 1.4 0-0.7-1.9-2-2.5-1.2-2.1 0-7.9 2.2-2.1 2.6 0.8 3.2 1.5 3.5-0.2 0-1.5-2.3 0.2-1.9-0.5-1.4-1-0.8-1.3 0-1.3 1.4 0 0-1.3-2 0.8-0.6 0.5-1.4 0-0.2-1.4-1-2.6-1.3 0 0 4-1.3-1.3 0 4-1.2 0 0.3-5.3 1-4.1 2-3 3.1-2.1 1.9-0.9 1.6-0.4 1.7 0.4 1.8 1.4 2.4 1.1 2.6-0.5 2.3-1.6 1.2-2.2-1.2 0-1.7 2.5-2.6-0.2-2.8-1.7-2-1.9-1.3 0-7.8 4-1-1.2-1.3-2.4-1.2-2.8-0.4-2.2-1-1.6-4.4-2.4-6.3-9.8-1.2 0 2.8 6.3 9.2 9.8 2.3 6.3-0.4 3.2-2.3 5.7 0 2.9 2 8.2-0.3 3.4-1.7 4.3-0.4-2.5-1.8-3.4-0.4-2.8-0.7-1.2-3.3-3.2-1.1-1.5 2.8-4.4-0.7-11-2.1-7.6-5.4-8.2-7.9-11.2-8.7-16.8-1.8-9.5-3.1-6.7-1.1-1.4 3 0 41.4 3 7.4 3.1 3.8 2.2 4.7 2 4.8 1.6 3.5 0.6 3.2 0 2.2-0.6 4.9-3 3-1 17.7-4.9 7.5-4.2 3.6-3.4 5.5-6.7 2.4-4 1.7-1.9 1.6-0.6 5 0 5.3-1 4.6-0.1 5.2 1.6 1.4 0.6 1.3 0.9 2.1 2 1.1 0.7 4.6 2.1 0.5 0.4 7.6 7.6 3.1 4.6 1.4 1.5 1.6 1.4 4.1 2.4 3 1.6 5.3 2 3.2 0.8 3.2 1.4 0.6 0.4 5.7 2.6 1.8 1.1 4.1 3.3 7.2 4.5 2 1.6z" id="KHM1779" name="Kaôh Kong" data-id="KHM1779" data-name="Kaôh Kong">
 </path>
 <path d="M354.9 380.7l9.2 11.2 31 27-0.6 7.9 0.1 2-1.5 6.9-0.2 2.6 1 3.4-0.4 1-0.8 1.4-5.2 5-1.1 1.7-1.7 5.1-1.1 2.5-1.3 1.7-1.4 1.2-3.4 2.2-3 0.9-1.6 1.1-3 2.8-1.8 1.1-5.7 1.2-1.6 0.6-0.6 0.7-5.4 7.3-0.8 2.8-1.3 8 3.5 14.6-3.1 3.3-1.1 0.9-1.7 0.6-3.2-0.8-1.6 0-4.1 0.5-1.6 0.6-1.6 1.8-1 1.7-2 5.9-1.1 1.7-3.6 3.7-0.6 1.1 0.2 1 2.2 2.5 0.4 0.5-0.7 0.5-9.9 5.2-2 0.6-2.3 0-1.2-0.4-1-0.8-2.4-3.2-1.1-1-1.3-0.9-2.4-0.8-1.3 0.5-1.4 1.4-2.9 3.7-1.8 1.9-1.7 1-0.8 0.1-1.6 1.2-3.9 4.4-2-1.6-7.2-4.5-4.1-3.3-1.8-1.1-5.7-2.6-0.6-0.4-3.2-1.4-3.2-0.8-5.3-2-3-1.6-4.1-2.4-1.6-1.4-1.4-1.5-3.1-4.6-7.6-7.6-0.5-0.4-4.6-2.1-1.1-0.7-2.1-2-1.3-0.9-1.4-0.6-5.2-1.6-4.6 0.1-5.3 1-5 0-1.6 0.6-1.7 1.9-2.4 4-5.5 6.7-3.6 3.4-7.5 4.2-17.7 4.9-3 1-4.9 3-2.2 0.6-3.2 0-3.5-0.6-4.8-1.6-4.7-2-3.8-2.2-7.4-3.1-41.4-3-3 0-2.6-3.2-9.7-15-1.4-7.7 4.3-31.6 0.9-3.6 2-3.7 4.9-4.3 1.6-2.7-0.3-1.7 4.6 1.8 1.5 1.1 1.6 0.3 1.2-0.2 1.3-0.6 3.4-2.9 1.4-0.8 1.8-0.3 1.9-0.5 2.8-1 3.5-2 10.2-4.2 1.4-0.9 2.1-2.8 3.7-4.2 1.8-0.5 1.5 1.5 2.6 2.2 2.2 0.9 2.4 0.3 1.4-0.1 1.9-0.2 2.2-1 1.1-1.6 0.9-0.5 1.5-0.7 3.6-0.8 5.4-0.1 2.1-0.4 3.3-1.8 4.3-3 8.3-3.5 15.8-4.4 3.8-0.5 18.3 2.3 13 3.3 6.6-0.7 5.5-1.8 3.1-1.8 1.8-1.5 1.2-1.5 1.8-3.7 0.5-1.4 3.9-5.9 1.3-3.1 0.1-1.5-1.3-5-1.2-2.7-1.1-5-0.2-1.5 3.8-10.5 0-1.7-0.6-0.9-1.8-0.8-0.9-1.2-0.5-1.8 0.4-2.7 0.6-1.7 0.9-1.1 0.7-0.5 3.8-1.6 1.2-0.7 1.3-1 1.6-1.8 0.5-1.6 0.1-1.6-0.3-1.6 0-1.2 0.2-2.3 1-1.7 3.2-4.7 0.5-2-0.5-1.6-1-1-1.3-0.8-0.7-0.7-1-1.3-0.4-1.9 0.3-1.5 0.8-1.1 0.8-0.8 7.7-6.1 14.7-14.9 65.5 67.3 6.7 9.4z" id="KHM1780" name="Pouthisat" data-id="KHM1780" data-name="Pouthisat">
 </path>
 <path d="M405.1 68.7l0 3.5-0.7 4-0.1 6.3-0.2 1.6-0.4 1-1.7 1.2-0.6 1.1 0.1 1.1 0.4 0.7 5.7 7.1 3.9 3 1 0.9 0.2 0.5-0.3 0.8-0.8 0.7-3.4 2.6-1 1.1-2 3-1.5 3.4-1 9.1-8.5 24.3-0.4 2.3 0.1 1.4-0.1 2.5-0.6 1.5-0.8 1.6-7 9.8-0.1 1 0.7 0.7 2.3 0.3 1 0.3 0.8 0.7 0.6 1.2 1.4 3.5 0.4 0.7 1.4 0.9 0.7 0.8 0.8 3.9 0.4 1.7 0.7 1.2 0.7 1.1 0.8 1.5 0.5 1.6 1.1 9.7-0.2 2.2-0.6 2-2 4.2-0.8 2.7-0.2 1.9 0.1 1.6 0.4 1.3 1.2 2.6 0.8 1 1.5 1 3.4 0.8 16.6 2.5 16.2 4.3 2.3 0.2 4.6-1.7 0.7-0.4 1.9-1.5 1.4-0.2 0.4 1.2-0.4 1.1-15.8 21.6-2.2 4.1-1.3 3.8-2.7 25.3-1.5 3.7-1 1.4-2.4 2-1.6 0.9-6.7 2.5-1.1 0.6-0.6 0.8-0.5 1.3-0.8 3-1.5 16.9 0.3 5-0.2 1.1-0.6 0.6-1.6 0-1-0.3-1 0-0.5 0.4-0.3 1.2-0.3 3.1-0.3 1.2-6.5 11.3-2.6 10-1.6 4.2-2.1 1.8-3.2 2-5.2 2.4-3 2.1-4.8 2.6-2.4 1.8-7.9 9-1 1.9-1.7 5.9-4.8 3.1-6.7-9.4-65.5-67.3-11.2-12.1-7.2-11.2-5.1-9.8-2.7-2.4-15.1-2.9-2.8-1-1.6-1-1.2-1-2.2-3.1-0.9-0.8-1-0.4-2.9-0.5-6.4-2.6-6.2 1.1-2.8-0.6-1.6-0.9-1.4-1.2-3.6-4.4-0.4-42.7 1-2.9 1.9-2.4 2.1-4.2 0.3-3.6-2.7-11.3 0.5-6.3-0.4-8.5 0.5-4.2 2.4-3 5.2-2.5 3.5-0.9 7.4-0.9 3.8-1 3-1.7 8.1-6.7 3.5-1.7 10.6-3.8 2.6-1.8 23.8-25.2 7.1-4.6 12.9-5.6 29.2-13.1 0.8-2.4 0.7-1.3 0.2-1.2-0.4-1.2-1.5-1.5-2.6-1.7-1.1-1.8-0.7-1.6-0.8-9.2 5.4-2.6 6.8-1.9 1.1 0.5 1 1.2 1.3 1 2.4 0.1 1.4-0.7 4.7-5.2 0.3-1 0.4-0.6 1.6 0.1-0.5 0.7 0.1 1.7 1.1 1.8 2.3 0.8 3.3-0.9 2.5-2 2.9-1.6 4.5 0.4 10.2 4.2 21.4 3.2 2.5 0.8 1.1 0z" id="KHM1781" name="Siemréab" data-id="KHM1781" data-name="Siemréab">
 </path>
 <path d="M327.3 68.7l0.8 9.2 0.7 1.6 1.1 1.8 2.6 1.7 1.5 1.5 0.4 1.2-0.2 1.2-0.7 1.3-0.8 2.4-29.2 13.1-12.9 5.6-7.1 4.6-23.8 25.2-2.6 1.8-10.6 3.8-3.5 1.7-8.1 6.7-3 1.7-3.8 1-7.4 0.9-3.5 0.9-5.2 2.5-0.5-6.1-2.6-4.4-1.4-1.4-11.3-9.1-1.1-1.1-0.2-0.6-2.4-11.6-4.4 2.9-2.7 2.7-5.3 6.6-7.5-8.4-2.4-2-2.2 0-1.9 0.2-1-0.1-0.1-1.1 1.7-9.7 0-1.9-0.4-0.4-9.2-1.2-2-0.5-1.7-1.4-1.2-2.3-1.6-4.3-1.6-2.7-1.9-1.8-2.2-1-8.8-6.5-2.6-1.2 12.9-11.1 6.2-3.4 3.8-1.2 11.4-1.7 14.1-4.4 12.8 0 4-0.5 3.3-1.5 5.2-3.8 2.8-0.8 1.7 1.4 1.4 0.9 2 0.3 1.4-0.6 7.1-4.9 7.3-3.8 3.1-0.5 3.4 1.2 2.5 1.6 2.8 0.6 3.9-2 1.1-1.5 0.3-1.6 0.6-1.4 1.8-1.1 1.9-0.1 1.9 0.5 1.5 1.1 1.2 1.2 0.4 2-0.4 4.6 0.6 1.8 1.4 0.5 6.5 0.5 11 2.8 3.6 0.4 2.5-0.2 1.5-0.4 1.6 0 2.7 0.9 2.1 1.2 1.8 1.5 2.1 1.2 2.8 0.6 3.3-0.4 1-1.2 0.5-1.5 1.8-1.6 10.2-0.6 5.1 4.4 6.5-1.5 1.8-0.9z" id="KHM1782" name="Otdar Mean Chey" data-id="KHM1782" data-name="Otdar Mean Chey">
 </path>
 <path d="M35.4 399.1l-1.8-1.4-1.4-3.1-0.4-4.1 0.2-4.1 0.9-3 2.4-2.1 1.9-6.1 0.2-1.9-0.4-2.4-0.8-1.3-0.9-1.2-1.1-2-1.2-4-0.8-7.4-0.9-4.5-1.2-2.1-0.6-2.2 0.3-2 2.1-2.3 0.3-0.8-0.3-0.7-1.6-1.5-0.3-0.8 0.3-0.8 1-0.7 1.3-0.7 1-0.8 0.6-1 0.1-1 5-0.6 5.7 0 2.5-0.4 3.2-1.2 1.7-2.5 0.7-4.1 0-3.7 1-3.3 2.5-3.6 3.8-2.5 4-1.4 4.5 0.4 4.5 2.4 4.5 4.9 3.6 6.3 2.2 8.4 1.1 11.7 0 25.2-0.9 8-2.7 5-14.8 9.2-27 6.5-4 1.3z" id="KHM1783" name="Krong Pailin" data-id="KHM1783" data-name="Krong Pailin">
 </path>
 <path d="M770.1 532l1.5 4.4 5.6 10.5 1 4.7-0.5 0.5-2.7 4.6-0.3 1.3-0.1 3.6-0.2 1.7-1.3 2.7-1.6 2.6-1 2.6 0.2 3.1 5.1 8.8 1.7 4.5-1.7 2.9-2.5 0-2.3-1.3-4.2-2.9-2.6-0.9-1.9-0.3-2 0.2-10.6 2.8-2.5-0.5-1.7-1.3-2.7-4.3-1.4-1.6-3.7-2-13-4.1-7.8-0.2-9.8-3-8.6-1.5-4.4 4.7-0.2 2.6-0.4 2.6-1.1 2.4-5.3 5.5-1.7 4.1-2.2 2.7-5.4-0.3-9-3.3-3.2 0.6-3.8 3.3 0.2-1 1.9-4.6 0.2-3.1-0.3-1.2-1-0.5-6.8 1.2-2.7-0.5-2.9-1.1-1.6-0.8-4.6-3.5-5.2-5.1-13.7-0.1-23.3-4.1-6.9-0.7-1.3-0.3-2.1-0.9-1.2-0.8-1.5-2.2-2.2-5.2-2.9-4.1-11.1-4.5-3.6-0.7-2 0.3-1.6 0.7-1.9 1.1-3.4 2.8-1.7 1.7-7.3 6.7-15 10.1-15.4-3.1-3.7-1.7-0.2-1-0.2-3.3 0.3-1.5 0.4-0.7 0.5-0.4 2.3-0.3 0.8-0.5 0.3-0.7-0.3-1.1-1.2-1.2-7.1-3.6-5.8-8.2-3.5-0.8-0.8 4.1-0.8 0.7-1.6-0.8-1.2 0.2-0.8 0.7-0.7 1-2.9 7.4-0.8 1-0.7 0.5-1.6-0.2-1 0.3-2.5 1.2-0.8-0.1-1.2-1.2-3.6-0.8-1.6-1.7-0.9 0-0.8 0.8-1 0.2-0.6-0.6-0.2-1.1 0.1-1.4-0.6-3.5-3.9-6.5 6.1-13.7 1.4-2.3 0.8-0.9 1.7-1.1 1.7-0.4 4.6 0.9 0.9-0.2 0.4-0.5-0.2-0.7-0.9-0.8-1.7-0.4-0.5-1.4-0.2-7.8-0.5-1.9-2.8-3.1-1.4-1.3-0.2-1.9 1.7-4 1.3-5.7 3.1-7.5 0.3-0.9-0.3-2.7-2.4-7.9 4.5-3.7 2.5-1.2 1.4-0.1 7 0.4 1 0.2 1.1 0.6 3.8 4.2 5.9 1.8 12.5 1.1 0.5 0.2 2.2 1.8 1.4 0.5 1-0.1 2.7-1 4.9-0.5 4.7 3.7 1.6 0.3 0.7-0.5 0.4-0.8-0.3-2-0.5-1.3-6.3-14.4-0.2-4.1-0.5-1.9-4.4-6.8-0.5-1.6 0-1 0.6-0.4 2.4-1.1 2.8-2.2 1.4-0.5 3 0.4 1.5-0.1 1.5-0.4 1.4-0.1 2.4 0.4 1.6 0.1 5.5-0.2 2 0.7 1.5 1.2 1.2 0.5 3.3 0.3 1.4 0.4 0.7 0.3 0.8 0.9 1 1.7 0.7 0.9 1 0.8 1.8 0.1 1.6-0.8 0.7-0.6 1.4-2.6 6.3-21.5 6.5-0.7 2.4 0.3 2.3 1 3.6 2.3 2.9 1.4 1.5 0.5 1.2 0.2 1.8-0.5 1.1-0.4 0.9-0.6 2.5-2.4 2.8-1.6 1-0.2 35.8-3.9 2.2 7.2 2.7 14.9 0.6 9.8-0.3 1.3-0.6 1.9-1.8 2.5-1 1.1-0.9 0.8-0.8 1.7-0.4 5.8 0.7 0.2 1-0.6 9.4 2.2 3.4 0.1 0.8-0.1 0.9 0.8 1.7 7.8 5.2-1 0.7-0.2 1.4-1.2 0.7-0.2 1.5-0.1 2.6 0.5 5.8 2.3 6.3 1.2 2.6 1.3 5.1 3.5 0.9 1.3 1 3.7 2.5 0.7 1.5-0.1 0.8 0.3 0.9 0.9 1.4 2.3 0.6 1.4 0.3 1.1-0.6 2.1-0.6 1.2-0.9 0.9-0.2 0.5 1.2 1.2 2 0.8 3.3 1.8 0.8 0.2 3.1 0.2 1 0.5 3.3 2.5 2.2 1.3 1.8 0.8 1 1.1 1.2 1.7 3 5.9-0.1 0.8-0.7 1.5-1.5 1.4-0.8 0.9-0.5 1.2-0.2 1.4 0.2 0.7 2.2 0.9 8.9 0 1.1 1.4 0.9 0.9 1.6 0.2 1.4-0.2 5.3-2 2.1-0.1 4.4 1 1.6-0.1 13.1-3.1 1.3 0z" id="KHM1784" name="Kâmpóng Cham" data-id="KHM1784" data-name="Kâmpóng Cham">
 </path>
 <path d="M485.9 480l2.4 7.9 0.3 2.7-0.3 0.9-3.1 7.5-1.3 5.7-1.7 4 0.2 1.9 1.4 1.3 2.8 3.1 0.5 1.9 0.2 7.8 0.5 1.4 1.7 0.4 0.9 0.8 0.2 0.7-0.4 0.5-0.9 0.2-4.6-0.9-1.7 0.4-1.7 1.1-0.8 0.9-1.4 2.3-6.1 13.7-3.1 1.3-2.8 0.7-1 0.9-2.7 5.3-1.3 5.2-4.1 0.8-3.2 1.4-2.2 0.2-1.4-0.2-3.5 0.1-1.7 0.2-8.9 2.7-13.4 6.3-5.5 4.4-1.9 0.7-1.3-1-2.1-0.9-6.6-2.1-0.6-0.3-5.3-3.8-2.3-1.2-6.8-0.6-2.2-0.7-1.4-2-7.9-7.5-0.6-0.9-0.2-0.6-0.4-3.8-0.3-1.3-6.9-9.8-1.3-3.1-1-4.1-0.5-3.7-1.7-2.8-1.2-1.1-4.8-3.3-1.4-1.3-0.9-1-0.3-2.2 0-4.8-0.4-2.3-1.7-5.4-3.5-14.6 1.3-8 0.8-2.8 5.4-7.3 0.6-0.7 1.6-0.6 5.7-1.2 1.8-1.1 3-2.8 1.6-1.1 3-0.9 3.4-2.2 1.4-1.2 1.3-1.7 1.1-2.5 1.7-5.1 1.1-1.7 5.2-5 0.8-1.4 0.4-1-1-3.4 0.2-2.6 1.5-6.9-0.1-2 0.6-7.9 5.5 4.2 2.1 0.7 3.2 0.6 7.8 0.7 3.1-4.1 0.8-1.5 0.5-1.4 1.4-1.3 3.9-2.2 3-1.3 2.6-1.7 3.3-1.4 4-0.8 1.1-0.1 7 2 19.6 8.9 11.2 2.4-1.2 6.2-0.1 1.7 0.9 2.2 1.3 2.4 1.1 2.8 4.5 7.9 0.5 1.2 0 1.4-0.7 4.2 1-0.1 4.8-2.7 1.9-0.1 1.2 0.6 0.2 0.6 0.5 2.1-0.1 1.6-1 2.5-0.8 1.6-1.2 1.8-5.3 5.7-3.4 1.3 0.9 3.7 0.4 1.2 2.3 4.5 3 3.1z" id="KHM1785" name="Kâmpóng Chhnang" data-id="KHM1785" data-name="Kâmpóng Chhnang">
 </path>
 <path d="M536.3 574.1l0.5 2.5 0 1.6-0.3 1.2-0.7 1.4-3.9 5.9-0.2 1 0.2 1.6 0.4 1.7 0.8 2.2-0.8 2.9-4 7.2 0.5 1.9 0.5 1.2 3.7 6.8 0.9 1.2 1.4 1.2 9.4 5.1 13.7 11.5 2.7 1.6 1.6 2 0 4.4-4.3 2.4-1.6 1.4 1 8.2 3.9 15.6 0.2 5.2-1.6 4.4-6.1 6.7-2.5 4-2.7 9.7-4.3 10.4-1 5.3 0.1 5.4 2.8 19.8-18.4-3.5-2.7-0.9-2.1-2.9-0.5-2.5-1.1-0.8-4.1 2.1-2.5 1.8-0.8 0.7-0.8-1.4-0.6-1.2-1.7-6.2-0.5-1.3-1.4-1.7-0.3-0.9-0.2-4 1.4-6.1-0.7-9.2 0.2-4.5 2.4-9.3 0-1.7-1.3-3-3.7-2.6-3.7-2.8-2.1-2.2-3.9-5.8-1.1-0.7-1-0.8-0.6-1-0.3-2.9 0.4-8.8-0.7-1.1-1.5-0.8-6.7-1.5-1.1-0.4-1.1-0.7-2.2-0.2-5.7 1.6-5.8 0.4-2.5 0.5-1.9 0.9-1.8-0.5-4.9-3.3 8.1-10.7-0.6-0.8-2.1-0.2-15 0.4-5.1-1.8-2.9-4.2 2.9-24.1 0.7-8 5.7-13.6 1.4-7.9 1.3-2.2 1.8-2 1.8-1.6 1.8-0.8 1.1-0.6 1-0.7 0.8-1 0.5-2.4-0.1-7.7 1.3-5.2 2.7-5.3 1-0.9 2.8-0.7 3.1-1.3 3.9 6.5 0.6 3.5-0.1 1.4 0.2 1.1 0.6 0.6 1-0.2 0.8-0.8 0.9 0 1.6 1.7 3.6 0.8 1.2 1.2 0.8 0.1 2.5-1.2 1-0.3 1.6 0.2 0.7-0.5 0.8-1 2.9-7.4 0.7-1 0.8-0.7 1.2-0.2 1.6 0.8 0.8-0.7 0.8-4.1 3.5 0.8 5.8 8.2 7.1 3.6 1.2 1.2 0.3 1.1-0.3 0.7-0.8 0.5-2.3 0.3-0.5 0.4-0.4 0.7-0.3 1.5 0.2 3.3 0.2 1 3.7 1.7 15.4 3.1z m-40.9 52.7l2.4-1.9 2.4-2.3 0.4-2.3 0.5-8.4-3.7-1.5-0.8-1.2-0.5-5.6-1.3-5.8-1.8-5.5-0.1-3.9-0.6-0.7-0.9-0.3-8.4-0.6-2.2 0.6 0.1 1.5 0.8 1.8 0.9 2.7-10.2 0.2-5 9.2-0.9 3.9 0 5 0.2 1.6 0.4 1.2 1.2 1.8 0.7 1.4-0.2 1.8-2.9 10.1 5.1 4.7 1.4 0 2 0 3.9-1.2 1.1-0.6 0.8-0.6 2.1-2.7 1.6-1.2 1.3-0.2 1.1 0.3 3.8 3.3 2.7 0.6 1-0.7 1.6-4.5z" id="KHM1786" name="Kândal" data-id="KHM1786" data-name="Kândal">
 </path>
 <path d="M462.1 559.6l0.1 7.7-0.5 2.4-0.8 1-1 0.7-1.1 0.6-1.8 0.8-1.8 1.6-1.8 2-1.3 2.2-1.4 7.9-5.7 13.6-0.7 8-2.9 24.1 2.9 4.2 5.1 1.8 15-0.4 2.1 0.2 0.6 0.8-8.1 10.7-5.8 5.4-1.6 1.7-0.5 2-2.6 16.4-1.1 5.6-1.8 8.7 0.1 9.3-6.4 0.6-2.1 0.5-1.1 0.7-1.9 0.6-9.7 0.1-1.1-0.4-4.2-2.4-1.9-0.5-2.1-0.3-5.4-0.1-2.4-0.5-6.2-2.4-5-2-13.7 0.5-14.4 1.9-14.9-3.2-2.4-1.1-1.7-1-3.1-2.7-5.9-17.2-1.2-1.5-1.7-1.7-1-1.7 0-1.3 0.1-2 0.8-4.5 0.6-2.1 0.8-1.5 1.5-1.4 0.6-0.8 0.4-1-0.3-2-0.9-2.6-2.6-4.8-1.6-2.5-2.5-2.6-0.7-1.1-2.8-5.7-0.3-1.6 0-1.6 1.1-2.3 2.1-3.1 0-2.3-3.6-3.5-5.2-1.8-3.3-1.9-3.4-0.8-2.2-0.1-1.5 0.3-1.9 0.6-0.9 0.2-2.6-0.6-1.4-0.9-1.4-2.5-1.9-1.6-13.3-8.6-3.8-3.7-1.4-0.3-1.9-0.7-1.2-1.1-0.6-1.1-0.3-1.2 0-1.6 0.1-3.2-0.2-2-3.6-13.7-0.3-3.6 0.2-2.1 0.5-2.3 1.2-3.7 0.2-2.4-0.2-1.8-0.4-1.4-0.3-1.4 0-1.4 0.1-1.3 0.6-1.2 1.2-0.6 13.2-2 3.9-4.4 1.6-1.2 0.8-0.1 1.7-1 1.8-1.9 2.9-3.7 1.4-1.4 1.3-0.5 2.4 0.8 1.3 0.9 1.1 1 2.4 3.2 1 0.8 1.2 0.4 2.3 0 2-0.6 9.9-5.2 0.7-0.5-0.4-0.5-2.2-2.5-0.2-1 0.6-1.1 3.6-3.7 1.1-1.7 2-5.9 1-1.7 1.6-1.8 1.6-0.6 4.1-0.5 1.6 0 3.2 0.8 1.7-0.6 1.1-0.9 3.1-3.3 1.7 5.4 0.4 2.3 0 4.8 0.3 2.2 0.9 1 1.4 1.3 4.8 3.3 1.2 1.1 1.7 2.8 0.5 3.7 1 4.1 1.3 3.1 6.9 9.8 0.3 1.3 0.4 3.8 0.2 0.6 0.6 0.9 7.9 7.5 1.4 2 2.2 0.7 6.8 0.6 2.3 1.2 5.3 3.8 0.6 0.3 6.6 2.1 2.1 0.9 1.3 1 1.9-0.7 5.5-4.4 13.4-6.3 8.9-2.7 1.7-0.2 3.5-0.1 1.4 0.2 2.2-0.2 3.2-1.4 4.1-0.8z" id="KHM1787" name="Kâmpóng Spœ" data-id="KHM1787" data-name="Kâmpóng Spœ">
 </path>
 <path d="M616 279.9l6.1 25.4 0.5 0.5 2.6 2.5 1.6 2.2 1.5 2.5 0.6 1.4 0.2 1.2-0.3 1.5-1.3 3.3-0.2 1 0.1 1.5 2 13.3 0.4 1.2 1.5 1.1 1.4 1.4 1 1.4 0.4 1.1 0 1.5-0.6 1.3-1.3 1.6-0.7 1.9 0.4 1.5 2.2 2.1 1.3 2.1 1.2 2.5 0.4 1.4 0.1 1.2-0.1 0.8-0.8 2-0.3 0.5-0.5 2.1 0.4 6.4-0.4 3.7 2.2 8 0.4 4.3 5.8 17.2 5 22.9-35.8 3.9-1 0.2-2.8 1.6-2.5 2.4-0.9 0.6-1.1 0.4-1.8 0.5-1.2-0.2-1.5-0.5-2.9-1.4-3.6-2.3-2.3-1-2.4-0.3-6.5 0.7-6.3 21.5-1.4 2.6-0.7 0.6-1.6 0.8-1.8-0.1-1-0.8-0.7-0.9-1-1.7-0.8-0.9-0.7-0.3-1.4-0.4-3.3-0.3-1.2-0.5-1.5-1.2-2-0.7-5.5 0.2-1.6-0.1-2.4-0.4-1.4 0.1-1.5 0.4-1.5 0.1-3-0.4-1.4 0.5-2.8 2.2-2.4 1.1-0.6 0.4 0 1 0.5 1.6 4.4 6.8 0.5 1.9 0.2 4.1 6.3 14.4 0.5 1.3 0.3 2-0.4 0.8-0.7 0.5-1.6-0.3-4.7-3.7-4.9 0.5-2.7 1-1 0.1-1.4-0.5-2.2-1.8-0.5-0.2-12.5-1.1-5.9-1.8-3.8-4.2-1.1-0.6-1-0.2-7-0.4-1.4 0.1-2.5 1.2-4.5 3.7-3-3.1-2.3-4.5-0.4-1.2-0.9-3.7 3.4-1.3 5.3-5.7 1.2-1.8 0.8-1.6 1-2.5 0.1-1.6-0.5-2.1-0.2-0.6-1.2-0.6-1.9 0.1-4.8 2.7-1 0.1 0.7-4.2 0-1.4-0.5-1.2-4.5-7.9-1.1-2.8-1.3-2.4-0.9-2.2 0.1-1.7 1.2-6.2-11.2-2.4-19.6-8.9-7-2-1.1 0.1-4 0.8-3.3 1.4-2.6 1.7-3 1.3-3.9 2.2-1.4 1.3-0.5 1.4-0.8 1.5-3.1 4.1-7.8-0.7-3.2-0.6-2.1-0.7-5.5-4.2-31-27-9.2-11.2 4.8-3.1 1.7-5.9 1-1.9 7.9-9 2.4-1.8 4.8-2.6 3-2.1 5.2-2.4 3.2-2 2.1-1.8 1.6-4.2 2.6-10 6.5-11.3 0.3-1.2 0.3-3.1 0.3-1.2 0.5-0.4 1 0 1 0.3 1.6 0 0.6-0.6 0.2-1.1-0.3-5 1.5-16.9 0.8-3 0.5-1.3 0.6-0.8 1.1-0.6 6.7-2.5 1.6-0.9 2.4-2 1-1.4 1.5-3.7 18.1-10 6.5-2.6 6.3-1.9 11.6 0.3 18.1 3.6 1.8 0.6 1.2 0.9 0.2 1.5-0.5 1.5-1.9 3.9-1.1 3.7-0.9 8.8 0.6 7.6 0.7 3.9 1.7 3.9 1.8 2.4 2.2 1.9 4.3 1.5 11.1 1.1 18.4-9.2 13.1-11.4 1.4-1.6 2.5-3.9 0.8-0.9 37.2-26.3 4.4-1.6 25.5-13.6 0.4 14.8-0.4 4.6 1 6.5 5 12.7z" id="KHM1788" name="Kâmpóng Thum" data-id="KHM1788" data-name="Kâmpóng Thum">
 </path>
 <path d="M495.4 626.8l-1.6 4.5-1 0.7-2.7-0.6-3.8-3.3-1.1-0.3-1.3 0.2-1.6 1.2-2.1 2.7-0.8 0.6-1.1 0.6-3.9 1.2-2 0-1.4 0-5.1-4.7 2.9-10.1 0.2-1.8-0.7-1.4-1.2-1.8-0.4-1.2-0.2-1.6 0-5 0.9-3.9 5-9.2 10.2-0.2-0.9-2.7-0.8-1.8-0.1-1.5 2.2-0.6 8.4 0.6 0.9 0.3 0.6 0.7 0.1 3.9 1.8 5.5 1.3 5.8 0.5 5.6 0.8 1.2 3.7 1.5-0.5 8.4-0.4 2.3-2.4 2.3-2.4 1.9z" id="KHM1789" name="Phnom Penh" data-id="KHM1789" data-name="Phnom Penh">
 </path>
 <path d="M661.8 594.5l-0.5 0.4-2.5 2.7-2.2 3.4-0.5 3.9 0.5 0.8-1.2 0.8-1.3 0.6-2.2 0.3-3.2 0-1.5 0.4-2 1.2-5 1-1.2 0.5-1.6 2-2.5 6.2-2.5 12.1-1.2 4.1-1 2.5-0.4 2.1 0 15.3 1.3 9.8 0.6 1.9 0.5 1.3-0.3 0.9-3-0.4-1.2 0.8-1.3 2.1-1.4 1.2-0.6 1.1-1 5-0.5 1.5-0.9 1.9 0 1.6 0.1 2.5 1.6 8.1 0.5 1.5 0.8 0.9 0.3 0.7-0.2 0.9-0.6 1.4-0.9 1.5-2.1 2.3-0.9 1.8-0.4 1.4-0.8 6.3-0.5 1.3-0.8 1.5 0.5 1.2 1.6 1.3 1.8 2.1 1.5 3.3-27.1 5.7-1.5-0.2-4.2-2.1-5.3-1.5-0.9-0.4-2.4 1.6-7.6 8.9-5.6 11.5-1.8 1.8-2.8-1-6.5-5.7-2.9-1.9-8.3-1.5-2.8-19.8-0.1-5.4 1-5.3 4.3-10.4 2.7-9.7 2.5-4 6.1-6.7 1.6-4.4-0.2-5.2-3.9-15.6-1-8.2 1.6-1.4 4.3-2.4 0-4.4-1.6-2-2.7-1.6-13.7-11.5-9.4-5.1-1.4-1.2-0.9-1.2-3.7-6.8-0.5-1.2-0.5-1.9 4-7.2 0.8-2.9-0.8-2.2-0.4-1.7-0.2-1.6 0.2-1 3.9-5.9 0.7-1.4 0.3-1.2 0-1.6-0.5-2.5 15-10.1 7.3-6.7 1.7-1.7 3.4-2.8 1.9-1.1 1.6-0.7 2-0.3 3.6 0.7 11.1 4.5 2.9 4.1 2.2 5.2 1.5 2.2 1.2 0.8 2.1 0.9 1.3 0.3 6.9 0.7 23.3 4.1 13.7 0.1 5.2 5.1 4.6 3.5 1.6 0.8 2.9 1.1 2.7 0.5 6.8-1.2 1 0.5 0.3 1.2-0.2 3.1-1.9 4.6-0.2 1z" id="KHM1790" name="Prey Vêng" data-id="KHM1790" data-name="Prey Vêng">
 </path>
 <path d="M675.9 152.8l-1.2 0.6-1.9 0.7-3.7 0.7-22.2 0.1-3.1 0.4-2 0.6-1.1 1.5-0.4 2 0.2 1 1 2.6-0.1 0.8-0.5 0.7-1.3 0.8-1.8 0.7-1.4 0.1-0.9-0.7-1-0.9-1.2-0.4-1.9 0.5-2.4 0.1-1.6 0.7-1.4 1.4-1.2 0.7-1.3-0.4-0.8-0.9-1.6-2.6-1.5-1.3-0.7-0.3-1.5-0.2-2.1 0.4-1.2 0.6-1.1 0.8-2.5 2.6-1.6 1.1-1.3 1.1-0.7 0.9-0.7 1.5-0.1 1.2 0.7 8.4-0.3 2.2 0.3 1.8 0.6 1.2 1.4 2 0.8 0.9 1.8 1.3 0.7 0.9 0.7 1.4 2 6 1.6 10.6-2.4 27.4-4 5.2-25.5 13.6-4.4 1.6-37.2 26.3-0.8 0.9-2.5 3.9-1.4 1.6-13.1 11.4-18.4 9.2-11.1-1.1-4.3-1.5-2.2-1.9-1.8-2.4-1.7-3.9-0.7-3.9-0.6-7.6 0.9-8.8 1.1-3.7 1.9-3.9 0.5-1.5-0.2-1.5-1.2-0.9-1.8-0.6-18.1-3.6-11.6-0.3-6.3 1.9-6.5 2.6-18.1 10 2.7-25.3 1.3-3.8 2.2-4.1 15.8-21.6 0.4-1.1-0.4-1.2-1.4 0.2-1.9 1.5-0.7 0.4-4.6 1.7-2.3-0.2-16.2-4.3-16.6-2.5-3.4-0.8-1.5-1-0.8-1-1.2-2.6-0.4-1.3-0.1-1.6 0.2-1.9 0.8-2.7 2-4.2 0.6-2 0.2-2.2-1.1-9.7-0.5-1.6-0.8-1.5-0.7-1.1-0.7-1.2-0.4-1.7-0.8-3.9-0.7-0.8-1.4-0.9-0.4-0.7-1.4-3.5-0.6-1.2-0.8-0.7-1-0.3-2.3-0.3-0.7-0.7 0.1-1 7-9.8 0.8-1.6 0.6-1.5 0.1-2.5-0.1-1.4 0.4-2.3 8.5-24.3 1-9.1 1.5-3.4 2-3 1-1.1 3.4-2.6 0.8-0.7 0.3-0.8-0.2-0.5-1-0.9-3.9-3-5.7-7.1-0.4-0.7-0.1-1.1 0.6-1.1 1.7-1.2 0.4-1 0.2-1.6 0.1-6.3 0.7-4 0-3.5 0.7 0 1-0.6 1.2-1.1 1.6-1 2-0.6 3.4 0.7 3 1.4 3 0.6 3.8-1.6 2.1-2.4 1.8-2.9 2.1-2.8 3-1.7 3-0.1 4.7 2 3.2-0.1 1.2-1 1.9-3.1 1.5-0.7 1.5 0.8 1 3.5 1.3 1 2.8-0.6 5.7-4.5 2.5-1.3 3.2 0.3 2.5 1.6 2.5 2 3.1 1.6 1.3 0 3.6-0.5 1.7 0.1 1.5 0.6 3 2 1.5 0.8 10.7 1.9 3.5 1.1 1 2.4 0 2.6-0.9 8.8 0.3 1.7 6 11.2 3.3 3.7 4.2 2 10.2-3.2 5.8-9.7 4.3-9.7 5.5-3 0 6.2 0.7 4.5 1.8 4 11.2 17.1 3.4 3.4 1.3 0.7 2.7 0.9 1.4 0.8 4.8 6.8 1.6 1.5 1.9 0.8 3.1 0.3 5.3 0.1 5.6-0.8 5.3-1.8 4.4-3 3.2-0.8 2.8-1.6 5.2-3.8 1.5 1 1.5 1.2 1.2 1.4 1.1 1.5 2.9-1.1 3.4 1.5 2.9 3 1.4 3.5 2.9-2.2 1.9 0.1 1.9 1.3 3.1 1.3 2.7 0.3 4-0.7 2.1 0.1 5.2 2.9 2.8 4.7 2.2 5.4 3.2 4.8 16.2 14.3 4.2 2.3z" id="KHM1791" name="Preah Vihéar" data-id="KHM1791" data-name="Preah Vihéar">
 </path>
 <path d="M812.8 49.1l-0.8 1.7-2.3 8.1-0.2 2.3 0 1.9 1.5 4.3 0.8 3.3 0.9 2.7 0.5 3.3 0.1 3.6-1 4.4-1.9 5.4-0.4 2.4-1.1 3-0.4 1.3-2.2 14.8-0.1 2.4 0.3 2.4 1.2 2.5 1.3 1.8 1.6 1.8 1.3 1.7 2.2 8.7 3 26.8 3.2 9.8 0.5 2.4-1.3 1.9 0.2 4.7-0.3 1.2-18 33.7-1.1 5.2-0.3 4.6 0.6 1.4 0.8 1.1 0.6 1.6 3.1 4.9 1.6 7.4 1.9 2.9 0.4 2.1 0.1 2-0.4 7.3 0.2 1.9 0.8 1.5 1.5 2 0.6 2.4-0.2 2.2-1.3 3.3-12.1-5.4-2.5-0.4-2.3-0.8-3.4-1.6-11.7-8.3-3.9-0.8-10.7 0.5-6.9 0.5-3.1 0.8-10.9 4.8-2.3 1.4-2 2.5-1.2 1.3-1.2 0.4-1.5 0.2-5-1-8.6 0.7-1.6 0.5-1.6 0.7-1.1 0.7-2.2 1.8-11.8 17.4-0.4 1.1-1.3 6.3-0.7 1.5-1.1 0.6-1.3 0.2-1.1-0.2-3.9-1.4-0.8 0-1.2 0.5-0.8 1.5 0 2.6-0.6 1.6-3.4 6.4-1.3 1.7-1 1.1-0.6 0.3-7.5 2.5-2.7 0.3-2.1 0-1.6-0.3-4.2-1.9-6-3.3-16.9-13.2-2.5-1.4-7.3-1.8-16.4-7.9-5-12.7-1-6.5 0.4-4.6-0.4-14.8 4-5.2 2.4-27.4-1.6-10.6-2-6-0.7-1.4-0.7-0.9-1.8-1.3-0.8-0.9-1.4-2-0.6-1.2-0.3-1.8 0.3-2.2-0.7-8.4 0.1-1.2 0.7-1.5 0.7-0.9 1.3-1.1 1.6-1.1 2.5-2.6 1.1-0.8 1.2-0.6 2.1-0.4 1.5 0.2 0.7 0.3 1.5 1.3 1.6 2.6 0.8 0.9 1.3 0.4 1.2-0.7 1.4-1.4 1.6-0.7 2.4-0.1 1.9-0.5 1.2 0.4 1 0.9 0.9 0.7 1.4-0.1 1.8-0.7 1.3-0.8 0.5-0.7 0.1-0.8-1-2.6-0.2-1 0.4-2 1.1-1.5 2-0.6 3.1-0.4 22.2-0.1 3.7-0.7 1.9-0.7 1.2-0.6 0.8 0.4 4.7 1.1 4.6-0.5 4.7-1.9 4.4 0.2 9.7 2.5 3.8-0.2 2.8-3.4-0.4-9.1 2.3-3 2.7-2.7 3.4-2.3 2.9-2.5 1.4-3.6-0.9-3.7-2.5-2.8-3-2.6-2.6-2.9-4.8-11.6-2.9-3.3-6.5-4.2-2.6-2.4-1.6-4 0.8-4.8-0.7-3.7-2.1-3.1-3.6-3-0.9-2.1-0.3-2.2 0.3-2.3 0.9-2.1 3.8 0.7 8.3 2.8 3.2-0.1 0.5-0.9 0.5-3.1 0.5-0.8 1-0.1 2 0.2 3-0.2 4.5 0.8 6.6 0.4 3.6-0.4 3-1.8 2.8-4.1 1.3-4.2 1.9-10.2 1.7-3.3 1.1 1.2 11.5 7.1 1.8 0.5 2.6 0.2 2.5-0.7 11.4-1.6 4.8-2 1.9-3.8 0.7-0.1 1.4-1.2 0.8-1.3-2.1-1.2-0.2-1.3 0.3-1.4 0.4-0.9 1.8-1 2 0.2 2.4 0.7 2.9 0.1 0-1.2-1.4-0.5-0.8-0.9-0.4-1.4-0.1-1.9 0.3-1.9 1-0.6 1.2-0.1 1.4-0.7 4-3.7 1.1 1 2.4 3.7 0.8 2.5 1 6.2 0.6 1.8 1.7 1 4.3 1 1.9 1.2 3.7 5.7 3.2 1.7z" id="KHM1792" name="Stœng Trêng" data-id="KHM1792" data-name="Stœng Trêng">
 </path>
 <path d="M844.5 512.4l-3.5 0.3-4.3 2.6-3.1 4.5-2.2 6.3-3.6 4.9-4 1.1-9.4-2.1 1.5 2.9-16.2-2.3-9.1-0.1-5.8 4.1-2.5-0.2-1-1.3-0.7-1.7-1.7-1.2-2.5-0.4-2.2 0.2-4.4 1.2 0.3 0.8-1.3 0-13.1 3.1-1.6 0.1-4.4-1-2.1 0.1-5.3 2-1.4 0.2-1.6-0.2-0.9-0.9-1.1-1.4-8.9 0-2.2-0.9-0.2-0.7 0.2-1.4 0.5-1.2 0.8-0.9 1.5-1.4 0.7-1.5 0.1-0.8-3-5.9-1.2-1.7-1-1.1-1.8-0.8-2.2-1.3-3.3-2.5-1-0.5-3.1-0.2-0.8-0.2-3.3-1.8-2-0.8-1.2-1.2 0.2-0.5 0.9-0.9 0.6-1.2 0.6-2.1-0.3-1.1-0.6-1.4-1.4-2.3-0.9-0.9-0.8-0.3-1.5 0.1-2.5-0.7-1-3.7-0.9-1.3-5.1-3.5-2.6-1.3-6.3-1.2-5.8-2.3-2.6-0.5-1.5 0.1-0.7 0.2-1.4 1.2-0.7 0.2-5.2 1-1.7-7.8-0.9-0.8-0.8 0.1-3.4-0.1-9.4-2.2-1 0.6-0.7-0.2 0.4-5.8 0.8-1.7 0.9-0.8 1-1.1 1.8-2.5 0.6-1.9 0.3-1.3-0.6-9.8-2.7-14.9-2.2-7.2-5-22.9-5.8-17.2-0.4-4.3-2.2-8 0.4-3.7-0.4-6.4 0.5-2.1 0.3-0.5 0.8-2 0.1-0.8-0.1-1.2-0.4-1.4-1.2-2.5-1.3-2.1-2.2-2.1-0.4-1.5 0.7-1.9 1.3-1.6 0.6-1.3 0-1.5-0.4-1.1-1-1.4-1.4-1.4-1.5-1.1-0.4-1.2-2-13.3-0.1-1.5 0.2-1 1.3-3.3 0.3-1.5-0.2-1.2-0.6-1.4-1.5-2.5-1.6-2.2-2.6-2.5-0.5-0.5-6.1-25.4 16.4 7.9 7.3 1.8 2.5 1.4 16.9 13.2 6 3.3 4.2 1.9 1.6 0.3 2.1 0 2.7-0.3 7.5-2.5 0.6-0.3 1-1.1 1.3-1.7 3.4-6.4 0.6-1.6 0-2.6 0.8-1.5 1.2-0.5 0.8 0 3.9 1.4 1.1 0.2 1.3-0.2 1.1-0.6 0.7-1.5 1.3-6.3 0.4-1.1 11.8-17.4 2.2-1.8 1.1-0.7 1.6-0.7 1.6-0.5 8.6-0.7 5 1 1.5-0.2 1.2-0.4 1.2-1.3 2-2.5 2.3-1.4 10.9-4.8 3.1-0.8 6.9-0.5 0.5 21.3-0.9 3.6 0 0.8 1 4.1 2.6 7.3 1.9 2.5 5.8 3.3 1.8 1.4 1 1.3 0.6 1.3 0.4 1.5 0 1.1-0.6 1.2-1.3 0.4-10.8-0.2-1 0.4-1 0.9-1.5 1.8-0.7 1.2-0.4 1.7 0.2 5.2 0.3 1.3 0.5 0.8 0.9 0.8 5.7 8.1 1.6 1.4 2.3 1.1 1.1 1.1 1.3 2 1.2 1.3 1.7 1 2 1 1.3 0.2 3.2 0.1 2.3 0.4 1.2 0.7 2.3 2.7 11.2 6.9 6.9 2.8 1.4 0.9 1.1 1.3 0.4 1.4 0.2 2.3 0.9 7.2-0.3 2.4-1.5 1.2-1.2 0.4-1 0.9-1.3 1.4-2.4 3.5-1.3 1.5-0.9 0.9-5.5 2.4-3.9 1.2-3.5 2-4.6 1.1-7.5 4.7-2.8 2.8-4.3 7-4.8 18.4-0.8 4.9 0.5 3-0.1 4.3 0.4 1.3 0.7 1 0.9 0.6 5.4 2.6 8.9 5.8 2.5 1.1 3.9 2.3 1.5 1.1 1.9 1 2.7 0.9 1.2 0.6 4.6 4.2 1.5 2.3 2.1 4.7 2.5 8.5 0.7 1.8 1.5 1.5 2.9 1.7 3 1.1 4.7 0.7 7.9 2.2 2.5 1.1 2.2 1.4 1.8 0.9 1.3 1.1 2 2.1 1.3 1.1 1.4 1.6 1.4 2.2 0.9 2 2.7 4.3 0.2 1.7-0.9 12.9 1 8.4 0.2 1.3z" id="KHM1793" name="Krâchéh" data-id="KHM1793" data-name="Krâchéh">
 </path>
 <path d="M810.3 267.2l9.4 9.2 1.2 1 7.2 4.7 6.6 6.9 9.1 6.2 12.1 4.6 3.1 0.4 10.9 0.1 5.7-1.1 2.9 0.2 1.3-0.1 4.7-0.9 2.9-0.2 0.6 0.3 1.5 1.2 0.7 0.2 1-0.3 1.3-0.7 4-3.3 0.8-0.9 0.7-1.2 0.5-3.6 0.9-2 0.4-1.4 0.1-1.5-0.9-4.1-1-1.8-1.3-2-0.4-1.3 0-0.8 0.4-1.3 0.3-0.5 2.5-2.7 0.9-0.2 2.3 0.2 1.6 1.5 6.5-2.5 11.3 1.6 5.5-3.1 1.5-2.9 1.1-2.9 1.6-1.7 3.5 0.8 1.9 2 2.6 6.2 2 2.5 1.9-1 2-0.4 4.4 0.1 1 0.8 1.8 3.6 1 0.9-0.1 1.1 1.7 1.2 3.7-1.8 0.9-0.6 1.2-1.1 1.9-2.1 1-0.6 2.3-0.6 1.2-0.6 2.3-0.7 1.3-0.9 0.6-1 1.1-0.3 1 0.6 1.9 1.8 1.4 0.9 1.6 1.6 1.1 0.5 3.7 1.3 5.3 0.6 1.5 0.5 1.8-0.5-21.6 52.7 0.5 2.7 2.9 2.2 0.5 1.4 0.1 1.3-0.5 1-1 0.8-1.1 1.9-0.3 2.1 0.4 2.2 2.1 4.8 0.7 5.9 0.8 2.9 1.3 2.3 5.3 6 2.6 5.4 0.5 5.1-0.2 5.2 0.4 5.8 4.7 21.3 0.4 6.3-0.7 5.8-1 2.5-1.2 2.1-0.4 2.1 1.4 2.5 0 4.5-5.6 15.8-0.9 4.7-1.5 4.4-2.8 3.5-4.9 2-4.5 3.2-6.4 8.6-4.3 0.3-3.6-3.2-5.6-8.8-4.5-2.8-8.3 0.8-12.1 3.8-11.2 5.5-5.6 6-1.2 2.7-2.3 2.1-5 3.5-6 7.5-12.8 12.9-4.6 3.1-7 2.8-7 0.8-14.3-1.1-2.4 0.2-0.2-1.3-1-8.4 0.9-12.9-0.2-1.7-2.7-4.3-0.9-2-1.4-2.2-1.4-1.6-1.3-1.1-2-2.1-1.3-1.1-1.8-0.9-2.2-1.4-2.5-1.1-7.9-2.2-4.7-0.7-3-1.1-2.9-1.7-1.5-1.5-0.7-1.8-2.5-8.5-2.1-4.7-1.5-2.3-4.6-4.2-1.2-0.6-2.7-0.9-1.9-1-1.5-1.1-3.9-2.3-2.5-1.1-8.9-5.8-5.4-2.6-0.9-0.6-0.7-1-0.4-1.3 0.1-4.3-0.5-3 0.8-4.9 4.8-18.4 4.3-7 2.8-2.8 7.5-4.7 4.6-1.1 3.5-2 3.9-1.2 5.5-2.4 0.9-0.9 1.3-1.5 2.4-3.5 1.3-1.4 1-0.9 1.2-0.4 1.5-1.2 0.3-2.4-0.9-7.2-0.2-2.3-0.4-1.4-1.1-1.3-1.4-0.9-6.9-2.8-11.2-6.9-2.3-2.7-1.2-0.7-2.3-0.4-3.2-0.1-1.3-0.2-2-1-1.7-1-1.2-1.3-1.3-2-1.1-1.1-2.3-1.1-1.6-1.4-5.7-8.1-0.9-0.8-0.5-0.8-0.3-1.3-0.2-5.2 0.4-1.7 0.7-1.2 1.5-1.8 1-0.9 1-0.4 10.8 0.2 1.3-0.4 0.6-1.2 0-1.1-0.4-1.5-0.6-1.3-1-1.3-1.8-1.4-5.8-3.3-1.9-2.5-2.6-7.3-1-4.1 0-0.8 0.9-3.6-0.5-21.3 10.7-0.5 3.9 0.8 11.7 8.3 3.4 1.6 2.3 0.8 2.5 0.4 12.1 5.4z" id="KHM1794" name="Môndól Kiri" data-id="KHM1794" data-name="Môndól Kiri">
 </path>
 <path d="M992.3 275.3l-1.8 0.5-1.5-0.5-5.3-0.6-3.7-1.3-1.1-0.5-1.6-1.6-1.4-0.9-1.9-1.8-1-0.6-1.1 0.3-0.6 1-1.3 0.9-2.3 0.7-1.2 0.6-2.3 0.6-1 0.6-1.9 2.1-1.2 1.1-0.9 0.6-3.7 1.8-1.7-1.2 0.1-1.1-1-0.9-1.8-3.6-1-0.8-4.4-0.1-2 0.4-1.9 1-2-2.5-2.6-6.2-1.9-2-3.5-0.8-1.6 1.7-1.1 2.9-1.5 2.9-5.5 3.1-11.3-1.6-6.5 2.5-1.6-1.5-2.3-0.2-0.9 0.2-2.5 2.7-0.3 0.5-0.4 1.3 0 0.8 0.4 1.3 1.3 2 1 1.8 0.9 4.1-0.1 1.5-0.4 1.4-0.9 2-0.5 3.6-0.7 1.2-0.8 0.9-4 3.3-1.3 0.7-1 0.3-0.7-0.2-1.5-1.2-0.6-0.3-2.9 0.2-4.7 0.9-1.3 0.1-2.9-0.2-5.7 1.1-10.9-0.1-3.1-0.4-12.1-4.6-9.1-6.2-6.6-6.9-7.2-4.7-1.2-1-9.4-9.2 1.3-3.3 0.2-2.2-0.6-2.4-1.5-2-0.8-1.5-0.2-1.9 0.4-7.3-0.1-2-0.4-2.1-1.9-2.9-1.6-7.4-3.1-4.9-0.6-1.6-0.8-1.1-0.6-1.4 0.3-4.6 1.1-5.2 18-33.7 0.3-1.2-0.2-4.7 1.3-1.9-0.5-2.4-3.2-9.8-3-26.8-2.2-8.7-1.3-1.7-1.6-1.8-1.3-1.8-1.2-2.5-0.3-2.4 0.1-2.4 2.2-14.8 0.4-1.3 1.1-3 0.4-2.4 1.9-5.4 1-4.4-0.1-3.6-0.5-3.3-0.9-2.7-0.8-3.3-1.5-4.3 0-1.9 0.2-2.3 2.3-8.1 0.8-1.7 2.3 1.3 13.7 4.2 0.8 0.7 1.5 1.6 0.9 1.2 1.4 2.9 6.6 9.4 5 5 2.6 1.9 2.6 1 2.8 0.2 7.3-4.2 0.9-0.8 1.1-0.6 2-0.1 1.7 0.5 3.6 2.3 1.9 0.3 2.3-0.7 0.7-1 0.1-1.2 2-4.9 2.4-0.5 0.8-0.5 3.7-5.8 5.5-6.8 0.1-1 0.6-0.2 2.4 1.1 3.1 2.4 1.6 2.4 2 1 4.2-1.3 5.7-3.9 5.2-4.7 1.5-3 1.1-3.4 1.5-2.3 2.8 0 3 0.6 1.6-0.9 2-4 0.4-3.9 0.2-1.3 0.8-0.9 2.2-1.4 0.9-0.8 3.4-4.8 2.8-2.5 3.5 0.2 5.1 3.7 3.5 3.3 1.9 0.7 3.5 0.7 4.4 2 2.1 0.1 2.5-2 0.6-1.5 0-1.6-0.3-1.7 0.2-1.5 0.5-1.6 1.4-1.9 0.6-1.1 1.5-4.4 1.2-1.3 2.9-1.4 6.3-9.2 2.5-2.2 2.3 5.2-1 4.9-4.4 9.9-0.2 3 0.7 5.8-0.2 3.1-1 2.2-2.7 3.9-0.8 2.7-0.2 1.3-0.7 2.7-2.3 5.1-1.7 3-2.3 1.9-3.7 1-1.2-0.6-0.7-1.3-1.1-0.9-2.4 0.8-1.5 1.4-0.6 1.6-0.3 1.8-0.5 1.7-3.9 6.9-1.3 3.6-0.4 3.9 0.4 1.8 1.7 3.7 0.5 2 0 1.8-1 6.9-6.3 18.4-0.9 4.7 0.8 2.3 1.7 1.8 2.1 3.4 0.4 3.8-0.6 4-0.1 4 2.2 3.5 3.2 1.2 7-0.7 3 1.1 1.1 1.9 0.1 1.9-0.2 1.9 0.2 1.7 2.6 5.7 0.6 3.4-0.5 2.2-1.1 2.2-0.8 3.3 2 5.9-0.2 1.7-1.2 4.2-0.1 2 1 3 3.6 4.3 1.8 2.9 0.3 0.9 4.4 4.8 3.3 4.7 15.5 30.6 1.4 7.1 1.2 19-0.7 5.9-6 14.8z" id="KHM1795" name="Rôtânôkiri" data-id="KHM1795" data-name="Rôtânôkiri">
 </path>
 <path d="M401.2 694.5l-0.4 6.3 0.1 1.8 0.6 1.5 0.9 1.4 1.9 1.3 1.6 0.5 6.1 1.2 3.6 1.2 2.1 1.2 2.2 2 0.5 1.4 2.2 10.6 0.8 1.8-0.2 2.3-2 6.2 0.2 1.3 0.4 0.3 5.8 2.4 6.1-1.7 3.7-1.4 3.1 0.4 10.6 2.7 6.9 18.5-4.7 4-1.7 2.1-1.5 2.4-3.4 6.8-0.5 3.3 2.2 7.3 1.6 1.8 1.2 0.5 1 0.8 0.2 4.3-1.4 16.9-0.2 1.3-14.2-1.8-8.1 0.4-2.9 0.7-2.5 1.8-1.8 2.8-1.6 3-7.8 11.6-2 1.9-2.7 0.4-3.4-0.7-0.4-1.2-3.2-4-1.5-0.9-0.4-1.6-0.7-0.8-1.3-1-0.3-1.5 0.2-5.8-1.4-3.6-3-5.5-2.3-2.2-4.1-1.6-7.8 0.5-1.8-0.4-2.3 0-1.4-0.4-2.7 4.6-2.3-2.7-1.3-0.8-1.3 0.2-1.2 0.8-1.1 0.3-1.5-1.3-2.9 3.9-4.9 0-9.6-2.5-3.2 0.4-4.6 1.2-3.2-0.3-18-5.1-3.2-0.3-2.6-0.8-5.2-4.4-0.2-0.9 1.3-1.5 3.5-5.5 1.6-3.3 0.6-1.7 0.2-2.8-0.1-3.9-2-16-0.1-1.5 1.3-9.1 0.1-19.9-1.7-6.4 8.3-10.4 1.8-1.9 0.9-0.5 1-0.2 1.4 0.5 1.2 0.6 1.5 0.4 1.5 0.1 2-0.7 0.9-0.5 2.7-3.3 5.5-9.6 0.1-0.4 1.2-4.6 1.8-1.1 6.4-1.5 3.1 2.7 1.7 1 2.4 1.1 14.9 3.2 14.4-1.9 13.7-0.5 5 2z" id="KHM1797" name="Kâmpôt" data-id="KHM1797" data-name="Kâmpôt">
 </path>
 <path d="M398.7 823.2l-0.4-0.2-2.8 1.2-6.6-6.9-1.7-1.1-5.8 0-3.2 1.3-1.8 0.5-1.6-0.5-1.4-3.2-0.7-8.2-2.3-1.7-1-0.5 2.7-4.6 1.4 0.4 2.3 0 1.8 0.4 7.8-0.5 4.1 1.6 2.3 2.2 3 5.5 1.4 3.6-0.2 5.8 0.3 1.5 1.3 1 0.7 0.8 0.4 1.6z" id="KHM1798" name="Kep" data-id="KHM1798" data-name="Kep">
 </path>
 <path d="M282 820.9l-1.9 1.9-3.1-0.1-2.7-0.5-2.3-1.6-1.6-3.1 1.6-0.4 0.8-0.6 1.5-1.6-1.3-2.3 0.6-1.4 1.9-0.5 2.6 0.3 2.7 1.8 1.4 4.1-0.2 4z m21.1-29.3l-0.1-0.5-4.2-7.6-0.5-0.2-2.7 0.2-0.7-0.4 0.2-1.6-0.7-1.9-0.3-2.9-0.5-1.1-1.4 3.8 0.1 4.1 1.3 7.1-0.7 3.3-1.6 3.3-4.1 5.9-2.2 2.3-2.4 1.2-3.2 0.4-4.5 0-2.5-0.4-1.1-1-0.8-1.3-1.5-1.2-1.8-0.5-3.2-0.1-1.4-0.7 0 1.3 4 2.2 3.5 3.5 1 3.3-3.9 1.5-6.2-0.4-7.1 1.6-3.5 0.1-2.5-1.2-1.3-2.7-0.3-2.7 0.2-1.3-0.6-0.5-0.5-2.5-0.8-0.9-1.5-0.1-1.5 1.2-0.9 0.2-1.2-0.3-1.7-0.8-1.6-1.4-1.6-4.5-1.8-2-3.8-2.9-3.1 1.3-1-2.4 0.9-3.5 2.5-1.8 1.5-1.5 2-3.3 1.6-3.7 0.8-2.7 3.1-4.5 7.2-2.1 15.6-0.7 0-0.4 5.1-3 4.4-3.9 0.9-1.2 0.6-1.5 1.3-2.8 2.8-4.5 0.9-1.9 0.2-1.6 0-2.4 0.9-3 1.4-3.1 1.1-1.3 1.3-0.7 3.9 0.3 2.3-0.3 1.3-0.5 3.1-2 16.2-13.8 1.7 6.4-0.1 19.9-1.3 9.1 0.1 1.5 2 16 0.1 3.9-0.2 2.8-0.6 1.7-1.6 3.3-3.5 5.5-1.3 1.5z" id="KHM1800" name="Krong Preah Sihanouk" data-id="KHM1800" data-name="Krong Preah Sihanouk">
 </path>
 <path d="M623.5 723.5l-1.5-3.3-1.8-2.1-1.6-1.3-0.5-1.2 0.8-1.5 0.5-1.3 0.8-6.3 0.4-1.4 0.9-1.8 2.1-2.3 0.9-1.5 0.6-1.4 0.2-0.9-0.3-0.7-0.8-0.9-0.5-1.5-1.6-8.1-0.1-2.5 0-1.6 0.9-1.9 0.5-1.5 1-5 0.6-1.1 1.4-1.2 1.3-2.1 1.2-0.8 3 0.4 0.3-0.9-0.5-1.3-0.6-1.9-1.3-9.8 0-15.3 0.4-2.1 1-2.5 1.2-4.1 2.5-12.1 2.5-6.2 1.6-2 1.2-0.5 5-1 2-1.2 1.5-0.4 3.2 0 2.2-0.3 1.3-0.6 1.2-0.8 1.9 3.2 2.3 1.3 5 0.9 2.1 1.6 0.9 2.1 0.2 2.6-0.4 5 2.9 10.2 0.3 2.9-0.5 2.9-2.1 6.5-3.1 14.5 0.2 2.7 2.4 1.9 3 0.8 2.5 1.5 0.5 4.2 2 5.3 3.9 3 10.1 2.5 2.8 2.5 4.5 7.3 2.9 3.2 6.6 5.6 2.5 3.1 1.9 4 2.2-4.1 2.9-1.8 3.2 0.6 3.4 2.6 2.2 3.3 3.1 11 2.1 3.8-1.4 1.2-5.9-0.2-3.4 0.4-0.6 0.6-1.1 2 0.5 0.4-0.3 5-0.3 0.4 1 3.1 4.6 8.9 4.9 18.4-4.2-3.4-5-1.3-10.6-1-5-1.8-5.3-2.6-4.7-3.5-5.3-6.1-6.3-5.1-0.2 3.1-1.8 4.2-2.2 3.8-1.8 1.9-3.9 0.1-3.3-2.2-2.6-3.1-1.4-2.7-2.1-6.7-1.4-2.9-6.4-8.9-3.3-5.9-3.2-3.6-5-0.6-5.5 1.6-4.4 2.7-3.5 2.3-4.3 2-2.8 0.6z" id="KHM1801" name="Svay Rieng" data-id="KHM1801" data-name="Svay Rieng">
 </path>
 <path d="M514.4 732.7l-1.8 1.7-2.1 2.7-1.2 3.1 0.7 6.6 2.9 7.2 6.7 12.6 0.1 6.2-4.5 4.4-18.5 9.5-2.5 2.1-2.2 2.4-7.7 11.9-4.6 4.7-6.7 2.7-8.4 0.4-13.8-1.7 0.2-1.3 1.4-16.9-0.2-4.3-1-0.8-1.2-0.5-1.6-1.8-2.2-7.3 0.5-3.3 3.4-6.8 1.5-2.4 1.7-2.1 4.7-4-6.9-18.5-10.6-2.7-3.1-0.4-3.7 1.4-6.1 1.7-5.8-2.4-0.4-0.3-0.2-1.3 2-6.2 0.2-2.3-0.8-1.8-2.2-10.6-0.5-1.4-2.2-2-2.1-1.2-3.6-1.2-6.1-1.2-1.6-0.5-1.9-1.3-0.9-1.4-0.6-1.5-0.1-1.8 0.4-6.3 6.2 2.4 2.4 0.5 5.4 0.1 2.1 0.3 1.9 0.5 4.2 2.4 1.1 0.4 9.7-0.1 1.9-0.6 1.1-0.7 2.1-0.5 6.4-0.6-0.1-9.3 1.8-8.7 1.1-5.6 2.6-16.4 0.5-2 1.6-1.7 5.8-5.4 4.9 3.3 1.8 0.5 1.9-0.9 2.5-0.5 5.8-0.4 5.7-1.6 2.2 0.2 1.1 0.7 1.1 0.4 6.7 1.5 1.5 0.8 0.7 1.1-0.4 8.8 0.3 2.9 0.6 1 1 0.8 1.1 0.7 3.9 5.8 2.1 2.2 3.7 2.8 3.7 2.6 1.3 3 0 1.7-2.4 9.3-0.2 4.5 0.7 9.2-1.4 6.1 0.2 4 0.3 0.9 1.4 1.7 0.5 1.3 1.7 6.2 0.6 1.2 0.8 1.4z" id="KHM1802" name="Takêv" data-id="KHM1802" data-name="Takêv">
 </path>
 <circle cx="445.5" cy="799.6" id="0">
 </circle>
 <circle cx="474.2" cy="688.8" id="1">
 </circle>
 <circle cx="151.5" cy="222.5" id="2">
 </circle>
</svg>