<?xml version="1.0"?>
<!--
************* Copyright (c) 2017 Pareto Softare, LLC DBA Simplemaps.com *******************		
************* Free for Commercial Use, full terms at  http://simplemaps.com/resources/svg-license ************
************* Attribution is appreciated! http://simplemaps.com ***************************
-->
<svg baseprofile="tiny" fill="#7c7c7c" height="792" stroke="#ffffff" stroke-linecap="round" stroke-linejoin="round" stroke-width="2" version="1.2" viewbox="0 0 1000 792" width="1000" xmlns="http://www.w3.org/2000/svg">
 <path d="M478.6 785.7l-17.9 0-51.5-10.5-53.1-1.5-12.3-4.3-3.3-5.8 0.7-13.4-2.1-7.4-6.6-6.2-12.4-7.2-2.2-10.3-0.9-27.9 4.5-11.5 12.4 4.4 10.8 5.8 31.8 6.1 14.3 4.4 39.5 26.4 7.2 8.1 6.3 2.8 40.2 26.8 8.7 13.4-2.5 6.1-11.6 1.7z" id="COM4934" name="Moûhîlî" data-id="COM4934" data-name="Moûhîlî">
 </path>
 <path d="M190.6 442.3l-10.4 1.5-9-1-8.9-15.6-42.4-39.5-11.3-4.6-32.5-1.9-7.9-2-8.7-4.8-14.7-11.8-6.1-7.8-3.1-13.7-3.5-7.5-19.3-19-8.3-12.4-3.5-19 2.1-7.5 4.9-9.4 16.5-24 0.1-8.2-2.1-8.4-0.8-9 10.5-136.9-1.6-9.1-4.1-8.3 7.4-13.4 7.2-19 7.9-14.8 9-0.3 32.2-11 18.9-2.9 13.9 5.7 9 11.9 6.8 12.5 3.4 14.1-16.9 144.5 6.8 31.4 33.7 48.5 12.2 31.7 0.4 8-1.2 16.4 0.8 7.9 3.5 5.6 9.6 10.6 4 15.6 4.7 8.7 17.8 23.7-0.4 6.5-8.6 13.9-5.3 17.7-5.5 4-7.2 2.4z" id="COM4935" name="Andjazîdja" data-id="COM4935" data-name="Andjazîdja">
 </path>
 <path d="M964.9 562.2l32.1 103.4 2 10.9-0.4 94.7-4.2 14-8.7 5.8-6.7-2.8-7.8-6.6-6.3-7.9-2.6-6.8-1.4-9.7-4.2-5.4-55.9-38.7-6.2-10.1-4.7-11.8-11.4-5.8-30-6.2-47.2-24.3-6.4-5.1-30.4-18.2-10.2-11.2 12.2-0.4 10.1 2.6 19.5 8.4 13.2 3.4 24.5 3.6 9 3.6 15.5-10.6 22.7 4.8 20.2-18.6 11.5-28.8-2.6-26.2 7.4-2.2 10.4-6.1 11.9-4 6.9-4.3 5.3 0.2 4.3 3.2 6 10.8 2.6 2.4z" id="COM4936" name="Andjouân" data-id="COM4936" data-name="Andjouân">
 </path>
 <circle cx="950.2" cy="655.5" id="0">
 </circle>
 <circle cx="189.4" cy="430.3" id="1">
 </circle>
 <circle cx="51" cy="170.3" id="2">
 </circle>
</svg>