<?xml version="1.0"?>
<!--
************* Copyright (c) 2017 Pareto Softare, LLC DBA Simplemaps.com *******************		
************* Free for Commercial Use, full terms at  http://simplemaps.com/resources/svg-license ************
************* Attribution is appreciated! http://simplemaps.com ***************************
-->
<svg baseprofile="tiny" fill="#7c7c7c" height="1008" stroke="#ffffff" stroke-linecap="round" stroke-linejoin="round" stroke-width="2" version="1.2" viewbox="0 0 1000 1008" width="1000" xmlns="http://www.w3.org/2000/svg">
 <path d="M398.6 164.6l-21.5 11.9-25.7 53.8 2 41.4-27.6 0-75.1-14.4-4-20.8-21.7-24.8 37.5-55.9-3.9-22.8 21.5-39.9 118.5 71.5z" id="KNA5099" name="Christ Church Nichola Town" data-id="KNA5099" data-name="Christ Church Nichola Town">
 </path>
 <path d="M163.8 157.9l-21.8 43.4-13.8 0-15.8 37.3-21.7 36-89.7-102.6 13.5-57.9 36.7 10.6 11.8-16.6 17.8 8.3-3.9 22.8 86.9 18.7z" id="KNA5100" name="Saint Anne Sandy Point" data-id="KNA5100" data-name="Saint Anne Sandy Point">
 </path>
 <path d="M548.8 372.7l9.3 22.9 34.3 59.7 49.9 25.2 41.5 23.7 36.6 52.1 0.2 52.9-67.9 25.8-38.6-26.5-32.7-120.2-60.4-37.6-39.7-45.2-28-10.2-34.3 2-24.1-44.8 7.9-10.4-15.8-31 19.8-6.2 13.8 22.7 41.5 8.3 31.6 16.6 27.6 22.8 27.5-2.6z" id="KNA5101" name="Saint George Basseterre" data-id="KNA5101" data-name="Saint George Basseterre">
 </path>
 <path d="M988 886.3l0.5 27.7-5.1 27.8-15.6 38.6-12.2 13.5-55.3 13.1-39.2-143.4 49.4-14.4 41.5 14.4 36 22.7z" id="KNA5102" name="Saint George Gingerland" data-id="KNA5102" data-name="Saint George Gingerland">
 </path>
 <path d="M988 886.3l-36-22.7-41.5-14.4-49.4 14.4-51.4-101.3-51.9-37.8 40.5-44.1 63.3 1.3 55.1 18.6 42.2 41.2 24.5 69.7 3.6 28.8 1 46.3z" id="KNA5103" name="Saint James Windward" data-id="KNA5103" data-name="Saint James Windward">
 </path>
 <path d="M280.1 93.1l-21.5 39.9 3.9 22.8-37.5 55.9-61.2-53.8-2-18.7-19.8-6.2-9.8-18.6-2-68.4-11.2-26.7 8.4-18.3 152.7 92.1z" id="KNA5104" name="Saint John Capesterre" data-id="KNA5104" data-name="Saint John Capesterre">
 </path>
 <path d="M900.3 1007l-141.4-11.5-28.6-77.1 39.9-3.1 49.4-10.3 41.5-41.4 39.2 143.4z" id="KNA5105" name="Saint John Figtree" data-id="KNA5105" data-name="Saint John Figtree">
 </path>
 <path d="M480.6 238l-24.5 13-31.6 0-29.6-4.1-19.8 26.9-21.7-2.1-2-41.4 25.7-53.8 21.5-11.9 32.1 19.3 49.9 54.1z" id="KNA5106" name="Saint Mary Cayon" data-id="KNA5106" data-name="Saint Mary Cayon">
 </path>
 <path d="M163.8 157.9l-86.9-18.7 3.9-22.8-17.8-8.3-11.8 16.6-36.7-10.6 10.7-45.7 20-16.7 60.6-23 13.2-9.4 11.2 26.7 2 68.4 9.8 18.6 19.8 6.2 2 18.7z" id="KNA5107" name="Saint Paul Capesterre" data-id="KNA5107" data-name="Saint Paul Capesterre">
 </path>
 <path d="M730.3 918.4l-14.6-39.4 90.1 7.4 55.3-22.8-41.5 41.4-49.4 10.3-39.9 3.1z" id="KNA5108" name="Saint Paul Charlestown" data-id="KNA5108" data-name="Saint Paul Charlestown">
 </path>
 <path d="M548.8 372.7l-27.5 2.6-27.6-22.8-31.6-16.6-41.5-8.3-13.8-22.7-19.8 6.2-11.9-37.3 19.8-26.9 29.6 4.1 31.6 0 24.5-13 24.7 26.7 43.5 108z" id="KNA5109" name="Saint Peter Basseterre" data-id="KNA5109" data-name="Saint Peter Basseterre">
 </path>
 <path d="M861.1 863.6l-55.3 22.8-90.1-7.4 23.5-134.3 18.6-20.2 51.9 37.8 51.4 101.3z" id="KNA5110" name="Saint Thomas Lowland" data-id="KNA5110" data-name="Saint Thomas Lowland">
 </path>
 <path d="M225 211.7l21.7 24.8 4 20.8 75.1 14.4-11.9 43.5-23.7 12.4-16.8 49.5-52.1-21.2-130.6-81.3 21.7-36 15.8-37.3 13.8 0 21.8-43.4 61.2 53.8z" id="KNA5111" name="Saint Thomas Middle Island" data-id="KNA5111" data-name="Saint Thomas Middle Island">
 </path>
 <path d="M375.1 273.8l11.9 37.3 15.8 31-7.9 10.4 24.1 44.8-61.6 3.5-39.3-5.5-44.7-18.2 16.8-49.5 23.7-12.4 11.9-43.5 27.6 0 21.7 2.1z" id="KNA5112" name="Trinity Palmetto Point" data-id="KNA5112" data-name="Trinity Palmetto Point">
 </path>
 <circle cx="491.5" cy="370.8" id="0">
 </circle>
 <circle cx="999" cy="743" id="1">
 </circle>
 <circle cx="796" cy="955.6" id="2">
 </circle>
</svg>