<?xml version="1.0"?>
<!--
************* Copyright (c) 2017 Pareto Softare, LLC DBA Simplemaps.com *******************		
************* Free for Commercial Use, full terms at  http://simplemaps.com/resources/svg-license ************
************* Attribution is appreciated! http://simplemaps.com ***************************
-->
<svg baseprofile="tiny" fill="#7c7c7c" height="1080" stroke="#ffffff" stroke-linecap="round" stroke-linejoin="round" stroke-width="2" version="1.2" viewbox="0 0 1000 1080" width="1000" xmlns="http://www.w3.org/2000/svg">
 <path d="M158.9 1066.3l-0.5 0.2-1.5-1.9-1.6-1.1 1.5-0.4 2.4 0.5-0.7 1.3 0.4 1.4z m104.6-6.9l-2.1 1.4-1.6 0.6-0.9-0.4 0.4-1.2 0.8-0.8 1 0.7 1.2-1.1 1.2-0.1 0 0.9z m-90.2-1.9l-0.2-0.7 1-2.1 1.4-1 0.8-1.2 1.4 0.2-2.6 2.7-0.2 0.8-1.1 0.5-0.5 0.8z m68.1-3.2l-0.7 1.1-1.5-0.3-0.3-0.9 0.7-1.4 1.5-0.7 0.3 2.2z m-124.5-22.1l-1 0.3-0.4-2 0.8-0.8 0.8 0.9-0.2 1.6z m6-145.8l0.6 0.4 1.2-0.6 0.7 0.3-0.6 2.5-1.3 2-3.6 2.7-0.8-0.5 0-1.6 0.9-1.3 0.9 0 0.9 0.5 1-1.2 0.1-0.8-1.2 0.2-1.6-0.2-0.4-1 0.9-1.3 0.2-0.7-0.3-2.2 1 0.6 1.4 2.2z m389.6-110.9l-1.4 0.2-1.9-1.2 1.5-0.1 1.8 0.3 0 0.8z m14.7-1l-2.1 0.7 0.4-1.2 0-1.5 0.2-0.6 1.2-0.1 1.3 0.6 0.2 1.9-1.2 0.2z m-447-37.1l-1.5 0.7-0.1-1.2 1.7-1.4 0.9 0.6-1 1.3z m8.3-8l-1 0.9-0.7-0.9 0.6-0.5-0.6-0.7 0-1.5 1.5 0 1.3 0.5 0.7 0.7-1.8 1.5z m-23-2.3l-0.6 0.4-0.8-1.5 0.3-0.8 0.8 0.9 0.3 1z m-0.6-5.2l-0.7 0.8-0.7-1.5 1.1-1.2 1 1.9-0.7 0z m90.9-7.1l-1.1 1.6-1.1-0.5-1.4-1.4 0.1-0.9 1.3-0.6 0.4 0.9 1.8 0.9z m-10-3.2l1.6 0.1-2.2 2.1-0.7 1.9-0.6-1.3-1.3-0.6 1-1.3 0.8-0.6 1.4-0.3z m-1.8-3l1.5 0.3 1.5-0.2 0.5 2.3-1.8 0.2-0.9-1-1.6-0.7 0.3-0.8 0.5-0.1z m-35.5-14.5l-0.3 1.3-1.5-1.3 1-0.7 0.8 0.7z m-59-18.3l-0.8 1.8-0.6-1.3 3.7-2.7 1.1 0.2-0.8 1.1-1.3 0.8-1.3 0.1z m-26.8-31l-1.1 2.4-1.6-0.5-0.3-3.5 1.3-0.4 1.7 2z m-1.9-3.6l-0.7 0.9-1.8-0.8-0.7-0.8 0.2-0.8 1.5-0.1 1.5 1.6z m597.7-21.3l-0.9 1.4-1.5 0.7-2.2 0.5-4.3-0.2-0.8-1.1 0.4-0.9 1.6-0.1-0.5-1.3 0.3-1 0.9 0 1.2 0.7 0.5 0 1 0.8 0.6-0.9 0.9-0.7 0.6 2.7 0.7-1 0.2-1 1.1-1.3 0.7 0.2-0.1 1.1-0.4 1.4z" id="PRK99" name="" data-id="PRK99" data-name="">
 </path>
 <path d="M427.1 805.5l0.7 7.3 1.1 3.1 1.5 2.2 0.9 1 0.9 1.7 0.6 1.8 0.1 1-0.6 3.1-1.1 2.7-1.2 2.6-2.6 3.3-1.8 1.5-2 0.6-7.2 0.5-1.9 0.7-1 0.7-1.7 1.8-1.2 2-0.3 1.5 0 2 0.4 3.7 0.1 5.2-0.5 4-0.9 3.7-2.2 4.1-5.2 7.8-2.8 6.2-1.4 1.9-0.9 0.9-2 1.6-1.9 1.1-9.1 2.9-1.9 1.2-1.3 1.9-0.3 1.9 0.8 1.7 3.3 5 0.6 1.2 0.5 1.5 0.2 2.4-0.6 2.6-0.9 3.1-0.5 3 0.2 2.9 0.8 3.9 1.2 2.5 10.3 18 0.5 1.3 0.2 1.3 0.5 1.2 1.1 1.1 1 0.4 2.5 1 1.4 0.9 1.8 1.7 1.2 0.3 0.8-0.1 1.7-1.4 1.6-0.8 0.9 0 0.6 0.9 0.1 1.3-0.9 2.9-0.9 1.4-0.6 1.4-0.2 1 0.8 2.2 1.2 1.7 0.2 1.1-0.1 1.3-0.9 2-0.8 2.3 0.5 2.6 2.5 3.7 2.3 1.2 2.6 0.4 1 1.6 0.4 0.9 1.4 2.4-3.1 7.8-2.5 2.9-6 4.6-2.7 2.8-13.1 20.1-6.1 4.9-4 1.5-2.8 0.3-1.9 1.4-0.8 4.6 1.1 16.8-1.8 2.6-0.7 2.9-1.4 0.3-7.5 4.6-2.7-0.6-21.4-13.8-1.3-1.2-3.7-6.4-0.4-0.4 0.9-1.6 0.5-2-0.2-1-1.9-1.8-0.7-1.2-0.3-2 0.6-6.1 1.1-3.5-0.1-1.5-1.1-2.2-0.6-3.1 1.2-3.2-1.7-4.2 0.5-5-0.5-1.5-1.8-2.1 0-1.4 0.5-2.3 0.8-1.2 2-1.3 1.5-1.7 0.8-0.5 0.7 0.1 0.4 0.6 0.8 2.8 0.4 0.9 1 1.1 0.7-0.5 0.3-1.1 0-1.9-0.5-1.4-1.1-2.1-1.1-3-1-1.9-1.5-2-1.7-1.6-1-0.5-7.9-3.4-4.4-2.5-3.5-1.5-2-0.4-3.5 0.1-6.7 1.4-1.7 1-4.8 3.9-0.9 0.7-1 0.2-1-0.1-1.9-0.6-1 0-1.9 0.9-0.8 0.8-1.5 2-1.3 0.6-1.7 0.2-4.8-1.1-1.5-0.1-1 0.4-3.7 2.1-5.8 1.4-2.8 0-2.4-0.5-1.3-0.7-0.9-1-0.8-1.9-1.4-7.6-0.5-1.9-0.9-1.2-4.3-3.5-1.1-1.5-0.8-1.3-0.5-2-1.9-2.4-0.7-2-0.8-1.2-0.9-0.4-0.9 0.2-1.6 1-0.9 0.4-3.4-0.8-1.2 0.1-2.5 1-2.3-0.3-0.4-0.7 0.3-0.7 1.1-1.2 0.1-0.7-0.2-0.9-0.9-1-2-1.8-3.1-1.6-1-1.1 0-0.7 1.2-0.8 1.4-1.6 0.6-1.7-0.4-1.4-2.8-3.5-0.7-1.3-0.5-2.8 0-3.1 0.2-2.1 0.5-2.1-0.1-1-1.2-2.6-1.3-2.2-0.5-1.7-0.6-1.6-1.3-2-0.5-1.4-0.3-1.2 0.2-4.2-0.3-2.1-0.8-2-0.2-1-0.1-5.4-0.4-2.5-0.8-0.8 1.6-0.5-1.4-1.4-1.8-3.1-1.1-1-1.9-5.8-0.3-5.1-0.3-1.4-0.6-1.1-2.8-2.9-1.7-2.3-1-2.8 0.2-2.5 4.5-1.7 11.1-7.4 5-2.5 4.1-0.4 10.1 0.5 2.3 0.6 15.6 8.1 1.6 1.5 0.7 0.9 0.5 2-0.2 3.2 0.4 1 0.9 1 5.9 2.8 2.6 1.7 6 2.7 4 0.9 2.3-0.2 3.2-0.7 1.3-0.6 1.1-0.7 0.8-0.9 2.7-3.9 0.8-1 1.2-0.9 1.7-0.8 5.9-1.6 1.8-1.3 1-1.9 0.1-1-0.1-6.5-0.3-1.9-0.8-1.9-5.5-8.2-1.4-1.2-3.7-2-1.8-1.2-1.4-1.8-0.8-2-0.2-2 0.5-4.1 0.5-2.2 0.7-1.2 1.3-1.5 0.9-0.3 1 1 1.3 0.2 1.7-1 1.1-1.2 1.3-0.7 0.7-1 1.3-0.2 0.8 0.4 4.8 0.7 0.7 0.3 1 1.3 1.8 1.6 0.5 0.7 2 1.1 2.8 1 1.1-0.6 1-0.1 3.1 0.6 1.1 0.4 4.8 2.2 1 0.7 3.1 1.5 10.8 3.7 1.8 0.1 2.5-0.1 1.6-1.7 0.6-2.2-0.1-2.1-0.3-1.7-0.7-2-1-1.9-0.2-1.3 0.4-1.5 1.8-2.4 1.2-0.8 1.2-0.3 1.1 0.4 7.6 5 2 0.3 2.6 0 5.6-0.6 2.2-0.9 1.2-0.9-0.5-1.9-0.6-1-1.2-1.4-1.3-2-1.1-2.2-0.9-3.1-1.1-2-3.6-3.6-1.2-2-0.7-2.1-0.5-1.1-2.1-3.2-0.4-1-0.5-2.2 0.1-1.5 0.3-1.7 1.1-2.5 1.4-1.3 1.3-0.3 1.1 0.7 2.3 3.2 1 0.9 2.2 1.2 1.1 0.4 2.5 0.1 2.3-0.4 7.4-1.9 2.4 0.2 1.1 0.4 1.8 1.1 2.3 2 2.1 1.1 4.9 0.9 2.3 1 2.3 1.2 7.9 6.7 2.1 1.4 3.3 0.5 8.6-1.1z" id="PRK3303" name="Hwanghae-bukto" data-id="PRK3303" data-name="Hwanghae-bukto">
 </path>
 <path d="M170.4 1066.2l-2.6 2.7-4.1 2.6-1.3 1.3-2.1 1.5-3.2 0.7-0.9-1.5 4.6-5.4 2.2-1.1 1.5 0.7 0.8-3.1 0.8 0 0.6-0.8 1.6-0.5 4.6-2 1.4-0.4-3.9 5.3z m-24.1-8.8l-1.3 0.2-0.7-1.7-0.3-1 3.9-2.8 2.7-1 0.7 0 0.7 1.5-1.2 0.6-2.1 2.1-2.4 2.1z m-17.1-7.4l-0.5 1.4-0.8 0-1.7 1.8-1.5 0.5-1.6 0-1.1-0.5 0-0.9 2.1-1.8 2.1 0.8 0.5-0.2 0.2-1.2-0.3-1 0.4-1.2 1.6 0.4 0.6 1.9z m-24.8-137.8l2.6 4.6 0.5 2.1-6.6-1.8-3.1-1.4-2.9-2.3-3.4 2.7-1.4-1.7 0.6-3.3 5.8-3.7 1.8-0.4 0.8 1.8 2.6 0.9 1.7 1 1 1.5z m117.5-19.7l0.8 0.8 0.4 2.5 0.1 5.4 0.2 1 0.8 2 0.3 2.1-0.2 4.2 0.3 1.2 0.5 1.4 1.3 2 0.6 1.6 0.5 1.7 1.3 2.2 1.2 2.6 0.1 1-0.5 2.1-0.2 2.1 0 3.1 0.5 2.8 0.7 1.3 2.8 3.5 0.4 1.4-0.6 1.7-1.4 1.6-1.2 0.8 0 0.7 1 1.1 3.1 1.6 2 1.8 0.9 1 0.2 0.9-0.1 0.7-1.1 1.2-0.3 0.7 0.4 0.7 2.3 0.3 2.5-1 1.2-0.1 3.4 0.8 0.9-0.4 1.6-1 0.9-0.2 0.9 0.4 0.8 1.2 0.7 2 1.9 2.4 0.5 2 0.8 1.3 1.1 1.5 4.3 3.5 0.9 1.2 0.5 1.9 1.4 7.6 0.8 1.9 0.9 1 1.3 0.7 2.4 0.5 2.8 0 5.8-1.4 3.7-2.1 1-0.4 1.5 0.1 4.8 1.1 1.7-0.2 1.3-0.6 1.5-2 0.8-0.8 1.9-0.9 1 0 1.9 0.6 1 0.1 1-0.2 0.9-0.7 4.8-3.9 1.7-1 6.7-1.4 3.5-0.1 2 0.4 3.5 1.5 4.4 2.5 7.9 3.4 1 0.5 1.7 1.6 1.5 2 1 1.9 1.1 3 1.1 2.1 0.5 1.4 0 1.9-0.3 1.1-0.7 0.5-1-1.1-0.4-0.9-0.8-2.8-0.4-0.6-0.7-0.1-0.8 0.5-1.5 1.7-2 1.3-0.8 1.2-0.5 2.3 0 1.4 1.8 2.1 0.5 1.5-0.5 5 1.7 4.2-1.2 3.2 0.6 3.1 1.1 2.2 0.1 1.5-1.1 3.5-0.6 6.1 0.3 2 0.7 1.2 1.9 1.8 0.2 1-0.5 2-0.9 1.6-0.6-0.5-2.9 0.4-3.2 1.1-12.1 6.4-3.1 1.1-3.4 0.5-5.7-0.2-3.3 0.7-3.2 2.1-1.3 1.5-0.3 0.6 0.3 0.7 0.5 3.1 1.1 4 0.8 2.1-0.1 2.6-0.5 2.7-0.5 1.4-7.3-1.4-2.1-7.9-1.5-3.7-2.3 0.2-1.4-0.5-0.7-4.4-0.4-9-4.6 3.3-2-0.1-0.9-3.9-1-2.2-2.3-2.5-2.4-2-1.6-0.7-2.4 2 1 2.5 2.2 2.1 1.2 0.8 0.3 2 1.4 5.3 0.4 2.7-1.3-1.2-1.6-1.2-1.8-1-1.5-0.5-1.9-0.3-1.8 0-1.6-1.2-2.5-2.7-7.7-12.1-0.6-1.9-1-1.4-3.6-0.8-1-0.8-0.4-1.4-0.1-2.2 0.4-3.7-0.8-0.7-2.3-0.3-1.6-0.3-2.7-1.8-1.5-0.5-6.3-0.3-2.8-0.6-6.1-2.9-3.9-0.9-3.9-0.1-2.7 1.4-0.2 3.1 2.9 3.3 3.8 2.6 3 1 5.3-0.7 1.5 1-1.1 3.9 1.6-0.7 1.6-0.4 1.5 0.1 1.6 1-1.8 2.4-1.3 2.9 2.9 0 1.1-0.5 1.2-1 1.1 1.5-1.9 1.8-1.9 1.5-2.1 1.1-2.5 0.8-2.5-0.1-1.8-1.3-1.8-1.9-2.3-1.9-0.5 4.5 1.5 4.6 0.6 4.3-2.8 3.8 2.3 2.3 1 0.4-0.6 1.9-1 0.7-3.1 0.1-0.7 0.6 0.3 1.2 0.9 2.2 0.5 2.8 0 1.7-1 0.8-1.7-0.1-1.5-0.3-1.4-0.8-1.3-1.3 0.6-0.5 0.5-1-1.8-1-1.7-0.1-1.3 1-0.4 2.2-1.1 0.1-1.9-0.4-1.3-1.4 1.1-3.2-3.8 3.4-1.9 4.8-2.5 4.5-5.5 2.2-5.4 0.1-2.8 0.6-1.3 1.2-0.7 3.2-1.7 2.6-2.1 0.9-2-2.1 2.1-10 2.4-4.5 4.1 1.2 8.3-3.8-2.3-1.4-5.3 1-2.8-1.1 2-2.8 3.2-2.5 3.7-1.9 3.2-0.8 7.6 1.9 2.9-0.9 0.6-4.9-2.6 1-2.1-0.3-1.6-1.5-1.2-2 4.5-5.1 0.3-2.1-4.2-0.8-2.9-1.1-1.4-2-1.5-1.2-3.2 1.6 0.5 0.8 0.6 1.9-3.9 0-1.8 0.4-1.7 0.9 3 1.2 3.8 2.2 2.8 2.8-0.2 3.3-2.8-2.5-4.1-1.9-4.3-0.7-3.5 0.9 0.8 1.5 0.9 1.1 1.2 0.9 1.4 0.7-4.8 4-3 1.9-2.8 0.7 0-1.2-0.4-0.9-0.7-0.6-9.5 0 1.9-2.9 6.7-4.3 2-3.5-1.2-3.4-6.7-3.7 0.5-3.6-3.1 0.6-1.7 2.8-1.4 3.6-1.7 3.1-2.4 1.8-2.5 0.8-2.9 0-8.9-1.4-1.6-0.6-4.2-3.5-1.7-0.5-3.4-0.3-2.5-1.2-1-2.4 1.1-4.1-3.8 2.4-1.4 0.4 0.6-3.4 1.3-2 2-1.1 2.9-0.3 1.9-0.7 3.9-2.9 2.1-0.4 2.2 0.9 4 2.6 2.8 0.5 2.5-0.1 2.1-0.6 1.8-1.2 1.4-2.1-1.1-1.5-1.7 1.3-1.7 0.3-1.7-0.7-3.2-2.9-1.3-0.8-0.8-2.5-0.5-3.8 1.5-1.4 6.3-0.1 6.8-1.4 1.8 0.8 0.6 1.6 0.4 1.9 0.8 1.2 3.3 0.3 1-6.6 3.2-1.7-1.4-3-2.5-1.2-6.1 0.1-2.8-0.5-5.3-1.9-2.4-0.4-2.4 0.5-7.6 3.7-7.4 1.4-2.1 1.3-11.7-6.9-5-5.3-3-1.3-1.4 3.4-1.7 1.4-3.9 1-7.1 0.8-18-3.5-1.5-2 1-2.2 3.7-1.5 7.3-0.6 3.1-1.6 1.2-3.9 1.1-0.5 6.4-1.5 1.1-1.5 2.5-4.8 1.7-1.7 3.5-0.7 2.5 1.8 3.9 6.3 1.6-0.7 9.5-6.7-3.9-1.6-8.1 1.2-4.3-3-2.2-2.6-0.4-1.5 0-3.3 1.5-12.4 0.6-2 6.8-10.5 1.1-2.3 1.9-5.9 1.8-2 1.2-0.5 0.8 0.3 0.4 1.3-0.3 2.9 1.9-2.1 2.6-4.4 2.2-4.8 0.7-3.3-0.9-2-2.8-2.1-0.6-2 0.7-4-0.3-1.5-2.2-2 0.4-1.6 2.2-0.1 3 1.8 1.8-1.2 1.3-0.3 0.8 1.8 2.4 2.6 3.3-3 3.5-1.9 3.9 2.6 1-2.1-0.1-3.7 0.5-2.9-1.7-1.7-1.2-2.4-0.3-2.3 1.1-1.8 2.2 0.8 1.6 3.2 1.3 2.8 3.5-0.6 0.6-1.5-0.8-2.9 0.3-2.6 1.4 0.6 0.7 1.9 1.5 1 2.6-0.7 2.4-0.4 3.6-2.3 1.2-0.1 1.7 1.4 3.5 1.3 1.6-1.7 1.3-0.7 1.7-2 2.3-1.6 3.6-1.5 4.3 0.2 1.5 0.1 3.5 1.1 1.9 0.3 0.4-0.7 0.2-1.4 0.8-1.5 1.8-0.6 6.8 4.2 0.7 1.8 0.5 3.7 0.9 1.1 1.8-0.3 0.8-1.9 0.5-2.1 0.7-1 1.5 0.5 1.5 1.3 1.1 1.6 0.5 1.3 1.6 2.7 3.8 2.1 4.2 0.9 1.5-0.4z" id="PRK3304" name="Hwanghae-namdo" data-id="PRK3304" data-name="Hwanghae-namdo">
 </path>
 <path d="M335.7 832.9l-3.1-1.5-1-0.7-4.8-2.2-1.1-0.4-3.1-0.6-1 0.1-1.1 0.6-2.8-1-2-1.1-0.5-0.7-1.8-1.6-1-1.3-0.7-0.3-4.8-0.7-0.8-0.4-1.3 0.2-0.7 1-1.3 0.7-1.1 1.2-1.7 1-1.3-0.2-1-1-0.9 0.3-1.3 1.5-0.7 1.2-0.5 2.2-0.5 4.1 0.2 2 0.8 2 1.4 1.8 1.8 1.2 3.7 2 1.4 1.2 5.5 8.2 0.8 1.9 0.3 1.9 0.1 6.5-0.1 1-1 1.9-1.8 1.3-5.9 1.6-1.7 0.8-1.2 0.9-0.8 1-2.7 3.9-0.8 0.9-1.1 0.7-1.3 0.6-3.2 0.7-2.3 0.2-4-0.9-6-2.7-2.6-1.7-5.9-2.8-0.9-1-0.4-1 0.2-3.2-0.5-2-0.7-0.9-1.6-1.5-15.6-8.1-2.3-0.6-10.1-0.5-4.1 0.4-5 2.5-11.1 7.4-4.5 1.7-1.2-3.6-2.3-1.7-2-1-1-0.9-0.8-1.1-0.9-3.2 0-1.5 0.3-1.3 0.5-0.9 1.5-1.3 4.7-1.7 1.6-1.1 0.8-1.2 0.8-1.8 2.4-9 0-2.1-1-3.4-0.8-1.9-1.1-1.5-0.8-3-0.7-11 0.5-2.1 0.6-0.9 11.2-9.1 1.5-1.1 0.2-0.7-0.3-0.8-1.8-1.1-2.4-1.8-0.4-0.7-0.1-0.9 1-4.6 0.1-1.8-0.3-1.4-1.5-4.3-1.3-2.3-0.3-1.5 0.5-1.8 1.3-1.4 6.4-2.1 4.6-3.1 1.7-1.5 1.3-0.4 2.4 1.3 4.7 4.3 2.1 3.7 1.1 1.3 1.4 0.7 4.7 1.3 1 0.9 1.6 2.4 0.4 1.4 0.9 2.9 0.3 2.1 0.6 1.7 0.8 0.4 1.3-0.4 0.2-0.7 0-1.3-0.6-3.9 0.1-1.3 0.9-2.8 1.3-1.8 1.1-1.1 1.3-0.7 2.8-0.7 1.6 0.1 2.2 1 1.4 1.3 2.4 3 0.6 0.5 6.1-1.1 1.7-0.8 1-0.9 1-2.2 0.6-0.6 0.8-0.2 2.1 0.5 1.6 1.8 1.5 2.6 0.9 2.2 0.5 1.9 1.3 1.1 1.2 0.2 5.1-0.3 0.8 0.5 3.3 3.5 1.8 1.4 1.3 0.1 4.6-0.6 2.4 0.3 1 1.6 0.8 2.6 0.1 2.5-0.5 1.9 0.1 1.2 0.8 2.5 1.7 2.3 3.8 3.9 1 0.7 6.6 1.2 1.5 0.7 0.7 1.1 3.9 8.7 0.9 1.6 1 2.2 0.4 2.4 0.4 7.8z" id="PRK3305" name="P'yŏngyang" data-id="PRK3305" data-name="P'yŏngyang">
 </path>
 <path d="M960.9 97.6l-0.6 9.7-2.4 10.5-6.5 3.3-11.4 3.2-8.4 0.8-0.6 5.7 3.6 4-1.2 8.1-8.4 10.6-4.2 9.7 1.7 12.7 0.3 2.9-0.8 12.1-0.8 0.1-1.4-0.6-1.7 1-2.1 2.8 0.5 0.4 0.5 1.3-1.1 0.9-1.5-0.3-2.6-2.2-2-1.1-4.2 0.1-3 2.3-0.8 4-0.2 1.5-2.2 0.4-0.4 1.6-0.8 1.3-1.2 5.1-0.4 3.3-1.1 0.6-1.9-4.5-1.8 0.7-0.3 4.3-2.9 1.6 1.1 0.9 0.7 1.1 1.4 2.2-1.5 0.5-1.2 0.9-1.1 2.4-0.4 2-1.1 3.5-0.6 3.8-1.6 1.4-1.1-0.6-1.5-1.8-3.6-1.5-2.6 1.4-1 4.4-1.1 5.3 0.2 6.8-2.3 6.8-2.2 2-0.5 3.5-1.4 1.2-2.5-4-2.1 0.1-5.9 3.8-1.8 5.9-2 7.1-1.3 2.6-4.1 1.7-3.7 5.3-1.2 6.6-2.1 8.6-3.2 5.5 1.8 4.8-0.4 3.4-0.8 3.1 1.1 6.1 3.4 4.4 5 4.8 3.3-0.3 1.3 2.9 2.1 3 1.8 1.3 0.9 0.1 2.4-0.4 0.9 0.3 1.4 2.1-0.1 0.6-0.8 0.9-0.5 2.7-0.3 0.6-1.2 4.6-0.2 1.1-2.4 1.9-1.7 4.6-6.1 25.8-1.2 9 2.5 7.7-0.9 2.7-0.4 3.2 0.2 6.6 1.1 9.2 0.7 2 2.8 3.5 2.2 1.5-1.5 1.1-0.9 4.5 0.5 1.4-2.8 3.8 0.4 4-1.8 4.8-1.4 2.7-1.6-0.2-1.2-2-2.1 0.8-3.3 0.6-2.9-0.6-2.8 0.7-2.5-0.6-1.8 0.5-4-0.2-2.8 2.2-0.4 3.8-2.9 0.6-2.2 2.4-1.8 0.7-4.6-0.4-7.6 2.6-5.8 4.1-5.8 3.2-1.8 2.2-1.8 3.3-2.6 6.2-1.2 2.8-1.1-0.5-1.5-1.5-1.3-2.9-1.2-2-2.6-0.3-3.1 0.7-2.4 1.9-1.7 4.2 0.1 2.5-0.8 1.5-0.6 3.7-0.7 1-0.5 2.1-0.5 1.2-1.2 1.4-0.7 1.2-0.2 2.1-0.1 5-1.9 0.8-8-0.5-2.9-0.8-2.5-1.6-1.7-2.7-0.4-3.6 0.5-2.9-0.1-2.7-2.3-3.3-6.2-4.9-2.9-3-1.9-3.7-0.4-2.6-0.2-5.2-0.3-2.5-0.9-2.2-1.3-2-2.8-3.5-2-3.2-1-3.2 0.3-3.1 2-3 1-2.8-1.3-3.2-1.8-3.5-0.3-3.3 1.5-3.4 3.5-5.9 0.9-3.7-0.1-5.6-1.1-5.2-3.8-9.7 2.1-5.5-1.6-5.4-2.5-5.5-0.7-5.9 1.1-2.9 3.4-5.4 0.6-3.2-0.9-3.2-1.8-2.3-2.2-2-1.9-2.2-6.6-11.1-2.5-6.4-1.1-6.9 1.7-6.7 4.1-4.2 4.5-3.7 3-5.3-0.2-5.7-2.4-6-3.7-4.9-4.1-2.8-8.1-0.8-2.1-1.2-0.8-2.4 1.3-2 1.8-2.1 1-2.8-0.4-2.4-2.2-3.9-0.9-2.2-0.3-2.8-0.1-7.1 0.2-2.8 0.9-5.4-0.1-2.3-1.2-1.8-1.4-0.1-3.7 1.3-1.3-0.3-0.7-1.4-0.2-1.8-0.1-3.6-0.3-1.9-0.4-1.8-1.9-5.4-0.4-2-0.4-4.5 2.1-0.6 4 1.7 2.1-0.2 1.5-1.3 1.1-1.8 1.9-4 2.8-3.3 6.8-4.2 2.8-3 1.9-4.5 0.4-1.8 3.1 0.8 5.6-1.8 2.3-8.3 1.4-2.8 3.2-0.9 3.7-0.4 2.7-1.4 4.1-4.4 1.6-2.7 0.2-3.7 3.6 2.2 2.7 0.2 2.2-1.5 4.3-5 4.6-4.1 2.8-3.3 2.3-2.2 0.5-1.2-0.8-1.9-3.4-0.3-1-1.5 0.4-2.3 1.4-1.1 1.6-0.6 1.3-0.9 0.6-1.8-0.1-1.7 0.3-1.5 1.8-1.4-1.1-1.2-1.3-0.9-1.3-0.5-1.5-0.1 0-1.6 4.9 0 1.6-1.2 0.9-3-0.3-1.1-1.8-1.3-0.1-1.9 0.5-1.8 0.7-1.4 1.1-0.9 8.3-1.7 1.1-0.5 0.5-3.8 1.3-3.1 1.7-0.9 1.7 2.6 2.2-1.3-1.3-1.8-0.8-1.9 0.3-1.5 1.8-0.5 1.7 0.6 1.4 2.6 2.1 0.9 1.5-0.4 1.6-1.2 1.9-1.1 2.4 0 7.4 6.4 1 1.7 4.4 2.4 0.9 1.6 0.6 2.1 1.2 0.7 1.6-0.3 1.4-1.2 0.8-2.1 0.1-2 0.5-1.6 3.7-1.5 1.1-2.2 0.1-2.8-0.6-2.6 6.5 0.5 5.8 1.6 4.9-0.9 3.9-7 0.8-7.5-0.4-8.2 0.8-7.1 4.1-4.5 0-1.2-2.6-0.7-0.7-2.8 1.5-2.9 3.9-0.9-0.7-3 1.1-1.9 1.3-1.3-0.2-1.7-1.8-1.8-1.6-0.7-1-1.4-0.3-3.9 0.2-2.6 0.6-2.4 1.9-4.4 2.5-5.3 0.8-3 0.6-6.3 5.4-14.9 1.2-2.2 0.8-2.1 0.1-4.9 0.6-2.2 1.8-1.5 4.6-0.6 2.1-0.9-1.4-0.6-1.2-0.8-0.9-1.2-0.7-1.6 1.7-0.7 2.9-1.9 1.7-0.4 2.1 0.4 1.2 1 4.6 6.3 1.5 1.5 2.2 1 1.9 0.3 6-0.3 7.2-3.2 4.2-1 1.9 1.9-0.5 2.8-1.2 3.4-1.7 3-2 1.6 6.4 3 8.3-0.2 6.9 1.2 2.7 7.4-2.2 17.8 0.1 8.1 3 7.3 8.4 8.7 1.2 3.5 10.5 9.2 1.7 0.5 2.5 0 1.1 1 0.4 1.6-0.6 4.1 0.8 2.2 3.2 2.5z" id="PRK3307" name="Hamgyŏng-bukto" data-id="PRK3307" data-name="Hamgyŏng-bukto">
 </path>
 <path d="M497.3 738.7l-1.9 2.5-7.3 2.7 0 1.5 1.8 0.9 3.7 1 1.8 1 1.9-1.5 2.4-0.7 2.1 0.8 0.9 3.3-1 1.4-4.8 1.1-1.5 0.9-0.8-1.2-0.9-0.9-1-0.5-1-0.2-1.5 0.5 0.1 1.1 0.7 1.3 0.2 1.2-1.8 5.3-1.3 5.6-1 5.7 1.7 3.6 1.6 4.1 2.4 1.6 1.7 0.8 3.3 3.7 1.7 1 3-0.5 0.6-1.7-0.3-2-0.1-1.3 2.8-0.3 3.1 7.6 3.1 2.1 11.6-1.2 3.8 1.2 1.7 1.5 1.4 1.8 1.4 1.6 2.2 0.6 10.6 0 2.3 0.3 1.6 1.5 3.5 6.3 4.8 6.8 1 2.1 1 2.8 2.3 3.4 5.2 5.4 0.5 2.5 0.7 0.8 1.4-1.3 1-0.6 0.8 0.6 0.6 1.2 0.5 3.1 0.8 1.5 1.2 1.2 1.5 0.4 2.7 1.7 5.2 8.4 3 3.4 11.7 2.9 18.4 22.9 2.2-0.9 7-3.9 1.9-0.6 4.7 7.4 1.2 1.2 2.6 1.5 1.5 1.4 1.8 3.5 0.3 3.6-0.1 3.5 0.7 3.6-8.7 4.6-4.2 3.3-1 2.6 0.3 3.4 1.3 6.7-0.6 7-2 6.1-3 5.4-3.6 5.1-8.2 8.6-9.8 6.4-10.5 3.7-10.5 0.9-16.2-1-10.1 2.2-2.1-0.6-1.9-1.9-2-2.8-1.3-0.9-29.6 2.6-9.1 2.8-4.6 0.4-14.6-4.4-18.9 1.6-4.9-0.5-10 1.1-10.3 4.2-9.8 6.1-8.4 7-2.8 3.6-2.1 5.1-1.4-2.4-0.4-0.9-1-1.6-2.6-0.4-2.3-1.2-2.5-3.7-0.5-2.6 0.8-2.3 0.9-2 0.1-1.3-0.2-1.1-1.2-1.7-0.8-2.2 0.2-1 0.6-1.4 0.9-1.4 0.9-2.9-0.1-1.3-0.6-0.9-0.9 0-1.6 0.8-1.7 1.4-0.8 0.1-1.2-0.3-1.8-1.7-1.4-0.9-2.5-1-1-0.4-1.1-1.1-0.5-1.2-0.2-1.3-0.5-1.3-10.3-18-1.2-2.5-0.8-3.9-0.2-2.9 0.5-3 0.9-3.1 0.6-2.6-0.2-2.4-0.5-1.5-0.6-1.2-3.3-5-0.8-1.7 0.3-1.9 1.3-1.9 1.9-1.2 9.1-2.9 1.9-1.1 2-1.6 0.9-0.9 1.4-1.9 2.8-6.2 5.2-7.8 2.2-4.1 0.9-3.7 0.5-4-0.1-5.2-0.4-3.7 0-2 0.3-1.5 1.2-2 1.7-1.8 1-0.7 1.9-0.7 7.2-0.5 2-0.6 1.8-1.5 2.6-3.3 1.2-2.6 1.1-2.7 0.6-3.1-0.1-1-0.6-1.8-0.9-1.7-0.9-1-1.5-2.2-1.1-3.1-0.7-7.3 1.8-8.3 3.1-4.5 1.2-0.9 5.2-2.6 0.8-0.9 0.5-1-0.4-1.6-0.6-1.3-4.9-5.8 1.9-1.5 0.3-1.4 0-1.2-1.1-3.4-0.5-3.1 0.4-1.7 0.8-1.1 4.6-1.3 1.3-0.6 1.6-1.5 0.7-1.3 0.3-1.3 0.3-4 1.1-4.2 0.7-6.3 0.6-1.7 0.7-1.5 2.5-2.5 2.4-1.4 2.2-0.4 5.6 1 7.8-1.2 5.1 0.2 7.6 1.5 7.4-1.1 3.8 0.3 1.2-0.3 2.1 0.2 2.1 0.9z" id="PRK3308" name="Kangwŏn-do" data-id="PRK3308" data-name="Kangwŏn-do">
 </path>
 <path d="M429.9 263.1l-0.5 1.2-2.8 5.3-2.4 5.5-1 6.3 0.1 4.9 0.7 4.5 0.8 3 0.3 1.5 0 1.7-1.4 3.1-2.4 1.7-2.7 1.4-2.3 1.9-1.6 2.8-1 2.4-1.4 1.6-2.8 0.7-4.4-0.6-2 0.4-1.7 2.2-0.4 2.6 0.4 3.3 0.9 3.1 1.1 2.2 2.8 2.4 2.7-0.1 5.6-2.6 1.4-0.3 1.7 0 1.4 0.6 0.8 1.6-0.3 1.6-2 2.2-0.5 1.5 0.4 1.3 2.8 4.7 1.1 3.3 0.8 3.4 1 7.1 1.7 4.1 5.1 4.2 1.1 3.2-0.4 2-0.7 1.3 0.2 1.3 1.9 2.2 1.5 2.2 0.7 2.5 0.8 5.7 2 4 2.8 2.5 8.9 6 2 0.6 4.7 0.6 6 1.6 2.1-0.2 3.1-2 1.9-2.7 1.6-3 2.2-3 3.4-2.5 4.5-1.6 4.4 0 3.3 2.4 1.4 3.8 0.8 5.3 0.2 5.4-0.1 4.4-0.7 7.6-2.2 4.9-7.7 8.6-2.5 5.4-1.2 7.3 0.8 7.1 3.3 4.5 5.9 2.8 1.8 2.4 0.2 4.2-0.7 2.7-1.2 2.2-1.6 1.7-2 1.3-6.6 2-12 7.2-3.2 4.7-2.3 11.9-2.9 4.6-1.9 0.9-6.8 1-2.9 0.8-2.2 1.2-2.1 1.7-2.3 2.3-4.7 3.4-3.8 2-1.9 3.4 1 7.5-0.2 5.7-2.8 4.3-3.7 3.9-2.9 4.8-0.9 3.4-0.7 3.6-0.3 3.7 0.1 2.8-0.2 0-3.6 8.1-2.3 2.9-5.8 4.9-1.9 2.6-1.3 4.6-1 2.6-1.1 1.4-1.2 0.6-2.5 0.3-2.2 0.5-2.5 1.2-2.1 1.5-1.5 1.7-1.9 2.6-1.3 1.3-1.2 0.8-3.4 0.7-1.4 0.5-1.4 0.8-9.8 7-1.7 1.5-1.2 1.4-0.8 2.2-0.6 3.9-0.3 1.6-0.9 2-1.2 1-1.1 0.6-4.6 0.3-1.7 0.8-9.1 6.5-2 0.8-2.3-0.3-1.1-0.4-6.7-4.6-5.9-2.8-3.1-0.9-14.2-1.7-3.2-1.4-6.8-4.5-2.2-2.2-6.5-8.5-10.2-9.5-4.1-5.6-2.7-2.9-1.3-0.7-1-0.1-2 0.1-2.1-0.5-1.5-1-1.8-1.5-1.4-0.6-1.3-0.2-2.3 0.1-2.2 0.4-2.2 1-2.1 1.4-1.2 0.4-1.5 0.1-2.3-0.4-1.4-0.6-1.3-0.8-2.4-2.3-17.9-12-5-4.7-1.1-1.4-0.6-1.3 0.2-1.1 2.1-3.1 0.2-1.1-0.2-1-0.7-1.1-6.4-6.8-0.5-1-0.5-2.1 0-1.1 0.3-1.1 1.2-2.3 0.3-1.2 0.7-5.6 0.3-0.8 1.7-2.9 0.8-2.1 0.3-2.2-0.4-1.1-1.3-3.3-1-4.6-0.6-1.4-1-0.7-1.1 0-2.5 0.7-1.4-0.1-1.6-0.6-1.1-0.9-4.7-6.2-1.5-1.5-1.3-1-10.8-6.3 0.5-2.8 1.2-1 2.6 0.5 1.5-0.9 0.5-1.3 0.1-2.8 0.4-1.6 1.5-2.3 1.4-1.2 2-0.5 6.4-0.1 2.1-0.9 1-2.2 0.3-4.4 0.7-4 1.8-1.4 2.3 0.7 2.1 1.8 1.5 2.3 9.1-0.1 2.1-1.4-1.4-3.1-4.4-5.4 5.9-7.6 3.6-2.5 4.7-1 1.3-0.6 1.4-2.7 0.9-0.9 1.6-0.1 1.2 0.4 6.6 3 1.5-0.2 6.3-4.5 2-1 2.5-0.3 1.6 1 1.8 2.1 1.9 1.3 2.1-1 2.2-1.8 4.8-0.6 1.9-1 1.2-2-0.8-1-2.1-0.2-2.5 0.3 1.8-3 2.7-0.9 2.9-0.6 2.6-1.9 3.1-4.8 1-2.5-0.4-1.8 0.9-1.6 1.3-1.1 1.5-0.7 1.6-0.6-0.4-2.7 1.6-2.1 2.3-2.2 1.8-2.8-2.3-3.8 3.7-3.4 17.4-10.4 2.2-1.9 1.4-2.3 3.9-9 1.8-2.2 3.9-3.9 1.7-2.4 3.5-8.5 1.7-2.6 7.6-9.2 4.9-3.7 4.4 0.1-1.1 2.3-1 0.6 0 1.5 5.3-1.5 0-5.3-2.1-6.4-1.1-5.2 1-2.6 5.3-8.6 2.6-9.3 2.8-5.7 0.6-2.8-0.6-2.6-1.7-2.8 0.1-2.6 5.4-5.7 2.4-4.9 2.5-0.6 5.5 0.3 1.6-1 5-4.5 2.4-1.5-2.1-1.8-2.3-1.3-1.9-1.6-1.2-2.5 2.7-1 2.4 0 2.3 0.9 2.2 1.5 4.6 5.1 2.6 1.8 1.2-1.9 1.9-5.1 8.6-3.6 2-5.4 1.5-2.4 3.2-2.3 3.3-1 1.5 1.5 0.2 4.6 0.8 1.1 1.9-0.1 3.5 0.7 2.9 2.3z" id="PRK3310" name="Chagang-do" data-id="PRK3310" data-name="Chagang-do">
 </path>
 <path d="M725.7 399.3l3.8 9.7 1.1 5.2 0.1 5.6-0.9 3.7-3.5 5.9-1.5 3.4 0.3 3.3 1.8 3.5 1.3 3.2-1 2.8-2 3-0.3 3.1 1 3.2 2 3.2 2.8 3.5 1.3 2 0.9 2.2 0.3 2.5 0.2 5.2 0.4 2.6 1.9 3.7 2.9 3 6.2 4.9 2.3 3.3 0.1 2.7-0.5 2.9 0.4 3.6 1.7 2.7 2.5 1.6 2.9 0.8 8 0.5-0.8 1.7-0.7 2.1-5.5 7.1-5.7 7.8-7.3-0.3-8.4 2.8-11.7 12.5-6 5.3-4.6 0.9-2.6 2.5-5.1 1.6-2.6 0.1-1.8 2.3-4.7-0.7-5.2 1.5-2.8 4.2-2 0-0.2-1.9-2.9 1.4-2.7 3.2-0.4 5.2 1.9 1.1 4.3 1.8 0.6 1.9 1.1 1.5-0.8 3 0.3 4.8-2.1 0.9-1.4 1.3-1.9 2.1-1.1-0.1-2.1-1-3-0.2-1.7 1.3-5.3 2.7-1.1 3.1-1.3 1.6-2.7 1.6-4.7 0.1-2.1 2.1-2.7 3-2.1 1.1-3.6 1.6-3-0.7-4.2 0.6-4.1 6-1.6 7.8-3.9-1.1-3.4-6.4-2.6-2.4-4.1 1.9-1.3 2.3 1 5.4-1.5 0.4-3.3-0.4-1.5 0-1.7 0.7-2.8 1.6-1.4 0.4-1.3-0.4-1.1-1.9-20.4-3.5-0.7 0.9-0.2 2.9-0.5 1.1-1.2 1.1-1.6 0.9-1.4 0.3-1.1 1-2.5 4.5-1.1 1.4-1.5 0.6-3.6-2.4-2.4 4.5 0 3.5-1.1 8.4-1.5 1.8-14.2 1.5 2.2 2-0.4 2-4.8 2.4-5.4-0.7-4.9 1.8-2.4 6.4-2.6 1.9-2.2-2.8-3.8-2.1-2.6 4.2-2.2 0.8-2.6 2-2.2 2.4-1.9 4.6-4.4 2.9-1 1.6-0.3 1.5-1.3 3.2-0.4 1.6 0.1 1.8 0.7 2.9 0.3 4.7 0.6 2.2 1 0.9 1.4-0.2 3.8 1.8 2.7 3.8 0.7 4.5-5.8 8.6-2.5 8.3 2.3 13.3 4.2 19.9-0.1 5.5-1.2 2-1.7 0.8-1.8-0.6-1.5-2.2-0.2-2.6 1-3 2.3-5.4-5.3-7.5-0.6-2.7-1.3-2.1-1.9-0.7-2 1.4-4.5 4.4-0.4 0.5-2.1-0.9-2.1-0.2-1.2 0.3-3.8-0.3-7.4 1.1-7.6-1.5-5.1-0.2-7.8 1.2-5.6-1-2.2 0.4-2.4 1.4-2.5 2.5-0.7 1.5-0.6 1.7-0.7 6.3-1.1 4.2-0.3 4-0.3 1.3-0.7 1.3-1.6 1.5-1.3 0.6-4.6 1.3-0.8 1.1-0.4 1.7 0.5 3.1 1.1 3.4 0 1.2-0.3 1.4-1.9 1.5-3.3-1.7-1.5-0.5-2.3 0-4.3 0.8-2.3-0.2-1-0.6-0.8-0.9-0.2-1.1 1.1-3.9 0.1-1.3-0.1-1.6-0.7-2-0.7-1.4-0.9-1-2.1-0.9-2.3 0-1.1 0.3-1 0.7-1.7 1.8-0.9 0.5-0.9 0-0.6-0.8-0.4-1-0.6-2.2-0.8-2-1.4-1.7-1.2-0.7-1.2-0.4-2.1 0-2.2 0.5-5.1 2.5-1.8 0.3-1.1-0.2-1.1-0.4-1.1-0.7-1-1-1.4-2.1-0.4-1.1 0-2.4 0.5-3.4 3.2-13.1 2.3-6.1 0.3-1.3-0.1-1.4-0.7-2.1-0.8-1.3-1-1.1-1.1-0.8-3.8-3.5-1.6-2-1-2.1 0-1.6 0.3-2.1 1.4-3.7 1.1-1.8 1.1-1.4 1-0.8 0.8-1.2 0.5-1.5 0.1-2.3-0.2-1.5-0.3-1.2-1.2-3.2-0.1-1.3 0.3-1.5 1.1-2.1 6-6.4 0.5-1.9-0.3-1.4-0.5-0.5-3.1-0.7-0.9-0.6-0.5-1.2 0.3-1.6 2.1-4.2 2.6-3.8 0.9-2.2 2.2-7.3 0.7-1.8 0.9-1.3 1-0.9 2.1-1.4 2-0.8 8.6-2.1 9.9 0 2.3 0.5 2.1 0.7 1.8 1.4 0.7 1 2 3.3 0.7 0.8 1.6 0.2 1.9-1.2 1.3-1.7 0.9-0.6 1.2-0.3 6.1-0.5 1.9-1.3 1.3-1.9 0.9-2 0.6-2.5-0.2-2-0.7-1.9-4.6-8.4-0.6-1.7-1.9-8-0.4-2.6 0-2.2 0.7-0.9 2.1-0.8 0.9-0.4 0.5-1-0.1-1.4-0.3-2.1 0-1.5 0.3-1.2 1.3-1.4 10.6-8.6 1.5-2 0.9-2.1 0-2.4-0.8-1.5-1.5-1.5-5.7-3.6-1.5-1.3-0.9-2-0.6-2.9-0.7-5.7 0.4-1.5 0.9-2.2 0.4-2.1-0.5-2.1-0.8-1.2-7.3-7.2-1.3-1-2.1-1-2.8-0.9-2.1-0.4-14 0.4-0.1-2.8 0.3-3.7 0.7-3.6 0.9-3.4 2.9-4.8 3.7-3.9 2.8-4.3 0.2-5.7-1-7.5 1.9-3.4 3.8-2 4.7-3.4 2.3-2.3 2.1-1.7 2.2-1.2 2.9-0.8 6.8-1 1.9-0.9 2.9-4.6 2.3-11.9 3.2-4.7 12-7.2 6.6-2 2-1.3 1.6-1.7 1.2-2.2 0.7-2.7-0.2-4.2-1.8-2.4-5.9-2.8-3.3-4.5-0.8-7.1 1.2-7.3 2.5-5.4 7.7-8.6 2.2-4.9 0.7-7.6 6.3 1.5 6.4 0.4 3-1 1.7-2.5 0.9-3.5 0.7-4 2.5-6 4-1.7 10.4 2.2 5.6 2.8 2 5-0.2 6.6-1 7.8-0.7 2.8-1.2 2.3-1.7 1.6-2.2 0.8-4.7 0.4-2 1.1 0.6 2.4 3.9 6.2 0.4 5.2-2.5 4.7-9.5 7.5-2.1 2.1-1.3 2.3 0.3 2.6 2.1 0.9 2.7 0.8 2.2 2 0.8 2.6 0.9 5.4 0.8 2.5 6.2 11.1 1.7 2.4 1.6 1.1 1.8 1 1.9 1.6 1.3 3 1 7.4 0.9 3.3 1.2 1.9 1.4 1.2 1.6 0.7 1.9 0.4 4.9 0.1 1.9 0.9-1 2.2-1.6 2.3 0 2 0.6 2.2 0.4 3-0.4 2.7-0.9 1.7-2.9 3.3-1.3 2.4-0.5 2.4-0.1 5.5 0.2 3.9 1 2 1.8 0.5 2.7-0.8 9.9-5.7 14-11.2 2.1-2.7 1.3-3.1 0.9-3.2 1.1-2.7 1.4-2.3 2.2-1.7 12-4.3 2.3-0.2 2.3 0.5 1.9 1.5 3.9 3.9 4.4 2.1 4.4-0.5 4-4.1 6.1-9.4 2.4-2.7 7.2-6.2 1.8-2.6 0.8-2.4 0.8-7.8 0.9-2.4 2.4-4.1 1-2.4 0.9-3.6 0.4-3.5 0.5-7.2 0.5-3.6 1.9-6.9 0.4-3.3-1.1-5.5-2-6.3-0.7-5.5 2.5-2.9 4.9-0.3 5.6 0.5 5.5-0.3 4.4-2.3 1.9-2.5 2.8-5.8 1.7-2.5 2.6-1.7 6.3-2.3 1.9-2.1 0.6-2.6 0.5-3.4 0.2-3.5-0.1-2.5 0.5-2.5 2.3-0.3 6.4 2.1 1.8-0.1 3.8-1.1 2.3-0.2 2.3 0.6 16.1 7.5 5.8 3.6 4.2 5z" id="PRK3311" name="Hamgyŏng-namdo" data-id="PRK3311" data-name="Hamgyŏng-namdo">
 </path>
 <path d="M61.8 734.1l-0.7 0.2-0.9-0.6-0.5-1.7 0-1.6 1.3-0.5 1.7-1.6 0.4 2 0.4 0.6 0.2 2.3-1.9 0.9z m15.1-16l-1.1 1.2-2-0.1-0.7-0.9 0.6-1.7-0.3-1 1.8-2.8 1.7-0.4 0.5 1.3 0 2.2-0.5 2.2z m-2.1-12.2l1.1 1.4-0.4 1.8-1.3 1.8-1.8 1.2-2.1 0-2.6-1.8-6.4 1.8-0.5 0.5-0.7-0.4 0.3-1.3 1.1-0.9 1.5-0.9 2.5-2.3 0.7 0.2 2.1-0.2 3.8-1.1 2.7 0.2z m29.5 8.4l-3.3 4-2.9 0.5-3.7 1.9 2.8-5.1 2 0.9 1.1-2.3-2.2-2.1 0.4-0.9 1.7-0.2 0.5-1.8-0.8-0.7 0-3.4 2.5-1.4-0.1-3 1.8-1.6-0.2-1.7 2.9-0.4 4.2 1.9-0.7 1.3-1.9 0.9 1.6 4.3 2.1 4.3-7.8 4.6z m-100.8-53.4l-1 0.2-1.4-0.3-0.1-0.9 0.5-1.5 0.7-0.7-0.2-0.8 0.5-0.9 1.4-0.4 0.7 0.7 0.2 0.8 0.6 0.2-0.1 1 0.5 0.1-0.1 1.1-1 0.7-0.8 0-0.4 0.7z m182.7-172.9l10.8 6.3 1.3 1 1.5 1.5 4.7 6.2 1.1 0.9 1.6 0.6 1.4 0.1 2.5-0.7 1.1 0 1 0.7 0.6 1.4 1 4.6 1.3 3.3 0.4 1.1-0.3 2.2-0.8 2.1-1.7 2.9-0.3 0.8-0.7 5.6-0.3 1.2-1.2 2.3-0.3 1.1 0 1.1 0.5 2.1 0.5 1 6.4 6.8 0.7 1.1 0.2 1-0.2 1.1-2.1 3.1-0.2 1.1 0.6 1.3 1.1 1.4 5 4.7 17.9 12 2.4 2.3 1.3 0.8 1.4 0.6 2.3 0.4 1.5-0.1 1.2-0.4 2.1-1.4 2.2-1 2.2-0.4 2.3-0.1 1.3 0.2 1.4 0.6 1.8 1.5 1.5 1 2.1 0.5 2-0.1 1 0.1 1.3 0.7 2.7 2.9 4.1 5.6 10.2 9.5 6.5 8.5 2.2 2.2 6.8 4.5 3.2 1.4 14.2 1.7 3.1 0.9 5.9 2.8-2.1 3.5-0.5 1.6-0.3 2.3-0.2 2.5 0.6 2.2 3.2 5.6 0.8 2.4 0.1 2.5-0.3 1.2-0.9 1.1-1.5 1-3.5 1.4-10.9 5.8-24.4 6.5-1.3 0-1.1-0.2-2.2-0.9-2.1-1.4-0.9-0.8-3.7-4.1-0.9-0.4-0.9 0.1-1.1 1.1-0.5 1.2-0.7 3-1.3 1-2 1.1-1.8 1.9-1.8 3.2-1.3 1.7-3 2.5-2.7 3.1-1.1 0.9-1.4 0.7-4.9 1-1.1 1.7-0.4 2.3-0.8 1.4-5.1 6.6-7.3 5.2-9.4 4.7-2.7 0.8-2.7 0-3.2-0.6-1.3 0.1-1.2 0.4-3.1 2.7-7.8 4.6-9 3.7-8.1 1.2-1-2.3-2.3 1.8-16 8.4-3.4 1.2-1.3 0.8-1.4 0.4-1.4-1-4-5-0.7-0.5-1.4-1.8-2.7-0.8-1.4-1.3 2.2-3.6-10.4 0 0.6 1.2 1 3.1 0.5 1.2-6.8 0-1.5-0.4-0.4-1.1-0.1-1.3-1.5-3-0.4-1.2-0.6-0.8-1.8-0.3-2.4 0.5-1.5 0.1-2-0.6-1.1-0.9-3.4-3.1-0.7-0.9-0.5-1.3-1.1-0.3-1.4 0-1.2-0.4-4.3-4.6-1.7-0.2-1.5 3.4-1.7-1.4-2.1-0.7-1.7-1.2-1.4-5.9-1.7-2.5-2.4-1.9-2.6-1.5-2.4-0.9-3.4-0.5-1.3-0.4-0.6-1.9-4.4-0.4-1.5-1.2-0.7-4.6-1.5-2.4-0.9 2.1-0.2 2 0.6 1.9 1 1.5 0.8 2.3-0.7 2.3 0 2.5-0.9 1.7 0 2 1.9 0.7-0.6 3.1-1.9 0.1-1.7 1.3 0.7 2.1 1.5 2.1-1.3 0.5-2.9-1.1-3.3 1.9-3.1 3.1-4 2-1.3 3.5-0.5 0.8-2.1-1.4 0.3-1.5 0.6-1.3-1.1-0.3-1-0.9-0.8-2.2 2.8-3.2 0.5-3.6 2-1.3 0.8-2.9-0.5-2.8-1.1-0.1-1.3 0.9-1.2 0-0.6-0.8-1-2.4-0.6-1-1.4-0.9-1.3-0.3-1.1-0.6-0.3-1.6 0.1-1.8 0.7-3.1 0.2-1.9-0.7-1-2.8-1.6-0.7-1.6 0.6-4.1-0.2-1.4-1.4-0.6-5.5-0.2-13.1-2.5-0.7 0.3-1.1 1-0.8-0.1-0.6-0.6-0.6-1.7-0.9-1.1-0.7-3.6-0.4-1.2-1.1-0.5-4.1-0.7-2.1-4.3-1.1-1.4-1.1-1.1-2-1.4 1.6-2.5 2.1-1.1 2.1-0.6 1.6-1.3 0.9-2.9 1.1-9.7 3.5-5.1 4.4 0.7 4.8 1.9 5.2-1.5-3.1-1.7-7.1-0.4-3.5-0.6-2.9-2.5-1.1-3.3-0.6-3.6-1.6-3.1 2.4-2.5 21.9-20.9 0.7-0.3 1.6-0.4 0.9-0.6 0.2-0.8 0.3-2.3 0.4-1.1 2.5-2.2 6.2-4 2.5-2.8 2.3-1.6 7.8-1.7 3-1.5 1.6-3.4 1.3-4.6 1.5-4.2 2.4-1.8 3.5-0.8 3.3-2.2 7.5-7.5 5.2-6.9 1.1-2.5 0.7-1.2 1.6 1.5 1.5 2.1 0.4 1 1.2 0.6 1.5 0.5 3.7 0.4 4.1-0.8 3.1 0.3 3.1-0.3 2.3-0.7 0.7-2-1.1-2.5-1.7-2.5-1.9-2.6 0-2.7 1.5-2.5 3.8-1.5 3.6-1.3 2.5-1.5 3.8-1.8 2.9-1.7 3-2.3 4.4-2 5.4-1.8 4-1.7 2.1-0.8 1.3-1.5 1.9-4.3 2.5-1 2.3-0.2 2.3 1 2.1 0.7 3-1 1.1-0.1 1.4 0.6 1.9 1.8 0.9 0.5 3.5 0.1 0.6-1.5-0.3-2.7z" id="PRK3312" name="P'yŏngan-bukto" data-id="PRK3312" data-name="P'yŏngan-bukto">
 </path>
 <path d="M433.8 778.6l4.9 5.8 0.6 1.3 0.4 1.6-0.5 1-0.8 0.9-5.2 2.6-1.2 0.9-3.1 4.5-1.8 8.3-8.6 1.1-3.3-0.5-2.1-1.4-7.9-6.7-2.3-1.2-2.3-1-4.9-0.9-2.1-1.1-2.3-2-1.8-1.1-1.1-0.4-2.4-0.2-7.4 1.9-2.3 0.4-2.5-0.1-1.1-0.4-2.2-1.2-1-0.9-2.3-3.2-1.1-0.7-1.3 0.3-1.4 1.3-1.1 2.5-0.3 1.7-0.1 1.5 0.5 2.2 0.4 1 2.1 3.2 0.5 1.1 0.7 2.1 1.2 2 3.6 3.6 1.1 2 0.9 3.1 1.1 2.2 1.3 2 1.2 1.4 0.6 1 0.5 1.9-1.2 0.9-2.2 0.9-5.6 0.6-2.6 0-2-0.3-7.6-5-1.1-0.4-1.2 0.3-1.2 0.8-1.8 2.4-0.4 1.5 0.2 1.3 1 1.9 0.7 2 0.3 1.7 0.1 2.1-0.6 2.2-1.6 1.7-2.5 0.1-1.8-0.1-10.8-3.7-0.4-7.8-0.4-2.4-1-2.2-0.9-1.6-3.9-8.7-0.7-1.1-1.5-0.7-6.6-1.2-1-0.7-3.8-3.9-1.7-2.3-0.8-2.5-0.1-1.2 0.5-1.9-0.1-2.5-0.8-2.6-1-1.6-2.4-0.3-4.6 0.6-1.3-0.1-1.8-1.4-3.3-3.5-0.8-0.5-5.1 0.3-1.2-0.2-1.3-1.1-0.5-1.9-0.9-2.2-1.5-2.6-1.6-1.8-2.1-0.5-0.8 0.2-0.6 0.6-1 2.2-1 0.9-1.7 0.8-6.1 1.1-0.6-0.5-2.4-3-1.4-1.3-2.2-1-1.6-0.1-2.8 0.7-1.3 0.7-1.1 1.1-1.3 1.8-0.9 2.8-0.1 1.3 0.6 3.9 0 1.3-0.2 0.7-1.3 0.4-0.8-0.4-0.6-1.7-0.3-2.1-0.9-2.9-0.4-1.4-1.6-2.4-1-0.9-4.7-1.3-1.4-0.7-1.1-1.3-2.1-3.7-4.7-4.3-2.4-1.3-1.3 0.4-1.7 1.5-4.6 3.1-6.4 2.1-1.3 1.4-0.5 1.8 0.3 1.5 1.3 2.3 1.5 4.3 0.3 1.4-0.1 1.8-1 4.6 0.1 0.9 0.4 0.7 2.4 1.8 1.8 1.1 0.3 0.8-0.2 0.7-1.5 1.1-11.2 9.1-0.6 0.9-0.5 2.1 0.7 11 0.8 3 1.1 1.5 0.8 1.9 1 3.4 0 2.1-2.4 9-0.8 1.8-0.8 1.2-1.6 1.1-4.7 1.7-1.5 1.3-0.5 0.9-0.3 1.3 0 1.5 0.9 3.2 0.8 1.1 1 0.9 2 1 2.3 1.7 1.2 3.6-0.2 2.5 1 2.8 1.7 2.3 2.8 2.9 0.6 1.1 0.3 1.4 0.3 5.1 1.9 5.8-1.6-0.5-3.1-0.1-1.6-0.8-7-8.9-2.4-1.9-2-0.4-3.7 0-1.8-0.9-1-1.3-3.9-7.4 0.1-1.1-1.4 0.3-1 2.5-1.2 1.4-2.1 0.2 1.4 0.9 1.2 1.2 1 1.5-2.3 1.5-4.6 2.3-2.5-0.6-1.6-2.8-1 0-0.9 2.6-1.4 0.8-4.1-0.7-0.7-1.7-0.6-1-0.8 0-0.8 1.2 0.3 1.3 1.6 1.7 0 1.2-2.2 0.8-2.5 0-2.3-0.9-2-1.9-0.9-2.2 0.5-1.6 3-3.6-2.1-1.5 0.8-1.9-0.8-2.3-1.8-1.8-2.5-0.6 0.9 4.7-2.2 6.4-4.4 0.2-1.7-2.5-0.7-2.3-2.4-1.2-1.8-1.6-1.2-5.2 0.9-3.3 0.7-3.3 0.7-10.8 1.8-4.7 1.4-4.6 2.6-3.9 1.7-3.3-0.3-2.2 2-3 3.3-5.7 2.9-3.9 1.2-3.3 1.7-2.8 3.1 0 3.8 0.2 2.9-0.8-7.8-1.2 1-3 0-1.3-0.7-1.1 0.3-1.3-0.1-1.7 0.3-1.4 0.6-0.9 0.2-0.8-1.1-0.9 1.4-1.9 1.6-0.7 3.9-0.1 1.7-0.6-0.5-1.4-1.2-1.8-0.5-1.7 2.3-3.9 3.3-1.5 3.6 0.1 3.4 1.3-0.9-3-1.4-1.6-0.4-1.8 5.9-10.9 2-2-2.4-0.3-2-1.6-0.8-2.6 1.1-3.5-0.7-0.7-1.4-2 2.2 0.8 0.9 0.7 3.2-2 1.4-1.5 0.7-2.1-3.2 0-9.5-1.5-3-1.2 0.5-2.9 3.6-5.4-1.7-0.1-1.6 0.2-1.6 0.5-1.4 0.7 0.5-5.1 2.2-3 3-2.4 2.7-3.1 0.8-2.3 0.6-2.8 1.1-2.2 4.4-1.8 1.3-2.1 0.2-2.6-0.1-0.3 8.1-1.2 9-3.7 7.8-4.6 3.1-2.7 1.2-0.4 1.3-0.1 3.2 0.6 2.7 0 2.7-0.8 9.4-4.7 7.3-5.2 5.1-6.6 0.8-1.4 0.4-2.3 1.1-1.7 4.9-1 1.4-0.7 1.1-0.9 2.7-3.1 3-2.5 1.3-1.7 1.8-3.2 1.8-1.9 2-1.1 1.3-1 0.7-3 0.5-1.2 1.1-1.1 0.9-0.1 0.9 0.4 3.7 4.1 0.9 0.8 2.1 1.4 2.2 0.9 1.1 0.2 1.3 0 24.4-6.5 10.9-5.8 3.5-1.4 1.5-1 0.9-1.1 0.3-1.2-0.1-2.5-0.8-2.4-3.2-5.6-0.6-2.2 0.2-2.5 0.3-2.3 0.5-1.6 2.1-3.5 6.7 4.6 1.1 0.4 2.3 0.3 2-0.8 9.1-6.5 1.7-0.8 4.6-0.3 1.1-0.6 1.2-1 0.9-2 0.3-1.6 0.6-3.9 0.8-2.2 1.2-1.4 1.7-1.5 9.8-7 1.4-0.8 1.4-0.5 3.4-0.7 1.2-0.8 1.3-1.3 1.9-2.6 1.5-1.7 2.1-1.5 2.5-1.2 2.2-0.5 2.5-0.3 1.2-0.6 1.1-1.4 1-2.6 1.3-4.6 1.9-2.6 5.8-4.9 2.3-2.9 3.6-8.1 0.2 0 14-0.4 2.1 0.4 2.8 0.9 2.1 1 1.3 1 7.3 7.2 0.8 1.2 0.5 2.1-0.4 2.1-0.9 2.2-0.4 1.5 0.7 5.7 0.6 2.9 0.9 2 1.5 1.3 5.7 3.6 1.5 1.5 0.8 1.5 0 2.4-0.9 2.1-1.5 2-10.6 8.6-1.3 1.4-0.3 1.2 0 1.5 0.3 2.1 0.1 1.4-0.5 1-0.9 0.4-2.1 0.8-0.7 0.9 0 2.2 0.4 2.6 1.9 8 0.6 1.7 4.6 8.4 0.7 1.9 0.2 2-0.6 2.5-0.9 2-1.3 1.9-1.9 1.3-6.1 0.5-1.2 0.3-0.9 0.6-1.3 1.7-1.9 1.2-1.6-0.2-0.7-0.8-2-3.3-0.7-1-1.8-1.4-2.1-0.7-2.3-0.5-9.9 0-8.6 2.1-2 0.8-2.1 1.4-1 0.9-0.9 1.3-0.7 1.8-2.2 7.3-0.9 2.2-2.6 3.8-2.1 4.2-0.3 1.6 0.5 1.2 0.9 0.6 3.1 0.7 0.5 0.5 0.3 1.4-0.5 1.9-6 6.4-1.1 2.1-0.3 1.5 0.1 1.3 1.2 3.2 0.3 1.2 0.2 1.5-0.1 2.3-0.5 1.5-0.8 1.2-1 0.8-1.1 1.4-1.1 1.8-1.4 3.7-0.3 2.1 0 1.6 1 2.1 1.6 2 3.8 3.5 1.1 0.8 1 1.1 0.8 1.3 0.7 2.1 0.1 1.4-0.3 1.3-2.3 6.1-3.2 13.1-0.5 3.4 0 2.4 0.4 1.1 1.4 2.1 1 1 1.1 0.7 1.1 0.4 1.1 0.2 1.8-0.3 5.1-2.5 2.2-0.5 2.1 0 1.2 0.4 1.2 0.7 1.4 1.7 0.8 2 0.6 2.2 0.4 1 0.6 0.8 0.9 0 0.9-0.5 1.7-1.8 1-0.7 1.1-0.3 2.3 0 2.1 0.9 0.9 1 0.7 1.4 0.7 2 0.1 1.6-0.1 1.3-1.1 3.9 0.2 1.1 0.8 0.9 1 0.6 2.3 0.2 4.3-0.8 2.3 0 1.5 0.5 3.3 1.7z" id="PRK3313" name="P'yŏngan-namdo" data-id="PRK3313" data-name="P'yŏngan-namdo">
 </path>
 <path d="M719.6 205.6l-0.4 1.8-1.9 4.5-2.8 3-6.8 4.2-2.8 3.3-1.9 4-1.1 1.8-1.5 1.3-2.1 0.2-4-1.7-2.1 0.6 0.4 4.5 0.4 2 1.9 5.4 0.4 1.8 0.3 1.9 0.1 3.6 0.2 1.8 0.7 1.4 1.3 0.3 3.7-1.3 1.4 0.1 1.2 1.8 0.1 2.3-0.9 5.4-0.2 2.8 0.1 7.1 0.3 2.8 0.9 2.2 2.2 3.9 0.4 2.4-1 2.8-1.8 2.1-1.3 2 0.8 2.4 2.1 1.2 8.1 0.8 4.1 2.8 3.7 4.9 2.4 6 0.2 5.7-3 5.3-4.5 3.7-4.1 4.2-1.7 6.7 1.1 6.9 2.5 6.4 6.6 11.1 1.9 2.2 2.2 2 1.8 2.3 0.9 3.2-0.6 3.2-3.4 5.4-1.1 2.9 0.7 5.9 2.5 5.5 1.6 5.4-2.1 5.5-4.2-5-5.8-3.6-16.1-7.5-2.3-0.6-2.3 0.2-3.8 1.1-1.8 0.1-6.4-2.1-2.3 0.3-0.5 2.5 0.1 2.5-0.2 3.5-0.5 3.4-0.6 2.6-1.9 2.1-6.3 2.3-2.6 1.7-1.7 2.5-2.8 5.8-1.9 2.5-4.4 2.3-5.5 0.3-5.6-0.5-4.9 0.3-2.5 2.9 0.7 5.5 2 6.3 1.1 5.5-0.4 3.3-1.9 6.9-0.5 3.6-0.5 7.2-0.4 3.5-0.9 3.6-1 2.4-2.4 4.1-0.9 2.4-0.8 7.8-0.8 2.4-1.8 2.6-7.2 6.2-2.4 2.7-6.1 9.4-4 4.1-4.4 0.5-4.4-2.1-3.9-3.9-1.9-1.5-2.3-0.5-2.3 0.2-12 4.3-2.2 1.7-1.4 2.3-1.1 2.7-0.9 3.2-1.3 3.1-2.1 2.7-14 11.2-9.9 5.7-2.7 0.8-1.8-0.5-1-2-0.2-3.9 0.1-5.5 0.5-2.4 1.3-2.4 2.9-3.3 0.9-1.7 0.4-2.7-0.4-3-0.6-2.2 0-2 1.6-2.3 1-2.2-1.9-0.9-4.9-0.1-1.9-0.4-1.6-0.7-1.4-1.2-1.2-1.9-0.9-3.3-1-7.4-1.3-3-1.9-1.6-1.8-1-1.6-1.1-1.7-2.4-6.2-11.1-0.8-2.5-0.9-5.4-0.8-2.6-2.2-2-2.7-0.8-2.1-0.9-0.3-2.6 1.3-2.3 2.1-2.1 9.5-7.5 2.5-4.7-0.4-5.2-3.9-6.2-0.6-2.4 2-1.1 4.7-0.4 2.2-0.8 1.7-1.6 1.2-2.3 0.7-2.8 1-7.8 0.2-6.6-2-5-5.6-2.8-10.4-2.2-4 1.7-2.5 6-0.7 4-0.9 3.5-1.7 2.5-3 1-6.4-0.4-6.3-1.5 0.1-4.4-0.2-5.4-0.8-5.3-1.4-3.8-3.3-2.4-4.4 0-4.5 1.6-3.4 2.5-2.2 3-1.6 3-1.9 2.7-3.1 2-2.1 0.2-6-1.6-4.7-0.6-2-0.6-8.9-6-2.8-2.5-2-4-0.8-5.7-0.7-2.5-1.5-2.2-1.9-2.2-0.2-1.3 0.7-1.3 0.4-2-1.1-3.2-5.1-4.2-1.7-4.1-1-7.1-0.8-3.4-1.1-3.3-2.8-4.7-0.4-1.3 0.5-1.5 2-2.2 0.3-1.6-0.8-1.6-1.4-0.6-1.7 0-1.4 0.3-5.6 2.6-2.7 0.1-2.8-2.4-1.1-2.2-0.9-3.1-0.4-3.3 0.4-2.6 1.7-2.2 2-0.4 4.4 0.6 2.8-0.7 1.4-1.6 1-2.4 1.6-2.8 2.3-1.9 2.7-1.4 2.4-1.7 1.4-3.1 0-1.7-0.3-1.5-0.8-3-0.7-4.5-0.1-4.9 1-6.3 2.4-5.5 2.8-5.3 0.5-1.2 5.1 4.2 1.5-0.2 0.6 2.8 3.3 5.3 1.3 2.6-2.6-0.3-1.6 0.9-0.6 2.1 0.6 3 1.5 2 2.3 1.6 4.7 2-1.1 2.8 2.5 0.4 8.1 3.2 2.1 2-3.4 1.4-3.3 1.9-2.8 2.8-2.1 3.7 2.5 0.6 1.1 0.6 1 2 1.2-0.4 2.1-1.4 1.4 0.5 1.4 1.9 0.9 0.4 1.1-0.9 2-4.2 1.1-0.8 2.3 1 3.4 2.7 2.1 0.5 1.5-0.4 1.1-0.6 1-0.2 1.2 1.2 0.1 1.4-1 1.3-2.2 1.5 2.7 1.2 2.9 0.9 6 0.7 1.4-0.3 2.7-1.1 1.2-0.1 1.5 0.5 2.5 2.4 3.4 0.3 2.5-1 2.1-1.4 2.6-0.8 2.6 0.7 2.7 1.4 2.7 0.8 2.6-1.4 0.3 4.6 2.2 2.2 5.9 1.6 5.1 3.6 1.2 0.6 1.3-0.6 1.7-2.8 0.7-0.1 4.3 1.6 14.5 0.5 4-1.4 2.8 2 3.1 0.5 2.5-1.2 1-3.4 1.5-1.4 3.4-1.2 6.2-0.9 4.7 4.2 1.5-0.7 1.3-1.5 1.3-2 1.7 2.2 0.1 3.7-0.2 3.7 0.6 2.2 1.3 0.4 1.5-0.5 2.6-1.4-0.6 4.5 2.7 2.1 3.7-0.1 2.4-2.2 2.2 1.3-2.2 2.9 6.5 0.6 6.1-5.8 15.7-28.8 2.3-7.9-3-4.5-0.3-3.7-1.9-4.2-2.8-3.4-4.1-1.9-5.9-4.9-4.1-3.9-0.6-4.5-1.7-4.3-7.3-14-0.9-4-5.1-1.7-1.5-2.9-1.2-3.2-3-17.7 0.1-3 2-2.9 3.1-1 7.1-0.1 24.8-7 15.7 1.3 3.6 1.2 3.1 2.6 7.2-0.5 5.2 2.7 2.2 0.3 6.4-2.5 1.4 0.3 1.7 1.2 1.5-0.7 2.1-3.3 1.5-1.4 1.6-0.7 11.5 1 4.1-1 1.8-3.6 14.8 0.8 10.2 2.8z" id="PRK3314" name="Ryanggang" data-id="PRK3314" data-name="Ryanggang">
 </path>
 <path d="M935.6 179.3l-2.1 2.3-0.8-1.2-0.4-1.8-0.7-0.3 0.3-1.1 1.6-2.1 1.7 1.5 0.4 2.7z m-13.1-3.4l-1.7-12.7 4.2-9.7 8.4-10.6 1.2-8.1-3.6-4 0.6-5.7 8.4-0.8 11.4-3.2 6.5-3.3 2.4-10.5 0.6-9.7 2.4-1.1 0.5-3.1-2.5-3.2 2-3.2 2.5-2 2.7-0.2 2.3 2.4 0.4 2.2 0.9 8.3 0.9 3.9 1.8 4.1 0.3 0.9 0.2 2.3 0.6 1 0.8 0.6 0.6 1 2.6 7.8 1.8 2.8 2.8 2.4 3.5 1.2 2.7 2.9 1.6 3.7 0.6 5 0 5.3 0.4 2.7 1.5 2 4.2 3.3-0.7 1.3-4.3 1.2-5.5 1.8-2.3 0.5-2 1.9-1 0.1 0.2-3.8-0.1-2.3-0.4-1.3-2-2-2-1.6-4.4-0.6-3.3-1.9-1.4-1.7-4.5-0.9-2.3 1.1 0.5 2.6-2 2.2-2.5 0.5-1.2-1.9-2-1.3-1.8 0-0.2 3.6-1.9 1.5-1.5 1.8 0.4 2.9-0.1 1.4 0.8 1.4 1.3 0.2 1 0.5 0 2.3-0.8 1.5-1.2-0.4-2.3-2.8-1.6 0.4-1.1 2.5 1.4 2.5-1.7 0.5-1.1 2.8-2.5 0.4-0.7 4.7-1.8 1.4-1.8 0.3 0.1-3 1.2-4.4-1.3-3.6-2-0.2-6.6 6.6-3.4 4.8-2.2 1.6-1.9 0.2z" id="PRK5495" name="Rasŏn" data-id="PRK5495" data-name="Rasŏn">
 </path>
 <circle cx="619.5" cy="589.3" id="0">
 </circle>
 <circle cx="625.9" cy="586.2" id="1">
 </circle>
 <circle cx="557.9" cy="623.5" id="2">
 </circle>
</svg>