<?xml version="1.0"?>
<!--
************* Copyright (c) 2017 Pareto Softare, LLC DBA Simplemaps.com *******************		
************* Free for Commercial Use, full terms at  http://simplemaps.com/resources/svg-license ************
************* Attribution is appreciated! http://simplemaps.com ***************************
-->
<svg baseprofile="tiny" fill="#7c7c7c" height="945" stroke="#ffffff" stroke-linecap="round" stroke-linejoin="round" stroke-width="2" version="1.2" viewbox="0 0 1000 945" width="1000" xmlns="http://www.w3.org/2000/svg">
 <path d="M767.4 465.6l-43.4 5.7-23.3 6.6-2.7-6-0.6-2 21.4-7.3 3.2-14.5 7.8-3.3 10.1 3.2 10.5-7.8 5.5-8.9 8.3-4 3.8 3.6 8.1 11.3-15.1 10.8 6.4 12.6z m204.5-62.5l4.1 5.5 5.5 16.4-1.1 6.1-7.8-2.7-5-1.2-5-3.3-14.5-12.7-10-3.9-13.9-2.2-11.1 0.6 0.4-15.9 5.8-9.1 9.2-1.2 20.8 6.2 8.2 3.2 10.2 8.7 4.2 5.5z" id="KWT1663" name="Al Asimah" data-id="KWT1663" data-name="Al Asimah">
 </path>
 <path d="M776.3 486.7l7.9 18.7 5.7 33.4-82.7 14.3-0.6-25.6-7.7-13-10.3-10.3 2.2-24.9 9.9-1.4 23.3-6.6 43.4-5.7 8.9 21.1z" id="KWT1664" name="Al Farwaniyah" data-id="KWT1664" data-name="Al Farwaniyah">
 </path>
 <path d="M789.9 538.8l33-2.2 4.6-0.7 4.4 12.2 7.3 11.7 2.8 12.2 12.9 82 9.3 20.1 26.2 39.3 7.9 7.6 20.2 6.8 1.5 9-2.2 11.8-0.7 12.1 4.4 11.8 14.3 20.3 3.1 7.3 5.5 8.3 12.3 5.3 21.7 4.6-5.1 9.3-2.2 10.5 0.6 11 3.1 10.1-7.9-5.5-2.9-2.6-0.6 4.7 0.5 3.1 2.4 2.2 4.9 2.6-3.9 5.1-2.5 1.5-2-0.9-2.3-2-3.5 0-0.5 12.6 4.8 2.9 7.2-3.6 6.3-7.4 1.5 6.1 2.1 28.8 1.9 7.4 4.3 8 8.2 11 6.2 6.6-186.6 1.9-186.8 2-28.2 0.3-4.3-15.9-9.9-10.3-12-8.5-11.2-10.4-8-13.5-7.1-17.7-5.1-18.3-2-32.3-2.4-15.1-29.2-80-25.3-43.4 14.7-8.9 25.7-18 117.4-16.8 12.2-4.1 2-8 5.4-80.9 30.3-37.7 10.3 10.3 7.7 13 0.6 25.6 82.7-14.3z" id="KWT1665" name="Al Ahmadi" data-id="KWT1665" data-name="Al Ahmadi">
 </path>
 <path d="M827.5 535.9l-4.6 0.7-33 2.2-5.7-33.4-7.9-18.7 21.7 0 23-9.1-0.4 2.8-0.5 11.2 1.7 17.7 5.7 26.6z" id="KWT1666" name="Mubarak Al-Kabeer" data-id="KWT1666" data-name="Mubarak Al-Kabeer">
 </path>
 <path d="M870.8 70.6l81.8 116.9 7.9 21.9-3.5 27.1-10 18.4-16.1 20.6-19.3 17.7-19.6 9.7-22.7-2.5-12.7-15.5-18.3-43.9-21.9-39.7-6-7.2-10.5-6.2-4-6.3 10.1-7.1 6.1-3.3 11.3-8 5.8-1.5 2-3.5 3.1-20.9-8.3-3.4-4.4-0.7-5.2 0.3 5.2-9 7.5 0.6 12.8 8.4 5.9 0.9 7.3-0.5 4.1-4.1-3-9.5 9.5-4.2 7.7-4.8 2-5.4-8.5-5.9-5.9-0.8-7 3.2-5-2.4-2.3-4-1.3-6.4-0.5-6.4 0.5-4.3-9.2 0.1-3.2-2.6 2.2-4.5 6.7-5 7.5-3.2 7.5-0.5 7.1 2.3 6.8 5.1z m-82.8 7.6l-3.8 0.7-3.9-2.3-2.9-4.1-0.8-3.9 7.3-5.1 10.7-14.4 5.8-3.3 20.6-2.9 8.1 0.7-1.6 6.3-14.4 8.3-3.3 3.2-5.1 6.8-2.3 2.4-14.4 7.6z m-90.6 391.7l0.6 2 2.7 6-9.9 1.4-2.2 24.9-30.3 37.7-5.4 80.9-2 8-12.2 4.1-117.4 16.8-25.7 18-14.7 8.9-6.4-11-29.7-4-52.2-6.9-104.7-13.8-52.3-6.9-58.7-7.3-58.6-7.3-117.3-14.6 15.2-17.1 79-88.6 32.9-55.5 33.7-37.1 7.8-11.8 15.6-41 39.2-65.2 10.3-22.7 1.3-6.1 2-18.3 2.7-8.7 19.2-36 44.7-114.4 17.9-25.7 27.6-18.8 84.6-35.1 30.2-3.7 135.7 0 30.1 5.9 113.7 57.3 3.7 10.2 5.5 9.2 5.1 11.9 2.4 12.8-0.1 22.5 1.6 14.3 6.8 20 13.7 29 16.1 22.3 13.9-0.6 9.1 27.1 12.1 27 22.1 32 10.3 23.8-2.2 12.2-11.6 1.7-21.6-9.4-11-6.7-3.4-5.6-10.3-1.5-12.9-2.7-9.5-1.7-30.6 5.2-15.5 13.4-13.3 13.4-32.2 18-22.2 20.8-11.6 18.4-11.1 14.6-23.9 11.3-2.2 9.5-5 8.9 11.7 1 19.6-3.4 14.4-2.9 11.7-4.6 12.3-4.5 7.2 4.4-14.9 10.1 0 7.3-3.3 8.3 12.9 8.8 9.2-0.1z" id="KWT1667" name="Al Jahrah" data-id="KWT1667" data-name="Al Jahrah">
 </path>
 <path d="M821 477.6l-23 9.1-21.7 0-8.9-21.1-6.4-12.6 15.1-10.8 1.1 1.6 7.8 7 19.9 6.9 19.5-3.9-3.4 23.8z" id="KWT3506" name="Hawalli" data-id="KWT3506" data-name="Hawalli">
 </path>
 <circle cx="916" cy="397.9" id="0">
 </circle>
 <circle cx="688.9" cy="432.5" id="1">
 </circle>
 <circle cx="673" cy="475.2" id="2">
 </circle>
</svg>