<?xml version="1.0"?>
<!--
************* Copyright (c) 2017 Pareto Softare, LLC DBA Simplemaps.com *******************		
************* Free for Commercial Use, full terms at  http://simplemaps.com/resources/svg-license ************
************* Attribution is appreciated! http://simplemaps.com ***************************
-->
<svg baseprofile="tiny" fill="#7c7c7c" height="312" stroke="#ffffff" stroke-linecap="round" stroke-linejoin="round" stroke-width="2" version="1.2" viewbox="0 0 1000 312" width="1000" xmlns="http://www.w3.org/2000/svg">
 <path d="M32 275.8l8.5 11.2 16.1-0.1 11.2-4.2 1.3-7.3 4.4-8.6 3.4 1.9 8.7 2.3 0-4.2-2.6-4.4-0.2-1.7 2.8-2.5-2.7-2.4-1.7-2.7-3.3-7.7 10.7 1.4 21.6 9.2 11.7 2.2 31.9-4.4 12.8 0.1 11 1.4 10.6 3.4 5.9 7.4 1.8 16-11.9 9.2-16.8 2.8-20.3-5.5-26.6 4.3-11.2 2.2-9 6.3-10.5 8.2-5.8 0.8-38.3-5.2-9.9-0.6-10.5 1.1-6.9 5.3-6.2-6.5 1.2-9.6 2.1-4.2 2-7.1 2.1-10.5-0.1-9.1-2.8-8.4-9.2-7-6.3-4.2 1.4-7.7 3.4-4.9 8.4-2.9 10.9 3.6-1.7 8.3 5.7 10.5 4.9 11.9-2 12.6z m826.7-241.6l-8.1 4.6-15.3 4.5-43.8 22.8-20.8-2.9 8.7-11.4 10-5.7 11.5-9.3 14.3-2.1 17.2 0 16.4-6.5 9.9 6z m64.5 8.7l-22.9 7.1 12.9-15.7 40.8-17.7 20-12.1 13.6-3.5 8.5 3.5 2.9 9.4-27.9 14.9-47.9 14.1z" id="CYM00" name="Cayman Islands" data-id="CYM00" data-name="Cayman Islands">
 </path>
 <circle cx="197.8" cy="277.9" id="0">
 </circle>
 <circle cx="69.8" cy="298.8" id="1">
 </circle>
 <circle cx="20.6" cy="257" id="2">
 </circle>
</svg>