<?xml version="1.0"?>
<!--
************* Copyright (c) 2017 Pareto Softare, LLC DBA Simplemaps.com *******************		
************* Free for Commercial Use, full terms at  http://simplemaps.com/resources/svg-license ************
************* Attribution is appreciated! http://simplemaps.com ***************************
-->
<svg baseprofile="tiny" fill="#7c7c7c" height="1195" stroke="#ffffff" stroke-linecap="round" stroke-linejoin="round" stroke-width="2" version="1.2" viewbox="0 0 1000 1195" width="1000" xmlns="http://www.w3.org/2000/svg">
 <path d="M150.2 311l0.8 3.2 1.3 3.1 0.3 2.3-0.3 15.6-2 3.6-3 3-4.1 2.2-4.5-0.6-7.7-5.7-5.2 1-4.2 2.7-1.3 5-2.6 3.5-3.2 3.2-2.8 1.6-2.9 1.3-12.1 0.5-10.7 3.9 0.2 5.7 2.6 6.4-1.9 1.8-9.3 5.5-1.2 0.5-1.8 0.2-1.8-0.4-1.3 0.1-1.3 0.7-2.7 1.1-2.8-0.2-4 2.5-4.4 0.9-4.4 0.2-5.7-1.5-4.2-0.7 1.7-2.3 1.4-3.9 0.9-1.2 1.1-0.7 2.5-1.1 1.1-0.8 1.3-2.1 0.6-2.3 0.6-4.9 3.4-8.9 3.3-10 0.9-5.6-0.2-7.3-0.3-1.3-0.6 0.1-0.7 1.9-1 0.5-2.2-0.8-2.1-1.3-1.5-2-2.2-0.9-1-0.7-1.8-3.9-3.4-4.5-7.5-16.7-2.7-3-5-1.3-4.8 1.1-3.9 2.6-2.6 3.4-1.5 5.1-3.9 1.4-1.7 1.4 0.1 5.5-2 2-2.3 0.1-2.4-1.3-1.8-2.2-0.8-2.8 0.3-4.8-0.3-4.3 0.4-2 1.5-1.7 1.2-2 0.6-2.5 0.3-3 1.2-4.4 1.7-12.5 1.4-4.9 1.7-3.7 0-1.9 1-2.2 2.9-4.2 0.6-1.8 0.6-2.4 1.3-1.7 3.6-3.2 3.4-4.2 2.1-1.8 5.2-1.6 1.6-1.9 1.2-2.2 1.8-1.8 2.5-0.5 11.5 1.9 5.6 1.6 3.1-0.1 4.2-1.5 4-2.2 1.2-0.9 3.6 5.2 6 1.9 4.8 4 2.2 6.4 2.3 2.6 2.9 2.2 2 2.8 1.3 3.2 3.4 6.4-0.1 5.9 1.1 7.4 4.2 1.7 9.8-1.2 3.7 2.8 2.9 4.4 2.1 5 0 4.6 0.4 3.6 4.9 4.1 2.9 1.1 8.1 2.1 9.2-2.3 4.1 1z" id="LAO3271" name="Bokeo" data-id="LAO3271" data-name="Bokeo">
 </path>
 <path d="M221.4 190.8l1.6 2.7-1.6 10.8-2.1 5-2.8 4.4-5.2 1.9-5 2.7-4.5 3.8-0.4 5.5 1.6 2.1-0.7 2.1-5.7 0-2.1 1-5.1 1.2-5.9 5.5-4.8 9.4-4.7 2.5 12.7 4.3 1.4 3.6 4.8 3.8 1.1 2.2 1 11-3.7 11.2-2 2.9-2.5 2.4-2.3 3.3-4.4 8.3-10.3 4.7-13.2 0.9-6.5-0.5 0.1 1.5-4.1-1-9.2 2.3-8.1-2.1-2.9-1.1-4.9-4.1-0.4-3.6 0-4.6-2.1-5-2.9-4.4-3.7-2.8-9.8 1.2-4.2-1.7-1.1-7.4 0.1-5.9-3.4-6.4-1.3-3.2-2-2.8-2.9-2.2-2.3-2.6-2.2-6.4-4.8-4-6-1.9-3.6-5.2 2.4-1.9 3.4-3.3 0-0.8-3.8-0.9-11.7 2.1-2.5-1.8 0.3-2.8 1.2-5.7 0.3-3 0.5-0.8 2.5-1.6 0.7-1-0.2-1.1-1.6-3.9 2.4-1.1 5.9-1.2 2.5-1.5 1.6-2.1 6.8-12.7 4.2-17.2 0.1-3.3 0.5-1.1 1.7-0.4 2.4 0.3 2.1 1.2 2.5 0.9 3-0.4 4.9-2 1.4-1.2 4.5-4.6 1.8-0.6 12.3-6.6 18.5-15.2 1.8-0.9 0.5-2.1-0.2-2.5 2 0.1 1.6 2.3 0.1 4.2-2.5 11.5 0.4 3 1 0.8 3.8 2 2.4 1.8 0.9-0.1 0.2 1.1-1.5 4.1-2.1 2.9 0.3 0.8 1.4 1.8-0.1 1.9-1.4 5.3 1.5 1.6 1.9 3.9 1.3 1.9 2 1.9 2.1 0.8 2.3-0.3 2.8-1.2 6.4-4.4 2.5-1 15-2.8 2.9 0 2.9 0.5 5.9 2.1 0.6 1.5-0.3 1.3-1.2 2.7 0.6 1.4 2 0.3 5.2-2.3 2.5 0 2 1.8 2.4 4.4 2.1 1.5 1.8 0.1 2.5-0.5 2.5-0.8 1.4-1 0.2-1.4z" id="LAO3272" name="Louang Namtha" data-id="LAO3272" data-name="Louang Namtha">
 </path>
 <path d="M227 487.3l-0.3 2.5-0.7 3 1.2 2.3 0.4 1.3 0.2 2.9-0.1 3.2-1.4 5.2-0.3 2.6 0.8 2.1 5.5 6.1 1.4 4.6-1 4.2-3.9 8.3-0.6 2.9-0.6 5.9-0.6 2.6-4.1 7.4-2.1 2.7-2.8 6.6-1.7 1.9-2.9 2.4-1.5 0.6-1.7 0.3-1.7-0.1-1.4-0.8-2 1.9-2.4 5-1.5 2.2-2.9 2-2 0.8-0.5 1.3-0.4 2.9-1.3 1.9-1.9 2.2-2.2 1.9-2.3 0.8-2.9 0.5-1.3 1.2-0.6 1.8-1.2 2.2-6.1 7-2.3 4.5-0.6 5.7 0.7 1.9 2.5 4.3 0.5 1.8 0.8 9.9-0.3 4.1-0.8 3.9-0.2 3.6 2.9 4.7 0.6 1.4 0.9 1 1.9 0.4 3.2-0.6 1.2 0.4 0.6 2.1 0.9 0 1-0.8 1.9-1 1.8-0.2 0.8 1.5-0.4 1-2.3 4.2 0 0.9 1.1 0.9-1.5 0.6 2.9 2.4-2.6 1.8-4.4 1.9-2.6 2.8-2 3.5-1.2-2.7-0.4-1.5-1.4 0.7-1.7 1.6-2 0.2-2-0.2-1.8 0.6-0.9 1.2 0.9 0.4 2.1 0.3-0.4 1.3-2.3 3-1.8 0.2-1.7 0.6-14.5 12-2.5 3.3-2.6 5.1-0.9 1.2-1.5 0.6-1.8 0.3-1.3 0.8-0.4 2.1-2.2 3.2-2 1.5-4.8-1.9-3.9-2.4-2.2-0.4-1.8-2.4-2.2-1.9-2.4-1.6-2.6-1.3-10.5-2-2.1-1.6 0-3.1 1.8-2.9 4.4-5.2 2.8-6.3 0.9-3.6-0.3-2.7-0.3-1.5 0.3-1.1 0.8-0.9 1.3-0.7 0-1.1-1.2-1.9 0.2-0.9 1-0.7 2.7-1.2 0.7-1.8-0.4-4.7 0.5-2.8 1-1.5 4.1-2.3 3.5-3 2.1-3.4 1.7-3.6 2.3-3.8 1.7-1.3 4.3-2.7 1-1.8-0.4-1.9-2.3-5.2-0.4-2.7 0.5-2.5 2-5.2 0.3-2.2-0.5-1.2-1.8-1.3-0.8-0.7-1.5-3.8 0-4.9 0.2-1.4 0.7-1 2.3-2.5 0.4-0.9-1.3-1.9-8.4-3.9-4.1-3.9-1.8-2.5-0.9-2.4 0.7-2.8 3.8-4 1-2.6 0.2-1.4 0.6-0.7 8.4-4.7 1.8-1.7 0.5-1.6-0.2-3.1 0.4-1.3 0.9-0.9 3.5-1.5 3.6-3.5 1.7-2.3 0.7-2.1-0.7-2.2-3.1-3.1-0.7-2.6 0.5-2.2 1.9-4.5 0.6-2.4-0.7-8.3 0.2-2.7 1.1-2.5 3.2-3.8 1.3-2.1 1.3-4.5 0.9-2 5.6-5.5-1.1-4.1-3.5-4-5.8-5.2-1.5-1.7-0.9-2.1-0.3-3.3 0.4-8.2-2.7-11.7 0.2-2.4-0.4-1.1-0.8-0.6-2.2-0.5-0.9-0.6-0.8-4.2 0.7-5.7 2-5 3-1.9 3-0.8 1.8-3.1 0.7-4-0.3-3.4-0.5-1.8-0.6-1.4-1.1-1.1-1.7-1-2.3-0.6-1.4 0.4-2.7 1.7-3.2 0.9-3.7 0.4-3.8-0.3-3.6-1.4-5.8-3.6-2.9-1.1-3.7-0.4-11.7 0.2-1.5-0.1-1.7 1.5-1.6 2.8-5.4 6.4-6 5.8-1.3 1.8-1-0.4-2.1-2.7-1.9-1.1-10.8-4.2-3.4 0.2-2.8 2.1-2.6 4.2-2.3 0.2-3.7-1.1-3.8-1.7-2.4-1.5-1.6-1.7-0.4-2 0-2.3-0.4-2.3-1.1-1.9-2.7-3.3-1.1-1.8-0.7-2.4-0.4-4.6-0.4-2.2-0.9-1.6-2.2-2.9-0.6-1.9 0.6-2.5 3.2-4.3 4.2 0.7 5.7 1.5 4.4-0.2 4.4-0.9 4-2.5 2.8 0.2 2.7-1.1 1.3-0.7 1.3-0.1 1.8 0.4 1.8-0.2 1.2-0.5 9.3-5.5 1.9-1.8 2.2-2 1.7-0.9 1.8-0.1 16.1 2.6 6.1 2 4.6 3.5 1.7-3 1 0 1.8 2.1 2.1-0.7 3.3-3.2 3.3-2.4 1.2-0.5 1.7 0.1 5 2.7 8.6 5.8 3.1 0.9 39.8-0.3 4.9-1.1 2.9-3.4-1.6-1 1.7-1.6 2.8-1.5 2-0.6 1.4-0.8 3.9-3.8 1.5-1.2 4.9 6.1 2.1 2.1 1.5 2.6 0.1 6.7-2.3 6.5-1.2 2.5 0.1 8.5 1.4 3.6 3.8 0.1 3.8-0.3 1.2 1-1.2 4.8 0.2 18.7 0.5 2 1.1 1.9 1.6 1.8 2.1 1.4 5.2 2.3 1.3 1.6-0.9 1.3-4.4 4.7-1 2.1-0.7 2.8-3 4.6-0.8 1.8 0 2.7 0.8 8.3-0.2 2.8-1.1 4.6-1.3 13.6z" id="LAO3278" name="Xaignabouri" data-id="LAO3278" data-name="Xaignabouri">
 </path>
 <path d="M828.8 991.6l6.7 2.5 6.1 7.7 4.5 1.9 4.6 0.2 2.9 1 13.8 11 0.7 11.6 1.6-0.1-0.4 1 2.3 1.6 2.9 0.6 5.4-1.3 1.9 1.8 1.4 2.5 1.8 1.5 1.6 2.1 1.3 6.9 0 6.9-2.4 4.1 2 5.5-2.9-0.3-5.5 1.5-1.4 1.7-2.3 2-2.5 2.9-0.2 3.8-2 3.2-4 0.8-4-0.2-2.6 1.9-6.8-2.2-3.7-0.3-3.5-2.2-2.6-3.3-0.1-3.5 0.6-3.7-0.4-1.7 0.2-1.9 1.5-3.5 0.4-4.2-2.7-2.7-3.6 1.3-2.9 2.6-3.2-1.7-1.5-3.7-3.3-1.7-3.9 0-3.2 1.8-1.8 3.5-5.7 4.4-6.1 6.2-5.4 8.5 0.3 10 1.9 3.7 2.7 3.1 3.7 2.1 3.2 2.7 2.8 10.9 2.4 2.5 2.7 2.3 2.4 3.4 0.5 3.8 0 1.8 0.9 1.6-1.6 3.6-2.6 0.6-3.1-0.4-8-5-0.8-0.8-1.2 2.3-1.3 7.1-0.9 2.9-2 2.8-2.1 1.3-2.5 0.3-4.6-0.3-3.2-0.5-4.1 0.1-0.4 0.5-0.3 2.2-0.4 0.6-2.3 0.1-5.8-2-2.6-0.5-0.6 1.5-0.2 1.6 0.1 1.5 0.7 1.5 2.5 2.1 1.5 2.2 0.5 2.6-0.6 3.4 1.1 2.7 1.9 1.7 4.5 2.9 2 2.4 3.4 8 1.8 2.1 2.1 1.8 1.8 2 0.6 2.5-1 2.5-2 1.8-2.4 1.6-1.9 1.9-1.6 2.1 0.3 6.4-2 2.4-2.6 0.1-6.8-1.7-3.1-0.2-3.3 1.3-3.2 0.4-3.3-0.8-3.5-1.9-11.4-10-2.2-3.3-1.5-3.8-2-3.3-3.7-2-1.4-0.1-2.8 0.5-1.9-0.2-2.1-1-1.4-0.8-1.3-0.1-2.1 1.5-1-2.4-2-2.1-2.4-1.1-1.9 0.8-1.7-2-2.1-1.5-3.6 2.6-2 1.1-2.2 0.6-3.1 2.1-3.7 1.2-3.9 0.6-3.8 0-2.1-0.3-1.3-0.6-1.1-1-3.4-4.7-1-0.6-2.8-1.1-2.4-2.4-7.8-12-1.3-2.8-0.5-3.1 0-4.3 1.9 0 6.8-1.6 2.4-1 1-1 1.6-2.9 0.9-0.8 1.3 0.1 2.3 1.6 1.7 0.1 3.2-3.1 1.1-0.8 1.5-0.5 3.5-0.7 1.4-0.7 0.5-0.9 1.2-3.1 0.6-1.4 0.9-1 3.1-2.8 4.2-5.6 1.6-3.7 0.3-4-1.9-9 0.2-4.2 1-6.3-0.4-1.3-1.5-2.4-0.2-3.1 0.6-3.1 1.1-2.5 0.6-0.4 1.8-0.4 0.5-1.3-0.9-1.9-0.2-2 0.8-1 2.1 0.1 0.7-0.3 1-3-2.1-4.4 1.2-2.6 5.3-3.3 1.2-1.8-3.5-0.7-1.7-1.3-3.8-5.5-0.2-2.1-0.9-0.8-1.7 0.3-0.7-0.2-3.2-3.3-2.9-0.6-1.1-2.3 0-3 0.6-3 0.8-2.7 1.2-1.9 5.4-5.7 3.6-3 4.3-2.7 0.1-3.7-0.4-2.9-0.5-0.6-2.6 0.5-2.5 0.1-2.7-0.5-2-1.4-0.8-2.5 1.1-3 2.7-1.7 6.1-2 4.7-3 0.5-0.5 0.5 0 3.1-1.4 1.9-2.2 3.6-0.4 3.2 1.3 3.1 0.8 3-0.7 1.3-1.3 1.6-0.4 2.3 2.2 3.1 1.5 1.4-0.6 1.3-0.9 2.5 0.2 8.3-0.2 4.4-1 3.6-1.1 3.1 1.8 3-1.2 3.2-0.1 3-0.7 2.9 0 2.6 3 1.2 3.4-2.7 2.9-0.8 4 7.8 8.6 3.5 1.5 6.5-4.1 5.7-5.7 3.4-2.1 3.6-1.4 4.7-0.7 4.2-1.2z" id="LAO3280" name="Champasak" data-id="LAO3280" data-name="Champasak">
 </path>
 <path d="M929.3 884l-2 3.9-2.7 2.6-2.4 3.1-0.7 2.7-1 2.4-4.8 1.5-3.1 2.3-3.3 1.5-3.6-1-1.2 1.3-1.7 1.1-4.8-0.1-4.5-0.8-2.9-1.6-3.3-0.3-2.1 3.6-1.1 4.2 0.9 2 0.6 2.1-3 2.4-6.2 6.6-4.6 6.8-3.4 7.4-2.9 2.4 0.4 3.2 3.2 2.2 2.6 2.8-1.9 1.7-1.5 2.9 2.3 3.7 1 4.3-1.7 2.3 0 1.7 0.4 1.8 0.3 3.1-1.5 1.9-6.8-1-4.7 3-7.8 0.1-4.9-0.9-4.5 0.8-1.4 3.3-2.7 2-3.7-0.8-3.3-1.6-3.5-0.5-3.1 1.2-0.7 3.4-1.5 0.5-1.4 1.1 2.1 6.5 7.6 2.8-4.2 1.2-4.7 0.7-3.6 1.4-3.4 2.1-5.7 5.7-6.5 4.1-3.5-1.5-7.8-8.6 0.8-4 2.7-2.9-1.2-3.4-2.6-3-2.9 0-3 0.7-3.2 0.1-3 1.2-3.1-1.8-3.6 1.1-4.4 1-8.3 0.2-2.5-0.2-1.3 0.9-1.4 0.6-3.1-1.5-2.3-2.2-1.6 0.4-1.3 1.3-3 0.7-3.1-0.8-3.2-1.3-3.6 0.4-1.9 2.2-3.1 1.4-0.5 0 1.6-1.6 0.8-2.5 0.2-5.8 0.6-2.9 3.2-8.5 1.4-7.1-1.4-6.5-3.7-5.4-5.8-3.8-5.7-1.9-2.9-0.4-5.4 0.5-1.9-0.3-1.6-0.9-1.7-1.7-1.4-2.2-5.3-11.3-1.5-5.1 0.2-4.9 3.2-3.5 2.7-1.1 1.5-0.8 0.6-1.5 10.2 1 7.9 3.8 8.7 2.5 8.3 3.4 2.7 2.1 4 0 6.6 3.7 6.9-0.9 3.3 1.2 3.4 0.4 6.1-4.9 5.7-5.8 3.8-0.1 3.7 1.1 3.9-0.1 6.8-3.1 2.6-2.3-0.2-3.5-1.4-3.4-0.2-7.1-0.9-3.3 0.2-3.6 0.9-1.5 1.5-1 2.2-0.4 1-1.7 4.2-0.3 4.1 0.6 3.1 1 2.7 1.8 1.8 4.3 2.6 3.1 0.9-2.5 0.5-3.3 2.4-0.5 7.2 1.4 3.3-1.5 4.7-0.3 4.6-1.2 3-3 3.7-0.9 3.2 1.6 3.2 0.3 2.3-1.5 4-1.4 1.8-3.2-0.9-4.6 0.4-3.3 3.3-6.3 2.2-1.9 3 1.9 3.4-0.3 6.4-2.9 1.7-3.5 0.5-4.1-1.6-3.3-1.6-0.3-1.7 0.1-0.9-0.6 0.4-2.2 0.6-1.1 3.6-2.3 1.5-1.4 0.5-2.3 2.8-4.8 3.2 0.1 2.3 3.6 0.3 5.5-0.5 4.6-0.9 1.4 0.5 1.2 2.2-0.9 1.6 3.7 1.2 1.7 2.3 1.9 3.2 1.8 0.9 0.8 0.6 1.3 0.4 3.1 0.4 1 1.4 0.9 1.7 0.3 4.5-0.2 5.1 0.6 2.3 0.7 2.4 1.2 2.6 1.9 1.1 1.8 1.4 7.3 1.1 2.3z" id="LAO3281" name="Saravan" data-id="LAO3281" data-name="Saravan">
 </path>
 <path d="M832.8 769.7l1 2.6 1.1 1 2.3 1.1 2.5 1 2.3 0.4 3 0.9 3.7-3.5 1.1 2.3 0.3 39.9 0.7 3.3 1.2 3 3 3.3 2.5 1.5 2.7 1.1 1.7 0.2 2 0.9 0.6 1.6-0.6 7.3 0.2 1.6 1.8 5.4 2 3.7 3 2.2 3.9-0.6 0 1.5 0.4 0.6 2.2-0.6 1.2-0.9 0.9 0.6 1.7-0.1 1.6 0.3 1.6 3.3-0.5 4.1-1.7 3.5-6.4 2.9-3.4 0.3-3-1.9-2.2 1.9-3.3 6.3-0.4 3.3 0.9 4.6-1.8 3.2-4 1.4-2.3 1.5-3.2-0.3-3.2-1.6-3.7 0.9-3 3-4.6 1.2-4.7 0.3-3.3 1.5-7.2-1.4-2.4 0.5-0.5 3.3-0.9 2.5-2.6-3.1-1.8-4.3-2.7-1.8-3.1-1-4.1-0.6-4.2 0.3-1 1.7-2.2 0.4-1.5 1-0.9 1.5-0.2 3.6 0.9 3.3 0.2 7.1 1.4 3.4 0.2 3.5-2.6 2.3-6.8 3.1-3.9 0.1-3.7-1.1-3.8 0.1-5.7 5.8-6.1 4.9-3.4-0.4-3.3-1.2-6.9 0.9-6.6-3.7-4 0-2.7-2.1-8.3-3.4-8.7-2.5-7.9-3.8-10.2-1-0.1-0.6-2.3-1.2-15.3-4-5.5-0.2-1.3-0.2-20.8-7.5-2.8-2.2-2.1-2.8-1.3-3.3-0.5-3.6 0.1-6.1-0.4-3-1.4-2.6-1.1-0.9-3.7-2.1-1-0.8-2.6-2.7-1.1-0.9-3.5-2-1.2-1.1-1.5-2.7-1.2-4.3-1.1-2.4-1.4-2.3-1.7-2.2-2.2-1.8-7.4-4.1-2.4-1.9-1.4-2.5-0.6-2.8-0.2-3.1 0.6-5.9 1.5-5.8 1.8-5.1 0.1-3-2.9-11.4 0-1.5 0.3-1.7 0.9-3.1 0.2-1.6-0.1-1.7-0.5-1.5-1.3-2.8-0.4-1.6-0.4-4.5 3.9 4.1 7.4 0.9 1.8-3.4-2-8-2.2-2.3-2.6 1.8 0.1-2.5 2.7-3.1 2.8-1.9 0.4-3.9 3.1-1.3 3.4 1.2 3.2 0.8 2.1-2.3 2.8-1.4 3.8 1.6 6.8-1.7 2.9 2.8 4.4 0.5 4.1-1.4 3.1-2.2 3.1-1.4 3.1 2.1 2.2 3.3 3.1 2.3 4 0.2 3.1-1.1 3.3 1.2 5-2.2 3.6-3.8 6.7 0.3 8.1-0.8 14.4 6.6 5.3 1.3 1.9-3.6 0.8-5.7 4.8-0.9 5 1 10.5 4.7 10.6 3.4 13.8 0.9 13.3-2 3.1-2.4 0.4-2.2 0.8-2.1 3.6 0.5 3.6 2.1 6 6.2 3.7 1.6 4 0.6 7.4 2.5 8.3-0.7z" id="LAO3282" name="Savannakhét" data-id="LAO3282" data-name="Savannakhét">
 </path>
 <path d="M371.2 592.7l6.6 2.2 5.5 3.7 1.9 5.2 0.1 2.7 0.3 1-1 3.6-1.2 1.8 0.2 1.6 0.9 1.5 1.2 0.8 1.4-0.1 1.4-0.8 1.6-2.5 1.2-2.7 1.6-0.6 2.5 4.1-1 0.5-1.1 1.3-0.7 1.8-0.2 2.6 1.1 8.1-0.7 1.3-1.3 0.9-1.1 2-1.6 2-2.3 0.9-2.1-0.6-4.1-2.7-2.4-0.6-2.1 0.5-11.4 5.1-1.9 1.1-0.8 1.5-7.6 4.2-4.9 4.5-2 1.2-4.7 1.1-1.8 1.2-0.7 2.1 0.8 2.5 1.2 2 0 1-2.9-0.3-6.8-3.4-1.8-0.5 0-1.3 2.2-9-1.7-5.6-4.2-2.1-11.3-0.1-4.8-0.9-4.4-2.3-3.5-3-2.5-3.2-4 0.3-3.9-2-6.6-5.9-3.1-4.2-5.5-3.9-1.2-2.4-0.5-2.3-0.9-2-2.4-1.3-9.9-0.6-0.9 0.8-2.1 2.2-0.6-0.7-1.4-2.6-0.2-7 2.6-11.2 0-3.7-2-3.1 0.9-3 3.3 0.9 3.6 1.9 2.9-1.5 2.6-2.7 4.1-0.9 4.1 0.1 2.7 2.7 2.2 3.2 1.5 4.6 4.4 3.1 5.6 1.6 5.4 2.1 3.8 0.7 3.9-0.5 1.6 0.7 1.8 1 4.4-0.3 2.8 2.9 1.5 0.3 1.5 0.6 0.6 1.6 0 2.4 0.6 0.4 3.5 0.6 1.9-0.5 1.9 1.6 2.9 0.1 6-5.3 5.2-0.6 4.9-1.6 3.6-1.9 10.8-2.1 7 2.1z" id="LAO3283" name="Vientiane [prefecture]" data-id="LAO3283" data-name="Vientiane [prefecture]">
 </path>
 <path d="M350.3 450.4l1.8 3.3 4.5 2 2.1 1.3 1.6 0.4 4.1 4.4 3.8 1.9 3.1 2.4 2.1 0.6 2-0.5 2.6-0.3 11.3 2.6 2.7 1.2 4 3.9 4.6 0.8 4.9 0.3 13.1 2.6 1.6-0.5 1.4-0.7 4.6-0.2 3.6-1.6 2.9 0.5 2.9 0.2 2.7 2.2 3.2 0 1-3.1 2.1-0.9 2.2-0.4 4.1 0.7 3.4 2.5 3 3.5 3.2 2.8 4.1 0.3 5.8 2.2 8.5-0.5 5.3 2.9 4.1 1.7 4.9-0.3 4.2 1.3 3.3 3.1 1 9.1-1.1 9.3-4.1 1.7-3.9 2-2.9 2.4-3.6 0.9-3.5-1.4-3.2-2.3-3.8-2.1-3.3-2.7-3.8-2-4-1.2-5.4-5.4-4.4 0.3-7 2.4 0 3.5 0.7 4.1 1.7 3.8 1.5 0.3 0.6 1.1-1.5 0.9-2 0.1-1.3 3.3 0.5 4.5 1.1 4.3 0.6 4.7 0 5.8-1.4 5.1-3.1 3-3.5 2.9-9.2 5.4-10.4 2.6-15.9 0.8-11.2 1.9-25.8-1.6-8.8 2 4.8 10.4 2.8 3.1 3 2.8 1.6 7-1.3 6.9-7-2.1-10.8 2.1-3.6 1.9-4.9 1.6-5.2 0.6-6 5.3-2.9-0.1-1.9-1.6-1.9 0.5-3.5-0.6-0.6-0.4 0-2.4-0.6-1.6-1.5-0.6-1.5-0.3-2.8-2.9-4.4 0.3-1.8-1-1.6-0.7-3.9 0.5-3.8-0.7-5.4-2.1-5.6-1.6-4.4-3.1-1.5-4.6-2.2-3.2-2.7-2.7-4.1-0.1-4.1 0.9-2.6 2.7-2.9 1.5-3.6-1.9-3.3-0.9-0.9 3 2 3.1 0 3.7-2.6 11.2 0.2 7 1.4 2.6 0.6 0.7-20 21.6-2.7 0.8-5.1-2.9-5.1-1.4-1.3-1.6-0.8 0-2.2 2.1-1 2.5-1.2 5.9-3.2 9.1-0.5 2.8-12.2 2.4-2.2 1.4-1.1 2.7-1.4 1.5-3-1.9 0 2.1-0.4 1.8-0.6 1.5-0.8 1.2-2.5 0.9-1.1-0.9 0-0.9 2.3-4.2 0.4-1-0.8-1.5-1.8 0.2-1.9 1-1 0.8-0.9 0-0.6-2.1-1.2-0.4-3.2 0.6-1.9-0.4-0.9-1-0.6-1.4-2.9-4.7 0.2-3.6 0.8-3.9 0.3-4.1-0.8-9.9-0.5-1.8-2.5-4.3-0.7-1.9 0.6-5.7 2.3-4.5 6.1-7 1.2-2.2 0.6-1.8 1.3-1.2 2.9-0.5 2.3-0.8 2.2-1.9 1.9-2.2 1.3-1.9 0.4-2.9 0.5-1.3 2-0.8 2.9-2 1.5-2.2 2.4-5 2-1.9 1.4 0.8 1.7 0.1 1.7-0.3 1.5-0.6 2.9-2.4 1.7-1.9 2.8-6.6 2.1-2.7 4.1-7.4 0.6-2.6 0.6-5.9 0.6-2.9 3.9-8.3 1-4.2-1.4-4.6-5.5-6.1-0.8-2.1 0.3-2.6 1.4-5.2 0.1-3.2-0.2-2.9-0.4-1.3-1.2-2.3 0.7-3 0.3-2.5 3.7-3 2.8-2 1.2-1.5 1.2-1.1 3.9-0.8 6.5-6 3.9-8.3 1.3-5.8 1.5-1.9 2.6-0.9 1.8-1.4 1.4-1.9 2.1-1.7 1.9-1.8 2-8.6 3.9-2.4 4.8-0.9 3.5-0.2 3.3 0.9 1.8 2 2.1 1.8 4.5-1 4.1 2.9 4.3-2.4 3.8-1.4 1.9 1.6 2.2 1.4 3.8 0.3 3.8-0.3-0.7 2.4-1.1 2.2 2.8 1.2 2.7 0.7 1.6 2.8 1.1 3.2 4.3 4.1 4.6 3.5 9.7-4.7 7.2-2.2 5.5-5.7z" id="LAO3284" name="Vientiane" data-id="LAO3284" data-name="Vientiane">
 </path>
 <path d="M542.1 396.6l-5.5 1.5-2.9 0.1-1.6 1.6-0.9 2.1-1.1 0.8-2.7 0.5-2.5-0.9-6.3-3.3-1.5-0.4-1.2 0.5-0.8 2.2 0.3 1.8 2.6 7.3 1.5 2 4.2 2.5 1.5 1.3 0.8 2.2 0.2 2.4 0.4 2.3 1.5 2-0.5 1.6-1.1 0.6-1.5 0.3-1.3 0.8-0.8 1.5-0.6 3.3-0.4 1.4-1.1 1.9-0.4-0.4-2 0.2-3.1 1.2-3 1.5-2.8 0.7-1.5 1.3-2.7 4-2 1.6-4.7 2-1.8 1.4-1.1 2.4 1.4 0.7 2.4-0.1 2.1 0.3 1.7 3.3 1.6 1.7 3.3 1.7 3.9 2.8 3-1.2 2.8-0.1 2.7 0.6 14.6 6.7 5.3 3.6 1.4 1.4 0.4 2.8 0.1 2.5 1.1 1.1 3.8-1.1 2.7 0.7-0.3 2.6-1.2 4.4 0.7 4.9-0.1 4.8-2.7 2.7-2.9 2.3-0.8 3.7-1.8 3.2-3.3 2.6-2.9 3.3-2.9 4.3-4.3 1.7-3.5 0.3-3.4-0.1-1.9-0.9-1.6-1.5-11.7-5.5-4.8-1.2 1.1-9.3-1-9.1-3.3-3.1-4.2-1.3-4.9 0.3-4.1-1.7-5.3-2.9-8.5 0.5-5.8-2.2-4.1-0.3-3.2-2.8-3-3.5-3.4-2.5-4.1-0.7-2.2 0.4-2.1 0.9-1 3.1-3.2 0-2.7-2.2-2.9-0.2-2.9-0.5-3.6 1.6-4.6 0.2-1.4 0.7-1.6 0.5-13.1-2.6-4.9-0.3-4.6-0.8-4-3.9-2.7-1.2-11.3-2.6-2.6 0.3-2 0.5-2.1-0.6-3.1-2.4-3.8-1.9-4.1-4.4-1.6-0.4-2.1-1.3-4.5-2-1.8-3.3-2.7-8-3.2-3.8-3.6-3.2-1.7-7.3 1.4-7.4 6-4.6 2.1-3 2.6-2.5 7.9-5.4 6-5.6 1.7-2.6-0.5-3.3 5.3 0.3 4.9-1 0.9-6.6 0.2-6.6 3.5-2.4 4-1.9 2.9-2.1 3.2-1.3 6.6-0.5 2.6-2.2 1.7-3.1 5.8-1.8 6.1-0.4 2.7 2.9 3.5 2 6.5-2.8 2.9 1.7 2.8 2.2 6.6 0.6 6.9 2.1 3.4-0.9 2.8-2.4 3.7-1.2 3.7-0.4 4.5-1.2 3-3.8 3.8 1.9 3.6-0.6 0.2-4.1 0.9-4.7 6.1-4.6 3.5-0.5 3.6 0.1 7.1 4.3 5.1 6.7-0.1 3.4 0.7 3.2-1 4.2-1.3 3.7 3.4 1.7 1.1 1.2 2.6 4.5 1.3 0.8 1.8 0.7 11.3-3.1 1.8-1.5 0.6-2.7 1.5-2.4 2-1.7 4.3 2.9 5 0.4 2.8-1.2 2.3-2 0.5-3.1 1.3-2.3 0.5 6.7-3 9.4 0.3 3.4 1.2 4.2 0.3 4.8z" id="LAO3286" name="Xiangkhoang" data-id="LAO3286" data-name="Xiangkhoang">
 </path>
 <path d="M542.1 396.6l-0.3-4.8-1.2-4.2-0.3-3.4 3-9.4-0.5-6.7-1.3 2.3-0.5 3.1-2.3 2-2.8 1.2-5-0.4-4.3-2.9-2 1.7-1.5 2.4-0.6 2.7-1.8 1.5-11.3 3.1-1.8-0.7-1.3-0.8-2.6-4.5-1.1-1.2-3.4-1.7 1.3-3.7 1-4.2-0.7-3.2 0.1-3.4-5.1-6.7-7.1-4.3-3.6-0.1-3.5 0.5-6.1 4.6-0.9 4.7-0.2 4.1-3.6 0.6-3.8-1.9-3 3.8-4.5 1.2-3.7 0.4-3.7 1.2-2.8 2.4-3.4 0.9-6.9-2.1-6.6-0.6-2.8-2.2-2.9-1.7-6.5 2.8-3.5-2-2.7-2.9-6.1 0.4-5.8 1.8-0.6-6 0.4-10 0.5-3.1-0.1-2.2 0.9-1.8 1.7-1.2 1.2-1.6-0.8-1.9-4.7-5.7-1.7-3.2 4.4-6.6 8.9-8.8 2.7-3.8 0.3-5.4-0.7-5.1 1.7-3.8-2.5 0-2.3-0.8-2.5-3.9-1.7-3.9 3.1-3.6 1.9-8.1-0.7-8.5 0.6-6.7 1.6-5.7 3.1-2.2 3.4-1.8 7.6-2.4 6.8-3.7 0.7-1.5-0.1-0.8 2.9-1.6 2-2.1 1.8 0.7 1.6 1.6 2.4 4.8 1.5 1.8 2 1.3 2.5 0.5 8.2 1.7 2.5 1.5 5.1 5.6 3.9 3.4 1.4 0.3 2.9-0.7 2.1-1.5 0-1.1-1.4-2.7-0.1-1.4 0.6-1.8 0.8-0.6 2.8-0.7 2.7-1.7 0.5-1-0.5-1.3-0.2-2.9 0.5-2.3 1.1-2.9 1.3-2.6 1.3-1.5 1.5-0.6 2.7 0.4 1.3-0.1 1.2-0.6 1.9-1.8 1.1-0.7 9.7-3.1 2.6-1.2 1.4-0.4 1.5 0.1 4.8-0.8 6.1-7.2 4.7-0.3 2.9 2 2.3 0.7 3 0.1 1.4 0.2 3.8 1.4 1 0.6 0.7 1.1 1.9 3.7 0.9-0.1 3-0.8 1.2-0.1 2.5 1 2.2 1.7 1.5 2.1 2.2 4.4 1.7 2.1 1.1 0.7 2.1 0.8 1 0.7 0.7 1 1.1 2.5 0.9 1 2.7 0.9 3-0.1 2.7 0.3 1.8 1.9 1.3 4.5 2.2 2.3 6.8 3.2 7.5 2.6 1.9 2-1.1 3.9-8.5 11.7-2.9 2.3-3.3 1.1-3.4-0.6-3.3-2.6-2.8 5.5-7.5 5.2-0.9 2.6 4.2 2.7 5.4 1.4 18.8-0.5 1.9 1.1 3 4.2 2.1 1.5 5 2 1.9 1.5 0.5 1.1 0.6 3.3-0.1 1.2-0.8 1.9-2.2 0.3-1.1 0.9-0.5 1.8-0.2 2.9 0.2 2.8 0.5 1.9 4.4 2.2 5.7-1.1 5.9-2 5.4-0.3 11.7 6.4 0.1 1.1-0.7 1.5 0.2 3.1 1.8 2.7 5 3.4 1 2.2-0.4 0.5-1.8 0.4-0.5 1.2 0.4 1.2 0.2 2.6 0.6 3.4-0.4 2-1.9 1.6-1.7 0.2-3.9-0.4-2.5 0.4-0.7 0.7-0.2 1.2-1.2 1.9-3 2.3-7.2 4.3-2.5 3.2-0.8 2.6 0.7 0.8 3.9 0.2 2.5 0.9 0.9 0.8-0.2 3.6-1.3 4.4-2.6 1.9-3.2 1.5-3.2 2.9-2.5 0.8-3.4 0.7-2.1 1.5-1.7 1.8-1.1 1.9-4.2 11.2-1.2 1.5-1.2 0.1-2.2-1.3-1.2-0.3-1.2 0.4-2 1.4-1.1 0.5-3.1 0.3-2.3-0.5-7.4-4.5-3.4-1.5-1.1-0.7-1.8-1.9-1.3-1.7-1.5-1.2-2.7-0.3-2.4 0.6-6.1 3.9-2.4-4-4.6-1.6-1.8-1.5-3.8 1z" id="LAO3288" name="Houaphan" data-id="LAO3288" data-name="Houaphan">
 </path>
 <path d="M435.2 242.5l0.1 0.8-0.7 1.5-6.8 3.7-7.6 2.4-3.4 1.8-3.1 2.2-1.6 5.7-0.6 6.7 0.7 8.5-1.9 8.1-3.1 3.6 1.7 3.9 2.5 3.9 2.3 0.8 2.5 0-1.7 3.8 0.7 5.1-0.3 5.4-2.7 3.8-8.9 8.8-4.4 6.6 1.7 3.2 4.7 5.7 0.8 1.9-1.2 1.6-1.7 1.2-0.9 1.8 0.1 2.2-0.5 3.1-0.4 10 0.6 6-1.7 3.1-2.6 2.2-6.6 0.5-3.2 1.3-2.9 2.1-4 1.9-3.5 2.4-0.2 6.6-0.9 6.6-4.9 1-5.3-0.3 0.5 3.3-1.7 2.6-6 5.6-7.9 5.4-2.6 2.5-2.1 3-6 4.6-1.4 7.4 1.7 7.3 3.6 3.2 3.2 3.8 2.7 8-5.5 5.7-7.2 2.2-9.7 4.7-4.6-3.5-4.3-4.1-1.1-3.2-1.6-2.8-2.7-0.7-2.8-1.2 1.1-2.2 0.7-2.4-3.8 0.3-3.8-0.3-2.2-1.4-1.9-1.6-3.8 1.4-4.3 2.4-4.1-2.9-4.5 1-2.1-1.8-1.8-2-3.3-0.9-3.5 0.2-4.8 0.9-3.9 2.4-2 8.6-1.9 1.8-2.1 1.7-1.4 1.9-1.8 1.4-2.6 0.9-1.5 1.9-1.3 5.8-3.9 8.3-6.5 6-3.9 0.8-1.2 1.1-1.2 1.5-2.8 2-3.7 3 1.3-13.6 1.1-4.6 0.2-2.8-0.8-8.3 0-2.7 0.8-1.8 3-4.6 0.7-2.8 1-2.1 4.4-4.7 0.9-1.3-1.3-1.6-5.2-2.3-2.1-1.4-1.6-1.8-1.1-1.9-0.5-2-0.2-18.7 1.2-4.8-1.2-1-3.8 0.3-3.8-0.1-1.4-3.6-0.1-8.5 1.2-2.5 2.3-6.5-0.1-6.7-1.5-2.6-2.1-2.1-4.9-6.1 5.3-1.5 10.8-1 4.7-1.3 4.4-3.1 6.8-7.7 3.2-2.7 2.3-0.8 7.3 0.8 2.1-0.6 7.4-4.3 4.3-0.4 2.2-4.3 3.5-3.3 0.9-4.8-1.8-4.5-4-5.3 0.3-6 1.8-3.8-0.4-3.9-2.3-2.1-1.8-2.5 0.4-4.2 5.8-12.7 2.6-7.6 3.4-7.4 0.4-3.4 9-1.3 4.6-5 2-6.6 0.2-2.7-0.9-2.5-1.2-1.8 0.2-1.9-0.6-3.3 2.1-5.7-0.1-3-1.1-3.6-4.3-5.6-0.1-3.9 4.8 2.4 4.2 2.7 4 0.1 3.8 0.7 1.7 1.7 0.5 2.8 7.3 2.8 7.6-9.2 2.8-1.9 3.3-0.8 4.5 0.7 2.1-4.3 1.9-1.1 8.8-3.7 0.7-1.9 1.2-0.4 3.8-0.4 1.2-2.2 0-3.8 1-6.7 1.3-2.5 2-0.1 2.1 0.7 10.7-0.8 1.2 5.4 0.9 2.5 1.3 2.2 1 0.5 1.9-0.3 3.3 1.5 2.1 2.4 2.9 6.3 4.1 9.1 2.5 4.1 3.8 4.8 1.9 1.9 2.2 1.2 2.4 0.4 2.5 0.9 1.7 1.3 1.3 0.5 1.6 0 2.6-0.8 1.1-0.1 2.2 0.6 7.4 4 3.7 1.3 2.1 0.2 3.4-1z" id="LAO3289" name="Louangphrabang" data-id="LAO3289" data-name="Louangphrabang">
 </path>
 <path d="M292.8 218.8l0.1 3.9 4.3 5.6 1.1 3.6 0.1 3-2.1 5.7 0.6 3.3-0.2 1.9 1.2 1.8 0.9 2.5-0.2 2.7-2 6.6-4.6 5-9 1.3-0.4 3.4-3.4 7.4-2.6 7.6-5.8 12.7-0.4 4.2 1.8 2.5 2.3 2.1 0.4 3.9-1.8 3.8-0.3 6 4 5.3 1.8 4.5-0.9 4.8-3.5 3.3-2.2 4.3-4.3 0.4-7.4 4.3-2.1 0.6-7.3-0.8-2.3 0.8-3.2 2.7-6.8 7.7-4.4 3.1-4.7 1.3-10.8 1-5.3 1.5-1.5 1.2-3.9 3.8-1.4 0.8-2 0.6-2.8 1.5-1.7 1.6 1.6 1-2.9 3.4-4.9 1.1-39.8 0.3-3.1-0.9-8.6-5.8-5-2.7-1.7-0.1-1.2 0.5-3.3 2.4-3.3 3.2-2.1 0.7-1.8-2.1-1 0-1.7 3-4.6-3.5-6.1-2-16.1-2.6-1.8 0.1-1.7 0.9-2.2 2-2.6-6.4-0.2-5.7 10.7-3.9 12.1-0.5 2.9-1.3 2.8-1.6 3.2-3.2 2.6-3.5 1.3-5 4.2-2.7 5.2-1 7.7 5.7 4.5 0.6 4.1-2.2 3-3 2-3.6 0.3-15.6-0.3-2.3-1.3-3.1-0.8-3.2-0.1-1.5 6.5 0.5 13.2-0.9 10.3-4.7 4.4-8.3 2.3-3.3 2.5-2.4 2-2.9 3.7-11.2-1-11-1.1-2.2-4.8-3.8-1.4-3.6-12.7-4.3 4.7-2.5 4.8-9.4 5.9-5.5 5.1-1.2 2.1-1 5.7 0 0.7-2.1-1.6-2.1 0.4-5.5 4.5-3.8 5-2.7 5.2-1.9 2.8-4.4 2.1-5 1.6-10.8-1.6-2.7 0.3-1.4-1.4-3.6 1.8-1.6 3 0.6 1.2-0.2 1-0.7 1.1-1.7 2.4 1.3 6.1 4.7 2.3 0.7 2 1.3 1.5 1.6 10.2 2.8 4.1 2.2 6.2 8.2 3.7 3.6 4.5 2.7 4.5 0.4 4.5-1.2 4.6 1.7 4.5 2.8 3.3 3.8z" id="LAO3290" name="Oudômxai" data-id="LAO3290" data-name="Oudômxai">
 </path>
 <path d="M374.1 193.6l-10.7 0.8-2.1-0.7-2 0.1-1.3 2.5-1 6.7 0 3.8-1.2 2.2-3.8 0.4-1.2 0.4-0.7 1.9-8.8 3.7-1.9 1.1-2.1 4.3-4.5-0.7-3.3 0.8-2.8 1.9-7.6 9.2-7.3-2.8-0.5-2.8-1.7-1.7-3.8-0.7-4-0.1-4.2-2.7-4.8-2.4-3.3-3.8-4.5-2.8-4.6-1.7-4.5 1.2-4.5-0.4-4.5-2.7-3.7-3.6-6.2-8.2-4.1-2.2-10.2-2.8-1.5-1.6-2-1.3-2.3-0.7-6.1-4.7-2.4-1.3 0.3-1.9-0.4-1.8-1.1-1.5-1.5-1.3-1.6-1-6.9-2.5-1.8-1.7-1-2.4 0.1-2.4 1.3-5.3 0.5-14 1.9-3.1 0.6-2.6-1.8-5.7 0.2-2.3 1.9-1.3 2.9-0.4 2.7-0.8 1.7-2.5-0.3-2.8-1.9-1.2-2.5-0.7-1.9-1.4-0.5-1.5 0.4-2.9-0.1-1.4-0.7-1.2-2.2-1.9-0.5-0.8-0.1-2.2 0.5-2.5 2.6-8-0.1-1.4-3.2-3-0.7-1-1.7-3.5-3-4.2-0.7-3.4-0.9-1.2-4.7-1.4-2.8-1.8-1.3-2-0.8-5.7-1.1-2.9-3.6-5.9-1.3-3 0-3.1 0.9-2.5 0.7-2.8-0.8-3.8-1.6-2.5-4.1-4.9-0.3-2.4 2.1-2.6 1.2-1.2 1.3-0.7 1.7 0 3.2 0.8 1.8-0.8 0.6-1.2 1.8-5.9 0.5-2.9 2.7-2.6 0.2-2.8-0.2-2.8 0.2-2.8 1.2-3.2 1.9-2.3 2.7-2.4 3.1-1.8 3.8-0.6 1.8 0.1 3.9 3.3 4.3 9.4 3.3 3.3 3.3 0.6 1.3-1.8 0.5-2.9 1.4-2.5 2.3-0.9 5.7-0.2 2.9-1.1 2.7-0.4 2.6 0.2 8.1 2 1.2 0.5 1.3 0.8 0.6 1.2 0.1 1.3 0.9 1.2 1.5 0 1.7 3.4 1.3 4.5 1.5 1.3 0.5 1.4-0.5 1.7 0.2 0.9 1.9 2.1 2.3 1.7 1.9 1.8 0.9 2.9 2.5 2.4 7.9 4 9.5 9.3 4.1 2.5 1.3 1.2 0.8 1.5 1.3 3.5 0.9 1.6 2.7 2.2 3.3 1.9 2 1.8-2 3.1-0.1 0.6 1.5 5.3 5 2.7 5.8 1.9 4.1 3.4 4.5 10.4 1.3 5.8-0.7 8.3 0.3 3.3 0.6 3.2 0.9 2.2 1 1.4 0.9-0.1 6.9-0.1 1.5-0.3 4.1-2.7 2.9-3.9 1.6-4.5 0.3-11.4 2.4-2.3 2.6 2.1 1.1 6.5-0.4 5.7 0.4 2.7 1.6 1.7 2.3-0.2 9.5-4.1 1.5-0.3 1 1.8 0.8 3.2-0.1 9.8 0.4 3.4 1.3 3.1 0 1.6-2.6 2.6-5 6.2-2.8 2.6-6 9.9 2-1 2.6-1.6 2.6-1.3 1.8 0.4-0.1 1.6-4.4 7.1-0.5 2.9-0.1 6.5-0.5 2.4-1.6 1.6-4.5 1.2-2.1 1.7-1.6 2.7 1.1 0.6 2.5-0.3 2.9 0.1 2 0.8 1.7 1.2 1.3 1.5 0.6 1.7-0.1 1.3-1.2 2.8 0 1.4 0.8 1.4 2 0.3 1.4 0.8 1.5 2.5z" id="LAO3291" name="Phôngsali" data-id="LAO3291" data-name="Phôngsali">
 </path>
 <path d="M681.5 599.1l-2.1 9.9-6.4 8.9-4.4 8-3.5 8.7-5.1 5.7-7.1 1.3-14.8-2.2-3.1-2.8-4.4-2.9-5.2-0.8-1-5.1-4.1-4.9-13-7.4-10.3-7.9-5-2.2-3.8-3.8-2.8 1.6-2.2 0.8 0 1.7-5.1 1.4-5.3 0.7-4.1 6.9-2.4 8.4-1.7 3.9-1 4-8.5 14.5-2.2 7.1-1.5-1.7-0.8-1.5-1.2-4.2-5.9-13-1.6-2.3-8.3-7.5-1.7-2.2-1.5-2.7-5.6-14-6.6-11.6-2.5-2.7-3.2-1.7-3.2-0.3-2.9 0.7-2.5 1.7-2.2 2.5-1 1.5-1.6 0.5-2.1-0.5-1.2-1.3-0.9-1.8-1.3-1.6-2-1.4-2.1-1.1-2.2-0.7-2.3-0.4-7.6-0.4-1.8-0.5-7.5-3.5-4.2-3.1-7.7-2.1-3.4-0.3-3.3-0.8-1.1-0.1-2.6 0.3-2.4-0.5-7.2-2.2-1.4 0-10.5 2.2-3.2 1.4-2.9 2.1-2.2 2.8-1.3 3.4 0 0.9 0.8 1.9 1.1 0.4 5.5 3.8 0.9 1.2-0.2 1.3-1.2 1-1.7 0.6-4.8 0.8-2.9 1.1-3.9 0.6-2.3 1.1-1.4 1.8-0.9 2.2-0.7 4.6-0.9 3-1.5 2-2.2 1.4-2.8 1-0.2-0.5-2.5-4.1-1.6 0.6-1.2 2.7-1.6 2.5-1.4 0.8-1.4 0.1-1.2-0.8-0.9-1.5-0.2-1.6 1.2-1.8 1-3.6-0.3-1-0.1-2.7-1.9-5.2-5.5-3.7-6.6-2.2 1.3-6.9-1.6-7-3-2.8-2.8-3.1-4.8-10.4 8.8-2 25.8 1.6 11.2-1.9 15.9-0.8 10.4-2.6 9.2-5.4 3.5-2.9 3.1-3 1.4-5.1 0-5.8-0.6-4.7-1.1-4.3-0.5-4.5 1.3-3.3 2-0.1 1.5-0.9-0.6-1.1-1.5-0.3-1.7-3.8-0.7-4.1 0-3.5 7-2.4 4.4-0.3 5.4 5.4 4 1.2 3.8 2 3.3 2.7 3.8 2.1 3.2 2.3 3.5 1.4 3.6-0.9 2.9-2.4 3.9-2 4.1-1.7 4.8 1.2 11.7 5.5 1.6 1.5 1.9 0.9 3.4 0.1 3.5-0.3 4.3-1.7 2.9-4.3 2.9-3.3 3.3-2.6 1.8-3.2 0.8-3.7 2.9-2.3 2.7-2.7 0.1-4.8-0.7-4.9 1.2-4.4 0.3-2.6 1.9 1.5 1.7 1.8 2.1 1.6 2.5 1.2 2.3 0.7 2.1 1 2.2 2 3.8 5.8 1.6 1.3 2.4 0.5 4.1-0.4 2.5 0.6 2.2 1.4 1.6 1.6 4.5 6.9 1.6 1.4 4.4 2.5 1.9 1.4 3.6 3.7 2 1.4 1.3 0.3 2.5 0.3 1.3 0.4 2.3 3.1 1 0.9 1.5 0.6 5.4 0.8 5.2 1.6 1.8 0.2 7.6-0.6 3.4 1 1.3 3.5 1.4 1.4 2.3 0.6 2.6-0.1 2.3-0.6 2.1 0.4 6.6 3.9 3.2 1.2 1.7-0.1 3-0.7 1.7 0.5 3.7 6.4 2.9 1.9 0.9 1.2 0 2.2-1 2.3-1.3 0.2-1.6-0.5-1.6 0.2-1.9 2.5-1.7 4.1-2 7.7-0.7 5.8 1.4 3.9 3 3 4.2 3 2.3 2.4-0.1 1.7-0.8 1.8 0.1 2.9 1.2 1.8 6.4 4 0.8 1 1.2 2.2 0.8 0.8 1.4 0.4 1.4-0.1z" id="LAO3292" name="Bolikhamxai" data-id="LAO3292" data-name="Bolikhamxai">
 </path>
 <path d="M832.8 769.7l-8.3 0.7-7.4-2.5-4-0.6-3.7-1.6-6-6.2-3.6-2.1-3.6-0.5-0.8 2.1-0.4 2.2-3.1 2.4-13.3 2-13.8-0.9-10.6-3.4-10.5-4.7-5-1-4.8 0.9-0.8 5.7-1.9 3.6-5.3-1.3-14.4-6.6-8.1 0.8-6.7-0.3-3.6 3.8-5 2.2-3.3-1.2-3.1 1.1-4-0.2-3.1-2.3-2.2-3.3-3.1-2.1-3.1 1.4-3.1 2.2-4.1 1.4-4.4-0.5-2.9-2.8-6.8 1.7-3.8-1.6-2.8 1.4-2.1 2.3-3.2-0.8-3.4-1.2-3.1 1.3-0.4 3.9-2.8 1.9-2.7 3.1-0.1 2.5 2.6-1.8 2.2 2.3 2 8-1.8 3.4-7.4-0.9-3.9-4.1-0.8-8.1 0.6-3.1 8.5-20.3 0.6-3 0.6-6.4-0.3-8.3 0.5-6.7-0.1-1.7-0.4-1.6-3.1-7-1.5-1.7-3.3-2-0.9-1.1-2-4-2.6-3.9-1.6-1.7-6.3-4-2.4-0.9-20.5-10.8-3.9-3.5-3.9-4.7-0.6-1.1-0.8-2.7-0.9-1.7-1.9-2.4-3-6-2-2.6-8.5-5.2-0.8-0.7 2.2-7.1 8.5-14.5 1-4 1.7-3.9 2.4-8.4 4.1-6.9 5.3-0.7 5.1-1.4 0-1.7 2.2-0.8 2.8-1.6 3.8 3.8 5 2.2 10.3 7.9 13 7.4 4.1 4.9 1 5.1 5.2 0.8 4.4 2.9 3.1 2.8 14.8 2.2 7.1-1.3 5.1-5.7 3.5-8.7 4.4-8 6.4-8.9 2.1-9.9 3.5-0.4 1.2-0.4 0.9 1.5 0.2 1.6-0.9 3.3 0.1 1.6 1.4 2 2.2 1.5 2.4 1 2.1 0.6 1.6 1.2 1.2-0.8 0.5-1 0.6-3.1 0.8-1.2 2.4-1.1 2.8 0.2 2.6 1.1 2.1 1.6 0.8 1.2 1 3.8 0.1 0.9-0.7 1.5 0.6 0.6 2 0.7 2.2 4.9 1.1 1 2.3 1.3 1.1 1 0.7 1.6 0.5 3.1 0.5 1.4 0.9 1 3.1 1.7 2.1 4.4-1.5 10.5 1.4 4.7 5.1 4.8 3.5 6.5 2.9 4 1.2 2.3 1.7 5.3 1.2 2.2 1.6 1.3 6.9 3 4.2 2.9 3.5 3.2 8.6 11.2 2.8 3 11.4 14 22 18.9 2.8 1.5 2 0.2 1.5-0.9 1.9-2 0.9-2.4 0.7-0.8 1.7-0.1 1.5 0.7 0.3 1.2-0.1 1.4 0.3 1.7 2.5 2.9 0.5 0.8-0.1 1.3-1.1 2.2-0.1 1.4 0.7 2.1 4 6.6 6.3 6 1.4 2.4-0.1 0.8-0.9 2 2.2 4.5z" id="LAO3293" name="Khammouan" data-id="LAO3293" data-name="Khammouan">
 </path>
 <path d="M977.6 1040.2l-3.7 1.2-2.5 0.2-1.3 1.2-0.1 1.8 0.9 2.2-0.2 2 0.5 1.8 1.1 1.5 1.6 1.2 2 1.1 8 6.1 1.1 1.2-0.4 1.4-1.9 2.7-5.5 5.3-1.1 1.9 0.5 2.1 1.3 2.1 0.6 2-1.4 1.7 0.8 1.3 1.4 1.1 1 1.3-0.3 2-1.8 1.5-4.3 6.4-2.1 1-0.8 0.9-1.1 3.1-1.4 2.1-0.4 2.2 0.1 2.3-0.4 1-1.7 1.4-1.5 0-3.1-1.4-2.5-0.5-1.3-0.5-2.4-2.3-3.6-2.6-2.4-0.2-2 1.8-2.4 3.3-2.1 1.6-0.6 0.6-0.4 3.7-1.4 2.7-1.2 0.6-2-0.3-2 0-1.1 1.6-0.7 2.3-1.1 2.2-3.6 3.2-4 2.7-3 1-1.4-0.8-1.1-1.6-2.2-1.7-1.6-0.7-0.5 0.8-3.9 4.7-2.5 4.1-2.2 0.7-2 5-1.7 0.4-1.3-0.2-2.5-1.5-1.2-0.5-1.4 0.2-1.4 0.9-5.1 2.9-1.9 0-1.9-0.8-1.8-1.3-3.5-3.5-4.6-6.6-1.6-2.9-1.6-1.5-9.6-3-3.9-2.1-2.6-4-1.3-0.8-3-0.7-1.2-0.7-0.5-1.3-0.6-4.3-0.6-1.7-1.6-2.6-0.8-0.8-2.8 2.7-2.5 0.9-0.2 1.4 0.3 2.2 1.5 1.1 0 0.8-2-0.1-3.1-0.6-1.2 0.7-0.5 1.6 0.1 0.9 1.5 0.8-0.6 1-1.5 0.9-1.3 2.6-3.4 1.4-7.1 1 1.6-3.6-0.9-1.6 0-1.8-0.5-3.8-2.4-3.4-2.7-2.3-2.4-2.5-2.8-10.9-3.2-2.7-3.7-2.1-2.7-3.1-1.9-3.7-0.3-10 5.4-8.5 6.1-6.2 5.7-4.4 1.8-3.5 3.2-1.8 3.9 0 3.3 1.7 1.5 3.7 3.2 1.7 2.9-2.6 3.6-1.3 2.7 2.7-0.4 4.2-1.5 3.5-0.2 1.9 0.4 1.7-0.6 3.7 0.1 3.5 2.6 3.3 3.5 2.2 3.7 0.3 6.8 2.2 2.6-1.9 4 0.2 4-0.8 2-3.2 0.2-3.8 2.5-2.9 2.3-2 1.4-1.7 5.5-1.5 2.9 0.3-2-5.5 2.4-4.1 0-6.9-1.3-6.9-1.6-2.1-1.8-1.5-1.4-2.5-1.9-1.8-5.4 1.3-2.9-0.6-2.3-1.6 0.4-1 2.9-1.3 1.6-3.2 2.5-3.2 0.8-3.7 2.8-2.5 3.5-2.1 4.3-0.5 4.2 0.8 3.4 2.4 3.9 1 4.5-0.2 4.3-1.8 2.9-0.7 2.9-0.1 3.7 0.8 3.2-1.6 3.1-2.3 9.4-0.7 9.2 3.1 2.5 2.6 2.3 3.2 2.4 2.7 3.1 1.9 4 1.6 4.1 1 2.8-1.5 2.4-2.6 5.7 0.9 3.7 7.5 2.9 2.5 1.2 3.3-2.1 3.8-0.2 1.7z" id="LAO3294" name="Attapu" data-id="LAO3294" data-name="Attapu">
 </path>
 <path d="M977.6 1040.2l0.2-1.7 2.1-3.8-1.2-3.3-2.9-2.5-3.7-7.5-5.7-0.9-2.4 2.6-2.8 1.5-4.1-1-4-1.6-3.1-1.9-2.4-2.7-2.3-3.2-2.5-2.6-9.2-3.1-9.4 0.7-3.1 2.3-3.2 1.6-3.7-0.8-2.9 0.1-2.9 0.7-4.3 1.8-4.5 0.2-3.9-1-3.4-2.4-4.2-0.8-4.3 0.5-3.5 2.1-2.8 2.5-0.8 3.7-2.5 3.2-1.6 3.2-2.9 1.3-1.6 0.1-0.7-11.6-13.8-11-2.9-1-4.6-0.2-4.5-1.9-6.1-7.7-6.7-2.5-7.6-2.8-2.1-6.5 1.4-1.1 1.5-0.5 0.7-3.4 3.1-1.2 3.5 0.5 3.3 1.6 3.7 0.8 2.7-2 1.4-3.3 4.5-0.8 4.9 0.9 7.8-0.1 4.7-3 6.8 1 1.5-1.9-0.3-3.1-0.4-1.8 0-1.7 1.7-2.3-1-4.3-2.3-3.7 1.5-2.9 1.9-1.7-2.6-2.8-3.2-2.2-0.4-3.2 2.9-2.4 3.4-7.4 4.6-6.8 6.2-6.6 3-2.4-0.6-2.1-0.9-2 1.1-4.2 2.1-3.6 3.3 0.3 2.9 1.6 4.5 0.8 4.8 0.1 1.7-1.1 1.2-1.3 3.6 1 3.3-1.5 3.1-2.3 4.8-1.5 1-2.4 0.7-2.7 2.4-3.1 2.7-2.6 2-3.9 0.8 1 1.6 1.5 2.1 1.3 3.6 0.8 2 0.6 3.5 2.3 4.9 6.3 3 2.7 3.7 1.1 3.8-0.4 7.4-1.9 2.5-0.1 0.6 0.7-0.3 1.6-0.1 2.6 0.6 1.5 0.9 1.1 0.1 1.3-1.6 1.9-1.9 1.7-3.6 6.5-2 2.3-1.9 1-5 0.9-2.4 0.9-9.1 6-1.2 0.3-1.2-0.2-2.5-1-1.7 0.3-1.4 1.5-3.3 7.5-0.2 2.8 1.5 2 7.3 4.3 1.3 1.5 0.6 1.9 0.6 5.7 0.6 2.2 1.3 1.9 2.2 1.7 5 2.6 1.7 1.5 7 12.7 1.6 1 0.9-0.5 0.9-1.2 1.3-1 0.9 0 2.7 0.6 1.4-0.7 0.7 0.2 1.1 2.7 1.3 0.5 1-0.5 1.8 0.9 0.3 2.7 0 3.3 0.5 2.4 2.5 1.5 5.7-0.9 2.3 0.6 0.6 1.6 0.3 5.3 0.8 2.4 1.6 1.8 5.9 4.4 1.9 2.1 0.9 1.9 0 2.1-1 6.5-0.4 0.9-0.8 0.2-1.4-1-1.3 1.2-0.5 1.3-0.3 4.4-0.7 2.6-1.4 2.1-2.7 2.2-0.6 1 0.1 1.4 1.2 2.4-0.1 1.5-1.5 1.5-2 0.2-3.6-0.6-2.2 0.2-2.2 0.6z" id="LAO3295" name="Xékong" data-id="LAO3295" data-name="Xékong">
 </path>
 <circle cx="237.4" cy="469.2" id="0">
 </circle>
 <circle cx="43.2" cy="299.1" id="1">
 </circle>
 <circle cx="39.8" cy="299.8" id="2">
 </circle>
</svg>