<?xml version="1.0"?>
<!--
************* Copyright (c) 2017 Pareto Softare, LLC DBA Simplemaps.com *******************		
************* Free for Commercial Use, full terms at  http://simplemaps.com/resources/svg-license ************
************* Attribution is appreciated! http://simplemaps.com ***************************
-->
<svg baseprofile="tiny" fill="#7c7c7c" height="2091" stroke="#ffffff" stroke-linecap="round" stroke-linejoin="round" stroke-width="2" version="1.2" viewbox="0 0 1000 2091" width="1000" xmlns="http://www.w3.org/2000/svg">
 <path d="M500.6 1153.6l-12.8 98.9-38.4 39.5-102.3-26.3-70.4-118.6-83.1-59.4-76.8-19.7-56.4 0.4 10-43.6 27.8-73.2 122.1-177.2 45.7-118.2 87.5 29.4 89.5 19.8 38.4 65.9 12.8 105.5 6.4 112.1 0 164.7z" id="LCA5076" name="Anse-la-Raye" data-id="LCA5076" data-name="Anse-la-Raye">
 </path>
 <path d="M730.4 495.3l-25.1 203.5-32 131.9-51.2 138.4-19.2 145 0 112-57.5-19.7-44.8-52.8 0-164.7-6.4-112.1-12.8-105.5-38.4-65.9-89.5-19.8-87.5-29.4 124.1-188.2 26.6-21.2 49.9-28.2 25.3-25.3 12-32.5 73.4 47.9 38.4 65.9 114.7 20.7z" id="LCA5077" name="Castries" data-id="LCA5077" data-name="Castries">
 </path>
 <path d="M499 1479.6l-24.1 15.6-16.1 44.4-62.8 144.2-55.7 110.9-35.1 76.8-149.3-58.2-85.5-103.1-16.2-27.6 94.6-74.3 121.5-59.3 172.7-65.9 52.7-29.6 3.3 26.1z" id="LCA5078" name="Choiseul" data-id="LCA5078" data-name="Choiseul">
 </path>
 <path d="M999 691.7l-95.5-12.7-95.9 6.6-102.3 13.2 25.1-203.5 13.2-99.8 25.6-85.7 64-59.4 73.6-46.8 41.1 45.8 14.1 65.5 17.5 221.9 19.5 154.9z" id="LCA5079" name="Dauphin" data-id="LCA5079" data-name="Dauphin">
 </path>
 <path d="M999 691.7l-0.4 137.9-36.7 241.6-83.9 16.5-76.8 39.6-89.5-33-108.8 19.8 19.2-145 51.2-138.4 32-131.9 102.3-13.2 95.9-6.6 95.5 12.7z" id="LCA5080" name="Dennery" data-id="LCA5080" data-name="Dennery">
 </path>
 <path d="M906.8 203.6l-73.6 46.8-64 59.4-25.6 85.7-13.2 99.8-114.7-20.7-38.4-65.9-73.4-47.9 20-93 20.3-36.4 124.8-179.9 72.3-50.5 98.6 32.6-22.8 90.8 34 47.1 55.7 32.1z" id="LCA5081" name="Gros Islet" data-id="LCA5081" data-name="Gros Islet">
 </path>
 <path d="M569.7 2006.1l-32.1-44-232.4-90.6 35.1-76.8 55.7-110.9 62.8-144.2 16.1-44.4 24.1-15.6 2.8 23 18 68.4 34.1 118.3 32.3 79.5 7.2 179.2-23.7 58.1z" id="LCA5082" name="Laborie" data-id="LCA5082" data-name="Laborie">
 </path>
 <path d="M951.9 1467l-63.4 257.3-13.7 36.4-54.8 17.5-57.2-77.7-63.9-72.4-102.4-112-68.3-80.8 55.5-31.2 108.8 26.3 140.7 39.5 118.7-2.9z" id="LCA5083" name="Micoud" data-id="LCA5083" data-name="Micoud">
 </path>
 <path d="M951.9 1467l-118.7 2.9-140.7-39.5-108.8-26.3 19.2-125.2 0-52.8 0-112 108.8-19.8 89.5 33 76.8-39.6 83.9-16.5-24.8 163.7 14.8 232.1z" id="LCA5084" name="Praslin" data-id="LCA5084" data-name="Praslin">
 </path>
 <path d="M500.6 1153.6l44.8 52.8 57.5 19.7 0 52.8-19.2 125.2-55.5 31.2-32.5 18.2-52.7 29.6-172.7 65.9-121.5 59.3-94.6 74.3-31.2-34.4-19.9-39.8 35.5-82.3 5.6-53.3-5.6-103.6-8.1-33.8-27.4-59.9-2.1-53.4 13.3-55.7 46.1-98 56.4-0.4 76.8 19.7 83.1 59.4 70.4 118.6 102.3 26.3 38.4-39.5 12.8-98.9z" id="LCA5085" name="Soufrière" data-id="LCA5085" data-name="Soufrière">
 </path>
 <path d="M820 1778.2l-46.3 21.4-23.7 50.5-46.1 200.8-31.8 30.5-41.1 8.6-61.3-83.9 23.7-58.1-7.2-179.2-32.3-79.5-34.1-118.3-18-68.4-2.8-23-3.3-26.1 32.5-18.2 68.3 80.8 102.4 112 63.9 72.4 57.2 77.7z" id="LCA5086" name="Vieux Fort" data-id="LCA5086" data-name="Vieux Fort">
 </path>
 <circle cx="331.9" cy="761.5" id="0">
 </circle>
 <circle cx="59.8" cy="1088.8" id="1">
 </circle>
 <circle cx="117" cy="1339.9" id="2">
 </circle>
</svg>