<?xml version="1.0"?>
<!--
************* Copyright (c) 2017 Pareto Softare, LLC DBA Simplemaps.com *******************		
************* Free for Commercial Use, full terms at  http://simplemaps.com/resources/svg-license ************
************* Attribution is appreciated! http://simplemaps.com ***************************
-->
<svg baseprofile="tiny" fill="#7c7c7c" height="1038" stroke="#ffffff" stroke-linecap="round" stroke-linejoin="round" stroke-width="2" version="1.2" viewbox="0 0 1000 1038" width="1000" xmlns="http://www.w3.org/2000/svg">
 <path d="M944.9 921.9l-0.9-0.6-1.8-1-5-1.2-1.4-0.7-1.2-1-2.1-3.9-0.6-0.8-1.2-0.8-2-0.6-3.3-0.5-7.5-4-2-0.5-1.4 0-1.4 0.9-0.9 0.1-1.8-0.5-0.8-0.1-1.7 0.8-2.6 2.4-2 1.2-2.1 0.6-1.3-0.1-2.7-0.8-1 0-2.3 0.5-1.6-0.1-2.2 0.2-0.8-0.2-0.8-0.8-0.6-2-0.6-3.7-0.2-0.7 0-1.9 0.3-0.9 0-1.7-0.3-1.1-0.2-1.9 0.2-35.3-0.4-1.2-0.6-1.2-1-1.1-1-0.6-1.8-0.6-39.6-6.9-34-5.6-8.1-0.6-1.5 0.9-1.2 0-1.5-0.5-8.6-5.8-3.6-1.1-10.8-1.4 0.6-7.7-0.2-3.9-1.1-3.9-1-2-7.6-11.4-17.1-17.6-1.2-1.8-1.4-2.8-2-6.4-0.8-3.8 0.2-3.2 1.9-9 8.6 3.3 26.8-0.4 32-3.5 15.8-3.1 165.8-6.9 0.4 0.4-1.3 2-2.8 2.3-1.8 3.6 0.2 9.2-1.1 2.6-3.4-1.8 0 3.9 1 4.4 1.7 4.2 2.3 3.3 3.6 2 2.6-0.5 1.8 0.4 1.3 4.6 0.7 4.7-0.3 2.8-1.4 2.5-2.9 4.2-0.6 1.6-0.9 4.1-1.3 1.5-2.3 1.1-0.6-1 0-1.8-0.8-1.6-0.3-1.3 1.3-1.2 0.4-1-2.8-0.5-0.6 0.7-6.3 3.4-1.8 2.3-1.1 2.2-2.5 8.1 2 11.5-0.2 4.1-1.5 4.3-6.5 12-3.5-1.4-4.1 0-4 1.8-3 4.4-0.6 4.3 1.9 14.2-0.3 5.2 1.7 3.4 2.2 3.2 1.4 4.8 0.1 3.7-1-0.1-2-1.4-3.2-0.4-7.5 5.9-0.1 2.3 1.7 7.6-0.3 2.8-1.4 5 0 1.9z" id="LBR1458" name="River Gee" data-id="LBR1458" data-name="River Gee">
 </path>
 <path d="M406.6 334.4l-3.5 3.4-9 5.2-4 3-4.7 5.9-1.2 1-1.5 0.7-1.2 1.3-1.1 0.9-1.4-0.3-1.2-0.6-1.5-0.3-1.6 0-1.4 0.1-5.8 1.6-5.2 2.4-9 6.1-7.6 7.6-4.2 3.1-3.8 0.7-2.6-1.3-1.3-0.7-0.1-0.6 1.1-1.6 0-0.6-0.7-2.4-0.4-0.9-0.7-2.6-0.5-1-1.1-1.5 0.1-0.9 0.7-1 1.6-1.7 0.4-1.4-0.1-1.3-0.4-0.4-3.4-1.4-8.6-2.1-6.3-0.2-2.6 1-0.7 0.8-2.1 2.6-16 13-1.2 1.7-2.4 4.5-3.8 5.1-7.7 8.1-1.8 1.4-2 0.6-1.8 0.3-1.8 0-6.3-1.1-0.9 0-1.8 0.5-8.1 3.7-2.4 1.5-1.6 1.2-0.6 1.8-0.3 5.4-0.7 4.2-2.1 7.8-7.2 1.6-26.8 0.1-12.7 5-2 1.2-2.5 2.1-2 1.5-2.4 1.4-4.4 1.9-2.1 0.3-1.5-0.1-1.7-1.7-1.7-1.9-0.9-1.3-0.8-2-0.6-0.7-1.8-1.6-0.2-1.4 0.1-0.7 0.6-1.4 0.1-0.8-0.4-1.7 0.1-0.8 0.5-0.9 0.2-0.9-1.4-3.6-0.1-0.7 1.1-3.2 0.5-1.7-0.1-1.4-0.8-1.8-0.1-1.4 0.5-0.4 1-0.1 3.7 0.1 0.9-0.2 0.2-0.5-1-1-0.2-0.7 0-1-0.4-0.9-1.3-1.3-15.2-3.2-2.3 0-4.6 1.2-5.2 0.4-2.9-0.3-13.5-4.8-1.6 0.1-1.8 0.7-1.8-1.7 0.7-1.3 1.7-1.2 1.6-0.6 3.2-0.6 1.6-1.2 1.6-2 2.7-4.3 2.3-2.8 1.3-0.7 0.9-0.6 1.5-1.7 0.9-0.8 1.2-0.5 3.8-1.3 1.2-0.5 0.9-0.9 2-2.4 1.2-0.9 4.4-2.4 1.2-0.4 2.4 0.1 1.1-0.4 0.9-0.6 0.9-0.9 1.7-1.5 2.1-1.1 1.3-1.3 3.8-6.4 1.9-2.3 5-3.5 1.6-1.7 0.9-0.8 1.1-0.6 1.4-0.4 5.8-1.2 17.7-11 3.5-3.1 2.2-1.3 5.1-1.6 1.1-0.6 1.6-1.8 1.7-1.7 3.3-2.2 1-1.6 0.3-1.7-1.1-5.6 0.1-2.1 0-4.9-0.9-5.1-0.8-2.3-0.6-1.2-14.2-19.8-2.2-1.8-2.5-1-4.9-0.6-3.8-0.1-4.2 0.4-1.5-0.6-2-3.2-3.6 0.5-1.3 0.3-17.5-3.3-2.6-1.9-0.7 0-3.4 0.7-1.4 0.1-1.5-0.7-0.7-1.7-1.9-1.1-8.8-2-3.2-0.4 32.5-39.9 9.3-7.9 11.5-6.2 1.8-0.6 5.6-0.9-0.6-59.5 0.3-2.9 12.6 10.9 24.4-6.5 13.6 12.9 44.4 13.7 6.3-9.2 22.7 32 38.9-9.1 61.6 25.6 2.7 16.5-36.2 84 4.9 28.7z" id="LBR1459" name="Gbapolu" data-id="LBR1459" data-name="Gbapolu">
 </path>
 <path d="M842.7 849.6l2.6 6.4 0.3 1.7 0.1 3.2-0.4 1.6-0.6 1.5-0.8 1.3-1.6 2.1-5.8 9.7-3.6 6.6-8.6 21.3 0.1 2.4 0.2 2.1 0.8 2.5 0.5 0.9 1.2 1.6 1.8 1.5 1 0.5 17.4 5.9 15.8 6.9 3.6 2 1.8 1.3 2.1 1.7 1.8 1.9 1.6 2.1 10.6 18.1 3.6 4.8 5.7 9.9 1 2.4 0.5 1.9-0.3 2.1-1.7 6.4-0.5 4.7 0.2 8.9-0.3 1.7-0.7 1.9-0.9 1.7-3.5 5.7-0.9 2-4.6-1.4-5.8-4.6-2.7-1.1-4.1-0.5-2.4-1.2-1.9-1.7-2.4-1.6-4.3-1.7-10.6-2.8-8.4-1.3-15.3-6-29.7-3.6-8.6-3-10.4-11.5-3.9-2-4.7-0.9-25.2-9.1-27.1-19.3-14.1-7.8-23.4-8.6 6.4-5.7 2.2-2.8 1.1-3.8 0.6-3.6 1.8-6.2 0.8-1.4 1-0.8 6-0.4 1.3-0.3 2-0.8 1.1-0.9 0.7-0.9 3.4-7.3 5.7-9.9 1.5-2.1 1.3-1.4 7.2-4.1 16.2-12.4 1.8-0.9 1.9-0.3 10.6 0.1 1.3-0.3 2-0.8 1.1-0.9 0.9-1 2.1-3.4 7.7-9.3 1.4-1.3 2-1.2 3.1-1.2 10.8 1.4 3.6 1.1 8.6 5.8 1.5 0.5 1.2 0 1.5-0.9 8.1 0.6 34 5.6z" id="LBR780" name="Grand Kru" data-id="LBR780" data-name="Grand Kru">
 </path>
 <path d="M944.9 921.9l0 0.3 1.2 2.8 1.9 1.8 1.9 1.4 1.4 1.8 0.7 2.2 1.1 12.7-1.1 52.4 0.3 2.2 0.7 2.3 0.4 2.5-0.4 6.2 1.7 5 0.4 2.3-0.8 2.4-2.5 4.6-0.4 2.4 1.3 2.9 8.1 5.5-12.8 1.4-3.7-0.5-5.7-2.4-3.1-0.6-16.6 0-2.1-0.8-1-1.7-0.8-1.7-1.1-0.8-4-0.3-9.6-3.8-3-1.9-2.7-2.3-1.5-2.8-1.3-3.3-2.2-2.8-2.8-0.8 0.9-2 3.5-5.7 0.9-1.7 0.7-1.9 0.3-1.7-0.2-8.9 0.5-4.7 1.7-6.4 0.3-2.1-0.5-1.9-1-2.4-5.7-9.9-3.6-4.8-10.6-18.1-1.6-2.1-1.8-1.9-2.1-1.7-1.8-1.3-3.6-2-15.8-6.9-17.4-5.9-1-0.5-1.8-1.5-1.2-1.6-0.5-0.9-0.8-2.5-0.2-2.1-0.1-2.4 8.6-21.3 3.6-6.6 5.8-9.7 1.6-2.1 0.8-1.3 0.6-1.5 0.4-1.6-0.1-3.2-0.3-1.7-2.6-6.4 39.6 6.9 1.8 0.6 1 0.6 1 1.1 0.6 1.2 0.4 1.2-0.2 35.3 0.2 1.9 0.3 1.1 0 1.7-0.3 0.9 0 1.9 0.2 0.7 0.6 3.7 0.6 2 0.8 0.8 0.8 0.2 2.2-0.2 1.6 0.1 2.3-0.5 1 0 2.7 0.8 1.3 0.1 2.1-0.6 2-1.2 2.6-2.4 1.7-0.8 0.8 0.1 1.8 0.5 0.9-0.1 1.4-0.9 1.4 0 2 0.5 7.5 4 3.3 0.5 2 0.6 1.2 0.8 0.6 0.8 2.1 3.9 1.2 1 1.4 0.7 5 1.2 1.8 1 0.9 0.6z" id="LBR781" name="Maryland" data-id="LBR781" data-name="Maryland">
 </path>
 <path d="M743.7 762l-1.9 9-0.2 3.2 0.8 3.8 2 6.4 1.4 2.8 1.2 1.8 17.1 17.6 7.6 11.4 1 2 1.1 3.9 0.2 3.9-0.6 7.7-3.1 1.2-2 1.2-1.4 1.3-7.7 9.3-2.1 3.4-0.9 1-1.1 0.9-2 0.8-1.3 0.3-10.6-0.1-1.9 0.3-1.8 0.9-16.2 12.4-7.2 4.1-1.3 1.4-1.5 2.1-5.7 9.9-3.4 7.3-0.7 0.9-1.1 0.9-2 0.8-1.3 0.3-6 0.4-1 0.8-0.8 1.4-1.8 6.2-0.6 3.6-1.1 3.8-2.2 2.8-6.4 5.7-10.6-3.9-7.6-4-17.1-14.5-6.3-4.1-7.5-3.5-2.6-0.4-5-2.3-7.5-1.1-6-1.8-5.7-2.7-4.2-3.2 0.8-0.5 0.7-1.3-10.7-3-8.6-5-14-12.1-3.8-2.5-8.5-4-7.6-5.7-4.4-1.6-4.1-2.1-3.2-4.3 3.2 0-3.2-4.5-4.9-2.7-5.5-2-4.7-2.5-15.7-14.7 0.9-0.6 0.1-0.8-0.5-0.6-2.2-1.6-0.6-0.8-0.4-1.3-0.1-1.5 0.1-1.2 1-0.9 3.5-1.1 1.8-1.1 1.6-1.5 2.1-1 0.6-0.7 0.6-1.2 0.7-2.4 0.5-1.2 0.6-0.7 1.4-0.5 3.3-0.3 1-1 6.8-9 1-2.1 1-4.1 0.4-2.1 0-1.3-5-22.4-1.3-3.7-1.8-3-1.4-3.2-0.9-3.5 5.1-5.5 6.7-3.9 7-6.9 3.9-2.9 6.8-2.8 2.1-1.1 7.5-5.8 3.1-1.3 5.2-0.8 2.4-0.9 1.9-1.8 1-2.7 0.6-6.8 0.7-3.1 3-6 4-5.1 5.1-3.7 6.5-1.5 28.3 0.6 3.9-1.9 2.4-2.3 3.7-5.5 63.6 35.6 13.9 6.1 15.7-19 0.8-0.7 1.7-0.5 2.3-0.3 7.8 0.5 2.2 0.4 1.9 0.7 7.5 4.6 2.8 2.2 3.4 3.4 4.7 6.8 3.7 6.9 1.4 3.8 0.9 3.5 0.2 1.7-0.1 2.7-0.4 1.7-1.1 1.5-1.8 1-4 1.1-2.1 0.3-7.9 0.2-2.9 0.5-1.8 0.8-0.8 0.7-1 1.7-0.2 0.9-0.4 2.7-0.6 1.6-5.1 7.3-1.1 1.8-0.7 2 0 1.1 0.3 1.4 1 1.9 1 1 1 0.6 3.8 0.9 3.4 1.1 1.3 0.9 0.8 0.9 0.4 0.8 0.1 1.9-0.5 2.6z" id="LBR782" name="Sinoe" data-id="LBR782" data-name="Sinoe">
 </path>
 <path d="M246.7 416.7l-3.9 6.8-1.6 1.8-3.6 1.5-4.8 1.9-6.7 0.8-1.6 0.9-0.5 2.3 0.1 3.4-0.3 3-1.9 1.4-0.9 1.2 0.3 2.9 1.3 5.2-0.8 2.2-4.2 4.9-1.5 2.2 0.3 0.1-0.3 4.8-0.3 1.4-1 2.3-0.3 1.4-0.3 2.7 0.3 8.2 1 1.9 6.4 6.5 2.1 3 0 1.7-2.9 2.9-5.6 4.4-2.8 0.6-4.1-2-1.6-1.5-9.9-6.4-2.2-1-1.2-0.2-1.4 0.2-1.7 0.6-2.2 1.4-2.3 1.8-3.8 3.6-3.6 2.7-0.9 0.3-5.8 1.1-3 1.1-2.6 1.6-1.3 1.3-0.7 1.3-0.2 1.5-0.1 2.3 0.1 2 0.4 1.9 2.3 6.8 0.5 2.1-0.3 2.9-2.7 6.7-0.1 0.2-4.3-8.7-8.1-8.6-9.4-6.4-38.4-20.9-5.8-2.1-0.7-3-0.4-3.1 0.3-1.8 0.8-2 1.9-2.9 1.3-1.5 1.2-1.1 1.1-0.7 2.4-1 2.6-0.6 0.9-0.9 0.5-1.6 0.3-3 0.8-2.3 1.6-2.6 1.2-1.3 2.1-1.5 1.7-0.4 1.2 0.2 2 0.8 0.9-0.2 0.9-1.2 0.6-1.6 2-7.7 0.3-4.9 0.6-3.8-0.7-2.9-0.8-1.4-2.5-2.7-0.4-1.4 0.2-1.9 3.3-6.9 6.3-17.4 0.3-2.1-0.4-2.5 0.1-2.1 1.1-4.7-0.9-2.7 1.8-0.7 1.6-0.1 13.5 4.8 2.9 0.3 5.2-0.4 4.6-1.2 2.3 0 15.2 3.2 1.3 1.3 0.4 0.9 0 1 0.2 0.7 1 1-0.2 0.5-0.9 0.2-3.7-0.1-1 0.1-0.5 0.4 0.1 1.4 0.8 1.8 0.1 1.4-0.5 1.7-1.1 3.2 0.1 0.7 1.4 3.6-0.2 0.9-0.5 0.9-0.1 0.8 0.4 1.7-0.1 0.8-0.6 1.4-0.1 0.7 0.2 1.4 1.8 1.6 0.6 0.7 0.8 2 0.9 1.3 1.7 1.9 1.7 1.7 1.5 0.1 2.1-0.3 4.4-1.9 2.4-1.4 2-1.5 2.5-2.1 2-1.2 12.7-5 26.8-0.1 7.2-1.6z" id="LBR783" name="Bomi" data-id="LBR783" data-name="Bomi">
 </path>
 <path d="M579 336.6l-0.8 2.3-8 26.7-4.4 6.1-0.5 3.7-0.1 2.5-1.1 3-0.3 2.2-0.1 3.3-0.5 0.9-4.1 4.2 0 1 1.5 1.7 1.4 2 1 0.7 2.2 1.1 0.8 1 0.6 1.4 0.6 1.9 0.8 1.2 0.9 0.9 0.6 1.1 0.7 2.7 0.7 1 1 0.4 1.9 0.2 1.1 0.6 1.2 2.1 2.1 2.1 0 1.9-1.4 7-0.2 2.6 0.3 2.4 1.1 5.1-0.3 1.7-0.7 1.2-1.8 1.5-2.7 2.7-0.9 1.2 0.2 1.2 0.8 0.9 0.8 1.6 0 1.4-0.5 1-1.8 1.6-1 2.3-0.6 1.3-1.6 2.3 0 1.2 0.4 1.5-0.9 3.6-0.6 1.6-0.8 1.3-1.9 2.2 0 1.2 1.7 3 0.1 1.7-1.3 4-1.1 1.1-1.1 0.5-2.5 0-2.7 0.3-3.9-0.1-23.2 5.8-2.8-0.2-0.5-1.3-0.6-1.2-1.8-0.8-1 0.5-0.8 0.9-1.5 1.4-3.7 2.6-1.1 1.2-0.6 1.4-0.3 1.4-0.5 1.4-1 1.2-1.7 1.5-1.7 0.3-2.2 0-1.2 0.4-4.7 4.6-3.6 2.6-1.3 2-1.6 3-1.1 0.1-1.3-0.4-2.2-0.4-1.4 0.5-1.2 0.7-1 1.1-1.3 0.2-1.3-0.3-1.6-0.1-0.9 0.6-0.4 1.1-0.3 1.2-1.5 2.3-1.4 1.6-0.9 0.6-1.1 0.4-2.4-0.3-3.1 0.3-1.3 0-2.7-1-2.1-0.3-1.1 0.6-4.5 3.9-6.6 3.9-2.9 1-2.1 0-1.2-1.9-0.4-0.9-0.2-1.7 0.1-1 0.7-2 2.3-3.9 6.1-7.8 3.4-3.3 3-3.6 0.5-0.9 0.5-1.8-0.1-1.8-0.4-1.3-0.9-1.7-1.2-1.5-5.8-5.1-6.4-7.7-1.1-1.1-1.4-1-2.3-1.1-1.4-0.2-2.1 0.3-12.1 1.2-1.8-0.1-1.7-1-1.2-1.7 5-10.9 1.2-3.7 0-1.4-0.1-1.7-0.4-2.4-0.5-1.7-0.6-1.4-1.4-2.2-1.7-1.7-3.3-2.5-4-2.6-2-1-1.9-0.6-2.4-0.6-2 0-1.9 1.1-1.6 1.8-1.3 1.7-0.5 0.9-0.7 2.2-0.1 1.2 0 2.2 0.6 5.7-0.3 1.9-0.7 1-3.6 3.3-0.6 0.9-0.8 1.8-0.8 2-0.4 1.9-0.4 3.6-0.6 2.9-0.4 0.9-0.9 1-1.3 1-2.8 1.3-1.7 0.3-1.3-0.1-1.7-1.2-1.8-1.9-4.2-5.8-0.8-0.8-1.8-1.3-0.9-0.4-5.5-1.9-10.3-2.4-2.2-0.2-0.9 0.2-2.8 1-5.5 3.1-3.3 0.9-2 0.2-1.9-0.2-30.1-10-2.1-1.1-2.1-1.4-2-1.7-4.2-4.3-1.2-1-1.7-1.1-3.3-1.7-2-0.7-1.5-0.4-3.8 0.2-5.2 0.7-8.1 0.1-4-3.4-2.5-0.7-1.2 0-2 0.4-2.3 0.1-10.6-0.6-2.9-1-2.5-1.9-0.8-2.1-7.6-9 3.6-1.5 1.6-1.8 3.9-6.8 2.1-7.8 0.7-4.2 0.3-5.4 0.6-1.8 1.6-1.2 2.4-1.5 8.1-3.7 1.8-0.5 0.9 0 6.3 1.1 1.8 0 1.8-0.3 2-0.6 1.8-1.4 7.7-8.1 3.8-5.1 2.4-4.5 1.2-1.7 16-13 2.1-2.6 0.7-0.8 2.6-1 6.3 0.2 8.6 2.1 3.4 1.4 0.4 0.4 0.1 1.3-0.4 1.4-1.6 1.7-0.7 1-0.1 0.9 1.1 1.5 0.5 1 0.7 2.6 0.4 0.9 0.7 2.4 0 0.6-1.1 1.6 0.1 0.6 1.3 0.7 2.6 1.3 3.8-0.7 4.2-3.1 7.6-7.6 9-6.1 5.2-2.4 5.8-1.6 1.4-0.1 1.6 0 1.5 0.3 1.2 0.6 1.4 0.3 1.1-0.9 1.2-1.3 1.5-0.7 1.2-1 4.7-5.9 4-3 9-5.2 3.5-3.4 7.2 3.4 3.5 0.9 8.8 1.2 1.6-0.1 2.3-0.5 2.1-1 4.1-2.8 2.2-1.1 0 1.6 3.3-1.9 3.2-3.4 1.5-3.7-1.2-2.8 1.4-3 1.8-2.7 2.5-2 6.7-1.2 4.7-2.3 5.5-1.3 3.9-1.7 9.4-6.4 5.9-6.3-0.9-2.6 2.1-0.9 7.1-6.9 2.8-4.1 4.7 8.3 2.8 2.4 3.6-5.3 1.5-0.5 1.2-0.8 0.5-2.7 1-0.8 2.3-0.5 4-0.1 3.5 0.5 1.8 0.6 2 1.3 1.7 2.1 1.7 4.9 1.5 1.7 3.8 0.6 8.3-2.2 3.8 0.4 3.5 5 3.3 15.4 6 5.6 1.5 0.3 5.5-0.2 1.3 1 0.2 4.2 1.9 1.6 4.7 2.4 0.9 3.3-2.3 8.4 2.8-2.5 1.9-0.6z" id="LBR784" name="Bong" data-id="LBR784" data-name="Bong">
 </path>
 <path d="M559.9 478.4l11.1 3.5 2.9 0.6 1.9-1 2.1-0.8 1.8 0.3 1.1 0.4 1.5 1 0.5 1.4-0.6 1.7-0.8 3-0.5 1.3-0.9 0.8-3.3 1.2-1 0.6-2.6 3.3-0.5 0.8-0.8 2.2-1.2 6.9-0.3 1.3-2.1 4.1 0 1 0.7 0.4 1.1-0.1 1.3-0.5 1.2 0.4 1 0.8 0.4 1.7-1.3 6-1.8 5.3-0.3 1.4-0.1 1.6 0.3 3.9 0 1-0.6 3.8-0.3 7.2-51.5 0.3-3.4 2.3-1.8 0.7-3.6 1.1-1.9 0.8-1.1 0.4-9.8 2.1-2 1.1-1.1 1-1.1 1.8-0.1 0.8 0.2 1.7 0.7 1.7 0.4 1.7 0 1.7-0.3 1.7-1.7 6.2-0.1 1.8 0 3.7 2.5 12.8-0.5 1.1-1.1 1.6-7.5 6.9-1.4 1.8-5.3 8.5-1.4 1.7-1 0.4-1-0.1-0.8-0.6-1.8-2.4-0.8-0.6-0.9-0.4-1.7-0.4-3.4-0.3-2.9 0.1-2.6 0.5-1.4 0.8-1.2 0.9-1.1 2-0.5 2 0.2 2.1-0.1 1.3-0.6 1.6-0.9 0.8-6.2 2.4-1.4 1.1-0.9 1.1-0.3 1.9 0.7 3.5-0.2 2.5-3 9.3 0 1.8 0.7 2.6 0 0.9-0.2 1-1.3 2.3-0.4 0.9 0 0.8 0.5 1.8 2.2 4.3 0.1 0.9-0.4 1.7-8 12.7-0.7 1.8-0.8 3.1 0 1.8 0.4 1.8 2.1 4.6 0.5 1.7 0.2 2.3-0.3 1.3-1.5 3-0.6 2 0.1 2 0.7 1.9 1.7 2.6 0.8 1.9 1.6 7.5 0.1 1.2-0.1 1.5-0.6 2.3-0.8 1.4-5.7 5.3-1.1 1.6-0.7 1.5-0.4 1.6-0.8 0.8-1.2 0.7-1.5 0.6-1 0.9-0.4 0.8-0.2 2.2-26.6-25.6-33.5-27.6-8.7-9.8-1.8-1.5-4.2-2.5-1.5-1.8-0.7-2.5 1-3.1-0.3-2.9-2.3-3.8-3.9-3.2-4.3-2.2-3.7-0.9-2.6-1.4-17.3-13.7-9.9-10.9-13-8.2-4.5-2-9.2-1.8-4.3-2.4-2.6-3.3 0.7-3.3 2.2 1.4 1.9 0.2 1.6-1 1.1-2.3-4.9-1.1-3.3-2.6 0.1-0.4 2.5-4.8 0.3-1.2 0.8-1.6 1.7-2.5 0.3-1.3-0.2-1.1-1-2.4-0.1-1.4 0.9-7.3 1-2.3 3.7-4.5 1.1-2.6 0.9-0.7 1.4-0.5 1.2-0.7 0.9-1.5 0-1.4-0.4-1.2-0.8-0.9-0.5-0.9-0.1-2.1-0.2-1.1 0.1-1 0.8-0.6 2.5-0.9 2.7-1.5 4.2-3.9 1.5-2.4 0.8-2 0-1.4-1.1-3.7-0.2-1.4 0.1-1.3 0.6-1.2 7.6-8.1 1-2.7 1.2-2.1 0.7-2.6 0.9-2.2 0-1.2-0.7-0.8-2.1-1.1-0.5-1.1-0.4-2.3-0.8-0.6-0.9-0.3-0.8-0.7-0.5-1.8 1.1-0.7 2-1.1 8.8-1.7 4-1.5 2.6 0.9 1 0.5 0.1 0.5-0.6 2.2 0.1 1.1 0.4 1 0.7 0.7 1.8 1.1 0.6 0.6 1.2 1.8 0.6 0.5 3.8 1.2 1.7 1.2 1.4 1.7 0.8 0.7 1.4 0.4 2 0.1 3.5-0.6 1.9-0.6 2-1.5 1.1-1.1 0.9-1.2 2-2 0.8-0.3 3.9 0.6 3.1-0.5 3.5 0.1 6.7 2 2 0.3 1.9 0 1.7-0.7 2.3-1.5 6.4-5.8 2.3-2.6 1.2-0.9 1.3-0.6 2.1-0.3 1.3 0.1 1.2 0.4 4.8 2.5 1.7 0.6 1.9 0 0.9-0.2 5.2-5 18.3-22.1 1.2 1.7 1.7 1 1.8 0.1 12.1-1.2 2.1-0.3 1.4 0.2 2.3 1.1 1.4 1 1.1 1.1 6.4 7.7 5.8 5.1 1.2 1.5 0.9 1.7 0.4 1.3 0.1 1.8-0.5 1.8-0.5 0.9-3 3.6-3.4 3.3-6.1 7.8-2.3 3.9-0.7 2-0.1 1 0.2 1.7 0.4 0.9 1.2 1.9 2.1 0 2.9-1 6.6-3.9 4.5-3.9 1.1-0.6 2.1 0.3 2.7 1 1.3 0 3.1-0.3 2.4 0.3 1.1-0.4 0.9-0.6 1.4-1.6 1.5-2.3 0.3-1.2 0.4-1.1 0.9-0.6 1.6 0.1 1.3 0.3 1.3-0.2 1-1.1 1.2-0.7 1.4-0.5 2.2 0.4 1.3 0.4 1.1-0.1 1.6-3 1.3-2 3.6-2.6 4.7-4.6 1.2-0.4 2.2 0 1.7-0.3 1.7-1.5 1-1.2 0.5-1.4 0.3-1.4 0.6-1.4 1.1-1.2 3.7-2.6 1.5-1.4 0.8-0.9 1-0.5 1.8 0.8 0.6 1.2 0.5 1.3 2.8 0.2 23.2-5.8 3.9 0.1 2.7-0.3z" id="LBR785" name="Grand Bassa" data-id="LBR785" data-name="Grand Bassa">
 </path>
 <path d="M132 388.2l0.9 2.7-1.1 4.7-0.1 2.1 0.4 2.5-0.3 2.1-6.3 17.4-3.3 6.9-0.2 1.9 0.4 1.4 2.5 2.7 0.8 1.4 0.7 2.9-0.6 3.8-0.3 4.9-2 7.7-0.6 1.6-0.9 1.2-0.9 0.2-2-0.8-1.2-0.2-1.7 0.4-2.1 1.5-1.2 1.3-1.6 2.6-0.8 2.3-0.3 3-0.5 1.6-0.9 0.9-2.6 0.6-2.4 1-1.1 0.7-1.2 1.1-1.3 1.5-1.9 2.9-0.8 2-0.3 1.8 0.4 3.1 0.7 3-38-13.6-29.3-13.1-5.3-6.3-0.2-9.8 1.4-5.4 0.3-2.3 0.1-3.2-3.3-6.3-0.9-1.2-4.6-1.3-4.8-3-4.1-3.4-2.4-2.5-6.2-8.9 7.7-3.6 1.9-1.1-0.5-6.2 1-4.2 6.7-3.8 2.3-4 1.5-4.7 0.6-3.7-0.9-4.9 0.8-1.7 5.3-0.6 1.8-0.6 1.3-1.4 0.5-2.1-0.8-3.1-3.4-5.7-0.7-2.5 0.8-1 4.4-4 8.5-13.4 4.1-0.9 20.1-9.1 2.1-2 20.2-26 36.2-28.8 10-5.6 9.3-2.1 3.2-1.4 2.7-2.2 2.6-3.1 3.2 0.4 8.8 2 1.9 1.1 0.7 1.7 1.5 0.7 1.4-0.1 3.4-0.7 0.7 0 2.6 1.9 17.5 3.3 1.3-0.3 3.6-0.5 2 3.2 1.5 0.6 4.2-0.4 3.8 0.1 4.9 0.6 2.5 1 2.2 1.8 14.2 19.8 0.6 1.2 0.8 2.3 0.9 5.1 0 4.9-0.1 2.1 1.1 5.6-0.3 1.7-1 1.6-3.3 2.2-1.7 1.7-1.6 1.8-1.1 0.6-5.1 1.6-2.2 1.3-3.5 3.1-17.7 11-5.8 1.2-1.4 0.4-1.1 0.6-0.9 0.8-1.6 1.7-5 3.5-1.9 2.3-3.8 6.4-1.3 1.3-2.1 1.1-1.7 1.5-0.9 0.9-0.9 0.6-1.1 0.4-2.4-0.1-1.2 0.4-4.4 2.4-1.2 0.9-2 2.4-0.9 0.9-1.2 0.5-3.8 1.3-1.2 0.5-0.9 0.8-1.5 1.7-0.9 0.6-1.3 0.7-2.3 2.8-2.7 4.3-1.6 2-1.6 1.2-3.2 0.6-1.6 0.6-1.7 1.2-0.7 1.3 1.8 1.7z" id="LBR786" name="Grand Cape Mount" data-id="LBR786" data-name="Grand Cape Mount">
 </path>
 <path d="M486.1 294.7l0.9 2.6-5.9 6.3-9.4 6.4-3.9 1.7-5.5 1.3-4.7 2.3-6.7 1.2-2.5 2-1.8 2.7-1.4 3 1.2 2.8-1.5 3.7-3.2 3.4-3.3 1.9 0-1.6-2.2 1.1-4.1 2.8-2.1 1-2.3 0.5-1.6 0.1-8.8-1.2-3.5-0.9-7.2-3.4-4.9-28.7 36.2-84-2.7-16.5-61.6-25.6-38.9 9.1-22.7-32-6.3 9.2-44.4-13.7-13.6-12.9-24.4 6.5-12.6-10.9 1-2.3 2.2-1.9 6.2-3.4 2.6-2.5 5.7-10.5 3.5-4.5 5.8-2.9 4.9-0.7 19.6-0.1 5-0.7 4.8-1.5 4.7-2.8 6-5.8 0.7-4.6-1.9-4.9-1.8-6.9 0.5-5.6 4.3-9.4 7.5-30.2 0.2-12.8 2.6 0.2 2.6-0.5 5-1.9 1.9 4.1 4.1-2.4 8.3-8.1 4.1-1.2 4.1 0 13.9 3.5 3.7 2.2 1.6 3.6-2.4 11.5 1 3.3 3.3 1.1 5.2-0.8 9.8-5.9 9.5-7.4 4.1-2.2 3.9-1.2 4.1-0.6 4.8-0.1 1.2-0.1 3.4-1 1.2 0.6 1.1 1.1 1.2 1.6 2.2-0.6 4.4-2.3 6-1.8 0.4-1.6-0.9-1.9 0-2 1.7-2.1 1.8-1.9 1.1-2.1-0.1-3 4.1 0.6 2.6 3.2 1.4 4.3 1.6 11.5 1.1 4.4 2.5 4.3 3.4 3.7 1-0.6 0-3.6 0.6-5.1 3-3.4 4.8 0 4.9 2.3 3.1 3.2 1.4 5.3-2 2.9-3.2 2.3-2.3 3.1-0.4 4.5 2.2 0.7 3.7-0.8 4.2-0.2 1.9 0.3 2.1-0.3 1.8-0.9 1.2-1.6 1.7-2 2 1.4 3.2 4.4 12.2 5.2 4.3 3.1 1.7 1.9 1.3 0.6-3 1.9-2.7 1.3-1.5 1.2-2.6 2.8 2.2 2.1 1.2 2.6 1 2.7 1.4 2.5 1.1 1 0.4 1.1-0.4 1.2-1.1 1.1-2.4 3.9-1.6 7 0.4 6.6 3.6 2.6 5.9 1.2 2.4 1.3 0.8 3 0 2.8 4.5 17.9-0.5 2.5-2.7 4.5-0.3 2.8 2.9-3.6 2.6-2 2.6 0.2 2.8 3.4 1.3 2.7 0.4 2.5-0.5 2.5-1.8 2.3-0.3 0.7-3.2 10.7-0.6 10.4 2.4 10.3 5.6 10.3 6.4 8.1 2.1 4.2 6.2 8-2.6 6.3-2.5 8.8 0.4 8.3 5.2 6-2.7 2-2.1 3.2-1.4 3.7-1.2 6.6-1.7 2.8-4.4 5.1 1 3.4-2.1 5.2-5.5 8.3-5.1 3.8-2.3 2.4-1 3.1-0.1 3.3-0.7 2.9-1.5 2.5-2.7 2.3 0.9 0.7z" id="LBR787" name="Lofa" data-id="LBR787" data-name="Lofa">
 </path>
 <path d="M274 445l0.8 6.1-0.5 2.3-12.3 23.7-0.9 2.2-0.4 1.6 0.2 1.8 0.7 1.8 0.4 0.9 2.9 3.7 1.1 1.9 0.7 2 0.6 2 0.9 5.5 0.3 14.4-0.5 3.7-0.5 2.5-0.8 0.9-1.8 1.7-2.2 1.1-8.5 2.8-0.9 0.5-1.1 1.3-1.3 2-4.1 7.8-1.6 1.7-0.9 0.7-2 1.1-11.2 4.3-1.9 1-7.9 6-2 0.9-2.9 1-2.3 1.3-1.8 1.6-0.9 1.1-0.6 1.1-5.1 16.6-5.5-1.3-31.4-16.1-4.8-4.4 1.8-4.2 1.2 2 1.3 1.4 1.7 1 2.7 0.6-4.1-6.7-0.8-5.9 2.4-5.5 5.6-5.6-3.5 0-2.5 0.7-2 1.2-2 1.6-1.5-3.1 0.1-0.2 2.7-6.7 0.3-2.9-0.5-2.1-2.3-6.8-0.4-1.9-0.1-2 0.1-2.3 0.2-1.5 0.7-1.3 1.3-1.3 2.6-1.6 3-1.1 5.8-1.1 0.9-0.3 3.6-2.7 3.8-3.6 2.3-1.8 2.2-1.4 1.7-0.6 1.4-0.2 1.2 0.2 2.2 1 9.9 6.4 1.6 1.5 4.1 2 2.8-0.6 5.6-4.4 2.9-2.9 0-1.7-2.1-3-6.4-6.5-1-1.9-0.3-8.2 0.3-2.7 0.3-1.4 1-2.3 0.3-1.4 0.3-4.8-0.3-0.1 1.5-2.2 4.2-4.9 0.8-2.2-1.3-5.2-0.3-2.9 0.9-1.2 1.9-1.4 0.3-3-0.1-3.4 0.5-2.3 1.6-0.9 6.7-0.8 4.8-1.9 7.6 9 0.8 2.1 2.5 1.9 2.9 1 10.6 0.6 2.3-0.1 2-0.4 1.2 0 2.5 0.7 4 3.4z" id="LBR788" name="Montserrado" data-id="LBR788" data-name="Montserrado">
 </path>
 <path d="M423.1 472l-18.3 22.1-5.2 5-0.9 0.2-1.9 0-1.7-0.6-4.8-2.5-1.2-0.4-1.3-0.1-2.1 0.3-1.3 0.6-1.2 0.9-2.3 2.6-6.4 5.8-2.3 1.5-1.7 0.7-1.9 0-2-0.3-6.7-2-3.5-0.1-3.1 0.5-3.9-0.6-0.8 0.3-2 2-0.9 1.2-1.1 1.1-2 1.5-1.9 0.6-3.5 0.6-2-0.1-1.4-0.4-0.8-0.7-1.4-1.7-1.7-1.2-3.8-1.2-0.6-0.5-1.2-1.8-0.6-0.6-1.8-1.1-0.7-0.7-0.4-1-0.1-1.1 0.6-2.2-0.1-0.5-1-0.5-2.6-0.9-4 1.5-8.8 1.7-2 1.1-1.1 0.7 0.5 1.8 0.8 0.7 0.9 0.3 0.8 0.6 0.4 2.3 0.5 1.1 2.1 1.1 0.7 0.8 0 1.2-0.9 2.2-0.7 2.6-1.2 2.1-1 2.7-7.6 8.1-0.6 1.2-0.1 1.3 0.2 1.4 1.1 3.7 0 1.4-0.8 2-1.5 2.4-4.2 3.9-2.7 1.5-2.5 0.9-0.8 0.6-0.1 1 0.2 1.1 0.1 2.1 0.5 0.9 0.8 0.9 0.4 1.2 0 1.4-0.9 1.5-1.2 0.7-1.4 0.5-0.9 0.7-1.1 2.6-3.7 4.5-1 2.3-0.9 7.3 0.1 1.4 1 2.4 0.2 1.1-0.3 1.3-1.7 2.5-0.8 1.6-0.3 1.2-2.5 4.8-0.1 0.4-3.3-3.5-3.7-2.9-7.9-4.9-4-1.6-4.7-0.3 0 1.8 12.6 6.5 5.6 4.6 1.8 5.7-3.7-4.6-6.8-4.1-7.8-3.2-43.9-10.9 5.1-16.6 0.6-1.1 0.9-1.1 1.8-1.6 2.3-1.3 2.9-1 2-0.9 7.9-6 1.9-1 11.2-4.3 2-1.1 0.9-0.7 1.6-1.7 4.1-7.8 1.3-2 1.1-1.3 0.9-0.5 8.5-2.8 2.2-1.1 1.8-1.7 0.8-0.9 0.5-2.5 0.5-3.7-0.3-14.4-0.9-5.5-0.6-2-0.7-2-1.1-1.9-2.9-3.7-0.4-0.9-0.7-1.8-0.2-1.8 0.4-1.6 0.9-2.2 12.3-23.7 0.5-2.3-0.8-6.1 8.1-0.1 5.2-0.7 3.8-0.2 1.5 0.4 2 0.7 3.3 1.7 1.7 1.1 1.2 1 4.2 4.3 2 1.7 2.1 1.4 2.1 1.1 30.1 10 1.9 0.2 2-0.2 3.3-0.9 5.5-3.1 2.8-1 0.9-0.2 2.2 0.2 10.3 2.4 5.5 1.9 0.9 0.4 1.8 1.3 0.8 0.8 4.2 5.8 1.8 1.9 1.7 1.2 1.3 0.1 1.7-0.3 2.8-1.3 1.3-1 0.9-1 0.4-0.9 0.6-2.9 0.4-3.6 0.4-1.9 0.8-2 0.8-1.8 0.6-0.9 3.6-3.3 0.7-1 0.3-1.9-0.6-5.7 0-2.2 0.1-1.2 0.7-2.2 0.5-0.9 1.3-1.7 1.6-1.8 1.9-1.1 2 0 2.4 0.6 1.9 0.6 2 1 4 2.6 3.3 2.5 1.7 1.7 1.4 2.2 0.6 1.4 0.5 1.7 0.4 2.4 0.1 1.7 0 1.4-1.2 3.7-5 10.9z" id="LBR789" name="Margibi" data-id="LBR789" data-name="Margibi">
 </path>
 <path d="M697.9 511.1l-0.1 0-4.1 9.1-5.7 19.5-14.6 29.5-3.9 5.9-5.5 6.4-6.5 5.4-6.7 2.5-3.6 1.9-3 8-3.6 3 2.7 4 0.6 6-1.1 6.4-2.2 4.7-3.8 2.6-9.9 1.1-4.2 1.5-3.1 4.1 2 3 3 2.4-0.1 2.2-4.5 5.8-1.4 5.6 1.3 2.6 3.6-3.3 3.7 3.4 1.9 3.8-0.5 4.5-3.7 5.5-2.4 2.3-3.9 1.9-28.3-0.6-6.5 1.5 1.1-5.7 0.3-2 0.2-0.5 2-3.3 0.1-0.8-0.3-1.1-1.1-1.9-2.6-3.4-0.7-1.7-0.1-1.1 0.1-1.2 0.9-2 1.8-1.5 0.8-0.5 0-0.4-1.8-1.7-2.1-2.9-2.2-1.1 0-1.5 0.9-3.1 0.8-1 2.4 0.3 1.3-0.3 1.5-0.9 1.2-1.3-0.2-0.9-4-3.1-1.6-1.8 0.1-0.8 0.5-0.9 4-4.9 0.6-0.9-0.6-1.8-2-3.4-0.6-0.8-1.4-0.6-0.9-0.8 0.1-1.2 0.9-2.9 0.1-0.6-0.1-3.4-0.7-1.5-1.2-1.2-5.1-3.4-0.7-1 0.2-0.5 2.1-1.1 0.4-0.6 0.2-1.2 1.1-1 0.1-1 0.2-3.1 0.7-0.5 0.9 0.8 0.3 0.9 0.6 0.5 0.7-0.5 1.5-2.2 0.2-0.8 0.4-2.8 0.8-1.2 3.2-1.2 0.8-0.6 0-1.2-0.3-2.8-0.2-1.1-0.2-2.5-0.8-4.9 0-1.5 0.3-1.1 1.2-1-0.4-0.8-1.4-1.1-4.6-2.2-5.8-1.5-0.8-0.3-2.4-3.1-4.7-10.7 0.3-7.2 0.6-3.8 0-1-0.3-3.9 0.1-1.6 0.3-1.4 1.8-5.3 1.3-6-0.4-1.7-1-0.8-1.2-0.4-1.3 0.5-1.1 0.1-0.7-0.4 0-1 2.1-4.1 0.3-1.3 1.2-6.9 0.8-2.2 0.5-0.8 2.6-3.3 1-0.6 3.3-1.2 0.9-0.8 0.5-1.3 0.8-3 0.6-1.7-0.5-1.4-1.5-1-1.1-0.4-1.8-0.3-2.1 0.8-1.9 1-2.9-0.6-11.1-3.5 2.5 0 1.1-0.5 1.1-1.1 1.3-4-0.1-1.7-1.7-3 0-1.2 1.9-2.2 0.8-1.3 0.6-1.6 0.9-3.6-0.4-1.5 0-1.2 1.6-2.3 0.6-1.3 1-2.3 1.8-1.6 0.5-1 0-1.4-0.8-1.6-0.8-0.9-0.2-1.2 0.9-1.2 2.7-2.7 1.8-1.5 0.7-1.2 0.3-1.7-1.1-5.1-0.3-2.4 0.2-2.6 1.4-7 0-1.9-2.1-2.1-1.2-2.1-1.1-0.6-1.9-0.2-1-0.4-0.7-1-0.7-2.7-0.6-1.1-0.9-0.9-0.8-1.2-0.6-1.9-0.6-1.4-0.8-1-2.2-1.1-1-0.7-1.4-2-1.5-1.7 0-1 4.1-4.2 0.5-0.9 0.1-3.3 0.3-2.2 1.1-3 0.1-2.5 0.5-3.7 4.4-6.1 8-26.7 0.8-2.3 1.4-0.5 3.4-0.5 3.3-1.1 3.4-2.4 3-2.8 3.4-1.9 4.2 0.4 1.9-1.2 5.5-1.6 1-0.1 0.8-3.9 1.2-0.3 2.5 1.1 1.3-5.7 3.2 1.9 4.6 7.4 3.2-0.4 10.6-4.1 2.7-1.5 1.6-4.9-1.2-4.7-1.8-4.4-0.5-4.2 1.2-2.6 2.2-3.5 4.4-5.5 2.3-1.4 4-1.2 2.1-1.9 0.9-2.2 0.4-5 0.8-2.3 1.5-1.2 6.8-4.1 4.1-4.4 2.5-4.5 0.9-4.9-0.3-5.7-0.6-1.2-2.1-0.7-0.3-1.5 0.5-1.5 1.4-2.5 0.4-1.4 0.5-8.5 1.7-5.1 6.4-7.8 1.9-4.9 29.1 1.5-1.3 9.2 1.5 6.8 4.6 5.5 7.8 5.8 7.4 4.8 10.2 5.1 4.4 8.7 5 17.3 2.9 23.9 1.3 4.8 1.7 2.9 4.1 5.9 1.6 3.3 1.9 7.6 1.2 1.9 2.9 3.7 1 1.9 0.1 1.7-0.5 3.1 0.2 1.6 0.8 1.5 3.6 3.6 1.5 2.6 0.7 2.3 0.3 6 4.2 23.4-0.6 5.9-1.8 2.3-5 3.9-1.3 2.1-0.3 4.4 0.3 4-0.3 3.9-3.1 6.8 1.2 1.8 2 1.3 1.2 1.5 0.2 3.3-0.4 3.4-2.1 7.4-3 7.1-3.5 5.4-26.7 30-17.6 14-3.3 4-0.6 0-4.1 2.2 0 0.5-1.1 3.4-0.5 1.1-1.1 0.7-2.9 0.5-1.2 0.5-6 7.6z" id="LBR791" name="Nimba" data-id="LBR791" data-name="Nimba">
 </path>
 <path d="M583.8 673.3l-5.1 3.7-4 5.1-3 6-0.7 3.1-0.6 6.8-1 2.7-1.9 1.8-2.4 0.9-5.2 0.8-3.1 1.3-7.5 5.8-2.1 1.1-6.8 2.8-3.9 2.9-7 6.9-6.7 3.9-5.1 5.5 0.9 3.5 1.4 3.2 1.8 3 1.3 3.7 5 22.4 0 1.3-0.4 2.1-1 4.1-1 2.1-6.8 9-1 1-3.3 0.3-1.4 0.5-0.6 0.7-0.5 1.2-0.7 2.4-0.6 1.2-0.6 0.7-2.1 1-1.6 1.5-1.8 1.1-3.5 1.1-1 0.9-0.1 1.2 0.1 1.5 0.4 1.3 0.6 0.8 2.2 1.6 0.5 0.6-0.1 0.8-0.9 0.6-12.8-12.1-1.8-3.7-2.5-8.9-2.2-4.3-2.6-2.5-4-2.7-4.2-2.3-3.6-0.9-0.7-0.3-6.9-1.4-1.5 0.1-0.3-2.4 2.9-3.7 0.6-2.3-4-5.9-24.3-14.2-8.9-8.5 0.2-2.2 0.4-0.8 1-0.9 1.5-0.6 1.2-0.7 0.8-0.8 0.4-1.6 0.7-1.5 1.1-1.6 5.7-5.3 0.8-1.4 0.6-2.3 0.1-1.5-0.1-1.2-1.6-7.5-0.8-1.9-1.7-2.6-0.7-1.9-0.1-2 0.6-2 1.5-3 0.3-1.3-0.2-2.3-0.5-1.7-2.1-4.6-0.4-1.8 0-1.8 0.8-3.1 0.7-1.8 8-12.7 0.4-1.7-0.1-0.9-2.2-4.3-0.5-1.8 0-0.8 0.4-0.9 1.3-2.3 0.2-1 0-0.9-0.7-2.6 0-1.8 3-9.3 0.2-2.5-0.7-3.5 0.3-1.9 0.9-1.1 1.4-1.1 6.2-2.4 0.9-0.8 0.6-1.6 0.1-1.3-0.2-2.1 0.5-2 1.1-2 1.2-0.9 1.4-0.8 2.6-0.5 2.9-0.1 3.4 0.3 1.7 0.4 0.9 0.4 0.8 0.6 1.8 2.4 0.8 0.6 1 0.1 1-0.4 1.4-1.7 5.3-8.5 1.4-1.8 7.5-6.9 1.1-1.6 0.5-1.1-2.5-12.8 0-3.7 0.1-1.8 1.7-6.2 0.3-1.7 0-1.7-0.4-1.7-0.7-1.7-0.2-1.7 0.1-0.8 1.1-1.8 1.1-1 2-1.1 9.8-2.1 1.1-0.4 1.9-0.8 3.6-1.1 1.8-0.7 3.4-2.3 51.5-0.3 4.7 10.7 2.4 3.1 0.8 0.3 5.8 1.5 4.6 2.2 1.4 1.1 0.4 0.8-1.2 1-0.3 1.1 0 1.5 0.8 4.9 0.2 2.5 0.2 1.1 0.3 2.8 0 1.2-0.8 0.6-3.2 1.2-0.8 1.2-0.4 2.8-0.2 0.8-1.5 2.2-0.7 0.5-0.6-0.5-0.3-0.9-0.9-0.8-0.7 0.5-0.2 3.1-0.1 1-1.1 1-0.2 1.2-0.4 0.6-2.1 1.1-0.2 0.5 0.7 1 5.1 3.4 1.2 1.2 0.7 1.5 0.1 3.4-0.1 0.6-0.9 2.9-0.1 1.2 0.9 0.8 1.4 0.6 0.6 0.8 2 3.4 0.6 1.8-0.6 0.9-4 4.9-0.5 0.9-0.1 0.8 1.6 1.8 4 3.1 0.2 0.9-1.2 1.3-1.5 0.9-1.3 0.3-2.4-0.3-0.8 1-0.9 3.1 0 1.5 2.2 1.1 2.1 2.9 1.8 1.7 0 0.4-0.8 0.5-1.8 1.5-0.9 2-0.1 1.2 0.1 1.1 0.7 1.7 2.6 3.4 1.1 1.9 0.3 1.1-0.1 0.8-2 3.3-0.2 0.5-0.3 2-1.1 5.7z" id="LBR792" name="River Cess" data-id="LBR792" data-name="River Cess">
 </path>
 <path d="M697.9 511.1l4.1 0.3 2.4 0.5 5.8-0.2 2.9 0.8 2.7 2.5 7.2 9.7 4.5 1.5 3.1-2.5 1.9-4.6 1.1-4.5 1.2-2.1 1.5 1.1 2.8 3.6 7.7 4.1 3.2 3.7-0.3 1.4-1.8 1.6-1.3 4 0.4 2.4 2.2 4.4 0.6 1.9-1.2 2.2-2.3 1.3-0.8 1.5 2.9 2.9 2.6-2.5 3-1.2 3 0.1 2.5 1.2 3.2-2.7 2.5 1 2.4 2.7 2.6 2.3 1.2-0.1 0.8-1.1 1-0.8 1.8 1 1.2 2 0.3 2 0 1.7 0.3 1 2.2 0.8 18.9 4.3 3 1.1 2.6 1.5 1.6 1.2 2.1 0.7 3.9 0 3.4-0.8 5.4-3.1 2.9-1.1 11.3-1.6 6.6-0.2 4.3 1 3.9 2.7 15.8 3.8 1.3 0.1 2.2-0.7 1.5 0.5 0.4 0.8 0.6 2.9 0.9 1.1 10.8 8.8 3.8 4.6 0.6 3.3-3.2 9.5-1.2 5.2-0.6 5.5 0.7 5 2.7 3.4 0.1-1.1 2.3-1.3 3.1-0.8 2.1 0.1 2.4 2.2 1 2.3 0.8 5.5 0.8 0.9 1.3 0.4 1.2 0.7 0.6 1.5-0.5 1.3-2.3 1.3-0.5 1.1-0.2 7 0.3 1.7 3.1 4 9.7 5.1 2.9 2.9 4.4 6.1 3.4-1.7 2.8-4.9 2.7-3.2 1.6 1.2 2.7 3.1 3.6 2.9 4.3 0.7 0.3 0.9 5.1 2.8 0.6 0.1 5.3 2.3 1.2 1.6-1.9 2.6 1.8 1.5 3.3 4.1 1.7 1 2.8-1.4 3.1-2.6 1.8-0.7-0.8 4.1 3.7 0.7 1.7 3.2 1.2 3.5 2.3 1.4 1.9-1.9 1.2-4 0.8-7.2 7.8 3.4 1.1 8.5-1.6 10.3-0.2 9 4.5 19.2 8.3 16.9 3.1 4-5.1-0.9-1.7 3 1.2 4.6 3.3 4.3-4.9 0.3-1.5-0.1 2.4 2.4-165.8 6.9-15.8 3.1-32 3.5-26.8 0.4-8.6-3.3 0.5-2.6-0.1-1.9-0.4-0.8-0.8-0.9-1.3-0.9-3.4-1.1-3.8-0.9-1-0.6-1-1-1-1.9-0.3-1.4 0-1.1 0.7-2 1.1-1.8 5.1-7.3 0.6-1.6 0.4-2.7 0.2-0.9 1-1.7 0.8-0.7 1.8-0.8 2.9-0.5 7.9-0.2 2.1-0.3 4-1.1 1.8-1 1.1-1.5 0.4-1.7 0.1-2.7-0.2-1.7-0.9-3.5-1.4-3.8-3.7-6.9-4.7-6.8-3.4-3.4-2.8-2.2-7.5-4.6-1.9-0.7-2.2-0.4-7.8-0.5-2.3 0.3-1.7 0.5-0.8 0.7-15.7 19-13.9-6.1-63.6-35.6 0.5-4.5-1.9-3.8-3.7-3.4-3.6 3.3-1.3-2.6 1.4-5.6 4.5-5.8 0.1-2.2-3-2.4-2-3 3.1-4.1 4.2-1.5 9.9-1.1 3.8-2.6 2.2-4.7 1.1-6.4-0.6-6-2.7-4 3.6-3 3-8 3.6-1.9 6.7-2.5 6.5-5.4 5.5-6.4 3.9-5.9 14.6-29.5 5.7-19.5 4.1-9.1 0.1 0z" id="LBR793" name="Grand Gedeh" data-id="LBR793" data-name="Grand Gedeh">
 </path>
 <circle cx="308.2" cy="578.9" id="0">
 </circle>
 <circle cx="336.6" cy="342" id="1">
 </circle>
 <circle cx="202.5" cy="513.4" id="2">
 </circle>
</svg>