<?xml version="1.0"?>
<!--
************* Copyright (c) 2017 Pareto Softare, LLC DBA Simplemaps.com *******************		
************* Free for Commercial Use, full terms at  http://simplemaps.com/resources/svg-license ************
************* Attribution is appreciated! http://simplemaps.com ***************************
-->
<svg baseprofile="tiny" fill="#7c7c7c" height="763" stroke="#ffffff" stroke-linecap="round" stroke-linejoin="round" stroke-width="2" version="1.2" viewbox="0 0 1000 763" width="1000" xmlns="http://www.w3.org/2000/svg">
 <path d="M593.4 571l1.7 6.7-0.4 1.8-0.1 2.7-1.3 1.8 0.2 0.8 2.9 3.2 0.8 2.1-0.8 4.4-0.7 2.5 0 2.3 0.6 2 3.4 2.2 15.1 2 2.8-0.2 5.6-1.7 2.2-1.5 4-1.8 3-1.7 2.3-0.2 4.7 1 5 2.3 1.1 1 0.4 1.6-0.7 3.7 0.3 1.8 1.2 1.5 1.8 0.1 1.4-0.5 2.7-1.8 2.1-0.4 3.3 0.6 2.3 0.8 1.8-0.3 8-5.9 13.9-5.1 8.5-0.7 0.3 13.3-0.7 3.2-3.1 1.6-4.6 1-1.7 1-1.3 2.2-0.7 4.1-1 8.9-1.2 4.3-6.1 8-18.3 18.2-0.6 2.8 0.8 2.3 1.7 1.5 4.1 2 1.7 1.1 1 1.5 0.8 1.9 1.2 4.2 3.1 6.1-5 3-0.7 1.9 0.1 5.2-3.2 2-1.5 1.9-1.1 0.1-0.3 1 0.8 4.4 2 6.3 2.3 4.9 1.5 5.6-0.3 7.9-2.2 5-3 1.6-11 1.8-3.1-0.2-2.5-2.5-2.2-5.7-1.9-0.4-4.1 3.1-10.8 2.2-8.6 5-19.5 17.5-6.1 3.1-6.1-0.1-5.4-1.6-5.7 0.3-3.3-0.7-1.8-2.7-3-8.3-4.7-5.8-5.4-1.9-5.5 1-10.5 5.7-5.1 1.4-10.8 0.1-2.8-0.6-5-3.3-2.7-1.1-2.6 0.5-12.9 7.5-1.3 0.2-1.5-0.4-3-1.8-1.2-0.3-2.6 1.1-3 2.2-10.6 1.5-8.4 3.6-2.6 0.2-2.9-1-15.3-9.3-5.8-1.5 0.7-1.7 0.1-1.6-0.5-1.5-1-1.3-1.8-1.5-1.4-2-0.7-2.7 0.1-3.1 1.7-2.4 2.1-1.7 2.5-4.4 0-6.6-2.5-13.5-1.3-6.2-1.9-6.5-2.3-5.8-2.9-4.2-1.5-0.9-3.7-1-1.7-1.2-1.6-2.2-3.1-6-1.6-2.5-3.1-2.7 0.5-5.4 1.6-9.4-0.7-3.8 0-2 0.5-2 1.3-3.1 0.5-2.5 1.9-5 3-3.9 2.5-2 4.1-1.6 5.4-1 1.4-0.8 0.3-1.6-0.4-0.8-2.1-1.4-0.8-1.2 1.3-2 1.6-1.5 12.8-4.9 0.3-3-0.5-5.4 0.4-2.6 1.2-2.2 1.4-1.6 14.3-11.5 1.6-0.4 1.8 0.6 2.8 2.9 1.4 2.4 3.1 3.2 8.8 2.5 1.8 1.8 15.9-0.7 0.8 2 2.3-0.7 4.6-2.8 5.7-4.7 9.9-3.8 1-1.2-0.2-1.7-1.7-2-0.7-1.3-0.5-1.9 0.4-2.1 1-1.6 2.3-1.8 3.9-1.3 3.3 0.1 3.4 1 1.5 0.8 3.1 0.9 18.7-3.8 3.4-1.3 3.3-0.6 2.6 0.5 3.6 2.5 1.6 2 3 1.4 2.4 0.5 15.1-1.9z" id="LTU1067" name="Alytaus" data-id="LTU1067" data-name="Alytaus">
 </path>
 <path d="M500.8 266.6l3.2 0.1 2.6 1.2 0.9 1.9 0.6 2.1 0.7 5.3 0.8 2.5 1.7 1.9 2.4 1 3.2-0.3 1.4-1.1 1.5-0.2 2 0.8 3.4 3.1 1.8 2.4 5 5.1 0.9 2.3 0 2.6-0.3 2.4-1.1 4.6 0.1 1.6 0.9 0.8 1.7-0.7 3.1-2.9 1.5-0.8 2.2-0.2 2.8 0.7 3.3-0.9 8.3-4.1 1.7-1.5 1.8-0.5 1.4 0.6 2.1 2.6 1.7 2.4 1.9 1.9 3.7 1.1 2.3 0 1.1-1.1 0.4-2.9 1.2 0 8 4.3 2.4 2 2.1 2.6 2.2 5.4 4.5 4.7-2.6 8.9-0.7 1.8-0.7 2.8 0.2 2.9-0.4 2.8-0.4 3.7 1.2 3.5 3.3 5.4 1.3 10.5 1.4 2.6 2.1 1.8 6.7 2.5 2.2 1.5 0.2 1.1-1.1 0.6-1.7 0.4-1.2 1.3-0.5 2.3 0.5 4.2 1.2 2.8 1.7 2.1 1.5 1.4 2.8 2 1.4 1.4 0.4 1.7-0.2 2.3 0.2 3.6 1.8 3.5 2 1.3 2-0.2 3.4-1.7 1.6 0.3 0.8 1.3 2.3 7.8 5.1 2.6 1.8 3.1 0.6 3.1 0 1.5-0.5 1.5-2.4 2.2-3 1.7-2.8 2.8-2.1 1.3-1.5 1.6-2 4.3-3.3 4.9 1.5 0.6 2.3 2.8 8.7 4.4 9.1 8.6 3.1 1.3 7.3 0.5 3.1 1.3 3 2.4 3.7 5 0.9 1.9-4.9 3.9-3 6.1-2.3 2.3-11.1 6.3-2 1.6-1.1 1.5-0.5 1.8-1.1 5.6-2.4 6-0.6 2.8-0.4 5.7-0.4 3.4-1.2 1.4-1.8 0.4-6.3-1.5-1.9 0-1 1-2.1 3.5-7 2.1-2.9 1.8-1.4 2.2-0.3 2.9 1.1 4.7 0.5 3.7-0.4 3.4 2.5 2.9 0.3 2.9-1 4.4-0.8 1.8-1.3 1.2-1.6 0.2-1.5-0.3-1.3-0.8-1.7 0.4-0.8 1.8-0.5 2.7-0.5 6.2-1.2 3.7-1.9 2.3-15.1 1.9-2.4-0.5-3-1.4-1.6-2-3.6-2.5-2.6-0.5-3.3 0.6-3.4 1.3-18.7 3.8-3.1-0.9-1.5-0.8-3.4-1-3.3-0.1-3.9 1.3-2.3 1.8-1 1.6-0.4 2.1 0.5 1.9 0.7 1.3 1.7 2 0.2 1.7-1 1.2-9.9 3.8-5.7 4.7-4.6 2.8-2.3 0.7-0.8-2-15.9 0.7-1.8-1.8 2-4 1.4-2 0.5-2.2-0.4-3-2.9-8.6-1.1-2-1.2-0.5-3.1 0.4-2-0.4-1.8-1.6-2-2.8-3.8-3-1.1-1.4-0.3-1.8 0.9-2.1 2.7-3.3 0.1-1.6-1.4-2-4.8-1.8-1.5-1.8-1.9-1.3-0.8-0.8 0-1.2 1.2-1.5 1.8-0.9 4.2-1.5 1.6-1 0.9-2.6 0.2-2.9-3.1-13.7 0.4-3.7-0.1-2.2-0.8-2-1.6-2.3-0.6-1.9 0.3-3.1-1.3-1.8-1.3-0.5-2.9-0.1-0.6-1 0.3-1.5 1.8-2.1 1.8-4.1 1.9-1-0.6-3.1-1.5-3.9-0.6-3.3 0.5-5.1-0.5-1.7-1.3-1.8-3.7-3.9-4.6-3.7-3.1-1.5-2.5-0.3-4 2.2-4.1 0.9-3.8-12.2-1.5-2-1.9-2-8.3-2.1-0.8-1.7 0.3-1.6 1-1.8 2.5-2.3 1.8-0.8 1.8-0.4 7.4 0.8 2.8-0.6 2-2.2 1.9-3.8 1.8-2.3 2-0.7 3.4-0.4 1.3-1.2 0.1-2.7-1-2.7-3.2-2.9-3.8-0.3-3.9 0.6-3.7-0.5-8.7-7.3-3.5-1 1.9-9.2 2.8-5.3 2.1-3.1 0.6-2.3 0.1-2.8-0.4-3.2-0.2-5.5 0.3-2.9 0.8-2.4 3.1-3.9-3.4-4.2-4.3-0.7-9.6 2.2-1.5-0.3-1.3-1.2-0.8-1.9-2.8-2.4-2-0.6-6.8 1.3-10.7 0-3.1-1.1-1.1-1.3-0.6-3.6-0.9-2.1-2.9-2.2-1.6-0.7-1.3 0.1-2.1 1.6-1.8 0.5-3.2 0.4-2.3-0.9-1.8-0.2-1.5 0.4-3 2.3-4.9 0.9-4.3 0-1.9-1.2-0.3-1.8 1-1.9 2.3-2.4 0.2-1.3-0.6-1.2-11.6-9.1-2.1-2.4-1-0.7-1.1 0.4 0.2 2.9-0.4 0.9-1.4 0.9-1.4 2.4-1.8 1.2-2.2 2.7-1.8 0.9-1-0.4-0.8-1.3-0.6-3.5-3.2-3.6-3.3-2.6-1.6-2.2-0.9-2.3-0.1-2.1 0.7-4.4 0.1-2.5-0.3-2.3-1.1-2.2-1.1-0.8-1.4 0.1-2.8 1.1-3-0.2-3.7-3.3-0.3-3 0.7-2.7-0.5-1.8-0.9-1-3.6-0.7-3.4-2.4-1.9-2.5-3.8-7.5 5.3-4.5 9.8-3.8 12.6-1.9 2.2 0.6 1.2 1.3 0.8 4 1.2 1.2 4.4 1.2 26.2-10.5 6.2-4.2 1.5-1.6 1-1.8 0.5-2.2 3.2-5.2 3.5-2.6 10.5-1.3 3.7 0.1 3.1 0.7 1.2 1 0.8 1.6 1.4 4.8 1.1 1.9 1.6 0.9 2.2-0.9 1.5-1.4 8.6-5.3 12.9 11 3.7 2.3 5.8 1.6 2.8 0 1.8-0.8 0.6-3.8 0.7-0.6 3-0.8 2.5-2.3 1.1-0.4 1.4 0.3 1.8 0.9 2.1 2.3 3.3 1.2 0.9 0.6 0.2 1.3-0.8 2.2-1 1.8-1.2 3.6 2 4.8 4.9 0.2 2.7 1.8 1.4 0.6 1.1-0.5 2.6-5.1 1.7-2.3 3.2-3.3 7.8-5.6 23.2-11.6z" id="LTU1069" name="Kauno" data-id="LTU1069" data-name="Kauno">
 </path>
 <path d="M423.5 413.2l3.5 1 8.7 7.3 3.7 0.5 3.9-0.6 3.8 0.3 3.2 2.9 1 2.7-0.1 2.7-1.3 1.2-3.4 0.4-2 0.7-1.8 2.3-1.9 3.8-2 2.2-2.8 0.6-7.4-0.8-1.8 0.4-1.8 0.8-2.5 2.3-1 1.8-0.3 1.6 0.8 1.7 8.3 2.1 1.9 2 1.5 2 3.8 12.2 4.1-0.9 4-2.2 2.5 0.3 3.1 1.5 4.6 3.7 3.7 3.9 1.3 1.8 0.5 1.7-0.5 5.1 0.6 3.3 1.5 3.9 0.6 3.1-1.9 1-1.8 4.1-1.8 2.1-0.3 1.5 0.6 1 2.9 0.1 1.3 0.5 1.3 1.8-0.3 3.1 0.6 1.9 1.6 2.3 0.8 2 0.1 2.2-0.4 3.7 3.1 13.7-0.2 2.9-0.9 2.6-1.6 1-4.2 1.5-1.8 0.9-1.2 1.5 0 1.2 0.8 0.8 1.9 1.3 1.5 1.8 4.8 1.8 1.4 2-0.1 1.6-2.7 3.3-0.9 2.1 0.3 1.8 1.1 1.4 3.8 3 2 2.8 1.8 1.6 2 0.4 3.1-0.4 1.2 0.5 1.1 2 2.9 8.6 0.4 3-0.5 2.2-1.4 2-2 4-8.8-2.5-3.1-3.2-1.4-2.4-2.8-2.9-1.8-0.6-1.6 0.4-14.3 11.5-1.4 1.6-1.2 2.2-0.4 2.6 0.5 5.4-0.3 3-12.8 4.9-1.6 1.5-1.3 2 0.8 1.2 2.1 1.4 0.4 0.8-0.3 1.6-1.4 0.8-5.4 1-4.1 1.6-2.5 2-3 3.9-1.9 5-0.5 2.5-1.3 3.1-0.5 2 0 2 0.7 3.8-1.6 9.4-0.5 5.4-3.4-2.9-13.7-5.2-6.5-4-10.5-8.9-3.1-1.5-3.5 0.8-4 1.7-3.9 0-3.1-4.3 0.1-3 0.9-3.3 0.7-2.8-1.1-1.6-5.8-0.7-2-1.3-1-1.9-1.7-4.6-1.9-1.8-1.7-0.4-3.9 0.8-1.8-0.2-10.2-5.3-3.6-0.5-4.2 2-4.6 8.4-3.1 2.6-10.3-18.2-4.5-10.1-1-11.4 1.2-22.8 3.8-13.9 0.7-5.4-0.2-3.1-1-6.8 0-3 0.7-2 3.7-5.6 0.1-1.1-0.8-2.7 0.4-1.5 2-0.8 1.8-1.6 3-1.6 1.3-1.6 2.4-4 5.2-3.9 2.6-2.8 2.2-5.1 0.4-5.2-0.7-5.5-2.5-11.9-1.4-3.8-2.1-2.4-10.1-4.8-1.4-2.3 1.9-4-2.3-0.9-1.6-1.8-1.2-2-1.1-1.3-1.6-0.5-9.6 0.1-2.8-1.5-2-3.6-2.2-6.6-2.9-13.4-1.8-6-1.6-1.9 4.7-2.2 1.4 1.5 3.1 2.3 0.9 0.4 2.3 0.1 14.3-2.6 5.1-2.3 2-1.5 8.4-2.9 8.7-1.2 9.2 2.6 2.4-1.6 2.1-1.9 3.2-1.5 5.3-1.4 54 10.1 15.7-2.2z" id="LTU1070" name="Marijampoles" data-id="LTU1070" data-name="Marijampoles">
 </path>
 <path d="M856.4 149l-3.4 6 0 5.5-0.2 3-1.1 2-2.1 3-1.7 1.8-3.5 2.6-2.2 2.8-1.2 2.7-0.8 3.4-4.6 7-1.5 4.2-2.7 9.5-1 1.7-1.1 0.7-3.1-0.5-3.3-1.4-1.3-0.3-1.6 1-2.4 5.1-1.3 1.9-6.4 7.4-1-3.7-0.6-0.7-2-0.5-18.4 0.6-2.3 0.6-2.6 1.9-7 3.6-3.1-4.9-0.7-1.4-1.5-1.3-1.7 0.1-1.2 0.9-1.9 1.9-1 0.2-1.1-0.6-1.1-1.5-1.2-3.1-0.7-2.2-3.3-3.3-12.9 7.4-1.2 1.4-1.2 2.2 1 4.5-0.3 2.1-0.9 0.7-1.6-0.2-3.7-1.2-3.2 0.3-19.6 7.8-4.9 0.9-2.5 0.1-1.6-0.6-0.2-0.9 0.5-2.7-0.5-1.2-2.5-2.2-1-1.3-1.8-2.9-3.2-2.1-10.7-0.9-5.1 1.3-3.2 1.8-2.4 0.3-5.4-0.5-1.4 0.4-0.9 0.8-1.2 2.1-1.4 1-1.5-0.2-4.9-2.1-2.1 0.2-2.6 1.1-1.9 0.4-11.1-1.7 0.2 3.8-0.8 3.7 1 1.4 3.5 2.8 0.8 1.8 0.1 1.4-0.8 2.1-1.5 1.6-1.9 0.5-1.9-0.9-1.1-1.3-1.2-0.7-5 1.4-1.3 1.2 0.6 1.2 1.6 1.2 2.3 1.4 1.9 1.8 1.7 2.7 1.1 3.7 0.1 2-0.6 1.5-3 2.5-1.8 1.8-1.4 2.5-0.5 2.8 0.2 5.1 0.5 2.2 0.5 1.1 0 1.9-3.3 5.6-3.3 1-1.7 1.7 0.1 1.5 0.9 1.6 3.1 2.3 1.2 1.3 0.2 1.5-1 1.3-2.8 0.5-2-0.5-4-2.1-1.9-0.3-1.7 0.8-2 3.4-1 2.9-1.1 5.2-1.1 2.9-2 3.2-6.1 6.6-1.6 0.8-1.3-0.8-2.6 0.2-4.8 3.8-4.5-4.7-2.2-5.4-2.1-2.6-2.4-2-8-4.3-1.2 0-0.4 2.9-1.1 1.1-2.3 0-3.7-1.1-1.9-1.9-1.7-2.4-2.1-2.6-1.4-0.6-1.8 0.5-1.7 1.5-8.3 4.1-3.3 0.9-2.8-0.7-2.2 0.2-1.5 0.8-3.1 2.9-1.7 0.7-0.9-0.8-0.1-1.6 1.1-4.6 0.3-2.4 0-2.6-0.9-2.3-5-5.1-1.8-2.4-3.4-3.1-2-0.8-1.5 0.2-1.4 1.1-3.2 0.3-2.4-1-1.7-1.9-0.8-2.5-0.7-5.3-0.6-2.1-0.9-1.9-2.6-1.2-3.2-0.1 1.5-3.7 2.7-3.8 2.5-5 1.5-3.9 1.7-0.9 3.7 0.2 1.7-0.7 2.3-2.3 1.4-0.3 3.3 0.1 1.1-1.6 0-2.6-2.3-9 0.3-3.4 1.4-1.6 1.9-1.2 1.6-1.9 0.9-2.2-0.3-4.5 0.1-2.5-0.9-7.5-0.8-1.8-2.7-3.3-0.9-4.9-0.9-1.1-2.1-1.2-1.9-0.5-2.7-2.9-2.2-8.8 6.5-0.7 1.3-1.9-0.2-3.8 1.2-2.4 2.2-1.4 4.7-2.2 3.6-2.8 1.6-3.1-0.5-4.6 2.1-4.5 0.3-3.1-0.6-4.7-1-1.9-1.5-1-1.6-0.4-1.9-1-1.8-1.3-1.8-2.2-0.8-2.1-0.4-2.3-0.2-8 0.2-3.4 0.9-2.4 1.6-0.8 2 1.2 1.7 0.3 1.2-1.7 0.8-2.4 1.1-6.1 1.5-3.3 3.9-5.8 0.5-2.9 0.1-3.1 0.4-2.2 1.1-2.7 1.1-1.7 1.8-1.1 5.2-1.5 1.1-1.7 0.4-2.5 0.1-4.6-0.3-2.2-0.8-1.3-2.1 0.9-2.1-0.9-0.8-3.3 0.6-2.9 1-2.3 1.4-2.1 0.4-1.9-0.4-1.4-0.3-4.8 4.5-0.9 20.5-10.8 5.2-0.9 5.5 2.2 10.8 7.9 5.6 1.6 5.8-2.6 9.8-5.7 3.2-3.4 13.8-18.8 6.7-5.3 21.5-9.6 1.7-0.1 3.8 1.5 1.4-0.3 1.1-2.7 0.2-3.4 0.6-3.3 2.4-2.2 3.6 1.2 3 5.1 4.4 13 4.4 18.6 1.9 5.6 1.7 3.2 5.7 6.3 1.6 3 3 9.8 5 9.2 6.1 4.5 58.7 10.3 11.6-2.2 8.5 4.2 2.9 0.6 10.1-0.9 2.1 1 1.2 2.6 3.2 10.3 1.5 3.2 2 2.1 9.8 6.8 17.8 20.2 15.3 10.3z" id="LTU1071" name="Panevezio" data-id="LTU1071" data-name="Panevezio">
 </path>
 <path d="M547.2 57.8l0.3 4.8 0.4 1.4-0.4 1.9-1.4 2.1-1 2.3-0.6 2.9 0.8 3.3 2.1 0.9 2.1-0.9 0.8 1.3 0.3 2.2-0.1 4.6-0.4 2.5-1.1 1.7-5.2 1.5-1.8 1.1-1.1 1.7-1.1 2.7-0.4 2.2-0.1 3.1-0.5 2.9-3.9 5.8-1.5 3.3-1.1 6.1-0.8 2.4-1.2 1.7-1.7-0.3-2-1.2-1.6 0.8-0.9 2.4-0.2 3.4 0.2 8 0.4 2.3 0.8 2.1 1.8 2.2 1.8 1.3 1.9 1 1.6 0.4 1.5 1 1 1.9 0.6 4.7-0.3 3.1-2.1 4.5 0.5 4.6-1.6 3.1-3.6 2.8-4.7 2.2-2.2 1.4-1.2 2.4 0.2 3.8-1.3 1.9-6.5 0.7 2.2 8.8 2.7 2.9 1.9 0.5 2.1 1.2 0.9 1.1 0.9 4.9 2.7 3.3 0.8 1.8 0.9 7.5-0.1 2.5 0.3 4.5-0.9 2.2-1.6 1.9-1.9 1.2-1.4 1.6-0.3 3.4 2.3 9 0 2.6-1.1 1.6-3.3-0.1-1.4 0.3-2.3 2.3-1.7 0.7-3.7-0.2-1.7 0.9-1.5 3.9-2.5 5-2.7 3.8-1.5 3.7-23.2 11.6-7.8 5.6-3.2 3.3-1.7 2.3-2.6 5.1-1.1 0.5-1.4-0.6-2.7-1.8-4.9-0.2-2-4.8 1.2-3.6 1-1.8 0.8-2.2-0.2-1.3-0.9-0.6-3.3-1.2-2.1-2.3-1.8-0.9-1.4-0.3-1.1 0.4-2.5 2.3-3 0.8-0.7 0.6-0.6 3.8-1.8 0.8-2.8 0-5.8-1.6-3.7-2.3-12.9-11-8.6 5.3-1.5 1.4-2.2 0.9-1.6-0.9-1.1-1.9-1.4-4.8-0.8-1.6-1.2-1-3.1-0.7-3.7-0.1-10.5 1.3-3.5 2.6-3.2 5.2-0.5 2.2-1 1.8-1.5 1.6-6.2 4.2-26.2 10.5-4.4-1.2-1.2-1.2-0.8-4-1.2-1.3-2.2-0.6-12.6 1.9-9.8 3.8-5.3 4.5-4.1-2.1-1-7 3.6-5.6-0.3-1.3-2.9-2.3-6.4-9.7-1.9-2.1-7.8-4.9-2.4-2.3-1.1-2.2-1.4-3.4-0.3-1.9 0.1-1.7 1.2-3.5-0.7-1.2-3.6-1.7-1.9-2.1-0.9-2.1-0.3-1.5 0.1-2.6 5.3-4.8 1.4-0.9 1.4-1.7 0.2-2.3-1-4.9-0.2-2.5 1.2-9.5-0.5-2.7-2.1-5.1 0.2-1.9 2.2-2.1 1.9-0.8 2.3-0.7 2.1-0.9 2.4-1.8 1.7-1.7 0.8-2.9-0.5-5.6 0.3-2.4 1.3-1.8 2.7-0.8 2.3-0.3 2.6-1.3 1.6-2.2 2.5-7.4 5-6.1-0.6-3.3 2.1-1.6 2.2-1.2 0.2-1-2.7-1.9-1.4-1.5-1.9-3.2-1.4-1.1-1.2 0.4-1.5 2.8-1.3 1.2-1.8 0.6-2.2-0.4-1.6-1.7-2.4-3.3-0.6-2.2 0-1.5 0.8-1.1 2.5-1.9 0.9-1.2 0.7-1.5-0.2-6.4-1.4-4.9 0.3-2.5 1.6-1.7 8-1.7 1.4-1.1 1.1-1.9 2.1-0.5 2.8-1.4-2.8-3.4-0.7-2-0.5-2.5 0.4-2.5 0.6-2.2 0-1.6-1.3-1.4-2.2-0.6-3.7 0.4-5.2 1.6-1.7 1.1-1.3 1.6-2.3 1-3 0.5-6.5-0.9-7.4 3.6-2.3 0-2.4-0.8-2-1.6-0.8-2.4-0.3-2.2-0.8-1.3-2.6-0.1-0.9-0.5 0.2-2.2 1.6-3-0.6-1.3-0.9-1-6.2-2.1 2.3-17.8 4.8-7 2.8-2.6 2.8-3.9 1-3.3-0.1-2.6-1.8-2.6-0.4-1 0.7-1.8 1.4-2 1.2-3.1 2-1.2 2.1 0 4.5 1.4 2.4 0.1 2.4-0.6 2.4-1.8 1.4-2.6 0.8-2.6 0.1-2.7-1-2.4-1.1-1.8-0.4-1.9 0.8-1.5 1.3-0.8 2.2-2.1 4.5 2.4 7.5 8 2.9 1.2 2.6-0.3 24-10 11.2-7.9 6.1-1.1 5.5 3.1 4.1 8.8 6 15.2 7.8 6 8.5-2.1 8.5-9.2-1.4-3.2 3.1-2 19.7-4.6 3.7 0.7 29.1 12.5 6.1 0.4 10.2-6.1 5.5-1.6 11.8 0.6 4.6-0.8 1.4 0.5 1.5 2.1 0.2 5.2 5.3 0.9 11.7-2.7 5.6 0.1 21 6.8 15.9 12.6 5.7 3.2 5.4 1z" id="LTU1072" name="Šiauliai" data-id="LTU1072" data-name="Šiauliai">
 </path>
 <path d="M261.3 233.9l-0.1 2.6 0.3 1.5 0.9 2.1 1.9 2.1 3.6 1.7 0.7 1.2-1.2 3.5-0.1 1.7 0.3 1.9 1.4 3.4 1.1 2.2 2.4 2.3 7.8 4.9 1.9 2.1 6.4 9.7 2.9 2.3 0.3 1.3-3.6 5.6 1 7 4.1 2.1 3.8 7.5 1.9 2.5 3.4 2.4 3.6 0.7 0.9 1 0.5 1.8-0.7 2.7 0.3 3 3.7 3.3 3 0.2 2.8-1.1 1.4-0.1 1.1 0.8 1.1 2.2 0.3 2.3-0.1 2.5-0.7 4.4 0.1 2.1 0.9 2.3 1.6 2.2 3.3 2.6 3.2 3.6 0.6 3.5 0.8 1.3 1 0.4 1.8-0.9 2.2-2.7 1.8-1.2 1.4-2.4 1.4-0.9 0.4-0.9-0.2-2.9 1.1-0.4 1 0.7 2.1 2.4 11.6 9.1 0.6 1.2-0.2 1.3-2.3 2.4-1 1.9 0.3 1.8 1.9 1.2 4.3 0 4.9-0.9 3-2.3 1.5-0.4 1.8 0.2 2.3 0.9 3.2-0.4 1.8-0.5 2.1-1.6 1.3-0.1 1.6 0.7 2.9 2.2 0.9 2.1 0.6 3.6 1.1 1.3 3.1 1.1 10.7 0 6.8-1.3 2 0.6 2.8 2.4 0.8 1.9 1.3 1.2 1.5 0.3 9.6-2.2 4.3 0.7 3.4 4.2-3.1 3.9-0.8 2.4-0.3 2.9 0.2 5.5 0.4 3.2-0.1 2.8-0.6 2.3-2.1 3.1-2.8 5.3-1.9 9.2-15.7 2.2-54-10.1-5.3 1.4-3.2 1.5-2.1 1.9-2.4 1.6-9.2-2.6-8.7 1.2-8.4 2.9-2 1.5-5.1 2.3-14.3 2.6-2.3-0.1-0.9-0.4-3.1-2.3-1.4-1.5-4.7 2.2-1-1.1-4.2-2.4-17.8 5.4-28.2-3.5 0-6.5 0.3-1.9 1.9-4.4 0.7-2.8 2-3.7-0.2-3.5-3-1.7-1.4 0.2-3-0.4-2.9-0.9-3.5 0.7-1.9-0.2-1.8-0.9-3.2-3.1-1.6-1-1.7-0.1-4.4 0.7-1.2 0.6-3.1 3-2 1.3-1.6-0.3-0.7-1.4 1-4.8 0.1-1.5-0.3-1.8-2.6-5.8-2.1-6.7-1-1.9-1.6-1.6-16.2-7.2-5.3-0.8-2-1-0.5-2.4 1.7-3.9 12.8-14.6 2.8-2.5 2.3-2.6 1.3-2.5 1.3-8.3 2.6-1.5-0.1-2.5-1.5-1.8-5.6-1.5-6.8-3.2-3.5-2.9-1.7-0.8-1.5 0.3-3 2.6-1.7 0.1-1.8-2-3.5-14.7-0.8-2.3-2.5-2.8-0.9-2.2-1.1-9.9-0.6-1.6-2.5-2.1-0.3-2.9 8.8-3.9 1.3-1.2 1.5-3.4-0.8-2.7 19.3-2.8 2.2 0.8 2.2 0.2 1.9-0.6 4.1-4.2 0.9-1.4 0.2-1.3-0.1-3.6 0.6-2.2 1.3-3 2-0.8 2.2 0.7 2.2 0 2.2-0.5 2.9-2.2 5.9-2.6 14-1.7 4.2-0.4 5.1 2.5 2 0.5 4.2-0.3 1.9 0.6 2 1.1 2 0.4 13-2.1z" id="LTU1073" name="Taurages" data-id="LTU1073" data-name="Taurages">
 </path>
 <path d="M988.7 364.3l-0.5-1.2-3.6-6.6-1.5-1.2-2.4-1.2-2.4 0-7.8 2.4-1.5 1-1.2 1.3-8.4 5.3-19 5.5-22.9-1.1-8.5-2-6.1-3.9-3.2-1.4-2 0.1-1.6 0.7-1.7 1.2-3 0.6-2.2-1.2-1.1-2.9 0.2-2.9 1.2-2.9 1.1-2.1 0.1-2.1-1.1-2.1-2.2-2.1-4.5-2.2-2.3-0.6-10.7 0.4-1.6 0.5-2.2 1.9-0.7 1.1-1.6 3.5-1 1.3-1.7 1.4-2.2 1.2-3 0.7-1.8-0.5-0.9-1-0.7-2.5-1.2-1.5-1.2-0.2-4.9 1.3-2-0.5-1.5-1.4-1.7-3.4-2-2.6-6.5 3.6-6.2-2.1-7.4-4.7-3.4 12-1 2.5-5.2 6-4.8 3.1-0.9 1.7-0.5 2-0.6 4.5 1.3 4.6 2.6 3.3 5.1 4.8 2.1 3.4 2.7 3.4 1.8 1.5 3.1 1.7 2.9 2.2 1.8 0.6 0.9 1.3-0.5 1.8-4.1 3.4-0.6 1.7 0.3 1.4 1.6 1.7-0.5 1.2-1.3 1.5-3.4 3.1-0.3 2.3 0.3 2.2 0.9 1.5-0.9 0.8-2.3 0.2-9.2-1.8-1.5-0.9-1-2.3-5.3-0.1-17.6 4.2-23.2 7.2-2.2 1.2-2.5 0.5-2.8-0.4-10.7-3.8-8.1-0.2-1-6.8-1.4-3.6-2.9-2.3-2.5-1.3-6.9-1.7-1.2-1.1-0.4-1.6 0.9-3.4 1-4.6-0.3-6 5.7-2.3 1.6-0.9 2.5-2.2 2.9-1.8 1.9-2.4 1.6-0.9 2-0.6 1.3-0.8 0.3-1.3-2.3-1.8-8.2-4.9-2-0.1-1.7 0.4-1.7-0.1-1.1-1.2-0.6-3.6 0.7-1.8 2.7-3.4 1.4-3.7-0.1-1.6-1-1.4-2.8-0.6-2.3 0.4-2 0.9-1.6 0.2-1.7-0.8-2.1-3.2-4.7-3.7-1.5-1.6-0.8-1.3 0.5-5.9-13 1-1.6-0.4-1.6-0.8 0.2-5.9-0.2-2.5-0.7-2-0.9-0.6-1.2 0.1-6.8 3.4-3.3 0.9-1.5-0.4-0.6-1 0.3-3.9-0.8-1.7-1.7-0.6-8.3-0.2-2.7-1-2.1-1.6-1.9-3.8-0.6-2-0.1-1.7 0.2-2 0.6-1.7 1-1.3 2.4-1.5 0.9-1 0.1-1.7-1.2-2.6-4.1-4.8-23.5-17.9 3.3-5.6 0-1.9-0.5-1.1-0.5-2.2-0.2-5.1 0.5-2.8 1.4-2.5 1.8-1.8 3-2.5 0.6-1.5-0.1-2-1.1-3.7-1.7-2.7-1.9-1.8-2.3-1.4-1.6-1.2-0.6-1.2 1.3-1.2 5-1.4 1.2 0.7 1.1 1.3 1.9 0.9 1.9-0.5 1.5-1.6 0.8-2.1-0.1-1.4-0.8-1.8-3.5-2.8-1-1.4 0.8-3.7-0.2-3.8 11.1 1.7 1.9-0.4 2.6-1.1 2.1-0.2 4.9 2.1 1.5 0.2 1.4-1 1.2-2.1 0.9-0.8 1.4-0.4 5.4 0.5 2.4-0.3 3.2-1.8 5.1-1.3 10.7 0.9 3.2 2.1 1.8 2.9 1 1.3 2.5 2.2 0.5 1.2-0.5 2.7 0.2 0.9 1.6 0.6 2.5-0.1 4.9-0.9 19.6-7.8 3.2-0.3 3.7 1.2 1.6 0.2 0.9-0.7 0.3-2.1-1-4.5 1.2-2.2 1.2-1.4 12.9-7.4 3.3 3.3 0.7 2.2 1.2 3.1 1.1 1.5 1.1 0.6 1-0.2 1.9-1.9 1.2-0.9 1.7-0.1 1.5 1.3 0.7 1.4 3.1 4.9 7-3.6 2.6-1.9 2.3-0.6 18.4-0.6 2 0.5 0.6 0.7 1 3.7 6.4-7.4 1.3-1.9 2.4-5.1 1.6-1 1.3 0.3 3.3 1.4 3.1 0.5 1.1-0.7 1-1.7 2.7-9.5 1.5-4.2 4.6-7 0.8-3.4 1.2-2.7 2.2-2.8 3.5-2.6 1.7-1.8 2.1-3 1.1-2 0.2-3 0-5.5 3.4-6 9.6 6.4 10.5 11.9 16.8 14.7 4.3 6.7 3.9 9.2 9 16.2 10.7 8.2 23.5 11.4 9.6 2.7 9.7 0.8 1.6 7.1 0.6 8.1-0.4 7.9-1.6 6.6-3.3 5.3-4.2 4.8-3.3 5.5-0.8 7.2 3.2 6.3-0.5 3.5-6 6.1-1.5 3.4-2.2 11.1-1.2 2.8-4.1 7.6-1.6 5.6 0.7 3.1 2.7 1.8 10.1 3.8 2.9 0.2 10.3-2.8 28.1 5 3.9 3 1.6 5-1.9 4.8-4.1 3.2-4.3 1.1z" id="LTU1074" name="Utenos" data-id="LTU1074" data-name="Utenos">
 </path>
 <path d="M988.7 364.3l-6.6 1.8-2.6 1.6-4.9 4.8-2.7 3.8-1.2 3.1-1.1 8.3-1.9 8.6-2.6 4.4-3.8 0.6-17.9-8-2.4 0.2-1.5 1.5-1 1.8-1 1.1-1.7 0.6-1.4 0-18.8-4.9-7.7 1.3-5.3 8.5-0.5 3.4 0.2 7.3-0.3 3.6-0.8 2.5-6.3 13.7-5.8 9-2.5 2.8-6.2 3.6-20.6 4.2-3.2-0.1-6.1-1.4-3.1-0.1-6.4 2.7-2 1.8-0.6 2.2-0.3 2.7-1.1 3-3.6 4.2-3.9 3.1-3.4 3.5-1.8 5.5 0.3 2.7 1.4 5.9 0.1 2.4-0.7 2.5-2 0.6-1.7 0.8-3.7 3.4-1.8 2.6-0.5 4 0.5 15-0.2 3-0.7 3.2-1.6 5.6-0.2 3.7 1.1 5.8 4.2 10.4 1 5.7-0.9 5.8-2.3 4.6-3.3 3.3-10.4 6.2-2.6 3.6-1.8 5.9-0.8 7.7 0.1 6.1-0.6 5.6-3 6.3-7.8 9.5-3.2 6.3-0.2 7.3 2.3 3.8 3.7 1.4 7.3-0.5 10.2-5.4 2.6-0.6 2.3 1.3 1 2.4 0.5 2.9 1.8 5.1 1.3 1.3 2-0.7 0.7 0.2 1.7 1.8 1.5 2.2 1.3 2.6 1.1 3.2 0.7 1 1.8 0.9 0.4 1.8-0.4 1.3-2 2.7-0.5 1.3-0.2 13.3-1.3 4.6-4 2.9-2 0.3-6.3-0.8-1.9 0.8-2.7 3.8-1.7 1-3.8 0.1-15-2.5-4.6-2.2-3.8-3.7-1.3-5.2 1.2-2.1 4.9-1.7 1.2-2.1-0.9-2.5-4.1-2.2 0.4-2.9 3.4-2 4 0.3 1.5-1.1-12-16.4-0.8-1.6-1.2-1.1-2.1-0.6-4.3 2.1-6.8 10.1-4.1 2.7-14 0.8-10.8-3.9-3 0.5-2.2 3.8-3.4 13.7-2.8 6.1-7 7.8-7.4 4.8-7.6 1.3-13.4-5.3-7.8-1.1-7.9 0.9-0.8 0.5-3.1-6.1-1.2-4.2-0.8-1.9-1-1.5-1.7-1.1-4.1-2-1.7-1.5-0.8-2.3 0.6-2.8 18.3-18.2 6.1-8 1.2-4.3 1-8.9 0.7-4.1 1.3-2.2 1.7-1 4.6-1 3.1-1.6 0.7-3.2-0.3-13.3-8.5 0.7-13.9 5.1-8 5.9-1.8 0.3-2.3-0.8-3.3-0.6-2.1 0.4-2.7 1.8-1.4 0.5-1.8-0.1-1.2-1.5-0.3-1.8 0.7-3.7-0.4-1.6-1.1-1-5-2.3-4.7-1-2.3 0.2-3 1.7-4 1.8-2.2 1.5-5.6 1.7-2.8 0.2-15.1-2-3.4-2.2-0.6-2 0-2.3 0.7-2.5 0.8-4.4-0.8-2.1-2.9-3.2-0.2-0.8 1.3-1.8 0.1-2.7 0.4-1.8-1.7-6.7 1.9-2.3 1.2-3.7 0.5-6.2 0.5-2.7 0.8-1.8 1.7-0.4 1.3 0.8 1.5 0.3 1.6-0.2 1.3-1.2 0.8-1.8 1-4.4-0.3-2.9-2.5-2.9 0.4-3.4-0.5-3.7-1.1-4.7 0.3-2.9 1.4-2.2 2.9-1.8 7-2.1 2.1-3.5 1-1 1.9 0 6.3 1.5 1.8-0.4 1.2-1.4 0.4-3.4 0.4-5.7 0.6-2.8 2.4-6 1.1-5.6 0.5-1.8 1.1-1.5 2-1.6 11.1-6.3 2.3-2.3 3-6.1 4.9-3.9-0.9-1.9-3.7-5-3-2.4-3.1-1.3-7.3-0.5-3.1-1.3-9.1-8.6-8.7-4.4-2.3-2.8-1.5-0.6 3.3-4.9 2-4.3 1.5-1.6 2.1-1.3 2.8-2.8 3-1.7 2.4-2.2 0.5-1.5 0-1.5-0.6-3.1-1.8-3.1-5.1-2.6-2.3-7.8-0.8-1.3-1.6-0.3-3.4 1.7-2 0.2-2-1.3-1.8-3.5-0.2-3.6 0.2-2.3-0.4-1.7-1.4-1.4-2.8-2-1.5-1.4-1.7-2.1-1.2-2.8-0.5-4.2 0.5-2.3 1.2-1.3 1.7-0.4 1.1-0.6-0.2-1.1-2.2-1.5-6.7-2.5-2.1-1.8-1.4-2.6-1.3-10.5-3.3-5.4-1.2-3.5 0.4-3.7 0.4-2.8-0.2-2.9 0.7-2.8 0.7-1.8 2.6-8.9 4.8-3.8 2.6-0.2 1.3 0.8 1.6-0.8 6.1-6.6 2-3.2 1.1-2.9 1.1-5.2 1-2.9 2-3.4 1.7-0.8 1.9 0.3 4 2.1 2 0.5 2.8-0.5 1-1.3-0.2-1.5-1.2-1.3-3.1-2.3-0.9-1.6-0.1-1.5 1.7-1.7 3.3-1 23.5 17.9 4.1 4.8 1.2 2.6-0.1 1.7-0.9 1-2.4 1.5-1 1.3-0.6 1.7-0.2 2 0.1 1.7 0.6 2 1.9 3.8 2.1 1.6 2.7 1 8.3 0.2 1.7 0.6 0.8 1.7-0.3 3.9 0.6 1 1.5 0.4 3.3-0.9 6.8-3.4 1.2-0.1 0.9 0.6 0.7 2 0.2 2.5-0.2 5.9 1.6 0.8 1.6 0.4 13-1-0.5 5.9 0.8 1.3 1.5 1.6 4.7 3.7 2.1 3.2 1.7 0.8 1.6-0.2 2-0.9 2.3-0.4 2.8 0.6 1 1.4 0.1 1.6-1.4 3.7-2.7 3.4-0.7 1.8 0.6 3.6 1.1 1.2 1.7 0.1 1.7-0.4 2 0.1 8.2 4.9 2.3 1.8-0.3 1.3-1.3 0.8-2 0.6-1.6 0.9-1.9 2.4-2.9 1.8-2.5 2.2-1.6 0.9-5.7 2.3 0.3 6-1 4.6-0.9 3.4 0.4 1.6 1.2 1.1 6.9 1.7 2.5 1.3 2.9 2.3 1.4 3.6 1 6.8 8.1 0.2 10.7 3.8 2.8 0.4 2.5-0.5 2.2-1.2 23.2-7.2 17.6-4.2 5.3 0.1 1 2.3 1.5 0.9 9.2 1.8 2.3-0.2 0.9-0.8-0.9-1.5-0.3-2.2 0.3-2.3 3.4-3.1 1.3-1.5 0.5-1.2-1.6-1.7-0.3-1.4 0.6-1.7 4.1-3.4 0.5-1.8-0.9-1.3-1.8-0.6-2.9-2.2-3.1-1.7-1.8-1.5-2.7-3.4-2.1-3.4-5.1-4.8-2.6-3.3-1.3-4.6 0.6-4.5 0.5-2 0.9-1.7 4.8-3.1 5.2-6 1-2.5 3.4-12 7.4 4.7 6.2 2.1 6.5-3.6 2 2.6 1.7 3.4 1.5 1.4 2 0.5 4.9-1.3 1.2 0.2 1.2 1.5 0.7 2.5 0.9 1 1.8 0.5 3-0.7 2.2-1.2 1.7-1.4 1-1.3 1.6-3.5 0.7-1.1 2.2-1.9 1.6-0.5 10.7-0.4 2.3 0.6 4.5 2.2 2.2 2.1 1.1 2.1-0.1 2.1-1.1 2.1-1.2 2.9-0.2 2.9 1.1 2.9 2.2 1.2 3-0.6 1.7-1.2 1.6-0.7 2-0.1 3.2 1.4 6.1 3.9 8.5 2 22.9 1.1 19-5.5 8.4-5.3 1.2-1.3 1.5-1 7.8-2.4 2.4 0 2.4 1.2 1.5 1.2 3.6 6.6 0.5 1.2z" id="LTU1075" name="Vilniaus" data-id="LTU1075" data-name="Vilniaus">
 </path>
 <path d="M12 355.3l-11-2.9 12.7-22.2 7.2-17.7 6.9-24.4 1.8-25.3 1.1-5.1-0.9-1.4 0.9-2.9-1.5-6 0.5-18.9-1.4-8.2 5.5 7 2.3 13.3 0.4 26.3-0.4 3.7-1.6 5.1-0.3 3.6 0 11.3-2 4.9-2.7 4.9-0.9 4.7 3.3 4 0 1.9-2.5 3.2-3.1 5.6-2.7 6.7-1.1 6.2-2.3 6-8.3 11.2 0.1 5.4z m150.9-98.5l0.8 2.7-1.5 3.4-1.3 1.2-8.8 3.9 0.3 2.9 2.5 2.1 0.6 1.6 1.1 9.9 0.9 2.2 2.5 2.8 0.8 2.3 3.5 14.7 1.8 2 1.7-0.1 3-2.6 1.5-0.3 1.7 0.8 3.5 2.9 6.8 3.2 5.6 1.5 1.5 1.8 0.1 2.5-2.6 1.5-1.3 8.3-1.3 2.5-2.3 2.6-2.8 2.5-12.8 14.6-1.7 3.9 0.5 2.4 2 1 5.3 0.8 16.2 7.2 1.6 1.6 1 1.9 2.1 6.7 2.6 5.8 0.3 1.8-0.1 1.5-1 4.8 0.7 1.4 1.6 0.3 2-1.3 3.1-3 1.2-0.6 4.4-0.7 1.7 0.1 1.6 1 3.2 3.1 1.8 0.9 1.9 0.2 3.5-0.7 2.9 0.9 3 0.4 1.4-0.2 3 1.7 0.2 3.5-2 3.7-0.7 2.8-1.9 4.4-0.3 1.9 0 6.5-3.2-0.4-18.4 4.8-2.2 2.3-1.9 2.7-3.2 2.4-3.9 0.3-4.6-1.4-3.7-3.2-1.6-4.9 0-4.9-0.5-3.3-2.1-1.5-4.4 0.4-4.4 3.5-1.5 0.6-1.6-0.6-4.2-2.8-6-1.5-3.3-2.2-5.7-5.1-11.8-2.6-2.9-2.5-2.9-3.9-12-9.4-6.9-3.4-17.2-0.5-6.2-5-10.5-18.3-5.2-5.2-4.3 0.6-13.9 11.7 0.2-1.5-0.8-6.8 0-2.3 1.1-1.2 1.2 0.5 1.3-0.2 1-3-0.4-2.4-1.1-3.5-1.4-3.1-2.5-2.7-0.5-3.1 0.1-6.8-1.8-0.2-9.8 9.4-0.9-2.2 0.4-0.9 6.5-15 1.4-2.3 2.7-3.3 0-7.3-2-12.1-2.1-8.9-0.2-2.4-2.4-2.8-1.6-2.4-0.8-2.9 0.6-8.3-0.6-3.1-6.3-17-1.3-5.3-0.5-5.7-1.1-3-7-12.4-1.7-1.8-1.5-1-1.1-2-0.7-7.5-1.6-5.9-2.7-25.5 0-13.4 0.4-3.3 1.5-4.2 0.4-2.8 0-26.1-0.8-10.7 6.4-1.6 10 0 6.8-2 2.6-5.7 1.2-8.4 2.9-9.9 4.3-6.7 6-6.6 6.4-5.4 5.2-2.7 7.7-0.4 2.6-0.9 23.7-18.3 6.3-3.2 15.1-0.7 47.7-22.6-0.6 3.1-2.2 1.9-6.2 3.2-1.1 1.5-0.5 2.2 0.3 1.8 0.9 1.8 1.3 1.2 1.5 1.9 1.2 2.6 0 6.4 0.4 3.1 0.6 2.4 1.9 2.6 1 1.7 4.9 11.4 0.7 3-0.5 1.3-1.4 0.8-1.7 0.2-1.6 0.7-1.1 1.3-1.1 3.3-1.9 3.4-2 5.1-4.1 8.9-3.1 2.4-8.3-0.1-2.4 0.5-1.4 1.3-1.7 2.3-1.4 1.2-1.8 0.5-6.5 0.4-1.9 1-8.1 7.8-1.1 6.3-5.9 11.6-1.7 2.4-1.6 1.3-3.9 1-2.1 1.6-0.7 1.9 0.1 1.7 0.7 3.8-0.7 12.4 0.2 2.8 0.6 2.7 0.8 1.8 3.1 4.8 0.6 1.6 0.5 2.3-0.7 1.5-2.5 2.2-0.5 1.5-0.8 1.1-9 7.4-2.3 2.7-1.6 3.1 0.2 3.5 7.1 0.7 3.8-1.4 3.2-2.9 0.9 0.4 0.3 1.4 0 3.8 2 3.2 2.1 2.9 0.2 1.3-1.5 2.6-0.4 1.4 0.7 1.9 1.4 0.4 1.9-0.2 2.1-0.7 8.1-0.2 4-1.5 2.8-0.1 1.2 0.8 0.5 1.2-0.5 1.6-0.2 3.4-1 3.2 0.2 1.8 3.3 5.8 1 3 0.7 4.3 0.8 1.8 2 3.4 0.5 2 5.1 7.4 9 7.9z" id="LTU935" name="Klaipedos" data-id="LTU935" data-name="Klaipedos">
 </path>
 <path d="M281.9 18.1l-2.2 2.1-1.3 0.8-0.8 1.5 0.4 1.9 1.1 1.8 1 2.4-0.1 2.7-0.8 2.6-1.4 2.6-2.4 1.8-2.4 0.6-2.4-0.1-4.5-1.4-2.1 0-2 1.2-1.2 3.1-1.4 2-0.7 1.8 0.4 1 1.8 2.6 0.1 2.6-1 3.3-2.8 3.9-2.8 2.6-4.8 7-2.3 17.8 6.2 2.1 0.9 1 0.6 1.3-1.6 3-0.2 2.2 0.9 0.5 2.6 0.1 0.8 1.3 0.3 2.2 0.8 2.4 2 1.6 2.4 0.8 2.3 0 7.4-3.6 6.5 0.9 3-0.5 2.3-1 1.3-1.6 1.7-1.1 5.2-1.6 3.7-0.4 2.2 0.6 1.3 1.4 0 1.6-0.6 2.2-0.4 2.5 0.5 2.5 0.7 2 2.8 3.4-2.8 1.4-2.1 0.5-1.1 1.9-1.4 1.1-8 1.7-1.6 1.7-0.3 2.5 1.4 4.9 0.2 6.4-0.7 1.5-0.9 1.2-2.5 1.9-0.8 1.1 0 1.5 0.6 2.2 2.4 3.3 1.6 1.7 2.2 0.4 1.8-0.6 1.3-1.2 1.5-2.8 1.2-0.4 1.4 1.1 1.9 3.2 1.4 1.5 2.7 1.9-0.2 1-2.2 1.2-2.1 1.6 0.6 3.3-5 6.1-2.5 7.4-1.6 2.2-2.6 1.3-2.3 0.3-2.7 0.8-1.3 1.8-0.3 2.4 0.5 5.6-0.8 2.9-1.7 1.7-2.4 1.8-2.1 0.9-2.3 0.7-1.9 0.8-2.2 2.1-0.2 1.9 2.1 5.1 0.5 2.7-1.2 9.5 0.2 2.5 1 4.9-0.2 2.3-1.4 1.7-1.4 0.9-5.3 4.8-13 2.1-2-0.4-2-1.1-1.9-0.6-4.2 0.3-2-0.5-5.1-2.5-4.2 0.4-14 1.7-5.9 2.6-2.9 2.2-2.2 0.5-2.2 0-2.2-0.7-2 0.8-1.3 3-0.6 2.2 0.1 3.6-0.2 1.3-0.9 1.4-4.1 4.2-1.9 0.6-2.2-0.2-2.2-0.8-19.3 2.8-9-7.9-5.1-7.4-0.5-2-2-3.4-0.8-1.8-0.7-4.3-1-3-3.3-5.8-0.2-1.8 1-3.2 0.2-3.4 0.5-1.6-0.5-1.2-1.2-0.8-2.8 0.1-4 1.5-8.1 0.2-2.1 0.7-1.9 0.2-1.4-0.4-0.7-1.9 0.4-1.4 1.5-2.6-0.2-1.3-2.1-2.9-2-3.2 0-3.8-0.3-1.4-0.9-0.4-3.2 2.9-3.8 1.4-7.1-0.7-0.2-3.5 1.6-3.1 2.3-2.7 9-7.4 0.8-1.1 0.5-1.5 2.5-2.2 0.7-1.5-0.5-2.3-0.6-1.6-3.1-4.8-0.8-1.8-0.6-2.7-0.2-2.8 0.7-12.4-0.7-3.8-0.1-1.7 0.7-1.9 2.1-1.6 3.9-1 1.6-1.3 1.7-2.4 5.9-11.6 1.1-6.3 8.1-7.8 1.9-1 6.5-0.4 1.8-0.5 1.4-1.2 1.7-2.3 1.4-1.3 2.4-0.5 8.3 0.1 3.1-2.4 4.1-8.9 2-5.1 1.9-3.4 1.1-3.3 1.1-1.3 1.6-0.7 1.7-0.2 1.4-0.8 0.5-1.3-0.7-3-4.9-11.4-1-1.7-1.9-2.6-0.6-2.4-0.4-3.1 0-6.4-1.2-2.6-1.5-1.9-1.3-1.2-0.9-1.8-0.3-1.8 0.5-2.2 1.1-1.5 6.2-3.2 2.2-1.9 0.6-3.1 21.8-10.4 7.7 0.6 3.2 1.6 6.3 4.8 3.3 1.4 50.5-1.8 10.8 2.6 0.5 0.2z" id="LTU936" name="Telšiai" data-id="LTU936" data-name="Telšiai">
 </path>
 <circle cx="700.3" cy="439.2" id="0">
 </circle>
 <circle cx="697.6" cy="439.6" id="1">
 </circle>
 <circle cx="701.2" cy="427.8" id="2">
 </circle>
</svg>