<?xml version="1.0"?>
<!--
************* Copyright (c) 2017 Pareto Softare, LLC DBA Simplemaps.com *******************		
************* Free for Commercial Use, full terms at  http://simplemaps.com/resources/svg-license ************
************* Attribution is appreciated! http://simplemaps.com ***************************
-->
<svg baseprofile="tiny" fill="#7c7c7c" height="1448" stroke="#ffffff" stroke-linecap="round" stroke-linejoin="round" stroke-width="2" version="1.2" viewbox="0 0 1000 1448" width="1000" xmlns="http://www.w3.org/2000/svg">
 <path d="M739 647l-23.5 3-9.4 4.1-7.3 7.7-7.5 16.3-2.4 9.3 2.8 8.3 10.8 7.6-1.2 15.4-24.9 42.7-40.4-18.4-26.2-24.7-11.7-13.7-34.8-8.8-12.7 0.5-42.6 11.9-11.8-3.1-11.4-5.5-18.4-12.2-14.8-3.2-12.2 0.2-21.3 10.2-11.8 14.4-5.9 21.4-13.3 17.6-6.3 13.9-15.8 17.8-2.5 11.5-0.8 27.9-4.6 21.4-1.7 21.6 0.4 20.8-44 14.3-32 15.6-19.3 5.4-54.8 1.8-24.9 8.2-0.5-4.4-7.3-11.7-8.3-0.6-8.2 2.7-32.4-11-8.2-6.6 0.6-4.5-2.8-27.5-2-9.3-29.9-59.4-8.4-12.5-16.2-10-13.6-2.3-12.9-6.3-13.4-22.4-7.8-24.8-1.8-23.5 5.6-18.9 15.2-10.2-12.3-11.4 6.5-17.6-0.2-11.4 33.4 3.4-11.8-17.9-28.1-21.5-15-7.3 5.1-18.7 44-76.7 8.2-22.6 4.7-10.3 10-13.2 8.9-6.1 18.8-4.4 10.5-9.9 13.9-27.2-5.1-10.9-8.9-11 1.4-27.3 7.9-10.6 25.8-11.4 9.2-9.8 3.1-15.7 0-18.6-1.4-22.9 7.6-12.3 18.5-16.2 7.8-11.3 3.1-13.5 2.5-32.2 4.6-12.6 21-19.2 47.3-23.3 18.9-19.8 10.1-28.5 5.3-27.2 10.8-18.3 27-2.9 19.6-15.7 8.2 8.9 4.2 19 7.7 14.6 16.8 8.2 14.3 2 28.9-4.6 11.1-6.9 8.1-8.8 9.9-1.3 16.4 15.9 5.5 18.3-1.4 18.7 2.9 15.7 18.9 8.5-8.8 28.7-6.2 27.3-8 55.7 12.7 1.1-4.7 6.5-11.8 23.1 13.8 8 8.2 16.3 7.9 41.3-3.5 22 5.5 16 21.9 33.6 19.3 55.6 10.2 17.2 13.6-27.2 21.8 35.5 41.8 101 19.8 20.2 43.1 19.3 18.6 12 6 10.8 5.1 13.8z" id="LUX906" name="Diekirch" data-id="LUX906" data-name="Diekirch">
 </path>
 <path d="M682.5 1352.8l-5.1-32.6-15.6-66.5-1.1-26.5 8.8-16.6 40.9-39.9 9.6-5 23.1-5.1 3.1-12-2.1-9.4-13.4-13.9-4.9-7.1 7.6-13.3 26.7-22.2-21.7-40.8-12.1-51.8-9.2-11.6-17.2-11.8-17.4-4.9-97.2-2.5 57.8-92.3 10.5-9.7 16.1-10.3 8.9 1.6 19-0.8 14.8-46.1-2.6-5.8-13.2-11.9-20.2-22.6 24.9-42.7 1.2-15.4-10.8-7.6-2.8-8.3 2.4-9.3 7.5-16.3 7.3-7.7 9.4-4.1 23.5-3 7.6 20.3 1.4 6.6 10.2 0.9 19.1-11.6 11.1 0.3 21.6 13.7 36.5 34.9 21.5 13.8 22.2 6.1 61 0 39.1 11.6 5 0.3 3.7 9.8-0.1 16.6-1.9 1.3-6 42.8-0.1 14 3.4 8.7-0.6 7.7-12.3 10.8-0.9 17.6 2.9 16.1 6 14.1-2 7.9-5.9 2.9-4.3 9.6 11.2 14.3-93.4 60.8-19.7 27.7 2.2 6.5 15.9 13.2 1.2 13-3.5 8.8-9.5 14.2-12.9 26.6-33.1 41-19.2 30.2-7.2 21.6 0 62.1-10.8 82.1 3.9 59.2 0 14.5-25.4-2.7-33.8-18.6-60.6-45.5z" id="LUX907" name="Grevenmacher" data-id="LUX907" data-name="Grevenmacher">
 </path>
 <path d="M676.4 761.4l20.2 22.6 13.2 11.9 2.6 5.8-14.8 46.1-19 0.8-8.9-1.6-16.1 10.3-10.5 9.7-57.8 92.3 97.2 2.5 17.4 4.9 17.2 11.8 9.2 11.6 12.1 51.8 21.7 40.8-26.7 22.2-7.6 13.3 4.9 7.1 13.4 13.9 2.1 9.4-3.1 12-23.1 5.1-9.6 5-40.9 39.9-8.8 16.6 1.1 26.5 15.6 66.5 5.1 32.6-2.2-1.7-34.8-13.9-36.1-3.9-73.1 8.1 8.3 18-35.9 3.4-9 3.6-6.7 11.9 0.1 12.6-2.9 10.5-15.4 5.9-12.3 18.8-18.7 6.9-108.3 6.6-22.1 7.4-17.5-56-23.9-24.2-80.6-19.3-32-15.1-22.2-20.9-39.9-53.3 30.2-14.5 29.2-31.3 12.1-30.6-21.6-11.9 14.3-13.6 10.1-19.6 16.3-45.3 10.2-11.9 12.6-11.8 7.1-17.1-7.1-27.9-9.2-7.8-25.5-2.9-8.7-6.6-4.5-14.5 5.7-13.3 2.6-23.6 10.9-15.2-1.2-10.6 24.9-8.2 54.8-1.8 19.3-5.4 32-15.6 44-14.3-0.4-20.8 1.7-21.6 4.6-21.4 0.8-27.9 2.5-11.5 15.8-17.8 6.3-13.9 13.3-17.6 5.9-21.4 11.8-14.4 21.3-10.2 12.2-0.2 14.8 3.2 18.4 12.2 11.4 5.5 11.8 3.1 42.6-11.9 12.7-0.5 34.8 8.8 11.7 13.7 26.2 24.7 40.4 18.4z" id="LUX908" name="Luxembourg" data-id="LUX908" data-name="Luxembourg">
 </path>
 <circle cx="769" cy="637.1" id="0">
 </circle>
 <circle cx="342.2" cy="1159" id="1">
 </circle>
 <circle cx="412.1" cy="503.8" id="2">
 </circle>
</svg>