<?xml version="1.0"?>
<!--
************* Copyright (c) 2017 Pareto Softare, LLC DBA Simplemaps.com *******************		
************* Free for Commercial Use, full terms at  http://simplemaps.com/resources/svg-license ************
************* Attribution is appreciated! http://simplemaps.com ***************************
-->
<svg baseprofile="tiny" fill="#7c7c7c" height="966" stroke="#ffffff" stroke-linecap="round" stroke-linejoin="round" stroke-width="2" version="1.2" viewbox="0 0 1000 966" width="1000" xmlns="http://www.w3.org/2000/svg">
 <path d="M163 66.3l0 8.9-1.4 7.5-1.1 9.3 1.1 7.9 1 5.5-1.2 7.4-0.3 8.8 0.8 7.4-0.5 9.3 1 6.5 2.6 5.9 3.2 5.9 1.1 0.4-6 11-8.5 12.6-5.1 8.3-3.3 3.5-0.5 4.1 1.6 9.4-0.3 12.9 0.5 14.8 1.9 16.1 2.6 16.8 2.5 15.4-0.1 20.1 5 8.5 5.6 7.9 1.5 5.9 1.9 13-0.1 0.2-1.1 1.7-2.2 2.9-6.8-1.7-4.1-4.2-6.3 1.4-2.3 0.1-6-1-2.4 1.4-4.2 2.8-4 0-8.3-3.4-2.9-2.2-8.1-1.3-4-5.2-0.9-5.3-1.8-4.1-3.6 1.3-4.6 3-1.1 0.9-3.5 3-5.7 2.6-5.6 2.4-5.4 2.6-4.2 0.8-9-5.1-5.9-2.3-2.9 0.8-5.6 1.8-5 1.7-3.3 1.7-2.7 1 1.5-12-0.2-13.6-1.4-11-4.9-17.3-5-17.3-7.5-14.1-8-12-7-8.5-1.5-2.3 14.7-8.2 14-7.4 1.9-0.5 4.6-0.3 1.6-1 7.8-10.1 6.6-10.8 5.8-6.5 3.8-8.1 1-3 0.1-2.4-1.6-5.2-0.3-2.6 0.3-2.8 0-1.4-2-4.2-1.9-7.7-4.7-12.6-0.2-1.3 0.7-4.8 1-1.7 4-4.5 4.3-7.5 3.2-2.7 7.1 0.1 3.4-1.3 1-0.9 1-0.9 0.7-1.1 1.1-2.6 2.6-2.5 0.8-2.4 0.6-6 1.4-1.5 1.2 0.2 1.1 0.6 1.2 0.5 1.2-0.4 2.1-1.7 2.3-1.4 2-2.1 2.6-5.9 1.7-1.9 19.4-9.3 16.5-7.9 4.4-2.9 0.7-0.8 0.5 0.3 3.8 3.4 3.1 3.4 3.6 1.3 10.2-0.2z" id="LBY2882" name="Ghadamis" data-id="LBY2882" data-name="Ghadamis">
 </path>
 <path d="M449.5 278.8l1.1-0.7 7.4 2 12.1-0.8 6.7-2.7 8.1 0.6 6.7 6 9.4 2.7 6.1 2 6-5.4 4.7-2.7 4.8 0 5.3 4.7 1.3 5.4 2.7 6.7 5.3 6 5.4 6.7 2.6 8.1 2.6 10 6.7 6.7 8.6 6.1 10.1 2.7 7.2 2.3 0-1.2 13.8 4.7 17.9 5.4 0 0.2 10.6 0.7-0.2 94.8 0 35.6-0.1 35.4-2.6-1.3-6.6-2.3-8.5-2.2-9.9-1.9-7.2-1.8-6.3-0.7-6.4-5.9-5.8-6.7-7.3-3.3-8.9 2.2-6.8 3.5-2.9 3.6-8.2 6-5.1 1.6-8.2 0.6-4.6 3-5.3 2.2-9.2-3.4-10.7-2.4-9.6-2-3.6-5-5-3.5-4.8-2.9-6.7-7-3.3-7.2 0.5-7.2-3.5-5-3.8-2.2-5.5-2.9-3.1-1.3-2.8-3.8-0.6-5.9 0.1-5.1 0.6-5.2 0-0.5-1.4-4.9-4.1-2.3-4-3.8-4.2-2.4-2.4-2.4-2-5.5-1.8-5.9-6-9.1-4.6-6.9 0.1-2 0-1.6 2.2-5.4 2.5-6.8 1.4-5.8-0.9-5.9-5.5-5.5-4.5-1.3-8.2-2.9-5.2-0.3-8 0.9-8.2 4.7-8 0.8-6.6-1.1-1.5-5.2-0.1-5.6-2.1-8-7.5-8-11.3-7.3-4.6-3.8-3.7-3.2-3.7-5.7-2.9-5.7-0.9-7.9 0.5-8.8 0.2-7.1 5.5-1.6 7.9-5.9 5-3.1 2.5-3.6 0.5-3.7-0.2-5.8-1.1-5.1-0.2-5.5 1.7-3.9 3.8-5.2 1.9-3.8 2.9 1.6 4.8 4.7 4.8 5.3 9.4 3.2 6.1 1.3 5.4 1.9 7.4-0.1 4.1 2 2 2 4.1 6.6 4.8 5.4 8.7 1.2 4-3.4 6.1-3.4 6-2.1 8.8 2.6 6 2 3 2z" id="LBY2964" name="Al Jufrah" data-id="LBY2964" data-name="Al Jufrah">
 </path>
 <path d="M623.5 805.8l0-6.8 0-2.8 0-1.5-0.1-33.8-0.2-33.9-0.1-34-0.1-34.2-0.2-34.3-0.1-34.4-0.1-34.6-0.2-34.7 0.1-35.4 0-35.6 42.8-0.1 54.9-0.5 37.7 0.5 37.8 0.5 36.7-0.2 36.8-0.3 36.8-0.6 36.8-0.7 23.2-0.6 22-0.5 0 358 0 8.5 0 25.2 0 16.9 0 16.7 0 8.4 0 16.8 0 12.7 0 6.4-0.1 6.4 0 7.9-0.2 0.4-0.5 0.1-6.4 0-9.2 0-7.6 0-7.9-0.1-8.4 0-7.1 0-5.4 0-10.1 0 0 33.4-7.8-4.1-7.7-4-7.8-4.1-15.5-8.2-7.8-4-7.8-4.1-7.7-4.1-15.6-8.2-15.5-8.2-7.8-4-7.7-4.1-15.6-8.2-23.3-12.3-7.7-4.1-15.6-8.2-23.3-12.3-7.7-4.2-7.8-4.1-7.8-4.1-7.7-4.1-7.8-4.1-7.8-4.1-7.8-4.2-7.7-4.1-7.8-4.1-7.8-4.1-7.7-4.2-22-11.6z" id="LBY2965" name="Al Kufrah" data-id="LBY2965" data-name="Al Kufrah">
 </path>
 <path d="M344.9 55.8l0 0.8-0.8 1.7-1.3 5.2 0.6 3.9 1.7 4.1-0.2 4.4-2.4 3-2.2 6.1-1 6.6-4.1 0.6-8.2 1-6.6-2.3-5.1-5.1-10.2-7.2-3.6 4.2-4.6 0.9-1.9-0.2-3.9-1.9-4.1 0.1-3.6 1.5-6.3 1.8-3.8 0.6-9.9-0.3-3.9 0.1-0.3-4.4-1.8-6.8-4-5.1-3.1-3.5-0.9-1.2 7.2-2.3 2.1-1.4 1.1-3.9 3.1-6.9 7.7-2.4 8.2-3.8 6.6-0.7 0.2-1.4 4.9-5.4 4.1-3.5 2.3 1 11.6 2 0.6 0.3 1.1 1 0.4 0.3 1 0.5 2.3 2.2 3.5 2.3 5.4 4.7 2.9 3.1 1.2 0.5 10.2 1.7 1 0.6 1 0.8 2.8 1.6 1.2 0.4 1.8 0.1z" id="LBY2966" name="Al Marqab" data-id="LBY2966" data-name="Al Marqab">
 </path>
 <path d="M323.8 293.2l-0.2 7.1-0.5 8.8 0.9 7.9 2.9 5.7 3.7 5.7 3.7 3.2 4.6 3.8 11.3 7.3 7.5 8 2.1 8 0.1 5.6 1.5 5.2 6.6 1.1 8-0.8 8.2-4.7 8-0.9 5.2 0.3 8.2 2.9 4.5 1.3 5.5 5.5 0.9 5.9-1.4 5.8-2.5 6.8-2.2 5.4 0 1.6-14.6-1.4-9.3 3.4-4 2-11.3 1.5-6.6 0.8-9.2 4.1-4.6 8.1-7.9 4.8-6.6 4.1-5.9 4-2.6 4.1-3.9 3.4-6.6 0.7-20.9 2.3-22.6-4.3-17.3-5.5-10-1.7-11.2 3-15 9.7-12.3 9.6-16.9 13.1-18.8 13.2-16.8 11.8-14.8 9.7-8.4 5.6-1-9.8-2.3-9.2-3.9-18.3-2.5-14.4-1.6-9.9-1.9-16.5-3.6-7.8-5.5-3.8-8.1-3-14.7-2.7-12.1-3.4-12.1-3.5-12.2-5.4-9-5.2-0.3-0.2 0.2-0.6 0.1-2.8-9.1-24.4-0.9-4.2 3.2-25.1 2.7-1 3.3-1.7 5-1.7 5.6-1.8 2.9-0.8 5.9 2.3 9 5.1 4.2-0.8 5.4-2.6 5.6-2.4 5.7-2.6 3.5-3 1.1-0.9 4.6-3 3.6-1.3 1.8 4.1 0.9 5.3 4 5.2 8.1 1.3 2.9 2.2 8.3 3.4 4 0 4.2-2.8 2.4-1.4 6 1 2.3-0.1 6.3-1.4 4.1 4.2 6.8 1.7 2.2-2.9 1.1-1.7 0.1-0.2 2-3.7 7.9 2.3 3 0.4 7.6 3.2 4.6 0.5 5 0.3 3.9 0.7 0.6 5.6 5.5 2.8 6.2-0.3 4.4-4.5 2.1-5 3.7-3.3 3.5-2.2 5.5-3.4 7-3.7 6.5-7.4 5.9-8.1 3.6-5.8 3.9-5.2 3.1-5.2 2.9-6.3 5.1-6.5 3.9-4.7 3.4-3.1 7-5.8 5.4-1.6 5.1 1.1 3.8 2.2 8.1 4 6.7 4.8 5.2 5.7 3.3 4.1-0.2 4z" id="LBY2967" name="Ash Shati'" data-id="LBY2967" data-name="Ash Shati'">
 </path>
 <path d="M132.3 505.8l-1.3 8.9-2.4 10.5-0.7 13.4 1.9 7.8 4.1 6-4.2 11.3 0.4 13.7-0.1 14.4-0.2 13 7.6 14.1 1.6 9-0.9 9.5-34.9-11.6-12-4-1.4-0.3-1.3 0.2-7 2.5-7.3 2.8-2.5 0.2-1.2-0.4-8.3-6.7-1.1-1.3-0.8-2.4-1.1-6.4-1.2-1.9-9.3-5.5-0.8-1.9-0.1-9.6-0.6-19-0.8-4.4-2.5-4.4-9.6-13.5-7.7-10.8-9.6-13.5-8.8-12.4-1.5-3.9 1.6-3.3 0.9-1.1 1.1-2.8 2.2-2 0.5-1.1 0.3-1.2 0-1.4 22.2-10.6 1.2-1.4 2.6-9.1-0.1-1.5-0.7-1.9 0.2-2.5 1.5-7.5-0.2-1-1-0.8-2.8-1.6-0.7-0.7-0.6-1.3-1.2-7.4-5.4-18.9 0.1-1.2 0.3-1.1 1-2.8 0.8-4.2 0.9-1.5 2.7-3 0.5-1.3-0.6-1.5-0.9-1.6-0.2-1.5 1.6-1.1 1.7-1 1.1-1.4 4.2-14.2 0.3 0.2 9 5.2 12.2 5.4 12.1 3.5 12.1 3.4 14.7 2.7 8.1 3 5.5 3.8 3.6 7.8 1.9 16.5 1.6 9.9 2.5 14.4 3.9 18.3 2.3 9.2 1 9.8z" id="LBY2968" name="Ghat" data-id="LBY2968" data-name="Ghat">
 </path>
 <path d="M622.4 520.8l0.2 34.7 0.1 34.6 0.1 34.4 0.2 34.3 0.1 34.2 0.1 34 0.2 33.9 0.1 33.8 0 1.5 0 2.8 0 6.8-9.1-4.9-7.8-4.1-7.7-4.2-7.8-4.1-15.5-8.3-7.8-4.1-7.8-4.2-7.7-4.1-7.8-4.2-7.8-4.1-23.3-12.5-7.7-4.2-15.6-8.3-7.7-4.2-7.8-4.1-7.8-4.2-7.7-4.2-15.6-8.3-7.7-4.2-7.8-4.2-5.7-3.1-1.3 0.2-2.8 1.4-3.7 1.8-14.5 7.1-7.2 3.6-10.9 5.4-7.3 3.6-3.6 1.7-3.6 1.8-7.3 3.6-1.1 0.6-10.8 5.9-10.7 5.9-10.8 5.9-14.7 8-1 0.1-0.9-0.4-2.9-2.6-7.8-7-15.8-14.1-7.8-7-3.6-3.2-7.3-4.1-12-2.9-5.5-1.4-5.6-1.3-11.1-2.7-5.5-1.4-22.2-5.4-5.6-1.3-5.5-1.4-5.6-1.3-11.1-2.7-5.5-1.4-9.2-18.7-7.1-14.4-4.6-9.5-4.4-8.9-1.6-2.1-2.1-1.2-2.6-0.8 0.9-9.5-1.6-9-7.6-14.1 0.2-13 0.1-14.4-0.4-13.7 4.2-11.3 12.2-7 11.3 5.5 5.3 1.7 11.8-1 7.2-0.9 6.4-5.5 6.4-5.4 8.6 1.7 7.8-0.9 5.2-4.1 5.8-2.2 10.5-3.6 15-1 6.5-4.8 6.4-8.1 4.5-4 11.8-2.9 16.7-6.2 0 0.2 12.5-1.6 7.2-2.8 11.1-4.8 7.1-7.4 6.5-7.4 6.5-6.7 5.3-5.4 9.2-3.4 7.9-2.1 11.2-2.8 11.9-1.5 11.9-2.2 6.6-1.4 32.6-9-0.6 5.2-0.1 5.1 0.6 5.9 2.8 3.8 3.1 1.3 5.5 2.9 3.8 2.2 3.5 5-0.5 7.2 3.3 7.2 6.7 7 4.8 2.9 5 3.5 3.6 5 9.6 2 10.7 2.4 9.2 3.4 5.3-2.2 4.6-3 8.2-0.6 5.1-1.6 8.2-6 2.9-3.6 6.8-3.5 8.9-2.2 7.3 3.3 5.8 6.7 6.4 5.9 6.3 0.7 7.2 1.8 9.9 1.9 8.5 2.2 6.6 2.3 2.6 1.3z" id="LBY2969" name="Murzuq" data-id="LBY2969" data-name="Murzuq">
 </path>
 <path d="M431.8 143.8l-0.3 0.7-1.1 2.6 0.1 12.3 2.7 10.8 4.2 15.6 2.8 14.2 2 13.5 4.8 13.4 5.5 14.8 2 11.5 2.1 9.4-1.3 7.4-5.8 8.8-3-2-6-2-8.8-2.6-6 2.1-6.1 3.4-4 3.4-8.7-1.2-4.8-5.4-4.1-6.6-2-2-4.1-2-7.4 0.1-5.4-1.9-6.1-1.3-9.4-3.2-4.8-5.3-4.8-4.7-2.9-1.6 0.7-1.4 4.2-4.3 3-5.6 0.2-8.3-0.7-9.2-1.3-11-5.8-4.2-4.8-2.3-13.9-3.8-6.9-5-5.9-2.6-9.2-4.9-3.4-8.5-5.7-14.3-8.3-15.5-1.1-1.2-3.5-2.3-4-2.3-6.8-8.6-3.6-5.1-2-7.9-2.9-6.7-4.1-8-2.3-10.9-3.5-6.7 3.9-0.1 9.9 0.3 3.8-0.6 6.3-1.8 3.6-1.5 4.1-0.1 3.9 1.9 1.9 0.2 4.6-0.9 3.6-4.2 10.2 7.2 5.1 5.1 6.6 2.3 8.2-1 4.1-0.6 1-6.6 2.2-6.1 2.4-3 0.2-4.4-1.7-4.1-0.6-3.9 1.3-5.2 0.8-1.7 0-0.8 9.8 0.4 12.8 2.3 2.9 1.1 1.3 0.2 0.9 0.4 2.4 3.2 2.3 1.4 0.8 0.8 0.6 2.7 0.5 1.5 1.4 2.7 2.6 3.7 0.4 1.2-0.1 1.5-0.6 2.7-0.3 4.7 0.4 5.5 0.6 2.6 7.5 19.6 1.6 2.7 6.8 9.7 4 4.4 4.7 3.6 17.8 8.3 5.8 1.1z" id="LBY2970" name="Misratah" data-id="LBY2970" data-name="Misratah">
 </path>
 <path d="M410.4 399.7l-0.1 2 4.6 6.9 6 9.1 1.8 5.9 2 5.5 2.4 2.4 4.2 2.4 4 3.8 4.1 2.3 1.4 4.9 0 0.5-32.6 9-6.6 1.4-11.9 2.2-11.9 1.5-11.2 2.8-7.9 2.1-9.2 3.4-5.3 5.4-6.5 6.7-6.5 7.4-7.1 7.4-11.1 4.8-7.2 2.8-12.5 1.6 0-0.2-0.1-7.1 2.5-7.9 7.1-6.8 3.8-8-0.7-3.9-3.4-3.9-2.7-5.2 0.5-9.3-1.5-7.2-2.4-2.8 20.9-2.3 6.6-0.7 3.9-3.4 2.6-4.1 5.9-4 6.6-4.1 7.9-4.8 4.6-8.1 9.2-4.1 6.6-0.8 11.3-1.5 4-2 9.3-3.4 14.6 1.4z" id="LBY2971" name="Sabha" data-id="LBY2971" data-name="Sabha">
 </path>
 <path d="M249.4 64.4l0.9 1.2-3.8 0.4-2.2 1.4-6.6 1-5.5 0.2-9 1.3 0.6-5.7-0.4-5.3 4.7-11.4 4.5-8.1 6.5-3.5 0.2-0.4 5.5 5.4 0.7 6.1 1 8-0.2 5.2 3.1 4.2z" id="LBY2973" name="Al Jifarah" data-id="LBY2973" data-name="Al Jifarah">
 </path>
 <path d="M207.7 28.7l-1.2 0.9-3.3 10.7-2.5 4.2-7.9 5.2-3.1 4.2-4.9 2.4-5.5 2.6-1.5 4-14.8 3.4-10.2 0.2-3.6-1.3-3.1-3.4-3.8-3.4-0.5-0.3 1.3-1.2 1.1-2.3-0.2-3.2-1.5-2.6-4.2-4.2-1.3-2.9 0-4.1 0.9-7.9-0.4-7.8 1.1-5 0-4.2 0.2-1.2 1.8-7.1-0.1-3.4 1.3 0.3 2.2 0.9 0.9 0.5 0.8 2 1 0.8 2 0.9 7.6 1.3 2.4 0.8-1.3-1.3-4.1-1.4-1.1-1.4 3 1.7 6.8 2.3 14.7 9.4 2.6 2.7 2.4 0.7 4.1 2.7 5 2.5 2.7 0.7 14.2 1.6z" id="LBY2974" name="An Nuqat al Khams" data-id="LBY2974" data-name="An Nuqat al Khams">
 </path>
 <path d="M239.3 35.5l-0.2 0.4-6.5 3.5-4.5 8.1-4.7 11.4 0.4 5.3-0.6 5.7-5.3 0.7-3 0.7-2.4 0.6-4.8-1.5-5.2-1.5-5.6-2.3-6.9 0.5-9.3-0.2-17.7-0.6 14.8-3.4 1.5-4 5.5-2.6 4.9-2.4 3.1-4.2 7.9-5.2 2.5-4.2 3.3-10.7 1.2-0.9 9.8 1 6-0.4 15.7-4.7 1.8-0.8 0.5 7.1-2.2 4.6z" id="LBY2975" name="Az Zawiyah" data-id="LBY2975" data-name="Az Zawiyah">
 </path>
 <path d="M259.5 85.4l3.5 6.7 2.3 10.9 4.1 8 2.9 6.7 2 7.9 3.6 5.1 6.8 8.6 4 2.3 3.5 2.3 1.1 1.2 8.3 15.5 5.7 14.3 3.4 8.5 9.2 4.9 5.9 2.6 6.9 5 13.9 3.8 4.8 2.3 5.8 4.2 1.3 11 0.7 9.2-0.2 8.3-3 5.6-4.2 4.3-0.7 1.4-1.9 3.8-3.8 5.2-1.7 3.9 0.2 5.5 1.1 5.1 0.2 5.8-0.5 3.7-2.5 3.6-5 3.1-7.9 5.9-5.5 1.6 0.2-4-3.3-4.1-5.2-5.7-6.7-4.8-8.1-4-3.8-2.2-5.1-1.1-5.4 1.6-7 5.8-3.4 3.1-3.9 4.7-5.1 6.5-2.9 6.3-3.1 5.2-3.9 5.2-3.6 5.8-5.9 8.1-6.5 7.4-7 3.7-5.5 3.4-3.5 2.2-3.7 3.3-2.1 5-4.4 4.5-6.2 0.3-5.5-2.8-0.6-5.6-3.9-0.7-5-0.3-4.6-0.5-7.6-3.2-3-0.4-7.9-2.3-2 3.7-1.9-13-1.5-5.9-5.6-7.9-5-8.5 0.1-20.1-2.5-15.4-2.6-16.8-1.9-16.1-0.5-14.8 0.3-12.9-1.6-9.4 0.5-4.1 3.3-3.5 5.1-8.3 8.5-12.6 6-11-1.1-0.4-3.2-5.9-2.6-5.9-1-6.5 0.5-9.3-0.8-7.4 0.3-8.8 1.2-7.4-1-5.5-1.1-7.9 1.1-9.3 1.4-7.5 0-8.9 17.7 0.6 9.3 0.2 6.9-0.5 5.6 2.3 5.2 1.5 4.8 1.5 2.4-0.6 3-0.7 5.3-0.7 9-1.3 5.5-0.2 6.6-1 2.2-1.4 3.8-0.4 3.1 3.5 4 5.1 1.8 6.8 0.3 4.4z" id="LBY2976" name="Mizdah" data-id="LBY2976" data-name="Mizdah">
 </path>
 <path d="M294.6 32.7l-4.1 3.5-4.9 5.4-0.2 1.4-6.6 0.7-8.2 3.8-7.7 2.4-3.1 6.9-1.1 3.9-2.1 1.4-7.2 2.3-3.1-4.2 0.2-5.2-1-8-0.7-6.1-5.5-5.4 2.2-4.6-0.5-7.1 0.8-0.4 2-1.6 1.1-0.7 1.4-0.2 4.4-0.2 5.9 1.1 0.8 0.3 0.6 0.6 12.5 6.7 2.8 0.7 10.7-0.5 2.7 0.4 5.4 1.6 2.5 1.1z" id="LBY2978" name="Tajura' wa an Nawahi al Arba" data-id="LBY2978" data-name="Tajura' wa an Nawahi al Arba">
 </path>
 <path d="M760.1 31.1l0.1 0.3 0.5 0.1 0.6-0.3 0.6-0.1 0.1-0.1 0.4 1 4 5.2 0.3 4.8-4.7 4.7-3.5 4.4 0.2 6.2 1.8 7.6 4 7.3 2.2 7.2 4 4.6 6.7 5.3 1.8 6.8 0.5 10-0.6 7.1-2.6 6.4-0.2 8.6 2.5 8.9 1.6 3.4 2 1.8 0.3 15.9-3.9 1.6-16.2 0.8-4.9-0.2-1.9-17.7-2.9-5.9-1.2-7.5-0.5-6.1-4.4-4.2-3.4 0.9-7.5 0.5-8.2-1.1-4.8 0.2-5.2 2.3-8.5-1.5-2.6-3.8-2.6-7.9-3.3-5.9-3.9-8.2-2.6-7.9 0.1-5.5 2.9-8.2 4.6-6.4 5.6-5.1 2.8-4.7 0.9-8.2-0.1-1.2 13.8-6 8.7-5.9 7.3-3.7 2.9-0.7 12 0.8 2.8-0.3 1.6-0.4z" id="LBY2981" name="Al Marj" data-id="LBY2981" data-name="Al Marj">
 </path>
 <path d="M799.6 21.1l-0.3 0.9-0.2 4.7-0.5 6.2 1.5 5.5 2 4.2 0.5 5.5-0.8 4.1-1.9 5.4-0.8 5.5-1.1 2.4 1.1 6.5 0.2 6.5 1.5 6.9-0.4 12 0.1 7.5-0.5 8.2-1.5 4 0 11.9-1.2 5.5-2 7.7 12.3 12-8.9 0.9-11.2 1-4.8 2.1-0.3-15.9-2-1.8-1.6-3.4-2.5-8.9 0.2-8.6 2.6-6.4 0.6-7.1-0.5-10-1.8-6.8-6.7-5.3-4-4.6-2.2-7.2-4-7.3-1.8-7.6-0.2-6.2 3.5-4.4 4.7-4.7-0.3-4.8-4-5.2-0.4-1-0.1 0.1-0.6 0.1-0.6 0.3-0.5-0.1-0.1-0.3 3.6-1 2.5-1.4 9.7-8.9 0.9-0.5 3.1-0.2 2.8-0.8 1.7 1.5 2.7 1.1 3.1 0.7 2.6 0.3 6.8-0.8z" id="LBY2982" name="Al Jabal al Akhdar" data-id="LBY2982" data-name="Al Jabal al Akhdar">
 </path>
 <path d="M757.7 160.4l4.9 0.2 16.2-0.8 3.9-1.6 4.8-2.1 11.2-1 8.9-0.9 9.2-1.9 4.8 4.3 7.6 6.9 3.5 7.3 6.8 4.7 4.4 0.9 6.3 1.9 6.2-0.2 5-0.4 0.3 0 5.3 2.1 0.1 48 0 47.7 0.1 47.3 0.1 47.1 59.7 1.4 29.9 0.7 29.8 0.7 1.3 0.2 0 74.4-22 0.5-23.2 0.6-36.8 0.7-36.8 0.6-36.8 0.3-36.7 0.2-37.8-0.5-37.7-0.5-54.9 0.5-42.8 0.1 0.2-94.8-10.6-0.7 0-0.2-17.9-5.4-13.8-4.7 0-26.8 0.9-20.8 4.1-14.7 7.5-10.8 2.2-10.7-1.3-12.1 0.8-12.2 2.2-14.1 1.8-12.8 8.6 5.6 2.6 1.2 5.6 0.8 5.6 0.1 5.9-0.6 6.2-1.9 5.1-2.5 7-4.6 1.3-0.6 2.8-0.5 1.3-0.7 8.3-6.5 10.4-12.6 2.8-4.9 1.5-2.1 2.3-1.8 1.1-1.2 4-8.5 3-8.1 0.3-3.1-0.3-9.5-0.4-0.5 0.8-0.3-0.2-0.7-0.2-0.3-0.7-0.7-0.2-0.7 3.5-0.1 6.9 2.2 2.8 4.2 4.7 6.4 6.7 4.6 4.4 1.4 9.1-0.5 12.3-2.4 24.2 0.8z" id="LBY2983" name="Ajdabiya" data-id="LBY2983" data-name="Ajdabiya">
 </path>
 <path d="M757.7 160.4l-24.2-0.8-12.3 2.4-9.1 0.5-4.4-1.4-6.7-4.6-4.7-6.4-2.8-4.2-6.9-2.2-3.5 0.1 0.2 0.7 0.7 0.7 0.2 0.3 0.2 0.7-0.8 0.3-0.8-1.4-1.6-4.8-1.3-2.1-2.8-2.9-1-1.5-4.2-12-0.4-3.1 0-3.2-0.3-1.2-1.1-2.8-0.4-1.4-0.2-3.1 0.2-3.3 0.9-6.2 0.9-2.8-0.2-0.8-0.2-0.8-0.1-0.8 0.3-0.7 0.7-1.1 5.8-12.1 1.4-2.3 12-12.1 1-1.6 3-3.7 1.3-0.7 2.5-1.1 1.1-1 0.8-0.9 9.2-7.3 0.9-0.4 0.1 1.2-0.9 8.2-2.8 4.7-5.6 5.1-4.6 6.4-2.9 8.2-0.1 5.5 2.6 7.9 3.9 8.2 3.3 5.9 2.6 7.9 2.6 3.8 8.5 1.5 5.2-2.3 4.8-0.2 8.2 1.1 7.5-0.5 3.4-0.9 4.4 4.2 0.5 6.1 1.2 7.5 2.9 5.9 1.9 17.7z" id="LBY2984" name="Benghazi" data-id="LBY2984" data-name="Benghazi">
 </path>
 <path d="M598.6 209l-1.8 12.8-2.2 14.1-0.8 12.2 1.3 12.1-2.2 10.7-7.5 10.8-4.1 14.7-0.9 20.8 0 26.8 0 1.2-7.2-2.3-10.1-2.7-8.6-6.1-6.7-6.7-2.6-10-2.6-8.1-5.4-6.7-5.3-6-2.7-6.7-1.3-5.4-5.3-4.7-4.8 0-4.7 2.7-6 5.4-6.1-2-9.4-2.7-6.7-6-8.1-0.6-6.7 2.7-12.1 0.8-7.4-2-1.1 0.7 5.8-8.8 1.3-7.4-2.1-9.4-2-11.5-5.5-14.8-4.8-13.4-2-13.5-2.8-14.2-4.2-15.6-2.7-10.8-0.1-12.3 1.1-2.6 0.3-0.7 13.9 2.5 23.3 0.2 13.4 3 13.8 4.7 10.7 2.4 2.2 0 0.6 0.3 0.4 0.3 2.3 1.2 1.8 1.7 0.7 0.4 0.5 0.3 9.3 2.7 4.9 2.4 5.3 1.8 4.5 0.9 0.9 0.7 1.7 2.6 1.1 1.1 1.3 0.6 5.6 1.3 10 3.8 2.1 1.2 1.7 1.6 5.6 6.6 15.3 11.5 3.5 3.9 1.8 1.7 4.2 2.3 2.6 0.5 1.2 0.6 0.6 0.4z" id="LBY2985" name="Surt" data-id="LBY2985" data-name="Surt">
 </path>
 <path d="M879.2 73.1l-0.1 0.5-2 6.5-3.1 8.8-3.2 11.6-0.8 13.3-2.1 11.5-5.4 8-1.8 12.5-0.1 11.2 0.8 5.5 0 15.2-5 0.4-6.2 0.2-6.3-1.9-4.4-0.9-6.8-4.7-3.5-7.3-7.6-6.9-4.8-4.3-9.2 1.9-12.3-12 2-7.7 1.2-5.5 0-11.9 1.5-4 0.5-8.2-0.1-7.5 0.4-12-1.5-6.9-0.2-6.5-1.1-6.5 1.1-2.4 0.8-5.5 1.9-5.4 0.8-4.1-0.5-5.5-2-4.2-1.5-5.5 0.5-6.2 0.2-4.7 0.3-0.9 7-0.7 0.3-0.3 0.6-1.1 0.4-0.2 1.3-0.3 0.7 0 0.8 0.3 0.5 0.4 0.1 0.4 0 0.5 0.2 0.8 2 2.1 2.6 0.5 5.8-0.1 2.5 0.9 6.1 4.8 1.3 0.7 1 0.5 1.2 0.2 2.9 0.2 14.7 4.5 3.4 2.3 1.1 0.3 0.7 0.2 2.1 0.8 0.9 0.1 2.1-0.1 1.5 0.5 2.6 1.3 2.8 0.5 1.3 0.5 0.8 0.8 0.1 1-0.4 0.8-1 1.3-0.3 0.7 0.6 4.6 0.6 1.1 1 1 1.3 0.7-0.5 1.5-0.8 4.7-1.3-0.5 0.3-0.7-0.2-0.7-0.4-0.5-0.6-0.7-0.9 6.2 0.1 1.5 0.9 0.8 3.8 1.4 1.5 0.3 1 0.6 1.2 1.5 1 1.6 0.8 2.2 0.5 0.3z" id="LBY2986" name="Al Qubbah" data-id="LBY2986" data-name="Al Qubbah">
 </path>
 <path d="M988 372.9l-1.3-0.2-29.8-0.7-29.9-0.7-59.7-1.4-0.1-47.1-0.1-47.3 0-47.7-0.1-48-5.3-2.1-0.3 0 0-15.2-0.8-5.5 0.1-11.2 1.8-12.5 5.4-8 2.1-11.5 0.8-13.3 3.2-11.6 3.1-8.8 2-6.5 0.1-0.5 0.4 0.2 1 0.3 0.7 0.5 0.5 0.8 0.6 1.6 0.6 0.6-0.1-1.2-0.7-3.4 1.2 0.5 2.8 0.1 0.5 0.2 1.8 1.5 0.4 0.2 7.9 0.7 8.7-0.1 10.7 2.5 10 4.1-1.5 1.5-0.3 0.6 0.6 0.3 1.6 0.7 4 3.1 1.4 0.4 12-0.2 16.6 1.2 5.7-1.7 1.4-1 0.7-0.3 2.6 0.5 0.5-0.1 0.5-0.3 0.4-0.2 0.5 0.3 0.3 0.3 0.8 0.4 0.8 0.3 1.3 0.6 2 0.4 2.6 1 7.3 1.6 2.3 1.4 1 2.4-0.6 2.9-0.1 1.7 0.4 1.3 2.2 2.4 3.3 4.9 0.4 1.3 0.9 2.1 1.2 2.1-0.2 0.3-0.1 0.2-4 3.2-1.7 2.5-2.3 6.3-10.3 8.4-0.7 2.3 0 2.7 0.6 6.2 0 6.1 1.5 7.8 0.4 1.5 2.2 4.5 0.9 3.8 2.7 5.9 0.9 2.9-0.4 2.6-1 2.5-0.8 2.9-0.6 4-1.9 5-0.2 1.5-0.6 2.5-1.3 2.5-3.6 5.6-1.9 1.9-1.7 2.2-0.6 1-1.1 2.5-2.6 4.7-1 2.6 0 2.8 0.5 1.6 1.8 3.2 5.4 13.6 0.3 1.6-0.1 1.5-1 3.8 0.4 3 3.2 5.4 0.9 3 0 1.8-0.5 5.2 0.1 2.8 0.6 2.5 5.2 12.7 1.2 3.9 0.4 4.1 0 77.7z" id="LBY2987" name="Al Butnan" data-id="LBY2987" data-name="Al Butnan">
 </path>
 <path d="M296.4 441.6l2.4 2.8 1.5 7.2-0.5 9.3 2.7 5.2 3.4 3.9 0.7 3.9-3.8 8-7.1 6.8-2.5 7.9 0.1 7.1-16.7 6.2-11.8 2.9-4.5 4-6.4 8.1-6.5 4.8-15 1-10.5 3.6-5.8 2.2-5.2 4.1-7.8 0.9-8.6-1.7-6.4 5.4-6.4 5.5-7.2 0.9-11.8 1-5.3-1.7-11.3-5.5-12.2 7-4.1-6-1.9-7.8 0.7-13.4 2.4-10.5 1.3-8.9 8.4-5.6 14.8-9.7 16.8-11.8 18.8-13.2 16.9-13.1 12.3-9.6 15-9.7 11.2-3 10 1.7 17.3 5.5 22.6 4.3z" id="LBY5488" name="Wadi al Hayaa" data-id="LBY5488" data-name="Wadi al Hayaa">
 </path>
 <circle cx="216.6" cy="31.1" id="0">
 </circle>
 <circle cx="235.8" cy="76.4" id="1">
 </circle>
 <circle cx="71" cy="222.7" id="2">
 </circle>
</svg>