<?xml version="1.0"?>
<!--
************* Copyright (c) 2017 Pareto Softare, LLC DBA Simplemaps.com *******************		
************* Free for Commercial Use, full terms at  http://simplemaps.com/resources/svg-license ************
************* Attribution is appreciated! http://simplemaps.com ***************************
-->
<svg baseprofile="tiny" fill="#7c7c7c" height="1262" stroke="#ffffff" stroke-linecap="round" stroke-linejoin="round" stroke-width="2" version="1.2" viewbox="0 0 1000 1262" width="1000" xmlns="http://www.w3.org/2000/svg">
 <path d="M181.1 47.1l0.5 1.4 4.5 18.8 11.9 12.1-5 9 2.1 13.9-7.3 6.7-9.3 0.7-8.2 3.5-8.2-4.6-3.2-8-6.7-1-6.9 7.1-1.1 12.6-1.7 12.1-6.1 7.6-4.2 11.5-6.5 5.9-2.5 0.4-1.5-2.5-5-3.3-3.6 2.9-5.3-1.8-7.8-4.7 0-2.6 5.6-0.4 3.3-3.2 0-3.7-9.9-3.7-2.1-4.5-1.4-5-3.5-3.1-2.6 2.5-3.2 4.7-2.8 1.5-1.1-7.2-1.8-3.2-12-12.3-3.1 1.9-6.5-8.2-4.8-2.5-11.7 2.4-5.6-1.2-3.1-6.5-3 4.7-3.1-0.7-6.5-5.7-6.5 0.2-13.6 6.5 0.2-3.5 1.9-6.7 3.1-5.1 9.3-5.9 1.4-5.6 1.7-3.6 5.6 2.2 3.8 4.3 3 5.3 3.5 4.6 5.3 2.4 5.6-0.4 3.3-3 1.2-5.5-0.2-8.1-1.5-8.2-1.7-5.1-0.2-3.9 3-4.2 1.6-0.1 4.7 1.9 1.9 0.1 2.5-2.6 1.8-5.8 3.1-1.1 9.4 4.2 9.3 8 9.8 6 10.8-1.9 2.7-2.8 3.9 1.5 3.2-0.3 3.4 0.7 1.5-1-1.3-4.5-0.1-4.6-0.8-3.6 0.3-3.1 3.2-1.1 3 0.9 5.9 3.7 30.4 11.6 9.3 0.5 10.7-5.6 1.6-2z" id="MDA1613" name="Briceni" data-id="MDA1613" data-name="Briceni">
 </path>
 <path d="M394.5 69.6l3.7 18.2-0.1 18.2-12 5.3-6.2 13.9-10.1 2.4-9.3-5.8-8.7-2.4-0.4 8.2 6.8 3.3 0.7 6.6 1.1 5.1 2.9 3.1-0.6 6.8-10.1 2.1-11.2-1.8-11.2 2.1-4.7 6.2-1.6 7.9-5.4 3.4-4.9 4.5 0.1 4.7 1.6 4.1-4.1 1.9-5.8-2.4-11.8-7.3-12-2.9-7.2-11.5-9.3-6.3-4.6-11.7 7-11.9 2-4.4-2.5-5.9-12.2-15.9 3.8-7.4 6.1-17.6 5.3-7.7 3.3-11 4.7-7.3 17.6 3.5 14-3.4 30 2.6 15-7.4 6.8-4.6 3.2 4.8 2.2 2 6.3 9.9 11.5 4.5 10.3 1.3z" id="MDA1614" name="Donduseni" data-id="MDA1614" data-name="Donduseni">
 </path>
 <path d="M254.4 107.4l12.2 15.9 2.5 5.9-2 4.4-7 11.9 4.6 11.7 0.3 10.4 2.5 10.9 0.3 4.1-22.7 16.9-11.2 4-6.3 0-6-0.6-4.9 4-7.2-3.4-5.1-7.8-8.5 2.5-7.4 8.9-4.4 12.3-5.8 9.3-7.9 3.2-10.2 1.1-7.8-6.7 3.4-3 2-3.8-0.3-3.9-3.3-3.8-3.8 2.2-2.6-5.8-3.8-5.4-7.3 3.2-1.9-6 5.8-2.7 0-3.1-7.4-4.4-6.9-6.1-4.9-8.1-2.1-10.5 0.7-2.3 3-3.9 0.2-2.1 2.5-0.4 6.5-5.9 4.2-11.5 6.1-7.6 1.7-12.1 1.1-12.6 6.9-7.1 6.7 1 3.2 8 8.2 4.6 8.2-3.5 9.3-0.7 7.3-6.7-2.1-13.9 5-9 26.1 23.6 30.3 4.4z" id="MDA1615" name="Edineţ" data-id="MDA1615" data-name="Edineţ">
 </path>
 <path d="M361 47.1l-6.8 4.6-15 7.4-30-2.6-14 3.4-17.6-3.5-4.7 7.3-3.3 11-5.3 7.7-6.1 17.6-3.8 7.4-30.3-4.4-26.1-23.6-11.9-12.1-4.5-18.8-0.5-1.4 15.3-19.4 10.3-5.3 5.5 1.4 8.1 7.6 3.8 1.5 4.8-2.4 17.2-14.7 6.5-8.9 11.8 0 3.4-0.9 7.3-5 6.2 0.8 0.6 11.3 5.7 2.8 35.5-0.3 9.5 4.5 18.3 13.6 4.3 4.6 5.8 8.8z" id="MDA1616" name="Ocniţa" data-id="MDA1616" data-name="Ocniţa">
 </path>
 <path d="M305 185.2l-1.3 14.5-2.4 3-0.5 3.6 1.5 4.1 0.3 4.5-2.2 6.7 3.6 6.9 5.2 4.3 10.3 5.7 9.2-5 6.8-9.1 8.5-0.5 17.9 22.7 6 4.6 0.9 7.8 2.5 11.6 8.3 2.2 0.6 13.5-14.6 7.5-15.1 5.9-9.3-4.3-15-17.6-9.8-0.7-8.4 4.9-9.6 1-26-15.1-13-3.2-12.5 1.2-8 9.1-9.6-0.7-11.5 2.8-9.5 11.6-1.5 8.3-2.5 7.7-4.7 4.3-5.1 3.6-3.1 1.4-1.6-2.1-5.1-3.7-5.6-11.9-3.9-6.1-3.4-2.9 9.7-6-2.2-3.6-6.5-2.6-2.9-2.2 0.2-2.6-0.5-13.1 0.3-1.9-5.2-6.2-6.4-3.6-3.1-3.9 5-6.9 0-1.7 10.2-1.1 7.9-3.2 5.8-9.3 4.4-12.3 7.4-8.9 8.5-2.5 5.1 7.8 7.2 3.4 4.9-4 6 0.6 6.3 0 11.2-4 22.7-16.9-0.3-4.1-2.5-10.9-0.3-10.4 9.3 6.3 7.2 11.5 12 2.9 11.8 7.3z" id="MDA1617" name="Rîşcani" data-id="MDA1617" data-name="Rîşcani">
 </path>
 <path d="M383.5 320.1l-17.1-1-12.6-5.1-0.4-7.9-2.9-6.4 15.1-5.9 14.6-7.5 6.8 11.6 10.4-1.9 8.8 4.7 1.6 16.2 1.3 5.1-2.6 5.1-4.5 4.3-5.3 0.1-5.3-12.1-7.9 0.7z" id="MDA1618" name="Bălţi" data-id="MDA1618" data-name="Bălţi">
 </path>
 <path d="M379.9 125.2l31 20.6 10.8 13.3 3.4 18.1-5.9 4.9-7.4 3.5-7.4 13.8-3.1 7.1 11.8 8.2-1.1 10.1 2.6 9.9 1.9 3 0.7 4-4.2 8.7-18.3 20-7.7 0.1-7.4 2.3-8.3-2.2-2.5-11.6-0.9-7.8-6-4.6-17.9-22.7-8.5 0.5-6.8 9.1-9.2 5-10.3-5.7-5.2-4.3-3.6-6.9 2.2-6.7-0.3-4.5-1.5-4.1 0.5-3.6 2.4-3 1.3-14.5 5.8 2.4 4.1-1.9-1.6-4.1-0.1-4.7 4.9-4.5 5.4-3.4 1.6-7.9 4.7-6.2 11.2-2.1 11.2 1.8 10.1-2.1 0.6-6.8-2.9-3.1-1.1-5.1-0.7-6.6-6.8-3.3 0.4-8.2 8.7 2.4 9.3 5.8 10.1-2.4z" id="MDA1619" name="Drochia" data-id="MDA1619" data-name="Drochia">
 </path>
 <path d="M353.8 314l12.6 5.1 17.1 1-5.3 12.2-1.2 13.3 17.2 1.2 4.2 22.7-0.4 8.2-7.3 2.5-3.8 4.1-3.4 5.6-9.5 7-0.7 10 9 4.4 7.8-0.1 5.1 7.2-2.3 10-6.2 6.9-6.9-2.1-7 0.5-3.6 2.5 0.4 9.7-3.7 2.3-19.7 2.3-19.1-0.4-18.7 3.3-5.1 6.8-16.9 6.6-9.7 8.6-4.6-3.2 2.3-13-5.1-4.4 1.9-9.3 1.6-3.2 2.3-1.8-2-4.1-3.6-3.4-4.3-2.5-4.3-1.3-7.3-0.2-4.2-2.8-2.5-0.4-3-2.6-1.8-6.2-2.1-11.3-3.8-0.7-1.7-2.5 0.1-3.9-3.1-11.8 17.7-16 19.9-9.3 11.1 0.8 10.5-3.6 3.8-11.2 3.8-3.2 3.4-3.7 7.1-12.9 4.4-0.5 4.5 2.3 8.3-4.8 6.7-8.8 2.8-10.1 4.8-1.5 6 6.9 7.5 2.8z" id="MDA1620" name="Făleşti" data-id="MDA1620" data-name="Făleşti">
 </path>
 <path d="M350.5 299.7l2.9 6.4 0.4 7.9-7.5-2.8-6-6.9-4.8 1.5-2.8 10.1-6.7 8.8-8.3 4.8-4.5-2.3-4.4 0.5-7.1 12.9-3.4 3.7-3.8 3.2-3.8 11.2-10.5 3.6-11.1-0.8-19.9 9.3-17.7 16-0.3-1.2-8.9-3.4-7.9-8.1-18.5-24.5-6.5-11.2-2.6-9.3 6.5-1.3 0-2.7-1.5-3.1 0.4-4.5-0.8-3.5 3.1-1.4 5.1-3.6 4.7-4.3 2.5-7.7 1.5-8.3 9.5-11.6 11.5-2.8 9.6 0.7 8-9.1 12.5-1.2 13 3.2 26 15.1 9.6-1 8.4-4.9 9.8 0.7 15 17.6 9.3 4.3z" id="MDA1621" name="Glodeni" data-id="MDA1621" data-name="Glodeni">
 </path>
 <path d="M508.7 340.5l0.6 12.6 2.6 12.1-1.1 8.1-6.7 1.1-4 2.5-3.2 4.9-2.4 9-9.9 2.1-27.1-3.2-15.4 7.4-2.9 8.4 3 8.9-0.7 12.7-5 10.3-13.2-0.9-11 6.6-5.1 1.3-5.5-6.3-15-2.8 6.2-6.9 2.3-10-5.1-7.2-7.8 0.1-9-4.4 0.7-10 9.5-7 3.4-5.6 3.8-4.1 7.3-2.5 0.4-8.2-4.2-22.7-17.2-1.2 1.2-13.3 5.3-12.2 7.9-0.7 5.3 12.1 5.3-0.1 4.5-4.3 2.6-5.1-1.3-5.1-1.6-16.2-8.8-4.7-10.4 1.9-6.8-11.6-0.6-13.5 7.4-2.3 7.7-0.1 18.3-20 4.7 4.6 4.1 5.1 1 5.6 1.6 4.5 6.6 1.8 2 9.7 5.3-0.4 7.3-2.4 5.2 10.9 5.3 8.6 10.4 0.7 9.6 2.1-3.9 11.4-0.5 9 21.6 4 8 6.9 7.4 8z" id="MDA1622" name="Sîngerei" data-id="MDA1622" data-name="Sîngerei">
 </path>
 <path d="M386.7 435.3l15 2.8 5.5 6.3 5.1-1.3 11-6.6 13.2 0.9 10.3 8.9 10.9 7.3-0.3 11-5 6.1-7.4 2.3-16.2 13.6-10.6 5.4 8.3 11.1 11.9 3.2-10 5.9-9 12-9.7 3.8-8.3 0.4-7.7 1.7-6.5 19-2.4 21.8 2.1 9.1 4.4 5.2 4.4 1.9 0.8 5.6 0.2 5.7 2.8 8.9 7.4 1 5.1 3.2-3.8 7.3-3.8 3.8-2.9-7.3-5.6 2.8-6.1-2.9-6.7-4.2-6.9-1.4-0.1-6-3.6-3.2-8-5.3-8.7-9.7-6.6-4.1 1.7-3 0-2.9-12.3-6.7-3.4-4.7 3.2-1 0.5-1.8-2-6-3.5-11.4-7.1-9.3-3.1-5.2 0.4-5.3-5.8-10.1-3-3.2-7.1-1.8-7.4-5.2-7.7-1.7-2.2-1.1-3.6-6.2-6.9-16.5-3.2-2.8 9.7-8.6 16.9-6.6 5.1-6.8 18.7-3.3 19.1 0.4 19.7-2.3 3.7-2.3-0.4-9.7 3.6-2.5 7-0.5 6.9 2.1z" id="MDA1623" name="Ungheni" data-id="MDA1623" data-name="Ungheni">
 </path>
 <path d="M518.7 1002.2l1.9 3.4 3.2 0.3-1.8 15.5-3.8 15.9-0.3 13.1 2.2 12.3 3.9 4.5 2.5 5.8-3.2 6.6-5.4 3.4-8.7 3.1-4.4 10.7-3.3 11.9-15.4 18.2-6.8 12.7-1.5 20.6 11.6 16.1 18 3.3 16.8-14 7.9-10.3 3.6-13-0.4-12 4.5-7.8 7.3 10.4 2.7 16.1 3.8 0.8 1.2 4.5-1.8 3.2-8.2 2.7-4.9 3.3-3.1 3.3-6.6 9.9-2 4.7 2.5 2.9 4.5 2.6 3.6 3.8 1.6 5.7 0.5 5.7 1.2 5.6 4 5.4-7.6 3.6-1.9 2-0.7-0.3-21.4-0.2-21-8.8-20.3 1.5-2.5 21.6-0.3 4.3-15.1 11.4-2.5 4.8-2 5.1-0.6 2.9-7.5-9.2-2-4.1-0.2-13.7-6.9-12.9-6.5-5.1-15.9-8.5 3.6-4.5 4.7-4.6 4.7-3.4 3.7-1.3 9.3 0.1 4.1-2.1-1.8-5.2 0.6-6.6-2.5-40.8-2.4-3.8-5-9.7-4.5-12.4-0.7-11.8 1.2-2.2 3.8-2.7 0.8-2.1-3.1-6.7-0.8-3 0.4-3.2 1.8-6.3-2.9-6-1.2-7-7-20.5-0.9-5.8 0.5-4.1 3.5-14.3-0.1-2.2-1.7-1.2 0.6-4.3 2.3-1.5 2.8-8 12.5 4.5 13.4 0.7 10.8 5.2 4.4-5.3 3.1-6.8 11.3-0.3 11.1 8.5 13.7 0.3 13.4-4.9z" id="MDA1624" name="Cahul" data-id="MDA1624" data-name="Cahul">
 </path>
 <path d="M553.6 1149.8l-3.8-0.8-2.7-16.1-7.3-10.4-9.2-7.7-11.4-1.9-6.5-9.5-7.9-6.6 4.4-10.7 8.7-3.1 5.4-3.4 3.2-6.6-2.5-5.8-3.9-4.5-2.2-12.3 0.3-13.1 3.8-15.9 1.8-15.5 10.9-0.4 10.7 3 10.4 7 8.4 8.8-3.8 6.8 0.8 5.8 1.9 5.4 7.2 13.2 11.6-0.4 46.9-17.2 16.8-27.4 8.2-36.9 13.2-12.8 6.1-9.6 7.3 6.9 1.6 9-3.4 9.7-6.4 11-9.8 11-2.2 6.5 0.7 10.1 5 17.9-0.6 8-7 3.4-49.6 13.1-4.9 3.2-3.1 6-0.2 6.8 3.9 14.1 1.2 6.9-0.4 8.2-1.9 5.2-3.7 3.6-5.4 3.1-8.3 1.9-2.1 1.8-0.1 2.4 1.1 7.9-1 3.9-7.4 4.4-19 1.9-4.6 7.6 0.8 3.1z" id="MDA1625" name="Taraclia" data-id="MDA1625" data-name="Taraclia">
 </path>
 <path d="M470.4 1236.8l0.3-4.3 2.5-21.6 20.3-1.5 21 8.8 21.4 0.2 0.7 0.3-1.5 3 0.5 1.7 1.8 13.8-1.2 4.8-6 2.7-18.2-0.7-21.3-5.6-20.3-1.6z m34.4-140l7.9 6.6 6.5 9.5 11.4 1.9 9.2 7.7-4.5 7.8 0.4 12-3.6 13-7.9 10.3-16.8 14-18-3.3-11.6-16.1 1.5-20.6 6.8-12.7 15.4-18.2 3.3-11.9z m149-123.2l-8.2 36.9-16.8 27.4-46.9 17.2-11.6 0.4-7.2-13.2-1.9-5.4-0.8-5.8 3.8-6.8-8.4-8.8-10.4-7-10.7-3-10.9 0.4-3.2-0.3-1.9-3.4 1.6-8.1-0.9-7.7-3.9-6.5 4-7.1 8.2-7.3 7.4-8.9 1-11.7-2.4-12.4 2.3-12.6 3.2-11.9-0.6-8.9-12.8-9.7-1.9-7.5 5.2-6.5-1.4-8.6 19-15.5 1.9-4.5 4-0.5 4.4-4.1 2.9-6.9 12.7 9.9 25.8 16 12 9.3-1.4 15.5-4.2 14.3-7.9 7-3.2 11.6 6.1 0.2 3.4-9.8 6.5 0.9 4.1 8 8.1 2.2 2.8 9.6-0.9 4.7-0.4 5.1 4.4 5.9 6 2.5 10.8-3 8.8 7.2-1.2 11.2 1.6 10z" id="MDA1626" name="Comrat" data-id="MDA1626" data-name="Comrat">
 </path>
 <path d="M632.9 589.3l7.1 9.6 10.3 0.7 12.9 18.2 3-5.6 2.1-7.9 4.2 6.7-2.2 13.7-11.5 5.8-7.3 14.7-27.7-9.4-4.9 0-4.5-1.8 0.8-4.6 2.7-4.2-0.7-11-4.4-7.3-10.3-4.3-20.7-19.5-0.3-12.2 13.6 8 12.3 14 13 2.5 12.5-6.1z" id="MDA1627" name="Chişinău" data-id="MDA1627" data-name="Chişinău">
 </path>
 <path d="M782.9 501.8l-5.3 7.3 1 9.9-2.4 4.8-3.2 3.8-9.4 8.8-7.4 10.7 6.3 24.4-1.9 0.9-0.4-2-3.7-0.8-4-2.4-4-4.3-3.7-1.7-2.8 5.6-1.8 0-2.2-3.7-3.5-2.1-3.6 0.1-2.5 2.8 0.2 4.5 2.3 4.4 1.7 4.6-1.3 5-2.8 1-3.5-1.4-3.1-0.4-2.3 7.2-5.1 6.1-1.6 3.2-7.3-7.5-4-2.8-4.4-1.1 2.7-6.4 4.4-7.5 5.1-6.3 9.2-5.4 5.3-12.2 4.5-2.1-4.4-14.1 7.4-13.3-4.2-11.6-11.7 4.6-2.3 2.1 7.3 12.3-11.6 4.7-10.4-5.3 0.9-9.9-1.6-10.9-14-15.6-5.3-7.5-6.1-5.2 5-5.5 2.6-8.3 4.8-1.9 7.4 4.4 4-4.9 4.8-1.9 2.2-12.9 4.8-7.1 1-4.1-0.7-2.3 5.3 1.6 2.6-5.8 0.4-2 0.8 1.7 4.4 12.6 2.3 4.5 5.2 4 2.9-2.5 2.7-4.5 4.7-2.1 4.1 2.2 5.1 8.8 8.7 5.8 2 4.5 1.2 5 2.3 4.5 4 2.3 4.4 0.9 4.4 2 3.7 5.5 1.5 6.6 0.1 6.1 0.9 5.9 0.9 1.6z" id="MDA1628" name="Stîngă Nistrului" data-id="MDA1628" data-name="Stîngă Nistrului">
 </path>
 <path d="M808.7 649.4l2.6 3.9 0.9 7.7 0 10 0.6 3.9-1.2 5.2-8.7 7.5 2.6 14.6-7.4 1.7-7.2 0.4-6.1-1-6.1 1.7-7.8 12.4-4-0.4-3.6-3.6-1.9 4.9-1.2 9.2-7.3-0.7-7.6 0.3-6.1-7.6-6.7 6-5.8-2.6-1.5-10.7-17.8-4.8-3.3-3.9 0.6-4 1.8-6-3.9-2.9-10.9-3.3-1.9-9 4.3-5.8 1-7.9-5.8-5.1-7.2-1.6-6.6-2.7-6.1-1.6-3.3 3.7-2.6 5.1-7.9-3.8-4.1-13.4 7.3-14.7 11.5-5.8 4.9 1.1 4.7 0.1 5.6-9.6 8.2-5 8.5 2.1 8.1 21.1 9.4-1.8 9.5-3.8 8 5.9 8.7 4.1 4-7.7-1.5-11.9-0.1-17.2 1.3-16.9 4.6-9.9 6.4-2.9-0.4 2.9 1.2 2.9 2.7 2.3 7 3.4 12 12.3 1.7 3.3 1.3 12.1-0.4 5.4-3-1.8-1.8 0 1.5 6.3 1.2 2.7-0.2 3.1-1.7 0.5-7.3 4.6-4.6 1.5-4.5 0-3.9-1.6 2.3 7.2 3.6 6.7 4.6 5.6 5 3.5 7.4 0.7 6-3.1 5.4-4.1 5.6-2.1 6.8 1.8 0.6 0.9z" id="MDA1629" name="Anenii Noi" data-id="MDA1629" data-name="Anenii Noi">
 </path>
 <path d="M693.5 836.9l-10.1 3.8-21.2 14.4-5.8 9-1.7 11.6 2.2 15.1 5 19.5 0.3 6.5-1.7 7.4-2 5.9 0.2 5.6 4.9 6.5 9.5 9-6.1 9.6-13.2 12.8-1.6-10 1.2-11.2-8.8-7.2-10.8 3-6-2.5-4.4-5.9 0.4-5.1 0.9-4.7-2.8-9.6-8.1-2.2-4.1-8-6.5-0.9-3.4 9.8-6.1-0.2 3.2-11.6 7.9-7 4.2-14.3 1.4-15.5 9.6-1.7 3.5-6.5-0.2-11.4 8.4-5.7 6-0.8 4.2-5.3 2.7-6.5 9.6-8.4 3.9-6.7 6-3.8 6.3-1.2 20.2 1 5.3 3.9-2.4 19.5z" id="MDA1630" name="Basarabeasca" data-id="MDA1630" data-name="Basarabeasca">
 </path>
 <path d="M527.7 866.8l1.4 8.6-5.2 6.5 1.9 7.5 12.8 9.7 0.6 8.9-3.2 11.9-2.3 12.6 2.4 12.4-1 11.7-7.4 8.9-8.2 7.3-4 7.1 3.9 6.5 0.9 7.7-1.6 8.1-13.4 4.9-13.7-0.3-11.1-8.5-11.3 0.3-3.1 6.8-4.4 5.3-10.8-5.2-13.4-0.7-12.5-4.5 4.7-13.8 1.7-10.2 3.3-9.5-0.9-3.6-3.5-5.2-5.2-8.6-0.6-3.5 6.6-2.4 0.7-2.2-1-7 1.2-2.9 8.6-3.9 3.5-3.3 4.2-10-0.2-5-1.2-8.4 0.7-3 3.4-1.2 1.4-1.7 1.6-12.6 4-2.8 0.7 0.9 5.6 1.9 5.2-3.4 3.8-6.2 6-2 5.3-2.8 4.9 1.3 0.2 8.6 10.8 4.5 9.6-8.1 1.3-7.5 4.1-3.5 6.1 1 6.1 2.6z" id="MDA1631" name="Cantemir" data-id="MDA1631" data-name="Cantemir">
 </path>
 <path d="M541.5 454.4l3.4 15.6 15.7 10.2-2.4 10.1-5.4 4-12.8 1.5-17 15.6 2.5 6.1 4.6 5.2 1.3 10.4-5.4 6.8-14.3 13.3-7.2 3.4-13.7 1.3-4.4 5.6-7.9-0.3-7.9-1.8-7.8-4.7-8-2.8-18.9-11.4-16.5-18.3 9-12 10-5.9-11.9-3.2-8.3-11.1 10.6-5.4 16.2-13.6 7.4-2.3 5-6.1 0.3-11 11.2-6.1 11.8 8.2 4.5 0.9 4.6-0.1 7.8-3.2 2.6 0.1 3 1.9 10-2.6 10-6.7 10.2-1.3 8.1 9.7z" id="MDA1632" name="Calarasi" data-id="MDA1632" data-name="Calarasi">
 </path>
 <path d="M669.4 710.7l5.1 25.4 8.7 20 15 23.7 15 5.5 12 10.6 4.3 13.9 0.1 10.9-5.8 0-24.9 14.2-5.4 2 2.4-19.5-5.3-3.9-20.2-1-6.3 1.2-6 3.8-3.9 6.7-9.6 8.4-2.7 6.5-4.2 5.3-6 0.8-8.4 5.7 0.2 11.4-3.5 6.5-9.6 1.7-12-9.3-25.8-16-12.7-9.9 0.8-12.2-2.7-10-1.6-4.6 4-5.8 0-6.3 0.7-5.9 2.1-4.4 1.5-4.7-4.6-5.7-0.7-9 6.6-12.8 4-18.4 8.1-3.6 7.2-6 7.9-5.2 8.4-2.7-1.4-8 2.3-7.5 12.6 11.5 12.9 0.4 6.8-0.6 6.8 1.1 4.8-4.6 4.8-3.1 9.3 8.3 3.7 1.2 5.2-6z" id="MDA1633" name="Cimişlia" data-id="MDA1633" data-name="Cimişlia">
 </path>
 <path d="M720.5 526.8l3.5 5.9 4.4 14.1-4.5 2.1-5.3 12.2-9.2 5.4-5.1 6.3-4.4 7.5-2.7 6.4 4.4 1.1 4 2.8 7.3 7.5 1.6-3.2 5.1-6.1 2.3-7.2 3.1 0.4 3.5 1.4 2.8-1 1.3-5-1.7-4.6-2.3-4.4-0.2-4.5 2.5-2.8 3.6-0.1 3.5 2.1 2.2 3.7 1.8 0 2.8-5.6 3.7 1.7 4 4.3 4 2.4 3.7 0.8 0.4 2-6.4 2.9-4.6 9.9-1.3 16.9 0.1 17.2 1.5 11.9-4 7.7-8.7-4.1-8-5.9-9.5 3.8-9.4 1.8-8.1-21.1-8.5-2.1-8.2 5-5.6 9.6-4.7-0.1-4.9-1.1 2.2-13.7-4.2-6.7-2.1 7.9-3 5.6-12.9-18.2-10.3-0.7-7.1-9.6-6.7-10.8-9.7-7.3-1.7-12.6 3.1-14.1 4.6-3.3-1.2-11.9 7.2-10.9 10.9 1.8 11.6-6.4 10.8-9.6 12-4.5 10-9.9 14 15.6 1.6 10.9-0.9 9.9 10.4 5.3 11.6-4.7z" id="MDA1634" name="Criuleni" data-id="MDA1634" data-name="Criuleni">
 </path>
 <path d="M526.1 209.6l8.5 4 2.5 12.3-2.6 18.4-5.2 11.4-14.3 17.9 3.3 17.1 2.3-2.1 2.1-2.9 4.2 1 4.2 3.6 10 5.5 4.2 16.1-8.3 15-8.4 12.2-4.8-2.7-4.9-3.6-5.7 2.7-4.5 5-7.4-8-8-6.9-21.6-4 0.5-9 3.9-11.4-9.6-2.1-10.4-0.7-5.3-8.6-5.2-10.9-7.3 2.4-5.3 0.4-2-9.7-6.6-1.8-1.6-4.5-1-5.6-4.1-5.1-4.7-4.6 4.2-8.7-0.7-4-1.9-3-2.6-9.9 1.1-10.1 19.5-3.4 19.9 0 9.5 1 9.1-2.1 4-8.2 5 2.1 5 3.4 13.5 5.6 5.5-1.7 5.5-3 8.2 5.6 8.3-4.4z" id="MDA1635" name="Floreşti" data-id="MDA1635" data-name="Floreşti">
 </path>
 <path d="M836.8 645.2l-23.3 0.7-4.8 3.5-0.6-0.9-6.8-1.8-5.6 2.1-5.4 4.1-6 3.1-7.4-0.7-5-3.5-4.6-5.6-3.6-6.7-2.3-7.2 3.9 1.6 4.5 0 4.6-1.5 7.3-4.6 1.7-0.5 0.2-3.1-1.2-2.7-1.5-6.3 1.8 0 3 1.8 0.4-5.4-1.3-12.1-1.7-3.3-12-12.3-7-3.4-2.7-2.3-1.2-2.9 0.4-2.9 1.9-0.9-6.3-24.4 7.4-10.7 9.4-8.8 3.2-3.8 2.4-4.8-1-9.9 5.3-7.3 2.9 4.8 3.8 3.5 4.3 2.1 4.6 0.4 4.6-1.4 4.9-4.8 2-5.8 1.3-6.4 2.9-6.6 5.7-0.6 5.7 0.4 5.3 1.9 4.8 4.3 3.8 7.2 2.6 9.8 0.3 9.7-3.3 7.2-7 3.7-1 9.1 2.9 21.9-1.7 10.3-4.1 4.9-6.1 1.8-7.9 0.8-0.9 2.5 0.9 2.6 8.7 16.4 2.4 2.6 3.1-2.6 2.5-5.4 3.3-4.7 5.3-0.5 3.8 2.6 3.3 4.4 2 5.7 0.3 6.4-2.2 5.6-3.4 3.9-3.1 4.6-2.1 15.6-1.3 5.5z" id="MDA1637" name="Grigoriopol" data-id="MDA1637" data-name="Grigoriopol">
 </path>
 <path d="M724 532.7l-3.5-5.9-7.3-12.3 2.3-2.1 11.7-4.6 4.2 11.6-7.4 13.3z" id="MDA1638" name="Transnistria" data-id="MDA1638" data-name="Transnistria">
 </path>
 <path d="M602.5 702.5l-2.3 7.5 1.4 8-8.4 2.7-7.9 5.2-7.2 6-8.1 3.6-4 18.4-6.6 12.8-2.1-16.3-9.6-4-11 7.1-10 2.2-9.4-9-10.5-2.7-3.3 10.6-4.4 0.3-3.4 2.7 5.7 7.9-1 8 0.6 4.4 2.2 5.1-2.7 3.4-14.5 3.5-6.3-3.2-2.4-9-9.1 2.3-5 2.1-3.1-12.8-15.9-32.1 0-7.8-11.5-19.8-4.6-11.6 0.8-8.3 0-3.1-3.2-4.1 0.3-4.9-0.2-4.8-4.7-3.2 2.4-6.3-0.1-1 2.5 0.7 31.1 5.4 9.3-14.9 12.8-13.1 7-1.7 5-7.1-2-6.2-2.8-5.6 4.5-8.4 14.9 20.4 3.8 8.2-2.9 11.6 7.4 3.9 11.2-16.5 7.9-17.1-8.5-6.3 3-4.4 4.2-2.6 9.1 9.6 9.5 6.3-0.8 7.4-2 6.7 13 14.7 14.2 12.2 3.2 3.9 1.3 6 0.2 6.1 1.8 5.1 5.1-3.5 4.4-6.6 8.4 8.7 3.3 17.3z" id="MDA1639" name="Hîncesti" data-id="MDA1639" data-name="Hîncesti">
 </path>
 <path d="M612.8 606.9l4.4 7.3 0.7 11-2.7 4.2-0.8 4.6 4.5 1.8 4.9 0 27.7 9.4 4.1 13.4 7.9 3.8 2.6-5.1 3.3-3.7 6.1 1.6 6.6 2.7 7.2 1.6 5.8 5.1-1 7.9-4.3 5.8 1.9 9 10.9 3.3-8.5 7.7-9 6.5-8.1 2.2-7.6 3.7-5.2 6-3.7-1.2-9.3-8.3-4.8 3.1-4.8 4.6-6.8-1.1-6.8 0.6-12.9-0.4-12.6-11.5-3.3-17.3-8.4-8.7-4.4 6.6-5.1 3.5-1.8-5.1-0.2-6.1-1.3-6-3.2-3.9-14.2-12.2-13-14.7 2-6.7 0.8-7.4-9.5-6.3-9.1-9.6 2.8-2.8 2.3-3.3 9.1 0.9 8.2-0.3 7 13.8 10.7 7 4-5 5-3.7 7.1 2.9 6.8 4.7 11.7-0.6 6.3-15.3z" id="MDA1640" name="Ialoveni" data-id="MDA1640" data-name="Ialoveni">
 </path>
 <path d="M559.4 766.7l0.7 9 4.6 5.7-1.5 4.7-2.1 4.4-0.7 5.9 0 6.3-4 5.8 1.6 4.6 2.7 10-0.8 12.2-2.9 6.9-4.4 4.1-4 0.5-1.9 4.5-19 15.5-6.1-2.6-6.1-1-4.1 3.5-1.3 7.5-9.6 8.1-10.8-4.5-0.2-8.6-4.9-1.3-5.3 2.8-6 2-3.8 6.2-5.2 3.4-5.6-1.9-0.7-0.9 1.8-2.6-2-5.6 4-2 1.7-3.1 0.3-3.5 0-12.7-0.4-3.5-3.3-1-3.7-7.3-0.6-3.3 0.6-15.5 1-3.1 2.7-1.8-2.5-6.8 1.4-6 2.9-5.1 1.9-4.5 0-5.6-0.6-4.4 5-2.1 9.1-2.3 2.4 9 6.3 3.2 14.5-3.5 2.7-3.4-2.2-5.1-0.6-4.4 1-8-5.7-7.9 3.4-2.7 4.4-0.3 3.3-10.6 10.5 2.7 9.4 9 10-2.2 11-7.1 9.6 4 2.1 16.3z" id="MDA1641" name="Leova" data-id="MDA1641" data-name="Leova">
 </path>
 <path d="M486.4 563.5l3.6 4.1 3.5 6.2-2.1 6-3 5.2 4.3 11 8.7 1.2 5.4-3.1 5.7-0.7 4.5 3.5 5.1 1.5 8.5-3.5 6.3 7.6-2.3 3.3-2.8 2.8-4.2 2.6-3 4.4 8.5 6.3-7.9 17.1-11.2 16.5-7.4-3.9 2.9-11.6-3.8-8.2-14.9-20.4-4.5 8.4 2.8 5.6 2 6.2-5 7.1-7 1.7-12.8 13.1-9.3 14.9-31.1-5.4-2.5-0.7-0.8-6.2-5.5-15.2-3.9-7.1-8.8-11.2 3.8-3.8 3.8-7.3-5.1-3.2-7.4-1-2.8-8.9-0.2-5.7-0.8-5.6-4.4-1.9-4.4-5.2-2.1-9.1 2.4-21.8 6.5-19 7.7-1.7 8.3-0.4 9.7-3.8 16.5 18.3 18.9 11.4 8 2.8 7.8 4.7 7.9 1.8 7.9 0.3z" id="MDA1642" name="Nisporeni" data-id="MDA1642" data-name="Nisporeni">
 </path>
 <path d="M685.2 407.3l1.8 4.6 4.4 5.2 12.5 7.9 3.2 3.9 1.2 3.7 0.7 2.3-1 4.1-4.8 7.1-2.2 12.9-4.8 1.9-4 4.9-7.4-4.4-4.8 1.9-2.6 8.3-5 5.5 6.1 5.2 5.3 7.5-10 9.9-12 4.5-10.8 9.6-11.6 6.4-10.9-1.8-7.2 10.9 1.2 11.9-4.6 3.3-4.4-8.6-3.5-9.7-6.7-0.9-8.8 2.9-5.4-8.2-3.7-10.4-2.4-10.1-3.4-8.9-6-0.5-5.1 5-5.3-0.9-5-3.9 2.4-10.1-15.7-10.2-3.4-15.6 16-7.2 0.2-4.8-2.2-3.9 0.4-3.9 2.4-3.8 0-4.3 0.7-4.3 5.8-4.8 6.4-3.5 23.8-17.2 5.6 0.3 5.4 1.4 5.8 5.7 7 1.7 8-3.3 11.3-14.5 7-1.2 3.5-3.8 2-5 7.1 1.9 7.1 6.2 9.3 14.6 11.1 6.6z" id="MDA1643" name="Orhei" data-id="MDA1643" data-name="Orhei">
 </path>
 <path d="M685.2 407.3l-11.1-6.6-9.3-14.6-7.1-6.2-7.1-1.9-2 5-3.5 3.8-7 1.2-11.3 14.5-8 3.3-7-1.7-5.8-5.7-5.4-1.4-5.6-0.3 0.5-11.6 2.1-9.4-8.1-6.6-2.6-6.4-3.8-4.2-15.9-9 7.3-21.3 15.9-11.7 20.8 3.9 7.2-21.5 6.8-3.8 7-2.8-0.1-3.7-4.5-1.8 5-7.2 19.9 3.3 1.4-6.3 3.3-4.3 5 1.3 4.9 1.9-2.2-9.8-3.7-7.8 10.8 3.3 10.7 9.3-0.1 11.3-10.6 25.9-1.3 9.4 1.3 23.6 2.2 11.3 2.1 4.1-0.5 5.1-2 7 1.8 7.4 6.4 9.6 1.5 4.6 0.1 8.8 1 7.2 0.6 1.5z" id="MDA1644" name="Rezina" data-id="MDA1644" data-name="Rezina">
 </path>
 <path d="M716.6 426.4l-0.4 2-2.6 5.8-5.3-1.6-1.2-3.7-3.2-3.9-12.5-7.9-4.4-5.2-1.8-4.6-0.6-1.5-1-7.2-0.1-8.8-1.5-4.6-6.4-9.6-1.8-7.4 2-7 0.5-5.1-2.1-4.1-2.2-11.3-1.3-23.6 1.3-9.4 10.6-25.9 0.1-11.3-10.7-9.3-10.8-3.3-1.7-3.5-1.8-1.3 0.3-13.2 1.4-7 4.1 3.2 8.7 3.5 10.3-2 12.4-16.4 9-4.4 4.9 0.2 4 1.6 3.5 3.3 3.3 5.4 2.3 6.6 2.4 14.5 2.3 6.2 4 3.2 11.2 3.4 2.8 2-0.9 5.8-4.3 6-5.3 5.7-3.5 4.8-2.5 7.4 0 4.6 2.7 2.8 9.8 3.5 3.7 3.4 1.1 4.6-3.4 5.4-8.5 10.8-1.5 13.2 0.2 14.9-2.9 15.9-7.3 12.9-7.3 9.7-3.8 11.1 3.7 16.9 2 3.8z" id="MDA1645" name="Rezina" data-id="MDA1645" data-name="Rezina">
 </path>
 <path d="M661.2 257.9l3.7 7.8 2.2 9.8-4.9-1.9-5-1.3-3.3 4.3-1.4 6.3-19.9-3.3-5 7.2 4.5 1.8 0.1 3.7-7 2.8-6.8 3.8-7.2 21.5-20.8-3.9-15.9 11.7-15.4-5.9-13.8-10.4-4.2-16.1-10-5.5-4.2-3.6-4.2-1-2.1 2.9-2.3 2.1-3.3-17.1 14.3-17.9 7.4 2.2 7.6-4.1 10.9 2.5 9 10.2 10.3 8.8 9.1-6.7-3.5-8.1 0.3-9.1 7.2-15 10.6-7.9 5.1-0.2 4.9-1.7 4.1-5.8 1.7-1.4 2.5-3.7 7.9 7.4 5 10.3-0.4 10.2 9.1 7.3 23.1 7z" id="MDA1646" name="Şoldăneşti" data-id="MDA1646" data-name="Şoldăneşti">
 </path>
 <path d="M617.9 544.5l-3.1 14.1 1.7 12.6 9.7 7.3 6.7 10.8-12.5 6.1-13-2.5-12.3-14-13.6-8 0.3 12.2 20.7 19.5 10.3 4.3-6.3 15.3-11.7 0.6-6.8-4.7-7.1-2.9-5 3.7-4 5-10.7-7-7-13.8-8.2 0.3-9.1-0.9-6.3-7.6-8.5 3.5-5.1-1.5-4.5-3.5-5.7 0.7-5.4 3.1-8.7-1.2-4.3-11 3-5.2 2.1-6-3.5-6.2-3.6-4.1 4.4-5.6 13.7-1.3 7.2-3.4 14.3-13.3 5.4-6.8-1.3-10.4-4.6-5.2-2.5-6.1 17-15.6 12.8-1.5 5.4-4 5 3.9 5.3 0.9 5.1-5 6 0.5 3.4 8.9 2.4 10.1 3.7 10.4 5.4 8.2 8.8-2.9 6.7 0.9 3.5 9.7 4.4 8.6z" id="MDA1647" name="Străşeni" data-id="MDA1647" data-name="Străşeni">
 </path>
 <path d="M574.5 328.2l-7.3 21.3 15.9 9 3.8 4.2 2.6 6.4 8.1 6.6-2.1 9.4-0.5 11.6-23.8 17.2-6.4 3.5-5.8 4.8-0.7 4.3 0 4.3-2.4 3.8-0.4 3.9 2.2 3.9-0.2 4.8-16 7.2-8.1-9.7-10.2 1.3-10 6.7-10 2.6-3-1.9-2.6-0.1-7.8 3.2-4.6 0.1-4.5-0.9-11.8-8.2-11.2 6.1-10.9-7.3-10.3-8.9 5-10.3 0.7-12.7-3-8.9 2.9-8.4 15.4-7.4 27.1 3.2 9.9-2.1 2.4-9 3.2-4.9 4-2.5 6.7-1.1 1.1-8.1-2.6-12.1-0.6-12.6 4.5-5 5.7-2.7 4.9 3.6 4.8 2.7 8.4-12.2 8.3-15 13.8 10.4 15.4 5.9z" id="MDA1648" name="Teleneşti" data-id="MDA1648" data-name="Teleneşti">
 </path>
 <path d="M805.5 702.2l5.4 5 3.7 8 3.6 1.1 2.2-2.5 2.5 3.7 5.4 1.9 0.4-0.6 6.1 7.1 4.7 17.9 2.3 12.1-1.4 11.8-4.1 1.4-4.7 0.1-3.1 6.8-3.8 6.8-4.8-0.9-4.9-1.5-8 5.2-7.3 7.1-0.5 5.7 0.1 6-3.3 7.5 1.2 7.7 6.4 8 2.9 10.2 0.8 5.1-5.6 3.1-5.3 5.9-12.4 19.1-3.6 0.1-5-7.5-6.7-14.3-4-1.3-5 8.4-0.9 5 1.4 8.3-0.2 3.7-2 5.3-3.3 0-3.5 1.3-10.3 11.5-6.3 3.8-4.8-4.1-0.1-4.3 2-4 2.5-3.8 1.8-4 0.6-4.8-0.3-34.9-1.8-8.9-4.9-5.8-0.1-10.9-4.3-13.9-12-10.6-15-5.5-15-23.7-8.7-20-5.1-25.4 7.6-3.7 8.1-2.2 9-6.5 8.5-7.7 3.9 2.9-1.8 6-0.6 4 3.3 3.9 17.8 4.8 1.5 10.7 5.8 2.6 6.7-6 6.1 7.6 7.6-0.3 7.3 0.7 1.2-9.2 1.9-4.9 3.6 3.6 4 0.4 7.8-12.4 6.1-1.7 6.1 1 7.2-0.4 7.4-1.7z" id="MDA1649" name="Causeni" data-id="MDA1649" data-name="Causeni">
 </path>
 <path d="M932.9 814.5l-2.3-2.1-5.8-7.7-0.9-1.6-4.2-0.1-3.6-0.7-2.7-2.5-2-5.2-10.4 7.5-3.2 1-9.3-5.2-4.2-0.5 2.1-5.5 3.5-4.1 4.1-2.9 3.8-1.9-4.8-12.3-2.7-2.8-6-1.8-4.7 2.1-2.3 0-1-3.4-1.2-1.1-2.9-0.5-5.4 0.3-4.1-6.7-10.1-2.5-6-6-7.1-4.5-4.7-17.9-6.1-7.1-0.4 0.6-5.4-1.9-2.5-3.7-2.2 2.5-3.6-1.1-3.7-8-5.4-5-2.6-14.6 8.7-7.5 1.2-5.2-0.6-3.9 0-10-0.9-7.7-2.6-3.9 4.8-3.5 23.3-0.7-0.5 6.4 2.5 4.6 1.6 0.4 7.2-0.7 2.6 1.4 4.4 5.2 2.5 2.2 4.6 1.6 9.3 0.8 4.3 1.6 4.7 4.7 6.6 10.9 5.2 3.8 9 1.4 8.3-0.8 8.1 1 8.1 6.9 1.4 2.8 2.2 7.6 1.4 2.2 2.5 0.3 5.4-3.1 3 1.8 0.7 2.7 0 8.9 0.4 3.9 1.1 3 4.3 9.1 0.5 7.7-2.4 25.7-1.1 4.9-2.4 7.6-0.2 5.5 1.1 4.2 3.5 8.5 0.6 3.9-3.3 8.9-6.2 1.3-4.9 0.5z" id="MDA1650" name="Bender" data-id="MDA1650" data-name="Bender">
 </path>
 <path d="M932.9 814.5l0.9 9.2 4 4.9 12.5 5.4 2 4.9 2.8 0.3 3.5-2.2 1.6 0 4.1 4.3 3.5 7.2-2.2 3.6 13.1 10.4 4.8 5.7 2.8-2.4 4.3-0.8 4.6 0.8 3.8 2.4-6.9 12.8-7.4 7.3-12.5 2.2-33.7-2-4.6 1-5 2.9-10.5 9.4-5.6 0.8-5.7-6.3-0.5-2.8 0.1-8-0.4-3.7-1.4-3.5-5.9-9.3-14.9-14.3-3.7-6.4-0.1 11.6-3.1 6.1-5.7 2.2-8 0.1-1.9 2.6 1.5 10.1-2.2 6.7-3.8 3.9-4.6 1.8-4.9-0.5-4.4-2.7-3.9-5.2-3.9-9.1-4-3.6-4-1.5-8.9-1.7-4.3-1.8-1.7-2.9-0.5-3.2 0.6-3.1 3.1-6.2 0.6-2.8-0.5-2.7-1.6-2.6-6.9-0.9-0.8-5.1-2.9-10.2-6.4-8-1.2-7.7 3.3-7.5-0.1-6 0.5-5.7 7.3-7.1 8-5.2 4.9 1.5 4.8 0.9 3.8-6.8 3.1-6.8 4.7-0.1 4.1-1.4 1.4-11.8-2.3-12.1 7.1 4.5 6 6 10.1 2.5 4.1 6.7 5.4-0.3 2.9 0.5 1.2 1.1 1 3.4 2.3 0 4.7-2.1 6 1.8 2.7 2.8 4.8 12.3-3.8 1.9-4.1 2.9-3.5 4.1-2.1 5.5 4.2 0.5 9.3 5.2 3.2-1 10.4-7.5 2 5.2 2.7 2.5 3.6 0.7 4.2 0.1 0.9 1.6 5.8 7.7 2.3 2.1z" id="MDA1651" name="Ştefan Voda" data-id="MDA1651" data-name="Ştefan Voda">
 </path>
 <path d="M659.4 232.9l-1.4 7-0.3 13.2 1.8 1.3 1.7 3.5-23.1-7-9.1-7.3 0.4-10.2-5-10.3-7.9-7.4-2.5 3.7-1.7 1.4-4.1 5.8-4.9 1.7-5.1 0.2-10.6 7.9-7.2 15-0.3 9.1 3.5 8.1-9.1 6.7-10.3-8.8-9-10.2-10.9-2.5-7.6 4.1-7.4-2.2 5.2-11.4 2.6-18.4-2.5-12.3-8.5-4 4.2-15.3 10.7-8.1 6.9-15.2-12.4-8.9 0.4-1.7 5.2-15.4 6.3-2.9 9.1 0.4 26.1 10.9 19.7 0.3 10.3 1.8 8 5.4 1.9 3.4 1.6 8.9 4.5 11 0.9 11.1 0.5 2.5 1.9 2.8 4.7 4.4 7.6 13.3 9.2 10 6 4.6z" id="MDA1652" name="Camenca" data-id="MDA1652" data-name="Camenca">
 </path>
 <path d="M535.5 162.1l12.4 8.9-6.9 15.2-10.7 8.1-4.2 15.3-8.3 4.4-8.2-5.6-5.5 3-5.5 1.7-13.5-5.6-5-3.4-5-2.1-4 8.2-9.1 2.1-9.5-1-19.9 0-19.5 3.4-11.8-8.2 3.1-7.1 7.4-13.8 7.4-3.5 5.9-4.9-3.4-18.1-10.8-13.3-31-20.6 6.2-13.9 12-5.3 0.1-18.2-3.7-18.2 15 1.8 5.8 2.8 4.6 5.5 1.6 7.7-5.6 16.7 4.2 3.2 6.3 0.3 4.4-1.2 8.8-7.5 4.7-0.7 2 7 1.1 8.3 2.9 4.8 4.9 1.5 6.6-1.5 6.1-3.5 4.5-3.9 4.8-3.2 13.1-1.5 4.9 0.6 2.9 3.4 0.6 8.1-1.9 8.8-3.2 3.9-4.1 2.7-4.4 5.3-1.9 5.9 0.5 5.9 3.2 3.6 6-1.2 4.3-5 3-6.4 3.7-5.1 6.6-0.9 4.4 3.1 2.8 5.8-0.4 6.4-4.7 5.3 8.1 16.8 3.3 3.6 5.8 4 2.9-0.2 1.1-4 0.1-7.2 1.6-7.3z" id="MDA1653" name="Soroca" data-id="MDA1653" data-name="Soroca">
 </path>
 <circle cx="723.7" cy="471" id="0">
 </circle>
 <circle cx="443.6" cy="986.2" id="1">
 </circle>
 <circle cx="609.1" cy="791.7" id="2">
 </circle>
</svg>