<?xml version="1.0"?>
<!--
************* Copyright (c) 2017 Pareto Softare, LLC DBA Simplemaps.com *******************		
************* Free for Commercial Use, full terms at  http://simplemaps.com/resources/svg-license ************
************* Attribution is appreciated! http://simplemaps.com ***************************
-->
<svg baseprofile="tiny" fill="#7c7c7c" height="948" stroke="#ffffff" stroke-linecap="round" stroke-linejoin="round" stroke-width="2" version="1.2" viewbox="0 0 1000 948" width="1000" xmlns="http://www.w3.org/2000/svg">
 <path d="M743 208.5l-0.2 0.7-13.4 44.6-38.9 33.3-27.6 23-43.7 23.6 37.7 32.5 27.6 22.2 4.8 6.9-3 68.2-11.3 5.5-30.8 15-4.6 3.1 3.7 16.2 2.2 8.5-0.7 3 0.7 2.7 4.2 0.3 25.7 2.6 17.9 1.7 6.1 0.8 2.1 1.1-0.3 12.3-1.3 7.9 0.4 17.5 0.5 18.2 2.9 15.2 1.1 3.9 2.8 12.5 1.4 6 3.5 23 0 0.1-13.2 0.1-2 0.5-1.1 0.9-26.8-7.7-5.5-5.3-4.9-3.7-6.6-3.3-11.6-3.5-7.9 0.3-5.9-0.5-4.5 0.4-9.6 1.3-11 4.3-7.3 2.2-4.9-1.2-4-2.9-3.1-6-6.4-11-1.1-4.9-5.9-5.3-3.3-3.3-2.3-0.4-4.7 1.3-7 0.4-0.5-2.8-2.3-1.1-2.5 1.9-5.2 5.9-5.5-0.1-3.7 2.5-0.9 2.8 0.4 5.6-2 1.8-4.5 2-2.7 3-5.3-1-7 0.8-0.1-7.1-1.3-4-5.2-4-1.7-5.7-4.3 0.4-4.9 0.6-1.8 1.2-4.5 4.5-8.3 0.9-4.5 3.1-14.4 4.7-9.6-0.5-9.5-0.9-5.3 0.2-3.6-0.6-4.7-4.1-3.9 4.1-3.8 3.5-9.1 2.9-0.1 0 1.2-6.6 3.4-18.3 1.1-6 1.2-5.9 2.2-12 0.3-1.8-0.1-0.8-0.6-0.7-7.3-5.1-4.9-3.4-2.4-1.6-1-2-0.3-2.6-1.2-11.4-1.2-11.4-0.6-5.7-1.2-11.4-1.2-11.5-1.2-11.4-0.6-5.7-0.6-5.8-1.2-11.4-0.6-5.8-2.4-23.6-0.7-5.9-0.6-5.9-0.6-5.9-1.2-11.9-0.6-5.9-2-19.4-1.7-16.3-0.9-8-1.7-16.1-0.9-8-1.7-16.1-0.9-8.1-0.9-8.1-0.8-7-2.6-24.2-1.7-15.7-0.9-7.8-2.5-23.5-0.9-7.9-2.5-23.6-0.9-7.9-1.7-15.8-0.9-7.9-1.7-15.9-1.7-15.8-0.8-8-0.9-7.9-1.7-16-1.7-15.9-0.4-4.1-1-9-1.4-13.2-0.6-5.7-1.2-10.6-0.6-5.3-1.1-10.6-1.2-10.6-0.6-5.3 40.2-0.1 13.4 0 40.2 0 13.4 0 9.2 6.4 9.2 6.3 6.8 4.9 14.4 10.4 9.7 6.9 4.8 3.5 9.6 6.9 4.9 3.5 4.8 3.4 9.6 6.9 4.8 3.5 9.7 6.9 4.8 3.4 10.5 7.5 15.7 11.3 10.5 7.5 15.7 11.2 5.2 3.7 10.5 7.5 10.5 7.4 15.7 11.2 5.3 3.7 10.5 7.4 5.2 3.7 15.7 11.2 5.3 3.7 10.4 7.4 5.3 3.7 10.5 7.4 10.4 7.4 10.5 7.4 6.1 4.3z" id="MLI2688" name="Timbuktu" data-id="MLI2688" data-name="Timbuktu">
 </path>
 <path d="M998.8 457.8l-136.5 0-10.8 13.9-35.9 8.2-38.3-32.1-12.6-13.9-18-22.8-57.4-15.8-4.8-6.9-27.6-22.2-37.7-32.5 43.7-23.6 27.6-23 38.9-33.3 13.4-44.6 0.2-0.7 4.4 3.1 10.5 7.4 26.2 18.4 5.2 3.7 10.5 7.3 12.4 8.7 0.7 1.3 1.2 4.2 0.1 1.4-0.8 7.1-1.3 5.8-0.1 1.3 0.2 1.6 0.4 0.8 0.9 0.3 1.4 0.2 1.2 0 2.4-0.5 1.3 0 1.4 0.3 0.9 0.7 1.2 2.3 1 1.2 1 0.7 2.6 0.9 2.5 0.4 1.1 0.3 1 0.7 2.3 0.4 2.3 1.2 3.9 3 1.2 1.9 0.4 2.3 0 4.8 0.6 0.9 7.2 6.1 1.2 0.6 1.3 0.1 1.1-0.2 1 0.1 0.9 0.7 0.6 1.3 0.3 1.2 0.4 0.8 1.3 0.1 0.7-0.3 1-1 0.9-0.3 0.7 0.1 0.5 0.4 0.5 0.4 0.6 0.4 3.8 1.3 0.9 0.1 1.6-0.7 2.4-2.3 1.4-0.9 1.3-0.3 1.1 0.3 1.1 0.7 3.7 2.9 2.2 2.5 1.9 2.7 2.5 4.5 0.7 0.7 0.9 0.4 1.5 0.3 1.2 0.5 2.1 1.2 1.2 0.2 0.7 0.1 5.5 1.1 3.3 0.1 16.6 3.5 7.7 3.4 3.5 2.8 1 0.5 2.1 0.7 1 0.4 0.8 0.8 0.3 0.9-1.1 13 0 2.5 0.8 2.3 0.3 0.4 0.7 0.5 0.2 0.5 0 0.4-0.4 1.3 0 0.6 0.6 1.2 0.7 0.9 0.7 1.1 0.1 1.4-0.6 1.5-1.1 0.8-1.2 0.7-1.2 1-0.5 1.2-0.3 2.5-0.3 1-1.3 1.4-0.8 0.6-0.3 0.5-0.5 1.3-0.9 1.4-0.5 1.1 0.1 1.2 1 1.4 1.1 1.1 1.2 0.9 1.2 0.8 2.8 1.2 3.6 3.5 1.4 0.9 0.6 0.3 0.9 0.1 1.6-0.1 4.9-1.2 6.3-1.2 10.3-2 10.4-2.1 20.7-4 0.2 63.1 0 11.3z" id="MLI2689" name="Kidal" data-id="MLI2689" data-name="Kidal">
 </path>
 <path d="M998.8 457.8l0 12.3 0.1 7.9 0 7.8 0 7.9 0 7.8 0.1 7.8 0 4 0 6.7-0.8 0.6-0.7 0-0.4 0.2-0.4 1.1-0.1 1.2 0.4 6.2-0.3 0.6-0.8 1.3-0.1 0.6 0 12.4 0.1 12.4-0.5 1.5-0.9 0.8-2.6 1.3-1.4 1.2-1.2 1.2-0.9 1.4-5.4 13.4-0.3 1.7 0.3 1.8 0.8 2 0 0.6-0.1 0.3-3.5 3.6-0.9 1.4-0.4 1.2-0.5 6.1-0.5 2.4-0.9 2.3-1.6 1.8-2.2 1.3-4.9 0.9-2.2 1.2-4.7 5.3-5.3 3.2-0.6 1.7-0.6 7.2-1.1-0.2-0.3-0.1-6.2-1.1-11.4-1.9-7.2-1.3-2.4 0.1-1 0.2-0.4 0.3-0.2 0.7-0.1 1.1 0 2.3-0.3 0.9-8.9 0.3-5.8 0.2-11.7 0.4-11.7 0.4-5.8 0.2-5.9 0.2-5.8 0.2-17.5 0.6-5.9 0.2-5.8 0.2-11.7 0.4-4.5 0.1-2 0.5-1.6 1-4.1 3.9-4.9 4.5-9 8.5-1.5 0.7-1.6 0.3-9.3 0.4-1.7 0.6-1.8 0.7-1.6 0.4-0.9 0.1-9.4-3.4-1.8 0.1-4 1.4-1.9 0.4-2 0-8-2-0.5 0.6 0 1.6 0.3 3.1-15.2-5.3-8.1-3.4-4.2-1-3.8 0.7-3.8 2.3-2.1 1-1.7 0-0.6-0.8-1.4-3.8-0.6-0.3-2 0 0-0.1-3.5-23-1.4-6-2.8-12.5-1.1-3.9-2.9-15.2-0.5-18.2-0.4-17.5 1.3-7.9 0.3-12.3-2.1-1.1-6.1-0.8-17.9-1.7-25.7-2.6-4.2-0.3-0.7-2.7 0.7-3-2.2-8.5-3.7-16.2 4.6-3.1 30.8-15 11.3-5.5 3-68.2 57.4 15.8 18 22.8 12.6 13.9 38.3 32.1 35.9-8.2 10.8-13.9 136.5 0z" id="MLI2690" name="Gao" data-id="MLI2690" data-name="Gao">
 </path>
 <path d="M262.3 798.1l-2.1 0.6-1.9-0.5-1.2-0.4-0.5-0.8-1-0.6-0.6-1.5-0.3-2.4 0.3-1.7 0.8-1.3 1.4-0.6 1.6-0.2 1.6 0.4 1.3 0.8 0.9 1.4 0.3 1.6 0.2 2-0.1 1.8-0.7 1.4z" id="MLI2792" name="Bamako" data-id="MLI2792" data-name="Bamako">
 </path>
 <path d="M189.9 614.5l1.2 1.4 2.9 2.4 3.3 2.6 1.7 1.6 8.6 4.8 2.7 3 0.5 1.5 0.5 4.9 2.8 7.3 3.9 2.7 6.4 0.4 3.9 0.8 0.9 1.4 1 4.1-0.3 5.4-0.3 3.5 1.3 2.2 6.2 4.6 3.7 2.7 3.8 3.9 4.4 1 0.8 1-0.2 1.9-0.4 1.4 1.5 4.8 0.2 1.1-1.8 1.2-3.9 0.5-2.7 0.5-3.3-0.7-4.4 0.6-2.7 0.5-1.7-0.2-1.7-1.5-1.8-3.4-1.2-1.4-1.3-0.7-1.4 0.4-1.4 3-2 2.8-2.4 0.7-2 0.9-5.2 0 2.7 6.7 0.3 1.3 0.1 1.4-0.4 1.8-0.9 0.1-1.1-0.4-1.3 0.5-0.3 0.8 0.3 2.2-0.3 1-0.5 0.6-0.2 0.5-0.3 1.3-0.3 0.4-0.4 0.2-0.2 0.3 0.2 0.8 0.3 0.5 1.9 1.6 0.6 0.3 0.6 0.1 0.5 0.3 0.4 0.5 0.3 0.7 0.4 0.4 0.5 0 0.6-0.7 1.7 3.2 1.1 0.9 5.2 0.9 1.6-0.2 0.8-1.5-0.9-0.1 0.1-0.9 1-2 0.2-1.5 0.4-0.6 1.2-0.4 2.1 0 1.6 0.6 1.2 1.2 0.7 2 0.1 1-0.2 1.3 0 0.9-0.2 1-0.5 0.8-0.8 0.7-0.6 0.7-1 2-0.5 0.8-1.6 1.6-0.6 0.9-0.2 1.2 0.7 6.5 0.1 0.7 0.4 0.4 0.6 0.5 0.5 0.5 0.5 0.7 0.7 1.6 1.7 1.8 0.7 1.1 0.3 1.1 0.2 1.3-0.2 1.2-0.6 0.9-0.7 0.4-0.4 0.1-0.4 0.3-0.5 0.7-0.3 0.8-1.2 3.8-0.2 1.3-0.2 0.7-0.4 0.7-1 1.2-0.4 0.7-0.3 1.3-0.2 4-0.3 0.8-0.3 0.6-0.3 0.7 0 0.9 0.5 3.3 0 1.5-0.5 1.8-2.7 4.3-0.6 1.5 0 1.6 0.5 0.9 0.9 0.9 0.7 1.4-5 2.8-1 0.8-1.5 2.2-2.4 1.5-2.8 0.9-2.7 0.4-2.3 1.2-2 3.9-2.3 2-2.5 1.9-2.5 4.7 2.1 1.5-1 1.2-7.3-3.8-2.5-0.9-4.6-0.9-0.8 0-0.5 0.4-0.5 0.3-0.8-0.4-0.8-0.4-0.4-0.1-0.4 0.1-1 0.7-2.8 0.7-0.9 1.1 0.3 0.7 0.9 1 1.1 1.1 1.6 0.9 0.2 0.4 0 0.6 0.3 0.6 0.5 0.2 1 0.3 0.3 0.3 0.1 0.8-0.3 1.1-0.5 1-0.8 0.2 0.2 1.5-0.3 0.8-1.5 1.5-3.7-0.7-1 0.2-2.5 1.1-1 0.7-1.2 1.1-6.8 2.3-1.9 1.3-0.9 0.9-0.4 1-0.1 1 0.1 1.3-0.3 0.8-0.7 1.1-1.5 1.5-3.4 0-1.1-0.4-0.6-0.4-0.9-0.7-0.7-0.3-0.4 0-1.3 0.2-0.5 0-1.1-0.5-2.1-1.7-1.1-0.3-1.2-0.2-2.1-1.1-1.2-0.4-0.7-0.4-1.3-0.9-0.7-0.4-0.6-0.2-1 0-0.6-0.2-0.5-0.3-0.8-0.7-0.6-0.3-0.5 0-1.4 0-1.2-0.2-2.1-1-2-0.4-0.4-0.4-0.3-0.4-0.5-0.3-2.3 1-0.4 0.7-0.1 0-0.2-0.4-0.4-0.3-0.1 0.2-0.3 0.5-0.6 0.3-0.5 0.1-0.4 0.2 0.1 0.9-0.9-0.3-0.4-0.2-0.4-0.3-0.8 0.5-2.1 1.7-0.4 0.6-0.6 0.9-2.9-0.3-1.1 0.4-0.1 0.6 0.5 1.3-0.2 0.2-0.5 0.2-0.1 0.6 0.2 0.7 0 0.4-1.2 0.9-1.2 0.6-0.7 0.8 0.4 1.3-0.9 0.3-1.3 0.7-1.1 0.7-0.4 0.6-0.3 0.9-0.5 1.1-0.7 1.1-0.6 0.6-0.9 0.4-2.5 0.1-1.7-1.8-2.5-4.7-1.6-1.7-0.3-0.6 0.1-0.6 0.6-1 0.1-0.6-0.3-1.7-1.1-0.9-1.4-0.7-1.5-1-2.4-3.9-1.1-0.8-1.4-0.4-1.2 0.1-2.7 0.9-1.4-0.1-0.8 0.2-0.5 0.6-0.7 2.7-0.7 0.8-2 1.4-0.3 0.4-0.9 1.4-0.5 0.2-0.5 0-0.4 0.2-0.4 1.8-0.6 1.2-0.9 0.9-1 0.3-0.9 0-2 0.9-1.2 0-1.2-0.5-1.2-0.6-1.2-0.8-1-0.9-2.4-3.3-1.1-0.9-3.7-1.6-1.2-1-1.1-2.5 1-1.9 1.7-1.7 1.2-2.5 0-1.4-0.4-2.5 0.2-1.4 1-0.5 1.4 0.1 1.2-0.2 0-1.2 0.1-1.6 0.4-1.7 0.1-1.4-0.8-1.1-0.1 0.4-0.5 0.7-0.1-0.5-0.4-1-0.1-0.6-0.4-1-0.4 0.2-0.4 0.7 0.1 0.4-0.5-0.4-0.7-1.2-0.5-0.3-0.6-0.2 0.4-0.4 1.3-0.6 0.1-0.7-0.1-0.5-0.1-0.4-0.1-0.7 0.4-1.9-0.1-0.7-0.3-0.6-0.4-0.3-0.5-0.2-0.2-0.2-0.1-0.9 0.4-0.4 0.5-0.4 0.6-1.6 0.8-0.3 0.8-0.1 0.5-0.8-0.1-0.6-0.6-1.1 0-0.3 0.4-0.5 0.1-0.6 0-0.8-0.1-0.6-0.2-0.5-0.5-0.8-0.5-0.1-0.3-0.2 0-0.3 0.3-0.7 0.1-0.2-0.2-1 0.3-0.7 0.3-0.6 0.3-0.6-0.2-0.4-0.6-0.6 0-0.4 0.4-0.2 0.4 0.1 0.4 0.2 0.3 0 0.5-0.4 0.4-0.2 0.2-0.4-0.1-1.6-0.2-0.7-0.2-0.7-0.5-0.5-0.2 1.1-0.4 0.7-0.7 0.3-1-0.2 0.2-0.6 0.1-1.2 0-0.6 0.2-0.2 0.4-0.3 0.1-0.2-0.5-0.3-0.3-0.2-0.2-0.4-0.4-0.7-0.8-1.3 0.1-0.3 0.4-0.5 0-0.4-0.6-0.3-1-0.2-0.8-0.5-0.7-0.5-0.8-0.6-1.1-0.2-0.3-1 0-2.2-0.6-0.8-0.7-0.7-0.6-0.7-0.2-1.1 0.3-0.7 0.7-1.1 0.1-0.7-0.2-0.6-1.4-1.2-1.5-2.1-0.4-1.2 0-1.4-0.5 0.2-0.7 0.2-0.7-0.1-0.1-0.6 0-0.9-0.2-0.2-1.6 0-1.1 0.3-0.6-0.1-0.6-0.5-0.4-0.6-0.4-0.5-0.9-0.1-0.9 0.5-0.6 1-0.4 1.3-0.1 1.2-2.6 1.9-0.3 0.4-0.3-0.1-0.7-0.5-0.3-0.5-0.4-1.2-0.2-0.4-0.5-0.4-1.6-0.8-0.5-0.1-0.2-0.7 0.9-3.3 0.1-1.1-0.4-0.8-0.5-0.2-0.5-0.1-0.7-0.3-0.3-0.4-0.6-0.9-0.3-0.4-3.5-2.6-1.1-1.2-1.4-2.2-0.7-2.2-1.3-2.4-0.8-1.3-0.8-0.7 5.1-2.9 2.1-2.1 0.9-2.8 0.4-2.5 0-1.2-0.4-1.2-1-1.3-1.2-0.9-0.9-0.9-0.7-1.7 0.1-2.6 1.3-4.7 0.5-2.6-0.2-1.4-2.2-5.2-0.6-0.9-0.9-0.6-2.3-0.9-0.8-0.6-0.6-0.8-0.5-0.8 0.9-0.4 0.3-0.7-0.4-0.8-5.7-2.1-0.7-0.2 0.1-2.7-0.2-1.3-0.7-2.7-0.1-1.3 0.3-1.1 1.2-0.7 0.4-0.4 0.2-0.7 0.1-0.7 0.1-0.7 0.4-0.6 1.2-1.2 0.3-0.5 0.1-1.1-0.5-0.3-0.6-0.2-0.4-0.4-0.1-0.6 0.1-0.5 0.2-0.4 0.4-0.8-0.7 0-1-0.2-0.9-0.4-0.5-0.7-0.3-0.9-1.2-1.1-0.5-1.8 1 0.5 1.4 0.2 1.3-0.1 2.6-1 1.3-0.2 0.9 0.5 2.5 2.3 0.7 0.3 0.5-0.7 0.3-1 0.5-0.3 1.1 0.3 1.2 0 1.2-0.4 1.1-0.7 1.4-2 0.8-0.7 2.5-0.6 1.1-0.6 0.9-0.7 0.5-0.9 0.2-0.5 0.8-1.1 0.7-0.2 0.3-0.2 0-0.4-0.4-0.6-0.1-0.3-0.1-0.4 0.3-2.2 0.3-1.1 0.5-1 0.1-1.2-0.2-0.9-0.4-0.7-0.7-0.6-0.4 0-0.3 0.3-0.4 0.2-0.6-0.5 0.1-0.3 0.1-1.9 0.7-2.5 0.1-0.6-0.2-0.9 0-0.6 0.1-1.3 1.2-3.4 0.3-2.9 0.2-1 2.1-4.4 0.9-4.5 0.8-2 1.5-1.7 0.2-0.7 0-2.1 1.8 0.2 1.6 0.6 1.6 0.1 1.8-0.9 2.1-2.3 1-0.6 1.6-0.5 0.8-0.3 0.5-0.7 0.1-0.3 0.1-0.3-0.1-0.3-0.1-0.3-0.5-0.3-0.2-0.5 0.7-0.1 3.4 0.7 1.5 0.6 1.5 1.3 5.6 8.2 1.1 1.3 15.3 11.4 2 1.9 1.7 3.3 2.2 2.2 2 3.1 0.5-1.1 1-3.6 0.5-1 1.6-1.5 0.7-1.1 0.6-2.3 0.4-1 1-1 0.6-0.2 0.7 0 0.5-0.1 0.6-1 1-0.6 0.5-0.5 0.5-1.3-0.1-2.6 0.2-1.2 0.7-0.6 1-0.1 3.6 0.6 2.5 0 1.2-0.2 2.2-0.7 1-0.2 1.2 0.3 0.9-0.2 6.1 0.1 1.7 0.3 2.9-0.2 0.9 0.1 5.1 2.1 0.6 0 1.1-0.2 0.5 0 1.2 0.6 2.2 1.5 1.4 0.4 2.5 0 7-1 7 0.6 2.3-0.5 3.4-2.1 1.2-0.5 3-0.6 15-0.6-0.7-3.5-1-4 0-1.8 0.9-1.7 3.7-4.4 1.2-0.8 1.4 0.7 0.2 2-0.8 4.3-0.4 5.7 12.6 0z" id="MLI2793" name="Kayes" data-id="MLI2793" data-name="Kayes">
 </path>
 <path d="M472.8 787.9l-0.7 0.1-0.4-0.1-0.2 0.2-0.4 3.2 0.6 1 2.6 2 1 1 1.3 2.9 0.5 0.8 0.3 0.3 0.1 0.2-0.4 0.8-0.9 1.2-1.1 1.1-1.1 1.3-0.5 1.5 2.2 5.2 0.6 2.7-1.8 0.3-0.5-0.4-0.5-0.7-0.6-0.5-0.9 0.1-0.7 0.4-0.1 0.4 0 0.5-0.2 1 0.1 0.7-0.1 0.3-0.2 0.3-5.4 4.4 1.6 3-0.6 0.6-1.8 0.1-2.2 1.2-0.7 1.3-0.1 0.9-0.3 0.8-1.2 0.6-0.6 0.1-1.2-0.2-0.7 0.2-0.6 0.5-0.8 1.6-0.5 0.6-0.9 0.5-1.7 0.3-1 0.4-1.2-1.1-1.3 0-2.6 0.9-1.2 0-1.3-0.3-1.3-0.1-1.3 0.6-0.6 0.4-0.6 0.4-0.6 0.1-0.7 0-1.1 0.1-2.4-0.1-0.9 0.1-0.9 0.4-2 1.2-1.9 0.6-0.9 0.8-1.6 1.8-2.3 1.9-1.2 1.7-0.5 0.4-0.4 0-0.3-0.1-0.4-0.3-0.4-0.2-0.4 0-0.5 0.5-0.2 0.1-2.1 0.3-0.2 0.2-0.5 0.4-0.3 0.1-0.3-0.1-0.8-0.5-0.3-0.1-0.8 0.1-0.4 0.1 0 0.3 0.4 0.7 0.4 0.2 1.5 0.9 0.3 0.2 1-0.2 0.5 0.1 0.7 0.2 1.1 0.5 1 0.6 0.7 0.8 0.5 1.3 0 1-0.1 1.4-0.5 2.4-0.4 0.6-0.4 0.7-0.3 0.7 0 0.7 0.4 0.6 0.6 0.2 0.6-0.1 0.7 0.1 2.1 1.7 0.6 2.2 0 5.1 0.3 1.4 0.1 0.8-0.5 0.6-1.3 0.6-1 0.8-0.2 1.1 0.4 6.5-0.1 1-0.8 1.2-1.9 2-0.5 1.4-0.4 2.5-0.6 0.9-1.5 0.9-1 0.4-1 0.3-6 0.8-0.9 0.6-0.2 1 0.7 3.7-0.4 1.6 1.4-0.3 0.8 1.7 1.1 4.3 0.8 1.3 0.2 0.7-0.9 3.6 0.1 0.5-0.1 0.6-0.4 0.3-0.5 0.3-0.4 0.4-0.3 0.9-0.6 3.3 0 0.6 0.3 1 0.1 0.5 0.9 0.4-0.6 0.5-0.4 1-0.1 0.9 0.5 0.5 0.2 0.6-0.9 3.2-1.4 2.2-0.2 0.5-0.5 3.2-0.3 0.8-1.7-0.6-1.3-0.9-0.8-0.2-0.6 0-1.6 0.4-3.4 0.4-7.8 1.7-4.3 2.3-1 0.7-0.7 1-0.2 1.1 0.3 3.4-0.8 0.5-2.8-1-0.7 0.6-0.2 1.5-0.4 1.3-0.7 1.2-1.2 1.1-5.4 0.1-4.6-1.7-0.8-0.5-1.2-1.4-0.6-0.5-0.9 0.2-0.2-2.3 0.1-0.8 0.8-0.8 0.4 0.3 0.4 0.2 0.5-0.2 0.2-0.3-0.3-1 1.5-1.7-0.9-0.7 0.2-1.1 0.9-1.9-1-1.2-0.2-0.6 0.1-0.5 0.6-1.1 0.2-0.4-0.3-0.6-0.4-0.2-0.5 0-0.7 0.1-0.4-0.1-0.3-0.4-0.3-0.4-0.3-0.3-0.6-0.1-0.5 0.1-0.3-0.1 0-0.9 0.3-0.5 1.1-0.9 0.4-0.5 0.1-0.8-0.2-0.7-0.3-0.9 0.4-0.5 0.7-0.3 0.6-0.4 0.3-0.7-0.2-0.5-0.5-0.5-0.7-0.3-1.1-0.4-0.2-0.5 0.3-2.6-0.1-0.8-0.6-0.4-1.4 0.2-1.5 0.6-1.1 0.8-1.2 0.6-1.5-0.1-1.3-0.2-1.3 0.1-1 0.5-0.5 1.1-0.1 2.4 0.3 0.9 0.7 0.4 0.8 0.4 0.4 0.6-0.2 1.4-1.1 0.8-1.5 0.2-1.3 0-3.2-0.7-1-0.3-2.5-1.3-1.2-0.9-0.9-0.8-1.3-2.2-0.8-0.5-1.3 0.5 0.1 0.2-0.9 1.4-0.1 0.1-0.3 1.1-0.1 1.2 0.1 0.5 0.2 0.4 0.2 0.5-0.3 2.8-0.6 2 0.1 1 0.8 1.2 0.4 0.3 0.7 0.2 0.6 0.3 0.4 0.4 0 0.7-0.3 0.5-0.4 0.5-0.3 0.4-0.3 2.3-0.5 0.7-1.4 0.5-1.3-0.1-2.3-1.4-1.3-0.4-1.3 0.1-3.6 1.7-1.2 0.1-3.4-0.4-1.4 0.2-0.7 0.8-1.4 4.9 0.1 0.8 0.7 0.5 0.7 0.6 0.6 0.6 0.2 1.6-0.8 1.3-1.2 0.9-1.4 0.5-1.5 0.1-1.1-1-0.9-1.4-1-1.1-1-0.6-6-1.7-4.8-0.7-3.8-0.1-1-0.3-0.5-0.8 0-1.4 0.3-2.5-0.3-1-1.4-0.1-1.6 0.6-0.6 0.2-0.8 0-0.1-0.4 0.2-0.6-0.1-0.7-1-1.7-0.2-0.6-0.1-0.5 0.1-0.7-0.1-0.7-0.3-0.7-0.5-0.6-0.6-0.3-0.7-0.2-0.9 0.1-1.4 1.8-0.5 0.5-0.5 0.2-1.1-0.1-0.6 0.1-1.5-0.1-2.1-1.4-1.3 0.2-0.3 0.5-0.3 0.8-0.3 0.7-0.5 0.1-0.7-0.1-0.6 0.2-0.8 0.6 0 0.5-0.8 0.4 0.7 0.9-0.7 1-1.3 0.8-1.2 0.2 0.8 1.1-0.8 1.2-0.1 0.9-0.3 0.5-0.5 0.3-0.3 0.3-0.3 0.7-0.2 0.4-1.4 1.9-0.6 0.5-0.6 0.3-0.5 0.3-1.6 0.2-0.6 0.3-1.1 1-1.1 0.5-1.2 0.4-1.3 0-1.2-0.4 1.4-3 0.3-1.4-0.1-1.6-0.4-1.4-0.7-1.6-0.9-1.3-1.1-0.7-3.3-0.1-1.6-0.3-1.2-0.8-0.3-0.8-0.1-1.7-0.2-0.7-0.6-1-0.4-0.1-0.5 0.3-0.9 0.4-1.4 0.3-1.3-0.1-1.1-0.5-1.5-2.9-1.9-2.5-0.7-1.6-0.9-12.2-0.3-1.1-1.6-0.6 0.2-1.3 1.2-3.4 0.5-0.5 0.3-0.6 0.2-1.1-0.1-6.4-0.4-1.4-0.9-1.4-1.3-1.2-1.3-0.7-0.7 0-1.2 0.7-0.6 0.1-1.1-0.4-0.6-0.1-0.6 0.2-1.2 0-1.3-0.4-1 0-1.5 3.3-0.6 1-1.1 0.7-1 0.3-1.1 0.1-1.1 0-1-0.1-1.2 0.1-1 0.5-1 0.3-0.9-0.6-0.3-1 0.3-1.1 0.5-1 0.5-0.8 2.8-2.8 0.6-1.3 0.1-0.7-0.2-0.5 0-0.7 0.6-0.7 0.5-0.2 1.2 0 0.5-0.3 0.6-1 0.3-2.2 0.7-1 0.5-0.3 1.2-0.5 0.5-0.4 0.2 0 0.6-0.1 0.2-0.1 0.2-0.5-0.4-0.7 0-0.2 0.6-1.4 0.6-0.4 2.3 0.5 1.1 0.2 1.2-0.1 1.1-0.4 0.7-0.8 0.4-1.6-0.6-0.3-1.1 0.2-1.2-0.2-0.5-0.9 0.8-0.8 1.2-0.6 1.1-0.3-1.3-1.1-1.9-0.9-3.6-1.1-1.7-0.1-0.7-0.2-0.5-1-0.2-1.1 0.8-0.8 2.3-2.9 3.4-7.7 2.1-1.1 3.9 0.1 7.7-2.9 3-0.2 5.1 1.3 2.2-1.3 4.4-4.3 1.5-0.6 4.6-3.5 6.9-3.8 6.4-2.8 4-1.9 1.9-1.5 2.4-5.7 1.5-3.1 1.5-1 6-3 2.2-0.9 1-1.7 0.8-3.2 2.1-0.9 2.6-1.7 2.5-4 3.3-1.3 0.7 1.8 1 6.8 2.3 7.5 0.1 2.2-1.9 4.4 0 3.4 2.1 2 1.8 0.8 2.8-0.7 1.2 1.4 0.1 5.8 3-0.6 1.6 0.6 1.8 2.2 4.4 1.2 7.8 3.6 5.2 0.1 1.1 1.1-0.5 3.6 2.8 1.3 1.7-0.2 1.4-3.1 0.9-2.4 1.4-3.9 0.7-2.5 3.8-3.7-0.7-4.6-0.1-2.9 2.7-2.9 3-0.2 3.1 1.1 2.9 2.8 0.8-0.6-0.1-1.5-0.2-2.8 1.7-0.9 1.8 0.1 4.2-1.2 2.2 0.2 2.2-5.6-0.3-5.4-1.8-0.9-5.4 0.4-2-1-1.2-2.7-3.2-2.5-2.2 0.4 0-1.7-0.8-2.1-0.1-2.5-2.1-3.2 3-3.1 12.5-2 1.4-2.3 0.6 0 1.9 1.2 2.7 0.1 9.2-4.7 10-5.5 0.8 0.4 2 4.6 1.7 1.3 0.6 3.4 3.6 3.3 1.7-0.5 1.8-4 4.8-5.9 1.7-1.3 1.2 0.3 6.3 2.9 0.8 2.4 2.2 2.9-0.2 3.7 2 1.5 7.4-1.2 7.9-1.1 2.2-0.7 1.3-2.3 3.9-4.9 3.7-1 1 3.3 1.7-0.1 0.9-1 5.3-0.2 0.1 0.2 1 0.2z" id="MLI2794" name="Sikasso" data-id="MLI2794" data-name="Sikasso">
 </path>
 <path d="M696.2 642.1l-0.7 0.5-3.3 3.3-12.5 11.1-2.1 1.4-2.3 1-11.6 2.8-2.6 1.3-20.9 13.6-4.3 0.9-4.2 0.2-5-0.4-2.9 0.1-1.8 0.8-0.5 1.7-1.1 15.3-0.2 0.7-0.5 0.4-4.2 1.9-0.9 0.1-2-0.4-14.1-6.8-4.6-1-3.3 0.8-4.9 2.8-1.4 1.2-4.4 5-8.9 5-1.6 2.7 0.3-0.1 0.4 0.4-2.4 8-1 1.8-1 2.4 0.3 3.3 1.7 5.9-4.2 1.6-0.5 0.1-0.4-0.2-0.4-0.3-0.5-0.1-1.5-0.2-0.5 0.1-0.7 0.4-1 1.2-0.7 0.2-0.5-0.9-0.1-1-0.3-0.5-1.1-1.1-1.5-0.9-1.3 0.1-1.3 0.2-1.7-0.1-2.7-2.1-1.6-0.6-1.2 1.2 1.2 1 0.4 1.5-0.2 3.5-0.3 1.4-0.9 2.3 2.1 15.5-0.8 0.6-10 0.6-1.3 0.5-0.2 1.8 0.7 2.1 0.1 1.2-0.6 1-0.8 0.1-3.3-0.5-1.3 0.1-0.4-0.1-0.6-0.4-0.9-1-0.4-0.1-0.8 0.1-0.5-0.1-4.9-3.9-2.8-1.7-4.5-3.6-1.1-0.5-2.5-0.7-2-0.8-1-0.2-1.2 0.1-1.2 0-1.4-0.4-0.8-0.6 0.8-0.7 0.5-0.3 1.2-1.2 0.5-0.2 0.6-0.1 0.4-0.2 0-0.7-0.3-0.2-1.5-0.2-0.5-0.3-0.2-0.3-0.3-1.3 0-0.1 0.3-0.5 0.1-6.2-3.1-6.4-1.9-8.6-2.7-5.5-1.7-0.7-3.4 0.9-6.9 5.4-5.1 9.1-1.1 2.7-3 0.3-4.5 1-5.6 3.2-2.6-1.9-1.4-1.5-0.9-0.3-3 0.6-2.2-0.5-1.6 0.4-3.6 2.3-1.3-3 0-3.5 1.2-5.3-1.6-2.9 0.1-1.7 1.6-1.5 0.8-3.3-0.7-2.4-2.7-0.2-9.2 1.6-4.5-0.7-5-2.1-0.4-2.8 1.7-8.4-5.8-8-3.6-2.5-10.3-6.3-9.2-5.8 0.1-1.7 2.5-2 0.5-4.4 1.1-1.5-0.4-2.2-0.3-2.6 2.1-5.1 1.6-5.5 2.5-0.2 9.4-2.6 4.6 0.2 3.9-3.2 4.3-7.4 2.2-3.4-3.3-10-1.8-7.2-1-1-2-0.5-6.6-0.3-0.8-3.4 3.8-3.5 3.9-4.1 4.7 4.1 3.6 0.6 5.3-0.2 9.5 0.9 9.6 0.5 14.4-4.7 4.5-3.1 8.3-0.9 4.5-4.5 1.8-1.2 4.9-0.6 4.3-0.4 1.7 5.7 5.2 4 1.3 4 0.1 7.1 7-0.8 5.3 1 2.7-3 4.5-2 2-1.8-0.4-5.6 0.9-2.8 3.7-2.5 5.5 0.1 5.2-5.9 2.5-1.9 2.3 1.1 0.5 2.8 7-0.4 4.7-1.3 2.3 0.4 3.3 3.3 5.9 5.3 1.1 4.9 6.4 11 3.1 6 4 2.9 4.9 1.2 7.3-2.2 11-4.3 9.6-1.3 4.5-0.4 5.9 0.5 7.9-0.3 11.6 3.5 6.6 3.3 4.9 3.7 5.5 5.3 26.8 7.7z" id="MLI2809" name="Mopti" data-id="MLI2809" data-name="Mopti">
 </path>
 <path d="M503 739.9l-0.3-0.4-0.5-0.2-0.4 0.2-0.8 1 0.3 0.2 0.8 0.1 0.5 0.3-0.3 0.6-0.8 0.7-1 0.6-1.3 0.5-1 1.1-0.5 0.3-1.6 0.4-0.5 0.3-1 1-0.7 1.1-1 2.5-0.9 1.5-1.2 1.4-0.6 0.3-0.6 0-0.6-0.1-0.6 0.1-0.9 0.6-1.1 1-0.9 1.1-0.3 0.9 0.5 0.6 1.2 0.7 0.2 0.6-0.4 0.5-0.7 0.2-3.9-0.2-1 0.5-0.8 2-0.4 0.5-0.3 0.6 0 0.8 0.4 0.5 1.7 1.6 1.6 3.6 0.8 1.1 1.8 1.5 1.1 1.4 0.5 1.7-0.2 3.6 0.7 2.8 0 0.7-1.3 4-0.6 0.8-0.8 0.6-1.2 0.4-1.2 0.1-0.8-0.2-1.8-1.1-1.7-0.4-2.1 0.2-2 0.5-1.7 0.7-1-0.2-0.1-0.2-5.3 0.2-0.9 1-1.7 0.1-1-3.3-3.7 1-3.9 4.9-1.3 2.3-2.2 0.7-7.9 1.1-7.4 1.2-2-1.5 0.2-3.7-2.2-2.9-0.8-2.4-6.3-2.9-1.2-0.3-1.7 1.3-4.8 5.9-1.8 4-1.7 0.5-3.6-3.3-0.6-3.4-1.7-1.3-2-4.6-0.8-0.4-10 5.5-9.2 4.7-2.7-0.1-1.9-1.2-0.6 0-1.4 2.3-12.5 2-3 3.1-3-1.5-2.6-0.8-1.3-4.1-0.9-2.6-2 0.1-2.8 1-1.1-0.7-1.5-4.5-4.2-1.6-2.6-1.1-4.4 0.6-6.7 1-2.6 1.2-1.8-0.1-0.8-1.4 0.7-3.9-0.2-3.5-1.3-1.3-3 0-3.7-1-3.8-4.4 0.7-2.2 2.2-2.3 0.7-3.6 0-2.3 2-3.8 1.1-3.6 2.7-2.5 3.5-1.1 5.7-0.4 1.8-1.1 1.6-4.2-0.6-1.2-2.2-1.5-0.7-1.9-0.5-6.2-3.5-4.1-3.6-3.6-0.8-4.2 0.8-11.4 9.1-16.6 2.1-3.6 4.8-6.2 1.2-3 2.1-0.6 7.4 2.1 1.8-1.2 1.4-2.3 1.5-2.1 0-4.2-1.2-3.7-2.1-7.5-2.9-4-3.7-6.2 1.1-3.4 5.6-7.4 1.8-3.2 4.2-13.1 0.9-7.4 14.1 0 4.6 0 12.3 0 17.7 0 0.3-0.1 0.1-0.7 0.1 0 9.1-2.9 0.8 3.4 6.6 0.3 2 0.5 1 1 1.8 7.2 3.3 10-2.2 3.4-4.3 7.4-3.9 3.2-4.6-0.2-9.4 2.6-2.5 0.2-1.6 5.5-2.1 5.1 0.3 2.6 0.4 2.2-1.1 1.5-0.5 4.4-2.5 2-0.1 1.7 9.2 5.8 10.3 6.3 3.6 2.5 5.8 8-1.7 8.4 0.4 2.8 5 2.1 4.5 0.7 9.2-1.6 2.7 0.2 0.7 2.4-0.8 3.3-1.6 1.5-0.1 1.7 1.6 2.9-1.2 5.3 0 3.5 1.3 3 3.6-2.3 1.6-0.4 2.2 0.5 3-0.6 0.9 0.3 1.4 1.5 2.6 1.9 5.6-3.2 4.5-1 3-0.3 1.1-2.7 5.1-9.1 6.9-5.4 3.4-0.9 1.7 0.7 2.7 5.5 1.9 8.6 3.1 6.4-0.1 6.2-0.3 0.5z" id="MLI2810" name="Ségou" data-id="MLI2810" data-name="Ségou">
 </path>
 <path d="M360.5 614.6l-0.9 7.4-4.2 13.1-1.8 3.2-5.6 7.4-1.1 3.4 3.7 6.2 2.9 4 2.1 7.5 1.2 3.7 0 4.2-1.5 2.1-1.4 2.3-1.8 1.2-7.4-2.1-2.1 0.6-1.2 3-4.8 6.2-2.1 3.6-9.1 16.6-0.8 11.4 0.8 4.2 3.6 3.6 3.5 4.1 0.5 6.2 0.7 1.9 2.2 1.5 0.6 1.2-1.6 4.2-1.8 1.1-5.7 0.4-3.5 1.1-2.7 2.5-1.1 3.6-2 3.8 0 2.3-0.7 3.6-2.2 2.3-0.7 2.2 3.8 4.4 3.7 1 3 0 1.3 1.3 0.2 3.5-0.7 3.9 0.8 1.4 1.8 0.1 2.6-1.2 6.7-1 4.4-0.6 2.6 1.1 4.2 1.6 1.5 4.5 1.1 0.7 2.8-1 2-0.1 0.9 2.6 1.3 4.1 2.6 0.8 3 1.5 2.1 3.2 0.1 2.5 0.8 2.1 0 1.7 2.2-0.4 3.2 2.5 1.2 2.7 2 1 5.4-0.4 1.8 0.9 0.3 5.4-2.2 5.6-2.2-0.2-4.2 1.2-1.8-0.1-1.7 0.9 0.2 2.8 0.1 1.5-0.8 0.6-2.9-2.8-3.1-1.1-3 0.2-2.7 2.9 0.1 2.9 0.7 4.6-3.8 3.7-0.7 2.5-1.4 3.9-0.9 2.4-1.4 3.1-1.7 0.2-2.8-1.3 0.5-3.6-1.1-1.1-5.2-0.1-7.8-3.6-4.4-1.2-1.8-2.2-1.6-0.6-3 0.6-0.1-5.8-1.2-1.4-2.8 0.7-1.8-0.8-2.1-2 0-3.4 1.9-4.4-0.1-2.2-2.3-7.5-1-6.8-0.7-1.8-3.3 1.3-2.5 4-2.6 1.7-2.1 0.9-0.8 3.2-1 1.7-2.2 0.9-6 3-1.5 1-1.5 3.1-2.4 5.7-1.9 1.5-4 1.9-6.4 2.8-6.9 3.8-4.6 3.5-1.5 0.6-4.4 4.3-2.2 1.3-5.1-1.3-3 0.2-7.7 2.9-3.9-0.1-2.1 1.1-3.4 7.7-2.3 2.9-0.8 0.8-0.3-1.3-0.3-0.8-1.6 1.3-1.6-0.2-3.3-1.5-0.7-0.9-0.7-1.1-0.5-1.3-0.2-1.1-1.3-4.4-0.8-0.6-0.9 0.2-0.9 0.4-1.3 0.2-1.1-0.3-1-0.7-1-0.4-1.1 0.1 3-15.8 0-0.7-0.4-0.7-0.4-0.5-0.3-0.7-0.1-1.3 0.1-1.2-0.3-1.1-1.1-0.9-1.2-0.2-1.4 0.1-1.3-0.1-1.2-0.9-0.2-1.2 0.3-1.3 0.9-2.4 0-1.4-0.5-1.4-0.8-1.1-0.9-0.5-1.1 0.5-0.8 0-0.4-0.7-0.2-0.6-0.6-1-0.2-0.6 0.1-1.6 0.6-1.3 0.8-1.3 0.6-1.3-0.1-1.4-0.7-1.4-1.1-1.2-2-1 1-1.2-2.1-1.5 2.5-4.7 2.5-1.9 2.3-2 2-3.9 2.3-1.2 2.7-0.4 2.8-0.9 2.4-1.5 1.5-2.2 1-0.8 5-2.8-0.7-1.4-0.9-0.9-0.5-0.9 0-1.6 0.6-1.5 2.7-4.3 0.5-1.8 0-1.5-0.5-3.3 0-0.9 0.3-0.7 0.3-0.6 0.3-0.8 0.2-4 0.3-1.3 0.4-0.7 1-1.2 0.4-0.7 0.2-0.7 0.2-1.3 1.2-3.8 0.3-0.8 0.5-0.7 0.4-0.3 0.4-0.1 0.7-0.4 0.6-0.9 0.2-1.2-0.2-1.3-0.3-1.1-0.7-1.1-1.7-1.8-0.7-1.6-0.5-0.7-0.5-0.5-0.6-0.5-0.4-0.4-0.1-0.7-0.7-6.5 0.2-1.2 0.6-0.9 1.6-1.6 0.5-0.8 1-2 0.6-0.7 0.8-0.7 0.5-0.8 0.2-1 0-0.9 0.2-1.3-0.1-1-0.7-2-1.2-1.2-1.6-0.6-2.1 0-1.2 0.4-0.4 0.6-0.2 1.5-1 2-0.1 0.9 0.9 0.1-0.8 1.5-1.6 0.2-5.2-0.9-1.1-0.9-1.7-3.2-0.6 0.7-0.5 0-0.4-0.4-0.3-0.7-0.4-0.5-0.5-0.3-0.6-0.1-0.6-0.3-1.9-1.6-0.3-0.5-0.2-0.8 0.2-0.3 0.4-0.2 0.3-0.4 0.3-1.3 0.2-0.5 0.5-0.6 0.3-1-0.3-2.2 0.3-0.8 1.3-0.5 1.1 0.4 0.9-0.1 0.4-1.8-0.1-1.4-0.3-1.3-2.7-6.7 5.2 0 2-0.9 2.4-0.7 2-2.8 1.4-3 1.4-0.4 1.3 0.7 1.2 1.4 1.8 3.4 1.7 1.5 1.7 0.2 2.7-0.5 4.4-0.6 3.3 0.7 2.7-0.5 3.9-0.5 1.8-1.2-0.2-1.1-1.5-4.8 0.4-1.4 0.2-1.9-0.8-1-4.4-1-3.8-3.9-3.7-2.7-6.2-4.6-1.3-2.2 0.3-3.5 0.3-5.4-1-4.1-0.9-1.4-3.9-0.8-6.4-0.4-3.9-2.7-2.8-7.3-0.5-4.9-0.5-1.5-2.7-3-8.6-4.8-1.7-1.6-3.3-2.6-2.9-2.4-1.2-1.4 7.4 0 6.5 0 13.4 0 13.3 0.1 8.6 0 18.7 0 40.7 0 10.3 0 10.3 0 20 0 21.4 0z m-98.2 183.5l0.7-1.4 0.1-1.8-0.2-2-0.3-1.6-0.9-1.4-1.3-0.8-1.6-0.4-1.6 0.2-1.4 0.6-0.8 1.3-0.3 1.7 0.3 2.4 0.6 1.5 1 0.6 0.5 0.8 1.2 0.4 1.9 0.5 2.1-0.6z" id="MLI4860" name="Koulikoro" data-id="MLI4860" data-name="Koulikoro">
 </path>
 <circle cx="350" cy="866.4" id="0">
 </circle>
 <circle cx="149.3" cy="690.2" id="1">
 </circle>
 <circle cx="397.1" cy="854.3" id="2">
 </circle>
</svg>