<?xml version="1.0"?>
<!--
************* Copyright (c) 2017 Pareto Softare, LLC DBA Simplemaps.com *******************		
************* Free for Commercial Use, full terms at  http://simplemaps.com/resources/svg-license ************
************* Attribution is appreciated! http://simplemaps.com ***************************
-->
<svg baseprofile="tiny" fill="#7c7c7c" height="2238" stroke="#ffffff" stroke-linecap="round" stroke-linejoin="round" stroke-width="2" version="1.2" viewbox="0 0 1000 2238" width="1000" xmlns="http://www.w3.org/2000/svg">
 <path d="M644.5 2234l0.1 1.2-1.1 1.8-0.6-3-0.5 0.1-0.3-0.6 0.5-1.1 1.7 0.5 0.2 1.1z m1-58.6l-0.6 1-0.9-1-0.5 0.6-0.2 0.6-0.7 0.9-0.2-0.9 0.4-1.6 1.4-1.4 0.3-1.6 0.9 0.4 0.1 3z m4.8-47.7l0.2 0.4-0.6 0.4-0.7-0.2-0.4 0.5-1.4 0.7-0.4 1.6-1 0-0.3-0.2-2.2-1.1-0.5-0.3-2.2-0.7-0.3-0.3 0.7-0.4 0.7 0 0.4 0.4 0.9-1.2 1.1-0.4 0.7 0.1 0.9 0.7 1.3 0.3 0.9-0.6-0.4-0.9 1-1.3 1.3-0.1-0.3 1.1 0.1 1.2 0.5 0.3z m32.1-49.7l-1.1 0.2-1-1.1-0.4-0.6 0.5-0.5 0.8-1.5 1.1 0 0.1 1 0.5 0.4 0.2 1-0.7 1.1z m26-29.5l-0.5 0.7-1.2-3.4-1.3-2.5 0.3-1.2 0.7 0.9 0.9 0.6 0.8 1 0 1.2 0.5 1-0.2 1.7z m-45.4-17.6l0.5 0.2 0 0.6-0.2 1.1 0.2 2.4 0 1.4-0.4-0.5-1.2-0.2-0.4 0.4-1.1-2.8-0.4 0.3-1.5-1 0.2-0.6 0.5-0.8 1.1 0 0.6 0.8 0.7-0.3 0.8 0.1-0.3-1 0.9-0.1z m-71.8-43.6l2 0.1 0.3-0.2 0.8 0 0.7 0.9 0 1.4-0.5 0.8-1.8 0.2-1.8-0.5-0.9-2.1-0.6-0.2-0.1-0.7 0.8-0.4 0.9 0.4 0.2 0.3z m27.4-38.3l-0.4 0.8 0.6 0.6-0.1 0.5-1 1-0.5 0.8-0.1 1.2-0.6-0.3 0.4-1.3-1.4-1.7-0.2-0.6 1.5-0.9 1.3 0.1 0.5-0.2z m73.4-1.2l-0.8 2.3-1.1-0.2-0.8-0.6 0-1.8 1-1.7 0.6-0.4 1.1 1 0 1.4z m6.7-20.2l-1.4 0.4-1.2-0.3-0.6-0.7 0.1-1.2 2.8-4.3 1.7-0.1 1.5 2-0.2 2.1-1.3 1.2-1.4 0.9z m-12.6-46.1l1.1 4.1-1.1-0.3-0.7-0.6-0.5-1.4-0.5-2.4-0.1-1.2-0.5-1.3 0.8 0 0.4 1.3 1.1 1.8z m17.2-48.6l-0.9 0-0.8-1.2-0.2-1.9-0.7-2.3 0.7-1.3 1.4-0.8 1.4 0.3 1 1 0.4 1.9-0.2 1.6-1 2-1.1 0.7z m-583.6-92.2l-0.8 0.7-0.5-0.2-0.3-0.9 0.1-0.6-0.1-1.1 0.6-2.1 0.7 0.9 0.1 2.2 0.2 1.1z m507.5-24.5l-0.1 1.2-1 2.8-1.8 1.4-0.7 0.9-0.5-0.4-0.5-1-0.1-0.9 0.7-0.4 0.8-2.7 0.6-0.1 0.4-0.3 0.6 0.2 1-0.6 0.6-0.1z m-4.5-23.9l-0.2 1-0.7-0.3-0.6-1 0.1-0.8 0.6-0.8 1.1-0.1 0.3 0.2-0.4 0.9-0.2 0.9z m-301.9-151.7l-1.8 0.7-1.8-0.2-0.4-1.5 2-1.7 1.3-0.9 1.5 1.6-0.8 2z" id="MMR99" name="" data-id="MMR99" data-name="">
 </path>
 <path d="M632.5 1092.1l-2.3 0.4-1 1.4-0.1 2.1 0.3 2.4 0.3 1.5 0.5 0.6 0 0.6-0.7 1.7-0.9 1.3-3.7 3.3-3.7 5.1 0 0.8 0.9 2.3 0.1 1.2 0.8 2.8 1.5 2.2 1 2-0.9 2.3-1 0.5-1.3-0.1-1 0.1-0.5 1.3 0.7 1.1 2.9 2.4 1 1.1 0.8 2.2 0.3 2.1-0.5 9.2-0.7 1.7-1.6 1.8-6.9 5.3-1.2 2.2-0.7 4.5-0.8 1.9-1.6 1.7-2.3 1.6-1.1 1.2 0.4 1.4 2.5 2.5 2.7 2 1.2 1.2 0.4 1.5-0.4 3.1 0.1 1 1.4 4.3 0.3 2.1 0.1 2.6 0.5 4.4 1.3 4.6 0.8 4.8-0.9 4.7-0.7 1.3-0.9 0.1-5.2 1.5-5.9-0.2-2.2 0.7-7.7 5.2-4.3 2.1-5.2-0.2-2.7 0.5-1.2-0.1-1.2-0.8-0.5-0.8-0.3-1-2.3-3.6-0.9-0.6-0.8-0.1-1.5-4.1-1.3-4.8-0.5-1-1-1.2-0.5-1-0.5-1.6-0.6-1.1-0.9-0.7-1.2-0.3-9.8 0.3-3.9-0.4-3.5-0.8-1.7 0.3-0.9-0.1-0.9-1.3-6.4-12.5-0.4-2.3-2.4-4-1.2-1-1-0.6-0.2-0.9 0.2-1.4 0.4-0.9-0.3-1.1-1.4-1.7-0.8-0.7-1-1.1-0.9-1.7-0.8-2.3-0.4-1.4 0-2 0-0.8-0.6-2.3-0.4-2.8 0.2-1.2-0.3-1.1-1.2-1.7-0.6-2-0.7-1.5-1.9-2.7-1-0.9-0.8-0.5-1.3-0.3-0.8-0.7-1.5-0.8-0.6-1.7-0.3-2.4-1-2.5-0.3-0.6-0.9-2.2-0.3-1.4 0.5-3.3 0-0.2 2.7-2.6 4-5 2.9-5.9 0-3.6-0.9-2.4-1.8-2.8-0.5-1-0.3-0.9 0.1-1.1 0.3-1.1 1.7-4 2.6-4.3 3.9-4.6 6-5 12-7.2 0.8-3.7 0.2-12.6 1-1.2 0.5-0.7 1-6.6-0.5-3.7 0.6-2.3 2.2-0.1 1.1 0.3 2.3 0.9 0.9 0.8 0.5 0.7 0.2 1.3 0.1 1.4-0.1 1.5 0.4 2.2 0.3 0.7 0.5 0.4 1.5 0.9 1.6 0.5 1.1 0.1 4-0.8 0.8-0.1 1.2 0.1 1-0.7 0.7-1.3 0.4-1.9 1.5-1.8 2.7-0.9 0.1 1.5 6 6.9 1.5 0.2 1.2-0.1 1.5-0.5 1.9-1.6 1.3-0.3 0.6 0.3 0.6 0.8 1.6 3.6 1.7 2.1 0.8 0.7 0.8 0.4 1 0.1 0.5 0.2 0.4 0.5 0 1.1-0.2 0.9-1.9 4.6-0.5 1.5-0.3 2 0.3 0.6 0.6 0.6 1.4 0.8 0.9 0.7 0.8 1 1.3 2.3 0.5 0.5 1.4 0.9 2.9 0.4 8.4 2.3 1-0.1 0.8-0.3 1.1-1 0.7-0.2 0.8 0.2 1.2 0.5 2.2 1.3 1.3 0.4 1.1 0.1 0.7-0.2 1.5 0.4 0.9 0.6 0.6 0.8 0.5 1.4 0.2 1.6 1.2 4.6z" id="MMR2473" name="Kayah" data-id="MMR2473" data-name="Kayah">
 </path>
 <path d="M518.4 1125.3l-0.5 3.3 0.3 1.4 0.9 2.2 0.3 0.6 1 2.5 0.3 2.4 0.6 1.7 1.5 0.8 0.8 0.7 1.3 0.3 0.8 0.5 1 0.9 1.9 2.7 0.7 1.5 0.6 2 1.2 1.7 0.3 1.1-0.2 1.2 0.4 2.8 0.6 2.3 0 0.8 0 2 0.4 1.4 0.8 2.3 0.9 1.7 1 1.1 0.8 0.7 1.4 1.7 0.3 1.1-0.4 0.9-0.2 1.4 0.2 0.9 1 0.6 1.2 1 2.4 4 0.4 2.3 6.4 12.5 0.9 1.3 0.9 0.1 1.7-0.3 3.5 0.8 3.9 0.4 9.8-0.3 1.2 0.3 0.9 0.7 0.6 1.1 0.5 1.6 0.5 1 1 1.2 0.5 1 1.3 4.8 1.5 4.1-2.4-0.3 0.7 1.3 2.4 2.2 1.2 2.2 0.5 1.8 2.5 5.3 2.8 4.5 0.4 2.5 0.1 2.7 0.6 2.9 1.5 2.6 2.3 2.3 2.4 1.8 2.2 1.3 1-0.9 0.5-0.9 2.1-5.6 0.2-0.2 1.2-0.3 5.7 2.3 1.4 0.8 0.7 1.8-0.1 2.1-0.8 1.8-1.7 0.8-0.3 1.1 1.3 2.4 5.7 7.9 0.4 0.8 0.1 1.7 0.3 1.4 1 2.1 0.2 1.3-0.1 0.7-0.5 1.1-0.1 0.6 0.2 1 0.9-0.1 2 1.1 0.2 0.5 0.3 1.4 1.7 3.9 0.8 1.2 0.5 1.4 0.2 1.4-0.7 0.9-3 2.1-3.2 5.5-0.7 1.8 1.5 5.5-2.5 0.3 0.9 1.7 1.4 1.1 1.1 1.4 0.5 1.6 0.6 1.3 2.7 2.3 0.9 1.2 0.3 1.2 0 1.3 0.1 1.5 0.7 1.6 1.1 1.5 18.3 17.1 1.6 1.1 2.6 1.2 1.2 0.8 1 1.1 0.5 1.7 2.4 3.9 1.2 3.4 0.7 1.6 1.5 1.5 1.5 0.8 1.6 0.6 1.4 0.8 0.6 1.6-0.1 1.5-0.4 2.4 0.3 1.5 0.9 1.2 9.5 9.1 1.7 1 2.1 1.7 3.9 5.7 2.6 1.7-1 1.1-0.5 1.3 0.3 1 2.9 0 0.1 0.9-0.6 1.1-0.4 0.3 1.4 2.7 1.6 1.5 1.9 0.6 5.4 0.1 2.3 0.6 2 1.3 2 2 1.2 1.8 1.8 3.8 1.2 1.5 0.7 1.6 0 1.9 0.4 1.7 1.8 0.8 1 0.7 0.7 1.6 1 3.3-1.4-1-1.3-0.3-0.9 0.5-0.2 1.7 0.4 1.4 1 0.6 1.1 0.4 0.8 0.9-0.3 1.3-1.3 1.5-1.8 1.1-1.7 0.5-1.3 1.9-0.9 2.2 0.3 2.1 3.2 2.6 0.6 1.3 0.8 3.1 1.5 2.2 3.9 2.7 1.6 2.1 0.5 1.2 0.2 1.1-0.1 1-0.3 1.3 0 1.2 0.7 1.2 6.8 9.1 0.9 2.1-0.2 1.2-1.1 2.4 0.1 1.3 1.5 3.3 1.6 8.4 0.7 1.7 2.1 1.5 1.8-1.3 3.3-5 6.7-5.4 1.5-2.7 0.9-4.8 0.9-1.8 2.3-2 0.4 4 2.1 2 2.6 1.7 1.9 2.8 0.1 2.1-1.1 5.1-0.5 5.2-0.6 1.8-3.1 3.7-1.4 2.1-0.7 2.3-0.2 2.4 0.1 2.7-0.6 1-2.6 2.9-0.9 0.7-1.7 0.3-0.8-0.5-0.7-0.8-1.3-0.7-6.8-0.8-1.9 0-2.3 1.2-1 1.9-0.7 2.3-1.5 2.3-1.2 1-0.9 0.5-0.9 0.1-1.4 0-1.2-0.3-1.3-0.6-1.3-0.2-1 0.9 0.3 1.6 3 4.3 0.8 2.3-0.4 2-1.3 4.5 0 2.8 0.9 4.8-0.3 2.1-3.5 11.6-0.3 2.7 0.6 6.2-0.2 6.5 2.6 17.2 0.2 5.8-1 5.4-2.9 3.4-0.4-2.5-1.6-1.8-2.3-1.4-2.3-1-2.1 1.2-1.8 0.7-3.9 0.8-0.8 0.5 0 1 0.4 1.9-0.1 1-0.6 0.7-1 0.5-0.4 0.6-0.4 1.2 0.3 0.3 1.3 0.9 0.3 0.6 0 1.8-0.3 0.8-0.8 0.2-1.6-0.7-3.8-2.3-2-0.8-2.6-0.4-1.3 0.3-3.9 5.6-1.7 1.7-1.9 0.9-0.9-0.1 0-1 0.2-2.4-0.3-1.4-1.1-3.1-0.7-1.5-0.6-0.6-2.2-1.5-1.1-0.8-1-1-2-2.8-1-1.8-0.9-2-1.6-2.9-0.6-0.5-1.2-0.8-0.5-0.7-3.7-7.7-0.3-0.5-1.7-1.7-1.1-1.2-0.5-1.1-1-2.3-0.8-1.1-1.2-1-1.1-0.8-2-1.7-0.5-1.1 0-1.6-0.1-0.9-0.4-0.8-0.6-0.5-1.4-0.4-2.5-2.3-3.2-0.8-0.6-1.1-0.2-0.9 0-1.1 0.3-0.7 0.2-0.9 0.4-0.7 0.9-0.8 0.2-0.7-0.3-0.8-0.8-1.4-0.2-0.8-0.1-1.7-1.1-1.9 0.1-1.9-0.2-0.6-1.5-3.2-1-1.7-0.2-1-0.4-3.8 0-2.1 0.3-0.9 0.2-0.9-0.2-3.8 0.3-1.2 0.4-0.6 0.3-1 0-1.6 0.2-0.7 1.3-1.9 0.2-1.1 0-1.3-1.2-1.7-0.3-2.2-0.4-0.9-2.2-3.6-0.4-0.8 0.1-1.1 4.7-0.7 6.2 0 0.9-0.1 0.5-0.3 3.3-0.9 4.7-0.1 0.8 0.1 2.1 1.6 2 0.7 1.1 0.5 1 0.3 1.1-0.1 0.8-1.3 0.5-0.6 1.8-0.7 1.5-1.1 1.2-0.6 0.6-1-0.2-2.5-0.4-0.6-1.5-1.1-1.6-1.6-0.5-0.6-0.4-1.1-1-0.6-0.3-0.8 0.2-1.4-0.2-1.3-0.4-0.7-0.7-0.9-1.3-0.8-1.4-2.3-1.1-1-1.4-0.8-0.9-0.1-1.3-0.9-0.4-0.6-0.2-0.8-0.5-4.1-0.6-2.4-0.2-1.4-0.3-0.8-0.4-0.4-1.5 0.5-0.8 0.2-2.9-0.2-1.3-0.3-0.6-0.4-0.7-1-0.6-2-0.8-1.2-0.6-0.5-1-0.6-2-0.7-0.7-0.4-0.4-0.6-0.2-0.8-0.3-0.5-0.4-1.4 0.5-2.6-1.1-0.3-4.4 2-1.3 0.3-0.8 0-0.4-0.2-3.5-3.7-1.2-0.8-0.5-0.9-0.7-0.7-0.8-0.5-1-0.3-1.1 0.7-0.3-2.6-0.6-0.7-0.5 0-1.6 0.5-1.7-0.2-1.1-0.9-1.5-2.1 0.2-1.5-0.2-0.8-0.6-0.8-2-0.8-2.1-2.3-3.6-4.6-0.5-1-0.2-0.9-0.2-1.8-0.4-1.7 0.3-1.3-0.1-1.7-1.9-2.3-0.2-1.2 0.2-1.5-0.4-0.9-1.2-0.9-0.7-0.7-0.5-1-1.3-1.8-0.3-1.1 0.3-1.3-0.2-2.3 0.3-1.4 0-0.9-0.2-0.8-2.2-2.8-0.5-1-0.6-3.9 0.1-1 0.2-0.6 1.3 0 0.6-0.4 0.5-1 0.2-0.8-0.4-1.3-0.4-0.8-0.1-1 1.8-1 0.3-0.7 0.1-0.7 0.4-0.8 1.3-0.5 0.9-1.6 0.2-0.7-0.1-0.9-0.6-1-1.8-5.1 1.4-1.9 0.1-1.1-0.3-1.3-0.8-1.8-0.9-2.9 0.1-1.4 1.3-1.4 0.5-1-0.2-1.4-0.8-2-0.8-1-0.9-0.8-0.4-0.6-1.2-2.6-1.1-1.5-1.2-4-0.3-2.4-0.8-2-0.6-0.8-0.2-1.1 1.4-6.5-0.2-1-1-1.1-2.2-1-1.6-1.6-0.4-0.7-2.4-6.2-0.3-0.8 0-1.1 0.8-2.5 0.4-0.7 2.4-1.7 0.6-1 0.1-1-0.2-0.6-0.5-0.6-0.6 0.3-0.6 0.9-0.7-0.1-0.7-0.4-0.9-0.1-0.8 0.5-0.3 0.8 0.2 1.8-0.3 0.6-0.8 0.5-1 1-1.5 2.7-0.2 0.4-0.1 1.9-0.2 0.7-1 2.1-0.9 0.5-2.7-1.1-1.2-0.2-0.4 0.2-1.7 2-1 0.6-0.8 0.8-0.2 0.9-0.2 1.7-0.7 0.3-0.9-0.1-2.4-1.6 0-1.4 0.4-1.2 0.2-4.6-3.7-9.4-0.6-2.5-0.2-1.7 0.4-0.7 1.3-1.9 0.3-0.6 0.6-2.3 0.3-2.5-0.1-1.4-0.3-1-0.6-0.4-1.3-0.7-0.5-1 0.1-1-0.4-1.7-4.8-10.2-0.2-1.1 0-0.9 0.5-1.4 0.8-1.2 1-0.9 0.8-1.1 0.4-1.4 0.4-0.6 0.9-1.1 1.3-3 0.3-1 0.2-2.7 0.3-1.3 1-1.7 0.4-1.6 0-1.1-0.2-0.9-1.1-1-4.2-3.2-1.7-2-0.1-1.9 0.2-1.4 0-3.1-0.4-2.1-1-2.9-0.7-1.2-0.8-0.4-0.7 0.1-1.2 1-0.6 1.7-0.5 0.5-0.7 0.1-1.1-0.5-0.5-0.7-0.4-0.7-0.1-0.6 0.3-1.7-0.2-1-0.4-0.7-1.6-1.6-1.3-0.9-1.8-0.8-1.3-0.7-0.8-0.9-0.9-1.3-1.6-2.8-0.6-1.5-0.1-1.2 0.7-1.5 0.5-1.5 0.1-2.5 0.9-3.9-0.1-2.3-0.7-2.8 0.1-1.7-0.1-1.2-0.5-1.2-0.5-0.8-0.6-0.7-1.3-1-0.4-1.5-0.4-0.8-0.5-0.5-0.6-0.2-1 0-5.4 1.6-5.5 3.2-1.2 0.4-0.9 0.1-1.8-0.6-1.8-0.3-1.1-0.3-0.9-0.3-1.4-1-1-0.4-0.8 0-0.7 0.3-1.4 1.3-1.4 0.7-0.8 0-0.6-0.5-0.4-0.7-0.4-1.5-0.3-0.7-2-2.3-0.8-1.7-1.3-3.9-3-5.4 0.1-2 2.9-3.4-0.2-1.7-1.5-2.2-1.2-1.9-0.2-1.6 0.5-1.2 0.9-1.1 1.4-1 4.3-2.9 0.6-1.5-0.6-1-1.1-1-0.4-0.6-0.6-1.6-0.9-1.2-3.4-3.1-3.5-2.6-4.3-4.2-2.3-3.2-0.6-1.2-0.5-1.1-0.4-2-0.3-0.6-0.9-0.4-0.5-1.7 0.6-0.8 1.4-0.9 2.1-2.2 0-0.9-0.3-0.6-1.3-0.6-0.6-0.7-0.6-1-0.6-2.7-0.9-2.2-0.9-1-0.5-1-0.7-1.9-0.6-1.1-1.4-1.6-0.2-0.7 0.5-2.1 0.1-2.1-0.3-1.1-0.3-0.9-0.6-0.6-1.3-0.8-0.7-0.7-0.7-0.8-0.8-1.6-0.3-0.9 0-0.8 0.5-1.9-0.2-0.9-2.8-3.8 11.8-1.1 2.2 0.3 2.1 0.9 2.6 0.5 1.9 0.7 0.2 0.6-0.3 0.7 0 1 0.5 0.8 0.9 0.2 0.8-0.8 1.6-0.5 1.5-0.7 0.6-0.5 0.6-1 1-1.1 1.2-1 0.6-1.1 0.7-0.9 2.3 3.4 0.7 2 0.3 0.4 0.8 0.4 1.4 0.1 1 0.4 1.4 0.8 4.8 3.5 3.1 1.7 1 1.1 0.5 1.4 1.5 2.5 0.3 0.8 0.1 0.8-0.7 1.4-0.1 2 0.1 1.7z" id="MMR3266" name="Kayin" data-id="MMR3266" data-name="Kayin">
 </path>
 <path d="M460.8 622.5l-0.1 1.9-0.4 1.2-1.5 1.1-0.5 1 0.2 1.9 0.7 1.4 0 0.9-0.3 0.3-0.7 0.3-1.4 0.3-2.4 2.5-1 0.7-0.6 0.5-1.1 1.7-0.4 1.1 0.5 1.8-0.1 0.4-0.6 0.7-1 0.4-0.3-0.1-1.2-1-0.8-0.3-0.9 0.1-0.6 0.4-0.1 1.4 0.6 1.5 0.4 0.7 0.7 0.8 0 1.2-0.6 1.5-0.4 1.7 0 2.4-0.1 2.7-0.2 1.2 0 1.3-0.6 1-0.8 0.9-0.3 0.7-0.2 1-0.4 0.6-1 0.7-0.4 0.6-0.2 1 0.3 1.7 0.3 0.9 0.6 1 2.5 2.4 0.9 1.1 0.8 1.9 0.3 0.9-0.1 0.7-0.5 1.2 1 1.3 5.3 3.3 9.5 0.6 8.6-1.6 1.6-0.1 2-0.7 0.5-0.1 1.9 0.1 0.9-0.3 1.3-1.7 1.7-0.7 0.7 0.1 0.9 0.5 1.6 1.3 1.4 1.5 0.5 0.2 1-0.1 0.9-0.4 0.7-0.4 0.6 0 0.1 1-0.3 0.8 0 1.3-0.4 1.3 0.4 0.6 3.1 2 0.9 0.4 1 0.2 3.4 0.1 1.8 0.3 3.3 1.6 0.7 0.7 0.2 0.8 0.2 1.4-0.6 0.9-1.4 1.4-0.6 1-1.4 1.8-1.1 1.8-0.6 1-0.4 1.2-0.2 2-0.3 0.5-2 1.8-0.5 0.3-1.5 0.1-1.3 0.9-1.1 0.2-2.6-0.9-3-0.2-1.6 0.4-2.3 1.6-3 1.5-0.4 0.4-1.4 0.4-4.6 0.4-0.9-0.6-1.2-1.1-0.9 0-0.8 0.5-1.2 0.5-0.9 0-1.6 0.9-0.4 0.4-2.1 0.2-4-0.3-1.6-0.3-1.2-0.5-1.3 0.3-2.7 2.1-4.3 2.7 1.4 2.7 0.1 0.7 0.1 1.9 0.1 0.5 0.6 0.1 1.2-0.4 0.4 0.5-0.2 4.3 0.2 1.2 1.2 2.4 0.8 1.3 3.7 4.4 0.4 0.8 0.3 1.6-0.3 2.7 0.1 0.8 0.7 1.1 0.5 0.4 1.4 0.3 0.7 0.8 1 2.2-0.1 1.4-0.5 1.6-0.3 1.3-0.1 3.3-0.8 3.2 0.5 2.5 0.8 0.7 1 0.3 4.3 0.5 1.5-0.2 1.3 0.1 1.1 1.1 1 1.6 0.7 0.7 0.6 1.6 0.5 4.8 1.8 1.4 1 1.5 1.8 4.3 0.2 1.5 0.1 2.3-0.4 1.9 0 1.4 0.6 0.6 1.2 0.6 5.8 1.8 2.8 1.9 1.7 0.3 4.3 1.3 3.7 1.9 2.4 0.7 3 0 1.4 0.3 1.8 1 1 1.5 0.8 5.5 1.1 3.3 0.6 1.2 2.8 3.1 0.4 0.6 1.6 3.4 0.5 1.6 3.2 3.9 0.7 1.5 0.1 1.5-0.2 1.6 0.2 1.4 1.5 0.7 0.9 0.7 0.3 0.8 0.2 1.1-0.1 1.4 0.1 0.5 0.7 0.9 0.3 0.8 0.2 1 0 1.9-0.5 1.2-0.6 0.2-0.8 0-2.6-0.6-0.7-0.2-0.9-0.7-0.7-0.7-1.4-1.1-0.4 0-0.7 0.5-0.4 1-1.5 1.9-5.4 2.3-1.4-0.1-0.5-0.6-0.7-0.3-1.3 0.4-0.9 1-1.4 1.1-1.1 1.2-0.7 1-2.5 3-0.7 0.7-0.6 0.7-0.3 0.8-0.6 1-3.8 2.9-0.9 0.9-0.7 0.4-1.6 0.4-1.9-0.1-1.1 0.3-8.2 4.2-1.9 0.2-1.6-0.1-5.8 1.2-3.5 0.2-0.6 0.4-0.4 0.7-0.7 1.7 0 1.5 0.9 1.4-0.8 1.1-4.7 2.9 0.3 3.4 1.3 7.2 0 1.1 0.7 1.3 0.3 0.8 0.1 1.5 0.5 1.6 1.6 8.2 0.2 0.4 1.7 2.1 0.7 1.3 0.6 1.7 0.6 1 0.3 1.3 0.6 1-0.4 1-0.8 0.6-0.6 0.1-1.7-0.3-1.5 0.1-1.3 0.3-1.7-0.4-0.8-0.4-0.7-0.1-2.5 0.6-2.8 1.5-1.7 1.4-0.2 1.2 0.7 3.2-0.2 1.2-0.9 1.5-0.7 0.6-0.4 1.7 0.6 6.1 3.8 3.3 0.9 0.7 2.1 0.7 2 0.4 3.2 1.2 4.7 2.3 1.1 0.3 1.9 0.8 1.3 0.2 2-0.7 0.8 0.2 4.1 3 1 0.6 0.5 0 0.8-0.3 1-1 1-0.7 0.6 0.2 0.7 0.8 1.4 1.9 0.8 0.6 0.7 0.3 0.8-0.2 0.8 0.1 1 0.6 1.5 1.7 0.5 0.9 0.4 1.4-0.2 1.2-1.3 1.5-0.4 1.1 0.1 2.8-0.4 2.4-3.4 0.3-2-0.2-1.5 0.1-1.3 0.8-0.6 1.4-0.6 0.6-3 2.4 0.6 2.6-0.6 1.6-0.3 0.4 0.1 1.3 0.9 1.3 1.1 0.7 0.8 0.8 1.6 2.8 0.8 2 0.5 0.5 1.1 0.2 0.8 1.2 0.8 0.4 1-0.5 0.4 0 0.4 0.7 0.1 1.2-0.3 3.1 0.1 1 0.3 1.8 0 0.5-0.3 1-1.6 0.8-4 0.1-0.4 1 0.7 1.8 0.1 1.1-0.4 0.6-0.9 1-0.6 1-0.2 1.9-0.5 1.8 0.1 1.1 1.2 5.6 0.8 2.6 0.7 1.5 3.8 9.7 0.8 1.3 0.4 0.7 0.1 1.1-0.1 0.8-0.9 1.3-2.9 2.6-1.5 0.9-1.1 1.8-1.1 1.2-2 1.2-0.6 0.5-0.3 0.9 0.6 2.7 0.1 1.4 0.4 0.6 1.1 0.6 0.6 1 0 1-0.4 0.6-1 0.9-0.5 0.8-0.5 1-0.9 1.3-1 0.8-1.2 0.1-1.2-0.9-0.9 0.2-1.2 0.8-0.4 0-1.2-0.4-0.4 0-0.6 0.6 0.1 1.2 0.2 0.8 2.2 4.2 5.8 7.7 0.7 2-0.5 1.3 0 1.3 0.3 0.5 0.6 0.4 1.3 0.6 1.4 0.1 2.1-0.8 1.3-0.2 1.4 0.3 1.1 0.4 1 1.5 1.5 3.2 0.7 1.2 4.5 5.4 1.4 2.5 2.9 1.8 1 1.1 0.4 0.6 0.3 0.9 0 0.9-0.6 1.2-0.7 0.6-1.5 0.8-0.6 0.6-0.8 1.9-0.5 0.6-0.7 0.4-2.6 1.1-1.3 0.1-0.7 0.3-1.2 0.8-0.3 0.6-0.1 0.6 0.2 0.8 0.5 0.8 1.9 1.2 1.9 0.6 1.2 0.6 1.2 0 1.9 0.2 1.5-0.2 0.8 0.5 0.8 0.9 1.4 3.1 0.4 1.9-0.7 2.6-0.7 0.9-0.6 1.1-1.2 1-1 1.1-0.6 1-0.6 0.5-1.5 0.7-1.6 0.5-0.8 0.8-0.9-0.2-0.5-0.8 0-1 0.3-0.7-0.2-0.6-1.9-0.7-2.6-0.5-2.1-0.9-2.2-0.3-11.8 1.1-7.3-0.6-2.9 0.1-1.7 0.3-1.4-0.1-0.7-0.2-1.8-0.5-6.3-0.1-1-0.2-0.7-0.4-0.7 0.2-0.9 2.4-0.3 1.4-0.5 0.9-2.2 1.1-1.1 1.2-1 0.7-1.3 0.2-1.2-0.4-0.8-0.7-1.6-1.1-1-1.2-0.6-0.2-4.7-0.6-1.2-0.4-1-0.5-1.3-0.9-3.1-1.3-1.2-0.3-0.7-0.1-1.3 0.3-2.3 0.3-0.7 0.4-0.6 0.5-0.4 0.6-0.1 1-0.4 0.5-1 0.6-2.8 0.2-0.7-0.1-0.7-0.3-0.9-0.7-1.1-0.5-3.1-0.7-2.6-0.9-2.8-2.1-0.9-1.1-0.5-1-0.8-3.5-0.8-8.6 1.2-4.6 1.4-2.8 0.5-0.6 1-0.8 0.7-1 0.7-2.2 0.3-1.2 0-0.8-0.3-0.7-0.8-1.2-0.1-1 0.1-0.7 1.8-3 0.3-1.1 0.3-1.7 0.5-1.2 1.3-0.3 0.9-0.8 0.3-1.2-0.8-2 0-2.7-0.3-0.9-0.3-0.6-1.3-1.4-0.2-4.3-0.7-2.2-0.3-0.4-1.6-1.1-0.1-1 1.4-2.2 0.8-1.2 0.2-1.6-0.7-3.1 2.2-1.7 0.4-1 0-1.3 0.4-1.3 1.8-2.4 0.5-0.9 0.3-1.3-0.4-0.9-1.5-0.7-0.6-0.4-0.7-0.9-0.2-0.7-0.6-3.5-0.8-1.6-0.5-1.1-0.5-0.8-0.3-0.7-0.6-2.7-0.6-1.2-0.8-0.9-0.7-1.4-1.3-4.9-0.5-1.9 0.6-0.9 0.6-0.7 0.9-1.5 0.3-1.5-1.1-2.7-0.7-1.5-0.5-1.8-0.8-4.9-1.3-3.5-9.4-17.3-0.6-5.1-0.4-4.3-0.5-1.1-1-1.6-0.8-0.7-1.7-0.8-4.6-0.7-4.3-0.1-0.9 0.1-1.7 0.3-1.2 0.7-2.3 2.5-1.4 1.1-4.2 1.6-5.3 1.4-2.5 1.3-4.5 3.8-1 0.5-1.7 0.5-2.9-0.3-1.4 0.1-3.1 0.8-1.6 0.9-4 3.6-1.1 1.2-1.2 5.1-0.7 1.7-0.6 0.5-0.9 0.2-0.8-0.4-0.9-1.1-2.8-5.3-0.6-2.5 0.1-2.7 0.5-1.7 0.4-2 0.1-1.3-1.4-7.2-0.1-1.6 0.4-1.2 1.1-2.1 0.4-0.7 0.4-1 0.4-2.1 0-1.8-0.2-0.7-0.7-1-2.9-2.5-5.3-2.5-5.8 0.3-2.4-0.4-2.7-1-4.3-2.6-3.1-2.6 0.2-1.4-2.6-0.9 0.6-2.3-0.4-5.1-1.8-10-0.1-5.2 0.4-2.4 0.7-2.7 1.1-2.2 1.6-1.1 1-1 0.6-0.4 0.8-0.2 0.8 0.2 5.2 0 7.2-2.2 1.2-0.7 0.5-3 1.3-2.6 2.2-1.7 2.9-0.4 1 0.3 1.4 1.1 0.9 0.2 4.6-0.8 2.5-0.7 1.9-1.9 3.6-4.8 7.1-6.1 1.9-2.4 0.9-0.8 0.7-0.5 1.1-0.1 1 0.3 0.9-0.2 0.8-1.6 1 0.2-0.6-8.8 0.3-1 1.1-5.9 0.6-1.6 0.7-1.5 0.7-1 0-0.8 1.5-3.4 1.2-5 1.8-1.4 14.1-3.1 2.5 0 1.8 0.6 3.7 3.8 6.9 9.7 9.5-1.3 2.5 0.6 0.7 0.8 5.4-6.4 1.7-3.1 3.7-14.3 1.7-3.1 1.1-1.1 2.1 0.5 2.6-0.1 2-0.5 2-0.7 2.2-1.2 3.1-2.3 2.3-3.3 1.1-3.9-0.4-4.5-2.5-7.7-2-3.7-0.8-8.2-1.4-7-0.3-6.5 0.2-1.3 0.4-1.3 0.6-0.8 1.2-1.2 0.8-1.7-0.1-1.1-2.6-2.5-2.1-2.6-0.7-2.1 0.1-9.6 0.5-2.4 1.4-2.2 0.9-2.3-0.5-2.5-7.6-13.4-1.7-5.4 1-3.9 1-0.5 2.6-0.1 1.3-0.7 0.8-1.1 0.3-1.2 1.2-46.4-0.9-2.9-1.3-5-0.7-2.1-0.8-1.5-0.6-1.5-3-10-0.2-1.7 0.1-2.5 0.8-2.6 0.9-2.3 2.3-3.9 6.9-8.5 1.2-2.4 0.2-1.5 1.7-3.7 2.4-2.9 2.8-2.4 2.5-0.3 0.9 0.2 1.4 0.9 0.9 2.4 0.1 1.6-0.2 1.5-0.7 1.9-0.3 1.3 0.1 1.7 0.6 1 1 1 3.7 1.7 2.3 0.7 2.8-0.6 5-2.7 1.8-0.5 1.1 0 3.5 3z" id="MMR3267" name="Mandalay" data-id="MMR3267" data-name="Mandalay">
 </path>
 <path d="M469.4 1103.9l2.8 3.8 0.2 0.9-0.5 1.9 0 0.8 0.3 0.9 0.8 1.6 0.7 0.8 0.7 0.7 1.3 0.8 0.6 0.6 0.3 0.9 0.3 1.1-0.1 2.1-0.5 2.1 0.2 0.7 1.4 1.6 0.6 1.1 0.7 1.9 0.5 1 0.9 1 0.9 2.2 0.6 2.7 0.6 1 0.6 0.7 1.3 0.6 0.3 0.6 0 0.9-2.1 2.2-1.4 0.9-0.6 0.8 0.5 1.7 0.9 0.4 0.3 0.6 0.4 2 0.5 1.1 0.6 1.2 2.3 3.2 4.3 4.2 3.5 2.6 3.4 3.1 0.9 1.2 0.6 1.6 0.4 0.6 1.1 1 0.6 1-0.6 1.5-4.3 2.9-1.4 1-0.9 1.1-0.5 1.2 0.2 1.6 1.2 1.9 1.5 2.2 0.2 1.7-2.9 3.4-0.1 2 3 5.4 1.3 3.9 0.8 1.7 2 2.3 0.3 0.7 0.4 1.5 0.4 0.7 0.6 0.5 0.8 0 1.4-0.7 1.4-1.3 0.7-0.3 0.8 0 1 0.4 1.4 1 0.9 0.3 1.1 0.3 1.8 0.3 1.8 0.6 0.9-0.1 1.2-0.4 5.5-3.2 5.4-1.6 1 0 0.6 0.2 0.5 0.5 0.4 0.8 0.4 1.5 1.3 1 0.6 0.7 0.5 0.8 0.5 1.2 0.1 1.2-0.1 1.7 0.7 2.8 0.1 2.3-0.9 3.9-0.1 2.5-0.5 1.5-0.7 1.5 0.1 1.2 0.6 1.5 1.6 2.8 0.9 1.3 0.8 0.9 1.3 0.7 1.8 0.8 1.3 0.9 1.6 1.6 0.4 0.7 0.2 1-0.3 1.7 0.1 0.6 0.4 0.7 0.5 0.7 1.1 0.5 0.7-0.1 0.5-0.5 0.6-1.7 1.2-1 0.7-0.1 0.8 0.4 0.7 1.2 1 2.9 0.4 2.1 0 3.1-0.2 1.4 0.1 1.9 1.7 2 4.2 3.2 1.1 1 0.2 0.9 0 1.1-0.4 1.6-1 1.7-0.3 1.3-0.2 2.7-0.3 1-1.3 3-0.9 1.1-0.4 0.6-0.4 1.4-0.8 1.1-1 0.9-0.8 1.2-0.5 1.4 0 0.9 0.2 1.1 4.8 10.2 0.4 1.7-0.1 1 0.5 1 1.3 0.7 0.6 0.4 0.3 1 0.1 1.4-0.3 2.5-0.6 2.3-0.3 0.6-1.3 1.9-0.4 0.7 0.2 1.7 0.6 2.5 3.7 9.4-0.2 4.6-0.4 1.2 0 1.4 2.4 1.6-0.5 1.4-1.4 1.3-1.9 1.3-6.4 2.9-2.2 0.5-0.7-0.4-0.7-2.5 0-1.3-0.4-1.2-0.7-1-1.5-1.4-1.6-0.8-1.1-0.2-2-0.7-1.1-0.8-2.4-3.3-1.1-0.9-1.6-0.2-1.6-0.6-1.5-0.3-1 0.7-0.8 0.2-1.5-0.1-1.2-0.4-1.2 0.3-2 0.9-0.8 3.8-0.1 13.1-1.2 1.8-0.9 4.4-0.9 1.8-1.2-1.7-0.3-0.7-1.4 0.8-0.9 0.9 0.8 0.7 2.5 3.3 3.7 2.4 2.9 2.6 0 3.7-2.2 2.8-2.8 2.4-1.8 3.2 0.7 5.1 4.4 7.8 1.6 4 0.1 4.9-0.6 1.7-2 3.6-0.9 5.2-1.2 0.7-3.7-0.9 0.3 1.1 0.5 1 0.7 1 0.8 0.9-1.4-0.1-2.5-0.6-1.4-0.1 0 0.8 1.5 0.8 0.6 0.5-1.6-0.6-4-3.6-3.6-4-0.9-0.8-1-0.5-1.3-0.5-6-1.1-9.7-0.9-14.3 1-5.5-0.5-0.4-2.9 0.6-5.2-0.1-1.6-0.9-4.4-1.3-2.7-2.1-3.4-1.6-2-0.9-1.3-0.6-1.6-3.9-17.2-0.9-2-20-34.9-3.5-8.3-0.8-1.2-0.7-0.6-1-0.3-1.3 0.4-1.4 1-2.8 3.5-1.4 2.2-1.4 1.2-1.8 1.4-6.4 3.5-1.4 1.6-2.8 5.2-1.8 2.3-3.6 2.9-2.6 1.3-2.1 2.3-3 5.9-5.9-9.2-2.3-2.9-2.6-1.8-7.5-2.8-3.4-1.8-2-0.4-1.8-1.1-1.6-1.3-1.1-1.2-2.1-3.5-1.7-4.7-0.9-5.1 0-2.4 1.4-1.4 2.1-2.3 0.4-1.7 0-4.7 0.5-3 0.1-1.4-0.4-0.7-2-2.1-2.7-2.1 1.1-4.6-0.5-4.3-4.2-12-0.6-1.1-0.4-1.1 0.1-2.6-0.5-1.1-0.5-1-0.8-2.9-0.6-1.3-0.6-0.6-1.8-1.2-0.6-0.6-4.8-5.7-2.7-2.3-0.5-1.1-1.2-1-1.4-1.9-6.9-9.1-2-1.8-1.8-2-1.1-0.8-7.6-5.9-1.9-2.6-0.5-2.1 0.4-2.1 0.8-2.5 0.2-5.1 0.5-2.6 1.7-1.4 0.4-1.7 0.3-0.5 0.5-0.1 1.2 0.2 0.5-0.1 3.5-1.5 1.1-0.7 2.5-2.5 2.1-3.5 0.9-4.4-1-5-1.2-2.1-1-1.1 0-1.5 0.5-1.5 2.8-2.6 5.7-3.6 1.5-1.3 0.7-1.5 0.5-1.9 0.1-4.8 1.8-2.4 8.2-1.6 5.8-7.2 3.4-1.8 6.7-2 2.4-0.3 6.5 0.2 14.7-2.2 3.3 0 2.5 0.4 2.9 1.8 0.7-0.3 0.5-0.6 0.2-0.9 0-2.8 0.2-1.3 0.6-1 1.5-1.2 0.4-0.9 0.6-4.3 0-3.2-0.2-2-0.3-1.1-0.7-1.3-2.6-3.6-0.4-1.8-0.2-1.9-0.8-3.5-1.2-2.3 0.1-1.3 3.1 0.7 1.1 0.5 0.9 0.7 0.7 0.3 0.7 0.1 2.8-0.2 1-0.6 0.4-0.5 0.1-1 0.4-0.6 0.6-0.5 0.7-0.4 2.3-0.3 1.3-0.3 0.7 0.1 1.2 0.3 3.1 1.3 1.3 0.9 1 0.5 1.2 0.4 4.7 0.6 0.6 0.2 1 1.2 1.6 1.1 0.8 0.7 1.2 0.4 1.3-0.2 1-0.7 1.1-1.2 2.2-1.1 0.5-0.9 0.3-1.4 0.9-2.4 0.7-0.2 0.7 0.4 1 0.2 6.3 0.1 1.8 0.5 0.7 0.2 1.4 0.1 1.7-0.3 2.9-0.1 7.3 0.6z" id="MMR3268" name="Bago" data-id="MMR3268" data-name="Bago">
 </path>
 <path d="M516.9 1405.2l0.8 0.6 1.1 1.3 0.5 1.6-0.2 1.8-1.6 2.6-0.7 2.7-1.6 4-1.7 0.2-0.7 0.8 0.1 1 1.1 1.1-1.9 2.9-1.9 1.8-4.5 3.2-1.1 1.3-1.9 3.3-2.1 6.4-4.4 3.4-2.7 3.1-6.3 2.5-6.8 1.5-6.8 0.7-4-3-2.6-0.5-2.2-1.2-7.5-5.6-1.8-1.8-0.8-1.7-0.1-2.9-0.4-2.2-0.6-1.9-2.3-4.7-0.7-2.4-0.3-2.4-0.1-2.5 1-1.8 4.5-3 1.3-1.2-3.2-0.4-5.7 4.5-3.9 0.7 0.6 1.1 1.9 2.2 0.4 1 0.8 4.4 1.1 1.9 2.9 3.4 0.6 2.2-0.3 1.4-1.1 2.5-0.2 1.2 0.3 1.3 1.3 2.5 5.4 7.3 1.7 3.1 1.9 1.3 1 1.6-1.7 2.8-1.8 1-2.1 4.7-7.1 2.5-6.4 1.4-2.2 0.9-2.8 0.3-2.4-0.7-1-2.5-1.2-1.3-7.9-3 1.2 1-1.2-0.5-1.1-1.3-1.7-0.6-5.6-0.1-2.2-0.4-0.7-0.3-2.4-1.4-1.8-2-0.2-1.6-0.7-1.3-1.9-1-1-1.2 0.6-1.7 0.5-0.8 4-3.9 0.8-1.1 0.4-1-0.3-1.2-0.6-1.1 0.2-4.7-0.7-1.8-0.5-0.4-1.2-2.3 1.6-0.9 1.2-1.2 1.5-3.9 0.7-4.4-0.8-3.2-1.8-3.2-1.2-2.5 0-2.8 0.9-2.1 0.3-0.5 2.4-4.6-0.4-3.2-2.3-2.9-2.3-2.2-0.8-1.4-0.2-0.9 0-4.2-0.9-1.6-1.5-1.5-1.7-3-1-2.4-0.9-1.4-2.8-2.8-2.3-1.7-1.1-1.3-0.6-1.1-0.4-1.1-0.7-0.8-2-1.5-1.7-7.6-0.1-3.3 1-4.7 0.7-2.2 3.2-6.7 1.3-5.2 3-5.9 2.1-2.3 2.6-1.3 3.6-2.9 1.8-2.3 2.8-5.2 1.4-1.6 6.4-3.5 1.8-1.4 1.4-1.2 1.4-2.2 2.8-3.5 1.4-1 1.3-0.4 1 0.3 0.7 0.6 0.8 1.2 3.5 8.3 20 34.9 0.9 2 3.9 17.2 0.6 1.6 0.9 1.3 1.6 2 2.1 3.4 1.3 2.7 0.9 4.4 0.1 1.6-0.6 5.2 0.4 2.9 5.5 0.5 14.3-1 9.7 0.9 6 1.1 1.3 0.5 1 0.5 0.9 0.8 3.6 4 4 3.6 1.6 0.6z" id="MMR3269" name="Yangon" data-id="MMR3269" data-name="Yangon">
 </path>
 <path d="M610.3 1563.8l-0.5 1.6-0.8-2.3-0.7-7.9 1 1.4 0.5 1.7 0.8 1.8 0.1 1.9-0.4 1.8z m-10.8-81.3l-2.7 2.6-3.4-1.1-0.7-5.2-1.2-1.7-4.5-3.7 1.1-3.6 1.5-1.1 0.3-2.5-0.5-3-0.9-2.2-1.3-2-0.7-1.3-0.2-1.4 0.4-0.8 0.7-0.6 0.4-0.7-0.7-1.2 1.1-1.5 1.8-1.2 2-0.8 1.8-0.3 4.6 2.1 2.6 0.7 2.3 0.3 0.4 2.3 0.1 2-2.3 3.6-0.1 1.8 0.3 4.5-0.2 2.4-0.6 1.3-0.8 0.9-0.6 1.1-0.3 1.5 0.1 1-0.4 4.2 0.6 3.6z m70.5 115.6l-3.3-0.1 0 1.3 1.5 3.4-0.6 2.2-2.3 4-0.5 2.2 0.9 2.7 3.4 3.6 0.6 2.5-0.4 1.2-0.6 1-0.5 1.1 0 0.9-6 0.2-2-0.2-1.3-0.3-1.1-0.6-1.1-1.1-1.3-1.6-4.3-7.2-0.9-1.1-0.9-0.3-0.9 0.2-2.9 1-2 0.5-3.8 0.4-1.3 0-2.2 0.3-0.7 0.7-0.5 1-0.6 4.2-0.7 3-0.9 2.6-1.9 3.9-2.2 3.6-1.6 1.7-2.8 2.1 0.6-1.2 0.2-1.2 0-2.7 0.2-1.3 1.1-1.6 0.2-1-0.3-2.9-1-1.7-1.4-1.2-1.9-1 0.6-0.9 0.8-0.6 1.1-0.2 1.3 0.2-0.5-0.9-0.6-1.5-0.4-0.8 1.3-1.9 0.4-2.3-0.4-9.2 0.4-1.8 1.4-2.1-3.1 0-1.7-0.3-1.2-1.3-2.9-5-0.2-1-0.1-1.9 0.2-3-0.4-1.3-1.3-1.2 0.3-1.1 0.5-0.7 0.8-0.4 1-0.2 1.2-3.9 0.7 0.6 0.9-0.5 2.2-1.7-0.9-1.3-2.8-8.2 0-1.5 1.4-3.2-0.8-1.4-2.7-7 0.1-0.7 0.4-0.8 0-1-0.3-0.9-0.5-0.8 0.5-1.1-0.1-1.7-0.6-1.7-0.9-1.4-0.5-1.1 0.2-1 0.5-0.9 0.2-0.9-0.3-0.9-1.6-1.8-0.4-0.9 0.1-0.7 1-1 0.4-0.7 0-7.5-0.6-1.5-1.7-0.5 0.7-3.1-2.3-2.9-6-4.2-3.1-4-3-2.9-0.7-1 0-0.6-0.8-4.6 0.1-1.2 0.2-0.8 0.6-0.6 1-0.2 1.6-0.7 1.3-1.7 0.8-2.1 2.2-13 1-2.4 0.3-1.4-0.1-1.5-0.4-1.1-1-2.2-1.2-4.5-0.4-5 0.4-5 1.2-4.6 1.6-3.4 2.4-3 3.3-2.2 4.1-0.8 1.2 0.8 3.5 3.7 0.4 0.2 0.8 0 1.3-0.3 4.4-2 1.1 0.3-0.5 2.6 0.4 1.4 0.3 0.5 0.2 0.8 0.4 0.6 0.7 0.4 2 0.7 1 0.6 0.6 0.5 0.8 1.2 0.6 2 0.7 1 0.6 0.4 1.3 0.3 2.9 0.2 0.8-0.2 1.5-0.5 0.4 0.4 0.3 0.8 0.2 1.4 0.6 2.4 0.5 4.1 0.2 0.8 0.4 0.6 1.3 0.9 0.9 0.1 1.4 0.8 1.1 1 1.4 2.3 1.3 0.8 0.7 0.9 0.4 0.7 0.2 1.3-0.2 1.4 0.3 0.8 1 0.6 0.4 1.1 0.5 0.6 1.6 1.6 1.5 1.1 0.4 0.6 0.2 2.5-0.6 1-1.2 0.6-1.5 1.1-1.8 0.7-0.5 0.6-0.8 1.3-1.1 0.1-1-0.3-1.1-0.5-2-0.7-2.1-1.6-0.8-0.1-4.7 0.1-3.3 0.9-0.5 0.3-0.9 0.1-6.2 0-4.7 0.7-0.1 1.1 0.4 0.8 2.2 3.6 0.4 0.9 0.3 2.2 1.2 1.7 0 1.3-0.2 1.1-1.3 1.9-0.2 0.7 0 1.6-0.3 1-0.4 0.6-0.3 1.2 0.2 3.8-0.2 0.9-0.3 0.9 0 2.1 0.4 3.8 0.2 1 1 1.7 1.5 3.2 0.2 0.6-0.1 1.9 1.1 1.9 0.1 1.7 0.2 0.8 0.8 1.4 0.3 0.8-0.2 0.7-0.9 0.8-0.4 0.7-0.2 0.9-0.3 0.7 0 1.1 0.2 0.9 0.6 1.1 3.2 0.8 2.5 2.3 1.4 0.4 0.6 0.5 0.4 0.8 0.1 0.9 0 1.6 0.5 1.1 2 1.7 1.1 0.8 1.2 1 0.8 1.1 1 2.3 0.5 1.1 1.1 1.2 1.7 1.7 0.3 0.5 3.7 7.7 0.5 0.7 1.2 0.8 0.6 0.5 1.6 2.9 0.9 2 1 1.8 2 2.8 1 1 1.1 0.8 2.2 1.5 0.6 0.6 0.7 1.5 1.1 3.1 0.3 1.4-0.2 2.4 0 1z m-55.9-156.2l-5.6 3.9-2.5 0.9-1.9 0.2-7.2-0.9-2.8 0.2-2.6 0.5-0.6 0.4-1.1 1-0.9 0.2-0.6-0.1-1.3-0.5-0.7-0.1-3.3 0.1-2.2 0.8-1.8 1.5-1.8 2.3-3.7-17.1 0-2.8-0.8-2.8-2.1 3.2-2.8-0.8-3.4-4.5-1.6-3.9-1.2-4.3 0-3.2 1.7-2.4-1.1-1.4-0.2-1.2 0-1.1 0.8-3-0.8 0-1 2.5-0.4 1.5-0.1 1.7-1.2-0.9-0.5-1.4 0-1.7 0.1-1.7 1.6-3.1-0.9-0.7-1 0.1-1.2 0.6-1-2.3 0.4-3 1.4-5.8-0.1-1.9-0.4-0.9-1.8-2-0.7-0.9-0.8-1.5-0.7-1.7-0.2-1.5 2-3 3.1 0.8 3.4 1.2 3.1-1.4-4.3-2.1-2.2-0.7-2.3-0.3-2.7 0.6-1.1 1.4-0.7 2.1-1.2 2.3-1.8-2.5-1.6-3.8-0.4-3.7 1.5-2 0-0.8-2.4-0.5-0.7-1.9-0.4-2.5-1.1-2.3-2.2-1.1-2.8-0.8-1.8-1.2 0.7-2.4-12.1-8.9-1-1.1-0.6-1.1-0.3-2 0.1-3.8-0.6-1.5 0.1-13.1 0.8-3.8 2-0.9 1.2-0.3 1.2 0.4 1.5 0.1 0.8-0.2 1-0.7 1.5 0.3 1.6 0.6 1.6 0.2 1.1 0.9 2.4 3.3 1.1 0.8 2 0.7 1.1 0.2 1.6 0.8 1.5 1.4 0.7 1 0.4 1.2 0 1.3 0.7 2.5 0.7 0.4 2.2-0.5 6.4-2.9 1.9-1.3 1.4-1.3 0.5-1.4 0.9 0.1 0.7-0.3 0.2-1.7 0.2-0.9 0.8-0.8 1-0.6 1.7-2 0.4-0.2 1.2 0.2 2.7 1.1 0.9-0.5 1-2.1 0.2-0.7 0.1-1.9 0.2-0.4 1.5-2.7 1-1 0.8-0.5 0.3-0.6-0.2-1.8 0.3-0.8 0.8-0.5 0.9 0.1 0.7 0.4 0.7 0.1 0.6-0.9 0.6-0.3 0.5 0.6 0.2 0.6-0.1 1-0.6 1-2.4 1.7-0.4 0.7-0.8 2.5 0 1.1 0.3 0.8 2.4 6.2 0.4 0.7 1.6 1.6 2.2 1 1 1.1 0.2 1-1.4 6.5 0.2 1.1 0.6 0.8 0.8 2 0.3 2.4 1.2 4 1.1 1.5 1.2 2.6 0.4 0.6 0.9 0.8 0.8 1 0.8 2 0.2 1.4-0.5 1-1.3 1.4-0.1 1.4 0.9 2.9 0.8 1.8 0.3 1.3-0.1 1.1-1.4 1.9 1.8 5.1 0.6 1 0.1 0.9-0.2 0.7-0.9 1.6-1.3 0.5-0.4 0.8-0.1 0.7-0.3 0.7-1.8 1 0.1 1 0.4 0.8 0.4 1.3-0.2 0.8-0.5 1-0.6 0.4-1.3 0-0.2 0.6-0.1 1 0.6 3.9 0.5 1 2.2 2.8 0.2 0.8 0 0.9-0.3 1.4 0.2 2.3-0.3 1.3 0.3 1.1 1.3 1.8 0.5 1 0.7 0.7 1.2 0.9 0.4 0.9-0.2 1.5 0.2 1.2 1.9 2.3 0.1 1.7-0.3 1.3 0.4 1.7 0.2 1.8 0.2 0.9 0.5 1 3.6 4.6 2.1 2.3 2 0.8 0.6 0.8 0.2 0.8-0.2 1.5 1.5 2.1 1.1 0.9 1.7 0.2 1.6-0.5 0.5 0 0.6 0.7 0.3 2.6z" id="MMR3270" name="Mon" data-id="MMR3270" data-name="Mon">
 </path>
 <path d="M168.3 1174.5l2.7 0.1 3.8-0.5 0.8 0.9 0.3 2.8-0.7 3.5 0 1.3 0.3 1.4 1 2.7 0.2 1.1-0.4 2.8-1 2.7-1.6 2.2-2.3 1.6-2 0.3-2.8-0.1-2.5-0.5-1.1-0.9-0.6-1.5-1.3-1.4-2.7-2.3-10.7-12.9-0.5-1-1-3 10.3-0.8 2.5-1 1.3-1.7 1.2-0.6 2.2 2.5 2.4 1.8 1 0.4 1.2 0.1z m13.3-72.6l1.8 1.9 1.9-1 2.4-0.3 2.4 0.4 2.1 1.3 2.1 1.6 4.2 2.6 1.7 1.8 0.3 1.7-0.2 2.4-0.7 2.2-1.3 1-1.5 0.7-2.6 3.6-2.4 2-0.7 0.2-0.6-0.2-0.5-1.3-0.4-0.2-1.4 0.7 0 1 0.4 1-0.2 1-0.9 0.4-1.2 0.1-2.5-0.1-2.3 0.3-0.6-0.2-1.3-1-1.3-1.4-2.6-4.1-0.5-1.3-0.3-1.3-1.1-1.4-0.2-1.4-0.7-0.9-0.1-0.7 0.3-0.4 1.1-0.1 0.1-0.7-0.8-1.9-1.6-0.9-3.6-1.2-1.6-1.1-1.1-1.3-1.9-4 1.1-0.2 0.5-0.5-0.1-0.8-0.7-1 4.3-5.5 1-0.1 0.9 0.3 2.1 0.2 0.8 0.2 1 0.9 1 1.8 0.7 1 5.3 4.2z m-31.6-32.3l-0.7 1.9-6.1-5.1-1.8-2.6-3.8-12.9-0.4-3.9 2.1 0.2 2.3 1.6 1.2 1.1 0.8 1.1 0.4 0.7 0.7 1 1.6 0.9 1.5 1.2 0.7 1.8-0.4 5.5 0.4 2.1 1.3 3.6 0.2 1.8z m-54.7-7.8l-0.7 0-0.6-2.2-0.6-5.1-0.8-2-1.5-2.2-6.8-12.8-0.4-2-0.3-0.6-1.1-1.1-0.1-1.2 0.3-1.1 0.6-0.5 0.6 0.1 0.7 0.8 2 1.3 1.3 1.8 0.4 1 0.2 1.1 0.4 1.8 5.2 13.7 0.8 4.2 0.4 5z m-42.6-175.5l3.1 1.4 5.6 9.1 6.7 7.7 2.6 4.1 1 2.6 1 2.2 1.5 2.6 2.2 1.9 1.6 0.7 1.3-0.1 1.3-1 2.6-2.9 1.3-0.8 1.3-0.2 2 0.2 19.4 4 1.1 1.1 0.7 1.8 1.3 12 0.9 2.1 0.9 1.4 5.2 3.5 1 4 0.5 0.9 1 1.4 1.9 1.6 16.6 10.9 6.8 3.3 3 0.3 2.8-1 2.3-0.1 2 0.5 2.3 1.2 1.8 0.3 1.4-0.3 2.5-2.1 1.4-0.9 2.4-0.8 0.9-0.9 0.4-1.2-0.4-1.4-1.5-3.2-1.2-1.9-0.4-1.5-0.1-1.5 0.5-6.9 0.6-1.6 0.8-1.4 2.3-1.5 4 0.5 1.1 0.7 1.6 1.5 1.7 2.5 1.7 3 0.8 1.6 0.7 2.4 0.4 1.8 0.6 1.4 0.8 0.5 3 0.3 1.9 0.5 1.7 1.2 2.7 2.8 1.2 1.8-0.1 14.3 1.1 2 1.5 0.7 4.5 0.9 1.8 0.8 1.8 1.4 1.3 1.7 1.2 2 0.4 1.1 14.4 24.2 1.5 3.3 2.7 8.1 1.5 2.9 5.4 6.5-0.4 7.4 0.6 1.9 0.8 1.9 2.4 2 3.3 3.4 1.9 2.5 0.9 2 0.2 1.6-0.4 1.6-1.1 3.7-0.6 3.1 0 1.9 0.4 1.6 4.6 10.4 4.3 20.1 2.4 12.7 1 2.3 10.2 14.9 2.7 4.9 0.6 2.1-0.1 1.1-0.8 0.3-1.1 0.1-0.9 1.4-0.1 2.7 1.7 6.8 1.2 3 1.2 1.8 1.5 0.5 1.9 0.3 3.7 2 5.3 5.9 4 9.6 1.7 2.3 1.4 0 4.8 6.3 0.7 1.4 0.9 2.5 0 1.6-0.8 1.2-1.4 0.8-1.8 0.6-3.6 0.5-1.4 0.6-0.3 0.9 0.1 0.9 0.8 1.2 4.9 4.5 2.1 3.6-0.1 1.4-0.5 1.5-3.4 3.3-1.3 2.4 0.3 2.1 2.9 6 0.3 2.1-0.3 1.8-0.5 1.5-0.5 2.7 0 2.2 5 9 1.3 1.9 1.8 1.8 4.7 9.4 1.2 4.8 0.2 6.5-2 9.2 0.2 12-1.9 4.8-0.1 1.8 0.2 1.7 0.8 1.9 1 1.5 3 5.6 0 1.9-0.1 2.2-1.4 3.7-0.7 6.2-1.5 3.9-5.7 6.5-0.9 2-0.3 2 0 3.4-0.5 4.3-0.3 8.7-1.3 4.2-3.7 6.7-1.2 0.6-0.8-0.3-0.7-0.5-1.7-1.7-2.1-1.5-1.8-0.4-2.7-0.3-2.1-1.1-7.6-5.4-0.2-1.6 0.4-2 0.1-1.3-0.5-1.6-0.8-1.6-0.4-0.7-0.2-0.6 0-1.5 0.7-2.9 1.9 0.6 2.2 2.2 2 1.4-0.6-1.6-2.1-3.9 0.1-1.3 0.4-1.3-0.6-1.3-1.7-1.8-1.3-2.3-0.6-2.4-0.4-5.3-1.1-2.4-4.7-4.5-1-3.5-0.3-6.9-0.7-3-4-8.3-0.3-1.7 0.7-1.7 3.4-1.5 1.2-1.3 0.3-2.6-0.5-2.8-1.1-2.5-2.1-3.2-0.1-1.3 0-1.4-0.3-1.3-0.6-1.1-1.3-1.3-0.5-0.7-0.7-4.7-0.8-2.3-1.8-1.1-5.1 0.6-2.1-0.1-1.6-1.3-0.2-1.1 0.1-1.6 0.2-1.6 0.3-0.9 0.9-0.4 1.2 1.6 1.8-0.7 1.4 1.3 1.2 0.2 0.8-0.7 1.4-2 0.8-0.6-1.3-1.9-0.6-2.1-1.1-1.7-2.7-0.7-1.6-0.8-0.7-1.8-0.6-2.2-0.9-1.9-5.7-6.3-2.3-3.4-1.5-3.5 1.5 0.4 0.4-1.1-1-9.7-0.5-1.3-11.1-10.8 0-0.9 0.8 0 2.1 1.6 4.1 0 7.5-1.6-1.8-0.8-1.2-0.8-2.7 2-1.7-0.8-3.3-5.1-3.3-4.1-0.7-2.2 0.2-3.4-1.2 1-0.5 1.6 0 1.7 0.2 1.3-1.7 0.5-2.4-0.6-2.2-1.4-1.3-1.7-1.5 0.8-1.7-2.1-0.6-3.5 0.5-3.4 1.8-2.2-1.4-4-0.2-1.7 0.3-1.4 1.1-2 0.2-0.9 1.1-2.1 0.3-0.4-0.6-2.4 2.9-2 0.9-0.8-1.6 0-2.6 0.8-1.1 0-1.8-0.9-0.2-0.8 0.6-1.3 0.5-1.9-0.1-1.2-0.7-2.5 0.1-1.8 0.5-1.5 1.5-3.1 0.3-1.5-0.8-9.8 0.4-1.9 1.1-1.1 1.1-2.4 0.5-2.7-0.8-1.8-1.1 3-2.9 5.6-0.6 3.4 0.9 6.1 0 3.6-1.2 1.5-1.3 1.3-1.8 2.5-2.3 1.5-3-1.6-0.5-1.2-0.1-2.9-0.5-1.2-1.3-0.6-1 0.7-0.6 1.5-0.1 1.7 0.6 0.9 3.5 3.5 1 1.5 0 1-0.4 1-0.2 1.3 0.2 7.8 0.6 2.3 0.8 1.3 1.8 2.4 0.4 1.5-0.1 1.4-0.6 1.7-0.1 1-0.4 1.2-2.6 3.2-1.5 0.8 0 0.6 0.6 1.6 0.2 0.2-1.5 1.2-1.1-1.1-1.5-1.7-4.6-1.6-5.8-5.7-2.2-1.1-4.8-2-1.7-1.2-0.9-1.3-1.3-2.1-1.2-1-1.2-0.2-0.8 0.2-0.8-0.1-1-1.6-0.2-1.3 0.3-2.7-0.5-1.2-0.7-1-0.6-1.3-0.4-1.4-0.2-1.2-0.8-1.8-3.8-3.3-1.5-1.7-3-6.4-1.2-0.8-6.5-8.9-1.2-2.3-0.4-2 0.1-5 0.7-1.7 1.9-1.8 2.5-1.1 2.5 0.2 0.8 0.8 0.9 2 1 0.4 3.8 0 2.2 3.6 0.6 2.8-1.7 1.7 4.9 3.4 2.4 1 3.4 0.4 0.6 2.9 3.5 2.6 4.7 1.4 4.1-0.4 3.5-1.9 7.1-5.3 2.3-2.5 0.1-0.5-0.2-1.5 0.1-0.5 1.5-0.7 1.9-2.9 0.7-1.7 0.1-2.1-0.4-3.8 0.6-1.5 0.1-0.8-0.7-0.9-0.7 0.1-3.5 0.7-2.5-0.6-1.1-1.2 0.5-1.3 2-0.9-1.1-0.6-1.2-0.3-2.6 0.1-1.2-0.4-3-2.9-4.4-3.1-2.3-2.2-1-2.3-0.9-1.4-4.2-1.7-0.9-1.8 0.8-2.2 2-1.2 2.5-0.1 2.3 0.7-0.6-2 0.9-1.8 1.5-1.7 1.3-1.8-1.6-2.5-0.7-0.7-0.9 3.3-1.7 3.1-2.5 1.9-3.3-0.3-1.1-0.9-0.9-1.5-0.4-1.8 0.2-2.2 0.8-1.4 2.6-1.2 1.1-1.4-3.3-0.4-1.5 1.8-0.7 2.3-1 1.1-5 0-1.3-1.2-0.1-2.9-1.4 3.1-0.8 1.1-1.6 0.7 0-7.7 0.6-1.5 6-8.8 2.1-1.5 2.7-0.2 3.7 0.3-1-1.3-0.3-1.4 0.5-1 1.7-0.3-0.6-1-0.7-0.8-0.9-0.5-0.9-0.2-0.7 0.5 0 1.7-0.4 0.3-5.7 0.1-1.2 0.3-0.8 0.4-1 0.1-2-0.1-0.3 0.4-0.9 2.1-0.7 0.7-1.5 0.2-1.5-0.6-1.4-0.9-0.9-1.1 0.6-0.3 0.9-0.8 0.7-0.5-4.1-1.6-1.2-1.1 1.5-1.4-1.7-0.8-0.5-1.4 0.5-1.3 1.7-0.4-0.3-0.9-0.4-0.8-1.3 0.7-1.2 0.8-0.8 1-0.4 1.5-0.6-0.6-1.3-1.1-0.5-0.6-0.8 2.7-0.7 0.9-1.2 0.3-1.2-0.5-1.4-1.1-1-1.5-0.5-1.3-0.5-2.9-2.3-6-0.2-2.9-0.8 0-0.1 4.5-0.2 2.3-1.2 0.6-0.6-1.5-1.7-7.5-0.8 0-0.8 2.5-1.5 1.9-2.1 1.3-2.4 0.8-3.1-0.3-3.2-1.1-2.8-0.6-1.6 1.2-1.6-0.8-1.5-1.1-1.3-1.4-0.9-1.5 0.2 2.3 0.8 1.9 2.1 3.9 2.2 8.1 6.7 13 0.2 3.1-2.3-1.9-1.8-3-2.8-6.4-1.7-5.8-1.4-3.4-1.8-1.4-2.5 1.5-0.8 3.5 0.5 4 2 4.3 0.6 3.7 0.5 1.7 1.4 1.8 1 0.6 1.4 2.2 0 0.2-2.2-2.5-1.6-0.6-1-1.5-1.4-3.3-5.9-9.1-0.8-2-0.4-3.1-1.1-2.2-3-3.2-2.2-3.2-1.2-1.2-0.6-1.2-0.2-3.5-0.4-1.4 2 0.5 6-0.5 1.3-0.6 1.2-1.5 1.7-2.8 0.7 1.7 0 0.8 0.9 0 2.3-6.3 0.6-1.1 0-0.7-3.5 0.9-4.6 5-3.2 2.2-3.2-0.6-0.3-3.8 1.5-6.2 2-2 2.5-9 1.6-2 2.8-1.1 1.1-2.7 1-5.9-2 1.7-1.1 4.8-1.4 1.7-1.8-0.4-1-2.2-0.4-3.1 0.2-2.5 4.2-7.7 1.7-4.4-1.4-2.5-0.5 2.2-0.9 2.7-1.3 2.5-1.4 2-1.5 2.7-0.3 3.3 0.6 6.6-1 5.2-2.4 4.5-6.5 8.8-4.2 9-1 1-1 0.5-1.4 0.2-0.8-0.4-0.6-0.6-0.9-1.5-7.1-5.6-1.2-1.3 0.2-1.8 0.5-1.8 0.9-1.7 1.5-1.5 7.1-5 4.1-0.8 4.7-1.6-1-0.5-1-0.3-2.2 0-1.3-0.2-0.4-0.5-0.3-0.7-0.7-1.1-2.7-2.2-1.1-1.1-0.7-1.5-1-10.6-0.5-1.9-1.3-1.1-2.5-0.2 0.4 2.7-1.2 2.4-1.8 1-1.2-2 1.7-0.7 0.6-0.1-3.1-2.4-1-3.6-0.6-4-1.8-3.5-2.3-3.2-4.1-7.1-3.1-2.2 2.7 5.3 5 7.6 0.4 1.2 1 9.4 2.3 6.5 0.1 1.9-0.8 5.4 0.9 12.2-0.9 2.5-0.8-1.5-2-2.5-1-1.9-4.9-13-2.3-3.3-10.2-9.6-1.2-1.9-1-5.5-1.5-2.3-4-4-0.8-1.3-0.4-1-0.7-0.7-1.6-0.3-1.1-0.4-2.3-1.6-1.1-0.4-1.9-1.1-1.2-2.5-1.1-5.4-6.1-17.9-2-3.1-0.7-1.8-1.2-10.7-0.6-1.4-4.5-3.8-0.7-1.9-0.7-1.8-2.6-2.4-0.9-1.6-0.6-2.2 0.4-1.8 0.6-3.5 0.1-2.4-0.8-4.7 0.1-2.3 0.6-2.1 3.1-4.5 1.5-5.1 1.2-2.3 1.8-0.3 3.5 0.1 4.3-5.1 3.5 1.2 1.5 1.9 0.5 2 0.2 2 0.8 2 0.9 1 1.2 0.7 2.5 0.9 4.7 0.4 3.7-0.8 2.9 0.7 2.1 4.8 0.9 4.8 0.8 2.4 1.3 1.5 2.2-0.2 2.6-1.7 2.2-2.2 1-2-0.2-1.2z" id="MMR3273" name="Rakhine" data-id="MMR3273" data-name="Rakhine">
 </path>
 <path d="M217.7 580.5l0.6 1.2 0.6 7.9 0.6 2.2 2.1 4.8 0.7 3.1-1.5 11.5-0.7 3.3-0.9 8.9-0.3 1-0.5 0.7-0.8 0.8-0.5 0.3-1 0-1.7-0.6-3.6-2.3-0.8-0.1-1 0.2-0.7 1.1 0 3.5 0.8 3 0.3 1.6-0.6 9.1-0.5 1-1 0.5-2.7-0.2-1.2 0.8 1.2 4.3 0.1 2.1-1.4 5.6-0.1 1.4 0.4 6.4 2 11.4 0 2.4-0.5 4.9-2.4 9.5-0.1 1.5 0.6 1.4 0.4 1.6 0.8 1.7 0.5 8-0.9 4.2-0.5 1-0.7 3.4 1.4 7.9 0.9 6.5 1.2 4 0.1 2.1-0.4 4.4 1.3 12.4-0.1 1.7-1.2 2.8 0.2 0.9 1.5 0.3 0.9 0.4 0.4 0.9-0.4 1.8-2.4 4.1-0.4 1.5 0 2.2 3.1 16.2 0.1 2.4-0.5 2.8-2.2 5.5-0.5 2.5 2.5 8.1 1 2.7 0.1 0.8-0.5 0.8-1.8 1-1.1 0.8-0.7 1-1.1 3.7-0.4 7.6 0.4 4.5 1.6 4.1 4.3 8 5.2 8.8 2 3.5 0.6 1.5-0.1 2.1-0.5 2-5.5 12.2-2 13.8-3.3 6.5 2.7 2.8 4.5 2.7 1.5 1.3 0.7 1.5 0.4 2.3 0.3 7.8-0.3 2.9-0.7 2.5-7.1 12.9-0.7 4.8 0.2 1.2 3.6 7.7 0.9 2.7 0.9 5.1 0.6 1.9 0.9 1.6 3.2 4.1 0.6 1.4 0 0.9-0.8 1.2-2.5 1.2-9.4 2.5-3.1-0.2-2-0.3-8.1-5.5-1.2-1.8-2.7-2.8-1.7-1.2-1.9-0.5-3-0.3-0.8-0.5-0.6-1.4-0.4-1.8-0.7-2.4-0.8-1.6-1.7-3-1.7-2.5-1.6-1.5-1.1-0.7-4-0.5-2.3 1.5-0.8 1.4-0.6 1.6-0.5 6.9 0.1 1.5 0.4 1.5 1.2 1.9 1.5 3.2 0.4 1.4-0.4 1.2-0.9 0.9-2.4 0.8-1.4 0.9-2.5 2.1-1.4 0.3-1.8-0.3-2.3-1.2-2-0.5-2.3 0.1-2.8 1-3-0.3-6.8-3.3-16.6-10.9-1.9-1.6-1-1.4-0.5-0.9-1-4-5.2-3.5-0.9-1.4-0.9-2.1-1.3-12-0.7-1.8-1.1-1.1-19.4-4-2-0.2-1.3 0.2-1.3 0.8-2.6 2.9-1.3 1-1.3 0.1-1.6-0.7-2.2-1.9-1.5-2.6-1-2.2-1-2.6-2.6-4.1-6.7-7.7-5.6-9.1-3.1-1.4-0.2-1.2-4-12.1-1.2-5.9-0.2-3.1-1.7-28.4 2-18.3-0.3-3.6-1.6-7.2 1.7-0.8 0.7-0.6 1.9-2.4 1.4-0.4 1.4-0.1 1.2-0.7 0.8-1.6 0-1.7-0.2-1.7 0-1.7 0.6-2.4 0.8 0.3 0.5-0.3 0.1-1.3-0.4-3.3 0.3-1.6 1.1-0.9 2.7 0.8 7.1 5.2 7.1 6.9 2 2.7 0.9 3.4 0.6 3.5 1.1 1.1 1.3-1.1 1.9-6.1 1.6-0.5 1.9 1 1.4 2.1 0.6 0.7 0.6 0.4 0.8-0.1 0.7-0.4 0.5-0.6 0-1.6-0.2-0.9-1-2.3-0.3-1.6 0.2-1.6 2-4 1.1-0.9 1.3-0.3 2-0.8-0.3-1 0.1-8.1-0.1-0.9 0.2-0.7 1.3-0.5 1.1-0.1 2.9 0.5 2 0.7 1.6 1.2 1.7 0.7 2.4-0.7-2-3.8 0-1.4 0.7-0.1 2.4-1.2 1.1-0.2 0.8-0.5 0.6-1.5 0-1.2-0.9-14-1.4-4.9-3.9-4.3-0.9-1.9-1.2-4-0.1-2.8 1.2-4.7 0.2-2.6-0.7-2.4-2.5-4.4-0.9-2.3-0.3-2.5 0.9-9.6 3.7-3.3 0.4 0.2 1-2.8 4-4.8 1.6-2.4 0.2-2.3-0.7-2.4-2.2-4.3-0.9-2.6-0.6-3.3 0.2-3.2 1.4-2.2 2.7-1 2.2 0.5 1.7 1.7 1.5 2.3 2.3 2 3-0.2 2.8-1.5 2.2-1.9 1.7-2.2 4.6-9.3 0-1.5-0.2-1.5-0.1-1.9 0.9-8.1-0.5-5.1 0.2-2.1 0.7-2 2.2-3.1 0.4-1 0-1.1-0.2-1.4-0.7-7 0.1-3.4 3.5-23.4-0.2-4-0.5-1.3-1.5-2.1-0.6-1.3-3.5-2.4-1.9-14.1 0.1-4.3-0.3-2-0.5-0.8-0.6-0.6-1-1.2-2.3-4-0.9-1.9-0.6-2.2-0.2-2.6 0.2-3 0.7-2.8 1.4-1.9 3-1.1 2.1 1.3 3.2 5 1.1 1.4 3.6 3.7 0.7 1.7 0.4 1.5 0.8 1.1 2.1 0.3 2.3-0.2 3.4-2 1.9-0.7 0.7 0.4 0.6 0.8 0.7 0.7 1-0.3 0.7-0.6 0.5-0.8 0.4-0.9 0.3-1 2.7-1.7 5.3-0.2 5.7 0.7 3.5 1.2 4.4 6 2.3 1.2 8.8-1.1 3.3 0.7 3.1 1.3 3.8 0.9 2.6 0.5 6.3 3.5 1.8 1.5 1.6 2.2 1.6 1.8 1.9 0.1 1.3-1.4z" id="MMR3274" name="Chin" data-id="MMR3274" data-name="Chin">
 </path>
 <path d="M136.3 1729.2l-2.2 1.3 0.9-8.4 0.3-1.4 0.5-0.4 0.6 1.6 0.5 5.1-0.6 2.2z m34.3-91.1l-1.5 1.5-1.7-0.1 1.3-1.5 0.7-1.9 1.2-1.8 2.2-1.1 0 0.7-0.9 2.1-1.3 2.1z m121.9-106.4l-2.8 0.5-3.4-0.9-2.5-1.4 0-0.8 2.2-1.6 1.6-2.3 2.3-4.8 3-4.2 1.8-1.7 0.5 1.5 0.2 1.8 1.1 3.1 0.2 1.4-0.4 1.5-2.1 3.5-1.7 4.4z m-43.6-5l-0.8 0 0-0.8 1.6-2.9-0.9-4.1-3-7.2 0.8-3.6 3.1-2 3.9-1.8 3.6-2.9 1.2-1.9 1.7-3.7 0.8-1.5 3.4-3.3 6.9-8.4 3.5-2.8 2.1 2.8 0.6 5.7-1.4 5.8-2.8 5.4-5.5 7.2-1.1 0.9-1.8 0.9-6.1 2-1.6 1-0.7 0.6 0.2 2-0.1 0.8-1.2 1.4-2.4 2-1.1 1.4 0.5 1.7-0.9 1.8-2.5 3.5z m148.2-187.9l-1.3 5.2-3.2 6.7-0.7 2.2-1 4.7 0.1 3.3 1.7 7.6 2 1.5 0.7 0.8 0.4 1.1 0.6 1.1 1.1 1.3 2.3 1.7 2.8 2.8 0.9 1.4 1 2.4 1.7 3 1.5 1.5 0.9 1.6 0 4.2 0.2 0.9 0.8 1.4 2.3 2.2 2.3 2.9 0.4 3.2-2.4 4.6-0.3 0.5-0.9 2.1 0 2.8 1.2 2.5 1.8 3.2 0.8 3.2-0.7 4.4-1.5 3.9-1.2 1.2-1.6 0.9 1.2 2.3 0.5 0.4 0.7 1.8-0.2 4.7 0.6 1.1 0.3 1.2-0.4 1-0.8 1.1-4 3.9-0.5 0.8-0.6 1.7 1 1.2 1.9 1 0.7 1.3 0.2 1.6 1.8 2 2.4 1.4 0.7 0.3 2.2 0.4 5.6 0.1 1.7 0.6 1.1 1.3 1.2 0.5 5.5 4.9 0.1 3-5.4 6.2-4.3 3.8-2 0.8-2.2-0.3-0.1-0.9 0.8-1.4 0.3-2.2-1.9 1.7-1.3 2.1-1.6 1.6-2.8 0.2 0.4-0.9 0.4-3.1-8 7.9-2.2 3.6-2.4 0.5-2.3-0.6-1.1-1.5-0.1-1.9-0.4-2.3-0.7-2.1-1.1-1.1 0.8 11-0.8 2.4-3.1 4.7-0.7 2 0 5.5-0.4 1.5-2.5 4.5-15.6 16.8-6.9 4.9-3.3 3.1-1.8 1.3-2.1 0.7-2.5 0.2-7.1-1-1.7-0.5-0.8-1.4-0.6-11.3 0.9-1 1.3-0.7 1.2-1.6 0.5-2-0.4-1.9 2.7-2.5 1.8-3.4 1.1-3.8 0.5-3.8 0-2.5-0.6-1.8-1.6-3.7-0.4-2.1 0.5-1.4 0.8-1.4 0.5-2.2-0.7 0-0.8 1.1-1.1 1-0.9 1.2-0.3 1.4 0.5 1.9 1.5 3.5 0.4 2.2-0.4 5.2-0.4 1.5-3.3 4.2-1.6 5.1-2.5 3.1-2.6 0.9-1.4-3 0.8-2.4 1.8-3 1.5-3.4-0.3-3.8-3.8 6.1-1.7 3.7-0.7 4 0.8 8.5-1.3 2.7-4.3 1-3.3-1.3-2.1-3.3-1-4.3-0.1-4.5 2.5-13-1-3.6-2.3 6.3-1.2-4.8 1.4-4.9 3.1-3.8 4-1.5 3.7 0.2 1.1-0.2 1-0.7-0.4-0.5-1.2-0.3-1.2-0.1-0.8-0.2-0.6-1.1-0.5-0.3-0.6 0.1-1.7 0.6-1.6 0.4-0.7-0.4-0.7-1.5-0.8 0-0.8 1.9-3.1 4.4-2.6 2.2-0.3 3 0.7 5.9-0.1 3.1-2 14.4-0.9 2.7-1.4 1.9-1.2 0.4-1.5 0.4-1.4 0.4-0.5 0.8-0.3 0.8-0.4 0.9-0.6 0.8-0.6 0.3-2.8 0.2-1.4-0.2-3.8-1.6-5-0.5-1.3-0.9 1.3-2.1 1.2-0.8 1.3-0.6 1-0.7 0.8-1.5-0.1-0.9-0.4-1.1-0.6-0.8-0.5-0.4-2.1 2.7-1.2 0.4-0.5-2.7 0.2-3.6-0.2-1.5-1.4-3.3-0.1-1.4 0.5-1.5 1.2-1.9 1.4-1.5 1.1-0.7 1.8-0.2 2-0.8 1.5-1.4 0.4-2.3-3.9 2.4-0.5-2.2-0.5-5-1.8-3.8-0.1-1.7 0.6-1.7 2.1-3.3 1.4-1.5 1.9-1 2.7-0.4 2-0.6 1.7-1.5 1.3-2.1 0.2-1.4-1.5 1.5-0.9 1.3-2.6 0.4-2.1 0.9-2.4-0.1-1.1 0.4-2.7 3.7-0.3 0.6-1.2 1-0.6 2.4-0.1 5 0.2 1.2 1.1 2.4 0.4 1.8 0.6 1-1.4 2.6-0.2 0.5-1 1.6-6.5 4.4-1.4 2.1-3.2 7.3-1.2 1.4-1.5 1.3-1.9 1-2.3 0.2-2.7-0.9-1.1-1.6-0.5-2.2-1-2.4-0.3 2.1-1.2-0.2-1.3-1.5-1-1.9 3-2.1 4.1-2.1 4.2-2.9 3.2-4 1.1-5.8 0.8-0.9 1-0.9 0.8-1.2 0.5-1 0.2-1 0.1-2.3 0.4-0.5 1-0.5 0.8-1 0.1-1.6-2 1.2-1.1 1.4-1.5 3.7-2.9 5-0.9 2.2-1.4 2.8-1.8 1.6-1.9 1.2-6.3 6.1-2.8 1.4-2.6-0.5-0.4-3 2.9-4 5.9-5.6 2.4-4 1.7-4.8 0.9-5.1-0.4-5.1-1.6-3.6-0.4-2 0.9-1.9 1.3-2 2.2-7.1 0.6-0.8 1.1-0.2 1.3 0.1 0-0.8-1.2-1.2-1.7-11 0-1.3 0.5-1.5 0.8-0.6 0.9-0.3 0.6-0.6 0.1-1.6-3.9 1.9-1.4-0.3-0.8-2.5-0.8 2.6 1.5 10.1 0 6.7-0.6 1.8-2.5 3-0.6 1.6-0.7 3-1.8 2.7-2.3 1.9-2.5 0.8-0.2-0.8 1.1-1.8 2.5-3.1 2.3-4.7-0.7-2.1-1.2 0.3-1.3 1.8-0.9 3.8-0.7 1.2-1 1-1 0.4-1.4-0.3-0.9-0.7-0.7-0.8-0.8-0.6-2.1-0.4-0.6 0.9 0.3 4.6-0.1 2.7-0.5 2.2-0.7 1.8-5.7 9.7-3 3.6-3.5 1.8-2.3 0.3-1.7 0.8-1 1.7-0.4 3.2-0.9 1.2-2 0.8-2.3 0-1.6-0.9-2.3 2.6-1.6 0.7-1.3-0.9-2.8-4.4-0.5-1.6-0.1-1.8 0.7-13.1 2.5-13.3-0.3-8.7 0.3-1.5 0.4-0.6 1.4-1.5 0.5-0.9 1.6-9.2-0.5-7.1 0.5-1.2 3.9 1.2 2.5-0.1 1.2-2.3 0.8-3.4-0.3-1.7-2.1-0.9 0-0.7 2.7-1.4 1.1-2 0.1-5.8 0.2-1.8 1-3.2 0.2-1.4 0.5-1.6 2.1-2.4 0.5-1.5-0.3-4.9-0.4-1.8-1.5-3-0.5-1.7 0.4-1.7 0.9-0.6 1.1 0.3 1.3 0.4 1.2-0.1 1.4-1 3.2-4.6-2.2 0 1-1.8 0.5-2-0.1-7.9 0.1-1 0.4-1.2 1.9-2.7 0.6-1.5 0.5-2.1-0.3-2-3.1-1.5-0.6-1.4 0.2-1.6 1.1-1.1 5.2 2.4 0.8-0.4 0.4-0.6 0.9-0.5 0.8-0.7 0.3-1-0.6-1-0.9-0.5-1-0.4-0.6-0.5-0.4-1.5 0.4-5.3 0.7-1.5 1.6-0.2 1.4-0.7 0.1-2.7 1.4 0.4 1.5 0.6 1.3 0.9 1.1 1.3-1.9-7.7-1-12.2 7.6 5.4 2.1 1.1 2.7 0.3 1.8 0.4 2.1 1.5 1.7 1.7 0.7 0.5 0.8 0.3 1.2-0.6 3.7-6.7 1.3-4.2 0.3-8.7 0.5-4.3 0-3.4 0.3-2 0.9-2 5.7-6.5 1.5-3.9 0.7-6.2 1.4-3.7 0.1-2.2 0-1.9-3-5.6-1-1.5-0.8-1.9-0.2-1.7 0.1-1.8 1.9-4.8-0.2-12 2-9.2-0.2-6.5-1.2-4.8-4.7-9.4 5.3-4.4 2.9-1.9 2.8-0.8 3.3 0.8 2.7 2.1 2.4 2.5 2.9 1.4 3 0 2.2-1.9 0.9-2.2 0.9-2.9 0-2.7 0.9-1.7 2.2-1.4 2.7-0.2 1.1 0.8 1.8 2 2 1.8 6.9 9.1 1.4 1.9 1.2 1 0.5 1.1 2.7 2.3 4.8 5.7 0.6 0.6 1.8 1.2 0.6 0.6 0.6 1.3 0.8 2.9 0.5 1 0.5 1.1-0.1 2.6 0.4 1.1 0.6 1.1 4.2 12 0.5 4.3-1.1 4.6 2.7 2.1 2 2.1 0.4 0.7-0.1 1.4-0.5 3 0 4.7-0.4 1.7-2.1 2.3-1.4 1.4 0 2.4 0.9 5.1 1.7 4.7 2.1 3.5 1.1 1.2 1.6 1.3 1.8 1.1 2 0.4 3.4 1.8 7.5 2.8 2.6 1.8 2.3 2.9 5.9 9.2z" id="MMR3275" name="Ayeyarwady" data-id="MMR3275" data-name="Ayeyarwady">
 </path>
 <path d="M352.3 850.5l-0.6 1.6-1.1 5.9-0.3 1 0.6 8.8-1-0.2-0.8 1.6-0.9 0.2-1-0.3-1.1 0.1-0.7 0.5-0.9 0.8-1.9 2.4-7.1 6.1-3.6 4.8-1.9 1.9-2.5 0.7-4.6 0.8-0.9-0.2-1.4-1.1-1-0.3-2.9 0.4-2.2 1.7-1.3 2.6-0.5 3-1.2 0.7-7.2 2.2-5.2 0-0.8-0.2-0.8 0.2-0.6 0.4-1 1-1.6 1.1-1.1 2.2-0.7 2.7-0.4 2.4 0.1 5.2 1.8 10 0.4 5.1-0.6 2.3 2.6 0.9-0.2 1.4 3.1 2.6 4.3 2.6 2.7 1 2.4 0.4 5.8-0.3 5.3 2.5 2.9 2.5 0.7 1 0.2 0.7 0 1.8-0.4 2.1-0.4 1-0.4 0.7-1.1 2.1-0.4 1.2 0.1 1.6 1.4 7.2-0.1 1.3-0.4 2-0.5 1.7-0.1 2.7 0.6 2.5 2.8 5.3 0.9 1.1 0.8 0.4 0.9-0.2 0.6-0.5 0.7-1.7 1.2-5.1 1.1-1.2 4-3.6 1.6-0.9 3.1-0.8 1.4-0.1 2.9 0.3 1.7-0.5 1-0.5 4.5-3.8 2.5-1.3 5.3-1.4 4.2-1.6 1.4-1.1 2.3-2.5 1.2-0.7 1.7-0.3 0.9-0.1 4.3 0.1 4.6 0.7 1.7 0.8 0.8 0.7 1 1.6 0.5 1.1 0.4 4.3 0.6 5.1 9.4 17.3 1.3 3.5 0.8 4.9 0.5 1.8 0.7 1.5 1.1 2.7-0.3 1.5-0.9 1.5-0.6 0.7-0.6 0.9 0.5 1.9 1.3 4.9 0.7 1.4 0.8 0.9 0.6 1.2 0.6 2.7 0.3 0.7 0.5 0.8 0.5 1.1 0.8 1.6 0.6 3.5 0.2 0.7 0.7 0.9 0.6 0.4 1.5 0.7 0.4 0.9-0.3 1.3-0.5 0.9-1.8 2.4-0.4 1.3 0 1.3-0.4 1-2.2 1.7 0.7 3.1-0.2 1.6-0.8 1.2-1.4 2.2 0.1 1 1.6 1.1 0.3 0.4 0.7 2.2 0.2 4.3 1.3 1.4 0.3 0.6 0.3 0.9 0 2.7 0.8 2-0.3 1.2-0.9 0.8-1.3 0.3-0.5 1.2-0.3 1.7-0.3 1.1-1.8 3-0.1 0.7 0.1 1 0.8 1.2 0.3 0.7 0 0.8-0.3 1.2-0.7 2.2-0.7 1-1 0.8-0.5 0.6-1.4 2.8-1.2 4.6 0.8 8.6 0.8 3.5 0.5 1 0.9 1.1 2.8 2.1 2.6 0.9-0.1 1.3 1.2 2.3 0.8 3.5 0.2 1.9 0.4 1.8 2.6 3.6 0.7 1.3 0.3 1.1 0.2 2 0 3.2-0.6 4.3-0.4 0.9-1.5 1.2-0.6 1-0.2 1.3 0 2.8-0.2 0.9-0.5 0.6-0.7 0.3-2.9-1.8-2.5-0.4-3.3 0-14.7 2.2-6.5-0.2-2.4 0.3-6.7 2-3.4 1.8-5.8 7.2-8.2 1.6-1.8 2.4-0.1 4.8-0.5 1.9-0.7 1.5-1.5 1.3-5.7 3.6-2.8 2.6-0.5 1.5 0 1.5 1 1.1 1.2 2.1 1 5-0.9 4.4-2.1 3.5-2.5 2.5-1.1 0.7-3.5 1.5-0.5 0.1-1.2-0.2-0.5 0.1-0.3 0.5-0.4 1.7-1.7 1.4-0.5 2.6-0.2 5.1-0.8 2.5-0.4 2.1 0.5 2.1 1.9 2.6 7.6 5.9-2.7 0.2-2.2 1.4-0.9 1.7 0 2.7-0.9 2.9-0.9 2.2-2.2 1.9-3 0-2.9-1.4-2.4-2.5-2.7-2.1-3.3-0.8-2.8 0.8-2.9 1.9-5.3 4.4-1.8-1.8-1.3-1.9-5-9 0-2.2 0.5-2.7 0.5-1.5 0.3-1.8-0.3-2.1-2.9-6-0.3-2.1 1.3-2.4 3.4-3.3 0.5-1.5 0.1-1.4-2.1-3.6-4.9-4.5-0.8-1.2-0.1-0.9 0.3-0.9 1.4-0.6 3.6-0.5 1.8-0.6 1.4-0.8 0.8-1.2 0-1.6-0.9-2.5-0.7-1.4-4.8-6.3-1.4 0-1.7-2.3-4-9.6-5.3-5.9-3.7-2-1.9-0.3-1.5-0.5-1.2-1.8-1.2-3-1.7-6.8 0.1-2.7 0.9-1.4 1.1-0.1 0.8-0.3 0.1-1.1-0.6-2.1-2.7-4.9-10.2-14.9-1-2.3-2.4-12.7-4.3-20.1-4.6-10.4-0.4-1.6 0-1.9 0.6-3.1 1.1-3.7 0.4-1.6-0.2-1.6-0.9-2-1.9-2.5-3.3-3.4-2.4-2-0.8-1.9-0.6-1.9 0.4-7.4-5.4-6.5-1.5-2.9-2.7-8.1-1.5-3.3-14.4-24.2-0.4-1.1-1.2-2-1.3-1.7-1.8-1.4-1.8-0.8-4.5-0.9-1.5-0.7-1.1-2 0.1-14.3 8.1 5.5 2 0.3 3.1 0.2 9.4-2.5 2.5-1.2 0.8-1.2 0-0.9-0.6-1.4-3.2-4.1-0.9-1.6-0.6-1.9-0.9-5.1-0.9-2.7-3.6-7.7-0.2-1.2 0.7-4.8 7.1-12.9 0.7-2.5 0.3-2.9-0.3-7.8-0.4-2.3-0.7-1.5-1.5-1.3-4.5-2.7-2.7-2.8 3.3-6.5 2-13.8 5.5-12.2 0.5-2 0.1-2.1-0.6-1.5-2-3.5-5.2-8.8-4.3-8-1.6-4.1-0.4-4.5 0.4-7.6 1.1-3.7 0.7-1 1.1-0.8 1.8-1 0.5-0.8-0.1-0.8-1-2.7-2.5-8.1 0.5-2.5 2.2-5.5 0.5-2.8-0.1-2.4-3.1-16.2 0-2.2 0.4-1.5 2.4-4.1 0.4-1.8-0.4-0.9-0.9-0.4-1.5-0.3-0.2-0.9 1.2-2.8 0.1-1.7-1.3-12.4 0.4-4.4-0.1-2.1-1.2-4-0.9-6.5 3.1-0.5 1.6 0 1.6-0.2 1.5-0.8 1.3-1.1 0.9-1.5 0.7 0 1.1 0.4 0.8 1.8 0.2 1-0.2 1.4 0 0.5 1.2 0.9 0.3 0.6 0.4 1.5 1.1 1.9 1 1.2 1.8 1.7 4.8 5.9 5.1 9.4 3.1 6.7 0.4 1.5 0.2 2.4-0.5 1.6-4.3 9-0.7 1.9-0.2 1.1-0.2 1.7 1.5 13.9 0.8 2.2 0.8 1.4 1 1.1 1 0.3 1.2 0 3.4-1 2.1 0.2 1.9 3.7 0.8 0.7 1.4 0.8 1.4 0.4 0.8 0.9 0.6 2.1 0.4 2.3 0.2 3.5-2.3 19.8 0.5 1.5 1 1 2 1.6 2.9 1.6 2.2 0.8 1.9 0.3 1.7-0.7 2.6-2.4 2.2-1.1 5.9-2.1 2-0.1 3.2 0.5 2.1 0.6 1.8 0.4 1.6-0.1 4.5-1 4.5-0.3 2.1-0.7 5-0.4 8.6 1.9 14.5 0.4 3-2.1 3.5-0.7 1.9 0.4 2.7 0.8 0.9 1.6 3.2 3.5 1.9 4.2 1.2 1.5 1.9 1.4 0.9 1.1 0.3 1.6 0 2.9 0.4 1.6 1.5 1 2.3 2.5 2 1.2 4.6 1.5z" id="MMR3276" name="Magway" data-id="MMR3276" data-name="Magway">
 </path>
 <path d="M632.5 1092.1l-1.2-4.6-0.2-1.6-0.5-1.4-0.6-0.8-0.9-0.6-1.5-0.4-0.7 0.2-1.1-0.1-1.3-0.4-2.2-1.3-1.2-0.5-0.8-0.2-0.7 0.2-1.1 1-0.8 0.3-1 0.1-8.4-2.3-2.9-0.4-1.4-0.9-0.5-0.5-1.3-2.3-0.8-1-0.9-0.7-1.4-0.8-0.6-0.6-0.3-0.6 0.3-2 0.5-1.5 1.9-4.6 0.2-0.9 0-1.1-0.4-0.5-0.5-0.2-1-0.1-0.8-0.4-0.8-0.7-1.7-2.1-1.6-3.6-0.6-0.8-0.6-0.3-1.3 0.3-1.9 1.6-1.5 0.5-1.2 0.1-1.5-0.2-6-6.9-0.1-1.5-2.7 0.9-1.5 1.8-0.4 1.9-0.7 1.3-1 0.7-1.2-0.1-0.8 0.1-4 0.8-1.1-0.1-1.6-0.5-1.5-0.9-0.5-0.4-0.3-0.7-0.4-2.2 0.1-1.5-0.1-1.4-0.2-1.3-0.5-0.7-0.9-0.8-2.3-0.9-1.1-0.3-2.2 0.1-0.6 2.3 0.5 3.7-1 6.6-0.5 0.7-1 1.2-0.2 12.6-0.8 3.7-12 7.2-6 5-3.9 4.6-2.6 4.3-1.7 4-0.3 1.1-0.1 1.1 0.3 0.9 0.5 1 1.8 2.8 0.9 2.4 0 3.6-2.9 5.9-4 5-2.7 2.6 0 0.2-0.1-1.7 0.1-2 0.7-1.4-0.1-0.8-0.3-0.8-1.5-2.5-0.5-1.4-1-1.1-3.1-1.7-4.8-3.5-1.4-0.8-1-0.4-1.4-0.1-0.8-0.4-0.3-0.4-0.7-2-2.3-3.4 0.7-2.6-0.4-1.9-1.4-3.1-0.8-0.9-0.8-0.5-1.5 0.2-1.9-0.2-1.2 0-1.2-0.6-1.9-0.6-1.9-1.2-0.5-0.8-0.2-0.8 0.1-0.6 0.3-0.6 1.2-0.8 0.7-0.3 1.3-0.1 2.6-1.1 0.7-0.4 0.5-0.6 0.8-1.9 0.6-0.6 1.5-0.8 0.7-0.6 0.6-1.2 0-0.9-0.3-0.9-0.4-0.6-1-1.1-2.9-1.8-1.4-2.5-4.5-5.4-0.7-1.2-1.5-3.2-1-1.5-1.1-0.4-1.4-0.3-1.3 0.2-2.1 0.8-1.4-0.1-1.3-0.6-0.6-0.4-0.3-0.5 0-1.3 0.5-1.3-0.7-2-5.8-7.7-2.2-4.2-0.2-0.8-0.1-1.2 0.6-0.6 0.4 0 1.2 0.4 0.4 0 1.2-0.8 0.9-0.2 1.2 0.9 1.2-0.1 1-0.8 0.9-1.3 0.5-1 0.5-0.8 1-0.9 0.4-0.6 0-1-0.6-1-1.1-0.6-0.4-0.6-0.1-1.4-0.6-2.7 0.3-0.9 0.6-0.5 2-1.2 1.1-1.2 1.1-1.8 1.5-0.9 2.9-2.6 0.9-1.3 0.1-0.8-0.1-1.1-0.4-0.7-0.8-1.3-3.8-9.7-0.7-1.5-0.8-2.6-1.2-5.6-0.1-1.1 0.5-1.8 0.2-1.9 0.6-1 0.9-1 0.4-0.6-0.1-1.1-0.7-1.8 0.4-1 4-0.1 1.6-0.8 0.3-1 0-0.5-0.3-1.8-0.1-1 0.3-3.1-0.1-1.2-0.4-0.7-0.4 0-1 0.5-0.8-0.4-0.8-1.2-1.1-0.2-0.5-0.5-0.8-2-1.6-2.8-0.8-0.8-1.1-0.7-0.9-1.3-0.1-1.3 0.3-0.4 0.6-1.6-0.6-2.6 3-2.4 0.6-0.6 0.6-1.4 1.3-0.8 1.5-0.1 2 0.2 3.4-0.3 0.4-2.4-0.1-2.8 0.4-1.1 1.3-1.5 0.2-1.2-0.4-1.4-0.5-0.9-1.5-1.7-1-0.6-0.8-0.1-0.8 0.2-0.7-0.3-0.8-0.6-1.4-1.9-0.7-0.8-0.6-0.2-1 0.7-1 1-0.8 0.3-0.5 0-1-0.6-4.1-3-0.8-0.2-2 0.7-1.3-0.2-1.9-0.8-1.1-0.3-4.7-2.3-3.2-1.2-2-0.4-2.1-0.7-0.9-0.7-3.8-3.3-0.6-6.1 0.4-1.7 0.7-0.6 0.9-1.5 0.2-1.2-0.7-3.2 0.2-1.2 1.7-1.4 2.8-1.5 2.5-0.6 0.7 0.1 0.8 0.4 1.7 0.4 1.3-0.3 1.5-0.1 1.7 0.3 0.6-0.1 0.8-0.6 0.4-1-0.6-1-0.3-1.3-0.6-1-0.6-1.7-0.7-1.3-1.7-2.1-0.2-0.4-1.6-8.2-0.5-1.6-0.1-1.5-0.3-0.8-0.7-1.3 0-1.1-1.3-7.2-0.3-3.4 4.7-2.9 0.8-1.1-0.9-1.4 0-1.5 0.7-1.7 0.4-0.7 0.6-0.4 3.5-0.2 5.8-1.2 1.6 0.1 1.9-0.2 8.2-4.2 1.1-0.3 1.9 0.1 1.6-0.4 0.7-0.4 0.9-0.9 3.8-2.9 0.6-1 0.3-0.8 0.6-0.7 0.7-0.7 2.5-3 0.7-1 1.1-1.2 1.4-1.1 0.9-1 1.3-0.4 0.7 0.3 0.5 0.6 1.4 0.1 5.4-2.3 1.5-1.9 0.4-1 0.7-0.5 0.4 0 1.4 1.1 0.7 0.7 0.9 0.7 0.7 0.2 2.6 0.6 0.8 0 0.6-0.2 0.5-1.2 0-1.9-0.2-1-0.3-0.8-0.7-0.9-0.1-0.5 0.1-1.4-0.2-1.1-0.3-0.8-0.9-0.7-1.5-0.7-0.2-1.4 0.2-1.6-0.1-1.5-0.7-1.5-3.2-3.9-0.5-1.6-1.6-3.4-0.4-0.6-2.8-3.1-0.6-1.2-1.1-3.3-0.8-5.5-1-1.5-1.8-1-1.4-0.3-3 0-2.4-0.7-3.7-1.9-4.3-1.3-1.7-0.3-2.8-1.9-5.8-1.8-1.2-0.6-0.6-0.6 0-1.4 0.4-1.9-0.1-2.3-0.2-1.5-1.8-4.3-1-1.5-1.8-1.4-0.5-4.8-0.6-1.6-0.7-0.7-1-1.6-1.1-1.1-1.3-0.1-1.5 0.2-4.3-0.5-1-0.3-0.8-0.7-0.5-2.5 0.8-3.2 0.1-3.3 0.3-1.3 0.5-1.6 0.1-1.4-1-2.2-0.7-0.8-1.4-0.3-0.5-0.4-0.7-1.1-0.1-0.8 0.3-2.7-0.3-1.6-0.4-0.8-3.7-4.4-0.8-1.3-1.2-2.4-0.2-1.2 0.2-4.3-0.4-0.5-1.2 0.4-0.6-0.1-0.1-0.5-0.1-1.9-0.1-0.7-1.4-2.7 4.3-2.7 2.7-2.1 1.3-0.3 1.2 0.5 1.6 0.3 4 0.3 2.1-0.2 0.4-0.4 1.6-0.9 0.9 0 1.2-0.5 0.8-0.5 0.9 0 1.2 1.1 0.9 0.6 4.6-0.4 1.4-0.4 0.4-0.4 3-1.5 2.3-1.6 1.6-0.4 3 0.2 2.6 0.9 1.1-0.2 1.3-0.9 1.5-0.1 0.5-0.3 2-1.8 0.3-0.5 0.2-2 0.4-1.2 0.6-1 1.1-1.8 1.4-1.8 0.6-1 1.4-1.4 0.6-0.9-0.2-1.4-0.2-0.8-0.7-0.7-3.3-1.6-1.8-0.3-3.4-0.1-1-0.2-0.9-0.4-3.1-2-0.4-0.6 0.4-1.3 0-1.3 0.3-0.8-0.1-1-0.6 0-0.7 0.4-0.9 0.4-1 0.1-0.5-0.2-1.4-1.5-1.6-1.3-0.9-0.5-0.7-0.1-1.7 0.7-1.3 1.7-0.9 0.3-1.9-0.1-0.5 0.1-2 0.7-1.6 0.1-8.6 1.6-9.5-0.6-5.3-3.3-1-1.3 0.5-1.2 0.1-0.7-0.3-0.9-0.8-1.9-0.9-1.1-2.5-2.4-0.6-1-0.3-0.9-0.3-1.7 0.2-1 0.4-0.6 1-0.7 0.4-0.6 0.2-1 0.3-0.7 0.8-0.9 0.6-1 0-1.3 0.2-1.2 0.1-2.7 0-2.4 0.4-1.7 0.6-1.5 0-1.2-0.7-0.8-0.4-0.7-0.6-1.5 0.1-1.4 0.6-0.4 0.9-0.1 0.8 0.3 1.2 1 0.3 0.1 1-0.4 0.6-0.7 0.1-0.4-0.5-1.8 0.4-1.1 1.1-1.7 0.6-0.5 1-0.7 2.4-2.5 1.4-0.3 0.7-0.3 0.3-0.3 0-0.9-0.7-1.4-0.2-1.9 0.5-1 1.5-1.1 0.4-1.2 0.1-1.9 2-1.3 3.1-3.6 1.8-1.5 1.5-1.7 2-3.3 0.5-1.1 0.6-1.6 0.8-1.9 0.1-0.6 0.1-2 0.8-2.5-0.1-0.9 2.6-3.5 1.3-1.1 1.9-0.8 1-0.9 2.2-4.2 0.4-1.2 3.5-6.5 0.4-1.2-0.2-1.9-0.5-1.3-0.5-0.6-1.5-1.6-0.6-1.2-0.7-2.8-1-2.4-0.2-0.7-0.3-6.3-0.3-0.9-0.7-0.8-0.6-0.5-1.1-0.4-1.4-0.2-0.8 0.1-1.7 0.7-1.5 1.2-1.2 2-0.9 1.1-0.9 0.2-1.1-0.4-1.2-1.8-0.4-1.7 0.4-1.6 1.1-1.5 1.7-1.3 19.4-9 4.8-1.3 4.5-0.7 2.5 2.9 0.4 5.8 1 2.2 2.3 2.9 8.2 6 2 1.1 1.3 0.5 1.2 0 0.8-0.5 0.7-0.9 1.1-1.1 1.2-0.4 0.9 0 0.7 0.6 0.7 1.3 0.6 2.8 0.9 2.8 0.5 2.8-0.1 3.8-1.2 3.8-1.4 2.3-1.1 1.1-1.4 1-9.2 3.6-0.7 0.4-0.4 1.1 0.2 0.8 0.6 0.9 10.4 3.4 0.6 0 1.4-0.6 1.8 0 5.2 1 3.9 1.3 1 0.9-0.1 3.2 0.4 2 0.8 0.9 0.7 0.4 2.4 0.3 2.2-0.2 4 0 8.4-3.7 1.2-0.3 3.3 0.1 1.5-0.2 0.7-0.4 1.3-1.4 0.9-0.7 1.5-0.6 1.9-0.3 0.6 0 1.8 0.4 0.7-0.4 0.4-0.9 1.1-1.1 1-0.1 1 0.5 2.8-2.8 1-0.7 2.2 0.2 2.5-0.3 5.7-4.2 1.5-0.5 11.3-2.1 3.3-1.3 2-1 0.7-0.9 1-2.3-0.3-2 0.9-0.5 2.4-0.8 2.2-1 5.7-5.7 2.2-1.5 2.4-0.8 1.6-0.2 1.5-0.4 2.1-1.7 4.4-5.1 1.5-1 23.9-9.6 8.4-2.1 4.2 0.2 8.2 2.1 4.2 0 1.8-0.6 3.5-2.2 1.9-0.6 4.3-0.3 4.4 0.3 3.2 0.8 4.4 3.3 4.7 2.2 1.3-0.9 1.7-0.5 3.1-1.6 4.6-0.8 3.8-1.7 11.3-0.9 4.2-1.3 1.1-0.8 0.2 0.3 0.7 3.5-1.9 3.7-10.1 6.9-5.4 4.7-1.9 0.9-2.2 0.6-1.8 0.8-0.5 1 0.7 1 1 2-0.2 1-0.9 3.1 0 1.5 0.8 9-0.4 0.9-0.5 0.7 0 0.8 1.3 1.1 1.1 0.3 2.6 0 3.3 1.2 4.4 0.7 1.7 1.3 0.6 1.9 0.2 6.1 0.8 2 4.6 7.4 0.7 0.6 0.2 0.7-0.8 1.7-0.8 0.8-5.2 3.1-1.3 1.3-0.4 1.8 2.1 6.3 1.1 0.8 2.3-0.8 2.1 0 1.6 1.7 1.3 2.4 1.6 4.8 0.3 2.4-0.3 2.3-0.9 2.2-0.9 0.6-1.3 0.5-1 0.7 0.1 1.2 0.7 0.3 4-0.1 1.6 3.1-5.6 10.3-0.1 4 8.2 0.8 4.2 1.2 2.1 0.3 2.2-0.3 1.8 0.3 0.8 1.6 0.7 2.4 1.7 2.1 2.2 0.9 1.9 0.1 4.2-0.6 1 0.1 2.8 0.9 1.6 0.2 0.7 0.2 1-0.1 0.6 0.4 0.1 2.2 0.2 0.8 1.6 1.2 1 0 1.2-0.6 2.4-2 1-0.6 2-0.5 1-1.1 0.9-1.9 1.3-1.6 2.2-0.4 1.9 1.2 3.4 4.6 2.4 1.6 8.3 0.3 1.7 1 0.2 1.7-0.4 1.8-0.1 2 0.9 2 4 5.5 0.4 2.8-2.5 2.1-3.5-0.2-6-3.2-1.8 0.7-0.3 1.4 0.6 5.4-0.2 2.1-1.2 1.9-2.8 3.4-2.2 4.6-0.9 0.8-1.3 0.4-1.3 0.5-1.1 0.8-1 1.1 0 3.1 5.2 13.3 0.2 2.6-1.1 4-0.3 2.5 0.3 1.2 1 2 0.2 1.3-0.5 1.4-0.9 1.3-6.9 7.3-4.4 2.3-0.7 1.5 0.4 0.9 0.6 0.8 0.3 1.5-0.6 1.5-2 2.4-0.8 1.4-1.3 5.8-0.8 1.9-3.6 4.9-0.8 2.4 1.7 1.9-3.4 1.8 2.5 2.6 5.1 2.3 4.5 1.2 8.5 0.9 3.9-0.4 6.6-2.9 1.6-0.2 5.7 2.4 1.6 0.1 3.8-0.4 10.5 2.6 0.9 0.6 0.9 1 1 2.1 0.5 0.7 2.3 1.1 1.1-0.9 1.1-1.7 2.2-1.2 1.7 0.5 6.7 3.5 0.9 0.8 0.6 0.9 0.9 0.7 1.4-0.2 0.9-1 0-2.3 0.6-1 2.2-0.3 8.3 1.4-0.8 1.6-0.1 1.6 0.6 1.6 1.2 1.2 1.7 3.9-1.1 4.6-3.9 8.7-0.3 2.7 0.5 2 1.9 4.2 1.2 6.7 1.2 2 4 2.2 9.4 0.2 4.3 1.3 1.6 1.3 0.9 0.9 0.3 0.7-0.2 1.1-0.9 0.4-1.1 0.2-1.1 0.7-1.4 1.6-1 2-0.7 2.1-0.3 1.7 0.1 1.9 0.4 2.7 0.8 2.4 1.2 1.5 2.2 1.6 3.8 5.5 2.8 1 1.2-0.6 3.6-2.8 1.5-1 3.4-1.2 1.6-1 1.4-1.4 1.4-2.1 1.3-1.4 1.7-0.7 2.4-0.2 2.3 0.5 1.7 1.1 3.3 2.8 0.6 2 1 1.8 1.5 1 1.9-0.2 2.5-0.6 5.5 1 2.8-0.2 5.6-1.7 2.6-1.3 1.8-1.9 4.7-2.4 5.8-6.4 4.5-6.7 4.2-3.8 4.7-2.3 10.8-3.2 2-0.9 5.6-4.1 1.4-1.1 1.4-0.9 1.6-0.5 4 0.8 0.7 1.9 0.3 5.8 0.9 1.3 1.5 0.9 1.3 2.2 0.8 2.5-0.2 1.7 0.8 1.4-0.7 1.4-1.1 1.6-0.4 2.2 0.6 1.8 0.2 2.2-0.5 1.8-1.5 0.7-15.5 12.8-10.4 5.5-1.5 0.5-3.7 3.9-1.3 1-4 1.7-2.6 0.4-2.1-0.9-0.8-0.6-1-0.3-1-0.3-1 0-1.4 0.4-0.4 0.9 0.1 1.3-0.2 1.4-3.5 14.5-5.8 10.6-1.3 1.9-2.1 1.2-5 1.1-2 0.9 1.4 3.2 0.1 1-0.6 0.8-2 1.4-0.5 0.6-0.2 2.5-1.1 4.9-0.2 2.3 2.1 1.5 9.8-1.7 3.2 0.7 0 0.7-2.8 2.7-3.1 2.4-3.3 1.9-3.6 1.2-2.5 0.1-4.8-1.4-9.6-1.6-2.1 0.4-1.5 1.6-1.1 1.8-1.3 1.6-4.4 1.3-1.7 1.6-2.9 3.6-3 2.6-1.1 1.5-0.5 1.9-0.5 1.5-2.5 3.6-0.8 1.9 0 1.5-1.4 3.2-1.2 4.1-1.4 10.5-1.1 3.7-0.2 2.5-0.5 2.1-1.1 1.7-1.2 1.5-0.3 1.6 0 1.6 0.2 2-4.8-3.1-0.9-1.3-0.6-1.1-0.7-1-1.4-0.9-1.6-0.4-1.3 0-1.2-0.4-1.3-1.6-1.1-0.9-0.4-1.1-0.3-1.2-0.7-1-1.1-0.9-0.6-0.1-0.5 0.2-6 0.9-2.5 0.9-2 1.3-1.2 1.8-1.5 4.3-1 1.9-1.9 1.8-1.9 0.7-4.5-0.1-2.3 0.5-4.1 1.7-2.2 0.4-1.1-0.2-1.6-1.2-1-0.4-1.2-0.1-2 0.3-1.1-0.1-8.5-2.8-5.4-3.8-1.6-0.6-2.1 0.8 1 2 4 4.3 1 2.2 1.2 6.9 3.7 3.9 0.7 1.9-0.6 3-1.1 2-1.2 0.8-1.3 0.7-1.5 1.5-3.6 3.2-13.4 4.2-2.8 0.4-2.3-1.1-4.3-3.7-1.9-0.9-4.6-1.3-2.1-0.2-4.6 0.7-4.8 1.9-4.1 3.1-2.2 4-1.2 8.1 0.1 1.2 0.6 2.2 0.1 1.1-0.3 0.5-1 1.5-0.3 1.2 0.4 2.8 0.6 2.2 0.1 2.3-0.9 2.9-1.5 2.5-1.5 1.4-4.3 1.7-4 2.9-1.7 0.4-2.1-3.3-1.4-1.2-1.6-1.2-3.3-1.5-6.5 5.1-2.1 0.7-9.9 1.5-1.9 0.8-0.9 1-1.9 2.4-0.9 0.6-2.5 0.5-2.2 0.8-1.1 1.1-0.2 0.8-0.4 0.1-1.9-0.9-1.2-0.9-0.8-1.1-1-0.7-1.6 0.1-3.8 2.1-5 0.2-5.2-0.5-4.5 0-4.9 2.4-2.8 0.6-2.1-1.4-0.3-1.3 0.2-2.4-0.5-1.1-0.9-0.5-3.7-1.2-4.4-4-2.3-1.3-2.9 0.4-1.4-0.4-1.4-2-1.6-1.6-2.4 0.5-0.7 1.6-1.5 7.7 0.1 2.2 1 4.3-0.1 2-0.6 1.5-0.9 0.4-1.1-0.1-1.2 0.4-0.9 0.9-1.7 1.9-0.8 0.9-6.9 3.4-1.9 0.3z" id="MMR3277" name="Shan" data-id="MMR3277" data-name="Shan">
 </path>
 <path d="M653.4 2214.6l-2.2 0.7-2.2-0.5-1.1-1.4 0.8-2.1 1.7-0.8 1.7 0.6 1.2 1.5 0.1 2z m21.8-29.9l2.3 0.7 0.8-0.4 1.5 0.4 0 0.8-1.7-0.2-0.7 0.3 0.1 1.4 0.7 0.8 0.9 0.5 0.5 0.6-0.6 1.2-2.1 0.6-1.3 1.9-0.7 2-0.8 0.9-1.8 0.7-3.8 2.5-1.6-0.1-0.4 1.3-0.5 1-0.3 0.9 0.3 0.7-2.8 4.6-1.4 1.3-0.2-2.1-1.2 0.3-0.4-2.3 0.1-3 0.3-1.6 0.4-1 0.3-3.2 1.5-0.3 0.8-0.8 0.7-1.2 0.7-0.4 0.8-1.9 0.4-0.8 0.9-0.7 2.9-1.6 3.2-2.9 2.2-0.9z m-6.5-0.9l-1.1 3.2 0-8.9-0.2-0.7-1.1-1.5-0.3-0.9 0.5-1.2 0.7-1.1 0.4-0.9-0.7-1 0-0.8 1.9-0.1 2.9 1.8 2 0.6-0.1 0.7-0.7 0.1-0.6 1.1 0 0.5 0.6 0.7-1.7 1-1.1 0.8-0.8 1.2-0.6 5.4z m-31.8-45.5l1.2 0.1 0.6-0.1 0.6 0.6 0.5 0.8 0.9 2-1.1 1.1-0.7 0.2-1-0.1 1 1.8 0.6 0.6-2.5 1.1-1.8-0.4-0.5-1.6 1.7-2.2-0.7-1.4-0.5-2.2 0.3-1.8 1.7-0.8-1 1.7 0.7 0.6z m33.1-1.1l-1.6 0.1-0.8-2.1 0.5-1.6 1.3-1 1.8-0.5 1.7-0.1-0.5 1.1-0.8 2.5-1.6 1.6z m38.4-39.4l-1.3 4.1-1.6 1.1-2 0-1.2-0.8 0.6-1.4 1-0.4 0.9 0 0.6-0.1 0.2-1.1-0.3-0.8-0.8-0.3-1 0.2-1 0.5 0-1.5-0.6-1.6-0.4-1.8 0-1.5 0.3-1.2 2.7 1.3 2.6 2.2 1.3 3.1z m-71.5-2.8l-2.8 1.4 0.8-1.1 0.4-1.1 0-1.1-0.4-1.2 0.6-3.2 1.7-1.3 2.3 0.1 2.2 0.5-1.2 3.1-1.5 2.2-2.1 1.7z m34.7-7.8l0.4 2.1 0.2 2.2 0.5 2 1.3 1.3 1.6 1 1.1 1.5 0.3 2.1 0 2.2 0.7 1.6 2.1 0.3-1 1.5-0.4 1.4 0.3 1.3 1.1 1.2-0.6-0.1-0.2 0.9-1.3 2.5-1 1-1.9 0.4-1.5-0.5-0.5-1.3 0.1-3.7 0.8 0.8 1.7-1.4-0.5-1.1-2-1.3 0.1-1.7 0.8-3.5-0.1-1.9-0.5-0.3-1.5-0.5-0.3-0.3-0.2-1.7-0.2-0.5-1.9-2.4-2.2-2-0.9 1.6-0.7-3.9-1-0.5-1-0.1-0.7 0.5-0.3 1.3-0.8 0.7-3.4 2.3-1.2 0.5-1.3-1.2 1-1.8 2.6-2.8 0.3-0.6 1.5-0.9 0.6-0.5 0.2-0.7 0.4-2 0.4-0.8 1.4-0.4 2.1 0.3 2.1 0.8 1.6 1.3 1.1 1.8 0.7 2z m24.2-4.4l-0.8 0-0.4-1.4 0.4-1.8 1.1-1.1 1 0.2 0.1 1.7-0.5 1.4-0.9 1z m11.3-2.6l0.1 3.2-0.1 0.7-0.9 0.3-0.4-0.7-0.2-1.9-1.1 0.4-0.7 0.6-0.4 1-0.1 1.1-2.4-1-1-2 0.2-2.3 0.9-1.7 1.8-1.4 0.7-0.8 0.5-0.9 0.2-1-0.2-2 0-0.8 1.2-1.9 0.8 0.3 0.6 1.7 0.8 4.3 0.1 1.7-0.4 3.1z m-29.6-29.4l0.7 0.3 1-0.3 0.9 0 0.4 0.8-0.8 1.1-1.7 0.9-3.6 1 0-1.4-0.4-1.8-1.2-1.2-1.2-0.9-0.2-0.8 1.3-0.6 2.3-0.2 3.2 0-0.7 2.2 0 0.9z m1-29.5l-1 3.2-0.8-0.8-0.7 1.5-0.1 0.8-1-1-1.5-2-0.5-0.9-0.7 0.9-0.4 0.6 0 0.7 0.4 1-1.9 0.1-0.9 0.7 0.3 0.9 1.7 0.6-1.1 0.5-1.2 0.3-1.3 0-1.2-0.3-1.3-0.5 0-2.3 1.1 0.3 1-0.2 0.9-0.7 0.8-1-0.3-1-0.4-2.4-0.4-0.9-0.2-1 1-0.9 1.2-0.7 0.6-0.5-0.2-0.9-1-0.9-0.3-1.3 0.4-1 1.6-1.1 0.6-2.1 0.8-0.4 0.7-0.1 0.5-0.3 0-1.3-0.7-2.2-0.1-1.2 0.6-2.4 3.2-6.1 0.5-5.1 0.7-1.5 1.5 0.1 1.6 2.4 1.3 3.1 0.5 2.1-0.3 1.1-0.7 0.4-0.8 0.1-0.5 0.4-0.2 1 0.2 3.6-1.3 4.7-0.3 2.4 0.9 2.2-1.5 2.8 0.2 6.5z m-89.5-31.6l0.3 1.1-1.7-0.5-0.6-0.4-1.6-1.6 2 0.1 1.6 1.3z m118.3-1.2l0.6 0.8 0.4 1.1 0.3 1.4 0.1 1.2-0.1 3.5-1 3.3 0.3 8.7-0.4 1.5-1.5 1.8-0.4 1.4 0.1 1.6 0.6 2.7 0.1 1.5-1.3-0.9-1.7-2.1-0.9-0.9-1.2-0.4-1.4-0.3-1.3-0.6-0.7-1-1.9 2.3-1-0.3-0.4-1.9 0.3-2.5-0.9 0.7-0.5 0-0.8-1.4 0.7-2.4-0.9-1.5-1.4-1.1-0.7-0.8-1.3-3.2 0.3-1.5 2.6-0.4-0.7-1-2-1.7-0.4-0.7 0.2-1.5 0.7-0.5 0.7-0.2 0.7-0.5 1.3-0.8 0.3-0.5-1.2-0.3-2.2-0.1-0.8-0.4-0.5-1 2.6-0.6 4.9 0.8 1.6-0.2-0.5-0.8-0.3-0.9 1.4 0.1 3.2 0.8 1.3-0.2 2.6-0.8 1.5 0.1 0.9 0.6z m-54.5 5.6l0.6 2.3 2.7-0.7-0.1 1.4-0.7 1.1-1 0.8-1.1 0.5 0.9 0.5 0.4 0.7 0 0.9-0.6 1.1 1.9 2.2 0.7 1 0.4 1.4-2.7-1.6-0.8-0.7-0.2-0.7-0.7-0.6-1.7-2.5-1.9-1.2-0.6-0.9 1.4-0.3 0.5-1.1 0-2.2-0.7-2.1-1.7-0.7 0.5-2.9-1.3-6.2 1.6-2.6-0.3 4.2 0.3 1.3 0.6 0.7 2.8 2.4 0.8 1.5 0 3z m-42.8-12.9l0.6 2.9-0.4-0.1-1.9-0.7-0.9-2.6 0.1-1.5 2.3-2.9 1.1 1 0.5 1.1-0.3 1.1-0.9 1.1-0.2 0.6z m68.5-0.3l-1.1 1.4-1.4-0.1-0.8-0.4 0-3 0.3-2.1 0.9-0.7 2.2 1.5 0.5 1.5-0.6 1.9z m-2.5-6.9l-0.8 0.4-0.9-0.3-2.1-3.2 1-1.6 1.8-0.8 0.9 0.4 0.2 1.1 0.7 2.2-0.1 1-0.7 0.8z m28.7-9.1l2.4 1.3 2-0.6 1.6 0.9 3.2 2.9 4.3 1.1 1.9 1-0.1 1-3 0.9-6.5 0-2.3 1-1.8 1.6-2.2 1.5-2.2 0.8-2-0.3-1.6-3.4-0.4-1.4-0.1-1.6 0.3-0.9 1.1-1.7 0.2-0.8-0.3-1.2-0.5-0.5-0.8-0.4-2.1-2.2-0.1-1.2 0-3.5-0.9-3.5 0-1.5 0.9-1.2 0.7 1.2 3.1 2.7 2.3 3.2 1.7 3.7 1.2 1.1z m-46.8-21.8l-0.2 1.3 1-0.5 1.6-0.7 1.3-0.1 0.7 0.9 0.3 4.8-0.3 1.1-0.9-1.7-1.4-1.3-1.9-0.4-2 1.1-1-0.6-1.5-2.7-2.2-2.2-0.6-1.5 0.3-2.1 1-2.6 1.5-2.2 1.5-0.9 2.1 0.1 1.8 0.5 1.3 1 0.4 1.8 0 1.1-0.4 2.3-0.3 1-0.6 0.8-0.8 0.7-0.7 1z m-0.2-18.9l-1 0.6-0.6-0.1-0.8-0.3-1-0.2-0.1 0.6-1.9 3.4-0.9 0.9-1.1 0.7-1.2 0.5-0.9 0.2-0.3 0.6-0.9 4-1-1.9-0.5-0.4-0.4-1.9-1.5-0.2-1.6 0.3-1-0.5 0.3-1.6 1.4-1.2 1.1-1.2-0.6-1.5-1.4 1.1-0.8 1.2-0.8 0 0.2-3.2 1.6-1.3 2.3-0.7 3.5-2 1.2-0.1 0.6 0.4-0.6 1.1-1.1 1-0.5 0.7 0.2 0.8 1 1 1.4-0.3 1.6 0.3 0-1.2 0.1-1.3 0.4-1 2-1 0.6-1.3 0.4-1.3 0.3-0.7 1.7 0.5 1.1 2 0.4 2.5-0.9 2z m45.7-5.1l-1.4 0.5-1.5-0.5-0.9-1.7 1.6-7.7 1.2-2.3 1.6 2 0.3 1.8-0.3 6.4-0.6 1.5z m-25-10.6l-2.5 0.9-2.6-1.2-0.8-1.2 0-1.2 0.4-3 0.4-0.4 1.5-0.3 0.7-1.6 0.6 0.6 0.6 1 0 0.3 2.5 3.5-0.8 2.6z m-46.7-6.4l-1.3 2.6-0.1-0.6-0.8-0.9-0.3-0.9-1.1 0.1 0-0.8 0.5-0.7-0.9-0.9-0.3-1 1.5-0.9 1-0.3 0.5 0.3 0.4 1.9 0.7 0.9 0.2 1.2z m59.8-1.3l2.7 4.7 0.4-2.9 1-3.6 1.4-1.9 1.7 2.3 0.5 3.1 0 4.4-0.6 4.2-1 2.6-7.2 10.9-4.6 4.1-5.3-1.4 1-2.5 0.5-0.6 0.4-2.4 1.5-4.6 0.4-2.7-0.2-1.1-1-1.6-0.5-1.4-0.5-0.4-0.1-0.6 0.4-0.7 1.6-1.2-0.1-0.8-2.1-3.9-1.2-5.1-0.1-5.4 1.5-4.7 1.9 1.8 6.1 1.6 2 2.1 0 1-0.8 4.9 0.3 1.8z m-59.6-22.2l-1.2 0-1.8-0.7-0.2-2.3 0.8-1.5 1.2-0.1 1.3 1.9 0.4 1.8-0.5 0.9z m47.9-36.2l0.9 0.2 0.7-0.6 0.9-0.4 1.3 0.8 0.7 1.2-0.2 0.8-1.3 1.1-0.7 1-1.1 1-0.5 1.2-0.2 1.1 0.2 3.5 1.3 4.9 0.1 2.3-1.4 1.4-0.1-2.3-1.5-2.7 0.1-2-0.8-2.2-1.5-7.2-2.5-7-0.5-2.3-0.2-2.3 0.4-5.1 0.5-1.3 1.6 0.1 0.8 1.8 2.3 11.4 0.7 1.6z m-41.1-79.7l-0.8 0-0.3-1.9-0.1-3.3 0.5-2.8 1.5-0.7 0.7 0.9-0.7 1.3-0.4 2.2-0.4 4.3z m29.5-138.6l0 0.6 0.4 1.2 2.2 4 0.8 2.5-0.1 4.1 0.1 2.4 0.4 0.6 1.2 1 0.3 0.7 0 0.6-0.4 1.7 0.9 2.2 6 9.6 13.4 13.1 1.4 2.2 1 2.5 0.6 2.8 0.8 1.6 1.4 0.5 1.4 0.8 7.8 15.9 5 6.4 0.9 0.9 1.5 1 0.7 0.3 1.7 0.4 0.9 0.4 0.7 0.7 1.4 1.9 0.8 0.6 1.6 0 1.4-0.4 1 0.1 2.7 5.4 2.5 2.6 13.2 10.1 2.3 1 2.7 0.8 1.9 1.3 1.1 1.8 0.3 2.6 0.6 2.1 3.5 4.3 1.4 2.2 1.1 2.5 1 1.3 3.5 2.6 0.5 0.7 0.6 1.7 0.4 0.7 0.6 0.3 1.5 0.5 0.5 0.3 0.6 1 0.2 0.7 0 0.9-0.3 1.4 0.1 1.9 1.2 5.5 0.9 1.8 3.6 3.5 1.2 2 0.1 3-0.4 2.6 0.3 9.6 3.9 17.6 0.2 2.2-0.6 5.7 0.3 2.2 0 1.1-0.4 1.2-0.7 1-0.4 1 0 1.6 1.4 4.2 0.5 2.4-0.3 2-1.6 1.4-4.4 0.5-2.1 0.8-1.4 1.9 0 2.2 0.4 2.6-0.3 2.8-1 2.7-0.6 2.6 0.6 2.3 2.4 1.9 1.9 1.2 2.1 1.8 1.5 2.2 0.3 2.2-0.5 1.3-0.6 1-0.4 1.1-0.1 1.5 0.2 1 1.5 3.5 0.4 3.5 0.4 1.1 0.8 1.2 2.2 2.1 0.9 1.4 0.4 2.3-0.1 2.2 0.1 2 1.1 2 1 0.5 2.5 0.4 1.2 0.7 0.5 1.1 0.2 2.3 0.4 0.9 1.1 0.6 2.6 0.8 0.8 0.8 0.7 1.2 1.1 1.1 1.2 1 5.5 3.1 1 1.6 0.5 2.8 0 2.4-0.4 2.5-0.4 1.2-1.2 2.4-0.3 1.2 0.5 2.3 2.5 4.6 0.8 2.5 0.3 6.3 0.3 2.1 0.6 1.4 1.8 2.1 0.7 1.2 0.3 1.3-0.3 2 0.1 1.2 0.5 1.2 1.2 2.3 0.4 1.1-0.2 1.6-0.9 1-1.1 0.9-0.6 1.1 0.4 2 1.5 0.4 6.3-2.1 1.1 0 1 0.4 0.4 1-0.2 1.1-0.5 1.1-0.2 1.3-1.7 5.4-0.4 3.1 1.8 1.7 2.1 0.6 1.5 1.4 0.8 2-0.2 2.3-1.7 4.5-0.3 2.4 0.8 2.5 1.3 1.7 2 1.8 2.2 1.3 1.9 0.6 0.2 1.1-1.6 7.5-1 2.7-7.1 9.6-1.3 1.1-4.6 0.3-2.6 0.5-1.8 1.1-1 1.9-0.2 2.7 0.2 4.5-0.4 1.9-1 2.3-1.4 1.9-3.2 3.2-1 1.8-0.6 2.8-0.2 2-0.7 1.9-4.2 4.6-1.2 1.7-1.7 4.6-1.3 2.5-3.6 4.3-1.4 2.5-3.4 10.1-0.7 1-2.4 0.8-1.1 0.6-0.8 1.1-1 2.3-0.8 1.1-2 1.6-4.4 2.3-1.9 1.9-0.4 1-1 3.4-1 1.4-1.1-0.1-1.1-0.6-1.3-0.4-1.4-0.2-0.6-0.3-0.4 0.2-1 1.1-0.7 0.9-0.4 1.2-0.3 1.2 0 1.2 0.2 1.4 0.9 2.3 0 1.7-0.4 2.2-0.5 0.9-0.8 0.9-0.5 0.2-4 1.7-1.2 0-0.9-0.5-1.1-0.2-1.5 0.6-0.9 1.1-0.9 2.3-0.8 1-0.8 0.2-2.4 0.2-1 0.3-2.2 1.9-4.9 6.5-1.1 2.6-0.9 4.9 0.4 1.4 2.1 1.8 0.7 1.3 1.6 7-0.1 2.3-1.6 4.3-1.1 5.8-2.1 6.8-0.8 0.4-1 1.1-1.4 2.8-1.7 5.6-0.8 4.4-1 1.7-2.4 2.6-2.3 3.5-6.1 12.7-3.2 4.5-2 1.6-0.8-1.1-0.2-1-1-1.7-0.4-0.8-0.1-1.2 0.1-2.3 0-1.1-0.7-3.6-0.1-5.1-2.2-3.7-0.4-1.3-0.1-0.8 0.1-0.7 1.9-4.6 0.5-1.8 0.6-5.2 1.2-4.1 0-2.3-1.8-6.6-2-3.4-0.1-2.3 0.8-4.8-0.5-4.7-3.6-8.2-0.5-4.8 0.1-4.9 0.4-1.6 1.5-0.5 2.4 0.3 1.4 1 1.9 3.4 1.2-1.3-0.1-1.6-0.8-1.6-1.1-1 1.3-0.6 1.2 0.2 1.2 0.8 1 1.2 0.7-1.8 0.8-3.1 0.7-1.3 1.8-2.6 0.4-1.6-0.7-2 1.1 0.1 1-0.3 0.9-0.5 0.8-0.9-1.2-0.4-2.7-0.2-1.1-0.5-0.5-0.7-0.3-0.9 0.3-0.8 3.6-0.9 1.2-1.3 1-1.4 1.6-0.6 0.5 0.2 1.2 1 1.1 0.4 0.2-0.4 1.5-0.5 1.6-0.3 0.4 0.3 0.6-1.3 0.5-2 0.1-2.1-0.5-1.5 0.8-0.7-0.7-1.1-1.9-1.4-0.4-0.7 0.2-1.3 0.6-0.5 0.9-0.3 0.9-0.6 0.6-1.4-0.4-1.6-0.9-1.9-0.4-2.5-2 0.6-1.4-0.9-2-3.5 4.9-1.4 2.4-1.4 1-2.2 0-3.5 1.4-3.3 0.6-2.4 0.7-0.7 0.2-0.6-1.4-1.9-2.2-5.4-0.5-1.9-0.1-1.9 0.6-2.1-2.7 0.7-0.5-1 1-4 0.9-2.2 2.3-0.8 4.4-0.4-1.1-1.6-0.2-4.4-1-1.8-1-0.3-1.9 0.8-0.9-0.5-0.3-1.1 0.9-1.9-0.6-0.9 1.5-1.9 0.3-1.7-0.4-4.1 0.3-2 0.7-2.6 1.1-1.9 1.8 0.2 1.3-0.7 0.9 0.4 0.8 0.7 1.2 0.4 1.2-0.5 0.2-1.1-0.1-1.3 0.5-1 1.5-0.3 2.1 0.4 2 0.7 1.3 0.8 0.8 0-1.7-3.3-7.9-1.6-2.5-2.1 0.9-2.8 2.4-2.6 1.5-2.6-1.9-2.9 0.8 2-0.6 1.3-1.1 1-1 1.3-2.6 4.6-0.7 0.1-2-0.2-2 2.1-0.2 0.3-1.3 0.5-0.4 1.4 0 1.6-0.6 1.5-1.2 1.2-0.9 0.4-1.1-0.3-3-1.7-3.4-2.6-0.7-0.9-0.2-1.1-0.6-1.4 0-0.9 0.3-0.9 1.3-2.2 0.6-0.5 1 0-0.1-1.2-3.1 0 1.8-2.5 0.5-0.5 0.8-0.2 1.1 0 1.2 0.2 0.9-1.7 0.9-2.1 1.4-1.5 2.9-0.2-1.4-1.6-2.3 0.1-4.7 1.5-9.1 0 1-2.3 2.2-0.9 5.5 0.1 1.9-0.5 2.2-1.1 1.6-1.4 1.3-2.5 1.4-0.5 1.3-0.2 0.6-0.4 0.1-3.8-0.1-1.2-0.8-1.9-0.9-1.3-0.2-1.3 1.1-1.8-5.3 0.4-0.8-0.7-1.5-1.3-1.2-1.4 0.1-1.2 0.7-1.4-0.5-1-0.8-1.1 0.2-1.6 0.8-0.6 1.4-0.4 2.5-0.5 0-0.8-1.7 0 1.1-1.3 3.1-1.7 1.5-1.3 0.5-1.3-0.4-1.4-0.8-1.1-0.8-0.5-3.7 0.6-2.4 1.4-2.2 1.8-2.7 1.7-0.9-0.5-2-0.6-0.8-0.5-1.8-1.8-0.9-2.1 0.1-2.1 1.3-2.2 1.8-1.2 2.2-0.7 9.9-2.1 2.3-1.5 1-2.2-0.8-1.8-1.7-1.1-3.6-1.4-2.8-2.7-0.6-0.5-1.5-0.5-0.3-1.2 0.6-2.5 0.1-2.5 0.6-1.5 1.3-0.7 2.6-0.4 4.1 0 1.4-0.4 0.8-0.7 0.1-0.8-0.7-0.4-0.9-0.1-1.5-1-0.9-0.5-1.3-0.2-1.2 0.1-1.2-0.1-1-0.6-0.9-2.4 0.9-2.4 1.5-2.4 0.8-2.5 0.3-0.4 1.7 0.2 0.4-0.2-0.1-0.7-0.8-1.6 0.3-3.3 0.6-1.4 0.8-1.1 0.7-0.7 0.5-0.8 0.2-1.7-0.4-0.3-3.1 0.7-1.5-0.2-0.7-0.5-0.1-0.8 0.4-0.8 0.9-0.4 1.2 0 1.1-0.2 0.6-1-1-0.6-4.7 0.6-1.1-1.2 0.2-1 0.5-0.1 1.2-0.6 0.8-0.1 0.6-0.4 0.5-1.3-1.9-9.3-1.1-0.6-2.6-3-1.3-1 1.2-2.5 0.7-1.1 0.8-0.4-0.4-0.6-1.5-4.1-1.2-2.4-0.2-1.1-0.4-4.4 0.2-1.3 0.8-0.9-0.7-3.4-0.5-8.2-1.4-1.7-1.5-0.8-5.8-4.7-0.6-4.1-0.6-1.4-1.1 1.6-0.5-1-0.3-1.2 0-1.2 0.1-1.3-1.4-3.5-0.1-1.6 1.5-1.1-0.2-1.7 0.2-2.1-1 0.6-0.6 0.8-0.7 2.4 0.1-1.9-0.3-1.8-0.6-1.4-0.7-1.2-1.8-1.4-0.5-0.9 0.1-0.9 1.1-1 0.3-0.8-0.6-1.3-2.6-3.7-1-2.3-1.1-1.1-1.5-0.9-1.5-0.5 0.5-1.4-0.5-0.9-2.3-1.6 0-2.4-4.1-5.9-1.2-2.7 0.8 0.8 0.7-1.5-2.8-0.7-2.1 0.1-1.4-0.9-0.5-3.6 1.3-4.2 0.2-1.8-0.2-1.5-0.4-1.5-0.1-1.5 0.7-1.6-0.7-1.3-1.6-6.2 0-5.1-0.2-1.2-0.4-1-0.1-0.9 0.7-0.9 0-0.7-1.2-1.2-1.5-1.9-1.3-2.1-0.6-1.9-0.7 0-0.1 1.4-0.5 2.4-0.1 1.4 0.3 0.6 1.6 1.9 0.3 0.6-0.1 3.1-0.5 1.5-1.3 1.6-0.2 1.5 1.7 4.4 0.4 2-0.2 2.1-1 4.1-1 9.4 1.6 5.3 0.3 2-0.3 1.9-0.9 2.2-1.1 1.8-0.5 1.2-0.3 1.4 0 1.1 0.3 2.3 1.4 1.4 0.3 0.9-0.8 0.8-0.9-0.1-0.8-0.6-1.4-1.6-0.2 0.8-0.4 0.8-0.4-0.5 0-1.6-0.1-1.3-1.3-1.1 0.6-1 1-1.1 0.8-0.6-0.5-0.5-1-1.8 1.6-0.4 0.7-1.4-0.1-1.8-0.7-1.8 1.8 0.1 0.1-0.9-0.9-1.1-1.4-0.5-2.7 0.2-0.8-0.2-1.4-0.7 0.3-0.7 0.8-1.8 0.4-0.7-2.8-1.2-1-3.5 0.7-2.9 2.3 0.6-0.7-5.1 0-4.7 0.6-1.9 0.2-1.1-0.5-0.5-1.5-0.6-0.8-0.7-0.4-0.7-0.3-2.7-1.5-4.7-0.4-2.4 0.5-2.6 2.4-3.5 0.9-1.7 0.1-1.6 1.2-2.1 0.2-1.4-0.1-1.1-1.4-4.1 1.5 0-0.4-1.5-0.6-1.2-0.6-0.2-0.7 1.4-5.3-7.1-2.9-6.4-2.4-3.6-0.8-2.5-0.6-2.7-0.1-2.4 0.3-2.6 1.5-3.4 0.4-2.2-0.9 1-0.8 1.2-0.9 0.6-1.2-0.5-0.4-1.1-1.1-5.1-3.4-6.3-0.9-3.3 1.3-3-2.8-2-1.6-3 0-3.2 2.1-2.9 4.3-1.2 2.8 2.7 2.7 3.7 3.9 1.9-3.9-5.2-1.2-2.6 2-0.8-1.6-0.7-1.6-0.9-0.7-1.2 0.9-1.9-0.8-0.7-0.8-1-0.5-1.1-0.4-1.3-0.6 0.4-0.7 1.2 0.5 1 0.3 0.8 0 0.7-1.6 1.3-1.6-0.8-1.1-1.9-0.3-2.5-0.8 0-0.3 2 0.9 4.8-1 1-0.6 0.3-0.6 0.6-0.8 0.5-1.4 0.2-0.7-0.4-0.7-0.5-0.9-1.5-3-13.1-2.2-3.4 2.8-2.1 1.6-1.7 2.2-3.6 1.9-3.9 0.9-2.6 0.7-3 0.6-4.2 0.5-1 0.7-0.7 2.2-0.3 1.3 0 3.8-0.4 2-0.5 2.9-1 0.9-0.2 0.9 0.3 0.9 1.1 4.3 7.2 1.3 1.6 1.1 1.1 1.1 0.6 1.3 0.3 2 0.2 6-0.2z" id="MMR3279" name="Tanintharyi" data-id="MMR3279" data-name="Tanintharyi">
 </path>
 <path d="M607.9 578.7l0.3 2-1 2.3-0.7 0.9-2 1-3.3 1.3-11.3 2.1-1.5 0.5-5.7 4.2-2.5 0.3-2.2-0.2-1 0.7-2.8 2.8-1-0.5-1 0.1-1.1 1.1-0.4 0.9-0.7 0.4-1.8-0.4-0.6 0-1.9 0.3-1.5 0.6-0.9 0.7-1.3 1.4-0.7 0.4-1.5 0.2-3.3-0.1-1.2 0.3-8.4 3.7-4 0-2.2 0.2-2.4-0.3-0.7-0.4-0.8-0.9-0.4-2 0.1-3.2-1-0.9-3.9-1.3-5.2-1-1.8 0-1.4 0.6-0.6 0-10.4-3.4-0.6-0.9-0.2-0.8 0.4-1.1 0.7-0.4 9.2-3.6 1.4-1 1.1-1.1 1.4-2.3 1.2-3.8 0.1-3.8-0.5-2.8-0.9-2.8-0.6-2.8-0.7-1.3-0.7-0.6-0.9 0-1.2 0.4-1.1 1.1-0.7 0.9-0.8 0.5-1.2 0-1.3-0.5-2-1.1-8.2-6-2.3-2.9-1-2.2-0.4-5.8-2.5-2.9-2.3-4.7-1.7-1.4-1.9-2.1-1.2-2.2-0.3-2.7 0.1-12.9 0.4-1.2 0.8-1.3 3.2-2.6 1-2.4-3.8-2.4-1.2-0.4-2.1-0.3-2.4-0.7-16.2-6.4-3.4-0.2-5.8 1.7-6.9 1-1.2 0.5-1.6 1.6-1 0.6-1.1-0.1-1.1-1.2-0.9-1.3-1-1.2-4.5-3.8-3.1-3.4-0.4-0.8-3.6-10-2.4-1.4-10.4-2.3-2-0.8-1.3-0.8-1.2-1.2-1.2-2.5-5.6-18.6-5.1-12.5 2.4-1.6 3.9-1.6 3.8-1.1 4.2-1.4 2-1.1 1.2-1 0.9-1.1 1.2-2 0.5-0.3 0.6 0.1 0.5 0.4 0.2 0.6 0.1 0.9-0.2 0.9-0.8 3-0.6 1.2-0.7 1.9 0 1.3 0.3 1.1 0.6 0.6 0.9 0.2 1.1-0.1 1.1-0.6 1.4-1.4 0.7-1.5 0.9-5 0.1-2.2-0.5-4.1-1.4-3.4-2.4-4.3-5.6-7.2-1.2-5.1-1.5-23 0.5-10.7 1.2-4.9 1.2-1.4 0.9-0.2 0.7 0.3 1.1 0.9 0.8 1 0.7 0.9 0.8 0.8 0.9 0.4 1.1-0.1 0.9-0.5 0.6-0.9 0.9-1.2 1.5-1.9 6.5-5.1 2.2-2.4 1.3-2.4 0.4-2.4-1.2-3.7-6-7.3-0.9-2-1.3-5.6-2.1-4.7-0.1-1.5 0.3-2 5.5-13.7 1-0.8 1-0.6 1-1.2 0.8-1.3 0.6-4.2-1.6-9.5-2.5-3.8-0.7-1.9-0.8-3-1.7-2.8-1.6-2-0.6-1.3-0.1-3.2-0.5-1.9-1.2-2.2-5.9-8.3-0.6-1.1-0.2-1.5 0-1.1 1.4-2.2 6.2-1.6 2.9-1.1 2.9-1.6 1.8-1.9 0.8-1.7-0.9-6.1-0.5-1.8-0.8-1.9-1.2-1.8-1.8-1.9-2.2-1.9-3.3-3.5-0.9-1.8 0.6-1.6 1.9-1.9 14.3-8.9 0.5-0.8 0.2-0.9 0.1-5.5 0.7-1 1.3-0.7 3.2-0.8 1.5-0.6 1-1.1 0.1-2.3 0.4-1.7 0.9-1.8 0.6-1.4-0.6-1-3.9-2.4-1.5-1.1 0-0.9 1.6-0.6 9.9 0.1 6.3 1.5 1.6 0.7 2 0.3 1.9 0.1 19.4-2.8 6-0.1 2.7-0.5 6.9-2.4 12.3-0.8 8.5 0.7 1.4-0.2 1.5-0.5 1.3-0.9 1.4-1.7 6.2-9.5 0.9-0.4 1.2-0.1 1.4 0.5 0.9 0.8 0.9 0.4 1.4-0.6 0.4-0.8 1.2-3.2 0.2-1-0.7-1.3-0.9-0.7-1-0.6-0.8-0.9-0.3-1.2-0.1-2.2-0.6-1-3.1-3.3-18-23.8-2.6-4.5-0.5-2.4 1.4-3.6-0.2-1.9-0.4-1.1-0.4-2.3-0.1-1.2-0.3-1.1-1.2-2-0.5-1.2 0-2.6 0.9-2.5 1.5-2.2 1.8-1.6 4.4-3.1 1.9-1.7 3.8-4.9 1.5-0.9 5.1-1.6 0.7 0 0.4-0.5 0.2-1.6 0.4-1.3 0.7-0.7 2.2-0.7 0.7-0.7 0.9-1.9 0.7-0.4 1.2-0.4 0.9-0.6 5.6-5 1.8-2.1 1.4-2 1.3-1.3 2.1-1 2.1-0.5 1.8 0.2 1.3 1.6 0 1.7 0.5 0.8 2.4-0.9 2.1-1.2 0.5-0.9-0.2-1.5-0.1-2.8 0.5-2 1.9-3.6 0.6-1.8-0.8-3.6-5.4-5.8-1.5-3.2 0.7-4.3 3.3-7.7-0.6-3.4 1.1-2.3 4-2.3 0.9-1.2 0.7-2.7 1.6-0.5 2 0.3 2.2 0 1.3-1.4 0.5-2.5 0-4.8-0.3-1.2-0.3-1.1-0.2-1.2 0.5-1.1 1.8-1.9 0.6-1 0.3-1.4 1.5-2 1.7-4.5 1.2-2.2 1.5-4.4 2.1-1.1 2.3 1.6 2.5 3.9 2.7 1.6 3-2 3.3-1.7 3.2 3 4.5 13.3 2.8 3.8 3.5 1 6.9-3.3 4.2 1.9 5.3 7.1 3.8 2.3 1.5 1.5 0.1 2.1-1 3.5 0.7 1.3 4.5 0.7 1.9 1.1 7.8 7.4 0.9 2.1 0.1 2.4-0.6 11.3-0.4 2.6-1.3 2.7 0.7 1.4 3.9 2.2 1.9 1.9 1.3 2.1-0.1 1.8-2.2 1.1-1.9 1.4 0.7 2.2 1.8 2.3 3.8 2.4 0.5 1.2-0.3 1.7 0 2.5 0.4 1.1 0.7 0.7 0.4 0.7-1.1 3 0.3 1.2 3.7 5.9 1.8 4 2.4 9.7 2.1 4.2 3.8 1.8 3.9-1.2 2.1-3 1.1-3.9 0.6-4.1-0.1-4.6 0.3-2.4 1.1-1.1 1.3 0.5 5.8 2.9 2 1.8 3.3-1.7 2.4 1.8 2.3 4.9 1.6 1.4 2.9-0.1 1.3-0.7 1-0.9 1-0.7 1.4-0.1 1 0.7 1 1.2 1 1.3 0.5 1.1 0.3 2.6-1.2 5.1-0.3 5.1 0.7 11.1 0.3 1.3 0.7 0.3 0.9 0.1 0.7 0.5 1.1 4-0.4 4.1-2.7 8.4-0.7 3.6-0.1 4 1.1 8.2 1 2.2 1.2 0.7 1.6 0.5 1.6 1.7 0.7 2.5-0.6 2.2-1.3 2.2-0.9 2.3 2.6 10.9 0.1 1.2-0.4 1.3-1.6 1.9-0.4 1.3 0.4 2.4 2.6 4 0.9 2.3-0.1 2.5-1.6 4.7-0.3 2.5 1.6 4.1 0.1 1 0 2.1 0.4 1.2 0.5 2.6-0.8 2.4-2.3 4.1-0.7 4.2-0.4 16.1-0.5 2.4-0.6 2.3-1.1 2.1-4.4 5.3-1 2.6-0.5 2.3-0.3 2.1 0.7 1.2 2.2-0.4 1 1.1 2.7 6 0.5 2-0.6 1.2-0.9 0.6-0.7 0.7 0.1 2.6-0.7 1-4 3.4-1.5 0.1-0.8-1.4 0.2-4.5-0.7-0.1-1.9 0.7-4.4 1.1-1.4 1.3-0.5 1.8 0.2 2.2 0.7 2.1 2.1 4.4 0.5 2.2-0.2 2.8 0.8 1.6 1.1 0.2 1.3-0.3 1.4 0.4 1 1.2 3.6 5.5 1 2.4 0.6 0.5 1.3 0.5 0.6 0.8 0.3 1.5-0.2 1.7-0.6 1.5-0.8 1.2-5.8 4.5-1.7 0.8-1.1-0.2-1.1-0.5-3.1-1.3-2.6-2.1-1.4-0.6-1.9 0.1-1.2 0.9-2.7 3-1.4 1.4-1 2.1-1.5 4.2-0.7 0.9-0.9 0.7-0.7 0.8-0.2 1.4 0 1.5-0.4 1-4.2 5.3-0.6 1.5-1.4 5.5-1.1 1.8-1.6 1.3-2.3 1.2-2.5 0.9-1.4-0.3-3.3-3.3-1.6-0.9-9.1-3.2-1.2 0.2-0.1 1.5 0.1 6-0.6 1.9-1.2 1.5-2.1 1.9-0.5 0.9-0.1 0.8 0.6 3.2 0.5 1.1 0.3 1.2-0.2 4.7 0.2 1.7-0.4 0.9-2 0.4-1.6 1.2-1.4 2.7-2 5.2-1.3 1.3-4.5 2.3-1.8 1.2-5.1 6.6-2.3 1.4-2.3 0.2-1.1-1-0.8-1.7-1.3-2-4-2.2-2.6 3-2.6 9.7-2.6 5.5-1.8 2.8-1.8 1.4-2 0.6-0.4 1.1 0.6 4.5-0.2 8.3 0.6 4.1 1.7 3.7 4.1 3.3 1.3 1.9-0.8 2.4-1.9 1-2.4 0-4.5-0.8-2.5 0.4-2.3 1.6-4.3 3.7-7.5 5.1-0.4 2.6 0.6 15.4-2.7 16.6-0.1 2.8 0.7 0.9 9-1.3 2.7-0.1 1.7 0.4 0.8 0.8 0.5 1.2 0.4 1.3 0.2 1.2 0.6 1.5 2 1.5 0.8 1.2 0.2 2.6-1.7 0.7-2.3 0.2-1.7 1.3 0.7 3.2 8.2 3 0.6 4.4-0.6 0.9-0.8 0.7-0.7 0.8-0.4 1.3 0.3 1.4 1.6 2.2 0.5 1.2-0.3 2.9-1.4 2.7-21.2 22.2 1.8 2.3 4.4 1.9 4.1 3 0.7 1 0.4 1.1 0.6 2.3 1.4-2 1.1-0.6z" id="MMR3296" name="Kachin" data-id="MMR3296" data-name="Kachin">
 </path>
 <path d="M542.6 182.4l-6.2 9.5-1.4 1.7-1.3 0.9-1.5 0.5-1.4 0.2-8.5-0.7-12.3 0.8-6.9 2.4-2.7 0.5-6 0.1-19.4 2.8-1.9-0.1-2-0.3-1.6-0.7-6.3-1.5-9.9-0.1-1.6 0.6 0 0.9 1.5 1.1 3.9 2.4 0.6 1-0.6 1.4-0.9 1.8-0.4 1.7-0.1 2.3-1 1.1-1.5 0.6-3.2 0.8-1.3 0.7-0.7 1-0.1 5.5-0.2 0.9-0.5 0.8-14.3 8.9-1.9 1.9-0.6 1.6 0.9 1.8 3.3 3.5 2.2 1.9 1.8 1.9 1.2 1.8 0.8 1.9 0.5 1.8 0.9 6.1-0.8 1.7-1.8 1.9-2.9 1.6-2.9 1.1-6.2 1.6-1.4 2.2 0 1.1 0.2 1.5 0.6 1.1 5.9 8.3 1.2 2.2 0.5 1.9 0.1 3.2 0.6 1.3 1.6 2 1.7 2.8 0.8 3 0.7 1.9 2.5 3.8 1.6 9.5-0.6 4.2-0.8 1.3-1 1.2-1 0.6-1 0.8-5.5 13.7-0.3 2 0.1 1.5 2.1 4.7 1.3 5.6 0.9 2 6 7.3 1.2 3.7-0.4 2.4-1.3 2.4-2.2 2.4-6.5 5.1-1.5 1.9-0.9 1.2-0.6 0.9-0.9 0.5-1.1 0.1-0.9-0.4-0.8-0.8-0.7-0.9-0.8-1-1.1-0.9-0.7-0.3-0.9 0.2-1.2 1.4-1.2 4.9-0.5 10.7 1.5 23 1.2 5.1 5.6 7.2 2.4 4.3 1.4 3.4 0.5 4.1-0.1 2.2-0.9 5-0.7 1.5-1.4 1.4-1.1 0.6-1.1 0.1-0.9-0.2-0.6-0.6-0.3-1.1 0-1.3 0.7-1.9 0.6-1.2 0.8-3 0.2-0.9-0.1-0.9-0.2-0.6-0.5-0.4-0.6-0.1-0.5 0.3-1.2 2-0.9 1.1-1.2 1-2 1.1-4.2 1.4-3.8 1.1-3.9 1.6-2.4 1.6 5.1 12.5 5.6 18.6 1.2 2.5 1.2 1.2 1.3 0.8 2 0.8 10.4 2.3 2.4 1.4 3.6 10 0.4 0.8 3.1 3.4 4.5 3.8 1 1.2 0.9 1.3 1.1 1.2 1.1 0.1 1-0.6 1.6-1.6 1.2-0.5 6.9-1 5.8-1.7 3.4 0.2 16.2 6.4 2.4 0.7 2.1 0.3 1.2 0.4 3.8 2.4-1 2.4-3.2 2.6-0.8 1.3-0.4 1.2-0.1 12.9 0.3 2.7 1.2 2.2 1.9 2.1 1.7 1.4 2.3 4.7-4.5 0.7-4.8 1.3-19.4 9-1.7 1.3-1.1 1.5-0.4 1.6 0.4 1.7 1.2 1.8 1.1 0.4 0.9-0.2 0.9-1.1 1.2-2 1.5-1.2 1.7-0.7 0.8-0.1 1.4 0.2 1.1 0.4 0.6 0.5 0.7 0.8 0.3 0.9 0.3 6.3 0.2 0.7 1 2.4 0.7 2.8 0.6 1.2 1.5 1.6 0.5 0.6 0.5 1.3 0.2 1.9-0.4 1.2-3.5 6.5-0.4 1.2-2.2 4.2-1 0.9-1.9 0.8-1.3 1.1-2.6 3.5 0.1 0.9-0.8 2.5-0.1 2-0.1 0.6-0.8 1.9-0.6 1.6-0.5 1.1-2 3.3-1.5 1.7-1.8 1.5-3.1 3.6-2 1.3-3.5-3-1.1 0-1.8 0.5-5 2.7-2.8 0.6-2.3-0.7-3.7-1.7-1-1-0.6-1-0.1-1.7 0.3-1.3 0.7-1.9 0.2-1.5-0.1-1.6-0.9-2.4-1.4-0.9-0.9-0.2-2.5 0.3-2.8 2.4-2.4 2.9-1.7 3.7-0.2 1.5-1.2 2.4-6.9 8.5-2.3 3.9-0.9 2.3-0.8 2.6-0.1 2.5 0.2 1.7 3 10 0.6 1.5 0.8 1.5 0.7 2.1 1.3 5 0.9 2.9-1.2 46.4-0.3 1.2-0.8 1.1-1.3 0.7-2.6 0.1-1 0.5-1 3.9 1.7 5.4 7.6 13.4 0.5 2.5-0.9 2.3-1.4 2.2-0.5 2.4-0.1 9.6 0.7 2.1 2.1 2.6 2.6 2.5 0.1 1.1-0.8 1.7-1.2 1.2-0.6 0.8-0.4 1.3-0.2 1.3 0.3 6.5 1.4 7 0.8 8.2 2 3.7 2.5 7.7 0.4 4.5-1.1 3.9-2.3 3.3-3.1 2.3-2.2 1.2-2 0.7-2 0.5-2.6 0.1-2.1-0.5-1.1 1.1-1.7 3.1-3.7 14.3-1.7 3.1-5.4 6.4-0.7-0.8-2.5-0.6-9.5 1.3-6.9-9.7-3.7-3.8-1.8-0.6-2.5 0-14.1 3.1-1.8 1.4-1.2 5-1.5 3.4 0 0.8-0.7 1-0.7 1.5-4.6-1.5-2-1.2-2.3-2.5-1.5-1-0.4-1.6 0-2.9-0.3-1.6-0.9-1.1-1.9-1.4-1.2-1.5-1.9-4.2-3.2-3.5-0.9-1.6-2.7-0.8-1.9-0.4-3.5 0.7-3 2.1-14.5-0.4-8.6-1.9-5 0.4-2.1 0.7-4.5 0.3-4.5 1-1.6 0.1-1.8-0.4-2.1-0.6-3.2-0.5-2 0.1-5.9 2.1-2.2 1.1-2.6 2.4-1.7 0.7-1.9-0.3-2.2-0.8-2.9-1.6-2-1.6-1-1-0.5-1.5 2.3-19.8-0.2-3.5-0.4-2.3-0.6-2.1-0.8-0.9-1.4-0.4-1.4-0.8-0.8-0.7-1.9-3.7-2.1-0.2-3.4 1-1.2 0-1-0.3-1-1.1-0.8-1.4-0.8-2.2-1.5-13.9 0.2-1.7 0.2-1.1 0.7-1.9 4.3-9 0.5-1.6-0.2-2.4-0.4-1.5-3.1-6.7-5.1-9.4-4.8-5.9-1.8-1.7-1-1.2-1.1-1.9-0.4-1.5-0.3-0.6-1.2-0.9 0-0.5 0.2-1.4-0.2-1-0.8-1.8-1.1-0.4-0.7 0-0.9 1.5-1.3 1.1-1.5 0.8-1.6 0.2-1.6 0-3.1 0.5-1.4-7.9 0.7-3.4 0.5-1 0.9-4.2-0.5-8-0.8-1.7-0.4-1.6-0.6-1.4 0.1-1.5 2.4-9.5 0.5-4.9 0-2.4-2-11.4-0.4-6.4 0.1-1.4 1.4-5.6-0.1-2.1-1.2-4.3 1.2-0.8 2.7 0.2 1-0.5 0.5-1 0.6-9.1-0.3-1.6-0.8-3 0-3.5 0.7-1.1 1-0.2 0.8 0.1 3.6 2.3 1.7 0.6 1 0 0.5-0.3 0.8-0.8 0.5-0.7 0.3-1 0.9-8.9 0.7-3.3 1.5-11.5-0.7-3.1-2.1-4.8-0.6-2.2-0.6-7.9-0.6-1.2 0.3-0.4 0.4-2.5-0.2-2.6 0.2-2.4 1.1-2.5 5-6.8 0.4-1.8 0.6-4.6 0.5-1.2 1.1-1.4 0.5-2.1 0.4-4.4 1.3-4.6 5.5-12.9 0.4-2 0.4-4.1 0.6-1.9 0.8-1 2.3-1.7 0.8-1 0.1-1-0.4-2.1 0.1-0.8 1.2-1.4 1.4-0.9 1-1.4 0.2-5 0.8-1.4 1.3-1 1.6-1.1 1.6-6.2 0.8-1.8 1.3-1.3 5-3.2 1.3-2.8 2.3-8.4 1-1.9 1.6-0.3 1.4 0 1.3-0.2 1.6-0.9 1.3-1.7 0.9-2.1 0.4-2.3 0-2.2 0.6-3.6 4.5-6 1.7-3.2 2.1-10.5 1.8-2.5 2.1-3.8 0.6-5.2-0.8-5.1-2-3.5-4-1.9-4.4-0.9-4-1.5-2.6-3.7-0.4-5.1 6.4-18.3 2.5-4 3.2-3.5 3.6-2.5 2.2-0.8 3.8-0.5 2.1-0.6 2-1.6 2.8-4.7 1.6-2 1-0.4 2.2-0.1 1-0.5 0.1-0.5-0.9-1.2 0.1-0.6 0.4-0.4 1.2-0.7 0.4-0.4 9.9-14.7 0.9-1 1-0.4 2.4-0.3 1-0.7 0.7-2.2-0.2-2.8-2.3-12.7 0.1-2.4 0.8-2.7 1.2-1.2 4.2-1.5 1.8-1.2 4.7-5.1 3.5-4.3 1.3-2.5-0.2-2.6-1.4-1.5-3.9-1.3-1.5-1.3-1.1-8.3 0.4-1 0.9-1 0.5-0.9-0.4-1-0.9-0.4-1.8-0.6-0.9-0.8-1.4-3.8-0.5-4.9 0.2-4.9 0.8-3.9 1.5-4.2 0.2-1.8-0.5-2.4-2.1-4.1-0.2-1.9 1.5-2.4 1.8-1.4 3.2-3.7 1.2-1.9 0.6-1.4 0.1-1.7 0.3-3.5 0.4-0.9 1.1-1.2 1-0.5 2.4-0.6 1.1-0.5 0.9-0.9 1.6-2.4 1-0.9 2.1-0.3 1.7 2.6 2.4 0.2 2-0.6 4.1-2 8.5-2.9 2-1.2 3.3-4.2 2.5-5.2 3-4.1 4.6-1.2 2.6 0.4 2.2 0.1 1.9-1 1.3-2.5 1.1-3 1.2-1.5 1.8-0.8 5.1-0.6 1.5-0.6 1.1-1.4 2.8-4.9 4.8-6 3-1.2 6.2-1.2 3.1-1.6 3-3 2.5-3.5 4-7.9 4.3-6 6.7-4.8 7.6-3.5 29.4-5.1 7.4 0.4 1.8 0.6 2.3-0.3 2.3-0.7 1.7-1 2.2-2.7 1-2.2 1.2-1 3 0.7 1 0.6 0.7 0.6 0.8 0.4 1.4-0.1 1.1-0.7 1.9-2 1.2-0.5 2 0.1 2.1 0.6 3.9 1.8 1.9 1.4 1.4 1.6 2.3 4 1.3 1.6 3.6 3 0.6 1-0.9 2.4-1 2.1 0.1 2 2.5 2.1 15.2 7.1 1 1 0.8 1 0.9 0.9 1.2 0.6 1.1-0.1 1.2-0.6z" id="MMR3302" name="Sagaing" data-id="MMR3302" data-name="Sagaing">
 </path>
 <circle cx="574.5" cy="923.3" id="0">
 </circle>
 <circle cx="690.4" cy="729.2" id="1">
 </circle>
 <circle cx="168.9" cy="885.3" id="2">
 </circle>
</svg>