<?xml version="1.0"?>
<!--
************* Copyright (c) 2017 Pareto Softare, LLC DBA Simplemaps.com *******************		
************* Free for Commercial Use, full terms at  http://simplemaps.com/resources/svg-license ************
************* Attribution is appreciated! http://simplemaps.com ***************************
-->
<svg baseprofile="tiny" fill="#7c7c7c" height="483" stroke="#ffffff" stroke-linecap="round" stroke-linejoin="round" stroke-width="2" version="1.2" viewbox="0 0 1000 483" width="1000" xmlns="http://www.w3.org/2000/svg">
 <path d="M113 168.2l-1.5 0-3.1-0.7-3.1 0.6-9.3 4.4-3.4 0.7-0.1 0.5 0.4 0.9 0.3 0.4 2.1 0.9 0.6 0.5 0.4 0.9 1.2 3.5 0.1 0.9-0.1 0.7-1.3 1.8-0.3 1.1-0.1 1.1 0.1 1.4 0.3 1.3 0.7 4.1 0.2 1.7 0.3 0.8 0.5 0.6 1.5 1.1 0.5 0.5 0.9 1.1 0.4 0.4 0.3 0.8 1.2 4.4 2.6 7.7 0.9 1.6 0.6 0.8 0.7 0.9 0.5 1.2 2.1 6.4 0.2 1 0.1 1.1-0.1 0.9-0.5 1.4-0.1 0.7 0.1 0.8 0.8 1.4 4.2 5.2 2 3.1-0.1 1.5-1.4 3.7-0.3 1-0.1 1 0 1 0.3 1 0.7 1.3 1.4 1.1 1 0.6 1.1 0.5 2.6 1.8 3.1 2.9 2.3 3.2 2.5 1.6-0.1 1.2-0.2 0.8-0.7 0.7-0.6 0.3-4.5-0.6-3.9 0.5-0.5-0.3-0.9-0.6-0.6 0.1-0.4 0.4-0.3 0.7-0.7 1.7-0.5 0.6-0.8 0.3-1-0.2-1-0.7-0.7-0.9-1.2-2-0.7-0.7-0.9 0-0.9 0.1-1 0-2-0.9-2.3-0.5-0.8 0 0.1-0.6-0.4-1.7-0.9-1.6-1.1-1.1-0.4-0.6-0.2-0.9 0.4-1.1 0-0.8-0.7-0.8-0.8-2.4-0.5-0.7-0.6-0.6-0.7-0.4-0.7-0.2-0.7 0-1.2-0.2-1-1.1-7.5-13.4 0-0.7 0.5-1 0.1-0.7 0-0.8-0.4-0.6-0.8-0.6-0.2-1.2 0-1.5-0.1-1.4-0.4-0.6-1-0.8-0.4-0.7-0.9-2.2-0.5-0.7-0.3-0.9 0.3-0.7 0.4-0.5-0.2-0.5-0.6-0.5-0.7-0.4-2.8-0.8-1.5-0.7-1.3-0.9-1.2-1.2-0.4-0.6-0.3-0.9-0.2-1 0.1-0.8 0.2-1.1-0.1-0.8-0.5-0.5-1.3 0-1.2-0.4-0.5 0.2-0.2 0.6-0.2 1.2-0.4 0.6-1 0.4-3.3 0.2-1-0.2-0.3-0.6-0.3-1.3-0.2-0.6-0.5-0.5-1.1-0.3-0.5-0.2-0.4-0.6-0.5-1.5-1-0.4-0.4-0.4-0.2-0.7 0-0.7-0.1-1.3-1-0.5-1.2 0-0.8 0.4-1.6 0-0.5 0-1.2-0.7-0.5-0.1-0.6 0.3-1.5 1.3-0.5 0.5-0.8 0.6-0.8 0.2-1.6-0.3-2.9 0-0.9-0.5-3.5-4.8-0.5-0.4-0.8-0.2-1.8 0.2-0.8 0-0.9-0.7-2.1-2.1-0.9-0.3-0.8 0.1-0.6-0.3-1.2-1-0.5-0.6-0.2-0.9-0.2-0.9-0.2-0.9-0.1-0.9 0.5-1.7-0.3-0.8-1.9-2.4-0.7-0.3-1.3 0.3-0.7 0-1-0.7-1.6-2.1-0.8-0.7-2.2-1.2-0.5-0.1-1.1 0.1-0.6 0-0.5-0.3-1-0.8-0.9-0.4-0.5-0.6-0.6-0.2-1.1 0.1-1-0.5-1-1.1-0.3-1.2 1.5-1.1 0.6-1.4 1.4-0.9 0.3-0.5-0.2-1.2-0.8-1-1.8-1.2-0.7-0.3-1.4 0.1-2-0.9-0.7-0.4-0.4-0.6-0.1-0.4-0.1-1-0.1-0.5-0.6-0.5-0.7-0.3-0.5-0.6-0.1-0.8 0.2-0.9 0.5-0.7 2.4-1.2 1.1-1 0-1.7-0.4-0.6-0.6-0.2-0.5-0.4-0.2-1 0.1-1 0.5-1.4-0.1-1.1-0.4-1.4-0.1-0.6 0.6 0.3 0.6 0 3.2-0.4 0.5-0.4 0.6-0.7 1.1-1.2 2.5-1.5 1.1-1.1 0.1-1.2-0.6-1.4-0.4-1.5 0.6-1.4 0.3-0.5 0.5-1.6 0.4-0.6 0.8-0.5 5.6-1.1 0.7 0 1.5 0.5 0.7 0.1 2-0.1 0.6-0.2 1.3-0.9 0.5-0.2 0.6 0.1 0.4 0.4 0.8 1.1 0.7 0.6 0.7 0.2 4.7 0.3 0.2-0.2-0.7-1.6 0.1-1.8 0-0.7 0.3-0.5 0.7-0.2 0.6 0.3 0.3 0.6 0.3 0.7 1.1 2.2 0.4 0.3 1.2-0.2 4.5-2.1 1.1-0.9 0.6-1.1-0.4-1.2-0.7-1.3 0.2-1.2 0.9-0.6 1.1 0.3 1.9 1.7 0.9 0.6 1 0 0.8-0.9 0.6-1.2 0.7-0.9 1.1 0 1.4-0.9 2.9-1.1 2.1-1.1 0.6-0.6 0.3-0.7-0.3-0.9-0.6-0.3-1.4-0.7-0.3-0.6 0-0.5 0.4-0.5-0.1-0.8-0.5-0.5-0.2-0.3 0-0.6 0.3-2.4 1.3-1.1 1.7-0.6 4.5-0.2 1.7-0.4 1.5-0.8 0.8-1.2 0.1-0.5 0.7 0.3 1.7 1.1 0.7 0.8 0.8 2.1 0.9 3 0.3 1.8 0 1.2 0.2 0.9 0.2 0.4 2 3.3 0.5 1.1 0.5 2.3 0.5 1.2 0.4 1.1 0.5 0.6 0.8 0.8 5.7 2.9 3.4 2.8 0.6 1.5-0.2 0.8 0.3 1 0.5 1.2 0.2 0.4 0.9 0.4 1.8 0.1 3.8 0.5 0.4 0.5 0.1 0.5 0.2 1.3-0.2 1.3 0.1 0.6 0.3 0.7 1.9 3.1 0.7 0.7 0.7 2.1 1.8 4.2 1.3 0.9 2.2 0.8 0.4 0.2 0.5 0.6 0.7 1.2 1 1 0.4 0.6 0.5 1.1 1 3.9 0.3 1.1-0.2 1.1 0 1z" id="MNG3208" name="Bayan-Ölgiy" data-id="MNG3208" data-name="Bayan-Ölgiy">
 </path>
 <path d="M729.9 281.7l11.5 5.3 0.6 0.7 0.3 0.8 0.5 1.8 2.8 6.1 0.6 2.1 0.5 2.2-0.6 11.8 0.1 1.4 0.6 0.9 0.9 0.5 1 0.9 0.3 1.1 0.4 2.7 0.5 0.9 0.7 0.7 0.8 0.5 0.7 0.6 0.8 1.1 0.3 0.8 0.1 1-0.2 2.1 0 2 0.2 2.8-0.8 0.1-1 1-0.6 0.3-1.4 0.4-0.6 0.3-1.7 1.3-0.8 0.9-0.7 1-5.8 11.9-0.4 1.1 0 0.7 0.1 1.5 0 0.8-0.1 0.7-0.3 0.6-0.7 1-0.7 1.8-0.4 0.6-0.8 0.7-0.7 1.2-0.5 1.4-0.3 1.3 0 1.7 0.4 0.9 1.9 1.2 0.6 0.7 0.2 0.8 0.2 1.7 0.5 1.6 0.7 1.4 2.8 3.9 1.1 1.1 3.5 2.3 0.9 1 0.9 1.1 2.8 5.1 0.5 1.4 0.1 1.3-0.1 1.4-0.4 1.2-0.7 0.5-0.5 0.1-1.5 0.7-2.3-0.1-0.6 0.2-4.8 6-0.9 0.9-1 0.5-3.3 0.3-0.9 0.4-1.9 1.6-7.6 3-3.8 2.2-1.2 1.2-4.2 5.9-3.7 3.9-0.4 0.9-0.8 2.1-1 1.8-1.3 1.4-2.9 2.4-0.7 0.7-0.8 2.2-0.6 0.8-8.2 3.6-1.1 0.7-0.9 0.9-1 0.4-1.8-0.1-2.3 0.4-7.6 3.3-4.6 3.5-0.6 0.1-0.4 0.6-4.9 0.4-1.5 0.5-0.8 0.1-8.1-1-1 0.1-3.1 1.6-1 0.4-1 0.1-8.1-1.6-6.7 0.1-2.6-0.7-1.8-0.2-4 0.7-0.9-20.3 0-1 0.5-1.8 0.3-2 0.2-1.9 0-1.6-0.1-1.7-1.6-8.2-0.3-3.9-0.1-5.1-0.2-6.5-6.5-19.9-2.8-5.5-0.3-1-0.1-0.8 0.1-1.3 1.2-6.2 1.7-1.2 0.4-0.8 0.5-1.3 0.9-7.1 0.4-1.7 0.6-0.8 0.8-0.3 2.3-0.3 11-1.4 3.1-1.8 1.4-2.8 1-1.6 1.1-0.9 1.1-0.2 1.2 0 0.6-0.2 0.3-0.5 0-0.9-0.7-2.4-2.3-14.3-0.6-9 0.1-3.3 0.8-4.6 1.8-5.3-1.2-0.1-4.2 1.5-0.9-0.4-0.9-0.9-1.1-2-0.7-1.2-0.3-1.6 0.1-1.3 0.8-6.7 0.1-3 0-0.9-0.3-1.4-0.8-2.1-1.2-1.9-4.9-5.3-0.6-0.8 0-0.6 0.2-0.7 0.7-0.9 3.1-2.5 0.2-0.4-1.5-0.3-2.1 0-1.3-0.3-1-0.4-0.8-0.8-0.7-0.9-0.5-2 1.5-0.8 1.4-0.4 2.1-0.4 2.7 0 4.8 0.9 3.8 0.5 4.9-2.4 2.2-1.3 1.1-1 0.4-0.5 2.2-5.3 3.7 1.7 0.6 1.8 0.2 1.6-0.1 3.2 0.4 0.7 0.5-0.3 1.1-1.6 0.5-0.6 0.6-0.2 0.5 0.1 0.5 0.7 0.3 1.2 0.2 1.3 0 1.2-0.1 0.9-0.2 1.2-0.5 1.5-2.3 4.3-0.3 0.9-0.3 1.6 0.1 1.3 0.3 1.1 1 2.1 2.9 2.9 0.8 1.4 1 2.5 0.7 1 0.8 0.9 4.6 3.2 3.1 0.4 7.7-0.9 1.4-0.4 1.5-1 4.8-4 0.2-0.4 1-2.3 1.2-4.1 0.1-0.8 0-0.9-0.8-4.1 0-1.4 0.3-0.5 1.3-0.2 1.8 0.1 0.8 0.5 0.8 0.9 0.9 1.7 1.8 2.7 5 5.3 0.6 0.9 0.6 1.3 0.9 2.7 1 1.7 2.7 2.7 6.5 3.9 2 0.8 1.8 0.1 2.1-1.5 5.9-5.5z" id="MNG3297" name="Dornogovi" data-id="MNG3297" data-name="Dornogovi">
 </path>
 <path d="M620.6 357.7l-1.2 6.2-0.1 1.3 0.1 0.8 0.3 1 2.8 5.5 6.5 19.9 0.2 6.5 0.1 5.1 0.3 3.9 1.6 8.2 0.1 1.7 0 1.6-0.2 1.9-0.3 2-0.5 1.8 0 1 0.9 20.3-39.7 6.4-14 6.1-13.9 6.1-12.3 6.4-2.2 1.2-1.4 1.1-1 0.4-1.6 0.9-1.7 0.3-0.6 0.2-5.7 6.1-1.3 0.4-1.2-1.5-0.7-0.7-0.6-0.2-9.1-0.1-2.9-0.4-0.3-0.4 0.1-8.5-24.2 4.8-0.9-0.2-18.2-9.8-1-0.4-32.2-7.6-1.9-0.9-2.7-3-4.7-7.7-3-2.3-3.5-0.9-3.5-0.3-6 0.6-37.3-6.2-1.4 0.1-10.8 3.3-3.3-25.6-1.4-35.6 0.1-2.7 0.1-0.6 0.3-0.3 9.3-2.5 0.9 0.1 0.4 0.3 5.3 4.9 3.4 4.7 4.6 4.6 2.1 0.8 2.8-0.6 23.9 0.4 0.7-0.2 1.5-0.5 15.4-9.5 2.4-1.1 9.1-2.9 15.6-1.2 11.6 1 0-0.8-0.2-1.1-2-5.3 0-1.4 0.4-1.2 1.5-1.4 0.5-0.7 0.6-1.2 0.5-2.1 0.4-1.4 5.4-11.7 0.9-1.7 6.4-3.4 5.3-4.1 0.9-1 0.7-1 2.1-4.2 0.5-1.5 10.2 0.2 0.8 1.3-0.1 1.8 0.2 2-0.4 1.1-0.1 1.1 0.3 1.2 0 0.5-0.3 1.5 0 0.8 1.2 2.6 0.8 1 0.8 0.6 2.3 0.8 13.7 2.2 12.8 1.4 8.9 0.8 1.8 0.5 0.6 0.4 4 7.3 2 2.9 0.9 1.7 0.4 1.1 0 1.8 0.4 1.1 0.6 0.9 2.5 2 2.4 1.4 2.3 1.1 1 0.2 9.7-1.5 2.7-0.5 1.5-0.4 2.2-1 2.8-2.2 2.2-1.2 17.7-6.1 0.9-0.1 1.5 0.2 2.2 1.2 0.6 0 3.1-0.4 5-1.6z" id="MNG3298" name="Ömnögovi" data-id="MNG3298" data-name="Ömnögovi">
 </path>
 <path d="M775.1 209.7l-2.2 0.4-1 0.6-0.5 0.2-1.6 0.1-9.5 3.7-1.8 1.2-0.6 0.7-0.6 0.6-0.7 1.3-0.4 1.4-0.2 1-0.2 2.3 0 1.4 0.2 2.1 0.6 2.7-3.7-0.2-4-0.8-1 0.1-1.4 0.6-1.3 0.9-1 0.9-3.1 3.6-1.1 1.9-0.5 1.1-0.3 1.3-1 8.6-0.9 3.1-2.2 4.3-2.8 5.1-0.8 1.6-0.5 1.7-0.1 3.6 0.1 1 0.3 1.4 1 3.4 0.2 1 0.1 0.9-0.2 0.9-0.3 0.7-1.9 2.9-0.5 1.3 0.2 1.4-5.9 5.5-2.1 1.5-1.8-0.1-2-0.8-6.5-3.9-2.7-2.7-1-1.7-0.9-2.7-0.6-1.3-0.6-0.9-5-5.3-1.8-2.7-0.9-1.7-0.8-0.9-0.8-0.5-1.8-0.1-1.3 0.2-0.3 0.5 0 1.4 0.8 4.1 0 0.9-0.1 0.8-1.2 4.1-1 2.3-0.2 0.4-4.8 4-1.5 1-1.4 0.4-7.7 0.9-3.1-0.4-4.6-3.2-0.8-0.9-0.7-1-1-2.5-0.8-1.4-2.9-2.9-1-2.1-0.3-1.1-0.1-1.3 0.3-1.6 0.3-0.9 2.3-4.3 0.5-1.5 0.2-1.2 0.1-0.9 0-1.2-0.2-1.3-0.3-1.2-0.5-0.7-0.5-0.1-0.6 0.2-0.5 0.6-1.1 1.6-0.5 0.3-0.4-0.7 0.1-3.2-0.2-1.6-0.6-1.8-3.7-1.7-2.1-1.6-1.1-1.1-1-1.3-0.4-0.8-0.5-1.8-1.3-3.6-0.3-0.7-1-1-0.3-0.6-0.9-3.4-2-2-0.2-0.3-0.4-1-0.6-2-0.2-0.4-1-0.7-0.1-0.5 0.2-0.8 0.4-0.6 0.4-0.8 0-1.1-0.1-0.5-0.4-0.7-0.1-0.6 0.1-0.4 0.9-0.8 1.1-2.2 0.2-0.8 0.1-1.5 0.2-0.7-0.5-0.7-0.2-0.5 0-1.4 0-0.6-0.4-1.9 0.2-0.5 0.5-0.9 0.1-0.7 2.1-0.4 1.5-0.5 0.7-0.3 1.9-1.1 1.4-1.3 1.8-1.9 1.6-1.2 1.1-0.6 0.7-0.7 0.4-1 0.5-2.3 0.7-1.8 0.7-1.2 0.9-0.9 0.6-1.1 0.5-1.5 0.1-1.1-0.1-1.2-0.6-2.7-0.8-2.3-0.4-1.9-0.8-2.8-1-5.4-0.5-1.6-0.7-1.5-0.2-0.7-0.4-2.4-0.2-0.8-1.2-2.2-1.3-3.2-1.1-2-1.2-1.4-1.9-1.8-0.6-0.7-0.7-0.6-0.6-0.7-0.8-0.7-0.9-1.2 0.4-4.9 1.1-4.7 1.2 0.1 4.4-0.8 3.3 0 2.3-0.4 3.1 1 0.8-0.1 3.2-0.8 3.9 0.4 0.8 0.3 0.7 0.4 2.4 1 1.2-0.2 0.3 0.3 0.4 1.5 1.3 0.6 6.6-0.5 1.8 0.7 1 1.2 0.4 0 2.5 0.6 8.4 2.5 1.3-0.2 1.4-0.5 1.2-0.9 1.1-1.2 0.8-1 0.4 0.1 1.6 1.8 0.5 0.3 1.8 0.5 3 1.9 1.2 0.4 1.4 0.1 1.3-0.2 3.4-1.1 3.9-2.2 5.4-4 4.1-1.5 0.6-0.3 0.9-1.2 0.6-0.5 0.7-0.1 0.7 0.3 1.4 0.7 0.8 0.2 0.7 0 0.8-0.2 3.5-1.9 1.4-0.5 11.4-0.7 3-1.4 2.3 3.5 0.2 0.6-0.4 0.7-0.7 0.9 0.1 2.2 1 6.4 1.1 3.5 0.2 1.2 0 1-1.1 3.4 0.5 1.6 1.2 2.9 6 11.3 1.9 4.7 0.6 1.9 0.4 2.6-0.1 2.8-0.7 2-0.5 3.1 0.8 8 1.6 3.1 0.4 0.7 1.3 2.7 1.3 5.8z" id="MNG3315" name="Hentiy" data-id="MNG3315" data-name="Hentiy">
 </path>
 <path d="M432.8 154.1l0.4 1.7 0.4 0.9 1.1 1.4 1.3 1.2 1.5 1 1.2 0.1 1.1 0.3 0.7 0.5 0.8 0.9 0.4 0.6 0.3 1 0.3 0.5 0.5 0.4 0.6 0.2 0.7 0.1 1-0.3 1.2-0.9 1.3-0.7 0.9 2.1 1.2 4.2 0.8 5.4 0 0.8-0.1 1.3 0.3 1 0.2 0.7 0.5 0.6 0.5 0.5 1.5 1.1 0.8 1 0.4 1.1 0.4 2.7 1.4 1.5 2 1.5 1.4 0.5 1.5 0 1.9 0.2 1.4 1.5 1.6 2.2 0.7 1.5 0.8 1.3 0.9 1.6 0.4 1.1 0.4 2.4 0.3 3.4 0.3 1.2 0.5 0.6 0.6 0.4 3.9 1.8 0.4 1.3 0.2 0.7 1.1 2.3 0.7 1.3 1.5 0 0.7 0.2 0.7 0.3 0.7 0.6 1.6 2 0.9 1.7 0.7 1.6 1 1.7 0.8 0.9 1 1.5 1.3 1.2 1.4 1 1.9 1.8 1.4 1 2.1 2.1 0.3 2.2 0.2 1.9-3.3 2-1.4 0.4-4.9 0.2-5.5-0.6-1.1-0.5-0.7-0.5-1.7-3.7-0.6-1-0.9-0.9-5.3-2-0.8-0.1-1.7 0-2.6-1.5-1.2-0.2-0.5 0.4-0.3 0.7 0.2 1 0.3 0.9 0.4 0.7 0.5 0.6 1.3 0.6 0.5 0.5-0.1 1.3-1.8 4.2-1.3 2.1-2.4 1.6-0.3 0.7-0.4 0.9-0.1 2.2-0.5 2.6-1.6 0.7-0.9-0.2-0.7-0.6-0.6-0.7-1.3-1.9-0.8-0.8-0.7-0.3-0.9 0.1-3.6 1.6-6.5 1.8-2.2 1.6-0.8 1-1.4 1-16.7 3.7-1.9-1.9-0.7-0.3-3.9 0.9-1.4 0-3.5-0.6-1.1 0.1-2.2 0.8-2.4 0-0.7-0.4-0.4-0.6-0.4-1.1-0.7-2-0.5-0.9-1-0.8-1-0.4-1.6-0.5-0.3-0.1-0.3-0.5-0.5-1.6-0.4-1.1-0.7-1.3-0.5-1.1-0.3-2.8-0.4-0.4-0.6-0.1-1 0.1-10.8 3.3-2.8 0.7-0.6 0-0.6-0.4-0.4-0.8-0.2-1.1 0.1-1.8-0.2-1.3-0.6-1.7-0.2-1.2 0.1-1.2 0.2-2.3 0.1-1.1-0.1-1.2-0.4-1.2-0.8-1-2.3-1.9-1-0.9-0.5-0.7-0.4-1.2-0.2-1.4 0-3.6-0.7 0.1-2.2 1.3-0.8 0.8-0.6 0.7-0.6 0.5-0.6 0.4-2 0.3-0.8 0.3-0.6 0.5-1.6 2-1.1 0.8-1 0.3-2.5 0.5-3.8 0-1 0-0.8-0.3-5.4-3.6-0.6-0.7-0.4-0.8 0-3-0.7-2-0.5-0.5-0.9-0.6-1.1-0.3-2.5 0.4-3.1 0.8-1.2 0.8-2 1.9-4.6-0.5-0.8-0.3-1-0.6-0.4-0.7-0.1-0.9 0.1-1.1 1.3-4.4 0.2-1-0.1-1.3-0.4-1.6-1.1-2.7-0.3-1.2 0.8-2.4 1.1-1.3 0.7-0.4 0.9-0.3 6.5-0.2 2.4-0.8 1.4-0.8 0.9-1.1 1.1-2.2 0.9-1 0.9-0.4 1.8-0.2 9.7-4.5 2.6 2.9 1 0.6 0.7 0.1 0.9-0.2 0.9-0.7 1-1.4 0.4-0.4 0.4-0.2 0.6 0.3 1.3 0.7 0.8 0.1 6.9-0.6 0.6-0.2 0.5-0.5 0.3-1 0.4-3.9 0.3-0.9 0.3-0.7 0.7-0.5 0.7-0.3 2.9 0.2 1.1 0.5 4.7 2.8 0.9 0.3 0.9 0.2 1.1-0.2 0.9-0.5 0.5-1.1-0.1-0.8-0.2-1 0.3-0.9 0.9-0.5 2.9-0.6 2.7-0.9 1.3-1-0.6-1-0.7-0.6-1-0.2-0.6-0.6-0.4-1.2-0.2-1.2-0.4-1.1 0.2-1.1 0.6-1.3-0.1-0.9 0.1-0.4 0.8-0.8-0.2-0.3-0.5-0.5 0.6-1.1 0.6-0.6 0.6-0.8-0.1-0.7 0-0.3 1.1-0.5 1.3-0.9 1.1-0.4 1-0.7 0.4-0.8 0-0.4-0.6-0.9-3.7-2.1-0.6-0.6-0.1-0.4 0.3-1.5 0.4-0.5 0.6 0.7 0.7 0 3.6-0.8 0.2-0.4 0-0.7 0.5-0.6 1.2-0.9 0.5-0.6 0.4-0.7 0.2-1.3 0.5-0.9 0.3-0.4 0.8-0.2 10.4 5.6 7.2 5.3 1.1 0.6 3.4 0.2 6.3-1.3z" id="MNG3316" name="Arhangay" data-id="MNG3316" data-name="Arhangay">
 </path>
 <path d="M420.7 255.1l1.1 2.4 0.4 0.6 3.5 3.4 2.9 3.7 0.3 3.6 0.1 0.8 0.3 0.8 0.4 0.6 0.2 0.7-0.2 0.8-2.7 3.5-0.5 1.2 0.3 0.8 0.5 0.5 0.4 0.8 0.3 1 0.2 2.3 0 1.8-0.2 0.8-0.2 0.6-0.6 0.8-0.8 0.6-0.9 0.5-1.7 0.7-0.6 0.5-0.6 0.8-0.4 0.9-0.4 1.1-0.3 1.1 0.1 3.8 0.4 2.3 0.2 1.5-0.1 1.7-1.3 4.8 0 2.3 0 1.1-1.2 2.8-1.4 2.1-1.8 1.6-0.3 0.6-0.2 0.7 0 0.9 0.4 2.3 0.1 0.9-0.1 1.4 0.2 1.4 0.4 4.6 0.2 1.7 0.5 2 0.3 1 0.4 0.8 0.6 0.7 0.8 0.5 3.8 1.3 2 1.2 1.2 1 2.8 1.8 0.6 1.2-0.7 2.5-1.2 3-0.2 1.1 0.1 0.8 0.4 1.1 1.4 3.1 1 2.6 5 20.4-15.4 9.5-1.5 0.5-0.7 0.2-23.9-0.4-2.8 0.6-2.1-0.8-4.6-4.6-3.4-4.7-5.3-4.9-0.4-0.3-0.9-0.1-9.3 2.5-0.3 0.3-0.1 0.6-0.1 2.7 1.4 35.6 3.3 25.6-4.6 1.4-25.2-3.4-25.2-3.3-1.6-22.3 0-1.3 0.2-1.2 1.6-3.3 2.3-7.9 0.3-1.4 0-1.3-0.3-3.9 1.5-11.8 0-1.3-1.1-11.1 0-3.9 0.2-0.9 0.4-0.6 4-2.1 1.5-1.2 1.2-1.2 0.7-1.2 0.5-1.3 0.5-2.1 0.2-1.2 0-4.6-0.6-5.7 0-1.4 0.1-1.6 0.3-1 0.5-0.8 0.4-0.5 1.2-1 0.4-0.5 1-2 3.6-12.3 0.4-2.3 0.1-1.8-1.7-12.5-0.6-2.7-0.9-1.9-5.9-8.4-1.1-1.3-1.4-0.5-0.9-0.2-1.6-0.5-0.7-0.4-0.6-0.5-1.2-1.7-0.9-0.9-2.7-2-0.6-0.8-0.6-2-0.5-0.9-0.7-0.5-1.3-0.8-0.5-0.5-0.3-0.6-0.7-2-0.3-1.1-0.2-1-0.1-1.1 0.3-3.7-0.4-3.1 0-2.6 0.1-0.9 1.4-3.3 4.7-15 0.3-1.4 0.2-1.4 0.2-1.3 0.5-0.9 0.9-0.5 1.1-0.2 2.9 0 1.9-0.5 1.8-0.8 2.6-3.8 0.9-1.8 0.4-1.4-0.2-0.9-0.3-0.9 0.1-1 0.4-0.8 1.4-1.5 0.9-1.5 0.5-1.1 0.4-0.9 0.2-0.8 0.2-1.3-0.1-1.2 2-1.9 1.2-0.8 3.1-0.8 2.5-0.4 1.1 0.3 0.9 0.6 0.5 0.5 0.7 2 0 3 0.4 0.8 0.6 0.7 5.4 3.6 0.8 0.3 1 0 3.8 0 2.5-0.5 1-0.3 1.1-0.8 1.6-2 0.6-0.5 0.8-0.3 2-0.3 0.6-0.4 0.6-0.5 0.6-0.7 0.8-0.8 2.2-1.3 0.7-0.1 0 3.6 0.2 1.4 0.4 1.2 0.5 0.7 1 0.9 2.3 1.9 0.8 1 0.4 1.2 0.1 1.2-0.1 1.1-0.2 2.3-0.1 1.2 0.2 1.2 0.6 1.7 0.2 1.3-0.1 1.8 0.2 1.1 0.4 0.8 0.6 0.4 0.6 0 2.8-0.7 10.8-3.3 1-0.1 0.6 0.1 0.4 0.4 0.3 2.8 0.5 1.1 0.7 1.3 0.4 1.1 0.5 1.6 0.3 0.5 0.3 0.1 1.6 0.5 1 0.4 1 0.8 0.5 0.9 0.7 2 0.4 1.1 0.4 0.6 0.7 0.4 2.4 0 2.2-0.8 1.1-0.1 3.5 0.6 1.4 0 3.9-0.9 0.7 0.3 1.9 1.9z" id="MNG3317" name="Bayanhongor" data-id="MNG3317" data-name="Bayanhongor">
 </path>
 <path d="M291.1 115.6l0.1 0.7 0.3 1 0.2 0.5 1.2 1.7 0.2 0.5-0.3 0.6-0.7 0.7-2.8 1.9-2.4 2.3-1.5 1.9-0.5 0.7-0.6 1.8-0.3 1.5 0 1.9 0.5 1.8 0.8 1.1 6.5 6.1 1.5 1 2.6 0.7 5.8 0.4 3.2 0.1 1.8 0.8 9.5 7 0.7 0.3 1.4 0.1 2-0.6 1-0.4 0.9-0.3 3-0.2 4.3 0.6 2.2 0.7 1.2 0.7 1.3 1.1 0.7 0.4 0.7 0.1 1.2-0.1 0.8-0.2 1.7-1.2 1.7-2.4 1.5-3.2 9.6-1 0.6 0.5 0.2 0.7 0.3 1.1 0.5 5.7 0.5 2.9 0.7 2.4 0.4 0.9-0.1 0.6-0.5 2.2-0.5 1.3-0.6 1.2-2.2 3.7-0.4 1.4 0 1 0.1 1.4 0.3 1.7 1.8 6.7 0.3 3.1-9.7 4.5-1.8 0.2-0.9 0.4-0.9 1-1.1 2.2-0.9 1.1-1.4 0.8-2.4 0.8-6.5 0.2-0.9 0.3-0.7 0.4-1.1 1.3-0.8 2.4 0.3 1.2 1.1 2.7 0.4 1.6 0.1 1.3-0.2 1-1.3 4.4-0.1 1.1 0.1 0.9 0.4 0.7 1 0.6 0.8 0.3 4.6 0.5 0.1 1.2-0.2 1.3-0.2 0.8-0.4 0.9-0.5 1.1-0.9 1.5-1.4 1.5-0.4 0.8-0.1 1 0.3 0.9 0.2 0.9-0.4 1.4-0.9 1.8-2.6 3.8-1.8 0.8-1.9 0.5-2.9 0-1.1 0.2-0.9 0.5-0.5 0.9-0.2 1.3-0.2 1.4-0.3 1.4-4.7 15-1.4 3.3-0.1 0.9 0 2.6-2.5-0.6-3.7-2.5-1.4 0-0.5 0.2-0.4 0.3-0.7 1.1-1.6 1.5-1.1 0.6-1.2 0.3-0.8-0.1-0.7-0.5-0.7-0.2-3.4-0.1-1.5-0.2-0.3-1.1 0.1-1.6-0.3-0.7-2.2-2.5-0.9-1.4-0.6-1.5-0.2-1.2-0.3-2.8-2.7-1.3-1-0.8-1.1-0.1-8.1 2.5-1.1-0.1-0.2-2.6-0.5-1.1-0.6-1.9-0.7-3.1-0.6-1.2-1.9-2.3-0.7-1.7-0.7-2.3-0.4-0.7-0.7-0.7-1-0.5-0.5-0.2-0.8-0.4-11.4-7.2-2-1.6-2-1.8-1.3-0.5-1.1-0.6-1.2-1-7.9-0.4-0.9 0.3-1.3 0.8-1.1-0.2-0.6-0.4-0.7-0.9-0.4-0.9-0.5-0.9-0.7-1-0.6-0.6-0.9-0.5-2.7-0.8-0.9 0-1.2 0-1.2 0.5-0.5 0.1-3.7 0.1-4-0.4-3.7-1.3-2.1-0.3-0.8-0.3-1-0.9-0.8-0.5-1.3-0.6-1.6-0.3-1.1 0-0.9 0.2-2.9 2-4.1 2.2-3.9 1.5-7.5 0.9-2.8-4.9-3.7-5.2-0.3-0.8 0-1.3-0.1-1.3-0.4-1.7-0.7-1.7-1.3-4.3 2.3-1.4 1.6-1.4 3.7-4 1-1.4 0.5-1.1 0.1-0.7 0.1-1.7 0.4-1.1-0.1-0.5-0.4-0.4-0.9-0.7 1.8-5 1.7-1.9 1.2-0.9 1.1-1 1.4-2.4 0.8-1 12.9-6.8 1.3 0 8.8 3.6 1.4 0.3 3.7-0.1 0.9 0.2 1.6 1.1 2.9 0.3 5.2-0.6 4.1-1.1 6-3.3 2.4-2.2 1.4-0.3 2.5-0.1 1-0.4 1.1-2.3 0.4-1.8 0-2 0.1-1 0.3-1 0.4-1.2 0.2-1.1-0.2-1.3-0.2-1.3-0.1-1.5 0.3-1.5 2.8-5.4 0.1-2.5-0.3-1.4-0.4-0.8-0.5-1-0.8-0.6-1.9-1.1-0.9-0.6-0.6-0.9-0.2-0.6-0.4-1.8-0.3-1.1-0.8-1.8-0.3-1.5-0.1-1.2 0.3-1.1 0.6-1.6 0.2-1.4-0.3-2.6-0.4-2.1-0.1-1.5 0.6-0.8 0.7 0.3 0.6-0.1 0.5-0.6 0.8-1.3 0.7-0.4 3-0.4 1.3-0.6 1.1-1.7 0.9-0.9 1.3-0.4 1.2 0.2 0.7 1.1 0.4 1.3 0.6 1 0.7 0.3 0.9-0.7 0.3-0.6 0.9-0.9 0.9-0.7 0.4 0 1 0.3 4.6 2.1 1.4 1.1 1.3 1.4 0.7 0.4 0.9 0.1 0.8-0.2 1.5-1.1 0.8-0.4 0.9 0 0.6 0.3 0.5 0.7 0.4 1 0.5 0.9 0.5 0.2 0.6-0.2 0.7-0.5 1.7-1.8 0.7-0.2 8.3 1.3 1.1 1 1.1 2.1 0.5 0.5 0.9 0.3z" id="MNG3318" name="Dzavhan" data-id="MNG3318" data-name="Dzavhan">
 </path>
 <path d="M308.2 264.8l0.4 3.1-0.3 3.7 0.1 1.1 0.2 1 0.3 1.1 0.7 2 0.3 0.6 0.5 0.5 1.3 0.8 0.7 0.5 0.5 0.9 0.6 2 0.6 0.8 2.7 2 0.9 0.9 1.2 1.7 0.6 0.5 0.7 0.4 1.6 0.5 0.9 0.2 1.4 0.5 1.1 1.3 5.9 8.4 0.9 1.9 0.6 2.7 1.7 12.5-0.1 1.8-0.4 2.3-3.6 12.3-1 2-0.4 0.5-1.2 1-0.4 0.5-0.5 0.8-0.3 1-0.1 1.6 0 1.4 0.6 5.7 0 4.6-0.2 1.2-0.5 2.1-0.5 1.3-0.7 1.2-1.2 1.2-1.5 1.2-4 2.1-0.4 0.6-0.2 0.9 0 3.9 1.1 11.1 0 1.3-1.5 11.8 0.3 3.9 0 1.3-0.3 1.4-2.3 7.9-1.6 3.3-0.2 1.2 0 1.3 1.6 22.3-20.4-2.7-22.3 2.3-2.9 0.5-0.7-0.2-0.2-0.7-0.4-5.3-0.2-1-0.4-0.8-0.8-1-11.9-12-1.1-1.4-0.6-1.6-0.3-1.8-0.1-1.9-0.3-1.6-4.3-9.5-3.3-10.2-1.6-3.8-0.8-1-1.1-0.3-1.6-0.1-3-0.8-0.2-0.4 0-1 0.3-2.5-0.3-2.2 0.2-0.8 0.4-0.9 0.2-1.2 0.4-0.7 0.9-1.2 0.3-0.9-0.6-0.3-10.6 1.4-1.3-0.2-2.8-1.5-5.7-1.8-0.7-0.3-0.4-0.6-0.4-0.7-0.5-0.7-2.1-2.1-4-2.4-0.9-0.5-2 0-0.9-0.4-0.5-0.7-0.8-1.8-0.5-0.8-2.6-2.9-0.9-0.5-0.5 0-1.4 0.7-1.4 0-2.6-0.4-1.5-0.6-1.6-1.8-5-7-0.8-0.7-5.1-2.7-3.2-0.1-0.7-0.3-1.2-0.8-0.6-0.2-0.7-0.1-1.5 0.3-0.8-0.1-2.4-1.1-0.9-0.1-1.9 0.2 0-0.2 1.6-14 0.2-5.3-0.8-9.8 0.3-1.5 0.6-1.1 0.8-0.8 3.5-2.1 0.7-0.7 0.7-0.8 1.1-2.5 0.4-0.7 0.8-0.4 0.4-0.8 0-0.8-0.3-2.3 0.2-0.8 2.9-7.5 3.6-6.4 0.5-1.3 0.1-1.4-0.2-1.5-0.5-1.4-2-3.9-0.3-0.8-0.1-1 0.4-0.4 0.7 0 0.7 0.2 3.3 0.3 0.9-0.1 1.7-0.6 3.4-3.3 2.8-1.7 6.3-2.9 1.3-1 0.9-1.3 0.2-0.8 0.1-1.7-1.1-2.2-2.8-4.2-1.8-3.3-0.6-1.7-0.3-1.6 0-1.3 0-1.2-0.2-0.9-0.4-0.8-2.1-1-4.4-2.8-6.5-6-2.3-2.2-1.3-1.7-0.3-1.6 0-2.5 7.5-0.9 3.9-1.5 4.1-2.2 2.9-2 0.9-0.2 1.1 0 1.6 0.3 1.3 0.6 0.8 0.5 1 0.9 0.8 0.3 2.1 0.3 3.7 1.3 4 0.4 3.7-0.1 0.5-0.1 1.2-0.5 1.2 0 0.9 0 2.7 0.8 0.9 0.5 0.6 0.6 0.7 1 0.5 0.9 0.4 0.9 0.7 0.9 0.6 0.4 1.1 0.2 1.3-0.8 0.9-0.3 7.9 0.4 1.2 1 1.1 0.6 1.3 0.5 2 1.8 2 1.6 11.4 7.2 0.8 0.4 0.5 0.2 1 0.5 0.7 0.7 0.4 0.7 0.7 2.3 0.7 1.7 1.9 2.3 0.6 1.2 0.7 3.1 0.6 1.9 0.5 1.1 0.2 2.6 1.1 0.1 8.1-2.5 1.1 0.1 1 0.8 2.7 1.3 0.3 2.8 0.2 1.2 0.6 1.5 0.9 1.4 2.2 2.5 0.3 0.7-0.1 1.6 0.3 1.1 1.5 0.2 3.4 0.1 0.7 0.2 0.7 0.5 0.8 0.1 1.2-0.3 1.1-0.6 1.6-1.5 0.7-1.1 0.4-0.3 0.5-0.2 1.4 0 3.7 2.5 2.5 0.6z" id="MNG3319" name="Govi-Altay" data-id="MNG3319" data-name="Govi-Altay">
 </path>
 <path d="M178.5 182.4l0.9 0.7 0.4 0.4 0.1 0.5-0.4 1.1-0.1 1.7-0.1 0.7-0.5 1.1-1 1.4-3.7 4-1.6 1.4-2.3 1.4 1.3 4.3 0.7 1.7 0.4 1.7 0.1 1.3 0 1.3 0.3 0.8 3.7 5.2 2.8 4.9 0 2.5 0.3 1.6 1.3 1.7 2.3 2.2 6.5 6 4.4 2.8 2.1 1 0.4 0.8 0.2 0.9 0 1.2 0 1.3 0.3 1.6 0.6 1.7 1.8 3.3 2.8 4.2 1.1 2.2-0.1 1.7-0.2 0.8-0.9 1.3-1.3 1-6.3 2.9-2.8 1.7-3.4 3.3-1.7 0.6-0.9 0.1-3.3-0.3-0.7-0.2-0.7 0-0.4 0.4 0.1 1 0.3 0.8 2 3.9 0.5 1.4 0.2 1.5-0.1 1.4-0.5 1.3-3.6 6.4-2.9 7.5-0.2 0.8 0.3 2.3 0 0.8-0.4 0.8-0.8 0.4-0.4 0.7-1.1 2.5-0.7 0.8-0.7 0.7-3.5 2.1-0.8 0.8-0.6 1.1-0.3 1.5 0.8 9.8-0.2 5.3-1.6 14 0 0.2-0.8 0-1.1-0.2-1.3 0.2-0.9-0.1-0.9-0.3-1.7-1.1-0.4 0-1.5 0.2-1.5-0.2-3.5 1-2.1 0.1-3 0.7-0.5 0-1.4-0.6-0.5-0.1-1.5 0.3-0.5 0-1.5-0.6-0.5 0-1.5 0.5-0.8-0.2-2.6-2-1.1-0.4-1-0.3-1 0-1.1 0.1-1.7 0.3-5.4-0.3-0.6 0.1-1.3 0.4-0.7 0.1-3-0.8-1 0.3-0.3-0.3-2.1-2.6-0.5-0.4-0.7 0-0.5 0.4-1.1 1-0.6 0-3-0.7-2-1.1-0.5-0.4-0.6-1-0.4-0.5-1.1-0.6-1.4-0.3-1.4 0-1.1 0.1-2.2 1.3-1 0-0.4-1.3 0.2-1.7-0.3-0.7-0.6-0.4-1.2-0.6-0.2-0.5 0-1.5-0.4-1.2-0.5-1.2-0.3-1.3-0.5-0.9-2-1.5-0.7-0.7 1.5-10.6 0.4-0.9 6.5-8.9 1.7-1.6 0.3-0.3 0.5-1.3 0.1-2-0.3-2.1-0.6-1.2-0.8-1.2-1.6-5.1 0-0.9 0.3-0.7 0.9-1.2 1.5-4.1 0.5-1.8 0.4-0.8 0.7-1.7 0.3-1 0-0.7-0.4-0.6-0.7-0.2-0.5-0.4 0.1-1.2 0.4-1.9 0.1-1.2 0.8 0 2.3 0.5 2 0.9 1 0 0.9-0.1 0.9 0 0.7 0.7 1.2 2 0.7 0.9 1 0.7 1 0.2 0.8-0.3 0.5-0.6 0.7-1.7 0.3-0.7 0.4-0.4 0.6-0.1 0.9 0.6 0.5 0.3 3.9-0.5 4.5 0.6 0.6-0.3 0.7-0.7 0.2-0.8 0.1-1.2-2.5-1.6-2.3-3.2-3.1-2.9-2.6-1.8-1.1-0.5-1-0.6-1.4-1.1-0.7-1.3-0.3-1 0-1 0.1-1 0.3-1 1.4-3.7 0.1-1.5-2-3.1-4.2-5.2-0.8-1.4-0.1-0.8 0.1-0.7 0.5-1.4 0.1-0.9-0.1-1.1-0.2-1-2.1-6.4-0.5-1.2-0.7-0.9-0.6-0.8-0.9-1.6-2.6-7.7-1.2-4.4-0.3-0.8-0.4-0.4-0.9-1.1-0.5-0.5-1.5-1.1-0.5-0.6-0.3-0.8-0.2-1.7-0.7-4.1-0.3-1.3-0.1-1.4 0.1-1.1 0.3-1.1 1.3-1.8 0.1-0.7-0.1-0.9-1.2-3.5-0.4-0.9-0.6-0.5-2.1-0.9-0.3-0.4-0.4-0.9 0.1-0.5 3.4-0.7 9.3-4.4 3.1-0.6 3.1 0.7 1.5 0 1.4-0.6 1.8-1.5 3.1-4.1 1.9-3.3 1-1 3-1.9 1.4-0.6 1.2-0.1 1.1 0.2 0.7 0.5 0.5 0.5 0.4 0.8 2.1 8.2 0.6 0.4 0.6 0 0.8-0.4 0.5 0 0.8 0.1 0.8 1 0.7 1.3 1.1 3.2 0.6 1.2 0.7 0.6 0.7-0.1 1.4-1.1 0.5-0.3 11.3 2.8 3.4 0.8 1.5-0.6 1.5-1.3 1.2-1.5 1.6-1.2 1.2-0.4 1-0.1 1.5 0.3 0.4 0.1 0.7 0.6 2.6 1.4 0.5 0.7 0.5 1.1 0.1 1.2 0.2 1.1 0.3 0.8 0.4 0.6 0.7 0.5 2 2.2 0.6 0.6 2.9 1.5z" id="MNG3320" name="Hovd" data-id="MNG3320" data-name="Hovd">
 </path>
 <path d="M462.8 86.9l-1.8 1.1-1.9 1.1-1.4 1.2-1.2 1.4-0.3 0.4-0.5 1.6-0.4 2.1-0.6 1.5-1.4 1.6-0.6 0.6-1.4 1.4-0.9 1.2-0.1 0.7-1.4 1.9-1.3 1.3-0.6 1.2-0.2 0.9-0.1 0.8 0.2 0.7 0.4 0.8 0.5 0.4 1.7 1.1 2.6 1.1 2.5 0.8 4 1.9 2.3 0.7 2.5 1.2 2.5 1.4 0.9 0.8 1.1 1.3-2.6 2-1 0.6-1.1 0.1-1.7-0.3-0.6-0.1-0.6 0.2-0.6 0.3-0.6 0.9-1 2.8-0.9 1.7-0.4 0.6-1.2 1.4-1.4 1.2-0.5 0.4-1.5 0.6-2.4 0.9-1.3 0.1-1.6 0.5-2.2 0.6-1.8 0.7-0.7 0.5-0.6 0.6-1.2 1.4-1.5 1.1-0.2 0.7-0.4 0.7-0.8 0.9-0.7 0.4-0.5 0.2-1.3 0.2-1 1.2-0.5 0.7-1.1 3-0.2 0.8-0.1 0.8 0.1 1.2 0.6 3.4-6.3 1.3-3.4-0.2-1.1-0.6-7.2-5.3-10.4-5.6-0.8 0.2-0.3 0.4-0.5 0.9-0.2 1.3-0.4 0.7-0.5 0.6-1.2 0.9-0.5 0.6 0 0.7-0.2 0.4-3.6 0.8-0.7 0-0.6-0.7-0.4 0.5-0.3 1.5 0.1 0.4 0.6 0.6 3.7 2.1 0.6 0.9 0 0.4-0.4 0.8-1 0.7-1.1 0.4-1.3 0.9-1.1 0.5 0 0.3 0.1 0.7-0.6 0.8-0.6 0.6-0.6 1.1 0.5 0.5 0.2 0.3-0.8 0.8-0.1 0.4 0.1 0.9-0.6 1.3-0.2 1.1 0.4 1.1 0.2 1.2 0.4 1.2 0.6 0.6 1 0.2 0.7 0.6 0.6 1-1.3 1-2.7 0.9-2.9 0.6-0.9 0.5-0.3 0.9 0.2 1 0.1 0.8-0.5 1.1-0.9 0.5-1.1 0.2-0.9-0.2-0.9-0.3-4.7-2.8-1.1-0.5-2.9-0.2-0.7 0.3-0.7 0.5-0.3 0.7-0.3 0.9-0.4 3.9-0.3 1-0.5 0.5-0.6 0.2-6.9 0.6-0.8-0.1-1.3-0.7-0.6-0.3-0.4 0.2-0.4 0.4-1 1.4-0.9 0.7-0.9 0.2-0.7-0.1-1-0.6-2.6-2.9-0.3-3.1-1.8-6.7-0.3-1.7-0.1-1.4 0-1 0.4-1.4 2.2-3.7 0.6-1.2 0.5-1.3 0.5-2.2 0.1-0.6-0.4-0.9-0.7-2.4-0.5-2.9-0.5-5.7-0.3-1.1-0.2-0.7-0.6-0.5-9.6 1-1.5 3.2-1.7 2.4-1.7 1.2-0.8 0.2-1.2 0.1-0.7-0.1-0.7-0.4-1.3-1.1-1.2-0.7-2.2-0.7-4.3-0.6-3 0.2-0.9 0.3-1 0.4-2 0.6-1.4-0.1-0.7-0.3-9.5-7-1.8-0.8-3.2-0.1-5.8-0.4-2.6-0.7-1.5-1-6.5-6.1-0.8-1.1-0.5-1.8 0-1.9 0.3-1.5 0.6-1.8 0.5-0.7 1.5-1.9 2.4-2.3 2.8-1.9 0.7-0.7 0.3-0.6-0.2-0.5-1.2-1.7-0.2-0.5-0.3-1-0.1-0.7 1 0.6 0.3 0.9 0.8 1.2 1.6 0.8 1.8 0.3 1.2 0.1 1.3-0.4 1.4-0.8 2.6-1.9 2.2-1.6 0.9-1.2 0.2-1.5-0.5-1.5 0.1-0.3 2.3-0.7 2.9-1.3 0.7-0.2 0.6 0.3 1.1 1.2 0.6 0.3 0.5-0.3 0.8-1.1 1-1 4.4-2.4 1.8-1.9 4.9-10.7 0.2-0.8 0.1-0.9-0.1-0.8-0.2-1.6 0.1-1.6 1-2.9 0.1-1.6-0.3-1.2-0.5-1-0.8-0.6-0.8-0.3-1.9-0.4-0.8-0.3-2.4-1.9-0.7-0.6-0.4-1-2.5-6.5 0.1-1 1.3-2-0.1-0.5-1-0.8-0.5-0.6-0.6-1.1-1.4-1-1.2-1.1-0.8-1.5-0.1-1.5 2-4.3 0.5-1.6 0.3-1.7 0.1-0.7 0.9-2.3 0.1-0.8-0.1-1-0.4-1.7 0-0.8 0.2-0.8 0.4-0.7 0.9-1.2 0.4-0.6 1.4-3.3 0.6-1.1 0.3-0.5 0.5-0.1 1.4-0.8 0.8-0.1 2.6 0.6 0.3-0.9 0.1-1.2-0.3-2.2 0.1-1.1 0.3-0.9 0.8-1.7 0.3-1 1.8-3.2 2.9-1.4 6-1.7 1-0.9 1-1.1 0.9-1.3 2-4.2 0.5-2.4 0.3-0.8 1.2-1.6 0.2-0.7 0.1-0.9 0-1.7 0.2-0.8 0.9-1.1 1.3-0.1 1.1 0.9 0.4 1.6 0.6 1.1 0.9 0.6 5.4 2 1.1 0.6 0.7 0.9 0.6 0.9 0.6 0.8 0.9 0.5 7.2 2.1 3.8 0.2 1 0.4 2.3 2.1 2 2.4 2.1 2 2.8 0.9 2.8-0.3 3.5 0.6 9.3 0 1.9 1.1 2.1 0.6 13.4 7 1.4 1.2 1.3 0.4 1.3 0 1.3 0.3 1.2 1.1 1.1 1.4 1.1 0.7 1.1 0 3-1.1 1.3-0.2 1.4 0.3 2.3 1 1.6-0.1 0.9 0.1 0.5 0.3 1.7 1.2 0.8 0.3 2.5-0.1 0.6 0.2 1.1 0.9 0.5 0.3 2.4 0.2 0.8 0.5 0.5 0.5 2.8 2 0.3 0.8-0.4 1.1-1.4 2.2 0 0.5 0.4 1.4 0.1 0.9 0 0.8-0.3 1.7 0.2 1.8 0.6 2 0.8 1.8 0.8 1.4 0.4 0.7 0 0.7-0.2 0.7-0.3 0.6 0.8 1.3-0.3 1.3-0.6 1.4-0.3 1.3 0.5 1.5 0.9 1 1.9 1.5 0.7 1.5-0.3 1.1-0.8 1-0.6 1.2-0.1 1.5 0.3 1.4 0.6 1.3 0.8 0.9 1.4 0.6 3.1 0.4 1.3 1.1 2.2 4.3 1.1 0.8z" id="MNG3321" name="Hövsgöl" data-id="MNG3321" data-name="Hövsgöl">
 </path>
 <path d="M241.2 111.4l-0.6 0.8 0.1 1.5 0.4 2.1 0.3 2.6-0.2 1.4-0.6 1.6-0.3 1.1 0.1 1.2 0.3 1.5 0.8 1.8 0.3 1.1 0.4 1.8 0.2 0.6 0.6 0.9 0.9 0.6 1.9 1.1 0.8 0.6 0.5 1 0.4 0.8 0.3 1.4-0.1 2.5-2.8 5.4-0.3 1.5 0.1 1.5 0.2 1.3 0.2 1.3-0.2 1.1-0.4 1.2-0.3 1-0.1 1 0 2-0.4 1.8-1.1 2.3-1 0.4-2.5 0.1-1.4 0.3-2.4 2.2-6 3.3-4.1 1.1-5.2 0.6-2.9-0.3-1.6-1.1-0.9-0.2-3.7 0.1-1.4-0.3-8.8-3.6-1.3 0-12.9 6.8-0.8 1-1.4 2.4-1.1 1-1.2 0.9-1.7 1.9-1.8 5-2.9-1.5-0.6-0.6-2-2.2-0.7-0.5-0.4-0.6-0.3-0.8-0.2-1.1-0.1-1.2-0.5-1.1-0.5-0.7-2.6-1.4-0.7-0.6-0.4-0.1-1.5-0.3-1 0.1-1.2 0.4-1.6 1.2-1.2 1.5-1.5 1.3-1.5 0.6-3.4-0.8-11.3-2.8-0.5 0.3-1.4 1.1-0.7 0.1-0.7-0.6-0.6-1.2-1.1-3.2-0.7-1.3-0.8-1-0.8-0.1-0.5 0-0.8 0.4-0.6 0-0.6-0.4-2.1-8.2-0.4-0.8-0.5-0.5-0.7-0.5-1.1-0.2-1.2 0.1-1.4 0.6-3 1.9-1 1-1.9 3.3-3.1 4.1-1.8 1.5-1.4 0.6 0-1 0.2-1.1-0.3-1.1-1-3.9-0.5-1.1-0.4-0.6-1-1-0.7-1.2-0.5-0.6-0.4-0.2-2.2-0.8-1.3-0.9-1.8-4.2-0.7-2.1-0.7-0.7-1.9-3.1-0.3-0.7-0.1-0.6 0.2-1.3-0.2-1.3-0.1-0.5-0.4-0.5-3.8-0.5-1.8-0.1-0.9-0.4-0.2-0.4-0.5-1.2-0.3-1 0.2-0.8-0.6-1.5-3.4-2.8-5.7-2.9-0.8-0.8-0.5-0.6-0.4-1.1-0.5-1.2-0.5-2.3-0.5-1.1-2-3.3-0.2-0.4-0.2-0.9 0-1.2-0.3-1.8-0.9-3-0.8-2.1-0.7-0.8-1.7-1.1-0.7-0.3 0-1 0.2-1.3 0.5-1 0.9-0.6 4.1-0.9 1.3-0.6 3.7-2.9 0.6-0.3 1.3-0.1 0.6-0.2 1.6-1.3 1.3-0.2 2.7 0.6 1.4-0.1 1.1-0.4 0.5-0.5 0.4-0.6 0.1-0.7 0-1.4 0.3-0.5 1.1-0.7 2.4-0.7 1.2-0.9 2.2-2.8 0.8-0.8 1.1-0.6 3.7 0 1-0.4 3-1.6 1.2 0 2.6 0.6 1.1-0.3 0.5-0.9 0.2-1 0.3-1 0.8-0.8 3.1-1.3 0.9-0.8 1.5-3 0.9-0.8 2.1-1.3 2.3-0.9 2.4-0.3 5 1.1 3-0.2 2.6-1.5 1.6-3.5 0.1-1.8 0.2-0.8 0.4-0.6 0.6-0.4 0.8-0.2 0.7 0.2 0.5 0.7 0.6 1.9 0.7 1.2 1 0.8 1.3 0.5 1.2 0.9 1.8 2.7 1.2 0.7 0.6-0.1 0.8-0.3 0.7-0.5 0.5-0.7 0.4-0.8 0.2-1.6 0.2-0.8 1.1-0.8 1.9-0.4 2 0.1 1.2 0.8 0.4 1.7 0 2.4 0.6 1.9 0.6 1.5 0.3 0.4 0.6 0.3 2 0.5 2.6 0 7.2-0.5 3.6 1.2 21.7 1 0.7 0.4 0.4 0.6 0.2 0.7 0 1.8 1.3 3.1 0.2 1.2 0.2 5.1 0.3 2.5 0.3 1.2 0.5 1 0.7 0.9 2.6 1.1 0.5 0.5 0.2 0.6 0.3 1.4 0.4 0.6 1.3 1.3 0.4 0.6 0.5 1.4 0.4 0.5 0.6 0.2 0.8-0.1 3-1.1 5.4-0.3 1 0.3 0.9 0.8 1.2 2.6 0.2 0.3 1.5 0.9 8.7-0.1 1.4 0.4 1.4 1.2 1 1z" id="MNG3322" name="Uvs" data-id="MNG3322" data-name="Uvs">
 </path>
 <path d="M516.4 93.1l3.1 2.7 2.3 3.2 0.4 0.8 0.4 1.5 0.2 0.9 0.1 1.6 1.8 2-0.5 0.8-0.5 0.3-0.7 0.1-1.4 0.1-0.1 2.6 0.1 1.6 0.2 1 0.4 0.9 1.2 1.7 3.5 3.8 0.7 1.1 0.7 1.6-1.8 1.9-0.1 5-0.1 1.6-0.1 1-0.7 2.6-0.8 1.5-0.7 1.8-0.5 3.1-0.8 3.2-0.4 3.6-0.6 2.4-1.5-0.8-0.8-0.3-1.3-0.2-0.8 0.1-1.1 0.5-1.8 1.8-4.5-1.4-1.1-0.5-1.3 1.2-1.9 2.6 0 2.6 5.7 1.6 1.8 0.3 1.8 0.8 1.1 0.8 1.3 0.6 1.4 1.4 1.5 1.3 1 1.3 1.2 1.2-0.4 0.9-0.4 0.5 0.3 0.3-0.5 0.8 0.3 3.3 0.3 1.9 0.3 4.1 0 3.6-0.1 2-0.6 2.1-0.6 1-1.7 1.2-1.3 1.3-1.1 2-0.7 2.2-0.4 0.9-1.3 2.1 1.4 1.5 1.4 2.3 0.3 1 0.2 2.5 1.3 0.8 1.8 0.7 1.8 0.3 3.3 0.1 0.6-0.3 0.4 0.1 0.4 0.3 0.2 0.5 0.1 1.1-0.7 0.7 0.1 2.3 0.2 1.3 1.2 5.1 0.7 2.1-3.2 0.3-4 0.1-0.5 1-0.8 1.4-2.5 0-1.6 0.1-0.8 0.2-1.4 0.5-4 2.7-1.2 1.3-1.5 1.3 0.6 1.7 0.3 0.6 0.4 0.6 0.7 0.6 0.9 1.1 0.3 0.5 0.1 0.6-0.1 0.6-0.7 1.5-2.3 0.7-3.8 0.8-2.7 0.3-0.7 0-1-0.2-0.8-0.1-1 0.2-2.3 0.5-0.2-1.9-0.3-2.2-2.1-2.1-1.4-1-1.9-1.8-1.4-1-1.3-1.2-1-1.5-0.8-0.9-1-1.7-0.7-1.6-0.9-1.7-1.6-2-0.7-0.6-0.7-0.3-0.7-0.2-1.5 0-0.7-1.3-1.1-2.3-0.2-0.7-0.4-1.3-3.9-1.8-0.6-0.4-0.5-0.6-0.3-1.2-0.3-3.4-0.4-2.4-0.4-1.1-0.9-1.6-0.8-1.3-0.7-1.5-1.6-2.2-1.4-1.5-1.9-0.2-1.5 0-1.4-0.5-2-1.5-1.4-1.5-0.4-2.7-0.4-1.1-0.8-1-1.5-1.1-0.5-0.5-0.5-0.6-0.2-0.7-0.3-1 0.1-1.3 0-0.8-0.8-5.4-1.2-4.2-0.9-2.1-1.3 0.7-1.2 0.9-1 0.3-0.7-0.1-0.6-0.2-0.5-0.4-0.3-0.5-0.3-1-0.4-0.6-0.8-0.9-0.7-0.5-1.1-0.3-1.2-0.1-1.5-1-1.3-1.2-1.1-1.4-0.4-0.9-0.4-1.7-0.6-3.4-0.1-1.2 0.1-0.8 0.2-0.8 1.1-3 0.5-0.7 1-1.2 1.3-0.2 0.5-0.2 0.7-0.4 0.8-0.9 0.4-0.7 0.2-0.7 1.5-1.1 1.2-1.4 0.6-0.6 0.7-0.5 1.8-0.7 2.2-0.6 1.6-0.5 1.3-0.1 2.4-0.9 1.5-0.6 0.5-0.4 1.4-1.2 1.2-1.4 0.4-0.6 0.9-1.7 1-2.8 0.6-0.9 0.6-0.3 0.6-0.2 0.6 0.1 1.7 0.3 1.1-0.1 1-0.6 2.6-2-1.1-1.3-0.9-0.8-2.5-1.4-2.5-1.2-2.3-0.7-4-1.9-2.5-0.8-2.6-1.1-1.7-1.1-0.5-0.4-0.4-0.8-0.2-0.7 0.1-0.8 0.2-0.9 0.6-1.2 1.3-1.3 1.4-1.9 0.1-0.7 0.9-1.2 1.4-1.4 0.6-0.6 1.4-1.6 0.6-1.5 0.4-2.1 0.5-1.6 0.3-0.4 1.2-1.4 1.4-1.2 1.9-1.1 1.8-1.1 4.4 1.2 3.9 2.9 1.2 0.6 1.5 0.3 4.8-0.6 2.2 0.6 1.2 2.5 0.4 1.4 0.7 0.9 1 0.3 3.1-0.3 1 0.2 1.1 0.5 1.8 1.4 2.1 1 2.1 0.1 3.6-2.7 1.9 0.1 4 1.8 2 0.3 2.6-0.3 2.3-1.1 1.6-1.8 0.6-1 1.7-1.3 0.8-0.8z" id="MNG3323" name="Bulgan" data-id="MNG3323" data-name="Bulgan">
 </path>
 <path d="M521.7 149.1l0.3 1.2 1 1.8 0.3 0.7 0 0.7-0.2 0.7-0.5 0.5-1 1.1-1.4 1.2-2.9 1.8-1.3-0.6-1.1-0.8-1.8-0.8-1.8-0.3-5.7-1.6 0-2.6 1.9-2.6 1.3-1.2 1.1 0.5 4.5 1.4 1.8-1.8 1.1-0.5 0.8-0.1 1.3 0.2 0.8 0.3 1.5 0.8z" id="MNG3324" name="Orhon" data-id="MNG3324" data-name="Orhon">
 </path>
 <path d="M620.6 357.7l-5 1.6-3.1 0.4-0.6 0-2.2-1.2-1.5-0.2-0.9 0.1-17.7 6.1-2.2 1.2-2.8 2.2-2.2 1-1.5 0.4-2.7 0.5-9.7 1.5-1-0.2-2.3-1.1-2.4-1.4-2.5-2-0.6-0.9-0.4-1.1 0-1.8-0.4-1.1-0.9-1.7-2-2.9-4-7.3-0.6-0.4-1.8-0.5-8.9-0.8-12.8-1.4-13.7-2.2-2.3-0.8-0.8-0.6-0.8-1-1.2-2.6 0-0.8 0.3-1.5 0-0.5-0.3-1.2 0.1-1.1 0.4-1.1-0.2-2 0.1-1.8-0.8-1.3-10.2-0.2-0.1-2.9 0.6-1.8 0.8-1.6-0.4-1.3-3.4-3.2-1.2-1.7-0.7-1.1-0.3-1-0.2-1-0.1-1.1 0-0.8 0.1-0.9 0.4-0.8 1.1-1.6 1.8-1.8 0.7-0.5 0.8-0.3 2.1-0.4 6.9-0.8 1.5-2.5 0.2-3.1 1.4-6.6 0.2-3.7 0.5-1 0.5-0.3 0.9-0.3 4-0.3 2-0.8 0.7-0.8 0.4-0.8 0.4-1 1.9-2.4 0.2-1 0.1-2.2 0.2-1 0.2-0.7 1.6-1.8 0.9 1.1 0.7 0.7 4.1-3.6 1.7-1.2 1.1-1.1 2.8-3.5 2.9 1 2.9 1 2.2 0.9 1.9 1.1 0.7 0.6 1.2 0.8 1.5 1.4 2.5-4.6 2.3-3 0.6-0.7 2.8-3.9 1.2-0.5 2.1-0.6 1.1 0 1.1 0.3 0.5 0.4 1.9 1.9 1.5 0.9 1.1 0.5 3.3 1 0.7 0.4 0.7 0.8 0.4 1 5.9 0 6 0.1 2.7-0.1 2 0.1 3.2 0.6 1 0.3 2 1.1 1.3 1.2 1.7 1.9 1.4 1.2 1.9 1.3 2.5-0.3 4.9-0.2 0.8-0.1 1.6-0.4 3.1-1.3 0.6-0.4 0.4-0.5 1.6-2.3 0.9-0.7 1.5-0.6 2.6-0.3 1.1-0.5 0.6-0.5 0.5-1 0.1-0.8 0.2-2.8 0.3-1.7 0.1-1.8 3.1-0.6 0.5 2 0.7 0.9 0.8 0.8 1 0.4 1.3 0.3 2.1 0 1.5 0.3-0.2 0.4-3.1 2.5-0.7 0.9-0.2 0.7 0 0.6 0.6 0.8 4.9 5.3 1.2 1.9 0.8 2.1 0.3 1.4 0 0.9-0.1 3-0.8 6.7-0.1 1.3 0.3 1.6 0.7 1.2 1.1 2 0.9 0.9 0.9 0.4 4.2-1.5 1.2 0.1-1.8 5.3-0.8 4.6-0.1 3.3 0.6 9 2.3 14.3 0.7 2.4 0 0.9-0.3 0.5-0.6 0.2-1.2 0-1.1 0.2-1.1 0.9-1 1.6-1.4 2.8-3.1 1.8-11 1.4-2.3 0.3-0.8 0.3-0.6 0.8-0.4 1.7-0.9 7.1-0.5 1.3-0.4 0.8-1.7 1.2z" id="MNG3325" name="Dundgovi" data-id="MNG3325" data-name="Dundgovi">
 </path>
 <path d="M647.4 138.6l-1.1 4.7-0.4 4.9-1.2-0.1-1 0.1-3.6 0.4-1.1 0.4-2.2 1-2 1.2-1.2 1.4-1.2 1-2.9-2.1-0.7-0.3-1.2-0.4-0.8-0.3-1.2-0.1-2.3 0.1-0.9 0.1-1.8 0.5-1 0.3-2.2 1.7-2.2 2.1 1.6 3 0.4 0.6 0.9 0.8 2 0.9 0.9 0.7 0.4 0.7 0.1 0.7-0.1 1.1-0.7 1.9-0.6 1.9-0.6 1.5-0.5 1.4-0.6 0.9-0.6 0.3-0.7 0.1-1.6-0.2-0.6 0-0.6 0.2-0.9 0.7-1.3 0.6-1.9 0.7-3.7 1.2-1.3-1.6-0.5-0.5-1.4-0.6-1.1-0.1-1.2 0.1-2.4 0.6-0.6 0.1-2.2-0.1-1 0.1-0.6 0.3-0.9 0.8-0.8 0.8-1.3 1.3-0.9 0.4-1.1 0.3-1 0-2.8-0.6-1.2-0.5-1.7-1-0.3-0.7-0.6-0.6-4.8-2.4-3.8-2.2-1 0.8-0.8 0.5-1.4 0.6-1.6-1-0.9-0.9 0.6-1.7 0.6-1.9 0-1.2-0.2-0.8-0.7-1-1-0.8-1.1-0.3-3-0.7-5.7 1.5-2.1 0.7-0.7 0.3-1.5 1-2.1 1.7 0.4 1.3 0.6 2.4 0.6 1.5-2.1 1.2-2.2 1-1.7 0.9-1 0.7-0.6 0.3-1.9 0.3-0.7 0.2-2 1.1-0.8 0.5-0.5 0.3-0.7 0.1-0.8 0-1.6-0.5-2-0.9-2.3-0.6-1.5-0.5-2.1-1-5.5-2.2-0.3-1.9-0.3-3.3 0.5-0.8-0.3-0.3 0.4-0.5 0.4-0.9-1.2-1.2-1-1.3-1.5-1.3-1.4-1.4 2.9-1.8 1.4-1.2 1-1.1 0.5-0.5 0.2-0.7 0-0.7-0.3-0.7-1-1.8-0.3-1.2 0.6-2.4 0.4-3.6 0.8-3.2 0.5-3.1 0.7-1.8 0.8-1.5 0.7-2.6 0.1-1 0.1-1.6 0.1-5 1.8-1.9-0.7-1.6-0.7-1.1-3.5-3.8-1.2-1.7-0.4-0.9-0.2-1-0.1-1.6 0.1-2.6 1.4-0.1 0.7-0.1 0.5-0.3 0.5-0.8-1.8-2-0.1-1.6-0.2-0.9-0.4-1.5-0.4-0.8-2.3-3.2-3.1-2.7 0.9-0.9 0.9-0.5 2.1-0.6 3.2 0.1 1-0.2 0.7-0.4 1.2-1.2 0.8-0.3 2.9 0 0.9-0.2 1.9-1.3 0.7-0.3 1-0.1 3.6 0.4 0.8 0 0.9-0.3 0.8-0.4 3.4-2.9 1.1-0.7 1.6-0.2 9.6 2.7 4.4-0.4 0.8 0.3 1.5 0.6 1.6 0.4 1.6 0 0.9 0.2 1.6 1.3 0.2 0.4 0 0.9 0.4 0.6 2.4 0.3 0.8 0.4 1.3 0.9 0.6 0.4 0.7 0.1 6.1-1.8 3.3-0.4 3.4 0.4 2.8 0.9 1.3 0.8 4.6 4 1.1 0.6 0.3 0.5 0.5 1.8 0.2 0.5 0.9 1 0.5 1.7 0.2 0.5 0.4 0.3 1 0.5 0.4 0.3 1.6 1.5 0.8 0.7 1 0.4 1-0.1 0.8-0.4 0.7-0.1 1.9 1.6 11.3 0.2 0.6 0.3 1.2 0.8 0.6 0.3 1.4-0.1 1.4 0.5 1.5 0.1 0.3 0.4-0.1 1.3-0.5 1.5-0.2 0.7 0.1 1 0.5 2.3 0.2 1.8 0 0.6-0.2 0.6-0.7 1.8 0 0.6 0.4 0.4 0.7 0.1 1.3-0.1 0.4 0.3-0.3 1.1-0.1 0.7 0.4 0.8 0.5 0.6 2.3 1.7 0.6 0.3 2.6 0.4 0.8 0.3 0.5 0.5 0.8 1.9 1.8 2.2 4.3 3.8 2 1.4 1 0.1z m-69.4-9.6l-1.6-0.6-1.3-0.6-1.3-0.9-1.4-0.7-1-0.7-1.4-0.6-1.1-0.2 0.2-1.2 0.7-1.4 1.7-2.1 0.3-0.5 0.2-1 0-1.1-0.2-2.6-2.5 0.8-0.5 0.4-0.8 1.8-0.7 1-0.5 0.4-0.4 0.2-1.8 1.4-0.3 0.3-0.7 1.5-0.3 0.5-0.8 0.7 0.1 1.5 0.7 1.3 0 1 0.2 0.9 0.6 1 0.3 1.2 0 1.1-0.1 2-0.9 5.7-0.5 3.7-0.7 3.4-0.5 1.2 1.9 0.8 1.2 0.4 3.3 0.5 0.8 0.1 0.7-0.1 0.8-0.2 0.9-0.7 1.2-1.2 1.9-1.2 1.9-0.7 0.8-0.1 1.6-0.2 1 1.5 1.5 1.1 1 0.6 4.1 1.5 3.5-1 2.6-1.1-0.1-3.6-0.4-2.7 0.2-2.5 0.3-2.5 0.2-3-0.2-1.8-0.2-1-0.4-0.9-0.4-0.5-0.8-0.8-0.5-0.4-1.2-0.5-1-0.6-0.9-0.5-3.6-1.3-1.2 1.8-0.7 0.8-1.1 1-0.7 0.3-0.7 0-1-0.1z" id="MNG3326" name="Selenge" data-id="MNG3326" data-name="Selenge">
 </path>
 <path d="M495.6 235.5l2.3-0.5 1-0.2 0.8 0.1 1 0.2 0.7 0 2.7-0.3 3.8-0.8 2.3-0.7-0.1 1.5 0.1 1.2 0.4 2.7 0.5 1.4 0.4 0.6 1.2 1.3 1.9 1.7 1.2 1.3 0.3 0.6 0.5 1.4 0.1 1-0.1 1.2-0.3 2-0.8 0.1-0.6 0.3-0.7 0.6-1.3 1.4 1.2 1.5 1 1.5 0.5 0.7 0.7 1.5 0.8 1.2 0.3 0.8 0.3 0.9 0.1 0.8 0 4.3 0.1 0.8 0.3 0.7 0.8 0.8 4 2.8 1.3 1.2-1.6 1.8-0.2 0.7-0.2 1-0.1 2.2-0.2 1-1.9 2.4-0.4 1-0.4 0.8-0.7 0.8-2 0.8-4 0.3-0.9 0.3-0.5 0.3-0.5 1-0.2 3.7-1.4 6.6-0.2 3.1-1.5 2.5-6.9 0.8-2.1 0.4-0.8 0.3-0.7 0.5-1.8 1.8-1.1 1.6-0.4 0.8-0.1 0.9 0 0.8 0.1 1.1 0.2 1 0.3 1 0.7 1.1 1.2 1.7 3.4 3.2 0.4 1.3-0.8 1.6-0.6 1.8 0.1 2.9-0.5 1.5-2.1 4.2-0.7 1-0.9 1-5.3 4.1-6.4 3.4-0.9 1.7-5.4 11.7-0.4 1.4-0.5 2.1-0.6 1.2-0.5 0.7-1.5 1.4-0.4 1.2 0 1.4 2 5.3 0.2 1.1 0 0.8-11.6-1-15.6 1.2-9.1 2.9-2.4 1.1-5-20.4-1-2.6-1.4-3.1-0.4-1.1-0.1-0.8 0.2-1.1 1.2-3 0.7-2.5-0.6-1.2-2.8-1.8-1.2-1-2-1.2-3.8-1.3-0.8-0.5-0.6-0.7-0.4-0.8-0.3-1-0.5-2-0.2-1.7-0.4-4.6-0.2-1.4 0.1-1.4-0.1-0.9-0.4-2.3 0-0.9 0.2-0.7 0.3-0.6 1.8-1.6 1.4-2.1 1.2-2.8 0-1.1 0-2.3 1.3-4.8 0.1-1.7-0.2-1.5-0.4-2.3-0.1-3.8 0.3-1.1 0.4-1.1 0.4-0.9 0.6-0.8 0.6-0.5 1.7-0.7 0.9-0.5 0.8-0.6 0.6-0.8 0.2-0.6 0.2-0.8 0-1.8-0.2-2.3-0.3-1-0.4-0.8-0.5-0.5-0.3-0.8 0.5-1.2 2.7-3.5 0.2-0.8-0.2-0.7-0.4-0.6-0.3-0.8-0.1-0.8-0.3-3.6-2.9-3.7-3.5-3.4-0.4-0.6-1.1-2.4 16.7-3.7 1.4-1 0.8-1 2.2-1.6 6.5-1.8 3.6-1.6 0.9-0.1 0.7 0.3 0.8 0.8 1.3 1.9 0.6 0.7 0.7 0.6 0.9 0.2 1.6-0.7 0.5-2.6 0.1-2.2 0.4-0.9 0.3-0.7 2.4-1.6 1.3-2.1 1.8-4.2 0.1-1.3-0.5-0.5-1.3-0.6-0.5-0.6-0.4-0.7-0.3-0.9-0.2-1 0.3-0.7 0.5-0.4 1.2 0.2 2.6 1.5 1.7 0 0.8 0.1 5.3 2 0.9 0.9 0.6 1 1.7 3.7 0.7 0.5 1.1 0.5 5.5 0.6 4.9-0.2 1.4-0.4 3.3-2z" id="MNG3327" name="Övörhangay" data-id="MNG3327" data-name="Övörhangay">
 </path>
 <path d="M578 129l1 0.1 0.7 0 0.7-0.3 1.1-1 0.7-0.8 1.2-1.8 3.6 1.3 0.9 0.5 1 0.6 1.2 0.5 0.5 0.4 0.8 0.8 0.4 0.5 0.4 0.9 0.2 1 0.2 1.8-0.2 3-0.3 2.5-0.2 2.5 0.4 2.7 0.1 3.6-2.6 1.1-3.5 1-4.1-1.5-1-0.6-1.5-1.1-1-1.5-1.6 0.2-0.8 0.1-1.9 0.7-1.9 1.2-1.2 1.2-0.9 0.7-0.8 0.2-0.7 0.1-0.8-0.1-3.3-0.5-1.2-0.4-1.9-0.8 0.5-1.2 0.7-3.4 0.5-3.7 0.9-5.7 0.1-2 0-1.1-0.3-1.2-0.6-1-0.2-0.9 0-1-0.7-1.3-0.1-1.5 0.8-0.7 0.3-0.5 0.7-1.5 0.3-0.3 1.8-1.4 0.4-0.2 0.5-0.4 0.7-1 0.8-1.8 0.5-0.4 2.5-0.8 0.2 2.6 0 1.1-0.2 1-0.3 0.5-1.7 2.1-0.7 1.4-0.2 1.2 1.1 0.2 1.4 0.6 1 0.7 1.4 0.7 1.3 0.9 1.3 0.6 1.6 0.6z" id="MNG3328" name="Darhan-Uul" data-id="MNG3328" data-name="Darhan-Uul">
 </path>
 <path d="M645.9 148.2l0.9 1.2 0.8 0.7 0.6 0.7 0.7 0.6 0.6 0.7 1.9 1.8 1.2 1.4 1.1 2 1.3 3.2 1.2 2.2 0.2 0.8 0.4 2.4 0.2 0.7 0.7 1.5 0.5 1.6 1 5.4 0.8 2.8 0.4 1.9 0.8 2.3 0.6 2.7 0.1 1.2-0.1 1.1-0.5 1.5-0.6 1.1-0.9 0.9-0.7 1.2-0.7 1.8-0.5 2.3-0.4 1-0.7 0.7-1.1 0.6-1.6 1.2-1.8 1.9-1.4 1.3-1.9 1.1-0.7 0.3-1.5 0.5-2.1 0.4-4.1-0.2-2.2 2.2-0.9 1.3-0.5 0.8-0.7 2-0.4 1.5-0.1 1.2 0.1 0.9 0.6 1.9 0.3 1.9 1 1.5 0.6 0.5 0.7 0.3 3.9 0.7-0.4 0.8-0.4 0.6-0.2 0.8 0.1 0.5 1 0.7 0.2 0.4 0.6 2 0.4 1 0.2 0.3 2 2 0.9 3.4 0.3 0.6 1 1 0.3 0.7 1.3 3.6 0.5 1.8 0.4 0.8 1 1.3 1.1 1.1 2.1 1.6-2.2 5.3-0.4 0.5-1.1 1-2.2 1.3-4.9 2.4-3.8-0.5-4.8-0.9-2.7 0-2.1 0.4-1.4 0.4-1.5 0.8-3.1 0.6-0.1 1.8-0.3 1.7-0.2 2.8-0.1 0.8-0.5 1-0.6 0.5-1.1 0.5-2.6 0.3-1.5 0.6-0.9 0.7-1.6 2.3-0.4 0.5-0.6 0.4-3.1 1.3-1.6 0.4-0.8 0.1-4.9 0.2-2.5 0.3-1.9-1.3-1.4-1.2-1.7-1.9-1.3-1.2-2-1.1-1-0.3-3.2-0.6-2-0.1-2.7 0.1-6-0.1-5.9 0-0.4-1-0.7-0.8-0.7-0.4-3.3-1-1.1-0.5-1.5-0.9-1.9-1.9-0.5-0.4-1.1-0.3-1.1 0-2.1 0.6-1.2 0.5-2.8 3.9-0.6 0.7-2.3 3-2.5 4.6-1.5-1.4-1.2-0.8-0.7-0.6-1.9-1.1-2.2-0.9-2.9-1-2.9-1-2.8 3.5-1.1 1.1-1.7 1.2-4.1 3.6-0.7-0.7-0.9-1.1-1.3-1.2-4-2.8-0.8-0.8-0.3-0.7-0.1-0.8 0-4.3-0.1-0.8-0.3-0.9-0.3-0.8-0.8-1.2-0.7-1.5-0.5-0.7-1-1.5-1.2-1.5 1.3-1.4 0.7-0.6 0.6-0.3 0.8-0.1 0.3-2 0.1-1.2-0.1-1-0.5-1.4-0.3-0.6-1.2-1.3-1.9-1.7-1.2-1.3-0.4-0.6-0.5-1.4-0.4-2.7-0.1-1.2 0.1-1.5 0.7-1.5 0.1-0.6-0.1-0.6-0.3-0.5-0.9-1.1-0.7-0.6-0.4-0.6-0.3-0.6-0.6-1.7 1.5-1.3 1.2-1.3 4-2.7 1.4-0.5 0.8-0.2 1.6-0.1 2.5 0 0.8-1.4 0.5-1 4-0.1 3.2-0.3-0.7-2.1-1.2-5.1-0.2-1.3-0.1-2.3 0.7-0.7-0.1-1.1-0.2-0.5-0.4-0.3-0.4-0.1-0.6 0.3-3.3-0.1-1.8-0.3-1.8-0.7-1.3-0.8-0.2-2.5-0.3-1-1.4-2.3-1.4-1.5 1.3-2.1 0.4-0.9 0.7-2.2 1.1-2 1.3-1.3 1.7-1.2 0.6-1 0.6-2.1 0.1-2 0-3.6-0.3-4.1 5.5 2.2 2.1 1 1.5 0.5 2.3 0.6 2 0.9 1.6 0.5 0.8 0 0.7-0.1 0.5-0.3 0.8-0.5 2-1.1 0.7-0.2 1.9-0.3 0.6-0.3 1-0.7 1.7-0.9 2.2-1 2.1-1.2-0.6-1.5-0.6-2.4-0.4-1.3 2.1-1.7 1.5-1 0.7-0.3 2.1-0.7 5.7-1.5 3 0.7 1.1 0.3 1 0.8 0.7 1 0.2 0.8 0 1.2-0.6 1.9-0.6 1.7 0.9 0.9 1.6 1 1.4-0.6 0.8-0.5 1-0.8 3.8 2.2 4.8 2.4 0.6 0.6 0.3 0.7 1.7 1 1.2 0.5 2.8 0.6 1 0 1.1-0.3 0.9-0.4 1.3-1.3 0.8-0.8 0.9-0.8 0.6-0.3 1-0.1 2.2 0.1 0.6-0.1 2.4-0.6 1.2-0.1 1.1 0.1 1.4 0.6 0.5 0.5 1.3 1.6 3.7-1.2 1.9-0.7 1.3-0.6 0.9-0.7 0.6-0.2 0.6 0 1.6 0.2 0.7-0.1 0.6-0.3 0.6-0.9 0.5-1.4 0.6-1.5 0.6-1.9 0.7-1.9 0.1-1.1-0.1-0.7-0.4-0.7-0.9-0.7-2-0.9-0.9-0.8-0.4-0.6-1.6-3 2.2-2.1 2.2-1.7 1-0.3 1.8-0.5 0.9-0.1 2.3-0.1 1.2 0.1 0.8 0.3 1.2 0.4 0.7 0.3 2.9 2.1 1.2-1 1.2-1.4 2-1.2 2.2-1 1.1-0.4 3.6-0.4 1-0.1 1.2 0.1z m-51.6 44.6l-1.8-0.8-0.8-0.3-2.6-0.5-3.1-0.8-7.3-1.4 0.6 2.1 0.5 2.2 0.9 3.1 0.3 6.1 0.8 1 0.4 0.7 0.5 1.4 0.4 1.6 0 3.6 0.2 0.8 0.3 0.8 0.2 0.3 0.8 0.5 2.6 0.6 1 0.5 4.7-0.5 3.6-0.6 0.8 0 2.4 0.1 1.2 0.2 1.2 0.5 1.1 0.8 2.4 2.1 0.8 0.4 0.8 0.3 1.9 0.2 2.4-0.1 1.4-0.2 1.6-0.5 0.1-1.1 0.9-4.3 0.3-2.2 0.8-3 0-0.8-0.2-0.7-0.5-0.6-0.8-0.5-2-0.8-2-0.4-0.8-0.2-0.7-0.4-0.6-0.6-0.6-0.6-0.8-1.1-0.9-1-1.9-3.2-1.6-1.9-0.6-1.2-0.9-1.7-3 1.3-2.6 0.8-1.1 0.1-0.7-0.1z" id="MNG3329" name="Töv" data-id="MNG3329" data-name="Töv">
 </path>
 <path d="M644.7 204.9l-0.1 0.7-0.5 0.9-0.2 0.5 0.4 1.9 0 0.6 0 1.4 0.2 0.5 0.5 0.7-0.2 0.7-0.1 1.5-0.2 0.8-1.1 2.2-0.9 0.8-0.1 0.4 0.1 0.6 0.4 0.7 0.1 0.5 0 1.1-3.9-0.7-0.7-0.3-0.6-0.5-1-1.5-0.3-1.9-0.6-1.9-0.1-0.9 0.1-1.2 0.4-1.5 0.7-2 0.5-0.8 0.9-1.3 2.2-2.2 4.1 0.2z" id="MNG3330" name="Govĭ-Sümber" data-id="MNG3330" data-name="Govĭ-Sümber">
 </path>
 <path d="M594.3 192.8l0.7 0.1 1.1-0.1 2.6-0.8 3-1.3 0.9 1.7 0.6 1.2 1.6 1.9 1.9 3.2 0.9 1 0.8 1.1 0.6 0.6 0.6 0.6 0.7 0.4 0.8 0.2 2 0.4 2 0.8 0.8 0.5 0.5 0.6 0.2 0.7 0 0.8-0.8 3-0.3 2.2-0.9 4.3-0.1 1.1-1.6 0.5-1.4 0.2-2.4 0.1-1.9-0.2-0.8-0.3-0.8-0.4-2.4-2.1-1.1-0.8-1.2-0.5-1.2-0.2-2.4-0.1-0.8 0-3.6 0.6-4.7 0.5-1-0.5-2.6-0.6-0.8-0.5-0.2-0.3-0.3-0.8-0.2-0.8 0-3.6-0.4-1.6-0.5-1.4-0.4-0.7-0.8-1-0.3-6.1-0.9-3.1-0.5-2.2-0.6-2.1 7.3 1.4 3.1 0.8 2.6 0.5 0.8 0.3 1.8 0.8z" id="MNG3331" name="Ulaanbaatar" data-id="MNG3331" data-name="Ulaanbaatar">
 </path>
 <path d="M895.9 278.6l-2.6-3-6.3-10.4-0.5-0.5-0.5-0.4-0.5-0.2-13.2 0.6-5.9 1.2-14.3 0.5-2.7 0.8-5.3 2.7-3.7-6.9-1.8-2.8-0.9-1-1-0.9-0.9-0.6-0.9-0.6-3.5-1.4-0.6-0.3-0.4-0.5-0.4-0.7-0.3-0.9-0.2-1.1 0.1-3.7 1.1-8.3-0.3-1.2-0.4-0.5-0.7-0.6-5.4-3-14.2-11.4-18.8-4.2-6-2.8-1.7-0.4-0.9 0-0.9 0.1-1 0.3-5.3 3 0.3-5.6-0.3-4.2-1.3-5.8-1.3-2.7-0.4-0.7-1.6-3.1-0.8-8 0.5-3.1 0.7-2 0.1-2.8-0.4-2.6-0.6-1.9-1.9-4.7-6-11.3-1.2-2.9-0.5-1.6 1.1-3.4 0-1-0.2-1.2-1.1-3.5-1-6.4-0.1-2.2 0.7-0.9 0.4-0.7-0.2-0.6-2.3-3.5 9.5-4.2 1.3-0.3 3.4 0.4 2.7 1.5 0.9 0.2 1-0.1 1.4-0.4 2.8-1.4 1.8-1.7 0.7-0.5 0.7-0.3 0.7-0.2 1.6-0.1 0.5-0.3 0.3-1.1 0.1-1.7 0.1-0.7 0.3-0.9 2.2-4.3 0.8-1.2 0.9-1 6.3-4.8 0.8-1.1 0.5-0.6 1.6-1.1 0.6-0.6 1.6-1.3 5.3-2.9 0.7-0.1 1.3 0.2 0.7 0 0.4-0.2 3.8-3.8 0.6-0.4 1.3-0.4 0.6-0.3 2-2 2.5-1.6 2.7-1 1.5 0.3 2.8 1.4 1.5 0.4 5.8-0.8 2.9 0.7 7.6 4.5 0.5 0.5 0.4 0.6 0.7 1.5 0.4 0.6 4.6 5.1 4.9 3.7 0.6 0.2 1.9 0 0.7 0.2 1.1 0 2.2-0.3 3.3 0.7 1 0 1-0.3 9.4-5.5 2.6-0.7 2.5 0 2.6 1 8.5 3.4 1.3 1.2 1.1 1.6 1 2-6.6 14.7-0.4 1.1-6.5 14.9-6.6 14.7-0.1 0.8 0.5 1.7 0 0.8-0.6 1.5-7.1 11.2-0.3 0.8-0.1 0.9 0 1 0.7 9.3-0.3 1.5-0.9 0.8-7.3 3.5-0.7 0.8 0 0.5 1 5.9 0.5 2.8 0.4 1.1 0.8 1 7.8 8.4 1.9 1 1.8-1.1 3.5-4.5 3-2 1.9-0.6 5.8 1.3 2.2-0.1 7.8-1.7 2.2-0.1 0.9 0.2 3.8 1.5 2.3 0.9 0.7 0.4 7.6 7.2 1.4 0.2 1.2-1.6 1.1-2.1 1.2-1.2 1.1-0.9-0.2 0.8 0.2 0.1 0.7 1.8 0.7 0.7 0.6 0.2 0.6 0-0.4 0.9-0.3 1 1.1 0.1 1.1-0.4 1-0.6 1.7-1.7 2.3-1.6 2.1-2.9 0.4-1.1-0.1-1.6-0.2-0.9-0.4-0.4-0.9-0.6-0.3-0.6-0.7-2.2-0.8-0.5-1 0.2 0.8-0.8 1.5-0.5 4.9 0.3 0.7-0.1 2.1-0.9 1.8-0.4 1.9 0 0.7 0.2 1.5 1 0.8 0.2 6 0.4 2.1 1.1 2 2.4 3.4 5.6 1.6 1.7 6.4 2.8 2.7 1 0.7 0.6 0.5 0.7 0.2 0.8 0.4 3.3 0.1 0.8 0.4 0.5 0.7 0.5 2.9 1.1 1.3 0.4 0.6 0.4 0.2 0.7-0.2 0.4-0.7 1.1-0.2 0.6 1.2 0.4 4.8 4.5 0.5 0.5 0.7 1.6 0.3 0.5 2 0.6 1.3 1 2.2 2.6 0.9 1.4 0.7 1.6 0.2 0.9 0.1 2.7 0.2 1 0.5 0.7 1 1 0.5 0.6 0.3 1.1 0.3 0.3 1.3 0.3 0.1 0.3-0.5 1.2 0 0.5 0.2 0.4 0.5 0.5-0.2 0.8 0 1-0.4 1.4-0.1 0.8 0.2 0.4 0.5 0.8 0 0.8-1 1.6-0.5 0.6-0.7 0.4-0.5 0-0.6-0.3-0.5 0.1-0.8 1.4-0.5 0.5-0.6 0.5-0.7 0.4-0.6 0.1-0.6-0.2-1.1-0.9-0.7-0.2-0.8 0.1-2.3-0.4-1.5 0-2.8 0.6-1.4 0.1-7.9-2.2-0.8-0.4-0.7-0.6-0.9-1.9-0.6-0.7-0.6 0.1-0.8 1-0.4 0.3-0.5-0.2-0.4-0.6-0.1-0.8-0.3-0.6-0.6-0.4-1 0.4-0.7 0.9-1.2 2.1-1 0.7-1.1-0.3-1.2-0.7-1.2-0.4-0.4 0.2-0.9 0.6-0.5 0.2-2.4 0-1.2-0.3-2-1-1.1-0.4-1-0.1-1 0.1-1 0.3-1 0.7-1.1 1-0.5 0.2-1.6 0-0.6 0.2-2.4 1.9-1 0.2-1.5 0.3-0.8 0.4-0.7 0.5-0.5 0.7-0.9 1.7-0.5 0.7-0.6 0.3-3.1 0.4-0.7-0.2-1.5-0.9-0.6-0.6-0.7-1.9-0.5-0.5-0.3 0.1-1.5 1-0.2 0.1-0.9-0.4-2.5 0.6 0.5 1.5 0.1 0.6-0.2 0.7-1.1 1.5-0.4 1.3-0.1 3.1-0.5 1-1.1 0.3-10.7-0.7-3.9-0.9-0.6 0-0.3 0.1-0.6 0.8-1.9 1.7-0.5 0.2-1.9 0.2-1.3 0.4-0.7 0.5z" id="MNG3332" name="Dornod" data-id="MNG3332" data-name="Dornod">
 </path>
 <path d="M895.9 278.6l-0.4 0.4-0.6 1.4-0.3 0.8-0.4 0.6-5.2 5.5-4.5 8.8-0.2 1.2 0.4 1.4 0.7 1 0.3 1.1-0.7 1.5-1.9 2.7-0.8 0.6-1.5 0.8-1 0.2-1.6-0.3-0.3 0.2-0.6 0.7-6.6 5.7-2.4 2.7-0.7 0.7-1 0.4-5.1 1.4-4.2 0.8-6.5 0-5.8 0.9-1.1-0.1-5.2-2.1-1.1-0.1-1 0.2-4.2 1.6-0.3 0.2-0.2 0.5-0.2 2-0.3 0.9-0.9 2-1.7 2.5-6.4 6.2-1.5 0.9-0.8 1-0.5 1.1-1 1.4-1.1 0.9-1.1 0.6-1.4 0.3-1.8 0.2-0.8 0.3-1.6 1.8-3.2 2.3-1.9 2.1-1.2 0.9-0.9 0.3-2.3-0.2-0.5-0.2-0.8-0.8-0.5-0.2-11.4-1-2.8-1.2-1.3 0-7-1.9-4.2-1.9-0.8-0.7-0.7-0.8-1.3-2.2-2.5-2.6-0.9-0.6-1-0.2-8.5 0.1-3-0.8-0.8 0-0.2-2.8 0-2 0.2-2.1-0.1-1-0.3-0.8-0.8-1.1-0.7-0.6-0.8-0.5-0.7-0.7-0.5-0.9-0.4-2.7-0.3-1.1-1-0.9-0.9-0.5-0.6-0.9-0.1-1.4 0.6-11.8-0.5-2.2-0.6-2.1-2.8-6.1-0.5-1.8-0.3-0.8-0.6-0.7-11.5-5.3-0.2-1.4 0.5-1.3 1.9-2.9 0.3-0.7 0.2-0.9-0.1-0.9-0.2-1-1-3.4-0.3-1.4-0.1-1 0.1-3.6 0.5-1.7 0.8-1.6 2.8-5.1 2.2-4.3 0.9-3.1 1-8.6 0.3-1.3 0.5-1.1 1.1-1.9 3.1-3.6 1-0.9 1.3-0.9 1.4-0.6 1-0.1 4 0.8 3.7 0.2-0.6-2.7-0.2-2.1 0-1.4 0.2-2.3 0.2-1 0.4-1.4 0.7-1.3 0.6-0.6 0.6-0.7 1.8-1.2 9.5-3.7 1.6-0.1 0.5-0.2 1-0.6 2.2-0.4 0.3 4.2-0.3 5.6 5.3-3 1-0.3 0.9-0.1 0.9 0 1.7 0.4 6 2.8 18.8 4.2 14.2 11.4 5.4 3 0.7 0.6 0.4 0.5 0.3 1.2-1.1 8.3-0.1 3.7 0.2 1.1 0.3 0.9 0.4 0.7 0.4 0.5 0.6 0.3 3.5 1.4 0.9 0.6 0.9 0.6 1 0.9 0.9 1 1.8 2.8 3.7 6.9 5.3-2.7 2.7-0.8 14.3-0.5 5.9-1.2 13.2-0.6 0.5 0.2 0.5 0.4 0.5 0.5 6.3 10.4 2.6 3z" id="MNG3333" name="Sühbaatar" data-id="MNG3333" data-name="Sühbaatar">
 </path>
 <circle cx="525.8" cy="402.6" id="0">
 </circle>
 <circle cx="451.8" cy="322.4" id="1">
 </circle>
 <circle cx="572.8" cy="102.2" id="2">
 </circle>
</svg>