<?xml version="1.0"?>
<!--
************* Copyright (c) 2017 Pareto Softare, LLC DBA Simplemaps.com *******************		
************* Free for Commercial Use, full terms at  http://simplemaps.com/resources/svg-license ************
************* Attribution is appreciated! http://simplemaps.com ***************************
-->
<svg baseprofile="tiny" fill="#7c7c7c" height="1100" stroke="#ffffff" stroke-linecap="round" stroke-linejoin="round" stroke-width="2" version="1.2" viewbox="0 0 1000 1100" width="1000" xmlns="http://www.w3.org/2000/svg">
 <path d="M46.9 657l-1.7 0.4 0.1-0.8-0.2-1.2 1.6-0.5 0.2 1.2 0 0.9z" id="MRT99" name="" data-id="MRT99" data-name="">
 </path>
 <path d="M861.9 273.3l-0.1 0-348.5 243.7-129.4 14.7-51.1-19.4-2-0.7-0.2 0-2.3-36.3-1.3-22-1.4-22-1-5.7-4-11.4-0.8-5.6 1-5.9 2.7-5.7 6.9-9.8 1.6-2.1 8.1-5.6 10.2-7.1 8.8-6.1 5.1-3.6 5-1.7 13.7-2 2.9-0.8 17.9-8.6 8.3-2.3 1.1-1.4 0.3-3.1 0-224.2 8.2 0 246 0 8.2 0 6.9 0 1.6-0.5 0.5-1.1 0-4.1 0-1.3 0-3.5 0-12.7 0-8.4 0-9.4 0-10.1 0-20.9 0-10.1-0.1-9.4 0-8.5 0-7.2 0-5.6 0-3.5 0-1.3 16.1 10.7 16.1 10.6 16.1 10.7 16.2 10.6 16.1 10.6 16.1 10.6 16.1 10.6 16.1 10.6 16.1 10.6 16.1 10.5 16.1 10.6 16.1 10.5 13.7 8.9 13.6 9 13.7 8.9 13.6 8.9 9.9 6.4 14.1 9.6 14.1 9.7 14.2 9.6 14.1 9.6-18 0.1-54.1 0-18 0-54.1 0 0.8 7.2 1.5 14.3 0.8 7.1 0.8 7.1 0.8 7.2 1.6 14.2 0.8 7.3z" id="MRT2783" name="Tiris Zemmour" data-id="MRT2783" data-name="Tiris Zemmour">
 </path>
 <path d="M389.4 883.7l-1.3 0.6-0.9 1-0.1 1.5-0.8 1-3.2 0.5-2.6 1.1-1.5 1.6-2.6 0.3-1.8 1.5-2.1 4-2.2 1-1.7 0.4-1.5 0.8-0.9 0.7-1 0.5-1-0.3-1.1 0-3.6 1.1-0.8 0.8-0.9 0.7-2.4 0.6-5.9 6.8-0.8 1.5-0.7 1.8 0.1 3.1-0.5 2.9-0.2 3.1-3.8 5.7-1.6 3.3-1.2 4.4-2 4.1-6.9 2.6-7.6 0.8-3.9 4.7-0.5 6.8-1.5 2.3-33.2 9-3.5 1.5-0.9 3.5-0.4 3.7-1.6 1.9-2.4 1.4-1.6 0.6 0.4-1.4 0.2-1.1-0.8-0.1-0.7 0-0.8 0.2-0.7 0.4-0.6 0.6-1.4 2.1-0.6 0.6-1.3 1.1-1.3 0.7-0.7 0.3-0.6 0-0.7-0.1-0.7-0.5-0.7-0.6-0.5-0.8-0.4-0.8-0.7-2.3-0.4-0.7-0.5-0.5-1.3-1-0.7-0.4-3.2-1-1.4-0.7-0.3-1.4 0.5-1.5-0.1-0.7-0.3-0.8-0.8-1-0.2-0.6 0.2-0.7 0.5-1.3-0.1-0.6-0.5-0.6-0.7-0.4-1.6-0.6-0.7-0.5-1.5-1.7-0.5-0.5-2.7-1.6-4.9-4.4-2.7-3.3-1.9-1.3-0.6-0.6-1.4-1.8-0.7-0.4-0.9-0.2-1.9-0.1-0.9-0.4-0.4-0.7-0.1-1.5-0.3-0.6-0.8-0.4-3.1 0.3-0.8-0.4-0.1-0.6 0.4-1.7 0.1-0.9-0.4-0.6-0.6-0.5-5.2-2-1.6 0.1-0.8 0.3-2.1 1.3-0.8 0.4-0.8 0.2-0.9 0.1-0.9 0-3.3-0.7-0.9 0-3.4 1-0.9 0-0.9-0.1-2.3-1.1-0.7-0.2-0.8 0-2.7 0.7-1 0.1-13.9-1-2.5 0.6-1.5-0.2-0.8-1.1-0.6-1.2 1.3-1.7 8-5.2 11.1-6.2 6.3-2.7 2.5-2.2 1.7-2.4 20.3-15.2 29.4-44 18.3-16.8 22.8-17.1 63.9-47.8 15.5 24.3-2.3 23.7-1.1 14.4 0.3 0-2.3 28.9 11 11.6 8.1 6.9z" id="MRT2784" name="Brakna" data-id="MRT2784" data-name="Brakna">
 </path>
 <path d="M56.9 684l-0.3 0 0.4-1.4 2.8-5.3 3.1-4.4 0.9-0.2 0.7 0.7-1 1.6-1.3 1.3-1 1.1-1.4 2.5-2.9 4.1z m-6.8-7.4l-0.5 0.7-0.6-0.5-0.4-1.9 0.4-1.7 1.2-0.5 0.6 0.1 0 0.9-0.2 1.7-0.5 1.2z m11.5-14.7l-2.5 11.7-2 5.4-3.3 4.9-1.4-1.8-0.3-0.6 0.1-0.7 0.2-0.8 0-0.8-0.6-0.9-0.6-1.6 0.6-1.6 2.3-3.6 0.2-0.3-0.1-2.6 0.1-0.7 0.7-1.6 1-1.4 1.2-0.4 1.1 1.1 1.5-3.5 1.1-1.3 0.7 1.1z m-9.1-62.4l-0.5 0.3-1-0.4-0.6-1.6 0.4-1.3 0.8-0.5 0.7 0.2 0.4 0.5-0.2 2.8z m175.3-66.2l9.9 16.5-135.6-0.5 21.2 36-52.8 99.5-4.5 8.3-3 3.7-0.5-0.2 0.2-0.3 1.9-3.3 0.5-1.7 0.7-1.1 0.2-0.6-0.3-0.6-0.5-0.3-0.5-0.1-0.3 0.4-0.4-0.1-4.5 5-2.4 1.9 3.4-7.1-1.2 0.6-3.3 2.8-1.1 1.3-0.6 0.8-0.5 1-0.1 1 0.4 1 0 0.5-0.7 1.7-0.2 0.8-0.2 0.2-0.5 0.2-0.5 0-0.5-0.1-0.3-0.3-0.1-0.1 0-0.3-0.1-0.5-0.2-0.7 0.1-2.1 0.1-0.7 0.8-1.4 2.1-2.2 0.4-1.5 0.3-1.8 0.8-0.9 1.1-0.7 1.2-1 7.8-11.9 0.5-0.4 0.5-0.4 0.5-0.4 0.1-0.9 0.1-1.7 0.3-0.6 0.5-0.3 0.2-0.3 1.4-1.6 0.4-0.5 0-0.9-0.2-0.8-0.4-0.7-0.6-0.6 0.7-0.5 0.4-0.7 0.1-0.8 0-0.9-1.3 0.7-0.4 0.5-0.3-1.4 1.2-2.1-0.4-1.3-1.5-0.9-1 0.7-0.6 1.3-0.2 0.7-1.4 0.8-0.5-0.4-0.1-1 0.3-1.2 0.5-0.9 0.5-0.8 4.8-4.9 1.3-2.1 0.7-2.6-0.4-2.1-2.4-4.4-1-2.4 0.6 0.1 0.6-0.1 0.5-0.2 0.5-0.4 1.8-2.8 0.7-1.7 0.3-1.7-0.3-1.6-0.5-1.3-2.3-3.6-0.5-0.3-1.2-0.1-0.8-0.4-0.3-0.8-0.3-0.8-0.3-0.4-1.3-0.8-2.3-5.7-0.7-0.8-0.8-0.5-0.5-0.5-0.2-0.9 0.2-0.3 0.5-0.2 0.3-0.2-0.2-0.5-0.2-0.3-0.5-1.1-0.4-1.6-3-8.1-0.8-1.2-1.2-0.5-0.7-1.1-0.1-2.2-0.4-1.5-1.3 0.6-1.7-1.1 0-0.7 3.7-1 1-0.5-1.6-0.2-2.9 0.4-1.3-0.2-1.1-1.4 0.6-0.6-1.2-2.5-0.5-0.4-1.8-0.7-0.5 3.8 0.6 8.4-1.1 3.3-0.9-1.3-1-1-2.1-1.3-0.6-0.8-1.1-2-0.8-1-1-0.8-2.5-1.3-0.6-0.6-0.1-1 0.4-0.5 0.5-0.1 0.3-0.2-0.1-0.8-0.4-0.7-0.1-0.6-0.4-1.3-0.9-1.1-2.3-1.8-0.3-0.7 0-1.6-0.3-0.7-1.3-1.5-1-4.1-0.5-1-0.8-1-0.6-1.3-0.3-1.4-0.2-1.3-0.3 0.4-0.6 0.4-0.2 0.4-1.2-1.2-0.4-1.3-0.3-1.4-0.4-1.5-0.5-0.7-0.7-0.6-0.7-0.8-0.3-1.2-0.4-0.9-2-2.7-0.4-1.2-0.2-1.2-0.4-1.4-1-2.5-1.6-1.9-1.1 0.6-2.1 4-3.5 4.8-0.8 0.7-0.5 1 0.6 1.6 0.9-0.5 0.1 1.5-0.5 3.2-0.1 2.8-0.4 0.8-0.8 0.5-1.8 0.6-0.7 0.7-0.1 0.7 0.4 0.7 0.8 0.9 0.6 1.4 0 0.6 0 1-0.8 3.7-0.7 1.9-0.8 1-2-9.4 0.3-2.6 1.9-8 0.6-2.7 3.4-10 1.6-8.4 1.4-7.6 0.8-0.7 12.8 0 9.5 0 33.9 0 22.7 0 25.3 0 27.1 0 27.9-0.1 28 0 29.6 0z" id="MRT2785" name="Dakhlet Nouadhibou" data-id="MRT2785" data-name="Dakhlet Nouadhibou">
 </path>
 <path d="M237.7 549.8l1.6 2.3-5.4 146.8 0 13.1-0.1 23.8-3.3 0-158.6 0.4-2.3-5.6-3.6-6-4.8-5.6-1.5-1.5-0.4-0.2-0.3-0.6-0.6-0.1-0.8-0.1-0.7-0.4-1.4-0.9-3.2-0.9-1.3-0.8-0.6-1-1.4-3.7-0.2-1.5-0.9-1.7-1.5-1.3-1-1.3 1.1-1.4 4.8 1.3 4.5-0.6 4-2.3 2.7-3.4 0.5 0.2 3-3.7 4.5-8.3 52.8-99.5-21.2-36 135.6 0.5z" id="MRT2786" name="Inchiri" data-id="MRT2786" data-name="Inchiri">
 </path>
 <path d="M86.4 831.4l0.6-6.3-0.9-15.5-2-21.4 0.8 0.1 21.9-0.3 0.1 19.6-0.1 23.8-20.4 0z" id="MRT2787" name="Nouakchott" data-id="MRT2787" data-name="Nouakchott">
 </path>
 <path d="M360.2 773.9l-63.9 47.8-22.8 17.1-18.3 16.8-29.4 44-20.3 15.2-1.7 2.4-2.5 2.2-6.3 2.7-11.1 6.2-8 5.2-1.3 1.7-0.1-0.2-1.1-1.1-0.9-0.5-1.8 0.8-0.8 0.5-0.6 0.8-0.2 1.2-0.2 0.5-0.4 0.6-0.5 0.3-0.6 0.3-0.6 0.1-0.6-0.2-0.8-0.9-0.7-0.9-0.7-0.9-1.2-0.3-1.1 0.3-0.7 0.8-0.2 1.1 0.5 1.2 1.3 1.3 0.3 0.5-0.1 0.6-0.3 0.5-0.5 0.4-1.8 0.6-8.7 1.4-1.3 0.1-3.9-0.6-2.6 0-1.3 0.3-3.4 1.5-1.1 0.3-1.2 0-1-0.5-0.6-0.7-0.5-0.9-0.7-0.7-1.3-0.1-1.1 0.6-1 0.9-2 2.8-0.8 0.8-1 0.5-1.2 0.1-3.5-0.7-1.2 0.2-1 0.6-1.8 1.6-1.1 0.7-1.2 0.4-1.2 0.1-1.3-0.3-1.9-0.9-0.7-0.2-2.7-0.2-3.7-1.2-1.3-0.1-2 0.4-0.7 0-2.8-0.7-1.1 0.1-3.3 1.5-0.6 0.1-0.5-0.1-1-0.4-0.7-0.1-0.6 0.1-0.6 0.3-0.6 0.4-1.9 0.3-1.9-0.2-1.6-0.9-1.4-1.4-1-1.5-0.6-0.6-0.7-0.5-1.1-0.2-0.9 0.2-1 0.4-2.4 1.7-0.8 0.4-0.9 0.2-0.9-0.1-2.7-0.5-1.9 0.4-1.7 1.1-1.5 1.4-1.1 1.6-0.7 1.6-0.4 3.4-3.3 14.4-0.4 1-0.5 0.8-1.2 0.9-3 0.7-1.2 1-0.6 1.7-0.4 5.8-1.4 3.4-1.1 3.7-0.5 1-0.2 9.2-0.8 4.7-1.8 3.2 1.2-14.3-0.2-7.5-0.8-17.1 0.8-5.5 0.6-1.5 2.3-4.4 0.6-4.2 0.7-1.3 0.9-2.2 0-9.2 0.6-3.7 6.5-16.7 1.8-2.9 1.2-5.8 1.4-2.8 3.9-5.5 6.9-15.3 0.5-2.1 1.2-1.5 7.6-24.1 2.4-10.5 0.6-11.4 0.8-7.4 20.4 0 0.1-23.8-0.1-19.6-21.9 0.3-0.8-0.1-0.7-8-0.9-3.1-4.2-9.3-2-10.7-1.4-3.5 0.8-2-0.2-2.4-3.1-11.9-0.5-1.1 158.6-0.4 3.3 0 79.6 0 46.8 38.1z" id="MRT2788" name="Trarza" data-id="MRT2788" data-name="Trarza">
 </path>
 <path d="M489.6 845.4l-1 2.8-0.2 2.8 1.3 2.8 1.6 8.6 5.4 11.4 0.4 3-0.6 3 1.1 3.1-0.4 1.7-0.7 1.5-1.3 7.3 0.7 1.8 1.3 1.3 0.5 2.1-1.3 10.3 0 2.4 0.4 2.3 0.1 1.5-0.3 1.5 1.1 2-0.6 1.2-0.8 1.1 0.5 1.9 1.7 1.1 1.8 2.2 0.4 1.2 0.6 1.1 1.5 0.1 1.6 0.7 1.2 1.5 0.9 1.4-0.2 2.9 1.2 2.5 1.7 2.5 2.4 1.1 1.3 0.2 1.3 0.4 2.4-1.2 0.9 1.1 1.3-0.5 1.2-0.3 0.5 0.8-0.1 1.1-1 1.2-1.9 0.1 0 2.1-1.9 1.3-0.7 1.5-4.2 2.3-1.7 0-1.4 0.4-1.2 1 0.8 2 3.3 1 1 0.6 0.2 1.8-0.7 1.9-0.7 0.8-0.5 0.9-0.4 2.4-0.5 1.2-0.2 1.3 1 2-0.7 1.2 0.3 1.3 2.7 1 2.3 1.9 1.3 2.5 0.2 2.8-0.4 2.4-0.1 2.3-0.9 1.5 0 2.3-0.3 0.6 1.6 1.7 5.1 4.1 2.4 3.2 6.6 43.2-0.2 0-1.6 0.3-3.4 0-4.9-0.8-1.3 0.1-0.9 0.8-0.3 1.6 0.1 3.5-0.6 1.8-0.7 0.7-1.3 0.7-0.9 1.4-0.7 0.1-0.8 0-0.9 0.3-1.3 1.3-0.6 1.4-0.8 3.1-0.9 1.5-2.2 2-0.7 1.4-1.2 4.8-0.8 1.4-2.6-4.1-3.1-3-2.2-4.4-2.7-2.6-20.5-15.3-1.6-1.7-7.5-11-2.1-1.8-1.9-0.8-4.6-1-0.7 0.1-0.3 0 0.2 0.4 0.2 0.3 0.2 0.2 0.4 0.2 0.2 0.4 0 0.4 0 0.5-0.2 0.4-0.7 0.8-1 0.5-2.2 0.6-1.3 0.8-2.9 3.1-2.4 1.3-2.2-0.2-2.1-0.7-0.4-0.1 0.7-3.5 2-3.9 0.4-4.3 1-4.2 3.2-3.5 0.7-2.1 0.4-2.1 0.1-1.2 0.5-1 1.8-1.4 1-2.1-0.2-0.8-0.1-0.9 0.6-1.3 0.9-1.1 2.1-1.1 1.3-2-8.7-1.4-5.7-3.8-1.2-0.3-1.2 0.3-1.4-0.3-1.1-0.9-4.2 0.6-0.9-0.9-1-0.6-0.7 1.3 0.4 2 0.9 1.8 0.7 1.9-0.6 1.4-1.1 0.8-1.1 0.4-0.5 1.4 0.2 1.4-1.7 0-2.2-0.3-2.3 0.3-2.1 0.6-1.5-0.9-1.6-1.8-2.5-0.5-1.1-3.4 0.7-6.1-1.8 0.1-1.6-0.5-0.9-1.3-2.9-3-3.6-1.1-0.6 0.6-0.3 0.5-1.4-0.5-1.3-0.8-2.9 0.1-0.9-1.7-0.5-6.7-1.3-1.4-1.9-0.4-1.3-0.9-1.4-0.4-1.6 0.5-1.5 0.8-3.1 2.8-3.2 0.3-0.4-2.6 1.6-5.8-0.1-3.5-0.5-1.3-0.2-2.9-0.6-1.4 0.1-2.7-3.1-0.9-15.5-2.7-2 0.7-1.8 1.8-1.2 0.2-1-0.5-1.4 0-1.1 0.1-0.4-1.6 0-1.4 1.6-1.5 0.9-1.9 0-1.6-1.2-1.1-0.7-1.9-0.3-2.1-1.3-2.5-2.4-1.4-1.9-1.3-0.4-2 0.2-3.8 1.1-3.6 1.6-3.3-1.8-3 0.5-2.9-0.1-3.1 0.7-1.8 0.8-1.5 5.9-6.8 2.4-0.6 0.9-0.7 0.8-0.8 3.6-1.1 1.1 0 1 0.3 1-0.5 0.9-0.7 1.5-0.8 1.7-0.4 2.2-1 2.1-4 1.8-1.5 2.6-0.3 1.5-1.6 2.6-1.1 3.2-0.5 0.8-1 0.1-1.5 0.9-1 1.3-0.6 7.8 7.5 13.1 4.9 11.7 3.7 12.8-4.5 14.8 1.3 3.5-4.6 0.1-5.6 0.6-11.9 2.2-4.7-1.4-4.7 3.3-1.4-0.5-3.3-3.2-0.8 2.4-1.5 2.6-1.7 2.5-0.7 0.5-2.6-1.2-2.3 0.5-0.6-0.1-0.7-0.8-1.4-1.5-2.2-3.1-3.2-0.4-1.1-2.6-4.2 1.8 0.1-3.1-5.9-2-3.6-0.4-0.9-1.7-1.6 1.1-2.5 2.6-1.4 0.1-4.2 4.6 0.3 0.4-2.6 2.4-0.2 5.2 0.2 2.3 0.4 0.8-0.3 0.7 0.8 1.9 0.2 2.1-1.4 4.7-1.5 2.2 0.2 0.8-1.8 2.8-3.8-2.1-2.1 2.2-1.6 2.6-3.1 2.6-1.9 5.9-2.5 2.4 0.1 2.5-1.7-8.8 50.3z" id="MRT2789" name="Assaba" data-id="MRT2789" data-name="Assaba">
 </path>
 <path d="M438.9 1031.2l-2-0.3 0 2.9-0.2 0.9-2.1 2.3-1.1 2.7-1.2 6-2.8 5.9-0.3 1.4-0.5 4-1.5 4.5-0.2 1.8 0.1 0.8 0.2 1.1-0.1 0.9-0.9 3.4-0.2 2.6-0.1 0.4 0.8 0.6 0.5-0.2 0.4-0.4 0.5 0 1 0.8 0.6 0.9 0.2 1.2-0.2 1.6-0.6 1.3-0.4 1.5-0.4 3 0.1 0.5 0.2 0.4 0.6 0.8 0 0.5-0.5 0.3-0.6 0.2-0.3 0.1-0.3 0.4-0.4 0.5-0.4 0.5-0.3 0.8-0.7 1.1-1.2 1.1-1.5 0.8-3.3 0.7-1.1 1-1.9 2.7-1.5 1-1.6 0.4-1.6 0-1.5-0.4-0.6 0.5-0.4 1.3-0.7 1-0.9-0.5-3.4-3.1-1.3-0.6-1.7 0.3-3.5 1.2-1.8 0.3-1.8-0.3-1.4-0.7-4.5-3.6-5.1-2.4-1.4-1.2-2.8-3.3-1.1-0.7 0-0.9-1.9-6.7-0.4-0.8-0.7-0.8-0.9-0.5-1.9-0.5-0.9-0.5-1.4-1.1-4.5-2.6-1-1.4-0.7-0.6-0.7-0.3-1.3 0.2-2.6 0.8-0.9 0.1-2.1-0.9-2.4-2.3 3.3-11.8 2.5-5.6 7.1-11.6 4.4-5.6 1.8-1 1.4-1.4 0.6-3.3 1.9-4.3 13.9-12.7 1.7-2.4 1-2.1 1.8-1.6 3.7-1 4.1 0.6 5.5-2.7 5.6-1.9 2.5 0.5 1.6 1.8 1.5 0.9 2.1-0.6 2.3-0.3 2.2 0.3 1.7 0-0.2-1.4 0.5-1.4 1.1-0.4 1.1-0.8 0.6-1.4-0.7-1.9-0.9-1.8-0.4-2 0.7-1.3 1 0.6 0.9 0.9 4.2-0.6 1.1 0.9 1.4 0.3 1.2-0.3 1.2 0.3 5.7 3.8 8.7 1.4-1.3 2-2.1 1.1-0.9 1.1-0.6 1.3 0.1 0.9 0.2 0.8-1 2.1-1.8 1.4-0.5 1-0.1 1.2-0.4 2.1-0.7 2.1-3.2 3.5-1 4.2-0.4 4.3-2 3.9-0.7 3.5z" id="MRT2790" name="Guidimaka" data-id="MRT2790" data-name="Guidimaka">
 </path>
 <path d="M414.2 997.2l-5.6 1.9-5.5 2.7-4.1-0.6-3.7 1-1.8 1.6-1 2.1-1.7 2.4-13.9 12.7-1.9 4.3-0.6 3.3-1.4 1.4-1.8 1-4.4 5.6-7.1 11.6-2.5 5.6-3.3 11.8-0.7-0.7-2-0.6-0.1-0.3-0.3-0.7 0-0.7 0.4-2.1 0-0.7-0.2-0.7-0.4-0.6-0.8-0.5-0.8-0.2-0.9 0-1.7 0.4-0.8-0.1-0.7-0.2-0.7-0.6-1.9-1.9-0.5-1 0.9-0.6 2.7 0.3 1.4-0.3 0.4-1.1-0.5-1.4-1-1.1-4.9-3.4-1-1-0.6-1.3-0.4-1.4 0-2.8-0.1-0.7-0.4-0.6-0.8-1.1-0.3-0.6-0.3-2.3-0.3-0.7-0.5-0.7-1.3-0.6-1.2 0.2-1.2 0.7-1.1 0.8-1.2 0.8-1.2 0.2-2.5-0.7-0.5-0.3-0.2-0.8-0.2-0.7 0-0.8 0.4-3.2-0.1-1.1-0.6-1-0.9-0.9-1-0.5-1.9-0.6-0.6-0.2-1.5-1.1-0.6-0.2-1.2-0.1-2.4 0.4-1.2 0.1-0.8-2.1-0.1-0.8 0.1-0.7 0.3-0.7 1.2-1.9 0.1-0.6-0.1-0.7-0.3-0.7-0.9-1.3-0.6-0.6-0.6-0.5-1.3-0.8-0.5-0.4-0.5-0.6-0.1-0.7 0.2-0.7 0.3-0.8 0.2-0.7-0.1-1.6-0.4-1.5-0.7-1.3-1.4-1.7-0.4-0.5-0.2-0.6 0-0.7 0.3-1.4 0.1-0.7-0.2-0.7-0.5-0.7-2-1.6-0.7-0.7-0.6-0.8-0.6-0.9-1.1-2.8-0.1-0.7-0.1-1.5-0.2-0.6-0.5-0.6-2.2-1.6-0.4-0.5-0.7-1.1-0.4-0.4-1.2-0.1-3 1.2-0.8-0.6 0.1-1.3 1.4-2.6-0.1-1.2-0.6-0.1-0.4 0.1-0.5 0.1-1.1 0.5-4.3 0.9-2.5 1-0.6 0.2-0.3 0.1-1.5 0-0.5 0.1-2.2 1.2-0.5 0.1-0.6-0.1-0.2-0.1-0.5-0.5-0.2-0.1-0.5-0.2-0.2-0.1-0.1-0.1-0.2-0.3 0-0.2-0.4-0.2-0.9-0.4-0.3-0.2-0.3-0.9 0.4-1.1 1.6-0.6 2.4-1.4 1.6-1.9 0.4-3.7 0.9-3.5 3.5-1.5 33.2-9 1.5-2.3 0.5-6.8 3.9-4.7 7.6-0.8 6.9-2.6 2-4.1 1.2-4.4 1.6-3.3 3.8-5.7 0.2-3.1 1.8 3-1.6 3.3-1.1 3.6-0.2 3.8 0.4 2 1.9 1.3 2.4 1.4 1.3 2.5 0.3 2.1 0.7 1.9 1.2 1.1 0 1.6-0.9 1.9-1.6 1.5 0 1.4 0.4 1.6 1.1-0.1 1.4 0 1 0.5 1.2-0.2 1.8-1.8 2-0.7 15.5 2.7 3.1 0.9-0.1 2.7 0.6 1.4 0.2 2.9 0.5 1.3 0.1 3.5-1.6 5.8 0.4 2.6 3.2-0.3 3.1-2.8 1.5-0.8 1.6-0.5 1.4 0.4 1.3 0.9 1.9 0.4 1.3 1.4 0.5 6.7 0.9 1.7 2.9-0.1 1.3 0.8 1.4 0.5 0.3-0.5 0.6-0.6 3.6 1.1 2.9 3 0.9 1.3 1.6 0.5 1.8-0.1-0.7 6.1 1.1 3.4z" id="MRT2791" name="Gorgol" data-id="MRT2791" data-name="Gorgol">
 </path>
 <path d="M872.8 375.8l-0.6 1.4-129.8 293.5-1.1 2.5-246.3 1.2-1.8 0-31.6 26.2-1.8 14.6-0.4 3.1-18.5-10.1-17.4 12.1-36.7 24.2-9.4 10.4-17.2 19-46.8-38.1-79.6 0 0.1-23.8 0-13.1 5.4-146.8-1.6-2.3-9.9-16.5 22.8 0 22.6 0 19.2 0 24.3 0 3.4 0 11.9 0-0.9-14.1-0.5-7.6 0.2 0 2 0.7 51.1 19.4 129.4-14.7 348.5-243.7 0.1 0 0.6 6 1.3 12.2 1.3 12.1 0.6 5.5 1.1 10.7 1.2 10.8 1.1 10.7 1.2 10.7 1.1 10.7 1.2 10.7 0.2 2.4z" id="MRT2795" name="Adrar" data-id="MRT2795" data-name="Adrar">
 </path>
 <path d="M658.6 1034.8l0.2-0.2 0.4-0.5 3-3-0.9-26.9-7.9-17.4 16.1-22-2-5.9 11.7-11.9 5.2-5.9 13.7-15.3 18.6-20.6-13.9-15.5-11.2-12.5-44.9 5.9 0.2-0.5 94.4-209.4 1.1-2.5 129.8-293.5 0.6-1.4 0.9 8.3 1.2 10.7 1.1 10.7 1.2 10.6 1.1 10.7 1.2 10.6 1.1 10.6 1.2 10.6 1.1 10.7 2.3 21.2 1.2 10.5 2.3 21.2 1.1 10.5 1.2 10.6 1.1 10.5 1.2 10.6 0.5 5.1 1.2 11.2 1.3 11.2 0.5 5.1 1.1 9.4 1.1 10.9 1.2 10.8 1.2 10.9 1.1 10.8 1.2 10.8 2.3 21.7 1.2 10.8 1.2 11.9 0.6 5 0.5 5 1.9 18.1 0.8 8 0.8 8 1.7 15.9 0.8 8 0.8 8 0.9 7.9 0.8 8 0.8 7.9 1.7 15.9 0.8 7.7 0.8 7.8 0.8 7.7 0.8 7.7 0.8 7.7 1.6 15.4 0.8 7.7 0.8 7.7 1.6 15.4 0.9 7.7 0.8 7.7 0.8 7.6 0.8 7.7 0.8 7.7 0.3 3.4 0.7 1.4 0.8 1.3 3.2 2.3 3 2 3.6 2.5 3.2 2.3 3.3 2.3 3.3 2.3 0.8 0.8 0.1 1.1-0.4 2.5-1.5 8.1-1.5 8-1.5 8-1.5 8-1.5 8.2-1.5 8.3-1.6 8.2-1.7 9.4-0.1 0.4 0 0.2-0.1 0.1-0.1 0-0.2-0.1-12.8 0-10.9 0-10.7 0-5.9 0-6.3 0-22.5 0-25.2 0-26.9-0.1-13.8 0-14 0-54.7 0-25.2 0-11.6 0-10.9 0-7 0-18 0-7.5 0z" id="MRT2796" name="Hodh ech Chargui" data-id="MRT2796" data-name="Hodh ech Chargui">
 </path>
 <path d="M646.7 883.1l44.9-5.9 11.2 12.5 13.9 15.5-18.6 20.6-13.7 15.3-5.2 5.9-11.7 11.9 2 5.9-16.1 22 7.9 17.4 0.9 26.9-3 3-0.4 0.5-0.2 0.2-1.3 0-26.9 0 0.5-7.7 1.1-5.8-0.2-2.8-2-0.8-1.5 1-5 6-1.2 2.2 0 2.5 1.3 5.3 0.9 4.7-20.2 0.9-3.9 0.8-1.6 0.7-4.7 2.7-3.1 0.8-9.4-0.9-9.5 1.4-3.3-0.1-1.9-0.5-2.9-1.9-1.7-0.8-0.6-0.1-1.5 0.3-0.7 0-7-2.8-1.1-0.2-3.9 0.3-2.3-0.4-8.3-0.2-1.2 0.3-1.6-0.4-1.3 0.2-2.8 1-6.6-43.2-2.4-3.2-5.1-4.1-1.6-1.7 0.3-0.6 0-2.3 0.9-1.5 0.1-2.3 0.4-2.4-0.2-2.8-1.3-2.5-2.3-1.9-2.7-1-0.3-1.3 0.7-1.2-1-2 0.2-1.3 0.5-1.2 0.4-2.4 0.5-0.9 0.7-0.8 0.7-1.9-0.2-1.8-1-0.6-3.3-1-0.8-2 1.2-1 1.4-0.4 1.7 0 4.2-2.3 0.7-1.5 1.9-1.3 0-2.1 1.9-0.1 1-1.2 0.1-1.1-0.5-0.8-1.2 0.3-1.3 0.5-0.9-1.1-2.4 1.2-1.3-0.4-1.3-0.2-2.4-1.1-1.7-2.5-1.2-2.5 0.2-2.9-0.9-1.4-1.2-1.5-1.6-0.7-1.5-0.1-0.6-1.1-0.4-1.2-1.8-2.2-1.7-1.1-0.5-1.9 0.8-1.1 0.6-1.2-1.1-2 0.3-1.5-0.1-1.5-0.4-2.3 0-2.4 1.3-10.3-0.5-2.1-1.3-1.3-0.7-1.8 1.3-7.3 0.7-1.5 0.4-1.7-1.1-3.1 0.6-3-0.4-3-5.4-11.4-1.6-8.6-1.3-2.8 0.2-2.8 1-2.8 26 7.6 34.8 9.9 49.6-3.2 0.6 0.5 46.1 22.9z" id="MRT2797" name="Hodh el Gharbi" data-id="MRT2797" data-name="Hodh el Gharbi">
 </path>
 <path d="M646.7 883.1l-46.1-22.9-0.6-0.5-49.6 3.2-34.8-9.9-26-7.6 8.8-50.3-2.5 1.7-2.4-0.1-5.9 2.5-2.6 1.9-2.6 3.1-2.2 1.6 2.1 2.1-2.8 3.8-0.8 1.8-2.2-0.2-4.7 1.5-2.1 1.4-1.9-0.2-0.7-0.8-0.8 0.3-2.3-0.4-5.2-0.2-2.4 0.2-0.4 2.6-4.6-0.3-0.1 4.2-2.6 1.4-1.1 2.5 1.7 1.6 0.4 0.9 2 3.6 3.1 5.9-1.8-0.1 2.6 4.2 0.4 1.1 3.1 3.2 1.5 2.2 0.8 1.4 0.1 0.7-0.5 0.6 1.2 2.3-0.5 2.6-2.5 0.7-2.6 1.7-2.4 1.5 3.2 0.8 0.5 3.3-3.3 1.4 1.4 4.7-2.2 4.7-0.6 11.9-0.1 5.6-3.5 4.6-14.8-1.3-12.8 4.5-11.7-3.7-13.1-4.9-7.8-7.5-8.1-6.9-11-11.6 2.3-28.9-0.3 0 1.1-14.4 2.3-23.7-15.5-24.3 17.2-19 9.4-10.4 36.7-24.2 17.4-12.1 18.5 10.1 0.4-3.1 1.8-14.6 31.6-26.2 1.8 0 246.3-1.2-94.4 209.4-0.2 0.5z" id="MRT2798" name="Tagant" data-id="MRT2798" data-name="Tagant">
 </path>
 <circle cx="629.1" cy="1007.6" id="0">
 </circle>
 <circle cx="307.5" cy="656.6" id="1">
 </circle>
 <circle cx="441.3" cy="1016.1" id="2">
 </circle>
</svg>