<?xml version="1.0"?>
<!--
************* Copyright (c) 2017 Pareto Softare, LLC DBA Simplemaps.com *******************		
************* Free for Commercial Use, full terms at  http://simplemaps.com/resources/svg-license ************
************* Attribution is appreciated! http://simplemaps.com ***************************
-->
<svg baseprofile="tiny" fill="#7c7c7c" height="1619" stroke="#ffffff" stroke-linecap="round" stroke-linejoin="round" stroke-width="2" version="1.2" viewbox="0 0 1000 1619" width="1000" xmlns="http://www.w3.org/2000/svg">
 <path d="M481.7 903.7l104 108.6 111.9 66.8 191.1 33.5 74 128 29.3 80 7 60.3-37.6 92.7-61.7 72.2-86.7 50.3-108.1 21.9-548.3-149.9-121.2-436.8 50.3-226.9 252.1 32.5 143.9 66.8z" id="MSR5087" name="Saint Anthony" data-id="MSR5087" data-name="Saint Anthony">
 </path>
 <path d="M888.7 1112.6l-191.1-33.5-111.9-66.8-104-108.6 48-175.4 72-150.3 80-101.6 147.5 187.5 96.3 180-3.5 81.4-43.8 140.7 10.5 46.6z" id="MSR5088" name="Saint Georges" data-id="MSR5088" data-name="Saint Georges">
 </path>
 <path d="M681.7 476.4l-80 101.6-72 150.3-48 175.4-143.9-66.8-252.1-32.5 70.9-320.2 181.2-483.2 135.2 54.9 70 19.2 88.9-4.6-49.9 209.4 99.7 196.5z" id="MSR5089" name="Saint Peter" data-id="MSR5089" data-name="Saint Peter">
 </path>
 <circle cx="1" cy="1154.2" id="0">
 </circle>
 <circle cx="180.2" cy="967" id="1">
 </circle>
 <circle cx="538.7" cy="592.6" id="2">
 </circle>
</svg>