<?xml version="1.0"?>
<!--
************* Copyright (c) 2017 Pareto Softare, LLC DBA Simplemaps.com *******************		
************* Free for Commercial Use, full terms at  http://simplemaps.com/resources/svg-license ************
************* Attribution is appreciated! http://simplemaps.com ***************************
-->
<svg baseprofile="tiny" fill="#7c7c7c" height="884" stroke="#ffffff" stroke-linecap="round" stroke-linejoin="round" stroke-width="2" version="1.2" viewbox="0 0 1000 884" width="1000" xmlns="http://www.w3.org/2000/svg">
 <path d="M655.9 581.3l11.5 1.9 16.2-0.9 6.9 10.4 9.3 5.7 14.6 2.9-2.3 10.4-6.2 8.6-45.4 2.8-8.5 8.6-13.1 2.8-13.8-1.9-13.1-3.8-14.6 2.9-4.6-15.2 1.5-22.8 3.8-20 8.5-4.7 16.2-2 14.6 6.7 9.2 6.7 9.3 0.9z" id="MLT5920" name="Attard" data-id="MLT5920" data-name="Attard">
 </path>
 <path d="M597.4 631.7l-20.8-1-6.2-5.7 3.9-5.7 9.2-2.8 9.3 0 4.6 15.2z" id="MLT5921" name="Mdina" data-id="MLT5921" data-name="Mdina">
 </path>
 <path d="M592.8 616.5l-9.3 0-9.2 2.8-3.9 5.7-16.1-5.7-1.6-13.3 7.7-8.5 24.7-1 9.2-2.8-1.5 22.8z" id="MLT5922" name="Imtarfa" data-id="MLT5922" data-name="Imtarfa">
 </path>
 <path d="M598.1 573.7l-3.8 20-9.2 2.8-24.7 1-7.7 8.5 1.6 13.3 16.1 5.7 6.2 5.7 20.8 1-0.8 13.3 4.6 3.8 5.4 33.2-9.2 12.4-16.2 2.8-20.8-3.8-6.9-9.5-1.5-8.5-6.2-6.7-13.9 0-26.9 3.8-18.5-0.9-14 8.5-12.8-17-36.9-20-8-15.2 0-62.8 11.7 6.7 10-2.8 10.8 11.4 9.2 0.9 13.9-13.3 10 0 8.4-4.8 10 4.8 8.5-1 7.7-9.5 34.6-4.7 13.9 0 11.6-3.8 7.6 9.5 15.4 15.2z" id="MLT5923" name="Rabat" data-id="MLT5923" data-name="Rabat">
 </path>
 <path d="M572.7 539.5l2.4 9.5-11.6 3.8-13.9 0-34.6 4.7-7.7 9.5-8.5 1-10-4.8-8.4 4.8-10 0-13.9 13.3-9.2-0.9-10.8-11.4-10 2.8-11.7-6.7 0-36.9-4.5-44.6 16.2-3.1 16.9-5.7 20.8-9.5 9.2-7.6 17-1.9 5.4-6.7 14.6 3.9 4.6 5.7-3.8 9.5-7 6.6 0.8 9.5 8.5 1.9 19.2 1.9 6.2 8.6 4.6 29.5 9.2 7.6 11.6 4.7 8.4 1z" id="MLT5924" name="Mġarr" data-id="MLT5924" data-name="Mġarr">
 </path>
 <path d="M579.2 347.7l-15.7 40.6-26.2 7.6-16.9 11.4-20.8 6.7-7.7 5.7-1.5 14.2 5.4 15.2-5.4 6.7-17 1.9-9.2 7.6-20.8 9.5-16.9 5.7-16.2 3.1-7-68.8-14.8-51-27.3-33.1 33-29.7 33.3-20.4 36.4-11.9 41.1-3.9 0 23.8-23.7 4.4-15.3 7.9-33.7 29.8 146.9 17z" id="MLT5925" name="Mellieħa" data-id="MLT5925" data-name="Mellieħa">
 </path>
 <path d="M663.5 364.7l-19.9 36.9-16.2 26.6-8.5 15.2-2.3 13.4 5.4 12.3 0 9.5-3.8 4.8 13 17.1-7.6 9.5-7 5.7-6.9-5.7-3.1-10.5-16.9-13.3-13.9-2.8-20.8 3.8-5.4 4.7 3.1 3.8 10-0.9 7.7 2.8 3.1 9.6 9.2 5.7 9.3 3.8 2.3 6.6-5.4 4.8-10 5.7-6.2 5.7-8.4-1-11.6-4.7-9.2-7.6-4.6-29.5-6.2-8.6-19.2-1.9-8.5-1.9-0.8-9.5 7-6.6 3.8-9.5-4.6-5.7-14.6-3.9-5.4-15.2 1.5-14.2 7.7-5.7 20.8-6.7 16.9-11.4 26.2-7.6 15.7-40.6 59 6.8 25.3 10.2z" id="MLT5926" name="St. Paul's Bay" data-id="MLT5926" data-name="St. Paul's Bay">
 </path>
 <path d="M631.2 500.5l10.8 1.9 5.4 8.6 2.3 8.5 2.3 19 3.1 8.6-4.6 5.7 0 10.4 5.4 18.1-9.3-0.9-9.2-6.7-14.6-6.7-16.2 2-8.5 4.7-15.4-15.2-7.6-9.5-2.4-9.5 6.2-5.7 10-5.7 5.4-4.8-2.3-6.6-9.3-3.8-9.2-5.7-3.1-9.6-7.7-2.8-10 0.9-3.1-3.8 5.4-4.7 20.8-3.8 13.9 2.8 16.9 13.3 3.1 10.5 6.9 5.7 7-5.7 7.6-9.5z" id="MLT5927" name="Mosta" data-id="MLT5927" data-name="Mosta">
 </path>
 <path d="M732.9 416.2l-4.7 34.9-1.5 20.9-19.2 0.9-11.6 4.8-6.1 5.7-3.1 18.1 0.7 12.3 10.1 10.5-7.7 11.4 4.6 11.4-9.3 4.7-15.4 2.9-14.6-7.6-3.1-8.6-2.3-19-2.3-8.5-5.4-8.6-10.8-1.9-13-17.1 3.8-4.8 0-9.5-5.4-12.3 2.3-13.4 8.5-15.2 16.2-26.6 19.9-36.9 17.9 7.1 51.5 44.4z" id="MLT5928" name="Naxxar" data-id="MLT5928" data-name="Naxxar">
 </path>
 <path d="M685.1 551.8l5.4 10.5-6.9 20-16.2 0.9-11.5-1.9-5.4-18.1 0-10.4 4.6-5.7 14.6 7.6 15.4-2.9z" id="MLT5929" name="Lija" data-id="MLT5929" data-name="Lija">
 </path>
 <path d="M705.9 569l6.2 9.5 3.8 11.4-1.5 11.4-14.6-2.9-9.3-5.7-6.9-10.4 6.9-20 15.4 6.7z" id="MLT5930" name="Balzan" data-id="MLT5930" data-name="Balzan">
 </path>
 <path d="M725.9 535.7l0.8 26.6-20.8 6.7-15.4-6.7-5.4-10.5 9.3-4.7-4.6-11.4 7.7-11.4 10 0.9 8.4 2.9 10 7.6z" id="MLT5931" name="Iklin" data-id="MLT5931" data-name="Iklin">
 </path>
 <path d="M729.8 528.1l-3.9 7.6-10-7.6-8.4-2.9-10-0.9-10.1-10.5-0.7-12.3 3.1-18.1 6.1-5.7 11.6-4.8 0 9.5 11.5 4.8 2.3 15.2 6.2 10.5 2.3 15.2z" id="MLT5932" name="Għargħur" data-id="MLT5932" data-name="Għargħur">
 </path>
 <path d="M782.9 501.5l4.6 5.7-0.7 11.4-9.3 7.6-5.4-5.7-6.9 6.6-13.1 4.8-15.4-1-6.9-2.8-2.3-15.2-6.2-10.5-2.3-15.2-11.5-4.8 0-9.5 19.2-0.9 12.3 5.7 9.3 8.5 3 14.3 10.1 2.9 21.5-1.9z" id="MLT5933" name="Swieqi" data-id="MLT5933" data-name="Swieqi">
 </path>
 <path d="M828 468.2l-25.8 20.9-18.5 3.8-0.8 8.6-21.5 1.9-10.1-2.9-3-14.3-9.3-8.5-12.3-5.7 1.5-20.9 4.7-34.9 35.9 30.8 59.2 21.2z" id="MLT5934" name="Pembroke" data-id="MLT5934" data-name="Pembroke">
 </path>
 <path d="M851.3 486.7l-36.6 31.5-8.9 26.3-11.3 6.3-7.7-8.7-7.8-5.2-1.5-10.7 9.3-7.6 0.7-11.4-4.6-5.7 0.8-8.6 18.5-3.8 25.8-20.9 16.6 5.9 6.7 12.6z" id="MLT5935" name="St. Julian's" data-id="MLT5935" data-name="St. Julian's">
 </path>
 <path d="M860.5 563.1l-17.5 6.8 0.7-10.5-26.3-5.8-11.6-9.1 8.9-26.3 36.6-31.5 6.5 12.2 2.9 32.1-0.2 32.1z" id="MLT5936" name="Sliema" data-id="MLT5936" data-name="Sliema">
 </path>
 <path d="M777.5 526.2l1.5 10.7 7.8 5.2 7.7 8.7-7 13.8-25.9 1.5-9.7 3.3-25.2-7.1-0.8-26.6 3.9-7.6 6.9 2.8 15.4 1 13.1-4.8 6.9-6.6 5.4 5.7z" id="MLT5937" name="San Ġwann" data-id="MLT5937" data-name="San Ġwann">
 </path>
 <path d="M843 569.9l-14.7 11.4-9.8-6.6-22.4-0.5-8.6-9.6 7-13.8 11.3-6.3 11.6 9.1 26.3 5.8-0.7 10.5z" id="MLT5938" name="Gżira" data-id="MLT5938" data-name="Gżira">
 </path>
 <path d="M751.9 569.4l9.3 7.7 2.7 7.6-7 7.7-5 2.9-5.2 21.2-16.9-1.9-15.4-13.3 1.5-11.4-3.8-11.4-6.2-9.5 20.8-6.7 25.2 7.1z" id="MLT5939" name="Birkirkara" data-id="MLT5939" data-name="Birkirkara">
 </path>
 <path d="M796.1 574.2l0.7 17.6-0.7 9.7-6.6 8.1-11.3-11-21.3-6.2 7-7.7-2.7-7.6-9.3-7.7 9.7-3.3 25.9-1.5 8.6 9.6z" id="MLT5940" name="Msida" data-id="MLT5940" data-name="Msida">
 </path>
 <path d="M828.3 581.3l-9.2 8.6-12.3 2.8-10-0.9-0.7-17.6 22.4 0.5 9.8 6.6z" id="MLT5941" name="Ta' Xbiex" data-id="MLT5941" data-name="Ta' Xbiex">
 </path>
 <path d="M814.3 603.4l-13.6 7.6-11.2-1.4 6.6-8.1 0.7-9.7 10 0.9 12.3-2.8-4.8 13.5z" id="MLT5942" name="Pietà" data-id="MLT5942" data-name="Pietà">
 </path>
 <path d="M789.5 609.6l-15.5 6.2-4.2 8.3-13.8-2.9-9.3-4.7 5.2-21.2 5-2.9 21.3 6.2 11.3 11z" id="MLT5943" name="Santa Venera" data-id="MLT5943" data-name="Santa Venera">
 </path>
 <path d="M815.4 615.8l-11.7 7.3-5.4 20.9-15.4-0.9-13.1-19 4.2-8.3 15.5-6.2 11.2 1.4 13.6-7.6 5 7.2-3.9 5.2z" id="MLT5944" name="Ħamrun" data-id="MLT5944" data-name="Ħamrun">
 </path>
 <path d="M746.7 616.5l9.3 4.7 13.8 2.9 13.1 19-8.5 4.7-1.5 7.6-8.5 9.5-18.4 28.5-8.5 0-8.5-7.6-1.5-20.9-7.7-6.6-13.1-1.9-6.2-6.7-2.3-13.3 7.7-16.1 6.2-8.6 2.3-10.4 15.4 13.3 16.9 1.9z" id="MLT5945" name="Qormi" data-id="MLT5945" data-name="Qormi">
 </path>
 <path d="M729 685.8l-6.9 3.8-13.1-10.4-10.8-1.9-15.4 2.8-3.8 7.6-7.7 7.6-16.2 5.7-31.5-14.2-7.7-5.7-9.3 0.9-5.4-33.2-4.6-3.8 0.8-13.3 14.6-2.9 13.1 3.8 13.8 1.9 13.1-2.8 8.5-8.6 45.4-2.8-7.7 16.1 2.3 13.3 6.2 6.7 13.1 1.9 7.7 6.6 1.5 20.9z" id="MLT5946" name="Żebbuġ" data-id="MLT5946" data-name="Żebbuġ">
 </path>
 <path d="M560.4 693.4l-1.5 10.5-10.8 19-9.2 8.5-3 28.6-19.9-11-43.5-68.9 14-8.5 18.5 0.9 26.9-3.8 13.9 0 6.2 6.7 1.5 8.5 6.9 9.5z" id="MLT5947" name="Dingli" data-id="MLT5947" data-name="Dingli">
 </path>
 <path d="M729 685.8l8.5 7.6 8.5 0 1.5 12.4-12.3 10.4-9.3 10.5-10.7 1.9-2.3 6.6-7.7 3.8-3.1 9.5-6.2 12.4-16.9 4.7-9.3 8.6 2.4 9.5-2.4 5.7-11.5 0-10 6.6-9.1 18.4-11.3-3.5-91.9-50.9 3-28.6 9.2-8.5 10.8-19 1.5-10.5 20.8 3.8 16.2-2.8 9.2-12.4 9.3-0.9 7.7 5.7 31.5 14.2 16.2-5.7 7.7-7.6 3.8-7.6 15.4-2.8 10.8 1.9 13.1 10.4 6.9-3.8z" id="MLT5948" name="Siġġiewi" data-id="MLT5948" data-name="Siġġiewi">
 </path>
 <path d="M889.1 572.1l-14.2 12.2-10.6 10-12.1 7-23.9-20 14.7-11.4 17.5-6.8 14 2.8 14.6 6.2z" id="MLT5949" name="Valletta" data-id="MLT5949" data-name="Valletta">
 </path>
 <path d="M949.2 597.8l-17.7 13-3.1 10.4-17.7 0-10 3.8-0.9-23.7-11-4.8-13.9-12.2 14.2-12.2 60.1 25.7z" id="MLT5950" name="Kalkara" data-id="MLT5950" data-name="Kalkara">
 </path>
 <path d="M900.7 625l-21.1-17.8-15.3-12.9 10.6-10 13.9 12.2 11 4.8 0.9 23.7z" id="MLT5951" name="Birgu" data-id="MLT5951" data-name="Birgu">
 </path>
 <path d="M970.4 632.4l-20.4 8.8-12.4-5.7-9.2-14.3 3.1-10.4 17.7-13 21.2 34.6z" id="MLT5952" name="Xgħajra" data-id="MLT5952" data-name="Xgħajra">
 </path>
 <path d="M879.6 607.2l-19.7 21.6-13.9-16.1 6.2-11.4 12.1-7 15.3 12.9z" id="MLT5953" name="Senglea" data-id="MLT5953" data-name="Senglea">
 </path>
 <path d="M852.2 601.3l-6.2 11.4-20 18-5.4-11.4-5.2-3.5 3.9-5.2-5-7.2 4.8-13.5 9.2-8.6 23.9 20z" id="MLT5954" name="Floriana" data-id="MLT5954" data-name="Floriana">
 </path>
 <path d="M900.7 625l-6.2 12.4-0.7 10.4-24.7 1.9-9.2 0-7.7-6.6 7.7-14.3 19.7-21.6 21.1 17.8z" id="MLT5955" name="Cospicua" data-id="MLT5955" data-name="Cospicua">
 </path>
 <path d="M970.4 632.4l12.3 20-22 13.5-3 9.5-7 8.5-7.7 1-6.9 6.6-20.8-1.9-7.7-8.5-11.5-1-6.2-3.8 3.1-10.4 4.6-7.6 2.3-7.6-6.1-2.9 0.7-10.4 6.2-12.4 10-3.8 17.7 0 9.2 14.3 12.4 5.7 20.4-8.8z" id="MLT5956" name="Żabbar" data-id="MLT5956" data-name="Żabbar">
 </path>
 <path d="M826 630.7l-0.8 20-6.9 19.9-11.5 14.3-10 0-10.8-8.6-8.5-1.9 0-8.5-4.6-10.5 1.5-7.6 8.5-4.7 15.4 0.9 5.4-20.9 11.7-7.3 5.2 3.5 5.4 11.4z" id="MLT5957" name="Marsa" data-id="MLT5957" data-name="Marsa">
 </path>
 <path d="M859.9 628.8l-7.7 14.3 7.7 6.6-13.9 15.2-9.2 9.5-3.9 10.5-22.3 14.2-3.8-14.2 11.5-14.3 6.9-19.9 0.8-20 20-18 13.9 16.1z" id="MLT5958" name="Paola" data-id="MLT5958" data-name="Paola">
 </path>
 <path d="M889.9 676.3l-15.4 4.8-2.3 8.5-5.4 3.8-3.8-9.5 2.3-7.6-7-7.6-12.3-3.8 13.9-15.2 9.2 0 24.7-1.9 6.1 2.9-2.3 7.6-4.6 7.6-3.1 10.4z" id="MLT5959" name="Fgura" data-id="MLT5959" data-name="Fgura">
 </path>
 <path d="M866.8 693.4l-10 6.7-3.8 4.7-3.1 5.7-30.8-5.7-8.5-5.7 22.3-14.2 3.9-10.5 9.2-9.5 12.3 3.8 7 7.6-2.3 7.6 3.8 9.5z" id="MLT5960" name="Tarxien" data-id="MLT5960" data-name="Tarxien">
 </path>
 <path d="M936.1 691.5l8.5 17.1 3.8 10.5-3.1 7.6 0.8 6.6 3.9 6.7-8.5 9.5-15.4-8.6-15.4-1.9-6.2 5.7-16.1-0.9-12.3-20.9-10.8-14.3-12.3-3.8 3.8-4.7 10-6.7 5.4-3.8 2.3-8.5 15.4-4.8 6.2 3.8 11.5 1 7.7 8.5 20.8 1.9z" id="MLT5961" name="Żejtun" data-id="MLT5961" data-name="Żejtun">
 </path>
 <path d="M995.5 753.1l-17.1-4.6-14.6-1.9-13.8-6.6-3.9-6.7-0.8-6.6 3.1-7.6-3.8-10.5-8.5-17.1 6.9-6.6 7.7-1 7-8.5 3-9.5 22-13.5 5.9 9.7 10.4 78.4-3.5 12.6z" id="MLT5962" name="Marsaskala" data-id="MLT5962" data-name="Marsaskala">
 </path>
 <path d="M950 740l13.8 6.6 14.6 1.9 17.1 4.6-10.5 38.1-35.8-19.9-20.2 22.5-6.8-15.8-12.3-14.3-10.8-4.7-9.2 0-1.5-15.2 16.1 0.9 6.2-5.7 15.4 1.9 15.4 8.6 8.5-9.5z" id="MLT5963" name="Marsaxlokk" data-id="MLT5963" data-name="Marsaxlokk">
 </path>
 <path d="M806.8 684.9l3.8 14.2-0.8 24.7 4.7 12.4 0.7 19 17.7 14.2 8.5 10.5 6.2 11.4-12.3 1.9-14.7-14.3-9.2-12.3-12.3-6.7-2.3-11.4-5.4-2.8-7.7-10.5-7-3.8-9.2 6.7-13.8-3.8-10.1-5.7-11.5 8.5-9.2 3.8-10-5.7 2.3-6.6 10.7-1.9 9.3-10.5 12.3-10.4-1.5-12.4 18.4-28.5 8.5-9.5 4.6 10.5 0 8.5 8.5 1.9 10.8 8.6 10 0z" id="MLT5964" name="Luqa" data-id="MLT5964" data-name="Luqa">
 </path>
 <path d="M849.9 710.5l1.5 10.5-1.5 4.7-40.1-1.9 0.8-24.7 8.5 5.7 30.8 5.7z" id="MLT5965" name="Santa Luċija" data-id="MLT5965" data-name="Santa Luċija">
 </path>
 <path d="M849.9 725.7l-1.6 10.5-5.3 3.8-3.1 7.6-0.8 16.1-6.2 5.7-17.7-14.2-0.7-19-4.7-12.4 40.1 1.9z" id="MLT5966" name="Gudja" data-id="MLT5966" data-name="Gudja">
 </path>
 <path d="M888.4 743.8l1.5 15.2-3.8 9.5-19.3 5.7-2.3 8.5-6.2 7.6-10.7 1-6.2-11.4-8.5-10.5 6.2-5.7 0.8-16.1 3.1-7.6 5.3-3.8 1.6-10.5 1.5-4.7-1.5-10.5 3.1-5.7 12.3 3.8 10.8 14.3 12.3 20.9z" id="MLT5967" name="Għaxaq" data-id="MLT5967" data-name="Għaxaq">
 </path>
 <path d="M929 793.8l-20.2 22.6-12.9 27 0 39.6-41.7-16.8-11.5-7.1-24.6-2.4 7.1-13.2-5.3-12.3 1.5-7.6 6.9 0 14.7 4.7 11.5-1.9 2.3-5.7-9.2-29.4 10.7-1 6.2-7.6 2.3-8.5 19.3-5.7 3.8-9.5 9.2 0 10.8 4.7 12.3 14.3 6.8 15.8z" id="MLT5968" name="Birżebbuġa" data-id="MLT5968" data-name="Birżebbuġa">
 </path>
 <path d="M767.5 738.1l3.9 8.5-3.9 5.7-4.6 11.4-24.6 1.9-15.4 2.9-12.4-4.8-14.6-2.8 6.2-12.4 3.1-9.5 7.7-3.8 10 5.7 9.2-3.8 11.5-8.5 10.1 5.7 13.8 3.8z" id="MLT5969" name="Mqabba" data-id="MLT5969" data-name="Mqabba">
 </path>
 <path d="M799.1 759.9l-17.7 17.1-7-8.5-11.5-4.8 4.6-11.4 3.9-5.7-3.9-8.5 9.2-6.7 7 3.8 7.7 10.5 5.4 2.8 2.3 11.4z" id="MLT5970" name="Kirkop" data-id="MLT5970" data-name="Kirkop">
 </path>
 <path d="M835.3 793.2l-9.3 8.5-16.2-7.6-10 6.7-11.5 5.7-8.5-2.9-8.4-8.5-0.8-6.7 10.8-11.4 17.7-17.1 12.3 6.7 9.2 12.3 14.7 14.3z" id="MLT5971" name="Safi" data-id="MLT5971" data-name="Safi">
 </path>
 <path d="M738.3 765.6l3 9.5-7.7 3.8-0.7 6.7 5.4 4.7-13.9 12.4-15.4 18-5.5 14-64.4-20.3 9.1-18.4 10-6.6 11.5 0 2.4-5.7-2.4-9.5 9.3-8.6 16.9-4.7 14.6 2.8 12.4 4.8 15.4-2.9z" id="MLT5972" name="Qrendi" data-id="MLT5972" data-name="Qrendi">
 </path>
 <path d="M781.4 777l-10.8 11.4 0.8 6.7 8.4 8.5 8.5 2.9 11.5-5.7 10-6.7 16.2 7.6 9.3-8.5 12.3-1.9 9.2 29.4-2.3 5.7-11.5 1.9-14.7-4.7-6.9 0-1.5 7.6 5.3 12.3-7.1 13.2-64.9-6.5-49.7-15.5 5.5-14 15.4-18 13.9-12.4-5.4-4.7 0.7-6.7 7.7-3.8-3-9.5 24.6-1.9 11.5 4.8 7 8.5z" id="MLT5973" name="Żurrieq" data-id="MLT5973" data-name="Żurrieq">
 </path>
 <path d="M74.3 77.3l-4.3 14.4-8.6 8.4 0 12.2-17.2 18.3-14 19.1-25.8-16.8 8-34.7-9.5-35.1-1.9-27.2 20.4 17 27.7 12.2 11.1-4.6 4.9 11.4 9.2 5.4z" id="MLT5974" name="Saint Lawrence" data-id="MLT5974" data-name="Saint Lawrence">
 </path>
 <path d="M92.8 78.8l-18.5-1.5-9.2-5.4-4.9-11.4-11.1 4.6-27.7-12.2-20.4-17 30.9-10.8 45.4-6.9-1.1 12.6 9.2 11.4 5.6 15.2 1.8 21.4z" id="MLT5975" name="Għarb" data-id="MLT5975" data-name="Għarb">
 </path>
 <path d="M146.4 85.6l-13-0.7-11.7 1.5-3.7 4.6-17.2-3.1-8-9.1-1.8-21.4-5.6-15.2-9.2-11.4 1.1-12.6 53.6-8.1-7.9 13.1-0.6 19.8 2.4 16.7 5.6 2.3 8.6-3 6.1 8.4 1.3 18.2z" id="MLT5976" name="Għasri" data-id="MLT5976" data-name="Għasri">
 </path>
 <path d="M231 15.8l-10.7 10.4 1.8 19.1-2.4 6.1-15.4 0.7-12.4 6.1-9.2 10.7-1.2 10.6 3.7 10.7-3.1 6.1-6.8 0.8-14.1 0-14.8-11.5-1.3-18.2-6.1-8.4-8.6 3-5.6-2.3-2.4-16.7 0.6-19.8 7.9-13.1 60-9.1 40.1 14.8z" id="MLT5977" name="Żebbuġ" data-id="MLT5977" data-name="Żebbuġ">
 </path>
 <path d="M275.5 36.8l-7.8 22.2 0 35.8-8 3.8-1.9 14.5-3.7 9.1-0.6 14.5-14.1-10.7-9.9-4.6-26.5 5.4-16-3.1 1.2-8.4-12.9-18.2 6.8-0.8 3.1-6.1-3.7-10.7 1.2-10.6 9.2-10.7 12.4-6.1 15.4-0.7 2.4-6.1-1.8-19.1 10.7-10.4 27.5 10.1 17 10.9z" id="MLT5978" name="Xagħra" data-id="MLT5978" data-name="Xagħra">
 </path>
 <path d="M357 95.5l-21.6 14.5-9.2 2.3-1.9 7.6-0.6 15.3-6.1 8.3-21.6 3.1-20.3 0-11.1-2.3-11.1-7.6 0.6-14.5 3.7-9.1 1.9-14.5 8-3.8 0-35.8 7.8-22.2 66.8 43.1 14.7 15.6z" id="MLT5979" name="Nadur" data-id="MLT5979" data-name="Nadur">
 </path>
 <path d="M304.2 163.9l-2-9.7-6.2-7.6 21.6-3.1 6.1-8.3 0.6-15.3 1.9-7.6 9.2-2.3 21.6-14.5 36 38.2-31.8 23.2-45.7 1.8-11.3 5.2z" id="MLT5980" name="Qala" data-id="MLT5980" data-name="Qala">
 </path>
 <path d="M92.8 78.8l8 9.1 17.2 3.1 7.4 9.9 3.7 11.4 6.8 3.8 0.6 6.1-0.6 19.8-12.9-3.8-10.5-1.5-9.8 4.5-16.7 11.5-17.2 17.2-22.1-9.5-16.5-10.7 14-19.1 17.2-18.3 0-12.2 8.6-8.4 4.3-14.4 18.5 1.5z" id="MLT5981" name="Kerċem" data-id="MLT5981" data-name="Kerċem">
 </path>
 <path d="M146.4 85.6l14.8 11.5 14.1 0 12.9 18.2-1.2 8.4-2.4 16-17.9 0-6.8 6.1-0.6-10.6-9.2-5.4-5-7.6-8.6 0-0.6-6.1-6.8-3.8-3.7-11.4-7.4-9.9 3.7-4.6 11.7-1.5 13 0.7z" id="MLT5982" name="Victoria" data-id="MLT5982" data-name="Victoria">
 </path>
 <path d="M159.9 145.8l-9.2 6.9-9.9-3.1-4.9-7.6 0.6-19.8 8.6 0 5 7.6 9.2 5.4 0.6 10.6z" id="MLT5983" name="Fontana, Gozo" data-id="MLT5983" data-name="Fontana, Gozo">
 </path>
 <path d="M135.9 142l4.9 7.6 9.9 3.1-1.9 6.1-6.7 12.1-10.5 12.2-2.1 8.1-31.5-8.7-29.2-12.6 17.2-17.2 16.7-11.5 9.8-4.5 10.5 1.5 12.9 3.8z" id="MLT5984" name="Munxar" data-id="MLT5984" data-name="Munxar">
 </path>
 <path d="M230.1 182.4l5.2 10.6-35.5 7.9-48.2-3.7-22.1-6 2.1-8.1 10.5-12.2 6.7-12.1 9.3 2.2 19.7 0 11.7 3.1 8.6 8.4 12.3 3.8 11.7 6.8 8-0.7z" id="MLT5985" name="Sannat" data-id="MLT5985" data-name="Sannat">
 </path>
 <path d="M253.5 136.7l-4.9 10.6-5.5 6.1-1.3 14.5-10.4 10.7-1.3 3.8-8 0.7-11.7-6.8-12.3-3.8-8.6-8.4-11.7-3.1-19.7 0-9.3-2.2 1.9-6.1 9.2-6.9 6.8-6.1 17.9 0 2.4-16 16 3.1 26.5-5.4 9.9 4.6 14.1 10.7z" id="MLT5986" name="Xewkija" data-id="MLT5986" data-name="Xewkija">
 </path>
 <path d="M403.1 229.7l-26.4 4-8.7-0.5 3.1-9.4-6.9-17-3.6-17.2 9.5-6.8 18.4 0.8 28.8 10.6 18.2 19.5-32.4 16z m-167.8-36.7l-5.2-10.6 1.3-3.8 10.4-10.7 1.3-14.5 5.5-6.1 4.9-10.6 11.1 7.6 11.1 2.3 20.3 0 6.2 7.6 2 9.7-58.6 26.8-10.3 2.3z" id="MLT5987" name="Għajnsielem" data-id="MLT5987" data-name="Għajnsielem">
 </path>
 <circle cx="565.5" cy="410.5" id="0">
 </circle>
 <circle cx="658.8" cy="708.6" id="1">
 </circle>
 <circle cx="194.7" cy="138.8" id="2">
 </circle>
</svg>