<?xml version="1.0"?>
<!--
************* Copyright (c) 2017 Pareto Softare, LLC DBA Simplemaps.com *******************		
************* Free for Commercial Use, full terms at  http://simplemaps.com/resources/svg-license ************
************* Attribution is appreciated! http://simplemaps.com ***************************
-->
<svg baseprofile="tiny" fill="#7c7c7c" height="1519" stroke="#ffffff" stroke-linecap="round" stroke-linejoin="round" stroke-width="2" version="1.2" viewbox="0 0 1000 1519" width="1000" xmlns="http://www.w3.org/2000/svg">
 <path d="M7.4 10.1l0.1 2.9-3-3.5-2.7-4.3-0.7-1.9-0.1-1.4 0.5-0.7 1.1-0.2 1.1 3.3 3.7 5.8z" id="MUS5180" name="Agaléga" data-id="MUS5180" data-name="Agaléga">
 </path>
 <path d="M140 1476.9l-5.4 1.2-0.2-2 0.6-3.7 3.3 0 1.7 4.5z" id="MUS5181" name="Beau Bassin-Rose Hill" data-id="MUS5181" data-name="Beau Bassin-Rose Hill">
 </path>
 <g>
 </g>
 <path d="M138.3 1488.2l6.5-3.9 3.2 2.7 0.5 1.8-7.3 3.1-2.9-3.7z" id="MUS5183" name="Curepipe" data-id="MUS5183" data-name="Curepipe">
 </path>
 <path d="M180.6 1485.5l-3.1-0.3-4.2 3.3-5.5 0.5-3 0.1 1.6-5.7-7.1-5.9 4.6-4.6-4.9-3.8-2.9-1.3 0.1-0.6 0.2-1.4 2.4-1.6 0.7-1.5 14.7-9 1.6 1.3 0.4 1-0.5 4.9 1.1 1.6 1.5 1.2 1.4 4.4 2.7 3.3 0.7 1.6-0.3 3.7-0.7 4.1-1.5 4.7z" id="MUS5184" name="Flacq" data-id="MUS5184" data-name="Flacq">
 </path>
 <path d="M180.6 1485.5l-0.4 2.4 0.8 2.3-3.5 1.2-3.9 3.1-2.5 3.6 1.1 2.6 0.1 1 0.8 1.4 0.1 0.8-0.5 1.4-0.8 0.3-0.9-0.1-0.8 0.5-1.9 3.5-1.1 1.5-1.8 1.2-5.9 1.9-0.3-1.7-0.5-3.4-1.8-5.1-2.7-3-2.9-0.6-4 0.1 7.7-9 4.9 0.2 3.3-1 1.6-1.5 3-0.1 5.5-0.5 4.2-3.3 3.1 0.3z" id="MUS5185" name="Grand Port" data-id="MUS5185" data-name="Grand Port">
 </path>
 <path d="M147.4 1469.8l1.3 0.5 2.5-1 2.9-2 2.1-0.1-0.1 0.6 2.9 1.3 4.9 3.8-4.6 4.6 7.1 5.9-1.6 5.7-1.6 1.5-3.3 1-4.9-0.2-3.1-2.1-1.4-2.6 0.7-2-2.5-3.3-1.4-2-2.8-0.3-3.3-3.1-2-5.1-0.5-2.8 2.8-1 1.8 0.9 2.9 1.4 1.2 0.4z" id="MUS5186" name="Moka" data-id="MUS5186" data-name="Moka">
 </path>
 <path d="M159.5 1462.7l-0.7 1.5-2.4 1.6-0.2 1.4-2.1 0.1-2.9 2-2.5 1-1.3-0.5 0.5-4-0.4-6.2-1.1-2-2.6 0.7-3.2-0.5-0.8-0.1 0.1-2.9 2.2-4 1.8-5.5 1.5-2.5 3.9-3.2 1-0.5 1.9-0.1 4.3 5.2 0.4 2-1 2.1 4.2 4.3-2.3 2.7 1.7 7.4z" id="MUS5187" name="Pamplemousses" data-id="MUS5187" data-name="Pamplemousses">
 </path>
 <path d="M138.7 1468.1l0.5 2.8 2 5.1 3.3 3.1 2.8 0.3 1.4 2 2.5 3.3-0.7 2 1.4 2.6 3.1 2.1-7.7 9-1.5 0.4-1.3-1-2.1-0.3-0.3 1.3-0.9 3.1-2.3-0.3 0.1-2.3-1.4-0.9-2.7-0.6-1.3-1.7 1.4-1.1-0.9-2.5-0.8-3.1 0.9-1 2 0 0.7-1-0.3-0.2 1.7-1 2.9 3.7 7.3-3.1-0.5-1.8-3.2-2.7-2.5-3.1-2.3-4.3-1.7-4.5-3.3 0 0.3-2.4 1.3-2.2 2.1 0.3z" id="MUS5188" name="Plaines Wilhems" data-id="MUS5188" data-name="Plaines Wilhems">
 </path>
 <path d="M147.4 1469.8l-1.2-0.4-2.9-1.4-1.8-0.9-2.8 1-2.1-0.3-0.8-3.2 1.7-0.3 2 0.4 1.4 0.5 1.2-0.8 0.4-1.4 1.4-1.3-0.4-2.1-0.9-0.2-1 0.8-0.9-1-0.1-1.4 3.2 0.5 2.6-0.7 1.1 2 0.4 6.2-0.5 4z" id="MUS5189" name="Port Louis" data-id="MUS5189" data-name="Port Louis">
 </path>
 <path d="M140.6 1457.8l0.1 1.4 0.9 1 1-0.8 0.9 0.2 0.4 2.1-1.4 1.3-0.4 1.4-1.2 0.8-1.4-0.5-2-0.4-1.7 0.3-0.2-1 1.4-0.6 2.4-2.5 0.4-2.8 0.8 0.1z" id="MUS5190" name="Port Louis city" data-id="MUS5190" data-name="Port Louis city">
 </path>
 <path d="M142.3 1481.2l-7.4 2.2-0.3-5.3 5.4-1.2 2.3 4.3z" id="MUS5191" name="Quatre Bornes" data-id="MUS5191" data-name="Quatre Bornes">
 </path>
 <path d="M174.2 1453.7l-14.7 9-1.7-7.4 2.3-2.7-4.2-4.3 1-2.1-0.4-2-4.3-5.2 0.9-0.5 0.6-1.1 0.9-1 1.5-0.5 2.2 0.3 6.4 1.9 1.8 0.9 0.7 1.7-0.8 2.6 0.5 1.5 1.1 1.4 1 2.6 1.3 2.2 0.3 1.7 0.8 1 0.5 0.1 1.7-0.3 0.6 0.2z" id="MUS5192" name="Rivière du Rempart" data-id="MUS5192" data-name="Rivière du Rempart">
 </path>
 <path d="M135.8 1464.6l0.8 3.2-1.3 2.2-0.3 2.4-0.6 3.7 0.2 2 0.3 5.3 0.1 2.1 0.5 2.6 1.1 1.1 0.3 0.2-0.7 1-2 0-0.9 1 0.8 3.1 0.9 2.5-1.4 1.1 1.3 1.7 2.7 0.6 1.4 0.9-0.1 2.3-1.7-1-3.1 1-2.9 1.1-3.4 2.6-2.6 0.9 0 3.1 1.5 1.5-0.4 2.2-3 1.4-8.3-7.4-1.8-2.2-0.6-2 2.3-0.9 3.5 0.7 2-0.4 0.8-1.9 0.8-4.3-0.2-1.6-1.6-0.9 1.2-3.7 0.1-8.4 0.7-4.6 1-2.7 3.2-6.5 1.5-1.7 3.2-2.7 1.4-0.7 3.1-0.9 0.2 1z" id="MUS5193" name="Rivière Noire" data-id="MUS5193" data-name="Rivière Noire">
 </path>
 <path d="M983.5 1401.8l-2.8 1.7-4.1-4.3-0.7-0.3 0.4-2.9 1.1-1.2 1.7-0.8 4.9-3 4.6-1.6 4.7-0.7 3.2 1.2 2.5 0.7-0.6 2.9-2.9 3.3-4.4 1.5-3.2 0.6-2.3 1.2-2.1 1.7z" id="MUS5194" name="Rodrigues" data-id="MUS5194" data-name="Rodrigues">
 </path>
 <path d="M147.3 1500.4l4-0.1 2.9 0.6 2.7 3 1.8 5.1 0.5 3.4 0.3 1.7-6.1 2-12.2 1.9-4.2-0.3-6.7-2.2-4-0.5 0.4-2.2-1.5-1.5 0-3.1 2.6-0.9 3.4-2.6 2.9-1.1 3.1-1 1.7 1 2.3 0.3 0.9-3.1 0.3-1.3 2.1 0.3 1.3 1 1.5-0.4z" id="MUS5195" name="Savanne" data-id="MUS5195" data-name="Savanne">
 </path>
 <path d="M144.8 1484.3l-6.5 3.9-1.7 1-1.1-1.1-0.5-2.6-0.1-2.1 7.4-2.2 2.5 3.1z" id="MUS5196" name="Vacoas-Phoenix" data-id="MUS5196" data-name="Vacoas-Phoenix">
 </path>
 <circle cx="142.4" cy="1483.3" id="0">
 </circle>
 <circle cx="122.6" cy="1487.9" id="1">
 </circle>
 <circle cx="169.4" cy="1501.3" id="2">
 </circle>
</svg>