<?xml version="1.0"?>
<!--
************* Copyright (c) 2017 Pareto Softare, LLC DBA Simplemaps.com *******************		
************* Free for Commercial Use, full terms at  http://simplemaps.com/resources/svg-license ************
************* Attribution is appreciated! http://simplemaps.com ***************************
-->
<svg baseprofile="tiny" fill="#7c7c7c" height="334" stroke="#ffffff" stroke-linecap="round" stroke-linejoin="round" stroke-width="2" version="1.2" viewbox="0 0 1000 334" width="1000" xmlns="http://www.w3.org/2000/svg">
 <path d="M2.3 26.8l-0.5 0.5-0.8-1.3 0.2-0.1 1.1 0.9z" id="NCL99" name="" data-id="NCL99" data-name="">
 </path>
 <path d="M981.5 191l-0.5 2.1 0.5 1.8 1.2 2 1.4 1.7 1 0.9 3.2 0.7 3.6-0.4 3.5-1.2 2.9-1.4 0.7 2.3 0 3.9-0.8 4.2-1.3 3.1 0.6 5-0.3 2.3-1.3 0.9-1.2 0.3-3.8 1.1-2.9 1.6-4.4-0.3-3.5-1.8 0.2-3.1-2.1-1-2.7-0.6-2.7-0.1-2.3 1-0.7-1.6 1.1-0.7 1.3-1.1 0.9-1.5 0.3-1.9-0.6-0.9-2.3-2.5-0.7-1.1-0.6-1.9-0.3-3-0.4-1.8-0.8-1.8-2.8-4.2 1.5-0.8 1.3-0.3 1.3 0.1 1.5 0.2 2.6 1.3 1.6 0.4 1.8-1.6 6.6-4.6 0.3 1.4-1.9 2.9z m-153.6-71.3l-0.5 0.9-1 0.5-2.6 0.8-1.1-1-1.7-0.5 0.8-0.5 0.8-0.3 2.7 0 2.6 0.1z m85.5-0.8l0.7 2-0.8 1.8-1.2 1.9-0.7 2.1 0.1 1.3 0.6 2.8 1.3 3-0.3 1.3-1.4 2.2-0.3 1.3 0.3 0.8 1.9 0.8 0.9 0.6 2 1.6 2.6 1 2.1 0.1 0.8 0.3 0.5 1.2 1 1.6 0.5 0.5-1.2 1.9-0.3 1.1 0 0.9 0.9 1.2 1.1 0.4 1.1 0.2 1.1 0.3 1.3 1 1.5 1.6 0.5 1.3-3.3 1.3-0.7 1.5 0 4.2-0.2 2.2-0.6 1.4-1.1 0.9-1.6 1.1-1.7-0.8-2.3 0-2-0.8-0.9-3.3-0.8-0.5-1.6-0.2-1.7-0.4-0.8-1.1-0.1-1.8-0.6-0.6-9.3-1-3-1-2.7-2.3-2.4-2.7-0.4-1.7-0.4-0.9-2.1-0.8-0.6-1.1 0-1.4 0.7-1.5-4.1-3.7-0.7-1.5 6.2 0.5 2.1-0.5 1.9-1.1 1.2-1.2 1.8-3 3-3.6 1-2.1-0.5-2.4-1.3-0.8-5.4-2.3-7.6 0.9-0.2-1 0.4-2.4 1.2-2.3 2.1-1 3.4-0.6 0.7 0.2 0.7 0.6 0.8 0.4 2 0.1 1-0.3 0.8-0.8 0.5-1.1 0.2-1.1 3.4-1.1 7.7 4.3 1.3 0.1z m-68.8-33.9l0.7 1.4 0.7 1.3 1.1 0.8 2.6 1.4 0.5 0.7-0.5 1.2-1.1 0.5-3-0.2-1.2 0.4-1 0.8-0.6 1.1-0.2 1.1-0.3 0.3-1.5 4.1-0.7 1.3 0 1.6 0.3 3.1 0.6 0.7 1.3 0.1 3-0.5-3.9 7.5-1.7 2.2-1.6 1.1-2.2 1-2.4 0.8-2 0.1-1.5-1.5 1.6-0.6 1.4-1.1 2.6-2.7 1.6-2.3 0.8-1.4 0.3-1.9-0.2-6.7 0.6-1.5 1.2-1.5 1.2-2.2 1-2.2 0.5-2-0.4-2.1-2-2.7-0.9-0.9-1 0.5 0.3-0.9 1.1-1.1 1.5-0.7 1.4-0.2 1.3 0.6 0.7 1.2z" id="NCL1258" name="Îles Loyauté" data-id="NCL1258" data-name="Îles Loyauté">
 </path>
 <path d="M938.1 325l1.1 1.6 0 2.9-1.2-1-1.3-2.7-1-0.2-0.5 0.9 0.1 1.4 0.4 2.7-1.4 2.4-3.1-0.4-5.8-2.4 0.5-2.7 0-6.5 0.8-2.1 1.8-0.5 2.8 0.6 2.7 1.3 1.7 1.6 1.1 1.9 1.3 1.2z m-71.1-19.1l-0.3 0.8-0.5 0-0.7-0.7-1.4 1.1-1.4 0.5 0 0.7 2 0.3-0.2 0.8-1.1 0.7-0.7 0.1-2.2-0.6-0.9-0.8 0.7-1.6 0.7-1.3 0.5-1.9 1.2-0.9 1.3-0.4 1.1 0 0.9 0.7 0.9 1.2 0.1 1.3z m-77.3-98.6l1.6-0.8 1.9 0 1.6 1 5.3 4.7 2 0.7 0.4 0.4 1 1.9 3.6 2.4 3.8 1.8 8 2.6 0 0.7-2.8 0 0 0.7 0.7 0.5 0.4 1.3 0.3 0.5 0.7 0.3 1.4 0.2 3.5 0.9 1.4 0.7 1.2 2.1 3.9 3 0.5 0.7 0.3 2 0.7 1 0.6 0.4 1.8 0.8-0.8 0.6 2.3 2.1 4.5 5.1 2 1.1 1.8 1.4 2.7 2.8 2.5 1.8 1-1.6 3.5 2.5 1.3 0.5 0 0.8-1.6 1-1.8 0.5 0 0.8 0.8 0.4 3-0.4 1.3 0.3 1.9 0.8 0.6-0.4 0.7 2 1.1 1 1.7 0.5 2.1 0.3 5.9 1.5 1.5 0.8 5.1 4.1 1 1.3 1.1 2.1 0.2 0.9-0.2 2.8-1.1 1.4 0 0.7 1.5 0.2 0.9 0.5 0.8 1.1 1.4 2.2 3.6 2.9 0.5 1.2-0.2 1-1.4 0.2-0.5 0.7 0.3 0.7 1.1 1.7-0.7 1.7-0.7 2.6-0.8 1.5-1.2 1.6-0.5-1-1.1 0.8-1.7 0.9 0.5 1.5-3.2 2.7-1.9 0.7-2.5-0.4 2.1-0.7 0.8-0.6 0.6-1-1.6 0.1-0.7 0.2-0.8-0.9-0.5-1.5-0.9-1.5-0.4-0.5-0.3-1.2-0.7 0.8-0.6 1.5-0.2 0.8-0.8-0.5-1-2.2-0.6-1.1 1.4-0.6-1-1.4-0.9 0.3-0.6 1.5-0.4 3.2-0.2 1.1 0.3 1.2 2.1 1.5-1.1 0.3-3.1-0.7-0.2 0.6-1.5 1.1-0.7 0.2-2.6-0.5-1.3-1.4 0.1-1.5 2-1.1 0-0.7-1.8 0.2-2.3-0.2-1.4-1 0.6-2.1-0.6-0.6-1.6 0.5-2.3-0.9-2.1-1.6-1-1.5-0.4-0.2-2.3 1-1.1 0.3-0.8-0.2-2.6-1.1-0.8-0.5-0.4-1.1 1.2-1.3-1.2-1.1-0.9-0.3-3-0.5-1 0.1-1.1 1.7-0.7 2.4-1 1.7-2-0.5-0.1 0.6-0.5 0.1 0.7 2.1-1 0.5-1.3-0.5-0.2-0.9 0.3-1 0.1-2.8 0.7-1.1 0-0.8-1.5 0.1-1.3-0.3-1.2-0.8-0.9-1.3 3.3 0.1 1.4-0.4 0.9-1.1-1.9-0.1-0.6-1 0.4-3.5-1 0.1-2.2-0.4-1 0.3-0.3 0.7-0.5 2-0.2 0.4-1.3 0.2-0.5 0.5-0.3 0.9-0.7 1-0.9 0.4-0.5-0.7 0.1-1.2 0.9-1.1-1-0.7-2.5-2.4 0-0.7 1-0.7 0.3-1.6-0.6 0-1 1.1-2.6-0.6 0.1 1-1.9 0.8-1.7-0.6-1.6-0.9-1.8 0 0-2.1-1-1.7-1.3-1.1-1.5-0.4-1.2-0.7-1.2-1.2-1.2-0.2-1.6 2.1-2.1-1.5 0.7-1.1 0.1-1.9 0.6 0 0.8 1 1.2 0.4 0.8-0.4 0-1.7-0.6-1.1-2-0.9-0.8-1.1 2.7 0.1 1.2 0.2 0.9 0.5-0.1-1.2-0.4-0.7-0.8-0.3-1.1-0.1-0.5-0.6 0.1-1.5 0.4-1.3 0.3-0.3-0.8-2.4-1.3-1.1-3.5-1.1-1.2 0.8-0.7-0.3 0.2-0.9 1.1-1.1-1.1-0.5-0.7-0.8-0.4-1.1 0-1.3-1.5 1-0.6 1.1 0.1 2.8-0.5 0.6-1.1 0-1.9-0.3 0.4 0.6-0.1 1.3-0.6 0.9-1.4-0.9-1.5-2-0.9-1-3.2-1.2-2.1-3.6-2.9-1.5-1.3-1.1-0.6-0.3-1.1 0.5-0.6 0.2-3-0.1-1-0.6-0.2-1.6 2.1 0.9-0.6-1.1-2.9-2.8 0-0.8 0.4-1 0.2-0.8-1-0.4-1 0.3-0.4 0.6 0 1 0.4 1.1-1.7-0.5-0.4-1.3 0.2-1.6-0.3-1.8-0.8-1.1-1.1-0.9-0.8-1.3 0-2-0.7 0-0.9 1.7-1 1.4-1.3 1-1.7 0.4 0.1-2.2-0.1-1.3-0.8-0.5-1.9 0.2-0.2 1.3-1.1 0.2-13.6-6.8-3.1-2.9 1.2-2.3 0-0.8-1.4 0.6-0.9-0.3 0.2-0.6 1.4-0.4-1.6-1.2-1.6 0.4-1.7 1-1.7 0.5-1.8-0.3-10.7-4.8-1.4-1.1-0.8-1.5-0.9-3.5-0.3-0.6-1.9-0.3-1.3-0.6-2.8-2.2-2.5-0.4-0.3-0.7-1.7-1.9-3.7-6.7-0.2-1.1 0.3-1-0.6-0.6 0.5-0.7 1.9-1.3 1.6-0.8 2.6-2.1 2.6-1 6-0.4 1.9 0.3 1 1.2 3.3 1.1 2.1 0.8 2 1.4 0.2 1.1 1.3 4.8 4.5 2.2 1.9 0.1 0.7-0.4 2.4-1.6 1.2-0.5 0.8 0.1 2.1 1.7 0.7 0 2.1-0.7 0.8 0 1.1 0.8 0.9 2.3 0.9 1.3 2.5 1.4 0.7 0.5 2.1 2.1 2.5 1 1.6 1.5 2.9 0.1 1.8-1 3.6 1.6 2.3 0.1 3.2 2 2.5 2.1 1.6 0.8 2.6 2.4 2.2 0 1.3-0.7 1.8-0.4 1.1-0.1 1.4 0.9 1.5 0.8 1.9 0.5 3.3 0.2 1.6-0.5 0.8-2.3 0.9-1.6 1.3-0.8 1.6-1.4 0.8-2.4z" id="NCL1259" name="Sud" data-id="NCL1259" data-name="Sud">
 </path>
 <path d="M789.7 207.3l-0.8 2.4-1.6 1.4-1.3 0.8-0.9 1.6-0.8 2.3-1.6 0.5-3.3-0.2-1.9-0.5-1.5-0.8-1.4-0.9-1.1 0.1-1.8 0.4-1.3 0.7-2.2 0-2.6-2.4-1.6-0.8-2.5-2.1-3.2-2-2.3-0.1-3.6-1.6-1.8 1-2.9-0.1-1.6-1.5-2.5-1-2.1-2.1-0.7-0.5-2.5-1.4-0.9-1.3-0.9-2.3-1.1-0.8-0.8 0-2.1 0.7-0.7 0-2.1-1.7-0.8-0.1-1.2 0.5-2.4 1.6-0.7 0.4-1.9-0.1-4.5-2.2-1.3-4.8-0.2-1.1-2-1.4-2.1-0.8-3.3-1.1-1-1.2-1.9-0.3-6 0.4-2.6 1-2.6 2.1-1.6 0.8-1.9 1.3-0.5 0.7-1-0.2-1.5 0.6-0.3 1.6-0.9 0.5-0.9-0.5-0.5-1.6-1.5 1.2-0.9 0.2-1.2-0.6 1.9-2.1-0.2-1.9-1.6-0.9-2.2 0.4 0.8-1.6-0.4-1.1-2.4-1.8-1 1.5 0.4 2.3-0.8 1.4-1.1 0.7-1-0.2-0.8-0.8-0.6-1.2 0.4-0.9 0.1-0.9 0.3-1 0.6-0.9-0.8-0.9-1.5-0.4-0.9-0.5-0.5-0.7-0.7-1.3-7.5-9.1-0.5-1.5-0.2-2.4 0.1-1.7-0.1-1.9-0.8-1.1-2 0.6 0.1-1.4 0.7-0.8 0-0.8-0.7 0-1.5-0.7 0.6-0.8-0.1-0.5-0.7 0-1.2 0.6-0.2 1.2-1.1 0.2-1-0.8-0.4-1.7-0.6-0.1-1.3 0.2-0.8 0.6 0.6 1.1-1.3 1.5-1.9-5.1-1.3-2.1-1.7-1 2-1.5-0.9-0.9-2.1-0.9-1.8-1.3 1.6-0.1 0.9-0.7 0.1-1-0.5-1.1-1.3-0.7-1.3-0.2-0.9-0.4 0-1.7-0.6 0-1.6 1-1.6-0.7-2.4-2.5-1.1-0.3-2.1 0-1.1-0.5-0.4-0.6-1.3-2.4-2.2-0.4-1.9-1.2-4.4-4.6-3-2-1.4-1.5-1-1.7 0.7-0.1 1.5 0.3 1.6-0.6 0.8-1.7-0.7-1.4-1.4-1-1.8-0.4-1.5-1.1-2.3-5.1-1.8-1.2-3.1-7.5-0.6 0.4-1.5 0.4-1-2-6.4-4.2-1.6-2.4-1.2-4.4-0.2-1.5-0.5-1.8-1.2-0.8-1.3-0.6-1.1-1-0.4-2.2 1.1-0.2 2.7 0.9 1-1.1 0.4-1.8 0-3.4-1.4-2.1-1.3-1.4-1.1-0.6-4.8-0.2-1.2-0.5 0.7-1.5 0.1-1.4-0.7-0.7-1.4 0.6 0.4 1.1-0.6 1.2-1 1-0.9 0.4-1.5-0.4-0.8-2-0.8-0.5-1.5-1.1 0.3-2.1 1.9-1.5 3.1 0.9 0.9-1.2-0.4-1.3-1.9-2.6 1.2-0.5 0.7-1 0.2-1.4-0.7-1.5-1.5-1.2-1.2 0.2-1.3 0.7-1.6 0.3 0-0.8 0.8-0.9 0.6-1.3-1.5-0.5-0.5-1 0.1-1.3 0.5-1.6 0.8 0.1 1.4-0.1 1.9 1.2 2 1.7 1.5 1.8 1.1 2.5 0.9 0.7 2.3 1 7.5 8.9 1.5 1.4 4.7 2.7 2 0.4 2.3-0.8 0.6 0 1.4 3 1 1.1 1.9 0.2-1-1.3-1.4-3.7-0.7-3.5 0.2-0.8 1-0.1 18.2 7.1 3.3 2.9 5.4 7 1.4 1.3 2.1 1.5 2.1 1.1 1.7 0.5 3.2 2.9 1 0.5 3.1 1 1.5 1.4 2.8 3.8 1.6 0.8 0.9 0.8 3.6 5.2 5.3 4.7 1 0.1 3.1 1.9 1.5 1.6-0.5 1.4 1.8 1.2 4.2 0.2 1.7 1.5 1.9 0.7 3.8 3.1 10.7 2.2 1.1 1.2 0.6 0.3 1.5-0.8 0.7-0.1 1.2 0.5 1.5 1.8 2.5 2.1 0.8 1.4-0.5 1.7 1 4.4 1.1 1.6 1.5 1.1 1.6 0.9 1.2 1.1 0.5 1.7 0.9 0.4 5.4 0.7 1.8 0.6 0.6 0.6-0.5 3.6-0.6 2.5-0.7 1.4 0.8 2.2 0.3 1.9 0.9 1.1 3.3 2.6 2.9 1.5 1.3 1.1 1.3 1.5 0.8 0.3 2.6 0.1 0.7 0.4 0.2 0.7-0.4 1.2 1.1-0.5 0.3-0.4 3.2 2.7 1.3 1.4 0.4 1.1 0.8 0.7 0.5 0.9-1.7 0-1.6-0.4-1.4-0.8-1.5-1 0.5 1 0.9 1.3 1.3 1 1.1 0.4 1.1 0.7 0.8 1.6 0.6 1.7 0.7 1.2 2.3 1.1 6.1 1.5 2 1.9 2.9-0.7 2.7 1.5 2 2.6 0.8 2.5 1.8-0.4 1.1 4.6 1.9 1.9-1-2.2-0.1-0.8 0.5-0.8 0.9-0.6 1 0 0.8 0.7 0.7 1.4 0.6-1 0.1-1.2-0.4-1.2-1-1.1 1.8 0.5 1.4 1.8 3.6 6.6 0.6 1.9-0.4 0.9-2.2-0.5 0.8 1.2 4.1 2.6-0.6 1 0.8 0.1 1.3-0.4 0.6-0.4-0.2-1.4-0.6-1-1.3-1.7-0.8-2.6-0.2-2 0.7-0.8 2.1 1.3 3.1 3.4 1 0.3 2.6 0.3 0.9 0.5 0.2 0.7-1.6 0.6-0.3 0.5 0.5 0.5 1.5 0.3 0.3 1.2 0.2 2 0.2 1.3 0.8-0.4z m-188.6-150.8l1.6 2.3-2-0.6-2.8-1.5-2.4-1.7-0.5-2-0.1-4.7 0.7 0 4.5 6.1 1 2.1z m-24.3-7.7l-0.2 1-0.5 0.8-0.7-1.5-1.5 0.5-1-0.8-1-2.7 0-0.8 0.7-0.9 0.6-2.5 0.8-0.3 1 0.9 0.8 3 1 1.3 0 2z m-29.3-32.5l-2.7 2.4-3-6.9-0.4-2.4 0.1-4.4-0.5-1.6-1.7-1.1 0.6-1.3 1.7 0.9 1.1 1.5 2.1 5.1 0.7 3.5 0.6 1.5 1.1 1.9 0.3 0.9z" id="NCL559" name="Nord" data-id="NCL559" data-name="Nord">
 </path>
 <circle cx="713.7" cy="161" id="0">
 </circle>
 <circle cx="708.6" cy="139.2" id="1">
 </circle>
 <circle cx="635.8" cy="84.9" id="2">
 </circle>
</svg>