<?xml version="1.0"?>
<!--
************* Copyright (c) 2017 Pareto Softare, LLC DBA Simplemaps.com *******************		
************* Free for Commercial Use, full terms at  http://simplemaps.com/resources/svg-license ************
************* Attribution is appreciated! http://simplemaps.com ***************************
-->
<svg baseprofile="tiny" fill="#7c7c7c" height="787" stroke="#ffffff" stroke-linecap="round" stroke-linejoin="round" stroke-width="2" version="1.2" viewbox="0 0 1000 787" width="1000" xmlns="http://www.w3.org/2000/svg">
 <path d="M259.7 593.8l-1.1 7.8-1.9 2.1-1.7 0.5-0.6 0.3-0.5 0.5-0.7 2.1-0.8 0.8-1.1 0.7-4.8 2.3-0.5 0-1.7 0-0.9 0-0.6 0.2-1 0.4-0.9 0.5-8.6 7.5-1.9 2.6-0.3 0.6-0.3 1-2.2 9.9-0.5 1.3-1.2 1.6-11.7 10.9-2 1.2-10.5 4.6-0.8 0.1-0.9-0.3-6.5-2.8-1-0.3-0.9 0-0.6 0.7-1.2 2-0.7 1.7-1.1 5.5-0.3 1-0.5 0.9-0.9 0.3-1 0.1-4.4 0-0.4 0.1-0.6 0.3-0.5 0.8-1.3 3.1-0.6 0.7-0.9 0.3-1.8 0.4-1.3 0.4-0.3 0.3-0.1 0.4-0.2 1.3-0.3 1.5-0.4 1.4-0.1 0.7 0 0.4 0.1 0.3 0.6 1.2 0.1 0.4 0 0.3-0.7 3-0.9 2.7-1.2 1.8-0.4 0.4-0.4 0.3-0.4 0-0.4-0.1-0.7-0.2-0.8-0.5-0.4-0.2-1.3-0.2-0.8 0-2.2 0.6-5.5 4.3-0.3 0.1-0.6 0.3-0.7 0.2-0.4 0.1-0.8 0-0.7-0.1-1.5-0.4-0.3 0-0.5 0-0.5 0.2-0.8 0.4-0.6 0.6-0.8 0.9-0.4 0.6-0.3 0.5-0.1 0.4 0 0.3 0.1 0.4 3.8 8.8 0.2 0.1 0.3 0.1 9.6 0.9 1 0.3 0.7 0.5 0.3 1.1 0 0.5-0.3 0.4-1 0.7-2.2 1.8-0.3 0.2-1.5 0.7-0.9 0.7-0.9 0.8-0.4 0.5-0.2 0.4-0.1 0.4-0.1 0.8 0 0.8 0.1 0.8 1.1 4.1 0.1 0.8 0 0.8-0.1 1.3-0.4 1.4 0 1.7 0.3 4.4 0.2 1.3 0.3 0.7 0 1.8 0.2 0.6 2.5 0 0.1 0.2 0.3 0.2 0.4-0.1 0.2-0.5 0.1-0.4 0.2-0.4 0.2-0.5 0.3-0.3 0.6-0.1 0.6 0.2 0.4 0.6 0.2 0.9 0 1.6 0.2 1.9 0.7 1.4 1.4 0.6 1.4 0.3 2.2 1.4 1.4 0.6-0.7 1-1.5 0-0.7 0.1-1.3 0-0.6 0.1-0.7 0.5-1 1.2-0.6 0.5-0.6 0.1-0.7-0.4-0.7 0.2-0.3 0.4-0.2 0.5-0.1 0.5-0.2 0.5-0.9 1.4-0.6 0.3-2.2-0.6-0.4 0.1-0.8 0.6-0.4 0.2-0.3-0.1-0.5-0.3-0.3 0-2.2 0.6-0.3 0.2-0.6 0.5-0.3 0.2-0.5 0.1-0.2-0.3-0.1-0.4-0.2-0.1-0.7 0-0.6-0.1-0.5 0.2-0.3 0.8-0.3 0.6-0.3-0.1-0.4-0.4-0.5-0.1-0.3 0.3-0.5 0.7-0.2 0.2-0.8 0-1.4 0-0.9 0.1-1.5 0.7-0.6 1.1 0.1 1.5 0.6 3.6 2.1 6.1 0.4 0.6 0.4 0.5 0.7 0.6 0.7 0.3 0.6 0.1 0.4 0.3 0.1 0.8 0 1.1-0.5 0.1-0.7-0.2-0.6 0-0.4 0.5-0.5 0.9-0.5 0.5-0.5 0.2-0.6-0.1-0.5 0.1-0.4 0.9 0.1 0.7 0.7 1.1 0.2 0.6-3.3-2.8-5-7-4.5-6.2-4.7-6.7-2.7-3.8-1.2-2.2 0.2-1.9 0.9-0.8 3.6-0.8 0.3-0.2 0.5-0.6 0.4-0.2 0.2 0 0.7 0.4 0.3 0 3.7-0.3 1-0.3 0.4-0.6-0.1-1.5 0-0.3 0.2-0.7 0-0.2-0.3-0.5-0.8-0.9-0.3-0.5-0.5-1-0.4-0.8-0.4-3.9-0.2-0.9-0.5-0.8-0.5-0.8-1.2-0.7-0.7-0.5-0.6-0.7-0.3-0.4-0.3-1.2-1.7-2-2.5-0.6-6.1-0.6-0.6 0.4-1.1 1.2-0.7 0.4-0.5-0.1-0.4-0.2-0.5 0.1-0.3 0.3-0.5 0.9-1 1.6-0.7 1.3-0.7 1.1-1.1 0.7-1.1 0.1-8-0.7-6.5-0.6-2.1-0.5-1.7-1-4.4-3.7-3.5-2.9-5.1-4.4-6.3-5.3-7.4-6.3-1.9-0.9-4.5-0.4-1.8-1-0.6-1.1-0.1-1.2-0.1-5.3 0-6.1 0-5.5 0.8-2.6 1.3 0.2 5.1 2 3.4 0.9 1.4 0.6 0.4-0.2 0.7-2.2 0.3-0.7 0.3-0.3 1.1 0.3 1.1 0.9 1.2 0.6 1.7-0.7-1.2-1.3-1-0.7-1-0.3-2.7-0.3-1.1-0.4-6.9-3.2-2.1-1.5-1.2-2-0.3-2.9-2.5-2.8-3.5-2-2.9-0.9-2.3 0.2-1.2-0.1-1.2-0.6-0.8-0.7 0-0.4 0.2-0.3 0-0.2 0-0.4 0-0.5-0.2-0.5-0.6-0.1-8.4 0.2-1.7-0.5-0.8-1.7 0.2-1 0.7-1.3 0.3-1.2-0.4-0.6-1.2-0.5-0.7-0.8-0.7-0.8-2.1-1.4-0.9-0.9-0.8-1.1-0.5-1.2-0.5-0.6-1.4-0.8-0.3-0.5-0.1-0.7 0.5-1.2 0.1-0.5-0.7-0.8-1.1-0.6-1.1-0.7-0.5-1.1-0.1-1.2-0.7-0.5-0.8-0.5-0.6-0.6 0-0.6 0.6-1 0-0.5-0.2-0.5-0.4-0.4-0.4-0.3-0.4-0.4-0.8-1.2-0.3-0.8 0.3-0.7 1.5-2.4 0.3-0.8 0.4-2 0.2-0.6 0.6-0.8 0.1-0.5-0.2-0.4-2.7-3.6-9.9-9.2-1.9-3.1-0.4-3.3 4.2-12.1-0.4-1.9-1.8-3.8 0.1-1.9 0.7-1 0.9-0.7 0.6-0.9-0.2-1.5-0.3-3.2 0-1.7 0.5-0.7 8.3 2.2 2.2 0 2-0.4 4.1-1.5 1.9-0.1 9.8 3.5 0.9-0.1 1.7-0.4 1.8-0.7 1.9-0.7 9.6-0.3 1.7-0.4 1.6-0.7 5.3-5 4.1-3.9 5.1-4.7 4.2-4 1.7-1.1 2.2-0.5 4.6-0.1 6.1-0.2 6.1-0.3 6.1-0.2 6.1-0.2 12.2-0.4 6.1-0.2 6.1-0.2 6.1-0.2 6.1-0.2 12.1-0.5 6.1-0.2 6.1-0.2 6.1-0.2 9.2-0.3 0.4-0.9 0-2.4 0.1-1.2 0.2-0.7 0.4-0.3 1.1-0.2 2.4-0.1 7.6 1.3 11.8 2.1 6.5 1.1 0.4 0.1 1.1 0.2 0.6-7.5 0.7-1.8 5.5-3.4 4.9-5.5 2.3-1.2 5-1 2.4-1.3 1.6-1.9 0.2-0.4 0.5 0.9 14.1 40.4-0.3 9.1 0.2 2.8 0.5 1.4 8.9 14.9z m-137.6 67.2l-2.5 0-2.2 0.9-1.3 1.6-0.3 1.5 0.1 2.3 1.1 2.5 1.5 2 1.9 1.9 2.1 0.8 2.4 0.3 2 0.3 1.9-0.2 0.4 0.8 0.4 1.2 0.5 1 1.3-1 1-0.8 1.2-2.5 0.8-2.8 0.6-2.7 0.1-1.9-0.1-1.7-1-0.6-1.6 0.3-0.6-0.7 0.2-1.9-0.6-0.3-2.9 0.3-3.4 0.1-3-0.7z" id="NER4859" name="Tillabéri" data-id="NER4859" data-name="Tillabéri">
 </path>
 <path d="M973.6 373.8l-1.3 15.8-0.3 3-0.2 3-0.3 3-1.5 18.2-0.3 3-1.2 15.1-0.3 3-0.2 3-0.3 3-0.1 1.7-0.4 1.4-0.9 1.2-5.7 6.2-3.5 3.9-7.1 7.7-3.5 3.8-7.1 7.7-7.1 7.7-3.5 3.8-3.6 3.8-3.5 3.9-3.5 3.8-7.1 7.7-3.6 3.8-2.4 2.7-3.7 4-3.4 3.7-1.8 2.5-1.9 2.7-1.9 2.7-3.8 5.3-1.9 2.7-1.8 2.7-1.9 2.6-3.8 5.4-1.9 2.6-3.7 5.4-1.9 2.6-1.9 2.7-1.9 2.7-3.7 5.2-1.6 3.5-3 6.5-0.4 1.3 0 1.4 0.2 1.3 0.9 2.8 0.1 1.3-0.6 1.5-0.9 0.6-1.3 0.1-1.2 0.3-0.6 0.4-2.1 2.3-1.2 0.9-0.2 0.3 0.1 0.4 0.6 0.6 0.3 0.4 0.4 2.5-0.1 1.2-0.5 1.2-2.1 1.7-2.5 0.5-2.6 0.2-2.3 1-1.6 0.8-2.1 2.9 0 3.9 1.2 4.5 0.9 3.3 0.7 3 0.4 2.1 0.9 4.1 0.9 4.2 0.5 2 0.9 4.2 0.4 2.1 1.4 6.2 0.4 2.1 0.5 2 0.5 2.1 0.4 2.1-15.6-0.7-1.9 0.3-0.6 0.5 0.1 1.1-1 0.7-2.5 2.4-0.5 0.6-0.3 0.6 0 0.3 0.3 0.4 0.1 0.4-0.2 0.5-0.4 0.1-0.4 0-0.3 0.1-0.6 0.9 0.1 0.3 0.9 0.1-1.1 1.5-1.5 0.6-1.7 0.3-1.7 0.8 0.2-0.6 0.1-0.6-0.1-0.5-0.6-0.2-0.4 0.3-0.4 1.1-0.5 0.5 0-0.7 0-0.3-1.1 0.4-1.1 0-0.8-0.2 0.4-0.7 0-0.4-1.7 0.2-1.7 0.6-5.6 2.9-1.8 0.3-1.7-0.4-0.3 1-0.6 0.1-0.8-0.4-1-0.3 0 0.5 0.6 0.2 0.4 0.2 0.4 0.4 0.4 0.5-0.8 0.7-1.8 2 0 0.2 0.1 0.5-0.1 0.2-0.2 0-0.5 0-0.5 0.1-0.8 0.3-0.2 0.3 0.3 0.7 0.4 0.5 0 0.3-0.9 0.1-0.1-0.3-0.4-0.4-0.4-0.3-0.1 0.2-0.1 0.1-0.4 1.1-1.7 2-1 0.8-1.4 0.3-0.8 0.3-0.4 1.5-0.6 0.4-0.9-0.2-0.6-0.5-0.6-0.5-0.7-0.6 0 1.1-0.2 0.4-0.4 0.4-0.4 0.3-0.5 0.2-0.2-0.4-0.3 0.2-2.3 2.2-0.2 1.1-0.8 1.2-0.4 0.9 1 0.4-0.4 1.4-0.4 0.7-0.5 0.6-0.5 0.2-1.4 0.2-0.3 0.3-0.5 3.4-0.3 0.8-0.9 0.4-1-0.2-1.2-0.4-1.5-0.3-3.9-0.1-1.1-0.3-0.6 0.4-0.4-0.4-0.5-0.5-0.6-0.4-0.6 0.1-0.4 0.3-0.3 0.3-0.2 0.2-0.5-0.1-0.1-0.2-0.1-0.4-0.2-0.4-0.7-0.4-3.2-1.2-1.1 0.3-1.3 0.9-0.9 0.1-2.1 0.2-3.7-0.9-1.2-0.6-2.9-2.3-8.8-5.4-7-2.9-19-4.9-30.8 0.2-11.4-1.4-6.1 0.5-1.7 0.4-0.2-0.3-2-7.5 0.2-1 0.4-1.6 11-11.4 0.4-0.7 0.3-0.5 0.1-0.5 0.1-0.8 0-1.7-0.1-1.3 0-0.6 0.3-0.5 25.7-23.8 1.2-0.9 0.9-0.1 0.8 0.3 2.6 1.5 0.7 0.3 0.6 0 0.8-0.1 11.5-3.7 15.8-10.3 0.8-0.4 0.7-0.1 5.2 0.2 0.8-0.1 0.9-0.4 4.2-3 0.4-0.6-0.3-0.5-2.5-0.9-0.8-0.4-0.4-0.6-0.4-0.7-0.3-1-0.2-0.9 0.2-1.5 0.2-0.9 0.4-0.7 0.6-0.6 1.7-1.2 1.8-0.8 1.1-0.2 0.1-0.1-0.2-190.1 1.3-0.7 1-1 12.8-8.7 48.2-22.7 161.4-0.1 0.6 0z" id="NER796" name="Diffa" data-id="NER796" data-name="Diffa">
 </path>
 <path d="M973.6 373.8l-0.6 0-161.4 0.1-48.2 22.7-12.8 8.7-1 1-1.3 0.7-21.4 7.8-25.8 17.9-18.5 5.6-103.2 67.6-22.2 8.5-25.8 14.5-11.6 4.1-3.7 0.4-11.5-0.3-1.2 0.1-1.3 0.3-4.9 2.6-10.8 0.1-25.3-3.9-2.5 2.8-5.1 14.5-12.7-6.9-3.3-0.2-25.1 0.9-3.7-37.5 1.4-10.6-0.1-1.1-0.3-0.9-1-0.6-9.8-2.6-0.4-0.1-0.9-0.6-4.3-3.3-0.3-0.4-0.4-0.5-1.1-1.9-0.2-0.6-13.8-33.5-0.3-0.5-5.5-6.2-14.2-10.9-33.7-21.3-1.3-1-1.4-1.4-8.4-11.5-10.9-9.2-0.9-0.9-0.4-0.9-1.4-6.7-0.4-0.9-0.9-0.3-6.7-0.5-1.1-0.3-1-0.5-0.6-1.2-0.3-0.7-0.2-0.7-0.1-0.4 0-0.8 0.4-0.7 1.9-3.1 0.1-0.8-0.7-7.9 0.1-0.4 0.5-1.4 0.1-0.3 0-0.4 0-0.4-0.2-0.7-0.3-1-0.3-1.6-0.1-0.8 0.1-0.4 0.1-0.4 0.4-1.6 8.3-17.4-6-1.8-33-0.4-0.9 0-0.1-33.2 11.9-2.4 11.9-2.4 11.9-2.4 11.9-2.4 6.3-1.3 13.8-2.8 13.8-2.8 14.4-3 2.8-1 2.8-2 4.9-4.5 4-3.6 4-3.7 8-7.3 15.9-14.5 3.9-3.7 4-3.6 4-3.7 4-3.6 4-3.7 3.9-3.6 4-3.7 7.6-7 2.4-2.1 4.9-4.3 9-7.8 9-7.9 6.3-5.5 12.5-7.9 4.3-2.7 4.3-2.7 4.3-2.7 4.3-2.8 8.6-5.4 4.3-2.7 8.6-5.5 12.9-8.1 4.2-2.7 4.3-2.8 4.3-2.7 12.9-8.2 4.3-2.7 4.3-2.7 8.6-5.5 4.3-2.7 4.3-2.8 4.3-2.7 4.3-2.7 4.3-2.7 8.5-5.5 4.3-2.8 8.6-5.4 4.3-2.8 4.3-2.7 4.3-2.7 4.3-2.8 8.6-5.5 4.3-2.7 4.3-2.8 4.3-2.7 8.6-5.5 8.5-5.5 8.6-5.5 12.9-8.2 4.3-2.8 4.3-2.8 4.3-2.7 4.3-2.8 8.6-5.5 4.3-2.7 8.6-5.6 12.8-8.2 4.3-2.8 5.6 1.4 11.1 2.7 5.6 1.3 5.6 1.4 5.5 1.3 22.3 5.5 5.6 1.3 11.1 2.7 5.6 1.4 5.5 1.3 12 2.9 7.4 4.2 3.6 3.2 7.9 7 15.7 14.2 7.9 7 2.9 2.6 0.9 0.5 1-0.2 14.8-8.1 10.8-5.9 10.8-5.9 10.8-5.9 0.8 4.3 0.7 4.3 0.8 4.2 0.7 4.3 1.6 8.6 0.7 4.3 0.8 4.3 0.7 4.3 0.8 4.2 0.7 4.3 1.6 8.6 0.7 4.2 1.1 5.8 0.4 2.8 0.1 1.3 0 3.6 0.1 5 0.2 11.5 0.1 8.5 0.1 3.1 0.2 1.1 1 1 3 1.6 1.2 0.9 2.2 2.6 1.5 2.4 1 1.6 1.1 1.7 3.2 5 1 1.6 1.1 1.7 1 1.7 2.1 3.3 1.1 1.6 3.2 5 1 1.7 1.1 1.6 1 1.6-2.5 1.5-1.6 2.6-0.5 3.2 0.5 3 0.8 1.7 0.9 1.5 1.1 1.3 5.1 4.1 1.8 1.9 7.3 8.3 3.7 4.1 5.2 5.7 0.9 1.5 0.1 1.1-0.5 1.2-1.3 2.3-5 9.3-5.1 9.3-0.9 1.7-2 5.3-0.2 2.8-0.5 6.2-0.3 3-1.5 18.4-0.3 3-0.2 3.1-1.3 15.2-0.8 9.2-0.2 3-0.5 6.1-0.3 3.1-1.2 15.2-0.3 3-1.5 18.2-0.3 3.1-0.2 3-0.3 3-0.7 8.5z" id="NER800" name="Agadez" data-id="NER800" data-name="Agadez">
 </path>
 <path d="M453.5 549.6l4.1 2.4 0.8 2.2 0.4 9.1 0.2 1.3 2.5 4.4 0.8 2.1 2 10.7 0.3 0.9 0.6 0.8 1.2 1.3 0.6 0.9 1.3 4.2 1 0.9 1 0.8 5.4 3.1 0.9 0.6 0.5 0.6 0.2 0.9 0.4 8.1 0.1 0.9 0.4 0.9 0.8 0.6 3.1 1.5 1 0.3 0.8-0.1 1.1-0.6 5.8-5.2 0.9-0.6 1.1-0.2 3.5 0.1 0.6 0.1 0.2 0.2 2.1 3.3 1 1.2 0.5 0.4 2.5 1.2 0.7 0.2 1.2 0.5 2.1 1.7 0.3 0.1 0.4 0.1 1.3 0.1 0.7 0.3 0.9 0.7 3.3 3 0.3 0.2 2.5 1.2 0.8 0.5 0.7 0.6 0.2 0.4 0.3 0.5 0.2 0.7 0.4 2.2 0.2 0.5 0.4 0.7 7.8 5.5 1 0.9 0.3 1.1 0.1 1.1 0 2 0.1 0.9 0.2 0.8 0.4 1.2 0.2 2.4 0.1 2.2-0.1 1.1-0.3 0.9-0.8 0.6-18 9.2-0.3 0.2-0.4 0.6-0.3 0.4-0.3 0.9-0.1 0.3-0.1 0.8 0.1 0.8 0.2 0.6 0.6 1.1 0.9 0.7 1 0.6 2.2 1 0.9 0.5 0.7 0.6 0 1-1.5 5 0 1 1.5 9.1 0 1.1-0.4 1.1-3.8 7.2-0.3 0.4-0.1-0.1-1.9-0.5-0.9-0.4-2.1-1.7-1.8-1.1-1.4-1.4-0.8-0.6-1.7-0.6-16-2.3-2.2 0.2-2.1 1-23 13.9-1.9 0.6-2.3 0-6.6-1.2-1.4 0.3-3.8 4.5-3 2.7-1.3 0.6-1.5 0.3-4.7 0-2.2-0.2-1.9-0.8-2-1.5-2.3-2.1-3.7-4.4-6.7-12.4-10.3-11.3-8.9-8.5-4.2-2.4-1.1-0.3-0.1-1 0-3.7 0.1-1.1 0.3-1.1 0.8-1 2-2 0.8-1.1 0-1.2-0.8-3.4 0-1 0.5-0.7 1-0.9 4-2.8 0.6-0.6 0.7-0.8 0.3-0.2 0.6-0.2 2.2-0.5 0.5-0.2 0.9-0.6 0.3-0.2 0.2-1.1 0.6-7-0.1-3.2-0.3-0.6-0.4-1.8-0.2-1.5-0.2-0.7-2-4.7-0.3-1.7-0.2-2 3.7-30.7 0-1.3 0.1-1.2 8.9-33.1 25.1-0.9 3.3 0.2 12.7 6.9z" id="NER91" name="Maradi" data-id="NER91" data-name="Maradi">
 </path>
 <path d="M663.2 677.7l-30.7 6.6-2.6 1.2-12 6.7-1.1 1.1-0.3 0.7-0.2 1.6-0.3 0.6-0.5 0.5-0.3 0.1-0.3-0.1-0.7 0.3-1.2 0.8-2.1 2-11.3 13.4-0.7 0.6-0.7 0.5-0.4 0.1-1.3 0.1-13.4-1.5-1.2 0-3.4 1-2.3 0-20.6-2.4-16.6-5-2.3-1.3-1.1-1.3-1.8-3.1-1.3-1.3-2.7-2.1-1.5-0.7-1.7-0.4-0.8 0-1.5 0.2-0.8 0.2-0.7 0.4-0.3 0.1-0.2 0-0.6-0.2-0.5-0.3-6.3-5.8-1.6-1.9-0.8-0.7-0.8-0.4 0.3-0.4 3.8-7.2 0.4-1.1 0-1.1-1.5-9.1 0-1 1.5-5 0-1-0.7-0.6-0.9-0.5-2.2-1-1-0.6-0.9-0.7-0.6-1.1-0.2-0.6-0.1-0.8 0.1-0.8 0.1-0.3 0.3-0.9 0.3-0.4 0.4-0.6 0.3-0.2 18-9.2 0.8-0.6 0.3-0.9 0.1-1.1-0.1-2.2-0.2-2.4-0.4-1.2-0.2-0.8-0.1-0.9 0-2-0.1-1.1-0.3-1.1-1-0.9-7.8-5.5-0.4-0.7-0.2-0.5-0.4-2.2-0.2-0.7-0.3-0.5-0.2-0.4-0.7-0.6-0.8-0.5-2.5-1.2-0.3-0.2-3.3-3-0.9-0.7-0.7-0.3-1.3-0.1-0.4-0.1-0.3-0.1-2.1-1.7-1.2-0.5-0.7-0.2-2.5-1.2-0.5-0.4-1-1.2-2.1-3.3-0.2-0.2-0.6-0.1-3.5-0.1-1.1 0.2-0.9 0.6-5.8 5.2-1.1 0.6-0.8 0.1-1-0.3-3.1-1.5-0.8-0.6-0.4-0.9-0.1-0.9-0.4-8.1-0.2-0.9-0.5-0.6-0.9-0.6-5.4-3.1-1-0.8-1-0.9-1.3-4.2-0.6-0.9-1.2-1.3-0.6-0.8-0.3-0.9-2-10.7-0.8-2.1-2.5-4.4-0.2-1.3-0.4-9.1-0.8-2.2-4.1-2.4 5.1-14.5 2.5-2.8 25.3 3.9 10.8-0.1 4.9-2.6 1.3-0.3 1.2-0.1 11.5 0.3 3.7-0.4 11.6-4.1 25.8-14.5 22.2-8.5 103.2-67.6 18.5-5.6 25.8-17.9 21.4-7.8 0.2 190.1-0.1 0.1-1.1 0.2-1.8 0.8-1.7 1.2-0.6 0.6-0.4 0.7-0.2 0.9-0.2 1.5 0.2 0.9 0.3 1 0.4 0.7 0.4 0.6 0.8 0.4 2.5 0.9 0.3 0.5-0.4 0.6-4.2 3-0.9 0.4-0.8 0.1-5.2-0.2-0.7 0.1-0.8 0.4-15.8 10.3-11.5 3.7-0.8 0.1-0.6 0-0.7-0.3-2.6-1.5-0.8-0.3-0.9 0.1-1.2 0.9-25.7 23.8-0.3 0.5 0 0.6 0.1 1.3 0 1.7-0.1 0.8-0.1 0.5-0.3 0.5-0.4 0.7-11 11.4-0.4 1.6-0.2 1 2 7.5 0.2 0.3z" id="NER92" name="Zinder" data-id="NER92" data-name="Zinder">
 </path>
 <path d="M283.2 654.7l-7.5 1.9-3.4 1.3-3 2.2-9.9 9.5-1.8 0.9-1.9 0.4-4 0.1-0.2 15.5-2.2 15.4-10 15.9-4.1 4-13.8 10.4-0.3 0.7 0.6 16.1-1.7 8.5 0 2.8 1.6 4.7 0.3 2.2-1.1 2.2-1.1 1.1-0.7 0.9-0.3 1.1 0.4 3.6 0.2 0.7 0.4 0.6 0.2 0.3 0.3 0.1 1.4 1.6 0.8 1.2 0.3 1.3-0.4 1.4-0.8 0.7-3.2 2-0.5-0.4-0.6-1-0.5-0.3-0.2-0.5-0.1-0.5-0.3-0.5-0.3-1.1-0.2-0.5-0.3-0.2-0.4-0.2-0.4-0.4-2.1-3.1-0.5-0.4-0.7-0.5-2.3-0.9-2.8-1.7-0.8-0.3-0.6-0.4-0.8-0.1-0.9 0.5-0.8 0.4-0.9-0.2-0.8-0.5-0.5-0.5-0.9-1.1-1.4-2.4-0.5-1.2-0.3-1.5-0.2-1.3-0.2-0.4-0.8-0.6-0.2-0.4-10.9-10-2.5-3.7-0.6-1.2-0.3-0.4-0.5-0.2-2.1-0.2-0.7-0.3-0.7-0.3-0.6-0.6-0.4-1.4-0.4-0.8-0.7-0.7-1.3-0.7-3-2.7-1.4-0.6-2.2-1.4-1.4-0.3-1.4-0.6-0.7-1.4-0.2-1.9 0-1.6-0.2-0.9-0.4-0.6-0.6-0.2-0.6 0.1-0.3 0.3-0.2 0.5-0.2 0.4-0.1 0.4-0.2 0.5-0.4 0.1-0.3-0.2-0.1-0.2-2.5 0-0.2-0.6 0-1.8-0.3-0.7-0.2-1.3-0.3-4.4 0-1.7 0.4-1.4 0.1-1.3 0-0.8-0.1-0.8-1.1-4.1-0.1-0.8 0-0.8 0.1-0.8 0.1-0.4 0.2-0.4 0.4-0.5 0.9-0.8 0.9-0.7 1.5-0.7 0.3-0.2 2.2-1.8 1-0.7 0.3-0.4 0-0.5-0.3-1.1-0.7-0.5-1-0.3-9.6-0.9-0.3-0.1-0.2-0.1-3.8-8.8-0.1-0.4 0-0.3 0.1-0.4 0.3-0.5 0.4-0.6 0.8-0.9 0.6-0.6 0.8-0.4 0.5-0.2 0.5 0 0.3 0 1.5 0.4 0.7 0.1 0.8 0 0.4-0.1 0.7-0.2 0.6-0.3 0.3-0.1 5.5-4.3 2.2-0.6 0.8 0 1.3 0.2 0.4 0.2 0.8 0.5 0.7 0.2 0.4 0.1 0.4 0 0.4-0.3 0.4-0.4 1.2-1.8 0.9-2.7 0.7-3 0-0.3-0.1-0.4-0.6-1.2-0.1-0.3 0-0.4 0.1-0.7 0.4-1.4 0.3-1.5 0.2-1.3 0.1-0.4 0.3-0.3 1.3-0.4 1.8-0.4 0.9-0.3 0.6-0.7 1.3-3.1 0.5-0.8 0.6-0.3 0.4-0.1 4.4 0 1-0.1 0.9-0.3 0.5-0.9 0.3-1 1.1-5.5 0.7-1.7 1.2-2 0.6-0.7 0.9 0 1 0.3 6.5 2.8 0.9 0.3 0.8-0.1 10.5-4.6 2-1.2 11.7-10.9 1.2-1.6 0.5-1.3 2.2-9.9 0.3-1 0.3-0.6 1.9-2.6 8.6-7.5 0.9-0.5 1-0.4 0.6-0.2 0.9 0 1.7 0 0.5 0 4.8-2.3 1.1-0.7 0.8-0.8 0.7-2.1 0.5-0.5 0.6-0.3 1.7-0.5 1.9-2.1 1.1-7.8 4.3 2.8 1.4 1.6 4.8 9.9 0.6 2.6 2.5 22 0.3 0.8 5.9 9.9 3.7 11.3z" id="NER93" name="Dosso" data-id="NER93" data-name="Dosso">
 </path>
 <path d="M122.1 661l3 0.7 3.4-0.1 2.9-0.3 0.6 0.3-0.2 1.9 0.6 0.7 1.6-0.3 1 0.6 0.1 1.7-0.1 1.9-0.6 2.7-0.8 2.8-1.2 2.5-1 0.8-1.3 1-0.5-1-0.4-1.2-0.4-0.8-1.9 0.2-2-0.3-2.4-0.3-2.1-0.8-1.9-1.9-1.5-2-1.1-2.5-0.1-2.3 0.3-1.5 1.3-1.6 2.2-0.9 2.5 0z" id="NER94" name="Niamey" data-id="NER94" data-name="Niamey">
 </path>
 <path d="M412.4 543.4l-8.9 33.1-0.1 1.2 0 1.3-3.7 30.7 0.2 2 0.3 1.7 2 4.7 0.2 0.7 0.2 1.5 0.4 1.8 0.3 0.6 0.1 3.2-0.6 7-0.2 1.1-0.3 0.2-0.9 0.6-0.5 0.2-2.2 0.5-0.6 0.2-0.3 0.2-0.7 0.8-0.6 0.6-4 2.8-1 0.9-0.5 0.7 0 1 0.8 3.4 0 1.2-0.8 1.1-2 2-0.8 1-0.3 1.1-0.1 1.1 0 3.7 0.1 1-3.5-0.7-1.2 0.2-3.6 2.1-0.7 0.2-0.4-0.2-0.4-0.4-0.6-0.3-17.8-7.1-17.9-7.1-2.1-0.5-9.3 1.6-1.7 0.9-0.8 1-1 2.4-0.9 1-1.9 1.4-0.7 0.3-2.2 0.4-9.1-0.4-6.3 1.2-3.7-0.2-1.4-0.7-1.5-1.3-1.4-0.7-2 0.2-12.6 3.1-3.7-11.3-5.9-9.9-0.3-0.8-2.5-22-0.6-2.6-4.8-9.9-1.4-1.6-4.3-2.8-8.9-14.9-0.5-1.4-0.2-2.8 0.3-9.1-14.1-40.4-0.5-0.9 0.8-2 0.5-2.5 0.5-6.4 0.4-1.2 1-1.5 3.7-3.7 0.1-0.4 0-0.6-0.1-0.1-0.8-2-0.3-1.8 0.3-1.8 5.7-14 0.9-1.5 1.2-1.3 1.5-1.1 2.7-1.4 0.9-0.9 0.5-1.5 0-13-0.1-8.8 0-4.2 0.2-0.6 0.8-1.3 0.3-0.7-0.4-6.4 0.1-1.2 0.4-1.2 0.5-0.2 0.7 0 0.8-0.7 0-6.9 0-4.2-0.1-8.1 0-8.2 0-8.2 0-8.2-0.1-8.2 0-16.4 0-8.2-0.1-32.8 0.9 0 33 0.4 6 1.8-8.3 17.4-0.4 1.6-0.1 0.4-0.1 0.4 0.1 0.8 0.3 1.6 0.3 1 0.2 0.7 0 0.4 0 0.4-0.1 0.3-0.5 1.4-0.1 0.4 0.7 7.9-0.1 0.8-1.9 3.1-0.4 0.7 0 0.8 0.1 0.4 0.2 0.7 0.3 0.7 0.6 1.2 1 0.5 1.1 0.3 6.7 0.5 0.9 0.3 0.4 0.9 1.4 6.7 0.4 0.9 0.9 0.9 10.9 9.2 8.4 11.5 1.4 1.4 1.3 1 33.7 21.3 14.2 10.9 5.5 6.2 0.3 0.5 13.8 33.5 0.2 0.6 1.1 1.9 0.4 0.5 0.3 0.4 4.3 3.3 0.9 0.6 0.4 0.1 9.8 2.6 1 0.6 0.3 0.9 0.1 1.1-1.4 10.6 3.7 37.5z" id="NER95" name="Tahoua" data-id="NER95" data-name="Tahoua">
 </path>
 <circle cx="647.2" cy="603.4" id="0">
 </circle>
 <circle cx="512.4" cy="620.6" id="1">
 </circle>
 <circle cx="473.6" cy="649.6" id="2">
 </circle>
</svg>