<?xml version="1.0"?>
<!--
************* Copyright (c) 2017 Pareto Softare, LLC DBA Simplemaps.com *******************		
************* Free for Commercial Use, full terms at  http://simplemaps.com/resources/svg-license ************
************* Attribution is appreciated! http://simplemaps.com ***************************
-->
<svg baseprofile="tiny" fill="#7c7c7c" height="865" stroke="#ffffff" stroke-linecap="round" stroke-linejoin="round" stroke-width="2" version="1.2" viewbox="0 0 1000 865" width="1000" xmlns="http://www.w3.org/2000/svg">
 <path d="M422.2 672l82 9.7-46.6 96.3 7.9 7.2 17.5 6.5 9.5 4.1 26.2 9.7 16.6 5.6 11.1 6.4-4.6 1.7-4.5-0.5-31.4-11.7-34.9-13-26.3-9.8-19.8-7.3-6.2-3.5-5.5-5-5.6-2.9-6.5 2.7-5.5 7.4-3.6 7.8-4.7 7.7-0.1-0.1-9.7-4-3.8-0.6-2.7-1.5-1.6-3.5-1.8-7.2-3.5-5.3-20.8-23.4-1.7-1.3-0.9-0.4-3-2.1-0.7-0.9-6.7-1.9-3.1-2.8-6.5-8-5.2-2.7-6.6-7.1-8.5-4.8-2.8-2.6-0.8-1.6-1.6-5.3 5.6-10.4 1.3-2.5 0.6-0.7 6.8-4.6 4.6 1.2 1.4-0.2 0.7-0.7 5.4-2.7 0.7-0.6 2.2-3.4 3-6.6 0.6-0.6 0.5-0.3 0.8 0 1 0.2 0.9 0.5 2.6 2.8 0.9 0.3 8.7-2.2 6.3-1.9 72.4 0.4z" id="NIC24" name="Rivas" data-id="NIC24" data-name="Rivas">
 </path>
 <path d="M600.4 635.7l4 13.7 2.9 5.4 1.6 1.4 1.2 1.3 0.5 1.2-0.2 2.4 0.2 5.2 2.1 5.1 2 6.2-0.1 1.6-0.4 2.2-1.9 4.6-2.7 9.5-0.6 3.9 0 2.6 1.4 7.6 0.7 7.7 13 4.8 5.6 3.5 15.5 9.7 3 3 1.2 2.7 0.1 2.5 0.4 2.5 1.5 3 1.7 1.9 1.8 1.3 9.2 4.7 7.7 5.6 5.5 5.5 1.7 2.2 4 6.6 0.9 1.2 0.8 0.5 0.6 0 0.7 0.1 0.8 0.4 1.2 0.7 0.6 0.2 1 0.3 1.5 0.6 1 0.1 2-0.3 1.3 0 0.5 0.1 1.2 0.3 3.2 1.2 2.5 0.9 6.1-0.8 1.3 0.1 0.6 0.3-0.1 1.1-0.1 0.6 0.1 0.5 0.3 0.5 2.1 2.2 1.9 1.6 1.1 0.5 0.7 0.1 1.7-0.9 1.2-0.3 0.5-0.1 0.9-0.5 0.3-0.3 1-0.6 0.7-0.2 1.5-0.3 1.2 0.2 1.8 0.7 0.9 0.2 0.8-0.1 1.4-0.6 0.4-0.3 1.5-0.6 1.9-0.2 0.9-0.3 2.7-1.3 0.6 0.1 0.3 0.4 0.1 0.6-0.3 3.7 0 0.6 0.2 1.1 0.3 0.5 0.5 0.8 1 1.1 0.2 0.4 0.1 0.6 0 1.3 0.2 0.8 0.3 0.8 0.8 1 0.7 0.4 0.5 0 0.5-0.2 0.9-0.5 1.4 0 2.2 0.1 7.6 1.5 1.5 0.5 0.4 0.3 0.7 0.7 3.5 4.6 2.9 4.7 5 5.5 3.4 2.6 1.5 4.2 3.4-0.6-0.7-2.2 2.8-0.4 4.2 0.9 3.2 1.7-1.4-0.2-1.3 0.1-1.1-0.3-1.4 1 0.2 1-0.1 1 0.2 8.5 1.8 7.1-0.6 5.4-6.8 3.5-13.8 3.3-12.9 4.9-4 4.7-0.7 0.5-5.4-1.1-1.3 0.4-2.7 1.9-1.9 0.4-1.8-0.3-1.3-0.6-11.7-9.3-0.9-3.4-2.2-1.5-2.6 0.5-2.3 2.3-3.3-0.8-4.9 3.1-2.3-2.3-1.4 0-2.2 1.7-2.2-0.9-3.7-3.5-2.3 0.4-3.1-0.5-3 0-2.2 1.6-1-1.4-4.3-3.4-0.5-0.7-0.7-0.9-0.4-1.1 0.9-1.5 0.8-0.6 2.7-1.4-0.8-4.7-3.3-2.9-3.7-1.9-1.8-1.9-2-1.5-9.1-3.4-2.1-2-0.5-1.4-2.6-3.2-0.8-1.5-0.4-2.4 0-2-0.5-1.5-1.8-1-1.7 1-10.4 6.9-1.9 0.8-2.1-0.2-2.1-0.9-1.7-1-1.7-1.4-4.4-5.5-0.8-0.6-1-0.5-1-0.4-1.1-0.3-9.7-4.3-4.5-1.5-4.2 0.3-3.3-0.5-7.5-5.4-3.4-1.5-6.1 1.5-14.4 9.5-20.1 13.3-11.1-6.4-16.6-5.6-26.2-9.7-9.5-4.1-17.5-6.5-7.9-7.2 46.6-96.3 3.6-6.1 0.4-0.6 0.9-0.7 3-1.6 3.9-2.7 1.8-1 1.2-0.5 0.9 0.4 0.5 0.1 0.9-0.1 3.7-1.4 1.1-0.7 0.7-0.4 0.6-1.1 0.9-1.2 1.4-1.5 0.2-0.3 0.5-1 0.8-0.9 0.4-0.5 0.2-1.1 0.6-1.3 2.9-4.5 8.3-1.8 4.9-3.2 12.8-11.9 0.7-1 0.9-0.3 1-0.1 14.4 0.2 3.9-0.8 0.9 0 1.6 0.5 0.8 0.1 3-0.3 1.4 0.2 0.9 0.4 2.2 0.5 7.4 0.2z" id="NIC4800" name="Rio San Juan" data-id="NIC4800" data-name="Rio San Juan">
 </path>
 <path d="M773.2 631.5l0.1 2.7-1.3-1.7-1.5-5.4-0.4-7.1 1.4-6.3 4-2.8 0.5 0.2 0.1 0.4-0.1 0.6-1.3 2.1-1.3 3.2-1 3.6-0.4 3.2 1.2 7.3z m135.4-58l-5.7 6.2-0.4-4.5 1.9-3.4 2.7-1.5 2.2 1.8-0.7 1.4z m8.6-24.3l-0.1 2.2-1-1.1-1.4-0.7-0.6-0.8 0.9-1.7 0.9-0.5 0.5 1.5 0.1 0.8 0.7 0.3z m-106.9-146.9l4.3 26-6.6 52.6 0 11.7 0.7 1.9 2.8 5.7 1.9 6.4 5.4 7.6 1.3 5-0.5 6.1-2 3.3-4 1.3-6.2 0.2-4.8 1-4.9 1.8-4.5 0.7-3.9-2.1 1.5-1.4 4-2.9 1.1-1.3 0.2-2.3-0.7-3.2-1.3-2.7-4.2-3.8 0.3-13.1-0.9-5 1.1-0.5 0.4-0.7 1.2 0 6.9 2.2 4.8-6.3 1.6-8.9-2.6-6.1 0-1.5 1.7-1.9 0.7-2.7 0.3-11.1 0.3-0.5 0.8-0.6 0.9-1 0.6-1.4-0.6-5.4-3.8-3.1-5.2-1.3-5 0.4-4 2.3-1.7 3.7 0.1 4.1 1.5 3.5 4.3 2.3 0.4 0.4 0 0.7 0.3 3.4 0.3 1.4 0.8 1.3 0.9 0.6 0.8 0.8 0.3 2.1-0.1 3.3-0.4 1.4-1 1.5 0.8 1 2 3.1-6.1 3.6-10.3 8.7-6.3 2.7-8.4 0.9-3.6 1.2-1.4 2.6 0 10.4 0.2 0.2 0.8-0.4 1.6 0.1 2.4 0.5 1.6-0.1 1.3 0.4 1.5 1.9 1.4 8.9-0.8 4.3-1.4 4-0.6 3.8 1.4 3.6 3.6 1.8 6.1-1.3 1.1 3.1-0.3 2-1 3.9-0.2 2.2 0.4 1.3 0.9-1.8 3.1-10.3 1.2-2.5 1.7-1.1 3.9 0.6 0.8 1.5-9.1 18.3-4.3 23.7 1.4 25.5 1.5 4.3-1.4 0.8-1.4 0.5 0.8-4.1-1.4-3.4-4.9-6.1-2-5 1.7-2.1 2.8-2 1.5-4.6-1-3.4-2.5-3.9-3.4-3.3-3.7-1.8-5.9 0.7 0.3 2.9 3.1 1.9 2.5-2.7 1.5 0 3.2 3.4 1.4 2.1 0.5 2.6-0.7 3.4-2.9 4.3-0.3 3.2-1.1 3.8-3.5 0.1-8.1-2.4-1 0.7 2.4 1.4 4.7 2 1.2 1.5 0.8 2.2 0.4 2.4 0.2 2.6-0.4 1.8-1.8 3.7-0.4 1.5 0.4 1.1 0.6 1.1 0.5 1.2-0.3 1.4-1 1.2-1.1 0.6-1 0.3-0.7 0.6-3.6 4.7-1.1 0.8-1.7 0.5-1.9 1.5-1.6 1.8-0.9 1.7 2.6 1.7 3.1 2.9 2.6 3.1 1.7 3.8 1.4 1 1.9 0.7 2 0.3 2.9-0.4 0.2-0.9-0.8-1.3-0.3-1.5 1.3-3.9 1.1-2 1.7-0.8 3.3-0.1 1.8 1.6 9.1 36.3 0.4 7.1-0.1 2.5-0.2 1.6-0.8 1.2-1.5 1.4-0.4-0.5-2.8 0.5-2.6 0.9-0.3 0.5-1.5 0.7-1.9 2.8-1.8 0.7-2.4 0-1.9 0.3-1.6 0.8-1.6 1.5-1.9 6.2-1.9 9.3-2.7 7-4.1-0.7-1.2 0-6.2 8-1.8 3-1 3.4 0 20.1 6 26.1 4.2 10.3 5.9 9.1 1.8 4.9 4.7 7.5 1.6 1.6 3.6 2.2 1.4 3.8-3.4-2.6-5-5.5-2.9-4.7-3.5-4.6-0.7-0.7-0.4-0.3-1.5-0.5-7.6-1.5-2.2-0.1-1.4 0-0.9 0.5-0.5 0.2-0.5 0-0.7-0.4-0.8-1-0.3-0.8-0.2-0.8 0-1.3-0.1-0.6-0.2-0.4-1-1.1-0.5-0.8-0.3-0.5-0.2-1.1 0-0.6 0.3-3.7-0.1-0.6-0.3-0.4-0.6-0.1-2.7 1.3-0.9 0.3-1.9 0.2-1.5 0.6-0.4 0.3-1.4 0.6-0.8 0.1-0.9-0.2-1.8-0.7-1.2-0.2-1.5 0.3-0.7 0.2-1 0.6-0.3 0.3-0.9 0.5-0.5 0.1-1.2 0.3-1.7 0.9-0.7-0.1-1.1-0.5-1.9-1.6-2.1-2.2-0.3-0.5-0.1-0.5 0.1-0.6 0.1-1.1-0.6-0.3-1.3-0.1-6.1 0.8-2.5-0.9-3.2-1.2-1.2-0.3-0.5-0.1-1.3 0-2 0.3-1-0.1-1.5-0.6-1-0.3-0.6-0.2-1.2-0.7-0.8-0.4-0.7-0.1-0.6 0-0.8-0.5-0.9-1.2-4-6.6-1.7-2.2-5.5-5.5-7.7-5.6-9.2-4.7-1.8-1.3-1.7-1.9-1.5-3-0.4-2.5-0.1-2.5-1.2-2.7-3-3-15.5-9.7-5.6-3.5-13-4.8-0.7-7.7-1.4-7.6 0-2.6 0.6-3.9 2.7-9.5 1.9-4.6 0.4-2.2 0.1-1.6-2-6.2-2.1-5.1-0.2-5.2 0.2-2.4-0.5-1.2-1.2-1.3-1.6-1.4-2.9-5.4-4-13.7-1-3.3-1.4-2.6-0.2-0.6-0.1-0.9 1.5-1.3 7.6-3.2-24.9-12-1.3-2-12.4-31.3-2.5-11.9-0.3-6.6 1.2-4.5-0.6-3-6.9-12.3-1.1-1.2-1.4-1.2-1.4-1.5-1.4-2.4-1-3.2-0.8-6.5 0.2-3.4 0.5-2.4 1.2-2.7 0.2-1.2-0.4-1.3-1.2-2.1-2.6-2.6-4.1-6.2-4.2-9.5-1.2-1.9-5.6-5.2-4.7-6.9-1-1-2.2-1.1-0.3-0.7 0-0.9 0.5-3.1-0.2-3.7-0.9-2.5-1.7-3.2-1.1-1.4-1.2-1-1.7-1-1.6-2.4-0.9-0.4-5.8-4.4-3.6-1.9-3.6 0-3.7 3.4-1 2.4-0.7 5.6-0.9 2.9-0.5 0-1.7 1-1.4 1.2 0.1 0.6-0.6 0.3-2.6 2.5 1.9 3.2 0.2 3-1.5 1.6-3.3-1.1-5-10.8-1.5-6.8-0.9-2.2-1.9-3.8-0.2-1.9 0.3-2 0.8-1.6 1.3-1.3 1.7-0.9 2.9-0.2 2.1 0.3 2.4 0.1 1.9-0.7 2.2-1.9 0.6-2 0-3.1 0.7-1 1.9-0.3 1.7 0.4 3.4 1 2.2 0.3 2.3-0.1 2.8-0.5 5.3-1.6 1.9-0.3 11.6 2.1 2.5 0.8 0.8-1 2.4-1.5 1.2-1.1 2-3.1 1.4-3.3 3.9 0.8 4.4-3.1 4.1-3.9 2.8-2 2.4-0.2 3.6-1 2.7-0.1 2.5 0.6 1.2 0.9 1 0.1 2.1-1.6 1-0.5 0.9 0.2 0.5-0.2 0.4-2.9 0.8-2 0.2-0.7 0.3-2.9 1.2-6.7 0.8-1.6 4.1-4.6 1.4-1.1 0.8-0.5-0.4-0.2-1.1 0.1-0.5 0.2-2.1 1.3-1.2 0.3-0.6 0-1.1-0.3-0.9-0.6-0.6-0.7-0.6-0.8-2.8-5.9-1.2-3.8-0.2-0.5-1.6-2-0.7-0.6-0.9-0.5-0.6-0.1-0.9-0.5-1.4-1.3-0.8-0.4 0.6-1.4 0.6-1 8.4-11.3 50.3-6.2 27.2-0.1 3.8-0.5 2.5-0.9 2.3-2.6 2.1-1.4 1.5-0.5 1.2 0 1.5 0.1 1 0.3 1.3 0.6 1.3 0.9 2.3 0.6 1.9 0 11.7-3.3 2.7-0.4 1.5 0.4 0.5 1 3.7 11.9 0.8 1.4 1.1 1.3 1.3 0.2 1.7 0.9 4.7-1.5 3 0.6-0.6-0.9-1-2-1-1 3.6 0.6 3.1 1.2 2.3-0.5 1.6-4.2 1.3 0.9 0.9 0.1 1.8-1 1.3 0 1.8 1.1 0.7-0.9-0.2-2-1.1-2.3 2.1 0.4 0.8 0.5 2.9 0.2 15.8 0.7 3.7 0.6 2 0.8 1.5 0.9 2.1 0.9 3.3 0.9 1.5 0.8 0.8 0.9-0.2 1.1-0.4 1.2-0.7 1.2-3.7 4.5-0.7 1.1-0.4 1.2-0.1 1.1 0.1 1.1 0.6 0.9 0.8 0.8 14.7 10.7 19.1 11.2 3.6 1.2 8-0.4 9.7 0.7 3.6-0.5z" id="NIC644" name="Atlántico Sur" data-id="NIC644" data-name="Atlántico Sur">
 </path>
 <path d="M315.2 637l-1 2.1-4 7.3-1.1 5 0.7 4.9 0.8 3.3 0.1 2.4-0.5 1.7-2.3 3.3-1.8 3.6-0.8 6.2 0.2 2.8 0.5 1.8 3.5 4.4-6.8 4.6-0.6 0.7-1.3 2.5-5.6 10.4-0.2-0.6-6.1-2.7-7.2-7.1-17.9-7.9-3.1-2.2-2.6-3.1-2.2-6.2-23.3-17.9-1.1-1.5 4.9-4.8 1.9-1.2 1.5 0 1.2-0.2 2.2-0.6 1.1-0.4 0.8-0.3 2.4-2.4 2-3 5.3-3.9 1.4-1.4 3.8-6.2 12.2-9.9 2.3-3.6 2.1 2.6 17.8 7.2 5.7 2.7 2.6 3.6 0.4 0.4 10.4 3.1 1.7 0.5z" id="NIC654" name="Carazo" data-id="NIC654" data-name="Carazo">
 </path>
 <path d="M358.2 568.8l1.2 3.8 0.3 3 0.3 1.5 1 1.3 1.7 1.2 3.1 1.2 5.3 4.7 10.5 14.6 14.5-1 26.1 72.9-72.4-0.4-6.3 1.9-8.7 2.2-0.9-0.3-2.6-2.8-0.9-0.5-1-0.2-0.8 0-0.5 0.3-0.6 0.6-3 6.6-2.2 3.4-0.7 0.6-5.4 2.7-0.7 0.7-1.4 0.2-4.6-1.2-3.5-4.4-0.5-1.8-0.2-2.8 0.8-6.2 1.8-3.6 2.3-3.3 0.5-1.7-0.1-2.4-0.8-3.3-0.7-4.9 1.1-5 4-7.3 1-2.1 5.5-12.4 0.7-1.5 7-15.6 7.9-17.3-0.7-3.1-6.4-7.4 16.3-7.4 6.1-4.4 1.7-0.6 1.4 0 3.5 1.5z" id="NIC655" name="Granada" data-id="NIC655" data-name="Granada">
 </path>
 <path d="M425.4 334.7l-10.9 7.1-3.7 1.4-4.6 0.1-4.1 2.7-2.7 3.2-2.9 4.6-3.4 5.8-14.2 16.8-7.3 6.4-2.1 1.2-9 7.8-11.1 10.5-4.2 3-2 0.7-2.5 0.3-7-0.3-2.4 0.4-0.9 0.5-2.6 3.1-6.7-5.1-3-3.1-2.8-1.7-1.8-0.7-2.6 0.1-1-0.1-3.1-3.7-8.5-5.1-14.7-14.7-1.3-2.1-1.3-2.8 2.3-3.8 0.6-3.3-0.5-2.5 2.8-8.4-1.8-8.5 0.1-4.3 0.5-3.4 1.1-3.1 1.7-3 7.2-7.7 3.1-2.8 3.1-0.5 2.8-0.2 2.4 1.1 1.8-2.2 7.6-6 1.8-2.3 1.9-2.3 2.2-0.9 2.1 2.6 1.9-0.9 10.1-0.9 3.4 0.3 2.2 1.2 1.6 1.5 1.8 1 2.6-0.3 1.4-1 3.3-4.7 4.3-3.2 3.6-1.8 2.1-2.6-0.3-12 0.6-5 1.8-4.6 5.6-9.7 0.8-2.4 0.6-2.7 0.3-9.5 1.2-3.2 1.9-2.3 4.7-2.9 0.1 0.1 1.8-1.7 1.6-3.2 0.4-3.1-1.1-2.3-2.9-1-0.8-1.7 0.9-3.9 1.9-6 0.2-4.4 1-1.1 2 0.5 3.4 0.2 2.5-1.2 4-3.4 1.6 0.5 1.2 0-0.1-1 0.3-0.2 0.6 0 0.6-0.2-0.7-2.1 6.9-2.1 1.9-2 1.8-2.7 4.3-1.5 4.8-0.8 3.7-1.3 1.8-2.7 0.4-3.2 1.2-2.7 7-1.9 3.3-1.9 5-4 2.3-2.8 2.1-3.9 1.6-3.8 1.4-5.2 1.9-3.1 2.3-3 1.8-1.8 0.9-0.1 2.1 0.3 0.8-0.2 0.5-0.6 0.6-1.5 1.4-1.7 0.7-1.3 1.1-1.1 1.8-0.5 4.7-2.3 2-0.5 7.4 0 4.8-0.8 4.9-1.6 4-2.5 2.2-3.3-0.2-4.6-2.5-4-3.5-3.2-3.1-2.1 5.3-4.1 0.3-1.2-0.5-3.1 0.2-1.3 4.5-4.8 0.7-1.3 0.4-10.2 0.9-5.6 1.5-2.8 3.6 0.9 3.1 3.4 3.3 2.5 4.1-1.9 6.9-7 1.2-2.8 0.9 0.1 1.4 0.4 0.6 0.3 0.6 0.5 0.5 0.7 0.4 0.9 0.3 1.2 0 1.3-1 2.9-0.3 1.2 0.1 1.2-0.1 0.9-0.4 2.1-0.1 1.2 0.1 1.7-0.2 1.9 0.2 0.6 0.3 0.5 2.6 2.1 2.9 1.5 0.9 0.9 0.7 1.2 0.3 1.6-0.3 1.9-2.2 3.8-0.3 1.3 0.2 4.4-0.2 1-1.5 2.7-0.4 1.3 0.1 1.4 0.5 1.4 3.7 4.8 3.2 3.1 2.8 3.4 1 0.6 1.4 0.4 17.4 1.1 0.5 2.8-0.3 4.9-4.2 23-0.7 9.3 1.8 7.3-0.3 2.4-1.8 3.9-11.9 20-24.7 39.7-1 1-0.9 0.4-18.6-8.6-0.7 0.2-23.7 14.9-0.4 0.1-15.7 2.2-1 1.1-0.9 1.8-1.7 4.8-1.6 2.4-1.3 1.6-2.1 1.4-0.3 1.2 0.2 1.8 1.5 3.4 1.3 2.2 1 2.7 0.3 1.9-2.1 6.2-0.1 3.7 0.1 0.9-0.2 1.9-0.7 1.6-2.1 1.8-10.6 6.8-6.1 5.4-1.1 2.7 0 7.1z" id="NIC656" name="Jinotega" data-id="NIC656" data-name="Jinotega">
 </path>
 <path d="M957 179.4l0.2 0.4-0.3 0.1-0.3-0.4 0.4-0.1z m-5.5-4.3l0.2 0.5-0.2 0.1-0.3-0.4 0.3-0.2z m-0.7-1l0.2 0.5-0.3 0.1-0.3-0.4 0.4-0.2z m-2.7-3.4l0.2 0.5-0.2 0.1-0.3-0.4 0.3-0.2z m-29.2-19.1l0.2 0.4-0.3 0.1-0.3-0.4 0.4-0.1z m-15.5-6.3l0.2 0.5-0.3 0.1-0.3-0.4 0.4-0.2z m1.4-1.1l0.2 0.4-0.2 0.2-0.3-0.4 0.3-0.2z m-3.9-1.6l-0.4 0.2-0.1-0.3 0-0.4 0.6-0.4 0.1 0.4-0.2 0.5z m33.3-13.7l0.2 0.5-0.3 0.1-0.3-0.4 0.4-0.2z m-30.9-4.4l0.1 0.5-0.2 0.1-0.3-0.4 0.4-0.2z m62.2 9.7l-3.5 1.6-10.4-0.9 0.5-0.1 0.2-0.5-0.1-0.8 3.1-1.8 1.3-2.2 0.7-2.4 1.4-1.9 3.2-1.5 2.6 0 1.7 1.6 0.6 3.3-1.3 5.6z m5.1-17.3l0.2 0.4-0.3 0.1-0.3-0.4 0.4-0.1z m-1.4-0.1l-0.4 0.1 0.1-0.6 0.4 0.1-0.1 0.4z m-34.3-1.7l0.2 0.5-0.3 0.1-0.3-0.4 0.4-0.2z m12.4-4.6l0.1 0.4-0.2 0.2-0.3-0.4 0.4-0.2z m-1.3-0.9l0.1 0.5-0.2 0.1-0.3-0.4 0.4-0.2z m-36.7-2.2l0.2 0.4-0.2 0.1-0.3-0.4 0.3-0.1z m11.4-10.3l0.2 0.4-0.2 0.1-0.3-0.4 0.3-0.1z m74-0.5l0.2 0.4-0.2 0.1-0.4-0.4 0.4-0.1z m-29.2-1.4l0.2 0.4-0.3 0.2-0.3-0.4 0.4-0.2z m33.3-0.9l0.2 0.5-0.2 0.1-0.3-0.4 0.3-0.2z m-78.5-0.4l0.1 0.5-0.2 0.1-0.3-0.4 0.4-0.2z m75.3 0l0.1 0.5-0.2 0.1-0.3-0.4 0.4-0.2z m-11.5-11.4l0.1 0.5-0.2 0.1-0.3-0.4 0.4-0.2z m-6.2-2.6l0.1 0.4-0.2 0.2-0.3-0.4 0.4-0.2z m-167.6 322.4l-3.6 0.5-9.7-0.7-8 0.4-3.6-1.2-19.1-11.2-14.7-10.7-0.8-0.8-0.6-0.9-0.1-1.1 0.1-1.1 0.4-1.2 0.7-1.1 3.7-4.5 0.7-1.2 0.4-1.2 0.2-1.1-0.8-0.9-1.5-0.8-3.3-0.9-2.1-0.9-1.5-0.9-2-0.8-3.7-0.6-15.8-0.7-2.9-0.2-0.8-0.5-2.1-0.4 1.1 2.3 0.2 2-0.7 0.9-1.8-1.1-1.3 0-1.8 1-0.9-0.1-1.3-0.9-1.6 4.2-2.3 0.5-3.1-1.2-3.6-0.6 1 1 1 2 0.6 0.9-3-0.6-4.7 1.5-1.7-0.9-1.3-0.2-1.1-1.3-0.8-1.4-3.7-11.9-0.5-1-1.5-0.4-2.7 0.4-11.7 3.3-1.9 0-2.3-0.6-1.3-0.9-1.3-0.6-1-0.3-1.5-0.1-1.2 0-1.5 0.5-2.1 1.4-2.3 2.6-2.5 0.9-3.8 0.5-27.2 0.1-50.3 6.2-3.6-5.4-19.4-24.8-1.2-2.1-0.6-0.7-0.8-0.2-17.7 16.5-1.8 0.8-3 0.3-12.9-0.3-6.5 0.6-4.9 2.9-2.6 3.6-1.5 3.6-2.3 7-2.5 5-1.6 2-1.9 1.4-5.6 2.6-5.1 1.3-2.1-0.3-6-2.5-1.4-2-2.3-0.3-0.3-0.4-0.3-1.8-0.4-0.6-0.6-0.5-2.8-1.4-1.4-1-0.8-0.2-0.7 0-1 0.3-1.2 0.1-1.2-0.1-0.9-0.5-5.6-5.2-1.1-0.8-0.9-0.5-2.6-1.1-3.9-3.8-9.9-13.4-4.1-9.1 0-7.1 1.1-2.7 6.1-5.4 10.6-6.8 2.1-1.8 0.7-1.6 0.2-1.9-0.1-0.9 0.1-3.7 2.1-6.2-0.3-1.9-1-2.7-1.3-2.2-1.5-3.4-0.2-1.8 0.3-1.2 2.1-1.4 1.3-1.6 1.6-2.4 1.7-4.8 0.9-1.8 1-1.1 15.7-2.2 0.4-0.1 23.7-14.9 0.7-0.2 18.6 8.6 0.9-0.4 1-1 24.7-39.7 11.9-20 1.8-3.9 0.3-2.4-1.8-7.3 0.7-9.3 4.2-23 0.3-4.9-0.5-2.8-17.4-1.1-1.4-0.4-1-0.6-2.8-3.4-3.2-3.1-3.7-4.8-0.5-1.4-0.1-1.4 0.4-1.3 1.5-2.7 0.2-1-0.2-4.4 0.3-1.3 2.2-3.8 0.3-1.9-0.3-1.6-0.7-1.2-0.9-0.9-2.9-1.5-2.6-2.1-0.3-0.5-0.2-0.6 0.2-1.9-0.1-1.7 0.1-1.2 0.4-2.1 0.1-0.9-0.1-1.2 0.3-1.2 1-2.9 0-1.3-0.3-1.2-0.4-0.9-0.5-0.7-0.6-0.5-0.6-0.3-1.4-0.4-0.9-0.1 0.3-0.6-5.1 0 1.2-1.6 4.3-4-5.6-4-1-2 3-0.8 1.1-0.5 0.6-1.2 1-7.4 1.7-3.2 2.7-2.5 3.4-2.3 3.5-2.5 8.9-8.7 3.2-1.9 11.7-2.1 5.1-0.2 5.1 1.5 4.2 3.2 2.9 4.8-0.6 0.6-1.5 1.9-0.1 0.4 3.8 0.5 0.6 2.5-0.2 2.6 4 2.7 2 3.4 2.9 6.9 3.6-2.2 3.8 0.4 7.5 3.3 4.4 1 14.2 0.4-0.7 1.4-0.6 4 2.9-1 2.1 1.2 2 1.7 3 0.9 2.2-0.6 5-2.8 7.3-2.6 3.6-4.4 2.7-5.1 2.5-3.8 1.9 1.9 1.4 5.2 1.5 1.1 3 0.3 4.7 1.1 2.2 0.1 4-2.1 1-4.4-1-9.5 1-2.4 2.5-0.2 2.7 1 1.7 1 1.5 1.3 4.6 4.9 2.4 1 2.9-0.2 4.7-1.4 1.2-0.7 0.7-0.9 1-0.9 1.8-0.4 1.7 0.3 0.9 0.5 0.8 0.1 1.3-0.9 0-1.5-1.7-1.6-1.3-1.9-2.3-4.7 2.1-1.8 1.5-0.1 4.4 2.8 0.5 1 0.8 0.7 2 0.3 3.3-0.2 1 0.6 0.4 1.6 3.3 0.4 19.3-1.1-1-1.6 0-1.9 1-4.6 2.3 1.3 3.2 3.4 2.4 0.7-0.2-0.9-1-1.9 1.5 0.6 0.7 0.2 0.7 0.5 1.1 1.5 2.4-2.2 3.5-1.9 3.8-1.3 3.6 0-1.5-1-1-1-1.3-2.4 10.8-0.6 4.1-1.6-0.4-3.2 2.4-0.1 2 0.3 1.5 0.9 0.7 1.7 1.5 0-1.9-5.8 0.8-2.2 3.6-1.8 3.9-0.5 4.3 0.2 3.6 1.1 1.6 2.1 1.5 0 0.8-2.4 0.4-2.8 1-2.1 4.7-1.8 4.9-3.9 2.8-0.9-0.4-0.7-0.5-1.4-0.4-0.6 2.8 0.8 1.1 0.6-0.6-2.7 0.3-2.4 1.1-0.9 1.9 1.8 0.1-3 0.3-1.3 1.1-1.3-1.4-2 0.7-1 2-0.2 2.5 0.4 1.1 1 2.3 3.7 1.8 1 4.6-0.6 3.9-2.3 3.1-3.4 1.8-3.5 2.5 2 2.5 1 2 1.2 1 2.7 3-2 3.3-0.2 8.6 0.9-2.3 1.2-0.2 1 1.4 1 2.4 1 0.8-0.2 8.6 0.2 5.2-2.4 2.7-0.5 6.6 0.4 2.5-0.5-1.4 2.1-3.6 1.7-1.7 1.9-2.9-3.4-2.3 2.3-1.9 4.3-1.4 2.3-2.5 1.2-2.4 2.9-1.8 3.4-0.7 2.8-0.5 1-2.4 2.4-1 1.4-0.5 2-0.4 4.3-0.5 2-1.6 2.5-2.3 1.8-6.7 2.7 0.5-1.2 0.5-1 1.6-1.9 0 1.5 0.7-1.2 0.4-0.9 0.1-1 0.1-1.3-1.6 0.9-0.6 0.2-1.7-1.1 0-1.3 2.3-1.1 2.2-0.2 2 0.7 1.5 1.9-0.2-3.8-2.1-5.2-0.5-4.1-1.2-4-2.8-0.7-3.2 1.2-2.3 1.4-3.8 3.6-8.6 11.2-2.1 4.8 2-2 0.6-0.9 2.7 2.1 2.1 8.3 1.3 1.8 2.6 1.6 2.8 2.7 2.9 1 3-3.8-1.4-1.2-3.6-2.2-1.6-0.7 2.1-1.2 2.3 0.7 2 1.9 1.6 2.7-0.1-4.5 1.4-1.5 1.8 1.8 7.6 35.2 0.4 1.2 1.8 3.7 1.6 9.6 9.5 27.6 1 7.9-0.9 6.9-5.3 12.7-16.2 26.2-7 8.5-1 3.3-1.4 2.5-9.2 6.5-3.9 5.6-2.7 6.4-4.7 18.6-7.5 25.3-4.6 22.9 0.3 9.8-0.9 4.8 0 3.8-4.1 10-3.4 13.2-2.2 25.8 0.4 4.8 1.4 2.8-1.5 1.2 1.1 2.5 6.5 39.6z" id="NIC657" name="Atlántico Norte" data-id="NIC657" data-name="Atlántico Norte">
 </path>
 <path d="M277.9 439.1l-0.6 5-2.3 19.8-2 17.5-7.7 4.8-2.7 2.7-1.7 2.2-0.5 1.1-0.2 1.1 0 0.7-0.3 2 0 0.7 0.1 0.6-0.1 0.9-0.2 1.3-1.2 3.5-0.2 0.9 0.1 0.6 0.4 1 0.2 0.5 1.8 2.7 1.2 1 0.3 0.4 0.1 0.5 0.1 1.3 0.1 0.6 0.2 0.8-0.3 0.6-0.8 0.9-18.9 18.8-13 13.2-2.7 3.8-0.3 3.1-0.1 14.2 0.3 1.3 0.5 1.2 0.8 0.7 1 0.5 1.3 1.5 0.2 3.6-2.4 5.5-3.8 4.4-7.4 5.7-1.1 0.5-0.6 0-2.7-0.5-2.8-1.1-0.8-0.1-1.1 0.2-2.9 1.1-1.4 0.3-0.7 0.3-0.5 0.4-0.3 0.4-0.2 0.4 0 0.6 0 0.6 0.4 1.1 1.3 2.7 0.9 1.1 0.3 0.5 0.1 0.7-0.1 1-0.8 1.5-0.7 0.7-4.8 3.6-3.8-4.7-7.3-12.8-6.8-18.8-2-3-4.8-4.2-39.9-24.5-2.5-3.1-11-6.3-5.9-6.4-13.5-6.1-0.5-4.6 2.3 2.9 3.8 2.6 4.5 1.8 4.2 0.8-4.5-4.9 4.3-2.6 9.6-1.1 3.4-1.5 3.3-1.9 1.8-1.1 10.1-10.6 3.9-6.4 1.5-3.9 0.8-1.3 3.8-3.6 4.9-5.4 4.8-5.2 3.8-1.7 3.7-4.5 2.8-5.3 1.3-1.4 2.2-1.1 14-1.9 2.8-0.7 1.5-0.6 3.5-2.2 2.4-5.6 0.6-6.2-1.8-24.2-2.4-5.6-2.7-4.3-4.1-9.5-1.9-6.8 3.4-1.4 1.9-0.1 2.6 0 3 1.1 3.8 1.8 2.3-0.2 4-0.8 12.8-4.4 10.9-2.3 2.4 0.7 1.5 0.7 3.5 3.6 5.1 8.5 2 2.7 1 1.8 1.4 4.9-0.5 6.3-4.2 7.7-0.3 2.3 0 1.7 2 3.5 6.5 3.2 23.9 7z" id="NIC658" name="León" data-id="NIC658" data-name="León">
 </path>
 <path d="M334.7 504.3l-1.2 3.5 0.8 6.7 0.9 2.8 1.3 2.3 2.5 3.3 4.9 5.4 0.7 1.1 0.2 1.2-0.4 4 0 3.3 0.3 1.4 0.6 1.1 17 16.1 0.4 0.7-0.3 1.2-3.2 4.9-1 5.5-3.5-1.5-1.4 0-1.7 0.6-6.1 4.4-16.3 7.4-3.5-0.9-1.1-0.6-0.3-0.1-0.6-0.1-3.3 0.5-6.7 2.7-5.7 1-3.5 2.7-11.8 11.7 0.6 2.5 2.8 2.9 1.1 1.5 0.5 1.2-0.2 4.5-2.2 3.5-1.1 1.3-1.2 1.1-1.6 0.9-1.8 0.5-1.5 0.1-2.3-0.6-1.4-0.6-5.3-4.2-4.6 5.7-2.3 3.6-12.2 9.9-3.8 6.2-1.4 1.4-5.3 3.9-2 3-2.4 2.4-0.8 0.3-1.1 0.4-2.2 0.6-1.2 0.2-1.5 0-1.9 1.2-4.9 4.8-2.6-3.3-5.2-11.8-2.2-1.7-1.9-1.1-5.1-5.2-3.1-4.4-3.3-6.2-0.6-3-1-2.8-2.2-2.3-4.8-3.7-0.8-1 4.8-3.6 0.7-0.7 0.8-1.5 0.1-1-0.1-0.7-0.3-0.5-0.9-1.1-1.3-2.7-0.4-1.1 0-0.6 0-0.6 0.2-0.4 0.3-0.4 0.5-0.4 0.7-0.3 1.4-0.3 2.9-1.1 1.1-0.2 0.8 0.1 2.8 1.1 2.7 0.5 0.6 0 1.1-0.5 7.4-5.7 3.8-4.4 2.4-5.5-0.2-3.6-1.3-1.5-1-0.5-0.8-0.7-0.5-1.2-0.3-1.3 0.1-14.2 0.3-3.1 2.7-3.8 13-13.2 18.9-18.8 0.8-0.9 0.3-0.6-0.2-0.8-0.1-0.6-0.1-1.3-0.1-0.5-0.3-0.4-1.2-1-1.8-2.7-0.2-0.5-0.4-1-0.1-0.6 0.2-0.9 1.2-3.5 0.2-1.3 0.1-0.9-0.1-0.6 0-0.7 0.3-2 0-0.7 0.2-1.1 0.5-1.1 1.7-2.2 2.7-2.7 7.7-4.8 33.1 7.4 3.5 1.1 2.9 2.7 3 3.4 2.1 1.7 1.9 1.3 12 4.6 3.2 0.7z" id="NIC659" name="Managua" data-id="NIC659" data-name="Managua">
 </path>
 <path d="M329.2 579.7l6.4 7.4 0.7 3.1-7.9 17.3-7 15.6-0.7 1.5-5.5 12.4-1.7-0.5-10.4-3.1-0.4-0.4-2.6-3.6-5.7-2.7-17.8-7.2-2.1-2.6 4.6-5.7 5.3 4.2 1.4 0.6 2.3 0.6 1.5-0.1 1.8-0.5 1.6-0.9 1.2-1.1 1.1-1.3 2.2-3.5 0.2-4.5-0.5-1.2-1.1-1.5-2.8-2.9-0.6-2.5 11.8-11.7 3.5-2.7 5.7-1 6.7-2.7 3.3-0.5 0.6 0.1 0.3 0.1 1.1 0.6 3.5 0.9z" id="NIC660" name="Masaya" data-id="NIC660" data-name="Masaya">
 </path>
 <path d="M186.6 355.1l0.2 0.3 3.7 0.8 1.1 0.9 0.6 1.7 0.2 1.5-0.1 1.2-0.3 1.1-0.2 0.5-1.7 5.6-2.1 1.9-0.2 0.2-0.5 1.8-0.6 6.3 2.2 11.9 1.9 6.8 4.1 9.5 2.7 4.3 2.4 5.6 1.8 24.2-0.6 6.2-2.4 5.6-3.5 2.2-1.5 0.6-2.8 0.7-14 1.9-2.2 1.1-1.3 1.4-2.8 5.3-3.7 4.5-3.8 1.7-4.8 5.2-4.9 5.4-3.8 3.6-0.8 1.3-1.5 3.9-3.9 6.4-10.1 10.6-1.8 1.1-3.3 1.9-3.4 1.5-9.6 1.1-4.3 2.6-0.3-0.4-2.5-2-2.7-0.8-1.7-1.3-4.4-8.4-1.2 0 2 7.4-3.2-2.8-5.1-6.4-3.7-3.6-2.4-1.1-12.2-9.4-1.6-1.7-0.9-2.1-1-3.5-0.6 1.1-1.5 1.9-0.6 1-21.4-24.9-2.5-5.2 0.8 0.9 0.8 0.6 2.3 1.2 0-1.2-0.9-0.4-1.7-1.1 0-1.3-0.5-2-3.3-2.7-4.4-2.4-3.9-1 0 1.2 5.2 3.4 2.7 2.5 0.1 2.3-2-0.3-2.9-2.2-4.3-4.2-22.8-13.8-4.8-4.2-2.9-4.9 0-5.9 3.7-6.9 5.5-4.9 5.6-3.5 4.1-4.4 1-7.7 1.2 0-0.6 4.3-0.6 1.2 2.1 0 2.7 0.3 2.2 0.7 0.9 0.9 1 0.6 4.9 4.3 1.2 0.7 3.6 4.7 0.8 0.7 2.5 1.5 0.7 0.6 0.1 1.3-0.4 3 0.3 1.3 6.3 6.3 8.3 1.8 20.1-1.2 0-1.5-10.2 0.3-5.1-0.6-2.2-1.8 2-3.2 9.4-4.7 1.3-0.9 44.7-2.9 2.8 0.3 4.5 2.8 2.3 0.2 1.1-3.3 4-2 5-3.2 2.2-2.4 4.6-7.1 1.1-0.9 2.9-1.4 1-1.1 0.5-1.9-0.8-0.7-1.1-0.5-0.5-1.3 1.7-10.5-0.4-0.5-1.4-3.2-0.4-1.2 0.3-0.5 1.5-5.7 1.3-2.6 1.6-2 9.4-8.1 2.6-1.8 3.1-0.9 3.3 0.3 11.2 5.6 1.9 0.6 1.8-0.5 1.4-1z" id="NIC663" name="Chinandega" data-id="NIC663" data-name="Chinandega">
 </path>
 <path d="M287.8 330.7l-1.7 3-1.1 3.1-0.5 3.4-0.1 4.3 1.8 8.5-2.8 8.4 0.5 2.5-0.6 3.3-2.3 3.8 1.3 2.8 1.3 2.1 14.7 14.7 8.5 5.1 3.1 3.7-7.4 10.1-1.2 5.1-0.5 1.1-0.9 1.1-1.6 1.1-2.4 0.9-5 1.1-2.3 0.8-4.3 2.5-1.6 1.4-0.6 0.8-3.1 6.5-1.1 7.2-23.9-7-6.5-3.2-2-3.5 0-1.7 0.3-2.3 4.2-7.7 0.5-6.3-1.4-4.9-1-1.8-2-2.7-5.1-8.5-3.5-3.6-1.5-0.7-2.4-0.7-10.9 2.3-12.8 4.4-4 0.8-2.3 0.2-3.8-1.8-3-1.1-2.6 0-1.9 0.1-3.4 1.4-2.2-11.9 0.6-6.3 0.5-1.8 0.2-0.2 2.1-1.9 16.3-16.5 3.6-5.2 1.7-3.5 8-14.1 7.8-6.7 5.1-0.8 2.1 0.6 2.8 1.4 8.4 4 8.2-1.4 14.9-4.8 10.9-0.6 3.6 1.2 0.8 1.3 1.9 4.4 1.6 2.7z" id="NIC664" name="Estelí" data-id="NIC664" data-name="Estelí">
 </path>
 <path d="M317.6 310.1l-1.8 2.3-7.6 6-1.8 2.2-2.4-1.1-2.8 0.2-3.1 0.5-3.1 2.8-7.2 7.7-1.6-2.7-1.9-4.4-0.8-1.3-3.6-1.2-10.9 0.6-14.9 4.8-8.2 1.4-8.4-4-2.8-1.4-2.1-0.6-5.1 0.8-7.8 6.7-8 14.1-1.7 3.5-3.6 5.2-16.3 16.5 1.7-5.6 0.2-0.5 0.3-1.1 0.1-1.2-0.2-1.5-0.6-1.7-1.1-0.9-3.7-0.8-0.2-0.3 1.4-1 2.7-2.4 1.5-2.7 0.4-3-1.2-5.8-0.4-1.2-1.4-2.5-1.2-1.2-1.4-0.3-1.1-0.6-0.8-2 0.3-2.9 2.5-5.5 0.3-3.1-6.3-24-0.1-3.5 1.2-6.4-0.1-3.2-0.7-1.3-1.7-1.3 1.6-1.2 1.5-2 0.6-0.7 0.9-0.6 4.3 0 13.6 2.5 3.9 5.8 0.8 1.7 1.8 1.9 2.1 1.5 3.3 1.3 2.2 1.3 2.4 2.1 3.1-1.5 1.9-1.9 4.4-1.1 2-0.3 14 0.3 10.8 3.5 6.3-0.1 8.1-1 2.2 0.3 3.1 0.9 3.7 2.3 6 2.7 1.7-2.2 1.2-5.7 0.6-1.3 0.6-0.9 4.3-1.7 3.7-1.3 6.8 5.5 1.6 1.6 1.9 2.4 4.3 7.7 5.8 7.1z" id="NIC665" name="Madriz" data-id="NIC665" data-name="Madriz">
 </path>
 <path d="M572.4 365.7l-8.4 11.3-0.6 1-0.6 1.4 0.8 0.4 1.4 1.3 0.9 0.5 0.6 0.1 0.9 0.5 0.7 0.6 1.6 2 0.2 0.5 1.2 3.8 2.8 5.9 0.6 0.8 0.6 0.7 0.9 0.6 1.1 0.3 0.6 0 1.2-0.3 2.1-1.3 0.5-0.2 1.1-0.1 0.4 0.2-0.8 0.5-1.4 1.1-4.1 4.6-0.8 1.6-1.2 6.7-0.3 2.9-0.2 0.7-0.8 2-0.4 2.9-0.5 0.2-0.9-0.2-1 0.5-2.1 1.6-1-0.1-1.2-0.9-2.5-0.6-2.7 0.1-3.6 1-2.4 0.2-2.8 2-4.1 3.9-4.4 3.1-3.9-0.8-1.4 3.3-2 3.1-1.2 1.1-2.4 1.5-0.8 1-2.5-0.8-11.6-2.1-1.9 0.3-5.3 1.6-2.8 0.5-2.3 0.1-2.2-0.3-3.4-1-1.7-0.4-1.9 0.3-0.7 1 0 3.1-0.6 2-2.2 1.9-1.9 0.7-2.4-0.1-2.1-0.3-2.9 0.2-1.7 0.9-1.3 1.3-0.8 1.6-0.3 2 0.2 1.9 1.9 3.8 0.9 2.2 1.5 6.8 5 10.8 0.1 2.2-0.2 1.9-0.5 1.6-0.7 1.3-1.4 0-0.9-0.9-1.8-1.2-1.8-0.7-0.8 0.7-0.5 2-1.3-0.4-6.1-6.8-2.2-0.4-3.3 2.2-1.3 0 1-5 0.3-0.6-1.4-1.1-3.1-0.1-3.7-2-6.4-2.3-1.3-0.7-0.7-1.9-1.7-2-1.9-1.5-1.7-0.6-1.2-0.3-1.5 1.1-0.3 0.4-0.3 0.8-0.4 0.9-0.6 0.8-0.4 0.4-0.8 0.5-0.9 0.4-1.6 0.5-0.5 0.2-0.3 0.4-0.2 0.5-1.1 0.3-2 0.2-12.4-0.6-0.7 0.1-0.5 0.2-0.7 0.7-2.5 5.1-0.6 0.8-0.7 0.3-1.2 0.2-3.7 0-0.9 0.2-1.8 0.9-6.3 1.2-2.4 2-0.7 0.4-0.6-0.1-1.1-0.6-3.1-0.6-2.6-0.7-33.8 7.1-3.2 1.6-3.4 7.3-9.3 5.2-1.1 0.8-5.7 5.3-3.2-0.7-12-4.6-1.9-1.3-2.1-1.7-3-3.4-2.9-2.7-3.5-1.1-33.1-7.4 2-17.5 2.3-19.8 0.6-5 1.1-7.2 3.1-6.5 0.6-0.8 1.6-1.4 4.3-2.5 2.3-0.8 5-1.1 2.4-0.9 1.6-1.1 0.9-1.1 0.5-1.1 1.2-5.1 7.4-10.1 1 0.1 2.6-0.1 1.8 0.7 2.8 1.7 3 3.1 6.7 5.1 2.6-3.1 0.9-0.5 2.4-0.4 7 0.3 2.5-0.3 2-0.7 4.2-3 11.1-10.5 9-7.8 2.1-1.2 7.3-6.4 14.2-16.8 3.4-5.8 2.9-4.6 2.7-3.2 4.1-2.7 4.6-0.1 3.7-1.4 10.9-7.1 4.1 9.1 9.9 13.4 3.9 3.8 2.6 1.1 0.9 0.5 1.1 0.8 5.6 5.2 0.9 0.5 1.2 0.1 1.2-0.1 1-0.3 0.7 0 0.8 0.2 1.4 1 2.8 1.4 0.6 0.5 0.4 0.6 0.3 1.8 0.3 0.4 2.3 0.3 1.4 2 6 2.5 2.1 0.3 5.1-1.3 5.6-2.6 1.9-1.4 1.6-2 2.5-5 2.3-7 1.5-3.6 2.6-3.6 4.9-2.9 6.5-0.6 12.9 0.3 3-0.3 1.8-0.8 17.7-16.5 0.8 0.2 0.6 0.7 1.2 2.1 19.4 24.8 3.6 5.4z" id="NIC666" name="Matagalpa" data-id="NIC666" data-name="Matagalpa">
 </path>
 <path d="M379.3 243.8l-4.7 2.9-1.9 2.3-1.2 3.2-0.3 9.5-0.6 2.7-0.8 2.4-5.6 9.7-1.8 4.6-0.6 5 0.3 12-2.1 2.6-3.6 1.8-4.3 3.2-3.3 4.7-1.4 1-2.6 0.3-1.8-1-1.6-1.5-2.2-1.2-3.4-0.3-10.1 0.9-1.9 0.9-2.1-2.6-2.2 0.9-1.9 2.3-5.8-7.1-4.3-7.7-1.9-2.4-1.6-1.6-6.8-5.5-3.7 1.3-4.3 1.7-0.6 0.9-0.6 1.3-1.2 5.7-1.7 2.2-6-2.7-3.7-2.3-3.1-0.9-2.2-0.3-8.1 1-6.3 0.1-10.8-3.5-14-0.3-2 0.3-4.4 1.1-1.9 1.9-3.1 1.5-2.4-2.1-2.2-1.3-3.3-1.3-2.1-1.5-1.8-1.9-0.8-1.7-3.9-5.8-13.6-2.5-4.3 0-0.9 0.6-0.6 0.7-1.5 2-1.6 1.2-0.8-0.6-0.8-1-0.4-1.8 0.8-14.2 0.4-2.8 0.4-1.2 0.9-0.8 2.2-1.6 4.5-2.2 4-0.4 8.5 1.1 15.9-3.1 7.7-0.4 6.4 3.6 3.5 0.9 2.8-0.9 2.6-1.4 2.9-0.4 3.1 3.2 1.1 0.8 1.9 0.6 1.3 0.2 10.1-0.6 3.5-0.9 2.9-1.4 2.3-2.6 1.1-3 1.6-6 3-4.9 12.8-13.7 6.7-10.6 2.1-1.3 2.3-0.9 2.3-1.3 2.3-2.4 1.4-2.5 0.8-2 1-1.7 2.2-2 2.6-1.4 14.9-2.2 0 2.2-2.1 4.3 0.5 5.4 13.8 10 4.2 5.6 1.3 1.2 2.7 0.9 1.8-0.3 1.8-0.8 2.6-0.1 4.3 1.9 2.3 3.4 1.9 4.2 3.1 3.7 4.3 1.5 4.6-0.1 3.9 0.3 2.6 3 0.4 0.1z" id="NIC667" name="Nueva Segovia" data-id="NIC667" data-name="Nueva Segovia">
 </path>
 <path d="M530.1 478.8l-2.5 5-7.4 11-0.7 1.6-0.5 1.6-0.3 2.2-0.1 7.4-0.5 2.2-1.1 2.2-3.2 4.2-2.1 2.1-2.9 2.2-5.7 2.8-2.8 0.5-1.2 0-2-0.2-2.1 0.5-2.9 1.1-11.4 7.9-2.3 1.3-8 2.7-10.5 1.2-14 2.5-8.3-0.3-5.7-0.1-4.8-0.8-2.1-0.1-2.8 0.8-7.4 3.7-5 3.6-0.9 1-1.6 2.1-0.4 1-0.2 1.2 0 4.9 0.5 3.6 0 1.3-0.4 1.4-4 9-0.7 1.1-1.8 3-0.9 1.9-3.3 20-14.5 1-10.5-14.6-5.3-4.7-3.1-1.2-1.7-1.2-1-1.3-0.3-1.5-0.3-3-1.2-3.8 1-5.5 3.2-4.9 0.3-1.2-0.4-0.7-17-16.1-0.6-1.1-0.3-1.4 0-3.3 0.4-4-0.2-1.2-0.7-1.1-4.9-5.4-2.5-3.3-1.3-2.3-0.9-2.8-0.8-6.7 1.2-3.5 5.7-5.3 1.1-0.8 9.3-5.2 3.4-7.3 3.2-1.6 33.8-7.1 2.6 0.7 3.1 0.6 1.1 0.6 0.6 0.1 0.7-0.4 2.4-2 6.3-1.2 1.8-0.9 0.9-0.2 3.7 0 1.2-0.2 0.7-0.3 0.6-0.8 2.5-5.1 0.7-0.7 0.5-0.2 0.7-0.1 12.4 0.6 2-0.2 1.1-0.3 0.2-0.5 0.3-0.4 0.5-0.2 1.6-0.5 0.9-0.4 0.8-0.5 0.4-0.4 0.6-0.8 0.4-0.9 0.3-0.8 0.3-0.4 1.5-1.1 1.2 0.3 1.7 0.6 1.9 1.5 1.7 2 0.7 1.9 1.3 0.7 6.4 2.3 3.7 2 3.1 0.1 1.4 1.1-0.3 0.6-1 5 1.3 0 3.3-2.2 2.2 0.4 6.1 6.8 1.3 0.4 0.5-2 0.8-0.7 1.8 0.7 1.8 1.2 0.9 0.9 1.4 0 0.7-1.3 0.5-1.6 0.2-1.9-0.1-2.2 3.3 1.1 1.5-1.6-0.2-3-1.9-3.2 2.6-2.5 0.6-0.3-0.1-0.6 1.4-1.2 1.7-1 0.5 0 0.9-2.9 0.7-5.6 1-2.4 3.7-3.4 3.6 0 3.6 1.9 5.8 4.4 0.9 0.4 1.6 2.4 1.7 1 1.2 1 1.1 1.4 1.7 3.2 0.9 2.5 0.2 3.7-0.5 3.1 0 0.9 0.3 0.7 2.2 1.1 1 1z" id="NIC668" name="Boaco" data-id="NIC668" data-name="Boaco">
 </path>
 <path d="M600.4 635.7l-7.4-0.2-2.2-0.5-0.9-0.4-1.4-0.2-3 0.3-0.8-0.1-1.6-0.5-0.9 0-3.9 0.8-14.4-0.2-1 0.1-0.9 0.3-0.7 1-12.8 11.9-4.9 3.2-8.3 1.8-2.9 4.5-0.6 1.3-0.2 1.1-0.4 0.5-0.8 0.9-0.5 1-0.2 0.3-1.4 1.5-0.9 1.2-0.6 1.1-0.7 0.4-1.1 0.7-3.7 1.4-0.9 0.1-0.5-0.1-0.9-0.4-1.2 0.5-1.8 1-3.9 2.7-3 1.6-0.9 0.7-0.4 0.6-3.6 6.1-82-9.7-26.1-72.9 3.3-20 0.9-1.9 1.8-3 0.7-1.1 4-9 0.4-1.4 0-1.3-0.5-3.6 0-4.9 0.2-1.2 0.4-1 1.6-2.1 0.9-1 5-3.6 7.4-3.7 2.8-0.8 2.1 0.1 4.8 0.8 5.7 0.1 8.3 0.3 14-2.5 10.5-1.2 8-2.7 2.3-1.3 11.4-7.9 2.9-1.1 2.1-0.5 2 0.2 1.2 0 2.8-0.5 5.7-2.8 2.9-2.2 2.1-2.1 3.2-4.2 1.1-2.2 0.5-2.2 0.1-7.4 0.3-2.2 0.5-1.6 0.7-1.6 7.4-11 2.5-5 4.7 6.9 5.6 5.2 1.2 1.9 4.2 9.5 4.1 6.2 2.6 2.6 1.2 2.1 0.4 1.3-0.2 1.2-1.2 2.7-0.5 2.4-0.2 3.4 0.8 6.5 1 3.2 1.4 2.4 1.4 1.5 1.4 1.2 1.1 1.2 6.9 12.3 0.6 3-1.2 4.5 0.3 6.6 2.5 11.9 12.4 31.3 1.3 2 24.9 12-7.6 3.2-1.5 1.3 0.1 0.9 0.2 0.6 1.4 2.6 1 3.3z" id="NIC669" name="Chontales" data-id="NIC669" data-name="Chontales">
 </path>
 <circle cx="243.9" cy="276.6" id="0">
 </circle>
 <circle cx="614.5" cy="594.4" id="1">
 </circle>
 <circle cx="659.9" cy="558.2" id="2">
 </circle>
</svg>