<?xml version="1.0" ?>
<!DOCTYPE svg
  PUBLIC '-//W3C//DTD SVG 1.1//EN'
  'http://www.w3.org/Graphics/SVG/1.1/DTD/svg11.dtd'>
<svg enable_background="new 0 0 1000 913" height="913px" pretty_print="True" style="stroke-linejoin: round; stroke:#000; fill: none;" version="1.1" viewBox="0 0 1000 913" width="1000px" xmlns="http://www.w3.org/2000/svg" xmlns:xlink="http://www.w3.org/1999/xlink">
utf-8<defs>
utf-8utf-8<style type="text/css">
<![CDATA[path { fill-rule: evenodd; }]]>utf-8utf-8</style>
utf-8</defs>
utf-8<metadata>
utf-8utf-8<views>
utf-8utf-8utf-8<view h="913.31732077" padding="0" w="1000">
utf-8utf-8utf-8utf-8<proj flip="auto" id="robinson" lon0="5.04178393189"/>
utf-8utf-8utf-8utf-8<bbox h="43.6" w="47.79" x="42.63" y="-890.92"/>
utf-8utf-8utf-8</view>
utf-8utf-8</views>
utf-8</metadata>
utf-8<g class="" id="provinces">
utf-8utf-8<path d="M637.4,568.7L618.6,558.5L613.4,557.5L610.8,556.0L607.3,549.5L605.8,548.1L593.9,546.0L577.0,548.0L573.1,547.0L567.9,544.3L562.8,545.9L557.7,549.0L552.4,550.6L541.6,550.0L536.4,552.2L534.4,558.7L533.2,564.4L529.9,568.7L525.3,571.8L520.3,573.8L471.9,578.0L469.5,577.4L472.3,571.9L472.2,566.4L462.2,561.2L459.3,562.0L452.9,561.8L442.8,555.8L438.5,552.2L437.9,549.5L437.7,547.6L431.4,548.1L417.9,545.9L411.0,546.0L401.0,553.4L394.4,555.0L379.8,555.2L372.4,559.8L366.7,564.7L363.1,570.6L350.2,583.2L341.8,583.3L335.7,584.8L324.9,588.9L315.7,591.1L305.5,591.3L278.0,587.0L270.2,598.7L260.0,604.3L245.9,607.2L234.9,607.9L224.1,610.7L224.0,610.9L221.1,617.8L222.2,617.8L225.6,620.4L227.0,626.7L226.9,626.6L226.9,626.6L237.0,638.5L236.8,643.9L233.7,650.5L236.2,650.9L243.7,654.3L249.4,659.8L251.8,667.1L248.4,674.7L243.2,675.9L243.2,675.9L244.7,680.9L243.0,684.5L243.3,688.3L244.5,694.8L247.0,696.5L248.5,701.3L250.9,701.4L260.6,705.5L265.8,706.9L278.2,707.6L283.2,705.4L284.4,699.6L282.7,696.3L276.6,690.7L274.4,687.6L274.5,684.2L276.2,681.6L276.7,679.2L273.4,676.4L287.1,669.9L301.3,665.8L309.1,664.7L312.5,665.2L314.7,668.0L314.5,673.7L312.3,677.9L311.9,681.2L317.1,684.1L320.6,684.3L328.2,683.2L336.8,684.9L340.9,684.7L344.4,683.6L347.1,682.0L367.1,662.0L375.8,658.4L379.7,658.7L384.5,660.1L389.1,662.5L391.9,665.3L392.6,670.4L391.1,675.2L390.1,680.4L392.1,686.2L380.4,681.9L377.4,682.3L376.0,686.3L381.7,688.3L400.4,688.8L405.3,689.8L415.7,693.6L421.4,692.3L427.9,687.1L433.9,680.5L437.9,675.1L439.6,670.9L440.4,667.8L441.9,665.8L446.0,664.9L446.8,665.7L454.9,669.9L460.3,677.8L459.6,683.4L456.7,688.8L456.0,696.1L457.8,699.4L467.2,707.5L468.7,710.4L471.7,717.8L473.0,720.1L477.7,722.1L487.9,721.4L492.9,721.8L497.7,726.5L498.2,738.5L502.9,739.4L512.9,737.5L544.4,738.5L549.9,736.9L560.9,730.6L566.1,728.6L571.9,729.1L578.2,732.3L583.3,737.4L585.4,743.9L586.5,751.6L588.1,752.7L592.6,751.3L598.9,749.7L605.0,747.5L606.4,745.1L608.4,733.8L614.7,724.9L620.1,719.1L645.8,712.8L664.6,708.0L672.7,706.3L688.2,695.9L681.3,685.0L671.9,675.0L665.2,655.7L660.4,634.5L669.9,635.3L680.2,638.0L683.3,638.0L690.4,637.1L703.3,633.5L705.9,634.1L712.5,637.6L716.6,634.7L716.5,632.0L714.8,629.2L711.2,619.1L709.7,616.5L704.2,609.5L701.8,607.6L699.1,606.3L697.7,604.6L699.3,601.4L695.1,597.7L691.1,585.6L686.9,583.0L676.2,582.1L671.9,580.0L669.4,575.9L670.1,571.8L664.8,569.8L637.4,568.7Z " data-id="NL.NB" data-name="Noord-Brabant" id="NL.NB"/>
utf-8utf-8<path d="M369.8,414.5L373.4,419.3L376.4,422.0L382.3,423.8L395.4,432.4L393.1,433.9L396.5,443.3L394.8,444.1L384.6,442.0L376.9,448.6L380.6,451.1L384.7,452.3L388.4,464.8L400.4,464.9L398.5,467.1L388.2,471.2L380.1,481.2L381.4,483.3L393.4,482.1L394.7,486.1L387.8,488.9L387.0,489.9L389.4,493.1L398.2,501.6L404.2,508.6L405.9,506.5L411.9,506.8L414.6,505.9L421.8,499.9L430.2,496.0L430.7,495.5L441.8,497.5L444.4,496.5L448.1,492.7L450.4,491.3L456.5,490.0L461.2,487.6L464.9,488.2L468.2,490.2L472.0,495.2L474.5,497.6L479.6,499.7L482.1,500.0L486.1,500.4L492.4,499.4L497.1,496.5L501.0,495.9L516.1,502.4L521.6,501.3L529.2,496.6L535.0,495.5L542.1,497.5L545.1,497.6L547.5,496.7L552.6,493.7L555.9,493.0L567.4,494.9L588.1,504.5L597.1,506.2L598.0,504.7L597.9,499.4L595.8,494.8L593.9,491.7L588.3,487.1L584.8,482.4L582.1,472.2L582.2,464.2L581.3,460.4L578.8,453.6L574.5,454.4L575.7,456.9L574.2,461.2L567.5,464.7L565.1,465.4L557.6,462.5L556.6,461.2L558.6,459.8L564.0,450.5L566.8,450.7L566.5,446.3L567.7,444.2L564.9,440.5L562.7,439.4L559.2,435.9L557.3,434.8L551.8,433.8L545.5,432.2L543.8,429.9L547.0,426.3L547.5,423.0L537.7,417.0L536.2,415.0L538.1,402.4L537.8,402.4L526.1,398.2L520.1,394.8L518.4,395.0L503.6,395.0L500.4,396.2L495.8,402.5L490.7,412.9L489.9,416.8L485.0,425.9L479.9,428.7L465.2,428.1L455.2,429.5L450.6,431.2L443.7,432.4L442.1,425.3L440.4,420.2L442.2,413.3L446.4,409.1L445.1,407.1L438.8,399.1L440.0,397.6L448.0,395.1L437.3,394.3L433.1,395.8L428.9,393.0L427.0,393.0L420.5,395.8L410.9,397.5L407.4,403.0L396.9,404.1L391.2,406.4L387.3,409.6L382.1,411.7L369.8,414.5Z " data-id="NL.UT" data-name="Utrecht" id="NL.UT"/>
utf-8utf-8<path d="M361.6,418.9L358.8,417.8L357.8,416.2L356.5,411.3L354.5,410.1L343.8,412.8L338.2,414.9L327.0,417.2L320.5,417.4L314.8,414.7L311.8,414.8L311.3,412.3L314.5,407.9L315.7,403.4L316.5,398.0L327.2,383.6L321.2,382.5L315.8,384.7L311.0,383.9L297.8,379.4L274.4,413.8L243.1,450.9L206.2,487.0L197.2,491.6L187.0,492.9L174.6,490.7L171.5,495.5L174.6,501.2L179.9,514.4L180.9,519.5L178.0,523.8L177.4,526.4L178.1,528.5L181.5,531.0L188.4,538.4L190.5,541.4L187.3,543.6L181.5,544.6L174.1,541.4L165.1,539.8L160.0,540.2L157.8,542.6L141.2,546.6L133.6,550.7L136.3,560.0L140.7,559.8L141.6,558.5L146.8,557.3L153.6,557.3L160.3,555.7L165.3,552.7L172.9,556.8L179.4,561.4L184.0,568.4L186.0,579.5L189.9,584.0L208.5,588.4L215.3,592.2L218.1,594.5L209.1,595.1L204.6,596.6L201.2,599.6L200.5,602.4L200.6,606.3L200.9,607.6L206.1,603.8L212.1,605.6L217.8,608.9L223.8,610.7L224.1,610.7L234.9,607.9L245.9,607.2L260.0,604.3L270.2,598.7L278.0,587.0L305.5,591.3L315.7,591.1L324.9,588.9L335.7,584.8L341.8,583.3L350.2,583.2L363.1,570.6L366.7,564.7L372.4,559.8L379.8,555.2L394.4,555.0L401.0,553.4L411.0,546.0L417.9,545.9L431.4,548.1L437.7,547.6L437.2,544.4L436.1,539.0L443.8,538.6L463.9,531.8L466.9,529.7L465.8,525.3L475.9,510.6L482.1,500.0L479.6,499.7L474.5,497.6L472.0,495.2L468.2,490.2L464.9,488.2L461.2,487.6L456.5,490.0L450.4,491.3L448.1,492.7L444.4,496.5L441.8,497.5L430.7,495.5L430.2,496.0L421.8,499.9L414.6,505.9L411.9,506.8L405.9,506.5L404.2,508.6L398.2,501.6L389.4,493.1L387.0,489.9L387.8,488.9L394.7,486.1L393.4,482.1L381.4,483.3L380.1,481.2L388.2,471.2L398.5,467.1L400.4,464.9L388.4,464.8L384.7,452.3L380.6,451.1L376.9,448.6L384.6,442.0L394.8,444.1L396.5,443.3L393.1,433.9L395.4,432.4L382.3,423.8L376.4,422.0L373.4,419.3L369.8,414.5L361.6,418.9Z " data-id="NL.ZH" data-name="Zuid-Holland" id="NL.ZH"/>
utf-8utf-8<path d="M472.6,156.7L470.5,151.1L470.4,150.7L444.2,169.1L434.0,172.6L423.6,173.7L418.2,175.2L407.2,182.7L401.4,185.3L391.0,185.8L380.2,183.4L373.9,177.3L377.5,167.1L375.4,164.6L372.9,166.5L356.7,164.6L353.7,167.5L351.9,174.4L351.1,182.3L351.0,188.5L348.8,199.5L338.3,221.8L336.1,232.2L335.5,237.3L331.3,253.8L322.0,318.8L317.1,327.4L317.1,329.9L315.1,339.4L300.1,375.9L297.8,379.4L311.0,383.9L315.8,384.7L321.2,382.5L327.2,383.6L316.5,398.0L315.7,403.4L314.5,407.9L311.3,412.3L311.8,414.8L314.8,414.7L320.5,417.4L327.0,417.2L338.2,414.9L343.8,412.8L354.5,410.1L356.5,411.3L357.8,416.2L358.8,417.8L361.6,418.9L369.8,414.5L382.1,411.7L387.3,409.6L391.2,406.4L396.9,404.1L407.4,403.0L410.9,397.5L420.5,395.8L427.0,393.0L428.9,393.0L433.1,395.8L437.3,394.3L448.0,395.1L440.0,397.6L438.8,399.1L445.1,407.1L446.4,409.1L442.2,413.3L440.4,420.2L442.1,425.3L443.7,432.4L450.6,431.2L455.2,429.5L465.2,428.1L479.9,428.7L485.0,425.9L489.9,416.8L490.7,412.9L495.8,402.5L500.4,396.2L503.6,395.0L518.4,395.0L520.1,394.8L501.2,384.2L495.7,383.8L484.5,384.9L478.2,384.2L473.3,382.6L459.7,375.4L454.3,374.0L442.4,373.2L438.0,372.1L421.3,364.3L424.8,359.4L428.7,359.9L432.1,361.9L432.0,359.4L436.2,361.9L438.5,358.4L440.4,353.2L443.5,350.5L446.3,349.8L449.1,347.8L451.5,344.8L453.2,341.4L448.9,339.7L445.1,334.0L442.0,332.0L447.1,330.1L449.3,329.9L447.1,325.1L452.3,320.8L450.1,312.5L440.9,297.5L437.0,287.6L436.3,279.2L440.0,273.5L449.3,272.4L456.4,274.4L458.3,275.4L463.1,279.2L466.9,278.7L470.7,277.5L486.7,269.7L490.7,266.0L494.0,257.9L497.7,255.1L506.3,251.8L503.3,239.6L501.4,237.9L487.8,233.2L483.6,233.0L480.0,233.4L476.9,234.6L474.3,236.8L470.7,238.7L467.4,237.2L464.5,234.6L461.6,233.2L457.8,228.8L456.5,207.4L454.9,200.2L441.2,179.5L435.5,175.9L446.4,172.5L457.6,167.1L472.6,156.7Z M393.9,116.6L398.4,114.0L398.3,108.8L395.4,102.9L391.5,98.2L393.0,96.6L391.3,91.4L383.1,91.0L376.7,99.3L370.8,109.3L358.7,117.5L352.4,125.6L347.5,135.5L346.2,144.2L351.4,152.7L360.7,155.6L369.5,153.6L375.2,144.8L387.3,137.0L394.4,128.3L397.6,123.1L399.3,118.7L393.9,118.7L393.9,116.6Z " data-id="NL.NH" data-name="Noord-Holland" id="NL.NH"/>
utf-8utf-8<path d="M766.1,123.0L765.8,127.5L770.8,130.0L778.3,132.5L779.5,137.1L781.1,140.5L782.2,144.2L797.0,158.9L800.4,164.0L799.4,167.3L792.5,176.5L790.9,177.9L778.6,184.4L769.6,179.7L763.7,178.6L756.7,178.6L743.7,189.5L721.9,202.7L735.6,215.0L740.5,218.8L743.0,221.7L741.9,224.6L732.7,231.8L725.8,234.4L723.4,237.8L733.2,256.3L738.2,260.8L741.9,261.1L747.3,258.7L751.5,259.9L759.8,264.2L762.0,264.8L774.7,264.7L775.7,264.9L777.9,267.4L782.0,270.0L786.7,273.6L788.9,276.0L792.6,281.4L794.4,281.4L805.1,278.7L806.4,280.2L810.4,281.4L812.5,280.4L817.2,279.6L828.3,283.7L827.1,273.7L827.6,272.2L830.8,269.5L843.4,264.3L851.0,263.2L854.5,263.3L873.8,270.1L876.3,271.9L877.1,277.2L880.1,278.6L884.7,275.9L893.5,273.8L918.5,273.5L932.6,276.8L945.5,275.3L949.5,276.6L959.0,278.8L963.5,271.7L964.9,259.9L965.8,223.8L967.6,212.6L970.0,206.8L968.4,204.7L963.4,200.2L960.6,198.5L955.3,197.1L960.4,185.9L960.1,183.1L958.2,182.8L944.8,170.4L932.0,157.6L912.0,142.0L900.5,133.6L888.5,123.9L879.0,116.4L875.0,114.5L867.9,114.0L850.5,118.5L846.4,112.1L837.1,103.0L832.0,100.3L827.5,94.5L822.8,89.9L820.0,90.1L806.3,85.4L797.1,92.0L792.3,94.3L789.0,97.1L785.2,100.9L782.7,106.7L779.6,112.0L777.6,117.5L773.6,123.4L771.6,124.3L766.1,123.0Z " data-id="NL.DR" data-name="Drenthe" id="NL.DR"/>
utf-8utf-8<path d="M404.0,78.3L409.5,71.7L429.8,56.3L437.3,54.1L440.6,52.6L447.6,52.6L447.5,50.4L434.2,49.0L416.7,56.9L399.9,69.0L389.2,80.0L397.5,82.8L404.0,78.3Z M701.1,17.2L675.9,18.2L658.6,25.1L652.6,25.5L643.3,30.6L601.8,43.5L592.9,49.6L580.4,51.2L575.2,52.6L570.5,56.4L566.6,60.9L562.3,64.7L552.8,67.9L547.2,71.7L538.3,80.0L533.3,90.2L526.9,113.0L521.8,121.2L516.5,123.9L504.5,126.1L499.7,129.2L496.0,132.7L470.4,150.7L470.5,151.1L472.6,156.7L498.4,138.9L520.2,128.0L523.3,135.2L527.9,141.7L530.4,143.0L531.7,147.1L531.6,151.4L530.1,155.4L532.8,159.1L534.0,164.5L533.1,169.9L528.9,173.7L532.7,179.0L530.3,181.7L526.1,183.4L523.3,187.4L520.6,188.8L520.6,192.2L521.6,194.3L532.8,201.4L541.1,203.1L557.9,203.6L561.2,204.3L567.5,207.4L571.6,208.1L575.8,207.7L578.6,206.7L584.1,203.6L588.4,202.4L592.4,202.2L611.6,206.5L614.8,208.1L613.4,208.4L619.7,207.6L622.3,208.9L629.1,214.3L631.9,219.4L641.6,215.6L645.7,218.0L653.2,219.0L656.7,218.6L664.3,215.0L670.4,208.8L679.4,207.3L682.6,210.8L686.4,213.0L696.7,213.6L701.6,207.5L705.9,206.5L710.9,206.1L721.9,202.7L743.7,189.5L756.7,178.6L763.7,178.6L769.6,179.7L778.6,184.4L790.9,177.9L792.5,176.5L799.4,167.3L800.4,164.0L797.0,158.9L782.2,144.2L781.1,140.5L779.5,137.1L778.3,132.5L770.8,130.0L765.8,127.5L766.1,123.0L763.8,122.0L754.2,117.3L749.6,116.0L738.4,115.2L736.1,114.6L732.5,112.2L730.0,109.8L728.5,102.7L730.0,95.5L732.5,91.4L741.9,81.4L742.4,79.2L740.2,73.4L743.2,68.4L746.9,63.3L748.1,59.0L749.0,57.5L752.4,54.4L754.5,49.0L754.9,41.6L753.4,38.7L748.5,37.4L744.6,38.7L742.1,38.2L737.4,34.5L732.4,33.4L728.6,32.1L725.8,24.9L726.9,20.8L729.6,16.5L701.1,17.2Z M530.8,18.1L541.7,17.4L545.1,16.0L543.3,11.2L558.5,10.8L565.9,8.8L571.8,2.3L533.1,8.1L525.5,12.7L490.5,18.2L484.5,18.1L480.0,21.3L466.1,25.1L463.3,30.8L466.7,35.9L474.2,36.0L510.1,23.8L519.3,22.0L530.8,18.1Z M586.2,0.0L585.1,4.0L589.9,9.0L596.6,10.2L609.0,5.8L615.7,4.4L642.6,4.4L667.5,0.0L586.2,0.0Z M713.6,0.0L715.2,2.3L717.5,0.0L713.6,0.0Z " data-id="NL.FR" data-name="Friesland" id="NL.FR"/>
utf-8utf-8<path d="M658.6,320.6L655.7,328.4L650.9,335.2L640.6,346.9L635.0,351.9L626.6,356.8L617.6,360.4L602.4,364.1L594.5,369.2L582.8,380.5L574.8,396.3L571.7,398.8L549.1,403.2L538.1,402.4L536.2,415.0L537.7,417.0L547.5,423.0L547.0,426.3L543.8,429.9L545.5,432.2L551.8,433.8L557.3,434.8L559.2,435.9L562.7,439.4L564.9,440.5L567.7,444.2L566.5,446.3L566.8,450.7L564.0,450.5L558.6,459.8L556.6,461.2L557.6,462.5L565.1,465.4L567.5,464.7L574.2,461.2L575.7,456.9L574.5,454.4L578.8,453.6L581.3,460.4L582.2,464.2L582.1,472.2L584.8,482.4L588.3,487.1L593.9,491.7L595.8,494.8L597.9,499.4L598.0,504.7L597.1,506.2L588.1,504.5L567.4,494.9L555.9,493.0L552.6,493.7L547.5,496.7L545.1,497.6L542.1,497.5L535.0,495.5L529.2,496.6L521.6,501.3L516.1,502.4L501.0,495.9L497.1,496.5L492.4,499.4L486.1,500.4L482.1,500.0L475.9,510.6L465.8,525.3L466.9,529.7L463.9,531.8L443.8,538.6L436.1,539.0L437.2,544.4L437.7,547.6L437.9,549.5L438.5,552.2L442.8,555.8L452.9,561.8L459.3,562.0L462.2,561.2L472.2,566.4L472.3,571.9L469.5,577.4L471.9,578.0L520.3,573.8L525.3,571.8L529.9,568.7L533.2,564.4L534.4,558.7L536.4,552.2L541.6,550.0L552.4,550.6L557.7,549.0L562.8,545.9L567.9,544.3L573.1,547.0L577.0,548.0L593.9,546.0L605.8,548.1L607.3,549.5L610.8,556.0L613.4,557.5L618.6,558.5L637.4,568.7L664.8,569.8L664.7,565.2L667.1,564.0L671.7,563.7L678.9,570.9L685.8,574.5L687.0,574.2L691.2,570.8L691.4,564.0L687.7,557.5L681.5,553.8L682.3,550.8L686.6,548.4L697.4,546.9L702.5,545.1L707.8,541.9L711.6,540.3L722.3,538.0L741.6,541.9L737.8,537.5L727.6,529.4L724.3,527.4L733.2,523.6L741.8,526.7L750.5,532.2L759.6,535.1L767.8,533.6L770.0,533.8L772.0,535.3L776.3,540.6L786.5,541.8L790.9,543.8L791.9,549.0L801.8,546.8L802.7,543.5L800.3,535.9L817.4,539.8L822.8,539.8L827.1,538.3L839.9,530.4L866.0,523.3L889.4,522.7L896.4,519.7L902.4,513.9L908.1,505.3L910.2,503.4L913.5,502.1L913.6,498.0L912.8,495.7L911.4,494.1L904.3,488.4L886.7,480.8L880.8,479.5L876.5,477.1L875.8,472.0L877.5,468.5L879.8,467.6L882.6,467.5L885.7,466.2L887.8,464.1L891.1,457.9L895.4,454.3L899.6,452.4L901.1,452.3L897.8,450.4L871.8,446.1L874.2,441.0L873.8,435.9L873.3,434.6L869.0,432.2L866.9,431.8L857.6,433.6L855.3,432.0L855.0,430.6L851.0,428.5L843.6,429.7L833.4,428.8L827.1,429.3L819.1,423.5L804.0,406.7L796.1,406.0L787.2,408.8L783.3,411.2L780.7,411.8L764.0,412.0L745.4,409.1L739.6,410.9L737.8,413.2L732.9,409.9L733.9,406.9L727.4,401.7L727.9,397.9L722.8,388.2L717.3,386.2L712.3,380.8L712.6,378.4L714.6,371.0L716.9,368.2L716.6,363.5L725.3,361.2L728.9,353.1L728.2,347.4L722.5,341.2L717.7,331.8L716.0,329.8L709.1,324.6L705.2,319.3L700.1,317.4L692.6,320.5L684.4,326.1L676.4,328.0L672.6,326.4L666.7,318.1L663.3,314.2L658.8,313.9L658.6,320.6Z " data-id="NL.GE" data-name="Gelderland" id="NL.GE"/>
utf-8utf-8<path d="M729.6,16.5L726.9,20.8L725.8,24.9L728.6,32.1L732.4,33.4L737.4,34.5L742.1,38.2L744.6,38.7L748.5,37.4L753.4,38.7L754.9,41.6L754.5,49.0L752.4,54.4L749.0,57.5L748.1,59.0L746.9,63.3L743.2,68.4L740.2,73.4L742.4,79.2L741.9,81.4L732.5,91.4L730.0,95.5L728.5,102.7L730.0,109.8L732.5,112.2L736.1,114.6L738.4,115.2L749.6,116.0L754.2,117.3L763.8,122.0L766.1,123.0L771.6,124.3L773.6,123.4L777.6,117.5L779.6,112.0L782.7,106.7L785.2,100.9L789.0,97.1L792.3,94.3L797.1,92.0L806.3,85.4L820.0,90.1L822.8,89.9L827.5,94.5L832.0,100.3L837.1,103.0L846.4,112.1L850.5,118.5L867.9,114.0L875.0,114.5L879.0,116.4L888.5,123.9L900.5,133.6L912.0,142.0L932.0,157.6L944.8,170.4L958.2,182.8L960.1,183.1L960.4,185.9L955.3,197.1L960.6,198.5L963.4,200.2L968.4,204.7L970.0,206.8L971.9,202.4L992.3,176.3L997.5,165.1L999.5,154.4L999.3,142.4L995.8,118.5L994.7,115.6L992.3,111.7L991.9,107.7L992.4,105.0L995.8,97.7L997.3,91.9L997.9,86.7L996.2,71.9L993.3,71.9L974.2,68.1L966.0,64.6L965.3,59.3L963.9,56.5L966.8,52.6L966.7,50.4L964.9,50.4L962.7,52.3L959.6,52.9L956.5,52.3L954.2,50.4L949.6,51.5L938.9,47.0L930.5,44.9L925.5,40.2L917.6,36.3L907.6,8.8L902.9,5.2L897.4,3.4L871.4,0.0L810.0,7.3L771.3,16.0L764.8,20.0L762.6,20.6L760.1,19.8L755.3,16.7L752.6,16.0L729.6,16.5L729.6,16.5Z " data-id="NL.GR" data-name="Groningen" id="NL.GR"/>
utf-8utf-8<path d="M687.0,574.2L685.8,574.5L678.9,570.9L671.7,563.7L667.1,564.0L664.7,565.2L664.8,569.8L670.1,571.8L669.4,575.9L671.9,580.0L676.2,582.1L686.9,583.0L691.1,585.6L695.1,597.7L699.3,601.4L697.7,604.6L699.1,606.3L701.8,607.6L704.2,609.5L709.7,616.5L711.2,619.1L714.8,629.2L716.5,632.0L716.6,634.7L712.5,637.6L705.9,634.1L703.3,633.5L690.4,637.1L683.3,638.0L680.2,638.0L669.9,635.3L660.4,634.5L665.2,655.7L671.9,675.0L681.3,685.0L688.2,695.9L672.7,706.3L664.6,708.0L645.8,712.8L620.1,719.1L614.7,724.9L608.4,733.8L606.4,745.1L605.0,747.5L598.9,749.7L592.6,751.3L588.1,752.7L592.7,755.7L608.0,759.4L611.6,761.4L614.3,763.7L617.2,765.4L621.8,765.4L632.9,763.5L636.3,763.8L640.7,765.9L646.5,772.0L650.1,774.4L658.2,772.7L662.8,773.0L666.0,779.0L662.4,781.9L661.7,785.8L667.9,791.0L660.0,793.5L657.0,793.2L659.0,798.1L657.2,802.7L653.9,807.3L650.7,805.2L648.5,806.3L647.3,809.5L646.8,814.0L650.6,817.9L646.6,826.2L636.6,839.6L642.5,838.3L645.0,838.4L647.7,839.6L644.7,843.7L640.4,851.6L637.1,855.8L629.7,858.5L611.0,875.7L611.8,883.3L616.3,888.5L628.3,894.1L632.5,895.1L632.2,899.1L629.7,906.8L634.6,909.1L637.5,909.5L640.3,909.1L644.3,904.0L646.7,902.6L649.4,903.4L655.0,908.2L657.8,909.8L680.9,909.3L687.0,910.8L706.4,911.3L711.7,910.5L712.2,906.1L710.3,904.0L707.6,902.6L705.5,899.7L704.2,895.4L708.3,896.2L712.0,893.3L713.3,889.3L712.3,883.3L714.5,879.9L718.1,878.2L724.2,878.6L727.0,875.7L728.5,872.3L728.5,869.6L726.0,862.6L726.4,860.4L728.3,857.2L719.5,854.7L713.1,851.6L711.0,849.8L710.2,847.1L709.6,842.2L712.1,836.5L711.5,834.8L701.9,835.7L694.9,833.9L691.1,833.5L687.6,834.3L680.7,837.0L677.1,837.6L676.5,829.1L672.1,819.4L670.3,811.4L677.7,808.3L681.4,810.0L684.7,813.3L688.4,815.9L693.3,815.4L696.4,812.6L701.3,804.0L704.7,800.7L728.9,785.2L743.8,778.6L747.6,774.5L741.9,770.3L747.8,766.3L749.9,765.3L743.7,763.7L730.7,770.9L724.4,768.2L722.3,761.9L722.8,754.4L724.8,747.6L727.4,743.9L732.8,738.5L745.7,718.4L748.4,716.3L755.1,712.5L757.6,709.5L758.9,705.3L759.4,698.0L760.9,695.0L756.7,691.2L756.9,685.0L758.6,677.8L759.3,671.1L757.8,665.0L755.5,654.0L744.5,644.2L726.1,624.9L724.8,620.8L726.0,616.0L728.9,608.4L710.7,602.2L704.4,596.1L707.6,586.5L704.9,584.4L698.8,580.9L695.7,579.7L688.0,579.9L685.4,579.0L685.5,575.4L687.0,574.2Z " data-id="NL.LI" data-name="Limburg" id="NL.LI"/>
utf-8utf-8<path d="M721.9,202.7L710.9,206.1L705.9,206.5L701.6,207.5L696.7,213.6L686.4,213.0L682.6,210.8L679.4,207.3L670.4,208.8L664.3,215.0L656.7,218.6L653.2,219.0L645.7,218.0L641.6,215.6L631.9,219.4L651.5,227.5L663.9,235.2L669.1,240.7L673.1,249.2L675.4,257.8L671.5,264.1L673.7,264.9L684.5,267.3L689.7,269.5L695.7,275.0L687.4,278.6L674.8,282.0L668.0,281.5L666.5,280.9L663.0,281.0L649.1,286.4L651.7,289.8L653.7,295.3L657.5,307.7L658.8,313.9L658.8,313.9L663.3,314.2L666.7,318.1L672.6,326.4L676.4,328.0L684.4,326.1L692.6,320.5L700.1,317.4L705.2,319.3L709.1,324.6L716.0,329.8L717.7,331.8L722.5,341.2L728.2,347.4L728.9,353.1L725.3,361.2L716.6,363.5L716.9,368.2L714.6,371.0L712.6,378.4L712.3,380.8L717.3,386.2L722.8,388.2L727.9,397.9L727.4,401.7L733.9,406.9L732.9,409.9L737.8,413.2L739.6,410.9L745.4,409.1L764.0,412.0L780.7,411.8L783.3,411.2L787.2,408.8L796.1,406.0L804.0,406.7L819.1,423.5L827.1,429.3L833.4,428.8L843.6,429.7L851.0,428.5L855.0,430.6L855.3,432.0L857.6,433.6L866.9,431.8L869.0,432.2L873.3,434.6L873.8,435.9L874.2,441.0L871.8,446.1L897.8,450.4L901.1,452.3L916.7,450.9L919.9,448.5L925.4,439.2L930.3,435.0L941.5,431.1L946.6,427.4L952.5,419.6L955.2,417.0L966.8,411.4L962.4,399.3L962.3,393.2L964.0,388.1L968.9,378.5L970.6,366.3L966.5,357.7L949.6,337.3L948.0,338.0L946.4,340.2L944.0,342.0L937.5,343.5L930.6,343.9L923.1,342.9L909.3,338.9L888.3,336.6L881.3,333.9L875.9,329.2L874.0,324.2L873.4,318.3L872.2,312.3L868.8,307.1L873.1,306.8L887.5,301.0L878.7,295.4L876.7,293.2L876.5,290.4L877.6,287.7L878.0,284.7L875.7,281.1L880.1,278.6L877.1,277.2L876.3,271.9L873.8,270.1L854.5,263.3L851.0,263.2L843.4,264.3L830.8,269.5L827.6,272.2L827.1,273.7L828.3,283.7L817.2,279.6L812.5,280.4L810.4,281.4L806.4,280.2L805.1,278.7L794.4,281.4L792.6,281.4L788.9,276.0L786.7,273.6L782.0,270.0L777.9,267.4L775.7,264.9L774.7,264.7L762.0,264.8L759.8,264.2L751.5,259.9L747.3,258.7L741.9,261.1L738.2,260.8L733.2,256.3L723.4,237.8L725.8,234.4L732.7,231.8L741.9,224.6L743.0,221.7L740.5,218.8L735.6,215.0L721.9,202.7Z " data-id="NL.OV" data-name="Overijssel" id="NL.OV"/>
utf-8utf-8<path d="M648.9,297.5L606.9,289.7L599.5,283.7L594.9,286.7L579.7,290.6L575.3,293.1L563.9,302.0L561.4,302.3L556.0,301.9L554.0,303.3L548.1,315.9L544.7,318.2L534.8,321.4L523.2,329.9L503.7,336.1L492.7,344.7L476.5,351.8L469.1,357.5L464.7,359.4L467.5,364.7L468.4,369.5L470.4,373.4L476.0,375.7L487.9,375.2L492.4,375.7L510.7,381.1L519.3,384.7L535.4,394.6L542.5,396.9L559.9,396.3L569.2,393.4L574.6,387.3L575.9,378.9L573.4,368.6L580.7,365.6L584.4,364.6L588.7,364.3L592.5,362.8L597.8,356.4L601.0,354.9L607.8,353.8L620.3,349.1L627.9,348.0L635.3,345.9L642.0,340.7L647.6,334.0L651.6,327.5L654.7,318.9L654.6,312.3L648.9,297.5Z M605.4,209.7L597.8,214.0L591.6,220.6L586.6,228.9L584.7,237.2L583.3,251.2L584.1,264.3L589.0,270.0L592.4,272.1L599.1,281.2L601.3,283.7L605.6,284.7L640.4,283.2L645.1,284.1L648.9,286.2L649.1,286.4L663.0,281.0L666.5,280.9L668.0,281.5L674.8,282.0L687.4,278.6L695.7,275.0L689.7,269.5L684.5,267.3L673.7,264.9L671.5,264.1L675.4,257.8L673.1,249.2L669.1,240.7L663.9,235.2L651.5,227.5L631.9,219.4L629.1,214.3L622.3,208.9L619.7,207.6L613.4,208.4L605.4,209.7Z " data-id="NL.FL" data-name="Flevoland" id="NL.FL"/>
utf-8utf-8<path d="M103.1,705.7L94.4,699.7L68.3,693.8L51.3,685.2L47.2,685.6L43.3,688.2L3.1,712.2L2.2,720.6L2.1,728.4L6.1,736.9L12.6,742.5L20.8,745.5L29.3,746.3L41.9,744.7L42.6,741.5L41.8,737.3L42.2,733.4L45.1,731.0L49.0,730.2L53.2,730.0L63.8,728.1L70.4,727.8L77.2,728.7L109.9,737.3L115.0,739.9L116.5,744.3L116.1,748.1L116.6,751.6L120.7,755.4L124.0,756.5L155.5,756.2L161.5,754.7L173.4,747.1L206.1,733.9L219.1,725.6L229.3,714.2L230.7,710.9L232.6,701.6L226.7,698.9L221.5,698.4L219.9,699.7L215.4,705.1L206.2,704.5L201.8,702.3L195.3,701.6L192.3,700.8L189.9,698.7L186.8,693.5L185.0,691.3L181.1,689.4L174.9,687.5L169.1,687.3L166.7,690.3L165.4,697.0L161.9,700.4L136.1,709.2L129.7,710.0L119.5,707.7L108.8,707.7L103.1,705.7Z M220.5,622.4L213.6,620.8L189.8,619.8L182.7,621.4L168.8,626.7L190.2,642.3L196.6,645.3L200.6,645.8L209.0,645.0L213.1,645.3L224.2,649.2L233.7,650.5L236.8,643.9L237.0,638.5L226.9,626.6L220.5,622.4Z M248.5,701.3L247.0,696.5L244.5,694.8L243.3,688.3L243.0,684.5L244.7,680.9L243.2,675.9L240.3,676.5L231.7,676.1L226.4,677.5L221.2,675.4L207.4,676.9L201.0,675.4L196.9,671.2L191.4,659.6L187.8,654.3L176.6,646.7L163.6,642.6L138.1,640.5L138.1,638.4L144.3,634.7L147.1,633.8L144.5,628.9L140.6,624.7L136.2,621.6L132.2,619.8L126.3,619.1L55.1,625.2L28.1,638.6L25.4,641.6L26.5,647.1L29.5,650.7L38.4,656.8L41.6,660.7L45.3,666.1L49.4,670.9L54.3,672.9L69.4,675.6L75.4,675.4L86.3,672.2L90.5,672.5L101.1,680.4L117.2,686.7L124.7,692.8L127.5,693.8L130.4,693.5L133.8,691.7L143.3,690.9L147.4,689.2L150.3,685.7L157.9,673.8L161.6,672.0L172.7,672.9L177.1,674.3L192.0,684.4L197.4,687.0L202.9,688.5L226.9,689.0L232.7,687.6L235.7,684.4L238.5,685.9L239.0,688.6L239.0,692.0L239.8,696.2L243.1,701.2L248.5,701.3Z M201.5,610.2L202.9,613.1L205.1,615.1L210.7,617.4L221.1,617.8L224.0,610.9L224.1,610.7L223.8,610.7L217.8,608.9L212.1,605.6L206.1,603.8L200.9,607.6L201.5,610.2Z M175.1,589.2L165.0,579.5L160.6,576.9L154.7,575.9L129.3,575.3L125.7,573.8L120.3,573.8L98.0,576.4L88.5,581.3L88.0,592.2L91.6,596.3L97.1,597.5L109.0,597.0L110.5,595.9L116.9,589.7L120.4,589.9L126.2,594.5L136.7,597.8L140.9,600.4L142.7,604.7L145.4,609.3L151.2,612.5L161.1,615.4L165.8,615.6L186.2,612.4L190.8,611.0L195.1,608.6L197.8,605.2L197.1,599.8L192.0,596.9L180.9,594.5L175.1,589.2Z " data-id="NL.ZE" data-name="Zeeland" id="NL.ZE"/>
utf-8</g>
</svg>
