<?xml version="1.0" ?>
<!DOCTYPE svg
  PUBLIC '-//W3C//DTD SVG 1.1//EN'
  'http://www.w3.org/Graphics/SVG/1.1/DTD/svg11.dtd'>
<svg enable_background="new 0 0 1000 710" height="710px" pretty_print="True" style="stroke-linejoin: round; stroke:#000; fill: none;" version="1.1" viewBox="0 0 1000 710" width="1000px" xmlns="http://www.w3.org/2000/svg" xmlns:xlink="http://www.w3.org/1999/xlink">
utf-8<defs>
utf-8utf-8<style type="text/css">
<![CDATA[path { fill-rule: evenodd; }]]>utf-8utf-8</style>
utf-8</defs>
utf-8<metadata>
utf-8utf-8<views>
utf-8utf-8utf-8<view h="710.567050398" padding="0" w="1000">
utf-8utf-8utf-8utf-8<proj flip="auto" id="robinson" lon0="24.5069592936"/>
utf-8utf-8utf-8utf-8<bbox h="193.95" w="273.34" x="57.5" y="-1156.32"/>
utf-8utf-8utf-8</view>
utf-8utf-8</views>
utf-8</metadata>
utf-8<g class="" id="provinces">
utf-8utf-8<path d="M966.5,68.2L965.4,67.3L964.6,68.2L966.5,68.2Z M960.4,65.5L957.5,62.2L953.7,61.6L951.6,64.0L952.9,65.4L949.8,67.9L949.3,69.3L952.7,69.7L954.1,67.6L956.6,68.6L959.1,67.4L962.1,66.9L963.4,65.7L960.4,65.5Z M772.3,42.4L770.1,43.2L769.6,44.9L773.4,43.1L772.3,42.4Z M633.0,43.7L634.9,40.7L631.1,37.3L630.5,39.1L632.5,43.9L633.0,43.7Z M622.0,40.1L620.0,37.3L618.8,39.2L619.9,40.6L622.0,40.1Z M669.1,37.5L664.5,37.7L663.0,38.6L662.4,40.6L657.3,39.5L660.5,42.3L671.9,44.1L682.5,44.5L679.9,40.6L674.8,40.2L671.4,37.1L669.1,37.5Z M995.4,38.5L992.9,36.6L992.6,36.6L995.4,38.5Z M697.8,25.8L695.7,27.4L697.9,28.1L698.7,29.4L695.0,28.6L691.1,29.2L690.8,32.9L690.0,32.7L688.5,29.4L688.2,30.8L684.3,30.7L678.6,32.9L679.2,35.7L678.4,36.4L676.0,36.1L681.7,39.4L685.9,36.1L685.0,41.8L690.4,42.8L696.5,41.0L693.8,39.7L697.1,39.2L703.6,36.0L704.9,34.9L704.1,32.2L705.1,31.5L701.7,29.5L702.1,27.7L697.8,25.8Z M788.1,23.1L787.4,21.2L785.2,21.9L788.1,23.1Z M709.1,21.1L708.5,19.0L704.0,19.4L702.5,22.3L704.6,23.2L703.4,26.7L710.7,31.0L715.4,30.5L718.1,28.3L721.3,27.2L722.0,25.6L719.2,23.6L714.7,21.1L709.1,21.1Z M691.3,14.4L689.6,13.3L687.9,13.4L689.6,16.6L686.0,17.2L683.7,15.7L678.4,16.7L679.6,18.1L681.9,18.6L680.8,19.9L682.2,21.1L678.3,20.4L678.8,21.5L676.8,23.5L673.6,21.8L673.7,20.2L669.4,18.3L666.9,20.1L667.9,20.9L669.4,24.1L667.5,26.1L664.0,24.8L664.1,23.0L660.8,20.9L656.5,22.5L653.5,21.7L655.8,25.3L651.8,23.5L648.3,25.0L641.1,23.6L638.9,23.5L640.0,24.9L642.5,24.9L640.5,26.7L652.8,26.0L649.4,27.7L650.0,28.8L646.7,32.6L647.3,33.1L650.6,32.2L651.1,30.2L653.0,31.5L658.5,31.8L660.8,30.3L662.9,31.5L667.0,28.5L672.3,29.3L678.1,28.4L678.9,26.8L682.2,27.3L685.1,23.9L683.5,23.7L684.7,22.1L688.3,22.5L690.5,18.9L692.0,19.4L694.1,18.2L691.6,17.3L693.3,15.1L691.3,14.4Z M715.5,5.9L715.9,5.2L710.9,5.0L708.7,6.3L710.8,7.5L714.5,7.6L709.8,8.6L716.8,10.7L717.7,9.7L721.5,9.1L721.2,8.1L716.9,6.7L720.1,6.9L715.5,5.9Z M749.7,4.2L748.5,4.3L750.3,6.6L752.5,5.3L749.7,4.2Z M741.6,1.7L738.9,1.0L736.7,2.2L736.6,3.9L742.1,5.1L741.6,1.7Z M614.2,45.7L626.0,47.7L630.7,48.0L634.9,50.1L641.5,51.6L644.1,49.9L648.9,49.1L652.6,52.6L658.0,58.6L659.8,59.9L665.7,61.1L670.3,65.7L669.0,66.8L673.7,72.2L680.5,74.8L686.3,75.9L682.8,78.4L681.5,81.8L674.6,82.3L665.2,84.0L665.9,87.7L675.6,94.9L677.5,97.5L677.5,100.8L675.7,102.9L672.6,104.0L653.4,105.2L657.0,108.0L663.0,110.9L665.0,113.3L668.6,116.0L672.6,117.8L674.5,122.5L676.0,123.6L680.4,122.8L693.1,125.4L699.6,124.8L707.3,128.4L717.9,124.9L724.1,124.4L727.5,123.3L728.7,119.0L731.1,118.1L734.1,118.1L742.5,120.2L745.1,121.8L751.2,123.7L764.7,125.9L768.6,127.4L774.5,131.7L775.5,131.6L783.5,126.9L782.9,121.9L784.3,118.3L790.9,115.1L794.5,114.4L799.4,115.2L804.2,109.7L805.6,108.9L803.1,105.5L803.2,104.4L800.9,98.7L801.5,92.5L804.4,89.5L802.4,87.0L804.0,82.7L803.0,81.7L806.8,78.3L805.6,73.1L812.2,72.0L816.5,67.7L820.0,65.6L822.2,61.4L830.0,60.5L832.6,60.8L837.4,60.5L839.7,61.3L853.6,60.8L857.9,57.0L862.2,56.0L865.6,53.7L870.7,54.2L873.3,53.3L888.3,63.0L896.2,64.5L897.8,67.3L899.4,67.9L927.8,73.9L931.8,78.4L939.0,84.6L935.6,89.2L923.5,97.4L923.4,103.1L924.3,104.5L929.5,107.2L935.7,106.2L939.6,102.7L940.8,98.2L940.7,96.9L942.4,93.0L944.6,92.5L951.2,92.3L956.4,90.2L962.2,90.1L969.8,85.8L970.1,82.5L972.0,81.4L970.8,77.2L968.3,76.7L969.5,75.6L974.0,76.6L983.6,80.9L993.4,81.7L997.1,81.4L998.7,80.5L998.0,74.0L992.7,67.1L988.4,68.9L987.1,67.0L978.6,66.5L979.1,73.1L975.9,74.2L977.4,72.4L976.3,68.3L975.0,65.4L968.3,63.3L965.4,63.3L966.1,66.8L968.4,68.2L967.9,69.3L965.6,70.3L968.4,73.2L965.8,72.2L963.6,70.5L959.2,73.2L958.8,72.3L961.1,71.2L962.9,68.9L953.8,70.3L944.6,72.8L941.9,74.5L946.0,69.8L949.7,67.3L950.7,65.4L947.3,61.6L943.2,62.2L940.3,61.6L935.6,63.9L936.8,62.3L945.5,58.7L933.4,56.9L931.5,56.3L924.4,56.7L923.2,56.3L923.0,54.2L917.4,54.3L914.4,53.4L906.8,52.8L911.3,52.5L902.5,51.7L901.6,51.0L906.0,49.6L906.6,48.6L900.6,49.0L902.5,47.9L961.6,52.5L967.9,51.2L970.0,49.3L968.9,49.0L970.0,47.2L973.4,46.8L975.1,44.5L989.8,43.7L995.1,42.7L992.0,39.9L993.3,38.5L986.7,33.9L982.9,36.1L979.1,33.3L971.8,30.8L973.1,30.2L967.1,28.6L956.3,30.5L955.4,28.8L959.6,28.2L961.8,26.3L957.7,24.9L952.0,24.2L955.8,22.5L951.4,21.0L945.9,21.3L943.0,23.4L936.3,25.6L939.3,22.1L938.6,20.2L935.3,19.4L928.8,21.3L924.1,21.7L921.4,24.0L921.1,20.4L924.6,19.8L919.7,19.4L922.4,16.9L919.2,16.6L915.4,13.7L909.2,13.5L908.7,12.3L898.7,12.8L895.4,15.0L894.0,17.1L891.1,19.0L891.1,21.1L894.4,22.9L890.1,23.2L889.9,25.3L887.8,28.7L891.5,31.1L894.3,31.2L890.9,32.2L886.9,32.5L886.2,34.8L883.3,36.8L883.7,39.6L883.2,42.7L886.0,49.3L883.4,53.0L881.2,54.0L884.2,50.3L884.4,49.3L881.9,42.7L880.8,37.7L885.7,30.8L881.3,31.9L877.9,34.5L875.5,33.8L876.4,32.9L880.1,31.5L875.4,32.1L871.0,33.3L867.4,32.6L868.1,31.8L878.3,27.3L880.5,25.9L882.1,23.9L882.0,21.4L863.6,26.0L858.1,26.3L868.0,22.2L873.2,21.4L875.0,19.8L870.1,19.4L865.6,18.1L861.1,19.4L862.4,17.0L876.2,17.4L879.4,16.8L880.5,15.9L877.3,14.9L882.7,15.2L882.9,12.7L886.5,12.0L887.6,9.5L887.7,7.4L885.4,6.4L879.6,6.2L875.7,7.6L875.5,6.4L873.6,6.6L875.6,4.4L875.3,3.0L872.7,2.1L866.3,2.8L864.5,4.1L861.2,4.5L857.5,3.4L854.0,3.1L851.4,0.0L851.5,1.6L847.4,2.1L848.2,5.0L850.2,5.5L849.9,8.7L846.3,6.1L837.4,5.1L836.3,5.5L842.2,9.3L835.0,8.1L833.8,10.4L836.7,11.7L846.7,12.4L849.2,14.9L854.8,16.3L843.7,15.2L841.7,17.8L844.3,18.6L844.0,19.4L836.7,19.5L834.9,21.4L838.1,22.5L836.5,23.8L837.8,25.3L842.2,26.6L837.6,26.7L836.1,26.0L833.0,27.5L833.9,28.7L833.1,30.3L836.6,32.9L832.8,33.6L832.4,32.6L827.3,32.7L826.6,34.8L823.5,35.8L822.2,35.5L822.3,37.8L820.2,37.8L818.9,39.2L816.9,38.7L817.1,33.7L818.5,32.9L818.2,28.7L819.3,24.6L813.0,23.6L808.5,24.7L807.1,24.2L817.9,21.2L819.5,19.8L820.4,14.9L816.4,9.3L813.8,9.0L805.6,13.1L801.9,16.6L798.9,18.6L798.3,20.4L795.4,21.9L794.6,25.3L789.9,28.5L783.1,34.7L776.0,39.7L775.5,40.6L780.3,42.0L775.4,47.2L772.9,48.4L770.6,52.5L767.2,53.2L764.8,51.8L764.5,49.7L761.8,50.3L763.5,53.9L759.4,52.0L759.4,45.5L767.1,41.5L761.8,38.9L764.3,37.1L768.4,36.5L767.3,35.0L768.7,33.9L766.7,32.8L761.1,33.2L759.5,32.2L766.6,32.4L768.0,31.2L766.2,30.3L759.8,31.5L760.7,30.5L765.5,28.4L767.7,26.7L769.5,26.3L772.4,23.5L774.8,23.0L776.3,21.6L778.2,18.3L788.5,13.7L786.3,11.7L783.0,12.4L782.4,13.3L779.6,11.7L773.6,13.8L771.6,12.6L772.7,10.3L765.5,7.6L765.3,9.4L767.7,12.2L766.8,15.6L763.5,15.2L759.3,11.3L755.5,12.2L749.5,12.8L753.3,11.0L754.1,10.0L751.3,7.8L751.6,10.7L745.4,11.1L742.9,8.0L738.6,7.5L735.8,8.3L738.6,9.0L735.6,9.7L738.5,11.8L742.1,12.8L739.4,13.2L737.9,15.2L740.1,16.6L739.7,17.5L734.9,15.9L732.7,15.6L728.3,13.3L725.0,14.6L724.6,17.3L735.5,18.9L741.3,21.1L745.0,25.6L740.7,25.3L735.6,22.7L729.2,22.3L727.9,23.3L727.4,26.3L722.2,29.2L727.1,30.5L732.6,33.6L725.7,32.0L715.1,31.2L703.8,37.5L701.0,38.6L700.2,40.3L705.6,41.6L704.1,42.4L697.6,43.0L693.8,44.7L700.6,44.1L703.1,44.7L692.2,46.2L699.4,47.2L695.9,48.2L697.7,51.3L694.6,51.5L690.9,52.5L696.2,55.2L703.7,55.4L705.8,56.0L698.4,59.8L698.4,58.6L690.5,60.0L689.2,59.5L690.0,57.8L689.7,55.5L686.0,55.6L684.4,53.8L684.2,49.7L682.7,49.8L678.8,51.8L672.9,52.3L670.6,53.3L660.9,54.1L659.7,54.8L656.8,54.9L660.7,53.7L673.7,52.0L678.3,50.7L681.9,47.5L681.6,46.6L670.1,45.8L659.1,44.0L657.1,48.6L664.4,49.7L665.3,50.9L660.4,49.7L655.5,50.3L654.5,46.1L653.8,45.5L655.6,43.3L653.5,42.1L648.7,42.7L649.2,45.1L647.8,44.7L646.7,41.5L642.7,42.7L644.2,41.0L642.4,40.7L636.5,43.5L637.2,45.6L638.9,46.6L639.8,49.7L636.2,46.7L632.4,44.4L628.4,43.4L626.3,40.9L624.0,45.3L621.7,43.4L614.2,45.7L614.2,45.7Z M772.4,0.0L776.3,1.7L777.7,3.3L773.0,2.5L768.0,2.8L765.5,2.1L761.9,4.1L763.6,6.0L768.3,4.9L772.5,5.5L771.8,6.2L767.4,7.3L773.3,10.0L777.5,9.2L780.8,9.3L779.6,7.6L782.4,8.3L786.3,8.4L788.7,7.5L792.7,7.7L794.0,6.6L796.5,6.3L797.0,3.9L793.7,4.7L792.3,5.8L789.3,6.5L787.8,4.5L785.5,4.2L789.9,2.0L785.9,0.9L781.0,1.6L780.1,0.0L772.4,0.0Z " data-id="NO.FI" data-name="Finnmark" id="NO.FI"/>
utf-8utf-8<path d="M285.5,316.8L286.2,317.8L287.7,318.8L291.2,319.4L291.2,319.4L288.5,317.4L286.9,317.9L285.9,316.5L285.5,316.8Z M293.8,312.0L290.7,308.5L287.7,309.6L288.3,312.9L285.2,314.2L285.5,315.4L290.1,317.0L295.8,314.8L296.1,314.1L292.6,313.3L293.8,312.0Z M284.4,308.2L281.6,308.6L284.4,309.0L284.4,308.2Z M288.5,294.5L285.9,296.9L283.7,297.3L285.3,299.2L288.5,294.5Z M297.6,292.7L295.0,291.7L292.2,288.7L290.3,290.5L291.2,290.9L291.0,293.8L289.6,294.5L295.0,294.9L292.6,295.8L289.5,299.4L289.8,300.9L287.1,300.8L285.7,303.4L287.4,303.7L286.5,306.2L285.0,308.2L286.2,308.4L290.6,306.5L292.7,304.9L291.0,302.5L296.1,302.2L302.0,298.6L297.6,292.7Z M287.8,285.5L286.0,286.8L287.3,287.5L287.8,285.5Z M278.5,282.6L275.9,282.1L273.2,282.8L271.8,287.4L277.5,288.3L278.8,284.3L280.0,283.9L278.5,282.6Z M298.5,281.6L293.0,284.4L294.7,285.2L298.5,281.6Z M297.9,279.2L299.5,276.8L296.8,278.1L297.9,279.2Z M294.1,270.6L292.1,271.1L292.5,272.2L294.1,270.6Z M288.0,265.6L286.8,265.9L288.8,266.9L288.0,265.6Z M308.8,267.7L315.5,265.6L313.6,264.9L308.8,265.6L303.9,267.7L305.1,265.6L303.1,265.2L298.8,266.9L294.4,272.2L298.8,271.8L299.5,272.8L304.5,269.5L308.8,267.7Z M291.4,258.5L289.7,258.9L290.0,259.6L291.4,258.5Z M302.4,256.7L300.0,254.6L299.9,257.3L301.3,257.9L292.2,261.9L295.3,261.5L290.7,265.6L300.1,263.1L302.7,261.6L304.3,261.5L302.1,260.4L303.4,259.4L302.0,258.5L302.4,256.7Z M324.7,251.5L317.4,251.9L315.3,254.3L324.7,251.5Z M309.9,250.2L306.4,252.5L306.1,253.5L311.1,254.8L313.4,252.7L313.1,251.6L309.9,250.2Z M301.0,247.3L298.1,248.8L299.5,248.8L301.0,247.3Z M292.4,246.3L291.1,248.1L291.9,246.5L292.4,246.3Z M315.1,243.3L315.3,241.9L310.0,242.5L311.1,244.5L309.2,245.9L313.3,247.4L313.0,244.2L315.1,243.3Z M311.5,238.1L310.5,236.3L308.4,237.0L309.8,238.7L311.5,238.1Z M318.3,235.4L315.9,236.4L318.1,236.5L318.3,235.4Z M301.9,234.8L300.1,234.7L301.1,237.0L302.1,237.2L301.9,234.8Z M321.2,234.1L320.2,233.2L320.4,235.3L321.2,234.1Z M330.0,224.7L325.5,226.5L333.1,226.0L330.0,224.7Z M332.1,216.6L331.5,218.1L332.8,217.8L332.1,216.6Z M348.2,210.1L346.4,208.7L343.9,210.9L348.2,210.1Z M350.5,207.4L346.7,207.0L346.7,207.7L350.5,207.4Z M362.9,207.1L364.0,204.5L362.8,204.0L355.5,206.2L355.7,206.9L353.2,208.8L357.6,210.0L359.9,211.8L362.4,211.5L361.2,208.8L362.9,207.1Z M353.2,198.0L349.6,198.6L353.3,198.6L353.2,198.0Z M350.6,190.9L350.2,190.3L349.7,191.0L350.6,190.9Z M367.3,190.9L366.1,189.9L360.7,193.3L366.3,192.6L367.3,190.9Z M268.8,189.2L269.3,188.6L268.3,188.8L268.8,189.2Z M392.7,179.3L394.0,178.1L391.0,178.9L392.7,179.3Z M298.7,178.0L298.4,176.6L292.8,178.8L293.8,180.0L294.7,178.6L298.7,178.0Z M372.9,175.3L373.5,174.7L373.2,174.5L372.9,175.3Z M392.1,161.9L392.0,160.6L389.3,162.3L386.9,162.1L386.4,163.7L387.4,165.1L394.7,165.3L399.6,164.5L400.1,163.9L393.4,162.8L392.1,161.9Z M424.0,159.9L421.6,159.2L410.2,159.3L412.2,161.4L415.6,160.0L421.2,161.5L424.0,159.9Z M398.5,162.3L399.1,161.8L395.8,159.3L394.6,161.9L398.5,162.3Z M439.8,158.3L440.0,156.6L437.6,155.5L434.1,157.2L439.8,158.3Z M311.4,157.6L313.2,156.6L310.5,155.2L310.5,156.2L306.9,158.7L302.7,167.9L300.6,170.6L302.7,170.3L304.7,168.2L308.4,167.3L310.1,164.6L306.7,163.7L307.7,163.3L313.2,163.6L312.2,159.1L313.1,158.0L311.4,157.6Z M323.4,157.5L324.6,154.0L323.0,153.0L318.4,153.9L320.9,156.1L320.7,157.3L317.7,155.6L314.4,158.0L317.6,161.4L323.4,157.5Z M419.5,154.0L418.3,152.2L416.7,152.8L419.5,154.0Z M379.1,149.4L376.1,149.0L375.4,150.4L379.1,149.4Z M381.9,147.9L383.8,146.1L383.2,144.8L381.1,144.9L377.8,147.8L381.0,149.0L381.9,147.9Z M355.4,144.2L347.4,144.3L348.2,145.1L351.5,145.7L354.2,147.6L356.6,145.9L355.4,144.2Z M344.8,146.5L346.2,145.2L345.0,143.0L342.4,142.8L337.8,146.6L334.7,146.3L331.5,145.2L326.4,148.0L329.0,148.2L326.0,151.9L327.4,152.3L326.3,153.7L330.5,152.3L326.7,155.0L325.7,156.9L328.7,158.4L330.9,154.3L332.3,156.2L335.4,156.9L335.5,155.1L340.2,155.0L339.9,153.1L341.7,151.2L348.0,151.2L350.9,149.8L352.5,147.3L349.5,145.9L344.8,146.5Z M390.7,137.7L391.3,136.9L385.1,138.3L381.8,137.8L378.7,141.1L375.4,141.9L377.9,140.3L375.2,138.0L373.4,140.9L371.0,138.3L366.7,139.4L368.9,141.6L364.9,140.5L360.6,141.2L364.1,142.6L365.5,144.6L363.8,144.2L362.9,145.8L358.8,143.7L358.2,146.3L359.2,146.9L356.3,147.6L358.9,148.5L355.7,149.1L354.7,152.6L366.3,150.3L370.8,148.9L371.2,147.2L374.1,143.0L376.5,144.0L374.7,146.9L376.4,147.1L382.8,143.5L383.0,142.3L386.5,141.6L390.7,137.7Z M440.3,138.2L439.6,136.8L441.6,136.5L439.9,133.5L437.1,132.6L432.4,133.3L429.4,136.2L428.9,138.0L431.1,138.3L428.3,139.9L430.2,140.6L440.3,138.2Z M374.9,134.8L380.0,134.8L383.9,132.7L383.8,131.7L372.4,130.5L370.5,130.0L368.2,131.5L372.4,133.9L373.1,135.0L374.9,134.8Z M510.1,132.5L503.4,128.3L485.0,128.9L477.4,130.6L458.3,131.1L453.0,133.4L450.2,134.2L446.5,132.7L446.5,132.7L444.9,132.3L442.1,134.0L444.4,137.6L450.7,137.7L453.4,137.0L457.7,137.2L462.4,134.1L467.1,135.5L465.7,138.0L474.0,136.9L477.7,134.4L480.6,134.2L484.7,133.0L482.3,137.3L488.0,137.1L496.4,139.9L496.6,140.5L492.1,139.1L485.3,138.3L479.6,138.5L478.4,139.0L485.9,141.0L487.3,141.9L484.0,141.6L477.0,139.3L474.3,140.1L473.4,142.9L475.4,144.4L479.0,145.8L482.0,148.3L479.4,148.8L478.3,147.3L473.9,145.8L470.1,141.4L469.4,141.2L464.3,142.6L459.6,142.1L459.2,141.2L452.0,139.5L441.3,140.3L438.8,141.3L433.6,142.3L441.6,145.0L446.0,145.5L449.5,147.3L449.2,148.1L451.5,150.1L455.1,151.4L458.3,153.7L448.3,150.5L447.9,148.5L445.7,147.3L431.1,144.3L430.1,145.5L433.1,147.1L439.1,147.6L434.2,148.8L432.7,150.0L444.0,148.9L444.2,149.9L447.8,152.0L442.4,150.9L445.1,152.6L442.4,153.5L440.6,153.1L438.6,154.8L440.5,156.3L444.2,154.6L446.4,154.4L449.7,156.2L454.2,156.9L453.4,158.0L444.7,156.1L441.7,159.1L447.2,159.8L446.0,161.8L449.2,162.7L445.6,162.6L443.2,160.6L440.7,160.9L446.4,163.7L444.1,164.8L437.0,160.1L435.6,160.5L438.5,161.9L438.9,164.5L438.2,165.8L440.7,167.2L446.5,168.4L446.2,169.4L449.3,170.9L446.2,170.7L436.9,166.2L436.0,162.8L433.7,160.6L428.8,159.1L430.4,156.7L429.3,154.7L430.0,151.6L427.9,152.1L426.2,147.6L423.6,148.1L423.7,150.9L420.9,150.9L422.2,154.1L421.2,155.1L413.3,157.1L413.7,158.0L416.1,155.8L415.2,153.7L411.7,152.0L412.0,153.2L410.0,154.8L406.8,153.7L405.1,154.1L401.1,156.4L400.8,157.6L398.5,158.7L403.4,160.9L402.7,159.4L410.0,157.3L411.3,158.6L418.7,158.8L421.1,158.4L423.3,159.4L429.8,159.8L426.1,160.9L425.0,162.8L419.3,163.2L412.1,164.3L411.9,165.0L408.7,167.7L409.8,165.0L407.4,164.9L402.6,166.3L400.3,166.4L396.6,169.5L397.7,167.3L396.0,166.6L386.1,166.5L382.6,168.7L391.5,167.9L391.2,169.1L387.0,169.1L379.7,170.3L379.1,170.9L382.2,171.5L390.4,172.0L388.9,172.7L389.9,173.9L394.0,174.1L384.4,174.7L380.7,175.6L384.7,176.3L378.9,178.5L383.4,179.4L391.4,177.5L396.0,175.7L398.2,174.1L404.2,170.9L402.8,168.4L404.9,169.8L406.4,168.7L405.3,171.3L415.9,173.1L420.9,174.9L423.0,176.7L421.7,177.4L415.6,174.5L413.1,173.8L405.4,174.1L409.0,176.4L411.4,175.8L416.0,177.4L410.2,176.7L411.4,177.7L406.1,176.9L401.1,175.6L400.6,176.7L403.1,177.0L397.8,179.3L399.1,181.0L401.1,180.3L404.6,181.3L407.0,181.3L409.0,182.8L402.6,181.9L399.8,183.3L400.3,185.3L410.8,186.3L413.0,186.0L417.3,184.1L425.1,183.0L426.4,183.9L422.0,184.2L414.8,186.3L412.3,188.6L414.5,188.9L412.0,190.7L414.0,191.6L416.6,194.3L416.9,195.6L420.3,197.2L418.8,198.7L416.6,197.9L411.1,190.5L408.2,187.7L405.9,187.5L400.7,187.9L399.9,189.5L397.0,191.0L397.1,187.8L395.9,186.7L390.6,188.6L385.3,188.4L386.4,187.6L391.4,187.5L393.0,186.0L390.1,184.2L397.0,185.0L392.7,182.8L390.1,183.1L382.5,185.5L381.8,188.6L388.9,190.0L393.2,189.6L384.7,193.3L383.5,192.9L383.4,191.0L377.5,190.7L375.8,193.3L371.7,196.2L368.1,199.5L365.7,200.5L375.5,199.9L377.4,199.4L377.4,201.9L379.7,201.8L385.9,199.7L383.4,199.0L388.8,198.7L397.7,196.8L398.3,198.6L395.1,200.1L401.2,200.8L406.4,200.5L414.9,201.6L421.8,204.1L411.1,201.9L409.1,203.3L411.4,204.1L412.2,205.7L411.1,206.9L411.9,208.5L408.7,208.1L408.6,204.9L401.7,203.1L399.0,203.0L395.8,202.0L392.8,206.4L392.5,207.7L388.8,205.1L390.3,203.7L384.0,201.9L380.1,203.3L377.0,202.4L373.5,203.7L379.1,203.9L380.2,204.8L371.5,205.1L372.1,205.9L370.3,207.4L371.1,204.5L367.6,204.8L368.7,209.1L373.6,209.9L377.7,210.9L377.5,211.8L370.4,209.9L364.6,210.0L364.1,213.0L358.5,213.7L356.5,210.4L355.9,214.2L351.7,216.8L349.9,215.7L352.5,214.6L352.9,213.5L347.7,215.1L344.5,214.9L345.5,216.1L344.1,216.6L337.9,216.5L335.3,218.2L340.0,219.0L342.4,221.9L353.1,223.8L355.0,224.3L345.9,224.2L336.7,223.6L335.5,224.7L344.2,225.4L344.2,226.4L338.9,225.8L337.4,227.8L338.6,228.4L344.0,227.2L351.2,227.2L347.7,228.5L343.6,228.4L343.5,229.6L336.8,229.4L335.3,228.4L325.7,227.8L326.2,229.0L335.0,230.4L337.9,232.4L332.9,231.3L323.4,230.9L322.6,231.7L326.0,232.7L330.9,232.6L326.1,233.7L324.6,236.7L326.0,237.2L336.3,234.1L343.7,233.6L345.4,234.2L340.3,234.0L335.7,236.8L341.6,237.7L341.5,238.7L337.3,237.4L334.2,237.6L327.0,238.9L328.2,239.2L327.6,241.5L332.9,241.5L331.5,242.1L326.0,241.8L325.4,239.5L320.5,237.5L315.4,238.5L319.9,239.8L320.9,241.1L323.5,241.8L324.0,244.4L323.0,245.8L317.4,247.3L320.3,249.6L324.2,248.9L323.3,250.2L327.0,250.5L330.5,249.2L330.5,246.7L332.9,248.4L335.0,248.1L334.0,249.5L338.1,249.4L337.8,250.4L330.8,250.3L324.6,252.5L319.6,255.8L321.3,257.1L326.6,255.4L329.7,253.5L334.9,253.4L343.2,251.7L341.3,252.4L343.2,253.5L346.4,252.9L347.8,250.9L354.7,252.0L356.8,250.1L363.9,248.6L363.7,249.5L358.9,251.9L358.1,253.5L352.1,254.5L350.3,255.6L350.9,253.9L348.8,253.4L344.2,254.6L343.1,256.4L347.1,257.1L352.3,257.4L352.0,258.5L347.5,257.9L343.6,258.2L340.6,260.5L340.7,258.2L342.0,256.4L338.4,256.4L341.6,254.7L339.5,253.6L330.6,254.7L324.9,257.3L320.5,258.2L313.4,259.2L306.3,262.4L307.5,264.1L316.2,263.1L319.1,261.9L318.0,265.1L316.4,266.7L317.3,267.8L326.0,271.1L326.2,272.1L322.4,271.4L321.9,270.7L313.5,268.1L306.9,270.3L307.9,275.2L302.8,279.5L306.8,281.9L309.7,285.4L305.4,284.4L306.4,283.1L304.7,283.1L303.7,281.3L300.4,280.6L294.9,285.7L296.0,288.2L297.9,287.9L297.5,289.1L299.2,291.6L302.8,288.7L302.6,289.8L300.3,292.0L302.3,292.5L304.4,288.3L305.5,291.3L304.4,292.4L306.5,295.3L311.9,294.9L313.5,295.3L308.2,295.8L311.2,300.1L307.6,297.4L304.1,296.0L301.7,296.8L304.5,300.4L309.3,300.9L310.6,302.3L306.8,300.9L303.3,300.8L299.4,302.0L301.9,301.9L300.9,303.1L296.4,303.7L294.1,307.5L296.8,305.6L300.4,305.3L301.5,306.3L310.5,305.9L310.5,306.6L300.4,306.7L303.4,309.2L302.3,310.2L298.7,310.5L298.3,311.8L303.9,312.2L310.4,309.5L320.4,302.1L314.7,308.6L311.0,311.4L308.6,311.9L308.2,313.2L302.9,315.2L291.7,317.3L292.5,319.7L292.3,320.1L296.2,321.5L301.3,320.7L307.1,321.2L309.9,322.7L313.3,322.6L317.2,321.5L321.9,320.8L322.9,318.1L325.8,317.2L330.9,313.5L337.8,314.3L347.3,313.9L352.4,314.3L374.7,312.9L379.2,313.9L379.2,313.8L379.9,308.4L384.2,304.5L385.4,302.9L384.3,295.0L384.8,282.3L387.8,276.9L387.3,274.8L381.3,259.7L402.0,258.2L418.6,251.7L418.7,249.9L415.2,241.7L414.8,240.2L423.9,234.4L436.8,219.2L440.0,216.7L450.8,210.4L451.0,203.6L450.6,202.6L436.6,190.9L438.9,186.4L445.5,185.7L449.8,183.8L454.2,179.1L458.6,167.1L460.2,165.3L475.6,158.5L479.1,155.1L503.0,162.2L504.0,162.0L512.3,152.3L512.8,150.2L509.1,140.0L509.4,132.7L510.1,132.5Z M380.0,115.1L380.7,112.9L375.4,114.5L380.0,115.1Z M416.8,110.7L411.8,110.9L407.7,110.5L405.4,112.8L406.2,114.5L403.4,116.2L406.2,118.0L403.9,117.6L401.7,118.8L399.9,118.4L401.3,121.7L407.8,121.9L409.9,123.6L400.4,122.6L401.1,125.9L403.6,127.5L406.3,127.6L407.8,128.7L400.7,128.3L401.7,131.6L399.2,130.1L395.9,130.5L396.6,131.3L391.1,133.3L394.8,133.7L397.6,135.1L393.9,135.8L395.1,136.6L392.3,137.9L388.0,142.9L385.8,144.2L385.9,147.4L389.1,146.5L394.5,143.0L392.6,142.3L402.2,138.8L405.9,136.3L405.6,134.0L408.6,135.8L407.0,136.5L398.0,142.3L398.8,143.3L410.8,144.0L412.7,142.7L413.4,140.1L414.9,138.5L417.3,140.1L417.3,138.5L418.8,135.7L419.6,137.4L419.8,141.4L422.3,140.8L424.6,137.3L426.1,136.4L427.2,132.8L437.0,131.4L442.5,132.1L443.0,130.6L442.8,130.4L432.6,127.9L424.3,129.8L421.5,129.2L418.4,132.0L409.8,136.0L410.9,134.5L409.3,132.1L410.3,128.4L413.8,124.8L411.2,121.2L413.5,119.5L416.4,115.0L415.7,112.0L416.8,110.8L416.8,110.7Z M388.9,112.0L387.0,110.6L386.9,108.5L384.1,108.0L381.2,109.6L384.3,114.9L387.6,116.8L388.3,118.0L383.8,116.2L382.8,117.7L380.9,116.5L378.1,116.6L380.2,118.0L374.4,119.5L371.4,120.9L369.6,117.7L367.3,117.4L368.2,119.5L366.5,120.6L367.0,122.3L363.4,118.6L360.3,121.2L363.5,121.9L358.4,124.3L361.1,128.7L363.4,129.0L365.9,127.9L368.2,128.0L370.1,123.7L370.9,124.8L374.1,125.5L375.8,123.8L376.2,125.5L382.3,124.0L385.2,121.6L383.4,120.5L388.4,121.2L389.4,124.1L378.4,126.9L376.7,127.0L375.8,128.6L378.1,129.1L378.6,130.1L386.2,130.5L396.5,126.6L398.2,122.5L394.8,121.4L397.0,116.2L391.5,117.7L393.1,113.4L392.1,112.8L390.1,114.7L388.9,114.5L390.9,113.1L388.9,112.0Z M412.8,107.4L419.7,101.7L421.5,101.1L423.9,93.6L421.8,92.3L417.1,93.8L412.4,97.2L410.8,100.3L409.6,101.0L404.0,102.1L398.8,107.9L398.2,112.5L399.9,114.7L401.3,114.0L403.5,110.6L402.3,107.8L405.8,109.3L410.7,108.3L412.8,107.4Z " data-id="NO.NO" data-name="Nordland" id="NO.NO"/>
utf-8utf-8<path d="M465.5,121.1L461.2,115.8L457.6,119.1L454.9,120.7L455.3,122.8L465.5,121.1Z M469.5,115.8L463.5,113.1L466.8,115.5L469.9,119.3L471.4,119.3L474.5,117.1L477.9,115.5L472.7,112.8L468.5,114.1L471.7,115.9L469.5,115.8Z M416.8,110.8L415.7,112.0L416.4,115.0L413.5,119.5L411.2,121.2L413.8,124.8L410.3,128.4L409.3,132.1L410.9,134.5L409.8,136.0L418.4,132.0L421.5,129.2L424.3,129.8L432.6,127.9L442.8,130.4L442.6,130.3L444.7,125.6L443.6,125.1L445.1,123.7L443.0,123.0L443.3,119.9L441.2,119.5L442.3,117.6L439.5,118.2L436.6,116.1L433.5,115.3L430.9,113.6L431.5,115.5L432.8,116.1L428.8,116.0L425.6,117.1L425.3,118.9L430.5,122.3L426.3,122.0L424.0,123.4L425.7,125.6L425.3,127.8L421.7,125.6L415.7,128.8L416.0,131.2L413.3,133.0L414.6,127.1L416.7,126.8L421.5,120.9L419.2,119.6L417.9,120.8L412.7,122.3L415.0,121.2L417.7,115.4L416.8,110.8L416.8,110.8Z M448.7,110.0L447.3,112.2L450.6,110.9L448.7,110.0Z M436.7,110.0L432.2,108.8L430.7,110.2L436.4,113.7L439.7,114.5L443.3,114.4L444.4,112.2L442.7,110.2L440.9,110.6L436.7,110.0Z M475.4,109.2L479.8,106.1L480.3,103.8L475.4,104.5L473.1,106.8L473.4,108.8L475.4,109.2Z M484.0,80.2L481.2,77.5L480.4,78.0L482.3,82.3L479.7,81.9L475.1,77.8L473.1,77.7L473.1,79.1L474.7,80.7L479.9,84.0L478.7,84.5L469.9,81.1L467.3,81.6L470.4,84.0L462.9,82.7L465.5,85.1L468.8,85.9L475.6,86.5L473.8,87.2L467.9,87.4L471.1,89.7L467.3,88.3L454.0,88.0L455.6,90.2L460.0,89.9L462.3,92.5L453.7,92.2L454.3,93.4L457.5,93.2L461.3,94.1L461.1,96.8L455.5,96.4L457.0,98.5L460.1,99.3L464.7,98.2L460.5,100.3L461.1,101.0L458.0,101.4L450.3,103.0L449.9,104.0L452.1,105.8L463.2,104.2L461.5,106.6L462.3,108.2L467.6,106.3L465.4,106.0L467.9,103.1L473.2,100.6L474.6,99.3L478.7,98.2L477.5,100.6L482.3,100.6L485.9,99.7L490.4,99.8L496.9,98.9L493.5,96.5L495.4,95.0L492.6,92.2L493.1,91.4L499.6,89.2L496.0,86.9L493.0,86.5L494.2,83.7L496.8,83.0L493.5,81.8L490.5,82.9L489.6,85.3L490.3,80.9L487.6,78.1L485.5,80.4L484.0,80.2Z M502.3,71.3L501.2,69.5L499.0,70.4L502.3,71.3Z M510.7,66.4L514.8,65.9L514.5,64.9L511.5,64.3L509.2,65.4L510.7,66.4Z M524.4,63.4L518.0,63.0L517.8,64.4L522.2,69.9L522.1,72.8L520.8,73.2L518.9,71.9L517.7,69.7L517.7,67.2L514.0,67.6L511.5,69.9L507.2,67.5L505.5,68.4L506.6,71.0L508.1,71.5L516.2,72.0L517.0,72.9L511.7,72.1L506.8,72.3L501.3,71.8L500.3,72.1L505.0,75.7L509.2,75.6L505.3,78.1L504.3,76.8L498.9,75.8L496.4,76.4L494.8,76.0L493.8,78.1L494.9,78.9L504.7,81.2L513.2,79.8L516.2,79.8L518.6,78.8L522.8,79.5L526.6,77.5L524.0,75.9L524.6,73.5L530.7,70.8L533.0,70.3L533.7,68.1L530.4,65.7L524.4,63.4Z M596.0,67.2L598.0,65.5L596.7,63.1L597.4,62.1L590.2,65.4L591.8,67.4L596.0,67.2Z M635.5,60.7L635.7,59.6L633.8,59.8L635.5,60.7Z M557.1,64.6L558.8,64.1L563.1,58.6L562.0,57.5L556.8,59.0L553.2,60.5L548.0,64.4L549.8,65.5L557.1,64.6Z M604.7,56.7L601.4,54.9L598.6,55.9L598.0,57.2L600.2,59.8L601.8,60.4L606.7,59.1L606.7,58.1L611.0,56.7L605.6,57.0L604.7,56.7Z M635.1,56.2L630.3,54.9L628.3,56.2L634.1,57.6L635.1,56.2Z M512.2,55.8L512.2,54.6L510.5,55.3L512.2,55.8Z M537.5,53.4L536.7,52.2L533.5,53.5L533.9,55.6L532.2,56.4L530.3,55.3L526.7,55.6L523.0,57.2L527.2,58.7L524.8,60.1L520.9,59.5L521.1,61.5L524.2,62.1L532.6,65.4L536.1,68.0L544.2,66.8L556.1,56.8L552.2,57.5L551.4,54.7L547.3,54.8L544.8,57.6L540.6,55.6L541.4,53.2L537.5,53.4Z M521.1,53.8L519.0,51.5L517.1,52.0L517.2,55.8L516.7,57.2L522.8,55.2L525.6,54.9L527.6,52.9L524.3,51.8L521.1,53.8Z M602.4,53.1L602.9,51.7L600.3,49.8L598.4,50.0L598.1,51.1L599.8,53.5L602.4,53.1Z M550.1,52.3L549.9,51.0L542.4,49.3L541.8,51.1L550.1,52.3Z M568.9,49.7L566.2,48.0L564.8,48.8L568.9,49.7Z M523.1,47.4L521.5,47.4L519.9,49.5L524.0,49.5L523.1,47.4Z M614.2,45.7L614.9,47.0L617.8,48.6L624.9,48.3L626.3,52.5L630.1,52.2L634.7,54.1L637.9,53.5L639.0,52.5L648.8,51.0L648.8,51.8L645.0,54.2L639.3,54.4L638.0,55.3L640.8,56.6L644.1,56.6L650.3,55.6L648.0,56.3L648.8,60.3L647.3,57.9L644.0,57.9L643.4,60.0L645.2,63.7L647.1,63.9L647.8,65.6L645.3,65.2L650.4,67.7L652.2,70.5L646.7,68.6L644.2,66.1L637.9,63.2L635.0,62.8L630.5,60.9L631.3,59.5L629.1,57.7L622.3,55.7L619.9,55.6L616.3,58.5L616.1,60.5L620.9,61.9L616.3,61.9L617.5,65.1L615.1,63.5L610.9,64.4L611.5,65.2L608.8,66.1L609.1,67.8L606.7,66.5L607.0,65.1L604.6,64.7L607.5,62.1L611.4,60.1L609.8,60.0L601.8,63.2L600.3,63.3L602.0,66.0L595.6,68.8L590.5,69.0L592.2,72.3L591.0,76.3L596.6,78.0L600.8,81.4L603.9,82.3L598.1,81.7L590.0,81.6L587.1,84.5L584.8,88.4L582.9,88.8L577.2,91.3L573.1,95.0L572.5,93.7L578.6,88.8L580.6,88.3L581.7,84.4L584.0,83.6L583.3,82.7L587.0,77.7L583.8,73.3L584.0,71.2L585.6,66.7L586.1,63.5L580.0,58.7L576.9,61.1L575.0,60.5L570.8,69.0L569.3,69.3L570.1,65.2L565.6,69.3L566.0,70.3L564.2,71.9L566.3,76.3L569.2,77.4L562.7,77.1L561.3,81.2L562.1,82.0L561.3,85.7L555.5,87.9L556.2,86.9L559.7,84.9L558.4,83.0L560.8,77.0L558.6,73.5L560.4,71.4L561.4,68.2L559.9,66.8L553.0,67.4L548.8,68.6L542.9,68.3L535.6,70.7L535.5,72.9L530.7,76.9L533.3,80.8L539.1,79.5L542.2,79.3L543.9,81.6L542.3,81.1L536.3,81.1L533.7,83.7L541.1,89.1L546.5,88.7L548.6,89.0L552.1,91.0L553.5,95.2L556.2,96.8L555.0,97.2L552.3,96.2L548.7,97.1L545.9,96.1L546.4,94.9L549.4,93.6L548.8,90.8L540.9,90.4L535.3,88.1L534.9,86.5L531.0,85.0L530.3,83.3L527.8,82.7L527.7,80.1L519.1,80.7L513.0,82.6L514.0,83.7L512.9,85.2L517.9,86.3L521.9,89.5L532.7,91.4L536.3,93.4L532.9,93.3L530.1,92.1L523.3,92.2L522.0,93.7L520.0,93.1L518.0,89.8L517.2,90.1L517.5,94.3L515.9,93.6L513.2,88.3L510.1,88.3L510.3,86.3L508.4,84.5L504.4,84.0L501.6,84.9L501.4,90.4L496.6,93.8L497.0,95.7L501.1,96.8L500.2,99.4L503.6,100.6L498.5,100.6L496.0,100.9L492.7,102.3L484.5,102.6L482.8,105.5L478.8,109.2L480.0,109.1L477.1,113.8L480.7,112.9L488.4,112.0L492.9,114.1L494.0,115.2L487.7,114.2L479.2,117.3L486.5,119.1L490.3,119.4L492.1,120.1L492.3,121.6L489.7,120.1L483.4,119.5L479.1,118.2L474.3,119.6L470.6,121.2L473.0,122.2L477.4,121.8L481.4,124.6L486.5,125.1L480.2,125.9L476.3,123.6L472.3,123.1L466.4,124.2L465.8,125.0L467.4,126.5L465.3,126.0L460.2,123.9L454.4,125.1L446.4,127.8L445.6,130.5L448.3,131.9L447.5,133.0L446.5,132.7L450.2,134.2L453.0,133.4L458.3,131.1L477.4,130.6L485.0,128.9L503.4,128.3L510.1,132.5L519.6,130.7L528.4,134.5L530.7,134.8L543.9,134.2L562.2,138.5L580.7,142.3L583.7,141.6L592.0,135.7L580.2,132.4L587.1,129.0L590.0,126.3L593.0,120.7L592.2,114.1L591.8,113.3L581.4,107.5L601.7,106.7L604.8,103.5L605.8,103.2L617.8,106.5L622.2,104.1L616.5,99.2L618.5,96.2L626.4,93.6L639.3,94.6L640.4,95.0L653.4,105.2L672.6,104.0L675.7,102.9L677.5,100.8L677.5,97.5L675.6,94.9L665.9,87.7L665.2,84.0L674.6,82.3L681.5,81.8L682.8,78.4L686.3,75.9L680.5,74.8L673.7,72.2L669.0,66.8L670.3,65.7L665.7,61.1L659.8,59.9L658.0,58.6L652.6,52.6L648.9,49.1L644.1,49.9L641.5,51.6L634.9,50.1L630.7,48.0L626.0,47.7L614.2,45.7L614.2,45.7Z M597.3,51.3L598.4,46.5L594.7,45.1L589.0,45.1L584.5,47.2L582.5,49.5L583.8,53.4L591.0,52.8L590.8,54.8L594.5,53.5L598.6,53.7L597.3,51.3Z M535.3,44.2L533.1,47.1L528.2,49.1L532.5,51.2L537.1,50.3L537.7,47.7L535.3,44.2Z M554.5,44.4L550.9,42.9L549.2,45.4L555.1,47.9L559.1,53.7L560.8,54.1L567.0,54.1L571.6,51.1L566.3,49.7L564.1,48.2L564.3,47.2L559.7,48.5L558.3,46.4L554.5,44.4Z M575.0,46.0L577.0,44.4L575.4,43.2L572.1,42.2L575.0,46.0Z " data-id="NO.TR" data-name="Troms" id="NO.TR"/>
utf-8utf-8<path d="M31.8,467.4L27.3,467.4L24.0,470.4L27.7,471.3L23.4,471.3L24.6,472.9L31.9,473.2L35.1,472.3L35.9,468.5L31.8,467.4Z M32.2,463.8L30.8,463.8L32.7,465.8L32.2,463.8Z M26.3,465.3L23.9,463.4L23.9,465.3L26.3,465.3Z M46.9,464.6L40.4,460.1L35.8,463.8L37.5,466.5L37.2,468.0L39.0,469.7L46.9,464.6Z M53.0,459.4L44.9,459.7L47.8,461.6L51.0,461.9L57.4,461.5L53.0,459.4Z M42.8,457.0L41.0,458.0L42.6,458.4L45.1,457.1L42.8,457.0Z M49.2,452.8L47.8,451.2L47.2,452.3L44.3,453.4L45.0,453.8L49.2,452.8Z M81.2,443.4L79.0,442.7L74.5,444.0L71.6,444.3L71.4,446.9L81.7,445.3L81.2,443.4Z M62.7,443.7L63.0,440.3L61.9,440.6L62.7,443.7Z M76.7,436.7L76.7,438.5L75.3,438.8L80.9,440.8L82.5,437.4L81.7,436.6L77.8,437.4L76.7,436.7Z M122.5,424.3L116.8,424.3L114.9,423.5L117.0,427.6L119.7,427.0L122.5,424.3Z M113.0,427.6L111.1,425.7L110.8,422.4L108.6,422.4L109.2,425.2L107.9,426.0L108.1,427.6L104.8,425.0L101.1,425.4L102.6,427.6L100.2,428.4L101.0,429.9L106.0,431.9L109.6,430.1L113.0,427.6Z M161.3,417.6L151.3,418.8L150.0,420.8L152.9,422.7L148.7,421.5L135.8,420.5L138.1,424.6L138.3,423.5L135.1,421.4L133.9,421.6L135.6,426.9L136.3,427.4L144.5,427.0L146.1,427.6L139.8,428.8L142.2,430.2L146.9,429.1L149.5,427.5L148.3,429.3L153.3,429.4L153.5,430.5L144.0,431.0L148.6,434.7L151.8,435.0L155.8,438.2L150.9,435.6L145.9,435.1L148.9,435.8L148.9,437.3L142.5,434.8L141.3,435.2L139.6,431.8L136.7,428.3L133.7,427.6L131.6,426.0L131.2,423.6L128.7,422.7L125.3,424.3L124.1,426.1L121.2,428.2L125.6,427.3L126.4,428.4L135.5,433.6L134.1,436.5L137.4,438.8L141.0,439.7L143.0,441.0L146.4,442.1L150.2,444.1L149.0,444.8L144.8,443.8L140.6,441.0L135.1,439.8L133.5,438.9L129.7,431.4L125.4,430.0L122.3,431.2L119.5,431.5L113.9,433.6L112.7,433.3L117.1,430.0L113.4,429.8L105.7,433.6L103.2,433.3L100.0,430.2L94.4,427.9L87.7,429.7L79.7,433.6L85.6,437.4L90.5,437.0L94.0,438.9L87.4,438.3L83.5,440.6L84.0,443.8L98.3,442.8L110.7,439.9L105.0,441.5L100.6,443.4L101.6,445.9L112.4,443.6L121.5,442.5L123.4,441.7L130.2,440.8L130.0,443.1L132.8,444.2L132.8,445.6L129.1,443.7L120.4,443.5L111.3,445.2L106.9,448.0L108.0,450.0L106.6,451.4L106.6,449.6L103.1,448.9L103.0,449.9L105.2,452.1L107.0,452.6L117.1,451.5L118.5,452.1L109.5,455.3L108.8,456.0L107.6,454.0L103.9,453.6L101.0,451.1L94.4,449.9L92.2,449.1L91.2,450.8L92.2,452.1L91.4,454.4L89.6,450.0L87.8,450.2L89.3,447.9L82.6,447.7L80.7,448.3L80.6,450.6L76.1,447.9L72.3,448.9L68.9,451.7L66.1,449.9L56.9,450.2L54.0,452.1L54.7,454.7L66.1,454.2L67.6,455.7L69.6,455.1L72.2,456.6L67.8,456.6L62.9,456.1L56.7,458.5L60.7,460.3L64.3,460.0L72.9,457.5L79.8,458.7L85.2,463.0L82.7,463.4L84.6,465.8L87.4,467.0L93.4,468.0L98.9,467.4L102.4,468.7L103.4,470.8L100.8,468.9L95.5,469.9L91.3,468.3L88.7,468.6L87.7,469.4L88.4,472.6L88.0,474.6L86.4,475.9L88.3,478.3L93.3,476.6L93.5,477.5L88.0,478.8L84.4,477.1L87.1,472.3L81.0,460.7L75.5,459.8L72.9,459.0L66.9,461.5L67.9,464.2L66.6,462.6L64.2,461.7L60.9,462.4L61.9,466.6L65.3,469.8L69.2,474.9L69.7,476.3L67.2,477.8L67.9,474.4L64.8,471.0L60.9,468.3L60.0,466.4L57.2,463.3L43.4,468.4L42.2,470.2L44.1,471.7L41.3,471.3L41.1,472.3L43.8,473.6L48.5,477.8L60.3,480.0L60.4,480.4L53.6,479.3L47.0,480.0L47.1,479.0L42.7,476.1L42.1,479.0L38.4,482.7L38.6,481.0L41.3,477.2L41.2,474.0L37.7,472.7L30.6,475.9L34.2,478.9L24.4,474.2L19.8,474.8L18.9,476.5L20.2,477.8L26.3,478.8L22.4,483.3L22.2,483.4L27.0,485.8L33.5,484.5L36.7,485.0L41.9,483.8L48.2,485.2L53.2,483.3L56.5,484.8L59.5,485.1L64.0,482.3L73.2,479.5L74.7,480.6L79.2,485.3L88.8,483.8L93.1,481.8L101.1,481.0L103.2,480.4L108.2,478.2L111.2,478.9L112.9,477.0L117.6,473.0L127.9,473.2L130.0,472.2L132.5,469.6L134.3,465.7L135.9,464.6L141.2,464.1L145.8,462.9L155.9,462.5L164.4,462.3L171.7,463.3L174.5,462.8L177.6,460.7L180.4,453.1L177.0,451.6L167.0,444.4L167.2,442.9L181.9,439.4L186.5,437.9L187.8,434.9L187.1,432.2L192.6,427.6L188.7,425.8L187.2,418.2L185.0,417.4L177.6,417.8L176.9,420.7L173.9,420.9L169.3,420.3L163.7,421.7L161.9,421.2L159.6,418.7L161.3,417.6L161.3,417.6Z M138.7,419.6L139.4,419.4L133.3,417.7L133.8,419.2L135.5,420.0L138.7,419.6Z M133.8,420.1L132.9,418.3L130.3,415.6L125.3,417.9L124.9,420.9L126.8,421.2L133.8,420.1Z M145.8,415.2L143.4,413.0L142.7,415.6L140.3,414.1L137.1,413.7L136.7,416.0L143.6,419.9L149.5,419.0L145.8,415.2Z M157.8,405.2L155.0,406.4L153.1,405.7L151.8,407.3L156.1,410.4L154.7,411.0L146.9,412.0L147.5,413.5L152.9,417.5L162.1,417.2L163.4,410.6L163.4,409.3L157.8,405.2L157.8,405.2Z M129.4,410.0L131.5,409.1L132.7,407.4L130.1,405.4L129.0,403.4L123.8,403.3L121.7,404.8L117.0,405.6L115.7,406.2L117.0,408.4L123.7,409.4L122.4,409.8L124.4,411.5L129.4,410.0Z " data-id="NO.MR" data-name="Møre og Romsdal" id="NO.MR"/>
utf-8utf-8<path d="M141.9,396.4L139.7,396.8L142.4,398.0L141.9,396.4Z M157.8,405.2L163.4,409.3L163.4,410.6L162.1,417.2L165.2,417.1L161.3,417.6L159.6,418.7L161.9,421.2L163.7,421.7L169.3,420.3L173.9,420.9L176.9,420.7L177.6,417.8L185.0,417.4L187.2,418.2L188.7,425.8L192.6,427.6L187.1,432.2L187.8,434.9L186.5,437.9L181.9,439.4L167.2,442.9L167.0,444.4L177.0,451.6L180.4,453.1L177.6,460.7L174.5,462.8L181.1,464.5L190.5,466.8L192.7,467.7L196.4,468.7L204.2,468.0L205.9,466.1L207.3,463.9L209.0,464.3L212.2,461.5L217.1,459.4L216.3,457.1L216.2,451.5L218.4,447.7L223.6,444.8L236.3,445.9L240.0,445.4L245.5,445.4L249.3,444.8L259.1,446.3L261.0,447.1L264.2,452.4L274.9,458.4L277.9,461.3L285.6,463.4L289.9,462.5L298.0,463.6L304.9,465.4L309.4,464.8L300.2,451.5L302.2,443.4L298.9,435.0L299.0,433.0L303.6,428.7L295.7,417.5L278.3,418.0L269.9,410.3L249.1,409.6L245.7,407.6L245.0,404.3L243.6,404.4L242.4,405.7L237.5,404.3L232.6,405.2L227.1,403.8L223.3,404.4L221.6,403.4L214.9,404.0L210.3,406.5L210.4,407.1L219.1,409.9L219.6,411.5L213.1,411.0L207.9,408.9L206.0,410.0L202.0,410.7L205.7,408.1L206.9,405.3L206.2,404.1L200.0,400.6L198.9,397.3L195.0,393.5L191.4,395.0L187.6,395.7L187.8,397.3L185.4,398.0L182.6,400.2L181.6,397.9L178.9,399.7L176.2,399.5L176.6,400.6L172.7,402.2L173.6,403.2L179.1,402.6L180.5,403.2L186.7,402.9L174.3,405.0L173.8,406.7L176.1,408.4L177.8,407.9L183.3,407.6L185.1,407.9L178.0,408.9L171.1,412.6L170.8,411.2L173.1,408.2L171.5,405.9L167.3,403.2L165.3,405.0L162.2,405.7L161.9,407.0L159.3,405.2L158.0,405.1L157.8,405.2Z M164.4,392.9L160.4,393.4L159.0,395.0L158.7,393.8L157.1,393.7L150.2,395.4L147.1,395.8L148.8,396.6L154.7,397.7L150.2,397.5L137.9,400.7L136.4,403.2L137.9,404.4L141.2,405.0L146.0,405.0L148.8,403.6L152.5,403.1L154.7,402.3L160.6,402.1L170.8,399.6L172.2,398.4L169.4,395.6L165.6,396.3L164.1,394.3L164.4,392.9Z M170.8,393.1L166.5,394.5L169.2,395.2L170.8,393.1Z M183.7,392.4L182.9,391.0L183.6,393.8L183.7,392.4Z M153.3,385.2L149.8,385.9L149.4,386.6L153.3,385.2Z M156.8,384.8L154.3,384.5L152.1,386.1L154.7,386.4L145.5,389.4L137.8,390.4L135.4,391.3L139.1,392.0L145.9,390.9L143.1,392.0L155.0,391.1L158.3,389.4L156.8,384.8Z M182.8,383.8L181.3,384.3L181.5,385.8L182.8,383.8Z M143.3,382.0L143.0,382.8L143.5,382.5L143.3,382.0Z M203.1,372.7L201.9,371.7L201.6,374.3L203.1,372.7Z M206.5,371.0L204.4,371.9L206.2,372.0L206.5,371.0Z M180.1,364.8L179.7,364.5L179.3,364.7L180.1,364.8Z M216.3,399.1L214.7,396.1L217.5,393.0L227.3,388.4L228.8,384.8L230.8,381.9L233.2,379.7L238.8,376.6L239.9,372.3L243.7,368.4L239.1,366.3L239.7,363.5L242.8,362.0L244.7,358.2L241.4,357.6L236.1,355.3L233.8,353.5L230.2,352.1L230.4,352.6L226.7,351.0L223.5,352.2L228.9,353.1L229.6,354.3L228.0,354.4L227.8,356.3L226.0,355.1L223.2,355.2L225.1,357.8L221.4,359.8L219.5,359.2L215.2,361.4L218.5,362.1L215.1,363.3L212.2,363.3L210.0,367.8L213.5,367.8L213.6,368.6L210.2,369.3L207.1,367.9L205.5,369.0L206.9,370.8L205.9,376.1L208.6,374.9L209.8,376.0L205.2,377.3L206.1,378.0L211.5,376.2L214.5,377.5L211.1,377.4L209.2,378.6L205.2,379.4L203.9,380.3L197.9,380.5L199.6,381.7L192.8,384.0L188.1,386.4L189.7,387.3L197.8,386.4L188.6,389.1L188.7,391.4L190.2,392.0L192.7,390.5L196.0,390.4L198.1,389.2L201.3,388.8L203.2,387.4L208.2,385.9L211.3,386.8L207.2,389.2L200.8,390.7L198.8,392.4L199.9,392.7L201.5,396.1L203.0,396.2L204.7,400.6L209.9,401.3L216.1,399.2L216.3,399.1Z " data-id="NO.ST" data-name="Sør-Trøndelag" id="NO.ST"/>
utf-8utf-8<path d="M104.6,612.5L102.7,613.2L98.9,613.7L97.7,615.0L93.7,617.4L93.8,620.8L94.5,624.1L90.5,625.8L88.6,630.5L87.8,636.7L89.2,640.1L92.9,639.7L96.4,639.9L103.5,641.7L102.4,643.3L102.2,646.9L102.9,649.2L101.1,650.4L103.4,653.7L99.8,658.2L99.6,660.1L101.3,660.5L105.1,659.7L111.6,658.8L114.8,657.9L120.0,657.9L122.7,658.7L126.3,663.5L126.0,665.9L123.8,668.5L122.7,668.6L123.3,675.6L121.2,677.2L122.9,680.9L127.5,681.6L131.0,680.9L133.9,684.0L145.7,687.9L145.9,690.4L151.2,691.8L152.2,699.3L152.3,698.9L157.2,694.5L161.1,693.5L164.0,693.6L167.2,688.4L168.4,689.3L172.7,686.7L174.5,683.9L177.5,682.5L182.5,678.3L181.4,673.7L183.2,674.8L186.2,674.4L188.6,673.3L193.2,670.0L193.7,667.2L190.6,667.9L187.0,667.1L187.7,665.9L195.1,666.6L197.6,666.3L200.3,664.0L200.9,663.7L192.9,661.8L192.7,659.8L184.7,653.1L183.9,651.2L178.9,651.1L175.7,652.0L175.1,653.6L175.8,656.3L173.3,659.6L165.1,654.8L161.4,656.1L158.3,655.3L155.9,653.6L154.3,654.0L147.0,651.5L145.9,652.6L141.2,652.5L132.4,644.6L128.8,641.8L126.7,633.5L119.9,628.4L118.1,627.6L121.4,624.4L120.1,621.9L117.5,620.5L117.9,616.8L115.3,615.5L113.1,613.4L108.8,614.2L105.7,613.4L104.6,612.5Z " data-id="NO.AA" data-name="Aust-Agder" id="NO.AA"/>
utf-8utf-8<path d="M16.0,624.4L19.8,623.6L25.4,622.4L25.4,622.1L28.7,619.4L29.0,614.8L28.5,609.9L26.3,611.6L26.1,616.3L25.6,617.0L20.7,616.1L20.1,617.6L16.4,621.1L18.2,621.8L15.9,622.3L15.9,623.4L16.0,624.4Z M32.7,605.5L33.6,603.6L32.5,602.3L31.0,602.9L32.7,605.5Z M16.3,604.8L13.7,602.2L11.5,602.6L13.4,604.9L11.4,604.9L10.5,608.3L12.3,607.6L15.4,608.7L12.4,612.8L12.3,614.7L14.2,618.0L16.2,615.8L14.1,613.7L15.7,611.3L15.5,610.0L19.8,609.2L20.8,612.6L21.8,610.8L16.3,604.8Z M28.7,606.2L28.2,603.0L25.1,598.6L23.6,597.6L19.3,598.7L17.7,600.3L21.2,607.4L25.5,608.7L28.7,606.2Z M15.1,594.4L11.1,596.0L12.1,597.0L15.5,596.5L15.1,594.4Z M35.1,591.5L33.3,591.0L28.6,591.9L26.1,594.9L22.9,596.4L26.5,597.9L29.8,600.7L31.6,599.5L34.6,599.9L33.0,597.3L34.9,595.1L35.1,591.5Z M17.8,590.9L15.4,589.2L14.4,591.4L15.2,593.3L17.7,595.6L19.6,592.3L17.8,590.9Z M10.2,587.2L8.2,587.6L9.8,588.2L10.2,587.2Z M10.1,577.2L6.0,572.8L5.1,570.7L3.5,571.1L4.8,576.5L5.8,578.5L3.6,578.9L7.0,582.8L7.2,581.4L10.8,584.5L11.1,583.9L8.3,579.1L9.7,579.2L10.1,577.2Z M6.8,565.9L3.9,563.8L6.0,567.3L9.2,569.7L11.5,570.3L11.0,572.0L14.2,571.7L14.1,568.8L12.2,567.1L6.8,565.9Z M0.0,566.4L2.6,567.3L0.6,564.3L0.0,566.4Z M34.9,568.7L34.9,557.3L31.4,556.7L30.4,559.8L24.2,562.8L23.2,563.9L19.5,564.6L28.6,570.8L32.0,570.3L34.9,568.7Z M9.9,548.3L10.7,549.8L12.2,547.4L13.1,548.9L15.3,549.5L17.6,549.2L19.9,546.1L27.9,546.2L20.3,547.5L19.2,550.1L15.4,552.4L17.4,553.3L20.8,553.7L23.0,555.8L21.3,557.4L23.1,559.7L20.5,558.1L19.4,558.5L18.3,555.3L9.8,551.9L7.6,551.6L5.5,550.3L2.0,550.4L6.6,553.7L10.7,554.6L12.3,557.7L15.1,560.8L9.0,558.1L15.1,563.0L18.5,563.8L21.6,562.7L24.5,560.8L28.4,559.4L28.2,556.1L31.1,555.9L34.2,552.8L35.0,553.1L35.7,555.9L36.5,555.7L37.3,558.4L36.0,563.7L36.2,568.8L30.6,571.9L25.1,570.2L18.8,565.6L16.0,567.8L16.6,571.1L18.1,572.7L17.4,573.5L13.6,573.4L12.1,575.5L14.6,576.2L13.2,579.3L19.0,581.2L15.9,583.4L22.5,585.6L21.6,586.5L24.2,587.8L29.1,582.3L33.6,575.7L35.6,574.1L37.5,574.0L34.8,575.3L30.9,581.8L32.7,579.9L32.1,582.2L35.2,582.5L32.2,583.6L29.9,586.1L30.3,586.7L37.6,584.7L36.9,586.2L37.9,587.8L36.8,589.4L40.7,590.9L36.4,591.8L36.1,593.0L39.4,595.7L40.0,593.9L42.4,594.8L44.2,590.3L43.2,586.8L50.0,579.9L55.8,580.2L57.2,575.3L54.8,574.9L59.3,574.0L56.4,569.3L58.6,572.1L61.8,573.4L69.6,570.1L73.0,569.3L76.5,566.5L75.0,570.9L77.9,570.7L80.5,568.8L92.2,562.3L90.0,565.0L87.4,566.9L96.3,566.9L95.2,568.3L89.3,567.6L83.3,568.7L81.1,570.2L79.8,572.2L77.2,573.8L73.9,579.9L74.3,582.6L72.4,586.0L72.1,590.7L71.7,589.0L72.2,580.5L74.1,578.0L73.8,576.7L76.5,571.9L73.6,571.0L69.5,571.7L68.0,573.4L64.2,574.6L60.3,577.9L57.9,578.4L55.6,583.1L52.7,584.1L54.3,587.7L54.2,589.2L58.3,588.2L60.6,586.1L62.2,588.4L54.0,590.0L50.2,592.0L47.7,595.3L40.3,599.1L38.9,600.2L39.1,601.8L35.0,603.4L35.6,604.2L38.3,603.0L37.7,604.3L43.2,608.0L48.0,603.3L49.0,603.0L47.6,607.6L48.2,608.3L52.1,608.4L55.7,606.2L60.9,604.0L63.0,604.2L57.5,606.6L52.2,609.5L50.0,610.0L45.9,608.6L45.7,609.9L42.6,610.4L40.1,612.7L41.6,614.3L45.5,613.4L45.6,614.5L43.0,614.4L38.6,617.2L38.7,614.1L31.9,613.4L30.6,620.0L30.6,620.0L33.5,619.8L39.6,618.4L44.0,618.4L51.5,616.8L58.3,616.8L59.7,612.9L61.3,610.9L62.8,607.5L71.2,603.6L73.2,603.1L79.3,603.8L80.2,606.6L79.0,610.4L81.1,611.3L84.3,610.4L93.9,606.6L97.7,606.8L100.1,604.7L101.0,599.3L102.9,597.1L111.4,592.1L113.0,588.8L113.6,587.9L116.5,584.6L121.0,575.7L120.3,564.5L115.6,557.5L111.7,555.9L90.3,553.3L84.3,547.7L80.0,547.1L79.6,545.0L82.7,543.4L82.3,542.5L79.5,542.5L76.6,540.6L74.2,542.3L70.5,543.6L68.6,541.5L59.3,543.9L53.5,542.1L52.7,539.9L49.5,537.7L41.7,540.7L38.8,539.7L34.9,540.6L31.7,539.8L23.0,542.8L20.2,542.8L17.7,541.9L11.9,543.5L9.5,548.4L9.9,548.3Z " data-id="NO.HO" data-name="Hordaland" id="NO.HO"/>
utf-8utf-8<path d="M35.0,643.9L37.6,645.8L41.3,647.4L42.4,645.1L35.0,643.9Z M46.6,642.0L44.2,640.3L42.5,643.4L45.1,643.6L46.6,642.0Z M28.1,642.3L25.4,637.9L24.7,639.1L28.1,642.3Z M52.0,638.5L56.1,635.9L54.9,635.4L49.6,635.5L48.8,636.3L52.0,638.5Z M3.9,633.6L2.0,634.4L3.3,634.9L3.9,633.6Z M20.3,635.0L20.3,632.9L19.1,631.9L17.0,628.0L16.2,629.8L17.1,630.3L15.7,632.6L18.1,635.4L16.0,635.0L15.4,636.1L15.6,640.4L17.6,643.4L18.8,643.5L21.4,642.0L22.1,637.0L20.3,635.0Z M30.5,620.3L29.6,621.4L26.9,622.3L25.4,622.4L25.4,622.4L19.8,623.6L16.0,624.4L16.2,625.4L21.0,632.0L22.4,631.3L22.4,628.3L23.3,628.3L23.2,630.8L25.6,631.2L26.8,628.6L26.5,632.8L27.1,634.1L30.2,635.8L33.2,632.7L32.3,628.4L33.4,628.0L37.1,634.3L38.7,632.3L40.2,632.6L44.9,631.9L45.0,629.8L42.8,627.8L39.9,627.3L41.6,626.1L44.0,622.4L47.0,624.5L52.3,624.7L57.0,623.9L57.9,624.6L48.0,626.3L46.4,626.3L47.7,630.5L51.3,630.0L50.6,627.3L51.8,628.5L54.8,627.8L57.4,626.1L59.8,622.7L62.0,617.9L63.7,615.1L61.4,621.8L65.6,620.3L72.9,619.3L74.6,619.9L69.6,620.4L61.7,622.7L58.0,627.4L53.3,629.8L51.4,632.3L55.6,633.4L58.0,632.3L59.8,633.1L60.2,631.7L61.9,633.8L55.3,634.2L56.6,636.0L60.5,635.9L65.3,633.3L71.7,633.1L71.7,633.4L65.7,633.7L62.7,635.8L59.2,636.7L53.3,641.6L52.4,643.1L57.5,643.1L53.0,644.4L48.8,645.1L46.8,647.8L47.6,648.9L50.3,650.6L52.0,650.1L51.4,653.6L54.1,656.9L58.0,652.4L59.4,651.6L65.4,650.6L67.7,649.6L79.5,648.1L79.6,648.5L60.9,652.4L55.1,657.0L57.9,659.8L62.8,660.5L56.8,660.1L51.3,656.9L49.0,654.6L47.4,653.8L43.9,655.3L41.0,655.5L40.3,659.0L39.7,657.8L40.0,652.8L32.7,649.3L31.6,652.0L34.2,652.5L32.8,653.1L34.8,654.3L35.9,656.7L32.3,654.0L34.0,657.5L32.2,658.9L32.2,663.7L30.2,665.4L34.5,672.5L38.0,677.0L40.6,678.6L43.8,678.6L44.7,680.4L51.7,681.1L53.1,685.1L60.1,688.9L62.9,689.1L69.4,691.9L71.6,692.7L73.4,691.5L78.2,690.1L81.4,685.4L79.6,679.6L78.9,673.5L72.7,670.8L77.4,669.2L79.4,667.2L77.6,665.0L75.5,663.6L78.1,658.5L77.6,654.9L85.4,648.5L90.5,643.9L91.7,640.9L92.9,639.7L89.2,640.1L87.8,636.7L88.6,630.5L90.5,625.8L94.5,624.1L93.8,620.8L93.7,617.4L97.7,615.0L98.9,613.7L102.7,613.2L104.6,612.5L100.2,611.2L99.5,610.7L98.8,610.0L98.5,608.0L97.7,606.8L93.9,606.6L84.3,610.4L81.1,611.3L79.0,610.4L80.2,606.6L79.3,603.8L73.2,603.1L71.2,603.6L62.8,607.5L61.3,610.9L59.7,612.9L58.3,616.8L51.5,616.8L44.0,618.4L39.6,618.4L33.5,619.8L30.6,620.0L30.5,620.3Z " data-id="NO.RO" data-name="Rogaland" id="NO.RO"/>
utf-8utf-8<path d="M7.8,533.1L6.2,530.6L5.1,532.6L7.8,533.1Z M0.0,536.1L3.9,532.6L2.6,529.4L0.1,529.8L0.0,536.1Z M0.0,495.8L3.6,495.1L8.2,491.8L8.0,493.7L10.5,493.4L12.4,492.2L0.0,489.5L0.0,495.8Z M5.4,483.3L2.2,481.9L2.0,483.5L5.0,485.3L3.4,486.9L5.9,487.8L7.5,487.3L8.9,484.4L7.6,482.4L5.4,483.3Z M9.5,548.4L11.9,543.5L17.7,541.9L20.2,542.8L23.0,542.8L31.7,539.8L34.9,540.6L38.8,539.7L41.7,540.7L49.5,537.7L52.7,539.9L53.5,542.1L59.3,543.9L68.6,541.5L70.5,543.6L74.2,542.3L76.6,540.6L79.5,542.5L82.3,542.5L82.7,543.4L79.6,545.0L80.0,547.1L84.3,547.7L90.3,553.3L111.7,555.9L116.1,552.8L120.4,550.3L123.8,545.7L127.9,543.2L132.7,543.6L134.9,543.0L141.3,538.0L141.3,535.3L140.5,533.3L134.6,525.9L137.9,523.5L140.7,520.5L137.7,515.6L138.7,515.0L144.8,514.3L140.0,510.2L131.4,507.6L128.2,504.3L126.6,499.1L123.7,497.5L120.2,497.0L110.2,497.4L107.8,495.7L105.8,492.6L104.3,488.5L104.6,485.2L102.0,481.2L101.1,481.0L93.1,481.8L88.8,483.8L79.2,485.3L74.7,480.6L73.2,479.5L64.0,482.3L59.5,485.1L56.5,484.8L53.2,483.3L48.2,485.2L41.9,483.8L36.7,485.0L33.5,484.5L27.0,485.8L22.2,483.4L21.6,480.4L15.8,477.9L9.3,472.0L5.5,473.6L5.2,474.8L7.7,476.6L7.0,477.8L11.2,478.1L15.1,480.0L17.0,481.8L18.3,481.8L9.2,485.1L7.0,488.4L8.5,489.3L20.8,487.2L21.9,487.9L24.6,487.2L30.1,488.0L43.6,488.4L42.4,489.2L33.8,489.5L37.3,491.6L41.3,490.4L49.4,492.2L56.3,491.7L65.6,493.5L67.1,492.9L68.9,490.5L73.2,489.9L80.1,491.0L78.8,492.4L72.5,490.6L69.4,491.4L66.8,494.5L61.8,494.5L57.7,492.9L47.8,492.9L53.3,496.7L50.8,496.5L45.8,493.1L43.9,493.8L43.1,496.6L41.4,498.3L43.1,492.8L42.1,492.1L34.2,492.9L29.3,494.0L30.2,492.9L34.5,492.2L31.5,490.1L28.3,489.4L25.0,489.4L19.5,488.7L15.2,491.4L17.3,492.6L8.6,495.2L5.8,497.1L11.2,496.6L8.9,498.0L9.0,499.5L3.3,497.6L1.9,500.5L0.7,501.6L3.1,504.3L13.1,504.3L17.8,503.6L14.9,505.1L21.6,506.6L16.7,506.9L17.8,506.2L9.7,506.2L10.8,506.7L18.8,508.5L9.5,508.5L9.5,510.2L16.1,512.6L20.6,512.2L24.7,514.0L30.8,511.8L35.5,511.9L35.8,512.8L31.4,512.5L30.1,513.8L25.9,515.4L24.4,515.3L18.1,513.4L11.7,513.4L10.7,514.2L6.2,514.6L1.6,516.5L7.8,515.9L5.7,516.9L3.7,519.2L6.5,521.3L11.0,519.5L27.5,518.2L30.9,519.2L22.7,518.8L14.9,519.9L18.5,524.3L18.4,525.0L15.4,521.0L10.0,522.2L8.1,522.2L4.8,523.3L2.2,525.2L4.7,526.1L6.9,525.6L5.1,527.2L10.2,526.8L15.0,529.1L13.9,530.2L9.3,528.9L6.8,528.8L6.2,530.2L10.5,531.1L12.8,533.4L15.6,533.2L17.1,532.1L18.8,533.9L24.8,534.0L27.4,532.0L36.4,530.6L37.7,528.3L38.7,530.6L44.5,529.8L48.6,527.9L45.4,530.2L47.7,531.0L52.7,530.4L54.5,529.1L55.8,531.0L59.3,532.3L65.8,532.9L68.4,531.7L68.3,528.6L66.8,527.7L69.4,527.5L68.2,524.4L69.3,523.3L72.5,523.8L74.9,521.4L73.4,524.3L70.8,526.8L75.4,528.4L81.6,529.2L85.3,530.2L89.9,529.1L86.4,531.7L87.2,532.9L95.7,531.2L100.8,529.8L101.8,530.2L105.1,528.6L102.9,527.2L102.3,524.8L103.9,517.6L109.8,513.7L113.3,512.3L112.7,513.2L105.4,518.2L104.5,521.1L102.8,522.1L105.0,527.8L108.9,528.3L115.3,527.5L119.3,526.4L117.7,527.8L115.6,528.2L109.1,528.6L105.2,530.8L106.7,532.8L105.8,533.5L102.9,532.0L99.4,531.5L97.1,533.2L90.7,533.7L90.3,534.9L93.9,540.7L97.9,543.5L95.2,547.0L96.2,544.2L92.6,541.3L90.8,540.9L85.1,542.8L90.4,539.3L88.6,534.8L84.9,534.4L83.8,532.2L80.7,530.9L74.8,530.5L72.2,531.3L71.4,532.7L65.0,535.5L63.3,537.8L62.7,535.5L57.7,536.7L58.7,536.0L58.3,534.1L51.4,532.5L41.4,532.7L40.6,534.0L38.0,535.7L37.5,532.9L30.2,534.4L31.9,535.5L27.1,535.1L23.9,539.5L23.2,537.8L20.7,537.8L10.3,535.0L7.5,535.2L5.3,536.7L10.7,539.7L10.9,540.8L9.0,542.0L9.3,546.1L8.2,544.5L8.1,542.1L5.3,541.2L7.9,548.5L9.5,548.4Z " data-id="NO.SF" data-name="Sogn og Fjordane" id="NO.SF"/>
utf-8utf-8<path d="M81.5,695.1L77.0,694.4L79.9,696.6L81.5,695.1Z M152.2,699.3L151.2,691.8L145.9,690.4L145.7,687.9L133.9,684.0L131.0,680.9L127.5,681.6L122.9,680.9L121.2,677.2L123.3,675.6L122.7,668.6L123.8,668.5L126.0,665.9L126.3,663.5L122.7,658.7L120.0,657.9L114.8,657.9L111.6,658.8L105.1,659.7L101.3,660.5L99.6,660.1L99.8,658.2L103.4,653.7L101.1,650.4L102.9,649.2L102.2,646.9L102.4,643.3L103.5,641.7L96.4,639.9L92.9,639.7L91.7,640.9L90.5,643.9L85.4,648.5L77.6,654.9L78.1,658.5L75.5,663.6L77.6,665.0L79.4,667.2L77.4,669.2L72.7,670.8L78.9,673.5L79.6,679.6L81.4,685.4L78.2,690.1L73.4,691.5L71.6,692.7L71.7,692.7L76.1,693.2L78.9,694.4L81.7,694.3L81.2,690.0L84.2,689.6L84.6,691.6L82.2,691.5L82.0,692.6L84.2,695.5L87.4,693.7L91.3,692.8L87.8,694.2L80.1,698.8L80.0,699.9L77.8,701.3L81.8,704.3L89.1,704.5L84.8,701.3L86.1,697.4L88.5,697.8L92.9,700.5L96.3,701.3L89.9,702.5L90.4,703.0L94.5,702.5L94.7,703.3L98.4,702.5L95.8,705.6L96.9,705.6L105.0,702.5L98.7,706.4L101.5,708.0L102.4,706.1L105.5,705.3L107.1,705.8L109.6,704.8L116.0,707.2L124.2,707.2L131.8,704.2L138.9,703.5L140.6,702.9L140.4,701.1L142.7,700.0L143.2,696.7L145.8,699.0L143.5,700.2L147.9,702.4L149.3,700.0L151.3,701.2L152.2,699.3L152.2,699.3Z " data-id="NO.VA" data-name="Vest-Agder" id="NO.VA"/>
utf-8utf-8<path d="M270.3,560.3L270.2,560.4L268.4,562.5L267.7,565.4L257.9,567.7L255.0,567.1L252.2,565.5L250.8,570.3L255.9,570.7L258.0,571.7L260.9,574.2L260.7,576.0L256.9,580.2L255.4,583.0L254.7,585.8L252.7,586.0L251.5,586.6L253.9,587.1L263.3,596.5L263.8,602.3L262.8,604.1L261.4,604.7L256.2,603.9L255.9,605.6L255.0,609.9L251.8,603.2L250.1,604.5L248.2,609.3L248.2,610.6L250.7,612.2L251.0,614.1L252.9,618.0L253.0,621.8L254.6,623.9L254.8,624.2L265.1,614.0L266.5,610.9L276.6,611.3L278.4,611.0L278.6,607.2L282.5,608.4L284.7,611.3L288.3,612.8L290.4,616.2L294.1,613.2L295.1,611.8L297.4,610.8L298.1,608.3L301.6,606.3L305.2,606.1L303.8,605.1L303.2,604.3L303.4,602.3L304.4,601.6L302.7,598.9L301.9,595.3L302.3,592.6L297.3,588.6L292.2,586.3L289.9,579.5L283.0,574.6L279.2,569.3L273.6,565.9L271.4,561.5L270.3,560.3Z " data-id="NO.AK" data-name="Akershus" id="NO.AK"/>
utf-8utf-8<path d="M246.0,584.9L239.0,581.9L234.8,578.2L231.5,574.0L227.9,565.4L222.0,558.5L217.7,558.3L217.5,560.7L212.7,562.1L212.2,564.6L213.6,568.0L210.0,567.6L205.1,565.7L203.6,563.8L195.1,562.5L190.7,555.2L188.7,551.0L185.8,550.3L175.1,545.9L171.6,544.1L165.1,543.1L161.7,542.1L157.4,538.3L152.6,537.1L144.7,532.7L143.9,533.1L141.3,535.3L141.3,538.0L134.9,543.0L132.7,543.6L127.9,543.2L123.8,545.7L120.4,550.3L116.1,552.8L111.7,555.9L115.6,557.5L120.3,564.5L121.0,575.7L116.5,584.6L113.6,587.9L113.0,588.8L119.7,587.0L123.4,586.9L128.3,588.0L143.1,584.1L152.1,584.7L153.4,585.1L170.6,585.7L172.2,586.1L177.5,589.3L178.6,592.6L180.5,595.2L184.8,596.5L187.6,598.5L188.9,603.6L195.9,606.0L196.1,610.5L198.3,611.8L201.9,619.1L203.0,619.8L202.8,622.5L205.2,622.4L211.3,626.7L215.7,627.1L215.1,624.6L215.5,623.7L225.7,623.7L227.6,622.8L225.8,620.5L221.9,617.7L221.3,616.1L225.5,612.9L227.3,614.0L229.6,612.6L236.3,612.3L235.7,612.2L233.7,610.7L234.2,609.9L242.3,615.3L243.0,617.2L243.1,621.4L245.8,622.5L248.3,621.3L250.3,619.3L250.2,615.2L245.8,611.5L244.7,607.1L244.7,606.2L240.9,606.0L239.1,605.0L238.5,601.9L239.5,598.6L241.7,593.3L247.1,590.5L249.1,586.5L246.0,584.9Z " data-id="NO.BU" data-name="Buskerud" id="NO.BU"/>
utf-8utf-8<path d="M204.2,468.0L199.7,472.5L200.7,475.2L206.6,477.6L209.5,479.1L210.2,480.7L206.8,487.7L208.9,488.7L215.1,488.7L218.6,489.1L219.7,492.2L218.2,495.1L218.0,497.3L229.2,500.0L232.9,501.3L239.7,497.9L241.5,498.5L242.4,500.0L245.3,508.4L246.0,512.6L254.0,523.6L249.5,525.9L245.5,531.3L239.7,535.4L237.6,536.1L240.8,539.0L244.5,540.5L250.5,545.7L249.9,548.5L250.7,550.2L265.0,556.9L269.5,559.3L270.3,560.3L270.3,560.3L271.4,561.5L273.6,565.9L279.2,569.3L283.0,574.6L289.9,579.5L292.2,586.3L297.3,588.6L302.3,592.6L301.9,595.3L302.7,598.9L304.4,601.6L305.0,601.2L307.2,600.7L314.2,601.1L316.0,600.9L322.0,597.5L328.3,592.3L331.1,586.1L329.3,580.5L329.4,576.9L331.5,575.0L333.2,571.7L333.4,569.7L332.3,566.4L326.7,558.4L321.7,553.0L317.3,542.9L316.3,538.4L326.0,536.5L333.3,537.0L334.5,535.9L335.5,530.9L338.3,527.9L339.5,525.1L340.5,519.8L327.7,508.9L319.1,506.9L315.5,504.1L307.6,499.0L311.6,470.9L309.7,465.3L309.4,464.8L304.9,465.4L298.0,463.6L289.9,462.5L285.6,463.4L277.9,461.3L274.9,458.4L264.2,452.4L261.0,447.1L259.1,446.3L249.3,444.8L245.5,445.4L240.0,445.4L236.3,445.9L223.6,444.8L218.4,447.7L216.2,451.5L216.3,457.1L217.1,459.4L212.2,461.5L209.0,464.3L207.3,463.9L205.9,466.1L204.2,468.0Z " data-id="NO.HE" data-name="Hedmark" id="NO.HE"/>
utf-8utf-8<path d="M171.7,463.3L164.4,462.3L155.9,462.5L145.8,462.9L141.2,464.1L135.9,464.6L134.3,465.7L132.5,469.6L130.0,472.2L127.9,473.2L117.6,473.0L112.9,477.0L111.2,478.9L108.2,478.2L103.2,480.4L101.1,481.0L102.0,481.2L104.6,485.2L104.3,488.5L105.8,492.6L107.8,495.7L110.2,497.4L120.2,497.0L123.7,497.5L126.6,499.1L128.2,504.3L131.4,507.6L140.0,510.2L144.8,514.3L138.7,515.0L137.7,515.6L140.7,520.5L137.9,523.5L134.6,525.9L140.5,533.3L141.3,535.3L143.9,533.1L144.7,532.7L152.6,537.1L157.4,538.3L161.7,542.1L165.1,543.1L171.6,544.1L175.1,545.9L185.8,550.3L188.7,551.0L190.7,555.2L195.1,562.5L203.6,563.8L205.1,565.7L210.0,567.6L213.6,568.0L212.2,564.6L212.7,562.1L217.5,560.7L217.7,558.3L222.0,558.5L227.9,565.4L231.5,574.0L234.8,578.2L239.0,581.9L246.0,584.9L249.1,586.5L251.5,586.6L252.7,586.0L254.7,585.8L255.4,583.0L256.9,580.2L260.7,576.0L260.9,574.2L258.0,571.7L255.9,570.7L250.8,570.3L252.2,565.5L255.0,567.1L257.9,567.7L267.7,565.4L268.4,562.5L270.2,560.4L270.3,560.3L270.3,560.3L269.5,559.3L265.0,556.9L250.7,550.2L249.9,548.5L250.5,545.7L244.5,540.5L240.8,539.0L237.6,536.1L239.7,535.4L245.5,531.3L249.5,525.9L254.0,523.6L246.0,512.6L245.3,508.4L242.4,500.0L241.5,498.5L239.7,497.9L232.9,501.3L229.2,500.0L218.0,497.3L218.2,495.1L219.7,492.2L218.6,489.1L215.1,488.7L208.9,488.7L206.8,487.7L210.2,480.7L209.5,479.1L206.6,477.6L200.7,475.2L199.7,472.5L204.2,468.0L196.4,468.7L192.7,467.7L190.5,466.8L181.1,464.5L174.5,462.8L171.7,463.3Z " data-id="NO.OP" data-name="Oppland" id="NO.OP"/>
utf-8utf-8<path d="M249.1,586.5L247.1,590.5L241.7,593.3L239.5,598.6L238.5,601.9L239.1,605.0L240.9,606.0L244.7,606.2L244.7,606.2L247.2,601.7L250.1,601.0L255.5,601.8L256.3,603.6L256.2,603.9L261.4,604.7L262.8,604.1L263.8,602.3L263.3,596.5L253.9,587.1L251.5,586.6L249.1,586.5Z " data-id="NO.OS" data-name="Oslo" id="NO.OS"/>
utf-8utf-8<path d="M211.3,626.7L205.2,622.4L202.8,622.5L203.0,619.8L201.9,619.1L198.3,611.8L196.1,610.5L195.9,606.0L188.9,603.6L187.6,598.5L184.8,596.5L180.5,595.2L178.6,592.6L177.5,589.3L172.2,586.1L170.6,585.7L153.4,585.1L152.1,584.7L143.1,584.1L128.3,588.0L123.4,586.9L119.7,587.0L113.0,588.8L111.4,592.1L102.9,597.1L101.0,599.3L100.1,604.7L97.7,606.8L98.5,608.0L98.8,610.0L99.5,610.7L100.2,611.2L104.6,612.5L105.7,613.4L108.8,614.2L113.1,613.4L115.3,615.5L117.9,616.8L117.5,620.5L120.1,621.9L121.4,624.4L118.1,627.6L119.9,628.4L126.7,633.5L128.8,641.8L132.4,644.6L141.2,652.5L145.9,652.6L147.0,651.5L154.3,654.0L155.9,653.6L158.3,655.3L161.4,656.1L165.1,654.8L173.3,659.6L175.8,656.3L175.1,653.6L175.7,652.0L178.9,651.1L183.9,651.2L184.7,653.1L192.7,659.8L192.9,661.8L200.9,663.7L201.2,663.5L200.1,663.2L203.5,660.9L198.0,661.2L197.7,659.1L200.0,657.4L203.4,658.2L206.0,657.4L204.0,655.5L208.7,655.9L209.4,654.7L213.5,653.9L211.9,652.4L214.9,650.6L210.7,648.7L210.1,647.2L206.3,644.7L210.2,645.4L211.9,648.3L215.8,649.4L217.2,648.6L218.9,650.0L219.3,650.5L220.0,644.6L219.2,641.5L220.0,635.6L216.3,632.5L215.4,630.7L215.7,627.1L211.3,626.7Z " data-id="NO.TE" data-name="Telemark" id="NO.TE"/>
utf-8utf-8<path d="M245.5,646.6L245.5,647.7L246.0,648.0L245.5,646.6Z M248.8,630.4L248.7,629.8L248.6,630.8L248.8,630.4Z M236.3,612.3L229.6,612.6L227.3,614.0L225.5,612.9L221.3,616.1L221.9,617.7L225.8,620.5L227.6,622.8L225.7,623.7L215.5,623.7L215.1,624.6L215.7,627.1L215.4,630.7L216.3,632.5L220.0,635.6L219.2,641.5L220.0,644.6L219.3,650.5L219.7,651.0L218.8,653.6L220.3,654.0L225.2,653.9L228.4,651.9L227.5,649.6L233.0,651.5L236.7,649.9L236.5,645.0L238.0,648.7L240.0,648.1L239.0,643.9L240.0,644.3L240.6,639.4L241.7,639.1L241.5,636.2L246.3,637.5L248.0,634.4L244.8,631.8L245.9,627.3L241.1,625.8L239.3,623.6L236.4,621.9L236.3,620.0L241.3,621.3L241.2,615.5L240.7,614.4L236.4,612.3L236.3,612.3Z " data-id="NO.VF" data-name="Vestfold" id="NO.VF"/>
utf-8utf-8<path d="M268.0,646.7L266.8,648.2L268.2,646.8L268.0,646.7Z M271.9,647.3L269.9,647.2L270.0,649.6L271.7,650.3L273.8,647.1L271.9,647.3Z M263.8,645.7L263.4,647.2L266.0,646.4L263.8,645.7Z M305.2,606.1L301.6,606.3L298.1,608.3L297.4,610.8L295.1,611.8L294.1,613.2L290.4,616.2L288.3,612.8L284.7,611.3L282.5,608.4L278.6,607.2L278.4,611.0L276.6,611.3L266.5,610.9L265.1,614.0L254.8,624.2L254.9,624.4L251.2,626.1L250.8,627.2L253.6,628.5L253.3,630.3L254.9,633.7L259.5,633.8L257.8,637.9L259.3,638.4L262.1,642.2L265.4,640.4L266.2,643.5L266.9,641.2L269.7,641.8L271.3,644.3L273.9,644.3L273.5,641.6L275.8,643.5L276.3,641.6L277.5,640.9L278.9,643.3L277.9,644.9L286.2,645.8L290.5,653.7L290.7,657.4L297.7,657.5L299.9,656.0L300.9,653.0L302.5,643.6L304.4,638.3L303.0,631.1L297.4,620.0L297.8,616.4L303.5,614.3L306.0,611.7L306.2,608.1L305.5,606.3L305.2,606.1Z " data-id="NO.OF" data-name="Østfold" id="NO.OF"/>
utf-8utf-8<path d="M238.6,346.0L236.4,344.7L235.9,345.1L238.6,346.0Z M259.7,339.7L259.1,343.0L264.2,344.3L263.1,341.9L259.7,339.7Z M254.2,341.0L247.3,338.8L248.3,342.2L252.7,341.8L254.2,343.3L250.3,344.0L252.7,346.6L255.4,346.2L258.4,347.7L262.6,348.5L263.8,346.2L262.6,344.9L258.0,344.8L255.9,342.0L254.2,341.0Z M259.0,338.8L256.9,336.6L252.1,337.6L251.7,339.6L257.1,341.4L258.5,340.7L259.0,338.8Z M232.6,329.7L231.4,329.9L232.3,330.1L232.6,329.7Z M251.8,324.9L246.8,322.7L236.4,327.7L239.7,327.7L243.6,325.5L247.1,325.3L247.0,328.9L249.1,328.7L252.5,327.2L254.3,325.5L251.8,324.9Z M236.0,327.1L239.2,325.0L241.8,324.4L247.7,321.5L246.8,320.9L241.6,322.3L240.0,323.1L233.6,324.4L232.4,326.9L232.8,328.1L236.0,327.1Z M240.1,320.5L236.8,320.2L233.1,320.6L235.7,322.9L237.8,321.1L237.9,322.1L240.1,320.5Z M274.3,314.1L266.2,314.1L264.3,315.4L267.4,317.4L269.6,316.5L269.7,317.7L271.3,316.9L274.3,314.1Z M292.3,320.1L291.6,320.3L291.1,320.1L291.2,319.5L291.2,319.4L287.7,318.8L286.2,317.8L285.5,316.8L285.5,316.8L282.7,316.3L278.5,317.8L275.8,319.6L277.3,320.7L270.4,322.5L263.5,323.2L264.8,325.0L267.7,324.4L265.3,325.6L259.8,324.2L253.7,327.7L268.2,325.9L270.7,325.8L265.1,327.4L255.2,328.4L254.3,329.9L256.2,329.6L258.1,330.5L261.1,330.4L258.8,332.4L254.4,333.8L254.9,334.3L261.6,332.4L263.5,330.2L269.2,328.5L268.9,327.0L273.8,325.9L280.6,322.7L286.3,321.5L293.6,323.3L281.0,324.0L273.4,326.7L270.4,328.5L276.0,327.7L276.1,328.9L271.6,329.1L270.2,329.6L278.5,330.7L276.5,331.7L266.8,332.6L268.6,333.0L260.7,337.0L262.0,339.6L267.5,343.3L269.9,340.1L272.0,341.9L277.0,341.8L272.0,343.3L268.6,345.0L268.7,344.0L265.9,344.4L267.4,345.9L264.8,346.1L263.5,348.9L272.5,348.1L265.2,349.6L261.9,350.0L255.4,356.6L259.7,350.7L256.6,349.6L252.2,349.9L252.2,347.6L249.3,345.9L247.0,342.7L243.0,341.4L241.4,342.6L243.2,344.2L240.9,348.4L238.0,346.4L238.8,348.9L235.3,348.2L235.2,348.9L231.8,349.5L232.3,350.3L235.3,349.9L237.6,351.3L239.8,353.6L235.6,352.8L234.1,351.5L230.1,351.9L230.2,352.1L233.8,353.5L236.1,355.3L241.4,357.6L244.7,358.2L242.8,362.0L239.7,363.5L239.1,366.3L243.7,368.4L239.9,372.3L238.8,376.6L233.2,379.7L230.8,381.9L228.8,384.8L227.3,388.4L217.5,393.0L214.7,396.1L216.3,399.1L216.6,399.0L225.2,397.1L229.8,394.9L233.1,393.7L233.9,392.1L238.3,391.0L241.1,389.4L245.1,388.8L247.9,386.4L248.0,385.3L251.5,383.1L250.6,381.7L245.4,379.7L244.0,379.9L238.7,382.3L235.4,382.8L233.1,384.1L243.6,379.2L246.3,377.0L254.9,373.8L256.6,370.2L259.6,368.3L262.1,367.8L257.3,370.8L258.3,372.2L268.2,373.0L265.8,375.1L260.2,376.0L253.0,382.3L258.7,381.4L265.6,382.3L267.7,385.6L262.7,385.9L254.0,390.2L250.3,389.4L245.2,391.3L239.2,394.6L236.0,398.2L243.3,396.0L246.2,395.8L243.7,397.6L246.5,398.4L242.7,398.6L239.8,400.4L240.7,402.1L246.6,403.2L245.0,404.3L245.0,404.3L245.7,407.6L249.1,409.6L269.9,410.3L278.3,418.0L295.7,417.5L292.5,412.9L300.5,403.9L300.9,401.6L298.3,396.0L303.1,392.8L310.2,384.5L317.7,376.5L320.6,374.6L329.6,371.0L339.9,369.2L369.7,373.6L371.4,373.1L377.3,365.0L377.7,363.0L374.4,350.2L373.4,348.9L366.8,347.5L354.0,342.5L363.7,331.5L378.5,315.5L379.2,313.9L374.7,312.9L352.4,314.3L347.3,313.9L337.8,314.3L330.9,313.5L325.8,317.2L322.9,318.1L321.9,320.8L317.2,321.5L313.3,322.6L309.9,322.7L307.1,321.2L301.3,320.7L296.2,321.5L292.3,320.1L292.3,320.1Z " data-id="NO.NT" data-name="Nord-Trøndelag" id="NO.NT"/>
utf-8</g>
</svg>
