<?xml version="1.0"?>
<!--
************* Copyright (c) 2017 Pareto Softare, LLC DBA Simplemaps.com *******************		
************* Free for Commercial Use, full terms at  http://simplemaps.com/resources/svg-license ************
************* Attribution is appreciated! http://simplemaps.com ***************************
-->
<svg baseprofile="tiny" fill="#7c7c7c" height="1197" stroke="#ffffff" stroke-linecap="round" stroke-linejoin="round" stroke-width="2" version="1.2" viewbox="0 0 1000 1197" width="1000" xmlns="http://www.w3.org/2000/svg">
 <path d="M567.5 677.5l-12.8 89.9-198 88.8-101 85.9-42.3-72.3-34.2-116.1 13.7-95.6 68.3-68.3 157 41 149.3 46.7z" id="NRU4970" name="Buada" data-id="NRU4970" data-name="Buada">
 </path>
 <path d="M255.7 942.1l-35.5 30.2-37.3 139.8-84.7-205.7 115.2-36.6 42.3 72.3z" id="NRU4971" name="Boe" data-id="NRU4971" data-name="Boe">
 </path>
 <path d="M213.4 869.8l-115.2 36.6-97.2-235.9 191.9-12.4-13.7 95.6 34.2 116.1z" id="NRU4972" name="Aiwo" data-id="NRU4972" data-name="Aiwo">
 </path>
 <path d="M261.2 589.8l-68.3 68.3-191.9 12.4 64.5-247.5 195.7 166.8z" id="NRU4973" name="Denigomodu" data-id="NRU4973" data-name="Denigomodu">
 </path>
 <path d="M580.4 580.4l-5.3 43.6-7.6 53.5-149.3-46.7-157-41-195.7-166.8 60.5-232.1 454.4 389.5z" id="NRU4974" name="Nibok" data-id="NRU4974" data-name="Nibok">
 </path>
 <path d="M589 508.7l-8.6 71.7-454.4-389.5 90.3-34.7 372.7 352.5z" id="NRU4975" name="Uaboe" data-id="NRU4975" data-name="Uaboe">
 </path>
 <path d="M604.7 392.1l-9.1 61.1-6.6 55.5-372.7-352.5 137.2-52.8 251.2 288.7z" id="NRU4976" name="Baiti" data-id="NRU4976" data-name="Baiti">
 </path>
 <path d="M622.9 268.9l-18.2 123.2-251.2-288.7 118-45.4 151.4 210.9z" id="NRU4977" name="Ewa" data-id="NRU4977" data-name="Ewa">
 </path>
 <path d="M622.9 268.9l-151.4-210.9 148-57 3.4 267.9z" id="NRU4978" name="Anetan" data-id="NRU4978" data-name="Anetan">
 </path>
 <path d="M945.4 148.2l-322.5 120.7-3.4-267.9 325.9 147.2z" id="NRU4979" name="Anabar" data-id="NRU4979" data-name="Anabar">
 </path>
 <path d="M980.8 407.8l-207.7-50.2-150.2-88.7 322.5-120.7 35.4 259.6z" id="NRU4980" name="Ijuw" data-id="NRU4980" data-name="Ijuw">
 </path>
 <path d="M980.8 407.8l16.8 123.4-98.3 305.6-153.5-21.6-191.1-47.8 12.8-89.9 7.6-53.5 5.3-43.6 8.6-71.7 6.6-55.5 9.1-61.1 18.2-123.2 150.2 88.7 207.7 50.2z" id="NRU4981" name="Anibare" data-id="NRU4981" data-name="Anibare">
 </path>
 <path d="M899.3 836.8l-36.1 112.3-243.7 246.9-119.9-23.1-142.9-316.7 198-88.8 191.1 47.8 153.5 21.6z" id="NRU4982" name="Meneng" data-id="NRU4982" data-name="Meneng">
 </path>
 <path d="M499.6 1172.9l-316.7-60.8 37.3-139.8 35.5-30.2 101-85.9 142.9 316.7z" id="NRU4983" name="Yaren" data-id="NRU4983" data-name="Yaren">
 </path>
 <circle cx="891" cy="349.6" id="0">
 </circle>
 <circle cx="675" cy="268.5" id="1">
 </circle>
 <circle cx="999" cy="565.7" id="2">
 </circle>
</svg>