<?xml version="1.0"?>
<!--
************* Copyright (c) 2017 Pareto Softare, LLC DBA Simplemaps.com *******************		
************* Free for Commercial Use, full terms at  http://simplemaps.com/resources/svg-license ************
************* Attribution is appreciated! http://simplemaps.com ***************************
-->
<svg baseprofile="tiny" fill="#7c7c7c" height="1333" stroke="#ffffff" stroke-linecap="round" stroke-linejoin="round" stroke-width="2" version="1.2" viewbox="0 0 1000 1333" width="1000" xmlns="http://www.w3.org/2000/svg">
 <path d="M780 410.1l0 0.1 27.5-3.7 32 33-5.9 31.4-19.2 4.8-21.1 13.7-7.8 0.9-29.1 23-12.5 26.3 31.5 111.3 12.1 42.7 14.3 41.1-40.4-20.8-208.9-104.7 25.2-32.7 20.1-60.9 24.4-109.4 36.7-1.8 37.6 38.5 14.6 1.7 4.9 2.4 32.5-5.4 3.8-8.5 27.7-23z" id="OMN2404" name="Ad Dakhliyah" data-id="OMN2404" data-name="Ad Dakhliyah">
 </path>
 <path d="M801.8 734.7l13.5 7-18 59-2.5-0.9-3.7 0.4-3.8 1.1-4 2.7-5.2 1.3-1.6 1.2-0.8 1.2-2.2 6.3-0.1 1.5 0.8 1.5 0.4 1.2-1.1 1.1-1.5 0.7-3.1 0.7-2.4 1.1-2.2 1.5-3 2.9-1.1 1.4-0.8 1.5-0.3 1.8 0.4 1.3 1.8 2 0.4 1.3-1 3-2.2 1.7-5.6 2.3-2.1 1.4-2.3 1.8-1.8 2.2-0.7 2.5-0.7 1.5-1.5 1.7-1.2 2.4-0.1 3.3 2.4 5.5 0.8 3.3-2.1 4.9-1.9 7.3-0.4 6-2.9 7.1-2.1 7.6-1.5 3.3-8 12-1.3 3.5 0.6 4.2 0.9 1.5 1.1 1.3 0.9 1.3 0.4 1.8 0.1 4.1-0.2 2-0.6 1.8-1 3.5-0.2 2.7 0.9 2.6 6.2 10.1 0.9 2.3 0.8 3.7 0 3.6-0.6 3.4-2.2 6.2-0.5 2.8 0.3 3.1 2.6 6.8 1.2 2.1 3.2 3.8 0.8 2.2-1.1 5.6-0.2 2.7 4.8 8.7 0.1 2-3.1 3.2-1.9 1.4-0.5 0.2-5.7 0.9-1.2 1.5-1.3 1.1-1.6 0.9-1.3 0.4-26.4-1.3-7.1 1.1-110.1-29.6-154.8-258.5-1.6-2.5 14.6-47.1 10.3-33.5 7.5-24.3 3-0.5 89-19.9 208.9 104.7 40.4 20.8z" id="OMN2405" name="Al Wusta" data-id="OMN2405" data-name="Al Wusta">
 </path>
 <path d="M847.7 860.1l-1.2-2.3-0.7-4.2-0.1-4.2 0.3-2.3-0.3-1.4 0.8-10.7 0.7-1.7 1.4-1.9 0.7-0.7 2.2-1.7 1-0.4 0.5-0.5 0.6-2.5 0.3-0.7 2.1-0.8 2.1-0.1 2.2-0.4 2.2-1.5 1.5-2.1 0.6-2 0.5-5.2 0.8-2.5 1.2-2 6.1-8.1 2.3-5 1.4-4.4 1.2-1.6 1.9-0.5 1.5 2.2-0.2 2.4-0.9 2.4-0.4 2.7 0.2 2.9 0.8 2.3 5 9.2-0.5 1.5-1.1 1.1-4.9 3.6-5.1 2.9-2.3 2.1-3.1 4.7-1.5 3.1-1.5 6.5-1.1 2.3 0 1.6 0.2 2.2-0.5 1-4.3 4.2-2.3 3.2-1.1 1.3-1.2 0.4-1.6 0.2-1.4 0.4-0.6 0.8-0.5 1.5-1 1.5-1.4 1.1-1.5 0.1z m-50.4-59.4l18-59-13.5-7-14.3-41.1-12.1-42.7 64.9-23.7 58.1-21.2 27.5-15 15.6-8.4 6.2-16.5 1.2-18.3-2.4-7.3-0.2-6.7 6.9-7.4 3 2.6 2.9 1.7 0.7 0.6 0.1 1.5-0.8 0.3-1-0.3-0.8-0.4 0 1.9 0.9 0.9 1.5 0.2 1.9-0.2 9.8-3.4 3.4 1.4 5.1 3.9 0.8 0 1.9-0.2 0.7 0.2 0.4 0.6 0.2 1.5 0.4 0.7-0.2 1 0.1 0.8 0.9 1 1.4 0.7 1.6 0.2 0.5-0.6-0.8-1.5-1.9-2.1 0.6-1.9 1.3 0 2.5-0.4 3.5 0.9 2.7 3.5 1.8 4.7 0.7 4.1-2.5 22.5-1.7 6-2.5 5.4-7.2 10.2-3.8 3.3-2.1 2.3-1 2.4-0.3 3.2-2.4 6.5-0.5 6.6-1.3 2.8-5 2.1-1.6 2.4-2 5-10.1 13.6-3.8 12.3-2.4 5.7-11.9 19-1 4.3-0.4 1.2-1 1-17.9 8-3.7 2.2-14.2 11.7-17.1 18.1-5.2 8.2-1.3 1.2-1.7 1.3-2 2.8-3.9 7.3-0.5 1.3-0.3 4.8-0.4 1.4-0.7 1.1-7.4 6.1 0.5 2.8-2.1 1.9-5.3 2.7 0.1 0.3-0.9 2.4-1.1 0.9-0.8 1.5 0.3 1.2 0.8 1.3 1.1 1.1 1.3 0.6 1.9-0.8 2.1-2.1 1.4-0.8-0.2 2.7-1.2 1.8-2.3 1.8-2.3 0.6-1.2-1.4-0.8 0-0.7 1.9-0.9 3.7-1.1 1.9-1 0.9-2.8 1.7-1.3 1.2-1.6 2.6-1.4 3.5-1 3.7-0.4 3.6-3.2 6.5-1.7 4.7 0.1 2.2-0.7 1.1-0.7 4.5-0.3 1-1.1 0.2-1.7 0.6-1.7 0.9-1.2 1.1-0.8 3.6-2.8 1.5-3.5-0.2-3.3-1.2-2.5-1.2-1.7-0.5-4.1-0.2-1.6 0.3-3 1.2-1.9 0.4 0.4-1.2 0.8-0.6-0.7-0.4-4.5-1.3-2.5-0.2-2.7-1.2-0.3-2.6 1.6-5.6 0 1.7 0.5 1.5 1 1.4 1.2 1.1 0.5-2.8-1.3-6.1 1.3-2.7 1.7-2.7 1.3-3.9 0.3-4-1.2-3z" id="OMN2406" name="Ash Sharqiyah South" data-id="OMN2406" data-name="Ash Sharqiyah South">
 </path>
 <path d="M497.4 1217.6l-1.9 1.1-3.9 0-1.2 0.7-0.5-1.5 0.6-1.1 1.5-0.7 1.8-0.4 2.6 1.5 1 0.4z m19.8 1.5l-2 0.3-5.7-0.3-1.7-0.7-1.1-2.9 3.3-2 4.9-1.7 3.3-1.6 0.4 2.1 1.2 1.6 1.7 1.1 1.8 0.7-4 2.5-2.1 0.9z m-89.1-484.6l1.6 2.5 154.8 258.5 110.1 29.6-30.2 4.7-15.7 4.5-21.4 8.9-8.2 6-5.4 2.7-2.9 2.2-1.3 2.9-1 1.4-13.6 13.6-2.3 4.8-0.6 6.4 0.8 4.3 0.2 1.6-0.4 1.7-1.9 2.5-0.7 2.2-1.1 2.7-0.3 1.4 0 5.5-1.2 5.7-6.5 15.4 1.8 2.6-0.3 2.8-1.8 2.6-2.4 2-5.6 2.5-2.7 1.6-3.9 7-0.8 0.6-1.8 0.6-0.9 0.5-5.9 6.6-0.3 1 0.1 3-1.4 0.2-19.9-2.5-2.5 0.4-3.8 1.8-2.8 0.5-10.8-0.9-2.6 0.4-8.2 3.3-4.7 1.2-32.4 1.5-12.8 3.4-2.8 0.2-1.1 0.3-1.2 1.2-0.8 0.4-2.5 0-4.2 1.2-1.1 0.6-1.7 2.1-1.8 5.3-1.2 2.2-1.9 2.2-0.5 1-2 5.5-0.5 0.9-1.7 2-11.8 9.8-3.5 6.5-0.9 2.7-0.4 3.1 0.6 3.6 1.3 1.8 4.3 2.3 2.4 2.7 1 2.7 0 6.1-0.8 2.5-5.2 7.1-0.3 1.2-0.2 1.8 0.1 1.7 0.8 0.7 1 0.5 0.1 1-0.6 1.7-0.7 0.7-3.4 1.7-1.1 0.8-0.8 1.1-0.5 1.1-0.5 2.3-1.3 2 0.5 0.7-1.3 1.5-3.8 1.2-1.9 1-0.7 1.2-0.7 1.9-1 1.6-1.6 0.8-5.2 5.9-5.7 4.1-0.7 0-1.3-2-1.5 0.9-1.5 1.9-1.5 1-2 0.4-1.8 0.6-1.8 0.4-1.8-0.5-2 2.1-2.3 0.8-5.2 0.7-4.3 1.6-2.1 0-1.4-1.6-1.5 0.8-2.3-0.4-1.4 0.6-4.3-2.8-1 1-1-2.6-0.6-2.3-1.4-1.7-5.2-1-3.7-1.2-1.5-0.3-1.5 0.1-2.6 0.7-1.5 0.1-4.5-0.9-1.7 0-1.4 0.4-3.4 1.4-5.9-1.7-3.2-0.2-2.6 1.9-1.1-0.6-1.3-0.3-23.6 2.7-10.1 0-2.2 0.6-5.6 2.8-1.3 1.1-0.5 1.2 0 1 0.5 2-0.4 1.1-1.8 1.6-0.4 0.8-1.4 1.4-3.2 0.6-5.8 0.4-7.6 1.6-2.5 0.2-2.3 0.8-2.6 1.5-2.6 1-2.4-0.7-2.3 1.6-3.2 2.6-2.8 3-1.3 2.5-1 1.4-2.4 1.5-4.4 2-4.2 1.1-20.2 0.4-10.7 1.6-20.8 6.6-10.7 5.6-15.9-35.9-8-17.9-7.9-18-4.9-11.1-1.3-1.8-2.2-0.8-4.8-0.3-1.9-1.2 1.2-0.2-14.9-35.2-5.4-12.9-16.3-38.6-5.5-12.9-10.8-25.7-5.4-12.9-10.9-25.9-5.4-12.9-16.3-38.8-4.5-10.7 14.1-4.9 21.7-7.7 43.4-15.3 21.8-7.7 43.4-15.3 21.7-7.7 43.4-15.3 21.7-7.7 43.5-15.4 65.1-23.1 40.8-14.4 7.3-23.3 3.6-11.7 10.4-33.3 19.9-63.9 5.3-17.1z" id="OMN2411" name="Dhofar" data-id="OMN2411" data-name="Dhofar">
 </path>
 <path d="M622.2 406.2l-24.4 109.4-20.1 60.9-25.2 32.7-89 19.9-3 0.5 4.7-15.4 0-3.2-1.3-2.9-17-28.4-10.3-17.1-10.2-17.2-10.3-17.1-8.1-13.5 1.4-20.1-0.8-20.1 0.5-4.1 3.9-13.3 12.1-21.2 2.8-8.4 2.6-13.8 1.5-4.6 2.4-3.6 4.7-5.2 1.7-2.7 17.5 1.7 13.2-7.7 16.8-4.8 8.8-5.8-4.4-20.2 5.3-6.8 7.9-3.9 0-11.6 7.1-4.8 18.6-3.9 15 0 4.3-13.8 19.7 8.8 37.6 33.4 11.8 45 2.2 2.9z" id="OMN2414" name="Al Dhahira" data-id="OMN2414" data-name="Al Dhahira">
 </path>
 <path d="M705.7 359.3l-14.8 25.9-16.4 14-15.6 5.2-36.7 1.8-2.2-2.9-11.8-45-37.6-33.4-19.7-8.8-0.8-12.1-12.5-42.5-16.8-21.9 0.1-5.7 2.9-0.1 2.4-0.6 1.2-1.5 0.7-2.4 2.8-3.3 2-5.2 1.9-0.9 4.8-0.6 2.3-1.1 4.9-4.8 3.5-2.6 0.7-1.4 0.7-8 1.3-1.4 6.8-0.8 2.9 11.3 8.1 17.1 1.4 1.4 0.8 3.3 0.8 5.8 15 28.4 3.1 3.5 7.1 6.4 13.9 17.1 2.7 4.4 1.2 2.6 1.1 4 12.5 15 15.1 12.9 11.8 9.7 4.2 2.6 18 7 23.2 6.2 3 1.4z" id="OMN2424" name="Al Batnah North" data-id="OMN2424" data-name="Al Batnah North">
 </path>
 <path d="M555.5 154.9l-0.6 3.9-3.5 1.9-3 1-1.4 1.3-3.8 2.7-2.1 0.9-2-0.6-1.5-0.8-0.2-1.4 0.3-3.4 3.3-1.7 1.3-1.5-0.8-1.2-0.4-1.4-0.2-2.2 3.4-2.7 3.8 0.5 2.4 3.7 5 1z m-8.4 5.5l0.7-2.4-1.8-1.3-1.2 0-0.6 0.8 0.4 3.7 2.5-0.8z m-0.5-52.3l-5.2 1.5-2.1 0.4-2-0.5-0.9-1.1-1.2-2.8-1.2-1-2.9-0.5-0.7-0.4-0.8-1.7-0.6-6.3 0.1-2.4 1.4-1.5 1.6-1.3 0.9-1.8-0.6-1.8-2.9-3.9-0.6-2.4 0.7-2.2 2.4-3.4 0.9-2 0.5-12.7 0.8-4.2 0.3-2.6-0.6-2.9-2-5.4-1.5-0.2-6.4 1.7-3 0.3 0.6-1.4 1.2-5.1 8.4-13.3 3.1-6.4 1.3-1.3 2-1.1 0.2 0.8-0.2 1.9 1.5 2.3-0.4 0.8-0.5 2 0.9 0 1.2-1.3 3.3-0.1 0.7-1 0.8-0.4 1.6 0.7 1.5 1.5 0.4 2.5 0.9-1.5 0.9 0.1 1.1 0.5 1.5 0 3.4-2.6 1.4-0.3 3.8 1.1 0.9-0.2 0.3-1.2-0.5-1.2-1-1-0.9-0.4-2.5-0.3-1.6 0.1-1.1 0.7-1.9 2.1-1.5 0.8-1.4-0.5-0.1-1.6 1-5.9 0-2.3 3.7 3 1.7 0.6 0.7-2-0.6-1.1-1.5-1.5-1.7-1.2-1.5-0.5 0.5-1.3 1.5-0.3 0.8-0.4 1.5-1.9 0.7-1.7-0.1-3.1 0.4-2.1 0.8 0 1.7 3.9 2-1.3 0.6-0.7 0.9 1.1-0.6 1.1 0.6 1.7 1.2-1 0.8 0.4 0.6 0.9 0.9 0.8 3 0.8 1.5 0.1 1.6-0.1-0.9-2.9 2.7-0.9 1.3 3.5-0.3 1.4-1.8 0.2-3.2-0.2-2.1 0.8-3.8 3.3-2 1.4 0 0.8-1.1 1.5 2.8 3 1.5 1.1 1.7 0.6 1.1-0.5 1.4-1.2 1.3-0.2 1.4 1.9-2.3 4.2-1.2 0.5-0.8-2.7-1.3 0.1-1.4-0.1 0.5 1.4 0.1 0.9-0.6 1.5 1.6 1.7 1.9 1.2 1.7 1.4 0.9 2.6-1.5 0-1.4-0.4-1.2-0.7-1.1-0.9-1.8 0.9-1.6-0.7-0.9-1.7-0.1-2.3-3.4 1.8-0.1-1.5 0.3-1.1 0.6-0.8 0.9-0.4-2.8-0.5-3.2 1.8-1.9 2.7 0.9 1.8-0.6 1.5-0.1 1.7 0.2 1.8 0.5 1.8 1.2-2.8 1-1.6 1.4-0.4 0.8 0.9 0.1 1.6-0.4 1.9-0.5 1.4 2.4 1 11.4-0.1-1.1 1.8-1.9 1.7-3.9 2.3-3.7 1.4-1.2 1.3 0.5 2.2 3.2-1.7 1.8 1.6 0 2.6-2.9 2 0.6 1.4 1.7 2.4 0.5 1 1.1 0.6 2.8 0.7-1.3 1.1-0.5 1.9-1.9-1-2-0.6-1.9 0.2-1.2 1.4 2 3.4-0.9 3-2.1 3-1.5 3-0.2 1.1 0.2 3.3-2.5 2.5-2.1 3.8-1.5 1.8-1.8 1.1 0-3-1.8 3-1.7 4.6-1 5.1 1 4.7 0.6 1.7z" id="OMN2425" name="Musandam" data-id="OMN2425" data-name="Musandam">
 </path>
 <path d="M924.7 489.1l-2.9 4-8.4 9.3-41.7-5.6-38.1-25.9 5.9-31.4-32-33-27.5 3.7 0-0.1-3.3-13.6 4.1-19.7-0.2-0.4 0.5-1.1 0.6 0.1 7.8 3.3 2.1 0.5 2.2 0.9 4.7 4.8 2.3 1.8 4.4 1.5 5.9 0.7 6.1-0.1 5.2-1 2.8-1.1 1.1-0.9 1-2.6 1 0 2.5 0.7 5.4 0.1 2.9 0.6 2.6 1.3 1.1 1.7 2.5 5.5 1.1 1.2 0.7 0.2 1.5 1.8 1.9-0.2 0.8 0.2 1.8 1.5 1 1.2 0.6 1.1 0.9 0 0.8-1.9 0.8 1.7 0.1 1.1 0.9 0 0.8-1.9 1.1 0.8 1.6-0.8 3 4.1 0.9 2.3-0.5 2.1 1 1.9 1.3 6.3 1.7 2.7 7.4 7 4.6 2.1 1.8 2.5 2.2 5.9 1.2 2.2 3.8 3.7 2 2.8 1 8.1 8.1 8.3 0.5 1.1 0.8 4.1 1.1 1.6 3.5 2.9 6.8 4 4.3 3.2 3.1 3.8 2.3 4.3 1.1 3z" id="OMN2426" name="Muscat" data-id="OMN2426" data-name="Muscat">
 </path>
 <path d="M520.9 233.9l-0.1 5.7 16.8 21.9 12.5 42.5 0.8 12.1-4.3 13.8-15 0-18.6 3.9-7.1 4.8 0 11.6-7.9 3.9-5.3 6.8 4.4 20.2-8.8 5.8-16.8 4.8-13.2 7.7-17.5-1.7 4.2-17.2 1.2-2.3 5.9-8.8 0.5-1.9-0.4-10.5-0.5-4-2.1-3-4.6-2.8-2.1-2-1.1-2.5 0.5-2 5.5-1 5.3-2.1 6.2-3.4 3.5-1.4 3.6-0.7 4.2 0.1 4.2 0.7 1.9 0 2.1-0.8 2.3-0.4 3.3 2.6 2.3 0.3 14.8-6.1 8-2 1.4-2.2-4.7-8.5-1.5-5.9-2-5-3.8-1.6-7.1 2.9-2.1-0.1-8-1.8-1.5-0.7-0.2-2.1 1-2.5 5-8.8 0.8-2 0.4-6.7-0.3-1.2-0.9-1.2-2.6-1.8-0.8-1-0.4-2.1 0.3-7.5-1.6-5.9-0.2-2.9 1.3-2 1.8-1.9 0.8-4.7 3.6-3.3-0.5-2.7-2.5-5.7-0.3-2.6 0.6-5.2 0-2.6-1.1-10.8 1.3-4.3 3.9-4.9 4.1-3.8 4.4-2.8 4.9-1.3 5.5 0.8 3.4 2.2 1.5 4.1 1.5 9.2-3-2.2-1.7-0.9-1.7-0.4-2.3 0.7-0.4 1.7 0.9 2.1 4.8 4.3 3.7 9.6 3.9 3.2 1.8 0.2z" id="OMN4836" name="Al Buraymi" data-id="OMN4836" data-name="Al Buraymi">
 </path>
 <path d="M924.7 489.1l3.4 8.8 0.5 1.9 1 2.7 2.3 1.8 4.6 2.6 5 8.1 0.7 2.2 1.7 2.1 5.4 5 3.9 2.1-6.9 7.4 0.2 6.7 2.4 7.3-1.2 18.3-6.2 16.5-15.6 8.4-27.5 15-58.1 21.2-64.9 23.7-31.5-111.3 12.5-26.3 29.1-23 7.8-0.9 21.1-13.7 19.2-4.8 38.1 25.9 41.7 5.6 8.4-9.3 2.9-4z" id="OMN5496" name="Ash Sharqiyah North" data-id="OMN5496" data-name="Ash Sharqiyah North">
 </path>
 <path d="M781.1 375.3l-0.5 1.1 0.2 0.4-4.1 19.7 3.3 13.6-27.7 23-3.8 8.5-32.5 5.4-4.9-2.4-14.6-1.7-37.6-38.5 15.6-5.2 16.4-14 14.8-25.9 6.8 3 7.5 2.4 5.2 1 2.9 0.1 8.6-0.5 2.4 0.5 3.6 4.8 1.3 1.1 3.1 0.8 3.6 1.8 3.2 0.4 16.5-0.9 5.6 0.4 5.1 1.1z" id="OMN5497" name="Al Batnah South" data-id="OMN5497" data-name="Al Batnah South">
 </path>
 <circle cx="829" cy="405.9" id="0">
 </circle>
 <circle cx="975.6" cy="609.4" id="1">
 </circle>
 <circle cx="286.4" cy="1258.2" id="2">
 </circle>
</svg>