<?xml version="1.0"?>
<!--
************* Copyright (c) 2017 Pareto Softare, LLC DBA Simplemaps.com *******************		
************* Free for Commercial Use, full terms at  http://simplemaps.com/resources/svg-license ************
************* Attribution is appreciated! http://simplemaps.com ***************************
-->
<svg baseprofile="tiny" fill="#7c7c7c" height="418" stroke="#ffffff" stroke-linecap="round" stroke-linejoin="round" stroke-width="2" version="1.2" viewbox="0 0 1000 418" width="1000" xmlns="http://www.w3.org/2000/svg">
 <path d="M120.6 265.8l-2.5 0.3 0.5-2.1 1.1-2.3 1.6-1.9 1.8-1.1 2-0.1 0.4 1.1-0.2 1.8 0.2 2.3-3.1 1.4-1.8 0.6z m21.6-21.2l1.4 2.2-3.6-1.1-2.4-0.2-1.1 0.7 0.2 2.4 1.1 3-4.7-3.5-1.3-0.3-3.4-0.5-1.1-0.5-1.3-2.7 1.5-1.6 5.6-1.6 2.4 1.1 3.5 1.1 3.2 1.5z m-16.5-9.5l-1.7 0.8-2.6-0.8 0 1.3 4.7 3.4-3.4 0.8-5.9 3.2-2.8 0.6-2-0.9-2.4-2.2-2.1-2.6-1-2.3 1 0 3.9 0.4 8.8-6.2 3.6 1 2 1.8-0.1 1.7z m-7.7-93l7.6 3.1 3.1 1.5 3 0.9 5.3 0.8 4.6 0.6 3.3-0.6 1.3 0.1 7 1.6 0.3 0 2.3 10.1-1.6 14.5-1.3 5 0.7 3.7 1.6 1.9-5.4 12.9-0.9 4.2 2.8 1.6 5.3-0.1 5.5-1.5 4.4-1.7 1.6 1.1 1.9 2.5 2.8 4.9 2.6 2.8 0.7 5.3 3.4 5.3 8.2 2.1 15.7 0.2 4.5 1.4 2.8 5.3 4.9 4.1 8.9 0.3 2.7-2.8 1.9-2.9 2.6-0.3 1.5 3.4 4.2-0.8 3.7-2.6 1.7-2.9 2.4-5.8 3-4.1 7.5-2.4 4.3 1.1 0.5 6.4 1 5.4 0.5 5-0.4 5.2-0.7 1.2-1 0.8-8.5 10.8-4.2 4.2-1.4 2.9-4.3 17.1-0.4 2.2-0.7 1.9-0.8 1.4-3.5 1-1.2-1.6-2.4-6.5-1.1-1.7-1 2.6-0.2 1.4 0.1 1.7-1.8-1.7-0.1-2.5-0.3-2.4-2.6-1.5 0-1.2 1.5 0.8 1.3 0.4 1.1-0.3 0.9-0.9 1.1 0 0.6 0.5 1.7 0.7-5.7-10.6-3.8-4.7-1.7-2.7-0.4-3.1-1.1 0-1 1.9-0.4 1.9 0.6 1.4 1.9 0.6-1.1 1.5-2.5 2.8-1.2 1.6-1 0-3.1-2.4-13.2-5.2-1.5-1-7.1-1.7-2.4-0.3-1.8-1.1 0.7-2.5 2.8-4.7-2 0.7-2.3 1.4-1.9 2.1-0.7 2.3-1.1 0.5-2.3-1.4-3.6-3.1-2.5 1.8-5.5-0.3-5.5-1.7-2.8-2.3-1 0-0.3 3.1-4.3 9.5-1.3-0.8 0 1.2-1.1 0 1.6-4 0-1.2-1.6 0.5 0.5-2.4 0.6-0.7 1.2-0.4 0-1.3-2.3 0.2-2.9 1.7-2.4 0.5-1.4-0.5-2.2-2.3-1.7-0.6 0-1.2 0.9-0.3 1.5-1-1.9-5.3-0.2-2.4 1-1.6 0-1.2-1-0.8-0.2-0.9 1.2-1.8 0.3 1.2 0.8-0.1-0.8-2.3 0.2-1.7 1.4-1.3 2.7-0.6-4-0.1-2 0.1-0.9 0.6-2.7 5.6-0.2 1-3.3-0.3-2.6-1.1-1.2-2.2 0.7-3.6-2.8 1.2-2.9 0.9-3 0.2-3-1 0.7 3.5 0.4 1.1-2.7 0.4-4.8 2.6-2.2 0.6-3.2-0.9-2.4-2-0.4-2 3.1-1.1 0-1.1-1.5-0.6-0.7-1-0.3-1.3 0.2-1.8-1.8 1.3-0.2 2.2-0.8 2.1-3.1 1.5 0 1.1 1.4 2.2 0.9 2.5-3.2 0.7-1.2 0-1.4-0.7-4.3 0.8-7-1.8-11.8-4.8-6.2-1.3-6.7 0-6.7 0.9-12 3.7-5.1 3-4 4.2-2.5 6-0.4 7 1.2 7.2 4 11.6 0 1.1-2.2 2.3-1 2.8-1.5 1.5-3.5-1.9 1-3.9 0.9-7.7-9-19.6-0.7-5.5-1.2-1.7-3-1.6-1.5-0.2-2 0.8-1.1-0.1-1-0.7-1.6-2.5-0.9-0.9-4.7-2.8-1.6-1.7 0.2-2.2 1.5-1.2 7.7-4.3 7.5-7.2 4.9-2.5 4.8-1.5 4.4-2.2 3.7-4.7 1.6-5 0.5-6-1-12-1.3-5.2-2.1-4.5-2.9-4-5.3-6-1.5-2.2-0.8-2.5 0.2-2.5 1.3-1.5 5.1-3.2 1.6-1.8 0-2.3-2.2-1.7 1.7-2.2 2-1.4 17.4-7.2 5.1-3.1 2.3-3.8 1 0.7 3.7 3.7 11.5-1.4 9.7 0.5 2.7 1 1.8 1.6 1.9 3.7 6.4 0.3 7.8 2.6 14.1 6.4z" id="PAN1332" name="Chiriquí" data-id="PAN1332" data-name="Chiriquí">
 </path>
 <path d="M495.1 118l0.7 4.6-3.8 5.8-1.1 2.8-0.4 3.1 0.1 4.1 4.4 12.9 4.3 19.3 0.9 2.9 0.7 5.9-0.2 1.5-0.1 5.5 1.5 4.2 0.6 9.6 1 2.6 0.8 1.7 6.9 8.2-6.8 4.5-19.4 10.1-5 2-8.1 1.1-1.5-0.2-2.2-0.8-0.9-0.1-1.5 0.4-2.9 1.5-1.4 0.4-4.6-1.2-2.2-1.5-1.1-1.2-0.8-0.2 0.2 1.7-0.7 1.2-3.1 2-10.7 10.7-1.4 3.1 0.6 16.5-0.2 2-0.4 0.6-2.2-0.7-3.9-2.6-2.1-1-0.9 0.2-2 1.4-1 0.1-1.5-1.1-3.2-3.4-2.3-1-3.2 0.2-6.2 2.1-2.8 0.2-4.1-1.5-7.9-5.3-0.7-2.9 4.4-8 2.5-8.6 0.6-5.5-4.1-6.8-6.6-17.4-3.9-7.1-3.5-4.6-3.7-3.3 2.1-1.8 5.3-0.9 4.6-5.7 2.1-4.9 4 0.2 1.7-2.7 1.8-2.1 0.4-1.7-0.6-4.1 0.2-3.1 1.6-3.7 1.3-4 1.8-2.4 2.6-2.5 2-0.9 1.6-0.3 3.1 0.7 1.9 0.1 2.5-0.1 2.9-0.8 2.4-1.2 2.1-1.6 1.1-2.6 0.6-2.6-0.4-5.4-0.5-1.5-0.9-1.6 0.2-1.7 1.9-6.3 1.2-1.3 1.4-0.3 15.4 5.8 2.2 1.4 3.7 1.1 4.2 0.6 1.6 0.5 2.3-0.8 2.8-2.1 13.4-12.9 2.3-1.6 1.8-0.9 1.3-1.3 1.2-2.2 0.9-4.9 1.7-3.5 2.3 4.4 0.2 1.9 1.2 5.9 1 1.9 1.2 1 1.3 0.9 2.1 0.9z" id="PAN1336" name="Coclé" data-id="PAN1336" data-name="Coclé">
 </path>
 <path d="M675.2 12.6l-0.1 18-0.7 1.1-3.9 0.9-1.8 1.1-1.4 1.4-1.9 2.8-0.6 1.6-0.3 2.7-0.8 2.1-1 1-1.5 0.9-3.3 1.1-2.8 1.3-4.7 3-3.2 2.6-0.7-0.1-0.6-1.7 1.3-1.6 0.2-1.7-0.2-1.2-0.5-1.2-1-0.9-1.5-0.5-0.7-0.6 0-0.9 1.3-1.8 0.3-0.9-0.8-1-1.7-0.9-4-1.3-3 0-1.7 0.5-1.8 1.4-1.1 0.3-4-0.1-1.6 0.4-2.8 1-1.1 0.1-0.8-0.3-0.5-1.2 0.9-2 0.9-0.5 2.9-1.4 0-1.2-1.7-2.2-1.7-2.5-1.4-1.1-2.8-1.1-4.2-1.1-7.5 1.6-6.3 2.6-4.5 15.2-0.3 1.8 0.1 1.3 0.5 0.6-0.1 1.8-0.7 2.7-2.3 5.8-0.8 3.6-0.3 2.6 0.7 3.1-0.2 1.2-0.8 0.9-2.4 1.1-2.9 0.9-3 1.4-2.1 1.5-1.1 4.7-4.8 5.9-3.1 2.1-2.8 1.1-8.8 0.1-3.7-0.9-1.9-2-3.2-5.5-1.8-1.7-1.9-0.9-4.7-1.1-5.3-2.5-2.8 0.6-2.5 2.7-7.1 15.7 0.9 3 1.4 2.7 0.6 2 0 2.6-0.9 2.7-0.9 1.9-5 3.3-6.2 2-4.8-0.4-7.2-2.6-7.5 5.9-2.1-0.9-1.3-0.9-1.2-1-1-1.9-1.2-5.9-0.2-1.9-2.3-4.4-1.7 3.5-0.9 4.9-1.2 2.2-1.3 1.3-1.8 0.9-2.3 1.6-13.4 12.9-2.8 2.1-2.3 0.8-1.6-0.5-4.2-0.6-3.7-1.1-2.2-1.4-15.4-5.8-1.4 0.3-1.2 1.3-1.9 6.3-0.2 1.7 0.9 1.6 0.5 1.5 0.4 5.4-0.6 2.6-1.1 2.6-2.1 1.6-2.4 1.2-2.9 0.8-2.5 0.1-1.9-0.1-3.1-0.7-1.6 0.3-2 0.9-2.6 2.5-1.8 2.4-1.3 4-1.6 3.7-0.2 3.1 0.6 4.1-0.4 1.7-1.8 2.1-1.7 2.7-4-0.2 2.6-5.3-0.7-2.2-0.9-1-0.8-1.4-0.7-3.1 0.6-2.1 1-2 0.8-2.7-0.9-2.4-1.2-2-3.6-4-1.3-0.8-1.9-0.8-2.9-1-3-1.4-3.1-2.1-1.2-1-1.8-2.1-0.9-1.9-0.6-1.7-0.4-5.4 3 0.1 3.8-1 3.1-3.8 5.3-7 2.3-1.6 1.5-2.5 1.5-0.5 2.5-2.9 3.9-1.9 6.2-3.7 2.4-1 2.7-2.8 9.8-5 12.3-5.2 16.7-5.4 19.6-1.5 2.5-0.9 5.6-3.2 1.6-0.8 6-0.6 6.2-1.7 5.7-2.3 4.9-2.8 6-6.9 6.6-5.8 4.3-4.1 0.4-2 3.3-5.4 4.3-1.8 1 0.1 0.7 1.6-0.4 6.5 0.4 1.8 0.9 1.1 1.5 0.9 1.7 0.1 1.8-0.9 1.2-3.1 0.2-3.5 1-1.6 3.3 2.3-0.3-1.5-0.4-3 1.9-1.4-2.1-3 1.6-1.6 1.9 0.8 3.2-0.2 3.8 1.6 3.1 5.2 1.2 2-0.7-3.8-0.8-2.6-0.1-2.4 1.6-3.1 2.5-2.3 5.1-1.8 2.8-1.9 1.2-2.3 0.6-0.4 1.1-1.9 4.1-2.7 1-4.4 1.2-4.2 3-1.2 1.4-1.2-0.9-0.9-3.3 1.1-1-1 2.1-1.5 0.9-1.8 2.4-1.1 1.9-1.5 1.5-1.7 3.1-0.9 2.7 0.4 3.3-1.1 4.3-2 3.1 0.9 0.8 2 0.9 1.7 0.1 1.3-1.8 0.9 0 1.1 1.7 0.8 0.6 1.7 1.9-1.5 0.5-1 1.2 0 1 0.8 1.4 0.6 3.4 1.1 0-1.5 1.2-3.2 0.9 1.5 1.2 0.6 1.2-0.1 1.3-0.9 6.4 1.6 9.4 1.1 10.8 2.9 5.6 2 7.8 1 3.1-1.6 3.2-1 6.8 0.5 2.9-0.7 3.2-0.9 1-0.1z" id="PAN1337" name="Colón" data-id="PAN1337" data-name="Colón">
 </path>
 <path d="M437.3 265.3l-1 1.5 2.7 1.3 1.2 3.3 0.9 3.3 1.5 1.6 2.5 0.5 6.4 2.8 2 1.5 1.2 0.3-1.1 2.4-1.1 1.4-0.8 3.1-1.9 2.6-1.7 1.4-2.2 0.4-5.3-0.2-5.5 1.6-2.2 2.1-5.1 9.5-2 2.4-2.5 2.1-2.2 1.3-1 1.8 0.7 1 0.1 3.9 0.8 2.8 2.2 3 0.5 1.3 0.3 3.3-0.7 2.2-1.8 3.1-2.1 2.1-1.4 1.1-1.2 0.5-2.2 0.2-1 0.9-8.6 13.7-9.3 9.2-4.4-4.5-1.1-0.6-3.4-0.8-5.1-3-13-19.5-1-2.3-1.1-5-1-2.7-1.3-1.7-0.8-0.7-1.7-0.7-3.9 1-0.7-3.9 0.6-19.4 1-1.6 0.8-0.8 4.3-1.1 3.6-3.8 4.8-4.3 1.3-2 1.8-3.3 0.3-2.7-2.7-7.5 6.2-2.4 6.1-2.4 2.8-2.5 3.8-4.7 1.6-0.6 2.4 0 1.5 0.4 3.8-0.3 4.1 1.5 2.8-0.2 6.2-2.1 3.2-0.2 2.3 1 3.2 3.4 1.5 1.1 1-0.1 2-1.4 0.9-0.2 2.1 1 3.9 2.6 2.2 0.7z" id="PAN1338" name="Herrera" data-id="PAN1338" data-name="Herrera">
 </path>
 <path d="M416 411.7l-0.5-6-1.1-2.4-1.7-2-3.5-2.6-1.6-0.9-2.5-0.8-0.1-0.8 0.4-1.8-0.1-2.5-1.1-4-4.3-6-2.7-8.2-1.2-7.4 0.4-4.7 9.3-9.2 8.6-13.7 1-0.9 2.2-0.2 1.2-0.5 1.4-1.1 2.1-2.1 1.8-3.1 0.7-2.2-0.3-3.3-0.5-1.3-2.2-3-0.8-2.8-0.1-3.9-0.7-1 1-1.8 2.2-1.3 2.5-2.1 2-2.4 5.1-9.5 2.2-2.1 5.5-1.6 5.3 0.2 2.2-0.4 1.7-1.4 1.9-2.6 0.8-3.1 1.1-1.4 1.1-2.4 4.5 1.4 3.6 6.1 2.5 7.2 2.2 4.8 16.2 13 10.3 9.4 15.5 19.8 7.9 14.6 2 5-0.2 3.3-2.6 6.6-1.3 1.4-2 0.5-4.6 0.2-1.4 0.3-11.9 4.5-10.7 0-2.1 1.2-2-1-4.6-1-1.6-1.5-1.1 0-1.5 0.7-5.5 1.6 0 1.2 2.2-0.3 1.8-0.4 3-1.5 1.1 1-12.1 4-4.5 3.3-0.7 4.5 2.9 4.9-0.5 1.5-4.2 0.6-1.2 0.4-1.3 0.8-1.1 1-0.5 0.8-0.4 1.8-1.1 0.7-1.6 0.4-1.6 1.2-0.8 1.4-0.1 2.2-1.3 1-1.3 0.1-3.2-1-1.9-0.2-20.7 2.6-1.2 0.2z" id="PAN1339" name="Los Santos" data-id="PAN1339" data-name="Los Santos">
 </path>
 <path d="M714.7 234.6l-1.7 0.5-0.2-1.8 1.5-1 0.5 1-0.1 1.3z m-38.1 1.6l-0.7 0.7-1.7 0.3-1.9-0.8-2.1 1.2-0.1 1.4 1 1 0 1.5-1.1 0.2-0.6 0.8-0.2 2.3-2.2 0.3-2.9-6.1 0.5-2.2 1.1 0.1 0.1-1.3 0.7-2.3-0.6-1.6 0.8-2.8 2-2.4 2.1 0 0.9 1 1.3 2.7 0.7 3.7 1.2 1.4 1.7 0.9z m43.5-19.4l-0.7 1-2-0.4-1.3-1.1-0.3-1.2 1.2-2 1.3 0.8 1.3 1.3 0.5 1.6z m-50.1-7.7l1.7 2.1 0.8-0.6 0.4-1.6 0.9 0.6-0.6 2.1 1.2 0.9-0.2 1.3-0.7 1.4-1.4 0.9-6.4-4.7 2-4.2 2.3 1.8z m41-6l0.8 1.9 0.5 2 0.1 3 2.1 0.4 1.2 2.3-0.4 1.9-1.4 0.9-0.4 2.2 2.3 4.4-1.4 3.9-1.6 1.4 0 1.5-1 1.3-2.1-0.1-0.8-0.9-3.6 0.7-0.8-1.9-0.6 1-2.6 3.5 0 1.5-0.4 1.4 1.6 2 0.3 3.4 1.1 0.8 1.2 0.1 0 0.8-1 0.8-2.4-1.3-1.8-1.5 0.3-2.4-1.2-4-1.1-1.6-3-1.4-1.1-0.7-0.9-1.8 0.7-2.7 1.3-1.4 0.5-3-0.6-1.1-1.5-1.6-0.4-1.3 1.4-2.4 0.1-1.1-0.8-3.1 0.2-1.6-1.7-4.6 0.6-2.4 2.2-0.1 1.5 1.1 6.8-3 1.6 1.5 0.7 1.6 0.5-1-0.2-2 0.6-0.8 3.6 2.1 1 1.4z m-20.8-1.5l1.7 0.8-0.6 0.5 0.3 1.1-1.4-0.3-0.7-1.7-2.1-0.4-0.6 0.5-1.9-1.6 2.8-1.2 1-0.3 2.1-1.8 1.3 0-1.6 1.9-1.1 0.5-0.4 0.8 1.2 1.2z m-12.8-3.7l-0.9 0.4-0.3-2.3 1.2-1.3 1.1 0.3 0.1 2.3-1.2 0.6z m5.9-19.4l1.5 1.3-1 0.9-1.3 0.1-0.7-0.7 0.3-1.3 0.7 0.2 0.5-0.5z m-98.1-2.8l1.5 0.9 0.7 1.3-0.1 1.6-1.5-1-1.6 0.7 0-1.7 0.6 0 0.4-1.8z m92.3 0.9l-0.6 0.1-1.1-2.1 0.9-2.7 0.9 0.4 0.2 1.4 1 0.2-1.3 2.7z m-85.2-33.8l1.7 0.8-0.3 0.4 0.5 1 1.8 0.9 0.1 1-0.4 0.9-0.8 0.3-1.2-1.5-1.3 0.3-1.1-0.4-0.4-1 0.2-1.6 1.2-1.1z m9-0.1l-0.7 0.8-1.5 0 0.1-0.9 2-1.7 0.1 1.8z m65-23.7l-1-1.4 0-0.9 1.6 0.9-0.6 0.5 0 0.9z m-20.4-66.6l-3.2 1.6-1.1 1.2-1.1 1.9-0.3 1.8 0.1 1.1 1.4 1.2 5.6-1.2 11.6-3.7 2.3-0.3 2.3-0.1 2.5 0.2 2.2 0.5 3.7 1.5 2.6 2.6 1.1 0.9 2.6 0.1 7.7-0.2 1.5-0.5 0.7-0.6 0-0.7-1-2-0.3-1.1 0.5-1.1 1-0.8 4.1-1.8 1.4-0.2 1.4 0.2 1.8 0.5 1-0.5 0.3-1 0.1-1.9 0.8-0.3 1.1 0.2 1.8 0.7 2.6 0 1.6-0.6 2.1-1.9 1.2-0.6 2.4-0.3 2.9 0 5.2 0.7 2.3-0.3 1.4-0.8 1.6-1.3 2.1-0.1 1.2 0.5 2.8 3 2.3 1.1 1.3-0.4 0.6-1.2 0.4-3 0.9-0.5 1.8 0.6 3.7 2.4 6 4.6 2.4 1.5 3 0.6 2.6-0.2 8.9-2.1 0.8-0.6 1.5-2.3 1.1-0.5 1.5 0.2 2.2 2.1 0.8 1.5 0.8 3 0.7 0.5 1.2-0.5 2.4-1.6 1.3 0.1 1.5 1.4 1.2 2.4 0.7 0.6 1.2 0.5 1 0.7 0.8 1.5 0.5 1.6 0 2.6 0.4 1.1 1 0.8 2.3 0.5 4.9-0.2 3.2 0.6 1.4 0.1 1.3-0.4 6-3 1.1 0.3 0.8 1.2 0.7 3 1.6 4.5 1.1 1.6 1.3 0.9 3.8-0.4 4.3 0 3.8 0.6 1.4-0.1 0.7-0.5 0.8-1.6 0.7-0.6 1.1 0.5 1.4 1.5 0.8 3.7-0.8 2-1.7 2.7 0.3 0.9 1.1 0.9 11.7 2.8 3.1 1.8 3.8 6-0.9 2-3.5 4.6-1.1 2.6-0.8 3.2-0.4 4.2 0.1 3.1 0.4 2.5-0.8 1.7-1.8 1.1-4.3 1-2.9 1.3-2.9 2.5-2.2 3.8-1.3 1-1.9 0.4-3.2-0.2-2.9 0.1-3.5 0.7-4.8 2.3-1.7 1.7-0.6 1.7-0.2 1.4-0.8 1.5-1.5 1.2-1.6 0.4-2.2-0.9-1.7-2.7-1.1-0.9-4.1-1.5-2.8-0.6-2.4-0.1-7.7 2.7-1.3 0.8-0.8 1 2.4 12.2 0.6 1.7 0.8 4.1 0.1 2.1-0.6 2.6-0.7 1.9-1 1.9-0.6 2-0.5 2.5-0.7 7-1 5.1-0.1 1.4 1.3 1.1 0.5 1.3-0.2 2.2 0.7 4.3 2.2 5.3 0.4 3.8 2.8 10 0.6 7.6-1-0.6-3.9-4.8-1.9-1.1 0.9-2.1-0.1-3.1-0.8-3.1-1.2-2.2-1.2 1-0.7 1-0.5 2.7-0.7-1.6-1.9-2.4-0.7-1.9-0.1-2.5 1.2-5.7-1.1-3-5-6.7-2-2.2 2.6 0.1 1.8 0.6 1.7 0.2 2-0.9-2.7-2.2-1-1.7 0.3-6-10.6-3 1.3-3.4-1.1-0.1-1.3 1.2-1.4-0.9-1.3 0-2.5 0.9-1.5-0.9-1-2-1.6-4.2 2.4-1.9 0.9-3.1-0.1-3.6-0.9-3.2-1.2 0-0.3 2.8 0.7 3.5-0.1 2.5-2.5-0.5-2.9 3.2-5.2-6.9-4.7 0.1-3.3-2.1-3.4-7.3-2.6-2.3 0-1.2 1.2 0 0-1.2-2.5-0.7-1.5-1.6-1.4-1.9-1.7-1.6 1.3 2.8 0.3 2.3-1 1.7-2.8 1.4-2.6 0.4-1.7-0.7-3.3-3.9-1.2-2.7-0.6-3.3-0.9-2.8-22.3-11.8-8.9-1.9-4.3-3.1-0.7-1-0.2-1.6 1.1-2 0.4-1.6 0-3.5-0.2-3-1.4-1.9-3.2-0.3 0-1.3 3.7-0.3 2.7-1.5 2-2.4 1-2.8 1 0 1.5 2.3 1.7-0.1 2.7-2.2 3.5-1.3 1.5-0.9-0.3-0.9-2.2 0.1-1.4 0.5-1.1 0.9-2.2 2.4-0.7 0.4-1.4-0.5-0.9-2-1.7 0.1-1.1 0.9-2 3.1-1.4 1-1.5 1.7-4.5 0.7-0.8 0.8-0.3 1.3 1.1 1.1 2.2 0.7 1.9 1.5 0.5 3.6-0.8 2.1-1.7 2.9-2.4 2.1-2.6-0.6-1.1-0.6-4.1-1.1-1-2.1-0.9-0.5-0.4 2-2.9 1-13.6-2.4-4.5 0.8-1 0 0-1.1-4.2 1.3-9.6-1-3.8 2-1.5-1.2-1.5 0.2-1.7 0.6-2.9 0.6-2.1 0.8-2.6 0.6-0.4 1.6-1.1 0.9-4.8 3-0.3 1.5 0.1 1.5-0.3 1.1-1.8 0.5 2.9 5 0.7 2.1-2.3-1.6-2.7-2.7-2.3-3.3-0.9-3-1.1 0 0.2 1 0.9 1.5 0 1-1.1 0 1.2 4.3-0.8 3.7-2.4 1.8-3.9-1.4-7.7 1.3-2.5 1.3 1 2.1 0 1-1.9-0.6-1.2-0.8-1.1-0.4-1.7 0.8-0.7-0.9-1.5-0.3 0 1.2 0.4 0.5 0.7 1.8-2.9-0.5-2.7 1.4-2.3 2.5-1.4 2.5-0.8 3.3 0.8 10.2 0.3 1 1.6 0.9 0.4 0.5-0.2 1.1-0.9 1.8-0.4 1.4-1.5 2.8-1.7 1.7-2.1 1-2.1 0.4 0 1.4-0.4 0.7-2.9 0.8-2.7 1.4 2.1 2.1 5.8 1.3 5.5-2.2 5-2.6 2-1 0.6-0.8 0.8 0 0.1 1.4-0.6 1.3-5.7 4.4-6.8 6.2-3.3 1.3-5.5 1.8-6.4 1.6-1.3 1.6 0.3 1.9-0.3 1.3-1.4 1-2.6 0.7-2.6 2.4-1.2 0.8-1.5 0.4-1 0.7-1.6 3.2-1.2 1.4-3.6 3.2-12 7.9-6.9-8.2-0.8-1.7-1-2.6-0.6-9.6-1.5-4.2 0.1-5.5 0.2-1.5-0.7-5.9-0.9-2.9-4.3-19.3-4.4-12.9-0.1-4.1 0.4-3.1 1.1-2.8 3.8-5.8-0.7-4.6 7.5-5.9 7.2 2.6 4.8 0.4 6.2-2 5-3.3 0.9-1.9 0.9-2.7 0-2.6-0.6-2-1.4-2.7-0.9-3 7.1-15.7 2.5-2.7 2.8-0.6 5.3 2.5 4.7 1.1 1.9 0.9 1.8 1.7 3.2 5.5 1.9 2 3.7 0.9 8.8-0.1 2.8-1.1 3.1-2.1 4.8-5.9 1.1-4.7 2.1-1.5 3-1.4 2.9-0.9 2.4-1.1 0.8-0.9 0.2-1.2-0.7-3.1 0.3-2.6 0.8-3.6 2.3-5.8 0.7-2.7 0.1-1.8-0.5-0.6-0.1-1.3 0.3-1.8 4.5-15.2 6.3-2.6 7.5-1.6 4.2 1.1 2.8 1.1 1.4 1.1 1.7 2.5 1.7 2.2 0 1.2-2.9 1.4-0.9 0.5-0.9 2 0.5 1.2 0.8 0.3 1.1-0.1 2.8-1 1.6-0.4 4 0.1 1.1-0.3 1.8-1.4 1.7-0.5 3 0 4 1.3 1.7 0.9 0.8 1-0.3 0.9-1.3 1.8 0 0.9 0.7 0.6 1.5 0.5 1 0.9 0.5 1.2 0.2 1.2-0.2 1.7-1.3 1.6z" id="PAN1340" name="Panama" data-id="PAN1340" data-name="Panama">
 </path>
 <path d="M212.1 402.3l-0.1 0.7 1.7-0.6 3 0.5 2.3 0.1-2.1 1.7-2.3 4.4-1.4 2.2 1.3 2.2-1.3 0-2.6-7.7 0.3-1.5-0.8-1.5 0.8-1 1.2 0.5z m129.2-45l-1.4 1.7-1.9 0.7-1.8 0.9-1.3 0.2-1.5-0.6-2-1.4-2.7-0.3-1.7 0.4-0.9 0.9-1.4 2.1-4.8 2.4-2.3 2.8-1 0.6-1.4 0-1.6-0.3-1.7-0.7-4.6 1.6-1.1 0 1.6-2.3 1.6-1.7 1.8-1.3 2-0.8 6.2-1 1.7-1.5 1.1-1.9 1.4-1.7 2.3-1.2 3-1 5.1-1.3 2.2 0.8 2.3 0.3 4.8 0-2 3.6z m-117.6-15.4l3.9 11.1 0.1 2 1.7 2.4-0.1 1.8 0.6 0.5 1.9 0 1.5 1 1.1 0.4 0.7 1 0.2 2.8-1 0.8-5.4 2-0.2 1.2-1.2 5-0.4 0.8 1 2.2 3.1 2.7 0.6 1.7 0.3 1.8 0.8 1.5 1.1 0.6 1.3-1 1 0 2 1.1 5.2-0.5 1 1.2 4.8 8.8-3.2 1.3-3.6 1.1-3.6 0-5.9-3.4-7.3-0.5-3.2-0.8-1.8-1.5-4.1-4.6-3.3-1.9-7-6-3.9-8.2-1.4-1.3-0.4-0.7-1.3-4.6 0.7-0.1 3.5 0 1.6-0.4 0-0.7 2.1-3.9 0.3-0.1 0.5-2 0.3-2.9 0.9-1.6 1.3-0.9 3.1-0.6 4.8-3.5 1.7-1 0 0.7 1.3 0-0.5-1.3-0.3-2.1-0.5-1.4 1.3 0 0 1.3 1.1 0 0.1-1.1 1.1-0.2z m169.4-166.5l-2.1 4.9-4.6 5.7-5.3 0.9-2.1 1.8 3.7 3.3 3.5 4.6 3.9 7.1 6.6 17.4 4.1 6.8-0.6 5.5-2.5 8.6-4.4 8 0.7 2.9 7.9 5.3-3.8 0.3-1.5-0.4-2.4 0-1.6 0.6-3.8 4.7-2.8 2.5-6.1 2.4-6.2 2.4 2.7 7.5-0.3 2.7-1.8 3.3-1.3 2-4.8 4.3-3.6 3.8-4.3 1.1-0.8 0.8-1 1.6-0.6 19.4 0.7 3.9 3.9-1 1.7 0.7 0.8 0.7 1.3 1.7 1 2.7 1.1 5 1 2.3 13 19.5 5.1 3 3.4 0.8 1.1 0.6 4.4 4.5-0.4 4.7 1.2 7.4 2.7 8.2 4.3 6 1.1 4 0.1 2.5-0.4 1.8 0.1 0.8 2.5 0.8 1.6 0.9 3.5 2.6 1.7 2 1.1 2.4 0.5 6-18.5 3.5-13.6 0.5-3.5-1-1.1 0-0.9 1-0.9 0.3-0.8-0.3-0.9-1-1.2 0-2.3 2.3-1.9-1.2-2.7-4.5-2.2-1.6-1.4-0.6-1.7-0.2-1.6-0.6-0.1-1.2 0.8-1.2 1.6-1.3-0.2-3.7 0.2-1.4 0.9-1.2 1.9-1.5 0.6-0.8 0.6-2.3 0.2-3.1-0.7-2.9-4.3-2.6 0-3.2 1.8-5.3-0.8-2.2-6.1-6.7-1.9-1.5-0.8-1.3 2.1-1.2 0.5-3.2 0.7-1.4 0.2-2-1.6-2.4-2.2-2.1-1.8-1.2 0-1.2 1.3 0 0-1.2-8.2-8.2-1.7-0.9-1.3-0.4-0.6-0.6 0.2-1.6 0.8-1.5 1.3-1.1 1.7-0.4 2 0.6-0.8-1.5-1.9-1.5-2.1-1.1-1.5-0.5-0.3-0.8 3.2-5.1-1.9 0.1-1.6-0.2-1.4-0.5 0.2-1.8-3.9-0.7-1.6-2.5 0.1-2.6 1.3-1.2 0.9-0.4 2-1.6 1.8-0.3 2.1 0 1.7-0.4 1.1-1 0.2-2.2-1 0-3.9 2.2-1.2-4.5 0.4-10.6-3.6 6.8-2.6 2.3-2-3.3-1 0 0.4 1.8 0.6 1.4 1 0.9 1.4 0.7 0 1.2-7.6 0-1.6-0.4-2.1-1.6-2.1-0.4-4.3-1.2-0.8-2.7-0.5-2.5-0.9 0.6 0.2 1.1-2.3 0.8 0.4 1.4 3 2.5 3.5 1.8-0.3 1.5-0.7 2.3 3.1 5.9-1.7 4.5-3.7 3.6-3.6 2.7-0.8-1.4-0.1-0.9 0.9-1.2 0-1.3-2.4-0.2-2.4 0.2 0 1.3 1.8 0.4 1 1.1 2 3.1-2.3 0.9-1-0.1-1.5-0.8 1.3 2.1 1.1 1.4 1.1 0 2.3-1.2 2.4-1 0.8 1.9-0.8 7.5 0.4 3.1-0.4 1.5-0.6 0.9-2.1 1.7-0.7 1.1-1.3 0-1.5-1.1-5.4-3-1.2-0.1-0.9-2.2-2.1-0.8-3.9 0-14.1-3.9-4.6 0.4-0.7-2-1.1-1.7-1.3-1.3-1.4-0.8-3.9 1-5-0.5-3.8-1.6-0.2-2.5 1.4-0.5 3.2-1.7 1.9-1.8-6.7-1.9-1.8 0.5-0.2 3-3.9-2.8-2-0.7 0-1.2 1.1-1.5-0.9-1.4-1.6-1.5-0.8-1.9 0.3-2.8 0.7-1.9 2.4-3 0-1.2-1.2-0.8-1.2-0.3-1.2 0.3-1.1 0.8-1 0-1.3-1.1 0-1.3 1.6-1.3 0-1.2-1.4-0.9-2.5 0 0.5-2.6 0.2-2.9 0.9-1.6 3 1.1-0.4-1.5-0.7-1.1-2.4-2.1 0.8-1.2-0.3-2.5 0.7-2.1-2.1 0.8-1.3 0 0 2.1 0.8 2.4 0.3 1.3-0.5 0.5-1.3-0.2-0.9-0.6-0.5-0.9-0.7-3.1-3-4.2 3.5-1 0.8-1.4 0.7-1.9 0.4-2.2 4.3-17.1 1.4-2.9 4.2-4.2 8.5-10.8 1-0.8 0.7-1.2 0.4-5.2-0.5-5-1-5.4-0.5-6.4-0.7-8.6 0.1-2.5 0.6-2.8 3.9-9.6 1.5-6.8 0.3-7.1 4.3 2.2 5.2 1.3 2.9 1.5 0.8 1.6 8 0.6 4.4-0.9 1.5 0.4 7.9 6.2 2.8 1.8 6.9 1.8 3.7 1.5 1.9 0.5 1.4 0 4.7-1.1-2.7-2.6-1.4-2.7-1.4-3-1.3-1.4-1.5-2.2-1-3.7-0.6-6.3 0.5-10.4-1.9-12.7 1.1-4.3 0-1.5 7-0.9 7.5-0.9 7.2-1.2 1.4 0.7 1.5-0.3 1.6-1.1 1.3-1.6 13.3-4.4 12.9-5.4 2.9-1.1 3.3 0.1 0.4 5.4 0.6 1.7 0.9 1.9 1.8 2.1 1.2 1 3.1 2.1 3 1.4 2.9 1 1.9 0.8 1.3 0.8 3.6 4 1.2 2 0.9 2.4-0.8 2.7-1 2-0.6 2.1 0.7 3.1 0.8 1.4 0.9 1 0.7 2.2-2.6 5.3z" id="PAN1341" name="Veraguas" data-id="PAN1341" data-name="Veraguas">
 </path>
 <path d="M909.3 148.4l-1.5 0.1-3.6-0.8-4.1 0.5-3.8 1.9-1.5 2.2-2 1.6-2.7 0.5-2.7 0.8-2.4 2.9-1.9 3.6-5.1 7.2-3.3 2-2 3.4 0.6 3.5 1.1 3 2.2 2.6 2.3 2.2 0.4 3.2-1.1 1.9 0.5 1.4 2.1 2.1 3.5 1.2 0.5 1.1-0.5 0.9 0 0.9 4.2 4.5 0.9 1.6 0.2 1.9-1.2 3.1-0.2 2.7 2.9 4.5 0.5 2.4 0.7 2.2 1 1.4 2.6 2.7 1.5 2.4 0 1 1.1 1.5 1.7 0.9 1.9 0.5-0.1 2.7 0.7 2.4 1.8 1.2 5 1.2 4.7 2.3 6.5 5.3 3.1 7.3-0.7 2.8 1.7 2.6 3.4 1.1 1.6 1.5 3.2 4.4 2.4 0.5 3.2-1.8 3.5-0.6 2.1 0.5 4-0.6 1.8-0.8 2.3-3.1 2.3-1.4 3.5-1 3.6-0.6 19.3-5.3 1.6 2.3 4.9 9.5 3.6 13.4 0.4 4.1 1.1 2.5 1.6 1.6 1.8 1.3 1.7 1.8 1.3 2.7-1 0.7-6.3-0.1-5 1.1-5.7 1.9-5.2 2.7-3.6 3.6-4.4 9.8-5 6.4-0.5 2.1 2.3 5 3.4 3.4 1.1 3.1-5 4.6-23.7 14.8-7.8 7.8-4.2 3.5-3.9 0.4-1.8-2-2-8.6-1.3-2.2-4.7-6.4-1.9-0.7-0.5-1.1 0.8-2-1.6-1.9-8.5-7.2-1.8-1-4 2.3-1.1 6.3 0.8 7.3 1.5 5.3 3.9 7.4 0.5 3.7-1.6 4.4-2.5 3.2-3.2 1.9-3.8 0.6-4-0.9-12.8 41.4-3.9-1.2-4.9-4.4-7.3-9.1-2.7-2-1.3-1.5-0.6-1.9 0.4-1.8 0.7-1.8 0.3-1.7-0.8-1.8-1-0.7-1.3 1.4-1.4-0.6-0.3-1.1 0.3-0.8 0.8 0-2-3.1-1.1-0.6-1.6 1.4-1.1 0-4.1-4.7-2.7-2.4-2-1.1-0.5-0.7-0.4-1.7-0.9-1.6-1.6-0.8-1.1-0.7-0.8-1.7-1.1-3.4-1.1 0-0.7 2.6-0.4-1.7-0.2-6-0.8-3.1-1.8-0.7-1.6 1.4-0.4 3-0.9-2.2 0.3-1.6 0.6-1.5 0-1.9-0.6-1.8-0.7-1-2-1.8-3.7-4.7-2.4-1.8-3.3-0.5 0.4-1.9-0.7-1.4-1.5-1-1.7-0.5 1.6-3.3 0.9-2.3-0.1-2.2-1.2-2.9-5.1-7.9-0.8-1.9-1.6-5.5-3.7-4.6-4.2-4.1-3.1-4-2.2-5.3-1.4-5.4-0.1-2.1 0.4-2-0.3-1.7-3-5.5-0.5-2.2 0.9-3.2 2-3.1 2-1.2 2 5.6 2.4 1 2.7-0.4 2-1.6 4.8 2.5 6.6-3.4 5.8-6.3 2.5-6.3-0.3-3.5-0.9-2.1-1.5-1.5-1.9-1.7-5-5.8-2-1.2 0-1.3 4.6 0.5 1.5-0.2 2.1-1.3 0-1.3-1-0.5-1.4-1.9 1.7-0.6 0.7-1.7 1.4 0.9 2 1.9 1.1 0.7 1.5 0.4 3.8-0.4 0.3-0.7 2-2.9 0.5-0.5-0.2-4.7 0.2-1.7 0.5-0.4 3.1-3.2 0.7-1.6 0.3-1.5 0.1-3.4 0.7-0.9 1.6-0.8 1.6-0.2 0.7 0.8 0.8 6.2 0.4 1.4 1.7 1.5 2.8 1.5 3 1.2 2.4 0.5 2 1.1 1.4 2.6 3 8.2 1.7 2.3 2.1 1.6 2.6 0.6 2.6-0.9 1.8 0.1 1.3 2.5 1.2 0.9 1.5 0.7 1.4 0.2 2.4 0 0-1-2.6-0.6-2.4-1.4-1.9-1.9-1.1-2.1 8.4 1.6 4.5 1.7 2.9 3.3 4.1 2.2 0.9 1.2 0.1 2.6 0.6 1.8 1.1 1.2 1.7 0.9 1.8-1 1.9 1 1.4 2.4 0.6 2.9 1.2 1.9 2.6 0.7 2.8-0.8 1.6-2.4-4.8 0-6.2-7.6-2.9 0.6-8.7-11.1-1.8-1.3-2.5-1.4-15-2.7-3.7-1.5-2.9-2.5-2-3.3-0.7-3.9-3.7-7.4-1-4.6 2.5-2.6-1.8-1.2-2-1.7-1.9-2-1.4-2.2-0.8-2.9 0.5-1.6 1-1.1 0.5-1.5-0.2-2.1-1-0.6-1.5-0.3-1.9-1.7-0.8-1.9-0.2-1.6-0.5-1.4-2-0.9 0.7 1.6 0.2 4.3 0.8 1.6 3.2 2.2-0.1 5.7 0.3 1.5 2.3 5.5 0.2 1.8-0.7 1.7-1.1 0-3.2-5.5-2-2.6-1.7-1.4-2.7 0-2.2 1.4-1.6 2.7-0.6 3.6-1 2.6-2.5 2.1-3.2 1.3-3 0.5-1.5-0.6-0.6-1.4-0.1-1.5 0.4-1.2 1-1.2 4.9-2.5 1.1 0.9 1.2 0.4 0.2-5.6-0.9-5.2-2.8-9.3-1.3 0-1.2 2.4 0.9 1.6 1.6 1.4 1.2 1.7-0.3 3.1-1.3 2.4-0.8 2 1.2 1.9 0 1.3-2.4 1-0.8-1.3-1.9-1.4-0.7-0.7-0.5-1.5 0.9-0.1 0.7-0.8 1.8-3.3-0.2-1.6-2.7-1 0.8 2.2-0.3 1-1.7 1.5-2.4 4.7-2.7 0.4-1.5-1.9-1.5-5.5-1.3 1.2-0.2 2.3-2.3 3.4-3.1 3-2.4 0.7-1.6-2.9-1.7-10.1-1.3-3.5 1-2.3-1 0 0 1.1-1.3 0 0-3.5-1 0-0.7 4.2 3.1 8.6 1.6 8.2 3.2 2.6 0.8 2.8-4.7 10.1-0.7-1.5-1.2-0.8-1.7-0.7-0.6-7.6-2.8-10-0.4-3.8-2.2-5.3-0.7-4.3 0.2-2.2-0.5-1.3-1.3-1.1 0.1-1.4 1-5.1 0.7-7 0.5-2.5 0.6-2 1-1.9 0.7-1.9 0.6-2.6-0.1-2.1-0.8-4.1-0.6-1.7-2.4-12.2 0.8-1 1.3-0.8 7.7-2.7 2.4 0.1 2.8 0.6 4.1 1.5 1.1 0.9 1.7 2.7 2.2 0.9 1.6-0.4 1.5-1.2 0.8-1.5 0.2-1.4 0.6-1.7 1.7-1.7 4.8-2.3 3.5-0.7 2.9-0.1 3.2 0.2 1.9-0.4 1.3-1 2.2-3.8 2.9-2.5 2.9-1.3 4.3-1 1.8-1.1 0.8-1.7-0.4-2.5-0.1-3.1 0.4-4.2 0.8-3.2 1.1-2.6 3.5-4.6 0.9-2 4.6 0 12.4 9 5.2 4.1 9.3 9.6 1.7 2.9 1.1 2.2 1.1 1.9 1.7 1.2 2.9 1.3 4.6 3.3 2.6 1.3 2 1.5 6.8 6.3 1.9 2.3 1 2.4 0.4 2.4z m-71 134.8l-1.1-5-1.6-2.3-1.6-1.8-5.1-7.2-2.8-2-2.8 2.2-4.3 2-0.4 3.2 2.6 1.4 0.4 1.4-0.3 1.6 1.1 2 0.6 2-4 2.9-5.4-2-3.5 2.3-3 2.9-3 0.2-2.7 0.8-0.9 2.5 0.9 1.6-0.5 3.5 0.2 3.9 0.7 2.2 1 2.1 1.7 1 1.2 0.4 3.3 6.9 2.6 8.1 4.1 7.1 8.1 9.1 3 2.1 7-2.1 2.9 1.7 2.6 1.9 2.7 0.8 1.5 1.2 1.5 7.4 4 2 1.8-3 3.2-1.7 2.5 2 2.3 2.7 3.8-2 3.1-2.9 0.9-5.7-1.9-14.9 0.6-1.7 0.7-2.3-0.8-2.9-1.5-2.6-1.6-0.6-1.7-1.1-0.7-5.4-5.2-16.4-3.2-3.3-4.1 3.3-4.1 2.3-1.4-9.4-1.7-0.9-1.7-1.5z" id="PAN1418" name="Darién" data-id="PAN1418" data-name="Darién">
 </path>
 <path d="M947.1 188.7l-4.5-5.6-2.1-0.6-6.4-2.8-2.1-2.8-1.7-5.8-1.8-2.5-5.2-5.1-2.7-3.8-4.7-4.1-4.2-3.2-1.3-1.5-0.9-1.6-0.2-0.9-0.4-2.4-1-2.4-1.9-2.3-6.8-6.3-2-1.5-2.6-1.3-4.6-3.3-2.9-1.3-1.7-1.2-1.1-1.9-1.1-2.2-1.7-2.9-9.3-9.6-5.2-4.1-12.4-9-4.6 0-3.8-6-3.1-1.8-11.7-2.8-1.1-0.9-0.3-0.9 1.7-2.7 0.8-2-0.8-3.7-1.4-1.5-1.1-0.5-0.7 0.6-0.8 1.6-0.7 0.5-1.4 0.1-3.8-0.6-4.3 0-3.8 0.4-1.3-0.9-1.1-1.6-1.6-4.5-0.7-3-0.8-1.2-1.1-0.3-6 3-1.3 0.4-1.4-0.1-3.2-0.6-4.9 0.2-2.3-0.5-1-0.8-0.4-1.1 0-2.6-0.5-1.6-0.8-1.5-1-0.7-1.2-0.5-0.7-0.6-1.2-2.4-1.5-1.4-1.3-0.1-2.4 1.6-1.2 0.5-0.7-0.5-0.8-3-0.8-1.5-2.2-2.1-1.5-0.2-1.1 0.5-1.5 2.3-0.8 0.6-8.9 2.1-2.6 0.2-3-0.6-2.4-1.5-6-4.6-3.7-2.4-1.8-0.6-0.9 0.5-0.4 3-0.6 1.2-1.3 0.4-2.3-1.1-2.8-3-1.2-0.5-2.1 0.1-1.6 1.3-1.4 0.8-2.3 0.3-5.2-0.7-2.9 0-2.4 0.3-1.2 0.6-2.1 1.9-1.6 0.6-2.6 0-1.8-0.7-1.1-0.2-0.8 0.3-0.1 1.9-0.3 1-1 0.5-1.8-0.5-1.4-0.2-1.4 0.2-4.1 1.8-1 0.8-0.5 1.1 0.3 1.1 1 2 0 0.7-0.7 0.6-1.5 0.5-7.7 0.2-2.6-0.1-1.1-0.9-2.6-2.6-3.7-1.5-2.2-0.5-2.5-0.2-2.3 0.1-2.3 0.3-11.6 3.7-5.6 1.2-1.4-1.2-0.1-1.1 0.3-1.8 1.1-1.9 1.1-1.2 3.2-1.6 0.6 1.7 0.7 0.1 3.2-2.6 4.7-3 2.8-1.3 3.3-1.1 1.5-0.9 1-1 0.8-2.1 0.3-2.7 0.6-1.6 1.9-2.8 1.4-1.4 1.8-1.1 3.9-0.9 0.7-1.1 0.1-18 4.4-0.4 6-1 7.2-0.6 2.2 1.4 0 2-2.9 1.6-2.1-0.5-1.7 1.3-7 0.8-2.8 0.6-1.9 3.1 0.5 4 0.8 5.6 3 1 2.8-0.6 1.7 0.8 6.2-1.1 1.9 0.5 2.3 0 3 1.2 1.8 0.6 2.8 2.3 0.8 1.3 3.4-0.4 1.4 0.1 1.7 0.4 2.1-0.2 0.9-1.6 1.8-0.4 3.1 0.7 4.9-0.9 1.4-1.6 2.9 0.6 1.9-0.4 1.9-0.7 2.2-1.1 1.8 2.3 2.7 1.3 2.2-0.2 5.6 1.5 3.8-0.4 2.3 1.7 2.7 0.5 2.4-1.1 2-1.6 2.8-1.1 2.5 0.7 3.3 2.2 2.4 0.9 5.6 0 2.8 2 1.8-0.7 2.6 0.7 1.7 1.8 1.9 1.7 4.7 2.1 1.7 1.1 2.4 0.8 4.4 0.8 3.5 2 2.5 2 4.3 1.9 1.6 0.2 2.2 0.6 2.2 1.3 5.8 3.3 2.6 0.5 2.7-0.4 1.6 0.6 2.1 1.2 2.2 0.3 3.1 2 1.6 2.1 4.4 1 5.4 0.8 3.3 1.2 2.1 1.7 0.6 2.2 3.6 4 2.3 0.3 2.9 1.4 5.7 6.5 2.8 4.5 2.3 3 2.5 3.8 5.9 3.9-1.6-4.4-1.9-4-0.2-2.7 2.9 1.5 2.2 3.9 1.4 1.9 4.6 3.2 0.6 3.9 1.7 1.9 2.1 1.3 2.6 2.2 0.6 2 1.4 1.9 1.9 1.5 0.5 1.5-1.6 3.1 3.3 3.8 2.3 5.4 1.8 1.9 1.6-1.4 0.7 0.3 0.2 2.4 3.3 2.1 3.4 3.1 3.8 4.4 3.3 1.5-0.9-1.4-2.1-2.2-0.4-1.7 0.9-0.8 1.9 1.6 1.7 2.2 0.7 1.2 5 3.9-0.7 3 3.2 2.7 1-3 1.6 0.4 1.5 2.9-0.6 2.8-0.3 2.6-0.7 2 2.1 2 5.3 3.6 4 2.1 5.6 0.9 5.3-0.4 3.1-2 1.5 1.5 2.1 0.9-0.3 2.3-1.7 1.3-2.8 0.3-2.7 0.6-2.8 1.7-0.1 1.4 0.8 1.7 0.2 3.1-2.1 4.2-4.8 5.2z" id="PAN1419" name="Kuna Yala" data-id="PAN1419" data-name="Kuna Yala">
 </path>
 <path d="M176.1 85.6l-1.2 0.8-1-0.3-2.9-1.9-0.9-1.4 0.1-1.3 1.3-1.9-0.9-0.9 0.1-0.8 1 0.5 0.7 1.1 1 0.6 1.2 0.1 0.9 2.6 2.5 1.1-0.3 1.1-1.6 0.6z m-27.6-35.8l1.4 0.3 1.4-0.2 1.6-0.7 1.7 0.8 4 3.8 4.3 2 2.1 1.4 1.8 2.5-3.3-0.5-3.4 1.4-2.7 2.5-1.5 4-0.8-0.3-1.8-2 0.7-1 0-3.9-0.6-1.6-1.7-1 0-1.1 2.3 1.1-1.5-3.6-2.6-1.2-3.1-0.6-3.2-1.6 0-1.1 1.8-1.2 0.8 0.3 0.8 0.9 1.5 0.6z m-10 1.3l-0.7 1.4-2.3-4-3.6-3.7-8.1-6.4 4.5-3.5 2.8-1.1 3.2-0.1 4.7 7 1.2 4.4-2.4 2.8 0 1.3 1 1.3-0.3 0.6z m39.8 67.4l-1.5 4.6-3.2 2-4.5 0.9-6.9 0-5.1 0.4-3.2 1.6-2.2 3.5-1 3.9-1.6 0.6-1.2-1.9-1-4.5-0.6-1.6-2.3-1.3-0.3-3.2 1.9-1.3 0.7-2.9-1-2.3-4.1-2.6-6-1.3-2-1.6-1.2-1.9-3.5-0.6-3.5-1.3-0.3-2.6 0.9-2.6 2.6-1.9 3.8-5.2-1.3-0.6-3.5-1.3-1.3-1.3 1-2.6-0.6-1.9-1.6-0.3-2.6 2.5-2.2 4.5-0.3 4.2-4.5 3.9-2.2 2.3-5.7 2.2-2.2 2.3 1.9 1.9 9.8 3.6 3.8 3.2 2.3 4.2 0.6 3.5-1.3 2.6-1.6 5.5-1.2 5.1-1.3 3.2-14.1-6.4-7.8-2.6-6.4-0.3-1.9-3.7-1.8-1.6-2.7-1-9.7-0.5-11.5 1.4-3.7-3.7-1-0.7-0.5-1.9-4.4-7.4-2.3-1.5-7.7-2.6-7.8-5.8-3.8-1.7-1-0.6-0.7-1.1-1.1-2.6-1.2-0.9-1.5 0-5.1 2.1-0.8-64.9 0.4-3.3 1.4-2.4 3.2-1.2 9-1.2 2.6-1.5 0.2-1.4-1.9-0.8-0.7-1-1.2-4.7-2-3.7 0.3-1.5 1.9-2.8 3.2-2.7 3.1-0.3 9.8 3.9 7.1 6 1.6 0.6 1.4-0.6 1.7 2 2.2 4.1 1.8 2 1.6 0.8 3 1 3.2 0.5 2.2-0.3 1.1-2.3 0.7-6.6 1.2-1.8 2.6 0.4 2.6 1.4 1.3-0.1-1.8-6.5 2 1.3 16.3 12.9 10 10.1 6.3 3.5 4.5-3-0.4 2.9-0.8 2.3-4.6 8.1-0.4 1.9 0.5 2.4 1.4 1.6 2 1.3 1.4 1.3-0.2 1.9-2.3 1.8-4.2-0.3-0.4 1.9-0.9 1.3 0.3 0.9 0.8 0.4 1-0.2 1.6 1.1 1.5 2 1.1 2.3 0.4 2.2 0.9 1.6 6 3.8 1.2 0 1.3-2 2-0.3 1-0.6-2-3.1 2.3 0.6 0.8 1.8 0.5 2 1.1 1.6 1.9 0.5 1.3-0.8 0.5-1.8-0.2-2.7 1.2 0 0.1 2.2 1.2 1.2 1.4 0.1 0.6-0.6 0.1-2.1 0.3-1.5 0.8-0.5 1.2 1.2 0.4-1.3 0.8 0.1 0.8 2.8 1.5 1.9 1.2 0 0-1.2 1.1 0-0.4 2.6 0.3 4.7-1 2.1-5.2-3.2-2.7-1-4.3-0.4-1.9 1.4-0.5 3 0.5 3.2 1.2 1.9 0 1.1-3.4-1.1 0.9 2.5 4 2.1 1 1.8-1.2 11.2-1.3-0.3 1.8 2 4.1 1.9 4.1 0.4 2.9-1.6 6 2 2.2 1.3 0 1.4 2.5 3.8 1.2 1.6 0.3 1.1 1.3 0.8 1.9-0.2 3.2 0.2 8.1-2.5 2.2-0.2z" id="PAN1958" name="Bocas del Toro" data-id="PAN1958" data-name="Bocas del Toro">
 </path>
 <path d="M253.1 91.1l0.9 0.3 1.2-0.3 1.9 1.1 1.3 1.8-0.8 0.5-0.8-0.4-3.2-0.4-1.6 0.2-0.2-1.1-0.7-1.5 0.3-0.5 1.2-0.1 0.5 0.4z m59.2 54l0 1.5-1.1 4.3 1.9 12.7-0.5 10.4 0.6 6.3 1 3.7 1.5 2.2 1.3 1.4 1.4 3 1.4 2.7 2.7 2.6-4.7 1.1-1.4 0-1.9-0.5-3.7-1.5-6.9-1.8-2.8-1.8-7.9-6.2-1.5-0.4-4.4 0.9-8-0.6-0.8-1.6-2.9-1.5-5.2-1.3-4.3-2.2-0.3 7.1-1.5 6.8-3.9 9.6-0.6 2.8-0.1 2.5 0.7 8.6-4.3-1.1-7.5 2.4-3 4.1-2.4 5.8-1.7 2.9-3.7 2.6-4.2 0.8-1.5-3.4-2.6 0.3-1.9 2.9-2.7 2.8-8.9-0.3-4.9-4.1-2.8-5.3-4.5-1.4-15.7-0.2-8.2-2.1-3.4-5.3-0.7-5.3-2.6-2.8-2.8-4.9-1.9-2.5-1.6-1.1-4.4 1.7-5.5 1.5-5.3 0.1-2.8-1.6 0.9-4.2 5.4-12.9-1.6-1.9-0.7-3.7 1.3-5 1.6-14.5-2.3-10.1-0.3 0-7-1.6-1.3-0.1-3.3 0.6-4.6-0.6-5.3-0.8-3-0.9-3.1-1.5-7.6-3.1 1.3-3.2 1.2-5.1 1.6-5.5 1.3-2.6-0.6-3.5-2.3-4.2-3.8-3.2-9.8-3.6-1.9-1.9 2.2-2.3 5.7-2.2 2.2-2.3 4.5-3.9 0.3-4.2 2.2-4.5 2.6-2.5 1.6 0.3 0.6 1.9-1 2.6 1.3 1.3 3.5 1.3 1.3 0.6-3.8 5.2-2.6 1.9-0.9 2.6 0.3 2.6 3.5 1.3 3.5 0.6 1.2 1.9 2 1.6 6 1.3 4.1 2.6 1 2.3-0.7 2.9-1.9 1.3 0.3 3.2 2.3 1.3 0.6 1.6 1 4.5 1.2 1.9 1.6-0.6 1-3.9 2.2-3.5 3.2-1.6 5.1-0.4 6.9 0 4.5-0.9 3.2-2 1.5-4.6 1.6-0.2 2.1 0.9 1.7 1.2 2.8 0.6 2.5-0.6 2.4-1.5 1.5-1.9-0.5-1.9 1.9-0.9 1.5 0 2.4 0.9 0.3 0.6 1.6 1.4 1.8 0.9 0.9-1.1 1.7-0.5 10 4.6 3-1.5 0.8-2.9-0.6-6.9-11.4-6.5-6-8.9-1.6-1.6-2.2-0.9-3.1-2.3-2.7-2.4-0.6-1.6 2.6 0 4.3 1.1 4 0.4 1.8-2.1-5.5-2.6-2.6-1.9 1.1-2 3.5 0 3 2.2 4 4.9 3.9 3 0.7 0.7-0.3 1.5-1.4 0.4-1.7-0.2-1.2-0.6 0 1.2 2.7 3.1 0.8 2.5 1.3 0.5 2.2 0 6.5 0.7 4.2 4.6 2.7 0.9 2.5 5.6 0.8 0.8 2.4 1.8 10.2 14.6 6.8 7.4 3.3 2.2 1 1.5 1.9 2 2 1.7 1.5 0.7 1.4 0.4 3.1 1 2.1 0 3-1 8.8 1.8 2-0.7 4.8 0 3.9 2.6 9.1 0.6 6.5-1.3 8.5-0.4z" id="PAN3454" name="Ngöbe Buglé" data-id="PAN3454" data-name="Ngöbe Buglé">
 </path>
 <path d="M838.3 283.2l1.7 1.5 1.7 0.9 1.4 9.4 4.1-2.3 4.1-3.3 3.2 3.3 5.2 16.4 0.7 5.4 1.7 1.1 1.6 0.6 1.5 2.6 0.8 2.9-0.7 2.3-0.6 1.7 1.9 14.9-0.9 5.7-3.1 2.9-3.8 2-2.3-2.7-2.5-2-3.2 1.7-1.8 3-4-2-1.5-7.4-1.5-1.2-2.7-0.8-2.6-1.9-2.9-1.7-7 2.1-3-2.1-8.1-9.1-4.1-7.1-2.6-8.1-3.3-6.9-1.2-0.4-1.7-1-1-2.1-0.7-2.2-0.2-3.9 0.5-3.5-0.9-1.6 0.9-2.5 2.7-0.8 3-0.2 3-2.9 3.5-2.3 5.4 2 4-2.9-0.6-2-1.1-2 0.3-1.6-0.4-1.4-2.6-1.4 0.4-3.2 4.3-2 2.8-2.2 2.8 2 5.1 7.2 1.6 1.8 1.6 2.3 1.1 5z m71-134.8l0.2 0.9 0.9 1.6 1.3 1.5 4.2 3.2 4.7 4.1 2.7 3.8 5.2 5.1 1.8 2.5 1.7 5.8 2.1 2.8 6.4 2.8 2.1 0.6 4.5 5.6-1.8 2-1.4 5.1 0 3.9 1.5 1 5.1-0.5 2.8 1 1.8 1.4 2.8 4.8 2.5 6 1.4 11.8 1.4 6.1 1.9 3 2.2 0.8 2.2 0.1 2.2 0.9 1.3 1.8 3.6 7.8 4.4 6.5-19.3 5.3-3.6 0.6-3.5 1-2.3 1.4-2.3 3.1-1.8 0.8-4 0.6-2.1-0.5-3.5 0.6-3.2 1.8-2.4-0.5-3.2-4.4-1.6-1.5-3.4-1.1-1.7-2.6 0.7-2.8-3.1-7.3-6.5-5.3-4.7-2.3-5-1.2-1.8-1.2-0.7-2.4 0.1-2.7-1.9-0.5-1.7-0.9-1.1-1.5 0-1-1.5-2.4-2.6-2.7-1-1.4-0.7-2.2-0.5-2.4-2.9-4.5 0.2-2.7 1.2-3.1-0.2-1.9-0.9-1.6-4.2-4.5 0-0.9 0.5-0.9-0.5-1.1-3.5-1.2-2.1-2.1-0.5-1.4 1.1-1.9-0.4-3.2-2.3-2.2-2.2-2.6-1.1-3-0.6-3.5 2-3.4 3.3-2 5.1-7.2 1.9-3.6 2.4-2.9 2.7-0.8 2.7-0.5 2-1.6 1.5-2.2 3.8-1.9 4.1-0.5 3.6 0.8 1.5-0.1z" id="PAN3455" name="Emberá" data-id="PAN3455" data-name="Emberá">
 </path>
 <circle cx="505.9" cy="93.7" id="0">
 </circle>
 <circle cx="504.2" cy="90.5" id="1">
 </circle>
 <circle cx="823.8" cy="133.6" id="2">
 </circle>
</svg>