<?xml version="1.0"?>
<!--
************* Copyright (c) 2017 Pareto Softare, LLC DBA Simplemaps.com *******************		
************* Free for Commercial Use, full terms at  http://simplemaps.com/resources/svg-license ************
************* Attribution is appreciated! http://simplemaps.com ***************************
-->
<svg baseprofile="tiny" fill="#7c7c7c" height="1472" stroke="#ffffff" stroke-linecap="round" stroke-linejoin="round" stroke-width="2" version="1.2" viewbox="0 0 1000 1472" width="1000" xmlns="http://www.w3.org/2000/svg">
 <path d="M328.5 961.4l-0.5 0.3-1 0.1-2.6-1.7-0.8-1.3-0.5-1.1 0.8-0.4 0.9 0.5 3 2.8 0.7 0.8z m5.6-2.3l-1.5-0.4-3.3-0.3 0.7-1.5 0.9-1.2 0.8-1.3 0.3-1.9 2.3 1.6 0.3 1.9-0.2 2-0.3 1.1z" id="PER3505" name="Callao" data-id="PER3505" data-name="Callao">
 </path>
 <path d="M149.8 472.1l1.1 1 0.8-0.1 1.6-0.8 1.3-0.4 0.8 0.3 0.5 0.4 0.3 1 0.5 0.7 1.6-1.3 0.9-0.9 0.9-0.4 0.9 0 0.7 0.4 1 0.8 1.5 0.8 1.9 0.5 1.1 0.5 0.7 0.6 0.4 0.7 0 0.9-0.2 0.9-0.8 1.4-4.6 4.3-0.5 0.6-0.2 0.8 0 0.9 0.3 1 0.8 0.7 1.1 0.4 1.1 0.5 0.3 0.7 0 0.9-0.7 2.2-2.7 3-6.4 1.2-1.8 0.7-1.3 0.6-0.9 0.7-1.2 1.1-0.8 1-0.7 1.3-0.3 0.9 0 0.9 0.3 0.7 1.2 2 0.3 0.7 0.1 0.9-0.2 0.8-0.7 2 0.4 3.7 0.4 0.6 0.7 0.6 1.6-0.1 0.9 0 1.1 0.6 0.7 1 0.5 0.9 1.3 4 1.5 3.1 1.1 1.3 1.1 0.6 1.8-0.1 1.9 0 2.3 1.2 3.8 0.9 0.7 0.4 0.7 0.8 0.2 0.9 0 1.9-0.2 0.9-0.5 0.6-0.6 0.5-1.4 0.6-1 0.7-2.6 3.8-1.7 1.3-2 0.7-1.4 0.7-0.6 0.7-0.4 0.8 0.2 6.4-0.2 1.3-0.2 0.5-0.5 0.5-0.5 0.3-1 0.1-2.1-1.8-7.4-2.2-1.2 0-1.2 0.6-13.2 12.9-2 2.4 0.1-0.3 0.1-2.1-1.5-1.9-8.4-8.4-4.1-4.1-0.8-1.6-4.3-3.6-1.1-2.5-0.3-2.6-1.2-2.6-1.9-2.3-1.3-1.4-9-7.1-4-2.6-10.1-5.9-12.8-6.5-13.5-6.7 1.8-1.5 2.7-3.2 6.7-10.1 0.5-1 0.9-3.2 0.5-1 1.2-2.1 9.5-11.2 1-0.7 1-0.6 24.5-7 2.8-1.9 0.6-0.6 0.5-1.3 0.3-2.3-0.2-8.3-1.4-7.8 0.4-1.7 0.5-0.4 0.3 0.1 2.1 1.4 3.4 3.2 4.8 3.6 0.9 0.9 1.2 1.7 0.4 1.1 0.9 1.5 1.1 1.3 0.6 0.9 0.2 0.9-0.1 0.8-0.9 1.3-0.7 1.5-0.2 1.2 0.1 1.2 0.4 0.7 0.7 0.5 1.2 0.3 2.2 0.3 1 0.3 1 0.5 1.2 1 1.1 1.6 1 2.3 0.6 0.6 0.9 0.5 2.4 0.1 1.7-0.2 1.6-0.5 1-0.1 1 0.1 3.2 1 1.5 0.9 1.5 2.5z" id="PER566" name="Lambayeque" data-id="PER566" data-name="Lambayeque">
 </path>
 <path d="M40.3 510.7l-0.9 0.2-1-0.1-0.3-0.8 0.3-0.8-0.3-1.2-0.6-0.6 0.6-0.7 0.2-1.2 0.9-2.7 0.8 0.5-0.4 0.6-0.6 1.3 0.5 1.1 0.6 0.7 0.1 1-0.1 1.3 0.2 1.4z m126.6-119.7l-2 2.1-0.5 0.9-0.4 1.9-0.4 1.3-1.7 0.4-0.9 0.8-1.4 3-0.8 1.2-1.4 1.2-2.1 2.2-0.6 1.4-0.1 1 1.9 4.6 0.2 1.1 0 1.3-0.1 1.9 0.2 1.1 0.6 0.7 0.8 0.4 0.7 0.5 0.5 0.9 0.6 10.9-0.3 1.6-1.1 0-1.6-0.5-1.4-0.1-1.1 0.5-1.2 2.6-0.2 1.4 0.2 0.9 0.5 1.1 0.2 0.9 0 1.5-0.6 4.5-1.2 5.1 0.1 1.4 0.2 0.9 1.1 2.3 0.2 0.8 0 1.9 0.3 1 0.5 0.9 0.9 0.8 1.1 1.1 0.7 3.2-0.8 1.2-0.8 0.3-1.7 1.3-2.8 2.9-1.4 0.8-1.5-2.5-1.5-0.9-3.2-1-1-0.1-1 0.1-1.6 0.5-1.7 0.2-2.4-0.1-0.9-0.5-0.6-0.6-1-2.3-1.1-1.6-1.2-1-1-0.5-1-0.3-2.2-0.3-1.2-0.3-0.7-0.5-0.4-0.7-0.1-1.2 0.2-1.2 0.7-1.5 0.9-1.3 0.1-0.8-0.2-0.9-0.6-0.9-1.1-1.3-0.9-1.5-0.4-1.1-1.2-1.7-0.9-0.9-4.8-3.6-3.4-3.2-2.1-1.4-0.3-0.1-0.5 0.4-0.4 1.7 1.4 7.8 0.2 8.3-0.3 2.3-0.5 1.3-0.6 0.6-2.8 1.9-24.5 7-1 0.6-1 0.7-9.5 11.2-1.2 2.1-0.5 1-0.9 3.2-0.5 1-6.7 10.1-2.7 3.2-1.8 1.5-7.6-3.9-5-2.3-4.9-4.8-5.7-4-7-4-6.9-5.3-2.3-3-1.6-4.6 0.2-3.2-0.1-3.4 0-0.8 1.6-1.3 0.5-1.6 0.3-0.5 1.8-0.1 0.9-1.8 0-1.3 0.8-1 1.4 0.1 1.5 2.4 2.3 1 3 1.2 2.5 0.4 2.8-2.9 3.1-5.6 0.7-7.4-2-6.1-4-8.7-2.4-2.7-7.3-7.1-1.4-1.7-1.7-0.5-1.1 0.4-1.9-1.4-1.6-2.6-2-2.3-1.6-2.4 0.4-0.8 0.5-0.6 1-0.4 0.6-1.7-0.3-0.8-0.6-0.9 0.1-1 1.1-0.3-0.7-3.1 0.7-1.1 1.2 0.1 1.4-0.7 1.3 1.3 2.4-0.2 1.2-1.7 0.3-2.8-1.7-3.8-2.6-2.7-2.5-1.8-1.8-2.9-1.3-2.3-2.7-3.6-6.3-6.8-2.7-3.3 0.4-1.1 1-0.5 1.1-1.2-0.2-1.5-0.6-1.8 0.6-4.1 0.1-1.2-0.5-1.5-0.7-1.6-0.5-1.5 0.3-1.2 1.9-1.6 0.6-0.9 1.1-2.7 0-1.8-1.1-4.4 0.3-1.6 0.9-1.8 1.1-1.8 0.9-1 6.9-4.7 1.7-1.9 1.5-2.6 1.1-1.2 1.5-0.5 1.4-0.4 1-1 5.2 4.9 1.5 0.9 3.8 1 6.3-0.4 2.3 0.1 2.6 0.7 7.6 2.8 1.4 0.1 0.5-0.3 0.6-0.6 1.6-2 9.9-8.7-0.1 1.5 0.3 1 1.3 1.8 0.5 1 0 0.7-0.3 1.5 0 0.8 1.7 3.4 2.7 0.3 3.4-1 3.7-0.4-0.9 1.7-10.4 13.9-0.3 1.4 0.7 1.6 1 1 3.6 2 1.3 0.5 2-0.1 0.8-0.7 3.2-1.8 6.1-4.6 1.2-1.4 0.6-1.2 0.8-2.8 0.7-1.1 0.6-0.5 1.7-0.7 3.2-0.4 0.2-0.1 0.5 0.8 1.4 0.4 1.6 0.3 1.3 0.5 1.4 1.2 2.6 2.8 1.6 1.2 2.1 1.1 2.1 0.3 2 0 2.1 0.5 2 1.9 1.6 2.4 2 2.1 2.9 0.4 5.3-1.6 2.7-1.6 2.9-0.4 2.2 1.1 3.9 3.9 0.7 0.3 1.6 1.1 1.9 0 1.6 0.9 0.4 0.8-0.2 1.1-1.8 3.3-0.1 1.7 2.3 3.4 0.9 4.7 2.1 3.9 0.3 1.5 0.5 1.7 1.4 1.1 1.6 0.8 1.4 1.1 0.4 0.7 0.5 1.5 0.5 0.7 0.6 0.5 1.6 0.6 0.7 0.4 1 1.6 0.9 1.6 1.1 1.4 1.8 0.4 3.6-0.1z" id="PER567" name="Piura" data-id="PER567" data-name="Piura">
 </path>
 <path d="M66.1 319.7l-9.9 8.7-1.6 2-0.6 0.6-0.5 0.3-1.4-0.1-7.6-2.8-2.6-0.7-2.3-0.1-6.3 0.4-3.8-1-1.5-0.9-5.2-4.9 1.1-2.4 4.3-6.4 2.5-2.6 2.9-2.3 3.3-1.9 1.2-1.1 0.4-1.6 0.2-1.8 0.6-1.7 1.4-2.8 2.1-2.6 2.8-2.3 12.5-7.5 2.3-2.2 3.3-4.9 0.5-1.6 1.4-0.4 0.7-0.4 1.3-0.5 5.4 0.2 1.6-0.4 1.6-0.6 1.3-1.1 0.5-1.4 0.2-0.9 1.1-1.7 0.3-0.9 0-0.8 1.8 1 3 0.8 1.1 0.8-0.1 1.4-0.5 1.6 0.2 1.7 0.5 0.4 1.3 0.6 0.5 0.6 0.1 0.7-0.1 2.2-0.6 2.2 0 0.6 0.5 0.5 1.5 0.6 0.2 0.8 0 0.8 0.4 1.5 0.1 0.9-0.1 0.8-0.5 1.5-0.1 0.7 0 1.4 0.5 1.5 0.1 0.8-0.6 1.1-0.2 0.7 0.4 1.5 1.6 2.6 0.7 1.6 0.1 0.7 0 1.4 0.2 0.7 0.7 0.8 1.2 1 0 0.8-1.3 1.4-6.1 2.8-1.2 1.4-1.1 1.8-1.3 1.7-1.7 0.8-1.5-0.3-3.3-1.8-1.6-0.5-1.6-0.1-1.6 0.1-1.5 0.4-1.1 0.9-0.9 1.3-0.9 1.9-0.7 2z" id="PER568" name="Tumbes" data-id="PER568" data-name="Tumbes">
 </path>
 <path d="M641.2 1067.6l2.8 0.8 1.2 0.7 1.7-1 1.4 0.7 1.3 1.1 1.4 0.6 1.8-1 1.3-1.4 0.6-0.3 1.1-0.2 1.1 0.5 1.1-0.2 2.3-1.8 1.1-0.5 2.7-0.3 2.1 0.1 0.4 0.2 0.1 0.7 0.8 1.5 0.4 0.3 3.3 0.1 2.9 0.4 2.5 1.3 5.3 4.2 5.7 3.2 1.5 0.5 0.7 1.1 0.8 0.3 3.2 0.2 3 0.9 1.4 1 1.1 0.1 3.2 0 1 0.4 1 1.1 1.6 2.4-0.6 0.6 0.9 1.1 1.5 1.1 3 1.7 1.2 0.3 3.9-0.3 0.4 0.5 2.5 1.8 0.6 0.2 0.7 0.8 4.2 3.9 1.2 1.8 0.8 1.9 1.8 3.3 0.4 0.8 1.3 2.3 1.1 2.3 0 14.2-2.4 8.6-0.8 1.5-1 1.3-2.7 1.8-1.1 1.1-2 2.5-1.8 2-0.8 1.1-2.2 4.3-0.7 0.7-2.7 0.7-1.1 0.6-1.4 0.3-1.6 0.3-0.9 0.5-0.6 0.6-0.4 0.9-0.7 0.9-1.3 1.1-1.3 0.6-1.8 0.4-1.1 0.6-0.8 0.6-0.8 0.9-1 1.6-0.2 0.8 0 0.8 0.2 0.9 1.2 2.1 0.3 0.8 0.1 1-0.1 2-0.4 1.9-6.6 1.8-1.5 0.2-1.4-0.1-1.8-0.9-1.1-0.3-1.4-0.1-2.5 0.2-1.3-0.3-1-0.3-1.5-0.8-1.7-0.6-1.2 0.2-1.4 0.8-2.1 1.9-2 3-5.1-2.4-1-0.6-2.5-2-2-1.1-1.6-1.2-2.3-1.2-0.5 0.8-0.8 1.3-0.5 0.6-0.8 0.4-1 0.1-1.4-0.1-0.8 0-0.8 0.3-1.1 1.1-1.4 0.7-1.3 0.2-1.7 0.3-3.4 1.1-1.8 0.4-1.9 0.2-1.8-0.2-1.2-0.3-1.9-0.8-0.8-0.2-0.8 0-0.5 0.5-0.6 1.6-0.8 1.5-1.7 1.6-0.5 0.7-0.7 1.6-0.5 0.6-0.7 0.4-0.8 0.3-2.4 0.1-2.2 0.6-1.4 0.4-1.1-1.3-3.1-8.5-0.1-0.6 0.9-0.1 1.8 0.1 0.8-0.3 0.6-0.9 1.9-6.8-0.1-1.9-1.3-2.4-1.9-3.3-0.1-1.5 0.5-5 0.6-5.6-0.1-3.2-0.4-3.4 0-1.3-0.1-1.1-0.4-1.3-2.5-4.1-1.9-2.6-0.6-1.2-0.6-1.6-1-3.5-0.6-5.4-8.9-17-0.4-1.9 3.4-0.9 0.8-0.4 0.5-0.4-0.1-1.1-1.6-2.2-1.7-2.9-1.1-1.1-0.7-0.4-2.1-0.5-0.7-0.4-0.6-0.9-1.1-2.5-0.3-1.3-0.4-5.6-0.7-3-0.2-2.9-0.8-1.6-0.2-0.7-0.3-2.9 0.1-1.1 0.4-1.2 1.7-2.2 0.5-1.5-1-1.7-0.2-0.7 0.1-0.8 0.8-1.4 0.6-1.7 0.3-0.8 0.5-0.6 0.8-0.3 0.9 0.2 0.9 0.5 1 1.2 1 1.7 1.6 1.4 13.7 8.8 1.3 1 3.2 3.2 2.2 1.1 7.5 1.2 0.8 0.2 1.6 0.6 1 0.2 1.3 0 1 0.1 2.7 0.7 0.9 0 0.8-0.5 0.5-0.8 0.7-2.4 0.4-0.8z" id="PER569" name="Apurímac" data-id="PER569" data-name="Apurímac">
 </path>
 <path d="M699.1 1169.4l-0.1 1.5-0.4 1.5 0 0.7 0.2 0.8 0.5 0.8 4.9 6.2 1.9 1.1 5 1.3 5.2-1.4 2.2-0.2 1.9-0.4 1.7-0.7 1.9-1 0.9-0.1 1 0.2 0.7 0.4 0.6 0.6 0.4 0.7 1 2.5 0.7 1.4 0.6 0.7 0.6 0.4 0.7 0.1 0.8-0.3 2.1-3 0.4-2.4 0.9-1.8 0.2-0.7 0-1.7-0.2-1.6-1.3-2.1-0.3-0.8 0.1-0.8 0.6-1.5 0.6-0.6 0.7-0.2 1.4 0.2 1 0.6 1.7 1.8 3.8 5.4 1.5 2.2 1 2.6 0.9 1.4 0.8 0.5 1 0.5 1.6 0.5 1.1 0.1 0.9 0.3 0.3 0.6-0.1 0.7-0.3 0.8-1.1 1.1-1.5 0.8-0.6 0.4-0.4 0.7-0.1 0.9 0.8 4.2 0 0.8-0.3 1.2-0.7 1.5-0.2 0.8 1 1 2 0.9 9.9 2.6 0.9 0.4 0.9 0.6 0.7 0.2 0.7-0.2 2.2-1.6 1.2-0.6 0.8-0.3 1.8-0.3 1 0 1.8 0.2 1 0 0.9-0.2 0.8-0.3 0.5-0.6 0.2-0.7-0.1-0.7-0.6-1.5 0.1-0.7 0.6-0.3 0.9 0.1 2.5 1.9 1.3 0.4 1.7-0.3 1.1 0.3 1.2 0.8 4.6 4.1 0.8 0.5 1.1 0.3 0.9 0 0.7-0.4 2.3-2.3 1.3-0.8 0.8-0.2 1.5 0.2 1.5 0.7 0.6 0.7 0.6 0.9 0.6 1.4 0.2 1-0.1 1-0.3 1.8-0.3 3.5 0.2 0.7 0.6 0.8 1.2 0.5 2.1 0.8 1.3 0.7 2.2 1.8 1.3 1.2 1.6 2.5 1.4 1.3 0.4 2.6-0.6 5.3 0.1 1.3 0.5 1.1 0.6 0.7 0.5 1 0.1 1.4-0.2 1-0.3 2.7 0.1 1.1 0.4 0.9 2.5 3.2 1.1 1.1 3.2 2.6 0.7 0.9 0.7 1.4 0.3 1.1-0.1 1-0.3 0.8-2.1 3.5-0.2 0.7-0.1 1.6 0.3 0.8 1.2 1.4 0.7 1 1.2 2.9 0.8 1.4 3.3 2.4 0.4 2.1-0.3 2-0.7 2.6-1.1 17.8-0.9 4.8-2 2.5-3.5 3.4-0.6 0.8-0.5 1-0.3 0.9-0.1 1.5 0.7 2.7 0.2 1.1-0.1 1.6-0.4 0.8-0.7 0.7-2.7 1.1-1.2 0-0.6-0.4-1-1.2-0.6-0.4-0.8-0.2-0.8 0.1-1.7 0.6-1 0.1-2.6 0-0.8 0.2-4 1.8-0.9 0.6-1.3 1.3-3.7 5.6-2.5 2.6-0.6 0.9-0.1 1 0.6 3.7 0 1-0.2 2.4-0.2 1-0.5 0.7-0.7 0.4-2.7 0.8-1.8 1-4 3.7-0.6 0.9-0.9 1.5-0.2 1.8 0.3 1.8 0.5 1.7 1.5 3.1 1 2.7 4.9 3.7 0.6 0.7 0.6 1.1-1.1 2-1.9 7.3-0.6 1.4-2.1 2.7-0.8 1.6-0.7 2.6-0.9 1.4-1.3 1.3-3 2.2-0.7-1.7-1.3-1.1-1.3-0.4-3.1-0.5-1.8-0.7-0.8-0.5-1.3-1.2-1.7-1.1-13.1-3.3-3.1-1.4-2.5-2.1-3.7-4.4-1.9-1.8-4.3-2.6-1.7-0.7-1.8-0.5-4.9-0.4-0.6-0.3-0.5-0.8 0.1-1.8-0.1-0.8-1.1-1.1-3.2-1.9-0.7-0.7-0.8-1.4-1.9-0.8-3.7-0.9-2-1.2-0.3-1.5 0-1.6-0.7-1.6-4.4-5.2-1.8-1.3-0.9-0.2-1.4-0.1-0.7-0.6-0.8-1.1-0.5-0.5-1.3-0.5-1.7-1.1-0.8-0.4-3.3-0.6-4.6-2-8.2 0.1-7-2.5-8.5-6.2-13.5-4.9-2.7-2.9-3.5-1.7-2.9-2.1-1.4-0.5-3.1 0-1.4-0.4-1.3-0.7-1.1-0.5-1.3 0.6-0.6-1.1-1-3.4-0.7-0.8-0.8-0.4-2.3-0.5-4.3-2.2-4.9-1.2-9.2-3.2-6.1-1-2 1.4 0.1-2-1.5-1.1-1.3-1.4-2.8-0.9-5.7-2.6-2.3-1.5-4.9-3.5-5.5-4-2.3-2.1 0-0.9 0.4-1-0.6-1.3-0.8-1.1-2.4-1.1-6.7-3.7-1.3-0.3-3.4-0.5-1.3-0.8-1-1.3-0.3-0.8-0.9-0.7-1.9-0.6-3 0.7-2.8-0.8-2.8-1-3.4-2.3-0.4-0.5-0.2-1.6-0.2-0.9-0.4-0.6-0.1-1.1-0.4-1.2-2-0.7-3.9-1.3-11.3-4.9-5.5-3.1-7.6-3.1-1.7-2.4-8.7-4.5-2.1-1.7-1.1-0.4-1.2 0.2-0.5 0.2-0.6-0.1-1.2-0.9-0.9-1 4.4-7 0.5-1.2 0.6-1.6 0.6-1.3 2.9-5.2 1.9-1.7 16.6-10.6 0.3 1.7 0.3 0.8 0.6 0.7 0.8 0.6 2.2 0.7 6 1 5.9 2.1 2.9 0.5 0.8 0.3 0.6 0.4 0.2 0.7-0.5 1.6 0.2 1.3 0.7 1.5 1.8 2.9 0.8 1.6 0.5 1.4 0.1 0.9 0.5 0.9 0.9 0.7 3.1 1.1 1.5 1 0.1 1.7 0.5 1.6 0.4 0.7 2.7 2.9 0.6 0.5 1.6 0.8 1.7 0.5 1.5 0.2 1.9-0.4 1.8-0.6 2-1.1 1.9-1.4 0.7-0.3 0.8 0 0.7 0.7 0.2 0.8 0.1 2.3 0.2 0.5 0.9 1.1 0.4 0.6 0.1 0.8-0.6 3.7 0.1 1.6 0.3 0.7 0.8 0.3 1.3-0.1 6-3.2 0.8-0.7 0.6-0.8 0.9-2.5 3.2-4.8 0.5-0.6 1.1-0.5 1.4-0.3 8.3 0.1 8.2-1.3 3.6-0.2 3.4-0.8 9.2-4.2 2.4 0.9 0.7 0.4 1.6 0.5 5.8 0.7 3.3-0.1-0.5-2.4-0.2-3.4 0.4-2.4 0.4-0.7 0.8-0.3 0.8-0.1 1.7 0.2 1.8 0.4 2.4 0.8 1.2 0 1.2-0.9 0.9-1.3 2.6-5.1 0.6-0.8 4.6-4.4 0.9-1.3 0.8-3.3 0.4-4.1 0.5-3.1 0.5-1.3 0.1-0.9-0.2-1-0.5-1.1-1.1-1.4-0.6-1.8 0.7-3.7 0.5-0.9 0.8-1.2 1-1 0.7-0.5 1.5-0.6 0.9-0.2 1-0.1 3.6 0.5 2-0.1 1.7-0.5 0.7-0.4 0.6-0.5 0.1-0.7-0.8-2-0.2-2.6 2-3 2.1-1.9 1.4-0.8 1.2-0.2 1.7 0.6 1.5 0.8 1 0.3 1.3 0.3 2.5-0.2 1.4 0.1 1.1 0.3 1.8 0.9 1.4 0.1 1.5-0.2 6.6-1.8z" id="PER570" name="Arequipa" data-id="PER570" data-name="Arequipa">
 </path>
 <path d="M723.2 897.2l-0.3 5-1.3 4.2-10.3 19.3-1.4 4.4-0.3 3.1-1.1 5-0.7 2.3-0.6 3 0 1.2 1.4 6.8 0.2 0.7 0.5 0.8 1.4 1.4 6.5 4.1 5.6 2.7 1.1 0.8 0.8 1.4 0.7 1.7 2.2 8.3 0.7 1.3 0.8 1.1 1 0.8 2.2 1 2.4 0.4 1.1 0.1 1.8 0.6 0.9 0.5 0.9 1.1 0.6 1.1 1.8 3.7 2.6 6.1 1.2 3.8 0.5 2.6 0 1.8-1.4 3.6-0.3 1.4-0.1 2.1 0.6 1.3 0.8 1.3 1.9 4.1 1.3 2.1 2.4 1.7 2.1 1 14.8 4.7 1.7 0.2 1.4 0 4.1-0.4 1.6 0 1 0.3 0.9 0.4 1.9 1.4 1.5 0.8 8.3 3.2 12 3.4 1.2 0.6 9.9 6.4 1.2 0.4 2.6 0.2 2.1-0.1 22.1 4 9.9-0.6 1.5-0.6 1-0.8 0-1-0.6-0.8-2-1.3-1-0.7-0.8-0.9-0.4-1 0.4-1.2 0.8-0.4 1.1-0.2 2.5 0.2 3.7 0.8 4.2-0.5 2.6 0.3 2.6 0.6-2.1 9-0.2 2.9 1.2 4.9 0 1.8-0.6 2.2-2 4.6-1.3 1.8-4.6 4.9-2.2 1.9-1.7 1.9-1.1 1.6-2.4 4.2-7.4 17.9-1.3 2.3-1 0.7-2.2 0.7-6.4 1-1.2 0.7-0.7 4.1-0.3 4.2-1.5 6.8 0.5 1.1 0.9 1.1 1 0.9 0.7 1.8 0.1 1.8-1.8 10.8-0.6 1.9-1.3 3-2.6 10-0.8 1.2-0.8 0.6-4.1-0.2-1.4 1.1-1.4 3.8-0.5 2.3 0.3 1.3 0.9 1.6 0 0.9-0.2 0.8-0.4 0.5-1.4 1.1-1.4 1.4-1 1.2-0.8 0.7-0.8 0.5-0.8 0.2-2.1 0.2-1.4 0.3-0.6 1.2 0.2 1.5 0.4 0.7 1.9 2.8 1.4 1.6 0.7 0.6 0.8 0.4 1.8-0.1 1.1 0.1 1.7 0.9 0.6 0.9 0.1 1-0.9 3.8 0.1 1.1 0.3 1.4 0.8 2.8 0.3 1.5-0.1 1.2-1.8 2.8-0.7 1.6 0 2.4 1.2 1.7 0.1 0.7-0.5 1.3-0.2 1.1-0.3 1.8 0.1 1.1 0.3 0.9 0.5 0.7 0.7 1.5 0.7 2 0.5 2.8-0.2 6.4-0.2 1.2-0.5 0.9-0.5 0.3-1.8 0.6-1 0.8-1.4-1.3-1.6-2.5-1.3-1.2-2.2-1.8-1.3-0.7-2.1-0.8-1.2-0.5-0.6-0.8-0.2-0.7 0.3-3.5 0.3-1.8 0.1-1-0.2-1-0.6-1.4-0.6-0.9-0.6-0.7-1.5-0.7-1.5-0.2-0.8 0.2-1.3 0.8-2.3 2.3-0.7 0.4-0.9 0-1.1-0.3-0.8-0.5-4.6-4.1-1.2-0.8-1.1-0.3-1.7 0.3-1.3-0.4-2.5-1.9-0.9-0.1-0.6 0.3-0.1 0.7 0.6 1.5 0.1 0.7-0.2 0.7-0.5 0.6-0.8 0.3-0.9 0.2-1 0-1.8-0.2-1 0-1.8 0.3-0.8 0.3-1.2 0.6-2.2 1.6-0.7 0.2-0.7-0.2-0.9-0.6-0.9-0.4-9.9-2.6-2-0.9-1-1 0.2-0.8 0.7-1.5 0.3-1.2 0-0.8-0.8-4.2 0.1-0.9 0.4-0.7 0.6-0.4 1.5-0.8 1.1-1.1 0.3-0.8 0.1-0.7-0.3-0.6-0.9-0.3-1.1-0.1-1.6-0.5-1-0.5-0.8-0.5-0.9-1.4-1-2.6-1.5-2.2-3.8-5.4-1.7-1.8-1-0.6-1.4-0.2-0.7 0.2-0.6 0.6-0.6 1.5-0.1 0.8 0.3 0.8 1.3 2.1 0.2 1.6 0 1.7-0.2 0.7-0.9 1.8-0.4 2.4-2.1 3-0.8 0.3-0.7-0.1-0.6-0.4-0.6-0.7-0.7-1.4-1-2.5-0.4-0.7-0.6-0.6-0.7-0.4-1-0.2-0.9 0.1-1.9 1-1.7 0.7-1.9 0.4-2.2 0.2-5.2 1.4-5-1.3-1.9-1.1-4.9-6.2-0.5-0.8-0.2-0.8 0-0.7 0.4-1.5 0.1-1.5 0.4-1.9 0.1-2-0.1-1-0.3-0.8-1.2-2.1-0.2-0.9 0-0.8 0.2-0.8 1-1.6 0.8-0.9 0.8-0.6 1.1-0.6 1.8-0.4 1.3-0.6 1.3-1.1 0.7-0.9 0.4-0.9 0.6-0.6 0.9-0.5 1.6-0.3 1.4-0.3 1.1-0.6 2.7-0.7 0.7-0.7 2.2-4.3 0.8-1.1 1.8-2 2-2.5 1.1-1.1 2.7-1.8 1-1.3 0.8-1.5 2.4-8.6 0-14.2-1.1-2.3-1.3-2.3-0.4-0.8-1.8-3.3-0.8-1.9-1.2-1.8-4.2-3.9-0.7-0.8-0.6-0.2-2.5-1.8-0.4-0.5-3.9 0.3-1.2-0.3-3-1.7-1.5-1.1-0.9-1.1 0.6-0.6-1.6-2.4-1-1.1-1-0.4-3.2 0-1.1-0.1-1.4-1-3-0.9-3.2-0.2-0.8-0.3-0.7-1.1-1.5-0.5-5.7-3.2-5.3-4.2-2.5-1.3-2.9-0.4-3.3-0.1-0.4-0.3-0.8-1.5-0.1-0.7-0.4-0.2-2.1-0.1-2.7 0.3-1.1 0.5-2.3 1.8-1.1 0.2-1.1-0.5-1.1 0.2-0.6 0.3-1.3 1.4-1.8 1-1.4-0.6-1.3-1.1-1.4-0.7-1.7 1-1.2-0.7-2.8-0.8-0.6-0.9-2.1-2-3.8-2.3-0.6-0.7-0.3-1.1-1.5-1.5-2-3.6-4.1-5.1-2.3-2-2.5-0.9-0.4-0.4-1.7-3.2-1.1-0.9-2.7-1.6-1.3-0.5 0-0.6 1.1-1.8-1.6-6.3 0.7-1.4 0.4-0.2-0.2-0.6-0.5-0.5-1.4-0.6-0.4-0.8-1.1-4.1-0.6-1.4-0.9-1.2-0.8-2.9-0.3-3-0.3-1-1.2-1.9-0.6-1.4-0.6-2.8-0.7-1.1-3.8-4-1.3-0.7-0.5 1.6-1.1-0.9-4.3-5.7-0.6-2.2-0.5-1.2-0.8-0.5-1.4-0.4-0.3-1 0.3-2.2 0-1.4-0.3-0.6-0.5-0.5-0.9-1.1-0.3-1-0.4-2.1-0.6-1-3-3.7-2.1-3.8 7.9-0.1 2.9-0.4 9.2-2.5 2.6-1 1.4-0.9 1.5-1.8 1.4-3 0.6-1.7 0.3-1.8 0.1-1.7-0.2-3.5 0-0.7 0.4-1.7 0.3-0.8 7.6-11.4 0.3-0.7 1.1-6.8 0-1.4-0.3-1.7-0.7-1-2.1-1.7-2.1-1.2-2.4-0.6-3.1-1.3-0.8-0.3-0.9-0.1-1.8 0.1-0.7-0.2-0.6-0.4-0.1-0.8 0.4-0.7 0.5-0.5 2.7-1.7 7.4-6 4.5-6.8 3.5-7.6 0.7-2.4 2.3 0.5 3.5-1.2 2.1-0.3 5.6 0.1 10.3-1.4 3-0.9 2.6-0.9 1.2-1.1 2.9-4 0.6-0.5 0.9-0.3 0.8 0.6 0.4 0.7 0.8 2.6 0.5 0.7 1 1.1 0.4 0.7 0.2 1.6 0.3 0.8 2.1 1.6 3.1 0.9 0.7 0.4 1.9 1.7 1.1 0.3 2.6-0.2 0.8 0.2 0.9-0.1 0.7-0.3 1.6-1 1.5-0.1 0.8 0.3 0.4 0.8 0.2 0.9 0.5 0.7 0.6 0.4 0.9 0 0.7 0.3 1.9 1.4 1.8 0.8 3.4 0.7 2.7-0.4 1.5-1 0.6-0.5 1.4-1 2-0.8 0.7-0.5 2.9-2.6 1.5-1.1 2.8-1.2 5.5-1.5 0.7-0.4 0.7 0.2 1.4 0.9 0.9 0.5 0.9 0 2-0.7 1.8 0.2 1.3 0.5z" id="PER571" name="Cusco" data-id="PER571" data-name="Cusco">
 </path>
 <path d="M976.2 1036l-49.8 25.2-1.3 0.3-2.1-0.4-53.1-26.5-1.3-0.3-1.4 1.1-2.6-0.6-2.6-0.3-4.2 0.5-3.7-0.8-2.5-0.2-1.1 0.2-0.8 0.4-0.4 1.2 0.4 1 0.8 0.9 1 0.7 2 1.3 0.6 0.8 0 1-1 0.8-1.5 0.6-9.9 0.6-22.1-4-2.1 0.1-2.6-0.2-1.2-0.4-9.9-6.4-1.2-0.6-12-3.4-8.3-3.2-1.5-0.8-1.9-1.4-0.9-0.4-1-0.3-1.6 0-4.1 0.4-1.4 0-1.7-0.2-14.8-4.7-2.1-1-2.4-1.7-1.3-2.1-1.9-4.1-0.8-1.3-0.6-1.3 0.1-2.1 0.3-1.4 1.4-3.6 0-1.8-0.5-2.6-1.2-3.8-2.6-6.1-1.8-3.7-0.6-1.1-0.9-1.1-0.9-0.5-1.8-0.6-1.1-0.1-2.4-0.4-2.2-1-1-0.8-0.8-1.1-0.7-1.3-2.2-8.3-0.7-1.7-0.8-1.4-1.1-0.8-5.6-2.7-6.5-4.1-1.4-1.4-0.5-0.8-0.2-0.7-1.4-6.8 0-1.2 0.6-3 0.7-2.3 1.1-5 0.3-3.1 1.4-4.4 10.3-19.3 1.3-4.2 0.3-5 0-1.9 0.3-2.3 0.5-1.7 0.8-2 5.9-10.5 0.2-1.2 0.1-1-0.7-1.4-4.3-5.4-0.1-0.9 0.1-0.8 0.8-0.9 1.4-0.5 2.9 0.2 1.7 0.4 1.4 0.6 3.2 2.5 0.6 0.4 2 0.4 11-0.4 1.8-0.4 0.8-0.3 35-18.2 6.8-2.1 1.6-0.6 3.1-1.9 4.5-3.8 4-2.6 4.9-4 1.4-0.8 1.9-1.5 7.6-9.1 2.4-3.8 1-2.6 0.7-2.7 0.7-11.1 0.4-1.8 1.1-3.6 1.2-1.5 2.5-2.4 10.5-7.7-0.1 27-0.1 20.4-0.1 37.2 6.8-5.5 1.7-0.3 2.1 1.8 3.5 4.3 2 1.8 3.7 1.8 3.9 0.6 4.1-0.2 3.9-0.7 3.2-1.1 19.2-9.8 3.3 0.1 1.5 0.5 1.5 0.1 3.2-0.3 2.1 0.2 1.4 0.6 3 1.9 2.6 0.5 9.8-1 1.4 0 0.9 1.5 9.6 17 24.7 43.8 16.5 29.2 16.4 29.2 2.4 4.2-0.8 0.4-0.5 0.7-0.4 1.6-0.7 1.3-0.9 1.2-1.1 1-2.4 1.3-1.1 0.9-0.7 1.2-0.1 1.3 0.7 0.7 2.6 0.7 0.8 0.9-1.9 3.7-0.6 0.7-6.5 1.8-1.6 1.1-1.2 1.6-1 2.3-1.7-0.2-1 1.5-0.8 1.9-2.5 2-0.4 1.8 0 3.5 1 8z" id="PER572" name="Madre de Dios" data-id="PER572" data-name="Madre de Dios">
 </path>
 <path d="M976.2 1036l0.1 1.1-0.6 9.6 0.2 3.3 1.1 6.4-0.9 15.8 0.3 1.8-0.5 2-0.7 2-0.7 1-1.6 1.9-0.6 0.9-0.2 1.1 0.1 1 0 1-0.7 0.9-0.9 0.1-2.4-0.4-1 0.1-1.1 1.8 1.6 2.4 4.3 3.5 0.8 1.2 0 0.9-0.3 1-0.3 1.3 0.1 1.1 1 3.1 1.3 2 0.3 2.8 0.1 3 0.4 2.6 1.1 1.5 4.2 2.8 0.8 1.1 0.5 1.3 0.5 2.8 1.9 5.4 0.4 2.9-1.5 1.6-5.4 0.7-2.6 0.7-2 1.4-0.4 1.4-0.2 1.6 0.1 3.2 0.6 1.4 1.1 1.6 0.4 1.7-1.6 1.5-5.1 2.8-1.6 1.2-3.1 3.6-0.5 0.3-1.4 0.3-0.5 0.4-0.2 1.4 0.2 3.8-0.4 0.9-1.8-0.1-1.8-0.4-1.5 0.2-1 1.6-0.5 10.4-1.1 2.4-1.3 0.7-4.3 1.2-1.8 1.1-0.7 1.1-0.1 1.4 0.3 6.7-0.2 0.6-1.3 3.1-0.3 1.5 0.5 1.4 3 2.9 4.5 7 1.3 1.3 4.7 3.5 1.3 1.3 1.9 2.8 1.9 1.8-0.2 1.5-1.2 1-1.9-0.1-1.5 0.1-1.1 3.1-2.6 1-1.5 1.3-1.3 1.7-0.4 1.3 0.9 2.5-0.1 0.7-0.5 0.3-2.2 0.8-0.8 0.4-1 1.5-0.4 1.6-0.2 1.6-0.4 1.6-1 1.5-0.9-0.6-0.8-1.7 1.5 0.4 0.6-0.6-0.5-1-1.6-0.5-1.2 0.5-1.5 1.1-1.1 0.5-0.5-0.7-0.6-2.8-1.5-1.8-4-3.1-0.8-0.9-1.4-1.1-1.3-0.9-0.9-0.3-2.6 0.1-1.5-0.1-1.1-0.6-0.2-0.6-0.2-2-0.1-0.7-0.6-0.9-1.9-1.7-1.9-2.3-1.2-0.5-1.5 0.3-0.8 0.9 0.3 0.8 1 0.8 1.4 0.2 0.4 0.3-0.1 0.6-0.5 0.7-0.9 0.2-1.7-0.1-0.7 0.1-2 0.6-1.2-0.3-1.1-0.7-0.8-0.2-3.3 0.3-1.4 0.5-0.4 0.9 0.9 0.8 3.9 1.2 1.3 0.2 0.4 0.3-0.5 0.6-0.9 0.6-0.8 0.2-1.5-1-0.7-0.1-0.8 0.4-1.3 1.5-0.9 0.3-1.7-0.1-0.9 0.1-0.6 0.3-0.7 1.4 0.1 1.3 10.8 18.9 0.3 0.9 2.2 0.7 0.5 0.2 0.2 0.6-0.5 0.3-0.7-0.1-0.6-0.3 0.3 1.7 2.8 2.7-1.5 0.7-1.6-0.3-2-0.9-1.6-1.1-0.8-1.1-0.7-0.7-0.3-1 0.5-1.4-0.4-1-0.9-0.8-0.9-0.5-0.4-0.5-0.5-1.4-1.2-1.1-1.2-0.9-1-0.8-0.5 0 0.3 1.2 0.6 0.7 0.4 0.8-0.2 1.8-0.6 1.1-1.8 1.9-0.4 0.6-0.2 2.6-0.2 0.5-0.9 0.4-1-0.7-0.9-0.2-1.3 0.2-0.8 0.5-0.4 0.9-0.1 1.4 0 1.4 0.3 1.3 0.6 1.1 0.9 0.4 1 0.6-0.4 1.5-1.4 2.4 1.1 1.3 4.8 0.6 1.7 1.5 1.5-0.6 1 0.4 0.6 1.1 0.2 1.6 0.6 1.2 1.3 0 2.1-0.9 2.8 0.1 0.4-0.4-0.8-1.4-1.3-0.9-2.9-0.9-1.2-1 1.6-4.2 1.1-1.6 1.7-0.4 1 0.6 0.4 1.8 1 0.4 0.4 0.5 0.5 1 0.3 1.2 0.1 1 0.8 2.3 1.7 1.8 1.6 0.4 1.2-2.5 0.9 0.5 1.4 1.2-0.3 0.6-0.3 0.3-1.4 0.5-0.2 0.6 0.6 0.2 1.1 2.7 3 1 6.7 0.3 1.4 0.5 2.7 1.4 1.5 0.3 2.8-0.6 0.8 0 0.8 0.6 0 1.3 0.2 0.9 0.9 1.8 0.4 1.2-0.5 1.2-5.2 5.3-1.8 2.4 0 0.5 0.6 0.9 0.6 0.5 0.8 0.4 0.7 0.3 0.6-0.1 3.5-2.5 0.9 0.1 0.7 0.6 0.7 0.3 1-1 0.4 0.7 0 0.7-0.3 0.5-0.7 0.3 1.5 2.3 1.6 0.9 2 0.4 2.5 0.9 1.2 1.5 0.9 0.3 0.6-0.3 0.8-1.5 7.6-0.7 1.3-0.4 1.1-0.6 0.9-1.1 1.3 0 0.9-0.4 1.5-1.2 0.9-0.3 0.8 0.1 2.6 0.8 2.2-0.7 1.6 0.9-1 1.8-1 1.5-1 0.9-0.5-0.8-0.7-0.2-0.7 0.4-0.8 0.6-0.9-0.7-1-0.5-1-0.1-0.9 0.7 2.3 2 1.3 1.9 0.4 2.4-0.2 3.2-0.3 1.4-0.4 1.2-0.7 1.1-2.8 3-0.5 1-0.2 1.7 3.8 4.2 0.8 0.4-0.2 2.5 0.4 1.4 2.1 3-2.2 2.9-1.3 1-4.6 2.4-1.5 0.4-2.8 0.3-1.3 0.8-0.7 1.1-1.5 4.5-1.1 1.7-8 8.6-2.1 4.6-0.9 1.1-3.4 2-0.5 0.6-0.3 0.8 0.3 0.4 0.6 0.3 0.3 0.5-0.3 1.3-1.7 2-2.1 0.8-2.3 0.4-2.1 0.9-2.5 1.6-4.2 3.9-2.2 0.5-0.9 1.8-1.2 4.6-1.4 2.1 0.2 0-1.1 0.4-2.7 0.6-1.1 0-1.1-0.7-1.4-1.7-1-2.1-0.8-0.5-0.8-0.1-0.9 0.1-1.7 0.7-1 0-0.6-0.4-2.4-1.6-1.5-0.8-1.4-0.3-1.7-1.3-2.7-2.5-1.7-1.3-0.6-0.3-1-0.2-0.6-0.4-1.8-2.5-4.3-8.2-5.1-7.7-1.5-3.7-0.2-1.1-0.1-1.8 0.1-2.3 0.3-0.7 0.6-0.8 1-0.5 0.8-0.3 2.4-0.4 0.9-0.3 0.8-0.5 2.1-2.2 3.1-2.5 0.6-1.4-1.9-2.8-4.9-0.8-0.9-0.3-1.1-0.7-1.3-1.2-4-4.2-1.4-2.1-1.1-1.9-0.6-0.8-0.8-0.7-3.4-1.9-1-1.2-1.1-2.7-1.3-4.9-1.2-3.1-0.1-0.6 0.1-1.7 0.4-1.8 1.1-2.9 0.1-0.8-0.3-1.1-0.7-1.1-3.1-1.7-1-1.1-0.3-1.6 0.2-2.7-0.1-2.5-0.2-1.2-0.5-1.1-0.8-1-1.1-0.5-1.6 0-1.2 0.3-3-0.4-5-3.1-2.6 0.9-0.8 0.6-1.2 0.7-1 0.7-2.4 0.8-1.4 0.1-2.2-0.5-1.9-0.9-4.5-3.1-0.9-0.7-1.7-0.7-1.7 0.3 0.7-2.6 0.3-2-0.4-2.1-3.3-2.4-0.8-1.4-1.2-2.9-0.7-1-1.2-1.4-0.3-0.8 0.1-1.6 0.2-0.7 2.1-3.5 0.3-0.8 0.1-1-0.3-1.1-0.7-1.4-0.7-0.9-3.2-2.6-1.1-1.1-2.5-3.2-0.4-0.9-0.1-1.1 0.3-2.7 0.2-1-0.1-1.4-0.5-1-0.6-0.7-0.5-1.1-0.1-1.3 0.6-5.3-0.4-2.6 1-0.8 1.8-0.6 0.5-0.3 0.5-0.9 0.2-1.2 0.2-6.4-0.5-2.8-0.7-2-0.7-1.5-0.5-0.7-0.3-0.9-0.1-1.1 0.3-1.8 0.2-1.1 0.5-1.3-0.1-0.7-1.2-1.7 0-2.4 0.7-1.6 1.8-2.8 0.1-1.2-0.3-1.5-0.8-2.8-0.3-1.4-0.1-1.1 0.9-3.8-0.1-1-0.6-0.9-1.7-0.9-1.1-0.1-1.8 0.1-0.8-0.4-0.7-0.6-1.4-1.6-1.9-2.8-0.4-0.7-0.2-1.5 0.6-1.2 1.4-0.3 2.1-0.2 0.8-0.2 0.8-0.5 0.8-0.7 1-1.2 1.4-1.4 1.4-1.1 0.4-0.5 0.2-0.8 0-0.9-0.9-1.6-0.3-1.3 0.5-2.3 1.4-3.8 1.4-1.1 4.1 0.2 0.8-0.6 0.8-1.2 2.6-10 1.3-3 0.6-1.9 1.8-10.8-0.1-1.8-0.7-1.8-1-0.9-0.9-1.1-0.5-1.1 1.5-6.8 0.3-4.2 0.7-4.1 1.2-0.7 6.4-1 2.2-0.7 1-0.7 1.3-2.3 7.4-17.9 2.4-4.2 1.1-1.6 1.7-1.9 2.2-1.9 4.6-4.9 1.3-1.8 2-4.6 0.6-2.2 0-1.8-1.2-4.9 0.2-2.9 2.1-9 1.4-1.1 1.3 0.3 53.1 26.5 2.1 0.4 1.3-0.3 49.8-25.2z" id="PER573" name="Callao" data-id="PER573" data-name="Callao">
 </path>
 <path d="M881.2 1349.5l-1.7 4.3-2.1 1.4-1.1 0-1.2-0.2-1.1-0.6-0.9-0.8-0.7-1-1.9-4.7-0.7-1.1-0.8-0.6-1.8-0.8-1.5-0.2-1.5-0.1-1.2 0.3-1.9 1.3-1.8 2-0.6 0.8-0.4 1-0.1 1.1-0.3 1.1-0.9 2.3-0.4 1.3-0.2 1.6 0.4 2 0.8 2 0.2 1.1-0.2 2.2-0.8 1.3-2.3 3.2-6.4 7.3-3.9 1.7-1.7 0.6-1.4 0.7-1.1 0.8-0.6 0.7-0.9 1.5-0.8 1.7-1.4 2.2-3.4 4.2-0.3 0.8-0.8 3.9-0.3 1.1-0.5 1.2-1 1.8-1.1 1.5-3.2 3-0.8 1-0.6 1-1.5 4-0.5 0.8-0.6 0.5-1.3 0.7-1 0.4-7 2.8-3.1 1.9-2.9 2.3-0.8 0.8-0.9 1.3-1.3 2.5-0.9 1.4-2.2-2.5-1.2-0.9-3.9-1.7-2.9-2.1-1.6-0.9-1.7-0.4-2.6 0.4-0.4-0.7 0.5-0.9 1.1-1.6 0.4-2-0.3-1.6-0.4-1.7-0.7-8.3-0.4-1.5-1.1-3.3-0.3-2.8-0.3-0.4-1.2-0.5-2.1-2.9-2.8-1.9-0.6-1.1 3-2.2 1.3-1.3 0.9-1.4 0.7-2.6 0.8-1.6 2.1-2.7 0.6-1.4 1.9-7.3 1.1-2-0.6-1.1-0.6-0.7-4.9-3.7-1-2.7-1.5-3.1-0.5-1.7-0.3-1.8 0.2-1.8 0.9-1.5 0.6-0.9 4-3.7 1.8-1 2.7-0.8 0.7-0.4 0.5-0.7 0.2-1 0.2-2.4 0-1-0.6-3.7 0.1-1 0.6-0.9 2.5-2.6 3.7-5.6 1.3-1.3 0.9-0.6 4-1.8 0.8-0.2 2.6 0 1-0.1 1.7-0.6 0.8-0.1 0.8 0.2 0.6 0.4 1 1.2 0.6 0.4 1.2 0 2.7-1.1 0.7-0.7 0.4-0.8 0.1-1.6-0.2-1.1-0.7-2.7 0.1-1.5 0.3-0.9 0.5-1 0.6-0.8 3.5-3.4 2-2.5 0.9-4.8 1.1-17.8 1.7-0.3 1.7 0.7 0.9 0.7 4.5 3.1 1.9 0.9 2.2 0.5 1.4-0.1 2.4-0.8 1-0.7 1.2-0.7 0.8-0.6 2.6-0.9 5 3.1 3 0.4 1.2-0.3 1.6 0 1.1 0.5 0.8 1 0.5 1.1 0.2 1.2 0.1 2.5-0.2 2.7 0.3 1.6 1 1.1 3.1 1.7 0.7 1.1 0.3 1.1-0.1 0.8-1.1 2.9-0.4 1.8-0.1 1.7 0.1 0.6 1.2 3.1 1.3 4.9 1.1 2.7 1 1.2 3.4 1.9 0.8 0.7 0.6 0.8 1.1 1.9 1.4 2.1 4 4.2 1.3 1.2 1.1 0.7 0.9 0.3 4.9 0.8 1.9 2.8-0.6 1.4-3.1 2.5-2.1 2.2-0.8 0.5-0.9 0.3-2.4 0.4-0.8 0.3-1 0.5-0.6 0.8-0.3 0.7-0.1 2.3 0.1 1.8 0.2 1.1z" id="PER574" name="Moquegua" data-id="PER574" data-name="Moquegua">
 </path>
 <path d="M881.2 1349.5l1.5 3.7 5.1 7.7 4.3 8.2 1.8 2.5 0.6 0.4 1 0.2 0.6 0.3 1.7 1.3 2.7 2.5 1.7 1.3 1.4 0.3 1.5 0.8 2.4 1.6 0.6 0.4 1 0 1.7-0.7 0.9-0.1 0.8 0.1 0.8 0.5 1 2.1 1.4 1.7 1.1 0.7 1.1 0 2.7-0.6 1.1-0.4 4 0.6 1.3 0.4 3.2 2.6 1.5 1.6 1.2 1.5 0.9 2.4 0.2 3-0.1 6-10.2 9.9-3.5 2.4-3.6 0.6-3.7-0.5-3.3 0.2-2.5 2.7-0.6 3.5 0.9 2.9 1.3 2.9 0.7 3.5 0.2 2.1 0.4 1.4 1.7 3 0.7 1.6 0.2 1.5-0.3 1.6-4.7 10.9-1.8 2.7-1.4 1.5-3.1 2.8-3.7 4.5-1.4 1.1-1.8 0.7-2.3 0-1.9 0.7-5.6 3.1-1.9 0.6-4.1 0.5-8.4-0.9-4.1 0.3-2 1.1-2-1.8-3.9-2.5-4.9-3.6-2.4-1.5-2.8-1.6-6.8-3.6-3.9-3.9-0.7-1.2-0.8-0.7-1.3-0.3-4.5-4.3-1.4-0.8-2.8-0.9-1-0.9-1-3.2-0.8-1.7-1.1-0.7-1.3-0.5-3.3-2.6-1.6-0.9-4.7-1.5-1.6-0.2-4-4-1.7-1.1-1.3-1.2 0.9-1.4 1.3-2.5 0.9-1.3 0.8-0.8 2.9-2.3 3.1-1.9 7-2.8 1-0.4 1.3-0.7 0.6-0.5 0.5-0.8 1.5-4 0.6-1 0.8-1 3.2-3 1.1-1.5 1-1.8 0.5-1.2 0.3-1.1 0.8-3.9 0.3-0.8 3.4-4.2 1.4-2.2 0.8-1.7 0.9-1.5 0.6-0.7 1.1-0.8 1.4-0.7 1.7-0.6 3.9-1.7 6.4-7.3 2.3-3.2 0.8-1.3 0.2-2.2-0.2-1.1-0.8-2-0.4-2 0.2-1.6 0.4-1.3 0.9-2.3 0.3-1.1 0.1-1.1 0.4-1 0.6-0.8 1.8-2 1.9-1.3 1.2-0.3 1.5 0.1 1.5 0.2 1.8 0.8 0.8 0.6 0.7 1.1 1.9 4.7 0.7 1 0.9 0.8 1.1 0.6 1.2 0.2 1.1 0 2.1-1.4 1.7-4.3z" id="PER575" name="Tacna" data-id="PER575" data-name="Tacna">
 </path>
 <path d="M317.7 674.6l0.4 0.9 0.2 0.8 0.5 2.7 0.8 2 0.1 0.7 0.1 3.9 0.4 1 0.9 0.7 2 1.1 0.8 0.8 2.4 3.2 0.5 1 0 1.3-0.4 0.9-0.2 0.9 0.5 1.3 1.3 1.7 4.4 4.2 1 0.6 3.9 1.2 0.5 1.1 3 2.5 2.5 3.7 0.9 0.8 1 0.5 4.2 1.2 0.5 0.3 0.8 1.5 0.7 0.3 0.9 1.7 1.9 1 3.9 1.4 2.3 1.1 2.1 1.6 1.3 1.3-0.3 2.6-0.5 0.9-0.6 0.7-1.3 0.9-6.1 6.1-0.8 1.2-7.9 18.5-0.1 4.1-1.1 2.6-6 7.2-1.1 1.7-0.6 1.4 0 1.6 0.4 0.9 1.8 2.5 2.5 6 1 3.2 0.1 4.8 0.4 3 0.4 1.1 0.6 0.9 1.2 1 0.7 0.4 2.8 0.9 0.9 0.7 0.4 0.7 0 0.7-0.2 0.8-1.4 3-0.3 0.9-0.4 3.9 0.2 4.4-13.7 5.7-3.5 2.1-0.7 1.7-0.3 3.9-0.2 0.9-0.9 1.8-1.7 2.4-3.9 3.9-2 1.5-8 4.6-2.8 5-2.6 1.7-4 1.6-1.2 0.2-4.9-0.1-1.3-0.2-0.5-0.6-0.1-0.8 0.2-0.8-0.2-1.8-0.6-1.6-0.3-1.6 0.2-1.6 0.6-1.7 0.1-0.8-0.1-0.8-0.5-1-0.8-0.5-2.1-1-0.8-0.6-1.5-1.5-0.8-0.3-0.9 0-2 0.2-1-0.1-1.4-0.4-0.7-0.7-0.1-0.7 0.4-0.8 1.1-1 2-1.3 1.1-1 1-1.4 0.6-1.4 0.4-1.5-0.7-1.6-1.5-1.7-4.5-0.5-0.9 0.2-1 0.4-0.4 0.7-0.1 3.1-0.2 0.9-1.1 3.3-0.2 0.8 0.1 0.8 0.3 1.3-0.1 1.2-0.3 1-0.6 1.5-0.6 0.9-0.7 0.7-2.5 1-2.2 1.7-1.7-2.9 0.2-0.9-1.1-1.9-1.5-1.2-2.1-1.8 0.2-1.3-0.9-1.7-2.6-3.5-0.2-0.8 0.7-0.7-0.2-0.9-0.9-0.9-3-1.9-0.1-1.6 0-2.1-1.5-1.2-0.7-0.8-0.2-1.2-0.6-1.7 0.4-1-0.8-1.1-0.3-1.1-1.6-1.7-3.3-3.1-0.7-1.6-0.5-0.8-0.1-0.8 0.7-0.2 0.5-0.4-0.1-1-0.8-1 0.3-0.5-0.2-1.6-1.3-1.7-0.3-1.9-1.1-2-0.2-0.8-0.8-0.3-0.8-0.5 0-0.9 0.5-0.5-0.1-0.8 0.1-1-0.1-1-0.4-1.2-0.5-0.7-0.1-1.4 0.3-1.6 0.7-1.1 0-2.5-3.1-2.8-2.5-3-0.5-1.9-1.3-1.4-0.7-1.4-0.8-0.8-0.9-1.7-1.2-1.3-0.4-2.5 0.5-2.2-1.5-0.8-0.3-1.3 0.1-1.1-0.8-1.2-0.5-1.9 0.7-1.1 1-1-0.7-1.3-1 0-1.6-1.3-0.4-2.1 0.2-1.4 1.1-1.1-0.8-0.3-0.7-0.9-0.7-0.5-0.4-1-1-0.4-1.1 0.2-0.7 0.4-1.8-2-0.3-1.7-0.7-0.5-0.6-0.7 1.4-1.1 0.9-0.2 0.6-1.6 0.1-1.5-0.7-2-1.5-0.9-1.5-0.4-1.2 0.4-0.6 0.5-0.3 0.6 0.4 0.6 0 1 0.4 1.6-0.1 1-0.9-0.3-1-2.2-1.5-1.7-1.2-1.2 0.1-0.9-0.3-0.4 0.4-0.4 1.2 0.5 1.8 0.5 0.5-0.6 0.4-1 0-1.6-0.7-1.9-0.8-1.2-1.1-0.9-1-0.1-1.5 0.2-0.6-0.5-0.8-1.3 0.1-1.3 1-2.1-0.7-0.7-1.9-0.7-0.1-0.9 0.7 0.2 0.3-0.6 0.1-1.3 1.4-0.3 0.7-0.7 0.4-0.6 0.8-2.7 0.8-6.8 1.7-3.3 3-2.3 11.2-3.8 4.2-2.9 1.9-0.6 2-0.2 2 0 1-0.2 2.5-4.8-0.4-1.4-0.6-1.5-0.2-0.7 0.1-0.9 0.6-1 2.5-3.1 2.8-4.9 0.3-0.8 0.2-2.2 0.3-0.7 1.7-2.7 0.2-0.7 0.2-1.3 0.4-0.9 0.7-0.9 12.1-10.4 1.3-1.5 0.9-1.4 1.2-3.9 0.6-0.9 0.7-0.8 1.3-0.1 1 0.2 0.9 0.3 1.8 0.4 2 0.2 1.2-0.2 1.6-0.5 2.3-1.1 2-0.5 2.8-1.1 1.3-1.1 1.6-0.7-0.4 1.4 0.3 1.5 0.9 1.5 1.3 1.3-0.6 0.8 0 1 0.2 1 0.4 0.9 1.2 1.8 5.6 5.3 2.5 1 1.5 1.5 4.9 7.8 5.6 7 1.5 2.8 0.7 2.2 0 2.9z" id="PER577" name="Ancash" data-id="PER577" data-name="Ancash">
 </path>
 <path d="M264.9 553.5l1.2 1.1 0.4 1.5 1.4 2.3 1 5.5 0.4 1.1 0.7 0.8 0.9 0.6 0.7 0.9 0.6 1.8 1.7 1.1 0.6 0.8-0.3 1.2 0 2.1 0.5 1.1 0.5 0.3 0.9 0.2 0.2 0.8 0 2.8 0.6 2.9 1.5 1.7 2.1 1.2 1.8 1.6 0.5 1.3 0.8 1.5-2.3-0.4-0.8 0-2.6 0.3-1.9 0.2-1.1 0.3-4.2 2.8-0.4 1 0.1 0.8 0.4 1.7 0.2 1.8-0.1 1.9-0.6 2.6-0.9 2.4-0.6 0.6-0.8 0.3-3.1-0.1-1 0.1-4.4 1.8-1 0.2-1-0.3-0.7-0.5-1.1-1.3-0.6-0.4-0.9 0-1.1 0.5-3.5 3.6-3.2 2.5-1 0.5-2.1 0.3-0.9 0.4-1.3 0.2-0.5-1.2-0.2-3-0.1-0.7-0.4-0.4-0.7-0.4-1.7-0.4-1.2-0.5-1.3-1-1.2-1.6-1.5-0.7-3.3 0.5-3.5-0.7-1.8-1.1-2.3-2-3.4-2.2-1.1-0.3-1.4-0.2-2.5 0.1-1.3 0.2-0.9 0.3-1.4 0.8-1.1-0.2-2-1.2-3-1.1-1.3 0.1-1.9 1.2-3.2 1.4-1.3 0.1-2.1-0.1-0.6 0.1-1.5 0.6-1.3 0.8-1.2 1.4-0.5 1.1-0.3 1.4-0.4 0.8-1.1 1.1-1 1.8-0.5 0.1-0.6-0.3-4-3.2-0.5-0.7-0.1-1.3 0.2-0.9 0.7-2.1 0.1-1.4-0.4-1.7-2.3-4-0.3-1.2-0.8-1-1.2-1.3-4.3-3.6-1.8-1.3-2.6-0.6-1.2-0.1-5.1-1.9-3.3-0.9-1.4-0.8-0.6-0.4-0.7-1.4 0.5-2.1 0.7-0.7 0.8-1.2 0.8-1.5 0.7-1.5 0.3-1.9-0.2-1.1-0.2-0.8-1.3-2.2 0.9-12 1-0.1 0.5-0.3 0.5-0.5 0.2-0.5 0.2-1.3-0.2-6.4 0.4-0.8 0.6-0.7 1.4-0.7 2-0.7 1.7-1.3 2.6-3.8 1-0.7 1.4-0.6 0.6-0.5 0.5-0.6 0.2-0.9 0-1.9-0.2-0.9-0.7-0.8-0.7-0.4-3.8-0.9-2.3-1.2-1.9 0-1.8 0.1-1.1-0.6-1.1-1.3-1.5-3.1-1.3-4-0.5-0.9-0.7-1-1.1-0.6-0.9 0-1.6 0.1-0.7-0.6-0.4-0.6-0.4-3.7 0.7-2 0.2-0.8-0.1-0.9-0.3-0.7-1.2-2-0.3-0.7 0-0.9 0.3-0.9 0.7-1.3 0.8-1 1.2-1.1 0.9-0.7 1.3-0.6 1.8-0.7 6.4-1.2 2.7-3 0.7-2.2 0-0.9-0.3-0.7-1.1-0.5-1.1-0.4-0.8-0.7-0.3-1 0-0.9 0.2-0.8 0.5-0.6 4.6-4.3 0.8-1.4 0.2-0.9 0-0.9-0.4-0.7-0.7-0.6-1.1-0.5-1.9-0.5-1.5-0.8-1-0.8-0.7-0.4-0.9 0-0.9 0.4-0.9 0.9-1.6 1.3-0.5-0.7-0.3-1-0.5-0.4-0.8-0.3-1.3 0.4-1.6 0.8-0.8 0.1-1.1-1 1.4-0.8 2.8-2.9 1.7-1.3 0.8-0.3 0.8-1.2-0.7-3.2-1.1-1.1-0.9-0.8-0.5-0.9-0.3-1 0-1.9-0.2-0.8-1.1-2.3-0.2-0.9-0.1-1.4 1.2-5.1 0.6-4.5 0-1.5-0.2-0.9-0.5-1.1-0.2-0.9 0.2-1.4 1.2-2.6 1.1-0.5 1.4 0.1 1.6 0.5 1.1 0 0.3-1.6-0.6-10.9-0.5-0.9-0.7-0.5-0.8-0.4-0.6-0.7-0.2-1.1 0.1-1.9 0-1.3-0.2-1.1-1.9-4.6 0.1-1 0.6-1.4 2.1-2.2 1.4-1.2 0.8-1.2 1.4-3 0.9-0.8 1.7-0.4 0.4-1.3 0.4-1.9 0.5-0.9 2-2.1 2-0.1 1.3 0.3 2.7 0.9 1.4 0.3 0.8 0 1.2-0.3 0.9 0.1 0.8 0.4 0.9 0.6 1.4 1.4 2.3-1.9 2-2.1 0.6-1.7 0.9-3.8 0.8-1.4 1.6-0.4 2.1 0 1.8-0.4 0.8-1.5-0.4-1.9-1.7-3.6-0.1-2.2 0.9-2.1 1.5-2.1 3.6-3.3 3.3-1.9 7.2-2.9 0.8-0.5 1.1 2.7 3 5.8 1.5 7.2 1 3.1 1.8 2.5 1.1 2.2 0.3 0.9 0.6 4.4 0 1.3-0.1 1.1-0.7 1.5-0.6 0.8-1.4 1-0.4 0.6-2 5.9-0.4 2.1-0.1 1.4 0.1 1.3 0.3 1.4 1.6 4.2 0.3 2.7 1.1 8.1-0.5 7.1 0.1 1.4 0.4 1.4-0.1 0.5-1 2.1-2.1 2.3-4 6-0.1 0.2-1.8 2.9-0.6 0.7-1.1 0.4-0.4 0.6 0.1 0.6 0.3 0.5 1.3 0.6 0 0.9-0.9 1.3-1.1 0.7-0.7 0.6-0.5 0.9-0.5 1.6-0.1 1 0.2 2.3 0.6 1.2 1.6 2 1.3 2.4 1.3 3 0.7 0.9 5.2 5.4 0.6 1 0.3 1.3 0.5 0.8 1.7 1.1 1 0.2 2.3 0 1 0.5 1.7 1.8 3.6 2.2 2.1 1.4 0.7 1.4 1.2 3.2 2.8 4.3 3.2 7 2 2.1 4.5 2.3 2.3 2.1 3.8 1.4 1.1 0.7 0.4 0.7 0.9 2.1 0 0.5 2.2 1.9 0.9 1.4 3.2 8.6 4.3 7.2 0.7 1.6 0.3 1.6 0.1 3.6-0.3 0.5-1.1 0.5-0.2 0.8 0.2 0.4 1.1 1.1 0.3 0.7-0.1 1.5-0.5 1.7-0.2 1.7 0.9 2.1 0.2 2 0.2 0.9 1 1z" id="PER578" name="Cajamarca" data-id="PER578" data-name="Cajamarca">
 </path>
 <path d="M425.7 677.3l-1.7 6.2 0.4 3.1 1.1 2.3 3.5 5.2 0.6 1.5 0.3 1.3 1.2 14 0.3 1.1 0.4 0.4 2.6 1.2 0.8 0.7 0.8 1 1.6 3 0.2 0.8 0.3 1.7 0.1 1-0.2 1.9-0.1 1.2 0.1 1.4 0.6 2.7 0.5 1.4 0.6 1 0.6 0.5 2 1.4 1.2 1.1 0.5 0.6 3.7 7.3 0.9 1.1 1.1 0.8 2.6 0.1 1.9-0.4 2-1 0.7-0.4 9.6-8 0.8-0.4 2.1-0.3 1.8-0.5 3.6-1.4 1.6-0.8 1.1-0.9 1.7-2.7 2.4-2.5 0.6-0.9 1.2-3 0.7-1.5 1.9-2.6 0.4-0.7 0.9-2.5 1.1-1.9 1.9-2.4 4.8-7.4 2.7-3.3 3.8-3.8 1.9-1.4 4-1.9 0.8-0.5 6.9-5.8 1.3-0.9 5.6-2.2 2.3-0.7 1.8-0.2 7.3 0.5 1.7 0.5 1.4 0.9 1.1 1.1 0.8 1.4 0.5 1.6 0.4 1.8 0.1 1.6-0.2 0.9-0.4 0.8-1.5 1.1-4.4 2.2-0.8 0.5-0.5 0.6-0.6 1.6-0.4 7.9-0.6 2.7-2.1 4.5-1.2 2.1-0.6 1.6-0.2 0.9 0.1 1 0.8 3.5 0.1 0.9-0.1 2-0.9 3.7-2.2 6.7-0.8 3.5 0 1.4 0.2 1 1.2 3.1 1.2 1.9 1.3 1.6 10.4 15.3-17.8 8.3-16.7 3-0.6 0-9.2-1.4-1.5 0-1.1 0.1-15.1 7.3-2.3 0.7-6.2 1.3-5 0.5-9.5-0.4-5.8 0.6-1.4 0.3-2 0.7-1.2 0.7-2.5 1.6-1.7 1.5-0.8 1.4-0.7 2-0.7 3.7-0.1 2.1 0.1 1.8 2.9 14.4 1.8 4.2-0.8 1.3-2.1 1.5-11 4.9-3.3-2.4-3.7-1.4-15.3-1.1-0.7-0.1-1.3-0.8-1.6-2.9-0.9-1.1-0.6-0.6-1.4-0.8-3.1-1.4-3.3-0.5-9.6-0.1-4.4 1-0.9 0.5-0.9 0.8-5.1 7.2-2 1.7-5.4 3.5-1.9-0.3-3-1.9-0.6-1.6-0.3-1.9-0.4-0.9-0.8-0.7-1.7-0.5-2.3 0-0.9-0.1-0.8-0.4-0.8-0.9-0.4-0.8-0.4-2.6-0.2-4.4 0.4-3.9 0.3-0.9 1.4-3 0.2-0.8 0-0.7-0.4-0.7-0.9-0.7-2.8-0.9-0.7-0.4-1.2-1-0.6-0.9-0.4-1.1-0.4-3-0.1-4.8-1-3.2-2.5-6-1.8-2.5-0.4-0.9 0-1.6 0.6-1.4 1.1-1.7 6-7.2 1.1-2.6 0.1-4.1 7.9-18.5 0.8-1.2 6.1-6.1 1.3-0.9 0.6-0.7 0.5-0.9 0.3-2.6-1.3-1.3-2.1-1.6-2.3-1.1-3.9-1.4-1.9-1-0.9-1.7-0.7-0.3-0.8-1.5-0.5-0.3-4.2-1.2-1-0.5-0.9-0.8-2.5-3.7-3-2.5-0.5-1.1-3.9-1.2-1-0.6-4.4-4.2-1.3-1.7-0.5-1.3 0.2-0.9 0.4-0.9 0-1.3-0.5-1-2.4-3.2-0.8-0.8-2-1.1-0.9-0.7-0.4-1-0.1-3.9-0.1-0.7-0.8-2-0.5-2.7-0.2-0.8-0.4-0.9 4.9-0.3 7.4 0.2 1.8-0.3 1.3-0.4 1.2-0.7 3.7-1.3 1.4-0.1 0.9 0.1 0.7 0.9 0.8 2 0.7 3.7 0.4 0.9 0.6 0.7 1 0.1 1-0.2 1.3-0.1 3.3 1 1.2-0.2 0.9-0.4 1.4-2.1 0.8-1.8 6.7-1.4 2.6 0.3 2.7 0.8 6.7 1.5 1.8 0.6 11 1.8 2.9-0.1 2.4-0.6 0.8-0.8 0.6-0.8 0.7-1.7 0.4-3.6-0.2-5.8 0.3-1.8 0.5-0.9 0.7-0.8 1.3-0.7 1 0 0.7 0.5 1.4 2.5 0.4 1.6 0 1.8 0.2 0.8 0.5 0.7 1.7 1.5 0.3 0.7 0.3 1.3 0.4 0.8 0.6 0.8 1.1 0.9 1 1.6 0.8 3.2 1.2 3.4 0.4 3.2 1.1 1.7 1.1 0.9 0.8 0.3 2.2 0.1 2.2-1.6 1-1.3 0.6-1.3 2.6-4.6 1.2-1.4 0.7-0.8 3.9-2.3z" id="PER579" name="Huánuco" data-id="PER579" data-name="Huánuco">
 </path>
 <path d="M157.9 553.3l-0.9 12 1.3 2.2 0.2 0.8 0.2 1.1-0.3 1.9-0.7 1.5-0.8 1.5-0.8 1.2-0.7 0.7-0.5 2.1 0.7 1.4 0.6 0.4 1.4 0.8 3.3 0.9 5.1 1.9 1.2 0.1 2.6 0.6 1.8 1.3 4.3 3.6 1.2 1.3 0.8 1 0.3 1.2 2.3 4 0.4 1.7-0.1 1.4-0.7 2.1-0.2 0.9 0.1 1.3 0.5 0.7 4 3.2 0.6 0.3 0.5-0.1 1-1.8 1.1-1.1 0.4-0.8 0.3-1.4 0.5-1.1 1.2-1.4 1.3-0.8 1.5-0.6 0.6-0.1 2.1 0.1 1.3-0.1 3.2-1.4 1.9-1.2 1.3-0.1 3 1.1 2 1.2 1.1 0.2 1.4-0.8 0.9-0.3 1.3-0.2 2.5-0.1 1.4 0.2 1.1 0.3 3.4 2.2 2.3 2 1.8 1.1 3.5 0.7 3.3-0.5 1.5 0.7 1.2 1.6 1.3 1 1.2 0.5 1.7 0.4 0.7 0.4 0.4 0.4 0.1 0.7 0.2 3 0.5 1.2 1.3-0.2 0.9-0.4 2.1-0.3 1-0.5 3.2-2.5 3.5-3.6 1.1-0.5 0.9 0 0.6 0.4 1.1 1.3 0.7 0.5 1 0.3 1-0.2 4.4-1.8 1-0.1 3.1 0.1 0.8-0.3 0.6-0.6 0.9-2.4 0.6-2.6 0.1-1.9-0.2-1.8-0.4-1.7-0.1-0.8 0.4-1 4.2-2.8 1.1-0.3 1.9-0.2 2.6-0.3 0.8 0 2.3 0.4-0.8-1.5-0.5-1.3-1.8-1.6-2.1-1.2-1.5-1.7-0.6-2.9 0-2.8-0.2-0.8-0.9-0.2-0.5-0.3-0.5-1.1 0-2.1 0.3-1.2-0.6-0.8-1.7-1.1-0.6-1.8-0.7-0.9-0.9-0.6-0.7-0.8-0.4-1.1-1-5.5-1.4-2.3-0.4-1.5-1.2-1.1 1.5-0.6 3.4-0.6 1.8-0.7 1.2-0.2 1.4-0.1 1.7 0.3 2.4 0.8 1.8 0.1 4.5-0.6 1 1.1 0.8 1.2 1 2 1.9 6 0.8 0.8 4.1 2.9 0.9 0.9 0.6 1.1 0 1.5-0.1 1.2-2.1 4.3 0.2 1.9 0.4 2.5 2.2 5 2 2.7 1.4 1.6 2.2 1.6 0.7 0.8 2 3.4 2.3 2.4 0.7 1.2 0.1 1.5-0.1 1.2-1.7 4.4-0.4 2.1 0 2.6 0.5 3.3 0.4 1.7 0.6 1.6 1.4 3 3.2 4.6 0.5 1.2 0.3 1.1 0.1 2.5-0.3 1.2-0.9 1.7-0.1 0.6 0.9 1.2 1.5 1.4 0.4 0.8 0.3 0.8 0.5 0.9 1 0.7 2 0.6 1.6-0.2 1.1-0.3 1.5-0.8 1.6 0 1.2 0.2 8.5 2.4 2.6 1.3 3.5 1 1.5 0.7 3.6 2.1 0.6 0.5 5 6.1 0.4 1.2 0.4 1.9 1.7 18 0.7 2 1.1 1.5-0.8 1.8-1.4 2.1-0.9 0.4-1.2 0.2-3.3-1-1.3 0.1-1 0.2-1-0.1-0.6-0.7-0.4-0.9-0.7-3.7-0.8-2-0.7-0.9-0.9-0.1-1.4 0.1-3.7 1.3-1.2 0.7-1.3 0.4-1.8 0.3-7.4-0.2-4.9 0.3 0-2.9-0.7-2.2-1.5-2.8-5.6-7-4.9-7.8-1.5-1.5-2.5-1-5.6-5.3-1.2-1.8-0.4-0.9-0.2-1 0-1 0.6-0.8-1.3-1.3-0.9-1.5-0.3-1.5 0.4-1.4-1.6 0.7-1.3 1.1-2.8 1.1-2 0.5-2.3 1.1-1.6 0.5-1.2 0.2-2-0.2-1.8-0.4-0.9-0.3-1-0.2-1.3 0.1-0.7 0.8-0.6 0.9-1.2 3.9-0.9 1.4-1.3 1.5-12.1 10.4-0.7 0.9-0.4 0.9-0.2 1.3-0.2 0.7-1.7 2.7-0.3 0.7-0.2 2.2-0.3 0.8-2.8 4.9-2.5 3.1-0.6 1-0.1 0.9 0.2 0.7 0.6 1.5 0.4 1.4-2.5 4.8-1 0.2-2 0-2 0.2-1.9 0.6-4.2 2.9-11.2 3.8-3 2.3-1.7 3.3-0.8 6.8-0.8 2.7-0.4 0.6-0.7 0.7-1.4 0.3 0-0.4-0.5-2-2.1-4.1-1.2-1.4-1.6-2.2-3.7-5 0.1-1.5 0.6-0.6 0.9-0.7 0.2-2.3-0.3-1.8 0.1-1.2-0.5-2.1-0.7-3.1-2.4-3.3-2.4-3.1-3.1-2.9-1.8-1.4-2.5-0.9-1.1-1-1-1.2 0.4-1 1.2 0.4 1-0.8 0.4-1.6 0-1.7-4.9-7.1-0.1-1.8-1.9-2.6 0.3-1.2-2.6-2.9-8.3-7.2-0.1-2-4.6-3.2-9.2-6.9-4.1-4.6-2.5-3.7-0.9-3.3-3.9-4.4-1.7-1.7 0.4-0.6 1-0.3 0.9-0.9 0.1-1.5-1-1.9-2.8-4.6-5.6-7.8-2.2-2.5-0.1-1.9-0.4-1.5 0-0.8 0.9-0.9 0.3-1-0.9-2.4-0.9-2.1 0.1-1.4-1.4-3.7-2.5-2.8-3.1-3.1-1-1.1 0.4-1.4 2-2.4 13.2-12.9 1.2-0.6 1.2 0 7.4 2.2 2.1 1.8z" id="PER580" name="La Libertad" data-id="PER580" data-name="La Libertad">
 </path>
 <path d="M539.6 859.8l-13.9 0.3-7.5-2.2-3.2-1.5-1.2-0.8-5.7-4.8-4.2-2.5-3.1-1.4-0.8-0.3-1.1-0.2-1.5 0.1-1.3 0.4-1.8 1-0.9 0.7-1.2 1.4-1.1 0.5-12.2 3.1-2.7 1.2-2.8 0.5-7.7 0.1-6.8 1.8-17.5 5.6-18.9 0.4-0.9-0.3-1.1-0.9-1.3-1.9-0.8-0.2-1 0.4-5.2 4.1-2.1 0.7-2 0.5-1.8 0.1-3.3-0.6-2.2-0.7-0.4 0-0.4 0.9-0.2 1.9 0.3 4.2 0.6 3 0 1.2-0.7 3.1-10.1 1.6-1.9 0.1-4.5-0.5 0.1-1.1-0.1-1.1-0.8-2-1.1-1.1-3.7-2.4-0.5-0.6-0.4-1.8 0.3-4.5-0.5-7-1.1-1.8-2.4-2.7-1.6-2.5-0.9-5.1-0.4-1.2-0.7-1.4-2.2-3.7-0.6-1.4-1.4-6.3-0.7-1.5-2-3.3 5.4-3.5 2-1.7 5.1-7.2 0.9-0.8 0.9-0.5 4.4-1 9.6 0.1 3.3 0.5 3.1 1.4 1.4 0.8 0.6 0.6 0.9 1.1 1.6 2.9 1.3 0.8 0.7 0.1 15.3 1.1 3.7 1.4 3.3 2.4 11-4.9 2.1-1.5 0.8-1.3-1.8-4.2-2.9-14.4-0.1-1.8 0.1-2.1 0.7-3.7 0.7-2 0.8-1.4 1.7-1.5 2.5-1.6 1.2-0.7 2-0.7 1.4-0.3 5.8-0.6 9.5 0.4 5-0.5 6.2-1.3 2.3-0.7 15.1-7.3 1.1-0.1 1.5 0 9.2 1.4 0.6 0 16.7-3 17.8-8.3 1.9 2.2 0.9 1.4 1.8 3.8 3.1 8.3 0.5 2.7-0.3 3.1 0 2.8 1.2 3.7 3.8 6.8 1 2.3 0.1 2-1 11.7 0 1.2 0.3 1.3 2.5 6.2 0.6 1.2 1.5 3.3 1 3.8 0.6 0.8 0.9 0.5 5.6 2.1 1.2 0.7 0.9 0.7 0.7 0.9 0.4 1 0 1.1-0.5 0.8-0.9 0.5-3.5 1.1-3.6 2-1.3 1-3.3 3.4-1.7 1.5-4.5 4.7-4.2 3.6-3.4 1.8z" id="PER581" name="Pasco" data-id="PER581" data-name="Pasco">
 </path>
 <path d="M425.7 677.3l-3.9 2.3-0.7 0.8-1.2 1.4-2.6 4.6-0.6 1.3-1 1.3-2.2 1.6-2.2-0.1-0.8-0.3-1.1-0.9-1.1-1.7-0.4-3.2-1.2-3.4-0.8-3.2-1-1.6-1.1-0.9-0.6-0.8-0.4-0.8-0.3-1.3-0.3-0.7-1.7-1.5-0.5-0.7-0.2-0.8 0-1.8-0.4-1.6-1.4-2.5-0.7-0.5-1 0-1.3 0.7-0.7 0.8-0.5 0.9-0.3 1.8 0.2 5.8-0.4 3.6-0.7 1.7-0.6 0.8-0.8 0.8-2.4 0.6-2.9 0.1-11-1.8-1.8-0.6-6.7-1.5-2.7-0.8-2.6-0.3-6.7 1.4-1.1-1.5-0.7-2-1.7-18-0.4-1.9-0.4-1.2-5-6.1-0.6-0.5-3.6-2.1-1.5-0.7-3.5-1-2.6-1.3-8.5-2.4-1.2-0.2-1.6 0-1.5 0.8-1.1 0.3-1.6 0.2-2-0.6-1-0.7-0.5-0.9-0.3-0.8-0.4-0.8-1.5-1.4-0.9-1.2 0.1-0.6 0.9-1.7 0.3-1.2-0.1-2.5-0.3-1.1-0.5-1.2-3.2-4.6-1.4-3-0.6-1.6-0.4-1.7-0.5-3.3 0-2.6 0.4-2.1 1.7-4.4 0.1-1.2-0.1-1.5-0.7-1.2-2.3-2.4-2-3.4-0.7-0.8-2.2-1.6-1.4-1.6-2-2.7-2.2-5-0.4-2.5-0.2-1.9 2.1-4.3 0.1-1.2 0-1.5-0.6-1.1-0.9-0.9-4.1-2.9-0.8-0.8-1.9-6-1-2-0.8-1.2-1-1.1-1.3-0.9-0.7-0.8-0.6-1-0.4-1.3-0.1-1.7 0.3-2.5 2.2-7 0.9-7.7 0-4.5 0.5-2.7 0.6-1.3 0.6-0.9 2.1-1.2 1.5 0.2 2.2 1.1 2.3 1.4 1.1 0.5 1.3 0.4 1.4 0.1 4.2-0.4 1.6 0 2.2 0.3 1.3 0 5.4-1.4 1.5-0.8 1.3-1.2 1-2 0.6-1.5 0.6-2.4 0.5-1.3 1-1.3 1.5-1.6 7-5.9 2-2.6-0.1-2.6-2-6-0.5-1.6-0.9-2-2-3.2-1.7-2-1.4-1.1-2.6-1.3-4.1-1.7-13.3-3.6-2.2-1.2-1.2-1.2-1.9-2.6-2.1-4.9-7.5-13.9-0.7-3.4 1.4-2.3 0.4-1.1 0.2-1.8-0.1-1.4-1.3-7.6 0-1.1 0.3-1 0.5-1.4 2.2-3.3 3-2.5 1.7 2 3.5 2.6 2.1 1.2 9.2 3.6 5.1 2.7 3 2.6 0.7 1 1.9 2.1 4.1 3.5 3.1 1.6 2.3 0.5 16.3 0.8 2.7 0.8 1.8 0.9 2.1 1.3 4 3 2.2 2.7 1.3 2.4 2.5 8 1.9 3.6 2.5 2.7 2.3 1.6 1.5 0.6 2.2 0.8 1.6 0.1 1.5-0.1 2.3-0.5 2.2-1.1 11.5-8.1 2.4-0.8 1.3 0.1 1.7 0.4 1.3 0.7 1.1 0.8 1.8 2.1 1.9 2.7 6.2 6.4 1.4 1.1 1.6 0.8 2.9 1 1.7 0.2 1.6-0.1 3.2-0.7 7.2-0.5 5.2 0.3 9.7 2 4.3 1.1 4.9 1.9 2.4 1.5 5.4 5.4 0.6 0.9 1.6 2.8 0.5 1.1 0.3 1 0.2 2-2.3 22.8 0.1 3 0 0.8-1.5 6.4-0.4 1-0.5 1-4.1 6-1.5 3.2-0.7 1-0.8 0.7-1.1 0.5-1.2 0.2-1.2-0.1-1-0.6-0.9-0.8-6.8-8.6-2-1.6-2.4-1.6-1.6-0.7-3-0.8-1.9-0.3-2.2 0-1.7 0.2-1.6 0.5-1.1 0.5-1.6 1.3-2.5 3.8-4 8.5-1.3 4.3 0 1.3 0.7 2.1 0.6 1.3 0.5 1.7 0.2 2.8-1.1 17.4 0.6 4.6 0.9 4 1.7 5.2 19.2 40.8 2.6 8 0.3 2.8 0 1.9-0.4 1.4-0.5 1.2-0.7 1.1-7.5 9.1-0.6 1.2-0.5 1.5-0.7 4-0.7 4.4-2.2 7.6z" id="PER582" name="San Martín" data-id="PER582" data-name="San Martín">
 </path>
 <path d="M581 594.5l-2.7 1.2 0.7 1.4 3.1 1.8 10.3 10.8 2.2 1.5 2.5 1.1 3 0.9 2.3 1.9 0.8 3.2-0.9 3.1-2.5 1.6-2.7-1-1.2 0-0.1 1.4 0.9 3.9 0.5 1.1 2.4 1.8 3.3 1.3 3 1.6 1.3 2.6 0.6 1.8 2.5 3.5 0.9 1.9 0 1.5-0.4 3 0.2 1.5 1 1.8 2.3 3 0.7 2.1 0.4 3.3 0.5 1.5 1.2 1.1 6.2 3.5 0.9 0.7 1.3 1.7 0.8 0.7 0.7 0.3 1.7 0.2 0.7 0.3 1.1 1.2 0.6 1.4 0 1.6-0.7 3.6 0 1.5 0.6 1.3 3.3 4.4 1.4 1.4 1.7 0.9 4.6 0.9 1.5 0.8 1.3 1.4 0.9 1.5 1.4 3.4 6.1 8.9 1.2 1 2.9 1.9 1 1.1 2.2 3.3 0.5 1.3 0.8 6.7-0.3 2.4-0.7 1.5-0.8 1-3.6 2.9 0 2.2-0.5 1-1.1 0.6-1.3 0.4-1.1 0.1-0.9 0.6-0.9 1.3-1.3 2.5-1.8 2.5-4.2 4.2-1.7 2.7 31.7 0.1 9.6 2 1.1 0.8 0.5 0.1 1.2-0.6 1.6 0.3 3.2 1 3.2 1.6 1.5 0.5 3.6 0.4 4.7-0.4 1.7 0.4 1.5 0.8 2.2 1.9 1.4 1 0.8 0.1 0.9-0.2 0.8 0.1 0.5 0.6 0.1 0.8-0.1 2.4 0.2 1.6 0.7 1.4 2.2 2.5 0.4 1.5-0.2 1.5-1 3 1 3 5.5 3.5 1.7 3.2 0.2 0.9 0.6 1.7 0.2 0.8-0.2 1-1.2 1.5-0.4 0.8-0.2 1.7 0.2 1.4-0.1 1.4-0.9 1.6 32.4 0.1 14.1 0 17 0 1.4-0.3 0.8-0.6 0.7-1.1 1.2-0.1 0.8 0.3 1.2 0.8 1.1 0 1.5-0.8 2.8-2.2 3.9-1.3 1-1.6 0.7-1.8 1-1.8 1.4-1 5.2-2.3 4.9-1.3 1.5-1.1 0.6-1 0.9-2 0.7-0.9 0.9-0.8 2-1.3 0.9-0.7 2.3-3.3 1.3-1.5 3.9-2.1 1.6-1.3 3-3 1.6-1.3 5.2-2.9 1.5-1.5 2.8-3.4 1.6-1.4 1.5-0.8 1.6-0.3 3.3-0.4 0.1 1.1-0.9 1.6-0.2 1.3-0.4 1-1.5 0.7 0.5 1.1-1 0.3-0.6 0.8-0.2 1 1.1 1.9-0.7 0.2-1.5-0.3-2.1 0-0.4 0.1 0.7 1.5 0.6 2.6 0.5 1.5 0.9 1.2 2.3 1.8 1 1.2 0.5 1.6-0.1 1.5-0.7 1.4-1.2 1.8-0.2 1-0.4 0.5-0.4 0-0.8-0.5-0.4 0-1.6 1.1-0.6 0.7-0.5 0.8-0.7 3.2 0 8.4-10.5 7.7-2.5 2.4-1.2 1.5-1.1 3.6-0.4 1.8-0.7 11.1-0.7 2.7-1 2.6-2.4 3.8-7.6 9.1-1.9 1.5-1.4 0.8-4.9 4-4 2.6-4.5 3.8-3.1 1.9-1.6 0.6-6.8 2.1-35 18.2-0.8 0.3-1.8 0.4-11 0.4-2-0.4-0.6-0.4-3.2-2.5-1.4-0.6-1.7-0.4-2.9-0.2-1.4 0.5-0.8 0.9-0.1 0.8 0.1 0.9 4.3 5.4 0.7 1.4-0.1 1-0.2 1.2-5.9 10.5-0.8 2-0.5 1.7-0.3 2.3 0 1.9-1.3-0.5-1.8-0.2-2 0.7-0.9 0-0.9-0.5-1.4-0.9-0.7-0.2-0.7 0.4-5.5 1.5-2.8 1.2-1.5 1.1-2.9 2.6-0.7 0.5-2 0.8-1.4 1-0.6 0.5-1.5 1-2.7 0.4-3.4-0.7-1.8-0.8-1.9-1.4-0.7-0.3-0.9 0-0.6-0.4-0.5-0.7-0.2-0.9-0.4-0.8-0.8-0.3-1.5 0.1-1.6 1-0.7 0.3-0.9 0.1-0.8-0.2-2.6 0.2-1.1-0.3-1.9-1.7-0.7-0.4-3.1-0.9-2.1-1.6-0.3-0.8-0.2-1.6-0.4-0.7-1-1.1-0.5-0.7-0.8-2.6-0.4-0.7-0.8-0.6-0.9 0.3-0.6 0.5-2.9 4-1.2 1.1-2.6 0.9-3 0.9-10.3 1.4-5.6-0.1-2.1 0.3-3.5 1.2-2.3-0.5-1.6-1.1-1.8-2.1-1.2-2.3-1.6-4.9-0.2-1.7 1.7-10.6 0-3-0.1-0.5-2.7-5.7-2.8-4.9-3-3.7-1.1-1.1-1.3-1-1.6-0.6-3.7-0.8-1.7-0.6-1.7-0.8-1.2-0.2-1 0.9-3 5.4-6 8.4-1 1-1.1 0.9-1.2 0.6-1.1 0.4-2.4 0-3.6-0.5-1.1 0.2-1.2 0.3-2.5 0.4-1.2 0-1.2 0.1-4.2 1.2-1.5 0.8-1.3 0.3-1.7 0.2-4.5-0.2-1.4 0.2-1.2 0.6-1.2 0.7-1.5 0.8-3.2 0.9-2.3-0.2-1.5-0.5-1.2-0.8-2.1-3.2-0.4-1.1-0.8-2.8-1.5-7.7 3.4-1.8 4.2-3.6 4.5-4.7 1.7-1.5 3.3-3.4 1.3-1 3.6-2 3.5-1.1 0.9-0.5 0.5-0.8 0-1.1-0.4-1-0.7-0.9-0.9-0.7-1.2-0.7-5.6-2.1-0.9-0.5-0.6-0.8-1-3.8-1.5-3.3-0.6-1.2-2.5-6.2-0.3-1.3 0-1.2 1-11.7-0.1-2-1-2.3-3.8-6.8-1.2-3.7 0-2.8 0.3-3.1-0.5-2.7-3.1-8.3-1.8-3.8-0.9-1.4-1.9-2.2-10.4-15.3-1.3-1.6-1.2-1.9-1.2-3.1-0.2-1 0-1.4 0.8-3.5 2.2-6.7 0.9-3.7 0.1-2-0.1-0.9-0.8-3.5-0.1-1 0.2-0.9 0.6-1.6 1.2-2.1 2.1-4.5 0.6-2.7 0.4-7.9 0.6-1.6 0.5-0.6 0.8-0.5 4.4-2.2 1.5-1.1 0.4-0.8 0.2-0.9-0.1-1.6-0.4-1.8-0.5-1.6-0.8-1.4-1.1-1.1-1.4-0.9-1.7-0.5-7.3-0.5-1.8 0.2-2.3 0.7-5.6 2.2-1.3 0.9-6.9 5.8-0.8 0.5-4 1.9-1.9 1.4-3.8 3.8-2.7 3.3-4.8 7.4-1.9 2.4-1.1 1.9-0.9 2.5-0.4 0.7-1.9 2.6-0.7 1.5-1.2 3-0.6 0.9-2.4 2.5-1.7 2.7-1.1 0.9-1.6 0.8-3.6 1.4-1.8 0.5-2.1 0.3-0.8 0.4-9.6 8-0.7 0.4-2 1-1.9 0.4-2.6-0.1-1.1-0.8-0.9-1.1-3.7-7.3-0.5-0.6-1.2-1.1-2-1.4-0.6-0.5-0.6-1-0.5-1.4-0.6-2.7-0.1-1.4 0.1-1.2 0.2-1.9-0.1-1-0.3-1.7-0.2-0.8-1.6-3-0.8-1-0.8-0.7-2.6-1.2-0.4-0.4-0.3-1.1-1.2-14-0.3-1.3-0.6-1.5-3.5-5.2-1.1-2.3-0.4-3.1 8-3.8 3.2-2.7 2.4-2.6 2.5-2.2 5.4-3.6 1.5-1.4 1.2-1.4 0.8-1.3 1.2-1.2 1.4-0.6 1.6-0.1 1.3 0.3 1.1 0.6 1 0.6 5.8 5 1.2 0.6 1.6 0.7 1.8-0.1 1-0.7 0.3-1.1-0.2-1.2-0.6-1-4.1-4.9-1.4-2-0.5-1.1-0.8-3 0-1.7 0.2-1.4 0.8-1.5 1.1-1 1.5-1.1 1.1-0.4 1-0.1 0.9 0.1 1.9-0.2 0.7-0.6 0.7-1 0.4-1 0.2-1.3 0.4-1.3 0.7-1.5 1.1-1 0.7-0.1 1 0.4 1.3 0.7 9.9 0 3.8-0.9 2-0.8 1.6-0.8 4.5-3.1 2.6-1.3 6.5-2.2 17.9-3.1 2-0.7 5-2.7 1.5-0.9 1-1.1 0.8-1.1 0.4-1.1 0.2-1.4 0.3-7-1.2-7.2 0.3-5-0.1-2.9-1.9-10.7-0.8-2.2-0.5-1.1-0.4-1.2 0-1.5 0.7-1.8 0.9-1 1.1-0.5 1.2-0.1 3.1 0.5 7.5 4.6 3.7 1.2 5.5 0.1 2 0.3 4 1 12.9 4.8 3.6 1.8 1 0.6 2 1.7z" id="PER583" name="Ucayali" data-id="PER583" data-name="Ucayali">
 </path>
 <path d="M292.6 424.2l-3 2.5-2.2 3.3-0.5 1.4-0.3 1 0 1.1 1.3 7.6 0.1 1.4-0.2 1.8-0.4 1.1-1.4 2.3 0.7 3.4 7.5 13.9 2.1 4.9 1.9 2.6 1.2 1.2 2.2 1.2 13.3 3.6 4.1 1.7 2.6 1.3 1.4 1.1 1.7 2 2 3.2 0.9 2 0.5 1.6 2 6 0.1 2.6-2 2.6-7 5.9-1.5 1.6-1 1.3-0.5 1.3-0.6 2.4-0.6 1.5-1 2-1.3 1.2-1.5 0.8-5.4 1.4-1.3 0-2.2-0.3-1.6 0-4.2 0.4-1.4-0.1-1.3-0.4-1.1-0.5-2.3-1.4-2.2-1.1-1.5-0.2-2.1 1.2-0.6 0.9-0.6 1.3-0.5 2.7 0 4.5-0.9 7.7-2.2 7-0.3 2.5 0.1 1.7 0.4 1.3 0.6 1 0.7 0.8 1.3 0.9-4.5 0.6-1.8-0.1-2.4-0.8-1.7-0.3-1.4 0.1-1.2 0.2-1.8 0.7-3.4 0.6-1.5 0.6-1-1-0.2-0.9-0.2-2-0.9-2.1 0.2-1.7 0.5-1.7 0.1-1.5-0.3-0.7-1.1-1.1-0.2-0.4 0.2-0.8 1.1-0.5 0.3-0.5-0.1-3.6-0.3-1.6-0.7-1.6-4.3-7.2-3.2-8.6-0.9-1.4-2.2-1.9 0-0.5-0.9-2.1-0.4-0.7-1.1-0.7-3.8-1.4-2.3-2.1-4.5-2.3-2-2.1-3.2-7-2.8-4.3-1.2-3.2-0.7-1.4-2.1-1.4-3.6-2.2-1.7-1.8-1-0.5-2.3 0-1-0.2-1.7-1.1-0.5-0.8-0.3-1.3-0.6-1-5.2-5.4-0.7-0.9-1.3-3-1.3-2.4-1.6-2-0.6-1.2-0.2-2.3 0.1-1 0.5-1.6 0.5-0.9 0.7-0.6 1.1-0.7 0.9-1.3 0-0.9-1.3-0.6-0.3-0.5-0.1-0.6 0.4-0.6 1.1-0.4 0.6-0.7 1.8-2.9 0.1-0.2 4-6 2.1-2.3 1-2.1 0.1-0.5-0.4-1.4-0.1-1.4 0.5-7.1-1.1-8.1-0.3-2.7-1.6-4.2-0.3-1.4-0.1-1.3 0.1-1.4 0.4-2.1 2-5.9 0.4-0.6 1.4-1 0.6-0.8 0.7-1.5 0.1-1.1 0-1.3-0.6-4.4-0.3-0.9-1.1-2.2-1.8-2.5-1-3.1-1.5-7.2-3-5.8-1.1-2.7 2.2-1.4 0.7-1.3 0.1-1.5-0.1-1.6 0.2-1.5 1.2-1.8 1.2-1.5 0.2-1.3-1.9-1.1-1-1.5-0.6-3-0.1-3 0.7-1.6 1.4-1.2 0.7-1.6 0.8-3.4 4.8-10.1 0.8-3.5-0.1-4.7 0.4-1.3 0.8-0.9 0.9-0.2 0.9-0.1 1.1-0.3 1.1-0.6 0.3-0.3 0-0.6 0.8-5.8 0.5-1.5 0.8-1.5 0.5-0.4 1.6-0.9 1.9-1.8 0.5-1.6-1-5.1 0.1-1.4 1.3-0.3 0.6-0.4 0.1-0.8-0.3-1.6-0.1-2.9 0.2-1.5 0.5-1.6 1.5-3.2 1.1-3.5 0.6-3.5 0.1-0.8-0.6-2.1 0.9-1.5 1.3-0.4 1.7 0.2 3.4 1 1 0.8 0.5 1.2 1.1 5.1 0.8 1.4 1.1-0.5 1.2-1 1.4-0.3 1.2-0.6 0.8-1.6-0.2-2.1-1-1.2-1.2-0.9-1-1.4 0.1-1.7 0.9-1.2 2.9-2.1 0.9-1.4 2.5-4.7 1.1-1.2 3.8-3.2 8-10.7 5.8-5 1.5-0.8 3-1.1 1.2 8.7 1.8 6.1 0.3 1.5 0.3 6.6 0.5 2.4 3.9 6.8 2.3 5.5 0.8 3 0.9 7.1 1.6 4.8 0.2 1.2 0 1.1-0.3 1.9-0.1 2.6 0.2 2.1 0.3 1.6 0.7 2 3.5 4.8 0.5 1 0.8 1.8 0.4 1.3 0.6 5.2 0.6 2.1 0.4 1 0.4 1.2-0.1 0.9-1.2 2.3-0.6 3-0.9 13.8 0.2 4.9-0.4 5.7-0.5 2.4-0.6 1.4-1.8 3.3-2.4 5.6-2 3.4-0.5 0.6-1.2 1-1.5 1.6-1.5 1.9-1.3 2.1-1.9 4.8-0.6 2.7-0.4 4.1 0.1 2.2 0.2 1.5 0.3 1.2 0.9 2.3 0.9 4 1.1 11.3 1.8 7.5 5.5 12.4z" id="PER584" name="Amazonas" data-id="PER584" data-name="Amazonas">
 </path>
 <path d="M581 594.5l-2-1.7-1-0.6-3.6-1.8-12.9-4.8-4-1-2-0.3-5.5-0.1-3.7-1.2-7.5-4.6-3.1-0.5-1.2 0.1-1.1 0.5-0.9 1-0.7 1.8 0 1.5 0.4 1.2 0.5 1.1 0.8 2.2 1.9 10.7 0.1 2.9-0.3 5 1.2 7.2-0.3 7-0.2 1.4-0.4 1.1-0.8 1.1-1 1.1-1.5 0.9-5 2.7-2 0.7-17.9 3.1-6.5 2.2-2.6 1.3-4.5 3.1-1.6 0.8-2 0.8-3.8 0.9-9.9 0-1.3-0.7-1-0.4-0.7 0.1-1.1 1-0.7 1.5-0.4 1.3-0.2 1.3-0.4 1-0.7 1-0.7 0.6-1.9 0.2-0.9-0.1-1 0.1-1.1 0.4-1.5 1.1-1.1 1-0.8 1.5-0.2 1.4 0 1.7 0.8 3 0.5 1.1 1.4 2 4.1 4.9 0.6 1 0.2 1.2-0.3 1.1-1 0.7-1.8 0.1-1.6-0.7-1.2-0.6-5.8-5-1-0.6-1.1-0.6-1.3-0.3-1.6 0.1-1.4 0.6-1.2 1.2-0.8 1.3-1.2 1.4-1.5 1.4-5.4 3.6-2.5 2.2-2.4 2.6-3.2 2.7-8 3.8 1.7-6.2 2.2-7.6 0.7-4.4 0.7-4 0.5-1.5 0.6-1.2 7.5-9.1 0.7-1.1 0.5-1.2 0.4-1.4 0-1.9-0.3-2.8-2.6-8-19.2-40.8-1.7-5.2-0.9-4-0.6-4.6 1.1-17.4-0.2-2.8-0.5-1.7-0.6-1.3-0.7-2.1 0-1.3 1.3-4.3 4-8.5 2.5-3.8 1.6-1.3 1.1-0.5 1.6-0.5 1.7-0.2 2.2 0 1.9 0.3 3 0.8 1.6 0.7 2.4 1.6 2 1.6 6.8 8.6 0.9 0.8 1 0.6 1.2 0.1 1.2-0.2 1.1-0.5 0.8-0.7 0.7-1 1.5-3.2 4.1-6 0.5-1 0.4-1 1.5-6.4 0-0.8-0.1-3 2.3-22.8-0.2-2-0.3-1-0.5-1.1-1.6-2.8-0.6-0.9-5.4-5.4-2.4-1.5-4.9-1.9-4.3-1.1-9.7-2-5.2-0.3-7.2 0.5-3.2 0.7-1.6 0.1-1.7-0.2-2.9-1-1.6-0.8-1.4-1.1-6.2-6.4-1.9-2.7-1.8-2.1-1.1-0.8-1.3-0.7-1.7-0.4-1.3-0.1-2.4 0.8-11.5 8.1-2.2 1.1-2.3 0.5-1.5 0.1-1.6-0.1-2.2-0.8-1.5-0.6-2.3-1.6-2.5-2.7-1.9-3.6-2.5-8-1.3-2.4-2.2-2.7-4-3-2.1-1.3-1.8-0.9-2.7-0.8-16.3-0.8-2.3-0.5-3.1-1.6-4.1-3.5-1.9-2.1-0.7-1-3-2.6-5.1-2.7-9.2-3.6-2.1-1.2-3.5-2.6-1.7-2-5.5-12.4-1.8-7.5-1.1-11.3-0.9-4-0.9-2.3-0.3-1.2-0.2-1.5-0.1-2.2 0.4-4.1 0.6-2.7 1.9-4.8 1.3-2.1 1.5-1.9 1.5-1.6 1.2-1 0.5-0.6 2-3.4 2.4-5.6 1.8-3.3 0.6-1.4 0.5-2.4 0.4-5.7-0.2-4.9 0.9-13.8 0.6-3 1.2-2.3 0.1-0.9-0.4-1.2-0.4-1-0.6-2.1-0.6-5.2-0.4-1.3-0.8-1.8-0.5-1-3.5-4.8-0.7-2-0.3-1.6-0.2-2.1 0.1-2.6 0.3-1.9 0-1.1-0.2-1.2-1.6-4.8-0.9-7.1-0.8-3-2.3-5.5-3.9-6.8-0.5-2.4-0.3-6.6-0.3-1.5-1.8-6.1-1.2-8.7 22-7.7 29.8-10.4 37-13 4.7-2.8 28-21.5 14.1-10.8 11.8-13.7 22.9-26.7 4.3-4 1.9-2.3 1-2.7 8.3-32.5 3.3-13.2 0.5-0.7 2.2 2.1 1.1 1.2 0.5 0.8 0.8 0.6 1.8 0.1 3.3-0.4 3.7 0 0.7-0.1 0-0.5-0.6-0.8-0.7-0.6-0.6-0.9-0.2-0.8 0.1-2-3.5-12 0.1-0.9 0.5-1.5 0.1-0.8 0-0.8-0.3-1.4-0.1-0.8 0.3-0.9 1.8-1.1 0.7-0.7 0.2-0.7-0.4-1.9 0.3-3.1-0.3-1.4-0.9-1.4-0.4-0.1-0.7 0.3-0.7-0.4-0.4-0.9-0.3-0.4-3.1-2.4-0.8-0.7-1 0.1-0.8-0.1-0.9-0.6-1.4-1.4-2.3-3.1-1.4-3.3-2.6-9-0.9-1.1-1.2-0.8-1.7-0.5-1-0.5-1.6-1.6-1-0.6-0.8-0.1-1.7 0.1-0.7-0.1-0.7-0.8-0.8-1.6-0.4-1.7 0.5-1.4 1.1-0.4 1.4 0.4 1.5 0.6 1.2 0.2 1.4-0.1 1.1 0 1.1 0.2 5.6 3 2 0.2 2.1-1.4 0.7 0 2.7 0.3 1.2 0 1.1-0.4 1-0.5 1.8-1.2 0.9-1.3 1.2-0.4 1.2-0.9 1-1.2 0.4-1 0.3-1.5 0.7-0.8 1.3-0.3 1.5 0.2 3.6 0.9 1.6 0.9 1.5 1.2 3.1 4.2 1 0.9 0.6 0.2 1.4 0.1 0.7 0.2 0.5 0.4 3.3 3.5 1 0.8 1.7 0.7 2.7 0.6 1.3 0.5 0.8-0.1 0.9-0.7 2-3.1 0.9-0.2 1.6 1.4 1.2 1.6 2.7 5.5-2.2 1.6-0.6 1.1 1.4 0.5 0.8 0 1.5 0.4 2 0.2 0.5 0.3 2 1.8 1.1 0 1.5-0.9 0.9-0.2 0.7 0.6 2.3 3.8 3.3 3.5 2 1.6 4.8 2.9 1 0.8 1 1.2 0.7 1.1 0.4 0.1 1.1 0.1 0.4 0.3 0.4 2.4 3.8 8.2-0.2 0.5-1 0.9-0.4 0.7 0 1.5 0.5 1.1 2.7 3 0.5 0.3 0.8 0.3 1.3 0 0.7 0.3-0.7 1.2 0.5 1 0.8 0.8 0.4 1-0.4 0.9-1.1 0-1.3-0.3-1 0.2-0.5 1 0.4 0.7 2 1.3 0.8 1 1.1 3.6 1.8 2.3 2.1 1.2 4.7 0.8 4.8 1.9 2.1-0.1 1.3-2.3 0.9 0.8 1.8 5.5 0.4 0.7 0.6 0.5 1 0.4 1.7-0.9 0.6-0.8 0.4-0.3 0.6 0.6 0.1 0.7-0.7 1.3 0.1 0.7 1.1 0.6 2.4-0.6 1.4 0.5 0.4 0.7 1.2 3.2 1.4 2.2 0.8 0.8 1.1 0.7 2.1 0.8 1.3 0.2 0.9 0.1 1.3-0.8 1.3-2 1.2-0.4 0.6 1.4 1.1 1.2 1.5 0.8 1.9 0.4 0.8 0.2 1.5 1.1 1.9 0.6 0.4 0.7 0.2 0.8 0.6 1.2 0.2 1.3 1.7 0 0.4 1.2 0.1 1.7 0.2 0.6 0.8 1.1 1.2 0.6-0.4 0.8-1.2 1.5 0.7 1.2 2.9 1.4 0.9 1.4 1.7 1.2 0.6 0.8 0.1 0.8 0.1 1.9 0.9 3.3-0.1 1.5-1.9 1.1-0.7 1.2-0.9 2.6-0.2 3.1 1.6 1.9 5.1 3.2 0.5 1.6 1.2-0.1 1.2 0.2 0.8-0.1 1 0.2 1 0.6 1.9 1.7 0.8 0.1 0.6-0.8 1.2-1.3 1.2-0.1 2.7 0.7 0.5-0.3 0.3-2.1 0.8 0 2.1 2.4 0.8 0.5 1.4 0.8 0.5 0.8-0.6 3 0.5 1.1 1.8 2.2 0.5 1.3-0.2 0.7-0.8 2-0.1 1.1 0.3 1.2 0.5 1.1 1.4 2 0.5 1.5 0.5 1.8 0.6 1.6 1 1-2.3 3.9-0.7 1.7-2.9 2.6-0.7 0.8-0.3 0.6-0.1 0.7 0.2 0.8 0.8 1.2 0.4 0.9 1 0.8 0.3 0.4 0.4 2.4 0.2 0.6 1.3 0.9 3.4 0.8 0.7 0.7 0.5 1.7 1-0.9 1-1.8 0.2-0.9 5.4 3 0.2 0.5 1.2 1 1.3 3.6 0.8 1.3 0.6 0.5 0.7 0 3.4-0.6 1.1-0.4 0.9-0.9 2.3-0.8 1.9-1 1.3 0.4 2.1 1.5 0.2-1 0.4-0.7 0.6-0.6 1-0.4 0.7 1.2 0.3 0.8 0.2 2.1 0.5 0.2 1.3-0.5 1-0.9 2.1-4.3 1-1.3 1.4 0.2 1.4 0.8 3.6 2.9 1.5 0.5 8 1.2 0.8 0.7 0.4 0.9 1 1 1.4 0.7 1.5 0.3 1.7-0.1 3.2-0.8 1.8-0.2 0.7-0.2 0.2-0.6-0.1-1.6 0.5-0.3 2-0.5 0.8 0 5.1 1.1 1.1-0.3 3.5-4 2.2-1.9 2.2-0.9 2.6 0 4.9 0.7 1.4-0.4 1-0.9 0.4-1.8 0.5-0.6 3.8-2.9 2.8-4.3 0.4-0.9 0.8 0 4.6-2.9 1.7-0.8 0.6 0.4-0.1 2.8 0.7 1.3 1.5-0.2 2.6-1.4 1.9 0.4 1.5 0.9 1.5 1.1 1.6 0.9 4.6 1 0.9 0.6 0.4 1.5 0.1 3.3 0.5 1.2 1.3 0.6 0.6-0.9 0.7-3 1.1-1.1 0.8 0.3 1.4 2.4 1.9 2.4 0.3 0.8-0.2 0.7-1.1 1-0.3 0.6 0.9 1.6 2.6-0.5 5.7-2.8 0.6 1.1 1.5-0.3 1.6-0.9 1.2-0.5 0.8 0.2 1 0.7 0.8 0.3 0.9-0.2 1.4-1.1 2.3-1.2 1.5-3.7 1.8-0.8 2.2-0.4 1 0 2 1.2 1 0.2 0.9-0.1 0.7-0.4-0.7-2-0.2-1.8 0.9-1.1 2.2 0 3.4 1.5 1.9 0.3 1.7-0.7 2.4 1.5 4.1 4.3 2.7 1.8 2.9 1.1 1.5 0.3 2 0.3 0.4 0.4 0.2 0.6 0 2.3 0.3 0.1 2.5 2.1 0.5 0.9 0.1 1.8 0.1 1 0.5 0.4 3.3 0 0.6-0.3 0-1.6 0.2-0.8 1.4-0.8 1 0.6 1 1.2 1.2 0.6 1.3 0.1 1.5 0.5 1.4 0.7 1 0.8 0.7 1.7 0.5 0.7 0.9 0.4 0.8-0.1 1.9-0.8 0.9-0.2 1.6 0 1.7 0.2 1 0.8-0.4 1.7-0.3 0.2-1.4 0.5-0.4 0.4 0.1 0.7 0.4 0.7 0.9 0.8 1.9-0.5 1.6-1 1.5-0.5 1.7 0.9 1 1.4 1.1 3.4 0.9 1.4 1.5 0.6 1.3-0.6 1.3-0.4 1.6 1.2 0.2 0.8 0.1 1.5 0.8 0.4 0.6-0.2 1.3-2.2 1.6-1.1 0.8 0.6 1 3.5 0.5 1.1 0.7 1 1.3 0.9-1.7 2.8-12.4 19.4-6.2 9.6-12.4 19.4-21.2 33.1 3.5 0.4 10.7 5.6 0.8 0.6 4.2 1.1 2.1 0 2-0.9 3.1-2.8 1.7-1 2.3-0.3 3 1.1 2.9 2.1 2.6 2.8 1.9 2.6 1 2.8 0.4 2.9 0.9 2.6 2.1 2.1 8 4.1 2.3 1.9 1.6 1.9 1.4 2 2.2 4.4 0.2 2.2-0.8 2.1-1.3 1.9-2.7 1.9-1.1 0.1-1.1-0.2-1-0.7-0.9-1-0.5-0.6-0.3-2-0.9-1.4-1.6-0.6-1.7 0.2-1.5 0.8-1 1.4-1.3 3-1.5 1.3-0.9-1.1-0.6-1.3-0.5-0.7-1.3-0.1-0.8-0.2-3.9-3.1-0.8-1.1-0.1-1.4 0.7-3-0.1-1.6-0.6-1.2-1-1-0.9-0.3-1.5 2.3-1-0.3-1.9-1.8-1.3-0.5-1.2-0.1-1.1 0.2-1.3 0.6-3.2 2.6-1.2 0.4-0.8-0.5-0.2-1.2-0.4-1.1-1.2-0.5-1.3 0.7-0.5 1.3-0.4 1.4-0.6 0.9-3.8-2.2 0-1.2 0.3-1.5-0.1-1.1-1.3-0.3-1.3 0.5-0.7 0.9-0.9 2.4-0.8 0.7-1.4 0-4.9-1.4-0.9 0.1-3.7 1.9-1 0.9-0.3 1.1 0.7 1.9-0.2 0.7-1.3 0.4-1.2 0.6-0.6 1.2-0.4 1.4-0.8 1.3-2.3 2.3-1 1.3-0.8 1.5-1.6 1.7-1.6-1.5-1.3-1.5-0.3 1.7-1.6 1.3-4.1-1.7-1.9 0.8-1.1 1.7-0.7 0.5-1.2-0.2-0.7-0.6-0.8-1.8-0.5-0.5-1.3 0.7-1.2 1.9-1 1.2-2.2-2.5-1.8-0.3-1.9 0.4-1.3 1.1-0.2 1 0.2 0.7 0 0.9-0.8 1-1.2-0.4-0.5 0.3-1 1.2-1.1 0.4-0.6-0.5-0.5-0.8-0.8-0.6-1.1-0.1-3.6 0.5-2.4 0-1.2 0.2-1.1 0.5-0.5 0.7-0.5 1.7-0.4 0.5-0.6-0.1-2-0.4-1.1 0.1-3.6 1.6 0.3-1.7-0.8 0.2-1.6 1.6-1 0.4-0.7 0-0.6-0.3-0.8-0.8-1.3-0.9-0.8 0.2-0.9 0.7-1.5 0.2-0.9-0.3-1.8-0.8-0.9-0.1-0.6 0.3-0.3 1.1-0.3 0.3-0.5 0.2-6.6 0.7-1.3 0.4-2 1.4-3.8 3.7-2.3 0.7-1.3 1.1-0.7 0.5-0.7 0.2-1.5-0.7-0.6 0-0.6 0.6-1.4 2.9-0.9 1.1-1.5 1.3-4.4 2.4-4 3-1.4 0.8-1.5 0.5-1 0.1-2.9-0.5-1 0.3-0.6 1.1-0.4 0.4-3.3 0.9-0.8 0.9-0.6 4.4-0.8 1.2-1.3 0.9-1.7 0.9-1.5 0.2-0.6 0.6-0.1 0.9-0.7 1.7-0.5 0.4-1.1 0.1-1.5 0.2-1.4 0.6-1.3 1-1.9 2.1-2.2 1-1 1-0.3 0.9-0.3 1.4-0.8 0.7-0.7 0.2-4.3 0-1.6-0.4-1.5-0.2-1 0.8-1 1.3-1.4 0.6-3.2 0.6-1.4-0.4-0.6 0.5-0.2 1.4-1.1 0.6-1.6 0.2-1.9 0.5-0.3 1.2 0.5 1.4 0.8 1.1 0.4 1.2 0.4 4.9-0.1 1.2-0.7 1.2-0.9 1-0.6 1.2-0.5 3.4-0.4 1.2-2.3 4.9-0.7 2.6 0.3 2.6 0.7 2.5 0 2.2-1.3 7.4-0.8 2.3-1.1 2.2-8.2 11-2.7 2.5-4.5 10-1.8 2.8-1.2 3-0.1 3.6 0.8 1.9 3.8 4.4 0.4 1.3 0.9 6.4 0.4 1.8 1.8 3.6 0.5 1.9 0 1.7-0.4 1.8-1.3 3.2-1.8 3.3-2.2 2.2-2.7 1.5-3.6 0.9-5.5 0.1-1.7 0.6-2.8 2.5-3.1 1.9-5.4 4.6-6.3 3.7-4 3.1-2.2 1.4-1 0.9-1 2-0.7 1-3.3 2-0.9 1-0.5 1.3-0.1 4.4-2 7.2-1.1 2.2-0.5 2 0.7 1.9 5.5 7.8 0.8 3.4 0.6 1.5 0.3 1.4-1 1.7-1.3 0.7-1.5 0.3-3.1-0.2-2 0.2-1.4 0.4-2.9 1.7-1.7 0.7-1.5-0.1-3.2-1.2-1.7 0 0.3 1.4 2.2 3.9 0.5 2-0.4 1.3-0.6 1.2-0.1 1.7-1 1.8-1 0.4z" id="PER585" name="Loreto" data-id="PER585" data-name="Loreto">
 </path>
 <path d="M582.8 974.9l2.1 3.8 3 3.7 0.6 1 0.4 2.1 0.3 1 0.9 1.1 0.5 0.5 0.3 0.6 0 1.4-0.3 2.2 0.3 1 1.4 0.4 0.8 0.5 0.5 1.2 0.6 2.2 4.3 5.7 1.1 0.9 0.5-1.6 1.3 0.7 3.8 4 0.7 1.1 0.6 2.8 0.6 1.4 1.2 1.9 0.3 1 0.3 3 0.8 2.9 0.9 1.2 0.6 1.4 1.1 4.1 0.4 0.8 1.4 0.6 0.5 0.5 0.2 0.6-0.4 0.2-0.7 1.4 1.6 6.3-1.1 1.8 0 0.6 1.3 0.5 2.7 1.6 1.1 0.9 1.7 3.2 0.4 0.4 2.5 0.9 2.3 2 4.1 5.1 2 3.6 1.5 1.5 0.3 1.1 0.6 0.7 3.8 2.3 2.1 2 0.6 0.9-0.4 0.8-0.7 2.4-0.5 0.8-0.8 0.5-0.9 0-2.7-0.7-1-0.1-1.3 0-1-0.2-1.6-0.6-0.8-0.2-7.5-1.2-2.2-1.1-3.2-3.2-1.3-1-13.7-8.8-1.6-1.4-1-1.7-1-1.2-0.9-0.5-0.9-0.2-0.8 0.3-0.5 0.6-0.3 0.8-0.6 1.7-0.8 1.4-0.1 0.8 0.2 0.7 1 1.7-0.5 1.5-1.7 2.2-0.4 1.2-0.1 1.1 0.3 2.9 0.2 0.7 0.8 1.6 0.2 2.9 0.7 3 0.4 5.6 0.3 1.3 1.1 2.5 0.6 0.9 0.7 0.4 2.1 0.5 0.7 0.4 1.1 1.1 1.7 2.9 1.6 2.2 0.1 1.1-0.5 0.4-0.8 0.4-3.4 0.9 0.4 1.9 8.9 17 0.6 5.4 1 3.5 0.6 1.6 0.6 1.2 1.9 2.6 2.5 4.1 0.4 1.3 0.1 1.1 0 1.3 0.4 3.4 0.1 3.2-0.6 5.6-0.5 5 0.1 1.5 1.9 3.3 1.3 2.4 0.1 1.9-1.9 6.8-0.6 0.9-0.8 0.3-1.8-0.1-0.9 0.1 0.1 0.6 3.1 8.5 1.1 1.3 1.4-0.4 2.2-0.6 2.4-0.1 0.8-0.3 0.7-0.4 0.5-0.6 0.7-1.6 0.5-0.7 1.7-1.6 0.8-1.5 0.6-1.6 0.5-0.5 0.8 0 0.8 0.2 1.9 0.8 1.2 0.3 1.8 0.2 1.9-0.2 1.8-0.4 3.4-1.1 1.7-0.3 1.3-0.2 1.4-0.7 1.1-1.1 0.8-0.3 0.8 0 1.4 0.1 1-0.1 0.8-0.4 0.5-0.6 0.8-1.3 0.5-0.8 2.3 1.2 1.6 1.2 2 1.1 2.5 2 1 0.6 5.1 2.4 0.2 2.6 0.8 2-0.1 0.7-0.6 0.5-0.7 0.4-1.7 0.5-2 0.1-3.6-0.5-1 0.1-0.9 0.2-1.5 0.6-0.7 0.5-1 1-0.8 1.2-0.5 0.9-0.7 3.7 0.6 1.8 1.1 1.4 0.5 1.1 0.2 1-0.1 0.9-0.5 1.3-0.5 3.1-0.4 4.1-0.8 3.3-0.9 1.3-4.6 4.4-0.6 0.8-2.6 5.1-0.9 1.3-1.2 0.9-1.2 0-2.4-0.8-1.8-0.4-1.7-0.2-0.8 0.1-0.8 0.3-0.4 0.7-0.4 2.4 0.2 3.4 0.5 2.4-3.3 0.1-5.8-0.7-1.6-0.5-0.7-0.4-2.4-0.9-9.2 4.2-3.4 0.8-3.6 0.2-8.2 1.3-8.3-0.1-1.4 0.3-1.1 0.5-0.5 0.6-3.2 4.8-0.9 2.5-0.6 0.8-0.8 0.7-6 3.2-1.3 0.1-0.8-0.3-0.3-0.7-0.1-1.6 0.6-3.7-0.1-0.8-0.4-0.6-0.9-1.1-0.2-0.5-0.1-2.3-0.2-0.8-0.7-0.7-0.8 0-0.7 0.3-1.9 1.4-2 1.1-1.8 0.6-1.9 0.4-1.5-0.2-1.7-0.5-1.6-0.8-0.6-0.5-2.7-2.9-0.4-0.7-0.5-1.6-0.1-1.7-1.5-1-3.1-1.1-0.9-0.7-0.5-0.9-0.1-0.9-0.5-1.4-0.8-1.6-1.8-2.9-0.7-1.5-0.2-1.3 0.5-1.6-0.2-0.7-0.6-0.4-0.8-0.3-2.9-0.5-5.9-2.1-6-1-2.2-0.7-0.8-0.6-0.6-0.7-0.3-0.8-0.3-1.7 2.7-7.1 0.1-1.2 0.1-2.7-0.3-3-0.2-1-0.4-0.8-1.4-2-1.1-2.3-1.5-1.7-0.7-2.4-0.2-2.5-0.3-1.5-0.4-1-1-1.2-3.5-2.4-0.7-0.7-0.7-1.2-0.1-1.1 0.6-2.1-0.3-0.8-2-2-0.9-1.3-0.7-0.8-0.8-0.6-0.8-0.3-0.8-0.1-0.8 0.3-0.6 0.5-1.9 2.6-1.3 1-0.7 0.2-4.1 0.8-0.7-0.2-0.4-0.6-0.2-2.1-1-3.4 1.7-3.3-0.2-1.8-0.7-1.4-1.1-1.2-3.4-2.4-1.2-1.5 0.5-1.5 0.7-1.2 0.9-1.3 2.9-5.7 0.5-1.6-0.4-1.4-1.5-3.2 0-1.4 0.3-1.2 0.4-0.9 0.8-1.3 0.8-1.7 1.9-1.2 3.2-1.5 13.2-2.7 4.3 0.3 1.2-0.2 0.7-0.5 0.5-1.1 0.4-1.5 0.8-9.6-0.6-4.2-1.8-5.5-2.9-6.4-0.4-2.5 0.2-6.2-0.4-1.4-0.6-1-0.8-1-1.9-1.4-0.9-1.3-0.6-1.6-0.5-0.8-1.3-0.9-2.2-1.2-0.7-0.4-0.4-0.6-0.3-0.6 2.3-7.7 0.3-0.5 0.6-0.3 3.9-1 3-1.2 0.8-0.1 0.8 0.1 0.7 0.5 0.5 0.6 1.2 2.4 0.3 0.6 0.9 0.5 1.2 0.3 2.2 0.2 1.2 0.4 0.9 0.5 1.7 0.1 2.8-2.9 0.4-0.6-0.3-0.5-1.1-0.3-1-0.2-1.7-0.6-1.9-2.2-0.5-0.8 0.3-0.7 1-0.9 3.8-2.1 1.1-1.2 1.3-2.3 0.4-0.6 0.6-0.3 0.6 0.1 1.4 0.7 0.8 0.2 0.9-0.1 1.7-0.4 0.9-0.1 1.6 0.1 2.8-0.6 1.1-0.5 1.3-0.9 0.7-1.1 0.1-0.9-0.3-1.6-0.7-1.4-0.4-1.8 0-2 0.4-1.7 0.4-0.7 0.6-0.6 1.4-0.8 0.9-0.2 1.2 0.2 1.7 0.9 2.5 1.8 1.1 0.4 0.6-0.9-0.1-2-0.2-1.2-2.3-5.7-1.9-2 0.4-2.5 0.1-0.8-0.4-2.5 1.1-0.7 1.1 0.2 0.3-0.4-0.1-1.2 0.6-1.1 0.1-0.9-0.1-2-0.3-0.9-1.8-3.5-0.4-1.2-0.1-0.8 0.3-0.8 0.2-1 0-1.6-0.2-0.9-0.4-1.2-0.8-1.4-4-4.9-1.5-2.4-0.4-0.8-0.9-2.3-0.6-0.7-0.6-0.3-1.2-0.4-1.1 0.1-0.7 0.4-1.3 0.3-1.4-1-2.9-4.5 1.9-4.4 2.1-6.9 0.5-0.9 0.7-1 2.8-2.8 5.2-3.8 1.4 1.7 0.4 0.5 0.4 1.1 0.4 1.4 0.6 1 0.6 0.3 2.7 0.9 1.4 0.8 1.6 1.8 1.2 1 1.2 1.1 0.6 0.5 0.9 0.4 3.3 1 1.4 0 1.4-0.5 1.2-0.7 1.9-2 1.8-1 1.3 0 1.3 0.4 2.1 1.1 1.1 0.1 3.4-0.4z" id="PER586" name="Ayacucho" data-id="PER586" data-name="Ayacucho">
 </path>
 <path d="M359 993.7l-1-2.2 1.6-2.1 0.7-3-0.7-3.1-2.7-2.3-2.2-4-7.6-4.3-4.5-1.9-0.8 0-0.3-0.4-1.4-1.3-0.5-0.8-0.2-1.1 0.6-1.4 0.1-0.8-1.2-3.2-2.8-2.1-2-0.6 0.3-1.1 0.2-2-0.3-1.9-2.3-1.6-0.4-5.4-0.7-1.8-0.6-2.5-0.3-0.8-1.2-1.9-0.5-1.6 0.5-2-1.2-1.9 0-0.8 1.5 0.2 0.8-1.1-0.3-1.6-1.9-3.6-0.2-0.9 0.2 0 2.1-1.6 2.1-0.6 0.2-0.2-0.2-0.9 0.3-1.4 0.8-0.5 1.4-1.9 0.8-2.6 0.6-0.5 0.9 0.1 1.8 1.2 1.2 1.1 0.3 0.9-1.1 3.1 0 1.7 0.7 0.7 1.6 0.5 0.7-0.1 0.7 0.3 0.1 0.9 0.6 2 1.6 1.8 0.9 0.5 0.5-0.2 0.8-0.6 0.4-0.7 1-0.4 1.3 0.2 1.5 0.5 2.1 0.2 0.8 0.4 0.2 0.4-0.3 0.6-2.1 2.8-0.5 0.3-2.1 0.1-0.5 0.3-0.4 0.5-0.1 1.3-0.4 0.7-1.3 1.2-0.1 1.4 0.2 1 0.5 0.3 1.6 0 0.3 1-0.9 1.2-0.1 1.3 0.1 1.3-0.3 1.3 0.2 1 0.3 0.4 1.2 0 0.7-0.2 2.1-0.9 1.3-0.3 0.6-0.3 1.1-1.1 1.5-0.7 3-3.1 1-1.2 0.5 0 1 0.6 0.7 0.6 1.8 1.8 0.5 1.1 1.2 1.7 0.3 1.4-0.7 1.1-1.4 0.9-1.2 0.3-0.9 0.6-0.2 0.8 0.1 2.5 0.6 0.5 1.3 0.3 1.5 1.2 1.2 1.1 1.1 1.5 0 0.6-2.2-1.1-0.4 0-1.3 0.9-0.3 1 0.4 1 0.9 1 0.4 0.7 0.1 1 0.5 1.1 0.6 0.8 0.9 0.8 1.3 2.5 0.7 0.8 0.8 0.6 0.3 1.1-0.2 1.3-0.6 1.9-0.9 1.2-0.2 0.8-1.3 2.1-0.3 0.8-0.1 1.4 0.9 1.1-0.6 0.8-0.6 0.5-4.4 1.9-0.7 2.2 0.1 1.8 0 0.9-0.5 0.9-1 1-1.7 1z" id="PER587" name="Lima Province" data-id="PER587" data-name="Lima Province">
 </path>
 <path d="M549.2 964.4l-5.2 3.8-2.8 2.8-0.7 1-0.5 0.9-2.1 6.9-1.9 4.4 2.9 4.5 1.4 1 1.3-0.3 0.7-0.4 1.1-0.1 1.2 0.4 0.6 0.3 0.6 0.7 0.9 2.3 0.4 0.8 1.5 2.4 4 4.9 0.8 1.4 0.4 1.2 0.2 0.9 0 1.6-0.2 1-0.3 0.8 0.1 0.8 0.4 1.2 1.8 3.5 0.3 0.9 0.1 2-0.1 0.9-0.6 1.1 0.1 1.2-0.3 0.4-1.1-0.2-1.1 0.7 0.4 2.5-0.1 0.8-0.4 2.5 1.9 2 2.3 5.7 0.2 1.2 0.1 2-0.6 0.9-1.1-0.4-2.5-1.8-1.7-0.9-1.2-0.2-0.9 0.2-1.4 0.8-0.6 0.6-0.4 0.7-0.4 1.7 0 2 0.4 1.8 0.7 1.4 0.3 1.6-0.1 0.9-0.7 1.1-1.3 0.9-1.1 0.5-2.8 0.6-1.6-0.1-0.9 0.1-1.7 0.4-0.9 0.1-0.8-0.2-1.4-0.7-0.6-0.1-0.6 0.3-0.4 0.6-1.3 2.3-1.1 1.2-3.8 2.1-1 0.9-0.3 0.7 0.5 0.8 1.9 2.2 1.7 0.6 1 0.2 1.1 0.3 0.3 0.5-0.4 0.6-2.8 2.9-1.7-0.1-0.9-0.5-1.2-0.4-2.2-0.2-1.2-0.3-0.9-0.5-0.3-0.6-1.2-2.4-0.5-0.6-0.7-0.5-0.8-0.1-0.8 0.1-3 1.2-3.9 1-0.6 0.3-0.3 0.5-2.3 7.7 0.3 0.6 0.4 0.6 0.7 0.4 2.2 1.2 1.3 0.9 0.5 0.8 0.6 1.6 0.9 1.3 1.9 1.4 0.8 1 0.6 1 0.4 1.4-0.2 6.2 0.4 2.5 2.9 6.4 1.8 5.5 0.6 4.2-0.8 9.6-0.4 1.5-0.5 1.1-0.7 0.5-1.2 0.2-4.3-0.3-13.2 2.7-3.2 1.5-1.9 1.2-0.8 1.7-1.5-2.1-1.7-1.4-1.4-0.8-1.1-0.4-1-0.2-2.3-0.1-2.2-0.5-3.6-3.9-4.3-3-1.4-1.4-1.8-0.9-3-0.2-1.1-0.3-1.5-0.5-1.1-0.7-1.4-1-0.9-0.6-4.6-1.9-0.9-0.8-0.7-0.9-0.7-1.5-0.2-0.7 0.1-0.8 0.8-1.3 0.1-0.8-0.1-0.7-1.3-2.1-0.3-1.5 0.2-1.1 1.1-1.4 2.5-4.7-0.1-1.2-0.3-0.8-0.7-1.5-1.6-3.7 0.9-1.3 1.1-1.2 0.9-1.4 2.3-5.7-0.5-0.9-0.7-0.5-0.9-0.4-2.9-0.2-1.7-0.3-4-1.8-2.6-0.6-1.7-0.1-1.6 0-5.4 0.3-2.2-0.5-0.6-0.6-0.3-0.7-0.1-0.9 0.2-0.9 0.2-0.8 0.8-1.4 1.4-2 0.6-1.7 0.3-2 0.3-0.9 0.5-0.6 0.6-0.5 1.6-0.6 0.7-0.7 0.5-1 0.4-1.7 0-1.3-0.1-1.2-1-4.4 0.1-1.2 0.4-0.8 0.6-0.5 3-1.4 0.8-0.7 0.8-0.9 0.9-1.8 0.4-1.6-0.3-0.7-0.5-0.8 1-2.9 1-4.9 0.6-1.5 0.6-1 2.8-1.6 3.3-3.1 2.1-2.9 1.8-3.6 0-2.4 0-0.8 0.3-1.6 0.4-0.9 0.4-0.7 0.9-0.4 1.5-0.6 0.6-0.7 0.5-1.1 0.7-2.1 0.5-0.9 0.8-1 6-6.1 1-0.7 1.4-0.4 2.1-0.6 0.8-0.8 2.3-3.6 1.9-1.1 5-1.1-1.1-0.6-0.7-1.4-0.3-1.9-0.8-1.5-0.3-1.2 0.6-0.2 1.2-0.3 1.6-0.6 0.9-0.7 1-1.3 2.8-5.3 0.2-0.9 0-0.9-0.3-1.9-0.6-1.6-0.5-0.6-1.9-1.5-0.9-1.3-0.7-1.5 0-0.8 0.2-0.7 0.6-0.6 1.7-1.5 0.8-1.2 0.5-1.1 0.4-0.6 0.5-0.3 0.9 0.3 0.5 0.5 1.5 2.1 0.5 0.6 1.2 0.8 1 0.5 1.6 0.5 1.1 0.2 1.3 0 2-0.4 3-0.9 1-0.1 1.3 0.3 2 0.6 1.2 0.1 1.8-0.1 3.9-1 0.9-0.7 1-1.9 0.5-0.6 0.7-0.4 1.3 0 3.2 0.7 2 0.3 1.4 0.7 3.6 2.8 2.8 0 0.8 0.5 5.1 5 4.1 3.2z" id="PER588" name="Huancavelica" data-id="PER588" data-name="Huancavelica">
 </path>
 <path d="M408.1 1138l-0.3 0.6-0.9-0.2-1.2-1-1.1-0.5 0-0.9 0.6-0.4 1.4 0.4 0.7 1.6 0.8 0.4z m-20.9-35.3l-0.8 0.1-0.8 0-0.7-0.1 0.2-1 0.7-0.7 0.2-0.9 0.8 0.1 0.2 0.6 0.5 0.2 0 0.9-0.3 0.8z m108.4 23.5l-0.8 1.3-0.4 0.9-0.3 1.2 0 1.4 1.5 3.2 0.4 1.4-0.5 1.6-2.9 5.7-0.9 1.3-0.7 1.2-0.5 1.5 1.2 1.5 3.4 2.4 1.1 1.2 0.7 1.4 0.2 1.8-1.7 3.3 1 3.4 0.2 2.1 0.4 0.6 0.7 0.2 4.1-0.8 0.7-0.2 1.3-1 1.9-2.6 0.6-0.5 0.8-0.3 0.8 0.1 0.8 0.3 0.8 0.6 0.7 0.8 0.9 1.3 2 2 0.3 0.8-0.6 2.1 0.1 1.1 0.7 1.2 0.7 0.7 3.5 2.4 1 1.2 0.4 1 0.3 1.5 0.2 2.5 0.7 2.4 1.5 1.7 1.1 2.3 1.4 2 0.4 0.8 0.2 1 0.3 3-0.1 2.7-0.1 1.2-2.7 7.1-16.6 10.6-1.9 1.7-2.9 5.2-0.6 1.3-0.6 1.6-0.5 1.2-4.4 7-1.5-1.7-0.9-0.7-1.6-0.4-1.5-0.3-1.2-0.5-0.5-1.3-0.4-0.3-1.4-0.3 0-1 1.1-0.5 1.6-0.4 0.3-1.1-1.2-1.8-2.3-1.5-3.2-1.3-2.1-2.2 1.5 0.1 0.9-0.5 0.3-0.8-0.1-1-0.3-0.7-0.6-0.8-3.8-3.6-1.6-0.7-4.1-0.6-1.1-0.9-0.7-1.4-0.7-1.9-3.7-5.4-0.6-1.6-0.6-0.8-2.8-1.9-0.9-0.9-0.1-0.6 0.1-2.6-0.3-0.5-3.5-2.8-6.5-3.2-3.7-2-1.9-1.2-3.5-2.9-3.9-1.9-0.3-0.4-1.4-0.8-1.5-0.5-0.6-0.8-1-1.7-1.2-0.9-3.3-1.7-1.1-1.2 0.2-1.8-0.4-3.8-1.1-1.8-1.3-1.9-0.8-0.5-0.3-0.9 1-2.1-1.3-2.5-1.8-1-2.6-1.6-1-0.9-1.5-2.2-1.1-1.1-0.8-0.4-1.9-0.2-0.8-0.3-0.5-0.6-0.8-2.6 2.1-0.2 0.6-0.8 0.2-0.8-1.3-2.6-0.5-0.8-0.6-1.8-1-1.4-1.2-0.7-1.3-0.4-0.7-1.1-0.4-1.3-0.6-1.1-1-0.5-2.7-1.1-0.2 1.7-1.5 2.6-1.5-2.7 0.6-2.2 0-3-0.7-1.9 0.8-0.6 0-1.3 1.1-0.6-0.5-0.9 0.3-1.5-0.7-1-0.5-1.3 1-0.4 0.2-2-0.6-1.4-1.4-0.9-0.2-1 0.4-1.8-0.4-0.5-0.8-0.2-0.6 0.4-0.2 1.3-0.5 0.7-1-0.4-1.4 0.3-1.4-0.9-1.7 0 0-2.2 0.2-1.1 1.1-2.6 0.9-1.1-0.4-1.1 0.7-0.6 1.4 0.3 1.5-1.1 1.4 0 0.9 0.1 0.5 1-0.8 1.1-0.2 1.1 0.7 0.6 1.1 0.6 1.4 1.2 0.7-0.9 0-1.7 0.4-1.7 1.2-3.6 0.7-2.5-0.1-1.6 0.3-2.2 1.9-5.2 1.3-6.8-0.5-6-0.7-3-2-5.7-2.2-3 3.7-2.8 1.4-1.8 2.8-5.6 0.7-0.8 11.3-9.3 0.8-0.9 0.5-0.9 1.1-2.6 0.6-1 0.6-0.3 0.5-0.1 4.4 2.2 1.9 0.4 5.4-0.2 7.5-1 1.1-0.4 2.1-1.4 2.1-1 0.5 0.8 0.3 0.7-0.4 1.6-0.9 1.8-0.8 0.9-0.8 0.7-3 1.4-0.6 0.5-0.4 0.8-0.1 1.2 1 4.4 0.1 1.2 0 1.3-0.4 1.7-0.5 1-0.7 0.7-1.6 0.6-0.6 0.5-0.5 0.6-0.3 0.9-0.3 2-0.6 1.7-1.4 2-0.8 1.4-0.2 0.8-0.2 0.9 0.1 0.9 0.3 0.7 0.6 0.6 2.2 0.5 5.4-0.3 1.6 0 1.7 0.1 2.6 0.6 4 1.8 1.7 0.3 2.9 0.2 0.9 0.4 0.7 0.5 0.5 0.9-2.3 5.7-0.9 1.4-1.1 1.2-0.9 1.3 1.6 3.7 0.7 1.5 0.3 0.8 0.1 1.2-2.5 4.7-1.1 1.4-0.2 1.1 0.3 1.5 1.3 2.1 0.1 0.7-0.1 0.8-0.8 1.3-0.1 0.8 0.2 0.7 0.7 1.5 0.7 0.9 0.9 0.8 4.6 1.9 0.9 0.6 1.4 1 1.1 0.7 1.5 0.5 1.1 0.3 3 0.2 1.8 0.9 1.4 1.4 4.3 3 3.6 3.9 2.2 0.5 2.3 0.1 1 0.2 1.1 0.4 1.4 0.8 1.7 1.4 1.5 2.1z" id="PER589" name="Ica" data-id="PER589" data-name="Ica">
 </path>
 <path d="M539.6 859.8l1.5 7.7 0.8 2.8 0.4 1.1 2.1 3.2 1.2 0.8 1.5 0.5 2.3 0.2 3.2-0.9 1.5-0.8 1.2-0.7 1.2-0.6 1.4-0.2 4.5 0.2 1.7-0.2 1.3-0.3 1.5-0.8 4.2-1.2 1.2-0.1 1.2 0 2.5-0.4 1.2-0.3 1.1-0.2 3.6 0.5 2.4 0 1.1-0.4 1.2-0.6 1.1-0.9 1-1 6-8.4 3-5.4 1-0.9 1.2 0.2 1.7 0.8 1.7 0.6 3.7 0.8 1.6 0.6 1.3 1 1.1 1.1 3 3.7 2.8 4.9 2.7 5.7 0.1 0.5 0 3-1.7 10.6 0.2 1.7 1.6 4.9 1.2 2.3 1.8 2.1 1.6 1.1-0.7 2.4-3.5 7.6-4.5 6.8-7.4 6-2.7 1.7-0.5 0.5-0.4 0.7 0.1 0.8 0.6 0.4 0.7 0.2 1.8-0.1 0.9 0.1 0.8 0.3 3.1 1.3 2.4 0.6 2.1 1.2 2.1 1.7 0.7 1 0.3 1.7 0 1.4-1.1 6.8-0.3 0.7-7.6 11.4-0.3 0.8-0.4 1.7 0 0.7 0.2 3.5-0.1 1.7-0.3 1.8-0.6 1.7-1.4 3-1.5 1.8-1.4 0.9-2.6 1-9.2 2.5-2.9 0.4-7.9 0.1-3.4 0.4-1.1-0.1-2.1-1.1-1.3-0.4-1.3 0-1.8 1-1.9 2-1.2 0.7-1.4 0.5-1.4 0-3.3-1-0.9-0.4-0.6-0.5-1.2-1.1-1.2-1-1.6-1.8-1.4-0.8-2.7-0.9-0.6-0.3-0.6-1-0.4-1.4-0.4-1.1-0.4-0.5-1.4-1.7-4.1-3.2-5.1-5-0.8-0.5-2.8 0-3.6-2.8-1.4-0.7-2-0.3-3.2-0.7-1.3 0-0.7 0.4-0.5 0.6-1 1.9-0.9 0.7-3.9 1-1.8 0.1-1.2-0.1-2-0.6-1.3-0.3-1 0.1-3 0.9-2 0.4-1.3 0-1.1-0.2-1.6-0.5-1-0.5-1.2-0.8-0.5-0.6-1.5-2.1-0.5-0.5-0.9-0.3-0.5 0.3-0.4 0.6-0.5 1.1-0.8 1.2-1.7 1.5-0.6 0.6-0.2 0.7 0 0.8 0.7 1.5 0.9 1.3 1.9 1.5 0.5 0.6 0.6 1.6 0.3 1.9 0 0.9-0.2 0.9-2.8 5.3-1 1.3-0.9 0.7-1.6 0.6-1.2 0.3-0.6 0.2 0.3 1.2 0.8 1.5 0.3 1.9 0.7 1.4 1.1 0.6-5 1.1-1.9 1.1-2.3 3.6-0.8 0.8-2.1 0.6-1.4 0.4-1 0.7-6 6.1-0.8 1-0.5 0.9-0.7 2.1-0.5 1.1-0.6 0.7-1.5 0.6-0.9 0.4-0.4 0.7-0.4 0.9-0.3 1.6 0 0.8-4.4-3.3-2.9-1.5-0.7-0.5-0.4-1-0.1-1.3 0.6-2.5 1.2-2.8 0.5-1.8 0.7-7.1-1-2.9-1-1.3-5.6-11.9-1-1.5-0.2-1.6 1.5-2.9-0.5-1.4-0.4-0.7-3.8-3.1-6.1-2.3-2.1-1.3-1.3-0.9-6.3-2.8-1-0.2-1.7 0.1-1 0.3-3.8 1.7-1.4 0.3-0.8-0.1-1.1-0.9-0.8-0.9-2.9-7.1-2.7-2.2-1.5-1-0.6-0.5-0.5-0.8-0.5-2.4-0.6-1.1-3.6-3.5-0.4-0.8-0.4-1.2-0.1-3.2-0.7-3.6 0.1-3.6-0.2-1-0.5-0.7-0.8-0.7-1.7-0.5-1 0.2-1.3 0.8-0.6 0-0.9-1.1-0.7-0.7-2-1-0.9-0.7-0.7-1.3-1.2-1.6-2.6-8.2-0.3-1.7-1-1.7-3.8-3.9-0.8-3.4-0.6-8.2 0.4-5.6 4.5 0.5 1.9-0.1 10.1-1.6 0.7-3.1 0-1.2-0.6-3-0.3-4.2 0.2-1.9 0.4-0.9 0.4 0 2.2 0.7 3.3 0.6 1.8-0.1 2-0.5 2.1-0.7 5.2-4.1 1-0.4 0.8 0.2 1.3 1.9 1.1 0.9 0.9 0.3 18.9-0.4 17.5-5.6 6.8-1.8 7.7-0.1 2.8-0.5 2.7-1.2 12.2-3.1 1.1-0.5 1.2-1.4 0.9-0.7 1.8-1 1.3-0.4 1.5-0.1 1.1 0.2 0.8 0.3 3.1 1.4 4.2 2.5 5.7 4.8 1.2 0.8 3.2 1.5 7.5 2.2 13.9-0.3z" id="PER590" name="Junín" data-id="PER590" data-name="Junín">
 </path>
 <path d="M362.8 827.4l2 3.3 0.7 1.5 1.4 6.3 0.6 1.4 2.2 3.7 0.7 1.4 0.4 1.2 0.9 5.1 1.6 2.5 2.4 2.7 1.1 1.8 0.5 7-0.3 4.5 0.4 1.8 0.5 0.6 3.7 2.4 1.1 1.1 0.8 2 0.1 1.1-0.1 1.1-0.4 5.6 0.6 8.2 0.8 3.4 3.8 3.9 1 1.7 0.3 1.7 2.6 8.2 1.2 1.6 0.7 1.3 0.9 0.7 2 1 0.7 0.7 0.9 1.1 0.6 0 1.3-0.8 1-0.2 1.7 0.5 0.8 0.7 0.5 0.7 0.2 1-0.1 3.6 0.7 3.6 0.1 3.2 0.4 1.2 0.4 0.8 3.6 3.5 0.6 1.1 0.5 2.4 0.5 0.8 0.6 0.5 1.5 1 2.7 2.2 2.9 7.1 0.8 0.9 1.1 0.9 0.8 0.1 1.4-0.3 3.8-1.7 1-0.3 1.7-0.1 1 0.2 6.3 2.8 1.3 0.9 2.1 1.3 6.1 2.3 3.8 3.1 0.4 0.7 0.5 1.4-1.5 2.9 0.2 1.6 1 1.5 5.6 11.9 1 1.3 1 2.9-0.7 7.1-0.5 1.8-1.2 2.8-0.6 2.5 0.1 1.3 0.4 1 0.7 0.5 2.9 1.5 4.4 3.3 0 2.4-1.8 3.6-2.1 2.9-3.3 3.1-2.8 1.6-0.6 1-0.6 1.5-1 4.9-1 2.9-2.1 1-2.1 1.4-1.1 0.4-7.5 1-5.4 0.2-1.9-0.4-4.4-2.2-0.5 0.1-0.6 0.3-0.6 1-1.1 2.6-0.5 0.9-0.8 0.9-11.3 9.3-0.7 0.8-2.8 5.6-1.4 1.8-3.7 2.8-1.9-2.7-2.6-2.5-5.1-6.8-6.3-8.2-2.5-2.9-0.6-1.9-1.2-1.8-0.8-3.6 0.3-2.8-0.3-3.3-1.3-2.1-0.8-1-5.4-4.7-1.5-1.9-3.4-6.6-0.7-1.1 0.1-2.2-0.1-0.7-0.6-0.8-1.2-1.2-2.5-3.4-3.4-2.4-1.5-1.1 1.7-1 1-1 0.5-0.9 0-0.9-0.1-1.8 0.7-2.2 4.4-1.9 0.6-0.5 0.6-0.8-0.9-1.1 0.1-1.4 0.3-0.8 1.3-2.1 0.2-0.8 0.9-1.2 0.6-1.9 0.2-1.3-0.3-1.1-0.8-0.6-0.7-0.8-1.3-2.5-0.9-0.8-0.6-0.8-0.5-1.1-0.1-1-0.4-0.7-0.9-1-0.4-1 0.3-1 1.3-0.9 0.4 0 2.2 1.1 0-0.6-1.1-1.5-1.2-1.1-1.5-1.2-1.3-0.3-0.6-0.5-0.1-2.5 0.2-0.8 0.9-0.6 1.2-0.3 1.4-0.9 0.7-1.1-0.3-1.4-1.2-1.7-0.5-1.1-1.8-1.8-0.7-0.6-1-0.6-0.5 0-1 1.2-3 3.1-1.5 0.7-1.1 1.1-0.6 0.3-1.3 0.3-2.1 0.9-0.7 0.2-1.2 0-0.3-0.4-0.2-1 0.3-1.3-0.1-1.3 0.1-1.3 0.9-1.2-0.3-1-1.6 0-0.5-0.3-0.2-1 0.1-1.4 1.3-1.2 0.4-0.7 0.1-1.3 0.4-0.5 0.5-0.3 2.1-0.1 0.5-0.3 2.1-2.8 0.3-0.6-0.2-0.4-0.8-0.4-2.1-0.2-1.5-0.5-1.3-0.2-1 0.4-0.4 0.7-0.8 0.6-0.5 0.2-0.9-0.5-1.6-1.8-0.6-2-0.1-0.9-0.7-0.3-0.7 0.1-1.6-0.5-0.7-0.7 0-1.7 1.1-3.1-0.3-0.9-1.2-1.1-1.8-1.2-0.9-0.1-0.6 0.5-0.8 2.6-1.4 1.9-0.8 0.5-0.3 1.4 0.2 0.9-0.2 0.2-2.1 0.6-2.1 1.6-0.2 0-0.1-0.8-0.9-1.9-1.2-1.6-1.1-0.6-1-0.4-0.9-0.8-1.4-1.8-0.2-0.6 0.5-0.7 0-0.7-0.3-0.6-1.4-1.6-1.1-2-0.6-0.9-0.7-0.4-0.8-0.3-0.6-0.6-1-1.4-1.4-0.9-3.4-1.5-2.5-2.2-12.3-6.5-2-1.6-1-0.8 0.2-1-0.2-1.9-0.4-1.6 0.5-0.5-0.2-0.7 0.6-0.7 0.8 0 0.9 0.2 0.8-0.4 0.9-0.3 0.3-1.3-0.1-2.1-1.1-1.8-0.8-1.2 0.5-1-1.6-1.8 0.3-0.8-0.8-1.4 0.4-0.7-0.7-1.6-1.4-1.8 0.3-0.7 0.8-0.7-0.7-1.7-0.7-1.3 0.1-1-0.6-1.6-0.8-1.4-1.2-1.5-1.2-1.9 0.2-1.2-2.1-1.6-1.4-1.4 0-1.1 0.4-0.8-1.3-1.8 0.1-0.6-2.3-2.2-1.2-0.8-0.9-1.9-0.6-0.6-1.7-1.6-3.3-5.7 2.2-1.7 2.5-1 0.7-0.7 0.6-0.9 0.6-1.5 0.3-1 0.1-1.2-0.3-1.3-0.1-0.8 0.2-0.8 1.1-3.3 0.2-0.9 0.1-3.1 0.4-0.7 1-0.4 0.9-0.2 4.5 0.5 1.5 1.7 0.7 1.6-0.4 1.5-0.6 1.4-1 1.4-1.1 1-2 1.3-1.1 1-0.4 0.8 0.1 0.7 0.7 0.7 1.4 0.4 1 0.1 2-0.2 0.9 0 0.8 0.3 1.5 1.5 0.8 0.6 2.1 1 0.8 0.5 0.5 1 0.1 0.8-0.1 0.8-0.6 1.7-0.2 1.6 0.3 1.6 0.6 1.6 0.2 1.8-0.2 0.8 0.1 0.8 0.5 0.6 1.3 0.2 4.9 0.1 1.2-0.2 4-1.6 2.6-1.7 2.8-5 8-4.6 2-1.5 3.9-3.9 1.7-2.4 0.9-1.8 0.2-0.9 0.3-3.9 0.7-1.7 3.5-2.1 13.7-5.7 0.4 2.6 0.4 0.8 0.8 0.9 0.8 0.4 0.9 0.1 2.3 0 1.7 0.5 0.8 0.7 0.4 0.9 0.3 1.9 0.6 1.6 3 1.9 1.9 0.3z" id="PER591" name="Lima" data-id="PER591" data-name="Lima">
 </path>
 <circle cx="116.1" cy="535.7" id="0">
 </circle>
 <circle cx="332.2" cy="909.2" id="1">
 </circle>
 <circle cx="766.9" cy="1359" id="2">
 </circle>
</svg>