<?xml version="1.0"?>
<!--
************* Copyright (c) 2017 Pareto Softare, LLC DBA Simplemaps.com *******************		
************* Free for Commercial Use, full terms at  http://simplemaps.com/resources/svg-license ************
************* Attribution is appreciated! http://simplemaps.com ***************************
-->
<svg baseprofile="tiny" fill="#7c7c7c" height="1062" stroke="#ffffff" stroke-linecap="round" stroke-linejoin="round" stroke-width="2" version="1.2" viewbox="0 0 1000 1062" width="1000" xmlns="http://www.w3.org/2000/svg">
 <path d="M267.5 511.8l2.1 0.6 4.1 0.4 1.1 1.4 0.6 2.4-0.3 2.4-1.8 1.2-0.8-0.1-2.8-0.8-0.7-0.4-1.7-2.2-1.3-2.4-0.5-1.8-0.2-0.4-0.5 0-0.2 0.4-0.2 0.5-0.3 0.2-1 0.2-3 0.9-1.1 0.1-0.8-0.1-1.6-0.7-2.9-0.4-0.6-0.4-0.9-3.2-0.3-0.4-0.5-0.4-0.5-0.9-0.4-1.1-0.2-1 0.5-2.5 1.4-1.5 2.1-0.8 2.3-0.6 2.2-0.3 2.3 0.4 2.2 0.9 1.7 1.2 0.5 0.6 0.4 0.7 0.3 0.8 0.1 1-0.1 3.5 0.1 1.1 1.2 1.5z m-24.5-12.5l-1 2.4-0.9 1.4-1 1-1-0.1-1.2-0.6-1.4-1.1-1.2-1.2-0.4-1 0.5-0.6 1-0.5 0.9 0 0.4 0.5 0.2 0.5 0.4 0 0.4-0.2 0.1-0.1 0.4-0.1 0.3-0.3 0.4 0 0.6 0.4 0.2-0.7 0.4-0.3 0.6-0.1 0.7 0 0.6 0.2 0 0.5z m10.9-26.2l-0.8 0.7 0-0.2 0.2-0.5 0.4-0.2 0.2 0.2z" id="PYF4963" name="Windward Islands" data-id="PYF4963" data-name="Windward Islands">
 </path>
 <path d="M32.4 464.8l-0.2 0-0.4-0.6-0.6-1.7-0.3-0.8 0.4 0.1 0.2 0.2 0.2 0.5 0 0.5 0.3 0.5 0.3 0.7 0.1 0.6z m149.8-1.6l-0.2 0.4-0.5-0.1-0.1 0.4-0.2 0.2-0.3 0.1-0.4 0-0.9-0.7-0.4-0.4-0.1-0.5 0.3-0.7 0.6-0.2 0.6 0 0.3-0.2 0.1-0.5 0.4 0.1 0.5 0.4 0.3 0.6 0.1 0.4-0.1 0.7z m-19.6 3.5l-1.9 1-0.6 0.2-0.6-0.4-0.2 0-0.1 0.5-0.2 0.3-0.3 0.2-0.4 0.1-0.5 0-1-0.7-0.5-1.8-0.3-4.9 0.1-0.7 0.7-0.7 0.7 0 0.9 0.2 0.8 0.4 0.3 0.4 0.6 1.3 3.1 4.2-0.6 0.4z m16.8-5.6l-0.7 0.2-0.3-0.6 0-0.7 0.1-0.6 0.5-1.3 0.4-0.6 0.3-0.1 0.1 0.8 1 1.8-0.1 0.2-0.4 0.2-0.4 0.4-0.5 0.3z m-22.5-9.1l-0.1 0.2 0.9-0.1 0.6 0.1 0.2 0.2 0 0.2 0.3 0.4 0.1 0.3-0.2 0.2-0.4 0.3-0.5 0.2-0.1 1.7-0.1 0.7-0.5-0.2-0.4-0.3-2.8-1.2-0.3-0.3 0-0.3 0.2-1.9 0.7-0.6 1-0.2 1.6 0.1-0.2 0.5z m-13.9-4.6l0.1 1.2-0.8 0-0.7-0.8-0.4-1 0.2-0.8 0.8-0.3 0.6 0.6 0.2 1.1z m-141.1-36.1l-0.3 0.2-0.2 0 0.3-0.4 0.1-0.6 0-0.4-0.3-0.3-0.5-0.2 0.6-0.1 0.3 0.3 0.2 1.2-0.2 0.3z" id="PYF4964" name="Leeward Islands" data-id="PYF4964" data-name="Leeward Islands">
 </path>
 <path d="M998.6 804.7l-1.7 2.3-0.6-0.1-0.4-0.2-0.8-0.5 0-0.4 1.1-0.1 1.7-1.4 1.1-0.4-0.4 0.8z m-62.4-58.9l-0.5 0.2 1.1-1.1-0.1 0.6-0.5 0.3z m-136.2-8.7l-4.2 0 1-0.4 1.1 0.1 1 0.2 1.1 0.1z m-89.3-9.1l-1.4 0.9-1.4-0.5-0.9-1.3 0.2-1.7 1-0.6 0.9 0.7 1.6 2.5z m261.5-10.8l0.6 1-3.5-2.2 1.1 0.1 1 0.4 0.8 0.7z m-46.4-2.7l0.2 0.5-0.5-0.3-0.5 0-0.5 0.1 0-0.3 0.7-0.2 0.6 0.2z m-7.6-6l-0.7 0.5 0.5-0.6-0.1-0.3-0.4-0.2-0.3-0.1 0.9-0.3 0.3 0.4-0.2 0.6z m-5.5-0.9l0.1 0.4-0.6-0.7-0.2-0.3 0.4 0 0.2 0.2 0.1 0.4z m-5.2-1.9l0.4 0.4 0.1 0.7-0.6-0.8-0.2 0 0-0.3 0.3 0z m-91.8-28.3l1.1 1.9 0.4 2.3-1.2 1.1 0.8-0.9 0.1-0.6-1.1-3.3-0.5-0.5 0.4 0z m-94.6-60.7l-0.7 0.1 0.8-0.7 0.5-0.6-0.1-0.6-1.3-0.8 0.4-0.2 0.6 0.3 0.6 0.5 0.3 0.6-0.1 0.7-0.4 0.4-0.6 0.3z m61.3-16.9l-0.5 0.5 0.2-0.4-0.2-0.5-0.1-0.3 0.2-0.1 0.4 0.3 0 0.5z m20.6-3.6l-0.3 0.4-0.5-0.1-0.3-0.3 0.5-0.1 0.4 0 0.2 0.1z m-124.6-4.8l0.5 0.8-0.1 1-0.2-0.9-0.5-0.5-0.6-0.1-0.6 0.2 0.7-0.7 0.8 0.2z m27.6-4l1.3 0.6 0.5 1.2-1.3 0.4 0.8-1-0.6-0.5-1.1-0.2-0.9 0.2 1.3-0.7z m96.9-18.6l0 0.2-1.9-1 0.7 0.1 0.8 0.2 0.4 0.5z m118.9-16.7l1.7 0.6 1.5 1 0.7 0.9 2.6 0.9 1.3 1-0.4 0.8 0-0.4-0.1-0.4-0.3-0.4-0.5-0.3-0.6-0.3-1.6-0.5-0.4-0.2-0.4-0.2-0.2-0.3-0.4-0.4-2.4-1.4-0.6-0.2-0.2 0.4 0 0.4-0.2 0-0.2-0.4-0.3-0.2 1-0.4z m-214.9-3.3l-0.2 0-0.7-0.7-2.9-1.4-0.9-0.7-0.5-0.6-0.1-0.2 1.3 1 3.5 2 0.5 0.6z m188.2-3.6l0.6 1.4-4.9-5.1 1.3 0.6 1.6 1.4 1.4 1.7z m-195.9-7.8l0.3 1.5-1.3-1.9-2.4-1.8-1.1-2.2-0.7-0.7-1.7-1.5 2 0.9 1.4 2.4 1 1.2 1.4 1 1.1 1.1z m-114.3-18.7l0.7 1.3-0.3-0.1-0.3-0.4-0.1-0.6-0.2 0.4-0.3 0.3-0.2 0-0.3-0.2 0.6-0.9 0.4 0.2z m116 1.2l-0.8 0-0.8-0.2-0.5-0.3-0.1-0.6 0.2-0.7 0.6-1.2 1.1-1.1 1-1.9 1.8-1.2 3.8-1.7 1-0.7 1.4 0.2 0.3 1-0.5 1.2-1 0.8-1.5 1.9-2.5 1.5-1.6 1.3-1.4 1.4-0.5 0.3z m-89.8-14.1l-1 1.1 0.7-1-3.8-3.7 1.4 0.8 1.7 1.3 1 1.5z m-44-8.4l0.5 0.8-1.3-1-1.9-0.5 1 0 0.9 0.2 0.8 0.5z m101.2-3.2l-0.1 0 0-0.8-0.2-0.4-0.6-0.4-0.7-0.2-0.8 0 1.1-0.2 0.8 0.3 0.5 0.9 0 0.8z m152.2-1.1l0.3 0.2-1 0-0.1-0.5 0.1-0.3 0.7-1 1.1-0.4-1.5 1.3-0.2 0.4 0.1 0.1 0.5 0.2z m-363.9-2l0.7 3.1-0.4-0.7-0.3-0.6-0.1-0.8 0.1-1z m128.9-16.8l-0.6 0-0.6-0.3-0.5-0.3-0.3-0.4 0.5-0.1 0.6 0.2 0.4 0.4 0.5 0.5z m-51.9-15.6l0.9 0.7 0.4 1.1 0.2 0.5-0.6-0.6-0.7-1-0.8-0.4-0.9 0.9-0.1-0.2 0.2-0.6 1.4-0.4z m-4.9-3.3l0.4 0.7-0.9-0.4-0.7-0.6 0.1-0.4 0.5 0.2 0.6 0.5z m37.5-1.8l1 0.8 1.8 1.8-3.5-2.4-2.7 0.1-2.2-0.2 4.4-0.4 1.2 0.3z m-8.6 0.5l1.9 0.3-2.5-0.2-2-1.6-2.1-1.1 1.8 0.4 2.9 2.2z m-10.9-6.1l0.3 1.3-0.2-0.1-1.4-2.4-1.6-1.2-2.8-1.1 0.2 0 1.1 0.3 1.6 0.2 0.8 0.4 1.5 1.7 0.5 0.9z m-21.8-2.9l-0.3 0.9-0.1-1.1-0.1-0.3-1.5-1.9 0.7 0.5 0.8 0.9 0.5 1z m-9-7.4l0 0.3 0.8-0.3 0.8 0.2 0.7 0.4 0.5 0.4-1.7-0.6-1 0.2-0.4-0.7 0.3 0.1z m-96.8-9.8l-0.5 1.4-1.5-0.2-1.2-0.6-0.6-1 0.8-1.1 1.4-0.4 1.1 0.7 0.5 1.2z m42.5 10.5l0.6 0.7-1-0.6-1.4-3-1.2-1.5-1.2-2.6-0.7-2.7-0.8-1.2-0.3-1.7 0.4 1.2 0.5 1.1 0.6 0.5 0.3 0.6 0.4 2.7 0.3 0.6 0.2 0.5 2.1 2.4 1.2 3z m153.4-16.8l-2.4 4.8 0.4-1.3 0.6-1.3 0.7-1.2 0.7-1z m120-3.4l1 0.4-0.2 0.8-0.3-0.8-1.4 0-1.4 0.8 1-1 1.3-0.2z m-37.4-7.1l-1 1-0.5-0.1-0.3-0.2 0-0.3 0.3-0.4 1.4-0.2 0.1 0.2z m-375.8 2.3l-0.6 0.2-1.1-0.7-0.4-1.2 0.2-1.1 0.7-0.4 0.2 0.3 0.6 1.2 0.4 0.4 0.4 0.5 0 0.5-0.4 0.3z m89.5-2.3l0 0.4-0.5-1-0.4-0.8 0.6 0.5 0.2 0.6 0.1 0.3z m72.5 3l0 1.4-0.9-2.3-2.8-4.3-1.5-1.1 1.4 0.3 0.8 0.9 1.2 2.4 1.3 1.6 0.5 1.1z m22.3-6.9l-0.6 0.5-0.5 0-0.4-0.3-0.1-0.5 0.1-0.5 0.9-0.1 0.5 0.4 0.1 0.5z m-41.4-13.6l-0.2 0.4-1-0.8-3.4-0.6-1.3-1 3.4 1.2 1.3 0.3 0.6 0 0.5 0.2 0.1 0.3z m-38.8-6.9l-0.2 0.6 0.1-1.2-0.1-0.4-0.2-0.4 0.1-0.1 0.2 0.3 0.2 0.6-0.1 0.6z m-20.8-5.4l0.3 0.8-0.7-0.8-0.5-0.9-0.9-0.4 0.7 0.2 0.7 0.4 0.4 0.7z m-32.4-1.1l-0.1 0.2-0.8-0.4 0.7 0 0.2 0.2z m-26-0.4l-1.5-0.6 0.3-0.2 0.5 0.3 0.7 0.5z m13.1-7.2l1.7 1.6-2.7-2.2 0.1-0.1 0.9 0.7z m-28.6-6.9l0.4 2-0.4-0.7-0.6-0.8-0.9-0.8-1.4-0.8-3.3-0.9 2.1 0.1 2.3 0.6 1.8 1.3z m-29-4.4l-0.2 0.9-1-1.2-2.2-0.9 1.1 0.1 1.4 0.4 0.9 0.7z m171.8-10.9l-0.2 1.2 1.1-0.3 1.9-1.3-0.5 0.7-0.9 0.6-1 0.6-0.9 0.2-0.2-0.7 0.6-1.4 1.2-2.2-1.1 2.6z m-50.2-10.1l-1.1 1 0.6-1.1 0.3-1.1-1.6-1.1 1.4 0.2 0.6 1-0.2 1.1z m14.9-1.9l-0.6 0.1-0.6-0.1 1.7-0.3-0.5 0.3z m54.2-1.6l-0.1 0.5-0.1 0.3-1 0.8-1.6 0.9-0.5 0.2-0.5 0.3-1.6 1.7-0.9 0.5 2.5-2.5 2.2-1.3 1.2-1.1-1.3 0.5-2.2 0.3-2.4 0.5 0.9-0.5 1.2-0.4 2.2-0.2 1.1-0.5 0.6-0.2 0.3 0.2z m-48.7-3.6l-0.6 1.2 0.2-1-0.9-0.2-2.7 0.2 2.8-0.5 1.2 0.3z m237.4-8.1l-0.3 0.4-0.4-0.4-1.2-1.3 0.5 0.3 1.4 1z" id="PYF4965" name="Tuamotu-Gambier" data-id="PYF4965" data-name="Tuamotu-Gambier">
 </path>
 <path d="M521.8 1060.9l-0.6 0.1-0.7-0.4-0.5-1.1 0-1.7 0.4-1.5 1.1-0.5 1 0.7 0.4 0.4 0.3 0.5-0.2 0.3-0.7 0.7-0.1 0.3 0.2 1.1 0.1 0-0.3 0.7-0.4 0.4z m-171-213.2l-1.5 0.4-0.7-0.1-0.6-0.3 0-0.4 0.9-0.3 0.9-0.3 2.1-0.1-0.2 0.4-0.2 0.3-0.7 0.4z m-91.4-26.5l-2.2 0.3-0.6-0.3-0.3-0.6-0.1-0.9 0.3-0.3 0.6-0.2 1.4-0.1 1.3 0.4 0.3 0.9-0.7 0.8z m-97-48.8l-0.4 0.1-0.2-1.5-0.6-1.3-0.3-1.2 0.5-1.1 0.5 0 0.5 0.6 0.5 0.8 0.1 0.5-0.1 1.4-0.2 1.4-0.3 0.3z" id="PYF4966" name="Austral Islands" data-id="PYF4966" data-name="Austral Islands">
 </path>
 <path d="M810.9 134.8l-1.8 0.4-0.7-0.4-0.4-0.8-0.1-1 0.8-1.7-0.1-0.8-0.9-1.7 1.7 0.1 0.8 0.2 0.7 0.5 0.8 1.6 0 2-0.8 1.6z m-24.6-28l-0.6 0.7-0.7-0.9 0.1-0.9 0.2-1.1-0.3-0.9 0.5-0.7 0.7-1.2 0.9-0.8 1.1 0.5 0.6 0.3 0.7 0.5 0.4 0.4-0.3 0.3-0.4 0.7-0.2 0.1-0.5 0.1-0.3 0.1-0.7 0.8-1.2 2z m12.3-12.8l0.6 0.1 0.5-0.1 0.7-0.5 0.3-0.1 1.1-0.1-0.2 0.4-2.6 2.3-1.1 0.4-1.3 0.3-2 0.2-2.7 0-0.6-0.2-0.3-0.1-0.6-0.1-0.6 0.1-0.2 0.1 0 1.6-0.4 0.9-0.5 0-0.7-0.3-2.1-0.4-0.8-0.6-0.7-0.7-0.4-0.6-0.3-0.7-0.2-0.8 0.2-0.7 1.6-0.5 4.4-2.6 1.9-0.4 1.5 0.3 0.7 1.1 0.5 0.7 1 0.4 1.1 0.3 1 0 1.2 0.3z m-59.9-21l0.6 0.2 0.7-0.4-0.6 1.6-0.5 1.7-0.7 1.5-1.5 0.6-0.9-0.5-2.5-3.4 1-0.7 0.9-1 1-0.7 1.3-0.1 1.2 1.2z m24-24.7l0.4 0.1 0.8-0.3 0.6 0.1 1.7 0.9 0.5 0.8-0.2 0.6-0.8 0.5-0.9 0.3-2.3 0.1-0.9 0.4-0.7 0.9 0.3-0.8-0.3-0.7-0.4-0.7-0.3-0.8 1.8-1.9 0.3 0 0.4 0.5z m-32.3-4.5l6.5 1.1 1.5 0 0.4-0.1 0.7-0.4 0.5-0.2 0 0.2-0.6 0.7-0.5 0.9 1.4 1.2 0.3 0.6 0.1 1.2-0.2 0.7-0.7-0.1-1.2-0.8-0.3 1.1-0.8 0.8-1 0.2-0.7-0.7-0.4 0-0.6 0.6-2 0.6-0.5 0.4-0.2 0.9-0.6-0.2-0.6-0.5-1.1-0.7-0.3-0.7-0.6-2.4-0.1-1-0.1-0.4-0.5-0.5-0.1-0.3 0.7-1.9 1.6-0.3z m-25-38.2l-0.5 0.1-0.5-0.7 0-1.9 1-1.4 1.7-0.7 1.8 0.5-0.7 0.6-0.3 0.1-0.9 0.2-0.4 0.4-0.4 1.5-0.4 0.8-0.4 0.5z" id="PYF4967" name="Marquesas Islands" data-id="PYF4967" data-name="Marquesas Islands">
 </path>
 <circle cx="154" cy="454.9" id="0">
 </circle>
 <circle cx="157.1" cy="466.2" id="1">
 </circle>
 <circle cx="737.2" cy="51.6" id="2">
 </circle>
</svg>