<?xml version="1.0"?>
<!--
************* Copyright (c) 2017 Pareto Softare, LLC DBA Simplemaps.com *******************		
************* Free for Commercial Use, full terms at  http://simplemaps.com/resources/svg-license ************
************* Attribution is appreciated! http://simplemaps.com ***************************
-->
<svg baseprofile="tiny" fill="#7c7c7c" height="558" stroke="#ffffff" stroke-linecap="round" stroke-linejoin="round" stroke-width="2" version="1.2" viewbox="0 0 1000 558" width="1000" xmlns="http://www.w3.org/2000/svg">
 <path d="M665.1 538.2l0.3 0.4-0.3 0.7-0.3 0.1-0.3 0.5-0.5-0.4 0.1-0.2 0.4 0 0.3-0.3-0.4-0.7 0.7-0.1z m-17.7-6.9l0 0.5 0.2 0.4-0.3 0.2-1-0.8 0.5 0 0.3-0.5 0.3 0.2z m-7.2-0.5l-0.9 0.5-0.2-0.4 0-0.2 1.1 0.1z m13.5-0.1l0 0.3-0.6 1.8-0.1 0.6 0.3 0.2-0.6 0.3-0.3-0.1-0.3-0.5-0.3-0.2-0.5 0.4-0.1-0.1-1.1-0.8 0.1-0.3 0.6-0.4 0.2-0.7 0.2-0.5 0.4-0.1 0.6 0.1 0.2-0.1 0.6 0 0.7 0.1z m1.6 1l-0.6 0-0.4-0.4-0.1-0.4 0.4-0.4 1.1-0.1 0.5 0.3-0.2 0.6-0.7 0.4z m-40.4-2.4l0.8 0.3 0.3-0.1 0.6 0.1-0.2 0.4-0.5 0.1-0.9-0.6-0.1-0.2z m19.9 0l0.9 0.2 0.2 0.3-0.9 0.4-0.6-0.2-0.3 0.4-0.5-0.4 0.5-0.8 0.5-0.2 0.2 0.3z m-6.9-3.1l0.6 0.4 0.8-0.1 0 0.7-0.2 0.2-0.4-0.1-0.7 0.6-0.3-0.7-0.3-0.1-0.2-0.6 0.5-0.1 0.2-0.2z m-46.1-16.7l0.3 0.5-0.8-0.3 0.5-0.2z m38.3 0.9l-0.7 0.2-0.5-0.5-0.4 0-0.1-0.4 0.7-0.8 0.6 0.4 0.1 0.2 0.5 0.3-0.2 0.6z m-58.5-1.7l-0.2 0.4-0.5-0.4 0.2-0.2 0.5 0.2z m58.5-3.2l0 0.5-0.3 0.4-0.1 0.6-0.7-0.7-0.4-0.3-0.7 0-1.5 0.4-0.2-0.3 0-0.6 0.4-1 0.5-0.5 0.6-0.2 0.4 0 0.6 0.2 0.2 0.3 0.3 0.4 0.8 0.7 0.1 0.1z m-60.7-4.1l0.5 0.2 0.4-0.1 0.4 0.2-0.3 0.3-0.5-0.2-0.6 0.1 0.1-0.5z m-1.3-0.3l-0.5 0.6-0.2-0.4-0.5-0.1-0.2-0.5-0.4-0.1 0.1-0.2 0.4 0.1 0.2 0.2 1.1 0.4z m-2.4-0.7l-0.2 0-1.1-0.6 0.3-0.4 0.8 0.6 0.2 0.4z m-27.1-1.2l0.1 0.3 0.6 0 0.3 0.6-0.2 0.5 0.2 0.3 0.8-0.5 0.2 0 0.3 0.3-0.1 0.3-0.4 0.2 0.8 0.5 0.2 0.3-0.3 0.2-0.4-0.1-1 0-0.9-0.4-0.2-0.2-0.1-0.5-0.7 0.1-0.3-0.1 0-0.4 0.2-0.5 0.7-0.7 0.2-0.2z m17.9-16.6l-0.1 0.6-0.2 0.3-0.5 0.1-0.4 0.6-0.4-0.1 0.1-0.4-0.6-0.5-0.2-0.5 0.5-0.3 0.2 0 0 0.5 0.6-0.2 0.3-0.6 0.7 0.5z m-8.5-27.6l-0.5 0-0.4 0.1-0.5-0.5 0.1-0.4-0.2-0.3 0.1-0.2 0.8-0.2 0.4 0.4 0.1 0.4 0.3 0.3-0.2 0.4z m-4.5-25.1l-0.2 0.1-0.8-0.1 0.1-1 1 0 0.2 0.4-0.3 0.6z m58.6-2.1l1.3 0.8 0.3 0.4-1.6-0.6-0.9 0.2 0.1-0.4 0.8-0.4z m-60.2 1.7l-0.4 0.5-0.7-1.2-0.3-0.2-0.2-0.8 1.1-0.2 0.2 1 0.5 0.2 0.2 0.3-0.4 0.4z m7.7-2.7l0.2 0.2 0.3-0.1 0.1 0.3-0.6 0-0.7 0.6-0.1-0.7 0.2-0.7-0.1-0.2 0.5-0.1 0.2 0.7z m-1.8-1.3l-0.5 0.3-0.2-1.1 0.7 0.1 0.2 0.1-0.2 0.6z m-408.1-4.2l-0.6 0.2-1.2-0.3-0.9-0.8 0.1-0.6 2.5-1.2 0.5 0 0.5 0.6 0.1 0.8-0.4 0.8-0.2 0.3-0.4 0.2z m-2.2-2.6l-0.1 0.2-0.8-0.1-0.6-0.7 0.2-0.6 0.5-0.4 1 0.1 0.5 0.3 0.3 0.4-0.3 0.3-0.7 0.5z m12.1-4.4l-0.4 0.6-0.8-0.4-0.2 0.1-0.4 0.8-0.5-0.2-0.8-0.6 0-0.9 1-1.1 1.6-0.8 0.4-0.1 0.4 0.3 0.1 1-0.4 1.3z m0.7-13.3l-0.6 0.1-0.8-3.5 0.1-0.3 0.4-0.1 0.7 0.4 0.5 1.6-0.3 1.8z m-1.4-4.4l-0.3 0-0.5-0.4-3-1.8 0.2-0.1 2 0.4 0.6 0.4 0.9 1.3 0.1 0.2z m403.7-7.1l-2.5 1.1 0-0.5 0.5-1.4-0.3-1.8 0.3-0.6 0.5-0.7 0.7-0.4 0.8 0.3 0.4 0.5-0.2 3.1-0.2 0.4z m-391.7-1.4l-0.9 0.2-1.1-0.4-0.6-0.7 0-0.4 0.1-0.6 0.7-1 1.2-0.5 1.3 0.6 0.4 0.4 0.3 0.8-0.1 0.7-1.3 0.9z m6.5-1.5l-0.3 0.1-1-0.9-0.6-0.4-0.4-0.5-0.3-0.2-0.3-0.4 0-0.4 0.2-0.6 0.3-0.5 0.6-0.1 1.1 0.4 1.2 0.8 0.4 1-0.1 1-0.4 0.5-0.4 0.2z m-15.7-10.7l0.5 0.6-0.9 0.7-6.9-0.8-1 0.3-0.8-0.1 0.4-0.5 5.6-0.4 3.1 0.2z m725.7-190.7l-0.3-0.2 0.4-0.2 0.1 0.3-0.2 0.1z m131.3-10.3l-0.3 0.2 0.2-1.4-0.3-1.6 0.7 2.4-0.3 0.4z m-864.9-72.4l-0.1 0.4-0.9-0.2-0.5 0.1-0.4-0.2-0.6-0.6-0.4-0.1-0.1-0.3 1.7 0.1 0.8 0.7 0.5 0.1z m211.7-35.4l-0.7 0.1-0.1-0.4-0.3 0 0-1.1 0.4-0.4 1.3-0.3 0.3 0.1 0.1 0.6-0.3 0.8-0.3 0.4-0.4 0.2z m3.8-11l1.2 0.1 0.3 0 0.3 0.2-0.1 0.5-0.8 0.6-2.2 0.8-1 1.6-0.3-0.1-0.2-0.9 0.2-0.3 0.4-0.8 0.7-0.6 0.6-1.3 0.3-0.2 0.6 0.4z m23.6-17.1l-2 0.9-0.9-0.2 0.2-0.3-0.2-0.4 0.6-0.7 0.4-0.2 0.8-0.2 0.9 0.4 0.2 0.7z" id="PNG99" name="" data-id="PNG99" data-name="">
 </path>
 <path d="M182.9 211.4l-1.1 2.3-0.6 1.5-0.8 0.8-1 0.4-1.1 0.3-5.6 3-0.4 0.6 0 0.8 3.3 6.7 0.3 1.1 0.1 1-0.1 1.2-0.6 2.4-0.5 1.2-0.7 1-1.7 1.4-3.9 2.3-7.6 2.7-2.8 1.4-0.6 0.4-0.1 0.4 0.1 0.4 1.2 1.7 0.3 0.6 0.2 0.7-3.3-0.7-2.3-0.1-2.8 0.5-4.4 1.2-2.3 0.5-1.6-0.3-2.7-1.3-4.9-3.4-5.5-5-3.5-1.8-15.4-5.6-5.7-7.3-1.3-26.1 7.3 2.2 5.4 0.7 3.4-0.1 6.3-1.5 42.1-3.4 0.1 1 0.3 0.7 0.3 0.5 0.7 0.7 3.3 2.6 1.7 1.1 1.1 0.3 0.9 0.1 0.5 0.1 1.1 0.9 0.3 0.5 0.1 1.2 0.2 0.3 0.4 0.5 0.3 1 0.1 1 0.1 0.3 0.5 0.4 0.5 0.2 0.9 0.4 1.5 1.4z" id="PNG1238" name="Enga" data-id="PNG1238" data-name="Enga">
 </path>
 <path d="M202.9 117.4l-0.4 0.2-0.9-0.1-0.2-0.2 0-0.4 0.4-0.3 0.6 0.1 0.4 0.3 0.1 0.4z m-2.1 25.8l0 0.1-0.9 26-6.4 10.1-21.3 16-1.9 0.6-2.3 0.2-42.1 3.4-6.3 1.5-3.4 0.1-5.4-0.7-7.3-2.2-2.9-1.9-0.8-0.1-0.9 0-2.3 0.3-5.7-0.2-3.2-0.6-7.8-0.3-1.3-15.6-5.5-3.2-37.5-0.3-3.9-0.4-2.9-1-1.2-2.2-0.4-2.5-0.2-9 0.4-2.4 1.2-1.5 18.8-12.8 1.3-0.3 0.2 0.1 1-0.3 0.1 1.1 0.7 0.5 1 0.2 0.7 0.8-0.7 0.9-0.3 0.5 0.3 0.4 1.5-0.7 0.4 0.2 0.9 0 32.6-0.5 3-0.7 1-2 0.4-0.9 0-0.8 1-2.6 1.7-1.1 1.6-1.2 0.8-2 0.2-2.1-0.1-1.2-0.1-0.6-0.5-0.6-0.2-0.4-0.4-1.6-0.4-0.9-0.1-0.6-0.1-2.5 0.2-2.2-0.2-3.9 0.1-0.9 0.1-0.5 1-1.6 0.7-1.8 0.6-0.9 0.7-0.6 1.5-0.3 0.7-0.3 1.4-0.8 0.7-0.2 0.7 0 0.7 0.2 0.8 0.4 1.6 1.1 9.8 3.9 1.5 0.4 0.8 0.1 0.8-0.1 0.7-0.5 0.5-1.2 0.4-7.1 0-0.2 0.9-0.1 0.9 0.2 0.4-0.4 0.9 0.4 3.7 0.3 0.5 0.2 1 0.8 0.7 0.1 0.6 0.1 11.4 2 2.4 0.8 1 0.7 3.1 3 0.5 1.5 0.2 0.4 0.4 0.3 0.8 0.3 0.9 0.5 1.6 0.5 0.2 0.3 0.5-0.3 0.7-0.5 0.7 0.1 0.1 0.4-0.4 0.6 0.5 0.7 0.6 0.5 0.7 0.2 1.9 0.2 1 0.2 0.8 0.4 2 3.1 0.7 0.5 2.2 1 0.8 0.2 1.3 0.6 2.6 3.8 1.3 0.6 1.8 0.1 3.5-0.3 0.6 0.1 0.6-0.1 1.3 0-0.4 0.5-0.5 0.2-0.6 0.1-0.7-0.1 0.5 0.7 1 0.6 0.5 0.4 0.9 0.3 1.3-0.7 0.8 0.4 0.4 0.8 0.2 0.3 0.5 0.2 0.6-0.1 0.3-0.6 0.5-0.6 0.5-0.7 0.2-0.8-0.1-0.5 1.8-0.5 2.4 0 2.4 0.3 1.8 0.5 0.7-0.1 2.8 0.1 0.8 0.2 0.7 0.8 0.6 0.8 0.5 0.9 0.2 1.1 0 4.5 0.4 0.6 0.8 0.7 0.4 0.2z m-53.3-33.1l-0.9 0-2.4-1-0.9-0.7 0.1-0.5 0.3-0.4 0.1-0.6 0.3-0.3 1.1 0.1 1.4 0.8 1.3 0.9 0.4 1.1-0.8 0.6z m29.4-8l-1 0.9-1.9-0.4-1-1.3 0.6-1 1.2-0.5 2.1 2.3z" id="PNG1239" name="East Sepik" data-id="PNG1239" data-name="East Sepik">
 </path>
 <path d="M342.3 220.1l-0.5 0.3-0.6-0.3-0.4 0-0.6 0.2-1.2 0.9-1.9-0.1-1.5-1.1-2.2-2.5-2-1.5-0.5-0.8-0.3-0.8-0.1-0.9 0.4-1.9 0.4-1.3 0.5-0.4 2-0.6 0.8-0.5 0.8-0.7 0.9-0.6 1.2 0 1.8 2 0.8 0.6 1.2 0.6 0.2 0.3 0.1 2 0.4 1.3 0.6 1.1 0.8 0.6 0 0.3-0.8 0.9-0.2 1 0.1 1.1-0.2 0.8z m-51.4-32.5l0 0.7-0.7-0.3-0.1 0.3-0.3 0 0.2 1-0.8 0-1.1-0.6-0.5-0.9 0.2-0.9 0.3-0.7 0.7-0.4 1 0 0.8 1.2 0.3 0.6z m-16-3.6l-1.4 0.4-0.8-0.4-1.7-1.6-0.3-0.4-0.4-0.8-0.2-0.8 0-1 0.3-1 0.8-2.3 0.6-0.9 2.6-2.8 1-0.5 1.2 0.3 0.8 0.6 1.9 2.1 0.3 0.8 0.1 1.3 0 1.9-0.2 0.4-0.2 0.6-0.1 1.2-0.3 0.6-0.6 0.5-2 1.3-1.4 0.5z m-46.5-37.6l0.5 0.6 0.2 0.9-0.2 1-0.3 0.8-0.5 0.4-0.8 0.2-1.1 0.1-0.9-0.4-0.5-0.8-0.3-1 0-1 0.2-0.6 0.4-0.2 0.5 0.3 0.9-0.8 0.4-0.1 1.5 0.6z m90.8 94.8l-16.7 9.8-32.8-0.1-1.5-0.9-1.2-1-0.9 0-7-0.3-0.5-0.2-0.4-0.3-0.8-1-0.6-0.3-1.1-0.3-1 0-1.3 0.2-0.7 0.3-0.5 0.5-0.3 0.7-0.5 0.6-0.7 0.2-1.1 0-1.8-0.3-1.2-0.4-0.9-0.9-2.2-3.5-0.7-0.5-0.9-0.1-4.4 0.8-1.4-0.1-4 0.2-2.3-2.5-1.5-1.3-3-0.9-1.1-1.2-2.9-4.4-1-1-1.7-1.1-1.1-1-0.8-1-1.1-2.3-0.5-0.7-0.6-0.5-0.7-0.4-3-1-1.1-0.7-1.2-1-1-1.2-0.7-1.1-0.8-0.9-0.9-0.6-3.1-1-1.5-0.9-0.9-0.9-1.3-1.9-0.6-0.8-1-0.6-7.8-2.9-1-0.2-0.7 0.1-0.8 0.5-0.6 0.6-0.7 0.4-0.3 0.1-1.9-0.6-1.5-1.4-0.9-0.4-0.5-0.2-0.5-0.4-0.1-0.3-0.1-1-0.3-1-0.4-0.5-0.2-0.3-0.1-1.2-0.3-0.5-1.1-0.9-0.5-0.1-0.9-0.1-1.1-0.3-1.7-1.1-3.3-2.6-0.7-0.7-0.3-0.5-0.3-0.7-0.1-1 2.3-0.2 1.9-0.6 21.3-16 6.4-10.1 0.9-26 0-0.1 1.3 0.6 6.7 1 2.1 0.8 1.4 1.3 0.9 0.6 1.7 0.5 1.2 0.8 0.6 0.7 0.1 0.3-0.2 0.4-0.6 0.3-0.3 0.3 0 0.6 0.3 0.7 0.7 0.6 2.3 0.4 1 0.5 1.6 1.6 1.2 0.7 0.2 0.4 0 1.9 0.2 0.3 0.8 0.5 2 2.8 1.4 0.8 5.5 1.8 2.2 0 2.3-0.6 2.3-0.2 2 0.8 2.2 2.8 3.3 2.7 1.9 2.3 0.5 0.8 1.1 1.5 0.5 0.4 1.2-0.2 0.8 1 1.1 2.5 5.9 6.5 0.8 0.8 1 0.4 0.9 0.6 0.1 0.2 1.9 0.5 0.4 0.5 0.8 1 0.6 1-0.2 0.5-0.6 0.5-0.4 1.1-0.3 2.5 0.1 1.2 0.5 2.2 0.2 1.1 0.1 0.3 0.5 0.8 0.1 0.4-0.1 0.5-0.4 0.6-0.2 0.6 0 0.2-0.1 1.9-0.3 1.2 0 0.5 0.1 2.3-0.1 1-0.4 1-1.9 2.7-0.3 1.2 0.1 0.4 0.2 0.8 0.1 0.6-0.1 0.7-1 1.7-0.1 1.8 0.6 1.6 1.1 1.3 1.5 0.5 3.3-0.6 1.2 0.4 0.8 1.7 0.4 0 0.3-1.1 0-0.4 0.8 0.4 0.6-0.8 0.8-0.2 0.8 0 0.7-0.5 1 0.9 0.9 0.4 1 0.2 1.2 0.7 0.4-0.3 0.2-0.1 0.5 0.4 0.5 0 1.8 0.8 1 0.3 1.3 0 0.6 0.1 0.3 0.5 0.2 0.6 0.6 0.2 1.4 0.1 1 0.5 0.6 0.1 0.9-0.2 0.5 0.3 0.5 0.5 0.5 0.3 0.6 0 1.1-0.3 0.7-0.1 0.6 0 0.4 0.1 1.4 0.9 0.5 0.4 0.5 0.1 1.6 0 1-0.2 1 0 1 0.7 0.5 1.1 0.4 0.4 1.2 0.3 0.7 0.3 6.7 5.3 3.6 0.9 1.8 1.1 1.2 0.3 0.5 0.3 0.2 1z" id="PNG1240" name="Madang" data-id="PNG1240" data-name="Madang">
 </path>
 <path d="M120.7 108.7l0 0.2-0.4 7.1-0.5 1.2-0.7 0.5-0.8 0.1-0.8-0.1-1.5-0.4-9.8-3.9-1.6-1.1-0.8-0.4-0.7-0.2-0.7 0-0.7 0.2-1.4 0.8-0.7 0.3-1.5 0.3-0.7 0.6-0.6 0.9-0.7 1.8-1 1.6-0.1 0.5-0.1 0.9 0.2 3.9-0.2 2.2 0.1 2.5 0.1 0.6 0.4 0.9 0.4 1.6 0.2 0.4 0.5 0.6 0.1 0.6 0.1 1.2-0.2 2.1-0.8 2-1.6 1.2-1.7 1.1-1 2.6 0 0.8-0.4 0.9-1 2-3 0.7-32.6 0.5-0.9 0-0.4-0.2-1.5 0.7-0.3-0.4 0.3-0.5 0.7-0.9-0.7-0.8-1-0.2-0.7-0.5-0.1-1.1-1 0.3-0.2-0.1-1.3 0.3-18.8 12.8-1.2 1.5-0.4 2.4 0.2 9 0.4 2.5 1.2 2.2 2.9 1 3.9 0.4 37.5 0.3 5.5 3.2 1.3 15.6 0.2 5.2 0.3 2.3 0.8 1.5 0.5 1.5-0.3 1.7-0.3 1.1-1.3 2.6-0.2 1-0.8 2.2-0.1 0.3-0.4 1.3-1 0.7-2.1 1-1.4 1.2-64.4-22-1.6-0.5 0-11.6-0.1-32.2 0-20.1-0.1-11.7 0-17.8 0-13.3 0.1-20 0-1.6 0.7-0.1 1.1 0.5 1.9-1 2 0.2 2.2 0.8 2.2 0.4 1.6 0 0.7 0.2 1.2 0.8 0.6 0.2 1.3 0 0.6 0.2 0.3 0.4 0.5 1.1 0.3 0.4 0.7-0.3 1.6 1.6 1.2 0.5 1.1 0.1 10.4 4.4 12.1 5.7 1.7 0.3 0.1 0.4 0.1 0.5 0.2 0.5 2.4 1.7 1.1 0.2 2-0.4 3-0.2 0.6 0.2 2.9 2.6 0.3 0.5-0.6 1.7 0.2 0.6 0.3 0.1 1.4 0.1 0.5 0.1 1.8-0.6 1.1 0.6 1.2 0.7 1.2 0.4 1.2 0.1 0.8 0.3 1.5 0.7 6.7 2 5.8 2.8 6.1 1.8 10.5 3.2 1.2 0.2 0.6 0.1 1.8 1 0.7 0.1 0.7 0 0.8 0.1 1.5 0.9 4.3 1.1 1.2 0 1.8-0.1z m-13.7-87.5l-0.6 0.6 0-1.2 0.8-0.8 1-0.2 0.7 0.5-1.1 0.5-0.8 0.6z" id="PNG1241" name="Sandaun" data-id="PNG1241" data-name="Sandaun">
 </path>
 <path d="M225.3 239.6l3 0.9 1.5 1.3 2.3 2.5-0.7 2.9-0.1 7.3 0.2 1.1 0.4 0.8 1.9 1.5 0.5 0.3 1.1 0.4 0.5 0.2 0.5 0.6 0.2 1 0.8 4.5-0.1 1.5-0.2 0.9-0.3 0.8-0.4 0.7-0.5 0.4-1.2 0.8-0.6 0.6-1.6 2-0.5 0.6-0.6 0.3-0.8 0.1-2.5-0.1-0.9-0.2-0.7 0-0.7 0.1-2.2 1.2-0.5 0.5-0.6 0.9 0 0.8 0.4 2.1 0.4 0.4 0.4 0.3 0.7 0.1 0.8 0.3 0.8 0.3 1.2 0.7 6.8 6.4 0.4 0.2 5.1 0.4 0.4 0.2 0.3 0.3 1.1 1.4 0.3 0.6-0.1 0.6-2.1 7.2-2.4-1.5-4-0.3-2.4-0.8-1.6-0.9-2.4-0.7-1.3-0.2-1.1-0.4-1.4-0.1-0.8-0.2-0.7-0.5-0.8-0.9-1.2-0.9-0.7-0.2-0.8 0.3-0.6 0.5-1 0.3-0.9-0.2-1.4 0.2-0.7 0-0.6-0.4-0.9-0.6-0.7-0.3-0.6-0.1-0.8 0.1-1.7 0.4-0.7-1.3-1.1-1-0.7-0.5-2.4-0.4-1.4-0.3-0.6-0.7-0.1-1.1-0.3-1-0.6-0.9-1.2-0.8-1-0.5-1-0.2-1.8-0.1-0.8-0.2-0.2-0.5 0.1-0.6 0-0.5-0.6-1.1 0-0.2 0.4-1.8 0.2-0.6 0.4-0.5 1-0.4 1.6-0.4 0.7-0.2 0.6-0.4 0.3-0.7 0.1-0.5-0.2-2.6 2.7 1.8 0.3 0 0.5-0.4 0.7-2.5 0.4-0.8 0.5-0.7 0.6-0.8 2.2-2 0.5-0.8 2.1-5.6 0.2-0.9 0.1-0.5-0.3-0.5-1.3-1.5-0.3-0.8-0.1-0.9 0.4-1.6 0.5-1.2 0.7-0.7 0.6-0.3 1.8-0.6 0.9-0.6 0.4-0.6 0.2-0.4-0.6-7.6 0.1-0.9 0.5-0.2 0.7 0.1 2.9 1 5 0.3 1.4-0.2 0.9-0.3 1.5-0.6z" id="PNG1242" name="Chimbu" data-id="PNG1242" data-name="Chimbu">
 </path>
 <path d="M269.7 250.9l0.7 0.6 0.6 2 0.7 0.8 0.9 0.7 0.7 0.9 0.3-0.2 1.2-0.5 0.2 0.8 0.1 0.8 0.8 0.5 6.9 4.5 0.5 0.6 0.4 0.9 0 1.2-4.8 23-0.4 0.9-0.6 0.8-1.2 1.2-0.4 0.5 0 0.6 0.2 0.7 0.3 0.7 0.2 0.9 0.2 1.1 0.6 1.9 0 1-0.2 1-0.5 0.7-0.4 0.6-2.2 1.9-0.7 0.8-0.4 0.7-0.3 0.7-1.4 4.9-0.3 0.6-0.6 1-2.3 7.1-29.1-19.5 2.1-7.2 0.1-0.6-0.3-0.6-1.1-1.4-0.3-0.3-0.4-0.2-5.1-0.4-0.4-0.2-6.8-6.4-1.2-0.7-0.8-0.3-0.8-0.3-0.7-0.1-0.4-0.3-0.4-0.4-0.4-2.1 0-0.8 0.6-0.9 0.5-0.5 2.2-1.2 0.7-0.1 0.7 0 0.9 0.2 2.5 0.1 0.8-0.1 0.6-0.3 0.5-0.6 1.6-2 0.6-0.6 1.2-0.8 0.5-0.4 0.4-0.7 0.3-0.8 0.2-0.9 0.1-1.5-0.8-4.5-0.2-1-0.5-0.6-0.5-0.2-1.1-0.4-0.5-0.3-1.9-1.5-0.4-0.8-0.2-1.1 0.1-7.3 0.7-2.9 4-0.2 1.4 0.1 4.4-0.8 0.9 0.1 0.7 0.5 2.2 3.5 0.9 0.9 1.2 0.4 1.8 0.3 1.1 0 0.7-0.2 0.5-0.6 0.3-0.7 0.5-0.5 0.7-0.3 1.3-0.2 1 0 1.1 0.3 0.6 0.3 0.8 1 0.4 0.3 0.5 0.2 7 0.3 0.9 0 1.2 1 1.5 0.9z" id="PNG1243" name="Eastern Highlands" data-id="PNG1243" data-name="Eastern Highlands">
 </path>
 <path d="M239.4 298.3l29.1 19.5 10 11.1 1.1 2.2 1.5 2.2 0.8 0.7 1.3 0.6 15.6 4.3 11.5 7.8-4.8 3.2-2.4 2.6-0.9 0.8-2.3 1.3-1.3 1.1-0.8 2.9-0.2 32.2-0.1-0.1-1.3-1.2-4.6-6.8-0.7-1.7 0-2.1-0.2-0.5-0.5-0.9 0-1.6-0.3-1-0.5-0.9-0.8-0.8-1.7-0.6-1.6-1.6-0.4-0.3-1.3-0.2-0.6-0.5-0.9-1.9 0.7-0.6-0.2-0.9-0.6-0.9-0.7-0.6 0.6-0.2 0.4-0.4 0.1-0.4-0.3-0.5-1.1 0.3-1.6-0.7-2.8-1.4-3.1-0.8-1.7-0.1-1.4 0.5-1.1-0.8-3.3-1.1-0.9-1.1-0.5-0.5-0.1-0.4 0.2-0.2 0.7-0.1 0.2-0.3-0.1-0.3-0.5-0.4-0.1-0.2 0.1-0.4 0.6-1.3-0.4 0-0.6 0.9-0.8 0-0.9-0.2-1 0.5 0.8 1.1-1 0.4-3.2-0.1-0.7-0.2-1-0.9-0.7-0.3-0.9 0-0.7 0.2-0.9 0.1-0.8-0.3 0 0.3-1-0.3-3.6 0.7-1.3-0.1-1-0.3-0.8-0.4-3.1-3-1.6-0.8-2-0.2-1.5 0.4-0.6 0-0.5-0.3-1.2-1.1-0.3-0.6-0.8-0.5-0.4-0.7-0.5 0.6-0.4 0.8 0 0.2-1 0.1-1.3-0.3-1.2-0.8-0.5-1-0.2-0.6-0.4-0.5-0.4-0.1-0.1 0.5-0.1 1.1-0.2 0.3-0.5 0.3-3.3 0-0.6-0.4-1.6-1.8-0.6 0.9-0.6-0.1-0.7-0.5-0.8-0.3-1 0.3-0.3 0-0.4-0.6-0.6-0.3-0.6-0.4-0.4-0.4 0-0.3 0.8-1.1 0.5-1 0-5.3-0.1-1.2-0.7-0.9-0.4 1-0.2 2.7-0.5 1.1 0.3 0.9-0.6 0.4-1.1 0.2-1 0-0.8-0.2-0.8-0.7-1.1-1.4-2-1.4-0.5-1.2-0.6-0.7-1.3-1.1-0.3 1 0.1 1 0.4 1 0.2 0.9-0.5 0.8-1.2 0.4-1.4 0-1-0.2-0.5-0.5-0.6-1-0.5-1-0.2-0.7-0.1-1.1-0.2-0.4-0.3-0.4-0.2-0.5 0.2-1.3-0.1-0.6-0.8-0.9-0.4 0.6 0.1 3.8-0.5 1.8 0.1 0.7 0.3 0.4 1.2 1.1-0.3 0.5-0.5 0.4-0.5 0.2-0.2-0.2-0.3-0.7-1.4-1.1-0.5-0.6-0.2-0.4-0.2-1.3-0.1-0.3-1-0.6-0.4-1-0.6-1.7-0.5-0.7-0.3 0 0.2 1 0.1 2 0.3 0.8 0.7 1.5 0.1 0.8 0.1 1.8 0.3 1.4 0.3 0.6 0.5 0.6 0.5 0.7 0.2 0.9 0.6 0.6 1.1 1.4 0.4 1.3-1.4 0.2-0.1-0.3-1.1-1.5-0.2-0.2-0.3-0.6-0.7-0.7-0.7-0.7-0.6-0.4-0.5 1.2-1 0.5-1-0.5-0.4-1.4-0.2-1.6-0.6-1.5-1.8-2.7 0.3 1.5 0.6 1.5 0.4 1.3-0.6 0.6-0.9-0.4-1.1-2.5-0.9-0.9-0.3 0.7-0.5 0.4-0.7 0.3-0.7 0.1 0 0.4 1.4 0.1 0.4 0.9-0.4 1.2-0.6 1.1 0.5 0.2 0.7 0.6 0.5 0.8 0.1 0.7-0.6 0.4-2 0.7-0.7 0.4-1-1-0.5-0.3-0.7-0.2-0.6 0-0.6 0.3-0.7 0.1-0.5-0.2-0.9-0.8-10.1-3.4-3.9-2.3-1.2-1.1-0.6-1-0.2-1-2-3.6-0.4-1-0.2-0.2-0.5-0.3-0.5-0.2-1.3-0.2-0.6 0-0.8-0.3-1.8-1.4-0.5-0.5-0.4-0.8-0.3 0.8 0.5 0.8 1.7 1.8 0.5 0.4 0.5 0.1 1.2 0.5 1.3 0.2 0.1 0.3-0.3 0.7 0.9 2.3 4.4 7.4 0.3 1.1 0.2 1.1 0 1.3 0.3 1.2 0.6 1 1.3 1.7 2.6 3.9 0.9 2.3-0.8 1.1-50.3-51.6-0.2-10.9 36.7 0 55.1-5.3 1.7-0.4 0.8-0.1 0.6 0.1 0.7 0.3 0.9 0.6 0.6 0.4 0.7 0 1.4-0.2 0.9 0.2 1-0.3 0.6-0.5 0.8-0.3 0.7 0.2 1.2 0.9 0.8 0.9 0.7 0.5 0.8 0.2 1.4 0.1 1.1 0.4 1.3 0.2 2.4 0.7 1.6 0.9 2.4 0.8 4 0.3 2.4 1.5z" id="PNG1244" name="Gulf" data-id="PNG1244" data-name="Gulf">
 </path>
 <path d="M748.5 223.3l1 1.6 0.9-0.2 1 0.5 0.9 0.9 0.5 1 0.3-0.5 0.5-0.2 0.5 0 0.5-0.4 0.6 0.2 0.8 0.1 3.6 0.1 0.5 0.2-0.3 0.5 0 0.3 0.5 0.4 0.3-0.3 0.2-0.5 0.5-0.3 0.8 0 0.2 0.2 0 0.9-0.3 0.6-0.1 0.4 0.3 0.1 1.2 0.4 0.3 0.7 0.3 1.2 1.3 1.6 1.2 2.5 0.8 1.2 0.7 0.3 0.2 0.2 0.6 0.9 0.1 0.6-0.3 1.9 0.4 0.8 0.5 2 0.5 0.9 0.9-0.3 0.8 0.3 0.9 0.5 0.9 0.2 2.7 2.9 0.4 0.5 0.4 0.3 1.1 0 0.3 0.3 0.6 1 0.8 0.9 0.4 0.7 0.6 2.8 0.2 0.6 1.8 3.7 2.7 2.8 0.3 0.1 0.7-0.1 0.5-0.4 0.5-0.6 0.6 0.4 0.4 0.9 0.6 0.9 1.1 0.4 1.4-0.1 0.2-0.6 0.2-0.8 0.8-0.7 0 0.4-0.2 0.4 0.1 0.3 0.5 0.4-0.2 0.6 1.3 1.3 0.5 1.2 0.4 0.3 0.6 0.2 0.5 0.1 0.5 0.2 0.5 0.7 0.6 1.3 0.6 0.8 0.7 0.7 0.8 0.5 1.1 0.2 1 0.5 0.9 1.1 1.1 2.5 1.2 1.6 1.3 1.4 1.1 1.6 0.5 2-0.1 0.6-0.2 1.1-0.1 0.5 0.1 0.7 0.6 1.2 0.4 1.7 1.3 2.1 0.2 1.4-0.3 1.2-0.8 1.3-0.9 1.1-0.9 0.8 0.5-2.4 0.1-1.4-0.5-0.6-0.4 0.5-1.6 3.5-1.3-1.5-2 0.5-2 1.3-1.3 1.2-1.3 1.8-0.7 0.6-1.1 0.2-0.6-0.1-0.9-0.5-0.7-0.2-2.4 0-2.3-0.4-2.4-0.9-4.1-2-2.2-1.9-0.5-0.3-0.9-0.2-1-0.6-1.6-1.4-0.5-0.6-0.7-1.2-6.5-7.1-0.7-1.4 0.9 0 0.5 0.1 0.4 0.2 0.9-1.8 0.6-2.5 0.2-2.7-0.2-2.2-1.1-2.5-1.8-1.4-5.3-1.6-1.9-1.1-1.2-1-1.2-0.4-0.6-0.4-0.5-0.5-0.1-0.3-0.3-1.2-0.8-2.2-0.9-1-0.5-0.8-2.6-1.1-1.5-1.8-1.3-0.9-0.8-0.6-0.6-0.7-0.2-0.7-0.5-0.8-2-1.4-0.4-1.1-0.1-0.6-0.2-1.1-0.1-0.5 0.6-1 0.1-0.7-0.2-1.1-0.6-0.9-1.3-1.3-0.5-0.7-0.2-0.8 0.1-0.5 0.9-2.2 0.7-4.6 0.4-1.1 0.1-1-0.8-0.9 0-0.4 0.4-0.4 0.9 1 0.5 0.1 0.4-0.3 0.1-0.9-0.3-0.8-0.4-0.8-0.2-0.6-0.6-1.3-2.3-2.3 0.1-1.1 1.7-0.2 2.2 1.2 2 1.9z m-6.3-20.2l-0.3 1.6-0.1 0.9 0.4 0.8 0.5 0.5 0.5 0.3 0.5 0.5 0.3 0.9-0.1 1.6-1.3 5-0.2 3.6-0.5 1.4-1.2 0.6 0.4-1.1-0.9 0.3-0.3 0.6-0.3 0.8-0.7 0.5-1-3.7-2.1-5.3-0.2-1.5-0.4-1.3 0-0.8 0.6-0.3 0.3-0.4 0.2-0.9 0-2.9-0.3-1.1-0.8-0.3-1.5 1.2 0.4-1.8 1.2-2 1.7-1.8 1.5-1.1 1.7 0.4 1.2 1.4 0.6 1.9 0.2 1.5z m-26.8-34.7l1.5 0.7 1.1 1.2 0.7 1.4-0.1 1.6-1.1 1.4-1.4-0.5-1.1-1.4 0-1.4 0.3 0.5 0.4 1.2 0.4 0.5 0.6 0.4 0.3-0.1 0.7-0.8 0.3-1.3-0.8-1.3-1.2-1.1-1-0.6-0.2-0.2 0.6-0.2z m-1.9-1.4l-0.3 0-0.3-1.1-0.4-1.2-0.2-1 0.5-0.4 0.4 0.5 0.2 1 0.1 2.2z m31.1-53.6l-0.4 1.1-1.4-3.1-1.2-2.9-1.9-2.9-1.8-2.9-3.2-1.9 2.3 0.3 1.7 0.8 0.7 1.9 1.3 2.5 2.7 4.5 1.2 2.6z" id="PNG1245" name="North Solomons" data-id="PNG1245" data-name="North Solomons">
 </path>
 <path d="M103.5 198.3l1.3 26.1 5.7 7.3 15.4 5.6 3.5 1.8 5.5 5 4.9 3.4 2.7 1.3 1.6 0.3 2.3-0.5 4.4-1.2 2.8-0.5 2.3 0.1 3.3 0.7 4.6 1.8 0.5 0.9 0.9 1 0.7 0.5 1.6-0.2 1.5 0 1.4 0.3 28.2 18.9 0.2 2.6-0.1 0.5-0.3 0.7-0.6 0.4-0.7 0.2-1.6 0.4-1 0.4-0.4 0.5-0.2 0.6-0.4 1.8 0 0.2 0.6 1.1 0 0.5-0.1 0.6 0.2 0.5 0.8 0.2 1.8 0.1 1 0.2 1 0.5 1.2 0.8 0.6 0.9 0.3 1 0.1 1.1 0.6 0.7 1.4 0.3 2.4 0.4 0.7 0.5 1.1 1 0.7 1.3-55.1 5.3-36.7 0-9.9 0-4.1-0.4-3.1-1.1-1-2.4-0.3-2.8-0.3-38.9-0.6-2.8-1.2-1.3-4.2-3.1-18-17.6-1.2-2.1 0-1.1 1.6-3.5 1.4-1.2 2.1-1 1-0.7 0.4-1.3 0.1-0.3 0.8-2.2 0.2-1 1.3-2.6 0.3-1.1 0.3-1.7-0.5-1.5-0.8-1.5-0.3-2.3-0.2-5.2 7.8 0.3 3.2 0.6 5.7 0.2 2.3-0.3 0.9 0 0.8 0.1 2.9 1.9z" id="PNG1246" name="Southern Highlands" data-id="PNG1246" data-name="Southern Highlands">
 </path>
 <path d="M225.3 239.6l-1.5 0.6-0.9 0.3-1.4 0.2-5-0.3-2.9-1-0.7-0.1-0.5 0.2-0.1 0.9 0.6 7.6-0.2 0.4-0.4 0.6-0.9 0.6-1.8 0.6-0.6 0.3-0.7 0.7-0.5 1.2-0.4 1.6 0.1 0.9 0.3 0.8 1.3 1.5 0.3 0.5-0.1 0.5-0.2 0.9-2.1 5.6-0.5 0.8-2.2 2-0.6 0.8-0.5 0.7-0.4 0.8-0.7 2.5-0.5 0.4-0.3 0-2.7-1.8-28.2-18.9-1.4-0.3-1.5 0-1.6 0.2-0.7-0.5-0.9-1-0.5-0.9-4.6-1.8-0.2-0.7-0.3-0.6-1.2-1.7-0.1-0.4 0.1-0.4 0.6-0.4 2.8-1.4 7.6-2.7 3.9-2.3 1.7-1.4 0.7-1 0.5-1.2 0.6-2.4 0.1-1.2-0.1-1-0.3-1.1-3.3-6.7 0-0.8 0.4-0.6 5.6-3 1.1-0.3 1-0.4 0.8-0.8 0.6-1.5 1.1-2.3 1.9 0.6 0.3-0.1 0.7-0.4 0.6-0.6 0.8-0.5 0.7-0.1 1 0.2 7.8 2.9 1 0.6 0.6 0.8 1.3 1.9 0.9 0.9 1.5 0.9 3.1 1 0.9 0.6 0.8 0.9 0.7 1.1 1 1.2 1.2 1 1.1 0.7 3 1 0.7 0.4 0.6 0.5 0.5 0.7 1.1 2.3 0.8 1 1.1 1 1.7 1.1 1 1 2.9 4.4 1.1 1.2z" id="PNG1247" name="Western Highlands" data-id="PNG1247" data-name="Western Highlands">
 </path>
 <path d="M159.7 387.9l-0.9 0.4-0.8-0.6-0.1-0.8 0.7-0.5 1.2-0.5 0.4 0.3 0 0.5-0.5 1.2z m-9.2 10.6l-0.7 0.2-0.6-0.5-0.3-1-0.3-0.7-0.8-0.6-6.3-2.9-1.2-1-0.6-0.3-0.8-0.1-0.7-0.2-0.3-0.5-0.3-0.7-3.3-2.8-3.1-0.9-1.4-0.6-0.6-0.5-1.2-1.7-0.6-0.6-1.2-0.7-0.5-0.6 0.8-0.1 0.8-0.2 0.6 0.1 2 2.3 0.8 0.6 4.7 1.1 4.5 1.6 1.1 0.2 0.6 0.2 0.3 0.5 0.6 0.9 5.1 4.3 2.2 0.7 0.8 0.9 0.5 1.2 0 1.3-0.6 1.1z m-14.8-19.5l0.4 0.2 0.7 0 1.7-0.3 3.6-0.1 4.8 0.6 0.6 0.4 0 1.3 0.2 0.8 0.8 1.4 0.4 0.8-0.1 0.7-0.5 0.5-1 0.2-2.8-0.1-1.1-0.2-2.5-1.3-0.9-1-1.2-0.3-2.3-0.4-1.2-0.6-1.5-1.1-0.7-1.2 1.1-0.8 0.8 0 0.4 0.2 0.3 0.3z m16.8 2.9l-0.6 0.4-1-0.1-1.2-0.8-2-2.2-2.6-1.1 0.5-0.8 2.7-0.2 2 0.5 1 0.7 0.6 1 0.5 1.5 0.2 0.7-0.1 0.4z m0.5-14.5l-1.2 0.8-1.7-0.2-1.1-1.4-0.8-1.5 0.8-0.8 1.4 0.2 0.8 0.3 1.3 0.9 0.6 0.8-0.1 0.9z m0.5-3.4l-0.4 0.5-0.8-0.3-1.4-0.5-2.2-0.2-1.4-0.7-0.9-2.1 0.7-0.6 1.8 0.1 2.4 1.1 1 0.7 0.6 0.7 0.6 1.3z m-37.4-67.8l0.2 10.9 50.3 51.6-0.1 0.1-1-0.3-0.7-0.9-0.8-1-0.8-0.8-0.9-0.2-3.1-0.1 0.3 0.2 0.4 0.6 0.4 0.3 0.4 0.1 1 0.1 0.4 0.1 1 0.6 2 2-0.9 1.1-0.9 0.6-1.1 0.1-5 0-1-0.3-0.4-0.3-0.9-0.8-0.5-0.4-1.9-0.6-0.5-0.3-1-0.5-1.2 0-3.5 0.9-3-0.2-1-0.3-0.6-0.7-0.9-2-0.6-1.1-0.8-0.5-1-0.2-1.4 0-0.8-0.4-0.6-0.1-0.2 0.3 0.1 0.5 0.3 0.4 0.4 0.2 0.6 0.2 2.2 0.2 0.6 0.5 0.2 1.3 0.4 1 0.9 0.8 4.4 1.9 0.6 0.7 0.6 2.2 3.1 5.5 0.3 1.4-0.3 1-0.9 0.5-1.1 0.1-13.6 0.3-0.5 0.3-1.5 0.9-4.5 0.3-12.6 3.3-1.2 0.1-1-0.2-5.2-2.5-6.8-1.1-0.8-0.3-0.9 0.4-2.7 0.6-1 0.1-1.2 0.3-3 1.9-1.2 0.5-1 0.1-2.4-0.2-1.1-0.3-0.8-0.8-0.5-0.9-1.3-5.4-1.1-1.4-2.3-0.5-3.1 0.7-1.9 0.1-0.4 0.1-0.7 0.8-0.6 0.4-1.2 0.3-0.5 0.2-0.8 0.6-0.3 0.5 0.2 0.4 0.9 0.4 1.2-1.2 0.7-0.5 1.2-0.4 0.7-0.5 0.9 0.4 0.6-0.1 2.3-0.6 1.5-0.2 1.3 0.2 0.5 1.2 0.2 1.2 1.6 5.2 1.2 1.5 1.7 0.9 2.3 0.3 1.9-0.7 3.5-2.4 2-0.6 4.2 0.7 0.9-0.3 2.2 0.7 1.8 1.6 0.6 0.3 1.1 0.3 3.5 2.3 2 0.8 6.7 1.4 2.1 0.7 1.6 1 7 5.8 3 3.6 1.6 2.7 2 2.4 0.5 0.9 0.3 0.7 0 7 0.3 1.8 0 1-0.5 0.8-1.3 1.2-0.6 0.4-0.9 0.5-1.6 0.4-3 0-1.6 0.3 0.3 0.4-0.5 0.2-1.1 0-0.8 0.2-0.9 0-0.5 0.9-0.4 0.2-0.8 0.1-4.7 1.5-0.9 0.4-1.3 1.1-1.3 0.8-0.5 0.1-0.6 0.3-0.5 0.7-0.5 0.7-0.4 0.6-1.1 0.6-2.5 1-1.9 1.5-5.8 2.2-0.8 0.6-0.4 0.6-3 1.7-2.1 0.2-1.9-0.6-1.6-1.1-2.6-2.2-1.8-1.2-1.9-0.9-1.6 0.2-1.4-0.7-0.8-0.3-1.3-0.1-0.8-0.2-2.3-1.3-2.8-1-0.7-0.1-0.6 0.1-1 0.8-0.6 0.2-1.8-0.1-7.6 0.6-1.1 0.2-3.2 1.2-1.1 0.2-1.3 0.1-1.2-0.2-2.2-0.7-1.2-0.2-4.5 0.8-1.4-0.1-0.4 0.4-0.8 0.3-0.8 0.3-0.8 0.1-0.8-0.3-0.7-0.5-0.7-0.3-0.9 0.4-0.6-0.1-1.1 0-1.1-0.2-0.8-1.1-2.3-1.6-1.6-0.8-2-0.5-2.1 0-1.9 0.6-4.2 3.3-1.7 0.8-2.6 0.2-2-0.7-5.7-5.1-1.7-1 0.1-16.7 0-10.2 0-9.5-0.1-14.4 0-9.1 0-38.9 0-15 0.1-5.8-0.9 0-1-0.5-0.2-1.7-1.2 0.3-0.4-0.7-0.1-1.1-0.3-0.9-1-0.8-0.5-0.4-0.1-0.6 0.6-1 0.1-0.4-0.3-0.6-1.1-1-0.4-0.6-0.1-0.5 0.4-1.1 0.5-1.8-0.1-1-0.7-0.4 0.4-0.8 0.8-0.3 0.9-0.2 0.8-0.5-0.1-0.4-0.4-0.5-0.2-0.4 0.5-0.2 0.4 0 0.5-0.5 0-1.4 0.1-0.6 0.4-0.3 0.8-0.2 0.4-0.4 0.2-1-0.3-0.8-0.8 0 0-0.7-0.2-0.4-0.3-0.3-0.1-0.3 0.5-0.2 1.1 0.1-0.1-0.7 0.3-0.4 0.4-0.4 0.2-0.6-0.1-0.3-0.5-0.4-0.1-0.6 0.3-0.1 0.2-1.1 0.5-0.6 0.2-0.1 0-71.9 0-0.6 1.6 0.5 64.4 22-1.6 3.5 0 1.1 1.2 2.1 18 17.6 4.2 3.1 1.2 1.3 0.6 2.8 0.3 38.9 0.3 2.8 1 2.4 3.1 1.1 4.1 0.4 9.9 0z" id="PNG1248" name="Western" data-id="PNG1248" data-name="Western">
 </path>
 <path d="M329.9 359.1l16.5 15.5 5 2.9 3.9 1.8 2.3 1.7 2.5 2.5 2 3 1.3 3-0.9 3.1-4.9 7.3-0.3 1.7 0 1 0.1 2.5 0.3 0.9 0.5 0.7 1.6 1.9 0.9 1.4 0.9 1 0.7 0.6 1 0.7 0.8 0.8 2 2.5 1.1 1 0.3 0.5 1.9 4.3 0.5 0.6 0.5 0.4 0.6 0.1 0.5-0.2 0.4-0.2 0.6-0.4 0.3-0.1 0.4 0.1 0.6 0.6 2.9 5 0.6 0.8 0.9 0.8 0.4 0.2 1 0.1 0.6 0.2 0.8 0.7 4.4 6.2 0.4 1 0.2 0.9-0.1 0.8-0.6 1.6-0.1 1 0.1 1 0.8 1.7 0.7 0.7 0.8 0.5 2.4 0.6 0.7 0.3 1.7 1.3 1.2 1.2 3.2 2.4 3 2.6 0.8 0.6 0.7 0.2 0.7 0 1.2-0.5 0.8-0.1 0.7 0.2 3.6 2.8 2.3 1.2 2.3 1.7 0.8 0.4 1.5 0.5 0.8 0.4 1.6 1.2 0.8 0.3 0.7-0.2 0.8-0.7 0.3-0.1 0.4 0.1 0.3 0.5-0.1 0.9 0.2 0.5 0.5 0.3 0.6 0.1 1.7-0.1 0.8 0.2 0.7 0.3 1.2 0.7 0.7 0.2 0.6 0 1.3-0.6 1.7-0.6 0.8-0.1 3 0.1 0.6-0.1 0.6-0.2 0.3-0.2 0.2-0.5 0.1-0.6 0-1-0.1-0.6-0.2-0.7-1.3-2.3-0.3-0.9 0.1-0.8 0.4-0.4 1-0.3 1-0.3 0.9-0.1 1.5-0.1 1.7 0.2 3.5 0.6 4.1 1.4 3 1.5 0.8 0.7 0.9 0.9 1 2.4 0.3 0.5 0.3 0.1 2.9 0.4 0.9 0.4 0.9 0.7 2.4 2.2 0.4 0.3 2.7 1.2 1.4 0.9 1.5 1.2 3.1 1.4 1.2 0.4 0.8 1.5 0.3 1 0.2 10.9-1.5 0.1-1.8 0.4-1 0-1.4-0.4-0.5 0.3-0.7 0.4-0.9-0.4-0.4 0.5 0.8 0.3 0 0.4-1.7 0-0.4-0.2-0.2-1-0.3-0.3-0.6 0.1-0.5 0.4-0.6 0.3-0.9-0.5 0.6-0.3 0-0.4-0.4-0.3-1.3-0.2-0.2-0.4 0-0.6-0.3-0.5-2.4-1-0.7 0.3-1 1.1-0.5 0.5-0.7-0.5-1-0.3-1.2-0.2-1-0.1-0.7-0.2-3.8-2-0.8-0.3-1.4-0.2-1-0.3-0.5 0-1.5 0.1-0.3-0.1-1.3 0.5-0.6 0.1-0.5 0.1-0.7 0.2-0.7 0.5-1 0.8-1.1 0.1-1-0.3-3.6-1.8-0.7-0.2-0.8 0-2.7 0.4-0.7-0.1-1-0.3-0.7 0-0.6-0.3 0.2-1.2-0.5-0.4 0.3-0.7-0.7 0 0.3-0.7 0.4-0.3 0.6-0.1 0.7-0.1 0.3-0.4-0.5-0.8-0.7-0.4-0.6 1.1-0.6 0-0.6-0.3-0.4-0.2-0.2-0.5-0.6-1.8-0.3 0-0.3 2.2-0.4 1-1 0.5-0.7 0.8-0.3-0.1-0.6-0.3-2.5 0-1.3-0.3-0.7-0.1-0.3 0.2-0.2 0.5-0.7 0.2-0.8 0.2-4.2 0-1 0.4-3.5-1.4-0.6-0.7-0.4-1.1-1.1-0.8-1-0.2-0.4 0.8-0.8-0.5-0.6-0.6-0.8-0.7-1.1-0.4-0.5 0-1 0.1-0.3-0.1-0.4-0.3-0.3-0.8-0.5-0.4-0.6 1.9-2.1 1.3-2.6 0.4-2-0.6-0.8 1.3-0.6 0.5-0.8 0.4-1-0.6-0.6-1-0.4-1.1-0.6-1-0.8-0.5-0.8 0.1-1.1 0.3-1.3 0.1 0-0.4 1-0.3 0.5-0.9-0.1-0.9-0.7-0.5-0.4 0.1-0.4 0.3-0.2 0.4-0.2 1.2-0.3-0.2-0.6-0.7-2.2-0.5-1.3 0.3-2.1 2.1-0.3 0-1-4.5-0.5-0.1-0.6-0.2-0.6-0.3-0.6-0.7-0.6-0.1-1.2 0-0.7-0.5-1.9-1.9-0.4-0.8-0.3-0.9-0.7-0.7-0.9-0.6-0.7-0.6-0.4-0.8-0.2-0.8-0.1-2.4-0.2-1.1-0.5-1-4.8-6.3-1.5-1.4-0.5-0.7-0.4-0.9-0.6-0.9-1-0.5-0.4 0.4 0-1.2-0.5-0.9-0.8-0.7-0.4-0.3-0.1-2.1-0.4-1.8-0.5-1.4-0.6-0.7-0.5-0.2-1.2 0.1-0.4-0.1-0.5-0.2-0.8-0.8-0.5-0.3-0.6-0.1-0.7 0.2-1.9 1.1-2.3 0.7-0.8 0.4-0.3 0.5 0 0.4 0.2 0.4 0.4 0.6 1.5 1.2-0.7 0-1-0.5-0.9-0.7-0.7-1.7-1.4-2.1-0.5-1-0.6-2.6-0.5-1.2-0.9-1.2-1.1-0.3-2.2 0.4-0.5-0.7 0.6-0.1 0.5-0.3 0.2-0.5-0.3-0.6-0.5-0.3-0.4-1.3-0.1-1.6 0.7-1.2-0.3-0.3-0.6-0.8-0.2-0.4 0.4-0.2 1-0.2 1.3-0.9 0.2 0 0.3-0.6 1.6-1.1 0.3-0.7 0-0.6-0.2-0.6-0.2-0.5-0.3-0.2-0.7 0.2-0.4 0.5 0 0.5 0.2 0.3-0.1 0.4-1.7 1.7-0.6 0.5-1.9 0.1-1.7-0.7-1.6-1.1-1.8-0.9-0.6-0.1-1 0.1-0.6 0-0.4-0.2-0.8-0.5-3.7-0.8-1-0.3-1.3-1-0.9-1.2-0.6-1.2-0.8-1.1 0.2-0.7-0.2-0.9-0.3-0.7-0.3-0.3 0.3-0.6 0.2-0.9 0.2-0.8 1 0.4 0.8-0.6 0.5-0.7 0.3-0.7-0.2-1-0.7 0.7-0.9 0.4-0.5-0.2 0.3-0.9-0.5-0.5-0.2-0.8-0.3-0.7-0.7-0.1-1.1 0.1-0.2-0.5 0.1-1.1-0.1-0.5-0.2-0.6-0.3-0.6-2.5-2.9-0.7-0.9-0.3-0.7-0.3-0.6-2.5-1.4 0.2-32.2 0.8-2.9 1.3-1.1 2.3-1.3 0.9-0.8 2.4-2.6 4.8-3.2 4.4 3 0.4 0.7 0.5 1.1-0.2 1.7 0 1 0.2 0.9 0.5 1.4 0.4 0.4 0.5 0 0.6 0 0.5 0.1 1.1 0.8 0.6 0.4 0.7 0.1 1.6-0.2 0.8 0 0.9 0.1 1.9 0.9 1.2 0.4 1.1 0.1 0.5 0 0.8-0.2 0.6-0.3z" id="PNG1249" name="Central" data-id="PNG1249" data-name="Central">
 </path>
 <path d="M532.2 258.1l-0.1-1.6-0.6-1.1-4.7-4.6-2.7-3.3-0.7-1.3-0.4-1-0.1-2.6 0.1-1.4 0.2-0.7 2.8-1.4 1.7-0.7 0.9-0.2 5.8-0.3 1-0.3 0.9-0.5 1.1-0.9 0.4-0.2 1.2 0 4-0.9 0.5-0.4 0.1-0.4 0-0.5-0.2-0.6-0.2-0.7 0-0.9 0.2-1.1 0.2-0.5 0.4-0.3 0.5-0.1 0.4 0.1 1.8 0.9 0.7 0.3 0.7 0 0.7-0.2 0.6-0.5 2.8-2.9 0.8-0.6 2.8-1.6 1-1.2 0.6-0.8 0.3-0.9-0.1-0.5-0.2-0.5-0.7-0.3-0.5 0-1.3 0.1-0.6 0-0.5-0.1-0.4-0.3 0-0.6 4.4-10 5.2-8.5 0.6-0.6 5-2.6 0.4-0.1 11.5-0.5 0.9-0.9-2.2-2.3-0.1 0 0.7-0.9 1-1.8 0.4-0.9 0.2-1.1 0.1-1.3 0.3-0.4-0.1-0.6-0.6-0.5-0.2-0.6-0.7-1.2-0.2-0.6-0.1-2.1 0.3-4.3-0.5-2.1-1.2-1.5-0.5-1-0.2-1.3 0-2.3-0.2-1.1-0.5-1.2-0.7-0.8-1.7-1.3-0.6-0.9-0.3-0.9 0-1.1-0.2-0.6-1-0.9-0.3-0.5-0.1-0.6 0.4-1.1 0-0.5-0.7-1.5-0.3-1.2 0.1-0.9 0.6-0.8 1.1-1.2 0.8 0.3 2.9 0.6 2.2-0.1 0.7 0.1 0.9 0.5 0.6 0.1 0.7-0.1 0.6-0.2 0.5 0.2 0 0.9 0.9-0.6 1.1-0.1 2.2 0.3 0.7 0.1 1.9 0.9 0.6 0.5 0.3 1 0.2 1.4 0.5 1.1 1 0.5 1.2 0.2 2.2 0.7 1.1-0.1 0.7-0.5 1.7-2.3 0.3-1.1-0.6-0.9-0.9-0.8-0.4-0.7 0.5-1.1 0.9 0.2 1 0.5 1 0.4 1-0.2 0.5-0.2 0.5-0.3 1.3 0.3 0.6 0 0.7-0.8 0.2-1.2 0.5-1 1.2-0.3 0.8 0.9 1 0.8 0.8 0.9 0.6 2.4-0.1 0.4-0.7 0.2-1.3-0.3-0.4-0.1-0.2-1.1-0.3-0.5-0.6 0.1-0.3 0.5 0 0.8 0.3 1.3 0 2 0.4 0.6 1.1 0.3 0.6-0.3 0.5-0.2 0.7 0.1 0.4 0.4 0.4 0.5 0.5 0.4 0.7 0.2 3.3 0.4 1 0 2.2-0.7 0.8 0 0.3 0.9-0.2 0.8-2.7 6-0.2 1.9 0.5 1.8 1.5 3.3 0.6 2.1 0.1 2.3-0.9 3.5-0.4 2.3-3.5 5.4-0.5 0.3-0.2 0.2-0.9 1.8-0.4 0.4-0.9 0.5-1.1 1.3-0.8 0.4-2.3 0.3-1.7 0.6-1.1 0-2.7-0.7-0.8 0-1.1-0.3-0.6-0.1-0.6 0.5-0.7-0.3-1.2-0.6-1 0.7-0.3 1.1 0.2 6.3 0.3 1.4 0.5 0.8 2.7 2.2 0.4 0.4 0.1 0.6 0.3 0.3 0.6 0.3 1 0.3 2.2 2.8 0.2 0.9 1.1 2 0.1 1.3-1.6 3-0.3 0.1-0.5 0.8-0.3 0.8-0.5 0.1-1.2 0-2.5 1.4-0.4 0.3-2.2 2.4-0.5 0.1-1.7 0.2-1.7 0.7-0.7 0.1-0.8 0.4-0.9 0.9-1.1 0.7-1.4 0.2-1.2-0.6-1.5-1.9-1-0.8-1-0.3-1.3-0.1-1.3 0.1-0.9 0.5-1.3 1.7-0.6 0.3-0.7-0.2-0.1-0.4 0-0.5-0.3-0.6-1-0.5-3.6 0-1.8-0.3-0.8 0.3-0.7 0.7-0.3 1.2 0.3 0.9 0.5 0.7 0.3 0.7 0.2 0.2 1.3 0.1 0.5 0.1 1.4 1.5 0.2 0.9-1 0.9-1.4 0.5-1.2-0.3-0.9 0.5-1 0.7-0.8 0.8-0.3 0.7-0.1 1.1-0.3 1.1-0.4 0.9-0.5 0.6-1.6 1.6-0.7 0.5-1.7 0.6-0.8 0.2-0.5-0.1-0.7 1-2 1.4-0.9 0.9-0.3 0.6-0.3 0.8-1.4 1.2-0.3-0.1-0.3-0.6-3 1.1-1.5 0.7-0.6 1-0.8 1.4-1.6 0.1-3.1-0.6-3.9 0.9-0.6 0.4-0.5 0.5-1-0.6-1.8-1.6-0.3 0-0.6 1.3-0.2 0.6 0.5 1.2-0.2 0.7-0.4 0.6-0.5 1.4-0.6 0.3-0.7 0.2z m92.2-103.3l-0.7-0.2-1.5-0.3 0-0.8-0.1-0.5-0.4-0.5-0.6-0.3 1.4-0.9 0.4-0.5 0.4-0.8 1.6 1.7 0.2 1-0.3 1-0.4 1.1z m-21.8-4.7l-0.2 0.5-1.1-0.2-0.4-0.5 0.1-1.1 0.7-0.5 0.4 0 0 0.3 0.6 0.4 0 0.9-0.1 0.2z" id="PNG1250" name="East New Britain" data-id="PNG1250" data-name="East New Britain">
 </path>
 <path d="M377.5 51.4l-1.3 2.1-0.9 0.8-1.3 0.4-2.2 0-0.8-0.1-0.5-0.2-1.1-0.8 0.4-0.7 1.4 0.4 1.2-0.5 0.7-1.1-0.4-1.4 0.5-0.3 0.4-0.4 0.3-0.4-0.1-0.4 0.8 0 1.1 1.5 0.8 0.7 1 0.4z m-53-17.9l1.2 0.6 1.4-0.5 9.1 0.5 0.5 0.3 0.6 0.6 0.6 0.7 0.3 0.6 0.4 0 0.2-0.8 0.7-0.5 0.6 0 0.6 1 0.8 0.1 1.5-0.1 2.2 0.9 0.4 0 0.4 0.2 2.1 0.7 0.9-0.2 1.4 0 1.4 0.3 0.8 0.6 0.3 0 0-1.4-0.1-0.5-0.5-0.8-0.1-0.4-0.4-0.5-0.8-0.5-0.3-0.4 0.8-0.2 0.5 0.3 0.9 0.9 0.6 0.2 0.5 0.3 0.1 0.8-0.1 1.7-0.6 1.3-1.6 0.3-1.9-0.1-1.8 0.2 0.3-0.3 0.5-0.9-1.1 0-0.5 0.3-0.3 0.6-0.3 1-0.4 0-0.4-0.9-0.5 0.9-0.4 1.4 0 0.8-0.6 0.4-1.7 2.2-0.8 0.7-0.6 0.1-0.5 0.1-1.1-0.2-1.9-1-0.5-0.1-1.2 0.2-2 1.1-1.4 0.1 0.1-0.4 0.3-0.3-1.7 0.6-1.7 0.3-1.8 0.1-6.1-1-0.3-0.1-0.4-0.5-0.6-0.1-0.8 0.3-0.3-0.1-0.7-0.8-0.7-0.3-0.7-1-0.6-0.3-1 0-1.3-0.4-0.3 0-0.3 0.5 0 0.5 0.3 0.3 1.3 0.5 0.4 0.8-0.1 0.7-0.8 0.4-2 0.3-0.9-0.2-0.5-0.9-1.1 0.5-0.9 0.2-0.7 0.4-0.6 1.9-0.8 0.2-1-0.4-0.8-0.9-0.4-0.8-0.6-2.1 0-0.6 0.9-1 0.5-0.3 0.9 0.3 0.5 0 1.7-0.4 0.4-0.1 0.3-0.2 0.2-0.7-0.1-0.6-0.4-0.7-1.2-1.6-0.3-0.5-0.2-0.6 0-0.6 0-0.7 0.3-0.2 0.8 0.4 0.4 0.5 0.4 0.3 0.6-0.1 0.2-0.4 0.4-1.5 0.8-0.6 0.6 0 0.5 0.5 0.3 0.2 0.6-0.1 0.9-0.3 0.5 0 0.7 0.1 1.3 0.5 0.8 0.1 0.7-0.2 2-1.2 1.4-0.5 1.3-0.1 1.2 0.3z" id="PNG1251" name="Manus" data-id="PNG1251" data-name="Manus">
 </path>
 <path d="M665.3 541.5l1.1 0.3 1-0.3 0.5 0 0.3 0.9 0.5 0.2 1.2 0.3 1.3 0.9 0.5 0.3 1.3 0.2 0.5 0.2 1.5 1.3 3.4 1.3 2.5 1.6 0.6 0.2 1.1 0.1 6.2 1.7 0.5 0.3 0.2 0.6 0.4 0.5 0.5 0.4 1.2 0.4 0.3 0.4 0.4 0.9 0.9 0.5 0.1 0.2-0.1 0.6-0.3 0.2-0.3-0.1-0.3-0.3-0.8 0.4-0.3-0.1-0.4-0.3-0.6 0.5-0.6 0.2-0.7 0-0.7-0.3-0.2 0.7-0.3 0-0.8-0.3-2.3 0-0.3-0.1-0.2-0.3-0.6 0.2-0.4 0.4-0.8 0.4-0.6 0.3-0.4 0-0.4-0.9 0.5 0 0.4-0.1 0.3-0.2-0.1-0.5-0.3-0.3-0.4 0-0.9 0.3-0.5-0.2-0.5-0.7-0.2-0.2-1 0.3-0.4 0-0.6-0.3 0.4-0.8-0.5 0-0.2-0.2-0.1-0.3 0.1-0.6-0.6 0.4-0.9 1-0.6 0.1-2-1.1-0.8 0.5-0.5-0.4-0.2-0.8 0-0.8 0.9-0.9 0.2-0.5-0.3-0.5-0.6-0.3-0.4 0.5-0.3 0.2-0.4-0.1-0.5-0.7-0.8 0.3-0.8 0.5-1.3 1.1-0.3-1.1 2.1-1 0-0.9-0.5-0.3-1.2 0-0.5-0.1-0.5-0.4-0.6-1-0.6-0.6-0.4-0.1-0.7 0.2-0.2-0.5 0.3-1.2-0.1-0.3-0.7-0.2-0.4-0.2-0.4-0.3-0.5-0.8 0.1-0.7 0.1-0.6 0.5-1.2 2.8 2z m51.8-2.1l0.3 0.5 0.2 0.3 0.7-0.3 1.1 0.5 0.5 0.4 0.3 0.4 0 0.6 0.3 0.6 0.3 0.6 0.4 0.3-0.3 0.7-0.4 0.5-0.5 0.4-0.6 0.3-0.4-0.8-1-0.4-1.2-0.1-1.1 0.2-1.9 0.9-0.8 0-0.2-1.4-0.3 0-0.4 1.5-0.7 0.6-1.2 0-1.4-0.5-0.8 0.1-0.5-0.3-0.2-0.8-0.2-0.3-0.5-0.3-0.6-0.2-0.5-0.1 0.6-0.7 0.9-0.5-0.3-0.2-0.5-0.8 0.5 0 0.3 0.3 0.9 0.5 2.3 0.2 1.2 0.5 0.3-0.5 0.7 0.4 0.3-0.2 0.1-0.4-0.3-0.5-0.4 0 0 0.4-0.4 0-0.7-0.5-0.2-0.3 0.2-0.3-0.5-0.2-0.3-0.4-0.3-0.4 0-0.5 1 0.3 1.5 0 2.2-0.3 0.7 0.3 0.4 0 0.9-0.3 0.5 0.2z m-52-3.9l-0.5 1.1-0.5 0.4-0.6-0.2-0.2 0.2-0.5 0.3-0.7 0.2-0.7-0.1 0.8-0.4 0-0.4-1.5-1.1-0.4 0.3-0.2-0.1-0.5-0.6-1.8-1.1-0.9-1 0.2-0.7 0.7-0.2 0.7 0.3 0.7 0.6 2.6 0.6 2.3 1.6 1 0.3z m-37.4-34.1l3.5 1 0.7-0.1 0.5 0.1 1.6 1 0.7 0.3 1.6-0.5 1.8-1 1.8-0.6 1.4 0.5 0.4 0.1 1.8 0.7 0.7 0.4 0.5 0.6-0.1 0.5-0.4 0.4-0.7 0.4-0.6 0.1-2.4 0.2-0.6 0.2-1 0.4-0.6 0.2-1.2-0.1-1.5-0.4-3.1-1.4-3.3-0.7-2.3-1.6 0-0.3 0.4 0 0.4-0.4z m-81.2-0.9l0.5 0.2 0.4-0.1 0.3-0.6 0.4 0.3 0 0.3 0.4 0.1-1.5 1.2-0.1 0.5 1.2 0.2-1.1 1.1-0.1 0.5-0.7 0.1-0.9-0.5-0.5-1.1-0.4-0.4-2.4 0-0.9-0.2-0.2 0.8 0 1.4-0.5 0.5-0.5-1.6-0.1-0.8 0.2-1 0.4-0.6 0.5-0.4 0.8-0.3 0.9-0.2 2.9 0 0.5 0.2 0.5 0.4z m-11.9-3.3l0.3 0.5 0.7-0.1 0.8 0 0.7-0.2 0.7-0.5 0.7 0.3 0.6 0.5 0.1 0.6-0.7 0.9 0.4 0.3-0.2 0.6 0 0.8-0.2 0.5 0.4 0.6 0 0.5-0.2 0.4-0.5 0.4-1.1-0.5-1.3-0.5-1.4-0.1-1 0.4-0.6-1.1-0.4-0.5-0.4-0.3 0.3-0.4 0.8 0.5 0.9 0.5 0.9 0.3 1.1 0.2 1 0 0.3-0.1-0.3-0.4-3.6-3.2-0.3-0.5 0.1-0.5 0.5-0.3 0.5 0.1 0.4 0.3z m12.4-33l0.8 1-1.3-0.3-0.4 0.8 0.2 1.1 0.5 0.6 0.6 0.3 1.9 1.5 1 0.5 1 0.3 0.4 0 0.4-0.3 0.3-0.6 0.1-0.6-0.2-0.5-0.4-0.2 0-0.4 0.7-0.9 1.3-1.3 1.5-1 2.2-0.7 2.1 0.3 0.8 2.1-0.2 1.2-1 2.3-0.4 2.3-1.6 3.2-0.4 0.3 0.2 0.6-0.5 1.8 0.3 1-1.1-0.8-1.9-1.6-1.1-0.5-5.4-1.6-2.6-0.3-1.1 0-0.8-0.1-0.7-0.3-0.2-0.8-0.2-1.6 0.1-1.5 0.7-0.2 0.4-0.6 0.7-0.7 0.4-0.7-1-0.5-0.5-0.5-0.8-1.1-0.3 0 0.1 1.4-0.9 0.9-1.2 0-0.6-1-0.1-0.4-0.6-0.5-0.1-0.5 0.1-2.7-0.2-0.4-1.1-1.5-0.2-0.4-0.2-0.6-0.3-0.6-0.6-0.3-1.1-0.3-0.4-1-1.1-0.2-0.3-0.1-0.6-0.5-0.5-0.6-0.3-0.7-0.1-1 0.1-0.9 0.2-1.1 0.3-0.7 1.6 0.8 1 0.8 0.9 1 0.3 1.2 0.5 1.2 1.2 0.7 1.5 0.6 1.2 0.7 3.5 3.9 0.9 0.6 1.4 0.5 1.2 0.7z m-73.3 21.8l-0.2-10.9-0.3-1-0.8-1.5-1.2-0.4-3.1-1.4-1.5-1.2-1.4-0.9-2.7-1.2-0.4-0.3-2.4-2.2-0.9-0.7-0.9-0.4-2.9-0.4-0.3-0.1-0.3-0.5-1-2.4-0.9-0.9-0.8-0.7-3-1.5-4.1-1.4-3.5-0.6-1.7-0.2-1.5 0.1-0.9 0.1-1 0.3-1 0.3 0-1.9 0.3-1.3 0.2-0.4 0.6-0.8 0.9-0.6 0.6-0.3 0.7-0.1 1.3 0 0.8 0.2 2 0.7 0.4 0.1 16-4.5 2.6-1.1 0.7-0.4 4.2-0.1 1.1 0.3 3.2 1.3 0.8-0.1 0.9-0.7 0.6-0.2 0.5 0.1 0.8 0.3 0.5-0.1 1.3-0.5 0.5-0.1 1.2 0.2 2.1 0.7 2.6 0.3 2.5 1 1.3 0.1 3.4-0.5 1.4 0.2 0.6 0.4 0.7 1.7 0.5 0.3 0.4 0.1 0.3 0.2 0.3 0.9 0.1 0.8-1.2 0.3-2.9 1.5-1.1 0.4-3.8 0.7-2 0.7-1.3 0.1-1-0.4-0.7 0.6-2.6 0.7-0.8 0.5-0.5 1.2 0.2 0.9 1.4 1.7 4 3.2 1.6 2-0.1 2.2 1.4 0.1 0.8 0.3 1.7 1.7 0.7 0.5 0.9 0.4 1.1 0.3 1 0.1 3.1-0.2 1.1 0.2 1 0.3 1.9 1.2 0.4 0.1 0.7-0.1 0.5-0.2 1-0.4 0.6-0.2 0.5 0.3 0.3 0.5 0.6 0.9 1.7 0.5 0.4 0.3 0.8 1.1 1 0.8 0.7 0.4 2.2 0.5 2.2 0.8 1.2 0.2 1-0.3 1 0.1 0.6 0 0.2-0.3 2.2 0.5 1.4 0.6 0.6-0.1 0.8-0.6 0.5-0.1 2.2 0.2-0.3 0.5-0.7 0.7-0.1 0.4 0.4 0.5 1.2 0.8 0.3 0.7 0.6 0.3 1.4-0.2 3.5-0.8 3.5-0.2 0.8-0.3 1.6-1.2 1-0.4 1.4 0.2-0.1 0.7-1 0.7-2.2 0.5-6.6 3.6-1.9 0.7-2 0.3-0.9 0-0.6-0.3-1.1 0.1-2.4-1-1.1-0.3-2.2-0.1-1.1-0.3-0.7-0.5-1.5 0-1.8 1.5-1 2.1 0.8 1.9 0.3-0.1 0.1-0.4 0.7 0.5 2.5 0.1 1 0.4 0.4 0.3 0.6 0.1 1.8 0.3 0.5 0.3 0.9 0.7 6.5 2 1.2 1 0.4 1.9 0.6 0.8 0.2 0.6-0.3 0.6-0.8 0.5-6.5 2.4-0.8-0.4-1.4 0.3-0.8 0-0.4 0.2-0.8 0.5-0.1 0.3-0.6 0.6-0.5 0.6-0.3-0.1-0.5 0.5-0.3 0.4 0 0.8-0.7-0.4-1 0-0.9 0.1-0.6 0.3-0.7-1.3-0.9-0.4-1.1 0.3-2.5 1.3-0.4 0-0.7-0.5-0.6 0-0.5 0.4-1.1 0.9-0.3-0.4-1.3-0.9-0.2-0.4 0.6-0.7 0.1-0.4-0.5-0.4-1.3 0.2-1.4 0.6-0.8 0.5-1.1-1.4-0.5-0.3-0.5 0.3-0.5 0-0.7-0.9-0.4-0.3-1.3 0-0.5-0.4 1-0.6-0.2-0.6-0.5-0.6-0.5-0.8-0.4 0.5-0.5 1-0.5 0-0.4-0.2-0.9-0.5 0.1-0.3 0.2-0.9-0.6 0.5-0.1 0.3-0.4 0-0.3-0.5-0.7-0.4-1.6-0.6 0.4 0.7-0.3 0.1-0.1 0.3-1-0.5-1.2-0.2 0.6-0.7 0.9-0.2 0.6-0.4 0.1-1-1 0.4 0.2-0.4 0.3-0.3 0.9-0.4 0.4 0.6 0.6 0.1 1.4-0.4 2.4 0.7 2.5-0.8 0.4-0.2 0.1-0.3 0.2-0.9 0.1-0.3 0.3-0.2 1.2-0.2-0.7-0.3-0.7 0-0.8 0-0.8-0.1-0.5-0.2-1.1-0.7-1.2-0.2-0.6-0.3-0.4-0.1-0.2 0.1-0.4 0.6-0.2 0.1-0.2 1.2-0.2 0.9-0.5 0.5-0.4-0.4-0.2-0.3-0.2-1.4-0.7-0.5-0.4-1.4-0.3-0.5-0.5-0.5-1.4-0.9-3-0.9-1.1-0.9-1.2-0.5-1.7-0.2-2 0.1z m72.4-36.8l-0.7 0.5-0.3-0.3-0.1-0.6-0.7-1-1.5-0.8-0.7-0.7 0.2-0.8 1-0.5 1-0.2 0.8 0.3 0.5 0.4 0.4 0.8-0.2 0.9-0.4 0.2 0.1 0.6 0.6 0.3 0.2 0.3-0.2 0.6z m-20.1-12.5l1 0.4 0.7-0.1 1-0.5 1.1-0.1 1-0.4 0.8-1 2.1 1.4 1.6 1.6 0.3 0.4 0 0.3-0.1 0.8 0.1 0.3 0.5 0.5 0.8 0.5 0.8 0.4 0.6 0.1 0.2 0.3-0.3 2.2-0.3 0.4-0.8 0.3 0.3 0.6 0.6 0.4 0.6 0 0.5 0.1 0.3 1.4 1 0.6 0.3 0.4 0.1 0.8-0.4 0.6-0.5 0.5-0.7 0.4-0.5-0.6-0.9 0.6-1.8 1.8 0-0.9 0.5-1.3 0.2-0.6-0.4-0.4-0.8-0.2-1.7 0.1 0.2 0.9-1.1-0.1-2.2-0.8-3.4 0.3-1.2 0-1.9-0.5-1.8-0.8-2.1-0.6-2.3 0.1-2.1 0.3-1.8 0-0.2-0.4 0.8-0.8 1.8-1.3 1.3-0.7 0.5-0.6 0.1-0.8 0-1.1-0.4-0.6-2.6-1.5-1.6-3.7-0.2-1.7 0.5-1.2 1.1-0.9 1.4-0.6 1.4 0 3.1 1.6 1.8 0.5 0.7 0.7 1 1.2 1.4 1z m-15.5-3.6l0.7 1 0.1 0.2-0.6 0.7-0.3 0.9-0.9 2-0.5 0.6-0.1 0.4 0.4 0.2 1 0-0.1 0.9-0.3 0.6-0.9 1-1.4-0.1-1.5-0.5-1.3-0.8-0.4 0.4 0-0.9 0-0.8-0.3-0.7-0.6-0.2-0.8-0.1-2.1-0.7-0.5-0.2-0.6-1.3-0.4-0.5-2.1-1.8-0.3-0.5 0-1.7 0.3-1.6 0.5-1.5 1-1.3 1.3-1.1 1.3-0.9 1.3-0.3 1.3 0.4 2.8 1.6 1.3 0.9 1 1.3 1 2.3 0.2 1.3 0.5 0.8z m112.7-22.5l2.5 2.5 4.4-0.4 2.3 0.3 1.4 0.3 1.9 0.3 1.7-0.3 2.1 0.1 1 0.1 0.8 0.4 0.5 0.7 0.6 0.2 1 1.7 1 0.6 1.7 0.5 1-0.5 1.3 0.8 0.5 0.6-0.1 1.3 1.3 0.5 1.2 0.7 0.9 0.4-0.9 0.7-0.4 0.6 0.3 0.3-0.4 0.8-0.6 0.1-0.5-0.3-0.4-0.4-0.7-0.4-0.3 0.3-0.5 0.6 0.1 0.5 1 0.7 1 0.9 0.3 0.9-0.4 0.6-0.4 0-0.2-0.8-0.8-0.8-1.1 0-1.4 1.2-2.2 0.2-1 0.3-0.4-0.3-0.9 0.1-0.4-0.8-0.8-1-0.8-0.3-0.8-0.7-0.4-0.8-0.4-0.4-0.3 0.7-0.6 0.5 0.1 0.8 1.3 0.3-0.1 1-0.8 1-0.8-1.6-1.1-0.4-1.5-0.6-0.9-0.5-0.6-1.2 0.3-0.8 1.2 1 1.2 0-0.3-0.8 0.3-0.5 0.4-0.2 0.6-0.2-0.5-0.5-0.4-0.3-1.7-0.9-1.6-1.2-1.2-0.9-0.8-0.9-1.3 0.6-0.5-0.3-0.7-0.7-0.8-0.5-1.6-0.7-1.9 0.4-0.3-0.5 1.8-0.7 0-0.4-0.2-0.9-1.2-1.3-1.1-0.6-1.4 1-0.1 0.9 0.2 1 0 2.2 0 0.6-0.3 0.8-0.6-2.8-1.2-2.3 0.9-1.1 2.5-1.4 1 0.3z m-71.8-28.5l-0.4 0.1-0.1 2.6-0.2 1.1-0.4 1.1 1.6 1.8 0 2.3-1.8 7.6-0.1 1.4 0.5 0.7 0.7 0.4 0.7 1 0.3 1.1-0.1 0.8-0.6-0.6-1.6-2.7-3-2-0.1-0.3 0.2-0.4 2.6-3.6 1.2-2.8 0.2-1-0.2-0.2-0.9-0.9-0.7-0.5-0.4-0.2-3.1-0.2-0.9-0.5-0.4-1 1-1.3 0.2-1.2 0.3-0.6 0.9-1 0.9-0.7 1.2-0.4 2.5-0.2 0 0.3z" id="PNG1252" name="Milne Bay" data-id="PNG1252" data-name="Milne Bay">
 </path>
 <path d="M382.6 359.3l-52.7-0.2-0.6 0.3-0.8 0.2-0.5 0-1.1-0.1-1.2-0.4-1.9-0.9-0.9-0.1-0.8 0-1.6 0.2-0.7-0.1-0.6-0.4-1.1-0.8-0.5-0.1-0.6 0-0.5 0-0.4-0.4-0.5-1.4-0.2-0.9 0-1 0.2-1.7-0.5-1.1-0.4-0.7-4.4-3-11.5-7.8-15.6-4.3-1.3-0.6-0.8-0.7-1.5-2.2-1.1-2.2-10-11.1 2.3-7.1 0.6-1 0.3-0.6 1.4-4.9 0.3-0.7 0.4-0.7 0.7-0.8 2.2-1.9 0.4-0.6 0.5-0.7 0.2-1 0-1-0.6-1.9-0.2-1.1-0.2-0.9-0.3-0.7-0.2-0.7 0-0.6 0.4-0.5 1.2-1.2 0.6-0.8 0.4-0.9 4.8-23 0-1.2-0.4-0.9-0.5-0.6-6.9-4.5-0.8-0.5-0.1-0.8-0.2-0.8-1.2 0.5-0.3 0.2-0.7-0.9-0.9-0.7-0.7-0.8-0.6-2-0.7-0.6 32.8 0.1 16.7-9.8 0.3 0.9 0.8 0.3 0.9-0.3 0.9-0.3 1.2-0.1 1 0.1 0.8 0.3 0.8 0.1 0.8 0.4 0.4 0.8 0.4 0.9 0.4 0.9 2.8 1.8 1 0.2 0.5 0.2 0.4 0.4 0.4-0.2 0.8-0.6 0.6 0 0.3 0.1 0.6 0.6 0.7 1.2 0.5 0.5 0.3-0.3 0.6-0.3 5 0.6 0.4 0 0.6-0.2 0.6-0.4 0.5-0.7 0.5-0.5 0.8-0.2 0.4 0.1 1.4 0.6 0.3 0 0.4-0.5 0.4-0.3 0.3 0.1 0.2 0.3 2.7 1 2.4 0.3 1 0.4 0.7 0.6 0.6 0.7 0.9 0.3 0.2 0.1 0.3 1.1 0.4 0.4 1.4 0.7 3.8 3.5 1.4 2.6 0.6 0.6 0.8 0.5 0.5 1.2 0.5 1.4 1.8 2.7 4 2 1.4 1.4 0.2 0.7-0.3 0.9 0.1 0.6 0.3 0.7 0.5 0.6 0.4 0.6 0.3 1.5 0.5 1.3 0.1 0.7-0.1 0.4-0.3 0.4-0.2 0.5 0.3 0.7-0.6 0.7 0.1 0.8 0.3 0.9 0.2 1.1-0.2 0.3-0.9 0.6 0.1 0.7 0.2 0.4 0.4 0 0.4-0.3-0.4 4.4-4.2 1.4-9.4 0.5-0.5 0.3-0.9 0.9-0.4 0.2-0.6 0-1.2-0.4-0.6 0.3-1 0.2-3.5-1.2-1.3 0-2.2 0.6-1.1 0.2-8.4-0.5-0.6 0.1-0.3-0.5-0.4-0.5-0.5-0.3-0.7-0.2-0.8-0.1-2.7 0.1-0.7 0.3-1.3 1-0.9 0.2-1.8-0.1-0.9 0.1-0.8 0.4-0.1 1.3-0.8 2.2-0.2 1.3 0.1 2.6 0.3 2.5 0.4 1.3 1.7 2.2 1.2 1 0.5 0.7 0.4 0.3 0.6 0.1 0.4-0.1 0.7-0.6 0.7-0.4-0.1 0.7-0.6 1.1-0.1 0.4 0.1 0.7 0.5 0.9 0.2 0.6-0.1 0.7-0.4 1.3 0.1 0.7 0.2 0 2.8 2.2 0.6 0.7 0.5 0.7 0.2 1.2-0.3 2.5 0.7 1.4-0.5 0.4-0.1 0.5 0.3 0.5 0.4 1 0.2 1.6 0.2 0.5 0.8 1.4 0.3 0.5 0.5 0.5 0.2 0.2-0.1 0.3-0.6 0.3 0 0.2 0.3 0.5 0.6 0 0.5 0.2 0.3 0.4 0.1 0.6 0.7 0.2 0.3-0.2 0.9-1 0.3 0 0.6 0.6 0 0.3-0.2 0.3 3.2 0.7 1.6 0.8 0.7 1.2 0.2 0.6 0.5 0.3 1.8 0.2 0.5 0.4 0.4 0.4 0.6 0.5-0.4 0.5 0.3 0.1 0.6 0.1 0.6 0.1 1.3 1 0.6 0.7 0.3 0.7-0.1 2 0.6 0.5 2.9 0.5 0.7 0.4 0.3 0.8 0 1.4 0.4 1.1 0.7 0.9 0.4 0.8-0.4 1.1 2.6-0.4 0-0.4-0.5-0.2-0.4-0.4-0.2-0.5 0-0.7 1.4 1.1 1.2 1.2 0.8 1.5 0.4 3.5 0.4 0.9 0.7 0.6 1 0.4 0.8 0.1 1.7-0.4 1.1 0 0.7 0.4 0.4 0.2 0.6-0.5 0.5-0.2 0.6 0.1 0.6 0.2 2.5 1.9 1.2 0.6 1.2 0.2 0.4 0.5 0.1 0.4z m-7.9-135.8l0.4 0.1 0.6-0.2 0.6 0.6 1.2 1.4 0.7 0.6 0.8 0.4 2.1 0.3 1.4 0.6 1.4 0.7 2.6 1.9 1.2 1.3 0.3 1.4-0.5 4.8-1.2 2.7-0.4 1.4-0.5-0.3-0.2 0.3 0 1.1-0.6-0.1-0.4 0.1-0.4 0.3-0.4 0.4-0.3-0.7-0.2-1.8-0.3-0.8-0.4-0.4-0.7-0.4-1.5-0.3-1.7-0.2-0.8-0.4-0.8-0.9-0.1-0.4-0.2-1.1-0.3-0.5-2.1-1.7-0.6-0.8-1.1-1.7-0.8-1-0.2-0.5 0-0.5 0.3-1.4-0.2-2.5 0.2-0.8 0.6-0.6 1.3-0.3 0.7-0.6 0.1 0.3 0.4 0.2z m17.1-2.2l-1.5 1-1.6-0.5-0.8-1.5 0.1-1.7 1.2-1.1 1.4 0.8 1.1 1.5 0.1 1.5z m-26.8-6.8l-0.5 0.9-0.5 0.5-1.6 0.9-1.1-1.6-0.6 0.1-0.2-0.3 0-0.4-0.1-0.3 0-0.5 0.7-0.6 0.9-0.4 0.8-0.1 1 0.1 0.4 0.5 0.3 0.7 0.5 0.5z" id="PNG1253" name="Morobe" data-id="PNG1253" data-name="Morobe">
 </path>
 <path d="M345.7 441.6l-0.5-0.3-0.9-0.3-0.6-0.1-0.2 0.5 0.6 1.1-1.3 0-1.6-0.5-1.7-0.8-1.1-0.8-0.3-0.6-0.3-1.9-0.3-0.7-0.7-0.5-0.6-0.1-0.8 0-0.9 0.3 0.3 0.4 0.9 0.3 0.3 0.4 0.1 0.6 0 0.5-0.2 0.3-0.2 0.1-1.5-1.2-0.4-0.6-0.2-0.4 0-0.4 0.3-0.5 0.8-0.4 2.3-0.7 1.9-1.1 0.7-0.2 0.6 0.1 0.5 0.3 0.8 0.8 0.5 0.2 0.4 0.1 1.2-0.1 0.5 0.2 0.6 0.7 0.5 1.4 0.4 1.8 0.1 2.1z" id="PNG1254" name="National Capital District" data-id="PNG1254" data-name="National Capital District">
 </path>
 <path d="M687.4 148.3l-0.7 1.7-1.5 0.4-1.4-1.5-0.6-0.1-0.1-0.6 0.6-1.3 0.7-0.9 0.6-0.8 1-0.6 0.9 0 0.2 1-0.4 0.4 0.7 2.3z m4.1-4.1l-0.1 0.9-0.6 0.5-0.8-0.1-0.5-0.4-0.7-0.4-0.9 0.2 0.4-0.6 1.2-0.5 0.5-0.4 1 0.1 0.5 0.7z m-26.1-28.6l0.1 0.9-0.5-0.2-0.2 0.2-0.7-0.5-1.6-0.6-0.7-0.4 1.6-1.2 0.6-0.2 1 1.2 0.4 0.8z m4.8-4.6l-0.3 1.1-0.7-1-1-0.1-1.2 0.3-1.1 0.1 0.2-0.6 0.5-0.5 1.1-0.8 1.4 0 0.8 0.6 0.3 0.9z m-37.2-9.7l-0.5 0.5-0.6-0.3-1.6-1.3-0.4-0.4-2.8-3-0.4-0.7-0.5-1.1 0.2-1.2 1.1-1 1.3-0.9 2-0.2 2 0.5-0.1 3 0.1 0.7 0.3 0.3 0.6 0.1 0.2 0.3 0.1 0.6-0.4 1.2-0.8 1.8 0.2 1.1z m-89.4-14.1l0.4 0.3 0.6 0.1 0.5-0.1 0.4 0.1 0.4 0.5-1 0.3-0.9 0.5-0.3-0.8-0.5-0.2-1.4 0.2-2.4 0-2.6-0.5-1.2 0-0.7 0.9-0.8-0.3-0.5 0.2-0.4 0.3-0.7 0.2-0.4-0.3 0.5-0.6 1.2-0.9 0.8 0.1 1.3-0.8 2.3-1.9 3.2 1.1 1.2 0.7 1 0.9z m57.1 2.3l-1.4 0-1-1.5-0.7-1.2 0-1.9-0.2-0.7-0.6-0.2-0.6-0.3-0.4-0.7 0.3 0 0-0.7 0.4-0.7 0.6-0.3 0.5 0.6 0.7 1.2 1 1.1 1.1 0.7 1.4 0.4 0.4 0.6 0 1.5-0.8 0.9-0.7 1.2z m-3-10.4l0.3 0.7 0.7-0.4-0.4 0.7-1 0.6-1.2 0.3-2 0.8-0.6-0.4 0-1.7-0.4-3.2 0.2-2.6 1.3 0 2.2 0.8 0.4 0.3 1.1 0.9 0.2 0.1 0 0.5 0.1 1.1-0.1 1-0.9 0.4 0.1 0.1z m1.2-7.5l-1.8 0-1.2-0.6 0-1.3 0.8-1.3 1.3-0.4 0.8 0.4 0.7 0.9 0.5 0.8 0 0.4-0.6 1-0.5 0.1z m-52.1 2.6l0.2 0.2 0.5 1.2 0.3 0.4 0.6 0.3 0.6 0 0.6 0.2 4 1.7 1.1 1.2 0.4 2 0.9 1.3 2.2 0.4 4-0.1 0.6 0.1 0.3 0.4 0.6 0.8 0.5 0.3 0.5-0.1 1-0.4 1.1 0.3 1.1 0.4 0.9 0.7 0.9 0.8 1.7 2 0.3 0.1 1.2 0 0.5 0.1 3.1 2.3 0.6-0.1 4.1 2.6 1 1.1 0.6 1 0.9 1.1 1.1 0.8 1.4-0.3 0.4 1.4 0.6 0.9 0.8 0.5 0.8 0.1 2-0.1 0.6 0.1 1.1 0.7 0.6 0.1 0.8-0.4 0.6 0.3 0.9 0.9 1 0.7 1.8 0 0.6 0.1 0.7 0.6 1.3 0.1 0 0.3 0.2 0.6-0.1 0.9 0.7 0.3 0.4 0.4 1.9 2 2.7 3.8 1.4 1.6 1.6 1.4 2 1.1 3.7 1.8 0.9 0.8 1 0.6 0.2 0.3 0.4 2 0.2 0.2 0.4 0.1 0.3 0.2 0.5 0.9 0.7 0.8 0.4 1.3 0.4 0.6 1.1 0.7 1.1-0.1 0.9-0.5 0.6-0.9 0.7 0.8 0.7 1 0.6 1.1 0.2 1 0.2 0.5 1 1.1 0.2 0.6-0.1 0.7-0.3 1 0.2 0.7 1 1 0 0.1 0.5 0.2 0.6 0.1 1.3 0.1 1.3 0.2 0.9 0.7 0.9 0.8 1.1 0.9 1 0.5 1 0.3 1 0.3 1.2 0 1.1-0.4 0.8-0.8 0.6-0.2 0.7 1.4 0.1 0.6 0.1 1.1 0.1 0.5 0.3 0.5 0.7 1 0.1 0.5 0.4 0.8 1.1 0.4 1.2 0.1 1 0 0.7-0.7 0.6 0.7 0.1 0.7-0.1 0.7 0.1 0.8 0.6 0.8 1.7 1.4 0.7 0.7 1.4 3 0.9 1.2 0.5 0.9-0.1 0.5 1 0.4 1.3 1 1.1 1.3 0.5 1.1-0.5 3-0.1 1.4 0.6 1.3-1.4 1.5-3.1 2.7-0.7 1.8 0.2 1 0.5 0.6 0.6 0.6 0.6 0.7 0.2 0.7 0 0.9 0 0.8-0.2 0.9-0.4 0.4-1.3 0.9-0.5 0.5 0.1 1.4-0.1 0.5-0.3 0.5-0.8 0.6-0.4 0.4-0.4 0.7-0.6 1.7-0.4 0.9-0.5 0.5-0.5 0.3-0.5 0.5-0.4 0.9-1.1-0.4-0.5 0.8-0.3 1.2-0.6 1-0.5-1.7-0.8-1.5-1.3-1.4-1.9-1 0.2-1.3-1.5-1.3-1.9-1.4-1.2-1.1-0.2-0.9-0.1-3-0.3-0.3-1.1-0.6-0.5-0.3-0.1-0.4-0.4-2.7-0.5-1.8-0.1-0.7 1-2.5 0.1-0.4 0.7-5.8-0.7-1.3 0.4-0.6-0.1-0.7-0.2-0.7-0.4-0.5 0.4-1 0.1-1-0.4-1-1.4-1.8-2.6-5.3-0.4-1.5-0.3-0.9-0.9-1.5-1.2-1.2-0.4-0.6-0.2-1-0.2-0.2-0.8-0.6-0.2-0.3 0-0.6-0.2-0.6-0.2-0.5-0.3-0.3-0.4-0.2-1 0-0.5-0.2-0.3-0.4-0.6-1.2-0.9-0.7-4.5-5.6-0.2-0.5 0.2-1.3-0.1-0.4-0.5-0.4-0.8-0.6-1.3-1.3-0.6-0.7-0.6-1.5-0.8-0.3-0.9-0.2-0.9-0.4-0.2-0.2-0.5-1.3-0.5-0.3-1-0.5-1.4-1.1-1-0.1-1.1 0-8-1.5-2-0.8-7.3-4.5-10.6-10.5-0.8-0.5-3.4-0.8-3.2-1.3-0.4-0.3-0.7-0.9-0.2-1.1-0.2-0.4-0.8-0.7-3.5-2-1-0.8-0.4-0.2-2.5-0.9-1.2-1.2-0.5-0.4-1-0.3-0.9-0.2-0.8-0.3-0.3-0.9-1.3-1.3-1.1 0-0.4 0 0-0.5-0.1-0.2-0.8-0.5-0.7-0.6-0.3-0.7-0.7-0.4-0.7-0.5-0.6-0.1-1.8-0.3-0.4-0.2-0.6-0.7-0.7-0.7-0.8-0.4-0.6-0.2-1.3-0.2-1.5-0.7-1.1-0.1-4.2 0.8-2.2 0-1.9-0.6-1.1-1.3 0-0.6 0.4-0.8 0.7-0.4 0.9 0.6 1 0.4 1.1-0.5 2.1-1.2 1.1 0.8 0.9-0.8 0-1.2-1.3-0.3 0.8-0.8-0.1-0.6-0.6-0.4-0.6-0.1-1 0-0.8-0.2-1.7-0.8 1.1-2.2-0.2-0.7 0.1-0.3 1.2 0.6 0.4 0.5 0.4 0.6 0.5 0.5 1.7 1 0.3 0.1 0.3 0.7 0.6 0.4 1.3 0.6 1.3 1.7 0.6 0.5 0.4 0.1 2.2 0.4 0.9 0.5 0.3 0.1z m-43.6-17.6l3 1.8 1.1 0 0.5 0.3 1.4 0.6 0.7 0.2 0.8 0.7 1.4 0.4 1.5 0.5 1.3 1 0.6 1.2-0.4 1.7 0.7-0.4 0.3 0.8-0.3 0.7-0.5 0.8-0.2 0.9 0 0.9 0.1 0.7 0.3 0.6 0.3 0.5-0.4 0.6-0.3 0.3-1.2 0.2-2 0.8-1.1 0.3-0.4-0.1-0.1-0.4-0.4-0.6-0.8 0.1-0.9 0.5-0.5 0.5-0.8-0.5-0.3-0.2-0.8 0.2-4.1 0.2-0.8 0.1-0.5-0.1-0.5-0.4-1.7-1.9-1.1-0.6-0.5-0.4-0.9-2.6-2.3-2.7-0.7-0.6-1.3 0.4-1.6-0.8-1.1-1.1 0-0.8 0.4-0.2 0.6 0.5 0.4 0.1 0.5-0.2 3.9-2.7 0.9-0.1 1.3-0.1 0.6-0.4 2.1-0.7 0.1-0.2 0.7-0.1 1.1-0.5 0.7-0.1 1.2 0.4z m-13.3-38.9l0.4 0.6 0.8 0.2 0.8 0 0.3 0.1-0.3 0.4-1 0.2-1.3-0.1-1.5-0.6-0.4 0.2-0.2 0.4-0.5 0.1-0.5-0.5-0.3-0.7 0-0.5 0.5-0.1 1.2 0.3 0.5-0.4 0.2-0.9 0.4-0.2 0.6 0.7 0.3 0.8z m-21.1-16.4l0.5 0.1 1.2 0 0.5 0.2 1.2 1.3 3.2 1.8 0.8 0.7 0.1 0.7-0.1 0.6 0.1 0.5 0.6 1 0.7 1.7 0.6 1 1.2 1.6 0.4 1-0.8 0.1-1.3 0.7-0.8 0-0.5-0.2-0.2-0.5-0.4-0.4-0.8-0.7-1-0.4 0 1.5-0.9-0.3-1.9-1.6-0.5-0.1-0.5-0.4-1.1-1.2-0.4-0.7-0.4-0.1-0.7 0-0.2-0.1-0.7-0.8-0.4-1 0-2.1 1.7-3.5 0.5-0.7 0.3 0.3z" id="PNG1255" name="New Ireland" data-id="PNG1255" data-name="New Ireland">
 </path>
 <path d="M382.6 359.3l0.7 2.1 0.5 0.7 1 0.1 1.1-0.2 1-0.1 0.5 0.6 0.6-0.3 0.6-0.1 1.3 0 0.3-0.2 0.9-0.3 0.6 0-0.5 0.7 0 0.9 1.1 4.9 0.8 1.3 0.3 1.5 1 2 0.4 1.2 0.3 1.6 0.1 1.5-0.5 1.3 1.5 3.3 0.3 1.2-0.1 1-0.6 1.9 0 1 0.1 1.2 0.2 1.1 0.5 0.8 0.8 0.6 1.9 0.9 0.5 0.7 1.3-0.4 1 0.3 0.9 0.6 1.1 0.4 0.4 0.3 0.4 0.4 0.1 0.5 0.3 0.3 1.9 0.6 0.5 0.5 0.6 1.4 0.5 0.8 0.8 0.8 0.3 0.9-0.1 3.8 0.6 3.6 0.3 0.5 0.5 0 0.4 0.3 0.3 0.2 0.1 0.4 0 0.3-0.4 0.8 0.1 0.3 0.5 0.7 0.1 0.3 0.5 2.2 1 2.1 1.4 1.7 1.9 1.1 4.6 0.8 1.9 0 0.8 0.3 0.5-0.2 2.3-0.6 0.9 0 0.7-0.2 0.6-0.2 1.1-0.7 0.6-0.4 0.5-0.6 0.2-0.6 0.4 0.1 1 0.1 1.1-0.1 0.8-0.3 1.1 0.8 1.5-0.1 3.4-0.8 0.5-0.3 0.2-0.7 0.3-0.2 0.7-0.2 0.9-1 0.5-0.5 0.8-0.4 0.6 1.6 4.8-0.3 1.2 1 0.5-0.3 0.5-0.1 0.3 0.2 0.1 0.6 0.4 0 0.5-0.4 0.5 0.3 0.3 0.7 0.2 0.6-0.2 0.8-0.3 0.6-0.6 1 0.7 0.4-0.5 0.3-1 0.1 0.8 0.7 1 0.1 0.6 0.3-0.1 1.1-0.6 0.8-0.9 0.7-1 0.3-0.8-0.3-0.5 0.5-0.9 1.6-0.1 0.7-0.1 1.2-0.5 1.8-0.1 1.1-0.4 0.9-1.8 1.5-0.4 1.3 0.2 1.2 1 2.1 0.3 1.2 0.8 2 2 0.9 3.8 0.6 1.4 0.8 0.9 0.9 0.5 0.2 0.8 0 0.8 0.7 1.8 0.8-0.5 0.7 1.1 0.2-0.7 0.4-2.6 1.1-16 4.5-0.4-0.1-2-0.7-0.8-0.2-1.3 0-0.7 0.1-0.6 0.3-0.9 0.6-0.6 0.8-0.2 0.4-0.3 1.3 0 1.9-0.4 0.4-0.1 0.8 0.3 0.9 1.3 2.3 0.2 0.7 0.1 0.6 0 1-0.1 0.6-0.2 0.5-0.3 0.2-0.6 0.2-0.6 0.1-3-0.1-0.8 0.1-1.7 0.6-1.3 0.6-0.6 0-0.7-0.2-1.2-0.7-0.7-0.3-0.8-0.2-1.7 0.1-0.6-0.1-0.5-0.3-0.2-0.5 0.1-0.9-0.3-0.5-0.4-0.1-0.3 0.1-0.8 0.7-0.7 0.2-0.8-0.3-1.6-1.2-0.8-0.4-1.5-0.5-0.8-0.4-2.3-1.7-2.3-1.2-3.6-2.8-0.7-0.2-0.8 0.1-1.2 0.5-0.7 0-0.7-0.2-0.8-0.6-3-2.6-3.2-2.4-1.2-1.2-1.7-1.3-0.7-0.3-2.4-0.6-0.8-0.5-0.7-0.7-0.8-1.7-0.1-1 0.1-1 0.6-1.6 0.1-0.8-0.2-0.9-0.4-1-4.4-6.2-0.8-0.7-0.6-0.2-1-0.1-0.4-0.2-0.9-0.8-0.6-0.8-2.9-5-0.6-0.6-0.4-0.1-0.3 0.1-0.6 0.4-0.4 0.2-0.5 0.2-0.6-0.1-0.5-0.4-0.5-0.6-1.9-4.3-0.3-0.5-1.1-1-2-2.5-0.8-0.8-1-0.7-0.7-0.6-0.9-1-0.9-1.4-1.6-1.9-0.5-0.7-0.3-0.9-0.1-2.5 0-1 0.3-1.7 4.9-7.3 0.9-3.1-1.3-3-2-3-2.5-2.5-2.3-1.7-3.9-1.8-5-2.9-16.5-15.5 52.7 0.2z" id="PNG1256" name="Northern" data-id="PNG1256" data-name="Northern">
 </path>
 <path d="M579.1 194.5l0.1 0 2.2 2.3-0.9 0.9-11.5 0.5-0.4 0.1-5 2.6-0.6 0.6-5.2 8.5-4.4 10 0 0.6 0.4 0.3 0.5 0.1 0.6 0 1.3-0.1 0.5 0 0.7 0.3 0.2 0.5 0.1 0.5-0.3 0.9-0.6 0.8-1 1.2-2.8 1.6-0.8 0.6-2.8 2.9-0.6 0.5-0.7 0.2-0.7 0-0.7-0.3-1.8-0.9-0.4-0.1-0.5 0.1-0.4 0.3-0.2 0.5-0.2 1.1 0 0.9 0.2 0.7 0.2 0.6 0 0.5-0.1 0.4-0.5 0.4-4 0.9-1.2 0-0.4 0.2-1.1 0.9-0.9 0.5-1 0.3-5.8 0.3-0.9 0.2-1.7 0.7-2.8 1.4-0.2 0.7-0.1 1.4 0.1 2.6 0.4 1 0.7 1.3 2.7 3.3 4.7 4.6 0.6 1.1 0.1 1.6-0.2 0-1.9 0.8-1.9 0.3-0.5 0.2-0.6 0.5-0.3 0-0.5-0.9-0.8 0-1.1 0.6-1.1 0.8-0.5 0.7-0.4-0.4-1.9 1.9-1.2 0.8-1.1 0.3-0.5 0.3-1.3 1.4-0.6 0.5-2.3 0.6-1.4 0.1-0.9-0.2-0.6-0.3-0.6 0.3-0.5 0.4-0.5 0.2-0.4-0.7-0.3-0.1-0.6 0.3-2.2 0.5-1.4 0.1-0.9-0.3-0.5-0.9-0.4-0.3-1.1-0.2-0.8-0.4-0.7 0.1-0.9 0.6-1.2 1-1.2 0.7-0.9-0.3-0.2-0.5 0-0.6-0.1-0.3-0.6-0.2-0.8-0.5-0.3 0.2-0.4 1-0.8 0.4 0.7 0.5-0.1 0.6-0.5 0.4-0.8 0.3 0.1-0.8-0.2-0.8-0.5-0.7-0.7-0.2-0.7 0.1-1 0.4-0.9 0.6-0.9 0.7-0.6-0.7-0.6-0.2-1 0.2-1.4-0.1-0.4 0.1-1.4-0.3-5.1-0.1-0.3 0.2-1 0.7-0.6 0.2-1.3-0.3-0.9 0-0.8 0.3-0.3-0.5-2.1-1.5-0.5-0.6-0.4-0.6-0.7-1.2-0.8-1.7-3.1-4.1-1.3-0.9-5.1-1.4-1-0.7-0.6-0.3-1-0.2-0.8 0.2-1.4 1.1-2.3 0.8-0.8 0.1-1.7 0-0.6-0.2-0.5-0.5-0.3 0 0.1 0.8-0.2 1-0.5 1-0.5 0.6-0.8 0.2-2.1 0.1-1.2 0.6-0.7 0 0-0.9 0.5-0.3 0.6 0.1 0.4-0.1-0.4-0.8 0.4-0.8-0.4-1-0.9-0.9-1.2-0.3 0.5-0.9 0.6-0.8 0.3-0.7-0.4-1-0.4 1.1-0.5 0.1-0.5-0.2-0.8 0.2-4-1.7-2.3-0.6-1.4 0.4-0.7-0.7 0.6-0.9 0.4-0.4 0.5-0.2-0.4-0.5-0.7-0.1-0.4-0.2-0.3-0.3-0.1-0.6-0.5-0.2-1.8-0.1-0.6 0.2-0.7 0.7-0.4-0.4 0.3-0.8 0-0.7-0.3-1.3-0.4-0.5-0.9-0.1-0.9 0.1-0.4-0.2-0.3-0.6-0.8-0.1-1.5 0.1-0.9-0.4-1.2-1.3-0.8-0.5-1.3 1.1-0.7 0.5-0.7 0.3-1-0.3-1.7-1.4-0.8-0.5-1.1-0.3-2.6-0.1-0.9-0.6-0.5-0.2-0.7 0-0.6-0.2-0.2-0.7-1.9-2-0.9-2.3-0.3-2 1-6.1 0.9-1.9 1.4-1.6 2-0.9 0.2 0 0.2-0.3 0.8 0.3 0.6 0.3 1.3 1 0.4 0.3 0.9 0.2 0.5 0.3 0.3 0.4 0.3 1 0.2 0.4 1.4 0.9 1.6-0.3 1.5-1.1 1.3-1.3 0.7-0.5 0.8 0.1 1.6 0.6 1.9-0.2 0.7 0.2 0.5 0.3 0.5 0.6 0.6 0.5 1 0.4 2.1 0.4 0.8 0.3 0.1-0.6 0.3-0.4 1.1-0.4 0.8-0.7 0.4-0.1 0.8 0 0.7-0.2 2.8-1.6 4.1 1.8 0.7 0.6 0.9 0.1 4 1.8 0.7 0.5 0.8 0 0.7 0.5 1 1.6 0.3 0.3 6.7-0.8 1.4-0.5 0.8 0.6 0.7-0.2 0.6-0.6 0.8-0.6 0.4 0.6 0.6 0.5 0.6 0.1 0.3-0.8 1.4 1 0.4 0.1 0.5-0.4 0.5-1.5 0.6-0.3 1-0.2 3.6-1.6 0.1 0.3 0.7 0.4 0.3-0.4 0.4-0.3 0.5 0 0.6 0.3 0.5-0.5 0.2-0.5-0.1-0.6-0.2-0.6 0.2 0 0.1 0.4 0.5 0.1 0.3 0.8 0.1 1-0.6 1.6 0.6 0.6 0.9 0.3 0.4 0 0.8-0.2 1-0.7 1-0.2 0.4-0.2 0.5-0.5 0.3-0.7 0-0.8 0.4 0 1.8 1.1 2.1 0 2.1-0.7 1.7-1.1 0.6-0.7 1.4-2.3 0.2-0.9-0.2-0.7-0.4-0.2-0.6-0.1-0.6-0.3-0.5-0.5-0.8-1.4-0.6-0.7 0.4-0.5 0.4-1.2 0.3-0.5 0.3-0.4 1.1-0.9 0.8-0.6 1-0.6 1-0.8 0.6-1.2 0.1-0.6-0.1-0.5-0.3-1-0.8-0.4 0-0.4 0.3-0.6 0.2-1 0.5-0.9 0.1-0.6-0.1-0.3-0.5-0.5-0.1-0.3 0-0.4 0.3-0.3 0.9-2.4 1.8-1.2 2.3-0.3 2.4 0.7 1.2 0.6 0.6 0.4 0.4 0.5 0.3 0.8-0.2 0.4-0.3 0.4-0.2 0.4-0.4 0.9-1.2 0.6-2.4 0.5-1 0.7-1.1 1.3-0.8 1.2 0.9 1.1 0.3 1.2 0 1.4-0.1 0.9-0.4 0.3-1 0.2-0.5 0.2-0.6 0.6-0.2 0.2 1 0.9 0.2 0.5 0.2 1.2 1.4 2.2 1.5 3.1 0.2 0.7 0.1 1 0.2 1.2 0.4 1.1 0.7 1 1.1 0.6 1.1 0.4 3.7 0.2 1 0.4 1 0.1 0.9-0.3 0.4-0.5 0.5-0.9 0.5-0.8 0.7-0.3 0.7-0.3 1.7-1.3 0.5-0.3 0.7-0.8 0.6-0.4 2.7-0.5 1 0 1 0.2 3.2 1.2 1.1 0.7 0.5 0.9 0.3 1 0.6 1.2 0.9 0.7 1-0.3 0.8-0.5 1.9-0.1 0.8-0.3 1.5-1.2 0.6-0.8 0.5-1-0.3-0.7 0.1-0.5 0.4-0.2 0.5 0.3 1.6-0.8 1.4 0.5 1.2 1.2 0.9 1 1.6-0.2 0.6-0.2 0.4-0.3 0.9-1.2 1.1-0.3 1.1-0.7 0.9-0.8 0.7-0.8 0.5-1.1 0.1-1.1-0.2-2.4 0.1-1.1 0.6-2.4 1.4-3.2 1.3-2 1.4-1.6 1.4-1.3 1.2-0.5 0.3-0.2 1-1.3 0.8-0.6 1.5-2.2 0.8-0.7 0.5 0 0.2-0.2 0-0.6 0.5-0.2 1.4-0.4 0.5-0.3 0.4-0.4 0.7-0.4 0.7-0.3 0.8-0.2 0.6-0.3 0.3-0.7 0.3-1.6 0.4 0 0.6 0.6 3.4 0.9 1.2 0.5 1 0.1 1-0.3 1.2-1.1 2.2 1.2 2 1.5 1.1-0.3 0.8-0.6z m-24.2 0.1l-1.3 0.3-0.9-0.2-0.5-0.4-0.7-0.4-0.7-0.7 0.2-0.6 1.2-1 0.8-0.4 0.9-0.1 0.6 0.3 1 0.5 0.9 0.9 0 0.8-0.9 0.8-0.6 0.2z m-108-3.1l-1.2 1.6-0.7-0.3-0.7-0.5-0.5-0.6 0.1-0.8 0.4-0.3 2.1-0.8 0.6 0.9-0.1 0.8z m19.9-12.6l0.7 0.7 0.2 0.8 0 0.9-0.1 0.5-0.2 0.2-0.5 0.1-0.2-0.2-0.2-0.8-0.4-0.5-0.3-0.7-0.3-0.5-0.7-0.3-0.8 0.2-0.3 0.5 0.3 0.6 0.8 0.2-0.3 0.4-0.4 0.3-1.1 0.4-1.3-1 0.6-1.2 1.5-1 1.4-0.5 0.7 0.4 0.9 0.5z" id="PNG1257" name="West New Britain" data-id="PNG1257" data-name="West New Britain">
 </path>
 <circle cx="247.3" cy="342" id="0">
 </circle>
 <circle cx="259.8" cy="339.3" id="1">
 </circle>
 <circle cx="227.3" cy="348.4" id="2">
 </circle>
</svg>