<?xml version="1.0"?>
<!--
************* Copyright (c) 2017 Pareto Softare, LLC DBA Simplemaps.com *******************		
************* Free for Commercial Use, full terms at  http://simplemaps.com/resources/svg-license ************
************* Attribution is appreciated! http://simplemaps.com ***************************
-->
<svg baseprofile="tiny" fill="#7c7c7c" height="214" stroke="#ffffff" stroke-linecap="round" stroke-linejoin="round" stroke-width="2" version="1.2" viewbox="0 0 1000 214" width="1000" xmlns="http://www.w3.org/2000/svg">
 <path d="M112.4 212.6l-1.6 0.4-1.6-0.1-1.4-0.5-1.1-1 1.6-0.7 1.6 0 1.4 0.6 1.1 1.3z m885.5-75.8l0.8 0.1 0.3 0.5 0 0.3-0.3-0.4-0.8-0.4-0.1 0-1.9 0.5 1.8-0.6 0.2 0z m-585.5-48.9l-1.6 2.8-3.5-2.3-3.6-5.4-1.3-5.6 3.3-3.1 4.5 1.9 2.1 5.7 0.1 6z m-409.4-86.9l-0.2 0.6-0.8 0.9-0.6 0.4-0.4-0.9 0.4-0.5 0.4 0 0.5-0.5 0.7 0z" id="PCN00" name="Pitcairn Islands" data-id="PCN00" data-name="Pitcairn Islands">
 </path>
</svg>