<?xml version="1.0"?>
<!--
************* Copyright (c) 2017 Pareto Softare, LLC DBA Simplemaps.com *******************		
************* Free for Commercial Use, full terms at  http://simplemaps.com/resources/svg-license ************
************* Attribution is appreciated! http://simplemaps.com ***************************
-->
<svg baseprofile="tiny" fill="#7c7c7c" height="1143" stroke="#ffffff" stroke-linecap="round" stroke-linejoin="round" stroke-width="2" version="1.2" viewbox="0 0 1000 1143" width="1000" xmlns="http://www.w3.org/2000/svg">
 <path d="M36 1142l-13.1-40.7-4.2-14-17.7-32.8 16.3-10.6 10.2-13.4 32.5-29.2 14.7-26.5 34-25.5 14.4-26.1 54.7-56.7 25.7-37.3 1.8-4.1 22 18.4 13.8 17.2-1.6 18.2-23.6 21.9-11.2 7.5-82.2 79.2-15.6 29.9-0.3 14.5 6.1 29.3-2.1 14.6-25.5 27.5-37.5 27.9-11.6 10.8z" id="GAZ00" name="Gaza Strip" data-id="GAZ00" data-name="Gaza Strip">
 </path>
 <path d="M735.6 1.7l9.7 5.1 20.8 17.2 13.2 4.8 45.8-2.3 21.6 2.6 21.7 13.5 6.4 20.3-0.3 26.7 4 21.7 18.9 5.6 17.3 0.6 75.9 19.7 2.2 6.6 1.2 7.9-4.5 0 0-5.9-5.5 0 0 5.9 4 8.4-0.7 25.8 6.7 12.8-3.3 10-0.2 16.5 2.7 16.4 5.8 10-6.4 4.4-3.1 7.9 9.5 0-12.6 54.4 3.1 10.2 0 6.4-6 3.1-3.3 3.8 0 4.7 3.8 5.5-12.1 21-0.5 9.9 7.7 10.7-12.3 10-4 14.9 1.4 39.6 7.9 20.1 1.6 9.1 0.4 11.7 1.2 7.2 4.3 9.5-0.5 6.8-3.3 3.9-5.1 1.5-4.5 2.5-2 7 17.7 68.6-7.8 10.7 0 6.3 15.3 46.2-5.8-0.1-32.3 8.3-22.1 21.7-16 30.2-13.9 33.7-16.5 26.9-3.4 8.1-0.3 10.8 4.8 20.9 0.4 9.8-4.9 15.1-7.1 13.8-4.1 15.6 3.7 22.6-5.6 0.5-42 24.1-79.3 66.4-42.4 15.9-90.8-0.7-43.5 5.9-18.5 6.5-20 3.1-19.2-3-16.1-12.2-8.5-28.7 10.6-28.5 32.8-55.1 4.1-27.8 0.3-23.8 3.2-23.2 13.1-25.5 13.3-15.8 58.5-44.3 25.3-26 13-10.6 13.9-7 44.8-9.7 4.2 3.9 3.7 1.9 3.3-1.1 2.7-4.8 1.1-18.4-1.3-14.3-5.7-10.6-12.3-7.6-50.6-12-38-18.3-10.3-1.7-5.4 3.4-12.8 13.9-7.2 4.6-5.2 1-11.4-0.1-24-4.3-6.8-14.3 5.7-15.4 19.7-7 19.9-11.2-8.6-28.7-14.4-33.5 3.9-31.7-2-7.9 1.3-19-0.4-16-9.2-81-3.6-14.5-11.8-26.6 1.5-8.2 9.7-12.7 28.2-26.2 5.3-10.6 2.6-11-1.3-9-5-6.5-9.1-2.9 2.3-11.2 2.5-27.1 3-11 2.8-2 9.7-3.5 2.7-2.1 5.3-17.7 11.5-59.5 14.3-25 19.2-13.9 21.8-10.4 22.5-14.3 18.3-21.4 10.1-7.8 13-0.8 1.3 0.7z" id="WEB00" name="West Bank" data-id="WEB00" data-name="West Bank">
 </path>
</svg>