<?xml version="1.0"?>
<!--
************* Copyright (c) 2017 Pareto Softare, LLC DBA Simplemaps.com *******************		
************* Free for Commercial Use, full terms at  http://simplemaps.com/resources/svg-license ************
************* Attribution is appreciated! http://simplemaps.com ***************************
-->
<svg baseprofile="tiny" fill="#7c7c7c" height="597" stroke="#ffffff" stroke-linecap="round" stroke-linejoin="round" stroke-width="2" version="1.2" viewbox="0 0 1000 597" width="1000" xmlns="http://www.w3.org/2000/svg">
 <path d="M894.4 192.8l-0.2 0.5-0.4-0.3 0.1-0.4 0.3 0 0.2 0.2z m11.5-14.5l1.6 0.3 0.3 0.2 0.1 0.5-0.5 0.8 0.1 0.3-0.1 0.7-0.3 0.5-0.7 0.7-3.3 2.4-1.4 1.8 0 0.9 0.2 0.3 0.1 0.4 0.2 1.3 1.2 0.1 1.5 0.9 1.2 0.2 1 0.3 0.2-0.1 0.1-0.3-0.2-0.6 0.2-0.1 0.3 0 0.3 0.2 0.1 0.3 0.6 0.5 0.5 0.1 1.2 0 0.5-0.2 1-0.6 0.7-0.2 0.3 0.2 0.8 1 0.5 0.5 0.2 0.3 0.1 0.5 0.5 1.4 0 0.3-0.1 0.2 0 0.3 0.2 0.3 0.5 0.2 0.3 0.2 0.2 0.4-0.1 0.9-0.7 1.2 0 0.4 0.3 0.1 0.8 0.3 0.6 0.5 0.8 0.5 0.8 0.2 0.3-0.1 0.8 0.3 1.5 1.2 0.9 2.1 0.3 1.3 0 0.8-0.2 0.6-1.4 0.4-0.7 0.3-1.4 0.4-0.3 0.1-0.1 0.6-0.3 0.4-1.4-0.1-0.3 0.3-0.2 0.3 0 0.4-0.3 0.9-0.2 0.1-0.4-0.1-0.2-0.2-0.4-0.2-0.3 0.1-0.3 0.2-0.2 0.1-0.1 0.3-0.1 0.7-0.2 0.5-0.2 0.3-0.2 0.1-0.5-0.2-0.2 0-0.3 0.4-0.4 1.3 0.1 0.6 0.2 0.5 0.8 0.6 0.6 0.7 0.5 0.3 0.5 0.1 0.5 0 0.5 0.4 0.3 0.5 0.3 1.1 0.1 1.5-0.3 2.2-0.5 1.4-0.1 0.3-0.6 1.4-1.1-0.6-0.2-0.1-1.1 0-1.7-0.3-3.6 0.7-0.6 0.3-0.4 0.4-0.3 0.7-0.7 0.7-0.2 0.4-0.4 1.1-0.1 0.8-0.2 0.3-0.7 0.3-0.4-0.1-0.7-0.3-0.6-0.4-0.3 0-0.3 0.1-0.3 0.5-0.2 0-0.2-0.2-0.4-0.7-1-1.3-0.4-0.6-0.7-0.3-0.6 0.3-0.3 0.2-0.3 0-0.2-0.2-0.2-0.3-0.4-0.4 0.2-0.9-0.1-1.7-0.2-1.2-0.7-1.3-1.3-0.2-1.6-1 0.2-0.5 0.6-0.3 0.3-0.3 2-4.5 0.8-3.6 0.9-2.7-0.2-2.7-0.3-3.2-0.3-2.8-1.1-2-1-1.1-1.2-1.5-1.5-1.2-1.1-0.4 0.6-0.7 0.9 0.4 1.5 1.3 1.8 0.6 0.9 0.5 0 0.7 1.7-0.1 4 1.1 2-0.6-1.2-0.1-1.1-0.2-2.9-1.4-0.3-0.5-0.3-0.7 0-0.7 0-0.6 0.2-0.5 0.4-0.2 0-0.4-0.6-0.2-0.4-0.6-0.1-0.7 0.3-0.6-0.7-0.1-0.7 1.6-0.8 0.3 0 0.3 0.8 0.1 0.5 0.7 0 0.9-0.4 0.4-0.9-0.1-0.8-0.2-1.4-0.8-1.5-0.5-2 0.4-1.8 2 0.3 0.3-2.2 0.9-3.9 0.5-0.8 0.3-0.6 0.5-0.8 0.2-1-0.3-0.2 0-0.1-0.3 0-0.4 0.1-0.3 0.5-0.6 1.2-1.2 0.2-1.6 0-2.4-1-2.3-1.2-2-0.5-1.5 0.7-0.4 1.8-0.2 1.7-0.2 0.9 0.5 0.4 0.6 0.2 0-0.2-1 0.6-0.3 1.2-0.4 0.6 0 0-0.4 0.6-0.7 0.7-0.6 1.1-0.9 1.4-1.2 0.4-0.4 0.2 0 0.4-0.2 0.4 0.1-0.1 0.6 0.2 0.8 0.4 0.3 0.3 0.2 0.5-0.1 0.8-0.3 0.4-0.3 0.7-0.1 0.4 0 0.3 0.2 0.4 0.5 1.1 0.4 0.3 0 0.7-0.2 0.6-0.8 0.1-0.4 0.5-1.4 1.1-2.3 0.3-0.1 1 0.6 1.1 0.4 0.7-0.4 0.7-0.3 0.2 0.1-0.1 1.4 0 0.4 0 0.5 0.5 0.5 0.5 0.1 0.3 0 1.1 0.2z" id="PRT5498" name="Setúbal" data-id="PRT5498" data-name="Setúbal">
 </path>
 <path d="M250.4 268.9l0.2 1.1-0.6 0.7-1.3-0.1-2.3-0.8-1.3 0.4-0.7 0-0.3-0.5-0.3-0.7-0.5-0.5-0.2-0.6 0.4-0.5 0.8-0.7 1.5-0.4 1.5-0.1 1.1 0.2 0.8 0.5 0.7 0.9 0.5 1.1z m-26.4-43.7l5.1 0.7 0.6-0.2 1-0.7 0.6-0.2 0.3 0.1 0.8 0.7 0.5 0.3 0.6-0.4 4.1-1.2 5.6-0.2 1.6 0.6 0.9 1.5 0.1 1.9-0.9 1.6-1.5 0.7-5.3 0.6-1.8 0.5-1.9 0.2-1.8-0.1-0.9 0.1-0.7 0.4-1.1-0.7-1-0.5-2.3-0.6-3.5-0.1-4.8-3.6-1.4-2 0.7-2.6 3.1-0.3 1 0.3 1.4 1.2 0.2 0.4 0.1 0.6 0.1 0.5 0.2 0.4 0.3 0.1z m-94.2-29.8l0.3 1.1-0.5 0.6-1.3 0-3.1-0.5-0.8 0.1-0.8 0.3-1.5 1.1-0.5-0.2-0.3-0.6-0.5-0.6-0.9-0.3-5.7-0.1-0.8 0.4-2.6-2.4-0.9-1.6 0-2.2 1.2-1.1 1.3-0.4 2.8 0 1.6 0.4 4 2.4 1.4 0.6 0.1 0.2 0.4 0.1 0.8 0.7 0.4 0.2 0.9 0.1 2.6 0.9 1.8 0.2 0.6 0.6z m-22.9-4.6l-0.5 0.3-0.5 0-0.9-0.3-0.5 0-1.2 0.3-0.5 0.1-0.9-0.5-1-1.5-0.8-0.8-1.9-1.1 0-0.4 1.3-0.3 1.2 0 0.5-0.1 0.5-0.3 0.4-0.4 0.6-1 0.4-0.3 3.4 1.6 1 0.9 0.5 2.2-0.3 0.1-1.2 0.6-0.4 0.2 0.5 0.6 0.3 0.1z m15.6-10.4l7.9 3 5.7 3.2 2.9 1.1 1.5 0.8 0.7 0.9-0.6 0.3-0.8 0.1-1.5-0.1-0.7-0.2-1.3-0.7-1.2-0.2-0.7-0.3-0.6-0.3-0.6-0.5-0.6-0.3-1 0.2-0.7-0.4-0.6 0.3-0.3-0.2-0.7-0.9-0.5-0.3-4.2-1.4-0.7-0.5-0.8-1.4-0.3-0.2-0.6 0.2-0.3-0.2-0.1-0.2 0-0.4-0.6-0.2-1.9-1.7-0.1-0.3 0-0.7 0.7 0.3 1.3 0.9 0.6 0.2 0.7 0.1z m47 3.7l-0.1 0.4-0.3 0.2-1.1 0.5-1-0.4-2.7 0-0.9-0.7-0.5 0.6-0.5 0-0.9-0.6-1.1-0.2-1-0.1-0.9-0.4-1-0.9-0.8-1.1-0.4-1.1-0.4-1.6 0.9-1.2 1.5-0.8 1.3-0.3 6.2 0.4 1.1 0.5 1.6 1 1.3 1.2 0.2 1-0.1 0.5 0.7 0.6 0.1 0.5-0.2 0.1-0.9 0.4-0.2 0.2-0.1 0.4 0.2 0.9z m-38.7-23l0.4 0.3 0.2-0.4 0.7 0.9 1.3 1.1 0.6 0.7 0.3 0.8-0.5 0.6-0.7 0.4-0.7 0.1-0.8 0-0.9-0.2-0.8-0.3-0.6-0.6-0.5-0.8 0.1-0.8 0.6-1.5 0.4-0.3 0.5-0.1 0.4 0.1z m-125.9-20.2l0.6 0 0.5-0.3 0.7 1 0.4 0.9 0 2.2-0.3 1.1-0.7 1.4-0.8 0.9-0.7-0.4-0.7 0.3-0.9 0.1-0.8-0.1-0.6-0.3-0.3-0.8-0.3-1 0-0.9 0.4-0.5-0.2-0.9 0.2-0.7 0.3-0.8 0.2-1 0.3-0.8 0.6-0.5 0.8-0.3 0.8 0-0.3 0.7 0.3 0.4 0.5 0.3z m3.5-8.7l-1.3 0.3-0.1-0.4-0.6-1.6-0.1-0.2 0.1-0.6 0.3-0.4 0.5-0.4 0.5 0 1.3 0.3 0.1 1.5-0.7 1.5z" id="PRT735" name="Azores" data-id="PRT735" data-name="Azores">
 </path>
 <path d="M615 595.7l-0.2 0.3-0.6-0.2 0.1-0.3 0.3-0.4 0.4 0.3 0 0.3z m-25.3-110.8l0.2 1.2-1.4-2.3-0.4-0.4-0.2-0.5-0.2-0.5 0-0.5 0.7 0.6 0.7 1.1 0.6 1.3z m-22.9-14.1l1 0.1 1.1-0.2 0.8-0.5 0.6-0.3 0.8-0.2 1.6-0.2 0.6 0.3 1.2 0.9 0.5 0.2 2.1 1.5 0.4 0.3 0.5 0.1 1.5 0.1 0.7 0.2 0.7 0.3 0.3-0.2 0.5-0.1 0.4 0.1 0.4 0.2-0.7 0.2-1.4 0.7-0.5 0.1-0.5 0.4-1.3 1.6-0.2 0.4-0.7 1.5-1.7 0.6-1.9 0.1-3.2-0.3-6.6-2.7-1.5-1-1.4-1.2-1-1.3-0.4-0.9-0.1-0.8 0.3-0.7 0.6-0.2 0.2-0.3 1-1.4 0.3-0.2 0.3 0 0.3 0 0.4 0.2 0.5 0.4 0.9 1 0.4 0.3 0.3 0 0.8 0.3 1.1 0.6z m29.8-14.1l0.9 0.5 0.2-0.4 0 1.4 0.2 0.6 0.4 0.3-1.4-0.2-0.6 0-0.6 0.4-0.5 0.6-0.4 0.5-0.6 0.1-0.8-0.4 0-0.3 0.4-0.1 0.3-0.1 0.3-0.4 0.5-1.5 0.8-0.7 0.9-0.3z" id="PRT736" name="Madeira" data-id="PRT736" data-name="Madeira">
 </path>
 <path d="M913.7 95.4l-0.4 0.4 0 0.4-0.4 0.6-0.9 0-0.3 0.1-0.3 0.4-0.2 0.4-0.9 1.1-0.2 0.5-0.7 0.6-2.3-0.2-0.3-0.4 0-0.3 0-0.5 0.1-0.5 0.3-0.8 0.2-0.3 0.5-0.5 0.1-0.1 0.2-0.8 0-0.3 0-0.4-0.5-0.9-0.2-1-0.4 0-0.7 0.3-0.6 0.4-0.4 0.2-0.3-0.1-0.3-0.4-0.1-0.9 0-0.5 0.2-1.3-1.5-1.1-0.9 1.4-0.1 0.8-0.3 0.6-1.4-0.2-4.4-4.5 0-0.1 0.1-0.7 0.7-2.4 0.5-3.1 0.4-0.3 0 1.1 0 0.4 0.8-1.4 0.5-0.5 0.6 0.4 0.2 0 0-0.3-0.2-0.5-0.1-0.3 0.1-0.3 0.4-0.2 0.2 0.1 0.2 0.3 0.2 0.1 0.4-0.1 0.3-0.4 0.5-0.9-0.7-0.4-0.3-0.6 0.1-0.6 0.7-0.2 1-0.1 0.7-0.3 0.6-0.4 0.6-0.6-0.7 0-1 0.5-1.2 0.3-0.9-0.4-0.3-0.4-0.3-1.5 1.5-2.1-0.4-1.1 0 0.8-0.3 0.8-0.3 0.2-0.2-0.7-0.5 1-0.5 1.4-0.2 1.5-0.1 1.3-0.2 0.8-0.4 1.2-0.6 1.2-0.5 0.6 3.8-18 0-1.2 0.4-0.1 1.8-0.2 0.6 0.4 1.3-0.4 0.6-0.5 0.5 0 0.3 0.2 0.4 0.3 0.5 0.3 0.4 0 0.3-0.2 0.3-0.7 0.2-0.3 0.7-0.8 0.8 0.8 0.5 0.9 0.7 0.6 0.3 0 0.1-0.2 0-0.4-0.2-0.3 0-0.6 1-0.5 0.8 0.3 2-1.4 0.1-0.1 0.2-0.6 2.4 1.6 0.2 0.8 0 0.4 0 1.1 3 1.5 0.4 0 0.6-0.1 0.3-0.7 0.2-0.3 0.5-0.4 0.3 0 0.1 0.2 0 0.4 0 0.3-1.3 1.8-0.2 0.6-0.1 0.6 0 0.3 0.2 0.7 0.2 1.4 0.3 1 0 0.6-0.2 0.3-0.3 0.1-0.4 0-0.6-0.4-0.4-0.1-0.4 0-0.7 0.3-0.5 0.1-0.5 0-0.3-0.2-1.2 0.1 0.4 1.7 0 0.3-0.4 0.6-0.8 1.7-0.9 1-1 0.8-0.3 0.7 0 0.4 0 0.4 0.2 0.3 0.6 0.6 0.2 0.4 0.1 0.4 0.1 1.5 0.2 0.7 0.2 0.1 0.7 0.3 0.7 0.6-1.6 0.6-0.3 0.3-0.2 0.4 0 0.3 0.5 1.2 0.2 0.9 0.2 0.4 0.6 0.5 0.4 0.8-2.2 0.9-0.9 0.7 0 0.3 0 0.4 0.4 0.7 0 0.7-0.2 0.4-1.1 1.8 0.2 1.6z" id="PRT739" name="Aveiro" data-id="PRT739" data-name="Aveiro">
 </path>
 <path d="M922.6 118.9l-0.8 1.5-0.4 0.4-0.4 0.2-0.7 0.3-0.3 0.4-0.3 0.4-0.3 0.3-0.4-0.1-1.7 0.5-0.5 0.6 0 0.5-0.2 0.2-0.3 0.5 0 0.3 0.2 0.5-1.7-0.1-0.3-0.1 0 0.2 0.1 0.4 0.1 1-0.2 0.1-0.8-0.1-0.8 0.4-0.5 0.1-1.7 0.6-0.7 0.3-0.2-0.6 0-0.4-0.3-1.2-0.1-0.6-0.5-2.2-0.6 0.2-0.6 0.4-0.3 0.1-0.6 0.1-1.9 1.5-0.8 0.3-0.4 0.1-0.8-0.2-1.8 0.8-0.4 0.8 0 0.4 0.1 1 0 0.6 0.1 0.4 0.6 0.5 0.3 0.4 0.2 0.8-0.2 0.5-0.3 0.3-0.7 0.5-0.8 0.7 0.3 1.6 0.1 0.9 0.5 1.4-0.3 0.4-1 1.4-0.3 0-0.4 0.1-0.4-0.2-0.3 0-0.1 0.2-0.1 0.4 0.1 0.4 0.3 0.7-0.1 0.6-0.6 0.4-1.9-0.2-2.6 0.2-1.2 0.5-0.5 0.6-1.3 2.6-0.4 0.5-0.3 0.2-0.8 0.2-0.8 1.5-0.2 0.6 0.2 1 0.1 1.6-1.1-0.2-0.7-0.4-0.6-0.1-0.5 0.1-0.6 0.4-0.9 1-0.9 1.6-0.8 1-0.8 0.6-0.7-0.6-0.9-3.1-0.3-0.6-0.3-0.4-0.3-0.2-0.2 0.1-0.5-0.1-0.3 0.2-1.7 1-1.5 0-0.4 0.1-0.3-1.2-0.4-1.1-1.5-1.5-0.3-0.5 0.5-0.1 1.8 0.5 2.9-2 0.7-0.6 0.8-0.1 0.5 0.6 0.5 0.1 0.4-0.5-0.3-0.6-0.6-0.7 0.6-1 0.9-1.1 0.3-0.5 1.9-1.3 0.6-0.9 0.4-0.8 0.8-1.5 0.1-0.9-0.1-1 0.5-1.4 0.3-1.9 3.1-8.5 3.6-10.6 1.3 0.6 0.3 0.2 0.6 0.3 1.3 0.3 0.4-0.1 0.4-0.3 1-0.5 2 0.2 0.8 0.1 0.9 0.2 0.4 0.3 0.7 0.6 0.4 0.6 0.4 0.2 0.4-0.1 0.3-0.2 0.6-1 0.6-0.4 0.5 0 0.3 0.1 0.3 0.3 0.2 1.2 0.1 0.5 0 0.8 0.1 0.4 0.3 0.5 0.3-0.3 0.7-0.9 1.1-0.6 1.3-1.1 0.8 0 0-0.2 0.4 0 0.3 0.2 0.5 1.2 0.4 1 0.2 0.6-0.1 0.5-0.2 0.3-0.5 0.4 0.6 0.1 1.6-0.6 1.4-1.6 0.4-0.1 0.7 0.3 0.3 0 0.2-0.3 0.1-0.4-0.1-0.3-0.7-0.7-0.1-0.6 0.7-1 1.7-1.5 1.1 0.4 1.3-1.6 0.7 0.5 0.4 0.7-0.3 1.5 0.2 0.9 1.6 2.7-0.4 0.3-0.2 0.3-0.2 0.5 0.2 0.5-0.1 0.7z" id="PRT740" name="Leiria" data-id="PRT740" data-name="Leiria">
 </path>
 <path d="M920.5 19.3l-0.2 0-0.5 0-3.8 2.1-0.9 0.4-3.5 0.1-0.6 0.2-0.6 0.2-0.3 0.2-0.7 0.6-0.6 0.3-0.7-0.1-0.5 0.2-0.3 0.3-0.2 0.8-0.1 0.8-0.2 0.8-0.4 0.4-0.2 0.6 0.1 0.6-0.7 1.3-0.6-0.2-0.4-0.2-0.8-0.1-1.2-0.5-0.3-0.2-0.7 0.6-0.3 0.1-2.1 0.1-2.9 1.1-0.3 0-1-0.1 0-0.7-0.4-1 0-1.2 0.1-0.6 0.9-0.3 2.4-0.5 0.7-0.3 0.7-0.5 0.5-0.5-4.4 1.3-0.9 0.2-0.5-0.1-0.8-0.5-0.7-1.7 0-1.5 0.3-2.4-0.3-1.5 0.2-0.6 0.3-0.5 2.8-2.4 1.4-1.5 0.4-2 0.5-0.3 0.9-0.5 1-0.3 0.8-0.5 0.3-0.6 0.4-1.1 0.4-0.6 0.7-0.5 0.7-0.1 1.4-0.1 0.7-0.3 1.4-0.9 0.8-0.3 6.1-1 0.7-0.4 1-0.9 0.4-0.2 0.3-0.1 0.6 0 0.8-0.3 1.2-0.9 0.3 0.5 0.4 0.8-0.1 2.3 0.1 0.9 0.5 0.4 0.6-0.2 0.7-0.3 0.8-0.1 0.8 0.4 0.6 0.6 0.3 0.7-0.1 1-0.4 0.7-0.6 0.5-1.2 0.7-1.1 1.2-1.6 2.3-0.4 0.9 0 1 0.4 1 1.5 0.6 0.3 0.4 0 0.7-0.1 1.3z" id="PRT741" name="Viana do Castelo" data-id="PRT741" data-name="Viana do Castelo">
 </path>
 <path d="M962.7 208l0.6 0.5 0.6 0 1-0.2 1-0.4 0.5-0.7 0.3 0.1 1-0.4 1.1-0.1 0.7 0.5-0.4 1.5-0.3 0.7-0.6 1.7-0.7 1.5-0.4 1.6-0.3 0.6-0.4 1.2-1 0.2-2.2-1-0.7 0-0.4 0.3-0.3 1.1-0.5 0.5-0.3 0.2-0.5 0.2-0.5 0.2-0.5 0-0.5-0.2-0.5 0-0.4 0.3-1.3 0.2-0.3 0.3 0.1 0.4 0.1 0.5 0 0.5-0.2 0.9-0.9 2.4-0.4 1.7-1.1 2-3.7 3.1-0.7 1-0.5 1.5-0.4 2.4-0.2 0.8-0.2 0.4-1.1 1.1-0.4 0.3 0.1 0.3-0.1 0.7-0.6 0.7 0 0.5 0.3 0.1 0.2 0.6 0.1 0.7-1 0.2-1.1 0-0.8 0.5-0.8 0.7-0.5 0.3-0.3 0.1-0.3-0.1-0.5-0.1-0.3-0.1-2-0.1-3.2 1.4-1.2 0.8-0.2 0-0.7 0.4-0.6 0.2-0.1 0.3-0.6 0.1-0.6 0.5-0.1 0.3-0.2 0.3-0.6 0.3-1.1 0.2-0.5 0-1.3 0.2-0.5 0.4-0.2 0.3 0 0.3 0.4 0.7 0 0.2-0.3 0.1-1.4 0.8-0.9 0.7-0.6 0.2-0.4 0-1.5-0.1-0.8 0-1.3-0.4-2.8-2.1-0.6-0.3-0.5-0.5-0.1-0.3-0.1-0.8-0.3-0.5-1-0.3-0.7 0.1-0.3 0.2-0.4-0.1-0.5 0-0.8 0.2-1.6 0.6-0.4 0.5-0.1 0.3-0.2 0.5-1.3 0.6-1.8-0.3-0.5-0.2-1.6-1-0.4 0-1.6 0.2-0.3 0.2-0.4 0.5-0.2 0.2-0.4-0.1-0.2-0.2-1.1-0.5-1.6 0-0.3-0.2-0.7-0.8-0.7-0.5-0.6-0.2-0.8-0.5-0.4-0.3 0.4-2 0.1-2.3-0.3-1.2-0.4-0.8-0.5-0.6-0.1-0.7 0.6-2.2 0.1-1.4 0.4-1.3 0.5-0.2 1.2-0.2 0.2-1.2-0.4 0.1-0.9 0.2-1 0.1-0.3-0.9 0.3-2.6 0.3-1.8 0.4 0.4 0.2 0.3 0.2 0.2 0.3 0 0.3-0.2 0.6-0.3 0.7 0.3 0.4 0.6 1 1.3 0.4 0.7 0.2 0.2 0.2 0 0.3-0.5 0.3-0.1 0.3 0 0.6 0.4 0.7 0.3 0.4 0.1 0.7-0.3 0.2-0.3 0.1-0.8 0.4-1.1 0.2-0.4 0.7-0.7 0.3-0.7 0.4-0.4 0.6-0.3 3.6-0.7 1.7 0.3 1.1 0 0.2 0.1 1.1 0.6 0.6-1.4 0.1-0.3 0.5-1.4 0.3-2.2-0.1-1.5-0.3-1.1-0.3-0.5-0.5-0.4-0.5 0-0.5-0.1-0.5-0.3-0.6-0.7-0.8-0.6-0.2-0.5-0.1-0.6 0.4-1.3 0.3-0.4 0.2 0 0.5 0.2 0.2-0.1 0.2-0.3 0.2-0.5 0.1-0.7 0.1-0.3 0.2-0.1 0.3-0.2 0.3-0.1 0.4 0.2 0.2 0.2 0.4 0.1 0.2-0.1 0.3-0.9 0-0.4 0.2-0.3 0.3-0.3 1.4 0.1 0.3-0.4 0.1-0.6 0.3-0.1 1.4-0.4 0.7-0.3 1.4-0.4 0.2-0.6 0-0.8-0.3-1.3-0.9-2.1 0.1-0.5 3 0.1 0.8-0.1 0.6 0.1 0.2 0.1 0.5 0.5 0.4 0.3 0.4 0.1 0.3 0 0.9-0.5 0.8 0.2 1.1 0.5 0.9 1 3.4 1.6 2 0.2 1.1 0.4 2.5 1.4 0.6 0.2 2.6 0 0.7 0.2 0.9 0.3 1.8 0 0.5-0.1 0-0.3 0.6-0.9 0.6-0.7 1.2-0.5 0-0.2 0.7-0.3 0.1-0.3 0.4-0.3 0.3-0.4 0.2-0.5 0.1-0.7 1.2-0.4 1.3-0.7 0.6-0.1 1-0.4 0.6 0 0.2 0.6 0.5 0.7 0.1 0.4 0.2 0.7 0.2 0.4 0.8 0.8 1 0.5 0.2 0.2 0.2 0.7 0.5 1.1 0.1 0.3 0.3 0.7 0.4 0.4 0.4 0.3 0.6 0.1 0.4-0.1 0.4-0.3z" id="PRT743" name="Beja" data-id="PRT743" data-name="Beja">
 </path>
 <path d="M958.4 178.4l-1.8 1.4-0.4 0.9-0.1 0.4-0.3 1.7-0.1 1.2 0.1 0.9 0.2 0.3 0.5 0.3 0.1 0.4-0.2 0.7-1.6 2.5-0.8 2.5-0.4 0.6 0.5 0.7 0 0.6-0.4 0.5-0.6 0.6 0.6 0.3 1.1 0.9 4.2 5.4 0.2 0.3 0.2 0.7 0.2 0.3 0.3 0.3 0.6 0.5 0.2 0.2 1.7 4.1 0.3 0.4-0.4 0.3-0.4 0.1-0.6-0.1-0.4-0.3-0.4-0.4-0.3-0.7-0.1-0.3-0.5-1.1-0.2-0.7-0.2-0.2-1-0.5-0.8-0.8-0.2-0.4-0.2-0.7-0.1-0.4-0.5-0.7-0.2-0.6-0.6 0-1 0.4-0.6 0.1-1.3 0.7-1.2 0.4-0.1 0.7-0.2 0.5-0.3 0.4-0.4 0.3-0.1 0.3-0.7 0.3 0 0.2-1.2 0.5-0.6 0.7-0.6 0.9 0 0.3-0.5 0.1-1.8 0-0.9-0.3-0.7-0.2-2.6 0-0.6-0.2-2.5-1.4-1.1-0.4-2-0.2-3.4-1.6-0.9-1-1.1-0.5-0.8-0.2-0.9 0.5-0.3 0-0.4-0.1-0.4-0.3-0.5-0.5-0.2-0.1-0.6-0.1-0.8 0.1-3-0.1-0.1 0.5-1.5-1.2-0.8-0.3-0.3 0.1-0.8-0.2-0.8-0.5-0.6-0.5-0.8-0.3-0.3-0.1 0-0.4 0.7-1.2 0.1-0.9-0.2-0.4-0.3-0.2-0.5-0.2-0.2-0.3 0-0.3 0.1-0.2 0-0.3-0.5-1.4-0.1-0.5-0.2-0.3-0.5-0.5-0.8-1-0.3-0.2-0.7 0.2-1 0.6-0.5 0.2-1.2 0-0.5-0.1-0.6-0.5-0.1-0.3-0.3-0.2-0.3 0-0.2 0.1 0.2 0.6-0.1 0.3-0.2 0.1-1-0.3-1.2-0.2-1.5-0.9-1.2-0.1-0.2-1.3-0.1-0.4-0.2-0.3 0-0.9 1.4-1.8 3.3-2.4 0.7-0.7 0.3-0.5 0.1-0.7-0.1-0.3 0.5-0.8-0.1-0.5-0.3-0.2-1.6-0.3 1.9-1.6 1.7-0.4 0.4-0.3 0.9-0.8 0.4-0.1 0.4 0 0.5-0.2 0.4-0.4 0.2-0.6 0.2 0 0.7 0.3 0.6 0 0.4-0.2 0.6 0.1 0.3-0.1 0.2-0.5 0.3 0 0.2 0.2 1.1 1.1 0.4 0.3 1.2 0.2 0.4 0.2 0.3 0.3 0.3 0.8 0.4 0 0.2 0.1 0.3 0.6 0.1 0.3 0.7 0.3 0.7-0.6 0.2-0.7-0.1-0.5-0.2-0.3-0.7-0.2-0.6-0.7-0.3-0.4 0-0.4 0.2-0.9-0.2-0.4-0.1-0.1-0.5-0.1-2.1-0.9-0.6-0.5 0-0.4 0.1-0.3 0.5-0.6 0.1-0.5 0.1-0.5 0-0.9 0.2-0.4 0.1-0.3 0.8-0.1 0.2-0.2 0.4-0.7 0.8-0.7 0.6-0.2 0.3-0.2 0.3-0.1 1.1-0.1 0.6 0.3 0 0.2-0.1 0.4-0.1 0.6 0.1 0.7 0.3 0.3 0.2-0.1 0.1-0.3 0-0.3 0.2-0.4 0.5-0.2 0.6-0.1 0.3 0.1 0.3 0.2 0.9 0.9 0.1 0.4 0 0.8 0 0.6 0.1 0.1 1 0.1 0.3-0.1 0.6-0.4 0.3-0.3 0.6-0.4 0.9-0.2 0.4 0.4 1.8 2.4 1.1 0.8 0.5 0.1 0.7-0.1 0.9 0.1 1.3-0.5 0.3-0.4 0.7-0.8 0.3 0 0.6 0.4 0.3 0.1 0.4-0.2 0.4 0 0.4 0 0.9 0.4 0.5-0.2 0.2-0.2 0.5-0.7 0.5-0.5 0.6-0.2 0.8-0.2 0.6-0.2 0.4-0.3 0.2-0.3 0-0.4-0.5-0.6 0.6-0.4 0.3 0 0.2 0.5 1.6 0.6 0.7 0.7 0.2 0.5 0.1 0.8 0.1 0.3 0 0.6 0.9 0.8 0.3 1 0.1 0.7 0.6 0.8-0.2 0.8 0.2 0.4 0.6 1 0.3 0.3 0.6 0.3 0.7 0 0.2 0.1 0.6-0.2 0.8-0.8 0.9-0.8 1.1-0.4 0.8 0 0.4 0.2 0.5 0.4 0.1 0.3 0.1 0.7-0.1 0.3-0.6 1-0.1 0.2 0 0.5 0.3 0.4z" id="PRT744" name="Évora" data-id="PRT744" data-name="Évora">
 </path>
 <path d="M933.2 268.4l-0.8 0.5-1 0.3-1.1-0.1-0.9-0.3 0-0.4 2 0.3 0.8-0.3 1-1 0.2 0.7-0.2 0.3z m-0.8-0.6l-0.6 0.2-0.4-0.5 0.3 0 0.4-0.1 0.3 0.4z m-36.9-22.8l0.4 0.3 0.8 0.5 0.6 0.2 0.7 0.5 0.7 0.8 0.3 0.2 1.6 0 1.1 0.5 0.2 0.2 0.4 0.1 0.2-0.2 0.4-0.5 0.3-0.2 1.6-0.2 0.4 0 1.6 1 0.5 0.2 1.8 0.3 1.3-0.6 0.2-0.5 0.1-0.3 0.4-0.5 1.6-0.6 0.8-0.2 0.5 0 0.4 0.1 0.3-0.2 0.7-0.1 1 0.3 0.3 0.5 0.1 0.8 0.1 0.3 0.5 0.5 0.6 0.3 2.8 2.1 1.3 0.4 0.8 0 1.5 0.1 0.4 0 0.6-0.2 0.9-0.7 1.4-0.8 0.3-0.1 0-0.2-0.4-0.7 0-0.3 0.2-0.3 0.5-0.4 1.3-0.2 0.5 0 1.1-0.2 0.6-0.3 0.2-0.3 0.1-0.3 0.6-0.5 0.6-0.1 0.1-0.3 0.6-0.2 0.7-0.4 0.2 0 1.2-0.8 3.2-1.4 2 0.1 0.3 0.1 0.5 0.1 0.3 0.1 0.3-0.1 0.5-0.3 0.8-0.7 0.8-0.5 1.1 0 1-0.2 0.4 0.5 0.3 0.4 0.6 0.5 0.3 0.3 0.2 1 0.3 1.2 0.1 1.1-0.1 0.6 0.7 1.5 0.3 4 0.4 1.7-0.3 0.7 0.2 1.1 0.6 2.2 0.3 0.7 0.3 0.1 0 0.3-0.3 0.3-0.7-0.5-0.8-0.2-0.9 0-0.9 0.1-0.9 0.3-1.6 1.1-0.6 0.3-2.4 1.5-0.3 0.4-6 4.1-1.3 1.2-0.6 0-0.6-0.3-0.8-0.1-2.5-0.1-0.7-0.2-0.3 0.5-0.5 0-0.8-0.5 0.3 0.6 0.2 0.3 0 0.4-0.9-1.3-1.4-1.2-2.8-1.6-1.7-0.3-1.2-0.6-1.4 0-3.2 0.5-2.8-1-1.2 0.5-1.8 0.2-1.7-0.6-0.1 0.1-2.1-1.2-1.7-0.3-1.8 0.1-0.6 0.2-0.5 0.4-1.3 1.3-2.4 0-0.5 0.2-1.1 0.6-0.5 0.3-0.6 0-0.9 0.2-0.9 0.8-0.8-0.3-0.7 0.7-0.3 0.3-0.4 0.1-0.8 0.7-0.4 0.2-0.6-0.2-0.5-0.5-0.4-0.3-0.6 0.3 0.3-1.4 0.2-0.7 1.7-2.8 1.2-2.5-0.4-1.5 0.7-0.7 0.9-0.9 0.6-2.3-0.6-1.6 0.6-1.3 1.1-1.2 0.2-1.3 0.7-1.6 0.4-1.6z" id="PRT745" name="Faro" data-id="PRT745" data-name="Faro">
 </path>
 <path d="M885.6 174.9l-0.7 0.8-0.3-0.1 0.4-0.9 0.4-0.7 0.4-0.5 0.6-0.5 0 0.3-0.2 0.8-0.6 0.8z m2.1-1.4l-0.6 0.2-0.3-0.4 0.2-0.7 0.3-0.2 0.3 0.2 0.2 0.4-0.1 0.5z m-0.7-1.7l-0.3 0.3 0.1-0.8 0.3-0.8 0.2 0.3-0.3 1z m3.9 6l-0.4-0.1-0.4 0.2 0-0.3-0.4-0.7-0.5-1-0.2-1.1 0.3-0.8-0.9 0.1-0.5-0.8-0.2-1.3-0.3-1.2 1.6-3.6 1.1-1.6 1.4-1.1 0.8-0.2 1.7-0.1 0.7-0.3 1.5-1.1 0 0.3-0.3 0.3-0.8 1-1.5 0.4 0.1 0.4 0.5 0.4-0.8 1.1-0.2 0.6-0.4 0.5-0.4 0.8-1.4 3.8-0.6 1.1-0.2 0.4-0.6 0.6 0 0.7 0.7 0.8 0.3 0.6 0.3 1.2z m-2.9-26.8l0.5 1.3-0.1 0.7 2.8 0.8 1.6-0.5 0.3 0.8 2 2-0.5 0.5-0.7 0.2-1.2-0.1-0.4 0.2-0.6 0.4 0 0.3 0.2 0.3 0.6 0.3 0.3 0.7 0.2 0.3 1.1 1.1 0.3 0.2 0.8 0.3 0.2 0.2 0.4 0.5 0.3 0.7-1.8 1.3-3.4 0.4-0.5 0.4-0.8 1.5-1.9 2.8-2.2 4.4-1.3 1.4-0.4 0.7-0.2 0.8 0.1 1 0 1.7 0.2 1.2-0.6 1.2-2 0.6-2.2 0.4-2.6-0.2-0.8 0.6-0.7 0.8-1.5-0.9-1.8-0.8-1-0.1-1.7 0.2-0.8-0.3 0.1-1 0.2-0.9-0.5-2.2 0-1.1 0.2-0.5 0.5-0.5 1-1.1 1.3-4.1-0.1-3.1-0.5-1.9 0.4-1.2 0.2-1.3 1.5-2.9 0.5-1.4 0.9-1.8 0.1-2 0.3-1.6-0.3-1.3 0.4-0.1 1.5 0 1.7-1 0.3-0.2 0.5 0.1 0.2-0.1 0.3 0.2 0.3 0.4 0.3 0.6 0.9 3.1 0.7 0.6 0.8-0.6 0.8-1 0.9-1.6 0.9-1 0.6-0.4 0.5-0.1 0.6 0.1 0.7 0.4 1.1 0.2z" id="PRT746" name="Lisboa" data-id="PRT746" data-name="Lisboa">
 </path>
 <path d="M945.3 131.5l0.3 0.7 1.3 3.6 0.7 0.7 1.2 1.6 0.6 0.6 1.4 0.7 0.3 0.5 0.4 1.1 0.6 0.5 0.9 0.4 1.6 0.5 0.3 0.5 0 1.1-0.2 1.2-0.3 0.7-0.2 0.7 0 1.2 0.2 1.1 0.3 0.6 0.7 0.6 2 2.4-0.5 0.9-0.1 1.1 0.3 1 0.6 0.9 1 0.5 1.1 0.3 0.9 0.4 0.5 1-0.1 0.5-0.4 1 0 0.5 0.4 0.4 0.6 0.3 0.6 0.1 0.5-0.2 1-0.6 1-0.1 1.1 0.3 0.9 0.6 0.6 0.6 0.6 1 0.2 1-0.3 0.8 0.5 0.4 0.1 0.5-0.3 0.5-0.3 0.5-1.4 2.6-0.9 1.3-0.8 0.7 0.5 1-0.2 0.8 0.1 0.7-0.4 0.2-0.4 0.4-0.5 0.5-0.7 0.3-1.8 0.4-0.4 0.4-0.2 0.4-0.6 0.7-0.6 0.5-0.6 0.3-0.6 0.5-0.3-0.4 0-0.5 0.1-0.2 0.6-1 0.1-0.3-0.1-0.7-0.1-0.3-0.5-0.4-0.4-0.2-0.8 0-1.1 0.4-0.9 0.8-0.8 0.8-0.6 0.2-0.2-0.1-0.7 0-0.6-0.3-0.3-0.3-0.6-1-0.2-0.4 0.2-0.8-0.6-0.8-0.1-0.7-0.3-1-0.9-0.8 0-0.6-0.1-0.3-0.1-0.8-0.2-0.5-0.7-0.7-1.6-0.6-0.2-0.5-0.3 0-0.6 0.4 0.5 0.6 0 0.4-0.2 0.3-0.4 0.3-0.6 0.2-0.8 0.2-0.6 0.2-0.5 0.5-0.5 0.7-0.2 0.2-0.5 0.2-0.9-0.4-0.4 0-0.4 0-0.4 0.2-0.3-0.1-0.6-0.4-0.3 0-0.7 0.8-0.3 0.4-1.3 0.5-0.9-0.1-0.7 0.1-0.5-0.1-1.1-0.8-1.8-2.4-0.4-0.4-0.9 0.2-0.6 0.4-0.3 0.3-0.6 0.4-0.3 0.1-1-0.1-0.1-0.1 0-0.6 0-0.8-0.1-0.4-0.9-0.9-0.3-0.2-0.3-0.1-0.6 0.1-0.5 0.2-0.2 0.4 0 0.3-0.1 0.3-0.2 0.1-0.3-0.3-0.1-0.7 0.1-0.6 0.1-0.4 0-0.2-0.6-0.3-1.1 0.1-0.3 0.1-0.3 0.2-0.6 0.2-0.8 0.7-1.8-0.5-0.5-0.5-0.3-0.8-0.2-0.5-0.5-0.4-0.2-0.4-0.3-0.9-0.3-0.4-0.5-0.2-0.9-0.5 0-0.8 1.2-1.9 0.5-0.5 2.2-1.6 2.4-2.2 0.9-0.8 0.5-1 0.5-0.5 0.4-0.2 0.7 0.2 0.6-0.2 0.3-0.2 0.3-0.5 1-1.1 0.5-0.9 0.2-0.4 0.2-0.7 0.2-0.3 1.9-1.3 0.8-1.2 0-0.3-0.2-0.4-0.6-0.5-1.6-1.6 0.8-2.3 0.9-1.2 0.7-0.7 0.5-0.2 0.8 0.2 1.6 0.9 0.6 0.6 0.4-0.2 0.8-1 0.2-0.2 0.9-0.5 0.6-0.6 0.5-0.8 0.7-0.7 0.7-0.3 0.3-0.4 0.4-0.8 0.5-0.8 0.6-0.5 0.9 0.1 0.7 0.3 0.7 0.1 0.9-0.7 0.5-0.5 0.7-0.5 0.8-0.2 0.4 0.1z" id="PRT747" name="Portalegre" data-id="PRT747" data-name="Portalegre">
 </path>
 <path d="M916.5 125.4l0.2 0.8 0.4 0.3 0.6 0.1 0.4 0.2 0.3 0.3 0.1 0.6 0 0.5 0.1 0.9-0.3 0.5 0 1 0.2 1.8 0.3 0.7 2.3 0.9 1 0.7 0.8 0 1.4-0.1 0.9-0.3-0.1-0.6-0.3-0.9 0-0.5 0.2-0.7 0.3-0.5 0.4-2.6 0.2-0.4 0.9-0.2 1.2 0.5 1 0 0.2 0.2 0.2 0.7 0.1 0.8 0 0.8 0 0.8 0.1 0.4 0.3 0.1 0.4 0.2 0.5 0 0.8 0.3 0.6 0.5 0.7 0.5 0.8 0.9 0.9 1.3 0.1 0.4 0.3 0.9 0.4 0.5-0.9 0.5-0.2 0.2-0.8 1-0.4 0.2-0.6-0.6-1.6-0.9-0.8-0.2-0.5 0.2-0.7 0.7-0.9 1.2-0.8 2.3 1.6 1.6 0.6 0.5 0.2 0.4 0 0.3-0.8 1.2-1.9 1.3-0.2 0.3-0.2 0.7-0.2 0.4-0.5 0.9-1 1.1-0.3 0.5-0.3 0.2-0.6 0.2-0.7-0.2-0.4 0.2-0.5 0.5-0.5 1-0.9 0.8-2.4 2.2-2.2 1.6-0.5 0.5-1.2 1.9 0 0.8 0.9 0.5 0.5 0.2 0.3 0.4 0.3 0.9 0.2 0.4 0.5 0.4 0.2 0.5 0.3 0.8 0.5 0.5 1.8 0.5-0.4 0.7-0.2 0.2-0.8 0.1-0.1 0.3-0.2 0.4 0 0.9-0.1 0.5-0.1 0.5-0.5 0.6-0.1 0.3 0 0.4 0.6 0.5 2.1 0.9 0.5 0.1 0.1 0.1 0.2 0.4-0.2 0.9 0 0.4 0.3 0.4 0.6 0.7 0.7 0.2 0.2 0.3 0.1 0.5-0.2 0.7-0.7 0.6-0.7-0.3-0.1-0.3-0.3-0.6-0.2-0.1-0.4 0-0.3-0.8-0.3-0.3-0.4-0.2-1.2-0.2-0.4-0.3-1.1-1.1-0.2-0.2-0.3 0-0.2 0.5-0.3 0.1-0.6-0.1-0.4 0.2-0.6 0-0.7-0.3-0.2 0-0.2 0.6-0.4 0.4-0.5 0.2-0.4 0-0.4 0.1-0.9 0.8-0.4 0.3-1.7 0.4-1.9 1.6-1.1-0.2-0.3 0-0.5-0.1-0.5-0.5 0-0.5 0-0.4 0.1-1.4-0.2-0.1-0.7 0.3-0.7 0.4-1.1-0.4-1-0.6-0.3 0.1-1.1 2.3-0.5 1.4-0.1 0.4-0.6 0.8-0.7 0.2-0.3 0-1.1-0.4-0.4-0.5-0.3-0.2-0.4 0-0.7 0.1-0.4 0.3-0.8 0.3-0.5 0.1-0.3-0.2-0.4-0.3-0.2-0.8 0.1-0.6-0.3-1.2-0.3-0.6-0.7-0.8 0-0.7 0.6-0.6 0.2-0.4 0.6-1.1 1.4-3.8 0.4-0.8 0.4-0.5 0.2-0.6 0.8-1.1-0.5-0.4-0.1-0.4 1.5-0.4 0.8-1 0.3-0.3 0-0.3 0.6-0.7 0.4-0.7-1.1 0.8-0.3-0.7-0.4-0.5-0.2-0.2-0.8-0.3-0.3-0.2-1.1-1.1-0.2-0.3-0.3-0.7-0.6-0.3-0.2-0.3 0-0.3 0.6-0.4 0.4-0.2 1.2 0.1 0.7-0.2 0.5-0.5-2-2-0.3-0.8-1.6 0.5-2.8-0.8 0.1-0.7-0.5-1.3-0.1-1.6-0.2-1 0.2-0.6 0.8-1.5 0.8-0.2 0.3-0.2 0.4-0.5 1.3-2.6 0.5-0.6 1.2-0.5 2.6-0.2 1.9 0.2 0.6-0.4 0.1-0.6-0.3-0.7-0.1-0.4 0.1-0.4 0.1-0.2 0.3 0 0.4 0.2 0.4-0.1 0.3 0 1-1.4 0.3-0.4-0.5-1.4-0.1-0.9-0.3-1.6 0.8-0.7 0.7-0.5 0.3-0.3 0.2-0.5-0.2-0.8-0.3-0.4-0.6-0.5-0.1-0.4 0-0.6-0.1-1 0-0.4 0.4-0.8 1.8-0.8 0.8 0.2 0.4-0.1 0.8-0.3 1.9-1.5 0.6-0.1 0.3-0.1 0.6-0.4 0.6-0.2 0.5 2.2 0.1 0.6 0.3 1.2 0 0.4 0.2 0.6 0.7-0.3 1.7-0.6 0.5-0.1 0.8-0.4 0.8 0.1 0.2-0.1-0.1-1-0.1-0.4 0-0.2 0.3 0.1 1.7 0.1z" id="PRT748" name="Santarém" data-id="PRT748" data-name="Santarém">
 </path>
 <path d="M928.6 42.8l-0.2 0.8-0.4 0.4-0.5 0.4-0.3 0.4-0.3 0.3-0.3 0.1-0.4 0-0.5-0.3-0.8-0.5-0.5 0.1-1.2-0.6-1.5-1.1 0.1-0.4-0.1-0.4-0.8-0.8-2-0.7-0.6 0.9-0.8 0.6-1.2 0.6-0.3 0-1 0.4-0.2 0-0.6-0.4-0.3-0.1-1.6 0.2-1.2 0.3-1-0.1-0.6-0.4-0.5 0-0.7 0.2-0.7 0.4-0.6 0.6-0.7 0.1-2.2 0-0.5 0.1-0.3-0.1-0.2-0.4-0.3-1.1 0.3-0.4 0.6-0.3 0.2-0.3-0.2-0.3-0.4-0.3-0.4-0.2-0.6-0.3-1.2-1.3-0.4-0.1-1-0.1-1.1-0.5-0.9-0.5-0.9 0 0-0.1-0.5-1.2-0.1-1.1-0.1-0.7-0.1-0.9-0.6-1.7-0.1-1.1-0.3-0.9 0-0.3 1 0.1 0.3 0 2.9-1.1 2.1-0.1 0.3-0.1 0.7-0.6 0.3 0.2 1.2 0.5 0.8 0.1 0.4 0.2 0.6 0.2 0.7-1.3-0.1-0.6 0.2-0.6 0.4-0.4 0.2-0.8 0.1-0.8 0.2-0.8 0.3-0.3 0.5-0.2 0.7 0.1 0.6-0.3 0.7-0.6 0.3-0.2 0.6-0.2 0.6-0.2 3.5-0.1 0.9-0.4 3.8-2.1 0.5 0 0.2 0 0 0.1 3.4 0.2 1.7-0.5 0.1 0.1-0.1 0.6-0.4 0.7-0.2 1.5-0.4 0.7-0.4 1.1-0.4 0.8-0.9 1.1 0.6 0 0.5-0.1 0.5-0.1 0.7 0 0.3 0 0.7-0.3 0.5 0.1 1.1 0.7 0.2 0.1 0.1 0.4-0.3 1.1-0.1 2.4 0.8 0.4 0.4 0.1 0.8 0.3 1.5 0.3 0.5 0.1 1.2-0.4 0.8-0.9 0.4 0.2 0.3 0.2 0.6 1.2-0.1 0.7-1.6 2.4-0.4 0.5-0.8 0.3-0.1 0.2-0.2 0.6-0.4 0.4-0.4-0.1-0.4 0.2-0.3 0.5-0.4 1.3 0.2 0.4-0.2 0.6-0.6 1-0.1 0.4-0.3 0.2-0.1 0.1 0.1 0.7-0.3 0.9z" id="PRT749" name="Braga" data-id="PRT749" data-name="Braga">
 </path>
 <path d="M970.3 59.9l-0.7-0.2-1.7-0.1-3.5-1.8-0.4-0.5-0.3-0.7-0.2-0.7 0-0.5 0.2-0.5 0-0.4-0.7-0.2-0.2-0.1-0.4-0.5 0.2-0.3 0.3-1.1-0.4 0.2-1.5 1-0.4 0.6-0.8 0-1.3-0.4-3.1 0.3-1 0.1-1.3-0.5-0.5-0.4-1.2-1.8-0.6-0.4-0.6 0 0.3-1 0.2-0.3 0.4-0.1 0.5-0.1 0.2-0.1-0.1-0.6 0-0.5 0.2-0.7 0.3-0.5 0.4-0.4 0.1-0.2-0.1-0.3 0.1-0.6 0.7-0.7 1.4-0.5-1-0.6-0.3-0.4-0.3-0.7-0.2-1.1 0-2.6 1.3-1 0.3-0.1 0.4-0.2 0.3-0.5 0.3-0.8 0.5-0.9 0.4-0.5 0.4-0.1 0.3-0.1 0.7-0.2 0.1-0.3-0.1-0.3-0.1-0.4-0.4-0.7-0.2-0.4 0-0.7 0.2-1.4 1.2-4.5 1-2.1 0.4-0.3 0.2-0.1 0.2-0.3 0.1-0.3 0-1.2-0.7-1-0.4-1-0.1-0.5-0.1-1 0.1-1 0.1-0.6-0.3-1.3 0.4-0.7 0.1-0.8-0.2-1.8 0-0.7 0.3-0.3 0.6-0.5 0.7-0.4 0.6-0.1 1.3 0.8 1.2 1.1 1.3 0.5 1.4-0.6 0.9-0.7 0.9 0.5 1 0.8 1.1 0.2 2.5-0.2 0.9-0.6 0.3-1.6 1.2 0.2 1.4 2.3 1.2 0.3 2.9-0.1 1.3-0.4 0.5-1.1 1 0.4 0.5 0.6 0.2 0.9-0.3 2.3 0.3 0.4 0.7 0.1 1 0.3-0.4 1-1 4.4-0.2 0.5-0.2 0.5-0.3 0.5 0.1 0.4 0.3 0.5 0.2 0.5 0.1 1 0.2 1 0.5 0.9 1.2 0.4 0.4-0.1 0.6-0.3 0.5-0.4 0.6-0.6 0.5 0 3.2 0.7 2 0.7 1.8 1.2 1.6 1.8 0.6 0.8 0.4 0.5-1.9 2.8-1 1.1-0.3 0.5 0 0.4 0.2 0.4-0.1 0.4-1.5 2.4 0 0.5-1.2 0.1-0.6 0.2-0.4 0.4 0 0.7-0.1 0.3-0.2 0.1-0.4-0.1-0.2 0-1.3 2.1-1.2 1.3-1.3 1-2.4 1-0.3 0.3-2.6 0-0.7 0.2-0.5 0.5-1.4 2.1-0.3 0.8-0.2 0.4-1.4 1.3-0.6 0.6-0.1 0.4 0.1 1.3-0.3 1-1.6 2.3-0.6 0.6-1 0.1-2.5-0.2-0.8 0.4z" id="PRT750" name="Bragança" data-id="PRT750" data-name="Bragança">
 </path>
 <path d="M969.7 101.5l-0.5 0.1-1.7 1.1-0.7 0.3-0.4 0.5-0.4 1.2-0.3 0.6 0.3 0.8 0.3 1.8 0.5 0.7 0.5 0.1 1 0.2 0.4 0.1 0.5 0.4 0.5 0.9 0.9 1.1 1.6 2.9-0.7 1.2-0.2 0.5 0.1 0.6-0.2 0.4-0.2 1.3-0.1 0.2-0.4 0.3-0.1 0.2 0 0.3 0.1 0.6-0.1 0.7 0 0.9-0.1 0.5-1 1.5-0.4 0.2-0.9 0.4-0.3 0.2-0.3 0.7 0 0.6 0.2 0.5 0.1 0.4-0.2 0.5-0.4 0.8-0.2 0.5 0 0.5 0.1 0.4 0 0.3-0.4 1.2-0.6 0.2-5.9 0.7-1.2 0-0.9-0.6-0.7 0.3-1.5-0.1-0.8 0.2-0.6 0.2-0.6 0.2-8.6-0.4 0.1 0.1-0.4-0.1-0.8 0.2-0.7 0.5-0.5 0.5-0.9 0.7-0.7-0.1-0.7-0.3-0.9-0.1-0.6 0.5-0.5 0.8-0.4 0.8-0.3 0.4-0.7 0.3-0.7 0.7-0.5 0.8-0.6 0.6-0.4-0.5-0.3-0.9-0.1-0.4-0.9-1.3-0.8-0.9-0.7-0.5-0.6-0.5-0.8-0.3-0.5 0-0.4-0.2-0.3-0.1-0.1-0.4 0-0.8 0-0.8-0.1-0.8-0.2-0.7-0.2-0.2-1 0-1.2-0.5-0.9 0.2-0.2 0.4-0.4 2.6-0.3 0.5-0.2 0.7 0 0.5 0.3 0.9 0.1 0.6-0.9 0.3-1.4 0.1-0.8 0-1-0.7-2.3-0.9-0.3-0.7-0.2-1.8 0-1 0.3-0.5-0.1-0.9 0-0.5-0.1-0.6-0.3-0.3-0.4-0.2-0.6-0.1-0.4-0.3-0.2-0.8-0.2-0.5 0-0.3 0.3-0.5 0.2-0.2 0-0.5 0.5-0.6 1.7-0.5 0.4 0.1 0.3-0.3 0.3-0.4 0.3-0.4 0.7-0.3 0.4-0.2 0.4-0.4 0.8-1.5 0.6-0.7 0.1-0.3 0.5-0.3 0.5-0.1 0.5-0.5 0.9-0.2 0.6 0 0.2-0.2 0.1-0.5 0.8-0.2 0.2-0.2 0.5-0.2 0.3 0 0.4 0.2 0.2-0.1 0.5-0.8 0.3-0.2 0.3 0 0.8-0.1 0.4-0.2 0-0.3-0.1-0.7 0.1-0.4 0.5-0.6 0.9-0.4 0.6-0.1 0.5 0 0.7 0.2 0.8 0.7 0.1-1.1-0.1-0.8 0.2-0.3 0.2-0.2 0.2 0.1 0.2 0.3 0.3 0.1 0.4 0 0.8-0.6 0.3-0.3 0.2-0.3 0-0.3 0-0.7-0.2-0.5-1.1-0.8-0.7-0.8-0.4-0.3-0.2-0.4-0.2-0.6 0.1-0.5 0.9-2 0.7-0.3 0.7-0.1 0.5-0.2 1.5-1.2 1.1-0.4 1-0.7 0.9-0.9 0.8-1.1 0.9 0.3 1.4-0.2 0.4-0.4 0.2-0.3 0.3-0.7 0.1-0.4 0.5-0.9 2.1-2 1.5 1.3 0.9 0.3 0.5 0 1.3-0.4 0.8-1 0.8-0.1 0.6-0.1 0.3 0 0.5 0.2-0.3 3.1-0.5 1.4-0.7 0.8-0.4 0.5-0.1 0.4 0.1 0.3 0.4 0.3 0.6 0.3 1.9 0.4 1.8-0.7 1.9 0 0.5-0.2 0.3-0.3 0.1-0.4 0.1-0.4 0.3-0.4 0.4-0.4 0.3 0.1 0.2 0.3 0.5 1 0.4 0.4 0.9 0.1 0.9 0 0.7-0.2 0.6 0.1 1 0.5 0.6 0.4 0.6 0.7z" id="PRT751" name="Castelo Branco" data-id="PRT751" data-name="Castelo Branco">
 </path>
 <path d="M894.2 107.1l0.5 0.2 1.2 0.7-0.8 0.4-0.4-0.1-0.6-0.5-0.1-0.6 0.2-0.1z m19.5-11.7l0.4 0.2 0.4 0.3 1.2 0.3 1 0.7 0.6 0.6 0.6 0.3 0.3 0.3 0.3 0 0.2-0.4 0.1-0.5 0.2-0.1 1.7-0.3 2.3 0.3 3-2.2 2.2-0.9 1.7-1.3 0.7-0.3 1-1.5 1.3-1.1 0.5-0.5 0.4-0.3 0.8-0.2 0.4 1.2 0.3 0.2 0.2 0.4 0 0.3-0.1 0.5-0.3 0.4-0.6 0.3-0.3 0.2-0.1 0.4 0.2 0.5 0.4 0.2 0.7 0.2 0.2 0.2 0 0.5 0.3 1.9 0.3 0.4 0.5 0.5 0.2 0.3-0.1 0.3-0.9 0.7-0.4 0.4-0.3 0.5-0.2 0.8-0.4 1.1 1.1 0.6 0.6 0.9-0.9 2-0.1 0.5 0.2 0.6 0.2 0.4 0.4 0.3 0.7 0.8 1.1 0.8 0.2 0.5 0 0.7 0 0.3-0.2 0.3-0.3 0.3-0.8 0.6-0.4 0-0.3-0.1-0.2-0.3-0.2-0.1-0.2 0.2-0.2 0.3 0.1 0.8-0.1 1.1-0.8-0.7-0.7-0.2-0.5 0-0.6 0.1-0.9 0.4-0.5 0.6-0.1 0.4 0.1 0.7 0 0.3-0.4 0.2-0.8 0.1-0.3 0-0.3 0.2-0.5 0.8-0.2 0.1-0.4-0.2-0.3 0-0.5 0.2-0.2 0.2-0.8 0.2-0.1 0.5-0.2 0.2-0.6 0-0.9 0.2-0.5 0.5-0.5 0.1-0.5 0.3-0.1 0.3-0.6 0.7 0.1-0.7-0.2-0.5 0.2-0.5 0.2-0.3 0.4-0.3-1.6-2.7-0.2-0.9 0.3-1.5-0.4-0.7-0.7-0.5-1.3 1.6-1.1-0.4-1.7 1.5-0.7 1 0.1 0.6 0.7 0.7 0.1 0.3-0.1 0.4-0.2 0.3-0.3 0-0.7-0.3-0.4 0.1-1.4 1.6-1.6 0.6-0.6-0.1 0.5-0.4 0.2-0.3 0.1-0.5-0.2-0.6-0.4-1-0.5-1.2-0.3-0.2-0.4 0 0 0.2-0.8 0-1.3 1.1-1.1 0.6-0.7 0.9-0.3 0.3-0.3-0.5-0.1-0.4 0-0.8-0.1-0.5-0.2-1.2-0.3-0.3-0.3-0.1-0.5 0-0.6 0.4-0.6 1-0.3 0.2-0.4 0.1-0.4-0.2-0.4-0.6-0.7-0.6-0.4-0.3-0.9-0.2-0.8-0.1-2-0.2-1 0.5-0.4 0.3-0.4 0.1-1.3-0.3-0.6-0.3-0.3-0.2-1.3-0.6 1.4-4 0.6-0.8 0.4 0.7 0.7 0.3 1.6 0.1 0-0.4-0.7-0.6-0.6-0.4-0.7-0.3-1.8-0.2-0.7-0.5-0.4-0.8 0-1.1 0.5-1.4 1.2-2.5 2.6-10.4 0.5-2.5 0 0.1 4.4 4.5 1.4 0.2 0.3-0.6 0.1-0.8 0.9-1.4 1.5 1.1-0.2 1.3 0 0.5 0.1 0.9 0.3 0.4 0.3 0.1 0.4-0.2 0.6-0.4 0.7-0.3 0.4 0 0.2 1 0.5 0.9 0 0.4 0 0.3-0.2 0.8-0.1 0.1-0.5 0.5-0.2 0.3-0.3 0.8-0.1 0.5 0 0.5 0 0.3 0.3 0.4 2.3 0.2 0.7-0.6 0.2-0.5 0.9-1.1 0.2-0.4 0.3-0.4 0.3-0.1 0.9 0 0.4-0.6 0-0.4 0.4-0.4z" id="PRT752" name="Coimbra" data-id="PRT752" data-name="Coimbra">
 </path>
 <path d="M970.3 59.9l-0.2 1-0.4 0.7 0.1 0.6 0.4 0.6 1.2 1.4 0.6 0.9 0.8 2.1 0.4 1.2 0.3 0.4 0.6 0.2 0.4 0.3 0.2 0.7-0.1 0.6-0.7 0.2-0.1 1.4 0.2 0.9-0.1 0.5-0.1 0.6 0 1 0.1 0.7 0.5 1.7 0.3 1.8 0.1 0.9 0 0.7-0.3 0.9-0.9 1.7-0.2 0.8 0 0.9 0.4 0.5 0.4 0.5 0.4 0.7 0.3 0.9-0.1 0.7-1 1.3-0.7 1.8 0.2 1.7 0.9 1.5 1.4 1.3-0.7 1.3-0.4 0.3-1.7 1.3-0.2 0.3-0.2 0.4 0 0.9-0.1 0.3-0.8 0.5-0.7 0-0.8 0-0.3 0-0.6-0.7-0.6-0.4-1-0.5-0.6-0.1-0.7 0.2-0.9 0-0.9-0.1-0.4-0.4-0.5-1-0.2-0.3-0.3-0.1-0.4 0.4-0.3 0.4-0.1 0.4-0.1 0.4-0.3 0.3-0.5 0.2-1.9 0-1.8 0.7-1.9-0.4-0.6-0.3-0.4-0.3-0.1-0.3 0.1-0.4 0.4-0.5 0.7-0.8 0.5-1.4 0.3-3.1-0.5-0.2-0.3 0-0.6 0.1-0.8 0.1-0.8 1-1.3 0.4-0.5 0-0.9-0.3-1.5-1.3-2.1 2-0.5 0.9-0.1 0.4-0.3 0.7-0.2 0.3-0.4 0.4-1.4 0.2-0.9-0.3-0.8 1.1-0.9 0.9-1 0.7-1.1 0.4-1.5 1.2-0.5 0.2-0.7 0.1-0.7 0.3-0.6-0.9-1.1-0.6 0.4-1.1 0.2-0.8 0.3-0.5 0.4-0.4 0.9-0.7 0.1-0.3-0.2-0.3-0.5-0.5-0.3-0.4-0.3-1.9 0-0.5-0.2-0.2-0.7-0.2-0.4-0.2-0.2-0.5 0.1-0.4 0.3-0.2 0.6-0.3 0.3-0.4 0.1-0.5 0-0.3-0.2-0.4-0.3-0.2-0.4-1.2 0.4-0.4 1.2-0.2 0.4-0.1 1-0.8 1.2-0.4 1.3-0.9 1.7-0.6 2.6-0.5-0.1-1.1 0.9-2.9 0.5-0.6 0.2-1.3-0.7-1-0.8-0.5-0.5-0.8 0.5-0.6 0.1-0.3 0-0.3-0.3-0.7-1-0.8-0.4-0.4 0-0.4 0.1-0.4 0.5-0.6 0.4-0.8 0.5-1.4 0.4-0.6 0.5-0.2 1 0.1 0.4 0.1 0.6 0.5 1.8 2 0.7 0 0.4-0.6 0.9-2.1 0-0.5-0.1-0.6-0.2-0.3-0.1-1 0.4-0.3 1.6 0.4 1.2-1.2 0.4-0.9 0-0.6-0.1-0.4-0.2-0.3-0.7-0.4-0.3-0.3-0.3-0.6-0.1-0.3 0.2-0.2 0.9 0 0.5-0.3-0.2-1.4 0.2-1 0.3-1.6 1-3.4 3.1-0.3 1.3 0.4 0.8 0 0.4-0.6 1.5-1 0.4-0.2-0.3 1.1-0.2 0.3 0.4 0.5 0.2 0.1 0.7 0.2 0 0.4-0.2 0.5 0 0.5 0.2 0.7 0.3 0.7 0.4 0.5 3.5 1.8 1.7 0.1 0.7 0.2z" id="PRT753" name="Guarda" data-id="PRT753" data-name="Guarda">
 </path>
 <path d="M928.6 42.8l0.6 0.9 0 0.4 0.1 0.5 0.2 0.4 0.6 0.4 1.1 0.8-0.2 0.7 0.2 0.8 0.7 1.2 0.7 0.5-0.6 2.1-0.1 1.3-0.2 1.2-1.7 1.1-4.9 1.7-1.1 0.1-4-0.3-1.3 0.3-2.6 1.1-0.2 0.6-0.1 0.1-2 1.4-0.8-0.3-1 0.5 0 0.6 0.2 0.3 0 0.4-0.1 0.2-0.3 0-0.7-0.6-0.5-0.9-0.8-0.8-0.7 0.8-0.2 0.3-0.3 0.7-0.3 0.2-0.4 0-0.5-0.3-0.4-0.3-0.3-0.2-0.5 0-0.6 0.5-1.3 0.4-0.6-0.4-1.8 0.2-0.4 0.1 0-0.7-0.4-3.5 0-1.9 0.7-0.7 0-0.4-1.5-0.3-0.8-1.5-0.5-1.8-0.7-1.5 0.2-0.7-0.1-0.6-0.2-0.6-0.2-0.6 0-1.6-0.2-0.6-0.3-0.1-0.3-1.1-0.6-1-0.2-0.7 0-0.7-0.1-1.5 0.5-1.7 0.9 0 0.9 0.5 1.1 0.5 1 0.1 0.4 0.1 1.2 1.3 0.6 0.3 0.4 0.2 0.4 0.3 0.2 0.3-0.2 0.3-0.6 0.3-0.3 0.4 0.3 1.1 0.2 0.4 0.3 0.1 0.5-0.1 2.2 0 0.7-0.1 0.6-0.6 0.7-0.4 0.7-0.2 0.5 0 0.6 0.4 1 0.1 1.2-0.3 1.6-0.2 0.3 0.1 0.6 0.4 0.2 0 1-0.4 0.3 0 1.2-0.6 0.8-0.6 0.6-0.9 2 0.7 0.8 0.8 0.1 0.4-0.1 0.4 1.5 1.1 1.2 0.6 0.5-0.1 0.8 0.5 0.5 0.3 0.4 0 0.3-0.1 0.3-0.3 0.3-0.4 0.5-0.4 0.4-0.4 0.2-0.8z" id="PRT754" name="Porto" data-id="PRT754" data-name="Porto">
 </path>
 <path d="M955.4 54l-1 3.4-0.3 1.6-0.2 1 0.2 1.4-0.5 0.3-0.9 0-0.2 0.2 0.1 0.3 0.3 0.6 0.3 0.3 0.7 0.4 0.2 0.3 0.1 0.4 0 0.6-0.4 0.9-1.2 1.2-1.6-0.4-0.4 0.3 0.1 1 0.2 0.3 0.1 0.6 0 0.5-0.9 2.1-0.4 0.6-0.7 0-1.8-2-0.6-0.5-0.4-0.1-1-0.1-0.5 0.2-0.4 0.6-0.5 1.4-0.4 0.8-0.5 0.6-0.1 0.4 0 0.4 0.4 0.4 1 0.8 0.3 0.7 0 0.3-0.1 0.3-0.5 0.6 0.5 0.8 0.8 0.5 0.7 1-0.2 1.3-0.5 0.6-0.9 2.9 0.1 1.1-2.6 0.5-1.7 0.6-1.3 0.9-1.2 0.4-1 0.8-0.4 0.1-1.2 0.2-0.4 0.4-0.8 0.2-0.4 0.3-0.5 0.5-1.3 1.1-1 1.5-0.7 0.3-1.7 1.3-2.2 0.9-3 2.2-2.3-0.3-1.7 0.3-0.2 0.1-0.1 0.5-0.2 0.4-0.3 0-0.3-0.3-0.6-0.3-0.6-0.6-1-0.7-1.2-0.3-0.4-0.3-0.4-0.2-0.2-1.6 1.1-1.8 0.2-0.4 0-0.7-0.4-0.7 0-0.4 0-0.3 0.9-0.7 2.2-0.9-0.4-0.8-0.6-0.5-0.2-0.4-0.2-0.9-0.5-1.2 0-0.3 0.2-0.4 0.3-0.3 1.6-0.6-0.7-0.6-0.7-0.3-0.2-0.1-0.2-0.7-0.1-1.5-0.1-0.4-0.2-0.4-0.6-0.6-0.2-0.3 0-0.4 0-0.4 0.3-0.7 1-0.8 0.9-1 0.8-1.7 0.4-0.6 0-0.3-0.4-1.7 1.2-0.1 0.3 0.2 0.5 0 0.5-0.1 0.7-0.3 0.4 0 0.4 0.1 0.6 0.4 0.4 0 0.3-0.1 0.2-0.3 0-0.6-0.3-1-0.2-1.4-0.2-0.7 0-0.3 0.1-0.6 0.2-0.6 1.3-1.8 0-0.3 0-0.4-0.1-0.2-0.3 0-0.5 0.4-0.2 0.3-0.3 0.7-0.6 0.1-0.4 0-3-1.5 0-1.1 0-0.4-0.2-0.8-2.4-1.6 2.6-1.1 1.3-0.3 4 0.3 1.1-0.1 4.9-1.7 1.7-1.1 2.1-1.3 0.8-0.1 0.6 0.2 0.9 0.9 0.5 0.4 0.7 0.2 0.7 0.1 0.8-0.2 0.7-0.2 1.1-0.8 0.6-0.3 0.8-0.1 1.7 0.2 1.8-0.2 4.7-1.8 0.6 0 0.6 0.4 1.2 1.8 0.5 0.4 1.3 0.5 1-0.1z" id="PRT755" name="Viseu" data-id="PRT755" data-name="Viseu">
 </path>
 <path d="M959.1 15.2l0.3 1.3-0.1 0.6-0.1 1 0.1 1 0.1 0.5 0.4 1 0.7 1 0 1.2-0.1 0.3-0.2 0.3-0.2 0.1-0.4 0.3-1 2.1-1.2 4.5-0.2 1.4 0 0.7 0.2 0.4 0.4 0.7 0.1 0.4 0.1 0.3-0.1 0.3-0.7 0.2-0.3 0.1-0.4 0.1-0.4 0.5-0.5 0.9-0.3 0.8-0.3 0.5-0.4 0.2-0.3 0.1-1.3 1 0 2.6 0.2 1.1 0.3 0.7 0.3 0.4 1 0.6-1.4 0.5-0.7 0.7-0.1 0.6 0.1 0.3-0.1 0.2-0.4 0.4-0.3 0.5-0.2 0.7 0 0.5 0.1 0.6-0.2 0.1-0.5 0.1-0.4 0.1-0.2 0.3-0.3 1-4.7 1.8-1.8 0.2-1.7-0.2-0.8 0.1-0.6 0.3-1.1 0.8-0.7 0.2-0.8 0.2-0.7-0.1-0.7-0.2-0.5-0.4-0.9-0.9-0.6-0.2-0.8 0.1-2.1 1.3 0.2-1.2 0.1-1.3 0.6-2.1-0.7-0.5-0.7-1.2-0.2-0.8 0.2-0.7-1.1-0.8-0.6-0.4-0.2-0.4-0.1-0.5 0-0.4-0.6-0.9 0.3-0.9-0.1-0.7 0.1-0.1 0.3-0.2 0.1-0.4 0.6-1 0.2-0.6-0.2-0.4 0.4-1.3 0.3-0.5 0.4-0.2 0.4 0.1 0.4-0.4 0.2-0.6 0.1-0.2 0.8-0.3 0.4-0.5 1.6-2.4 0.1-0.7-0.6-1.2-0.3-0.2-0.4-0.2-0.8 0.9-1.2 0.4-0.5-0.1-1.5-0.3-0.8-0.3-0.4-0.1-0.8-0.4 0.1-2.4 0.3-1.1-0.1-0.4-0.2-0.1-1.1-0.7-0.5-0.1-0.7 0.3-0.3 0-0.7 0-0.5 0.1-0.5 0.1-0.6 0 0.9-1.1 0.4-0.8 0.4-1.1 0.4-0.7 0.2-1.5 0.4-0.7 0.1-0.6-0.1-0.1 0.1 0 1.3-1.4 0.4-0.6 0.5-0.6 0.5-0.2 0.7 0.1 0.7 0 0.4-0.7 0.2-0.9 0.2-0.6 0.7-0.3 0.2 1.4 0.2 1.5 1.3 0 0.3-0.3 0.3-0.6 0.4-0.1 1.1 0 2.4-0.6 1.2-0.6 0.6 0.2 1.1 0.8 0.7 0.3 2.1 0.1-0.6 1.7 0 0.5 0.7 0.4 0.7 0 0.8-0.1 0.8-0.3 0.6-0.4 0.3-0.4 0.1-0.7 0.3-0.2 0.3 0 0.6 0.4 0.4 0 0.5 0.2 0.5 0.7 0.4 1 0.2 0.8 0.5-0.4 1-1.1 0.5-0.4 0.6-0.1 1.5 0 0.7-0.1 2.8-1 1.3-0.8 0.4-0.5z" id="PRT756" name="Vila Real" data-id="PRT756" data-name="Vila Real">
 </path>
 <circle cx="883.9" cy="156.4" id="0">
 </circle>
 <circle cx="874" cy="164.4" id="1">
 </circle>
 <circle cx="167.5" cy="184.3" id="2">
 </circle>
</svg>