<?xml version="1.0"?>
<!--
************* Copyright (c) 2017 Pareto Softare, LLC DBA Simplemaps.com *******************		
************* Free for Commercial Use, full terms at  http://simplemaps.com/resources/svg-license ************
************* Attribution is appreciated! http://simplemaps.com ***************************
-->
<svg baseprofile="tiny" fill="#7c7c7c" height="1078" stroke="#ffffff" stroke-linecap="round" stroke-linejoin="round" stroke-width="2" version="1.2" viewbox="0 0 1000 1078" width="1000" xmlns="http://www.w3.org/2000/svg">
 <path d="M601 787.1l-5.2-4 0-1.6-3.6-9.2-0.1-0.1 2.6-3.2 1.3-1.2 1.8-1 3.4-1.1 1.4-0.8 2.9 2.9 1.8 3.3 0.6 4.9-1.2 5.2-2.9 3.3-2.8 2.6z" id="PRY4837" name="Asunción" data-id="PRY4837" data-name="Asunción">
 </path>
 <path d="M556.4 355.9l-1 1.2 0.8 5.3 0.9 2.1-1.2 8 0.4 3 0.9 2.9 1.2 1.6 1.8 0.7 3 0.1 2.2 0.5 1.1 1.4 1.2 4.2 5.5 7 0.6 1.5-2.3 2-0.7 0.9 0.3 1.5-41-18.3-1.7-1.1-0.9-1.3-0.9-6.1-1.6-1.3-3.1-0.8-55.8-3.9-6.1 0.7-25.4-2.1-18.3 0.7-1.9-0.2-2.8-0.7-4.5-1.8-13.3-7.5-5.9-3.5-3.4-1.1-42.9-1.7-6.5 1-11 0.3-1.1-0.4-0.3-1.3-0.1-3.9-1.9-11.8 0-1.3 0.2-1.6 1.7-5.1 10.7-48 0.5-1.3 0.7-1.2 1.8-1.9 1.8-1.4 12-7.3 1-1 0.3-0.5 0.4-1.5 0-2.3-4.9-32.8-1.1-2.7-0.7-1.2-6.3-8.9-2.5-4.3-0.3-0.9-0.1-1.1 0.5-3.3-0.1-2.3-0.7-2.9-0.7-1.7-1.4-2.6-2.4-3.2-0.5-0.8-0.2-1.3 2.5-9.9-3.2-2.4-8.2-3.5-221.8-65.8-11-7.1-1.5-1.4 3.8-8.1 10-27.9 5.6-15.4 0.9-1.5 1.9-0.8 26.9-4.2 40.2-8.7 40.2-8.8 40.2-8.7 58-12.7 32.2-0.4 22.3-0.3 22.4-0.3 32-0.4 2.4 0.6 6.9 5 6 3.7 22.2 13.8 22.1 13.8 22.2 13.8 26.8 16.7 1.2 1.5 0.4 1.8-0.3 4.1 0.2 4.1 2 7.2 0.4 4-0.3 2.8 0.2 5.3-0.2 2.7-1.8 6.7 0.2 5.3 0.7 0.4 1-0.1 0.8 0.2 0.8 0.9 1.2 1.5 0.2 1.3-4.4 1.5-0.8 2.1 0.7 2.4 2.3 1.6 0.7-0.2 1.3-1.5 1.2 0 0.8 0.4 1 1 0.5 1.2-1.1 3.5 0.3 3.2 0.8 3.2 0.9 2.1 1.9 2.2 2.6 2 2.6 1.4 2.3 0.6 1.7 1-0.3 2.3-1.9 3.6-0.2 2.6 0.1 3.2 0.5 3.1 1.4 3 0.1 1.5-0.2 2.7 0.3 1.8 1.6 2.5 0.6 1.4-0.1 1.3-0.9 2.5 0.1 1.4 0.7 1.5 1.1 0.9 1.1-0.2 1-4.4 1.6-1 1.9 0.3 1.6 1.2 0.5 0.8 0.7 1.9 0.5 0.8 0.7 0.7 1.8 1.3 1.1 1 0.3 1.2-0.9 1-1.4 0.6-2.6 0.6-0.9 0.7-1.4 1.5-1.8 1.3-0.9 1.2 0.8 0.7 3.1 0.3 2.4 0.5 2 1.4 1.3 1.9 0.3 2.3-1.2 1.3-4.9 2.7-1.1 1.7 0.4 1.4 0.8 0.6 1.2 0.6 0.6 0 2.7 2.2 2.7 3 0.8 0 0.5-2.2 2.2 1.9 0.2 2.8-1.1 2.9-3.2 5 0.1 1.8 1.8 3.9 0.8 5.7-0.5 5.9-1.7 5.4-2.7 4-3.3 2.5-0.7 1 0 1.6 0.6 1 0.7 0.7 0.4 0.7 0.9 1.3 1.9 0.6 1.3 1.2-0.9 3.4-7.9 12.3-1.8 4.3-0.5 2.7 0.1 2.8 1 2.3 2.2 0.9 1.1 1.1-0.8 2.6-1.6 2.9-0.8 2.1 0.5 2.2 1.3 2.3 1.4 1.8 1.3 0.8 0.7 1.2-5.2 8.6 0.1 2.4 0.4 2.4-0.1 2.4-1.6 2.8-0.8 2.2 1.1 1.9 1.7 2.1 0.8 2.9-0.5 1.6-2.8 5.2-1.1 1.2-0.3 1.2-2.6 7.5-0.1 1.8 0 1.9 0.2 1.3 1.6 0.9z" id="PRY597" name="Alto Paraguay" data-id="PRY597" data-name="Alto Paraguay">
 </path>
 <path d="M393.8 356.1l4.2 12.7 0.3 1.8-0.4 0.7-1.8 1.6-7.3 4.6-2.9 1.3-0.6 0.1-0.8-0.3-1.9-1.2-1.1-1.1-0.9-0.7-1.3-0.6-1.6 0.4-1.7 0.6-12.2 7.4-1.5 1.5-1 1.4-0.9 2.2-0.2 1.3 0 1 0.3 1 1.6 3.1 0.1 0.8-0.1 1-0.9 1.7-1.3 0.8-1.8 0.3-6.8 0.1-1.9 0.3-1.8 0.9-0.7 1.1-0.2 1.4 0.7 6-0.2 2.5-0.7 1.6-23 34.3-1.1 2.6-0.5 2.1 0 3.3-0.2 1.7-1.1 4.1-0.3 1.4 0.5 6.5-0.3 5.9 0.9 6.2-0.3 2.1-0.6 2.7-3.3 8.8 0.1 0.8 0.2 0.9 1 2.3 0.4 1.5-0.4 2.2-1.3 3.7-5.4 11-1.5 4.6-1.1 5.1-1.1 11.5-0.9 0.7-11.9 6.4-2.8 1.1-4.1 0.8-38.5 2.2-1.6 0.3-1.6 0.7-3.7 2-4.3 1.8-8.5 1.4-1.6 0.6-2 1-1.1 1.1-0.6 1.2-0.9 4.6-0.4 1.5-1.6 2.7-0.3 0.8-0.1 0.9 0.6 16.7-3.5 0.1-2.5-0.3-3.4-2.1-4-3.3-4.3-2.2-4.6 1.4-3.7-2.5-1.1-1.1-1.7-2.9-0.7-0.7-0.3-1.8-1.4-2.6-1.9-2.5-3.1-1.8-2.1-3.4-1.1-1.2 1.1-2.1 0.4-3-0.4-2.6-1.5-1.1-2-0.8-1.8-1.6-1.6-1.7-1.4-1.3-0.9-0.1-2.4 0.2-0.8-0.1-1.1-0.7-2.3-2.4-1.1-0.5-2.4-0.7-1.2-1.8-0.8-2-0.9-1.7-7.7-3.4-2.7-0.2-1.7-0.4-1.2-0.9-1.4-1.3-1.8-1.2-1.9-0.9-2.2-0.4-2.5-0.1-1.1-0.7-1.1-3-1.9-1.3 0.1-1.3 0.5-1.5 0.6-1-2.1-0.1-1.4-0.2-1.1-0.6-6-6.3-1.7-0.9-5.6 0-1.6-0.4-1-0.7-1.9-2-1.7-1.2-1.7-0.8-1.3-1.1-0.6-2.2 0-2.4-0.4-1.6-0.7-1.2-1.3-1.5-1.3-1.2-2.6-1.5-1.4-1.3-2.7-3.9-1-1-13.2-8.1-4.2-4.7-1.7-2.4 0-0.6-0.3-0.6 0.6-3-0.3-1.3-1.3-1.9-2.2-4.8-1.8-2.6-2.5-2.7-1.1-1.4-0.4-1.6-0.6 0-1.2-0.8-1-1-0.1-0.4-0.8-0.4-0.5-1-0.3-1.2-0.5-0.9-3.2-3.6-0.7-1.4-0.6-1.5-0.8-1.1-1.5-0.4-0.5-0.7 1.4-3-2.2-1.5 0-1.7 0.8-2.8-0.6-1.3-0.4-0.3-0.7 0.1-1.5-0.3-2.9-1.4-1.6-1.3 0-1.6 1.7-2.3 0.6-2.2-0.9-2.3-2.6-3.1-0.7-0.2-0.8 0.1-0.7-0.2-0.3-0.9 0-1.4-0.4-1.3-0.8-0.5-1.4-0.4-5.1-0.7-2.3-0.9-8.3-5.8-2-2-0.8-1.9-1.1-0.9-4.7-1.5-1.5-0.7-2.9-3.8-2-1.7-2.8-0.7-1.4-0.2-1.6-0.5-1.4-0.8-0.9-1.2 0.2-1 0.8-1.1 0.5-1.4-0.8-1.7 0.9 0-0.7-1-0.8-0.8-1-0.6-1.2-0.2 2.7-6.5 3.4-12.1 3.1-11.4 5.2-17.4 9.8-33 4.1-13.6 4.3-14.8 11.9-40.5 0.4-8.4-0.5-41.9-0.1-11.6 1-3.4 4.3-6.6 5.1-7.4 21.2-30.8 7.9-12.1 2.4-4.9 1.5 1.4 11 7.1 221.8 65.8 8.2 3.5 3.2 2.4-2.5 9.9 0.2 1.3 0.5 0.8 2.4 3.2 1.4 2.6 0.7 1.7 0.7 2.9 0.1 2.3-0.5 3.3 0.1 1.1 0.3 0.9 2.5 4.3 6.3 8.9 0.7 1.2 1.1 2.7 4.9 32.8 0 2.3-0.4 1.5-0.3 0.5-1 1-12 7.3-1.8 1.4-1.8 1.9-0.7 1.2-0.5 1.3-10.7 48-1.7 5.1-0.2 1.6 0 1.3 1.9 11.8 0.1 3.9 0.3 1.3 1.1 0.4 11-0.3 6.5-1 42.9 1.7 3.4 1.1 5.9 3.5z" id="PRY598" name="Boquerón" data-id="PRY598" data-name="Boquerón">
 </path>
 <path d="M690.6 382.6l1 1.1 25.1 6.3 4.8 1.9-0.4 0.4-2.8 1.5-0.7 0.5-5 7.3-0.9 0.7-3.8 2.6-0.7 0.7-0.8 1.4-0.1 0.9 0.6 2.8-0.1 1-0.4 0.7-1.2 0.9-0.3 0.6 0 1 0.6 2.6 0.1 0.7-0.1 2.4 0.3 2.4-0.1 1.5-0.2 1.2-0.3 1-0.2 1.5 0.2 1.2 0.6 0.9 1.1 1.5 0.2 0.9 0 0.9-0.4 2 0.3 0.9 0.5 0.5 1.3 0.9 0.8 0.9 1 1.7 0.9 2.5 1 5.2 0.7 2.4-0.1 1.3-0.6 0.9-2.6 1.7-0.8 0.9-0.6 1-0.3 1.6 0.5 0.6 2.3-0.1 2.2-0.2 1.2-0.5 0.9-0.9 0.6-0.3 0.7 0.1 0.8 0.5 1 1.2 1.5 1.1 1.6 0.3 1.3-0.3 2.3-1 1.3-0.4 1-0.7 1-2 1.2-1.6 0.6-1.4 0.4-2.4 0.6-1.9 1-1.3 1-0.7 1.2-0.6 6.3-1.1 1.8-0.8 0.9-0.8 0.8-1.1 1.4-2.4 0.8-1 1.2-0.6 1.4-0.4 1.1-0.5 3-2.4 0.6-0.3 1.3-0.1 0.7 0.2 1.7 0.7 1 1.4 17 44.6 0.1 0.8-0.2 1.4-0.1 4.6-0.4 1.4-1 0.7-0.7 0-1.8-0.7-0.6-0.1-0.8 0.8-0.1 1.6 0.2 1.3-0.1 0.6-1.5 1-0.4 0.6-0.4 1.3-0.1 2 0.5 1.8 0 1.1-0.2 0.7-0.5 0.4-4.6 2.4-1 0.8-0.9 0.8-0.9 1.9-0.4 0.4-1.1 0.7-1.3 1.4-0.4 1.3-0.4 3.2-0.4 1.6-0.4 0.8-0.6 0.5-3.9 1.6-1.4 1.8-1 1.6-1.6 1.3-1.6 1.5-2.8 1.5-0.9 0.1-2.5-0.3-4.8 1.3-5.3 2.7-0.8 0.3-1.1 0-1.8 0.2-3.8 0.9-1.7 0.2-1.1-0.1-0.8-1-1-0.3-1.5-0.1-3.1 0.4-1.5 0-1.2-0.1-2.8-1.6-1.2-0.2-1.7-0.1-6.9 0.4-6-1.4-2.9-0.4-1 0.1-0.8 0.3-1.8 1.6-0.8 0.2-1 0.1-3-0.2-1.2 0.2-1.7 0.4-2.3 1-0.9 0.2-0.7 0-1.9-0.6-1.2-0.1-1.6 0.4-1.8 1.2-5.3 1.7-8.5 1.4-5.5-0.1-1.2 0.2-0.9 0.3-2.1 1.1-2.3 0.9-1.3 0.3-1.2 0-7.9 0.5-0.8 0-1.9-0.6-3-1.7-2.6-1.2-3.1-0.4 0.5-1.2 0-1-0.5-1.3-0.7-3.9-0.2-1-0.3-0.7-1.6-1.3-0.8-1.5-2.1-1.9-0.8-1.3-0.3-1.8 0.3-0.9 0.7-0.8 1-1.8 0.8-2.1 0-2.8-0.5-0.7-1.9-2-1.3-1-2.9-3.8-1-1-0.8-0.6-4.5-2.1-2.4-1.6-1.9-1.9-0.7-2.1 0-2.7-0.1-2.2-1-1.6-2.2-1-4.7 0-1.9-0.7-0.7-2.5-1.2-1.4-5.2-2.6-1.8-1.8 2.6-5.1-0.7-2.7-1.5-2.1-4-3.7-0.2-1.3 1.2-1.1 1.6-1.2 1-1.3 0.1-1.5-0.5-1.2-1.2-1.7-0.7-2.2-0.4-0.7-0.9-1-1.1-0.5-2.7 0.1-1.1-0.5-0.7-1.4-0.6-3-0.7-1.3-1-0.7-2.7-0.7-1.2-0.5-2.5-4 1.3-3.8 3.9-2.8 5.5-0.8 5.1 0.9 2.6-0.1 1.2-1.2-0.6-2.8-1.3-2.1-3-3.6-1.7-3.9-1.5-14.6-0.7-2.9-0.3-1.5 0.7-0.9 2.3-2-0.6-1.5-5.5-7-1.2-4.2-1.1-1.4-2.2-0.5-3-0.1-1.8-0.7-1.2-1.6-0.9-2.9-0.4-3 1.2-8-0.9-2.1-0.8-5.3 1-1.2 1.4 1.1 1 2.1 1.5 1.6 4 1.3 1.3 0 2-0.9 0.8-0.1 1.1 0.6 1.6 1.9 0.6 0.4 1.4-0.3 1.9-1.7 1.3 0.1 1.2 0.3 0.9-0.2 1.4-0.7-0.2-0.9 0.4-1.2 0.5 0 1.1 0.4 0.5 0 2.4-0.9 1.5 0.1 1.6 0.5 2.4 0.1 1.3-0.4 1-0.5 0.8-0.2 1.1 0.5 1.8 5.1 1.4 2.7 1.6 1.5 2.1 0.5 2.8-0.4 2.1-1 1.5 0.2 0.9 0.4 2.8 1.8 4.6-1.1 1 0 2.5 1 1.3 0.1 1.7 0.6 3.9 2.5 0.8 0 0.4-0.7 1 0.2 1.8 1 1.3 0 0.7-0.7 0.3-1.2 1.9 0.2 5.3 1.3 2.2-0.4 3-2.5 1.6-0.4 0.5 0.5 0.4 2 0.8 0.7 1.2 0.1 1.4-0.8 0.9-0.2 1.9 0.3 3.6 1.3 1.1 0.6 0.2 0.8 0.5 0.5 3.5 0.7 0.9-0.4 1.4-0.4 3.8 0.3 2-0.1 2.9 0.9 1.3 0.1 1.3-0.9-0.1 2.1 0.6 0.5 1-0.2 1.1 0.1 2.1 1 1.2 0.1 1.3-3.3 1.4 1.9 1.3 3.2 0.2 1.7 2.8 0.4 1.6-0.5z" id="PRY603" name="Concepción" data-id="PRY603" data-name="Concepción">
 </path>
 <path d="M731.9 737l-5.8 34.8-2.4 8.2-29.1 20.7-0.7 0.9 0.1 1.2 0.6 1.7 6.9 14.2 0.5 1.4-4.9-2-2.2-0.2-1.3 0.7-1.9 1.4-1.6 1-1.7 0.3-3.7-0.3-1-0.3-0.8-0.5-0.3-0.9 0.5-1 1.5-1.3 1.4-1.6 0.5-1.3-0.2-1.1-0.7-1.6-0.4-1-0.6-3.3-0.4-1.1-0.7-1-1.6-0.3-1.2-0.1-8.8 0.6-1-0.1-2.1-0.5-2.8-0.9-1.4-0.3-3.2-0.1-1.8-1.3-1.1-1-5.8-11-2.4-4-1.4-1.5-0.7 0-1.1 0.5-1.3 1.1-1.6 0.3-0.8-0.4-0.8-0.6-1.2-1.6-4.1-7.6-0.7-2.5-0.3-2-0.7-1.7-1.5-2.2-3.6-4-3.6-6.3-1.2-1.1-4.7-3.1-0.4-0.4-2.7-4 3.9 0 0.9-0.5 2.2-2.5 1-0.6 1.1-0.2 1.4-0.6 1.5-0.9 1.2-0.9 5.7-7.7 1.2-3.1 2.8-0.3 3.2 0.8 2.6 0.3 2.2 1.6 7.7 3.5 4.1 1.2 2.2 0.3 2.1-0.2 2.4-0.8 1.3-1 0.7-0.8 0.2-0.6 0.1-1.1-0.3-1.3 0.2-1.5 0.6-0.9 2-1.1 1.6-0.6 18.8-3.5 6.5-1.9 8-0.9 1.8 0.2 11.1 4.5 2 1.4 4.4 5 1.2 0.8 4.4 2z" id="PRY604" name="Cordillera" data-id="PRY604" data-name="Cordillera">
 </path>
 <path d="M571.1 399.8l0.7 2.9 1.5 14.6 1.7 3.9 3 3.6 1.3 2.1 0.6 2.8-1.2 1.2-2.6 0.1-5.1-0.9-5.5 0.8-3.9 2.8-1.3 3.8 2.5 4 1.2 0.5 2.7 0.7 1 0.7 0.7 1.3 0.6 3 0.7 1.4 1.1 0.5 2.7-0.1 1.1 0.5 0.9 1 0.4 0.7 0.7 2.2 1.2 1.7 0.5 1.2-0.1 1.5-1 1.3-1.6 1.2-1.2 1.1 0.2 1.3 4 3.7 1.5 2.1 0.7 2.7-2.6 5.1 1.8 1.8 5.2 2.6 1.2 1.4 0.7 2.5 1.9 0.7 4.7 0 2.2 1 1 1.6 0.1 2.2 0 2.7 0.7 2.1 1.9 1.9 2.4 1.6 4.5 2.1 0.8 0.6 1 1 2.9 3.8 1.3 1 1.9 2 0.5 0.7 0 2.8-0.8 2.1-1 1.8-0.7 0.8-0.3 0.9 0.3 1.8 0.8 1.3 2.1 1.9 0.8 1.5 1.6 1.3 0.3 0.7 0.2 1 0.7 3.9 0.5 1.3 0 1-0.5 1.2-0.2 1.5-1.1 2.4-0.3 1.4 0 1.6 0.6 2.8 0.1 1.4 0.4 1.8 3 5.7 3.3 3.6 8.5 4.8 3.6 3.2 1.8 2.1 0.6 1 0 1.4-0.7 1.2-2.1 0.8-0.4 1 0.4 1.3 1.7 1.6 0.4 0.8 0 1-0.8 3.8-0.4 4.1-0.5 1.3-2.7 1.8-1.7 2-0.9 1.3-0.4 1.5 0.6 1 1.5 0.2 1.6 0 1.2 0.2 2.1 2.6 0.6 3.3 0.2 3.4 1.2 3.2 2.3-0.8 2 1.3 0.9 2.2-0.8 2.1-0.7 1.2-0.1 1.3 0.5 1.1 1.2 0.5 4.2-0.3 1.1 0.3 1.9 2.5-1.1 2.6-2.1 2.5-1 2.2-2.1 2.5-0.5 0.7-0.1 1.3 0.1 1.7 0.4 1.1 0.5 0.9 2.2 2.5 1 1.4 1.3 2.4 0.4 1.7 0.7 8.1 0.9 3.9 1.3 9.2 0.6 1.9 1.3 3.3-0.2 1.3-1.1 4.1-0.5 5.4 0.1 2.6 0.5 1.8 1.7 3.2 1.6 1 1.8 1.7 0.8 2.1-2.5 5.2-0.5 2.5-0.7 2-1.8 1.4-1.4 0-1.1-0.4-1-0.3-1.4 0.7-0.4 0.9-1.8 7.5-6.1 8.5 0 0.7 1 1.2 1.1 0.1 1-0.7 0.8 0 0.3 2-0.3 1.5-0.4 1.2 0 1.2 1.1 1.5 1.3 1.5 0.5 1.1-0.6 0.8-1.6 0.6-2.6-0.3-3.2-0.8-2.8 0.3-1.2 3.1-5.7 7.7-1.2 0.9-1.5 0.9-1.4 0.6-1.1 0.2-1 0.6-2.2 2.5-0.9 0.5-3.9 0-3.4 0-3.4-0.7-1.4 0.3-0.6 1.8-0.4 3.3-1.1 3.6-1.5 3.4-1.8 2.7-1.7 1.6-1.4 0.8-3.4 1.1-1.8 1-1.3 1.2-2.6 3.2-3.6-2.5-2.3-3.2-3.8-8.6-1.4-1.7-3.8-1.8-1.8-1.4-5.2-6.1-1.7-1.5-2.3-0.9-9.4 0-1.7-0.6-0.7-1.3-0.5-1.5-0.8-1.1-1.1-0.2-2.6 0.3-1.2-0.1-8.3-4.2-1.5 0.1-1.1-2-10.7-7.4-2.2 0-2 1.5-3.3 3.5-1.5 1.1-1.5 0.7-1.3 0.3-1.5-0.5-0.7-0.7-0.3-1.1-0.8-1.2-7.6-8.6-2.8-4-1.4-1.4-2.7-1.4-26.3-5.1-0.6-0.7-0.3-1-0.7-0.6-0.9-0.4-0.9-0.7-1.7-0.5-6-0.1-2.5-0.7-22.8-17.3-3.7-0.9-1.2-0.9-2.4-2.4-1.1-0.7-0.8-0.1-2.2-0.1-2.4-0.8-4.4-3-2.8-1-3.4-2.4-4.9-1.7-1.2-0.9-0.6-0.9-0.9-0.7-1.8-0.2-1.1-0.4-1.5-1.9-4-1.4-1.9-2.5-2.4-4.6-1.1-1.3-4.7-4.1-2.8-1.3-0.4-1-0.3-1.2-0.5-0.9-0.7-0.6-2.6-1.2-2.7-1.6-1.2-1-1.3-1.4-1-0.7-2.2-0.4-2-1.3-3-0.3-1.2-0.5-0.8-0.8-2.1-2.8-4.6-4.7-42.7-28.5-2.1-0.5-2.5 0.3-5.6 2-2.8 0.6-8.9 0.3-9.3-1.4-3.8 0.2-1.1-0.2-1.2-0.8-2.3-2.1-1.3-0.8-1.1-0.1-4.2 0.1-7.4-1.4-3.9-2.8-2.1-1.1-4.3-0.2-0.7-0.2-1.9-4.2-0.1-0.7-1.1-0.3-2.1-1.1-1.3-0.5-1.3-0.1-5.5 0.3-1.1-0.3-2.5-2.1-1.1-0.4-6.9 0.2-0.6-16.7 0.1-0.9 0.3-0.8 1.6-2.7 0.4-1.5 0.9-4.6 0.6-1.2 1.1-1.1 2-1 1.6-0.6 8.5-1.4 4.3-1.8 3.7-2 1.6-0.7 1.6-0.3 38.5-2.2 4.1-0.8 2.8-1.1 11.9-6.4 0.9-0.7 1.1-11.5 1.1-5.1 1.5-4.6 5.4-11 1.3-3.7 0.4-2.2-0.4-1.5-1-2.3-0.2-0.9-0.1-0.8 3.3-8.8 0.6-2.7 0.3-2.1-0.9-6.2 0.3-5.9-0.5-6.5 0.3-1.4 1.1-4.1 0.2-1.7 0-3.3 0.5-2.1 1.1-2.6 23-34.3 0.7-1.6 0.2-2.5-0.7-6 0.2-1.4 0.7-1.1 1.8-0.9 1.9-0.3 6.8-0.1 1.8-0.3 1.3-0.8 0.9-1.7 0.1-1-0.1-0.8-1.6-3.1-0.3-1 0-1 0.2-1.3 0.9-2.2 1-1.4 1.5-1.5 12.2-7.4 1.7-0.6 1.6-0.4 1.3 0.6 0.9 0.7 1.1 1.1 1.9 1.2 0.8 0.3 0.6-0.1 2.9-1.3 7.3-4.6 1.8-1.6 0.4-0.7-0.3-1.8-4.2-12.7 13.3 7.5 4.5 1.8 2.8 0.7 1.9 0.2 18.3-0.7 25.4 2.1 6.1-0.7 55.8 3.9 3.1 0.8 1.6 1.3 0.9 6.1 0.9 1.3 1.7 1.1 41 18.3z" id="PRY605" name="Presidente Hayes" data-id="PRY605" data-name="Presidente Hayes">
 </path>
 <path d="M783.6 583.9l7.3 19.7 0.7 3-0.3 0.9-1.5-0.2-1 0.5-1.8 1.8-1.5 2.1-2.7 2.6-1.5 2.1-1.1 0.6-2.9 0.7-1.7 1-2.3 3.2-0.3 0.6-0.6 2 0.1 2.9-0.7 6.1 0 2.5 0.3 1.7 2.5 2.2 0.7 0.7 0.5 1.2 0.3 1.5 0.5 4.2 0.5 2.1 0.6 1.5 0.7 1.3 0.8 1 1 1 1 0.7 1.1 0.5 2.2 0.8 0.9 0.5 0.7 0.6 0.5 0.8 2.5 5.7 6.3 8.9 2.5 5.2 1.7 5.5 1.3 2.8 1.3 1.8 3.5 2.3 2 1.6 2.3 2.5 1.1 3 0.8 1.9 0.8 1.4 1.2 1 6.3 3.8-14 3.8-9.5 4-2.5 2-1.7 2.1-5.2 10.4-1.1 1.5-1 0.9-1-0.4-5.5-5.2-4.1-4.6-1.5-1.1-5.5-2.1-1.1-0.8-0.9-0.9-0.3-1-0.1-1 0.1-1 0.5-2-0.1-1.4-0.5-1.6-1.5-1.4-1.1-0.1-1.3 0.7-1.1 1.2-1 1.3-0.8 1.7-0.6 1.5-1.1 1.8-1.5 1.6-5.2 3.1-1.2 1.1-0.7 1.3-0.6 1.4-0.9 1.5-1.2 1.2-3.6 2-1.2 0.9-8.7 8.9-4.4-2-1.2-0.8-4.4-5-2-1.4-11.1-4.5-1.8-0.2-8 0.9-6.5 1.9-18.8 3.5-1.6 0.6-2 1.1-0.6 0.9-0.2 1.5 0.3 1.3-0.1 1.1-0.2 0.6-0.7 0.8-1.3 1-2.4 0.8-2.1 0.2-2.2-0.3-4.1-1.2-7.7-3.5-2.2-1.6 1.6-0.6 0.6-0.8-0.5-1.1-1.3-1.5-1.1-1.5 0-1.2 0.4-1.2 0.3-1.5-0.3-2-0.8 0-1 0.7-1.1-0.1-1-1.2 0-0.7 6.1-8.5 1.8-7.5 0.4-0.9 1.4-0.7 1 0.3 1.1 0.4 1.4 0 1.8-1.4 0.7-2 0.5-2.5 2.5-5.2-0.8-2.1-1.8-1.7-1.6-1-1.7-3.2-0.5-1.8-0.1-2.6 0.5-5.4 1.1-4.1 0.2-1.3-1.3-3.3-0.6-1.9-1.3-9.2-0.9-3.9-0.7-8.1-0.4-1.7-1.3-2.4-1-1.4-2.2-2.5-0.5-0.9-0.4-1.1-0.1-1.7 0.1-1.3 0.5-0.7 2.1-2.5 1-2.2 2.1-2.5 1.1-2.6-1.9-2.5-1.1-0.3-4.2 0.3-1.2-0.5-0.5-1.1 0.1-1.3 0.7-1.2 0.8-2.1-0.9-2.2-2-1.3-2.3 0.8-1.2-3.2-0.2-3.4-0.6-3.3-2.1-2.6-1.2-0.2-1.6 0-1.5-0.2-0.6-1 0.4-1.5 0.9-1.3 1.7-2 2.7-1.8 0.5-1.3 0.4-4.1 0.8-3.8 0-1-0.4-0.8-1.7-1.6-0.4-1.3 0.4-1 2.1-0.8 0.7-1.2 0-1.4-0.6-1-1.8-2.1-3.6-3.2-8.5-4.8-3.3-3.6-3-5.7-0.4-1.8-0.1-1.4-0.6-2.8 0-1.6 0.3-1.4 1.1-2.4 0.2-1.5 3.1 0.4 2.6 1.2 3 1.7 1.9 0.6 0.8 0 7.9-0.5 1.2 0 1.3-0.3 2.3-0.9 2.1-1.1 0.9-0.3 1.2-0.2 5.5 0.1 8.5-1.4 5.3-1.7 1.8-1.2 1.6-0.4 1.2 0.1 1.9 0.6 0.7 0 0.9-0.2 2.3-1 1.7-0.4 1.2-0.2 3 0.2 1-0.1 0.8-0.2 1.8-1.6 0.8-0.3 1-0.1 2.9 0.4 6 1.4 6.9-0.4 1.7 0.1 1.2 0.2 2.8 1.6 1.2 0.1 1.5 0 3.1-0.4 1.5 0.1 1 0.3 0.8 1 1.1 0.1 1.7-0.2 3.8-0.9 1.8-0.2 1.1 0 0.8-0.3 5.3-2.7 4.8-1.3 2.5 0.3 0.9-0.1 2.8-1.5 1.6-1.5 1.6-1.3 1-1.6 1.4-1.8 3.9-1.6 1.3 0.9 1.4-0.7 1.4-1 2.7-1.4 2.3-0.6 2.5-0.4 1.3-0.4 1.1-0.5 0.6-0.1 1.8 0.6 1.6 0.2 5 0.3 1.7 0.5 1 0.6 1 0.8 0.5 0.9 0.3 0.9 0 0.7-0.9 2.2-0.2 0.7 0.2 0.6 0.5 0.8 2 1.8 1 1.3 0.3 0.9 0.2 1.2-0.4 1.4-0.8 1.1-1 1.2-9.8 8.2-0.4 0.6 0 0.9 0.3 1.1 0.6 1.7 1 2.2 2.1 3.8 1.5 1.6 1.2 0.9 0.6 0 0.6-0.4 1.9-1.5 0.8-0.5 1.3-0.7 0.7-0.4 0.4-0.7 0.3-0.8 0.1-1.1 0-1.9 0.1-0.7 0.5-0.4 1-0.4 7.3-1.5 1.6 0 1.2 0.1 0.3 0.5 0 0.6-0.2 1.5-0.1 1.7 0.4 4.8-0.2 1.4-0.9 1.9-0.7 1.1-1.2 1.4-2.7 3.5-0.2 0.6 0 0.6 0.6 2 0.4 3.2-0.1 3.3-0.2 1.5-0.5 1.3-2.1 3.9-0.6 2.2-0.5 0.7-4 3-1.1 0.5-1 0.1z" id="PRY606" name="San Pedro" data-id="PRY606" data-name="San Pedro">
 </path>
 <path d="M617.9 748.9l2.7 4 0.4 0.4 4.7 3.1 1.2 1.1 3.6 6.3 3.6 4 1.5 2.2 0.7 1.7 0.3 2 0.7 2.5 4.1 7.6 1.2 1.6 0.8 0.6 0.8 0.4 1.6-0.3 1.3-1.1 1.1-0.5 0.7 0 1.4 1.5 2.4 4-4.8 3.1-3.5 3.1-0.8 1-10 16.2-3.8 4.5-4.3 4.1-1.4 2-1.3 2.7-1.5 4.5-0.4 3.9 0.2 3 2.7 9 0.2 2.3-0.4 2.9-3.2 6.1-2.7 3.5-5.6 5.4-1.5-3.8-3-3.9-0.7-1.3-0.4-1.2-0.1-1.4-0.4-0.8-0.5-0.6-2.4-1-1.3-0.7-3.1-2.7-2.8-1.8-2.6-2.3-1.6-1.8-1.6-2.1-1-0.8-0.8-0.4-0.7 0-2.5 0.6-1.6-0.1-2.3-0.9-1.2 0.1-0.8 1-0.1 1 0.2 2.3-0.2 1.5-1.3 0.6-2.8-0.6-0.4-0.2 0.8-0.6 1.3-1.9-1.8-4.4-0.4-2.6 1.8-1.1 2.1-0.7 2.3-1.8 2-2.1 1.3-1.7-1.3-0.3-1.1-0.5-0.9-0.8-0.8-1.1 2.5-3.8 1.5-1.4 2.5-1.1 1.4-0.1 1.2 0.1 1.2-0.1 1.1-0.8 0.4-1 0.7-2.9 0.2-0.7 3.5 0.5 1.8-0.1 0.8-0.8 0.6-3 1.3-1 1.6-0.4 1.4-1.5 0.6-2.3 1.6-11.4-0.2-2.2-0.8-1.7-1.6-1.8-2.2-1.8 2.8-2.6 2.9-3.3 1.2-5.2-0.6-4.9-1.8-3.3-2.9-2.9 1.7-1.6 1.8-2.7 1.5-3.4 1.1-3.6 0.4-3.3 0.6-1.8 1.4-0.3 3.4 0.7 3.4 0z" id="PRY607" name="Central" data-id="PRY607" data-name="Central">
 </path>
 <path d="M835.2 819.7l-1.9 3.8-1.6 4.2-0.7 1.3-1.1 1.2-1.4 0.4-1.1-0.1-1.1-0.4-1.1-0.1-1.2 0.4-1.8 1.5-0.9 1.2-1.2 2.6-0.6 0.7-1.6 0.9-10.6 4.4-1.6 1-2.9 2.2-1.3 0.7-4.3 0.9-1.4 0.6-2.2 2-1.5 0.9-3.9 1.1-1.5 0.7-1.1 1.4-0.6 1.2-2.5 10.2-0.7 1.7-2.9 1.9-6.7 3.4-2.2-0.2-4.7-3.1-3.3-2.7-1.5-0.9-1.4 0.1-1.7 0.4-5.9 2.6-1.1 0.1-0.8-0.3-0.8-0.4-0.8 0-0.9 0.4-1 1.7-0.4 1.5-0.2 1.6-0.5 1.5-1 1-1.9 0.7-5.8 0.3-1.7 0.5-1.2 1-1.3 2.2-0.8 2.2-0.8 5.9-1 1.1-1.7 0.7-3-0.4-3.8 0-7.9-14.7-0.7-1.8-0.5-1.9-0.8-6 0.1-0.8 0.7-0.9 0.8-0.5 5.1-1.3 1.1-0.6 0.6-1.3 0-2-1.1-3.7-1-2-2.9-3.6-0.8-1.5-0.8-2.1-1.3-4.1-0.7-4-0.1-2.3 0.2-2.2 0.9-2.4 2-1.8 2.5-1.6 6.6-3.2 1.2-0.7 5.6-5.4 1.6-1 2-0.8 3.7-0.6 1.6-0.5 1.3-0.5 3.6-2.4 2.1-0.6 2.3-0.2 13.4 0.6 3.4-0.3 1.7 0.1 3.5 0.6 9.6 0.4 1.3 0.7 1 1 1.4 0.8 1.9 0.3 12.7-0.3 2.2 0.3 2.4 1 1.6 1.2 1.4 1.4 2.5 3 1.5 1.3 1.5 0.9 3.1 0.3 3.7-0.5 7.2-2.3 7.2-3 1 0.1 0.6 0.2 1.4 1.8z" id="PRY608" name="Guairá" data-id="PRY608" data-name="Guairá">
 </path>
 <path d="M697.6 937.4l3.5 2.2 0.7 0.9 1 1.6 1 1.9 2.1 3.6 2 1.8 5 3.4 1.8 0.8 1.7 0.4 3.8 0.1 2 0.6 1 1.1 0.2 1.1-0.2 1.2-0.6 1.4-0.1 0.9 0.2 1.2 4.8 48.5-0.3 4.6-1.1 2.2-6 0.8-0.9 0.3-1.1 0.7-3 3.5-1.1 0.9-1.1 0.7-1.2 1.4-1.1 2.1-1.6 5.4-0.3 2.9 0.2 2.2 0.7 1.1 0.9 1 4.1 4 0.6 0.8 0.5 1-0.1 0.7-1.2 2.5-0.1 0.7 0.6 9.5-5.4 1.5-6 4.8-4.4 0.9-4.3-2.7-7.4-7.4-4.1-1.7-4.4 0.4-4.3 1.8-11.7 6.5-3.9 0.9-4.7-0.2-1-0.2-2.8 0-1.3-0.5-1.1-0.7-3.2-2.7-1.1-0.6-6.6-1.8-1.3-0.7-0.8-0.8 2.2-9.1 10.6-30.4 0.7-5.1-0.9-2.1-3.4-1-21.6-3.3-0.9-0.4-13.6-16.1-9.9-14.1-1-2.6-0.8-2.3-8.4-49 4.1 2.1 2 2.8 2.1 1.3 0.7 1 0.7 1.2 0.8 2.4 0.4 0.9 0.8 0.9 3 1.8 0.8 0.9 0.8 1.1 0.9 1.1 1.6 0.9 8.6 1.9 1.6 0.8 0.8 1.1 1.2 1.2 1.7 0.9 3.1 0.9 1.9 1.3 2.6 1.2 3.2 0.3 10.4-2.3 6.2-2.2 1.5-1 0.8-1.3 0.2-1.6 0-2 0.2-1.8 0.6-1.2 1.1-0.8 1.7-0.6 1.3-1.3 0.2-0.6 1-1.5 1.3-0.6 0.6-0.8 0.4-0.9 0.4-1.2 0.6-1.7 1.1-1.7 1.4-1.4 1.9-1.5 1.6-0.8 1.2-0.3 1.3-0.2 1.1 0.1 1.9 0.5 7 3.7 2.6 1.7 3.9 3.3 2.2 1.4 2.2 0.3 1.4-0.4 1.5 0.5 1.1 0.5 4.2 6.7z" id="PRY609" name="Misiones" data-id="PRY609" data-name="Misiones">
 </path>
 <path d="M612.1 867.3l3.3 19.2-0.1 1.4-0.5 1-15.8 15.8-4.6 9-1.4 2.1-2.5 1.9-2.4 2.7 8.4 49 0.8 2.3 1 2.6 9.9 14.1 13.6 16.1 0.9 0.4 21.6 3.3 3.4 1 0.9 2.1-0.7 5.1-10.6 30.4-2.2 9.1-1.9-1.9-1.1-0.8-3-0.8-3.1 0-12 1.8-3-0.3-2.7-1-19.2-9.8-1.4-0.5-12.2-2.6-5.1-1.7-6.9-1.5-3.7-1.6-9.2-2-3.8-0.1-7.2 1.3-1.7 0.1-13-1.6-32.4 2.8-10.6 4.6-0.5 0.5 0.5-6.7-0.2-2.8-1.4-2.5-3-2.2-1.6-1.6-0.7-1.7 0.6-3.9 1.7-2.7 2.7-1.6 6-1.1 0.6-1.4-0.2-2 0-2.4 0.7-2.2 0.6-1 0.7-1 1.1-0.6 0.7 0.6 0.4 1.8 0.9 0.6 0.9 0.2 0.5-0.7 0.1-2.2 0.6-2 1.1-1.9 2.1-2.6 1-1.9-1.8-1.6-0.3-1.7 1-1.7 1.9-1.3 5.2-1.4 2.6-1.1 1.1-1.7 1.2-1.2 5.4-0.5 1.6-1.3-0.8-2.3-2.1-1.7-1.5-1.8 1.5-2.9 2-0.7 2.1 0.7 2 0.3 1.6-1.7-0.4-1.1-0.9-1.5-0.2-1.4 1.9-0.5 1.5 0 0.9-0.2 0.4-0.7 0.4-10.3 0.5-2.6 0.6-1.5 0.4-0.1 0.6 0.4 3.7 0.8 1.4-0.1 0.7-0.9-0.4-1.2-0.7-1-0.5-1.2-0.1-1.6 0.5-0.4 2-1.5 0.8-0.8-0.7-0.7-1-1.9-0.7-1-2.7-2-0.7-0.8-0.4-2.2 0.3-2 0.7-2.1 0.3-2.3 0.4-1 1.7-1.3 0.4-1.4-2.9-2.7-0.4-1.7 0.8-2.1 4-7.1 0.6-1.9 0.3-2.1-0.6-4.3 0-2.1 1-1 1.8-0.4 2.7-1.1 2.1-1.6-0.1-1.8-1.7-1.2-1.9-1-1.4-1.3-0.3-2.4 1.2 0.4 1 0.6 0.6 0.8 0.4 0.9 1.1-1.4 1.1-2.8 1.1-4.4 1.2-1.3 7.7-2.8 4-2.3 13.7-10.3 1.5-2.2 0-1.7-5.4-1.6 0.9-2 4.1-3.5 0.7-1 0.7-1.5-0.1-1.4-2.7-1-0.4-0.9 0.4-1 2.5-0.9 2.5-1.4 1.6-1.1 0.4 0.2 2.8 0.6 1.3-0.6 0.2-1.5-0.2-2.3 0.1-1 0.8-1 1.2-0.1 2.3 0.9 1.6 0.1 2.5-0.6 0.7 0 0.8 0.4 1 0.8 1.6 2.1 1.6 1.8 2.6 2.3 2.8 1.8 3.1 2.7 1.3 0.7 2.4 1 0.5 0.6 0.4 0.8 0.1 1.4 0.4 1.2 0.7 1.3 3 3.9 1.5 3.8z" id="PRY610" name="Ñeembucú" data-id="PRY610" data-name="Ñeembucú">
 </path>
 <path d="M702 820.1l3.8 2.7 2.5 3.3 1.7 1 3.9 0.5-2 1.8-0.9 2.4-0.2 2.2 0.1 2.3 0.7 4 1.3 4.1 0.8 2.1 0.8 1.5 2.9 3.6 1 2 1.1 3.7 0 2-0.6 1.3-1.1 0.6-5.1 1.3-0.8 0.5-0.7 0.9-0.1 0.8 0.8 6 0.5 1.9 0.7 1.8 7.9 14.7-0.9 4.2-0.6 1.2-4.1 4.7-0.8 1.6-1.3 5-0.4 4.7-0.3 1.2-0.5 1-2.5 1.8-0.4 0.7-0.3 0.8 0.1 1.3 0.3 1.2-0.1 1.2-0.6 1.4-1.5 1.7-0.8 1-0.4 1.6-0.2 1.5-0.5 1.6-1 1.6-2.3 2-1.4 0.9-1.7 1.5-1.2 2.9-4.2-6.7-1.1-0.5-1.5-0.5-1.4 0.4-2.2-0.3-2.2-1.4-3.9-3.3-2.6-1.7-7-3.7-1.9-0.5-1.1-0.1-1.3 0.2-1.2 0.3-1.6 0.8-1.9 1.5-1.4 1.4-1.1 1.7-0.6 1.7-0.4 1.2-0.4 0.9-0.6 0.8-1.3 0.6-1 1.5-0.2 0.6-1.3 1.3-1.7 0.6-1.1 0.8-0.6 1.2-0.2 1.8 0 2-0.2 1.6-0.8 1.3-1.5 1-6.2 2.2-10.4 2.3-3.2-0.3-2.6-1.2-1.9-1.3-3.1-0.9-1.7-0.9-1.2-1.2-0.8-1.1-1.6-0.8-8.6-1.9-1.6-0.9-0.9-1.1-0.8-1.1-0.8-0.9-3-1.8-0.8-0.9-0.4-0.9-0.8-2.4-0.7-1.2-0.7-1-2.1-1.3-2-2.8-4.1-2.1 2.4-2.7 2.5-1.9 1.4-2.1 4.6-9 15.8-15.8 0.5-1 0.1-1.4-3.3-19.2 5.6-5.4 2.7-3.5 3.2-6.1 0.4-2.9-0.2-2.3-2.7-9-0.2-3 0.4-3.9 1.5-4.5 1.3-2.7 1.4-2 4.3-4.1 3.8-4.5 10-16.2 0.8-1 3.5-3.1 4.8-3.1 5.8 11 1.1 1 1.8 1.3 3.2 0.1 1.4 0.3 2.8 0.9 2.1 0.5 1 0.1 8.8-0.6 1.2 0.1 1.6 0.3 0.7 1 0.4 1.1 0.6 3.3 0.4 1 0.7 1.6 0.2 1.1-0.5 1.3-1.4 1.6-1.5 1.3-0.5 1 0.3 0.9 0.8 0.5 1 0.3 3.7 0.3 1.7-0.3 1.6-1 1.9-1.4 1.3-0.7 2.2 0.2 4.9 2z" id="PRY611" name="Paraguarí" data-id="PRY611" data-name="Paraguarí">
 </path>
 <path d="M846 542.7l-1.2 0.9-1.2 1.9-2.1 5.8-1 5-0.8 1.3-1.3 1.3-4.9 2.9-2.1 0.7-3.3 0-1.7 0.8-2.6 1.5-12.3 9.1-5 2.9-1.2 1.1-1.7 3-0.7 0.8-1.2 0.8-3 1.2-3 0.7-4.2 0.4-2.6 1.2-0.6 0.1-1.5-0.4-1.7-0.8-1.5-1 1-0.1 1.1-0.5 4-3 0.5-0.7 0.6-2.2 2.1-3.9 0.5-1.3 0.2-1.5 0.1-3.3-0.4-3.2-0.6-2 0-0.6 0.2-0.6 2.7-3.5 1.2-1.4 0.7-1.1 0.9-1.9 0.2-1.4-0.4-4.8 0.1-1.7 0.2-1.5 0-0.6-0.3-0.5-1.2-0.1-1.6 0-7.3 1.5-1 0.4-0.5 0.4-0.1 0.7 0 1.9-0.1 1.1-0.3 0.8-0.4 0.7-0.7 0.4-1.3 0.7-0.8 0.5-1.9 1.5-0.6 0.4-0.6 0-1.2-0.9-1.5-1.6-2.1-3.8-1-2.2-0.6-1.7-0.3-1.1 0-0.9 0.4-0.6 9.8-8.2 1-1.2 0.8-1.1 0.4-1.4-0.2-1.2-0.3-0.9-1-1.3-2-1.8-0.5-0.8-0.2-0.6 0.2-0.7 0.9-2.2 0-0.7-0.3-0.9-0.5-0.9-1-0.8-1-0.6-1.7-0.5-5-0.3-1.6-0.2-1.8-0.6-0.6 0.1-1.1 0.5-1.3 0.4-2.5 0.4-2.3 0.6-2.7 1.4-1.4 1-1.4 0.7-1.3-0.9 0.6-0.5 0.4-0.8 0.4-1.6 0.4-3.2 0.4-1.3 1.3-1.4 1.1-0.7 0.4-0.4 0.9-1.9 0.9-0.8 1-0.8 4.6-2.4 0.5-0.4 0.2-0.7 0-1.1-0.5-1.8 0.1-2 0.4-1.3 0.4-0.6 1.5-1 0.1-0.6-0.2-1.3 0.1-1.6 0.8-0.8 0.6 0.1 1.8 0.7 0.7 0 1-0.7 0.4-1.4 0.1-4.6 0.2-1.4-0.1-0.8-17-44.6-1-1.4-1.7-0.7-0.7-0.2-1.3 0.1-0.6 0.3-3 2.4-1.1 0.5-1.4 0.4-1.2 0.6-0.8 1-1.4 2.4-0.8 1.1-0.9 0.8-1.8 0.8-6.3 1.1-1.2 0.6-1 0.7-1 1.3-0.6 1.9-0.4 2.4-0.6 1.4-1.2 1.6-1 2-1 0.7-1.3 0.4-2.3 1-1.3 0.3-1.6-0.3-1.5-1.1-1-1.2-0.8-0.5-0.7-0.1-0.6 0.3-0.9 0.9-1.2 0.5-2.2 0.2-2.3 0.1-0.5-0.6 0.3-1.6 0.6-1 0.8-0.9 2.6-1.7 0.6-0.9 0.1-1.3-0.7-2.4-1-5.2-0.9-2.5-1-1.7-0.8-0.9-1.3-0.9-0.5-0.5-0.3-0.9 0.4-2 0-0.9-0.2-0.9-1.1-1.5-0.6-0.9-0.2-1.2 0.2-1.5 0.3-1 0.2-1.2 0.1-1.5-0.3-2.4 0.1-2.4-0.1-0.7-0.6-2.6 0-1 0.3-0.6 1.2-0.9 0.4-0.7 0.1-1-0.6-2.8 0.1-0.9 0.8-1.4 0.7-0.7 3.8-2.6 0.9-0.7 5-7.3 0.7-0.5 2.8-1.5 0.4-0.4-4.8-1.9-25.1-6.3-1-1.1 2.7-3.1 0.8-1.2 0.1-0.8 0.5-0.2 1.6 0.6 0.9-0.1 3.9-1.2 0.9 0.2 0.4 0.8 1.2-0.8 0.5-0.9 1-2.3 0.6-0.5 2 1 4 4.7 1.9 0.5 0.6-1.1-1.3-2.3 0.8-0.7 1.3-0.4 0.9-0.5 4-3 1.3-1.4 2-3.6 1.2-0.8 0.4-0.5 0.7-2 0.3-0.8 1.8-2.7 1.1-1.2 1.2-1.1 2.1-0.6 8.6-1.6 1.6 0.2 1.3 1.3 3.1 7.9 2.8 4.2 3.6 3.5 6.6 4 3.6 3.4 2 1.3 2.1 0.5 20.4 1 1.6-0.4 1.5-0.9 1.6 0.8 1.7 1.4 1.9 0.9 7.4 0.7 2.2 1.4 0.2-0.9 1.4-2.7 5.9 8.2 4.8 3.6 1.2 1.4 1 3.1 0.4 10.9 0.9 4.6 2 4.2 3.1 3.4 4 2.2 2.4 0.8 1.5 1 0.9 1.5 0.4 2.7-0.1 1-0.7 2.1-0.1 1.1 0.3 1.1 0.8 2.1 0.1 1.1-1.3 4.3-2 3.7-1.6 3.9 0.3 4.9 2.7 9.9 0 2.2-0.7 4.4 0.3 2.2 3.1 3.6 1.3 2 0.6 2.5-0.6 4.8 0.1 2.1 1.3 1.7 3.3 2 0.4 1.2 2.6 9.6 0 2.1-2.8 5.9-0.4 2.2 0.8 2.9 3.7 3.9 1.3 2.4-0.2 4-3.2 7.2 0.3 4.5 0.7 3.9z" id="PRY615" name="Amambay" data-id="PRY615" data-name="Amambay">
 </path>
 <path d="M966.8 696.1l-13.3 0.3 11.9 4.3 5.1 1.1 2.5 0.9 2.1 1.7 0.6 1.6-0.6 1.6-1.1 1.6-0.7 1.8-0.2 8-2.6 0.1-8.6-1.4-14 1.9-1.2-0.2-0.8-0.4-1-0.9-0.4-1.2-0.7-0.9-1.1-0.7-1.2-0.3-1.1-0.1-0.9 0.1-10.8 3.7-0.7 0.5-0.6 0.7 10.5-0.2 3.3 0.7 2.6 0.8 2.8 0.6 7.2-0.3 2.7 0.3 9 2.4 3.2 0.4 1.2 0.6 0.6 0.9-0.1 1.3-0.4 1.4-3.4 6.7-0.5 2.4 0.1 1.4 1.3 4.1-1.1-0.2-9.3-4.3-1.3-0.2-3.9 0.6-1.1-0.1-1-0.4-1-0.7-1.4-1.3-0.8-0.5-0.9 0-0.8 0.4-2.2 2.3-6 3.5-0.9 0.9-1.5 2.2 8-1.4 1.2 0 0.9 0.6 0.3 0.7 0 1.6 0.2 0.7 1.1 0.3 1.6-0.4 2.6-1.3 2.2-0.6 2.2 0 5.3 0.8 0.8 0.4 0.5 0.6-0.1 1-0.8 1.1-2.3 1.3-1 0.9 2.1 0.1 6.2-0.6 0.8 0.1 1.2 0.5 2.6 1.7 0.7 0.2-0.6 1-1.8 1.8-1.9 1.5-0.5 0.8-0.1 0.9 0.3 1.2-1.5 0.4-0.7 0.5-0.3 0.7 0 0.7 0.6 2-0.3 1.5-0.7 1.4-1.1 1.1-1.1 1-1.3 0.8-1.1 0.3-1.2-0.1-7-1.8-1.9 0 0.6 0.9 1.1 0.8 2.3 1.2 3.3 2.7 0.4 0.7-0.1 0.8-0.3 0.9-3.4 5.8-0.4 2.1-0.1 2.2-0.3 2.3 4.3 0.9-0.3 1.6-0.1 2.8 0.5 2.9 1.2 2.4 0.8 2.5-0.3 3.2-0.7 3.1-0.3 2.6 1.9 4.3 0.4 2.6-1.8 1.2-4.2-0.2-1.1 1.2 0 3.5 2.1 6.9 0.4 2.6 0.5 1.8 2.7 3.3 0.8 1.6-0.2 2.9-1.1 2.4-1.3 2.1-0.6 2.1 0.9 6 0.1 2.4-1 2-1 0.4-2.9 0.2-1 0.4-0.7 1.4 0.1 1.4 0.4 1.4 0.6 4 1.2 4.2 0 3-2.5 8.4 0.5 2 2.1 2.6 0.4 1.8-0.7 1.4-1.4 2-1 1.8 0 0.3-7.1-0.5-1.3-0.4-0.7-0.8-0.3-0.8 0.2-1.8-0.2-1.2-0.7-0.9-0.6-0.4-2.3-1.2-1.7-0.7-2.3-0.4-1.8 0-1 0.3-1 0.6-1.6 1.3-1.3 0.8-0.9 0-1-0.3-1.1-0.9-0.2-0.7 0-0.9 0.5-1.9 0.1-0.7-0.3-1-0.9-0.1-1.3 0.7-1.5 2.1-1.8 3.3-1.3 1.4-1.5 0.8-1.7 0.4-3.9 0.4-1.2 1.4-0.6 1.3-0.7 0.6-0.8-0.1-0.9-0.5-1.9-1.4-1.2-0.7-3.8-1-3-1.3-2.2-0.5-2.3-0.1-8.8 0.4-2.5-2.3-4-12.9 6.2-3.7 1-0.9 0.5-1.3 0-1.1-0.8-0.9-0.7-0.5-0.9-0.2-2.3-0.2-1-0.4-0.7-0.6-1.5-1.8-0.8-0.5-0.7-0.1-3.7 1.1-2.1 0.4-3.4 0.2-2.9-0.1-1 0.2-1.6 0.8-0.8-0.2-1-0.4-1.6-0.8-4.9-2-0.5-0.5-0.7-1-0.4-1.4 0.4-3.7 0-1.2-0.8-2.7 0-1.2 0.4-1.5-0.4-1.3-1.2-1.9 0-1.4 0.8-2.3 2.3-5.3 0.4-0.5 2.5-2.1 0.7-0.9 0.5-1.3 1.9-5.8 0.4-1.8 0.2-3 0.7-1.8 0.9-1.3 3-2.8 0.7-1.1 0.2-0.8-0.2-1-0.5-0.9-1.5-2-0.5-1.3-0.2-1.1 0-1-0.3-0.8-0.6-0.6-1.6-0.5-1.1 0-4.3 1.2 27.6-38.7 3.6-4 1.3 0.1 2.2 1.5 3.1 3.1 1.2 0.7 2.8 1 1.5 0.4 1.3-0.1-0.1-1.3-0.6-2.6-0.1-1.4 0.8 0.9 1.1 1.8 0.7 0.9 1 0.6 0.9 0.3 2.1 0.4 1.6 0.7 1 1.2 0.4 1.5 0.2 1.8 1.6 2.8 3.1 0.4 3.1 0.1 2.7-0.8 0-1.6-0.2-0.7-0.5-1.3-0.7-1-0.6-1.2-0.1-1.6 0.2-2.3-0.1-0.7-0.9-0.9-3.1-1.3-1.1-0.7-0.6-1.1 0-0.6 0.7-2.6 0-1.5-0.8-1-10-7.2-9.5-9.2-1.1-1.5-0.6-0.2-2 0.1-0.5-0.2-1.4-1.4-1.2-0.3-2.2 0.3-1.6-0.1-1.4-0.4-1-0.8-0.9-0.9-0.7-1.1-0.9-2.5-0.6-1.2-1.5-2.1-0.3-0.8 0-1.3 0.4-1.5 0-1.9-0.4-1.4 0-0.9 0.2-2.1-0.2-1.5-0.4-1.4-0.1-0.9 0.1-1.4 0.8-0.9 1.2-1.9 0.2-1.2 0-1.2-1.1-3.1-0.5-2.4 0.2-1.5 0.5-0.8 0.9-0.6 0.9-0.7 0.7-1.6 0.3-1.5-0.2-5.4 0.5-1.3 1.3-2.2 0.1-1.1-0.1-1.4-0.7-2.9-0.2-1.9 0.2-1.3 0.3-1.1 0.6-0.9 3.6-4.2 3.1-4.4 13.1-4.6 2.6 0.7-0.5 4.8 0.1 1.5 0.6 1.5 1.7 1.8 1.7 0.7 1.6 0.3 1.4-0.3 2.8-1.2 1.8-0.3 1-0.1 9.1 3 2.3 1.3 1.4 1.4 0.2 1.1-0.1 1-0.4 1.4 0 0.7 0.2 0.7 0.8 0.8 0.9 0.3 1 0.2 4.3 0.1 1.7 0.3 1 0.4 0.4 0.4-0.1 2.5 0.6 1 0.7 0.3 0.7 0 1.2-0.7 1.2-1.3 0.7-1.2 1.4-1.2 1.5-0.1 1 0.2 1.4 0.7 0.9 0.3 0.9 0.2 0.8-0.1 1.7-0.6 1.1-0.1 0.5 0.2 0.5 0.6 1.3 3.2 0.7 1.1 0.8 1 1.1 0.5 9.1 1.3 3.5 1.1 0.5 0.2z" id="PRY616" name="Alto Paraná" data-id="PRY616" data-name="Alto Paraná">
 </path>
 <path d="M851.3 807.2l-2 3.1-0.2 1.6 0 0.6-0.2 1-0.6 0.8-1.1 1.4-0.7 0.9-1.1 1-1.3 0.7-5.9 2.3-3-0.9-1.4-1.8-0.6-0.2-1-0.1-7.2 3-7.2 2.3-3.7 0.5-3.1-0.3-1.5-0.9-1.5-1.3-2.5-3-1.4-1.4-1.6-1.2-2.4-1-2.2-0.3-12.7 0.3-1.9-0.3-1.4-0.8-1-1-1.3-0.7-9.6-0.4-3.5-0.6-1.7-0.1-3.4 0.3-13.4-0.6-2.3 0.2-2.1 0.6-3.6 2.4-1.3 0.5-1.6 0.5-3.7 0.6-2 0.8-1.6 1-5.6 5.4-1.2 0.7-6.6 3.2-2.5 1.6-3.9-0.5-1.7-1-2.5-3.3-3.8-2.7-0.5-1.4-6.9-14.2-0.6-1.7-0.1-1.2 0.7-0.9 29.1-20.7 2.4-8.2 5.8-34.8 8.7-8.9 1.2-0.9 3.6-2 1.2-1.2 0.9-1.5 0.6-1.4 0.7-1.3 1.2-1.1 5.2-3.1 1.5-1.6 1.1-1.8 0.6-1.5 0.8-1.7 1-1.3 1.1-1.2 1.3-0.7 1.1 0.1 1.5 1.4 0.5 1.6 0.1 1.4-0.5 2-0.1 1 0.1 1 0.3 1 0.9 0.9 1.1 0.8 5.5 2.1 1.5 1.1 4.1 4.6 5.5 5.2 1 0.4 1-0.9 1.1-1.5 5.2-10.4 1.7-2.1 2.5-2 9.5-4 14-3.8 3.2-3.8 3.3-5.3 1.7-1.9 5.9-4.6 13-14.1 1.6-0.8 2.3-0.8 31.2-5.3-3.1 4.4-3.6 4.2-0.6 0.9-0.3 1.1-0.2 1.3 0.2 1.9 0.7 2.9 0.1 1.4-0.1 1.1-1.3 2.2-0.5 1.3 0.2 5.4-0.3 1.5-0.7 1.6-0.9 0.7-0.9 0.6-0.5 0.8-0.2 1.5 0.5 2.4 1.1 3.1 0 1.2-0.2 1.2-1.2 1.9-0.8 0.9-0.1 1.4 0.1 0.9 0.4 1.4 0.2 1.5-0.2 2.1 0 0.9 0.4 1.4 0 1.9-0.4 1.5 0 1.3 0.3 0.8 1.5 2.1 0.6 1.2 0.9 2.5 0.7 1.1 0.9 0.9 1 0.8 1.4 0.4 1.6 0.1 2.2-0.3 1.2 0.3 1.4 1.4 0.5 0.2 2-0.1 0.6 0.2 1.1 1.5 9.5 9.2 10 7.2 0.8 1 0 1.5-0.7 2.6 0 0.6 0.6 1.1 1.1 0.7 3.1 1.3 0.9 0.9 0.1 0.7-0.2 2.3 0.1 1.6 0.6 1.2 0.7 1 0.5 1.3 0.2 0.7 0 1.6-2.7 0.8-3.1-0.1-3.1-0.4-1.6-2.8-0.2-1.8-0.4-1.5-1-1.2-1.6-0.7-2.1-0.4-0.9-0.3-1-0.6-0.7-0.9-1.1-1.8-0.8-0.9 0.1 1.4 0.6 2.6 0.1 1.3-1.3 0.1-1.5-0.4-2.8-1-1.2-0.7-3.1-3.1-2.2-1.5-1.3-0.1-3.6 4-27.6 38.7z" id="PRY617" name="Caaguazú" data-id="PRY617" data-name="Caaguazú">
 </path>
 <path d="M874.8 876.8l-1.6-0.3-0.9-0.4-0.6 0.5-0.2 1.1-0.1 1.6-0.5 2 0.1 6.3-0.3 1.2-0.7 1.2-1 1.1-4.9 4.8-10 7.9-2.2 1.3-8 3-2.5 0.5-1.6 0.1-1.7-0.4-2.1 0-2.5 0.3-5 1.4-7 3-1.2 1.6-1 2.6-0.8 1.1-2.3 1.8-5.5 6-1.9 1.2-2.1 1-8.2 1.5-6 2-1.7 1.3-2.7 4-0.5 1.3-1.1 3.3-1.2 1.7-1.4 1.6-1.7 1.5-1 1.1-0.7 1.3-1.1 4.1-0.9 1-1.9 0.8-3.6 0.5-7.3 2.4-10.2 5.6-13.7 5.4-2.1 0-1.8-0.4-1.8-1.2-3.7-3.1-0.8-0.4-8.9-2-0.2-1.2 0.1-0.9 0.6-1.4 0.2-1.2-0.2-1.1-1-1.1-2-0.6-3.8-0.1-1.7-0.4-1.8-0.8-5-3.4-2-1.8-2.1-3.6-1-1.9-1-1.6-0.7-0.9-3.5-2.2 1.2-2.9 1.7-1.5 1.4-0.9 2.3-2 1-1.6 0.5-1.6 0.2-1.5 0.4-1.6 0.8-1 1.5-1.7 0.6-1.4 0.1-1.2-0.3-1.2-0.1-1.3 0.3-0.8 0.4-0.7 2.5-1.8 0.5-1 0.3-1.2 0.4-4.7 1.3-5 0.8-1.6 4.1-4.7 0.6-1.2 0.9-4.2 3.8 0 3 0.4 1.7-0.7 1-1.1 0.8-5.9 0.8-2.2 1.3-2.2 1.2-1 1.7-0.5 5.8-0.3 1.9-0.7 1-1 0.5-1.5 0.2-1.6 0.4-1.5 1-1.7 0.9-0.4 0.8 0 0.8 0.4 0.8 0.3 1.1-0.1 5.9-2.6 1.7-0.4 1.4-0.1 1.5 0.9 3.3 2.7 4.7 3.1 2.2 0.2 6.7-3.4 2.9-1.9 0.7-1.7 2.5-10.2 0.6-1.2 1.1-1.4 1.5-0.7 3.9-1.1 1.5-0.9 2.2-2 1.4-0.6 4.3-0.9 1.3-0.7 2.9-2.2 1.6-1 10.6-4.4 1.6-0.9 0.6-0.7 1.2-2.6 0.9-1.2 1.8-1.5 1.2-0.4 1.1 0.1 1.1 0.4 1.1 0.1 1.4-0.4 1.1-1.2 0.7-1.3 1.6-4.2 1.9-3.8 3 0.9 5.9-2.3 1.3-0.7 1.1-1 0.7-0.9 1.1-1.4 0.6-0.8 0.2-1 0-0.6 0.2-1.6 2-3.1 4.3-1.2 1.1 0 1.6 0.5 0.6 0.6 0.3 0.8 0 1 0.2 1.1 0.5 1.3 1.5 2 0.5 0.9 0.2 1-0.2 0.8-0.7 1.1-3 2.8-0.9 1.3-0.7 1.8-0.2 3-0.4 1.8-1.9 5.8-0.5 1.3-0.7 0.9-2.5 2.1-0.4 0.5-2.3 5.3-0.8 2.3 0 1.4 1.2 1.9 0.4 1.3-0.4 1.5 0 1.2 0.8 2.7 0 1.2-0.4 3.7 0.4 1.4 0.7 1 0.5 0.5 4.9 2 1.6 0.8 1 0.4 0.8 0.2 1.6-0.8 1-0.2 2.9 0.1 3.4-0.2 2.1-0.4 3.7-1.1 0.7 0.1 0.8 0.5 1.5 1.8 0.7 0.6 1 0.4 2.3 0.2 0.9 0.2 0.7 0.5 0.8 0.9 0 1.1-0.5 1.3-1 0.9-6.2 3.7z" id="PRY618" name="Caazapá" data-id="PRY618" data-name="Caazapá">
 </path>
 <path d="M966.8 696.1l-0.5-0.2-3.5-1.1-9.1-1.3-1.1-0.5-0.8-1-0.7-1.1-1.3-3.2-0.5-0.6-0.5-0.2-1.1 0.1-1.7 0.6-0.8 0.1-0.9-0.2-0.9-0.3-1.4-0.7-1-0.2-1.5 0.1-1.4 1.2-0.7 1.2-1.2 1.3-1.2 0.7-0.7 0-0.7-0.3-0.6-1 0.1-2.5-0.4-0.4-1-0.4-1.7-0.3-4.3-0.1-1-0.2-0.9-0.3-0.8-0.8-0.2-0.7 0-0.7 0.4-1.4 0.1-1-0.2-1.1-1.4-1.4-2.3-1.3-9.1-3-1 0.1-1.8 0.3-2.8 1.2-1.4 0.3-1.6-0.3-1.7-0.7-1.7-1.8-0.6-1.5-0.1-1.5 0.5-4.8-2.6-0.7-13.1 4.6-31.2 5.3-2.3 0.8-1.6 0.8-13 14.1-5.9 4.6-1.7 1.9-3.3 5.3-3.2 3.8-6.3-3.8-1.2-1-0.8-1.4-0.8-1.9-1.1-3-2.3-2.5-2-1.6-3.5-2.3-1.3-1.8-1.3-2.8-1.7-5.5-2.5-5.2-6.3-8.9-2.5-5.7-0.5-0.8-0.7-0.6-0.9-0.5-2.2-0.8-1.1-0.5-1-0.7-1-1-0.8-1-0.7-1.3-0.6-1.5-0.5-2.1-0.5-4.2-0.3-1.5-0.5-1.2-0.7-0.7-2.5-2.2-0.3-1.7 0-2.5 0.7-6.1-0.1-2.9 0.6-2 0.3-0.6 2.3-3.2 1.7-1 2.9-0.7 1.1-0.6 1.5-2.1 2.7-2.6 1.5-2.1 1.8-1.8 1-0.5 1.5 0.2 0.3-0.9-0.7-3-7.3-19.7 1.5 1 1.7 0.8 1.5 0.4 0.6-0.1 2.6-1.2 4.2-0.4 3-0.7 3-1.2 1.2-0.8 0.7-0.8 1.7-3 1.2-1.1 5-2.9 12.3-9.1 2.6-1.5 1.7-0.8 3.3 0 2.1-0.7 4.9-2.9 1.3-1.3 0.8-1.3 1-5 2.1-5.8 1.2-1.9 1.2-0.9 0.1 0.4-0.1 4.7 0.4 4.3 2.3 3.4 5.2 5.7 2.6 8.1 1.8 25 1.1 3.4 2.7 2.9 3.7 1.7 7.4 0.6 3.8 0.8 4.3 1.6 4.2 0.9 4.2-0.4 7.2-3.7 7.5 0.1 3.6-1.1 2-1 4-0.1 2.1-0.4 2-1.2 2.6-3.5 1.5-1.6 7.7-4.4 15.5-5.4 2-1.1 3-3.3 1.8-0.9 3.2 0.9 20.1 11.5 2.4 1.8 6.6 9.2 11.1 6.8 3.4 1.8-2.5 2-1-0.3-1.3 0.1-1.3 0.4-1.3 0.6-1.2 0.7-1.1 0.9-4.2 6.4-0.4 1.2 0.2 1.5 1.3 2.8 0.3 1.4-0.2 1.7-0.8 1.2-1.1 1.1-2.4 1.6 3.6 1.8 1.6 1.3 1.1 1.6 0.3 0.9 0.6 2.6 0.4 0.8 3.4 4.4 0.4 0.7-0.1 1-0.5 0.8-1.4 1.4-0.6 0.9-0.4 0.8-0.6 3.2-1.4 3-0.4 1.3-0.9 0.3-6.3-2.7-4.6-1.3 5.3 4.7 0.4 0.7 0.6 2.4 1.3 2.7 0.2 1 0 0.8-1 2.1 0 0.7 0.4 1.5 0 0.7-0.5 0.5-1 0.3-8.1 1-2.1 0.6 9.6 2.7 1.3 0.8 0.9 1.2 0.3 0.8 0.5 2.8 0 1.1-0.3 1-1 1.8-0.3 1.1-0.2 3.1-0.3 1-0.5 0.8-2.9 2.2-1.6 0.7-1.5 0.1-8.9-1.1z" id="PRY619" name="Canindeyú" data-id="PRY619" data-name="Canindeyú">
 </path>
 <path d="M874.8 876.8l4 12.9 2.5 2.3 8.8-0.4 2.3 0.1 2.2 0.5 3 1.3 3.8 1 1.2 0.7 1.9 1.4 0.9 0.5 0.8 0.1 0.7-0.6 0.6-1.3 1.2-1.4 3.9-0.4 1.7-0.4 1.5-0.8 1.3-1.4 1.8-3.3 1.5-2.1 1.3-0.7 0.9 0.1 0.3 1-0.1 0.7-0.5 1.9 0 0.9 0.2 0.7 1.1 0.9 1 0.3 0.9 0 1.3-0.8 1.6-1.3 1-0.6 1-0.3 1.8 0 2.3 0.4 1.7 0.7 2.3 1.2 0.6 0.4 0.7 0.9 0.2 1.2-0.2 1.8 0.3 0.8 0.7 0.8 1.3 0.4 7.1 0.5-0.2 0.6 0.3 2.6 0 6-1.8 4.2-0.5 1.4-1.2 8.1-0.5 2.2-1.1 1.8-3.6 4.2-3.3 2.7-1.8 2.2-1.2 2.4 0.2 1.9 0.6 1.9 0.4 2.4-0.1 3.1-0.5 3.2-0.9 3-1.7 2.1-1.2 0.7-0.7-0.4-0.5-0.7-0.9-0.5-5.3 0-2.8 0.8-2 1.9-1.3 2.6-1.5 6.1-0.9 2.4-1.2 1.9-1.7 2.1-1.9 0.9-5.9 0.5-2.3 0.9-7.7 7.8-0.9 2.2 1.7 5.3-0.4 2.9-1.9 1.6-2.8 0.5-4.7-0.3-1.8-0.6-2.2-1.2-2.6-1-2.8 0-5.8 3.2-5.6 0.7-2.4 0.8-2.1 1.4-2 2.2-1.4 2.5-0.7 2.7-0.3 6.2-1.3 2.1-2.9 0.3-3.2-0.3-2.4 0.2-1.4 2.1-0.5 2.8-0.7 2.4-1.9 1-3.2 0.8 0 2 2.8 5.5 0.5 1.6 0.3 1.4-0.3 1.4-1.6 2.7 0.4 2-0.1 1.8-1.1 3.1-1.9 2.3-2.6 1.4-2.9 0.5-3.4 2.6-4.2 5.1-4.4 3.5-7.2-3.9-3.2-0.9-1.4-0.9-1.1-1.3-1.7-5-1.8-2.5-2.4-1-2.8 0.1-2.9 0.4-2.9 0.1-2.6-0.5-7.9-3.1-3-0.6-3-0.2-3.1 1.7-2.2 1.7-4.3 5-2.7 1.2-3.4 1-2.8 1.5-0.6 2.9 0.4 3.6-0.4 3-1.4 2.7-2.3 2.6-2.3 3.4-1.7 4.1-2.1 3.3-3.8 0.8-3.8-1.5-3.5-2.9-3.1-3.6-2.3-3.6-4.7-6.1-7.9-1.1-3 0.9-0.6-9.5 0.1-0.7 1.2-2.5 0.1-0.7-0.5-1-0.6-0.8-4.1-4-0.9-1-0.7-1.1-0.2-2.2 0.3-2.9 1.6-5.4 1.1-2.1 1.2-1.4 1.1-0.7 1.1-0.9 3-3.5 1.1-0.7 0.9-0.3 6-0.8 1.1-2.2 0.3-4.6-4.8-48.5 8.9 2 0.8 0.4 3.7 3.1 1.8 1.2 1.8 0.4 2.1 0 13.7-5.4 10.2-5.6 7.3-2.4 3.6-0.5 1.9-0.8 0.9-1 1.1-4.1 0.7-1.3 1-1.1 1.7-1.5 1.4-1.6 1.2-1.7 1.1-3.3 0.5-1.3 2.7-4 1.7-1.3 6-2 8.2-1.5 2.1-1 1.9-1.2 5.5-6 2.3-1.8 0.8-1.1 1-2.6 1.2-1.6 7-3 5-1.4 2.5-0.3 2.1 0 1.7 0.4 1.6-0.1 2.5-0.5 8-3 2.2-1.3 10-7.9 4.9-4.8 1-1.1 0.7-1.2 0.3-1.2-0.1-6.3 0.5-2 0.1-1.6 0.2-1.1 0.6-0.5 0.9 0.4 1.6 0.3z" id="PRY620" name="Itapúa" data-id="PRY620" data-name="Itapúa">
 </path>
 <circle cx="476" cy="543" id="0">
 </circle>
 <circle cx="644.2" cy="749.5" id="1">
 </circle>
 <circle cx="634.3" cy="740.7" id="2">
 </circle>
</svg>