<?xml version="1.0"?>
<!--
************* Copyright (c) 2017 Pareto Softare, LLC DBA Simplemaps.com *******************		
************* Free for Commercial Use, full terms at  http://simplemaps.com/resources/svg-license ************
************* Attribution is appreciated! http://simplemaps.com ***************************
-->
<svg baseprofile="tiny" fill="#7c7c7c" height="2044" stroke="#ffffff" stroke-linecap="round" stroke-linejoin="round" stroke-width="2" version="1.2" viewbox="0 0 1000 2044" width="1000" xmlns="http://www.w3.org/2000/svg">
 <path d="M820.3 1284l-37.3-50.8 27.1-23.2 47.1 44.9-19.6 13.4-17.3 15.7z m172.4-102.4l-42.9-7.3-35.3 32-20.5-38.3-16.5-15.2-76.2-127 81.4-29.6-4.3 67.1 1.4 28.1 6.5 14.2 14.4 6.3 67.7 10.7 10.5 11.3 9.8 25.2 4 22.5z" id="QAT1099" name="Ad Dawhah" data-id="QAT1099" data-name="Ad Dawhah">
 </path>
 <path d="M230 494.5l178.8 0.1 0 54.9 125.6 0 8.5 67.3 30.5 77.8 46.1 68-0.3 101.2 19.8 130.5 90.4 6.9 71.9 24.6 76.2 127 16.5 15.2 20.5 38.3-28.7 29.2-28.6 19.4-47.1-44.9-27.1 23.2 37.3 50.8-26.9 24.6-18 55-22 43-82.7-36.9 1.3 102.2-129 0-0.1 464.1-9.7 13.4 3.1 9.9-78.2 62.9-59.9 20.4-65.3 0.4-69.1-10-58-24.7-54.9-62.4-84.3-139.9 21.7-2.5 30.1-27.1 7.9-32.5-9.9-121-9.6-32.1-49.3-92.5-3.9-18.8 12.4-35.7 2.7-24.9-1.3-22.9-7.1-9.9-30.8-19-8.4-43.2-1.7-46.8-10.5-30.2 8.2-23-1.7-26.7-5.1-28.4-1.4-27.8 9.2-69.1-0.8-26.7-16.3-95.9 13.2-55.1 1.6-25.1-14.8-15.7 31.2-41.3 22-3.7 13.1 16.2 3.6 23.4 10.3 9.7-0.1 24.9 30.8 5.7-18.3-51.6-3.9-22.1-1.4-23.1 6.3-29.4 0.8-15.8-7.1-15.8-9.4-6.3-25.4-4.9-13.3-6.3 13.2-16.2 15.2-4.3 16-2 15.5-8.5 11.1-26.9 12.3-1.3 7.3 12 8.5 2.7 6 9.7-2.1 21.5-7.6 34.7 1.1 36.1 9.3 24.2 13.8 14.2 11.5-3.4 6.3-39.6 0.7-30.5 5.1-13.7 13.1-13.6 17.5 12.8 16 0.8 7.3-8.9 16.1-37.3 8.8-15.7-31.9 12.4-29.4 5.3-24.4-10-16.7-33.9-1.3-18.2 8.4-60.4 2.8-5.8 11.2-9.4 2.5-6.6-8.6-18.4 0-38.5 15.9 3.9 5.5-10.1 3.8-13.8 10.7-7 7.9 4.4 6.8 11.1 4.2 14.7 0.4 15z" id="QAT1100" name="Ar Rayyān" data-id="QAT1100" data-name="Ar Rayyān">
 </path>
 <path d="M992.7 1181.6l4 22.6 2.3 105.2-12.5 131.1 6.1 15.1-10 10.9-17.8 76.8-14.8 24.2-40 45.2-12.2 31-27.3 13.2-5.6 11-31.6 121.9-6.1 13.7-13.5 10.1-6.3 24.2-7.8 53.1-15.2 19.4-46.6 27.9-9.8 9.4-6.2 29.4-14.5 19.8-15.9 15.9-10.6 17.6-13.4-18.9 4.3-17.8 10.3-20.1 6-25.9-8.9-14.1-20.7-2.5-40.5 4-1.8-22.2-7.3-0.6-11.8 8.6-15.4 5.6-20.2 2.2-18.5 7.4 0.1-464.1 129 0-1.3-102.2 82.7 36.9 22-43 18-55 26.9-24.6 17.3-15.7 19.6-13.4 28.6-19.4 28.7-29.2 35.3-32 42.9 7.3z" id="QAT1101" name="Al Wakrah" data-id="QAT1101" data-name="Al Wakrah">
 </path>
 <path d="M906 690.2l-29.9-18.5-66-26.6-54.1 59.9-6 76.6-113.7-0.3-16.8-18.7-46.1-68-30.5-77.8-8.5-67.3-125.6 0 0-54.9-178.8-0.1 16.3-11 10.7-17.4 3.4-20.9-4.1-14.5 151.6 1.2 0-133.5 162.1 0 0 37.2 60.9 0 0.2 40.8 55.7 0.1 0.2 49.1 81.7-0.7-0.3-156.9 9 1.5 49.8-4 28.1 2.7 23.1 7.4 20.2 11.3 19.1 14.4 15.4 15.8 12.6 19.7 8.3 22.5 19.9 139.6-0.3 17.5-3.4 14.8-9.3 6.3-6.8-4.3-6.4-18.5-10.1-4.3-9.1 5.4-8.1 12.6-4.3 14.7 1.6 11.9 10.4 9.5 9.9-1.3 7.7-7.5 4.2-9.5 18.6 29.5-15.3 29.7-23.1 9-4.5-33.2-15.6 4.7-39.5 21.4 16.8 7 17.6 10.8 14.1 12.9 6.6 13.1-3.9 27.9-15.7 11.2z" id="QAT1105" name="Al Khawr" data-id="QAT1105" data-name="Al Khawr">
 </path>
 <path d="M768.4 268l0.3 156.9-81.7 0.7-0.2-49.1-55.7-0.1-0.2-40.8-60.9 0 0-37.2-162.1 0 0 133.5-151.6-1.2-9.8 1.9-16.7-18.3 2-27.3 30.1-73.3 4.8-24.9 3.2-58.3 13.2 10.9 3.3 7.4 7.2 0 26.1-76.8 23-33.5 33-14 17.4-3.9 48.5-19.4 10.1-7.3 6.2-19.7 26.9-27.6 6.4-19.3 21 7.8 23.6-7.4 42-26.7 91.7 50 18.5 20.9 1.9 24.7-2.4 32 0.9 27.9 12.1 11.9 21.9 8.8 6.7 21.4 1.2 26.4 5.7 23.8 17.9 16.6 14.5 2.6z" id="QAT1106" name="Madinat ach Shamal" data-id="QAT1106" data-name="Madinat ach Shamal">
 </path>
 <path d="M750 781.6l6 69.8 3 89.7 42.3 84.7-71.9-24.6-90.4-6.9-19.8-130.5 0.3-101.2 16.8 18.7 113.7 0.3z" id="QAT1107" name="Umm Salal" data-id="QAT1107" data-name="Umm Salal">
 </path>
 <path d="M906 690.2l-19.7 4.7-15.8 8.6-15.8-8 2.6 67-2.6 21.1-16 23.3-6.4 12.4 2.7 11.8 42.3 73.9 6.8 18 2.2 17.8-3.6 55.4-81.4 29.6-42.3-84.7-3-89.7-6-69.8 6-76.6 54.1-59.9 66 26.6 29.9 18.5z" id="QAT5487" name="Al Daayen" data-id="QAT5487" data-name="Al Daayen">
 </path>
 <circle cx="438.5" cy="142.1" id="0">
 </circle>
 <circle cx="389.2" cy="195.8" id="1">
 </circle>
 <circle cx="608.9" cy="1261.3" id="2">
 </circle>
</svg>