<?xml version="1.0"?>
<!--
************* Copyright (c) 2017 Pareto Softare, LLC DBA Simplemaps.com *******************		
************* Free for Commercial Use, full terms at  http://simplemaps.com/resources/svg-license ************
************* Attribution is appreciated! http://simplemaps.com ***************************
-->
<svg baseprofile="tiny" fill="#7c7c7c" height="1328" stroke="#ffffff" stroke-linecap="round" stroke-linejoin="round" stroke-width="2" version="1.2" viewbox="0 0 1000 1328" width="1000" xmlns="http://www.w3.org/2000/svg">
 <path d="M307 157l-2.6 0.7-2.8 1.6 2 7.7 1.2 7.1-0.8 7.4-3.8 8.7-5.3 6.1-0.3 2.4 4.7 0.9 7-0.4 2.5 1.2 1.1 3.9-1 1.9-2.3 2.5-2.3 3.6-1 5.1 1 4 2.4 3.5 22.5 21.2 5.7 7.8-6.8 16.4 3 5.4 8.2 8.2 3.8 5.2-2.5 2.2-1.6 3.2-1.2 3.5-1.4 2.8 3.9 6.6 11.8 9.8 2.5 8.4 1.7 8.5-0.5 4.6-6.7 4.1-1.3 4.9-0.5 5.4-0.9 4.3-5-5.4-8.3-6.4-9-3.2-29 3.2-5.4-0.7-13.7-4.2-2.8 5.2-0.4 0.8 0 0.4 0.2 0.5 0.5 0.6 1 1.1 0.4 0.5 0.1 0.5-0.3 0.7-0.5 0.5-1.1 0.9-2.3 1.5-0.7 0.4-1.7 0.7-3.2 0.5-1.1 0.3-1.6 0.4-4.1 0.7-1.7-0.2-0.4-0.1-1-0.5-0.4-0.1-3.5-0.2-3.7-0.2-0.5-0.2-0.9-0.2-2.2-0.1-4.2-0.1-3.9 0-1.9 0.1-0.9 0.2-2.2 0.7-0.9-0.1-0.8-0.6-2-3.4-2.5-3.4-2.4 2.3-1.3 1.2-0.6 0.5-0.7 0.3-0.7 0.2-3.2 0.3-0.8 0.1-0.6 0.4-1.3 0.7-1.7 0.9-4.7 1.8-14-0.1-2.9 0-1.9 0.2-3.5 1-0.7 0.1-0.8-0.1-2.4-0.7-3.5-1.3-2.5-0.7-1-0.2-2.8-0.3-1-0.1-0.6-0.2-1-0.6-1.7-1.5-1.1-0.6-0.7-0.2-1.7-0.4-1.1-0.4-0.6-0.6-1.2-1.4-0.2-0.1-5.6-0.6-1-0.2-1.1-0.5-1.3-1.1-0.5-0.3-0.9-0.2-0.9 0.2-1.2 0.5-0.5 0.3-0.5 0.4-0.2 0.6-0.1 0.6 0.1 0.7 0.2 0.3-2.8 4-1 1.3-0.6 0.5-0.4 0.2-0.7-0.1-1.6-0.9-0.6-0.6-0.5-0.8-0.3-0.6-1.3-1.3-3.3-4.4 2.8-2.8 0.6-8-2.5-6.9-4.7-2.2-3.6-6.4-48.5-12.6-8.9-4.5-6.3-7.4-0.6-3.2-0.2-3.9-0.8-3.3-2.4-1.3-10 0-4.8-1.1-4.2-3.1-3.5-4.5-3.1-5.4 12.7-5.9 2.1-3.5-1.4-4-6.9-7.4-1.6-6.3 3.2-8.6 2 0.3-0.1 1.2 0.1 0.5 0.3 0.7 1.4 1.3 1.1 1.2 0.6 0.5 1 0.2 0.6-0.2 1.8-1.7 1-0.4 0.8-0.1 0.7 0 1.1 0.5 2.1 2 2.3 1.5 0.6 0.3 0.7 0.2 1.7-0.1 0.7 0.1 0.5 0.2 0.4 0.3 0.5 0.9 0.6 2.2 0.6 1.1 0.4 0.4 0.9 0.6 0.5 0.3 0.8 0.2 1.8 0.2 2.8-0.1 0.9-0.1 0.8-0.3 1.6-0.8 0.8-0.3 0.6-0.1 1.2 0.3 4.3 2.4 0.9 0.7 0.7 0.9 0.4 0.9 0.1 0.7 0 1 0.2 1.2 0.6 0.8 0.7 0.6 0.5 0.1 0.6-0.2 1.3-0.4 0.8-0.2 2.9-0.4 0.9-0.2 1.7-0.7 1.3-0.7 0.6-0.2 0.8-0.1 0.7 0 1 0.1 0.7 0.1 0.7-0.1 0.8-0.5 0.4-0.9 0.1-1.6 0.4-0.9 0.3-0.7 0.5-0.6 0.5-0.4 0.7-0.1 0.7 0.1 0.8 0.6 2.4 2.7 1 1.8 0.5 0.7 0.6 0.5 1.1 0.4 0.4 0.2 0.7-0.1 0.8-0.3 1.6-0.8 0.8-0.2 0.9-0.2 1.9 0 2 0 0.9 0.2 1.7 0.4 4.4 1.2 0.2-1 0.7-2.3 0.1-1.5-0.1-0.9-0.5-1-0.3-0.8-1.4-2.1-0.3-0.7-0.1-0.7 0-1.7-0.1-0.7-0.3-1.9-0.1-0.8 0-1.6 0.2-0.7 0.2-0.6 0.4-0.3 3-2 4.1-2.1 1.5-0.3 1.3-0.2-0.1-4-0.2-0.6-0.6-1.3-0.3-3.7 4.2-1.4 2.2-0.6 0.5-0.2 0.7-0.5 1.5-1.2 0.9-0.5 1-0.3 0.6 0 0.5 0.2 1.2 0.5 3.1 1.9 0.5 0.4 1.6 1.6 1 0.5 0.6 0.2 0.7-0.1 0.5-0.1 1.1-0.5 2.5-1.6 1.4-1 0.7-0.9 0.9-1.8 1.2-1.9 0.5-1.1 0.1-0.8 0.3-2.4 0.1-0.8 0.4-1 0.4-0.6 0.5-0.6 0.6-0.5 1-0.2 2.6 0.2 1.5-0.1 1.7-0.6 0.9-0.4 0.4-0.6 0.2-0.7 0.2-0.9 0.1-3 0.3-2-0.2-1.2-0.8-1.5-0.7-1.9-0.2-1.3 0.1-0.7 0.3-0.6 1.1-1.9 0.5-0.7 1.8-1.9 0.6-1.1 0.7-2.4 2.2-4.2 3.2 1.8 2.1 1.1 1.2 1 2.2 1.9 0.7 0.5 1.1 0.7 1 0.5 2.2 0.6 2.6 0.9 1.8 1.1 3.6 2.5 1.8 1.5 3.6-0.8 1.4-0.4 1.2-0.5 1.4-1.1 0.5-0.3 1.7-0.9 1.7-0.8 0.9-0.7 0.3-0.4 0.5-1.1 0.1-0.7 0-0.8-0.1-0.8-0.3-1.1-0.2-1.9-0.1-1.9 0.1-1 0.1-0.9 0.8-2.6 0.8-1.7 0.9-1.5 1.4-2 0.3-0.9 0.2-0.9 0.3-2.2-0.7-0.7-0.4-0.6-0.2-0.5-0.1-0.6 0.2-0.5 0.9-1.5 0.8-1.7 0.2-1.1 0-1.1-0.2-1-1-2-1.2-3.1 4.3-2.7 1.2-0.5 2.4-0.6 1.9-0.9 0.9-0.2 0.9-0.1 3.6-0.1 1.8-0.1 0.8-0.2 2-0.9 2.7-0.8 0.8-0.4 2.3-2.3 0.8-0.6 0.4-0.2 3.4-0.3 1-0.1 1.6-0.4 1.8-0.2 2.8 0 1.8 0.1 0.9 0.2 2.8 1.1 0.8 0.2 3.8 0.3 0.9 0.2 2.7 1.1 2.3 0.6 1.2 0.5 2.8 2 1.1 0.4 0.9 0.2 2 0.1 11.6 0.1 1.9 0.3 2.6 0.7 0.7 0.2 1 0.5 1.1 0.7 0.6 0.5 1 1.1 1.2 1.7 1.1 1.2 1.3 1.2 1.6 1.2 0.8 1.2z" id="SRB1059" name="Južno-Backi" data-id="SRB1059" data-name="Južno-Backi">
 </path>
 <path d="M607.3 464.6l-9.8 0.6-12 3.8-11.3 5.8-8.1 6.3-2.3 3.4-1.7 3.8-2.1 3.1-3.1 1.3-6-0.5-3.3 0.2-2.3 1.4-6 4.8-9.9 1.6-11.4 1.7-25.6 15-13.7 4-7.6-1.3-7.5-1.2-5.3-3.7-5.2-5.8-8.5-12.6-3.1-3.6-6.7-4-2.7-3.2-1.3-4 0.1-3.9 2.5-16.6-0.5-4.1-3.1-1.8-6.9-1.1 0.4-5.5 0.9-1.4 0.3-0.7 0.2-0.7 0-0.7-0.2-0.7-0.4-0.8-0.5-0.7-1.2-1.4-1.5-2.1-1.9-2-1.4-1.1-0.7-0.5-0.5-0.3-2.1-0.6-1.2-0.5-2.5-1.4-3-1.3-1.1-0.6-1.3-1-2.1-2.1-1.3-1.4-0.6-0.7-1.2-2-0.3-0.6-0.2-0.8 0-0.7 0.2-1.9 0-0.8-0.1-0.8-0.2-0.6-0.4-0.6-0.5-0.5-0.7-0.4-2.3-0.2-1.4-0.3-0.7-0.4-1.3-0.9-2.3-2.2-1.3-1.4-0.6-0.8-0.4-0.8-0.3-0.8-0.4-1.5-0.2-0.7-0.4-0.6-0.6-0.6-2.2-1.7-1.6-1.2-3.4-2.5-0.6-0.5-0.9-1.1-0.7-1.1-0.4-1-0.3-0.9-0.2-2-0.2-1-1-2.7-0.2-0.8 0-0.8 0.2-0.7 0.7-1.5 0.1-0.7 0-0.7-0.2-0.7 1.4-3.2 1.9-1.8 1.2-1.6 1.6-1.1 0.6-0.6 2.2-3.3 0.4-0.7 0.1-0.7 0.1-1.4-0.1-0.7-0.7-1-0.3-0.5 0-0.6 0.5-0.9 1-1.3 1-0.7 1.7-0.6 0.4-0.2 0.7-0.5 0.6-0.8 0.2-0.6 0.2-0.7 0-0.8-0.4-0.6-1.2-1.5-1.2-1.9-0.3-0.9 0.3-0.8 0.5-0.8 2-2.7 0.5-0.9 0.5-1.3 0.9-2 0.7-1.3 2.3-3.2 0.4-0.8 0.6-2.3 0.3-0.7 0.4-0.6 0.4-0.4 0.6-0.3 0.8 0 0.5 0.4 0.4 0.8 0.2 1.6 0.4 0.9 0.9 0.5 0.7 0.1 0.7-0.1 1-0.4 0.9-0.6 0.9-0.5 0.9 0 0.7 0.3 2.1 1.8 1 0.5 0.8 0.1 0.7-0.3 0.6-0.5 0.5-0.6 0.8-1.2 0.3-0.6 0.4-2.3 0.9-2.7 0.3-0.7 0.4-0.5 0.9-0.6 0.9-0.4 1.4-0.3 1.2 0.1 0.7 0.3 3.3 1.8 0.9 0.2 0.9 0.1 2.8 0.3 0.9 0.2 1.7 0.6 3.3 1.7 2.1 1.2 1.4 1.1 1.5 1.6 0.7 0.6 4.5 2.8 0.6 0.1 0.7 0.3 0.6 0.6 0.5 0.7 1.1 2 2.5 3.6 1.7 1.9 0.4 0.4 0.6 0.4 0.4 0 0.9-0.3 0.9-0.6 0.4-0.4 0.5-1 0.7-3.1 0.7-2 0.1-0.7 0.1-1.7 0.1-0.5 0.6-0.9 1.1-1 0.6-0.5 1-0.4 1.7-0.4 0.4-0.2 0.9-0.5 0.8-0.9 1-1.8 0.5-0.6 0.4-0.3 1.9-0.7 3.5-0.9 0.8-0.6 1.2-1.1 0.4-0.5 0.7-1.2 0.7-0.9 2.9-2.9 0.9-0.7 3.6-2.2-3.1-2.4-2.9-2.4-0.5-0.7 0.1-0.5 0.2-0.4 0.5-0.5 0.7-0.4 3.9-1.2 1.7-0.8 0.7-0.4 2.2-1.6 2.7-2.2 3.2-2.5 5.1-3.7 1.2-0.7 1.6-0.7 0.8-0.2 0.9-0.1 3.6-0.1 0.9-0.1 0.9-0.1 2.7-1 0.9-0.2 1.9-0.1 1 0.1 0.9 0.2 2 0.8 0.7 0.1 5-1 0.3-0.4 1.4-2.1 0.7-2.9 11.4 5.2 2.5 2 2 2.4 2.1 1.9 2.9 0.7 2.3-1.2 3.9-4.3 2.5-0.6 3.9 2.9 8.2 12.2 3.9 4.7 8 5.7 4.3 1.8 10.2 0.3 25.6 8.1 6.8 3.7 6.2 5 8.2 9.9 1.1 4.5-0.9 4.3-3.1 2.7-3 0.2-2.5 1.2-2.1 2.2-1.8 2.8 0.3 0.5 0.2 2.1 0 2.5-0.2 1.7-0.6 1.4-2.1 2.5-0.7 1.4-0.9 4.8-0.2 2.4-0.7 1.7-3.1 2.5-2.5 0.9-6.2 0.4-2.3 1.2-1.8 2.8-1.1 3.5 0.5 2.9 3.2 0.8 4.1 0.2 0.8 1.8-0.6 2.2 0.1 1.9 5.6 3.8 11.6 2 6 3 8.4 3.3 3.6 3.2 1.9 5.5-0.7 6.5-3.4 2.9-9.8 2.8-6.7 1-14-0.7-6.5 2.3-3.1 2.8-2.2 3.8-0.9 4.6 4.1 1.8z" id="SRB1060" name="Južno-Banatski" data-id="SRB1060" data-name="Južno-Banatski">
 </path>
 <path d="M524.6 295.6l-0.7 2.9-1.4 2.1-0.3 0.4-5 1-0.7-0.1-2-0.8-0.9-0.2-1-0.1-1.9 0.1-0.9 0.2-2.7 1-0.9 0.1-0.9 0.1-3.6 0.1-0.9 0.1-0.8 0.2-1.6 0.7-1.2 0.7-5.1 3.7-3.2 2.5-2.7 2.2-2.2 1.6-0.7 0.4-1.7 0.8-3.9 1.2-0.7 0.4-0.5 0.5-0.2 0.4-0.1 0.5 0.5 0.7 2.9 2.4 3.1 2.4-3.6 2.2-0.9 0.7-2.9 2.9-0.7 0.9-0.7 1.2-0.4 0.5-1.2 1.1-0.8 0.6-3.5 0.9-1.9 0.7-0.4 0.3-0.5 0.6-1 1.8-0.8 0.9-0.9 0.5-0.4 0.2-1.7 0.4-1 0.4-0.6 0.5-1.1 1-0.6 0.9-0.1 0.5-0.1 1.7-0.1 0.7-0.7 2-0.7 3.1-0.5 1-0.4 0.4-0.9 0.6-0.9 0.3-0.4 0-0.6-0.4-0.4-0.4-1.7-1.9-2.5-3.6-1.1-2-0.5-0.7-0.6-0.6-0.7-0.3-0.6-0.1-4.5-2.8-0.7-0.6-1.5-1.6-1.4-1.1-2.1-1.2-3.3-1.7-1.7-0.6-0.9-0.2-2.8-0.3-0.9-0.1-0.9-0.2-3.3-1.8-0.7-0.3-1.2-0.1-1.4 0.3-0.9 0.4-0.9 0.6-0.4 0.5-0.3 0.7-0.9 2.7-0.4 2.3-0.3 0.6-0.8 1.2-0.5 0.6-0.6 0.5-0.7 0.3-0.8-0.1-1-0.5-2.1-1.8-0.7-0.3-0.9 0-0.9 0.5-0.9 0.6-1 0.4-0.7 0.1-0.7-0.1-0.9-0.5-0.4-0.9-0.2-1.6-0.4-0.8-0.5-0.4-0.8 0-0.6 0.3-0.4 0.4-0.4 0.6-0.3 0.7-0.6 2.3-0.4 0.8-2.3 3.2-0.7 1.3-0.9 2-0.5 1.3-0.5 0.9-2 2.7-0.5 0.8-0.3 0.8 0.3 0.9 1.2 1.9 1.2 1.5 0.4 0.6 0 0.8-0.2 0.7-0.2 0.6-0.6 0.8-0.7 0.5-0.4 0.2-1.7 0.6-1 0.7-1 1.3-0.5 0.9 0 0.6 0.3 0.5 0.7 1 0.1 0.7-0.1 1.4-0.1 0.7-0.4 0.7-2.2 3.3-0.6 0.6-1.6 1.1-1.2 1.6-1.9 1.8-1.4 3.2-0.3-0.5-2.2-1.5-2.1-1.7-0.8-0.6-1.2-0.6-1-0.5-1-0.2-1.9-0.1-3 0.6-11.9-17.8-2.9-3 0.9-4.3 0.5-5.4 1.3-4.9 6.7-4.1 0.5-4.6-1.7-8.5-2.5-8.4-11.8-9.8-3.9-6.6 1.4-2.8 1.2-3.5 1.6-3.2 2.5-2.2-3.8-5.2-8.2-8.2-3-5.4 6.8-16.4-5.7-7.8-22.5-21.2-2.4-3.5-1-4 1-5.1 2.3-3.6 2.3-2.5 1-1.9-1.1-3.9-2.5-1.2-7 0.4-4.7-0.9 0.3-2.4 5.3-6.1 3.8-8.7 0.8-7.4-1.2-7.1-2-7.7 2.8-1.6 2.6-0.7 5-1.4 2.8-1.2 3.8-3.7-0.2-2.3-1.9-2.2-1.7-3.4-0.3-5.1 2.9-2.4 1.8-1.7 1.9 0.8 1 0.2 1.1 0.2 5.2 0.3 2.9 0.7 1.9 0.1 1.9 0 3.9 0.1 1.9-0.1 2.9-0.6 2.9-0.4 1.9-0.4 3.3-0.5 0.7 0 2.4 0.6 0.7 0.3 1.3 0.7 1 0.2 0.7-0.2 1.5-0.8 1.4-0.5 0.9-0.2 0.9 0.2 0.3 0.5 0.3 0.6 0.2 1 0.2 2 0.2 1 0.9 2.9 0.7 3.1 0.8 1.7 0.8 1.5 1 2.7 0.3 0.7 1.4 1.8 0.8 1.4 0.2 0.8 0.5 2.2 0.4 0.8 0.5 0.6 0.9 0.4 1.7 0 0.7 0.1 1.1 0.4 0.5 0.3 0.9 0.7 1.2 1.3 1.3 1.1 0.4 0.6 0.1 0.6-0.1 0.4-0.4 0.5-1.6 1.6-1.1 1.3-0.4 0.7-0.1 0.7 0 1.7-0.1 0.7-0.4 0.6-0.5 0.5-1.1 0.3-0.7 0-0.7-0.1-1.3-0.4-0.6-0.1-0.6 0.1-0.5 0.3-1 1.6-0.5 0.4-1.2 0.6-1.2 1.3-0.7 0.5-1.9 0.8-1 0.3-0.5-0.2-0.9-0.8-0.3-1 0.1-1 0.4-0.9 0.7-0.9 0.2-1.5 0-0.6-0.2-0.4-0.4 0.1-2.6 1.8-1 1.5-0.2 2.9 1.2 2.2 1.8 0.4 1.3 1.3 0.9 1.2 0.5 1 0.1 0.8-0.1 0.7-0.5 0.9-0.6 0.5-1.1 0.3-2.4 0.2-0.9 0.4-0.5 0.5-0.2 0.8-0.5 2.9-0.5 1.7-0.3 0.9 1.4 0.6 2.4 0.6 0.7 0.5 1.1 1.8 0.4 0.4 0.7 0.4 2.1 0.9 1.1 0.1 0.5-0.1 1.1-0.4 1.6-0.5 3-1.2 1.5-0.6 2.5-0.4 1.4-0.4 0.6-0.2 1.9-1.2 1.2-0.4 0.9-0.2 2.8 0 6.5 0 1.9 0.1 0.9 0.1 0.8 0.2 2.8 1.1 0.8 0.2 0.8 0 1.7 0 1.4-0.2 3-1-1.4-1.9-0.5-0.9-0.5-0.9-0.5-1.4-0.3-0.5-1.6-2.1-0.5-1.2-0.6-2.2-1.2-2.2-0.3-0.7-0.1-1.2 0.4-1.9 0.3-0.7 0.7-1.6 0.6-2.4 0.5-0.8 0.9-1 2.9-1.7 1.2-0.7 0.6-0.5 1.2-1.4 1.9-1.8 1.6-1.6 0.6-0.5 0.5-0.2 1.2-0.1 0.7 0.1 1 0.4 2.4 1.1 1 0.4 1.6 0.3 1.5-0.1 2.1-0.4 1.9-0.2 0.9-0.1 0.9-0.4 0.3-0.5 0.1-0.6-0.2-2-0.1-2.1-0.1-2.1 0.1-2.1 0.2-1 0.7-3.4 0.9-2.5 0.6-0.9 0.7-1 2.5-2 0.4-0.6 0.1-0.7-0.1-1.2-0.6-2-0.6-1.1-1.1-1.3-0.6-0.9-0.3-0.6 0.1-0.8 0.4-0.4 1.2-0.6 0.6-0.5 0.8-0.9 0.6 2.2 2.3 3.9 5.6 7.2 2.2 4.7 2.9 2.6 3.2 0.7 3.3-1 3-2.5 1.4-4 2.2-2.9 2.6-1.1 3 1.5 2 3.4-0.1 3.1-0.9 3.3-0.6 3.6 0.2 17.9-0.7 4.9-0.9 3-2.7 6.3-1.9 8.6 0.9 5.6 7.1 12.3 3.1 8-0.6 4.8-3.5 3.6-5.4 4.4 1.5 4.8 3.5 2.3 4.3 1.4 4 2 3.5 3.5 7.8 11.6 15.6 14.2 9.3 12.3 3.7 3 8.5 3.9z" id="SRB1061" name="Srednje-Banatski" data-id="SRB1061" data-name="Srednje-Banatski">
 </path>
 <path d="M893 1118.5l-5.3-1-1.8-0.4-0.8-0.3-1.9-0.8-1-0.2-0.9-0.1-1.9 0.1-2.8 0.5-0.9 0.1-1.9 0-0.9-0.1-0.8-0.2-1.9-0.8-0.7-0.2-2.3-0.5-1-0.4-1.3-0.9-0.5-0.3-1.6-0.8-1.4-0.8-0.9-0.8-0.9-1.2-1.2-1.1-0.4-0.6-0.8-1.9-0.4-0.5-1.2-0.8-1.5-0.7-0.8-0.4-0.7-0.4-2.5-1.9-1.9-1.6 4.3-0.9 2.8-0.8 1.1-0.4 0.7-0.5 0.6-0.5 0.4-0.6 0.3-0.6 0-0.6-0.2-0.7-0.7-1.2-0.6-0.9-1.2-1-3.3-2.2-3-1.6-0.6-0.2-0.8-0.2-0.7-0.1-1.9 0.1-0.5 0-0.6-0.2-0.7-0.3-1.3-1.2-2.1-1.1-1.8-1.1-4.8-2.4-2.3-1.1-0.9-0.3-1-0.2-0.9 0-1 0-0.9 0.2-1.4 0.3-0.6 0-0.7-0.2-0.6-0.4-0.9-0.7-1.1-1.4-0.6-0.5-0.6-0.5-1-0.4-0.9-0.3-2.9-0.4-1.1-0.4-0.7-0.3-1.9-1.3-0.7-0.5-0.5-0.6-0.4-0.6 0-0.6 0.1-0.6 0.3-0.6 3.3-2.6 0.5-0.6 0.6-0.9 0.5-0.5 0.4-0.3 1.6-1 0.6-0.3 1.9-0.6 0.4-0.3 0.5-0.5 1.1-1.4 1.7-1.5 0.3-0.3 0.1-0.6-0.3-0.5-2.4-2.3-1.6-1.2-1.5-1.7-0.1-0.5 0.7-2.6 0.6-1.1 0.4-0.4 1.4-0.9 1.6-0.7 1.9-0.8 0.7-0.4 1.2-1 4-2.1 2.4-1.3-3.3-6.7-0.5-0.6-0.8-0.9-0.3-0.7 0.5-1.4 0-0.5-0.2-0.5-0.3-0.3-1.5-1.3-1.3-0.7-0.8-0.2-1 0.3-1.6 0.7-0.9 0.2-1 0.1-0.9-0.1-0.9-0.2-1-0.4-1-0.5-0.6-0.6-0.5-0.6-1.4-1.9-0.4-0.4-0.9-0.3-1.5 0-1.1-0.4-0.7-0.3-1.2-1-1.7-1.6-1.7-1.8-0.8-0.8-1-0.5-2.2-0.4-0.7-0.3-0.6-0.3-2.3-1.4-2.1-1.9-0.5-0.3-5.2-2.3 1.4-3.1 1.5-3.3 1.2-1.9 0.3-0.7 0-0.6-0.5-2.5 0.1-0.6 0.2-0.5 0.4-0.5 1.2-1.3 0.7-1 0.4-1.2 0.2-0.4 0.5-0.5 0.8-0.4 0.7-0.2 1.6 0.1 0.8-0.2 0.4-0.4 0.4-0.6 0.5-1.2 0.1-0.9-0.5-1.2-0.1-0.5 0-1.5-0.3-0.9-0.4-0.5-1.8-1-0.9-0.6-0.6-0.6-0.3-0.6-0.2-0.6 0-0.7 0.2-1.6-0.1-1.4-0.9-2.7-0.2-0.9-0.4-3.9-0.6-3.3 2.9-0.9 2.7-1 1-0.3 0.7 0 2.5 0.4 2.5 0.6 2.3 0.3 0.8 0.1 1.1 0.5 0.7 0.4 2.1 1.7 0.7 0.4 1.1 0.5 2.3 0.4 1 0.3 0.6 0.4 1.5 1.2 0.5 0.2 1.4 0.6 1.5 0.2 1.5 0 1.8-0.4 1.9-0.2 4.9-0.1 1 0 0.9-0.1 2.4-0.8 0.6-0.2 0.8-0.7 0.3-0.5 0.4-2.1 0.9-2.6 0.1-0.7 0-0.8-0.2-1.6 0-0.7 0.1-0.7 0.3-0.7 0.7-1.3 0.3-1-0.1-1.8-0.4-4 5.5 2.1 0.5 0.3 1.3 1.1 0.9 0.6 1.1 0.5 2 0.7 2.5 1.2 1.1 0.3 0.6 0 1.5-0.3 0.6 0 1 0.4 0.5 0.2 1.3 1.1 5.6 4.2 0.9-0.4 0.7-0.2 2.3 0.1 1.4-0.1 0.5-0.3 0.6-0.4 0.7-0.8 0.9-1.6 1.2-2.8 0.3-0.5 0.7-0.3 0.6 0 0.7 0.5 0.7 0.8 0.6 0.9 1.1 2.2 0.6 1 2.5 2.2 1.3 2 0.9 0.8 2 1 1.6 0.9 0.5 0.2 2.4 0.1 0.8 0.2 4.2 0.9 0.7 0.1 0.9-0.2 0.4-0.3 0.1-0.4-0.1-1.1-0.7-2-0.1-0.5 0.1-0.6 0.3-0.8 0.5-0.7 1.4-1.4 3.6-3.5 1-0.6 2.8-1.3 1.2-0.7 0.5-0.6 1.3-1.7 1.1-1.6 1-1.4 1.2-1.3 1.7-2.1 0.3-0.2 1.7-2.2 1.4 1.5 2.3 0.8 4.6-0.2 2.3 0.3 4 1.8 3.3 2.3 17.2 17.5 3 4.4 0.9 2.7 0.8 6 0.7 2.6 1.5 2.3 5.8 5.8 6.4 8.8 3.4 3.4 4.3 2.6 11.8 2.6 4 1.8 0.8 8.1-2.5 11-4.5 10.9-4.9 7.5-2 1.5-4 1.9-2.1 1.8-1.2 2.4-1.7 6-1.3 2.6-10.1 9.6-3.2 4.6-3.2 1.2-6.7 1.6-2.8 1.7-1.7 2.8-1.5 4.2-4.2 16-1.7 4.2-2.8 3.4-7.3 3.1-7.3 1.8-18.2-4.9-6.6 0.9-3.3 2.3-1.2 1.8z" id="SRB121" name="Pirotski" data-id="SRB121" data-name="Pirotski">
 </path>
 <path d="M874 737.8l0.1-0.2-0.4-1.4-0.4-1.1-0.6-0.5-1.2-0.7-0.4-0.4-0.3-0.5-0.1-0.6 0.1-0.7 0.1-1 0-0.7-0.1-0.7-0.7-2.2-0.2-1.2-0.1-1.2 0.2-0.4 0.6-0.7 0.8-0.5 1.7-0.8 0.9-0.8 1.4-2 1.1-1.3 0.7-0.9 0.5-0.9 0.5-1.1 0.1-0.5-0.1-0.7-0.2-0.6-1.1-2.3-1-2.4-0.7-1-0.5-0.5-0.9-0.4-3-0.4-2.5-0.7-2.4-0.8-1.6-0.7-0.9-0.7-0.3-0.4-1.1-2.4-0.8-1-0.7-0.6-2.6-1.9-0.7-0.4-1.1-0.4-1.8-0.2-1.8-0.1-1.8 0.1-0.9 0-0.8 0.2-1 0.4-0.9 0.5-0.6 0.6-1.3 1.5-0.6 0.3-0.7 0.2-1.5 0.1-0.7-0.2-2.7-0.9-0.8-0.2-4.5-0.4-0.9-0.2-1.9-0.7-0.6-0.1-1 0.1-0.7-0.1-1.1-0.4-0.7-0.4-0.6-0.5-3.5-3.3-2.2-1.9-1.4-1.7-1.4-2.1-0.6 1.2-0.6 1-0.5 1.7-0.4 1.7-0.3 0.7-0.3 0.7-1.4 2.1-0.7 1.3-0.3 0.4-0.9 1-0.8 0.6-0.6 0.5-0.3 0.4-1.9 3.1-0.2 0.6-0.1 0.9 0.2 0.8 0.7 1 1 0.8 1.8 1 0.7 0.4 1 1 0.4 0.6 0.2 0.9 0.2 1.9-0.1 3-0.2 2.4 0.1 0.9 0.2 0.5 1.5 1.7 0.4 0.7 0.2 0.7 0.5 2.2 0.5 1 1.8 1.9 0.3 0.6 0.3 0.7 0 0.8 0 0.7-0.4 1.7-0.1 1.5 0.3 1.8 0 0.7 0 0.7-0.1 0.7-0.4 0.9-0.4 0.6-0.5 0.5-0.9 0.3-1.5 0.3-1.2 0.4-0.9 0.4-0.4 0.3-0.4 0.6-0.2 0.6-0.4 2.2-0.3 0.7-0.4 0.8-0.6 0.7-1.8 2.1-0.5 0.7-0.8 1.6-0.6 2.1-0.8 1.6-0.5 0.7-1.7 2.1-0.4 0.7-0.8 2-0.9 2-0.1 0.7 0 0.7 0.4 2.6 0 1.9-0.1 1-0.7 2.4-0.7 1.6-0.4 0.6-0.4 0.5-0.4 0.3-3 1.4-1.9 0.5-0.5 0.2-0.5 0.4-0.3 0.4-0.4 1.1-1 2.2-0.3 0.7-0.3 1.1-0.3 1.9-1-0.7-1.6-1.2-1.8-1.8-0.6-0.3-1.4-0.5-4.2-1.9-1.4-0.5-1.3-0.7-1-0.7-0.3-0.4-0.4-0.6-0.2-0.6-0.3-2.3-0.4-1.2-0.2-0.6-0.8-1.2-0.3-1-0.1-1.6-0.1-0.7-0.4-0.7-1.5-2.1-0.4-0.7-0.6-2.2-0.3-0.6-0.4-0.5-0.9-0.4-1.4-0.2-1.3 0.1-0.4 0.2-0.5 0.4-1.4 2.5-0.4 0.6-0.8 1.1-0.4 0.3-0.6 0.3-0.8 0-2.3-0.8-1.1-0.5-1.3-1-1.1-0.5-0.9-0.2-2-0.2-0.9-0.2-1.1-0.4-2.7-1.8-0.4-0.3-0.5-0.6-1.6-2.1-1.3-1.4-0.9-0.6-2.2-0.9-0.5-0.4-0.2-0.4-0.4-1.1-0.8-1.3-1.5-1.9-0.5-0.4-0.9-0.4-2.2-0.5-1.7-0.6-0.9-0.2-0.7 0-1.7 0.4-3.4 1.2-0.9 0.2-1 0-1 0-0.9-0.2-1.2-0.4-1.9-1.1-1.1-0.3-0.7-0.1-0.8 0.1-0.9 0.4-1.8 0.9-0.8 0.2-1.2-0.1-3-0.8-1.4-0.2 0.1-4 0.2-1.4 0.2-0.7 0.4-0.7 0.6-0.5 1-0.8 0.3-0.3 0.3-0.6 0.1-0.7 0.1-0.9 0.2-2.8 0.3-1 0.4-0.5 0.4-0.2 1.2-0.3 1.1-0.4 0.7-0.5 0.5-0.5 0.6-0.6 0.3-0.6 0.2-0.7 0-1 0.3-1.3 1.4-3.7 0.4 0 1.2-0.2 2.2-0.8 0.7-0.2 0.8 0.1 1.8 0.3 0.8-0.1 1-0.2 0.6-0.5 0.8-0.7 1.6-2.1 0.6-0.5 2.6-2 1.2-0.8 1.4-0.8 1.7-0.8 1.1-0.5 1.4-0.3 1-0.1 4.9 0 1.9 0 0.9-0.2 1-0.5 0.4-0.4 0.7-0.8 1.3-1.9 0.4-0.6 0.1-0.4-0.1-0.7-0.4-0.6-1.7-1.7-0.5-1.1-0.2-0.9-0.3-2.7-0.2-0.9-0.5-1.2-0.1-0.6 0.1-0.5 0.2-0.4 0.5-0.6 1.2-1.1 0.5-0.6 0.6-0.9 0.1-0.7 0.1-0.8-0.1-0.8-0.2-1.1-0.2-1.7-0.1-3.2 0.1-1.6 0.4-1.7 0.2-1.7-0.1-0.8-0.3-1.3-0.9-2.2-0.4-1.2-0.1-1.1 0.4-1 0.9-1.3 0.2-0.8 0-0.5-0.3-0.6-0.8-0.7-0.9-0.3-0.7 0-0.4 0.1-1 0.5-0.5 0.3-0.6 0.5-0.6 0.6-1.6 2.3-1.5 1.5-0.6 0.4-0.8 0-0.6-0.4-0.6-0.7-1-1.2-1.6-1.3-0.4-0.3-0.2-0.6-0.2-0.7 0.1-1.5 0.3-1.7 0.2-1 0-0.9 0-0.9-0.2-0.9-0.4-1.2 0-0.5 0-1 0.3-1.6 0-0.7-0.6-2.6 0-0.6 0.1-1.7-0.1-0.7-0.6-1.7-0.6-1-2.3-2.5-0.8-0.7-1.1-0.5-1.5-0.4-0.9-0.3-1.3-1.2-0.6-0.3-0.7-0.2-0.7-0.1-0.8 0-0.7 0.1-3.5 1.1-2.8 0.5-0.7-1.7-1.2-2.6-0.2-0.7 0.1-0.7 0.2-0.7 0.8-1.4 0.3-0.7 0.1-0.6 0-0.7-0.4-0.9-0.7-1-2.2-1.8-0.7-0.9-0.3-0.5-0.2-0.9-0.1-1.8 0.2-1.9 0.2-0.8 0.4-0.9 0.5-0.9 0.6-0.5 1.7-0.9 0.6-0.5 0.5-0.6 0.4-0.6 0.4-1 0.2-0.9 0.2-3.7 0.2-0.9 0.5-1 0.4-0.3 0.9-0.6 0.5-0.2 0.7-0.1 0.7 0 0.8 0.1 2.3 1 0.4 0.1 0.7 0 0.9-0.5 0.6-0.9 1.2-2.8 0.2-0.4 0.5-0.5 0.8-0.7 0.5-0.6 0.6-0.8 0.7-1.3 0.3-0.5 0.9-0.9 0.6-0.4 1.1-0.4 0.8 0.1 1.7 0.3 0.8 0.1 1.6 0 0.7-0.1 1-0.4 0.4-0.5 0.3-0.6 1.1-2.5 0.2-0.7 0-0.7-0.2-1-0.5-1.4-1-2.7-0.2-1.5 0-0.8 0.1-0.7 0.5-1.1 0.9-1.3 0.5-1.1 0.5-2.2 0.3-1.3 0.3-0.6 0.9-1.2 0.3-1 0-1.7 0.2-1.1-0.1-1.1-0.3-0.9-0.4-0.8-0.6-1.1 0.7-0.8 0.7-0.5 0.7-0.4 1.3-0.5 1.5-0.2 0.8-0.4 0.3-0.4 0.2-0.6 0.1-1.6 0.1-0.7 0.4-0.8 0.8-1.2 2.1-2.6 2-1.9 2.3-2.5 7-7.5 4.7-2.8 0.8 4.3 1.3 2.6 2.6 2.4 2.7 1.6 2.2 2.2 2.6 9.8 4.2 4.1 5.4 2.4 5.2 0.6 5.7-1.5 3.2-3.3 27.4-49.7 1.4-5.3 3.6-2.7 10-2.3 4.7-2.8 8.4-9.3 2.5-2 6 0.2 4.4 1 3.6 2.1 16.7 18.6 8.3 6.7 8.1 4.1 19 2.3 3.5 2.5 12.2 13.7-1.4 6.1-4.3 4.3-5.3 2.6-4.7 0.8-5.2-1.2-8.7-6-5.1-2-5-0.2-4.8 1.4-3.6 3.4-1.4 5.7-0.8 5.8-1.9 3.3-3.2 1.4-8.4 0.4-2.3 0.8-1.6 1.5-1.1 3.1-0.6 4.6-0.1 4.4 0.8 2.7 5 4.7 1.1 2.3 0.2 2.6-0.6 5.3 0.3 2.6 4.2 9.8 6.5 8.8 8 6.9 9.3 4.2 10 1.5 4.5 2.1 2 4.6-1 16.2 1.3 5 0.2 0.1-10.4 4.9-2.1 2.2-3.6 6-3.9 4.6-0.6 0.4-0.3 2.1 0.2 1.8 0.5 1 0.4 0-2.5 10-0.5 3.8 0.2 3.3 1.6 7.1 0 2.9-2.8 5.2-4.3 0.8-5-0.3-4.9 1.8-2.8 4.1-1.8 4.9-2.7 3.5-5.4 0.1-3.7 0.6z" id="SRB125" name="Borski" data-id="SRB125" data-name="Borski">
 </path>
 <path d="M294.4 715.1l0.4 1.2 1.6 3.6 0.2 1.2-0.1 0.7-0.4 0.8-1.6 2.3-0.7 1.6-0.1 0.7 0 0.8 0.1 0.7 0.7 1.7 0.2 0.8-0.2 0.5-0.2 0.5-1 1.2-0.3 0.4-0.2 0.7 0.1 0.7 0.2 0.7 0.4 0.6 0.6 0.5 2.1 1.6 0.5 0.7 0.5 0.6 0.2 0.6 0.1 0.7-0.2 0.6-0.7 1.3-0.5 0.6-1.8 1.8-0.5 1-0.8 2.8-0.1 0.7 0.2 0.4 0.4 0.4 2 0.7 0.3 0.2 0.3 0.5-0.1 0.8-0.8 1.2-0.2 1 0 0.6 0.3 0.7 0.6 0.6 0.6 0.5 4 2.5 1.1 0.4 1.1 0 0.7 2.3 0.9 1.9 0.3 0.9 0 0.7-0.3 0.6-0.3 0.5-0.8 1-0.4 0.4-1.6 1.1-0.5 0.5-0.2 0.9 0 0.6 0.1 0.7 0.4 0.7 2.4 3.6 0.5 0.4 2.2 1.8 1.4 1.3 2.9 1.7 2.6 1 4 1.8-2.9 0.9-1.9 0.3-1.8 0.1-2.8-0.2-1.1 0.2-0.6 0.4-0.9 1-0.3 0.4-0.6 1.3-0.4 0.7-1.8 1.7-0.3 0.5-0.5 1.3-0.4 1.7-0.1 0.7 0 0.7 0.2 0.7 0.4 0.9 0.8 0.9 0.5 0.3 1.6 0.7 0.4 0.3 0.4 0.5 0.2 0.7 0.1 0.7-0.1 1.4-0.3 0.9-0.1 1.1 0.4 0.9 1.7 2.4 0.5 0.5 1.6 1.1 0.9 0.9 0.7 1.1 0.3 0.9 0.1 0.7-0.2 0.9-0.5 0.6-0.8 0.7-0.5 0.7-0.3 0.5-0.3 0.8-0.1 1.1 0.6 2.2 0.2 0.9 0 0.7-0.2 1.9-0.1 1.2 0.1 0.7 0.5 1.5 0 1.5 0.1 0.6 0.3 0.5 0.4 0.5 0.5 0.4 1.6 1 1.8 1.4 1.5 0.9 3.2 1.4 0.5 0.4 0.2 0.9 0.1 2.3 0.2 0.5 0.5 1.3 0.1 0.5-0.1 0.9-0.2 0.6-0.9 1.9-0.7 2.1-0.5 1-1 1.2-0.3 0.4-0.1 0.7 0.2 0.9 0.5 0.6 0.5 0.6 2.6 1.9 0.9 0.9 0.4 1.1 0 1.2-0.2 0.9-0.7 1.1-0.6 1.5-0.5 1.8-0.2 0.8-0.6 0.9-0.6 0.5-0.7 0.4-0.5 0.2-0.5 0-0.7-0.2-1.3-0.7-2.4-1.6-0.7-0.3-0.7-0.3-1.3-0.3-3.3-0.6-0.7 0.1-1.7 0.6-0.7 0-1.3-0.3-0.7-0.7-1.5-0.1-0.2 0.2 0 0.7 0.3 0.7 0.5 0.8 0 4.3-0.2 2 0 0.7 0.3 1.4-0.1 0.6-0.3 0.7-0.5 0.6-0.5 0.5-1.2 0.7-1.3 0.5-0.9 0.2-0.7-0.1-0.5-0.1-1.2-0.5-1.2-0.6-0.6-0.2-0.7-0.1-1.1 0.3-0.7 0.3-1.3 1.2-3.5 3.4-1.4 1.1-1.2 0.8-1.8 0.7-0.8 0.8-3.8 4.3-1 2.2-0.4 0.5-0.4 0.2-1.8 0.7-2.3 0.9-0.7 0.1-1-0.2-0.9-0.6-1.6-1.5-3.4-2.7-3.9-2.4-0.5 2-0.1 1 0 1 0.2 1.3 0.8 1.9 0.2 0.6 0 0.8-0.4 0.8-0.8 0.8-1.8 1-0.5 0.6-0.5 0.6-0.3 0.6 0 0.6 0.3 0.7 1.2 2 0.8 2.1 0.4 0.6 1.1 1.3 1.3 1 0.7 0.5 1.2 0.4 0.9 0.2 2 0.2 0.9 0.2 0.9 0.3 2.1 1.1 0.4 0.3 0.4 0.6 0.3 0.6 0.4 1.4 0.2 0.6 0.5 0.5 0.9 0.4 0.8 0.1 2.8 0.1 1.8 0.2 2.2 0.7 0.5 0.3 0.5 0.5 0.6 0.8 0.3 0.9 0.4 2.7 0.2 0.7 0.4 0.6 0.9 1.1 0.3 0.4 0.2 0.6 0 0.8-0.5 2.5 0 0.9 0 1 0.2 0.8 1.6 3.4 0.9 1.6 0.4 0.7 1.1 1.2 0.2 0.4-0.2 0.4 1.8 2.9 1.8 2.3 1.2 1.8 0.3 0.6 0.6 2.1 0.3 0.7 0.4 0.8 0.6 0.7 1.9 2 2.3 3.2 0.4 0.7 0.1 0.6 0 0.9 0.1 0.6 0.3 0.7 1.2 1.9 0.5 1.7 0.4 0.7 2 2.5 0.4 0.6 0.1 0.7 0 0.7-0.2 0.6-0.3 0.5-0.6 0.7-0.5 0.5-0.1 0.5 0 1.1 0.3 0.9 0.4 0.6 0.6 0.8 1.1 1 1.5 1 0.7 0.4 1.8 2.1 0.4 0.3 0.7 0.3 0.9 0 0.6-0.2 1.8-1.1 0.5-0.2 1.5-0.3 2.8-0.2 0.9-0.2 1.7-0.6 1.9-1 0.9-0.2 0.9-0.1 4-0.1 1-0.1 1-0.1 2.6-1 2.9-0.5 0.8-0.2 1.3-0.7 0.7-0.2 1 0.1 1.8 0.6 0.4 0.3 0.6 0.5 0.6 0.8 1.3 1.4 0.4 0.7 0.2 0.7 0.1 1.3-1.7 2.3-2.7 3.7-0.8 2-0.9 2-0.6 2-1 2.6-0.1 0.9-0.2 3.2-0.3 0.9-0.4 0.5-0.8 0.7-2.3 1.7-1.6 1.1-1.6 1.2-0.7 0.8-0.2 0.9 0.1 0.6 0.7 2.8 0.3 0.6 0.4 0.5 0.4 0.3 1.7 0.7 1.2 0.7 0.6 0.6 0.6 0.8 0.8 2 0.4 0.6 0.6 0.5 1.1 0.4 1.4 0.5 1.1 0.5 1.8 1.6 0.7 0.4 1.3 0.6 0.7 0.3 0.5 0.5 0.5 0.8 0.6 1.3 1.1 1.7 0.9 1-4.1 0.8-3.2 0.4-1.4 0.3-0.5 0.2-1.9 1.1-2.4 1.1-0.5 0.2-1.3 1-1 0.4-0.9 0.2-1 0-2.9 0-2.9-0.1-2.7-0.3-0.9 0.2-0.5 0.4-2.3 3-0.8 1.3-0.4 0.5-1.8 1.5-0.9 1.1-0.3 0.6 0 0.6 0.3 0.8 0.8 1.4 0.2 0.7 0 0.7-0.1 0.7-0.4 0.9-0.4 0.3-0.9 0.4-0.7 0-1.4-0.3-0.7-0.1-1.1 0.3-0.8 0.3-1.5 0.8-2 0.9-1.1 0.7-0.6 0.6-1.2 1.7-1.6 2.3-0.9 1.7-0.9 2.4-0.3 0.4-1 1.3-0.5 1-1.4 3.9-0.2 0.9-0.3 2.6-0.2 0.9-0.5 0.7-0.9 1.1-8.3-8.3-14.5-10.3-2.4-2.4-1.9-3.2-1.3-3.4-1.8-2.6-3-1.1-2.3 1.3-5.7 5.8-2.8 1.7-8.1 0.7-8-0.5-5.7-2.2-4.9-4-4.4-5.9-7.1-12.9-1.9-0.2-2 1.9-3.1 1.2-5.2-0.6-10.7-3.2-4.9-2.6-4.2-3.9-7.4-9.8-9.1-7.7-2.4-3.7-4.2-9.3-2.9-4.4-14.2-15-10.1-15.2-4-2.9-33.1-15-6.3-5.4-3.9-8.8-0.2-9.5 4.9-7.7 5.3 0 2.9-5.7 2.3-7.4 3.3-5.5 2.6-0.8 6.2 1 2.8-0.1 2.8-1.6 5.6-4.5 2.6-0.7 4.1 2.4 4.1 5.3 3.4 6.4 2 5.6 1.9 2.9 2.1-2.8 3-7.3 2.9-0.2 9.1 3.6 1.9-1.2 0.5-1.3-0.6-1.6-1.8-1.6-1.2-3.5-0.3-4.6 0.5-4.8 1-4 6.2-6.1-0.4-8.8-5.8-18.6-4.8-11-24.7-26.7-12.9-20.9-7.3-9.6-8.3-6.4-2.8-1.8 2.7-2.7 0.5-2.3-1.1-4.3 0-2.3 1.3-3.2 2-1.9 5-1.6 3.5-0.2 3.2 1.2 6.1 4.3 6.3 5.8 3.1 2 3.5-0.2 3.6-1.1 12.8-0.9 13.7 1.4 5.9-0.5 5.7-2.1 9.9-7.4 4.1-4.6 2.1-5.5-1.8-6.3-3-2.8-2.2 0.8-1.5 2-0.8 1-2.3-1.8-3.9-4.9-7.9-4.6-1.4-2.1 1.6-0.4 1-0.3 0.6-0.5 0.7-0.8 2-3.8 0.6-0.9 0.7-0.8 1-0.6 2.2-0.6 0.5-0.2 2.4-1.1 0.6-0.2 0.7 0 0.5 0.1 1.9 0.5 1 0.4 1.2 0.2 0.7 0 1-0.3 0.5-0.3 0.6-0.5 0.5-0.6 0.8-2 1.2-2.1 0.2-0.8 0.1-0.9-0.2-1.1 2.1-0.4 1 0 0.6 0 1.1 0.3 2.4 1.2 2 0.5 0.7 0.5 1.2 1.9 1.7 1.7 0.4 0.3 0.6 0.2 2.9 0.8 0.5 0.1 1.5 0.3 1.1 0.4 1 0.5 0.4 0.3 0.7 0.7 1.6 1.8 0.6 0.5 0.7 0.4 1.1 0.3 2.1-0.1 0.9 0.3 0.8 0.7 1.2 1.6 1.5 1.4 0.7 0.8 0.7 1.1 0.4 1.5 0.5 0.9 0.3 0.5 1.8 1.9 0.8 1.2 0.4 0.9 0.1 0.6 0 0.7-0.5 1.3 0 0.9 0.4 0.9 0.4 0.4 0.9 0.5 0.9 0.2 2 0.2 1.5 0 0.7-0.1 1-0.4 0.4-0.4 0.5-0.9 0.2-0.9 0-0.9 0-1.8-0.2-1.8-0.9-3.3-1.7-4-0.6-0.9-0.7-0.9-0.7-0.5-1-0.6-1.2-0.8-1.3-1.2-0.6-0.8-0.1-0.8 0.5-0.7 0.6-0.5 1-0.6 1-0.4 0.8-0.1 0.7 0 0.8 0.1 0.5 0.2 0.9 0.7 1.6 1.7 0.9 0.8 1.7 0.9 1.7 1.1 0.6 0.1 0.6-0.2 0.4-0.3 1.4-1.6 0.5-0.5 0.9-0.4 1.4-0.4 0.8-0.5 0.4-0.5 0.3-0.6 0.5-2.1 0.6-0.9 0.8-0.4 0.7-0.1 4.8 0.5 1.5 0.4 0.6 0.2 1.3 0.8 1.6 1.2 0.3 0.3 0.3 0.5 0 0.6-0.1 0.6-0.4 0.6-1 1.2-0.1 0.8 0.2 0.9 0.3 0.6 0.4 0.7 1 1.2 1.1 1.1 0.9 0.6 1.9 0.7 1.6 1 1.7 0.9 0.6 0.4 1.2 1 0.4 0.3 0.8 0.3 3 0.4 1.7 0.3 1 0.3 0.6-2.8 0.2-0.7 0.7-1.4 0.4-0.5 1.6-0.9 1-0.9 3.2-2.4 0.6 1 0.4 0.5 0.7 0.5 1.1 0.3 2.7 0.1 1 0.2 0.5 0.2 1.4 1 0.7 0.3 3.5 2.2z" id="SRB1505" name="Zlatiborski" data-id="SRB1505" data-name="Zlatiborski">
 </path>
 <path d="M179.8 179.2l-2.2 4.2-0.7 2.4-0.6 1.1-1.8 1.9-0.5 0.7-1.1 1.9-0.3 0.6-0.1 0.7 0.2 1.3 0.7 1.9 0.8 1.5 0.2 1.2-0.3 2-0.1 3-0.2 0.9-0.2 0.7-0.4 0.6-0.9 0.4-1.7 0.6-1.5 0.1-2.6-0.2-1 0.2-0.6 0.5-0.5 0.6-0.4 0.6-0.4 1-0.1 0.8-0.3 2.4-0.1 0.8-0.5 1.1-1.2 1.9-0.9 1.8-0.7 0.9-1.4 1-2.5 1.6-1.1 0.5-0.5 0.1-0.7 0.1-0.6-0.2-1-0.5-1.6-1.6-0.5-0.4-3.1-1.9-1.2-0.5-0.5-0.2-0.6 0-1 0.3-0.9 0.5-1.5 1.2-0.7 0.5-0.5 0.2-2.2 0.6-4.2 1.4 0.3 3.7 0.6 1.3 0.2 0.6 0.1 4-1.3 0.2-1.5 0.3-4.1 2.1-3 2-0.4 0.3-0.2 0.6-0.2 0.7 0 1.6 0.1 0.8 0.3 1.9 0.1 0.7 0 1.7 0.1 0.7 0.3 0.7 1.4 2.1 0.3 0.8 0.5 1 0.1 0.9-0.1 1.5-0.7 2.3-0.2 1-4.4-1.2-1.7-0.4-0.9-0.2-2 0-1.9 0-0.9 0.2-0.8 0.2-1.6 0.8-0.8 0.3-0.7 0.1-0.4-0.2-1.1-0.4-0.6-0.5-0.5-0.7-1-1.8-2.4-2.7-0.8-0.6-0.7-0.1-0.7 0.1-0.5 0.4-0.5 0.6-0.3 0.7-0.4 0.9-0.1 1.6-0.4 0.9-0.8 0.5-0.7 0.1-0.7-0.1-1-0.1-0.7 0-0.8 0.1-0.6 0.2-1.3 0.7-1.7 0.7-0.9 0.2-2.9 0.4-0.8 0.2-1.3 0.4-0.6 0.2-0.5-0.1-0.7-0.6-0.6-0.8-0.2-1.2 0-1-0.1-0.7-0.4-0.9-0.7-0.9-0.9-0.7-4.3-2.4-1.2-0.3-0.6 0.1-0.8 0.3-1.6 0.8-0.8 0.3-0.9 0.1-2.8 0.1-1.8-0.2-0.8-0.2-0.5-0.3-0.9-0.6-0.4-0.4-0.6-1.1-0.6-2.2-0.5-0.9-0.4-0.3-0.5-0.2-0.7-0.1-1.7 0.1-0.7-0.2-0.6-0.3-2.3-1.5-2.1-2-1.1-0.5-0.7 0-0.8 0.1-1 0.4-1.8 1.7-0.6 0.2-1-0.2-0.6-0.5-1.1-1.2-1.4-1.3-0.3-0.7-0.1-0.5 0.1-1.2 14.3 2.2 7-6.9-2.7-5-3.1-1.7-3.5-0.8-4-1.9-2.5-2.1-1-1.5-0.8-1.8-1.5-2.8-2.2-1.6-2.1 0.6-2.1 1.5-4.2 2.2-2.4 3-3.1 2.4-4.5 0.1-2.3-2.3-4.8-7.8-2.1-1.7 0.9-2.9 0.2-6.5 1-6.5 3-2.9 2.6-2 6.6-9.2 1.4-3-1.4-4.9-3.5-3.1-4.1-2.4-3.4-2.6-2-4.5-1-10.5-1.1-5.2-7-8.7-1.7-2.9-3.7-3.8-0.9-2.2 0.4-1.4 0.9-1.5 0.5-2 0.7-9.5 7.7-0.7 3-0.7 1.8-2.2-0.8-2.7-2.5-2.9-5-3.9 2.2-2.6 1.9-1.8 4.2-2.7-1.4-5.4 14.8 1.2 4.6 2.1 1.4-0.7 0.3-1.1-0.6-1.5-1.8-2.9-0.3-1.3 0.2-1.3 0.8-1.3 5.7-4 6.1 0.8 4.3-1.1 0.3-10.3 3.7-6.6 5.6-2.4 5.4 2.1 3.6 6.8 0 0.1 5.4 3.1 21.1 2.2 6.7-1.3 2.7-3.5 1.2-4.3 1.7-4.2 2.8-2.1 1.1 1.5 1.6 1.4 0.6 0.6 0.4 0.7 0.6 1.9 0.4 0.8 1.6 2.8 0.5 0.5 0.4 0.2 2 0.1 0.4 0.2 0.6 0.6 0.1 0.9-0.5 2.3-0.1 0.8 0.1 0.8 1.8 5.1-0.1 1-0.5 0.9-0.6 0.7-0.9 0.8-0.5 0.6-0.6 1-0.4 1-0.1 0.8 0 0.8 0.1 0.8 0.2 0.7 0.4 0.8 1.3 2.2 0.8 2.3 0.9 2.3 0.3 1.4 0.2 2 0.1 3.4-0.2 2.5 0.1 0.8 0.5 1.5 0.1 1.6-0.2 1.8 0 0.7 0.2 0.7 0.4 0.8 0.5 0.7 1.1 1.5 1.6 2.1 2.1 2.5 0.9 0.7 2.8 1.6 1.2 1 1 1 1.6 2.1 0.7 0.8 2.4 2.4 0.7 1.1 1.5 2 0.5 0.9 0.4 0.8 0 0.7-0.9 2.4 0 0.7 0.4 1 1.2 1.5 0.7 1.2 0.2 0.7 0 1.7 0.1 0.7 0.3 0.7 0.6 0.6 3.4 2.4 2.1 1.7 2.4 1.5 1.3 1.2 0.5 0.3 1 0.5 1 0.1 0.5-0.2 0.7-0.4 1.1-1.1 0.5-0.5 1.3-2 1.1-1.1 0.6-0.6 0.7-0.5 1.1-0.4 0.8-0.1 0.8 0.1 1.1 0.4 0.7 0.5 1.4 1.2 2.7 2.9 1.1 0.7 2.2 1.1 1.6 1 0.9 0.6-0.9 1.4-2.9 3.2-0.6 0.7-0.5 0.8-0.4 0.7 0 0.7 0 0.5 0.4 1.3 0.3 0.7 0.5 0.7 0.6 0.6 2.7 2 1.2 0.7 2.9 0.8 1 0.5 0.9 0.8 0.6 1 0.8 1.9 1.4 2 0.2 0.5 0.1 0.7 0 0.9-0.3 0.8-0.5 0.5-2.2 1.3-3.1 2.2z" id="SRB273" name="Zapadno-Backi" data-id="SRB273" data-name="Zapadno-Backi">
 </path>
 <path d="M249 8.3l0.7 0.7 0.6 1 0.2 0.5 0.1 0.8 0 0.7-0.6 1.7-0.7 1.1-1.4 1.3-2.3 1.7-0.6 0.6-0.6 0.6-0.5 0.9-0.2 0.8-0.1 0.7 0.1 0.8 0.8 3.5 0.2 0.8 0.8 2 0.2 0.7-0.1 0.8-0.3 1.5-0.1 0.7 0 2.5-0.1 2-0.2 0.9-1.6 2.9-0.3 1-0.3 2-0.3 0.9-0.6 1-0.5 0.6-0.6 0.5-2.1 1.1-0.6 0.5-0.7 0.8-0.9 1.3-0.8 1.3-0.6 1.4-0.3 0.6-1.3 1.9-0.3 0.7-0.3 2-0.9 2-0.1 0.7 0.1 1.6-0.1 0.8-0.7 1.9-0.1 0.7 0.6 4.1 0.4 2.1 0.2 1.6 0 0.9-0.2 0.8-0.8 3.1-0.1 1 0.2 2.3 0.5 1.1 0.3 0.9 0.6 2.5 0.4 1.1 0 0.8-0.1 0.7-0.4 0.6-0.6 0.3-1.3 0.5-0.7 0.5-1.5 1.3-1 0.6-1.5 1-1.5 0.9-1.7 0.8 5 7.5 1.6 2.6 0.3 0.7 0.6 2.3 0.3 0.8 0.4 0.8 1.6 2.2 0.3 0.7 0.1 0.7-0.2 2.7 0 1.6 0.2 0.8 0.6 1.5 0.3 0.5 0.5 0.5 0.5 0.2 0.6 0 1.5 0 2.6-0.3 2.5 7 0.9 1.5 1.5 1.8 0.4 1.1 0 0.8-0.3 1.8 0.1 0.9 0.1 0.8 0.8 2.4 0.3 1.2-0.4 0.2-0.8 0.6-2.3 2.3-0.8 0.4-2.7 0.8-2 0.9-0.8 0.2-1.8 0.1-3.6 0.1-0.9 0.1-0.9 0.2-1.9 0.9-2.4 0.6-1.2 0.5-4.3 2.7 1.2 3.1 1 2 0.2 1 0 1.1-0.2 1.1-0.8 1.7-0.9 1.5-0.2 0.5 0.1 0.6 0.2 0.5 0.4 0.6 0.7 0.7-0.3 2.2-0.2 0.9-0.3 0.9-1.4 2-0.9 1.5-0.8 1.7-0.8 2.6-0.1 0.9-0.1 1 0.1 1.9 0.2 1.9 0.3 1.1 0.1 0.8 0 0.8-0.1 0.7-0.5 1.1-0.3 0.4-0.9 0.7-1.7 0.8-1.7 0.9-0.5 0.3-1.4 1.1-1.2 0.5-1.4 0.4-3.6 0.8-1.8-1.5-3.6-2.5-1.8-1.1-2.6-0.9-2.2-0.6-1-0.5-1.1-0.7-0.7-0.5-2.2-1.9-1.2-1-2.1-1.1-3.2-1.8 3.1-2.2 2.2-1.3 0.5-0.5 0.3-0.8 0-0.9-0.1-0.7-0.2-0.5-1.4-2-0.8-1.9-0.6-1-0.9-0.8-1-0.5-2.9-0.8-1.2-0.7-2.7-2-0.6-0.6-0.5-0.7-0.3-0.7-0.4-1.3 0-0.5 0-0.7 0.4-0.7 0.5-0.8 0.6-0.7 2.9-3.2 0.9-1.4-0.9-0.6-1.6-1-2.2-1.1-1.1-0.7-2.7-2.9-1.4-1.2-0.7-0.5-1.1-0.4-0.8-0.1-0.8 0.1-1.1 0.4-0.7 0.5-0.6 0.6-1.1 1.1-1.3 2-0.5 0.5-1.1 1.1-0.7 0.4-0.5 0.2-1-0.1-1-0.5-0.5-0.3-1.3-1.2-2.4-1.5-2.1-1.7-3.4-2.4-0.6-0.6-0.3-0.7-0.1-0.7 0-1.7-0.2-0.7-0.7-1.2-1.2-1.5-0.4-1 0-0.7 0.9-2.4 0-0.7-0.4-0.8-0.5-0.9-1.5-2-0.7-1.1-2.4-2.4-0.7-0.8-1.6-2.1-1-1-1.2-1-2.8-1.6-0.9-0.7-2.1-2.5-1.6-2.1-1.1-1.5-0.5-0.7-0.4-0.8-0.2-0.7 0-0.7 0.2-1.8-0.1-1.6-0.5-1.5-0.1-0.8 0.2-2.5-0.1-3.4-0.2-2-0.3-1.4-0.9-2.3-0.8-2.3-1.3-2.2-0.4-0.8-0.2-0.7-0.1-0.8 0-0.8 0.1-0.8 0.4-1 0.6-1 0.5-0.6 0.9-0.8 0.6-0.7 0.5-0.9 0.1-1-1.8-5.1-0.1-0.8 0.1-0.8 0.5-2.3-0.1-0.9-0.6-0.6-0.4-0.2-2-0.1-0.4-0.2-0.5-0.5-1.6-2.8-0.4-0.8-0.6-1.9-0.4-0.7-0.6-0.6-1.6-1.4-1.1-1.5 2.1-1.6 4.4-1 8.9 0 4-1.4 2.5-2.8 1.8-3.4 2-3.1 3-1.4 2.6-0.4 2.1-0.9 4.1-3.3 1.7-2.4 1.2-2.6 1.7-2.3 6.3-3.5-0.6-2.9-1.8-3.1-0.4-2.9 3.5-4 5.6-3.7 6-2.7 4.4-0.8 5.2 0.2 14-2.8 5.1 0.3 5 1.6 20 12.8 4.2 0.9 20.1-8.3z" id="SRB274" name="Severno-Backi" data-id="SRB274" data-name="Severno-Backi">
 </path>
 <path d="M434.6 132.5l-0.8 0.9-0.6 0.5-1.2 0.6-0.4 0.4-0.1 0.8 0.3 0.6 0.6 0.9 1.1 1.3 0.6 1.1 0.6 2 0.1 1.2-0.1 0.7-0.4 0.6-2.5 2-0.7 1-0.6 0.9-0.9 2.5-0.7 3.4-0.2 1-0.1 2.1 0.1 2.1 0.1 2.1 0.2 2-0.1 0.6-0.3 0.5-0.9 0.4-0.9 0.1-1.9 0.2-2.1 0.4-1.5 0.1-1.6-0.3-1-0.4-2.4-1.1-1-0.4-0.7-0.1-1.2 0.1-0.5 0.2-0.6 0.5-1.6 1.6-1.9 1.8-1.2 1.4-0.6 0.5-1.2 0.7-2.9 1.7-0.9 1-0.5 0.8-0.6 2.4-0.7 1.6-0.3 0.7-0.4 1.9 0.1 1.2 0.3 0.7 1.2 2.2 0.6 2.2 0.5 1.2 1.6 2.1 0.3 0.5 0.5 1.4 0.5 0.9 0.5 0.9 1.4 1.9-3 1-1.4 0.2-1.7 0-0.8 0-0.8-0.2-2.8-1.1-0.8-0.2-0.9-0.1-1.9-0.1-6.5 0-2.8 0-0.9 0.2-1.2 0.4-1.9 1.2-0.6 0.2-1.4 0.4-2.5 0.4-1.5 0.6-3 1.2-1.6 0.5-1.1 0.4-0.5 0.1-1.1-0.1-2.1-0.9-0.7-0.4-0.4-0.4-1.1-1.8-0.7-0.5-2.4-0.6-1.4-0.6 0.3-0.9 0.5-1.7 0.5-2.9 0.2-0.8 0.5-0.5 0.9-0.4 2.4-0.2 1.1-0.3 0.6-0.5 0.5-0.9 0.1-0.7-0.1-0.8-0.5-1-0.9-1.2-1.3-1.3-1.8-0.4-1.2-2.2 0.2-2.9 1-1.5 2.6-1.8 0.4-0.1 0.2 0.4 0 0.6-0.2 1.5-0.7 0.9-0.4 0.9-0.1 1 0.3 1 0.9 0.8 0.5 0.2 1-0.3 1.9-0.8 0.7-0.5 1.2-1.3 1.2-0.6 0.5-0.4 1-1.6 0.5-0.3 0.6-0.1 0.6 0.1 1.3 0.4 0.7 0.1 0.7 0 1.1-0.3 0.5-0.5 0.4-0.6 0.1-0.7 0-1.7 0.1-0.7 0.4-0.7 1.1-1.3 1.6-1.6 0.4-0.5 0.1-0.4-0.1-0.6-0.4-0.6-1.3-1.1-1.2-1.3-0.9-0.7-0.5-0.3-1.1-0.4-0.7-0.1-1.7 0-0.9-0.4-0.5-0.6-0.4-0.8-0.5-2.2-0.2-0.8-0.8-1.4-1.4-1.8-0.3-0.7-1-2.7-0.8-1.5-0.8-1.7-0.7-3.1-0.9-2.9-0.2-1-0.2-2-0.2-1-0.3-0.6-0.3-0.5-0.9-0.2-0.9 0.2-1.4 0.5-1.5 0.8-0.7 0.2-1-0.2-1.3-0.7-0.7-0.3-2.4-0.6-0.7 0-3.3 0.5-1.9 0.4-2.9 0.4-2.9 0.6-1.9 0.1-3.9-0.1-1.9 0-1.9-0.1-2.9-0.7-5.2-0.3-1.1-0.2-1-0.2-1.9-0.8-1.8 1.7-2.9 2.4 0.3 5.1 1.7 3.4 1.9 2.2 0.2 2.3-3.8 3.7-2.8 1.2-5 1.4-0.8-1.2-1.6-1.2-1.3-1.2-1.1-1.2-1.2-1.7-1-1.1-0.6-0.5-1.1-0.7-1-0.5-0.7-0.2-2.6-0.7-1.9-0.3-11.6-0.1-2-0.1-0.9-0.2-1.1-0.4-2.8-2-1.2-0.5-2.3-0.6-2.7-1.1-0.9-0.2-3.8-0.3-0.8-0.2-2.8-1.1-0.9-0.2-1.8-0.1-2.8 0-1.8 0.2-1.6 0.4-1 0.1-3.4 0.3-0.3-1.2-0.8-2.4-0.1-0.8-0.1-0.9 0.3-1.8 0-0.8-0.4-1.1-1.5-1.8-0.9-1.5-2.5-7-2.6 0.3-1.5 0-0.6 0-0.5-0.2-0.5-0.5-0.3-0.5-0.6-1.5-0.2-0.8 0-1.6 0.2-2.7-0.1-0.7-0.3-0.7-1.6-2.2-0.4-0.8-0.3-0.8-0.6-2.3-0.3-0.7-1.6-2.6-5-7.5 1.7-0.8 1.5-0.9 1.5-1 1-0.6 1.5-1.3 0.7-0.5 1.3-0.5 0.6-0.3 0.4-0.6 0.1-0.7 0-0.8-0.4-1.1-0.6-2.5-0.3-0.9-0.5-1.1-0.2-2.3 0.1-1 0.8-3.1 0.2-0.8 0-0.9-0.2-1.6-0.4-2.1-0.6-4.1 0.1-0.7 0.7-1.9 0.1-0.8-0.1-1.6 0.1-0.7 0.9-2 0.3-2 0.3-0.7 1.3-1.9 0.3-0.6 0.6-1.4 0.8-1.3 0.9-1.3 0.7-0.8 0.6-0.5 2.1-1.1 0.6-0.5 0.5-0.6 0.6-1 0.3-0.9 0.3-2 0.3-1 1.6-2.9 0.2-0.9 0.1-2 0-2.5 0.1-0.7 0.3-1.5 0.1-0.8-0.2-0.7-0.8-2-0.2-0.8-0.8-3.5-0.1-0.8 0.1-0.7 0.2-0.8 0.5-0.9 0.6-0.6 0.6-0.6 2.3-1.7 1.4-1.3 0.7-1.1 0.6-1.7 0-0.7-0.1-0.8-0.2-0.5-0.6-1-0.7-0.7 3.7-1.6 9.7-2.1 15.4 1.4 10.1 5.8 6.8-0.8 6.1-3.1 2.4-0.3 3.9 0.9 1.3 1.1 2.5 3.4 1.8 1 1.8-0.2 6.1-2.9 4.3 1.8 13.1 11.2 15.2 19 2.8 5.2 5.1 15.9 3.7 5.6 4.1 3 9.5 4.3 4.5 3.1 12.7 11.8 4.4 2 9.2 1.1 4.5 1.8 3.7 3.7 8 14.4 1.7 1.6 4.2 2.9 1.7 2.1 0.8 2.9 0.5 7.1 0.3 1.1z" id="SRB275" name="Severno-Banatski" data-id="SRB275" data-name="Severno-Banatski">
 </path>
 <path d="M770.4 545.1l-4.7 2.8-7 7.5-2.3 2.5-2 1.9-2.1 2.6-0.8 1.2-0.4 0.8-0.1 0.7-0.1 1.6-0.2 0.6-0.3 0.4-0.8 0.4-1.5 0.2-1.3 0.5-0.7 0.4-0.7 0.5-0.7 0.8 0.6 1.1 0.4 0.8 0.3 0.9 0.1 1.1-0.2 1.1 0 1.7-0.3 1-0.9 1.2-0.3 0.6-0.3 1.3-0.5 2.2-0.5 1.1-0.9 1.3-0.5 1.1-0.1 0.7 0 0.8 0.2 1.5 1 2.7 0.5 1.4 0.2 1 0 0.7-0.2 0.7-1.1 2.5-0.3 0.6-0.4 0.5-1 0.4-0.7 0.1-1.6 0-0.8-0.1-1.7-0.3-0.8-0.1-1.1 0.4-0.6 0.4-0.9 0.9-0.3 0.5-0.7 1.3-0.6 0.8-0.5 0.6-0.8 0.7-0.5 0.5-0.2 0.4-1.2 2.8-0.6 0.9-0.9 0.5-0.7 0-0.4-0.1-2.3-1-0.8-0.1-0.7 0-0.7 0.1-0.5 0.2-0.9 0.6-0.4 0.3-0.5 1-0.2 0.9-0.2 3.7-0.2 0.9-0.4 1-0.4 0.6-0.5 0.6-0.6 0.5-1.7 0.9-0.6 0.5-0.5 0.9-0.4 0.9-0.2 0.8-0.2 1.9 0.1 1.8 0.2 0.9 0.3 0.5 0.7 0.9 2.2 1.8 0.7 1 0.4 0.9 0 0.7-0.1 0.6-0.3 0.7-0.8 1.4-0.2 0.7-0.1 0.7 0.2 0.7 1.2 2.6 0.7 1.7 2.8-0.5 3.5-1.1 0.7-0.1 0.8 0 0.7 0.1 0.7 0.2 0.6 0.3 1.3 1.2 0.9 0.3 1.5 0.4 1.1 0.5 0.8 0.7 2.3 2.5 0.6 1 0.6 1.7 0.1 0.7-0.1 1.7 0 0.6 0.6 2.6 0 0.7-0.3 1.6 0 1 0 0.5 0.4 1.2 0.2 0.9 0 0.9 0 0.9-0.2 1-0.3 1.7-0.1 1.5 0.2 0.7 0.2 0.6 0.4 0.3 1.6 1.3 1 1.2 0.6 0.7 0.6 0.4 0.8 0 0.6-0.4 1.5-1.5 1.6-2.3 0.6-0.6 0.6-0.5 0.5-0.3 1-0.5 0.4-0.1 0.7 0 0.9 0.3 0.8 0.7 0.3 0.6 0 0.5-0.2 0.8-0.9 1.3-0.4 1 0.1 1.1 0.4 1.2 0.9 2.2 0.3 1.3 0.1 0.8-0.2 1.7-0.4 1.7-0.1 1.6 0.1 3.2 0.2 1.7 0.2 1.1 0.1 0.8-0.1 0.8-0.1 0.7-0.6 0.9-0.5 0.6-1.2 1.1-0.5 0.6-0.2 0.4-0.1 0.5 0.1 0.6 0.5 1.2 0.2 0.9 0.3 2.7 0.2 0.9 0.5 1.1 1.7 1.7 0.4 0.6 0.1 0.7-0.1 0.4-0.4 0.6-1.3 1.9-0.7 0.8-0.4 0.4-1 0.5-0.9 0.2-1.9 0-4.9 0-1 0.1-1.4 0.3-1.1 0.5-1.7 0.8-1.4 0.8-1.2 0.8-2.6 2-0.6 0.5-1.6 2.1-0.8 0.7-0.6 0.5-1 0.2-0.8 0.1-1.8-0.3-0.8-0.1-0.7 0.2-2.2 0.8-1.2 0.2-0.4 0-2.1-1.3-2.5-1.8-0.8-0.2-0.7 0.1-2.8 1.3-0.7 0.2-1.2 0-1.1-0.3-1.6-0.8-1.3-0.8-1.5-1.8-1.2-1.7-0.5-0.5-0.5-0.2-1.1-0.4-2.5-0.3-0.7 0-1 0.4-1.8 1.3-1.4 0.7-0.7 0.3-1.2 0.1-1-0.1-1.4-0.6-1.9-0.6-0.4-0.3-0.6-0.4-0.7-1-0.5-2.5-0.3-0.6-0.4-0.5-2.7-2.1-0.8-0.5-1.1-0.5-1.2-0.4-1.2-0.2-0.8 0-1.7 0.2-1.5 0.1-0.8-0.2-2.7-0.8-0.9-0.2-1 0.1-0.9 0.2-1.3 0.6-1 0.2-0.6-0.1-0.7-0.3-2.5-1.2-1.9-0.3-1.2-0.4-0.8-0.5-0.6-1-0.3-1.1-0.7-2.2-0.4-1.9-0.2-0.5-0.4-0.6-0.8-0.6-1.5-0.8-0.6-0.5-0.7-0.8-1-1.5-0.9-0.8-1.8-1.4-3.3-3-1.7-2.3-1.2-1.5-1.5 0.6-1.5 0.3-1.3 0.2-1.2-0.2-0.5-0.2-1.7-1.1-0.6-0.5-1.5-1.9-1.1-0.8-1-0.5-0.4-0.2-0.7 0-4.8 0.4-1 0.2-1.2 0.5-0.6 0.5-0.9 1.1-0.6 1.2-0.4 0.5-0.2 0.2-3 0-0.9 0-2 0.3-0.8 0-0.7-0.1-0.5-0.2-0.9-0.5-0.3-0.4-0.4-0.8-0.1-0.6 0.2-0.5 1.2-1.7 0.4-0.7 0.8-2.2 0.8-1.9 0.1-0.7-0.1-0.7-0.2-0.5-0.3-0.5-0.6-0.4-0.5-0.2-2-0.3-0.7-0.2-0.9-0.5-0.5-0.5-0.8-1.6-1.3-2-0.3-0.7-0.1-0.7 0-0.7 0.1-1 0.1-0.7-0.1-0.7-0.4-1-0.6-1.1-0.5-0.7-0.6-0.6-2.6-2-5.4-4.6-1.1 2.9-0.7 1.6-0.4 0.9-0.7 2.7-0.4 0.9-0.7 1-1.9 2.2-0.7 0.4-0.4 0-0.7-0.3-1.9-1-0.6-0.2-1.3-0.4-2.4-0.3-0.8-0.1-1-0.5-0.4-0.4-1-1-1-1.4-0.3-0.7-0.3-0.7-0.4-2.1-0.3-0.6-0.3-0.3-2.8-2.1-2.3-1.5-0.7-0.3-0.7-0.2-2.4-0.3-0.7-0.2-0.7-0.2-0.4-0.4-1-0.9-0.7-0.4-0.8-0.3-0.9-0.1-1.2 0-3.2 0.6-3.5-1.9 0-2.3 1.7 0 0-2.1-1.7 0 0-2.5 4.3 0.4 1.9-1.9-0.8-2.9-3.7-2.3 1.2-4.2-1.1-2.1-2-1.2-1.4-1.9-0.7-3.5 0.3-1.9 0.9-2 1.1-4.1 1.1-5.6 1.7-4.9 3.6-3.2 6.8-0.2-0.8-2.5-1.4-1.8-2-1.4-2.4-1.2 1.8-6.9 1.9 1.4 0.7-0.1 0.6-0.7 1.6-0.6-1.3-0.6-0.7-0.8-0.9-0.7-1.9-0.4 1.1-5.4 0.4-1.5-1.5 0-1.8 1.2-1.1-3.2-1.7-3.9-3.8-1.1 0-2.3 3.4-3.2 1.6-3.4 0-4.2-1.7-5.4-1.9-4.3-1.9-2.1-2.9-0.7-4.9 0 0.6-6.5-5.2-8.2 3.1-3.8-1.3-1.7-3.5-3.6-2-1.4 0.5-1.6 0.8-4.1 0.5-1.5-2.6-0.4-1.7-1.7-0.8-3-0.1-3.6 9.9-1.6 6-4.8 2.3-1.4 3.3-0.2 6 0.5 3.1-1.3 2.1-3.1 1.7-3.8 2.3-3.4 8.1-6.3 11.3-5.8 12-3.8 9.8-0.6 0.2 0.1 4.3 3.3 4.2 9 3.9 1.8 20.5 2.3 14.8-1.2 4.7 1.4 4.2 3.9 2.1 5.5 1.5 6.1 2.2 6.1 8.9 8.9 11.8 3.6 12.4 0 10.8-2.3 8.8-3.8 4.2-1.1 4 0.8 21.8 11.4 7.7 1.3 2.4 2.4 6.7 16.3 1 4.7z" id="SRB279" name="Branicevski" data-id="SRB279" data-name="Branicevski">
 </path>
 <path d="M133.3 347l3.3 4.4 1.3 1.3 0.3 0.6 0.5 0.8 0.6 0.6 1.6 0.9 0.7 0.1 0.4-0.2 0.6-0.5 1-1.3 2.8-4-0.2-0.3-0.1-0.7 0.1-0.6 0.2-0.6 0.5-0.4 0.5-0.3 1.2-0.5 0.9-0.2 0.9 0.2 0.5 0.3 1.3 1.1 1.1 0.5 1 0.2 5.6 0.6 0.2 0.1 1.2 1.4 0.6 0.6 1.1 0.4 1.7 0.4 0.7 0.2 1.1 0.6 1.7 1.5 1 0.6 0.6 0.2 1 0.1 2.8 0.3 1 0.2 2.5 0.7 3.5 1.3 2.4 0.7 0.8 0.1 0.7-0.1 3.5-1 1.9-0.2 2.9 0 14 0.1 4.7-1.8 1.7-0.9 1.3-0.7 0.6-0.4 0.8-0.1 3.2-0.3 0.7-0.2 0.7-0.3 0.6-0.5 1.3-1.2 2.4-2.3 2.5 3.4 2 3.4 0.8 0.6 0.9 0.1 2.2-0.7 0.9-0.2 1.9-0.1 3.9 0 4.2 0.1 2.2 0.1 0.9 0.2 0.5 0.2 3.7 0.2 3.5 0.2 0.4 0.1 1 0.5 0.4 0.1 1.7 0.2 4.1-0.7 1.6-0.4 1.1-0.3 3.2-0.5 1.7-0.7 0.7-0.4 2.3-1.5 1.1-0.9 0.5-0.5 0.3-0.7-0.1-0.5-0.4-0.5-1-1.1-0.5-0.6-0.2-0.5 0-0.4 0.4-0.8 2.8-5.2 13.7 4.2 5.4 0.7 29-3.2 9 3.2 8.3 6.4 5 5.4 2.9 3 11.9 17.8 1.7 2.4 2.6 13.2-5.7 8.2-7 5.7-1.5 5.6-1.8 0 3.1 7.7 3.7 6.9 1.5 1.8-10.6 3.4-5.4 1.3-3 0-0.7 0.1-1.1 0.3-0.7 0.5-1.4 1.1-1.6 1.1-1.9 1.8-3.1 2.5-0.4 0.3-0.7 0.2-0.7 0.2-1.9 0-1.9-0.1-2-0.4-0.7 0-1.1 0.4-0.6 0.3-1 1-0.5 0.6-0.2 1-0.1 2-0.1 0.8-0.7 3.3-0.8 1.8-2.7 5.5-0.3 2.3-0.2 2.5-0.2 0.8-0.3 0.8-0.9 1.4-0.4 0.7-0.2 0.9-0.1 0.9-0.1 3.7-0.2 0.9-0.5 1-0.8 0.8-0.9 0.5-1.7 0.8-1.6 0.5-0.8 0-0.9-0.1-0.7 0-0.9 0.3-0.5 0.5-0.6 1-0.2 0.5-0.2 0.9-0.1 1 0.1 1 0.2 1 0.5 1 0.9 0.8 0.9 0.6 1.7 0.7 1.9 0.6 0.4 0.3 0.4 0.5 0.2 0.6 0 0.7-0.4 1.6-0.3 0.7-0.3 0.5-0.4 0.3-1.4 1-0.3 0.3-0.2 0.5 0.1 0.4 1.3 1.6 0.2 0.7 0 0.6-0.1 0.5-0.5 1.9-0.7 1.2-1 4-11.7 6-4.4 3.9-4.9 5.8-8.1 7-7.9 3.2-4.7-5.5 2.4-3.8 14.2-6.6 4.9-3.5-6.6-2.4-16.6 0.2-5.8-3.9-4.1-4.4-6.4-4.6-12-6.2-12.3-0.2-4-1.9-2.1-2.3-1.1-2.5-1-2.7-1.6-3-1-6.4 2.2-7.7 10.5-21.1 1.3-4.3-0.5-3.6-1.9-1-6.4-0.9-5.3-3-4.1-0.7-2.4-0.9-6.9 7.4-0.8-0.1-1.9-0.3-5.1-0.1-1.9 0-1 0.1-0.9 0.2-1.7 0.7-4.2 2.1-2.3 1.1-1 0.4-0.8 0.1-0.7 0-0.8-0.1-1.8-0.4-2.3-0.3-1.3-0.4-1.5-0.8-0.6-0.5-2.3-2.1-0.5-0.5-0.6-0.3-1.1-0.2-0.7 0.2-0.7 0.4-1 0.6-0.6 0.6-1 1-1.1 1.5-1 1-0.6 0.4-0.5 0.2-1-0.1-1-0.4-0.5-0.3-0.6-0.6-0.5-0.7-0.7-2.1-0.9-2.1-0.8-2.2-0.3-0.6-1-1.2-1.3-1.2-2.8-2-0.6-0.4-1.2-0.4-0.8-0.1-1.2 0.1-2.5 3.3 0.4 2.9-2.7 2.7-3.5 0.5-7.5-2.6-3.8-0.2 3.9 4.3 4.3 2.9-0.5 1.8-0.9-1.1 0 0.3-0.7 0.4-2.4 0.2-2.4-0.8-4.8-4.6-2.2 0-2 1-2.2 0.3-10.7-2.3-2.4 0.5-4.2 1.8-2.5 0-1.2-1.6-0.9-2.9-1.5-2-3 0.7-21.6 15.8-3.9 1.4-5 0.7-7.7 2.5-5.2-10-0.7-6.8 6.5-3.7 3.3 1.1 4.8 5.3 3.5 0.4 2.9-1.7 2.3-2.9 3.7-6.5 2.3-1.4 2.8-1.2 1.7-2.5-1-5.2-2.1-2.4-5 1.9-2.6-2.4-0.5-3.5 0.8-4.1 1.2-4.1 0.5-3.3-0.3-3.5-2-10.1-0.9-8.2-0.7-3.3-1.9-4.3-1.8-2.2-2.4-2.4-1.9-2.6-0.3-3.1 3.7-3.3 13.5 1.4 5.2-1.1 0.9-5.5-3.1-6.5-1.6-5 5.3-1.3 2.8 1.6 4.6 6.5 2.6 2.7 4.6 1.7 5.1 0.4 10.1-1.4 1.2-0.8 0.8-1.6 0.9-1.5 1.7-0.7 1.1 0.6 2 3 1.1 0.8 20.9-1 0.7-0.7z" id="SRB281" name="Sremski" data-id="SRB281" data-name="Sremski">
 </path>
 <path d="M429.1 790.9l-5.8 4.1-0.7 0.6-2 2.4-1 1-1.4 1.1-0.5 0.6-0.5 0.9-0.5 0.6-2.1 1.6-0.4 0.3-0.3 0.5-0.1 0.7 0.1 0.6 0.3 0.7 0.9 1.3 0.3 0.7 0.2 0.6-0.1 0.7-0.1 0.5-0.6 0.9-3.7 3.5-1 0.5-1.3 0.6-0.8 0.5-0.5 0.6-0.2 0.4-0.4 1.3-0.1 0.4-1 1.4-0.3 1 0.2 1.1 1.2 2.5 0.5 1.6-0.1 0.6-0.2 0.6-0.8 1.1-0.6 0.5-1.2 0.9-1 0.5-1.2 0.5-1 0.3-0.6 0-2.1-0.6-1.2-0.1-0.4 0.2-1 0.4-1.8 1.3-0.5 0.3-1.3 0.3-2.3 0.4-1.7 0.7-1 0.6-0.4 0.4-0.6 1-0.3 0.5-0.9 2.9-0.5 0.9 4.3 2.3 0.6 0.5 0.5 0.5 0.3 0.6 0.2 0.7 0 0.7-0.3 1.9-0.1 1.8 0.1 0.9 0.3 1.4 1.2 3.3 0.1 0.7-0.1 1.3-0.2 1.4-0.9 2.4-0.3 0.5-0.5 0.4-0.6 0.4-0.9 0.1-0.9-0.2-1.2-0.6-0.4-0.4-1.1-1.3-0.6-0.5-0.6-0.3-0.8 0.1-0.5 0.4-1.1 1.4-0.4 0.3-0.8 0.5-0.9 0.3-0.8 0.1-0.9-0.1-2-0.8-0.7-0.1-0.7 0.1-1 0.4-0.6 0.5-1 0.9-1 0.8-2.6 1.4-1.4 0.8-0.5 0.5-0.3 0.6 0.1 0.7 1.4 2.8 0.7 1.1 0.4 0.6 0.7 0.7 0.4 0.6 0.2 0.6-0.1 0.6-0.2 0.5-0.4 0.6-0.3 0.1-0.3 1.1-0.3 1.8-0.1 1 0 1 0.3 2 0 0.7-0.1 0.7-0.3 0.6-2.1 3.6-0.7 2.1-0.4 0.6-0.9 1.1-1.3 1-4.5 2.7-2.3 1.2-1.4 0.8-0.9 0.7-0.1 0.5 0.1 0.4 0.4 0.5 1.3 1.3 1 1.7 0.4 0.5 1.9 1.6 2.7 2.7 0.6 0.5 0.7 0.4 1.2 0.3 0.4 0.2 0.6 0.5 0.6 0.8 0.7 1.2 0.6 0.9 0.5 0.6 1.9 1.7 3.2 3.9 0.5 1.1 0.5 1.3 0.3 0.7 0.4 0.6 0.5 0.6 1.5 1.2 0.4 0.6 0.3 0.6 0.3 0.8 0.1 0.9 0 1-0.2 0.9-0.4 1.9-0.3 1.9-0.2 0.8-0.7 1.5-0.3 0.7 0.1 0.9 0.4 1.1 0.1 1.4 0.2 0.7 0.5 0.8 1 1.2 0.3 0.7 0.1 0.6-0.1 0.7-0.4 0.7-1.4 2-0.3 0.7-0.1 0.6 0.4 0.9 0.4 0.6 0.5 0.5 0.5 0.3 1.7 0.6 0.4 0.2-0.2 1.3-0.6 2-0.1 1.2 0.2 0.7 0.2 0.5 0.9 1.1 1.1 1.1 0.5 0.6 0.2 0.8-0.4 0.6-0.6 0.7-0.7 0.9-0.2 1 0 1.2-0.2 0.7-0.9 0.7-0.8 0.3-2.1 0-0.5 0.1-0.6 0.2-1.1 0.8-0.9 1-0.4 0.6-0.9 2.5-1.3 1.8-1.1 2.1-0.7 0.9-1.2 1.2-0.4 0.3-2.2 1.1-1.3 1-1.5 1-0.7 0.6-0.3 0.7-0.2 2.3-1.3 4.9-0.5 0.2-0.7 0.1-1.1-0.2-0.6-0.5-0.7-0.7-0.7-0.3-1.9-0.8-0.5-0.4-0.6-0.5-1.2-1.2-1.4-1.1-0.5-0.6-0.8-1.8-1-1.6-2.5-3.1-0.1-1.3-0.2-0.7-0.4-0.7-1.3-1.4-0.6-0.8-0.6-0.5-0.4-0.3-1.8-0.6-1-0.1-0.7 0.2-1.3 0.7-0.8 0.2-2.9 0.5-2.6 1-1 0.1-1 0.1-4 0.1-0.9 0.1-0.9 0.2-1.9 1-1.7 0.6-0.9 0.2-2.8 0.2-1.5 0.3-0.5 0.2-1.8 1.1-0.6 0.2-0.9 0-0.7-0.3-0.4-0.3-1.8-2.1-0.7-0.4-1.5-1-1.1-1-0.6-0.8-0.4-0.6-0.3-0.9 0-1.1 0.1-0.5 0.5-0.5 0.6-0.7 0.3-0.5 0.2-0.6 0-0.7-0.1-0.7-0.4-0.6-2-2.5-0.4-0.7-0.5-1.7-1.2-1.9-0.3-0.7-0.1-0.6 0-0.9-0.1-0.6-0.4-0.7-2.3-3.2-1.9-2-0.6-0.7-0.4-0.8-0.3-0.7-0.6-2.1-0.3-0.6-1.2-1.8-1.8-2.3-1.8-2.9 0.2-0.4-0.2-0.4-1.1-1.2-0.4-0.7-0.9-1.6-1.6-3.4-0.2-0.8 0-1 0-0.9 0.5-2.5 0-0.8-0.2-0.6-0.3-0.4-0.9-1.1-0.4-0.6-0.2-0.7-0.4-2.7-0.3-0.9-0.6-0.8-0.5-0.5-0.5-0.3-2.2-0.7-1.8-0.2-2.8-0.1-0.8-0.1-0.9-0.4-0.5-0.5-0.2-0.6-0.4-1.4-0.3-0.6-0.4-0.6-0.4-0.3-2.1-1.1-0.9-0.3-0.9-0.2-2-0.2-0.9-0.2-1.2-0.4-0.7-0.5-1.3-1-1.1-1.3-0.4-0.6-0.8-2.1-1.2-2-0.3-0.7 0-0.6 0.3-0.6 0.5-0.6 0.5-0.6 1.8-1 0.8-0.8 0.4-0.8 0-0.8-0.2-0.6-0.8-1.9-0.2-1.3 0-1 0.1-1 0.5-2 3.9 2.4 3.4 2.7 1.6 1.5 0.9 0.6 1 0.2 0.7-0.1 2.3-0.9 1.8-0.7 0.4-0.2 0.4-0.5 1-2.2 3.8-4.3 0.8-0.8 1.8-0.7 1.2-0.8 1.4-1.1 3.5-3.4 1.3-1.2 0.7-0.3 1.1-0.3 0.7 0.1 0.6 0.2 1.2 0.6 1.2 0.5 0.5 0.1 0.7 0.1 0.9-0.2 1.3-0.5 1.2-0.7 0.5-0.5 0.5-0.6 0.3-0.7 0.1-0.6-0.3-1.4 0-0.7 0.2-2 0-4.3-0.5-0.8-0.3-0.7 0-0.7 0.2-0.2 1.5 0.1 0.7 0.7 1.3 0.3 0.7 0 1.7-0.6 0.7-0.1 3.3 0.6 1.3 0.3 0.7 0.3 0.7 0.3 2.4 1.6 1.3 0.7 0.7 0.2 0.5 0 0.5-0.2 0.7-0.4 0.6-0.5 0.6-0.9 0.2-0.8 0.5-1.8 0.6-1.5 0.7-1.1 0.2-0.9 0-1.2-0.4-1.1-0.9-0.9-2.6-1.9-0.5-0.6-0.5-0.6-0.2-0.9 0.1-0.7 0.3-0.4 1-1.2 0.5-1 0.7-2.1 0.9-1.9 0.2-0.6 0.1-0.9-0.1-0.5-0.5-1.3-0.2-0.5-0.1-2.3-0.2-0.9-0.5-0.4-3.2-1.4-1.5-0.9-1.8-1.4-1.6-1-0.5-0.4-0.4-0.5-0.3-0.5-0.1-0.6 0-1.5-0.5-1.5-0.1-0.7 0.1-1.2 0.2-1.9 0-0.7-0.2-0.9-0.6-2.2 0.1-1.1 0.3-0.8 0.3-0.5 0.5-0.7 0.8-0.7 0.5-0.6 0.2-0.9-0.1-0.7-0.3-0.9-0.7-1.1-0.9-0.9-1.6-1.1-0.5-0.5-1.7-2.4-0.4-0.9 0.1-1.1 0.3-0.9 0.1-1.4-0.1-0.7-0.2-0.7-0.4-0.5-0.4-0.3-1.6-0.7-0.5-0.3-0.8-0.9-0.4-0.9-0.2-0.7 0-0.7 0.1-0.7 0.4-1.7 0.5-1.3 0.3-0.5 1.8-1.7 0.4-0.7 0.6-1.3 0.3-0.4 0.9-1 0.6-0.4 1.1-0.2 2.8 0.2 1.8-0.1 1.9-0.3 2.9-0.9-4-1.8-2.6-1-2.9-1.7-1.4-1.3-2.2-1.8-0.5-0.4-2.4-3.6-0.4-0.7-0.1-0.7 0-0.6 0.2-0.9 0.5-0.5 1.6-1.1 0.4-0.4 0.8-1 0.3-0.5 0.3-0.6 0-0.7-0.3-0.9-0.9-1.9-0.7-2.3-1.1 0-1.1-0.4-4-2.5-0.6-0.5-0.6-0.6-0.3-0.7 0-0.6 0.2-1 0.8-1.2 0.1-0.8-0.3-0.5-0.3-0.2-2-0.7-0.4-0.4-0.2-0.4 0.1-0.7 0.8-2.8 0.5-1 1.8-1.8 0.5-0.6 0.7-1.3 0.2-0.6-0.1-0.7-0.2-0.6-0.5-0.6-0.5-0.7-2.1-1.6-0.6-0.5-0.4-0.6-0.2-0.7-0.1-0.7 0.2-0.7 0.3-0.4 1-1.2 0.2-0.5 0.2-0.5-0.2-0.8-0.7-1.7-0.1-0.7 0-0.8 0.1-0.7 0.7-1.6 1.6-2.3 0.4-0.8 0.1-0.7-0.2-1.2-1.6-3.6-0.4-1.2 3.1 0.1 1.1 0.1 0.9 0.2 2.9 1.1 2.3 0.5 1.2 0.5 1.9 1.1 0.8 0.3 0.9 0 0.7-0.4 0-0.8-1.1-3.4-0.1-0.7 0-0.8 0.2-0.6 0.4-0.6 1-0.4 5.1-1 0.4 0 1 0.1 1-0.4 0.5-0.5 1.2-1.7 1-0.9 0.7-0.5 1.1-0.4 0.8 0 2.5 0.3 0.7 0 0.8-0.1 2.1-0.6 0.5-0.1 0.7 0 2.6 0.7 0.7 0.1 0.7 0 1.7-0.6 0.8-0.3 2.3-1.3 1.1-0.4 0.9-0.1 0.9-0.1 4.5 0 1.3-0.3 0.4-0.2 0.4-0.5 0.3-0.7 0.3-1.4 0.5-1.2 0.8-0.9 1.1-0.9 1.8-0.9 1.9-1.1 2.8-1.1 0.7-0.5 1.1-1.1 0.4-0.6 0.1-0.4-0.1-1-0.2-1.6 0-0.7 0.4-0.6 0.4-0.5 1.6-1.1 1.2-0.6 0.8-0.2 0.7 0 1.7 0.2 1-0.2 0.6-0.4 0.6-0.7 0.3-0.6 0.3-1 0-0.6-0.2-1.8 0-0.7 0.2-1.3 0.4-1.1 0.4-0.6 0.4-0.5 0.9-0.4 2.2-0.3 0.9-0.4 0.4-0.5 0.3-0.6 0.5-3 0.7-1.7 0.8-1.7 2.2-3.2 1.3-1.8 0.9 1.5 1.8 2.4 0.4 1.1 0 0.7-0.1 0.5-0.8 2.5 0 0.7 0.4 2.2 0.5 2.2 0.6 2.6 0.4 1.2 0.6 1.2 0.8 1.7 0.5 0.6 0.5 0.5 0.7 0.3 0.9 0.2 1.2 0 0.2 1.2-0.1 0.9-0.6 2.6 0 0.8 0.1 0.7 0.4 0.6 0.6 0.5 1.2 0.4 0.7 0.2 2.4 0.2 0.8 0.1 0.7 0.2 0.6 0.4 1.4 1.5 0.6 0.5 1.6 1 1.5 1.1 0.3 0.3 0.4 0.6 0.2 0.7 0.5 3 0.2 0.5 0.4 0.8 2 2.2 0.9 1.1 0.6 1.7 0.8 1.8 0.3 0.9 0.1 2-0.2 3.3 0.3 0.9 0.3 0.5 0.6 0.5 0.9 0.5 1.4 0.6 1 0.5 1.8 1.4 1.5 0.9 1.6 0.8 3 1.3 1.2 0.8 0.7 0.5 1.4 1.3 0.5 0.6 0.4 0.6 0.6 1.4 0.4 0.6 0.6 0.6 1.6 1.3 0.6 0.7 3.2 4.3-0.9 0.7-1.3 1.2-0.8 1.2-0.7 1.4-0.3 0.4-0.4 0.2-0.8 0-1.2-0.6-0.6-0.5-1.3-1.1-0.8-0.3-0.4 0.1-0.6 0.3-0.4 0.8-0.1 1.5-0.4 0.9-0.8 0.8-1.8 1.3-1.3 1.1-0.6 0.8-0.9 1.6-0.6 1.6-0.1 0.7 0.1 0.7 0.1 1 0 0.7-0.1 0.7-0.3 0.7-0.6 0.5-2.1 1.6-2.2 2-0.8 0.6-0.9 0.5-2.8 1.4 0.5 0.7 0.8 1 1.1 0.9 1 0.6 0.5 0.6 0.3 0.5 0.2 1.2 0.1 3.6 0.3 0.9 0.4 0.5 1.3 1.1 1.9 1.3 1.1 0.4 1.5 0.4 1.1 0.5 0.7 0.5 1 0.9 1.1 1.6 0.8 1.3 0.7 1.8 0.6 1.2 1.1 1.8 0.7 1.8 0.5 0.7 1.9 1.9 1.6 1.7z" id="SRB829" name="Moravicki" data-id="SRB829" data-name="Moravicki">
 </path>
 <path d="M842.9 949.8l0.4 4 0.1 1.8-0.3 1-0.7 1.3-0.3 0.7-0.1 0.7 0 0.7 0.2 1.6 0 0.8-0.1 0.7-0.9 2.6-0.4 2.1-0.3 0.5-0.8 0.7-0.6 0.2-2.4 0.8-0.9 0.1-1 0-4.9 0.1-1.9 0.2-1.8 0.4-1.5 0-1.5-0.2-1.4-0.6-0.5-0.2-1.5-1.2-0.6-0.4-1-0.3-2.3-0.4-1.1-0.5-0.7-0.4-2.1-1.7-0.7-0.4-1.1-0.5-0.8-0.1-2.3-0.3-2.5-0.6-2.5-0.4-0.7 0-1 0.3-2.7 1-2.9 0.9 0.6 3.3 0.4 3.9 0.2 0.9 0.9 2.7 0.1 1.4-0.2 1.6 0 0.7 0.2 0.6 0.3 0.6 0.6 0.6 0.9 0.6 1.8 1 0.4 0.5 0.3 0.9 0 1.5 0.1 0.5 0.5 1.2-0.1 0.9-0.5 1.2-0.4 0.6-0.4 0.4-0.8 0.2-1.6-0.1-0.7 0.2-0.8 0.4-0.5 0.5-0.2 0.4-0.4 1.2-0.7 1-1.2 1.3-0.4 0.5-0.2 0.5-0.1 0.6 0.5 2.5 0 0.6-0.3 0.7-1.2 1.9-1.5 3.3-1.4 3.1 5.2 2.3 0.5 0.3 2.1 1.9 2.3 1.4 0.6 0.3 0.7 0.3 2.2 0.4 1 0.5 0.8 0.8 1.7 1.8 1.7 1.6 1.2 1 0.7 0.3 1.1 0.4 1.5 0 0.9 0.3 0.4 0.4 1.4 1.9 0.5 0.6 0.6 0.6 1 0.5 1 0.4 0.9 0.2 0.9 0.1 1-0.1 0.9-0.2 1.6-0.7 1-0.3 0.8 0.2 1.3 0.7 1.5 1.3 0.3 0.3 0.2 0.5 0 0.5-0.5 1.4 0.3 0.7 0.8 0.9 0.5 0.6 3.3 6.7-2.4 1.3-4 2.1-1.2 1-0.7 0.4-1.9 0.8-1.6 0.7-1.4 0.9-0.4 0.4-0.6 1.1-0.7 2.6 0.1 0.5-1.9 2.6-1.6 2-0.6 0.6-1.1 0.5-4 0.7-0.8 0-0.6-0.1-0.7-0.3-1.2-0.7-1.7-0.6-0.8-0.1-0.8 0-1.8 0.4-1.4 0.1-1.4-1.5-2.2-2.9-0.6-0.7-1.3-1.3-1.3-1.1-1.3-0.7-2-0.6-1.1-0.5-0.8-0.6-1.3-1.1-0.5-0.3-1.7-0.8-0.5-0.3-1.2-1-1.5-1-0.6-0.5-2.2-2.4-1.2-1.7-1.2-1.4-1-1.3-0.9-0.9-0.6-0.4-1.7-1-0.6-0.4-0.6-0.6-0.5-0.9-0.6-1.8-0.3-0.4-0.7-0.2-0.6 0.2-1.2 0.9-1 0.2-0.7 0-0.6-0.2-0.6-0.4-1-0.7-0.4-0.4-1-1.5-0.5-0.5-0.9-0.2-0.7 0-1.1 0.4-0.6 0.4-2.7 2.2-0.6 0.4-0.7 0.4-0.9 0.3-0.9 0.2-1.9 0.2-2.7 1.8-7.8-10-2.9 3.2-3.4 1.9-2 1.2-1.6 0.8-1.7 0.6-1.7 0.3-4.6 0-1.9 0.1-4.1 0.4-0.8-0.2-0.7-0.3-0.6-0.3-0.6-0.6-0.4-0.7-0.1-0.7 0.2-0.6 0.3-0.5 0.4-0.3 1.4-0.8 0.7-0.8 0-0.4-0.2-0.8-1.6-2.1-1.9-3-0.6-0.8-2.7-3-0.6-0.7-1-1.7-1.4-1.4-0.3-0.6-0.2-0.6 0-0.7 0.1-0.6 0.5-1 0.9-0.7 1.8-1.3 0.6-0.6 0.6-0.9 0-0.6-0.2-0.6-1.2-1.7-0.5-0.8-0.2-0.9-1.2-4.7-0.7 0.4-0.6 0.2-0.6 0.1-1.1-0.1-2.4-0.6-0.7 0-0.7 0-1.5 0.4-0.6-0.1-0.9-0.4-0.8-0.7-0.7-1.1-0.5-0.6-0.6-0.4-0.7-0.2-0.9 0.1-0.5 0.4-0.8 1-0.2 0.5-0.2 0.8-0.1 0.9-0.2 2.7-0.4 1.8 0 1.5 0.1 0.7 0.5 1.7 0.2 1.1 0 1-0.2 0.4-0.7 0.7-0.6 0.3-0.4 0.1-0.7-0.1-1.1-0.7-2.5-2.2-2.4-1.4-0.8-0.6-0.8-0.9-0.9-0.6-1.6-0.6-3-0.5-0.8 0-0.9-0.2-1.4-0.7-1.2-0.9-0.8-0.9-0.6-1.1-0.3-1-0.1-0.7 0-0.7 0.3-1.2 0.6-1.1 0.5-0.6 1.5-1.3 0.6-0.7 0.2-0.9-0.3-0.6-0.5-0.5-0.8-0.5-0.7-0.3-2.2-0.4-1-0.5-0.4-0.4-0.7-0.9-0.2-0.4-0.5-1.4-0.5-1-1.1-1.2-0.5-1.1-0.3-1.6-0.3-1.1-0.3-0.5-0.9-1.2-0.4-1 0-0.7 0.4-1 1-1.2 0.6-1 0.8-1.6 0.6-1.7 0.2-0.8 0.2-4.4-4 1.5-1.7 0.5-0.8 0.2-1.9 0.1-2.7 0-1.7-0.2-0.8-0.2-1.9-0.9-0.7-0.2-2.5-0.6-1.5-0.2-1.6 0.1-2.4 0.5-0.8-0.1-0.7-0.2-0.5-0.6-1.4-2.2-2.4-3.7 1.1-0.5 1.9-0.7 2.6-0.7 1.1-0.5 1.3-0.9 0.6-0.3 1.6-0.7 0.4-0.3 0.4-0.5 0.2-0.6 0.4-1.4 0.3-0.6 0.3-0.6 2.6-2.1 1.2-0.7 1-0.2 2.1 0.2 1-0.4 0.5-0.5 2.3-3.2 0.3-0.7 0.2-0.7 0.1-0.7 0-1.5-0.2-0.7-0.4-1.1-1.5-1.7-0.6-0.9-0.6-1.1-0.4-1-0.5-2.1-0.2-0.7-1.2-2-0.2-0.6 0-0.6 0.1-0.6 0.9-1.8 0.3-0.9 0-0.7-0.6-3.2 0.1-0.6 0.2-0.6 0.4-0.5 1.3-1.3 0.3-0.4 0.9-1.7 1.3-1.8 0.5-1 0.1-0.7 0.1-0.8-0.1-1.5-0.1-0.7-0.5-1-0.4-0.4-2.2-1.8-1.4-1.8-1.3-1.1-0.5-0.6-0.3-0.7-0.2-0.6 0.1-1.6 0-0.7-0.4-0.9-0.6-0.5-1.3-0.8-0.9-0.6-0.5-0.4-0.5-1-0.2-0.7-0.2-1.3-0.3-1-0.4-0.9-0.6-1.1-1.6-0.4-1-0.6-0.7-0.2-1.1-0.7-3.6-1.1 0-0.3-0.5-1.5-0.2-0.8 0.2-0.5 0.3-0.6 0.4-0.4 2.2-1.7-0.3-3.4 0.5-1.8 0.7-1.2 0.9-0.8 1.2-0.8-1.3-0.5-0.9-0.7-1-0.6-1.9-0.2 1.2-3.7-0.1-3-1-2.5-1.6-2.4-1.4 0 0.4-5.4 0.4-0.9 0.4-0.3 0.9-0.3 0.6 0 1.8 0.6 0.7 0 0.7-0.2 1.2-0.6 1.2-0.9 0.5-0.5 0.5-0.9 0-0.6-0.5-3.2-0.7-2.4-0.3-0.7-0.3-0.5-0.5-0.5-0.7-0.4-0.7-0.2-1.5-0.3-0.7-0.2-1.4-0.8-0.5-0.4-0.5-0.9-0.2-0.9-0.3-1.9-0.2-0.9-0.3-0.9-0.4-0.9-0.6-1 3-2.6 1.5-1.1 0.6-0.4 1.4-0.6 1-0.5 1-0.7 1.3-1 0.5-0.3 2-0.6 1-0.6 2.2-2 0.6-0.5 1.7-0.9 0.6-0.5 0.7-0.7 0.5-0.4 0.5-0.2 1.2-0.2 2.3-0.3 0.7-0.2 2-0.8 0.7-0.2 0.8 0 1.5 0.1 0.7 0.1 2 0.9 0.7 0.2 1.5 0.1 0.8 0 0.7-0.2 2-0.9 2.5-1 1.6-0.8 1.6-1.1 3.9 5.6 0.5 0.7 0.7 0.5 3 1.8 1 0.9 0.7 0.7 1.5 2.1 2.6 3.3-2.3 2.1-0.7 0.4-2 0.5-0.5 0.2-0.7 0.5-0.6 0.8-0.4 1 0 0.9 0.3 0.4 0.8 0.6 1.8 0.8 0.6 0.5 0.6 0.6 1 1.6 1 1.3 0.3 1 0 0.7-0.4 1-0.8 0.8-1.2 0.9-1.1 0.9-0.5 0.4-0.2 0.9 0.2 0.6 0.5 1.9 0.4 2 0.2 5.3 0.1 0.9 0.2 0.8 0.4 0.7 1.7 1.8 0.5 1 0.1 0.7 0.3 2.2 0.3 0.7 0.4 0.8 2.3 2.8 0.5 0.7 0.7 1.3 0.6 0.9 0.5 0.6 2.3 1.6 1.1 1 1 1.1 0.4 0.5 0.8 1.3 0.6 1.2 0.2 0.7 0 0.7-0.2 1.7 0 0.6 0.4 1 0.8 0.7 2.1 1.5 1.2 1.2 0.6 0.5 1 0.5 0.8 0.1 1.5-0.1 1.9-0.4 4.7-0.4 1 0.3 1.7 1.3 1.1 0.7 0.7 0.2 0.7 0.1 1.1-0.2 2.2-0.8 0.4-0.1 0.7 0 1.7 0.4 1 0.5 0.7 0.5 0.5 0.6 0.8 1.6 1.5 4 0.5 2.1 0.9 2.2 0.4 0.5 0.6 0.6 2.9 2.3 0.9 0.8 0.3 0.5 1.4 2.4 0.6 0.9 3.6-0.5 1.5-0.4 1.7-0.7 1.7-1.1 0.7-0.2 1-0.1 0.6 0.2 1.8 1.1 0.5 0.1 1.3 0.2 0.8-0.1 0.7-0.1 0.9-0.4 0.8-0.7 0.3-0.6-0.1-0.7-0.7-0.7-1.7-0.8-1.1-0.9-1.9-2.2-2.5-2.4-0.4-0.4-0.4-0.9-0.1-1.5-0.3-1.4 0-0.6 0.8-2.5 0.2-0.4 0.5-0.4 1-0.4 1.9-0.3 0.8 0.1 0.8 0.2 0.9 0.7 3.7 4-0.1 0.7 0.3 0.8 0.6 0.8 0.6 0.7 1.2 1.1 2.3 1.4 1.2 1.1 1.2 0.9 0.4 0.5 0.2 0.4 0.1 1.6-0.2 0.9-0.6 1.2-0.1 0.6 0.6 0.9 1.3 1.2 1.2 1.3 1.1 1 0.4 0.5 0.2 0.6-0.5 1.2-0.1 0.6 0.2 0.6 0.5 0.8 0.5 0.6 0.7 0.4 1 0.4 0.5 0.1 0.7 0 0.7-0.3 1.6-0.7 0.7-0.2 0.7 0 1.3 0.2 1.9 0.4 0.8 0.2 1.4 0.8 1.8 1.3 1 0.5 2.2 0.7 0.9 0.4 0.9 0.7 2.2 2.2 0.6 0.5 2 1.1 2.5 0.8 3.2 0.8 1.5 0.1 0.7-0.1 3-0.8 0.5-0.2 2.1-1.4 0.5-0.2 1.3-0.2 0.7 0.1 0.7 0.2 2 0.8 2.7 1 0.8 0.5 0.8 0.5 0.8 0.8 0.2 0.6 0.1 0.7 0 1 1.1 0.1 0.9 0.1 0.9 0.3 0.7 0.5 2.6 2.8 0.6 0.3 0.4 0 0.6-0.2 0.8-0.9 1.2-1.8 0.9-1.8 0.9-1.4 0.8-0.6 0.9-0.4 0.7 0.1 0.7 0.3 2 1.3 0.9 0.7 1.6 1.5 1.1 0.5 1.4 0.5 1.1 0.5 0.7 0.4 0.6 0.6 0.6 0.8 0.8 1.5 0.6 1.9 0.2 1.2-0.2 1.1-0.5 1.9-0.2 0.7-0.4 0.7-1.1 1.6-0.4 1.1-0.1 0.7 0.1 0.7 0.2 1.3 0 0.8-0.2 0.7-0.7 1.4-0.2 0.4 0.1 0.6 0.1 0.2z" id="SRB830" name="Nišavski" data-id="SRB830" data-name="Nišavski">
 </path>
 <path d="M552.9 647.4l4.4 8 3.8 1.6 0 2.5-5.1 2.3 0 2.3 1.1 1.7 0.4 0.9-0.3 1.2-1.2 2.9 1.3 1.3 0.5 1.2-5.1 0 5.1 4.8-2.5 0.8-1.2 2.5 0 0.8-1.5-1-1.3-1.3-1.2-0.8-1.3-0.5-0.8-0.1-2.5-0.3-1.3-0.4-0.5-0.3-1.3-1-0.5-0.4-0.6-0.1-0.9 0.1-1.9 0.7-0.6 0.2-0.7 0-1.9-0.3-2.3-0.1-2.5-1.7-5.1-3.3-1.1-0.4-2.4-0.4-0.7-0.2-1.6-0.8-0.9-0.6-1.6-1.6-1.5-1.1-0.5-0.7-0.3-0.7-0.2-0.8-0.3-3.5 0-4.1-4.7 2.3-1.1 0.5-2 0.5-1.9 0.8-0.9 0.2-2.8 0.3-0.9 0.2-1.9 0.8-0.7 0.2-0.7 0-1-0.3-1.3-0.8-0.8-0.4-1.1-0.3-0.7-0.1-0.9 0.1-0.7-0.1-1-0.4-0.4-0.4-1.2-1.1-1.3-1.1-1-0.7-1-0.4-0.8-0.2-0.8 0-0.8 0.1-2.7 0.5-2.9 0.3-0.1-2.1-0.1-0.9-0.5-2.1 0.1-0.7 0.2-0.6 0.4-0.5 1.1-1.2 0.5-0.8 0.1-0.9-0.4-0.8-0.6-0.4-0.7-0.4-1.7-0.8-0.8-0.2-3.6-0.7-4.6-0.4 0-2.5-0.1-1.1-0.2-1.4-0.4-0.9-0.6-1.3-0.2-0.9-0.1-0.9 0.1-1 0.2-0.9 0.2-0.4 0.7-0.9 2.1-2 1.4-1.2 0.5-0.5 0.2-0.9-0.1-0.6-0.4-0.6-0.6-0.4-1-0.4-0.8 0-0.7 0.1-1.9 0.8-0.7 0-1-0.1-0.6-0.5-0.7-0.7-2.5-3.2-1.3-2.1-0.7-1.4-0.4-0.7-0.2-0.7-0.1-1.2 0.1-0.6 0.4-0.8 0.5-0.7 1.2-1.2 2.1-1.7 0.6-0.6 0.4-0.6 0.2-0.9 0.3-2.8 0.2-0.8 0.2-0.7 0.4-0.6 0.4-0.2 2.3-0.8 1.5-0.7 0.9-0.2 1-0.1 0.9 0.1 1 0.2 0.5 0.2 4.4 2.1 0.7 0.2 0.6-0.1 0.4-0.1 0.7-0.4 0.6-0.6 2.9-3.4 0.4-0.7 0.2-0.8 0-0.7 0-0.7-0.1-0.8-0.5-1.1-1.3-1.8-1-2.2-0.5-1.4-0.9-1.6-0.5-0.7-0.6-0.5-2.9-2.2-4-4.8-2.1-1.3-1.9-0.8-1.3-0.4-0.4-0.2-0.5-0.5-0.7-1.6-0.1-0.7-0.1-2.5-0.1-0.6-0.3-0.7-1.6-2.3-3.1-3.6 0.9-0.9 2.4-1.6 0.5-0.4 1.5-1.8 0.7-0.6 0.6-0.4 2.6-1 2-1.1 1.2-0.4 2.3-0.5 1.1-0.4 0.5-0.5 0.4-0.6 0-0.6-0.2-1-1-2.3-0.3-0.7-0.6-0.8-0.6-0.6-1.7-0.8-0.6-0.4-0.6-0.5-0.4-0.6-0.2-0.5 0.3-0.8 0.8-1.1 0.1-0.8-0.1-1-0.4-1.2-0.6-1-1.7-1.9-0.4-0.7-0.2-0.7-0.2-0.8 0-0.8 0.1-1.4 0.4-0.8 0.5-0.8 0.8-1 4-10.8 7.6 1.3 13.7-4 25.6-15 11.4-1.7 0.1 3.6 0.8 3 1.7 1.7 2.6 0.4-0.5 1.5-0.8 4.1-0.5 1.6 2 1.4 3.5 3.6 1.3 1.7-3.1 3.8 5.2 8.2-0.6 6.5 4.9 0 2.9 0.7 1.9 2.1 1.9 4.3 1.7 5.4 0 4.2-1.6 3.4-3.4 3.2 0 2.3 3.8 1.1 1.7 3.9 1.1 3.2 1.8-1.2 1.5 0-0.4 1.5-1.1 5.4 1.9 0.4 0.9 0.7 0.7 0.8 1.3 0.6-1.6 0.6-0.6 0.7-0.7 0.1-1.9-1.4-1.8 6.9 2.4 1.2 2 1.4 1.4 1.8 0.8 2.5-6.8 0.2-3.6 3.2-1.7 4.9-1.1 5.6-1.1 4.1-0.9 2-0.3 1.9 0.7 3.5 1.4 1.9 2 1.2 1.1 2.1-1.2 4.2 3.7 2.3 0.8 2.9-1.9 1.9-4.3-0.4 0 2.5 1.7 0 0 2.1-1.7 0 0 2.3 3.5 1.9z" id="SRB831" name="Podunavski" data-id="SRB831" data-name="Podunavski">
 </path>
 <path d="M717.7 721.8l-1.4 3.7-0.3 1.3 0 1-0.2 0.7-0.3 0.6-0.6 0.6-0.5 0.5-0.7 0.5-1.1 0.4-1.2 0.3-0.4 0.2-0.4 0.5-0.3 1-0.2 2.8-0.1 0.9-0.1 0.7-0.3 0.6-0.3 0.3-1 0.8-0.6 0.5-0.4 0.7-0.2 0.7-0.2 1.4-0.1 4-0.4 0.2-0.2 0.6 0.1 0.7 1 2 0.4 1.2 0.1 1.2-0.4 1.1-0.5 0.6-0.5 0.6-2.8 2-1.2 1.4-1.4 1.2-0.5 0.6-0.4 0.9-0.2 1.6-0.2 0.8-0.4 0.8-0.5 0.8-0.6 0.7-2.6 2.8-0.2 0.1-0.3 0.6 0 0.8 0.2 0.7 1.2 1.8 0.2 0.5 0 0.6-0.1 0.5-0.3 0.7-1.2 1.6-1 0.7-0.4 0.1-2.1 0.1-1.7 0.6-1.8 1-2.4 0.9-1.1 0.6-0.9 0.6-0.4 0.4-0.5 0.9-0.8 1.8-0.2 0.9-0.1 1.8 0.1 0.9 0.2 0.8 0.4 0.8 0.4 0.5 2.6 2.5 1.1 1.4 0.3 0.7 0 0.6-0.3 0.5-0.5 0.6-1.3 1.2-0.4 0.5-0.3 0.6-0.2 0.6-0.1 1.6-0.3 1-3.3 4-2.3 2-0.5 0.5-0.7 0.9-0.3 0.9-1.6 1.1-1.6 0.8-2.5 1-2 0.9-0.7 0.2-0.8 0-1.5-0.1-0.7-0.2-2-0.9-0.7-0.1-1.5-0.1-0.8 0-0.7 0.2-2 0.8-0.7 0.2-2.3 0.3-1.2 0.2-0.5 0.2-0.5 0.4-0.7 0.7-0.6 0.5-1.7 0.9-0.6 0.5-2.2 2-1 0.6-2 0.6-0.5 0.3-1.3 1-1 0.7-1 0.5-1.4 0.6-0.6 0.4-1.5 1.1-3 2.6-0.9 1.5-0.5 0.6-0.5 0.5-0.5 0.2-0.5 0.1-1.5-0.1-0.8 0.4-1.7 1.4-1.7 0.6-2.2 1.1-0.8 0.5-1.6 1.3-0.8 0.4-1.9 0.4-3.9-0.3-1.4-1.7-2.7-12 1.8-2.1-5.7-0.2-0.3 0.4-1.2-0.4-0.8-0.2-0.8 0-0.9 0.1-3.4 0.7-4.4 1.8-3 0.6-1.4 0.5-0.7 0-1.2-0.3-1.5-0.7-1.2-0.8-0.5-0.6-0.4-0.9-0.1-0.7 0.3-1 0.9-1.2 0.5-1.1 0.1-0.7 0-0.7-0.3-1.3 0-0.7 0.2-0.7 1-2.2 0.6-1.6 0.2-0.8 0-1.5-0.3-1.7 0-0.7 0.2-1.1 0.8-1.5-0.1-0.7-0.5-1-0.6-0.6-0.9-0.6-2-1.3-0.6 4-0.3 0.8-0.4 0.2-3.2 1.8 1.3 3.8 0.2 0.9 0.1 1.9 0 1.9-0.1 0.8-0.2 0.9-1 2.6-0.1 0.8-0.3 2.2-0.2 0.7-0.5 0.7-0.6 0.5-1.5 0.8-0.5 0.2-1.9 0.5-0.5 0.1-0.6 0.5-1.3 1.7-1.1 1.1-0.6 0.5-3 2-2 1.9-0.5 0.4-0.6 0.2-0.8 0-0.7-0.2-1-0.5-1.8-1.7-0.6-0.4-0.8-0.3-2.3-0.5-0.8 0.2-0.4 0.4-0.2 0.6-0.1 0.7 0.2 1.6-0.1 0.6-0.6 1.5-0.2 1.1 0 1.5 0.3 1.7 0.1 1.8 0.1 1 0.6 1.9 2 6-2.3-1.3-3.2-1.7-1-0.6-0.9-0.7-1.2-1.3-0.6-0.4-2.3-1.3-1.4-1.1-1-0.4-0.7 0-1.9 0.3-0.9 0-1.9 0-0.9-0.1-1.1-0.3-2.1-1.4-0.5-0.2-1.4-0.3-3.7-0.1-0.9-0.1-0.8-0.2-2-0.9-0.9-0.2-1.8-0.4-0.9-0.3-1.3-0.6-1-0.2-0.6 0.1-1.2 0.6-1 0.8-0.6 0.2-0.7-0.1-1.4-0.5-1.4-0.6-0.6-0.4-3.4-4-1.1-1.7-0.6-0.9-0.6-0.5-1.3-1-0.8-0.9-0.3-1-0.1-0.9-0.2-2.7-0.2-1.8-0.4-1-1-1.4-0.4-1-0.4-1.5-0.5-2-0.2-0.7-0.2-3.5 1.2 0 2 0.2 0.9 0.1 1.7 0.6 0.7 0 0.6-0.2 0.5-0.6 0.2-0.5 0.6-1.9 0.4-1.2 0.6-1 0.8-0.8 1.3-1 2.3-1.4 1.1-0.5 2.2-0.2 0.7-0.3 2.2-1.2 1.3-1.1 0.8-0.8 1-1.5 0.7-0.8 0.5-0.5 0.8-0.7 0.5-0.5 0.3-1 0.2-0.8-0.1-1.8-0.1-0.9-0.2-0.9-1.6-2.4-0.9-1.3-0.5-0.9-0.7-2.5 0.1-0.6 0.2-0.7 0.5-0.6 0.9-0.9 0.7-0.5 1.8-0.9 1.4-0.9 1.2-0.3 1.4 0 1.1 0.3 1.3 0.6 0.3-1.8 0.1-1.4-0.1-0.9-1-3.5 0.1-0.9 0.4-0.4 1.6-0.7 0.6-0.3 1.6-1.2 0.4-0.4 0.5-1 0-0.7 0-0.7-0.4-1-1.2-1.8-0.5-1.3-0.4-0.7-0.4-0.5-1.8-1.9-0.5-1 0-0.7 0-0.7 0.3-0.7 0.5-0.6 0.6-0.4 1.2-0.6 0.4-0.2 2.1-2.2 0.6-0.5 1-0.4 1.2 0.1 2 0.1 0.7-0.1 1-0.3 0.4-0.2 0.4-0.5 0.4-0.6 0.4-1 0.2-1.4-0.1-1.7 0.1-0.6 0.2-0.7 0.9-1.3 0.3-0.7 0.2-0.7 0-1.5-0.2-0.7-0.3-0.7-2.9-3.3-0.5-0.5-1-0.5-6.9-1.7 3.4-3.2 3.3-2.5 1.1-0.6 1-0.4 2.2-0.6 2.5-0.8 0.9-0.5 0.7-0.5 0.5-0.5 1.2-1.5 2.1-1.9 0.8-1 0.4-1.2 0.4-3.4-3.2-3.9-0.3-0.5-0.3-0.7-0.1-0.9 0.1-0.8 0.3-0.7 0.9-2.1 0.2-0.5 0-0.8 3.4-6.1-0.7-2.8-0.5-4.3 0.2-2.9 0-0.8 1.2-2.5 2.5-0.8-5.1-4.8 5.1 0-0.5-1.2-1.3-1.3 1.2-2.9 0.3-1.2-0.4-0.9-1.1-1.7 0-2.3 5.1-2.3 0-2.5-3.8-1.6-4.4-8 3.2-0.6 1.2 0 0.9 0.1 0.8 0.3 0.7 0.4 1 0.9 0.4 0.4 0.7 0.2 0.7 0.2 2.4 0.3 0.7 0.2 0.7 0.3 2.3 1.5 2.8 2.1 0.3 0.3 0.3 0.6 0.4 2.1 0.3 0.7 0.3 0.7 1 1.4 1 1 0.4 0.4 1 0.5 0.8 0.1 2.4 0.3 1.3 0.4 0.6 0.2 1.9 1 0.7 0.3 0.4 0 0.7-0.4 1.9-2.2 0.7-1 0.4-0.9 0.7-2.7 0.4-0.9 0.7-1.6 1.1-2.9 5.4 4.6 2.6 2 0.6 0.6 0.5 0.7 0.6 1.1 0.4 1 0.1 0.7-0.1 0.7-0.1 1 0 0.7 0.1 0.7 0.3 0.7 1.3 2 0.8 1.6 0.5 0.5 0.9 0.5 0.7 0.2 2 0.3 0.5 0.2 0.6 0.4 0.3 0.5 0.2 0.5 0.1 0.7-0.1 0.7-0.8 1.9-0.8 2.2-0.4 0.7-1.2 1.7-0.2 0.5 0.1 0.6 0.4 0.8 0.3 0.4 0.9 0.5 0.5 0.2 0.7 0.1 0.8 0 2-0.3 0.9 0 3 0 0.2-0.2 0.4-0.5 0.6-1.2 0.9-1.1 0.6-0.5 1.2-0.5 1-0.2 4.8-0.4 0.7 0 0.4 0.2 1 0.5 1.1 0.8 1.5 1.9 0.6 0.5 1.7 1.1 0.5 0.2 1.2 0.2 1.3-0.2 1.5-0.3 1.5-0.6 1.2 1.5 1.7 2.3 3.3 3 1.8 1.4 0.9 0.8 1 1.5 0.7 0.8 0.6 0.5 1.5 0.8 0.8 0.6 0.4 0.6 0.2 0.5 0.4 1.9 0.7 2.2 0.3 1.1 0.6 1 0.8 0.5 1.2 0.4 1.9 0.3 2.5 1.2 0.7 0.3 0.6 0.1 1-0.2 1.3-0.6 0.9-0.2 1-0.1 0.9 0.2 2.7 0.8 0.8 0.2 1.5-0.1 1.7-0.2 0.8 0 1.2 0.2 1.2 0.4 1.1 0.5 0.8 0.5 2.7 2.1 0.4 0.5 0.3 0.6 0.5 2.5 0.7 1 0.6 0.4 0.4 0.3 1.9 0.6 1.4 0.6 1 0.1 1.2-0.1 0.7-0.3 1.4-0.7 1.8-1.3 1-0.4 0.7 0 2.5 0.3 1.1 0.4 0.5 0.2 0.5 0.5 1.2 1.7 1.5 1.8 1.3 0.8 1.6 0.8 1.1 0.3 1.2 0 0.7-0.2 2.8-1.3 0.7-0.1 0.8 0.2 2.5 1.8 2.1 1.3z" id="SRB832" name="Pomoravski" data-id="SRB832" data-name="Pomoravski">
 </path>
 <path d="M632.9 827.6l0.6 1 0.4 0.9 0.3 0.9 0.2 0.9 0.3 1.9 0.2 0.9 0.5 0.9 0.5 0.4 1.4 0.8 0.7 0.2 1.5 0.3 0.7 0.2 0.7 0.4 0.5 0.5 0.3 0.5 0.3 0.7 0.7 2.4 0.5 3.2 0 0.6-0.5 0.9-0.5 0.5-1.2 0.9-1.2 0.6-0.7 0.2-0.7 0-1.8-0.6-0.6 0-0.9 0.3-0.4 0.3-0.4 0.9-0.4 5.4 1.4 0 1.6 2.4 1 2.5 0.1 3-1.2 3.7 1.9 0.2 1 0.6 0.9 0.7 1.3 0.5-1.2 0.8-0.9 0.8-0.7 1.2-0.5 1.8 0.3 3.4-2.2 1.7-0.4 0.4-0.3 0.6-0.2 0.5 0.2 0.8 0.5 1.5 0 0.3 3.6 1.1 1.1 0.7 0.7 0.2 1 0.6 1.6 0.4 0.6 1.1 0.4 0.9 0.3 1 0.2 1.3 0.2 0.7 0.5 1 0.5 0.4 0.9 0.6 1.3 0.8 0.6 0.5 0.4 0.9 0 0.7-0.1 1.6 0.2 0.6 0.3 0.7 0.5 0.6 1.3 1.1 1.4 1.8 2.2 1.8 0.4 0.4 0.5 1 0.1 0.7 0.1 1.5-0.1 0.8-0.1 0.7-0.5 1-1.3 1.8-0.9 1.7-0.3 0.4-1.3 1.3-0.4 0.5-0.2 0.6-0.1 0.6 0.6 3.2 0 0.7-0.3 0.9-0.9 1.8-0.1 0.6 0 0.6 0.2 0.6 1.2 2 0.2 0.7 0.5 2.1 0.4 1 0.6 1.1 0.6 0.9 1.5 1.7 0.4 1.1 0.2 0.7 0 1.5-0.1 0.7-0.2 0.7-0.3 0.7-2.3 3.2-0.5 0.5-1 0.4-2.1-0.2-1 0.2-1.2 0.7-2.6 2.1-0.3 0.6-0.3 0.6-0.4 1.4-0.2 0.6-0.4 0.5-0.4 0.3-1.6 0.7-0.6 0.3-1.3 0.9-1.1 0.5-2.6 0.7-1.9 0.7-1.1 0.5-1.4 0.4-0.8 0.1-1.7 0-1.4-0.2-1.8-0.6-1.4-0.7-0.8-0.5-0.5-0.6-0.9-1.9-0.4-0.7-0.7-0.4-1.1-0.5-0.8 0-0.8 0-0.7 0.2-0.5 0.4 0 0.7-1.2 0-2 0.2-1.5 0.3-1.4 0.4-0.6 0.2-0.6-0.1-1-0.3-1.8-1.1-1.2-0.5-3.1-0.9-1.2-0.2-0.6 0.2-1.9 1-0.9 0.4-0.9 0.2-0.8 0.1-3.6 0.2-1.4 0.4-1.2 0.4-0.9 0.5-4.9 3-4.5 2.4-1 0.3-2.5 0.2-3.4 0.9-2 0.7-0.4 0.7-0.6 0.5-1 0.6-0.7 0.6-0.5 0.7-0.4 0.7-0.2 1.1 0.1 0.7 0.6 1.9 0.1 0.6-0.3 1.7-0.5 1.3-0.3 0.6-0.5 0.4-0.6 0.4-1.6 1-1.6 1.5-2.3 1.6-0.8 0.8-0.5 1-0.5 2.1-0.3 0.7-0.3 0.6-1.3 1.7-0.2 0.4-0.2 1 0 1.9-0.2 1.4-0.3 0.5-0.4 0.3-1.2 0.6-0.6 0.5-0.4 0.6-0.7 1.4-0.4 0.7-0.6 0.6-0.3 0.2-1.9 0.8-1.4 0.8-1.1 0.7-1.4 1.1-1.1 0.6-1.6 0.7-1.8 0.7-0.9 0.2-0.9 0-1.9-0.1-0.8-0.2-0.7-0.3-1.6-0.9-0.8-0.8-0.6-1.4-0.6-0.8-1.8-0.9-1.5-0.9-0.4-0.1-0.5 0-0.4 0.1-1.9 1.2-1.8 0.7-1.2 0.3-0.8 0-1.8-0.6-1.1-0.5-1.8-1.1-0.4-0.1-0.7 0-1.1 0.4-2 0.5-0.9 0.4-0.4 0.5-0.2 0.6 0.1 0.8 0.3 1.2 0 0.6-0.3 0.7-1.3 2-2.2 2.3-0.5 1-0.2 0.9-0.1 1.7 0.1 1.8 0.6 2.8 0.3 3.9 0.1 1 0.2 0.8 0.5 1.1 0 1-0.1 0.4-1.9 2.2-1 0.7-1.7 0.7-0.8 0.6-0.5 0.6-1.1 1.9-1.4 1.7-1.2 2.6-0.6 1-17.9-10.4-1.5-2.7 0.9-0.3 0.7-4.3 0.4-4.8-0.1-1.7 2.7-2.6 2.5 0.8 0.7 0.1-2.3-4.7-1.6-2.2-2.4-2.6-4.6-3.8-2.3-0.7 0-1.6-0.4-2.5 0-0.7 0.3-2.4-0.2-1.4-0.8-2.6-0.1-0.7 0.1-0.6 0.5-1.4 0.3-0.3 0.6-0.5 0.8-0.6 0.6-0.5 0.6-0.9 0.5-1.3 0.6-1 1.7-1.7 0.5-0.6 0.8-1.5 0.4-1.2 0-0.6-0.2-0.3-0.9-1.2-0.4-0.8-0.2-0.8-0.5-3.2 0.1-1.1 0.6-1.2 0.2-1-0.5-2.9-0.4-3.9-2-0.6-0.6-0.2-0.8 0-1.3 0.3-1.9 0.9-0.8 0.2-1.1 0-0.6-0.3-2-1-1.9-0.9-0.4-0.2-0.5-0.6-0.3-0.6-0.7-1.9-0.2-0.5-1-1.2-0.2-0.7 0.1-0.6 0.4-0.5 1.4-1.5 0.4-0.9 0.1-0.7-0.3-1.4 0-0.8 0.4-1.6 0.7-2.9 0.5-3 0.2-0.8 1.1-2.2 0.1-0.6-0.1-0.6-1.3-2-0.2-0.6 0.2-1 0.7-1.2 0.4-1 0-0.7-0.1-0.6-0.4-0.8-1.5-2.1-0.5-0.7-1.2-3.3-0.8-1.6-0.5-0.9 1.9-0.8 1-0.3 1.1 0 0.9 0.5 1.5 1.6 0.9 0.6 0.9 0.1 2.8-0.3 1.3-0.3 0.4-0.2 0.7-0.5 1.5-1.8 0.6-0.4 0.5-0.3 1 0 0.6 0.3 0.7 0.5 2.5 2.5 1 1.6 0.5 0.6 0.4 0.3 1.3 0.8 1.7 0.6 0.8 0.2 1.8 0.1 2.7 0 1.7-0.1 0.8-0.1 2.7-0.9 1.9-0.1 0.8-0.2 2.5-1.4 3.1-1.5-3.6-4.4-0.5-0.8-0.7-1.9-1.2-1.7-0.3-1 0.1-1.6-0.1-1.4-0.7-3.2-0.3-0.7-0.3-0.7-0.9-1.3-0.4-0.7-0.3-0.9-0.1-0.9 0-0.9 0.1-0.9 0.3-1.3 0.8-1.6 0.9-1.5 1-1 0.6-0.5 3-1.7 0.6-0.5 1.6-1.6 1.2-1.1 0.5-0.6 0.2-0.6 0-0.6-0.3-0.6-0.4-0.6-2.1-1.9-0.6-0.5-0.5-0.2-1.9-0.6-1-0.5-0.4-0.4-0.3-0.5-0.3-1.4-0.3-0.7-0.4-0.5-0.5-0.5-1-0.3-1.7 0-0.8-0.1-5.1-1.2 1-1.6 1-2 0.7-0.9 1.3-1.2 1.3-1.1 1.3-1.2 2.2-1.5 0.3-0.3 0.3-0.5 0-0.6-0.1-0.6-0.5-1.2-0.3-0.8-0.1-1.7-0.1-1.8 0.2-1.8 0.2-0.8 0.3-0.7 0.9-1.5 0.4-0.8 0.1-0.7-0.1-0.8-0.2-0.7-0.9-1.5-0.1-0.4 0.1-0.8 0.4-0.1 1.2 0.1 0.8 0.7 0.8 0.1 0.9 0.2 0.6-0.2 0.8-0.9 0.3-0.2 0.7 0 3.3-0.1 0.6 0.4 1.4 0.6 1.4 0.5 0.7 0.1 0.6-0.2 1-0.8 1.2-0.6 0.6-0.1 1 0.2 1.3 0.6 0.9 0.3 1.8 0.4 0.9 0.2 2 0.9 0.8 0.2 0.9 0.1 3.7 0.1 1.4 0.3 0.5 0.2 2.1 1.4 1.1 0.3 0.9 0.1 1.9 0 0.9 0 1.9-0.3 0.7 0 1 0.4 1.4 1.1 2.3 1.3 0.6 0.4 1.2 1.3 0.9 0.7 1 0.6 3.2 1.7 2.3 1.3-2-6-0.6-1.9-0.1-1-0.1-1.8-0.3-1.7 0-1.5 0.2-1.1 0.6-1.5 0.1-0.6-0.2-1.6 0.1-0.7 0.2-0.6 0.4-0.4 0.8-0.2 2.3 0.5 0.8 0.3 0.6 0.4 1.8 1.7 1 0.5 0.7 0.2 0.8 0 0.6-0.2 0.5-0.4 2-1.9 3-2 0.6-0.5 1.1-1.1 1.3-1.7 0.6-0.5 0.5-0.1 1.9-0.5 0.5-0.2 1.5-0.8 0.6-0.5 0.5-0.7 0.2-0.7 0.3-2.2 0.1-0.8 1-2.6 0.2-0.9 0.1-0.8 0-1.9-0.1-1.9-0.2-0.9-1.3-3.8 3.2-1.8 0.4-0.2 0.3-0.8 0.6-4 2 1.3 0.9 0.6 0.6 0.6 0.5 1 0.1 0.7-0.8 1.5-0.2 1.1 0 0.7 0.3 1.7 0 1.5-0.2 0.8-0.6 1.6-1 2.2-0.2 0.7 0 0.7 0.3 1.3 0 0.7-0.1 0.7-0.5 1.1-0.9 1.2-0.3 1 0.1 0.7 0.4 0.9 0.5 0.6 1.2 0.8 1.5 0.7 1.2 0.3 0.7 0 1.4-0.5 3-0.6 4.4-1.8 3.4-0.7 0.9-0.1 0.8 0 0.8 0.2 1.2 0.4 0.3-0.4 5.7 0.2-1.8 2.1 2.7 12 1.4 1.7 3.9 0.3 1.9-0.4 0.8-0.4 1.6-1.3 0.8-0.5 2.2-1.1 1.7-0.6 1.7-1.4 0.8-0.4 1.5 0.1 0.5-0.1 0.5-0.2 0.5-0.5 0.5-0.6 0.9-1.5z" id="SRB833" name="Pomoravski" data-id="SRB833" data-name="Pomoravski">
 </path>
 <path d="M498.5 808.2l0.2 3.5 0.2 0.7 0.5 2 0.4 1.5 0.4 1 1 1.4 0.4 1 0.2 1.8 0.2 2.7 0.1 0.9 0.3 1 0.8 0.9 1.3 1 0.6 0.5 0.6 0.9 1.1 1.7 3.4 4-3.3 0.1-0.7 0-0.3 0.2-0.8 0.9-0.6 0.2-0.9-0.2-0.8-0.1-0.8-0.7-1.2-0.1-0.4 0.1-0.1 0.8 0.1 0.4 0.9 1.5 0.2 0.7 0.1 0.8-0.1 0.7-0.4 0.8-0.9 1.5-0.3 0.7-0.2 0.8-0.2 1.8 0.1 1.8 0.1 1.7 0.3 0.8 0.5 1.2 0.1 0.6 0 0.6-0.3 0.5-0.3 0.3-2.2 1.5-1.3 1.2-1.3 1.1-1.3 1.2-0.7 0.9-1 2-1 1.6 5.1 1.2 0.8 0.1 1.7 0 1 0.3 0.5 0.5 0.4 0.5 0.3 0.7 0.3 1.4 0.3 0.5 0.4 0.4 1 0.5 1.9 0.6 0.5 0.2 0.6 0.5 2.1 1.9 0.4 0.6 0.3 0.6 0 0.6-0.2 0.6-0.5 0.6-1.2 1.1-1.6 1.6-0.6 0.5-3 1.7-0.6 0.5-1 1-0.9 1.5-0.8 1.6-0.3 1.3-0.1 0.9 0 0.9 0.1 0.9 0.3 0.9 0.4 0.7 0.9 1.3 0.3 0.7 0.3 0.7 0.7 3.2 0.1 1.4-0.1 1.6 0.3 1 1.2 1.7 0.7 1.9 0.5 0.8 3.6 4.4-3.1 1.5-2.5 1.4-0.8 0.2-1.9 0.1-2.7 0.9-0.8 0.1-1.7 0.1-2.7 0-1.8-0.1-0.8-0.2-1.7-0.6-1.3-0.8-0.4-0.3-0.5-0.6-1-1.6-2.5-2.5-0.7-0.5-0.6-0.3-1 0-0.5 0.3-0.6 0.4-1.5 1.8-0.7 0.5-0.4 0.2-1.3 0.3-2.8 0.3-0.9-0.1-0.9-0.6-1.5-1.6-0.9-0.5-1.1 0-1 0.3-1.9 0.8 0.5 0.9 0.8 1.6 1.2 3.3 0.5 0.7 1.5 2.1 0.4 0.8 0.1 0.6 0 0.7-0.4 1-0.7 1.2-0.2 1 0.2 0.6 1.3 2 0.1 0.6-0.1 0.6-1.1 2.2-0.2 0.8-0.5 3-0.7 2.9-0.4 1.6 0 0.8 0.3 1.4-0.1 0.7-0.4 0.9-1.4 1.5-0.4 0.5-0.1 0.6 0.2 0.7 1 1.2 0.2 0.5 0.7 1.9 0.3 0.6 0.5 0.6 0.4 0.2 1.9 0.9 2 1 0.6 0.3 1.1 0 0.8-0.2 1.9-0.9 1.3-0.3 0.8 0 0.6 0.2 2 0.6 0.4 3.9 0.5 2.9-0.2 1-0.6 1.2-0.1 1.1 0.5 3.2 0.2 0.8 0.4 0.8 0.9 1.2 0.2 0.3 0 0.6-0.4 1.2-0.8 1.5-0.5 0.6-1.7 1.7-0.6 1-0.5 1.3-0.6 0.9-0.6 0.5-0.8 0.6-0.6 0.5-0.3 0.3-0.5 1.4-0.1 0.6 0.1 0.7 0.8 2.6 0.2 1.4-0.3 2.4 0 0.7 0.4 2.5 0 1.6-3.7-1.2-6 0.7-5.9 2.7-18.8 14.3-5.4 2.1-7.8 0.3-2 1.5-1.6 4.3 0.6 3.6 2.9 6.3 2.1 7.1 1.3 3.2 1.4 2.1 2.2 0.7 2.6-0.3 2.4 0.1 1.8 2-1 8.1-5.1 10.9-6.4 10-5.1 4.9-2.9 0.1-2.7-0.8-2.6-0.1-2.1 2.3-2.3 5.1-1.3 2.1-2 1.8-4.6 1.7-4.3 0-4.1 1.2-4.1 5.4-2 9.2 3.8 4.2 5.3 3.4 2.4 7-5.4 7.3-11.6 4.9-20 4.4 2.4-12.8-0.4-8.1-4-5.3-14.8-7.5-12.6-9.2-6.9-3-13-1.3-5.7-2-15.1-15 0.9-1.1 0.5-0.7 0.2-0.9 0.3-2.6 0.2-0.9 1.4-3.9 0.5-1 1-1.3 0.3-0.4 0.9-2.4 0.9-1.7 1.6-2.3 1.2-1.7 0.6-0.6 1.1-0.7 2-0.9 1.5-0.8 0.8-0.3 1.1-0.3 0.7 0.1 1.4 0.3 0.7 0 0.9-0.4 0.4-0.3 0.4-0.9 0.1-0.7 0-0.7-0.2-0.7-0.8-1.4-0.3-0.8 0-0.6 0.3-0.6 0.9-1.1 1.8-1.5 0.4-0.5 0.8-1.3 2.3-3 0.5-0.4 0.9-0.2 2.7 0.3 2.9 0.1 2.9 0 1 0 0.9-0.2 1-0.4 1.3-1 0.5-0.2 2.4-1.1 1.9-1.1 0.5-0.2 1.4-0.3 3.2-0.4 4.1-0.8-0.9-1-1.1-1.7-0.6-1.3-0.5-0.8-0.5-0.5-0.7-0.3-1.3-0.6-0.7-0.4-1.8-1.6-1.1-0.5-1.4-0.5-1.1-0.4-0.6-0.5-0.4-0.6-0.8-2-0.6-0.8-0.6-0.6-1.2-0.7-1.7-0.7-0.4-0.3-0.4-0.5-0.3-0.6-0.7-2.8-0.1-0.6 0.2-0.9 0.7-0.8 1.6-1.2 1.6-1.1 2.3-1.7 0.8-0.7 0.4-0.5 0.3-0.9 0.2-3.2 0.1-0.9 1-2.6 0.6-2 0.9-2 0.8-2 2.7-3.7 1.7-2.3 2.5 3.1 1 1.6 0.8 1.8 0.5 0.6 1.4 1.1 1.2 1.2 0.6 0.5 0.5 0.4 1.9 0.8 0.7 0.3 0.7 0.7 0.6 0.5 1.1 0.2 0.7-0.1 0.5-0.2 1.3-4.9 0.2-2.3 0.3-0.7 0.7-0.6 1.5-1 1.3-1 2.2-1.1 0.4-0.3 1.2-1.2 0.7-0.9 1.1-2.1 1.3-1.8 0.9-2.5 0.4-0.6 0.9-1 1.1-0.8 0.6-0.2 0.5-0.1 2.1 0 0.8-0.3 0.9-0.7 0.2-0.7 0-1.2 0.2-1 0.7-0.9 0.6-0.7 0.4-0.6-0.2-0.8-0.5-0.6-1.1-1.1-0.9-1.1-0.2-0.5-0.2-0.7 0.1-1.2 0.6-2 0.2-1.3-0.4-0.2-1.7-0.6-0.5-0.3-0.5-0.5-0.4-0.6-0.4-0.9 0.1-0.6 0.3-0.7 1.4-2 0.4-0.7 0.1-0.7-0.1-0.6-0.3-0.7-1-1.2-0.5-0.8-0.2-0.7-0.1-1.4-0.4-1.1-0.1-0.9 0.3-0.7 0.7-1.5 0.2-0.8 0.3-1.9 0.4-1.9 0.2-0.9 0-1-0.1-0.9-0.3-0.8-0.3-0.6-0.4-0.6-1.5-1.2-0.5-0.6-0.4-0.6-0.3-0.7-0.5-1.3-0.5-1.1-3.2-3.9-1.9-1.7-0.5-0.6-0.6-0.9-0.7-1.2-0.6-0.8-0.6-0.5-0.4-0.2-1.2-0.3-0.7-0.4-0.6-0.5-2.7-2.7-1.9-1.6-0.4-0.5-1-1.7-1.3-1.3-0.4-0.5-0.1-0.4 0.1-0.5 0.9-0.7 1.4-0.8 2.3-1.2 4.5-2.7 1.3-1 0.9-1.1 0.4-0.6 0.7-2.1 2.1-3.6 0.3-0.6 0.1-0.7 0-0.7-0.3-2 0-1 0.1-1 0.3-1.8 0.3-1.1 0.3-0.1 0.4-0.6 0.2-0.5 0.1-0.6-0.2-0.6-0.4-0.6-0.7-0.7-0.4-0.6-0.7-1.1-1.4-2.8-0.1-0.7 0.3-0.6 0.5-0.5 1.4-0.8 2.6-1.4 1-0.8 1-0.9 0.6-0.5 1-0.4 0.7-0.1 0.7 0.1 2 0.8 0.9 0.1 0.8-0.1 0.9-0.3 0.8-0.5 0.4-0.3 1.1-1.4 0.5-0.4 0.8-0.1 0.6 0.3 0.6 0.5 1.1 1.3 0.4 0.4 1.2 0.6 0.9 0.2 0.9-0.1 0.6-0.4 0.5-0.4 0.3-0.5 0.9-2.4 0.2-1.4 0.1-1.3-0.1-0.7-1.2-3.3-0.3-1.4-0.1-0.9 0.1-1.8 0.3-1.9 0-0.7-0.2-0.7-0.3-0.6-0.5-0.5-0.6-0.5-4.3-2.3 0.5-0.9 0.9-2.9 0.3-0.5 0.6-1 0.4-0.4 1-0.6 1.7-0.7 2.3-0.4 1.3-0.3 0.5-0.3 1.8-1.3 1-0.4 0.4-0.2 1.2 0.1 2.1 0.6 0.6 0 1-0.3 1.2-0.5 1-0.5 1.2-0.9 0.6-0.5 0.8-1.1 0.2-0.6 0.1-0.6-0.5-1.6-1.2-2.5-0.2-1.1 0.3-1 1-1.4 0.1-0.4 0.4-1.3 0.2-0.4 0.5-0.6 0.8-0.5 1.3-0.6 1-0.5 3.7-3.5 0.6-0.9 0.1-0.5 0.1-0.7-0.2-0.6-0.3-0.7-0.9-1.3-0.3-0.7-0.1-0.6 0.1-0.7 0.3-0.5 0.4-0.3 2.1-1.6 0.5-0.6 0.5-0.9 0.5-0.6 1.4-1.1 1-1 2-2.4 0.7-0.6 5.8-4.1 1.4 1.6 1.6 2.3 0.8 0.9 1.3 1.1 3.1 2 0.6 0.5 0.5 0.6 0.5 0.9 0.2 0.6-0.1 1.6 0 0.7 0.4 1 1.2 1.3 0.9 1.1 1 2 2.2 3.7 0.7 1.2 0.9 1 0.6 0.4 1.7 1 0.7 0.4 1.3 1.1 0.7 0.5 1.2 0.4 0.9 0.1 0.9 0.1 1.9 0 0.9-0.1 0.9-0.3 1.2-0.6 3.6-2.3 1.6-0.8 0.7-0.6 0.2-0.9-0.3-2.3 0.1-2.4-0.2-0.7-0.3-0.4-1.7-1.6-0.4-0.7-0.1-0.6 0.1-0.7 0.3-0.6 0.6-0.4 0.5-0.3 2.7-0.8 0.6-0.3 1.9-1 1.2-0.4 0.9-0.1 1-0.1 1.9 0.1 2.7 0.6 3.5 0.5 0.9 0 0.4-0.2 0.5-0.4 1.4-1.8 0.9-0.8 0.9-0.6 0.5-0.1 0.6-0.1 1.1 0.3 0.6 0.5 0.5 0.6 0.6 1.1 0.3 0.4 0.6 0.5 1.3 0.4 3.6 0.8 0.2 0.6 0.5 0.6 0.5 1.1 0 1 0.2 0.6 0.3 0.3 0.7 0.5 0.4 0.5 0.7 1.2z" id="SRB834" name="Raški" data-id="SRB834" data-name="Raški">
 </path>
 <path d="M633.7 954.6l2.4 3.7 1.4 2.2 0.5 0.6 0.7 0.2 0.8 0.1 2.4-0.5 1.6-0.1 1.5 0.2 2.5 0.6 0.7 0.2 1.9 0.9 0.8 0.2 1.7 0.2 2.7 0 1.9-0.1 0.8-0.2 1.7-0.5 4-1.5-0.2 4.4-0.2 0.8-0.6 1.7-0.8 1.6-0.6 1-1 1.2-0.4 1 0 0.7 0.4 1 0.9 1.2 0.3 0.5 0.3 1.1 0.3 1.6 0.5 1.1 1.1 1.2 0.5 1 0.5 1.4 0.2 0.4 0.7 0.9 0.4 0.4 1 0.5 2.2 0.4 0.7 0.3 0.8 0.5 0.5 0.5 0.3 0.6-0.2 0.9-0.6 0.7-1.5 1.3-0.5 0.6-0.6 1.1-0.3 1.2 0 0.7 0.1 0.7 0.3 1 0.6 1.1 0.8 0.9 1.2 0.9 1.4 0.7 0.9 0.2 0.8 0 3 0.5 1.6 0.6 0.9 0.6 0.8 0.9 0.8 0.6 2.4 1.4 2.5 2.2 1.1 0.7 0.7 0.1 0.4-0.1 0.6-0.3 0.7-0.7 0.2-0.4 0-1-0.2-1.1-0.5-1.7-0.1-0.7 0-1.5 0.4-1.8 0.2-2.7 0.1-0.9 0.2-0.8 0.2-0.5 0.8-1 0.5-0.4 0.9-0.1 0.7 0.2 0.6 0.4 0.5 0.6 0.7 1.1 0.8 0.7 0.9 0.4 0.6 0.1 1.5-0.4 0.7 0 0.7 0 2.4 0.6 1.1 0.1 0.6-0.1 0.6-0.2 0.7-0.4 1.2 4.7 0.2 0.9 0.5 0.8 1.2 1.7 0.2 0.6 0 0.6-0.6 0.9-0.6 0.6-1.8 1.3-0.9 0.7-0.5 1-0.1 0.6 0 0.7 0.2 0.6 0.3 0.6 1.4 1.4 1 1.7 0.6 0.7 2.7 3 0.6 0.8 1.9 3 1.6 2.1 0.2 0.8 0 0.4-0.7 0.8-1.4 0.8-0.4 0.3-0.3 0.5-0.2 0.6 0.1 0.7 0.4 0.7 0.6 0.6 0.6 0.3 0.7 0.3 0.8 0.2 1.4 2.1 0.7 1.3 0.2 0.9-0.2 0.7-1.6 1.6-1.6 1.9-1.6 1.6-4.6 3.8-0.8 0.5-2.7 0.8-0.8 0.2-2.5 0.3-1.2 0.3-1.7 0.7-2.7 1.4-2.9 1.8-0.7 0.5-0.9 1-1.5 1.8-1.5 1.3-1 1-0.9 1.2-0.3 0.7-2.3 0.7-1.9 0.7-1.4 0.6-0.8 0.1-0.4-0.2-1.6-1.1-1-0.5-0.4-0.2-0.7 0.1-0.4 0.1-0.9 0.5-0.4 0.3-0.5 1-0.7 1.8-0.7 0.9-0.9 0.7-2.1 1.5-2.1 1.7-0.7 0.4-1.2 0.4-0.9 0.2-1 0-8.1 0-0.9 0.1-1 0.2-0.9 0.4-1.1 0.5-0.6 0.4-2.6 1.9-1 1.2-1.4 2.1-0.5 0.7-1.4 1.4-1.3 0.9-6.3 4.1-2.1 1-3.2 1.2-0.7 0.7-0.1 0.8 0.3 0.8 0.7 1.6 0.8 2 0.4 0.6 1.1 1.2 0.2 0.4 0.6 1.8 0.2 0.7 1.2 2 0.3 0.6 0.1 0.7-0.3 1-1.3 1.5-0.4 0.6-0.6 1.1-0.8 0.7-1 0.7-0.8 0.6-0.7 0.7-0.4 0.6-0.2 0.8 0.3 1.3 0 0.7-0.3 2 0.1 0.6 0.2 1.3-0.1 0.7-0.4 0.7-1.7 2.2-0.4 0.8-0.1 0.6 0 1.7-0.1 0.7-1.1 3-0.1 0.5-5.8 5.4 0-1.8-2.3-2.4-4.8-0.3-7.8-1.8-2.5-1.5-4.6-4-2.6-1.6-2.7-0.7-5.7 0.1-2.6-0.8-6.8-8-1.4-10.4-0.3-10.2-3.8-7.4-4-0.7-3.3 2.5-3.4 1.8-4.2-2.5-2.1-4.4-3.7-17.3-3.7-7.7-3.8-3-16.1-0.9-5-1.9-22.3-13.1 0.6-1 1.2-2.6 1.4-1.7 1.1-1.9 0.5-0.6 0.8-0.6 1.7-0.7 1-0.7 1.9-2.2 0.1-0.4 0-1-0.5-1.1-0.2-0.8-0.1-1-0.3-3.9-0.6-2.8-0.1-1.8 0.1-1.7 0.2-0.9 0.5-1 2.2-2.3 1.3-2 0.3-0.7 0-0.6-0.3-1.2-0.1-0.8 0.2-0.6 0.4-0.5 0.9-0.4 2-0.5 1.1-0.4 0.7 0 0.4 0.1 1.8 1.1 1.1 0.5 1.8 0.6 0.8 0 1.2-0.3 1.8-0.7 1.9-1.2 0.4-0.1 0.5 0 0.4 0.1 1.5 0.9 1.8 0.9 0.6 0.8 0.6 1.4 0.8 0.8 1.6 0.9 0.7 0.3 0.8 0.2 1.9 0.1 0.9 0 0.9-0.2 1.8-0.7 1.6-0.7 1.1-0.6 1.4-1.1 1.1-0.7 1.4-0.8 1.9-0.8 0.3-0.2 0.6-0.6 0.4-0.7 0.7-1.4 0.4-0.6 0.6-0.5 1.2-0.6 0.4-0.3 0.3-0.5 0.2-1.4 0-1.9 0.2-1 0.2-0.4 1.3-1.7 0.3-0.6 0.3-0.7 0.5-2.1 0.5-1 0.8-0.8 2.3-1.6 1.6-1.5 1.6-1 0.6-0.4 0.5-0.4 0.3-0.6 0.5-1.3 0.3-1.7-0.1-0.6-0.6-1.9-0.1-0.7 0.2-1.1 0.4-0.7 0.5-0.7 0.7-0.6 1-0.6 0.6-0.5 0.4-0.7 2-0.7 3.4-0.9 2.5-0.2 1-0.3 4.5-2.4 4.9-3 0.9-0.5 1.2-0.4 1.4-0.4 3.6-0.2 0.8-0.1 0.9-0.2 0.9-0.4 1.9-1 0.6-0.2 1.2 0.2 3.1 0.9 1.2 0.5 1.8 1.1 1 0.3 0.6 0.1 0.6-0.2 1.4-0.4 1.5-0.3 2-0.2 1.2 0 0-0.7 0.5-0.4 0.7-0.2 0.8 0 0.8 0 1.1 0.5 0.7 0.4 0.4 0.7 0.9 1.9 0.5 0.6 0.8 0.5 1.4 0.7 1.8 0.6 1.4 0.2 1.7 0 0.8-0.1 1.4-0.4z" id="SRB835" name="Toplicki" data-id="SRB835" data-name="Toplicki">
 </path>
 <path d="M374.7 383.3l0.2 0.7 0 0.7-0.1 0.7-0.7 1.5-0.2 0.7 0 0.8 0.2 0.8 1 2.7 0.2 1 0.2 2 0.3 0.9 0.4 1 0.7 1.1 0.9 1.1 0.6 0.5 3.4 2.5 1.6 1.2 2.2 1.7 0.6 0.6 0.4 0.6 0.2 0.7 0.4 1.5 0.3 0.8 0.4 0.8 0.6 0.8 1.3 1.4 2.3 2.2 1.3 0.9 0.7 0.4 1.4 0.3 2.3 0.2 0.7 0.4 0.5 0.5 0.4 0.6 0.2 0.6 0.1 0.8 0 0.8-0.2 1.9 0 0.7 0.2 0.8 0.3 0.6 1.2 2 0.6 0.7 1.3 1.4 2.1 2.1 1.3 1 1.1 0.6 3 1.3 2.5 1.4 1.2 0.5 2.1 0.6 0.5 0.3 0.7 0.5 1.4 1.1 1.9 2 1.5 2.1 1.2 1.4 0.5 0.7 0.4 0.8 0.2 0.7 0 0.7-0.2 0.7-0.3 0.7-0.9 1.4-0.4 5.5 6.9 1.1 3.1 1.8 0.5 4.1-2.5 16.6-0.1 3.9 1.3 4 2.7 3.2 6.7 4 3.1 3.6 8.5 12.6 5.2 5.8 5.3 3.7 7.5 1.2-4 10.8-0.8 1-0.5 0.8-0.4 0.8-0.1 1.4 0 0.8 0.2 0.8 0.2 0.7 0.4 0.7 1.7 1.9 0.6 1 0.4 1.2 0.1 1-0.1 0.8-0.8 1.1-0.3 0.8 0.2 0.5 0.4 0.6 0.6 0.5 0.6 0.4 1.7 0.8 0.6 0.6 0.6 0.8 0.3 0.7 1 2.3 0.2 1 0 0.6-0.4 0.6-0.5 0.5-1.1 0.4-2.3 0.5-1.2 0.4-2 1.1-2.6 1-0.6 0.4-0.7 0.6-1.5 1.8-0.5 0.4-2.4 1.6-0.9 0.9 3.1 3.6 1.6 2.3 0.3 0.7 0.1 0.6 0.1 2.5 0.1 0.7 0.7 1.6 0.5 0.5 0.4 0.2 1.3 0.4 1.9 0.8 2.1 1.3 4 4.8 2.9 2.2 0.6 0.5 0.5 0.7 0.9 1.6 0.5 1.4 1 2.2 1.3 1.8 0.5 1.1 0.1 0.8 0 0.7 0 0.7-0.2 0.8-0.4 0.7-2.9 3.4-0.6 0.6-0.7 0.4-0.4 0.1-0.6 0.1-0.7-0.2-4.4-2.1-0.5-0.2-1-0.2-0.9-0.1-1 0.1-0.9 0.2-1.5 0.7-2.3 0.8-0.4 0.2-0.4 0.6-0.2 0.7-0.2 0.8-0.3 2.8-0.2 0.9-0.4 0.6-0.6 0.6-2.1 1.7-1.2 1.2-0.5 0.7-0.4 0.8-0.1 0.6 0.1 1.2 0.2 0.7 0.4 0.7 0.7 1.4 1.3 2.1 2.5 3.2 0.7 0.7 0.6 0.5 1 0.1 0.7 0 1.9-0.8 0.7-0.1 0.8 0 1 0.4 0.6 0.4 0.4 0.6 0.1 0.6-0.2 0.9-0.5 0.5-1.4 1.2-2.1 2-0.7 0.9-0.2 0.4-0.2 0.9-0.1 1 0.1 0.9 0.2 0.9 0.6 1.3 0.4 0.9 0.2 1.4 0.1 1.1 0 2.5-3.5-2.6-1.7-1.5-0.8-0.9-1-1.6-1-1-0.7-0.4-1.1-0.4-0.8-0.2-2.4-0.2-1.4-0.3-0.5-0.3-0.8-0.4-2.1-1.8-0.9-0.5-1-0.4-0.7-0.1-0.7 0.1-1.7 0.6-3.2 1.7-3.5 2-2.1-2.7-1.2-1.3-0.5-0.3-1.6-0.7-0.6-0.4-0.5-0.6-0.2-1 0-1.7-0.4-2.7-0.1-2.9-0.2-0.9-0.2-0.7-0.4-0.5-0.4-0.4-0.9-0.4-1.1-0.2-0.7 0-0.8 0.3-1.2 0.7-1.6 0.8-3.8 1.5-1.9 0.9-3 0.8-1.6 0.8-0.7 0.3-0.7 0-0.9-0.4-0.4-0.3-0.5-0.9-0.2-1-0.1-0.9 0.1-2.1 0.2-1 0.9-2.7 0.3-0.9-3.9-1.9-2.9-1.9-0.9-0.3-1.1-0.2-0.8 0-2.5 0.1-0.9-0.3-1.6-1.6-1.9-1.4-0.7-0.5-2.4-2.3-1.2-0.6-0.7-0.1-1.5-0.2-2.2 2-1.5 1.6-0.7 0.6-1.1 0.5-1.4 0.4-1 0.4-0.5 0.5-1.1 1.4-1 1.5-0.3 0.6-0.2 0.8 0.1 0.7 0.3 1 0.3 0.4 1.4 1.4 1.8 1.8 0.6 0.5 1 0.5 0.6 0.5 1.2 1.5 1 1.2 0.4 0.7 0.1 0.7-0.2 0.5-0.3 0.5-1.9 1.8-1.2 1.4-1.6 2.6-0.7 0.9-1.1 1.3-0.6 0.8-0.3 0.8-0.1 1.5 0.2 2.5 0 0.9-0.2 0.7-0.2 0.6-0.4 0.6-1.2 1.6-0.7 1.4-0.1 0.4-1.2 0.6-1.5 0.6-0.9 0.1-0.8 0.1-1.9-0.2-0.7 0-1 0.5-0.7 0.8-0.6 0.8-0.3 0.7-0.7 1.7-0.4 1.6-0.4 1-0.4 0.4-2 1.8-0.4 0.5-0.7 1.1-0.5 0.6-0.6 0.6-1.5 0.9-1.1 0.4-0.9 0.2-1-0.3-1.8-1.3-1-0.4-0.4-0.1-0.9 0.2-0.5 0.4-0.4 0.5-0.1 0.7 0.2 1.6-0.1 0.7-0.2 0.7-0.4 0.4-0.8 0.3-0.9-0.2-1.4-0.3-1.2-0.5-0.7-0.5-0.5-0.6-0.6-0.9-1.4-3.1-0.6-1-0.6-0.6-1.3-1.2-3.4-3.2-1.5-1.2-1-0.7-0.8-0.8-0.6-0.8-1.1-1.8-1.7-2.9-1.6-2.5-1-2.6-0.2-0.7-0.1-0.7 0.3-1.2 0.4-0.9 0.9-1.4 1.7-2 0.4-0.8 0.1-0.6 0-0.7-0.2-0.7-0.7-1.2-1.3-1.4-0.5-1-0.1-0.7 0-0.7 0.3-0.9 0.5-0.6 0.7-0.7 0.5-0.5 0.2-0.6-0.2-1.6 0.3-0.9 0.8-0.8 1.8-1.3 0.5-0.6 0.5-0.6 0.3-0.7 0.6-1.6 0.6-2.2 1-2.7 0.2-0.9 0-0.9 0-1.8-0.2-1.7-0.2-0.8-0.8-1.5-0.3-0.6 0-0.8 0.2-1.3 1-2.6 0.3-1.2-0.1-0.7-0.6-2.5-0.6-3.2-0.9-3.5-0.8-1.1-0.7-0.8-0.8-0.7-1.7-1.1-0.4-0.4-0.6-1-0.1-0.7 0.9-3.8-0.1-1.1-0.3-0.8-1-1.5-0.4-0.8-0.2-0.7-0.4-2.2 0-1.6-0.2-1.2-0.5-1.1-0.6-0.7-0.6-0.4-0.8-0.1-0.6 0.3-0.3 0.3-0.6 1-0.6 1.2-0.2 2.3-0.3 0.9-0.6 1-1.1 1.3-0.7 1-0.5 0.9-0.5 1.4-0.6 1-0.9 0.8-0.8 0.6-3.4 2.1-0.6 0.1-0.6-0.2-0.5-0.4-0.4-0.7-1.5-2.7-1.4-2-0.2-0.4-0.7-2.1-0.5-0.7-0.6-0.5-0.5-0.3-1-0.4-1.3-0.1-1.9 0.1-1 0.1-0.9 0.3-0.9 0.6-0.8 0.7-0.5 0.6-1 2.1-0.9 0.9-0.9 0.5-1.4 0.4-0.7 0.2-0.9-0.3-1.4-0.7-2.6-1-0.5-0.3-1.4-0.9-1.1-0.5-1-0.2-1.9-0.2-0.9-0.3-0.5-0.2-1-0.6-0.4-0.3-0.5-0.7-0.6-0.9-0.5-0.6-1.3-1.1-0.9-1.1-0.7-1.2-0.5-1.2-0.3-1.1 0-0.8 0.3-1.9 0.1-1 0.6-0.6 0.2-0.3 0-1.5 0-3.8-0.2-1.7-0.5-1.2-1.2-1.7-0.4-0.7-0.1-0.7 0.2-0.7 1.5-2.4 0.1-0.9-0.3-1.5 1.4-10.6 8.1-7 4.9-5.8 4.4-3.9 11.7-6 1-4 0.7-1.2 0.5-1.9 0.1-0.5 0-0.6-0.2-0.7-1.3-1.6-0.1-0.4 0.2-0.5 0.3-0.3 1.4-1 0.4-0.3 0.3-0.5 0.3-0.7 0.4-1.6 0-0.7-0.2-0.6-0.4-0.5-0.4-0.3-1.9-0.6-1.7-0.7-0.9-0.6-0.9-0.8-0.5-1-0.2-1-0.1-1 0.1-1 0.2-0.9 0.2-0.5 0.6-1 0.5-0.5 0.9-0.3 0.7 0 0.9 0.1 0.8 0 1.6-0.5 1.7-0.8 0.9-0.5 0.8-0.8 0.5-1 0.2-0.9 0.1-3.7 0.1-0.9 0.2-0.9 0.4-0.7 0.9-1.4 0.3-0.8 0.2-0.8 0.2-2.5 0.3-2.3 2.7-5.5 0.8-1.8 0.7-3.3 0.1-0.8 0.1-2 0.2-1 0.5-0.6 1-1 0.6-0.3 1.1-0.4 0.7 0 2 0.4 1.9 0.1 1.9 0 0.7-0.2 0.7-0.2 0.4-0.3 3.1-2.5 1.9-1.8 1.6-1.1 1.4-1.1 0.7-0.5 1.1-0.3 0.7-0.1 3 0 5.4-1.3 10.6-3.4-1.5-1.8-3.7-6.9-3.1-7.7 1.8 0 1.5-5.6 7-5.7 5.7-8.2-2.6-13.2-1.7-2.4 3-0.6 1.9 0.1 1 0.2 1 0.5 1.2 0.6 0.8 0.6 2.1 1.7 2.2 1.5 0.3 0.5z" id="SRB836" name="Grad Beograd" data-id="SRB836" data-name="Grad Beograd">
 </path>
 <path d="M272.5 553.5l0 1.5-0.2 0.3-0.6 0.6-0.1 1-0.3 1.9 0 0.8 0.3 1.1 0.5 1.2 0.7 1.2 0.9 1.1 1.3 1.1 0.5 0.6 0.6 0.9 0.5 0.7 0.4 0.3 1 0.6 0.5 0.2 0.9 0.3 1.9 0.2 1 0.2 1.1 0.5 1.4 0.9 0.5 0.3 2.6 1 1.4 0.7 0.9 0.3 0.7-0.2 1.4-0.4 0.9-0.5 0.9-0.9 1-2.1 0.5-0.6 0.8-0.7 0.9-0.6 0.9-0.3 1-0.1 1.9-0.1 1.3 0.1 1 0.4 0.5 0.3 0.6 0.5 0.5 0.7 0.7 2.1 0.2 0.4 1.4 2 1.5 2.7 0.4 0.7 0.5 0.4 0.6 0.2 0.6-0.1 3.4-2.1 0.8-0.6 0.9-0.8 0.6-1 0.5-1.4 0.5-0.9 0.7-1 1.1-1.3 0.6-1 0.3-0.9 0.2-2.3 0.6-1.2 0.6-1 0.3-0.3 0.6-0.3 0.8 0.1 0.6 0.4 0.6 0.7 0.5 1.1 0.2 1.2 0 1.6 0.4 2.2 0.2 0.7 0.4 0.8 1 1.5 0.3 0.8 0.1 1.1-0.9 3.8 0.1 0.7 0.6 1 0.4 0.4 1.7 1.1 0.8 0.7 0.7 0.8 0.8 1.1 0.9 3.5 0.6 3.2 0.6 2.5 0.1 0.7-0.3 1.2-1 2.6-0.2 1.3 0 0.8 0.3 0.6 0.8 1.5 0.2 0.8 0.2 1.7 0 1.8 0 0.9-0.2 0.9-1 2.7-0.6 2.2-0.6 1.6-0.3 0.7-0.5 0.6-0.5 0.6-1.8 1.3-0.8 0.8-0.3 0.9 0.2 1.6-0.2 0.6-0.5 0.5-0.7 0.7-0.5 0.6-0.3 0.9 0 0.7 0.1 0.7 0.5 1 1.3 1.4 0.7 1.2 0.2 0.7 0 0.7-0.1 0.6-0.4 0.8-1.7 2-0.9 1.4-0.4 0.9-0.3 1.2 0.1 0.7 0.2 0.7 1 2.6 1.6 2.5 1.7 2.9 1.1 1.8 0.6 0.8 0.8 0.8 1 0.7 1.5 1.2 3.4 3.2 1.3 1.2 0.6 0.6 0.6 1 1.4 3.1 0.6 0.9 0.5 0.6 0.7 0.5 1.2 0.5 1.4 0.3 0.9 0.2 0.8-0.3 0.4-0.4 0.2-0.7 0.1-0.7-0.2-1.6 0.1-0.7 0.4-0.5 0.5-0.4 0.9-0.2 0.4 0.1 1 0.4 1.8 1.3 1 0.3 0.9-0.2 1.1-0.4 1.5-0.9 0.6-0.6 0.5-0.6 0.7-1.1 0.4-0.5 2-1.8 0.4-0.4 0.4-1 0.4-1.6 0.7-1.7 0.3-0.7 0.6-0.8 0.7-0.8 1-0.5 0.7 0 1.9 0.2 0.8-0.1 0.9-0.1 1.5-0.6 1.2-0.6 2.7 0.5 1.4 0.6 1.2 0.9 0.5 0.6 0.5 0.9 0.1 0.6-0.3 1.8 0 0.7 0.1 1.6 0.3 1.3 1 2.2 0.7 1.8 0.1 0.6 0.1 1.5-0.2 2.1-1.3 1.8-2.2 3.2-0.8 1.7-0.7 1.7-0.5 3-0.3 0.6-0.4 0.5-0.9 0.4-2.2 0.3-0.9 0.4-0.4 0.5-0.4 0.6-0.4 1.1-0.2 1.3 0 0.7 0.2 1.8 0 0.6-0.3 1-0.3 0.6-0.6 0.7-0.6 0.4-1 0.2-1.7-0.2-0.7 0-0.8 0.2-1.2 0.6-1.6 1.1-0.4 0.5-0.4 0.6 0 0.7 0.2 1.6 0.1 1-0.1 0.4-0.4 0.6-1.1 1.1-0.7 0.5-2.8 1.1-1.9 1.1-1.8 0.9-1.1 0.9-0.8 0.9-0.5 1.2-0.3 1.4-0.3 0.7-0.4 0.5-0.4 0.2-1.3 0.3-4.5 0-0.9 0.1-0.9 0.1-1.1 0.4-2.3 1.3-0.8 0.3-1.7 0.6-0.7 0-0.7-0.1-2.6-0.7-0.7 0-0.5 0.1-2.1 0.6-0.8 0.1-0.7 0-2.5-0.3-0.8 0-1.1 0.4-0.7 0.5-1 0.9-1.2 1.7-0.5 0.5-1 0.4-1-0.1-0.4 0-5.1 1-1 0.4-0.4 0.6-0.2 0.6 0 0.8 0.1 0.7 1.1 3.4 0 0.8-0.7 0.4-0.9 0-0.8-0.3-1.9-1.1-1.2-0.5-2.3-0.5-2.9-1.1-0.9-0.2-1.1-0.1-3.1-0.1-3.5-2.2-0.7-0.3-1.4-1-0.5-0.2-1-0.2-2.7-0.1-1.1-0.3-0.7-0.5-0.4-0.5-0.6-1-3.2 2.4-1 0.9-1.6 0.9-0.4 0.5-0.7 1.4-0.2 0.7-0.6 2.8-1-0.3-1.7-0.3-3-0.4-0.8-0.3-0.4-0.3-1.2-1-0.6-0.4-1.7-0.9-1.6-1-1.9-0.7-0.9-0.6-1.1-1.1-1-1.2-0.4-0.7-0.3-0.6-0.2-0.9 0.1-0.8 1-1.2 0.4-0.6 0.1-0.6 0-0.6-0.3-0.5-0.3-0.3-1.6-1.2-1.3-0.8-0.6-0.2-1.5-0.4-4.8-0.5-0.7 0.1-0.8 0.4-0.6 0.9-0.5 2.1-0.3 0.6-0.4 0.5-0.8 0.5-1.4 0.4-0.9 0.4-0.5 0.5-1.4 1.6-0.4 0.3-0.6 0.2-0.6-0.1-1.7-1.1-1.7-0.9-0.9-0.8-1.6-1.7-0.9-0.7-0.5-0.2-0.8-0.1-0.7 0-0.8 0.1-1 0.4-1 0.6-0.6 0.5-0.5 0.7 0.1 0.8 0.6 0.8 1.3 1.2 1.2 0.8 1 0.6 0.7 0.5 0.7 0.9 0.6 0.9 1.7 4 0.9 3.3 0.2 1.8 0 1.8 0 0.9-0.2 0.9-0.5 0.9-0.4 0.4-1 0.4-0.7 0.1-1.5 0-2-0.2-0.9-0.2-0.9-0.5-0.4-0.4-0.4-0.9 0-0.9 0.5-1.3 0-0.7-0.1-0.6-0.4-0.9-0.8-1.2-1.8-1.9-0.3-0.5-0.5-0.9-0.4-1.5-0.7-1.1-0.7-0.8-1.5-1.4-1.2-1.6-0.8-0.7-0.9-0.3-2.1 0.1-1.1-0.3-0.7-0.4-0.6-0.5-1.6-1.8-0.7-0.7-0.4-0.3-1-0.5-1.1-0.4-1.5-0.3-0.5-0.1-2.9-0.8-0.6-0.2-0.4-0.3-1.7-1.7-1.2-1.9-0.7-0.5-2-0.5-2.4-1.2-1.1-0.3-0.6 0-1 0-2.1 0.4-0.9-0.5-0.7-0.5-0.5-0.7-0.7-1.6-0.9-1.7-0.9-1.2-0.9-1-0.4-0.4-1-0.5-1.2-0.2-0.5-0.2-0.4-0.5-0.2-0.5-0.5-2-0.7-2.4 0-0.8 0.4-0.6-1.9-3.1-1.8-2.7-0.5-0.6-0.7-0.5-0.6-0.3-2.4-1-0.7-0.5-1.8-1.7-0.9-0.5-0.5-0.1-2.1 0.2-1.1-0.1-1.2-0.5-1.4-0.9-1.2-1.2-0.6-0.6-0.7-0.4-0.8-0.2-3.3-0.8-2.1-0.3-0.8-0.1-1.6-1-2.6-0.9-1.2-0.8-3-2.2-0.9-1 0.5-1.1 0.4-0.9 0.2-1 0.1-1-0.1-2 0.2-1 0.8-1 2.3-1.6 0.4-0.4 0.5-1.1 0.2-0.7 0.2-1.5 0.3-1.3 0.3-0.5 1-1.3 0.9-1.7 0.5-0.6 0.7-0.4 1.1-0.5 2.3-0.4 1.2-0.4 0.7-0.5 0.5-0.6 0.6-0.8 0.2-0.7 0-0.8 0-0.7-0.2-0.8-0.7-1.7-1.1-1.9-0.5-1.3-0.3-0.6-0.4-0.4-0.9-0.2-2.5 0.6-1-0.1-1-0.7-0.7-0.8-0.3-0.4-0.6-1.2-0.2-1.2 0-0.7 0.2-0.5 0.5-1 0.5-0.6 0.6-0.4 1.1-0.2 2.1 0.2 0.7 0 1-0.4 0.5-0.3 0.7-0.8 0.6-0.9 1.6-3.3 0.7-1.6 0.9-3.2 0.2-1.2 0-2.5 0.1-0.6 0.3-0.7 0.7-1.3 0.2-0.6-0.2-0.8-0.4-0.4-0.5-0.3-1.9-0.8-0.9-0.6-0.6-0.8-0.1-0.7 0.2-0.5 0.3-0.5 0.9-0.7 0.9-0.5 0.8-0.2 1.5-0.2 1.3 0 0.7 0.1 1.5 0.4 0.8 0 0.8-0.1 0.8-0.3 1.5-0.8 1.2-0.5 2.3-0.4 2.9-0.3 3.2 2.3 0.4 0.5 0.3 0.5 0.7 2 0.3 0.5 0.7 0.9 0.9 0.6 0.6 0.3 1.3 0.3 1.5 0 1.5-0.1 0.7-0.1 0.7-0.3 0.5-0.3 0.5-0.6 2.6-1.4 0.8-0.4 1.4-0.5 2.9-0.4 0.7-0.2 2.8-1 0.7-0.2 1.6 0 1.5 0.2 1.7 0.7 3.8 1.9 2.4 0.9 5 2.4 3 1 2 0.6 0.6 0.3 0.7 0.4 0.6 0.6 0.7 0.9 1.8 2.6 0.3 0.7 0 0.7-0.1 1.6 0.1 0.9 0.5 0.4 0.9 0.3 1.8 0.1 8.6 0.1 0.9-0.1 1.5-0.1 0.4-0.2 0.6-0.4 0.2-0.5 0.5-1.2 0.4-0.8 1.1-1.7 0.9-1.1-2.4-3.3-2.2-2.6-0.6-0.8-0.3-0.8 0-0.6 0.3-0.7 0.4-0.6 0.6-0.5 0.7-0.5 1.1-0.4 0.5-0.1 0.7 0 1.2 0.3 1.2 0.5 0.6 0.1 0.4 0 0.4-0.2 0.5-0.9 0.2-0.7 0.1-0.9 0-1.8-0.1-1.9-0.1-0.8-0.4-1.4-1.2-2.8-0.2-0.9 0.1-0.5 0.6-0.8 2.1-1.8 0.4-0.5 0.3-0.9 0-1.2-0.1-0.7-0.5-1.2-1.2-1.5-0.5-0.8-0.7-1.7-0.1-0.7 0-1.8 0-0.7-0.2-0.7-0.4-0.8-0.5-0.7-0.7-0.7 0.6-2.4 0.6-1.4 0.4-0.8 0.6-0.7 1.1-1.2 0.5-0.4 0.5-0.3 1.7-0.6 0.4-0.2 1.1-0.8 2.1-1.9 0.7-0.5 0.7-0.5 1.1-0.3 0.7-0.1 0.7 0.2 1 0.4 1.1 0.6 1.7 1.3 0.6 0.4 0.6 0.2 0.4-0.1 1.7-1 3-1.1 0.8-0.3 2.3-1.5 0.8-0.8 0.2 0 1.5 0z" id="SRB837" name="Kolubarski" data-id="SRB837" data-name="Kolubarski">
 </path>
 <path d="M273 527.6l-1.4 10.6 0.3 1.5-0.1 0.9-1.5 2.4-0.2 0.7 0.1 0.7 0.4 0.7 1.2 1.7 0.5 1.2 0.2 1.7 0 3.8-1.5 0-0.2 0-0.8 0.8-2.3 1.5-0.8 0.3-3 1.1-1.7 1-0.4 0.1-0.6-0.2-0.6-0.4-1.7-1.3-1.1-0.6-1-0.4-0.7-0.2-0.7 0.1-1.1 0.3-0.7 0.5-0.7 0.5-2.1 1.9-1.1 0.8-0.4 0.2-1.7 0.6-0.5 0.3-0.5 0.4-1.1 1.2-0.6 0.7-0.4 0.8-0.6 1.4-0.6 2.4 0.7 0.7 0.5 0.7 0.4 0.8 0.2 0.7 0 0.7 0 1.8 0.1 0.7 0.7 1.7 0.5 0.8 1.2 1.5 0.5 1.2 0.1 0.7 0 1.2-0.3 0.9-0.4 0.5-2.1 1.8-0.6 0.8-0.1 0.5 0.2 0.9 1.2 2.8 0.4 1.4 0.1 0.8 0.1 1.9 0 1.8-0.1 0.9-0.2 0.7-0.5 0.9-0.4 0.2-0.4 0-0.6-0.1-1.2-0.5-1.2-0.3-0.7 0-0.5 0.1-1.1 0.4-0.7 0.5-0.6 0.5-0.4 0.6-0.3 0.7 0 0.6 0.3 0.8 0.6 0.8 2.2 2.6 2.4 3.3-0.9 1.1-1.1 1.7-0.4 0.8-0.5 1.2-0.2 0.5-0.6 0.4-0.4 0.2-1.5 0.1-0.9 0.1-8.6-0.1-1.8-0.1-0.9-0.3-0.5-0.4-0.1-0.9 0.1-1.6 0-0.7-0.3-0.7-1.8-2.6-0.7-0.9-0.6-0.6-0.7-0.4-0.6-0.3-2-0.6-3-1-5-2.4-2.4-0.9-3.8-1.9-1.7-0.7-1.5-0.2-1.6 0-0.7 0.2-2.8 1-0.7 0.2-2.9 0.4-1.4 0.5-0.8 0.4-2.6 1.4-0.5 0.6-0.5 0.3-0.7 0.3-0.7 0.1-1.5 0.1-1.5 0-1.3-0.3-0.6-0.3-0.9-0.6-0.7-0.9-0.3-0.5-0.7-2-0.3-0.5-0.4-0.5-3.2-2.3-2.9 0.3-2.3 0.4-1.2 0.5-1.5 0.8-0.8 0.3-0.8 0.1-0.8 0-1.5-0.4-0.7-0.1-1.3 0-1.5 0.2-0.8 0.2-0.9 0.5-0.9 0.7-0.3 0.5-0.2 0.5 0.1 0.7 0.6 0.8 0.9 0.6 1.9 0.8 0.5 0.3 0.4 0.4 0.2 0.8-0.2 0.6-0.7 1.3-0.3 0.7-0.1 0.6 0 2.5-0.2 1.2-0.9 3.2-0.7 1.6-1.6 3.3-0.6 0.9-0.7 0.8-0.5 0.3-1 0.4-0.7 0-2.1-0.2-1.1 0.2-0.6 0.4-0.5 0.6-0.5 1-0.2 0.5 0 0.7 0.2 1.2 0.6 1.2 0.3 0.4 0.7 0.8 1 0.7 1 0.1 2.5-0.6 0.9 0.2 0.4 0.4 0.3 0.6 0.5 1.3 1.1 1.9 0.7 1.7 0.2 0.8 0 0.7 0 0.8-0.2 0.7-0.6 0.8-0.5 0.6-0.7 0.5-1.2 0.4-2.3 0.4-1.1 0.5-0.7 0.4-0.5 0.6-0.9 1.7-1 1.3-0.3 0.5-0.3 1.3-0.2 1.5-0.2 0.7-0.5 1.1-0.4 0.4-2.3 1.6-0.8 1-0.2 1 0.1 2-0.1 1-0.2 1-0.4 0.9-0.5 1.1 0.9 1 3 2.2 1.2 0.8 2.6 0.9 1.6 1 0.8 0.1 2.1 0.3 3.3 0.8 0.8 0.2 0.7 0.4 0.6 0.6 1.2 1.2 1.4 0.9 1.2 0.5 1.1 0.1 2.1-0.2 0.5 0.1 0.9 0.5 1.8 1.7 0.7 0.5 2.4 1 0.6 0.3 0.7 0.5 0.5 0.6 1.8 2.7 1.9 3.1-0.4 0.6 0 0.8 0.7 2.4 0.5 2 0.2 0.5 0.4 0.5 0.5 0.2 1.2 0.2 1 0.5 0.4 0.4 0.9 1 0.9 1.2 0.9 1.7 0.7 1.6 0.5 0.7 0.7 0.5 0.9 0.5 0.2 1.1-0.1 0.9-0.2 0.8-1.2 2.1-0.8 2-0.5 0.6-0.6 0.5-0.5 0.3-1 0.3-0.7 0-1.2-0.2-1-0.4-1.9-0.5-0.5-0.1-0.7 0-0.6 0.2-2.4 1.1-0.5 0.2-2.2 0.6-1 0.6-0.7 0.8-0.6 0.9-2 3.8-0.7 0.8-0.6 0.5-1 0.3-1.6 0.4-4.3-6.4-3.8-3.5-1.5-2.1-0.5-6-2-2.7-1.5 0.1-2.7 2.8-1.4 0.4-1.7-1-2.6-2.6-10.5-7.8-4.6-4.8-1.5-4.3-0.5-6.8-3-7.3-4.1-6.1-4.1-3.4-2.8-0.5-7.8 1.9-3.4-0.2-2.1-0.7-5-2.5-10.3-2.3-4.9-2.2-4.3-5.3-5.4-11.6-1.9-6.8-0.4-6.4 2.1-7 3.3-4.3 2.9-4.9 0.4-9.3-3.8-15 0.6-5.3 8.5-2.8 1.9-1.6 1.6-2.4 1.4-2.6 0.4-2.4-0.2-5.5 0.5-2.2 1.2-1.6 2.6-1.5 1.1-1.1 11.3-19.4 3.5-10.2 1.8-3.1 2.6-2.8 4.8-4.1 2.3-3.5 2.5-6.3 8.6-41 1-1.6 1.2-0.3 0.9-0.9-0.3-3.5-0.6-2.8-1-2-1.5-1.3-1.4-1.6 0.5-1.8-4.3-2.9-3.9-4.3 3.8 0.2 7.5 2.6 3.5-0.5 2.7-2.7-0.4-2.9 2.5-3.3 1.2-0.1 0.8 0.1 1.2 0.4 0.6 0.4 2.8 2 1.3 1.2 1 1.2 0.3 0.6 0.8 2.2 0.9 2.1 0.7 2.1 0.5 0.7 0.6 0.6 0.5 0.3 1 0.4 1 0.1 0.5-0.2 0.6-0.4 1-1 1.1-1.5 1-1 0.6-0.6 1-0.6 0.7-0.4 0.7-0.2 1.1 0.2 0.6 0.3 0.5 0.5 2.3 2.1 0.6 0.5 1.5 0.8 1.3 0.4 2.3 0.3 1.8 0.4 0.8 0.1 0.7 0 0.8-0.1 1-0.4 2.3-1.1 4.2-2.1 1.7-0.7 0.9-0.2 1-0.1 1.9 0 5.1 0.1 1.9 0.3 0.8 0.1 6.9-7.4 2.4 0.9 4.1 0.7 5.3 3 6.4 0.9 1.9 1 0.5 3.6-1.3 4.3-10.5 21.1-2.2 7.7 1 6.4 1.6 3 1 2.7 1.1 2.5 2.1 2.3 4 1.9 12.3 0.2 12 6.2 6.4 4.6 4.1 4.4 5.8 3.9 16.6-0.2 6.6 2.4-4.9 3.5-14.2 6.6-2.4 3.8 4.7 5.5 7.9-3.2z" id="SRB838" name="Macvanski" data-id="SRB838" data-name="Macvanski">
 </path>
 <path d="M465.6 643.7l4.6 0.4 3.6 0.7 0.8 0.2 1.7 0.8 0.7 0.4 0.6 0.4 0.4 0.8-0.1 0.9-0.5 0.8-1.1 1.2-0.4 0.5-0.2 0.6-0.1 0.7 0.5 2.1 0.1 0.9 0.1 2.1 2.9-0.3 2.7-0.5 0.8-0.1 0.8 0 0.8 0.2 1 0.4 1 0.7 1.3 1.1 1.2 1.1 0.4 0.4 1 0.4 0.7 0.1 0.9-0.1 0.7 0.1 1.1 0.3 0.8 0.4 1.3 0.8 1 0.3 0.7 0 0.7-0.2 1.9-0.8 0.9-0.2 2.8-0.3 0.9-0.2 1.9-0.8 2-0.5 1.1-0.5 4.7-2.3 0 4.1 0.3 3.5 0.2 0.8 0.3 0.7 0.5 0.7 1.5 1.1 1.6 1.6 0.9 0.6 1.6 0.8 0.7 0.2 2.4 0.4 1.1 0.4 5.1 3.3 2.5 1.7 2.3 0.1 1.9 0.3 0.7 0 0.6-0.2 1.9-0.7 0.9-0.1 0.6 0.1 0.5 0.4 1.3 1 0.5 0.3 1.3 0.4 2.5 0.3 0.8 0.1 1.3 0.5 1.2 0.8 1.3 1.3 1.5 1-0.2 2.9 0.5 4.3 0.7 2.8-3.4 6.1 0 0.8-0.2 0.5-0.9 2.1-0.3 0.7-0.1 0.8 0.1 0.9 0.3 0.7 0.3 0.5 3.2 3.9-0.4 3.4-0.4 1.2-0.8 1-2.1 1.9-1.2 1.5-0.5 0.5-0.7 0.5-0.9 0.5-2.5 0.8-2.2 0.6-1 0.4-1.1 0.6-3.3 2.5-3.4 3.2 6.9 1.7 1 0.5 0.5 0.5 2.9 3.3 0.3 0.7 0.2 0.7 0 1.5-0.2 0.7-0.3 0.7-0.9 1.3-0.2 0.7-0.1 0.6 0.1 1.7-0.2 1.4-0.4 1-0.4 0.6-0.4 0.5-0.4 0.2-1 0.3-0.7 0.1-2-0.1-1.2-0.1-1 0.4-0.6 0.5-2.1 2.2-0.4 0.2-1.2 0.6-0.6 0.4-0.5 0.6-0.3 0.7 0 0.7 0 0.7 0.5 1 1.8 1.9 0.4 0.5 0.4 0.7 0.5 1.3 1.2 1.8 0.4 1 0 0.7 0 0.7-0.5 1-0.4 0.4-1.6 1.2-0.6 0.3-1.6 0.7-0.4 0.4-0.1 0.9 1 3.5 0.1 0.9-0.1 1.4-0.3 1.8-1.3-0.6-1.1-0.3-1.4 0-1.2 0.3-1.4 0.9-1.8 0.9-0.7 0.5-0.9 0.9-0.5 0.6-0.2 0.7-0.1 0.6 0.7 2.5 0.5 0.9 0.9 1.3 1.6 2.4 0.2 0.9 0.1 0.9 0.1 1.8-0.2 0.8-0.3 1-0.5 0.5-0.8 0.7-0.5 0.5-0.7 0.8-1 1.5-0.8 0.8-1.3 1.1-2.2 1.2-0.7 0.3-2.2 0.2-1.1 0.5-2.3 1.4-1.3 1-0.8 0.8-0.6 1-0.4 1.2-0.6 1.9-0.2 0.5-0.5 0.6-0.6 0.2-0.7 0-1.7-0.6-0.9-0.1-2-0.2-1.2 0-0.7-1.2-0.4-0.5-0.7-0.5-0.3-0.3-0.2-0.6 0-1-0.5-1.1-0.5-0.6-0.2-0.6-3.6-0.8-1.3-0.4-0.6-0.5-0.3-0.4-0.6-1.1-0.5-0.6-0.6-0.5-1.1-0.3-0.6 0.1-0.5 0.1-0.9 0.6-0.9 0.8-1.4 1.8-0.5 0.4-0.4 0.2-0.9 0-3.5-0.5-2.7-0.6-1.9-0.1-1 0.1-0.9 0.1-1.2 0.4-1.9 1-0.6 0.3-2.7 0.8-0.5 0.3-0.6 0.4-0.3 0.6-0.1 0.7 0.1 0.6 0.4 0.7 1.7 1.6 0.3 0.4 0.2 0.7-0.1 2.4 0.3 2.3-0.2 0.9-0.7 0.6-1.6 0.8-3.6 2.3-1.2 0.6-0.9 0.3-0.9 0.1-1.9 0-0.9-0.1-0.9-0.1-1.2-0.4-0.7-0.5-1.3-1.1-0.7-0.4-1.7-1-0.6-0.4-0.9-1-0.7-1.2-2.2-3.7-1-2-0.9-1.1-1.2-1.3-0.4-1 0-0.7 0.1-1.6-0.2-0.6-0.5-0.9-0.5-0.6-0.6-0.5-3.1-2-1.3-1.1-0.8-0.9-1.6-2.3-1.4-1.6-1.6-1.7-1.9-1.9-0.5-0.7-0.7-1.8-1.1-1.8-0.6-1.2-0.7-1.8-0.8-1.3-1.1-1.6-1-0.9-0.7-0.5-1.1-0.5-1.5-0.4-1.1-0.4-1.9-1.3-1.3-1.1-0.4-0.5-0.3-0.9-0.1-3.6-0.2-1.2-0.3-0.5-0.5-0.6-1-0.6-1.1-0.9-0.8-1-0.5-0.7 2.8-1.4 0.9-0.5 0.8-0.6 2.2-2 2.1-1.6 0.6-0.5 0.3-0.7 0.1-0.7 0-0.7-0.1-1-0.1-0.7 0.1-0.7 0.6-1.6 0.9-1.6 0.6-0.8 1.3-1.1 1.8-1.3 0.8-0.8 0.4-0.9 0.1-1.5 0.4-0.8 0.6-0.3 0.4-0.1 0.8 0.3 1.3 1.1 0.6 0.5 1.2 0.6 0.8 0 0.4-0.2 0.3-0.4 0.7-1.4 0.8-1.2 1.3-1.2 0.9-0.7-3.2-4.3-0.6-0.7-1.6-1.3-0.6-0.6-0.4-0.6-0.6-1.4-0.4-0.6-0.5-0.6-1.4-1.3-0.7-0.5-1.2-0.8-3-1.3-1.6-0.8-1.5-0.9-1.8-1.4-1-0.5-1.4-0.6-0.9-0.5-0.6-0.5-0.3-0.5-0.3-0.9 0.2-3.3-0.1-2-0.3-0.9-0.8-1.8-0.6-1.7-0.9-1.1-2-2.2-0.4-0.8-0.2-0.5-0.5-3-0.2-0.7-0.4-0.6-0.3-0.3-1.5-1.1-1.6-1-0.6-0.5-1.4-1.5-0.6-0.4-0.7-0.2-0.8-0.1-2.4-0.2-0.7-0.2-1.2-0.4-0.6-0.5-0.4-0.6-0.1-0.7 0-0.8 0.6-2.6 0.1-0.9-0.2-1.2-1.2 0-0.9-0.2-0.7-0.3-0.5-0.5-0.5-0.6-0.8-1.7-0.6-1.2-0.4-1.2-0.6-2.6-0.5-2.2-0.4-2.2 0-0.7 0.8-2.5 0.1-0.5 0-0.7-0.4-1.1-1.8-2.4-0.9-1.5 0.2-2.1-0.1-1.5-0.1-0.6-0.7-1.8-1-2.2-0.3-1.3-0.1-1.6 0-0.7 0.3-1.8-0.1-0.6-0.5-0.9-0.5-0.6-1.2-0.9-1.4-0.6-2.7-0.5 0.1-0.4 0.7-1.4 1.2-1.6 0.4-0.6 0.2-0.6 0.2-0.7 0-0.9-0.2-2.5 0.1-1.5 0.3-0.8 0.6-0.8 1.1-1.3 0.7-0.9 1.6-2.6 1.2-1.4 1.9-1.8 0.3-0.5 0.2-0.5-0.1-0.7-0.4-0.7-1-1.2-1.2-1.5-0.6-0.5-1-0.5-0.6-0.5-1.8-1.8-1.4-1.4-0.3-0.4-0.3-1-0.1-0.7 0.2-0.8 0.3-0.6 1-1.5 1.1-1.4 0.5-0.5 1-0.4 1.4-0.4 1.1-0.5 0.7-0.6 1.5-1.6 2.2-2 1.5 0.2 0.7 0.1 1.2 0.6 2.4 2.3 0.7 0.5 1.9 1.4 1.6 1.6 0.9 0.3 2.5-0.1 0.8 0 1.1 0.2 0.9 0.3 2.9 1.9 3.9 1.9-0.3 0.9-0.9 2.7-0.2 1-0.1 2.1 0.1 0.9 0.2 1 0.5 0.9 0.4 0.3 0.9 0.4 0.7 0 0.7-0.3 1.6-0.8 3-0.8 1.9-0.9 3.8-1.5 1.6-0.8 1.2-0.7 0.8-0.3 0.7 0 1.1 0.2 0.9 0.4 0.4 0.4 0.4 0.5 0.2 0.7 0.2 0.9 0.1 2.9 0.4 2.7 0 1.7 0.2 1 0.5 0.6 0.6 0.4 1.6 0.7 0.5 0.3 1.2 1.3 2.1 2.7 3.5-2 3.2-1.7 1.7-0.6 0.7-0.1 0.7 0.1 1 0.4 0.9 0.5 2.1 1.8 0.8 0.4 0.5 0.3 1.4 0.3 2.4 0.2 0.8 0.2 1.1 0.4 0.7 0.4 1 1 1 1.6 0.8 0.9 1.7 1.5 3.5 2.6z" id="SRB839" name="Šumadijski" data-id="SRB839" data-name="Šumadijski">
 </path>
 <path d="M865.4 1136.5l-0.7 1.1-0.4 1.3 0.8 1.2 5.8 14 3.2 4.9 3.6 2.9 0.3 1 0.1 1-0.1 1-0.3 1-3.2 3-6.3 12.1 1.7 4.5-1.1 8-3.8 16.6-0.8 6.5 1 0.5 12.5 11.7 7.4 5.4 3.1 3.8 1.8 4.6 1 4.9-0.8 6.8-3.3 12-2.6 5.3-2.7 1.8-3 0.7-3.7 1.8-3.7 4.8-3.9 12-3.4 4.7-4.4 1.4-10.1 0.2-4.6 2.4-4.7-0.3-4.3-1.6-3.9-3-3.5-4.2-0.7-2.3-0.2-5.6-1.1-1.6-2.1 0.5-6.4 6.5-33.2 14.1-8.4 1.5-8-0.9-7.9-2.8-12.9-6.7-3-0.7-2.6 1.3-8.1 7.1-1.7 0.4-9.7-0.1-4.8 1.1-26.7 16.3-3.5 4.3-3.6 2.3-4.2-0.2-8.5-2.4-11.9 0.3-2.7-1.4-2.4-9-9.4-14.3 0.3-7.9 5.1-5.4 14.3-4.4 5-4.8 1.1-5-1.2-10.4 0.5-5 2.1-3.7 9.7-9.7 12-20 2.4-7.5-0.2-1.2-1.7-2.9-0.4-1.4 0.5-1 1.6-0.8 0.5-0.6 0.3-0.9 1.3-6.6-0.2-1 2.3-1.8 2.9-1.3 2.6-1.7 1.3-2.8-2-7.3-4.8-3.2 2.5-3 0.7-0.6 0.7-0.4 2-1 0.8-0.5 2.4-2 0.7-0.7 0.3-0.9-0.2-2.6-0.1-2.5 0-2.5 0.1-0.8 0.3-0.6 0.7-0.7 1.6-0.9 0.6-0.5 0.5-0.6 0.7-1.1 0.5-0.5 0.4-0.3 1.4-0.6 0.3-0.3 0.2-0.5-0.1-0.6-0.8-1.1-0.3-1 0.1-0.6 0.2-0.6 0.4-0.5 1.1-1 1.2-0.7 4.2-1.4 1.1-0.1 1.7 0 2.5-0.7 0.7-0.1 0.9 0.1 0.7-0.1 0.9-0.3 2.3-0.8 0.9-0.3 0.7 0 2.4 0.3 1.3 0.1 1 0 2-0.7 2.6-0.6 1.6-0.1 0.8 0.1 1 0.2 4.7-1.2 0.8-0.2 1.4-0.7 1.6-1.1 0.6-0.5 0.4-0.7 0.2-0.8 0.3-2.7 0.2-0.9 0.2-0.4 0.5-1.1 0.5-0.4 0.4-0.2 1.2-0.2 0.7 0.1 1.1 0.5 0.6 0.4 2 2.3 1.1 1 0.7 0.4 1 0.3 0.7 0 2.4-0.6 3.3-1.4 2.1-1.1 0.5-0.3 1.8-1.3 1.5-0.7 0.8-0.2 0.9-0.1 2.7-0.1 1.7 0.2 0.9 0.4 0.5 0.4 1.4 2.5 0.3 0.6 0 0.9-0.3 0.7-1.4 1.9-0.3 0.7 0.2 0.7 0.3 0.4 0.9 0.5 0.9 0.2 1 0.1 2.4 0.1 0.8-0.2 0.5-0.2 0.5-0.4 1.4-2.3 0.5-0.5 1-0.3 0.9-0.2 0.9 0 1 0 0.9 0.2 1 0.4 0.4 0.5 0.1 0.6-0.2 1.8 0.2 1 0.2 0.4 0.7 0.8 4.5 3.4 2.1 1.1 1.9 0.6 1 0.5 0.4 0.5 0.9 1.7 0.4 0.5 0.8 0.7 1.2 0.8 0.6 0.4 2.7 0.8 1 0.5 0.9 0.7 0.6 0.4 0.9 0 1.4-0.6 1.1-0.1 0.7 0.2 1.2 0.4 1.3 0.3 0.8 0 0.7-0.3 0.4-0.2 2.6-2.1 1.5-2.1 1.3-1.3 1.3-0.9 1.2-0.4 2.2-0.4 1.6-0.4 0.7-0.4 0.6-0.4 1.2-1.3 2.6-1.5 0.5-0.6 0.7-0.7 1.3-2.1 0.9-1.2 1.3-1.4 1-1.4 0.5-0.4 0.5-0.2 2.6-0.4 1.7-0.6 1.1-0.5 1.4-1 0.5-0.3 2.7-0.9z" id="SRB841" name="Pcinjski" data-id="SRB841" data-name="Pcinjski">
 </path>
 <path d="M818.1 1051.8l1.5 1.7 1.6 1.2 2.4 2.3 0.3 0.5-0.1 0.6-0.3 0.3-1.7 1.5-1.1 1.4-0.5 0.5-0.4 0.3-1.9 0.6-0.6 0.3-1.6 1-0.4 0.3-0.5 0.5-0.6 0.9-0.5 0.6-3.3 2.6-0.3 0.6-0.1 0.6 0 0.6 0.4 0.6 0.5 0.6 0.7 0.5 1.9 1.3 0.7 0.3 1.1 0.4 2.9 0.4 0.9 0.3 1 0.4 0.6 0.5 0.6 0.5 1.1 1.4 0.9 0.7 0.6 0.4 0.7 0.2 0.6 0 1.4-0.3 0.9-0.2 1 0 0.9 0 1 0.2 0.9 0.3 2.3 1.1 4.8 2.4 1.8 1.1 2.1 1.1 1.3 1.2 0.7 0.3 0.6 0.2 0.5 0 1.9-0.1 0.7 0.1 0.8 0.2 0.6 0.2 3 1.6 3.3 2.2 1.2 1 0.6 0.9 0.7 1.2 0.2 0.7 0 0.6-0.3 0.6-0.4 0.6-0.6 0.5-0.7 0.5-1.1 0.4-2.8 0.8-4.3 0.9 1.9 1.6 2.5 1.9 0.7 0.4 0.8 0.4 1.5 0.7 1.2 0.8 0.4 0.5 0.8 1.9 0.4 0.6 1.2 1.1 0.9 1.2 0.9 0.8 1.4 0.8 1.6 0.8 0.5 0.3 1.3 0.9 1 0.4 2.3 0.5 0.7 0.2 1.9 0.8 0.8 0.2 0.9 0.1 1.9 0 0.9-0.1 2.8-0.5 1.9-0.1 0.9 0.1 1 0.2 1.9 0.8 0.8 0.3 1.8 0.4 5.3 1-0.1 0.1-1.7 1-4.3-0.6-3.3 0-2.1 1.9-3.8 5.8-2.5 2.2-6.2 3.3-2.1 1.9-1.5 2.4-2.7 0.9-0.5 0.3-1.4 1-1.1 0.5-1.7 0.6-2.6 0.4-0.5 0.2-0.5 0.4-1 1.4-1.3 1.4-0.9 1.2-1.3 2.1-0.7 0.7-0.5 0.6-2.6 1.5-1.2 1.3-0.6 0.4-0.7 0.4-1.6 0.4-2.2 0.4-1.2 0.4-1.3 0.9-1.3 1.3-1.5 2.1-2.6 2.1-0.4 0.2-0.7 0.3-0.8 0-1.3-0.3-1.2-0.4-0.7-0.2-1.1 0.1-1.4 0.6-0.9 0-0.6-0.4-0.9-0.7-1-0.5-2.7-0.8-0.6-0.4-1.2-0.8-0.8-0.7-0.4-0.5-0.9-1.7-0.4-0.5-1-0.5-1.9-0.6-2.1-1.1-4.5-3.4-0.7-0.8-0.2-0.4-0.2-1 0.2-1.8-0.1-0.6-0.4-0.5-1-0.4-0.9-0.2-1 0-0.9 0-0.9 0.2-1 0.3-0.5 0.5-1.4 2.3-0.5 0.4-0.5 0.2-0.8 0.2-2.4-0.1-1-0.1-0.9-0.2-0.9-0.5-0.3-0.4-0.2-0.7 0.3-0.7 1.4-1.9 0.3-0.7 0-0.9-0.3-0.6-1.4-2.5-0.5-0.4-0.9-0.4-1.7-0.2-2.7 0.1-0.9 0.1-0.8 0.2-1.5 0.7-1.8 1.3-0.5 0.3-2.1 1.1-3.3 1.4-2.4 0.6-0.7 0-1-0.3-0.7-0.4-1.1-1-2-2.3-0.6-0.4-1.1-0.5-0.7-0.1-1.2 0.2-0.4 0.2-0.5 0.4-0.5 1.1-0.2 0.4-0.2 0.9-0.3 2.7-0.2 0.8-0.4 0.7-0.6 0.5-1.6 1.1-1.4 0.7-0.8 0.2-4.7 1.2-1-0.2-0.8-0.1-1.6 0.1-2.6 0.6-2 0.7-1 0-1.3-0.1-2.4-0.3-0.7 0-0.9 0.3-2.3 0.8-0.9 0.3-0.7 0.1-0.9-0.1-0.7 0.1-2.5 0.7-1.7 0-1.1 0.1-4.2 1.4-1.2 0.7-1.1 1-0.4 0.5-0.2 0.6-0.1 0.6 0.3 1 0.8 1.1 0.1 0.6-0.2 0.5-0.3 0.3-1.4 0.6-0.4 0.3-0.5 0.5-0.7 1.1-0.5 0.6-0.6 0.5-1.6 0.9-0.7 0.7-0.3 0.6-0.1 0.8 0 2.5 0.1 2.5 0.2 2.6-0.3 0.9-0.7 0.7-2.4 2-0.8 0.5-2 1-0.7 0.4-0.7 0.6-2.5 3-1.4-0.9-7.2-1.7-5.1 0.2-10.5 4.7-3.5 0.1-4-2.7-7.8-9.8-3.7-3.3-5.5-1.8-24.2-3.4-8.8 0.3-4-1.3-2.5-1.6 0.2-1 1.1-1 0.8-1.6 0.8-5.1 3.3-11 1-5.5 0-6.9 5.8-5.4 0.1-0.5 1.1-3 0.1-0.7 0-1.7 0.1-0.6 0.4-0.8 1.7-2.2 0.4-0.7 0.1-0.7-0.2-1.3-0.1-0.6 0.3-2 0-0.7-0.3-1.3 0.2-0.8 0.4-0.6 0.7-0.7 0.8-0.6 1-0.7 0.8-0.7 0.6-1.1 0.4-0.6 1.3-1.5 0.3-1-0.1-0.7-0.3-0.6-1.2-2-0.2-0.7-0.6-1.8-0.2-0.4-1.1-1.2-0.4-0.6-0.8-2-0.7-1.6-0.3-0.8 0.1-0.8 0.7-0.7 3.2-1.2 2.1-1 6.3-4.1 1.3-0.9 1.4-1.4 0.5-0.7 1.4-2.1 1-1.2 2.6-1.9 0.6-0.4 1.1-0.5 0.9-0.4 1-0.2 0.9-0.1 8.1 0 1 0 0.9-0.2 1.2-0.4 0.7-0.4 2.1-1.7 2.1-1.5 0.9-0.7 0.7-0.9 0.7-1.8 0.5-1 0.4-0.3 0.9-0.5 0.4-0.1 0.7-0.1 0.4 0.2 1 0.5 1.6 1.1 0.4 0.2 0.8-0.1 1.4-0.6 1.9-0.7 2.3-0.7 0.3-0.7 0.9-1.2 1-1 1.5-1.3 1.5-1.8 0.9-1 0.7-0.5 2.9-1.8 2.7-1.4 1.7-0.7 1.2-0.3 2.5-0.3 0.8-0.2 2.7-0.8 0.8-0.5 4.6-3.8 1.6-1.6 1.6-1.9 1.6-1.6 0.2-0.7-0.2-0.9-0.7-1.3-1.4-2.1 4.1-0.4 1.9-0.1 4.6 0 1.7-0.3 1.7-0.6 1.6-0.8 2-1.2 3.4-1.9 2.9-3.2 7.8 10 2.7-1.8 1.9-0.2 0.9-0.2 0.9-0.3 0.7-0.4 0.6-0.4 2.7-2.2 0.6-0.4 1.1-0.4 0.7 0 0.9 0.2 0.5 0.5 1 1.5 0.4 0.4 1 0.7 0.6 0.4 0.6 0.2 0.7 0 1-0.2 1.2-0.9 0.6-0.2 0.7 0.2 0.3 0.4 0.6 1.8 0.5 0.9 0.6 0.6 0.6 0.4 1.7 1 0.6 0.4 0.9 0.9 1 1.3 1.2 1.4 1.2 1.7 2.2 2.4 0.6 0.5 1.5 1 1.2 1 0.5 0.3 1.7 0.8 0.5 0.3 1.3 1.1 0.8 0.6 1.1 0.5 2 0.6 1.3 0.7 1.3 1.1 1.3 1.3 0.6 0.7 2.2 2.9 1.4 1.5 1.4-0.1 1.8-0.4 0.8 0 0.8 0.1 1.7 0.6 1.2 0.7 0.7 0.3 0.6 0.1 0.8 0 4-0.7 1.1-0.5 0.6-0.6 1.6-2 1.9-2.6z" id="SRB843" name="Jablanicki" data-id="SRB843" data-name="Jablanicki">
 </path>
 <path d="M874 737.8l-7.7 1.3-5.4 2.3-2.9 4.6-0.6 4.1-0.1 9.7-0.6 5.3-0.6 1.5-2.4 4.4-0.7 1.7-0.5 10.1-2.3 10.3-3 7.7-1.3 7.2 3.1 9.1 6.3 7.5 0.3 2.6-0.9 5.6 0 2.8 1.1 4.3 1.5 4.4 1.9 4.1 2.2 3.5 3 2.8 7.1 3.9 2.5 2.4 1.6 4.4 0.3 7.7 1.8 4.1 0.1 0.4-0.1 0.3-0.8 1.2-0.2 1.2 0.2 1.2 0.8 1.2 0.3 0.8 0.1 0.8-0.1 0.9-0.3 0.8-0.7 1.7-0.2 1.6 0.2 1.7 2.9 6.1 4.5 15.8 2.3 6.3 3.3 3.2 8 3.8 1.7 1.7 3.4 4.6 2.3 1.7 2.6 0.6 5.2-0.3 2.2 0.7 1.8 2 2.7 5.6 0.6 0.7-1.7 2.2-0.3 0.2-1.7 2.1-1.2 1.3-1 1.4-1.1 1.6-1.3 1.7-0.5 0.6-1.2 0.7-2.8 1.3-1 0.6-3.6 3.5-1.4 1.4-0.5 0.7-0.3 0.8-0.1 0.6 0.1 0.5 0.7 2 0.1 1.1-0.1 0.4-0.4 0.3-0.9 0.2-0.7-0.1-4.2-0.9-0.8-0.2-2.4-0.1-0.5-0.2-1.6-0.9-2-1-0.9-0.8-1.3-2-2.5-2.2-0.6-1-1.1-2.2-0.6-0.9-0.7-0.8-0.7-0.5-0.6 0-0.7 0.3-0.3 0.5-1.2 2.8-0.9 1.6-0.7 0.8-0.6 0.4-0.5 0.3-1.4 0.1-2.3-0.1-0.7 0.2-0.9 0.4-5.6-4.2-1.3-1.1-0.5-0.2-1-0.4-0.6 0-1.5 0.3-0.6 0-1.1-0.3-2.5-1.2-2-0.7-1.1-0.5-0.9-0.6-1.3-1.1-0.5-0.3-5.5-2.1-0.1-0.2-0.1-0.6 0.2-0.4 0.7-1.4 0.2-0.7 0-0.8-0.2-1.3-0.1-0.7 0.1-0.7 0.4-1.1 1.1-1.6 0.4-0.7 0.2-0.7 0.5-1.9 0.2-1.1-0.2-1.2-0.6-1.9-0.8-1.5-0.6-0.8-0.6-0.6-0.7-0.4-1.1-0.5-1.4-0.5-1.1-0.5-1.6-1.5-0.9-0.7-2-1.3-0.7-0.3-0.7-0.1-0.9 0.4-0.8 0.6-0.9 1.4-0.9 1.8-1.2 1.8-0.8 0.9-0.6 0.2-0.4 0-0.6-0.3-2.6-2.8-0.7-0.5-0.9-0.3-0.9-0.1-1.1-0.1 0-1-0.1-0.7-0.2-0.6-0.8-0.8-0.8-0.5-0.8-0.5-2.7-1-2-0.8-0.7-0.2-0.7-0.1-1.3 0.2-0.5 0.2-2.1 1.4-0.5 0.2-3 0.8-0.7 0.1-1.5-0.1-3.2-0.8-2.5-0.8-2-1.1-0.6-0.5-2.2-2.2-0.9-0.7-0.9-0.4-2.2-0.7-1-0.5-1.8-1.3-1.4-0.8-0.8-0.2-1.9-0.4-1.3-0.2-0.7 0-0.7 0.2-1.6 0.7-0.7 0.3-0.7 0-0.5-0.1-1-0.4-0.7-0.4-0.5-0.6-0.5-0.8-0.2-0.6 0.1-0.6 0.5-1.2-0.2-0.6-0.4-0.5-1.1-1-1.2-1.3-1.3-1.2-0.6-0.9 0.1-0.6 0.6-1.2 0.2-0.9-0.1-1.6-0.2-0.4-0.4-0.5-1.2-0.9-1.2-1.1-2.3-1.4-1.2-1.1-0.6-0.7-0.6-0.8-0.3-0.8 0.1-0.7-3.7-4-0.9-0.7-0.8-0.2-0.8-0.1-1.9 0.3-1 0.4-0.5 0.4-0.2 0.4-0.8 2.5 0 0.6 0.3 1.4 0.1 1.5 0.4 0.9 0.4 0.4 2.5 2.4 1.9 2.2 1.1 0.9 1.7 0.8 0.7 0.7 0.1 0.7-0.3 0.6-0.8 0.7-0.9 0.4-0.7 0.1-0.8 0.1-1.3-0.2-0.5-0.1-1.8-1.1-0.6-0.2-1 0.1-0.7 0.2-1.7 1.1-1.7 0.7-1.5 0.4-3.6 0.5-0.6-0.9-1.4-2.4-0.3-0.5-0.9-0.8-2.9-2.3-0.6-0.6-0.4-0.5-0.9-2.2-0.5-2.1-1.5-4-0.8-1.6-0.5-0.6-0.7-0.5-1-0.5-1.7-0.4-0.7 0-0.4 0.1-2.2 0.8-1.1 0.2-0.7-0.1-0.7-0.2-1.1-0.7-1.7-1.3-1-0.3-4.7 0.4-1.9 0.4-1.5 0.1-0.8-0.1-1-0.5-0.6-0.5-1.2-1.2-2.1-1.5-0.8-0.7-0.4-1 0-0.6 0.2-1.7 0-0.7-0.2-0.7-0.6-1.2-0.8-1.3-0.4-0.5-1-1.1-1.1-1-2.3-1.6-0.5-0.6-0.6-0.9-0.7-1.3-0.5-0.7-2.3-2.8-0.4-0.8-0.3-0.7-0.3-2.2-0.1-0.7-0.5-1-1.7-1.8-0.4-0.7-0.2-0.8-0.1-0.9-0.2-5.3-0.4-2-0.5-1.9-0.2-0.6 0.2-0.9 0.5-0.4 1.1-0.9 1.2-0.9 0.8-0.8 0.4-1 0-0.7-0.3-1-1-1.3-1-1.6-0.6-0.6-0.6-0.5-1.8-0.8-0.8-0.6-0.3-0.4 0-0.9 0.4-1 0.6-0.8 0.7-0.5 0.5-0.2 2-0.5 0.7-0.4 2.3-2.1-2.6-3.3-1.5-2.1-0.7-0.7-1-0.9-3-1.8-0.7-0.5-0.5-0.7-3.9-5.6 0.3-0.9 0.7-0.9 0.5-0.5 2.3-2 3.3-4 0.3-1 0.1-1.6 0.2-0.6 0.3-0.6 0.4-0.5 1.3-1.2 0.5-0.6 0.3-0.5 0-0.6-0.3-0.7-1.1-1.4-2.6-2.5-0.4-0.5-0.4-0.8-0.2-0.8-0.1-0.9 0.1-1.8 0.2-0.9 0.8-1.8 0.5-0.9 0.4-0.4 0.9-0.6 1.1-0.6 2.4-0.9 1.8-1 1.7-0.6 2.1-0.1 0.4-0.1 1-0.7 1.2-1.6 0.3-0.7 0.1-0.5 0-0.6-0.2-0.5-1.2-1.8-0.2-0.7 0-0.8 0.3-0.6 0.2-0.1 2.6-2.8 0.6-0.7 0.5-0.8 0.4-0.8 0.2-0.8 0.2-1.6 0.4-0.9 0.5-0.6 1.4-1.2 1.2-1.4 2.8-2 0.5-0.6 0.5-0.6 0.4-1.1-0.1-1.2-0.4-1.2-1-2-0.1-0.7 0.2-0.6 0.4-0.2 1.4 0.2 3 0.8 1.2 0.1 0.8-0.2 1.8-0.9 0.9-0.4 0.8-0.1 0.7 0.1 1.1 0.3 1.9 1.1 1.2 0.4 0.9 0.2 1 0 1 0 0.9-0.2 3.4-1.2 1.7-0.4 0.7 0 0.9 0.2 1.7 0.6 2.2 0.5 0.9 0.4 0.5 0.4 1.5 1.9 0.8 1.3 0.4 1.1 0.2 0.4 0.5 0.4 2.2 0.9 0.9 0.6 1.3 1.4 1.6 2.1 0.5 0.6 0.4 0.3 2.7 1.8 1.1 0.4 0.9 0.2 2 0.2 0.9 0.2 1.1 0.5 1.3 1 1.1 0.5 2.3 0.8 0.8 0 0.6-0.3 0.4-0.3 0.8-1.1 0.4-0.6 1.4-2.5 0.5-0.4 0.4-0.2 1.3-0.1 1.4 0.2 0.9 0.4 0.4 0.5 0.3 0.6 0.6 2.2 0.4 0.7 1.5 2.1 0.4 0.7 0.1 0.7 0.1 1.6 0.3 1 0.8 1.2 0.2 0.6 0.4 1.2 0.3 2.3 0.2 0.6 0.4 0.6 0.3 0.4 1 0.7 1.3 0.7 1.4 0.5 4.2 1.9 1.4 0.5 0.6 0.3 1.8 1.8 1.6 1.2 1 0.7 0.3-1.9 0.3-1.1 0.3-0.7 1-2.2 0.4-1.1 0.3-0.4 0.5-0.4 0.5-0.2 1.9-0.5 3-1.4 0.4-0.3 0.4-0.5 0.4-0.6 0.7-1.6 0.7-2.4 0.1-1 0-1.9-0.4-2.6 0-0.7 0.1-0.7 0.9-2 0.8-2 0.4-0.7 1.7-2.1 0.5-0.7 0.8-1.6 0.6-2.1 0.8-1.6 0.5-0.7 1.8-2.1 0.6-0.7 0.4-0.8 0.3-0.7 0.4-2.2 0.2-0.6 0.4-0.6 0.4-0.3 0.9-0.4 1.2-0.4 1.5-0.3 0.9-0.3 0.5-0.5 0.4-0.6 0.4-0.9 0.1-0.7 0-0.7 0-0.7-0.3-1.8 0.1-1.5 0.4-1.7 0-0.7 0-0.8-0.3-0.7-0.3-0.6-1.8-1.9-0.5-1-0.5-2.2-0.2-0.7-0.4-0.7-1.5-1.7-0.2-0.5-0.1-0.9 0.2-2.4 0.1-3-0.2-1.9-0.2-0.9-0.4-0.6-1-1-0.7-0.4-1.8-1-1-0.8-0.7-1-0.2-0.8 0.1-0.9 0.2-0.6 1.9-3.1 0.3-0.4 0.6-0.5 0.8-0.6 0.9-1 0.3-0.4 0.7-1.3 1.4-2.1 0.3-0.7 0.3-0.7 0.4-1.7 0.5-1.7 0.6-1 0.6-1.2 1.4 2.1 1.4 1.7 2.2 1.9 3.5 3.3 0.6 0.5 0.7 0.4 1.1 0.4 0.7 0.1 1-0.1 0.6 0.1 1.9 0.7 0.9 0.2 4.5 0.4 0.8 0.2 2.7 0.9 0.7 0.2 1.5-0.1 0.7-0.2 0.6-0.3 1.3-1.5 0.6-0.6 0.9-0.5 1-0.4 0.8-0.2 0.9 0 1.8-0.1 1.8 0.1 1.8 0.2 1.1 0.4 0.7 0.4 2.6 1.9 0.7 0.6 0.8 1 1.1 2.4 0.3 0.4 0.9 0.7 1.6 0.7 2.4 0.8 2.5 0.7 3 0.4 0.9 0.4 0.5 0.5 0.7 1 1 2.4 1.1 2.3 0.2 0.6 0.1 0.7-0.1 0.5-0.5 1.1-0.5 0.9-0.7 0.9-1.1 1.3-1.4 2-0.9 0.8-1.7 0.8-0.8 0.5-0.6 0.7-0.2 0.4 0.1 1.2 0.2 1.2 0.7 2.2 0.1 0.7 0 0.7-0.1 1-0.1 0.7 0.1 0.6 0.3 0.5 0.4 0.4 1.2 0.7 0.6 0.5 0.4 1.1 0.4 1.4-0.1 0.2z" id="SRB844" name="Zajecarski" data-id="SRB844" data-name="Zajecarski">
 </path>
 <circle cx="579.3" cy="397.9" id="0">
 </circle>
 <circle cx="143.9" cy="574.3" id="1">
 </circle>
 <circle cx="201" cy="390.1" id="2">
 </circle>
</svg>