<?xml version="1.0"?>
<!--
************* Copyright (c) 2017 Pareto Softare, LLC DBA Simplemaps.com *******************		
************* Free for Commercial Use, full terms at  http://simplemaps.com/resources/svg-license ************
************* Attribution is appreciated! http://simplemaps.com ***************************
-->
<svg baseprofile="tiny" fill="#7c7c7c" height="825" stroke="#ffffff" stroke-linecap="round" stroke-linejoin="round" stroke-width="2" version="1.2" viewbox="0 0 1000 825" width="1000" xmlns="http://www.w3.org/2000/svg">
 <path d="M338 797.8l-0.6 0-0.3-0.2-0.4-0.6-0.4-0.4 0.4-0.6 1.1-1.4 0.6 0.1 0.5 0.4 0.7 0.8 0 0.2 0.2 0.7-0.4 0.5-0.7 0.4-0.7 0.1z m-216.5-409.5l-0.2 0.6-0.6-0.3-0.8-0.3-0.4 0-0.2 0.1 0-0.9 0.2-0.6 0.5 0 0.5 0.3 1 1.1z m-63.3-112.6l0.2 0.5-0.9-1.1-0.7-0.7 0-0.7-0.1-0.5 0.3-0.1 0.9 1.4 0.3 0.8 0 0.4z" id="SAU99" name="" data-id="SAU99" data-name="">
 </path>
 <path d="M610.1 788.2l-0.1 0.1-5.4 3.2-5.8 3.4-1.4 0.6-1.5 0.2-6.9-0.3-0.6-0.4-4-5.6-6.6-9.2-1.8-1-18.3 2.5-20.5-2.1-11.8-1.2-10-1-2.2-0.8-7.7-4.5-2.6-0.5-15-0.1-9.6-0.1-1.1 0.2-2.9 1.2-1.4 0-3.2-0.6-2.9-0.1-4.6 0.4-3.6 0.9-0.9 0.1-2-0.6-1-0.2-0.7 0.6-0.7 1.2-0.7 0.9-0.9 0.4-1.2-0.2-1.9-0.9-0.8-0.1-1 0.5-0.7 0.9-0.6 1-0.8 0.7-1.1 0.2-0.5-0.2-0.3-0.1-0.4-0.6 0.2-1 0-0.6-0.3-0.1-1.1 0.3-0.9 0.1-1.8-0.2-1.8 0.2-0.9 0-0.9-0.3-2-1.6-2.4-2.7 0-1.6 1.3-5-0.1-2.6-0.9-3.1-0.2-1.2 0.1-1.3 0.4-2 1.2-11.1-0.1-2.1-0.5-2-0.7-2.2-0.5-2.2 0-1.3 0.5-1.4 0.9-1.8 1.2-1.6 7.7-8.1 5.3-4.6 1.5-1.6 0.6-0.8 0.6-1 1.1-2.7 0.6-1.2 1-1.2 1.2-0.7 1.1-0.5 3.2-0.7 2.1-0.7 2.2-1.1 2.1-1.4 0.9-0.9 0.7-0.9 0.6-1 0.5-1.3 0.3-1.3 0.2-1.9 0-1.7-0.3-2.3-1.6-6.4 0-1.2 0.3-1.3 1.1-1.8 1.1-1 3.2-1.6 0.7-0.6 0.5-0.7 0.3-1.1 0.2-1.6 0-6.4 13.2 8.3 3.4 1.7 2.5 1 4.5 1.1 12.2 0.8 111-12 6.2-1.8-15 121.8z" id="SAU1096" name="Najran" data-id="SAU1096" data-name="Najran">
 </path>
 <path d="M625.1 666.4l-6.2 1.8-111 12-12.2-0.8-4.5-1.1-2.5-1-3.4-1.7-13.2-8.3-0.8-0.5-18.6-17.3-4.6-7.7-2.7-3.2-0.8-1.2-0.3-1.6 0-1.3 1.9-8.6 0.9-1.9 2.8-4.4 0.4-0.9 0.3-1.1 0.1-1.2-0.1-0.9-0.3-1.1-0.6-1.2-4-4.3-2.8-3.8-1.5-2.5-2.6-3-6.9-6.3-12.4-18.5-0.5-1.1-0.3-1-0.1-1.1 0.1-1 1.9-7.4 0.3-2.2-0.6-8.5 0.1-1.1 0.4-1 0.6-0.9 1.4-1.9 0.6-1 0.5-1 0.3-1.1 0.1-1.1 0-1-2.3-17.1 0-2.1 1.3-7.5 0-0.3-0.8-0.8-0.9-0.4-1-0.4-5.6-1-1.1-0.1-1 0.2-5.6 1.5-1.1 0.1-1.1-0.1-2.1-0.7-1-0.7-1-0.9-1.1-1.9-0.3-1.3 0-1.3 0.3-5.2 0.7-2.3 0.2-0.9-0.2-1-0.7-1.1-1.3-1.1-1.2-0.6-1.1-0.4-2.2-0.5-10.3-0.8-7.3 0.1-1.8-0.3-1-0.3-1-0.5-1-0.6-0.9-0.8-0.7-0.8-0.5-0.7-6.1-14.6-1.4-7.4-0.4-1.3-1.2-2.7-2.5-8.2-1-1.6-0.9-1-1-0.8-1.8-1-0.5-0.5-0.6-0.8-0.3-1-0.1-3.3 0.4-4.9-0.1-4.8 0.6-8.8 0.8-4 0.2-2-0.1-1.2-0.6-1.7-0.1-0.4 0-0.8 0.3-0.8 0.7-1.2 2.2-2.9 0.2-0.2 0.6-1.5 0.6-2.3-0.1-1.8 0.9-2 3.2-4.8 0.6-0.6 1.3-1 1.1-0.6 1.1-0.1 1 0.2 5.1 2.5 2.1 0.8 3.3 0.9 8.6 0.9 2.4-0.1 6.7-1 2.2 0.1 3.7 1.1 1 0 0.9-0.3 1.2-0.5 1.1-1 1-1.3 0.7-1.9 0.1-1.4-0.4-1.3-1.2-2.1-0.5-1.1-0.2-1 0.2-1.3 0.7-1.4 4.6-6.2 4.5-4.5 1.1-0.8 1.1-0.6 15.9-3.7 1.9-0.9 1.1-0.9 2.6-2.4 3.4-2.2 1-1 0.9-1.5 1.7-3.5 1.3-1.8 0.8-0.8 0.6-0.5 0.8-0.5 0.9-0.5 1-0.3 1.1-0.2 2.2 0 10.1 1.3 11.3-0.8 4.3 0.4 1-0.1 0.9-0.4 0.5-0.8 0.4-1 0.2-1.1 0.1-1.5-0.1-1.8-0.4-3.2-0.5-1.8-0.7-1.6-1.3-2.3-0.3-1.3 0.2-1.5 0.5-2.5-0.3-1.6 0-0.2-3.6-4.9-4.2-7.1-1.2-1.4-3.7-3.7-0.8-1.1-0.5-1.1-0.2-1-0.1-1.2 1-6.8 0-2.4-0.3-2.4 0.1-1.2 0.9-1.2 1-0.6 1.2-0.4 1.8-0.4 0.6-0.3 0.8-0.7 3.4-5.1 1.8-2 2.1-1.9 1.2-0.9 1.2-0.6 2.3-0.9 1.1-0.5 0.9-0.7 0.7-0.9 0.3-0.8 0.2-0.7 0-1-0.1-0.9-0.3-1.1-0.4-1.2-0.6-1.1-0.8-1.1-1-1-1.9-1.7-2.2-1.5-3-1.3-0.3-0.7-0.5-1.9-0.1-1.1 0.1-1.1 0.1-1.1 0.5-1.7 0.8-1.6 1.3-2.2 1.2-1.5 1.5-1.5 0.7-0.5 2.8-1 0.9 0.7 1 1.3 0.9 0.7 1 0.5 1.1 0.1 1.2-0.6 1-0.6 1.9-2.8 0.5 0.3 4.1 2.9 2 2 0.8 1.1 0.6 1.2 1.3 4.7 0.6 1.4 1.2 1.5 1 1 13.5 7.8 2.1 0.6 3.5 0.3 1.1 0.2 1 0.6 0.9 0.8 3 3.6 4.5 4.4 2.1 1.4 1 0.5 2 0.4 7.8 0.2 2.1 0.4 2.1 0.8 3 1.7 11.7 8.4 1.1 0.5 1.1 0.4 1.1 0.2 1.1 0 7.1-1.2 1.1 0 1.1 0.4 1.1 0.6 7.8 7.7 1.2 2 0.9 1 1 0.6 15.2 6.1 0.6 0.4 0.6 0.7 0.7 0.9 0.4 1 0.3 1 0.3 1.7 1.1 70.5 0.4 2.3 0.3 0.8 0.7 1.1 0.8 0.9 16.8 12.2 11.9 12.1 1.9 2.4 2 3.4 2 4.5 1.2 3.7 0.7 6.3-0.3 11.6-13.5 110.7-12.7 99.7z" id="SAU1097" name="Ar Riyad" data-id="SAU1097" data-name="Ar Riyad">
 </path>
 <path d="M711.3 261.7l1 0.4 4.9 1.4-0.9 0.3-0.7-0.2-0.7-0.3-0.8-0.2-0.8 0.1-0.7 0.3-0.7 0.5-0.6 0.5-0.4-0.4-0.2 0.1-0.7-0.4 0-0.3 0.7-0.3 0.1-0.3-0.2-0.3-0.4-0.4-0.5-0.2-0.5 0-1 0.4-0.6 0.2-0.6 0.6-0.5 0.9-0.4 0.8-0.1-1.3 0.9-1.4 1.4-1 1.4-0.3 0.5 0.1 0.4 0.2 0.7 0.5z m-101.2 526.5l15-121.8 12.7-99.7 13.5-110.7 0.3-11.6-0.7-6.3-1.2-3.7-2-4.5-2-3.4-1.9-2.4-11.9-12.1-16.8-12.2-0.8-0.9-0.7-1.1-0.3-0.8-0.4-2.3-1.1-70.5-0.3-1.7-0.3-1-0.4-1-0.7-0.9-0.6-0.7-0.6-0.4-15.2-6.1-1-0.6-0.9-1-1.2-2-7.8-7.7-1.1-0.6-1.1-0.4-1.1 0-7.1 1.2-1.1 0-1.1-0.2-1.1-0.4-1.1-0.5-11.7-8.4-3-1.7-2.1-0.8-2.1-0.4-7.8-0.2-2-0.4-1-0.5-2.1-1.4-4.5-4.4-3-3.6-0.9-0.8-1-0.6-1.1-0.2-3.5-0.3-2.1-0.6-13.5-7.8-1-1-1.2-1.5-0.6-1.4-1.3-4.7-0.6-1.2-0.8-1.1-2-2-4.1-2.9-0.5-0.3-0.6-0.7-1.2-1.8-0.4-1.1-0.2-1.1 0-0.9 0.1-0.9 0.4-1.6 1.2-3 1-1.8 8-9.6 2.3-3.4 16.7-31.6 2.8-4.3 3.7-4.1 4.7-4.4 6.6-3.6 22.4-8.5 0.6-0.8 5-1 10.6 1.3 10.6 1.3 18.9 2.5 2.6 0.4 2.9 4.9 2.6 7.2 0.2 1.4 0.2 2.9 0.5 1.6 0.6 1.6 0.7 1.2 1.1 1 1 0.8 0.9 0.9 0.4 1.4 19.4-0.2 16.9-0.2 1.1 1.2 0.6 0.4 1.2 0.6 0.2 0.4 0.4 2.4 0 1.8-0.4 1.2-1.1-0.4-0.2 0.3-0.1 0.4 0.9 0.1 0.8-0.2 0.6-0.5 0.3-0.9 0.5 0.4 0 0.5-0.5 1-0.3 1.4-0.1 0.6 0.3 1.3 0.6 1.1 3.9 4.4 0.3 0.6-0.7 1-0.3 1-0.1 1.1 0.3 1.1 0.5 0.9 1.5 2.1 0.3 0.5-0.2 0.9 0.8 0.4 1.6 0.8 0.5 0 1.6 0 0.5 0.1 0.9 0.5 0.6 0.1 0.2 0.2 0 0.3-0.4 0.6-0.3 0.2-0.7-0.2-0.8 0.4-0.2 0.4 0.1 0.7 0.4 0.7 1 1 1.1 0.9 0.8 0.4 0.1 0.2 1 1.6 1.9 1.9 0.3 0.5-0.5 1.1 0 0.7 0 0.6 0.2 0.3-0.1 0.4-0.4 0.8-0.6 0.9-0.7 0.5 0.3-0.6 0.1-0.5-0.1-1.3 0.1-0.7 0.3-0.5 0.2-0.4-0.2-0.8-0.7 0.8-0.8 2-0.8 0.5 0.9-2.3 0.1-0.6-0.3-1-0.4 0-0.4 0.8-0.9 3.7 0 0.9-0.3 0.5 0.1 0.3 0.5-0.1 0.3-0.2 0.3-0.9 0.4-0.4 0 2.4 0.2 0.6 0.4-0.1 0.5-0.4 0.2-0.6 0.3 0.6 0.1 0.7-0.1 0.9 0.6 0.2 0.5-0.2 0.3-0.6 0.2-0.5 0.1 0.9-0.1 0.4-0.3 0.2 0.3 0.5-0.1 0.3-0.3 0.2-0.5 0 0.6 1.5-1.1-0.6-0.5 0.1-0.3 0.5 1 0.4 0.8 0 0.7-0.5 0.4-1 0.3 0 0.3 0.8-0.5 0.6-0.2 1 0.2 0.9 0.9 0 0.3-0.4-0.2-0.3-0.4-0.4-0.1-0.4 0.4-0.5 0.5-0.2 1.1-0.3 0.9-0.1 0.7 0.3 1.6 1.6 1.8 0.9 0.5 0.6-1 0.7 0.7 0.3 0.6-0.1 0.3-0.3-0.3-0.7 0.8 0.4 0.9 0.2 1.8 0.2 0.4-0.1 0.8-0.5 0.4-0.2 0.5 0.1 0.9 0.3 0.5 0 1 0.3 0.7 0.7 1.1 1.6 0.3 0.3 0.7 0.4 0.3 0.4 0.1 0.4 0.1 1 0.1 0.4-0.6 0-0.3-0.2-0.1-0.5 0.1-0.7-0.4 0-1 1.2-2.6-0.3-0.9 0.9-0.4 0-0.3-0.9-0.8 0-1.8 0.9 0.4 0.2 1 0.3 0.6 0.2 1 0.9 0.6 0.2 0.5 0.6 0.3 0 0.8-0.8 0.3-0.4 0.2-0.5 0.7 0.5 0.4 0.2-0.3 0.8-0.5 0.4-0.4 0.2-0.4 0.5-0.1 0.6-0.1 1.3-0.1 0.7 0.5-0.2 0.6-0.3 0.5-0.4 0.5-0.4 0.5-0.2 0.7 0.2 0.9 0.5-0.3 1.1 0.1 1 0.4 1 0.1 1.1-0.1 2.3 0.3 1 0.8-0.2 0 1 0.3 0.4 0.5-0.1 0.5-0.5-0.2-0.8 0.4-0.5 0.7-0.1 0.7 0.6 0.3-0.4 0.3 0.6-0.2 0.6-0.2 0.6-0.2 0.7-0.1 0.4-0.4 0.1-0.6 0-0.5 0 0.4 0.6 1.1 0.2 0.4 0.6 0.5-0.2 0.3-0.5 0.5-1.1 0.1 0.3 0.3 0.1-0.5 0.9 0.4 0.2 1.2-0.4 0.7 0.1 1.3 0.6 0.8 0-1.3-1.4-0.4-0.8 0.7-0.7 0.6 0 0.9 0.6 0.4 0.2 0.4-0.2 0.9-0.9-0.1 0.8-0.5 1.3 0 0.8 0.3 1.2 0.2 0.7 0.3 0.3 0.9 0.4 0.8 1 2.8 4.3 1.4 1.7 0.4 0.4 1.3 0.6 0.5 0.3 0.7 0.7 0.4 0.4 3 1.4 1.8 1.3 1.1 0.2 1.1-0.1 1.2 0.2 1.4 0.8 1.4 1.4 2.4 3.2 0.8 1.5 3.4 2.5 0.8 0.8 0.2 1.4-2.2-1.9-1.1-0.8-2.6-0.3-0.7-0.2-0.4-0.6-0.4-2-0.4 0.4-0.4 0.9-0.3 0.8 0 1.3 0.2 0.6 0.3 0.5 0.5 0.5 0.1 0.3-0.2 3.2 0.1 0.9 1.3 4.1 0.5 0.8 0.8 0.8 0.8 0.5 4.1 1.4 1.4 1.3 0.8 1.8 0.4 2.4-0.1 5.8-0.1 1.2-0.5 1.1-1 0.6 0-0.8-0.3-0.3-0.6 0.2-0.4 0.5 0.3 1.4-0.1 2-0.4 2.1-0.4 1.4-0.7-0.5-0.2-0.8 0-0.8-0.1-0.8-0.3-0.6-0.5-0.5-0.4-0.3-0.6-0.6-0.4-0.1-0.1-1.5-0.3-0.8-0.4-0.5-0.5-0.6-0.7-0.3-0.5 0.2-1.2 2.4-0.4 0.3-0.5 0.3 0.2 0.8 0.5 0.6 0.3 0.3 0.1 0.4 0.4 0.8 0.1 0.5-0.8 0.4-0.2 0.4 0.1 0.8 0.2 0.7 0.1 0.8-0.4 0.8 0.8 0.3 0.7-0.4 0.3-0.8-0.2-0.9 0.5 0.2 0.3 0.2 0.6 0.7 0.2 0.1 0.4 0 0.1 0.9 0.4 0.1 1.2 0.3 0.5 0.7 0.2 0.9 0.6 1 0 0.3-1 1 0.5 2.5 1.1 2.7 1 1.8 2.8 3.4 1.2 2 0.5 2.5-0.3 0-0.8-2.5-0.4-0.4-0.5-0.1-0.7-0.4-0.6-0.4-0.6-0.8-0.8-0.6-0.6-0.1-0.2 1 0.4 0.7 1.2 0.9 0.3 0.6 0.4-0.8 0.3 0 1.8 3.8 5.4 7 1.2 1.1-0.1-0.7-0.3-0.8-0.1-0.7 0.4-0.3 0.5-0.2 0.2 0.1 0.2 1.1 0.6 0.6 0.3 0.7 0.9 0.5 1.6 0.4 0.4 0.6 1 2.3-0.4 0.4 0.6 0.8 0.6 1.4 0.6 1.5 0.2 1.1-0.1 0.7-0.2 1.2-0.1 0.6 0.1 0.7 0.5 0.8 0.2 0.9 0.7 1.3 0.1 0.8-0.3 2.2 0.4 2.1 0.4 1.2 0.5 0.6 0.4-1 1.2 1 1.3 1.7 0.6 0.8 0.8 0.8 0.9 3.5 1.2 0.8 0.9 0.9 0.4 2 0.1 3.2 0.2 0.6 0.4 0.9 0.5 0.9 0.5 0.4 0.8 0 1-1 3.4 5.8 2.3 2.5 2.4 1.1 2.8 0.4 2.7-0.1 2.5-0.8 3.2-2.6 0.1 0.5 2.4-0.4 0.5 0.3 0.4 0.5 0.4 0.3 0.5-0.4 0.1 0.4-0.1 0.5-0.2 0.4-0.6 0.4 0.1 0.6 0.4 0.6-0.2 1.7 0.3 0.3 0.8-0.3 0.7-0.5 1.3-2.3 0.7-0.7 0.6-0.4 0.3-0.6 0-1.2 0.7 0.4 0.9 0.1 0.7 0.1 0.3 0.7 0.3 0.7 0.5 0.1 0.8 0 0.7 0.4 0 0.4-0.8 0.4-1 0.3-0.8 0.4-0.4 0.9-0.1 0-1.1 1.2-0.2 0.4-0.3 0.7-0.2 0.3-2.8 2.1-0.6 0.9-0.6 0.8-0.2 0.5-0.1 0.5-0.1 1.2-0.1 0.4 0 1-0.2 0.1-0.5 0-0.3 0.2-0.1 1.1 0.1 0.6 0.2 0.2 2.9 0.3 1.1-0.3 0.6-0.3 0.4-0.4 0.4-0.2 0.7-0.1 3.2 0.6 0.8 0.7 1.4 1.6 2.1 0.6 0.3 2-0.1 1.3-0.1 3.4 0.3 1.3 0.7 1.2 10.1 13.2 7.4 9.6 2.5 3.3 9.9 12.8 4.9 6.4 7.4 9.6 2.6 3.3 0.9 0.8 1.2 0.4 20.8 2.7 32.9 4.4 19.8 2.7 13.2 1.7 6.5 0.9 13.2 1.8 13.1 1.7 0.7-0.1 3.1-4.1 6.9 11.4 7.6 12.8 6.4 10.6 0.5 1.2 0 1.1-2 6.6-2.6 8.3-3.8 12.5-4.9 15.7-2.6 8.3-7.4 23.9-3.9 12.4-1.3 4.4-2.7 8.7-15.3 5.4-24.3 8.6-16.2 5.8-8.1 2.9-16.2 5.7-8.1 2.9-16.3 5.7-8.1 2.9-16.2 5.7-8.1 2.9-5.3 1.8-22.6 3.2-30.4 4.4-7.6 1-7.5 1.1-15.2 2.2-7.6 1.1-38 5.4-6.1 0.8-4.4 1.7-8.9 4.6-17.2 8.8-14.2 7.3-1.1 0.8-3.7 4.6-4.3 5.4-7.4 9.5-11.7 14.6-0.8 1.6-5.4 15-1.4 1.8z" id="SAU1098" name="Ash Sharqiyah" data-id="SAU1098" data-name="Ash Sharqiyah">
 </path>
 <path d="M249.4 298.7l0.9 2.2 0.2 1 0.1 1.4 0 1.2-0.5 1.9-0.2 0.6-1.7 3.2-0.6 1.6 0.1 1.3 0.5 1.1 0.9 0.8 1 0.4 1.1 0.1 2.3-0.4 1.1 0 1 0.9 0.5 1 0.1 1.2-2.6 17.7 0 1.6 0.1 1.3 1.5 5.8 0.9 5.3-0.5 13.9 0.3 1.5 0.5 1.2 0.7 1 0.7 0.8 0.6 0.4 0.8 0.4 1 0.4 1.1 0.1 1.1 0 1.1-0.2 11.8-4.2 2.4-0.4 5.6 0.2 2-0.2 1-0.2 1-0.3 0.6-0.3 0.9-0.4 0.9-0.7 0.9-1 3.5-4.3 1.1-1 1.3-0.8 1.6-0.6 1.3-0.3 8.2-0.3 13.2 2.1 4.1 1.1 1.2 0.4 6.2 1.5 2.1 0.8 0.9 0.6 0.8 1.1 0.3 1.2 0.2 1.3-0.9 13.6 0.2 1.1 0.4 1.2 0.9 1.5 1.1 0.8 1.1 0.6 6.1 1.7 0.8 0.4 0.6 0.4 0.8 1.5 0.8 2 2.5 9.8 0.9 2.2 0.6 0.9 0.8 0.8 4.1 3.1 0.1 1.8-0.6 2.3-0.6 1.5-0.2 0.2-2.2 2.9-0.7 1.2-0.3 0.8 0 0.8 0.1 0.4 0.6 1.7 0.1 1.2-0.2 2-0.8 4-0.6 8.8 0.1 4.8-6.2-0.9-3 0.2-1 0.4-1 0.7-0.6 1-0.2 1 0.1 1.1 1.2 3.4 0.2 1.1 0.1 1.1-0.1 2.3-0.3 1.3-0.7 1.3-1.2 2-1.2 1.1-1.1 0.9-8.4 3.7-6.2 3.5-2.1 1.6-1.4 1.5-0.5 1.3 0.3 1.1 0.8 0.9 1 0.8 5.2 2.8 0.8 0.8 0.3 1.1-0.5 1.5-0.9 1-1.1 0.6-5.5 2-1.3 0.9-1.5 1.2-6.6 6.6-13.5 10.7-1.8 2.2-3.4 5.3-1.3 1.3-1.1 0.5-1.1 0.1-7.3-2.3-1.1-0.1-1.5 0.3-2 1.2-4.8 4.1-1.2 0.7-1.2 0.3-1 0.1-1.1 0-3.1-0.5-0.2 0-1-0.6-0.5-0.9-0.2-1 0.1-1 0.5-2.1 0.3-2.2-0.1-1.1-0.2-1.1-0.5-1-0.7-1-0.9-0.9-0.9-0.6-1.4-0.7-3.2-1-0.9-0.4-0.6-0.9-0.2-1 0.3-1 2.6-6.2 0.2-0.9 0.4-2.5-0.1-1.6-0.2-0.9-0.3-1-0.5-0.9-0.9-0.7-1-0.3-1-0.1-4.5 0.6-10.1 3.1-3.6 0.7-1.1-0.5-0.5-0.8-0.2-2.1-0.2-1-0.5-0.9-0.9-0.5-1.4 0-5 0.9-1.9 0.1-1.6-0.3-1.1-0.7-1.1-0.9-3.7-4.4-3.8-3.4-0.6-0.7-2-3.2-0.9-0.9-1.3-0.4-1.4 0.2-3.4 0.7-5.9 0.5-1.4 0.2-0.3-2.5-0.3-1.2-0.1-0.9-0.8-0.8-0.4-0.6-0.1-0.9-0.1-0.8-1 0.6-0.5-0.3-0.4 0 0 0.8 0.5 0.5 1.2 0.4 0 0.4-1.6-0.2-1-0.9-0.1-2.5-2.1-2.8-1.1-3.5-0.3-1.2-0.2-1.3-0.4-1.2-0.7-0.9-0.5-0.3-0.5-0.1-0.8-0.3-0.4-0.5-0.3-0.7-0.3-0.9-0.6-0.8-1.6-0.4-0.6-0.4-0.5-0.4-0.4-0.8-0.8-1-1.2-0.8-0.9-0.3-0.8-0.1-1.1-0.8-0.6-0.5-1-0.8-0.9-1.2-0.9-0.7-0.9-0.8-1.4-1.4-0.7-0.2-0.9 0.4-1-0.7-0.8-0.6-1.9-1.3-1.5-1.1 0.3-0.6 0.8-0.6 1.2-0.2-0.5-0.5-0.7 0.2-0.9 0.5-0.3-0.7 0.5-0.8 0.2-0.9-0.5-0.2-0.3 0.4-0.6 0.1-0.3 0.5 0.3 0.3 0.2 0.5 0.1 1.1-0.3 0.3-1.1-0.4-1.4 0.4-2.1-1.6-0.7-0.6-1.8-1.5-0.5-1.1-0.6-0.4-0.8-0.4-0.8-0.5-0.7-0.6-1-0.6-1.1 0-0.5-0.1-0.7 0.6-0.2 0.7 0.3 1-2.1 0.1-0.5-0.8-1.3-0.7-1.1 0.4-1.1-1.1-0.6-1.2-1.1-1.5-1.7-1.4-0.5-1.8 0.5-1 0.3 0.1 1 0.6 0.3-0.8-0.3-1-3.5-5.1 0.1-0.3 0.6-3.1 0.3-0.9 0.6-1 0.7-0.8 1-0.5 0.9-0.2 3.9 0 1.8-0.3 1.1-0.3 1.1-0.4 1.2-0.8 1.1-1.1 1.3-1.6 1-1.1 1.1-0.6 1-0.2 1 0.1 2.2 0.3 2.3 0.1 1.2-0.2 1.1-0.5 1.1-0.9 0.9-1.3 0.5-1 0.2-0.8-0.6-17.2 1.7-11.9-0.1-1.1-0.4-0.9-0.6-0.6-0.6-0.4-1-0.2-3-0.1-0.8-0.3-0.4-0.2-0.4-1.1-1.7-6.4-1.5-4-0.7-1.4-0.7-1-0.8-1.1-6.2-5.2-0.8-1-0.6-1-0.4-1.2-0.7-2.8-0.5-0.5-0.7-0.6-8.5-4.9-1-0.2-1 0.4-1.8 1.4-0.7 0.2-0.4-0.6-0.3-0.9-0.4-2.2-0.7-2.1-2.8-5.6-0.3-1.1-0.1-1.1 0.1-1.1 0.2-1.1 0.9-2.1 2.9-4.8 0.3-0.9 0.3-1.1-0.1-1.3-0.5-1.2-0.8-1-1-0.6-5.5-1.6-1.1-0.4-1.1-0.8-1-0.9-0.8-1.1-0.6-1.1-0.5-1.1-0.3-1.2-0.2-1.2-0.1-2.3 1-7.2 0.1-3-0.1-1.3-0.7-3.3-0.4-0.9-0.4-0.6-0.7-0.8-0.8-0.6-0.9-0.3-0.6-0.1-0.9 0-3 0.6-1.1-0.1-0.8-0.5-0.2-0.9 0.3-0.9 0.9-0.8 1-0.5 5.4-1.4 12.2-5.8 1-0.3 1.3 0 1.5 0.3 2.1 0.9 4 2.5 1.4 0.6 2 0.4 1.1 0 1.1-0.2 1-0.3 8.9-4.9 0.8 0 0.9 0.2 1.2 1 0.7 0.9 0.4 0.9 1.4 4.9 0.9 2.2 0.9 1.8 2.7 4 1 1 1.4 0.7 2 0.4 4.8 0.2 1.1 0.1 0.9 0.4 0.8 0.6 0.5 0.8 0.1 0.6-0.1 0.9 0.1 0.8 0.4 1 0.7 0.8 2.9 1.9 0.8 0.9 0.4 1 0 1-0.2 1.1 0 1.1 0.5 0.8 0.9 0.3 1.5-0.4 1.3-0.8 4.2-3.4 0.7-0.3 1-0.2 1.1 0.1 1.6 0.4 3.5 1.7 1.2 0.4 1.1 0.1 1.2-0.6 0.2-0.8-0.1-1-0.3-1.1 0.1-0.9 0.6-0.6 0.9 0.1 1.1 0.9 0.5 1.1 0.8 2.1 1.1 1 1.6 0.9 6 2.2 5.7 4.4 1.8 0.6 2.4 0.3 4.8 0 19.6-3.1 1.1 0.1 1.1 0.7 0.8 0.7 1.6 2.4z" id="SAU845" name="Al Madinah" data-id="SAU845" data-name="Al Madinah">
 </path>
 <path d="M477.4 268.6l3 1.3 2.2 1.5 1.9 1.7 1 1 0.8 1.1 0.6 1.1 0.4 1.2 0.3 1.1 0.1 0.9 0 1-0.2 0.7-0.3 0.8-0.7 0.9-0.9 0.7-1.1 0.5-2.3 0.9-1.2 0.6-1.2 0.9-2.1 1.9-1.8 2-3.4 5.1-0.8 0.7-0.6 0.3-1.8 0.4-1.2 0.4-1 0.6-0.9 1.2-0.1 1.2 0.3 2.4 0 2.4-1 6.8 0.1 1.2 0.2 1 0.5 1.1 0.8 1.1 3.7 3.7 1.2 1.4 4.2 7.1 3.6 4.9 0 0.2 0.3 1.6-0.5 2.5-0.2 1.5 0.3 1.3 1.3 2.3 0.7 1.6 0.5 1.8 0.4 3.2 0.1 1.8-0.1 1.5-0.2 1.1-0.4 1-0.5 0.8-0.9 0.4-1 0.1-4.3-0.4-11.3 0.8-10.1-1.3-2.2 0-1.1 0.2-1 0.3-0.9 0.5-0.8 0.5-0.6 0.5-0.8 0.8-1.3 1.8-1.7 3.5-0.9 1.5-1 1-3.4 2.2-2.6 2.4-1.1 0.9-1.9 0.9-15.9 3.7-1.1 0.6-1.1 0.8-4.5 4.5-4.6 6.2-0.7 1.4-0.2 1.3 0.2 1 0.5 1.1 1.2 2.1 0.4 1.3-0.1 1.4-0.7 1.9-1 1.3-1.1 1-1.2 0.5-0.9 0.3-1 0-3.7-1.1-2.2-0.1-6.7 1-2.4 0.1-8.6-0.9-3.3-0.9-2.1-0.8-5.1-2.5-1-0.2-1.1 0.1-1.1 0.6-1.3 1-0.6 0.6-3.2 4.8-0.9 2-4.1-3.1-0.8-0.8-0.6-0.9-0.9-2.2-2.5-9.8-0.8-2-0.8-1.5-0.6-0.4-0.8-0.4-6.1-1.7-1.1-0.6-1.1-0.8-0.9-1.5-0.4-1.2-0.2-1.1 0.9-13.6-0.2-1.3-0.3-1.2-0.8-1.1-0.9-0.6-2.1-0.8-6.2-1.5-1.2-0.4 1.9-1.7 1.9-0.6 2.8-0.3 1.6-0.5 7.6-4.1 1.8-0.8 1.5-0.4 4.6-0.5 1.1-0.3 0.8-0.7 0.3-0.9-0.2-0.8-0.2-0.7-2.3-4.1-0.3-1.2-0.1-1.1 0.3-1.2 0.6-1.2 1.2-1.3 1.1-0.5 1-0.2 0.8 0.3 3.8 1.4 1.1 0.3 1.1 0 0.9-0.3 0.6-0.8 0.1-0.9 0-1.3-0.9-4.3-0.1-1 0.1-1.1 0.2-1.1 0.8-2.2 1-2.2 0.7-0.9 1-0.4 1-0.1 1.1 0.2 1.2-0.1 2.2-0.6 1-0.5 0.6-0.9 0.3-1.2 0.8-1.8 1.4-2.4 5.5-6.4 12.5-10.1 5.7-3.7 10.8-4.7 1.7-1.1 1-1.2 0.7-1.2 1.9-4.3 1.7-2.1 2.3-2.3 3.5-2.3 18-9.2 2.3-0.9 1.2-0.3 1-0.1 1.1 0.2 1.1 0.4 1.1 0.6 1.7 1.5 3.4 3.6 6 4.9 2.1 1.3 1.2 0.4 4.9 0.2 3.2 0.7 1 0 1-0.2 0.8-0.5 0.6-0.5 3.7-5.1 2-1.8z" id="SAU846" name="Al Quassim" data-id="SAU846" data-name="Al Quassim">
 </path>
 <path d="M485.5 252.7l-2.8 1-0.7 0.5-1.5 1.5-1.2 1.5-1.3 2.2-0.8 1.6-0.5 1.7-0.1 1.1-0.1 1.1 0.1 1.1 0.5 1.9 0.3 0.7-2 1.8-3.7 5.1-0.6 0.5-0.8 0.5-1 0.2-1 0-3.2-0.7-4.9-0.2-1.2-0.4-2.1-1.3-6-4.9-3.4-3.6-1.7-1.5-1.1-0.6-1.1-0.4-1.1-0.2-1 0.1-1.2 0.3-2.3 0.9-18 9.2-3.5 2.3-2.3 2.3-1.7 2.1-1.9 4.3-0.7 1.2-1 1.2-1.7 1.1-10.8 4.7-5.7 3.7-12.5 10.1-5.5 6.4-1.4 2.4-0.8 1.8-0.3 1.2-0.6 0.9-1 0.5-2.2 0.6-1.2 0.1-1.1-0.2-1 0.1-1 0.4-0.7 0.9-1 2.2-0.8 2.2-0.2 1.1-0.1 1.1 0.1 1 0.9 4.3 0 1.3-0.1 0.9-0.6 0.8-0.9 0.3-1.1 0-1.1-0.3-3.8-1.4-0.8-0.3-1 0.2-1.1 0.5-1.2 1.3-0.6 1.2-0.3 1.2 0.1 1.1 0.3 1.2 2.3 4.1 0.2 0.7 0.2 0.8-0.3 0.9-0.8 0.7-1.1 0.3-4.6 0.5-1.5 0.4-1.8 0.8-7.6 4.1-1.6 0.5-2.8 0.3-1.9 0.6-1.9 1.7-4.1-1.1-13.2-2.1-8.2 0.3-1.3 0.3-1.6 0.6-1.3 0.8-1.1 1-3.5 4.3-0.9 1-0.9 0.7-0.9 0.4-0.6 0.3-1 0.3-1 0.2-2 0.2-5.6-0.2-2.4 0.4-11.8 4.2-1.1 0.2-1.1 0-1.1-0.1-1-0.4-0.8-0.4-0.6-0.4-0.7-0.8-0.7-1-0.5-1.2-0.3-1.5 0.5-13.9-0.9-5.3-1.5-5.8-0.1-1.3 0-1.6 2.6-17.7-0.1-1.2-0.5-1-1-0.9-1.1 0-2.3 0.4-1.1-0.1-1-0.4-0.9-0.8-0.5-1.1-0.1-1.3 0.6-1.6 1.7-3.2 0.2-0.6 0.5-1.9 0-1.2-0.1-1.4-0.2-1-0.9-2.2 0.7-0.6 0.8-1.1 0.9-1.7 2.8-8.6 1.4-2.9 2.1-2.9 5.8-5.1 1-1 0.7-1.1 0.4-1 0.2-1.2-0.2-1.1-1.1-1.2-1-0.9-5.8-3.1-1.8-1.3-0.7-0.7-0.8-1-0.5-1-5.1-21-0.5-1.2-0.6-1.1-2.8-2.8-5.6-4.6-2.9-1.4-1.4-1-1.1-1-0.1-0.3-1.1-1.2-1.8-1-2.5-1-15.3-3.6-1.1-0.5-0.8-0.4-0.8-1.2 5.1-5.7 1.1-0.8 1.2-0.7 17.9-8.6 8.3-2.3 17.5-10.1 18-7.4 1-0.1 3 0.7 5.4 2.3 2.8 0.8 1.1 0 25.1-5.9 3.4-0.4 2 0 1.5 0.3 11.5 3.8 1.7 0.2 1.3 0.1 1.2-0.2 5.7-1.5 5.1-0.3 1.2 0 16.2 3.8 2.2 0.9 1.1 0.7 1 0.9 5.8 6.9 1.4 1.2 1.6 1 2.3 0.9 1.8 0.3 1.5-0.1 1.4-0.4 1.4-0.5 3.8-2.1 1.3-0.6 1.4-0.3 1.7 0 0.9 0.5 0.5 0.5 0.1 0.5 0.2 4 0.1 0.7 0.3 1.2 0.8 1.6 1.1 1.2 1.6 1.1 1.3 0.4 1.3 0.1 4.7-0.5 1.6 0.2 1.3 0.4 5 2.6 1.9 0.6 1.2 0.2 1.1-0.2 1.9-0.9 5.5-3.6 1.3-0.6 1.7-0.1 1.2 0.5 1.1 0.8 0.8 1.1 8 14.5 4 10.6 1.7 2.3 1.1 1.1 1.3 1 1.6 0.8 1.3 0.4 14.6 2.2 1.6 0.7 2.2 1.2 1.1 0.7 7.8 7.1 1.2 1.5 0.7 1.6z" id="SAU847" name="Ha'il" data-id="SAU847" data-name="Ha'il">
 </path>
 <path d="M116 361.4l0.4 1 0.6-0.2 0.3 1.8 0.5 0.4-0.1 0.2-0.4-0.1-0.2 0.5-0.9-0.6-0.3-0.6 0.1-0.3-0.5-0.1-0.5 0.2-0.4-0.4-0.2-0.8-0.4 0-0.5 0.4-0.1-0.4 0.3-0.9 0.5-0.6 0.5 0 0.7 0.1 0.6 0.4z m-8.4 0.5l0.9 0.4 1.7 0.8 0.8 0.2 0.6 0 0.4 0.3 0.2 0.4-1 0-0.1 0.7 0.4 0.6 0.5-0.1 0.6-0.7 0.7-0.5 0.7 0 0.2 0.2-0.9 0.5-0.4 0.3-0.5 0.6-0.4 0.9-0.8 0.5-1-0.6-0.8-1-0.9-0.7-2-2.2-0.2-0.3 0.2-0.3-0.1-0.3-0.5-0.5-0.5-0.8 0-0.4 0.5 0.2 0.5 0.4 0.8 1 0.4 0.4z m1.5-4.1l-0.2 0.2-0.5-0.1-0.6-0.6 0.1-0.8 0.6-0.4 0.7 0.1 0.5 0.5 0 0.6-0.6 0.5z m-6.1-1.5l2.3 1.6 0.3 0.4 0.2 0.6 0.8 0.4 0.7 0.3 1.1 0.7 1.7 1.4 0.4 0.5-0.1 0.1-0.4 0.3-0.7-0.6-0.6-0.4-0.5-0.1-0.5-0.9-0.4-0.2-0.3 0.1-0.4-0.1-0.5-0.5-0.5-0.4-0.4-0.1-0.3-0.4 0-0.5-0.4-0.2-0.7-0.1 0-0.3-0.4-0.6-0.7-0.5-0.9 0.1-0.5 0.4-0.4 0.1 0-0.5 0.5-0.7 0.7-0.2 0.9 0.3z m9.6-1l-0.1 0.4-0.6-0.1 0.1 0.4-0.1 0.1 0.3 0.8 0.4 1.4-0.2 0.4-0.6-0.8-0.3-0.2-0.2-0.5-0.1-2.5 0.3-0.4 0.4-0.2 0.4 0.2 0.3 0.6 0 0.4z m-17-2.1l1.3 1.3 0.6 0.4 0.6 0.1 0.4-0.1 0.3 0.9 0.5 0.2 0.3-0.1 0.3-0.5 0.4 0.1 0.7 0.4-0.1 0.4-0.3 0.6-0.3 0.2-0.4-0.1-0.6-0.5-3.8-1.9-1-0.3-0.3 0.8-0.5-0.3-0.9-0.9-0.6-0.7-0.3-1.1 0.4-0.9 1.2-1.2 0.5-0.7 0.4-0.2 0.1 0.3-0.3 0.6-0.8 1.2 0 0.5 0.4 0.4 0.3 0.3 0.5 0.1 0.3 0.3 0.7 0.4z m0.9-4.7l0.4 0.3 0.5-0.2 0.2 0.1-0.3 0.5-0.5 0.2-0.6-0.1-0.9-0.8-0.5-0.3-0.4-0.6-0.2-1.6 0.1-2.1 0.8-1.9 1.2-1.1-0.8 1.3-0.4 0.9-0.2 1.1 0.4 0.9 1 0.9 0.6 0.2 0 0.3-0.4 0.7-0.1 0.7 0.1 0.6z m114.3-130.6l0.8 1.2 0.8 0.4 1.1 0.5 15.3 3.6 2.5 1 1.8 1 1.1 1.2 0.1 0.3 1.1 1 1.4 1 2.9 1.4 5.6 4.6 2.8 2.8 0.6 1.1 0.5 1.2 5.1 21 0.5 1 0.8 1 0.7 0.7 1.8 1.3 5.8 3.1 1 0.9 1.1 1.2 0.2 1.1-0.2 1.2-0.4 1-0.7 1.1-1 1-5.8 5.1-2.1 2.9-1.4 2.9-2.8 8.6-0.9 1.7-0.8 1.1-0.7 0.6-1.6-2.4-0.8-0.7-1.1-0.7-1.1-0.1-19.6 3.1-4.8 0-2.4-0.3-1.8-0.6-5.7-4.4-6-2.2-1.6-0.9-1.1-1-0.8-2.1-0.5-1.1-1.1-0.9-0.9-0.1-0.6 0.6-0.1 0.9 0.3 1.1 0.1 1-0.2 0.8-1.2 0.6-1.1-0.1-1.2-0.4-3.5-1.7-1.6-0.4-1.1-0.1-1 0.2-0.7 0.3-4.2 3.4-1.3 0.8-1.5 0.4-0.9-0.3-0.5-0.8 0-1.1 0.2-1.1 0-1-0.4-1-0.8-0.9-2.9-1.9-0.7-0.8-0.4-1-0.1-0.8 0.1-0.9-0.1-0.6-0.5-0.8-0.8-0.6-0.9-0.4-1.1-0.1-4.8-0.2-2-0.4-1.4-0.7-1-1-2.7-4-0.9-1.8-0.9-2.2-1.4-4.9-0.4-0.9-0.7-0.9-1.2-1-0.9-0.2-0.8 0-8.9 4.9-1 0.3-1.1 0.2-1.1 0-2-0.4-1.4-0.6-4-2.5-2.1-0.9-1.5-0.3-1.3 0-1 0.3-12.2 5.8-5.4 1.4-1 0.5-0.9 0.8-0.3 0.9 0.2 0.9 0.8 0.5 1.1 0.1 3-0.6 0.9 0 0.6 0.1 0.9 0.3 0.8 0.6 0.7 0.8 0.4 0.6 0.4 0.9 0.7 3.3 0.1 1.3-0.1 3-1 7.2 0.1 2.3 0.2 1.2 0.3 1.2 0.5 1.1 0.6 1.1 0.8 1.1 1 0.9 1.1 0.8 1.1 0.4 5.5 1.6 1 0.6 0.8 1 0.5 1.2 0.1 1.3-0.3 1.1-0.3 0.9-2.9 4.8-0.9 2.1-0.2 1.1-0.1 1.1 0.1 1.1 0.3 1.1 2.8 5.6 0.7 2.1 0.4 2.2 0.3 0.9 0.4 0.6 0.7-0.2 1.8-1.4 1-0.4 1 0.2 8.5 4.9 0.7 0.6 0.5 0.5 0.7 2.8 0.4 1.2 0.6 1 0.8 1 6.2 5.2 0.8 1.1 0.7 1 0.7 1.4 1.5 4 1.7 6.4 0.4 1.1 0.4 0.2 0.8 0.3 3 0.1 1 0.2 0.6 0.4 0.6 0.6 0.4 0.9 0.1 1.1-1.7 11.9 0.6 17.2-0.2 0.8-0.5 1-0.9 1.3-1.1 0.9-1.1 0.5-1.2 0.2-2.3-0.1-2.2-0.3-1-0.1-1 0.2-1.1 0.6-1 1.1-1.3 1.6-1.1 1.1-1.2 0.8-1.1 0.4-1.1 0.3-1.8 0.3-3.9 0-0.9 0.2-1 0.5-0.7 0.8-0.6 1-0.3 0.9-0.6 3.1-0.1 0.3-3-4.4-2.9-4.1-1.4-1.8 0-1.5 0.1-0.3 0.1-0.6-0.1-0.5-0.1-0.3-0.4-0.2-0.6 0.6-0.5 0.1-0.8-0.5-0.6-0.9-0.9-1.8 1.2 0 1.1 0.2 1.1 0 1.2-0.4 0.6-0.9 0-2.6 1.1-2.2-0.2-1.2-0.9-2.2-0.3-1.3 0.3-3.1-0.1-1.1-0.2-1.2-0.4-1-0.6-1-0.9-1.1-0.5-0.5-0.5-0.3-0.5-0.5-0.4-0.9-0.4-0.4-1-0.8-0.9-1-0.8-1.2-0.6-1.2-0.1-0.5-0.1-1.2-0.1-0.4-0.3-0.5-0.7-0.8-0.3-0.5 0.9-0.6-0.7-1.2-2.1-2.2-0.4-0.6-0.8-2.3-0.2-0.3-0.7-0.5-0.2-0.3-0.1-0.3 0.1-0.6-0.6-0.9-0.7-1.6-0.3-0.5-0.6-0.5-1.4-0.6-0.6-0.3-1.9-3-1.2-1.5-1-0.1-0.1 0.6 0.3 0.6 0.2 0.5-0.5 0.3-0.6-0.1-1.5-1.1-0.7-0.2-0.4-0.3-1.1-1.4-0.3-0.5-0.1-0.3 0.1-1.1-0.1-0.3-0.6-0.2-0.3-0.2-0.5-1.4-0.1-1.2 0.4-1.2 1-1.1 0.7-1.1 0.1-1.5-0.2-1.4-0.4-1.3-1.1-1.2-1.5-0.8-1.7-0.4-1.6-0.1-1.7-0.6-1.1-1.5-3-7.2-1.1-1.9-2-2.8-3.5-8.6-3.8-6.8-2.3-2.9-2.7-2.5-1.3-1.4-0.7-2.3-1.4-2.5-1-3.3-0.8 0.2-0.7-0.6-1.1-1.8-3.1-2.8-3.8-4.9-1.3-2.6-0.2-0.5 0-0.5 0.1-0.4 0.4-0.8 0.2-0.5-0.3-0.6-1.1-1.7-4-4.8-2.2-1.5-0.6-0.6-1.1-1.4-1.3-2.1-1.4-1.4-1.9-3.3-0.5-1.4-0.1-1.1-0.1-1.9-0.3-1-0.4-0.7-1.5-1.7-0.9-1.4-1.2-3.3-1-1.4-0.4-0.3-1-0.4-0.3-0.2-0.3-0.4-0.2-0.7-0.5-1-0.2-1.6-0.5-0.7-2.4-2.8-0.8-1.3-0.4-0.5-0.8-0.4-2.3-1.8 0 0.4-0.3 0-0.5-0.8 0.6-0.5 1.1-0.5 0.8-0.5 0.5 0.3-0.1-0.3-0.4-0.9-0.3-0.1-1.3-0.3-0.4-0.1-0.3 0 0 0.3-0.3 0-0.5-0.7-0.3-0.3-0.4-0.1-0.8 0.1-0.4-0.1-0.6-0.6-2.2-1.6-0.5 0.4-1-0.1 0.1 0.3-0.1 0.3-0.5-0.4-0.6-0.2-0.5 0.3-0.5 0.3-1.4 0.4-0.4 0.2-0.3 0.3-0.2 0.4-0.3 0 0-0.3-0.3 0-0.7 0.1-0.9-0.2-1 0.1-0.6 0.7-0.2-0.3-0.2-0.1 0-0.3 0.4 0 0-0.4-0.2-0.4 0.2-0.3 0.9-0.4-0.4-0.2-0.5-0.1-0.5 0.1-0.5 0.2 0 0.4 0.3 0 0 0.3-0.5 0.2-0.4 0.4-0.4 0.9-0.2-0.2-0.4-0.2 0.4-0.6 0.4-0.3 0.5-0.2 0-0.7-0.7 0-0.5 0.1-0.4 0.3-0.1 0.7-0.2-0.2-0.4 0.2 0-0.7-0.3 0 0 0.3-0.4 0-0.2-0.4-0.2-0.3-0.3 0-0.2 0.4-0.5-0.4-0.5-0.8-0.3-0.7-0.5 0.5-0.2 0.2-0.6-0.4-0.2 0.2 0 0.6-0.2 0.4-1 0.5-0.3 0.2 0 0.4 1 0.7 0 0.4-0.3 0-0.3 0.4-0.4-0.4-0.2 0.9 0 0.7-0.4 0.5-1 0.1 0.1-0.2 0.3-0.2-0.4-0.3-0.2-0.8-0.1-0.7 0-1.3-0.4-0.4-1.1 0.5 0.2-0.6-0.3-0.4 0.7-1 0.4-0.4 0.5-0.2 0-0.3 0.3-0.1 0.7-0.6-0.3-0.4 0.3-0.5 0.6-0.2 0.1 0.6 0.4 0.1 0.3-0.1 0.2-0.6-0.3 0 0-0.4-0.3-0.3 0-0.4 0.4-0.2 0.5-0.2 0-0.4-0.1-0.4 0.4-2.5 0.5 0.2 0.2 0 0-0.6-0.4 0.3-0.3-0.3 1-0.9 0.9-1.8 0.8-1.9 0.5-2.6 0.9-1.4 0.3-1.6 0.4-0.9 1.3-2.3-0.3-2.5-0.1-2.5-0.8-2.5 0.9-3.3 0.6-1.7 0.8-1.4 0-0.4-0.3 0 0.8-1.4 0.1-0.6-0.3-0.6 0-0.4 0.6-1.6-0.1-0.5 4-0.1 1.6-0.3 1.7 0.1 3.8 0.9 6.8 0.7 1.1-0.2 0.9-0.5 1.6-1.5 1.6-0.9 2-0.6 9.8-1.9 6.3-0.4 3.7-0.7 3.1 0 9.2 2.3 1.2 0.6 2.1 1.4 1.5 1.4 12.2 16 0.3 0.3 0.4 0.2 1.9 0.7 1.2 0 0.7 0 5.2-2 11.4-2.5 3.8 0 2.7 0.4 7.2 2.4 3.9 0.8 8.2 0.5 1.3-0.3 1.1-0.6 0.8-0.9 0.6-1.1 1.8-4.9 0.6-1.2 0.7-1 1-0.9 3.2-2 2.9-2.8 1-0.4 1.1 0.2 0.8 0.7 0.6 1.1 0.2 1.2-0.5 8.7 0.2 4.8 0.3 3.1 0.5 2.3 0.7 1.8 0.6 1.1 0.7 1.2 0.9 1 3.1 2.6 2.2 1.3 5.2 1.8 2.9 0.6 9.5 1 1.7-0.1 1.6-0.5 1.2-0.6 1.6-0.4 1.1 0.2 1.6 1 1 0.4 0.8 0 2.1 0 1.4 3.2 0.7 0.8 1 0.7 1.2 0.2 1.1-0.2 1.2-0.5 5-2.5 1.4-0.4 1.6-0.2 1.2 0 0.8 0.3 0.7 0.3 1.9 1.5z" id="SAU848" name="Tabuk" data-id="SAU848" data-name="Tabuk">
 </path>
 <path d="M562.6 168.8l-0.6 0.8-22.4 8.5-6.6 3.6-4.7 4.4-3.7 4.1-2.8 4.3-16.7 31.6-2.3 3.4-8 9.6-1 1.8-1.2 3-0.4 1.6-0.1 0.9 0 0.9 0.2 1.1 0.4 1.1 1.2 1.8 0.6 0.7-1.9 2.8-1 0.6-1.2 0.6-1.1-0.1-1-0.5-0.9-0.7-1-1.3-0.9-0.7-0.7-1.6-1.2-1.5-7.8-7.1-1.1-0.7-2.2-1.2-1.6-0.7-14.6-2.2-1.3-0.4-1.6-0.8-1.3-1-1.1-1.1-1.7-2.3-4-10.6-8-14.5-0.8-1.1-1.1-0.8-1.2-0.5-1.7 0.1-1.3 0.6-5.5 3.6-1.9 0.9-1.1 0.2-1.2-0.2-1.9-0.6-5-2.6-1.3-0.4-1.6-0.2-4.7 0.5-1.3-0.1-1.3-0.4-1.6-1.1-1.1-1.2-0.8-1.6-0.3-1.2-0.1-0.7-0.2-4-0.1-0.5-0.5-0.5-0.9-0.5-1.7 0-1.4 0.3-1.3 0.6-3.8 2.1-1.4 0.5-1.4 0.4-1.5 0.1-1.8-0.3-2.3-0.9-1.6-1-1.4-1.2-5.8-6.9-1-0.9-1.1-0.7-2.2-0.9-16.2-3.8-1.2 0-5.1 0.3-5.7 1.5-1.2 0.2-1.3-0.1-1.7-0.2-11.5-3.8-1.5-0.3-2 0-3.4 0.4-25.1 5.9-1.1 0-2.8-0.8-5.4-2.3 6.7-6.6 0.8-1.2 0.4-1 0.3-1.1 1.2-18.1 0.2-1.2 0.3-1.2 0.7-1.1 0.9-1.1 1.2-1.1 5.1-4 39.6-24.8 3.9-3.1 2.1-2.2 0.8-1.2 0.3-1-0.4-1.1-0.8-1-7.1-5.5-2.3-2.3-0.9-1.2-1.3-2.4-2.2-5-0.6-0.9-1.2-1.5-0.9-1-1.8-1.1-1.4-0.5-5.6-0.8-3.8 0-2.6-0.4-1.6-0.5-1.3-0.7-9.4-7.6-1.5-0.7-1.9-0.5-4.6 0-2.9 0.4-25.9-0.6-4.4-1-1.6-0.6-1.3-0.7-3.4-3.1-1.1-0.8-1.2-0.7-1.5-0.4-32.1-5-6.3-0.1-14.5 2.2-21.1 2.1-2.3-0.2-2.1-0.4-1.1-0.5-1-0.6-1-0.9-0.9-1-1.6-2.9-0.8-1.9-1.4-2.4-1.6-2.2-1.4-1.4-4.1-3-0.7-1-0.4-0.9-0.1-0.7-0.3-1.8-0.3-3.4 0.2-1.9 5.7-21.2 19.6-5.7 26.7-7.8 1.7-0.7 5.6-5.4 0.9-0.7 1-0.3 9.4 1.6 18.7 3.2 13.2 2.3 16.2 3.1 2.5 1 2.7 1.6 9 5.4 4.1 2.5 8.4 5 12.4 7.4 12.5 7.5 16.6 9.9 12.6 7.5 3.1 2.7 12 10.5 4 3.5 13.5 11.7 4.5 3.9 9.2 7.5 8.3 6.9 9.6 7.8 16.3 13.3 5.4 4.4 16.3 13.2 9 7.4 4.6 3.6 4.5 3.7 3.6 2.9 1.2 0.5 29.2 2.6 4.8 0.5 43.7 3.9 3.3-0.7z" id="SAU861" name="Al Hudud ash Shamaliyah" data-id="SAU861" data-name="Al Hudud ash Shamaliyah">
 </path>
 <path d="M283.9 182.9l-3-0.7-1 0.1-18 7.4-17.5 10.1-8.3 2.3-17.9 8.6-1.2 0.7-1.1 0.8-5.1 5.7-1.9-1.5-0.7-0.3-0.8-0.3-1.2 0-1.6 0.2-1.4 0.4-5 2.5-1.2 0.5-1.1 0.2-1.2-0.2-1-0.7-0.7-0.8-1.4-3.2-2.1 0-0.8 0-1-0.4-1.6-1-1.1-0.2-1.6 0.4-1.2 0.6-1.6 0.5-1.7 0.1-9.5-1-2.9-0.6-5.2-1.8-2.2-1.3-3.1-2.6-0.9-1-0.7-1.2-0.6-1.1-0.7-1.8-0.5-2.3-0.3-3.1-0.2-4.8 0.5-8.7-0.2-1.2-0.6-1.1-0.8-0.7-1.1-0.2-1 0.4-2.9 2.8-3.2 2-1 0.9-0.7 1-0.6 1.2-1.8 4.9-0.6 1.1-0.8 0.9-1.1 0.6-1.3 0.3-8.2-0.5-3.9-0.8-7.2-2.4-2.7-0.4-3.8 0-11.4 2.5-5.2 2-0.7 0-1.2 0-1.9-0.7-0.4-0.2-0.3-0.3-12.2-16-1.5-1.4-2.1-1.4-1.2-0.6-9.2-2.3-3.1 0-3.7 0.7-6.3 0.4-9.8 1.9-2 0.6-1.6 0.9-1.6 1.5-0.9 0.5-1.1 0.2-6.8-0.7-3.8-0.9-1.7-0.1-1.6 0.3-4 0.1 0-0.2-0.8-0.3 0-0.3 0.7-1.2 0.7-2.3 0.4-2.3-0.5-1.3 0-0.8 0.5-1 0.5-1.2 0.9-4.8 0.2-0.7 0.5-1.2 0-0.4 0-0.8 0.5-0.4 1.1-0.6-0.3-0.9-0.2-1.2 0.2-0.8 0.6 0.3 0.1-0.4 0.2 0-0.3-0.8-0.1-0.9 0.1-0.8 5.3 0.9 5.6 1 14 2.4 7 1.2 8.3 1.5 10.4 1.8 1.3-0.1 1.2-0.5 5.2-4.2 14.1-11.8 8.2-13.9 2.6-4.5 1.1-1.2 1.3-0.7 8.4-1.7 13.6-2.8 11.9-2.5 1-0.9 2.1-5.2 3.3-8 1.4-3.4 0.6-1 1.1-0.9 10.8-6.1 3.5-2 0.4-0.3-12.8-15-5.2-6.1-5.8-6.9-12.3-13.4-12.3-13.4 23.5-7.1 23.4-7 1.7-0.5-5.7 21.2-0.2 1.9 0.3 3.4 0.3 1.8 0.1 0.7 0.4 0.9 0.7 1 4.1 3 1.4 1.4 1.6 2.2 1.4 2.4 0.8 1.9 1.6 2.9 0.9 1 1 0.9 1 0.6 1.1 0.5 2.1 0.4 2.3 0.2 21.1-2.1 14.5-2.2 6.3 0.1 32.1 5 1.5 0.4 1.2 0.7 1.1 0.8 3.4 3.1 1.3 0.7 1.6 0.6 4.4 1 25.9 0.6 2.9-0.4 4.6 0 1.9 0.5 1.5 0.7 9.4 7.6 1.3 0.7 1.6 0.5 2.6 0.4 3.8 0 5.6 0.8 1.4 0.5 1.8 1.1 0.9 1 1.2 1.5 0.6 0.9 2.2 5 1.3 2.4 0.9 1.2 2.3 2.3 7.1 5.5 0.8 1 0.4 1.1-0.3 1-0.8 1.2-2.1 2.2-3.9 3.1-39.6 24.8-5.1 4-1.2 1.1-0.9 1.1-0.7 1.1-0.3 1.2-0.2 1.2-1.2 18.1-0.3 1.1-0.4 1-0.8 1.2-6.7 6.6z" id="SAU862" name="Al Jawf" data-id="SAU862" data-name="Al Jawf">
 </path>
 <path d="M354.4 611.2l-2.3 7.8 0.1 1.3 0.4 1.5 1.1 1.2 0.6 0.9 0.2 1.2-0.3 1.3-1.1 1.5-1 1-5.6 3.9-1 1-0.8 1.3-0.3 1.4-0.3 3.6-0.7 2.5-4.8 10.4-1.3 0.6-1.6 0.3-4.5 0-0.9 0.1-0.9 0.4-0.4 0.4-0.6 0.7-1.3 2.2-3 8.1-1.1 5.4-0.4 1-0.6 0.9-0.9 0.7-0.9 0.5-1 0.3-1.1 0.2-1.1 0-1.3-0.3-1.1-0.5-1-0.8-3-4-1.1-1.1-3.7-2-0.5-0.4-0.7-0.7-0.6-1-0.2-1.1 0-0.9 0.2-4.2-0.1-1-0.9-3.3 0-1.1 0.5-5.1 0-1.1-0.3-1.1-0.5-1-0.6-0.8-0.6-0.5-3.5-1.1-0.9-0.5-0.8-0.8-0.3-0.9 0.1-1 0.7-0.9 3.6-3.8 1.1-0.8 1.2-0.6 1.4-0.4 4.6-0.8 1.1-0.3 1.1-0.5 1.2-1 0.6-1 1.3-3.3 3.3-6.1 0.4-1.3 0-0.5-0.1-1.5-0.9-3-0.4-2.1 0-1.1 0.1-1 0.2-0.9 0.3-0.6 0.4-0.7 0.8-0.8 0.9-0.8 1-0.4 1.2-0.1 1.1 0.2 1.5 0.6 1 0.9 0.8 1 1.4 4.2 0.6 1 0.6 0.9 0.7 0.6 0.6 0.2 1 0 1.4-0.4 2.4-0.9 1.2-0.4 1.6-0.2 5 0 1.1-0.3 1-0.5 4.4-2.5 1-0.3 1.2 0.2 0.9 0.4 2.7 2.3z" id="SAU885" name="Al Bahah" data-id="SAU885" data-name="Al Bahah">
 </path>
 <path d="M472.1 667.3l0 6.4-0.2 1.6-0.3 1.1-0.5 0.7-0.7 0.6-3.2 1.6-1.1 1-1.1 1.8-0.3 1.3 0 1.2 1.6 6.4 0.3 2.3 0 1.7-0.2 1.9-0.3 1.3-0.5 1.3-0.6 1-0.7 0.9-0.9 0.9-2.1 1.4-2.2 1.1-2.1 0.7-3.2 0.7-1.1 0.5-1.2 0.7-1 1.2-0.6 1.2-1.1 2.7-0.6 1-0.6 0.8-1.5 1.6-5.3 4.6-7.7 8.1-1.2 1.6-0.9 1.8-0.5 1.4 0 1.3 0.5 2.2 0.7 2.2 0.5 2 0.1 2.1-1.2 11.1-0.4 2-0.1 1.3 0.2 1.2 0.9 3.1 0.1 2.6-1.3 5 0 1.6-0.9-1-2-1.2-3.5-1.6-0.8-0.2-1.6 0-0.8-0.2-1.1 0.1-1 0.4-2.3 1.5-4-6-0.8-1-0.9-0.8-3.7-1.3-0.9-0.7-0.7-1-1.5-3.1-0.7-1.1-1.1-1.2-3.7-3-0.8-1.2-0.3-1.3 0.2-2-0.3-1-0.6-0.7-1.8-0.4-0.4 0.1-2.2 1.3-2 1.4-0.8 0.9-0.7 1-1 2-2.2 8.2-0.4 0.9-0.7 0.8-0.8 0.3-1 0-1.1-0.4-1.1-0.8-4.5-4.6-0.8-1.2-0.5-1.1-0.4-1.1-0.6-1-0.9-1-1.3-0.7-1.2-0.3-7.4-0.1-1.1-0.2-1-0.6-1-1.2-0.5-1-0.6-1.8-0.3-0.6-0.7-0.8-1.3-0.7-1.1-0.3-1-0.1-3.2 0.5-0.9-0.3-0.8-0.7-0.4-1.4-0.1-1.1 0.1-1.2 1-6-0.1-1-0.2-0.9-0.5-0.8-1.8-0.5-5.4 0.4 1.7-6.3 0.2-1.4 0-1.3-0.4-1.5-3.2-9.9-0.5-1-0.8-0.8-0.9-0.5-1-0.4-2-0.4-2.1-0.1-5.2 0-0.9-0.2-0.9-0.5-0.8-0.9-0.6-1-0.4-1-0.2-1-0.3-2.1 0.3-11.7 0.2-0.9 0.4-0.5 0.7 0.4 0.8 0.6 1 0.5 0.9 0 0.9-0.4 2.4-1.8 2.1-1.3 1-0.3 1.1-0.2 1 0 5.3 0.5 0.6 0 0.8-0.2 0.8-0.3 0.9-0.7 0.7-0.9 0.4-0.9 1.6-5.2 0-1.2-0.3-1.2-2-3.4-0.2-1-0.2-1.4 0.1-1.2 1.5-6.5 0.1-1-0.1-1-0.3-1.1-0.6-1-0.7-0.9-0.6-0.4-0.7-0.3-0.9-0.2-2 0.2-2.1 0.8 4.8-10.4 0.7-2.5 0.3-3.6 0.3-1.4 0.8-1.3 1-1 5.6-3.9 1-1 1.1-1.5 0.3-1.3-0.2-1.2-0.6-0.9-1.1-1.2-0.4-1.5-0.1-1.3 2.3-7.8 0.9 1.4 4.8 10 0.8 1 0.9 0.8 1 0.6 1 0.4 1.4-0.1 1.6-0.6 2.5-1.4 1.6-1.1 12-11 9.4-5.1 1.4-1.1 1.8-1.9 1.2-0.8 1.3-0.5 1.7-0.4 2.9 0 0.8-0.2 0.9-0.3 2.9-1.2 1.5-0.5 2.1-0.2 1.3 0.1 1.2 0.2 3.1 1.1 1.4-0.1 1.6-0.6 7.5-4.4 5-2 6.9 6.3 2.6 3 1.5 2.5 2.8 3.8 4 4.3 0.6 1.2 0.3 1.1 0.1 0.9-0.1 1.2-0.3 1.1-0.4 0.9-2.8 4.4-0.9 1.9-1.9 8.6 0 1.3 0.3 1.6 0.8 1.2 2.7 3.2 4.6 7.7 18.6 17.3 0.8 0.5z" id="SAU886" name="`Asir" data-id="SAU886" data-name="`Asir">
 </path>
 <path d="M348.1 805.2l0.3 0.2 1.7-0.2 0.6 0.9 0.9 0 1-0.3 0.8 0 0.6 0.6 0 0.5 0.5 0 1.4-0.6-1.3-0.3-0.7-1 0.6-0.9 0.3-1.5 0.4-0.4 0.6-0.1 0.7 0.2 1.3 0.8 0.1 0.9 0.6 1-0.1 0.5 1.2 0.2 0.3 1 1.8 0.7 0 0.7-0.1 0.9-0.4 1.1 0.2 0.8 0.4 1.5-0.5 1 0 0.1-1-0.1-1.4-1.6-1-0.4-1-0.1-0.5-0.4 1.3-0.6 0.8-0.6-0.4-1-1.2-0.7-1.2 0.2-1.4 0.1-0.9 0.3-1.7 0.9-0.9-0.3-1.9-1.7-1-0.3-1.3-0.9-1.1-0.9-0.6-1-0.3-1.5-0.8-0.6-0.9 0-0.5-0.2 0.1-0.3-0.1-1.1-0.7-0.9-0.4-0.9 0.1-0.9 0.7 0.2 0.2 0.4 0.6 0.4 1.8 0.9 1.1 1.1 0.5 0.7 0.1 1.2 0 0.6 0.9 1 0.8 0.7z m2.2-9.5l0 1-0.3 1 0.2 0.9 1.5 0.4 0.5 1.1-2 0-0.5 0.8 0.3 0.8 1.1 0.4 0.7 0.4 0.9 0.4 0.3 1.2 0 0.6-1.4-0.8-1.7-0.6-0.9-0.1-0.7-0.6-1.8-2.4-1.4-2 0.5-0.5 1.1 0 0.9-0.3 0.6-0.5 0.5-0.9 0.5 0.1 0.3-1-0.4-1.2-1.2-0.6-0.6 0-1.1-0.3-0.6 0-0.1-0.2 0.3-0.4 0.5-0.2 0.1 0.4 1.5 0.2 1.2 0.4 0.9 1 0.3 1.5z m66.2-26.8l-1.9 1.2-4.1 3.5-2.3 2.8-0.1 0.3 2.7 0.9 0.9 0.7 0.5 1.1-0.2 0.9-1 0.6-1.1 0.2-1.3 0.6-0.9 0.7-0.3 1 0 1.2-0.3 1-0.9 1.9-0.3 1.1 0.2 0.8 0.3 0.8 0.3 1.1 0 1.1-0.2 0.9-0.8 1.9-0.3 1.3 0.2 0.8 1 1.9 0.6 1.9 0.5 0.4 1.8 0.5 0.5 0.4 0.3 0.5 0 0.7-0.2 0.5-0.3 0.2-0.4 0.2-0.5 0.3-0.7 1.1 0.1 0.7 0.5 0.7 0.3 1.2-0.3 1-0.8 0.1-1.9-0.6-1.2-0.2-0.6 0.3-0.2 0.7-0.1 1-0.2 0.9-1.2 3.3-0.6 0.8-1 0.8-2.1 1.2-0.7 0.3-1.9 0.3-0.5 0.2-0.1 0.7 0.1 0.7 0 0.8-0.4 0.8-1.2 0.9-1.6 0.7-2.3 0.8-0.1-0.1 0-1.8-0.3-0.5 0.6-1.6-0.3-1-2.3-2.6-0.5-1.1-0.2-1 0.1-2.1 0.5-2.1 0-1-0.8-0.2 0.3-0.3-0.6-0.6-0.5-0.7-0.1-0.7 0.5-0.4-0.3-0.5-1.3-1.2-0.3-0.3-0.6-0.9-1.1-1.3-0.3-0.2-1.5-0.9-0.5 0-0.5 0.3-1.6-2.3 0.6-2.2-0.3-0.8 0-2.4-0.2-0.9-0.9-0.5-0.2-0.7-0.4-0.4-0.9-0.1-1 0.1-0.6-0.1-0.6-0.5-0.5-0.8-0.6-1.4-0.2-0.7-0.2-1.7-0.3-0.7-0.4-0.4-2.1-0.9 0.1 0.9 0.3 0.7 0.9 1.4-1 0.7 0.5 3.2-0.5 0.9-0.3-1 0-3.4-0.2-1-0.6-2-0.9-6.7-0.5-2.1 0.3-2.5-0.1-1-0.3-1.1-0.3-0.5-0.5-0.2-0.9-0.1-0.2-0.2-0.1-0.5-0.3-0.5-5.1-4.5-0.4-0.1-0.1 0.3-0.4-0.5-0.5-1-0.9-1.3-0.3-0.9-0.2-0.3-0.3-0.2-1.1 0.2-0.5-0.1-0.2-0.6-0.2-0.5-2.1-2.1-0.4 0.2-0.6 0.1-0.4-0.4-1.5-2.1-0.5-0.3-2.8-2.6-1 0.4-1.8-1.3-1.1 0.2-0.4-1.3-0.9-0.8-1-0.7-0.9-1-2-2.5-0.3-0.9 0.1-0.6 0.1-0.5-0.1-0.4-0.9-0.3-0.1-1.2-2-1.8-0.8-1.1 0.5-0.9-0.3-0.3 0.9-2.1 0.5-0.9 0.7-0.8 0.9-0.6 2.9-1.6 0.9-0.9 0.6-0.8 0.8-2 5.4-0.4 1.8 0.5 0.5 0.8 0.2 0.9 0.1 1-1 6-0.1 1.2 0.1 1.1 0.4 1.4 0.8 0.7 0.9 0.3 3.2-0.5 1 0.1 1.1 0.3 1.3 0.7 0.7 0.8 0.3 0.6 0.6 1.8 0.5 1 1 1.2 1 0.6 1.1 0.2 7.4 0.1 1.2 0.3 1.3 0.7 0.9 1 0.6 1 0.4 1.1 0.5 1.1 0.8 1.2 4.5 4.6 1.1 0.8 1.1 0.4 1 0 0.8-0.3 0.7-0.8 0.4-0.9 2.2-8.2 1-2 0.7-1 0.8-0.9 2-1.4 2.2-1.3 0.4-0.1 1.8 0.4 0.6 0.7 0.3 1-0.2 2 0.3 1.3 0.8 1.2 3.7 3 1.1 1.2 0.7 1.1 1.5 3.1 0.7 1 0.9 0.7 3.7 1.3 0.9 0.8 0.8 1 4 6z" id="SAU887" name="Jizan" data-id="SAU887" data-name="Jizan">
 </path>
 <path d="M352.2 440.7l-0.4 4.9 0.1 3.3 0.3 1 0.6 0.8 0.5 0.5 1.8 1 1 0.8 0.9 1 1 1.6 2.5 8.2 1.2 2.7 0.4 1.3 1.4 7.4 6.1 14.6 0.5 0.7 0.7 0.8 0.9 0.8 1 0.6 1 0.5 1 0.3 1.8 0.3 7.3-0.1 10.3 0.8 2.2 0.5 1.1 0.4 1.2 0.6 1.3 1.1 0.7 1.1 0.2 1-0.2 0.9-0.7 2.3-0.3 5.2 0 1.3 0.3 1.3 1.1 1.9 1 0.9 1 0.7 2.1 0.7 1.1 0.1 1.1-0.1 5.6-1.5 1-0.2 1.1 0.1 5.6 1 1 0.4 0.9 0.4 0.8 0.8 0 0.3-1.3 7.5 0 2.1 2.3 17.1 0 1-0.1 1.1-0.3 1.1-0.5 1-0.6 1-1.4 1.9-0.6 0.9-0.4 1-0.1 1.1 0.6 8.5-0.3 2.2-1.9 7.4-0.1 1 0.1 1.1 0.3 1 0.5 1.1 12.4 18.5-5 2-7.5 4.4-1.6 0.6-1.4 0.1-3.1-1.1-1.2-0.2-1.3-0.1-2.1 0.2-1.5 0.5-2.9 1.2-0.9 0.3-0.8 0.2-2.9 0-1.7 0.4-1.3 0.5-1.2 0.8-1.8 1.9-1.4 1.1-9.4 5.1-12 11-1.6 1.1-2.5 1.4-1.6 0.6-1.4 0.1-1-0.4-1-0.6-0.9-0.8-0.8-1-4.8-10-0.9-1.4-2.7-2.3-0.9-0.4-1.2-0.2-1 0.3-4.4 2.5-1 0.5-1.1 0.3-5 0-1.6 0.2-1.2 0.4-2.4 0.9-1.4 0.4-1 0-0.6-0.2-0.7-0.6-0.6-0.9-0.6-1-1.4-4.2-0.8-1-1-0.9-1.5-0.6-1.1-0.2-1.2 0.1-1 0.4-0.9 0.8-0.8 0.8-0.4 0.7-0.3 0.6-0.2 0.9-0.1 1 0 1.1 0.4 2.1 0.9 3 0.1 1.5 0 0.5-0.4 1.3-3.3 6.1-1.3 3.3-0.6 1-1.2 1-1.1 0.5-1.1 0.3-4.6 0.8-1.4 0.4-1.2 0.6-1.1 0.8-3.6 3.8-0.7 0.9-0.1 1 0.3 0.9 0.8 0.8 0.9 0.5 3.5 1.1 0.6 0.5 0.6 0.8 0.5 1 0.3 1.1 0 1.1-0.5 5.1 0 1.1 0.9 3.3 0.1 1-0.2 4.2 0 0.9 0.2 1.1 0.6 1 0.7 0.7 0.5 0.4 3.7 2 1.1 1.1 3 4 1 0.8 1.1 0.5 1.3 0.3 1.1 0 1.1-0.2 1-0.3 0.9-0.5 0.9-0.7 0.6-0.9 0.4-1 1.1-5.4 3-8.1 1.3-2.2 0.6-0.7 0.4-0.4 0.9-0.4 0.9-0.1 4.5 0 1.6-0.3 1.3-0.6 2.1-0.8 2-0.2 0.9 0.2 0.7 0.3 0.6 0.4 0.7 0.9 0.6 1 0.3 1.1 0.1 1-0.1 1-1.5 6.5-0.1 1.2 0.2 1.4 0.2 1 2 3.4 0.3 1.2 0 1.2-1.6 5.2-0.4 0.9-0.7 0.9-0.9 0.7-0.8 0.3-0.8 0.2-0.6 0-5.3-0.5-1 0-1.1 0.2-1 0.3-2.1 1.3-2.4 1.8-0.9 0.4-0.9 0-1-0.5-0.8-0.6-0.7-0.4-0.4 0.5-0.2 0.9-0.3 11.7 0.3 2.1 0.2 1 0.4 1 0.6 1 0.8 0.9 0.9 0.5 0.9 0.2 5.2 0 2.1 0.1 2 0.4 1 0.4 0.9 0.5 0.8 0.8 0.5 1 3.2 9.9 0.4 1.5 0 1.3-0.2 1.4-1.7 6.3-0.8 2-0.6 0.8-0.9 0.9-2.9 1.6-0.9 0.6-0.7 0.8-0.5 0.9-0.9 2.1-0.6-0.7-0.3-0.6-0.1-0.6-0.2-0.3-0.5-0.2-0.2-0.3 0.2-0.8-1-0.1-0.9-0.2 0.3-0.5 0.3-0.2-0.3-0.6-0.4-0.3-0.6 0-0.6 0.2 0.5-0.9 0.1-0.4-0.3-0.4 0.3-0.7-0.3-0.3-0.6-0.1-0.7 0.1 0.1-0.7-0.1-1-0.4-0.9-0.4-0.7-0.2-0.6-0.3-1.9-0.3-0.8 0-2.7-0.3-0.5-0.5-0.1-0.3-0.2-0.1-0.9-0.1-0.3-1.7-1.2-0.3-0.3 0-0.6-0.3-0.6-0.3-0.5-0.8-0.3-0.5-0.6-0.3 0.1-0.5 0.5-0.2 0.1-0.5-0.2-0.6-0.3-0.4-0.5-0.4-0.4-1.3-2.9-0.5-0.7-0.6-0.7-0.3-0.6-0.1-0.6 0.2-1 1.1-3.3 0.2-1 0.1-0.4 0.2-0.2 0.1-0.3-0.4-0.7-0.2 0-1.1-0.6 0-0.1-2-0.5-0.5-1.5 0-0.3-0.9-1.3-0.2-0.1-0.1-0.5 0.1-0.6 0.3-1 0.2-0.5 0.4-0.8 0.1-0.9 0.3-1.1 0.6-1.2-0.4-0.7-0.9-0.6-1-0.4-2-0.6-0.8-0.6-0.5-1.4-0.7-1-0.2-0.5 0-0.6 0.4-1.1 0-0.5-0.3-0.9-0.1-0.5-0.2-0.5-0.8-0.5-0.3-0.4-0.2-1.1-0.5-0.5-0.7-0.4-1.3-1 0.2-0.8-0.1-0.5-0.5-0.8-0.2-1-0.2-0.8 0-0.5 0.3-0.5 0.4-0.4 0.3-0.4-0.4-0.4 0.2-0.6-0.1-0.5-0.3-0.4-0.1-0.6-4.1-1.5-1.1-0.6-2.4-2.5-1.1-0.6 0-0.3 0.5 0.1 1.1 0.6 0.3-2.1-0.2-2.5-0.3-1.1-2.2-3.2-0.9-0.6-2.4-0.3-1 0.1-0.4 0.4 0.5 1.3-0.7-0.6-0.6-1-0.4-1 0-0.5-0.7-0.4-1.9-2.9-1.5-0.9-0.3-0.3 0-0.4 0.6-1.3-0.2-0.9-0.6-0.5-1.5-0.7-1.7-1.1-0.5-0.1-0.4-0.7-0.8-0.4-1.2-1.7-0.4-0.2-1.2-0.3-0.4 0-0.9-0.2-0.9-0.6-2.2-1.7-1.7-2 0.3-0.7-0.8-0.6-1.2-0.3-1.5-0.2-0.2-0.3-0.5-0.6-0.7-0.7-0.4-0.5 0-0.2-0.5-0.3-1.5-1.4-0.8-0.4-1 0-1.2 0.2-1 0.4-0.4 0.4-1.1-0.4-2-1.2-1.1-0.5 0.1 0.6 0.3 0.4 0.8 0.6 0.6 0.4 0.3 0.3-0.3 0.2-0.8-0.2-4.6-2.9-0.7-0.6-0.6-0.3-1-0.2-0.8-0.4-0.8-1.6-0.8-0.8-2.5-2-1.3-1.3-2.8-4.5-1-0.8 0-0.4 0.5 0 0.4 0 0.3-0.3 0.1-0.4-0.7-0.1-0.6-0.4-1.1-1-0.3-0.6-0.3-1.5-0.2-0.5-1.6-1.8-0.1-0.9 0.7-1.2-1.6-0.5-0.7-0.1 0.1 0.3 0 0.4-1.1-0.6-0.6-0.8 0.3-0.8-0.4-0.2-0.2-0.3 0-0.4 0.3-0.4 0.2 0.4 0.4 0.3 0.5 0.2 0.5 0.1-0.2-0.6-0.2-1.1-0.5 0.1-0.4-0.1-0.6-1-0.3 0 0 1-1-0.7-1.4-1.1-1-1.2 0.1-1.2 0.6 0.6 0.3 0.1 0.1-0.4-0.2-0.6-0.2-0.2-0.4-0.1-0.8-0.5-0.5 0.1-1 0.3 0-0.2-1.3-2.1-0.3-0.7-0.2-0.9 0-1.2-0.1-0.4-0.7-0.5-0.1-0.4-0.1-0.7-0.2-0.2-0.3-0.1-2-1.4-0.5-0.6-0.3-1.4-0.4-1-0.1-0.6 0.1-0.2 0.4-0.7 0.1-0.3-0.3-0.7-1.8-2.8-0.6-0.4-1.5-2.4 3.7-3.3 0.6-1.2 0-1.6-0.3-1.5-0.8-0.8 0-0.3 0.6-0.4-0.1-0.7-0.8-1.7-0.6 1.1-0.5 0.1-0.4-0.5-0.5-1.1 0.4-0.3-0.8-1.1-0.1-1.5 0-1.6-0.1-1.4-0.5-1.4 0.1-0.7 0.9-0.4 0.3-0.3 0.2-0.6 0-0.8-0.4-0.7-0.3 1.1-0.3 0.4-0.3 0.3-0.7 0-0.1-0.2 0-0.4-0.2-0.5-0.7-0.6-0.2-0.4-0.2-0.5 0-0.8-0.2-0.5-0.6-0.3-0.4-0.7-1.6-2.1-1.3-3-0.9-4.3 0.1-1 1.2-0.5 1.3 1.6 0.9 0.1 0.2-1.2 0-1 0.1-0.5 0.9-0.7 0.1-0.2 0.1-1 0.5-2 0.1-1.1-0.3 0-0.7 1.8-0.3-0.8 0.1-0.5 0.3-0.6 0.2-0.7 0-2.1 0.4-1.4 1.5-1.8 0.5-2.2 0.3-0.5 0.5-0.4 0.4-0.6 0.6-1.4 0.9-0.8 0.1-0.2 0-0.7-0.2-0.6-0.5-0.3-0.6 0.1-0.3 0.5-0.4 1.5-0.3 0.5-1.1 0.2-0.1-1.4 0.6-2.2-0.3-2.8 0.3-2.9-0.3-1.4-0.4-0.7-1.3-1.8-1.3-2.8-0.9-1.6-0.3-0.8 0.1-0.6 1.2-1.2 0-0.4-2.3-2.5-0.9-0.8-0.4 0.3 0.1 0.2 0.9 0.9 0.3 0.5 0.1 0.5 0.2 1.1 0.3 0.5-0.3 0.4-0.7-1.5-1.3-2.1-1.3-1.4-2.4-4.5 0-0.7 1.4 0.8 1.5 3.4 0.9 0.3 0.5 0.3 0.4-0.1 0.4-0.3 0.3-0.6-0.5-0.6-0.8-1.6-0.9-0.4-0.3-0.4-0.3-0.5-0.2-0.6-0.4-0.8-0.9-0.4-1.1-0.2-0.8-0.5-0.9 0.2-0.7-0.8-1-2.2 0.5-0.5 0.4-0.7 0.3-0.8 0.1-0.7-0.1-1.5-0.3-0.8 0-0.6-0.6-0.2-0.4 0.7-0.6-1.1-0.8-1.1-0.9-1.7-0.8-1-0.4-1.2-0.6-0.8-0.1-0.7-0.4-0.9 0-0.7-0.3-1.5-0.7-1.3-0.6-1.5-0.1-0.9 1.4-0.2 5.9-0.5 3.4-0.7 1.4-0.2 1.3 0.4 0.9 0.9 2 3.2 0.6 0.7 3.8 3.4 3.7 4.4 1.1 0.9 1.1 0.7 1.6 0.3 1.9-0.1 5-0.9 1.4 0 0.9 0.5 0.5 0.9 0.2 1 0.2 2.1 0.5 0.8 1.1 0.5 3.6-0.7 10.1-3.1 4.5-0.6 1 0.1 1 0.3 0.9 0.7 0.5 0.9 0.3 1 0.2 0.9 0.1 1.6-0.4 2.5-0.2 0.9-2.6 6.2-0.3 1 0.2 1 0.6 0.9 0.9 0.4 3.2 1 1.4 0.7 0.9 0.6 0.9 0.9 0.7 1 0.5 1 0.2 1.1 0.1 1.1-0.3 2.2-0.5 2.1-0.1 1 0.2 1 0.5 0.9 1 0.6 0.2 0 3.1 0.5 1.1 0 1-0.1 1.2-0.3 1.2-0.7 4.8-4.1 2-1.2 1.5-0.3 1.1 0.1 7.3 2.3 1.1-0.1 1.1-0.5 1.3-1.3 3.4-5.3 1.8-2.2 13.5-10.7 6.6-6.6 1.5-1.2 1.3-0.9 5.5-2 1.1-0.6 0.9-1 0.5-1.5-0.3-1.1-0.8-0.8-5.2-2.8-1-0.8-0.8-0.9-0.3-1.1 0.5-1.3 1.4-1.5 2.1-1.6 6.2-3.5 8.4-3.7 1.1-0.9 1.2-1.1 1.2-2 0.7-1.3 0.3-1.3 0.1-2.3-0.1-1.1-0.2-1.1-1.2-3.4-0.1-1.1 0.2-1 0.6-1 1-0.7 1-0.4 3-0.2 6.2 0.9z" id="SAU888" name="Makkah" data-id="SAU888" data-name="Makkah">
 </path>
 <circle cx="417.5" cy="746.6" id="0">
 </circle>
 <circle cx="553.4" cy="501.8" id="1">
 </circle>
 <circle cx="391.4" cy="787.9" id="2">
 </circle>
</svg>