<?xml version="1.0"?>
<!--
************* Copyright (c) 2017 Pareto Softare, LLC DBA Simplemaps.com *******************		
************* Free for Commercial Use, full terms at  http://simplemaps.com/resources/svg-license ************
************* Attribution is appreciated! http://simplemaps.com ***************************
-->
<svg baseprofile="tiny" fill="#7c7c7c" height="523" stroke="#ffffff" stroke-linecap="round" stroke-linejoin="round" stroke-width="2" version="1.2" viewbox="0 0 1000 523" width="1000" xmlns="http://www.w3.org/2000/svg">
 <path d="M520.8 414.3l0.5 1.3-1.4-0.1-0.6-0.4 0.2-0.4 1.3-0.4z m2.3-2.4l-0.9 0.2-0.9-0.2-0.2-1 0.5-0.6-0.1-1.2 1.1-0.6 1 0.8 0.6 1.4-1.1 1.2z m248.7-11.7l-1 0.3 0.1-0.4 0.7-0.8 0.4-0.8-0.1-0.6 0.3-1.1 0.6-0.2 1.2 0.9 0.3 0.9-0.8 1.4-0.6 0.4-1.1 0z m-286.7-35.7l1.1 1.5-0.3 0.4-0.6-0.6 0-0.4-0.7-0.3-0.4-0.9 0.4-0.6 0.5 0.9z m-145.4-103.1l0.7 0.7 0.4 1.7-1 0.4-1.1-1.4-0.8-0.2 0.1 0.8-0.3 0.1-0.2-0.6-0.6 1.5-0.6-0.6 0.4-1.2 0.6-0.7 0.6-0.4 0.6 0.3 1.2-0.4z m-300.2-158.7l1.3 0.3 0.2 0.6-1.4 1.6-1.1 0.4-0.5 0.4-0.4-0.1-0.4-1.2 0.1-0.8 0.3-0.6 1.9-0.6z m276.5-96.5l-0.3 0.3 0-1.8 0.4 0.4-0.1 1.1z m-25.3-4l-0.5 0.2-0.7-0.4-0.5-0.8 0.3-0.2 1 0.6 0.4 0.6z" id="SLB99" name="" data-id="SLB99" data-name="">
 </path>
 <path d="M485.8 323.2l0 1-0.5 0.5-0.2 0.9-0.3 0.2 0.4 1.1 1 6.3 0 1.2-0.4 1.3-1-0.9-1.1-1.7-0.7-2-0.9-5.4 0.1-1 0.8-1.1 0.9-0.1 1 0.1 0.9-0.4z m-41.3-20.9l2.2 3.2 2 3.9 0.9 1.1 0.4 0.6 0.5 1.7 0.6 0.8 0.7 0.8 0.6 0.8 1 1.8 0.5 1.4 0.2 1.3-0.1 2.7 0.2 1.3 1.1 2.5 0.2 1.7-0.4 1.7-0.7 1.4-0.7 0.3-0.3-1.6-3.1-3.4-0.7-1.9-0.5-0.8-0.8-0.4-0.8 0.2-0.5 2.2-0.8 1.3-1.2-1.3-1.3-1.8-1.1-1.9-0.5-1.6 0-9-0.1-1.7 0-1 1.2-2.2-0.2-1.2-0.6-1.2-0.3-1.6-1.4 0.5 0-1.6-0.5-1.4-1.6-2.7 0.5-0.4 0.4 0 0.6 0.9 1 1.1 2.6 1.6 0.5 0.7 0.3 1.2z m98.8-77.7l-0.5 0.1-0.6-0.8 0.4-0.3 0.8 0 0.9 0.3-0.3 0.3-0.7 0.4z m-145.7-2.2l0.7 0.7 0.7 1.3 0.4 0.9 0.1 1.5 0.2 0.3 1.4 0.9 2.5 3.9 3.9 4.2 3 2.6 1.8 2.3 0.7 1.4 0.3 1.5-0.5 1.5-1.5 0.9-1.7 0.7-1.4 0.7 0.5 1 0.4 1-0.1 1-1.2 2.1 0 0.9 0.3 1 0.1 1.1 0.4 1.1 1.4 1.3 0.8 1.5 1-0.2 1.8-0.8 0.7 0.3 2 1.5 0.7 0.8 0 0.5-0.5 0.9 0.5 0.7 0.6 0.3 0.5 0 0.4-0.3 1.8 0.8 1.9 1.3 1.7 1.7 1.3 1.9-1-0.4-0.7 0.6-0.2 0.9 0.6 0.4 0.9 0.4 0.9 0.9 0.4 1.2-0.4 1.2 0.7 0.4 0.3 0.5 0.1 1.4 0.1 0.8 0.9 0.2 1.5 0.9 0.4 0.4 0.2 0.8-0.3 0.4-1.9 1.5 1.4 0.6 0.5 0.4 0.3 0.5 0.9-0.4 0.9 0.3 0.5 0.6-0.3 1.1 0.6 0 1.4 0.5 0 0.5-2 0.5-0.8 0-0.2 0.4 0 0.9 0.3 0.9 0.9 1 0.5 2.8 0.8 0.8-1 0.6-0.4-0.5-0.4-0.8-0.7-0.3-0.7 0.4 0.2 0.8 0.6 0.9 2.9 3.1 0.9 1.2 2.3 5.9 0.7 0.7 0.8 0.7 1.1 1.4 1.4 2.6 0.9 6 0 1.6-0.5 1-0.8 0.2-1.1-0.5-3.9-2.8-0.7-0.1-0.2-1.2-0.6-1.2-2.9-3.9-0.4-0.7-0.2-0.7-0.1-1.5-0.3-0.9-0.8-1.3-3.5-3.7-5.2-2.6-1.7-2.1-3.5-0.5 0.4-1.3-2.1-2.4-1.1-0.7-0.5-0.1-1.2 0.1-0.6-0.3-0.2-0.5 0.1-1.3-0.1-0.5-1.8-1.6-4.2-1.9-1.6-1.7-5.5-10.1-1.3-3.7-1-1.8 0.4-0.6 0-0.8-0.4-0.6-0.1-1.1-1.1-3.8-1-1.7-3.1-6.2-0.3-1.1-0.1-4-0.1-0.7-2.4-5.4 1.3-0.9 2.2-1.9 1.4-0.3 0-0.7-1.8-4-3-3.9-0.4-0.7-0.9-0.5-2.6-2.5-0.8-1.2-0.9-3.3 1.5-1.2 2.8 0.3 2.7 1.1 1.5 1.4 0.6 0.2 0.8-0.2 0.8-0.4 0.4-0.6-0.2-0.7-2.3-1.5 0.2-0.5 0.5-0.5 0.7-0.4 0.6 0.1 0 0.5 1.8 0 0.9 0.6 1.4 2 0.9 0.7 0.8 0.4z m-11.4-32.7l-0.6 0.2-0.6-0.1-1.4-2-0.5-0.9 0.4-0.9 0.8-0.2 0.5 0.4 0.5 0.8 0.9 2.7z" id="SLB1260" name="Malaita" data-id="SLB1260" data-name="Malaita">
 </path>
 <path d="M341.5 461.1l0.9 0 1.7 0 0.8 0.3 1.5 1.3 1.5 1 4.2 2.1 2.2 1.6 2.7 1.4 2.2 1.6 1.5 0.7 3.4 1 3 1.4 8.3 6 4.5 2.8 1.3 1.7-1.7 1.3-0.9 0-1.3-0.4-0.9 0.4-0.4 0.5-0.6 1.5-0.5 0.6-1.1-0.1-0.9-1-0.8-1.2-0.8-0.9-1.1 0.5-0.9-0.1-2.8-1.9-0.4-0.6-0.8-3.2-0.7-1.4-1.5-1.1-0.8-0.3-1.6-0.1-0.7-0.2-1-0.5-0.1-0.5 0.1-0.5-0.1-1.3 0.1-0.6-0.2-0.6-0.9-0.7-1.4-0.5-0.9-0.1-0.7 0.1-0.4 0.4-0.7 1.3-0.4 0.4-1.6 0.1-1.6-0.1-1.3-0.5-2.9-1.6-1.4-0.5 0.6-1.1-1.4-1-1.2 0.1-1 0.6-0.9 0.3-1.3-0.3-1-0.9-2.1-2.7-0.3-1.1-1-1.1-0.1-0.4 0.4-1.3 0.5-0.9 1.5-1.4 0.6-0.9 0.2 0.3 0.8 0.2 1.1 1.2 0.7 0.5 0.8 0.4z m-15-14.3l0.1 1.2-1.7-0.7-1.5-0.3-1.3-0.7-1.2-1.4 1.1 0 1 0.5 1.3 0.2 1.3 0.4 0.9 0.8z" id="SLB1261" name="Rennell and Bellona" data-id="SLB1261" data-name="Rennell and Bellona">
 </path>
 <path d="M325.1 278.9l0.5 1.5 0.4 1.7-0.2 1.4-1 0.7-1.1-0.5-0.6-1.2-0.1-1.6 0.5-1.4 1.2-0.2 0.4-0.4z m42.6 3.1l-1.1 2-1 0.7-0.5 0.5-1.6-0.5-1.5-0.9-1.5-0.6-1.5 0.4 0.3 1-1.1 0.6-1.7 0.4-1.6 0.1 0.4-0.6-0.1-0.5-0.5-0.3-0.9-0.1 0.4-0.8 0.7-0.3 1.8 0 0.8-0.2 0.8-0.6 1.2-1.3 1-3.7 0.7-1.6 1.3 0.2 2 3.6 0.9 0.5 1.1 0 0.9 0.2 0.7 0.3 0.6 0.5-1 1z m-88.7-5.2l0.4 0.3 1-0.3-0.2 1.9-1.1 1.3-3.4 1.6 0.1-2.1 0.2-1.4 1.3-2.8 0.8-0.1 1.5-1.8 0.3 0.4 0 1.5-0.8 0.8-0.1 0.7z m70.2-6.2l1.3 0.6 1.4-0.1 1.3 0.2 1.1 1.5 0.6 0 0.7-1.3 1.4 0.2 1.5 1.1 1.2 1.2 0.5 1.7-0.5 2.2-1.1 2-1.2 1.1-0.5-0.8-1 0.3-0.1-0.9-0.4-0.7-0.7-0.4-0.9 0 0.5 1.5-0.5 0-1.2-2-0.9-0.7-1.2 0.4-1.1 0.5-1.4 0-1.4-0.3-1-0.5-0.2-0.4-0.1-1.4-0.4-0.3-1-0.3-0.4-1 0.6-0.1 1.4-0.2 1.4-0.4 0.8-1.1 0.5 0.6 0.5-1.1-0.5-1.1 0.5-0.3 0.5 0.3z m-76.5-0.4l0.5 1 0.3 1.4 0.7 0.7 0.4 0 0.6-0.9 0.6-0.1 1.5 0.5-2.5 5.1-1.1 1-3.6 1.1-0.6-0.5-0.5-0.7-0.6-0.5-0.9 0.6-1.9-2.6 0.2-0.9 2.3-0.1-0.5-1 0.3-0.7 0.7-0.2 1 0.4 0-1 1.5 0.5-0.1-0.8-0.3-0.7-0.5-0.6-0.6-0.6 1.1 0 0.7 0.4 0.6 0 0.4-0.2 0.3-0.6z m73.4-1.1l0 1.5-1.1-0.4-0.6 0.5-0.9 2.1-0.9-0.7 0.1-0.8 0.5-0.9 0.3-1-0.3-2 0.2-0.7 1.2-0.2 1.1 1.6 0.4 1z" id="SLB1262" name="Central" data-id="SLB1262" data-name="Central">
 </path>
 <path d="M333.1 303.9l1.1 1.3 2.1 0.9 2.3-0.3 0.7 0.7 1.1-0.4 0-0.8 0.4-1.5-1.1-0.7 0.5-0.5 0.7-0.1 0.9 0.2 1.7 0.7 1.5 0.4 0.9 0.2 0.8-0.1 0.7-0.3 1.3-1 0.7-0.2 1.6 0.2 2.4 0.7 1.5 0.1 0.5-0.1 0.6-0.7 0.8-0.2 0.7 0.4 0.4 0.1 5.6 0 1.1-0.5 0.5 0 0.9 0.9 1.5 0.6 1.5 2.2 3 1 1.3 1.4 2.1 3.3 2.7-0.4 3.5 1.5 3.1 2.4 2 2.1 0.5 1.3 0.3 1.6 0.2 3.2 0.4 0.6 0.8 0 1.2-0.4 0.9 0.2 0.8 0.3 1.6 1.1 2.5 0.7 0.6 0.3 0.2 0.8-0.1 1 0.2 1 0.9 0.4 0.3 0.3 0.1 0.9-0.1 1.6 0.2 0.7 0.9 0.9 0.4 0.8-0.1 2.2-1.9 1.3-5.7 1.2-2.9 0.9-1.6 0.9-1.4 1-5.4-1.3-4.8-2.3-1.6-0.3-3.1 0.6-0.9-0.3-0.7-0.7-0.6-0.8-0.6-0.8-0.3-0.1-1.2 0.1-0.7-1.3-0.4-0.3-2.2-0.9-0.6-0.4-1.2-0.4-8.4-0.4-6.3 1-3.4 0-2-0.2-0.9 0-0.6 0.2-0.5-0.2-1.6-0.3-1.7-0.4-1.7-0.2-1.6-0.3-2.5-1.3-1.2-0.4-1.5 0.2-1.2 0.6-1.2 0.1-1.5-1.2-3.5-3.5-1.4-0.9-2-1.1-0.1-0.3 0.1-1.2-0.3-0.3-0.6-0.2-0.4-0.3-0.3-0.7-0.2-1.4-0.6-0.2-1.2-0.2-0.3-0.5 0.2-0.7 0.1-0.7-0.7-1.8-0.9-1.5-1.1-1.4-1.2-1.3-1.1-0.8-0.5-0.5-0.2-0.7 1-0.5 0.7-0.6 0.4-0.8-0.2-0.8-1-1.5-0.4-0.8 0-0.9 0.6-2-0.1-0.8-0.4-1-0.1-0.8-1-1 0.3-0.5 0.7-0.8 0.3-2.6 0.4-1.1 1.1-0.5 1.2-0.3 4.7-2.8 2.6 0.8 2.7 1.8 4 3.6 3 2.2 0.5 0.7 0.3 1.1 0.8 1.3 1 1.2 1 0.8 1.4 0.5z" id="SLB1263" name="Guadalcanal" data-id="SLB1263" data-name="Guadalcanal">
 </path>
 <path d="M312 231.8l2.3 1.9 0.9 0.8-0.1 0.5-0.8 0.8-0.7 0.4-0.7 0.1-0.8-0.2-0.9-0.3-0.8-0.4-0.7-0.5-1-1.2-1-1.4-0.6-0.3-1 0.7-1.1-1.1-1.1-0.7-0.8-0.9-0.1-2 0.5-1.9 1-1.3 1.5-0.7 2.1-0.2 2.2 0.5 0.6 1.2-0.2 3.5 0.5 1.6 0.8 1.1z m-92.6-68.3l0.9 1.2 1.2 0.6 1.5 0.4 1.2 0.1 1.1 0.5 1.2 1.1 0.7 1.2-0.2 0.8-1.2 0.1-1.1-0.6-0.9-1.1-0.5-1-0.7 1.1-1.5-0.4-2.9-1.7 0.2 0.7 0.9 1.8-0.7 0-1.9-0.4-1.8 0 0.1-0.5-0.3-1.1-0.9-1-1.5-0.5-0.6-0.8-0.2-0.5 0.3-0.3 0.7 0.1 2.4 0.7 0.4-0.2-0.4-0.8 0-0.5 0.5-0.3 0.7 0 0.6 0.5 0.9 0.4 1.8 0.4z m13 0.5l0.7 0 0.7-0.9 0.8-0.8 1.1 0.4 0.5-0.4 0.6-0.2 0.5 1.5 1.1 1 2.9 1.2 0.3-0.4 1.1-1 0.4-0.2 1 0.3 0.4 0.8 0.2 0.9 0.5 0.9 1.5 1.4 0.9 0.6 0.7 0.3 0.5 0.5 1.2 2.2 1.3 0.8 1.2 1.6 0.6 0.6 0.9 0.6 2.7 1 1.4 0.8 2.2 1.9 1.6 0.9-0.8 1.5 0.6 1.3 1.2 0.7 1-0.3 3 1.2 0.9 0.6 0.5 0.9 0.3 1.1 0.5 0.7 1-0.4 2.1 1.6 1.7-0.8 1.4-0.3 1.3 0.1 1.7 0.4-1 0.4 0.3 0.7 0.8 0.7 0.7 0.3 1.2 0.1 0.7 0.4 0.5 0.6 0.4 0.9 1.2-0.9 0.8 0.7 0.6 1.2 0.8 0.6 2.4 0.2 1-0.3 0.4-0.9 1.4 0.6 1.2 0.9 1.2-0.9 0.7 0.9 0.7 1.6 0.7 1.3 1.2 0.9 2.2 1.2 1 0.7 1 0.5 0.5 1.1 3.5 2.7 6.9 4.2 14.5 10.9 0.3 0.8-1.6 1.7-1.6 2.1-0.5 0.4-0.7-0.3-0.8-0.2-0.9 0.1-0.6 0.4 0.1 0.5 1.1 0.8 0.7 1.3 0.7 0 0.7-0.4 0.6-0.6 0.7 0.6 2.2 3.1 0.6 1.2 0.2 1.1 0.1 1.5 2.2 1.7 0.9 1.3-1 0.9-0.7-0.2-2.4-1.4-0.4 0-1.2 0-0.4-0.4-0.4-0.9-1.3-0.6-0.9-1.3-1.5-0.5-0.5-0.6-1.1-1.3-2.3-1.9-0.7-0.8-0.2-0.7 0.1-0.7-0.1-0.4-1.2-0.2-0.8-0.5-3.5-3.1-6.3-1.4-2.6-1.6-1.9-0.8-1.7-1.4-1.2-0.6-1.3-0.3-1 0.3-2.5-1.5-1.4-0.4-1.2 0.4-0.8-1.8-0.7-0.9-0.8-0.4-1.1-0.1-1-0.4-0.6-0.6-0.2-1-1.6 0.5-1.6-0.3-1.5-0.8-7-5.1-0.5-0.1-1.1 0.2-0.5-0.1-0.3-0.5-0.1-1.3-0.1-0.3-0.6-0.1-0.5 0.6-0.5 0-2-1-0.5-0.1-1.1 0.1-0.5 0-0.5-1.6-1.5-0.5-0.4-0.5-0.1-1.1-0.5 0.4-1.6 0.7-0.1-1.5-0.7-1.2-1.1-0.7-1.4-0.3-4.4-2-0.4-2.9-0.6-1.3-1.3 0.3-2.3-0.5-1.1-0.7 0.6-1.1-0.8-1-0.8-0.6-0.5 0-0.8 1-0.8-0.9-1-2.7-0.8-1-1.2-0.9-1.3-0.5-1.2 0.4-0.8-1.4-3.2-1.8-1.2-1-0.4-1 0.1-0.8 0.3-1.6 0-3.1-5.9-4.9-3.8-2.1-0.7-1.1-0.1-1.3 0.5-0.9 1.3 0.2 1.5 0.9 7.4 2.5 0.6 0.5z m-21.7-7.9l0.4 0.9 1-0.3 0.8 0.4 1.8 1.4 0.9-0.7 1.6 0.1 1.8 0.7 1.3 1-0.7 0.3-0.5 0.6-0.1 0.7 0.3 0.9-3.3-0.7-0.9-0.3-0.6-0.6-0.6-0.9-0.9-0.8-2.2-0.5-1.6-1.1-1-0.2-0.5-0.4-0.1-0.9 0.3-0.7 0.6-0.1 0.7 0.5 0.8 0.3 0.7 0.4z m-2.8-6.9l0 2.1 0.8-0.4-0.2 1.3-0.1 1.6-1.1-0.6-0.3-0.4-0.6 2.6-1-0.7-0.7-1-0.8-0.8-1.6-0.1 0-0.5 1-1 1.3 0.1 1.9-1.9 1.4-0.3z" id="SLB1264" name="Isabel" data-id="SLB1264" data-name="Isabel">
 </path>
 <path d="M998.5 521.6l-1.3 0.4-0.3-0.7 1.1-1.2 0.8 0.1 0.2 1.1-0.5 0.3z m-139.1-48.6l-1.3 0.2-0.5-0.9 0.4-1.3 1-0.9 1.4-0.2 0.6 0.3 0.1 0.7-0.4 1.2-1.3 0.9z m-7-4.7l1.8 0.3 3.1 1.2-0.8 2.4 0.1 1.1-0.1 1.5 4.1-0.3 0.4 3-5.6 0.4-1.6 0.2-1.3-0.1-2.1-0.2-1.1-1.6-0.9-0.8-1-0.4-0.4-0.6-2.3-2.7 0-1.3 0.6-0.8 2.3-1.1 1.4 0 1.7 0 1.7-0.2z m-22.8-25.2l-0.6 1.8-1.7 1.9-1.4 0.2-0.5-0.1-0.7-0.4 0.1-1.2 0.7-1.1-0.1-1-1.1 0.6-0.8 0.7-0.5-0.6 0.2-1.8 1.1-1.3 1.3-1.3 1-0.3 1.1 0.4 1.2 1 0.6 1.1 0.1 1.4z m-37.8-46.2l1.3 0.6 0.5 0.7 2.2-0.3 2.1 0.1 0.4 1.9-0.8 0.9-0.3 1.4-2.8 1.1-0.9 0.9-1.4 0.6-0.8 0.6-1.4-0.1-0.6 0.2-1.9-0.8-1.6 1.3-0.8-0.3-2.7 0.4-3.2 3.7-2.2 3.4-0.9-0.9 0.2-2.1-0.9-1.1-0.9-0.2-2.1 1.9-2.3-0.1-1-1.8-0.2-3-0.1-1.6 1.5-1 1.5-2.2 0.7-0.1-0.3 2.6 1.1 1.3 0.7 0.2 0.4-1 0.3-3.2 1.2-1.7 2.3-2.1 3.4-0.3 5.3 0.6 2.4-1.1 2.6 0.6z m-23.6-17.8l-0.8 0.3-0.6-0.2-0.3-0.7 0-0.9 0.2-0.5 0.5-0.4 1 0.3 0.7 1-0.2 0.8-0.5 0.3z m37.2-15.3l0 3.7 0.8-0.3 1.1-0.1 0.9 0.7-0.7 1.5-1.4 1.3-1.1 0.1-0.1-1.1 0.2-1-0.5 0-0.2-0.6 0.5-1.5 0.3-1.6 0.2-1.1z m71.3-24.9l-0.6 0.1-0.9-0.6-0.6-1.4 0.3-0.7 0.8 0.1 0.9 1 0.3 1-0.2 0.5z" id="SLB1934" name="Temotu" data-id="SLB1934" data-name="Temotu">
 </path>
 <path d="M157.1 249.1l0.7 0.7 0.6 0.8 2 1 1.1 1.6-0.1 1.6-2 0.8-0.6-0.2-2.7-1.4-3.6-1-4-1.7-1.8-1.3 0.2-1.2 2.8 0.4 1.2 0.1 1.2-0.5 0.4 0.6 0.6-1 0.5-0.5 0.4-0.2 0.7 0.1 0.7 0.8 1.7 0.5z m45.9 9.1l-1.2 0.5-1.5-2.3-0.3-0.4-0.7-0.4 0-0.9 0.5-2 0.3-0.7 2.2-1.7 0.4-0.6 0.4-0.9 0.2-1 0.1-1.1 0.5 0 0 1.6 0.6 1.1 0.5 1.8 0.2 1.7-0.3 1.1 2.1 0.8-0.1 0.7-0.3 0.6-0.4 0.4-1.7 0.4-1.5 1.3z m-14.3-21.6l1 0.4 0.8-0.4 0.8-0.7 0.7-0.6 1.6-0.4 1.8 0 1.6 0.5 0.7 1.2 0.2 1.6-0.2 0.6-0.5 0.6-0.7 0.2-0.9 0-0.7 0-0.3 0.6-0.3 0.3-1.5 0.6-0.2 0.4 0.5 0.5 1.4 0.2 0.6 0.4 0.8-0.4 0.8-0.1-1 1.2-1.1 0.8 1.7 1.8-0.6 1.7-3.1 2.7-0.9 1.5-0.4 0.4-0.7 0.4-1.3 0.3-0.6 0.3-1 0.2-1.7-0.4-1.5-0.5-0.6-0.3-0.2-0.5-1.4-0.8-1.1-1.5-2.1-2-0.4-0.4 0-3.9 0.5-2.6 0.8-0.9 0.3-0.7-0.1-1 2.1 1.2 0.8 0.1 0.3-1.3 0.7 0.3 0.3 0.8 0.6-1-0.2-0.8-0.4-0.7 0-1.2 0.4-0.5 2.6-1.1 0.8-0.2 0.3-0.3 0.5 0.5 0 0.6-0.6 0.4-0.3 0.6 0.2 0.6 0.4 0.7z m-47.6 1.8l-0.6 0.6-1.1 0-0.8-0.4-0.5 0.4-0.1 0.3 0.1 1.7-0.5 2.2-0.1 1.2 0.4 1 2.7 3 1.5 1 1.7 0.5 0 0.4-1.2 0.3-1.3 0-1.4-0.4-1-0.6-0.9-0.8-0.5-0.4-0.7-0.1-0.6-0.3-0.1-0.7 0-1.6-0.5-0.8-2-2.8-0.9-0.6-1.2-0.3-1.6-1-1.4-1.1-0.6-1 0.2-1.1 0.5-0.9 0.6-0.7 0.7-0.6 2-1.1 1.1-0.8 1.5-2.9 2.1-2 2.2-1.5 1.4 0 1.4 1 1.1 1.4 0.8 1.9 0.3 2.2-0.2 0.5-1.1 1.2-0.8 2.6-0.4 0.6-0.2 0.5z m-16.9-18.2l0 0.6-2.1-1.3-1.1-2.8-1.4-2.6-3-0.6 1-1-1.2-0.6-1.3-1-0.6-1 1-0.6 1.1 0.9 1.9 0.1 1.9 0.4 0.8 1.5 0.1 1 0.9 2.9 0.4 2.5 0.6 1.1 1 0.5z m-4.1-12.9l1.9 0.7 1.7-0.2 1.6 0.2 1.5 1.3 0.8 1.6 0.5 2 0.3 2.2 0 2-0.5 0-0.2-1-0.5-0.2-0.8 0-0.6-0.3-0.3-0.5-0.7-2.1-0.7-1.4-0.9-1.1-1.1-0.9-1.4-0.8 0.5-0.5-0.8 0-0.3-0.2 0-0.8z m-21.5-7.8l0.3 1.2 0.8-0.2 1.2 3.3-1.9 0-2.3-2 0.4-2.3 1.5 0z m61.9 10.1l0.6 1.2-0.2 1-0.4 0.8 0.2 0.9 0.6-0.5 0.9 0.4 0.6 0.1 0.5-0.2 0.9-0.6 0.6-0.2 1.5-0.3 1.2 0 1.2 0.4 2.2 1.5 0.6 1 0.2 0.4 0.3 1.6 0.9 1.3 2 1.3 0.7 1.1-0.1 1.9 0.1 0.7 0.5 0.7 1.1 0.9 0.5 0.5 0.6 1.2 0.5 2.7 0.4 1.3 0.3 0.2 1 0.2 0.3 0.6 0 0.8-0.3 0.6-1.5 2.5-0.2 0.4-0.1 1.6 0.1 0.6 0.4 1.2-4.6-1.8-2-0.2 0 0.5 1 0.6 0.7 0.9 0.2 1.3-0.4 1.4-0.5 0-0.2-1.3-0.5-0.8-0.9-0.8-0.3-1.1-0.6-1.1-1.7-1.7-1.9-1.1-4.1-0.4-1.9-0.8-3.3-2.3-1.8-2.2-0.3-0.2-0.1-1.1-0.6-1.7-0.3-1.1 0-4.6 0.6 0.8 0.3 0.9 0.1 2.1 0.4 0.9 1.8 0.5 0.4 0.7 0.2 0.8 0.5-0.1 0.5-0.7 0.3-1-0.4-0.8-1.8-1.7-0.7-2.4-0.8-1.9-1.2-1.7-1.3-1.1-0.9-0.3-1.5 0.6-1.1 0.2-1.1-0.8-0.5-0.1-0.4 0.9-0.9-0.5-0.6 0-2.2 1-2.5 0-2.8-0.2-0.8 0.2-0.7 1.1-0.5 1.4-0.8 1.3-1.6 0.9-1.3-0.3-2.6-1.5-0.8 0.3-0.5 0-0.5-7.1 0.3-0.4 1-1.6 0.5-0.3 1.9-0.1 0.8-0.3 0.7-0.7 0.3 1 0.5 0.3 0.6-0.2 0.6-0.6 0.2-0.7 0-1.6 0.3-0.8-0.2-0.9 0.4-1 1.6-2 0.8-1.1 1.1-2.5 0.7-1 3.2-3.2 1.2-0.8 1.2-0.4 2.2-0.6 1.2-0.5-0.1 0.4 0.6 0.1 5.2 3 2 0.2-0.5 1.3 0.2 1 0.5 0.9 0.3 1.2-0.1 2.9 0.1 1.4 0.5 1.1-0.7 1.4 0.3 1 1.7 1.5z m-77.3 0.1l-1.3 0.7-0.7-1-1.9-5.5-1.1-1.7-0.2-1.7 0.6-3.6-0.9-3.8 0.1-1.7 1.3-0.7 1.1 1 0.9 1 0.3 0.9 0.5 1.7 1 1.7 0.4 1.4 0.3 1.3 0.1 1.1 0.3 1.9 0.1 1.1-0.4 0.9 0.6 1.6-0.3 1.9-0.8 1.5z m43.4-6.3l-1.3 2.1-1.5 1-1.6-1.8-1 0.3-0.5-0.3-3.8 0.3-3.9-3.1-3-4.5-1.2-3.7 0.2-0.9 0.2-0.9 0.7-1.7 1.8-2.8 0.2-0.6 1.1-1 2.3-0.9 2.5-0.7 1.8-0.2 3.5 1.8 2.5 2.7 1.5 3.2 0.8 3.6 0.1 3.6-0.2 1.3-1.2 3.2z m-47.1-21.9l-1.6 0.7-1.3-0.7 0.1-0.7 0.6-0.7 0.8-0.6 0.6 0 1.1 0.8-0.3 1.2z m4.2-18.8l0.2 0.6 0.4 0.6 0.9 0.9 0.2 0.9 1.1 0.2 0.3 0.2 0 1 0.3 0.3 0.7 0.3 0.8 0.5 0.6 1.8 0.7 0.5 1.5 0.5-0.5 0.5 1 1.1 1.7-0.6 1.7 0.6 1.6 1 1.5 0.5 0.5 1.1-1.1 2.4-2.8 3.8-1.4 1.2-1.8 1.9-1.2 2.1 0.6 1.8 0.7 0.9 0 0.8-0.6 0.7-0.9 0.4-0.9-0.8-0.8-0.2-0.9 0.5-0.5 0-0.2-1.5 0.4-1.6-0.3-1.1-3.5-1-0.2-1.2 0.7-3.2-0.3-0.6-1.8-1.2-0.9-2.1-0.5-0.5-2-0.6 0-0.5-0.8-1.8-0.4-0.2-1 0.5-1.4-3.4 0.6-3.4 1.9-2.8 3.1-1.8 0.9 0.2 0.7 0.4 0.7 0 0.7-0.6z m-78-18.6l1.2 0.6 0.8 0.8 0.7 0.9 0.9 0.8-1.6 1.4-1.6 0.4-3.8-0.3-1.3-0.6 0.5-1.4 2.1-2.6 0.5 0.2 1.6-0.2z m18.4-22.8l2.3 0.5 0.5 0.3 1.1 1.3 0 1-0.5 1-0.3 1.3-0.5 0.5-1.3 0.4-1.3 0.1-1-0.2-1.2 1.1-1.3 0-1.2-0.2-1.4 0.7-0.7-0.4-1.4-1.2-2.1-0.7-0.4-0.3 0.1-1.1 1.9-4.1 0.7 0.3 0.2-1.1 0.4-1.4 1.3-0.4-0.3-0.6 0.3-1 0.9 0.4 2.7 2.2 2.5 1.6z m21.5-10.8l-0.4 1 1.1 1.6 0.4 0.4 0.6 0.3 1.5 0.5 0.5 0.2-0.7 0.5-0.8 0.1-0.8-0.2-0.8-0.4-0.2 1.2-0.3 1.1-0.6 1.1-1 0.8 0-0.6-0.5-1-0.5 0.6-0.6 0.4-0.7 0.2-0.7-0.1 1.2-0.8 1.1-1 0.2-0.7-0.8-1-0.2-0.7 0.3-1 0.3-0.4 1.2-0.3-0.4-0.5-0.9-0.3-0.9-1.5-0.8-1.5 0.2-1.5 2-1.3 1.6 0 0 0.6-1 0.2-0.8 0.6-0.6 0.9-0.2 1.1 0.7 0.6 1.3 0.4 1 0.4z" id="SLB3507" name="Western" data-id="SLB3507" data-name="Western">
 </path>
 <path d="M151 149.2l1.9 0.4 2.2-0.3 1.8 0.1 1.3 1.4 0.4-0.6 0.6 0.6-0.5 0.6-0.1 0.8 0.1 0.8 0.5 0.8-2.1-1.5 0 1.2-0.8 0.4-2.3-0.1 0-0.4 1.5-1.1-2.9-0.8-0.9-0.5-0.6-0.1-1.9 0.1-0.8-0.2 1.3-0.9 1.3-0.7z m21 5.2l0.6 1-2.1 0.2-1-0.1-1.3-0.5-1.6 0.4-0.5-0.1-0.5-0.7-0.5-0.2-1.4-0.9 0.7-1.9 2.5-2.9 3.6 1.3 0.5 0.5 0.1 1.1 0.9 2.8z m-90.6-61.1l0.8 0 1-0.5 2.9 0.9 1.9 1.5 3.9 4.4 1.1 0.9 3.3 2.3 3.2 0.8 4.7 3.2 3.2 1.5 2.7 0.5 1.2 0.7 1 0.3 0.8 0.5 0.6 1.4 1.6 0.1 0.7 0.1 0.7 0.7 1.7 2.2 2.8 2.3 0.6 1.1 0.2 1.4 0.2 3.2 0.8 3.4 1.2 2.9 0.8 0.9 0.7 0.8 0.7 1 0.4 1.4 1.2-0.7 0.4-0.4 0.6 1.4 1 0.9 1.2 0.7 1.5 0.2 1.1 0.4 0.7 1.1 0.4 1.3 0.2 1.1 0.4 0.6 1 0.5 2.2 0.7 0.8 0.5 0.9 0.7 0.8 0.9 0.6 1 0.4 0 0.2-1.3 0.6 0 0.8 0.5 0.8 0.3 1.6 0 0.7-0.2 2.8-1 1.4 0 1 0.7 0.4 1.8 0 1.8-0.2 1-1 0.4-2.1 0.1-0.9 0.6-1.9 3.5-0.2-0.8-0.3-0.5-0.5-0.1-0.6 0.4-0.9-0.8-1.9-0.4-3.3-0.3-1.5-0.5-1-1-0.3-1.4 0.7-1.8-0.7 0.2-1.3 1.4-0.6-0.3-0.4 0.2-0.1 1.1-1.4-0.8-2.7-0.9-1.5-0.9-4-0.3-0.7 0.1-0.5 0.7-1 0-1.1-0.8-0.8-2.3-0.8-1.1-1-1-0.9-0.4-0.7 0.3-1.5 0.6-1 0.1 0.6-1-0.7-1.3-1.1-1-1.4-0.6-1.7-0.3-1-0.4-1.2-0.9-7-8.3-0.3-0.7-0.2-0.9-0.3-0.8-0.7-0.4-1-0.3-0.6-0.6-0.8-1.7-2.9-4.1-0.9-0.6-0.7-0.7-2.6-4.5-1.3-0.8-3.5-1.9-1.2-0.4-0.9-0.4-8.3-7.3-0.2-0.2-1.6-1.3-0.5-1.1-0.6-4.1 0.1-1.5 0.5-1.1 2.5-2.1 1.3-0.2 1.7 0.2 1.5 0.6 0.9 1 1.1 0.6 0.5 1.4z" id="SLB3508" name="Choiseul" data-id="SLB3508" data-name="Choiseul">
 </path>
 <path d="M470.3 368.2l-1.7 0.9-0.5-0.1-0.3-0.7 0.6-1.2-0.2-0.3-0.9-0.3-1-1.9 0-1 1-0.8 1.6 1.3 1.3 2.1 0.1 2z m-32.6-5.3l0.4 0.4 4.1-0.7 8 3.5 8 5.1 4.5 3.6 1.4-0.5 0.9 0.6 1.5 2.3 1.1 0.7 1.2 0.1 1.1-0.1 1 0.1 0.9 0.4 2.2 1.4 1.2 1.3 1.6 0 1.7-0.3 1.1-0.7 2.8 0.9 1.3 0.1 1.1-0.5 0.6 0.6 1.1 1.4 0.8 0.6 0.9 0.3 2.4-0.3 1.3 0.3 0.4-0.2 0.3-1.6 0.5-0.4 1.4-0.2 1.5 0.7 2 2.8 0.9 0.7 0.8 0.5 0.6 1.1 1.6 4.1 0.3 0.6 0.6 0.4 0.8 0.5 0.4 2.5 0.6 1.1 1 0.9 2.7 1.8 0.8 0.9 0.3 1.2 0 4.4-0.3 0.4-0.4 0.1-1.1 0.9-0.3 0.5 0.6 1.9 2.3 0.4 3-0.1 2.4 0.4 0.8-0.4 0.5 0.6-0.1 0.9-1 0.5-1-0.2-0.8-0.2-0.9-0.1-1.1 0.5-0.6-0.3-0.7-0.2-1.3 0-1-0.2-5.4-2.1-1.7 0.2-1.7 1.6-0.8-0.5-1-0.1-2 0-0.7-0.2-1.6-1.3-3.3-1.3-1.2-1-0.7-0.3-0.9 0.1-2.2 0.8-0.7-0.2-0.7-0.4-3.1-0.9-0.4 0.3-0.9 0.3-0.5-0.2-1-0.9-0.8-0.2-0.5-0.6-0.6-1.3-0.4 1.1-0.1 0.5-1.6-1.2-0.9-0.2-1.1 0.3-0.2-0.5-0.8-1-0.7 0.3-0.6-0.5-0.4-0.8 0.2-0.6-0.7-0.9-0.9 0-1 0.1-1-0.2-0.6-0.8-0.2-0.8-0.4-0.8-1.1-0.2-0.4-0.5-1-1-1-0.7-0.5 0.3-0.3 0.7-0.8-0.5-1.4-1.4 0-0.7-0.4-0.4-1.2-0.5 0.2-0.6-0.2-0.6-0.4-0.5-0.6-0.5-0.6 0.8-0.9 0.2-1.1-0.1-1-0.3 1.5-4.7-0.8-0.6-0.1-1.5-0.4-0.8-0.4-0.1-1.5 0.3-0.9 0.1 0.7-0.9 0.6-1.3-0.1-1.1-1.2-0.4 0.8-1.9 0.5-0.9 0.9-0.5-0.1-0.4-0.6-0.5-0.4-0.1-1.1 0.2-0.5-0.1-0.5-0.4-0.8-1-1-0.1-2.1 0-0.8-0.3-0.4-0.5-0.5-0.3-1-0.1-1.6 0.1-0.5 0.2-0.7 0.7-0.6 0.2-0.5-0.1-0.5-0.4-2-0.2-0.8-0.3-0.6-0.6-0.3-1.2 0.6-1.6-0.3-0.8 0.7-0.9 0.4-0.1-0.5-1.2-0.1-1.7 0.6-1.4 1.5-0.5 1.2 0.6z" id="SLB3509" name="Makira" data-id="SLB3509" data-name="Makira">
 </path>
 <path d="M333.1 303.9l1.6 0.2 2.9-0.2 0.8-0.1 1.3-0.7 1.1 0.7-0.4 1.5 0 0.8-1.1 0.4-0.7-0.7-2.3 0.3-2.1-0.9-1.1-1.3z" id="SLB5130" name="Capital Territory (Honiara)" data-id="SLB5130" data-name="Capital Territory (Honiara)">
 </path>
 <circle cx="85.3" cy="162.5" id="0">
 </circle>
 <circle cx="95.4" cy="102.6" id="1">
 </circle>
 <circle cx="81.6" cy="161.2" id="2">
 </circle>
</svg>