<?xml version="1.0"?>
<!--
************* Copyright (c) 2017 Pareto Softare, LLC DBA Simplemaps.com *******************		
************* Free for Commercial Use, full terms at  http://simplemaps.com/resources/svg-license ************
************* Attribution is appreciated! http://simplemaps.com ***************************
-->
<svg baseprofile="tiny" fill="#7c7c7c" height="556" stroke="#ffffff" stroke-linecap="round" stroke-linejoin="round" stroke-width="2" version="1.2" viewbox="0 0 1000 556" width="1000" xmlns="http://www.w3.org/2000/svg">
 <path d="M30 554.1l-1 0.9-1-0.5-0.2-1 0.9-1.1 1.2-0.7 1-0.3-0.2 1.2-0.7 1.5z m2-36.3l-1.3 0.5-3.4 2.6-1.8 1-7.3-0.2-8 2.5-6.5 0.3-2.7-6.7 2.3 2.8 4.3 1.3 4.6-0.3 3.1-1.7 1.7 0 2.7-0.8 2.5-1.2 1.3-0.8 0.6 0.7 0.7-0.7 1 0.5 1.1 0.2 0-0.7-1-0.7-0.6-0.9-0.3-1.2-0.2-1.3 4.7 2 2.1 1.4 0.9 1-0.5 0.4z m-9.2-4.8l-1.7 1.6-3.1 0.3-3.1-0.4-1.7-0.9-1.2 0.7-2.3-0.3-1.1 0.4-0.2-0.4 0-0.3-0.6-0.1 0-0.4 0.5-0.1 3.4-1.2 3.8 0.2 3.9 0.7 3.4 0.2z m974.7-218.8l-2.5 3.9 1.2-5.2 1-2 1.8-1-0.4 2.2-1.1 2.1z m-349.5-15.9l0.5 1.1-0.4-0.1-0.1-0.2 0-0.8z m59.6-155.5l0.1 0.7-0.5-0.5-0.2-0.5-0.4-1.1 0.7 1 0.3 0.4z" id="SYC5197" name="Outer Islands" data-id="SYC5197" data-name="Outer Islands">
 </path>
 <path d="M923.9 47.8l-0.3 0.8-2.2-0.8 0.3-0.3 2.2 0.3z" id="SYC5198" name="Anse aux Pins" data-id="SYC5198" data-name="Anse aux Pins">
 </path>
 <path d="M921.1 47.7l0.3 2.6 0.4 1.4-0.3 1.9-1.3-0.3-1.1-1.4 0.1-0.9-0.3-0.6 0.2-1 1.1-0.8 0.4-1.1 0.5 0.2z" id="SYC5199" name="Anse Boileau" data-id="SYC5199" data-name="Anse Boileau">
 </path>
 <path d="M917.1 39.6l-0.6-0.1-1.3 0.7-0.2-0.8 0.2-0.9 0.6-1.3 1.2 0.2 0.5-0.5 0.3 1.2-0.4 0.5-0.3 1z" id="SYC5200" name="Anse Etoile" data-id="SYC5200" data-name="Anse Etoile">
 </path>
 <path d="M921.4 47.8l2.2 0.8-0.4 1.9 0.3 0.6 0.3 2.3-1.8-1.2-0.2-0.5-0.4-1.4-0.3-2.6 0.3 0.1z" id="SYC5201" name="Au Cap" data-id="SYC5201" data-name="Au Cap">
 </path>
 <path d="M923.8 53.4l-0.8 0.2-0.3 1.1 0.9 2-1.6 0.1-0.4-1-0.1-1.8 0-0.4 0.3-1.9 0.2 0.5 1.8 1.2z" id="SYC5202" name="Anse Royale" data-id="SYC5202" data-name="Anse Royale">
 </path>
 <path d="M921.5 53.6l0 0.4 0.1 1.8 0.4 1 0 0.6-1.6-0.1-0.2-0.3-0.5-1.1-0.8-0.3-0.7 0.4-0.8-0.3 0.5-1.8 1.6 0 0.7-0.6 1.3 0.3z" id="SYC5203" name="Baie Lazare" data-id="SYC5203" data-name="Baie Lazare">
 </path>
 <path d="M947.6 15l-2.1-1.2-0.6-0.9-5.8-3.5 0.8-0.3 0.6-0.1 0.8 0 1.4 1.3 1.3 0.5 1.5 0.3 0.7 1 1-0.5 1.3 0.2 1 1.2-1.6 0.1-0.3 0.8 0 1.1z m-3.5-6.1l0 0.3-1.2-0.4-0.9-0.8 0.3-0.3 0.7 0 2.1 0.1-0.2 0.5-0.9 0 0.1 0.6z" id="SYC5204" name="Baie Sainte Anne" data-id="SYC5204" data-name="Baie Sainte Anne">
 </path>
 <path d="M915.2 38.5l-0.2 0.9 0.2 0.8-0.5 0.4 0.3 0.7-0.7 0.9-0.6-1.1-0.9 0.3-0.2-0.3 0.3-0.2 0.4-0.8 0.4-0.8 0.6-0.4 0.1-0.4 0.8 0z" id="SYC5205" name="Beau Vallon" data-id="SYC5205" data-name="Beau Vallon">
 </path>
 <path d="M917.1 42.3l0 0.5-0.5 0.2 0.9 1.5-0.5 1-1.4-0.7-0.4-1.4-0.6-0.6 1.2-1 1.2-0.2 0.3 0.4-0.2 0.3z" id="SYC5206" name="Bel Air" data-id="SYC5206" data-name="Bel Air">
 </path>
 <path d="M914.3 42.2l-1.4 0.5 0.2 0.7-1.1 0.5-2.8-1.4 0.8-0.8 0.6-0.2 1.2-0.1 0.8-0.3 0.2 0.3 0.9-0.3 0.6 1.1z" id="SYC5207" name="Bel Ombre" data-id="SYC5207" data-name="Bel Ombre">
 </path>
 <path d="M922.4 46.4l-0.7 1.1-0.3 0.3-0.3-0.1-0.5-0.2-1.3-1.5 0.7-0.4 0.2-0.7 2.2 1.5z" id="SYC5208" name="Cascade" data-id="SYC5208" data-name="Cascade">
 </path>
 <path d="M917.5 36.9l-0.5 0.5-1.2-0.2-0.6 1.3-0.8 0 0.1-0.8 0-1.6 0.7-0.2 1.4 0.1 0.9 0.9z" id="SYC5209" name="Glacis" data-id="SYC5209" data-name="Glacis">
 </path>
 <path d="M918.8 46.3l0.5-0.3 1.3 1.5-0.4 1.1-1.1 0.8-0.2 1-1-0.1-1-1.5-0.9-1.3 0.1-0.4-0.4-0.1 0.1-0.6 0.8-0.1 0.4-0.8 2 1.5-0.2-0.7z" id="SYC5210" name="Grand'Anse" data-id="SYC5210" data-name="Grand'Anse">
 </path>
 <path d="M936 15.3l-0.3 0-0.4-0.4 0.3-0.3 0.2 0.2 0.2 0.5z m1.4-2l-0.5 0.1 0-0.4 0.3-0.2 0.3 0.1-0.1 0.4z m10.2 1.7l-0.9 0.8-1.2-0.1-1.4-0.6-1-0.9-0.5-1.3-1.4-0.2-1.2-0.1-0.7-0.8-0.1-0.7-0.6-1.5 0.5-0.2 5.8 3.5 0.6 0.9 2.1 1.2z m-9.2-13.8l-0.3 0.3-0.8-0.1-0.5-0.1 0.1-0.3 0.6 0 0.9 0.2z" id="SYC5211" name="Grand'Anse Praslin" data-id="SYC5211" data-name="Grand'Anse Praslin">
 </path>
 <path d="M965.6 38.9l-0.5 0.2-0.6-0.1-0.6-0.6 0-0.4 0.3-0.2 0.4-0.1 0.4 0.1 0.5 0.6 0.1 0.5z m-68.3-9.1l-1.8 0.4-1.4-1.6-0.6-2.4 0.4-1.8 1.6 0.5 1.8 1.3 0.9 1.7-0.9 1.9z m57.8-12.5l-0.3 0.9-0.7-0.2-0.8-0.9-0.3-1.2 0.6-1.2 0.3-1 1.2 0.5 0.7 1.3 0.6 0.9-0.7 0.3-0.6 0.6z m7.9-3.1l-0.1 0.7-0.4-0.2-0.1-0.7 0.2-0.7 0.5 0.3-0.1 0.6z m-3.9-0.6l-0.6 0.2-0.5-0.6-0.6-0.9 0.1-0.6 0.5 0.1 1 1 0.1 0.8z m-1-4l-0.4 0-0.4-0.8 0-0.5 0.3 0 0.2 0.6 0.3 0.7z" id="SYC5212" name="La Digue and Inner Islands" data-id="SYC5212" data-name="La Digue and Inner Islands">
 </path>
 <path d="M917.1 39.6l0 0.8-0.1 1.2-1.2 0.2 0.2-0.7-0.8-0.9 1.3-0.7 0.6 0.1z" id="SYC5213" name="English River" data-id="SYC5213" data-name="English River">
 </path>
 <path d="M915.8 41.8l-0.8-0.5-0.3-0.7 0.5-0.4 0.8 0.9-0.2 0.7z" id="SYC5214" name="Mont Buxton" data-id="SYC5214" data-name="Mont Buxton">
 </path>
 <path d="M920.8 42.6l0.2 0.2 0.4-0.1 0.3 0.7-0.1 0.3-0.3 0.1-0.4-0.2-0.3-0.3-0.4-0.1 0-0.4 0.2-0.2 0.4 0z m-3.3 1.9l-0.9-1.5 0.5-0.2 0-0.5 0.4 0 0.7 1-0.4 0.6-0.3 0.6z m4.8-2l-0.2 0.2-0.6-0.3-0.1-0.3 0.2-0.2 0.2 0.3 0.4 0 0.1 0.3z m-0.9-2.9l0.9 0.1 0.2 0.1-0.2 0.4-0.3 0.5-0.7 0.2-0.4 0.3-0.2-0.2 0.1-0.6-0.1-0.3 0.3-0.4 0.4-0.1z" id="SYC5215" name="Mont Fleuri" data-id="SYC5215" data-name="Mont Fleuri">
 </path>
 <path d="M918.6 43.8l0 0.7 0 0.5-0.1 0.3 0.3 1 0.2 0.7-2-1.5 0.5-1 0.3-0.6 0.4-0.6 0.4 0.5z" id="SYC5216" name="Plaisance" data-id="SYC5216" data-name="Plaisance">
 </path>
 <path d="M923.9 47.8l-2.2-0.3 0.7-1.1 0.3 0.1 1.2 1.3z" id="SYC5217" name="Pointe La Rue" data-id="SYC5217" data-name="Pointe La Rue">
 </path>
 <path d="M911.7 47.7l-0.2 0.1-0.6-0.7 0-0.5 0.4 0.1 0.3 0.2 0.2 0.3-0.1 0.5z m-3.2-1.3l-0.8-0.1-0.5-0.4 0.2-0.2 0.4 0.1 0.7 0.6z m8.5-0.9l-0.4 0.8-0.8 0.1-0.1 0.6 0.4 0.1-0.1 0.4-1.4-0.1-2.6-1.6-0.7 0-0.7-0.3 0-0.4 0.5-0.1-0.2-0.3-0.8-0.2-1 0.2-0.8-0.3-0.6-0.4 0.2-0.3 0.8 0.1 0.2-0.3-0.3-0.5 0.6-0.5 2.8 1.4 1.1-0.5-0.2-0.7 1.4-0.5 0.3 0.6 0.6 0.6 0.4 1.4 1.4 0.7z" id="SYC5218" name="Port Glaud" data-id="SYC5218" data-name="Port Glaud">
 </path>
 <path d="M915.8 41.8l-1.2 1-0.3-0.6 0.7-0.9 0.8 0.5z" id="SYC5219" name="Saint Louis" data-id="SYC5219" data-name="Saint Louis">
 </path>
 <path d="M920.4 57.3l1.6 0.1 0-0.6 1.6-0.1 0.1 1.4 0.8 0.5 0.3 1.4-1.8 0-1.5-0.7-1.1-2z" id="SYC5220" name="Takamaka" data-id="SYC5220" data-name="Takamaka">
 </path>
 <path d="M920 45.6l-0.7 0.4-0.5 0.3-0.3-1 0.1-0.3 0-0.5 1.4 1.1z" id="SYC5221" name="Les Mamelles" data-id="SYC5221" data-name="Les Mamelles">
 </path>
 <path d="M920.2 44.9l-0.2 0.7-1.4-1.1 0-0.7 1.6 1.1z" id="SYC5222" name="Roche Caïman" data-id="SYC5222" data-name="Roche Caïman">
 </path>
 <circle cx="916.1" cy="41.4" id="0">
 </circle>
 <circle cx="919.4" cy="51.4" id="1">
 </circle>
 <circle cx="912.8" cy="41.4" id="2">
 </circle>
</svg>