<?xml version="1.0"?>
<!--
************* Copyright (c) 2017 Pareto Softare, LLC DBA Simplemaps.com *******************		
************* Free for Commercial Use, full terms at  http://simplemaps.com/resources/svg-license ************
************* Attribution is appreciated! http://simplemaps.com ***************************
-->
<svg baseprofile="tiny" fill="#7c7c7c" height="840" stroke="#ffffff" stroke-linecap="round" stroke-linejoin="round" stroke-width="2" version="1.2" viewbox="0 0 1000 840" width="1000" xmlns="http://www.w3.org/2000/svg">
 <path d="M793.7 646.2l-1.3 0.5-2.3 1.5-0.9 1.2-0.8 1.4-0.7 1.5-0.4 1.4 0 1.2 0.4 2.3-0.1 2.5 0.4 1.3 1.3 2.4 0.1 1.2-0.2 1.2-7.5 16.6-0.2 1.3 0.6 1.7 1 1.1 0.8 1.3-0.2 1.9-4 11.5 0 0.7 0.6 0.8 1.7 1.3 0.4 0.9-0.5 2.1-1 1.4-3.2 2.5-1.1 1-0.2 0.7 0 0.8-0.4 1.1-0.8 1-0.6 0-0.7-0.2-1 0.1-0.8 0.7-0.8 1.8-0.4 0.5-0.7-0.2 0-0.9 0.2-1.8-0.4-0.9-0.8-0.7-1.7-1.2-7.2-6.3-0.7-0.3-1 0.4-7.2 4.9-1 0.9-1 1.3-2.3 4.5-5.1 7.3-0.4 2.1 0.2 2.5 2.9 13.3 0.1 2.7-0.5 2.6-0.2 0.3-0.6 0.6-0.1 0.4-0.1 0.6 0.2 1.5 0 0.7-1.4 2-3.5 3.3-7.3 20.9-1.9 8.9 0.2 4.7-10.1-0.1-0.3-0.2-0.4-0.7-0.4-1.7-0.2-2.7 0.3-4.6 1.3-5.5 3.8-7.7 0.2-0.6 0-0.8-0.3-1.4-0.5-1.2-0.2-1.8 0.7-4 0-1.2-0.1-1.6-0.3-1-2.6-6.7-0.9-1.1-12.9-10.6-12.8-10.6-4.7-5.8-0.5-0.4-0.7-0.3-13-4.8-0.7-0.5 0.1-0.8 0.4-0.9 1.6-2.8 0.2-0.7 0.2-1.1-2.9-22.5-3-22.5 0-0.9 0.5-0.9 0.8-1 0.7-1 0.8-1.7 0.2-0.7 0.8-8-0.1-7.1 3.5-11.7 0.3-5 1.8-1.4 1-0.5 1.2-0.6 1.3-0.3 1.3-0.2 1.7 0.2 6.7 1.7 1.8 0.1 1-0.4 43.1-26.9 7.7-3.4 2.1-0.2 2 0.5 2.3 1.2 2.1 1.9 2.8 3 13.1 20.6 7.3 8.9 6.7 6.6 5.6 4.3 0.5 0.6 1.2 2 1 2.9z" id="SDN148" name="Blue Nile" data-id="SDN148" data-name="Blue Nile">
 </path>
 <path d="M919.4 95.4l-0.6 0-0.6-1.4 0-2 0.4-2 0.9-1.3 0.8 0.6 0.2 0.8-0.7 4.3-0.4 1z m-17.3 231.9l-54.3 4.5-1.1-0.1-1.7-0.5-21.2-11.1-29.3-19.8-2.2-2.2-1-1.3-5.8-9.1-7.7-15.2-1.1-1.7-2.1-2.4-7.2-6.8-13.7-8.2-11.1-4.8-8.7-2.5-0.8-0.5-0.6-0.9-28.1-68-0.1-0.8 0.2-1 1.9-4.4 0.7-2.9 0.3-1.6 0-2.9-1-10.3-2.9-9.6-0.4-3.5 0.1-4.9 1.1-6.6 1.3-3.6 0.9-1.7 0.1-0.5-0.6-0.9-0.1-0.3 0-0.7 0-3.7 0.4-2.8-0.1-1.1-0.3-1.4-0.8-2.1-1-2.3-0.7-1.1-1.1-2.3-0.3-0.5-1-1.2-1.2-2.2-1.2-3.4-0.5-0.8-0.6-0.3-0.3-0.1-2.7-0.6-0.7-0.2-0.6-0.3-0.5-0.3-1-0.8-0.5-0.4-3.6-5-0.7-0.7-3.2-2-0.7-0.6-0.8-1.3-0.2-0.7 0-0.5 0.1-1.3 0.1-0.8 1-3.2 0.4-1.4 0-2.1-0.4-4.5 0.1-0.5 0.2-0.5 2-2.5 0.3-0.5 0.4-0.7 0.2-0.6 0.4-2.3 0.1-0.8-0.1-0.8-0.2-1.1-0.4-1.7 0-2.8-0.1-0.7-0.5-1.3-0.3-0.5-0.4-0.5-0.8-0.6-1-1.1-0.9-1.2 16.8-13.7-23.5-18.2 13.8 0 55.3 0 27.7 0 41.4 0 13.9 0 27.6 0 27.7-0.1 13.9 0-0.2 1-0.2 0.3-0.2 0.1-1 0.2-1 0.3 1.4 1.1 0.6 0.9 0 7.7 1.4 8.8-0.6 1.8 0.9 0.6 0.2 0.7 0 0.8 0.4 0.7 0.6 0.7 0.5 0.6 3.1 7.7 7.7 12 5.1 4.8 6.3 8.1 0.5 1.1-0.1 1.3-0.4 1.1-0.8 0.5-1.1-0.5-1.2 0.9-1.1-0.9-1.6-2.8-0.4-0.6-0.5-0.8-0.2-0.7 0.5-0.3 0.7 0.2 0.5 0.5 0.2 0.7 0.4 0.5 1.3 1.1 0.9 0.3 0.5-0.3-0.2-0.5-1.4-1.7-1-2.5-0.6-0.8-0.9 0.3-1.7-1.3-0.5 0.7-0.4-0.1-0.4-0.7-0.3-0.8 0.2-0.8 0.4-0.7 0.1-0.8-0.7-0.8-1.6-0.3-1 1.1-0.4 1.7 0.2 1.5 0.3 0.4 0.7 0 0.2 0.4-0.4 1.3 0.2 1.7 0 0.7-0.2 0.7-0.6 0.6-0.6 0.2-0.5 0.3 0 1.1 0.3 0.6 1.8 2 1.5 3.8 0.8 3.9 0.5 8.4 0.9 4 2.6 7.6 0.2 4.1-0.2 1-0.3 1-0.6 0.6-1.8-0.3-0.2 0.9 0.2 1.8-0.4 4.6 0.4 2.5 0 1 1.4 3.7 0.5 2.2 0.3 2.1 0.4 3-1 2.4 0.1 0.4-0.2 0.7-0.8 0.9-0.2 0.6-0.1 1.7 0.4 2.2 3.8 10 0.4 2.2 0 4.1-0.2 1.1-0.3 0.7-1 1.4-0.1 1 0.4 3.8-0.1 1.2 0.1 0.5 0.2 0.6 1 1.6 1.2 3.6 2.3 13.4 0.5 6.5 0.2 0.8 0.5 0.4 0.6 0.3 0.3 0.5 0 0.4-0.3 0.8 0 0.5 1.4 2 0.8 3.1 2 6.7 0.5 3.3 0.8 1.1 1.3 2.4 1.3 2.4 2 1.8 0.3 0.7 0.6 0.7 0.6 0.4 0.8-0.2 0.6-0.4 0.5 0.1 3.5-0.6 2-0.9 0.3 1.2 1.3 0.7 1.1 0.2 1.2-0.1 0.4 0.8 0.1 1 1 0.9-0.5 2.4 1-0.5 0.6-0.2 0.7 0.5 1 1 6.7 1.9 2.5 2.4 1.6 2.8 2.6 2.6 1.6 1.1 2.6 1 0.8 0.9-0.8 1.1-1.6 0.8-0.4 2.2 1.7 3.5 2.8 2.7 3.2 0.7 2.4-0.4 0.3-2.3 1.2-0.4 2.1-1.2 0.4 0.7-0.5 0.5-0.9 0.4-0.6 0.5-0.1 0.5 0.1 0.7-0.2 0.7-0.7 0.7-0.9 0.3-0.8-0.1-0.6 0.1-0.5 0.6 0.8-0.1 2.1-0.3 0.8 0.1 0.5 0.3 0.5 0.5 0.6 0.3 0.8 0.2 1.7 0.2 0.8 0.3 0.9 0.2 0.6-0.3 0.1-0.5-0.8-0.5 1-0.9 1.1 1.3 2 3-0.6 0.9 1 0.6 1.5 0.1 0.9-0.7 0.7 1 0.2 2.5 0.4 0.8 1.1 0.2 0.6-1-0.1-1.4-0.8-1.3 1 0.7 2.4 2.6 0.4 0.9 0 1 0.2 0.6 0.6 1.4-0.1 0.6-8.5 7.1-1.6 2.4-3.6 9.6-1.7 2.7-1.2 0.9-2.9 1.5-1 0.9-0.3 1.2 0 1.4-0.1 1.2-1 1-1.4 0.2-1.1-0.6-0.9-1-0.9-0.6-2.1 0.7-0.4 0.1-0.3 0.5 0.3 0.8 0 0.7-0.7 1.2-0.9 0.8-0.9 0.1-0.4-1.4 0.1-1.2-0.1-1.1-0.5-0.6-1.4 0-1.4 0.5-4 2.8-1.9 2.4-1.2 0.9-1.4 0.3-1.3-0.4-1.8-1.7-1.2-0.4-2.1 1.1-2.6 4.7-2.4 1.3-2.4 0.3-7.9 2.5-0.6 0.4-0.2 0.7 0.7 2.9 0 1.1-0.2 2.6-0.4 1.3-1.3 2.3-0.3 1.4-0.5 1.2-3.3 4.1-5.6-1.6-1.7 0.1-2.8 1.8-1.8 0.1-0.9-0.1-3.2 0.5-0.6-0.1-2.3-1.4-0.6-0.2-1.6-0.3-1-0.4-0.9-0.7-1-0.4-1.2 0.2-0.4 0.5z" id="SDN149" name="Red Sea" data-id="SDN149" data-name="Red Sea">
 </path>
 <path d="M205.1 573.5l3.4 23.5-1.1 16.8-6 8.4 0.5 41.3 14.8 16.2 9.8 8.4 8.8 22.8 5.4 16.7-0.2 6.5-0.7 0.1-2.6 0.7-1.3 0.6-1 0.2-2.4-0.1-1.2 0.3-1.4 0.3-1.9 0-0.4 0-2.5 0.7-4.4 1.5-0.9 0.3-0.7 0.1-2.4-0.1-0.7 0.1-0.7 0.1-0.9 0.3-0.5 0.2-0.6 0.2-1.8 0.2-0.3 0.1-1.1 0.5-0.7 0.1-0.7-0.1-0.3 0-0.9 0.3-0.3 0-0.7-0.2-1-0.4-0.7-0.1-0.8 0.2-0.5 0.2-0.4 0-1.1 0-1.4 0.5-0.7 0.1-1.5-0.1-0.6 0.1-0.9 0.4-1.3 0.4-0.4 0.4-0.6 0.7-3 6.5-0.1 0.6-0.1 0.5 0.2 1 0.5 1.1 0.2 0.7 0 0.7-0.1 0.3-0.6 1.8-1.6 3.3-0.3 1-0.5 1.1-0.5 0.7-0.8 0.8-1.6 2.3-0.8 0.8-2.1 1.3-2 1.7-1 0.5-1.5 0.3-0.4 0.6-0.2 1.2 0.1 16.1-0.1 0.7-0.5 1.4-3.6 4.1-1.7 1.6-0.5 0.7-0.4 1-1.2 11.6-0.2 0.9-5.4 9.1-0.4 0.9 0 0.4 0 6.5-0.4 0.4-0.6 0.3-2.9 1-5.4 0.5-1.3 0.3-6.5 4.1-1.8 0.9-3.5 2.6-0.3 0.5-0.1 0.9-0.3 0.3-3.4 0.5-6.2-1-1.6 0.2-1.2-0.1-2.3-1-3.3 0.3-3.8-0.8-2.1 0-1.8 0.9-1 0.3-1.9-0.5-1.9 0-0.8-0.3-0.9-0.6-0.9-0.4-1-0.2-1.1 0.3-0.8 0.4-1.4 1.1-0.9 0.2-1.2-0.6-0.9-1.3-0.5-1.6 0-1.4 0.8-1.6 2.4-2.8 1-1.6 0.8-3.4 0.1-2.1-0.5-1.3-1-0.1-2.2 2.2-1.6 0.1-1.6-0.9-0.8-1.2-0.2-1.5 1.3-7.7 1-1.4 0.9-0.4 2 0.1 0.9-0.2 0.7-0.4 1.3-1.3 2.3-2.9 0.8-0.7 0.5-0.7-0.1-0.9-0.6-1.8 0.1-1.1 1.5-4.7 0-0.4-0.4-0.5-0.3-0.1-0.5 0-0.4-0.7-0.2-0.6 0.1-1.9-0.1-0.8-0.6-1.5 0-0.6 0.7-1.8 2.2-3.4 0.8-1.8 0.3-2.3-1.7-10.4-1.3-2.7-9.9-16.1-9.8-16-10.8-10.6-6.2-4.4 17.3-25.5 15.3-10 12.6-8.4 12-40.2 2.5-22.5 0.2-1.9 1.1-2.3 3.4-4.6 31.3-31.2 18.1 2.7 9.9 0.3 9.3-0.9z" id="SDN5856" name="Southern Darfur" data-id="SDN5856" data-name="Southern Darfur">
 </path>
 <path d="M320.8 648.9l2 9.9 0 14.6 1 6.9 0 2.8 3.8 16 20.9 51.8 1.1 5 13 28.1-0.6 0.2-1 0.2-5.8 0.3-7.6-1.1-0.4 0-1.2 0.3-0.3 0.1-4.9-0.6-8.5 0-2.7-0.5-15.4 0.4-22.9 7.8-0.7 0.1-3.4-0.3-1.5-0.7-2.6-1.7-11.2-13.2-11.2-13.3-4.6-1.7-0.8-0.9-0.7-0.9-3.6-5.9-0.3-0.5-0.8-0.6-1.6-0.4-0.9-0.4-2.2-1.3-0.4-0.4-0.4-0.4-0.3-0.6-0.3-9.4-0.2-0.6-0.3-0.5-2.6-3.2-0.2-0.2 0.2-6.5-5.4-16.7-8.8-22.8-9.8-8.4-14.8-16.2-0.5-41.3 6-8.4 1.1-16.8-3.4-23.5 2.7 0.3 2.6 0.5 2 0.9 1.6 1 11.2 10.3 8 4.8 2.9 1.4 13 10.6 1 1.1 0.6 1.2 0.2 1.2-0.7 0.9-1.2 0.8-5.3 1.5-1.2 0.5-0.6 0.5-0.3 0.5-0.3 1.1 0.7 1.2 1.6 2.1 3.8 3.1 5 5.1 5.9 9.3 3 2.8 2.2 1.1 2.1 0.1 1.9-0.3 2-0.2 2.5 0.3 3.4 1.2 2 1.2 1.2 1 2.6 2.8 3 2.3 2.8 1.2 2.2 0.7 23.3-0.4 8.3 1.7z" id="SDN5857" name="Eastern Darfur" data-id="SDN5857" data-name="Eastern Darfur">
 </path>
 <path d="M130.2 410.3l1 1.5-3.8 20.5 0.4 3.1-0.2 9.2 0.3 3.7 1 3.4 1.4 2 3 3.3 2.2 2.8 1.8 3.4 1.6 4 1.2 5.5 0.2 2.6-0.2 2.4-0.5 2.1-0.9 2.4-12.6 21.1-19 21.1-4.2 7.6-1.9 6.1-0.2 3 0.8 1.8 1.2 0.5-6.8 7.6-7.1 0.5-4.4 2.3-18.6 27.5-16.4 18.5 3.3 21.8-4.1 12.3-0.3-0.3-0.5 0.9-0.8-0.5-2.3 0.5-3.9 1.2-0.6 0.5-0.8 0.3 1.6-6.7 0-0.7 0-0.7-0.2-0.8-4.3-13.6-2-3.1-0.1-0.7 1.3-2 3-7-0.8-0.8-6.1-2.3-7.4-5-1.7 2.6-1.9 1.8-2.3 1.3-2.8 0.8-2.3 0.3-2.5 0-2.5-0.5-2.1-1-1.2-1.2-2.3-4.4-1.6-2.1-0.3-0.7 0.1-0.3 1-1.9 1.5-4.6 4.9-9.4 1.7-2.3 2-2 1.1-0.6 6.4-2.6 0.9-0.7 5.5-5.8 2.1-2.8 0.5-2.5-0.7-1.4-2.1-2.6-0.8-1.4-0.2-1.2-0.1-3.5-0.8-2.4-3.8-3.6-1.1-2.3 0-1.4 0.1-1-0.2-0.9-0.9-1.2-1.4-1.3 0.1-0.5 1.4-2.4 5.5-7 1.4-1.4 1.7-1.2 9.4-4.5 1.2-0.8 2.2-2.1 1.3-0.8 1.6-0.3 1.4-0.5 0.9-1.1 0.1-1.8-0.4-1.9-0.6-1.2-1-0.7-3.4-0.6-1-0.5-0.7-0.9-0.5-1.4-0.2-0.7 0.1-0.5 0.5-1 0.3-0.3 0.8-0.3 0.3-0.4 0-0.4-0.5-0.7-0.2-0.4-0.8-6.6-0.5-0.8-1.8-1.4-1.4-2.3 1.1-2.1 2.4-1.9 2.6-1.2 11.9-3.2 0.6-0.5 0.3-0.9-0.1-0.5-0.9-2-0.3-1-0.5-3.4 0-1.6 0.5-1 2.2-1.4 1.1-1.1 0.4-1.1 0-1.1 0.3-1.5 0.7-1.3 5.4-5.6 1.2-1 1.3-0.8 2-0.8 0.5-0.5 2.7-4.9 0.4-1.4 0.8-7.2-0.2-2.1-0.5-1.9-1.3-1.7-1.3-1.4-1-1.6-0.4-1.8 0.4-1.9 1.1-1.4 4.7-2.9 3.8-4.7 1.6-1.1 4.3-0.5 9.1 2 4.5-0.5 7.8-2.9 3.9-0.8 6.8 0 7.2 1.1 6.9 2.4 1.6 0.1 0.7-2z" id="SDN5858" name="Western Darfur" data-id="SDN5858" data-name="Western Darfur">
 </path>
 <path d="M167.8 571.4l-31.3 31.2-3.4 4.6-1.1 2.3-0.2 1.9-2.5 22.5-12 40.2-12.6 8.4-15.3 10-17.3 25.5-8.5-12.4-0.1-1.6 2.3-8.6 0.4-0.6 0.9-1 0.2-0.7 0-1.2 0.2-1.2 0.4-1.1 1-2.1 0.3-1.1-0.2-2.5-1.5-4.5-0.8-4.4-0.9-0.7-1.4 0-5.6 0.6-0.6-0.3 0-1.8-0.2-0.6-1.5-1.4-4.8-1.6-2.1-1.1-2.1-2-1.8-2.6-1.2-2.8-0.3-2.9 3.4-18.8 1-3 0.2-1.1-0.1-1 4.1-12.3-3.3-21.8 16.4-18.5 18.6-27.5 4.4-2.3 7.1-0.5 6.8-7.6 1.7 0.2 3.3 0.1 1.7 0.3 1.7 0.7 1.7 1.2 1.8 1.7 1.8 1.1 1.7 0.9 6.3 2.1 4.5 2 1.7 0.2 2.6-0.2 2.6-0.9 9.5-5.5 9.7-3.7 2.4-0.6 2.2-0.2 2.2 0.1 1.9 0.5 1.3 0.8 1 1.6 0.3 1.4-0.1 1-0.5 1.3-0.9 1.5-2.3 3-8.2 8-1.3 1.7-0.8 2.1 0 1.7 0.8 1.4 1.6 1.1 2.2 0.6 10.9 0.8z" id="SDN5859" name="Central Darfur" data-id="SDN5859" data-name="Central Darfur">
 </path>
 <path d="M737.1 392.1l0.1 3.5 1.7 5.5 8 18.2-20.4-3.3-13.2-4.7-1.7 0-2.4 1.2-2.8 2.5-5.2 7.3-2.9 5.9-14.2 2-2.3 0-2.6 0.3-1.5 0.6-1 0.7-2.6 2.1-0.7 0.6-0.9 0.7-0.5 0.1-0.4 0-2.8-0.6-0.4-0.1-10.5 1.5-12.8 3.8-0.9 0.4-0.4 0.5-0.6 1.5-0.1 0.7-6.7-0.4-2.2 0.4-1 0.4-1.7 0.5-1.3 0-4.3-1.4-1-0.5-3.5-10.6-1.7-3.7-12.8-22.2-9.1-12.1-14.9-33.6 12.6-7.7 2.3-0.5 1 2.9 1 1.6 7.9 8.6 2.6 2.2 3 1.4 31.3 5.1 2.9 1 18.7 10.4 29.4 7.9 7.4 4 5 1.5 2.4 0.3 3.9-0.1 4.1-0.8 7.8-3 2.1-1.2 8.8-1.3z" id="SDN874" name="Khartoum" data-id="SDN874" data-name="Khartoum">
 </path>
 <path d="M724.3 514.8l-2.4-0.4-1.3-0.5-2.8-0.4-4.4 0.2-1.6-0.2-0.7-0.3-3.9-2.4-0.8-0.4-0.9-0.1-0.8 0-0.8 0-1.6 0.7-2 1.2-3.8 3-4.8 4.8-1.8 1.3-1.5 0.2-1.4-0.9-5-6.1-2.3-1.3-2.5-0.3-2.5 0.6-2.1 1.3-1.9 1.8-1.5 2.3-1.1 2.3-3 8.9-1.3 1.6-1.8 0-2.9-3-1.2-0.3-1.5 0.8-1 2-0.6 1.7-0.5 5.4-5.5 6-1.5 1-1.5 0-0.8-1-0.4-1.9 0.2-10.3-0.3-2.2-0.5-2.5-2.9-6.1-5.2-8.6-2.4-4.9-1.5-4.8-0.3-1.7-0.1-1.2 0.2-1.2 0.4-1.5 2.9-6.6 3.8-6.7 3.4-3.9 1.9-1.8 1.3-1.8 0.8-2 0.3-2.2-0.3-9.4-0.3-2.3-0.5-1.3-0.4-0.5-0.7-0.4-4.1-1.6-1.1-0.8-0.7-1.2 0-1.3 0.5-1 1.1-0.4 1.4-0.1 1.2 0.1 1.1-0.2 0.7-0.5 0.6-1.5-0.1-1.5-0.5-1.6-1.4-3.9 0.1-0.7 0.6-1.5 0.4-0.5 0.9-0.4 12.8-3.8 10.5-1.5 0.4 0.1 2.8 0.6 0.4 0 0.5-0.1 0.9-0.7 0.7-0.6 2.6-2.1 1-0.7 1.5-0.6 2.6-0.3 2.3 0 14.2-2 5.3 5.9 1.9 1.2 11.5 3.9 9.8 5.1 0.3 0.5 4.2 8.8 8.5 12.3 0.4 1.3 0.1 2.4-19 33.6-1.4 3.1 0.3 1.1 0.3 0.6 0.5 0.5 0.7 0.6 0 0.3-0.5 0.1-0.2 0.4 0.1 0.3 1 1 0.3 0.4 1.9 3.2z" id="SDN875" name="Gezira" data-id="SDN875" data-name="Gezira">
 </path>
 <path d="M746.9 419.3l8.5 2 7.1 2.6 9.6 5.1 3.2 2.1 2.6 2.3 2.3 2.4 3.2 4.2 1.1 1.8 8.1 20 13.6 15.2 2.9 2 2.6 0.3 3.4-0.6 27.8-10.2 4.8-0.9 20.6-0.5 3.4 0.5 1.6 13.6 0.9 7.7 1.3 11.2-5.3 16.7-0.3 1.3 0.1 1.6 0.3 1.5 1 3.1 0.2 3-3.6 8.8-0.2 1.3-0.2 3.4-0.5 1.8-8.9 12.8-5.7 20.1 0.1 1.1 0.5 1 0.2 0.5 0 0.6-0.6 0.9-0.8 0.9-0.7 1 0 1.3 1.4 2.5 0.3 0.9 0 1.5-1.2 6.7-0.5 1.2-0.9 0.4-1.6-0.4-1.3-0.8-0.7-0.1-0.6 0-17.9 2.6-1.6 0.6-0.1-0.1-19.7-4.4-5.8-2.3-2.3-1.5-1.7-1.6-1.6-1.8-0.9-0.8-12.6-7.3-0.7-0.6-1.8-2.1-3-2.9-2.1-2.9-1.1-1.1-2.4-1.8-1.4-0.9-1.1-0.3-0.6-0.2-5.6-2.4-0.8-0.5-0.9-0.9-1.6-2-0.7-0.7-0.6-0.4-0.7-0.3-2.3-0.7-2.5-1.2-1.3-0.8-4.6-5.9-3.3-6.7-1.7-2.5-0.2-0.6-0.2-0.6 0-0.6 0.2-0.6 0.3-0.6 0.8-0.7 1-0.8 0.4-0.4 0.3-0.6 0.2-0.6 0-0.6-0.1-0.4-0.2-0.4-0.4-0.1-0.6 0-0.7 0.1-0.6 0.1-0.6-0.2-0.5-0.7-0.4-0.2-0.3 0-1 0.6-0.7 0-0.8-0.2-1-0.8-0.7-0.4-0.3-0.1-0.4 0.6-0.3 0-0.5-0.6-2.1-3.3-0.4-0.3-0.5-0.2-0.3-0.4-0.3-0.6-0.3-0.7-0.6-1 0-0.4 0.2-0.3 0.5-0.2 0.2-0.1-0.1-0.4-0.2-0.4-0.5-0.7-2.6-2.1-0.6-0.7-0.3-0.6-0.1-0.4-0.1-1.2-0.2-0.5-0.7-0.8-0.4-0.8-1.9-3.2-0.3-0.4-1-1-0.1-0.3 0.2-0.4 0.5-0.1 0-0.3-0.7-0.6-0.5-0.5-0.3-0.6-0.3-1.1 1.4-3.1 19-33.6-0.1-2.4-0.4-1.3-8.5-12.3-4.2-8.8-0.3-0.5-9.8-5.1-11.5-3.9-1.9-1.2-5.3-5.9 2.9-5.9 5.2-7.3 2.8-2.5 2.4-1.2 1.7 0 13.2 4.7 20.4 3.3z" id="SDN876" name="Gedarif" data-id="SDN876" data-name="Gedarif">
 </path>
 <path d="M823.8 320.1l1 20.2-0.8 7.4-2.4 6.3-3.7 4.1-3.7 2.7-5.1 2.9-4.6 1.5-4.7 0.7-40.5 0-3.2 0.4-1.7 0.9-14.9 20.5-2.4 4.4-8.8 1.3-2.1 1.2-7.8 3-4.1 0.8-3.9 0.1-2.4-0.3-5-1.5-7.4-4-29.4-7.9-18.7-10.4-2.9-1-31.3-5.1-3-1.4-2.6-2.2-7.9-8.6-1-1.6-1-2.9 43-62.1 6.5-12.3-1.2-5 0.1-3-6-16.5-0.1-0.4 1.4-25.9-0.1-0.3-0.2-0.3-24.3-13.6-0.3-0.3-0.1-0.7 21.2-195.3 37.8 0 23.5 18.2-16.8 13.7 0.9 1.2 1 1.1 0.8 0.6 0.4 0.5 0.3 0.5 0.5 1.3 0.1 0.7 0 2.8 0.4 1.7 0.2 1.1 0.1 0.8-0.1 0.8-0.4 2.3-0.2 0.6-0.4 0.7-0.3 0.5-2 2.5-0.2 0.5-0.1 0.5 0.4 4.5 0 2.1-0.4 1.4-1 3.2-0.1 0.8-0.1 1.3 0 0.5 0.2 0.7 0.8 1.3 0.7 0.6 3.2 2 0.7 0.7 3.6 5 0.5 0.4 1 0.8 0.5 0.3 0.6 0.3 0.7 0.2 2.7 0.6 0.3 0.1 0.6 0.3 0.5 0.8 1.2 3.4 1.2 2.2 1 1.2 0.3 0.5 1.1 2.3 0.7 1.1 1 2.3 0.8 2.1 0.3 1.4 0.1 1.1-0.4 2.8 0 3.7 0 0.7 0.1 0.3 0.6 0.9-0.1 0.5-0.9 1.7-1.3 3.6-1.1 6.6-0.1 4.9 0.4 3.5 2.9 9.6 1 10.3 0 2.9-0.3 1.6-0.7 2.9-1.9 4.4-0.2 1 0.1 0.8 28.1 68 0.6 0.9 0.8 0.5 8.7 2.5 11.1 4.8 13.7 8.2 7.2 6.8 2.1 2.4 1.1 1.7 7.7 15.2 5.8 9.1 1 1.3 2.2 2.2 29.3 19.8z" id="SDN877" name="River Nile" data-id="SDN877" data-name="River Nile">
 </path>
 <path d="M637.7 15.9l-21.2 195.3 0.1 0.7 0.3 0.3 24.3 13.6 0.2 0.3 0.1 0.3-1.4 25.9 0.1 0.4 6 16.5-0.1 3 1.2 5-6.5 12.3-43 62.1-2.3 0.5-12.6 7.7-8.4-2.9-3.1-0.5-20.6 1.9-211.9-7.2-0.8-208.1-147.5 0-1.2-0.6 0-19.1 0.1-12 0-15.9 0-7.9 0-15.9 0-15.9 0-23.9 0-7.9 0-8 5.8 0 23.1 0 5.8 0 17.3 0 11.6 0 17.4 0 17.3 0 11.6 0 23.1 0 5.8 0 28.9 0 11.6 0 17.3 0 28.9 0 11.6 0 23.1 0 5.8 0 17.4 0 11.5 0 23.2 0 5.8 0 28.9 0 11.6 0 8 0 0.8-0.4 5.8-12 1.5-1.7 1.2-0.6 1.1-0.2 1.1 0.2 1.1 0.5 1.3 1.3 0.6 1.5-0.1 1.6-3.3 9.8 5.2 0 59.5 0z" id="SDN878" name="Northern" data-id="SDN878" data-name="Northern">
 </path>
 <path d="M643.1 443l1.4 3.9 0.5 1.6 0.1 1.5-0.6 1.5-0.7 0.5-1.1 0.2-1.2-0.1-1.4 0.1-1.1 0.4-0.5 1 0 1.3 0.7 1.2 1.1 0.8 4.1 1.6 0.7 0.4 0.4 0.5 0.5 1.3 0.3 2.3 0.3 9.4-0.3 2.2-0.8 2-1.3 1.8-1.9 1.8-3.4 3.9-3.8 6.7-2.9 6.6-0.4 1.5-0.2 1.2 0.1 1.2 0.3 1.7 1.5 4.8 2.4 4.9 5.2 8.6 2.9 6.1 0.5 2.5 0.3 2.2-0.2 10.3 0.4 1.9 0.8 1 1.5 0 1.5-1 5.5-6 2.1 1.9 0.8 1 0.8 1.4 0.5 1.6 0.4 2.2 0.1 9.7 0.7 5.5 1 3.4 4.3 8.6 6.2 8.6 0.7 2 0 1.9-1.3 5-0.5 3.2 0.4 3.7 7.9 27.6-28.3-0.4-0.2 0.3 0 0.3 0.1 0.7 0 0.8-0.3 1.5 0 0.7 0 0.8 0.4 2.8 0.8 2.2 0.1 0.7 0 0.7-0.1 1.5-39.4 0.2-9.3-10.3-3.4-2.2-5.3-0.5-0.9-0.2-0.8-0.3-0.4-0.8-0.2-1-3.1-20.8-2.6-20.3-0.2-2.4 0.3-0.5 1.4-1.6 5.7-5.3 9.5-6.4 5.2-2 0.3-0.3 0.4-0.5 0.7-0.9 0.4-0.7 0.3-0.9 0-0.8-0.3-1.3-0.8-2.2-0.2-0.7 0-0.7 0.1-1 1.7-5.1 0.1-0.9-0.2-0.6-0.4-0.5-1-0.6-0.3-0.2-3.3-0.9-1.4-0.6-0.5-0.4-1.5-1.4-0.5-0.7-1.7-1.6-1.5-1.8-3.9-6.4-3.5-8.3-0.7-1-0.4-0.4-1.3-0.8-2.6-2-2.1-1.2-1.2-0.9-0.4-0.5-0.5-1.1-0.4-1.2-1-2.4-0.9-3.3-0.9-5.4-0.1-8.4 1.1-8.1 0.1-0.5 1.3-3.7 2.2-3.3 0.9-0.8 0.5-0.4 2.2-1.1 1.8-0.7 1.4-0.7 0.5-0.3 0.4-0.5 0.6-0.7 6.3-13.9 0.5-0.7 6.8-4.6 0.2-0.4 0.1-0.3-0.2-0.8-0.2-1.1 0-1.2 0.6-0.7 0.8-0.6 19.1-8.1 1 0.5 4.3 1.4 1.3 0 1.7-0.5 1-0.4 2.2-0.4 6.7 0.4z" id="SDN879" name="White Nile" data-id="SDN879" data-name="White Nile">
 </path>
 <path d="M724.3 514.8l0.4 0.8 0.7 0.8 0.2 0.5 0.1 1.2 0.1 0.4 0.3 0.6 0.6 0.7 2.6 2.1 0.5 0.7 0.2 0.4 0.1 0.4-0.2 0.1-0.5 0.2-0.2 0.3 0 0.4 0.6 1 0.3 0.7 0.3 0.6 0.3 0.4 0.5 0.2 0.4 0.3 2.1 3.3 0.5 0.6 0.3 0 0.4-0.6 0.3 0.1 0.7 0.4 1 0.8 0.8 0.2 0.7 0 1-0.6 0.3 0 0.4 0.2 0.5 0.7 0.6 0.2 0.6-0.1 0.7-0.1 0.6 0 0.4 0.1 0.2 0.4 0.1 0.4 0 0.6-0.2 0.6-0.3 0.6-0.4 0.4-1 0.8-0.8 0.7-0.3 0.6-0.2 0.6 0 0.6 0.2 0.6 0.2 0.6 1.7 2.5 3.3 6.7 4.6 5.9 1.3 0.8 2.5 1.2 2.3 0.7 0.7 0.3 0.6 0.4 0.7 0.7 1.6 2 0.9 0.9 0.8 0.5 5.6 2.4 0.6 0.2 1.1 0.3 1.4 0.9 2.4 1.8 1.1 1.1 2.1 2.9 3 2.9 1.8 2.1 0.7 0.6 12.6 7.3 0.9 0.8 1.6 1.8 1.7 1.6 2.3 1.5 5.8 2.3 19.7 4.4 0.1 0.1-0.8 0.3-0.2 0.2 0 0.4-0.4 1.5-0.1 0.7-0.2 0.6-0.6 0.6-0.5 0.3-1.2 0-0.5 0.3-0.5 0.6-11.2 18.7-0.6 1.7-0.2 1.7-0.1 0.8-0.6 0.8-0.6 0.5-1.3 0.7-0.6 0.5-0.4 0.7-1.1 2.7-0.6 3.3-0.5 1.4-1.2 1.4-2.2 1.3-0.5 0.5-0.2 0.6 0 1.3-0.2 0.6-1.7 2.1-4 1.5-1-2.9-1.2-2-0.5-0.6-5.6-4.3-6.7-6.6-7.3-8.9-13.1-20.6-2.8-3-2.1-1.9-2.3-1.2-2-0.5-2.1 0.2-7.7 3.4-43.1 26.9-1 0.4-1.8-0.1-6.7-1.7-1.7-0.2-1.3 0.2-1.3 0.3-1.2 0.6-1 0.5-1.8 1.4-7.9-27.6-0.4-3.7 0.5-3.2 1.3-5 0-1.9-0.7-2-6.2-8.6-4.3-8.6-1-3.4-0.7-5.5-0.1-9.7-0.4-2.2-0.5-1.6-0.8-1.4-0.8-1-2.1-1.9 0.5-5.4 0.6-1.7 1-2 1.5-0.8 1.2 0.3 2.9 3 1.8 0 1.3-1.6 3-8.9 1.1-2.3 1.5-2.3 1.9-1.8 2.1-1.3 2.5-0.6 2.5 0.3 2.3 1.3 5 6.1 1.4 0.9 1.5-0.2 1.8-1.3 4.8-4.8 3.8-3 2-1.2 1.6-0.7 0.8 0 0.8 0 0.9 0.1 0.8 0.4 3.9 2.4 0.7 0.3 1.6 0.2 4.4-0.2 2.8 0.4 1.3 0.5 2.4 0.4z" id="SDN880" name="Sennar" data-id="SDN880" data-name="Sennar">
 </path>
 <path d="M338.9 351.1l-1.5 0.2-31.7 0.2-0.7 0.5-0.5 1.1 12.7 109.4 0.3 0.8 0.6 0.6 2.3 1.6 2.6 5 6.3 20.4 8.9 25.3-2.5 14 0 0.7 0.3 0.9 3.8 6.2 0.7 2.4-0.2 2.2-0.8 3-0.2 0.5-0.7 1.1-6 7.2-0.9 0.8-0.2 0.6-0.1 1-0.3 4.6-0.2 0.8-1.7 2.6-0.8 1.9-1.3 2.2-9.1 11.4-1.6 3.7-0.3 0.9-0.6 8.4 0.4 7.3 0 0.9-0.2 0.7-0.1 0.8-1.7 4.4-3.2 5.4-0.2 0.8-0.1 0.7 0.1 1.4 2.2 8.4 0.1 0.7-0.1 0.8-0.3 2.3 0 3 0.1 0.6 0.2 0.6 3 4.7 0.7 1.4 0.4 2 0.2 1.4 3.8 7.3-8.3-1.7-23.3 0.4-2.2-0.7-2.8-1.2-3-2.3-2.6-2.8-1.2-1-2-1.2-3.4-1.2-2.5-0.3-2 0.2-1.9 0.3-2.1-0.1-2.2-1.1-3-2.8-5.9-9.3-5-5.1-3.8-3.1-1.6-2.1-0.7-1.2 0.3-1.1 0.3-0.5 0.6-0.5 1.2-0.5 5.3-1.5 1.2-0.8 0.7-0.9-0.2-1.2-0.6-1.2-1-1.1-13-10.6-2.9-1.4-8-4.8-11.2-10.3-1.6-1-2-0.9-2.6-0.5-2.7-0.3-9.3 0.9-9.9-0.3-18.1-2.7-10.9-0.8-2.2-0.6-1.6-1.1-0.8-1.4 0-1.7 0.8-2.1 1.3-1.7 8.2-8 2.3-3 0.9-1.5 0.5-1.3 0.1-1-0.3-1.4-1-1.6-1.3-0.8-1.9-0.5-2.2-0.1-2.2 0.2-2.4 0.6-9.7 3.7-9.5 5.5-2.6 0.9-2.6 0.2-1.7-0.2-4.5-2-6.3-2.1-1.7-0.9-1.8-1.1-1.8-1.7-1.7-1.2-1.7-0.7-1.7-0.3-3.3-0.1-1.7-0.2-1.2-0.5-0.8-1.8 0.2-3 1.9-6.1 4.2-7.6 19-21.1 12.6-21.1 0.9-2.4 0.5-2.1 0.2-2.4-0.2-2.6-1.2-5.5-1.6-4-1.8-3.4-2.2-2.8-3-3.3-1.4-2-1-3.4-0.3-3.7 0.2-9.2-0.4-3.1 3.8-20.5-1-1.5 0-17.9 0-14.4 0-14.4 0-14.4 0-57.8-0.1-14.5 0-14.5 0-14.6 0-14.5 0-58.5 0-31.5 9.5 0 11.8 0 15.4 0 21.9 0 0.5-0.1 0.2-0.4 0-0.4 1.2 0.6 147.5 0 0.8 208.1z" id="SDN881" name="North Darfur" data-id="SDN881" data-name="North Darfur">
 </path>
 <path d="M588.1 602.3l3.1 20.8 0.2 1 0.4 0.8 0.8 0.3 0.9 0.2 5.3 0.5 3.4 2.2 9.3 10.3 15.6 17.6 0.2 0.4 0.2 1 0.2 0.7 0.3 6.2-0.9 9.8 0.2 6.3 0.9 4.1 4.2 8.1-0.2 1.5-1 1.9-14 12-14 11.9-0.8 1.1-3.9 10-3.7 5.8-1.6 1.7-6.5 8.1-12.8 12.7-12.8 12.8-4.2 1.7-12.7 0.7-6.7 0.2-0.8 0.2-1.2 0.4-0.7 0.7-0.8 0.5-0.8-0.3-1-0.7-15.7-14.3-14-9-14-9-2.7 1.6-15.9 7.8-3.2 2-1.8 1.4-0.1 8.7-2.8 4.4-5 4.8-13.7 3.1-7.1 2.6-7.3 3.9-1.2 1-4.5 3.5-3.9 3.8-1.2 2.3-0.1 2.5 0.3 2.2 0.7 1.5-47.4-0.4-2.9-3.3-6.1-12.6-13-28.1-1.1-5-20.9-51.8-3.8-16 0-2.8-1-6.9 3.4 2.8 5.3 2.2 6.3 0 3.7-0.9 3.1-1 3.2-1.9 2.2-2.3 2.5-2.8 4-4.2 3.5-2.9 2.5-2.5 1.8-4.2 2.6-4.8 1.8-4.4 0.7-2.3 1.2-2.5 2.2-1.3 2.5 0 3.1 0.9 4.4 0.4 2.8 0.9 2.2 1.3 2.5 0 3.4-0.3 6.9-1.3 3.8-1.3 1.9-1.3 0.3-1.9-0.7-1.9 0.7-3.2 2.2-6.1 1.2-5.1 1.9-2.9 1.9-1.3 2.5-1.6 2.1-3.2 2.9-3.2 1.5-0.9 2.2-0.4 1.9 0.7 4.1 3.2 4 2.9 3.8 2.9 4 2.5 5.9 1.3 1.6-0.9 1.8-0.4 1.4 0.1 1.2 0.4 1.1 0.4 1.1 0.3 1.1-0.1 16-24.6 2.1-1.8 2.3-0.9 2.3-0.3 2.2-0.1 1.8 0.2 0.9 0.2 0.6 0.3 0.4 0.3 0.6 0.6 1.1 1.4 0.4 0.7 0.2 0.7 0.1 1-0.4 6 0.2 0.9 0.6 0.8 1.4 0.9 1.8 0.4 15.4-0.6 4.4 0.6 1.6 0.7 1.4 1.1 5.1 7.5 1.7 1.7 2.3 1.6 2 0.8 1.5 0.4 1.6 0 1.6-0.2 1.5-0.7 1.4-1.2 2.4-2.9 0.7-0.6 0.6-0.5 1.1-0.5 3.5-1.3 1.9-1 2-1.4 1.5-1.6 3.2-5.8 1.4-1.7 1.6-1.3 1.9-0.7 1.5 0 3.1 0.7 1.4 0 1.3-0.2 1.9-0.7 6.7-4.2 1.8-0.4 1.4 0 1.5 0.4 11.6 6.3z" id="SDN882" name="South Kordufan" data-id="SDN882" data-name="South Kordufan">
 </path>
 <path d="M582.9 359.8l14.9 33.6 9.1 12.1 12.8 22.2 1.7 3.7 3.5 10.6-19.1 8.1-0.8 0.6-0.6 0.7 0 1.2 0.2 1.1 0.2 0.8-0.1 0.3-0.2 0.4-6.8 4.6-0.5 0.7-6.3 13.9-0.6 0.7-0.4 0.5-0.5 0.3-1.4 0.7-1.8 0.7-2.2 1.1-0.5 0.4-0.9 0.8-2.2 3.3-1.3 3.7-0.1 0.5-1.1 8.1 0.1 8.4 0.9 5.4 0.9 3.3 1 2.4 0.4 1.2 0.5 1.1 0.4 0.5 1.2 0.9 2.1 1.2 2.6 2 1.3 0.8 0.4 0.4 0.7 1 3.5 8.3 3.9 6.4 1.5 1.8 1.7 1.6 0.5 0.7 1.5 1.4 0.5 0.4 1.4 0.6 3.3 0.9 0.3 0.2 1 0.6 0.4 0.5 0.2 0.6-0.1 0.9-1.7 5.1-0.1 1 0 0.7 0.2 0.7 0.8 2.2 0.3 1.3 0 0.8-0.3 0.9-0.4 0.7-0.7 0.9-0.4 0.5-0.3 0.3-5.2 2-9.5 6.4-5.7 5.3-1.4 1.6-0.3 0.5 0.2 2.4 2.6 20.3-11.6-6.3-1.5-0.4-1.4 0-1.8 0.4-6.7 4.2-1.9 0.7-1.3 0.2-1.4 0-3.1-0.7-1.5 0-1.9 0.7-1.6 1.3-1.4 1.7-3.2 5.8-1.5 1.6-2 1.4-1.9 1-3.5 1.3-1.1 0.5-0.6 0.5-0.7 0.6-2.4 2.9-1.4 1.2-1.5 0.7-1.6 0.2-1.6 0-1.5-0.4-2-0.8-2.3-1.6-1.7-1.7-5.1-7.5-1.4-1.1-1.6-0.7-4.4-0.6-15.4 0.6-1.8-0.4-1.4-0.9-0.6-0.8-0.2-0.9 0.4-6-0.1-1-0.2-0.7-0.4-0.7-1.1-1.4-0.6-0.6-0.4-0.3-0.6-0.3-0.9-0.2-1.8-0.2-2.2 0.1-2.3 0.3-2.3 0.9-2.1 1.8-16 24.6-1.1 0.1-1.1-0.3-1.1-0.4-1.2-0.4-1.4-0.1-1.8 0.4-1.6 0.9-5.9-1.3-4-2.5-3.8-2.9-4-2.9-4.1-3.2-1.9-0.7-2.2 0.4-1.5 0.9-2.9 3.2-2.1 3.2-2.5 1.6-1.9 1.3-1.9 2.9-1.2 5.1-2.2 6.1-0.7 3.2 0.7 1.9-0.3 1.9-1.9 1.3-3.8 1.3-6.9 1.3-3.4 0.3-2.5 0-2.2-1.3-2.8-0.9-4.4-0.4-3.1-0.9-2.5 0-2.2 1.3-1.2 2.5-0.7 2.3-1.8 4.4-2.6 4.8-1.8 4.2-2.5 2.5-3.5 2.9-4 4.2-2.5 2.8-2.2 2.3-3.2 1.9-3.1 1-3.7 0.9-6.3 0-5.3-2.2-3.4-2.8 0-14.6-2-9.9-3.8-7.3-0.2-1.4-0.4-2-0.7-1.4-3-4.7-0.2-0.6-0.1-0.6 0-3 0.3-2.3 0.1-0.8-0.1-0.7-2.2-8.4-0.1-1.4 0.1-0.7 0.2-0.8 3.2-5.4 1.7-4.4 0.1-0.8 0.2-0.7 0-0.9-0.4-7.3 0.6-8.4 0.3-0.9 1.6-3.7 9.1-11.4 1.3-2.2 0.8-1.9 1.7-2.6 0.2-0.8 0.3-4.6 0.1-1 0.2-0.6 0.9-0.8 6-7.2 0.7-1.1 0.2-0.5 0.8-3 0.2-2.2-0.7-2.4-3.8-6.2-0.3-0.9 0-0.7 2.5-14-8.9-25.3-6.3-20.4-2.6-5-2.3-1.6-0.6-0.6-0.3-0.8-12.7-109.4 0.5-1.1 0.7-0.5 31.7-0.2 1.5-0.2 211.9 7.2 20.6-1.9 3.1 0.5 8.4 2.9z" id="SDN883" name="North Kordufan" data-id="SDN883" data-name="North Kordufan">
 </path>
 <path d="M902.1 327.3l-0.1 0.5 0.1 0.5 1.2 1.7 0.2 1.2-0.3 1.2-1.4 2.1 0.2 0.6 0.6 0.6 0.5 0.8 0.2 0.8-0.1 2.5 0.4 0.8 0.1 0.3-0.1 0.3-0.5 0.5-0.1 0.3-0.2 3.7-1.5 3.7-0.6 0.9-2 1.4-0.9 0.8-0.5 1.2-0.1 1.1 0.1 2-0.2 1.2-0.7 2.5 0 0.8 0.4 1.5 0.7 1.1 1 1 0.8 1.1 0.5 1.3-0.1 1.1-0.2 1.1-0.1 1.3 0.3 1.3 1.1 2.5 0.2 1.3-0.6 1.6-2.5 2.6-1 1.6-2 5.7-5.5 15.8-1.6 2.6-2.9 3.1-0.8 1.4-3.2 11.8-0.1 2.6 0.8 2.7-2 1.3-1.1 1.9-3 9-1.1 1.7-4.4 4.3-0.5 1.1-0.1 1.3 0.7 5.8 1.6 13.8-3.4-0.5-20.6 0.5-4.8 0.9-27.8 10.2-3.4 0.6-2.6-0.3-2.9-2-13.6-15.2-8.1-20-1.1-1.8-3.2-4.2-2.3-2.4-2.6-2.3-3.2-2.1-9.6-5.1-7.1-2.6-8.5-2-8-18.2-1.7-5.5-0.1-3.5 2.4-4.4 14.9-20.5 1.7-0.9 3.2-0.4 40.5 0 4.7-0.7 4.6-1.5 5.1-2.9 3.7-2.7 3.7-4.1 2.4-6.3 0.8-7.4-1-20.2 21.2 11.1 1.7 0.5 1.1 0.1 54.3-4.5z" id="SDN884" name="Kassala" data-id="SDN884" data-name="Kassala">
 </path>
 <circle cx="639.2" cy="505.7" id="0">
 </circle>
 <circle cx="255" cy="669.8" id="1">
 </circle>
 <circle cx="509.5" cy="169.3" id="2">
 </circle>
</svg>