<?xml version="1.0"?>
<!--
************* Copyright (c) 2017 Pareto Softare, LLC DBA Simplemaps.com *******************		
************* Free for Commercial Use, full terms at  http://simplemaps.com/resources/svg-license ************
************* Attribution is appreciated! http://simplemaps.com ***************************
-->
<svg baseprofile="tiny" fill="#7c7c7c" height="661" stroke="#ffffff" stroke-linecap="round" stroke-linejoin="round" stroke-width="2" version="1.2" viewbox="0 0 1000 661" width="1000" xmlns="http://www.w3.org/2000/svg">
 <path d="M404.9 455.4l0 5.5-1 4 0.6 2.1 2 0.4 2.1 0.9 5.5 4.2 5.9 8.8-5.5 1.7-5 4.1-8.5 3.1-12.9 2.2-7.2 1.6-11-10.4-7.8-12.7-2.5-5-0.3-4.7 0.6-3.8-2.5-4.7 5.6-1.7 7.2 2.6 3.8 2.8 2.3 1 1.6 1.2 2.2 0.2 2.6-0.1 3.6-3.1 1.6-3.6-0.4-6.4 2 0.6 0.7-0.9 0.3-2.1 2-3.3 6.5 6.5 1.4 3.8 4.5 5.2z" id="SVN1000" name="Velike Lašče" data-id="SVN1000" data-name="Velike Lašče">
 </path>
 <path d="M558.1 205.1l10 4.2 2.1 0.1 2.6 0.8 1.7 0.8 0.2 3.1-0.1 3.8 4.6 2.6 3.5 12.8 1.1 3 0.5 3.8 0 1.7-3.1 6.6-4.7 1.1-7.4-5-3.9 0.2-2.6 1.3-2.1 2.4-2.7 4.9-3.9-2.8-2.5-4.4-4.8-3.3-1.9-3-4.7-2.4 1-9.3 4-6.6 1.7-6.3 0.5-12.2 0.9-3.5 2.1 0.1 4.2 1.4 3.7 4.1z" id="SVN1001" name="Velenje" data-id="SVN1001" data-name="Velenje">
 </path>
 <path d="M623.8 231.2l-20.1 0-11.1-12.6 6.8-9.9 4.1-10.7 2.1-2.7 2.4-1.6 5.3-1.5 8.5-0.6 3.9 2.5-0.1 1-3.1 2.1-0.7 1.8 0.2 2.7 4.7 8.2 2.7 2.4 2.2 1.6 0.9 2.4-0.6 4.2-0.8 2.4-7.3 8.3z" id="SVN1002" name="Vitanje" data-id="SVN1002" data-name="Vitanje">
 </path>
 <path d="M360.7 305.6l7.6 11.8 4.2 1.4-0.3 5.8-2.9 2.1-1.2 3-3.2 2.2-8.4 2.7-3.5 0.3-2.2-2.1-3.4-22.8 2.8-2.6-1.5-3.3 12 1.5z" id="SVN1003" name="Vodice" data-id="SVN1003" data-name="Vodice">
 </path>
 <path d="M317.9 414.1l-6.8 2-2 2.9-1.3 5.2 0.2 4.1 1 4 6.4 16.6 2 3.1 3.9 4.9-3.6 1.9-12.4-9.1-5.2-1.8-3.2 2.5-4.3-9.8-8-10-6.8-6.9-2.8-2-2.1-0.9-1.5 0.1-1.4-0.9-1.1-2.1 0.6-2.2 1.4-2.7-0.5-3.4 1.3-6.3 2.8-1.8 0.4-0.9-7.6-5.1-3-0.8-1.9-7.6 17 2 0.8 3.3-2.4 1.9 0.5 1.6 1.6 1.8 6.9 3.2 2.1 0.2 0.9-0.8-0.2-1.3 0.4-1.5 1.8-0.9 8.1-1.5 2.2-0.9 8.4-2.2 5.5-3.1 2.3-3.1 5.9-2.2 3.6 3.8 0.7 2.1-0.5 3.9-3.6 1.3-2.3 2.5-2.1 3.9 1 6.2-3.1 6.8z" id="SVN1004" name="Vrhnika" data-id="SVN1004" data-name="Vrhnika">
 </path>
 <path d="M582.1 155.7l-3.4 5.5-14.4-7.5-1.7-3.6-3.4-4.8-4.4-3.7-3.1-4.7 0.8-4.2-0.7-3.5 1.5-3.8 1.1-1.7 4.4-1.2 4.5 0.7 4.6-1.8 9.2-7.3 2.6 3.2 1.7 1.3 1.9 0.7 1.9 1.5 0.7 1.5 0 1.9-0.5 2.6-2.6 4.6-1.8 1.1-3.8 1.1 0.9 1.9 0.2 1.9-1.2 3.8-1.7 3-0.7 3.1-0.2 2.3 1.6 3.9 6 2.2z" id="SVN1005" name="Vuzenica" data-id="SVN1005" data-name="Vuzenica">
 </path>
 <path d="M509.7 307.9l9.2-0.5 4.1 7.7-2.7 2.3-3.7 1.8-2 2 0.5 1.1 2.3-1 1.2 0.3 4.6 5.5 4.3 7.2 1.3 4.1 0 2.4-2.9 3.1-2.3 1.2-1 0-3.7-1.1-7.5 3.1-2.5 1.6-2.9 3.5-2.5 1.7-1.4 0.5-5.1 1-3.9 0-2.3 0.5-2.5-1.3-3.5-6-0.2-2.1 0.8-3.6-0.1-1.5-1.1-1.4-2.7-0.7-13.5-0.1-1.4-3.4 1.5-2.1 0.3-3.4-3.8-5.2-1.1-2.6-2.2-1.3 0.6-1.4 20.8-2.5 2.2-0.9 2.9-5.3-0.9-8.1 3.5-0.9 1.7 4.2 4.7 3.5 2.3 0.9 10.6-2.8z" id="SVN1006" name="Zasavska" data-id="SVN1006" data-name="Zasavska">
 </path>
 <path d="M625.1 179.6l1.1 5.5 2.2 2.7 2.2 3.2 5 2.3 4.4 3.1 5.1 1.3 7.8 6.2-2 3.2-1.3 4.6-0.8 0.9 0 1.4 1.7 2.2 1.2 2.1-0.5 1.3-2.4 3.1-0.3 1.3 5.1 4.4-4.1 7.5-1.4 0-2-1-2.4-0.6-1.8 1-1.9 2.1-4.2 8.1-6-3.4-3.5-3.7-0.6-4.1-1.9-3.1 7.3-8.3 0.8-2.4 0.6-4.2-0.9-2.4-2.2-1.6-2.7-2.4-4.7-8.2-0.2-2.7 0.7-1.8 3.1-2.1 0.1-1-3.9-2.5 0.7-3.3-0.8-2.1-2.1-3.1-0.7-5.7 6.2 2.2z" id="SVN1007" name="Zrece" data-id="SVN1007" data-name="Zrece">
 </path>
 <path d="M242.6 212l-2.2 6.5 5.2 9.5 1.7 2.8 2.1 4.1 0.9 2.4-0.4 2.3-4.7 4.7-1.1 3-1.1 1.9-4.1 3.5-1.6 5.3-3 3.6-1.4-0.9-1.8-4.5-1.5-2.5-2.1-0.2-1.9 0.8-2.7 0.9-2.5 0.3-4.5-1.4-3-2.8-1.8-2.3-1.9-1.8-4.2-2.8-3.5-0.7-4.7-4.5-6.1-2.1-5.4-3.5-15.1-3.1-6.5 0.1-9.8-6.8 22.2-12.1 9.3-8.4 4.2-2.9 3.7-1.9 2.3-2.7 4.1-1.2 25.5 13.9 2.8 2.4 4.7 2.2 1.6 0.4 8.3-1.5z" id="SVN1008" name="Bled" data-id="SVN1008" data-name="Bled">
 </path>
 <path d="M153.9 223.8l9.8 6.8 6.5-0.1 15.1 3.1 5.4 3.5 6.1 2.1 4.7 4.5 3.5 0.7 4.2 2.8 1.9 1.8 1.8 2.3 3 2.8 4.5 1.4 2.5-0.3 2.7-0.9 1.9-0.8 2.1 0.2 1.5 2.5 1.8 4.5 1.4 0.9 3-3.6 15.4 1.7 1.6-0.6 2.2-0.3 1.1 0.6 1.6 2.3-0.4 6.7-3.9 1.3-10.6-1.2-3.7 0.4-3.5 0.8-2.3 3.3-1.3 3-1 7.1-0.8 2.5-2.6 1.2-17.8-2.8-6.2 1.6-3.9 3.3-32.4 4.3-4.5-0.1-4.7-0.7-14.2-4.6-15.9-9.3-10.8-11-3-7.2 4.7-11.1 2.3-4.3 4.7-4.5 20.2-11 4.4-6 1.9 0.4z" id="SVN1009" name="Bohinj" data-id="SVN1009" data-name="Bohinj">
 </path>
 <path d="M225.4 326.1l-14.5 25.8-1.1 4.1-0.8 4.8 0.5 1.5 2.1 2.7 0 3.2-3.4 1-3.2-0.3-3-1.2-5.6-4.1-5.5-4.9-1.4-0.2-1.1 3.6-2.4 2.4-1.3 2-3 0.2-1.5-1-1.1 0.2-0.3 2.5-0.9 2-3.1 0.1-1.9-0.4-4.1-2.6 3.8-2.6 0.3-1.4-0.5-3-0.8-2.6-0.7-4 0-3.6-0.6-3.6-3-5.4-1.3-4.4 0-2.5 1.2-3.6 1.2-2.9 4.1-4.3 5.4-3.3 10.9-3.5 9.9-7.4-0.3 3.9 0 2.5 1.7 1.2 2.9 1.1 12 1.1 8.5 2.7 1.9 4.2z" id="SVN1010" name="Cerkno" data-id="SVN1010" data-name="Cerkno">
 </path>
 <path d="M269 358.1l-0.3 6.7-0.8 3-0.3 3.1-6.3 10.2-6.6-5.6-2.2-2.2-4-5.1-1.9-1.7-3.4-1.5-25.2-5.5-3.6 0.8-1.8 0.8-1 3.9-2.1-2.7-0.5-1.5 0.8-4.8 1.1-4.1 14.5-25.8 6.6-4.3 1.1-1.3 20.3-4.1 3.7 0.5 3.9-0.8 5.8-0.4 2.8 0.8 1.9 1.8 1.2 2-2.6 5.3-2 1.9-1.5 2.8-1 3.6 1.4 1.4 0.5 1.5 0.2 2.1-1.3 2.1-0.9 2.6-0.1 4 0.3 3.9 2.3 2.5 1 4.1z" id="SVN1011" name="Gorenja vas-Poljane" data-id="SVN1011" data-name="Gorenja vas-Poljane">
 </path>
 <path d="M211.6 365l7.6 4.6 8.8 12.9 2.6 1.1 2.1 0.1 1.3 2.2 1.6 3.9 1.7 2.8 8.7 3.1-0.4 6.2-2.7 3.5-2.6 2.7-3.1 2.5-0.7 1.8 0.3 0.9 1.4 0.5 0.7 2.1-0.4 4.6-2 5.3-2.2 4.3-0.4 4 0.1 3.5 1.1 3.5 1.5 2.2 3.8 10.3-24.7-5.2-12.6-8.8-4-4.2-6.3-4.1-3-2.7-4.2-1.3-7.7-6.5-7.2-8.4-5.7-2.9-3.1-2.1-2-2.1-0.3-1.8-4.3-6.1 4.3-2.2 0.6-8.6-0.2-5.2 0.4-1.7 1.3-0.1 0.7-0.9-0.3-1.7-0.9-1.4-1.9-1.2-0.9-1.3-0.4-1.6 0.9-2 1.2-0.7 3 0.9 1.7-0.2 1.7-2.6 2.3 0.6 4.1 2.6 1.9 0.4 3.1-0.1 0.9-2 0.3-2.5 1.1-0.2 1.5 1 3-0.2 1.3-2 2.4-2.4 1.1-3.6 1.4 0.2 5.5 4.9 5.6 4.1 3 1.2 3.2 0.3 3.4-1 0-3.2z" id="SVN1012" name="Idrija" data-id="SVN1012" data-name="Idrija">
 </path>
 <path d="M334.3 266.2l-0.7 4.5-4.1 5.7-3.1 12-2.5 4.6-0.4 2.7 0.3 1.3 1.5 2.1 5.6 11.6 1.5 7.7 1 2-6.5 4.7-2.8-7.3-1.7-2.4-2.5-0.7-1.2 0.3-1.2-0.4-0.4-2.1 1.3-3.1-0.5-0.4-5 1.4-3.7-0.2-19.7-8.2-2-1.7 0-2.3 0.8-1.4 1.9-1.9 0.2-1.4-1.1-2-8.4-4.1-8.5-3.4-4.4-2.4-5-5.7-8.1-6 3.9-1.3 15.5 4.1 2 0.9 12.8-0.8 7.5 3 8.5 6.2 1.6-0.8 0.8-1.9 0.6-4.5-1.4-3.1-4.7-6.4-1.2-0.9-0.1-1.8 0.4-1.6 2.7-2.6 0.6-2.5 1.8-1.1-0.7-3.3 1.3-7.1 2.4-1.5 4-3.8 2.8-1.1 14.6-0.4-3.8 11.7-1.4 6.5-0.8 2.3-1.2 1.6-4.4-1.3-0.7 1.2 0.5 2.6 0.9 2.1 2.7 1.9 3.1-0.9 8.8 1.1z" id="SVN1013" name="Kranj" data-id="SVN1013" data-name="Kranj">
 </path>
 <path d="M206.8 177.2l-0.2 6.2-0.6 3.9-2.4 2.4-1.6 1.1-2.3 3.8-4.1 1.2-2.3 2.7-3.7 1.9-4.2 2.9-9.3 8.4-22.2 12.1-1.9-0.4-5.6-7.1-1-1.7-1.2-2.9-1.9-2.5-4-3.2-9.9-6-5.2-2.4-4-0.9-8.2 3.6-3.2 1-3.3 0.4-1.6-1.1 1.1-10.2-1.4-4.7 0.8-1.7 0.5-11.8 1.7-2.4 1.2-2.9 0.6-3.2 0-3.6 4.8 0.4 20.9 5.1 4.3-0.1 20.6-3.4 9.5 1.6 29 13.8 5.2 0.6 5.1-0.9z" id="SVN1014" name="Kranjska Gora" data-id="SVN1014" data-name="Kranjska Gora">
 </path>
 <path d="M305.5 251.3l0.7 3.3-1.8 1.1-0.6 2.5-2.7 2.6-0.4 1.6 0.1 1.8 1.2 0.9 4.7 6.4 1.4 3.1-0.6 4.5-0.8 1.9-1.6 0.8-8.5-6.2-7.5-3-2.2-7.1-0.5-3.1 0.3-13.3 7 1.7 1.9 1.3 1.8 0.3 8.1-1.1z" id="SVN1015" name="Naklo" data-id="SVN1015" data-name="Naklo">
 </path>
 <path d="M286.7 249.1l-0.3 13.3 0.5 3.1 2.2 7.1-12.8 0.8-2-0.9-15.5-4.1 0.4-6.7-1.6-2.3-1.1-0.6-2.2 0.3-1.6 0.6-15.4-1.7 1.6-5.3 4.1-3.5 1.1-1.9 1.1-3 4.7-4.7 0.4-2.3-0.9-2.4-2.1-4.1-1.7-2.8 7-4.4 2.9 0.3 3.7-0.4 3.3-2.3 1.3-3.1 1.7-4.7 4.6-6 2.7-2.2 4.8-1.6 4.6 5.4 0.8 10.7-2.1 16.9 0.5 2.7 0.9 1.4 1.6 1-0.6 2.2 1.2 3.3 2.2 1.9z" id="SVN1016" name="Radovljica" data-id="SVN1016" data-name="Radovljica">
 </path>
 <path d="M326.9 325.1l-3.1 1-2.1 3.6-2.7 1.4-3.7 0.8-6.2 5-2.2 3.5-0.9 3.8 0.8 2.4-1.7 6.9-18.3-3.8-11.2 3-6.6 5.4-1-4.1-2.3-2.5-0.3-3.9 0.1-4 0.9-2.6 1.3-2.1-0.2-2.1-0.5-1.5-1.4-1.4 1-3.6 1.5-2.8 2-1.9 2.6-5.3-1.2-2-1.9-1.8-2.8-0.8-5.8 0.4-3.9 0.8-3.7-0.5 2.5-4.3 6.7-2.3 2.5-2.4 5.4-2.6 3-1 1.6-1.8 1.5-8 2.4-2.5 1.9-4.3 8.4 4.1 1.1 2-0.2 1.4-1.9 1.9-0.8 1.4 0 2.3 2 1.7 19.7 8.2 3.7 0.2 5-1.4 0.5 0.4-1.3 3.1 0.4 2.1 1.2 0.4 1.2-0.3 2.5 0.7 1.7 2.4 2.8 7.3z" id="SVN1017" name="Škofja Loka" data-id="SVN1017" data-name="Škofja Loka">
 </path>
 <path d="M201.2 288.9l2.5 5.9 0 3-5 11.6-9.9 7.4-10.9 3.5-5.4 3.3-4.1 4.3-1.2 2.9-1.2 3.6 0 2.5 1.3 4.4 3 5.4 0.6 3.6 0 3.6 0.7 4 0.8 2.6 0.5 3-0.3 1.4-3.8 2.6-2.3-0.6-1.7 2.6-1.7 0.2-3-0.9-1.2 0.7-0.9 2 0.4 1.6 0.9 1.3 1.9 1.2 0.9 1.4 0.3 1.7-0.7 0.9-1.3 0.1-0.4 1.7 0.2 5.2-0.6 8.6-8.7-5.6-2.4-2.7-3.3-5-2.9-6.4-1.1-5.6-0.2-5.5 0.3-3.2-2.6-10.2-2.2-2.2-3.9-0.2-3.7 3.4-19.1-12.1-1.4-2.5-2.3-1.3-3.2-4.5-0.6-3.4-5.8-9.9-8.1 1.7-1.2-4.1-3.2-0.6 3.1-4.3-4.5-4.3-0.3-4.5 0.7-3.9 1.6-2.5 1.6-1.5 3 0.9 1.4-0.6 3.6-2.5 2.5-0.6 5.7-0.1 2.3-2.2 0.8-5.4 2.2-8.4 2.2-3.9 3.1-3.3 2.5-0.6 3.2-0.1 10.8 11 15.9 9.3 14.2 4.6 4.7 0.7 4.5 0.1 32.4-4.3z" id="SVN1018" name="Tolmin" data-id="SVN1018" data-name="Tolmin">
 </path>
 <path d="M340.6 206.5l-0.9 1.3-3.7 9-1.2 4.4-3.4 6.4 0.1 4.1-0.9 5.7-14.6 0.4-2.8 1.1-4 3.8-2.4 1.5-1.3 7.1-8.1 1.1-1.8-0.3-1.9-1.3-7-1.7-2.2-1.9-1.2-3.3 0.6-2.2-1.6-1-0.9-1.4-0.5-2.7 2.1-16.9-0.8-10.7-4.6-5.4 1.3-6 37.9 1.1 10.7-2.4 3.4 0.8 1.5 2.1 1 2.6 1.8 2.2 5.4 2.5z" id="SVN1019" name="Tržič" data-id="SVN1019" data-name="Tržič">
 </path>
 <path d="M254.9 269.7l8.1 6 5 5.7 4.4 2.4 8.5 3.4-1.9 4.3-2.4 2.5-1.5 8-1.6 1.8-3 1-5.4 2.6-2.5 2.4-6.7 2.3-2.5 4.3-20.3 4.1-1.1 1.3-6.6 4.3-1.9-4.2-8.5-2.7-12-1.1-2.9-1.1-1.7-1.2 0-2.5 0.3-3.9 5-11.6 0-3-2.5-5.9 3.9-3.3 6.2-1.6 17.8 2.8 2.6-1.2 0.8-2.5 1-7.1 1.3-3 2.3-3.3 3.5-0.8 3.7-0.4 10.6 1.2z" id="SVN1020" name="Železniki" data-id="SVN1020" data-name="Železniki">
 </path>
 <path d="M261.3 381.1l-5 8-10.3 6.6-8.7-3.1-1.7-2.8-1.6-3.9-1.3-2.2-2.1-0.1-2.6-1.1-8.8-12.9-7.6-4.6 1-3.9 1.8-0.8 3.6-0.8 25.2 5.5 3.4 1.5 1.9 1.7 4 5.1 2.2 2.2 6.6 5.6z" id="SVN1021" name="Žiri" data-id="SVN1021" data-name="Žiri">
 </path>
 <path d="M240.4 453.6l1.6 4.6-9.3 7.7-1.1 1.3-14.9 5.5-7.7-5.1-1.2-3.3-1-4.5-3.1-3.6-2.5-1.3-3.3-0.8-4.2 0.2-5.4 1.6-7.6 4.7-3.3 3.5-4.6 2.9-5 4-1.8 5.4-7.1 1.1-1.8-0.1-7.6-4.1-3.4-5.4-0.8-1.1-5-2.8-1.3-1.2-0.9-1.8-1-1.1-2.5-3.5-5.7-5.8-4.4-2.7-2.5-3.2-2.6-1.6-1.6-0.6-0.4-1.2 4.4-3.1 2.1-0.8 6.7-8 7.8-13.2 14.3-10.4 0-4.4 2.6-4 4.3 6.1 0.3 1.8 2 2.1 3.1 2.1 5.7 2.9 7.2 8.4 7.7 6.5 4.2 1.3 3 2.7 6.3 4.1 4 4.2 12.6 8.8 24.7 5.2z" id="SVN1022" name="Ajdovščina" data-id="SVN1022" data-name="Ajdovščina">
 </path>
 <path d="M152 223.4l-4.4 6-20.2 11-4.7 4.5-2.3 4.3-4.7 11.1-17.7 3.1-6.3-0.6-7-2-14.3 0.5-10.8-1.1-5.6 1.8-2 1.7 1 1.5 0.3 2.2-1 2.2-3.8 1.9-12.1-1.7-8.9-2.8-5.2-2.5-4.3-1.3-4.7-3.6-2.7-1.6 4.5-7.7 4.3-9.8 3.4-4.1 4.2-0.5 3.9-1.9 7.6-5.6 14.7-7.9 7.7-8.1 6.8-9.5 7.7-7.3 10.8-1.5 7.8 0.3 5.9-3.2 2.7-5.5 1.4 4.7-1.1 10.2 1.6 1.1 3.3-0.4 3.2-1 8.2-3.6 4 0.9 5.2 2.4 9.9 6 4 3.2 1.9 2.5 1.2 2.9 1 1.7 5.6 7.1z" id="SVN1023" name="Bovec" data-id="SVN1023" data-name="Bovec">
 </path>
 <path d="M76.6 392.5l7.1 7.4-4.8 2.5-3.3 3-9.2 2.2-10.2 4.9-9.5 0.7-8.6-9.9-0.9-1.8-1.5-1.2-4.1-4.9 4.8-4.4 1.7-1.1 2.4-3.2 0.9-3.2-0.8-2.9-2.5-2.7 7.2-9.7 5.5-4.2 3 2.3 4.5 1.8 3.3 3.5 1.8 4.3 2.8 4.9 5.1 4.8 5.3 6.9z" id="SVN1024" name="Brda" data-id="SVN1024" data-name="Brda">
 </path>
 <path d="M213.9 507.2l11.1 8 3 4.1 3.7 9.1-3.3 3.5-3.6 1.8-2.2 4.1-0.7 3.2 0.6 3.1 1.3 2.8 0.2 6.3 1.2 3 1.6 3.4 1.6 4.5-1.1 2.7 0.1 0.8 3.4 1.6-0.2 4.6-4 1.9-1.7 2.9-1.8 1.2-2.1 0.6-6.3-1.3-4.7-4.1-5.9-2.8-5.9-4.3-5.2-2.7-6.5-1.3-3.9-3 1.7-8.4-2.3-4.2 8.2-12.6 1.7-3.2-0.9-4-1.7-3.6-1.3-5.1 0.4-3.1 2.4-2 3.6-1.8 4.5-7.5 4.1-2.3 0.8-0.6 3.3 0.3 6.8 4.4z" id="SVN1025" name="Divaca" data-id="SVN1025" data-name="Divaca">
 </path>
 <path d="M182.6 560.9l3.9 3 6.5 1.3 5.2 2.7 5.9 4.3 5.9 2.8 4.7 4.1 6.3 1.3 2.1-0.6 1.8-1.2 1.7-2.9 4-1.9 4.6 4.3-0.7 1.5-1 3.3-1.7 3.4-1.3 5.4 0.3 2 1 1.3 1.8-0.6 2 1.2-1 7.1-2.6 8.7-2.3 5.9 0.7 1.3 5.8 4.7 1.4 1.6 2 4.3-0.1 5.5-0.4 3-7.6-0.4-8.3-2.9-7.9-5.8-4.2-4.3-4.6-2.4-8.4-1.8-1.1-3.5-10-11.9-13.3-2.8-5-3.5-3.1-3.6-1.5-2.1-3-11.3-0.8-2.2 6-7.5 2.4-5.9-0.3-0.9 4.8-4.5 9.4 0.5z" id="SVN1026" name="Hrpelje-Kozina" data-id="SVN1026" data-name="Hrpelje-Kozina">
 </path>
 <path d="M95.3 622.3l-1.7 6.7-3.5 1.8-1.5-0.6-0.7-1.6-1.9-3-1.6-1.1-2-2.1-1-4-0.1-2.7-2.3-5.4-0.2-2 20.4-3.1-0.3 10.9-3.6 6.2z" id="SVN1027" name="Izola" data-id="SVN1027" data-name="Izola">
 </path>
 <path d="M128.9 352l-0.7 9-1.9 2.8-2.9 5.1-3.8 2.9-2.4 0.1-8.5-3.6-7.5-0.5-4.7 2.5-3.7 3.1-7 10.8-2.4 1.7-0.2 1.7 4.3 5.9 1.7 2.7-1 1.2-1.2 0.4-1.3-0.1-2.3-2.3-3.2-2.4-3.6-0.5-5.3-6.9-5.1-4.8-2.8-4.9-1.8-4.3-3.3-3.5-4.5-1.8-3-2.3 29.8-22.8 9-16.7-1.2-4.5 8.1-1.7 5.8 9.9 0.6 3.4 3.2 4.5 2.3 1.3 1.4 2.5 19.1 12.1z" id="SVN1028" name="Kanal" data-id="SVN1028" data-name="Kanal">
 </path>
 <path d="M115.7 260.3l3 7.2-3.2 0.1-2.5 0.6-3.1 3.3-2.2 3.9-2.2 8.4-0.8 5.4-2.3 2.2-5.7 0.1-2.5 0.6-3.6 2.5-1.4 0.6-3-0.9-1.6 1.5-1.6 2.5-0.7 3.9 0.3 4.5 4.5 4.3-3.1 4.3-4.2-0.8-9.3 1-8.1-1.3-9.5-9.5-6-4.2-8.8-1.8-4.5-2.5-9.4-0.7-5-1.7 4.7 8.1-8.7 1.4-2.7-4-1.1-6.3-4.2-5.9-2-11.5-1.7-5.5-2.5-4.6 8.3-5.1 1.3-2.4 2.7 1.6 4.7 3.6 4.3 1.3 5.2 2.5 8.9 2.8 12.1 1.7 3.8-1.9 1-2.2-0.3-2.2-1-1.5 2-1.7 5.6-1.8 10.8 1.1 14.3-0.5 7 2 6.3 0.6 17.7-3.1z" id="SVN1029" name="Kobarid" data-id="SVN1029" data-name="Kobarid">
 </path>
 <path d="M149.5 473.3l7.6 4.1 1.8 0.1 7.1-1.1 5.2 8.4-15.8 4.8-31.5 4-6.8-0.2-1.9 0.7-6.3 4.6-1.9 4.2-12.5-9.8-5.3-1.7-10.9-1.3-8.9-4.9-2.2-4.4 5.6-1 18.1 0.5 6.7-1.1 3.8-4.2 3.7-2.1 2.2-3 1.8-1.6 0.9-8.4 16.8 9.3 5.5 1.6 6.8 0 3.4-0.5 7 3z" id="SVN1030" name="Komen" data-id="SVN1030" data-name="Komen">
 </path>
 <path d="M198.1 620.1l-4.9-1-2.2 1.4-1.1 3.2 0 4.9 6.7 8.1-4.1 5.5-14.8 6.4-4.6 4.5-2.8 4.4-3.4 2.5-16.9-2.5-5-1.6-4.2-4.3-15-9.5-31.4 1.5 0.4-3 3-2.1 2.2-5.3 3.5-3.6 1.4-2-1.1-1.9-8.5-3.4 3.6-6.2 0.3-10.9 24.6-3.6 0-2.8-3.3-4.9-9.7-10.6 15.6-1.4 12.5 6.8 15-1.5 6.4-8 0.8 2.2 3 11.3 1.5 2.1 3.1 3.6 5 3.5 13.3 2.8 10 11.9 1.1 3.5z" id="SVN1031" name="Koper" data-id="SVN1031" data-name="Koper">
 </path>
 <path d="M90.2 445.2l-2.3 2.1-4.4 0.7-1.6 0.9-0.1 1.4 2.8 3.2 3.2 2.1 8.3 2.9 4.4-0.2 9.5 1.6-0.9 8.4-1.8 1.6-2.2 3-3.7 2.1-3.8 4.2-6.7 1.1-18.1-0.5-5.6 1-2.6-5.1 1-15.6 9.6-21.8 4.5 3.8 10.5 3.1z" id="SVN1032" name="Miren-Kostanjevica" data-id="SVN1032" data-name="Miren-Kostanjevica">
 </path>
 <path d="M78.8 608.3l0.2 2 2.3 5.4 0.1 2.7 1 4 2 2.1 1.6 1.1 1.9 3 0.7 1.6 1.5 0.6 3.5-1.8 1.7-6.7 8.5 3.4 1.1 1.9-1.4 2-3.5 3.6-2.2 5.3-3 2.1-0.4 3-9.8 0.4-12.5-13.5 0.6-1.9-0.8-3.8 2.2-4.7 0-2.8-3.1-0.6-2.4-1.8-1.9-3-1.3-4.2 6.7 1.6 6.7-1z" id="SVN1033" name="Piran" data-id="SVN1033" data-name="Piran">
 </path>
 <path d="M198.9 505.4l-4.5 7.5-3.6 1.8-2.4 2-0.4 3.1 1.3 5.1 1.7 3.6 0.9 4-1.7 3.2-8.2 12.6 2.3 4.2-1.7 8.4-9.4-0.5-4.8 4.5-0.2-0.4-2.8-0.2-4.8-2.7-3.4-3.7-25.2-42.7-21.9-10-3.1-2.3 1.9-4.2 6.3-4.6 1.9-0.7 6.8 0.2 31.5-4 15.8-4.8 9.2 7.7 16.5 9.3 2 3.6z" id="SVN1034" name="Sežana" data-id="SVN1034" data-name="Sežana">
 </path>
 <path d="M216.7 472.7l4 12.8-2.1 5.3-1 8.6-1.7 2.4-2 5.4-6.8-4.4-3.3-0.3-0.8 0.6-4.1 2.3-2-3.6-16.5-9.3-9.2-7.7-5.2-8.4 1.8-5.4 5-4 4.6-2.9 3.3-3.5 7.6-4.7 5.4-1.6 4.2-0.2 3.3 0.8 2.5 1.3 3.1 3.6 1 4.5 1.2 3.3 7.7 5.1z" id="SVN1035" name="Vipava" data-id="SVN1035" data-name="Vipava">
 </path>
 <path d="M930.1 101l-3.7 3 0.1 2.4-1 3.9 4.7 4.5 0.8 9.5-8.4-0.5-2.5 2.5-1.4 1.8-0.8 2.6 0.8 3.3 1.3 3.3-5.8 7.1-9.8-14-4.2-3.6-13.5-6.4 6.9-4.4 3.1-4.8 4.1-1.7 11.2-11.2 8.8 1 2.5-2.7 2.3 0.6 4.5 3.8z" id="SVN1039" name="Beltinci" data-id="SVN1039" data-name="Beltinci">
 </path>
 <path d="M844 200.3l-4.5-1.2-5.2 2.8-1.3 1.5-2.6 4.1-12.7-1.8 3.2-14 7.6 2.2 6.2-5.7 2.3-3.7 1.4-3.3 4-7.8 6 10.2-0.3 8.9-4.1 7.8z" id="SVN1040" name="Dornava" data-id="SVN1040" data-name="Dornava">
 </path>
 <path d="M844 200.3l7.8 3.4 4.8 9.6 3.1 9-6.5-1.6-4.6 3.8-2.9 7.2 0 2.6 1 2 1.1 1.2 0.8 2.6 0.7 5.3 2.3 8-3.5 3.8-6.3 4.4-6.6 3.4-1.5 0.4-1.4-2.2-4.4-14.8 0.3-3.6-1.6-5.1-1.2-1.2 0.6-5.8 2.6-0.2 2.6-0.9 1-0.7 3-3.3-0.5-3.8-2.5-5.8-0.3-4-1.5-6.5 2.6-4.1 1.3-1.5 5.2-2.8 4.5 1.2z" id="SVN1041" name="Gorišnica" data-id="SVN1041" data-name="Gorišnica">
 </path>
 <path d="M842.2 164l-2 1.7 2.2 7.7-4 7.8-1.4 3.3-2.3 3.7-6.2 5.7-7.6-2.2-3.1-4.1 0.3-9.5 0.9-3 0.8-6.7 1.6-2 2.4-2.3 2.9-1.4 3.7-2.4 7.7-2.4 4.1 6.1z" id="SVN1042" name="Juršinci" data-id="SVN1042" data-name="Juršinci">
 </path>
 <path d="M963.3 93.9l-3.2-0.5-6.1-2.7-3-2.2-2.4-4.5 2.9-5.6 1.9 0.8 5.9 0.4 4.8 3.2 1.7 8.7-2.5 2.4z" id="SVN1043" name="Kobilje" data-id="SVN1043" data-name="Kobilje">
 </path>
 <path d="M930.6 40.1l-0.4 1.7 0.7 1.8 4.4 13.3 3.6 4.6 2.7 5.3 2.9 3.5 4.4-0.7 0.1 7.8 2.5 1-2.9 5.6-4.9-2-2.1 2.4-2.1 3.5-3.2 7.1-1 7.2-5.2-1.2-4.5-3.8-2.3-0.6-2.5 2.7-8.8-1-4.7-0.8-7.1-3.7-1.7-1.6-1.9-2.4-0.1-3.4-4.1-8.4-1-9.7 2.7-3.9 1.9-0.1 6.5-8.2 2.3 0.3 1.8-1.2 2.7-4.7 2.7-2.4 5.4-8.2 10.4 1.3 2.8-1.1z" id="SVN1044" name="Moravske Toplice" data-id="SVN1044" data-name="Moravske Toplice">
 </path>
 <path d="M912 98.3l-11.2 11.2-4.1 1.7-3.1 4.8-6.9 4.4-12.8-6.1-3.2-2.2 3.2-6.1 0.8-3.2-1.4-3.1-1.4-2.7-1.8-2.3-1.3-4.7-0.4-2.4 1.7-6.3 11.4-0.6 2.2 0.8 8.7-3.5 4.1 8.4 0.1 3.4 1.9 2.4 1.7 1.6 7.1 3.7 4.7 0.8z" id="SVN1045" name="Murska Sobota" data-id="SVN1045" data-name="Murska Sobota">
 </path>
 <path d="M931 124.3l-0.3 3.6-4 5.2-2.4 0.8-4.3 3.4-1.3-3.3-0.8-3.3 0.8-2.6 1.4-1.8 2.5-2.5 8.4 0.5z" id="SVN1046" name="Odranci" data-id="SVN1046" data-name="Odranci">
 </path>
 <path d="M909.9 176.1l-0.1 2.9 1.2 6.2 3.7 12.7 0.3 3.7-0.6 7.4 0.8 3.9 2 2.3 5.4 3.6 1.4 2.2 0.5 5.1-1.4 1.4-7.3-0.1-11.3 2.8-2.7 0.1-5.3-1.2-4.5-2.7-7.6-7.3-3.1-1.5-3.9 0.8-2.6 2.8-2.5 3.5-3 2.5-3.7 0.7-1.8-0.4-4.1-5.2-3.1-9-4.8-9.6-7.8-3.4 4.1-7.8 0.3-8.9-6-10.2-2.2-7.7 2-1.7 9.9 2.3 5.1 2.1 14.6 2.7 7.2 3 3.5 0.4 1.6-0.6 0.9-1.6 4.8-1.2 4 3 2.7 2.4 3.2 4.9 1.5 0 1.2-1.3 2 0.8 1.6-0.4 1.7-2.7 2.2-1.7z" id="SVN1047" name="Ormož" data-id="SVN1047" data-name="Ormož">
 </path>
 <path d="M860.9 126.2l3.5 10.9-0.4 2.5-3.6 10.3-10.2-1.6-3.6 2.8-1.9 2.7-0.4 1.1 0.4 1.2-0.5 3.1-2 4.8-4.1-6.1-6.6-10.2-5.7-9 3.1-9.2 11.2-3.5 4.3 1.9 3-3.2 3.8-4.5 2.2 0.2 1.7 1.7 1.6 5.2 1.1 1.6 0.8-0.3 2.3-2.4z" id="SVN1048" name="Sveti Jurij" data-id="SVN1048" data-name="Sveti Jurij">
 </path>
 <path d="M935.3 102.2l10.7 13.8 9.6 7.2-4.6 1.1-4.7-1.5-2.7 0.6-1.5 1-0.2 1.5-2.1 4.6-8.8-6.2-0.8-9.5-4.7-4.5 1-3.9-0.1-2.4 3.7-3 5.2 1.2z" id="SVN1049" name="Turnišče" data-id="SVN1049" data-name="Turnišče">
 </path>
 <path d="M859.7 222.3l4.1 5.2-9.7-2-0.2 8.2 0.8 6.6-0.1 6-2.3 6.3-0.7 0.8-2.3-8-0.7-5.3-0.8-2.6-1.1-1.2-1-2 0-2.6 2.9-7.2 4.6-3.8 6.5 1.6z" id="SVN1050" name="Zavrc" data-id="SVN1050" data-name="Zavrc">
 </path>
 <path d="M930 8.8l0.1 1.3 1.7 4 0 6.2-0.6 2.6-1.7 3 0.7 2.9 4.1 3-2.8 4.8-0.9 3.5-2.8 1.1-10.4-1.3 0.8-3.6 0.9-1.7 1.1-4.9-0.4-3.5-2.1-3.9-4.5-4.5-5.3-3.1-15.3-11.2 29.3-2.5 3.3 1.9 4.8 5.9z" id="SVN196" name="Šalovci" data-id="SVN196" data-name="Šalovci">
 </path>
 <path d="M877 4.4l-2.3 6.1 0.7 4.8-8.3 0.5-2.2 0.8-4.5 3.6-1.7 1.7-5.2 1.3-1-13.9 13-7.7 11.5 2.8z" id="SVN197" name="Kuzma" data-id="SVN197" data-name="Kuzma">
 </path>
 <path d="M828.9 129.5l-3.1 9.2 5.7 9-8.7 6.1-1.6 0.2-2.1-0.2-0.7-1.2-5.3-2.7-2.8-10.8 2.1-3.8 3.7-2.8 1.7-0.7 4-3.3 7.1 1z" id="SVN198" name="Cerkvenjak" data-id="SVN198" data-name="Cerkvenjak">
 </path>
 <path d="M814.6 124.7l-2.3 2.5-3.4 2.4-3.2 0.4-0.9 0.7-1.3-0.4-1.6-1.8-5.6-8.2-4-2.3 0.9-5.7 2.9-6 4.2-4.4 6.7 2.8 2.9-0.1 1.4-0.3 2.6 1.1-0.8 2.2-4.8 4.4 0.1 2.5 0.8 3.6 5.4 6.6z" id="SVN199" name="Benedikt" data-id="SVN199" data-name="Benedikt">
 </path>
 <path d="M800.4 94.1l-0.1 7.8-4.2 4.4-2.9 6-0.9 5.7-1.9 1.7-1.6-0.1-2.2-0.8-3.3-2.6-1.6-1.9-0.3-3.9-1.6-5.9-1.6-2.4-5.8-0.7-1.8-3.6-0.6-2.8 0.1-2.2 2-2.3 0.3-2.6 1.2-2.9 0.2-8 4.4 1.7 2.8 4.5 10 6.8 5.7 1.5 3.7 2.6z" id="SVN200" name="Sveta Ana" data-id="SVN200" data-name="Sveta Ana">
 </path>
 <path d="M934.3 31.8l-4.1-3-0.7-2.9 1.7-3 0.6-2.6 0-6.2-1.7-4-0.1-1.3 1.4 1.8 2.8 1.5 4.6 0.3 1.4 2.3-0.7 4.1-1.8 5.7-2.2 5.2-1.2 2.1z" id="SVN201" name="Hodoš" data-id="SVN201" data-name="Hodoš">
 </path>
 <path d="M879 17l-3.1 19.4-4.7 9.3-2.1 1.7-2.5 0.8-1.9-0.8-2.8-0.5-6 0.3-3.6-2.7-0.2-2.6 1.4-18.7 5.2-1.3 1.7-1.7 4.5-3.6 2.2-0.8 8.3-0.5 3.6 1.7z" id="SVN202" name="Grad" data-id="SVN202" data-name="Grad">
 </path>
 <path d="M813.1 167.3l5.9 7.8-0.9 3-6.9 4.4-4.5 4.9-0.9 1.8-1.6 1.3-2.4 0.6-2.5-0.6-4.8-2.9-7.7-10.5-7-5.6 9.8-5.2 4.1 2.8 6.5 0.1 12.9-1.9z" id="SVN203" name="Destrnik" data-id="SVN203" data-name="Destrnik">
 </path>
 <path d="M305.1 353.5l2.5 3.5 1.6 1.6 3.9 1.7 6.8-3.1 11.6 3.3 2.1 0.1 1.8 0.7 1.1 1.3 2.6 7 0.7 1.1 1.7 4.7 0.3 4.3-0.4 3.3-3.4 2.1-5.2-2.7-1.7-0.4-6.9 1.6-5.9 2.2-2.3 3.1-5.5 3.1 0.7-3.6-0.4-3.3-1.9-3.9-2-1.4-2.4-0.9-12.9-1.3-8 1.9-1.5 0.7-2.9 3.8 0.2 5.1-17-2 0.8-4.6-1.9-1.4 6.3-10.2 0.3-3.1 0.8-3 0.3-6.7 6.6-5.4 11.2-3 18.3 3.8z" id="SVN204" name="Dobrova-Polhov Gradec" data-id="SVN204" data-name="Dobrova-Polhov Gradec">
 </path>
 <path d="M418.5 307.3l-6.2 6.2-3.5 7-0.6 2.6 0.3 1.5 2.2 1 1.9 2.5 3.7 1.4 2.5 3.1-3 2.3 0.2 2.8 2.6 2.1 1.9 1.2-0.7 3.8-6.6-0.2-4.2 2.1-7.6 5-3.7 1.7-7.3 0.8-0.7-4-7.2-1.1 0.5-7.6 1.5-4.6 4.5-6-2-13.2 2.1-5.8 6.1 0.3 7.1-4 2.3-2.3 2-1.1 2-0.7 1.9-0.2 8 3.4z" id="SVN205" name="Domžale" data-id="SVN205" data-name="Domžale">
 </path>
 <path d="M404.8 230.6l2.2 15 7.6 10.6 1.9 5.1 1.1 4.1 1.7 1.9 6.4-0.2-0.6 7.9 3.2 3 12.4 4 11.3 0.6 7.1-0.6 13.8 0.7 9.6 5.7 14.3 9.9-6.4 3.8-3.5 0.9-35.8 4-5.1 1.8-6.7 0-4.3-0.8-6.1-2.1-10.4 1.4-8-3.4-1.9 0.2-2 0.7-2 1.1-2.3 2.3-7.1 4-6.1-0.3-3.3-1.5 0.9-2.6-4-7.7-1.5-6-4-7 3.6-1.8 1.4-2.9 0.5-3.6-3.6-6-1.7-1.9-0.9-4.9-2.1-4.3 0.1-6.1 2.8-4.3-2.7-7 0.7-4.4-0.4-3-3-3.5 10.4-3.9 8.5 3.4 4.5-0.3 9.5-2z" id="SVN206" name="Kamnik" data-id="SVN206" data-name="Kamnik">
 </path>
 <path d="M513.2 504.8l0.5 7.8-1.1 3.5-2.6 13.5 1.5 4 1.4 2.8 6 6.7 6.4 7.7 1.4 7.9 4.1 7.3 6 11.1 5.4 2.2 2.1 5.5-0.3 2.7 1.4 4.2 0 5 1.7 2.3 3.7 3.6 0 2-1.1 0.6-2.2-0.7-2.6 1.8-2.8 3.7-1.1 5.2 1.1 2.6 2.1 1.1 3.4-0.9 3.5-1.3 3.6-0.4 2.5 1.7 0.1 2.2-1 1.3-4.5 1.1-3.5 1.8-1.9 1.5-3.8 4.6-2.7 6.8-3.2-2.7-15.4-0.4-3.2-2.9-3.5-1.7-2.9-0.4-3.8-8.9-6.8-6.3-1.9-0.4-2.5 0.4-5.1 1.5-3.8 0.3-5.2-1.2-4.8-2.8-1.8-0.4-2 0.6-3.1 2.6-0.8 1.7-0.8 3-1.5 4.2-1 1.2-1.4 0.9-4.4-0.7-6.8-8-12.5-11.8-5.4-3.9-2-3.6-0.4-1.7 0.5-0.8 0.1-2.1-1.1-1.8-2-9.6-4.1-14.1 5-4.4 1.6-4.2 7.3 3.4 5.1-1 2.2-3.1 3.3-6.7 0.4-4.9 10.4-24.4-8.4-6.9 5.7-6.6 4.2 0 2.8-1.3 3.4 0.4 5 1.8 2.3 1.6 2.4 3.7 5.9-0.5 9.7-10.9 4.1-1.1 13.5 2.4z" id="SVN207" name="Kocevje" data-id="SVN207" data-name="Kocevje">
 </path>
 <path d="M772.4 101.4l5.8 0.7 1.6 2.4 1.6 5.9 0.3 3.9 1.6 1.9 3.3 2.6 2.2 0.8 1.6 0.1 1.9-1.7 4 2.3 5.6 8.2 1.6 1.8 1.3 0.4 0.9-0.7 3.2-0.4 3.4-2.4 2.3-2.5 7.2 3.8-4 3.3-1.7 0.7-3.7 2.8-2.1 3.8 2.8 10.8-1.4 3.4-10.1-5.5-2.5 1.9-3.6 2-1.7 1.9-1.8 3.8-0.6 2.6-1 1.9-0.8 4.4-9.8 5.2-2.3-1.1-1.8-4.1 1.2-2.7 1.1-1.3-0.8-2.4-1.9-2.4-5.8-4.3-0.7-1.4-0.3-1.9-0.9-1.4-1.3-1-1.7-0.4-2 0.4-4.9 0 4.9-5.7-1.1-0.9-0.6-1.7-2.9-3.8 1.7-6.8-0.7-6.8 0.9-5.6 3.2-8.9 0.8-4.2 1.6-2.3 6.9 0.6z" id="SVN208" name="Lenart" data-id="SVN208" data-name="Lenart">
 </path>
 <path d="M372.4 519.3l6.1 19.1 0.6 5 3 6.6 0.3 1.1-1.6 0.7-2.5 2.7-4 9.2-3.3 4.9-8 9-2.9 4.4-2 5.7-0.3 2-1-0.5-2.4 0.2-2.1-0.3-1.9 0.7-2.4-0.6-3.5 0.2-3.3-0.4-0.3-1.1 1.7-2.1 0.1-3.1-0.8-2.5-4.2-3.9-1.9-3.7 0.2-3.2 1.1-9.1-0.1-8-2.9-4.1-7.4-8.5-2.3-8.2 7.8-1.2 21.5-17.1 9.4 7.6 5.4 1 1.4-0.6 2.5-1.9z" id="SVN209" name="Loška dolina" data-id="SVN209" data-name="Loška dolina">
 </path>
 <path d="M456.9 203.6l0.4 7.5 1.1 4.5-0.7 4.9-8.2 22.9-15.7 12.8-8.1 10.9-6.4 0.2-1.7-1.9-1.1-4.1-1.9-5.1-7.6-10.6-2.2-15 9.4 0.8 18.1-8.6 3.5-2.6 1.7-1.8-1-2.6 0.1-3.9 4.6-6.6 4.8-4.5 1.8-0.3 9.1 3.1z" id="SVN210" name="Luce" data-id="SVN210" data-name="Luce">
 </path>
 <path d="M773.2 235.9l2 4.6 0.9 1.1 0.5 1.6-3.9 8.4-8.9 10.5-3.5 5.5-1.3 10.9-5.2-1.8-11.9 0.8-6-4.5 8.5-10.5 2.5-6.6 0.5-6.4 0.1-5.3-1.7-3.3-2.3-1.2-5.9-1-3.1-3.6-0.9-2.5 1-2.6 28 2 4.8 1 5.8 2.9z" id="SVN211" name="Majšperk" data-id="SVN211" data-name="Majšperk">
 </path>
 <path d="M615.2 460.1l-7.3 4-1.4 2.4-1.6 3.9 0.8 5.4 1.7 4.4 5.7 5.9 7.4 11.3 3.1 12.3 0.2 1.3-8.6 2.9-12.8 7.2-2.7 3.1-1.6 4.4-6.9 5-11.8 8.3-2 0.6-4.1 0.4-4.9-0.4-9.5 0.6-7.4-1.2 0.9-3.7 4-2.7 1.1-1.7 0.7-2-0.9-2.2-2.2-3.1-10.6-11.7-0.4-2.2-1.1-2.4-4.2-6.4-1.5-5.7 8.9-11.4 3.2-1.9 1.6-2.3 2.5-0.7 1.1-1.6 1.8-4 0.6-3.1-0.5-3 0.5-0.6 1.6 0 1.1-0.5 2.1-1.9 3-11 12.6 2.7 3.8-1.1 4.2-1.8 2.5-2.7 3.5-7.3-0.6-4.1 0.2-2 3.5-6.9 9.5 7.9 2.9 1.4 3.4 2.4 3.1 3.7 1.6 2.3 0.9 1.9-1.4 2.9 0.7 4.7z" id="SVN212" name="Novo Mesto" data-id="SVN212" data-name="Novo Mesto">
 </path>
 <path d="M717.4 309.1l-1.1 1.6-5.9 11.3-4.6 13 0 11.5 4.4 10.3 6.3 6.7-5.1 4.8-2.7-1.5-1.2-4.4 0.3-1.7 1-1.6-4.7-10.3-2.8-1.6-5.3-4.6-3.9-0.8-3.4-3 3-11.3 7-4.4 3.6-6.7 10.9-11.4 4.2 4.1z" id="SVN213" name="Bistrica ob Sotli" data-id="SVN213" data-name="Bistrica ob Sotli">
 </path>
 <path d="M656.9 110.5l1.8 3.5-0.5 4.6-1 3.4-0.5 2.5 0 2.1 1.8 0.9 0.9 2.6-2.4 4.6-3.3-0.2-5.7-3.8-6.1-2-3.8-0.4-1.5 0.6-0.8 1.6 0.1 3.9-0.8 3-5.8 8.1-2.9 7.8-3.2 4.5-2 6.5-1.8-7.8 0.1-2.1 1-2.5-1-1.4-4.9-2.8-2.7-4.8-7.3-7.2 4.4-12 4.3-4.2 2.1-0.7 5.2-2.5 2.6-2.1 1.1-7.3 0.1-3.9 17.5-1 9.3 3.6 5.7 4.9z" id="SVN214" name="Podvelka" data-id="SVN214" data-name="Podvelka">
 </path>
 <path d="M371.9 233.4l3 3.5 0.4 3-0.7 4.4 2.7 7-2.8 4.3-9.1 5.6-4.6 1.4-5.4 0.2-5.3 2.1-15.8 1.3-8.8-1.1-3.1 0.9-2.7-1.9-0.9-2.1-0.5-2.6 0.7-1.2 4.4 1.3 1.2-1.6 0.8-2.3 1.4-6.5 3.8-11.7 6.8 0.5 2.2-2.2 2.1-4.3 1.3-0.8 3.1-0.2 4.7 1.2 21.1 1.8z" id="SVN215" name="Preddvor" data-id="SVN215" data-name="Preddvor">
 </path>
 <path d="M779.8 171.5l7 5.6 7.7 10.5 4.8 2.9 2.5 0.6 2.4-0.6 1.6-1.3 0.9-1.8 4.5-4.9 6.9-4.4-0.3 9.5 3.1 4.1-3.2 14-0.1 2.9-2.3 3.2-10 6.3-2.4-1.5-8.5 5.9 0.5-2.5-0.6-0.9-1.8-0.9-1.8-2 0.4-1.2-0.1-2.8 0.3-2.2-0.4-1.7-3.5-7.2-9.1-11.1-4.4-5.6-2.8-1.1-4.6 0.7 4.2-5.6 3.7-2.5 3.1-5.5 2.3 1.1z" id="SVN216" name="Ptuj" data-id="SVN216" data-name="Ptuj">
 </path>
 <path d="M522.2 145.9l-2.1 8.6-0.5 8.1-1.2 3.9-2 3.3-1.7 1.3-6.7 2.9-7-0.6-0.9-0.7-5.2-5.7 7.5-7.7 0.9-4.2-1.1-1.7-0.3-4.9 0.1-5.7-0.4-2.5-0.9-1.5-2.5-0.6-0.9-1-1.6-2.9-1.2-3.1-1.2-1.9-3.3-3.1-1.7 0.1-0.8-0.7-2.1-4.9 1.1-0.2 6.9-4.4 0.2 0.7 7.4 5.9 5.3 0.5 1.9 1.3 1.5 2.4 3.5 4.5 5 4.1 3.1 1.9 2.1 4.5-1.2 4z" id="SVN217" name="Ravne na Koroškem" data-id="SVN217" data-name="Ravne na Koroškem">
 </path>
 <path d="M454.2 515.3l8.4 6.9-10.4 24.4-0.4 4.9-3.3 6.7-2.2 3.1-5.1 1-7.3-3.4 1.1-2.3 0-3.3-1.2-3.6-3.4-1.1-4-2.6-10-3.5-2.9-2.8-6.6-8.2 3.5-3.2 2-3.9 4.3-12.5 0.2-4.1-0.9-3.6-3.8-2-6.1-1.2-6.5-2.2-4.5-1.1-3-1.7-4-3.6 12.9-2.2 8.5-3.1 5-4.1 5.5-1.7 34.2 34z" id="SVN218" name="Ribnica" data-id="SVN218" data-name="Ribnica">
 </path>
 <path d="M697.5 164.6l-7.7 5.8-12.3-0.9-29.3 9.9 2.3-10 8-8.7 2.7-6.1 0.5-2.8-0.2-1.9 3-3.8-0.4 5.3 7.8 1.9 4.2-1.5 20.4-11.3-3.2 20.4 4.2 3.7z" id="SVN219" name="Ruše" data-id="SVN219" data-name="Ruše">
 </path>
 <path d="M686.8 271.8l-1.8 2.1-1 1.5-1.9 1.7-3.9 5-4.7 3.2-3.7 1.7-5.5 4-3.5 4-0.2 2.1 0.9 3.8 2.6 6.8 5.7 8.8 0.7 2.6 1.6 3.4 2.4 2.4 4.5 1.7 3.6-1.1 3.1-0.3 1.8-0.6 4.2 2.9-3 11.3-5.7 4-3.3 4.2-2.6 1.4-2.4-0.5-1.2-0.7-2-0.3-1 2.1-0.6 2.7 3.2 6.6 1.9 9.2-23.5 2-15.8-4.1 2.8-5.3 0.8-2.5-0.3-3.9 1.2-4.8 2.3 0.4 2.6-1 2.4-2.6 2.6-2.2 0.9-2.2 1-0.3 2.2 2.4 1.5 0.9 1.2 0.1 0.6-0.7 0.9-4.1-0.5-1.4-1.2-1.5-2.9-1.8-1.2-1.1-2.7-3.6-0.5-1.3-2.7-0.1-10.3 7.5-1.2-6.3 2-3.9 0.5-4.4-3.7-6.2 0.3-11.6 0.7-2.9-1.5-4.3-7-3.1 1.3-5.8 2.5-2.3 1.5-1.9 0.7-4.4 1.7-9 1.8-1 2.7-3.4 0.6-2.2-1.1-1.9-0.9-0.8 0.9-5 6.2 4.3 32.9 10 2-0.3 1.8-1 5.7 2.9z" id="SVN220" name="Šentjur pri Celju" data-id="SVN220" data-name="Šentjur pri Celju">
 </path>
 <path d="M689.8 170.4l2 6.5 0.7 4 2.9 2.7 26.3 15.7 0.5 1.6 3.7 1.2 4.5 2.2 6.3 6.9-3.2 2.9 0.6 1 1.9 1.6-0.5 1.9 0.6 2.4-1 3.4-1.4 2.1 0.9 3.5-1 2.6 0.9 2.5 3.1 3.6 5.9 1 2.3 1.2 1.7 3.3-0.1 5.3-0.5 6.4-2.5 6.6-8.5 10.5-10.1 0.2-14-4.7-6.6-0.1-3.5 1.1-1.8 1.1-1.7 2.6-4.2-1.9 1.7-7.2-0.9-7-2.3-11.5-2.2-5-2.7-2.4-2.5-0.3-6.8-4.1-1.9-5.6-0.9-4.2 0.5-4.2-0.3-1.2-1.5-1.1-4.5-1.3-3.9 0.4-1.9-1.4-1-2.6-1-1.9-3.3-4.2-5.7-2.6-7.8-6.2-5.1-1.3-4.4-3.1-5-2.3-2.2-3.2-2.2-2.7-1.1-5.5 7.6-1.3 1.5 0.9 4.1 4 1.4 0.3 1.9-0.7 1.1-0.8 5.5-2.6 29.3-9.9 12.3 0.9z" id="SVN221" name="Slovenska Bistrica" data-id="SVN221" data-name="Slovenska Bistrica">
 </path>
 <path d="M805.3 218.1l7.8 3.1 2.1 1.6 2.3 6.4 2.8 1.7 5.7 1.8-0.6 5.8 1.2 1.2 1.6 5.1-0.3 3.6 4.4 14.8 1.4 2.2-3.7 1-10.5 1.9-9.5 5.3-0.8-4.7 0.7-2.5-0.2-2.4 0.3-2.6-0.2-1.4-2-4.3-0.8-3.5 0.3-1.5 1.1-2.3-0.3-3.3-0.7-1.5-1.4-1.3-1.8-1.1-5.2-2.3-1.3-0.9-4.8-0.6-7.2 2.2-1.5 0.8-1.8 2.6-1 2.6 0.2 2.9-1.3 8.7-7.6-5.6 3.9-8.4-0.5-1.6-0.9-1.1-2-4.6 5.1-2 0.8-3.1 1.1-2.6 2.1-10.6 6 5.9 6.1-1 8.5-5.9 2.4 1.5z" id="SVN222" name="Videm" data-id="SVN222" data-name="Videm">
 </path>
 <path d="M635.8 245.5l-1.4 4.5 1.1 3 0.6 1 2.1 1.9-0.9 5 0.9 0.8 1.1 1.9-0.6 2.2-2.7 3.4-1.8 1-1.7 9-10.4-5.3-1.4-0.6-2.1-0.2-1.1 0.6-1.7 0.2-1.3-0.8-3.1-2.9-1.5-4.1-5.4-8.4-9.5-6 6-6.9 0.8-3.3-0.1-4.5 0.6-1.5 2-2.1-0.6-2.2 20.1 0 1.9 3.1 0.6 4.1 3.5 3.7 6 3.4z" id="SVN223" name="Vojnik" data-id="SVN223" data-name="Vojnik">
 </path>
 <path d="M581.2 248.4l9.4 4.7 0 14.7-1.2 2-1 3.2-0.4 1.8 0.8 3.1-0.5 1.5 1.2 7.4 0.4 3.6-2.4 17.3-4 4.6-8.7 1.7-20 0.5-0.7-1.8 2.3-0.2 2.2-1.1 1.8-2.2 0.5-1.5 0.5-3.9 0.1-7 0.4-2.2 0.7-1.3 1.7-0.8-1.7-2.1-4.5-2.5-6.2-6.2 1.9-5-0.8-2.5 1-2.6 2.4-4.8 1-2.8 0.4-10.7 2.7-4.9 2.1-2.4 2.6-1.3 3.9-0.2 7.4 5 4.7-1.1z" id="SVN224" name="Žalec" data-id="SVN224" data-name="Žalec">
 </path>
 <path d="M386.7 307.8l-14.2 11-4.2-1.4-7.6-11.8 16.5-18.5 4 7 1.5 6 4 7.7z" id="SVN225" name="Komenda" data-id="SVN225" data-name="Komenda">
 </path>
 <path d="M678.3 233.8l-13.1 0.6-2.5-0.8-9.1-5.2-5.1-4.4 0.3-1.3 2.4-3.1 0.5-1.3-1.2-2.1-1.7-2.2 0-1.4 0.8-0.9 1.3-4.6 2-3.2 5.7 2.6 3.3 4.2 1 1.9 1 2.6 1.9 1.4 3.9-0.4 4.5 1.3 1.5 1.1 0.3 1.2-0.5 4.2 0.9 4.2 1.9 5.6z" id="SVN226" name="Oplotnica" data-id="SVN226" data-name="Oplotnica">
 </path>
 <path d="M794.4 222.5l-6.1 1-6-5.9-9.8-17 1.7-2.7-0.6-3.4 0.5-1.9 4.2-2.6 9.1 11.1 3.5 7.2 0.4 1.7-0.3 2.2 0.1 2.8-0.4 1.2 1.8 2 1.8 0.9 0.6 0.9-0.5 2.5z" id="SVN227" name="Hajdina" data-id="SVN227" data-name="Hajdina">
 </path>
 <path d="M750.7 167l0.5 0.7-2.7 3.9-0.4 1.4 1.4 2.5 0.6 2.8 1 2.6-5 6.7-2.4-2.3-3.7-7.6-0.9-2.4 1.4-3.5 0.4-1.8-2-3.6 0.7-2.8 11.1 3.4z" id="SVN228" name="Miklavž na Dravskem polju" data-id="SVN228" data-name="Miklavž na Dravskem polju">
 </path>
 <path d="M739.6 163.6l-0.7 2.8 2 3.6-0.4 1.8-1.4 3.5 0.9 2.4 3.7 7.6-7.2 1.2-3.4 0.9-5.5 0.2-1.5-0.3-2.2-1-3.2-2.7-7.6-3.7-8.3 0-4.9-2.1-8.1-0.9-2-6.5 7.7-5.8 14.2-3.1 27.9 2.1z" id="SVN229" name="Hoce-Slivnica" data-id="SVN229" data-name="Hoce-Slivnica">
 </path>
 <path d="M811.7 153.3l2 2.1 0.6 1.2 0.6 3.9-1.8 6.8-12.9 1.9-6.5-0.1-4.1-2.8 0.8-4.4 1-1.9 0.6-2.6 1.8-3.8 1.7-1.9 3.6-2 2.5-1.9 10.1 5.5z" id="SVN230" name="Trnovska vas" data-id="SVN230" data-name="Trnovska vas">
 </path>
 <path d="M780.3 257.2l11.7 11.3 1.6 1 2.6 7.2 1.8 3-14.8 0.5-5 1.3-4.8 2.3-1.2 0.9-13.2-6.2 1.3-10.9 3.5-5.5 8.9-10.5 7.6 5.6z" id="SVN231" name="Žetale" data-id="SVN231" data-name="Žetale">
 </path>
 <path d="M810 273.6l-11.1 6.1-0.9 0-1.8-3-2.6-7.2-1.6-1-11.7-11.3 1.3-8.7-0.2-2.9 1-2.6 1.8-2.6 1.5-0.8 7.2-2.2 4.8 0.6 1.3 0.9 5.2 2.3 1.8 1.1 1.4 1.3 0.7 1.5 0.3 3.3-1.1 2.3-0.3 1.5 0.8 3.5 2 4.3 0.2 1.4-0.3 2.6 0.2 2.4-0.7 2.5 0.8 4.7z" id="SVN232" name="Podlehnik" data-id="SVN232" data-name="Podlehnik">
 </path>
 <path d="M494.9 167l-7.8 0.1 1-5.6-1.2-1.3-2.2-1.8-3.2-3.4-1.1-3-0.1-2.2-1.7-1.5-1.8-0.9-1.2-2.2-3.2-0.7-1.9 0.6-6.8-0.2-3.5 0.6 2.4-7.5 3.6-7.7 5.3-7.8 4-1.7 4.5 0.6 5.4-0.7 2.1 4.9 0.8 0.7 1.7-0.1 3.3 3.1 1.2 1.9 1.2 3.1 1.6 2.9 0.9 1 2.5 0.6 0.9 1.5 0.4 2.5-0.1 5.7 0.3 4.9 1.1 1.7-0.9 4.2-7.5 7.7z" id="SVN233" name="Prevalje" data-id="SVN233" data-name="Prevalje">
 </path>
 <path d="M696.5 140.5l-20.4 11.3-4.2 1.5-7.8-1.9 0.4-5.3 0.7-8.4-1.3-3.9-2.1-2-2.4-1.7-0.9-2.6-1.8-0.9 0-2.1 0.5-2.5 1-3.4 0.5-4.6-1.8-3.5 1.4 1.3 7.2 4.5 9.5-1.7 5.9-4.6 0.8-1.9 2 2.4 1.5 6.2-0.1 3.4 1.1 2.6 1.3 1.9 3.1 1.8 1.6 2.2 0.5 4.3 0 3 3.8 4.6z" id="SVN234" name="Selnica ob Dravi" data-id="SVN234" data-name="Selnica ob Dravi">
 </path>
 <path d="M659.4 130.1l2.4 1.7 2.1 2 1.3 3.9-0.7 8.4-3 3.8 0.2 1.9-0.5 2.8-2.7 6.1-8 8.7-2.3 10-5.5 2.6-1.1 0.8-1.9 0.7-1.4-0.3-4.1-4-1.5-0.9-7.6 1.3-6.2-2.2-1.1-4.8 3.4-8.3 2-6.5 3.2-4.5 2.9-7.8 5.8-8.1 0.8-3-0.1-3.9 0.8-1.6 1.5-0.6 3.8 0.4 6.1 2 5.7 3.8 3.3 0.2 2.4-4.6z" id="SVN235" name="Lovrenc na Pohorju" data-id="SVN235" data-name="Lovrenc na Pohorju">
 </path>
 <path d="M382.5 349.1l-9.4-3.8-6.1-7.4 22-7-4.5 6-1.5 4.6-0.5 7.6z" id="SVN236" name="Trzin" data-id="SVN236" data-name="Trzin">
 </path>
 <path d="M380.2 219l0.3 0.9 1.8 9.6-10.4 3.9-21.1-1.8-4.7-1.2-3.1 0.2-1.3 0.8-2.1 4.3-2.2 2.2-6.8-0.5 0.9-5.7-0.1-4.1 3.4-6.4 1.2-4.4 3.7-9 0.9-1.3 4.4 2 5.3 0.8 10.9-2.6 4.3 6 3.6 7.9 4.2 4.4 5.5-2.4 1.4-3.6z" id="SVN237" name="Jezersko" data-id="SVN237" data-name="Jezersko">
 </path>
 <path d="M530.7 470.9l3.7 6.7 1.2 1.1 10.6 8-8.9 11.4-7.8-0.1-5.8-1.6-3.6 1.1-2.3 1.2-4.6 6.1-13.5-2.4-4.1 1.1-9.7 10.9-5.9 0.5-2.4-3.7-2.3-1.6-5-1.8-3.4-0.4-2.8 1.3-4.2 0-3.1-8-0.4-2.3 0.6-7.8 6.3-0.2 4 0.9 3.8-1.7 2.1-3.7 0.2-7.8-1.9-6.8-0.9-2.3 0-2.7 1-1.3 8.2-1.5 0.2-5.7 16.6-0.5 2.9 0.9 3.2 2.3 1.3 2.1 0.6 2.6 1.3 2.4 2.6 1.9 3.8 0.8 6.6-3.2 4.9 2 1.3 2.3 2 0.8 3.6-1.3z" id="SVN238" name="Žužemberk" data-id="SVN238" data-name="Žužemberk">
 </path>
 <path d="M603.7 231.2l0.6 2.2-2 2.1-0.6 1.5 0.1 4.5-0.8 3.3-6 6.9-4.4 1.4-9.4-4.7 3.1-6.6 0-1.7-0.5-3.8-1.1-3-3.5-12.8 13.4-1.9 11.1 12.6z" id="SVN239" name="Dobrna" data-id="SVN239" data-name="Dobrna">
 </path>
 <path d="M535.1 295l0.5 6.7-0.3 1.8-2.1 6.5-8.5 1-5.8-3.6-9.2 0.5 0.5-6.3 0.8-3.1 11.1-18.1 6.5 2.1 3.8 5.1 0.9 2 1.8 5.4z" id="SVN240" name="Tabor" data-id="SVN240" data-name="Tabor">
 </path>
 <path d="M522.1 280.4l-11.1 18.1-0.8 3.1-0.5 6.3-10.6 2.8-2.3-0.9-4.7-3.5-1.7-4.2 6.4-3.8-14.3-9.9 4-6.3 0-2.1 0.8-2.1 2.4-0.7 3.3-0.2 2.4-1.7 6.3-2.6 1.5-1.5 0-1.8 2.1-0.6 4.2-0.3 12.6 11.9z" id="SVN241" name="Vransko" data-id="SVN241" data-name="Vransko">
 </path>
 <path d="M564.8 456.1l-3 11-2.1 1.9-1.1 0.5-1.6 0-0.5 0.6 0.5 3-0.6 3.1-1.8 4-1.1 1.6-2.5 0.7-1.6 2.3-3.2 1.9-10.6-8-1.2-1.1-3.7-6.7 0.2-9.2 1.8-2.7 2.2-2.6 3.2-2.4 4.4-1 2.7-0.8 1.8-2 1.7-3 1.1-0.8 1.4-0.1 1.1 1.4 2.1 1.5 1.6 1.9 1.9 1.2 1.6 1.5 5.3 2.3z" id="SVN242" name="Mirna Pec" data-id="SVN242" data-name="Mirna Pec">
 </path>
 <path d="M551.9 281.7l6.2 6.2 4.5 2.5 1.7 2.1-1.7 0.8-0.7 1.3-0.4 2.2-0.1 7-0.5 3.9-0.5 1.5-1.8 2.2-2.2 1.1-2.3 0.2-10.6 1.4-10.3-4.1 2.1-6.5 0.3-1.8-0.5-6.7 4.9-2 9-12.5 2.9 1.2z" id="SVN243" name="Prebold" data-id="SVN243" data-name="Prebold">
 </path>
 <path d="M557.8 253.3l-0.4 10.7-1 2.8-2.4 4.8-1 2.6 0.8 2.5-1.9 5-2.9-1.2-13.8-22.7 2.1-3.4 0.5-4.7 0.2-5.6 2-6.7 4.7 2.4 1.9 3 4.8 3.3 2.5 4.4 3.9 2.8z" id="SVN244" name="Polzela" data-id="SVN244" data-name="Polzela">
 </path>
 <path d="M511.7 629.2l-4.6-0.6-5.5-5.2-7.2-4.7-5.8 0.3-1.1 9.6-6.1 10.5-13.5 4.9-13.2-2.8-5-12.6-0.1-0.1-29.4-13-6.3-5.4-0.1-2.3 1.1-8-0.6-3.5-1.9-2.6 5.3-2.7 13.7-9.4 2 9.6 1.1 1.8-0.1 2.1-0.5 0.8 0.4 1.7 2 3.6 5.4 3.9 12.5 11.8 6.8 8 4.4 0.7 1.4-0.9 1-1.2 1.5-4.2 0.8-3 0.8-1.7 3.1-2.6 2-0.6 1.8 0.4 4.8 2.8 5.2 1.2 3.8-0.3 5.1-1.5 2.5-0.4 1.9 0.4 6.8 6.3 3.8 8.9z" id="SVN245" name="Kostel" data-id="SVN245" data-name="Kostel">
 </path>
 <path d="M535.2 257.8l13.8 22.7-9 12.5-4.9 2-1.8-5.4-0.9-2-3.8-5.1-6.5-2.1-12.6-11.9 0.1-8.8 4.5-4.2 1.2-2.2 0.5-2.6 3.1-4.8 2.7-1.9 9.1 5.9 4.5 7.9z" id="SVN247" name="Braslovce" data-id="SVN247" data-name="Braslovce">
 </path>
 <path d="M406.9 531.5l-3.7-5.9-1.6-1.9-3.2-1.9-6.5-0.3-7.3-2.7-2-7.6 0-3.3-1.2-3.3-4-6.6 3.5-4 7.2-1.6 4 3.6 3 1.7 4.5 1.1 6.5 2.2 6.1 1.2 3.8 2 0.9 3.6-0.2 4.1-4.3 12.5-2 3.9-3.5 3.2z" id="SVN248" name="Sodražica" data-id="SVN248" data-name="Sodražica">
 </path>
 <path d="M537.3 498.1l1.5 5.7 4.2 6.4 1.1 2.4 0.4 2.2 10.6 11.7 2.2 3.1 0.9 2.2-0.7 2-1.1 1.7-4 2.7-0.9 3.7-5.8-0.8-3.7 1.8-2.9 3.1-5.9 8.3-1.3 2.6-1.1 9.1-4.1-7.3-1.4-7.9-6.4-7.7-6-6.7-1.4-2.8-1.5-4 2.6-13.5 1.1-3.5-0.5-7.8 4.6-6.1 2.3-1.2 3.6-1.1 5.8 1.6 7.8 0.1z" id="SVN249" name="Dolenjske Toplice" data-id="SVN249" data-name="Dolenjske Toplice">
 </path>
 <path d="M310.5 392l-8.4 2.2-2.2 0.9-8.1 1.5-1.8 0.9-0.4 1.5 0.2 1.3-0.9 0.8-2.1-0.2-6.9-3.2-1.6-1.8-0.5-1.6 2.4-1.9-0.8-3.3-0.2-5.1 2.9-3.8 1.5-0.7 8-1.9 12.9 1.3 2.4 0.9 2 1.4 1.9 3.9 0.4 3.3-0.7 3.6z" id="SVN250" name="Horjul" data-id="SVN250" data-name="Horjul">
 </path>
 <path d="M415.2 187.7l1 2.5 14.7 2.9 3.6 2.6 6.7 9.6-4.6 6.6-0.1 3.9 1 2.6-1.7 1.8-3.5 2.6-18.1 8.6-9.4-0.8-9.5 2-4.5 0.3-8.5-3.4-1.8-9.6-0.3-0.9 1.5-4 2.7-8.9 4.7-6.8 3-1.2 6.9-0.6 3.2-1 3.3-2.1 6.4-6.7 1.4-0.4 1.9 0.4z" id="SVN251" name="Solcava" data-id="SVN251" data-name="Solcava">
 </path>
 <path d="M640.2 348.9l-3.8-12.6 10.3-7.5 2.7 0.1 0.5 1.3 2.7 3.6 1.2 1.1 2.9 1.8 1.2 1.5 0.5 1.4-0.9 4.1-0.6 0.7-1.2-0.1-1.5-0.9-2.2-2.4-1 0.3-0.9 2.2-2.6 2.2-2.4 2.6-2.6 1-2.3-0.4z" id="SVN252" name="Dobje" data-id="SVN252" data-name="Dobje">
 </path>
 <path d="M440.3 451.6l5.1 7.5-0.2 1.3-2.2 5.9-0.5 6.2 1.7 2.5 2.2 4 3.4 3.6 0.9 3.1 6.3 4.9-0.6 7.8 0.4 2.3 3.1 8-5.7 6.6-34.2-34-5.9-8.8-5.5-4.2-2.1-0.9-2-0.4-0.6-2.1 1-4 0-5.5 6.2-3.8 1.5-2.5 2.3-0.7 2 0.7 2.1 1.3 12.2 4.3 2.6 0 6.5-3.1z" id="SVN253" name="Dobrepolje" data-id="SVN253" data-name="Dobrepolje">
 </path>
 <path d="M380.9 494l-3.5 4 4 6.6 1.2 3.3 0 3.3 2 7.6-6.5 0.3-1.7-1.6-4 1.8-2.5 1.9-1.4 0.6-5.4-1-9.4-7.6 4.4-3.6-1.8-3.8-1.7-0.7-5.7-4.5-5.3-6.3-1.4-2.9 0-2.2 1.3-2.9 1.4-2.2 2-2.5 8.4-7.1 3-1.2 3.8-2.4 7.8 12.7 11 10.4z" id="SVN254" name="Bloke" data-id="SVN254" data-name="Bloke">
 </path>
 <path d="M738.4 379.4l-2.6 0.7-5.3 6.2-1.4-2.6-7.9-0.1-2.3-0.8-2.2-1.7-1.5-1.4-3.8-11.4 5.1-4.8 2.5 2.6 3.9 2.3 8.8 3.8 3.9 2.8 2.8 4.4z" id="SVN255" name="Podcetrtek" data-id="SVN255" data-name="Podcetrtek">
 </path>
 <path d="M723.9 125.8l10.4 0.6 6.1 6.1 6.8 4.7 7.7 0.4 3.1-2.2 2.9 3.8 0.6 1.7 1.1 0.9-4.9 5.7-4.9 6.6-4.8 2.6-1 2.7 1.4 3.5 2.3 4.1-11.1-3.4-27.9-2.1-14.2 3.1-4.2-3.7 3.2-20.4-3.8-4.6 0-3-0.5-4.3-1.6-2.2-3.1-1.8-1.3-1.9-1.1-2.6 0.1-3.4-1.5-6.2-2-2.4 1.2-2.7 0.9-4.4 5.2 5.3 10.7 2.9 6.4-0.1 2.4 1 2.2 2.8 2.7 1.7 4.3 4 1.1 3.3 5.1 3.9z" id="SVN256" name="Maribor" data-id="SVN256" data-name="Maribor">
 </path>
 <path d="M621.2 164.3l-3.4 8.3-17-1.4-6.4 0.4-4.9-1-8.6-6.5-2.2-2.9 3.4-5.5 3.1-2.9 0.4-3.6 1.4-1.9 1.7-1.6 15.9-10 7.3 7.2 2.7 4.8 4.9 2.8 1 1.4-1 2.5-0.1 2.1 1.8 7.8z" id="SVN257" name="Ribnica na Pohorju" data-id="SVN257" data-name="Ribnica na Pohorju">
 </path>
 <path d="M249 196.6l-3.3 2.9-2.6 4.1-0.5 8.4-8.3 1.5-1.6-0.4-4.7-2.2-2.8-2.4-25.5-13.9 2.3-3.8 1.6-1.1 2.4-2.4 0.6-3.9 0.2-6.2 5.6-1 5.5 0.1 5.2 1.6 4.7 2.3 17.8 15.5 3.4 0.9z" id="SVN258" name="Jesenice" data-id="SVN258" data-name="Jesenice">
 </path>
 <path d="M278.9 197.6l-1.3 6-4.8 1.6-2.7 2.2-4.6 6-1.7 4.7-1.3 3.1-3.3 2.3-3.7 0.4-2.9-0.3-7 4.4-5.2-9.5 2.2-6.5 0.5-8.4 2.6-4.1 3.3-2.9 0.6 0.2 29.3 0.8z" id="SVN259" name="Žirovnica" data-id="SVN259" data-name="Žirovnica">
 </path>
 <path d="M159.6 395.2l-4.3 2.2-2.6 4 0 4.4-14.3 10.4-7.8 13.2-6.7 8-2.1 0.8-4.4 3.1 0.4 1.2 1.6 0.6 2.6 1.6 2.5 3.2 4.4 2.7 5.7 5.8 2.5 3.5 1 1.1 0.9 1.8 1.3 1.2 5 2.8 0.8 1.1 3.4 5.4-7-3-3.4 0.5-6.8 0-5.5-1.6-16.8-9.3-9.5-1.6-4.4 0.2-8.3-2.9-3.2-2.1-2.8-3.2 0.1-1.4 1.6-0.9 4.4-0.7 2.3-2.1 6.3-5.8 3.3-1.2 1.7 0.4 1.2-1.6 0.3-3.2-0.3-1.6-2.2 0-2.2-1.6-3.8-0.3-1.5-0.9-2.9-2.8-2.3-1.2-2-0.5-5.6-1.9 2.4-9.3-5.4-8.7-1.6 0.4 3.3-3 4.8-2.5-7.1-7.4 3.6 0.5 3.2 2.4 2.3 2.3 1.3 0.1 1.2-0.4 1-1.2-1.7-2.7-4.3-5.9 0.2-1.7 2.4-1.7 7-10.8 3.7-3.1 4.7-2.5 7.5 0.5 8.5 3.6 2.4-0.1 3.8-2.9 2.9-5.1 1.9-2.8 0.7-9 3.7-3.4 3.9 0.2 2.2 2.2 2.6 10.2-0.3 3.2 0.2 5.5 1.1 5.6 2.9 6.4 3.3 5 2.4 2.7 8.7 5.6z" id="SVN260" name="Nova Goriška" data-id="SVN260" data-name="Nova Goriška">
 </path>
 <path d="M90.2 445.2l-10.5-3.1-4.5-3.8 2.8-6.4 2.2-8.9 5.6 1.9 2 0.5 2.3 1.2 2.9 2.8 1.5 0.9 3.8 0.3 2.2 1.6 2.2 0 0.3 1.6-0.3 3.2-1.2 1.6-1.7-0.4-3.3 1.2-6.3 5.8z" id="SVN261" name="Šempeter-Vrtojba" data-id="SVN261" data-name="Šempeter-Vrtojba">
 </path>
 <path d="M939.8 130.5l1.9 2.9 1.1 6.4-1.1 3.3-1.8 3.6 1.9 1.7 1.7 0.6-3.2 3.8-6.1 2.1-5.9-1.7-3.3-5.8-2.2 1.3-2.2 2.1-4.4-3.5-2-2.9 5.8-7.1 4.3-3.4 2.4-0.8 4-5.2 0.3-3.6 8.8 6.2z" id="SVN263" name="Črenšovci" data-id="SVN263" data-name="Črenšovci">
 </path>
 <path d="M943.5 149l-1.7-0.6-1.9-1.7 1.8-3.6 3.1-0.1 2-0.4 5.4-2.4 4.9-3.3 2.1-2.2 2.5-1.6-6.1-9.9-9.6-7.2 6-8.7 1.7-1 1.3 3.3 5.8 4.7 11.3 6.7 11.6 18.4 10.7 9.1 4.6 19.9-7.7-6.2-3.1-1.8-3.3-0.6-6.9 0.9-2.7-0.3-2.7-1.9-5.3-5.7-2.8-1.8-3.6-0.3-4.1 0.3-4-0.5-3.7-3-1.9 3.5-2.4-3.5-1.3 1.5z" id="SVN264" name="Lendava" data-id="SVN264" data-name="Lendava">
 </path>
 <path d="M914.2 144.4l2 2.9 4.4 3.5 2.2-2.1 2.2-1.3 3.3 5.8 5.9 1.7-2.9 1.8-7.6-3.1-5.7 6.7 0.4 2.6-8.2 9.3-0.3 3.9-2.2 1.7-1.7 2.7-1.6 0.4-2-0.8-1.2 1.3-1.5 0-3.2-4.9-2.7-2.4-4-3-4.8 1.2-0.9 1.6-1.6 0.6-3.5-0.4-7.2-3-14.6-2.7-5.1-2.1-9.9-2.3 2-4.8 0.5-3.1-0.4-1.2 0.4-1.1 1.9-2.7 3.6-2.8 10.2 1.6 6.3 1.3 7.8 4.6 6.5 1.5 3.6 0.2 3.7-1.1 2.5-2.4 0.7-4.1 0.9-3.8-1.6-1.8 0.9-2.8 4.4-2.9 3.6-0.1 0.7-0.6 4-7.5 9.8 14z" id="SVN265" name="Ljutomer" data-id="SVN265" data-name="Ljutomer">
 </path>
 <path d="M886.7 120.4l-3.4 2.1-4.3-0.9 0.5 4.7 1.9 3.7 3.6 3.1 0.9 4.5 5.8 3.9-0.9 2.8 1.6 1.8-0.9 3.8-0.7 4.1-2.5 2.4-3.7 1.1-3.6-0.2-6.5-1.5-7.8-4.6-6.3-1.3 3.6-10.3 0.4-2.5-3.5-10.9 5.1-6.6 5.2-0.2-2.1-4.3 1.6-3 3.2 2.2 12.8 6.1z" id="SVN266" name="Križevci" data-id="SVN266" data-name="Križevci">
 </path>
 <path d="M904.4 130.4l-4 7.5-0.7 0.6-3.6 0.1-4.4 2.9-5.8-3.9-0.9-4.5-3.6-3.1-1.9-3.7-0.5-4.7 4.3 0.9 3.4-2.1 13.5 6.4 4.2 3.6z" id="SVN267" name="Veržej" data-id="SVN267" data-name="Veržej">
 </path>
 <path d="M838.1 157.9l-7.7 2.4-3.7 2.4-2.9 1.4-2.4 2.3-1.6 2-0.8 6.7-5.9-7.8 1.8-6.8-0.6-3.9-0.6-1.2-2-2.1 1.4-3.4 5.3 2.7 0.7 1.2 2.1 0.2 1.6-0.2 8.7-6.1 6.6 10.2z" id="SVN268" name="Sveti Andraž v Slovenskih Goricah" data-id="SVN268" data-name="Sveti Andraž v Slovenskih Goricah">
 </path>
 <path d="M931.3 156.7l-2 1.2-9.9 3.9-1 1.1-0.4-2.6 5.7-6.7 7.6 3.1z" id="SVN269" name="Razkrižje" data-id="SVN269" data-name="Razkrižje">
 </path>
 <path d="M955.6 123.2l6.1 9.9-2.5 1.6-2.1 2.2-4.9 3.3-5.4 2.4-2 0.4-3.1 0.1 1.1-3.3-1.1-6.4-1.9-2.9 2.1-4.6 0.2-1.5 1.5-1 2.7-0.6 4.7 1.5 4.6-1.1z" id="SVN270" name="Velika Polana" data-id="SVN270" data-name="Velika Polana">
 </path>
 <path d="M948.6 84l2.4 4.5 3 2.2 6.1 2.7 3.2 0.5-1.9 1.9-6 2.9-2.9 4.5 1.2 3.1-1.7 1-6 8.7-10.7-13.8 1-7.2 3.2-7.1 2.1-3.5 2.1-2.4 4.9 2z" id="SVN271" name="Dobrovnik" data-id="SVN271" data-name="Dobrovnik">
 </path>
 <path d="M830.4 207.5l1.5 6.5 0.3 4 2.5 5.8 0.5 3.8-3 3.3-1 0.7-2.6 0.9-2.6 0.2-5.7-1.8-2.8-1.7-2.3-6.4-2.1-1.6-7.8-3.1 10-6.3 2.3-3.2 0.1-2.9 12.7 1.8z" id="SVN272" name="Markovci" data-id="SVN272" data-name="Markovci">
 </path>
 <path d="M825.5 79.4l-6.6 9.3-4.7 4.3-6.6 0.7-7.2 0.4-3.7-2.6-5.7-1.5-10-6.8-2.8-4.5-4.4-1.7-5.7-4.7-0.6-1 12.1-5 8.9-0.7 8.8 1.7 21.4 10.9 6.8 1.2z" id="SVN5884" name="Apace" data-id="SVN5884" data-name="Apace">
 </path>
 <path d="M504.5 409.7l-4.7 4.1-3.9 1.4-6.9-4.5-8.9-13.3-1.9-1.4-1.8-0.6-0.7 1-0.2 1.6-2.2 0.4-4.1-0.3-10.2-3.3-9.3-0.3-2 1-0.8 0.8-7.3 0.7-0.6-9 1.1-2.5-0.8-2.8-1.6-2.7-1.9-2.1-2-2.7 0.6-1.4 0-2 0.9-3.4 5-0.3 17.1 3 12.2-6.1 6.8 1.4 7.5 7.1 7.4 9.8 7.3 6.7 4.5 11.1 1.4 8.6z" id="SVN5885" name="Šmartno in Litiji" data-id="SVN5885" data-name="Šmartno in Litiji">
 </path>
 <path d="M853.3 51l0.8 9.5-0.5 3-1 4.2 1.9 4.9 2.3 2.3 2.7 1.4 2.9 0.8 2.6 2.1 5.1 2.1-1.7 6.3 0.4 2.4 1.3 4.7 1.8 2.3 1.4 2.7 1.4 3.1-0.8 3.2-3.2 6.1-13.7-9.5-8-8.5-4.4-1.1-3.6-2.6-0.6-10.6-3.6-7.2-6.8-4.3-3.6-11.3-0.3-8.1 0.4-6.7 5.4-0.4 5.4 0.9 0.7 1.7 3.6 4 2 1.2 9.7 1.4z" id="SVN926" name="Cankova" data-id="SVN926" data-name="Cankova">
 </path>
 <path d="M841 90.4l3.6 2.6 4.4 1.1-10.8 13.8-0.3 5.3 2.2 12.8-11.2 3.5-7.1-1-7.2-3.8-5.4-6.6-0.8-3.6-0.1-2.5 4.8-4.4 0.8-2.2-2.6-1.1-1.4 0.3-2.9 0.1-6.7-2.8 0.1-7.8 7.2-0.4 6.6-0.7 4.7-4.3 6.6-9.3 6.1 1.1 3.5 2.4 5.9 7.5z" id="SVN927" name="Gornja Radgona" data-id="SVN927" data-name="Gornja Radgona">
 </path>
 <path d="M917.4 39.9l-5.4 8.2-2.7 2.4-2.7 4.7-1.8 1.2-2.3-0.3-4.3-5.7-1.2-2.3 3.3-9.1-0.6-3.9-1.3-1.5-2.1-1.1-2.4-0.7-6.1-6-1.1-3.5-2-2-1.4-2-4.3-1.3-3.6-1.7-0.7-4.8 2.3-6.1 1.6 0.4 14-1.3 15.3 11.2 5.3 3.1 4.5 4.5 2.1 3.9 0.4 3.5-1.1 4.9-0.9 1.7-0.8 3.6z" id="SVN928" name="Gornji Petrovci" data-id="SVN928" data-name="Gornji Petrovci">
 </path>
 <path d="M902.5 56.1l-6.5 8.2-1.9 0.1-2.7 3.9 1 9.7-8.7 3.5-2.2-0.8-11.4 0.6-5.1-2.1-2.6-2.1-2.9-0.8-2.7-1.4-2.3-2.3-1.9-4.9 1-4.2 0.5-3-0.8-9.5 2.6-3.8 6-0.3 2.8 0.5 1.9 0.8 2.5-0.8 2.1-1.7 4.7-9.3 3.1-19.4 4.3 1.3 1.4 2 2 2 1.1 3.5 6.1 6 2.4 0.7 2.1 1.1 1.3 1.5 0.6 3.9-3.3 9.1 1.2 2.3 4.3 5.7z" id="SVN929" name="Puconci" data-id="SVN929" data-name="Puconci">
 </path>
 <path d="M870.7 112.1l-1.6 3 2.1 4.3-5.2 0.2-5.1 6.6-2.3 2.4-0.8 0.3-1.1-1.6-1.6-5.2-1.7-1.7-2.2-0.2-3.8 4.5-3 3.2-4.3-1.9-2.2-12.8 0.3-5.3 10.8-13.8 8 8.5 13.7 9.5z" id="SVN930" name="Radenci" data-id="SVN930" data-name="Radenci">
 </path>
 <path d="M853.5 23.2l-1.4 18.7 0.2 2.6 3.6 2.7-2.6 3.8-9.7-1.4-2-1.2-3.6-4-0.7-1.7-5.4-0.9-5.4 0.4 0.1-1.4 2.2-14.4-0.2-3.3-1.4-1-0.3-1 3-3.3 1.9-1.1 14.1-3.5 6.6-3.9 1 13.9z" id="SVN931" name="Rogašovci" data-id="SVN931" data-name="Rogašovci">
 </path>
 <path d="M334.4 457.2l-3.6 1.6-2 2.8-2.2 0.4-2.6-2.1-2.7-3-3.9-4.9-2-3.1-6.4-16.6-1-4-0.2-4.1 1.3-5.2 2-2.9 6.8-2 1.4 6.2 4.5 5.7 2.5 2.6 3 2 1.7 0 1.9 1.4 0.6 1.6-1 5.9-0.5 4.9-1 3.4 3.4 9.4z" id="SVN937" name="Borovnica" data-id="SVN937" data-name="Borovnica">
 </path>
 <path d="M693.1 478.7l-1.6-3-7-10.3-1.5-3.5-1.6-2.9-1-3.3 0.1-3.6 1.7-5.4 4.7-3 3.7-1.3 1.4 0 1.3-1.2 1.9-1 0.8-3.9 2.5-1.5 1-2.8 0.7-4.8-0.3-16.2 3.9-9.9 4.5-0.2 8.3-4.2 13.9-10.4 5.3-6.2 2.6-0.7 1.7 2.4-1.4 4.8-3.7 5.6-2.5 9.3 0.9 23.4-0.4 7.6-1.7 5.7-2.2 5.4-1.3 5.4 1.4 5.8 3.7 9.2 0.2 6.5-3.2 4.5-6.4 3.5-6.2 1.8-12.3 0.4-11.9-2z" id="SVN938" name="Brežice" data-id="SVN938" data-name="Brežice">
 </path>
 <path d="M703.8 401.1l-4.7-1.7-1.3-1-0.2-2.2-1.4-5.7 2.5-0.2 1.4-0.6 1.9-0.2 2.3-0.7 4.5-0.6 1.4 1.8-6.4 11.1z" id="SVN939" name="Krsko" data-id="SVN939" data-name="Krsko">
 </path>
 <path d="M338 385.1l4.5 6 3.9 2.9 0.7 1.9-1.8 2.6-2.8 2.6-2.3 3.3-0.1 3.1 3 2.7 4.5 11.8-0.1 5 1.6 7.6 0.9 6.6 7.4 11.5-15.2 7.9-2 0.2-5.8-3.6-3.4-9.4 1-3.4 0.5-4.9 1-5.9-0.6-1.6-1.9-1.4-1.7 0-3-2-2.5-2.6-4.5-5.7-1.4-6.2 3.1-6.8-1-6.2 2.1-3.9 2.3-2.5 3.6-1.3 0.5-3.9-0.7-2.1-3.6-3.8 6.9-1.6 1.7 0.4 5.2 2.7z" id="SVN940" name="Brezovica" data-id="SVN940" data-name="Brezovica">
 </path>
 <path d="M632.5 279.2l-0.7 4.4-1.5 1.9-2.5 2.3-1.3 5.8-2.3-0.3-3.3 1.5-2.5 1.7-1.8 2.1 0 8.6 0.5 2.6-2.7 2.2-11.6-2.2-2.3-1.6-2.8-0.1-6.2 2.5-3.4-0.5-0.6-2.4 2.4-17.3-0.4-3.6-1.2-7.4 0.5-1.5-0.8-3.1 0.4-1.8 1-3.2 1.2-2 0-14.7 4.4-1.4 9.5 6 5.4 8.4 1.5 4.1 3.1 2.9 1.3 0.8 1.7-0.2 1.1-0.6 2.1 0.2 1.4 0.6 10.4 5.3z" id="SVN941" name="Celje" data-id="SVN941" data-name="Celje">
 </path>
 <path d="M377.2 287.1l-16.5 18.5-12-1.5-5.8-7.8-0.4-4.4-0.3-10.3 0.5-5.4 1.7-4.2 1.1-0.9 1-1.6 1.3-1.3 2.3-3.3 5.3-2.1 5.4-0.2 4.6-1.4 9.1-5.6-0.1 6.1 2.1 4.3 0.9 4.9 1.7 1.9 3.6 6-0.5 3.6-1.4 2.9-3.6 1.8z" id="SVN942" name="Cerklje na Gorenjskem" data-id="SVN942" data-name="Cerklje na Gorenjskem">
 </path>
 <path d="M321.3 456.9l2.7 3 2.6 2.1 2.2-0.4 2-2.8 3.6-1.6 5.8 3.6 2-0.2 15.2-7.9 2.5 4.7-0.6 3.8 0.3 4.7 2.5 5-3.8 2.4-3 1.2-8.4 7.1-2 2.5-1.4 2.2-1.3 2.9 0 2.2 1.4 2.9 5.3 6.3 5.7 4.5 1.7 0.7 1.8 3.8-4.4 3.6-21.5 17.1-7.8 1.2-18.5-14.7-1.4-6.5-7.6-1.4-3.7-2.6-5.7-6.1-3.6-6.5 0.4-4.9 6.3-16.3-0.9-4 7.2-18.1 3.2-2.5 5.2 1.8 12.4 9.1 3.6-1.9z" id="SVN943" name="Cerknica" data-id="SVN943" data-name="Cerknica">
 </path>
 <path d="M487.1 167.1l7.8-0.1 5.2 5.7 0.9 0.7 7 0.6-2.9 13.6-0.2 5.8-4.4 3.4-15.9 7.5-27.7-0.7-9.1-3.1-1.8 0.3-4.8 4.5-6.7-9.6-3.6-2.6-14.7-2.9-1-2.5 2.3 0.4 2.3-5.7 3.7-4.5 1.6-3.1 1.9-2.2 5.2-2.4 2.8 2 8.2-1.3 7-3.2 1.7-1.6 2.6-5.9 5.2 1 5.8 1.7 6.4 5.2 6.9 2.3 4.1 0.4 2.7-0.6 1.5-3.1z" id="SVN944" name="Črna na Koroškem" data-id="SVN944" data-name="Črna na Koroškem">
 </path>
 <path d="M590.2 576.5l-0.4 3.7 4.9 1.7 3.1-0.9 1.3 0.7-0.1 1.1 1 2.3 1.7 3.1 3 2.8 3 1.4 0.6 0.7 0.2 0.4 1.9 11.8 2.5 9.8 4.6 7.7 15.9 10.8-3 2.7-5.7 7.9-2.8 2.6-3.5 1.1-10.3-0.2-30.8 11.4-14.3-2-23.1-19.8 2.7-6.8 3.8-4.6 1.9-1.5 3.5-1.8 4.5-1.1 1-1.3-0.1-2.2-2.5-1.7-3.6 0.4-3.5 1.3-3.4 0.9-2.1-1.1-1.1-2.6 1.1-5.2 2.8-3.7 2.6-1.8 2.2 0.7 1.1-0.6 0-2-3.7-3.6-1.7-2.3 0-5-1.4-4.2 0.3-2.7-2.1-5.5 10.1 3.4 8.8-0.8 2.6-0.9 1.5-1.1 1.5-2.6 1.6-1.8 5.7-3.2 4.7 0.2 5.7 1.1 5.8 2.9z" id="SVN945" name="Crnomelj" data-id="SVN945" data-name="Crnomelj">
 </path>
 <path d="M419.8 344.8l5.2 2.6 3.9 0.7 1.8 1.7 1.5 2.7 2.7 0.6 6.1-0.5-1.3 3.2-1.7 1.2-10.2 5.1-6.4 0.7-2.6-1.8-1.9-0.4-6.5 2.2-7.7 0.5-5.6-1.5-6.2-3.8-0.5-3.8 7.3-0.8 3.7-1.7 7.6-5 4.2-2.1 6.6 0.2z" id="SVN946" name="Dol pri Ljubljani" data-id="SVN946" data-name="Dol pri Ljubljani">
 </path>
 <path d="M546.1 101l1 6.2 1.5 4.1 3.5 6.4 6.7 4.8-4.4 1.2-1.1 1.7-1.5 3.8 0.7 3.5-0.8 4.2-10.3 9.1-0.6 2.1-1.5 1.6-1.3 0.3-3.6-1.4-4 1.4-2.6 1.6-1.1 0-4.5-5.7 1.2-4-2.1-4.5-3.1-1.9-5-4.1-3.5-4.5-1.5-2.4-1.9-1.3-5.3-0.5-7.4-5.9-0.2-0.7 4.5-2.8 4.5 0.9 6.1 8.8 11.8-16.9 18.2-5.9 7.6 0.8z" id="SVN947" name="Dravograd" data-id="SVN947" data-name="Dravograd">
 </path>
 <path d="M777.5 170.4l-3.1 5.5-3.7 2.5-4.2 5.6-7.9-8.3-1.9-1-2.6-0.9-1.4-1.7-1.5-4.4-0.5-0.7-2.3-4.1-1.4-3.5 1-2.7 4.8-2.6 4.9-6.6 4.9 0 2-0.4 1.7 0.4 1.3 1 0.9 1.4 0.3 1.9 0.7 1.4 5.8 4.3 1.9 2.4 0.8 2.4-1.1 1.3-1.2 2.7 1.8 4.1z" id="SVN948" name="Duplek" data-id="SVN948" data-name="Duplek">
 </path>
 <path d="M476.8 254l3.2 6.6-1.7 5.9-3.1 4.2-1.4 4.7-0.9 7.3-13.8-0.7-7.1 0.6-11.3-0.6-12.4-4-3.2-3 0.6-7.9 8.1-10.9 15.7-12.8 5.3-2.2 1 1.1 3.1 1.8 11.9 9.6 6 0.3z" id="SVN949" name="Gornji Grad" data-id="SVN949" data-name="Gornji Grad">
 </path>
 <path d="M436.6 399.2l-2.2 7.3-5 7.5-0.8 6 1.1 0.2 3.3 1.3 1.4 1 0.2 1.1-0.5 1.6 1.4 6.4 4.3 8.8-0.1 2.1-0.8 2.8 0 2.1 1.4 4.2-6.5 3.1-2.6 0-12.2-4.3-2.1-1.3-2-0.7-2.3 0.7-1.5 2.5-6.2 3.8-4.5-5.2-1.4-3.8-6.5-6.5-3-9.1 1.2-14.4-0.2-3.8-1.2-5.2 2.1-3.5 2-1.8 0.9 0.1 3-2.3 4.6 3.4 9.5-0.3 5.1-2.9 1.9-1.9 1.2-2.2 4.7-2.6 2.7-0.1 1.7 0.8 3 2.5 4.9 2.6z" id="SVN950" name="Grosuplje" data-id="SVN950" data-name="Grosuplje">
 </path>
 <path d="M570.7 356.1l-11.1 3-7-3.5-2.3-4.4-0.5-1.9-3-2.9-2.2-1-1.1-1.5-2-3.5-0.9-1.1-1.1-3.3 0.2-2.3 1.6-3.8 4.2-7.2 5.7-3.8 3.6-4.4 5.6 7.4 1.2 2.7 7.8 5.8 3.9 4.8 2.7 4.2 2.6 5.9 0 2.4-1.1 1.6-3.7 2.4-3.8-1.4-3.9-2.2-1.2 0.2-0.9 1.5 0.4 2.2 2.1 2.1 4.2 2z" id="SVN951" name="Hrastnik" data-id="SVN951" data-name="Hrastnik">
 </path>
 <path d="M533.2 310l10.3 4.1 10.6-1.4 0.7 1.8-3.6 4.4-5.7 3.8-4.2 7.2-1.6 3.8-0.2 2.3 1.1 3.3 0.9 1.1 2 3.5 1.1 1.5 2.2 1 3 2.9 0.5 1.9 2.3 4.4-1.4 5.6-1.4 0.9-3.1 0.8 0.4 4.5-5.5 1.4-14.2 4.7-3.1 0.4-4.6-1.3-0.3-2.4-1.5-2.9-1.1-6.1-0.1-1.8 1.5-1.4 1.3-2.3 0.9-2.5-1.5-9.2 3.7 1.1 1 0 2.3-1.2 2.9-3.1 0-2.4-1.3-4.1-4.3-7.2-4.6-5.5-1.2-0.3-2.3 1-0.5-1.1 2-2 3.7-1.8 2.7-2.3-4.1-7.7 5.8 3.6 8.5-1z" id="SVN952" name="Trbovlje" data-id="SVN952" data-name="Trbovlje">
 </path>
 <path d="M371.1 402.8l6.5 8.2 1.9 7.8 0.5 5.3-1.5 10.2 2.2 2.8 0.4 2.1-0.2 2.6 0.7 1.2 5.9 2.6 0.4 6.4-1.6 3.6-3.6 3.1-2.6 0.1-2.2-0.2-1.6-1.2-2.3-1-3.8-2.8-7.2-2.6-5.6 1.7-7.4-11.5-0.9-6.6-1.6-7.6 0.1-5-4.5-11.8 9.3-4.1 1.9-4 7.1-2.7 3.3-0.1 6.4 3.5z" id="SVN953" name="Ig" data-id="SVN953" data-name="Ig">
 </path>
 <path d="M337.1 560.3l-1.1 9.1-0.2 3.2 1.9 3.7 4.2 3.9 0.8 2.5-0.1 3.1-1.7 2.1 0.3 1.1 3.3 0.4 3.5-0.2 2.4 0.6 1.9-0.7 2.1 0.3 2.4-0.2 1 0.5-1.3 10.2-1.6 6.4-4.2 7.6-12.4 9.2-5.9 5.5-12.2 6.9-14.6 1.3-14.7-2.8-12.6-5.5-6.9-1.7-8.1 2.4-15.1 7-8.2 1.5-0.9 0 0.4-3 0.1-5.5-2-4.3-1.4-1.6-5.8-4.7-0.7-1.3 2.3-5.9 2.6-8.7 1-7.1-2-1.2-1.8 0.6-1-1.3-0.3-2 1.3-5.4 1.7-3.4 1-3.3 0.7-1.5-4.6-4.3 0.2-4.6 3.9 0.7 2.3-1.5 5.5-1.9 7.7-0.5 13.4 0.8 6.8-0.8 3.5-0.9 3.6-3.3 2.7-1.6 12.4-4.9 9.9-2 3.6-2 0.8-1.7-0.7-1.4 1.3-0.6 4.6-0.1 6.9 5.7 3 3.5 15.1 3.6z" id="SVN954" name="Ilirska Bistrica" data-id="SVN954" data-name="Ilirska Bistrica">
 </path>
 <path d="M495.9 415.2l-5.9 6.3-6.3 3.6-2.2 4-1 3.5-1.5 11.9-1.7 5.2 0.9 4.5 1.8 3.6-0.2 5.7-8.2 1.5-1 1.3 0 2.7 0.9 2.3 1.9 6.8-0.2 7.8-2.1 3.7-3.8 1.7-4-0.9-6.3 0.2-6.3-4.9-0.9-3.1-3.4-3.6-2.2-4-1.7-2.5 0.5-6.2 2.2-5.9 0.2-1.3-5.1-7.5-1.4-4.2 0-2.1 0.8-2.8 0.1-2.1-4.3-8.8-1.4-6.4 0.5-1.6-0.2-1.1-1.4-1-3.3-1.3-1.1-0.2 0.8-6 5-7.5 2.2-7.3 3-2.2 7.3-0.7 0.8-0.8 2-1 9.3 0.3 10.2 3.3 4.1 0.3 2.2-0.4 0.2-1.6 0.7-1 1.8 0.6 1.9 1.4 8.9 13.3 6.9 4.5z" id="SVN955" name="Ivancna Gorica" data-id="SVN955" data-name="Ivancna Gorica">
 </path>
 <path d="M772.5 200.6l9.8 17-2.1 10.6-1.1 2.6-0.8 3.1-5.1 2-5.8-2.9-4.8-1-28-2-0.9-3.5 1.4-2.1 1-3.4-0.6-2.4 0.5-1.9-1.9-1.6-0.6-1 3.2-2.9 14.9-9.1 5.6-1.8 5.6 0.6 4-1.7 5.7 1.4z" id="SVN956" name="Kidricevo" data-id="SVN956" data-name="Kidricevo">
 </path>
 <path d="M711.4 368.3l3.8 11.4 1.5 1.4 2.2 1.7 2.3 0.8 7.9 0.1 1.4 2.6-13.9 10.4-8.3 4.2-4.5 0.2 6.4-11.1-1.4-1.8-4.5 0.6-2.3 0.7-1.9 0.2-1.4 0.6-2.5 0.2-3.5-12.3-3.4-3.9-4.1-3-2.3-0.3-7.9-3.5-1.9-9.2-3.2-6.6 0.6-2.7 1-2.1 2 0.3 1.2 0.7 2.4 0.5 2.6-1.4 3.3-4.2 5.7-4 3.4 3 3.9 0.8 5.3 4.6 2.8 1.6 4.7 10.3-1 1.6-0.3 1.7 1.2 4.4 2.7 1.5z" id="SVN957" name="Kozje" data-id="SVN957" data-name="Kozje">
 </path>
 <path d="M696.2 390.5l1.4 5.7 0.2 2.2 1.3 1 4.7 1.7-3.9 9.9 0.3 16.2-0.7 4.8-1 2.8-2.5 1.5-0.8 3.9-1.9 1-1.3 1.2-1.4 0-3.7 1.3-4.7 3-1.7 5.4-0.1 3.6 1 3.3 1.6 2.9 1.5 3.5 7 10.3 1.6 3-8.3-1.4-3.1 1.5-5.9 4.9-3.1 1.1-3.6-0.6-3.6-1.2-3.6-0.4-3.5 1.6-1.5 4.3 1.3 4.7 0.5 4.4-3.6 2.9-1.8-1.9-7.3-13.7-0.5-6.2-0.9-5.4-0.4-9.9-2.3-8.8-8.6-3.2-3.3-3.7 0.8-3.5 0.3-7.7 2.8-8.4 2.7-7.4 5.7-8.5 11-11.1 1.7-3 0.1-2.9-0.6-2.6-1.7-2.4-1.1-3.6-0.8-3.4 0-3.9 0.9-2.1 0.3-1.6-0.6-6.1 23.5-2 7.9 3.5 2.3 0.3 4.1 3 3.4 3.9 3.5 12.3z" id="SVN958" name="Krško" data-id="SVN958" data-name="Krško">
 </path>
 <path d="M723.5 103.3l5.9 18.1-5.5 4.4-5.1-3.9-1.1-3.3-4.3-4-2.7-1.7-2.2-2.8-2.4-1-6.4 0.1-10.7-2.9-5.2-5.3 0.1-0.8 3.1-6.6 4.9-3.7 6.8-1.8 6.7-0.1 4.8 1.4 4.1-1.2 1.6-1.2 0.2 5.3 7.4 11z" id="SVN959" name="Kungota" data-id="SVN959" data-name="Kungota">
 </path>
 <path d="M614.4 312l0.5 3.1-1.3 2.8-2.5 1.8-0.7 0.9 0.4 1.2 1.2 0.9 5.9-0.3 16.1-6.9 3.7 6.2-0.5 4.4-2 3.9 1.2 6.3 3.8 12.6-1.2 4.8 0.3 3.9-0.8 2.5-2.8 5.3-16.4 1.6-4.5 1.8-3.3 2.6-1.6 0-1-1.3-0.9-4.4-1.4-2.1-2.5-1.6-4.7-1.7-16-0.2-3.1 0.7 0 1.7 2.3 2.7 1.2 2.8-0.9 2.6-12.2-14.5-4.2-2-2.1-2.1-0.4-2.2 0.9-1.5 1.2-0.2 3.9 2.2 3.8 1.4 3.7-2.4 1.1-1.6 0-2.4-2.6-5.9-2.7-4.2-3.9-4.8-7.8-5.8-1.2-2.7-5.6-7.4 20-0.5 8.7-1.7 4-4.6 0.6 2.4 3.4 0.5 6.2-2.5 2.8 0.1 2.3 1.6 11.6 2.2z" id="SVN960" name="Laško" data-id="SVN960" data-name="Laško">
 </path>
 <path d="M518.9 344l1.5 9.2-0.9 2.5-1.3 2.3-1.5 1.4 0.1 1.8 1.1 6.1 1.5 2.9 0.3 2.4 4.6 1.3 3.1-0.4 14.2-4.7 1.1 5.1 1 2.3 5 3.8-0.2 4.3 7.2 12.1-4.4-0.3-1.6-0.9-2.5 0.3-3.2 2.3-7.7-0.4-4.5 0.7-0.9 3-0.4 3.8-1.4 3.7-2.5 3.3-7.7 2.7-5.6-3.7-4.4-1-4.4-0.2-1.4-8.6-4.5-11.1-7.3-6.7-7.4-9.8-7.5-7.1-6.8-1.4-12.2 6.1-17.1-3-5 0.3-3.4-1.8-0.6-1.7-3.5-2.8 10.2-5.1 1.7-1.2 1.3-3.2 16.5-7 9.1-9.8 1.4 3.4 13.5 0.1 2.7 0.7 1.1 1.4 0.1 1.5-0.8 3.6 0.2 2.1 3.5 6 2.5 1.3 2.3-0.5 3.9 0 5.1-1 1.4-0.5 2.5-1.7 2.9-3.5 2.5-1.6 7.5-3.1z" id="SVN961" name="Litija" data-id="SVN961" data-name="Litija">
 </path>
 <path d="M367 337.9l6.1 7.4 9.4 3.8 7.2 1.1 0.7 4 0.5 3.8 6.2 3.8 5.6 1.5 7.7-0.5 6.5-2.2 1.9 0.4 2.6 1.8 6.4-0.7 3.5 2.8 0.6 1.7 3.4 1.8-0.9 3.4 0 2-0.6 1.4 2 2.7 1.9 2.1 1.6 2.7 0.8 2.8-1.1 2.5 0.6 9-3 2.2-4.9-2.6-3-2.5-1.7-0.8-2.7 0.1-4.7 2.6-1.2 2.2-1.9 1.9-5.1 2.9-9.5 0.3-4.6-3.4-9.2-8.6-7.6-1.5-6.7 1.1-2.1 1.5 0.2 4.3-0.8 6.1-6.4-3.5-3.3 0.1-7.1 2.7-1.9 4-9.3 4.1-3-2.7 0.1-3.1 2.3-3.3 2.8-2.6 1.8-2.6-0.7-1.9-3.9-2.9-4.5-6 3.4-2.1 0.4-3.3-0.3-4.3-1.7-4.7-0.7-1.1-2.6-7-1.1-1.3-1.8-0.7-2.1-0.1 7-5.2 1.6-0.6 0.7-0.8-2.1-3.3-1-1.9-1.1-3.1-1.2-0.9 0.6-2.6 1.3-1.5 2-0.9 4.2 0 4.5-2.6 2.8-4.3 2.2 2.1 3.5-0.3 8.4-2.7 2.1 6z" id="SVN962" name="Ljubljana" data-id="SVN962" data-name="Ljubljana">
 </path>
 <path d="M484.6 204.3l2.9 2.8 0.4 10.9-6.5 19 0 6.8-4.6 10.2-6-0.3-11.9-9.6-3.1-1.8-1-1.1-5.3 2.2 8.2-22.9 0.7-4.9-1.1-4.5-0.4-7.5 27.7 0.7z" id="SVN963" name="Ljubno" data-id="SVN963" data-name="Ljubno">
 </path>
 <path d="M262.4 387.1l1.9 7.6 3 0.8 7.6 5.1-0.4 0.9-2.8 1.8-1.3 6.3 0.5 3.4-1.4 2.7-0.6 2.2 1.1 2.1 1.4 0.9 1.5-0.1 2.1 0.9 2.8 2 6.8 6.9 8 10 4.3 9.8-7.2 18.1-17.3-7.6-7-4.4-6.6-1.4-16.8 3.1-1.6-4.6-3.8-10.3-1.5-2.2-1.1-3.5-0.1-3.5 0.4-4 2.2-4.3 2-5.3 0.4-4.6-0.7-2.1-1.4-0.5-0.3-0.9 0.7-1.8 3.1-2.5 2.6-2.7 2.7-3.5 0.4-6.2 10.3-6.6 5-8 1.9 1.4-0.8 4.6z" id="SVN964" name="Logatec" data-id="SVN964" data-name="Logatec">
 </path>
 <path d="M384.6 518.8l7.3 2.7 6.5 0.3 3.2 1.9 1.6 1.9 3.7 5.9 6.6 8.2 2.9 2.8 10 3.5 4 2.6 3.4 1.1 1.2 3.6 0 3.3-1.1 2.3-1.6 4.2-5 4.4 4.1 14.1-13.7 9.4-5.3 2.7-4.3-2.1-10.8-8.7-4.1-4.3-3-5.7-0.2-6.1 0.3-8.3-0.7-7-3.4-2-3.8 1.6-0.3-1.1-3-6.6-0.6-5-6.1-19.1 4-1.8 1.7 1.6 6.5-0.3z" id="SVN965" name="Loški Potok" data-id="SVN965" data-name="Loški Potok">
 </path>
 <path d="M464.6 325.1l-7.6-2.2-10.3-1.5-13.4 2.8-5.9 4.8-8.6 3.6-2.5-3.1-3.7-1.4-1.9-2.5-2.2-1-0.3-1.5 0.6-2.6 3.5-7 6.2-6.2 10.4-1.4 6.1 2.1 4.3 0.8 6.7 0 5.1-1.8 35.8-4 0.9 8.1-2.9 5.3-2.2 0.9-20.8 2.5-0.6 1.4 2.2 1.3 1.1 2.6z" id="SVN966" name="Lukovica" data-id="SVN966" data-name="Lukovica">
 </path>
 <path d="M350.8 332.8l-2.8 4.3-4.5 2.6-4.2 0-2 0.9-1.3 1.5-0.6 2.6 1.2 0.9 1.1 3.1 1 1.9 2.1 3.3-0.7 0.8-1.6 0.6-7 5.2-11.6-3.3-6.8 3.1-3.9-1.7-1.6-1.6-2.5-3.5 1.7-6.9-0.8-2.4 0.9-3.8 2.2-3.5 6.2-5 3.7-0.8 2.7-1.4 2.1-3.6 3.1-1 6.5-4.7-1-2-1.5-7.7 16.5-0.7 3.4 22.8z" id="SVN967" name="Medvode" data-id="SVN967" data-name="Medvode">
 </path>
 <path d="M389.1 311.9l-2.1 5.8 2 13.2-22 7-2.1-6 3.2-2.2 1.2-3 2.9-2.1 0.3-5.8 14.2-11-0.9 2.6 3.3 1.5z" id="SVN968" name="Mengeš" data-id="SVN968" data-name="Mengeš">
 </path>
 <path d="M608.3 593.1l-0.6-0.7-3-1.4-3-2.8-1.7-3.1-1-2.3 0.1-1.1-1.3-0.7-3.1 0.9-4.9-1.7 0.4-3.7 3.6-0.2 1.7-0.9 2.3-1.9 3.1-3.1 0.9-1.8 1.1-3.3 1-1.4 1.2-0.9 2.3-0.2 1.4-2.3 0.2-3-3.1-5.9-3.1-4.5-4.4-3.7-4-8.9-0.6-0.8-2.6-0.1 6.9-5-0.3 0.9 0.6 1.9 2.3 1.2 3.1 3 3.1 6.1 1.7 2.2 2.8 2.1 4.1 1.5 1.3-0.9 0.5-1.8 1.4-1.2 3.8-1.1 1.2-0.6 1 0.9 5.7 6.6 5.2 8.6 1.7 4-6.5 0-4.4 1.5-4 2.1-9.3 3-1.8 3.4-1.2 3.5-2.1 1.9-4 2.1 0.3 3.7 2.3 4.9 1.7 5z" id="SVN969" name="Metlika" data-id="SVN969" data-name="Metlika">
 </path>
 <path d="M487.1 167.1l-1.5 3.1-2.7 0.6-4.1-0.4-6.9-2.3-6.4-5.2-5.8-1.7-5.2-1 3.3-7.6 2.4-7.1 3.5-0.6 6.8 0.2 1.9-0.6 3.2 0.7 1.2 2.2 1.8 0.9 1.7 1.5 0.1 2.2 1.1 3 3.2 3.4 2.2 1.8 1.2 1.3-1 5.6z" id="SVN970" name="Mežica" data-id="SVN970" data-name="Mežica">
 </path>
 <path d="M617.8 172.6l1.1 4.8 0.7 5.7 2.1 3.1 0.8 2.1-0.7 3.3-8.5 0.6-5.3 1.5-2.4 1.6-2.1 2.7-4.1 10.7-6.8 9.9-13.4 1.9-4.6-2.6 0.1-3.8-0.2-3.1-1.7-0.8-2.6-0.8-2.1-0.1-10-4.2 3.6-10.1 3-0.6 1.6-2.1 0.5-4.8 3.5-3.5 7.6-11.1 3-8.8 8.6 6.5 4.9 1 6.4-0.4 17 1.4z" id="SVN971" name="Mislinja" data-id="SVN971" data-name="Mislinja">
 </path>
 <path d="M464.6 325.1l3.8 5.2-0.3 3.4-1.5 2.1-9.1 9.8-16.5 7-6.1 0.5-2.7-0.6-1.5-2.7-1.8-1.7-3.9-0.7-5.2-2.6 0.7-3.8-1.9-1.2-2.6-2.1-0.2-2.8 3-2.3 8.6-3.6 5.9-4.8 13.4-2.8 10.3 1.5 7.6 2.2z" id="SVN972" name="Moravce" data-id="SVN972" data-name="Moravce">
 </path>
 <path d="M518.9 225.6l-0.4 9.8 0.5 2.7 2.6 5.9-2.7 1.9-3.1 4.8-0.5 2.6-1.2 2.2-4.5 4.2-1.3-7.2-2.1-2.7-1.9-0.5-1.9 0.9-7.3 6.3-15.1 4.1-3.2-6.6 4.6-10.2 0-6.8 6.5-19 11.9-3.4 3.2 2.1 4.2 1.1 2.8 0.4 4.4-1.1 2.5 0.6 2.1 1.9 0.7 1.8-0.8 4.2z" id="SVN973" name="Mozirje" data-id="SVN973" data-name="Mozirje">
 </path>
 <path d="M573.6 104l0.3 1.6 2.6 3.8 0.7 1.9-0.1 2.8-9.2 7.3-4.6 1.8-4.5-0.7-6.7-4.8-3.5-6.4-1.5-4.1-1-6.2 27.5 3z" id="SVN974" name="Muta" data-id="SVN974" data-name="Muta">
 </path>
 <path d="M509.6 259.7l-0.1 8.8-4.2 0.3-2.1 0.6 0 1.8-1.5 1.5-6.3 2.6-2.4 1.7-3.3 0.2-2.4 0.7-0.8 2.1 0 2.1-4 6.3-9.6-5.7 0.9-7.3 1.4-4.7 3.1-4.2 1.7-5.9 15.1-4.1 7.3-6.3 1.9-0.9 1.9 0.5 2.1 2.7 1.3 7.2z" id="SVN975" name="Nazarje" data-id="SVN975" data-name="Nazarje">
 </path>
 <path d="M763.1 107.3l-3.2 8.9-0.9 5.6 0.7 6.8-1.7 6.8-3.1 2.2-7.7-0.4-6.8-4.7-6.1-6.1-10.4-0.6 5.5-4.4-5.9-18.1 8.5-1.5 1.7-1.3-0.4-1.6 0.6-2.2 2.1-4 0.9-3.4 1.1-1.5 2.3-0.2 1.8 0.6 3.8-0.3 4.5 1.3 1.5 1.4 0.7 1.3 0.4 2.5 1.8 2.1 1.4 1.1 1.2 1.5 1.1 2 1.4 1.6 3.2 4.6z" id="SVN976" name="Pesnica" data-id="SVN976" data-name="Pesnica">
 </path>
 <path d="M324.4 531.5l2.3 8.2 7.4 8.5 2.9 4.1 0.1 8-15.1-3.6-3-3.5-6.9-5.7-4.6 0.1-1.3 0.6 0.7 1.4-0.8 1.7-3.6 2-9.9 2-12.4 4.9-2.7 1.6-3.6 3.3-3.5 0.9-6.8 0.8-13.4-0.8-7.7 0.5-5.5 1.9-2.3 1.5-3.9-0.7-3.4-1.6-0.1-0.8 1.1-2.7-1.6-4.5-1.6-3.4-1.2-3-0.2-6.3-1.3-2.8-0.6-3.1 0.7-3.2 2.2-4.1 3.6-1.8 3.3-3.5 7.5 3.4 5.3 1.4 5.1 0 7.1-1.4 9.3-4.3 5.7-0.4 11.7-4.4 4.7-3.6 16.4-8.8 1.4 6.5 18.5 14.7z" id="SVN977" name="Pivka" data-id="SVN977" data-name="Pivka">
 </path>
 <path d="M289.7 468.5l0.9 4-6.3 16.3-0.4 4.9 3.6 6.5 5.7 6.1 3.7 2.6 7.6 1.4-16.4 8.8-4.7 3.6-11.7 4.4-5.7 0.4-9.3 4.3-7.1 1.4-5.1 0-5.3-1.4-7.5-3.4-3.7-9.1-3-4.1-11.1-8 2-5.4 1.7-2.4 1-8.6 2.1-5.3-4-12.8 14.9-5.5 1.1-1.3 9.3-7.7 16.8-3.1 6.6 1.4 7 4.4 17.3 7.6z" id="SVN978" name="Postojna" data-id="SVN978" data-name="Postojna">
 </path>
 <path d="M743.7 185.3l2.4 2.3 2 4.7-0.5 2.9 4 6.9-14.9 9.1-6.3-6.9-4.5-2.2-3.7-1.2-0.5-1.6-26.3-15.7-2.9-2.7-0.7-4 8.1 0.9 4.9 2.1 8.3 0 7.6 3.7 3.2 2.7 2.2 1 1.5 0.3 5.5-0.2 3.4-0.9 7.2-1.2z" id="SVN979" name="Race-Fram" data-id="SVN979" data-name="Race-Fram">
 </path>
 <path d="M570.7 356.1l12.2 14.5 0.8 3.6 1.8 1.8 2.6 0.7 2.1 1 4.5 3.8 0.3 1.5-1.7 1.4-4.5 0.5-24.1-5.9-16 1-5-3.8-1-2.3-1.1-5.1 5.5-1.4-0.4-4.5 3.1-0.8 1.4-0.9 1.4-5.6 7 3.5 11.1-3z" id="SVN980" name="Radece" data-id="SVN980" data-name="Radece">
 </path>
 <path d="M604.6 135.7l-15.9 10-1.7 1.6-1.4 1.9-0.4 3.6-3.1 2.9-6-2.2-1.6-3.9 0.2-2.3 0.7-3.1 1.7-3 1.2-3.8-0.2-1.9-0.9-1.9 3.8-1.1 1.8-1.1 2.6-4.6 0.5-2.6 0-1.9-0.7-1.5-1.9-1.5-1.9-0.7-1.7-1.3-2.6-3.2 0.1-2.8-0.7-1.9-2.6-3.8-0.3-1.6 10.2 1.1 40.6-2.1-0.1 3.9-1.1 7.3-2.6 2.1-5.2 2.5-2.1 0.7-4.3 4.2-4.4 12z" id="SVN981" name="Radlje ob Dravi" data-id="SVN981" data-name="Radlje ob Dravi">
 </path>
 <path d="M735.9 273l6 4.5 11.9-0.8-6.2 3-1.7 1.2-2.5 2.3-2.2 4.6-3.1 2-4.3 8-0.1 2.5-5.3-0.4-6.8 3.5-4.2 5.7-4.2-4.1-1.9-7.2-1-1.2-2.3-1.3-3.5-4.9-6.3-17.2 1.7-2.6 1.8-1.1 3.5-1.1 6.6 0.1 14 4.7 10.1-0.2z" id="SVN982" name="Rogaška Slatina" data-id="SVN982" data-name="Rogaška Slatina">
 </path>
 <path d="M759 278.5l13.2 6.2-3.3 2.5-6.4 10.9-6 3.9-22.8-1.7 0.1-2.5 4.3-8 3.1-2 2.2-4.6 2.5-2.3 1.7-1.2 6.2-3 5.2 1.8z" id="SVN983" name="Rogatec" data-id="SVN983" data-name="Rogatec">
 </path>
 <path d="M590.2 576.5l-5.8-2.9-5.7-1.1-4.7-0.2-5.7 3.2-1.6 1.8-1.5 2.6-1.5 1.1-2.6 0.9-8.8 0.8-10.1-3.4-5.4-2.2-6-11.1 1.1-9.1 1.3-2.6 5.9-8.3 2.9-3.1 3.7-1.8 5.8 0.8 7.4 1.2 9.5-0.6 4.9 0.4 4.1-0.4 2-0.6 11.8-8.3 2.6 0.1 0.6 0.8 4 8.9 4.4 3.7 3.1 4.5 3.1 5.9-0.2 3-1.4 2.3-2.3 0.2-1.2 0.9-1 1.4-1.1 3.3-0.9 1.8-3.1 3.1-2.3 1.9-1.7 0.9-3.6 0.2z" id="SVN984" name="Semic" data-id="SVN984" data-name="Semic">
 </path>
 <path d="M348.7 304.1l1.5 3.3-2.8 2.6-16.5 0.7-5.6-11.6-1.5-2.1-0.3-1.3 0.4-2.7 2.5-4.6 3.1-12 4.1-5.7 0.7-4.5 15.8-1.3-2.3 3.3-1.3 1.3-1 1.6-1.1 0.9-1.7 4.2-0.5 5.4 0.3 10.3 0.4 4.4 5.8 7.8z" id="SVN985" name="Šenčur" data-id="SVN985" data-name="Šenčur">
 </path>
 <path d="M767.5 71.3l0.6 1 5.7 4.7-0.2 8-1.2 2.9-0.3 2.6-2 2.3-0.1 2.2 0.6 2.8 1.8 3.6-6.9-0.6-1.6 2.3-0.8 4.2-3.2-4.6-1.4-1.6-1.1-2-1.2-1.5-1.4-1.1-1.8-2.1-0.4-2.5-0.7-1.3-1.5-1.4-4.5-1.3-3.8 0.3-1.8-0.6-2.3 0.2-1.1 1.5-0.9 3.4-2.1 4-0.6 2.2 0.4 1.6-1.7 1.3-8.5 1.5-7.4-11-0.2-5.3 1.7-1.3 1.9-4-0.1-5.9 1-7 5.1 3.1 24.3 3.6 8.4-0.5 9.3-3.7z" id="SVN986" name="Šentilj" data-id="SVN986" data-name="Šentilj">
 </path>
 <path d="M655.1 500.5l-0.2 0.2-31.1 10.3-0.2-1.3-3.1-12.3-7.4-11.3-5.7-5.9-1.7-4.4-0.8-5.4 1.6-3.9 1.4-2.4 7.3-4 8.1-4.6 3.3 1.7 0.5 1.1 2.1-0.6 2.4-2 1.7-4.3 8.6 3.2 2.3 8.8 0.4 9.9 0.9 5.4 0.5 6.2 7.3 13.7 1.8 1.9z" id="SVN987" name="Šentjernej" data-id="SVN987" data-name="Šentjernej">
 </path>
 <path d="M635.7 365.4l15.8 4.1 0.6 6.1-0.3 1.6-0.9 2.1 0 3.9 0.8 3.4 1.1 3.6 1.7 2.4 0.6 2.6-0.1 2.9-1.7 3-11 11.1-5.7 8.5-2.7 7.4-5.2-4.4-1.3-3.2-2.5-1.3-2.3-0.7-3.2-0.6-6.8 0.5-1.9 1-1 0.9-0.5 2.9 0.5 2.3-0.8 2.2-1.5-0.2-4.2-4-2-0.1-0.7 0.5-0.7 2.5-5.4 2.9 0.1 3.6-11.1-6-7.2-6.4-4.7-5.9-2.2-4.5 0.3-2.8 1-1.9 1.4-1.8 0.4-2.6-0.8-0.8-3 0.9-1.7 1.3-2.5 0.9-2-1-1.3-2.3-5.4-3.6-7.2-12.1 0.2-4.3 16-1 24.1 5.9 4.5-0.5 1.7-1.4-0.3-1.5-4.5-3.8-2.1-1-2.6-0.7-1.8-1.8-0.8-3.6 0.9-2.6-1.2-2.8-2.3-2.7 0-1.7 3.1-0.7 16 0.2 4.7 1.7 2.5 1.6 1.4 2.1 0.9 4.4 1 1.3 1.6 0 3.3-2.6 4.5-1.8 16.4-1.6z" id="SVN988" name="Sevnica" data-id="SVN988" data-name="Sevnica">
 </path>
 <path d="M633.9 428.1l-2.8 8.4-0.3 7.7-0.8 3.5 3.3 3.7-1.7 4.3-2.4 2-2.1 0.6-0.5-1.1-3.3-1.7-8.1 4.6-0.7-4.7 1.4-2.9-0.9-1.9-1.6-2.3-3.1-3.7-3.4-2.4-2.9-1.4-9.5-7.9-0.1-3.6 5.4-2.9 0.7-2.5 0.7-0.5 2 0.1 4.2 4 1.5 0.2 0.8-2.2-0.5-2.3 0.5-2.9 1-0.9 1.9-1 6.8-0.5 3.2 0.6 2.3 0.7 2.5 1.3 1.3 3.2 5.2 4.4z" id="SVN989" name="Škocjan" data-id="SVN989" data-name="Škocjan">
 </path>
 <path d="M397.3 399.9l-3 2.3-0.9-0.1-2 1.8-2.1 3.5 1.2 5.2 0.2 3.8-1.2 14.4 3 9.1-2 3.3-0.3 2.1-0.7 0.9-2-0.6-5.9-2.6-0.7-1.2 0.2-2.6-0.4-2.1-2.2-2.8 1.5-10.2-0.5-5.3-1.9-7.8-6.5-8.2 0.8-6.1-0.2-4.3 2.1-1.5 6.7-1.1 7.6 1.5 9.2 8.6z" id="SVN990" name="Škofljica" data-id="SVN990" data-name="Škofljica">
 </path>
 <path d="M578.7 161.2l2.2 2.9-3 8.8-7.6 11.1-3.5 3.5-0.5 4.8-1.6 2.1-3 0.6-3.6 10.1-3.7-4.1-4.2-1.4-2.1-0.1-0.9 3.5-28.3-9.4-13.8-6 2.9-13.6 6.7-2.9 1.7-1.3 2-3.3 1.2-3.9 0.5-8.1 2.1-8.6 4.5 5.7 1.1 0 2.6-1.6 4-1.4 3.6 1.4 1.3-0.3 1.5-1.6 0.6-2.1 10.3-9.1 3.1 4.7 4.4 3.7 3.4 4.8 1.7 3.6 14.4 7.5z" id="SVN991" name="Slovenj Gradec" data-id="SVN991" data-name="Slovenj Gradec">
 </path>
 <path d="M678.3 233.8l6.8 4.1 2.5 0.3 2.7 2.4 2.2 5 2.3 11.5 0.9 7-1.7 7.2-7.2 0.5-5.7-2.9-1.8 1-2 0.3-32.9-10-6.2-4.3-2.1-1.9-0.6-1-1.1-3 1.4-4.5 4.2-8.1 1.9-2.1 1.8-1 2.4 0.6 2 1 1.4 0 4.1-7.5 9.1 5.2 2.5 0.8 13.1-0.6z" id="SVN992" name="Slovenske Konjice" data-id="SVN992" data-name="Slovenske Konjice">
 </path>
 <path d="M698.2 273.2l6.3 17.2 3.5 4.9 2.3 1.3 1 1.2 1.9 7.2-10.9 11.4-3.6 6.7-7 4.4-4.2-2.9-1.8 0.6-3.1 0.3-3.6 1.1-4.5-1.7-2.4-2.4-1.6-3.4-0.7-2.6-5.7-8.8-2.6-6.8-0.9-3.8 0.2-2.1 3.5-4 5.5-4 3.7-1.7 4.7-3.2 3.9-5 1.9-1.7 1-1.5 1.8-2.1 7.2-0.5 4.2 1.9z" id="SVN993" name="Šmarje pri Jelšah" data-id="SVN993" data-name="Šmarje pri Jelšah">
 </path>
 <path d="M540 237.4l-2 6.7-0.2 5.6-0.5 4.7-2.1 3.4-4.5-7.9-9.1-5.9-2.6-5.9-0.5-2.7 0.4-9.8 4.4 5.9 8 4.1 8.7 1.8z" id="SVN994" name="Šmartno ob Paki" data-id="SVN994" data-name="Šmartno ob Paki">
 </path>
 <path d="M547.2 203l-0.5 12.2-1.7 6.3-4 6.6-1 9.3-8.7-1.8-8-4.1-4.4-5.9 0.8-4.2-0.7-1.8-2.1-1.9-2.5-0.6-4.4 1.1-2.8-0.4-4.2-1.1-3.2-2.1-11.9 3.4-0.4-10.9-2.9-2.8 15.9-7.5 4.4-3.4 0.2-5.8 13.8 6 28.3 9.4z" id="SVN995" name="Šoštanj" data-id="SVN995" data-name="Šoštanj">
 </path>
 <path d="M766.5 184l4.6-0.7 2.8 1.1 4.4 5.6-4.2 2.6-0.5 1.9 0.6 3.4-1.7 2.7-5.7-1.4-4 1.7-5.6-0.6-5.6 1.8-4-6.9 0.5-2.9-2-4.7 5-6.7-1-2.6-0.6-2.8-1.4-2.5 0.4-1.4 2.7-3.9 1.5 4.4 1.4 1.7 2.6 0.9 1.9 1 7.9 8.3z" id="SVN996" name="Starše" data-id="SVN996" data-name="Starše">
 </path>
 <path d="M626.5 293.6l7 3.1 1.5 4.3-0.7 2.9-0.3 11.6-16.1 6.9-5.9 0.3-1.2-0.9-0.4-1.2 0.7-0.9 2.5-1.8 1.3-2.8-0.5-3.1 2.7-2.2-0.5-2.6 0-8.6 1.8-2.1 2.5-1.7 3.3-1.5 2.3 0.3z" id="SVN997" name="Štore" data-id="SVN997" data-name="Štore">
 </path>
 <path d="M555.7 396.4l5.4 3.6 1.3 2.3 2 1 2.5-0.9 1.7-1.3 3-0.9 0.8 0.8-0.4 2.6-1.4 1.8-1 1.9-0.3 2.8 2.2 4.5 4.7 5.9 7.2 6.4 11.1 6-3.5 6.9-0.2 2 0.6 4.1-3.5 7.3-2.5 2.7-4.2 1.8-3.8 1.1-12.6-2.7-5.3-2.3-1.6-1.5-1.9-1.2-1.6-1.9-2.1-1.5-1.1-1.4-1.4 0.1-1.1 0.8-1.7 3-1.8 2-2.7 0.8-4.4 1-3.2 2.4-2.2 2.6-1.8 2.7-0.2 9.2-3.6 1.3-2-0.8-1.3-2.3-4.9-2-6.6 3.2-3.8-0.8-2.6-1.9-1.3-2.4-0.6-2.6-1.3-2.1-3.2-2.3-2.9-0.9-16.6 0.5-1.8-3.6-0.9-4.5 1.7-5.2 1.5-11.9 1-3.5 2.2-4 6.3-3.6 5.9-6.3 3.9-1.4 4.7-4.1 4.4 0.2 4.4 1 5.6 3.7 7.7-2.7 2.5-3.3 1.4-3.7 0.4-3.8 0.9-3 4.5-0.7 7.7 0.4 3.2-2.3 2.5-0.3 1.6 0.9 4.4 0.3z" id="SVN999" name="Trebnje" data-id="SVN999" data-name="Trebnje">
 </path>
 <circle cx="257.5" cy="597.8" id="0">
 </circle>
 <circle cx="410" cy="481.2" id="1">
 </circle>
 <circle cx="629.8" cy="245.8" id="2">
 </circle>
</svg>