<?xml version="1.0"?>
<!--
************* Copyright (c) 2017 Pareto Softare, LLC DBA Simplemaps.com *******************		
************* Free for Commercial Use, full terms at  http://simplemaps.com/resources/svg-license ************
************* Attribution is appreciated! http://simplemaps.com ***************************
-->
<svg baseprofile="tiny" fill="#7c7c7c" height="1318" stroke="#ffffff" stroke-linecap="round" stroke-linejoin="round" stroke-width="2" version="1.2" viewbox="0 0 1000 1318" width="1000" xmlns="http://www.w3.org/2000/svg">
 <path d="M879.5 355.9l-11-10.3-11.5-1.9-3.8 5.8-4.8 6.7-5.7-19.3-9.6-4.8-21.9-1-15.3-9.6-10.5-7.8-6.7-12.5-2.9-23.3-1.9-41.6-11.5 0.7 0-152.9 0-10.9 3.6-0.2 12.6-2.5 12.5-2.3 3.7-1.6 1.4-2.1 1-0.7 1.2 0.5 0.9 0.5 1 0.1 6.1-0.6 1.8-0.4 1.5-0.7 5.2-2.9 1.7-0.4 1.4-0.8 2.2-4.2 1.3-1.6 1.8-0.7 2.2-0.1 4.2 0.1 0.6-0.2 1.5-0.9 0.9-0.2 1.1-0.1 2.8 0.7 8.5 0.9 4.4-0.6 2.8-2.3 0.7 0.1 1.8-1.1 1.1-0.4 0.3-0.1 1.2-0.9 0.8-0.3 0.7 0.1 0.6 0.2 0.5 0.3 0.1 0.1 8.7-0.3 1.8 0.3 5.6-3.1 1.9-1.7 1-0.5 3.5 0 0.8-0.4 0.8-0.6 1-0.5 4.1-1.1 2-1.3 7.9-6.4 4.4-0.9 1.8-1.3 3.2-3.6 2.9-2.6 1.1-1.6 0.5-2.1 0.1-2.2 0.4-2.2 0.6-2.1 0.9-1.9 2.2-2.9 1.4-1.2 1.3-0.6 1.2-0.1 2.4-1.2 0.4-0.7 0.5-0.4 0.4-0.3 0.6 0 0.8 0.6 0.6 0.1 2-0.6 4-1.7 3.5-0.8 1-0.7 2.5-0.3 6.6 4.5 9.8 1 5.7 4.7 1.8 0.6 7.6 0 1.8 0.5 3.3 1.8 1.7 0.4 2.3 0 2.3 0.3 1.9 0.8 2.4 0.6-1.4 3.2-1.1 4-1.6 3 0.6 4.6-0.8 2.9-1.7 1.6-1.6 2.7-3 2.8-3.2 4.2-2.2 2.4-0.4 0.6 0.1 1.1 0.5 1.5 0.1 0.8-0.3 2.2-0.6 2.1-3.1 6.8-0.5 1.5-0.1 6.4-0.7 4.1 1.3 4.4 4.3 2.7 4.1 0.2 1.5 2-2.4 2.1-2.1 4.7-1.1 1.5-0.7 1.4-0.5 2.1-0.3 2.3 0.9 13.5 1.3 17.3 2.1 7.6-0.6 1-2.2 0.4-2.3 0.7-0.5 1.8 0.5 4.2-0.5 2-0.9 1.2-1.5 0.6-2 0.2-1.9 0.6-1.7 1.5-0.8 1.8 0.8 1.4 1.9 0.3 14.6-2.9 1 0.1 1 0.3 0.8 0 0.4-0.8-0.5-1-0.8-0.6-0.9-0.5-0.5-0.5 0-2.3-0.3-2-0.6-2-1-2 1.5 1.3 1.5 1.1 1.2 1.2 1.7 1 0.8 0.6 1.1 0.5 2.2 1.6 1.1 0.7 1.8 0.4 1.4 0.3 0.9-0.2 1-0.5 1.1-0.4 2 0.2 1.6 0.3 0.8 2.2 1.3 0.9-0.6 1.7-1.3 3.3-1.2 0.4-0.4 0.4-0.7 0.6 0.3 1.3-0.8 0-1.8-0.7-1.2 0.1-1.6-0.4-1.8 0.5-2.7-0.5-0.7-1.8-0.2-1.2-0.6-1.1-1.5-0.5-14.4 1.8-7 2.4-8.6 5.3-1.6 3.1-0.8 6 1.1 5.5-2.8 7.4 0.4 4.4 1.2 3.1 0.1 1.2-0.2 1-0.8 1.5-1.3 6.7 0.3 1.1-1.1 2-0.6 1.8-0.9 4.8-1.2 3.6-0.7 1 0.5 2.7-0.2 1-0.5 1.8-0.7 5.9-1.7 2.6-0.1 3 0.7 5.1 2.3 6.2 0.3 2-0.2 1.9-0.7 1.7-5.9 9.7-2 1.5-4 1.7-1.6 1.1-1.2 1.5-2.8 4.6-0.6 1.5 0.8 6.2-0.1 2.1-1.4 3.6-2.8 3.4-10.5 8.3-2.9 3.1-2.3 3.1-1.7 3-1.4 3.9-1.7 8-1.5 3.4-4.5 5.6-0.7 2 0.3 5.8-0.3 1.8-1.5 3.6-1.3 1.7-1.5 0.7-1.7 0.7-1 1.5-0.7 2-0.8 1.8-6.2 8.1z" id="SOM1" name="Bari" data-id="SOM1" data-name="Bari">
 </path>
 <path d="M347.8 684.5l7.9 48.7 6.7 32.5 4.8 20.1-2.9 15.4 0.9 41.1-11.4 1.9-4.8-1.9-19.1 1-12.4-7.7 2.9-4.8 0-17.2-1.9-3.8-10.5-23-22-6.7-6.7 0-8.6 3.8-3.8 2.9-6.7 12.5-9.5 10.5-16.3 3.8-27.7-9.6 1.9-17.2-3.8-7.7-20-34.4-1.9-3.7 2.8-3.2 1.4-3 1.7-6.7 1.3-3.3 0.6-1 0.8-0.9 7.2-5.9 8-6.6 10.8-5.2 10.9-5.2 17.3-8.2 10.7-2.5 7.3-1.7 9.4-2.1 2.9-0.7 8.3-2.9 3.5-0.9 5.7 0.3 9.9 0.6 5 0.3 4.9 0.3 5 0.3 4.9 0.3 5 0.3 4.9 0.3 14.7 0.8z" id="SOM2312" name="Bakool" data-id="SOM2312" data-name="Bakool">
 </path>
 <path d="M353.8 844.2l2.9 19.2-4.8 22.9 1.9 5.8-3.8 25.8 2.8 24.9-73.5 32.5-28.6 11.4-57.3 28.7-7.7-5.7-36.3-34.4-11.4-6.7 10.5-59.3 2.9-16.3 5.7-31.5 31.5 2.8 16.2-1.9 0-16.2 1.9-42.2 27.7 9.6 16.3-3.8 9.5-10.5 6.7-12.5 3.8-2.9 8.6-3.8 6.7 0 22 6.7 10.5 23 1.9 3.8 0 17.2-2.9 4.8 12.4 7.7 19.1-1 4.8 1.9z" id="SOM2313" name="Bay" data-id="SOM2313" data-name="Bay">
 </path>
 <path d="M206.7 804l-1.9 42.2 0 16.2-16.2 1.9-31.5-2.8-5.7 31.5-2.9 16.3-10.5 59.3-72.6 0.9-21 65-43.1 2.9 0-121.1-0.1-12.9-0.2-17.5 1.4-2.6 3.2-3.3 7.9-7.7 7.8-7.8 7.9-7.8 7.8-7.8 5-7.1 9.9-14.1 12.9-18.6 8-11.5 8-11.5 8-11.5 1.3-1.9 1.3-1 0.5-1.2-0.1-3 0.7-1.8 1.7-1.5 6.7-4.2 5.4-4.3 3.3-1.6 3.1-0.8 15.5-0.2 11.2-1.9 14.7-2.5 21.1-3.6 4-1.6 3.6-2.4 0.1-0.1 1.9 3.7 20 34.4 3.8 7.7-1.9 17.2z" id="SOM2314" name="Gedo" data-id="SOM2314" data-name="Gedo">
 </path>
 <path d="M193.4 1015.4l27.7 41.1 7.6 10.5 16.1 23.4 0.3 0.3-5.2 4.9-17.4 19.7-9.6 9.4-0.5 0-42.9 0.6-9.6-39.2-19-57.3-22 0.9-74.5 4.8 21-65 72.6-0.9 11.4 6.7 36.3 34.4 7.7 5.7z" id="SOM2315" name="Jubbada Dhexe" data-id="SOM2315" data-name="Jubbada Dhexe">
 </path>
 <path d="M392.9 844.2l4.8 20.1 21 30.6-0.9 51.7 5.7 2.9-11.8 15.4 0 0.1-3.3 1.9-2 0.4-1.1 0.3-18.9 9-16.2 11.1-0.8 0.9-1.1 0.5-13 9.3-12 7.5-20.8 16.2-10.6 10.9-2.2 1-3.9 2.4-1.1 1-0.4 0.8-0.2 1-0.2 1.9-0.3 0.3-1.9 0.6-0.3 0.3-0.7 1-6.8 6.8-1.9 1.2-2.1 0.6-1.2 0.9-4.4 5.6-10.7 5.8-3.7 2.7-4.5 6.3-1.6 0.9-1.3 0.5-4.3 3.4-13.1 12.7-0.3-0.3-16.1-23.4-7.6-10.5-27.7-41.1 57.3-28.7 28.6-11.4 73.5-32.5-2.8-24.9 3.8-25.8-1.9-5.8 4.8-22.9-2.9-19.2 11.4-1.9 27.7 1.9z" id="SOM2316" name="Shabeellaha Hoose" data-id="SOM2316" data-name="Shabeellaha Hoose">
 </path>
 <path d="M411.7 965l0-0.1 11.8-15.4 6.7-2 13.7-1.2 0.2 0-32.4 18.7z" id="SOM2407" name="Banaadir" data-id="SOM2407" data-name="Banaadir">
 </path>
 <path d="M657.5 739.7l-25.1 27-8.5 11.8-14.6 15.1-12.3 12.9-16 16.7-0.4-0.2-61.6-40 0.9-32.6-23.8-19.2-3.9-29.7 9.6-19.1 1.9-13.5-18.1 4.8-31.5-7.6-3.9-7.7-14.4-33.7 9.1-10 10.2-11.3 10.3-11.2 10.2-11.3 5.8-6 5.9-6 5.8-6 11.7-12 5.8-6 5.8-6 5.8-6 4.1-4 36.1 8.3 36.1 8.2 36 8.3-23.8 50.9 11.4 17.3 13.4 36.5-10.5 67.1 31.9 14.1 0.6 0.1z" id="SOM2408" name="Galguduud" data-id="SOM2408" data-name="Galguduud">
 </path>
 <path d="M519 783l-29.6 30.6-0.1 0.3-4.5 4.6-0.2-0.1-8.6 25.8-64 4.8-11.4-0.9-7.7-3.9-27.7-1.9-0.9-41.1 2.9-15.4-4.8-20.1-6.7-32.5-7.9-48.7 5.1 0.3 5 0.3 4.9 0.3 5 0.3 10.1 0.5 2.8-1.1 7.5-8.2 0.1 0 5.4-6 10.2-11.2 10.3-11.3 10.2-11.2 11.4-12.5 14.4 33.7 3.9 7.7 31.5 7.6 18.1-4.8-1.9 13.5-9.6 19.1 3.9 29.7 23.8 19.2-0.9 32.6z" id="SOM2409" name="Hiiraan" data-id="SOM2409" data-name="Hiiraan">
 </path>
 <path d="M581 823.2l-2.5 2.7-17.1 20-12.8 11.4-7.1 8.6-13.2 11-7 7.2-6 4.3-0.2 0.8-0.4 0.9-0.6 0.9-0.4 0.3-1.6 0.6-1 1.5-0.7 1.9-1 1.9-1.4 1-3.7 1.7-9 9.5-1.1 1.4-1.5 3-0.9 1.2-4 2.5-1.5 2.8-2 1.6-19.1 12.4-11 6.1-10.1 5.9-0.2 0-13.7 1.2-6.7 2-5.7-2.9 0.9-51.7-21-30.6-4.8-20.1 7.7 3.9 11.4 0.9 64-4.8 8.6-25.8 0.2 0.1 4.5-4.6 0.1-0.3 29.6-30.6 61.6 40 0.4 0.2z" id="SOM2410" name="Shabeellaha Dhexe" data-id="SOM2410" data-name="Shabeellaha Dhexe">
 </path>
 <path d="M829.4 445.1l-5.2 9-6.3 7.3-14.6 20.6-7.1 13.9-4.4 6.8-4.7 13.2-11.8 24.8-0.2 2.1 0.2 2.2 0.9 4 0.2 2.1-1.4 8.4-3.3 7.3-8.1 13.9-9.7 16.8-14.7 22.7-4.7 10.3-2.6 3.5-6.8 6.6-9.6 16-11.4 12.4-12.1 16.3-14 28.4-10.2 14.9-10.3 11.1-0.6-0.1-31.9-14.1 10.5-67.1-13.4-36.5-11.4-17.3 23.8-50.9-36-8.3-36.1-8.2-36.1-8.3 4-3.9 10.5-10.2 9.3-9 4.6-4.5 4.6-4.5 4.7-4.5 4.6-4.5 4.7-4.5 4.6-4.5 4.6-4.6 9.3-9 4.7-4.5 4.6-4.5 4.7-4.5 4.6-4.5 13.9-13.6 3.8-3.7 2.4 0.6 0.7 0.1 89.3 14.4 50.6-28.9 15.2 0.9 23.9 11.6 5.7 1 13.5 15.5z" id="SOM2412" name="Mudug" data-id="SOM2412" data-name="Mudug">
 </path>
 <path d="M879.5 355.9l-0.9 1.2-1.4 3.2-2.7 8.5-2.1 3.7-3.1 3-12.4 7.6-8.3 8.6-1.7 2.8-1.1 3.5-0.9 6.8 0.5 1.1 1.4 1 0.4 2.1-0.2 2.4-0.6 1.8-2.7 3.9-2.8 3.1-0.9 1.6-0.3 4.2-0.4 1.7-9.9 17.4-13.5-15.5-5.7-1-23.9-11.6-15.2-0.9-50.6 28.9-89.3-14.4-0.7-0.1-2.4-0.6 5.5-5.3 4.6-4.5 9.3-9.1 9.3-9 4.6-4.5 4.7-4.6 4.6-4.5 5.8-8.8 5.7-8.7 5.7-8.8 5.7-8.8 5.8-8.8 5.7-8.8 5.7-8.7 5.8-8.8 5.7-8.8 5.7-8.8 5.8-8.8 5.7-8.8 5.7-8.8 5.8-8.8 5.7-8.8 5.7-8.8 0-10.8 11.5-0.7 1.9 41.6 2.9 23.3 6.7 12.5 10.5 7.8 15.3 9.6 21.9 1 9.6 4.8 5.7 19.3 4.8-6.7 3.8-5.8 11.5 1.9 11 10.3z" id="SOM2413" name="Nugaal" data-id="SOM2413" data-name="Nugaal">
 </path>
 <path d="M212.9 1124.7l-9 8.9-19 21-11.6 12.7-5.5 4.5-6.2 5-6.4 6.5-2.3 3.3-0.2 1 0 0.9-0.3 0.6-2.3 0.5-0.7 0.6-3.8 5-0.5 1.6 1.1 1-0.9 1.6-0.4 0.4 0-0.6 0-0.5-0.2-0.4-0.4-0.5-5.1 4-0.8 1-0.6 1.5-1.5 1.8-3.1 2.9-9.5 11.4-0.3 0.8 0 0.8-0.2 0.5-0.8 0.2-0.4 0.3-3.9 6.1-2.4 2.5-1.4 1.1-1.6 0.7-1.8 0.5-2.8-0.1-1.5 0.3-0.8 1 1.8 0.4-0.1 1.9-0.8 2-0.6 1-1.4 0.7-1.4 1.7-1.1 2.1-0.4 1.7-0.4 0.8-3.2 2.5-1.1 0.5-0.4-0.6-0.4-4 0.1-3.8-0.5-1.6-0.6 0 0.2 1.4-0.3 1.1-0.4 0.9-0.2 1.2 0.1 1.1 0.5 1.4 0.1 1.1 0.3 1.2 0.6 0.6 0.7 0.4 0.3 0.7-0.1 1.2-1 2-0.2 1.1-0.6 1.2-2.2 2.1-0.5 0.6-0.2 1.3-0.4 1-0.6 1-3.7 4.3-0.4 1 0.4 0.8 0.7 0 0.9-0.5 0.7-0.6-1.1 2.5-2.2 0.2-2-1.4-0.6-2.7-0.6 0 0.1 1.9 1.1 3.4 0.1 1.9-0.6 1.7-10 16.2-2.2 2.7-1.8 2.8-3.6 7.3-1.8 1.4-2.2 1.2-3.4 5.7-1.9 1.7 0.6 0-2.5 2.5 0.3-7.9-0.3-1.8-1.2-2.1-8.4-11-4.9-6.2-4.9-6.4-4.7-6-4.3-5.7-5.3-6.8-4.9-6.3-4.7-6.1-2.4-3.1-2.5-3.2-2.4-3.1-2.4-3.2-0.1-7.2-0.2-13.5-0.5-41.5-0.1-6.4-0.1-6.5-0.1-7.8 0-117.8 43.1-2.9 74.5-4.8 22-0.9 19 57.3 9.6 39.2 42.9-0.6 0.5 0z" id="SOM2645" name="Jubbada Hoose" data-id="SOM2645" data-name="Jubbada Hoose">
 </path>
 <circle cx="175.5" cy="924.8" id="0">
 </circle>
 <circle cx="357.4" cy="949.1" id="1">
 </circle>
 <circle cx="354.2" cy="978.1" id="2">
 </circle>
</svg>