<?xml version="1.0"?>
<!--
************* Copyright (c) 2017 Pareto Softare, LLC DBA Simplemaps.com *******************		
************* Free for Commercial Use, full terms at  http://simplemaps.com/resources/svg-license ************
************* Attribution is appreciated! http://simplemaps.com ***************************
-->
<svg baseprofile="tiny" fill="#7c7c7c" height="1027" stroke="#ffffff" stroke-linecap="round" stroke-linejoin="round" stroke-width="2" version="1.2" viewbox="0 0 1000 1027" width="1000" xmlns="http://www.w3.org/2000/svg">
 <path d="M226.1 78l-1.7 0.4-4.8-11.4 1.1-3.4 2.3-4.1 1.5-5 1.8-3.8 0.4 1.7 0 4.3-0.8 4.5-2 6.5 1.1 4.7 0 2.8 1.1 2.8z m162.2 93.9l-58.7-4.1-98.1 15.3-14.3 0.8-12 1.8-1.2-2-2.5-0.8-2.8 0.2-2 1.2-0.4 2.3 1.2 2.4 2.5 3-0.6 1.6-1.6 1.1-2.1 0.2-2.2-0.6-1.2-1.3-0.5-2-0.3-17.1-4.8-1.2-3.6 1.4-2.1 0-1-2.3 0.8-2.7 2-2.6 11.9-12 2.5-3.9 1-5.8 0.3-5.2 0.8-4 2.2-5.1 5.5-5.5 7.9-3 3.3-2.7 2.3-3 1.6-3.5 5.8-26.6 1.2-23.3 1.7-8.2 0.5-6.1 2.9-10 2.9-6.8 6.4-10.7 1.1-2.8 1.3-2.2 2.1-1.4 5.6-1 2.9-2.2 2.4-1.2 3.2-3.5 1.3-1.1 2.4-0.9 2.5-0.5 2.6-2.7 1.8-0.6 6.8 1.8 15.1 3.6 9 1 12.1 0 19.1 0.8 10.5 0.6 4.2 1.6 7.6 4.9 1.9 0.8 0.5 43.4 0.7 6.2 3.7 8.4 2.7 4.2 1 2.2 0.5 5.6 0.6 2.6 6.1 12.5 9 10.9 1.1 4.1-0.6 3.1-0.7 1.2-1.3 0.1-2.9-1.7-1.6-0.5-1.5 0.3-4.1 3.6-4.6 0.1-0.3 1.5 0.9 2.5 8.1 8.3 1.2 2 0.6 2.4-0.2 3.4-1.1 2.3-3.6 4.6-0.2 2.7-1.5 3 0.3 1.1 1.7 0.7 3.9 0.8 2.2 0.9 1.5-0.5 0.6-1.2 0.8-3.7 0.8-1.6 2.5-1 1.6 0.9 2 2.5 1.4 2.7 1.7 4.2 1.2 2.4 0.1 2.3-1.1 2.2-1.8 1.2-2.6 2.9z" id="SUR37" name="Nickerie" data-id="SUR37" data-name="Nickerie">
 </path>
 <path d="M787.5 254.4l16.5 6.4 6.6 6 2.9 5.2 0.7 1.9 0.5 2.7-0.3 2.5-0.9 2.6-3.2 5.1-1.3 2.6-0.6 2.8-0.3 6.1-0.7 2.9-1.1 2.9-2.8 5.4-1.1 2.6-0.6 2.7-0.7 5.6-0.8 2.6-3.8 7.5-0.8 2.6-0.2 2.8 0.5 21.6-1 5.7-1.1 2.7-1.7 2.7-4.5 5.3-8.3 7.5-1.9 2.6-1.3 3.1-0.4 2.7 0.4 6 1.1 5.4 4.4 13 0.3 2.5 0.1 5.3-0.4 2.2-5.5 14.7-6.4 10.8-1.2 2.8-1.7 5.4-1.1 2.6-1.8 2-2.4 1-2.3-1.4-4.2-6.5-2.9-2.4-1.7-0.6-2.1 0.3-1.9 1.6-1.5 2.2-3 5-2 2.5-2.3 1.7-2.4 0.8-8 1-2.8 0.7-2.7 1.1-2.8 1.7-10.5 9.9-2.4 2-15.9 8.2-2.5 0.7-2.6 0.2-2.6-0.5-2.3-1.2-2.1-1.9-1.3-2.4-1.7-8.2-4.9-86.4-0.8-3.5-1.5-3.8-3.2-5.6-3.2-3.9-0.2-1.7 1.9-47.2-4.1-40.3-2.9-9.2-3.3-7.5-24.8-39 8.4-9.6 11.9-8.8 8.1-8.3 8.7-14.4 0.9-2.2-0.2-3.2-2.3-3-1.1-2.1 0.5-2.5 2.5-3.5 6.3-1.2 73-0.7 5 0.8 1.7 1.9 1.1 2.3 0.8 14.9 0.6 2.6 1.5 2.5 2.3 2.1 12.9 8.9 2.3 2.1 1.9 2.5 1.4 2.5 0.8 2.6 0.3 2.6-1.1 5.1 0 2.3 1.3 2.2 3.8 4 0.8 2.3 0.4 2.5 0 9.9-1 5.7 0.7 1.9 1.6 1.2 1.6 0 2-1.4z" id="SUR66" name="Brokopondo" data-id="SUR66" data-name="Brokopondo">
 </path>
 <path d="M917.3 197.5l-5.9-6.1-5.7-2.9-8.7-3-13.7-9.4-3.3-1.7-44.5-16.8 8.1-11.4 2.3-5.2 1-6.3 0.1-5.2-1.2-8.5-3.7-8.8-6.1-8.8-5-10.2-7.6-11.3-1.9-4.1-2.1-7.4-1.9-3.9-2-5.3-0.4-1.8-0.7-6.4 0.3-3.1 1-2.7 4.7-5.7 1.7-3.5-1.8-19.7 1.8-5.2 1.2-3.1 7.7 1.4 49.3 7 30.1 6.7 23.5 4.6 20.4 6.6 17.5 5.1 5.7 0.6 3 1.1 6.2-0.5 1.4 2 2.6 1 1.4 2.5-0.4 2.6 5.9 11.3 1.4 4.4-2.3 2.8-5.9 11.2-2.8 4.8-1.2 9.8-3.5 19-2.6 9.6-3 5.7-4.5 5.4-4.2 3.7-2.3 2.5-1 2.3-1.5 4.7-10.3 16.2-4.8 5.5-19.3 14-10.3 10.6-2.2 3.3z" id="SUR67" name="Marowijne" data-id="SUR67" data-name="Marowijne">
 </path>
 <path d="M741.5 85.8l-8.7 4.3-2.9 5.3-0.5 0.5-0.1 2.4 3.5 0.1 3.5-1.7 1.8 0.8-0.4 2.2 1.7 1.5 0.2 2.5-0.5 13.8 4.6 1.4 4.9 0.2 93.5-6.9 3.7 8.8 1.2 8.5-0.1 5.2-1 6.3-2.3 5.2-8.1 11.4-3.5-1.1-2.4 3.6-14.4 27.7-3 7.9-1.5 2.2-8.7 7.7-2.7 4.1-5.2 18.8-2.5 14.2-4.1 11.7-2 1.4-1.6 0-1.6-1.2-0.7-1.9 1-5.7 0-9.9-0.4-2.5-0.8-2.3-3.8-4-1.3-2.2 0-2.3 1.1-5.1-0.3-2.6-0.8-2.6-1.4-2.5-1.9-2.5-2.3-2.1-12.9-8.9-2.3-2.1-1.5-2.5-0.6-2.6-0.8-14.9-1.1-2.3-1.7-1.9-5-0.8-73 0.7-6.3 1.2-2.5 3.5-0.5 2.5 1.1 2.1 2.3 3 0.2 3.2-0.9 2.2-8.7 14.4-8.1 8.3-11.9 8.8-8.4 9.6-1.8 1.2-2.7 0.5-1.4 0.8-1.9 2.9-2.3 2.6-1.3 4.4-2.4 2.2-2.7 0.9-7.9 4.3-7.5 3.1-10.5 2.3-2.8-0.9-2.5-2.2-1.8-5.5-0.7-3.6-0.2-3.2-0.7-2.6-1.4-2.6-3.1-3-2.7-1.9-2.9-1.4-15.5-5-4.9-0.7-5.3 0.3-5.6 1.1-11.9 3.5-5.2 0-11.6-3-0.4-4.3 0.2-8.3 7.4-55.7 12.8-39.1 3.2 3.8 1 3 2.5 2.6-0.2 2.5-1.4 2.5-2.4 2.4-1.8 4.1-0.1 3.4 1 3.1 0.6 3.9 1.8 1.3 2.1 0.5 11-2.9 3 0.2 9.6 2.6 74.3-5.9 3-0.8 3.5-1.7 1.5 0.7 3.1 2.6 1.3-0.5 1.3-2.8 1.3-1.3 2.1 0 3.6-1.7 1.9-1.1 0.7-1.3 0.3-3.1 0.6-1.5 2.3-3.3 0.3-3.3-1.1-1.6-3.7-2.9-1-1.6-0.1-1.6 1.6-3.3 0.7-3.5 0.7-1.8 3.5-3.4 0.7-1.8-0.3-1.8-3-4.3 0.5-1.7 2.9-2 4.1-1 2.4-1.1 1.1-1.4 0.1-1.7-2-4.1 23.7 2.7 8.2-0.2 26.2-5.1 6.2 0.3 12.2 3.7z" id="SUR68" name="Para" data-id="SUR68" data-name="Para">
 </path>
 <path d="M628.1 229.9l24.8 39 3.3 7.5 2.9 9.2 4.1 40.3-1.9 47.2 0.2 1.7 3.2 3.9 3.2 5.6 1.5 3.8 0.8 3.5 4.9 86.4 1.7 8.2 1.3 2.4 2.1 1.9 2.3 1.2 2.6 0.5 2.6-0.2 2.5-0.7 15.9-8.2 2.4-2 10.5-9.9 2.8-1.7 2.7-1.1 2.8-0.7 8-1 2.4-0.8 2.3-1.7 2-2.5 3-5 1.5-2.2 1.9-1.6 2.1-0.3 1.7 0.6 2.9 2.4 4.2 6.5 2.3 1.4 2.4-1 1.8-2 1.1-2.6 1.7-5.4 1.2-2.8 6.4-10.8 5.5-14.7 0.4-2.2-0.1-5.3-0.3-2.5-4.4-13-1.1-5.4-0.4-6 0.4-2.7 1.3-3.1 1.9-2.6 8.3-7.5 4.5-5.3 1.7-2.7 1.1-2.7 1-5.7-0.5-21.6 0.2-2.8 0.8-2.6 3.8-7.5 0.8-2.6 0.7-5.6 0.6-2.7 1.1-2.6 2.8-5.4 1.1-2.9 0.7-2.9 0.3-6.1 0.6-2.8 1.3-2.6 3.2-5.1 0.9-2.6 0.3-2.5-0.5-2.7-0.7-1.9-2.9-5.2-6.6-6-16.5-6.4 4.1-11.7 2.5-14.2 5.2-18.8 2.7-4.1 8.7-7.7 1.5-2.2 3-7.9 14.4-27.7 2.4-3.6 3.5 1.1 44.5 16.8 3.3 1.7 13.7 9.4 8.7 3 5.7 2.9 5.9 6.1-2.8 4-2.9 9.8-1.5 1.6-3.8 2.7-1.1 1.6-0.6 2.7-0.8 1.6-13.3 15.1-4.5 7.1-1.5 3.9-0.7 4.2 2.1 9.8-0.5 3.6-1.1 1.3-6.5 4.6-1.2 2.4 0.5 2.5 1.5 3.5 0 30.3 0.8 3.3 2 1.4 2.5 0.7 2.4 1.3 2.9 4.5 0.1 4.2-0.9 4.7 0.2 6 3.1 8.1 0.4 2.8 0 10.1-1.1 4.2-4.9 9-0.7 6.2 4.3 26.5 7.4 15.6 2.2 10.5 0.2 6.3-1.5 4.2-2.7 4.6 0.9 4.2 2.9 3.3 3 2 8.2 2.3 2.6 2 0.9 5-0.7 3.7-3.3 8.5-1 3.8 0.3 6.1 2.4 4.1 8.3 7.6 1.6 2.4 2.6 8.5 1.6 2.2 3.4 2.7 1.7 1.7 6 11.4 4.6 2.5 1.1 2.1 0.8-0.2 1.8 2.9 2.4 4.8 2.4 3 4.2 2.2 8.4 2.4 2.6 1.8 5 7.5 2.6 2.7 5 17.4 5.7 8.7 0.1 1.5 5.3-1.3 2.6-0.4 2.2 0.8 3.4 3.5 1.5 3.1-0.4 3.8-1.9 5.5-2 10.3 0.8 18.6-4 9.8-8.9 9.2-1.1 3.3-0.6 4.3-1.6 4.8-2.7 4.3-8.3 6-6.3 9.9-8.9 10.8-3.4 5.6-5.1 12.4 5.7-0.9 2.7 3.5 0.5 5.6-0.5 5.2-2.8 2-0.6 1.3 3.4 2.5 1.5 5.9 0.4 3.5-1.1 1.5-2.8 1.6 1.3 3.5 2.7 3 1.3 0.4 0.1 3.4-1.8 7.5-0.7 1.4-3.4 5-0.9 2.8-0.1 2.6 0.4 1.6 1.5 1.7 3.2 2.6-2.9 1.6-1.6 2-3.9 11.4-1.9 3.8-17.8 24.1-8.6 17.5-9.5 24.1-4 6-11.7 11.7-2.9 1.2-3.7 0.5-5.4 0.1-5.1 2.8-6.6 16.7-2.7 2.1-4.8 0.5-8.2-2.5-3.6 0.7-3.9 4.7-4.6 1.5-4.7 0.9-4.8 0.2-4.8-0.8-2.8-1.4-0.6-2 0.3-2.3-0.4-2.7-2.1-5.5 1.4-4.6 3.1-0.7 0.4-1.5-1.7-5.4-0.2-4.9-1.1-1.1-3.3-1.9-5.3-2.1-4.1 0.2-8 4.3-12.1 3.6-9.4-3.4-24-23.5-1.1-2.2 0.8-3.4 4.8-4.8 1.6-3.3-1.4-2.4-4.3 0.5-10 4-4.9 3.1-9.4 8-8.9 4.3-2 0.7-2-0.2-1.9-2 0.9-4.7-1.2-2.2-8.3 0.7-19.6 15-5.7-0.3-2.8-3.6-3.9-1.4-4.3 0.3-4.3 1.7-4.1 4-1.3 4.6-0.7 4.5-2 3.8-7 3-8.8-0.2-9.4-1.2-9.1-0.1-13.9 1.2-4.7-0.6-5.1 0-9.1 4.2-19.3 4.8-4.8-1-2.6-2-2.8-5.4-1.8-2.1-2.4-1.3-17.2-4.3-4.2-2-13.3-10.9-5.4-3.1-5.8-0.5-2.9 0.9-1.6 1.4-1.8 4.3-2.6 10.4-0.2 10.9-1.3 4.3-7.1 10.7-1.9 2-2.9 1.3-2.7-0.2-4.5-2.3-3 0.7-3.2 3.9-3.7 7-2.9 7.3-0.7 4.5 2.8 1.9 10.7 0.6 4.6 1.1 4.6 4.3 2.2 9.6 3.3 5.2 6.6 4.5 2.1 1.9 8.8 11.4 8.4 7.1 1.8 2.8 0.8 3.1-0.4 2.3-1.7 5.3 0.3 10.9 1.4 9.8-1.3 8.8-7.8 8.1-16.1 4.8-15.4-3.2-15.3-6.2-15.8-4.1-11.8 0.7-3.8-0.4-4.7-2-8.7-5.6-4.8-2-4.7-0.5-7.2 1.7-4.5 0.5-3.6-0.7-12.7-4.7-0.8-2.8-1.5-2.4-2.2-1.7-5.1-1.7-2-1.2-1.8-1.7-1.3-2.1-9.3-4.8-23.9-0.4-6.7-2.7-23.6-33.4-1.8-7.3-1.8-5.3-2.4-10.8-3.1-4.8-2.2-1.2-5.6-1-2.3-1.2-1.1-2.1 0.2-8.9-2.8-5.4-8.7-7.7-1.9-4.4 1.6-3.5 0.4-2.6-1.1-2.4-4.1-3.7-1.1-2.2-0.8-3.3 0.5-2.4 1.2-2.7 0.3-2.7-2-2.3-5 3.7-3.5 1.2-1.6-2.3 1.3-8.2-0.4-1.8-6.2-7.2-1.2-2.2-0.1-4.2 1.1-3.2 0.7-2.9-1.7-3.1-5.1 2.9-1.9-1.5-1.5-9.6-2.4-4.5-6.3-6.7-1.3-3.2 1-2.4 1.6-3.1 0.6-2.7-2.4-1.2-8.3 1.3-0.8 0.6-1.6-4.6 4.2-8.9-1.7-1.6-2.9 0.5-4.9 2.3-2.3 0.6-3-1.1-1.8-4.6-2-1-1-2.6-3.2-12.6 2.2-2.5 3.9-3 2.6-3.4-1.1-3.7-8.2-0.8-3.1-1.8 3.3-5.5-1.3-7 0.8-0.9 3.4 0.2 0.8-1-0.2-1.8-1.2-3.1-0.3-1.9-2.3-5.5-4.2-3.9-2.2-4.4 3.7-7.2-1.5-1.5-3.8 2.9-2.4 0.8-2.4-0.4-2.8-2 0.5-1.6 1.6-2 0.7-2.9-2.7-5.7-0.5-2.7 0.2-3 1.3-5 0.3-2.9-0.9-3-1.5-2-0.5-2 2-3.1 0.3-1.5 0.6-8.5-0.8-3.5-6-12.5-7.8 6.1-6.5 1.1-6.5-2-7.8-3.4 0.3 4.5-1.7 2.1-6.9 1.8-2.3 2.5-1.9 1-1.4-2.3-1.4-0.8-3.9-0.4-4.6-2.9-3.1-0.6-2.4 4.8-2.2 0.3-2.7-0.7-11.8-6.6-6.9-1.4-2-0.9-2.1-2.3-1-2.9-0.5-2.5 0.1-2.1 1.3-4.4 0.1-1.6-0.6-4.7 3.7-7.2 0.4-4.3-4-4.6-5.1-2.9-1.5-1.2-2.6-0.4-2.3-1.7-0.5-1.7-2-3.7-1.2-4.3-0.9-1.7-9.3-6-12-5-4-2.6-2.8-4.5-1.4-5.2-0.7-11.1-1-4.7-5.2-11.2-12.4-18.2-4-4.7-16.1-12.7-5.9-7.4-2.4-8.7-3.2-20.9-3.1-10.5 0.4-5.1 3.4-5.2 21.3-21.9 2.7-4.1 1.6-4.9 0.5-6.1-0.6-4.1-1.4-3.7-0.7-3.9 0.9-4.5 2.4-3.8 2.8-3.1 2.4-3.2 1.8-8.1 4.5-10.9 4.1-7 3.9-12.5 4.3-6.3 2-4.3 0.3-4.6-2-4.4-6.5-8.4-3.3-10.1-4.1-2.7-4.1-2.1-1.8-3.4 1.7-8.2 3.9-5.6 4.5-4.8 3.3-4.1 4.9-8.4 1.9-1.7 3.1-0.8 2.3 0.7 2.4 1.2 3 0.6 6-0.9 2.9-2.2 3.6-7 6.6-6.3 8.2-4.1 9.2-0.5 9.6 4.2 10.7-3.9 5.6-0.9 6.3-0.4 1.3 0.8 3.8 3.6 1.6 0.8 3.2-0.3 4.1-1.2 19.3-2 6.2-1.7 6.5-2.8 3.5-0.5 4 1.2 2.1 0.2 2.4-1.4-8.9-8.1-1.1-2.8 0.3-3.2 0.7-2.8 3.7-8.3 1.6-7 1.6-3.4 2.8-1.5 4.3 0.2 3.1 0.9 2.1 2.6 1.3 4.9 3.8-1.6 3.9-2.2 3-2.9 1.2-3.4-1.9-4.9-8.1-10-1.7-4.1 12-1.8 14.3-0.8 98.1-15.3 58.7 4.1 23-0.9 4-2 3.1-2.1 5.1-4.3 4.3-4.5 3.7-2.2 5-1.5 14.1-1.1 24.1 1.3 15-1.1 2.2-0.9 4.3-8.3 4.5-1.4 1.1-0.7 2-3.8 1.6-1.7 5.9-3.4 3.3-1.1 0.8-0.9 0.3-2.5-2.3-4.3 0.4-2.3 3.1-2 10-3.2-12.8 39.1-7.4 55.7-0.2 8.3 0.4 4.3 11.6 3 5.2 0 11.9-3.5 5.6-1.1 5.3-0.3 4.9 0.7 15.5 5 2.9 1.4 2.7 1.9 3.1 3 1.4 2.6 0.7 2.6 0.2 3.2 0.7 3.6 1.8 5.5 2.5 2.2 2.8 0.9 10.5-2.3 7.5-3.1 7.9-4.3 2.7-0.9 2.4-2.2 1.3-4.4 2.3-2.6 1.9-2.9 1.4-0.8 2.7-0.5 1.8-1.2z" id="SUR69" name="Sipaliwini" data-id="SUR69" data-name="Sipaliwini">
 </path>
 <path d="M823.3 10l-1.2 3.1-1.8 5.2 1.8 19.7-1.7 3.5-4.7 5.7-1 2.7-0.3 3.1 0.7 6.4 0.4 1.8 2 5.3 1.9 3.9 2.1 7.4 1.9 4.1 7.6 11.3 5 10.2 6.1 8.8-93.5 6.9-4.9-0.2-4.6-1.4 0.5-13.8-0.2-2.5-1.7-1.5 0.4-2.2-1.8-0.8-3.5 1.7-3.5-0.1 0.1-2.4 0.5-0.5 2.9-5.3 8.7-4.3 1.4-0.7 1.5-1.8-2.1-3.3-4.8-2.1-9.7-3.1-4.5-3.3-3.6-4-3-4.6-0.7-1.5-1.6-3.4-1.7-5.3 3-1.4 4-3.5 6.7-2.3 2.3-5.4 0.2-5.5 1.3-1.9 5.4 0 8.1 5.6 5 1.1 3.2-0.7 1.9-1.3 1.9-0.5 5.5 3.4 2.1 0.4 4.5-1.3 1.9-1.2 3-3.1 2.8-0.6 2.3 0.5 2.5 1.2 4.3 3.2-1.1-2-3.6-3.6-1.9-1.1-3.3-0.7-2.2 0.4-2.3 1.8-2.8 1.7-5.6 0.5-3.7-2.4-3.5-0.7-3.8 2.2-3.7-0.2-3.7-3-3.8-1.9-14.2-4.1-5-2.4-4.2-2.9-1.8-2.6-1-2.6-1.4-1.6 1.6-2.6 2.2-1.4 6.8-2.7 7.7-1.4 9.9-0.6 7.5 0 58.8 2 4.5 1 10.4 1.2 1.9 0.3z" id="SUR70" name="Commewijne" data-id="SUR70" data-name="Commewijne">
 </path>
 <path d="M531.7 83.4l-0.5 1.1-3.4 3.6-3.7 0.9-6.6 0.7-3.5 1.8-1.1 3 0.1 1.6 1.4 3.5 1.9 2.9 6.5 7.1 2.7 2.8 1.4 4.6-10 3.2-3.1 2-0.4 2.3 2.3 4.3-0.3 2.5-0.8 0.9-3.3 1.1-5.9 3.4-1.6 1.7-2 3.8-1.1 0.7-4.5 1.4-4.3 8.3-2.2 0.9-15 1.1-24.1-1.3-14.1 1.1-5 1.5-3.7 2.2-4.3 4.5-5.1 4.3-3.1 2.1-4 2-23 0.9 2.6-2.9 1.8-1.2 1.1-2.2-0.1-2.3-1.2-2.4-1.7-4.2-1.4-2.7-2-2.5-1.6-0.9-2.5 1-0.8 1.6-0.8 3.7-0.6 1.2-1.5 0.5-2.2-0.9-3.9-0.8-1.7-0.7-0.3-1.1 1.5-3 0.2-2.7 3.6-4.6 1.1-2.3 0.2-3.4-0.6-2.4-1.2-2-8.1-8.3-0.9-2.5 0.3-1.5 4.6-0.1 4.1-3.6 1.5-0.3 1.6 0.5 2.9 1.7 1.3-0.1 0.7-1.2 0.6-3.1-1.1-4.1-9-10.9-6.1-12.5-0.6-2.6-0.5-5.6-1-2.2-2.7-4.2-3.7-8.4-0.7-6.2-0.5-43.4 2.6 1.1 4.7 1.2 11.5 1.1 26.5 6.2 15.5 4.1 12.5 0.5 11.5 3 8.3 2.3 7.6 2 16.5 3.6 10.1 3.4 6 1.6 5 0.9 9.5 3.3 15.5 1.5 4.4 4.9 3.5 2.1 1.4 3.2 0 21.3 0.1 0z" id="SUR71" name="Coronie" data-id="SUR71" data-name="Coronie">
 </path>
 <path d="M719.7 47.8l-4 3.5-3 1.4 1.7 5.3 1.6 3.4-10.5-3.5-4.2-2.7-1.8-1.9-1.4-2.4-1.1-2.5-1.8-6.9-0.6-9 0.4-4.6 2 0.5 2.1 0 6 0.7 5.9-2.3 4-0.4 9 6.7 1.9 3.6-2.9 7.2-3.3 3.9z" id="SUR72" name="Paramaribo" data-id="SUR72" data-name="Paramaribo">
 </path>
 <path d="M689.2 24.1l-0.1 0.4-15.8 33.4-6.9 7.4-2 1.4-0.6 2.9-0.3 5.9 1.5 8.9 2 4.1-0.1 1.7-1.1 1.4-2.4 1.1-4.1 1-2.9 2-0.5 1.7 3 4.3 0.3 1.8-0.7 1.8-3.5 3.4-0.7 1.8-0.7 3.5-1.6 3.3 0.1 1.6 1 1.6 3.7 2.9 1.1 1.6-0.3 3.3-2.3 3.3-0.6 1.5-0.3 3.1-0.7 1.3-1.9 1.1-3.6 1.7-2.1 0-1.3 1.3-1.3 2.8-1.3 0.5-3.1-2.6-1.5-0.7-3.5 1.7-3 0.8-74.3 5.9-9.6-2.6-3-0.2-11 2.9-2.1-0.5-1.8-1.3-0.6-3.9-1-3.1 0.1-3.4 1.8-4.1 2.4-2.4 1.4-2.5 0.2-2.5-2.5-2.6-1-3-3.2-3.8-1.4-4.6-2.7-2.8-6.5-7.1-1.9-2.9-1.4-3.5-0.1-1.6 1.1-3 3.5-1.8 6.6-0.7 3.7-0.9 3.4-3.6 0.5-1.1 1.7 0 1.3-3.9 0.4-3.8-0.1-8.4-0.8-4.3-6.9-15.3 3.8-5-2.5-2.2-5.8 0.3-3.4-2.9-0.9-4.9 1.1-3.7 4-5.2 1.7-2.5 5.6-5.9 3.6-2.7 4.4-1.7 5.8-1.5 5.9-0.4 22.3-0.9 12.3-1 10.1-0.2 59.3 3 14.4 2.7 6.9 4.8 3.8 1.6 5.2 1.7 1.7 0.9 2.6 2.1z" id="SUR73" name="Saramacca" data-id="SUR73" data-name="Saramacca">
 </path>
 <path d="M695 27.9l-0.4 4.6 0.6 9 1.8 6.9 1.1 2.5 1.4 2.4 1.8 1.9 4.2 2.7 10.5 3.5 0.7 1.5 3 4.6 3.6 4 4.5 3.3 9.7 3.1 4.8 2.1 2.1 3.3-1.5 1.8-1.4 0.7-12.2-3.7-6.2-0.3-26.2 5.1-8.2 0.2-23.7-2.7-1.5-8.9 0.3-5.9 0.6-2.9 2-1.4 6.9-7.4 15.8-33.4 0.1-0.4 2.5 2 3.3 1.8z" id="SUR74" name="Wanica" data-id="SUR74" data-name="Wanica">
 </path>
 <circle cx="718.5" cy="20.3" id="0">
 </circle>
 <circle cx="660.7" cy="374.3" id="1">
 </circle>
 <circle cx="914.1" cy="84" id="2">
 </circle>
</svg>