<?xml version="1.0"?>
<!--
************* Copyright (c) 2017 Pareto Softare, LLC DBA Simplemaps.com *******************		
************* Free for Commercial Use, full terms at  http://simplemaps.com/resources/svg-license ************
************* Attribution is appreciated! http://simplemaps.com ***************************
-->
<svg baseprofile="tiny" fill="#7c7c7c" height="748" stroke="#ffffff" stroke-linecap="round" stroke-linejoin="round" stroke-width="2" version="1.2" viewbox="0 0 1000 748" width="1000" xmlns="http://www.w3.org/2000/svg">
 <path d="M400.4 250.1l1.8 0.3 0.8 0.3 0.5 0.3 1 0.1 2-0.5 1.3 0.5 0.9 0.1 0.8 0.3 1.5 0.9 1.8 1.7 0.8 0.5-0.3 1-1.8 1.5-1.9 0.9-3.9 1.2-1.8 1.7-1.3 2.7-2.1 9.2-0.9 2.4-36.7 2.6-1.3 0.7-0.9 0.2-0.8 0-5.6-0.7-0.8-0.2-14.5-0.6-9.6 0.9-3.7 0.9-2.4 1.1-1.7 1.3-1.7 2.4-1.8 5-1.1 13.1-1.1 3.7-2.4 4.6-2.5 3.5-1.8 3.7-5.5 24.6-12 3.2-50.8 24.1-9.3 6.3-5.3 2.8-2.2 0.9-2.1 0.5-2.3 0.1-2.9-0.4-3.4-1.3-27.8-18.3-5-4.5-5.1-7.3-3.1-9.6-1.8-11.7-0.3-11.9-4.5-28.9 0.3-56.5 2.8-29.3-0.4-7.1 6.6 2.5 15.9 18.8 16 18.9 3.7 2.4 2.1 1 4.9 0.4 0.9-0.1 32.7-11.2 21.9-0.5 3.8 0.7 12.1 0 6.9 0.8 0.5 0 1.7-0.5 0.5 0 10.9 1.6 8.3-0.5 1.4-0.2 0.9-0.4 8.6 18.1 4.1 4.6 67.5 0.6z" id="SDS147" name="North Bahr-al-Ghazal" data-id="SDS147" data-name="North Bahr-al-Ghazal">
 </path>
 <path d="M567.2 441.9l0.3 0.6 2.3 3.4 0.5 0.4 1.5 0.2 2.1 0.5 0.7 0.3 5.7 4.8 2.8 1.3 1.3 0.9 0.8 0.5 2.1 0.5 0.9 0.5 0.5 0.8 0.3 1.9 0.3 0.8 0.5 0.4 1.5 0.6 0.6 0.5 1.2 1.3 0.6 0.5 1.6 0.7 1.4 1 1.9 2 1.3 2.5 0.8 1.1 1.1 0.5 1.4 0.5 0.7 1.2 0.4 1.5 0.7 1.5 2.6 2.6 0.3 0.7 0.3 1.6 1.5 1 0.5 1.7 0.6 4 0.5 1.7 0.7 1.3 1 0.8 1.5 0.3 1.3 0.6 0.5 1.6 0.3 3.6 0.9 2.3 5.5 6.5 0.7 1.1 0.5 1.3 0.4 1.6 0.3 3.4 2.1 4.3 0.9 3.9 0.7 2.1 1 1 0.9 0.5 0.9 1.2 0.9 1.3 2.5 6.6 0.3 1.7 0.2 1 0.6 1.1 0.8 1 0.8 0.7 0.5 0 0.5-0.4 0.6 0 0.5 1.4-4.3 3.8-3.1-0.4-5.7-3-28.7-5.2-10.3-4.5-15.7-13.4-4.3-0.1-6.2 3.2-7.6 1.5-18.7 1.6-3.7-4.5-8.6-17.5-2.9-3.6-2.9-2.8-1.6-1.3-1.5-0.7-3.7 0.5-17.2 0.3-1.3 0.9-1 1.6-0.2 7.4 0.9 5.4 0.9 3.4 0 3.8-1.5 8.3-1.5 3.9-1.4 2.4-3.2 3-6 7.7-1.7 3.2-2.7 7.8-1 4.1-4.2 2.5-5.9 0.1-37.1-3.7-2.9-0.8-2.9-1.7-1.3-1.7-1.5-1.2-1.8-1-2.3-1-2.9-0.9-2.3-2-6.2-8.2-2.2-3.6-5.1-5.4-3.7-2.1-2.3-2.5-1.4-4.4-1.6-3.2-3.3-5.1-0.7-2-0.3-2.6 0.6-3.1-0.8-4.9-1.1-2.7 1.3-2.9-0.6-3.4 0.9-3.1-0.5-3.7 2-11.4 7 5.3 6.8 2.8 2.9 0.5 2.8-0.1 3-0.4 2.9-0.8 2.8-1.1 2.6-1.6 1.7-2.3 1-1.9 10.4-34.2 1.5-3.1 5.5-8.1 27.8-30.8 10.9-16.8 12.9 1 1.5 0.3 1.4 0.7 0.9 1.2 27 55.8 9.9 3.2 40.9 1z" id="SDS863" name="Lakes" data-id="SDS863" data-name="Lakes">
 </path>
 <path d="M383.1 471.3l-2 11.4 0.5 3.7-0.9 3.1 0.6 3.4-1.3 2.9 1.1 2.7 0.8 4.9-0.6 3.1 0.3 2.6 0.7 2 3.3 5.1 1.6 3.2 1.4 4.4 2.3 2.5 3.7 2.1 5.1 5.4 2.2 3.6 6.2 8.2 2.3 2 2.9 0.9 2.3 1 1.8 1 1.5 1.2 1.3 1.7 2.9 1.7 2.9 0.8 37.1 3.7 5.9-0.1 4.2-2.5 1-4.1 2.7-7.8 1.7-3.2 6-7.7 3.2-3 1.4-2.4 1.5-3.9 1.5-8.3 0-3.8-0.9-3.4-0.9-5.4 0.2-7.4 1-1.6 1.3-0.9 17.2-0.3 3.7-0.5 1.5 0.7 1.6 1.3 2.9 2.8 2.9 3.6 8.6 17.5 3.7 4.5 10.2 9.4 9.4 7.1 3.3 3.3 2 2.6 2.4 3.9 1.7 2 4.9 3.3 6.1 5.8 2.5 4.3 1.9 4.2 0.3 3.6-0.9 3.1-3.9 5.9-1.5 3.7-0.9 4.1-1.3 25.2-0.3 1.7-0.3 1.1-0.5 0.9-1 0.9-1.9 1.1-11.7 3.9-9.7 4.9-3.8 2.9-11.2 11-3 1.4-2.7 0.5-2.2-0.5-2.1-1.3-5.5-5-1.9-1.3-1.9-0.7-2.1-0.1-1.8 0.4-2.2 0.8-1.9 1.4-2.1 1.8-3.2 3.5-15.5 12.2-2.4 1.3 0.4-0.5 0.3-0.9-1-0.6-0.9-0.4-1.9-1.1-0.5-0.3-1.9 0.5-0.7-0.1-1.2-0.7-2.4-2.2-1-0.7-3.6-1.7-1-0.2-2.5 0-2.6-1.1-0.9-0.3-0.5 0.1-1.4 0.6-1.6-1.3-1.8-0.4-1.3 0.3-0.7 1-0.2 3-0.2 1.5 0 0.8-0.1 1-1.6 1.5-0.6 0.8-0.5 2-0.7 1.7-1.1 1.6-4.3 3.7-0.9 1.3-0.8 2-1.3 2-1.4 0.3-1.7-0.3-2 0-1 1-0.2 1.6-0.7 1.4-2.1 0.3-1.9-0.9-5.4-5.5-0.9-0.7-3.4-1.5-0.2 0.1-0.3-1.2-0.9-0.4-4.1-2.7-0.6-0.7-5.2 1.3-1.8 0.2-4-0.4-2.6 0.4-0.9 0-2.1-0.9-0.5-1.6-0.1-1.9-1.2-1.7-1.2-0.3-0.7 0.4-0.7 0.7-1.2 0.6-1.7 0-0.8 0.1-3.5 6.8-1.2 1.7-1.3 0.8-3.5 0.9-1 0.6-0.5 1.9-0.6 0.8-0.8 0.2-2.4-0.3-1.9 0.5-1.3 0.8-3.2 4.3-1.6 1.5-1.8 1.1-1.9 0.2-2-0.6-0.7-0.8-0.3-1.2-0.8-1.8-2.8-2.1-3.6 0.2-3.7 0.7-3.3-0.5-1.6-1.1-1.6-1.6-2.4-3-0.3-1.6-0.6-0.7-1.3-0.1-0.8 0.4-1.4 1.5-0.8 0.1-2.6-3.7-0.7-1.5-0.2-1.6 0.3-1.9 0.4-1.5-0.3-0.9-4.3-0.6-1 0.1-0.5-0.1-0.9-0.9-0.4-0.2-0.8 0.4-0.5 1.4-0.5 0-1.5-0.6-0.4-0.1-2.5 0.4-0.6-0.1-1-0.5-1.5-1.7-0.9-0.7-0.7-0.2-2-0.5-0.4 0-0.6-1.4-0.4-2-0.2-3.5 0.7-4.9-0.3-1.9-0.9-1.7-0.7-0.9-0.8-0.4-0.7 0-1.7 0.5-0.6 0-1.1-0.9-0.5-1.4-0.7-3.6-1.1-2-1.5-0.9-7.5-0.8-1.7-0.6-1.5-1.3-0.5-0.9-0.3-1.8-0.3-0.8-0.8-0.8-2.6-2-1.2-0.6-0.9-0.8 0.5-3.8-0.1-1.1-0.9-1.1-2.4-1.8-1.4-3.3-2.3-2-4.9-3.2-1.7-2.2-1.4-2.5-2.2-5.3-0.4-1.3-0.4-4.2-0.7-2.2-0.2-1 0.2-1.3 3.4-9.3-0.1-0.9 0.1-1.5-0.3-0.7-0.8-0.5-0.6 0-1.5 0.7-0.5-0.1-0.5-0.8 0-0.6 0.4-1.2 0.2-2.5-1.4-1-0.4-0.4-0.5-2.6-0.7-1.3-1-1.1-1.2-0.6-1.7-0.6-0.4-0.6-0.1-0.9-0.6-1.4-0.7-0.6-3.6-1.3-0.8 0-1.5 0.5-0.8 0-0.5-0.4-0.7-1.3-1.5-1.2-1-2.4-0.9-1-3.7 0.9-1.8-0.1-1.1-1.5-0.8-1.9-1-0.2-1.4 0.5-2 0.2-2-0.9-0.6-1.5-0.5-3.8-0.9-1.2-1.6-0.9-6-2.4-6 0.3-2.7-0.4-4.9-1.7-1.4-1.1-0.8-1.5-0.7-1.8-0.9-1.5-1.5-0.4-3.4 2.4-1.4 0.3-0.3-1.8 0.7-1.6 1.4-1.5 1.6-1.2 1.6-0.8 1.4-1.2 0.8-1.5-0.1-1.7-1.1-1.3-1.4-0.3-1.2 0-0.8-0.5 0-2-0.3-2.2-1.3-1-3.5-0.8-1.6-1-2.1-2.7-1.4-1.4-1.6-0.9-1.3-0.5-0.9-0.8-0.6-1.8 0.2-1.5 0.5-1.6-0.2-1.3-1.6-0.5 0.6-1 1.7-1.1 0.7-0.6 1.6-3.4 2.7-3.6 1.4-2.6 0.6-0.8 0-1 2.3-0.4 129.3-15.4 13.6 9.6 0.8 0.4 1.1 0.4 1.1 0.1 42.9-3.6z" id="SDS864" name="West Equatoria" data-id="SDS864" data-name="West Equatoria">
 </path>
 <path d="M639.6 540.2l45.4 2.5-2.1 9.5 0.7 53.4 2 7.5 1.2 3.3 6.8 11.8 1.2 2.9 0.9 3.1-0.1 2.6-1 2.9-1.7 3.2-4.8 7.1-7.9 17.3-3.2 12.5-1.6 3.5-2.1 2.6-2.8 2.8-8.8 6.3-1.6 1.9-1.6 3.1-5.6 15.4-2.1 3.3-0.3 1.5-1.7-0.8-0.4 0.4-6.7 7.6-0.8 0.7-1.6 0.7-8.7 1.3-1.5 0.7-1 1.3-1 0.8-1.6-0.3-17.8-9.7-3.3-1-3.4-0.5-4 0-2.2 0.6-5.4 4.2-0.8 0.3-1.6 0.3-0.8 0.4-2.6 2-1.2 0.6-0.8 0.1-1.7-0.1-0.9 0.3-0.9 0.9-0.4 0.9-0.7 2-5.6 8.1-1.8 3.7-0.4 1.3-1-1.8 0.9-4.3-1.3-1.5-2.6-1.1-1.1-0.8-0.6-1.3-0.2-2.9-0.4-0.8-1.5-1.2-1.3 1-1.4 1.7-1.8 1-2.4 0-1 0.1-1.5 0.5-2.6 1.5-1.1 0.3-1.7 0.2-0.8 0-0.8-0.3-0.9-0.7 0.1-0.4 0.5-0.6 0.4-1 0.7-3.3 0-1.7-2-12.4-1.2-2.2-0.8-0.3-0.8 0.1-1.7 0.4-1.7-0.1-0.8-0.1-3.2-1-6.8-4.1-5.7-1.8-5.5-0.1-1.4-0.5-0.6-0.8-0.1-1.8-0.2-0.9-0.6-0.9-2-2.4-0.8-2-0.4-1.9-0.9-1.7-2-1.1-3.5-0.7-1.3-0.8-1.2-1.8-2-3.8-1.3-1.6-2-1.2-1-0.2-0.9 0-0.9-0.2-0.7-0.8-0.1-1 0.5-0.9 0.7-0.8 0.2-0.9-0.8-1.7-1.8-1.7-2.2-1.3-1.9-0.3-3.9 0.1-2.2-1.9-1-3.1 0-3.7 0.8-2.6 0.1-0.9-0.1-0.7-0.6-1.4-0.1-0.8 0.9-1.3 2.4-1.3 15.5-12.2 3.2-3.5 2.1-1.8 1.9-1.4 2.2-0.8 1.8-0.4 2.1 0.1 1.9 0.7 1.9 1.3 5.5 5 2.1 1.3 2.2 0.5 2.7-0.5 3-1.4 11.2-11 3.8-2.9 9.7-4.9 11.7-3.9 1.9-1.1 1-0.9 0.5-0.9 0.3-1.1 0.3-1.7 1.3-25.2 0.9-4.1 1.5-3.7 3.9-5.9 0.9-3.1-0.3-3.6-1.9-4.2-2.5-4.3-6.1-5.8-4.9-3.3-1.7-2-2.4-3.9-2-2.6-3.3-3.3-9.4-7.1-10.2-9.4 18.7-1.6 7.6-1.5 6.2-3.2 4.3 0.1 15.7 13.4 10.3 4.5 28.7 5.2 5.7 3 3.1 0.4 4.3-3.8z" id="SDS865" name="Central Equatoria" data-id="SDS865" data-name="Central Equatoria">
 </path>
 <path d="M752.6 368.2l-10.2-4.4-1.8-1.3-2.1-2-0.2-2.3 0.5-2.4 2.6-5.6 1.2-3.2 0.7-3.5 0.3-3.5-0.4-4.2-1.3-2.7-2.1-1.9-8.9-4.3-7.2-6.2-4.9-5.9-15-26.5-1.5-3.8-3-6.1-1.7-2.1-1.7-1.1-1.6-0.1-2 0.6-2 1-10.3 6.3-11.3 5.5-2.7 0.7-3.3 0-3.4-1.3-2.9-2.5-28-37.7-1.1-1-0.4-0.2-1 0.1-3.9 1.4-3.7 0.5-1.2-0.2-1.8-0.6-1.5-0.6-0.7-0.7-0.8-1.1-1.8-0.6-3.8-0.4-13.3-3.5-10.3-5.7-3.7-1.3-1.8-0.3 1-20.1 18.1-1 5.9-2.5 18.2-18.1 18.2-18.1 9.3-11.6 2.3-2.4 5.3-8.2 5.5-14.2 1.1-1.6 20-17 19.9-17 1.4-2.7 0.4-2.2-6-11.5-1.3-5.8-0.3-9 1.2-13.9-0.4-8.9-0.2-1-0.4-1.3-0.2-0.5-22.3-25.2 56.2-0.2 0.2-2.1-0.3-2.1-1-3-0.6-4 0-2.3 0.3-2 0-1.2-0.1-1 0.3-0.8 40.3 0.5-0.5 7.1-4.9 16.8 0.1 10-1.1 11.4-0.3 1-1.1 2.4-1 1.4-1.1 1.4-0.7 1.3 0 1.3 4.2 32 4.2 32-0.4 1.6-0.3 1-2.2 4-0.6 1.3-0.1 1 0.9 0.7 18.6 6.9 0.9 0.5 0.7 0.5 6.7 8.2 18.3 15.2 18.4 15.1 1.2 1.5 3.8 9.5 0.4 1.4 0.2 2.3-0.1 1.8-1 5.7 0.3 2.5 0.7 1.7 0.5 2-0.1 1.1-0.3 0.9-5.4 10.9-1.8 7.8-0.5 6.6 0.3 3.8 0.6 2.4 0.5 1 0.5 0.3 14.4 0.1 3.5 70.9-0.7 4.1-1.1 1.9-1.8 2-8.3 7.5-1.8 1.1-1.5 0.4-4.8 0-2.9 0.4-1.4 0.4-1.4 0.5-0.9 0.6-3.5 3.1-1.3 0.2-3.8-0.5-2.1-2.3-1.6-2.9-2.7-2.3-1.7-0.2-1.2 0.5-1.2 0.6-1.6 0.3-1.3-0.5-1.3-1.1-1.4-0.8-1.7 0.1 0.4 0.6 0 0.3-0.8 0.5-5.7 0.7-1.1-0.3-0.7 0.1-0.6 0.3-1.2 0.9-0.8 0.3-9.2-2-1.5 0.2-2.4 2.1 0.3 0.9-0.6 0.5-1.3 0.3-1.1 0.5-0.4 0.6-0.1 0.7 0 1.5-0.6 0.9 0.2 0.8 0.7 0.5 0.2 0.3-0.2 1-0.8 1.6-0.1 0.7 0.3 1 1.1 1.5 0.7 0.9 0.7 0.5 1.2 0.4-0.1 1.1-0.6 0.5-0.8 0.3-0.8 0.5-0.6 1-0.4 0.8-0.1 0.8 0 1.2 0.2 0.5 1.2 0.8 0.2 0.5-0.2 1.7-0.7 1.2-1 0.8-1.5 0.7-2.5 0.4-0.4 0.5-0.1 0.7-0.9 1.7-4.8 4.9-1.1 1.4-0.4 0.9-0.4 1.8-0.8 1-0.4 0.8z" id="SDS869" name="Upper Nile" data-id="SDS869" data-name="Upper Nile">
 </path>
 <path d="M577.6 233.5l1.8 0.3 3.7 1.3 10.3 5.7 13.3 3.5 3.8 0.4 1.8 0.6 0.8 1.1 0.7 0.7 1.5 0.6 1.8 0.6 1.2 0.2 3.7-0.5 3.9-1.4 1-0.1 0.4 0.2 1.1 1 28 37.7 2.9 2.5 3.4 1.3 3.3 0 2.7-0.7 11.3-5.5 10.3-6.3 2-1 2-0.6 1.6 0.1 1.7 1.1 1.7 2.1 3 6.1 1.5 3.8 15 26.5 4.9 5.9 7.2 6.2 8.9 4.3 2.1 1.9 1.3 2.7 0.4 4.2-0.3 3.5-0.7 3.5-1.2 3.2-2.6 5.6-0.5 2.4 0.2 2.3 2.1 2 1.8 1.3 10.2 4.4-1.2 1.4-0.3 0.9 2.1 5.7 0.7 1.3 1.5 0.9 0.6 1.5 0.3 0.5 0.6 0.3 2.3 0.2 1.8 0.9 1.2 0.1 0.5-0.7 0.4-0.2 2.8-0.6 0.7 0.1 2.4 1 2.7 0.4 0.8 0.2 1.3 1.2 1.3 1.5 1.5 1.4 4.7 1.2 1.1 0 2.1-1.4 0.7-0.4 3.7-0.7 2.2-0.1 1.4 0.6 0.8 0.6 1.5 0.4 0.9 0.4 0.8 0.8 1.2 1.5 0.8 0.7 1.9 0.5 5.4-0.5 0.9 0.2 2.3 1.5 2.7 0.8 0.8 0.4 1.1 1.3 2.7 3.7 4.3 3.2 0.8 0.2 1.8 0.2 0.9 0.2 2.5 1.5 10.5 10.8 1.4 2.3 0.6 2.9 0.1 8 0.2 0.4 0.5 0.3 3.9 3 2.3 2.9 1.6 1.2 1.6-0.3 1.4-0.7 1.2 0.7 0.8 1.5 0.4 1.8 0 3.5 0.2 2 0.7 0.8 0.6 0.2 0.5 0.5 0.9 1.1 3.4 2.6 0.4 0.5 0.5 1.5 1.1 0.6 0.3 0.3 12 2.9 5.4 3.8 0.8 1.2 0.5 1.2 0.4 1.5 0.1 1.7-1.1 0.9 0.1 0.5 0.4 1.2 0.6 3.5 1 0.9 1.5 0.3 3.6 0 1.8 0.2 1.5 0.6 5.7 3.8 0.6 0.9 0.4 1.6 1 1.2 0.6 0.3 1.7 6.9 1.9 4.9 0.7 4.9 0.7 1.7 3.4 5.8 0.5 2.2 0.1 5 0.4 1.7 3 5.2 1.6 4.2 1.4 1.6 1.6 1.5 1.4 1.8 0.7 1.7 0.7 4.5-66 19.8-167.4-10.3-45.4-2.5-0.5-1.4-0.6 0-0.5 0.4-0.5 0-0.8-0.7-0.8-1-0.6-1.1-0.2-1-0.3-1.7-2.5-6.6-0.9-1.3-0.9-1.2-0.9-0.5-1-1-0.7-2.1-0.9-3.9-2.1-4.3-0.3-3.4-0.4-1.6-0.5-1.3-0.7-1.1-5.5-6.5-0.9-2.3-0.3-3.6-0.5-1.6-1.3-0.6-1.5-0.3-1-0.8-0.7-1.3-0.5-1.7-0.6-4-0.5-1.7-1.5-1-0.3-1.6-0.3-0.7-2.6-2.6-0.7-1.5-0.4-1.5-0.7-1.2-1.4-0.5-1.1-0.5-0.8-1.1-1.3-2.5-1.9-2-1.4-1-1.6-0.7-0.6-0.5-1.2-1.3-0.6-0.5-1.5-0.6-0.5-0.4-0.3-0.8-0.3-1.9-0.5-0.8-0.9-0.5-2.1-0.5-0.8-0.5-1.3-0.9-2.8-1.3-5.7-4.8-0.7-0.3-2.1-0.5-1.5-0.2-0.5-0.4-2.3-3.4-0.3-0.6-0.2-0.6-0.3-1.6-0.6-1-4-2.2-1.8-2.3-1-0.8-0.5-0.5-0.4-2.7-0.5-1-0.8-1-0.8-1.7-0.6-2.3-1.4-1.6-0.5-1.3-0.4-3.5-0.9-1.7-2.6-2.8-0.6-1.6-0.2-1.1-0.7-0.2-0.7 0-0.7-0.2 0.1-1.4-0.1-0.3-2.5-2.3-0.6-0.8 0.5-0.4 1-0.1 0.7-0.3 0.2-0.7 0.1-1-0.3-1.6-0.7-1.6-1-1.3-1.9-0.8-0.1-0.9 0.1-0.9-0.1-0.8-0.6-0.5-1.3-1.1-0.5-0.7 0.2-0.7 1.1-1.1-0.7-1.6 0.7-3.9 1.1-1.5 1-1.1 0.2-0.6-0.7-0.7 0-0.6 0.7-0.1 1.1-0.4-1.6-0.5-0.7-0.1 0-0.6 1.2-0.8-0.6-0.5-1.2-0.6-0.6-0.7 0-2.4-0.2-0.6-0.8-0.5-0.9-3.1-5.1-6 1-0.8-1-1.6-1.7-1.9-1.1-1.6-0.1-1.2 0.1-1.3-0.1-1.2-0.6-0.9-1-0.1-1.1 0.5-0.7-0.1 0-1.5-2.2 1-1.2-2.7-0.3-3.6 0.5-1.8 1.4-0.4-0.2-1-0.6-1 0-0.4 1.5-0.6-0.1-1.3-1.7-2.8 0.6-0.3 1.7-0.9-0.5-0.9-0.4-2.4-0.8-0.9 0.6-2.3 0.4-0.5 1.1-0.7 0.4-2.3 0.5-1.2 0.1-1.2-0.8-1.7-0.3 0-1.1 0.1-0.4-0.4 0.1-1.1 0-0.4-2.5-1.6-0.4-0.4-0.3-0.9-1.2-1.3-0.3-0.7 0.3-1.1 0.4-0.9 0.1-0.7-0.8-0.6 0 1.2-0.5 0 0-1.1 0.3-1 0.8-2 1.7-2.1 0.6-1.3 0-1.3-0.5-0.7-1.8-0.5-3.4-3.1-0.7-0.9-0.6-1.2 1.1-0.8 0.9-1 0.3-1.1-0.5-1.3-0.6 0.6-0.5-1.4 0.2-2.9-0.2-1.5-0.4-0.7-1-1-0.4-0.7-0.1-0.5 0.1-1.8-0.3-1.4-1-1.7-0.4-1-0.2-1.5 0.2-1.4 0.5-1.1 0.6-0.8 0.5-0.2 1.9-0.4 1.5-1.5 0.3-0.6 0.2-1.5 0.2-0.5 0.5-0.3 1.2-0.4 0.6-0.4 1-1 0.3-0.9 0.5-2.8 0.8-1.6 1.1-0.8 1.2-0.7 1-1.1-0.6-0.6 0.2-0.5 0.6-0.5 0.3-0.6 0-5.6-0.1-1.3-0.6-0.5-0.7-0.2-0.9-0.7-1-2.1 0.9-0.9 1.6-0.6 0.8-1.4 0.5-1.9 0.9-1.2 1.2-0.9 0.9-1 0.9-2.8 0.8-0.9 1.5-0.4 1.2-0.4 0.9-1 0.8-1.2 0.9-0.9 1.4-0.7 1.6-0.3 10.3 0.4 10.8 2.6 3.7 0.4 6.7 0 1.3-0.3 2.3-1.2z" id="SDS870" name="Jungoli" data-id="SDS870" data-name="Jungoli">
 </path>
 <path d="M578.6 213.4l-1 20.1-2.3 1.2-1.3 0.3-6.7 0-3.7-0.4-10.8-2.6-10.3-0.4-1.6 0.3-1.4 0.7-0.9 0.9-0.8 1.2-0.9 1-1.2 0.4-1.5 0.4-0.8 0.9-0.9 2.8-0.9 1-1.2 0.9-0.9 1.2-0.5 1.9-0.8 1.4-1.6 0.6-0.9 0.9 1 2.1 0.9 0.7 0.7 0.2 0.6 0.5 0.1 1.3 0 5.6-0.3 0.6-0.6 0.5-0.2 0.5 0.6 0.6-1 1.1-1.2 0.7-1.1 0.8-0.8 1.6-0.5 2.8-0.3 0.9-1 1-0.6 0.4-1.2 0.4-0.5 0.3-0.2 0.5-0.2 1.5-0.3 0.6-1.5 1.5-1.9 0.4-0.5 0.2-0.6 0.8-0.5 1.1-0.2 1.4 0.2 1.5 0.4 1 1 1.7 0.3 1.4-0.1 1.8 0.1 0.5 0.4 0.7 1 1 0.4 0.7 0.2 1.5-0.2 2.9 0.5 1.4 0.6-0.6 0.5 1.3-0.3 1.1-0.9 1-1.1 0.8 0.6 1.2 0.7 0.9 3.4 3.1 1.8 0.5 0.5 0.7 0 1.3-0.6 1.3-1.7 2.1-0.8 2-0.3 1 0 1.1 0.5 0 0-1.2 0.8 0.6-0.1 0.7-0.4 0.9-0.3 1.1 0.3 0.7 1.2 1.3 0.3 0.9 0.4 0.4 2.5 1.6 0 0.4-0.1 1.1 0.4 0.4 1.1-0.1 0.3 0 0.8 1.7-0.1 1.2-0.5 1.2-0.4 2.3-1.1 0.7-0.4 0.5-0.6 2.3 0.8 0.9 0.4 2.4 0.5 0.9-1.7 0.9-0.6 0.3 1.7 2.8 0.1 1.3-1.5 0.6 0 0.4 0.6 1 0.2 1-1.4 0.4-0.5 1.8 0.3 3.6 1.2 2.7 2.2-1 0 1.5 0.7 0.1 1.1-0.5 1 0.1 0.6 0.9 0.1 1.2-0.1 1.3 0.1 1.2 1.1 1.6 1.7 1.9 1 1.6-1 0.8 5.1 6 0.9 3.1 0.8 0.5 0.2 0.6 0 2.4 0.6 0.7 1.2 0.6 0.6 0.5-1.2 0.8 0 0.6 0.7 0.1 1.6 0.5-1.1 0.4-0.7 0.1 0 0.6 0.7 0.7-0.2 0.6-1 1.1-1.1 1.5-0.7 3.9 0.7 1.6-1.1 1.1-0.2 0.7 0.5 0.7 1.3 1.1 0.6 0.5 0.1 0.8-0.1 0.9 0.1 0.9 1.9 0.8 1 1.3 0.7 1.6 0.3 1.6-0.1 1-0.2 0.7-0.7 0.3-1 0.1-0.5 0.4 0.6 0.8 2.5 2.3 0.1 0.3-0.1 1.4 0.7 0.2 0.7 0 0.7 0.2 0.2 1.1 0.6 1.6 2.6 2.8 0.9 1.7 0.4 3.5 0.5 1.3 1.4 1.6 0.6 2.3 0.8 1.7 0.8 1 0.5 1 0.4 2.7 0.5 0.5 1 0.8 1.8 2.3 4 2.2 0.6 1 0.3 1.6 0.2 0.6-40.9-1-9.9-3.2-27-55.8-0.9-1.2-1.4-0.7-1.5-0.3-12.9-1-3.1-49.8-0.7-1.8-1.4-1.8-24.2-16.8-21.6-33.2-4.8-1.5-17.3 1.4 0.9-2.4 2.1-9.2 1.3-2.7 1.8-1.7 3.9-1.2 1.9-0.9 1.8-1.5 0.3-1-0.8-0.5-1.8-1.7-1.5-0.9-0.8-0.3-0.9-0.1-1.3-0.5-2 0.5-1-0.1-0.5-0.3-0.8-0.3-1.8-0.3-1-2.2-0.4-3 0.1-3.7 1.8-3.3 5.4-5.4 6.4-5 1.7-1.3 10.4-5.6 10.2-3.7 19.5-4.3 7.1-6.9 3.9-6.3 0.2-12.3 2.6-2 4.6-2.9 22.6-11 3.8-2.4 39.9 25.7 22.4 20.3 1.3 1 1.2 0.3 1.2-0.7 1-0.9 1.6-0.6 1.1-0.3 9.6-0.2z" id="SDS871" name="Unity" data-id="SDS871" data-name="Unity">
 </path>
 <path d="M472.7 378.7l-10.9 16.8-27.8 30.8-5.5 8.1-1.5 3.1-10.4 34.2-1 1.9-1.7 2.3-2.6 1.6-2.8 1.1-2.9 0.8-3 0.4-2.8 0.1-2.9-0.5-6.8-2.8-7-5.3-3.4-19.6-0.7-10.6 1.5-13.4 0.2-13.8-0.4-3.3-1-2.1-3.3-2.7-0.7-1.6 0.4-1.7 0.9-2.2 0.1-2.2-1.2-2-2.7-1.5-3.6-1.3-10.7-5.9-7-5.4-6.1-3.8-4.1-1.8-12.8-2.2-1.7-0.7-1.2-0.9-2-1.9-5.2-6.7-11-18.1-3.7-3.9 5.5-24.6 1.8-3.7 2.5-3.5 2.4-4.6 1.1-3.7 1.1-13.1 1.8-5 1.7-2.4 1.7-1.3 2.4-1.1 3.7-0.9 9.6-0.9 14.5 0.6 0.8 0.2 5.6 0.7 0.8 0 0.9-0.2 1.3-0.7 36.7-2.6 17.3-1.4 4.8 1.5 21.6 33.2 24.2 16.8 1.4 1.8 0.7 1.8 3.1 49.8z" id="SDS872" name="Warap" data-id="SDS872" data-name="Warap">
 </path>
 <path d="M168.5 193.1l0.4 7.1-2.8 29.3-0.3 56.5 4.5 28.9 0.3 11.9 1.8 11.7 3.1 9.6 5.1 7.3 5 4.5 27.8 18.3 3.4 1.3 2.9 0.4 2.3-0.1 2.1-0.5 2.2-0.9 5.3-2.8 9.3-6.3 50.8-24.1 12-3.2 3.7 3.9 11 18.1 5.2 6.7 2 1.9 1.2 0.9 1.7 0.7 12.8 2.2 4.1 1.8 6.1 3.8 7 5.4 10.7 5.9 3.6 1.3 2.7 1.5 1.2 2-0.1 2.2-0.9 2.2-0.4 1.7 0.7 1.6 3.3 2.7 1 2.1 0.4 3.3-0.2 13.8-1.5 13.4 0.7 10.6 3.4 19.6-42.9 3.6-1.1-0.1-1.1-0.4-0.8-0.4-13.6-9.6-129.3 15.4-2.3 0.4-0.1-1.9-4.1-2.3-5-1.9-2.9-1.5-1.5-1.5-3.4-2.4-2.6-3.3-1.4-0.6-1.5-0.4-1.9-1.2-0.9-1-0.3-0.9-0.1-1-0.4-1.1 0-0.5 0.2-1-0.4-0.3-1.5 0.2-0.5-0.3-0.8-1.9-0.3-4.4-0.5-2-3.8-0.3-1-0.2-0.3-1.2-0.5-0.6-0.8-0.4-1.7-0.2-0.9-0.3-2.6-1.5-0.4-0.7-0.2-1.6-0.4-0.7-1.4-0.7-3.8-0.3-1.3-0.5-0.7-1.4 0-1.1-0.5-0.7-2.1-0.1-0.9-0.2-1.4-1.4-0.8-0.4-1.7 0.1-0.6-0.2-2.1-1.7-1.6-0.6-5.2-1.4-1.3-0.7-3.8-3.5-1.3-0.8-1.4-0.2-1.6 0.6-2.2-1.1-3.3-2.5-4.7-2.4-1.2-0.8-0.9-1.2-0.4-1.2-0.6-2.5-0.7-1.2-0.5-0.4-1.4-0.5-0.7-0.3-0.5-0.6-0.8-1.4-0.5-0.6-1.2-0.7-5-2.7-1.8-4.3-0.4-1.3 0.1-1.1 1.8-1.7 5.6-1.9 1.9-1.7 0.3-1.5-0.2-1.3-0.5-1.1-0.3-1.3 0.3-3.7-0.1-1.2-0.4-1.5-1.3-2.3-0.8-2.7-0.9-1.3-1.1-1.1-2.1-0.7-0.9-1-0.7-0.4-2-0.3-1.2 0-2.7 0.6-1.1 0.1-2.6-1-2.5-1.9-4.1-4.6-1.4-0.9-1-1.2-0.2-1.5-1.7-1.8-0.2-3-0.8-1.4-7.3-6.7-2.7-1.3-4.9-0.5-2.7-1.5-1.7-0.2-1.6-0.1-4.8-0.8-5.9 0.9-2.7-0.1-2.7-1.7-0.8-0.1-0.6-0.4-0.5-0.6-0.3-0.7-2-2-2.9 0.3-5.5 1.9-0.4-0.2-1.4-1.1-0.7-0.4-1.8-0.1-2-0.2-3-0.7-1.3-0.5-2.3-1.2-2.3-1.8-1.8-2.1-0.8-2.5 0.3-2.8 1-2.9 4.8-8 0.8-0.9 3.4-2.3 0.6-0.8-0.4-1.1-2.3-1.8-0.6-1.2 0.3-1.2 1.6-2.3 0.2-1.2-1.6-0.8-3.1 0.1-0.5-0.5 0.2-1.2 0.5-0.7 4.9-3.7 2.5-1.2 9.3-5.9 1.9-0.4 7.7-0.8 4.1-1.4 0.9-0.5 0.4-0.5 0-9.2 0.1-0.5 0.5-1.3 7.7-13.1 0.4-1.2 1.6-16.4 0.6-1.6 0.7-1 2.5-2.2 5.1-5.9 0.7-1.9 0.1-1-0.1-22.9 0.3-1.8 0.6-0.8 2-0.3 1.5-0.8 2.9-2.4 2.9-1.8 1.1-1.3 2.3-3.1 1.2-1.2 0.7-1 0.7-1.6 0.5-1.5 2.2-4.6 0.9-2.5 0.1-1.5-0.2-0.9-0.7-1.6-0.3-1.4 0.2-1.6 4.3-9.2 0.8-1.1 0.6-0.5 1.9-0.6 1.2-0.5 0.9-0.2 2.2 0.2 0.9-0.2 2.1-0.8 1.5 0.1 1.3-0.4 1.2-0.2 1 0.2 1.3 0.5 1.5 0.3 1.3-0.4 1.3 0.1 1-0.1 2-0.9 2.5-0.2 3-1.1 2-0.3 3.4 0.1 2.2-0.5 6.3-2.2 3.6-0.9 0.5-0.1 2.7 0 2-0.3 1.8-0.4 3.4 0.1 1.4-0.3 1.8-0.9 3.8-1 0.9-0.1 0.3 0.3 3.7 4.6 0.4 0.7 0.3 0.9 0.5 13.3 0.4 0.8 1.2 1.2 3 1.8 1.3 0.5 2.3 0.7 1.1 0.8 0.5 0.7 5 8.4 1 1.2 1.2 1.3z" id="SDS873" name="West Bahr-al-Ghazal" data-id="SDS873" data-name="West Bahr-al-Ghazal">
 </path>
 <path d="M650.5 720.2l0.3-1.5 2.1-3.3 5.6-15.4 1.6-3.1 1.6-1.9 8.8-6.3 2.8-2.8 2.1-2.6 1.6-3.5 3.2-12.5 7.9-17.3 4.8-7.1 1.7-3.2 1-2.9 0.1-2.6-0.9-3.1-1.2-2.9-6.8-11.8-1.2-3.3-2-7.5-0.7-53.4 2.1-9.5 167.4 10.3 66-19.8 0.2 1-0.9 1.8-0.3 1-0.1 0.9 0.5 1 1.4 1.5 0.2 0.9-0.2 1.2-0.4 1.9 0.2 1.2 0.8 1.8 6.8 9.8 1.2 2.2 0.8 5 0.9 1.6 3.7 2.8 6.8 4 3.3 2.6 1 2.7-0.5 1-0.8 0.9-0.6 0.9-0.1 1 0.4 0.8 2.7 4.4 1.3 1.4 1.5 0.8 2.1-0.3 1.9-1.4 3.4-3.7 1.9-1.3 1.5-0.3 1.8 0 1.8 0.2 1.5 0.4 1.9 1.2 3.7 2.9 2 0.6 2-0.4 1.5-0.8 1.6-0.3 2.1 0.6 5.6 3.4 4.6 1.8 0.5 0.7-2.3 3.4-0.6 2 0.3 1.6 1.6 3.2 0.8 2.1 0 1.7-0.7 1.7-3.2 4.1-0.5 1.1-0.3 17.8 0.7 4.1 2.1 3.5 11.5 12.3-11.8 0-0.2-5-3.3-0.2-2.4 1.6-0.5 3.6-0.4 2.6-7.6-2.6-7.5-13.7 4.1-10.5-6.4-1.8-8.4 0 3.2-6.6-1.9-2.3-12.5 7-1.5-2.8-40.8 15.4-8.2 3-11.6 5.8-12.5 6.5-34.2 33.9-6.9 6.9-6.9 7-9.5 9.5-14.3 14.4-3.5 2.1-3.7 0.5-21.3-1.1-2.6-0.5-1.8-1-10.7-8.7-1.7-0.7-1.5 0.5-5.1 3.8-6.7 3.4-7.1 2.2-28.8 2.3-3.7 0.9-15.5 9.5-1 1.1-0.1 1.1 0.3 3 0 1.4-0.4 1.7-0.5 0.7-1 0.1-5.4-1.1-1.4-0.7-1.3-1.4-1.6-2.6-1-0.5-7.3-0.5-1.1-0.6-0.6-1.4-0.3-3.9-0.3-1.6-1.2-2-6-6.8-2.1-1.7-0.5-0.2z" id="SDS892" name="East Equatoria" data-id="SDS892" data-name="East Equatoria">
 </path>
 <circle cx="682" cy="225" id="0">
 </circle>
 <circle cx="485.5" cy="499.1" id="1">
 </circle>
 <circle cx="377.8" cy="343.4" id="2">
 </circle>
</svg>