<?xml version="1.0"?>
<!--
************* Copyright (c) 2017 Pareto Softare, LLC DBA Simplemaps.com *******************		
************* Free for Commercial Use, full terms at  http://simplemaps.com/resources/svg-license ************
************* Attribution is appreciated! http://simplemaps.com ***************************
-->
<svg baseprofile="tiny" fill="#7c7c7c" height="1673" stroke="#ffffff" stroke-linecap="round" stroke-linejoin="round" stroke-width="2" version="1.2" viewbox="0 0 1000 1673" width="1000" xmlns="http://www.w3.org/2000/svg">
 <path d="M155.1 1618.2l-33.3 0.7-4.5-0.7-10.6 35.8-10.4 13.9-13-15.7-7.3 17.5-10.3 2.3-10.2-9.5-6.2-17.7 1.6-1.3 4.9-17.2 0.3-8.1-3.3-10.2-10.9-10.2-35.3-113.6-5.6-9.7 4.6-8.8 1.8-8.8 0.4-20.1 2.4-7.9 19.3-23 4-9 3.5-12.6 35.2-35.4 7.7-3.7 37.4-12.7 31.1-25.7 32.2-20.3 39.5 3.6 22.3 15.3 23.2 24.8 19 28.8 10.3 27.1 4.4 26.6-0.4 15.8-4 18.2-7.9 19.3-8.4 12.1-24.5 23.1-12.4 15-28.5 46.9-15.3 4.5-5.8 4.2 6.6 17.2-7.4 4.1-18.9 4.7-15.4 17.3-1.9 3.1z" id="STP4861" name="São Tomé" data-id="STP4861" data-name="São Tomé">
 </path>
 <path d="M970.8 85.3l1.1 22.6-5 19.8-5 10-7.3 4.2-12.4 2-3.6 5.8 0.4 8.6-3.8 7.1-4.7-10.4-13 7.4-8.7-16.1-13.8-4.8-14.6-1-11.2-5.4-3.2-30.8 0.8-18.4 9.2 1.6 16.6-6.9 8-9.4 2.4-12.4 0.1-16.2 5.3-19.1 13.4-15.1 17.6-7.4 18.2 4.1 27.4 2.5 11 4.8 3 13.8-5.4 4.5-11.2 4.5-11.2 6.6-6.1 11 14.8 2.4 13.1 7.1 5 7.5-9.1 3.4-14.3 3.5-3.8 8.6z" id="STP4862" name="Príncipe" data-id="STP4862" data-name="Príncipe">
 </path>
 <circle cx="936.5" cy="50.7" id="0">
 </circle>
 <circle cx="155.5" cy="1496.6" id="1">
 </circle>
 <circle cx="138.9" cy="1347.1" id="2">
 </circle>
</svg>