<?xml version="1.0"?>
<!--
************* Copyright (c) 2017 Pareto Softare, LLC DBA Simplemaps.com *******************		
************* Free for Commercial Use, full terms at  http://simplemaps.com/resources/svg-license ************
************* Attribution is appreciated! http://simplemaps.com ***************************
-->
<svg baseprofile="tiny" fill="#7c7c7c" height="919" stroke="#ffffff" stroke-linecap="round" stroke-linejoin="round" stroke-width="2" version="1.2" viewbox="0 0 1000 919" width="1000" xmlns="http://www.w3.org/2000/svg">
 <path d="M65.8 281.9l0.1 0.7-0.4 1.2-0.5 1.2-0.1 0.7 0.1 0.7 0.1 0.6 0.7 0.5 1 0.4 2.1 0.2 1.2 0 0.8-0.2 1.3-0.5 1.3-0.3 10.2-0.5 0.7 0.2 0.6 0.4 0.5 0.7 0.3 0.7 0 0.8-0.2 0.7-1.1 1.5-3.8 2.6-2.4 2.1-0.6 1.6-0.3 4.7-0.3 1.2-0.4 0.8-2.3 1.6-1.5 1.5-0.4 1-0.1 0.8 0.3 0.5 1.7 2.5 0.6 1.1 0.3 1.2 0.4 2 0.4 5.8-0.5 12.3-2.9 20.3 0.1 0.7 0.9 3.5 2.5 7.2 3.8 18.6 0.4 7.1-5.7-2.8-2-0.2-2.1 1.2-1.1 0.6-0.6 0.2-22.6 1.8-1-0.3-4.3-3.8-2.4-1.5-6.4-2.2-2.4-4.8 2-6.2-0.7-3.1-1.1-12 0.3-2.6-1.5-1.5-7.2-9.8-3.1-1.5-1.5-1.2-0.6-1.8-1.2-1-2.4 0.4-2.3 0.8-0.8 0.5-1.6-0.8 0.2-2.1 0.8-2.5 0.1-2.3-0.9-0.9-5.2-2.8 0.2-1 0.3-1.8 0.4-1-0.9 0-2.1 1.1 0-1.1 3-1.1 3-1.9 2.3-2.7 0.8-3.3-0.3-2-1.3-2.6-0.3-2.2 0.8-1.4 3.5-1.2 5.8-11.2 0.2-1 0-4.3-0.6-3.5-1.6-4.4-2-4-2-2.7 7.2 0.5 3.6-0.9 1.5-2.7 0.7-3.6 3.9-5.9 1.4 0.5 3-0.6 3-1.1 2.9-0.5 1.9 2.2 0 2.4-0.4 2.4 0.3 2.2 1.8 1.5 2.3 0.6 4.7 0.1 4.4 2.1 8.8 6.4 2.5-0.5z" id="SYR134" name="Lattakia" data-id="SYR134" data-name="Lattakia">
 </path>
 <path d="M80.4 392.3l0.1 3.5 1.7 21.7 0.1 2.8-1.3 4.3-0.4 1-0.6 0.7-1 0.7-0.5 0.5-1 1.2-0.6 0.3-2.1 0.2-0.6 0.2-1 0.7-0.5 0.2-1.4 0.3-0.6 0.1-0.6 0.3-0.9 0.7-0.5 0.4-0.6 0.1-0.6 0-1.4-0.3-1.5 0.1-1.6 0.9 1.1 5 7 1.4 2.4 0.1 5.8-0.6 1.3 0.3 0.9 0.4 0.9 2.3 0.6 2.5 0.5 1.2 0.3 0.5 0.5 0.6 3.9 2.7 0.7 1 0.6 1.2-2.8 0.8-1.2 0.5-0.7 0.6-0.4 0.4-0.4 1.3-0.4 1.6-0.1 0.8 0 0.6 0.3 1.8 0 1.2 0 0.4-0.3 0.5-0.5 0.7-3.9 3.4-2.3 3-0.7 0.6-0.5 0.4-0.9 0.3-0.3 0.1-0.5 0.4-3.4 4.8-10.3 18.6-0.3 1.2-0.2 3.6-0.4 2-3.7-0.3-4 0.6-3.4-0.1-3.3-1-2.6-2.1-1.1-0.5-1.3-0.4-1.9 0.1-0.7-3.4-2.7-5.7-1-4.9-1.4-2.7-0.4-1.6 0-7.5-0.4-1.1-2.6-4.5-0.6-1.9-0.8-3.8-4.9-13.1 0.9-0.5 0.1-0.8 0.9-1.2 0.3-1.3-0.3-1.2-0.9-1.2 0-1.3 0.8-0.8 0-0.1-0.3-0.3-0.5-1.3 1.2-2.6 0.9-1.3 1.2-1.2 0.8-2.8-0.5-2.7-0.9-2.4-0.5-2.1 0-8.8 0.9-2.2 7.1-10.9 3.1-3.2-1.3-4.9-3.3-6.8 6.4 2.2 2.4 1.5 4.3 3.8 1 0.3 22.6-1.8 0.6-0.2 1.1-0.6 2.1-1.2 2 0.2 5.7 2.8z" id="SYR135" name="Tartus" data-id="SYR135" data-name="Tartus">
 </path>
 <path d="M558.7 119.9l3.5 10.6 1.4 3 7.6 9.9 2 1.8 1.3 0.6 1.5 0.4 1.6 0.1 2.7-0.3 1.3-0.3 2.3-1 0.7-0.1 0.6-0.1 0.8 0 0.7 0.2 13.8 5.7 9.3 5.3 1.7 1.7 0.9 1.5 0.3 0.6 0.1 0.8 0.3 2.4-9.8 44-14.6 67.4-1.6 11.4 0 2 1 0.4 4.4 2.9 1.2 0.6-1.3 2.5-63.6 93.7-83.7-22.6-44.1-3.5-13.3 1.6-2.3-3.5-1.7-1.9-6-4.4-28.8-30.9-2.2-2.9-0.4-0.6-0.3-0.8-0.3-1.2-0.1-1 0-0.9 0.8-6.5 3.8-16.8 4.3-10.3 1.3-2.2 0.7-1 0.4-0.5 5.8-8.3 3-3 0.7-1 0.3-0.5 1.1-2.6 0.7-2.2 0.2-0.5 0.3-0.8 0.3-1 0.2-1.9-0.2-1.1-0.6-0.8-6-5-0.1-0.2-1.9-3.3-1.9-2.5-2.2-2.3-1.4-1.8-1.3-2.7-1.9-5.5-0.6-3-0.2-2.3 0.2-1.3 0.4-1.3 0.6-1.3 3.2-5.1 1.9-4.4 1.4-2.6 1.6-2.3 1.6-1.8 0.9-0.6 2.5-1.5 6.2-3.1 4.1-1.1 5.6-0.2 24.8-4.1 12.3-6.8 9.8-7 1.8-1.7 1.4-1.5 5.7-8.6 1.8-3.7 0.9-3.2 1.2-6.4 0-0.1 1.1-5.4 0.7-5.3 0.2-12.5-0.1-0.7-0.1-0.7-0.3-0.6-0.3-0.4-0.5-0.4-0.7-0.2-0.6-0.1-0.6 0.2-1.1 0.6-3.6 3.2-1.5 1-1.2 0.5-0.7 0-0.6 0-0.5-0.2-0.5-0.4-0.5-1-0.6-1.6-0.7-3.3-0.1-1.6 0.1-1 0.6-0.3 0.6-0.2 7.5-1.1 0.7-0.4 0.7-0.7 0.9-1.7 0.3-1.1 0.1-1-0.1-0.7-2-8.4 4.4 4.6 9.1 4.8 10.6 1.4 24.4-1.2 3.3-1 7.8-0.5 23 7.8 8.1-0.4 30.3-5.8z" id="SYR136" name="Ar Raqqah" data-id="SYR136" data-name="Ar Raqqah">
 </path>
 <path d="M437.7 110.2l2 8.4 0.1 0.7-0.1 1-0.3 1.1-0.9 1.7-0.7 0.7-0.7 0.4-7.5 1.1-0.6 0.2-0.6 0.3-0.1 1 0.1 1.6 0.7 3.3 0.6 1.6 0.5 1 0.5 0.4 0.5 0.2 0.6 0 0.7 0 1.2-0.5 1.5-1 3.6-3.2 1.1-0.6 0.6-0.2 0.6 0.1 0.7 0.2 0.5 0.4 0.3 0.4 0.3 0.6 0.1 0.7 0.1 0.7-0.2 12.5-0.7 5.3-1.1 5.4 0 0.1-1.2 6.4-0.9 3.2-1.8 3.7-5.7 8.6-1.4 1.5-1.8 1.7-9.8 7-12.3 6.8-24.8 4.1-5.6 0.2-4.1 1.1-6.2 3.1-2.5 1.5-0.9 0.6-1.6 1.8-1.6 2.3-1.4 2.6-1.9 4.4-3.2 5.1-0.6 1.3-0.4 1.3-0.2 1.3 0.2 2.3 0.6 3 1.9 5.5 1.3 2.7 1.4 1.8 2.2 2.3 1.9 2.5 1.9 3.3 0.1 0.2 6 5 0.6 0.8 0.2 1.1-0.2 1.9-0.3 1-0.3 0.8-0.2 0.5-0.7 2.2-1.1 2.6-0.3 0.5-0.7 1-3 3-5.8 8.3-0.4 0.5-0.7 1-1.3 2.2-4.3 10.3-3.8 16.8-0.8 6.5 0 0.9 0.1 1 0.3 1.2 0.3 0.8 0.4 0.6 2.2 2.9 28.8 30.9-64 0.1-12.7-1.9-6.7-2-2.5-1.1-10-7-2.9-2.1-24.7 1.8-8.7-0.1-1.1-0.3-1.3-0.6-5.4-3.7-12.8-4.5-6.2-2.6-0.8-0.5-2.2-2.2-1-0.7-0.8-0.5-1.3-0.4-0.7-0.5-4.7-5.6-0.9-1.3-0.5-3.3-0.5-1.2-1-1.4-1.3-2.7-2.2-7 0.8-1.3 0.9-0.8 1.7-0.7 0.5-0.3 1-0.8 0.7-0.8 0.5-0.6 0.6-1.1 0.1-0.7 0.1-0.8 0-0.7-0.1-0.7-0.4-0.8-0.8-0.8-4.3-3-3-3-1.9-1.2-2.3-0.3-0.7-0.2-0.6-0.3-1-1.1-1.2-1.7-7.6-13.8-8-11.8-0.2-0.7-0.1-0.8 0-1.5-0.3-5.9-0.3-1.3-0.3-1.3-0.9-0.8-1.4-1.1-12.6-5.8-1.3-0.9-1.4-1.2-1.4-1.6-1.1-2.2-3.1-4.1 1.9-3.2 5-4.1 0.8-0.9 0.7-1.1 0.7-0.8 0.7-0.6 1.4-0.8 0.4-0.4 1.2-1.5 3-3.1 0.7-1 0.6-1.1 0.3-0.7 0.2-0.7-0.1-1-0.6-1.3-3.9-5.1-4.6-4.3-0.8-1.6-0.3-2.9-0.2-0.6-0.3-0.6-0.3-0.5-0.5-0.4-0.7-0.1-1.1 0.3-3.1 2.4-0.8 0.2-4.9 0-5.1 1.1-1.9 1-1.8-2.1-2.4-0.9-5-0.5-1.5-1.5 0.7-0.1 0.8-1.7 1-2.8 0.1-1.6-0.2-1.4-0.4-1.3-0.8-1.2-0.7-0.6-2.4-1-1-1-0.8-1.4-2.8-10.1-0.4-3.1 0.6-2.8 4.5-7.2 0.7-8.1-0.1-8.3 2-7.9 1.8-4.4 0.5-3.6 0.1-3.7 0.7-4.1 1.8-3.7 2.5-3.3 1.7-3.6-0.5-4.6 1.4-0.1 1.4 0.2 27.7 9.7 9.5 0.6 2.9 0.7 3 1.1 2.8 1.7 2.3 2.2 4.6 4.2 1.1 2.4 0.2 3.9-1.3 6 0.6 2.2 2.8 2.5 2.9 1.7 1.4-0.4 1.2-1.8 2.3-2.4 2.8-1.2 2.5 0.2 2.5 0.7 2.8 0.4 9.5-2.5 3.4-0.3 24.3 4.5 6.3 0.1 11.4-7.4 10.7-6.9 9.1-4 24.8-5.4 24.1-11 4.2-1.2 17.2-11 10.1-4 5.1-0.5 9.8 1.3 28.6 8.6 7.4 4.1 15.8 16.8z" id="SYR137" name="Aleppo" data-id="SYR137" data-name="Aleppo">
 </path>
 <path d="M224.9 331.9l12.8 4.5 5.4 3.7 1.3 0.6 1.1 0.3 8.7 0.1 24.7-1.8 2.9 2.1 10 7 2.5 1.1 6.7 2 12.7 1.9 64-0.1 6 4.4 1.7 1.9 2.3 3.5 0.2 3.2-0.4 20.5-0.7 3-1.6 3.8-1.5 2.7-3.6 5.5-0.6 1.2-0.7 2-0.4 1.5-0.2 1.6 0 1.5 0.7 6.1-0.5 0.9-1 0.9-19.8 8.9-2.5 1.9-4.1 3.8-0.6 0.8-0.1 0.5-0.1 1.4-0.3 0.7-0.1 0.2-0.9 1.2-0.2 0.3-0.7 1.9-0.8 1.3-0.2 0.7 0 0.4 0.1 1.5 0 0.8-0.1 0.7-0.4 1-0.2 0.2-0.4 0.9-0.1 0.6-0.3 0.7-0.1 0.2-2.8 3.1-0.3 0.2-1.1 0.5-0.5 0.1-0.4-0.1-0.9-0.8-5.8-7.5-1.3-2.1-1-1-8.5-7-0.8-0.6-1.3-1.2-0.5-0.6-0.3-0.7-0.4-2.4-0.2-1.9-0.2-1-0.7-2.6-0.3-0.6-0.8-0.8-0.3-0.5-0.3-0.9-0.3-0.6-0.5-0.8-0.7-0.9-0.2-0.2-0.8-0.6-0.6-0.2-3 0-0.8-0.1-0.6-0.2-0.6-0.3-0.7-0.5-1.7-2.1-0.9-0.8-1.1-0.6-0.3-0.1-0.4-0.1-0.6 0-12.5 2.9-6.9 2.5-2.1 0.5-0.6 0-1.4-0.1-0.8 0.3-1 0.5-4.6 3.3-3 1.6-1 0.8-0.6 0.6-0.4 0.5-0.5 1.2-0.2 0.6-0.3 2.5 0 4.8 0.1 0.7 0.7 2.2 0.1 0.7 0 0.7-0.1 0.7-0.3 0.5-0.5 0.4-0.5 0.1-0.6 0-1.2-0.2-0.6-0.2-0.4-0.3-0.5-0.7-1.3-2.3-0.5-0.4-0.6-0.3-0.8-0.1-1.7 0.1-1.1-0.2-0.9 0-2 0.3-0.8 0-0.6 0.1-0.7 0.4-1.3 0.9-0.9 0.4-1.1 0.3-1.3-0.1-1.2-0.4-1.5-1-0.6-0.2-0.4 0.1-0.6 0.3-0.7 1-0.3 0.7-0.1 0.5 0 0.7-0.3 0.2-0.4 0.2-2.4-0.6-1.6 0-0.4 0-0.4 0.2-0.5 0.4-0.4 0.6-0.2 0.5-0.3 1.5-0.3 0.5-1.1 1-0.2 0.3-0.3 0.5-0.6 2.4-0.2 0.6-0.3 0.5-0.8 0.9-1 0.7-0.4 0.1-0.6 0-1.8-0.5-1.3-0.6-0.7-0.5-0.4-0.5-0.6-1-0.5-1.6-0.2-0.3-0.6-0.6-0.5-0.3-0.6-0.3-0.6-0.3-0.3 0-0.8 0-0.8 0.3-3.6 2.4-0.9 0.8-0.5 0.7-0.2 1-0.2 0.3-0.3 0-1.3-0.6-1.2-0.5-0.7-0.6-0.8-0.4-0.6-0.3-1.1 0-0.5 0.3-0.5 0.4-1.6 2.1-0.5 0.3-0.7 0.2-2.6 0.2-1.3 0.4-1 0.7-7.4 6-0.9 0.5-3.1 1.1-3.7-8.3-4.6-9.2-0.1-0.3-0.8-1-2.2-1.9-1.9-0.6-1.6-0.2-0.9 0.2-1 0.3-2.2 1.5-0.6 0.3-0.7 0.1-1.4 0-0.9 0.2-0.9 0.4-2 1.9-0.6 0.2-4.7 0.3-0.8-0.1-1.2 0-1.3 0.3-0.6 0.1-0.4-0.1-0.2-0.1-1.4 0.6-11.8 5.9-7.4-0.2-3.4 0.8-1.7 1.1-1 0.3-0.6 0-0.9-0.2-1.4-0.7-0.5-0.4-0.3-0.5 0-1.2-0.3-0.5-0.5-0.4-0.6-0.2-1.1 0-0.3-0.2-0.2-0.2 0-0.7 0.2-0.6 0.5-0.7 0.3-0.5 0.2-0.7 0-0.3-0.2-0.6-0.5-0.4-0.5-0.4-0.5-0.2-0.5-0.1-0.6 0.1-1.4 0.3-0.6 0.5-1.2 1.6-1.2 2-3.7 4.1 0 1.4 0.1 1.2-0.1 0.5-0.3 0.6-0.8 1-0.3 0.6-0.2 0.5 0 1.6 0 0.3-0.3 0.4-1.1 1.3-0.3 0.6-0.8 0.2-0.5 0.1-4.6-1-1.1-1.8-0.4-0.3-0.6-0.3-1.1 0-0.5 0.1-0.4 0.1-0.4 0.5-1.7 2.4-0.5 0.4-0.5 0.2-0.6-0.4-0.7-0.7-1.4-2.1-0.6-0.7-0.5-0.4-0.3 0-0.6-0.3-0.1-0.3 0.1-0.4 1-1.3 0.6-0.5 0-0.6-1-1.6-0.6-1.2-0.7-1-3.9-2.7-0.5-0.6-0.3-0.5-0.5-1.2-0.6-2.5-0.9-2.3-0.9-0.4-1.3-0.3-5.8 0.6-2.4-0.1-7-1.4-1.1-5 1.6-0.9 1.5-0.1 1.4 0.3 0.6 0 0.6-0.1 0.5-0.4 0.9-0.7 0.6-0.3 0.6-0.1 1.4-0.3 0.5-0.2 1-0.7 0.6-0.2 2.1-0.2 0.6-0.3 1-1.2 0.5-0.5 1-0.7 0.6-0.7 0.4-1 1.3-4.3-0.1-2.8-1.7-21.7-0.1-3.5-0.4-7.1-3.8-18.6-2.5-7.2-0.9-3.5-0.1-0.7 2.9-20.3 0.5-12.3-0.4-5.8-0.4-2-0.3-1.2-0.6-1.1-1.7-2.5-0.3-0.5 0.1-0.8 0.4-1 1.5-1.5 2.3-1.6 0.4-0.8 0.3-1.2 0.3-4.7 0.6-1.6 2.4-2.1 0.7 1.3 0.4 0.4 0.6 0.5 0.6 0.4 1.1 0.3 1.2 0.2 1.9-0.2 1.8-0.6 0.5-0.3 0.6-0.3 0.6-0.1 0.7 0 0.6 0.2 0.5 0.5 0.9 1.1 0.4 0.8 0.3 0.7 0.3 1.3 0.3 0.5 2 0.7 6.6 0.2 1 0.6 0.3 2.4-1 8.1-2.1 10-0.3 3.3 1.2 12.4-0.2 1-0.3 0.7-0.3 0.5-0.2 0.6 3.3 7.4 0.7 3.2 1 1.1 3.2 0.9 5.3-2.5 0.6-0.1 1 0.3 2.7 1.4 0.5 0.3 0.4 0.5 0.5 1.1 0.4 1.2 0.5 1 0.4 0.5 0.5 0.4 0.6 0.3 0.8 0.1 1.5 0.1 2.9-0.2 1.4 0.2 10.1 2.8 7.7 0.3 18-5 0.7 0 0.7 0 0.7 0.2 0.5 0.3 4.5 4.1 0.6 1 0.2 0.6 0.6 1.1 0.4 0.4 0.5 0.4 1.6 1 0.4 0.5 0.3 0.5 0.4 0.4 0.6 0.3 0.9 0 1.5-0.3 1.1-0.1 1-0.4 1-0.6 2.6-4.1 3.2-3.2 0.6-0.7 1.2-2.3 0.4-0.5 0.5-0.2 0.8 0.2 0.5 0.3 0.3 0.5 0.6 1.1 0.2 0.6 0.1 0.7 0.1 1.4 0 0.7-0.1 0.8-0.2 0.7-1.4 3.1-0.2 0.7 0 0.7 0 0.7 0.6 2.6 0 0.7 0.1 2.3 0.1 0.6 0.3 0.5 0.5 0.4 0.5 0.4 0.6 0.2 0.7 0.2 1.5 0 3.4-0.4 3.1 0.1 0.8-0.1 0.8-0.4 0.7-0.3 0.4-0.5 1.3-2.1 0.8-1.1 1-0.7 0.5-0.2 0.6-0.1 0.7 0 0.7 0.2 0.6 0.2 0.5 0 0.2-0.5 0.1-7.7-0.2-1.4-0.2-0.6-0.3-0.5-0.4-0.4-0.5-0.3-0.6-0.2-0.6 0.2-0.5 0.3-0.7 0.9-0.9 1.8-0.4 0.5-0.4 0.5-0.5 0.3-0.6 0.2-0.7 0-0.7-0.1-0.7-0.2-0.5-0.4-0.4-0.4-0.1-0.6-0.1-0.8 0.1-0.8 0.4-1.2 2.9-6.3 0.8-1.4 0.8-0.9 2-1.2 3.1-1.3 1-0.7 0.9-1.2 3.7-6.6 1.6-3.9 0.5-0.8 0.4-0.6 2.8-1.6z" id="SYR138" name="Hamah" data-id="SYR138" data-name="Hamah">
 </path>
 <path d="M528.8 387.6l15.1 12.4 4.7 6 9.5 20.3 0.5 1.7 0.1 1.7-1 10.6 0.1 1.9 0.7 1.7 0.6 1.1 24.8 35.3 84.5 122.1-10.7 6.5-33.2 20.1-16.6 10-16.6 10-16.6 10-16.5 10-33.2 20-16.6 9.9-16.6 10-16.6 10-16.6 9.9-36.7 22.9-32.1 20.3-61.1-49.1-4.5-2.8-3.8-3.1-1-0.5-1.4-0.7-0.5-0.2-2.5-0.4-1.5-0.6-5.7-1.5-2.3-1-1.4-1-4.2-2.4-10.2-8-10.2-13.7-0.8-2.5-0.5-1.1-1.1-3.1-0.3-1.1-1.4-3.5-0.9-1.5-14.5-13.5-1.5-1.2-2.6-1.6-12-12.1-2.3-1.5-1-0.9-7.8-12.9-0.6-1-1-2.3 0-0.3-0.2-0.6-0.2-0.3-0.9-0.6-3-1.1-2.9 0.4-1.6 0-0.7-0.2-1.5-0.5-14.6-8.5-1.1-0.5-1.7-1.3-5.1-4.7-0.7-1.2-0.4-0.6-1.1-0.9-0.5-0.8-0.4-1-1.5-2.5-0.2-0.6-1.1-1.7-0.2-0.3-0.9-1.6-2.2-3.5-1-2-0.9-1.2-2.7-2.8-2.2-3.3-2.1-2.1-3.3-4.2-0.5-0.7-0.1-0.3-1.8-2.8-0.9-0.7-0.7-0.1-1.2 0.2-4.5 1.4-5.2 3-0.4 0.1-1.3 0-10.6-1.4-2.7-1.5-0.7-0.2-3.6 0.1-2.4 0.4-3.6 2.1-3.1 0.9-0.8-1.8-3.6-3.6-1-2.6-0.7-3.4 1.1-2.3 1.5-2 0.3-2.4-0.8-1.4-1-0.3-1.1 0.1-1-0.4-1.6-1.8-3.3-4.6-0.7-1.4-0.4-1.4 0.1-1.5 0.5-1 0.5-0.8 0.4-1.3 0.6-3 0.1-2-0.8-1.6-2.4-1.7-1.1 0.4-1.1-0.7-2.2-2.7-2.5-1.2-2-1.7-1.5-2.3-1-3.1-2.1-0.7-4.1-0.3-4.4 0.2-3.3 1-0.8 0-0.4-0.1-1.9-3.7 2.5-2.7 4.1-2.2 2.9-2.3 0.7-2.9-0.2-2.7 0.3-2.1 2.2-1.4 2.3 0.6 1.6 1.3 1-0.8 0.6-5.8-3.6 1.2-3.7 0.1-3.6-1.3-3-2.7-3.5-6.4-2.3-1.5-3.1 2.2-0.5 1.4-0.1 3.5-0.5 1.7-1.4 1.5-1.5 0.7-9 0.5-0.9-0.3-1.8-1.3-0.8-0.4-0.9 0.3-1.8 1-0.6 0.3-6.6-0.5 0.4-2 0.2-3.6 0.3-1.2 10.3-18.6 3.4-4.8 0.5-0.4 0.3-0.1 0.9-0.3 0.5-0.4 0.7-0.6 2.3-3 3.9-3.4 0.5-0.7 0.3-0.5 0-0.4 0-1.2-0.3-1.8 0-0.6 0.1-0.8 0.4-1.6 0.4-1.3 0.4-0.4 0.7-0.6 1.2-0.5 2.8-0.8 1 1.6 0 0.6-0.6 0.5-1 1.3-0.1 0.4 0.1 0.3 0.6 0.3 0.3 0 0.5 0.4 0.6 0.7 1.4 2.1 0.7 0.7 0.6 0.4 0.5-0.2 0.5-0.4 1.7-2.4 0.4-0.5 0.4-0.1 0.5-0.1 1.1 0 0.6 0.3 0.4 0.3 1.1 1.8 4.6 1 0.5-0.1 0.8-0.2 0.3-0.6 1.1-1.3 0.3-0.4 0-0.3 0-1.6 0.2-0.5 0.3-0.6 0.8-1 0.3-0.6 0.1-0.5-0.1-1.2 0-1.4 3.7-4.1 1.2-2 1.2-1.6 0.6-0.5 1.4-0.3 0.6-0.1 0.5 0.1 0.5 0.2 0.5 0.4 0.5 0.4 0.2 0.6 0 0.3-0.2 0.7-0.3 0.5-0.5 0.7-0.2 0.6 0 0.7 0.2 0.2 0.3 0.2 1.1 0 0.6 0.2 0.5 0.4 0.3 0.5 0 1.2 0.3 0.5 0.5 0.4 1.4 0.7 0.9 0.2 0.6 0 1-0.3 1.7-1.1 3.4-0.8 7.4 0.2 11.8-5.9 1.4-0.6 0.2 0.1 0.4 0.1 0.6-0.1 1.3-0.3 1.2 0 0.8 0.1 4.7-0.3 0.6-0.2 2-1.9 0.9-0.4 0.9-0.2 1.4 0 0.7-0.1 0.6-0.3 2.2-1.5 1-0.3 0.9-0.2 1.6 0.2 1.9 0.6 2.2 1.9 0.8 1 0.1 0.3 4.6 9.2 3.7 8.3 3.1-1.1 0.9-0.5 7.4-6 1-0.7 1.3-0.4 2.6-0.2 0.7-0.2 0.5-0.3 1.6-2.1 0.5-0.4 0.5-0.3 1.1 0 0.6 0.3 0.8 0.4 0.7 0.6 1.2 0.5 1.3 0.6 0.3 0 0.2-0.3 0.2-1 0.5-0.7 0.9-0.8 3.6-2.4 0.8-0.3 0.8 0 0.3 0 0.6 0.3 0.6 0.3 0.5 0.3 0.6 0.6 0.2 0.3 0.5 1.6 0.6 1 0.4 0.5 0.7 0.5 1.3 0.6 1.8 0.5 0.6 0 0.4-0.1 1-0.7 0.8-0.9 0.3-0.5 0.2-0.6 0.6-2.4 0.3-0.5 0.2-0.3 1.1-1 0.3-0.5 0.3-1.5 0.2-0.5 0.4-0.6 0.5-0.4 0.4-0.2 0.4 0 1.6 0 2.4 0.6 0.4-0.2 0.3-0.2 0-0.7 0.1-0.5 0.3-0.7 0.7-1 0.6-0.3 0.4-0.1 0.6 0.2 1.5 1 1.2 0.4 1.3 0.1 1.1-0.3 0.9-0.4 1.3-0.9 0.7-0.4 0.6-0.1 0.8 0 2-0.3 0.9 0 1.1 0.2 1.7-0.1 0.8 0.1 0.6 0.3 0.5 0.4 1.3 2.3 0.5 0.7 0.4 0.3 0.6 0.2 1.2 0.2 0.6 0 0.5-0.1 0.5-0.4 0.3-0.5 0.1-0.7 0-0.7-0.1-0.7-0.7-2.2-0.1-0.7 0-4.8 0.3-2.5 0.2-0.6 0.5-1.2 0.4-0.5 0.6-0.6 1-0.8 3-1.6 4.6-3.3 1-0.5 0.8-0.3 1.4 0.1 0.6 0 2.1-0.5 6.9-2.5 12.5-2.9 0.6 0 0.4 0.1 0.3 0.1 1.1 0.6 0.9 0.8 1.7 2.1 0.7 0.5 0.6 0.3 0.6 0.2 0.8 0.1 3 0 0.6 0.2 0.8 0.6 0.2 0.2 0.7 0.9 0.5 0.8 0.3 0.6 0.3 0.9 0.3 0.5 0.8 0.8 0.3 0.6 0.7 2.6 0.2 1 0.2 1.9 0.4 2.4 0.3 0.7 0.5 0.6 1.3 1.2 0.8 0.6 8.5 7 1 1 1.3 2.1 5.8 7.5 0.9 0.8 0.4 0.1 0.5-0.1 1.1-0.5 0.3-0.2 2.8-3.1 0.1-0.2 0.3-0.7 0.1-0.6 0.4-0.9 0.2-0.2 0.4-1 0.1-0.7 0-0.8-0.1-1.5 0-0.4 0.2-0.7 0.8-1.3 0.7-1.9 0.2-0.3 0.9-1.2 0.1-0.2 0.3-0.7 0.1-1.4 0.1-0.5 0.6-0.8 4.1-3.8 2.5-1.9 19.8-8.9 1-0.9 0.5-0.9-0.7-6.1 0-1.5 0.2-1.6 0.4-1.5 0.7-2 0.6-1.2 3.6-5.5 1.5-2.7 1.6-3.8 0.7-3 0.4-20.5-0.2-3.2 13.3-1.6 44.1 3.5 83.7 22.6z" id="SYR139" name="Homs (Hims)" data-id="SYR139" data-name="Homs (Hims)">
 </path>
 <path d="M224.9 331.9l-2.8 1.6-0.4 0.6-0.5 0.8-1.6 3.9-3.7 6.6-0.9 1.2-1 0.7-3.1 1.3-2 1.2-0.8 0.9-0.8 1.4-2.9 6.3-0.4 1.2-0.1 0.8 0.1 0.8 0.1 0.6 0.4 0.4 0.5 0.4 0.7 0.2 0.7 0.1 0.7 0 0.6-0.2 0.5-0.3 0.4-0.5 0.4-0.5 0.9-1.8 0.7-0.9 0.5-0.3 0.6-0.2 0.6 0.2 0.5 0.3 0.4 0.4 0.3 0.5 0.2 0.6 0.2 1.4-0.1 7.7-0.2 0.5-0.5 0-0.6-0.2-0.7-0.2-0.7 0-0.6 0.1-0.5 0.2-1 0.7-0.8 1.1-1.3 2.1-0.4 0.5-0.7 0.3-0.8 0.4-0.8 0.1-3.1-0.1-3.4 0.4-1.5 0-0.7-0.2-0.6-0.2-0.5-0.4-0.5-0.4-0.3-0.5-0.1-0.6-0.1-2.3 0-0.7-0.6-2.6 0-0.7 0-0.7 0.2-0.7 1.4-3.1 0.2-0.7 0.1-0.8 0-0.7-0.1-1.4-0.1-0.7-0.2-0.6-0.6-1.1-0.3-0.5-0.5-0.3-0.8-0.2-0.5 0.2-0.4 0.5-1.2 2.3-0.6 0.7-3.2 3.2-2.6 4.1-1 0.6-1 0.4-1.1 0.1-1.5 0.3-0.9 0-0.6-0.3-0.4-0.4-0.3-0.5-0.4-0.5-1.6-1-0.5-0.4-0.4-0.4-0.6-1.1-0.2-0.6-0.6-1-4.5-4.1-0.5-0.3-0.7-0.2-0.7 0-0.7 0-18 5-7.7-0.3-10.1-2.8-1.4-0.2-2.9 0.2-1.5-0.1-0.8-0.1-0.6-0.3-0.5-0.4-0.4-0.5-0.5-1-0.4-1.2-0.5-1.1-0.4-0.5-0.5-0.3-2.7-1.4-1-0.3-0.6 0.1-5.3 2.5-3.2-0.9-1-1.1-0.7-3.2-3.3-7.4 0.2-0.6 0.3-0.5 0.3-0.7 0.2-1-1.2-12.4 0.3-3.3 2.1-10 1-8.1-0.3-2.4-1-0.6-6.6-0.2-2-0.7-0.3-0.5-0.3-1.3-0.3-0.7-0.4-0.8-0.9-1.1-0.5-0.5-0.6-0.2-0.7 0-0.6 0.1-0.6 0.3-0.5 0.3-1.8 0.6-1.9 0.2-1.2-0.2-1.1-0.3-0.6-0.4-0.6-0.5-0.4-0.4-0.7-1.3 3.8-2.6 1.1-1.5 0.2-0.7 0-0.8-0.3-0.7-0.5-0.7-0.6-0.4-0.7-0.2-10.2 0.5-1.3 0.3-1.3 0.5-0.8 0.2-1.2 0-2.1-0.2-1-0.4-0.7-0.5-0.1-0.6-0.1-0.7 0.1-0.7 0.5-1.2 0.4-1.2-0.1-0.7 0.3-0.1 1.7-5.4 0.9-13.1 3.3-5.4 4.8-1.7 3.7 1 2.3-0.6 1.3-6.5 0-0.1 3-1.2 5.9 2.3 3.2-1-0.4-5.3 0.5-26.9 0.3-2.7 0.8-1.4 1.3-1.2 0.2-1.6-2.2-2.6 1.7-1.7 1.9 2.2 1.9 1.4 2.1 0.7 4.1 0.5 0.9 0.3 0.8 0 1.3-0.6 0.7-1 0.2-1.4 0.5-1.2 1.7-0.6 2.8-0.4 11.3 1.8 2.9 0 10.6-2 0.9-1.6-0.2-4.1-0.5-2.7-1-3.1-1.5-2.8 1.9-1 5.1-1.1 4.9 0 0.8-0.2 3.1-2.4 1.1-0.3 0.7 0.1 0.5 0.4 0.3 0.5 0.3 0.6 0.2 0.6 0.3 2.9 0.8 1.6 4.6 4.3 3.9 5.1 0.6 1.3 0.1 1-0.2 0.7-0.3 0.7-0.6 1.1-0.7 1-3 3.1-1.2 1.5-0.4 0.4-1.4 0.8-0.7 0.6-0.7 0.8-0.7 1.1-0.8 0.9-5 4.1-1.9 3.2 3.1 4.1 1.1 2.2 1.4 1.6 1.4 1.2 1.3 0.9 12.6 5.8 1.4 1.1 0.9 0.8 0.3 1.3 0.3 1.3 0.3 5.9 0 1.5 0.1 0.8 0.2 0.7 8 11.8 7.6 13.8 1.2 1.7 1 1.1 0.6 0.3 0.7 0.2 2.3 0.3 1.9 1.2 3 3 4.3 3 0.8 0.8 0.4 0.8 0.1 0.7 0 0.7-0.1 0.8-0.1 0.7-0.6 1.1-0.5 0.6-0.7 0.8-1 0.8-0.5 0.3-1.7 0.7-0.9 0.8-0.8 1.3 2.2 7 1.3 2.7 1 1.4 0.5 1.2 0.5 3.3 0.9 1.3 4.7 5.6 0.7 0.5 1.3 0.4 0.8 0.5 1 0.7 2.2 2.2 0.8 0.5 6.2 2.6z" id="SYR140" name="Idlib" data-id="SYR140" data-name="Idlib">
 </path>
 <path d="M838.7 331.8l-16.9-2.4-29.4-0.7-11.5-2.4-5.4-2-9.3-2.1-2.7-1.2-4.8-2.9-112.4-110.2-18.7-19.2-11.2-18.7-3.3-7.3-0.3-2.4-0.1-0.8-0.3-0.6-0.9-1.5-1.7-1.7-9.3-5.3-13.8-5.7-0.7-0.2-0.8 0-0.6 0.1-0.7 0.1-2.3 1-1.3 0.3-2.7 0.3-1.6-0.1-1.5-0.4-1.3-0.6-2-1.8-7.6-9.9-1.4-3-3.5-10.6 48.5-9.3 32.2-12.2 14.9-8.9 5.4-1.9 5.7-1.1 5.6-2.6 10.7-7.2 19.8-13.4 3-1.9 3.2-1.2 3.3-0.7 3.4-0.1 6.9-2.1 20.1-11.1 7.4-2.9 28.1-4.2 35.8 7.3 6.7 2.7 3.2 0.9 41.8-2 62.5-14.8 16.9-4 6.6-4 11.3-10.7 7.5-10 2.2-1.3 2.7-2.2 1.7 2.1 0.2 2.2-0.3 1.8 0.2 0.8 2 0.4 4.6 2.2 0.9-0.4 0.9-1.1 1-0.8 0.9 0.3 0.7 1 0.7 1.9 0.7 1 5.1 4.1 1 0.6 1 2.4-2.7 10.5 1.7 2.4 1.2 1.1 0.3 2.7 0.1 5.3 1 2.2 1.1 2 0.9 2.1 0 2.7-4.7 3.6-9.6 9.2-15.5 16.7-30 32.2-20.2 21.6-4 3.4-4.1 2-46.5 9.9-9.7 1.7-4.5 2-3 4.2-13.2 26-1.2 5-4.9 46.6 0 3.1 0.6 3.3 3.9 9 11.6 25.3 1.6 6 0.7 6.1 0.7 25.4-0.9 5.8-2.3 5.5-5.1 7.7z" id="SYR141" name="Hasaka (Al Haksa)" data-id="SYR141" data-name="Hasaka (Al Haksa)">
 </path>
 <path d="M838.7 331.8l-7.1 10.7-1.4 5.6-1.3 17.9-6.3 22.7-1.4 11.2 0.9 34.5 1.3 32-0.3 4.8-1.3 4.5-25.8 50 0 0.1-5.4 11.9-3.4 4.9-4.4 2.8-36.8 10-22 13.3-16.6 10.1-16.6 10-22.4 13.6-84.5-122.1-24.8-35.3-0.6-1.1-0.7-1.7-0.1-1.9 1-10.6-0.1-1.7-0.5-1.7-9.5-20.3-4.7-6-15.1-12.4 63.6-93.7 1.3-2.5-1.2-0.6-4.4-2.9-1-0.4 0-2 1.6-11.4 14.6-67.4 9.8-44 3.3 7.3 11.2 18.7 18.7 19.2 112.4 110.2 4.8 2.9 2.7 1.2 9.3 2.1 5.4 2 11.5 2.4 29.4 0.7 16.9 2.4z" id="SYR142" name="Dayr Az Zawr" data-id="SYR142" data-name="Dayr Az Zawr">
 </path>
 <path d="M266.7 850.9l-11.9 7.6-25.7 16.6-16.6 10.6-23 15.1-24.1 16.5-1.9 0.7-2.1-0.1-9.6-2.5-3.3-0.1-2.6 1.5-5.4-4.1-20.5-2.5-0.1-1.1 0.6-5.1 0.1-0.4-0.4-8.6 0.1-0.8 1-3.5 0.2-0.7 0.1-1.5-0.2-0.6-0.4-0.8-1.5-2.4-2-2.3-0.8-1.1 0-0.5 0.1-0.6 0.8-1.8 1-1.3 0.1-0.3-0.2-1.1-1.8-2.7-2.4 0.3-0.4 0-0.8-0.4-0.6-0.5-0.3-0.5-0.7-0.6-0.7-0.2-0.3 0-2.9 0.5-2.3-0.1-2.5-0.4-0.2-0.3-0.1-0.5 0.2-1.2 0.1-0.6 0.5-1.3 0.1-0.7-0.1-0.5-0.9-2-0.1-0.9 0.2-0.9 0.6-0.6 1.9-0.6 0.6-0.2 0.4-0.4 1-1.1 0.5-0.3 1.1-0.6 0.8-0.7 0.3-0.6 0.4-1.3 0-0.8-0.4-0.6-0.7-0.7-1.9-1.3-1-0.6-0.7-0.3-3-0.2-0.7-0.2-2.3-1-0.7-0.1-0.7 0-0.7-0.2-0.4-0.2-0.5-0.5-0.5-1.3-0.1-0.4-0.2-1.1 0-0.8 0.1-1.1 0.4-0.9 1.6-1.5-1.2-12 0-2.8 0.4-0.6 0.1-0.6-0.5-1.8-2.7-6.5-0.4-1.8-0.4-1.3-0.1-1.1 0.1-0.7 0.2-0.6 1.2-2.5 0.2-0.6-0.1-0.7-0.2-0.7-0.4-0.8-0.2-0.6 0-0.7 0.3-0.6 0.5-0.5 2.4-1.8 1.8-1.1 2.1-2 4.6-3.5 1.1-0.6 1.6-0.4 6.1-0.4 8.8 0.6 0.7-0.1 0.3-0.1 0.2-0.3 0.1-0.4-0.3-1-0.7-1.4-0.3-0.6-0.1-0.7-0.3-4.2-0.1-0.6-0.3-0.6-0.5-0.3-0.7-0.1-0.7 0-0.3 0.1-2.4 0.9-0.7-0.1-0.5-0.3-0.6-0.6-0.2-0.7-0.1-2.7 0-0.8-0.1-0.7-0.2-0.6-1.1-2.2-0.4-1.2-0.3-1.3 0-1 0.2-1 0.1-1.1-0.1-1.1-0.4-1.3-0.1-0.9 0.2-0.8 0.3-0.9 0.5-0.8 0.7-0.9 0.8-0.8 2.6-2 0.6-0.1 1 0 4.2 0.5 1.2-0.3 2.9-1.4 38-5.6 0.2 0.2 1.4 1.5 0.7 0.5 1.2 1.3 1.3 1 4.4 2.4 0.4 0.4 1.7 1.9 0.6 1.1 0.2 0.6 0.3 2.2 0.2 0.5 0.4 0.5 5.3 5.4 0.5 0.8 0.2 0.6 0.4 1.5 0.1 1.6 0.1 0.7 0.2 0.7 0.3 0.5 0.4 0.4 3.1 2.3 0.5 0.3 2.5 0.4 0.9 0 9.8 2.1 0.7 0.5 0.7 0.5 0.8 0.6 1.7 1.1 0.7 0.5 0.3 0.5 0.1 0.6 0 0.8-0.1 0.7 0.1 1 0.1 0.4 0.2 0.5 0.6 1 0.9 0.8 0.2 0.2 0.3 0.8 0.4 0.7 0.4 0.4 0.3 0.3 0.3 0.4 0.3 1.1 7.6 4.5 1.9 0.9 0.9-0.3 0.5-0.3 0.4-0.5 0.7-0.1 4.3 0.1 2.4 0.8 1 1.1 0.6 1 0.3 0.6 0.2 0.6 0.5 1.8 0.7 8.1 0.2 1 0.5 0.8 20.3 20.6 7.4 5.4 1.3 1.4 2.6 3.4z" id="SYR143" name="As Suwayda'" data-id="SYR143" data-name="As Suwayda'">
 </path>
 <path d="M389.8 772l-12.7 8.1-26.1 16.4-19.1 12.4-25.7 16.6-25.7 16.5-13.8 8.9-2.6-3.4-1.3-1.4-7.4-5.4-20.3-20.6-0.5-0.8-0.2-1-0.7-8.1-0.5-1.8-0.2-0.6-0.3-0.6-0.6-1-1-1.1-2.4-0.8-4.3-0.1-0.7 0.1-0.4 0.5-0.5 0.3-0.9 0.3-1.9-0.9-7.6-4.5-0.3-1.1-0.3-0.4-0.3-0.3-0.4-0.4-0.4-0.7-0.3-0.8-0.2-0.2-0.9-0.8-0.6-1-0.2-0.5-0.1-0.4-0.1-1 0.1-0.7 0-0.8-0.1-0.6-0.3-0.5-0.7-0.5-1.7-1.1-0.8-0.6-0.7-0.5-0.7-0.5-9.8-2.1-0.9 0-2.5-0.4-0.5-0.3-3.1-2.3-0.4-0.4-0.3-0.5-0.2-0.7-0.1-0.7-0.1-1.6-0.4-1.5-0.2-0.6-0.5-0.8-5.3-5.4-0.4-0.5-0.2-0.5-0.3-2.2-0.2-0.6-0.6-1.1-1.7-1.9-0.4-0.4-4.4-2.4-1.3-1-1.2-1.3-0.7-0.5-1.4-1.5-0.2-0.2-38 5.6-0.3-1.9-0.1-2.9-0.3-1-0.5-0.9-5-5.9-0.4-0.5-0.2-0.6-0.7-2.2-0.5-1.1-0.5-0.7-0.5-0.4-0.6 0-0.5 0-2.5 1.8-0.9 1-0.4 0.5-7.4 4.7-0.7 0.4-4.5 4.1-0.5 0.8-0.2 0.6-0.1 1.9-0.2 0.7-0.3 0.4-0.6 0.4-0.8 0-1.2-0.2-3.8-1.2-0.7-0.3-0.4-0.5-0.4-0.4-1.5-0.9-0.3-0.5-0.7-1.4-0.3-0.5-0.5-0.4-0.2-0.1-0.7-0.2-2.7-0.4-0.7-0.3-0.5-0.3-0.3-0.6-0.1-0.3-0.2-1.8-0.2-0.6-0.6-0.6-1.6-0.9-0.7-0.6-0.7-0.9-1.2-2-0.4-0.5-0.6-0.2-0.4 0.2-0.5 0.7-0.7 1.6-0.2 0.8-0.1 0.6 0.6 2 0 0.7 0 0.7-0.3 0.7-0.2 0.6-0.9 1.5-0.5 1.5-1.4 0.7-6.3 2.1-2.3 1.2-0.6 0.2-11.9 1-0.2 0.1-2.3 2-0.9 0.7-0.5 0.2-1 0.4-0.8 0.1-2.9-0.1-1-0.2-0.5-0.7-0.9-1.7-0.6-0.6-0.4-0.2-3.3-1.4 0.3-1.2 0-0.8 0-2.7 0.1-1.5 0-0.8-0.1-0.7-0.4-0.3-0.6-0.4-1.9-0.3-1.7-0.1-3.5-0.6-0.7 0.1-0.6 0.3-0.4 0.4-0.2 0.5-0.4 1.3-0.3 0.5-0.3-0.1-0.4-0.4-0.9-2.2-0.3-0.9 0-0.8 0-0.7 0.2-1.1 0.3-1 0.4-0.8 0.6-1 0.7-0.9 0.2-0.6-1.6-1.1-6.3-3.3-1.2-2.9-0.7-2.2 0-2.4 0.7-2.4 1.5-2 2.5-1.8 1.3-1.4 0.5-1.7-0.5-2.7 2.8-1.6 4.6-4 2.4-5.7-2-3.7 1.7-2.3 3.5-1.2 3.5 0.1 2.9-1.4 3.1-2 2.3-2.7 0.5-3.4-1.4-2-2.5-1.9-2.7-1.4-2.2-0.6-3.5-1.9-3.3-0.7-2-1.2 0.6-3.9 0.6-0.6 2-0.7 0.7-0.7 0.4-1.8-0.5-3.2 0.3-1.5 1.1-1.7 2.7-2.5 0.9-2 2.1-3.1 4.9-4.3 2.1-3.8 1.5-2 2.4-1 2.7-0.7 2.7-1.2 5.3-3.3 1 0.6 1.9 2.4 1.2 0.8 3.2-0.1 2.4-1.5 2.1-1.7 2.3-0.8 2.6 0.5 7.7 3.8 5.6 1.3 2.9-0.4 1.8-2.4-0.3-3.7-2.6-1.6-5.9-1-4.4-3.5-0.9-1.1-1-1.7-0.2-0.7 3.2-6.5 2-3.3 2.4-2.9 6-5.2 4.9-6.4 3.2-1.6 1.7 0.1 3.3 1.2 2-0.1 2.5-1.2 0.8-1.7 0.3-2.1 0.8-2.6 3-3.7 6.7-5.8 3.5-5.8 4.2-4.7-0.1-0.2 3.1-0.9 3.6-2.1 2.4-0.4 3.6-0.1 0.7 0.2 2.7 1.5 10.6 1.4 1.3 0 0.4-0.1 5.2-3 4.5-1.4 1.2-0.2 0.7 0.1 0.9 0.7 1.8 2.8 0.1 0.3 0.5 0.7 3.3 4.2 2.1 2.1 2.2 3.3 2.7 2.8 0.9 1.2 1 2 2.2 3.5 0.9 1.6 0.2 0.3 1.1 1.7 0.2 0.6 1.5 2.5 0.4 1 0.5 0.8 1.1 0.9 0.4 0.6 0.7 1.2 5.1 4.7 1.7 1.3 1.1 0.5 14.6 8.5 1.5 0.5 0.7 0.2 1.6 0 2.9-0.4 3 1.1 0.9 0.6 0.2 0.3 0.2 0.6 0 0.3 1 2.3 0.6 1 7.8 12.9 1 0.9 2.3 1.5 12 12.1 2.6 1.6 1.5 1.2 14.5 13.5 0.9 1.5 1.4 3.5 0.3 1.1 1.1 3.1 0.5 1.1 0.8 2.5 10.2 13.7 10.2 8 4.2 2.4 1.4 1 2.3 1 5.7 1.5 1.5 0.6 2.5 0.4 0.5 0.2 1.4 0.7 1 0.5 3.8 3.1 4.5 2.8 61.1 49.1z m-294.8-72.2l0.1-1.9-2.4-3.3-4.1-0.4-8.4 2.5-4.5 0.2-5.7 3.2 1.1 3.3 2.4-0.3 3.5 1.7-3.2 3.4 0.8 1.8 3.4-2.3 9.1 4.6 2.9 0.5 0.5-2.2 3.4-3.5 1.4-3.9-0.3-3.4z" id="SYR144" name="Rif Dimashq" data-id="SYR144" data-name="Rif Dimashq">
 </path>
 <path d="M36.7 758.8l-1.1 6.9-0.2 1.8 0.2 0.3 2.1 1.6 0.4 0.3 0.4 0.6 0.7 1.4 0.2 0.7 0.1 0.5-1.9 3.1-1 2.3-0.1 0.2-1.9 11.3 0 1.3 0.7 1.7 1.7 2.6 0.9 1.8 0.6 1 0.6 0.6 0.3 0.7 1 3.1 0.2 1.1 0 0.6-0.3 0.5-0.6-0.1-0.5-0.3-0.2-0.2-0.4-0.5-0.1-0.2-0.2-1-0.4-0.4-0.3-0.1-0.8-0.1-2.6 0.1-0.5 0.1-0.5 0.3-0.6 0.5-0.2 0.5 0 0.4 0.2 0.5 0.4 0.5 0.2 0.7 0.3 1 0.4 3.5 0 0.8-0.1 0.3-0.8 1.1-4.5 3.7-7.9 7.3-1.1 1.7 0-0.1 2.1-7.9 4.4-8.6 3.3-3.4 1.8-3.6-3.9-3.2-3.1-1.3-1.9-15.9 0.6-4.6 3.2-0.4 1.9 0 0-1.3-0.8 0-0.6-0.7-0.2-0.7 0.4-0.7 1.7-0.8 0.7-0.4 0.1-0.7 0-4.8-0.6-1-0.2-1-0.9-0.5-0.5-0.1-1 0.6-0.3 0-0.5-0.4-0.3-1 0-0.8 0.9-1 0-0.7-0.5-1-1.6-2.1-1.3-1.8-0.7-2.1-1.1-5.6-0.1-0.7-0.3-0.5-0.8-0.6-1.5 0-1.5-0.1-0.9-0.2-0.1-0.7 0.3-0.3 0.7-0.4 1.1-0.4 1.1-0.8 0.6-1.6 0.2-1.7-0.4-1.5-0.1-0.2 6.3 3.3 1.6 1.1-0.2 0.6-0.7 0.9-0.6 1-0.4 0.8-0.3 1-0.2 1.1 0 0.7 0 0.8 0.3 0.9 0.9 2.2 0.4 0.4 0.3 0.1 0.3-0.5 0.4-1.3 0.2-0.5 0.4-0.4 0.6-0.3 0.7-0.1 3.5 0.6 1.7 0.1 1.9 0.3 0.6 0.4 0.4 0.3 0.1 0.7 0 0.8-0.1 1.5 0 2.7 0 0.8-0.3 1.2z" id="SYR145" name="Quneitra" data-id="SYR145" data-name="Quneitra">
 </path>
 <path d="M128.1 760.8l-2.9 1.4-1.2 0.3-4.2-0.5-1 0-0.6 0.1-2.6 2-0.8 0.8-0.7 0.9-0.5 0.8-0.3 0.9-0.2 0.8 0.1 0.9 0.4 1.3 0.1 1.1-0.1 1.1-0.2 1 0 1 0.3 1.3 0.4 1.2 1.1 2.2 0.2 0.6 0.1 0.7 0 0.8 0.1 2.7 0.2 0.7 0.6 0.6 0.5 0.3 0.7 0.1 2.4-0.9 0.3-0.1 0.7 0 0.7 0.1 0.5 0.3 0.3 0.6 0.1 0.6 0.3 4.2 0.1 0.7 0.3 0.6 0.7 1.4 0.3 1-0.1 0.4-0.2 0.3-0.3 0.1-0.7 0.1-8.8-0.6-6.1 0.4-1.6 0.4-1.1 0.6-4.6 3.5-2.1 2-1.8 1.1-2.4 1.8-0.5 0.5-0.3 0.6 0 0.7 0.2 0.6 0.4 0.8 0.2 0.7 0.1 0.7-0.2 0.6-1.2 2.5-0.2 0.6-0.1 0.7 0.1 1.1 0.4 1.3 0.4 1.8 2.7 6.5 0.5 1.8-0.1 0.6-0.4 0.6 0 2.8 1.2 12-1.6 1.5-0.4 0.9-0.1 1.1 0 0.8 0.2 1.1 0.1 0.4 0.5 1.3 0.5 0.5 0.4 0.2 0.7 0.2 0.7 0 0.7 0.1 2.3 1 0.7 0.2 3 0.2 0.7 0.3 1 0.6 1.9 1.3 0.7 0.7 0.4 0.6 0 0.8-0.4 1.3-0.3 0.6-0.8 0.7-1.1 0.6-0.5 0.3-1 1.1-0.4 0.4-0.6 0.2-1.9 0.6-0.6 0.6-0.2 0.9 0.1 0.9 0.9 2 0.1 0.5-0.1 0.7-0.5 1.3-0.1 0.6-0.2 1.2 0.1 0.5 0.2 0.3 2.5 0.4 2.3 0.1 2.9-0.5 0.3 0 0.7 0.2 0.7 0.6 0.3 0.5 0.6 0.5 0.8 0.4 0.4 0 2.4-0.3 1.8 2.7 0.2 1.1-0.1 0.3-1 1.3-0.8 1.8-0.1 0.6 0 0.5 0.8 1.1 2 2.3 1.5 2.4 0.4 0.8 0.2 0.6-0.1 1.5-0.2 0.7-1 3.5-0.1 0.8 0.4 8.6-0.1 0.4-0.6 5.1 0.1 1.1-5.5-0.7-2.4-1.5-8.5-0.9-2.9-0.9-2.3-1.2-13.1-12.6-9.7-6.7-4.9-4.9-1.6-0.9-0.8 0.2-1.7 1.6-0.7 0.4-0.9-0.2-1.6-0.6-0.9-0.1-5.6 0.7-3.9-0.1-0.6-0.1 0-0.8-0.8-2.1-6.8-10.3-1.4-3-0.1-3.3 0.4-3-0.7-2.1-3.5-0.2-2.1 0.4-1.6-0.6-1.3-1.2-1.4-1.7 0.6 0 0.4-0.7 0.2-1.1-0.2-1.2-0.6-0.3-1.9 0-0.7-0.3-2.6-2.6-1.5-0.8-16.1-3.8-1.4-1.8-0.6-0.5-0.8-0.2 3.3-4.6 2.4-1.5 1.2-0.7 0.9-1.7 3.2-4.6 0.8-1.5-0.2-1 1.1-1.7 7.9-7.3 4.5-3.7 0.8-1.1 0.1-0.3 0-0.8-0.4-3.5-0.3-1-0.2-0.7-0.4-0.5-0.2-0.5 0-0.4 0.2-0.5 0.6-0.5 0.5-0.3 0.5-0.1 2.6-0.1 0.8 0.1 0.3 0.1 0.4 0.4 0.2 1 0.1 0.2 0.4 0.5 0.2 0.2 0.5 0.3 0.6 0.1 0.3-0.5 0-0.6-0.2-1.1-1-3.1-0.3-0.7-0.6-0.6-0.6-1-0.9-1.8-1.7-2.6-0.7-1.7 0-1.3 1.9-11.3 0.1-0.2 1-2.3 1.9-3.1-0.1-0.5-0.2-0.7-0.7-1.4-0.4-0.6-0.4-0.3-2.1-1.6-0.2-0.3 0.2-1.8 1.1-6.9 3.3 1.4 0.4 0.2 0.6 0.6 0.9 1.7 0.5 0.7 1 0.2 2.9 0.1 0.8-0.1 1-0.4 0.5-0.2 0.9-0.7 2.3-2 0.2-0.1 11.9-1 0.6-0.2 2.3-1.2 6.3-2.1 1.4-0.7 0.5-1.5 0.9-1.5 0.2-0.6 0.3-0.7 0-0.7 0-0.7-0.6-2 0.1-0.6 0.2-0.8 0.7-1.6 0.5-0.7 0.4-0.2 0.6 0.2 0.4 0.5 1.2 2 0.7 0.9 0.7 0.6 1.6 0.9 0.6 0.6 0.2 0.6 0.2 1.8 0.1 0.3 0.3 0.6 0.5 0.3 0.7 0.3 2.7 0.4 0.7 0.2 0.2 0.1 0.5 0.4 0.3 0.5 0.7 1.4 0.3 0.5 1.5 0.9 0.4 0.4 0.4 0.5 0.7 0.3 3.8 1.2 1.2 0.2 0.8 0 0.6-0.4 0.3-0.4 0.2-0.7 0.1-1.9 0.2-0.6 0.5-0.8 4.5-4.1 0.7-0.4 7.4-4.7 0.4-0.5 0.9-1 2.5-1.8 0.5 0 0.6 0 0.5 0.4 0.5 0.7 0.5 1.1 0.7 2.2 0.2 0.6 0.4 0.5 5 5.9 0.5 0.9 0.3 1 0.1 2.9 0.3 1.9z" id="SYR146" name="Dar`a" data-id="SYR146" data-name="Dar`a">
 </path>
 <path d="M95 699.8l0.3 3.4-1.4 3.9-3.4 3.5-0.5 2.2-2.9-0.5-9.1-4.6-3.4 2.3-0.8-1.8 3.2-3.4-3.5-1.7-2.4 0.3-1.1-3.3 5.7-3.2 4.5-0.2 8.4-2.5 4.1 0.4 2.4 3.3-0.1 1.9z" id="SYR4843" name="Damascus" data-id="SYR4843" data-name="Damascus">
 </path>
 <path d="M18.9 737.6l0.1 0.2 0.4 1.5-0.2 1.7-0.6 1.6-1.1 0.8-1.1 0.4-0.7 0.4-0.3 0.3 0.1 0.7 0.9 0.2 1.5 0.1 1.5 0 0.8 0.6 0.3 0.5 0.1 0.7 1.1 5.6 0.7 2.1 1.3 1.8 1.6 2.1 0.5 1 0 0.7-0.9 1 0 0.8 0.3 1 0.5 0.4 0.3 0 1-0.6 0.5 0.1 0.9 0.5 0.2 1 0.6 1 0 4.8-0.1 0.7-0.7 0.4-1.7 0.8-0.4 0.7 0.2 0.7 0.6 0.7 0.8 0 0 1.3-1.9 0-3.2 0.4-0.6 4.6 1.9 15.9 3.1 1.3 3.9 3.2-1.8 3.6-3.3 3.4-4.4 8.6-2.1 7.9 0 0.1 0.2 1-0.8 1.5-3.2 4.6-0.9 1.7-1.2 0.7-2.4 1.5-3.3 4.6-0.8 0.2-1 0.5 4-6 7.5-8.9 1.2-4.6-0.6-2.2 1.7-5.4 2.6-4.4 1.1-0.3 2.1-4-3.5-5.9-0.9-2.2-1.9-17.1 0.4-2.4-5.6-2.3 0-2.7 1.7-2.6 1.6-3.6-0.5-5.1-3.4-2.1-0.6-8.4-4.2-3-1-1.4 5-7.1-5.7-4 3.3-1.5 1.1-1.2 2.5-1.9 0.3-2.4 0.5-0.9 0.2-3 0.9-1.1-0.2-1 7.3-4.4 0.5 2.7-0.5 1.7-1.3 1.4-2.5 1.8-1.5 2-0.7 2.4 0 2.4 0.7 2.2 1.2 2.9z" id="SYR5261" name="UNDOF" data-id="SYR5261" data-name="UNDOF">
 </path>
 <circle cx="127.8" cy="265.2" id="0">
 </circle>
 <circle cx="425.8" cy="197.4" id="1">
 </circle>
 <circle cx="141.4" cy="719.1" id="2">
 </circle>
</svg>