<?xml version="1.0"?>
<!--
************* Copyright (c) 2017 Pareto Softare, LLC DBA Simplemaps.com *******************		
************* Free for Commercial Use, full terms at  http://simplemaps.com/resources/svg-license ************
************* Attribution is appreciated! http://simplemaps.com ***************************
-->
<svg baseprofile="tiny" fill="#7c7c7c" height="1323" stroke="#ffffff" stroke-linecap="round" stroke-linejoin="round" stroke-width="2" version="1.2" viewbox="0 0 1000 1323" width="1000" xmlns="http://www.w3.org/2000/svg">
 <path d="M722 162.9l-5.2 7.5-8.9 3.1-4.4 0.1-4.1 1.1-8.2 3.3-4.6 1-9.1-0.9-11.6-4.6-2.3 7.2 8.1 137.6-2.1 20.4-5.4 8.2-24.6 10.6-15.4 2.8-29.8 0.4-5 0.6-5.7 1.7-6.3 4.9-3.4 4-4 9.8-4.2 5.8-6.8 4.9-11.9 5.8-3.3 2.5-1.9 3.8-2.3 14-1.1 3.5-3.3 4.5-5.3 3.2-43.5 15.6-8.1 4.3-4.3 3.2-5 1.9-6.8 0.8-26.1-3.6-3.3 0.9-4 5.3-1.4 3.6-4.3 3.2-7.5 3.3-22.3 6.9-7.3 3.5-4.9 3.5-4.9 7.2-0.2 4.3 1.8 11 0.5 6.4-0.9 4.8-2.6 4.5-8.6 8.4-2.4 4.3-0.1 4.4 2.2 12.1-0.9 7.5-1.9 7.6-0.8 7.9 1.7 13.8 0.3 6.1-1.9 3.9-3.8 2.9-6.1 1.9-8.2-0.4-9-2.7-15.7-11.5-6.1-5.5-3.9-4.6-6.8-2.1-9.7-0.4-6.6 0.5-4.6 1.4-6.3 2.9-7.7-0.4-33.8-7.8-4.1-0.4-4.5-2.1-3.5-3.6-5.6-8.7-6.2-12.4-4.3-5.5-110.2-70.4-9.1-3.9 54.2-68.9 50.8-90.8 40.3-97 11.4-43.8 9.7-17.4 66.2-59.4 75.5-67.4 21-10.6 25.9-6.9 22-0.3 19 6.4 158.5 102.8 80.9 52.7z" id="SWZ534" name="Hhohho" data-id="SWZ534" data-name="Hhohho">
 </path>
 <path d="M869.5 1192.5l-21.9-1.3-5.6-2.3 1.2-9.3-0.3-3.6-1.9-2-6.1-1.1-13.1-0.7-6-1.1-5-1.9-1.7-4.5-0.5-3.8 0.8-14.5-1-2.6-2.6-2-23.6-9.5-7.4-2.1-6.8-0.7-5.9-1.5-4.1-3.5-13.7-33.1-4.5-5.3-7.1-2.6-6.3 0.2-21.8 5.8-7.2 0.7-7.3-0.8-6.8-2.2-6.9-3.2-33.6-20.7-18.4-14.2-13.1-14.6-7.2-6.1-6-3.8-10-3-3.8 1.2-4.2 2.7-4.4 1.1-4.3-1.7-5.2-4.6-9.8-10.7-4-5.9-15.6-28.3-2.1-5.9 2.4-7.3 2.6-5.5 9.5-15.2 4.9-11.1 13.5-16.6 3.6-6.5 1.7-6.6-1.7-9.9 0.1-6.3 1.3-6 6-11.4 2.3-5.5-3.9-3.7-5.2-2.8-43.3 1.6 0.7-16.8 4.8-19.5 17.4-43.4 2.7-4.2 6-5.7 43.7-20.6 5.3-4.8 3.1-7.2-1.8-30.2-4.2-25.5-3-8.5-6.4-11.2-0.7-4.6 3.7-3.3 6.9-2.5 6.4-3.4 4.7-4 0.5-6.8-0.5-4.5-2.3-9-0.2-4.8 0.8-6.5 3.8-8.1 0.9-19.6-1-6.9-3.1-10.6-0.1-3.6 1.5-2.4 9.8-5.6 4.4-3.4 2.5-3.7 0.1-7.1 1.1-5.8 5.1-6.4 14.3-12.6 7.3-8.2 7-9.5 4.7-12.6 2.8-13.1 1.8-20.9 6.1-21.6-3.3-7-1.2-4.4 0.9-5.1-1.9-16-15.4-48.6 5.4-8.2 2.1-20.4-8.1-137.6 2.3-7.2 11.6 4.6 9.1 0.9 4.6-1 8.2-3.3 4.1-1.1 4.4-0.1 8.9-3.1 5.2-7.5 65.5 42.6 21.5 6.6 21.3-5.1 42.9-21.4 19.5 18.5 21.5 11.7 49.8 12.8-9.8 26.1 3.9 30 8.9 30.8 5.1 28.8-2.7 22.2-24.7 66-3.7 24.3 9.3 86 5.6 23.4 35.4 71.4 7.7 68.5-2.6 215.9-12.1-5.5-18.4-18.5-12-2.4-50.1-0.2 1.6 25.1-12.7 74.1-11.6 68.9-13.2 77.2 1.6 51.8z" id="SWZ535" name="Lubombo" data-id="SWZ535" data-name="Lubombo">
 </path>
 <path d="M528.5 856.7l-30.1-5.3-15.4 3.1-12 7.8-5.1 4.3-4.4 5.2-6.3 5.9-6.9 2.7-35.1 3.5-5.1 2.2-2.6 2.4-0.6 3.4-4.3 7.4-7.1 5.4-4.6 7.4-1.3 15.1-2.5 0.7-4.8-1.2-34-25.6-7.9-4.6-8.6-1.6-7.2 2.4-6.7 3.4-6.3 1.4-8.5 0-9.8 3-40.1 21.4-33.4 26.4-3.1 0.7-1.3-2.2 1.2-8.6 3.6-11-0.6-3.3-10.5-13.7-2.2-4.1-0.3-3.2 2.4-9.7 0.1-7.1-0.9-12.1-1.3-4.7-2.4-3.9-6.4-6.6-6.9-1.8-6.8 0-26.1 5.9-17.1 0.8-8.4-3.8-8.3-7.1-3.2-2.3-6 3.4-25.1 6.4-10.6 11.5-3.8-11.3-8.6 10.7-11.5 9.8-12.7 7.1-12.4 2.4-13 0.8-5.1-19.6-7.4-57.5-2.1-204.5 16.2-62.6 69.4-88.2 9.1 3.9 110.2 70.4 4.3 5.5 6.2 12.4 5.6 8.7 3.5 3.6 4.5 2.1 4.1 0.4 33.8 7.8 7.7 0.4 6.3-2.9 4.6-1.4 6.6-0.5 9.7 0.4 6.8 2.1 3.9 4.6 6.1 5.5 15.7 11.5 9 2.7 8.2 0.4 6.1-1.9 3.8-2.9 1.9-3.9-0.3-6.1-1.7-13.8 0.8-7.9 1.9-7.6 0.9-7.5-2.2-12.1 0.1-4.4 2.4-4.3 8.6-8.4 2.6-4.5 0.9-4.8-0.5-6.4-1.8-11 0.2-4.3 4.9-7.2 4.9-3.5 7.3-3.5 22.3-6.9 7.5-3.3 4.3-3.2 1.4-3.6 4-5.3 3.3-0.9 26.1 3.6 6.8-0.8 5-1.9 4.3-3.2 8.1-4.3 43.5-15.6 5.3-3.2 3.3-4.5 1.1-3.5 2.3-14 1.9-3.8 3.3-2.5 11.9-5.8 6.8-4.9 4.2-5.8 4-9.8 3.4-4 6.3-4.9 5.7-1.7 5-0.6 29.8-0.4 15.4-2.8 24.6-10.6 15.4 48.6 1.9 16-0.9 5.1 1.2 4.4 3.3 7-6.1 21.6-1.8 20.9-2.8 13.1-4.7 12.6-7 9.5-7.3 8.2-14.3 12.6-5.1 6.4-1.1 5.8-0.1 7.1-2.5 3.7-4.4 3.4-9.8 5.6-1.5 2.4 0.1 3.6 3.1 10.6 1 6.9-0.9 19.6-3.8 8.1-0.8 6.5 0.2 4.8 2.3 9 0.5 4.5-0.5 6.8-4.7 4-6.4 3.4-6.9 2.5-3.7 3.3 0.7 4.6 6.4 11.2 3 8.5 4.2 25.5 1.8 30.2-3.1 7.2-5.3 4.8-43.7 20.6-6 5.7-2.7 4.2-17.4 43.4-4.8 19.5-0.7 16.8z" id="SWZ536" name="Manzini" data-id="SWZ536" data-name="Manzini">
 </path>
 <path d="M528.5 856.7l43.3-1.6 5.2 2.8 3.9 3.7-2.3 5.5-6 11.4-1.3 6-0.1 6.3 1.7 9.9-1.7 6.6-3.6 6.5-13.5 16.6-4.9 11.1-9.5 15.2-2.6 5.5-2.4 7.3 2.1 5.9 15.6 28.3 4 5.9 9.8 10.7 5.2 4.6 4.3 1.7 4.4-1.1 4.2-2.7 3.8-1.2 10 3 6 3.8 7.2 6.1 13.1 14.6 18.4 14.2 33.6 20.7 6.9 3.2 6.8 2.2 7.3 0.8 7.2-0.7 21.8-5.8 6.3-0.2 7.1 2.6 4.5 5.3 13.7 33.1 4.1 3.5 5.9 1.5 6.8 0.7 7.4 2.1 23.6 9.5 2.6 2 1 2.6-0.8 14.5 0.5 3.8 1.7 4.5 5 1.9 6 1.1 13.1 0.7 6.1 1.1 1.9 2 0.3 3.6-1.2 9.3 5.6 2.3 21.9 1.3 2.4 78.4 4.1 12.3 5.1 9.1 3.8 9 2.2 9.6 0.4 11.1-67.1-0.9-71.8-1-191.5-2.6-50.1-10.3-226.2-78.3-11.3-7.7-11.5-11.6-35.8-54.1-76.7-69.9-16.8-29.2-3.2-20.9 7.7-32.9 1-20.9-4.4-16.7-8-12.4-21.4-22.8-9.9-15.1-12.9-38.3 10.6-11.5 25.1-6.4 6-3.4 3.2 2.3 8.3 7.1 8.4 3.8 17.1-0.8 26.1-5.9 6.8 0 6.9 1.8 6.4 6.6 2.4 3.9 1.3 4.7 0.9 12.1-0.1 7.1-2.4 9.7 0.3 3.2 2.2 4.1 10.5 13.7 0.6 3.3-3.6 11-1.2 8.6 1.3 2.2 3.1-0.7 33.4-26.4 40.1-21.4 9.8-3 8.5 0 6.3-1.4 6.7-3.4 7.2-2.4 8.6 1.6 7.9 4.6 34 25.6 4.8 1.2 2.5-0.7 1.3-15.1 4.6-7.4 7.1-5.4 4.3-7.4 0.6-3.4 2.6-2.4 5.1-2.2 35.1-3.5 6.9-2.7 6.3-5.9 4.4-5.2 5.1-4.3 12-7.8 15.4-3.1 30.1 5.3z" id="SWZ537" name="Shiselweni" data-id="SWZ537" data-name="Shiselweni">
 </path>
 <circle cx="225.7" cy="846.5" id="0">
 </circle>
 <circle cx="225.7" cy="1140.1" id="1">
 </circle>
 <circle cx="263.1" cy="484.3" id="2">
 </circle>
</svg>