<?xml version="1.0"?>
<!--
************* Copyright (c) 2017 Pareto Softare, LLC DBA Simplemaps.com *******************		
************* Free for Commercial Use, full terms at  http://simplemaps.com/resources/svg-license ************
************* Attribution is appreciated! http://simplemaps.com ***************************
-->
<svg baseprofile="tiny" fill="#7c7c7c" height="534" stroke="#ffffff" stroke-linecap="round" stroke-linejoin="round" stroke-width="2" version="1.2" viewbox="0 0 1000 534" width="1000" xmlns="http://www.w3.org/2000/svg">
 <path d="M496.8 96l7 0 13.5-2.6 45.3 5.9 21-4.3 9.6-0.5 9.7 4.8 7.7 10 17.9 39-12.6-4.3-8.1-11-6.7-13-8.3-9.8 6 17.8 13.9 27.7 5.3 14.8-9.9 2-7.3-5.2-13-19-5.5 11.4-4.6 0-11.5-21.8-19-6-45.5 5.5-18.4 1.7-5.7-4.5-6.6-13-2.7-9.2-1.9-29.4 12.4 2 5.9 2.4 12.1 8.6z" id="TCA5003" name="Middle Caicos" data-id="TCA5003" data-name="Middle Caicos">
 </path>
 <path d="M421.8 9.6l1.7 6.3-2.5 12.3 6.5 46.6 10.9 16.2 23 2.4-14.7 11.9-12.8-3.1-11.1-8.8-9.6-4.9-6.1-2-8.8-5-8.4-7-4.6-7.8 1-10.4 11.3-18.6 2.8-9.5-5.5-13.8-12.2 7.2-17.6 20.4-3 6.3-7.1 1.7-8.4-1.7-6.6-3.8-3.1-7.5 1.2-7.8-0.4-7-8.3-4.9 3.3-6.1 4.7-4.9 5.9-3.5 6.8-1.8 43 0 14.4 5 14.3 3.6z" id="TCA5004" name="North Caicos" data-id="TCA5004" data-name="North Caicos">
 </path>
 <path d="M22.6 251.2l-21.6 11.6 0-4.9 8.2-8.3 5-14.3 2.2-16.8-0.2-15.4 20.1-3 0.2 23.1-13.9 28z m247.8-166.2l-6 5.5-6.4-0.6 10-8.2 2.4 3.3z m-141.5 1.2l46.5 43.3 9.8 3.6 14.4-0.1 14.4-2.5 9.6-3.5 10.6-10.2 6-8.5 8-2.1 16.2 9.5 0 5.9-19.7 19.1-5.9 7.6-3.9-11.6-0.7-4.8-20.6 10.9 7.6 2.7 2.4 2.8-10.9 5.9-18.7-2.8-10.7 2.8 0-11.4-29.2 23.7-13.3 2-8.3-20.2 4.6 0 4.6 6.7 6.9 3.4 5.2-1.6-0.7-8.5-4.5-4.3-25.7-12.1 2.4 10.9-1.9 8.2-6 5.6-10.1 3.1-2-9 3.5-3.9 3.5 1.5 2.9-10.5 9.3-17.2 3-10.4-15.9 12.4-4.3 4.4-2.2-10.4 7.7-24.9-0.5-13.6 16.6 8.1z m158.6-11.9l-4.9 2.1-1.4-5.6 5-8.7 3.9-2.3 1.9 3.6-0.1 6.5-4.4 4.4z" id="TCA5005" name="Providenciales and West Caicos" data-id="TCA5005" data-name="Providenciales and West Caicos">
 </path>
 <path d="M593.3 526l-12.7 7-2.4-1.5 13.9-9.9 1.2 4.4z m37.2-9l-4.7 12.5-4.6-6.7 4.8-12.6 4.1-4.4 0.4 11.2z m96.7-174.7l0.7 18.2-5.9 10.6-12.3 3.8-12.3-8.1-1.6-13.6 8.8-6.1 8.9 1.3 5-4.1 0.2-19 5.3-13.8 3.9 4.5-0.7 26.3z m27.8-106.6l-8.6 1.8-10.4-10.6-16.7-23.8-15.5-9.6-32.7-14.2-12.8-14.7 8.9-5.7 1.7-4.7 24.5 16.2 12.9 5.3 18 5.2 14.9 6.2 14.2 11.7 7.2 16.4-5.6 20.5z" id="TCA5006" name="South Caicos and East Caicos" data-id="TCA5006" data-name="South Caicos and East Caicos">
 </path>
 <path d="M995.5 408.9l-8.3 11.8-5-15.1 0.5-17.7 4-17.6 5.5-14.7 5.7 12.3 1.1 20.5-3.5 20.5z" id="TCA5007" name="Grand Turk" data-id="TCA5007" data-name="Grand Turk">
 </path>
 <path d="M945.6 506.9l-9.2 9.8-4.1-2.9 3.7-14.7 3.3-6.8 7.2 0.3 5.6 4.8-6.5 9.5z" id="TCA5008" name="Salt Cay" data-id="TCA5008" data-name="Salt Cay">
 </path>
 <circle cx="988.2" cy="404.4" id="0">
 </circle>
 <circle cx="361.6" cy="37.5" id="1">
 </circle>
 <circle cx="984.5" cy="381.6" id="2">
 </circle>
</svg>