<?xml version="1.0"?>
<!--
************* Copyright (c) 2017 Pareto Softare, LLC DBA Simplemaps.com *******************		
************* Free for Commercial Use, full terms at  http://simplemaps.com/resources/svg-license ************
************* Attribution is appreciated! http://simplemaps.com ***************************
-->
<svg baseprofile="tiny" fill="#7c7c7c" height="1580" stroke="#ffffff" stroke-linecap="round" stroke-linejoin="round" stroke-width="2" version="1.2" viewbox="0 0 1000 1580" width="1000" xmlns="http://www.w3.org/2000/svg">
 <path d="M201 1019.1l17.3 8 3.1 1 6.8 0.3 2.3-0.2 1.1-1.6 7.7 6.4 0.5 0.8 1.6 6 1.2 0.4 23.4-0.4 1-0.1 1.4-0.5 1.8-0.9 1.5-0.6 0.8-0.1 0.9 0 3.5 0.5 1.1 0.3 2.2 0.2 1.3 0.2 1.3 0.7 1 0.4 0.6 0.1 0.7-0.1 0.8-0.4 0.5-0.4 1-1.1 0.8-0.6 0.8-0.5 21.8-3 1.1-0.3 0.8-0.5 0.8-0.5 1.5-1.3 0.7-0.4 0.9-0.3 1.9-0.6 0.9-0.4 0.8-0.3 0.5 0 1.4 0.8 0.8 0.4 2.3 0.4 0.8 0 1.7-0.6 1-0.3 5.5-0.8 0.7-0.2 0.6-0.3 1.3-1.3 0.3-0.3 0.8 0 5.1 1.2 6.8 2.5-4.1 6.2-1.4 1.6-1.4 1-8.4 8.1-2.5 3.6-0.2 0.5-0.1 0.6-0.1 0.8 0.2 0.6 0.2 0.4 0.3 0.4 3 2.4 2.2 1.3 2.9 2.4 0.7 0.7 4 7.8 0.4 1 1.5 6.3 1.3 3.4 0.7 1.2 0.6 0.7 0.8 0.6 0.9 0.4 0.8 0.5 0.4 0.6 0.8 2.4 0.5 0.7 0.4 0.6 0.8 0.7 0.7 1 0.7 0.7 1 0.3 0.6 0.1 1.2-0.1 0.7 0 0.6 0.2 0.6 0.4 0.7 1 0.2 0.9 0 1.2 2.4 12.2 0.4 1.3 1.7 2.3 0.8 0.6 2.3 0.8 0.4 0.3 0.6 1 0.6 1.5 0.3 0.5 1 0.9 0.6 1 0.3 0.7 0.1 0.7-0.1 2.7 0.2 0.7 0.2 0.5 1.3 1.3 0.4 0.3 0.9 0.4 1.2 0.2 1.1 0.1 1.1-0.1 1-0.3 1.1-0.1 0.6 0.1 0.4 0.2 0.8 0.6 0.9 0.3 2 0.2 1.1 0.4 1.1 0.8 0.8 0.5 0.8 0.2 0.7 2.6-4.5 16.2-0.2 1.4 0 1.4 0.6 1.7 9.6 19.4-15.7 4.7-18.4 16.8-13.6-6.9-5.8-6-6.7-5.9-6.8-1-7.7 0-4.9-3.9-0.9-13.9-9.7-11.8 0-10.9-2.9-10.9-11.6-6-43.6-16.8-7.7 8.9-9.7 3-15.4-1-15.5 4-4.9 3.9-8.7-1-3.8-4.9-5.8-1-3.9 4-9.7 1.9-8.7 2-6.8 0-8.8 1 0.1-6.7 0.2-0.9-1.6-7.3-1.3-2.4-0.1-0.4 0.2-1.1-0.1-0.4-0.5-0.3-0.6-0.3-0.4 0.1-0.6-0.3-0.4 0-0.1-0.2 0-1.1 0.2-0.6 0.8-1.5 0.3-0.5-3.1-11.9-1.1-2-3.1 0.7-1.7-0.2-0.7-1.6-0.2-0.9-0.7-1-0.8-0.8-0.9-0.3-0.5 0.3-1.4 2.4-1.1-1.6 1.4-3.2-0.7-1.6-1.5-0.5-2.8 0.8-1.5-0.9-0.6-0.6-1.7-1.1-0.3-0.5-0.1-0.6-0.1-0.5-0.8-0.3-0.6 0.1-1.8 1.4-0.9 0.2-0.5-0.6-0.1-0.9 0-0.9-0.8 0.3-0.6-0.1-0.3-0.4-0.2-0.9 0-3.7-1.7-1.7-2.9-2.2-1-1.5 0.1-1.2 1.4-4.4 0.2-2-0.3-1.6-0.3-0.5 0.7-0.4 3-0.6 1-0.2 0.9 0.2 0.4 0.7 0.6 0.5 0.7-0.2 0.2-0.8 0.7-0.9 1-0.5 1 0.2 1 0.4 1.6 1.7 0.8 0 0.7-0.1 1.4-0.1 1.3-0.3 0.3-0.5-0.5-1.2 0.2-0.5 30.1 0.1 0.8-0.1 0.6-0.3 0.4-0.6 0.6-2.3 1.3-3.5 0.5-2.2 0-0.6-0.1-0.5-1.7-5.6-0.2-0.4-0.7-0.8-0.7-0.6-0.3-0.3-0.1-0.6-0.1-1.8-0.4-1.7-0.3-0.9-0.5-0.9-0.1-0.5 0-0.5 0.3-0.4 0.5-0.2 0.7-0.1 1.9 0.7 1.5 0.7 2 0.7 1.2 0.3 1 0.3 1 0.6 1 0.3 2.8 0.5 3.3 1.2 0.7 0.5 0.5 0.8 0 1.5 0.7 0.6 2.3 1.1 0.4 0.3 0.5 0.8 1.1 0.9 0.3 0.4 0.7 1.9 0.5 0.8 0.8 0.6 0.5 0.1 0.5-0.2 0.5-0.6 0.5-1.3 0.2-1.2 0.1-0.5 0.3-0.4 0.3-0.3 1-0.4 0.6 0 0.4 0.1 0.7 0.7 0.4 0.1 0.5-0.3 4.8-3.9 0.3-0.4 0.1-0.5 0-0.5-0.5-1.5-0.2-0.4-0.4-0.3-0.5-0.2-4.6-0.9-0.4-0.2-0.7-0.6-8.2-11.7-0.5-1.1 0.5-0.5 1-0.4 12-2.3 1.1 0 0.6 0.5 0.4 0.4 2.2 3.8 1.1 1.6 1.8 1.6 0.8 0.5 11.3 5.3z" id="TCD1464" name="Hadjer-Lamis" data-id="TCD1464" data-name="Hadjer-Lamis">
 </path>
 <path d="M306.2 717.4l-17.2 30.1-21.3 76.4-12.6 44-1.9 23.1-5.8 10-26.1 31.9-17.5 7 1 31.5 11-0.1 0.5-0.2 0.4-0.3 2.1-2.6 0.4-0.3 0.5 0 0.6 0 1.1 0.3 1.9 0.8 2.3 0.5 2 0.8 0.6 0.3 0.5 0.5 0.4 1.2 0.4 1.4 0.4 2.3 0 0.6-0.5 1.2-1.8 3.1-0.1 0.6 0 0.8 1 3.2 0.2 1.4 0.5 1.4 0.2 0.4 0.9 1.1 2 2.1 0.5 0.8 0.2 1.4 0.2 26.4-0.3 2.3-1.3 3.8-1.1 1.6-2.3 0.2-6.8-0.3-3.1-1-17.3-8-17.5-47.5-15.4 0.1-28.2 7-0.7 0.1-4.7-0.9-0.7 0-1.1 0.2-2.2 1.7-1 0.4-0.9-0.7-14.4-23.2-2.7-3.2-3.7-3.2-1.1-1.3-8.3-11.4-0.7-0.6-0.6-0.5-1-0.3-1-0.3-6.3-0.6-0.8-0.2-1-0.5-1-1-2.6-4-1.1-1.2-4.3-1.4-1.3-1.1-5.5-6.1-3.2-1.7-0.7-0.5-0.3-0.5-0.5-1.4-0.6-4.2-0.2-0.7-0.5-0.8-0.5-0.4-0.6-0.1-0.6 0.1-0.4-0.3-1.6-2.2-0.7-0.5-0.6-0.3-1.2-0.1-3.3-0.1-0.9-0.2-0.5-0.2-0.4-0.4-1.1-1.7-4.3-1.4-15.7-1-0.7-0.4-0.6-0.8-1-1.3-1.2-1.1-1.2-0.2-1.3-0.2-10.1 0.1-0.7-0.2 1.6-0.3 3.2-2.7 0.7-1.7 0.1-1.9-0.6-3.7-0.3-0.6-1-0.9-0.2-0.5 0.4-0.5 1.8-1.3 3.1-3.5 0.9-0.7 1.9-0.4 1.8-0.2 1.5-0.8 0.8-2.2-0.1-2-1.4-4.2-0.3-2 0.1-2.1 0.5-1.9 6.9-15 5.6-7.9 2.8-4 2.9-4 2.8-4 5.7-8 2.8-4 5.6-8 5.7-8 2.8-4 5.7-8 2.8-4 5.5-7.9 10.8-11.6 3.6-3.9 5.3-5.8 16-17.2 10.6-11.6 16-17.2 10.6-11.6 15.9-17.3 5.3-5.8 8.6-9.2 1.2-1.8 0.3-1.1 1.6 0.7 112.3 55z" id="TCD1465" name="Kanem" data-id="TCD1465" data-name="Kanem">
 </path>
 <path d="M201 1019.1l-11.3-5.3-0.8-0.5-1.8-1.6-1.1-1.6-2.2-3.8-0.4-0.4-0.6-0.5-1.1 0-12 2.3-1 0.4-0.5 0.5 0.5 1.1 8.2 11.7 0.7 0.6 0.4 0.2 4.6 0.9 0.5 0.2 0.4 0.3 0.2 0.4 0.5 1.5 0 0.5-0.1 0.5-0.3 0.4-4.8 3.9-0.5 0.3-0.4-0.1-0.7-0.7-0.4-0.1-0.6 0-1 0.4-0.3 0.3-0.3 0.4-0.1 0.5-0.2 1.2-0.5 1.3-0.5 0.6-0.5 0.2-0.5-0.1-0.8-0.6-0.5-0.8-0.7-1.9-0.3-0.4-1.1-0.9-0.5-0.8-0.4-0.3-2.3-1.1-0.7-0.6 0-1.5-0.5-0.8-0.7-0.5-3.3-1.2-2.8-0.5-1-0.3-1-0.6-1-0.3-1.2-0.3-2-0.7-1.5-0.7-1.9-0.7-0.7 0.1-0.5 0.2-0.3 0.4 0 0.5 0.1 0.5 0.5 0.9 0.3 0.9 0.4 1.7 0.1 1.8 0.1 0.6 0.3 0.3 0.7 0.6 0.7 0.8 0.2 0.4 1.7 5.6 0.1 0.5 0 0.6-0.5 2.2-1.3 3.5-0.6 2.3-0.4 0.6-0.6 0.3-0.8 0.1-30.1-0.1 0.6-0.4 0.3-0.5 0.8-2.8 0.6-0.6 1.5-0.7 4.4-1.7-2.1-0.6-1.1-0.5-0.9-0.8-0.5-0.9-0.2-1.1 0.3-0.7-0.1-1.1-1.5-0.7-1-1.3-1.6-0.9-0.5-0.6-0.4-1.3 0.1-0.3 0.6-0.8-0.6-1.6-1.5-1.1-1.9 0.4-2.1-0.5 0.2 0.8 0.3 0.6-0.2 0.6-0.5 0.4-0.8-0.6-2.7-2.8-1.9-1.4-0.6-0.7-0.7-0.4-2.2 0.2-4.6 2-0.2 0.8 0.6 0.8-1.1-0.2-1-0.6-0.9-0.1-6 2.9-0.9 1.3 0.2 1-0.3 0.7-0.7 0.4-0.9 0.1-0.9-0.1-0.9-0.3-0.9-0.6-0.9-0.4-0.8 0 0.3 0.6 3.9 4.6 1.4 0.6 1.2 1 0.1 1.8 0.1 0.3-2.1 0-0.5-0.8-3.8-3.7-2.6-0.9 0.6 1.1 1.1 0.7 0.5 0.8 0.4 1 0.9 1.9-23.8 0.2-21.6-30.5-21.7-30.5-2.1-9.4-0.6-3.1-2.1-9.3-0.7-3.1-1.3-6.2-0.7-3.1-1.3-6.3-1.4-6.2-0.7-3.1-1-4.5-3.1-11.8 0-5.7 3.1-4.4 2.5-1.2 3.4-1.4 3.8-0.3 2.2-0.5 0.7 0.2 10.1-0.1 1.3 0.2 1.2 0.2 1.2 1.1 1 1.3 0.6 0.8 0.7 0.4 15.7 1 4.3 1.4 1.1 1.7 0.4 0.4 0.5 0.2 0.9 0.2 3.3 0.1 1.2 0.1 0.6 0.3 0.7 0.5 1.6 2.2 0.4 0.3 0.6-0.1 0.6 0.1 0.5 0.4 0.5 0.8 0.2 0.7 0.6 4.2 0.5 1.4 0.3 0.5 0.7 0.5 3.2 1.7 5.5 6.1 1.3 1.1 4.3 1.4 1.1 1.2 2.6 4 1 1 1 0.5 0.8 0.2 6.3 0.6 1 0.3 1 0.3 0.6 0.5 0.7 0.6 8.3 11.4 1.1 1.3 3.7 3.2 2.7 3.2 14.4 23.2 0.9 0.7 1-0.4 2.2-1.7 1.1-0.2 0.7 0 4.7 0.9 0.7-0.1 28.2-7 15.4-0.1 17.5 47.5z" id="TCD1466" name="Lac" data-id="TCD1466" data-name="Lac">
 </path>
 <path d="M621.6 772.5l0 159.7 0 14.2 21.3 10.8 0.9 0.7 0.4 0.6-0.7 21.1 0.5 2.3 0.8 1.9 3.3 5.3 0.3 0.9-0.2 15.7 2.2 17.4 0 10.2-0.3 1.2-0.6 1.4-2.6 4-0.7 0.7-0.4 0.3-1 0.3-24.4 5-0.7 0.3 0.2 0.5 0.7 0.7-26.9-8.3-22.3 10-28.7 17.2-5.2 2.4-1.6 0.3-1.4 0.1-57.6-2.2-1.7 0.1-1.9 0.5-34.1 18.9-2.7 1.9-4.4 5.4-1.3 1.1-1.2 0.4-10.7 1-1.6 0.4-1.7 0.7-24.7 21.4-1.9 2.7 1.4 5.1-0.8-0.2-0.8-0.5-1.1-0.8-1.1-0.4-2-0.2-0.9-0.3-0.8-0.6-0.4-0.2-0.6-0.1-1.1 0.1-1 0.3-1.1 0.1-1.1-0.1-1.2-0.2-0.9-0.4-0.4-0.3-1.3-1.3-0.2-0.5-0.2-0.7 0.1-2.7-0.1-0.7-0.3-0.7-0.6-1-1-0.9-0.3-0.5-0.6-1.5-0.6-1-0.4-0.3-2.3-0.8-0.8-0.6-1.7-2.3-0.4-1.3-2.4-12.2 0-1.2-0.2-0.9-0.7-1-0.6-0.4-0.6-0.2-0.7 0-1.2 0.1-0.6-0.1-1-0.3-0.7-0.7-0.7-1-0.8-0.7-0.4-0.6-0.5-0.7-0.8-2.4-0.4-0.6-0.8-0.5-0.9-0.4-0.8-0.6-0.6-0.7-0.7-1.2-1.3-3.4-1.5-6.3-0.4-1-4-7.8-0.7-0.7-2.9-2.4-2.2-1.3-3-2.4-0.3-0.4-0.2-0.4-0.2-0.6 0.1-0.8 0.1-0.6 0.2-0.5 2.5-3.6 8.4-8.1 1.4-1 1.4-1.6 4.1-6.2 6.1-8.8 0.6-1.6 0.2-1.9-0.7-22.4 0.1-1 3-18.1 0.3-1.2 0.5-1.1 1.1-0.7 28.6-9 41.8-176.1 8.7 8.4 11.8 7.3 5.8 2.5 19.9 4.7 7.8-0.1 2.8-0.5 18.9-5.9 9.5-4.4 4.1-2.7 10.6-9.1 5.1-5.9 2.8-5.5 7.3-20.6 0.2-1.2 0.9-11.9-0.4-9.9 0.1-0.6 0.4-0.3 0.7 0 1 0.3 1.4 1.4 0.7 0.4 1 0 1.8-0.3 0.5-0.1 1.2 0.2 3.3 1 0.6 0.3 0.8 0.5 1.1 1.1 0.6 0.7 0.4 0.6 0.4 2.1 1.3 9.2 0.4 1 0.7 1.3 1.3 1.4 12.5 8.1 1.6 0.6 7.4 1.3 11.6 3.6 3.7 1.7 5 1.4 12.9 1.5z" id="TCD1472" name="Batha" data-id="TCD1472" data-name="Batha">
 </path>
 <path d="M917 780l-2.3 0.3-2.5 1.7-6 7.4-7.5 4.7-1.8 2.2-0.7 3.1 0.7 2.8 1.6 2.6 2 2.2 2.1 2.7 0.9 3.1 0.2 3.3-1.2 11.4-0.7 2.2-4.3 7.9-0.7 0.9-3.2 1.2-2.2 1.2-1.8 1.6-8.6 9-1.1 2-0.5 2.4-0.1 1.8-0.5 1.7-1.9 1.7-3.5 2.4-0.7 1.5 0 2.5 0.7 5.4 0.6 1.7 1.4 3.2 0.2 0.8-0.5 1.4-1 0.7-19 5.1-4 2-3.9 3-1.7 3.4 2.1 3.7 2.9 2.2 0.8 1.3 1.3 10.5 0.3 0.6 0.5 0.5 0.3 0.6-0.1 0.7-0.4 0.5-1.3 0.6-0.4 0.4-0.9 1.7-0.1 0.8 0.3 1.1 0.9 2.1 1.1 1.5 1.6 0.8 5.3 1 1.7 1 0.9 1.9 0.6 3.2-0.1 2.8-1.4 1.7-2.2 0.9-2.6 0.5-2.1 1.2-3.5 3.3-1.9 1.3-15 7.2-2.7 1.8-2.3 2.4-1 1.1-2.6 0.4-1.4 0-1.3-0.3-1-1.1-2.3-3.6-0.5-0.5-4-2.6-32.2-10.8-25.3-4-1.3 0-5.6 0.3-2.8 0.6-4.3 2.2-0.8 0.6-1.6 1-0.9 0.4-1.9 0.6-1.1 0.1-1.7-0.1-3.3-0.8-9.2-4.7-6.7-4.6-1-0.1-1.1 0.1-0.9-0.2-0.6-0.2-0.4-0.4-5.6-5.9-2.3-3.1-2-4.6-0.5-0.8-0.4-0.3-2.7-1-0.8-0.4-0.7-0.6-1.4-1.3-0.9-0.5-2.1-0.6-0.5-0.3-1.2-0.9-16.7-5.6-0.7-0.1-0.9 0-4.3 0.5-0.9 0.3-4.4 2.3-1.1 0.1-1.2-0.2-3.3-0.7-0.5 0-0.5 0.1-1.3 0.6-0.4 0.1-1.4-0.6-1.2-0.3-0.5 0-1.8 0.1-0.6 0.2-0.7 0.3-0.6 1-0.7 1.2-0.3 0.4-0.4 0.4-2.4 0.6-0.7 1-0.4 1.4-1.5 0.9-5.3 4.4-14.9 16.7 0-159.7 7.6 1 3 0.9 2 1.1 4.7 3.5 9 4.3 1.3 0.5 1.2-0.1 4.6-1.3 3.8-1.7 8.6-1.1 0.7 0 0.5 0.2 0.9 0.6 1.7 0.8 2.1 0.8 1.2 0.1 0.8 0 1.9-0.7 0.9-0.4 2.7-2 3.3-1.9 16.4-6.2 6-3.9 1.3-1.4 1.2-1.6 1.7-3.2 0.2-0.3 0.7-0.7 0.8-0.6 1.7-1 5.5-1.6 1.7-1 2.3-2 1.4-0.8 0.4-0.2 0.6 0.1 0.9 0.4 6.7 4.4 10.5 4.5 1.1 0.2 0.7 0 0.6-0.1 5.6-3.1 1-0.3 24.1-5.2 4.9-1.6 3.5-0.7 1-0.1 1.4 0.1 0.5 0.1 7.8 2.8 4.3 2 1.8 0.5 0.7 0 0.5-0.1 4.4-1.9 2.2-1.3 2.5-0.8 4.1-0.5 3 0.1 2.4 0.4 2.5 0.7 0.5-0.1 0.4-0.2 1.2-1.2 0.6-0.4 0.6-0.1 0.2 0.1 2.6 2.7 3.8 3 0.9 0.5 1.2 0.4 0.8 0.2 1.5 0.3 0.8 0 0.8-0.1 0.5-0.1 1.4-0.6 0.5-0.2 1-0.7 0.7-0.4 0.7-0.1 0.8 0 0.5 0.2 0.4 0.3 0.7 0.6 0.8 0.6 2.1 0.8 1.2 0.1 3.7 1.3 0.4 0.4 0.4 0.7 0.5 1.6 0.6 0.7 0.7 0.5 1.1 0.5 0.4 0.3 0.5 1.5 0.2 0.4 0.9 0.5 0.3 0.4 0.3 0.4 0.3 1 0.4 0.4 0.6 0.2 0.9 0.3 0.7 0 0.5-0.2 1.3-0.7 0.5-0.2 1.1-0.2 2.9-0.1 3.3-0.6 2 0 2.8 0.2 0.7 0 1.8-0.7 1.2-0.3 0.8 0 0.6 0.1 0.5 0.3 1.9 1.5 1 0.4 2.4 0.4 1 0.5 0.7 0.3 1.3 0.4 0.9 0.1 0.7 0 1.1-0.2 2-0.6 1.9-0.9 0.7-0.3 1.3-0.3 0.9-0.1 0.7 0.1 2.2 0.4 5.7 2.3 0.4 0.2 0.7 0.7 4.6 7.3 0.1 0.3z" id="TCD1473" name="Wadi Fira" data-id="TCD1473" data-name="Wadi Fira">
 </path>
 <path d="M620.6 1047.7l13.9 10.7 0.5 0.3 0.4-0.1 0.9-0.3 0.4-0.1 0.7 0.5 0.3 0.3 0.3 0.6 0.1 0.7-0.1 1.5 0.1 2.1-0.1 0.7-0.4 0.9-1 1.2-0.7 0.3-0.7 0.1-1-0.2-0.5 0.1-0.5 0.4-6.4 8.6-0.6 1.1-0.1 0.8 0.2 0.5 0.6 0.8 3 3.1 0.5 0.7 0.2 0.8-0.1 0.4-0.4 0.6-1.5 1.1-1.5 0.6-0.4 0.3-1 0.9-0.6 0.8-2.4 3.5-3.5 3.4-2.2 3.3-0.7 0.8-0.6 0.5-0.4 0.3-0.7 0.6-0.6 0.7-0.5 0.8-2.8 6.2-6.1 17.5-0.2 1.9 0.1 5.5-16.9-1-19.5-5.3-4.4-0.7-16.1 15.5 6.5 10.7 0.5 1.5-0.2 1.4-0.5 1.3-9 16.6-1.4 1.3-1.3 0.9-8.4 3.1-1.2 0.3-0.8-0.1-0.6-0.9-2.6-6.5-0.6-0.9-0.9-0.4-0.6-0.1-10.4 0.2-1.3 0.3-0.5 1-0.2 1.2-1.8 28.1 0 0.9 0.2 0.6 0.5 0.9 0.3 1.4 0.3 0.5 0.5 0.3 1.8 0.2 0.5 0.2 0.4 0.3 0.7 1.3 0.4 0.2 0.5 0.1 1.1 0.1 0.5 0.2 0.4 0.3 0.6 1.3 0.6 0.8 0.9 0.4 0.5 0.2 1 0.4 0.4 0.2 1.5 1.3 3.8 2.3 0.4 0.2 1.8 0.3 0.5 0.2 0.3 0.3 0.5 0.8 0.3 0.4 0.4 0.2 1.7 0.4 0.5 0.2 1.3 0.7 1.9 1.5 0.4 0.3 0.5 0.1 1.8 0 1 0.3 1 1 1 0.4 1.5 0.5 1.2 0.8 1.1 0.4 1.7 0.3 0.5 0.2 0.8 0.5 0.9 1.1 0.4 0.3 3.6 1.8 0.5 0.2 0.6 0 1.5-0.3 0.6 0 1 0.2 0.5 0.3 0.6 0.8 1 1.7 0.6 0.7 0.9 0.4 1.1 0.3 1.2 0.1 0.6-0.1 1.5-0.4 1.1 0 0.9 0.3 0.4 0.3 1 1 0.8 0.6 0.9 0.2 1.1-0.2 1.1 0 1.9 0.8 0.8 0.5 0.8 0.6 1 0.4 1.1 0.2 0.5 0.1 0.9 0.6 0.6 0.7 0.9 0.4 1.2 0.3 0.9 0.4 0.3 0.3 1.4 2 0.6 1.3 0.4 0.7 0.4 0.5 0.5 0.2 1.1 0.3 0.5 0.4 0.5 0.7 0 0.5-0.3 0.3-1.5 1.1-0.7 0.7-0.1 1.7 1.1 16.7-1.8 8.3-1.7 1.4-2.5 0.9-0.4 0.4 0.1 0.8-0.3 0.6-0.8 0.5-0.4 0.5-0.4 0.5-0.6 1.6-0.4 0.3-0.4 0-1-1-0.7-0.1-0.3 0.3 0.1 0.9 0 0.5-2.1 3.8-0.6 0.2-0.6 0.1-0.7 0-2.4 0.6-0.9 0.1-1.4 0.3-0.7-0.1-0.4-0.3 0.1-0.9 0-0.4-0.4-0.2-0.7 0-0.6 0.2-0.8 0.6-0.7 0.3-0.9 0.2-0.7 0.3-0.9 0.7-0.8 0.3-0.6 0.5-1.6 1.6-1 1.3-0.4 0.7-1 1.2-0.3 0.7-0.1 0.6 0.4 1 0 0.6-0.4 0.2-0.7 0.2-0.4 0.2-0.2 0.4 0 1.5-0.2 0.6-0.4 0.3-0.5 0.1-1.3-0.1-0.8 0.2-0.3 0.3 0 0.4 0.3 0.3 0.7 0.6 0.2 0.4 0 0.6-0.4 1 0.1 0.4 0.9 0.6 0.2 0.4-0.2 0.3-0.5 0.1-0.6 0-0.6 0.2-0.3 1-0.4 0.5-0.6 0.5-1.2 0.7-0.6 0.5-0.5 0.6-0.3 0.7-0.5 1.1-0.8 0.8-0.3 0.7-0.4 0.4-0.5 0.3-0.7 0.1-0.9 0.5-0.4 0.4-0.4 0.4-1.6 3.1-0.4 1.6-0.4 1.2-0.4 0.1-0.5-0.2-0.5 0-0.8 0.3-0.9 0.9-0.7 0.4-0.9-0.1-0.5 0.6-0.4 1-0.6 1.1-0.6 0.7-1.2 1.9-1.5 1.8-1.4 1.3-1.1 0.9-3.7 1.8-5.2 0.7-13 0.1-1.1 0.4-0.6 1-2.1 8.9-0.4 0.7-0.5 0.3-2.6 0.5-2 0.8-1 0.1-0.7 0-1.2-0.9-1.9-2-0.4-0.3-0.6-0.1-0.7-0.1-1 0.1-1.3-0.3-0.9-0.4-0.5-0.4 0-0.2 0.9-8.3-0.1-1.4-0.2-0.5-0.3-0.3-0.4-0.3-1.1-0.3-0.7-0.6-0.3-0.4-0.3-1-0.4-0.8-1.3-0.8-0.3-0.3-2-2-0.4-0.3-1.6-0.5-0.4-0.2-0.6-0.6-1.2-2.2-0.7-1.3-0.3-0.4-0.7-0.6-0.6-0.7-0.7-1.2-0.3-0.4-0.7-0.6-5.1-1.5-1-0.4-0.7-0.6-0.7-0.6-1.1-1.6-0.5-0.2-0.6-0.2-1-0.1-2-0.6-3.9-0.1-0.5-0.1-0.8-0.7-0.4-0.4-1.9-0.8-0.3-0.3-0.3-0.4-0.4-1-0.3-0.4-0.6-0.2-1.8-0.1-0.6-0.2-0.6-0.7-0.5-0.3-0.8-0.1-0.5-0.2-0.5-0.3-0.1-0.5-0.2-1.1-0.1-0.6-0.3-0.4-0.4-0.4-0.5-0.2-0.8-0.2-0.6 0.1-0.7 0.7-0.6 0.4-0.4 0.1-0.4-0.2-0.7-0.8-0.5-0.4-1.9-0.2-1.2-0.5-0.5 0.2-0.8 0.7-0.4 0-0.8-0.5-0.5-0.2-0.8-0.1-2.3-0.7-1.4-0.3-0.5-0.2-1.3-0.7-1-0.4-1-0.3-0.6-0.2-0.6-0.4-8-7.6-0.6-0.5-0.7-0.3-27.8 1-22.5-11.7 1.9-15.7-1.9-21.7-3.9-25.6 1-24.7 18.4-16.8 15.7-4.7-9.6-19.4-0.6-1.7 0-1.4 0.2-1.4 4.5-16.2-0.7-2.6-1.4-5.1 1.9-2.7 24.7-21.4 1.7-0.7 1.6-0.4 10.7-1 1.2-0.4 1.3-1.1 4.4-5.4 2.7-1.9 34.1-18.9 1.9-0.5 1.7-0.1 57.6 2.2 1.4-0.1 1.6-0.3 5.2-2.4 28.7-17.2 22.3-10 26.9 8.3z" id="TCD1474" name="Guéra" data-id="TCD1474" data-name="Guéra">
 </path>
 <path d="M828.1 955.1l-7.7 9.9-2.3 3.8-0.1 0.9 2.2 2.1 1.5 2 0.3 1.4-0.2 1.5 0 2.2 1.7 3.8 6.1 5.6 1.4 3.8 0 5.6 0.4 1.9 1.3 2.3 3.3 4.1 1.2 2.2-0.8 4.1-3.4 4.4-8.7 9.3-1.6 1.1-10.2 4.1-1.6 0.9-3.3 3.2-2.7 3.8-7.8 14.9-2.4 7.3-1.5 3-0.2 0.6-10.7-3.6-11.6-5-8.7 3-9.7 6-8.7 8.9-4.8 2-3.9-1-9.7-1-10.6 3-12.6-5 0-8.9-0.9-7-7.8-1-6.8-1.9-0.9-13-25.2 0-10.9-4.5 0.6-1.4 0.3-1.2 0-10.2-2.2-17.4 0.2-15.7-0.3-0.9-3.3-5.3-0.8-1.9-0.5-2.3 0.7-21.1-0.4-0.6-0.9-0.7-21.3-10.8 0-14.2 14.9-16.7 5.3-4.4 1.5-0.9 0.4-1.4 0.7-1 2.4-0.6 0.4-0.4 0.3-0.4 0.7-1.2 0.6-1 0.7-0.3 0.6-0.2 1.8-0.1 0.5 0 1.2 0.3 1.4 0.6 0.4-0.1 1.3-0.6 0.5-0.1 0.5 0 3.3 0.7 1.2 0.2 1.1-0.1 4.4-2.3 0.9-0.3 4.3-0.5 0.9 0 0.7 0.1 16.7 5.6 1.2 0.9 0.5 0.3 2.1 0.6 0.9 0.5 1.4 1.3 0.7 0.6 0.8 0.4 2.7 1 0.4 0.3 0.5 0.8 2 4.6 2.3 3.1 5.6 5.9 0.4 0.4 0.6 0.2 0.9 0.2 1.1-0.1 1 0.1 6.7 4.6 9.2 4.7 3.3 0.8 1.7 0.1 1.1-0.1 1.9-0.6 0.9-0.4 1.6-1 0.8-0.6 4.3-2.2 2.8-0.6 5.6-0.3 1.3 0 25.3 4 32.2 10.8 4 2.6 0.5 0.5 2.3 3.6 1 1.1 1.3 0.3 1.4 0 2.6-0.4z" id="TCD1475" name="Ouaddaï" data-id="TCD1475" data-name="Ouaddaï">
 </path>
 <path d="M283.9 1418.9l0.4 1 1 1.4 0.3 0.6 0.7 2.5 0.3 0.8 0.6 0.8 1.8 3 2.1 2.3 0.3 0.5 0.3 0.9 0.3 0.3 0.4 0.1 1.2-0.2 0.4 0.1 0.3 0.7 0.2 1.5 0.2 0.5 0.5 0.4 1 0.1 0.4 0.2 1.4 1.4 0.8 1.2 0.3 1.4 0.1 2.1-7.9 12.3-2.2 2-3.5 1.2-2.1 0.5-2.1 0.8-1.6 1.2-1.2 3.4-1.4 0.9-7.3 0.8-13.5 4.1-4.4 3.5-7.3 4.1-1 0.4-0.7 0.3-2.2 2.3-8.3 4.6-2.4 2.4-0.9 3.6 0 0.4-0.1 0.5-0.3 0.7-3.3 3.9-0.5 0.3-0.7 0.2-1.5 0-5.1-0.9-0.8 0-0.9 0.5-1.9 0.6-0.7 0.6-1.1 1.6-1 0.9-0.9 0.4-1.7 0.1-0.6 0.1-1.2 0.7-0.8 0.3-3.6 0.5-0.5-0.1-0.5-0.2-0.3-0.6-0.1-0.9-0.3-0.2-0.8 0-1.3 0-0.6 0-0.5-0.2-0.5-0.3-0.2-0.7-0.1-0.6 0.1-0.6 0.4-0.9-0.1-0.4-0.6-0.5-1.2-0.6-0.8-0.7-0.5-0.6-0.6-0.6-0.7-0.4-1.8-0.3-2.2 0-1.1-0.5-6.8-4.6-3.4-1.5-3.7-2.3-0.2-1.2-0.5-1.4-0.1-0.6-0.1-1.1 0.1-0.9 3.9-16.2 0.3-0.7 0.7-0.9 5.3-5.1 0.3-0.5 0.1-0.5-0.1-1.7 0.3-2.1-0.2-1.2-0.4-1.5-0.1-1.1 0.1-3.2 0.4-1.8 3.9-11.6 1-0.9 3.4-1.3 1.5 1.4 0.8 0.5 1.9 0.9 0.9 0.3 1.1 0.2 1.3 0.2 2.5-0.1 2.4-0.2 15.2-3.7 3.6 0.7 2.3 0 1.1-0.3 14.1-7.5 2.2-0.7 1.9-0.3 1.1-0.1 0.9 0.1 9.3 2.7 0.6 0 0.6-0.3 0.8-0.6 1.2-1.3 1.3-2.4 0.8-1.2 0.7-0.7 0.7-0.4 3.5-1.6 2.2-0.7 2.1-0.4 1-0.4 0.6-0.4 0.8-0.7 2.7-2.8 0.9-0.5 1.3 0.1 0.7 1.2 4 4.3 1.2 2.8 0 1.4 0.2 0.9z" id="TCD1484" name="Logone Occidental" data-id="TCD1484" data-name="Logone Occidental">
 </path>
 <path d="M347.3 1424.4l1.8 6.2 0.2 0.9-0.8 20.4-0.7 2.1-0.8 1.8-5.1 7.8-1.4 2.7 0.3 1.2 0.3 0.9 19.9 30.7 0 0.6-0.3 0.3-0.8 0.5-0.3 0.4-0.2 0.5-0.2 1.8-0.2 0.5-0.5 0.8-1 1-0.5 0.8-0.9 1.7-0.3 0.4-1.1 0.9-0.3 0.4-0.9 1.7-0.7 0.6-0.5 0.1-0.6 0-1.2-0.1-1.1 0-1.5 0.4-1.7 0.2-0.6 0.2-0.4 0.4-0.2 0.6 0.1 0.5 0.9 1.1 13.5 29.6-1.2 1.2-0.6 1.1-0.3 1.8-0.7 0.4-0.7-0.1-0.8 0.1-1.7 1.6-3.3 4-1.8 1.8-1.4 0.9-0.6-0.1-0.5-0.5-1-0.6-1.9-0.6-1.3 1.1-0.4 0.9 0.1 0.8-0.3 0.4-2.9-0.5-1.1 0.1-0.8 0.6-0.6 1.1-1.9-0.2-4 0.7-3.7 1.1-1.5 0.8-1 1.2-0.7 1.9 0.1 0.7 0.7 0.8-0.2 0.8-0.3 0.2-1.3-0.2-2.3 1.9-0.7 0.4-2.1 0.2-1.4-0.8-2-3.5-3.5-4-2.2-1.7-2.2-1.1-3.7-1.1-1-1-0.4-2.1 0.2-1.2 0.4-1 0.2-1-0.5-1.3-0.7-0.8-0.9-0.4-0.9-0.2-1-0.5-1.5-1.1-1-1.4-0.4-1.8 0.5-2.9 0-0.9 0-0.8-0.2-0.8-3.7 1.1-1.7 0.9-1.5 1.2-0.6 1-1.1 2.5-0.6 0.7-1.3 0.4-1-0.3-0.9-0.4-1-0.1-1.4 1.2-0.5 2 0 6.5-0.4 1.4-1.1 0.8-8.4 1.1-2 0.8-3.2 2.5-1.9 1.2-2.1 0.3-2.2-0.1-3.2 1.1-6 0.8-2.1 0.7-1.6 0.9-1.3 1.4-2.1 2.9-1.4 1.4-3 1.9-1.7 0.7-12.5 2.9-3.4 0.2-3.6-1.3-4.9-4.5-4.1-0.3-6.9 0.9-3.5-0.2-3.2-1.1 3.9-5 2.5-5.3 1.3-5.6 0-9.8-2.1-0.4-2.9-0.7-2.1-0.1-4.4-3.3-3.3-7.9-5.8-20.5-12.7-27.4 1.6-0.7 4.3-1.8 3.7 2.3 3.4 1.5 6.8 4.6 1.1 0.5 2.2 0 1.8 0.3 0.7 0.4 0.6 0.6 0.5 0.6 0.8 0.7 1.2 0.6 0.6 0.5 0.1 0.4-0.4 0.9-0.1 0.6 0.1 0.6 0.2 0.7 0.5 0.3 0.5 0.2 0.6 0 1.3 0 0.8 0 0.3 0.2 0.1 0.9 0.3 0.6 0.5 0.2 0.5 0.1 3.6-0.5 0.8-0.3 1.2-0.7 0.6-0.1 1.7-0.1 0.9-0.4 1-0.9 1.1-1.6 0.7-0.6 1.9-0.6 0.9-0.5 0.8 0 5.1 0.9 1.5 0 0.7-0.2 0.5-0.3 3.3-3.9 0.3-0.7 0.1-0.5 0-0.4 0.9-3.6 2.4-2.4 8.3-4.6 2.2-2.3 0.7-0.3 1-0.4 7.3-4.1 4.4-3.5 13.5-4.1 7.3-0.8 1.4-0.9 1.2-3.4 1.6-1.2 2.1-0.8 2.1-0.5 3.5-1.2 2.2-2 7.9-12.3-0.1-2.1-0.3-1.4-0.8-1.2-1.4-1.4-0.4-0.2-1-0.1-0.5-0.4-0.2-0.5-0.2-1.5-0.3-0.7-0.4-0.1-1.2 0.2-0.4-0.1-0.3-0.3-0.3-0.9-0.3-0.5-2.1-2.3-1.8-3-0.6-0.8-0.3-0.8-0.7-2.5-0.3-0.6-1-1.4-0.4-1 1.6-0.1 6-1.2 2.6 0.1 2.4 0.3 4.2 1.2 3.8 1.6 1.3 0.7 5 1.1 2.9 1.1 16 3.9 2.5 0.2 5.1-0.3 10-3.1z" id="TCD1485" name="Logone Oriental" data-id="TCD1485" data-name="Logone Oriental">
 </path>
 <path d="M263.4 1316.2l0.9 0.9 1.3 2 0.1 0.5 0.3 1-0.5 5.3 0.2 2.2-0.8 4.6-2.2 6.6-4.3 8.5-0.8 1.1-17.4 16.6-0.6 0.1-0.6-0.6-4.7-4.1-2.2-0.9-3.2-0.2-1-0.3-1.3 0.4-10.8 13.2-0.8 1.3-0.3 1.2-2.8 7.5-0.5 0.8-6.8 7-2.1 2.7-0.7 1.8-0.8 1.2-0.6 0.6-1 0.5-0.4 0.4-0.7 1-0.8 0.7-0.8 1.2-1.1 2.3-0.2 0.3-2.4 4.4-0.6 0.7-0.7 0.9-1.6 2.7-0.7 0.9-6.1-2.5-7-3.1-7.5-4.6-8.6-7.1-3.8-2.7-1.7-12.8-4.6-6.1 0.3-4.8-3-2.9-5.1-2.3-4.8 1.2-9.2 1.9-5.3-0.2-1.3-11.7 0.9-13.1 3.8 0.2 11.9-3.8 4.3 0.2 5.5 1.3 2.9 0.2 2.7-0.6 1-0.6 1.7-1.6 1-0.6 0.9-0.3 4.3-0.5 5.7 0.3 15.9 5.1 5.3-0.1 21.3-5.2 1.6-0.5-4.1-3.8-3.3-1-6.3-3.8-4.4-3.8 0.1-0.5-1.4-0.8-3.5-5-13-12.2-1.1-1.7-0.6-1.9-0.2-2.4-0.3-1.9-0.9-1.2-1.3-1-1.3-1.6-1.4-3.6-0.8-1.6-1.9-0.9-0.5-0.4-0.6-0.5-1-0.2-1.1-0.1-1-0.3-0.9-0.4-0.6-0.5-0.6-1.9 0-2.3 0.6-2.4 1-1.7 0.1-1.5-0.7-2.3-7.3-14.1-0.2-3.6 1.2-4.2 0.3-2.3-0.6-1.7-1-1.5-2.6-6.1-0.6-8.3 8.4-2.2 1.9-0.8 1.3-0.7 3-2.2 2.1-2.1 1.1-0.8 0.6-0.7 0.8-0.6 0.5-0.1 0.7 0 5 0.4 4.4 1.1 0.9 0.4 1.7 1 3.3 2.4 0.7 0.4 0.9 0.3 0.9 0.7 0 4.8 0.6 1.6 1.4 1.4 1.7 1.2 1.5 0.8 1.6 0.3 1 0.2 0.5 0.6 0.1 1.8 0.4 1.3 0.8 1.8 1.5 2.6 1 0.9 1.4 0.8 1.6 0.7 1.6 0.2 2.3 0 1.6 0.2 1.5 0.8 2 1.6 5.6 5.9 1.9 0.7 3.6 0.4 7.6 1.9 3.6 0.4 2.2-0.2 3.6-1 1.8-0.1 5 3.3 0.8 0.3 1.1-1.5 2.5 0.4 3.1 1.6 0.5 1.2-2.9 27.8 1.7 12.6 0.3 1.2 0.5 0.8 1.1 1 0.6 0.4 1.5 0.8 0.4 0.3 0.4 0.5 0.4 0.7 0.5 1.4 0.3 1.7 0.6 1.1 2.2 1.6z" id="TCD1486" name="Mayo-Kebbi Est" data-id="TCD1486" data-name="Mayo-Kebbi Est">
 </path>
 <path d="M368.6 1352.7l1 0.1 0.7 0.1 0.5 0.2 7 3.6 9.1 6.7 2 2 1.4 2 0.2 0.9-0.2 1.3-1.8 4.7-0.3 0.4-0.3-0.1-0.8-1-0.8-0.5-1-0.3-0.8-0.2-0.9-0.3-0.9-0.5-0.6-0.6-0.5-0.8-0.7-0.7-0.4-0.2-0.5-0.2-1.1 0.1-1 0.3-2.4 1.4-0.6 0.2-1.1 0.1-1.8-0.1-1.1 0.3-0.6 0.2-1.3 0.9-2.6 0.8-0.5 0.1-4.4-0.3-0.9 0.4-1 0.6-2 1.4-0.9 0.8-0.5 0.8-0.1 0.5 0 0.5 0.2 0.5 0.7 0.6 0.3 0.3 0.2 0.5 0.2 1.1 0.2 0.4 0.1 0.7 0 1.1-0.8 2.5-0.2 1.7 0 1.7 0.3 2.6 0.1 1.2-0.1 0.9-0.8 0.8-12.3 9.8-0.8 1.1 0.5 1 1 1 8.8 6.7 1 0.9 0.3 0.7-0.6 0.9-7.1 7.4-10 3.1-5.1 0.3-2.5-0.2-16-3.9-2.9-1.1-5-1.1-1.3-0.7-3.8-1.6-4.2-1.2-2.4-0.3-2.6-0.1-6 1.2-1.6 0.1-0.2-0.9 0-1.4-1.2-2.8-4-4.3-0.7-1.2-1.3-0.1-0.9 0.5-2.7 2.8-0.8 0.7-0.6 0.4-1 0.4-2.1 0.4-2.2 0.7-3.5 1.6-0.7 0.4-0.7 0.7-0.8 1.2-1.3 2.4-1.2 1.3-0.8 0.6-0.6 0.3-0.6 0-9.3-2.7-0.9-0.1-1.1 0.1-1.9 0.3-2.2 0.7-14.1 7.5-1.1 0.3-2.3 0-3.6-0.7-15.2 3.7-2.4 0.2-2.5 0.1-1.3-0.2-1.1-0.2-0.9-0.3-1.9-0.9-0.8-0.5-1.5-1.4-1.1-2.2-0.3-1.7 0-5 0.2-2.2 0-0.8-0.5-2.2-0.4-0.8-0.3-0.2-0.1-0.2 0.7-0.9 1.6-2.7 0.7-0.9 0.6-0.7 2.4-4.4 0.2-0.3 1.1-2.3 0.8-1.2 0.8-0.7 0.7-1 0.4-0.4 1-0.5 0.6-0.6 0.8-1.2 0.7-1.8 2.1-2.7 6.8-7 0.5-0.8 2.8-7.5 0.3-1.2 0.8-1.3 10.8-13.2 1.3-0.4 1 0.3 3.2 0.2 2.2 0.9 4.7 4.1 0.6 0.6 0.6-0.1 17.4-16.6 0.8-1.1 4.3-8.5 2.2-6.6 0.8-4.6-0.2-2.2 0.5-5.3-0.3-1-0.1-0.5-1.3-2-0.9-0.9 20.9 0.3 5.8-1.1 5.8-4.5 0.6-0.1 0.4 0.2 0.6 0.7 0.2 0.5 0.5 0.7 1.1 0.9 0.7 0.7 0.2 1 0.1 2.5-0.2 2.5 0.1 0.5 0.2 0.5 1 0.9 0.2 0.5 0.5 2.1 0.2 0.4 0.6 0.8 0.8 0.6 6.3 3.1 0.6 0.5 0.8 0.9 0.4 0.5 0.9 0.7 0.7 0.2 0.6 0.1 1.5-0.2 2.5 0.3 0.8 0.3 1.7 1.1 0.8 0.3 1.9 0.4 2.8 0 0.5 0.5 0.5 0.8 0.7 0.6 1.3 0.8 0.4 0.3 0.6 1.8 0.7 0.8 0.7 0.3 0.7 0.2 4.7-0.4 0.6-0.1 2.7 0.3 3.5 0.7 1.7 0.5 0.9 0.5 0.3 0.5 0.3 0.2 0.5 0 1.1-0.4 0.8 0 0.5 0.1 0.4 0.3 0.3 0.3 1.3 2.7 0.5 0.8 0.7 0.6 3.3 1.7 1.8 1.1 0.9 0.7 0.7 0.2 0.7 0.1 1.4-0.2 1.2 0.1 1.4 0.5 1.3 0.6 0.9 0.2 0.7 0.1 1.4-0.1z" id="TCD1487" name="Tandjilé" data-id="TCD1487" data-name="Tandjilé">
 </path>
 <path d="M388.2 1374.7l4 2.7 2.6 4.1 1.8 6.2 8.3-0.3 2 2.3 2.1 3.8 2.5 6.1 1.2 3.5 5.5 1.8 7.2 3.8 6.3 3.2 7.8 0.3 6 0.9 2.3 2.6-1.1 1.1-0.8 0.4-0.4 2.9-2 3.7-2.7 3.4-2.6 1.9-1.6 0.2-1.3-0.2-1.1 0.4-1.7 1.7-1.4-0.9-0.5-0.8-0.6-0.1-1 1-1.2 10.2 0.7 0.9-0.1 0.7-0.7 0.5-0.6 0.1-0.9 1.8 0.3 0.9 1.5 0.8 3.4 1.7 2 1.9 0.9 3.2-0.9 2.8-0.6 5.5 0.5 6 1.8 4.3 3.4 2.3 2 3 0.2 5.2 1.3 4.1 2.3 4.4 0.5 3.8-0.3 6.6-0.4 5.3 1.5 6 1.3 6.8 1.8 5.6-9.9 0.3-8.9 2.1-7.5 2.8-3.7 0.7-3.9-0.1-13-2.3-1.7-0.1-2.1 0.2-1.8 0.6-2 2.7-1.8 0.9-2 0.6-3.4 0.3-1.9 0.5-1.6 1.1-0.8 2.2-1.2 0.7-4.4-1.3-1.3 1.4-1.9 1.2-12.8 4.6-1.6 1.1-13.5-29.6-0.9-1.1-0.1-0.5 0.2-0.6 0.4-0.4 0.6-0.2 1.7-0.2 1.5-0.4 1.1 0 1.2 0.1 0.6 0 0.5-0.1 0.7-0.6 0.9-1.7 0.3-0.4 1.1-0.9 0.3-0.4 0.9-1.7 0.5-0.8 1-1 0.5-0.8 0.2-0.5 0.2-1.8 0.2-0.5 0.3-0.4 0.8-0.5 0.3-0.3 0-0.6-19.9-30.7-0.3-0.9-0.3-1.2 1.4-2.7 5.1-7.8 0.8-1.8 0.7-2.1 0.8-20.4-0.2-0.9-1.8-6.2 7.1-7.4 0.6-0.9-0.3-0.7-1-0.9-8.8-6.7-1-1-0.5-1 0.8-1.1 12.3-9.8 0.8-0.8 0.1-0.9-0.1-1.2-0.3-2.6 0-1.7 0.2-1.7 0.8-2.5 0-1.1-0.1-0.7-0.2-0.4-0.2-1.1-0.2-0.5-0.3-0.3-0.7-0.6-0.2-0.5 0-0.5 0.1-0.5 0.5-0.8 0.9-0.8 2-1.4 1-0.6 0.9-0.4 4.4 0.3 0.5-0.1 2.6-0.8 1.3-0.9 0.6-0.2 1.1-0.3 1.8 0.1 1.1-0.1 0.6-0.2 2.4-1.4 1-0.3 1.1-0.1 0.5 0.2 0.4 0.2 0.7 0.7 0.5 0.8 0.6 0.6 0.9 0.5 0.9 0.3 0.8 0.2 1 0.3 0.8 0.5 0.8 1 0.3 0.1z" id="TCD1488" name="Mandoul" data-id="TCD1488" data-name="Mandoul">
 </path>
 <path d="M604.5 1133.5l1.3 2.4 0.4 1.3 0.6 5.3 0.3 1 0.5 0.7 0.6 0.2 0.8 0 2.5-0.1 4.4 0.1 0.6 0 0.5-0.2 0.2-0.5 0-0.5-0.9-5.5 0-1.2 0.1-0.6 0.4-0.5 1-0.3 24.8-0.8 2.7 0.6 2.1 0.8 23.5 16 48.1 24.2 22.1 5.1 53-9.8 1.6-0.1 1.4 0.5 3.8 2.2 14.5 4.4 2.1 1.5 1.3 1.4 26.7 61.9 0.1 0.1-0.4 0-2 0.6-2 0.8-1.2 0.6-1.8 1.7-1 0.7-0.8-0.1-1.4-0.6-1.2 0.9-1.1 1.4-2.7 2.2-1 3-1.3 2.1-2.6-1.4-1.5 0.2-8-0.8-1.8 0.8-1 1.8-0.7 2-0.6 1.3 0.9 2-1 1.1-5.8 1.5-1.6 0.7-2.9 2.1-2.2 2-0.4 0.2-0.4 0.8-1-0.2-1.9-1-1 0.1-1.8 0.5-0.8 0.1-1 0.3-0.5 0.7-0.5 0.7-0.5 0.3-1.4 0.1-1.6 0.5-1.4 0.9-0.5 1.5-0.2 1.9-0.9 2.8-0.2 1.9 0.2 2 0.9 3.7 0.2 1.6 0.3 0.9 1.7 1.9 0.6 0.8 0 0.7-0.1 0.6 0 0.7 0.7 0.7-2.9 4.9-0.3 2 0.1 1 0.4 1.5 0.1 0.8-0.4 0.9-1 0.3-1 0.1-0.8 0.3-1.2 1.9-0.7 1.9-1.2 1.5-2.5 0.6-0.5 0.3-3 1-0.3-0.2-1 0.4-1.2-0.2-1.2-0.4-0.9-0.2-3 1.9-2.6 3.5-5 11.4-2.5 3.9-3.1 3.1-3.3 1.3-1.2-0.3-3.9-1.5-1.3-0.9-1.4 1.2-4.8 5.6-0.7 1.4-0.3 1.5-0.8 0.2-5.2 3.4-1 1.7-1.4 3.5-0.1 0.3 0.1 1.4-0.1 0.4-0.8-0.2-0.4 0.1-1.2 1.2-0.7 0.4-0.7 0.3-0.3-0.1-0.9-1-0.4-0.2-0.6 0.1-0.4 0.6-0.5 0.3-0.7 0.5-0.5 0.5-0.3 0.4-0.3 1.8-1.3 2.6-0.3 1.5-0.1 3.2-0.6 1.3-1.3 0.4 0 0.7 0.4 0.4 0.2 0.3 0.1 1.2-1.5-0.6-0.5 0.3-0.2 0.9-0.4 0.8-2 1.2-0.9 0.7-0.4 1-0.8 1.4-3.6 4.1-1 0.8-2.1 0.9-0.7 2.1-0.2 2.4-0.6 1.9-0.5 0.1-0.7-0.2-1.1-0.6-0.3 0.2-0.6 0.9-0.4 0.2-1.1 0.4-0.5 0.9-0.4 1.1-0.8 0.9-0.7-0.7-1 0.7-4.2 1.3-3.9 2 1.2 3.9-4.8 0-0.7-0.1-1.6-0.5-1.8-0.1-0.1 0.1-2.1-1.1-0.8-0.2-0.4 1 0 1.2-0.4 0.9-0.7 0.6-1.1 0.2-1.7 1 0.6 2.3 1 2.2-0.6 1-2.4 0.9-1.3 1.9-1.2 2.4-1.9 2.1-1.2-0.5-1 0.1-0.9 0.5-1.7 1.2-0.6 0.4-1.8 0.3-7.8-0.4-1.9 0.4-2.1-1.7-1.1-0.7-1-0.3-1.4 0.4-2.7 1.9-1.4 0.4-1.6-0.5-1.1-1.1-0.8-1.2-0.8-0.5-0.8 0.3-0.1 0.7 0.1 0.6-0.1 0.4-0.9-0.1-1.3-0.5-0.7-0.1-0.8 0.3-2.8 2.3-0.3 0.6 0.2 1-0.5 0.4-0.6-0.1-0.4-1.5-0.7-0.4-0.4 0.2-0.3 0.4-0.2 0.5-0.1 0.6-0.3 0.8-0.7 0.1-0.9-0.1-0.7 0.2-2.4 1.6-1.1 0.2-26.6-83.1-7.1-13.1-0.4-1.1 0.5-1.1 0.7-0.7 1.6-0.9 0.3-0.4 0.1-0.6-0.3-0.9 0-0.7 0.1-0.7 1-1.1 0.2-0.6-0.2-0.9 0.1-0.7 0.7-1.8 0.2-0.4 0.7-0.7 0.3-0.5 0.3-0.6 0.2-1.1 0.1-1.1-0.3-1.4-0.9-2.6-1.2-1.3-1-6.5 5-25 1.8-8.3-1.1-16.7 0.1-1.7 0.7-0.7 1.5-1.1 0.3-0.3 0-0.5-0.5-0.7-0.5-0.4-1.1-0.3-0.5-0.2-0.4-0.5-0.4-0.7-0.6-1.3-1.4-2-0.3-0.3-0.9-0.4-1.2-0.3-0.9-0.4-0.6-0.7-0.9-0.6-0.5-0.1-1.1-0.2-1-0.4-0.8-0.6-0.8-0.5-1.9-0.8-1.1 0-1.1 0.2-0.9-0.2-0.8-0.6-1-1-0.4-0.3-0.9-0.3-1.1 0-1.5 0.4-0.6 0.1-1.2-0.1-1.1-0.3-0.9-0.4-0.6-0.7-1-1.7-0.6-0.8-0.5-0.3-1-0.2-0.6 0-1.5 0.3-0.6 0-0.5-0.2-3.6-1.8-0.4-0.3-0.9-1.1-0.8-0.5-0.5-0.2-1.7-0.3-1.1-0.4-1.2-0.8-1.5-0.5-1-0.4-1-1-1-0.3-1.8 0-0.5-0.1-0.4-0.3-1.9-1.5-1.3-0.7-0.5-0.2-1.7-0.4-0.4-0.2-0.3-0.4-0.5-0.8-0.3-0.3-0.5-0.2-1.8-0.3-0.4-0.2-3.8-2.3-1.5-1.3-0.4-0.2-1-0.4-0.5-0.2-0.9-0.4-0.6-0.8-0.6-1.3-0.4-0.3-0.5-0.2-1.1-0.1-0.5-0.1-0.4-0.2-0.7-1.3-0.4-0.3-0.5-0.2-1.8-0.2-0.5-0.3-0.3-0.5-0.3-1.4-0.5-0.9-0.2-0.6 0-0.9 1.8-28.1 0.2-1.2 0.5-1 1.3-0.3 10.4-0.2 0.6 0.1 0.9 0.4 0.6 0.9 2.6 6.5 0.6 0.9 0.8 0.1 1.2-0.3 8.4-3.1 1.3-0.9 1.4-1.3 9-16.6 0.5-1.3 0.2-1.4-0.5-1.5-6.5-10.7 16.1-15.5 4.4 0.7 19.5 5.3 16.9 1z" id="TCD1489" name="Salamat" data-id="TCD1489" data-name="Salamat">
 </path>
 <path d="M151.8 1136.5l0-1.1 0.3-1.1 0.5-0.6-1.8-1.6-1.8-0.7 0.2-2.5 0.8-2 1.3-1.9 1.3-0.6 2.3 0.1 1.4 1.1 1.8 1.4 1.1 1.9 0.6 2-0.3 2.2-1.7 1.9-1.5 1-1.9 0.3-2.6 0.2z" id="TCD4857" name="Ville de N'Djamena" data-id="TCD4857" data-name="Ville de N'Djamena">
 </path>
 <path d="M122.6 1342.4l-0.9 13.1 1.3 11.7 5.3 0.2 9.2-1.9 4.8-1.2 5.1 2.3 3 2.9-0.3 4.8 4.6 6.1 1.7 12.8 3.8 2.7 8.6 7.1 7.5 4.6 7 3.1 6.1 2.5 0.1 0.2 0.3 0.2 0.4 0.8 0.5 2.2 0 0.8-0.2 2.2 0 5 0.3 1.7 1.1 2.2-3.4 1.3-1 0.9-3.9 11.6-0.4 1.8-0.1 3.2 0.1 1.1 0.4 1.5 0.2 1.2-0.3 2.1 0.1 1.7-0.1 0.5-0.3 0.5-5.3 5.1-0.7 0.9-0.3 0.7-3.9 16.2-0.1 0.9 0.1 1.1 0.1 0.6 0.5 1.4 0.2 1.2-4.3 1.8-1.6 0.7-2.6-5.5-1.4-1.8-5.5-5.4-4-6.6-1.6-1.9-1.9-1.5-2.4-0.7-3.6-0.5-1.2-0.4-0.4-0.7 0-0.9-0.2-1.1-0.9-2.5-0.5-0.9-0.7-0.5-0.7-0.3-0.6-0.4-0.5-1.2-0.8-0.9-3.8-2.8-1.3-0.8-0.9-0.2-0.8 0-0.8 0.2-0.9 0.3-1.5-0.5-21.1-17-21-17-1.8-3.1-0.9-4.1-27-31.3-8.4-6.6-0.1-1.5 5.7-8.3 7.8-6.8 2.9-4 4.6-9.3 0.2-0.9 0.1-1 0.2-0.7 0.8-0.3 24.5-1.6 27.7 6.9z" id="TCD4858" name="Mayo-Kebbi Ouest" data-id="TCD4858" data-name="Mayo-Kebbi Ouest">
 </path>
 <path d="M706.2 249.2l-84.2 175.8 14 59.4 25.8 71.6 0 34.4-2.4 44.2-9.3 41.6 23.4 68.4 8.4 22-14.5 13-8.6 1.1-3.8 1.7-4.6 1.3-1.2 0.1-1.3-0.5-9-4.3-4.7-3.5-2-1.1-3-0.9-7.6-1-12.9-1.5-5-1.4-3.7-1.7-11.6-3.6-7.4-1.3-1.6-0.6-12.5-8.1-1.3-1.4-0.7-1.3-0.4-1-1.3-9.2-0.4-2.1-0.4-0.6-0.6-0.7-1.1-1.1-0.8-0.5-0.6-0.3-3.3-1-1.2-0.2-0.5 0.1-1.8 0.3-1 0-0.7-0.4-1.4-1.4-1-0.3-0.7 0-0.4 0.3-0.1 0.6 0.4 9.9-0.9 11.9-0.2 1.2-7.3 20.6-2.8 5.5-5.1 5.9-10.6 9.1-4.1 2.7-9.5 4.4-18.9 5.9-2.8 0.5-7.8 0.1-19.9-4.7-5.8-2.5-11.8-7.3-8.7-8.4-7.9-9-4.3-6.7-0.8-0.8-1.2-0.8-111-54.2-112.3-55-1.6-0.7 0.3-1.1 0.2-2.5 0.8-9.1 0.7-9 74-136.9 51.8-96.5 51.4-96.2 4.6-27.5 28.1 0 11.7-2.5 11.7-12.5 18.8-10 35.1-12.6 21.1-7.5 2.3-22.6-2.3-25.2-2.4-25.2 18.8-15 11.7 6.2 11.7 6.2 35.1 18.7 11.7 6.2 11.7 6.2 11.7 6.3 11.7 6.2 11.7 6.2 11.7 6.2 11.7 6.2 11.7 6.2 11.7 6.2 11.7 6.2 11.7 6.2z" id="TCD5577" name="Borkou" data-id="TCD5577" data-name="Borkou">
 </path>
 <path d="M519 149.8l-18.8 15 2.4 25.2 2.3 25.2-2.3 22.6-21.1 7.5-35.1 12.6-18.8 10-11.7 12.5-11.7 2.5-28.1 0-4.6 27.5-51.4 96.2-51.8 96.5-74 136.9 1.6-18.1 0.4-4.6 2.3-27.2 0.3-4.5 0.8-9.1 3.1-36.3 0.7-9.1 0.4-4.6 2.3-27.3 0.4-4.6 1.9-22.8 0.4-4.6 0.7-9.1 0.4-4.6 3.1-36.6 0.4-4.6 0.3-4.6 2.3-27.5 0.4-4.6 0.8-9.2 0.3-4.2 3-7.9 9-16.6 7.6-13.9 1.9-3.6 0.7-1.7-0.2-1.6-1.3-2.2-7.8-8.7-5.5-6.2-13.7-15.2-7.7-6.2-1.7-1.9-1.3-2.2-1.1-2.6-0.8-4.6 0.8-4.7 2.3-3.9 3.8-2.2-3.1-4.9-1.6-2.5-4.8-7.5-1.6-2.5-3.1-4.9-1.6-2.5-1.6-2.5-1.6-2.5-4.8-7.5-1.5-2.5-1.6-2.5-2.3-3.5-3.2-4-1.8-1.3-4.5-2.3-1.5-1.5-0.4-1.7-0.1-4.7-0.2-12.8-0.3-17.2-0.2-14.9-0.7-4.1-2.7-15.1-2.3-12.8-1.1-6.5-2.3-12.8-1.1-6.4-1.2-6.5-2.2-12.8-1.2-6.5-1.1-6.4-1.2-6.5-1.1-6.4 1.7-0.8 10.9-5.4 5.4-2.7 5.5-2.7 10.9-5.4 16.4-8.1 11-5.4 31.5-15.5 1.9-0.3 8.7 4.7 11.7 6.2 11.7 6.3 23.4 12.6 11.7 6.3 11.7 6.3 11.7 6.3 11.7 6.2 23.4 12.6 11.7 6.3 35.1 18.7 11.7 6.3 11.7 6.3 11.7 6.2 11.7 6.3 11.7 6.2 23.4 12.5 11.7 6.2 11.7 6.3z" id="TCD5578" name="Tibesti" data-id="TCD5578" data-name="Tibesti">
 </path>
 <path d="M917 780l-0.1-0.3-4.6-7.3-0.7-0.7-0.4-0.2-5.7-2.3-2.2-0.4-0.7-0.1-0.9 0.1-1.3 0.3-0.7 0.3-1.9 0.9-2 0.6-1.1 0.2-0.7 0-0.9-0.1-1.3-0.4-0.7-0.3-1-0.5-2.4-0.4-1-0.4-1.9-1.5-0.5-0.3-0.6-0.1-0.8 0-1.2 0.3-1.8 0.7-0.7 0-2.8-0.2-2 0-3.3 0.6-2.9 0.1-1.1 0.2-0.5 0.2-1.3 0.7-0.5 0.2-0.7 0-0.9-0.3-0.6-0.2-0.4-0.4-0.3-1-0.3-0.4-0.3-0.4-0.9-0.5-0.2-0.4-0.5-1.5-0.4-0.3-1.1-0.5-0.7-0.5-0.6-0.7-0.5-1.6-0.4-0.7-0.4-0.4-3.7-1.3-1.2-0.1-2.1-0.8-0.8-0.6-0.7-0.6-0.4-0.3-0.5-0.2-0.8 0-0.7 0.1-0.7 0.4-1 0.7-0.5 0.2-1.4 0.6-0.5 0.1-0.8 0.1-0.8 0-1.5-0.3-0.8-0.2-1.2-0.4-0.9-0.5-3.8-3-2.6-2.7-0.2-0.1-0.6 0.1-0.6 0.4-1.2 1.2-0.4 0.2-0.5 0.1-2.5-0.7-2.4-0.4-3-0.1-4.1 0.5-2.5 0.8-2.2 1.3-4.4 1.9-0.5 0.1-0.7 0-1.8-0.5-4.3-2-7.8-2.8-0.5-0.1-1.4-0.1-1 0.1-3.5 0.7-4.9 1.6-24.1 5.2-1 0.3-5.6 3.1-0.6 0.1-0.7 0-1.1-0.2-10.5-4.5-6.7-4.4-0.9-0.4-0.6-0.1-0.4 0.2-1.4 0.8-2.3 2-1.7 1-5.5 1.6-1.7 1-0.8 0.6-0.7 0.7-0.2 0.3-1.7 3.2-1.2 1.6-1.3 1.4-6 3.9-16.4 6.2-3.3 1.9-2.7 2-0.9 0.4-1.9 0.7-0.8 0-1.2-0.1-2.1-0.8-1.7-0.8-0.9-0.6-0.5-0.2-0.7 0 14.5-13-8.4-22-23.4-68.4 9.3-41.6 2.4-44.2 0-34.4-25.8-71.6-14-59.4 84.2-175.8 35.1 18.5 23.4 12.4 11.7 6.2 35.1 18.5 23.4 12.3 11.7 6.2 11.7 6.2 23.4 12.3 23.4 12.3 11.7 6.1 11.7 6.2 11.7 6.1 23.4 12.3 11.7 6.1 11.7 6.2 11.7 6.1 0.1 93.2 0 23.2 0 23.1 0 23.2 0.1 23.1 0 92.2 0 22.9 0.1 23 0 22.9 0 28.6-1.1 3-2.6-0.1-11-3.8-11.5-1.8-10.9 0-6.2 1.3-12.5 4.7-7.1 0.6-14.6-3.1-4.5 0.6z" id="TCD5579" name="Ennedi" data-id="TCD5579" data-name="Ennedi">
 </path>
 <path d="M362.5 1191l-1 24.7 3.9 25.6 1.9 21.7-1.9 15.7 22.5 11.7-19.3 62.3-1.4 0.1-0.7-0.1-0.9-0.2-1.3-0.6-1.4-0.5-1.2-0.1-1.4 0.2-0.7-0.1-0.7-0.2-0.9-0.7-1.8-1.1-3.3-1.7-0.7-0.6-0.5-0.8-1.3-2.7-0.3-0.3-0.4-0.3-0.5-0.1-0.8 0-1.1 0.4-0.5 0-0.3-0.2-0.3-0.5-0.9-0.5-1.7-0.5-3.5-0.7-2.7-0.3-0.6 0.1-4.7 0.4-0.7-0.2-0.7-0.3-0.7-0.8-0.6-1.8-0.4-0.3-1.3-0.8-0.7-0.6-0.5-0.8-0.5-0.5-2.8 0-1.9-0.4-0.8-0.3-1.7-1.1-0.8-0.3-2.5-0.3-1.5 0.2-0.6-0.1-0.7-0.2-0.9-0.7-0.4-0.5-0.8-0.9-0.6-0.5-6.3-3.1-0.8-0.6-0.6-0.8-0.2-0.4-0.5-2.1-0.2-0.5-1-0.9-0.2-0.5-0.1-0.5 0.2-2.5-0.1-2.5-0.2-1-0.7-0.7-1.1-0.9-0.5-0.7-0.2-0.5-0.6-0.7-0.4-0.2-0.6 0.1-5.8 4.5-5.8 1.1-20.9-0.3-2.2-1.6-0.6-1.1-0.3-1.7-0.5-1.4-0.4-0.7-0.4-0.5-0.4-0.3-1.5-0.8-0.6-0.4-1.1-1-0.5-0.8-0.3-1.2-1.7-12.6 2.9-27.8-0.5-1.2-3.1-1.6-2.5-0.4-1.1 1.5-0.8-0.3-5-3.3-1.8 0.1-3.6 1-2.2 0.2-3.6-0.4-7.6-1.9-3.6-0.4-1.9-0.7-5.6-5.9-2-1.6-1.5-0.8-1.6-0.2-2.3 0-1.6-0.2-1.6-0.7-1.4-0.8-1-0.9-1.5-2.6-0.8-1.8-0.4-1.3-0.1-1.8-0.5-0.6-1-0.2-1.6-0.3-1.5-0.8-1.7-1.2-1.4-1.4-0.6-1.6 0-4.8-0.9-0.7-0.9-0.3-0.7-0.4-3.3-2.4-1.7-1-0.9-0.4-4.4-1.1-5-0.4-0.7 0-0.5 0.1-0.8 0.6-0.6 0.7-1.1 0.8-2.1 2.1-3 2.2-1.3 0.7-1.9 0.8-8.4 2.2-0.7-9.9 0.7-6 0.5-1.5 2.1-3.2 0.7-1.6-0.1-1-0.4-0.5-0.5-0.4-0.3-0.7 0-1.1 0.5-1.5 0.6-5.1 0.6-1.8 0.8-1.8 4.4-4.8 1.3-2.7-1.2-3.1-2.6-3.4-1-1.7-1.5-4.3-0.3-2 0.2-1.8 0.7-2.1 0.4-0.1 0.6 0 0.6 0 0.4-0.5-0.1-0.6-1-1-0.2-0.4 0.6-0.9 1.5-1.5 0.5-0.9-2.3-5.6-0.6-1.1-1.6-0.2-1.2-0.8-0.6-1.5-0.2-2.4 0.5-0.8 0.9-0.8 0.6-0.8-0.4-1-0.3-0.5-0.5-1-0.2-1 0.4-0.4 2.7-0.4-0.4-1.1-1.6-1.4-1-1.4 0.2-1.2 0.2-0.8-0.1-0.6-0.7-0.7-0.4-1 2.6-0.2 1.9-0.3 1.5-1 1.7-1.9 0.3-2.2-0.6-2-1.1-1.9-1.8-1.4-1.4-1.1-2.3-0.1-1.3 0.6-1.3 1.9-0.8 2-0.2 2.5-1.7 0.2-1.6 1.2-1.1 0.2-1.4-1.1-2-2.4-2.5-1.7-0.5-0.7-0.3-1.4 0.5-0.4 0.7-0.2 0.4-0.6-0.1-1-0.4-0.5-0.5-0.5-0.3-0.7 0-1.1 0.5-1.7 0.2-1.2 8.8-1 6.8 0 8.7-2 9.7-1.9 3.9-4 5.8 1 3.8 4.9 8.7 1 4.9-3.9 15.5-4 15.4 1 9.7-3 7.7-8.9 43.6 16.8 11.6 6 2.9 10.9 0 10.9 9.7 11.8 0.9 13.9 4.9 3.9 7.7 0 6.8 1 6.7 5.9 5.8 6 13.6 6.9z" id="TCD5580" name="Chari-Baguirmi" data-id="TCD5580" data-name="Chari-Baguirmi">
 </path>
 <path d="M431.4 788.9l-41.8 176.1-28.6 9-1.1 0.7-0.5 1.1-0.3 1.2-3 18.1-0.1 1 0.7 22.4-0.2 1.9-0.6 1.6-6.1 8.8-6.8-2.5-5.1-1.2-0.8 0-0.3 0.3-1.3 1.3-0.6 0.3-0.7 0.2-5.5 0.8-1 0.3-1.7 0.6-0.8 0-2.3-0.4-0.8-0.4-1.4-0.8-0.5 0-0.8 0.3-0.9 0.4-1.9 0.6-0.9 0.3-0.7 0.4-1.5 1.3-0.8 0.5-0.8 0.5-1.1 0.3-21.8 3-0.8 0.5-0.8 0.6-1 1.1-0.5 0.4-0.8 0.4-0.7 0.1-0.6-0.1-1-0.4-1.3-0.7-1.3-0.2-2.2-0.2-1.1-0.3-3.5-0.5-0.9 0-0.8 0.1-1.5 0.6-1.8 0.9-1.4 0.5-1 0.1-23.4 0.4-1.2-0.4-1.6-6-0.5-0.8-7.7-6.4 1.3-3.8 0.3-2.3-0.2-26.4-0.2-1.4-0.5-0.8-2-2.1-0.9-1.1-0.2-0.4-0.5-1.4-0.2-1.4-1-3.2 0-0.8 0.1-0.6 1.8-3.1 0.5-1.2 0-0.6-0.4-2.3-0.4-1.4-0.4-1.2-0.5-0.5-0.6-0.3-2-0.8-2.3-0.5-1.9-0.8-1.1-0.3-0.6 0-0.5 0-0.4 0.3-2.1 2.6-0.4 0.3-0.5 0.2-11 0.1-1-31.5 17.5-7 26.1-31.9 5.8-10 1.9-23.1 12.6-44 21.3-76.4 17.2-30.1 111 54.2 1.2 0.8 0.8 0.8 4.3 6.7 7.9 9z" id="TCD5581" name="Barh El Gazel" data-id="TCD5581" data-name="Barh El Gazel">
 </path>
 <path d="M793 1064.9l0.4 1.1 2.5 3.3 3.8 7 1.9 1.9 3.4 1.7 3.9 0.7 4 0.1 3.7-0.5 4.4-1.4 3.7-2 3-2.9 2.7-4.1 11.9 8 9.7 3.6 1.2 1.3-4.7 11.1-2.2 3.2 0.2 1.2 3.2 5 6.9 21.6 0.3 1.2 0 1.1 0 1.2-2.5 10.7 1.2-0.6 1-0.8 6.2-1.9 3.7-0.7 1.2 0.8 0.9-1.4 0.4 0.5 0.1 1.5-0.2 1.7-1.7 4.9-5.3 29.8 0.4 4.7 1.9 4.5 2.9 4.1 3.4 3.3 3.3 1.6 7.6 2.6 2.4 2.3 0.3 0.9 0 2.9 1 0.4 9-1 2.2 0.1 1.4 1.2 1.3 6.8 2.4 7.2 0.2 4.1-0.4 1.7-1.6 3.4-0.6 1.7-0.3 1.9 0 2-0.3 1-1.5 1.7-0.6 1-3.7 13.5-5.2-0.5-5.8-1.8-2.4-2.1-3.5-0.9-0.9-0.1-3.3 0.1-1-0.2-1.8-0.8-0.8-0.3-2.2 0.3-2 0.6-2-0.2-2.2-1.9-0.8 0.8-1.2-0.1-1.4-0.5-1.5-0.2-1.2 0.2-0.9 0.7-1.8 2-1.1 0.7-1.5 0.4-2.5 0.5-0.1-0.1-26.7-61.9-1.3-1.4-2.1-1.5-14.5-4.4-3.8-2.2-1.4-0.5-1.6 0.1-53 9.8-22.1-5.1-48.1-24.2-23.5-16-2.1-0.8-2.7-0.6-24.8 0.8-1 0.3-0.4 0.5-0.1 0.6 0 1.2 0.9 5.5 0 0.5-0.2 0.5-0.5 0.2-0.6 0-4.4-0.1-2.5 0.1-0.8 0-0.6-0.2-0.5-0.7-0.3-1-0.6-5.3-0.4-1.3-1.3-2.4-0.1-5.5 0.2-1.9 6.1-17.5 2.8-6.2 0.5-0.8 0.6-0.7 0.7-0.6 0.4-0.3 0.6-0.5 0.7-0.8 2.2-3.3 3.5-3.4 2.4-3.5 0.6-0.8 1-0.9 0.4-0.3 1.5-0.6 1.5-1.1 0.4-0.6 0.1-0.4-0.2-0.8-0.5-0.7-3-3.1-0.6-0.8-0.2-0.5 0.1-0.8 0.6-1.1 6.4-8.6 0.5-0.4 0.5-0.1 1 0.2 0.7-0.1 0.7-0.3 1-1.2 0.4-0.9 0.1-0.7-0.1-2.1 0.1-1.5-0.1-0.7-0.3-0.6-0.3-0.3-0.7-0.5-0.4 0.1-0.9 0.3-0.4 0.1-0.5-0.3-13.9-10.7-0.7-0.7-0.2-0.5 0.7-0.3 24.4-5 1-0.3 0.4-0.3 0.7-0.7 2.6-4 10.9 4.5 25.2 0 0.9 13 6.8 1.9 7.8 1 0.9 7 0 8.9 12.6 5 10.6-3 9.7 1 3.9 1 4.8-2 8.7-8.9 9.7-6 8.7-3 11.6 5 10.7 3.6z" id="TCD5582" name="Sila" data-id="TCD5582" data-name="Sila">
 </path>
 <path d="M615.1 1425l-0.3 0.1-1.3-0.6-1.2 1.6-1.2 0.6-8-0.5-1.9 0.2-2.5 0.7-1.1 0-0.8 0.2-2.3 1-0.5 0.5-0.9 0.3-4.1 0-1.5 0.7-2.5-1.7-2.9 0.6-2.8 1.1-2.2 0-0.9 0.5-0.5-0.1-0.4-0.3-0.5-0.1-7.2 0.1-0.9-0.5-3.6 1.4-1.3 0.3-1.6-0.2-1.8-0.4-1.6-0.7-1.1-0.7-0.9 1.1-0.9-0.3-1-0.9-1.1-0.6-1 0-1.9 0.6-3.9 0.2-1.2 0.4-0.4 1.1-0.6 0.2-2.5-0.6-0.8 0.1-0.7 0-2.4-0.8-3.8 1.1-3.7 1.8-2.1 1.5-1.4 1.3-0.6 0.7-0.3 0.7-0.3 0.3-1.9 0.6-1.5 0.9-0.7 0.1-0.6 0.4-0.2 0.9-0.3 0.9-0.6 0.5-0.9 0-0.8-0.4-2.2 3.2 0 1.5 1.6 1.3 1.5-0.9 0.7 0.9 0.2 1.6 0.5 1.3 1.1 0.8 11.3 4.9 0.9 1.5 1.5 0.9 2.9 2.2 1.9 2.2-3.1 2.1-0.9 1.5-2 1.1-3.8 7.7-9.5 10.9-1 1.8-0.8 2.3-1.3 1.7-3.1 3-4 6.1-2 1.8-1.7 0.8-5.6 1.9-4 2.1-3.2 2.8-1.9 3.8-0.1 4.6-2.7 4-7.7 1.7-31.5 0.8-1.8-5.6-1.3-6.8-1.5-6 0.4-5.3 0.3-6.6-0.5-3.8-2.3-4.4-1.3-4.1-0.2-5.2-2-3-3.4-2.3-1.8-4.3-0.5-6 0.6-5.5 0.9-2.8-0.9-3.2-2-1.9-3.4-1.7-1.5-0.8-0.3-0.9 0.9-1.8 0.6-0.1 0.7-0.5 0.1-0.7-0.7-0.9 1.2-10.2 1-1 0.6 0.1 0.5 0.8 1.4 0.9 1.7-1.7 1.1-0.4 1.3 0.2 1.6-0.2 2.6-1.9 2.7-3.4 2-3.7 0.4-2.9 0.8-0.4 1.1-1.1-2.3-2.6-6-0.9-7.8-0.3-6.3-3.2-7.2-3.8-5.5-1.8-1.2-3.5-2.5-6.1-2.1-3.8-2-2.3-8.3 0.3-1.8-6.2-2.6-4.1-4-2.7 0.3-0.4 1.8-4.7 0.2-1.3-0.2-0.9-1.4-2-2-2-9.1-6.7-7-3.6-0.5-0.2-0.7-0.1-1-0.1 19.3-62.3 27.8-1 0.7 0.3 0.6 0.5 8 7.6 0.6 0.4 0.6 0.2 1 0.3 1 0.4 1.3 0.7 0.5 0.2 1.4 0.3 2.3 0.7 0.8 0.1 0.5 0.2 0.8 0.5 0.4 0 0.8-0.7 0.5-0.2 1.2 0.5 1.9 0.2 0.5 0.4 0.7 0.8 0.4 0.2 0.4-0.1 0.6-0.4 0.7-0.7 0.6-0.1 0.8 0.2 0.5 0.2 0.4 0.4 0.3 0.4 0.1 0.6 0.2 1.1 0.1 0.5 0.5 0.3 0.5 0.2 0.8 0.1 0.5 0.3 0.6 0.7 0.6 0.2 1.8 0.1 0.6 0.2 0.3 0.4 0.4 1 0.3 0.4 0.3 0.3 1.9 0.8 0.4 0.4 0.8 0.7 0.5 0.1 3.9 0.1 2 0.6 1 0.1 0.6 0.2 0.5 0.2 1.1 1.6 0.7 0.6 0.7 0.6 1 0.4 5.1 1.5 0.7 0.6 0.3 0.4 0.7 1.2 0.6 0.7 0.7 0.6 0.3 0.4 0.7 1.3 1.2 2.2 0.6 0.6 0.4 0.2 1.6 0.5 0.4 0.3 2 2 0.3 0.3 1.3 0.8 0.4 0.8 0.3 1 0.3 0.4 0.7 0.6 1.1 0.3 0.4 0.3 0.3 0.3 0.2 0.5 0.1 1.4-0.9 8.3 0 0.2 0.5 0.4 0.9 0.4 1.3 0.3 1-0.1 0.7 0.1 0.6 0.1 0.4 0.3 1.9 2 1.2 0.9 0.7 0 1-0.1 2-0.8 2.6-0.5 0.5-0.3 0.4-0.7 2.1-8.9 0.6-1 1.1-0.4 13-0.1 5.2-0.7 3.7-1.8 1.1-0.9 1.4-1.3 1.5-1.8 1.2-1.9 0.6-0.7 0.6-1.1 0.4-1 0.5-0.6 0.9 0.1 0.7-0.4 0.9-0.9 0.8-0.3 0.5 0 0.5 0.2 0.4-0.1 0.4-1.2 0.4-1.6 1.6-3.1 0.4-0.4 0.4-0.4 0.9-0.5 0.7-0.1 0.5-0.3 0.4-0.4 0.3-0.7 0.8-0.8 0.5-1.1 0.3-0.7 0.5-0.6 0.6-0.5 1.2-0.7 0.6-0.5 0.4-0.5 0.3-1 0.6-0.2 0.6 0 0.5-0.1 0.2-0.3-0.2-0.4-0.9-0.6-0.1-0.4 0.4-1 0-0.6-0.2-0.4-0.7-0.6-0.3-0.3 0-0.4 0.3-0.3 0.8-0.2 1.3 0.1 0.5-0.1 0.4-0.3 0.2-0.6 0-1.5 0.2-0.4 0.4-0.2 0.7-0.2 0.4-0.2 0-0.6-0.4-1 0.1-0.6 0.3-0.7 1-1.2 0.4-0.7 1-1.3 1.6-1.6 0.6-0.5 0.8-0.3 0.9-0.7 0.7-0.3 0.9-0.2 0.7-0.3 0.8-0.6 0.6-0.2 0.7 0 0.4 0.2 0 0.4-0.1 0.9 0.4 0.3 0.7 0.1 1.4-0.3 0.9-0.1 2.4-0.6 0.7 0 0.6-0.1 0.6-0.2 2.1-3.8 0-0.5-0.1-0.9 0.3-0.3 0.7 0.1 1 1 0.4 0 0.4-0.3 0.6-1.6 0.4-0.5 0.4-0.5 0.8-0.5 0.3-0.6-0.1-0.8 0.4-0.4 2.5-0.9 1.7-1.4-5 25 1 6.5 1.2 1.3 0.9 2.6 0.3 1.4-0.1 1.1-0.2 1.1-0.3 0.6-0.3 0.5-0.7 0.7-0.2 0.4-0.7 1.8-0.1 0.7 0.2 0.9-0.2 0.6-1 1.1-0.1 0.7 0 0.7 0.3 0.9-0.1 0.6-0.3 0.4-1.6 0.9-0.7 0.7-0.5 1.1 0.4 1.1 7.1 13.1 26.6 83.1z" id="TCD5583" name="Moyen-Chari" data-id="TCD5583" data-name="Moyen-Chari">
 </path>
 <circle cx="774.7" cy="1022.1" id="0">
 </circle>
 <circle cx="631" cy="997.8" id="1">
 </circle>
 <circle cx="770" cy="1046.5" id="2">
 </circle>
</svg>