<?xml version="1.0"?>
<!--
************* Copyright (c) 2017 Pareto Softare, LLC DBA Simplemaps.com *******************		
************* Free for Commercial Use, full terms at  http://simplemaps.com/resources/svg-license ************
************* Attribution is appreciated! http://simplemaps.com ***************************
-->
<svg baseprofile="tiny" fill="#7c7c7c" height="2611" stroke="#ffffff" stroke-linecap="round" stroke-linejoin="round" stroke-width="2" version="1.2" viewbox="0 0 1000 2611" width="1000" xmlns="http://www.w3.org/2000/svg">
 <path d="M907.6 1439.4l3 1.1 2.6 4.8 5.5 44.4-2.2 141.7 0.3 81.8 0.5 102.5 0.4 104.3 0.7 152.1 0.3 75.8-9.3 2.8-38.7-0.3 10 36.7 5.8 8.5 0.8 0.6-2.4 1.2-4.5 3.9-10.5 16.9-3.1 4-3.2 2.8-9.3 4.9-8.8 3.1-3 0.5-6.2-0.3-6.4-1.2-11.4-3.7-4.9-0.3-6.1 0.6-11.5 2.5-10 3.7-35.5 26.4-28.8 28.6-4.5-2-16.2-5.6-3.9-3.2-6-10.4-1.9-1.9-3.2-1.6-5.2-2-2.1-1.4-4.5-5.9-2.4-1.1-8.9-1.2-2.2-1.2-0.8-1.7 1.1-3.7-1-1.4-2.4-0.6-83.6-4.8-9.7 2.2-5.1 2.1-4.8 2.6-2.4 2.4-2 3.4-1.9 6.2-0.9 6.2 1.1 24.5-2.1 19.9-3.3 11.5-2.3 5.1-2.5 3.6-3.6 4.2-15 13.9-4.8 6-5.3 8.6-3.2 4.1-2 1.7-17.8 11.2-8.5 3.2-26.6 3.9 0.2-3.1 3.3-6.6 3.6-4.8 0.3-4.8-6.6-6.4-4.7-1-14.2 0.5-4.9-0.5-4.5-8.2-7.2-5.3-6.7-6.2-2.8-10.8 4.4-26-0.5-8.4-4.4-8.3-7.4-7.1-9-5-8.8-1.8-3.4-4.6-14.8-27.6-6.2-4.9-4.9-2.9-1.7-4.9 3.5-10.9 10.8-18.1 1.2-8.7-6.1-10.9-14.5-11.3-5.9-7.9 7.5-2.3 7.5-0.6 21.6-5.6 6.6-3.7 9.8-17.8 0.4-22.4-2.3-23.3 1.7-20.2 12.4-30.9 4.7-24 6.9-18.9 0.6-11.2-8.2-33.9-3.4-4.5-18.8 7-10.2 1.8-9.3-1.2-16.2-14.4-8.2-22.7-2.6-25.4 2-30.1 1.8-6.3 3.2-5.5 5.2-5.1 6.7-3 8.2-2.3 7-3.6 2.9-6.9-0.2-14 1.6-16.1 6.6-10.5 14.8 2.5-1.4-10.1 1.1-27-4.7-29.6 0.4-30.9-0.3-2.5 10.4-1.9 25.7-2.3 7.9-3.4 2.9-2.8 4-3.2 8-5.1 4.7-1.9 40.9-5.4 5.3-1.5 3.9-2.8 5.3-7.6 2.5-0.8 5 1.7 7.4 0.1 49.1-6.4 7.4 0.1 5.8 2 21.6 4.4 4.2 1.4 5.2 2.4 7.6 1.8 8.2 0.8 9.4-0.5 43.2-8.8 15.4-4.6 15.6-11 1.2-2.8-4-5.2-0.2-2.5 0.7-2.3 7-14.4 1.2-5.8-0.3-12.6 2.4-11.6 0.4-10 1-6 2.5-8.4 0.5-3.1 0-10.1-1.2-5.8-1.3-2.2-5.5-5.4-1.3-2.1-1.3-5.2 1-8.6-0.4-2.8-2.1-8.4-0.5-6.5-0.6-2.8-3.4-7.2-1.1-5.9 0.3-22.3 0.6-2.5 2.2-4.6 0.2-5.4 188.2 2.3z" id="TGO86" name="Plateaux" data-id="TGO86" data-name="Plateaux">
 </path>
 <path d="M451.3 2386.6l26.6-3.9 8.5-3.2 17.8-11.2 2-1.7 3.2-4.1 5.3-8.6 4.8-6 15-13.9 3.6-4.2 2.5-3.6 2.3-5.1 3.3-11.5 2.1-19.9-1.1-24.5 0.9-6.2 1.9-6.2 2-3.4 2.4-2.4 4.8-2.6 5.1-2.1 9.7-2.2 83.6 4.8 2.4 0.6 1 1.4-1.1 3.7 0.8 1.7 2.2 1.2 8.9 1.2 2.4 1.1 4.5 5.9 2.1 1.4 5.2 2 3.2 1.6 1.9 1.9 6 10.4 3.9 3.2 16.2 5.6 4.5 2 28.8-28.6 35.5-26.4 10-3.7 11.5-2.5 6.1-0.6 4.9 0.3 11.4 3.7 6.4 1.2 6.2 0.3 3-0.5 8.8-3.1 9.3-4.9 3.2-2.8 3.1-4 10.5-16.9 4.5-3.9 2.4-1.2 7.6 5.7 4.6 5.6 1 7.2-3.8 21.7 0.3 8.8 2.2 8.9 3.9 10.5 3 12.5-2 7.9-11.7 15.7-4.2 11.6 3.3 5.8 6.6 5.4 5.6 10.3 0.1 4-0.9 4.3-0.3 4.8 1.6 5.3 3.1 4.2 4 4.1 4.3 3.4 4 2.4 4.9 0.6 5-0.5 3.7 1.3 0.7 5.9 1.3 3.6 8.5 7 3.3 4.4 0.6 5.2-1.3 11.1 1.1 4.5 3.4 2.7 11 5.7 4.4 3.3 13.2 21.3 10 38.7 9.6 37.8-10.6 0.7-65.8 15.6-10.6 5.6 3.5 10.8-97.2 16.4-81.2 24.9-36.6 16.1-7.3 1 1.4-18.1-6.1-8.2-42.4-4.8-7-3.6-5.5-6.4-6.7-10.5-4-4.5-7.6-3.7-4.1-3-8-11.4-13.4-41.3-39-0.1-10.5-2.9-6.6-5-16.7-20.1-12.9-8.2-25.3-12.5-10.8-11.1-8.1-12.5-6.1-12.2-3.2-12.7 0.7-10.6z" id="TGO87" name="Maritime" data-id="TGO87" data-name="Maritime">
 </path>
 <path d="M813.5 960.1l-20.2 16.2-9.5 5-9.1-0.3-70.7 20-9.9 0.4-6.2-0.3-25.5-5.5-7.9 0-38.4 5.3-17.4 4.1-2.7 2.5-1.2 2.1-2.2 5.5-1.2 6.1-0.3 6.1 1 9.6-0.1 19.1 1.2 5.3 5.7 12.1-0.5 2.9-1.9 3.3-8.7 7.6-6.9 7.2-7.4 6-4.4 2.5-4.1 1.5-9.2 1-19.1 3.9-6.4-0.1-3.3-0.5-8.3-3.1-3.2-0.5-6.6-0.4-3.3-0.5-16.2-6.1-2.4-4.8-0.6-3-1.8-2.2-3-1.3-6.6 0.7-4.5-0.2-7.3-1.5-2.6 0.7-2.1 1.4-2.8 4.6-1 2.5-4.3 5.6-10.9 7.6-1.6 1.4-2.3 3.6-5.2 5.4-3.6 1.5-9.2 1.7-2.8 1.6-2.1 2-1.6 5.4-1.3 6-2.5 4.7-20.5 13.5-2.9 2.9-0.8 2.5 0.2 2.7 3.4 3.3 1.2 2.2 0 3-2.2 4-2.7 1.9-3.4 1-7.9 0.1-2.8 1.2-10.3 9.4-10.7 4.1-14.1 4 11.3-16.3-6.4-25.3-24.7-42.2-7-16.1 5.2-15.9 8.7-16.1 2.7-16.7 0-8.1 3.2-5 11.6-10.4 6.2-10.6-0.2-8.2-6.3-18.6 0.5-10.2 4.1-5 5.8-3.4 5.2-5.4 2.1-6.5 0.9-15.2 4.7-26.3-3.2-12.2-9.2-8.2-15.3-5.2-0.3-1.5 3.4-5.8 1.1-5.4-0.9-5.1-3.3-4.6-27.1-10-9.7-1.5-20.6 1.1-11.5 2.1-7.8 3.4-2.5 4.1-1.6 10.5-2 4.4-3.9 3.3-23.4 8.2-9.5 2-9.5-1.1-2.3-6.9 4.1-6-3.6-8.3 0.1-7.3 21.3-4.4 8-3.1 6.6-4.6 1.9-5.3-4.5-5.7-7.2-0.3-13.1 2.4-5.3-2.3-5.1-3.6-5-4.7-0.2-3.4 2.4-14.6 1.3-3.3 25.8 2.9 12.3-0.7 9.1-6 7.1 4.6 9.4 1.6 8.3-2.4 3.6-7.1-4.4-10.8-10.2-1.9-20.8 5.3-15.9-1.7-8.2-10.9-0.3-15.2 7.3-14.8 13.6 14.4 8.6 4.8 9.2-1.1 5.4-6.4 1.4-9.1-1.2-9.5-2.4-7.6-3.4-5.2-3.6-4-2.7-5.6-0.8-9.7 11-40.4 0.2-5.9-2.3-20.8 1-7.3 4.1-7.9 6.6-7.1 3.6-3.2 0.3-4.3-3.5-10.2-6.1-12.4-0.9-3.4 1-4.9 1.8-3.2 0.3-3.3-3.1-5.1 9-1.7 7.9 1.3 5.7-1.5 0.4-1.6 2.9 2.5 3.8 4.9 5.4 8.5 1.3 2.8 0.6 3-0.9 8.9 0.9 5.7 1.4 2 2.2 1.4 8.9 1.5 2.4 1.1 3.8 3.4 2.9 1.2 4 0.5 6.2-0.1 8.2 1.6 7.7 0 2.4 0.8 1.3 1.7-0.3 2-2.4 4.2-0.5 2.4 1.5 5 3.2 3.9 4.7 2.5 3.9 3.3 4.3 6.5 2 1.5 2.9 0.8 4.1-0.3 6-2 7.8-1.9 6.6 0.1 16.2-1.7 2.9 0.9 4.6 2.8 2.9 0.7 5.2-1.3 4.7 1 1.3-4.1-0.7-6.3-6.1-17.3-0.5-2.7 0.3-3.1 2.4-6.7 1.5-6.8 1.3-3.7 2.8-4.3 2.3-6.2-0.3-7.1 0.3-15.9 1.4-6.4 2-5.9 5-10.1 15.1-21.2 2.3-5.2 1.3-6.4-1.3-7.2-0.9-2.7 0.1-2.4 2.4-2.1 5.6-2.3 15.6 1 5.8 2.6 3.8 6.9 2 1.1 2.8-0.2 8.1-5.6 9.6-5.3 3.6-1.3 11.4 1 2.7 1 4 3.2 2.4 0.7 2.7-0.6 6-5.9 3.2-2 5.2-0.4 4 0.2 13.7 2.2 3.1 0 6.4-4.3 9.2-14.2 171 114.5 6.6 17.7 0.6 42.3 1 56.8 0.6 40.4 4 24.2-0.7 6.4-1.2 5.1 0.1 10.5-0.6 5.3-3.2 6.5-9.1 14.1-2.1 6.8 1.6 10.5 5.2 12.7 7.6 7.8 8.8-4.3 5.9 14.7 3.5 52.6 7.4 20.7 9.7 15.1z" id="TGO88" name="Kara" data-id="TGO88" data-name="Kara">
 </path>
 <path d="M907.6 1439.4l-188.2-2.3-0.2 5.4-2.2 4.6-0.6 2.5-0.3 22.3 1.1 5.9 3.4 7.2 0.6 2.8 0.5 6.5 2.1 8.4 0.4 2.8-1 8.6 1.3 5.2 1.3 2.1 5.5 5.4 1.3 2.2 1.2 5.8 0 10.1-0.5 3.1-2.5 8.4-1 6-0.4 10-2.4 11.6 0.3 12.6-1.2 5.8-7 14.4-0.7 2.3 0.2 2.5 4 5.2-1.2 2.8-15.6 11-15.4 4.6-43.2 8.8-9.4 0.5-8.2-0.8-7.6-1.8-5.2-2.4-4.2-1.4-21.6-4.4-5.8-2-7.4-0.1-49.1 6.4-7.4-0.1-5-1.7-2.5 0.8-5.3 7.6-3.9 2.8-5.3 1.5-40.9 5.4-4.7 1.9-8 5.1-4 3.2-2.9 2.8-7.9 3.4-25.7 2.3-10.4 1.9-5.1-34.2 0.5-19.3-0.3-9.9-4.7-19.3-1.9-24.4-2.7-12.7 2.5-3.6 4.1-3.1 2.8-6.7-0.9-7.2-3.6-4.4-4-3.9-2.1-5.4 0.6-6.7 2.7-2 3.9-0.5 4.3-2.1 17-15.3 8.6-5.7 22.6-10.1 8.2-5.1 3.9-7.9-2.1-12.7-1.9-1.8-6.1-1-2-1.7-0.3-2.5 0.4-5.2-1.3-7.6 0.2-5.9-1.1-5.4-19.7-16.3-6.6-19.6-8.9-19.1-33.6-15.8-13.3-9.7-12.4-11.4-8.8-10.2-20.4-14-20.4-28.6-15-32.5-4.4-25.7 3.5-4.9 6.4-1.2 6.1 2.4 5.5 11.6 5.3-6 3.4-8.6-2.7-2.1 5.4-1.8 4.7 0.7 5.2 1.6 6.7 1.1 5.6-2.8 1.8-6.8 0.7-8.1 2.7-6.5 14.1-4 10.7-4.1 10.3-9.4 2.8-1.2 7.9-0.1 3.4-1 2.7-1.9 2.2-4 0-3-1.2-2.2-3.4-3.3-0.2-2.7 0.8-2.5 2.9-2.9 20.5-13.5 2.5-4.7 1.3-6 1.6-5.4 2.1-2 2.8-1.6 9.2-1.7 3.6-1.5 5.2-5.4 2.3-3.6 1.6-1.4 10.9-7.6 4.3-5.6 1-2.5 2.8-4.6 2.1-1.4 2.6-0.7 7.3 1.5 4.5 0.2 6.6-0.7 3 1.3 1.8 2.2 0.6 3 2.4 4.8 16.2 6.1 3.3 0.5 6.6 0.4 3.2 0.5 8.3 3.1 3.3 0.5 6.4 0.1 19.1-3.9 9.2-1 4.1-1.5 4.4-2.5 7.4-6 6.9-7.2 8.7-7.6 1.9-3.3 0.5-2.9-5.7-12.1-1.2-5.3 0.1-19.1-1-9.6 0.3-6.1 1.2-6.1 2.2-5.5 1.2-2.1 2.7-2.5 17.4-4.1 38.4-5.3 7.9 0 25.5 5.5 6.2 0.3 9.9-0.4 70.7-20 9.1 0.3 9.5-5 20.2-16.2 2.6 4 40.9 43.1 31.8 33.6 10.6 18.6 4 12.5 2.8 14.1 2.2 169.6 1.1 84.8 0.7 6.1 2.6 5.8 13.3 16.8 2.1 5.1-1.9 9.2-16.8 27.9-0.8 4.4 0 9-2.6 12.6 1.5 2.1z" id="TGO89" name="Centre" data-id="TGO89" data-name="Centre">
 </path>
 <path d="M596.8 479.7l-9.2 14.2-6.4 4.3-3.1 0-13.7-2.2-4-0.2-5.2 0.4-3.2 2-6 5.9-2.7 0.6-2.4-0.7-4-3.2-2.7-1-11.4-1-3.6 1.3-9.6 5.3-8.1 5.6-2.8 0.2-2-1.1-3.8-6.9-5.8-2.6-15.6-1-5.6 2.3-2.4 2.1-0.1 2.4 0.9 2.7 1.3 7.2-1.3 6.4-2.3 5.2-15.1 21.2-5 10.1-2 5.9-1.4 6.4-0.3 15.9 0.3 7.1-2.3 6.2-2.8 4.3-1.3 3.7-1.5 6.8-2.4 6.7-0.3 3.1 0.5 2.7 6.1 17.3 0.7 6.3-1.3 4.1-4.7-1-5.2 1.3-2.9-0.7-4.6-2.8-2.9-0.9-16.2 1.7-6.6-0.1-7.8 1.9-6 2-4.1 0.3-2.9-0.8-2-1.5-4.3-6.5-3.9-3.3-4.7-2.5-3.2-3.9-1.5-5 0.5-2.4 2.4-4.2 0.3-2-1.3-1.7-2.4-0.8-7.7 0-8.2-1.6-6.2 0.1-4-0.5-2.9-1.2-3.8-3.4-2.4-1.1-8.9-1.5-2.2-1.4-1.4-2-0.9-5.7 0.9-8.9-0.6-3-1.3-2.8-5.4-8.5-3.8-4.9-2.9-2.5 1.8-8.6-1.5-10.6-4.2-3.4-5.6-1.4-6.5-4.2-5-13.4 2.7-36.9-0.9-17.5 3.7-7 1.5-8.5 2.4-8 12.6-9.4-10.4-8.7-4.9-2.4-22.5 3.8-7.2 0.1 4.5-10.5-5.3-8.3-8.8-8-5.7-9.4 0.7-4.5 1.7-5.5-0.2-5.7-5.1-5.1-5.2-1.2-4.6 1.4-4.9 2.4-5.8 1.5-4.9-0.7-13.6-5.3-1.3 1.5-1.4 3.4-2.2 3-3.9 0.4-1.5-1.8-26.1-48.9-8.1-8.7-27.1-17.1-4.2-5.1-6-11.6-4-4.9-4.7-2.8-16-5.4-4.6-3.1-3.2-3.2-3.7-2.4-11.8-1.6-6.1-1.6-5.7-2.7-4.5-3.7-5.2-10.8 0.3-10.9 4.9-20.5 2.8-21.8 3.9-9.1 7.2-9.2 10.4-7.2 4.5-4.2 0.9-5.5-2.6-10.3-0.4-5 11.1-52.4 2.5-4.9 4.1-4.4 4.5-2.8 3.5-3.6 1.3-6.6 1.4-18.5-1.6-16.1-7.7-12.2-17.1-6.6-9.7 0.2-17.4 4.6-9.4 1-9.4-2.5-10.4-5.8-8.5-7.9-3.8-8.6 52.8 10.9 179.6 36.9 101.9 21 1.8 1.9 0.3 1.6-1.8 6.7-1.8 2 8.2 2.1-6.1 22.2 64-22.6 32.1-6.3 49.3-0.9 66.5-1.3-13.1 32.2-1.5 10.3 1.2 5.6 4.3 10.6 0.8 5.7-8 15.4-1 5.5-0.8 11.9-1.6 5.4-6.6 9.6-27.9 26.7-7.4 17.4 4.1 47-0.3 20.4-7.6 29-7.1 53.6 0.4 12 4.1 7.8 38.8 26 78.2 52.4z" id="TGO90" name="Savanes" data-id="TGO90" data-name="Savanes">
 </path>
 <circle cx="111.7" cy="158.4" id="0">
 </circle>
 <circle cx="188.5" cy="149.7" id="1">
 </circle>
 <circle cx="803.2" cy="964.7" id="2">
 </circle>
</svg>