<?xml version="1.0"?>
<!--
************* Copyright (c) 2017 Pareto Softare, LLC DBA Simplemaps.com *******************		
************* Free for Commercial Use, full terms at  http://simplemaps.com/resources/svg-license ************
************* Attribution is appreciated! http://simplemaps.com ***************************
-->
<svg baseprofile="tiny" fill="#7c7c7c" height="422" stroke="#ffffff" stroke-linecap="round" stroke-linejoin="round" stroke-width="2" version="1.2" viewbox="0 0 1000 422" width="1000" xmlns="http://www.w3.org/2000/svg">
 <path d="M528 138.7l-0.6 0.2-8.3-4.9-11.7-0.8-14 6.9-10.3 5.6-7.3 1.5-9.6 3.3-12 1.8-2.8-2.1-4.3-3.3-2.4-12.7 15.7-7.1 7.5-0.9 7.8 2.3 3.6-0.2 8.3-8.5 5.6 2.5 9 0.2 16.5-2.7 29-9.4 5.3 7-4.8 6.4-5.9 4.4-6.6 8.3-7.7 2.2z m-54.9-82.6l-2.9 0.9-3.3-2.5-9.8-2.9-3.9-2.3-3.2-3.6-1.1-3 0.9-3 2.3-4.1 3.8-3.6 10.8-8.2 5.5-9.3 7.6-8 8.3-5.5 5.5 2.4-2.6 9.8-11.7 28.9-2.1 9.4-1.3 2.5-2.8 2.1z" id="TLS541" name="Dili" data-id="TLS541" data-name="Dili">
 </path>
 <path d="M451.4 150.2l-5.2 9.1-8.1-0.4-10.8 3.7-13.7 10.7-26.9 5.2-7.9 4.3-14 5.5-14.5 3.2-2.1 0.5-9.1 0-12-4.9 1.1-15.8 2.6-7 3.9-6.3 5-4.4 6.1-2 13.9-2.2 5.8-3.1 2.5-0.6 11.1 1.6 3.4-0.9 9-5.4 20.2-5.8 6.1-0.7 20 1.4 6.9-1.7 2.4 12.7 4.3 3.3z" id="TLS542" name="Liquica" data-id="TLS542" data-name="Liquica">
 </path>
 <path d="M1 372.5l5.6-1.6 24.5-9.8 5.4-0.7 3.8-2 6.7-9.5 2.9-3.2 9.2-4.3 20.2-6.3 29.8-5.7 3.4-1.8 2.6-3.4 6-1.2 7.7-0.4 0.3 6.3-4.5 17-1.5 10.8-1.1 2.7-2.2 2.3-5.8 7.6-9.1 7.8-5.3 2.2-2 3.2-0.7 9.1-4.1 6.6-1 4.4 1.4 5.4-0.3 2.9-2.7 4.2-4.1 2.6-5.1 1.4-5.9 0.5-5.2 1.4-1-5.8 1.2-7.7-1-5.2-2.2-5.3-2.9-5-3.5-4.2-4.6-4-4-1.7-4.2 0.2-5 2.1-4.1 3.5-6.1 8.4-3.8 2.4-9.4-1.7-8.4-7.3-9.9-17.2z" id="TLS543" name="Ambeno" data-id="TLS543" data-name="Ambeno">
 </path>
 <path d="M528 138.7l-1.9 10.5 4.3 9.9 4.3 6.4 4.7 10.9 1.2 14.7-8-0.7-5 1.7-5.5 5.5-11.1 5.6-5.9 0.7 0.9-7.3-5.2-0.9-8.9 1.4-7.5 5.1-6.5 1.4-2.1 5.7-6.1 7.5-9.9 3.7-15.6 2.1-2.5-4.7-1.4-5.6-8.2-4-4.5-4.6 5-6.1 2.3-6.8-4.8-4.9 0.8-3.8 9.8-3.4 6.5-3.7 3.5-9.5-3.1-6.2-1.4 0 5.2-9.1 2.8 2.1 12-1.8 9.6-3.3 7.3-1.5 10.3-5.6 14-6.9 11.7 0.8 8.3 4.9 0.6-0.2z" id="TLS544" name="Aileu" data-id="TLS544" data-name="Aileu">
 </path>
 <path d="M505.1 203.9l-2.6 12.5-1.3 7.6-0.2 5.6-0.9 8.8-4.7 3-10-0.2-7 3.7-1.1 5.9-2.5 5.8-2.4 4.4-0.6 5.8 0.8 10.2 4.2 7.1 9.1 4 7.5 3.7 4.5 4.2 2.6 7-4.1 10.2 2.3 11.3 0.8 2.1-3 0.1-15.4-2.2-5 1-6.2 5-6.2 3.5-19.5 7.3 2.2-8.5 4.8-15-4.8-2.9-6.8-1.7-4-4.8-1-12-3.2-7.7-4.3-2-2.1-4.6-4.3-4.5 0.5-7.7 0.2-8.3 9-2.6 0.2-7.5 2.9-4 3.6-4.1 2.1-5.3 5.5-4.9 0.9-7.8-1.4-2.8 15.6-2.1 9.9-3.7 6.1-7.5 2.1-5.7 6.5-1.4 7.5-5.1 8.9-1.4 5.2 0.9-0.9 7.3z" id="TLS545" name="Ainaro" data-id="TLS545" data-name="Ainaro">
 </path>
 <path d="M809 92l4.6 6.9 2.2 7.7 3.4 3.5 4.8 2.9-0.8 5.2-2.6 4.1 4.6 4.5 10.7 9.8 8.4 8.6 2.3 5-3.8 3.1-8.2 6.1-10.2 14.2-4.2-5.5-5.6-4.2-16.9-4.9-7.2 3.5-3.6 7.2-3.9 1.9-5.1-3-8-1.1-12.4 2.1-8.2-4.1-5.2-13.5-5.9-5.8-2 8.1-1 9.2 1.2 9.3-5.2 3.9-7.9-3.1-9.7-3.5-13.1-2.9-15.1 0.9-14.3 5.4-16.3-0.4-12.4-4.2 6.4-5.9 3.5-4.9 2-6.8-0.6-10.1-1.8-16.5-3.1-6-5.9-4.6 4-0.6 13.7-0.2 12.2-1.7 6.3-3.1 13.4-9.6 9.7-2.8 10.1-5.7 3.4-0.5 6-0.1 3.2-1.5 5.5 4.1 6.5 2.6 7 1.4 7.1 0.5 4.4 1.6 11.2 10.6 12.6-4.2 23.3-11.1 6.5-1.8z" id="TLS546" name="Baucau" data-id="TLS546" data-name="Baucau">
 </path>
 <path d="M350.3 191.5l2.2 5.4 11.2 2.2 4.9 2.4 3.7 6.2 8.5 16.7 8.6 17.5 1.6 6.1 0.9 9.1 3.1 7.4 19-0.7 7.4-2.2-0.2 8.3-0.5 7.7-8 1.9-7.2 6.2-1.5 7.9-1 11.4-3.2 6.1-9.9-0.5-5.3 1.3 8.3 10.4-2.5 9.3-17.1 2.5-11.2-1.1-1.4-4-2.1-3.2-4.4-2.4-12-3.7-2.3-7.9 5.2-19.3 0.1-6.7-2.6-6.1-4.4-5-5.5-4-5.7-3.2-4.8-4.7-3.1 1.4-1.1 1.8-1.3 6-1 2.2-4.1 3.7-14.4 6.3-7.8 5.1-3.9 1.6-5.5 0.4-4.5-1.3-3.6-2.7-2.5-4-1.6-4.7 0.4-5.2 4.1-10.5-0.9-7.5 10.4-6 6.4-6.3 14.7-22.5 1.3-4.7 2.8-2.8 13.7-5 4.5-3.9 1.1-5.4 0.8-11.7 12 4.9 9.1 0 2.1-0.5z" id="TLS547" name="Bobonaro" data-id="TLS547" data-name="Bobonaro">
 </path>
 <path d="M444.2 341.3l-33.2 12.4-11 6.7-15.6 13.1-8.4 3.7-3.7 4.4-5.7 8.5-3.3 3.7-3.3 2.6-4.4 1.6-14.2 1-5.9 1.8-5.1 3.3-5.2 5.1-10.6 7.6-3.3-18.8-1.4-4.6-6.8-10.8-0.3-2.2 0.6-4.8-0.4-2-1.7-2.1-6.5-4-7.2-6.5-2.1-3.5-1.8-5.4-1.8-10.6 1.2-9.1 5-6.2 9.9-1.8 6.3 0.1 4.1 2.1 3.7 4.2 1.9 1.1 4.3 0.3 5.3-4.5 4.8-2.5 3.3-0.3 7.5 0.4 2.4-1.1 1-3-0.4-1.5 12 3.7 4.4 2.4 2.1 3.2 1.4 4 11.2 1.1 17.1-2.5 2.5-9.3-8.3-10.4 5.3-1.3 9.9 0.5 3.2-6.1 1-11.4 1.5-7.9 7.2-6.2 8-1.9 4.3 4.5 2.1 4.6 4.3 2 3.2 7.7 1 12 4 4.8 6.8 1.7 4.8 2.9-4.8 15-2.2 8.5z" id="TLS548" name="Cova Lima" data-id="TLS548" data-name="Cova Lima">
 </path>
 <path d="M446.2 159.3l1.4 0 3.1 6.2-3.5 9.5-6.5 3.7-9.8 3.4-0.8 3.8 4.8 4.9-2.3 6.8-5 6.1 4.5 4.6 8.2 4 1.4 5.6 2.5 4.7 1.4 2.8-0.9 7.8-5.5 4.9-2.1 5.3-3.6 4.1-2.9 4-0.2 7.5-9 2.6-7.4 2.2-19 0.7-3.1-7.4-0.9-9.1-1.6-6.1-8.6-17.5-8.5-16.7-3.7-6.2-4.9-2.4-11.2-2.2-2.2-5.4 14.5-3.2 14-5.5 7.9-4.3 26.9-5.2 13.7-10.7 10.8-3.7 8.1 0.4z" id="TLS549" name="Ermera" data-id="TLS549" data-name="Ermera">
 </path>
 <path d="M642.9 114.1l5.9 4.6 3.1 6 1.8 16.5 0.6 10.1-2 6.8-3.5 4.9-6.4 5.9-2.7-0.9-6-1-5.9 4-3.7 9.8-3.4 7.9-5.6 3.8-4 5.2-1 6 7.1 11 6.4 11.9 0.2 6.6 1.3 6.6 3.4 9.2 5.2 7.6 8.1 10.5-4.9 2-22.6 15.6-0.7-3.6-4.1-7-13-9.3-13.4-7.9-4.7-7.4-7.1-8.6-10.5-5.2-9.3-5-9.3-7.7-3.6-13.8 2.1-17.2-0.1-0.9-1.2-14.7-4.7-10.9-4.3-6.4-4.3-9.9 1.9-10.5 7.7-2.2 6.6-8.3 5.9-4.4 4.8-6.4-5.3-7 6.7-2.2 14.3-0.8 31.8 5.6 12.2 6 8.1 0.8 6.7-1.3 12.9-4.1 2.5-0.3z" id="TLS550" name="Manatuto" data-id="TLS550" data-name="Manatuto">
 </path>
 <path d="M540.6 191.1l0.1 0.9-2.1 17.2 3.6 13.8 9.3 7.7 9.3 5 10.5 5.2 7.1 8.6 4.7 7.4 13.4 7.9 13 9.3 4.1 7 0.7 3.6-30.6 21.1-5.6 1.8-17.9-2.7-6 0.5-3.4 1.8-6.6 5.5-3.6 1.3-12.6 0-6.4 1.6-19.5 11-2.6 0-0.8-2.1-2.3-11.3 4.1-10.2-2.6-7-4.5-4.2-7.5-3.7-9.1-4-4.2-7.1-0.8-10.2 0.6-5.8 2.4-4.4 2.5-5.8 1.1-5.9 7-3.7 10 0.2 4.7-3 0.9-8.8 0.2-5.6 1.3-7.6 2.6-12.5 5.9-0.7 11.1-5.6 5.5-5.5 5-1.7 8 0.7z" id="TLS551" name="Manufahi" data-id="TLS551" data-name="Manufahi">
 </path>
 <path d="M824.4 173.6l-1 1.5-2.2 7.7 0 10.7-10.4 0.8-6.6 1.6-3.6 1.7-8.9 6.6-4.8 1.6-6.7 0.3-3.1 1.2-11.9 13.7-11 19-10.8 9.5-12.8 3.6-80.4 10.4-8.4 3.6-8.1-10.5-5.2-7.6-3.4-9.2-1.3-6.6-0.2-6.6-6.4-11.9-7.1-11 1-6 4-5.2 5.6-3.8 3.4-7.9 3.7-9.8 5.9-4 6 1 2.7 0.9 12.4 4.2 16.3 0.4 14.3-5.4 15.1-0.9 13.1 2.9 9.7 3.5 7.9 3.1 5.2-3.9-1.2-9.3 1-9.2 2-8.1 5.9 5.8 5.2 13.5 8.2 4.1 12.4-2.1 8 1.1 5.1 3 3.9-1.9 3.6-7.2 7.2-3.5 16.9 4.9 5.6 4.2 4.2 5.5z" id="TLS552" name="Viqueque" data-id="TLS552" data-name="Viqueque">
 </path>
 <path d="M821.2 193.5l0-10.7 2.2-7.7 1-1.5 10.2-14.2 8.2-6.1 3.8-3.1-2.3-5-8.4-8.6-10.7-9.8-4.6-4.5 2.6-4.1 0.8-5.2-4.8-2.9-3.4-3.5-2.2-7.7-4.6-6.9 1.5-0.4 5.8-4 2.4-1.2 3.4 0 7.4 1.9 13.3-2.7 13-5.9 31.1-22.3 6.9-2.9 5.1 1.2 4.7 3.4 21.3 10.3 5.9 1.6 7.5 0.7 7.4-0.7 5.4-2.6 9.3-6.7 2.1-0.8 3.9 0.8 1.5 2 0.8 2.7 2.1 3 6.4 3.9 13.8 3.7 5.8 4 2.2 6.1-3 5.3-22.3 16.7-13.9 14-27.9 21.8-19.6 19.2-2.1 3.2-3.6 0.3-21.3 4.7-19.6 14.3-8.7 4.3-35.8 2.6z" id="TLS553" name="Lautem" data-id="TLS553" data-name="Lautem">
 </path>
 <circle cx="53.7" cy="379.3" id="0">
 </circle>
 <circle cx="65.7" cy="379.1" id="1">
 </circle>
 <circle cx="618.6" cy="219.8" id="2">
 </circle>
</svg>