<?xml version="1.0"?>
<!--
************* Copyright (c) 2017 Pareto Softare, LLC DBA Simplemaps.com *******************		
************* Free for Commercial Use, full terms at  http://simplemaps.com/resources/svg-license ************
************* Attribution is appreciated! http://simplemaps.com ***************************
-->
<svg baseprofile="tiny" fill="#7c7c7c" height="695" stroke="#ffffff" stroke-linecap="round" stroke-linejoin="round" stroke-width="2" version="1.2" viewbox="0 0 1000 695" width="1000" xmlns="http://www.w3.org/2000/svg">
 <path d="M47.7 375.9l-0.5 0-0.2-2.1-2.1-7.8-1.1-2.4-0.5-1.4-0.1-0.9 0.1-2.4-0.1-2.4-0.7-4.2-0.1-2.1 0.2-2 0.7-1.7 1.2-1.3 1.7-0.3 0.4 0.6 0.1 0.7-2.1 1.5-0.3 3.7 0.9 7.2 0.9 7.5 1.6 7.4-0.3 1.1 0.3 1.3z m28.2-75.4l0.3 0.1 0.3-0.5 0.5 2.5 1.4 2.2-0.4 1.1-0.8 1-1.1 0.7-1.1 0-0.3-0.7-0.8-2.9-0.5-1.1-0.4-1.2 0.4-1.1 0.8-0.7 0.8-0.4 0.9 1z m212.8-158.2l0.2 3.7 0.4 1.9 1.9 5.1 1.8 6.2 0.6 1.3 0.5 0.7 0.7 0.7 1.2 0.5 0.9 0 0.7 0.7-0.1 1.4-0.5 1.7 0.3 1.2 0.6 0.8 0.6 0.4 1.4 0.7 0.5 0.4 0.9 1 2.1 3.3 2.2 2.3 0.3 0.4 8.1 21 0.9 3.1 0.8 1.6 1.7 2.1 2.1 1.9 4 5.2 0.9 2.8 3 11.9 3.1 8.4-0.6 2.9-2.9 8.9 2 1.6 2.1 1.1 0.8 1.2 1.2 3.8-8.5 4.4-3.7 2.8-0.4 0.7-0.2 1.5 0.4 1.4 0.9 1.6 0.2 0.7 0.9 5.5 5.9 22.6 0.1 1-0.4 0.7-1.3 1.1-4.5 1.7-1.7 1-0.4 0.4-0.5 1-21.4 70.1-0.4 2.2-0.1 1.3-0.5 1.4-1.9 3.3-0.5 1.7 0.3 1.9-0.1 0.9-0.6 0.9-1.8 0.8-0.5 0.6-0.4 1.4-0.7 8.4 0.1 1.4 0.7 1.2 0.8 0.5 1.5 0.1 1.1 0.3 4 2 1.1 0.4 0.9 0 3.5-1.1 1.4-0.1 1 0.1 1.8 0.9 1.4-0.1 2-0.8 1.1-0.2 0.5 0.2 0.5 0.6 0.8 2.9 0.3 0.7 1.5 2.4 1.1 1 6.7 4.6 6.1 6-0.3 0.2-1.4 2.5-0.8 0.9-2.3 1.5-1 0.9-1.2 0.7-1.5-0.2-2.8-1.2-10.5-2-1.1-0.3-2.4-1.4-2.8-2.3-0.6-0.1-3.4 0.6-5.6 2.5-1.2 0.2-0.9-0.5-0.9-0.7-1-0.6-1.2-0.3-6.4 0.2-2.6 1-2.3 1.7-4.5 4.1-0.4 1.2 1.9 2.2 0.3 1.6-0.2 1.6-0.7 1.4-1.1 0.9-6 1-1.2-0.2-2.5-1-2.8-0.4-10.1 1.8-1.1 0-1-0.3-1.9-1-1.1-0.4-3.6 0-1.1-0.4-2.7-1.6-4.3-1-2.1 0-13.9 3-4.5 0.2-1.7 0.7-5.2 4-1.5 0.8-1.4 1.1-0.8 0.2-3.2 1-1.5 0.9-0.7 1.4-0.8 0.3-4.1 0.8-1.4 0.5-0.6 0.7-0.7 1.6-0.5 0.7-0.8 0.3-1 0.1-0.8 0.5-0.4 1.2-0.6 0.9-3.2 3.7-10.6 7.3-2.1 2.3-0.9 1.5-0.4 1.4-0.3 1.8-1.2 2.7 0.1 1.9 0.3 0.5 0.8 0.7 0.3 0.6 0.1 0.6-0.1 2.2-0.2 1.2-1 2.2-0.2 1.4-0.3 0.6-1.8 1.5-3.3 2.2-0.9 0.9-1.4 0.5-1.7 1.9-1.1 0.5-1.5 0-4.3-0.9-1.6 0.2-11.9 6.9-2.5 0.9-1.5 0-1.7-0.2-1.5 0-1.3 0.9-1.3 1.3-1.3 0.5-1.4 0.1-19.1-1.7-1-11.1-0.7-3.5-1.3-3.5-0.4-1.8-0.4-3.9-2.5-11.8-1.2-25.6 0.2-1.5 1-3 0.7-4.3 1.7-6.8-0.2-2.5 0.8-2.8 0.1-3.8-0.4-6.6-0.1-0.7-0.6-1.3-0.5-1.7-0.2-1.8-1-5.5-0.1-1.9 0.6-7.3 0.8-3.6 1.1-3 3.3-5.2 1.2-3.3-0.7-2.7 1.1-0.8 0.5-1.6 0.4-1.9 0.7-1.5 0.7-1.2 0.9-1.8 0.3-1.3-0.7 0.2-0.1-1.9-0.9-0.9-2.5-0.9-0.4-1.2-1.4-0.6-0.7-1.3-0.3-1.8-0.8-1.8-0.8-0.6-2.7-0.1-1.7-0.5-0.7-0.1-0.7 0.3-0.7 0.8-0.8-0.8-0.6-1.3-1.4-4.3-0.4-0.9-0.7 0.6 0.2 1.5 0.7 1.5 0.5 0.8 0 0.6-1.1-0.7-1-1.3-0.5-1.7 0.7-2.5-0.5-1.6 0-0.9 0.4-0.6 2-1.3-2.1-0.2 0-1.9 1.6-4.1-1.5 0.8-1.9 1.5-1.1 1.4 0.9 0.7 0.7 9.9-0.8-1.3-1.7-2.3-0.8-1.4-0.4-1.6 0-1.8-0.5-1.4-1.5-0.1 0.3-1.2 0.3-1.4-0.2-1.3-0.7-0.5-0.4 0.6-1.1 2.9-0.6 0.9-0.3-2.1 0.3-2.7 1.4-5.2-1.9 1.9 1.2-3.1 0.2-1.3-0.4 0.3-1.5 0.3 0.8-1.9-0.2-0.8-0.9 0.5-1.1 1.6-0.5-0.7-0.8 0.5-3.1 0.2-1.3 1.1-0.7 0 0.1-1.8-0.5 0-0.5 1-0.8 0.8-0.9 0.7-1.1 0 0.3-0.6 0.6-1.9-1.5 0.1-0.4-0.1-0.7 0.6-0.5-0.1-0.8-1-0.9 0.3-1.8 0.9-1.1 0 0-0.7 0.4-0.6-0.1-0.4-2.3-0.3-1.1-0.8-0.7-0.3-1.5 0.1-3.3 1-1.5 0.8 2.6 1.6 0.8 0.2-1.3 2.1-0.4 1.2-0.2 1.4 0.1 1.5 0.8 3.8-0.2 2.2-0.6 1.1-0.8-0.2-1.7-12.9-0.4-1.1-3-4.5-0.2-1.5 0.7-1.8 0.6-0.9 2-1.9 0.4-0.9 0.5-2.1 1.4-1.2 0.9-1.7 2.6-7.1 1.9-3.9 2.4-2.6 2.6 0.5-1.4 0.8-1.1 1-2 2.9-0.3 0.7-0.7 2.6-1.7 1.9 0.4 2.3 2.6 0.4 7.7-1.6 4.5 0.2 1.4 0.5 0.8 1.2 0.6 1.4 0.8 1.2 1 0.7 1.2 0.4 2.9 0.2 1.2 0.6 0.6 0 0.3-0.9 0-0.9-0.2-0.7-0.5-0.4-0.7-0.2 0.9-2.3 0.9 0.3 0.9 1.5 1.1 1.2 1.4-0.1 2-2 1.4-0.4 0.7 0.2 1.6 0.9 0.6 0.1 0.8-0.8-0.2-1-0.8-0.8-0.7-0.6-1.6-0.6-2.9-0.7-1.3-1.2 1.1-0.3 0.7-0.7 0-1-0.6-1.3-0.9-1-1-0.2-3.3 0.4-0.3-0.6 0-1.8-0.3-0.9-0.5-1.1-0.8-1-0.8-0.5 0.4 3.1 0 1.3-0.4 0-2.6-4-1.8-1.8-1.9-0.5 0.3 0.6 0.7 2-2-1.2 0 1.7 1.4 1.7 0.1 1.5-2.4-1.6-0.3-3.3 1.2-7-0.8 0.5-0.9 0.1-0.9-0.1-0.8-0.5 0-0.6 2.4-1.2 3.6-5.1 2.3-2.5-0.4-0.5-0.6-1.3 1.2-0.6 1.4-0.1 1-0.3 0-0.7-0.7-0.8 0.7-1.1 1.1-1.1 1-1.2 0.6-1.7-1 0.6-1.2-1.2-1.1-0.2-2.6 0.2-1.1-0.4-1.7-1.5-1-0.7-1.2-0.3-1.3-0.1-1.1 0.4-1.2 0.7-2.9 3.4-1.2 0.4-1.4 1.1-0.5 0.2-0.6-0.2-1.2-0.9-1.4-0.6-4.6-3.6-1.2 0.5-1 1-1.1 0.6-5 0.6 0.8-1.5 1.1-1-4.8 1.6-2.7 0.3-2.2-0.6-1.1-2.8-1-0.9-1.2 1.2 0 0.9 0.5 1.3 1.2 1.8 0.2 1.1 0.5 5.2 0.4 0.8 2 2.7 0.7 0.5 2.7 5 2.2 2.1 0.7 0.5 0 0.6-2.4-1.1 1.9 2.4-0.5 0.6-2.2-2.2-1-1.3-2-4.8-0.9-1.3-2.5-1-0.9-1.5-0.4-1.9-0.4-3.6-0.6-1-6.8-5.4-2.4-2.6-1.1-2 0.6-3.9 0.5-2.3 0.6-1.3 0.4-1.7-0.7-1.7-1.9-2.6 0.9-0.8-0.3-0.9-1.5-1.5-1.3-3.5 0.2-3.6 2.4-15.9 1-3 1.5-3.1 4.2-5.9 2.2-4 0.3-3.4-0.6-0.5-1.8-0.5-0.4-0.6 0.1-0.8 0.6-1.7-0.4-0.6 0.9-0.6 1.2-0.5 0.4 0.1 0.2-0.9-0.1-0.9-0.5-1.4 1.7-7 2.6-7 0.6-3.2-1-6.5-0.1-3.7 0.8 0.5 1.7 1 0.7 0.7 0.3 1.1-0.2 1.1-0.3 1 0 1 0.7 1.8 3 3.9 0.6 1.6 0.8 3.5 0.6 1.3 2.3 1.6 0.1 0.3 1.8 0.1 0.8-0.2-0.3 0.8-1.7 0.6-1.3 0.7 0.5 1.5 1.6 1.5 0.6 0.7 0.1 0.9 0 1 0.2 0.9 0.9 0.4 3.1 0.3 1.3-0.2 1.6-0.7 3.1-3.4 1.2-0.4-1.2 2.5-0.3 1.4 0.8 0.6 5.2-0.7 0.6-0.4 0.2-2.2 0.2-0.9 1-1.5 0.8-0.5 0.8 0.4 0.1 0.5-0.5 1.8 0 0.8 0.6 1.8 1 1.5 1.4 0.9 1.6 0.4 0.4 0.2 1 0.9 0.7 0.1 0.8-0.1 1.6-1.1 2.5-1.2 1-1.1 0.4-1.9-0.1-4 0.2-1.5 1.8-3.6 0.3-0.2 0.9 0 0.7 0.2 0.7 0.4 0.5 0.6 0.5 0.8 1.2 0.6 0.1 0.6-0.6 1.3 0.4 2 0.4 0.7 0.7 0.5-0.6 1.3-0.9 1.2 0.8 1.6 1.1 3.8 1 1.7 0.8 0.4 1.2 0.4 0.4 1-0.2 0.7-1 2-0.2 0.8 1.1 2.3 2.7 0 3.2-0.7 4.1 0.6 1.2-1.1 1.1-1.4 3-1.7 0.7-0.2 0.7 0.2 1.9 1 1.8 0.3 1.4-0.5 1.3-0.6 2.2-0.6 0.5-0.6 0.4-0.7 0.1-0.7-0.4-0.1-1.8-0.9-0.7-0.6 4.1 0.1 2.1-0.3 2.1-1.2 4.2 0.2 0.2 0.2-0.3 0.6-0.7 2.2-0.2 0.5 0.3 0.3 2.2 1 10.6 0.2-1.4-0.8-1.5-0.5 0.9-1.2 2.8-0.7 1.1-1.2-7 0.1-0.9-0.1-0.5-0.9-0.2-1.9-0.3-1.7-1.3-2.6-0.5-2.4-0.7-1.5-0.1-0.8 0.1-0.6 0.4-0.9-0.1-0.7-0.4-0.2-0.7 0.1-0.6-0.2-0.2-1 0.3-0.4 1.1-0.1 0.5-0.2 1.8-2.1 1-0.7 1.3-0.3 2.1 0.9 4.2 3.5 1.2 0 2 1.3 0.2 1.3-0.9 1.5-1.3 1.7 2.6 0.7 8.1-1.6 2.4-0.9 1.1-0.2 1.2-2.2 3-1.5 0.6-0.6 2.7-4.4 0.6-1.5 0.3-1.5-0.2-1.6-0.7-1.3-1.7-2.3-2.3-3.6-0.8-0.5 0-0.6 1.5 0.2 1.7 0.9 3 2.1-0.4-0.8-1.4-1.2-0.6-0.6-0.6-1-0.4-0.9 0.1-0.7 0.7-0.8-1-1.3-1.9-0.6-2-0.3-1.7-0.8-0.1-2.8-2.4-2.7-14-11-6.3-2.7-1.2-0.9-2.5-2.6-3.3-1.9-1.5-1.1-0.3-0.4-0.8-1.6-1.5-2.4-0.6-0.5-2.5-0.5-1.4-0.9-1.1-1.2-0.9-1.4-1.4-3-0.7-3.3-0.3-3.7-0.1-8.1-0.4-3.4-0.8-3.2-1.1-3-3.4-5.8-0.8-2.4-1.6-0.5-0.5-0.4-0.3-1.1 0.2-0.9 0.4-0.8 0.2-1.1-0.4-2.4-0.1-1.1 0.9-2.3 0.1-1 0-1.6-0.3-1.9-0.4-1.8-0.7-1.5-2.2-2.2-3.3-2.2-3.6-1.1-3 1-3-1.7-21.5 3.6-4.2 2.2-1.4 0.4-5.4-0.3-3.9-2.1-2.9 1.3-2.7 2.4-1.7 1.9-7 5.7-1.6 2.7-8.1 18-1.3 1.9-1 0.8-0.5 1-0.6 2.3-0.3 2.4 0.2 1.5 0.9-0.3 2.2-2.9 1-0.7 3.5 0.3 1.6 0.8 0.9 1.5 0 1.2-1.1 2-0.3 1 0.1 0.9 0.3 1.9 0.1 1-0.3 2.1-4.7 12.1-0.3 1.9-0.8 2.7-0.2 0.9 0.1 0.9 0.9 2.3 0.7 3.9 0.4 5.9 0.6 1.5 3.7 7.8 0.4 1.7-0.4 1.9-1.5 2.7-0.1 2.1-0.4 0-0.4-0.9-1.2-1-0.4-0.6-0.1-1.1 0.6-2.8 0-2.2-0.3-1.9-0.5-1.8-0.7-1.8-1.4-1.9-0.2-1.1 0.2-1.8 0-0.9-1.6-5.5-0.1-0.9-0.9-0.8-1.1-3.6-1.1-0.8-0.9-0.2-0.6-0.5-0.3-0.9-0.3-2.2-0.4-0.5-1.1-1.1-0.8-0.6-1.9-0.3-0.6-0.4-2.5-3.2-1.2-1-1.3-0.6-1-1-0.1-2.3 0.2-0.2 1.5-2.7 0.2-0.7 0.1-1.1-0.1-2.1 0.1-0.6 0.5-1-0.2-1.2-0.9-0.7-0.5-1.9-0.4-0.7-0.5-0.6-0.5-0.2-1.1 0.2-0.5-0.3-1.1-1.5-1.1-0.5-1.1-1.3-0.6-0.3-1.7-0.5-0.9-1.4 2.9-2.9 10.7-10.8 9.4-9.4 15-12.6 11-3.9 4-2.4 15.5-6.1 4.6-1 12.4-2.3 27.6-5 5.3 0.7 5.1 1.9 10.9 7.3 27.2 18.3 11.9 10.9 1.6 2.2 0.7 1.9 0 1.6-0.3 1.6-0.1 2 0.4 1.9 0.7 1.7 10.5 14.3 9 16.1 2.2 2.6 2.4 2.2 4.4 3.1 1.2 1.2 0.8 1.6 2 4.8 1.2 1.6 1.4 1.1 2 1.1 2.2 0.7 8.8-0.5 4.2-1.6 6.5-0.9 6.3-3.1 2.3-0.2 4.8 0.5 11.4 0.6 27.6 1.5z" id="TKM351" name="Balkan" data-id="TKM351" data-name="Balkan">
 </path>
 <path d="M568.5 309.4l3 0.3 32.5-2.6-0.4 14.3-0.9 1.5-0.6 1.8-4.5 1-9.1 2.8-2.2 2.9-4.4 24.7-0.5 1.5-0.7 1.6-1.2 0.7-4.4 0.7-1.2 0.5-0.6 1.1-0.3 1.4-1.5 9.3-0.4 1.5-0.6 1.4-1.1 0.5-1.2 0.1-3.7-0.4 8.7 36.6 1.3 4 17.7 18.4 2.8 4.2 5.6 11.4 0.6 1.9-0.7 0.8-1.2 0.5-3 0.4-1.1 0.3-0.6 0.5 0.2 1.2 3.5 10 0.6 2.6-0.8 1-1.2 0.5-1.4 0.1-0.7 2.6 0.1 4.6 5 20.1 0.8 0.5 0.9 0.2 2.2 0 1.6 0.1 1.4-0.3 6.2 0.4 1 0.2 0.9 0.4 1.1 1.3 3.5 6.4 0.2 0.1 2-1 2.1-0.9 0.4-0.1 2.1-0.1 3.1 0.7 1.2 0.6 0.6 0.7 0.7 1.5 0.2 1-0.1 1.6-0.3 1-0.5 1.4-0.7 1.2-0.9 1.2-0.4 0.4-1.8 1.2-1.7 0.5-2 0.2-1.1-0.1-1-0.3-1.2-0.6-1.4-1.5-0.4-0.6 0-4.4-0.5-1.9-0.7-2.1-1.7-3-1-1.5-1.3-1.3-1.1-0.5-3.1-0.6-1 0-1.5 0.3-3.1 0.2-1 0.3 0.1 0.6 13.1 21.3 2.5 4.1 16.3 27.4 3.3 7.8 0.5 51.7 0.5 4.5 1.5 0.9 3.2 0.2 0.5 0.6 0.2 4.3-0.2 0.4-1.1 1-0.7 0.3-1.3 1-1.3 0.4-2.2 0-1.3 0.3-1 0.8-0.5 1 0 1.1 1.2 2.4 0.4 0.6 1 1.3 1 0.9 2.8 3.1 1.1 0.7 0.7 0.7-0.3 0.6-1.5 1.5-0.5 0.6-0.3 0.9-0.6 6.5-0.2 1.2-0.3 0.8-2.2 2.5-0.6 0.5-2.4 1.6-0.6 0.6-0.8 1.1-0.7 0.8-1.3-0.4-0.6-0.3-0.9-1.2 0.3-1.6-1.1-1-0.3-0.1-0.9-0.7 0.7-1.2-1.2-0.9-0.6 0-3.7 0.7-0.9 0.4-1.7-2.7-1-1.9-0.2-2.3 0.3-0.6 1-0.9 0.2-0.6 0-2 0.4-2.1 0-0.8-0.4-0.7 0.4-1.9 0-1.4-0.3-1.3-0.3-3.1-0.4-1.6-0.7-1.4-0.7-1.2-1.1-1.4-1.2-1.1-1.5-0.8-1.7-0.3-0.9-0.4 0.8-1 1.4-1.2 0.9-0.9 0-0.9-0.3-1.7 0.3-1.1 0.4-0.4 1.3-0.7 0.2-0.9 0.2-1.7 0.2-0.7 1.1-1.6 0-1-0.2-2.6-1-5.4-1.1-1.7-0.2-0.9 0-2-0.1-0.9-0.3-0.9-0.8-1.1-0.5-0.4-0.7-0.3 0.5-1.2-1-2.5 0.4-4.3 1.6-7-0.5-1.3-0.1-1.1 0.3-0.9 0.8-1.5 0.3-1 0.1-1.1-0.1-1.1-0.8-2.1-0.6-3-2.9-0.4-3.5-0.6-15.5 0.3-36 0.6-2.3-1.3-1.4-2.5-2.1-5.4-1.5-2.4-7.4-9.1-3.2-5-2.7-5.6-2.1-2.8-2.6-1.2-5.8-1-2.5-1.5-4.7-3.9-10.1-3.3-0.7-0.1-0.7 0.4-0.8 1.3-0.5 0.5-0.7 0.1-0.9-0.7-0.5-1.5-0.3-1.6-0.5-1.4-1.2-1.3-1-0.2-2.3 0.9-0.5 0-0.6-0.3-1.1-0.9-1.1-0.3-0.2-0.7 0.3-1.3 0.4-1-0.4-0.6-1.3-1.4-4.4-3.7-0.8-1.2-1.4-6.1-0.2-1.9 0.2-1 0.8-1.6-0.6-1.7 0.2-2-0.4-1.2-1.3-1.9-1.4-1.3-1.6-0.4-4 1.8-1.5-0.2-9.4-6.7-2.2-2.4-0.8-0.5-2.1-0.3-0.9-0.3-1-0.7-2.8-1.3-5.4-1.2-4.2-2.4-0.4 0.6-0.2 1.4-0.9 1.1-0.8 0.3-0.7 0-1.5-0.3-0.8 0-0.9 1-0.6 0.4-1.6 0.1-1.6-0.2-3-1.3-3.6-3.1-1.1-0.6-1.4 0.1-1.1 0.8-0.8 1.2-0.7 1.5-0.9 1.5-1.2 0.6-6.4 0.6-1-0.2-1.8-1.4-0.9-0.4-5.5-0.8-1.2-0.5-1.2-1-0.3-1 0-1.2-0.2-1.6-0.2-0.7-1.2-2.1 0-0.7 0.1-1.2-0.5-0.6-1.2-0.6-1.1-0.3-2.4-0.2-4.6-1.1-11-5.3-2.5-0.6-1.1 0.1-1.2 0.2-1.1 0.1-1.1-0.4-0.4-0.6-0.6-1.3-0.5-0.5-0.6-0.1-1.2 0.2-0.6 0-0.9-0.6-0.8-0.8-1-0.6-1 0-1.1 0.3-3.4 0.1-3.6-1.1-1.2-0.1-1.2 0.2-1.1 0.3-1.1 0.2-10.1-4.1-1.8-2.3 1.4-4.8 0.2-1.4-0.3-1.6-1.6-2.2-0.8-2.6-2.3-2.5-0.8-1.3-1.3-3.1-1.6-2.7-0.3-0.8-0.2-1.3-0.8-0.5-1.5-0.5-0.7-0.1-0.8 0.1-1.2 0.6-0.6 0.7-6.1-6-6.7-4.6-1.1-1-1.5-2.4-0.3-0.7-0.8-2.9-0.5-0.6-0.5-0.2-1.1 0.2-2 0.8-1.4 0.1-1.8-0.9-1-0.1-1.4 0.1-3.5 1.1-0.9 0-1.1-0.4-4-2-1.1-0.3-1.5-0.1-0.8-0.5-0.7-1.2-0.1-1.4 0.7-8.4 0.4-1.4 0.5-0.6 1.8-0.8 0.6-0.9 0.1-0.9-0.3-1.9 0.5-1.7 1.9-3.3 0.5-1.4 0.1-1.3 0.4-2.2 21.4-70.1 0.5-1 0.4-0.4 1.7-1 4.5-1.7 1.3-1.1 0.4-0.7-0.1-1-5.9-22.6-0.9-5.5-0.2-0.7-0.9-1.6-0.4-1.4 0.2-1.5 0.4-0.7 3.7-2.8 8.5-4.4 0.4 1.1 1 0.9 2.6 0.6 0.8 0.5 1.3 1.6 0.7 0.6 1.2 0.2 4.4-0.5 1-0.5 2.6-2.7 1.6-1 4.5-1.7 28.4 0.5 8.3-1.2 17.1-5 7.6 0.8 1.3-0.2 0.5-0.9-0.3-2.4 0.2-1 0.2-0.4 0.7-0.4 0.5-0.1 5.6 0 4.6 1.3 3.2 1.3 28 7 3.5 4.8 0.9 0.8 4.2 2.9 5.2 1.2 17.7 0.3 38.3 0 0.9 0.2 0.4 0.4 0.1 1 0 29.4 0.2 1.1 0.5 0.9 4.1 4.8 1 0.3 1.3-0.3 1.7-0.7 0.6-0.7 0.9-1.1 0.6-0.6 1.7 0 1.9 0.5 1.7 0 1.4-0.9 1-0.2 0.6 0.4 0.8 0.9 0.6 1.2 0.2 0.8 0.5 3.2 0.5 2.1 0.9 1.3 0.7 0.6 0.9 1.1 0.4 1.9 0.2 0.3 2.3 0.3 9-1.4z" id="TKM352" name="Ahal" data-id="TKM352" data-name="Ahal">
 </path>
 <path d="M602.7 148.8l0 1.8-0.3 16.1-0.4 1.4-0.9 1.9-51 0.1-0.5 0.1 0.4 59.9 0.1 1.1 0.4 0.6 0.9 0.2 13.9 0.4 1 0.4 0.3 0.9 0.1 1.2 0.5 27.8 0.4 29.3 0.3 16.8 0.6 0.6-9 1.4-2.3-0.3-0.2-0.3-0.4-1.9-0.9-1.1-0.7-0.6-0.9-1.3-0.5-2.1-0.5-3.2-0.2-0.8-0.6-1.2-0.8-0.9-0.6-0.4-1 0.2-1.4 0.9-1.7 0-1.9-0.5-1.7 0-0.6 0.6-0.9 1.1-0.6 0.7-1.7 0.7-1.3 0.3-1-0.3-4.1-4.8-0.5-0.9-0.2-1.1 0-29.4-0.1-1-0.4-0.4-0.9-0.2-38.3 0-17.7-0.3-5.2-1.2-4.2-2.9-0.9-0.8-3.5-4.8-28-7-3.2-1.3-4.6-1.3-5.6 0-0.5 0.1-0.7 0.4-0.2 0.4-0.2 1 0.3 2.4-0.5 0.9-1.3 0.2-7.6-0.8-17.1 5-8.3 1.2-28.4-0.5-4.5 1.7-1.6 1-2.6 2.7-1 0.5-4.4 0.5-1.2-0.2-0.7-0.6-1.3-1.6-0.8-0.5-2.6-0.6-1-0.9-0.4-1.1-1.2-3.8-0.8-1.2-2.1-1.1-2-1.6 2.9-8.9 0.6-2.9-3.1-8.4-3-11.9-0.9-2.8-4-5.2-2.1-1.9-1.7-2.1-0.8-1.6-0.9-3.1-8.1-21-0.3-0.4-2.2-2.3-2.1-3.3-0.9-1-0.5-0.4-1.4-0.7-0.6-0.4-0.6-0.8-0.3-1.2 0.5-1.7 0.1-1.4-0.7-0.7-0.9 0-1.2-0.5-0.7-0.7-0.5-0.7-0.6-1.3-1.8-6.2-1.9-5.1-0.4-1.9-0.2-3.7 18.3 1 15.2 3.2 1.3-0.8 2.2-4 1.4-1.6 3.3-1.6 1.5-1.1 0.7-0.9 0.2-0.7-0.5-0.4-3.6-0.9-1-0.5-1-0.7-1.6-1.7-1.3-2.4-1-2.6-0.3-2.6 0.1-3.3-0.3-2.7-0.8-2.4-1.6-2.6-1.2-3.4 0.1-3 0.5-3 0.2-3.5-1.6-7.5 0.1-3.6 1.9-2.8 6.3-2.9-0.6 12.2-0.5 1.6-1.1 2.7-0.2 1.1 0.9 4.3 0.9 1.9 0.6 0.8 0.5-0.2 0.4-2 0.1-2-0.2-1 2-4.9 0.8-2 0.6-0.6 0.7 0.3 1.1 3.4 0.7 1 4 3 0.9 1.1 0.3 1.4-0.6 3.3 0.2 1.6 0.3 1.7 0.4 0.8 6.7 6.3 1.1 0.5 1.2-0.1 1.3-1.2 2.3-3.3 1.1-0.9 1.3 0.2 1.1 0.9 0.8 0.8 0.9 0.4 1.4-0.6 1.3-1.1 0.9-1 0.9-0.4 2.9 1.2 1.3 0 1.2-0.5 1.2-0.7 0.8-0.7 0.8-1.9 0.9-1.2 1.4-1 1.7-0.4 4.9-0.5 2.6-1 1-0.3 0.2-0.7-0.4-6.2 0.3-1.9 0.7-1.2 1-0.9 0.5-0.9-0.2-0.9-1.3-0.9-1.6-1.1-4.5-4.2-1.1-0.6-1.1-0.5-3.6-0.2-1.1-0.6-0.3-1.7 0.2-3.2 0.4-1 1-0.7 1.8-1 0.3-0.6-0.1-1.8-0.3-0.4-4-2.7-3-1.1-1.1-0.7-0.6-0.9-0.3-1.1 0.1-1.2 0.2-1.1 0.4-0.8 0.8-0.4 1.7 0.1 0.4-0.4 0-1.7-0.1-1.1 1.6-0.4 3.8-1.9 1.4-0.3 4.8 0.2 1.4-0.3 1.5-1.1-0.2-0.9-0.9-1-0.5-1.5 0.5-1.3 2.7-0.8 1-1.2 2.9-6.6 0.6-2.2-0.1-1.5-1.5-3.2-0.4-2.5 1.2-1.1 1.9-0.8 1.8-2.1 0.6-1.1 0.7-0.9 1.3-0.6 1.6-0.3 1.6 0 1.3 0.5 1 1 1.6 2.4 1.2 0.7 1.1-0.1 2.6-1.1 1.2-0.3 1.6 0.3 6.9 3.3 2.4 1.8 1.8 2.4 0.7 3.4-0.2 1.7-0.4 1.7 0 1.5 0.8 1.2 1.2 0.3 4.5-0.7 0.9-0.5 0.2-0.8-0.3-0.8-0.8-0.7-2.8-3.4-5.2-8.5-1.9-4.5-2.2-3.3-2.5-1.9-8.8-4.2-1.3-1.2-0.4-1.8 0.7-1.4 1.3-1 2.6-1.2 3.7-2.2 1.3-0.5 1.8 0.1 7.5 3.1 3.6 0.8 3.7 0.2 2.9-0.8 1.4-2.8 1-8.1 1.3-2.2 1.7 1 15.1 17.9 4.7 4.4 5 2.2 3.1 0.6 2.1-0.1 2-0.6 2-1 1.8-0.2 1.7 1.1 4.5 4.7 1 1.6 0.6 1.8 0.9 7.3 0.9 1.7 2 1.1 3.6 0.4 1.6 0.5 2.8 3.1 1.8 0.6 3.6 0.1 14.9-2.3 6.1 0.6 3.1-0.4 3.2 0.4 2.2 2.4 2 3.1 2.4 2.2 3.1 1.2 1.7 1 0.8 1.3-0.2 1.5-1.2 0.9-1.4 0.6-1.2 0.8-0.6 4.4 1.4 4.7 0.2 3.7-4.2 1.6-1.3 0.4-0.8 0.9-0.1 1.3 0.8 1.3 1 0.5 3.6-0.2 7.4 2.9 2.1 1.7 2.4 3.7 1.1 1.1 3.3 2 1 0.9 0.8 1.1 0.7 1.3 0.1 1.3-0.8 1.2-1.1 0.2-1.3-0.6-2.5-1.6-2.6-0.8-2.2 0.2-1.9 1.3-1.9 2.6 0.7 3.3 2.1 4.2 4.7 6.6 0.7 1.8-1 1.2-2.9 1.4-1.2 1.1-0.9 1.3-0.6 1.6-0.9 7.5 0.5 2.2 2 2 14.5 7.5 4.2 3.1 3.8 3.8 2 1.5 2.5 0.7 4.2-0.1 8.5-2.8 14.1-0.9 4.9 1.2 3.4 3.5 0.9-0.9 0.9-1.6z" id="TKM353" name="Tashauz" data-id="TKM353" data-name="Tashauz">
 </path>
 <path d="M864.3 545.4l-16.4 0.1-14.3-0.1-19.5-0.1-16.7 0-16.8 0.1-2-0.5-0.5-2.3-0.9-40.7 2.8-2.4 1.2-1.3 2.8-4.3 9.5-12.4-0.8-3.9-9.5-11.7-24.2-27.6-4.7-2.9-16.2-6.3-7.2-2.7-6.3-5.6-22.5-24.1-57.6-61-13.3-13.8-10.8-11.1-2.4-2.5-14-1.2-32.5 2.6-3-0.3-0.6-0.6-0.3-16.8-0.4-29.3-0.5-27.8-0.1-1.2-0.3-0.9-1-0.4-13.9-0.4-0.9-0.2-0.4-0.6-0.1-1.1-0.4-59.9 0.5-0.1 51-0.1 0.9-1.9 0.4-1.4 0.3-16.1 0-1.8 0.5-0.7 0.2 0.2 0.2 0.8 0.4 0.9 4.2-0.7 1.2 0 7.3 5.2 2.8 1.1 2.7-0.1 2.4-1.2 2-2.2 1.3-2.9 1.7-1 0.7-3.3 1-2 1.6-0.7 2.6 0.3 6.8 1.8 6.1 2.6 15.7 11.6 1.4 1.6 5.1 8.7 0.6 1.5 0.3 1.9 0.1 6.6 0.4 1.3-0.5 0.7 0.7 1.9 2.3 7.8 0.8 4.2 0.5 2 0.8 1.2 2.3 2.6 0.8 1.3 1.4 5.7 1 1.9 2.6 3.5 0.4 0.9 0.6 2.1 0.4 0.8 1.6 1.1 3.3 1.1 5.8 3.3 0.7 0.8 0.2 3.9 0.4 1.7 1.8 3.7 0.6 1.7 0.3 1.8 0 2.4 0.3 1.9 2.2 4.7 0.3 2-0.4 1.6-0.6 1.7-0.3 2 0.2 2.1 1.2 5.2 0.8 2.4 5 6.4 0.8 0.4 4 4.1 17.8 12.8 11.4 8.2 23.2 16.6 9.8 6.9 4.4 4.3 7.6 10.6 4.2 4.4 7.8 5.6 21.1 15.2 2.1 1.1 2.1 0.4 1.8-0.4 5.5-2.8 2.1-0.2 1.7 1 6.1 8 14.8 12.5 9 5.2 10.3 3.7 4.7 3 16 14.6 9.5 6.4 18.5 12.6 4.8 1.6 4.8-0.4 1.8-1 3.4-2.8 2-0.8 2.4 0.2 7.1 3.5 4.6 0.7 2 1.1 4.3 3.5 4.6 1.3 2.3 1 2 2 3.3 4.2 7.1 3.3 2.2 0.7 5.4 0 2.7 0.7 2.5 1.3 2.4 1.7 1.5 4.3-2.6 5-3.9 5.1-2.4 4.4-0.3 3.5 0.6 6.9-0.3 3.6-1.5 6-0.3 3.1 1 2.5 1.3 1.2 1.2 1.2 0.2 1.4-1.1 1.9-1.3 1.3-1.1 1.5-0.1 1.7 1.7 1.3-1.1 0.8-1.3 1.1-1.1 1.2-0.5 0.4-0.8 0.2-0.8-0.5-1.1-1.5-0.7-0.4-1.7 0.2-4.8 1.6-1.9-0.2-1.4-1-1.2-1.2-1.1-0.6-0.6-0.2-1-0.8-0.8-0.2-2.3 0.1-0.8-0.1-1.4-0.7-1.2-1.2-2-2.7-1.3-1.1-15.7-5.9-1.4-1-1-1.4-1.2-2.7-0.6-0.4-1.4-0.3-1-0.5-0.6 3.6-1 0.8-2.9 0-1.2 0.2-0.8 0.6-0.7 0.9-1.6 3.2-0.7 1.9-0.4 2 0.6 3.7 0 2-0.4 1.8-0.9 1.2-1.9 2.1-3.3 4.5-2.5 1.3-30.8 0.8-5.2 1.7-12.7 6.9-2 1.6-1.3 2.2-0.4 3.4 1.4 6.7 0.3 3.5-1 2.9-2.6 4.8z" id="TKM359" name="Chardzhou" data-id="TKM359" data-name="Chardzhou">
 </path>
 <path d="M864.3 545.4l-7.5 13.9-1.2 2.8-0.9 3.4-0.2 1.8 0 1.8 0.4 1.8 0.9 3.3 0.2 1.8-0.3 3.5-0.8 3.3-1.2 3-5.6 8.5-1.4 1.8-2.3 1.9-2.4 0.8-5.2 1.3-1.2 0.5-1.1 0.7-0.8 1.1-1.2 3.5-0.7 0.6-0.8-0.3-1.2-0.4-2.9-0.5-2.6 0.5-2.5 1.2-4.6 3.6-0.9 1.1-0.6 1.4 0 1.5 0.7 4.1-0.1 1.1-6.7-2.6-1.9-0.4-2.3 0.3-2.1 0.7-6.6 3.9-2.8 0.7-8.7 0.6-1.4 0.3-1.3 0.7-1 1-1.6 2.3-1.1 0.9-5.7 2.7-6.1 1.3-15.3-0.3-1.5 0.3-1.1 1.1-0.3 1.5 0.5 1.1 0.7 1.1 0.3 1.6 0.5 1.1 3.6 3.2 1 1.4 0.4 0.4 1.8 0.7 0.4 0.4-0.1 0.6-0.4 0.8-1.9 1.4-5.4 1.8-1.9 1.9-0.1 1.2 0.1 4.5 0.3 1 1.1 1 0.3 0.9-0.7 2.7-0.3 3.3-0.5 1.6-0.9 1-1.4 0.3-2.9 0.3-1.4 0.3-4.7 2.3-6.4 5.1-4.7 2.3-1.9 1.8-0.8 1.3-1 0.9-1 0.6-5.1 2.2-1.2 0.3-0.6-0.1-2.1-0.9-0.7 0.1-1.4 0.2-0.8-0.4-4.6-4.3-1.9 0.2-2.3 2.1-6.8 9.3-1.1 0.6-0.8-0.9-1.3-3.1-0.4-1.3 0.1-3.5-0.1-1.5-0.5-1.5-0.7-1.4-1-1.1-3.9-1.7-2-1.3-7.2-7.1-1.8-1.3-2.1-1-4.1-0.1-8.4 3-4.2 0.3-9.5-1.5-4.6-1.8-3.3-3.7-4.5-4.2-0.6-0.2 0.7-0.8 0.8-1.1 0.6-0.6 2.4-1.6 0.6-0.5 2.2-2.5 0.3-0.8 0.2-1.2 0.6-6.5 0.3-0.9 0.5-0.6 1.5-1.5 0.3-0.6-0.7-0.7-1.1-0.7-2.8-3.1-1-0.9-1-1.3-0.4-0.6-1.2-2.4 0-1.1 0.5-1 1-0.8 1.3-0.3 2.2 0 1.3-0.4 1.3-1 0.7-0.3 1.1-1 0.2-0.4-0.2-4.3-0.5-0.6-3.2-0.2-1.5-0.9-0.5-4.5-0.5-51.7-3.3-7.8-16.3-27.4-2.5-4.1-13.1-21.3-0.1-0.6 1-0.3 3.1-0.2 1.5-0.3 1 0 3.1 0.6 1.1 0.5 1.3 1.3 1 1.5 1.7 3 0.7 2.1 0.5 1.9 0 4.4 0.4 0.6 1.4 1.5 1.2 0.6 1 0.3 1.1 0.1 2-0.2 1.7-0.5 1.8-1.2 0.4-0.4 0.9-1.2 0.7-1.2 0.5-1.4 0.3-1 0.1-1.6-0.2-1-0.7-1.5-0.6-0.7-1.2-0.6-3.1-0.7-2.1 0.1-0.4 0.1-2.1 0.9-2 1-0.2-0.1-3.5-6.4-1.1-1.3-0.9-0.4-1-0.2-6.2-0.4-1.4 0.3-1.6-0.1-2.2 0-0.9-0.2-0.8-0.5-5-20.1-0.1-4.6 0.7-2.6 1.4-0.1 1.2-0.5 0.8-1-0.6-2.6-3.5-10-0.2-1.2 0.6-0.5 1.1-0.3 3-0.4 1.2-0.5 0.7-0.8-0.6-1.9-5.6-11.4-2.8-4.2-17.7-18.4-1.3-4-8.7-36.6 3.7 0.4 1.2-0.1 1.1-0.5 0.6-1.4 0.4-1.5 1.5-9.3 0.3-1.4 0.6-1.1 1.2-0.5 4.4-0.7 1.2-0.7 0.7-1.6 0.5-1.5 4.4-24.7 2.2-2.9 9.1-2.8 4.5-1 0.6-1.8 0.9-1.5 0.4-14.3 14 1.2 2.4 2.5 10.8 11.1 13.3 13.8 57.6 61 22.5 24.1 6.3 5.6 7.2 2.7 16.2 6.3 4.7 2.9 24.2 27.6 9.5 11.7 0.8 3.9-9.5 12.4-2.8 4.3-1.2 1.3-2.8 2.4 0.9 40.7 0.5 2.3 2 0.5 16.8-0.1 16.7 0 19.5 0.1 14.3 0.1 16.4-0.1z" id="TKM360" name="Mary" data-id="TKM360" data-name="Mary">
 </path>
 <circle cx="740.6" cy="325.1" id="0">
 </circle>
 <circle cx="711.7" cy="649.7" id="1">
 </circle>
 <circle cx="321.5" cy="376.4" id="2">
 </circle>
</svg>