<?xml version="1.0"?>
<!--
************* Copyright (c) 2017 Pareto Softare, LLC DBA Simplemaps.com *******************		
************* Free for Commercial Use, full terms at  http://simplemaps.com/resources/svg-license ************
************* Attribution is appreciated! http://simplemaps.com ***************************
-->
<svg baseprofile="tiny" fill="#7c7c7c" height="2861" stroke="#ffffff" stroke-linecap="round" stroke-linejoin="round" stroke-width="2" version="1.2" viewbox="0 0 1000 2861" width="1000" xmlns="http://www.w3.org/2000/svg">
 <path d="M5.9 2860l-3.5-1.6-1.4-2.3 0.4-2.1 1.9-0.4 3.7 1.3 2.4 2.2-3.5 2.9z m355.3-522.4l3.6 0.2 22.6-4.5 3.7 1 6.1 4.4 2.5 2.6 1 4.7-5.9 3.9-2.8 3.5 1.7 4.4 4.1 1.7 4-1.8 4-2.9 4.2-1.5 4.9 0.9 7.1 3.9 3.2 1.1 5.9-1.5 2.4-4.5 2.3-5.9 5.7-5.7 4.1-1.9 5.2-1.5 5.3-0.5 4.7 1 4.4 3.3 1.5 3.3-0.4 6.7-3.5 3.7-22.6 16.8-1.5 3.7 0.7 4.6 1.4 4.8 0.7 4.5-1.4 5.1-3.6 2.9-4.5 1.4-4.3 0.8-8.6-2-4.1-3.5-6.4-12.3-5.2-5.1-19-9.5-3 3.2-9.9-5.9-5.6-2.2-5-0.9-3.8-2.2-9.8-13.9-5.7-11.6 3.8-10.3 9.2-7.9 10.5-3.7-5 6.1-6.3 5.5-2.7 5.5 5.8 6.2 4.3 1.8z" id="TON4945" name="Tongatapu" data-id="TON4945" data-name="Tongatapu">
 </path>
 <path d="M630.3 1360.1l-5.4 0.4-4.1-6.8 1.2-6.1 4.6-3.1 6.3 2.5 2.8 5.1-1.4 4.8-4 3.2z m289.4-88.5l-0.4 8.7-3.1 4.2-7.6-8.9-4.3 2.1-2.3 2.5 0.4 3.2 3.4 3.7-3.2 4.2-2.2 4.4-5.6-1.2-3.7 4.3-1.8 7.2 0 7.2-5-2.8-2.8-4.8-2.8-9.9 6.3-2.6 0.4-4.9-2.5-4.8-1.8-2-4.5 3.9-1.3 6.3-1.8 4-6-2.7-0.4 2.3-5.3 0.5-5.2-12.4 7.6-6.3 11.2-6 5.7-11.3 2.8-2.9 6.3-1.6 7.3-0.4 5.4 0.4 6 2.4 5.3 5.8 5 3.6 0.5 4.6z" id="TON4946" name="Vava'u" data-id="TON4946" data-name="Vava'u">
 </path>
 <path d="M994.5 168.1l-5.9 5.7-6.2-0.1-3.3-4.3 0.2-3.1 4.1-3.8 8.4-4 5.2-3.3 2 0.1-0.2 5.7-4.3 7.1z m-753.8-149.7l-8.5 9.4-11.8-1.1-7-8 1.2-8.3 7.8-6.7 12.9-2.7 7.5 5.7-2.1 11.7z" id="TON4947" name="Niuas" data-id="TON4947" data-name="Niuas">
 </path>
 <path d="M573 1970.4l-2 3.2-5.1-1-4.4-3.9 0.7-3 2.4-1.8 9.1-2.1 0.7 2.7-1.4 5.9z m184.9-186.8l-7.6 1.1-5.5-3.4-1.9-2.3-1.3-3 5.4-1.9 4.2-3.8 2.9-5.4 1.6-6.5 6.3 2.1 1.6 1.1-3.2 7.4-0.5 8.4-2 6.2z m-290-16.1l-4.6 8.5-2.5 0-4-3.8-4.6-1.9 0-2.9-4.9-13.2-0.3-4.2 1.4-8.1 2.4-3.4 3.6-0.6 4.9 0.3 6.4 5 2.9 11.6-0.7 12.7z m309.3-13.6l-6.3 0.6-5.8-2.7-1.5-4.7 7-3.9 4-5.6 3.3-5.8 5-5.2 2.1 6.2-1.2 5.5-2.3 5.1-1.3 5.1-3 5.4z m-298.2-27.2l-5.9 1.5-1-4.4 0.9-7.2 3.5-3.4 4.9 4.4-2.4 9.1z m309.3-16.3l-2.1 3.1-6-1.3-4.4-6.3-5.3-10.4-1.8-7.8 6.1 1.3 2 3.6 2 9.3 2.7 1.8 5.2 2.3 1.6 4.4z" id="TON4948" name="Ha'apai" data-id="TON4948" data-name="Ha'apai">
 </path>
 <path d="M521.3 2475.7l-2.6 4.3-6.2-3.7-2.5-6.6-5.1-5.2-11.4-8.7 0-2.9 5.4-3-2.3-4.6-0.4-5.8 2-5 7.9-3.5 2.6-3.3 3.8-7 3.9-9 3.1-4.4 1.4 3.3 2.5 16-0.2 6.4-2.3 15.8 0.4 26.9z" id="TON4949" name="'Eua" data-id="TON4949" data-name="'Eua">
 </path>
 <circle cx="238" cy="4.7" id="0">
 </circle>
 <circle cx="437.9" cy="2400.1" id="1">
 </circle>
 <circle cx="440.2" cy="2361.5" id="2">
 </circle>
</svg>