<?xml version="1.0"?>
<!--
************* Copyright (c) 2017 Pareto Softare, LLC DBA Simplemaps.com *******************		
************* Free for Commercial Use, full terms at  http://simplemaps.com/resources/svg-license ************
************* Attribution is appreciated! http://simplemaps.com ***************************
-->
<svg baseprofile="tiny" fill="#7c7c7c" height="948" stroke="#ffffff" stroke-linecap="round" stroke-linejoin="round" stroke-width="2" version="1.2" viewbox="0 0 1000 948" width="1000" xmlns="http://www.w3.org/2000/svg">
 <path d="M910.3 107.4l-12.4-10.5-10.2-9-17.9-7 6.9-6.9 19.7-13 14-17.2-5.5-11.6 13.4-5 20-4.2 8.4-4.8 8.6-1.6 11.3 6.7 5.2-0.7 13.5-16.1 7.7-5.5 5.3 5.4 0.7 17.9-2.5 22.3-5.3 15.6-7.9-1.9-4.4 0-4.3 10.9-6.3 1.2-7-2.4-7 0.2-1.4 3.2-10.6 14.2-2.5 0.6-16.5 10.2-5.2 4.2-7.8 4.8z" id="TTO50" name="Eastern Tobago" data-id="TTO50" data-name="Eastern Tobago">
 </path>
 <path d="M910.3 107.4l-9-0.1-8.6-1.8-6.7-0.3-42.9 21.8-12.6 3-19.1 16.6-11.9 4.9-5.1-11.6-10.6 5.4-9.9-1.7-5.8-7.1 1.6-11 6-3.1 9.9-1.5 9.2-3.8 4-9.4 7-9.3 60.1-39.6 12.8-12.8 7.3-5.5 9-4.6 9.9-3.7 5.5 11.6-14 17.2-19.7 13-6.9 6.9 17.9 7 10.2 9 12.4 10.5z" id="TTO5090" name="Western Tobago" data-id="TTO5090" data-name="Western Tobago">
 </path>
 <path d="M129.4 477.2l5.6 6.7-1.5 2.4-4.7-2.9-4 0.5-1.8 2.1 1.1 2.4 4.2 2.9-1.6 2.2-5.8-0.1-4 0.6-0.1-2.9 1.5-9.1 1-2.6 3.4-3 6.7 0.8z m41 10.5l-1.8 1.1-6.8-1.3-1.8-1.4 5.4-12.4 5.5-2.2 5.1 0.1 1.2 2.8-0.9 3.4 0.2 4.8-5.3 2.7-0.8 2.4z m126.7 1.8l-10.5-1.6-5.8 0.5-7.6 6.1-2.9 1.3-20.2-9.3-15.2-3.2-36.2-2.5-4.5-1.4-3.5-3.9-4.4-8.4 36.8-25.6 9.6-4 29.1 2.5 32.6-7.7 17.8 0.2 1.5 18.1-4.1 16.7-12.5 22.2z" id="TTO51" name="Diego Martin" data-id="TTO51" data-name="Diego Martin">
 </path>
 <path d="M290.4 804.1l3.1 4.8 19.3 17.1 8.9 5.5 3.6 6.7 2 5.2-0.3 12.4-2.9 13.2-3.3 6.9-8.9 10.5-3.6 6.1-2.6 7.9-3.5 26.8-28.3-4.8-6.7 1.7-20.2 8.1-7.9 0.8-14 3.4-7.1 0.8-10.1-1.6-7-3.7-6.5-4.8-8.1-4.7-13.2-3.9-14.6-1.7-61.5-0.1-16.8 2-12.9 6.2-10.4 8.1-13.8 8.2-14.5 5.6-12.4 0.2-15.2-10.4 6.9-9.8 22.9-12 3.4-2.7 7.8-2.4 23-4.4 4.7-4.5 7.3-10.9 11.1-8.4 11.9-5.8 54.7-16.4 3.3-1.6 2.3 3.1 8.6 13.8 6.8-0.6 8.1-2.7 15.1-12.8 4.3-6 2.8-4.9 6.4-8.9 0.8-3.9-1.9-3.5-5-5.5 0.4-0.3-0.6-21.8 9-4.7 10.7-0.2 36.7 6.3 27.9-1z" id="TTO52" name="Siparia" data-id="TTO52" data-name="Siparia">
 </path>
 <path d="M468.5 538.1l-3.4 0.9-6.2-0.2-6.5-2.1-2.2-2.4 1.1-2.7 3.8-4.1 0.8-4.1 0-5.2 1.6-2.6-0.9-3.9 0.8-6.4 10.1 9.6 1 5 3.1 10.2 0.1 4.3-1.1 2.8-2.1 0.9z" id="TTO53" name="Arima" data-id="TTO53" data-name="Arima">
 </path>
 <path d="M632.6 642.8l-40.3-4.3-72.3 9.5-13.7-3.9-1.1-3.2-0.4-6.2 5.8-16.2 0.2-11.5-5.5-5.8-2.2-5.9-2.1-30.4-2.9-7.8-7.9-6.6 18.3-8.8 7.4-10.2 1.2-5.2 0-5.2-1.5-4.4-5.3-7-2.7-5.2-2.3-11.9 3-10.9 0.3-12.8-0.7-6-3.8-3.3-3-1.5-4.5-0.3-6.6-2.6 1.3-2.8 20.1-2 6.5-2 4-3.1 11.6-13.1 4.6-3.2 6.1-3 4.2-4 0.2-6.4-0.8-6.5-6.8-10-2.8-2.2 11.8-9.1 41.4-5 12.8-5.4 92-10.4 29.5 5.9-30.2 53.2-37.2 46.4-13.2-2.4-8.4 13.8-3.8 21.6 0.8 20.8 13.8 43.9 2.8 21.4-20.5 17.7 0.4 20.3 2.4 13.2z" id="TTO54" name="Sangre Grande" data-id="TTO54" data-name="Sangre Grande">
 </path>
 <path d="M632.6 642.8l7.3 39.8 3.7 9.8 4.7 9.2 12.7 18.9 26.4 18.7-20.5 22.2-9 37.4-0.3 42.1 5.2 36.7-15.3-3.3-17.1 5.2-16.1 10-12.6 10.7-12.5 8.5-16.1 6-31.9 7.7-7.3 0.7-10.2-111.8-11.7-20.6-6.6-8.2-6-1.2-2.6-6.1-4.6-3.2-5.1-16.2 10.2-14.9 5.7-19.7 4.3-41.3 3.3-14.3 9.4-17.6 72.3-9.5 40.3 4.3z" id="TTO55" name="Rio Claro-Mayaro" data-id="TTO55" data-name="Rio Claro-Mayaro">
 </path>
 <path d="M369.2 568.6l-22.2 1-13.9 19.4-1.1 0 0-14.5-7.2-26.5-17-21.7 5.3-4.5-4.9-3.3 2.9-15.1-3.9-8.5-10.1-5.4 12.5-22.2 4.1-16.7-1.5-18.1 3.1 0.1 8.9-4.1 5.4-7.2 3.6-3 3.7 8.9 5.3 0 0-9.9 4.3 0 0.5 3.7 4.8 6.2-5.3 5.4 5.9-1.4 4.2-3.4 4.5-5.1 13.6-0.4 1.4 0.4 5.8-5.3 13.4-15.9 4.5-3.9 9.9-0.8 2.3 4.6 5.3 18.1 5.8 11.9-0.8 8.1-4.5 5.4-4.2 1.3-12.3-2.9-5.2-0.3-5.2 1.4-4.6 0.5-18.9-2.7-6.1 1.8-4 7.2-1.4 12.6 5 31.7-0.2 18 8.5 55.1z" id="TTO56" name="San Juan-Laventille" data-id="TTO56" data-name="San Juan-Laventille">
 </path>
 <path d="M487.1 755.8l5.1 16.2 4.6 3.2 2.6 6.1 6 1.2 6.6 8.2 11.7 20.6 10.2 111.8-10 1-43.5-7.1-15.6 1.4-45.2 8.9-28.7-2.5 4.5-104.3-5.6-7.5-7.8-7.1-35.3-15.4 9.7-36.8 14.2-1.5 24.2-10.2 23.8-4.6 20.3-0.4 12.4 2.1 9 2.4 6.1 2.9 5.7 1.7 8.7 3.7 6.3 6z" id="TTO57" name="Princes Town" data-id="TTO57" data-name="Princes Town">
 </path>
 <path d="M520 648l-9.4 17.6-3.3 14.3-4.3 41.3-5.7 19.7-10.2 14.9-6.3-6-8.7-3.7-5.7-1.7-6.1-2.9-9-2.4-12.4-2.1-20.3 0.4-23.8 4.6-24.2 10.2-14.2 1.5-18.9 1.2-3.7-1-1.1-6.7-3.6-11.7-1.9-13.5-1.3-3.9-6.2-5.3-2.2-3.1-0.3-4 4.3-1.5 1.3-2.1-0.7-5.7-4.2-14.1-2.6-4.9-1.6-10.4 4.1-14.3 9.4-22.4 4.7-27.4 0-2.7 10 1 4.6 1.2 5.3 3.4 6.7 1.3 5.4 4.5 8.6 2.7 18.2-1.4 4.9-4.5 0.9-7.2 4.8-16.7-3.2-15.3 3.1-5.7 3.5 0 6.9 1.5 8.9-0.5 8.8-4 10-2.3 30.6-1.3 20.3-6.4 7.9 6.6 2.9 7.8 2.1 30.4 2.2 5.9 5.5 5.8-0.2 11.5-5.8 16.2 0.4 6.2 1.1 3.2 13.7 3.9z" id="TTO58" name="Couva-Tabaquite-Talparo" data-id="TTO58" data-name="Couva-Tabaquite-Talparo">
 </path>
 <path d="M390.9 924.8l-27.2-2.4-60.7 4.9-0.8-0.1 3.5-26.8 2.6-7.9 3.6-6.1 8.9-10.5 3.3-6.9 2.9-13.2 0.3-12.4-2-5.2-3.6-6.7-8.9-5.5-19.3-17.1-3.1-4.8 10.1-0.4 8-3.1 3.8-3.1 0.8 0.9 33.6-7.9 35.3 15.4 7.8 7.1 5.6 7.5-4.5 104.3z" id="TTO59" name="Penal-Debe" data-id="TTO59" data-name="Penal-Debe">
 </path>
 <path d="M158 857.7l27.2-13.1 21.1-18.8 5 5.5 1.9 3.5-0.8 3.9-6.4 8.9-2.8 4.9-4.3 6-15.1 12.8-8.1 2.7-6.8 0.6-8.6-13.8-2.3-3.1z" id="TTO60" name="Point Fortin" data-id="TTO60" data-name="Point Fortin">
 </path>
 <path d="M538.2 396.9l2.8 2.2 6.8 10 0.8 6.5-0.2 6.4-4.2 4-6.1 3-4.6 3.2-11.6 13.1-4 3.1-6.5 2-20.1 2-1.3 2.8 6.6 2.6 4.5 0.3 3 1.5 3.8 3.3 0.7 6-0.3 12.8-3 10.9 2.3 11.9 2.7 5.2 5.3 7 1.5 4.4 0 5.2-1.2 5.2-7.4 10.2-18.3 8.8-20.3 6.4-30.6 1.3-10 2.3-8.8 4-8.9 0.5-6.9-1.5-3.5 0-3.1 5.7-28.9-0.6-8.5-55.1 0.2-18-5-31.7 1.4-12.6 4-7.2 6.1-1.8 18.9 2.7 4.6-0.5 5.2-1.4 5.2 0.3 12.3 2.9 4.2-1.3 4.5-5.4 0.8-8.1-5.8-11.9-5.3-18.1-2.3-4.6 2.5-0.2 37.6 4.6 82.3 0.3 6.1-4.6z m-69.7 141.2l2.1-0.9 1.1-2.8-0.1-4.3-3.1-10.2-1-5-10.1-9.6-0.8 6.4 0.9 3.9-1.6 2.6 0 5.2-0.8 4.1-3.8 4.1-1.1 2.7 2.2 2.4 6.5 2.1 6.2 0.2 3.4-0.9z" id="TTO61" name="Tunapuna/Piarco" data-id="TTO61" data-name="Tunapuna/Piarco">
 </path>
 <path d="M346.7 790.5l-33.6 7.9-0.8-0.9 5.7-4.6 8.6-9.8 5.4-9.4 2.7-14.4-0.9-5.4 3.7 1 18.9-1.2-9.7 36.8z" id="TTO62" name="San Fernando" data-id="TTO62" data-name="San Fernando">
 </path>
 <path d="M398.1 569.2l3.2 15.3-4.8 16.7-0.9 7.2-4.9 4.5-18.2 1.4-8.6-2.7-5.4-4.5-6.7-1.3-5.3-3.4-4.6-1.2-10-1 0.1-11.2 1.1 0 13.9-19.4 22.2-1 28.9 0.6z" id="TTO63" name="Chaguanas" data-id="TTO63" data-name="Chaguanas">
 </path>
 <path d="M297.1 489.5l10.1 5.4 3.9 8.5-2.9 15.1-23.5-16.1-14.4-6.6 2.9-1.3 7.6-6.1 5.8-0.5 10.5 1.6z" id="TTO64" name="Port of Spain" data-id="TTO64" data-name="Port of Spain">
 </path>
 <circle cx="698.7" cy="405.7" id="0">
 </circle>
 <circle cx="794.1" cy="139.6" id="1">
 </circle>
 <circle cx="693" cy="405.6" id="2">
 </circle>
</svg>