<?xml version="1.0"?>
<!--
************* Copyright (c) 2017 Pareto Softare, LLC DBA Simplemaps.com *******************		
************* Free for Commercial Use, full terms at  http://simplemaps.com/resources/svg-license ************
************* Attribution is appreciated! http://simplemaps.com ***************************
-->
<svg baseprofile="tiny" fill="#7c7c7c" height="998" stroke="#ffffff" stroke-linecap="round" stroke-linejoin="round" stroke-width="2" version="1.2" viewbox="0 0 1000 998" width="1000" xmlns="http://www.w3.org/2000/svg">
 <path d="M358.8 550.5l2.8 2.4 2.1 3 1.2 4.8 0.8 5.1 2.2 3.7 3.9 1.5 3.2 3.1 2.2 4.1 1.4 2.1 1.8 1.9 5.3 1.6 1.2 2.1 0.3 2.5 1.6 3.9 0.3 3.8 1.5 0.9 1.9 0.5 3.8 2.7 4.2 1.9 2.3 1.6 1.5 1.7-1.3 2.5-1.8 2.3-2.6 5.9-2.1 3.6-2.4 3.3-1.7 3.5-0.8 3.8 1.3 2.7 3.5 0.4 42.8-2.1 4.7 0.4 13.6 3.2 3.4 2.4 3.9 1.3 24.9 3.9 0.9 2.9-0.3 2.4 2.5 0.4 4.4-0.4 4.2 1.5 2.5 2.6-2.2 3-4.1 3.2-5 1.5-2.2 2.7-3.4 7.7-2.4 4.1-3.2 2.5-3.9 1.3-3.4 3.1-2.6 4-1.9 3.9 1.5 3.8 1.9 2.9 1.5 3.2-1 6-2.4 6.1-2 1.4-3-0.3-3.5 1.2-2.9 2.1-2.4 4.9-3.3 3.4-4.2 1.7-4.8 0.1-8.8-1.2-9.2 2.2-5.2 0.1-5.4-0.5-4.7 2-0.9 2.6-2.6 0.9-6.8-2.4-5 1-3.8 3.4-5.2 8.7 0.5 4.4 3 3.5 2.2 4 1.5 4.2-1.9 1-0.5 2 3.1 0.7 1 1.2 0.2 2.9 2.1 2.7 5 8.7 2.8 3.9 1.7 0.7 1.9 0.3 3.7 3.7-0.4 3-2.8-1.9-3.2-1.1-1.5 1.3-1.1 1.3-2.2 1.8-1.4 2.3 1.7 4.2-0.1 1.6-0.7 2.8 0 1.8-0.4 1.2-0.7 0.9-1.4 0.9 0 0.7-1.5 1.6-1.1-0.8-1-1.8-2.2-1.9-2.6-1.6-2.1-0.9-2.4-1.5-2.4-2.4-2.5-1.6-2.9 0.8-2.5 1.4-2.3 0.3-2.5-0.4-2.8-0.9-3.1-0.3-2.2 0.9-2.2 1.3-2.8 0.7-3.9-0.3-1.7-0.5-1.5-1-1.1-1.8-1.5-3.4-1.7-1.7-5.2-3.6-1.7-0.6-0.8 0.1-1.4 1-0.8 0.2-1.1-0.1-1.9-0.5-1.3 0-0.6 0.3-1.3 1-0.8 0.3-3.1-1.3-2.4-0.5-0.9-0.4-5.6-4.4-4.6-4.6-1.6-0.9-1.8 0.1-1.8 0.9-1.4 1.5-1.4-0.9-6.9-2.6-4.2-2.9-0.7-0.1-1.6 0.2-0.7-0.3-0.5-0.7-0.3-1.4-0.3-0.7-1.3-1.4-1.2-0.6-6.6-0.5-7.9-1.8-3.4-0.3-1.3-0.8-1.3-2-1.8-4.3-1-1.3-3.3-2.2-3.7-0.9-12 0.2-2-0.3-1.8-0.6-1.8-1.4-3.4-3.4-0.9-0.5 0.1-0.6-0.9-5.5 0.9-1.1 1.5-0.2-1.2-3.8-3.6-3.3-2-1.5-1.7-1.8 1.9-2.7-3.3-3.4-4.2-2.9 1.9-3.7 11.5-4.1 5.3-3.2 6.9-8.8 0.4-10.5-1.6-5.1 0.3-5.3 3.4-4 5.6-0.2 11.6-7.9 2.4 1.1 0.4 1.9-0.4 2.8 1.4 2.3 0.1 2.7 0.4 2.7 7.7 9.8 3.8 0.3 3.6-0.5 3.4 0.7-0.7-6.1-21.2-28.5-4.4-4.3-17-11.4-24.7-13-1.6-3.3 2.5-7.9 3.6-7.5 3.2-4.9 9.5-3.7 3.3-6.5 3.7-10.1 0-9.8 21-7.3 4.7-2.6 6.4 0.2 6.2-1.1 2.4-1.8 5.9-9.5 1.1-2.3 2.3-1 4 0.5 3.1-2 2.2-2 2.9-1.1 7.9-1.8 7.5 2.2 6.4 4.3 7.4 1.7 20-1.2z" id="TZA3335" name="Mbeya" data-id="TZA3335" data-name="Mbeya">
 </path>
 <path d="M223.2 629l24.7 13 17 11.4 4.4 4.3 21.2 28.5 0.7 6.1-3.4-0.7-3.6 0.5-3.8-0.3-7.7-9.8-0.4-2.7-0.1-2.7-1.4-2.3 0.4-2.8-0.4-1.9-2.4-1.1-11.6 7.9-5.6 0.2-3.4 4-0.3 5.3 1.6 5.1-0.4 10.5-6.9 8.8-5.3 3.2-11.5 4.1-1.9 3.7 4.2 2.9 3.3 3.4-1.9 2.7 1.7 1.8 2 1.5 3.6 3.3 1.2 3.8-1.5 0.2-0.9 1.1 0.9 5.5-0.1 0.6-1-0.5-0.8-0.1-1.8 0.4-0.9 0.1-0.9-0.3-2.7-1.5-2.3-0.3-1.5 0.6-1.3 1-1.9 0.8-3.9-1-1.9-3.6 0-4.6 1.7-3.8-13.7-3.8-2.1 0.2-3.1 1.7-1.9 0.7-1.9 0-1.5-0.6-8.9-6.8-2.1-2.9-0.7-4 0-3.5-0.6-2.3-1.9-1.6-3.5-1-1.4-0.9-2-2.3-1.5-0.7-1.4-0.1-1.2 0.1-1.2-0.1-1.2-0.8-0.3-0.7-0.3-1.7-0.4-0.6-0.8-0.4-0.5 0.4-1.7 0.5-4.8 1.7-1.5 0.8-1.2-0.2-1-0.8-1.7-2.3-1.1-0.7-2.2 0-1.5 0.7 0-0.2 0.2-2.7-0.2-1-1-0.4-1.8-1.6-0.1-3.5 1-5.7-1.7-3-5.5-3.5-1.6-2.5-0.7 0.7-1-1.2-1.1-2.7-1-1.2-1.3-0.7-1.2-0.4-0.9-0.8-0.4-1.6 0.2-1.5-0.2-0.7-1-1.5-0.4-1.8-0.6-0.8-0.2-1 0.3-1.4 0.7 0 0.5 1.3 0.5-1.6-0.3-1.7-0.6-1.7-0.8-1.3-1.9 1.2-0.9-1.5-0.6-1.9-0.3-3.9-0.3-1.2-1.9-2.9-1-1.3-2-1.6-0.8-1-0.7-3.3-0.9-1.2-2.2-2.1-5-14.3-1.1-0.6-0.6-1.3-0.6-1.5-0.5-1.1-1-0.7-2.5-1.2-1-0.7-0.6-1.3-0.5-1.7-0.8-1.4-1.6-0.7-0.4-1.1-3.7-6.4 1.5-3.2 0.5-1.8-1-0.8 0-0.8 1.3-4.4 0.2-1.7-0.5-3.6-3.9-8.5-1-3.3-0.5-0.5-1.2-0.5-0.2-0.9 0.4-1.5-0.3-1.7-1-1.6-1.2-1.3-1.3-0.8 0.7-1.1 0.4 0.1 1.2 1 2.5 0 1.3-0.8 0.1-1.8-0.4-2.1-0.1-1.7 0.4-0.6 1.2-1.1 0.3-0.5 0-3.8-1.2-1.9 1.3-0.9 10-3.1 20.1-1 8 3.1 4 12.1 0 8 4 6.1 13 1 15 1 5 6.1 1 10.1 2 14.1 2 13.2 12 2 15.1 2 20.5 3.5z" id="TZA3336" name="Rukwa" data-id="TZA3336" data-name="Rukwa">
 </path>
 <path d="M894.1 485.9l-0.4-2.4-1.6-1.7-0.9-2.1-0.2-2.4 0.6-7.2-0.5-1.9-0.1-1.8 6.6-0.5 4.1-2.6 0.1 0.1 1 4.3 0.6 0.3 1.9 0.3 0.2 1.2-0.6 2.3-0.2 1.3 0 1.4 0.2 1.2 0.4 1 0.6 1.1-1.5 2.1-0.4 1.1 1.4-0.6 0.8 0.6 0.7 1 0.9 0.8 0.1-1.3 0.6-0.9 0.7-0.1 0.5 1.1 0.6-0.6 1.5 0.4 0-2-0.4-2.7 0.2-2 1.6 2.1 0.8 2.6 1.7 13.5 0.4 0.9 2.4 4.4-0.4 4-2.3 2.7-3.3 1.1-3.4-1-1.3-1.1-1.3-1.7-0.9-1.8-1.8-7.9 0.2-1.4-2 0.6 0 1 0.9 1.3 0.5 1.2-0.1 2.1-0.4 0.5-2.6-1 0.4-1.7-0.5-1.5-2.4-2.5-2.9-4.5-0.8-0.7z" id="TZA3337" name="Zanzibar South and Central" data-id="TZA3337" data-name="Zanzibar South and Central">
 </path>
 <path d="M262.5 119.8l0.8 0.6 0.8 0 0.6-1.1 0.6 0-0.3 3.9 0.9 1 2.5-0.3-0.3-0.8-0.3-2.5 1.6 0.2 1-0.5 0.8 0.1 0.4 2.2-0.5 1.8-1 1.5-0.8 1.5 0.7 2.2-1.2 1.2-1.3 0.7-1-0.2-0.8 0.9-0.9 0.6-1 0.2-1-0.4-0.6-1.5-0.2-1.9-0.5-1.5-1.6-0.7-0.2-1.2 2.4-7 0.4 1z m99.1 15.8l7 8.2 4 4 3.4 2.9 4.2 2 4.2 2.5 2.2 4.2-0.3 2.7-1.8 1.8-1.9-0.1-1.6 0.6-3.5 2.8-6.3-1.9-2.5 1.7-2.2 0.6-1.6 1.4-1.4 1.7-2.2 0.5-1.3 2.4 2.9 10.3-0.8 3.7-2.7 8-0.6 4.4-1.2 2.8-2.3 2.2-2.2 6.6-5.1 3.1-3.6 1-3.9 0.6-3.5-0.9-3.1 1.2-3.5 6.8-6.1 2.8-2.2-1.2-1.8-1.8-1.7-0.8-1.9-0.2-2.8-1.5-3-0.9-2.5-1.9-1.5-3.4-2.5-2.5-2.9-2.1-2.7 0.5-3 1-2.4-0.7-1.8 1.1-1.4 2.9-2.7 1.3-2.7-0.2-0.6 2.6-1.3 3.4 0.4 2.9 2.2 0.4-0.1 2.6-3.5-0.2-7.3-4.5-3.3-2.4 0-4.7 0.7-5.2-0.8-3.4-2-2.7 7.9-21.9-8-6.7 2.3-7-16-9.3 4.9-9.4-15.5-2.6-2.9-3.8-4.7-1.6 1-0.9-0.6-1.4-0.9-0.7-1-0.6-1.5-1.1-2-0.9-0.3-0.6-0.2-1.1-0.4-0.6-0.9-0.3-1-0.2-0.9-0.5-0.4-1.1 0.3-2.5 0.3-1 0.7-0.7 0.4 0.2 3.4 0.2 0.4 1 0.9 0.6 1.2 0.2 1.2-0.2 1.7-1.7 2.3-4.5 1.7 0 0.3-3-0.1-1.5-0.9-0.9 0-0.6 0.5-0.5 0.8 0.1 0.3 0.4 0.6 1.6 0.4 0.5 1.5 0.4 1.1-0.3 1-0.5 1.1-0.3 1.5 0 1.8 4.1 0.8 0.7 1.6 0.3 0.1 0.6-1 0.4-1.4-0.4-0.6 0.1-0.3 1.8 1.6 2.3 2.2 2.3-0.3 1.1 1.2 1.5 2.2 0.4 4.2-0.1-0.7 2 2-0.1 1.8 0.6 0.8-0.7 0.8 0.1 1.6 1.3 0.7-0.9 1.9-1.3 0.5-1 0.7 0 0.2 1.4 0 1.5-0.4 1.4-0.8 1.2-1.6 1.3-0.6 0.8-1.3 2.6 2.1 0.6 2.3-1.3 6.9-6.6 0.5-1.2 0.2-2 0.2-0.9 0.7-1.6 0.8-1.5 0.8-0.8 0.6 2 0 1.5 0.3 1.5 1.3 1.8 1 1.8-0.4 1.5-0.9 1.3-0.6 1.3 1.2-0.6 3.8-2.5 0.6 0.7-0.2 0.6 0.2 1.9 0 1.2 1.1-0.8 1.4-2.2 1.3-0.7 1.1 0.3 1.6-0.9 0.8 0.3 1.3 1.9 0.9 0.2 0 0.6-0.7 1.1-0.9 0.9-0.8 0.9-0.1 1.6 1-0.3 0.7 0.3 0.4 0.8 0.4 1.1-2 0.2 0 1.3 0.5 1.8-0.4 1.8-0.5-0.3-1.4-0.4 0.5 1.6 0.8 1.5 0.6-0.4 0.8 0.1 1.7 1-1.6 1.5-0.4 1.2 1 0.8 2.6 0.3 1 1-0.6 2.4-2 3.5 0 1.2 0.3 1 0 0.7-3.9 0.8-1.1 0.1-1.1 0.2-3 1.7-2.1 0.7-0.5 0.7 0.7 1.2 1.6-0.5 1.8 0.8 2.9 2.2 0 0.6-2.5 0.2-0.7 0.9 0.1 1.2-0.4 1.1-0.9 1.4-0.3 1.5 0.2 1.4 0.7 1.1 0.7 0 0.7-1.2 3-2.6 0.6-0.9 1.4-3.5-0.3-1.2 0.3-2 0.7-2 0.8-1.4 1.8-1.1 1.5-0.7 1.3-0.9 0.7-2 0.7 0 0.1 2.2 0.9 1.5 1.5 1 5.3 2.5 1.8 0.5 1.1-0.1 0.5-0.6-0.1-1.4-0.4-0.6-1.2-0.8-0.9 0-0.8 0.3-0.8-0.1-1.3-0.6 0-1.9-0.8-0.2-3 0.2 0.8-1.7 1.1-0.8 0.6-0.7-0.6-1.3-2-0.9-0.9-0.8-0.9-2.1-2.5-2.4 0.1-1.3 0.7-0.3 1 0.2 1-1-1-1.5-2.1-1.5-0.6-1.1-0.4-1.5 0-1.5 1-0.7 0.1-0.7 2.2-3 0.5-0.4-0.5-1.6-2.1-2.3-0.5-1.1 0.2-1.6 0.6-1 1-0.2 1.3 0.5-0.3-2.9 2.1-2.7 3.4-1.9 3.3-0.8 7.5 0.8 3.6 1.1-0.1 1.4 0.8 1.2 1 2.2 0.8 0.9 2.1 0.6 0.4 0.4-0.1 1.4 1.1 0.6 2.1 1.6 1.2 0.5 1.2 0 4.8-0.6 2.2-0.6 1.2 0.9 0.6 0.2 0.4-1.3 1-0.7 0.6 0.3 0.2 0.5-0.2 0.9-0.6 1 1.1 0.6 1.5 0.1 1.8-0.3 0.1 1.4 0.5 0.7 1 0.3 1.6-0.2-0.6-1.3 0.1-0.6 0.5-0.7 1.1 0.6 1-0.4 0.8-1 0.2-1.3-0.5-0.7-3.2-1.5-1.2-0.9 0.8-0.1 2.4-1.4 2.1-0.7 0.9-0.8 1.7 1.2 2 0z m-135.1-18.5l0.5 0.5-0.6 1.5-0.1 0.9 0.6 0 0.9-1.3 0.7 0.2 0.3 1-0.1 1.4-1.8 4.4-1.2 0.9-1.5 0.6-1.6 0.4-1.4 0-1 0.5-0.7-2.2-0.4-0.2-1 0.6 0.5-1.2 1.3-1.1 1-1.3-0.4-1.4-0.8-0.3-1.9 0.2-0.4-0.6 0.4-0.8 0.8-0.5 1.3-0.5 1.7-1 1.5-1.1 1.5-0.9 1.7-0.2 0.2 1.5z m117.7-10.8l-1.5-0.8-1.4-0.5 1.5 0.5 1.4 0.8z m-10.8-2.4l0.8-1.3 0.3-0.9-0.3 1-0.8 1.2z m7.1-4.4l-0.5-0.3-2.3-0.7 2.3 0.6 0.5 0.4z m24.6-3.2l0.3-0.6 0.7-0.8-1 1.4z m-22.8-10.4l0.4-0.3 0-0.7 0.1 0.7-0.5 0.3z m-34 2.6l-0.4 1 0.9 1.4 4.7 2.6 2.8-1 0.4-0.6 0.8 0 1 0.3 4.6-1.1 0.8 0.2 0.4 1.3 0.7 1.3 0.2 1.5-1.8 2.9 0.8 0.7 3.5 0.8 0 0.7-1.1 0.6 0.8 1.3 2.7 2.5 1.2 0.2 0.1 0.7-0.2 1.2-0.4 1-1.2-0.1-0.4 0.6 0.9 1.4-2.9-0.2-1.9-1.4-1.7-1.6-2.2-1.2-0.4 1-0.7 0.6-1 0.2-1.2-0.5-4.3-3.4-1.6-0.5-4.6-0.1-2.2-0.6-2-1.5-1-0.3-0.9 0.4-0.8 0.1-0.8-1.1 0-0.8 0.5-0.9 3.4-3.5 0.9-1.2 0.2-1.2-0.7-0.2-3.7-0.4-0.4-1-1.4-1.5-0.6-1.3 1.5 0.2 0.5 0.3 0.4 0.8 1.5-0.8 1.1-0.7 1.8-1.6 1.2-1.2 0.8-0.1 2 0.8 0.5 0.5-0.3 1.5-0.8 1z m14.8-11.9l-0.3 0.8-1.4-0.3 0.3 0.8 0.9 1.4-0.1 1.1-1.8 1.9-3.1 2.4-0.3-0.4-1-0.3-1.7-1.7-0.7-1 0.6-0.9-0.1-1-0.6-1.7 1.2 0-0.3-1.3 0.9-0.4 3.3-0.1 1.9-0.4 1.1 0 0.7 0.4 0.5 0.7z" id="TZA3357" name="Mwanza" data-id="TZA3357" data-name="Mwanza">
 </path>
 <path d="M353.1 211.6l4.7 0.6 4.4 3.9 6.6 6.1 8 3.9 4.7 1.2 3.4-0.7 3.1-1.7 2.7 1.2 2.7 5.1 4.4 2.7 6.8 0.7 8.5 0.3 7.6 2.2 2.9 4.9 3.2 10.5 3.9 9 5.1 6.6 3.9 3.7 4.4 3.1-2.4 2.5-5.5 1.5-3.5 3-2.7-0.4-2.1 1.2-1.2 2.2-2.5 0.1-3.2-1.3-3.3-0.3-1.8-0.5-1.4-1.3-1.8-0.8-2.1 0.7-2.9-0.1-3.1-0.8-2.5-1.8-1.8-2.5-2.5-1.6-2.9-0.3-5.5-0.2-6.9-2.4-3.1 0.1-3.1 0.5-1.8-1.4-0.4-2.4-5.2-1.2-5.3 1.4-2.5 0.9-6.3 0-5.1-1.3-10.6 2.5-8.2 3.9-4.9 0.2-5.5-0.4-4.1-3.5-3.8-1.3-4.4 1.9-6.5-1.4-1.6 0.8-1.3 1.3-6 2.6-5 1.7 1 5.2-1.3 5.1-2.2 0.3-1.1 1.7-1.6 1.4-0.6 1.6 1.6 1.9 1.8 1.6 4.1 1.4-1.7 4.9-8.9 2.7-2.2 0.1-0.1-1.6 0.1-1.7-1-2.6-1.8-1.9-3-1.4-3.2 2-2.5 0.4-1.4 2.4-0.6 3.6 0.6 3.5-0.3 2-1.5 1.1-2.3 2.9-3.3 0.7-3.7-1.7-3.5-2.2-7.5-2.3-7.6 1.5-7.6 5.7-6.8 3.2 0.7-3.5 0.2-3.8-1.3-4.6-0.4-4.7 0.3-5-0.7-4.8-2.7-2.5-3.1-2.3-8.1-1.7-10.8-3.3-1.2-6.4 1.2-5.8 5.2-7.8 8.1-7.2 9.7-4.5 9.4-1.3 8.4-0.6 1.3-7.2-1.6-9.1-1.3-9.3 1.9-6.2 4-5.1 2.8-2.3 3.6-1 2.7 1.9 0.8 3.4 2.4 2 2.9 0.3 1.5-3.1 2.1-2.5 2.8-2.2 5.7-2.8 3-0.6 2 2.7 0.8 3.4-0.7 5.2 0 4.7 3.3 2.4 7.3 4.5 3.5 0.2 0.1-2.6-2.2-0.4-0.4-2.9 1.3-3.4 0.6-2.6 2.7 0.2 2.7-1.3 1.4-2.9 1.8-1.1 2.4 0.7 3-1 2.7-0.5 2.9 2.1 2.5 2.5 1.5 3.4 2.5 1.9 3 0.9 2.8 1.5 1.9 0.2 1.7 0.8 1.8 1.8 2.2 1.2 6.1-2.8 3.5-6.8 3.1-1.2 3.5 0.9 3.9-0.6 3.6-1 5.1-3.1z" id="TZA3358" name="Shinyanga" data-id="TZA3358" data-name="Shinyanga">
 </path>
 <path d="M432.7 281.9l-0.4 4-0.7 1.7-0.9 1.5-0.7 2.9-2.9 0.3-2.9-1-2.1 1.8-4.8 8.2-3.9 8.5-11 14.2-1.9 8.4 1 7.8 0.2 7.9-3.3 8.9 0 4.7 1.6 4.4 0.8 3.6-2.6 7.2 0.5 3.9 0.9 3.9 2.7 2.7 4.7 1.8 4.1 2.4 3 2.4 3.1 2.1 8.2 8.2 2 2.5-2.6 4-3.4 3.5-6 5.1-4.1 6.2 2.1 2.4 2.7 2.1 0.3 4.1-1.9 3.9-2.5 2-0.5 1.6-0.2 1.8-0.1 8.1-4.8 18-0.3 7.7 1.1 3.2 0.3 3-6.3 4.7-5.4 4.5-3.2 5.2-1 0.8-2.3 0.4-2 0.8-3.6 2.6-9.4 9.6-6.6 2.5-1.4 0.8-4.4 5.2 0.9 2.1-0.6 9.8 0.6 9.8-4 8.2-20 1.2-7.4-1.7-6.4-4.3-7.5-2.2-7.9 1.8-2.9 1.1-2.2 2-3.1 2-4-0.5-2.3 1-1.1 2.3-5.9 9.5-2.4 1.8-6.2 1.1-6.4-0.2 2.1-9.3 1-9.5-0.6-9.6 0.5-9.6 2.6-8.6 5.5-6.9 2.5-1.5 1.9-2.4 0.9-1.6 0.5-1.8-0.7-1.3-0.8-1.3-0.4-1.9-1.6-0.9-13.4-1.2-3.8-1.4-2.8-2.9-3.3-5.3-1.4-1.4-0.9-0.4-2-0.3-1.8-1.3-3.2-1.4-1.5-1.2-0.9-1.4 0-1.9-0.6-0.5-1.1-0.2-1.8-1.2-4.8-2.5-2.2-1.8-2.3-2.6-2.2-3.1-1.5-3.4-1.7-6.2-1.1-1.7-0.6-1.5 0-4.6-0.3-1.8-0.7-0.7-1.7-1.6-0.8-0.9-1-2.8-0.5-0.3-2-0.3-5.3-1.6 0-0.7-1.4 0.8-1.6-0.1-4.3-0.8-2.1-1.1-1.1 0.5-0.5-0.2-1.4-1.4-0.5-0.2-2.7 0.6-2.1 1.4-1.8 1.6-1.9 1.5-1.9 0.8-0.7 0.4-1 1-0.5 0.9-1.2 0.3-3.5 1.4-1 0.6-0.9 0.1-6.9-2.1-1 0.2-1 1.5-1.4-1-1.5 0.1-1.8 0.5-1.8 0.4-2.1-0.3-1.8-0.8-3.4-2.1-1.7 0.6-3.8-0.4-1.7 0.7-1.7 0.4-1.3-1.4-1.8-3.2-1.8-0.6-1.9 0.3-1.8 0.7-1.8 0.3-1.2-0.2-0.2-0.7 0.5-1.3-0.6-1.9 0.6-2.1-0.4-1.5-0.8-1.7 0.3-1.3-0.3-0.6-0.4-0.2-1.3 0.1-0.5-0.2-6.1-4.7-0.8-0.4-0.6-1.5-0.3-1.1 0.1-1.1 2.6-1.4 0.2-2.3 7.2-1.9 6.6-1.5 1.7-3.2-3.4-14.7 0.8-10.7 4.4-12.4-0.4-2.5-1.1-1.4-0.5-1.6 0.5-0.3 4.6-3.5 2.1-0.7 0.7-0.4 0.4-0.6 0.3-1.5 0.4-0.6 1.6-1 4.2-2 0.8-1.1-1-9.7 0.5-1.6 1.7-1.2 5.1-1.9 0.8-0.9 1.5-4.2-1.7-7-0.8-6.9-1.1-2.3-2.6 0.3-0.6-4.2-0.1-4.3 2.1-3.2 1-3.9 2.3-3 3.8-1 8.9 1 6.3-3.2-0.5-2.6-1.1-2.4-1.8-1.1-0.7-1.7 1.3-2.8 3.6-5.5 10.8 3.3 8.1 1.7 3.1 2.3 2.7 2.5 0.7 4.8-0.3 5 0.4 4.7 1.3 4.6-0.2 3.8-0.7 3.5 6.8-3.2 7.6-5.7 7.6-1.5 7.5 2.3 3.5 2.2 3.7 1.7 3.3-0.7 2.3-2.9 1.5-1.1 0.3-2-0.6-3.5 0.6-3.6 1.4-2.4 2.5-0.4 3.2-2 3 1.4 1.8 1.9 1 2.6-0.1 1.7 0.1 1.6 2.2-0.1 8.9-2.7 1.7-4.9-4.1-1.4-1.8-1.6-1.6-1.9 0.6-1.6 1.6-1.4 1.1-1.7 2.2-0.3 1.3-5.1-1-5.2 5-1.7 6-2.6 1.3-1.3 1.6-0.8 6.5 1.4 4.4-1.9 3.8 1.3 4.1 3.5 5.5 0.4 4.9-0.2 8.2-3.9 10.6-2.5 5.1 1.3 6.3 0 2.5-0.9 5.3-1.4 5.2 1.2 0.4 2.4 1.8 1.4 3.1-0.5 3.1-0.1 6.9 2.4 5.5 0.2 2.9 0.3 2.5 1.6 1.8 2.5 2.5 1.8 3.1 0.8 2.9 0.1 2.1-0.7 1.8 0.8 1.4 1.3 1.8 0.5 3.3 0.3 3.2 1.3 2.5-0.1 1.2-2.2 2.1-1.2 2.7 0.4z" id="TZA3359" name="Tabora" data-id="TZA3359" data-name="Tabora">
 </path>
 <path d="M204.1 107.7l-0.4 0.6-1.1-0.4-1.6-1.1-0.4-1.3 0-1.3 0.4-1.3 0.7-1.2 0.6 0.7-0.1 1.3 0.3 1.2 0.8 0.9 2.8 0.5-0.3 0.6-1.7 0.8z m3.5-32.2l-2.8 2.2 0.5-1.7 1-1.2 0.9-1.2 0.2-2.1 0.6 0.1 0.6 0.5-0.2 2-0.8 1.4z m7.3-15.4l1.2 1.4 0.4 0.7 0.3 1-3.8-2.5-0.1 2.6-0.9 2.6-2.8 4.9 0.8-4.9 0.5-0.1 0-3.4-0.4-1.6-0.9-1.3 2.8-1 2.9 1.6z m-26.3 67l-6.4-0.2-18.4-8.1-4.2-0.7-4.9 1.6-6.1 1-2.9-0.6-13.6 23.3-10 4.8-3.3 9.1 4.2 4.5 4.6 3.9 1.1 5.8-9.1 8.3-1.7 2.4-1.8 2-2.4 1.3 0.6-1.1-2.2 0-4.3 1.2-2.1 0.2-1.2-0.4-2.1-1.4-1.1-0.4-1.2 0.1-1.9 0.6-1.2-0.3-0.2-0.4-0.3-1.5-0.2-0.5-1.6-0.8-6-3.6-0.8-0.1-1.2 0.5-1.1 0.9-1.9 2.5-0.4 0.2-0.4-1.2-1.3-1.5 0.4-1-1.7-0.5-1.4-1.3-2.3-3-0.2-1.6 1.1-2 2-2.7 0-2.4 0.3-1.4 0.8-1.2 5.2-5.6 0.6-1.7-2.1 0.8-3.3 1.5-1.9 0.6-1.8 0-1-1 0.3-2.3 0.8-1.1 2.2-2.1 0.9-1.1 0.4-1 0.7-2.9 3.5-8.5 1.2-2 3.1-3.8 1.8-1.1 1.9 0.3 2 0.6 1.9-0.1 1.1-0.9 1.3-2.5 1-0.8 1.2-0.2 1 0.3 4.8 2.4 0.8 0.2 1.5-0.6 1.2-0.3 1.5-0.8 1.5-0.7 1.2-0.9 1-1.7 0.3-1.9-0.3-6.3 0.8-4 3.1-10.3-0.8-2.7-0.9-1.3-1.4-1.4-1.7-0.8-1.7 0.3 1.2-5.3-0.3-2.4-2.7-0.5 1-1.3 1.5-1.2-0.7-1.6 0.5-1.5 0.9-1.3 0.5-1.6-0.7-3.7-0.3-1 1-2.5-0.2-0.8-1-1.8 0-1 1.2-7.2 0.1-2.4-0.7-1.9-2.2 0.8-1.4-1.1-0.9-2.1-0.9-3.3-0.4-0.7-1.2-1.2-1.5-2.1-0.5-1.2 0.5-0.5 0.3-1.1 0.1-2.4-0.5-2.4-1.8-1.1-1.8-0.2-6.1-2.3-0.8-0.5-1.4-1.3-1-0.7-2.7-1.1-1.2-0.9-0.4-1.5 0.1-0.7 0.5-1.2-0.2-0.7-0.9-1.2-0.5-1.8-1.7-2.8-0.5-1.3-0.4-2.4-0.4-0.6-1.1-0.8-1 0.4-0.7 0.1-0.8-0.5-0.2-0.6 0.8-1.6-0.3-1.2-1.4-1-0.3-0.9 0.3-1.1 0.7-1 1.6-1.5 1.2 0.1 1.1 1 0.5 0.3 1.1-0.1 1.8-0.4 4.6-0.5 2 0.3 2.2 0.7 1.2-1 3.3-3.5 1.3-0.7 3.5-1.1 3.4-1.8 3.3 0.8 1.5 0.7 87.7 0-1.5 2.5 0.2 1.7 1.2 0.7 2.9-1.4 0.7-1.7 0.3-1.8 1.3 0 0 1.2 0.2 0.8 0.5 0.1 1.5-0.6 1.1 0.6-0.7 1.2-1.2 1.3-0.8 0.6 0.6 1.5-0.1 2.2 0.1 1.3 0.4 1.2 1.3 2.2-0.1 0.8-0.9 2.2-0.7 8.8-0.9 2.6-1.9 3.8-0.6 3.9-0.8 2-0.3 1.3 0 2.8-0.1 1.3-0.5 1.2-3.7-1.6-0.6 2.5 0.3 4.1-1 2.6 1.8 2.8-0.6 2.1-1.7 2.2-1.4 3-0.8 7.3-1.3 2.6-0.4 1.5-0.9 6.2-0.9 2.6-4 4.8-1.1 2.4-0.6 2.8-0.1 3.2 0.9 0.2 0.8-1.1 0.5-0.3 2 0.2 0.9-0.2 0.7-0.6 0.6-0.7 0.8-0.5 1.6-0.1-1 2.6-0.3 1.3-0.6 1.1 0.2 0.4 0.9 0.7 0.3 0.5-0.3 1-1.3 1.6-0.3 0.9 0.1 0.8 0.9 1 0.2 0.7-1.7 3.7-0.5 0.7 0.2 0.9-1.8 5.4 0 2.8-0.3 0.7-1.4 1.8-0.2 0.7 0 1.8 0.2 1.2z" id="TZA3360" name="Kagera" data-id="TZA3360" data-name="Kagera">
 </path>
 <path d="M168.6 311.4l0.1 4.3 0.6 4.2 2.6-0.3 1.1 2.3 0.8 6.9 1.7 7-1.5 4.2-0.8 0.9-5.1 1.9-1.7 1.2-0.5 1.6 1 9.7-0.8 1.1-4.2 2-1.6 1-0.4 0.6-0.3 1.5-0.4 0.6-0.7 0.4-2.1 0.7-4.6 3.5-0.5 0.3 0.5 1.6 1.1 1.4 0.4 2.5-4.4 12.4-0.8 10.7 3.4 14.7-1.7 3.2-6.6 1.5-7.2 1.9-2.2-7.5-0.8-1.2-1.6-1.7-0.4-0.6-1.1-2.3-2.1-2-0.5-1.1-0.3-4-0.6-1.6-1.6-0.7-1.6 0.8-2 3.6-1.4 1.3-1.9-1.5-2.8-3.9-2.2-1.6-0.6-0.1-1.4 0.2-0.6-0.1-0.6-0.5-1.3-2.1-2.9-1.8-4.2-0.3-25.3 0.2-3.2 2.2-5.9 6.7-3.7 3.1-4.5 1.1-19.6 0.2-1.7 2.1 8.4 7.1 3.5 8 6 35.2 2.7 7.6 5.5 10.3 2.8 8 4.3 2.5 3 3.4-1 5.8 1.6 3.7 0.3 4.2-8.7 6-2.7 8.1-2.1 2.9-5.1-4.9-1-1.9-0.5-1.8-1.4-1.4-1.9-1-1.9-0.6-4.2 0.2-3.9 1.1-7 3.9-0.1-2.2-1.1-1.3-3.2-1.7-4.5-3.7-8.1-10.2-1-2-0.6-0.8-2.2-0.6-1-0.7-0.4-1 0.5-0.9 1-1.7 0.4-2.1-0.6-6.2 0.2-5.9 0.6-1.8 1.5-2.3 1.9-2.1 1.6-1.1 0.9 0.1 1.6 1 1 0.2 0.7-0.3 6-5.7 2.1-1.1 2.1-0.5 0-1.8 0.6-3.4 0.1-1.8-0.9-4.2-9.9-21.9-1.8-2.3-4.2-4-1.9-2.6-0.8-3 0.3-2 0.8-2.2 1.1-2 1.2-1.6 0.6-1.6 0.1-2.4-0.1-2.2-0.3-1.2 1-0.4 0.9 0.4 0.4-1.2-0.6-1.8 0.6-1.1 0.7-0.8 0-0.6-0.4-1.8-0.3-0.3-1 0 0.3-1 0.8-0.1 1.2-1.6 0.2-1 0-2.2-0.6-2.1-1-2-2.2-2.9-0.5-1.6 0.5-1.4 0-0.5-0.4-0.5-1.4-0.2-1.5-2-0.9-0.7-1.8-0.6-2.4-1-0.7-0.3-1.7-2.3-1.1-0.7-0.9-0.3-2.8-0.3-1.7-0.5 0-0.7 2.5-2.2 0.1-0.6-1.2-1.5-0.5-0.8-0.1-0.9 0.1-6.6 4.3-23.2 0.4-5.4 3.1 0.7 3.7 0.3 0.4 0.2 1.1-0.8 0.3-1.1 0-1.2 0.4-1.3 0.5-0.5 1.6-0.8 0.5-0.7 0.4-1.9 1.4-0.9 1 0.1 1 0.5 1.6 0.3 0.8-0.3 4.9-2.3 3.2-3.1 3.2-1.8 0.9-0.7 2.1-1.2 1.1-1.4 2.4-5.7 0.9-1.3 6.3-5.3 2.8-3.3 2.1-3.8 1.7-4 1.6-6.7 1.1-1.9 4.8-4.9 3.6-6.1 2.3-1.5 4.1 1.3 0.3-1.6-0.3-1.4-0.5-1.4-0.4-1.6 0.1-1.8 0.6-1.6 3.8-6 0.7-1.7 0.1-1.7-0.3-1.9 0.5-1.1 2.6-1.8 0.8-1.7 1.5-0.3 0.3 0.2 1.7-0.1 0.4-1.3 2.5-0.5 0.6-0.2 0.7-0.7 1.2-1.4 4.3-2 2.5-2.4 0.1-2.4-3.4-1.9 1.6-2 1.8-1.6 2-1.3 2.5-1 1.2-0.1 0.9-0.5 0.5-0.8 0.3-1.1 2.5 1.2 2.5-0.3 2.2-1.5 1.4-2.5-0.4-2.2-0.1-0.6 1.3-1.9 0.8-2.2 0.2-1.1-0.1-1.2-0.4-0.7-1.2-0.8-0.3-0.7 0.5-1.8 0-0.5-0.9-1.3-2.3-2.1-0.5-1.3 0.7-1.5 2.8-3.3 0.3-0.5 2.4-1.3 1.8-2 1.7-2.4 9.1-8.3 3.9 1.6 2.1 4.1 0.1 1.4 0.7 1.1 0.7 0.3 0.5 0.7 0.2 7-2.6 6.6-3.5 5.4-0.2 5.1 0.8 0.9 1.2 0.1 1.3-1.6 1.7-1.1 4.9 3.6 1 6.6 2.3 6.4 1.7 3.2 2 2.9 1.7 3.4-0.3 3.4 0.4 2.9 0.8 3.2 0.3 6.3 2.2 5.8 5.1 4.9 5.6 12.2 1.6 7.6-0.5 4.5-3 8.5-0.3 4.5 0.8 2.9 0.3 2.9 1.1 1.4 0.3 1.6 2 4.8 3 4.8z" id="TZA3363" name="Kigoma" data-id="TZA3363" data-name="Kigoma">
 </path>
 <path d="M905.7 572.6l-1.1-1.5-1.2 0.4-0.2-13.1-2-3.3-2.5-3-2.4-0.7-2.3-0.3-1.3 0.1-1.2-0.1-3.1 0.4-2.1 3.1-1.5 0.1-1.3-0.2-0.8 1.6-1.4 1.2-1.6-0.6-1.5-0.6-1.8 1.4-1.3 2.1-2.1 1.4-1.9-1.8-1.7 0.6-1.1-1 1.1-2.2 1.6-1.9 0.5-2.3 1.1-1.9 1.8-1.1 1-1.7-0.8-2-0.5-1.8-2.6-1.7-0.7-3.2 0-1.8-1.2-1-2.2-0.1 0.2-1.4 2.6-3.3 1.2-4 0.4-4.5 1.7-4.1 1.7-1.4 1.6-1.8 0.6-0.6 0.2 0.2 2.5 1.8 0.7 0.8 1.4 2.3 0.8 0.9 1.5 0.9 0.8 0.7 0.6 1.1 0.4 1.2 0.1 1.1 0.6 2.3 1.4 2.6 1.6 1.2 1.5-1.6 0.4 2.7-0.4 3.6 0 3.3 1.9 1.7-0.1-1.6-0.5-1.5 1.6 0.1 1.4 0.5 2.6 1.6 1.4 0.4 2.8 0.2 1.1 0.7 1.4 0.4 3.4 0 0.6 0.5 0.4 1.3 1.7 2.3 0.8 2.7 4.4 5.8 0.3 0.7-0.1 0.9-1 1-0.2 0.6 0.8 5.9-0.1 2.5-1.4-0.2-0.9 1.2-0.7 2.5-0.5 1.1-1.1 0.8-0.8 0-0.7-0.8-0.3-1.6-3.9 2.7-0.1 0.1z" id="TZA3378" name="Dar-Es-Salaam" data-id="TZA3378" data-name="Dar-Es-Salaam">
 </path>
 <path d="M755.6 453.5l4.3 3.3 2.8 4.7 0.2 2.7 0.6 2.5 1.6 1.8 2.5 5.4 2.4 3 1 2.3 1.4 2 2.4 0.7 2.2 0.4-1.4 0.3-0.6 0.8 2.4 1.1 1.7 2 0.3 7.5-1.9 14.1-2.4 5.5-1.7 1.8 0 2.1 0.5 1.4 1.2 1.5 0.9 2.1 1.7 0.8 2.6 0.4 2.7 1.3 9.2 3.5 2.2 0.2 2.1-0.4 0.9-0.7 1-0.5 1.7-0.2 1.7 0.4 1.5 6.9-2.3 5.5-0.9 5.5 3.6 5.1 2-0.1 1.6 1.1 0.9 0.8 1.1 0.5 1.5-0.3 1.4-0.6 1.8 0.4 1.4 0.9 2.4-0.1 1.7 1.3 0.3 3.3 0.9 1.1 0.5 1.2-2.3 4.7-3.3 4.1-2 4-3.7 0.4-3.4 2.1-2.6 3.4-2.2 6.9 3.9 11.5 1.9 3.9-0.5 3.4-14.8 2.5-4.5 1.6-4.6 0.9-3.2-0.8-3.4-0.4-8.2 1.6-3.5 1.2-2.8 2.5-0.7 4.6 0 4.9-1 4.3 0.2 4.5-0.9 1.3-0.3 0.7-1.2 1.2-0.3 0.5-1 3.9-0.2 2.2-0.3 1-0.7 0.9-0.6 0.8-0.9 1.8-0.6 0.8-0.8 0.6-2.4 1.3-1.4 1.3-1.1 1.3-1.9 3.2-1.6 1.7-0.2 0.9-0.2 1.5-0.3 0.6-2.3 2.8-0.7 1.2-0.3 1.5-0.6 1.4-1.5 0.7-1.6 0.5-1.3 0.6-0.7 0.8-3.2 5.1-1.1 2.6-1.4 1.9-0.4 1.3-0.5 0.7-0.7 0.5-1.3 0.4-0.5 0.4-1.8 2.3-2.6 4.7-1.6 2.2-1.9 1.9-1.8 2.4-0.7 2.7 1.5 2.9 0.4 1.2 0 1.9-0.3 2.1-2.1 7.1-4 8.2-0.6 2.7 1.3 8.5-0.1 3 2.5 6.1-0.8 5.8 2.7 4-0.6 3.6-5.2 1.7-4.2 3.5-0.8 5.9-1.1 2.8-1.5 2.6-7.1 22.6-6.9 2-8.2 6.2-2.9 1.3-7.3 4.6-6.1 5.5-5.3 6.4-7.4 6.4-8.5 4.7-6.2 0.2-2.3-4.4 5-6.6 2.8-7.6-3.7-6.8-2.8-7.1 0.1-3-1.2-2.6-1.1 0.5-1.9 0.5 0.1 4.2-0.9 2.4-4 5.8-2.4 2.5-0.5 0.4-7.6 1.1-5.6-1-8.1 2.1-2.4-1.5-0.5-0.8-0.9 0.3-0.6-0.7 0.2-1.2-4 1.1-4.2 3.7-0.8 2.5-1.5 2-3.3 0.2-3.3-0.5-12.8 0.5-4-3.1 0.6-5.7 1.5-1.2 2-0.1 1.8-1.5 4-6.5 3.2-3.9 0.6-2-0.8-1.9 0.3-3 1.4-2.8 3.7-3.4 1.5-4.7-1.6-3.1-1.1-3.3-0.3-6.6-0.4-1.9 0-1.6 0.6-0.9-0.3-0.8-5.9 6.7-5.5 5.1-3.6 1.4-3.7 0.8-0.3-4.4-1.2-4.2-17.4-13.8-6.3-9.6-2-1-1.5 1.3-1.8 0.9-1.1-3.7 0.4-6.6-0.9-1.9-1.6-0.8-0.2-1.4 2.4-3.5-0.1-4.1-1.6-3.7 0.5-4.2 7.4-0.2 8.4 2.4 10.5 1.8 1.5 2.2 0.4 7.9 2 1.7 1.1-4.2-0.1-4.5 3.4-11.8 2.7-2.6 8.5-4 6.6-5.9 3.4-9.6 6.3-8 7.2-6.6 8-4.9 3.4 0.7 3-0.8 5.3-0.8 1.6-2.7-0.6-3.1-0.5-1.5-0.1-1.6 0.2-2.2 2.9-2.8 6.7-5.1 8.1-3 8.6 0.8 8.1 2.4 7-2 3.3-8.2 4.2-7.8 6.6-6.1 4.5-6-1.9-0.4-1.3-0.1-1.4-0.5-4.6-0.5-0.7 0-1.3 0.5-1.2 0.6-1.5 0.3-1.7-0.8-0.6-0.8-0.2-1 0.3-2.9-0.3-0.7-1.2-0.7-1.4-0.3-2.3-0.3-1.9-0.7-2.1-0.5-0.4-0.3-0.8-1-1.6-1.4-2-0.8-4.2-0.9-1.2-0.2-2 0.4-1.3 0.1-2.7-1.3-1.6-2.7-2-9.4 3.4-3.5 0.7-4.3-1.2-4.5-0.5-4.5 1.1-4.2 3.9-8.3 7.6-4.7 0.4-4.1-0.4-16.7 2.1-6.9 1.5-2-0.1-2.3-1-1.5 0.2-1.5 1.3 0.4 1.3 0.2 1.1-1.7 0.5-1.9 2-4.6 2.2-9.1 3.8-1.9 5-7.5-2.5-21.8 0.1-5.3 2.8-4.5 4.9-1.6 13.4-10.8 1.4 9.8 2.7 1.4 2.5 0.8-1.9 2.7 0.3 2.5 0.4 0.6 0 0.8 2 2.3 2.5 1.6 2.5-2.5 1.8-3.7 3.9-2.9 2.9-3.6 3.3-1.3 3-2.7 1.6-10.6 1.4-2.5 3 1 0.5 0.4 0.2 0.7 1.2 0.4 1.4-0.1 1.6 0.8 1.6 0.2 3.1 1.3 1 4.2 6 6.9 2.2 1.9 2.5-2.5 4.8 0.2 3.7-1.2-0.1-2.6 1.4-1.1 2.2 0.6 1.5-1.3z" id="TZA3379" name="Morogoro" data-id="TZA3379" data-name="Morogoro">
 </path>
 <path d="M944.4 387.6l-2.5 0.9-1.8 0.9-1.8-0.3-0.3-1.3 0.3-1.3-0.8-1.1-2.6-0.1-0.9 0.5-1-0.5-1.2 1.3 0.5-1.9 0.2-0.6-0.5-0.7-0.7-0.5-0.9 0-1.1 0.6 0.3-1.4 0.3-0.6-0.3-1.1 0.1-1.3 0.5-1 0.7-0.1 1.1 0.6 0.4-0.4 0-0.8-0.6-0.9-0.8-0.5-3-1.1 0.3-0.9 1.3-1 0.3-1-1.3 0.7-0.7-1.7 0.5-1.4 1.2-0.4 1.6 1 0.4-1.5-1.1-0.9-1.4-0.8-1.1-1.3 0-1 0.5-2.6 0.1-1.4 0.7 1.1 1 0.5 0.5 0.9 0.4 1.3 1-0.2 0.6-1.4 0.5-0.4 0.5 0.4 1.8 1.9 4.2 2.4 0.8 0.7 0.3 2 0.4 0.3 0.6-0.7-0.1-0.7-0.3-0.9 0-1 1.1-1.2 0.1 0.7 0.4 1.2 0.8-1.5 0.5-1.8 0.2-1.8-0.2-1.2 1.3 0.8 0 1.9-0.3 2.2 1.1 3.5-1 1.6-1.7 1.3-1.2 0.7 0.4 1.6-0.3 1.8-0.5 1.8-0.3 1.7 0.9 2.8 0.1 0.5 0.8-0.4 0.1-0.9-0.2-0.9 0.2-0.4 1.1 0.5 0.2 1.6-0.7 3.6 0 1z" id="TZA3380" name="Kaskazini-Pemba" data-id="TZA3380" data-name="Kaskazini-Pemba">
 </path>
 <path d="M926.4 414.8l-2.5 0.1-1.6-1.2-1.4-1.7-0.8-1.2-1.1-1.1-0.9-1.4 0.6-1 2.1 1.2 2.1 3.1 1.4 0.5 1.4 0.4 0.9 1.1-0.2 1.2z m18-27.2l0 4.4-0.6 1.5 0.6 0.7-1.1 1.3-2.7 8.1-1.1 1.4-0.1 0.6 0 1.6-0.5 1.2-0.8 0.2-0.5-0.7 0.5-1.7-0.6 0-0.6 1.5-0.7 1 0.3 1-0.5 1-1 1-1.3 0.8-0.9 0.3-0.3-0.4 0.3-0.6 0.9-0.5 0-0.7-1.3 0.4-1 0.6-0.8 0.1-0.7-1.1-3.2 0.1-1.3-0.4-0.5-1.3 0-3.2 0.4-1.5 0.8-1.2-0.5-1 1.1-0.2 3.2 0.5-0.7-1.3-1.9-2.3-0.5-1.5 1.4 0.4 1.8 0.1 1.6-0.2 0.9-0.9-1.9-0.6-0.8-0.5-0.5-0.8 1.4 0 2.2-0.5 1.4-0.1 1.7 0.8 0.9-0.2 0.6-1.9-1.8 0.7-2.3-0.6-4.1-2.7-0.9 0.6-1.2-0.3-1-1-0.7-1.2 2.3 1.1 0.8-0.4 0.9 0.2 3.1 0.5 1.7 0-0.6-0.7 0.7-1.8-0.4-1.5 0.9-0.5 2.6 0.1 0.8 1.1-0.3 1.3 0.3 1.3 1.8 0.3 1.8-0.9 2.5-0.9z" id="TZA3381" name="Kusini-Pemba" data-id="TZA3381" data-name="Kusini-Pemba">
 </path>
 <path d="M934.6 654.7l-2.7 2.5-1.5-0.1-0.6-1.6 0.6-2.4 1.1-1.9 2.5-3.1 2.9-0.3 2.1 0.1 0.4 1.3-0.9 1.2-3.9 4.3z m13.3-29l-2.6 6.1-1.3 1.6-0.2 1.9-0.7 1.9-1 1.6-0.7 1.8-1.1 0-2.5-0.8-2.7 0.9-1.1 2-0.6 2.1-0.9 1.3-3.6 1.4-1.9 0.5-1.5 0-1.9-0.7-2.4-2.7-1.5-1.1 0.9-0.2 1.6-0.1 0.7-0.3 0.3-0.9 0.6-1.3 1.7-0.3 4-3.9 1.3-2.1-0.9-1 0.6-1.6 1-0.7 1.5-0.2 1.6 0 1.6-0.3 2.8-1.3 1.6-0.4-0.5-0.7-0.9-0.1-2.3 0.2 0-0.6 1.1-0.2 0.9-0.6 1.7-1.1 2-0.9 0.8-0.7 0.7-2.4 0.7-1.3 0.9-1.3 1.3-0.9 0.9-2.4 0.2-1 1.4 1.6-0.1 3-1.5 6.2z m-100.5-165.9l-0.5 2.4-0.9 1.8-0.6 2.1 0 2.2 0.4 0.6 1.5 1.9 0.9 3.6 0.4 0.9 0.5 0.5 2.1 1.3 1.4 1.3 0.2 0.5 0.3 3.5-0.2 2.2-0.7 2-1 1.4 0.7 2.3 0.3 5.2 1.1 2.3 1 0.7 2.1 1.2 0.4 0.9 0.1 1 0.5 1.1 0.5 0.9 0.8 0.8 1 0.6 1.2 0 0.6 0.3 0.6 1.3 0.4 0.4 1.2 0.2 2.5 0.2 2 0.9 0.9-0.4 0-0.7-2.3-0.9-1.8-1.3 2.6 0.9 1.9 0.8 5.1 4.9 2.8 3.4-0.6 0.6-1.6 1.8-1.7 1.4-1.7 4.1-0.4 4.5-1.2 4-2.6 3.3-0.2 1.4 2.2 0.1 1.2 1 0 1.8 0.7 3.2 2.6 1.7 0.5 1.8 0.8 2-1 1.7-1.8 1.1-1.1 1.9-0.5 2.3-1.6 1.9-1.1 2.2 1.1 1 1.7-0.6 1.9 1.8 2.1-1.4 1.3-2.1 1.8-1.4 1.5 0.6 1.6 0.6 1.4-1.2 0.8-1.6 1.3 0.2 1.5-0.1 2.1-3.1 3.1-0.4 1.2 0.1 1.3-0.1 2.3 0.3 2.4 0.7 2.5 3 2 3.3 0.2 13.1 1.2-0.4 1.1 1.5-0.7 1-0.5 1.7-0.2 1.5-0.4 1.3-1.1 1.3-1.2 0.9-2.1 0.7 0.1 0.7 0.7 1.5-0.5 1-1.3 0.3-1.5-0.1-1.1 0.1 0.9 1.5 0.9 1 0.6 1.2 0 2-0.4 1.3-0.8 1.9-1 1.7-2.4 2.3-1.1 3.5-1.6 10.2 0.1 1.9 0.4 1.9 1.2 3 0.3 1.7-0.6 1.4-0.3 1.3 1.4 3.4-0.4 1.7-4.1 4.8 2.8-0.7 2-2.3 1.3-3 0.8-3 1.4 1.1 1.1 1.3 0.2 1.3-1.5 1.4 3.4-0.3 1.6 0.1 1.6 1.2 2.5 2.4 0.3 1.3-0.6 2.3-1.3 3-0.1 1.2 0.9 3.2 0.1 3.6 0.4 1.7 1.4-0.9 0.5-0.4-0.3 2.8-1.1 2.7-3 4.7-3 8.3-1.4 2.6-0.6-0.3-1.3 0.3 0.6 1.4-0.2 3.3 0.3 1.6-1.3-0.5-0.1 0.7-0.5 1.7-1.5-1.6-0.8-0.6-0.8-0.2 0.7 1.3 0 1.1-0.6 0.8-1.4 0.5 0.4 0.9-1.3-0.5-3.4-2.7-4.6 0.1-17.8 3.9-11.5 3.9-5.7 1.2-1.6-0.5-0.8-1.4-1.8-0.5-6.4 1.4-2.4 3.9-1.9 5.1-4.3 2.6-5.3-0.1-1.5-3.8-1.5-8.8-6.7-6.5-4.5-3.1-8.5-7.5-5.1-2.6-11.3-2.5-10.9-3.8-4.7-2.9-12.8-9.8 0.7-0.9 0.3-1 0.2-2.2 1-3.9 0.3-0.5 1.2-1.2 0.3-0.7 0.9-1.3-0.2-4.5 1-4.3 0-4.9 0.7-4.6 2.8-2.5 3.5-1.2 8.2-1.6 3.4 0.4 3.2 0.8 4.6-0.9 4.5-1.6 14.8-2.5 0.5-3.4-1.9-3.9-3.9-11.5 2.2-6.9 2.6-3.4 3.4-2.1 3.7-0.4 2-4 3.3-4.1 2.3-4.7-0.5-1.2-0.9-1.1-0.3-3.3-1.7-1.3-2.4 0.1-1.4-0.9-1.8-0.4-1.4 0.6-1.5 0.3-1.1-0.5-0.9-0.8-1.6-1.1-2 0.1-3.6-5.1 0.9-5.5 2.3-5.5-1.5-6.9-1.7-0.4-1.7 0.2-1 0.5-0.9 0.7-2.1 0.4-2.2-0.2-9.2-3.5-2.7-1.3-2.6-0.4-1.7-0.8-0.9-2.1-1.2-1.5-0.5-1.4 0-2.1 1.7-1.8 2.4-5.5 1.9-14.1-0.3-7.5-1.7-2-2.4-1.1 0.6-0.8 1.4-0.3-2.2-0.4-2.4-0.7-1.4-2-1-2.3-2.4-3-2.5-5.4-1.6-1.8-0.6-2.5-0.2-2.7-2.8-4.7-4.3-3.3 13.9-3.8 6.2 1.5 2.7-0.5 2.4-1.1 6.5 0.5 5.8 2.9 2.6 2.8 3.4 1.3 3.9 1 2.4 3.4 2.6 1.1 2.9-0.2 1.4 1.4 1.6 0.9 3 0.7 2-1.5 1.6 0.7 1.9 0 1.3-0.4 1.2 0.7 5.3-2.3 2-0.6 1.6-1.8 1.3-0.1 1.3 0.3 1.8-0.7 1.5-1.2 7.7 1.3z" id="TZA3382" name="Pwani" data-id="TZA3382" data-name="Pwani">
 </path>
 <path d="M887.6 449.9l-1.1 0.3-1-0.1-0.2-1.3 0.4-4.3-0.2-1.9 1-0.7 0 1.2 0.4 1.7 0.8 1.1-0.6 1 0.5 1.2 0 1.8z m14.1 13.4l-4.1 2.6-6.6 0.5-3.4-0.3-3.6 0.2-1.1-3.6 0.4-5.2-0.1-1.1 0.1-1.1 0.2-1 0.4-0.6 1.3 1.9 1.5-2.5 3.3-2.7 1.5-1.8 0.8-2.9 0.6-6.8 1.7-1.7 1.1 2.8 2.8 5.1 0.5 3.2-0.6 3.9-0.1 1.5 0.3 1.4 0.8 2.6 0.2 1.4 0.4 1.4 1.7 2.8z" id="TZA3383" name="Kaskazini-Unguja" data-id="TZA3383" data-name="Kaskazini-Unguja">
 </path>
 <path d="M891 466.4l0.1 1.8 0.5 1.9-0.6 7.2 0.2 2.4 0.9 2.1 1.6 1.7 0.4 2.4-0.7-0.5-1.3 0.6 0 0.7 0.6 0.1 0.1 1.2-1.3-0.9-0.4 1.5 0.4 2.1 0.9 1-0.7 0.4-1.7-0.9-0.5-0.7-4.6-5.4-0.9-1.5-1.2-4.1-0.8-1.7 3.3-4-0.7-5.4-0.6-2.1 3.6-0.2 3.4 0.3z" id="TZA3384" name="Zanzibar West" data-id="TZA3384" data-name="Zanzibar West">
 </path>
 <path d="M669.2 463.4l-2.8 4.5-0.1 5.3 2.5 21.8-5 7.5-3.8 1.9-2.2 9.1-2 4.6-0.5 1.9-1.1 1.7-1.3-0.2-1.3-0.4-0.2 1.5 1 1.5 0.1 2.3-1.5 2-2.1 6.9 0.4 16.7-0.4 4.1-7.6 4.7-3.9 8.3-1.1 4.2 0.5 4.5 1.2 4.5-0.7 4.3-3.4 3.5-0.5-2.2-0.6-1.3-1.5-1.1-2.2-0.4-4.3 0.1-2.5 0.8-1.2 0.1-1.2-0.6-0.3-0.7-0.2-1.8-0.9-1.4-1.1-2.2-0.7-0.7-1.8-1.2-0.9-1.9-0.6-2.1-1.1-1.7-2.1-0.7-1.8-0.3-8.3-3.4-1.3-0.1-2 0.1-1-0.1-0.8-0.3-1.3-0.4-5.3 1.3-1.9-0.4-3.7-1.2-1.6-0.3-1.3-0.6-1.7-1.1-9-2.2-2.9 0.2-3.3-0.2-6.6-3.7-4.4-1.6-4.4-0.5-1.3-0.8 0-1.4-1.2-1.9-2-1.1-4.3-1.5-4.4-0.4-3.1 0.5-3.1 0-2.7 0.7-1.8 2-9.3 1.4-8.9-5.4-0.4-9.8-1.5-8.6 11.5-0.6 2.6-6.2-1.6-15.8 0.9-8.3 1.5-3 0.1-3.3-0.9-3.7-1.8-3.2-0.8-8.1 2-8.3 0.3-10.7 3.3-7.7 2.4-3.5 0.9-3.5 0.4-3.8 2.9-2.5 1.9-2.3-1.1-2.7-3-3.3-2.3-3.8-0.2-1.8-0.4-1.5-0.9-0.2-0.7-0.6-1-1.2-1.3-0.8-1.7-2.7-1.1-2.9-2.5-2.7-2.1-3.1-1.5-6.3-1.6-3.6-1.2-3.7 0.1-3.5-0.3-3.4-1.9-3.1 0.5-3.1 22.4-15.4 0.8-2.4 1.6-3.1-0.4-3.2 1.2 0.1 1.1 0.6 8.5 0.7 4.8-0.8 2-3.3 6.3-12.8 4.7-7.4 0.8-3.5-1.6-3.3-0.5-1.5-0.2-1.5 0.5-1.6 0.8-0.5 2 0.8 7.2-5 4-3.8 1-1.6 1.5-1 1.6 0.6 1.5 0.9 2.2-1.1 2.3-1.5 4.5 0.1 2.9-4.7 1-0.8 2.2-1.3 2.8-2.1 23-6.5 0.6 27.3 0.9 5.2 1.5 5.1 2.1 4.7 0.5 3-1 18.8-3.4 22.2-2 6.4-2.9 4.6-2 4.9 1 5.9-1.6 5.2 1.2 4.2 3.5 3.7 4.8 3.8 4.3 4.3 2.6 4.6 3.3 4.3 5.6 3.4 5.9 2.8 3.7 4.5 2.6 5.4 3.4 5.2 4.5 4 6.2 2.4 6.4 1.9z" id="TZA3385" name="Dodoma" data-id="TZA3385" data-name="Dodoma">
 </path>
 <path d="M505.5 548.4l8.9 5.4 9.3-1.4 1.8-2 2.7-0.7 3.1 0 3.1-0.5 4.4 0.4 4.3 1.5 2 1.1 1.2 1.9 0 1.4 1.3 0.8 4.4 0.5 4.4 1.6 6.6 3.7 3.3 0.2 2.9-0.2 9 2.2 1.7 1.1 1.3 0.6 1.6 0.3 3.7 1.2 1.9 0.4 5.3-1.3 1.3 0.4 0.8 0.3 1 0.1 2-0.1 1.3 0.1 8.3 3.4 1.8 0.3 2.1 0.7 1.1 1.7 0.6 2.1 0.9 1.9 1.8 1.2 0.7 0.7 1.1 2.2 0.9 1.4 0.2 1.8 0.3 0.7 1.2 0.6 1.2-0.1 2.5-0.8 4.3-0.1 2.2 0.4 1.5 1.1 0.6 1.3 0.5 2.2 2 9.4 1.6 2.7 2.7 1.3 1.3-0.1 2-0.4 1.2 0.2 4.2 0.9 2 0.8 1.6 1.4 0.8 1 0.4 0.3 2.1 0.5 1.9 0.7 2.3 0.3 1.4 0.3 1.2 0.7 0.3 0.7-0.3 2.9 0.2 1 0.6 0.8 1.7 0.8 1.5-0.3 1.2-0.6 1.3-0.5 0.7 0 4.6 0.5 1.4 0.5 1.3 0.1 1.9 0.4-4.5 6-6.6 6.1-4.2 7.8-3.3 8.2-7 2-8.1-2.4-8.6-0.8-8.1 3-6.7 5.1-2.9 2.8-0.2 2.2 0.1 1.6 0.5 1.5 0.6 3.1-1.6 2.7-5.3 0.8-3 0.8-3.4-0.7-8 4.9-7.2 6.6-6.3 8-3.4 9.6-6.6 5.9-8.5 4-2.7 2.6-3.4 11.8 0.1 4.5-1.1 4.2-2-1.7-0.4-7.9-1.5-2.2-10.5-1.8-8.4-2.4-7.4 0.2-0.5 4.2 1.6 3.7 0.1 4.1-2.4 3.5 0.2 1.4 1.6 0.8 0.9 1.9-0.4 6.6 1.1 3.7-6.7 2.2-8.7-0.5-8.7-6.2 1-16.6-22-7.8 0-4.7-13-4 1-6-1.5-3.2-1.9-2.9-1.5-3.8 1.9-3.9 2.6-4 3.4-3.1 3.9-1.3 3.2-2.5 2.4-4.1 3.4-7.7 2.2-2.7 5-1.5 4.1-3.2 2.2-3-2.5-2.6-4.2-1.5-4.4 0.4-2.5-0.4 0.3-2.4-0.9-2.9-24.9-3.9-3.9-1.3-3.4-2.4-13.6-3.2-4.7-0.4-42.8 2.1-3.5-0.4-1.3-2.7 0.8-3.8 1.7-3.5 2.4-3.3 2.1-3.6 2.6-5.9 1.8-2.3 1.3-2.5-1.5-1.7-2.3-1.6 8-4.6 7.6-5.1 2.9-4 3.1-3.5 4.2 0 4.1 1.5 4.3 0.2 4.3-0.6 1.8-1.5-0.1-2.9 4.6-5.6 27.1-5.6 3.4-6.6 1.1-8.9 3.3-2.8 4-2.2 1.5-1.2 1.9-0.7 1.7-1.1 1.3-1.3 3.6 0.3 3.8 0.9 3.8 0.5 3.7 1.1z" id="TZA3386" name="Iringa" data-id="TZA3386" data-name="Iringa">
 </path>
 <path d="M922.6 748.7l-1 1.7-1.6-1.1-1.5-1.9-1.1-1.1-0.1-1.5 4.8 2.3 0.5 1.6z m-8.6-51l0.3 1.3-1.8-0.3-1.3-1.2-0.4-1.8 1.1 0.2 1.2 0.8 0.9 1z m-22.1-19.5l0.8 1.5 0.7 2.4 0.4 2.6 0.1 2.8-0.6 5.4 0.3 2.7 3.1 3.1 1.1 2.2 0.8 2.4 0.4 2.1-0.1 7.7-0.6 1.9 3.3 0.9 0.5 0.6 0.6 1.3 1 0.3 1.9 0.2 0.5 0.5 0.1 1.2 0.4 1.9 0.8 1.6 1 0.6 1.1 0.5 1.2 0.9 0.8 1.3 1 3.2 1 1.5 2.6 2 0.6 0.8-1.3 0.4-1.1-0.1-0.7-0.2-1.3-1-2-1.9-1.8-2.3-1.4-0.8-1.8 0.3-1.6 0.5-0.3 0.3-1.9 2.7 1.4 0.5 5.5-0.5-1.2 1.5-0.3 0.9 0.7 0.6 1.8 0.1 1.6 0.5 0 1.3-0.5 1.9-0.2 2.1 1.3 1.3 0 1.9-0.5 0.9 0.1 0.6 0.9 0.5 0.2 0.5-0.3 0.9-0.9 1.3 0.2 1 0.7 1.5 0 0.7-0.4 0.9 1.3-0.2 1.6-0.8 1.5-0.9 1-0.9 1.1-0.1 1.3 1.3 4 5 1.5 2.7 0.5 2.9-1.5 2.9 0 0.7 1.2 1.5 0.4 0.7 0 1-0.5 1.9-0.1 0.9 0.3 3.1-0.3 1.1-1.3 1.6-1.2 1.1-0.8 0.2-0.9-0.2-1.5 0.2-1.1 0.5-0.5 0.9 0 1.3 0.3 1.8 0.8-0.4 1.1-0.2 1.9-0.1 0.2-1 0.5-0.4 0.9 0.4 0.9 0.9 1.4 0.5 0.1 1-0.2 1.8 0.6 0.8 2.2 2.1 0.8 1.8 1.1 5.1 1 1.4 1.2 0.9-0.2 0.6-0.8 0.6-0.2 0.7 0.9 1.7 1.2 1.2 0.6 1-0.3 1.9 0.8 1.8-0.8 0.6-1.8 0.8-1.6 1.4-0.4 0.8 0.8 0.4 3.6-0.1 0.7 0.1 0.3 0.6 0.7 2.6 0.6 0.9 1.5 1.1 0.7 0.7 0.7 1.1 0.6 2.6-0.7 1.9-1.7 1-2.7-0.4 0.8 1.3 2.6 2 0.1 0.9-1 0.6-3.2 1.4-2.8 0.7 0 1 1.1 2.4-0.1 1.7-0.7 1.4-1.1 1-1.3 1 2.3-0.4 4.3-5.3 1.9 0.2 1.2 0.7 2.8-0.2 1.9 2 1.2 0.2 1.4-0.1 1.2 0.2 2.3 1.8 5.6 9.3 0.1 4.2-2.9 1.8-3.2 2.5-14.9 8.5-3.8 1.4-2.4 3.1-0.6 4-1.6 3.6 0.1 2.5 2.3 2.1 0.5 3.3-2.1 3.3-3.1 2.9-3.7-2-2.7-6.6-1.5-1-1.3-1.7-3-8.5-7.1-4.6-2.2 0.1-2.3 0.4-2.4 2.6-2.8 1.4-3-0.2-1 2.2-1 3.9-4 0.8-1.2-2.5-0.6-2.9-3-0.7-3.7 1.6-7.6 4.3-4.3 1.4-7.1 3.3-2.5 1.8-1.7 1.9-6.5 0.6-3.5-1-2.7-1.9-3.1-0.1-2.9 1.4-8.3 0.6-24.4 10.2-5.7 5.8-4.5 6.8-3.2 2.2-16.1 1.1-4.6-8.5-2-2.3-1.6-2.4-1.3-4.4-2.4-4.1-0.6-2.1-1-2.2-2.3-3.8-2.5-2-2.7-1.5-4.3-3.2-51.1-12.5-22.2-8.6-4.5-3.9 0.2-6.7-0.3-6.8 0.6-5.7 2.4-5.1 7.6-6.9 7-7.8 4-5.8 2.2-5.4 1.3-5.6 7.1-22.6 1.5-2.6 1.1-2.8 0.8-5.9 4.2-3.5 5.2-1.7 0.6-3.6-2.7-4 0.8-5.8-2.5-6.1 0.1-3-1.3-8.5 0.6-2.7 4-8.2 2.1-7.1 0.3-2.1 0-1.9-0.4-1.2-1.5-2.9 0.7-2.7 1.8-2.4 1.9-1.9 1.6-2.2 2.6-4.7 1.8-2.3 0.5-0.4 1.3-0.4 0.7-0.5 0.5-0.7 0.4-1.3 1.4-1.9 1.1-2.6 3.2-5.1 0.7-0.8 1.3-0.6 1.6-0.5 1.5-0.7 0.6-1.4 0.3-1.5 0.7-1.2 2.3-2.8 0.3-0.6 0.2-1.5 0.2-0.9 1.6-1.7 1.9-3.2 1.1-1.3 1.4-1.3 2.4-1.3 0.8-0.6 0.6-0.8 0.9-1.8 0.6-0.8 12.8 9.8 4.7 2.9 10.9 3.8 11.3 2.5 5.1 2.6 8.5 7.5 4.5 3.1 6.7 6.5 1.5 8.8 1.5 3.8 5.3 0.1 4.3-2.6 1.9-5.1 2.4-3.9 6.4-1.4 1.8 0.5 0.8 1.4 1.6 0.5 5.7-1.2 11.5-3.9 17.8-3.9 4.6-0.1 3.4 2.7 1.3 0.5z" id="TZA3387" name="Lindi" data-id="TZA3387" data-name="Lindi">
 </path>
 <path d="M782.4 952.4l-6.3-22.1-2.9-19.1 16.1-1.1 3.2-2.2 4.5-6.8 5.7-5.8 24.4-10.2 8.3-0.6 2.9-1.4 3.1 0.1 2.7 1.9 3.5 1 6.5-0.6 1.7-1.9 2.5-1.8 7.1-3.3 4.3-1.4 7.6-4.3 3.7-1.6 3 0.7 0.6 2.9 1.2 2.5 4-0.8 1-3.9 1-2.2 3 0.2 2.8-1.4 2.4-2.6 2.3-0.4 2.2-0.1 7.1 4.6 3 8.5 1.3 1.7 1.5 1 2.7 6.6 3.7 2 3.1-2.9 2.1-3.3-0.5-3.3-2.3-2.1-0.1-2.5 1.6-3.6 0.6-4 2.4-3.1 3.8-1.4 14.9-8.5 3.2-2.5 2.9-1.8 0.1 1.2 0.7 2.8 1-1.1 0.4-1.6 0-1.6-0.4-1.4-0.8-1.9 0.2-0.8 1-0.1 1.8 0.3 1.3 0.4 2.9 1.2 1.8 0.4 3.7 1.4 0.7 0 0.3 1-0.2 1.2-0.6 1.3-0.3 1.3 0.8 1.6 0.2 0.9-1.5 0.8-0.3 0.6 0.5 0.8 1.4-0.2 1.5 0.9 0.7 0.1 0.3-0.7 0.1-1 0.3-0.5 0.6-0.1 0.9 0.4 1.2 0.8 2.1 1.9 1.1 0.8 0-0.9 0.7-1.7 1.2 0.6 1.3-0.6-1.5-0.5-4.8-2 3.1-3.9 1.2 0.4 0.6 1 0.3 1.3 0.4 1.2 0.8 0.6 2.1 1 1 0.9 0.5 0.8 2.9 6.6 1 0.9 0.2-0.2 3.1 0.7 0.4 0.1 3-0.8 0.4-1.9-1.1-1.4-1.6 0.3-0.4-1.1 0.3-0.8 0.8-0.5 1.2-0.1 0.8 0.3 0.8 1.7 0.5 0.8 0.8 1.7-0.8 1.5-1.6 1.4-1.1 1.5 2.3 0-0.9 3.2-0.2 1 0.3 0.7 0.9 1.6-0.1 1.2-1.4 2.7-2.9 3-3.3 2.4-6 2-3.5 2.7-5.4 5.4-1.7 2.2-1.1 1.1-2.6 1-11.5 9-1.7 0.9-9.5 4.1-9.2 6.4-2.3 1-15.4 3.4-7.1 0.5-1.6 0.5-1.5 0.8-18 14.5-2.1 1.2-2.3 0.7-2.5 0-1.9-0.7-3.8-2.1-2.1-0.4-2.9 1.3-3.2 0.6-12 0-3.1 0.7-2.4 2.2-1.7 1.1-1.9 0.5-1.2 0.8-3.6 3.5-1.7 0.9-1-0.1-2-0.5-1.1-0.1-1 0.2-1.9 0.9-2.7 0.7-1.5 1.3-2.1 2.6-9 6.2-2.3 2.9-2.8-1.6-7.3-1.9-3.2-1.7-5.1-5.3-3.3-2.3-4.2-0.7-0.9 0.3-2.1 0.8-1 0.2-1.1-0.3-1.8-1.3-1.2-0.5-0.7-1.1-1 0.2-0.3 0.4-0.7 0z" id="TZA3388" name="Mtwara" data-id="TZA3388" data-name="Mtwara">
 </path>
 <path d="M695.1 793.9l-1.3 5.6-2.2 5.4-4 5.8-7 7.8-7.6 6.9-2.4 5.1-0.6 5.7 0.3 6.8-0.2 6.7 4.5 3.9 22.2 8.6 51.1 12.5 4.3 3.2 2.7 1.5 2.5 2 2.3 3.8 1 2.2 0.6 2.1 2.4 4.1 1.3 4.4 1.6 2.4 2 2.3 4.6 8.5 2.9 19.1 6.3 22.1-2.1 0-5.2 0.9-0.9 0.9-0.8 0.2-3.7 0.2-1.6 0.4-5.7 3.3-0.7 0.8-0.2 1.4-1.4 4.2-0.9 1.2 0.1 1.7-2.2 3.9-0.4 2.1 0.3 1.3 0.6 1.1 0.2 1.2-0.8 1.2-1.1 1.1-2 1.3-6.6 3-4.1 3.3-1.8 0.9-1.9 0.4-2.9 0-2 0.4-3.4 1.8-1.9 0.4-1.1 0.5-0.7 1.2-1 2.2-1.4 1-1.8 0.3-2.1 0-4.5-1.3-0.8-0.4-1.6-1.7-1.1-0.5-0.8 0-2.4 1.3-3.3 0.3-4-0.4-7.8-1.8-3.2-1.6-3.2-2.7-2.5-3.1-1.1-2.9-1.5 0.8-0.8 0.6-0.8 0.4-8.5 0.8-1.4-0.3-2.3-1.5-1.8-0.1-0.9-0.4-1.5 0.5-4.2 4.9-2.6 3.8-0.8 0.8-1 0.6-3.4 1.3-1.4 1.3-0.7 0.4-2.4 0.3-1.4 0.5-5.8 0.9-1.6-0.2-2.3-1.1-1.1-0.7-0.5-2.2-0.7-0.5-10.8 0-1.5 1-2.9 0.5-3.4 0.9-1.3 0.2-1-0.3-1.4-0.9-1.1-0.1-3.8 0.6-1-0.7-0.9-1.7-0.2-2 0.6-1.4-0.7-1.8-0.2-2.2-0.5-1.7-1.5-0.7-0.8-0.2-2-1.8-0.9-0.3-2-0.6-0.9-0.3-3.4-2.1-1.9-0.9-1.3 0.1-1.8 0.5-1.7-0.9-0.8-1.8 0.8-2.1-1.5-1.9-1.3-0.6-3.4 0-0.6-0.1-2.6-1.1-3.8-0.7-1.2 0.8-2.9 3.6-1.6 1.3-4.6 0.9-1.7 1 0.7 2-1.1 0.8-1 1.2-0.8 1.3-0.6 1.9-1 0.6-4.9 1.3-2.3 1.3-1.5-0.4-1.5-0.6-1 0.1-0.1 1.6-1-0.4-1.2-1.9-0.8-0.6-0.8 0.2-1.8 0.7-2.7 0-0.9-0.3-0.6-0.6-0.1-0.5-3.9 0.1-38.3-0.4-0.2-0.8 0-4.9-0.2-1.4-1.1-2.5-0.4-0.7-0.8-0.7-0.9-1-0.8-2.5-1.7-1.5-0.4-0.7-0.7-1.9-1.7-1.6-2.2-1.1-4-1.4-0.7-0.1-0.7 0.3-1.2 1-0.6 0.1-0.6-0.8-2-3.8 1.9-1.2 0-0.6-1.5-0.8-1.2-1.4-0.8-1.8-0.3-2.2-0.2-0.8-0.6-0.7-0.7-0.5-1.7-0.5-0.4-0.6-0.8-1.7-4.4-3.8-0.7-1.6-0.3-2.3-1.2-3.9-0.4-1.9 0.5-2.4 2.7-3.4 1.7-3.8 0.2-1 0-4.2 1.1-5.8-0.3-2.5 0.5-0.8 1.2-0.8-0.3-1.2-1.1-1.1-1.1-1.8 1.2-2-0.1-2-0.9-1.9-2-2.4-0.2-0.5 0.1-1.8-0.3-1.1-1.4-0.2-0.8-0.3-0.7-1.1-0.6-1.2-0.5-1.3-0.1-0.7 2.6-0.5 1.2 0.3 1 0.7 2.9-0.2 2.6-1.2 7.9-5.1 4.3-6 6.8-3.4 7.9-6.1 0.4-6.2 2.2-2.4 3.1-1.1 3.4 0 3.3-0.7 1.2-3.1 7.7-10.8-0.9-6.2-3.6-5.3 0.3-4.6-1.4-3.3-2.1-1.9-1.7-2.5 0.9-2.6 3.1-1.6 6.7-2.8 8.9-9.6 6-3.2 8-7.5 3.5-2.2 2.7-2.9 3.5-2.2 4.2-2.1 3.4-2.4 2.7-2.7 3.7-0.8 3.6-1.4 5.5-5.1 5.9-6.7 0.3 0.8-0.6 0.9 0 1.6 0.4 1.9 0.3 6.6 1.1 3.3 1.6 3.1-1.5 4.7-3.7 3.4-1.4 2.8-0.3 3 0.8 1.9-0.6 2-3.2 3.9-4 6.5-1.8 1.5-2 0.1-1.5 1.2-0.6 5.7 4 3.1 12.8-0.5 3.3 0.5 3.3-0.2 1.5-2 0.8-2.5 4.2-3.7 4-1.1-0.2 1.2 0.6 0.7 0.9-0.3 0.5 0.8 2.4 1.5 8.1-2.1 5.6 1 7.6-1.1 0.5-0.4 2.4-2.5 4-5.8 0.9-2.4-0.1-4.2 1.9-0.5 1.1-0.5 1.2 2.6-0.1 3 2.8 7.1 3.7 6.8-2.8 7.6-5 6.6 2.3 4.4 6.2-0.2 8.5-4.7 7.4-6.4 5.3-6.4 6.1-5.5 7.3-4.6 2.9-1.3 8.2-6.2 6.9-2z" id="TZA3389" name="Ruvuma" data-id="TZA3389" data-name="Ruvuma">
 </path>
 <path d="M488.1 270.2l3.4 7 7.9 8.5 0.2 2.8-5.3 7-4.9 8.9-3.4 9.3 4.2 4.6 6.2 3.7 4.6 5.3 3.4 7.5 6.1 3 0.9 3.6 0 3.9 3.6 2.5 5.4 1 3.5 6.5 5.5 2.1 0.4 3.2-1.6 3.1-0.8 2.4-22.4 15.4-0.5 3.1 1.9 3.1 0.3 3.4-0.1 3.5 1.2 3.7 1.6 3.6 1.5 6.3 2.1 3.1 2.5 2.7 1.1 2.9 1.7 2.7 1.3 0.8 1 1.2 0.7 0.6 0.9 0.2 0.4 1.5 0.2 1.8 2.3 3.8 3 3.3 1.1 2.7-1.9 2.3-2.9 2.5-0.4 3.8-0.9 3.5-2.4 3.5-3.3 7.7-0.3 10.7-2 8.3 0.8 8.1 1.8 3.2 0.9 3.7-0.1 3.3-1.5 3-0.9 8.3 1.6 15.8-2.6 6.2-11.5 0.6 1.5 8.6 0.4 9.8-3.7-1.1-3.8-0.5-3.8-0.9-3.6-0.3-1.3 1.3-1.7 1.1-1.9 0.7-1.5 1.2-4 2.2-3.3 2.8-1.1 8.9-3.4 6.6-27.1 5.6-4.6 5.6 0.1 2.9-1.8 1.5-4.3 0.6-4.3-0.2-4.1-1.5-4.2 0-3.1 3.5-2.9 4-7.6 5.1-8 4.6-4.2-1.9-3.8-2.7-1.9-0.5-1.5-0.9-0.3-3.8-1.6-3.9-0.3-2.5-1.2-2.1-5.3-1.6-1.8-1.9-1.4-2.1-2.2-4.1-3.2-3.1-3.9-1.5-2.2-3.7-0.8-5.1-1.2-4.8-2.1-3-2.8-2.4 4-8.2-0.6-9.8 0.6-9.8-0.9-2.1 4.4-5.2 1.4-0.8 6.6-2.5 9.4-9.6 3.6-2.6 2-0.8 2.3-0.4 1-0.8 3.2-5.2 5.4-4.5 6.3-4.7-0.3-3-1.1-3.2 0.3-7.7 4.8-18 0.1-8.1 0.2-1.8 0.5-1.6 2.5-2 1.9-3.9-0.3-4.1-2.7-2.1-2.1-2.4 4.1-6.2 6-5.1 3.4-3.5 2.6-4-2-2.5-8.2-8.2-3.1-2.1-3-2.4-4.1-2.4-4.7-1.8-2.7-2.7-0.9-3.9-0.5-3.9 2.6-7.2-0.8-3.6-1.6-4.4 0-4.7 3.3-8.9-0.2-7.9-1-7.8 1.9-8.4 11-14.2 3.9-8.5 4.8-8.2 2.1-1.8 2.9 1 2.9-0.3 0.7-2.9 0.9-1.5 0.7-1.7 0.4-4 3.5-3 5.5-1.5 2.4-2.5 2.7-2 3.3-1 3.4-0.7 15.6-6.3 1.2-2 2.4-2 3.3-0.6 5.8 5.3 6.3 4.6z" id="TZA3390" name="Singida" data-id="TZA3390" data-name="Singida">
 </path>
 <path d="M720.9 179.3l-4.1-1-7.6-3.1-3-1.8-3.3-0.3-1.8 0.6-1.6-0.6-4.7 0.1-4.2 2.9-5.5 4.5-2.3 2.4-3.1 1.3-6.1 1.8-2.2 6.1 0.2 4.4 0.8 4.3 2.3 2.2 2.9 1.3 6.4 4.2 3.4 6.3 0.2 16.7-3.2 1.2-2.9 2-1.7 2.4-2.1 1.9-6.9 0.1-2.4 2.6-2.3 3.1-2.8 0.7-1.7-3.1-1.7-1.2-1.7-0.4-6.7 0.3-0.6 0.7 0 1-0.7 1.5-1.8 0.6-1.9 1.7-1.8 0.4-1.7 0.6-5.5 7.2-1.5 3.7 0.8 10.6 2.1 11.6-0.1 5.3-1.3 0.7-1.6-0.6-2.6-0.1-2.5 0.8-4.3 0.4-4.1 0.8-0.9 1.8-4.3 0.6-4.6-1.9-20.7-30.2-4.4-8.3-3-4.3-5.3 1.8-4.5 5.9-3.3 2.9-2.4 3.1-0.3 2.7-1.9 0.6-2-6.4 0.7-6.7 2.3-6.6-1.3-4.4-2.4-0.3-0.5 6.4-1.6 3.3-10.9 2.9 0.2 3.5-1.6 2.5-4.1-0.6-2.8-2.9 1.8-3.1 2.3-2.6-2.8-1.3-3.7-0.7-3.6-1.9-3.9 0-6.1 6.2-3.6 1.3-3.2 2.2-2.6 0.9-2.8-0.1-8.8 5.4-0.9 1.1-0.2 1.4-1.3 1.4-5.4 1.6-3.2 1.7-3.5 1.5-3.2 1.7-6.3-4.6-5.8-5.3-1-3.6 0.4-3.7 2.4-3.5 3.2-2.9 0.5-1.3 0.2-1.4 1.8-0.7 2.2 0.6 2.5-2.4 0.8-65.8 3.2 0.5 3.4 2.8 2.2 3.4 3.5 1.1 1.6-1 1.4-1.2 5-2.2 2.5-4.7 6.1-26.3-0.8-8.8 3.8-10.8 2.3-1.1 2.5-0.8 2.4-4.9 1.3-5.5-1.3-4.5-5.2-1.6-3.5-2.3-0.7-4.1 2-36.3 15.6 8.7 59.1 33.1 19.8 11.1 39.4 22 66.3 37.1z" id="TZA3391" name="Arusha" data-id="TZA3391" data-name="Arusha">
 </path>
 <path d="M776.6 337.4l-4.6 4.9-0.7 6.1-0.1 4.5 1.3 3.9 1.8 2.4 0.6 3 1.1 2.6 1.5 2.4 0.8 3.5-4.4-0.2-2.5-1.4-2.5-1.8-1.6 0.1-6.3 1.3-4.5 1.6-5.7 1.3-5.5-1.3-4.4-1.5-4.6 0-5.1 4.6-13.5 16.4-0.8 2.1 0.8 2.5-0.1 2.6-2.1 8.9-2 6.1-8.5 11-1.7 4.9-2 10.9-2.9 4.7-10.9 7.5-13.4 10.8-4.9 1.6-6.4-1.9-6.2-2.4-4.5-4-3.4-5.2-2.6-5.4-3.7-4.5-5.9-2.8-5.6-3.4-3.3-4.3-2.6-4.6-4.3-4.3-4.8-3.8-3.5-3.7-1.2-4.2 1.6-5.2-1-5.9 2-4.9 2.9-4.6 2-6.4 3.4-22.2 1-18.8-0.5-3-2.1-4.7-1.5-5.1-0.9-5.2-0.6-27.3-23 6.5-2.8 2.1-2.2 1.3-1 0.8-2.9 4.7-4.5-0.1-2.3 1.5-2.2 1.1-1.5-0.9-1.6-0.6-1.5 1-1 1.6-4 3.8-7.2 5-2-0.8-0.8 0.5-0.5 1.6 0.2 1.5 0.5 1.5 1.6 3.3-0.8 3.5-4.7 7.4-6.3 12.8-2 3.3-4.8 0.8-8.5-0.7-1.1-0.6-1.2-0.1-5.5-2.1-3.5-6.5-5.4-1-3.6-2.5 0-3.9-0.9-3.6-6.1-3-3.4-7.5-4.6-5.3-6.2-3.7-4.2-4.6 3.4-9.3 4.9-8.9 5.3-7-0.2-2.8-7.9-8.5-3.4-7 3.2-1.7 3.5-1.5 3.2-1.7 5.4-1.6 1.3-1.4 0.2-1.4 0.9-1.1 8.8-5.4 2.8 0.1 2.6-0.9 3.2-2.2 3.6-1.3 6.1-6.2 3.9 0 3.6 1.9 3.7 0.7 2.8 1.3-2.3 2.6-1.8 3.1 2.8 2.9 4.1 0.6 1.6-2.5-0.2-3.5 10.9-2.9 1.6-3.3 0.5-6.4 2.4 0.3 1.3 4.4-2.3 6.6-0.7 6.7 2 6.4 1.9-0.6 0.3-2.7 2.4-3.1 3.3-2.9 4.5-5.9 5.3-1.8 3 4.3 4.4 8.3 20.7 30.2 4.6 1.9 4.3-0.6 0.9-1.8 4.1-0.8 4.3-0.4 2.5-0.8 2.6 0.1 1.6 0.6 1.3-0.7 0.1-5.3-2.1-11.6-0.8-10.6 1.5-3.7 5.5-7.2 1.7-0.6 1.8-0.4 1.9-1.7 1.8-0.6 0.7-1.5 0-1 0.6-0.7 6.7-0.3 1.7 0.4 1.7 1.2 1.7 3.1 2.8-0.7 2.3-3.1 2.4-2.6 6.9-0.1 2.1-1.9 1.7-2.4 2.9-2 3.2-1.2 2.3-0.6 2.3-0.2 2.5 0.3 2.5-2.5 1.8-0.5 1.8-0.2 1.2 1.4 1.1 1.7 2.6 0.8 2.7 0.2 1.3 1.1-0.4 1.8 2.9 6.7 4.9 5.4 3.4 5.8 2.7 4.8 1.7 4.1-0.4 10.2 0.9 4.7 1.1 1.9 2 7 0.6 2.4 0 2.6-1.3 3.4-0.1 2.8 0.2 3-0.5 7.1 0.2 7.1 3 5.2 4.7 3.9 2.2 0.3 8 4.5 6.4 4.9 2.2 0.8 2.1-0.4 3.4-2.1 2-0.3 5.6 0.2 1.2 0.5 1 0.7 1.8 0.3 0.9 0.4 2 1.8 2.5 2.8z" id="TZA3392" name="Manyara" data-id="TZA3392" data-name="Manyara">
 </path>
 <path d="M720.9 179.3l20.3 11.3 1.4 2.3 3.7 22.4-1.7 0.2-0.9 0.8-0.4 1.2 0.2 1.7-1.8 0.1-2.1 1.2-2.1 1.6-1.3 1.5-0.9 1.9-0.3 1 0.2 1 0.6 0.7 1.5 0.2 0.5 0.7-0.4 1.5-0.7 1.8 0.3 1.3 4.4-0.3 1.9 0.2 2 0.5 1.7 0.9 1.3 1.1 0.7 1.5 1.6 5.6 0.9 1.9 1.3 1.7 5 3.6 15.7 11.3 15.7 11.3 22.9 16.6-31.4 45-4.1 2.8-2.5-2.8-2-1.8-0.9-0.4-1.8-0.3-1-0.7-1.2-0.5-5.6-0.2-2 0.3-3.4 2.1-2.1 0.4-2.2-0.8-6.4-4.9-8-4.5-2.2-0.3-4.7-3.9-3-5.2-0.2-7.1 0.5-7.1-0.2-3 0.1-2.8 1.3-3.4 0-2.6-0.6-2.4-2-7-1.1-1.9-0.9-4.7 0.4-10.2-1.7-4.1-2.7-4.8-3.4-5.8-4.9-5.4-2.9-6.7 0.4-1.8-1.3-1.1-2.7-0.2-2.6-0.8-1.1-1.7-1.2-1.4-1.8 0.2-1.8 0.5-2.5 2.5-2.5-0.3-2.3 0.2-2.3 0.6-0.2-16.7-3.4-6.3-6.4-4.2-2.9-1.3-2.3-2.2-0.8-4.3-0.2-4.4 2.2-6.1 6.1-1.8 3.1-1.3 2.3-2.4 5.5-4.5 4.2-2.9 4.7-0.1 1.6 0.6 1.8-0.6 3.3 0.3 3 1.8 7.6 3.1 4.1 1z" id="TZA3393" name="Kilimanjaro" data-id="TZA3393" data-name="Kilimanjaro">
 </path>
 <path d="M520.7 67.3l-2 36.3 0.7 4.1 3.5 2.3 5.2 1.6 1.3 4.5-1.3 5.5-2.4 4.9-2.5 0.8-2.3 1.1-3.8 10.8-50.5 0.3-3.4-1.4-5.2-3.6-2.3-0.1-3 0.4-2.6-1.4-2.1-3.2-2.5-2.9-6.8-4-3-2.2-2.2-3.1-2.1-1.3-2.5-0.5-7.2-3.8-3.2-0.1-3.2-0.3-5.9-5.5-2.3 1.4-0.6 3.2-3.6 0.3-6.3-0.4-2.4 1.2-3.6-2 0-0.1 0-0.8-1.4-3.6-2.7-2.6-3.4-0.9-2.7 1.4-0.8 0.3-1.6 1.2-2.5 1.9-2.3 0.8-1.2 1.1-2.1 2.3-3.7-1.9-4.5-0.8-1.3-0.1-4.9-0.2-3.5 0.4-1.7 0.3-1.9 0.7-1.3 0.1-0.6-0.7-0.4-1.2-1-1-0.9-0.5-1.4-0.8-1.5-0.5-1.2-0.5-2.1 0-1.8 1-1.7 1.9-1-1.9-0.2-1.3 0.1-0.3 0.8-1.2 0.3-1 0-1-0.3-1-0.3-0.5 0.2-0.3 0.4-0.7 0.1 0.1 0.6 0.2 2.2 0.1 0.3 0.1 0-0.1 0-0.1 2.3 0.7 0.5 0.3 0.6-1 0-1.3-0.7-1.1-1.4-0.7 1.1-1 1.4 1 1 1.5 0.3 0.5 0.6 1.1 0.6 0 0-2.7 1.5 0.3 2.5 2.2 1.1 0.9 0.5-0.9 0.6-0.2 0.8-0.2-2.6-3.8 2.5-2.3 2.9 0.8 6 4.1 4.3 0 0.4 0.2 0.6-0.6 1-1.4 0.4-0.4 0.2-0.8 0.2-0.6-0.4-0.4-1-1.1-1 0.5-1-0.5 0.3-0.1 0.3-0.3 0.1-0.3-3.6-0.9-2.9-0.2-1.1-0.1 2.5-1.6 0.2-0.5-0.8-1-2-1.3-0.5-0.8 0.6-1.1-0.3 0-1.9-0.1-0.7 0.4-0.2 1-3.2 0.1-3.7 2.6-3.5 1.8-0.6-0.4-2.3-1.6 2.1-1.3 0.5-0.3-0.1-0.7 0.1-1.3 0.2-0.3 0.5-0.9 0.2-0.4 0.9-2.7 0.7-1 2.5-2 2.1-0.5 5.5 0.1-0.7 2.4 0.9 1 1.9 0.3 2 0 1.1-0.4 1-0.9 1-1.2 1.3 0 0.8-0.3 0.7-0.6 0.7-1 0.4-1.1-0.2-1.4 1-0.6 0.3 0.2 2.9 0.7 0.5 0.7 1.1 0.2 1-0.3 0.5-1.2-0.5-0.5-2.4-1.6-0.8-0.8-0.7 0.7-0.8-1.4-1.1-1.2-1.9-1.2-0.6-0.6-0.7-1.4 0.6-0.3 3.3 0.4 9.4-0.1 1.3-0.5 0.6-0.9 0.3-1-0.2-1.1-0.7-0.8-0.8 0.4-0.8 0.1-1.5-0.5 1-0.8 0.8-0.4-0.1-1.6-1.1-1.6-1.1 0.4-0.8-0.1-0.5-0.5-0.2-1.1-0.9 0.4-0.8 0.2-0.8-0.1-0.6-0.5 1.3-1 1.4-0.1 1.4 0.1 1.3-0.6 0.9-1.3 0.4-1.4-0.3-1-1.3 0.3-0.6-1-0.8-0.8-0.5-0.9 0.6-1.1 1.2-0.6 1.3 0.2 1.9 1 1.4 1.1 0.8 0.2 0.8-0.2 1.2-0.9 0.8-0.2 1.4 0.1 1.2 0.4 0.8-0.1 0.4-1 1.2 1.1 0.6 1.4 0.7 1.3 1.6 0.6 2.6-0.1 1.7 0.4 1.5 0.7 0.8 0.3 0.9-0.7 0.4-0.6 0.5 0 1 0.7 0.8-0.2 0.3-0.5-0.3-0.4-0.8-0.2-0.8-2-0.7-0.6-0.9 0-0.8 0.4-1.4 0.9 0-1.1-0.3-0.5-1.1-0.9-1.1 0-0.8-1.9-0.6-0.7-0.4-0.8-0.8-0.4-0.8-0.2-1.6 0.2-0.8 0-1.2-0.7-0.9-1.1 0-1.1 1.5-0.9 5.6 1.9-0.5-1-0.8-0.9-1.1-0.4-1.3 0.4 0.2-1 0.4-0.3-2.4-2.3-0.6-1.3 1.1-1.4 1.6 0.6 5.7-0.6 2 0.1 1 0.3 1.6 1 1.9 0.2 0.7 0.3 1.3 1.2-0.3 0.2-0.5 1.3 0.2 0.4 0.9 0.2 0.6-0.6 0.3-0.9 0-0.9-0.6-1.6-1.4-1.5-1.9-1.2-1.7-0.4 0-0.6 0.5-1.3-0.5 0-1.8 0.7-2.1-0.7-1.1-2 1.2-3.1 1.3-1.3 1.4-0.9 3-1.4 1.3-1 2.7-3.2-0.2-0.9-0.9-1.1-0.4-1 1.5-0.4 2.2 0.1 0.7-0.1 0.4-0.5 0.5-1.2 0.7-0.3 2.8-1.9 0.2-0.6 24.7 13.8 19.7 11 19.7 11.1 43.7 24.3z" id="TZA3394" name="Mara" data-id="TZA3394" data-name="Mara">
 </path>
 <path d="M847.4 459.8l-7.7-1.3-1.5 1.2-1.8 0.7-1.3-0.3-1.3 0.1-1.6 1.8-2 0.6-5.3 2.3-1.2-0.7-1.3 0.4-1.9 0-1.6-0.7-2 1.5-3-0.7-1.6-0.9-1.4-1.4-2.9 0.2-2.6-1.1-2.4-3.4-3.9-1-3.4-1.3-2.6-2.8-5.8-2.9-6.5-0.5-2.4 1.1-2.7 0.5-6.2-1.5-13.9 3.8-1.5 1.3-2.2-0.6-1.4 1.1 0.1 2.6-3.7 1.2-4.8-0.2-2.5 2.5-2.2-1.9-6-6.9-1-4.2-3.1-1.3-1.6-0.2-1.6-0.8-1.4 0.1-1.2-0.4-0.2-0.7-0.5-0.4-3-1-1.4 2.5-1.6 10.6-3 2.7-3.3 1.3-2.9 3.6-3.9 2.9-1.8 3.7-2.5 2.5-2.5-1.6-2-2.3 0-0.8-0.4-0.6-0.3-2.5 1.9-2.7-2.5-0.8-2.7-1.4-1.4-9.8 10.9-7.5 2.9-4.7 2-10.9 1.7-4.9 8.5-11 2-6.1 2.1-8.9 0.1-2.6-0.8-2.5 0.8-2.1 13.5-16.4 5.1-4.6 4.6 0 4.4 1.5 5.5 1.3 5.7-1.3 4.5-1.6 6.3-1.3 1.6-0.1 2.5 1.8 2.5 1.4 4.4 0.2-0.8-3.5-1.5-2.4-1.1-2.6-0.6-3-1.8-2.4-1.3-3.9 0.1-4.5 0.7-6.1 4.6-4.9 4.1-2.8 31.4-45 8.5 6.1 15.6 11.3 15.7 11.4 31.4 22.6 0.6 0.6 1.6 0.5 0.6 2.6-0.5 3-1.7 1.5-2.5 1.3 2 0.8 1.4 0.1 0.8 0.5 0.2 2.1-0.1 2-0.3 1.6-0.6 1.4-2.9 5-1.2 1.1-0.6-1.3 0.4-1.8 0.6-1.8 0.3-1.8-0.6-1.6-1.6 4.8-1.5 1.7-2-0.2 1.6 2.5 0.3 0.9 0.3 5.3-0.3 0.9-0.6 0.4-1.4-0.5-0.8 0.4-0.4 0.4-0.9 1.8-0.1 1.3 1.3-0.1 2.9-1.2 0.1 1.4 1 2.2 0.2 0.9-0.4 0.6-3.5 3.1-0.6 0.8-1.8 3.8-2.8 4.3-0.3 0.6 0.7 0.7 1-0.8 1.4-1.8 0.6 1.2-4 11.5-1 2.1-1.3 1.7-2 1.1-0.9 0.8-0.2 1.2 0.4 0.8 1.3 0.9 0.1 1.5-1.2 3.7-2.6 5.4-3.2 4.8-3.1 2 1.3 0.5-0.6 2-0.1 4.3-0.9 1.7-1.1 1.4-1.7 3.5-2 3.1-0.7 2-0.3 2.1-0.1 6-0.4 0.9-1.1 1.4-0.4 1.2z" id="TZA3395" name="Tanga" data-id="TZA3395" data-name="Tanga">
 </path>
 <path d="M136 416.9l-0.2 2.3-2.6 1.4-0.1 1.1 0.3 1.1 0.6 1.5 0.8 0.4 6.1 4.7 0.5 0.2 1.3-0.1 0.4 0.2 0.3 0.6-0.3 1.3 0.8 1.7 0.4 1.5-0.6 2.1 0.6 1.9-0.5 1.3 0.2 0.7 1.2 0.2 1.8-0.3 1.8-0.7 1.9-0.3 1.8 0.6 1.8 3.2 1.3 1.4 1.7-0.4 1.7-0.7 3.8 0.4 1.7-0.6 3.4 2.1 1.8 0.8 2.1 0.3 1.8-0.4 1.8-0.5 1.5-0.1 1.4 1 1-1.5 1-0.2 6.9 2.1 0.9-0.1 1-0.6 3.5-1.4 1.2-0.3 0.5-0.9 1-1 0.7-0.4 1.9-0.8 1.9-1.5 1.8-1.6 2.1-1.4 2.7-0.6 0.5 0.2 1.4 1.4 0.5 0.2 1.1-0.5 2.1 1.1 4.3 0.8 1.6 0.1 1.4-0.8 0 0.7 5.3 1.6 2 0.3 0.5 0.3 1 2.8 0.8 0.9 1.7 1.6 0.7 0.7 0.3 1.8 0 4.6 0.6 1.5 1.1 1.7 1.7 6.2 1.5 3.4 2.2 3.1 2.3 2.6 2.2 1.8 4.8 2.5 1.8 1.2 1.1 0.2 0.6 0.5 0 1.9 0.9 1.4 1.5 1.2 3.2 1.4 1.8 1.3 2 0.3 0.9 0.4 1.4 1.4 3.3 5.3 2.8 2.9 3.8 1.4 13.4 1.2 1.6 0.9 0.4 1.9 0.8 1.3 0.7 1.3-0.5 1.8-0.9 1.6-1.9 2.4-2.5 1.5-5.5 6.9-2.6 8.6-0.5 9.6 0.6 9.6-1 9.5-2.1 9.3-4.7 2.6-21 7.3 0 9.8-3.7 10.1-3.3 6.5-9.5 3.7-3.2 4.9-3.6 7.5-2.5 7.9 1.6 3.3-20.5-3.5-15.1-2-12-2-2-13.2-2-14.1-1-10.1-5-6.1-15-1-13-1-4-6.1 0-8-4-12.1-8-3.1-20.1 1-10 3.1-1.3 0.9-4.5-2.9-0.6-1.3-2.2-1.4-6-6.8-1.6-3.6-0.7-2.3 0.2-1-3.5-4.5-2-4.9-0.8-0.8-1.6-0.4-1.6-1.1-4.3-4.1 2.1-2.9 2.7-8.1 8.7-6-0.3-4.2-1.6-3.7 1-5.8-3-3.4-4.3-2.5-2.8-8-5.5-10.3-2.7-7.6-6-35.2-3.5-8-8.4-7.1 1.7-2.1 19.6-0.2 4.5-1.1 3.7-3.1 5.9-6.7 3.2-2.2 25.3-0.2 4.2 0.3 2.9 1.8 1.3 2.1 0.6 0.5 0.6 0.1 1.4-0.2 0.6 0.1 2.2 1.6 2.8 3.9 1.9 1.5 1.4-1.3 2-3.6 1.6-0.8 1.6 0.7 0.6 1.6 0.3 4 0.5 1.1 2.1 2 1.1 2.3 0.4 0.6 1.6 1.7 0.8 1.2 2.2 7.5z" id="TZA5584" name="Katavi" data-id="TZA5584" data-name="Katavi">
 </path>
 <path d="M517.1 139.2l0.8 8.8-6.1 26.3-2.5 4.7-5 2.2-1.4 1.2-1.6 1-3.5-1.1-2.2-3.4-3.4-2.8-3.2-0.5-0.8 65.8-2.5 2.4-2.2-0.6-1.8 0.7-0.2 1.4-0.5 1.3-3.2 2.9-2.4 3.5-0.4 3.7 1 3.6-3.3 0.6-2.4 2-1.2 2-15.6 6.3-3.4 0.7-3.3 1-2.7 2-4.4-3.1-3.9-3.7-5.1-6.6-3.9-9-3.2-10.5-2.9-4.9-7.6-2.2-8.5-0.3-6.8-0.7-4.4-2.7-2.7-5.1-2.7-1.2-3.1 1.7-3.4 0.7-4.7-1.2-8-3.9-6.6-6.1-4.4-3.9-4.7-0.6 2.2-6.6 2.3-2.2 1.2-2.8 0.6-4.4 2.7-8 0.8-3.7-2.9-10.3 1.3-2.4 2.2-0.5 1.4-1.7 1.6-1.4 2.2-0.6 2.5-1.7 6.3 1.9 3.5-2.8 1.6-0.6 1.9 0.1 1.8-1.8 0.3-2.7-2.2-4.2-4.2-2.5-4.2-2-3.4-2.9-4-4-7-8.2 1.3-0.8-0.3-1.3-1.1-0.7-0.3-0.3-0.1-0.9 0.3-0.7 0.8-0.9 0.9-0.8 0.8-0.4 1.5-0.2 3.7-1.5 1.4-0.8 2-2.6 1.3-1 1.8 0.5 3.1-2.5 1.3-0.7 4-0.9 1-0.8 0.9-0.2 5.4-3.5-0.2-0.9-1.1-1.2 0.1-0.9 0.5-1.5 0 0.1 3.6 2 2.4-1.2 6.3 0.4 3.6-0.3 0.6-3.2 2.3-1.4 5.9 5.5 3.2 0.3 3.2 0.1 7.2 3.8 2.5 0.5 2.1 1.3 2.2 3.1 3 2.2 6.8 4 2.5 2.9 2.1 3.2 2.6 1.4 3-0.4 2.3 0.1 5.2 3.6 3.4 1.4 50.5-0.3z m-139.1-34.1l1.6-1.2 0.8-0.3-0.7 0.3-1.7 1.2z" id="TZA5585" name="Simiyu" data-id="TZA5585" data-name="Simiyu">
 </path>
 <path d="M188.6 127.1l0.7 0.5 1.6 0 2.4-1.1 1.8-1.6 1.9-1.1 2.8 0.6-0.7 1.3 1.4 0.7 0.8 0.8-0.1 0.6-1.4-0.2 0 1.8 0.3 1.1 1.6 2.1 1.2 0.4 0.6 0.4-0.6 1.5 0.5 1.3 0.1 0.7-0.4 1.2-0.8 1.1-1.1 0.9-1.4 0.7-1.4 0.1-1.3-0.1-0.8 0.2-0.3 1.3 0.5 1.6 1.1 0.5 1.1 0.3 0.4 0.9 0 5 0.6 0.8 1.3-0.2 2.8-0.9 2.8 0 1.5-0.2 1.1-0.5-0.2 1.6-0.8 0.1-1.1-0.4-1 0-0.7 0.5-0.1 1.8-0.6 0-1 0.4-1.2-0.1-0.5 0.3-0.6 0.7 0.3 1.4-1.2 2.2-0.3 2.1 0.2 0.2 1.7-0.1 0.5 0.2 0.3 0.6 0.1 1.5-0.8 4.5 0.1 2.2 1.2 1.8 1.3-0.7 1.4-1.1 1.2-1.3 0.6-1.3-0.3-1.2-1.2-3.2 0.2-1-0.6-1.9 0.2-0.9 0.5-0.5 1.5-1.1 0.9-0.2 1 0.9 0.5 1.4-0.2 1.4 1.5-0.5 1.6-0.2-0.3-1-0.3-2.9-0.1-1.8-0.4-0.7 0.5-0.5 0.5 0 0.2 0.5-0.1 1.4 2.4-0.7 0.6 1.2-0.1 2.6 2.1 0.6 0.5 1.3 0 1.8 0.3 2.1 1.1 1.2 1.7 0.3 1.5-0.8 0.7-1.7-0.4-0.9-1.7-1.4-0.5-0.6-0.1-0.7 0.2-1.7-0.1-0.7-1-0.9-0.6-0.7-0.5-2-0.6-1-0.7-0.7-1.4-0.6-0.7-0.4-0.3-0.6 0.2-0.7 0.6-0.5 2.6-0.1 1.3 0.3 0.8-0.6 0.3-1.4-0.6-0.7 0.3-2.2 0-0.8-0.6-1.9 0.8-1.6 1.2-0.4 0.8 1.7 0.7 0 0-1.7 0.6-1.5 0.5 1.2 2.1 2.4 1.1 1.4 0.4-1-0.4-0.8 0.7-0.2 0.8 0 1.7 0.8-0.3 0.9 0.6 0.9 1 0.5 1.2-0.4 0.6 1.8 0 0.8 1.7-0.9 0.3-1.4 0.2-1.3 4.7 1.6 2.9 3.8 15.5 2.6-4.9 9.4 16 9.3-2.3 7 8 6.7-7.9 21.9-3 0.6-5.7 2.8-2.8 2.2-2.1 2.5-1.5 3.1-2.9-0.3-2.4-2-0.8-3.4-2.7-1.9-3.6 1-2.8 2.3-4 5.1-1.9 6.2 1.3 9.3 1.6 9.1-1.3 7.2-8.4 0.6-9.4 1.3-9.7 4.5-8.1 7.2-5.2 7.8-1.2 5.8 1.2 6.4-3.6 5.5-1.3 2.8 0.7 1.7 1.8 1.1 1.1 2.4 0.5 2.6-6.3 3.2-8.9-1-3.8 1-2.3 3-1 3.9-2.1 3.2-3-4.8-2-4.8-0.3-1.6-1.1-1.4-0.3-2.9-0.8-2.9 0.3-4.5 3-8.5 0.5-4.5-1.6-7.6-5.6-12.2-5.1-4.9-2.2-5.8-0.3-6.3-0.8-3.2-0.4-2.9 0.3-3.4-1.7-3.4-2-2.9-1.7-3.2-2.3-6.4-1-6.6-4.9-3.6-1.7 1.1-1.3 1.6-1.2-0.1-0.8-0.9 0.2-5.1 3.5-5.4 2.6-6.6-0.2-7-0.5-0.7-0.7-0.3-0.7-1.1-0.1-1.4-2.1-4.1-3.9-1.6-1.1-5.8-4.6-3.9-4.2-4.5 3.3-9.1 10-4.8 13.6-23.3 2.9 0.6 6.1-1 4.9-1.6 4.2 0.7 18.4 8.1 6.4 0.2z m20.4-9.6l0.4 2.9 0.8 2.5 2.5 1 1.1 0-0.6 1.4-0.2 1.7 0.5 1.3 0.8 1.3 0.7 1.4-0.1 1.6-0.7 0.7-3.4 2.8-1.4 0.6-1.1-0.5-0.7-1.3-0.2-1.4 0.2-1.3 1-2.1 0-1.3-0.6-0.9-1.9-1.6-0.7-1.2 1.3-1.1-0.8-0.5-1.8-0.1-1.8 0.5-0.6-3.3 1.3 0.3 1-0.7 0.6-1.2 0.2-1.5-2 0.7 0.2-2.3 1.8-4.7 0.6 0 0.1 1.8 1 0.6 1.1 0.6 0.4 0.7 1 2.6z" id="TZA5586" name="Geita" data-id="TZA5586" data-name="Geita">
 </path>
 <path d="M531.6 742.4l1.8-0.9 1.5-1.3 2 1 6.3 9.6 17.4 13.8 1.2 4.2 0.3 4.4-2.7 2.7-3.4 2.4-4.2 2.1-3.5 2.2-2.7 2.9-3.5 2.2-8 7.5-6 3.2-8.9 9.6-6.7 2.8-3.1 1.6-0.9 2.6 1.7 2.5 2.1 1.9 1.4 3.3-0.3 4.6 3.6 5.3 0.9 6.2-7.7 10.8-1.2 3.1-3.3 0.7-3.4 0-3.1 1.1-2.2 2.4-0.4 6.2-7.9 6.1-6.8 3.4-4.3 6-7.9 5.1-2.6 1.2-2.9 0.2-1-0.7-1.2-0.3-2.6 0.5 0.2-1.7 0.8-2.1 0.2-0.9-0.4-1.8-1.7-2.9-0.4-2.1 1.8-10.2 0.1-1-0.2-1.1-0.8-2.1-0.9-4.9-3-6.9-0.7-3.2 0.1-0.9 0.9-1.9 0.2-1-0.2-1-1-3.2-2.8-4-1.1-1.9-9.1-11.4-0.1-0.4-1.7-1.6-0.4-0.2-2.1-2.2-0.5-0.7-0.4-1.8-0.3-1.6-0.6-1.3-2.7-1-8.9-9.5-2.7-1.2-1.6-1.7-0.7-0.4-3.1-3.8-1.3-0.8-1-1.1 0.4-3-3.7-3.7-1.9-0.3-1.7-0.7-2.8-3.9-5-8.7-2.1-2.7-0.2-2.9-1-1.2-3.1-0.7 0.5-2 1.9-1-1.5-4.2-2.2-4-3-3.5-0.5-4.4 5.2-8.7 3.8-3.4 5-1 6.8 2.4 2.6-0.9 0.9-2.6 4.7-2 5.4 0.5 5.2-0.1 9.2-2.2 8.8 1.2 4.8-0.1 4.2-1.7 3.3-3.4 2.4-4.9 2.9-2.1 3.5-1.2 3 0.3 2-1.4 2.4-6.1 13 4 0 4.7 22 7.8-1 16.6 8.7 6.2 8.7 0.5 6.7-2.2z" id="TZA5587" name="Njombe" data-id="TZA5587" data-name="Njombe">
 </path>
 <circle cx="738.6" cy="258.6" id="0">
 </circle>
 <circle cx="123.3" cy="26.4" id="1">
 </circle>
 <circle cx="819.8" cy="324.7" id="2">
 </circle>
</svg>