<?xml version="1.0"?>
<!--
************* Copyright (c) 2017 Pareto Softare, LLC DBA Simplemaps.com *******************		
************* Free for Commercial Use, full terms at  http://simplemaps.com/resources/svg-license ************
************* Attribution is appreciated! http://simplemaps.com ***************************
-->
<svg baseprofile="tiny" fill="#7c7c7c" height="1045" stroke="#ffffff" stroke-linecap="round" stroke-linejoin="round" stroke-width="2" version="1.2" viewbox="0 0 1000 1045" width="1000" xmlns="http://www.w3.org/2000/svg">
 <path d="M548.7 842.4l-1 3-0.3 3.3-1.2-2.4-1.3 0 0.1 2.7-0.4 1.9-3.8 7-1.4 1.3-2 0.8 0.8 2.2-1 1.8-3.5 2.4-2.4-0.5-1.4-2.2 2.7-2 3.1-3.4 0.8-3.5-4.2-2.4 2.9-1.5 3.6-0.3 2.3-1.9 0-3.1 0.3-1.3 2.3 0.6 2.4-1.7 2.6-0.8z m-23.8-2.5l0 1.2-4.6 0.2-5.1 1.4-1.2-1-0.4-1.8 5 1.2-1.9-4.1 0.1-1.8 1.8-0.5 2 1.3 1.8 3.3 2.5 0.6z m-69.6-10.2l-2.2-4.7-1.5-2-0.9-3 0.9 2.9 1.5 2.1 1.6 2.9 0.6 1.8z m9.7-13.3l4.7 1 8.3-0.5 2.8 1 0.2 3.2-3.2 6.2-0.6 3.7 2.5 2.6 3.8 0.3 4.7-1.1 7.8-2.9-1.3 2.4 1.4 1.5 1.5 0.7 1.6-0.1 1.8-0.8-0.9-1.6 0.5-2.6 1.7-0.8 1.3 2.9 4 4.3 0.9 3-7.5-0.2-2.2 6.1 0.7 8.5 1.5 6.8-2 0.4-2.4 3.3-2.1-0.3-1.6-0.9-0.4-1.2 1-2.4-3-0.3-7 1.4 0.5 1.5 0.1 3.5 0.6 2.5-3.7-1.1-1.2 3.3-0.1 2.8-5.2 0-1-2.4 0.6-1.8 3.1-3.3 2.7-4.7 0.6-2.5-0.8-2.9 1.9-2 3.7-0.5 0-1.3 1.6-2.5 2-1.6 1.5 1.8 3.1 0.9 1.2-1-0.1-2.1-1.2-2-3.6-2.2 1.2-2.4-1.9-1.9-2.8-1.6-1.6-1.8-1.2 0-2.7 1.6-5.2-0.4-5-1.5-2.2-1.4 1.3-2.4-0.9-1.7-1.4-0.8-0.2-1.4-1.2-1.4-2.6-1.3-5-1.7 0-1.2 2.7-0.5-0.1-3.6 1.8-0.9 2.2 0.3z m48.6 1.8l2.4 3 0.9 2.2-3.3 0.2-2.3-2.6-1.4 0.1-1.6-1.4-0.7-1.4 0.5-1.2 1.8-1-3-3.4-3.4-1.6 2.9-0.9 2.9 1.1 2.1 2.2 2.2 4.7z m-67.4 0.3l-1.6-2.3 0-0.1 1.6 2.4z" id="UGA2631" name="Kalangala" data-id="UGA2631" data-name="Kalangala">
 </path>
 <path d="M672.6 651l9.4-1.2 6.4 5.4 4.8 2 4.5 2.8 3 2.7 4 2.4 1.3 3.3 0.9 3.3 5.2 2.1 6 0.4 5.3 3.6 3.3-4 4.6 4.3-0.4 4 0.9 3.7 2.8 2.5 1 3.2-3.3 5.5-4.7 4.5-1.7 5.2-1.6 3.8-2.5 1.6-4.8 0.9-1.7-2.3 2.6-1.1-2.4-1.1-2.6 0.3-5.1 1.9 1.9 1.2 0.6 2.7-2.9-1.8-3.1-1.3-3.3-0.3-3.2 0.7 1.8-2.9 0.1-1.6-0.7-1.7-6.8 2.5-2 1.4-1.4-5.5 2.9-1.4 4.3-0.4 3-2.8-2.9-2.7 4.1-7.3 3.1-4.2-0.8-1.1-3.5-1.2-2.5 4-1.2 3.5-4.9 3.4-5.1-0.4-1.4-7.9-1.7 1.1-5.9 2.8 1.6 3.9-2.6 2.4-4.6 0.8-4.3-1 1 4.1 3.1 1.4 3.9 0.2 5.1 1.2 2.1 0.8-0.2 2.4-3.9 2.7-6.2-2-5.6-4.2 0.7-6.6-1.2-6.8-4.3-5.4-10.8-9-2.5-3.2-6.2-14.7-0.3-3.9 4.7 2 4-2.6 5.7 1.1 1-3.8 4.5 0.3 4.4-1 3 1.4 4.2 1z" id="UGA3064" name="Jinja" data-id="UGA3064" data-name="Jinja">
 </path>
 <path d="M853.7 475.4l2.4 0.1 1.8 0.8-0.9 12.9-15.2 4.3-11.1 2.1-7.9 4.7 1 11.7-5.3 3.7-3.7 3.2 0 7.4 0.6 10.6-7.4 4.2-6.4 4.8-3.5-2.7-5.1-0.8-4.8-1.4-3.5-3.2-3.2-3.8-5.1-0.4-1.3-13.6 4.3-5.3 6.9-2.7 1-11.7-1.6-17.4 3.7-6.4 6.5-2.4 9 2.7 9.1-2.2 8.7-1.2 31 2z" id="UGA3065" name="Kumi" data-id="UGA3065" data-name="Kumi">
 </path>
 <path d="M700 404.3l0.8 3.8 1.6 3.4 3.4 1.8 2.5 2.3 0.1 7.4 4.9 5.5 1.8 3.8 0.5 4.1-3.2 5.8-0.2 7.1-6.8 4-8.5 6.4-7.5 3.2-10.7 0-1.1 8.1-0.4 7.2-5.8 8-1.4 20 0.2 17.2-13.7-1.7-5.4-5.3-6.4-4.5-10-5.1-3.1-1.1-3.3 0.6-2.7-2 0.2-16.3-4-15.2 6.5-3.5 1.9-9.3 6.8 2.8 6.7-0.5 2.9-1.1 2.8-1.5 1.4-4.8 3.7-10.5 1.2-6 1.6-1.8 2.3-0.9 16.5-10.2 2.8-3.2 2.2-3.7 1.7-1.4 1-1.9 1.6-14.7 7.6 0.2 7 3.5z" id="UGA3066" name="Kaberamaido" data-id="UGA3066" data-name="Kaberamaido">
 </path>
 <path d="M625 557.7l0.8 3.3 0 4.1-0.8 3.6-4 3.2-0.6 3.9 3.4 24.3 2.2 7.1 8.7 13.6 3.6 7.1 2.3 7.8 0.8 8.7-0.3 8.2 0.3 3.9 6.2 14.7 2.5 3.2-9.8-5-2.4-2.9-9.1-10.7-5.6-4.4-9.8-4.2-7.1-5.6-6.7-10.8-5.4-11.5-3-21.5 0.7-21.7 2.4-18.6-2.7-18.5-0.4-3.9 0-4.7-0.6-2-3-1.4-1.4-2.7-2-0.6-3.3-1.9-5.3-1.9-0.5-15.1 22.5-0.8 3.6 13.5 3.7 7.9 7.7 8.6 1 3.7 4.2 5.1 1.7 5.9 5.5 9z" id="UGA3067" name="Kayunga" data-id="UGA3067" data-name="Kayunga">
 </path>
 <path d="M747.4 639.8l1.5 4.8 5 4.9 0.5 7.4-1.3 7.3-3.5 5.5-4.6 5-1.6 7.2 0.2 9.1-0.2 2-7.8-1.5-1-3.2-2.8-2.5-0.9-3.7 0.4-4-4.6-4.3-0.8-12.4 0-9.5-10.6-5.9-6.3-5.3 0.5-7.4 2.7-8.4-1.9-10.4 5.9 0.4 3.1 1.1 3 0.4 7.1-3.7 1.8 12.1 2.5 3.3 4 1.1 8.3 3.4 1.4 7.2z" id="UGA3068" name="Iganga" data-id="UGA3068" data-name="Iganga">
 </path>
 <path d="M686.5 601.3l-0.1 6.6-0.5 3.2-1.2 3-0.4 2.7 1 2.8-0.6 2.1-1.3 1.8-0.7 4.2-2.3 3.4-4.9 3.1-1.3 3-2 8.4 0.4 5.4-4.2-1-3-1.4-4.4 1-4.5-0.3-1 3.8-5.7-1.1-4 2.6-4.7-2 0.3-8.2-0.8-8.7-2.3-7.8-3.6-7.1-8.7-13.6-2.2-7.1-3.4-24.3 0.6-3.9 4-3.2 0.8-3.6 0-4.1-0.8-3.3 14.1 1.5 13.8 6.3 2.6 7.4 1.1 8 4.2 3.2 4.8 1.6 8.5 6.8 5.3 5.3 7.1 3.5z" id="UGA3069" name="Kamuli" data-id="UGA3069" data-name="Kamuli">
 </path>
 <path d="M630.2 460l-1.9 9.3-6.5 3.5 4 15.2-0.2 16.3-28-0.3-22.5 0.8-15.9 1.4-4.8-4.6-3.6-5.9-5.3 0.8-3.7-1-5.6-5.5-4-2.9-4.4-1.3-8.3-5.3-12.1-3.7-2.8-4.6 8.4-1.2 45 0.6 6.4-3.6 12-11.2 14.3-12.6 21-1.2 18.5 17z" id="UGA3070" name="Amolatar" data-id="UGA3070" data-name="Amolatar">
 </path>
 <path d="M747.8 574.9l-2.9 4.5-2.1 4.9-2.3 4.1-3 3.7-8.1 20.6-7.1 3.7-3-0.4-3.1-1.1-5.9-0.4-5.3-2.4-1.2-5.8 3.1-12.6-2.9-6.1-3.6-5.7-2.6-3.4-3.7-2.1 4.8-3.9 0.3-2.5-0.3-2.7 2.8-4.8 3.3-4.6 2.4-5.2 3.6-4.7 1.5-4.6 0.5-5.1 5.5 4.1 4.8 4.9 4.7 6.5 4.6 1.1 4.7 3.9 3.9 4.3 2.7 6.4 3.9 5.4z" id="UGA3071" name="Kaliro" data-id="UGA3071" data-name="Kaliro">
 </path>
 <path d="M768 602.6l4.3 4.4 1.5 5.9-0.3 6.7 0.6 6.4 2.6 6.3 1.4 5.8 1.8 1.7 2.6 1.7 2.7 6.3-5.7 1.8-5.7 0.1-5.6-8-3.4 4.5-5.5-0.7-6.1-2.5-5.8-3.2-1.4-7.2-8.3-3.4-4-1.1-2.5-3.3-1.8-12.1 8.1-20.6 3-3.7 2.3-4.1 2.1-4.9 2.9-4.5 8.7 6.3 2.8 3 0 8.8 2.1 3.4 6.6 6.2z" id="UGA3073" name="Namutumba" data-id="UGA3073" data-name="Namutumba">
 </path>
 <path d="M780 461.3l-0.6 4.1 0.9 3.2-4.5 2.2-5.7-1-3.8 2.9-2.1 5.3-1.3 4.6-13.1 3.4-11.8 1-12.8-3.2-8-5.3-5.4-11.3-12.2-3.2-2.7-4.3 8.5-6.4 6.8-4 0.2-7.1 3.2-5.8-0.5-4.1-1.8-3.8 1.3-7.9 2.1-7.5 1.1-5.9 4.3-3.3 7.1 1.6 3.5 6.6 4.5 5 6 3.4 4 0.9 3.6 1.5 1.2 3.1 0.7 3.2 3.4 2.8 3.9 2 3.4 4.1 6.3 5.1 5.3 6.1 1 3.7 0.6 4 3.4 4.3z" id="UGA3074" name="Soroti" data-id="UGA3074" data-name="Soroti">
 </path>
 <path d="M637.9 666.5l-7.9 5.2-0.6 8.9 2.9 10.4 5 7-1.4 10.1-8 8.6-10.6 10.3-5 9.2-5.4 6-0.5-1.4-1.4 0 0.3 3.3 1.1 3-2.6-0.9-4.2 0.4-0.9-2.2-1.2 0-1.4 2.1-0.7 2.1-0.5 6-4.5-2.6-2.9-1.1-2.2 1.9-2.1 1-3.9 0.8-3 2.1-2.3 1-2.8-0.5-1-1.2-0.1-4-1.4-2.4 1.7 0.1 3.3-1.4 4.3 0 1.3-0.8 3.2-4 2.4-1.3-2-4.1-1.1-1.8-1.8-0.5-1.4 3.8-1.5 2.5-1.6 1.3-5.3-0.8-0.7-2.2 4.2-7.1-1.3-2.6-3.1 2.6-1.5-1.6-0.1-3 2.9-2.9 0.6-2.5-0.6-1.8 0.1-0.2 4-8.6-3.3-10.7-0.9-6 0.7-6.2 0.9-4-2.2-4 2-4.6-0.1-5.1 15.2-5.7 3.6-12.2 2.9-17.9 0.7-17 5.4 11.5 6.7 10.8 7.1 5.6 9.8 4.2 5.6 4.4 9.1 10.7z" id="UGA3075" name="Mukono" data-id="UGA3075" data-name="Mukono">
 </path>
 <path d="M776.4 533.6l5.1 0.4 3.2 3.8 3.5 3.2 4.8 1.4 5.1 0.8 3.5 2.7 2.8 3.6 16 3.3 3.7 1.4 3.6 2 8.6 2.2 0.1 3.8 2 3.3 0.3 4.5-8-3.4-6.9-3.2-12.1-3.7-14.3 0.5-9 3.7-13.8 6.4-12.7 4.8-14.1-0.2-3.9-5.4-2.7-6.4-3.9-4.3-4.7-3.9-4.6-1.1-4.7-6.5-4.8-4.9-5.5-4.1-5-2.1-1.8-6.7 4.2-0.6 1.9 3.6 2.9 0.7 3.6-1.5 4.4 0.9 11.2-2.1 26.9-1.8 4.4-0.1 1.8 3.1 3.4 2.9 5.5-1z" id="UGA3076" name="Pallisa" data-id="UGA3076" data-name="Pallisa">
 </path>
 <path d="M327.6 737.3l8.3 0.6 3 2 4.1 6.4 3.8 1.6 14.3 7.9 13.5 9.1-7.6 5.7 6.8 34.7 3.6 16.7-0.5 6.2-3.5 1.3-12.5 1.9-10.3 0.2-4-0.9-4-0.5-15.1-2.5-10.2-6 2-4.5 1.4-5 1.9-4.4 0.7-5-0.3-2.7-0.9-2.7 0.8-5-3.9-4.5-5.1-3.3-2.4 6.3-9.7-4.6-0.6-3.2-9.8-3.3-4.3-0.8-2.5 1.7-4 1.4-6.1-1.8-5.2-0.7 1.2-3 2.3-2.4 1.6-4-0.2-11.8-0.7-7.3-3.8-6.8-3.2-7.3 1.5-0.9 6.8 0.2 6.5-1.1 7-3.5 6.9 0.6 5.1 6 5.9 4.5 7.6 0.2 5.5-5.4 8.3-0.3z" id="UGA3077" name="Sembabule" data-id="UGA3077" data-name="Sembabule">
 </path>
 <path d="M490.1 775.6l-1.5-1-2.7-3.7 0.9-0.9 0.5-2.8-2.6 4.3 0.4 2 2.2 4.9-0.3 3.3-1.1 2.8-2.2 2-3.3 0.8-7-1.8-5-3.2-5.1-1.7-7.2 2.9-3.9-1.4 1.8 4.2 6.5 1.6 1.6 4.3-3.4-0.8-7.2-0.5-3.2-1.2-10 7.1-0.8 0.4-10.2-16.8-4.4-5.1 12.8-6.5 11.5-8.8 6.8-7.3 9.3-3.7 9.4 1.6 7.8-4.7 8.8-5.7 5.3-4.2 3.6-3.6-0.5-7.3 0.7-10-0.5-7.2 0.4-3.7-0.9-9.8 19.3 0 12.9 13.7-2.9 17.4-2.5 7-2.4 3.5-4.3 2-2.7 2.4-1.5 3.7-2.4 4.1-3.5 2.9-4 1.2-3.3 2-1.8 5.1-3.9 3.2-3.6 2.3-1.3 3.8 0.6 6.9z" id="UGA3078" name="Mpigi" data-id="UGA3078" data-name="Mpigi">
 </path>
 <path d="M459.2 122.1l-0.9 26.3-1.2 2.3-2.3 1.2-0.3 3.7 0.4 3.9 1.5 3.2 0.5 3.1-3.6 6.6-0.4 3.8 0.9 4-1.1 3.4-1.9 3.3-2.2 2.9-2.7 2.5-1.1 3.5-0.3 3.9-6.7 11-0.4 3.7-0.8 3.6-36.6 11.4-19.3 3.1-5.7 7.9-4.6 6.6-2.5 1.7-3.4 0-2.3-1.2-1.7-2.6-4.7-1.3-3.9-5-4.4-3.7-7.5-2.1 2.4-7 2.7-3.8 8.3-8.9 6.7-10.2 2.2-4.7 4.9-10.5 2.2-7.8 0.7-4.9 0.6-1.5 3.3-3.8 1.6-6.3 2.7-3.5 6.3-6.3 1.1-3.4 0.9-4.7 1.3-4 3.2-2.5 2.1-3.5 1.9-0.8 4-0.3 4.2-0.9 1.8-1.1 4.4-4 3.9-1.5 2.1-0.3-0.4 2.3 1.8 0.4 3.4-0.3 3.7 2.9 4.4 1.6 4.1-0.4 3.6-2 2.5-3.2 1-3.9 2-2.6 9.3-2.7 2.4-1.5 1.5 0.1 2.1 1.1 2.3 3.7z" id="UGA3079" name="Adjumani" data-id="UGA3079" data-name="Adjumani">
 </path>
 <path d="M360.1 202.9l-6.7 10.2-8.3 8.9-2.7 3.8-2.4 7-4.7 9.6-1.7 7.4 0.7 7.7 3.9 6.5-8.1 4.3-3.4 1.5-0.9 2.5-1.5 2.8-2.7 2.1-0.9 2.7 0.3 3.8-2 2.6-6.5 5.2-17.8 2.3-7.3 4.1-12.2 2.1-10.8-4.7 0-8.4-2.4-6.7-1.8-7.4-7.6 1.1-10.3 3.5-6.2 4.1-11.6 2.6 4.9-13.3 0.3-2.8 1.2-1.5 2.9-0.8 1.3-1.8 4.5-12.4 0.3-7.3-2-7.2-4.2-7.4-3.2-2.9-8.5-6-2.2-2.7-0.2-3.5 0.7-3.9 2.9-8.5 8 0.2 19.8 0.9 6.4-7.1 7.7-5.2 5.1-5.6 1.3-9.4 4.7-8.6 3.9 3.8 5.2-1 3.5-2.8 1.5-4.3 3.7-2.1 4.7 0.7 5.3 1.7 3.6 3.8 7.5 5.5 9.3 2.6 3.4 3 2.2 4.3 4.3 1.3 5 0.7 3.8 7.9 0.9 8.3 16.1 2.2z" id="UGA3080" name="Arua" data-id="UGA3080" data-name="Arua">
 </path>
 <path d="M276.2 167.3l-7.5-5-2.3 1.4-2.3 2.3-5.7-2.8-4.8-4.4-4.6-4.9 1-1.3 1.1-4-0.3-2.1-1.9-3.8-0.2-2.1 1.2-5.2-0.1-1.7-2.3-4.3-3 1-3.5 2.9-3.9 1.5 0.8-2.9 4-7.9 12-17.6 1.4-4.3 1-2 2-1.7 1.9-0.7 5.5-0.2 2.5-1.1 5.6-4.5 1.7-0.7 3.5-0.7-3.1 12.4-2.7 24.1 2.1 19.8 0.9 20.5z" id="UGA3081" name="Koboko" data-id="UGA3081" data-name="Koboko">
 </path>
 <path d="M332.5 455.8l-0.2-9.5-6.3-5.7 0.9-2.1 5.3 1.5 3.9-2.4 2.5-4.7 0.9-6.7 1.2-2.7 0-4.4-0.5-2.7-3.3-8 3.6-5.1-0.3-6.1-4.6-11.4 3-3.1-1-4.3-2.7-4.3-1.4-1.6 5.8-2.2 9.1-6.7 8.9-2.3 6.2-3.5 2.7-0.8 0.6 12.6-1.7 12.3 0 14.1 6.1 7.9 5.3 8.8 5.3 4.4 2.6 5.2-1.8 4.4-5.2 0.9-5.3 4.4 0 12.3-5.3 7.9-12.2 6.2-11.5-0.9-10.6-1.7z" id="UGA3082" name="Buliisa" data-id="UGA3082" data-name="Buliisa">
 </path>
 <path d="M343.9 294.8l2.3 3.4 2.6 2.9 2.2 3.8 2.8 7.9 3.2 2.7 5.4-0.9 0.7 1.5-0.2 2.1-0.8 1.8-1.4 1.3-2 0.6-2.7 1.3-1.8 3.2-0.9 4.1-0.1 2.7-0.9 1.8-0.7 4.8-0.9 2.2-1.8 2.1-2.2 1.3-9.6 3.4-3.5 2.3-7.7 8.7-2 3.2-1.5 3.4-0.5 3.8-1.7 2.7-4.5 3.8-0.4-0.6-10.3-5.8-3.8-3-1.4-3.2-0.6-3.8-0.3-7.9-8.9 3.3-3 0.5-2.5-0.1-8-1.4-2.6-1.4-1-1.6 1.6-1.3 0.3-1.1-0.8-2.1-10.4-11.6-3-2 1.5-3.8 7.7-1 1.1-6.7 5.5-3.4 2.7-6.9-3.9-11.8 12.2-2.1 7.3-4.1 17.8-2.3 6.5-5.2 2-2.6-0.3-3.8 0.9-2.7 2.7-2.1 1.5-2.8 0.9-2.5 3.4-1.5 8.1-4.3 3.6 2.5 2.8 1.4 1.8 2.1 1 6.5 1.2 4.3-0.4 2.2-1 1-3.1 1.6-1 1-0.5 4.3 1.3 3.9z" id="UGA3084" name="Nebbi" data-id="UGA3084" data-name="Nebbi">
 </path>
 <path d="M453.3 117.2l-2.4 1.5-9.3 2.7-2 2.6-1 3.9-2.5 3.2-3.6 2-4.1 0.4-4.4-1.6-3.7-2.9-3.4 0.3-1.8-0.4 0.4-2.3-2.1 0.3-3.9 1.5-4.4 4-1.8 1.1-4.2 0.9-4 0.3-1.9 0.8-2.1 3.5-3.2 2.5-1.3 4-0.9 4.7-1.1 3.4-6.3 6.3-2.7 3.5-1.6 6.3-3.3 3.8-0.6 1.5-0.7 4.9-2.2 7.8-4.9 10.5-11.7-13.7-0.8-24.5 1.4-19.3 13.1-19.2 9.4-12.7 5-11.9 10-1.5 3.3-1.4 1.7-1.6 14.6-16.4 0.9-0.9 4.8 2.2 4.3 3.7 13 14.6 2.7 4.4 0.6 3.4 0.6 8.5 1.3 3.1 2.5 1.3 14.3 0.9z" id="UGA3085" name="Moyo" data-id="UGA3085" data-name="Moyo">
 </path>
 <path d="M378.7 96.9l-5 11.9-9.4 12.7-13.1 19.2-1.4 19.3 0.8 24.5 11.7 13.7-2.2 4.7-16.1-2.2-0.9-8.3-3.8-7.9-5-0.7-4.3-1.3-2.2-4.3-3.4-3-9.3-2.6-7.5-5.5-3.6-3.8-5.3-1.7-4.7-0.7-3.7 2.1-1.5 4.3-3.5 2.8-5.2 1-3.9-3.8-0.9-20.5-2.1-19.8 2.7-24.1 3.1-12.4 1.6-0.6 11.7-9.2 4.8-1.3 8.6 0 7.5 1 7.2 2.3 38.4 21 3.4 0.7 2.1-1.9 2.2-2.7 3.2-1.6 9-1.3z" id="UGA3086" name="Yumbe" data-id="UGA3086" data-name="Yumbe">
 </path>
 <path d="M276.2 167.3l-4.7 8.6-1.3 9.4-5.1 5.6-7.7 5.2-6.4 7.1-19.8-0.9-8-0.2 7.4-22.5 3.3-6.5 3.7-1.3 1.1-3.8 3.7-6.3 5.2-5.8 1.4-2 4.6 4.9 4.8 4.4 5.7 2.8 2.3-2.3 2.3-1.4 7.5 5z" id="UGA3087" name="Maracha" data-id="UGA3087" data-name="Maracha">
 </path>
 <path d="M570.7 721.3l-0.2 0-3.2-0.6-0.3 0.6-6.7-0.1-11 2.7-4.3-5.4 3.9-7.4 2.6-3.2 1.1-5.1-0.3-1.3-1.2-1.1-0.2-1.6 0.7-1.3-2.8-2.2-1.6-2.3 2.5-7.5 3.2 1.3 2.3 2 3.2-0.2 2.8-2.1 1.2-3.2 3.5-1.1 4-0.4 2.2 4-0.9 4-0.7 6.2 0.9 6 3.3 10.7-4 8.6z" id="UGA3088" name="Kampala" data-id="UGA3088" data-name="Kampala">
 </path>
 <path d="M482.9 645.4l-8.1 3.6-8.9 6.1-3.5 2.5-7.4 0.3-9.6-1.5-4.7-1.1-2.1-1.5-2.5-1.3-1.6-1.9-0.3-2.5-15-21.1-7.2-2.9-10 0-12.2-8.6 7.9-10.1 7.1-6.4 7.9-4.4 5.8-5 2.1-8.6 5.8-5.7 14.3-3.4 8.5 15.2 0.3 3.4-0.1 3.8 7.8 13.2 11.7 8 10.8 2.1 9.6 8.5 0.6 8.8-2.1 5.3-4.9 5.2z" id="UGA3089" name="Kiboga" data-id="UGA3089" data-name="Kiboga">
 </path>
 <path d="M504.6 472.2l2.8 4.6 12.1 3.7 8.3 5.3 4.4 1.3 4 2.9 5.6 5.5 3.7 1 5.3-0.8 3.6 5.9 4.8 4.6 15.9-1.4 0.5 15.1 5.3 1.9 3.3 1.9 2 0.6 1.4 2.7 3 1.4 0.6 2 0 4.7 0.4 3.9 2.7 18.5-2.4 18.6-9.8 1.1-4.4-7.7-5-5-6.4 1.6-2.2 9.9-1.5 11.5 0.8 9.3-11.8-1.5-16.6-7.4-11.5-13.5-1.7-11.3-8.9-8.8-18.4-8.5-30.3-30.4-22.3-11.6 6.4-9.6 4.3-1.6 4.1-2.5 5.2-6.7 3.2-7.7 3.2-3.3 6.7-3.6 6.7-1.9 6.3 0.2 4.3 1.5 12.3 3.6z" id="UGA3090" name="Nakasongola" data-id="UGA3090" data-name="Nakasongola">
 </path>
 <path d="M570.7 721.3l-0.1 0.2-0.1-0.2 0.2 0z m-61-47.3l2.7-1.8 2.8-1.3 17.2 2 9.1-0.1 6.8 1.8 7-5.2 8.2 2.8 8.3-0.1 0.1 5.1-2 4.6-4 0.4-3.5 1.1-1.2 3.2-2.8 2.1-3.2 0.2-2.3-2-3.2-1.3-2.5 7.5 1.6 2.3 2.8 2.2-0.7 1.3 0.2 1.6 1.2 1.1 0.3 1.3-1.1 5.1-2.6 3.2-3.9 7.4 4.3 5.4 11-2.7 6.7 0.1-1.7 2.7-1.5 6.1-1.9 5.2-3.2 0.5-0.7 2.3-2.9-1-2 0.5-0.9 1.7 2.3 2.7-0.7 2.4 3.3 2.1 1.6 0.6 0 1.2-4.9 1.3 3 4.6-1.8 0.5-3.4-1.4-1.6-1.1-1.3 3.1 4.8 7.6-2.3 3-1.9-4-1.3-1.6-1.8-0.6-1.1 0.7-1.1 3.2-1.6 1-1.6-5.4-0.9-0.9-1.4 0.4-1.1 2.9-1.9 2.1-1.6 2.7-2 2.1-2.6-0.7-2.9-2.7-0.4-1.2 3.9-3 1.6-1.9 1.5-2.4 0.2-2.5-2.1-1.9-1.5 3.6-3.3 3-3.7 0.9-2.7-2.5-3.8 1.1 1.7 5.8-1.1 10.6 1.9 3.7-5 0 0.1-6.2-5.1-3.1-7-2-5.6-2.5-1.3 1.3 5.7 4.6 2.2 3.1-0.3 3.6-3.8 2.1-5.1-1.4-3.3-2.3-0.6-6.9 1.3-3.8 3.6-2.3 3.9-3.2 1.8-5.1 3.3-2 4-1.2 3.5-2.9 2.4-4.1 1.5-3.7 2.7-2.4 4.3-2 2.4-3.5 2.5-7 2.9-17.4-12.9-13.7-19.3 0-8.1-12.6 0.7-12.9 5.3 1.3 4.9 3 4.4 2.1 5.1-1.3z" id="UGA3091" name="Wakiso" data-id="UGA3091" data-name="Wakiso">
 </path>
 <path d="M591.9 576.1l-0.7 21.7 3 21.5-0.7 17-2.9 17.9-3.6 12.2-15.2 5.7-8.3 0.1-8.2-2.8-7 5.2-6.8-1.8-9.1 0.1-17.2-2-2.8 1.3-2.7 1.8 0.8-7.1 3.5-6.6 2.7-2.9 3.4-2.3 4.3-0.8 4.4-0.2 3.6 0.3 2-1.9 2-3.5 2.4-2.8-0.7-3.1-2.4-2-1.6-3.1-0.2-22.5-9.3-14.4-2.1-11.5 1-15.2 11.5 13.5 16.6 7.4 11.8 1.5-0.8-9.3 1.5-11.5 2.2-9.9 6.4-1.6 5 5 4.4 7.7 9.8-1.1z" id="UGA3092" name="Luweero" data-id="UGA3092" data-name="Luweero">
 </path>
 <path d="M440.7 655.3l-2.2 3.2-4.6 1.6-2.5 4.8 1.8 4.9 4.7 1.5 0.2 2-2.5 3-0.4 1.8 2.9 3.7 0.7 4.1 3.2 4.9 1.6 5.3-1.8 3.4-0.7 4.2 2 8.5-3.2 7.7-23.3 2.3-8.9 4.6-8.9-8-12.5-4.1-6.8-2.1-8-0.4-13.8 7.1-11.5 3.7-11.4 2.1-6.8 2.6-0.4 9.6-8.3 0.3-5.5 5.4-7.6-0.2-5.9-4.5-5.1-6-6.9-0.6-7 3.5-6.5 1.1-6.8-0.2 3.3-5.7 5.2-4.2 4.6-5.2 3.9-5.6 2.6-2.2 1.9-2.3-1.1-3.2-1.7-3.1-0.2-7.1 3.5-6.3 1.6-6 4.1-3.5 12.8-2.2 2.6-1.4-0.2-2.3 1.3-2.7 0.6-2.8-2.5-5.7-4.7-4.5 11.1-15.6 8-1.8 8.3 3.4 5.1-7.2 1.8-9.8 1.8-2.7 2.4-2.1-0.1-3.5 2.5-4.5 26.5 3 10.3-3.8 6.5 0 12.2 8.6 10 0 7.2 2.9 15 21.1 0.3 2.5 1.6 1.9 2.5 1.3 2.1 1.5z" id="UGA3093" name="Mubende" data-id="UGA3093" data-name="Mubende">
 </path>
 <path d="M490 668.9l-0.7 12.9 8.1 12.6 0.9 9.8-0.4 3.7 0.5 7.2-0.7 10-6.3 2.6-12.9-0.8-3.4 0.3-26.5 1.9-2 2-3.3 1.1-4.1-1-2.6 2-3.5 0.3-4.2-1.2-3.3-1.9-4.3-6.8-4.7-1.4 23.3-2.3 3.2-7.7-2-8.5 0.7-4.2 1.8-3.4-1.6-5.3-3.2-4.9-0.7-4.1-2.9-3.7 0.4-1.8 2.5-3-0.2-2-4.7-1.5-1.8-4.9 2.5-4.8 4.6-1.6 2.2-3.2 4.7 1.1 9.6 1.5 7.4-0.3 3.5-2.5 8.9-6.1 8.1-3.6 3.3 7.8 3.8 15.7z" id="UGA3094" name="Mityana" data-id="UGA3094" data-name="Mityana">
 </path>
 <path d="M523.5 574.4l-1 15.2 2.1 11.5 9.3 14.4 0.2 22.5 1.6 3.1 2.4 2 0.7 3.1-2.4 2.8-2 3.5-2 1.9-3.6-0.3-4.4 0.2-4.3 0.8-3.4 2.3-2.7 2.9-3.5 6.6-0.8 7.1-5.1 1.3-4.4-2.1-4.9-3-5.3-1.3-3.8-15.7-3.3-7.8 4.9-5.2 2.1-5.3-0.6-8.8-9.6-8.5-10.8-2.1-11.7-8-7.8-13.2 0.1-3.8-0.3-3.4-8.5-15.2-3.7-21.5-6.8-11.6-13.4-13.2 11.3-11.7 7.4-4.5 6.4-5.6 22.3 11.6 30.3 30.4 18.4 8.5 8.9 8.8 1.7 11.3z" id="UGA3095" name="Nakaseke" data-id="UGA3095" data-name="Nakaseke">
 </path>
 <path d="M768 159.9l-2.7 4.8 1.2 5.1-4.3 4.9-5.5 3.9-5.5 0.2-5.2-2.4-6.6-1.2-6.7 0.2-4.2 0.6-4.1-0.3-3-2.5-3.2-1.9-14.9-1.5 5 7.2-11.9-0.4 1.6 12.2-8.7 0.7-7.3 2.5-10.7-1.8-4.4 14.1-6.4 17.1-5-8.6-5.8-4.9-5.8-7.5-13.8-7.5-10.5-1.2-0.6 13.1-6.7-3.8-9.8-6.4-6.9-0.9-3.2-2-0.8-10.4 0-7.6-3.8-7.5 0-8.5 2.2-4.9 17.6-1 7-1.6 4.2-3.2 0-3.8 2.2-4.3 31 0 2.7-2.7 2.1-7.5 3.7-2.1 4.8 0 8.1 9.1 0 9.6 10.1 0.6 0.6-24.1-2.2-10.2-4.3-5.9-1-5.9 1.6-5.4 2.1-7.9 33.6 1.7 7.9-1 6.8-4 6.8 21.3 11.9 16.9 4.7 9.4 3.5 10 7.4 8.8 5.1 10.3z" id="UGA3096" name="Kitgum" data-id="UGA3096" data-name="Kitgum">
 </path>
 <path d="M543.5 199.8l-2.2 2.2-3.5 0-1.9 1.4 11.8 15.7 18.4 34.5 2.7 3.6 2.3 1.2 2.3 2.1 1.8 4.5 2.2 4.3 3.4 1.7 2.4 2.8-2.9 4-4.8 1.3-1.6 2.4 1.2 3.1 0.9 4.1-2.4 3.1-2.7 2.1-0.3 3.4-16.7-3.4-15.8 2.6-8.4 23.7-7.7 1.8-6.5-0.1-3.4-3.4-5.8-1.8-4.8-3.1-2.9-4.8-0.9-3.6-0.3-3.6 0.8-2.3-11.6-0.8-5.1-3-2.6-5.6 1.3-5.1 3.5-4.7 2.3-5.8 2.4-6.2 0.4-4.3-4.1-30.5-3.2-7.7 0.4-10.7 3.9-11.6 3.4-5.5 11.6-9.9 6.8-9.4 7-6.4 5.3 3.8 22.5 19.8 1.1 4.1z" id="UGA3098" name="Gulu" data-id="UGA3098" data-name="Gulu">
 </path>
 <path d="M634.8 310.2l-0.5 5-2.6 5.9-5.9 3.7 0 5.4-4.8 5.3-8 3.2-1.1 4.3 8 0 6.4 2.2 2.7 6.4 6.9 5.3 7 3.8 3.7 6.4 1.2 28.6-4 6-5.6 1.5-6.3-3.2-6.1-4-6.7-1.3-7.5-0.5-3.7-1.4-4 0.2-3.2-1.9-2.8-2.8 1.5-18.6 1.2-3.4-3.3-5.4-4.7-9.8-4.2-5.9 2.6-7 3.8-7 2.8-10.3 2.1-7.5-8.7-11.5 5.7-4.3 2.9-6.5 2.4-0.1 2.1 2.8 3.4 1.6 4.4 0.5 3.4 2.2 4.9 1.6 2.4 9.1 3.7 0.4 2.6 2.7 5.9-1.7z" id="UGA3099" name="Lira" data-id="UGA3099" data-name="Lira">
 </path>
 <path d="M685.4 400.6l-1.6 14.7-1 1.9-1.7 1.4-2.2 3.7-2.8 3.2-16.5 10.2-2.3 0.9-1.6 1.8-1.2 6-3.7 10.5-1.4 4.8-2.8 1.5-2.9 1.1-6.7 0.5-6.8-2.8 6.4-18.7-14.8-9.1 0.6-11.1-6.2-2.8-8.2-1.3-0.7-6.4 2.8-8 1.5-8.4 7.5 0.5 6.7 1.3 6.1 4 6.3 3.2 5.6-1.5 4-6 5.9-2.3 3.3-5.3 3.5 0.7 3.3-1.4 7.2 3.8 9.1 1.7 2.8 3.6 2.5 4.1z" id="UGA3100" name="Dokolo" data-id="UGA3100" data-name="Dokolo">
 </path>
 <path d="M660.5 221.4l0 7.5-3.7 4.3-5.4 4.3 1.1 6.4 9.6 1.6 11.8 0.6 3.7 6.4-1 12.3-5.9 6.5-23.5 1-4.8 5.4 4.2 6.4 9 11.7-8.1 3.4-7.4 4.5-5.3 6.5-5.9 1.7-2.6-2.7-3.7-0.4-2.4-9.1-4.9-1.6-3.4-2.2-4.4-0.5-3.4-1.6-2.1-2.8-2.4 0.1-2.9 6.5-5.7 4.3-20.4-4.6 0.3-3.4 2.7-2.1 2.4-3.1-0.9-4.1-1.2-3.1 1.6-2.4 4.8-1.3 2.9-4-2.4-2.8-3.4-1.7-2.2-4.3-1.8-4.5-2.3-2.1-2.3-1.2-2.7-3.6-18.4-34.5-11.8-15.7 1.9-1.4 3.5 0 2.2-2.2 30.1-0.2 10.2-6.1 8.6-1.8 3.2 2 6.9 0.9 9.8 6.4 6.7 3.8 0.6-13.1 10.5 1.2 13.8 7.5 5.8 7.5 5.8 4.9 5 8.6z" id="UGA3101" name="Pader" data-id="UGA3101" data-name="Pader">
 </path>
 <path d="M467.8 469.1l0.5 3.3-3.2 3.3-3.2 7.7-5.2 6.7-4.1 2.5-4.3 1.6-6.4 9.6-6.4 5.6-7.4 4.5-11.3 11.7-3.7 0.6-3.5 1.1-4.1 4.4-8.1-0.8-8.4-2.4-28.6-3.7-5-2-4.2-3.1-3.2-3.5-3.1-34.7-1.3-3.8-4 0.7-4.3 1.3-2.4-6.8 2.1-9.9-1.6-2.2-0.2-2.6-0.7-2.4 10.6 1.7 11.5 0.9 12.2-6.2 5.3-7.9 0-12.3 5.3-4.4 5.2-0.9 1.8-4.4-2.6-5.2-5.3-4.4-5.3-8.8-6.1-7.9 0-14.1 1.7-12.3-0.6-12.6 12.6 0 1.6 0.4 2 1.7 1.5 0.4 3.4-0.5 17.2-5.8-1.7 22.5 0.9 21.1 3.5 4.4 7 0.9 5.3 1.8 7 10.5 0 7.9-1.7 11.5 0 8.7 4.3 8 2.7 7 0 7 5.2 2.6 7.1 1.8 3.5 5.3 6.1-0.9 0-7 7.9-0.9 6.2 3.7z" id="UGA3102" name="Masindi" data-id="UGA3102" data-name="Masindi">
 </path>
 <path d="M570.6 297.3l20.4 4.6 8.7 11.5-2.1 7.5-6.4 5.1-8-2.7-7.7-0.3-12.6 16.2-7.3 2.1 3.9 21.6-4.2 3.3-3.3 4.1-2.2 4.5-3.2 6.6-11.3 17.2-8.7 1.8-13.9-5.8-1.5-4-2-2.9-1.3-2.9-1.9-12.8-3.3-6.3-2.9-3.4-3-1.5-3.4-14.6-0.9-15.2 1-7.5 6.9-1.6 7.6 0.8 7.5-0.8 6.5 0.1 7.7-1.8 8.4-23.7 15.8-2.6 16.7 3.4z" id="UGA3103" name="Oyam" data-id="UGA3103" data-name="Oyam">
 </path>
 <path d="M114.7 643.2l-2.8 4.7-2.3 5-1.7 5.6-3.9 4.2-4.5 7.9-3.5 8.6-3.7 4.9-2.1 1.3-2.4 1-2.7 3.8-1.9 4.4-3.6 2-1.1 1.1-4.7 2-2.6-0.8-2-1.8-3.2-3.3 3.5-4 3.2-7-0.5-7.2-3.4-14.7 0.1-3.8 2.3-15.5-1-9.4 0.3-1.9 3.4-7.2 2.4-1.4 6.6-5.1 7.7-3.5 19.5-4.4 1.8-1 2-2.4 3.2-6 4.2 10.9 8.3 7.7-4.6 2.1-3.2 4.2-1.2 8.8-3.3 3.8-2.6 6.4z" id="UGA3104" name="Bundibugyo" data-id="UGA3104" data-name="Bundibugyo">
 </path>
 <path d="M332.5 455.8l0.7 2.4 0.2 2.6 1.6 2.2-2.1 9.9 2.4 6.8 4.3-1.3 4-0.7 1.3 3.8 3.1 34.7 3.2 3.5 4.2 3.1 5 2-13.9 13.9-5.3 2.1-10.5 5.2-6.2 1.9-5 4-7.8-1.2-6.9 0.1-2.8 3.4-3.7 1.6-5-0.5-5 0.3-4.1 5.8-4.7-0.4-3.5-0.6-7.1 3.9-8.5 1-17.4 6.4-12.2-3.5-6.5 2.4-4.9 5.4-12.3 5-15 2.1 2.4-1-0.5-1.8 20.2-21.4 0.8-3.3 0.3-5.7 1.9-2.8 30.6-35.5 5.6-10.8 3.3-4.6 5-2.8 6.2-1.7 5.2-2.6 2.4-5.5 2.5 1.4 2.2-1.4 4.1 1.1 2.4 0.3 2.3-0.6 11-5.9 10.5-9.9 7.5-5 2.5-3 2.5-4.6 1.2-4.2 1.1-9.5 0.7-1.7 6.3 5.7 0.2 9.5z" id="UGA3105" name="Hoima" data-id="UGA3105" data-name="Hoima">
 </path>
 <path d="M183.3 603.9l-4.3 4.1-3.7 4.6-2.9 5.3 1.7 2.4-2.3 6.1-3.6 5.3-4.1 2.8-1 10.3-1.1 5.6-2.9 2.6-3 3.8 0.3 4.6 2.8 2.9 7.8 5.7-2.6 0.9-2.5 4-2.3 2.3-4.6 3.4-2.6 4.6 0.6 2.8 0.1 2.8-2.7 5.7 3.8 4.9 0.5 4.7-1.8 11-3.2 15.2-12.5-3.4-4.5-3.1-9.6-6.9-9.3 0.7-5-8.6-14.4-4.3-19.4 4.3-22 1.3 1.2-3.9 2.1-3.5 9.7-11.1 3.2 3.3 2 1.8 2.6 0.8 4.7-2 1.1-1.1 3.6-2 1.9-4.4 2.7-3.8 2.4-1 2.1-1.3 3.7-4.9 3.5-8.6 4.5-7.9 3.9-4.2 1.7-5.6 2.3-5 2.8-4.7 12.7-6.9 8.6-5.7 4.3-13.7 8.7 7.2 13.6-13.6 7.2-9.4 10.2-7.6 3.3 10.4z" id="UGA3106" name="Kabarole" data-id="UGA3106" data-name="Kabarole">
 </path>
 <path d="M254.9 646.3l-4.7 2.5-3.8 0.9 2.2 3.8 9.1 4.7 0 11-4.1 0.7-1.9 2.5 0 16.6-6.2 0.4-0.3 8.8-3.9 0.2-5.3 2-4.4-1.6-5.3-1.6-11.3 4.4-7.2 7.2-8.8 5.7-10.1 4.4-4.7 0.6-2.2-4.7-0.5-7-2.1-6.5-0.1-6.2-5.8-2.6-2.8-4.4-2.2-7.9-6.6-5.3 2.5-4 2.6-0.9-7.8-5.7-2.8-2.9-0.3-4.6 3-3.8 2.9-2.6 1.1-5.6 1-10.3 4.1-2.8 3.6-5.3 2.3-6.1-1.7-2.4 2.9-5.3 3.7-4.6 4.3-4.1 15.9 7.1 17.4 4.3 8.1 4 8.6 1.7 7.1 6.2 9.1 12.2 2.3 4.1 3.1 2.8z" id="UGA3107" name="Kyenjojo" data-id="UGA3107" data-name="Kyenjojo">
 </path>
 <path d="M319.5 551.9l5.3 3.9 5.6 3.1 5.5 1.5 5 2.1 7.5 11 10.1 8.7 3.2 3.7-0.4 4.9-1.8 2.8-2.9 1.3-3 0.6-1.6 2.5-4.6 3-2.9 3.5 2 5.9 0 5.9-2.5 4.5 0.1 3.5-2.4 2.1-1.8 2.7-1.8 9.8-5.1 7.2-8.3-3.4-8 1.8-11.1 15.6-3-2-3.4 0.3-4.2-2.2-4.9-0.7-8.2-3.9-8.8-2.2-8.2-1.2-10-1.9-3.1-2.8-2.3-4.1-9.1-12.2-7.1-6.2-8.6-1.7-8.1-4-17.4-4.3-15.9-7.1-3.3-10.4 1.1-5.1 1.1-1.4 1.3-3 1.7-1.2 1.8 2 2.2 1 2.4 0.1 2.4-0.7 0-1.2-1.9-0.9 15-2.1 12.3-5 4.9-5.4 6.5-2.4 12.2 3.5 17.4-6.4 8.5-1 7.1-3.9 3.5 0.6 4.7 0.4 4.1-5.8 5-0.3 5 0.5 3.7-1.6 2.8-3.4 6.9-0.1 7.8 1.2z" id="UGA3108" name="Kibale" data-id="UGA3108" data-name="Kibale">
 </path>
 <path d="M915.2 554.3l-0.4 9.3 2.1 9.2 0.5 1.1-3.6 0.7-3-1.7-3-0.7 3-10.9 0.1-6.3-4.8-4.6-12.3-6.8-18.8-7.6-3.5-3.9 0.9-5.4 2.8-4.9 4.7-4.8 5.6-3.7 8.7-3.9 6.4 5.8 11.6 3.2 6.4 4.2 0.5 7.4-4.2 10.6 0.3 13.7z" id="UGA3112" name="Kapchorwa" data-id="UGA3112" data-name="Kapchorwa">
 </path>
 <path d="M957.7 522.9l0.4 3.4 3.2 7.5 1.9 7.3-2.3 7.4-5.9 2.6-15 1.6-3.8 2.3-6.2 6-8.9 2-1.2 3.4-0.3 4.1-2.2 3.4-0.5-1.1-2.1-9.2 0.4-9.3 4.1-8.8 6.1-7.5 4.4-2.9 4.9-1.9 3.8-0.6 3.6-1.7 5.8-7.5 2.8-9.2 7 8.7z" id="UGA3113" name="Bukwa" data-id="UGA3113" data-name="Bukwa">
 </path>
 <path d="M910.8 561.3l-3 10.9-6.7 0.8-15.1-1.4-5.7 3.5-5.9-2.3-6.1-1.4-2.7 0.6-2.6-0.1-2.6-1.8-2.9-0.9-2.8-3.4-2.2-3.8-4.7 0.9-4.1-1.8 6.3-5.5 4.1-8.9 16.3 2.4 13.8 3.7 4.7 4.8 9 1 12.9 2.7z" id="UGA3114" name="Sironko" data-id="UGA3114" data-name="Sironko">
 </path>
 <path d="M843.7 561.1l4.1 1.8 4.7-0.9 2.2 3.8 2.8 3.4 2.9 0.9 2.6 1.8 2.6 0.1 2.7-0.6 6.1 1.4 5.9 2.3-7.4 2.2-4.4 5.8-2.3 4.2-3 3.8-0.8 3.8 0.2 3.4-6.5 3.2-2.3 3.6-1.5 4.1-1.8 8-5.6 5.2-2.1-5.1-3.4-3.8-4.2-2.7-4.7-2 3-7.1 0.5-7.9 1.3-3.4 0.9-3.5-3.9-1.7-4.7-0.5 1.5-3.1 3.8-0.4 2.8-2.8 3-8.4-0.3-4.5-2-3.3-0.1-3.8 3.5 2 3.9 0.7z" id="UGA3115" name="Mbale" data-id="UGA3115" data-name="Mbale">
 </path>
 <path d="M899.7 591l-0.1 4-1 3.7-4.8 11.7-5.3 6.9-2.6 7.4-3.1 2.8-11.8 5.9-1.5 1.6-0.4 2.3-12.2-5.2-12-9.7 5.6-5.2 1.8-8 1.5-4.1 2.3-3.6 6.5-3.2-0.2-3.4 0.8-3.8 12-0.2 0 2.5 3.2 0 0.4-3.9 16.8 0 4.1 1.5z" id="UGA3116" name="Manafwa" data-id="UGA3116" data-name="Manafwa">
 </path>
 <path d="M785.2 647.8l2.6 0.2 2.5 0.7 3.2 6.6 2.4 7.3 11.2 8.1-1.5 3-3.4 0.7-6.5 8.8-0.4 4-6.2 3.7-3.6 5-1.8 7.9-5.7-0.3-6.1 2.5-6.5 4.7-4.9 2.7-3 1 1.4-7.8-9.7-2.3-3.7-4.8-4.2-2.6 2.1-3.9 0.2-2-0.2-9.1 1.6-7.2 4.6-5 3.5-5.5 1.3-7.3-0.5-7.4-5-4.9-1.5-4.8 5.8 3.2 6.1 2.5 5.5 0.7 3.4-4.5 5.6 8 5.7-0.1 5.7-1.8z" id="UGA3117" name="Bugiri" data-id="UGA3117" data-name="Bugiri">
 </path>
 <path d="M839 669.8l-4.4 18-1.8 3.5-3.2 3.7-0.8 1.7 0.2 3.4 2.1 6.6-0.6 3.8-1.5 2.4-6.6 5.1-8.2 11-2.6-3.6-1.7 0.4-1.2 1.3-6 5-5.2-7.2-4.2-8.4-0.8-5.5 2.2-4.6 3.1-3 2.1-3.3-0.5-4.7-4.1-8.2 0.4-4 6.5-8.8 3.4-0.7 1.5-3 3.5 0.5 3.5 0 3.1-1.7 3.2-1.1 17.7 1.2 0.9 0.2z" id="UGA3118" name="Busia" data-id="UGA3118" data-name="Busia">
 </path>
 <path d="M830.5 608.8l-3.7 0.3-3.1 1.7-2.6 2.2-3.2 1.3-3.4 0-3.4 0.4-5.9 4-4.2 5.8-9.1 20.4-0.2 2.2-1.4 1.6-2.5-0.7-2.6-0.2-2.7-6.3-2.6-1.7-1.8-1.7-1.4-5.8-2.6-6.3-0.6-6.4 0.3-6.7-1.5-5.9-4.3-4.4 8.7-2.3 9.7 1.8 10.4 2.2 9.9-3.9 10-8.5 10.9-7.2 4.7 0.5 3.9 1.7-0.9 3.5-1.3 3.4-0.5 7.9-3 7.1z" id="UGA3119" name="Butaleja" data-id="UGA3119" data-name="Butaleja">
 </path>
 <path d="M743.4 693l-2.1 3.9 4.2 2.6 3.7 4.8 9.7 2.3-1.4 7.8-3.3 2.7-2.2-1.6-2.5-0.7-2.3 0.5-1.8 1.8-0.1 2.2 1.3 9.6-1.6 3.5-3.4 2.1-3.4 1.5-1.6 1.6-0.9 2.7-2 0.8-1.8-1.1-0.3-2.9-1.3 0-1.1 2.9-2.7 0.8 1.7-3.5 0.9-4-1.5 0.8-2 2.7-1.6 1.4 0.2-4.8-0.5-1.9-1.5-0.8-0.9 1.1-0.2 2.6 0.4 5.2-1.2 0-3.1-3.8-4.7-3.4-2.4-3 3.9-2.4-2.6-0.8-2.3-1.6 2.4-1.4-3.8-1.1-1.4-1-1-1.6 3.3 0 2.9 1.2 1.8-0.8 2.8 0.2 2.9 0.8 2.5 1.2-2.4 1.1 3.5 1.3 2.4-2.4 0-3.1-3.5-0.8 1.1-2.6-5.3-2.1-0.3-0.5 4.8-0.9 2.5-1.6 1.6-3.8 1.7-5.2 4.7-4.5 3.3-5.5 7.8 1.5z" id="UGA3120" name="Mayuge" data-id="UGA3120" data-name="Mayuge">
 </path>
 <path d="M844.9 622.4l12 9.7 12.2 5.2-0.7 4.2-2.9 7.9-4.4 4.7-6 3-7.4 2.7-5.4 3.7-3.3 6.3-0.9-0.2-17.7-1.2-3.2 1.1-3.1 1.7-3.5 0-3.5-0.5-11.2-8.1-2.4-7.3-3.2-6.6 1.4-1.6 0.2-2.2 9.1-20.4 4.2-5.8 5.9-4 3.4-0.4 3.4 0 3.2-1.3 2.6-2.2 3.1-1.7 3.7-0.3 4.7 2 4.2 2.7 3.4 3.8 2.1 5.1z" id="UGA3121" name="Tororo" data-id="UGA3121" data-name="Tororo">
 </path>
 <path d="M853.7 416.2l0 59.2-31-2-8.7 1.2-9.1 2.2-9-2.7-7.2-4.7-8.4-0.8-0.9-3.2 0.6-4.1 6.9-4.9 4.3-6.7-0.3-7.2-3-6.3 2.2-4.7 6-4.7 0.2-3.6-1-3.9 0.8-8.2-1.4-2.8 0.1-3 2.2-3.7-0.4-1.9-1.3-1.9-0.3-3.5 1.1-3.1 1.9-4-0.3-4.2-1.8-8-2-2.4-1.2-3.1 1.5-8.9 3.5-8.5 47.5 29.7 6.9 5.7 1.6 8.9 0 19.8z" id="UGA3122" name="Katakwi" data-id="UGA3122" data-name="Katakwi">
 </path>
 <path d="M885.6 209.7l-9.2 15.7-11.2 14.3-3 7.5-1.2 8.1-4.7 19.9-14.9-5-8 0.6-16.4-1.4-8.7 6.1-2.4 19.4-14.4-7.8-4.4-1.7-1.3-30 0.3-18.4-23.1-11.3-2-6.3-6.3-4.6 1.5-6.2 0-16.6-7.5 0.5-5.3-2.7-9.8-1-0.9-13.4 6.7-0.2 6.6 1.2 5.2 2.4 5.5-0.2 5.5-3.9 4.3-4.9-1.2-5.1 2.7-4.8 9.5 7 9.3 4.6 5.3-2.3 5.2 1.1 1.8 4.2-1.3 5.5 23.8 0.8 22.2 7.8 21.9 15.8 9.3 5.1 10.6 0.2z" id="UGA3123" name="Kotido" data-id="UGA3123" data-name="Kotido">
 </path>
 <path d="M797.7 352.1l-3.5 8.5-1.5 8.9 1.2 3.1 2 2.4 1.8 8 0.3 4.2-1.9 4-1.1 3.1 0.3 3.5 1.3 1.9 0.4 1.9-2.2 3.7-0.1 3 1.4 2.8-0.8 8.2 1 3.9-0.2 3.6-6 4.7-2.2 4.7 3 6.3 0.3 7.2-4.3 6.7-6.9 4.9-3.4-4.3-0.6-4-1-3.7-5.3-6.1-6.3-5.1-3.4-4.1-3.9-2-3.4-2.8-0.7-3.2-1.2-3.1-3.6-1.5-4-0.9-6-3.4-4.5-5-3.5-6.6-7.1-1.6-4.3 3.3-1.1 5.9-2.1 7.5-1.3 7.9-4.9-5.5-0.1-7.4-2.5-2.3-3.4-1.8-1.6-3.4-0.8-3.8-1.2-6 0.9-7.3 7.3-6.1 2.9 0.6 2 3 3.7-1.1 2.6-3-1.2-3.8 1.3-3.1 0.9-4.1-1.1-3.5-2.8-2.4-2-2.9 7.3-0.1 6.5-4.5 5.3-5.2-0.6-7.3 0.2-4.8 5.4 3.3 6.3 1 5-5.1 6.5-0.3 9.2-9.4 4.6 2 28.7 17.9z" id="UGA3124" name="Amuria" data-id="UGA3124" data-name="Amuria">
 </path>
 <path d="M914.7 206.8l-3.4 2.3-3.4 1.1-4.2-1.5-4 0.4-6.9 1.6-7.2-1-10.6-0.2-9.3-5.1-21.9-15.8-22.2-7.8-23.8-0.8 1.3-5.5-1.8-4.2-5.2-1.1-5.3 2.3-9.3-4.6-9.5-7-5.1-10.3-7.4-8.8-3.5-10-4.7-9.4-11.9-16.9-6.8-21.3 0.9-0.5 31-31.1 35.5-35.7 14.8-14.9 5.3 2.6 4.1 3.2 2.3 4.3-0.3 5.6 0.3 2.5 3.6 3.9 1.5 2.1 0.7 4.2-0.6 4.3-1.5 4.3-0.1 1.9 1.5 2.9 2.1 2 2.7 1.8 2.1 2.1 0.5 3-1.9 4.7-2.4 4.2-0.2 3.2 4.2 1.6 2.9-0.6 7.2-2.6 3.6 0 4 2.1 0.5 2.5-2 2.5-8.7 4.5 0.3 1 2.9 1.1 2.3 2.8-3.6 2.4-1.3 1.4 2.4 0.9 4.7-1 3.6-0.2 3.6-1 2 0.7 4.1 5.3 2.8 7.4 2.1 1.2 1.6-2.6 1.9-1.8 5-1.4 3.3 1.3 5.9 6.4 3.5 1.8 3.4 1 2.7 1.8 1.2 3.8-0.5 14.8-1.7 7.3-3.5 5.4-5.2 2.1-1 1.6 0.1 1.9 2.3 4 0.7 2-0.2 1.7-1.9 4.5-0.5 2.1 0.4 2.2 4.5 5.8 2.4 7.3 1.8 22.5 2 4.2 3.8 2.4 8.6 2.5 3.9 2.6 2.1 3.8z" id="UGA3125" name="Kaabong" data-id="UGA3125" data-name="Kaabong">
 </path>
 <path d="M805.9 294.9l1.9 4.1 4.1 4.6 2.1 5.1 4.2 3.5 0.4 2.2-2.5 1.4-5.6 0.2-13.6 1.6-11.7-1.4-12-0.1-11 6.2-5.4 1.6-5.6 0.4-3.9-5.4-5.5-4-12-16.3-1.7-13.2 5.1-12.3 9.3-8.7 0-6.4-1.3-5.5-2.7-4.7-0.7-5.5-1.2-4.9 0.3-5.5-2.6-33.1-0.7-10 9.8 1 5.3 2.7 7.5-0.5 0 16.6-1.5 6.2 6.3 4.6 2 6.3 23.1 11.3-0.3 18.4 1.3 30 4.4 1.7 14.4 7.8z" id="UGA3126" name="Abim" data-id="UGA3126" data-name="Abim">
 </path>
 <path d="M983.6 369.3l-6.8 10.8-7.9 7.1-3-10-1.4-26.1-6.2-17.5-5.3-14.4-2.6-6.8-7-7-10.5-3.5 0-11.4-14.9-4.4-9.7-8.8-13.2-11.5-10.5-4.4-13.2-1.7-10.4-4.4 1.2-8.1 3-7.5 11.2-14.3 9.2-15.7 7.2 1 6.9-1.6 4-0.4 4.2 1.5 3.4-1.1 3.4-2.3 5.3 27.7 1.9 3.2 5.8 6.5 2.7 4.4 1.7 1.7 2.5 0.7 1.1-0.4 3.3-2.4 0.8-1.4 1.1 0 1.4 2.1 5.2 2.5 1 0.2 2 3.2 3.7 11.6 2.8 15.9 7.7 16 1.7 1.7 2.5 0.2 2.7-2.9 1.6-0.2 1.9 2.5 1 9.1 1.1 3.5 5 5.1 1.6 3.1-0.4 4.2-2.8 3.2-3.6 2.1-3.3 2.6-1.6 4.5 1.1 7.2 10.4 25.1z" id="UGA3127" name="Moroto" data-id="UGA3127" data-name="Moroto">
 </path>
 <path d="M968.9 387.2l3.5 21.1-9.7 0.8-0.9 15.9 0 23.7-2.6 17.6-7 12.3-9.7 6.1-11 7.2-8.6-5.2-3.3 0.2-3.2-0.2-2.1-1.5-2.5-1.2-4.9-1.4-12.7 6.7-10.2-0.4-16.2 1.8-2.7-1.1-2.4-1.7-2.9 0.4-2.8 0.9 0.9-12.9-1.8-0.8-2.4-0.1 0-59.2 7.2 0 10.5-1.8 7.1-2.6 1.7-6.2 6.2-3.5 10.5-7 28.1-1.8 5.2-7.9 0.9-65 21.9-1.2 5.3 14.4 6.2 17.5 1.4 26.1 3 10z" id="UGA3128" name="Nakapiripirit" data-id="UGA3128" data-name="Nakapiripirit">
 </path>
 <path d="M419.7 957.5l-2.5 0-0.1-3.4 1.7 0.8 0.9 2.6z m-39.6-97.5l7 1.3 5.4 7.9-1.6 4.8 1.5 4.7-2 2.6-0.3 4.7 2.5 4.7 3.2 3.6 3.8 8.5 3.4 4-5.3 5.7-0.1 1.4-2.1 2-1.3 4.4-0.3 4.6 0.7 2.7 3.1 0.8 4.2-0.2 3.6 0.7 1.5 3.2-0.5 10.3 0.7 8.1 0.4 1.6 2.6 1.3 0.3 1.5-1 2.6-91.8 0-5.4-5.8-0.7-4.6-1.3-4.6-3.8-3.8-4.2-2.8-2.5-3.9 3.3-4.1-2.6-8.2 0.7-4.6-1.7-5.2-3.3-4.4-7.4-6.9-8.7-5.2 7.9-14.3 3.1-8.4 9.3 0.8 7.8-1.6 1.5-11 7.9 9.4 12 8.4 12.3 4.7 8.5 3.1 6.8-3.1 1.5-9.4 4-3.8 6.9-0.4 6.3-3.1 4.2-4.7z" id="UGA3361" name="Rakai" data-id="UGA3361" data-name="Rakai">
 </path>
 <path d="M446.2 818.5l0.2 0.2 1.4 0 2.1 0.2 0.5 0.2 0.3 0.9 0.9 3 1.5 2 2.2 4.7 0.8 3.9-1.4 0-2-3.6-3.8 1.6-3.7 4.3-1.7 4.6-1.3 2.6-6.4 8.2-2.4 2.4-8.2 3.9-3.9 2.7-1.7 4.1-0.6 2.7-1.2 2.5-5.7 7.9-0.7 1.9-1.5 7.4 0.2 1.7 2.1 3.5-0.4 2.6-1.6 0.5-1.4 1.4-4.3 8.6-1.5 1.7-3.4-4-3.8-8.5-3.2-3.6-2.5-4.7 0.3-4.7 2-2.6-1.5-4.7 1.6-4.8-5.4-7.9-7-1.3 1.5-6.3-3.1-6.2 1-4.2 7.8-4.1 6.3-3.7 0-8.8 4.7-4.7 31.2 0.5 7.8-4.2 7.3-2.1 1.6 2.3z" id="UGA3362" name="Masaka" data-id="UGA3362" data-name="Masaka">
 </path>
 <path d="M108.8 850.4l13.6 3.6 12.9 7.2 7.9 2.8 0 12.2-2.1 10.8-12.2 1.5-15.1 1.4-7.2-2.2-2.1-5-1.5-5.7-4.3-4.4-5.7 0-5.8 1.5-6.4-2.2-7.7-5.5 0.6-2.8 0.3-4.6-0.9-3.9-5.2-7.6 5.7-1.4 7.2-4.3 7.2-3.6 5.7 1.4 6.5 7.9 8.6 2.9z" id="UGA3366" name="Bushenyi" data-id="UGA3366" data-name="Bushenyi">
 </path>
 <path d="M132.7 725.8l-6 24-5.4 38.7-4.1-0.7-9.4 0-23.4 18-11.2 0.2-8.8-1.4 1.2-4.9-2.3 0.1-4.7 1.2-3.4 2.2-5.5-0.4-0.6-1-0.4-3.9-0.9-0.7-4.3-0.1-1-1.7-1.1-4.1-2.7-3.1-4.1-1.5-4.6 0.6-2.3 2-0.1-3.8 2.8-6.7 0.9-3.4-0.1-3.5-2.2-8 0.3-3.2 1.6-4.9 8-11.3 1-2 2.2 0.8 2.6 1.7 1.8-1.2 0.6-1.4 5.9-30.1 22-1.3 19.4-4.3 14.4 4.3 5 8.6 9.3-0.7 9.6 6.9z" id="UGA3367" name="Kasese" data-id="UGA3367" data-name="Kasese">
 </path>
 <path d="M245.2 698.2l4.4 0.3 2.1 2.5-0.3 7.2-2.8 3.8 2.2 4.7 0.9 5.4-1.8 3.4-6.6 1.3-2.2 2.8-1.6 10.4-23.3 0-6.9 0.3-8 3.8-9.2 3.4-6.3 3.2-9.9 2.4-5.5 2.5-8.5 14.9-5.1 8.7 2.8 6.5 2.2 10.4 3.4 2.3 3.2 4.1-4.4 1.3-4.3 1.8-5-1.5-15.1-6.8-5.1-1-5.3-0.4-9.4-4 1.5-3.4 5.4-38.7 6-24 4.5 3.1 12.5 3.4 3.2-15.2 1.8-11-0.5-4.7-3.8-4.9 2.7-5.7-0.1-2.8-0.6-2.8 2.6-4.6 4.6-3.4 2.3-2.3 6.6 5.3 2.2 7.9 2.8 4.4 5.8 2.6 0.1 6.2 2.1 6.5 0.5 7 2.2 4.7 4.7-0.6 10.1-4.4 8.8-5.7 7.2-7.2 11.3-4.4 5.3 1.6 4.4 1.6 5.3-2 3.9-0.2z" id="UGA3368" name="Kamwenge" data-id="UGA3368" data-name="Kamwenge">
 </path>
 <path d="M197.2 815.6l-11 1.4-10.6 3.8-3.4-1.4-4 0.9-1.9 1.4-0.7 2.5-1.4 2.4-2.8 0.5-1.9-1.7-1.3-2.4-15.5-10.3-4.8-3.2-2.8-0.3-1.9-7.1-4-6.2 5.3 0.4 5.1 1 15.1 6.8 5 1.5 4.3-1.8 4.4-1.3-3.2-4.1-3.4-2.3-2.2-10.4-2.8-6.5 5.1-8.7 8.5-14.9 5.5-2.5 9.9-2.4 6.3-3.2 9.2-3.4 4.3 7.9 12.2 0-8.3 15.8-8.9 8.6-6.4 10.8-3.6 12.2 15.5 5-4.6 2.5-3.3 3.5-1 5.2z" id="UGA3369" name="Ibanda" data-id="UGA3369" data-name="Ibanda">
 </path>
 <path d="M223.5 884.7l8.3 3.8 6.4 6 1.5 3.9 2.1 2.8 4-0.9 4-0.2 8.1 0.7 8-0.1 7.7-1.9 6.5-5.4 8.7 5.2 7.4 6.9 3.3 4.4 1.7 5.2-0.7 4.6 2.6 8.2-3.3 4.1 2.5 3.9 4.2 2.8 3.8 3.8 1.3 4.6 0.7 4.6 5.4 5.8-82.7 0-2.9-1.5-6.4-1.6-6.9 3.6-7 2.2-2.6 1.4-6.5 6.9-2.4 1.9-4.4-1.3-4-0.5-9.2 0.9-3.4 0.8-2.2 0.1-3.3-2.4-2.3-0.2-1.7 1.4-2-0.6 0.4-1.4 3.8-5.9 2.7-6.5 0.5-2.9 1.2-2.9 2.4-2.2 3.7-5.3 2.9-1.1 3.5-4.3 2.3-4.7 0.2-10 9.2 1.5-0.1-16-0.7-7.8 1-3.4-0.3-3.4 1.5-6.3 7.4 1 3.5-0.7 3.9-1.7 6.7 0.1z" id="UGA3370" name="Isingiro" data-id="UGA3370" data-name="Isingiro">
 </path>
 <path d="M280.6 782.1l1.2 15.2-3.6 15.2 0.2 12 1.7 6.4 3.3 6.1 5.1 14.5 3.4 6 1.6 6.7-2.4 6.5-3.1 8.4-7.9 14.3-6.5 5.4-7.7 1.9-8 0.1-8.1-0.7-4 0.2-4 0.9-2.1-2.8-1.5-3.9-6.4-6-8.3-3.8 1.6-5.7 1-5.5 5.5-8.4-20.1-15.6-4.5-4.7 0.8-6.6-2.5-4-5.1-1.1-6-6.5 3-11 1-5.2 3.3-3.5 4.6-2.5-15.5-5 3.6-12.2 6.4-10.8 8.9-8.6 8.3-15.8-12.2 0-4.3-7.9 8-3.8 6.9-0.3 23.3 0 14.1-0.6 12.9-2.4 3.2 7.3 3.8 6.8 0.7 7.3 0.2 11.8-1.6 4-2.3 2.4-1.2 3 5.2 0.7 6.1 1.8z" id="UGA3371" name="Mbarara" data-id="UGA3371" data-name="Mbarara">
 </path>
 <path d="M117.8 906.6l4 4.6 5.3 1.1 6.3-0.1-2.6 4.7 0.8 3.6 6.3 2.1 12.2 1.1 5.4-1.4 3.7-2.4 3.8 1.7 4 3.1 4.9 1 2.8-1.4 2.9-0.7 2.7 1.5 3.7-1.2 2.6-2.3 4.8-0.2-0.2 10-2.3 4.7-3.5 4.3-2.9 1.1-3.7 5.3-2.4 2.2-1.2 2.9-0.5 2.9-2.7 6.5-3.8 5.9-0.4 1.4-2.8-0.8-2.4 0.3-2.4 1.1-2.9 0.7-3.1-0.4-3.1-0.9-3-0.5-2.8 1-1.6 2.6-1.2 7.6-0.9 2.8-1.1 0.9-3.7 1.9-4.8-0.2-5.6 1.7-4.5 4.5-5.9 1.5 0.3-5.3-3.6-2-6.7-0.4-6.2-2-2.3-4.5-1.4-5.3-3.6-3.7-1.1-4.2 0.2-3.4 0.8-2.9 3.6-3.1 1.5-3.3-0.2-3.8 0.5-4-3.3-3.1-4-2.5 0.5-5.1 3-6.6 0.9-7.1-0.7-7 4.6-0.8 4.8 0.3 4.2-3.9 4.5-3.6 5.5 1.5z" id="UGA3372" name="Ntungamo" data-id="UGA3372" data-name="Ntungamo">
 </path>
 <path d="M67.9 847.5l5.2 7.6 0.9 3.9-0.3 4.6-0.6 2.8-0.4 5.1-2.2 4.3-0.5 2.6-2.8 1.1-2.4 1.4 2.9 6.8 7 3.5 5.3 6.1 3.3 7.9 10.9 7.9 0.7 7-0.9 7.1-3 6.6-0.5 5.1 4 2.5 3.3 3.1-0.5 4 0.2 3.8-1.5 3.3-3.6 3.1-0.8 2.9-0.2 3.4 1.1 4.2 3.6 3.7-25-6.7-5.8-1.1-12.8-22 0.6-3.8 2.4-3.4-0.7-4.1-3.5-4 2.9-14.9-10.5-16.2-1.7-4.9 0.6-5.5-4.6 0.2-4.3-0.9-3.4-4.9-0.7-6.1 1.1-10.8-0.2-10.7-3.9 0.5 3.5-1.1 3.6-0.5 3.5-1.2 6.5-5.5 6-2.8 1.1-1 4.6 0.2 12.5 5.8z" id="UGA3373" name="Rukungiri" data-id="UGA3373" data-name="Rukungiri">
 </path>
 <path d="M223.5 884.7l-6.7-0.1-3.9 1.7-3.5 0.7-7.4-1-1.5 6.3 0.3 3.4-1 3.4 0.7 7.8 0.1 16-9.2-1.5-4.8 0.2-2.6 2.3-3.7 1.2-2.7-1.5-2.9 0.7-2.8 1.4-4.9-1-4-3.1-3.8-1.7-3.7 2.4-5.4 1.4-12.2-1.1-6.3-2.1-0.8-3.6 2.6-4.7 12-7.5 15.9-15.4 2.8-6.9 1.2-5.8 4-13.4 0.2-7.6-0.5-6.1 5.4-5.3-0.7-12.4 1.9-11 10.6-3.8 11-1.4-3 11 6 6.5 5.1 1.1 2.5 4-0.8 6.6 4.5 4.7 20.1 15.6-5.5 8.4-1 5.5-1.6 5.7z" id="UGA3374" name="Mbarara" data-id="UGA3374" data-name="Mbarara">
 </path>
 <path d="M65.3 965.1l5.8 1.1 25 6.7 1.4 5.3 2.3 4.5 6.2 2 6.7 0.4 3.6 2-0.3 5.3 5.9-1.5 4.5-4.5 5.6-1.7 4.8 0.2-1.2 1.7-0.7 3.8-2 3.3-2.4 3.1-8.1 7.7-2.9 1.7-4.2 0.8-1.5 0.8-1.3 2.5-1.1 7.1-0.9 2.8-2 1.8-7.5 2.9-6.3 3.5-2.4 2.4-1.7 4-1.9 0.4-12.4 6.9-4 1.5-3.8 0.4-3.6-1-3.1-3-1.8-3.8-0.5-7.6-0.8-3.8-5.1-7.5-2-1-0.6-1.6-9.4-20.5 4.8-3.7-5.6-4.3-6.5-7.4-0.6-2.1 2.8-2.6 2.2-3.2 0.3-2.4 1.9-1.5 0.9-5.4 10 0.6 3.8 4 4.1 2.5 2.4-3.1 3.2-0.5z" id="UGA3375" name="Kabale" data-id="UGA3375" data-name="Kabale">
 </path>
 <path d="M38.7 970.9l-2.2 3.2-2.8 2.6 0.6 2.1 6.5 7.4 5.6 4.3-4.8 3.7 9.4 20.5 0.6 1.6-1.7-0.2-3.2 1.5-1.7 2-1.1 3.6-1.5 0.9-1.3-0.5-3.9-2.4-2.1-0.5-4.5 0.8-3 1.6-2.9 2.1-3.7 2.1-3.4 0.9-3.9 0.3-7.3-0.4 1.7-10.7 0-3.5-0.8-2.1-2.1-3.7-0.1-1.9 1.7-4.7 0.2-1.5-1-4-1.9-2.8-1.5-2.9-0.1-4.4 2.3-11.3 0.1-3.3-0.7-3.6-2.7-7-0.5-3.2 0.6-2.3 5.2 2.3 1.9 1.3 0.8 2.1 1.7 0.9 2.2 0.2 7.6 3 4.8 2.3 4.4-0.1 8.5 3.7z" id="UGA3376" name="Kisoro" data-id="UGA3376" data-name="Kisoro">
 </path>
 <path d="M65.3 965.1l-3.2 0.5-2.4 3.1-4.1-2.5-3.8-4-10-0.6-0.9 5.4-1.9 1.5-0.3 2.4-8.5-3.7-4.4 0.1-4.8-2.3-7.6-3-2.2-0.2-1.7-0.9-0.8-2.1-1.9-1.3-5.2-2.3 1.6-3.3-0.2-2.7-0.8-3.5 0.2-3.4 2-3.2 5.4-1.9 2.1-2.4 0.5-2.7 0.5-11-0.4-3.9-1.7-7.1 0.2-3.8 2.3-14.4 2.5-2.7 0.2-1.4-2.1-4.1 0.7-2 3.7-0.6 1.4-1.1 0.4-2.5-0.6-11.2-1.6-4.4 1.5-0.6 4.3-5.5 2.9-2.2 3.9-0.5 0.2 10.7-1.1 10.8 0.7 6.1 3.4 4.9 4.3 0.9 4.6-0.2-0.6 5.5 1.7 4.9 10.5 16.2-2.9 14.9 3.5 4 0.7 4.1-2.4 3.4-0.6 3.8 12.8 22z" id="UGA3377" name="Kanungu" data-id="UGA3377" data-name="Kanungu">
 </path>
 <path d="M275.2 300l3.9 11.8-2.7 6.9-5.5 3.4-1.1 6.7-7.7 1-1.5 3.8-6.8 0-3 5-2.6 5.9-5.2 2.6-3.1-1.4-3.4-3.1-3-3.6-1.9-3-0.5-2.7 0.1-2.8-0.5-2.2-1.8-1-12.8-0.2-2.6-0.8-0.5-3.1 1.6-3.8 2.3-3.7 1.4-3 0.2-3.3-0.7-6.8 0.2-3.4 0.8-1.8 3.5-5.6 1-4.5 1.2-3.2 11.6-2.6 6.2-4.1 10.3-3.5 7.6-1.1 1.8 7.4 2.4 6.7 0 8.4 10.8 4.7z" id="UGA5589" name="Zombo" data-id="UGA5589" data-name="Zombo">
 </path>
 <path d="M795.9 474.1l-6.5 2.4-3.7 6.4 1.6 17.4-1 11.7-6.9 2.7-4.3 5.3 1.3 13.6-5.5 1-3.4-2.9-1.8-3.1-4.4 0.1-26.9 1.8 2-4.5 3.5-4 2.1-1.4 2.3-0.2 2.2-1.3 7.6-3.8 8.8-32.7 1.3-4.6 2.1-5.3 3.8-2.9 5.7 1 4.5-2.2 8.4 0.8 7.2 4.7z" id="UGA5590" name="Ngora" data-id="UGA5590" data-name="Ngora">
 </path>
 <path d="M854.1 546.7l-4.1 8.9-6.3 5.5-3.9-0.7-3.5-2-8.6-2.2-3.6-2-3.7-1.4-16-3.3-2.8-3.6 6.4-4.8 7.4-4.2-0.6-10.6 0-7.4 3.7-3.2 5.3-3.7-1-11.7 7.9-4.7 11.1-2.1 15.2-4.3-0.4 12.2 0.3 4.4 2.4 3 4.7 9-2 9.8-1.7 4.8-0.9 5-2.2 4.9-3.1 4.4z" id="UGA5591" name="Bukedea" data-id="UGA5591" data-name="Bukedea">
 </path>
 <path d="M710.3 614.5l1.9 10.4-2.7 8.4-0.5 7.4 6.3 5.3 10.6 5.9 0 9.5 0.8 12.4-3.3 4-5.3-3.6-6-0.4-5.2-2.1-0.9-3.3-1.3-3.3-4-2.4-3-2.7-4.5-2.8-4.8-2-6.4-5.4-9.4 1.2-0.4-5.4 2-8.4 1.3-3 4.9-3.1 2.3-3.4 0.7-4.2 1.3-1.8 0.6-2.1-1-2.8 0.4-2.7 1.2-3 0.5-3.2 0.1-6.6 0.6-6.6 2.7-4.5 2.3-4.6-1-2.6-0.3-2.5 3.3-4.1 3.7 2.1 2.6 3.4 3.6 5.7 2.9 6.1-3.1 12.6 1.2 5.8 5.3 2.4z" id="UGA5592" name="Luuka" data-id="UGA5592" data-name="Luuka">
 </path>
 <path d="M625.6 504.3l2.7 2 3.3-0.6 3.1 1.1 10 5.1 6.4 4.5 5.4 5.3 13.7 1.7 14.5 2.5 8.3-2.4 8.3-0.4 2.6 2.9 2.3 3.5 1.8 6.7 5 2.1-0.5 5.1-1.5 4.6-3.6 4.7-2.4 5.2-3.3 4.6-2.8 4.8 0.3 2.7-0.3 2.5-4.8 3.9-3.3 4.1 0.3 2.5 1 2.6-2.3 4.6-2.7 4.5-0.6 6.6-7.1-3.5-5.3-5.3-8.5-6.8-4.8-1.6-4.2-3.2-1.1-8-2.6-7.4-13.8-6.3-14.1-1.5-5.5-9-1.7-5.9-4.2-5.1-1-3.7-7.7-8.6-3.7-7.9-3.6-13.5 28 0.3z" id="UGA5593" name="Buyende" data-id="UGA5593" data-name="Buyende">
 </path>
 <path d="M838.7 570l-3 8.4-2.8 2.8-3.8 0.4-1.5 3.1-10.9 7.2-10 8.5-9.9 3.9-10.4-2.2 0.9-16.4 3.2-4.3 6.3-3.2 2.7-3.7-3.7-2.1-1.6-3.7 2.1-3.2 1.1-5.3 14.3-0.5 12.1 3.7 6.9 3.2 8 3.4z" id="UGA5594" name="Budaka" data-id="UGA5594" data-name="Budaka">
 </path>
 <path d="M786.4 602.1l-9.7-1.8-8.7 2.3-6.6-6.2-2.1-3.4 0-8.8-2.8-3-8.7-6.3 14.1 0.2 12.7-4.8 13.8-6.4 9-3.7-1.1 5.3-2.1 3.2 1.6 3.7 3.7 2.1-2.7 3.7-6.3 3.2-3.2 4.3-0.9 16.4z" id="UGA5595" name="Kibuku" data-id="UGA5595" data-name="Kibuku">
 </path>
 <path d="M762.9 482.6l-8.8 32.7-7.6 3.8-2.2 1.3-2.3 0.2-2.1 1.4-3.5 4-2 4.5-11.2 2.1-4.4-0.9-3.6 1.5-2.9-0.7-1.9-3.6-4.2 0.6-2.3-3.5-2.6-2.9-8.3 0.4-8.3 2.4-14.5-2.5-0.2-17.2 1.4-20 5.8-8 0.4-7.2 1.1-8.1 10.7 0 7.5-3.2 2.7 4.3 12.2 3.2 5.4 11.3 8 5.3 12.8 3.2 11.8-1 13.1-3.4z" id="UGA5596" name="Serere" data-id="UGA5596" data-name="Serere">
 </path>
 <path d="M589.3 788.1l-0.5 2.9 3.7 1.2 0.3-2.3 1.5-1.2 2-0.1 2.4 1.1-2.5 3.8-3.1 2.7-3.8 1.7-4.4 0.6 0-1.2 2.5-1.3-2.7-1-4 2-3.3-1-2.7 0.1-2.2-0.5-1.6-1.3 1.5-0.8 1.9-2.3 1.4 0.6 1.3 1.6 1.6 0.1 1.3-1.6-0.1-1.8-1.2-4.2 1.7 1.2 3.5-0.4 0.6 1.5 1.2 1 1.8-0.6-2.4-3.6-1.4-4.1 2.2 1.5 2.2 2.5 1.3 3.2z m8.2-17.6l-1.4 5.1-3.8 5.1-3.5 2.8-1.8-2.2-0.7-2.3 0.8-1.6 2.9-0.2-0.8-2.5 0.3-2.8 1.2-1.7 2.9 0.7 0-3.7 3.9 3.3z m9.4-28.3l5.4-6 5-9.2 10.6-10.3 8-8.6 1.4-10.1-5-7-2.9-10.4 0.6-8.9 7.9-5.2 2.4 2.9 9.8 5 10.8 9 4.3 5.4 1.2 6.8-0.7 6.6 5.6 4.2 6.2 2-1.8 1.2-3.4 0.8-5.7 3.4-3.3 0.8-3.1 1.5-0.6 3.4 1.1 3.9 2 2.4-3 2.2-2.2 0.7 0.1 3.4-2.4 2.2-1.7 0.4-0.7-2 1.9-2.6 0-1.3-4.5-0.9-3.3-1.6-0.4 1.9-1.5 0.7-5 3.2 5.2 1 6.2 0.2-2.5 6.6-1.3 2.3-1.3 1.4-12.7 9.7-4 2.2-12 4.2-3.5 0.2-1.6-2.2 0.1-2.9-3.1-2-0.9-2.1 1.1-1.7 4-1.9-2.2-1-0.2-1.6 0.9-1.9 1.5-1.8-2.5 0 1.3-2.6-2.8 0.9-2.4 4-0.4-0.9z" id="UGA5597" name="Buikwe" data-id="UGA5597" data-name="Buikwe">
 </path>
 <path d="M684.2 765.1l-0.3 0.8 3.8 0-1.5 2.5-2.1 1.6-5.1 2.1-1.6-4.6 0.5-2.6 2.5-1.4 4.8-1.2-1 2.8z m-19-12.6l-1.4 2.1-1.7-3.6 0.3-3.9 2-2.7 3.3 0-1.9 2.1-0.6 6z m25.4-22.5l1.7 0.2 1.6-2 2.6 1.4-0.9-2.2 0.5-2.3 1.3-1.4 2.8 0.9-1.2-2.8-2.5-1.1 0-1.2 3.5 0 1.8 1.9 1.3 2.7 2.2 2.9-2.4 1-1 2-0.5 2.3-1.2 2.2-2.4-0.3-2.6 2.9-1.6-2.9-2.1-0.3-1.2 1.5 1.2 2.8-1.4 2.1 0.1 2.3 1.4 2.1 2.3 1.1-2.3 2.2-1.1 4.2 1 4 3.7 2.1-2.3 1.4-3-1.3-1.1-2.8 0.1-7.3-1.2 0 0.1 2.3-0.6 1.9-1.3 1.4-2 0.7-0.7-4.4-2.7-4.3-3.3-2.1-2.1 2-1.2 0-3.8-6.2 5.1 1.1 1.8 0.1 2-0.6 1.3-2.6-7.7-8-2.3-1.3-0.7-1.2 1.1-1.9 4.1-5.1 0.9-0.6 7.3-1.2 3.7-0.2 3.5 1.4-2.5 1.7-1.8 2.6 0.3 2 4 0-0.6 2.8 1 1.4z" id="UGA5598" name="Buvuma" data-id="UGA5598" data-name="Buvuma">
 </path>
 <path d="M422.9 775.3l-7.9-8.9-3.5-1.6 9.1-5.3 13.6-5.8 8.8-4.1 6.8-8.9 12-6.8 10.4-2.6 2.9-4.1 3.4-0.3 12.9 0.8 6.3-2.6 0.5 7.3-3.6 3.6-5.3 4.2-8.8 5.7-7.8 4.7-9.4-1.6-9.3 3.7-6.8 7.3-11.5 8.8-12.8 6.5z" id="UGA5599" name="Butambala" data-id="UGA5599" data-name="Butambala">
 </path>
 <path d="M416.6 722.2l4.7 1.4 4.3 6.8 3.3 1.9 4.2 1.2 3.5-0.3 2.6-2 4.1 1 3.3-1.1 2-2 26.5-1.9-2.9 4.1-10.4 2.6-12 6.8-6.8 8.9-8.8 4.1-13.6 5.8-9.1 5.3-6.8-3-10.8-1.6-4.7 2.3-4.1 2.9-5.2 0.7-5.3-1.2-13.5-9.1-14.3-7.9-3.8-1.6-4.1-6.4-3-2-8.3-0.6 0.4-9.6 6.8-2.6 11.4-2.1 11.5-3.7 13.8-7.1 8 0.4 6.8 2.1 12.5 4.1 8.9 8 8.9-4.6z" id="UGA5600" name="Gomba" data-id="UGA5600" data-name="Gomba">
 </path>
 <path d="M481.4 128l3.7 4.8 0.9 3.4 1.9 3 1 3.7 7.3 7.3 2.2 5.9 9.4 11.1 6.8 4.9-7 6.4-6.8 9.4-11.6 9.9-3.4 5.5-3.9 11.6-0.4 10.7 3.2 7.7 4.1 30.5-0.4 4.3-2.4 6.2-3.9-2-7.7-1.9-6.5-4.6-8.4 0-6.5-0.6-6.5-3.9-43.4 0.6-5.2 4.6-2.6 7.1-21.4 0-7.8 3.9-8.4 9.1-5.8 5.8-8 2.4-1.3-3.9 0.5-4.3 1-1 3.1-1.6 1-1 0.4-2.2-1.2-4.3-1-6.5-1.8-2.1-2.8-1.4-3.6-2.5-3.9-6.5-0.7-7.7 1.7-7.4 4.7-9.6 7.5 2.1 4.4 3.7 3.9 5 4.7 1.3 1.7 2.6 2.3 1.2 3.4 0 2.5-1.7 4.6-6.6 5.7-7.9 19.3-3.1 36.6-11.4 0.8-3.6 0.4-3.7 6.7-11 0.3-3.9 1.1-3.5 2.7-2.5 2.2-2.9 1.9-3.3 1.1-3.4-0.9-4 0.4-3.8 3.6-6.6-0.5-3.1-1.5-3.2-0.4-3.9 0.3-3.7 2.3-1.2 1.2-2.3 0.9-26.3 1.2 1.9 2.8 2.9 3.1 1.6 11.5 2.4 2.2-0.1 1.4-2.8z" id="UGA5601" name="Amuru" data-id="UGA5601" data-name="Amuru">
 </path>
 <path d="M416.8 525.6l13.4 13.2 6.8 11.6 3.7 21.5-14.3 3.4-5.8 5.7-2.1 8.6-5.8 5-7.9 4.4-7.1 6.4-7.9 10.1-6.5 0-10.3 3.8-26.5-3 0-5.9-2-5.9 2.9-3.5 4.6-3 1.6-2.5 3-0.6 2.9-1.3 1.8-2.8 0.4-4.9-3.2-3.7-10.1-8.7-7.5-11-5-2.1-5.5-1.5-5.6-3.1-5.3-3.9 5-4 6.2-1.9 10.5-5.2 5.3-2.1 13.9-13.9 28.6 3.7 8.4 2.4 8.1 0.8 4.1-4.4 3.5-1.1 3.7-0.6z" id="UGA5602" name="Kyankwanzi" data-id="UGA5602" data-name="Kyankwanzi">
 </path>
 <path d="M680.3 86.5l-2.1 7.9-1.6 5.4 1 5.9 4.3 5.9 2.2 10.2-0.6 24.1-10.1-0.6 0-9.6-8.1-9.1-4.8 0-3.7 2.1-2.1 7.5-2.7 2.7-31 0-2.2 4.3 0 3.8-4.2 3.2-7 1.6-17.6 1-2.2 4.9 0 8.5 3.8 7.5 0 7.6 0.8 10.4-8.6 1.8-10.2 6.1-30.1 0.2-1.1-4.1-22.5-19.8-5.3-3.8-6.8-4.9-9.4-11.1-2.2-5.9-7.3-7.3-1-3.7-1.9-3-0.9-3.4-3.7-4.8 0.6-2.6 0-2.8-0.8-6.6 0.2-2.3 2.2-2.5 33.6-20.6 8.1-1.8 62.3-5.1 15.3-4.7 14.4-7.3 11.1-8.2 3.2-1.2 3.7 1.5 23.1 19 3.8 2 5.6 1.1 12.5 0.6z" id="UGA5603" name="Lamwo" data-id="UGA5603" data-name="Lamwo">
 </path>
 <path d="M597.9 388.3l2.8 2.8 3.2 1.9 4-0.2 3.7 1.4-1.5 8.4-2.8 8 0.7 6.4 8.2 1.3 6.2 2.8-0.6 11.1 14.8 9.1-6.4 18.7-18.5-17-21 1.2-14.3 12.6-12 11.2-6.4 3.6-45-0.6-8.4 1.2-12.3-3.6-4.3-1.5-6.3-0.2-6.7 1.9-6.7 3.6-0.5-3.3 1.9-5.8-1.4-3.3 2.1-2.5 5.6-5.3 3-3.7 8.5-1.8 2.3-2 2 0.9 3-1.5 3.9-1.3 0.7-2.1 0.3-2.3 0.7-1.8 3.1-1.2 4.7-1.3 3.5-2-0.7-3.7 1.3-2.8-0.1-4 0.4-1.6 3.5-4-4.4-1.3-1.3-0.9-0.5-2.2 0.5-2.4 2.5-4.9 0.7-2.2-0.1-3.4-0.8-4.1 13.9 5.8 8.7-1.8 11.3-17.2 3.2-6.6 9.2 0.4 13.3 0 3.2 3.7 3.8 3.2 6.9 0.5 3.8 3.3 7.9 2.4z" id="UGA5604" name="Apac" data-id="UGA5604" data-name="Apac">
 </path>
 <path d="M597.9 388.3l-7.9-2.4-3.8-3.3-6.9-0.5-3.8-3.2-3.2-3.7-13.3 0-9.2-0.4 2.2-4.5 3.3-4.1 4.2-3.3-3.9-21.6 7.3-2.1 12.6-16.2 7.7 0.3 8 2.7 6.4-5.1-2.8 10.3-3.8 7-2.6 7 4.2 5.9 4.7 9.8 3.3 5.4-1.2 3.4-1.5 18.6z" id="UGA5605" name="Kole" data-id="UGA5605" data-name="Kole">
 </path>
 <path d="M732 342.7l-0.2 4.8 0.6 7.3-5.3 5.2-6.5 4.5-7.3 0.1 2 2.9 2.8 2.4 1.1 3.5-0.9 4.1-1.3 3.1 1.2 3.8-2.6 3-3.7 1.1-2-3-2.9-0.6-7.3 6.1-0.9 7.3 1.2 6-7-3.5-7.6-0.2-2.5-4.1-2.8-3.6-9.1-1.7-7.2-3.8-3.3 1.4-3.5-0.7-3.3 5.3-5.9 2.3-1.2-28.6-3.7-6.4-7-3.8-6.9-5.3-2.7-6.4-6.4-2.2-8 0 1.1-4.3 8-3.2 4.8-5.3 0-5.4 9.6 2.2 8.6 0 4.2-3.3 7 0 8 3.3 2.7 6.9 3.7 3.8 8.6 2.1 13.9 0.5 9.1 3.3 2.6 2.1 17.7 0 4.8-3.2 5.7 0.2z" id="UGA5606" name="Alebtong" data-id="UGA5606" data-name="Alebtong">
 </path>
 <path d="M729.8 298.6l12 16.3 5.5 4 3.9 5.4 1 9.1-3.5 8.5-5 5.1-6.3-1-5.4-3.3-5.7-0.2-4.8 3.2-17.7 0-2.6-2.1-9.1-3.3-13.9-0.5-8.6-2.1-3.7-3.8-2.7-6.9-8-3.3-7 0-4.2 3.3-8.6 0-9.6-2.2 5.9-3.7 2.6-5.9 0.5-5 5.3-6.5 7.4-4.5 8.1-3.4 3.6-0.8 2.7 2 3.1 1.6 4.2-1.4 3 0.2 2.9 0.9 7.7-0.7 7.5 2.5 3.4-1.9 3.1-3.2 3.9 0.5 4.2 1.6 3.4-1.4 2.8-3.1 8.2 6.5 10.5-0.5z" id="UGA5607" name="Otuke" data-id="UGA5607" data-name="Otuke">
 </path>
 <path d="M732.7 175.4l0.9 13.4 0.7 10 2.6 33.1-0.3 5.5 1.2 4.9 0.7 5.5 2.7 4.7 1.3 5.5 0 6.4-9.3 8.7-5.1 12.3 1.7 13.2-10.5 0.5-8.2-6.5-2.8 3.1-3.4 1.4-4.2-1.6-3.9-0.5-3.1 3.2-3.4 1.9-7.5-2.5-7.7 0.7-2.9-0.9-3-0.2-4.2 1.4-3.1-1.6-2.7-2-3.6 0.8-9-11.7-4.2-6.4 4.8-5.4 23.5-1 5.9-6.5 1-12.3-3.7-6.4-11.8-0.6-9.6-1.6-1.1-6.4 5.4-4.3 3.7-4.3 0-7.5 6.4-17.1 4.4-14.1 10.7 1.8 7.3-2.5 8.7-0.7-1.6-12.2 11.9 0.4-5-7.2 14.9 1.5 3.2 1.9 3 2.5 4.1 0.3 4.2-0.6z" id="UGA5608" name="Agago" data-id="UGA5608" data-name="Agago">
 </path>
 <path d="M496.8 360.8l3 1.5 2.9 3.4 3.3 6.3 1.9 12.8 1.3 2.9 2 2.9 1.5 4 0.8 4.1 0.1 3.4-0.7 2.2-2.5 4.9-0.5 2.4 0.5 2.2 1.3 0.9 4.4 1.3-3.5 4-0.4 1.6 0.1 4-1.3 2.8 0.7 3.7-3.5 2-4.7 1.3-3.1 1.2-0.7 1.8-0.3 2.3-0.7 2.1-3.9 1.3-3 1.5-2-0.9-2.3 2-8.5 1.8-3 3.7-5.6 5.3-2.1 2.5 1.4 3.3-1.9 5.8-6.2-3.7-7.9 0.9 0 7-6.1 0.9-3.5-5.3-7.1-1.8-5.2-2.6 0-7-2.7-7-4.3-8 0-8.7 1.7-11.5 0-7.9-7-10.5-5.3-1.8-7-0.9-3.5-4.4-0.9-21.1 1.7-22.5 6-6.6 2.8-2.1 3.4-1.2 7.4-1.3 3-1.4 1.9 1 5.6 0.4 2 1 4.4 3.2 3.9 1.7 7.3 6.6 1.9 0.6 5.6 0.6 6.3 3.3 5.8 1.7 6.1 4.8 4.3 0.1 2-1 4.2-3.9 1.8-0.3 6.6 0.4z" id="UGA5609" name="Kiryandongo" data-id="UGA5609" data-name="Kiryandongo">
 </path>
 <path d="M181.1 588.4l-1.1 5.1-10.2 7.6-7.2 9.4-13.6 13.6-8.7-7.2-4.3 13.7-8.6 5.7-12.7 6.9 2.6-6.4 3.3-3.8 1.2-8.8 3.2-4.2 4.6-2.1-8.3-7.7-4.2-10.9 0.6-0.8 0.9-2.9 4.1-4.4 1.3-3.4-1-7.4-0.1-3.6 2.4-2.1 1.1-3.5 0.3-4 0.5-1.1 5.6-5.8 3.2-1.3 1.6 0.4 2 1.5 3.2 1.5 2.2-2.4 2.2-3.6 3.1-2.4 2.1-0.2 4.2 0.4 2.4-0.2 3.5-0.9 2.5-1.1 2.4-1.6 3.6-3.2 2.8 2.8 2.6 1.4 0 1.3-3.9 1.8 0.2 3.3 1.2 3.9-1.1 3.5 1.7 3.6 1.5 2.3 0.8 2.5-0.4 4.1-2.2 3.3-0.7 1.7 1.1 1.9 1.5 0 2.1-1.3 3.3-3-0.9 6.2 0.5 1.9z" id="UGA5610" name="Ntoroko" data-id="UGA5610" data-name="Ntoroko">
 </path>
 <path d="M305.6 660.1l4.7 4.5 2.5 5.7-0.6 2.8-1.3 2.7 0.2 2.3-2.6 1.4-12.8 2.2-4.1 3.5-1.6 6-3.5 6.3 0.2 7.1 1.7 3.1 1.1 3.2-1.9 2.3-2.6 2.2-3.9 5.6-4.6 5.2-5.2 4.2-3.3 5.7-1.5 0.9-12.9 2.4-14.1 0.6 1.6-10.4 2.2-2.8 6.6-1.3 1.8-3.4-0.9-5.4-2.2-4.7 2.8-3.8 0.3-7.2-2.1-2.5-4.4-0.3 0.3-8.8 6.2-0.4 0-16.6 1.9-2.5 4.1-0.7 0-11-9.1-4.7-2.2-3.8 3.8-0.9 4.7-2.5 10 1.9 8.2 1.2 8.8 2.2 8.2 3.9 4.9 0.7 4.2 2.2 3.4-0.3 3 2z" id="UGA5611" name="Kyegegwa" data-id="UGA5611" data-name="Kyegegwa">
 </path>
 <path d="M931.5 491.9l8 5 11.2 17.3-2.8 9.2-5.8 7.5-3.6 1.7-3.8 0.6-4.9 1.9-4.4 2.9-6.1 7.5-4.1 8.8-0.3-13.7 4.2-10.6-0.5-7.4-6.4-4.2-11.6-3.2-6.4-5.8 3.6-7.6-5.8-7.6-8-5.3 10.2 0.4 12.7-6.7 4.9 1.4 2.5 1.2 2.1 1.5 3.2 0.2 3.3-0.2 8.6 5.2z" id="UGA5612" name="Kween" data-id="UGA5612" data-name="Kween">
 </path>
 <path d="M884 488.9l8 5.3 5.8 7.6-3.6 7.6-8.7 3.9-5.6 3.7-4.7 4.8-2.8 4.9-0.9 5.4 3.5 3.9 18.8 7.6 12.3 6.8 4.8 4.6-0.1 6.3-12.9-2.7-9-1-4.7-4.8-13.8-3.7-16.3-2.4 3.1-4.4 2.2-4.9 0.9-5 1.7-4.8 2-9.8-4.7-9-2.4-3-0.3-4.4 0.4-12.2 2.8-0.9 2.9-0.4 2.4 1.7 2.7 1.1 16.2-1.8z" id="UGA5613" name="Bulambuli" data-id="UGA5613" data-name="Bulambuli">
 </path>
 <path d="M764.9 797.7l-2 7.1-2.4-2.6-1.3 1.4-1.1-2.7-1.4-1.4-1.9-0.2-3.1 0.4 0-1.2 3.2-1.3 6.1-4.2 2.6-0.8 1.8 1.7-0.5 3.8z m15.7-44.8l2.3 4.3 3.5-0.7 4.2 0.9 2.9 2.2-0.6 2.7-2.9-1.8-2 0.1-3.9 1.7-2.1-0.2-7.1-1.4-2.1-1-0.7-4.2 3.8-2.7 4.7 0.1z m22.1-20.8l-2.2 1.8-0.9 2.7-3.8 2.2-0.2 3.4-5.9-2.7-5.6-3.7-0.8 2.8-0.6 4.9-1 2.3-1.6-4.3-0.3-4.1-0.6-3.7-2.6-3-0.7 2.9 0.2 4.2-1.9 1.8-2.4-0.6-7.7-0.4-2.4-1.5 0.2-2.5 1.9-3.3 2.5-2.9 1.6-1.4 0-1.2-4.4-1-2.2 0.1-2.1 0.9 1.3-3.8 2.4-2.6 3.3-1.6 4.1-0.7-1.2-1.5-2.5-1.3-2.8-0.8-3.3-0.1 4.9-2.7 6.5-4.7 6.1-2.5 5.7 0.3 1.8-7.9 3.6-5 6.2-3.7 4.1 8.2 0.5 4.7-2.1 3.3-3.1 3-2.2 4.6 0.8 5.5 4.2 8.4 5.2 7.2z" id="UGA5614" name="Namayingo" data-id="UGA5614" data-name="Namayingo">
 </path>
 <path d="M953 319.2l-21.9 1.2-0.9 65-5.2 7.9-28.1 1.8-10.5 7-6.2 3.5-1.7 6.2-7.1 2.6-10.5 1.8-7.2 0 0-19.8-1.6-8.9-6.9-5.7-47.5-29.7-28.7-17.9-4.6-2-9.2 9.4-6.5 0.3 3.5-8.5-1-9.1 5.6-0.4 5.4-1.6 11-6.2 12 0.1 11.7 1.4 13.6-1.6 5.6-0.2 2.5-1.4-0.4-2.2-4.2-3.5-2.1-5.1-4.1-4.6-1.9-4.1 2.4-19.4 8.7-6.1 16.4 1.4 8-0.6 14.9 5 4.7-19.9 10.4 4.4 13.2 1.7 10.5 4.4 13.2 11.5 9.7 8.8 14.9 4.4 0 11.4 10.5 3.5 7 7 2.6 6.8z" id="UGA5615" name="Napak" data-id="UGA5615" data-name="Napak">
 </path>
 <path d="M957.7 522.9l-7-8.7-11.2-17.3-8-5 11-7.2 9.7-6.1 7-12.3 2.6-17.6 0-23.7 0.9-15.9 9.7-0.8-3.5-21.1 7.9-7.1 6.8-10.8 8.3 19.9 0 3.5-1.7 8.2-0.3 3.6 0.2 3.8 0.8 3.6 1.3 3.2 1.6 1.9 4.3 4.1 0.9 2-0.7 2-3.4 4.3-0.8 2.2-0.2 35.6-1.1 4-5.8 12.3-1.3 2.1-1.9 1.7-1.8 0.9-3.8 0.7-1.9 1-4.2 6.2-3.8 14.8-10.9 8.9 0.3 3.1z" id="UGA5616" name="Amudat" data-id="UGA5616" data-name="Amudat">
 </path>
 <path d="M377.4 822l20.9 0-4.7 4.7 0 8.8-6.3 3.7-7.8 4.1-1 4.2 3.1 6.2-1.5 6.3-4.2 4.7-6.3 3.1-6.9 0.4-4 3.8-1.5 9.4-6.8 3.1-8.5-3.1-12.3-4.7-12-8.4-7.9-9.4-2.5-7.8 2.1-8.3 3.1-8.3 1.7-9.4 1.2-2 2-1.4 10.2 6 15.1 2.5 4 0.5 4 0.9 10.3-0.2 12.5-1.9 3.5-1.3 0.5-6.2z" id="UGA5617" name="Lwengo" data-id="UGA5617" data-name="Lwengo">
 </path>
 <path d="M317.3 821.7l-2 1.4-1.2 2-1.7 9.4-3.1 8.3-2.1 8.3 2.5 7.8-1.5 11-7.8 1.6-9.3-0.8 2.4-6.5-1.6-6.7-3.4-6-5.1-14.5-3.3-6.1-1.7-6.4-0.2-12 3.6-15.2-1.2-15.2 4-1.4 2.5-1.7 4.3 0.8 9.8 3.3 0.6 3.2 9.7 4.6 2.4-6.3 5.1 3.3 3.9 4.5-0.8 5 0.9 2.7 0.3 2.7-0.7 5-1.9 4.4-1.4 5-2 4.5z" id="UGA5618" name="Lyantonde" data-id="UGA5618" data-name="Lyantonde">
 </path>
 <path d="M385.1 765.4l4.3 6.6 6.8 16.1 3.1 7.8 1.6 8.4 3.6 7.2-1 4.2-5.2 6.3-20.9 0-3.6-16.7-6.8-34.7 7.6-5.7 5.3 1.2 5.2-0.7z" id="UGA5619" name="Bukomansimbi" data-id="UGA5619" data-name="Bukomansimbi">
 </path>
 <path d="M411.5 764.8l3.5 1.6 7.9 8.9 4.4 5.1 10.2 16.8-2.9 1.3 3.7 1.2-0.8 2.7-1.6 7.4 6.3-2.2 0.8-0.1 1-0.1 1.7 1.3 0 1.2-0.1 1.6-1 4.6 0 0.1-7.3 2.1-7.8 4.2-31.2-0.5 5.2-6.3 1-4.2-3.6-7.2-1.6-8.4-3.1-7.8-6.8-16.1-4.3-6.6 4.1-2.9 4.7-2.3 10.8 1.6 6.8 3z" id="UGA5620" name="Kalungu" data-id="UGA5620" data-name="Kalungu">
 </path>
 <path d="M55.2 803.2l-1.6 0.7-2.4-0.3-1.5-0.8 5.5 0.4z m87.5 9.5l-7.4 6.1-12.2 2.8-8.6 5.1-4.3 3.6-1.4 20.1-8.6-2.9-6.5-7.9-5.7-1.4-7.2 3.6-7.2 4.3-5.7 1.4-12.5-5.8-4.6-0.2 1.7-1.6 3.7-5.7 3-6.4 2.2-7.1 1.7-11.8 1.3-4.3 8.8 1.4 11.2-0.2 23.4-18 9.4 0 4.1 0.7-1.5 3.4 9.4 4 4 6.2 1.9 7.1 2.8 0.3 4.8 3.2z" id="UGA5621" name="Rubirizi" data-id="UGA5621" data-name="Rubirizi">
 </path>
 <path d="M113.8 889.9l5.7 10-1.7 6.7-5.5-1.5-4.5 3.6-4.2 3.9-4.8-0.3-4.6 0.8-10.9-7.9-3.3-7.9-5.3-6.1-7-3.5-2.9-6.8 2.4-1.4 2.8-1.1 0.5-2.6 2.2-4.3 0.4-5.1 7.7 5.5 6.4 2.2 5.8-1.5 5.7 0 4.3 4.4 1.5 5.7 2.1 5 7.2 2.2z" id="UGA5622" name="Mitooma" data-id="UGA5622" data-name="Mitooma">
 </path>
 <path d="M133.4 912.2l-6.3 0.1-5.3-1.1-4-4.6 1.7-6.7-5.7-10 15.1-1.4 12.2-1.5 2.1-10.8 0-12.2 2.2-6.4 24.1-2-0.2 7.6-4 13.4-1.2 5.8-2.8 6.9-15.9 15.4-12 7.5z" id="UGA5623" name="Sheema" data-id="UGA5623" data-name="Sheema">
 </path>
 <path d="M175.6 820.8l-1.9 11 0.7 12.4-5.4 5.3 0.5 6.1-24.1 2-2.2 6.4-7.9-2.8-12.9-7.2-13.6-3.6 1.4-20.1 4.3-3.6 8.6-5.1 12.2-2.8 7.4-6.1 15.5 10.3 1.3 2.4 1.9 1.7 2.8-0.5 1.4-2.4 0.7-2.5 1.9-1.4 4-0.9 3.4 1.4z" id="UGA5624" name="Buhweju" data-id="UGA5624" data-name="Buhweju">
 </path>
 <path d="M486 274.3l-2.3 5.8-3.5 4.7-1.3 5.1 2.6 5.6 5.1 3 11.6 0.8-0.8 2.3 0.3 3.6 0.9 3.6 2.9 4.8 4.8 3.1 5.8 1.8 3.4 3.4-7.5 0.8-7.6-0.8-6.9 1.6-1 7.5 0.9 15.2 3.4 14.6-6.6-0.4-1.8 0.3-4.2 3.9-2 1-4.3-0.1-6.1-4.8-5.8-1.7-6.3-3.3-5.6-0.6-1.9-0.6-7.3-6.6-3.9-1.7-4.4-3.2-2-1-5.6-0.4-1.9-1-3 1.4-7.4 1.3-3.4 1.2-2.8 2.1-6 6.6-17.2 5.8-3.4 0.5-1.5-0.4-2-1.7-1.6-0.4-12.6 0-2.7 0.8-6.2 3.5-8.9 2.3-9.1 6.7-5.8 2.2-1.3-2.7-0.3-8.4 1.5-3.2 2.2-2.5 6.2-4.5 3.7-2.2 3.3-0.9 3.2-1.7 1.2-4.3 0-8.9 0.1-2.7 0.9-4.1 1.8-3.2 2.7-1.3 2-0.6 1.4-1.3 0.8-1.8 0.2-2.1-0.7-1.5-5.4 0.9-3.2-2.7-2.8-7.9-2.2-3.8-2.6-2.9-2.3-3.4 8-2.4 5.8-5.8 8.4-9.1 7.8-3.9 21.4 0 2.6-7.1 5.2-4.6 43.4-0.6 6.5 3.9 6.5 0.6 8.4 0 6.5 4.6 7.7 1.9 3.9 2z" id="UGA5625" name="Nwoya" data-id="UGA5625" data-name="Nwoya">
 </path>
 <path d="M907.8 572.2l-3.8 3.7-1.8 3.2-1.5 3.8-1 3.9 0 4.2-4.1-1.5-16.8 0-0.4 3.9-3.2 0 0-2.5-12 0.2 3-3.8 2.3-4.2 4.4-5.8 7.4-2.2 5.7-3.5 15.1 1.4 6.7-0.8z" id="UGA5626" name="Bududa" data-id="UGA5626" data-name="Bududa">
 </path>
 <circle cx="717.4" cy="389.6" id="0">
 </circle>
 <circle cx="723.5" cy="386.5" id="1">
 </circle>
 <circle cx="827.2" cy="84.1" id="2">
 </circle>
</svg>