<?xml version="1.0"?>
<!--
************* Copyright (c) 2017 Pareto Softare, LLC DBA Simplemaps.com *******************		
************* Free for Commercial Use, full terms at  http://simplemaps.com/resources/svg-license ************
************* Attribution is appreciated! http://simplemaps.com ***************************
-->
<svg baseprofile="tiny" fill="#7c7c7c" height="1099" stroke="#ffffff" stroke-linecap="round" stroke-linejoin="round" stroke-width="2" version="1.2" viewbox="0 0 1000 1099" width="1000" xmlns="http://www.w3.org/2000/svg">
 <path d="M460 216.2l1.4 1.7-5.1 17.4-1.3 3.2-2.3 4.6-2 1.9-2.4 1.5-13.1 3.8-2.6 1.2-2.6 1.9-1.4 1.7-0.8 1.6-0.2 2.6 0.4 1.3 0.7 1.2 2.9 3.2 1.7 2.3-1.1 4.1-1.7 3.8-1.5 8.5-0.5 2.1-0.7 1.6-0.9 0.6-2.3 2.4-1.9 2.6-2.4 2.3-1 0.5-3.5 1.2-1.4 0.9-1 1.4-3.2 6.8-0.8 1.3-6.2 6-0.9 1.5-5.6 15.6-0.5 2.3 0.8 2 1.3 1.7 1.1 2 0.8 2.2 0.4 2.5 0.5 9.4 0.5 2.5 0.7 2.3 0.3 3-0.3 6.2-10 2.6-2.9 2.2-0.3 1.2-1.1 1.9-1.6 2.3-5.8 6.2-1.2 1.6-0.5 2.5-1.3 3-2 1.8-2.5 0.8-3.1 0.6-3.3-0.1-13.4-4.1-9.8-0.3-1.3-0.2-2.4-0.8-9.6-6.1-1.6-0.5-2.1-0.3-7.9-0.1-2.4-0.6-3.8-2.6-1.3-0.6-1.8-0.6-3.2-0.4-2.3 0-16.4 3.5-2.2 0.1-3.9-0.9-8.3-3.2-1.4 0-1.2 0.4-2 1.5-1.4 0.8-2.7 1-1.8 0.3-1.7 0-2.4-0.8-16-1.9-2.2-0.6-7-5.4-2.1-1.1-15-4.4-4.3-2.1-2.6-2-1.4-1.7-4.1-6.4-0.9-0.9-2-0.8-3.5-0.9-5.3-0.1-4.6-0.7-4.5-1.8-2.1-1.1-6.3-4.6-13.6-7-27.9-6.1-1.3-0.5-1.9-1.3-0.7-0.8-0.9-2-2.4-7.8-1.2-1.8-1.7-1.5-12.5-7.1-5-1.9-2-0.3-1.5 0-7 1.8-1.5 1.4-0.4 3.3-1.2 0.4-2.1 0.1-3.3-0.9-3-0.4-2.8 0.8-3.7 2-2.3-1.8-4.6-5.7 2.4-6.8 3.6-3.1 7.1-4.3 3-2.6 1.8-4.2 1-10.1 1.7-4.5 1.3-1.5 3.2-2.5 1.4-1.4 3.9-8.4 1.8-2.6 0.1-5.7-1.3-9.9 2.4-9.7 4.8-7.4 3.5-7.6-1.5-10.3-8-11.8-1.2-2.6 1.4-3.9 3.6-2.4 8-2.1 4.4 0.5 2.4-0.8 1-3.4 1.1-5.3 0.2-2.3-0.2-9.2-0.6-5.5 4.5-6.8 2.3-1.8 1.9 0 5.2 0.6 2.1 0.6 2.6 1.6 12.2 9.2 3.2 2.9 1.4 1.7 3.2 4.3 2.2 2.1 2.2 1.5 1.8 0.6 1.7 0.3 6.7 0 3.9 0.5 2 0.6 1.5 0.6 3.1 2.4 1.2 1.2 6.2 4.4 25.1 13.4 9 3 1.5 0.8 2.9 2.5 8.7 8.7 3.6 2.6 4.6 2.4 11.4 3.4 1.9 0.2 1.3-0.2 2.1-0.8 5.1-3.9 3.1-1.5 12.5-1.6 4.5 0.3 21.5 3.9 2.7 0.1 4.5-1.2 9.1-0.9 2.3-0.6 2.1-0.8 1.8-0.9 11.1-9.4 1.7-1.1 2.2-0.7 6.3-0.9 2.3-0.7 1.7-1.2 2.7-3.4 2.7-1.9 4.3-1.7 2.5-1.9 1.8-2.9 1.4-3.3 1-2 1.4-1.7 1.4-0.7 1.9-0.4 3.4-0.4 3.4 0.7 10.5 3.8 30.1 6.7 1.2 0.4 3.1 1.9 3.9 3.4 1.4 1.7 2.8 4.6 2.2 2.6 4.8 4.2 1.4 1.6 2 2.6 1.5 1.6 7.2 5.6z" id="URY10" name="Salto" data-id="URY10" data-name="Salto">
 </path>
 <path d="M249.6 674.7l-2.5 7.1-1.3 2.1-13.5 17.3-2.5 2.2-19.9 23.8-2 3.7-0.1 2 0.6 2.7 1.3 1.8 4.9 3.2 1.6 1.6 1 2 2.1 9.8 0.9 2.1 3.1 4 0.3 0.8 0.4 2.9 0.1 2.6 0.7 3.2 0.6 0.9 1.5 1.6 3.9 5.4 1.6 1.5 1.9 1.3 1.2 0.5 5.2 1.4 2 1.5 0.6 1.5 0 1.4-0.3 1.2-0.9 2.1-0.8 2.5-2.8 22.3-0.1 2.9 0.5 1.5 7.9 13.7 2.3 5.4 0.3 1.3 0.6 3.4 1.6 5.5 0.9 5.7 0.7 2.4 1 2.1 3.3 4.6 1.5 2.5-19.8-3.1-15.6 0-5.4-0.7-1-0.6-3.6-2.8-3.2-3-3.6-2.2-4.1-1.9-3.5-1-32.6 8.9-11.5 1.2-5.3-0.5-25.9-9-2.7-2.2-1.7-2.3-2.4-2-2.6-1.4-1.9-0.5-14.8-0.5-5.6 1.1-3.4 0.1-3.4-0.6-2.1-1.5-1.7-2.7-1.2-3.4-1.5-3.1-2.1-2.6-21.4-5.6-3.3-0.3-3 0.9-17.7 12.3-17.1 7.2-2.6 0.7-6.2 1.1-3.6-20.7-0.9-19.7 2.6-19.5-0.6-4.7-1.2-4.5-0.6-4.7 1-5.4 2.5-4.5 6.5-8.6 1.3-4.9-1.2-4.4-1.2-1.1 18.1-10.8 10.2-13.4 3.5-2.2 9 0 5.4 0.9 2.2-1 0.9-3.9 0-8.5 0.6-2.3 2-2 6.4-3.5 2.2 1.4 3.3 3.1 1 0.2 1.9 1.7 1.5-2 0.8-3.7-0.2-3.8-3-2.7-1-1.2 0-5.3-2.1-4.5 0.1-1.6 2-1.7 3-0.8 2.8 0.6 2.7 1.1 3.2 0.4 4.3-1 0.8-1.9-0.4-2.8 0.6-3.4 1.9-1.9 5.7-1.4 2.8-1.2 2.7-2.5 1.9-2.5 2.3-2 3.4-1 3.3 0.5 5.3 3.2 3 1 2.3 0 3.9-1.2 2.3-0.3 2.1 0.5 2.8 2.1 5.6 1.4 7.3 3 3.6-0.8 1.5-1.8 1.8-4.9 1.3-1 6.4-1.8 1.4-0.6 3.7-2.6 4-0.9 4.2 0.6 8.3 4.4 1.8 1.4 0.7 1.8 0 2.5 0.3 2.8 0.9 2.2 2.1 1 2.2-0.6 3.9-2.9 2.2-1 2.1-0.2 2 0.3 7.7 2.7 3.4 1.7 2.2 2.8 2.1 8.9 2.9-0.8 3.1-3.4 1.9-2.9 1.2 6 1 2.4 2.2 1 2.1-0.4 8.5-3.7 4.8-3 1.6-0.6z" id="URY11" name="Soriano" data-id="URY11" data-name="Soriano">
 </path>
 <path d="M972.6 596.7l-3.2-0.4-3.5 0.5-3.1 1.9-1.5 0.5-1.6 0.1-2.5-0.3-2.7-1.2-2.5-2.1-1.5-0.5-2.1-0.1-3.5 0.2-1.9-0.3-1.3-0.6-2.1-2.6-1.7-1.1-1-0.2-20.3 2.4-4.6-0.2-6.7-1.2-31.7 2.5-3.4-0.5-3-1.8-12-9.8-2-1.1-1.1-0.5-1.8 0.1-2.1 0.5-5.3 3.1-0.9 0.7-1.3 1.5-4.1 3.7-1.2 1.8-0.2 1.2 0.7 2.1 1.6 3 0.3 1.2-0.5 1.2-1.1 0.9-2.6 0.1-2.8-0.9-0.8-0.8-10.3-7-2.2-0.8-1.2-0.1-4.1 0.3-1.4 0-2.6-0.6-2.8-1.9-1.1-0.5-5.3-0.6-3.9-1.3-7.2-1-1.2-0.4-1.9-1.1-2.5-2.2-1.9 0.1-2.8 1.2-9.4 5.3-3.9 1.3-10.7 0.7-2.6-0.4-1.4 0.1-1.2 0.7-1.1 1.8-1.5 4-1 1-1.4 0.7-2.7 0.4-3.1-0.5-1.2 0-1 0.6-1 1.3-1.3 2.3-1.3 1.8-1.2 0.9-1.5 0.6-2.9 0.6-3.4-0.3-3.4-1.4-2.6-0.6-2.5-0.1-1.7 0.3-8.8 3.6-3 0.7-6.2-0.1-5.3 0.6-2.4 0.6-11.2 5.7-3.2 2.8-2.9 3.3-1.7 1.4-1 0.6-6.4 2.6-2.3 1.7-1.5 1.5-1.1 0.9-4.2 2.5-1 0.8-1.2 1.4-1.7 3-0.1 1.6 0.4 1.9 2.8 4.8 0.2 1.6 0 4.1-9.7-1.4-13.6 0.5-3-0.2-2-0.6-0.8-0.8-2.7-3.7-18-11.7-2.5-2.2-3.6-4.1-2-3.7-1-2.4-0.4-2.5 0-1.3 1.1-5.4 0.3-4.3-0.4-2.4-0.7-1.5-3.2-4.8-0.9-1.9-0.3-1.7 0.8-2.1 1.8-1.3 2.5-0.5 1.1-0.4 0.6-0.9 0.4-1.2-0.3-2.6-4.8-11.5-0.4-1.3 0.1-2.7 0.6-2.5 2.6-7 2.7-11.9 0.2-2.8-0.1-2.7-0.9-4.9-3.8-7.3 16.8-7.9 6.5-0.4 12.4 4.9 6.4 1.4 6.7-1 5.8-2.7 5-3.9 4-4.5 3.9-6.6 2.9-3 6.7-2 1.6-2 1.3-2.5 1.7-2.3 2-1.4 3.9-1.9 1.9-1.3 3.1-4.1 4-9.2 2.7-4.5 0.7-2.5-0.7-2.5-1.3-2.5-0.6-2.4 0.2-2.1 0.8-2.3 1.6-3.3 4.3-4.9 1.5-3 0.6-5.2 2.1-2.3 4.7 1.6 7.6 4.5 2.8-0.3 4.1-1.1 4-1.1 3.9-0.5 4.4-1.4 2.7-3.3 0.7-4-1.9-3.6 1.9-2.7 4.8-3.7 1.2-2.9-0.7-3.7-2.4-0.9-3.1-0.5-3-2.5 6.4-9.3 2.4-6.5 2.6-4.8 4.6-11.3 0.9-4-0.9-5.4-3.3-9.8 0.2-5.4 1-2.1 1.7-2.5 1.8-2.1 1.4-0.9 0.6-0.9 2.6-5.3 1-1.3 0.6 1.7 5.2 5 6.2 4.5 5.7 5.4 5.8 6.8 13 12.1 10.5 7.4 9.4 8.7 4.4 3.2 2.1-0.2 1.8-2.4 3.5-3.2 3.5-1.3 3.8 0.4 3.6 1.6 3.2 2.4 1.1 1.5 1.7 3.3 1.7 1.6 1.9 0.7 6.2 0.6 3.3 1 2.7 1.3 5.4 3.7 2.3 2.4 0.8 2.3 0.5 2.3 1.1 2.4 1.9 2.3 2.5 2.1 5.2 3.4 11.1 2.4 2.8 1.8 1.1 3.1 0.3 7.9 5.4 13 9.6 14.4 2.3 6.2 1.3 7.6 0.6 11.3 0.9 3.8 1.7 3 4.8 4.3 2 2.7 3.2 5.8 3.9 5.3 4.5 4.7 11.9 8.5 11.2 12.6 10.7 3.6 8.2 5 3.2 1 6.1 0.1 6.3 3.9 6.1 2.8 2.9 2.2 2.6 2.8-1.6 10.1-2.1 2.1-3.4 0.9-4.1 1.9-6.1 4.2-3.2 1.3-4.3 0.5-8.1-0.9-1.2 0.8 3.3 3.3 4.4 2.5z" id="URY12" name="Cerro Largo" data-id="URY12" data-name="Cerro Largo">
 </path>
 <path d="M590.5 532.8l3.8 7.3 0.9 4.9 0.1 2.7-0.2 2.8-2.7 11.9-2.6 7-0.6 2.5-0.1 2.7 0.4 1.3 4.8 11.5 0.3 2.6-0.4 1.2-0.6 0.9-1.1 0.4-2.5 0.5-1.8 1.3-0.8 2.1 0.3 1.7 0.9 1.9 3.2 4.8 0.7 1.5 0.4 2.4-0.3 4.3-1.1 5.4 0 1.3 0.4 2.5 1 2.4 2 3.7 3.6 4.1 2.5 2.2 18 11.7 2.7 3.7 0.8 0.8 2 0.6 3 0.2 13.6-0.5 9.7 1.4-1.8 3.5-1.9 2.4-1.7 1.5-10.6 6.9-1.6 2-1.5 4.8-9.7 5.3-3.2 2.2-10.4 10-2.6 1.8-2 1-2.6-0.4-3.1-1.7-1.3-0.4-1.7-0.1-4.2 2-4.3 2.9-10.3 5.3-1.6 1.7-3.7 4.9-36.2 20.5-4.3 1.8-1.4 0-7-1.2-1.7-0.1-2.4 0.3-1.3 0.6-0.9 0.9-1.9 2.3-1.8 1.6-5 3.3-11.6 5.3-6.4 2-1.4 0.2-2.7-0.1-2.5-0.7-3.1-1.8-1.2-0.3-2.8-0.1-9.9 1.9-6.4 0.6-1.8 0.7-1 0.9-0.4 1.2-0.5 2.6-0.6 1.4-1.1 1.3-3.9 2.9-1.9 1.7-1.4 0.6-1.4 0.1-9.2-2.8-5.3-0.6-10.7 0.8-1.4-0.2-2.3-1-0.8-0.7-1.2-1.9-1.4-4.6-1-2-1.7-1.5-1.2-0.3-1.5 0-8.8 1-2.7-0.5-2.2-1-2.9-1.9-2.5-2.4-1.1-0.7-1.9-0.4-1 0.5-0.6 1.1 0 2.8 0.7 5.3 0.1 5.7-0.5 1.6-1 1.5-2.5 2-1.8 0.8-1.5 0.4-15-0.4-3.6-4.2-1.2-2.7-0.2-1.3-0.3-5.5-0.9-3.3-1.6-2.9-2.1-2.6-11.7-13-3.7-6.9-0.7-0.9-2-1.2-10.5-4.2-6.3-1.5-7.4-0.4-1.7-0.5-1.7-0.9-2.3-2.2-1.1-1.5-0.5-1.5-0.6-3.9-0.7-2.3-1.1-1.9-1.4-1.7-0.9-0.7-2.2-1-10.9-2.5-6.3-0.8-10.2 1.4-2.1-0.5-7.7-4.4-9-8.9 0.1-1.4-1.1-6.7 0.5-2.7-4.2-1.7-1.8 0.9-1.9-0.2-1.4-1.3 0.1-2.5 1-1 3.3-0.5 1.4-0.9 2.5-2.6 3.2-2.8 3.4-2.1 3.3-0.9 3.5 0.7 7.7 3.3 3.7 0.8 4.3 0 2.4-0.5 0-1.6-2.7-3.4-0.4-2.2 3.2-0.8 4.2-0.2 2.7-0.6-0.2-1-0.8-1.8 0.1-1.9 2.2-1.6 1.9 0.1 1.6 1.1 1.3 1.3 1.1 0.6 3.1 2.8 1.8 0.6 0.8-2.6-0.9-4.2-0.1-2.3 1-2 3.3-0.9 3.5 0.6 2.5-0.8-0.1-5.1 2.1-4.9 1.6-1.8 2.6-2.4 3.3-1.5 5.6-0.2 3.8-1.7 2.1-2.8 3.5-1.1 3.6 1.1 5.6 3.4 3.5-0.9 3.6-2.7 3.2-1.5 4.5-0.8 3.8-0.1 3.3 0.1 4.8-0.7 4.8 0.4 4 2.3 4 4.2 4.2 0.4 2-4.1 1.3-2.2 5.2-4.2 6.2 0.5 6.3 1.4 7.3 0.3 6.1-0.3 1.2-6.7 3.3-5.8 3.5-4.8 2.5-4.6 8.3-1.3 7.9-2.9 6.7-0.4 6.6-1.3 5.2-6 5.3-5.3 2.7-4.2 3.2-3.7 4.5-2.5 4.1-0.2 4.6 5.3 5.2 1.7 4-2.8 3.1-3 0.9-3.7 1-2.7 1.8-2.1-0.1-3.1-1.5-4.1 0.4-2.7 2.2-1.2 3.7 0.3 4 3.6 3.2 2.2 3.4-0.3 3.1-1.5 2.5-6.5 2.4-3.2 3-0.3 4.1 1.8 4.3 1.1 4.9 0.5 4.2-0.4 4-1.2 2.5-3 0.8-3.8 1-3.3 0.4-3.1 1.7-2.3 3-1.6 3.3 1 1.7 1.5 0.3 3.6 0.3 1.2 0.8 1.2 1.4 1.3 1.2 0.2 1.1-0.2 1.3 0.3 6.7 3.8 1.6 1.8 1.5 0.4 5.9-1.1z" id="URY13" name="Durazno" data-id="URY13" data-name="Durazno">
 </path>
 <path d="M753.7 347.2l-1 1.3-2.6 5.3-0.6 0.9-1.4 0.9-1.8 2.1-1.7 2.5-1 2.1-0.2 5.4 3.3 9.8 0.9 5.4-0.9 4-4.6 11.3-2.6 4.8-2.4 6.5-6.4 9.3 3 2.5 3.1 0.5 2.4 0.9 0.7 3.7-1.2 2.9-4.8 3.7-1.9 2.7 1.9 3.6-0.7 4-2.7 3.3-4.4 1.4-3.9 0.5-4 1.1-2.8-3.1-1.3-2.1-2.3-5.2-2.4-3.7-7-6.9-3.1-4.5-7.9-9-3.3-5.9-2.8-3.2-5.2-4.2-0.7-0.8-3.8-5.3-1.5-1.5-4.3-2.2-8.2-3.1-2.3-0.5-14.6-1.3-3.8-1.3-7.2-3.3-3-0.6-5.8-0.2-7.9 0.9-11.7-1-18.5-4.6-5.4-0.6-2.8 0.1-4.7 1.2-16.6 1.2-5.3-0.7-5.2-1.2-2.6 0.2-3.1 1.3-2.6 0.3-1.3-0.2-1.5-0.8-1.4-1.3-2.1-3.1-1.7-3.2-0.8-2.2-0.1-1.3 0.4-4-0.6-2.2-1.6-2.9-0.3-2.6 0.2-2.9 0.6-2.6 1.6-4.8 0.2-2.6-1-3.4-1.7-7.2-0.8-2.2-1.1-1.9-2.9-2.2-3.7-1.6-6.2-2-2.7-1.7-6.4-5.9-1.3-1.9-1.1-2.3-2.9-8.6-0.1-1.3 0.3-4.2-0.2-2.7-1.1-3.4-1.9-4-1.8-2.1-3.2-2.4-13.7-5.8-9-5.2-15.5-12.3-1-0.6-2.8-0.7-3.6 0-1.3 0.3-3.2 1.2-2.4 2.3-4.5 7-1.7-2.3-2.9-3.2-0.7-1.2-0.4-1.3 0.2-2.6 0.8-1.6 1.4-1.7 2.6-1.9 2.6-1.2 13.1-3.8 2.4-1.5 2-1.9 2.3-4.6 1.3-3.2 5.1-17.4 4.6-0.7 12.5 0.8 5.9-1.2 4.5 0 1.9-0.5 1.5-1.2 1.5-2.5 1.2-1.4 10.3-6.9 2.7-2.7 1.6-3.4 2-7.6 2.4-2.9 3.7-0.4 4.6 0.9 4.2 0.4 2.5-2.3 0.3-4.2-0.6-9.1 0.9-3.9 3-3 4-0.9 4 1.1 5.3 6.2 6.9 4 3 2.5 4.2 5.2 8.8 8 14.1 15.8 2.8 4.2 1 3.7 0.6 7.9 1.4 3.8 2.1 2 6.3 4.2 2.1 3.4 2.6 9.2 1.6 4 3 3.5 3.2 2 7.4 2.9 3.6 2.2 8.9 8.2 3.8 2.4 2.9 0.6 2.4-1.4 2.5-3.5 3.6-7.2 2.4-0.8 3.4 4.2 3.1 5.3 4.9 6.5 5.4 5.5 7.7 3.6 2.4 2.5 2.2 2.9 2.4 2.5 2.5 1.7 5.8 2.3 31.3 4.5 6.6 0 2.8 0.9 2.5 2.5 3.4 7 2.1 3 10 8.1 2.8 2.9 2.2 4.1 0.8 3.9 0.3 9.1 2 4.9z" id="URY14" name="Rivera" data-id="URY14" data-name="Rivera">
 </path>
 <path d="M718.2 449.6l-4.1 1.1-2.8 0.3-7.6-4.5-4.7-1.6-2.1 2.3-0.6 5.2-1.5 3-4.3 4.9-1.6 3.3-0.8 2.3-0.2 2.1 0.6 2.4 1.3 2.5 0.7 2.5-0.7 2.5-2.7 4.5-4 9.2-3.1 4.1-1.9 1.3-3.9 1.9-2 1.4-1.7 2.3-1.3 2.5-1.6 2-6.7 2-2.9 3-3.9 6.6-4 4.5-5 3.9-5.8 2.7-6.7 1-6.4-1.4-12.4-4.9-6.5 0.4-16.8 7.9-5.9 1.1-1.5-0.4-1.6-1.8-6.7-3.8-1.3-0.3-1.1 0.2-1.2-0.2-1.4-1.3-0.8-1.2-0.3-1.2-0.3-3.6-1.7-1.5-3.3-1-3 1.6-1.7 2.3-0.4 3.1-1 3.3-0.8 3.8-2.5 3-4 1.2-4.2 0.4-4.9-0.5-4.3-1.1-4.1-1.8-3 0.3-2.4 3.2-2.5 6.5-3.1 1.5-3.4 0.3-3.2-2.2-4-3.6-3.7-0.3-2.2 1.2-0.4 2.7 1.5 4.1 0.1 3.1-1.8 2.1-1 2.7-0.9 3.7-3.1 3-4 2.8-5.2-1.7-4.6-5.3-4.1 0.2-4.5 2.5-3.2 3.7-2.7 4.2-5.3 5.3-5.2 6-6.6 1.3-6.7 0.4-7.9 2.9-8.3 1.3-2.5 4.6-3.5 4.8-3.3 5.8-1.2 6.7-6.1 0.3-7.3-0.3-6.3-1.4-6.2-0.5-5.2 4.2-1.3 2.2-2 4.1-4.2-0.4-4-4.2-4-2.3-4.8-0.4-4.8 0.7-3.3-0.1-3.8 0.1-4.5 0.8-3.2 1.5-3.6 2.7-3.5 0.9-5.6-3.4 1.6-6.7 3.3-6.7 1.9-7.6-0.5-4.4 0-2.8 0.7-4.2 1.9-3.4 3.8-4.5 6.8-28.4 0.8-10.2 10.1-30.6 3.2-4.9 5.6-5.1 7.1-5.2 6.3-6 5.7-6.7 1.4-4 5.5-24.8 0.9-2.7 2.2-3.9 0.9-2.3 1.3-4.7 0.9-11-0.1-9.5 0.5-2.3 0.6-1.6 1.8-1.2 2-0.8 2.5-0.5 0.6-0.7 0.5-1.1 0.1-1.6-0.4-1.4-0.7-1.3-4.5-5.7-1-3.1-0.2-5.3 0.3-4.8-0.1-1.5-0.8-2.2-0.9-1.9-6.2-7.5 0.3-6.2-0.3-3-0.7-2.3-0.5-2.5-0.5-9.4-0.4-2.5-0.8-2.2-1.1-2-1.3-1.7-0.8-2 0.5-2.3 5.6-15.6 0.9-1.5 6.2-6 0.8-1.3 3.2-6.8 1-1.4 1.4-0.9 3.5-1.2 1-0.5 2.4-2.3 1.9-2.6 2.3-2.4 0.9-0.6 0.7-1.6 0.5-2.1 1.5-8.5 1.7-3.8 1.1-4.1 4.5-7 2.4-2.3 3.2-1.2 1.3-0.3 3.6 0 2.8 0.7 1 0.6 15.5 12.3 9 5.2 13.7 5.8 3.2 2.4 1.8 2.1 1.9 4 1.1 3.4 0.2 2.7-0.3 4.2 0.1 1.3 2.9 8.6 1.1 2.3 1.3 1.9 6.4 5.9 2.7 1.7 6.2 2 3.7 1.6 2.9 2.2 1.1 1.9 0.8 2.2 1.7 7.2 1 3.4-0.2 2.6-1.6 4.8-0.6 2.6-0.2 2.9 0.3 2.6 1.6 2.9 0.6 2.2-0.4 4 0.1 1.3 0.8 2.2 1.7 3.2 2.1 3.1 1.4 1.3 1.5 0.8 1.3 0.2 2.6-0.3 3.1-1.3 2.6-0.2 5.2 1.2 5.3 0.7 16.6-1.2 4.7-1.2 2.8-0.1 5.4 0.6 18.5 4.6 11.7 1 7.9-0.9 5.8 0.2 3 0.6 7.2 3.3 3.8 1.3 14.6 1.3 2.3 0.5 8.2 3.1 4.3 2.2 1.5 1.5 3.8 5.3 0.7 0.8 5.2 4.2 2.8 3.2 3.3 5.9 7.9 9 3.1 4.5 7 6.9 2.4 3.7 2.3 5.2 1.3 2.1 2.8 3.1z" id="URY15" name="Tacuarembó" data-id="URY15" data-name="Tacuarembó">
 </path>
 <path d="M972.6 596.7l2.3 1.3 0.5 0.7 0.2 1.3 1.8 7.3-0.2 5.3-0.9 2.9-2.3 1.8-4.4 1.7 0 1.3 3.9 1.8 0 1.4-5.2 2.6-2.8 1.8-1.2 1.9 0.4 2 0.8 0.6 1.4 0.4 0.7-0.4 1.6 1.2 0.9 1.6-1.2 0.8-22-1.6-5.7 1.7-3.8 4.3-15.3 23.6-3.3 2.8 0.4-7.5-0.4-1.8-1.7-1.4-1.6 0.1-1.3 1.3-0.5 2.4 0.8 4.1 1.3 3.2-0.5 2.3-4.2 1.9 3.5 6.5 0.3 1.4-13.8 6-15.1 4.4-1 0.9-2 2.5-0.9 2.6-0.6 2.6-1 2.4-2 2.1-4.5 2-2.6 1.5-3.4 3.7-6 8.4-4.4 3-6.5 1.8-2 2-4.8 10.1-3.8 4.5-4.5 3.7-4.6 2.8-10 2.5-2.2 2.1-0.8 1.4-4.7-2.3-5-3.3-6.9-2.7-4-2.3-1.7-1.5-2.9-3.2-2.8-4.8-1.9-4.3-0.6-0.9-2-1.2-1.7-0.2-2.2 0.1-5.5 1.4-1.5 0.6-6.1 4.9-4.2 2-1.5 1.7-1 3.8-1 2.2-1.3 1.8-1.8 1.3-7.5 3.1-1.7 0.1-2.3-0.2-12.9-4.1-1-0.6-2.5-2.2-2.3-0.9-15.4-2.4-5.7-1.6-6.5-4.5-5.3-5.6-1-0.8-1.5-0.6-2.5-0.6-2.8-1.1-1.5-0.3-1.9 0.2-4.8 1.9-8.5 4.3-1.5 0.4-1.9 0.1-3.3-0.5-1.6-0.7-2.1-1.6-1.1-0.5-3.7-1.1-2.4-1.2-1 0-9.9 1.8-3.6 1.6-9.3 5.5-3.8-4.8-0.4-1.5-0.3-2.3 0.9-2.7 1.4-1.7 2.8-1.9 1.2-1.6 1.4-2.3 2.2-5.4 0.7-2.9 0.2-2.2-1.8-10.3-0.2-7.8-1.7-12.3 1.5-4.8 1.6-2 10.6-6.9 1.7-1.5 1.9-2.4 1.8-3.5 0-4.1-0.2-1.6-2.8-4.8-0.4-1.9 0.1-1.6 1.7-3 1.2-1.4 1-0.8 4.2-2.5 1.1-0.9 1.5-1.5 2.3-1.7 6.4-2.6 1-0.6 1.7-1.4 2.9-3.3 3.2-2.8 11.2-5.7 2.4-0.6 5.3-0.6 6.2 0.1 3-0.7 8.8-3.6 1.7-0.3 2.5 0.1 2.6 0.6 3.4 1.4 3.4 0.3 2.9-0.6 1.5-0.6 1.2-0.9 1.3-1.8 1.3-2.3 1-1.3 1-0.6 1.2 0 3.1 0.5 2.7-0.4 1.4-0.7 1-1 1.5-4 1.1-1.8 1.2-0.7 1.4-0.1 2.6 0.4 10.7-0.7 3.9-1.3 9.4-5.3 2.8-1.2 1.9-0.1 2.5 2.2 1.9 1.1 1.2 0.4 7.2 1 3.9 1.3 5.3 0.6 1.1 0.5 2.8 1.9 2.6 0.6 1.4 0 4.1-0.3 1.2 0.1 2.2 0.8 10.3 7 0.8 0.8 2.8 0.9 2.6-0.1 1.1-0.9 0.5-1.2-0.3-1.2-1.6-3-0.7-2.1 0.2-1.2 1.2-1.8 4.1-3.7 1.3-1.5 0.9-0.7 5.3-3.1 2.1-0.5 1.8-0.1 1.1 0.5 2 1.1 12 9.8 3 1.8 3.4 0.5 31.7-2.5 6.7 1.2 4.6 0.2 20.3-2.4 1 0.2 1.7 1.1 2.1 2.6 1.3 0.6 1.9 0.3 3.5-0.2 2.1 0.1 1.5 0.5 2.5 2.1 2.7 1.2 2.5 0.3 1.6-0.1 1.5-0.5 3.1-1.9 3.5-0.5 3.2 0.4z" id="URY16" name="Treinta y Tres" data-id="URY16" data-name="Treinta y Tres">
 </path>
 <path d="M563 1016.9l2.9 6.5 2 2.5 2.8 2.1 2.3 2.3 1 1.6 0.4 1.6-1 5.7-0.1 1.6 0.1 1.9 1.3 2.2 1.4 1.5 3.7 5.5 1.6 3.2 0.5 3.5-0.6-0.3-4.8-0.4-12.5-1-7.9 0.8-9.7-2.6-7.7-3.5-8.5 2-8.9-3.8-11.9 4.1-6.8-1.9-12.6 4.3-5.8 2.4-12.3 8.3-9.4 6.9-6.6 3.8-1.3-2.1-0.7-2.3-0.7-4.3 0-4.4 0.4-2.7 2-4.8 0.7-2.5 0.1-1.4-0.5-1.1-1.2-0.7-2.5 0.1-3.2 0.6-1.4-0.3-1.6-1.3-1.7-2.5-1.9-1-1.9-1.4-2.4-4.7-1-0.3-1.8 0-3.7 1.2-1.8 1-1.3 1.2-2 2.9-1.7 1.5-3 1.3-2.6-0.6-2.7-1.5-2.1-1.7-2.2-3.8-2.1-2.6-2.5-1.2-2-0.3-1.7 0-3.4 1-6.3 3.7-1.4-2.3-2.8-3.4-6.8-6-6.2-3.6-0.8-0.7-0.7-1.2-0.4-1.7-0.3-6.3-1-6.4 0.2-1.6 0.6-1.6 1.4-1.7 1.2-0.9 2.3-1.1 1.7-1.4 2-2.9 1.4-1.8 3.2-3.1 0.4-1.4 0-1.8-0.9-3.2-1.3-2.7-0.1-2.7 1.2-5.5 0.1-4.3 3.3-11.7 1.9-3.5 1.9-1.2 2.5-1 3.2-0.8 5.6-0.4 2.8 0.1 1.9 0.3 2.1 0.8 8.4 4.6 2.2 0.3 3.2-0.2 9.4-2.1 1.9-0.9 1.5-1.8 1.6-3.2 2.5-7.4 0.5-1.2 1.1-1.3 1.9-1.5 16.9-11.2 1.8-0.2 2.5 0.2 4 1.2 10 4.9 1.5 0.3 2.2 0 4.3-0.5 3.8-1.2 12.9-8 5.2-1.7 23.7-3.4 5.1 20.8 2.6 7.5 7.9 14.8 0.7 2.1 0.3 1.9-0.2 1.5-2.3 11.4-0.1 2.1 0.2 5 1.4 2.7 7.9 9.6 3.1 6 1 3.4 0 6.4z" id="URY17" name="Canelones" data-id="URY17" data-name="Canelones">
 </path>
 <path d="M629.1 733.3l1.2 1.8 1 1.9 0.6 2.4 0.2 4.2-0.2 2.9-0.6 1.8-0.9 2-2.3 2.8-2.2 2-6.5 2.3-2 1.1-1.6 1.1-1.1 1.3-1 1.6-1.2 2.7-3.4 9.5-0.9 1.4-1.9 2-2.5 1.9-2.1 0.9-6 1.5-2.1 0.9-1 0.6-0.8 1.3-0.8 1.8-0.6 3.5-0.1 2.1 0.2 1.6 0.9 2.1 4.8 7.6 0.9 2.2 0.3 1.3 0 2.7-0.5 6-0.7 2.8-6.4 14.8-0.7 2.3-0.6 7.5-0.6 1.6-1 1.7-2.4 2.2-3.7 2.5-2.5 2.3-1.6 2.8-2.3 6.1-2 2.9-2.2 2.4-1.3 1.7-1 1.6-0.7 2.9 0.1 1.7-0.3 2.6-0.4 1.3-0.8 1.4-1.2 1.4-9.2 8-2.2 2.5-2 3.4-1.6 3.9-1.2 4.2-0.9 1.7-1.3 1.8-5.3 5.6-5.5 8-23.7 3.4-5.2 1.7-12.9 8-3.8 1.2-4.3 0.5-2.2 0-1.5-0.3-10-4.9-4-1.2-2.5-0.2-1.8 0.2-16.9 11.2-1.9 1.5-1.1 1.3-0.5 1.2-2.5 7.4-1.6 3.2-1.5 1.8-1.9 0.9-9.4 2.1-3.2 0.2-2.2-0.3-8.4-4.6-2.1-0.8-1.9-0.3-2.8-0.1-5.6 0.4-3.2 0.8-2.5 1-1.9 1.2-1.9 3.5-3.3 11.7-1.4-2.9-1-1.4-10.4-11.4-0.5-1.1 0.1-1.4 0.7-2 0.9-1.2 1.1-0.7 3.6-2 0.8-0.7 1.3-1.9 0.4-2.2 0.8-15.2-0.2-2.2-0.9-3.4-3.5-8.9-0.3-2.5 1-3.1 4.1-7.3 0.5-1.2 0.3-1.9 0.1-2.5-0.8-9.5-5.8-27.5-2.6-7.4 2.4-2 2.2-2.5 1.1-2.1 0.8-2.5 0.2-1.5 1.1-21.3-0.4-2-0.8-2.4-3.3-6.5-2.8-4.3-10.8-39.7-3-6 15 0.4 1.5-0.4 1.8-0.8 2.5-2 1-1.5 0.5-1.6-0.1-5.7-0.7-5.3 0-2.8 0.6-1.1 1-0.5 1.9 0.4 1.1 0.7 2.5 2.4 2.9 1.9 2.2 1 2.7 0.5 8.8-1 1.5 0 1.2 0.3 1.7 1.5 1 2 1.4 4.6 1.2 1.9 0.8 0.7 2.3 1 1.4 0.2 10.7-0.8 5.3 0.6 9.2 2.8 1.4-0.1 1.4-0.6 1.9-1.7 3.9-2.9 1.1-1.3 0.6-1.4 0.5-2.6 0.4-1.2 1-0.9 1.8-0.7 6.4-0.6 9.9-1.9 2.8 0.1 1.2 0.3 3.1 1.8 2.5 0.7 2.7 0.1 1.4-0.2 6.4-2 11.6-5.3 5-3.3 1.8-1.6 1.9-2.3 0.9-0.9 1.3-0.6 2.4-0.3 1.7 0.1 7 1.2 1.4 0 4.3-1.8 36.2-20.5 3.7-4.9 1.6-1.7 10.3-5.3 4.3-2.9 4.2-2 1.7 0.1 1.3 0.4 3.1 1.7 2.6 0.4 2-1 2.6-1.8 10.4-10 3.2-2.2 9.7-5.3 1.7 12.3 0.2 7.8 1.8 10.3-0.2 2.2-0.7 2.9-2.2 5.4-1.4 2.3-1.2 1.6-2.8 1.9-1.4 1.7-0.9 2.7 0.3 2.3 0.4 1.5 3.8 4.8z" id="URY18" name="Florida" data-id="URY18" data-name="Florida">
 </path>
 <path d="M818.4 752.3l-0.9 1.1-2.4 1.5-4.6 0.7-4.5 0.1-3.3 1.5-4.1 14.1-7.1 6.5-15.2 8.9-4.1 4.5-1.7 3.5-0.9 4.7 1.8 13-0.3 2-0.8 2.4-4.2 7-1.2 1.5-0.8 1.4-0.6 1.9-0.7 3.7-0.3 6.8-0.5 2.7-0.8 1.4-5.8 6.7-4.6 7.3-7.9 6-2.1 3.2-0.5 2.8-1.6 5.1-2.4 5.3-1.6 2.2-1.3 1.5-4.4 1.7-9.3 1.2-1.9 0.7-2.3 1.1-4 2.6-1.8 1.7-1.1 1.4-1.3 3.1-5.5 8.4-2.8 6.3-4 7-0.6 1.8 0.9 4.2-0.2 2.5-0.4 1.2-0.6 4.7-0.7 2.3-0.9 1.4-1.2 1.1-1.8 1.3-1 1.2-0.6 1.4-3.3 11.4-0.5 2.8-0.4 4.9-0.7 2.3-0.8 1.2-1.1 0.7-3.4 1.8-2.8 2.4-1.8 1.1-1.6 0.6-3.5 0.6-5.9 3.1-2.3 0.8-4 0.4-2.6 1.5-3.5 2.6-10.4 9.9-2.3 1.8-1.2 0.4-2.6 0.4-5.9-0.5-2.8 0.1-1.3 0.2-2.3 0.8-21.5 18.2-1.4 0.9-4.4 2.2-5 1.2-25.6 1.5 0-6.4-1-3.4-3.1-6-7.9-9.6-1.4-2.7-0.2-5 0.1-2.1 2.3-11.4 0.2-1.5-0.3-1.9-0.7-2.1-7.9-14.8-2.6-7.5-5.1-20.8 5.5-8 5.3-5.6 1.3-1.8 0.9-1.7 1.2-4.2 1.6-3.9 2-3.4 2.2-2.5 9.2-8 1.2-1.4 0.8-1.4 0.4-1.3 0.3-2.6-0.1-1.7 0.7-2.9 1-1.6 1.3-1.7 2.2-2.4 2-2.9 2.3-6.1 1.6-2.8 2.5-2.3 3.7-2.5 2.4-2.2 1-1.7 0.6-1.6 0.6-7.5 0.7-2.3 6.4-14.8 0.7-2.8 0.5-6 0-2.7-0.3-1.3-0.9-2.2-4.8-7.6-0.9-2.1-0.2-1.6 0.1-2.1 0.6-3.5 0.8-1.8 0.8-1.3 1-0.6 2.1-0.9 6-1.5 2.1-0.9 2.5-1.9 1.9-2 0.9-1.4 3.4-9.5 1.2-2.7 1-1.6 1.1-1.3 1.6-1.1 2-1.1 6.5-2.3 2.2-2 2.3-2.8 0.9-2 0.6-1.8 0.2-2.9-0.2-4.2-0.6-2.4-1-1.9-1.2-1.8 9.3-5.5 3.6-1.6 9.9-1.8 1 0 2.4 1.2 3.7 1.1 1.1 0.5 2.1 1.6 1.6 0.7 3.3 0.5 1.9-0.1 1.5-0.4 8.5-4.3 4.8-1.9 1.9-0.2 1.5 0.3 2.8 1.1 2.5 0.6 1.5 0.6 1 0.8 5.3 5.6 6.5 4.5 5.7 1.6 15.4 2.4 2.3 0.9 2.5 2.2 1 0.6 12.9 4.1 2.3 0.2 1.7-0.1 7.5-3.1 1.8-1.3 1.3-1.8 1-2.2 1-3.8 1.5-1.7 4.2-2 6.1-4.9 1.5-0.6 5.5-1.4 2.2-0.1 1.7 0.2 2 1.2 0.6 0.9 1.9 4.3 2.8 4.8 2.9 3.2 1.7 1.5 4 2.3 6.9 2.7 5 3.3 4.7 2.3z" id="URY19" name="Lavalleja" data-id="URY19" data-name="Lavalleja">
 </path>
 <path d="M741.6 1059.5l-2.1 1.2-11.8 3.3-6.1 5.2-3.9 1.8-8 2.5-32.9 15.9-4 0.7-3.7 1.4-4.9 5.7-3.6 0.8 1.2-3.8 0-0.9-1.9-3.1-2.6-2.6-3.4-1.7-7.5-1-0.4-0.9 0.2-1.5-1.3-2-1.9-1.5-1.7-0.8-4.2-0.9-9 0.5-17.4 4.1-7.3-1.4-5-5-9.8-13.2-6.7-3.7-0.5-3.5-1.6-3.2-3.7-5.5-1.4-1.5-1.3-2.2-0.1-1.9 0.1-1.6 1-5.7-0.4-1.6-1-1.6-2.3-2.3-2.8-2.1-2-2.5-2.9-6.5 25.6-1.5 5-1.2 4.4-2.2 1.4-0.9 21.5-18.2 2.3-0.8 1.3-0.2 2.8-0.1 5.9 0.5 2.6-0.4 1.2-0.4 2.3-1.8 10.4-9.9 3.5-2.6 2.6-1.5 4-0.4 2.3-0.8 5.9-3.1 3.5-0.6 1.6-0.6 1.8-1.1 2.8-2.4 3.4-1.8 1.1-0.7 0.8-1.2 0.7-2.3 0.4-4.9 0.5-2.8 3.3-11.4 0.6-1.4 1-1.2 1.8-1.3 1.2-1.1 0.9-1.4 0.7-2.3 0.6-4.7 0.4-1.2 0.2-2.5-0.9-4.2 0.6-1.8 4-7 2.8-6.3 5.5-8.4 1.3-3.1 1.1-1.4 1.8-1.7 4-2.6 2.3-1.1 1.9-0.7 9.3-1.2 4.4-1.7 1.3-1.5 1.6-2.2 2.4-5.3 1.6-5.1 0.5-2.8 2.1-3.2 7.9-6 4.1 38.7-0.7 3.6-0.4 1.2-2.1 4.4-0.8 2.5-2 12.6 0.5 14.1 0.7 3.9 0.4 5.3-0.7 13.8-0.9 6.4-1 1.2-0.8 0.2-2.1-0.7-1.3 0-1.3 0.7-1.4 2.9-0.5 2.7-0.3 4.5 0.2 2.3 0.4 1.6 1.3 1.9 0.6 1.4 0.4 2.1 0.5 6 0.3 1.8 2.2 2.9 0.8 1.5 0.8 2.8 0.1 1.9-0.5 2.9-0.9 2.4-2.9 5.1-0.7 1.6-1.6 6.1-0.5 5 0.5 9.3 0.4 2.6 2.5 8.5-0.1 2.4-0.4 0.9-1.5 2-0.8 1.3-0.7 2.3 0.1 3.1 0.9 2.6z" id="URY20" name="Maldonado" data-id="URY20" data-name="Maldonado">
 </path>
 <path d="M455.9 1077.7l-5.9 3.6-6.7-0.6-5.8 3.3-2.7 1.7-1.2 4.8-4-5.7-3.2-0.6-3.5-1.4 1.5-2.1 0.3-2.6-2.1-1.8-3.1-0.4-1.1 3.5-3.7 3.1-1.8 0-4.2-0.7-4.5 0.7-5.9-5.2-11.4-6.7-3-2.7-0.4-3.5 3.2-2.8 3.2-3.2 4.9-1.2-0.7-0.8 1.6-1.9 0.4-1.9 0-1.7-1.9-8.2 6.3-3.7 3.4-1 1.7 0 2 0.3 2.5 1.2 2.1 2.6 2.2 3.8 2.1 1.7 2.7 1.5 2.6 0.6 3-1.3 1.7-1.5 2-2.9 1.3-1.2 1.8-1 3.7-1.2 1.8 0 1 0.3 2.4 4.7 1.9 1.4 1.9 1 1.7 2.5 1.6 1.3 1.4 0.3 3.2-0.6 2.5-0.1 1.2 0.7 0.5 1.1-0.1 1.4-0.7 2.5-2 4.8-0.4 2.7 0 4.4 0.7 4.3 0.7 2.3 1.3 2.1z" id="URY21" name="Montevideo" data-id="URY21" data-name="Montevideo">
 </path>
 <path d="M741.6 1059.5l-0.9-2.6-0.1-3.1 0.7-2.3 0.8-1.3 1.5-2 0.4-0.9 0.1-2.4-2.5-8.5-0.4-2.6-0.5-9.3 0.5-5 1.6-6.1 0.7-1.6 2.9-5.1 0.9-2.4 0.5-2.9-0.1-1.9-0.8-2.8-0.8-1.5-2.2-2.9-0.3-1.8-0.5-6-0.4-2.1-0.6-1.4-1.3-1.9-0.4-1.6-0.2-2.3 0.3-4.5 0.5-2.7 1.4-2.9 1.3-0.7 1.3 0 2.1 0.7 0.8-0.2 1-1.2 0.9-6.4 0.7-13.8-0.4-5.3-0.7-3.9-0.5-14.1 2-12.6 0.8-2.5 2.1-4.4 0.4-1.2 0.7-3.6-4.1-38.7 4.6-7.3 5.8-6.7 0.8-1.4 0.5-2.7 0.3-6.8 0.7-3.7 0.6-1.9 0.8-1.4 1.2-1.5 4.2-7 0.8-2.4 0.3-2-1.8-13 0.9-4.7 1.7-3.5 4.1-4.5 15.2-8.9 7.1-6.5 4.1-14.1 3.3-1.5 4.5-0.1 4.6-0.7 2.4-1.5 0.9-1.1 0.8-1.4 2.2-2.1 10-2.5 4.6-2.8 4.5-3.7 3.8-4.5 4.8-10.1 2-2 6.5-1.8 4.4-3 6-8.4 3.4-3.7 2.6-1.5 4.5-2 2-2.1 1-2.4 0.6-2.6 0.9-2.6 2-2.5 1-0.9 15.1-4.4 13.8-6 0.2 0.7-0.3 3.6-0.8 0.5-1.3-0.1-1.6 1.5-1.4 2.5-0.3 1.3 0.4 4.7 0.6 2.1 2.6 3.4 0.7 2.3 2.5 3.3 5 1.5 3.3 2.2-2.4 5.4-2.6 4.5-0.1 3.9 2.1 3.5 4 3-3.1 5.5-1.9 7.1 0.2 7.2 2.8 5.8 4.1 6.5 1.8 6.4 0.6 6.2-0.6 20.3 5.3 9.4 3.9 0 3.4-0.7 3.1 0 3.1 2.2 1.8 3.7 1.4 4 2.3 2.6 6.1-0.4-3.2 2.3-3.5 3.2-6.9 8.4-4.2 7.6-2.3 7.9-3.8 19-3.6 11.4-1 10.5-1.8 3.2-6.7 4.7-3.1 2.9-9.3 11.9-10.1 7.8-3.3 4-6.8 13.4-1.8 2.3-0.4 2.5-4.1 13.2 3.1 8.4-0.3 4.1-7.7 2.4-17.5 9.9-14 10-28.9 28.3-2.3 3.1-0.8 4 0.1 3.5-1.1 2.6-17.2 3.9-4.3 0.3 0.8-1.9 1.1-1.5 3.3-3-1.4-1.2-1.2-1.4-0.9-1.7-0.4-2 0.3-2.9 1.9-5.6 0.5-0.9-2.8-2.8-5.1-2.3-5.4-1.3-3.8-0.1 2.2 1.6 7 3.1-1.5 2.9-3.1 3.2-3.5 2.5-2.9 1-1.2 1.6 0 3.1 1.4 2.4 3-0.5-0.2-1.8 2.8 0.6 3.5 3 1.7 5.1-1.5 2.9-3.5 2.9-42.5 22.9z" id="URY22" name="Rocha" data-id="URY22" data-name="Rocha">
 </path>
 <path d="M259 865.7l2.5 5.6 1.6 6.8 0.9 2 0.9 1.4 0.9 0.6 3.3 1.7 1.3 1 6.2 7.4 7 11.1 1 2.4 0.1 2.2-0.6 1.3-1.3 1.6-8.4 6.8-2.3 1.3-8.1 2.3-3 1.7-4.5 3.3-0.9 1.1-0.7 1.7-0.8 3.1-0.1 1.8 0.3 1.6 1 2 3.8 4.4 0.8 1.3-0.1 1.6-1.4 4.8-1 1.8-1.1 1.3-1.1 2.5-0.2 2.5 0.2 4.5-0.3 2.1-0.5 1.6-0.7 0.9-11.7 10.1-6.8-1.4-16.8-0.4-10.4 0.7-3.5-3-8.7 0.3-4.9 3-2.3-3-4.8-0.5-5.3 2.5-6.7 3-6-6.2-4.8-0.2-5.5 1.1-7.6 3.5-10.6 4.1-3.5-0.5-4.9 3-5.5-0.5-5.5 0.7-6.2-1 1.8-1.8-1.6-3.5-5.3-1.6-3.4-5.6 0.5-9.2-4.8-5.2-3.8-6.3-14.1-16.8-6.2-3-2.2-3.5-2.9-7.5-3.4-3.2-4.7-2-5-1-4.4-0.2-5.1-1.1-2.4-2.7-2.2-8.6-2.2-4.8-16-23.4-3.5-3-7.1-4.4-3.1-2.8-2.7-4.4-1.3-4.7-1.1-6.1 6.2-1.1 2.6-0.7 17.1-7.2 17.7-12.3 3-0.9 3.3 0.3 21.4 5.6 2.1 2.6 1.5 3.1 1.2 3.4 1.7 2.7 2.1 1.5 3.4 0.6 3.4-0.1 5.6-1.1 14.8 0.5 1.9 0.5 2.6 1.4 2.4 2 1.7 2.3 2.7 2.2 25.9 9 5.3 0.5 11.5-1.2 32.6-8.9 3.5 1 4.1 1.9 3.6 2.2 3.2 3 3.6 2.8 1 0.6 5.4 0.7 15.6 0 19.8 3.1z" id="URY4" name="Colonia" data-id="URY4" data-name="Colonia">
 </path>
 <path d="M375.5 851.9l2.6 7.4 5.8 27.5 0.8 9.5-0.1 2.5-0.3 1.9-0.5 1.2-4.1 7.3-1 3.1 0.3 2.5 3.5 8.9 0.9 3.4 0.2 2.2-0.8 15.2-0.4 2.2-1.3 1.9-0.8 0.7-3.6 2-1.1 0.7-0.9 1.2-0.7 2-0.1 1.4 0.5 1.1 10.4 11.4 1 1.4 1.4 2.9-0.1 4.3-1.2 5.5 0.1 2.7 1.3 2.7 0.9 3.2 0 1.8-0.4 1.4-3.2 3.1-1.4 1.8-2 2.9-1.7 1.4-2.3 1.1-1.2 0.9-1.4 1.7-0.6 1.6-0.2 1.6 1 6.4 0.3 6.3 0.4 1.7 0.7 1.2 0.8 0.7 6.2 3.6 6.8 6 2.8 3.4 1.4 2.3 1.9 8.2 0 1.7-0.4 1.9-1.6 1.9-2.1-2.5-3.8-1.5-9.9-4.1-7-1.1-6.7 0.3-4.1 2.8-3-0.4-3-1.4-7-4.5-3.4-1.6-3.4-2.3-12.7-3.6-15.5-2-14.9-6.5-3.2-2.3-2.5-5.7-3-2.8-6.2-4.6-4.5-5.1-4-4-3.5-2.7-5.1-3.2-2.7-2.6 0.2-3.1-1.2-1.6-2.8-1.9-1.1-1.1-3.6-4-3.4-3-6.1-2.8-2.9-0.6 11.7-10.1 0.7-0.9 0.5-1.6 0.3-2.1-0.2-4.5 0.2-2.5 1.1-2.5 1.1-1.3 1-1.8 1.4-4.8 0.1-1.6-0.8-1.3-3.8-4.4-1-2-0.3-1.6 0.1-1.8 0.8-3.1 0.7-1.7 0.9-1.1 4.5-3.3 3-1.7 8.1-2.3 2.3-1.3 8.4-6.8 1.3-1.6 0.6-1.3-0.1-2.2-1-2.4-7-11.1-6.2-7.4-1.3-1-3.3-1.7-0.9-0.6-0.9-1.4-0.9-2-1.6-6.8-2.5-5.6 8.1 0.5 27.4 5.3 2.2-0.2 2.6-0.7 4.6-1.8 2.3-1.1 1.5-1.1 7.9-9.6 3.1-2.7 1.4-0.8 13-3.3 4.3-1.7 3.9-2.3 7.7-6.4 5.8 1.4 20.7 10.7z" id="URY5" name="San José" data-id="URY5" data-name="San José">
 </path>
 <path d="M460 216.2l-7.2-5.6-1.5-1.6-2-2.6-1.4-1.6-4.8-4.2-2.2-2.6-2.8-4.6-1.4-1.7-3.9-3.4-3.1-1.9-1.2-0.4-30.1-6.7-10.5-3.8-3.4-0.7-3.4 0.4-1.9 0.4-1.4 0.7-1.4 1.7-1 2-1.4 3.3-1.8 2.9-2.5 1.9-4.3 1.7-2.7 1.9-2.7 3.4-1.7 1.2-2.3 0.7-6.3 0.9-2.2 0.7-1.7 1.1-11.1 9.4-1.8 0.9-2.1 0.8-2.3 0.6-9.1 0.9-4.5 1.2-2.7-0.1-21.5-3.9-4.5-0.3-12.5 1.6-3.1 1.5-5.1 3.9-2.1 0.8-1.3 0.2-1.9-0.2-11.4-3.4-4.6-2.4-3.6-2.6-8.7-8.7-2.9-2.5-1.5-0.8-9-3-25.1-13.4-6.2-4.4-1.2-1.2-3.1-2.4-1.5-0.6-2-0.6-3.9-0.5-6.7 0-1.7-0.3-1.8-0.6-2.2-1.5-2.2-2.1-3.2-4.3-1.4-1.7-3.2-2.9-12.2-9.2-2.6-1.6-2.1-0.6-5.2-0.6-1.9 0-2.3 1.8-4.5 6.8-0.5-4-3-13.5-1.6-4.9-4.2-9.2-2.8-4.3-4.3-8.5-0.8-8.6 2.4-7.9 5.2-6.5 37.4-34.4 4.1-7 1.3-8.5-2.6-9.5-0.9-4.8 1.6-2.1 4.2-0.1 4.7 4.6 3.7 11.5 6 3.9 4.7 0.5 8.3-1.5 4.6-0.1 2.5 1.4 2.8 4.4 3 0.8 1.9-1 4.3-3.9 2.4-1.1 3.7 0.2 2.4 1.5 2 1.9 2.8 1.1 1.4-0.6 2.4-2.8 1.1-0.6 1.5 0.8 2.4 2.6 0.9 0.6 6.2-1.3 5.4-4.4 3.8-6.2 1-6.9 1.5-5.6 4-7.1 5.2-6.3 4.7-3.3 1.9 0.2 3.5 1.7 2.1 0 3.7-2 1.3-0.5 7-1.3 3.8-0.1 9.1 2.6 7-1.3 7.2-0.2 6.9 4.8 3.5 5.9 1.8 2.3 11.8 8.1 5.9 2.9 3.2 2.2 2.8 2.7 1.8 3 0.6 4.5-0.6 2.3 0.2 1.4 3 1.9 1.9 0.5 1.9-0.1 1.8 0.3 2.1 1.3 1 1.2 1.7 2.8 7 8 2.3 1.9 3.2 3 10.1 6.4 3.2 3.3 4.5 7.8 2.8 3.7 2.5 2.2 8.7 4.9 11.1 9.4 6.3 3.2 3.8 3.6 5.9 7.2 1.1 2.4 0.5 2.4 0.9 2.1 2.1 1.8 3.6 2.4 1.7 1.6 1.2 1.8 6.3 12.3 2.9 3.6 12.4 10.1 3 6.1 1.2 6.6-0.9 6.6-3.3 6-0.8 4.8-0.2 14.4-1.1 10.2 0 4.7 1 1.6z" id="URY6" name="Artigas" data-id="URY6" data-name="Artigas">
 </path>
 <path d="M362.2 759.1l3 6 10.8 39.7 2.8 4.3 3.3 6.5 0.8 2.4 0.4 2-1.1 21.3-0.2 1.5-0.8 2.5-1.1 2.1-2.2 2.5-2.4 2-20.7-10.7-5.8-1.4-7.7 6.4-3.9 2.3-4.3 1.7-13 3.3-1.4 0.8-3.1 2.7-7.9 9.6-1.5 1.1-2.3 1.1-4.6 1.8-2.6 0.7-2.2 0.2-27.4-5.3-8.1-0.5-1.5-2.5-3.3-4.6-1-2.1-0.7-2.4-0.9-5.7-1.6-5.5-0.6-3.4-0.3-1.3-2.3-5.4-7.9-13.7-0.5-1.5 0.1-2.9 2.8-22.3 0.8-2.5 0.9-2.1 0.3-1.2 0-1.4-0.6-1.5-2-1.5-5.2-1.4-1.2-0.5-1.9-1.3-1.6-1.5-3.9-5.4-1.5-1.6-0.6-0.9-0.7-3.2-0.1-2.6-0.4-2.9-0.3-0.8-3.1-4-0.9-2.1-2.1-9.8-1-2-1.6-1.6-4.9-3.2-1.3-1.8-0.6-2.7 0.1-2 2-3.7 19.9-23.8 2.5-2.2 13.5-17.3 1.3-2.1 2.5-7.1 9 8.9 7.7 4.4 2.1 0.5 10.2-1.4 6.3 0.8 10.9 2.5 2.2 1 0.9 0.7 1.4 1.7 1.1 1.9 0.7 2.3 0.6 3.9 0.5 1.5 1.1 1.5 2.3 2.2 1.7 0.9 1.7 0.5 7.4 0.4 6.3 1.5 10.5 4.2 2 1.2 0.7 0.9 3.7 6.9 11.7 13 2.1 2.6 1.6 2.9 0.9 3.3 0.3 5.5 0.2 1.3 1.2 2.7 3.6 4.2z" id="URY7" name="Flores" data-id="URY7" data-name="Flores">
 </path>
 <path d="M402.3 366.6l6.2 7.5 0.9 1.9 0.8 2.2 0.1 1.5-0.3 4.8 0.2 5.3 1 3.1 4.5 5.7 0.7 1.3 0.4 1.4-0.1 1.6-0.5 1.1-0.6 0.7-2.5 0.5-2 0.8-1.8 1.2-0.6 1.6-0.5 2.3 0.1 9.5-0.9 11-1.3 4.7-0.9 2.3-2.2 3.9-0.9 2.7-5.5 24.8-1.4 4-5.7 6.7-6.3 6-7.1 5.2-5.6 5.1-3.2 4.9-10.1 30.6-6-3.3-2.6-1.7-10.4-8.8-2-1.2-10.4-3.2-3.3-0.5-1.3 0.1-2.4 0.6-1.8 0.1-2.5-0.2-7.3-1.4-2.1-0.1-4.7 1.1-4.1 0.2-4.2-0.2-4.6-1.1-6-3.7-10.4-4.8-2.8-0.7-2.1-0.2-2.9 1.4-3.5 2.7-3 1.5-2.5 0.5-12 0.1-1.7 0.4-2.1 1-12.4 9-3.2 1.2-3.4 0.6-1.9-0.2-1.8-0.6-4.1-1.8-1.6-0.2-1.4 0.2-2.9 1.7-3.2 1.2-4.9 0.8-1.8-0.1-6.8-1.1-2.6-0.2-1.9 0.2-1 0.5-1.7 1.4-2.1 2.4-1.7 1.7-0.9 0.5-4.5 1.4-1 0.4-1.6 1.6-0.9 1.8-1.5 3.8-0.5 1.1-2.2 2.6-1.8 1.3-33 5-0.8 0.7-1.1 2-0.3 1.4-0.7 4.5-0.9 1.2-1.3 1.3-2.9 1.3-1.7 0.2-1.4-0.3-1-0.6-16.6-1.8-2.3-0.5-1.9-1.3-3.9-1.1-4.5-0.5-2.3-0.5-1.5-0.7-0.8-1.2-1.2-3.8-1-2-1.4-1.6-4.1-2.3-1.8-1.4-5.8-6.9-2.1-1.5-2.1-0.9-1.6-0.3-9.7 0.6-5.5 1-1.2-4.9-0.5-5.1 0.1-0.6 1.9-2.4 4.7-10 12-17.5 1-6.8-2-6.5-13-17.5-2.1-4.7 1.1-4.6 4.2-6.9 2-8.6 0.5-10.1-0.7-9.6-1.8-6.9-6-6.9-2.3-4.5 1.2-4.6 5.2-5.9 3-2.2 4.2-1.9 8.9-1.8 4.6-1.8 2-3.2 11.4-34.4 1.7-9.8-1.3-9.9-5.1-6.4-4.8-3.7 3.7-2 2.8-0.8 3 0.4 3.3 0.9 2.1-0.1 1.2-0.4 0.4-3.3 1.5-1.4 7-1.8 1.5 0 2 0.3 5 1.9 12.5 7.1 1.7 1.5 1.2 1.8 2.4 7.8 0.9 2 0.7 0.8 1.9 1.3 1.3 0.5 27.9 6.1 13.6 7 6.3 4.6 2.1 1.1 4.5 1.8 4.6 0.7 5.3 0.1 3.5 0.9 2 0.8 0.9 0.9 4.1 6.4 1.4 1.7 2.6 2 4.3 2.1 15 4.4 2.1 1.1 7 5.4 2.2 0.6 16 1.9 2.4 0.8 1.7 0 1.8-0.3 2.7-1 1.4-0.8 2-1.5 1.2-0.4 1.4 0 8.3 3.2 3.9 0.9 2.2-0.1 16.4-3.5 2.3 0 3.2 0.4 1.8 0.6 1.3 0.6 3.8 2.6 2.4 0.6 7.9 0.1 2.1 0.3 1.6 0.5 9.6 6.1 2.4 0.8 1.3 0.2 9.8 0.3 13.4 4.1 3.3 0.1 3.1-0.6 2.5-0.8 2-1.8 1.3-3 0.5-2.5 1.2-1.6 5.8-6.2 1.6-2.3 1.1-1.9 0.3-1.2 2.9-2.2 10-2.6z" id="URY8" name="Paysandú" data-id="URY8" data-name="Paysandú">
 </path>
 <path d="M357.2 532.5l-0.8 10.2-6.8 28.4-3.8 4.5-1.9 3.4-0.7 4.2 0 2.8 0.5 4.4-1.9 7.6-3.3 6.7-1.6 6.7-3.6-1.1-3.5 1.1-2.1 2.8-3.8 1.7-5.6 0.2-3.3 1.5-2.6 2.4-1.6 1.8-2.1 4.9 0.1 5.1-2.5 0.8-3.5-0.6-3.3 0.9-1 2 0.1 2.3 0.9 4.2-0.8 2.6-1.8-0.6-3.1-2.8-1.1-0.6-1.3-1.3-1.6-1.1-1.9-0.1-2.2 1.6-0.1 1.9 0.8 1.8 0.2 1-2.7 0.6-4.2 0.2-3.2 0.8 0.4 2.2 2.7 3.4 0 1.6-2.4 0.5-4.3 0-3.7-0.8-7.7-3.3-3.5-0.7-3.3 0.9-3.4 2.1-3.2 2.8-2.5 2.6-1.4 0.9-3.3 0.5-1 1-0.1 2.5 1.4 1.3 1.9 0.2 1.8-0.9 4.2 1.7-0.5 2.7 1.1 6.7-0.1 1.4-1.6 0.6-4.8 3-8.5 3.7-2.1 0.4-2.2-1-1-2.4-1.2-6-1.9 2.9-3.1 3.4-2.9 0.8-2.1-8.9-2.2-2.8-3.4-1.7-7.7-2.7-2-0.3-2.1 0.2-2.2 1-3.9 2.9-2.2 0.6-2.1-1-0.9-2.2-0.3-2.8 0-2.5-0.7-1.8-1.8-1.4-8.3-4.4-4.2-0.6-4 0.9-3.7 2.6-1.4 0.6-6.4 1.8-1.3 1-1.8 4.9-1.5 1.8-3.6 0.8-7.3-3-5.6-1.4-2.8-2.1-2.1-0.5-2.3 0.3-3.9 1.2-2.3 0-3-1-5.3-3.2-3.3-0.5-3.4 1-2.3 2-1.9 2.5-2.7 2.5-2.8 1.2-5.7 1.4-1.9 1.9-0.6 3.4 0.4 2.8-0.8 1.9-4.3 1-3.2-0.4-2.7-1.1-2.8-0.6-3 0.8-2 1.7-0.1 1.6 2.1 4.5 0 5.3 1 1.2 3 2.7 0.2 3.8-0.8 3.7-1.5 2-1.9-1.7-1-0.2-3.3-3.1-2.2-1.4-6.4 3.5-2 2-0.6 2.3 0 8.5-0.9 3.9-2.2 1-5.4-0.9-9 0-3.5 2.2-10.2 13.4-18.1 10.8-4-3.4-1.2-4.4 1.2-4.2 2.9-3.6 6.8-6.8 2-4.5 0.3-5.2-3.2-19.7-0.2-9.6 3-7.2 7.8-3 17.6 1.1 8.1-0.7 6.9-3.4 7.2-6.7 3.1-4.1 1.3-3.8 0.3-5.3 0.9-4 2.8-8.5 1.4-9.1-1.7-6.8-3.8-5.4-8.2-8.7-1.9-3.7-1-4.1-0.4-4.8 0.4-10.1-0.3-5.1-1.5-4 1.4-1.7-1.6-5.7-2-15.8-2.3-3.2-1.5-3.5-2.7-12 5.5-1 9.7-0.6 1.6 0.3 2.1 0.9 2.1 1.5 5.8 6.9 1.8 1.4 4.1 2.3 1.4 1.6 1 2 1.2 3.8 0.8 1.2 1.5 0.7 2.3 0.5 4.5 0.5 3.9 1.1 1.9 1.3 2.3 0.5 16.6 1.8 1 0.6 1.4 0.3 1.7-0.2 2.9-1.3 1.3-1.3 0.9-1.2 0.7-4.5 0.3-1.4 1.1-2 0.8-0.7 33-5 1.8-1.3 2.2-2.6 0.5-1.1 1.5-3.8 0.9-1.8 1.6-1.6 1-0.4 4.5-1.4 0.9-0.5 1.7-1.7 2.1-2.4 1.7-1.4 1-0.5 1.9-0.2 2.6 0.2 6.8 1.1 1.8 0.1 4.9-0.8 3.2-1.2 2.9-1.7 1.4-0.2 1.6 0.2 4.1 1.8 1.8 0.6 1.9 0.2 3.4-0.6 3.2-1.2 12.4-9 2.1-1 1.7-0.4 12-0.1 2.5-0.5 3-1.5 3.5-2.7 2.9-1.4 2.1 0.2 2.8 0.7 10.4 4.8 6 3.7 4.6 1.1 4.2 0.2 4.1-0.2 4.7-1.1 2.1 0.1 7.3 1.4 2.5 0.2 1.8-0.1 2.4-0.6 1.3-0.1 3.3 0.5 10.4 3.2 2 1.2 10.4 8.8 2.6 1.7 6 3.3z" id="URY9" name="Río Negro" data-id="URY9" data-name="Río Negro">
 </path>
 <circle cx="580.1" cy="433.3" id="0">
 </circle>
 <circle cx="273.7" cy="654.4" id="1">
 </circle>
 <circle cx="299" cy="440.7" id="2">
 </circle>
</svg>