<?xml version="1.0"?>
<!--
************* Copyright (c) 2017 Pareto Softare, LLC DBA Simplemaps.com *******************		
************* Free for Commercial Use, full terms at  http://simplemaps.com/resources/svg-license ************
************* Attribution is appreciated! http://simplemaps.com ***************************
-->
<svg baseprofile="tiny" fill="#7c7c7c" height="2377" stroke="#ffffff" stroke-linecap="round" stroke-linejoin="round" stroke-width="2" version="1.2" viewbox="0 0 1000 2377" width="1000" xmlns="http://www.w3.org/2000/svg">
 <path d="M944.1 547.7l-35.4-14.2-43.9-7.8-34.3 5.9-38.1-27.4-14.7-12.8-21.5-18.6 3.8-48.9 11.4-29.4 21-41.2 38.1 7.9 7.7-39.2 3.8-56.8-5.7-90.2 9.5-54.8 24.8-4-1.9-39.2-28.6-11.7 0.1-61.9 58.3 9.5 20.9 8.1 11.6 20 18.2 43.7 28.7 133.1-1.4 183.1-32.4 146.8z" id="VCT5063" name="Charlotte" data-id="VCT5063" data-name="Charlotte">
 </path>
 <path d="M79.8 2368l-30.5 8-36.9-2.8-11.4-16 12.1-15.3 2.9-12.5-2.6-18.8 21.1-8.5 20.1 6.1 35 22.1 8 25.7-17.8 12z m105.9-175.9l26.1 19.1-11.9 20.2-16.7 11.6-9.5 16.3-11.9-28.7 11.9-18.7 2.6-12.6 9.4-7.2z m181.6-139.4l-29.7 1.6-26.2-10.2 7.1-9.1 33.1-7.3 15.4-19.6-5.4-26.5 1.4-29.1 26.3-17.7 20.1-1.9 9 11.1 5.7 27.3-15.5 20.8-17 17.1-8.3 26.1-16 17.4z m425.4-485.5l-9.4 1.5-2.7-36.9 25-45.5 23.9 5.1-25.1 59-11.7 16.8z m136.4-243.4l-23.6 8.4-12.1-51.4 17.4-10.6 0.1 18.3 11.8 13.1 6.4 22.2z m-249.3-164.8l-46.5 32.6 21.6 0-21.6 22.2-14.9-21.9-23.1-13.7-29.5-5.9-33.7 0.7 0-22.2 43.3 13.6 66-13.3 0.2-24-19.3-22-8.9-15.3 24.1-23.6 81-52.5 33.8-27.9 9.5 32.7 12.3 10.1-41.7 40.5-52.6 89.9z" id="VCT5064" name="Grenadines" data-id="VCT5064" data-name="Grenadines">
 </path>
 <path d="M777.7 491.4l-17.7 36.3-64.8 72.4-48.8 50.6-97.3-69.1 37.4-40.2 59.1-43.1 53.4-58.8 22.9-9.8 38.1-5.8-3.8 48.9 21.5 18.6z" id="VCT5065" name="Saint Andrew" data-id="VCT5065" data-name="Saint Andrew">
 </path>
 <path d="M840.2 3.4l-0.1 61.9 28.6 11.7 1.9 39.2-24.8 4-9.5 54.8 5.7 90.2-3.8 56.8-7.7 39.2-38.1-7.9-38.1-39.2-40.1 35.3-38.7 26.5-64.2-14.7-53.5-16.9 15.8-31.4-21.6-40.9 78.4-12.8 33.6-67.5 20-86.1 37.7-69.1 37.5-24.3 34.9-10.2 31.2-1 14.9 2.4z" id="VCT5066" name="Saint David" data-id="VCT5066" data-name="Saint David">
 </path>
 <path d="M944.1 547.7l-7.2 32.7-85.3 122-51.9 40.5-72.7-34.9-80.6-57.3 48.8-50.6 64.8-72.4 17.7-36.3 14.7 12.8 38.1 27.4 34.3-5.9 43.9 7.8 35.4 14.2z" id="VCT5067" name="Saint George" data-id="VCT5067" data-name="Saint George">
 </path>
 <path d="M792.4 353.3l-21 41.2-11.4 29.4-38.1 5.8-22.9 9.8-53.4 58.8-59.1 43.1-37.4 40.2-23.3-87.8 7.8-101.6 24.2-47.9 53.5 16.9 64.2 14.7 38.7-26.5 40.1-35.3 38.1 39.2z" id="VCT5068" name="Saint Patrick" data-id="VCT5068" data-name="Saint Patrick">
 </path>
 <circle cx="659.7" cy="1188.3" id="0">
 </circle>
 <circle cx="671" cy="647.5" id="1">
 </circle>
 <circle cx="999" cy="342.1" id="2">
 </circle>
</svg>