<?xml version="1.0"?>
<!--
************* Copyright (c) 2017 Pareto Softare, LLC DBA Simplemaps.com *******************		
************* Free for Commercial Use, full terms at  http://simplemaps.com/resources/svg-license ************
************* Attribution is appreciated! http://simplemaps.com ***************************
-->
<svg baseprofile="tiny" fill="#7c7c7c" height="1124" stroke="#ffffff" stroke-linecap="round" stroke-linejoin="round" stroke-width="2" version="1.2" viewbox="0 0 1000 1124" width="1000" xmlns="http://www.w3.org/2000/svg">
 <path d="M624.3 420.4l-0.6 0.2-0.5 0-0.4-0.3-0.4-0.6 0.8 0 1.1 0.7z m-62.4-5.8l-0.5 0.1-0.2-0.4-0.4-0.2-0.4 0-0.7-0.4-0.5-0.5-2.2-0.3-1.3-1 0-0.5 0.3-0.1 1.1 0.2 3.2 1.3 0.8 0.4 0.8 0.7 0 0.7z m89.6-2.7l-0.4 0.3-0.5-0.4 0.2-0.5-0.2-0.1 0.5-0.4 0.3 0.4 0.3 0.3-0.2 0.4z m-14.3-1.3l-0.3 0.3-0.7-0.4-0.8-0.6 0-0.4 0.6-0.4 0.3-0.6 0.8-0.2 0.6 0.4 0 0.5-0.5 1.4z m23.5-6.5l-1 0.5-0.2-0.2-0.3-0.4 0-0.3 0.6-0.7 0.4-0.2 0.5 0.1 0.2 0.3 0.1 0.7-0.3 0.2z m50.4-62.5l0.1 0.7-0.9-0.7 0.4-0.4 0.2 0.3 0.2 0.1z m45.3-14.5l0.1 0.3 0 0.6 0.2 0.6 0.5 0.4-0.1 0.5-0.4-0.1-2-1.8-0.1-0.4 0.7 0.2 0.6-0.2 0.5-0.1z m-255.2-31.8l-0.4 1-0.4-0.7 0.4-0.8 0.2-0.1 0.2 0.6z m-26.3-1l0.2 0.3 0.6-0.2 0.3 0.2-0.8 0.2-0.4-0.2 0.1-0.3z m61.5 0l-0.9 0.1 0.5-0.4 0.4-0.2 0.1-0.3 0.6-0.3-0.1-1.2-0.3-0.9 0.8 0.5 0.1 0.6-0.2 1-1 1.1z m-42.2-3.2l-0.5 0.5 0-0.3-0.2-0.5 0.1-0.3 0.4 0.1 0.2 0.5z m-6.4-1.3l-0.7 0.2-1-0.1-0.5-0.4 2.2 0.3z m10.4 0.3l-0.2 0.1-0.5-0.4-0.3 0-0.3-0.3-0.5-0.3 0.2-0.2 0.8 0.2 0.6 0.6 0.2 0.3z m-58.5-4.7l-0.6 0.1-0.4-0.2 1.2-0.2-0.2 0.3z m55.6-0.3l-0.2 0.2-1.7-0.9 0.3-0.1 1.2 0.2 0.4 0.6z m-59-1.6l-0.1 0.2-0.5 0.3-0.2-0.4 0.2-0.1 0.3 0.2 0.3-0.2z m282-282l-0.1 0.2-0.3-0.2-0.3-0.3 0.3-0.2 0.3 0.2 0.1 0.3z" id="VEN99" name="" data-id="VEN99" data-name="">
 </path>
 <path d="M377.2 384l-18.1-0.3-5.2-3-0.4-1.8 0-1.3-1.3-0.6-1.4-0.4-1.6 0.1-1-0.3-2.9 0-1.2 0.3-0.8 0.4-0.9 0.1-0.4-0.2-0.8-0.3-0.4 0-0.6 0.2-0.7 0.7-0.4 0.5-0.8 1.4-0.5 0.6-1.2 0.7-4.4 1.3-1-1.7-0.7-0.6-1.1-0.5-2.5 0-1.7 0.3-2.7 0-0.8-0.2-0.4 0-1.8 0.7-1.9 0.5-3.1-0.1-7.9-1.3-0.6 0-1.3 0.3-0.5 0-1.2-0.4-10.5-0.9-0.4 0.1-0.9 0.3-3.3 0.9-0.7 0-0.6-0.2-0.2-0.3-0.4-1.6-0.5-0.7-1.2-0.7-3.9-0.5-3.8-1.1-0.9-0.1-0.7 0-3.3 2.3-2.8 1.3-3.2 1.1-0.8 0.1-0.6 0.1-0.9-0.2-0.1-0.3 0.1-0.2 1.2-0.9-0.4-0.7-0.4-0.1-0.5 0-0.8 0.5-0.5 0.5-0.9 0.8-1 0.7-0.6 0.2-0.7 0.1-1.4-0.2-0.6 0.2-0.6 0.3-0.5 0.1-0.5 0-1.1-0.3-1 0-0.5 0.1-1.4 1-2.2 1.1-1.1 0.7-1.1 0.6-0.7 0.2-0.5 0-3.6-0.8-2-0.1-0.7 0.1-0.6 0.1-0.3 0.2-0.5 0.5-0.4 0.6-0.9 1.8-1.1 0.7-1.2 0.7-0.5 0.5-0.4 0.5-0.1 0.4-1.2 1.1-2.6-0.6-1.7 0.1-1.3 0.2-0.5 0.3-0.6 0.9-0.6 0.4-2 0.9-1 0.7-0.5 0.7-0.6 1.1-0.9 0.9-1.6 0.6-1.1 0.3-1.4 0.6-1.6 1.2-0.6 1-1.2 2.9-0.6 1.1-0.4 0.8-0.4 0.5-1.1 0.3-1.4 0.2-1.6 0.4-1.6 0.7-1.8 1.1-1 1-0.5 0.7-1.5-0.5-1.1-0.1-1.4-0.6-1.2-0.9-0.6-0.9-0.2-1.2 0.1-1.8-0.5-2.3-1.4-1.9-1-1-1.8-0.5-3.9 0.3-2.5 0.7-0.6 0.3-0.4 0-0.7-0.3-1.1-0.7-1-0.1-0.8 0-0.4-0.2-0.6-0.6-0.8-0.9-2.8-2.8-0.5-0.7-0.4-1.7 0-0.4-0.4-1.3-0.5-1.2-0.6-0.8-0.6-0.7-1.2-1-0.5-0.6-0.2-0.6 0.2-0.8-0.1-0.8-0.4-1.1-0.1-0.6 0-0.8 0-0.9 0.7-2.7-0.2-1.1-0.6-0.8-3.3-2.9-0.7-0.4-1.4-1.3-2.8-3.2-1.2-0.7-1.4-1.2-0.8-0.9-0.7-1.3-1.9-4.9 7.8-3.2 3.2-2 0.7-0.6 4.4-1.6 14.2-8 11.5-3 2-0.8 1.6 0.6 2.5 0 8.5-1 1.3-0.8 1.2-1.9-0.7 0.3-0.6 0.4-0.4 0.6-0.3 0.7-0.2-1.8 1.7-0.7 3.9 0.6 2.4-0.7 5.7-2.7 2.6-1.8 1.5 0 2.7 0.4 3.8-1.9 1.5-1.9 1-2 0.1-1.4-0.1-0.5-0.6-0.5-0.8-0.2 0.7-0.5 1 0.1 1.1 0.5 0.5 0.9 0.8 0.9 0.7 0.6 0.8-0.3 0.4-0.7 0.3-1.1 0.7 0.1 0.8 0.4 0.7 0.3 0.6 0.5 0.3 0 0.2-0.7 0-0.7-0.1-0.5-0.4-0.4-0.6-0.2 0.2-0.6 0.4-0.5-1.1-0.3 0.1-1-3.1-1.1-1.7-0.1-0.3-0.2 0.4-0.5 1.6 0-0.6-0.6-0.8-0.3-1-0.3-0.9-0.5-1.5-1.1 2.9 0.7 2 1.2 2 1 1.3 0.7 1.9 0.5 1.2-0.1 1.3 0.3 1.1 0.6 1.4-0.6 0.8-0.6 1.4 0.5 0.4 1.2 0.6 0.3 1-0.2 0.5 1.2 1.2 0.7 1.4 0.8 0.9 1.7 2.3 0.8 1.4-0.8 0.4-1.1 2.1-1.3 1-0.9 0.2-1.7-1.5-2.6 0.3-1.4-0.6-0.9-1.2-3.5-0.5-2.3-1.8-3.6-0.4 0-0.2 1.4-0.6-0.2-0.7-0.7-0.5-0.5-1 0.3-0.6 0.5-0.4 0.5-0.3 0.2-3.5 1.2-1.6 0.1 0.3-1.3-2.9 1.4-0.9 0.2-2.2 0-1.1 0.3-0.7 0.5-1.6 0.7-4.8 0.5-3.5 1.7-1.9-0.4-1.3-1.5-0.2-1.8 0.2-0.5 0.9-1 0.3-0.6 0.1-0.5-0.5-1.1 0-2-0.2-0.1-0.6-0.9 0.2-0.2 1.1 0.5 0.5 0.2 0-2.1-0.2-0.9-0.4-0.6-0.8-0.4-0.3 0.5-0.3 0.9-0.6 0.6-0.3-1.3-1.6-2.8-0.4-0.5-0.3-0.2-0.3-0.3-0.1-1.6-0.2-0.5-0.5-0.2-0.8 0.1 0.4-1 0.6-2.8 0-1.1 0.4-1.2 1.3-2.4 0.3-1.5 0.5-1.1 2.2-2.7 0.8-1.1 0.3-1.3-0.1-2.1 0.4-0.7 3.2-0.1 1.3-0.4 1.3-0.8 4.6-4 1.7-0.9 1.7-0.4 1 0.4 1 0.7 3.4 0.8 1.4 1.1 6.6 10.8 1 3.1 0.4 3.2 0 6.4 0.6 3.2 4.5 12.9 3.4 6.9 2.6 3.2 3.1 2.3 2.5 0.3 1.9-1.1 1.9-1.6 2.8-0.7 6.2 1 2.8 0.1 3-1.1 2.1-1.3 1.2-0.6 1.5-0.2 0.8 0.3 1.5 1 0.7 0.3 2.5-0.1 0.8 0.1 4.7 1.9 0.9-0.1 0.4 0.8 1 0.9 1.1 0.7 1 0.4 3 0.6 11.6-0.5 1.4 0.4 1.1 0.9 2.4 2.6 1.5 1.1 1.6 0.9 2.5 0.9 1.1 0.3 1.1 0.1 0.4-0.4 0.4 0.3 1.7 0.8 0.4 0.5 0.8 1.4 1.8 1.4 5.5 2.9 1.6 1.2 1.4 1.2 0.5 1.1 0.7 0.8 4.8 2.1 0.5-1 0-0.6 0.6 0 0.2 0.5 0.7 1.1 0 0.5-0.5 1.4 0.7 1.9 2.8 4.3 4.5 8.8 0.8 2.1-0.7 1-0.5-0.3-0.8-0.8-1-0.7-1.2-0.2-0.9 0.2-0.9 0.4-0.7 0.4-0.6 0.5 2.5 0.7 5.9 0.5 1.8 1.4-0.8 1.4-1.2 0.6-3.4 0-1.1 0.6-0.4 1.5 0.1 1.7 0.9 4.6 2.3 6.6 1 1.7z" id="VEN23" name="Falcón" data-id="VEN23" data-name="Falcón">
 </path>
 <path d="M430.8 583.5l0.7 1.2-0.8 1.3 0.6 0.6 0.7 0.1 0.8-0.2 0.9 0 1.8 0.9 0.9 0.1 2.6 0 0.5-0.1 0.6-0.2 0.7-0.2 0.9 0 4.3 1.6 0.8 0.7 0.5 1.8 1.2 1 2.7 1 1.1 0.8 0.8 0.9 1.1 0.6 3.6 0.6 1.4 0.7 1.4 0.6 1.8-0.1 2.7-1.5 1.6-0.3 3 2.1 1.6-0.2 1.6-0.8 1.6-0.4 0.5 0.2 0.9 0.7 7.4 1.2 0.4-0.1 0.7-0.3 0.4-0.1 0.5 0.1 0.8 0.7 0.5 0.2 1.5-0.1 7.5-2.1 1.7-0.1 1.3 0.3 0.5-0.3 3.1-0.8 0.4 0 1.2 0.1 0.4-0.1 0.2-0.3-0.1-0.9 0.4-0.3 0.9-0.1 0.6 0.4 1.5 1.7 0.8 0.5 0.9 0.3 0.4 0.5-0.6 0.8 1.6 1 2.2 1 2.3 0.4 2.5-1 0.6 0.4 1.7 2.4 0.4 1.2 0 1.3-0.4 1.6-1 0-2 0.6-2.9 1.9-1.3 1.2-0.9 1.4-0.9 2-1 1.4-1.2 2.4-0.5 0.6-1.9 1.5-0.4 0.6-0.3 0.6-0.4 1.4-0.3 0.8-4.5 6.5-1.4 1.3-1.4 0.6-3 0.4-1.4 0.6-0.5 0.4-1 1.1-0.6 0.4-0.9 0.3-2.8 0.3-1.7 0.6-3.9 3.1-0.9 0.3-1.6 0.5-0.8 0.3-0.8 0.6-1.3 1.3-0.7 0.5-1.6 0.6-3.1 0.4-5.8 4.6-1.2 2.1 0.6 3.2 1.2 3.2 0.5 0.8 1.1 1.6 0.5 0.9 0.2 1.6-0.5 1.5-0.9 1.5-0.6 1.6 1 0.7 0.4 1.5 0.1 2.9-0.6 2-1.3 1.3-1.4 1.1-1.3 1.6-1.8 4.7-1.5 8.1 0 0.8 0.3 0.8 0.9 1.5 0.1 0.8-0.5 1.3-1.1 1.2-1.3 1-3.2 1.6-0.6 0.5-1.7 1.6-0.7 0.3-1.5 0.5-0.5 0.4-0.5 0.8-0.6 2.1-1.9 3.8-1 1.3-1.4 0.8-0.8 0.1-1.6-0.2-0.8 0-1 0.3-0.6 0.6-1 1.7-1.2 0.9-2.9-0.3-2.1-1.5-1.9-1.9-2.2-1.4-11.5-2.7-5.1-0.4-1.3-0.4-0.7 0-0.8 0.5-1.4 1.4-0.8 0.6-0.8 0.2-1-0.1-0.8 0.3-0.4 0.9-0.1 0.8-0.4 0.7-0.6 0.6-0.7 0.2-0.7 0.1-2.6 0.9-3 0.5-9.3-0.9-3.3 0.4-8.3 3-2.7 0-4.9-1.3-1.5-0.2-1.6 0.2-5.4 1.6-4.6 0.2-0.8 0.4-1.9 1.7-1 0.5-1.7-0.2-3.1-1.5-1.5-0.3-1.7-0.2-4.7-1.4-1.5-0.3-4.7 0.3-1.6-0.3-1.8-0.7-1.6-0.3-1.3 0.3-2.8-1.2-1.5-0.4-1.8 0.1-1.4 0.6-2.1 2-1.5 1-4.4 4.2-4.2 2.4-1.6-1.3-3.2-3.6-1.4-0.7-2 0.3-3.5 1.7-1.9 0.5-0.9 0-18.9-23.9-5.5-7.1-11.2-14.1-11.1-14.2-1.3-1.6-2.4-2.1-2.1-0.5-2.7 0.2-2.7 0.6-4.1 2.4-2.4-0.1-7.6-3.7-1.1-0.4-0.2-0.2-0.5-0.7-0.3-0.2-0.7 0-1.7 0.2-0.8 0-1.1-0.3-0.8-0.5-3.7-4.7-0.5-0.5-1.2 0.2-2.1 0.7-1.2 0-2.5-0.5-0.7-0.3-1-0.9-0.5-0.2-2.2 0-4.4 1.1-3.2 0.2-2.8 1-1.5 0-0.6 0.4-0.4 0.7-0.7 1.1-3.2 2.2-3.6 1.4-4 0.4-5.2-0.5-0.7 0.4-0.6 0.7-0.9 0.7-1.3 0.4-0.8-0.2-0.5-0.5-0.9-0.4-3.6-0.1-1-0.4-0.4-0.8 0-0.9-0.2-0.9-0.6-0.5-1.1-0.1-3.1 0.6-1.2-0.1-2.4-0.7-1.1-0.1-1.2 0.2-1.9 0.9-0.9 0.3-1.5-1.3-1.6-0.4-1.3 0.4-0.1 0.2-1.4-0.1-0.4-0.7-0.4-0.3-0.6 0.2-1 0.6-0.5 0.1-0.5 0-0.9-0.6-0.4-0.6-0.6-0.5-2.5-0.1-1 0.2-0.4 0.5 0.3 1.2-2.1-0.5-1.8 0.1-1.7 0.3-2.1 0 0.2 1.4-0.5 0.2-0.8-0.1-0.8 0-0.9 0.6-0.7 0.6-0.8 0.5-1.2 0.2-2.4-0.2-8.3-2-0.8-0.4-1.7-1.5-1-0.6-2-0.9-0.9-0.5-1.3-1.5-4-7.9-0.8-2.1-0.5-2.1-0.2-2.2 0-0.7 0.7-3-0.2-0.4-0.4-0.2-2.5-3.3-2.5-0.7-6 0.1-3.6-0.7-1.8-0.6 3.3-1.7 1.2-0.9 1.1-0.5 0.6 0 0.9 0 4.1 0.7 1.2-0.1 2.8-0.7 1.5 0.5 0.7 0.5 0.8 1.2 0.3 0.2 0.6 0.5 3 1.5 1.2 0.8 0.7 0.4 3.4 0.8 0.9 0.1 1.5-0.2 1-0.3 0.7-0.4 3.1-2 0.8-0.3 1.6-0.3 0.4-0.2 0.4-0.3 0.5-0.4 1.2-1.7 1.4-3.4-0.2-0.3 0.9-0.4 1.5 0.2 4.4 1.4 0.6 0.5 1.2 1.5 0.7 0.7 0.9 0.3 3.1 0.5 1.6-0.1 0.6-0.7 0.2-0.8 0.6 0.2 0.9 0.9 0.9-0.2 1.7-0.7 0.7-0.2 0.8 0.2 1.4 0.7 0.9 0.2 0.9-0.1 0.4-0.2 0.2-0.4 0.5-0.4 1.6-0.7 1.3-0.1 2.8 0.4 5.6-0.1 2.6 0.3 2.7 0.8 1.4-0.7 1.6 1.2 1.6 1.7 1.2 0.8 1.7 0.2 0.7 0.2 0.8 1 1.2 0 1.9-0.3 3.1 0.8 3 1.3 2.9 1.7 2.5 2.3 1.2-0.4 1.3 0.6 1.4 0.8 1.4 0.5 1.3-0.2 3.4-1.1 1.1-0.7 2.7 1.1 3.4 0.7 3.4 0.2 2.6-0.5 0.4-0.5 1.2-1.6 0.4-0.5 1-0.3 0.6 0.1 0.5 0.1 0.7 0.1 1.3-0.3 1.2-1 1.8-1.7 0.5-1.1 0.4 0.1 0.6 0.1 0.4 0.2 0.1 0.2 0.6-0.4 0.3-0.3 0.1-0.5 0-1.1 0.5-1.2 1.1-0.3 1.5-0.1 1.5-0.2 2.6-1.4 2.1-2.3 1.4-2.6 1.6-5.5 0.8-1 1.3-0.4 0.7-0.1 1.3-0.4 0.8 0 0.7 0.2 1.2 0.6 0.5 0.2 1.3-0.2 1.8-0.7 1.8-1.1 0.7-1.3 0.5-1.4 1-1.8 1.2-1.5 1.1-0.7 1-0.3 3.3-2.2 1.2-0.3 3.6 0.3 0.9-0.3 1.1-0.7 2.1-1.9 1.1-0.8 1.1-0.6 1-0.2 1 0.5 0.8-0.6 2.5-1.2 0.9-0.3 2-0.2 1.3-0.4 11.5-8 8.4-7.9 1.6-1 1.7-0.1 3.5 0.8 2.9 0 8.7-1 1.7 0.4 2.6 1.7 1.5 0.4 0.4 0.4 0.7 1.8 0.4 0.4 2.8 1 0.4 0.2 0.8 0.6 0.3 0.2 0.5-0.2 0.7-0.6 0.3-0.2 2.8 0 1.1-0.5 0.8 0 0.3 0.8 0.2 0.7 0.4 0.7 1 1.3 0 0.4-0.1 0.9 0.1 0.3 0.3 0 0.8-0.1 0.4 0.1 2.7 1.5 4.7 0.6 6.9-0.9 1-0.4 1.1-1 3.7-2.4 1.2-0.2 4.6 0.2 1.7 0.4 2.8 1.5 1.9 0.2 1.7-0.7 2.6-2.4 1.4-0.5 1.5-0.4 0.9 0 0.3 0.6 0.4 0.2 1.7 1.1 1.5 0 1.8-0.3 1.6 0 0.6 0.6 0.8 0.4 1.6-0.7 2.1-1.5 0.5-0.1 1.4-0.2 0.7-0.2 0.8-0.6 0.7-0.6 0.7-0.6 2.3-0.5 2.6-1.3 1.4-0.5 7.4-0.5 1.8 0.6 1.7 0.9 1.6 0.6 1.6-0.6 3.4 1 7.1 0.3 3.7 0.8 1.5 0.6 1.5 0.4 1.3-0.4 0.4-0.1 0.3 0.2 0.5 0.7 0.3 0.1 1.7 0.5 1.6 1.3 0.1 0.3z" id="VEN25" name="Apure" data-id="VEN25" data-name="Apure">
 </path>
 <path d="M236.9 505.4l0.7 1.2 9.7 7.5 1.8 2.5 0.9 0.8 7.1 4.3 6.5 2.8 0.4 0.2 1.3 0.1 1.8-0.2 1.7 0.5 1.6 1.2 1.6 0.3 0.9-0.2 0.6-0.4 1.7-1.5 0.9-0.7 0.6-0.6 0.5-0.3 0.8-0.3 0.4 0.3 1.1 2 2.1 1 2.7 2.2 5.2 2.5 1.4 0.4 1.2 0.2 2.4 0.1 0.4 0.2 0.8 0.3 4.7 0.3 1.4 0.2 0.6 0.3 0.4 0.3 1.2 2.8 0.8 1.3 0.5 0.5 3.9 3.3 0.3 0.2 1.4 2.2 0.3 0.7 0.1 0.8-0.1 0.9 0.1 0.4 0.2 0.6 0.4 1 0.3 0.2 0.4 0.1 1.7 0 0.7 0.2 0.4 0.2 0.1 0.3-0.3 0.7-0.5 0.5-0.6 0.9-0.3 0.7-0.2 0.9-0.1 0.4 0.3 0.7 0.6 0.9 2.8 3 0.7 1 0.7 0.6 3.4 1.7 2.8 2 0.4 0.4 0.8 1.3 1.6 2.3 0.5 0.4 0.4 0.3 3.4 1.8 0.5 0.4 0.2 0.4 0.3 0.9 0.2 0.6 0.6 0.5 0.9 0.2 0.9-0.1 0.4-0.1 0.6-0.4 0.5-0.5 0.3-1.4-0.1-0.8-0.7-2.7-0.1-0.6 1.1-4.3 1.6-4.4 0.3-0.6 0.4-0.4 3.7-2.5 3.9-2.1 1.8-2.2 3.8-5.7 0.9-2.7 0.6-2.5 0.2-1.3 0.4-1.3 0.1-1.3 0-1 5.2 1.7 1 0 2.6-0.1 1 0.2 0.7 0.4 0.5 0.1 0.7-0.1 0.4-0.3 0.6-0.4 0.3-0.2 0.7 0 0.9 0.1 1.8 0.7 1.7 0.4 1.6-0.3 0.9 0 4 0.4 0.9 0 0.6-0.1 0.7-0.3 1.2-0.3 0.5 0 1.5 0 1.4 0.4 3.9 1.6 0.4 0.1 1.1 0.1 0.7 0.3 0.5 0.4 0.3 0.7 0.1 0.6 0.5 0.8 0.5 0.3 2.4 2.5 0.3 0.7 0.3 0.4 1.6 1.1 0.2 0.4-0.4 1-0.2 0.5 0.3 0.3 0.5 0 0.4 0.2 0.3 0.3 0.1 0.2 0.1 0.8 0.4 0.8 0.5 0.8 0.5 0.4 0.6 0.1 1-0.5 0.4 0 0.2 0.3 0.2 0.9 0.2 0.3 1.1 0.8 0.3 0.2 0.6 0 1-0.5 0.4 0 0.4 0.7-0.2 0.8-0.5 1-0.2 1.1 0.5 0 0.5-0.5 0.8 0.5 0 0.2 0.5 0.4 0.6 0.3 0.2 0.1 0.1 0.5-0.1 1.2 0.2 0.3 0.8 0 0.4 0.1 0.3 0.3 0.3 0.6 0.4-1 0.1-0.5 0.5 0 0.3 0.5 0.2 0.7 0.1 2.7 0.3 0.2 0.5 0 3.4 0 0.5 0.2 1.1 1.1 0.4 0.2 0.7 0.7 0.9 3.2 0.4 0.7 0.9 0.5 0.9 1.1 0.8 1.5 0.2 1.5 0.9-0.2 0.8 0.3 0.8 0.6 1 0.3-0.3 0.7-0.1 0.5 0.1 0.4 0.3 0.4 0 0.5-1.6-0.4 0.1 0.5 1.5 1.5 0.8 2.4 0.8 0.7 1.4-0.6 1.3 0.9-0.2 0.7-1 0.6-0.9 0.4-0.1-0.3-1.6-1.3-1.7-0.5-0.3-0.1-0.5-0.7-0.3-0.2-0.4 0.1-1.3 0.4-1.5-0.4-1.5-0.6-3.7-0.8-7.1-0.3-3.4-1-1.6 0.6-1.6-0.6-1.7-0.9-1.8-0.6-7.4 0.5-1.4 0.5-2.6 1.3-2.3 0.5-0.7 0.6-0.7 0.6-0.8 0.6-0.7 0.2-1.4 0.2-0.5 0.1-2.1 1.5-1.6 0.7-0.8-0.4-0.6-0.6-1.6 0-1.8 0.3-1.5 0-1.7-1.1-0.4-0.2-0.3-0.6-0.9 0-1.5 0.4-1.4 0.5-2.6 2.4-1.7 0.7-1.9-0.2-2.8-1.5-1.7-0.4-4.6-0.2-1.2 0.2-3.7 2.4-1.1 1-1 0.4-6.9 0.9-4.7-0.6-2.7-1.5-0.4-0.1-0.8 0.1-0.3 0-0.1-0.3 0.1-0.9 0-0.4-1-1.3-0.4-0.7-0.2-0.7-0.3-0.8-0.8 0-1.1 0.5-2.8 0-0.3 0.2-0.7 0.6-0.5 0.2-0.3-0.2-0.8-0.6-0.4-0.2-2.8-1-0.4-0.4-0.7-1.8-0.4-0.4-1.5-0.4-2.6-1.7-1.7-0.4-8.7 1-2.9 0-3.5-0.8-1.7 0.1-1.6 1-8.4 7.9-11.5 8-1.3 0.4-2 0.2-0.9 0.3-2.5 1.2-0.8 0.6-1-0.5-1 0.2-1.1 0.6-1.1 0.8-2.1 1.9-1.1 0.7-0.9 0.3-3.6-0.3-1.2 0.3-3.3 2.2-1 0.3-1.1 0.7-1.2 1.5-1 1.8-0.5 1.4-0.7 1.3-1.8 1.1-1.8 0.7-1.3 0.2-0.5-0.2-1.2-0.6-0.7-0.2-0.8 0-1.3 0.4-0.7 0.1-1.3 0.4-0.8 1-1.6 5.5-1.4 2.6-2.1 2.3-2.6 1.4-1.5 0.2-1.5 0.1-1.1 0.3-0.5 1.2 0 1.1-0.1 0.5-0.3 0.3-0.6 0.4-0.1-0.2-0.4-0.2-0.6-0.1-0.4-0.1-0.5 1.1-1.8 1.7-1.2 1-1.3 0.3-0.7-0.1-0.5-0.1-0.6-0.1-1 0.3-0.4 0.5-1.2 1.6-0.4 0.5-2.6 0.5-3.4-0.2-3.4-0.7-2.7-1.1-1.1 0.7-3.4 1.1-1.3 0.2-1.4-0.5-1.4-0.8-1.3-0.6-1.2 0.4-2.5-2.3-2.9-1.7-3-1.3-3.1-0.8-1.9 0.3-1.2 0-0.8-1-0.7-0.2-1.7-0.2-1.2-0.8-1.6-1.7-1.6-1.2-1.4 0.7-2.7-0.8-2.6-0.3-5.6 0.1-2.8-0.4-1.3 0.1-1.6 0.7-0.5 0.4-0.2 0.4-0.4 0.2-0.9 0.1-0.9-0.2-1.4-0.7-0.8-0.2-0.7 0.2-1.7 0.7-0.9 0.2-0.9-0.9-0.6-0.2-0.2 0.8-0.6 0.7-1.6 0.1-3.1-0.5-0.9-0.3-0.7-0.7-1.2-1.5-0.6-0.5-4.4-1.4-1.5-0.2-0.9 0.4-0.4-1.1 0-0.8 0.2-0.7 0.5-0.2 0.8-0.2 1.9-0.2 1.1 0.1 0.8-0.2 0.6-0.3 0.7-0.2 4.8-0.2 1.8 0.1 3.1 1 5.4 0.7 3.2 0.8 0.5 0 2.5-0.1 0.8 0.1 0.8 0.2 4.6 1.6 1.7 0.2 1.2 0 0.7-0.1 0.6-0.3 0.5-0.3 0.1-0.5-0.2-0.3-0.5-0.3-1.9-0.2-1-0.3-0.8-0.5-1.7-1.3-0.3-0.7-0.4-0.5-1-0.6-0.3-0.7-0.5-0.8-1.5-1-0.6-0.5-0.8-0.8-0.8-0.5-0.4-0.4 0.5-2.7 0-1.4 1.1-0.4 0.5-0.2 0.4-0.7 0.2-0.9-0.6-2.3 0-1.8 2.4-2.4 10.3-7.4 1.9-1.1 0.7-0.5 1-0.8 1.7-2.4 0.7-0.7 2.9-1.7 5.7-5.1 2.3-3.2 0.8-2.7 1.5-2.4 0.4-0.5 0.5-0.8 0.3-0.8 0-0.9-0.1-0.6-0.7-1.5-0.3-1.6-0.3-0.7-0.4-0.6-0.6-0.5-0.7-0.3-0.4-0.2-0.4-0.6-0.5-1.5-0.2-0.8-0.2-0.8 0-2 0.1-0.5 0.4-0.6 1.8-1.6 0.6-0.8 0.2-0.9 0-1.2 0.2-0.5 0.4-0.5 0.8-0.7 1.8-1.2 0.4-0.5 0.4-0.7 0.7-1.5 0.2-0.8 0-0.6-0.3-0.8-0.2-0.8-0.1-0.8 0.5-1 0.5-0.7 0.4-0.4 1.7-1.5 0.6-0.2 0.5 0.3 0.7 0.1 1.2-1.5 3.1-4.3 0.3-0.7 0.7-1 0.8-0.9 1.7-1.1 2.6-2.2 1.2-0.2 0.5 0.5 0.3 0.7 0.3 0.2 0.3 0.1 0.8-0.2 0.6-0.6 0.6-1.2 0.4-1.2 0.3-0.7 0.7-0.5 0.7-0.2 0.8 0.2 0.6-0.1 0.7-0.4 1.2-0.7 1.3-0.6 1.5-0.3 1.2-0.4 0.4-0.4 0.4-0.6 0.5-3 0.4-1.1 1.5-2.2 0.8-0.9 0.8-1.3 1.2-1.1 3.9-1.5 1.2-0.2 2.2 0.1 3.6 0.4 4-0.3 1.7-0.3 0.6 0 0.7 0.2 1.3 0.5 1.6 0.4 2.3 0z" id="VEN26" name="Barinas" data-id="VEN26" data-name="Barinas">
 </path>
 <path d="M211 509.4l-1.5 2.2-0.4 1.1-0.5 3-0.4 0.6-0.4 0.4-1.2 0.4-1.5 0.3-1.3 0.6-1.2 0.7-0.7 0.4-0.6 0.1-0.8-0.2-0.7 0.2-0.7 0.5-0.3 0.7-0.4 1.2-0.6 1.2-0.6 0.6-0.8 0.2-0.3-0.1-0.3-0.2-0.3-0.7-0.5-0.5-1.2 0.2-2.6 2.2-1.7 1.1-0.8 0.9-0.7 1-0.3 0.7-3.1 4.3-1.2 1.5-0.7-0.1-0.5-0.3-0.6 0.2-1.7 1.5-0.4 0.4-0.5 0.7-0.5 1 0.1 0.8 0.2 0.8 0.3 0.8 0 0.6-0.2 0.8-0.7 1.5-0.4 0.7-0.4 0.5-1.8 1.2-0.8 0.7-0.4 0.5-0.2 0.5 0 1.2-0.2 0.9-0.6 0.8-1.8 1.6-0.4 0.6-0.1 0.5 0 2 0.2 0.8 0.2 0.8 0.5 1.5 0.4 0.6 0.4 0.2 0.7 0.3 0.6 0.5 0.4 0.6 0.3 0.7 0.3 1.6 0.7 1.5 0.1 0.6 0 0.9-0.3 0.8-0.5 0.8-0.4 0.5-1.5 2.4-0.8 2.7-2.3 3.2-5.7 5.1-2.9 1.7-0.7 0.7-1.7 2.4-1 0.8-0.7 0.5-1.9 1.1-10.3 7.4-2.4 2.4 0 1.8 0.6 2.3-0.2 0.9-0.4 0.7-0.5 0.2-1.1 0.4-0.5-2.1-0.4-0.9-0.3-0.3-0.5-0.4-1.3-0.8-0.5-0.5-0.1-0.4 0.1-0.6 1.2-2.4 0.6-1.5 0.1-0.9-0.1-4-0.4-2.1-0.6-0.9-0.1-0.4 0.2-1 1.4-2 0.2-1 0-0.4-0.7-1.2-6-3.9-1.9-0.1-0.6 0.1-1-0.2-0.5 0.1-0.8 0.2-0.5 0-0.6-0.3-0.9 0-0.4 0.1-0.9 0.7-0.3 0.2-0.6-0.1-0.7-0.4-1.8-1.6-0.6-0.7-3.1-5-0.4-0.3-1.5-1.1-0.7-0.3-1.5-0.2-3 0.4-0.4-0.2-0.1-0.9 0.2-1.2 0.5-1.6 0.2-0.5 1.9-2.3 0.9-1.7 0.4-0.5 1.1-0.6 0.5-0.4 0.2-0.4 0.6-2.1-1.4-4.2 3.8-4.7 0.4-0.8 0.1-0.8-0.3-1.4-0.1-0.3-1.3-1.7-0.3-0.7-0.2-2.2-0.3-0.8-0.3-0.4-0.6-0.4-0.4-0.3-9-1.5 0.6-0.7 0.9-0.5 1-0.2 0.7-0.3 0.7-0.3 0.8-0.7 1.4-1.3 0.4-0.3 0.6-0.2 1.1-0.1 0.7 0 0.5 0.1 0.6 0.4 0.5 0.6 0.1 0.8 0 0.4-0.5 1-0.1 0.3 0.1 0.3 0.4 0.1 0.7-0.2 1.2-0.5 0.7-0.1 0.6 0 0.5 0 0.7 0.4 0.9 0.6 0.3-0.1 0.4-0.3 1-3.7 0.2-0.4 0.8-1.5 1.5-1.6 4.6-4 19.5-14.4 2.1-2.3 1.5-1.3 1.2-0.5 1.2-0.9 1.6-1 1.2-0.2 1.3 1.3 0.5 0.9 0.1 0.9 0.4 0.8 0.5 0.3 1-0.5 1.2-0.9 0.7-1.7 0.1-2 0-1 0.3-1.1 0-1.8-0.4-1.1-1-1-1.5-1.3-0.7-0.6-1.1-1-0.9-0.5 0.9-3.4 1.4-1 1.9-2.4 0.7-0.8 0.7-0.2 1.9-0.2 0.5-0.3 0.5-0.3 0.5-0.3 0.7-0.1 1-0.4 0.8-1 0.3-0.8 1.8-1.1 1.4-0.2 2.3 0.2 0.7 0.1 0.8 0.6 1.4 1.4 1.2 0.8 0.7 0.8 0.5 1.4 1 4.2 0.4 1.5 0.1 1.2 0.5 1.2 1.6 2.7 0.6 0.7 2.5 1.7 0.7 0.3 0.8 0.3 0.8 0.5 0.9 1.9 0.7 0.3 0.3 0.1 1.1-0.2 1.2 0.7 0.5 0.7 0.3 1.3 0.5 1.5 0.4 0.7 0.5 0.5 0.5 0.4 0.6 0.1 0.7-0.1 2.4-1.1 2.5-2.1 1.1-0.5 0.8-0.3 0.4-0.1 0.6 0.4 0.4 1.4 0.8 0.3 0.7 0.2 0.3 0.3 0.1 0.5-0.2 1 0 1.2 0.6 1.1z" id="VEN27" name="Mérida" data-id="VEN27" data-name="Mérida">
 </path>
 <path d="M141.2 603.8l0 1.4-0.5 2.7 0.4 0.4 0.8 0.5 0.8 0.8 0.6 0.5 1.5 1 0.5 0.8 0.3 0.7 1 0.6 0.4 0.5 0.3 0.7 1.7 1.3 0.8 0.5 1 0.3 1.9 0.2 0.5 0.3 0.2 0.3-0.1 0.5-0.5 0.3-0.6 0.3-0.7 0.1-1.2 0-1.7-0.2-4.6-1.6-0.8-0.2-0.8-0.1-2.5 0.1-0.5 0-3.2-0.8-5.4-0.7-3.1-1-1.8-0.1-4.8 0.2-0.7 0.2-0.6 0.3-0.8 0.2-1.1-0.1-1.9 0.2-0.8 0.2-0.5 0.2-0.2 0.7 0 0.8 0.4 1.1 0.2 0.3-1.4 3.4-1.2 1.7-0.5 0.4-0.4 0.3-0.4 0.2-1.6 0.3-0.8 0.3-3.1 2-0.7 0.4-1 0.3-1.5 0.2-0.9-0.1-3.4-0.8-0.7-0.4-1.2-0.8-3-1.5-0.6-0.5-0.3-0.2-0.8-1.2-0.7-0.5-1.5-0.5-2.8 0.7-1.2 0.1-4.1-0.7-0.9 0-0.6 0-1.1 0.5-1.2 0.9-3.3 1.7-1.4-0.5-2.7-1.9-2-3.3-0.3-1.8 0.5-1.5 0.6-1.5 0.3-1.6-0.2-1.4-1-2.9-0.3-1.6 0.7-7.7 1.5-4.6 0.2-1.3-0.2-3.2-0.3-1.3-0.6-0.8-1.5-1.8-0.3-0.7 0.2-0.8 0.7-0.5 0.8-0.3 0.8-0.4 1.1-0.9 0.8-1 0.7-1.2 0.3-1.4 0.7-1.3 1.4-0.2 1.6 0.2 1.2 0 1.2-1.7-0.1-2.8-1.6-5.1-2.4-4.6-0.4-1.7 0-1.2 0.7-2.4 0.1-1.2-0.2-1.3-0.5-1.2-0.7-1.1-0.9-0.9 0.9-1.1 0.2-1.3 0.3-0.7 0.6-0.9 0.5-0.2 0.6 0.5 0.3 0 1.2-1.6 0.2-0.4 0.2-0.8 0.1-1.3 0.1-0.3 0.4-0.5 0.5-0.4 1.4-1.4 0.9-0.6 1.5-0.9 0.7-0.1 0.6 0.1 0.4 0.4 0.4 0.7 0.1 0.6-0.1 1.9 0.2 0.9 0.3 1.2 0.4 2.7-0.2 1.8 0 0.4 0.6 0 0.6-0.1 3.5-3.2 0-0.5 0.5-0.5 0.5-0.1 2.2 0.2 0.4 0 1.1-0.5 1.7-1.1 0.9-0.4 0.5 0 1.4 0 0.4 0 0.5-0.3 0.5-0.5 0.8-1.1 1.3-1 0.5-0.3 0.4-0.4 3.6-5.9 9 1.5 0.4 0.3 0.6 0.4 0.3 0.4 0.3 0.8 0.2 2.2 0.3 0.7 1.3 1.7 0.1 0.3 0.3 1.4-0.1 0.8-0.4 0.8-3.8 4.7 1.4 4.2-0.6 2.1-0.2 0.4-0.5 0.4-1.1 0.6-0.4 0.5-0.9 1.7-1.9 2.3-0.2 0.5-0.5 1.6-0.2 1.2 0.1 0.9 0.4 0.2 3-0.4 1.5 0.2 0.7 0.3 1.5 1.1 0.4 0.3 3.1 5 0.6 0.7 1.8 1.6 0.7 0.4 0.6 0.1 0.3-0.2 0.9-0.7 0.4-0.1 0.9 0 0.6 0.3 0.5 0 0.8-0.2 0.5-0.1 1 0.2 0.6-0.1 1.9 0.1 6 3.9 0.7 1.2 0 0.4-0.2 1-1.4 2-0.2 1 0.1 0.4 0.6 0.9 0.4 2.1 0.1 4-0.1 0.9-0.6 1.5-1.2 2.4-0.1 0.6 0.1 0.4 0.5 0.5 1.3 0.8 0.5 0.4 0.3 0.3 0.4 0.9 0.5 2.1z" id="VEN28" name="Táchira" data-id="VEN28" data-name="Táchira">
 </path>
 <path d="M247.9 474l-1.6 4.2-0.7 1.3-0.4 0.2-1.2 1.3-1.5 2.6-1.8 2-0.4 0.6-0.1 0.6 0.1 0.4 0.2 0.3 0.7 0.2 0.9 0 0.4 0.1 0.6 0.3 0.4 0.1 0.8-0.2 1.2-0.8 0.4 1.2-0.2 6.9-1.3 3.3-0.6 1.1-1.1 1.1-0.2 0.7-0.5 2.2-0.4 0.5-0.4 0.3-1.9 0.1-0.5 0.1-0.8 0.2-1.1 0.5-2.3 0-1.6-0.4-1.3-0.5-0.7-0.2-0.6 0-1.7 0.3-4 0.3-3.6-0.4-2.2-0.1-1.2 0.2-3.9 1.5-1.2 1.1-0.8 1.3-0.8 0.9-0.6-1.1 0-1.2 0.2-1-0.1-0.5-0.3-0.3-0.7-0.2-0.8-0.3-0.4-1.4-0.6-0.4-0.4 0.1-0.8 0.3-1.1 0.5-2.5 2.1-2.4 1.1-0.7 0.1-0.6-0.1-0.5-0.4-0.5-0.5-0.4-0.7-0.5-1.5-0.3-1.3-0.5-0.7-1.2-0.7-1.1 0.2-0.3-0.1-0.7-0.3-0.9-1.9-0.8-0.5-0.8-0.3-0.7-0.3-2.5-1.7-0.6-0.7-1.6-2.7-0.5-1.2-0.1-1.2-0.4-1.5-1-4.2-0.5-1.4-0.7-0.8-1.2-0.8-1.4-1.4-0.8-0.6-0.7-0.1-2.3-0.2-1.4 0.2-1.8 1.1 0.1-0.5 0.1-1.5-1.3-4.1-0.4-6.2-0.3-1.4-0.4-1-0.2-0.7 0.1-0.9 0.3-0.6 1.4-1.9 0-0.9 0.3-1.2 1.2 0.1 2.5 0.5 0.8 0 1.7-0.4 0.6 0.1 0.3 0.2 0.5 0.5 0.3 0.2 0.4 0 1.5-0.4 0.9 0.1 1.1 0.4 0.9 0.1 1.3-0.1 0.9 0 0.6-0.2 0.7-0.4 1.9-2.3 1.6-3 0.4-0.3 0.4-0.2 1.5-0.3 0.5-0.2 0-0.4-0.4-0.9 0-0.5 1.5-3.1 0.6-0.5 0.5 0 0.4 0.2 0.5 0.6 0.6 0.6 0.8 0 0.9-0.6 0.6-1 1.4-0.7 1.1-1.1 0.3-1.5 0-2.1-1.8-4.8-0.1-3.8 1.8-3.6 1.1-1.5 1.1-0.6 1.1-0.4 1 0 1 0.5 0.2 0.8 0.1 1.5 0 0.7 1 1.3 1.3 2.5 1 0.8 1.4 0.3 1.5 1.1 1.7 1 0.7 0 1.1-0.7 1.3-0.8 0.7-0.4 2.7-0.4 1 0.1 0.6 0.5 0.7 1.8 0.4 0.6 1.1 0.4 2.5 0.6 1.1 2 0.6 0.9 0.7 0.6 1.3-0.7 0.2-0.3 0.7-0.5 0.6 0.2 0.9 0.9 0.4 0.4 1.8 2.6 0.5 0.5 0.5 0.2 0.5 0.1 2.7 0.1 1.2 0.3 0.6 0.4 0.6 0.9 0.4 0.7 2.8 2 0.9 0.9 0.4 0.8 0.2 0.7-0.1 0.3-0.2 0.3-1.1 1-0.7 0.3-0.4 0-1.2-0.3-0.4 0-0.4 0.2-0.7 0.6-2.5 1.7-0.9 0.8-0.2 0.5-0.1 0.5 0 0.9 1.3 4.4 0.6 1.7 0.7 0.6 2.3 0.9 0.4 0.3 0.3 0.4 1.9 4.3z" id="VEN29" name="Trujillo" data-id="VEN29" data-name="Trujillo">
 </path>
 <path d="M201.9 408.7l-0.5 0.6-0.8 1.3-0.6 1.3-0.7 1.7-0.4 1.5-0.4 1-0.5 0.8-1.1 1-7.3 4.5-1.7 1.6-0.7 2.2 0.3 2 1.2 1.9 2.3 2.6 2.4 1.7 2.1 0.8 3.6 2.5 1.1 0.6 1.5 0.3 1.8 4.8 0 2.1-0.3 1.5-1.1 1.1-1.4 0.7-0.6 1-0.9 0.6-0.8 0-0.6-0.6-0.5-0.6-0.4-0.2-0.5 0-0.6 0.5-1.5 3.1 0 0.5 0.4 0.9 0 0.4-0.5 0.2-1.5 0.3-0.4 0.2-0.4 0.3-1.6 3-1.9 2.3-0.7 0.4-0.6 0.2-0.9 0-1.3 0.1-0.9-0.1-1.1-0.4-0.9-0.1-1.5 0.4-0.4 0-0.3-0.2-0.5-0.5-0.3-0.2-0.6-0.1-1.7 0.4-0.8 0-2.5-0.5-1.2-0.1 1-4.1 0-3.5 0.5-0.5 0.3-0.5 0.2-0.6 0-0.2-0.5-1.3-0.9-1.2-1.3-1.2-1.1-1.4-0.2-1.8 0.7-0.2 0.5-0.2 0.3-0.7-0.2-0.5-1.3-1.5-1.4-2.1-4-4.9-1.5-1-1.7 0.3-1.6-6.7-1.3-3.3-1.6-2.8-2.8-2.9-1.7-1.2-2.6-1-0.7-1.2-0.8-2.9-0.6-1-1.6-1.9-0.6-2.2-0.7-1.2-1.5-1.9-0.9-0.8-0.3-0.5-0.4-0.7 0-0.8 0.4-1.1 0.5-3.9-0.3-1-1.1-0.9-3.3-2.3-1.1-1.5-0.1-1.9 0.4-0.6 2.5-2.1-0.1-0.3-2.1-3.4-0.2-0.8 0.1-1 0.5-1.9 0-1.2-0.3-0.8-0.5-0.6-1.3-1.2-0.8-1.2-0.4-0.5-0.8-0.3 0-0.5 5.4-0.2 2.3 0.2 2.4 1 0.8-1.7-0.4-1.5-0.7-1.3-0.2-1.2 0.5-1.1 1.8-1.2 0.7-1.2-1.9 0-0.7-0.1-0.9-0.4-0.7-0.6-1.4-1.5-1-0.5 3.2-1.1 2.9-0.4 6.1 0 3.1-0.5 0.9-0.3 1.9 4.9 0.7 1.3 0.8 0.9 1.4 1.2 1.2 0.7 2.8 3.2 1.4 1.3 0.7 0.4 3.3 2.9 0.6 0.8 0.2 1.1-0.7 2.7 0 0.9 0 0.8 0.1 0.6 0.4 1.1 0.1 0.8-0.2 0.8 0.2 0.6 0.5 0.6 1.2 1 0.6 0.7 0.6 0.8 0.5 1.2 0.4 1.3 0 0.4 0.4 1.7 0.5 0.7 2.8 2.8 0.8 0.9 0.6 0.6 0.4 0.2 0.8 0 1 0.1 1.1 0.7 0.7 0.3 0.4 0 0.6-0.3 2.5-0.7 3.9-0.3 1.8 0.5 1 1 1.4 1.9 0.5 2.3-0.1 1.8 0.2 1.2 0.6 0.9 1.2 0.9 1.4 0.6 1.1 0.1 1.5 0.5z m-41.2 83.4l0.9 0.5 1.1 1 0.7 0.6 1.5 1.3 1 1 0.4 1.1 0 1.8-0.3 1.1 0 1-0.1 2-0.7 1.7-1.2 0.9-1 0.5-0.5-0.3-0.4-0.8-0.1-0.9-0.5-0.9-1.3-1.3-1.2 0.2-1.6 1-1.2 0.9-1.2 0.5-1.5 1.3-2.1 2.3-19.5 14.4-4.6 4-1.5 1.6-0.8 1.5-0.2 0.4-1 3.7-0.4 0.3-0.3 0.1-0.9-0.6-0.7-0.4-0.5 0-0.6 0-0.7 0.1-1.2 0.5-0.7 0.2-0.4-0.1-0.1-0.3 0.1-0.3 0.5-1 0-0.4-0.1-0.8-0.5-0.6-0.6-0.4-0.5-0.1-0.7 0-1.1 0.1-0.6 0.2-0.4 0.3-1.4 1.3-0.8 0.7-0.7 0.3-0.7 0.3-1 0.2-0.9 0.5-0.6 0.7-3.6 5.9-0.4 0.4-0.5 0.3-1.3 1-0.8 1.1-0.5 0.5-0.5 0.3-0.4 0-1.4 0-0.5 0-0.9 0.4-1.7 1.1-1.1 0.5-0.4 0-2.2-0.2-0.5 0.1-0.5 0.5 0 0.5-3.5 3.2-0.6 0.1-0.6 0 0-0.4 0.2-1.8-0.4-2.7-0.3-1.2-0.2-0.9 0.1-1.9-0.1-0.6-0.4-0.7-0.4-0.4-0.6-0.1-0.7 0.1-1.5 0.9-0.9 0.6-1.4 1.4-0.5 0.4-0.4 0.5-0.1 0.3-0.1 1.3-0.2 0.8-0.2 0.4-1.2 1.6-0.3 0-0.6-0.5-0.5 0.2-0.6 0.9-0.3 0.7-0.2 1.3-0.9 1.1-0.7-0.4-0.7-0.2-0.7-0.3-0.9-0.7-7.5-8.2-1.4-1.6-5.7-6.1-1.5-2.5-3.3-12.8-4.6-17.6-1.2-1.5 1-1.7-0.4-0.9-1.2-0.7-1.4-1.3-0.6 0.6-0.5 0-0.6-0.3-0.9 0-0.9 0.3-0.6 0.3-2.5 1.7-1.5 0.5-1.4-0.3-1.3-1.8-0.4-1.7 0.2-3.1-0.3-1.8-0.2-0.3-0.7-0.7-0.2-0.4 0-0.3 0.3-0.6 0-0.3-0.9-2.7-0.5-0.6-1.6 0.1-3.2 3-1.7 0.9-1.9 0.6-1.3 0.8-2.5 2.4-2.6 1.3-3.1 0.4-9.1 0.3-1-0.6 0-1.7 0.9-1.4 2.7-1.9 1.3-1.2 0.9-1.5 2.6-6.4 5.8-8.7 1.4-3.3 1.1-1 3-1.9 1.1-1.2 0.8-1.4 1.9-5.1 4-6.3 2.3-4.7 0.6-2-0.3-1.3-0.6-1.4-0.5-1.9 0-1.6 0.6-2.9 0.1-2.9 3.8-13.1 1.5-16.4-0.1-1.5 0.1-1.4 0.6-1.5 1.1-1.5 1.2-1.2 1-1.4 1.4-4 4.5-5.2 2-3.3 3.6-10.2 1.7-3.3 1.9-2.3 3.2-2.2 1.4-1.3 1.3-1.9 2.5-6.2 0.6-0.9 1.4-1.5 0.6-0.8 0.2-0.7 0-1.4 0.4-0.7 1.3-0.9 1.6-0.2 3.1-0.2 4.1-1.5 1.5-0.3 1.4 0.1 2.7 0.8 1.3-0.4 0.8-0.9 4.4-8.3 6.6-12.3 7.3-13.7 1.3-1.8 1.4-1 19.1-5 8.6-2.3 10.6-2.7 3-1.3 2.5-2.2 1.3-0.7 2.2 0.1-1 1.8-0.2 1.4 0.6 1.3-2 0.3-0.6 0.2-0.3 0.6 0 0.6-0.2 0.6-0.7 0.3-1.7 0.3-4.2 2.2-2.9 0.9-12.3 1.9-13.8 4.2-2.8 0.5-1.8 0.7-1.7 0.8-0.9 0.8-0.8 2.7 0.1 3.3 2.2 9.8 6.1 12.3 4.5 6.4 1.9 1.9 8.6 4.9 1.1 0.9 0.8 1 0.2 1.1-0.6 0.2-3.5 0.7 0.3-1.1-0.5-1-1.1-0.7-2-0.4-0.7-0.2-0.7-0.2-0.3 0.3-0.2 0.4-0.4 0.3-0.9 0.6 0.6 0.9 2.7 2.4 0.6 1-0.1 0.9-0.2 1-0.1 1 0.8 3 1.2 3.1 1.4 2.6 1.8 2.4 2.3 2.1 3.1 1.6-0.7 1.7-0.7 2.9-1.1 1.7 0.4 0.5 0.1 0.8-0.1 0.9-0.4 0.8 0.4 1.2-0.6 1.5-0.9 1.7-0.4 1.5 0.1 4.1 0.1 0.4-0.1 0.3-0.6 0.6-0.5 0.3-2 0.7-1.6 1.8-0.2 0.3-1.2 0.3-1.3 0.7-1.8 1.5-1.8 2.2-4.2 8-4.1 5.4-0.4 1.8-1.1 0.7-3 0.9-1.2 0.9-0.9 1.3-0.7 1.5-0.7 3.2-1.7 2.9-1.4 4.2-4.9 5.5-1.1 2.2 0.3 1.1 1.3 2.9 0.9 1.4 5.1 5.1 1.6 2.3 3.9 8.5-1.3-0.7-0.7-1.4-0.4-1.6-0.6-1.4-0.6 0.4 0.4 0.6 0.2 0.5-0.7 0.1-0.3 0.2-0.5 0.7 1 0.5 1.2 1 0.9 1.3 0.4 1.5-0.5 1.5-1.2 0.1-1.4-0.8-0.9-1-0.3 1.4 0.6 1.4 1.1 1.8 1.2-0.8 1.6-1.5 1.5-0.7 0.8 1.4 0.5 0 0-1.4 0.8 0.5 2 2.2 0.7 0.5 0.7 0.2 0.7 0.3 0.6 0.8-2.2-0.4-1.9 0.7-1 1.7 0.6 2.1 0.8-2.6 0.2-0.5 4.3 0 1.9 1.1 1.7 2.2 1.8 1.3 1.9-1.5-0.3 1.2-0.2 0.3 0.8 0.6 0.2 0.6-0.5 0.3-1 0.1 0 0.5 0.9 0.8 0.1 1.3-0.4 1.4-0.6 1.1-0.8-0.7-1.4 1.1-2.8 2.7 0.7 0.5 0.8-0.6 0.8-0.5 0.7 1.1 0.5-0.3 0.5-0.3 0.3-0.4 0.2-0.6 0.7 0.7-0.2 0.8-0.1 0.8 1.1 0.8-1.4 0.1 0.1 1 1.3 1.9-1.8 2-0.2 0.6 0.2 0.8 0.5 0.3 0.6 0.2 0.2 0.5 0.5 0 0.9 0.5 0.6 0.5-0.2 0.2-0.1 0.3 0.7 0.7 1.6 1.1 3 0.9 3.2 0.6 3.3 0 3.1-0.5 10.6-3.3 7.2-3.1 2.4-1.6 1.5-1.7 0.1-0.6z" id="VEN31" name="Zulia" data-id="VEN31" data-name="Zulia">
 </path>
 <path d="M412.9 444.4l-0.1 2.1 0.3 1 0.2 0.3 1.8 5.3 0.2 1.3-0.1 0.7-1.1 0.1-0.6 0.4-2.7 2.5-0.6 0.4-1.7 0.8-0.9 0.2-0.9-0.1-1-0.6-0.3 0-0.7 0.3-1.1 1-0.9 0.9-0.3 0.6-0.2 0.5 0.3 1.2-0.4 0.6-1.1 0.6-0.4 0.3-0.6 0.5 0 0.3 0.8 0.5 0.3 1.2 0.2 0.4 0.6 0.3 0.5 0.5 0.1 0.5 0.7 2.2 0.2 1.3 0 3.2-0.1 2.1-0.4 1.5-1.2 2.4-0.1 0.7 0 0.5 0.1 0.4 2.4 3.2 2.7 5.9 1.3 7.3-0.1 0.9-0.8 2.6-0.7 1.6-2.1 3.7-0.4 0.6-0.2 0.2-1 0.6-0.3 0.2-0.7 0.8-0.8 0.4-0.4 0.4-0.6 0.7-0.2 0.5-0.2 0.8-0.6 3.3-1.1 1.6-1.5 6.1-0.1 1 0.1 0.5 0.4 0.8 0.1 0.7 0.2 2.1 0.3 1.4 0 1-0.9 2.3-0.1 0.7-0.1 0.6 0.3 0.8 0.6 0.7 0.3 0.7 0.2 0.7-0.2 0.8-0.4 0.2-0.8 0.2-0.2 0.1-0.6 0.8-0.9-0.4-0.5-0.3-0.5-0.8-0.1-0.6-0.3-0.7-0.5-0.4-0.7-0.3-1.1-0.1-0.4-0.1-3.9-1.6-1.4-0.4-1.5 0-0.5 0-1.2 0.3-0.7 0.3-0.6 0.1-0.9 0-4-0.4-0.9 0-1.6 0.3-1.7-0.4-1.8-0.7-0.9-0.1-0.7 0-0.3 0.2-0.6 0.4-0.4 0.3-0.7 0.1-0.5-0.1-0.7-0.4-1-0.2-2.6 0.1-1 0-5.2-1.7-4.3-2.5-1.2-1-0.5-0.9-0.6-0.7-0.5-0.3-0.7-0.3-0.3-0.2-0.1-0.4-0.1-1.1-0.2-0.8-0.7-1.2-0.4-0.6-0.4-0.4-0.7-0.3-0.4-0.2-1.1-0.2-0.7-0.3-0.1-0.3 0.1-0.2 0.8-0.3 2.9-0.6 0.7-0.3 0.7-0.2 0.8 0.6 0.3 0.1 0.3-0.1 0.9-0.6 0.8-0.3 0.5-0.5 0.4-0.7 0.5-0.5 0.6-0.2 1.4-0.2 0.6-0.5 0-0.4-0.1-0.3-0.6-0.4-0.7-0.4-0.8-0.2-0.4-0.3-1.3-1.3-1.1-2.6-0.1-1 0.1-0.7 0.3-1.2 1.2-4.5 1.7-11 0.2-1.6-0.1-1.8-0.4-1.4-1.2-1.6-1.1-1-1.4-1-1.6-1-2.5-1.7-2.4-2.1-1.6-1.5-0.8-0.8-1.2-1.1-1.6-1.3-1.8-0.5-1.3-0.4-0.7-0.6-1.1-3.8-0.9-0.5-0.4-0.9-0.3-1.3-0.1-2.2-0.6-1.2-1.6-2.8-0.7-2.8-1.3-2.5-0.4-1.7-0.2-0.5-0.9-0.9-0.3-0.5 0-0.7 0.9-2.3-0.1-1 0-1.6 0.3-4 6.8 0.5 1.9-0.2 0.3-0.2 0.3-0.6 0.2-0.5 0.5-1.1 1.2-1.3 0.2-0.6 0.2-0.8 0.1-0.7 0.3-1.3 0.3-0.6 0.4-0.3 0.8-0.2 3.2-0.3 0.5 0 1.2 0.4 1.4-0.3 0.5 0 0.9 0.1 0.5-0.1 0.9-0.2 0.6-0.3 0.4-0.4 0.4-0.8 0.3-0.6 0.7-0.8 0.5-0.2 0.5-0.1 2.4 0.1 0.6 0.4 0.2 0.3 0 0.5-0.4 1.1-0.1 0.4 0 0.9 0.3 0.7 0.2 0.3 0.5 0.6 0.3 0.2 0.8 0.3 1.6 0.4 0.6 0.4 0 0.3-0.1 0.2-0.9 0.6-0.1 0.3 0.2 0.3 0.8 0.3 0.5 0 0.5 0 0.9-0.3 1.2-0.7 6-4.5 2.6-1.5 2.3-1 0.8-0.7 0.8-2.2 1.1-2.1 1.3-0.9 2-2.6 0.5-0.6 0.7-0.3 0.3 0.2 0.2 0.3 0.2 0.3 0.5 2 0.4 0.7 1 1.5-2.8 1.9-0.7 1.1 0 0.6 0.1 0.5 0.2 0.6 0.6 0.9 0.9 1.1 0.9 0.7 5.3 3.5 0.3 0.3 0.7 0.7 0.7 0.5 0.7 0.3 1.1 1 1.2 1.2 0.6 0.4 0.5 0.2 1.5-1.1 1.5-0.5 1.6-0.9 0.6-0.1 0.4 0.2 0.2 0.3 0 0.3-0.2 0.3-0.8 0.8-0.2 0.8 0.4 0.8 0.7 0.6 0.8 0.2 3 0.7 4.2 0.3 0.9-0.1 2.6-0.4 3.2-0.1z" id="VEN32" name="Cojedes" data-id="VEN32" data-name="Cojedes">
 </path>
 <path d="M406.9 397l-0.2 0.8-0.2 1.1 0 2.9 0.1 1.3 1 1.7 3.1 2.6 0.3 0.1 0.8 0 0.6-0.4 0.9-0.6 0.6-0.4 0.8-0.3 0.9 0 0.4 0.1 1.8 0.8 0.9 0.1 1.3-0.1 0.8 0.1 0.6 0.4 0.3 0.3 0.9 1.1 0.2 0.4 0 0.7-0.2 1.2-0.3 0.7-0.2 0.5-0.4 0.7-0.1 0.4 0 0.7 1.1 9.3-0.1 1-0.3 0.6-0.6 0.7-1.2 0.9-0.2 0.3-0.1 0.5 0.1 1.1-0.2 1.3 0.2 0.3 0.5 0 1.4-0.9 5.4 2.3 0.7 0.1 0.9-0.1 1 0.6 1.4 3.2 0.6 2.4-0.2 0.9-0.3 0.1-0.3-0.1-0.7-0.8-0.4-0.2-0.4 0-0.7 0.3-0.4 0.3-0.2 0.4-0.1 0.4-0.5 1.3-0.6 1.3-0.5 0.5-0.4 0.1-0.7-0.8-0.7-0.2-0.7 0.2-1.3 0.7-2.3 1.1-0.7 0.2-0.6 0-0.4-0.1-0.3-0.3-0.1-0.3 0.1-0.4 0.5-1.4 0-0.3-0.2-0.2-0.4-0.2-1.3-0.2-0.7-0.4-0.7-0.8-0.8-1.2-0.2-0.2-1-0.4-0.9-0.3-0.6 0-0.4 0.1-0.6 0.4-0.5 0.6 0.5 3.4 0.4 1.5 1 1.9-3.2 0.1-2.6 0.4-0.9 0.1-4.2-0.3-3-0.7-0.8-0.2-0.7-0.6-0.4-0.8 0.2-0.8 0.8-0.8 0.2-0.3 0-0.3-0.2-0.3-0.4-0.2-0.6 0.1-1.6 0.9-1.5 0.5-1.5 1.1-0.5-0.2-0.6-0.4-1.2-1.2-1.1-1-0.7-0.3-0.7-0.5-0.7-0.7-0.3-0.3-5.3-3.5-0.9-0.7-0.9-1.1-0.6-0.9-0.2-0.6-0.1-0.5 0-0.6 0.7-1.1 2.8-1.9-1-1.5-0.4-0.7-0.5-2-0.2-0.3-0.2-0.3-0.3-0.2-0.7 0.3-0.5 0.6-2 2.6-1.3 0.9-1.1 2.1-0.8 2.2-0.8 0.7-2.3 1-1.5-1.3-0.4-0.8-0.3-1.7-0.2-1-0.3-0.6-0.4-0.4-0.2-0.5 0-0.4 0.2-1.4-0.8-5.6 0.1-0.7 0.2-0.4 2.6-3.5 1-1.1 0.6-0.8-2.3-7.3 0.3-10.1 0.3-1.3 0.6-1.5 0.5-0.9 0.6-0.5 0.7-0.3 0.8 0 0.4 0.2 1.3 0.7 0.3 0.1 0.4 0 1.3-0.7 0.7-0.7 2-2.7 0.2 0 0.7 1.2 2.4 3.1 2.8 2.5 3.1 1.2 9.1-0.1 1.3 0.3 1.7 0.8 1.7 0.6 1.3-0.3 1-0.5 1.3-0.3 0.9 0.1 0.5 0.2 0.3 0.6 0 0.6z" id="VEN33" name="Carabobo" data-id="VEN33" data-name="Carabobo">
 </path>
 <path d="M332.2 382.1l0.1 1-0.1 1.9-0.2 0.4-0.3 0.7-0.6 0.6-3.5 2.5-1.2 0.6-0.9 0.3-1.5-0.4-0.6-0.1-1.1 0.4-0.4 0.4-0.4 0.8-0.9 2.9-0.2 1.2-0.2 0.4-0.3 0.4-1 0.3-0.2 0.6-0.2 1.7 0.1 0.6 0.2 0.4 0.6 0.4 0.5 0.1 0.4 0 1-0.5 0.3-0.1 0.2 0.2 0.1 0.5-0.5 3.7 0.1 0.8 0.2 0.9 1.1 3.7 0 2.6-0.1 0.9-1 0.5-0.7 0.8-0.3 0.1-0.4-0.1-0.5-0.1-0.9 0-0.7 0.2-3.1 2-0.3 0.4-0.3 0.4-0.1 0.9-0.2 0.8-0.6 1.1-0.4 0.6-0.8 0.7-0.5 0.7-0.3 0.1-0.7-0.1-0.5-0.4-1.3-2-1.4-0.9-0.6 0.4-0.4 0.6-0.3 0.6-0.1 0.6 0.1 1 0.2 0.3 0.5 1.1 1.2 1.8 0.6 0.9 2.4 2.3 1.7 2.2 0.6 1 0.1 0.9-0.2 3.3 0.1 0.8 0.3 0.7 0.5 0.6 1 1 0.4 0.6 0.2 0.7 0.3 0.5 0.3 0.2 0.5 0 0.5-0.2 0.4-0.5 0.4-1.1 0.2-0.6 0-0.6-0.2-1.9 0-0.8 0.1-0.4 1.4-1.2 5.4-2.7 1.5 0.7 0.5 1.4 1.4 2.7 0.5 0.5 0.2 0.3-0.1 0.3-2 2.1-0.7 1-1.1 2.4-0.3 4 0 1.6-2.4 2.5-0.3 0.1-1.9 0.6-0.4 0.3-0.2 0.5 0 0.4-0.4 0.6-0.7 0.4-4.3 1.3-3.6 0.4-2.8-0.1-0.8-0.3-0.6-0.3-0.7-0.5-1.2-1.2-0.5-0.7-0.3-0.6 0.1-0.5 0.1-0.9 0.3-0.7 0.1-0.4-0.1-0.9-0.4-1.6-0.2-2.7-0.2-0.3-0.5 0-0.4 0.3-0.5 0.6-1.5 2.9-1.9 1.8-1.7 5.4-0.4 1.4-0.9 1.5-1.8 1.3-2 0.7-3.9 0.2-3.6 0.4-4.4 0.4-0.9 0.9-0.7 0.9-0.9 1.9 0.3 1.8 0.4 1.2 0 0.4 0.1 0.9-0.1 0.4-1 2.5-0.1 0.7 0.1 0.5 0.2 0.7 0.1 0.5-0.1 0.9-1.2 0.9-4.7 1.4-1-0.7-0.2-0.8 0-0.5-0.1-0.4-0.2-0.2-0.4-0.1-0.4 0.2-0.8 0.5-1 0.4-6.5 0.4-0.5 0-0.6-0.2-0.4-0.5-0.1-0.4 0.1-0.4 1-2.2 0.6-0.9 0.5-0.5 1.3-1.8 2.6-2.5 0.2-0.8-0.1-0.7-0.3-0.3-0.5-0.1-0.8 0.1-1-0.1-0.8-0.2-0.4-0.1-0.7 0.2-2.3 0.9-0.8 0.1-0.5 0-1.1-1.1-0.9-0.6-0.6 0.2-0.6 0.6-4.7 4.9-0.2 0.5-0.3 0.7-0.4 2.3-0.3 0.9-0.7 0.7-1.9-4.3-0.3-0.4-0.4-0.3-2.3-0.9-0.7-0.6-0.6-1.7-1.3-4.4 0-0.9 0.1-0.5 0.2-0.5 0.9-0.8 2.5-1.7 0.7-0.6 0.4-0.2 0.4 0 1.2 0.3 0.4 0 0.7-0.3 1.1-1 0.2-0.3 0.1-0.3-0.2-0.7-0.4-0.8-0.9-0.9-2.8-2-0.4-0.7-0.6-0.9-0.6-0.4-1.2-0.3-2.7-0.1-0.5-0.1-0.5-0.2-0.5-0.5-1.8-2.6-0.4-0.4-0.9-0.9-0.6-0.2-0.7 0.5-0.2 0.3-1.3 0.7-0.7-0.6-0.6-0.9-1.1-2-2.5-0.6-1.1-0.4-0.4-0.6-0.7-1.8-0.6-0.5-1-0.1-2.7 0.4-0.7 0.4-1.3 0.8-1.1 0.7-0.7 0-1.7-1-1.5-1.1-1.4-0.3-1-0.8-1.3-2.5-1-1.3 0-0.7-0.1-1.5-0.2-0.8-1-0.5-1 0-1.1 0.4-1.1 0.6-1.1 1.5-1.8 3.6 0.1 3.8-1.5-0.3-1.1-0.6-3.6-2.5-2.1-0.8-2.4-1.7-2.3-2.6-1.2-1.9-0.3-2 0.7-2.2 1.7-1.6 7.3-4.5 1.1-1 0.5-0.8 0.4-1 0.4-1.5 0.7-1.7 0.6-1.3 0.8-1.3 0.5-0.6 0.5-0.7 1-1 1.8-1.1 1.6-0.7 1.6-0.4 1.4-0.2 1.1-0.3 0.4-0.5 0.4-0.8 0.6-1.1 1.2-2.9 0.6-1 1.6-1.2 1.4-0.6 1.1-0.3 1.6-0.6 0.9-0.9 0.6-1.1 0.5-0.7 1-0.7 2-0.9 0.6-0.4 0.6-0.9 0.5-0.3 1.3-0.2 1.7-0.1 2.6 0.6 1.2-1.1 0.1-0.4 0.4-0.5 0.5-0.5 1.2-0.7 1.1-0.7 0.9-1.8 0.4-0.6 0.5-0.5 0.3-0.2 0.6-0.1 0.7-0.1 2 0.1 3.6 0.8 0.5 0 0.7-0.2 1.1-0.6 1.1-0.7 2.2-1.1 1.4-1 0.5-0.1 1 0 1.1 0.3 0.5 0 0.5-0.1 0.6-0.3 0.6-0.2 1.4 0.2 0.7-0.1 0.6-0.2 1-0.7 0.9-0.8 0.5-0.5 0.8-0.5 0.5 0 0.4 0.1 0.4 0.7-1.2 0.9-0.1 0.2 0.1 0.3 0.9 0.2 0.6-0.1 0.8-0.1 3.2-1.1 2.8-1.3 3.3-2.3 0.7 0 0.9 0.1 3.8 1.1 3.9 0.5 1.2 0.7 0.5 0.7 0.4 1.6 0.2 0.3 0.6 0.2 0.7 0 3.3-0.9 0.9-0.3 0.4-0.1 10.5 0.9 1.2 0.4 0.5 0 1.3-0.3 0.6 0 7.9 1.3 3.1 0.1 1.9-0.5 1.8-0.7 0.4 0 0.8 0.2 2.7 0 1.7-0.3 2.5 0 1.1 0.5 0.7 0.6 1 1.7z" id="VEN34" name="Lara" data-id="VEN34" data-name="Lara">
 </path>
 <path d="M325.2 447.7l0.1 1-0.9 2.3 0 0.7 0.3 0.5 0.9 0.9 0.2 0.5 0.4 1.7 1.3 2.5 0.7 2.8 1.6 2.8 0.6 1.2 0.1 2.2 0.3 1.3 0.4 0.9 0.9 0.5 1.1 3.8 0.7 0.6 1.3 0.4 1.8 0.5 1.6 1.3 1.2 1.1 0.8 0.8 1.6 1.5 2.4 2.1 2.5 1.7 1.6 1 1.4 1 1.1 1 1.2 1.6 0.4 1.4 0.1 1.8-0.2 1.6-1.7 11-1.2 4.5-0.3 1.2-0.1 0.7 0.1 1 1.1 2.6 1.3 1.3 0.4 0.3 0.8 0.2 0.7 0.4 0.6 0.4 0.1 0.3 0 0.4-0.6 0.5-1.4 0.2-0.6 0.2-0.5 0.5-0.4 0.7-0.5 0.5-0.8 0.3-0.9 0.6-0.3 0.1-0.3-0.1-0.8-0.6-0.7 0.2-0.7 0.3-2.9 0.6-0.8 0.3-0.1 0.2 0.1 0.3 0.7 0.3 1.1 0.2 0.4 0.2 0.7 0.3 0.4 0.4 0.4 0.6 0.7 1.2 0.2 0.8 0.1 1.1 0.1 0.4 0.3 0.2 0.7 0.3 0.5 0.3 0.6 0.7 0.5 0.9 1.2 1 4.3 2.5 0 1-0.1 1.3-0.4 1.3-0.2 1.3-0.6 2.5-0.9 2.7-3.8 5.7-1.8 2.2-3.9 2.1-3.7 2.5-0.4 0.4-0.3 0.6-1.6 4.4-1.1 4.3 0.1 0.6 0.7 2.7 0.1 0.8-0.3 1.4-0.5 0.5-0.6 0.4-0.4 0.1-0.9 0.1-0.9-0.2-0.6-0.5-0.2-0.6-0.3-0.9-0.2-0.4-0.5-0.4-3.4-1.8-0.4-0.3-0.5-0.4-1.6-2.3-0.8-1.3-0.4-0.4-2.8-2-3.4-1.7-0.7-0.6-0.7-1-2.8-3-0.6-0.9-0.3-0.7 0.1-0.4 0.2-0.9 0.3-0.7 0.6-0.9 0.5-0.5 0.3-0.7-0.1-0.3-0.4-0.2-0.7-0.2-1.7 0-0.4-0.1-0.3-0.2-0.4-1-0.2-0.6-0.1-0.4 0.1-0.9-0.1-0.8-0.3-0.7-1.4-2.2-0.3-0.2-3.9-3.3-0.5-0.5-0.8-1.3-1.2-2.8-0.4-0.3-0.6-0.3-1.4-0.2-4.7-0.3-0.8-0.3-0.4-0.2-2.4-0.1-1.2-0.2-1.4-0.4-5.2-2.5-2.7-2.2-2.1-1-1.1-2-0.4-0.3-0.8 0.3-0.5 0.3-0.6 0.6-0.9 0.7-1.7 1.5-0.6 0.4-0.9 0.2-1.6-0.3-1.6-1.2-1.7-0.5-1.8 0.2-1.3-0.1-0.4-0.2-6.5-2.8-7.1-4.3-0.9-0.8-1.8-2.5-9.7-7.5-0.7-1.2 1.1-0.5 0.8-0.2 0.5-0.1 1.9-0.1 0.4-0.3 0.4-0.5 0.5-2.2 0.2-0.7 1.1-1.1 0.6-1.1 1.3-3.3 0.2-6.9-0.4-1.2-1.2 0.8-0.8 0.2-0.4-0.1-0.6-0.3-0.4-0.1-0.9 0-0.7-0.2-0.2-0.3-0.1-0.4 0.1-0.6 0.4-0.6 1.8-2 1.5-2.6 1.2-1.3 0.4-0.2 0.7-1.3 1.6-4.2 0.7-0.7 0.3-0.9 0.4-2.3 0.3-0.7 0.2-0.5 4.7-4.9 0.6-0.6 0.6-0.2 0.9 0.6 1.1 1.1 0.5 0 0.8-0.1 2.3-0.9 0.7-0.2 0.4 0.1 0.8 0.2 1 0.1 0.8-0.1 0.5 0.1 0.3 0.3 0.1 0.7-0.2 0.8-2.6 2.5-1.3 1.8-0.5 0.5-0.6 0.9-1 2.2-0.1 0.4 0.1 0.4 0.4 0.5 0.6 0.2 0.5 0 6.5-0.4 1-0.4 0.8-0.5 0.4-0.2 0.4 0.1 0.2 0.2 0.1 0.4 0 0.5 0.2 0.8 1 0.7 4.7-1.4 1.2-0.9 0.1-0.9-0.1-0.5-0.2-0.7-0.1-0.5 0.1-0.7 1-2.5 0.1-0.4-0.1-0.9 0-0.4-0.4-1.2-0.3-1.8 0.9-1.9 0.7-0.9 0.9-0.9 4.4-0.4 3.6-0.4 3.9-0.2 2-0.7 1.8-1.3 0.9-1.5 0.4-1.4 1.7-5.4 1.9-1.8 1.5-2.9 0.5-0.6 0.4-0.3 0.5 0 0.2 0.3 0.2 2.7 0.4 1.6 0.1 0.9-0.1 0.4-0.3 0.7-0.1 0.9-0.1 0.5 0.3 0.6 0.5 0.7 1.2 1.2 0.7 0.5 0.6 0.3 0.8 0.3 2.8 0.1 3.6-0.4 4.3-1.3 0.7-0.4 0.4-0.6 0-0.4 0.2-0.5 0.4-0.3 1.9-0.6 0.3-0.1 2.4-2.5z" id="VEN35" name="Portuguesa" data-id="VEN35" data-name="Portuguesa">
 </path>
 <path d="M377.2 384l1.6 3-0.2 0-2 2.7-0.7 0.7-1.3 0.7-0.4 0-0.3-0.1-1.3-0.7-0.4-0.2-0.8 0-0.7 0.3-0.6 0.5-0.5 0.9-0.6 1.5-0.3 1.3-0.3 10.1 2.3 7.3-0.6 0.8-1 1.1-2.6 3.5-0.2 0.4-0.1 0.7 0.8 5.6-0.2 1.4 0 0.4 0.2 0.5 0.4 0.4 0.3 0.6 0.2 1 0.3 1.7 0.4 0.8 1.5 1.3-2.6 1.5-6 4.5-1.2 0.7-0.9 0.3-0.5 0-0.5 0-0.8-0.3-0.2-0.3 0.1-0.3 0.9-0.6 0.1-0.2 0-0.3-0.6-0.4-1.6-0.4-0.8-0.3-0.3-0.2-0.5-0.6-0.2-0.3-0.3-0.7 0-0.9 0.1-0.4 0.4-1.1 0-0.5-0.2-0.3-0.6-0.4-2.4-0.1-0.5 0.1-0.5 0.2-0.7 0.8-0.3 0.6-0.4 0.8-0.4 0.4-0.6 0.3-0.9 0.2-0.5 0.1-0.9-0.1-0.5 0-1.4 0.3-1.2-0.4-0.5 0-3.2 0.3-0.8 0.2-0.4 0.3-0.3 0.6-0.3 1.3-0.1 0.7-0.2 0.8-0.2 0.6-1.2 1.3-0.5 1.1-0.2 0.5-0.3 0.6-0.3 0.2-1.9 0.2-6.8-0.5 1.1-2.4 0.7-1 2-2.1 0.1-0.3-0.2-0.3-0.5-0.5-1.4-2.7-0.5-1.4-1.5-0.7-5.4 2.7-1.4 1.2-0.1 0.4 0 0.8 0.2 1.9 0 0.6-0.2 0.6-0.4 1.1-0.4 0.5-0.5 0.2-0.5 0-0.3-0.2-0.3-0.5-0.2-0.7-0.4-0.6-1-1-0.5-0.6-0.3-0.7-0.1-0.8 0.2-3.3-0.1-0.9-0.6-1-1.7-2.2-2.4-2.3-0.6-0.9-1.2-1.8-0.5-1.1-0.2-0.3-0.1-1 0.1-0.6 0.3-0.6 0.4-0.6 0.6-0.4 1.4 0.9 1.3 2 0.5 0.4 0.7 0.1 0.3-0.1 0.5-0.7 0.8-0.7 0.4-0.6 0.6-1.1 0.2-0.8 0.1-0.9 0.3-0.4 0.3-0.4 3.1-2 0.7-0.2 0.9 0 0.5 0.1 0.4 0.1 0.3-0.1 0.7-0.8 1-0.5 0.1-0.9 0-2.6-1.1-3.7-0.2-0.9-0.1-0.8 0.5-3.7-0.1-0.5-0.2-0.2-0.3 0.1-1 0.5-0.4 0-0.5-0.1-0.6-0.4-0.2-0.4-0.1-0.6 0.2-1.7 0.2-0.6 1-0.3 0.3-0.4 0.2-0.4 0.2-1.2 0.9-2.9 0.4-0.8 0.4-0.4 1.1-0.4 0.6 0.1 1.5 0.4 0.9-0.3 1.2-0.6 3.5-2.5 0.6-0.6 0.3-0.7 0.2-0.4 0.1-1.9-0.1-1 4.4-1.3 1.2-0.7 0.5-0.6 0.8-1.4 0.4-0.5 0.7-0.7 0.6-0.2 0.4 0 0.8 0.3 0.4 0.2 0.9-0.1 0.8-0.4 1.2-0.3 2.9 0 1 0.3 1.6-0.1 1.4 0.4 1.3 0.6 0 1.3 0.4 1.8 5.2 3 18.1 0.3z" id="VEN36" name="Yaracuy" data-id="VEN36" data-name="Yaracuy">
 </path>
 <path d="M643.7 861l-0.9-1.5-2.9-2.7-3.4-1.7-3.3 0.2-1 1-0.6 1.4-0.2 1.6 0.2 1.5 0.9 1.6 1.3 0.8 1.5 0.6 1.5 0.9 1.1 1.2 0.6 1.3 0.9 3 3.3 6.3 1.4 1.8 3.5 2.7 1.5 1.6 3.2 4.5 7.1 5.5 3 1.7 3.4 1.3 1.8 1 4.3 5.3 3.2 2.7 1.4 1.6 0.5 1.8 0 2.7-0.2 1.3-0.5 1.4-2 2.6-0.7 1.4-0.3 1.7 1.9 9.3 0.3 3.1-0.7 6.3 0.2 3.1 1.3 2.5 2.3 2.8 2.7 4.7 2.3 3 5.6 11 1.3 3.9 0.8 1.4 0.3 0.8-0.1 0.6-0.4 2-0.3 4.2-0.3 1.4-2.8 5.1-0.6 1.7 0.1 1.7 0.7 1.2 1.1 0.6 1.6-0.3 4.3 0.5 8.9 2.4 4.7-0.1 4.6-0.6 9.6 0.2 4.7 0.8 9.2 0.3 1.5 0.5 0.3 1-0.8 2.5-0.1 1.2 0.2 5-0.2 1.1-2 4.6-0.3 1.1 0.1 1.4-0.7 1.5-2.3 0.9-4.9 1-0.8 0-2.1-0.3-0.9 0.1-4.1 1.9-10.7 8.5-1.5 0.8-1.4 0.2-8.7-0.2-2.8 0.3-2.6 0.9-3.1 2.3-1.3 2.4-0.4 6.4-1.2 4.6 0.3 4.4-0.3 1.4-0.4 1.4-0.8 1.8-1.3 1.8-1.5 1.5-3.4 2-4.1 3.9-5.1 3.7-1.5 1.7-1.4 2.9-0.9 1.4-1.2 0.5-1.5-0.8-0.3-1.7 0.2-1.8 0.5-1.4 1.5-3 0-1.5-1.6-0.9-1.7 0.2-1.8 1-3 2.2-3.9 2-1.7 1.2-1.4 1.8-1.6 3.3-0.9 1.4-9.3 6.2-1.5 0.3-1.5-0.3-3.7-1.7-1.3 0-1.2 0.9-1.6 1.7-1.5 1.1-1.3 0.4-1.3 0.1-1.7 0.5-0.8 0.4-2.4 2.2-0.3 0.1-0.7 0.3-0.3 0.2-0.2 0.4-0.1 1-0.1 0.3-2.7 0.6-3-0.3-2.7 0.7-1.7 3.4-0.6 6.2-0.8 3-1.8 2.3-1.4 0.7-1.5 0.1-3-0.5-1.9 0.1-1.3 0.6-4.5 5.5-0.8 1.4-0.7 1.8-0.1 0.6 0.1 2.1-0.4 1-1.3 1.5-1.4 2.3-1.6 1.3-1.8 1-1.6 0.6-1.7 0.1-1.3-0.5-1-1-0.9-1.6-0.1-3.5 1.8-2.9 2.2-2.8 1.2-3.4-0.1-1.7-0.5-1.7-0.8-1.4-1.8-2.2-0.8-0.8-0.9-0.7-0.9-0.4-0.9-0.1-1.5 0.2-5.4-0.1-1.4 0.1-1.8 0.6-3 1.8-6.3 3-1.5 1-1.6 1.5-2.9 3.5-1.5 1.5-1.5 0.9-1.5 0.4-3.2 0.2-1.6 0.7-2.3 2.6-1.7 0.8-1.6-0.2-1.3-0.7-1.1-0.9-1.5-0.6-1.4 0.1-4.2 1.2-4.5-1-4.5-3.1-4.4-4.1-8.6-7.6-5.7-5.2-15.7-14.1-1.5-3.1-0.4-1.8 1.4-2.7-0.1-1.7-0.6-1.9-0.7-1.4-0.8-0.8-0.8-0.7-0.7-0.7-0.3-1.1 0.5-3-0.3-1.6-0.7-1.6-1.5-2.6-0.8-1.6-0.2-1.4 0-3.3-0.3-1.6-6.3-16.8-1.3-2.5-0.2-0.8-0.3-0.5-1.4-1-0.5-0.9-0.6-0.6-0.5-0.8-0.2-0.9 1.2-1.5 0.3-0.6 0.3-1.3-0.3-4-0.5-1.1-1.1-0.6-1.3-0.4-1.1-0.7-0.6-0.9-1.2-3.2-0.6-2.3-1.1-2.8-0.1-1.3 0.9-1 1.4-1.3 1-1.5-0.5-1.5-0.4-0.7 0-1.4-0.3-0.7-0.6-0.6-2.5-1.5-2.6-0.8-0.6-0.4-1.4-1.4-0.8-0.6-0.8-0.2-0.7-0.4-0.4-0.9-0.3-1-0.4-0.8-0.7-0.5-1.6-0.9-0.7-0.6-0.5-0.7-0.4-0.9-0.5-0.6-0.9-0.3-0.3-0.3-1.2-1.4-0.2-0.6-0.3-0.5-1.6-0.7-0.7-0.5-0.3-0.6-0.4-1.4-0.3-0.6-1.1-1-1.4-0.4-3.3-0.1-0.9-0.7-0.4-1.6-0.4-3.3-0.5-1.3-1.1-1.7-1.3-1.1-1.4 0.4-1.5 0.5-1.8-0.3-3-1.5-0.8-0.9-0.7-0.3-1.4 0.7-0.8 0.1-1.6-0.1-1.5 0.4-0.7 0.9-0.6 1-1.1 0.9 0.1-5.1 1.2-2 1.8-1.7 15.8-14.6 3.1-2.9 3.2-3 4.5-4.2 0.9-0.4 1.6-0.3 0.7-0.3 0.9-0.6 4.5-5.6 1.9-3.1 0.3-3.1-2.4-2.5-2.8-1.1-1-0.7-1.1-1.5-4.9-12.9-2.1-2.8-2.8-1.3-1.5 0.1-1.3 0.3-1.4-0.1-1.4-0.7-1.3-1.5-0.5-1.8-0.4-3.6-0.7-1.8-3-5.1-0.3-1.6-0.2-4.6-0.7-1.7-0.5-0.3 0.2-1.3-0.4-1.3-0.8-0.9-0.7-2.4-1.4-1.4-1.3-1.1-0.7-1.5-0.3-2.3-0.6-2.3-0.4-2.4 0.3-2.8 1.4-2.4 0.1-0.9-0.2-0.9-1-1.7-0.3-0.9 0.2-0.6 0.4-1-0.1-0.6-0.3-0.5-0.9-0.3-0.3-0.3-0.6-2.6-0.5-0.9-1.4-1 0 0.5-0.6-0.5-0.7-0.6-0.4-0.7-0.3-0.8 0.1-1 0.5-0.5 0.5-0.4 0.4-0.6 0.1-0.7-0.1-2.3 0.4-2 0.3-4.1 0.3-1.6 0.8-1.2 0.6-1.2 0.1-3.2 0.5-1.4-0.3-0.7 0.1-0.4 0.2-0.5 0-0.9-0.2-0.5-0.6-1.3-0.2-0.5 0.1-1.7 0.5-2.9 0.9-2.8 0.2-1.4-0.2-3.3 0.2-0.4 0.3-0.4 0.4-0.5 0.1-0.8-0.2-0.5-1.4-1.5-0.4-0.7-0.3-0.7-0.1-0.8-0.1-0.7 0-0.9 0.2-0.9 0.7-1.7 0.1-0.7-0.1-1.7-0.2-1.3-0.5-1.1-0.7-1.2-0.7-2.8 0.7-3.1 1.8-3 2.7-2.2 0.4-0.1 0.8 0.1 0.4 0 0.3-0.4 0.8-0.8 0.4-0.3 2.1-0.9 0.6-0.4 1.4-1.5 0.8-0.6 0.9-0.2 0.4-0.4 0.8-2.7 0.4-0.5 0.5-0.5 0.5-0.6 0.2-0.9-0.3-0.3-1.1-1.1-0.2-0.3-0.1-1.5-0.9-4.3 0-3.4 0.6-3.2 1.2-2.9 1.7-2.7 4.4-4.2 0.7-1.1 3.5-3.8 1-0.7 2.7-1.1 0.9-0.8 0.3-1.2-0.2-1.7-0.6-1.5-1.9-1.4-2.7-4.2 0-2.9 0.3-1 0.8-0.9 1.5-1.1 2.3 1.7 0.6 0.8 0.8 1.8 0.2 0.3 0.5 0.5 0.9 0.4 0.7 0 0.5-0.1 0.4-0.1 0.6-0.5 1-1 0.7-0.3 0.4 0.1 0.5 0.3 1.3 1.3 0.9 0.5 1 0.3 1.2 0.2 1 0 2.3-0.3 0.9 0 0.5 0.1 0.4 0.1 0.4 0.3 0.5 0.5 0.6 1.2 0.3 0.7 1.1 4.8 0.1 1 0.3 1.6 0 3-0.1 0.9-0.2 0.8-3.9 9.5-0.4 2.7 0.1 0.9 0.1 0.8 0.4 0.7 0.3 0.3 0.6 0.2 1.2 0.1 0.6 0 0.5-0.1 1.2-0.4 1.6-0.4 1.8-0.1 0.6 0.1 0.6 0.3 0.9 0.6 0.7 0.8 0.3 0.8 0.5 2.4 0.2 0.8 0.4 0.6 0.5 0.5 0.4 0.2 0.5 0.2 1.2 0.1 0.5 0 1.2-0.3 0.4-0.1 1.4-0.6 5.1-2.9 0.7-0.3 4.2-1.4 0.8-0.1 8.2-0.2 1.6-0.4 2.9-1.1 2.4-0.5 3.5-1.3 0.7-0.3 0.6-0.4 5.1-5.1 8.9-7.4 0.3-0.2 0.4 0 0.6 0.2 0.7 0.5 1 1.2 0.4 0.7 0.2 0.6 1.6 7.4 0.2 0.7 1.3 2.2 0.7 0.6 0.8 0.2 0.9 0 1.9-0.7 1.3-0.7 0.9-0.6 1.1-1 0.9-0.6 0.7-0.3 0.8-0.1 5.8 0.4 0.8-0.2 2.5-1 0.6-0.4 0.7-0.9 0.4-1.1 0.3-1.8 0.3-0.7 0.4-0.6 7.2-12.3 1.2-3 0.5-1 0.3-0.8 0.4-0.6 3.2-2 0.8-0.2 0.8-0.1 4.9-0.1 2.6-0.3 1.9-0.1 0.9 0.3 0.5 0.2 1.3 0.9 0.5 0.6 0.3 0.6 0.2 0.5 0.1 0.7 0.1 1.2-0.1 1.2-0.3 0.9-0.1 0.8 0 0.8-0.4 1.1-0.2 1.1-0.3 0.7-0.6 3.6-0.4 0.7-0.6 0.9-0.5 1.1-0.6 2.6-0.2 1.2 0.2 4.8 0.2 0.8 1.8 4.7 0.3 0.5 0.3 0.4 0.8 0.7 0.6 0.3 0.5 0.1 0.9 0 0.8-0.2 1-0.6 2.5-2.4 1.6-2 0.8-0.7 0.8-0.3 1.7-0.3 12.6 0.1 1.8 0.4 0.4 0.1 0.6 0.4 0.3 0.3 0.1 0.5 0.1 0.6-0.2 1.2-0.2 0.6-0.5 0.7-2 2-0.2 0.3-0.1 0.5 0 0.7 0.4 1.3 0.5 1.1 0.8 1.2 1 1 6.2 4.6 0.2 0.3 0.4 0.6 0.1 0.3 0.1 0.6-0.1 0.8-0.4 1.5-0.3 0.7-0.4 0.4-1.9 1.2-0.5 0.5-0.1 0.3 0 0.5 0.3 0.6 0.3 0.3 3.5 2.7 0.5 0.5 0.2 0.3 0.1 0.6-0.1 0.8-0.5 1.6-0.3 0.8-0.3 0.5-0.2 0.3-0.8 0.8-0.9 0.5-1.5 0.6-0.4 0-4.4-0.2-0.9 0.2-0.7 0.3-0.6 0.4-0.5 0.5-0.3 0.7-0.2 0.8 0.1 0.8 0.3 0.9 1.4 2.6 0.4 0.5 1.1 1 0.7 0.8 0.8 1.2 2.8 10.6 2.7 6.4 2.5 4 0.5 1.1 0.7 1.3 0.9 2 10.5 12.9 0.7 0.3 7.7 1.7 6.6 0.3 2.7 0.5 0.7 0.3 0.9 0.6 0.2 0.3 0.7 0.9 0.6 1.2 0.7 3.4 1.1 9.7 0.5 1.9 0.1 0.7-0.2 3.1-0.9 4.7-0.5 1.2z" id="VEN38" name="Amazonas" data-id="VEN38" data-name="Amazonas">
 </path>
 <path d="M965.7 586.3l-0.2 0.2-3.6 2.5-1.6 1.4-0.6 1.8-1.8 1.3-3.2 0.3-6.3-0.1-1.6 0.6-1 0.9-1.5 2.8-1.6 2-0.4 0.7-0.1 0.6 0.3 1.4 0 0.8-1.2 2 0.2 1.1-0.3 1-0.6 0.5-1.1-0.2-0.5 0.4-0.7 1-1.1 1.9-1.1 1.4-3.3 1.1-1.1 1.9 0.1 1.2 0.4 1 1.7 3.2 1 0.3 1 0.3 1 0.7 0.3 0.5 0 0.4-0.1 1.1 0.3 0.8 0.6 0.3 0.7 0.3 0.5 0.4 0.5 0.9 0.9 2.1 0.6 1 0.1 0.6 0 0.6-0.1 0.6-0.4 0.5-1.8 1.6-0.9 2 0.1 2.2 1 2.2 0.8 0.8 5.2 4.1 0.9 0 1.6-3 1.2-1.1 1.6-0.6 1.9 0 0.9 0.4 0.8 0.5 0.8 0.4 1 0 1.2-0.2 1 0.1 0.9 0.5 0.9 1 2.5 1.5 1 0.8 0.6 1.2 0 1.2-0.3 1.4-0.6 1.2-0.7 1-1 0.9-1.3 0.8-1.1 0.9-0.6 1.3-0.7 3.6-1.2-0.7-2 0.5-9.4 5.8-5.3 1.3-1.4 0.6-1.2 1-2.1 3-1.1 1.2-1.6 0.6-1.1-0.4-2.7-1.7-1.5-0.4-0.9 0.1-1.6 0.4-0.7 0-0.9-0.2-0.7-0.5-0.5-0.5-0.5-0.4-1.6-0.4-1-0.1-0.4 0.3 0.2 0.8 0.7 1 0.1 0.7 0 0.6-0.1 0.3-2 2.2-0.4 0.3-1.5 0.2-3.4-0.4-1.3 1-1.6-0.5-1.6-0.2-0.6 1.3-1.4-0.4-1.6-0.1-1.4 0.2-0.7 0.9-2.3 2.7-1.5 2.6-1 2.7-0.6 2.6 0.2 1.5 0.7 0.7 1 0.6 1.2 1 0.5 1.2 0.7 2.2 0.8 1.1 0.3 0.6 0 0.6 0 0.6-0.1 0.6-0.7 0.9-0.4 1-0.4 3.6 0.1 0.8 0.6 2.1 0.3 0.7 1.3 0.8 0.4 0.5 0.2 0.5 0.5 0.4 0.1 0.7-0.3 2.8-0.1 1-0.2 1.2-0.8 0.2-1.1-0.1-1 0.2-1 0.8-0.8 1.9-0.7 1-0.9 0.5-1.2 0.4-2.4 0.5-1 0.5-0.6 1-1 2.4-3.4 5.5-1.1 0.9-2.5 1.3-0.7 0.8 1.2 3 8 8.8 5.5 6.2 16.7 18.5 11.2 12.4 5.7 6.1 2.1 0.3 1.9 0.7 1.5 1.3 4.8 12.9 0.5 3.4-1.5 3.7-5 6.1-2.8 2.4-3.3 2.2-7.1 3.1-0.6 0.1-1.4 0-0.6 0.2-0.6 0.7-2 4.6-0.7 3.2-0.5 1.5-2.2 2.8-2.5 1.3-6.2 0.8-4.1 1.1-1.3 0.1-1.2-0.2-2.6-1.3-1.3-0.3-4.3-0.6-1.4 0.2-0.5 0.9 2 2.9 0.2 1.6-1.1 1-1.9 0.7-1.9 0.4-1.6 0.1-4.2-0.3-1.5 0.2-3.2 1.3-1 2-0.5 5.6-0.3 0.9-0.5 0.9-0.6 0.8-0.8 0.6-1.1 0.5-0.7-0.1-0.6-0.3-1-0.1-0.8 0.2-1.4 0.6-0.9 0.2-0.6-0.1-2.3-0.7-2.8-0.2-1.4 0.2-1.4 0.4-1.7 1-3.8 4.2-1.1 0.8-1.5 0.6-1.6 0.5-1.4 0.3-1.7 0-1.4-0.4-1.4-0.6-1.6-0.5-3.3 0.5-5.6 4.1-3.1 1-2.8-0.3-14.1-5.8-3.3-0.7-2.5 0.6-0.3 0.5-0.2 1.2-0.4 0.6-0.6 0.3-2.3 0.5-1.7 0.6-0.7 0.8-0.1 1.2 0 1.5-0.9 2.9-2.1 0.5-6-0.9-4.2 0.4-1.2 0.3-1.6 1-0.3 1.1 0.2 1.4 0.1 1.6-0.5 1.8-0.7 1.5-0.5 1.5 0.3 2 0.4 0.8 0.4 0.5 0.3 0.5 0.2 1.9 1.3 2.9 0.7 3 0 3.1-0.7 2.9-1.6 2.8-1.1 1.4-0.7 0.5-0.9 0-1-0.1-0.7 0.3-1.5 1.3-1.5 0.8-1.3 0.4-1.3 0-1.7-0.2-1.5-0.5-1.8-1-1.6-1.1-1-1.2-1-1.7-7.8-9.2-4.6-3.2-4.3-5.9-2.5-2.6-4.9-2.8-2.9-0.9-2.5 0.2-1.7 2.2-0.5 2.8-1 2.5-3 0.9-3.2-1.5-5.1-4.4-3.6-0.8-1.4 0.1-4 1-1.9 0.2-1.4-0.4-3-1.2-3.2 0-3.1 1.5-2.9 2-3 1.6-3-0.1-1.9-2.2-1.1-3-1.3-5.3-0.9-2.5-1.2-2.2-1.6-1.6-1.9-1-5-1.4-9.1-0.7-16.6 2.4-1.3-0.5-1-1.5-1.1-3.3-0.9-1.2 0.5-1.2 0.9-4.7 0.2-3.1-0.1-0.7-0.5-1.9-1.1-9.7-0.7-3.4-0.6-1.2-0.7-0.9-0.2-0.3-0.9-0.6-0.7-0.3-2.7-0.5-6.6-0.3-7.7-1.7-0.7-0.3-10.5-12.9-0.9-2-0.7-1.3-0.5-1.1-2.5-4-2.7-6.4-2.8-10.6-0.8-1.2-0.7-0.8-1.1-1-0.4-0.5-1.4-2.6-0.3-0.9-0.1-0.8 0.2-0.8 0.3-0.7 0.5-0.5 0.6-0.4 0.7-0.3 0.9-0.2 4.4 0.2 0.4 0 1.5-0.6 0.9-0.5 0.8-0.8 0.2-0.3 0.3-0.5 0.3-0.8 0.5-1.6 0.1-0.8-0.1-0.6-0.2-0.3-0.5-0.5-3.5-2.7-0.3-0.3-0.3-0.6 0-0.5 0.1-0.3 0.5-0.5 1.9-1.2 0.4-0.4 0.3-0.7 0.4-1.5 0.1-0.8-0.1-0.6-0.1-0.3-0.4-0.6-0.2-0.3-6.2-4.6-1-1-0.8-1.2-0.5-1.1-0.4-1.3 0-0.7 0.1-0.5 0.2-0.3 2-2 0.5-0.7 0.2-0.6 0.2-1.2-0.1-0.6-0.1-0.5-0.3-0.3-0.6-0.4-0.4-0.1-1.8-0.4-12.6-0.1-1.7 0.3-0.8 0.3-0.8 0.7-1.6 2-2.5 2.4-1 0.6-0.8 0.2-0.9 0-0.5-0.1-0.6-0.3-0.8-0.7-0.3-0.4-0.3-0.5-1.8-4.7-0.2-0.8-0.2-4.8 0.2-1.2 0.6-2.6 0.5-1.1 0.6-0.9 0.4-0.7 0.6-3.6 0.3-0.7 0.2-1.1 0.4-1.1 0-0.8 0.1-0.8 0.3-0.9 0.1-1.2-0.1-1.2-0.1-0.7-0.2-0.5-0.3-0.6-0.5-0.6-1.3-0.9-0.5-0.2-0.9-0.3-1.9 0.1-2.6 0.3-4.9 0.1-0.8 0.1-0.8 0.2-3.2 2-0.4 0.6-0.3 0.8-0.5 1-1.2 3-7.2 12.3-0.4 0.6-0.3 0.7-0.3 1.8-0.4 1.1-0.7 0.9-0.6 0.4-2.5 1-0.8 0.2-5.8-0.4-0.8 0.1-0.7 0.3-0.9 0.6-1.1 1-0.9 0.6-1.3 0.7-1.9 0.7-0.9 0-0.8-0.2-0.7-0.6-1.3-2.2-0.2-0.7-1.6-7.4-0.2-0.6-0.4-0.7-1-1.2-0.7-0.5-0.6-0.2-0.4 0-0.3 0.2-8.9 7.4-5.1 5.1-0.6 0.4-0.7 0.3-3.5 1.3-2.4 0.5-2.9 1.1-1.6 0.4-8.2 0.2-0.8 0.1-4.2 1.4-0.7 0.3-5.1 2.9-1.4 0.6-0.4 0.1-1.2 0.3-0.5 0-1.2-0.1-0.5-0.2-0.4-0.2-0.5-0.5-0.4-0.6-0.2-0.8-0.5-2.4-0.3-0.8-0.7-0.8-0.9-0.6-0.6-0.3-0.6-0.1-1.8 0.1-1.6 0.4-1.2 0.4-0.5 0.1-0.6 0-1.2-0.1-0.6-0.2-0.3-0.3-0.4-0.7-0.1-0.8-0.1-0.9 0.4-2.7 3.9-9.5 0.2-0.8 0.1-0.9 0-3-0.3-1.6-0.1-1-1.1-4.8-0.3-0.7-0.6-1.2-0.5-0.5-0.4-0.3-0.4-0.1-0.5-0.1-0.9 0-2.3 0.3-1 0-1.2-0.2-1-0.3-0.9-0.5-1.3-1.3-0.5-0.3-0.4-0.1-0.7 0.3-1 1-0.6 0.5-0.4 0.1-0.5 0.1-0.7 0-0.9-0.4-0.5-0.5-0.2-0.3-0.8-1.8-0.6-0.8-2.3-1.7 0.4-0.3 1.2-0.9 1-1.7 0.6-0.6 1-0.3 0.8 0 1.6 0.2 0.8-0.1 1.4-0.8 1-1.3 1.9-3.8 0.6-2.1 0.5-0.8 0.5-0.4 1.5-0.5 0.7-0.3 1.7-1.6 0.6-0.5 3.2-1.6 1.3-1 1.1-1.2 0.5-1.3-0.1-0.8-0.9-1.5-0.3-0.8 0-0.8 1.5-8.1 1.8-4.7 1.3-1.6 1.4-1.1 1.3-1.3 0.6-2-0.1-2.9-0.4-1.5-1-0.7 0.6-1.6 0.9-1.5 0.5-1.5-0.2-1.6-0.5-0.9-1.1-1.6-0.5-0.8-1.2-3.2-0.6-3.2 1.2-2.1 5.8-4.6 3.1-0.4 1.6-0.6 0.7-0.5 1.3-1.3 0.8-0.6 0.8-0.3 1.6-0.5 0.9-0.3 3.9-3.1 1.7-0.6 2.8-0.3 0.9-0.3 0.6-0.4 1-1.1 0.5-0.4 1.4-0.6 3-0.4 1.4-0.6 1.4-1.3 4.5-6.5 0.3-0.8 0.4-1.4 0.3-0.6 0.4-0.6 1.9-1.5 0.5-0.6 1.2-2.4 1-1.4 0.9-2 0.9-1.4 1.3-1.2 2.9-1.9 2-0.6 1 0 0.9 0 3.9 0.8 2.1 0.1 1.5-0.4 3-1.9 3.2-1.2 3.6 0 7.2 1 1.8-0.1 1.5-0.6 7.8-5.8 3.4-4.8 1.4-1.4 1.6-1 7.2-3.4 3.7-0.7 4.1 0.7 5.1 2.5 1.9 0.4 2 0 4.7-0.6 3.6-0.5 2.1 0.1 2 0.5 4.3 1.6 4.4 0.4 2.1 0.5 4.2 2.1 3.8 2.6 4.4 4.1 2 0.9 1.6 2 1 0.8 1.2 0.5 1.3-0.1 1.4-0.4 4.4-2.7 4.1-1.8 3.9-2.8 1.1-0.5 1.2-0.2 3.8 0.6 1.3 0 2-0.6 2.1-1.3 1.2-1.7-0.2-2.2-1.5-1.5-1.8-1.1-1.5-1.3-0.4-2.1 0.7-3.5 0.4-0.9 1-0.9 1.3-0.2 4.1 0.6 1.2-0.1 6-1.3 1-0.6 0.6-0.8 0.7-1.9 0.6-0.9 0.9-0.6 1.3-0.5 1.3-0.3 1.1 0.2 1.4 0.8 4.7 4.5 0.9 0.7 0.8 0.3 0.4 1.7 1 0.6 1.3-0.1 1.4-0.5 1.6-0.5 1.6 0.2 3.1 0.8 1.6 0 0.7-0.1 0.8-0.3 0.5-0.5 0.9-1.1 0.6-0.5 0.9-0.4 1.8-0.4 0.8-0.4 0.6-0.7 0.4-0.9 0.3-0.8 2.1-4.5 0.8-1 1.2-0.5 1.2 0.1 1.2 0.5 1.4 0.1 1.2-0.3 1.1-0.5 2.1-1.3 1.3-0.7 1.1-0.1 1.2 0.3 1.3 0.4 1.5 0.2 4.8-0.3 4.2 0.5 1.3-0.4 1.1-0.7 0.8-0.8 1.4-2.1 0.9-1 1.2-0.7 1.3-0.2 3.8 0.8 1.5-0.9 2.8-3.3 1.7-1.1 1.7-0.9 3.8-1.2 3.5-0.5 3.7 0 7.3 0.8 1.1 1.9 1.9 1 2.1 0.3 2.1-0.6 2.5-1.4 0.7-0.7 0.5-0.7 0.9-1.7 0.6-0.7 1.7-1.6 1.1-0.7 0.9-0.3 1 0 1.7 0.3 1-0.1 0.8-0.2 0.8-0.5 0.6-0.3 5.9-4.3 7.2 3.1 13.8 5.6 4.7 1.3 45 2-0.5 3.7-0.1 2.2 0.4 1.6 2.1 5 0.9 1.2 0.5 0.5 1.1 0.9 1.6 2.1 11.8 13.2 2.7 2.6 1.1 0.8 1.7 0.8 0.4 0 0.5-0.1 0.6-0.3 0.7-0.3 1.6-0.4 1.4-0.1 0.4-0.1 1.3-0.7 1.2-0.3 0.6-0.4 1-1 0.4-0.2 1.2-0.3 0.3-0.1 1.9-1.2 0.8-0.2 2 0 0.8-0.1 1.5-0.5 0.3-0.2 0.6-0.4 1.5-1.5 0.6-0.5 0.8-0.2 1.9-0.2 1.3 0 0.6 0.1 0.5 0.3 0.8 0.8 0.4 0.7 10.5 12.1 0.5 0.4 0.7-0.1 1-0.5 2.5-2.1 1.6-2 0.3-0.2 1.6-0.9 6.2-4.4 0.7-0.4 1.2-0.2 0.4-0.2 0.6-0.3 0.9-0.7 0.7-0.2 19.9-0.3z" id="VEN39" name="Bolívar" data-id="VEN39" data-name="Bolívar">
 </path>
 <path d="M652 412.6l1 1.2 0.5 1 1.4 0.6 3 1.1 0.7 0.5 0.5 0.8 0.1 0.5-0.1 1.5 0.2 0.7 0.4 0.3 0.4 0.2 0.9 0.2 0.5 0.4 0.3 0.3 0.2 0.4 0.4 0.4 0.6 0.4 2.1 1.1 0.8 0.2 1-0.1 1.4-0.5 0.6 0.1 0.7 0.2 2.1 1.3 0.6 0.4 0.9 0.4 2.4-0.2 4.5-0.5 4.2-1.3 2.7-1.3 1.1-1 0.5-0.1 0.9 0.1 3.4 1 0.9 0.5 1.3 1.9-0.5 0.4-2 1-0.3 0.1-0.5 0-0.9-0.1-0.4-0.1-1.8 0.2-0.8 0.2-0.6 0.4-0.4 0.7 0 5.7 0.1 0.6 0.4 0.6 0.9 1 0.6 0.3 0.5 0.1 1.6-0.4 0.6 0 0.6 0.3 0.2 0.3-0.3 0.8 0 0.3 0.5 0.4 0.5 0.2 1.3 0.3 0.7 0.4 0.3 0.2 1.5 1.6 0.2 0.4 0.1 0.4-0.1 0.7-0.3 0.3-0.9 0.3-0.3 0.1-0.2 0.3-0.1 0.5 0.1 1.6-0.1 0.6-0.2 0.4-0.8 1.2-0.3 0.7-0.1 0.5 0.1 0.4 0.2 0.5 0.5 0.6 0.2 0.5 0.1 0.9-0.1 0.5 0.7 1.5 7.1 11.3-0.4 0.7-0.4 0.6-8.1 8.7-0.1 0.4 0.1 2.7-0.4 3.8 0.3 0.7 0.6 0.9 2.9 2.8 0.4 1 0.5 3.1 0.2 0.3 0.2 0.2 0.6 0 0.8-0.2 2.4-1.2 0.9-0.6 0.4 0 0.6 0.1 0.8 0.3 0.6 0.1 0.4-0.1 0.4-0.1 1-0.6 0.8-0.2 0.8 0.4 5.9 3.7 1.1 0.6 1.1 0.1 0.9 0.2 0.3 0.2 0.5 0.3 0.4 0.5 0.7 1 0.7 1.5 0.4 0.3 0.6 0.3 1 0.3 1.4 0.7 3.4 2.4 0.4 0.4 0.6 0.9 0.6 0.6 1.1 0.8 1.9 0.9 1 0.5 1.2 0.4 1 1.4 2.4 5.3 2.3 8.1 0.2 0.5 0.8 0.5 0.9 0.4 0.4 0.3 0.6 0.7 0.8 0.1 1.5 0.1 21.6-1.5 1.9 0.1 0.4 0.9-0.4 0.7-0.4 0.5-0.6 0.4-0.7 0.3-0.9-0.2-1.5-0.5-0.4-0.1-0.7 0.3-0.3 0.2-0.3 0.7-0.3 0.8-1.7 2.3-0.1 0.4 0.3 5.2 0.3 1.4 0.6 1.4 1.5 1.6 1.2 1 1.2 0.6 18 5.9 0.2 0.4-0.6 1.3-0.1 0.9 0.2 0.5 0.4 0.4 2.8 1.3 0.7 0.7 0.6 1-0.8 0.5-0.8 0.2-1 0.1-1.7-0.3-1 0-0.9 0.3-1.1 0.7-1.7 1.6-0.6 0.7-0.9 1.7-0.5 0.7-0.7 0.7-2.5 1.4-2.1 0.6-2.1-0.3-1.9-1-1.1-1.9-7.3-0.8-3.7 0-3.5 0.5-3.8 1.2-1.7 0.9-1.7 1.1-2.8 3.3-1.5 0.9-3.8-0.8-1.3 0.2-1.2 0.7-0.9 1-1.4 2.1-0.8 0.8-1.1 0.7-1.3 0.4-4.2-0.5-4.8 0.3-1.5-0.2-1.3-0.4-1.2-0.3-1.1 0.1-1.3 0.7-2.1 1.3-1.1 0.5-1.2 0.3-1.4-0.1-1.2-0.5-1.2-0.1-1.2 0.5-0.8 1-2.1 4.5-0.3 0.8-0.4 0.9-0.6 0.7-0.8 0.4-1.8 0.4-0.9 0.4-0.6 0.5-0.9 1.1-0.5 0.5-0.8 0.3-0.7 0.1-1.6 0-3.1-0.8-1.6-0.2-1.6 0.5-1.4 0.5-1.3 0.1-1-0.6-0.4-1.7-0.8-0.3-0.9-0.7-4.7-4.5-1.4-0.8-1.1-0.2-1.3 0.3-1.3 0.5-0.9 0.6-0.6 0.9-0.7 1.9-0.6 0.8-1 0.6-6 1.3-1.2 0.1-4.1-0.6-1.3 0.2-1 0.9-0.4 0.9-0.7 3.5 0.4 2.1 1.5 1.3 1.8 1.1 1.5 1.5 0.2 2.2-1.2 1.7-2.1 1.3-2 0.6-1.3 0-3.8-0.6-1.2 0.2-1.1 0.5-3.9 2.8-4.1 1.8-4.4 2.7-1.4 0.4-1.3 0.1-1.2-0.5-1-0.8-1.6-2-2-0.9-4.4-4.1-3.8-2.6-4.2-2.1-2.1-0.5-4.4-0.4-4.3-1.6-2-0.5-2.1-0.1-3.6 0.5-0.2-0.7-0.6-1.5-0.3-0.4-0.5-0.5-0.8-0.7-0.8-0.3-0.9-0.1-1.9-0.1-1.8 0.1-1 0-0.6-0.4-0.3-0.2-0.3-0.7-0.2-0.8-0.1-0.9 0-1 0.1-0.9 0.4-1.2 0.6-1.2 1.1-1.1 1.1-0.8 0.6-0.5 3.5-4.2 1-2.4 0.3-1.4 0.5-0.9 0.4-0.6 4.6-4.8 0.7-0.9 1.9-3.5 0.5-0.7 3.3-2.8 0.7-1 1.7-4.4 0.4-2.7 0.2-0.9 0.9-1.7 0.9-4.3 0.1-0.9-0.1-0.9 0-1.3-0.2-0.9-1.1-1.9-0.1-0.3-0.1-0.9 0.2-0.9 0.2-1.9 0.3-0.8 0.3-0.5 0.6-1.3 0.3-0.5 0.5-0.5 0.5-0.3 1.9-0.4 1.1-0.4 0.3-0.2 0.5-0.1 0.6 0.1 0.8 0.3 1 0.5 1.1 0.3 1.7 0.2 5.2-0.4 1.1-0.4 0.9-0.1 0.5 0.1 0.9 0.1 1.2 0.4 0.9 0.1 0.4-0.2 0.4-0.6 0.5-1.6 0.1-0.8 0-0.6-0.6-1.5 0.1-0.6 0.4-0.7 0.9-1.2 1.2-1.2 2-1.2-1.1-2.2-0.3-0.5-0.4-0.4-0.8-0.5-0.8-0.5-0.8-0.8-1.5-1.7-1.3-1.2-1-0.6-2.5-0.7-0.3-0.2-0.2-0.4-0.2-0.8 0-2.2-0.2-1-0.3-0.7-0.3-1-0.3-0.5-0.5-0.5-1-1-0.6-0.4-0.5-0.3-2.1-0.6-0.6-0.4-2-2.1-0.5-0.5-0.7-0.3-0.9-0.2-4.7 0.2-0.4-0.1-0.7-0.3-0.7-0.6-1.3-2-1-1-1.2-1-0.6-0.8-0.5-0.9-0.5-0.3-0.8-0.4-0.3-0.3-0.2-0.4-0.2-0.6-0.1-2-0.3-0.7-0.8-1.1-0.3-0.9-0.1-0.8 0-0.9 0.6-0.7 0.6-0.6 3.7-1.8 0.5-0.6 0.4-0.6 0.2-0.8 0-0.5-0.1-1.3 0-0.9 0-0.4-0.3-0.7-0.2-0.3-0.5-0.5-0.8-0.4-1.2-0.4-2.7-0.5-3.6-1-1.4-0.6-1.4-0.7-0.6-0.5-0.7-0.8-3.2-5.9-0.5 0.4-0.4 0.4-3.4 5.3-15.1-8.3-0.4-0.4-0.1-0.2 0-0.5 0.2-0.5 1.7-2.1 0.4-0.9 0.4-2.4-0.8-1.9-1.6-2.3-0.4-1.2-0.1-2 0.6-6 2-1.7 0.7-0.3 0.6 0.1 0.7 0.5 0.2 0.1 0.4-0.1 0.9-0.9 0.6-0.4 0.7-0.4 2-0.6 1-0.2 0.6-0.3 0.6-0.4 1.8-1.9 0.8-0.6 1.7-0.5 1-0.7 0.8-0.6 1.1-0.5 0.7-1.2 1-3.6 8.5 1.6 10.3 1.9 3 1.6 2.7 0.7 0.9 0.3 0 0.5-5.6-1.8-1.4-0.3 0.6 1.1 1.3 0.8 1.6 0.5 3.2 0.3 0.8-0.1 0.7-0.2 1.2-0.7 2.2-0.5 2.7-1.6 1.3-0.6 1.4-0.2 4.1 0.7 5.4 0.4 2.8-0.4 2.1-1.2 0.8-1.1 0.6-1.1 0.9-2.7 0-1.2-0.4-1.9 0.4-1.1 0.6 0.7 0.7 0.4 0.8 0.1 0.9-0.1-0.6 0.7-0.3 0.2-0.6 0.1 0.8 1.1 1.3-0.1 0.7-0.7-0.8-0.8 0.9-0.6 1.9-2.5 1-0.2 2.1-0.7 1.2-0.1-0.2 0.5-0.3 0.5 1-0.2 0.5-0.3 0.5 0.9 0.4-0.1 0.5-0.5 0.3-0.1z" id="VEN40" name="Anzoátegui" data-id="VEN40" data-name="Anzoátegui">
 </path>
 <path d="M454.7 400.3l2.1 3.5 0.6 0.4 0.6 0.7-0.2 0.4-0.6 0.5-0.1 0.4-0.2 0.8 0 0.5 0.2 0.6 0.6 0.6 0.8 0.6 2.3 0.9 0.6 0.3 1 0.7 0.4 0.5 0.1 0.9-0.7 4.3-0.2 0.3-0.6 1-0.3 0.7-0.1 0.4 0 0.6 0.1 0.7 1 2.5 0.6 0.8 1.7 1.4 3.4 2.2 1-0.5 0.6-0.4 0.6-0.5 0.6-0.2 0.7-0.1 0.7 0.1 0.4 0.2 1.1 0.9 0.4 0.6 0.1 0.3 0.7 1 0.7 0.6 0.3 0.6 0.3 0.4 0.5 0.2 1-0.1 1.5 0.4 0.8 0.5 1-0.1 2.2-0.9 1-0.2 2.2 0.2 1.3 0.3 0.8 0.6 0.1 0.2 0.4 0.3 0.6 0.2 2.2 0.1 0.6-0.1 0.5 0 0.5 0.2 0.7 0.5 1.5 0.7 3.9 0.5 2.1 10.5 0.1 1-0.1 1-0.2 0.8-0.3 0.7-0.6 0.4-0.7 0.3-0.7 0.4-0.3 0.7-0.1 0.9 0.2 1.6 0.3 1 0.4 0.8 0.5 0.5 0.6 0.5 1.9 1.1 0.6 0.6 0.6 0.8 0.7 1.2 0.1 0.8 0 0.9-0.5 1.5-1.3 3-0.3 0.8-0.2 0.9-0.1 1.1 0.4 0.9 0.5 0.7 0.5 0.9 0 0.6-0.1 0.8-1.3 3.8-0.3 0.6-0.4 0.2-0.6 0.3-0.7 0.1-1.5 0.1-4.1-0.1-0.5-0.1-0.6-0.2-2.2-1.3-1.3-0.6-1.5-0.3-2.8-0.4-0.7-0.1-1.5-0.7-1.4-0.8-0.7-0.2-1.7-0.2-5.8 0.2-2.2 0.3-0.5 0-0.3-0.5 0.3-0.9 0.4-0.9 0.5-1.3 0.4-0.6 1.9-1.1 1.5-0.5 2.2-0.3 0.7-0.3 0.5-0.6 0.8-1.1 1.4-2.8 0.2-0.9-0.2-2.1 0.1-1.6-0.2-0.9-0.5-0.2-0.6 0-0.8 0.1-0.9 0.1-0.9-0.2-1.2-0.8-0.4-0.2-1.3-0.2-1.8-3.4-0.9-1-0.8-0.2-1.3-0.1-0.9-0.2-0.4-0.3-0.4-0.5-0.2-0.4-0.4-0.6-0.4-0.3-0.5-0.1-1.1-0.1-2.1-0.9-0.4-1.1-0.6-0.7-1.5-1.3-0.5-0.7-0.3-0.5-1.6-3.6-0.4-0.5-0.6-0.6-2.2-0.3-1 0-1 0.5-1.2 0.3-0.7 0.2-0.3-0.1-0.9-1.2-0.4-0.2-1.9 0-2.1 0.3-1.5-0.7-4.9-3.8-0.4 0.1-0.7 0-1.4 0.7-5.3 1.9-1.4-3.2-1-0.6-0.9 0.1-0.7-0.1-5.4-2.3-1.4 0.9-0.5 0-0.2-0.3 0.2-1.3-0.1-1.1 0.1-0.5 0.2-0.3 1.2-0.9 0.6-0.7 0.3-0.6 0.1-1-1.1-9.3 0-0.7 0.1-0.4 0.4-0.7 0.2-0.5 0.3-0.7 0.2-1.2 0-0.7-0.2-0.4-0.9-1.1-0.3-0.3-0.6-0.4-0.8-0.1-1.3 0.1-0.9-0.1-1.8-0.8-0.4-0.1-0.9 0-0.8 0.3-0.6 0.4-0.9 0.6-0.6 0.4-0.8 0-0.3-0.1-3.1-2.6-1-1.7-0.1-1.3 0-2.9 0.2-1.1 0.2-0.8 0.1 0.3 0.2 0.4 0.6-0.6 0.5-0.7 0.2-0.4 2.2-1 3-0.6 9.7-0.8 6.3-1.6 6-0.5 6.3-0.6 0 0.3-0.8 1.4-0.1 0.3 0.2 0.4 0.5 0.3 0.5 0.7 0.1 0.3 0.9 1.7 0.3 0.9 1 0.9 1.1 3.5 0.2 0.3 0.7-0.7 0.2-0.4 1.4-0.5 1.4-0.8 0.3-0.1 0.6 0.2 0.3-0.1 1.1-0.1 1-0.1 0.4 0 0.3 0.3 1.1 0.7z" id="VEN41" name="Aragua" data-id="VEN41" data-name="Aragua">
 </path>
 <path d="M521.3 384.4l0.1 0.4 0.2 1.8 0.1 0.6-0.4 3.4 0.1 0.5-0.1 0.2-0.8 0.5-2.2-1.1-1 0.1-5.1 0.4-0.4 0-0.5-0.5-0.4 0-0.9 0.5-0.2-0.1-1.3-0.4-0.8-0.4-1.1-0.4-0.9-0.2-3.7-0.1-0.4 0-0.3 0.2-0.7 0.6-0.5 0.4-0.5-0.2-7.2 0.1-0.7-0.4-0.5-0.1-5.4 0.1-3.1 0.5-0.3-0.1-1.2-0.6-0.3 0-0.8 0.5-0.8-0.1-0.7-0.3-0.9-0.3-0.7-0.1-1 0.2-1.1 0.4-0.5 0-0.4-0.4-0.7-0.1-0.3-0.2-0.7-0.1-0.5-0.2-0.7-0.5-0.6-0.4-0.2 0-0.4 0.4-0.4 0.6-0.3 0.6 0.4 0.3 0.1 0.4-0.3 0.2-1.1 0.3-0.5 0.3-0.4 0.1-0.5 0.5-0.2 0.5 0 0.5 0.3 0.5-0.2 0.7 0 0.4 0.1 0.9-0.4 0.1-1.4 0.2-0.2 0.1-0.3 0.5-0.5 0.3-0.4 0.1-0.8-0.3-0.6 0.1-0.8 0.4-1.9 1.3-4.9 1.8-1.1-0.7-0.3-0.3-0.4 0-1 0.1-1.1 0.1-0.3 0.1-0.6-0.2-0.3 0.1-1.4 0.8-1.4 0.5-0.2 0.4-0.7 0.7-0.2-0.3-1.1-3.5-1-0.9-0.3-0.9-0.9-1.7-0.1-0.3-0.5-0.7-0.5-0.3-0.2-0.4 0.1-0.3 0.8-1.4 0-0.3 4.9-0.6 6 0.3 5.4-0.7 4.2-2.2 2.9-0.6 2.9-1.1 1.6-0.2 9.3 0.1 8.1-0.7 17.2-1.1 8.4 0.2 0.8 0.2 0.9 0.5 4 0.8 1.2 0 0.9-0.7 0.6-0.7z" id="VEN42" name="Vargas" data-id="VEN42" data-name="Vargas">
 </path>
 <path d="M480.1 390.6l1.5 2.4-0.2 0.7-0.9 1-0.9 0.8-0.5 1.2-0.7 3.6-2.2-0.4-1.2 0.1-0.9 0.2-0.6 0.2-1.4 0.8-1.8 0.7-0.7 0.1-0.9 0.1-1.6-0.1-1.7-0.5-3.4-1.5-1.8-0.5-0.5-0.3-0.1-0.7 1.9-1.3 0.8-0.4 0.6-0.1 0.8 0.3 0.4-0.1 0.5-0.3 0.3-0.5 0.2-0.1 1.4-0.2 0.4-0.1-0.1-0.9 0-0.4 0.2-0.7-0.3-0.5 0-0.5 0.2-0.5 0.5-0.5 0.4-0.1 0.5-0.3 1.1-0.3 0.3-0.2-0.1-0.4-0.4-0.3 0.3-0.6 0.4-0.6 0.4-0.4 0.2 0 0.6 0.4 0.7 0.5 0.5 0.2 0.7 0.1 0.3 0.2 0.7 0.1 0.4 0.4 0.5 0 1.1-0.4 1-0.2 0.7 0.1 0.9 0.3 0.7 0.3 0.8 0.1z" id="VEN43" name="Distrito Capital" data-id="VEN43" data-name="Distrito Capital">
 </path>
 <path d="M599.9 360l1.2 0.1 1.2 0 0.3 0.3-0.7 0.8 1.1 1.6-0.2 1-1.2 0.7-1.7 0.8 0.3-0.8 0.2-0.3-1.6 0.6-1.3 0.1-2.9-0.1-1.5-0.4-1.3-0.7-1.3-0.4-1.2 0.4-1.7-1.4 0.7-1.8 1.9-1.3 1.6-0.1 1.8-0.8 1.8 0.1 3.7 1.5 0.8 0.1z m-115-59.7l-1.4 0.4-1.7-0.1-0.3-0.3 1.6 0.1 1.1-0.1 0.6-0.1 4.4-1.9 1.1-0.4 0.5-0.1 0 0.2-3.4 1.4-0.4 0.3-2.1 0.6z m14.7-2.4l1.2 0 0.3 0-1.3 1.2-2.6 0.4-2.8-0.4-1.8-1.2 2.2 0.5 1.7-0.3 1.4-1.2 1.2-2.1 0.7 0.5 0.3 0.8 0 0.9-0.5 0.9z m36.8-3.2l0.4 0.5 0.1 1.4-0.9 1.5-2.2-0.1-2.3-1.2-1.4-1.5 1.1-0.4 1.2-0.1 2.2 0 1.8-0.1z m-51.9-3.6l5.9 0.3 1.3-0.1 0.3 0.2-1.8 0.2-0.3 0-1 0.2-1.2-0.2-0.7 0-0.5-0.2-2.3-0.2 0.3-0.2z m166.2 3.7l-0.7 0.6-3.1-0.1-1.8-0.3-1.4-0.7 0.3-0.7-0.3-0.8 1-0.8 1.2-2.1 0.8-0.7 1 0.5 2.3 1.8 0.5 0.8 0.3 1.3-0.1 1.2z m-226.7-11.7l-0.7 0.1-1.4-0.3-0.6-0.2-0.1-0.3 0.2-0.3 0.4 0.1 0.7 0.5 0.6 0.1 0.9 0.3z" id="VEN44" name="Dependencias Federales" data-id="VEN44" data-name="Dependencias Federales">
 </path>
 <path d="M566.7 434.9l-0.6 6 0.1 2 0.4 1.2 1.6 2.3 0.8 1.9-0.4 2.4-0.4 0.9-1.7 2.1-0.2 0.5 0 0.5 0.1 0.2 0.4 0.4 15.1 8.3 3.4-5.3 0.4-0.4 0.5-0.4 3.2 5.9 0.7 0.8 0.6 0.5 1.4 0.7 1.4 0.6 3.6 1 2.7 0.5 1.2 0.4 0.8 0.4 0.5 0.5 0.2 0.3 0.3 0.7 0 0.4 0 0.9 0.1 1.3 0 0.5-0.2 0.8-0.4 0.6-0.5 0.6-3.7 1.8-0.6 0.6-0.6 0.7 0 0.9 0.1 0.8 0.3 0.9 0.8 1.1 0.3 0.7 0.1 2 0.2 0.6 0.2 0.4 0.3 0.3 0.8 0.4 0.5 0.3 0.5 0.9 0.6 0.8 1.2 1 1 1 1.3 2 0.7 0.6 0.7 0.3 0.4 0.1 4.7-0.2 0.9 0.2 0.7 0.3 0.5 0.5 2 2.1 0.6 0.4 2.1 0.6 0.5 0.3 0.6 0.4 1 1 0.5 0.5 0.3 0.5 0.3 1 0.3 0.7 0.2 1 0 2.2 0.2 0.8 0.2 0.4 0.3 0.2 2.5 0.7 1 0.6 1.3 1.2 1.5 1.7 0.8 0.8 0.8 0.5 0.8 0.5 0.4 0.4 0.3 0.5 1.1 2.2-2 1.2-1.2 1.2-0.9 1.2-0.4 0.7-0.1 0.6 0.6 1.5 0 0.6-0.1 0.8-0.5 1.6-0.4 0.6-0.4 0.2-0.9-0.1-1.2-0.4-0.9-0.1-0.5-0.1-0.9 0.1-1.1 0.4-5.2 0.4-1.7-0.2-1.1-0.3-1-0.5-0.8-0.3-0.6-0.1-0.5 0.1-0.3 0.2-1.1 0.4-1.9 0.4-0.5 0.3-0.5 0.5-0.3 0.5-0.6 1.3-0.3 0.5-0.3 0.8-0.2 1.9-0.2 0.9 0.1 0.9 0.1 0.3 1.1 1.9 0.2 0.9 0 1.3 0.1 0.9-0.1 0.9-0.9 4.3-0.9 1.7-0.2 0.9-0.4 2.7-1.7 4.4-0.7 1-3.3 2.8-0.5 0.7-1.9 3.5-0.7 0.9-4.6 4.8-0.4 0.6-0.5 0.9-0.3 1.4-1 2.4-3.5 4.2-0.6 0.5-1.1 0.8-1.1 1.1-0.6 1.2-0.4 1.2-0.1 0.9 0 1 0.1 0.9 0.2 0.8 0.3 0.7 0.3 0.2 0.6 0.4 1 0 1.8-0.1 1.9 0.1 0.9 0.1 0.8 0.3 0.8 0.7 0.5 0.5 0.3 0.4 0.6 1.5 0.2 0.7-4.7 0.6-2 0-1.9-0.4-5.1-2.5-4.1-0.7-3.7 0.7-7.2 3.4-1.6 1-1.4 1.4-3.4 4.8-7.8 5.8-1.5 0.6-1.8 0.1-7.2-1-3.6 0-3.2 1.2-3 1.9-1.5 0.4-2.1-0.1-3.9-0.8-0.9 0 0.4-1.6 0-1.3-0.4-1.2-1.7-2.4-0.6-0.4-2.5 1-2.3-0.4-2.2-1-1.6-1 0.6-0.8-0.4-0.5-0.9-0.3-0.8-0.5-1.5-1.7-0.6-0.4-0.9 0.1-0.4 0.3 0.1 0.9-0.2 0.3-0.4 0.1-1.2-0.1-0.4 0-3.1 0.8-0.5 0.3-1.3-0.3-1.7 0.1-7.5 2.1-1.5 0.1-0.5-0.2-0.8-0.7-0.5-0.1-0.4 0.1-0.7 0.3-0.4 0.1-7.4-1.2-0.9-0.7-0.5-0.2-1.6 0.4-1.6 0.8-1.6 0.2-3-2.1-1.6 0.3-2.7 1.5-1.8 0.1-1.4-0.6-1.4-0.7-3.6-0.6-1.1-0.6-0.8-0.9-1.1-0.8-2.7-1-1.2-1-0.5-1.8-0.8-0.7-4.3-1.6-0.9 0-0.7 0.2-0.6 0.2-0.5 0.1-2.6 0-0.9-0.1-1.8-0.9-0.9 0-0.8 0.2-0.7-0.1-0.6-0.6 0.8-1.3-0.7-1.2 0.9-0.4 1-0.6 0.2-0.7-1.3-0.9-1.4 0.6-0.8-0.7-0.8-2.4-1.5-1.5-0.1-0.5 1.6 0.4 0-0.5-0.3-0.4-0.1-0.4 0.1-0.5 0.3-0.7-1-0.3-0.8-0.6-0.8-0.3-0.9 0.2-0.2-1.5-0.8-1.5-0.9-1.1-0.9-0.5-0.4-0.7-0.9-3.2-0.7-0.7-0.4-0.2-1.1-1.1-0.5-0.2-3.4 0-0.5 0-0.3-0.2-0.1-2.7-0.2-0.7-0.3-0.5-0.5 0-0.1 0.5-0.4 1-0.3-0.6-0.3-0.3-0.4-0.1-0.8 0-0.2-0.3 0.1-1.2-0.1-0.5-0.2-0.1-0.6-0.3-0.5-0.4 0-0.2-0.8-0.5-0.5 0.5-0.5 0 0.2-1.1 0.5-1 0.2-0.8-0.4-0.7-0.4 0-1 0.5-0.6 0-0.3-0.2-1.1-0.8-0.2-0.3-0.2-0.9-0.2-0.3-0.4 0-1 0.5-0.6-0.1-0.5-0.4-0.5-0.8-0.4-0.8-0.1-0.8-0.1-0.2-0.3-0.3-0.4-0.2-0.5 0-0.3-0.3 0.2-0.5 0.4-1-0.2-0.4-1.6-1.1-0.3-0.4-0.3-0.7-2.4-2.5 0.9 0.4 0.6-0.8 0.2-0.1 0.8-0.2 0.4-0.2 0.2-0.8-0.2-0.7-0.3-0.7-0.6-0.7-0.3-0.8 0.1-0.6 0.1-0.7 0.9-2.3 0-1-0.3-1.4-0.2-2.1-0.1-0.7-0.4-0.8-0.1-0.5 0.1-1 1.5-6.1 1.1-1.6 0.6-3.3 0.2-0.8 0.2-0.5 0.6-0.7 0.4-0.4 0.8-0.4 0.7-0.8 0.3-0.2 1-0.6 0.2-0.2 0.4-0.6 2.1-3.7 0.7-1.6 0.8-2.6 0.1-0.9-1.3-7.3-2.7-5.9-2.4-3.2-0.1-0.4 0-0.5 0.1-0.7 1.2-2.4 0.4-1.5 0.1-2.1 0-3.2-0.2-1.3-0.7-2.2-0.1-0.5-0.5-0.5-0.6-0.3-0.2-0.4-0.3-1.2-0.8-0.5 0-0.3 0.6-0.5 0.4-0.3 1.1-0.6 0.4-0.6-0.3-1.2 0.2-0.5 0.3-0.6 0.9-0.9 1.1-1 0.7-0.3 0.3 0 1 0.6 0.9 0.1 0.9-0.2 1.7-0.8 0.6-0.4 2.7-2.5 0.6-0.4 1.1-0.1 0.1-0.7-0.2-1.3-1.8-5.3-0.2-0.3-0.3-1 0.1-2.1-1-1.9-0.4-1.5-0.5-3.4 0.5-0.6 0.6-0.4 0.4-0.1 0.6 0 0.9 0.3 1 0.4 0.2 0.2 0.8 1.2 0.7 0.8 0.7 0.4 1.3 0.2 0.4 0.2 0.2 0.2 0 0.3-0.5 1.4-0.1 0.4 0.1 0.3 0.3 0.3 0.4 0.1 0.6 0 0.7-0.2 2.3-1.1 1.3-0.7 0.7-0.2 0.7 0.2 0.7 0.8 0.4-0.1 0.5-0.5 0.6-1.3 0.5-1.3 0.1-0.4 0.2-0.4 0.4-0.3 0.7-0.3 0.4 0 0.4 0.2 0.7 0.8 0.3 0.1 0.3-0.1 0.2-0.9-0.6-2.4 5.3-1.9 1.4-0.7 0.7 0 0.4-0.1 4.9 3.8 1.5 0.7 2.1-0.3 1.9 0 0.4 0.2 0.9 1.2 0.3 0.1 0.7-0.2 1.2-0.3 1-0.5 1 0 2.2 0.3 0.6 0.6 0.4 0.5 1.6 3.6 0.3 0.5 0.5 0.7 1.5 1.3 0.6 0.7 0.4 1.1 2.1 0.9 1.1 0.1 0.5 0.1 0.4 0.3 0.4 0.6 0.2 0.4 0.4 0.5 0.4 0.3 0.9 0.2 1.3 0.1 0.8 0.2 0.9 1 1.8 3.4 1.3 0.2 0.4 0.2 1.2 0.8 0.9 0.2 0.9-0.1 0.8-0.1 0.6 0 0.5 0.2 0.2 0.9-0.1 1.6 0.2 2.1-0.2 0.9-1.4 2.8-0.8 1.1-0.5 0.6-0.7 0.3-2.2 0.3-1.5 0.5-1.9 1.1-0.4 0.6-0.5 1.3-0.4 0.9-0.3 0.9 0.3 0.5 0.5 0 2.2-0.3 5.8-0.2 1.7 0.2 0.7 0.2 1.4 0.8 1.5 0.7 0.7 0.1 2.8 0.4 1.5 0.3 1.3 0.6 2.2 1.3 0.6 0.2 0.5 0.1 4.1 0.1 1.5-0.1 0.7-0.1 0.6-0.3 0.4-0.2 0.3-0.6 1.3-3.8 0.1-0.8 0-0.6-0.5-0.9-0.5-0.7-0.4-0.9 0.1-1.1 0.2-0.9 0.3-0.8 1.3-3 0.5-1.5 0-0.9-0.1-0.8-0.7-1.2-0.6-0.8-0.6-0.6-1.9-1.1-0.6-0.5-0.5-0.5-0.4-0.8-0.3-1-0.2-1.6 0.1-0.9 0.3-0.7 0.7-0.4 0.7-0.3 0.6-0.4 0.3-0.7 0.2-0.8 0.1-1-0.1-1-2.1-10.5 6.3-0.2 3-0.5 2.7-0.5 0.8-0.6 0.9-1.2 0.6-0.5 1.5-0.4 0.4-0.1 0.7 0.1 0.8 0.2 1.5 0.6 1 0.5 0.3 0.3 2.1 1.1 0.5 0.1 0.8 0.1 1.5 0 1.7 0.1 0.8 0.4 1.8 1.2 1.4 0.6 0.5 0 0.6-0.2 2.2-0.9 0.9-0.3 0.8 0.6 0.3 0.7 0.4 0.2 0.6 0 1.5-0.4 0.4-0.2 0.6-0.1 0.6 0 1.2 0.3 5.5 1.8 0.8-0.1 3.5-0.6 1.8-0.7 0.6-0.4 0.7-0.3 0.6 0 0.9 0 1.7 0.4 0.8 0.2 1.2 0.7 0.5 0 2 0.2 1.5-0.2 3.6-1.1z" id="VEN45" name="Guárico" data-id="VEN45" data-name="Guárico">
 </path>
 <path d="M814.9 441.7l-0.4 1.4-1-0.1-0.8-2-0.1-1.9 0.2-1.2 0.4-0.8 0.6 0.1 0.3 0.2 0.6 0.8 0.5 1.8-0.3 1.7z m-5.6-8.6l-0.9 0.4-0.9-0.8-0.5-1.3-0.6-2.4-0.1-1 0.7-0.2 0.9 1 0.9 2.2 0.4 0.2 0.5 0.7-0.4 1.2z m-45.4-8.9l0.3 0.3 1 1.1 1 0.7 0.5-0.3 0.3-0.7 0.7-0.4 0.7 0 0.3 0.6 0.3 3.7 0.6 1.6 1.1 0.1-0.8-1.1 0.1-0.9 0.3-0.9-0.4-1 0-0.4 0.3-0.7 0.4-0.6 0.6-0.1 0.3 0.5-0.3 1.2 0.2 0.6 1.2 0.7 1-0.3 1-0.5 1.1-0.1 0.9 0.5 0.7 0.8 0.9 0.6 1.6 0.1-0.9 1.9 0.6 0.6 1.2-0.5 0.6-1.2-0.8-2.5 0.2-1.4 1.5-0.4 0.5 0.3 1.3 1.3 0.8 0.4 0.9 0 3.9-0.9 1.8-1 1.5-1.3 0.9-1.4 0.1-1.7-1.2-3.2-0.3-1.5 0.5-2.1 1.2-0.5 1.7 0.5 1.6 0.8 3 2.2 1.6 2.4 1.9 6.2 0.6 1.3 0.8 1.1 0.6 1.2 0 1.5 0.9 1.5 0.3 1-0.3 1-0.9 1.6 1.4 0 1.1 0.6 0.8 1 1.5 2 3.9 7.4 0.4 1.3-0.1 1.2-0.4 1.1-0.1 1.1 0.1 0.2 0.1 1.3-0.9 1.1-1.3 1.1-1 1.2-0.5 2.3-0.3 0.7-3 3.2-1.5 2.4-0.5 1.2 0.2 1.2 0.9 0.9 1.3 0.7 1.3 0.5 0.3 1.6 0.1 1.6 0.3 1.5 0.9 1.4 3.3 2.1 0.7 1 0.1 0.8-0.2 1.8 0.3 3.6 0.2 0.7 0.1 1.5 0.2 0.2 0.3 0.7 0.1 0.4-0.1 1.4 0.1 0.9 0 0.5-0.3 0.7-0.5 1-0.3 0.8-0.2 0.6 0.1 0.6 0.3 0.2 0.4 0.2 3 0.1 0.3 0.1 0.5 0.6 0.4 1.1 0.5 0.4 1 0.6 0.6 0.5 0.6 0.8 0.6 0.4 0.6 0.1 0.6-0.2 0.8-0.4 1.6-1 0.6-0.3 0.5 0 0.2 0.3 0.5 2 0.3 0.6 0.5 0.2 0.7-0.2 1-0.7 1-0.3 1.2 0.3 0.4 0.1 0.9 0.2 0.2 0.6-0.1 0.8-0.6 1.4-1.5 2.8-0.4 1.5 0.2 1.7 0.9 1.7 0.6 0.8 0.6 0.5 0.9 0.3 1.7 0.1 0.9 0.3 0.1 0.7 0.1 1-0.1 0.7-0.4 0.6-3.4 3.5-0.4 0.7-0.2 0.6-0.2 3.2-0.4 1-0.9 0.7-2.7 1.2-1.8 0.4-2.5 1.7-0.3 0.3-1.6 2-2.3 3.9-1.1 0.2-4.1 0.1-0.9 0.3-0.9 0.5-0.4 0.3-0.5 1-0.7 0.8-0.7 0.6-0.9 0.5-4.2 1.9-1.1 0.2-0.9 0-2.8-0.7-1.1 0.1-0.8 0.4-0.2 1.1-0.9 0.1-1 0.5-0.7 0.7-2.1 2.3-0.3 0.2-5.9 4.3-0.6 0.3-0.6-1-0.7-0.7-2.8-1.3-0.4-0.4-0.2-0.5 0.1-0.9 0.6-1.3-0.2-0.4-18-5.9-1.2-0.6-1.2-1-1.5-1.6-0.6-1.4-0.3-1.4-0.3-5.2 0.1-0.4 1.7-2.3 0.3-0.8 0.3-0.7 0.3-0.2 0.7-0.3 0.4 0.1 1.5 0.5 0.9 0.2 0.7-0.3 0.6-0.4 0.4-0.5 0.4-0.7-0.4-0.9-1.9-0.1-21.6 1.5-1.5-0.1-0.8-0.1-0.6-0.7-0.4-0.3-0.9-0.4-0.8-0.5-0.2-0.5-2.3-8.1-2.4-5.3-1-1.4-1.2-0.4-1-0.5-1.9-0.9-1.1-0.8-0.6-0.6-0.6-0.9-0.4-0.4-3.4-2.4-1.4-0.7-1-0.3-0.6-0.3-0.4-0.3-0.7-1.5-0.7-1-0.4-0.5-0.5-0.3-0.3-0.2-0.9-0.2-1.1-0.1-1.1-0.6-5.9-3.7-0.8-0.4-0.8 0.2-1 0.6-0.4 0.1-0.4 0.1-0.6-0.1-0.8-0.3-0.6-0.1-0.4 0-0.9 0.6-2.4 1.2-0.8 0.2-0.6 0-0.2-0.2-0.2-0.3-0.5-3.1-0.4-1-2.9-2.8-0.6-0.9-0.3-0.7 0.4-3.8-0.1-2.7 0.1-0.4 8.1-8.7 0.4-0.6 0.4-0.7-7.1-11.3-0.7-1.5 0.1-0.5-0.1-0.9-0.2-0.5-0.5-0.6-0.2-0.5-0.1-0.4 0.1-0.5 0.3-0.7 0.8-1.2 0.2-0.4 0.1-0.6-0.1-1.6 0.1-0.5 0.2-0.3 0.3-0.1 0.9-0.3 0.3-0.3 0.1-0.7-0.1-0.4-0.2-0.4-1.5-1.6-0.3-0.2-0.7-0.4-1.3-0.3-0.5-0.2-0.5-0.4 0-0.3 0.3-0.8-0.2-0.3-0.6-0.3-0.6 0-1.6 0.4-0.5-0.1-0.6-0.3-0.9-1-0.4-0.6-0.1-0.6 0-5.7 0.4-0.7 0.6-0.4 0.8-0.2 1.8-0.2 0.4 0.1 0.9 0.1 0.5 0 0.3-0.1 2-1 0.5-0.4 1.1-0.2 7.9-2.3 1.9-0.9 2.5-3.7 0.9-0.9 1.1-0.9 0.7-0.3 0.6-0.1 1.6-0.1 3.3-0.7 2.4 0.2 1.8-0.3 1.9-0.6 1.3-0.2 0.5-0.4 0.1-0.4 0.2-1.4 0.2-0.8 0.7-0.9 0.6-0.5 1.8-1.2 1.7-0.6 0.9-0.2 0.6 0.2 0.2 0.2 0.7 0.9 0.3 0.3 0.6 0.3 1.7 0.5 0.3 0.2 0.1 0.3-0.2 0.7 0 0.4 0.2 0.3 0.3 0.2 0.7 0.2 0.7 0.6 0.6 0.2 2.2 0.1 0.5 0.2 0.2 0.2 0.3 0.8 0.2 0.3 0.3 0.2 3.8 0.4 0.5 0.4 0.5 0.6 0.3 0.3 0.6 0.1 1.2-0.1 0.5 0.1 0.6 0.3 0.1 0.5 0.6 0.9 0.8 0.2 0.5-0.1 0.4-0.2 0.5-0.5 0.5-0.5 1-0.8 2.9-1.7-0.2 1 0.2 0.7 0.3 0.4 0.5 0.5 0.4 0.2 0.4-0.1 0.6-0.5 0.4-0.1 0.7 0 0.3 0.3 0.3 0.4 0.4 1.2 0.1 0.4 0.2 1.5 0.5 1.5 0.3 0.5 0.7 0.5 1.2 0.7z" id="VEN46" name="Monagas" data-id="VEN46" data-name="Monagas">
 </path>
 <path d="M586.6 420.7l-1 3.6-0.7 1.2-1.1 0.5-0.8 0.6-1 0.7-1.7 0.5-0.8 0.6-1.8 1.9-0.6 0.4-0.6 0.3-1 0.2-2 0.6-0.7 0.4-0.6 0.4-0.9 0.9-0.4 0.1-0.2-0.1-0.7-0.5-0.6-0.1-0.7 0.3-2 1.7-3.6 1.1-1.5 0.2-2-0.2-0.5 0-1.2-0.7-0.8-0.2-1.7-0.4-0.9 0-0.6 0-0.7 0.3-0.6 0.4-1.8 0.7-3.5 0.6-0.8 0.1-5.5-1.8-1.2-0.3-0.6 0-0.6 0.1-0.4 0.2-1.5 0.4-0.6 0-0.4-0.2-0.3-0.7-0.8-0.6-0.9 0.3-2.2 0.9-0.6 0.2-0.5 0-1.4-0.6-1.8-1.2-0.8-0.4-1.7-0.1-1.5 0-0.8-0.1-0.5-0.1-2.1-1.1-0.3-0.3-1-0.5-1.5-0.6-0.8-0.2-0.7-0.1-0.4 0.1-1.5 0.4-0.6 0.5-0.9 1.2-0.8 0.6-2.7 0.5-3 0.5-6.3 0.2-3.9-0.5-1.5-0.7-0.7-0.5-0.5-0.2-0.5 0-0.6 0.1-2.2-0.1-0.6-0.2-0.4-0.3-0.1-0.2-0.8-0.6-1.3-0.3-2.2-0.2-1 0.2-2.2 0.9-1 0.1-0.8-0.5-1.5-0.4-1 0.1-0.5-0.2-0.3-0.4-0.3-0.6-0.7-0.6-0.7-1-0.1-0.3-0.4-0.6-1.1-0.9-0.4-0.2-0.7-0.1-0.7 0.1-0.6 0.2-0.6 0.5-0.6 0.4-1 0.5-3.4-2.2-1.7-1.4-0.6-0.8-1-2.5-0.1-0.7 0-0.6 0.1-0.4 0.3-0.7 0.6-1 0.2-0.3 0.7-4.3-0.1-0.9-0.4-0.5-1-0.7-0.6-0.3-2.3-0.9-0.8-0.6-0.6-0.6-0.2-0.6 0-0.5 0.2-0.8 0.1-0.4 0.6-0.5 0.2-0.4-0.6-0.7-0.6-0.4-2.1-3.5 4.9-1.8 0.1 0.7 0.5 0.3 1.8 0.5 3.4 1.5 1.7 0.5 1.6 0.1 0.9-0.1 0.7-0.1 1.8-0.7 1.4-0.8 0.6-0.2 0.9-0.2 1.2-0.1 2.2 0.4 0.7-3.6 0.5-1.2 0.9-0.8 0.9-1 0.2-0.7-1.5-2.4 0.8-0.5 0.3 0 1.2 0.6 0.3 0.1 3.1-0.5 5.4-0.1 0.5 0.1 0.7 0.4 7.2-0.1 0.5 0.2 0.5-0.4 0.7-0.6 0.3-0.2 0.4 0 3.7 0.1 0.9 0.2 1.1 0.4 0.8 0.4 1.3 0.4 0.2 0.1 0.9-0.5 0.4 0 0.5 0.5 0.4 0 5.1-0.4 1-0.1 2.2 1.1 0.8-0.5 0.1-0.2-0.1-0.5 0.4-3.4-0.1-0.6-0.2-1.8-0.1-0.4 0.3-0.4 1.1-0.9 1.4-0.4 1.7 0.3 4.5 2.3 4.9 1.2 1.5 1.3 3.4 0.4 0.8 0.2-0.5 1-1.6 1-2 0.6-1.4-0.1 0.1 0.8-0.1 1.9 0.3 0.6 2.2 2.4 5.6 4.3 0.5 0.7 2.5 1.5 1.3 2.1 5.2 3.1-1 0.1-1-0.2-0.9-0.4-0.6-0.5-0.6 0.5-0.4 0.5 1.5 2.1 1.9-0.5 1.9 1.2 3.2 2.8 1.9 0.7 2 0.3 4.2 0.1-2.2-1.4-7.3-3.2-1.6-2.1 21.2 9.3 8.9 2.7 2.5 0.4z" id="VEN47" name="Miranda" data-id="VEN47" data-name="Miranda">
 </path>
 <path d="M698.1 376.5l-2 0.1-1.5-0.8 0-1.3-1.9-0.2-1.1-0.3-0.5-0.6-0.1-0.9 0.5-0.8 0.7-0.6 0.9-0.2 1.5 0.7 2.1 0.7 1.8 1 0.6 1.7-1 1.5z m-20.7-7l1.3 0.1 0.3-0.1 0.7 0.3 0.2 0.9-1.4 1-2 0.1-1.4-0.7 0.2-1 1.1-0.5 1-0.1z m29.2-12.9l0.4 2-2.4-0.5 0.1 0.5-0.1 1 0 0.5-1-0.8-0.7-0.2-0.3 0.3-0.2 0.4-1.6 1.5-1.9 4-4.3-0.7-1.5 0.2-4.8 1.7-1.3 0.8 0.2-2.2-1.3-0.3-1.6 0-1.5-2.8-1.5-1.1-1.8-1-1-0.8-2 1.7-1.6 0.4-5.4-0.6-0.7-0.4-0.4-0.1-1.9 0.1-0.6-0.1-3.1-0.9-1.4-0.1 1.8-3.9 0.2-1 0.2-1.6 0.5-0.6 1.1-0.2 1.7 0.1 0.8-0.2 0.5-0.3 1-0.8 0.7-0.2 1.5 0.5 2-0.9 1.8-0.2 1.6 0.3 0.7 1 0 1 0 1.1 0.5 0.9 2.5 0.8 2.7 1.7 1.6 0.4 3 0.3 1.2-0.4 1.1-1.4 0.1-0.8-0.1-2.3 0.5-0.6 1-0.9 0.5-0.5 0.3-0.8-0.1-0.6 0.1-0.5 0.7-0.7 0.6-0.2 1.7-0.1 0.7-0.2 1.1-1 1.8-2.3 1.1-0.8 0.3 1.4 0.9 0.7 0.9 0.5 0.4 0.7 0.3 1.5 1.1 2.8 0.2 1.3 2.4 4.5z" id="VEN48" name="Nueva Esparta" data-id="VEN48" data-name="Nueva Esparta">
 </path>
 <path d="M789.9 408.3l-0.4 0 0-0.9-0.3-0.7-1.2-1.1-0.5-0.6-1.3-1.3-2.3-1.8-2.1-1.2-1.3-1.4-0.4-1.3 0.1-1.4 0.1-0.5 0.3-0.9 0.4-0.6 0.3 0 2.2 2.5 1.8 2.4 4.2 4.6 0.5 0.4 0.7 1.2-0.1 1.4-0.7 1.2z m-26 15.9l-1.2-0.7-0.7-0.5-0.3-0.5-0.5-1.5-0.2-1.5-0.1-0.4-0.4-1.2-0.3-0.4-0.3-0.3-0.7 0-0.4 0.1-0.6 0.5-0.4 0.1-0.4-0.2-0.5-0.5-0.3-0.4-0.2-0.7 0.2-1-2.9 1.7-1 0.8-0.5 0.5-0.5 0.5-0.4 0.2-0.5 0.1-0.8-0.2-0.6-0.9-0.1-0.5-0.6-0.3-0.5-0.1-1.2 0.1-0.6-0.1-0.3-0.3-0.5-0.6-0.5-0.4-3.8-0.4-0.3-0.2-0.2-0.3-0.3-0.8-0.2-0.2-0.5-0.2-2.2-0.1-0.6-0.2-0.7-0.6-0.7-0.2-0.3-0.2-0.2-0.3 0-0.4 0.2-0.7-0.1-0.3-0.3-0.2-1.7-0.5-0.6-0.3-0.3-0.3-0.7-0.9-0.2-0.2-0.6-0.2-0.9 0.2-1.7 0.6-1.8 1.2-0.6 0.5-0.7 0.9-0.2 0.8-0.2 1.4-0.1 0.4-0.5 0.4-1.3 0.2-1.9 0.6-1.8 0.3-2.4-0.2-3.3 0.7-1.6 0.1-0.6 0.1-0.7 0.3-1.1 0.9-0.9 0.9-2.5 3.7-1.9 0.9-7.9 2.3-1.1 0.2-1.3-1.9-0.9-0.5-3.4-1-0.9-0.1-0.5 0.1-1.1 1-2.7 1.3-4.2 1.3-4.5 0.5-2.4 0.2-0.9-0.4-0.6-0.4-2.1-1.3-0.7-0.2-0.6-0.1-1.4 0.5-1 0.1-0.8-0.2-2.1-1.1-0.6-0.4-0.4-0.4-0.2-0.4-0.3-0.3-0.5-0.4-0.9-0.2-0.4-0.2-0.4-0.3-0.2-0.7 0.1-1.5-0.1-0.5-0.5-0.8-0.7-0.5-3-1.1-1.4-0.6-0.5-1-1-1.2 0.3-0.2 0.8 0.2 1.6 0.7 0.6 0.2 1.7-0.6 2-2.1 2.3-0.6 1.4-0.7 0.4-0.2 0.6-0.3 0-0.7-0.4-0.5-2 0.9-1.7-0.1-1.7-0.6-1.1-0.7 0.5-0.7 0.8 0.1 0.9 0.4 0.8 0.2 1-0.3 1.5-0.9 1.1-0.3-0.2-1 0.2-1.1-1.6 0 0-0.5 1.6-0.6 0.7 0.3 0.2 0.9 0.1 1.2 0.2 1.2 0.5-0.1 0.7-0.7 0.6-1.2 0.1-1.9 2.9-1.2 3.8-1 2.7-1.5 0.6-1.2 0.3-1 0.7-0.6 1.7-0.3 1.6 0.1 1.2 0.2 1 0.3 3.2 1.5 1.4 0.4 1.7 0.1 1.7-0.1 4.6-1 1.4 0.1 2.9 0.8 1.5 0.2 3.2-0.1 10.1-2.4 2-1.1-1.6-0.2-1.9 0.1-1.9-0.1-1.8-1.1-1.3-1-3.8-1.8-1.8-0.5-3.8-0.1-1.8-0.2-1.7-1-1.5-0.6-1.9 0-3.9 0.8 0.4-0.3 0.6-1.2-1 0.1-0.8 0.4-0.6 0.6-0.6 0.4-0.9 0.3-5.1-0.5-1 0.2-2.3 1.4-0.5 0.2-0.6 0.4-0.7 1.8-0.7 0.4-1.1-0.5-0.5-0.9-0.2-1.1 0-0.9-0.6-1.4-1.3-1.6-1-1.5 0.4-1.3 0.8-0.5 0.5-0.5 0.3-0.7 0-0.9 0.4 0 0.8 1.3 1 0.6 3.3 0.7 0.9 0.3 1.9 1 0.9 0.2 1-0.2 4.4-2.1 0.7-0.2 1-0.1 0.4 0.1 0.5 0.7 0.3 0.3 7-0.1 1.6 0.6 1.1-0.6 2.9-0.6 1-0.4 0.8-0.8 0.6-1.1 0.4-1.3 0.2-1.4 0.6 0 0.9 1.7 1.4 1.1 1.8 0.8 7.6 1.8 7.3 0.9 1.6-0.1 3.1-2 1.7-0.8 1.3 0.7 0.5 0 0.2-0.9 0.7-0.1 0.9 0.3 0.9 0.2 0.4-0.3 0.5-1.6 0.4-0.6 0.5 0.5 0.5 0.3 0.5-0.1 0.5-0.3 0.5 0.5-0.5 0.5 1.5 0.6 0.6-1 1 0.1 1.2 0.5 1.2 0.4 0.1-0.3 0.3-0.6 0.6-0.3 0.8 0.4 0.7 0.2 0.8-0.4 5.1-3.5 0.7-0.2 0.2 0.4 0.3 0.7 0.4 0.7 0.9 0.3 0.8 0 0.8-0.1 0.6-0.3 0.6-0.7 1.2 0.5 5.1-0.5 1.6 0.3 2.9 1.1 1.8 0.3 1.7-0.3 3-1.1 2.7-0.4 7.9-2.8 1-0.1 1.7 0.9 0.8 0.1 1 0.1 1.5 0.3 7.1 0.1 10.6 2 5.8 0.8 3.3 0.4 5.3 0.2 2.3 0.7 1.2 0 0.9-0.4 2-1.3 0.9-0.3 4.9 0 2.1-0.5 1.8-1.1 0.8 0.9 2-0.7 0.7 0.8 1.2-0.7 1.9-0.7 2.1-0.3 1.4 0.2-1.2 0.6-1.1 0.8-0.6 1.2 0.3 1.5-0.5 0.5-0.8-0.8-0.6 0.5-0.9 0.9-1.4 0.5-0.3 0.1-0.9 0.7-0.6 0.2-0.9 0-0.7-0.1-0.7 0-0.8 0.6-4.6 0.5-1.6 0.6-6.3-0.9-4.8 0.4-1 0.4-0.9 1-3.5 5.3-1.6 1.3-1.6-0.1-1.7-1-1.4 0.1-1.4 0.4-1.8 0.2-0.8-0.1-1.4-0.7-0.8-0.2-0.7 0-1.2 0.4-0.9 0.1-1.5-0.2-4.8-1.3-4.1-0.3-17.1 2.2-2.1 0.5-0.8 0.9-0.8 1.2-1.7 1.4-1.9 1.2-1.2 0.5 0 0.6 2.2-1 4.1-3.4 2.3-1.3 2.7-0.2 1.2 1.5 0.2 2.2-0.1 1.9 0.5 2.3 0.1 1.4-0.3 0.7-0.6 0.1-1.2 0.4-0.5 0-0.6-0.3-1.1-1-0.6-0.2-4.9-0.3-2.2 0.6-0.7 1.7 0.5-0.4 1.6-0.6 0.4 1.8 0.3 0.7 0.7 0.5-0.8 0.6-1.2 1.5-1 0.5 1.4 0.9-0.2 0.8-0.9 0.9-0.8 1 4.3-0.2 1-0.6 0.4-1.3-1.5-3 0.3-1.6-0.8-0.5-0.2-0.9 0.2-1 0.8-0.6 1.3-0.1 1.3 0.7 2 1.9 0.8-0.5 0.7-0.2 0.7-0.1 0.8-0.2 2.3-1.3 0.5-0.2 1.3 0.2 1.4 0.5 1.3 0.7 0.8 0.6 0.2 0.6 0.1 1.3 0.2 0.7 0.5 0.6 1.7 1.1 1.1 1 0.7 1 0.4 1.3 0.1 1.6-0.5 2.3 0 0.8 0.9 1.7 0.1 0.6 0.2 0.3 0.6 0.2 0.5 0.4 0.4 1.2 0.7 1.4 0.2 0.4-0.4 1.2-0.8 1.3-1.1 1.1-1.1 0.5-0.8 0-1.4 0.4-0.8 0.1-0.9-0.2-0.6-0.3-0.3-0.3-0.4-0.3-1.2-0.2-1.3 0-1.1 0.5-0.4 1-0.2 0.7-0.4 0.6-0.6 0.4-0.7 0.1-0.3-0.3-0.4-1.4-0.2-0.6-1.2-0.6-2 1.1-1.1-0.2-0.2-0.6 0.1-0.7 0.1-0.8-0.6-0.5-0.7 0-0.7 0.4-0.6 0.5-0.4 0.6-0.3-0.8-0.4-0.5-0.6-0.4-0.8-0.3-1.1 0.9-0.8 0.2-2.1-0.6 0.3 0.5z" id="VEN49" name="Sucre" data-id="VEN49" data-name="Sucre">
 </path>
 <path d="M883.2 537.2l1.5 0.7 1.9-0.1 2.2 0.1 0.7 1.4 0 1.3 0.2 1.5 0.8 1 1.1 0.4 1.2 0.8 0.1 1-0.4 1.2-0.9 0.4-1.2-0.5-1.8-1.3-0.6-1.5-1-1.1-2 0-2.5 0.1-2.5-0.4-1.5-1.3-1-0.7-1.6-0.8-1.4-0.1-2.3-0.9 0.3-0.8 1.5 0.2 2.9 0.4 2.8-0.1 1.7-1 1.8 0.1z m29.3 0.3l-1 1.8-1.6 0.7-1.7-0.9-0.1 1 0.6 1 0.2 0.8-6.3 0.8-7.8-0.7-2.7 0.2 0.8-1.7 0.9-1.5 1.4-1.1 1.9-0.3 1.6 0.5 2.3 1.9 1.6 0.7-0.8-1.2-0.2-0.1 0.2-0.6 0.3-0.4 2.6-2.8 0.9-0.3 4.7-0.3 0.8 0.2 0.6 0.3 0.5 0.1 0.3 1.9z m23-8.6l1 0.5 2.2-0.1 1.8 0.3 0.5 0.9-0.3 1.3-0.7 1.3-1 0.2-1.4 0-1.7-0.6-1.5-0.1-1.4 0.4-1.7 0.1-1.5-0.1-1.1 0.5-1.4 0-1.3-0.1-0.1-0.7 0.9-1.1 0.8-1.4 1.9-3.2 1.2-0.1 1.3-0.2 0.9-0.9 1.3-0.7 1-1 0.5-0.4 0.4 0.2-0.4 0.8-0.8 1.4 0 1.5 0.6 1.3z m-3.6-13.8l-0.7 0.9 0.5 0.6 1 0.4 0.5 2.1 0.9 1 0.9 1.6-0.9 0.9-1.9 1.1-1.8 0.2-1.5 1.4-1.1 1.9-1.1 1.6-0.6 1.6-1.5 1.6-1.4 1-2.8 0.2-2.6-0.3-2 0.3-1.6 0.4-2.5-0.7-3.8 0-2.9 0.4-1.3 0.8-1.3 1-1.7 1-1.3 0.1-0.5-0.7 0.2-1.5 0.2-1 0.3-4.6 0.9-1.7 2.1-2.5 2.3-1.8 2.6-1.3 2.1-0.8 2.5-0.9 3.4-0.6 3.4-0.4 1.6-0.5 0.8-1.3 0.8-0.9 6.1 0 1.6-0.9 1.8-0.7 0.3 1z m-25 3.7l-1.7 0.5 4.1-3.1 1.4-1.3 2.5-3.7 0.8-2.4 0.8-0.8 0.9-0.6 0.8-0.7 0.3-0.7-0.1-0.7 0.1-0.7 1-0.7 1.7-0.4 1.6 0.4 1.5 1 1.2 1.1-1.5 0.4-0.5 0.1 1.1 1.7-1 2.2-2 2-3.1 2.3-9.9 4.1z m15.7-18l-0.3 0.1-0.6 1.3-0.6 0.6-1 0.1-1.6 0-1.2 0.4-1.2 0.8-6.2 5.8-0.3 0.6-0.5 1.5-0.4 0.6-2.4 1.4-0.7 0.2-0.8-0.8 0.3-1.4 0.7-1.7 0.4-1.5 0.6-1.2 1.6-0.6 1.9-0.5 1.5-0.5 1.3-1.4 2.7-3.5 1.2-0.7 1.8-0.2 4-1.3 0 0.7-0.1 0.6-0.1 0.6z m-0.6-4.1l-0.7 1.1 0-0.5-1.3 1.4-3.6 1.2-1.6 1 1.3-2.6 0.1-2.4 0.4-2.1 2.1-1.6 2.6-0.7 1.4 0.1 0.6 0.8-0.2 1.5-0.4 1.4-0.7 1.4z m9.9-5l-0.8 0.3-1 0.1-1.2-0.2-2.1 1.3-0.5 1.1-0.6 1.4-0.8 1.2-1.6 0.4 0.6-1.8 0.6-3.5 0.8-1.3 1.1-0.9 1.7-0.8 1.6-0.1 1.2 1.2 0.6 1.1 0.4 0.5z m33.8 94.6l-19.9 0.3-0.7 0.2-0.9 0.7-0.6 0.3-0.4 0.2-1.2 0.2-0.7 0.4-6.2 4.4-1.6 0.9-0.3 0.2-1.6 2-2.5 2.1-1 0.5-0.7 0.1-0.5-0.4-10.5-12.1-0.4-0.7-0.8-0.8-0.5-0.3-0.6-0.1-1.3 0-1.9 0.2-0.8 0.2-0.6 0.5-1.5 1.5-0.6 0.4-0.3 0.2-1.5 0.5-0.8 0.1-2 0-0.8 0.2-1.9 1.2-0.3 0.1-1.2 0.3-0.4 0.2-1 1-0.6 0.4-1.2 0.3-1.3 0.7-0.4 0.1-1.4 0.1-1.6 0.4-0.7 0.3-0.6 0.3-0.5 0.1-0.4 0-1.7-0.8-1.1-0.8-2.7-2.6-11.8-13.2-1.6-2.1-1.1-0.9-0.5-0.5-0.9-1.2-2.1-5-0.4-1.6 0.1-2.2 0.5-3.7-45-2-4.7-1.3-13.8-5.6-7.2-3.1 0.3-0.2 2.1-2.3 0.7-0.7 1-0.5 0.9-0.1 0.2-1.1 0.8-0.4 1.1-0.1 2.8 0.7 0.9 0 1.1-0.2 4.2-1.9 0.9-0.5 0.7-0.6 0.7-0.8 0.5-1 0.4-0.3 0.9-0.5 0.9-0.3 4.1-0.1 1.1-0.2 2.3-3.9 1.6-2 0.3-0.3 2.5-1.7 1.8-0.4 2.7-1.2 0.9-0.7 0.4-1 0.2-3.2 0.2-0.6 0.4-0.7 3.4-3.5 0.4-0.6 0.1-0.7-0.1-1-0.1-0.7-0.9-0.3-1.7-0.1-0.9-0.3-0.6-0.5-0.6-0.8-0.9-1.7-0.2-1.7 0.4-1.5 1.5-2.8 0.6-1.4 0.1-0.8-0.2-0.6-0.9-0.2-0.4-0.1-1.2-0.3-1 0.3-1 0.7-0.7 0.2-0.5-0.2-0.3-0.6-0.5-2-0.2-0.3-0.5 0-0.6 0.3-1.6 1-0.8 0.4-0.6 0.2-0.6-0.1-0.6-0.4-0.6-0.8-0.6-0.5-1-0.6-0.5-0.4-0.4-1.1-0.5-0.6-0.3-0.1-3-0.1-0.4-0.2-0.3-0.2-0.1-0.6 0.2-0.6 0.3-0.8 0.5-1 0.3-0.7 0-0.5-0.1-0.9 0.1-1.4-0.1-0.4-0.3-0.7-0.2-0.2-0.1-1.5-0.2-0.7-0.3-3.6 0.2-1.8-0.1-0.8-0.7-1-3.3-2.1-0.9-1.4-0.3-1.5-0.1-1.6-0.3-1.6-1.3-0.5-1.3-0.7-0.9-0.9-0.2-1.2 0.5-1.2 1.5-2.4 3-3.2 0.3-0.7 0.5-2.3 1-1.2 1.3-1.1 0.9-1.1-0.1-1.3 0.5 1 2-2 1.5-2.5 2.1-5.7 0.1-2.4-1.2-4.7 0-2.7 1.3 1 1.3 1.7 2.7 5.2 0.5 1.6 0.2 10.6-0.9 3.1-2 1.9 2.4-0.8 1.5-2.5 0.6-3.3-0.5-9.3-0.4-1.7-1.6-2.9-0.5-1.5 4.3 0.5 1.2 0.3 0.5 0.8 0.4 1.1 0.6 0.9 0.8 0.4 2.4 0.5 1.4 0.1 0.6 0 0.1-0.3-0.7-0.7-0.7-0.3-2.2-0.6-0.9-0.1-0.1-0.4-2.2-2.2-1.2-0.6-0.9-0.3-4.4-0.1-1-0.4-1.1-1.2 1-1.5 0.5-1.2 0.7-0.8 0.8-0.4 6.3 1.6 3.6 1.5 2.6 1.5 7.4 5.8 1.4 1.2 2.2 3 2.1 1.5 1.2 0.9 0.1 1 0.1 0.5 1 1 0.4 0.8-0.2 0.7-0.7 2.2-1.4 2.7-0.3 1.6 0.5 0 2-4.1 1-4.1 1.3 0.1 1.1 1.6 0.9 1.8 0.7 1.1-0.4 1.4 0.4 6.3 0.7-1.5 0.2-1.7 0.1-3.2-0.1-0.9-0.3-0.7-0.4-0.5-0.4-0.5-0.5-0.8-0.4-1.7-0.4-0.8-0.5-0.3-1.4-0.3-0.6-0.4-0.1-0.5-1.2-1.6-0.5-0.8-0.1-0.6-0.4-0.4 0.7-0.2 2.1-0.1 2.8 0.6 5.7 1.8 0.9 0.1 5.2 1.1 1.3-0.9-0.3-1.1-0.9-1-0.8-1.1-0.6-0.2-1.7-1.1-0.3-1.2-1.1-0.2-1-0.9-0.4-0.8 0.4-0.3 2.1 0.1 1.9 0.9 2.1 1.1 2.9 1.9 2.5 1.6 2.5 1.8 1 1.3 2.9 3.5-0.4-2-1.8-2.3-0.4-1.3-2.2-0.9-1.2-1.2 0.3-0.1 1.1 0.9 1 0.2 1.4 0.1 0.9 0.5 2.8 3.1 1.2 1.2 1.1 1 1.1 1.2 1.3 1.4 2.4 2 3.4 2.8 1.6 1.2 0.8 2.3 1.5 1.8 1-0.4-1.2-1.6 1.8 0 4 2.4 1.3-0.8 0.5 0.2 2.7-0.2 1.1 0.1 2.7 1.4 2.9 1 1.2 0.8 0.4 1.3-0.5-0.1-0.2-0.2-0.3-0.7-0.1 2.4 0.1 0.6 0.6 0.5 0.5-0.1 0.5-0.2 0.7-0.2 1.3 0.3 1.5 0.7 1.5 0.9 1.3 0.9 0.6 0.8 1.1 1.5 1.1 1.1 0.3 0.4 0.1 0.3 0 0.5 0.2 0.2 1 0.3 0.3 0.3 0.6 1.5 0.4 1.9-0.1 1.9-0.9 1.4-0.1-0.7-0.2-0.3-0.6-0.6-0.4 1.1-0.2 1.2-0.3 0.9-1 0.4-1.1 0.2-1.7 1.1-0.7 0.2-0.8 0.1-0.9 0.2-0.9 0.4-0.6 0.4-0.5 0.8-0.3 0.4-0.6 0.3-1.7 0.5-4 3.9-1.7 0.6-1.5 1-1.4 2.2-1.9 4.5 1.1-0.4 0.9-0.9 0.7-1.1 0.3-0.9 0.4-0.7 6-5.3 1.8-1.2 0.3 1.3-0.3 0.8-1.1 1.1-0.6 0.7-0.2 0.6-0.2 1.7-0.3 0.5-0.5 0.6-0.2 0.6 0 1.4-0.4 0.7-0.7 0.4-0.9 0.3-0.6 0.3-2.6 2.8-0.4 0-0.3 0.7-1.3 2.1-0.5 1.1-0.8 3.1-0.2 1.2 0.5 1.5 0.1 0.8-1.1 3.1-3.9 5.9-1 3.2-0.4 3.6-0.8 2.6-1.7 1.5-3.2 0-4.3-1.4-1-0.1-12.8 1-3.2-0.8-2.9-1.8-1.4 0.1-1.5 0.2-1 0.8-0.1 1.5 0.6 0.8 3.9 2.2 2.8 0.6 0.7 0.2 0.4 0.5 0.3 0.5 0.3 0.3 0.8 0 1.3-0.4 0.7-0.1 0.1 0.2 0.9 1 1.1 1 0.5 0.2 0.9 0.1 0.4 0.2 0.6 1.1 0.3 0.3 1.4 0.2 2.9-0.7 1.2-0.1 0.8 0.6 0.4 1 0.4 1.1 0.4 0.9 0.8 0.8 1.9 1.2 0.8 1.1 2.3-1.6 1-1 0.4-1.2 0.4-0.9 1.2-1 1.3-0.9 1-0.6 1.6-0.3 4.7 0.3 3.5-0.6 1.6 0.1 0.2 1-1.2 1.1-2.8 0.4-0.6 1.4 0 1.6 0 0.8 0.3 0.6 0.7 0.3 0.2-0.7-0.1-1.9 0.3-1.3 0.4-0.3 0.8-0.4 0.7-0.2 0.8 0.1 0.7-0.1 0.3-0.6 0.2-0.6 0.3-0.8 0.4-0.6 0.9-0.7 0.1-0.9 0.1-1.7 0.2-0.8 0-0.5 0.1-0.4 0.7-0.4 1.4 0.5 1.5-0.2 1.4-0.5 7.3-0.9 9.2-1 1.4 0.8 0.4 0.8 1.1 0.8 1.1 0.8 0.9 0.4 1.5 0.3 4.5 0.3 4.8 1.1 1.3-0.1 0.3-0.4 0.8-1.6 1.5-1.6 1.7-3 2.3-0.9 12.8 0.8 3 0.8 2.8 1.3 2.6 1.7 1.4 0.6 3.2 0.5 4.5 6.7 7.7 8.6 2.9 4.8-0.1 1.5-0.9 1.7-1.4 1.3-1.5 0.5-1.6 0.1-3.6 0.8-1.3 0.6-0.8 0.9-1.9 1.5-0.5 1.1 0 1.1 0.2 0.9-0.1 0.8-0.9 1.1-0.6 3-0.7 1.3-1.3 0.8-1.6 0-2.9-0.2-1.6 0.5-1.5 1.1-1.1 1.2-1.3 1.1-3.5 1.4-0.9 1-0.8 1.2-1.1 1z m-148.5-154l-0.7 0.4 0-1 0.9-2.1 1.3-1.5 1.4-0.5 0.6 0 0.4 0.5 0.4 1.3-0.4 1-0.7 0.8-0.9 0.7-1.2 0.3-1.1 0.1z" id="VEN65" name="Delta Amacuro" data-id="VEN65" data-name="Delta Amacuro">
 </path>
 <circle cx="720.2" cy="419.6" id="0">
 </circle>
 <circle cx="726.6" cy="490" id="1">
 </circle>
 <circle cx="752.9" cy="423.7" id="2">
 </circle>
</svg>