<?xml version="1.0"?>
<!--
************* Copyright (c) 2017 Pareto Softare, LLC DBA Simplemaps.com *******************		
************* Free for Commercial Use, full terms at  http://simplemaps.com/resources/svg-license ************
************* Attribution is appreciated! http://simplemaps.com ***************************
-->
<svg baseprofile="tiny" fill="#7c7c7c" height="863" stroke="#ffffff" stroke-linecap="round" stroke-linejoin="round" stroke-width="2" version="1.2" viewbox="0 0 1000 863" width="1000" xmlns="http://www.w3.org/2000/svg">
 <path d="M409.8 856.3l-6.1 5.7-7.5-17.4-21-11.8-30.6-6.3-4.5-8.3 17.7-4.6 14.2-0.3 17-5.5 17.6 5.5 2.5 14.8 0.7 28.2z m80.6-233.5l20.6 20.5-6.6 10.8-22.7-3.2-33.7-9.6-24.9 14-10.4 16.4-15.2 13.8-18.4 5.8-15.6-3-24.2-11-19.8 1 1 6.4-15.5 16.6-19.2 14-9.4-1.3-16.9 24.1-31.8 22.7-59.4-3.2-48.6-3.3 27-24.8 35.6-3.1 16.2-26.9 17.4-25 7.6-33.5 39.8-22.5 28.7 8.5 46.8-9.4 21.7 6.3 64.6-11.5 65.3 10.4z m-390.7 13.4l-12.1 10-57.6-8.2-29-0.9 11.1-15.4 50.5-11.2 26 3.2 11.1 22.5z m382-50.9l-9.8 9.7-3.4-5.8 1.8-13.9-4.2-23.1 3.5-16.3 9.9-7.2 6.3 3.2 0.7 33.9-4.8 19.5z m407.6-93.9l-16.3 31.1-37.3 20.6-37.5 11.1-17.1 2.1-16.7 20.5-38 30.1-41.9 24.7-27.8 3.8 49.2-67.4 13.5-33.6-7.3-43 8.8 0 17 12.9 110.2-2.4 41.2-10.5z m81.3-464.9l28.4 69.9-17.4-1.2-113.1-48.2-87.2-3.9-36-12.4-19.6-26.5 175-3.2 69.9 25.5z" id="VGB00" name="British Virgin Islands" data-id="VGB00" data-name="British Virgin Islands">
 </path>
</svg>