<?xml version="1.0"?>
<!--
************* Copyright (c) 2017 Pareto Softare, LLC DBA Simplemaps.com *******************		
************* Free for Commercial Use, full terms at  http://simplemaps.com/resources/svg-license ************
************* Attribution is appreciated! http://simplemaps.com ***************************
-->
<svg baseprofile="tiny" fill="#7c7c7c" height="2119" stroke="#ffffff" stroke-linecap="round" stroke-linejoin="round" stroke-width="2" version="1.2" viewbox="0 0 1000 2119" width="1000" xmlns="http://www.w3.org/2000/svg">
 <path d="M370.8 2117.2l-1.6 0.8-1.2-1.2 2.8-3.2 0.6-0.1 0.1 1.6-0.9 0.8 0.2 1.3z m-185.5-118.4l-2.6 0.8-0.1-2.3-1.2-1.3 4.8-0.6 1.6 0.6-1.5 1.5-1 1.3z m120.5-52.3l0 1.1-1.7-1.7 0.7-4.4 0.9-0.2-0.2 1.9 0.4 2.2-0.1 1.1z m40.3-20l-0.9 1.9-1.8 0.7-1.4-0.7-2 0-0.4-0.7 0.9-1.1 1.2-1 1.5-0.8 1.9 0.8 1 0.9z m638-527.9l0.3 1.1-1.8-0.3-0.8-1.5-0.3-1.5 0.8 0.3 1.2 1.5 0.6 0.4z m-31.5-246.1l-1.6 0.2-1.8-0.6-1.1-0.7 0.1-0.6 0.9-0.8 3.4-0.1 1.5 0.7 0.5 0.9-1.9 1z m-79.9-78l-0.7 0.4-0.7-1.1-2.5-1.7-0.2-1.2-0.8-0.7-1.8-0.4-0.3-1.2 1.5-1.1 1-0.2 4.1 3.2 0.4 1.4 0 2.6z m-353.8-489.5l-0.8 0.3-1.1-1.5 0-1 0.5-0.5 1.5-0.3 0.7 0.6 0.1 0.8-0.9 1.6z m245.3-110.6l-0.4 0.5-1.2-0.3-0.4-0.4 0.6-0.7 1.1-0.7 0.8-0.1-0.5 1.7z m-37.5-85.9l-1.8 0.9 1.4-1.7 1.1-1.7 0.4 1.1-1.1 1.4z m69.7-74l-0.8 0.3-1.6-0.2-1.1-0.7 0.1-0.8 1.9-0.7 0.9-0.1 0.8 0.4 0.2 1-0.4 0.8z" id="VNM99" name="" data-id="VNM99" data-name="">
 </path>
 <path d="M683.4 385.6l-1.3 0.4-1-1.5 1.2-1.9 0.7-0.6 0.5 0.4-0.3 2.4 0.2 0.8z m46.7-3.2l-1.2 1-0.9-0.9 0.9-1.1 1.3-0.7-0.1 1.7z m-50-5.9l1.2 0.2 0 0.8 0.8 0.6 0.2 0.9-0.6 0.5-0.1 1.5-1 0.5-0.9-2.1 0-1.5-0.4-1.5 0.8 0.1z m39.9 4.4l-0.4 0.7-1.3-1.4-0.3-1.6 0.1-1.1 0.4-1 0.7-0.4 0.9 1.4 0.5 1.9-0.6 1.5z m-4.4-5.8l-0.1 2-0.4 0.2-0.7-0.9-0.9-0.5-1.1 0.2-1.4-0.7-1.1-2.5-0.2-2.1 0.6 0 1.6 1.9 1.7 0.5 1.6 1 0.4 0.9z m-81-1.6l1.8 1 1.6-0.2 0.3 0.6-1 0.9-1.7 0.3-1.1-0.2-0.9-0.5-1.9-2-0.5-1-0.1-1.5 0.6-0.6 2.9 3.2z m69.5-2.9l-0.7 0.7-0.9 0-0.2 0.5-1.1 0.3-0.8-1.2 1.8-0.7-0.4-0.5 1-0.7 0 1.1 1.3 0.5z m-26.3 0.4l0.3 0.8 0.7 0.7-0.9 0.5-1.2-1.5-1 0.3-0.6-1 1.7-1.8 0.7 0.3-0.2 1.1 0.5 0.6z m-27.9-3.4l0.4 2.5-0.8 0 0 1-2.1-1 0-0.8 1.6-1.5-0.2-1.4 1.1 1.2z m12.8 1.9l1.5 1.4 0.8 0 0.2-2.4 1.3-0.6 1.8 0.8 1.4 1.2 0 1-0.4 1.5 1.6 1.1 2.2 0.5 2.2-0.1 1.1 1.8-1.2 0.5-0.8-0.4 0 1.1 1 0.9 0.8 1-1.6-0.3-1-0.9-1.2-2.7-0.5 1.3 0.1 1 0.5 0.9 0.9 0.7 0 1-1.8 0.7-1.3 0-1.2-0.6-1.3-1.1 0.7 3.1 4.1 2.4 0.8 2.5-1 0 0-0.9-0.8 0-0.7 2.5-1.2 2.5 0-3.2-1 0.4-0.9 0.7-0.9 0-1-1.1 0-0.9 2.9 0 0-0.9-1-1.1-0.9 0 0 1.1-1 0-1.7-2.1-1 0 1 2.1 0 0.9-2.8-1.9-3-4.3-1.7-1.8-4-2.5-1.5-2 0.4-2.7 3.2-1.1 0.9-0.6 0.5-1 0-1 0.5-1 1.8 1.9 4.2 0.7z m-33.6-3.3l0.9 0.4 1.7 3.5-1.6-0.5-0.9-1.5-1.4-0.3-1.3-0.8-0.3-0.9 1-1 1.1 1 0.8 0.1z m62.9 1.3l-1.3-0.8-1.6-1.3 0.9-0.6 2 1.2 0.2 0.6-0.2 0.9z m18.4-3.3l0.7 0.3 2-0.4 2.2 0.1 1.4 0.5 0.4 0.9-0.7 1-0.3 1-1.8 0.8-1.8-0.1-1-0.7-1.4-1.8-1.1 0-0.4-0.9 0.2-0.7 0.7-0.3 0.9 0.3z m-4.3-0.2l1.4 2.8-2.1-2-2.1-3.1 0.3-0.2 2.5 2.5z m0.1-3.2l0.6 1.2 0.9 3.2-1.5-1.7-0.5-1.8 0.5-0.9z m-64.4 4.6l0.7 2 4.9 6.5 0.7 3.7-1.8 0.9-2.4-0.5-1.1-0.6-0.7-2.4-2.7-5.8-0.4-3.4-0.8 1.3-0.2 1.3 0.3 1.3 0.7 1.2-1 0-1.8-1.1-2.1-0.4-1.8-0.9-0.6-2.7 1-4.1 1.6-3.7 5.4 2.3 1.5 1.8 0.6 3.3z m20.6-5.5l-1.4-0.8-0.6-1.2 1.8-0.8 0.9 0 0 1.1-0.7 1.7z m54-5.7l-0.4 1.3-2.8 2.7-1.6 0.7-0.7 0-3.1-0.7-1.2-0.7-0.2-0.8 1.3-0.1 1.8-0.5 1.1 1.1 0.6-0.6 1.7-0.4 1.6-1.8 1.6-0.8 0.3 0.6z m-1.1 7.8l-3.9 0.3-0.3-0.5 3-0.7 4.5-1.3 1-0.6 0.9-1.4 0.4-1.5 1.3-1.1 0.9-1.1 1.2-1 0.8 0.6-1.3 2.8-1.5 1.9-1.8 1.5-5.2 2.1z m12.9 12.9l-1.8 0 2.2-5.1 0.3-2.3-1.6-1.7 0-0.9 2.9-0.1 1.9-0.5 1.4-1.2 1.3-2.1 3.2-6.7 0.5-2.4 0.7 1 0.2 1-0.8 3.3-1.2 2.5-6.4 9.6-0.8 1.6-1 2.9-1 1.1z m-57.6-20.1l-1.9 0.8-2.1-0.5-0.5-0.5 1.6-2.9 0.8-0.1 0.9-0.5 1 0.2 1.4 2.2 0.1 0.5-1.3 0.8z m-39.3-3.8l0.4 2.8-0.2 1-0.6 0.8-2.9-0.5-1.5-0.4-1.9 0.1-1.5-0.3-1.3-0.9-1-1.9 0.2-1.1 0.7-0.5 0.9 0.5 0.5 0.7 1 0.6 2.3 0.6 0.8-0.6-0.6-1.2 0-0.9 0.6-0.9 0.9-0.4 0.7 0.1 1.2 0.9 1.3 1.5z m139.8-1.9l0 0.9-1.9-0.9-0.8 0 0.6 2.8-0.9 2.2-2 1.7-2.4 1.2 2.5-4.9 0.2-1.6-0.7-0.9-1.3-0.8-0.8-1.3 1-2.5 1.7 0.5 4.8 3.6z m4.6 0.4l-1.3 0.1-0.1-2.5 1.2-2.8 2.2-1.5 2 0.3-0.5 1.9-1.1 1.2-2.4 3.3z m-39.9-7.5l0 3 1.8-2.1 0.8-0.5 0.8 0.5-0.5 1.9-2.1 5.2-1.4 5.1-0.9 2.1-1.4 1.8-1.9 1.1-2.2 0.5-3.3 0.4-6.1 1.5-2.3 0.4 0-0.9 3.9-1.8 3.7-2.1 3.1-2.4 2.4-2.7-0.4-1.6 0.5-2.2 1.7-4.2 2 1 0.4-1.3 1.4-2.7z m6.6-11.2l-0.1 2.2-1.1 2.7-1.4 0.7-0.1 0.9-1.4 0.7-2.1 1.7-0.2 0.6-2.9 1.3-0.8 0.6-1.4 0 1.2-1.3 1.2-0.7 1-0.9 1.1-1.7 0-1.5 1-0.9 0.5-1.1 0.7-0.7 0.9-2 0.6-0.3 1.4 0.5 1.2-0.7 0.7-0.1z m1.1 15.9l-1.4 3.7-2.7-0.4 1.4-0.6 0.2-0.9-0.6-3 0.4-1.5 1.9-1.8 0.5-1.7 0.2-3.2 0.3-1.3 0.9-1.7 3.2-3.3 0.9-0.6 0.5 0.2 0 1-4.9 10.6-0.8 4.5z m-0.8-18.8l-0.3 1.2-2.1 1.8-1-0.9 0.2-0.6 0.9-1.1 2.3-0.4z m10.9-1.1l-0.9-0.4 1.7-7.2 0.5-1.2 0.9-0.2-2.2 9z m-6.6-12.8l-0.6 0-1.6-0.7 0.6-0.7 4.6-2.3 0.1 1.4-3.1 2.3z m-4.2-3.7l-0.7 0.3-1.7 0.2-0.8 0.4-0.8-0.7-1 0.1-0.8-0.4 0.3-0.9 1.8-1 2.1-0.1 1.4 0.7 0.6 1-0.4 0.4z m-7.5 8l0.5 0.7 0.8 0 0.9-0.6 4.8-1.3 3-1.1 0.4 0.3-0.6 1.8-1.5 1.7-4.5 3.1-1.4 2.2-1.1 0-2-0.4-2.7 2.9-4.6 6.4-1.5 0.8-3.3 1.3-1.7 1-4.6 3.9-2.1-1.7 0.9-3.3 2-3.6 1.1-2.9 0.3-1.7 1.2-4.1 0.6-4.4 0.9 0 1 1.2 0.4-0.1 0.2-1.2 0.6-0.8 1.3-0.3-0.6-1-0.2-2.3 0.3-3.7 0.7-2.7 1-0.8 1.1 0.1 1.9 1.4 3.2 4 0.9 0.7 1.6 0.5 0.3 1.3 0.1 2.1 0.4 0.6z m2.3-11.3l1.5-0.1-0.5 0.9-1.9 1.3-1 0.4-1-1.6 1.1-1.5 1.8 0.6z m29 0l-0.8-0.4 0.7-1 1.6-0.5 2.7-0.3 0.4 0.7-1.8 0-1.1 0.3-1.7 1.2z m-8.2-1.5l-5.3 3.6-0.1-0.2 2.3-2.8 2.4-1.4 0.7 0.8z m14.9-8.1l-13.3 5.8 2-2.4 7.9-4.8 2.2-0.8 1.8 0.2 0.6 1-0.2 0.8-1 0.2z m25.6-7.4l-5.2 3.5-2.1 0.8-1.1-1.2-0.8 0-1.1 0.6-9.2 3.2-1.8 0.3 0.3-1.5 0.7-1.7 0.9 2.1 0.6-1.2 0.8-0.9 1-0.6-2.8-0.1-3.4 0.7 0-0.9 4.5-1.4 1.1-0.6 17.6-2 0 0.9z m-182.8 55.3l-1 0.1-5.2-1.2-3.8-2.3-13.4-1.6-2.9-0.7-1.7-1-0.6-1.5-0.1-1.7 0.2-1.8 0.7-1.3 1.5-1.1 3.5-1.2 1.6-1 1.5-1.3 1.4-1.6 2.3-3.3 1.7-3.1 29 4.7 8.8-0.1 7.2-2.2 6.3-0.9 3.3-0.9 2.1-1.2 1.2-2 1.1-2.7 1-3.1 1.5-9.2 1.2-1.8 0.9-1.2 6.9-3.7 4.8-0.5 3.6-0.9 8.7-3.3 3.2-2 2.3-2.2 1.4-2.2 0.9-2.9 0.1-2.2-0.4-2.2-3-6 1.2-2.4 1.1-1.7 12.5-8.2 2 1.9 4.7-2.9 3.7-3.8 2.2-1 2.7 0.8 1.5 2.2 0.5 5.1 1.8 0.9 2.3 0.9 1.4 0.4 1.2 0 1.1-0.8 1.1-2.4 0.9-0.8 2.4-0.3 5.7 0.8 2.8 0 7.9-1.8 2.5-1 5.4-4 2-0.8 2.1-0.1 2.4 0.3 4.6 1.2 2.8 1.3 1 1.3 0.7 1.9 1.5 2.5 1.6 1.6 3.9 2.9 4.7 5.1 1.8 0.5 6.4 6.6-2.9 1.4-2.9 3.1-2.6 1.8-1.8-2.3 0-1.5 1.8-2.1-0.1-1.1-0.9-1.8-0.5-2.2-1.2-1.3-1.7-0.7-2.1-0.4 0.1 1.7-1 1.3-0.9 0-0.7-2.4-1 1.3-1.1 4.1-1.6 0.7-1-1-0.3-2 0.1-2.6-0.9 0-1 0.9 0 1 0.8 1.1 0.2 1.9-1 0-0.8-2-1 1.1-0.5-2.9-1.7-0.7-2.3 0.6-2 0.9 0 1 2.2 0 1.7 0.6 1.1 1.2 0.5 2.1-1.8-0.8 0.7 3 0.3 1-1.5-0.1-1.1 0.5-0.8 0.7-0.4 0.9 0.9 0.9-2.3 4-2.4-0.1-1.2 0.1-1.4 1.7-1.8 0.1-1.9-0.7-1-1.1-1 0-0.9 1 0 0.9 0.9 1.8-0.8 1.1-1.8 0.2-2.1-1 0.4 1.4 0.6 0.5 0 1.1-1.1 0.6-0.4 0.6 0.4 0.8 1.1 1-0.9 0.1-1.9 0.9 0.4 0.7-2.2-0.7-0.6 3.6-0.6 1.7-1.2 0.8-2.3-0.2-1.5-0.5-1.1-0.9-1-1.5-0.6-1.7-0.3-1.6-0.7-1.1-1.8-0.5 0 0.6 0.9 3.1-0.5 1.2 0 1.1 1.7 0.8-1.5 0.4-3 0.1-4.4-0.8-1.4-0.8-0.6-1.3-0.8-0.3-4.9-1.2-0.8 2 0.9 0.9 3.7 2.2 0 0.9-2.7 1.1-4.3-0.1-3.3 1 0 1 0.8 1.1-0.3 0.9-0.8 0.8-0.6 1.2-0.2 5.3-0.7 1.7 1.1 0.8 1.2 0.6 1.2 0.1 1.2-0.5-0.9 6.5-0.9 3.4-2 2.1 0.8 1.2 0.1 0.8-0.5 0.5-1.3 0.4 0.6 2.1 0.3 2.2 0.5 1.8 1.4 0.9 0 0.9-2.3 1.8-1.3 0.8-1.9 0.6-5.7 0.2-1.7 0.7-1.8-0.7-2.9 0.2-2.8 0.7-1.8 0.9 1.7 0.8 1 0.1 0 1-2.2 0.5-2.9 3.3 0.5 2.2-2.1 0.1-1.4 0.5-1.4 0.1-1.6-0.7 0 1-2.1-2-6.6-1-2.6-1.1 0-0.9 4-5.1 7.3-4.9 0-1-1.8 0.1-1.7 0.4-1.7 0.6-1.3 0.8-0.6 1-0.6 1.8-1.2 0.4-0.5-0.5 0.2-1 0.8-1.7-0.9-0.9-1.1 2.4-1.3 1.2-0.7-0.7 0.3-2.9-0.9 0-0.1 2.9-0.8 0-0.3-1.6-0.9-1.1-1.7-0.2 0 0.9 1.9 2.1-1.9 0 1.9 2-1.9 0-1.3-0.7-2.4-2.3-0.4 2 3.5 2.9 0.6 2-1.2 2.2-2.1 0.9-2.6 0.2-2.5-0.2-2.2-0.4-2.1-0.8-1.7-0.9-1.4-1-3.3-3-1.5-0.6-0.8 1.7-0.6-0.9-1.3 0 4 4.6 1.6 1.3 3.7 2 0.5 1 0.3 1.2 0.6 1.1 1.4 0.7 0 1-3.5-0.1-2.1-0.6-1.4-1.5-1.3-2.8-1 0 0.2 1.3 0.9 2 0.8 0.7-2.8 4-1.1-1-1-3-2.6-2 0.5-0.8-0.5-1.2-0.9 0-2.8 0.8-3.1-1.5-1.4-2.2 2.2-1.1 2.5-0.1 1.3-0.5 0.5-1-0.1-1.4-2.4-1.4-0.5-1 1.9-1.6-1.9-1.7-1.2-0.4-1.5 0 0.9 2.1-3.1-0.3-2.2-1.3-2.1-0.8-2.8 1.4 0 1 1.1 0 0 1.1-5.1-2.1-3-0.7-2.2 0.7 1.2 0.3z" id="VNM429" name="Quảng Ninh" data-id="VNM429" data-name="Quảng Ninh">
 </path>
 <path d="M586.7 1668.3l3.5 1.2 1.5 2.2 2.1 8.5 0.4 2.6 0 1.7-0.6 0.4-2.8 0.7-4.6 8.3-2.5 3-1.3 1.1-2.1 2.1-1.1 1.6-3.6 7.7-0.8 2.5-0.5 2.7-0.2 5.4 0.2 2.2 0.5 2.3 0.8 2 1.5 2.9 0.8 1.1 1 2.3 0.6 2.3 1.4 1.7 2.2 1.6 1.8 2.2 1.2 4.4-1.5 8.2-1 2.7-1.5 3-1.3 1.9-3.7 3.9-4.7-4.2-1.8-1-1.8-0.7-0.8 0.3-0.4 0.9 0.2 2.3-0.3 1.1-1.1 0.8-11.2 3.4-1.9-0.1-1.3-0.3-1.1-0.9 1.4 0 0.9-0.8-1.5-2.8-2.2-7.9-1.6-2.4-2.4-1.8-2.3-0.4-2.1 1.2-1.6 3-1.4-2.8-1.8-2.3-4.7-4.1-2.1-2.3-3.3-5.2-2-1.8-7.2-1.8-2.8-2.1-1.5-3.9-0.3-3-1.8-1.1-2.2-0.5-1.8-1.4-0.1-2 2.2-10.4 1.5-4.7 0.4-2.1-0.2-2.1-2.1-7.3 0.3-3.6-0.1-1.8-0.7-1.6-1.5-1.1-3.6-0.7-1.6-0.9-1.8-2.9 0.4-2.8 1.6-2.4 1.8-2 3.1-2.6 2.3-0.5 6.4 2.4 3.9 0.2 1.6-2 1.3-2.9 3.8-3.9 0.7-1.7 0.4-1.9 0.1-1.9 3.1-3.4 6.3 1.1 7 2.2 5.6 0.1 9.4 2.9 2.7 1.5 1 1.2 1.9 3 1.2 1 1.8 0.3 7.7-2 1.4-0.1 1.4 0.2 1.9 0.6 2.9 2.2 1.8 0.9 1.7-0.1 1.2-2.2z" id="VNM444" name="Tây Ninh" data-id="VNM444" data-name="Tây Ninh">
 </path>
 <path d="M195.3 218.6l0.9 19.5 1.7 11.6-0.1 4.6-1 4.7-2.1 3.7-2.7 3.5-6.1 5.3-2 2.9-1 2.5-0.7 3.3-1.1 1.8-1.4 1.4-5.2 2.3-1.5 1.3-1.1 1.8-0.2 1.6 0.5 1.1 1.8 1.5 0.4 1.5-0.4 2 0.2 1.6 1 1.5 5 3.9 1 2.3 0.5 3.3-0.4 5.6-0.9 4.2-2.6 5.7-0.4 2.1 0.4 2.3 2 5.4 0.2 2.9-0.9 1.7-1.9 0.9-2.3 0.4-2.7 0-2.5-0.5-2.2-1.1-2-1.5-1.7-1-1.7-0.5-1.5 0.1-0.9 0.8-0.3 1.1 0.1 1.7 0.5 2.2 0.2 2.7-0.5 2-1.2 1.4-2.9 1.8-1.3 1.7-0.6 2.1-0.5 5.1-1.6 5.5-0.6 4.7 0.3 4.6-1 0.3-1.6-0.1-1.3-0.5-1.9-1.3-1.1-0.6-1.4-0.4-2.4-0.3-1.5-0.6-0.8-0.7-2-1.9-3.9-4.9-2.5-4.3-4.3-9.3-3-6.6-2.1-2.4-3.4-1.5-2 0.3-1.1-0.5-1.2-2.3-1-2.6-1.3-5.7-1.5-2.4-1.4-0.9-2-0.3-0.9-1.4 0-1.4 1.2-2.9 0.2-1.4-0.7-1.7-1.3-1.6-1.8-1.2-2-0.8-3-0.1-2.6 0.3-1.1-0.7 1.6-2.7 2.2-1.8 4.6-1.1 1.7-1.7 0.5-2.5 0.1-6.6 0.5-3 4.5-7.3 0.2-1.7-1.9-0.4-2.6 1.3-2.7 1.7-2.1 1 6.2-10.2 2.9-2.7 5.1-6.4 2.7-2.6 0-1.7-1.4-3.1-0.4-3.6 0.1-10-0.2-1.7-0.6-1.6-1.1-1.9-0.7-0.3-0.7 0.6-9.9 4.3-2.3 0.1-1.7-1.7-0.4-2.8 0.4-5.9-1.1-6.6-2.7-2.2-2.4 2.3-0.3 11.8-1.7 4.7-3 3.9-4.2 2.8-1.5 0.3-7.2 0.2-0.9 0.1-1-1.5-0.9-2.3-0.6-3.3-0.3-3.4 0.6-8.5-1.3-6-4.6-10.6-4.2-3.6-6-2-5.1-2.7-1.6-5.5 0.1-0.6 2.1-3.2-2-1.9-3.4-1.9-2.8-2.2-1-1.6-1.3-3.7-0.9-1.5-1.3-1.2-4.2-2.6-9.7-9.6-8.2-4.1-2.6-2.5-0.9-3-1.9-1.9-2.4-1.6-2-2.2-0.2-0.9 0.5-1.8-0.5-1.4-1.5-1.4-1.4-4.7-1.7-3.5 1.4-1.9 2.5-1.5 2.3-0.7 3 0.7 2.3 1.2 2 0.3 1.8-2.3 0.7-2.5 0.8-5 1.4-2.6 9.8-10.3 7.4-1.5 3 0.1 7.7 1.9 6.8-0.7 2 0.7 1.9 3 1.9 1.5 2.3 1 1.3 2.5 9.1 10.5 2.5 1.8 5.2 1.4 4.8 3.1 5.4 4.8 3.2 4.3 2.3 5 1.1 5.4 0 4 1.6 2 1.1 2 2.1 0 3.9-1 2.6 1.4 1.1 3.2 0.8 3.7 1.6 2.7 2.4 0.2 12-1.7 3.6 1.1 3.9 2.6 6 5.4 5.1-0.4 11.8 5.9 2.7-0.9-2.5-2.2-0.4-1 0.5-0.8 7.8-10 2-1.2 3 0 3 1.2 2.3 2 0.9 2.4 0.4 3.5 0.9 2.1 3.4 2.9 1.5 1.9 0.8 2.5 0.4 2.9 0.1 3.1 0.5 0.7 2.5 1.7 1.2 0.3 0.6 0.6 6.3 11 0.9 0.9z" id="VNM450" name="Điện Biên" data-id="VNM450" data-name="Điện Biên">
 </path>
 <path d="M553.9 142.4l2.4 5.3 1.3 7.3 1 1.9 3.4 3.7 0.8 1.5 0.2 1.5-0.3 1.8-2.3 7.6-6.8 12.7-1.1 1.4-1.2 1.2-1.4 1-2.7 1.5-1.4 1.1-1.3 2.2-0.6 2.8-0.7 12.7-7 1.3-1.5 0.8-2.1 0.9-1.3 0.9-1 1.4-1.5 2.7-0.9 0.9-3.1 1.2-2.1 1.1-6.4 5.4-2.2 1.3-2.2 0.5-2.5 0.1-1.9 0.3-1.6 0.8-0.9 1.5-1.6 2.9-0.9 0.7-1-0.1-0.8-1.1-0.8-2.8-1.1-3.1-0.2-1.4-0.2-3-0.7-3.5 0.2-2.3 0.5-2.1 0-1.9-0.8-2.9-0.3-3-0.4-1.8-1-1.9-1.8-2.1-2.3-2.2-2.4-1.5-2.4-0.4-2.2 0.3-5.2 1.7-2.5 1.3-2.6 3-3.2 4.8-3.6 0.9-1.6-6.6-4.9-8.8-1.2-3.1-0.8-3.5-0.9-7.8 0.9-16.7 0.7-3.9 1.2-3.5 1.5-3.2 4.5-7.3 4.8-5.7 1.6-2.6 1.2-3.4 0.2-3.2-0.5-3.8-1.4-3.8-1.4-3.2-2.5-4 6.1-5.9 4.8-6.7 6.1-4.9 2.2-1.2 2.1-0.7 1.7 0 4.1 1 0.9 0.6 0.4 1 0.1 1.5-0.5 1.7-1.4 4-0.4 2 0.1 2 0.5 1.9 0.8 1.8 2.3 3.9 0.8 2.3 0.5 2.5 0.8 3 1.6 3 3.8 3.5 2.4 1 2.6 0.4 2-0.4 2-0.8 2.1-1.5 2.1-1.2 3.4-1.3 2.5-1.7 1.7-0.9 7-2.2 4.6-0.3 2.2 0.5 1.3 1.2-0.1 2.9 0.2 1.3 0.9 1.1 2.3 2.1 0.5 1.5-0.1 3.6 0.3 2 1.3 1.8 2 1.6 4.2 0.3z" id="VNM451" name="Đông Bắc" data-id="VNM451" data-name="Đông Bắc">
 </path>
 <path d="M543.2 209.6l0.5 7.3 1 3.9 1.6 3.8 0.2 1.8 0 3.1 0.5 1 0.8 0.5 1.2 0.1 1.6 0.8 1.8 1.5 9.7 13.2 0.5 1.5-0.2 1.1-3.3 2.9-3.1 3.8-5.5 8.9-0.9-4.7-0.8-1.2-1.5-1.5-2.3-0.6-8.2-1.1-2.2 0-1.2 0.7-0.4 1.2 0.2 1.6 4.3 15.5 0 3-0.6 3-2.2 4-2.1 2.1-2.3 1.1-2.2 0.1-1.6-0.3-1.4 0.1-1.3 0.6-6.8 11.8-3.5-0.9-6.3-4.3-5.9-1.4-2.7 0.4-1.8 1.2-1.1-3.3-1.1-2.3-2.1-2.5-14.1-10.4-8-8-3-1.9-1.3-1.5-1.2-1.7-2-4.2-0.5-4.1-0.1-5.3 2.3-28.5 2-6.6 1.1-5.7 3.6-0.9 3.2-4.8 2.6-3 2.5-1.3 5.2-1.7 2.2-0.3 2.4 0.4 2.4 1.5 2.3 2.2 1.8 2.1 1 1.9 0.4 1.8 0.3 3 0.8 2.9 0 1.9-0.5 2.1-0.2 2.3 0.7 3.5 0.2 3 0.2 1.4 1.1 3.1 0.8 2.8 0.8 1.1 1 0.1 0.9-0.7 1.6-2.9 0.9-1.5 1.6-0.8 1.9-0.3 2.5-0.1 2.2-0.5 2.2-1.3 6.4-5.4 2.1-1.1 3.1-1.2 0.9-0.9 1.5-2.7 1-1.4 1.3-0.9 2.1-0.9 1.5-0.8 7-1.3z" id="VNM452" name="Thái Nguyên" data-id="VNM452" data-name="Thái Nguyên">
 </path>
 <path d="M195.2 106.8l3 2.5 4.1 7.8 1 3.4 0.6 3.2-0.5 2.5-1.4 1.7-1.6 1.7-1.3 1.7-0.2 2.2 1.5 2.3 3.4 2.6 2.8 1.6 2.6 0.8 2.3 0.1 2.3-0.5 2.2-0.6 2.9-0.2 3.1 0.9 4.4 3 2 2.6 1 2.7-0.2 2.6-0.9 2.7-3 5.7-6.1 7.6-1.7 1.7-2 1.4-6.8 2-2 1.4-1.7 1.7-2.8 4.3-1.2 2.4-0.9 2.4-2.2 12.4-3.9 5.1-0.7 2.3 0 2.9 2 11.2-0.9-0.9-6.3-11-0.6-0.6-1.2-0.3-2.5-1.7-0.5-0.7-0.1-3.1-0.4-2.9-0.8-2.5-1.5-1.9-3.4-2.9-0.9-2.1-0.4-3.5-0.9-2.4-2.3-2-3-1.2-3 0-2 1.2-7.8 10-0.5 0.8 0.4 1 2.5 2.2-2.7 0.9-11.8-5.9-5.1 0.4-6-5.4-3.9-2.6-3.6-1.1-12 1.7-2.4-0.2-1.6-2.7-0.8-3.7-1.1-3.2-2.6-1.4-3.9 1-2.1 0-1.1-2-1.6-2 0-4-1.1-5.4-2.3-5-3.2-4.3-5.4-4.8-4.8-3.1-5.2-1.4-2.5-1.8-9.1-10.5-1.3-2.5-2.3-1-1.9-1.5-1.9-3-2-0.7-6.8 0.7-7.7-1.9-3-0.1-7.4 1.5 7-7.4 1.1-2-0.8-1.5-0.8-0.9-1.3-0.9-1-1 0-1.7 0.9-1.1 1.4-0.1 1.6 0.1 1.4-0.5 1.7-1.9 1-2.4 1.5-5.2 2.3-2.9 3.4-0.5 3.6 1.2 2.9 2.2 1.4 2.9 0.4 2.6 0.9 1.8 3.1 0.1 1-0.7 1.4-2.1 1.4-0.3 0.6 0.5 2.1 2.4 0.8 0.7 2.7 1 5.4 1 2.8 1.1 8 6.7 2.7 1.1 5.7 1.3 2.5 1.3 1.8 2.2 1.1 2.4 0.8 2.7 4.7 9.2 1.2 1.5 2.3 1.2 5 1.4 4.4 3.3 2.7 1 2.8 0 2.1-1.5 0.6-2.4-0.6-2.3-0.1-2 1.9-1.3 2.2-0.4 2.3-1.1 6.9-4.8 0.5-1.1-0.2-1.5-1.6-2.1-0.3-1.2 1.5-4.2 3.7-2.9 8.1-4.3 2.2-1.9 1.1-1.5 2.3-6.5 5.4-9.6 1.7-0.3 3 1.1 1.8 1 1.6 1.3 1.3 1.5 1.2 1.7 1.9 1.1 0.3 2.1-0.2 2.5 0.3 2.6 0.9 2.1 4.9 8.3 3.5 3.9 1.7 1.1 2.5 0.4 1.4-0.8 4.3-6.5 0.7-1.4-0.2-1.2z" id="VNM453" name="Lai Chau" data-id="VNM453" data-name="Lai Chau">
 </path>
 <path d="M600.1 142.9l0.2 0.8 0.3 5.5 0.7 2.2 1.8 2 3 1 5.4 0.3 2.3 2 0.8 1.8 3.1 10.8-0.3 1.5-1.2 1.1-1.6 2.2 0.3 2.1 0.9 1.6 1 1.5 0.7 1.7 0 1.1-0.4 2.3 0 1.2 0.4 0.8 1.5 2.1 0.1 3.8-0.7 3.5-2.7 6.9 0.2 2.6 0.5 1.3 0.8 0.9 2.1 0.1 2.1-1.6 4.4-5 0.9-0.2 1.8 0.7 0.8 0.5 1.7 2.2 2.8 1.5 2.4 0.3 5.6-0.1 3.3 0.8 1.6 1.6 1.2 2 1.8 2.3 3 1.6 2.3-0.5 2.2-1.3 2.4-1 2.8 0.1 2.3 1.1 1.5 2.2 0.1 3-1.2 2.4-2 2.2-1.4 2.3 0.3 3 1.9 2 2.8 1 5.7 1.2 3.9 2.5 10.6 9.3 5.4 1.4 4.3-1.4 3.9-0.5 4.1 4.4 3.6 10.6 0.5 0.5-12.5 8.2-1.1 1.7-1.2 2.4 3 6 0.4 2.2-0.1 2.2-0.9 2.9-1.4 2.2-2.3 2.2-3.2 2-8.7 3.3-3.6 0.9-4.8 0.5-5.6-2.2-0.7-1.2-0.7-1.8 0-4.4-0.9-2.2-1.4-0.6-1.8 0.4-2.5 0.7-2.8 0.2-3-1.2-1.7-2.3-1.4-3.1-3.6-5.1-2.1-3.5-1.2-3.2-0.5-2.5-0.7-1.9-1.6-0.6-2.2 0.7-2.3 1.2-1.9 1.4-3 2.9-1.5 0.8-2.1-0.2-1.8-1.6-5-5.4-3.2-1.3-3.7-0.3-3.5 0.5-3.4 1-2.8 1.9-2.6 2.6-2.5 3.4-4.3 11-1.7 3.1-2.4 2.6-3.3 1.9-5 1-3.5-0.5-2.8-1.4-8.2-7.8-4.3-2-4.3-1.1-4.4-0.5-2.5-0.9-1.7-1.3-0.8-2-0.2-2.2 1.3-3.6 5.5-8.9 3.1-3.8 3.3-2.9 0.2-1.1-0.5-1.5-9.7-13.2-1.8-1.5-1.6-0.8-1.2-0.1-0.8-0.5-0.5-1 0-3.1-0.2-1.8-1.6-3.8-1-3.9-0.5-7.3 0.7-12.7 0.6-2.8 1.3-2.2 1.4-1.1 2.7-1.5 1.4-1 1.2-1.2 1.1-1.4 6.8-12.7 2.3-7.6 0.3-1.8-0.2-1.5-0.8-1.5-3.4-3.7-1-1.9-1.3-7.3-2.4-5.3 4.5-4.1 2-1 2.4-0.7 1.9 0.1 1.9 0.7 11.3 7.7 3.9 1.5 3.8 0.4 3.7-0.1 3-0.4 2.8-0.8 4.5-2.4 0.5-0.4z" id="VNM454" name="Lạng Sơn" data-id="VNM454" data-name="Lạng Sơn">
 </path>
 <path d="M246.2 243l12.3 5.1 20.9 3.7 4.6-0.2 3.8-1.3 5.2-4.3 2.4-1.3 2.6-0.2 2.7 1.4 2.1 2.2 1 2 0 2.6-2.9 7.8-1.5 5.3-0.8 5.6-0.1 4.4 0.7 3.9 1.7 3.5 3.9 4.1 12 7.1 3.3 0.8 2.8-0.5 9.2-5.7 3.2-1.2 2.9-0.1 3 1.1 3.7 2.3 2.8 1.1 2.3 0.2 4.2-1.4 2 0 1.6 1 1.4 2.2 1.1 2.4 1.8 2.6 2.2 1 1.9 0.3 2.6-0.6 5 11.6 1.4 6.7-0.6 8.1 0.3 1.6 0.6 1.2 2.3 1.8 1.8 2.3-3.6 5.8-0.2 2.2 0 3.5 1.5 2 1.7 2.6 1.3 3.9 11.3 12.6 1 0.6 1.3 1.8 9.9 6.9 0.6 0.8 0.3 1.9-0.6 0.2-1 1.4-0.6 1.6-3.4 0.6-0.6 0.8-2 1.9-2.6 1.5-2.6 0.9-2.8 0.5-11.9-0.7-2.1 0.2-1.8 0.8-1.4 1.5-1 3-0.2 6 0.6 4.3-4.4 5.1-2.1 1.2-2.5 1-2.3 0.2-2.1-0.5-2.2-1.2-4.9-3.6-2.1-2-4.5-2.6-3.9-0.1 0.1-0.5-2-2.1-7.7-2.6-7-3.4-2.2-2.3-1.3-4.6-1.9-2-2.7-0.3-3.1 0-2.8-0.8-1-1.1-1.1-2.5-0.7-1.1-1.1-0.7-2.1-0.8-1.1-0.8-1.8-2.1-2.2-4.5-1.6-2.2-2.2-1.7-2.6-1.1-1.3 0.1-3 0.9-1 0-0.5-0.7-1.4-3-0.8-1.1-1-0.7-3.8-1.4-1.5-0.2-3.1-0.1-1.2-0.2-1.2-0.6-2-1.5-1-0.5-4.8 0.3-6.2 7.4-5 0.8-1.6 0-1.4 0.3-2.7 1.3-10 3.2-1.1 0.7-2 1.8-1.2 0.7-1.4 0.1-2.7-0.4-1.5 0.5-1.3 1.6-1.4 2.7-1.2 3-0.5 2.3 0.3 3 0.5 1.4-0.6 1-2.7 1.7-1.7 0.6-1.2 0.2-0.8 0.5-0.7 1.9 0.2 1.4 1.4 2.8 0 1.2-0.7 0.7-1.5 0.8-1.7 0.6-1.2 0.1-1.5-0.2-4-3.6-5.2-5.7-2.7-1.6-8.3-1.8-1.4-0.1-1.2-0.3-2.1-1.4-1.5-1.9-2.5-4.8-1.6-1.7-1.9-0.7-0.7 0.4-0.4 0.9-1 0.9-2.7 1.6-3.7 1-2.2-0.2-3.8-1.3-7.6-4.1-2.3-0.7-1.2 0.1-1.6 0.6-0.3-4.6 0.6-4.7 1.6-5.5 0.5-5.1 0.6-2.1 1.3-1.7 2.9-1.8 1.2-1.4 0.5-2-0.2-2.7-0.5-2.2-0.1-1.7 0.3-1.1 0.9-0.8 1.5-0.1 1.7 0.5 1.7 1 2 1.5 2.2 1.1 2.5 0.5 2.7 0 2.3-0.4 1.9-0.9 0.9-1.7-0.2-2.9-2-5.4-0.4-2.3 0.4-2.1 2.6-5.7 0.9-4.2 0.4-5.6-0.5-3.3-1-2.3-5-3.9-1-1.5-0.2-1.6 0.4-2-0.4-1.5-1.8-1.5-0.5-1.1 0.2-1.6 1.1-1.8 1.5-1.3 5.2-2.3 1.4-1.4 1.1-1.8 0.7-3.3 1-2.5 2-2.9 6.1-5.3 2.7-3.5 2.1-3.7 1-4.7 0.1-4.6-1.7-11.6-0.9-19.5-2-11.2 0-2.9 0.7-2.3 3.9-5.1 4.9-1.2 1.7 0.8 2.3 1.8 1.7 2.9 6 16.1 2.6 4.8 16.8 18.8 3 2.5 2.9 1 2.4-0.5 4-1.1z" id="VNM455" name="Son La" data-id="VNM455" data-name="Son La">
 </path>
 <path d="M370.7 402.3l4.2 0.9 6.2 3.2 2.7 0.9 17.3 2.3 2.6-0.1 4-1.7 3.1-0.5 1.9 0.7 1.7 1.4 4.4 6.3 2.2 2.1 12.9 9 19.9 10.2 4.9 1.8 3.4 0.9 3.6 0.1 28.8 24.6 8.7 6 5.8 3 7.7 2.3 3.5 2.2 2.7 2.2 2.5 1.5 2.3 0.7 4.6 0.4 2.2 0.5 1.4 1 1 1.3 0.4 1.4 0 1.1-0.3 0.8-1.2 1.5-3.4 2.5 0 0.7-0.3-0.5-0.9 0-0.8 1.9-1.5 1.8-6 5.5-1.2 1.4-0.8 2.2 0 1.4 1 2.2 0 1.4-2.9 4-0.5 2.1 0.1 4.1-0.5 1.6-1.8-1.9-0.9 1.5-1.9 1.4-3.7 2 0.8 1.1 1.8-0.9 3.9-0.4 1.8-0.8-0.8 1.9-2.4 3.3-0.5 2.3-0.9 1-1.9-0.1-1.9 0.1-0.9 1.9-0.6 2.4-3 4.8-1.1 2.3-0.2 2.2-0.1 4-0.6 1.7-0.2-3.3-1.9-0.4-1.7 1.4 0.6 1.3 1-1.3 1 0.5 0.4 1.4 0.2 2.3 0.6 0 0 5.4-1.5 10.9 0.6 5.4-1.9-1-1.8 3.9-1.9-0.9 0 0.9 1.5 1.3 0.6 1.6 0.7 4.1 2.5 4.8 0.3 2-2.8-1.9 0.9 3 1-0.4 0.7 0.4-0.3 2.8-0.3 0.9-5.8-2.9-8.7-1.2-1.7-1-7.5-7.6-2.7-1.9-2-0.9-1.5-0.9-1.3-1.3-3.5-5.6-2.2-2.6-3.8-2.3-3.1-0.6-6.4 0.7-2.8-0.6-2.1-1.5-4.1-5.9-1.8-2.2-2-1.2-1.8-0.2-1.6 0.6-1.3 1.1-3 3.1-1.2 0.3-0.7-0.7-0.1-2.5 0.2-6-0.2-3-1.2-3-2-2.7-7.8-7-3-3.9-2.9-6.3-1.1-4.2-0.3-3.5 0.5-2.3 1.1-2 3.3-3.5 1-1.9 0-1.8-1.4-2-2.4-1.5-8-2.2-4-1.6-6.6-4.1-7-2.7-2.3-0.5 0.5-0.5 0.5-2-0.3-1.8-0.4-1.7-0.2-2.7-0.4-1.2 0-0.9 0.5-0.4 1.9-0.4 0.4-0.5-1-2.3-5.2-3.5-1.9-2.7-0.2-3.2 0.8-1.6-0.2-1.1-12-6.6-5.5 0.3-6.1 2.1-5.8 1.1-4.6-2.3-0.6-1.9-0.1-2.9 0.2-3 0.5-1.9 1.2-0.9 1.1 0.1 1.1-0.3 0.9-2 0.1-1.3-0.2-1.7-0.5-1.6-0.5-1.2-1.9-1.5-5.2-2.1-2.2-1.5-3.1-4.4-1.9-1-19.4 0.4-5.5-1.4-4.3-2.8 0.9-2.7 7.7-5.3 2.9-5.7 3.4 2.7 3.5 0.6 3.4-1.1 3-2.4 8.7-12.1 1-3.4 3.9 0.1 4.5 2.6 2.1 2 4.9 3.6 2.2 1.2 2.1 0.5 2.3-0.2 2.5-1 2.1-1.2 4.4-5.1z" id="VNM456" name="Thanh Hóa" data-id="VNM456" data-name="Thanh Hóa">
 </path>
 <path d="M469.1 115.1l2.5 4 1.4 3.2 1.4 3.8 0.5 3.8-0.2 3.2-1.2 3.4-1.6 2.6-4.8 5.7-4.5 7.3-1.5 3.2-1.2 3.5-0.7 3.9-0.9 16.7 0.9 7.8 0.8 3.5 1.2 3.1 4.9 8.8 1.6 6.6-1.1 5.7-2 6.6-2.3 28.5 0.1 5.3 0.5 4.1 2 4.2 1.2 1.7 1.3 1.5 3 1.9-3 2.3-2.2 1.1-6.7 2.6-4 0.8-9.1 0.3-10.3-2.8-5.2-8-6.2-7.2-7.8-7.1-8.7-5.4-1.9-1.9-1-1.8-0.7-3 0.5-2.4 1.5-4.2-0.9-2.8-2.3-3.4-9-10-1.8-2.6 0.2-7.4-0.8-2.4-1.3-2.5-2.8-2.7-5.7-3.9-4.9-5.4-4.9-11.8 5.6-5.8 5.4-8.6 0.7-1.7 0.6-1.7 0-3.9 0.2-2.1 0.8-1.8 1.5-1.3 2.6-0.3 2.2 0.4 3.9 1.5 1.5 0.1 1.2-0.6 1.1-1.6 2.3-9.6 1-2.8 1.3-2.7 1.7-2.7 4-4.6 1.4-2.4 3.3-9.1 0.7-2.5 0.8-4.7 1.2-1.3 2.3-0.3 5.2 1.3 14.8 5.5 8.5 0.7 12.7 2.3 9.2-1.7z" id="VNM457" name="Tuyên Quang" data-id="VNM457" data-name="Tuyên Quang">
 </path>
 <path d="M371.4 177.1l4.9 11.8 4.9 5.4 5.7 3.9 2.8 2.7 1.3 2.5 0.8 2.4-0.2 7.4 1.8 2.6 9 10 2.3 3.4 0.9 2.8-1.5 4.2-0.5 2.4 0.7 3 1 1.8 1.9 1.9-5.4 3.7-2.6 0.9-7.4 1.7-3.6 1.3-3.4 1.7-3.4 2.9-2.5 3.6-1.8 4.2-0.3 6.4 1.1 5.6 3 9.4 0.2 3.3-1.6 2.7-1.7 2-9 5.2-2.6 0.6-1.9-0.3-2.2-1-1.8-2.6-1.1-2.4-1.4-2.2-1.6-1-2 0-4.2 1.4-2.3-0.2-2.8-1.1-3.7-2.3-3-1.1-2.9 0.1-3.2 1.2-9.2 5.7-2.8 0.5-3.3-0.8-12-7.1-3.9-4.1-1.7-3.5-0.7-3.9 0.1-4.4 0.8-5.6 1.5-5.3 2.9-7.8 0-2.6-1-2-2.1-2.2-2.7-1.4-2.6 0.2-2.4 1.3-5.2 4.3-3.8 1.3-4.6 0.2-20.9-3.7-12.3-5.1 1.6-2.8 1.8-4 0.4-2-0.1-1.8-0.9-1.9-4.4-7.1-0.3-1.1 0.4-1.1 1-1.4 2.3-2.5 2.8-4.6 2.4-6 0.9-0.9 1.4 0.2 1.6 1.1 3.8 3.8 2.4 1.6 2.4 1 2.8 0.5 5.7 0.5 2.5 0.5 2.1 0.9 1.7 1.2 1.3 1.2 1.3 0.2 1.2-0.7 1.4-2.5 0.7-2.2 0.1-2.1-0.2-1.7 0.4-1.1 1.1-0.3 1.4 0.6 3.5 2 11.2 5.2 3.3 1 2.6 0.2 2.3-1 1.9-1.9 1.5-2.3 1-2.9 0.1-2.5-0.5-2.7-1.3-3-5.7-10.2-1.1-3 0.5-2.6 2-2.5 4.3-2 3-0.1 2.9 0.8 9.2 6.4 1.7 0.6 1.5-0.6 1.7-2 2.2-3.8 1.9-2.1 2-1.3 1.8-0.6 1.2-0.8 0.4-1.6-0.3-2.1-1.9-4.4-0.5-4.5 3.1-1.5 2.3 0 2.9 0.6 2.5 1.5 2.1 2.3 3.4 5.5 2.9 2.9 3.6 1.3 3.2 0.7 3.8-0.4z" id="VNM458" name="Yên Bái" data-id="VNM458" data-name="Yên Bái">
 </path>
 <path d="M433.8 346.2l9.3-1.6 8.3 0.6 3.7 1.1 2.9 1.6 2.5 1.9 1.8 2.4 1.3 2.3 0.6 2.2 0.2 1.8-0.3 1.6-3 5.5-0.4 2.3 0.2 2.3 1.2 2.6 2.1 2.2 11 7.6 2.3 2.8 1.4 2.9 1.8 6.1 1.4 2.8 2.2 3.4 1.5 1.5 1.9 1 2 0.5 2.5 1.1 2.2 1.2 4.3 4.7 3.1 10.9 4.4 10.7-4.7-0.7-4.9-2.5-1.5 0-1.7 0.5-4.5 2.7-1 0.9-0.2 0.9 0.2 1.2 0.8 2.1 0.5 2.4 0.3 2.5-0.3 2.2-1.2 1.4-1.6 0.6-2.8-0.4-2.5-1.5-7.4-6.1-2.1-1.2-1.8-0.2-1.4 0.1-2.7 2.7-3.6-0.1-3.4-0.9-4.9-1.8-19.9-10.2-12.9-9-2.2-2.1-4.4-6.3-1.7-1.4-1.9-0.7-3.1 0.5-4 1.7-2.6 0.1-17.3-2.3-2.7-0.9-6.2-3.2-4.2-0.9-0.6-4.3 0.2-6 1-3 1.4-1.5 1.8-0.8 2.1-0.2 11.9 0.7 2.8-0.5 2.6-0.9 2.6-1.5 2-1.9 0.6-0.8 3.4-0.6 0.6-1.6 1-1.4 0.6-0.2-0.3-1.9-0.6-0.8-9.9-6.9-1.3-1.8-1-0.6-11.3-12.6-1.3-3.9-1.7-2.6-1.5-2 0-3.5 0.2-2.2 3.6-5.8 1.6 4.2 1.1 1.1 1.9 1.6 13.5 6.6 10 8.5 3.1 1.4 2.9 0.5 4.7-0.3 2.3 0.1 11.5 3.3 2.7 0.2 2.3-0.7 0-5.4-0.4-3.7-0.9-1.6-1-1-1.1-1.8z" id="VNM459" name="Hòa Bình" data-id="VNM459" data-name="Hòa Bình">
 </path>
 <path d="M601.8 319.7l-1.7 3.1-2.3 3.3-1.4 1.6-1.5 1.3-1.6 1-3.5 1.2-1.5 1.1-0.7 1.3-0.2 1.8 0.1 1.7 0.6 1.5 1.7 1 2.9 0.7 13.4 1.6 3.8 2.3-1.6 6-0.1 1.6-0.8 1.4-1.8 0.8-2.3 0.4-1.7 1.1-1.1 1.7-0.4 2.9 0.4 2.2-0.2 1.9-0.9 1.4-2.4 1.2-1.9 1.4-0.8 2.4 0.8 1.8 1.4 1.4 1.6 1.1 3 1.5 0.4 1.3-1.1 1.9-7.4 7.1-2.8 1.7-5.8 0.3-21.7 3.4-9-9.3-2.9-1.9-4.3-3.3-1.6-2.6-0.6-2.8 0.5-2.6 0.9-2.8 3.7-8.1-1-10.5 10.1 1.8 3.1-0.1 3.9-0.6 2.3-1.4 1.6-1.9 0.9-2.6 0.3-2.8-0.2-3-2.2-9.2 4.3-7.8 3.1-2.5 4.5-2.6 4.9-1.2 4.9-0.2 4.1 0.6 3.5 1.6 2.1 1.4 2.2 2z" id="VNM460" name="Hải Dương" data-id="VNM460" data-name="Hải Dương">
 </path>
 <path d="M616.1 345.3l4.3 1.8 0 0.9-0.9-0.3-2.8-0.6 0 0.9 1.4 1.3 0.5 1.5 0.2 1.6 0.7 1.5 1.4 0.9 3.5 0.2 2.9 1.3 1.7 0 1.2 0.6 0.5 2.5-0.3 1.9-1.2 1.9-0.4 1.7-0.9 0-2.7-2.9-2.5 3 1.1 1.7 2.6 1.4 2.4 1.8 1.1 3.3-0.5 3.2-1.7 1.3-2.5-1.9 0.9 2.6 1.9 3 2.3 2.7 2.3 1.8 0.8-1.1 1.4 2.3 2.3 7.7-2.8-2.2-1.2-1.3-1.2-1.7-1.6 0.6-1.5 1-0.4 0.6-1.2 0.2-2.2 0.8-1.7 0-3.9-1.1-1.7 0.1 0 1 3.4 1.4 2 1.4 0.1 1.8-2.8 2.3-1.8 1-2.1 0.8-2.2 0.4-2.3-0.2-1.2-0.8-1.9-2.9-1.5-1.2 0.9 2.4-4.4 1-1.4 0.9-0.9 2.3-0.9 0.8-1.2 0.5-1.2 0.3-3.4-0.1-2.6 0.9-0.9 0.1-1.2-1.2-1.6-2.8-2.4-6.2-1.8-7 5.8-0.3 2.8-1.7 7.4-7.1 1.1-1.9-0.4-1.3-3-1.5-1.6-1.1-1.4-1.4-0.8-1.8 0.8-2.4 1.9-1.4 2.4-1.2 0.9-1.4 0.2-1.9-0.4-2.2 0.4-2.9 1.1-1.7 1.7-1.1 2.3-0.4 1.8-0.8 0.8-1.4 0.1-1.6 1.6-6 5.2 1.2 1-0.1z" id="VNM4600" name="Hải Phòng" data-id="VNM4600" data-name="Hải Phòng">
 </path>
 <path d="M548.4 348.2l1 10.5-3.7 8.1-0.9 2.8-0.5 2.6 0.6 2.8 1.6 2.6 4.3 3.3 2.9 1.9 9 9.3-3.3 2.5-1.6 0.9-2 0.8-7.2-0.3-2 0.3-1.9 1.1-1.6 1.4-0.1 2.6-4.9 2.4-2.3-0.2-0.8-0.8-3-4.6-0.6-1.4-0.2-1.5 0.3-1.6 0.7-2.5-0.4-0.9-1.3-0.6-1.8-0.1-2.2-0.2-1.3-0.4-1.7-2.1-0.5-5.7-1.2-2.3-1.2-0.6-2.5-0.7-1.2-0.8-0.7-1.2-0.3-1.4-0.1-3 0.6-2.3 1-2.4 0.1-2.1-1.9-1.6-1.3-0.6-0.6-0.8-0.2-1 0.5-2.4 0.7-2.4 1.2-2.7 1.5-1.3 1.3-0.7 9.7-1.7 2.4-0.9 7.3-0.6 10.3 0.5z" id="VNM461" name="Đồng Bằng Sông Hồng" data-id="VNM461" data-name="Đồng Bằng Sông Hồng">
 </path>
 <path d="M517 300.2l2.7 5.7 0.7 3.3-0.1 2.7-2.8 3.8-0.5 1.9-0.4 2.4 0.1 2.9 0.5 3.1 0.9 3.4 1.4 2.7 1.7 1.9 4.4 3.1 1.9 1.7 1.6 2.5 0.5 2.1-0.1 2.1-1.1 3.7-9.7 1.7-1.3 0.7-1.5 1.3-1.2 2.7-0.7 2.4-0.5 2.4 0.2 1 0.6 0.8 1.3 0.6 1.9 1.6-0.1 2.1-1 2.4-0.6 2.3 0.1 3 0.3 1.4 0.7 1.2 1.2 0.8 2.5 0.7 1.2 0.6 1.2 2.3 0.5 5.7 1.7 2.1 1.3 0.4 2.2 0.2-2.7 3.7-1.4 1-3 0.8-4.6-0.5-7.5 3.2-2.1 0-1.6-0.4-0.8-0.6-0.9 0.5-1.2 1.8-1 3.8-3.2 7.7-4.3-4.7-2.2-1.2-2.5-1.1-2-0.5-1.9-1-1.5-1.5-2.2-3.4-1.4-2.8-1.8-6.1-1.4-2.9-2.3-2.8-11-7.6-2.1-2.2-1.2-2.6-0.2-2.3 0.4-2.3 3-5.5 0.3-1.6-0.2-1.8-0.6-2.2-1.3-2.3-1.8-2.4-2.5-1.9-2.9-1.6-3.7-1.1-8.3-0.6-9.3 1.6-2.3-3.8-0.8-2.4 0.3-3.1 2.1-4.2 0.5-3.2-0.8-2.1-1.4-2-1.1-2.3 0.4-3 2.5-2.7 3.2-1.6 2.2-2.5-0.4-5.2 1.2-2.7 0.7-1.3 2.7-1.2 2.9-0.3 2.6 0.6 1.6 2.2 0.4 2.3 0.7 3.5 0.7 2.4 2.2 4 1.3 1.7 1.6 1.6 2.3 1.8 1.3 0.6 1.4 0.3 19.4 1 1.8 0.4 5.2 3 4.1 3.3 1.4 0.7 1.8 0.7-0.1-2.4 2.2-5.2 0.3-3.2-1.9-12.3 1.1-9.4-0.3-5 1.8-1.2 2.7-0.4 5.9 1.4 6.3 4.3 3.5 0.9z" id="VNM462" name="Ha Noi" data-id="VNM462" data-name="Ha Noi">
 </path>
 <path d="M568.2 328.4l2.2 9.2 0.2 3-0.3 2.8-0.9 2.6-1.6 1.9-2.3 1.4-3.9 0.6-3.1 0.1-10.1-1.8-10.3-0.5-7.3 0.6-2.4 0.9 1.1-3.7 0.1-2.1-0.5-2.1-1.6-2.5-1.9-1.7-4.4-3.1-1.7-1.9-1.4-2.7-0.9-3.4-0.5-3.1-0.1-2.9 0.4-2.4 0.5-1.9 2.8-3.8 11.4 5.2 2.4 0.8 3.4-0.1 1.8 0.3 2.4 1 15.1 2.4 1.8 0.5 3.2 1.5 1.7 1 2.3 2.6 2.4 1.3z" id="VNM463" name="Bắc Ninh" data-id="VNM463" data-name="Bắc Ninh">
 </path>
 <path d="M496.8 295.2l0.3 5-1.1 9.4 1.9 12.3-0.3 3.2-2.2 5.2 0.1 2.4-1.8-0.7-1.4-0.7-4.1-3.3-5.2-3-1.8-0.4-19.4-1-1.4-0.3-1.3-0.6-2.3-1.8-1.6-1.6-1.3-1.7-2.2-4-0.7-2.4-0.7-3.5 2.3-1.4 1.6-2.1-0.1-1.6-0.8-1.8-4.4-5.5-2.5-5.3-1.1-1.6-2.3-1-1.5-0.2-1.7-1.4-1.1-1.2-3.6-11.6 10.3 2.8 9.1-0.3 4-0.8 6.7-2.6 2.2-1.1 3-2.3 8 8 14.1 10.4 2.1 2.5 1.1 2.3 1.1 3.3z" id="VNM464" name="Vĩnh Phúc" data-id="VNM464" data-name="Vĩnh Phúc">
 </path>
 <path d="M506.2 432.2l2.7 3.6 5.6 4.6 6.6 3.8 0.4 3.8 1.3 4 1.8 1.6 2 0.7 3.9 0.4 1.2 0.7 2.6 2.6 1.2 0.2 1.3-0.4 2.1-1.2 1.6-0.2 1.1 0.9 0.7 1 1.5 0.9 3.3 0.5 0.9 0.6 0.8 1.1 0.6 1.9 0.3 2.1 0.1 2.3-1.4 6.8-5.2 13.5-0.9 0-0.4 2.4-2.1 6.2-0.7 1.3-2-0.5-2.2-1.3-1.8-1.6-0.7-1 0-0.7 3.4-2.5 1.2-1.5 0.3-0.8 0-1.1-0.4-1.4-1-1.3-1.4-1-2.2-0.5-4.6-0.4-2.3-0.7-2.5-1.5-2.7-2.2-3.5-2.2-7.7-2.3-5.8-3-8.7-6-28.8-24.6 2.7-2.7 1.4-0.1 1.8 0.2 2.1 1.2 7.4 6.1 2.5 1.5 2.8 0.4 1.6-0.6 1.2-1.4 0.3-2.2-0.3-2.5-0.5-2.4-0.8-2.1-0.2-1.2 0.2-0.9 1-0.9 4.5-2.7 1.7-0.5 1.5 0 4.9 2.5 4.7 0.7z" id="VNM466" name="Ninh Bình" data-id="VNM466" data-name="Ninh Bình">
 </path>
 <path d="M543 401.4l1.8 1 0.3 1.2 0.3 4 0.9 2 3 2.5 1.2 1.7 0.6 2 0.8 4.2 0.9 1.8-4.1 0.5-2-0.2-5 0.8-2-0.3-2.3 0.3-2 1.4-2.2 4-0.9 2.8-1 2.1-1.6 1-1.3 0.1-0.8-0.6-0.9-2.2-0.7-0.5-1.1 0.2-1.4 1-2.2 4.1-0.2 7.9-6.6-3.8-5.6-4.6-2.7-3.6-4.4-10.7-3.1-10.9 3.2-7.7 1-3.8 1.2-1.8 0.9-0.5 0.8 0.6 1.6 0.4 2.1 0 7.5-3.2 4.6 0.5 3-0.8 1.4-1 2.7-3.7 1.8 0.1 1.3 0.6 0.4 0.9-0.7 2.5-0.3 1.6 0.2 1.5 0.6 1.4 3 4.6 0.8 0.8 2.3 0.2 4.9-2.4z" id="VNM467" name="Hà Nam" data-id="VNM467" data-name="Hà Nam">
 </path>
 <path d="M596 449.4l0.3 0.4 1.1 0.5 1-0.6 0.6-1.4 3.2 2.4 0.6 0.7 0.4 1.3 1.4 2.4 0.8 2.1-0.3 2.1-2.1 1.1-1.8-0.2-1.6 0.5-3.3 0.8-4.3 0.3-1.8 0.4-8.8 1.1 0-1.1 0.9 0 0-0.9-1.6 0.3-1.3 0.6 0 1.1 1 1-0.9 0.8-2.9 1.2-0.9 1-1.8 3.9-4.7 6-3 2-3.3 4.8-3.1 1.9-3.3 3.9-2 1.2 1.3-3.2 0.5-0.7-1-1.1-1 2-1.6 4.3-1.1 1.7-2 1.2-5 1.3-2.3 1.4-0.8-2.1 0.4-2.4 0.9-2.5 0.4-2.9 5.2-13.5 1.4-6.8-0.1-2.3-0.3-2.1-0.6-1.9-0.8-1.1-0.9-0.6-3.3-0.5-1.5-0.9-0.7-1-1.1-0.9-1.6 0.2-2.1 1.2-1.3 0.4-1.2-0.2-2.6-2.6-1.2-0.7-3.9-0.4-2-0.7-1.8-1.6-1.3-4-0.4-3.8 0.2-7.9 2.2-4.1 1.4-1 1.1-0.2 0.7 0.5 0.9 2.2 0.8 0.6 1.3-0.1 1.6-1 1-2.1 0.9-2.8 2.2-4 2-1.4 2.3-0.3 2 0.3 5-0.8 2 0.2 4.1-0.5 0.7 0.7 2.5 0.9 0.9 0.7 0.4 1 0.1 1-0.6 3.3 0 2.1 0.8 1.5 1.9 0.6 3.8-0.2 1.4 0.7 1 2 0 2-0.6 1.6-0.9 1.5-0.6 1.9 0.5 1.8 1.4 0.3 1.8-0.7 1.5-1 2.8-2.8 1.5-0.7 2.1 0.1 0.7 1.3 4.3 2.2 1.1 1.1 2.1 2.4 5.4 4.2 1.7 0.6 1.7 0 1.7-0.5 2.1-2z" id="VNM468" name="Nam Định" data-id="VNM468" data-name="Nam Định">
 </path>
 <path d="M435.1 273l3.6 11.6 1.1 1.2 1.7 1.4 1.5 0.2 2.3 1 1.1 1.6 2.5 5.3 4.4 5.5 0.8 1.8 0.1 1.6-1.6 2.1-2.3 1.4-0.4-2.3-1.6-2.2-2.6-0.6-2.9 0.3-2.7 1.2-0.7 1.3-1.2 2.7 0.4 5.2-2.2 2.5-3.2 1.6-2.5 2.7-0.4 3 1.1 2.3 1.4 2 0.8 2.1-0.5 3.2-2.1 4.2-0.3 3.1 0.8 2.4 2.3 3.8 1.1 1.8 1 1 0.9 1.6 0.4 3.7 0 5.4-2.3 0.7-2.7-0.2-11.5-3.3-2.3-0.1-4.7 0.3-2.9-0.5-3.1-1.4-10-8.5-13.5-6.6-1.9-1.6-1.1-1.1-1.6-4.2-1.8-2.3-2.3-1.8-0.6-1.2-0.3-1.6 0.6-8.1-1.4-6.7-5-11.6 9-5.2 1.7-2 1.6-2.7-0.2-3.3-3-9.4-1.1-5.6 0.3-6.4 1.8-4.2 2.5-3.6 3.4-2.9 3.4-1.7 3.6-1.3 7.4-1.7 2.6-0.9 5.4-3.7 8.7 5.4 7.8 7.1 6.2 7.2 5.2 8z" id="VNM469" name="Phú Thọ" data-id="VNM469" data-name="Phú Thọ">
 </path>
 <path d="M550.5 264.8l-1.3 3.6 0.2 2.2 0.8 2 1.7 1.3 2.5 0.9 4.4 0.5 4.3 1.1 4.3 2 8.2 7.8 2.8 1.4 3.5 0.5 5-1 3.3-1.9 2.4-2.6 1.7-3.1 4.3-11 2.5-3.4 2.6-2.6 2.8-1.9 3.4-1 3.5-0.5 3.7 0.3 3.2 1.3 5 5.4 1.8 1.6 2.1 0.2 1.5-0.8 3-2.9 1.9-1.4 2.3-1.2 2.2-0.7 1.6 0.6 0.7 1.9 0.5 2.5 1.2 3.2 2.1 3.5 3.6 5.1 1.4 3.1 1.7 2.3 3 1.2 2.8-0.2 2.5-0.7 1.8-0.4 1.4 0.6 0.9 2.2 0 4.4 0.7 1.8 0.7 1.2 5.6 2.2-6.9 3.7-0.9 1.2-1.2 1.8-1.5 9.2-1 3.1-1.1 2.7-1.2 2-2.1 1.2-3.3 0.9-6.3 0.9-7.2 2.2-8.8 0.1-29-4.7-2.2-2-2.1-1.4-3.5-1.6-4.1-0.6-4.9 0.2-4.9 1.2-4.5 2.6-3.1 2.5-4.3 7.8-2.4-1.3-2.3-2.6-1.7-1-3.2-1.5-1.8-0.5-15.1-2.4-2.4-1-1.8-0.3-3.4 0.1-2.4-0.8-11.4-5.2 0.1-2.7-0.7-3.3-2.7-5.7 6.8-11.8 1.3-0.6 1.4-0.1 1.6 0.3 2.2-0.1 2.3-1.1 2.1-2.1 2.2-4 0.6-3 0-3-4.3-15.5-0.2-1.6 0.4-1.2 1.2-0.7 2.2 0 8.2 1.1 2.3 0.6 1.5 1.5 0.8 1.2 0.9 4.7z" id="VNM470" name="Bắc Giang" data-id="VNM470" data-name="Bắc Giang">
 </path>
 <path d="M608.3 399.2l0.8 1.2 2 2.4 0.7 0.5 1.1 0.3 0.1 1.6-0.1 0.8-0.8 1.4-2.3 0.9-3 2.8-8.7 3.5 2.4 1.3 2-0.1 4-2.1 0 0.9-1.7 2.3 1 2.1 1.3 2.1-0.6 2.6-0.9 0.1-3.8 1.4-1.2 0.8-1 1.1-1.5 2.5 0.9 0 1.8-1.3 3.2-1.3 3-0.4 1.4 1.4-0.5 6.3-0.9 3.3-1.5 2-0.7-1.4-1.1 0.3 2.4 2.4 0.9 3.1 0.2 2.2 1 6.8-1.5 1.7-3-3.3-1.3-1.8-1.8-1.4-2.1-0.7-2.3 0.8-0.9 0 0.7 1.1-2.1 2-1.7 0.5-1.7 0-1.7-0.6-5.4-4.2-2.1-2.4-1.1-1.1-4.3-2.2-0.7-1.3-2.1-0.1-1.5 0.7-2.8 2.8-1.5 1-1.8 0.7-1.4-0.3-0.5-1.8 0.6-1.9 0.9-1.5 0.6-1.6 0-2-1-2-1.4-0.7-3.8 0.2-1.9-0.6-0.8-1.5 0-2.1 0.6-3.3-0.1-1-0.4-1-0.9-0.7-2.5-0.9-0.7-0.7-0.9-1.8-0.8-4.2-0.6-2-1.2-1.7-3-2.5-0.9-2-0.3-4-0.3-1.2-1.8-1 0.1-2.6 1.6-1.4 1.9-1.1 2-0.3 7.2 0.3 2-0.8 1.6-0.9 3.3-2.5 21.7-3.4 1.8 7 2.4 6.2 1.6 2.8 1.2 1.2 0.9-0.1 2.6-0.9 3.4 0.1 1.2-0.3 1.2-0.5 0.9-0.8 0.9-2.3 1.4-0.9 4.4-1z" id="VNM471" name="Thái Bình" data-id="VNM471" data-name="Thái Bình">
 </path>
 <path d="M598.1 786.2l-1.1 0.1-5.9-1.4-11-1-4.8 0.8-2.5 1.8-1.5 2.1-1.3 2.3-1.4 1.5-3.1 0.7-4.3-0.2-14.6-2.7-8.4-2.6-2-1.3-0.5-1 0.2-2.7-0.1-1.8-0.8-2-1.4-2.2-2-2.1-2.5-1.7-3.2-1.5-8-1.4-4.9 0.2-4.3 0.8-5.3 2.2-8.8 2.6-2.6 1.1-3.5 3.2-3.9 2.7-10.7 1.7-1.8-3.8-3.2-1.8-1-1-0.5-1.4-0.5-3.2-0.7-1.6-1.1-1.1-2.4-1.3-1.1-1-2.2-5.1-0.6-0.4-1.5-0.3-0.7-0.6 0.7-1.6 0-0.9-1.1-3.8-0.8-1.3-2.1-1.7-2.7-1.1-2.9-0.2-2.5 1.1-0.8 1.3-0.6 3.2-0.5 1-1.3 0.8-0.7-0.8-1-0.5-2.1-0.5-2.5-1.1-2.2-1.5-1.4-2.1-0.1-1.6 0.9-3.5-0.2-1.6-1-1.5-1.2 0.4-5 0.5-1.4-0.4-1-0.9-1.1-2.2-0.8-1-6.6-4.1-1.3-1.9-0.1-3 0.9-1.8 0-1.8-2.3-2.4-4.3-3.2-3.1-3-1.5-4 0.7-5.9 2.1-8 1.8-4.2 1.9-2.6 1.7-0.2 1.6 0.5 1.3-0.2 1-2.4 0-0.5 3.6-0.1 10.7-1 15 4.8 3.7 0.7 3.3-0.2 3.2-0.8 5.9-0.4 15 2.1 2.5 0.2 0.9 0.6 3 1 2.6-1 2.1-3.5-0.7-0.8-0.3-2.1 0.6-0.6 1.8-0.6 0.4-1.3 0.7-1.2 1.7-1 3.2-1.2 2.6-1.2 0-3.4-0.4-8.7 2.3 1.2 0.8 4.1 0.2 4.2 0.6 1.9 0.9 1.6 3.2 10.2 7.3 11.9 4.9 5.4 4.6 0.3 0.4 2.7 0.9 2.8 1.2 2.5 1.3 1.9 3.1 2.3 1 1 5.2 6.6 7.1 6.1 1.6 2.1 0.3 1.8-2.6 0.6 1.4 1 2.3-0.5 2.9-1 3.2-0.5 2.1 0.8 7.2 5.6 0.9 0.5 2.9 1.1 1.2 0.8 3.8 4.9 4.5 3.5 1.9 1.8 1.1 2.5-1 0-1.3-0.8-1.8 0.4-1.5 1.1-0.9 1.4 1.8 0.9 1.1-0.7 1.7-0.2-0.8 1.7 0.3 1.3 1.4 2.8 0-1.7 0.4-1.7 0.7-1.5 0.7-0.9 1.5-0.8 1.8 0.9 1.5-0.1 1.1-0.8 2.6-3.2 1.7 0.7-0.2 1.4-1.5 2.8 0.7 3 1.5 3 10.8 13.6z" id="VNM474" name="Ha Tinh" data-id="VNM474" data-name="Ha Tinh">
 </path>
 <path d="M501.5 597.5l-1.2 1-2.3 0.3-1.2 4.2-1.7 0.1-1.9-0.3-0.3 0.7-1.6 8.9-0.2 5.2 1 3.7-3.5 1.7-1.3 0.9-0.9 1.3-3.7-1.2-3.3 3.5-2.6 5.3-1.4 4.3-0.1 1.8 0.7 1.4 0.3 1.2 0.2 1.9 1 4.6 0.7 1.8 1.8 2.5 3 2.5 3.3 2 3 0.9 0 0.9-1.9 2.1-0.5-1.3-0.8-0.9-1.1-0.6-1.4-0.2 1.5 3.4 0.4 0.6 0.9 0.3 2.4-0.2 1 0.4 2.8 3.1 1.5 2.2 0.7 2.1-2 5.9 0.6 0.9 1.2 1.2 0.3 2.7-0.4 3-0.6 1.9-3.2 1.2-1.7 1-0.7 1.2-0.4 1.3-1.8 0.6-0.6 0.6 0.3 2.1 0.7 0.8-2.1 3.5-2.6 1-3-1-0.9-0.6-2.5-0.2-15-2.1-5.9 0.4-3.2 0.8-3.3 0.2-3.7-0.7-15-4.8-10.7 1-3.6 0.1 0-1.8-0.9-1.2-2.9-2-3.9-6.5-1.7-0.5-1.5 0.2-1.6 0.5-1.7 0.1-3.3-1.2-6.8-4-2.2-0.5-2.3 0.7-2.7 0-2.4-0.6-1.4-1.4-1.3-3.6-3.6-1.1-7.8 0.6-1.9-0.2-5.2-1.6-5.6-0.8-1.6-0.6-1-0.9-1.6-2.4-0.7-0.8-1.4-0.5-2.6-0.2-1.4-0.4-2-1.4-3.7-3.8-2-1.5-4.5-2.5-1.6-1.5-4.7-7.1-1.6-1.6-2.3-1.4-2.6-0.7-4.2 0.4-2.4-0.5-1.7-1.3-3.9-6-2.3-2-2.2-1.1-2.3-0.7-2.6-1.2-2.1-1.7-1.7-1.9-2-1.5-2.8-0.7-3.9 1.2-1.2-1.2 0-2.6-0.5-2.8-1.4-1.4-5.4-3.8-15.1-6.8-2.8-0.7-2.8 0.2-3.1 1.2-4-2.9-3.4-1.8-1-0.7-0.7-1-1.7-3.5-2.2-0.2-2.5 0-1.3-0.6 1.1-2.5 1.8-1.4 4.8-2.2 2.1-1.5 2.7-4.1 1.6-1.4 2.9-0.7 3.1-1.6 3.2-1.2 2-0.2 0.5 0.4 1-2 0.5-1.4 0.6-3.3 0.8-1.6 1.4-0.8 1.5-0.3 1.1-0.7 0.6-1.7-1.6-2-0.4-2.3-0.2-2.5-0.9-2.3-1.5-1.3-4.3-2.6-1.5-2.1-2.7-7.5-0.3-1.8 0.8-2.3 1.2-0.5 1.6 0.4 6.5 3.4 2.6 0.9 2.7-0.4 1.1-0.9 1-2.2 1.6-1.6 3-0.1 9.6-2.6 1.8 1.5 4.7 1.7 2.5 4.2 6.3-4.1 2.5-0.6 2.7 0.3 1.6 1.2 1.3 1.8 1.9 1.9 1.1 0.8 3.5 1.5 7.7 4.7 2.3 0.5 3.1-0.4 1.2-0.5 2.1-1.4 1.2-0.4 1.2 0.3 2.3 1.3 1.3-0.1 1.2-1.5 4.3-11.6 1.1-1.9 1.8-1.9 2.1-1.6 1.7-0.4 1.8-0.2 2.6-0.8 3.3-3 3.3-1.5 2.7-2.1 1.3-4.5 0.3-2.4-0.1-1.3-1-0.8-2.5-0.9-4-0.2-0.7-0.8 0.8-2.7 2.6-3.3 7.4-4.4 3.1-2.4 1.2-2 0.3-1.2 0.6-0.7 2.6-0.4 4 0.4 1.8-0.3 1.4-1.1 2.3 0.5 7 2.7 6.6 4.1 4 1.6 8 2.2 2.4 1.5 1.4 2 0 1.8-1 1.9-3.3 3.5-1.1 2-0.5 2.3 0.3 3.5 1.1 4.2 2.9 6.3 3 3.9 7.8 7 2 2.7 1.2 3 0.2 3-0.2 6 0.1 2.5 0.7 0.7 1.2-0.3 3-3.1 1.3-1.1 1.6-0.6 1.8 0.2 2 1.2 1.8 2.2 4.1 5.9 2.1 1.5 2.8 0.6 6.4-0.7 3.1 0.6 3.8 2.3 2.2 2.6 3.5 5.6 1.3 1.3 1.5 0.9 2 0.9 2.7 1.9 7.5 7.6 1.7 1 8.7 1.2 5.8 2.9z" id="VNM475" name="Nghệ An" data-id="VNM475" data-name="Nghệ An">
 </path>
 <path d="M598.1 786.2l0.9 1 0 0.9-2.8 1.8-2.7 2.2-1.4 1.8-1.1 1.8-1.5 1.2-2.6 0 0 1 1.5 0.4 0.6 0.9-0.3 1.3-0.8 1.4 1.2 2.6 1.2 4.1 1.2 7.3 0.7 1.6 2.8 2.7 0.3 1.1-1.1 1.1-1.5-0.1-4.1-1.8-1.7-3.3-1.4-0.8-2-0.3-4.9-2.6-9.2-1-2-0.9-1 0.9 2 1.4 3.2 1.3 3.2 0.9 4.6 0.5 6.6 1.8 0 1-0.9 0-2.7-1.1-2.7 1.8-0.4 2.9 3.9 2.3-1.1-2.4-0.7-0.6 3-1.3 4.4 0.6 4.4 1.7 3 2 1.4 1.8 3.3 6 3.7 4.2 6.6 11.3 1.5 4.6 1.2 2.3 0.5 0.2 2.7 2.2 2.4 3.4 11.9 13.4 24.8 18.5 8.3 6.1-0.9 0.6-13.4 8.2-2.6 2.9-3.6 4.9-1.9 4.2-1.7 2.9-1.8 2.4-4.2 1.7-5 0.7-21.8-1.5-4.1 1.8-3.3 1.3-0.1-3.2-1.2-2.3-3.7 3.6-3.2-1-2.3-0.4-2.6-1-2.3-1.1-1.2-1-0.4-1.4-2.9-5.9 0.1-0.7 0.9-1.5 0-0.8-1.4-2.5-6.5-6.1-4.1-6.8-0.7-2.2 0.1-1.4 1.1-2.3 0.1-1.3-0.5-0.8-1.9-2-0.7-1-0.3-1.7 0.2-1.5-0.3-1.2-1.7-0.7-1.7 0.1-0.7 0.8-0.3 1.3-0.6 1.1-2 2.1-1.5 1-2-0.2-3-1.6-22.5-19.5-11.8-14.4-2.9-3-8.8-11.6-3.6-3.3-4.4-2.9-7.1-3.2-1.6-1.3-1.3-2.3-1.7-5.4-1.2-2.4-3.1-4.1-3.5-6.7-5.2-4.9-1.5-4.8 1.6-10.9-0.4-0.7 10.7-1.7 3.9-2.7 3.5-3.2 2.6-1.1 8.8-2.6 5.3-2.2 4.3-0.8 4.9-0.2 8 1.4 3.2 1.5 2.5 1.7 2 2.1 1.4 2.2 0.8 2 0.1 1.8-0.2 2.7 0.5 1 2 1.3 8.4 2.6 14.6 2.7 4.3 0.2 3.1-0.7 1.4-1.5 1.3-2.3 1.5-2.1 2.5-1.8 4.8-0.8 11 1 5.9 1.4 1.1-0.1z" id="VNM476" name="Quảng Bình" data-id="VNM476" data-name="Quảng Bình">
 </path>
 <path d="M888.9 1485.2l8.7 14 1.9 2.1 2.8 2.2 7.8 5 6 3 3.3 1.1 11.2 2.6 9.3 3.9-9 7.9-1.1 0.7-1.3 0.2-2.8 0-1.3 0.1-2.2 1-1.1 1.6-1.2 2.5-2 5.9-0.2 2.8 0.2 2 0.6 1.2 0 1.5-0.6 2-1.4 3.2-1.4 4.6-0.8 1.3-1.8 0.7-1.7-0.4-4.9-2.7-1.3-0.5-1.4-0.1-1.4 0.3-1.5 0.5-2.5 1.3-1.9 0.3-3-0.6-1 0.1-0.9 0.7-0.7 1.3-0.6 2.9-0.3 5 0.5 6 1.8 9.2-5.8 3.4-2.1 0.6-2.7 0.4-2.4-0.4-6.7-2.9-2.8-0.7-2.2 0.2-2.1 0.8-7.9 6.8-2.3 1.2-2.4 0.2-5.7-1-1.8 0.2-1.9 1-2 1.5-4.1 2-2 1.4-1.2 1.2-0.4 1.2-0.3 2.3-0.8 0.9-0.9 0.2-1.9-0.8-1.3-0.4-2.8-0.1-3.9-0.9-2 0-1.3 0.6-2.9 2.1 1.7-5.3-0.2-1.5-0.5-0.6-3.2-2.2-3.3-6-2.6-1.4-1.5-2.3-2.3-1-2.6-0.6-2.1-0.2-2.2-0.5-1.6-1.1-3.5-5.4-0.9-2.2-0.5-2.6-0.1-3 0.7-2 1.8-1.6 2.1-0.6 1.9 1 1.4-1.8 1.6-2.9 0.8-2.7-2.3-1.7-1.7-1.9-7.4-2.4-1.6-1.1-0.3-0.9 0.1-1.8 0.4-1.3-5.1-3.6-1.4-12.7-2.9-5.2-24 0-17 0.6-0.4-4.2 0.2-3.7-0.4-3.7-1.8-3.8-3.9-4.4-0.9-1.6-0.5-2.1-0.5-4.3-1.6-3.5-0.3-1.5 0.3-1.5 0.8-1.4 1-1.3-0.4-1.9-2.1-1.6-0.4-2 13.8-33.5 4.1-2.1 4-2.2 5.5-4.3 1.2-0.8 1.4-0.5 16.4-2.3 17.2 0.6 2.3-0.3 2.4-0.7 9.2-4.4 2.3-0.5 2.9-0.1 5.2 0.6 34.8 12.4 3.2 2.2 3 3.9 1.7 3.3 1.6 3.6 5.1 17.8 5.8 5.8 19.9 5.1z" id="VNM477" name="Dak Lak" data-id="VNM477" data-name="Dak Lak">
 </path>
 <path d="M889.7 1261.5l2.2 9.7 0.5 9.8-1.5 11.7-5.6 21.9 0.1 9.1 1.1 6 2.1 4.5 2.2 3.1 4.1 4.6 1.3 1.9 0.5 1.9-0.1 2.6-0.5 2.9-0.3 3.6 0.5 3.2 1.7 3.6 6.2 8.5 3.4 6.4 1.2 3.9 1.9 11.5 0.5 15-0.5 17.7 0.4 3 0.9 2.7 2.3 4.9 0.8 2.5 0.1 2.5-0.3 2.8 0.1 2.5 0.5 2.1 2.1 3.7 0.6 1.9-0.3 2-1.3 2.3-2.7 2.8-4.5 3.3-11.3 6.3-2.9 2.2-2.7 2.6-3 4.5-0.6 6-19.9-5.1-5.8-5.8-5.1-17.8-1.6-3.6-1.7-3.3-3-3.9-3.2-2.2-34.8-12.4-5.2-0.6-2.9 0.1-2.3 0.5-9.2 4.4-2.4 0.7-2.3 0.3-17.2-0.6-16.4 2.3-1.4 0.5-1.2 0.8-5.5 4.3-4 2.2-4.1 2.1 6.1-15 0.5-4.3-0.8-13.7-1-5.1-11.2-22-2.4-3.4-3.1-3.5-1.6-2.7-2.6-3.1-0.7-2.1 0.1-1.5 0.9-3 0.1-1.2-1.5-4.3 0.7-2.3 0.7-1.6 0.4-1.6-0.3-1.7 2.8-1.5 8.9-6.2 5.3-4.8 5-5.5 2.9-4.8 1.8-4 2.1-3.5 3.1-2.9 5.3-3.8 9.1-4.2 49.7-16 14.5-6.8 10.3-7.3 6.3-6 3.8-6 1.6-4 0.5-2.9-0.2-1.8-0.4-1.2-1.6-2.3-0.3-1.1 0.2-1.3 1-0.6 1.3-0.3 1.9 0.1 1.7 0.4 3 1.5 1.1 0.4 1.5 0.1 16.9-4.4 6.6 6.2z" id="VNM478" name="Gia Lai" data-id="VNM478" data-name="Gia Lai">
 </path>
 <path d="M979.5 1593l1 0.4 0.8 0.7 0.9 1.7-2.1 1.6-0.6 0.3-0.8-0.9-0.8-0.5-1.1-0.1-0.4 0.9 0.2 0.6-2.7-0.3-2.5-1.3-2-1.7-1.2-1.4 0-1 3.8 1 0-2 2.4 1 5.1 1z m10.4-48.6l-0.7 1.8-2.2-0.7-5-3.5-1.6-2.1-1.6-0.5-1.6-1.1 1.2-1.9 3.5-0.4 3.1 0.5 1.9 0.5 1 1.4 0.4 1.7 1.6 4.3z m-2.8-36.6l-1 0.2-1.2 1.1 0.9 1.1 0.2 1.7-0.1 1.9 0 2 6.1 11.8 2.1 2.4 2 0.1 2.5 1.8 0.4 0.6-0.3 1.1-1.8 0.6-0.8 0.7-0.3 2.1 0.5 5.6-0.2 1.8-1.5 0.8-1.4-1.5-1.7-4.1-1.6-1.8-0.3-1.5 2.8-2.4 0-0.9-2.8-4.9-0.2 1.4-0.8 0.6-1.1 0.2-1.6-0.2 0.6 1.2 0.2 1.2-0.2 1.2-0.6 1.2-0.7-1.4-1-1-1.2-0.5-1.7 0 2.5-3.6 0.3-0.7 3.1-1.6 0.6-1.3-0.5-2.2-2.3-3.2-0.9-1.7 0-4.2-0.5-0.6-1.5 0.3-0.5 0.9-0.1 1.1-0.7 1-4.7 3.1-1.3 1.3-3.3 4.1-2 1.8-1.7 0.8-1.2 0.9-3.9 5.7 0 1.3 0.4 5.4-1 0.9 0.1 2.2 0.5 2.2 0 1.3 0.9 0.3-0.1 0.7 1 0 0.5-1.4 0.2-1.7 0.6-1.2 1.5-0.5 0-0.8-0.9 0 0-1.1 2.3 0.8-0.3 1.9-1.2 2.3-0.8 2.1 0.7 2.5 1.6 1.8 6.7 4.4 0.7 1.1-1.4 2.9 0.1 1.4 0.6 1.1 0.7 0.5 2 0.7 2.5 1.7 1.2 1.9-1.5 1.5 1 1-1 0.9-1.6-1.9-1 1.2-0.9 2.4-1.6 1.2-2-0.7-1.4-1.6-1.8-3.4-5.9-6.7-4.1-2.6-3.9 0.6 0.7 0.8 0.7 1.5-2.3-0.3 0.7 1.9 2.1 2.3 0.9 1.5 2.6-0.5 1.4 2.2 0.5 3.3 0.1 3.1 0.4 1.1 1 1.5 1.1 1.2 1.7 1.2 0.1 1.2-0.8 0.8-1.6-0.8-0.9 0-0.5 0.9-1.3 3.8-3.1-1.4 0 0.7 1.3 1 2.6 1.7-0.8 2.1 0.5 1.6 1.2 1.4 1 1.5-3.6-1-1.4 0.3 0.4 0.8 1.8 0.9 0.7 1.1 0.7 3.8 1 1.2 0.7 1.6-0.6 1.3-1.6 1.5-0.1 1.2 0.5 5.7 0.9 2.5 3.9 7.3 1.2 1.5 3.9 2.7 0 0.9-0.4 2.9-2.4 1.9 0 2.3 0.6 2 1.4 1.6 1.8 0.7 0 1-2.2 0.9-2.2-0.1-1.9-1-1.2-1.7-1.9 0.9-1.1-4.2 0.8-10.1-1.6-4.7 1 0-3-8.2-1.3-6-1.3-1.6-1.8 2.4 1.7 3.3 0.8 1-0.7 3.9 0.7 1.4 3.2 3 0.7 2.2-0.4 4-1.2 4-2.3 3.6-3.5 3.2-2.6 0.4-1.5 4.5 0.7 4.7 4.4 0.8 0.6-1.3 2-2.7 2-2.3 1 0.2-0.5 2-1 1.7-0.1 1.9 1.6 2.4-0.1 3-2.9 0.3-1.7-0.1-4.9-0.7-2.7-0.8-2.1-1.3-1.7-1.7-1.7-3-1-4.4-0.8-1.9-1.4-1.6-2.3-1.3-8.5-2.6-8.9-1.4-1.9-0.9-1.8-1.6-1.4-3-0.8-2.3-2.6-5.6-3-9.5-1.4-3.2-2.4-2.9-2-1.8-7.9-3.2-1.7-12.4-1.7-3.8-1.7-0.7-1.8-9.2-0.5-6 0.3-5 0.6-2.9 0.7-1.3 0.9-0.7 1-0.1 3 0.6 1.9-0.3 2.5-1.3 1.5-0.5 1.4-0.3 1.4 0.1 1.3 0.5 4.9 2.7 1.7 0.4 1.8-0.7 0.8-1.3 1.4-4.6 1.4-3.2 0.6-2 0-1.5-0.6-1.2-0.2-2 0.2-2.8 2-5.9 1.2-2.5 1.1-1.6 2.2-1 1.3-0.1 2.8 0 1.3-0.2 1.1-0.7 9-7.9 5-0.2 2-1 2-1.6 4-4.9 3-2.8 2.8-1.6 2.7-1 2.7-0.5 2.8-0.2 5.6 0.4 6.1-0.6 2.8 0 2.5 0.6 1.5 0.7 1.7 1.4z" id="VNM479" name="Khánh Hòa" data-id="VNM479" data-name="Khánh Hòa">
 </path>
 <path d="M896.8 1598.5l-2.1 2.1-1.2 1.5-1.1 2.1-0.5 2.4 0.3 2.8 0.7 2.4 0.3 3.1-1.6 12.5-5.9 18.6 0.3 4.2 1.1 2.5 1.3 1.7 2.4 2.4 0.8 1.2 0.5 1.4-0.2 2.1-1 2.7-2.9 3.9-4.8 4.1-1.2 1.4-0.4 2 0 1.6 1.7 6.9-1.2 1.9-1.6 4.1-1.1 1.6-1.5 0.6-2.2-0.8-3.9-2-2.9-0.3-17.3 0.5-2.8 0.6-3.3 1.6-1.9 1.8-1.1 1.7-0.6 2.2-0.1 2.5 0.2 2.4 0.8 2.2 2 3.6 0.3 1.4-0.4 1.5-1.4 1.7-2.7 2.3-3.4 2.4-4 2.2-4.2 1.6-5.8 0.9-3.3 1-2.8 1.6-1.9 2.1-3.5 5-1.9 1.5-1.7 0.6-1.2-0.3-0.6-0.8 0.4-4.5-0.1-2-0.3-1.8-0.9-1.7-1.9-1.5-2.9-1-34.5-1.9-4-0.6-4.8-1.2-4.7-2.3-6.4-2.3-11.2-5.7-5.9-0.7-2.1 0.1-1.6-0.5-1-0.9-0.7-1.9-0.1-1.5 0.3-1.1 1.9-2 0.5-1.3-0.6-1.3-1.3-1.1-2.9-1-2.5-0.6-1.5-0.5-0.9-1.1-0.1-1.1 0.1-3.5-0.5-1.3-1.8-0.6-3.8 0.1-5.2-0.9-0.1-2.7-1.5-3.2-2-2.6-0.2-1.7 0.6-2.1 2.6-5.2 1.9-2.2 1.3-1.3 8.5-4.7 4.1 1.1 1.5 0.1 1.6-0.2 3-0.7 1.5-0.7 1.8-1.4 1.7-1.1 2.3-0.7 4.2-0.6 1.8-0.7 8-5.3 7.3-6.6 0.8-1.3 0.8-2 0.7-0.9 1.2-0.5 2.2-0.4 1.4 0.2 1 0.3 0.7 1.4 0.2 2.1 0.5 1.6 0.9 0.9 2.6 1.8 1.9 0.1 4.7-0.7 2-0.7 4-0.6 1.3 0 1.4 0.3 1.2 0.5 0.8 0.9 0.5 1.1-0.1 2.8 0.1 1.8 0.6 1.4 1 1 1.6 0.2 4.5-0.7 1.5 0.2 1 0.6 1.2 1.7 1.5 1.2 1.4-0.5 2.2-1.7 4.8-5 2.7-4 1.3-3.9-0.3-2.4 0.8-3.7-0.7-2.4-0.9-0.7-1.2-0.4-1.1-0.8-1-2.5-3.3-3.3-1.3-1.7-0.4-1-0.3-3.5-0.5-0.8-0.9-0.5-3.1-2.5 0-1.9 0.3-1.4 1.2-3.2 0.4-1.6 0.9 0 1.2 0.7 1.4-1 1.8-1.5 2.2-1 5.5 0.8 2.6-0.4 0.5-1.2 2.9-2.1 1.3-0.6 2 0 3.9 0.9 2.8 0.1 1.3 0.4 1.9 0.8 0.9-0.2 0.8-0.9 0.3-2.3 0.4-1.2 1.2-1.2 2-1.4 4.1-2 2-1.5 1.9-1 1.8-0.2 5.7 1 2.4-0.2 2.3-1.2 7.9-6.8 2.1-0.8 2.2-0.2 2.8 0.7 6.7 2.9 2.4 0.4 2.7-0.4 2.1-0.6 5.8-3.4 1.7 0.7 1.7 3.8 1.7 12.4z" id="VNM480" name="Lâm Đồng" data-id="VNM480" data-name="Lâm Đồng">
 </path>
 <path d="M962.6 1653l-0.1 0.6 5.4 6.7-1.5 3-1-1-1 1-1.2 2.9-2.4 3-0.3 1.2-0.1 1.4-0.5 2-0.8 1-2.4 2.1-0.6 1.1-0.3 1.6-0.8 1.5-1.7 2.2-0.9 0-1.6-1.4-2-0.1-2.3 0.2-2.5-0.6-1.6-1.8-1-4.8-0.6-1-3.2 0.8 0.2 1.7 1.6 1.8 1 0.8-0.3 2-0.5 1.8-0.1 2.1 0.9 2.3-3.8 0 2.1 3.5 0 6-1.2 9.4 0.4 5.3-0.6 1.7-1.7 1.7-3.3 2.7-2 1.3-2 0.6-2.5-0.1-3.7-1.7-0.3-2.1-0.6-1.9-1.7-2.7-2.5-2.3-3.8-1.6-2.7-0.4-4.2 0.3-1.5-0.2-0.9-0.8-0.5-1.7-0.4-3.9-0.3-1.5-0.9-0.9-3.4-0.9-1.3-0.7-0.9-1.3-0.3-1.5-0.5-3.8-0.6-1.7-1-1.5-2-1.2-2.1-0.9-6.4-0.2-1.7-6.9 0-1.6 0.4-2 1.2-1.4 4.8-4.1 2.9-3.9 1-2.7 0.2-2.1-0.5-1.4-0.8-1.2-2.4-2.4-1.3-1.7-1.1-2.5-0.3-4.2 5.9-18.6 1.6-12.5-0.3-3.1-0.7-2.4-0.3-2.8 0.5-2.4 1.1-2.1 1.2-1.5 2.1-2.1 7.9 3.2 2 1.8 2.4 2.9 1.4 3.2 3 9.5 2.6 5.6 0.8 2.3 1.4 3 1.8 1.6 1.9 0.9 8.9 1.4 8.5 2.6 2.3 1.3 1.4 1.6 0.8 1.9 1 4.4 1.7 3 1.7 1.7 2.1 1.3 2.7 0.8 4.9 0.7 1.7 0.1 2.9-0.3z" id="VNM481" name="Ninh Thuận" data-id="VNM481" data-name="Ninh Thuận">
 </path>
 <path d="M987.1 1507.8l-1.7-1.4-1.5-0.7-2.5-0.6-2.8 0-6.1 0.6-5.6-0.4-2.8 0.2-2.7 0.5-2.7 1-2.8 1.6-3 2.8-4 4.9-2 1.6-2 1-5 0.2-9.3-3.9-11.2-2.6-3.3-1.1-6-3-7.8-5-2.8-2.2-1.9-2.1-8.7-14 0.6-6 3-4.5 2.7-2.6 2.9-2.2 11.3-6.3 4.5-3.3 2.7-2.8 1.3-2.3 0.3-2-0.6-1.9-2.1-3.7-0.5-2.1-0.1-2.5 0.3-2.8-0.1-2.5-0.8-2.5-2.3-4.9-0.9-2.7-0.4-3 0.5-17.7 11.4 2.7 4.6 0 4.7-0.6 11.4-4.5 2.5-1.8 8.6-10 2.6-2 6.6-1.6 3.5-1.9 0.2 1 0 3.8 0.3 2.8 0.9 3 1.3 2.4 1.7 0.9 0.1 0.7 1.6 1.2 1.8 1.1 0.7-0.1 0.4 1.3 0 0.9-0.8 0.5-1.5 0.2 0 0.9 0.8 1 0.2 1.9-1.1-1.2-3.1-5.4-1.4-3.4-3.6-4.2-1.1-2.1-1 0-0.1 2.2 0.7 1 1.2 0.6 1.1 1 0.7 1.5 0.5 2.8 0.6 1.5 1.7 1.6 1.3 0.7-0.7 1.5 0.5 1.4 2.8 3.4 1 0 1-1.1 1.7-0.8-0.4 1.4-1.2 1.6-0.2 1.2 0.4 1.8 1.2 1.2 1.5 0.2 1.5-0.8 0.7 1.4-1.2 1.9 0.5 1.6-1.3 2.5-0.9 1.2-1.5 1-1.1-1.5-3-0.6-0.5-1.3 0.6-0.9 1.5-0.6 1.3-0.9 0.3-1.8-0.9-1-4.3-2.9-1.3 0.1-1 0.5-0.9 1.1-0.9 2.2 0.7 1.1-0.4 2.3 1.5 1.4-1.1 1-0.4 1.4-0.3 2.3 2.3 1.2 2.3 3.2 1.9 1.2 1.5-1.4 1.1-0.2 1.1 1.6 0.2 1.6-0.4 1.1-1.1 0.5-1.5-0.1 0 0.8 0.7 0.7 0.4 1.8-0.1 1.4-2.8-1.9-0.7 1.3-1.3 0.6 1.9 4.7 1.2 2 1.7 1.9-0.2-4.4 0.5-1.6 1.5-0.7 0-0.9-0.6-1.1 0.7-0.8 0.8 0.9 0.6 1.2 0.2 1.3 0.2 2.8-0.3 1.1-1.6 3.2 0 1.4 0.9 2.8-0.3 2.3-0.7 2.2-0.3 2.1 0.4 2.5 1.1 1.9 1.3 1.7 0.9 1.9-0.4 1.2 1.7 1.2 1.1 1.1 2.8 5.1 3.6 4 2.7 4.4 5.7 6.6 0.9 1.5 0.3 2.2-0.1 2.6-0.5 2.3-0.6 1.5-3.1 0.9-0.6 0-0.4-1 1.7-1.2 1.3-1.7-0.2-0.5-1.4-0.3-2.9 1.9-1.3 2.9-0.6 0.9-1.1 0.4-1.4 0.2z" id="VNM482" name="Phú Yên" data-id="VNM482" data-name="Phú Yên">
 </path>
 <path d="M658.7 1723l-4.2 9.5-0.4 2.3 0.6 1.4 1.2 0.8 1.3 1.6 1.4 2.4 1.4 4.3 0.2 2.1-0.5 1.7-2.4 4.3-5.7 4.7-1.4 0.5-1.6 0.1-1.7-0.3-1.7-0.8-1.4-1.1-1.3-1.2-1.1-0.6-1.4-0.2-1.7 0.5-1.9 0.9-1.8 1.5-0.5 1.2 0.5 2.6-0.1 2.6 0.1 1.1 1.4 2.6 1.1 1.6 1.5 1.6 2.1 2.9 0.5 4.1-5-0.9-1.6 0.4-5.1 1.8-2.1 0.5-1.7-0.1-1.3-0.7-1.8-2.8-3.4-4.5-2.7-4.5-4.7-6.1-0.2-2.1-0.2-0.8-0.7-0.4-2.6 0-1.2-0.5-1.2-1.6-5.9-9.9-1.2-1.3-1.1-0.8-2.1-0.1-1.7 0.1-7.6 1.6-1.2-4.4-1.8-2.2-2.2-1.6-1.4-1.7-0.6-2.3-1-2.3-0.8-1.1-1.5-2.9-0.8-2-0.5-2.3-0.2-2.2 0.2-5.4 0.5-2.7 0.8-2.5 3.6-7.7 1.1-1.6 2.1-2.1 1.3-1.1 2.5-3 4.6-8.3 2.2 2 2 1.4 1.5 1.5 1.1 1.3 0.4 1.1 0.5 2.1 1.2 0.9 1.7 0.3 1.9 0.5 2.1 1 3.9 2.3 1.6 1.3 0.9 1.2 0 1-0.2 2.8-0.5 3.4 0.1 1.3 0.5 1.2 1.4 1.8 0.5 1 0.1 2.1 0.7 0.9 1.2 0.4 2.6-0.3 1.5-0.9 0.8-1.3 0.7-3.1 1-0.5 1.4 0.3 2 1.8 0.6 1.1-0.1 1-1.3 1.6-0.3 1 0.7 0.6 1.5 0.3 3.3-1 1.6-1.2 1.7-2 1.8 0 2.8 0.8 9.9 4.1 6.6 2.1 4.3 0.2z" id="VNM483" name="Bình Dương" data-id="VNM483" data-name="Bình Dương">
 </path>
 <path d="M627.9 1868.7l-1.9 0.3-0.8-0.6-1.2-1.7-2.6-1.1-17.7-3.3-6.5-2.8 2.1-0.2 4.6 2 3.6 0.8 15.6 0.2 2.9 0.9 3.1 0.8 1.2 0.8 0.4 1.8-0.8 1.1-2 1z m-16.7-28.6l2.1-1.3 1.5-1.8 1-2.1 0.9 0 0.7 1.9 0.3 2.2 1 1.6 2.7-0.1 1.1-1.1 2.1-3.7 1.4-0.8 2.3 0.8 1.5 2 1.1 2.4 1.2 1.9 1.8 2 0.8 2 1 12-0.6 3-2.1 1.3-2.6-0.2-7.1-1.7-14.4 0.1-9.9-2-5.1 0-2.6-0.6-2.2-1.2-2-0.8-2 0.7-1.4-0.9-4.5-1.8-1.7-0.3-1.7-0.1-1.6 0.2-6.8 2.5-1.7 0.3-7-0.2-3.3 0.5-6.2 2.4-2.6 0.2-4.3 0-3.3-0.7-6.5-2.4-2.2-0.3-2.1 0-2.1 0.3-2 0.8-2.3 1.7-0.2 1.7-7.7-0.3-6.6-1.5-0.6-0.7-0.8-5.2 0.5-1.1 0.8-1.3 1.3-0.9 12.3-15.5 1.2-3.2 0.7-2.5 0-4.4 5.4 0.3 6.5 1.1 3.8-0.1 2.8-0.6 1.4-1.1 2.4-3.2 2.5-1.4 2.8-0.3 14.2 0.8 2.4 0.4 1.7 1 1.8 1.5 5.7 8.1 1.8 1.2 2.4 1 3.8 0.6 2.1 0.9 1.3 1.1 0.5 1.3 0 1.3-0.4 2.8 0.3 1.3 1.2 0.9 1.9 0.4 6.3-0.5 4 0.5 5.8-0.1 3.1-1.4 1-1.6z" id="VNM4834" name="Tiền Giang" data-id="VNM4834" data-name="Tiền Giang">
 </path>
 <path d="M815.1 1602.6l-0.5 1.2-2.6 0.4-5.5-0.8-2.2 1-1.8 1.5-1.4 1-1.2-0.7-0.9 0-0.4 1.6-1.2 3.2-0.3 1.4 0 1.9 3.1 2.5 0.9 0.5 0.5 0.8 0.3 3.5 0.4 1 1.3 1.7 3.3 3.3 1 2.5 1.1 0.8 1.2 0.4 0.9 0.7 0.7 2.4-0.8 3.7 0.3 2.4-1.3 3.9-2.7 4-4.8 5-2.2 1.7-1.4 0.5-1.5-1.2-1.2-1.7-1-0.6-1.5-0.2-4.5 0.7-1.6-0.2-1-1-0.6-1.4-0.1-1.8 0.1-2.8-0.5-1.1-0.8-0.9-1.2-0.5-1.4-0.3-1.3 0-4 0.6-2 0.7-4.7 0.7-1.9-0.1-2.6-1.8-0.9-0.9-0.5-1.6-0.2-2.1-0.7-1.4-1-0.3-1.4-0.2-2.2 0.4-1.2 0.5-0.7 0.9-0.8 2-0.8 1.3-7.3 6.6-8 5.3-1.8 0.7-4.2 0.6-2.3 0.7-1.7 1.1-1.8 1.4-1.5 0.7-3 0.7-1.6 0.2-1.5-0.1-4.1-1.1 1.4-4.6 0-1.7-0.5-1.4-1.2-1.6-1-2-0.9-2.4-0.9-6.3-1-3.1-2-3.1-2.1-2.3-7.7-5.2-2-3.5-1.5-6.3-2.5-32.5-0.1-1.6 6.5-2 6-0.5 3.2 1.9 4.1 6.4 2.6 2.3 3.1-0.2 4.6-6.2 3.3-2.3 3.5-1.5 2-2.5 1-3.1 0.7-3.4 4-11.4 0-3.2-0.9-1.9 0.2-1.5 0.9-1.5 0.7-1.7 0.5-4.3-0.2-4.5-3.4-15.3 17-0.6 24 0 2.9 5.2 1.4 12.7 5.1 3.6-0.4 1.3-0.1 1.8 0.3 0.9 1.6 1.1 7.4 2.4 1.7 1.9 2.3 1.7-0.8 2.7-1.6 2.9-1.4 1.8-1.9-1-2.1 0.6-1.8 1.6-0.7 2 0.1 3 0.5 2.6 0.9 2.2 3.5 5.4 1.6 1.1 2.2 0.5 2.1 0.2 2.6 0.6 2.3 1 1.5 2.3 2.6 1.4 3.3 6 3.2 2.2 0.5 0.6 0.2 1.5-1.7 5.3z" id="VNM4835" name="Đắk Nông" data-id="VNM4835" data-name="Đắk Nông">
 </path>
 <path d="M716.4 1658.1l-8.5 4.7-1.3 1.3-1.9 2.2-2.6 5.2-0.6 2.1 0.2 1.7 2 2.6 1.5 3.2 0.1 2.7-10.1 5.3-12.7 4-2.9 1.6-2 1.7-1.2 2.2-0.7 1.8-0.5 1.8-0.4 3.4-0.5 0.9-1.7 2.1-1.4 2.7-1.4 1.9-2.8 2.9-2.3 1.6-1.1 1.1-1 1.9-0.9 0.8-3 1.5-4.3-0.2-6.6-2.1-9.9-4.1-2.8-0.8-1.8 0-1.7 2-1.6 1.2-3.3 1-1.5-0.3-0.7-0.6 0.3-1 1.3-1.6 0.1-1-0.6-1.1-2-1.8-1.4-0.3-1 0.5-0.7 3.1-0.8 1.3-1.5 0.9-2.6 0.3-1.2-0.4-0.7-0.9-0.1-2.1-0.5-1-1.4-1.8-0.5-1.2-0.1-1.3 0.5-3.4 0.2-2.8 0-1-0.9-1.2-1.6-1.3-3.9-2.3-2.1-1-1.9-0.5-1.7-0.3-1.2-0.9-0.5-2.1-0.4-1.1-1.1-1.3-1.5-1.5-2-1.4-2.2-2 2.8-0.7 0.6-0.4 0-1.7-0.4-2.6-2.1-8.5-1.5-2.2-3.5-1.2-1.1-3.1-3.7-6.3-0.2-2.2 0.8-1.9 1.1-1.9 0.9-1.9 0.2-1.2 0.2-3.6 2-3.3 0.4-0.3-0.8-3.4-4-7.6-1.3-3.7 3.2-0.9 1.6-0.1 1.7 0.3 1.3 0.9 0.5 1.2 0.7 0.9 1.8 0.1 4.2-2.9 6.5 0.1 11.7 1.6-1.1-2.1 6.8 1.5 2.9-0.8 2.6-3.5 1.6-4.5 2.2-3.3 3.1-1.9 4.2-0.3 10.4 0.8 5-0.6 5-2 3.3-2.2 9.3-9.3 4.3-5.4 3.6-2.5 1.6-1.5 0.9-2 4.1-4.3 8-4 2.2-0.7 0.1 1.6 2.5 32.5 1.5 6.3 2 3.5 7.7 5.2 2.1 2.3 2 3.1 1 3.1 0.9 6.3 0.9 2.4 1 2 1.2 1.6 0.5 1.4 0 1.7-1.4 4.6z" id="VNM484" name="Bình Phước" data-id="VNM484" data-name="Bình Phước">
 </path>
 <path d="M945.4 1250.8l0.6 9.3 0.7 1.4-0.1 1.5-1.3 0-0.8 1.5-0.9 0.6-0.4 1 0.8 1.8 0.9-2.8 0.1-1.1 4.6 12.6 2.4 3.2 0.6 2-0.2 7.6 0.3 1.9 0.7 2.4 1.8 3.9 4.3 4.8 1.3 1.9 0.5 1.9 0.9 5.8-1.4 2.2 1.9 4.8 4.6 7.4-2.5-0.3-1.1-1.3-0.6-1.7-1.4-1.6-3.1-0.6-0.3 2.2 1.6 2.9 4.2 2.3 1.4 2.2 3.7 10 1.8 15.6 1.2 2 3.6 2.9 0.8 1.3-0.9 11 0.4 5.4-1.1 0.5-3.5 0-0.3-1.5 0.8-8.1-1.9-7-1.1-2.3-1.7 1.5-0.4 1.5-0.5 5.2-1.4 2.6-0.2 1 1.6-0.6 1 3.2 0.9 1.1 1.7 0.4-1.5 1.6-1.7 1.3-1.2 1.8-0.2 3 1.7 3.3-3.5 1.9-6.6 1.6-2.6 2-8.6 10-2.5 1.8-11.4 4.5-4.7 0.6-4.6 0-11.4-2.7-0.5-15-1.9-11.5-1.2-3.9-3.4-6.4-6.2-8.5-1.7-3.6-0.5-3.2 0.3-3.6 0.5-2.9 0.1-2.6-0.5-1.9-1.3-1.9-4.1-4.6-2.2-3.1-2.1-4.5-1.1-6-0.1-9.1 5.6-21.9 1.5-11.7-0.5-9.8-2.2-9.7 6.1-3.7 4.4-1.9 6.5-4.2 3-1 6.5-0.9 15.8 0.9 7.4-1.2 2.3-0.2 2.9 0.8 0.8 0.7z" id="VNM485" name="Bình Định" data-id="VNM485" data-name="Bình Định">
 </path>
 <path d="M839.4 1198l5.3 5.1 2.1 1.5 5.6 5.2 5 9.9 1.8 2.3 3.1 2.9 2.4 1.6 2.6 1 4.4 1.1 1.9 0.7 1.6 2.1 1.6 3.7 3.3 12.4 3 7.8-16.9 4.4-1.5-0.1-1.1-0.4-3-1.5-1.7-0.4-1.9-0.1-1.3 0.3-1 0.6-0.2 1.3 0.3 1.1 1.6 2.3 0.4 1.2 0.2 1.8-0.5 2.9-1.6 4-3.8 6-6.3 6-10.3 7.3-14.5 6.8-49.7 16-9.1 4.2-5.3 3.8-3.1 2.9-2.1 3.5-1.8 4-2.9 4.8-5 5.5-5.3 4.8-8.9 6.2-2.8 1.5-0.1-0.7-1.9-4.1-0.2-1.3 0.2-1.3-0.1-1.4-0.8-1.3-2.1-0.9-5.1 0.5-2.3-0.8-1.6-2.6 0.1-2.8 0.4-2.9-0.3-2.8-1.5-2.4-1.2-1.3-0.6-1.6 0.6-3.4 4.6-13.3 0.7-4.9 0-1.3-0.4-1.4-1.2-2.7-0.3-1.3 0.3-2.9 1-2.5 2.8-4.9 0.5-2.6 0.5-1.2 1-1 1.8-0.5 0.8 0.6 0.5 0.9 0.9 0.5 2.6-0.7 1.7-1.4 1.2-2.2 1.7-3.6 0.6-2.9 0.6-1.9 1.9-2.9 0.7-1.6 0.2-2.2-0.5-4.2 0.2-2.1 3.1-7.1 0.7-3.6-1.6-3.7 0.2-2-1-1.3-1.4-1.2-0.8-1.3 1.5-1.8-0.7-2-1.4-2.2-0.4-2.2 1.1-1.9 5.6-5.5 2-2.7 0.4-1.5-1.1-1.2-8.2-6.3-2.1-1.1-1.6-1.2-1.1-1.6-0.6-1.8 0.2-2.1-0.9-2.3 0.1-1.9 1.3-1.2 2.6-0.2 6.1-1.9 2.2-0.2 3.7 0.7 2.1-0.2 1.5-1.6 0.1-1.5-1.2-2.5-0.1-1.4 0.7-1.1 2.7-2.2 1.4-2.1 0.8-2.7 0.3-4.6 0.5-1.3 1.3-1.2 1.4 1 0.9-0.3 0.4-0.8 1-6.7 0-2.2-0.9-1.9-2-2.2-6-4.6-1.6-1.8-0.9-2.5-0.3-5.4-0.2-0.5 3.5-1 4.1 0.8 2.3 0.8 5.4 3.9 1.7 2.1 1.1 2.1 0.9 3.8 0.7 1.3 1.1 0.7 4.2 0.1 2.2 0.5 2.8 1.9 1.9 1.9 3.5 4.2 1.8 1.6 1.6 0.8 2.4 0.1 4.4-1 2.3-0.2 2.6 0.5 3.2 1.4 4.6 3.1 7.7 6.7 1 1.6 0.6 2-0.1 2.3-0.7 4.9 0.1 2.5 0.8 1.9 2.9 3.2 1.1 1.8 1.8 4 1.3 1.6 1.5 0.9 1.9-0.2 2.1-1.1 3-3 1.1-2.2 0.3-2.1-0.6-3.5-0.1-1.9 1-1.1 1.8-0.2 6.7 2 4.2 0.4z" id="VNM486" name="Kon Tum" data-id="VNM486" data-name="Kon Tum">
 </path>
 <path d="M779.7 1051.6l10.5 1.1 7.4-1.5 1.7 0 0.8 0.6 0.3 4.5 0.4 2.2-0.1 3.1 0.6 1.9 2.5 2.4 2.9 1.1 3.5 0.4 2.7-0.2 11.2-2.9 1.1-0.1 12.3 1.1 1.5 2.9 1.7 2.1 7.1 5.6 2.2 1 1.9 1.4 1 2.5-1.4 0.2-1.1 0.7-0.3 0.7 1 0.3 0.8-0.5 1.9-1.7 1 0.3 0.7 1.9 1.2 8.7 4.3 8.2 22.1 30.7 3.8 2.2 5-0.5-1.2 3.9-0.9 1-1.6-2-1.6 0.5-2 1-1.2 1.6 1.1 2.7 3.2 2.4 2.2-1.3 3-6 0.9 0 0.7 2.9 0.2 3.5 0.8 1 3.2 2.8 1.4 1.5 2.4 1.5-3.5 0.7-5.8 0.4-3.6 0.8-17.9 6.5-6.6 1.7-13.5 1.3-2 0.4-1.8 1-1.7 1.5-1.3 1.4-1.7 4-1.5 2.2-3.4 4-1.2 2.2-0.3 2.7 0.5 2.5 1.9 2.9 3.7 4 0.6 2 0.1 1.5-4.1 5.3-4.2-0.4-6.7-2-1.8 0.2-1 1.1 0.1 1.9 0.6 3.5-0.3 2.1-1.1 2.2-3 3-2.1 1.1-1.9 0.2-1.5-0.9-1.3-1.6-1.8-4-1.1-1.8-2.9-3.2-0.8-1.9-0.1-2.5 0.7-4.9 0.1-2.3-0.6-2-1-1.6-7.7-6.7-4.6-3.1-3.2-1.4-2.6-0.5-2.3 0.2-4.4 1-2.4-0.1-1.6-0.8-1.8-1.6-3.5-4.2-1.9-1.9-2.8-1.9-2.2-0.5-4.2-0.1-1.1-0.7-0.7-1.3-0.9-3.8-1.1-2.1-1.7-2.1-5.4-3.9-2.3-0.8-4.1-0.8-3.5 1-0.5-1.1-2.3-0.7-5.9 0.9-2.5-1.5-0.6-2.5 0.1-3.3-0.4-2.8-1.8-1-1 0.6-0.8 0-0.6-0.6-1.2-2.8-0.6-0.1-1.5 0.7-2.7-0.7-1 0-1.3 1-0.9 1.3-0.9 0.6-1.7-1.1-7.2-13-1.7-1.6-5.2-2.7-2.3-1.7-1.3-2-0.6-2.2-0.6-5.9-0.6-2-1.4-1.5-7.5-4.4-1.5-2.1 0.1-2.9 3.4-7.7 1.5-1.5 1.7-0.4 2.7 1 1.2 0.2 1.1-0.3 9.5-6.1 2.4-1 5.2-0.9 1.9-0.9 2.1-2.4 3.7-6.7 2-1.8 1.6-2-0.1-1.2-1-1.2-0.6-1.6 0.2-2.4 3.6-0.5 6.3-0.1 9.5 0.8 2.8-0.3 2.1-1.1 3.8-2.8 2.9-1.1 2 0.5 1.5 1.5 2.9 6.1 1.7 2.5 1.1 0.3 1.1-0.5 2.7-3.5 3.6-4 2.5-1.9 2.6-1.1 1.8-0.2 2.9 0.9z" id="VNM487" name="Quàng Nam" data-id="VNM487" data-name="Quàng Nam">
 </path>
 <path d="M945.4 1250.8l-0.8-0.7-2.9-0.8-2.3 0.2-7.4 1.2-15.8-0.9-6.5 0.9-3 1-6.5 4.2-4.4 1.9-6.1 3.7-6.6-6.2-3-7.8-3.3-12.4-1.6-3.7-1.6-2.1-1.9-0.7-4.4-1.1-2.6-1-2.4-1.6-3.1-2.9-1.8-2.3-5-9.9-5.6-5.2-2.1-1.5-5.3-5.1 4.1-5.3-0.1-1.5-0.6-2-3.7-4-1.9-2.9-0.5-2.5 0.3-2.7 1.2-2.2 3.4-4 1.5-2.2 1.7-4 1.3-1.4 1.7-1.5 1.8-1 2-0.4 13.5-1.3 6.6-1.7 17.9-6.5 3.6-0.8 5.8-0.4 3.5-0.7 1.6 1.4 0.2 1.7-0.2 1.6 0.1 1.7 0.8 1.6-0.9 2 0.9 0 1-2.8 2 0.2 2.6-0.2 0-1-3.4-0.5-1-2.5 0.9-3 2.6-1.8 0-0.9-0.8-0.4-1.1-1.6 1.9 0.7 0.9-0.1 0.9-0.6 0.7 2.1 0.8 5.6 0.9 1.1 1.1 0.5 3.3 2.6 0.7 1.1-0.3 5.2 0.8 1.9 3.5 3.2 1.6 1 1.1 0.3 1.8 0.1 0.8 0.4-1.1 1.9-1.4 1.4-1.8 0.7-2.2-0.1 0 1 2.2 0 0.4 0.7 0.2 1.2-1.9-1-0.6 1.6-0.5 4.1-0.6 2.1-2.2-1-1.8 0.2-0.8 1 1 1.7 0.9 0 1.1-0.5 1.1 0.3 0.7 1.2 0 1.9 0.8 0 0.2-2.1 0.7-1.7 1.2 12.5 3.2 11 8.5 19.8-2.7 0.3 0.7 0.8 3 1.2 0.6 1.3 2.7 4.1 0.9 0.9 5.1 6.7 0.7 2 1.2 6.7-1.2-0.5-0.8-0.9-0.4 0.7z" id="VNM488" name="Quảng Ngãi" data-id="VNM488" data-name="Quảng Ngãi">
 </path>
 <path d="M719.3 957.8l-0.6 1.3-9.3 13.4-4 3.8-2.9 1.9-2.6 0.9-12.8 1.7-6.1 1.9-2 1.4-0.8 1.6 0.3 2.6 1.1 2.7 1.6 2.2 1.5 1.6 2.6 1.8 0.8 0.7 0 1-0.7 1.5-4.9 5.8-6 5.4-1.7 2.5-0.8 1.8 0.6 6.6 0.1 0.9-2-0.6-5.3-0.6-4.6 0.2-1.8-0.2-1.4-1.1-0.4-0.9-0.4-3.2-0.7-1.4-0.9-0.8-3.3-1.8-2.3-2-1.3-1.7-1.6-3.9-2.3 0.9-0.5-0.4 0-0.8 0.9-1.4 0.6-4.7-0.4-5.7-2.3-3.7-3.3-0.2-2.9 5-0.5 2.3-1.6 1.5-3.6 2.4-0.6 1.1-0.3 2.2-1.4 1-1.3 0.6-1 0.1-0.4-0.7 0-1.5-4 0.6-3-2.3-2.1-3.7-1.9-5.6-0.2-1.6 0.6-7.6-0.6-1.6-2-1-1.9-0.2-2.7-1.1-2.6-1.5-3-3.5-1.3-3-0.7-3.5-0.2-37.8 3.3-1.3 4.1-1.8 21.8 1.5 5-0.7 4.2-1.7 1.8-2.4 1.7-2.9 1.9-4.2 3.6-4.9 2.6-2.9 13.4-8.2 0.9-0.6 14.1 10.5 2.1 4.1-0.8 5.8 1.6 1.3 7.3 10.7 1.9 1.1 0.4 1-0.4 0.7-1.9 1.1-0.5 1.2-0.8 0.6-4.8 2.8 0 0.9 3.5 0 1.5-0.2 1.6-0.7 0.1-0.7-0.2-1.9 2.4-1.8 1.2-0.4 1 1 0.8 1.2 0.7 0.7 2 1.1 17.6 15.1 4.4 3.3z" id="VNM489" name="Quảng Trị" data-id="VNM489" data-name="Quảng Trị">
 </path>
 <path d="M826.3 1034l-9.1 1.5-6.6-0.9-5.7-1.9-2.7-0.3-6.7 0.4-2.7 0.6-2.3 1.9-2.1 3.3-4.7 9.4-4 3.6-2.9-0.9-1.8 0.2-2.6 1.1-2.5 1.9-3.6 4-2.7 3.5-1.1 0.5-1.1-0.3-1.7-2.5-2.9-6.1-1.5-1.5-2-0.5-2.9 1.1-3.8 2.8-2.1 1.1-2.8 0.3-9.5-0.8-6.3 0.1-3.6 0.5 0.3-1.9-0.6-0.7-2.7 0.1-7.5 2-4 0.4-3.8-1.1-3.1-2.8-5-6.5-3.6-2.4-2.1-0.6-1.9-0.3-1.8-0.5-2.1-1.3-1.7-1.6-1.1-1.6-0.8-1.8-1.5-7.5-1.1-1.9-2.6-1.9-2.9-1.4-0.1-0.9-0.6-6.6 0.8-1.8 1.7-2.5 6-5.4 4.9-5.8 0.7-1.5 0-1-0.8-0.7-2.6-1.8-1.5-1.6-1.6-2.2-1.1-2.7-0.3-2.6 0.8-1.6 2-1.4 6.1-1.9 12.8-1.7 2.6-0.9 2.9-1.9 4-3.8 9.3-13.4 0.6-1.3 11.7 8.7 14.5 13.2 4.2 1.2 0 1-5.3-1.5-16.7-8.9-4.1 0.8 10.4 5.9 3.3 0.8 1.5 0.6 1.2 1.9 1.4 0.4 1.6-0.2 1.1-0.8 1 1.5 1.3 1 3.3 1.4 0 1.1-1.9-1.1-0.9 0-0.9 2.1 2 0 1.9-0.2 3.6-0.8-1.5 1.9-0.4 1.1 0.4 1.2 1 1.3 0.7 1.6-0.2 0.6 1.3 0 0.7-0.6 1.2-1.8 1.4-0.8 0.8 0.8 1.1 2.4 5.2 3.6 1.2 1.3 3.2 5 2.4 1.7 3 4 2.6 1-1 0.8-0.9 0.1-0.9-0.4-1.8-1.3-1.4-0.2-0.3 1.1 1.7 8 0.7 1.4 1.6 1.2 3.3 1.8 0.9 0 1.2-0.9 1.2 0.3 0.8 1.1 0.5 1.4 1.2-0.8 0.7 0.8 5-3.8 0.6-1-0.9-4.4-0.1-1.4 2-0.5 6.2 4.5 2.9 0.8 1.2-0.8 1.4-2.5 1.6-0.5 0.1 0.9 1.3 4.9 1.2 2.4 4.4 7.3-3.9-2.9-1.9-0.7-0.8 2.1 1.1 1.6 2.4 1 2.6 0.3 1.4-0.5 1 0 2.4 1.1 3.4 0.8 3.7 0.3 3.5-0.3-0.6 0.7z" id="VNM490" name="Thừa Thiên - Huế" data-id="VNM490" data-name="Thừa Thiên - Huế">
 </path>
 <path d="M826.3 1034l-1.4 1.9-4.8 3.9-1.6 3.2 0.1 4.1 2.3 2.2 3 1.7 2.1 2.8 2.1-2.1 1.1-0.7 1 0.3 1.1 4.8 0.2 0.5-0.7 2.1-1.4 2-1.7 1.6 0.8 0.3 2.5-1.4 2.1-0.6 1.2 1.8-1.3-7.2-1-2-0.1-2.1 0.9-2.5-0.1-2.1-3-0.5 0-1.1 1.9-1.7 0.9-2.2 1.3 0.8 0.5-0.8 0.9 0 1.2 1.3 1.6 1.2 2 1 2.2 0.4 0.2-0.7 0.8-1.3 0.9-0.9 0.8 1.1 1.6 1.8-1.6 1.3-1.5 0.9-1.1 1-0.5 1.7-1.2-1-3.5 0.7-1.9-0.7-0.9 5.1 0.9 5.6 1.9 5 0.4 0.8-12.3-1.1-1.1 0.1-11.2 2.9-2.7 0.2-3.5-0.4-2.9-1.1-2.5-2.4-0.6-1.9 0.1-3.1-0.4-2.2-0.3-4.5-0.8-0.6-1.7 0-7.4 1.5-10.5-1.1 4-3.6 4.7-9.4 2.1-3.3 2.3-1.9 2.7-0.6 6.7-0.4 2.7 0.3 5.7 1.9 6.6 0.9 9.1-1.5z" id="VNM491" name="Đà Nẵng" data-id="VNM491" data-name="Đà Nẵng">
 </path>
 <path d="M691 1839.8l1.1 1.8-1.9-1.1-0.9 0-0.4 1.8-1.9 1.3-1 2.7-1.3 0.8-2.8 1-1.9 1.7-2.9 4.2-1.8 1.7-1.8-6.8 0.7-2.6 5.5-1.4 4.1-2.1 0.8-0.8 0.1-1.4 0.4-1.8 0.6-1.6 1.1-1 4.2 3.6z m-27.8-25.8l0.6 0.1 0 1 1.7 0.8 1.4 1-0.4 2.3-1.5 3.4 0.4 1 1.7 1.6-0.2 1.2-0.9 0.2-1.2-0.7-1.6-1.4 1-0.9-1.9-2 0-0.9 0.7-1.2 0.2-1.6 0-3.9z m70.4-18.1l8.5 19.6 1 5.6-2.2 1.6-3.6 3.6-0.7 1.5-1.1 1.7-2.6 1.6-8.7 3.9-2.4 0.7-6.1 0.7-5.4 1.7-1.5-0.4-1.1 1.5-4 3.7-3.3 5.2-2.4-0.1-5.2-3.1-3.5-0.5 0.6-1.2 2.3-0.8 0.8-0.8-0.1-1.3-0.7-1.2-0.9-1-1.3-0.9-2.7-2.8-2 0.1-1.6-0.2-1-0.4 0 2-0.8 0-1.8-1.9-2.7-1.3-2.8-0.2-2.2 1.4-0.8 0 0.4-1.9-0.4-1.8-1.3 2.7-1 1.2-1.5 0.8-0.8-2.7-0.1-1.1-0.7-1.4 0.7-0.5 1-1.5 0.2-1.4-0.3-9.8-0.4-0.9-1.8-1.9-0.1-1.1 1.4 0.6 0-0.6 2.1-0.2 10.3-3.9 2.3-1.4 1.3-1.5 0.4-2.7 0-2.2 0.7-0.8 12.2-5.8 1.8-0.6 1.6-0.1 2 0.8 1.1 1.3 0.4 1.7-0.3 1.8-0.1 1.9 0.4 1.7 1.1 1.6 1.7 1.2 1.9 0.7 2.1-0.2 2.2-1 8.8-11 3.1-3.1 1.6-1.2 2 0.1 1.4 0.4 4.6 5.8z" id="VNM495" name="Bà Rịa - Vũng Tàu" data-id="VNM495" data-name="Bà Rịa - Vũng Tàu">
 </path>
 <path d="M930.3 1828.9l-0.7 2-2.8-0.2-1.4-1.4-0.6-2.2 0.5-2 1.8-1 2.2 2 1 2.8z m-8.2-111.4l-2.2-1-2.1-0.5-2.4 0-2.5 0.4-2.3 1-4.5 3.2-1.7 1.7-1.3 1.7-1.1 2.5-1.6 7.1-1.1 2.4-1.1 1.1-1.7 0.3-2.3 0-1.3-0.3-2.9-1.3-1.8-0.3-1.3 0.4-2.8 1.2-1.4 0.3-5.2 0-0.7 0.5-1.7 1.8-3.8 1.3-2.4 2-1.8 2.5-1.2 2.2-1.3 5.7-1.3 1.5-3.5 0.5-1 0.4-4.9 2.4-1.4 0.3-2.3 0.1-1 0.5-0.8 1.8-1.7 6.3-0.7 1.4-2.7 0.3-1.3 1-2.1 4.4-0.9 0-1.1-4.3-3.6-1.1-16.8 3.3-3.9 1.3-1.6 2.3-0.7 1.3-3.2 3.4-0.7 1.9-0.5 1.6-1.9 3.9-1 5.7-5.1 10.2-0.9 0-1.5-0.9-6-1.8-2.3-0.3-2.8 0.1-2.2 0.4-7.9 3.4-5.7 4.8-1.9 1.1-5 1.7-8.8 4.7-3 0.4-3.1 1.1-4.7 2.6-1-5.6-8.5-19.6 6.3-6.3 1.9-2.9 1.8-3.9 0.2-4.2-0.5-4.2-1.3-3.9-1.3-2.8-1.6-2.7-1.7-1.7-1.8-1.1-2.2-0.2-2.4 0.3-2.8-0.3-2.3-1-2.5-1.9-1.5-2.2 0.9-1.9 2.2-3.6 1.1-2.3 0.6-3.7 1.5-3.8 2.6-4.6 1.4-3.9 0.7-1.4 3.1-5.1 1.9-4.4 2.9-5.3 1.4-2 1.3-1.4 1.7-1.1 1-0.2 6.4 2.3 4.7 2.3 4.8 1.2 4 0.6 34.5 1.9 2.9 1 1.9 1.5 0.9 1.7 0.3 1.8 0.1 2-0.4 4.5 0.6 0.8 1.2 0.3 1.7-0.6 1.9-1.5 3.5-5 1.9-2.1 2.8-1.6 3.3-1 5.8-0.9 4.2-1.6 4-2.2 3.4-2.4 2.7-2.3 1.4-1.7 0.4-1.5-0.3-1.4-2-3.6-0.8-2.2-0.2-2.4 0.1-2.5 0.6-2.2 1.1-1.7 1.9-1.8 3.3-1.6 2.8-0.6 17.3-0.5 2.9 0.3 3.9 2 2.2 0.8 1.5-0.6 1.1-1.6 1.6-4.1 1.2-1.9 6.4 0.2 2.1 0.9 2 1.2 1 1.5 0.6 1.7 0.5 3.8 0.3 1.5 0.9 1.3 1.3 0.7 3.4 0.9 0.9 0.9 0.3 1.5 0.4 3.9 0.5 1.7 0.9 0.8 1.5 0.2 4.2-0.3 2.7 0.4 3.8 1.6 2.5 2.3 1.7 2.7 0.6 1.9 0.3 2.1z" id="VNM496" name="Bình Thuận" data-id="VNM496" data-name="Bình Thuận">
 </path>
 <path d="M746.2 1712.2l-1 0.2-1.7 1.1-1.3 1.4-1.4 2-2.9 5.3-1.9 4.4-3.1 5.1-0.7 1.4-1.4 3.9-2.6 4.6-1.5 3.8-0.6 3.7-1.1 2.3-2.2 3.6-0.9 1.9 1.5 2.2 2.5 1.9 2.3 1 2.8 0.3 2.4-0.3 2.2 0.2 1.8 1.1 1.7 1.7 1.6 2.7 1.3 2.8 1.3 3.9 0.5 4.2-0.2 4.2-1.8 3.9-1.9 2.9-6.3 6.3-4.6-5.8-1.4-0.4-2-0.1-1.6 1.2-3.1 3.1-8.8 11-2.2 1-2.1 0.2-1.9-0.7-1.7-1.2-1.1-1.6-0.4-1.7 0.1-1.9 0.3-1.8-0.4-1.7-1.1-1.3-2-0.8-1.6 0.1-1.8 0.6-12.2 5.8-0.7 0.8 0 2.2-0.4 2.7-1.3 1.5-2.3 1.4-10.3 3.9-2.1 0.2-0.2-2.9-1.4-2.2-4-3.7-0.6 2 1.4 1.5 1.9 1.3 1 1.3-1.2 3.4 0 0.8-0.6-0.1-0.9 0-0.9 3.9-0.1 4.2-1.7-2.4-1-3-2.6-2.7-2.4-2.1-1.8-1.8-2.9-2.3-1.8 0-3.4 1.7-2.4-0.4-2.5-1.8-1.5-1.5-1.7-0.9-2.5-1-1.5-0.4-1.1-0.6-0.1-2.3-0.5-1.8-0.2-3.1-0.5-1.7 0.9-0.4 4.8 2.7 1.3-0.2 1.3-1 1.6-0.9 1.1-0.3 2.7-0.1 1 0.3 2 1 1.4-0.1-0.1-1.8 0.6-0.9 0.1-2-0.6-2.3-3.8-7.1-2.3-3.2-0.5-4.1-2.1-2.9-1.5-1.6-1.1-1.6-1.4-2.6-0.1-1.1 0.1-2.6-0.5-2.6 0.5-1.2 1.8-1.5 1.9-0.9 1.7-0.5 1.4 0.2 1.1 0.6 1.3 1.2 1.4 1.1 1.7 0.8 1.7 0.3 1.6-0.1 1.4-0.5 5.7-4.7 2.4-4.3 0.5-1.7-0.2-2.1-1.4-4.3-1.4-2.4-1.3-1.6-1.2-0.8-0.6-1.4 0.4-2.3 4.2-9.5 3-1.5 0.9-0.8 1-1.9 1.1-1.1 2.3-1.6 2.8-2.9 1.4-1.9 1.4-2.7 1.7-2.1 0.5-0.9 0.4-3.4 0.5-1.8 0.7-1.8 1.2-2.2 2-1.7 2.9-1.6 12.7-4 10.1-5.3 5.2 0.9 3.8-0.1 1.8 0.6 0.5 1.3-0.1 3.5 0.1 1.1 0.9 1.1 1.5 0.5 2.5 0.6 2.9 1 1.3 1.1 0.6 1.3-0.5 1.3-1.9 2-0.3 1.1 0.1 1.5 0.7 1.9 1 0.9 1.6 0.5 2.1-0.1 5.9 0.7 11.2 5.7z" id="VNM497" name="Đông Nam Bộ" data-id="VNM497" data-name="Đông Nam Bộ">
 </path>
 <path d="M420.4 1777.2l0.9 6.4 0.6 2.1 1 1.8 1.9 1.5 0.8 3.7 5.2 5.7 0.5 1.1 0.6 3.1 1.6 0.8 5.6-0.3 3.1 0.2 1 4.7 0.2 1.5-0.4 4.2 0.4 2.1 1.2 1.8 2.2 1.7 13.7 6.8 1.4 1.1 1.3 1.3 1 1.5 2.5 4.8 1.1 1.5 1.1 1 2.3 1.4-6.7 6-5.4 9.6-0.3 3.3-2.5 4.7-1.9 0.6-2.4-0.7-1.6 0.4-1.5 1-4 3.8-1.6 0.7-1.3-0.1-1-1-2.5-3.2-1.3-1.2-1.7-0.5-0.8 0.3-0.6 1.9-0.9 1-2.4 0.8-1.5 0.8-1.2 1-3.3 4.8-48-25.2-22.2-19.1 6.7 0.8 6.1-0.3 4.9-1.9 3.3-3.4 5.5-8.6 1.6-1.8 1.8-1.5 13.3-6.8 3.3-3.2-0.1-4.4-4.8-9.1-2.2-5.1-0.4-4.8 0.9-2.2 1.5-2 1.8-1.7 1.8-1.3 3-1.5 0.8 0.5 0.3 1.9 1.6 2.1 1.9 0.6 13.2 2.5z" id="VNM498" name="An Giang" data-id="VNM498" data-name="An Giang">
 </path>
 <path d="M507.3 1858.7l3.6 4.7 0.8 3.6 0.4 0.5 2.1 0.9 1.5 1.3 0.5 1.1 0.1 1.3-0.1 2.3-0.7 2.2-1.2 1.6-2.7 1.9-1.8 0.8-2.4 0.3-4.2-0.7-3.6-1.1-3.3-1.6-4.2-2.8-1.3-0.3-1.5 0.5-1.2 1-0.5 1.1 0.4 1.3 0.2 1.9-2.2 2.8-8.4 3-14.4 3.1-13.8 4.9-9.8-10.4-3.6-3.2-6.9-4.5-4.3-3.5 3.3-4.8 1.2-1 1.5-0.8 2.4-0.8 0.9-1 0.6-1.9 0.8-0.3 1.7 0.5 1.3 1.2 2.5 3.2 1 1 1.3 0.1 1.6-0.7 4-3.8 1.5-1 1.6-0.4 2.4 0.7 1.9-0.6 2.5-4.7 0.3-3.3 5.4-9.6 6.7-6 6.6 4 1.8 0.6 5.6 0.3 1.8 0.4 1.6 0.8 1.4 1 6.1 7 2.1 1.9 2.4 1.5 6.7 2.5z" id="VNM499" name="Can Tho" data-id="VNM499" data-name="Can Tho">
 </path>
 <path d="M463.1 1768.9l0.5 2.6 1.4 1.8 1.5 1.2 3.6 2.3 2.1 2 8.5 10.2 28.9 27.4 7.7 5.6 5.4 1.9 0 4.4-0.7 2.5-1.2 3.2-12.3 15.5-1.3 0.9-0.8 1.3-0.5 1.1 0.8 5.2 0.6 0.7-6.7-2.5-2.4-1.5-2.1-1.9-6.1-7-1.4-1-1.6-0.8-1.8-0.4-5.6-0.3-1.8-0.6-6.6-4-2.3-1.4-1.1-1-1.1-1.5-2.5-4.8-1-1.5-1.3-1.3-1.4-1.1-13.7-6.8-2.2-1.7-1.2-1.8-0.4-2.1 0.4-4.2-0.2-1.5-1-4.7-3.1-0.2-5.6 0.3-1.6-0.8-0.6-3.1-0.5-1.1-5.2-5.7-0.8-3.7-1.9-1.5-1-1.8-0.6-2.1-0.9-6.4 6 1.1 2.1 1.4 4.7 4.1 2 0.7 1.3-1.3 4-8.3 5.5-6.4 1.7-1.2 0.7 0.3 3.8 1.1 3 1.6 1.1 0.1 6.8-1.5z" id="VNM500" name="Ð?ng Tháp" data-id="VNM500" data-name="Ð?ng Tháp">
 </path>
 <path d="M666.2 1829.7l0.7 1.4-1.9 1-1.1 0.8-0.7 1-0.9 0 0.4-2.1 1.3-1.2 2.2-0.9z m-9.8 0.6l-0.6 4.2-2.9 7.1 1 0 0.9-1.9 2.9 1.9 1.5 1.2 1.2 1.6-6.6 1.6-2.8 1.2-1.8 1.9-0.9 0 0-2.5-0.7-1.9-0.8-1.6-0.4-1.5 0.4-2.5 2.1-3 0.3-2.2-0.9 0 0 2-1.2-3.2 1.2-2.1 2.5-1.3 2.8-0.9 2.8 1.9z m-3.5-10.1l0.3 1.5 0.6 1.5 0.1 1.3-1 0.9-0.7-0.5-0.8-1.3-1.2-2.9-1 0 0.4 1.8 1.2 2.5 0.3 1.8-0.8 1.5-1.8-0.5-1.9-1.3-1.1-1.1-1.6-2.6 0-1.4 1.3-1.1 0.8-3.9-0.5-1.3-1.9-1.1 0-0.8 1.5-0.4 1.8-0.2 1.4 0.1 0.2 1 3.1 2.1 0.7 1.2 1.6 0.8 0.1 1.1-1.1 1.3z m-7.9 12.9l1.4 2.8 0 0.9-2.2-0.6-1.8-0.8-1.7-0.3-1.7 0.8 0.7 0.4 1.1-0.4 2.1 1.9 1.5 2.9-0.1 2.6-2.5 1.1-3.3-1.3-3.3-3.1-2.9-3.8-1.6-3.2-0.5-2.2 0-1.7 0.5-3.7-0.5-1.1-0.4-2.2 0.5-0.4 2.2-0.4 0.9-0.6 1-3.4-1-3.2-3.6-5.7 3.1 0 1.3 0.4 1.2 1.2 1.2 2 0.8 0.8 3.7 1.1 1.7 1.7 0.8 2.1 0 2-0.9 0.9-0.7 0.9-0.2 1.6 1.8 2.8 1.9 1.4 0.6 1.9-1 1.7-3.3 0.2 0 1 2.1 0.1 1.1 0.9z m-3.8-55.4l2.3 3.2 3.8 7.1 0.6 2.3-0.1 2-0.6 0.9 0.1 1.8-1.4 0.1-2-1-1-0.3-2.7 0.1-1.1 0.3-1.6 0.9-1.3 1-1.3 0.2-4.8-2.7-0.9 0.4 0.5 1.7 0.2 3.1 0.5 1.8 0.1 2.3 1.1 0.6 1.5 0.4 2.5 1 1.7 0.9 1.5 1.5 2.5 1.8 2.4 0.4 3.4-1.7 1.8 0 2.9 2.3 1.8 1.8 2.4 2.1 2.6 2.7 1 3 1.7 2.4 1.1 3.7 2.6 2.5-2.3 1.2-3 5.3-1.2 1.1-0.8-0.7 0.2-1.2 0.5-1.5 0.1-1.4-0.6-1.4-1.4-1.2-0.8-1.2-0.7-2.7 0.1-2.5 0.6-4.7-8.3-7.1-4.5 2.3-2.7 0.7-1.2-1.5-0.8-1.5-1.7-2.1-2.1-1.8-1.8-0.8-3.4 1.7-0.8 0.6-0.7 1.6 1 0.9 1.3 0.6 0.7 0.8 0.3 1.3 1.6 3.9-0.5 1.6-2.3 2.1-1.1 3.4-0.7-1.3 0-1.2 0.6-4.1 0.1-2.5-0.9-1.9-1.7-1.6-1.9-1.1-1.8-0.4-1.4 0.1-2.6 1.6-1.3 0.7-1.8-0.3-1.4-1.1-1.8-1.9-1.5-1.1-6-2.5-5.9-3.2-2.5-1.8-1.3-1.8 0.3-1.8 0.9-2.3 2.6-5.1 0.5-3.2-0.2-3.5-1.8-4.8-2.1-2.9-2.6-2.5-2.5-1.7-3.1-1.6-5.3-2.1-4.5-2.5 3.7-3.9 1.3-1.9 1.5-3 1-2.7 1.5-8.2 7.6-1.6 1.7-0.1 2.1 0.1 1.1 0.8 1.2 1.3 5.9 9.9 1.2 1.6 1.2 0.5 2.6 0 0.7 0.4 0.2 0.8 0.2 2.1 4.7 6.1 2.7 4.5 3.4 4.5 1.8 2.8 1.3 0.7 1.7 0.1 2.1-0.5 5.1-1.8 1.6-0.4 5 0.9z" id="VNM501" name="Hồ Chí Minh city" data-id="VNM501" data-name="Hồ Chí Minh city">
 </path>
 <path d="M257 1838.1l0.6 0.6 9.9 10.4 0.4 2.4 0 14.6-5.2 13.3-1.8 7.6 2.4 3.7-1 2.9 0 1.7 0.5 1.5 0.5 2.4-2.2-1.2-0.6-0.7-2.7-1.2-1.9-6.1-1.8-11.6-3.6-10.4-2.7-4.4-3.9-3.2-5.2-2.6-1.7-1.8-1.1-5.5-0.5-1.4 0.7-0.4 8.6 1.2 2.6-0.2 1.2-1.1 1.7-2.8 1.8-1 0.4-1.3 0.3-1.6 0.4-1.4 1-1.2 1.3-1.1 1.6-0.1z m97.6-9.7l22.2 19.1 48 25.2 4.3 3.5 6.9 4.5 3.6 3.2 9.8 10.4 6.3 6.6 2.7 2.2 4.1 3.8 0.9 1.5 0.3 1.7 0.1 2.9-0.4 3.6-0.9 3.3-2.1 3.2-15.6 14.8-2.9 3.4-0.8 2.6 0.7 1.4 1.4 1.2 2.2 3-0.1 7.7-9.3-2.2-2.4-0.4-1.4 0.7-0.5 1.8 2.1 7.2 0.3 2.7-1.3 2.4-2.5 3.7-0.5 1.6 0.6 1.8 1.8 2.3 0.4 0.7-0.6 1.5-2 1.1-5.3-1.5-20.7-10.4-6.4-4.1-2.3-0.8-3.8 0.3-2.2-0.4-1.4-0.2-1.2 0.6-0.6 0.7-1.1 0.3-1.6 0.2-3.1-0.5-3.7 1.9-1.8-0.1-5.3-3.7 0.2-3 2.9-25 2.1-7.6 2.8-8 6.3 0.2 4.2-0.6 0.9-2.4 2.2-2.3 8.4-6.3 2.9-1.3 1.4 1 0.4 2.2 3.2 8.7 0-2-0.8-5.1 0-6.1-0.9-3-1.8-3.1-6.1-8-5.3-5.1-2.7-1.6-2.7-0.3-5.3 1.3-3.2-0.1-4.4-2.6-3.1-4.3-2.8-4.7-2.7-3.6-4.5-2.7-4.5-0.6-4.3 1.2-3.5 3.1-0.5 1.4 0 1.2-0.3 0.9-1.5 0.3-0.8 0.6-0.6 2.7-0.4 0.6-4.8-0.3-0.4 0.3-0.7-1.3 0.8-1.9-0.1-1.6-0.6-0.9-1.8-2.1-0.4-1.3 0-3.8-0.5-3.2-1.3-1.9-3.7-2.9-0.9 1.9-1.1 0-0.1-3.8-1.4-2.7-3-3.9-0.7-1.8 1.4-0.3 1.1-0.8 1.1-1.6 0.7-1.3 0-1.4-0.7-1.4-1.1 0-1 2.1-1.5 1.7-1.7 1.2-2.3 0.7-2.1-0.2-0.1-1.5 0.4-2.3-0.6-1.7 2.4 0.5 2-0.3 1.4-1.3 5.7-8.3 1.1-2.2 1.3-2 1.7-1.4 2.2-0.5 5.8-0.2 13.4 1.7z" id="VNM502" name="Kiên Giang" data-id="VNM502" data-name="Kiên Giang">
 </path>
 <path d="M577.1 1764.7l4.5 2.5 5.3 2.1 3.1 1.6 2.5 1.7 2.6 2.5 2.1 2.9 1.8 4.8 0.2 3.5-0.5 3.2-2.6 5.1-0.9 2.3-0.3 1.8 1.3 1.8 2.5 1.8 5.9 3.2 6 2.5 1.5 1.1 1.8 1.9 1.4 1.1 1.8 0.3 1.3-0.7 2.6-1.6 1.4-0.1 1.8 0.4 1.9 1.1 1.7 1.6 0.9 1.9-0.1 2.5-0.6 4.1 0 1.2 0.7 1.3-0.4 1.7-1 2.4-1.7 1-4.4 1.6-2.2-0.1-1.3-2.4-1 0 0.5 2 1.3 1.8-1.5 0.3-1.5 0.7-1.2 1.1-1 2.8-1.4 0.8-1.8 0.7-1.7 1.2 0.1-2.3-0.4-1.8-0.7-1.4-0.9-1.2 0.2 4.8 0.7 2 1.4 0.7 2.4-0.4-1 1.6-3.1 1.4-5.8 0.1-4-0.5-6.3 0.5-1.9-0.4-1.2-0.9-0.3-1.3 0.4-2.8 0-1.3-0.5-1.3-1.3-1.1-2.1-0.9-3.8-0.6-2.4-1-1.8-1.2-5.7-8.1-1.8-1.5-1.7-1-2.4-0.4-14.2-0.8-2.8 0.3-2.5 1.4-2.4 3.2-1.4 1.1-2.8 0.6-3.8 0.1-6.5-1.1-5.4-0.3-5.4-1.9-7.7-5.6-28.9-27.4-8.5-10.2-2.1-2-3.6-2.3-1.5-1.2-1.4-1.8-0.5-2.6 14.7-3.1 3.1-1.4 5.8-3.6 3.9-1.1 3.6 0.4 2.3 2.6 2.4 4.2 4.6 6.4 1 2.1 1.5 4.8 1.1 2 1.8 2.2 2.4 1.6 2.8-0.1 1.3-1.3 1.6-2.8 1.2-3 0.2-2.3 4.6 3.7 3.7 4.4 3.5 2.5 3.8 1.9 3.5 1.3 7.7 0.8 3.6 0.9 3 2.4-3.5-13.2-3.3-6.4-0.7-2.3 0.2-0.3 0.2-3.5-0.3-0.3 1.2-1.9 2.4-0.3 2.9 0.1 1.1 0.9 1.3 0.3 1.9 0.1 11.2-3.4 1.1-0.8 0.3-1.1-0.2-2.3 0.4-0.9 0.8-0.3 1.8 0.7 1.8 1 4.7 4.2z" id="VNM503" name="Long An" data-id="VNM503" data-name="Long An">
 </path>
 <path d="M601.6 1922.6l-1.2 1.2-1.9-1.2-3.3-5.1-3.9-2.1-6.2-5.9 0.6-0.4 2.2 0.4 5.8 4.2 1.6 1.6 4.5 4.5 1.8 2.8z m-16.5-66l7.8 4.9 32.7 11.2 0.7 0.5 2.2 1.9 1.5 0.8 1.6 1.3 2.8 0.3 1 0.4 0.6 0.7 0.2 1.2-0.3 3.2-0.8 2.1-7.3 7.7-2.2 1.3-2.3-0.6 0.7-1 0.1-1.3-0.2-1.3-0.6-1.2-1 0-0.6 2.4-0.3 0.5-1.8 1.9-0.8 1.1-0.3 1.2 1.5 1.6 0.6 1.2-0.6 0.6-2.1 0.2-0.5 0.7 0.1 0.9-1 1.3-0.3 1.1-0.9 0.5-5.1-0.2-2.2-0.8-2-1.4-1.8-1.8-2.1-1.5-6.8-2.9-3.9-3.2-3.5-4.2-11.3-18.1-3.9-3.9-5.3-1.7 0.7 0.8 1.4 0.6 4.1 3.2 1.6 1.8 1.2 5.3 1.4 2.9 12.6 16.5 3.1 2.9 10.5 4.9 7.1 5.6 7.7 4.1 2.1 0.5 1.3 1.2-0.4 2.8-1.4 2.9-1.9 1.7 0-1 0.9-1 0.1-1.3-0.3-1.3-0.7-1-0.8 0-0.7 4.8-2.7 3.2-3.6 1.2-3.3-0.8-3.2-2.6-8-8.8-3.3-2.6-11.5-6.9-34-35-2.4-1.5-1.2 0.1-2.4-1.5-3.7-1.6-12-3.2-4.1-0.6 0.2-1.7 2.3-1.7 2-0.8 2.1-0.3 2.1 0 2.2 0.3 6.5 2.4 3.3 0.7 4.3 0 2.6-0.2 6.2-2.4 3.3-0.5 7 0.2 1.7-0.3 6.8-2.5 1.6-0.2 1.7 0.1 1.7 0.3 4.5 1.8 1.4 0.9z" id="VNM504" name="Bến Tre" data-id="VNM504" data-name="Bến Tre">
 </path>
 <path d="M505.8 1899.6l-2.6-0.4 2.6 3.9 8.7 8.7-9.5 22.3-0.3 1.6-0.1 1.7-0.4 0.9-0.8 0.7-1.8 0.3-2 0.6-16.1 9.8-14.2 4.2-4.8 1.6-9.7 1.6-9.5 0.1 0.1-7.7-2.2-3-1.4-1.2-0.7-1.4 0.8-2.6 2.9-3.4 15.6-14.8 2.1-3.2 0.9-3.3 0.4-3.6-0.1-2.9-0.3-1.7-0.9-1.5-4.1-3.8-2.7-2.2-6.3-6.6 13.8-4.9 14.4-3.1 8.4-3 2.3 2 9.5 6.1 4.3 3.8 3.7 4.4z" id="VNM505" name="Hau Giang" data-id="VNM505" data-name="Hau Giang">
 </path>
 <path d="M509.9 2002.9l-14.7 6-30 11.2-3.4 2.9-5.9 6.4-3.7 2.8-1.4 1.8-0.6 2.4-0.4 0.4-0.7-3.4-0.9-1.5-2.1-2-4.7-1.4-1.7-0.7-1.4-1.6-1.3-2.4-1.9-7.1 0-2.7 0.1-1.3-0.2-1.1-0.8-0.7-2.4-0.2-1.3-1-0.3-1.5 0-2.8 1.6-3.4 1.5-2.3 1.3-1.6 0.4-1.1-0.2-0.9-1.3-1.3-1.5-1.2-1-1.2-0.1-1 1.1-1.7 1.1-1 0.3-2-3.4-4.6 2-1.1 0.6-1.5-0.4-0.7-1.8-2.3-0.6-1.8 0.5-1.6 2.5-3.7 1.3-2.4-0.3-2.7-2.1-7.2 0.5-1.8 1.4-0.7 2.4 0.4 9.3 2.2 9.5-0.1 9.7-1.6 4.8-1.6 1.1 20.8 1.2 2.7 1.8 3 3.5 0.5 1.4 0.5 2.8 2.1 2.1 0.9 2.8 0.7 5.9 0.6 2.1-0.3 2.9-1.4 1.8-0.3 2.1 0.5 2.9 1.7 1.4 2 4.8 15z" id="VNM506" name="Bạc Liêu" data-id="VNM506" data-name="Bạc Liêu">
 </path>
 <path d="M430 1982.1l3.4 4.6-0.3 2-1.1 1-1.1 1.7 0.1 1 1 1.2 1.5 1.2 1.3 1.3 0.2 0.9-0.4 1.1-1.3 1.6-1.5 2.3-1.6 3.4 0 2.8 0.3 1.5 1.3 1 2.4 0.2 0.8 0.7 0.2 1.1-0.1 1.3 0 2.7 1.9 7.1 1.3 2.4 1.4 1.6 1.7 0.7 4.7 1.4 2.1 2 0.9 1.5 0.7 3.4-1.7 0.5-0.7 0.5 0 2.9-10 19.2-2.6 3.8-3 3.4-4.6 3.7-5.7 0.8-4.5 1.9-4 4.8-3.8 6.3-3.4 3.6-9.1 2.4-24.2 7-3.2-0.5-2.4-1.7-8.5-1.3-3.2-1.2-0.8-0.4-0.3-1.5 1-0.4 1.7 0.6 2.6-0.5 6.6-4.4 1.5-0.9 2.2-0.8 0.5-1.5-0.7-1.4-1.4-0.7-0.6-0.6 1.8-1.1 1.8 0.1 8.9 1.8 2-0.5 2.2-1.1 1.9-1.5 0.9-1.6-3.2 1.5-4.3 1.2-4.3 0-3.1-1.8-0.6-1.5 0.6-0.8 1.5-0.3 2.2-0.3 3.3 0 1-0.2 2.3-1.7 0-0.8-1.3-2.4-0.4-2.7 0.7-2.6-8.6 3.8-5.6 1.4-3.4-1.7-2.4-4.7 1.5-5.2 1.5-4.8 2.1-6.3-0.4-5.3-0.2-9.7 0.5-11.9 1.1-8.3 0.9-20.2 0-8.4 0.9-15.7 0.2-2.7 5.3 3.7 1.8 0.1 3.7-1.9 3.1 0.5 1.6-0.2 1.1-0.3 0.6-0.7 1.2-0.6 1.4 0.2 2.2 0.4 3.8-0.3 2.3 0.8 6.4 4.1 20.7 10.4 5.3 1.5z" id="VNM507" name="Cà Mau" data-id="VNM507" data-name="Cà Mau">
 </path>
 <path d="M618.5 2071.8l-1.8 0 0.7 0.8 0.3 1.1-3.2 0.3 0 1.5 1.4 2 0.8 1.8-1.7-0.7-1.4 0.1-2.9 0.6-1.2 0.5-0.3 1.4 0 2.8 0.4 1.2-0.5 0.5-2.2 0.1-0.7-0.6-2.1-2.7-0.4-0.9 1.5-3.3 3.7-3.6 4.4-3.1 3.8-1.6 1 0.4 0.4 1.4z m-62.2-119.3l1.8 1.7 7.6 1.8 1.7 1.2-0.2 3.5-0.9 2.4-1.9 1.3-3.5-0.1 0-0.8 0.7-2.6-2.1-3-2.9-2.5-2.1-1.4-1 0.8 2 2.6 2.3 1.8 0.7 1-2.7 0.3-1.4-1.2-4.6-7.3-3.4-4.1-1.6-2.5-0.6-2.3-0.5-3-1.2-2.2-2.9-3.8 0.8-0.9 0.3 0.7 1.6 1.2 6.5 9.4 6.5 6.4 1 1.6z m-46.4 50.4l-4.8-15-1.4-2-2.9-1.7-2.1-0.5-1.8 0.3-2.9 1.4-2.1 0.3-5.9-0.6-2.8-0.7-2.1-0.9-2.8-2.1-1.4-0.5-3.5-0.5-1.8-3-1.2-2.7-1.1-20.8 14.2-4.2 16.1-9.8 2-0.6 1.8-0.3 0.8-0.7 0.4-0.9 0.1-1.7 0.3-1.6 9.5-22.3 23.2 23.2 0.9 2.4 0.5 2.4 1.3 2.8 14.1 20.9 0.9 1.9 0.5 2.2 0.4 5.7-0.6 1.7-5 5.4 1.3 1.3 1.2 0.6 1 0.7 0.3 2-0.5 2.1-1.3 1-3.9 0.7-18.6 5.8-20.3 8.3z" id="VNM508" name="Sóc Trăng" data-id="VNM508" data-name="Sóc Trăng">
 </path>
 <path d="M527.3 1915.6l8.9-5.1 4.7-1.9 4-0.4 1.5-1.1 0.1-1.3-0.6-1.9-0.3-1.8 0.3-1 1-0.9 4.9-1.9 1.4-1 0.7-1.3 0.6-1.5 1.1-1.9 1.3-1.3 2.8-1.2 1.5-0.5 5 3.7 1.2 1.2 0.8 1.2 1.2 2.3 0.8 1.2 6.9 6.6 0.8 0.4 2.6 3.3 11.8 9.8 3.4 3.8 2.4 4.5 1.2 5.4 1.4 1.6 3.5 0.5 1.6 1.1 0.6 2.6 0.1 2.8-0.6 7.1-1.7 4.7-2.7 4-3.4 3.1-2.9 1.8-1.6 0.4-2.8-1.1-1.4 0.6-2 1.3-5.6-0.1-1.8-0.9-6.5-5-11.8-6.4-25.2-23.9-9.2-11.6z" id="VNM509" name="Trà Vinh" data-id="VNM509" data-name="Trà Vinh">
 </path>
 <path d="M521.6 1860.5l4.1 0.6 12 3.2 3.7 1.6 2.4 1.5-0.7 0.6 0.6 0.7 2.4 1.2 3.1 3.4 1.1 2 0.9 4.6 1.3 2 1.5 1.8 2.9 2.7 4.3 3.2-1.5 0.5-2.8 1.2-1.3 1.3-1.1 1.9-0.6 1.5-0.7 1.3-1.4 1-4.9 1.9-1 0.9-0.3 1 0.3 1.8 0.6 1.9-0.1 1.3-1.5 1.1-4 0.4-4.7 1.9-8.9 5.1-3.6-4.4-5.1-4.8-3.9-2.9-4.7-1.2-4.2-2.7-3.7-4.4-4.3-3.8-9.5-6.1-2.3-2 2.2-2.8-0.2-1.9-0.4-1.3 0.5-1.1 1.2-1 1.5-0.5 1.3 0.3 4.2 2.8 3.3 1.6 3.6 1.1 4.2 0.7 2.4-0.3 1.8-0.8 2.7-1.9 1.2-1.6 0.7-2.2 0.1-2.3-0.1-1.3-0.5-1.1-1.5-1.3-2.1-0.9-0.4-0.5-0.8-3.6-3.6-4.7 6.6 1.5 7.7 0.3z" id="VNM510" name="Vĩnh Long" data-id="VNM510" data-name="Vĩnh Long">
 </path>
 <path d="M600.1 142.9l-0.5 0.4-4.5 2.4-2.8 0.8-3 0.4-3.7 0.1-3.8-0.4-3.9-1.5-11.3-7.7-1.9-0.7-1.9-0.1-2.4 0.7-2 1-4.5 4.1-4.2-0.3-2-1.6-1.3-1.8-0.3-2 0.1-3.6-0.5-1.5-2.3-2.1-0.9-1.1-0.2-1.3 0.1-2.9-1.3-1.2-2.2-0.5-4.6 0.3-7 2.2-1.7 0.9-2.5 1.7-3.4 1.3-2.1 1.2-2.1 1.5-2 0.8-2 0.4-2.6-0.4-2.4-1-3.8-3.5-1.6-3-0.8-3-0.5-2.5-0.8-2.3-2.3-3.9-0.8-1.8-0.5-1.9-0.1-2 0.4-2 1.4-4 0.5-1.7-0.1-1.5-0.4-1-0.9-0.6-4.1-1-1.7 0-2.1 0.7-2.2 1.2-6.1 4.9-4.8 6.7-6.1 5.9-6.5-10.4-4.1-9.9-2.1-3.1-3-3.4-20.3-11.8-0.9-1.6 0.8-1.6 7.8-5.5 2.4-2.7 2.2-2.7 2.8-4.6 1.3-1.6 1.3-1.2 1.4-0.7 1.5 0 3.2 0.6 1.4-1 1.3-2.4 1.7-9.2 0.4-0.7 1.1-0.7 1.9-0.4 0 0.7 0.6 2.8 1.6 2.3 1.9 0.8 9.7 0.4 3.8 1.2 3.4-0.1 1.4 0.9 2.6 2.7 1.6 0.8 1.6 0.5 1.6 0.8 1.5 1.5 1.8 2.8 7.6 8.7 2.5 1.8 1.2-0.4 1-2.3 0.8-0.7 1.5-0.3 2.3 0.7 1.3 0.1 4.3-0.5 2.2-0.6 1.7-1.1 2.2-4.6 1.2-0.7 10.7-0.8 7.4 0.9 5.1 1.3 4.4 2.8 2.8 5.1 0.6 5.4 0.9 1.8 2.9 1.3 2.9 0.5 2.7 0 2.6-0.4 19.3-5.1 2.1-1.2 0.6-3.4 1.3-0.8 1.9 0.5 2.1 1 6.8 1.7 2 1.2 1.4 2.1 1 2.4 1.5 1.8 3 0.5 1-0.6 1.1-2 1.2-0.4 1.4 0.3 1 0.9 1.4 2 4.1 3.2 2.2 3.8-0.1 0.4 2 0.1 3.1-0.3 2.9 0.3 1.2 1.9-0.9 1.8-4.5 2.6-1.6 1.5-1 2.5-0.5 4.7-1.2 2.6-3 4.6-1 2.3-2.3 7.5-1.7 1.5-2.9 0.1-2.2-1.7-1.5-2.5-1.6-1.9-2.7 0.3-1.4 1.9-1.2 3-3.1 15-0.6 1.2-1.5 2.2-0.4 1.7 0 1.5 0.8 3.6z" id="VNM511" name="Cao Bằng" data-id="VNM511" data-name="Cao Bằng">
 </path>
 <path d="M464.7 40.5l-1.9 0.4-1.1 0.7-0.4 0.7-1.7 9.2-1.3 2.4-1.4 1-3.2-0.6-1.5 0-1.4 0.7-1.3 1.2-1.3 1.6-2.8 4.6-2.2 2.7-2.4 2.7-7.8 5.5-0.8 1.6 0.9 1.6 20.3 11.8 3 3.4 2.1 3.1 4.1 9.9 6.5 10.4-9.2 1.7-12.7-2.3-8.5-0.7-14.8-5.5-5.2-1.3-2.3 0.3-1.2 1.3-0.8 4.7-0.7 2.5-3.3 9.1-1.4 2.4-4 4.6-1.7 2.7-1.3 2.7-1 2.8-2.3 9.6-1.1 1.6-1.2 0.6-1.5-0.1-3.9-1.5-2.2-0.4-2.6 0.3-1.5 1.3-0.8 1.8-0.2 2.1 0 3.9-0.6 1.7-0.7 1.7-5.4 8.6-5.6 5.8-3.8 0.4-3.2-0.7-3.6-1.3-2.9-2.9-3.4-5.5-2.1-2.3-2.5-1.5-2.9-0.6-2.3 0-3.1 1.5-2.3 3.1-0.9 0.6-0.8-0.1-0.7-1-0.3-1.9 0.3-2 1.1-4.6-0.1-2.4-0.9-2.5-2-2.7-1.9-1.7-2.1-1.4-4.5-2.1-4.7-2.9-1.6-2-0.7-2.7 0.1-4.3-0.3-2.2-0.8-2.7-1.7-3.8-0.7-4.1 0.2-1.9 1.1-0.8 3.5-0.1 0.5-0.6-0.1-0.9-0.9-1.5-4.9-6.2-0.9-1.3-1-1-1.4-0.8-4.2-0.8-1.5-1-0.7-0.8-0.4-1.9 0-0.8 11.9-7.8 2.6-2.9 8.8-7.3 2.7-3.1 1.2 0.2-0.1 1.5 0.5 0.6 1.9 1.7 1.3 0.3 0.8-0.4 1.4-1.6 0.7-0.4 2.6 0.3 4.6 1.5 2.7-0.2 2.4-0.9 2-1.3 1.8-1.8 4.7-6.7 1.5-1.7 6.7-4.1 0.6-1.5-0.1-3-4-19.3 1.8-1.6 3.4-0.5 3.4-3 0.6-2 0.2-2.4 0.4-2 1.5-1.2 1.9 0.2 3.5 2.1 1.9 0.2 1.4-0.8 4.9-4.5 4.7-2.4 4.2-3 1.9-0.8 11.1-3.2 1-1.6 0.8-0.3 1.3 0.9 1.5 0.4 1.8 0.9 1.5-0.3 2.3-1.7 0.8-2.4 0.5-2.8 1.2-2.8 1.3-1.6 4.6-4.2 1.9-1.1 2.5 0.1 1.1 1.7 0.6 2.6 1 2.7 1.6 2.1 2.1 1.8 2.2 1.5 1.9 0.9 1.3 0.1 2.1-0.5 1.5 0.8 0.7 0.8 1.8 3.3 2.8 5.8 1.2 1.7 5.9 3.9 1.5 1.8 0.9 2.9 0.1 5.5z" id="VNM512" name="Hà Giang" data-id="VNM512" data-name="Hà Giang">
 </path>
 <path d="M305.4 100.4l0 0.8 0.4 1.9 0.7 0.8 1.5 1 4.2 0.8 1.4 0.8 1 1 0.9 1.3 4.9 6.2 0.9 1.5 0.1 0.9-0.5 0.6-3.5 0.1-1.1 0.8-0.2 1.9 0.7 4.1 1.7 3.8 0.8 2.7 0.3 2.2-0.1 4.3 0.7 2.7 1.6 2 4.7 2.9 4.5 2.1 2.1 1.4 1.9 1.7 2 2.7 0.9 2.5 0.1 2.4-1.1 4.6-0.3 2 0.3 1.9 0.7 1 0.8 0.1 0.9-0.6 2.3-3.1 0.5 4.5 1.9 4.4 0.3 2.1-0.4 1.6-1.2 0.8-1.8 0.6-2 1.3-1.9 2.1-2.2 3.8-1.7 2-1.5 0.6-1.7-0.6-9.2-6.4-2.9-0.8-3 0.1-4.3 2-2 2.5-0.5 2.6 1.1 3 5.7 10.2 1.3 3 0.5 2.7-0.1 2.5-1 2.9-1.5 2.3-1.9 1.9-2.3 1-2.6-0.2-3.3-1-11.2-5.2-3.5-2-1.4-0.6-1.1 0.3-0.4 1.1 0.2 1.7-0.1 2.1-0.7 2.2-1.4 2.5-1.2 0.7-1.3-0.2-1.3-1.2-1.7-1.2-2.1-0.9-2.5-0.5-5.7-0.5-2.8-0.5-2.4-1-2.4-1.6-3.8-3.8-1.6-1.1-1.4-0.2-0.9 0.9-2.4 6-2.8 4.6-2.3 2.5-1 1.4-0.4 1.1 0.3 1.1 4.4 7.1 0.9 1.9 0.1 1.8-0.4 2-1.8 4-1.6 2.8-4 1.1-2.4 0.5-2.9-1-3-2.5-16.8-18.8-2.6-4.8-6-16.1-1.7-2.9-2.3-1.8-1.7-0.8-4.9 1.2 2.2-12.4 0.9-2.4 1.2-2.4 2.8-4.3 1.7-1.7 2-1.4 6.8-2 2-1.4 1.7-1.7 6.1-7.6 3-5.7 0.9-2.7 0.2-2.6-1-2.7-2-2.6-4.4-3-3.1-0.9-2.9 0.2-2.2 0.6-2.3 0.5-2.3-0.1-2.6-0.8-2.8-1.6-3.4-2.6-1.5-2.3 0.2-2.2 1.3-1.7 1.6-1.7 1.4-1.7 0.5-2.5-0.6-3.2-1-3.4-4.1-7.8-3-2.5-0.7-6.2 0.4-1.4 2.8-3.6 1.2-2.3 0.8-2.2 1-1.8 1.9-1.2 5.8-3.4 1.6 0.9 9.2 11.3 9.2 8.3 1.5 1.8 0.6 1.3 2.7 4.3 0.9 1 1.1 0.5 3 3.5 0.8 0.3 2.2 0.2 0.8 0.4 1.1 1.6 2 3.7 1.1 0.7 2.1 0.6 1.4 1.2 1.1 1.3 2-1.2 1.5-1.7 0.3-1.9-0.2-2.1 0-2.3 0.6-2.3 1.8-4.3 0.5-2.3 0.9-8.9 1.4-4.1 2.8-3.9 1.3-1.2 1.6-3 1-1.3 1.8-1.3 1.7-0.4 3.9-0.4 11.6-4.1 3.8 0.1-1.1 2.9-0.6 3.1 0.1 3.2 1 2.9 1.7 2 7.4 3.5 2.9 1.8 2 0.9 2.1-0.3 0.8-0.6z" id="VNM5483" name="Lào Cai" data-id="VNM5483" data-name="Lào Cai">
 </path>
 <circle cx="543.6" cy="1842.8" id="0">
 </circle>
 <circle cx="468.9" cy="1875" id="1">
 </circle>
 <circle cx="471.2" cy="1863.5" id="2">
 </circle>
</svg>