<?xml version="1.0"?>
<!--
************* Copyright (c) 2017 Pareto Softare, LLC DBA Simplemaps.com *******************		
************* Free for Commercial Use, full terms at  http://simplemaps.com/resources/svg-license ************
************* Attribution is appreciated! http://simplemaps.com ***************************
-->
<svg baseprofile="tiny" fill="#7c7c7c" height="2039" stroke="#ffffff" stroke-linecap="round" stroke-linejoin="round" stroke-width="2" version="1.2" viewbox="0 0 1000 2039" width="1000" xmlns="http://www.w3.org/2000/svg">
 <path d="M273.5 302l16.6 8.2 2.4 1.9 2.1 2.7-1.8 14.8-0.8 2.4-1.5 1.7-7 11.9-3.8 3.9-3 1.7-2.9 0.2-18.3-1.5-3.7 1.4-3.9-0.3-8-3.7-1.2-1.6 1.1-3.3 2.8-5.6-1.7-15.3 0.7-5.1 1.8-2.4 2.7-1.6 6.4-5.3 2-0.4 2.4 0.5 4.5-0.2 2.4-1.2 4.2-3.7 2.7-0.9 2.8 0.8z m13.7-83l3.5 0.6 0.4 2.3-0.8 1-5.2-0.1-4.4 3.3-4.9 2.4-5.8 1.4-6.9 0.5 1.8 1.3-1.8 2.6 3.2 6.5-3.7 5-5.7 0.5-3-7.1-0.2-5.8-1-3.6-2.8-3-5.3-4-6.4-9.8-1.6-5.8 0.4-7.4 2.2-6 3.7-4.7 4.9-3.5 11.8-5.1 4.1-0.1 3.8 2.4 4.9 5.5 7.7 14.8 3.4 2.4-3.4 4.5-2 1.2 1.7 4 2.3 1.5 2.5 0.6 2.6 1.7z m30.3-47l-5.4 1.1-4.5 0-2 3-2.3 0.2-0.4-2.6 9.9-13.3 3.8-3.3 5-1.4 2.5 1.7 1.3 4 0 4.5-1 3.3-2.3 1.2-4.6 1.6z m-95.1-43.2l2.8 1.3 3.1-0.7 3.3-2.3-0.6 7.3-3.2 2.8-5.1 0.1-6-0.6-2.9-4.2-2.2-4.5-0.1-4.5 3.3-4 7.1-1.8 4.4 2.6 0.1 3.6-6 1.3 2 3.6z m-191.6-73l-4.7 1.9-4.7-1.2-3.5-3.2-2.1-4.6 4.2-3.7 5.7-2.1 5.4 0.4 3.4 3.7-0.3 4.9-3.4 3.9z m-19.1-21.2l-1.5 0.8-4.3-2.3-2.4-2.9-0.8-4 0.2-6 1.5-7.6 0.3-3-0.7-2.1-2.7-3.2-0.3-3.3 9.2 2.5 1.9 1.4 1.4 2.9 1.1 6.3 1.2 2.3 0 1.7-1.8 3.3 0.3 2 1.5 2.5-1.6 0.8-0.2 4.9-2.3 3z" id="VUT560" name="Torba" data-id="VUT560" data-name="Torba">
 </path>
 <path d="M194.4 750.7l-7.5 2.8-5.4-0.2-3.8-1.8-7.5-5.7-4-1.6-7.6-2-3.4-2.2-4.5-7.7 0.9-7.5 5.2-5.6 8.7-2.3 19.2 2.4 9.7 3.3 0.9 5-3.2 8.6 1.9 8.2 0.4 6.3z m-6.5-40.8l-4 3.1-6.3-1.8-0.9 1.1-3 0.8-3.9-0.6-2.9-1-6.1-4.1 12.9-13.7 5.2-2.1 3.7 0 0.7 1.1-3.8 1 0 1.9 2.7 0.8 1.1 1.5-0.4 1.8-1.6 1.9 6.3 3.4 0.3 4.9z m-16.5-177.4l-2.5 1.1-2.3-0.2-2.1-1.5-6-6.7-1.3-3 4.8 1.4 7 5.4 4.7 0.8-2.3 2.7z m-91 54.7l6.9 0.1 12.1-1.3 7 0.2 2.9-0.3 1.7-2.2 3.5-5.6 4.6-4.2 2-2.5 0.8-3.9 1.5-31-0.5-3.6-1.5-4.4 3.1-4 4.9-2.9 3.7-1.4 20.4 2 0 2-4.9 0.9-2.3 2.3-0.6 3.6 0.8 11.7-1.1 2.9-3.2 3.6 4.5 0.5 1.9 3.3 1.1 9.6 4.6 13.8 0.9 5.4 6.6-4.8 3.4-0.8 5 1.9-1.3 5.2 4.8 22.6-1.3 4.4-3.2 2 2.8 4.2 5.6 2.3 2.9 2.9 2.6 6.3-0.7 5.4-1.2 4.6-1.6 1.6-2-3.9-1.8 0 1.8 9.4 4.8 14.3 6.4 13.1 6.5 5.7 2.3 1.2 0.5 2.8-0.7 3.2-1.1 2.3-1.9 1.7-6.6-1.7-10.2 0-3.9 1.5-4.5 3.5-10.3 12.5-4.6 3-5.6 0.9-3.2-0.5-4.6-2.5-2.5-0.9-10.3-1.2-11.6 0.3-10.4 2.7-6.7 6.1 2.7 2.8-2.2 0.3-5.8-1.1-3.4 2.2-2.2 4.8-2 2.5-5.5 2.7-6.1-0.6-5.8-3.1-4.8-4.9 3.4-5.3 0.1-7.1-2.9-6-9.3-4.3-4-4-6-9.8-2.9-8.5-1.7-2.2-7.2-7.1-2-6.1-4-5.2-0.9-2.7 0.6-2.6 2.5-5.7 1.5-8.2 3.6-11.5 1-5.9-0.2-13-1.5-6.5-6.5-9.5-1.6-5.5-1.1-11.7-2.7-10.7 0.2-3.9 2.5-4.6-4.6-1.6-2.9-4.2-1.5-5.3-0.4-5.3-1.2-4.9-5.8-8.7-2.2-4.7-5-21.4 0.3-4.6 2-4.6 0.9-6.7-0.2-6.7-1.7-4.1 7.3-15.3-0.5-6.9 1-3.3 8.5-2.7 2.9-3.1 3.1 2.6 1.1 2.3 2.7 7.4 0.8 1.6 2.3 1.3 1.4 2.9 1 6.5 1.1 0.5 6.3 8.2 2.4 6.8 1.6 3.3 5.5 2.7 11.1 8.4-2.7 2.8 1.3 6.5 4.9 13.7 2.6 13 1.2 14-0.3 3.4 3.1 3.2 1 2 3.7 34.8 3.1 2.3z" id="VUT561" name="Sanma" data-id="VUT561" data-name="Sanma">
 </path>
 <path d="M900.9 2036.7l-2.2 1.3-2.6-2.5-3.5-1.6-6.9-1.8-8.3-4-3.7-2.9-0.5-6.7 2-7.2 3.2-4.9 3.5-1 7-1.2 7.3-0.3 5.2 1.6 5.5 4.3 4.3 2.5 3.4 2.8 2.7 5.3-2.8 7.3-1.9 3.5-2.7 2.8-3 1.5-6 1.2z m-106.5-173.3l-2.6 2.7-5.2-0.6-11.6-3.4-4.5-2.1-11.2-13.4-2.7-2.2-5.5-0.3-2.1-0.8-1.7-5-4.7-4.8-0.7-2.2-9.1-13.4-1.1-3-0.3-4.3 0.3-7.4 1.5-7 3-3.1 2.1-1.5 0-3.7-1.1-6.7 2.3-5.9 2-2 2.9-1.9 5.5-1.6 10.4-0.1 4.5-2.3 4.4 3.9 0.3 3.9-1.6 4.8-1.1 6.3 3.7 21.6 2.4 4.1 5.7 2.4 6.7 1.8 5.6 2.5 8.8 4.8 4.2 3 5.7 2.2-1.7 3.5-9.6 12.2-1.8 12.7-2.1 6.3z m-70.2-262.3l11 1.3 1.2-1.1 3.3-0.9 1.1 0.6-0.2 2.5 2.4 1.4 2.7 4.2 0.6 2-3.2 0.2-17.2 4.7 6.6 8.1 0.8 2.8 1.8 0.5 8.4 4.4 2.8 2 8.2 4.3 5.8 5.1 3.4 6.6 1.1 8.6-2.4 7.3-5.4 3.6-5.6 2.7-3.3 4.9-5.4-4.2-24-13-3.3-0.9-3.3 1.5-2.2-0.2-8.5-2.5-2.4-1.2-2.8-2.7-6.6-4.7-4.6-2.3-14.9-5-0.5-4.9 4.5-12.8 0-3.8-1-3.3-1.7-2.9-2.2-2.9-0.5-2.1 1.8-20.6 1.6-6 3.6-5.6 8.2-6 10.7-3.1 11 0.3 9.2 4.9 2.8 4.5 1.1 5.7 0 10.4 1.5 5.2 4 2.4z" id="VUT562" name="Tafea" data-id="VUT562" data-name="Tafea">
 </path>
 <path d="M497.3 976l-5.6 0.1-3.7-1-2.3-3.2-3.3-7.5 7.9-1.7 3.5-0.1 3.2 1.8 3.2 4.6 0.1 4.2-3 2.8z m-28.9-12.6l-4.7 2.9-4.4-0.1-1.9-2.6 2.7-4.9 2.6-10.6 3.1-2.3 7.3-0.7-2.5 4.2-0.3 9.9-1.9 4.2z m21.3-49.9l-9.2 7.3-28.7 1.1-3.8 1-3.9 1.8-3.8 1.2-3.4-1.3-3.2-2.7-3.6-2.2-3.6-1-3.5 1.1-7.1-5.1-3.7-0.7-4 1.9-2.6-3.4-9-5.5-4.2-3.5-4-2.4-4.7-1.9-2.9-2.4 1.5-4-3.7-3.3 3.6-3.8 6.6-3.1 8-1.8 4-2.9 2.6-0.6 12.1 0 5.6-2.9 10.2-10.4 3.7-2.3 1.3-1.6 4.2-11.1 2.4-1.2 5.9-1.5 5.4 5.9 4.3 9.4 5.3 17.7 1.1 8.6 5.1 5.3 19.4 10.3 2 2.5 0.4 4.1-2.1 3.4z m-243.5-58.4l5.4 1.9 4.1 3.8 2.8 0.9 1-1.1-1.9-7.5 1.1-0.4 2.6 2.9 3.8 6.1-0.2 2.5-2.1 3.2 0.3 2.2 6.2 2.9 3.1 1 0.8-1.6 2.9-2.3 1.9 6.4 1.6 3 2 2.3 3.1 2.1 6.3 1.8 3.6 1.8 6.1 5.8 3.5 5 3.9 2 7.2-3 3.6 1.7 0 2.1-1.9 4.1 4.9 5.4 11.7 9.7 7-1.2 3.7 6.3 2.3 14-5.1 9.4-0.5 5.2 4.1 3.1 0.3-5.4 1.1-3.6 2-2.7 2.9-2.7 2.8-0.2 2.1 3.5 1.8 4.5 1.9 3-6.4 6.6-5.7 1.7-1.6 2-1.4 2.7-2.8 3.2-1.7 2.7 0 4.5-3.1 1.6-4.3 0.1-2-2.4-1-3.2-1.9-2.5-2.5-0.7-7.1-1.3-1.5-0.6-1.7-2.5-3.9 0-4.1 0.7-2.4-0.2-5.2-2.1-6 2.2-5.4 3.9-3.2 2.9 3.6 3.4 2.4 0.4-2.7 3.6-3.2 1.3-7.1 1-5.7 5.7-3.5-1.7-1.4 0-0.7 3.6-1.7 0-2.2-2.9-7.4-2.5-3.3-6.5-3.7-3-3.2-4.1-0.7-6.2 1.9 0 1 1.8 3.9 2.9 2.5 0.9-0.7-4.5-1.6-5.7-2.4-5.4-6.7-9-1.2-3.1-0.4-4.2 0-6.7-1.2-1.8-4.4-1.9-0.8-6.1 0.3-17.3 1.4-3.7-2.9-13.6 0-6.7-0.6-2.2-2.5-0.8-2-5.9-9.7-15.3-5.7 3.9-1.7-2.1-4.4 5.3-12.4 8.3-6.5-5.8-3.6-1.5-2.9 1.5-1.8-2.8-1.9-8.7-2.1-2.9-4.4-4.2-0.9-3.7 1.1-6.7 8.2-15.6-1.2-18.6 0.2-3.7 1.4-2.3 1.4-3.7 2.8-0.6 8.3-6 29.8 11.8-0.3 9.9 16.2 20.8-4.8 9.9 3.5 1.4 2.9 1.9 1 2.7-1.8 3.6 7.3 6.9z" id="VUT563" name="Malampa" data-id="VUT563" data-name="Malampa">
 </path>
 <path d="M463.8 821.1l-6.1 0.4-3.2-1.9-1.4-4.1-0.9-11.4-4.9-17-3-21.7-6.5-15.8-2.4-10-0.7-11 1.4-11.7 6.6-22 1.5-22.5 6-0.5 1.7 13.1 0.8 2.7 1.8 2.6 3.1 2.1 0.5 4.3-2.1 17.3 0.4 4.7 3.7 8.9 0 8.6 0.8 3.9 6.3 18.2 2.2 14.4 1.3 4.2 3.2 6.4 1 5 0.7 11.2-0.7 9.8-3.5 7.5-7.6 4.3z m-99.1-144.9l-6.2 2.2-28.3-0.1-5.8-1.9-9.3-4.7-1.5-3.1 2.5-4.9 33.1-31.6 5.9-2 4.6-0.8 13.2-5.1 23.1-4 7 1.1 0.2 2.8-6.3 6-3.5 4.3-3.6 5.8-2.8 6.3-2 11-2.3 3.7-18 15z m87.7-31.3l-1.6 8.3-3.5-1.4-2.9 0-6.6 1.4 1.6-6.5-0.4-7.1-3.1-13.3 1.8-9.8-0.1-30.1-2.6-6.4-6.6-43.4 1.2-3.6-0.1-1.5-1.9-2.6-0.8-2.6 1-3.4 2.1-3 2.4-1.4 3.3 1.9 2.9 5 2.1 5.5 0.8 3.8 0.4 6.5 3.3 15.7-0.2 8.7 0.2 2.9 3.2 9.2 0.5 3.2 0 9.8 0.9 2.4 3.8 4.5 0.9 2.5-0.9 19.2 1.5 4.1-0.5 5.3-1.8 8-0.3 8.2z" id="VUT564" name="Penama" data-id="VUT564" data-name="Penama">
 </path>
 <path d="M492.3 1262.6l1.3 1.8 4.8-2.9 18.6-3.1 4.4 0.7 3.9 2.7 1.5 6.9 1.1 1 2.3 0.5 1.6 1.2 2.7 4.2 2.2 5.3 1.5 5.5 2.5 4.6 5.1 2 1.6 2.9 2.2 5.4 1.7 1.7 2.8 0.6 2.7-0.5 3.8-2.1 0.5 4.9-8.1 16.5-2.2 7.2-2 3.5-3.6 1.5-7 1.4-2.6 3.3-2 0.6-3.1-1.9-1.6-2-19.2 4.7-2.1 0.1-4.7-2.8-1.7-4.9-1.2-0.9-2.9 3.8-0.2-2.3-1.2-2.9-6.4-1.2-3.1 2.7 1.7-9.9-1.7 0-2.8 3.6-4.3 1.9-9.7 2.3 0-1.8 4.7-3.6 6-1.8 4.8-2.7 1.3-5.9-2.3 1.5-1.8 0.1-1.2-1.4-0.9-6-1.2-0.9-3.9-1-4.3-2.4-3.6-0.5-3.3 0.9-3.6 2-1.9 2.1-3.7 6-1.8 1.7-3 0.7-1.8-1.1-0.8-2.9-3.8-2.5 0.8-3.5 6.7-14.2 3.2-3.4 7-5.1 2.8-3.1 10.8-16.1 7.1-6 8.2-1.4 1.4 1.8 1 2.9z m-32.1 5.9l-2.2 3.2 0.7-8.8 8.4-8.1 9.9-3.5 5.4 4.8-3.4 1.2-6.1 3.5-3.6 1-6.3 4.3-2.8 2.4z m43-25.8l-4.3 1.4-6-4-3.1-6.5 1.3-7.9 3-1.4 3.7 3 3.2 5.4 2.2 10z m-7.8-109.6l-2.8 0.3-2.8-1.4 1.4-3.3 3.2-3.3 2.6-1.9 10.6-5.2 3.7-0.1 6.3 1.6-2.3 1.9-6.9 3.9-4 5.2-9 2.3z m61.6-44.2l-3 1.7-4.4-0.4-2.8-1.2-0.8-2.4 1.4-3.9-0.3-6.1 5.1-4.3 7-0.6 5 5.2-7.2 12z m-104.5-102.6l4.8 5.8 4.7 10.6 2.7 2.4 1.2 6.5 1.2 4.6 2.3 2.6 2.1-0.3 4.5-2.9 2.6-0.6 4.5 1.5 3.1 2.3 2.8 4.3 1.8 4.4 2.4 3.4 4.9 1.5 2.1 4.8 2.5 3.3 4.9 1.5 14.3-0.5 6.3 2.1 4.5 6.3-3.6 1.7 0.7 3.8 1.6 4.5-0.6 3.6-2.8-1.3-2.7 1.3-14.4-8.2-4.4-4.7-4.5-2.2-5.2-1.6-4.1-0.7-11.3 2.5-8 4.7-7.9 3.1-11.1-2.6-3.5-2.1-8-7.9-1.5-2.6 0.6-7.9-0.6-2.9-4.3-3.7-2.2-2.6 0.1-2.4 1.1-3.4 0.6-10.5 1.1-4.4 4.9-5.4 0.6-3.5-0.6-4.6-1.3-4.3 2.7 1.7 5.7-1.7 2.7 0.7z" id="VUT565" name="Shefa" data-id="VUT565" data-name="Shefa">
 </path>
 <circle cx="999" cy="1825.6" id="0">
 </circle>
 <circle cx="750.4" cy="1806.4" id="1">
 </circle>
 <circle cx="31.6" cy="574.9" id="2">
 </circle>
</svg>