<?xml version="1.0"?>
<!--
************* Copyright (c) 2017 Pareto Softare, LLC DBA Simplemaps.com *******************		
************* Free for Commercial Use, full terms at  http://simplemaps.com/resources/svg-license ************
************* Attribution is appreciated! http://simplemaps.com ***************************
-->
<svg baseprofile="tiny" fill="#7c7c7c" height="579" stroke="#ffffff" stroke-linecap="round" stroke-linejoin="round" stroke-width="2" version="1.2" viewbox="0 0 1000 579" width="1000" xmlns="http://www.w3.org/2000/svg">
 <path d="M3.1 334.8l-0.5 0.6-1.4-1.9-0.2-0.7 1.6-1.5 0.8 0.8 0 1.1 0.3 1.3-0.6 0.3z m23.8-56.5l0 0.6-0.7 0.6-5.1-0.6-1.7 0.2-0.6-0.3 0.2-1.4-0.4-1.3 0.4-0.5 0.5 0 3.4 1.8 0.2 0.2 3.8 0.7z" id="YEM99" name="" data-id="YEM99" data-name="">
 </path>
 <path d="M227.8 134l-1.8 26.9-6.7 3.4-4.7-0.5-5.1 0.1-5.4 1.2-4.5 1.6-10.6 5.4-1.5 1.5-3.2 4.6-1.1 1-1.4 2.6-0.8 0.7-1.2 0.2-1.5 1.6-3.3 2.2-1.2 0.5-0.6 0.5-2 0.8-1.8 1.4-1 1.5-1.6 3-1 4.3-1.2 2.9-5.7 1.7-3.4-0.1-3.7-0.7-8.2-3.4-5.7-1.5-3.2 0-2.1 0.7-1.1 0.8-2.3 1.2-1.6 0.7-10.4 2.5-9-0.8-6.1 0.4-1.7-0.2-1.4-0.8-13.6-4-1.6-1-0.5-2-0.7-1.3-0.2-1.1 1.2-1.8 2-1.3 0.4-0.9-0.1-1-0.6-1-0.8-0.6-3-0.9-0.9-0.7-1-3.1-1.7-3.3-0.3-1.4 0.5-2.1 1.3-3.3 0.4-1.6 0-1.8-0.5-1.9-0.6-1.4-0.3-1.4 0.4-1.7 1.7-3.3 0.5-1.8-0.1-1.9 0.5-1.7 1.7-1.3 2.1-0.9 1.8-0.4 1.9-0.9 0.2-1.7-0.8-1.9-1.6-1.2-4.6-1.5 0.2-0.4 3.9-4.8 7-6.1 7.1-4.4 1.8-0.7 1.8-0.3 1.4 0.4 2.8 0.1 1.3 0.3 5.9 2.6 3.4 2.1 5.7 6.3 3.3 2.7 1.6 0.5 1.5 0 3-0.3 3.2 0.3 1.4-0.1 1.9-0.5 0.5 0.2 0 0.9-0.2 1.7 0.5 1.1 1.5 0.4 1.9-0.2 1.2-1.3 1.1-1.7 1.2-1.4 1.7-0.9 1.4 0.1 3.1 1.6 2.1 0.3 1.5-0.7 1.3-1.5 1.1-2.1 1.2-0.9 1.7 0.2 3.4 1 1.5-0.1 6.2-1.4 7.8-0.8 4.9 0.1 5.5 1.2 2.3-0.1 5.1-2 1.7-0.4 26.3 0.2z" id="YEM150" name="Sa`dah" data-id="YEM150" data-name="Sa`dah">
 </path>
 <path d="M43.7 449.5l-0.2-1.2 0.6-1.7 2.1-3.6 3.4-2.5 1.7-0.6 1 0.8-0.3 1.6-2.4 2.6-0.6 1.8-0.8 0.8-4.5 2z m8.1-21.8l-0.6 0.5-2.2 0 1.1-2.4-1.7-0.6-2-1.1-1.7-1.5-0.7-2.1 0.7-1.3 1.6-1.5 1.9-1.1 1.3-0.4 0.6-0.6 2.2 2.9 0.5 1.1 0 0.9-1.1 3.1-0.1 2.6 0.2 1.5z m-16.7-122.2l0.9 0.2 1-0.3 1.1-0.6 0.7 0.1 0 1-0.9 3.2-0.2 1.1 0.1 0.7-0.2 0.7 0.1 0.9-1.6 2.4-1 0.9-1.1-0.1-0.9-0.7-0.9-1.4 0-1.9 0.8-2 0.3-4.3 0.9-1.5 1.8-1.7 0.7-1.3 1.8-0.9 0.6 0.2 0.4 0.8-2.1 1.3-0.3 0.6 0.4 0.5-0.3 0.5-0.7 0.6-1.2 0.6-0.2 0.4z m59-9.9l0.2 3.5 0.4 1 0.1 1.8 0.4 1.4 0.1 2.4-0.3 2.8 0.4 1.9 0.2 2.3 2.2 3.3 1.8 1.3 2 1.8 3.3 0.9 0.8 1.5 0.9 2.3 1.6 2.8 0.9 2.5 1.2 1.8 2.5 2.5 2 1.1 2.7 2.5 2.5 1.4 2.2 0.5 1.5 0 1.6-0.2 1.9 1.8 0 0.9-0.5 0.4-1.3 2-1.1 0.8-1.2 0.2-2.5-1-0.9-0.1-0.6 1.2-2.4 2.5-1.5 1.3-1.5 2.2-1.3 3.6 1.1 6.2-0.4 1.3-1 1.2-0.2 1.5 0.3 2.7-0.3 1.4 0.3 1.6 3.1 8.4 0.3 1.3 1 2.1 0.3 1 0 2.2-0.2 1.5-2.9 3.5-1.6 0.1-0.5 1.1 2.7 11.4 0 2.8 1.1 2.8 1.4 1.2 1.8 1.2 2.5 0.8 4.5 2.8 1.6 0.6 1.3-0.1 1-1 1.2-0.7 1-0.8 1.3-0.5 0.2 2.3 0.4 1.4-0.5 2.3-3.1 5-1.3 0.8-0.7-0.5-1.3-0.5-1.4 0.6-0.3 1.1 1.1 1.5 0.7 1 0.1 1.3-0.9-0.2-2.1 0.7-6.7 1.1-2 0.6-2.9 1.3-6.1 8-0.8 1.6-0.9 1.1-1.8 0.3-2.8 0.8-2.3 1-5.7 4.6-0.3 0.1 0.1-1.8-0.3-2.9-2.7-5.2-0.4-0.8-0.8-6.9-0.5-0.7-5.3-5.7-1.8-4.5-1.7-3.7-1.8-2.6-0.9-6.3-0.7-2.9-0.8-2.5-1.5-4.3-2.3-7.7-0.6-1.7-0.4-2.6-1-2.4-0.3-2.6-0.2-0.8-0.5-0.4-1.4-1.1-0.4-0.5 0.2-1 0.4-0.4 0.6 0.2 0.8 0.6 0.8 1.7 1 3.8 1.2 1.1 0.1-2.5-0.2-1.1-0.5-1 1.2-3.4-0.9-2.8-1.5-2.5-0.9-2.7 0.2-0.6 0.7-0.9 0.1-1-0.4-0.4-0.4-1-1.1-0.7-1.2-1.7-0.6-2.8-0.1-0.9-0.8-3-3.9-4.8-0.9-3.1-0.1-1.7 0.1-0.9 0.6 0.1 0.4 0.7-0.4 1.2 0 0.9 0.6 1.6 1 1.7 1.3 1.5 1.5 1 0.1-1.2 0.5-2.8 0-1.7-0.9-3-0.3-2.8-0.5-1-0.6-0.9-2.1-2-0.9-1.1-0.5-1.4-0.3-1.9 0.4-4.5-0.4-1.5-1-1.4-2.9-1.3-2.6-2.2-1.6-1.1-1.8-0.9-1.7-0.6-1.8-0.4-1.6 0-1.1 0.7-0.5 1.7-0.9 0.3-1.8-0.7-1.6-1.4-0.1-1.9-0.5-1.1 0.9-0.1 2.7 0.6 1.4-0.2 0.8-0.6 0.5-0.9 0.3-1.1-0.1-0.9-0.8-1.2-0.2-1.1 2.1-3.9 0.6-0.9 0.5 1.1-0.3 1.3-0.5 1.3-0.7 0.9 1.5 0.7 1.2 0.7 3.3 2.8 0.4 0.6 0.2 1.1-0.2 1.6 0.2 0.5 1.1 0.5 0-1.1-0.6-0.6 1.2-1.3 0.5-1.9-0.2-6.4-0.7-2.9-1.3-2.4-0.3-1.2 0-0.9 0.3-1.9-0.3-1.9-0.3-1.1-1.1-2-3.3-4.6 0.2-0.7 0.9-1.1-1.5-1.8-0.5-1.2-0.2-1.4 0.8-3-0.2-1.2-1.7-0.6 0.6-1.3 0.8-0.7 0.9-0.6 1-0.9 0.7-0.8 0.3-0.8 0.1-2.2 0.5-2.3 1-1.6 1.5-1.2 1.4-0.9 1.5-1.2 0.8-1.5 0.4-1.8 13.1 7.9 5.4-0.8 3.5 0.3 1.7-0.9 1.2-0.9 3.1-0.7 8.3-0.7 2.1 1.6 1 2.3-0.2 2.7-0.5 2.1-0.5 1.4-0.7 1.2 0 1.5 1 2.8-0.6 4.8-0.4 0.9-0.1 1.1 1.2 7.3z" id="YEM151" name="Al Hudaydah" data-id="YEM151" data-name="Al Hudaydah">
 </path>
 <path d="M148.1 296l-1 3.7-0.4 3.6-1.4 1.5-3.2 2.2-1.7 0.8-5.7 4.1-3 3.1-5.4 1.1-0.9 0.9-5 3.1-1.4 1.8-0.6 2.2 0.3 4.1-0.8 2-1 0.9-2.1 3.4-2-1.1-2.5-2.5-1.2-1.8-0.9-2.5-1.6-2.8-0.9-2.3-0.8-1.5-3.3-0.9-2-1.8-1.8-1.3-2.2-3.3-0.2-2.3-0.4-1.9 0.3-2.8-0.1-2.4-0.4-1.4-0.1-1.8-0.4-1-0.2-3.5 4.5-1.6 14.2-1.4 1.7 0.2 1.7-0.1 7.3 0.8 2.2 0.7 1.8-0.2 1.5-0.5 4.2 0.1 3.6-1.4 1.5-1.1 1.5 0.2 1.1 0.4 0.7 1 1.5 0.9 5 2.4z" id="YEM152" name="Al Mahwit" data-id="YEM152" data-name="Al Mahwit">
 </path>
 <path d="M219.4 358.6l-6.1 7.4-2 8.2-1.5 11.8-2 4-2.7 2.6-3 1.5-1.9 4.4-1.6 0.7-2.4-1-4.6-1.6-3.7-2.4-1.9-0.8-2.3-0.8-1.8-1.1-4-1.1-1.8-0.8-1.5-1.6-3.5-2.9-1.3-0.5-1 0.3-0.9 1.4-0.1 1.1-0.6 1.4-0.9 1.4-3.7 1.5-2.1-0.5-0.6-1.2-1.1-4.3-1.2-0.2-1.5 0.6-1.9 2.1-2.2 1.8-1.8 2.3-1.9 0-1.3 0.6-0.6 0.8 0 1.4 0.7 1.3 0.2 1.9-0.1 1.9-2.1 4-1.9 1-2.2 0.5-1.3-0.6-0.3-1.5 0.3-1.8-0.4-0.8-0.7 0.1-0.6 1.3-1.3 1.9-1.3 3.5-1.1 1.6-1.2 2.7-1.3 0.5-1 0.8-1.2 0.7-1 1-1.3 0.1-1.6-0.6-4.5-2.8-2.5-0.8-1.8-1.2-1.4-1.2-1.1-2.8 0-2.8-2.7-11.4 0.5-1.1 1.6-0.1 1.9-0.1 1.4-0.1 4.8-2.7 2.8-2.4 0.8-1.1 1.4-0.6 2.4-0.1 1.8 0.7 1.2 0.1 2.1-0.3 1.3-0.4 1.2-0.9 5.1-3.1 1.4-1.4 1.4-1.1 2.4-3.2 0.7-2-0.7-1.5-1.3-1.8-0.9-2.2-1.6-2.6-5.3-5.9-1.9-2.6-0.9-2.9-0.1-1.5 1.2-1.1 3.8 0.4 3.1-0.3 1.8-0.5 2.8-2.6 1.5-0.9 1.6-1 1.9-1.1 4.4-3.2 2.8-1 2.6-0.5 2.2-0.1 1.4 1 2.2 0.8 1.6 1.8 1.9 1.6 6.2 1.3 2.4-0.8 1.1-1.5 0.4-1.6 0.7-1.3 2 0.3 1.4 1.8 2.1 1.4 2.2 0.2 3.3-1.3 1.7-0.9 1.8-2.2 1.4-2.1 1.9-1.3 1.7-0.2 2.1 0.2 2-0.2 2.1 0.2 1.8 1.2 2.3 3.4 1.2 5.6 1.5 3.1 3.2 4.5 0.8 1.9 0.1 2.9z" id="YEM153" name="Dhamar" data-id="YEM153" data-name="Dhamar">
 </path>
 <path d="M117.2 203.3l-0.4 14.5 1.2 11.5-0.2 1.4-0.2 1.8 0.1 1.5 0.2 1.2 0 1.3 0.5 0.9 2.4 1.7 0.9 1.4-0.1 2.5 0.3 2.1 0.1 1.9 3.2 6.5-0.1 1.2-0.7 0.9-1.9 1.5-0.8 1.8 1 0.9 0.9-0.2 3.1-3.6 0.8-0.3 0.8 0.4 1 0.9 2 3.3 0.8 3.2 0.5 3.3-0.3 1.6-0.3 3 0.5 2.1 0.2 1.6 1.4 1.2 0.5 0.8-0.4 3-0.6 2.3-0.8 1-1.3 0.3-1.5-0.4-1.3 0.1-1 0.7-0.7 0.7-0.4 0.9-0.3 1.1 0 1.1 1.1 2-0.1 1.2-1.6 3.1-2.2-0.7-7.3-0.8-1.7 0.1-1.7-0.2-14.2 1.4-4.5 1.6-1.2-7.3 0.1-1.1 0.4-0.9 0.6-4.8-1-2.8 0-1.5 0.7-1.2 0.5-1.4 0.5-2.1 0.2-2.7-1-2.3-2.1-1.6-8.3 0.7-3.1 0.7-1.2 0.9-1.7 0.9-3.5-0.3-5.4 0.8-13.1-7.9 0.7-11.6-0.3-3.8-2.2-11.8-0.3-6.3-0.6-2.3 0-1.1-1-1.5 3.9-1.4 2.8-1.2 2.1-1.4 0.7-1.4-0.3-2.6 0.3-1.1 0.9-0.4 3.1-0.6 1.2-0.4 3.5-2.1 1.7-1.3 1-1.4 2.1-5.5 0.4-1.6 0.1-1.8 0.4-1.2 1-0.4 2 0.4 3.2 1 1.4-0.3 0.5-1.7 1.6 1 13.6 4 1.4 0.8 1.7 0.2 6.1-0.4 9 0.8z" id="YEM154" name="Hajjah" data-id="YEM154" data-name="Hajjah">
 </path>
 <path d="M164.6 201.4l4.2 2.8 1.3 0.6 4.6 3.5 1.2 1.3 0.5 1.4-0.4 1.2-0.8 1 0 1.5 1.2 2.4 0.7 3.1 0.7 2.2 1.1 2 0.3 1.9-0.2 1.7-0.4 1.5 0.4 1.1 0.5 0.8 0.1 1.2-1.8 5.5 0.8 2.2 0.1 2.6 0.4 2.3 2.6 4.6 2 2.3-4.4 0.3-4.7 1.8-4.7 2.5-0.8 1.9-0.7 2.2 0.4 4.6 0.5 2.3 0.6 1.6-0.1 1.8-0.4 1.6-1.7 2.4-2.3 1.7-1.5 2.2-0.1 3.8-0.9 3.5-4.9 3.9-2.3 1.1-2.6 0.4-3.1-0.3-1.1 1.2 0.1 1.3-0.9 2.1-5-2.4-1.5-0.9-0.7-1-1.1-0.4-1.5-0.2-1.5 1.1-3.6 1.4-4.2-0.1-1.5 0.5-1.8 0.2 1.6-3.1 0.1-1.2-1.1-2 0-1.1 0.3-1.1 0.4-0.9 0.7-0.7 1-0.7 1.3-0.1 1.5 0.4 1.3-0.3 0.8-1 0.6-2.3 0.4-3-0.5-0.8-1.4-1.2-0.2-1.6-0.5-2.1 0.3-3 0.3-1.6-0.5-3.3-0.8-3.2-2-3.3-1-0.9-0.8-0.4-0.8 0.3-3.1 3.6-0.9 0.2-1-0.9 0.8-1.8 1.9-1.5 0.7-0.9 0.1-1.2-3.2-6.5-0.1-1.9-0.3-2.1 0.1-2.5-0.9-1.4-2.4-1.7-0.5-0.9 0-1.3-0.2-1.2-0.1-1.5 0.2-1.8 0.2-1.4-1.2-11.5 0.4-14.5 10.4-2.5 1.6-0.7 2.3-1.2 1.1-0.8 2.1-0.7 3.2 0 5.7 1.5 8.2 3.4 3.7 0.7 3.4 0.1 5.7-1.7z" id="YEM155" name="Amran" data-id="YEM155" data-name="Amran">
 </path>
 <path d="M200.2 398.5l2.7 1.7-0.1 4.7 0.8 1.2 0.9 0.3 2.8 1.7-0.9 2.6-1.2 1-1.6-0.1-1.7 0.2-0.7 0.7-0.1 1.1-0.8 1.8-1.3 1.3-0.6 1.8 0.5 1.7 1.5 1.4-0.8 1.5-1.5 0.4-1.6 0-1.9 0.4-2.1 0.8-2 1.4-1.3 2.1-0.2 1.5-0.6 2.4-0.8 0.5-0.9-0.1-1 0.6-1.2 3.4-1.3 0.8-0.6 1.5 0.1 0.5-0.5 2.1-0.8 1.2-1.1 1.3-3 2.1-2 0.2-1.7-0.6-1.2-0.6-1.6-0.6-2.9-0.1-6-1.9-2-1.2-4.1-0.5-9.3-2.7-0.6-1.1 0.4-1 0-1.6-1.2-0.5-3.7 1.5-0.7-0.9 0.1-1.5-0.5-1.2-3.8 0.5-1.7 0.8-2-0.6-1.8 0.9-4.8-0.2-2.2-4.2 2.1-0.7 0.9 0.2-0.1-1.3-0.7-1-1.1-1.5 0.3-1.1 1.4-0.6 1.3 0.5 0.7 0.5 1.3-0.8 3.1-5 0.5-2.3-0.4-1.4-0.2-2.3 1.2-2.7 1.1-1.6 1.3-3.5 1.3-1.9 0.6-1.3 0.7-0.1 0.4 0.8-0.3 1.8 0.3 1.5 1.3 0.6 2.2-0.5 1.9-1 2.1-4 0.1-1.9-0.2-1.9-0.7-1.3 0-1.4 0.6-0.8 1.3-0.6 1.9 0 1.8-2.3 2.2-1.8 1.9-2.1 1.5-0.6 1.2 0.2 1.1 4.3 0.6 1.2 2.1 0.5 3.7-1.5 0.9-1.4 0.6-1.4 0.1-1.1 0.9-1.4 1-0.3 1.3 0.5 3.5 2.9 1.5 1.6 1.8 0.8 4 1.1 1.8 1.1 2.3 0.8 1.9 0.8 3.7 2.4 4.6 1.6 2.4 1 1.6-0.7z" id="YEM156" name="Ibb" data-id="YEM156" data-name="Ibb">
 </path>
 <path d="M262.7 430.2l-3 0.8-0.6 1.3-0.3 2.6 0.3 1.7-0.3 1.3-2.3 1.3-3 0.7-1 1-0.6 1.3 0.3 1.3 0 1.4-0.2 1.2-1.5 1.2-3.1 1.9 0 1.1 1.2 0.6 4.1 0.2 1.4 0.6 0.4 0.8-0.8 1.1-4.5 5.1-2.2 3.4-0.2 3.3 0.3 2.4 1.1 1.3 1.2 0.7 1 1 0.1 1-0.7 1.8-3.9 2.7-5.3 14.7-2.6 18.8-0.5 1-6.8 0.5-14.7 4-16.7 2.8-7.3 2.7-3.6 2.1-5.6 8.7-0.2-0.9-0.4-0.1-1.9 0.7-2.3 0.6-5.2 2.5-1.8 0.2-1.6-0.2-1.6 0-3 1.7-1.8 0-1.5-0.5-1-1.2 1.1 0.1 2 0.4 1.1 0.1 0.7-0.6 0-1.1-0.6-0.7-0.9 0.7-2.1-0.3-2.6 1.1-4.8 2.6-2.3 0.6-1.3 0-2.1-0.7-2.4 1.1-1.2 0.1-1.6-1-1.4-2.9-1.2-0.6-1.6-0.2-1.4-0.6-2.2-1.5-1.3-0.7-1.5-0.5-1.7-0.4-1.8-0.1-1.1-0.4-3.1-1.8-1.6-0.6-2.9 0-0.7-0.3-1.3-0.9-1.5-0.6-1 0.4-4.6 4.6 2.9-5.9 6.2-9.5 4.6-4.6 2.8-4.3 0.2-1.9-0.3-1.3-0.7-1 0-1.4 1.1-0.8 2.9-0.4 1.2-0.6 1.4-0.7 1.2-1.2 1.6-0.7 1.6-0.4 1.6 0.2 1.5 0.7 1.5 0.5 3 1.8 1.5 1.3 2.2 1 1.5 0.1 0.4-1.3-0.3-4.1 0.6-0.5 3.1 1.9 1.9 0.3 0.9-0.8 0.4-1.8 0.8-1.6 1-0.3 1.8-0.2 0.9-0.7-0.1-2.5 1.8-1.5 1-1.8 3.4 0.6 3.4-0.1 4.2-1 1.9-1.5 0.3-1.9-0.4-1.6 0.2-2.1-0.1-1.4-0.7-1.6 0.5-1.1 1.8-0.5 5.2-0.1 0.8-0.9-0.2-1.5-0.9-1.1-2.4-0.3-1.1-0.6-1.4-0.6-0.6-1.2 0.6-1.4 1.3-0.8 1.4-0.6 2.3-0.4 0.6-0.5-0.1-1.1 0.3-0.6 1-0.3 1.1 0 1.4-0.6 0.8-0.9 0.7-1 1.1-0.5 0.7-1.8 3.2 1.2 1.1 1.3 3.3 2.5 2.2-0.4 2.9-2 5.5-2.3 1.3-1.6 1.3-0.8 3.2 1.2 1.8-0.2 0.5-1.7-0.3-2 0.1-6.1 2-0.4 2.6-0.2 6.6-2.7 3.6-2.4 3.4-1.6 2.9-2.8 5-11.2 4.7 0.1 1.3 0.2 2.5-1.3 1.8-1.6 4.2-2.7 1.8-0.3 1.3 0.7 1 4.2-0.5 6.4z" id="YEM157" name="Lahij" data-id="YEM157" data-name="Lahij">
 </path>
 <path d="M105 533.3l-0.1 1.1-1 0.6-0.5-0.2-1.4-1.5-1 0.2-0.5-0.2-0.2-1.1 1.3-0.6 1.8-0.1 1.1 0.6 0.5 1.2z m77.2-91.9l1.5 2.3 0.2 1.9-0.3 2-0.7 1.9-0.1 1.7 1.2 1.3 1.7 0.5 1.8-0.4 1.8 0.1 2.5 1.3 0.4 1 0.2 1.7-0.7 1.8-1.1 0.5-0.7 1-0.8 0.9-1.4 0.6-1.1 0-1 0.3-0.3 0.6 0.1 1.1-0.6 0.5-2.3 0.4-1.4 0.6-1.3 0.8-0.6 1.4 0.6 1.2 1.4 0.6 1.1 0.6 2.4 0.3 0.9 1.1 0.2 1.5-0.8 0.9-5.2 0.1-1.8 0.5-0.5 1.1 0.7 1.6 0.1 1.4-0.2 2.1 0.4 1.6-0.3 1.9-1.9 1.5-4.2 1-3.4 0.1-3.4-0.6-1 1.8-1.8 1.5 0.1 2.5-0.9 0.7-1.8 0.2-1 0.3-0.8 1.6-0.4 1.8-0.9 0.8-1.9-0.3-3.1-1.9-0.6 0.5 0.3 4.1-0.4 1.3-1.5-0.1-2.2-1-1.5-1.3-3-1.8-1.5-0.5-1.5-0.7-1.6-0.2-1.6 0.4-1.6 0.7-1.2 1.2-1.4 0.7-1.2 0.6-2.9 0.4-1.1 0.8 0 1.4 0.7 1 0.3 1.3-0.2 1.9-2.8 4.3-4.6 4.6-6.2 9.5-2.9 5.9-0.4 0.5-1.1 0.6-1.7 0.2-1.9-0.3-0.4-0.8 1.5-6.6 0.1-3.2-0.8-2.9-1.6-2.6-2.4-2.3-0.6-1.9-1.1-1.2-0.3-0.6-0.1-1.6-0.3-1.6-0.5-1.5-0.8-1.3-2.8-3.2-0.6-1.7-1-1.9-0.8-2.1-0.3-0.7-4.8-6.1-1.8-5.9 1-2.6 0.7-2.8 0.5-14.7 1.7-2.6 0.4-1.4 0.3-0.5 0.9-0.4-1.1-2.6 0.2-4 0.3-0.1 5.7-4.6 2.3-1 2.8-0.8 1.8-0.3 0.9-1.1 0.8-1.6 6.1-8 2.9-1.3 2-0.6 6.7-1.1 2.2 4.2 4.8 0.2 1.8-0.9 2 0.6 1.7-0.8 3.8-0.5 0.5 1.2-0.1 1.5 0.7 0.9 3.7-1.5 1.2 0.5 0 1.6-0.4 1 0.6 1.1 9.3 2.7 4.1 0.5 2 1.2 6 1.9 2.9 0.1 1.6 0.6 1.2 0.6 1.7 0.6 2-0.2 3-2.1 1.1-1.3 0.8-1.2z" id="YEM158" name="Ta`izz" data-id="YEM158" data-name="Ta`izz">
 </path>
 <path d="M697.9 330.1l-0.2-0.5-0.1-1.6-0.7-1.2-0.6-1.5-0.9-1.5-0.6-2.1-0.9-1.6-0.7-1.6-1.5-2.1-1.8-0.9-4.4-0.7-5.4-1.4-5.4 0.3-1.8 0.7-2.1 0.5-6.2 0.6-4-0.1-5.1-1.8-1.2-1.4-0.5-1.4-0.1-1.6 0.2-1.4 1-1.5 1.2-1.5 1.5-2.7 1.3-1 0.9-1.3 0.4-3.4-0.5-1.6-0.8-0.8-3.4-1-2.3-0.2-2.5-0.8-1.4-1.9-0.8-2.9 0.7-3.3 0.6-2.1 0.8-1.8-0.1-1.5-0.3-2-0.1-2.3 0.8-2.4 0-2.1 0.7-2.9 1.3-1.5 1.4-2.4 3.1-8.6-0.5-2.9-0.9-2.2-1.8-1-1.1-1.2-1.3-1.6 0.2-3.1 6.3-24.4-0.7-3-0.9-1.8-0.1-1.9 1.4-3.3 1.7-2.2 1.9-1.6 3.4-2.1 14.2-5.9 6.5-4.4 6.2-7.4 32.4-26.9 10.5-15.6 9.9-22.2 7.6-24.1 4.9-25.4 13.9-35.1 22-32.6 12.6 30.1 3.5 8.2 6.9 16.4 3.4 8.2 10.3 24.6 10.4 24.5 3.4 8.2 9.5 22.4-0.7 0.1 1.2 0.8 3 0.2 1.4 0.5 0.9 1.1 13.1 30 10.1 22.8-1.7 0.9-3.8 1-3-0.7-0.9 0.8-1.8 0.2-0.9 0.5-1.5 1.6-0.9 0.7-2 0.6-2.8 1.6-3.3 0.7-1.7 0.7-2.9 1.8-1.3 0.6-11.2 2.9-5.2 2.5-9.1 6.4-8.2 6.7-2.1 2.3-1 1.7-1.5 2.9-2.6 3.1-0.6 1-0.4 1 0.2 1.9 0.4 1-0.6 1.6-1.8 2.1-0.8 3.4-2 2.3-0.3 1.5 0.6 1.6 1.1 1.9 0.8 2-0.9 3.4 1.3 1.3 2.6 1.3 0.1 1.3-0.7 6 0.4 3.6 0.8 3.6 0.9 0.9 0.1 1-0.4 0.8-0.2 1.1-0.6 1.1-0.7 0.2-1.7 0.2-12.3 3.4-1.7 1.6-0.7 0.2-2 0.3-6.4 2.5-3.1 2 0.1 1.9-0.6 0.5 0.1 1-0.3 0.1-1.5-0.8-0.7-0.6-0.7-0.2-1.6 1.1-4.1 0.9-6.4 3.5-1 1-0.4 1.2 0.5 1.6 0.7 0.9 0 0.6-1.7 0.6-8.6 0.8-1.5 0.5-1.4 0.8-1.2 0.8-1.9 2.3-1.6 0.1-0.7 0.2-0.2 0.6-0.9 0-4.1 1.8-1.1 0.7-2.1-0.7-2.2 1-2.1 1.3-1.6 0.7-16 4.4-17.6 3.3-3.8 1.1z" id="YEM332" name="Al Mahrah" data-id="YEM332" data-name="Al Mahrah">
 </path>
 <path d="M275.8 364.2l9.1 0 1.9 0.9 1.4 1.2-0.4 1.6-1 1.7-0.6 1.7-0.1 2 1.5 1.3 3.5 0.8 1.8 1.5 4.6 12.3 1.8 2.8 2.8 1.9 3.7 0.7 3.4 1.4 1.6 1.1 0.2 1 0 0.9 0.3 1 0.1 1.1 0.7 1.4 0.3 1.4 1.8 1.7-1.2 7-2.2 3.1-1.3 3.9-3 2.7-13.8 10.2-3.3 2-2.5 1.1-2.2 0.5-1.7 0.2-1.6 0-2.9-1.5-1.2-2.3-2.5-0.8-11.2-1.1-0.9-0.4 0.5-6.4-1-4.2-1.3-0.7-1.8 0.3-4.2 2.7-1.8 1.6-2.5 1.3-1.3-0.2-4.7-0.1-0.1-2.2-0.4-2-2.1-2.5-6-5.7-2.2-2.8-1.4-2.5-1.8-2.3-2.6-1-3.4-0.1-2.1-0.3-1.8 0.7-1.3 0.2-1.1 0.9-1.4 0.5-2.2 0-2.3 0.4-1.6 1-3.5 1.3-2.8-1.7-0.9-0.3-0.8-1.2 0.1-4.7-2.7-1.7 1.9-4.4 3-1.5 2.7-2.6 2-4 1.5-11.8 2-8.2 6.1-7.4 4.3-0.6 3.4-1.4 3.4-2.9 4.3 0.9 2.2 1.2 1.6 1.8 0.4 2.2 0 2.5 0.7 4.3 0.8 2.8 0.1 2.7 0.7 1.9 0.2 1.8 0.7 1.8 1 1.6 1.6 0.9 2.6 0 3.1-2.3 0.9-1.1 1.4-0.5 3.3 0.8 0.6-0.9-0.4-0.9 0.7-0.8 1.5-0.2 2.3-0.8 2.7-1.3 2.8-0.2 2.1 0.6 1.8 0.3 1.3-0.5 0-1.5-1.4-2.6 0.1-1.2 0.7-0.9 0.8 0.2 1 1.4 0.8 0.5 1.2-0.6 0.6-0.7 0.5-2.7z" id="YEM333" name="Al Bayda'" data-id="YEM333" data-name="Al Bayda'">
 </path>
 <path d="M244.6 424.5l-5 11.2-2.9 2.8-3.4 1.6-3.6 2.4-6.6 2.7-2.6 0.2-2 0.4-0.1 6.1 0.3 2-0.5 1.7-1.8 0.2-3.2-1.2-1.3 0.8-1.3 1.6-5.5 2.3-2.9 2-2.2 0.4-3.3-2.5-1.1-1.3-3.2-1.2-0.2-1.7-0.4-1-2.5-1.3-1.8-0.1-1.8 0.4-1.7-0.5-1.2-1.3 0.1-1.7 0.7-1.9 0.3-2-0.2-1.9-1.5-2.3 0.5-2.1-0.1-0.5 0.6-1.5 1.3-0.8 1.2-3.4 1-0.6 0.9 0.1 0.8-0.5 0.6-2.4 0.2-1.5 1.3-2.1 2-1.4 2.1-0.8 1.9-0.4 1.6 0 1.5-0.4 0.8-1.5-1.5-1.4-0.5-1.7 0.6-1.8 1.3-1.3 0.8-1.8 0.1-1.1 0.7-0.7 1.7-0.2 1.6 0.1 1.2-1 0.9-2.6 3.5-1.3 1.6-1 2.3-0.4 2.2 0 1.4-0.5 1.1-0.9 1.3-0.2 1.8-0.7 2.1 0.3 3.4 0.1 2.6 1 1.8 2.3 1.4 2.5 2.2 2.8 6 5.7 2.1 2.5 0.4 2 0.1 2.2z" id="YEM334" name="Al Dali'" data-id="YEM334" data-name="Al Dali'">
 </path>
 <path d="M391 174.7l3.3 50.8-16.6 16.4-67.5 12.6-24.3 8.6-10.4 9-9.2 0.8-17-2.7-19.5-10.3-27.1-6.4-5.3-3.3-6.9-0.5-1.6 0.7-0.7 0.7-4.5 1-2-2.3-2.6-4.6-0.4-2.3-0.1-2.6-0.8-2.2 1.8-5.5-0.1-1.2-0.5-0.8-0.4-1.1 0.4-1.5 0.2-1.7-0.3-1.9-1.1-2-0.7-2.2-0.7-3.1-1.2-2.4 0-1.5 0.8-1 0.4-1.2-0.5-1.4-1.2-1.3-4.6-3.5-1.3-0.6-4.2-2.8 1.2-2.9 1-4.3 1.6-3 1-1.5 1.8-1.4 2-0.8 0.6-0.5 1.2-0.5 3.3-2.2 1.5-1.6 1.2-0.2 0.8-0.7 1.4-2.6 1.1-1 3.2-4.6 1.5-1.5 10.6-5.4 4.5-1.6 5.4-1.2 5.1-0.1 4.7 0.5 6.7-3.4 1.8-26.9 15.5 0.1 4.6 1 13.1 7.7 3.7 1.2 71.9 7.4 31.3-4.3 2.9 1.7 11.2 15.7 6.8 9.5 1.1 0.6 1.1 0.1z" id="YEM335" name="Al Jawf" data-id="YEM335" data-name="Al Jawf">
 </path>
 <path d="M526 417.9l-8.6-0.2-1.4 0.5-3.6 3.1-0.8 0.3-1.3 0.2-0.7 0.7-1.5-1.8-2.8-0.5-6.2 0 0.6 1.1-3.4 0.1-9.3 2.7 0.4-2-1.3-1.3-1.8-0.9-1.2-0.9-0.5 0.6-2.2-1-7.2-1.8-1.2 0.7-4.3 1.3-1.4 0.2-1.1 0.8-4.1 4.9-3.7 2-12.4 4.2-1.7 1.2-6.6 7-10.3 9.2-3.1 1.9-5.9 1.9-0.8-4.3-0.6-2.1-0.1-3.2-2.5-8-4.2-8.9 0.8-2 1.1-1.5 1-2.1-0.4-2.7 0.1-3.7-1.1-3.5-2.9-1.9-11.1-0.6-5.4-1.2-5.2-1.9-5.8-0.7-6.1 0.8-8.1 2.2-6.4 2.8-9.4 1.6-1.4-2-0.5-2.3-2.8-5.1-1.1-3.1-1.9-2.3-2.4 0.2-2.5 1.3-7.1 2.6-2.4 1.8-3.1 1.5-3.6 1.2-7.3 0.6-1.8-1.7-0.3-1.4-0.7-1.4-0.1-1.1-0.3-1 0-0.9-0.2-1-1.6-1.1-3.4-1.4-3.7-0.7-2.8-1.9-1.8-2.8-4.6-12.3-1.8-1.5-3.5-0.8-1.5-1.3 0.1-2 0.6-1.7 1-1.7 0.4-1.6-1.4-1.2-1.9-0.9-9.1 0-1.7-1.1-1-1.1-0.7-2.4 0.2-4.5 0.3-2.5 0.6-2.2-0.2-1.8 1.1-0.7 0.3-1 0-1.5 0.6-3.3 1.9-3.5 0.6-1.8 1.7-3.6 11.2-9.5 47.3-33.2 113.6-8.8 7.3 2.6 1 2.7-10.5 16.5-3.6 4.2-1.8 4.1-0.8 2.9-0.1 2.1-2.3 7.1-0.2 2.3 0 2.1 2 2.1 3.4 4.5 0 2.5-1.2 2.4-13.1 11.2-1.9 2.3 0.6 2.1 9 6.4 5.7 5.6 6.1 4.1 6.3 2.2 8.3 1.3 5.9 0.1 2 0.8 2.1 1.1 1.6 1.9 1.6 3.3 0.8 2.5 2 2.7 1.1 2.2 4 4.1 5.9 2.9 5.4 0.5 6.2-0.2 6.8 1.8 7.4 3.5 1.8 2 1.2 1.8 0.7 1.7 0.2 1.4 0.5 1.3 2.2 4.1 0.6 1.6 0.2 1.8z" id="YEM336" name="Shabwah" data-id="YEM336" data-name="Shabwah">
 </path>
 <path d="M338 290.5l-47.3 33.2-11.2 9.5-1.7 3.6-0.6 1.8-1.9 3.5-0.6 3.3 0 1.5-0.3 1-1.1 0.7 0.2 1.8-0.6 2.2-0.3 2.5-0.2 4.5 0.7 2.4 1 1.1 1.7 1.1-0.5 2.7-0.6 0.7-1.2 0.6-0.8-0.5-1-1.4-0.8-0.2-0.7 0.9-0.1 1.2 1.4 2.6 0 1.5-1.3 0.5-1.8-0.3-2.1-0.6-2.8 0.2-2.7 1.3-2.3 0.8-1.5 0.2-0.7 0.8 0.4 0.9-0.6 0.9-3.3-0.8-1.4 0.5-0.9 1.1-3.1 2.3-2.6 0-1.6-0.9-1-1.6-0.7-1.8-0.2-1.8-0.7-1.9-0.1-2.7-0.8-2.8-0.7-4.3 0-2.5-0.4-2.2-1.6-1.8-2.2-1.2-4.3-0.9 0.1-5 0.4-1.3 0-1.6-1.1-1.1 0.2-0.7 0.9-1 0.6-1.6 1-1.9 1.8-1.9 1.1-2.4 0.4-1.2 1.3-1 4-1.8 1.2-2 0.9-2.6-0.3-2 0.3-1.6 0-1.8-0.9-2.9-1.5-1.6-2.5-1.1-3.6-0.4-2.9-0.7-2-1.9-2.7-2.9-3.5-2.8-1.5-0.4-1.2-0.3-1.7 1-0.9 1.5-1 2-2.8 0.8-2.6-1-2.8-3.3-2.7-2.3-1.9-0.7-1.8-0.2-1.2-0.5-0.4-1.3 1.7-1.6 9.5-6.6 2.2-2.4 1.6-3.2-1.7-2.8-5.3-6.7-1.2-3.8 0-5.8-1.4-7.8-3.9-8 27.1 6.4 19.5 10.3 17 2.7 9.2-0.8 10.4-9 24.3-8.6 67.5-12.6-39.7 48.6z" id="YEM337" name="Ma'rib" data-id="YEM337" data-name="Ma'rib">
 </path>
 <path d="M202.7 253.5l3.9 8 1.4 7.8 0 5.8 1.2 3.8 5.3 6.7 1.7 2.8-1.6 3.2-2.2 2.4-9.5 6.6-1.7 1.6 0.4 1.3 1.2 0.5 1.8 0.2 1.9 0.7 2.7 2.3 2.8 3.3 2.6 1 2.8-0.8 1-2 0.9-1.5 1.7-1 1.2 0.3 1.5 0.4 3.5 2.8 2.7 2.9 2 1.9 2.9 0.7 3.6 0.4 2.5 1.1 1.5 1.6 0.9 2.9 0 1.8-0.3 1.6 0.3 2-0.9 2.6-1.2 2-4 1.8-1.3 1-0.4 1.2-1.1 2.4-1.8 1.9-1 1.9-0.6 1.6-0.9 1-0.2 0.7 1.1 1.1 0 1.6-0.4 1.3-0.1 5-3.4 2.9-3.4 1.4-4.3 0.6-0.1-2.9-0.8-1.9-3.2-4.5-1.5-3.1-1.2-5.6-2.3-3.4-1.8-1.2-2.1-0.2-2 0.2-2.1-0.2-1.7 0.2-1.9 1.3-1.4 2.1-1.8 2.2-1.7 0.9-3.3 1.3-2.2-0.2-2.1-1.4-1.4-1.8-2-0.3-0.7 1.3-0.4 1.6-1.1 1.5-2.4 0.8-6.2-1.3-1.9-1.6-1.6-1.8-2.2-0.8-1.4-1-2.2 0.1-2.6 0.5-2.8 1-4.4 3.2-1.9 1.1-1.6 1-1.5 0.9-2.8 2.6-1.8 0.5-3.1 0.3-3.8-0.4-1.2 1.1-3.4-1-0.3-0.9-4.2-0.6-0.6-2.5-1.3-1.9 1.3-2 0.5-0.4 0-0.9-1.9-1.8-1.6 0.2-1.5 0-2.2-0.5-2.5-1.4-2.7-2.5 2.1-3.4 1-0.9 0.8-2-0.3-4.1 0.6-2.2 1.4-1.8 5-3.1 0.9-0.9 5.4-1.1 3-3.1 5.7-4.1 1.7-0.8 3.2-2.2 1.4-1.5 0.4-3.6 1-3.7 0.9-2.1-0.1-1.3 1.1-1.2 3.1 0.3 2.6-0.4 2.3-1.1 4.9-3.9 0.9-3.5 0.1-3.8 1.5-2.2 2.3-1.7 1.7-2.4 0.4-1.6 0.1-1.8-0.6-1.6-0.5-2.3-0.4-4.6 0.7-2.2 0.8-1.9 4.7-2.5 4.7-1.8 4.4-0.3 4.5-1 0.7-0.7 1.6-0.7 6.9 0.5 5.3 3.3z m-21.2 38.1l-0.6-0.8-1.4-0.9-1.7-1.8-2.6-1.1-1.1 0.1-1.9 0.8-1 1.1-1 1.5-1.1 0-0.7 0.3-0.6 0.7-1.5 0.5-0.7 0.9-0.1 2.2 0.1 0.9-0.8 0.1-0.3 0.7-0.6 0.8-1 0.2-0.5 0.6-3.2 0.9-0.1 0.7 0.4 1 0.7 0.6 1.4 0.8 1.1 1.3 0.1 0.9-1.2 0.4-0.6 0.7-0.4 1.7 0.3 1.4 2.8 1.9 0.3 0.8-0.3 1.8 0.3 0.4 3.8 0 0.7-0.1-0.1-1.2 0.3-0.5 0.8-0.1 0.7-0.4 0.3-0.7 0-1.6-0.4-1.1-0.5 0.1-0.5-0.4-0.3-1.8-0.6-1.1-0.1-0.8 0.2-0.9-0.1-0.7 0.4-0.8 1.1-1.1 2.2-1.6 0.2-0.8-0.4-1.9 0.5-0.8 0.6-0.8 0.5 0.8 0.5-0.8 2.5 0.2 0.3-0.6 0-0.9 0.3-0.8 1-0.8 0.9 0.2-0.3 1.3 0.6 0.4 1.3-0.1 0.7-0.5 0.5-0.7-0.1-0.7z" id="YEM3496" name="Sana'a" data-id="YEM3496" data-name="Sana'a">
 </path>
 <path d="M899.7 577.4l0.2 0.6-3.8-0.3-1.2-0.5 1.6-0.6 1.5 0.1 1.7 0.7z m-21.7-5.1l1.1 0.5 1.3 0 1.1 0.8 0.4 1.3-0.1 1.2-1.2 0.3-1.2 0.2-2.4-0.9-1.6-1.4-1.7-0.5 0.2-0.8 1.3-0.4 1 0.1 0.9-0.3 0.9-0.1z m-69.3-2.8l1.7 0.7 1.3-0.1 2.4 0.4 3.5 0.1 2.4 1.1 4.4-1.1 1.2 0.3 0.5 0.8-1.1 0.4-0.8 0.9 0.6 0.5 0.8 1.4-2.3-0.4-2.4 0.6-3.7-0.7-3.6-0.2-1.3-1.9-1 0-1.7 0.5-0.9 0.1-0.3-0.3-1.1-1.7-0.4 0.1-1.6-0.7-2 0.5-0.8-0.7-2.7-1.2-0.4-1.1 1.2-0.4 1.2-0.2 2 0.1 2.4 0.5 2.5 1.7z m112.4-40.4l2.6 0.3 3.9-0.4 3.2 2.9 5.5 4.1 6.7 1.8 1.7-2.1 0.8-2 2.2-0.4 1.5 0.2 1.4 0.6 2.7-0.3 2.8 0.1 3-1.8 1-0.3 2-1.3 0.8-1 2.2-0.2 1 1 1.2 0.9 1.7 1.1 1.2-0.3 1-0.6 0.4 0.2 1.5 1.7 1.5 0 1.8 0.4 0.8 1.3 1.2 0.5 2.8 1.2 3.3 0.7 3.3 1.9 1.7 0.5 3.9 2.5 2.1-0.3 1.5-0.9 0.9 0.1 1.1 0.6-1 1-2.4 0.7-1.7 0.5-1.6 0.3-0.8 0.7-0.2 2.2-3.4 1.4-2.7 0.7-3.3 1.3-3.6-0.3-3 1.1-0.7 0.7-1.5 2.1-0.7 0.5-2.1 0.9-2.4 1.9-1.1 0.7-2.4-0.2-3.8 0.3-1.3-0.2-1.4 0.3-1.8 1.6-3.1-1-2.4 0.6-3.5 0.5-9.7 1.9-3.6 0.4-4.7-0.5-4.4-1.3-3.7-1-1.7-1.7-2.6-3.2-1.1-1.9-2.1-0.7-3.4-2.2-8.3-5.3-2-1.8-0.2-0.5 0.7-0.5 2.2 0.6 1.6-0.2 2.1-1.3 0.2-0.7 0.9-2.4-0.5-4.8 1.2-0.5 1.3-0.3 3.4-0.5 1.7-2.5 0.7-0.8 1.6-0.2 4.4 0.9z m-223.2-199l-11.5 3.2-8.7 0.9-7.6 3.1-2.2 1.3-6 5.2-1.2 0.7-3.3 0.6-4.7 2.5-5.2 3.7-1.2 0.1-1.5-0.6-2 0.4-3.4 1.6-1.5 0.4-1.5 0.2-0.5-1.7-0.5-1-0.7 0.1-1.2 0.4-5.1 0.5-11.6 3.9-17.8 4.5-9.5 5.4-3.4 1.4-3.6 0.5-1.7 0.9-3.2 2.2-6.7 3.2-3.1 2.2-0.7 2.7-0.8-0.2-1.2-0.6-1.6-0.6-1.9 0.2-1.7 0.9-1.2 1.1-4 5.8-1.5 3-0.7 3.4 0.6 0.5 0 0.9-0.4 1.5-0.9 0.7-3.4 1.3-0.7 0.6-0.4 2-1.2 0.7-1.4 0.3-1.4 0.6-0.5 1.3 0 1.9-0.3 0.5-1.1 1-0.9 2.3-1.3 0.9-3.1 1.3-4.8 6-1.5 0.9-0.4 0.2-1 0.7-1 0.3-1.4-0.1-0.2-1.8-0.6-1.6-2.2-4.1-0.5-1.3-0.2-1.4-0.7-1.7-1.2-1.8-1.8-2-7.4-3.5-6.8-1.8-6.2 0.2-5.4-0.5-5.9-2.9-4-4.1-1.1-2.2-2-2.7-0.8-2.5-1.6-3.3-1.6-1.9-2.1-1.1-2-0.8-5.9-0.1-8.3-1.3-6.3-2.2-6.1-4.1-5.7-5.6-9-6.4-0.6-2.1 1.9-2.3 13.1-11.2 1.2-2.4 0-2.5-3.4-4.5-2-2.1 0-2.1 0.2-2.3 2.3-7.1 0.1-2.1 0.8-2.9 1.8-4.1 3.6-4.2 10.5-16.5-1-2.7-7.3-2.6-113.6 8.8 39.7-48.6 16.6-16.4-3.3-50.8 10.6 0.4 2.6-0.3 2.4-1 19.1-11.2 2.4-3.3 9.2-25.5 1.4-2.6 19.9-25 12.7-16 7.3-9.2 6.3-7.9 1.8-1.3 24.2-12.4 29.2-15.1 15.2-7.8 7.5-2.8 10.4-1.5 103.3-14.7 12.9-1.8 12.9-1.9 90.2-12.8 0.6 1.4-22 32.6-13.9 35.1-4.9 25.4-7.6 24.1-9.9 22.2-10.5 15.6-32.4 26.9-6.2 7.4-6.5 4.4-14.2 5.9-3.4 2.1-1.9 1.6-1.7 2.2-1.4 3.3 0.1 1.9 0.9 1.8 0.7 3-6.3 24.4-0.2 3.1 1.3 1.6 1.1 1.2 1.8 1 0.9 2.2 0.5 2.9-3.1 8.6-1.4 2.4-1.3 1.5-0.7 2.9 0 2.1-0.8 2.4 0.1 2.3 0.3 2 0.1 1.5-0.8 1.8-0.6 2.1-0.7 3.3 0.8 2.9 1.4 1.9 2.5 0.8 2.3 0.2 3.4 1 0.8 0.8 0.5 1.6-0.4 3.4-0.9 1.3-1.3 1-1.5 2.7-1.2 1.5-1 1.5-0.2 1.4 0.1 1.6 0.5 1.4 1.2 1.4 5.1 1.8 4 0.1 6.2-0.6 2.1-0.5 1.8-0.7 5.4-0.3 5.4 1.4 4.4 0.7 1.8 0.9 1.5 2.1 0.7 1.6 0.9 1.6 0.6 2.1 0.9 1.5 0.6 1.5 0.7 1.2 0.1 1.6 0.2 0.5z" id="YEM3497" name="Hadramawt" data-id="YEM3497" data-name="Hadramawt">
 </path>
 <path d="M181.5 291.6l0.1 0.7-0.5 0.7-0.7 0.5-1.3 0.1-0.6-0.4 0.3-1.3-0.9-0.2-1 0.8-0.3 0.8 0 0.9-0.3 0.6-2.5-0.2-0.5 0.8-0.5-0.8-0.6 0.8-0.5 0.8 0.4 1.9-0.2 0.8-2.2 1.6-1.1 1.1-0.4 0.8 0.1 0.7-0.2 0.9 0.1 0.8 0.6 1.1 0.3 1.8 0.5 0.4 0.5-0.1 0.4 1.1 0 1.6-0.3 0.7-0.7 0.4-0.8 0.1-0.3 0.5 0.1 1.2-0.7 0.1-3.8 0-0.3-0.4 0.3-1.8-0.3-0.8-2.8-1.9-0.3-1.4 0.4-1.7 0.6-0.7 1.2-0.4-0.1-0.9-1.1-1.3-1.4-0.8-0.7-0.6-0.4-1 0.1-0.7 3.2-0.9 0.5-0.6 1-0.2 0.6-0.8 0.3-0.7 0.8-0.1-0.1-0.9 0.1-2.2 0.7-0.9 1.5-0.5 0.6-0.7 0.7-0.3 1.1 0 1-1.5 1-1.1 1.9-0.8 1.1-0.1 2.6 1.1 1.7 1.8 1.4 0.9 0.6 0.8z" id="YEM3498" name="Amanat Al Asimah" data-id="YEM3498" data-name="Amanat Al Asimah">
 </path>
 <path d="M125.4 343.8l1.3 1.9 0.6 2.5 4.2 0.6 0.3 0.9 3.4 1 0.1 1.5 0.9 2.9 1.9 2.6 5.3 5.9 1.6 2.6 0.9 2.2 1.3 1.8 0.7 1.5-0.7 2-2.4 3.2-1.4 1.1-1.4 1.4-5.1 3.1-1.2 0.9-1.3 0.4-2.1 0.3-1.2-0.1-1.8-0.7-2.4 0.1-1.4 0.6-0.8 1.1-2.8 2.4-4.8 2.7-1.4 0.1-1.9 0.1 2.9-3.5 0.2-1.5 0-2.2-0.3-1-1-2.1-0.3-1.3-3.1-8.4-0.3-1.6 0.3-1.4-0.3-2.7 0.2-1.5 1-1.2 0.4-1.3-1.1-6.2 1.3-3.6 1.5-2.2 1.5-1.3 2.4-2.5 0.6-1.2 0.9 0.1 2.5 1 1.2-0.2 1.1-0.8z" id="YEM3499" name="Raymah" data-id="YEM3499" data-name="Raymah">
 </path>
 <path d="M182.8 531.6l5.6-8.7 3.6-2.1 7.3-2.7 16.7-2.8 14.7-4 6.8-0.5-0.5 1.4-0.3 1.7-1.9 5-0.2 0.8 0.4 3.3-0.3 1.2-1.5 0.5-1.8-0.3-1.8-0.8-1.2-1 0.1-1.3 1.3-0.5 1.6 0.2 1.5-0.2 0.5-1.4-0.3-0.1-1.2-1.6-0.3-0.7 0.2-0.6-1 0 0 0.8-0.7 1.1-0.6 0.1-1.3-0.5-1.8 0.1-0.8 0.3-1 1.8-1.3 1-1.5 0.3-1.1-1.2-1 0.6-0.4 0.7 0.4 2.1 1.1-0.7 2.5 0.3 0.3 0.3-0.1 1-0.5 0.9-1.2 0.9-1.3 0.6-1.1-0.2-2.3-0.9-0.7-0.5-0.5-0.6-0.2-0.7-1-0.4-2-0.2-1.6 0.5-3 2-0.6-1.2 0.4-0.8-0.5-1.2-1-1.1-1.1-0.8-3.3-1.2-3.4-0.1-3 0.6-2.4 1.2-4.3 3.6-4.6 5-0.7 1.5-0.8 0.2z" id="YEM3510" name="`Adan" data-id="YEM3510" data-name="`Adan">
 </path>
 <path d="M417.4 452.1l-12.7 3.9-20.6 4.3-7 4.8-10 3.8-1.4 0.2-1.6-0.2-2.8-0.9-1.9 0-1.7 0.5-3.5 1.5-1.7 0.3-16.6 0-3.6-0.6-1.7-1-1.1-0.3-0.8 0.6-2.2 0.7-6.9 1.1-13.8 0.6-1.4 0.4-2.6 1.1-1.2 0.2-3.4-0.2-1.5 0.2-0.9 0.6-11.1 2.5-2.7 1.4-7.8 8-2.2 1.7-1.2 1.1-1 3.1-3.8 4.9-2.5 2.3-3 1.4-13.9 3.4-3.2 1.7-2.9 2.5-1.1 1.4-0.4 0.7 2.6-18.8 5.3-14.7 3.9-2.7 0.7-1.8-0.1-1-1-1-1.2-0.7-1.1-1.3-0.3-2.4 0.2-3.3 2.2-3.4 4.5-5.1 0.8-1.1-0.4-0.8-1.4-0.6-4.1-0.2-1.2-0.6 0-1.1 3.1-1.9 1.5-1.2 0.2-1.2 0-1.4-0.3-1.3 0.6-1.3 1-1 3-0.7 2.3-1.3 0.3-1.3-0.3-1.7 0.3-2.6 0.6-1.3 3-0.8 0.9 0.4 11.2 1.1 2.5 0.8 1.2 2.3 2.9 1.5 1.6 0 1.7-0.2 2.2-0.5 2.5-1.1 3.3-2 13.8-10.2 3-2.7 1.3-3.9 2.2-3.1 1.2-7 7.3-0.6 3.6-1.2 3.1-1.5 2.4-1.8 7.1-2.6 2.5-1.3 2.4-0.2 1.9 2.3 1.1 3.1 2.8 5.1 0.5 2.3 1.4 2 9.4-1.6 6.4-2.8 8.1-2.2 6.1-0.8 5.8 0.7 5.2 1.9 5.4 1.2 11.1 0.6 2.9 1.9 1.1 3.5-0.1 3.7 0.4 2.7-1 2.1-1.1 1.5-0.8 2 4.2 8.9 2.5 8 0.1 3.2 0.6 2.1 0.8 4.3z" id="YEM3511" name="Abyan" data-id="YEM3511" data-name="Abyan">
 </path>
 <circle cx="202.1" cy="307" id="0">
 </circle>
 <circle cx="212.5" cy="255.6" id="1">
 </circle>
 <circle cx="87.7" cy="157.9" id="2">
 </circle>
</svg>