<?xml version="1.0"?>
<!--
************* Copyright (c) 2017 Pareto Softare, LLC DBA Simplemaps.com *******************		
************* Free for Commercial Use, full terms at  http://simplemaps.com/resources/svg-license ************
************* Attribution is appreciated! http://simplemaps.com ***************************
-->
<svg baseprofile="tiny" fill="#7c7c7c" height="1424" stroke="#ffffff" stroke-linecap="round" stroke-linejoin="round" stroke-width="2" version="1.2" viewbox="0 0 1000 1424" width="1000" xmlns="http://www.w3.org/2000/svg">
 <path d="M286.4 203.8l3.4 0.1 0.4 15.5-0.6 0.7-0.3 1.1 0 1.3 0.2 1.3 0 0.1 0.4 2.6 0.4 0.8 0.5 0.3 1.1 0.1 0.6 0 0.7-0.1 1.3 0 0.6 0.1 0.8 0.1 0.8 0.4 0.5 0.6 0.6 0.2 1.5 0.2 0.9 0.3 0.5 0.5 0.6 0.9 0.3-0.2 0.7-0.1 3.1 2.2 0.2 0.8-0.4 1.9 0 1 0.2 1.8-0.2 1.1-0.7 1.1-0.3 1 0 0.7 1.6 5.3 1.3 2 0.3 0.4-0.2 0.4-0.6 0.3-2.1 0.9-0.6 0.8-0.3 1.4-0.1 1.6 0 1.1 0.2 1.3 0.5 1.6 0.6 0.7 0.7 0.6 2.3 0.3 1.9 1.7 4.1 4.7 1 0.6 0.9 0.2 2.3 0.2 1.2 0.3 1 0.5 2.6 2.2 0.5 0.2 0.4 0 1.1 0.1 1 0.8 0.3 0.6 0.2 0.5 0.1 0.7 4.1 0.5 1.4 0.4 1.9 1.2 1.9 0.9 2 0.7 1.1-0.1 1.1-1.1 0.5-0.8 0.1-0.2 0.7-0.3 1 0 1.6 0.2 0.9-0.1 0.7-0.4 0.2-0.5-0.1-0.6-0.8-0.5-0.1-0.6 0.2-0.8 0.6-0.6 0.9-0.2 1.4 0.3 1.6 0.1 0.3-0.5-0.3-1.2-0.1-0.8 0-1.2 0.4-0.8 0.2-0.4 0.2-0.6 1 1.2 1.2 1.9-0.1 5.4-0.2 0.9 0 0.8 0.2 1 0.3 3 1.3 2.4 0 3.2 1.2 2.9 14.4-3.3 0.3 0.9 0.4 1.1 0.3 3.6-0.2 1.2-0.4 0.8-1.5 1.5-0.5 1-0.5 1.2 0.3 1.1 0.6 0.6 1.1 0.2 0.7 0.5 1.3 1.7 0.1 1.1-0.3 0.5-0.3 0.8 0.1 0.8 3.7 3.2 1.2-1.2 0.5-0.8 0.3-1.1 0.4-0.4 1.9-1.7 0.3-1 0.1-1-0.1-1.3 0-0.4 0.1-1.3 0.8-1 0.5-1.1 0.3-0.3 0.8-0.3 0.3-0.3 0.3-0.4 0.3-0.7 0.1-0.5 0-0.8 0-0.6 0.3-1.2 0.1-0.6-0.1-1.3-0.3-0.5-0.7-0.4-0.1-0.2-0.3-1 0-0.6 0.1-0.4 0.4-1 0.1-0.3-0.3-1.2 0-0.9 0.1-0.6 0.3-0.5 0.5-0.3 0.7 0 1.3 0.3 0.2 0 0.6 0.7 0.5 1.6 0.5 1.1 0.1 0.9 0.4 0.6 1.2 0.4 7.3-0.1 0.9 0.1 0.6 0.2 0.4 0.2 0.6 0.7-8.5 10.4-0.8 0.1 5 9.9 0.3 0.1 0.4 0 0.7-0.4 1-1 0.4-0.1 0.5 0 0.4-0.1 0 1.7-0.1 0.8-1.4 3.8-0.5 1.1-0.9 1.4-1.2 1.3-1.1 0.7-0.3 0.7 0.2 0.6 0.4 0.6 0.4 0.4 0.1 0.6-0.2 1.1-1 3.7-0.5 1.2-0.8 1.3-0.9 2.8-0.2 3.3 0.4 1.5 0.5 0.9 0.6 0.3 0.2 0.3-0.1 0.6-5.2 11.4-5 10.8-11 23.5-3.2 6.7-0.4 0.7 0.3 0.6 0.4 2 0.4 0.8 2.1 2.8 0.9 0.7 0.6 0.4 1.5 0 0.2 0.2 0.2 1 0.3 0.3 1-0.1 0.5 0 0.4 0.2 2.1 2.7 1.4 0.9 1.9 0.3 0.5 0.4 0.3 0.9 0.1 1.2 0.2 0.8 0.4 0.6 0.6 0.4 0.7 0.3 1.5 0.3 0.7 0.1 1.4 0.3 1.1 1.8 4.6 9.7 0.3 0.3 0.6 0.3 0.4 0.1 0.5 0 0.7 1.4 0.3 0.5 0.5 0.4 0.4 0.5 2 0.9 0.2 0.3 0.1 1.2 0.1 0.6 0.2 0.4 4.1 3.7 2.5 3.1 1.5 1.1 1.9 1.1 0.7 0.7 0.3 1 0.5 0.8 1.1 0.2 2.2-0.1 1.6 1 1.6 1.5 1.7 1.1 0.7 7.7 0.9 1.1 0.9 1.4-0.3 1.2-1.1 1.4-0.1 1.1 0.4 1.4 0.4 2.1-0.3 1.3-1.3 2 0.3 1.9-0.6 1.2-0.7 1-0.2 1.3-1.1 1.7-1.6 1.9-0.4 2.7-1.3 0.9-6.3-1.4-7.1 3.4-3.7 0.8-0.7 0.3-2.6 1.9-1.8 0.9-1.2 1.3-1.8 0.5-2 1.1-3.2 0.5-6.4 0.2 0 1.1-0.7 2.7-0.9 1.4-0.5 3-0.6 8.3-7.7 0.8-4.3 1.6-2.8 0-1.2 0.5-0.4 1.7-3.7-0.9-2-2.9-1.3-0.2-1.5 0.6-1.4 1.9-1.5 1.1-1.7 1-2.2-1.8 0.1-1.2-0.5-1-1.1-1-4-2.3-3.2-0.4-1.7 0.2-1.9 0.8-1.2 0.3-5.8-0.1-2 2.1-3 1.7-3.2 4.5-1.1 2-0.9 1.1-5.2 4.7-1.4-2.4-0.1-0.5-0.5-2-1.7-0.9-2.1-0.7-3.4-0.2-2.1-0.9-3.2-0.2-2.8-1.7-4.2-1.4-2-3.1-2.2-2.3-1.7-1.4-8.7-4.5-1.3 1.9-5.5 13.6-1.8 0.4-0.4 1.1-0.4 0.7 0 0.9-0.2 0.9 0.1 1.7-0.4 2.2 0 0.6 0.3 0.5 0.8 2.2-1 2-1.1 0.3-2.7 3.2-1.2 2-2.7 1.9-2.8 0.7-3-0.6-1.6-0.6-1.8-0.5-1.8 0.6-2-0.4-1.4 0.3-2.3 1.1-1.4 2.7-2.6 1.6-2.1 1.6-1.9 0.4-3.5 1.2-1.6 2.1-0.8 0.9-0.8 0.6-2.1 0.9-0.9 3-2.5 5.2-3.6 1.6-2.1 0.6-2.7 0.4-3.4 1.2-1.9 2.2-0.5 2.1-0.4 3.1-0.9 2.8-3.7 3.1-4.5 0.2-1.7-0.9-1.2-0.2-2.6 1.4-3.2 0.6-2-2-1-0.5-1-1.7-1.2-1.2-1.3-1.9-1.1-0.7-1.1-0.6-1.1-1-1.1-1.5-0.6-2.8-2.3-4.9-1.3-4.1-0.7-3.5 0.1-2.6 1.2-0.9 1.4-1.5 3.5-4.6 0-2.3-0.7-1.1-0.6-1.3-0.8-0.7-1.3 0.2-2.9 3-1.3 0.8-1.5 2-4.3 3.4-2.6 0.7-3.1 0.2-1.1 0.8-2.2 1-1.2 1.7-1.5 0.7-0.9 0.2-1.1-0.6-0.9 0.8-0.6 1.9-0.9 2.2-0.2 1.7 0.6 1.6 0.5 0.7-0.3 0.5-2.6 1.3-2.9-2.9 0.7-5.2 0-1.3-1.9-3.5-0.3-0.9-0.3-1.3-0.4-2.9 1-1.7 2-2.1 0.2-0.5-0.5-2.8-0.4-1.3 0-0.4 0.2-0.8-0.1-0.4-0.1-0.6 0-0.4 0.2-1.2-0.1-0.4-0.3-0.1-0.5 0-0.6-0.1-0.5-0.5-0.4-0.7-0.4-0.5-0.4-0.3-0.5-0.1-0.6 0.2-0.4 0.3-0.5-0.1-0.5-0.5-0.2-0.1-0.8 0-0.4-0.2-0.3-0.5-0.8-1.7-0.4-0.7-0.6-0.3-1.3-0.7-0.2-0.4 0.1-0.7 0.7-2.8-0.3-0.3-0.6 0.3-1.6 1.4-0.7 0.3-0.5 0.1-0.2-0.1-0.5-0.3-0.6 0.1-0.7 0.4-0.5-0.1-0.6-0.5-0.4-0.3-0.7-0.4-0.7-0.2-2.4-0.1 0.8-3.6 1-1.9 0.2-2.5-0.8-4.7 0.3-1.3 0-2.2 0.3-1.1-0.3-1.3-0.6-0.8-0.2-1.3-1.2-1.1-0.4-1.3 0-2.2-0.9-5.1 0.3-1.7 0.1-0.8-0.5-0.8-1.3-1.5-1-2.8-1.5-10.1 1.1-3.7-1-3.2 1.4-2.1 0.1-6.5-4.5-1.5-2.1-2.2-1.2-2.1-1.7-2.1-2-1.6-2.8-1.6-3.3-2.5-2.5 0.2-1.3 1.2-0.7 1.6-2.5-1.5-0.8 1.7-1.4 2.5-1.2 4.2-1.9 3.6-2.2 3.3-2.2 1.3-2 0.8-1.7-0.8-1.2-0.6-0.9-0.7-0.8-0.3-0.7-0.2-0.9 0.1-1 0.8-1.3 1.4-1.1 3.8-2.7 2.6-0.7 3.9-2.3 3.1-0.3 5.7-2.5-0.7-0.8-1.3-0.2-0.2-0.5-1.3-0.2-0.3-0.6-1-1-2.4-0.4-0.9-3.3-4.6-2.5-5.2-0.3-0.8-0.4-2-0.5-1.8-2.8-3.8-1.2-2.4 0.2-2-1.2-1.3-2.6-4.8-0.4-1.3-0.8-1-3-5.2-0.2-0.6-0.2-1.4-0.4-1.7-0.2-0.4-0.1-1.5-2.4-4.3-0.6-1.7-0.2-2.1-1.1-4.3-2.9-6.9-0.3-1.8-0.1-0.3-0.4-0.6-0.1-0.6-0.1-0.6-1.2-4.4 0.3 0-0.2-0.6 0-1.5-0.1-0.7-1.1-3.1 0-0.6-0.6-0.5-0.4-1.1-0.1-2.1-1.4-3.8-0.4-0.6-1.7-5.2-0.2-0.4-0.9-1-0.3-0.7-0.8-1.1-1-3.2-0.3-0.5-0.5-0.5-0.2-0.4 0.1-1.3-0.2-0.5-0.4-0.8-0.4-1.2-0.2-1.2 0.2-0.9-0.7-1.2-2.9-2.6-0.5-0.7-0.7-2.1-0.3-0.7-2.1-2.9-3.2-2.7-0.5-1.2-0.4-1.8-0.3-1.9 0.2-1.1-0.6-1.3-0.1-0.4-0.2-0.3-0.8-0.1-0.3-0.1-1-2.2-0.7-0.6-1.2-1.3-0.1-0.3 0.5-0.3 0.3-0.8 0.1-0.9-0.1-0.5 0.8-0.4 1.3-0.8 1.2-0.7 1.8-0.6 3.5-3.5 0.5-0.2 0.4 0.3 0.2 0.6 0.2 0.7 0.2 0.5 0.7 0.1 0.9-0.8 0.9-1.2 0.5-0.9 0.1-0.9 0.1-1.2 0.2-1 0.7-0.5 0.5-0.4-0.3-1-1-1.5-0.4-0.8-0.1-1.1 0.2-0.9 0.8-0.4 0.4 0.2 0.5 0.3 0.4 0.2 0.5-0.4 0-0.6-0.2-0.7-0.4-0.5-0.1-0.4 0.2-0.5 0.2-0.2 1 0.1 0.7-0.2 0-0.4-0.8-1-0.1-0.3 0.1-0.3 0.2-0.3 0.4 0.3 0.8-0.1 0.4 0.3 0.4-0.6 0.3-4.1 0.2-0.2 0.8-0.9 0.3-0.2 0.3 0.1 0.5 0.5 0.5 0.1 0.5-0.2 0.7-0.7 0.5-0.1 1.3 0.3 1.5-1.2 0.5-0.3 0.9-0.2 0.5 0 0.5 0.2 0.7 0.8 0.5 1.1 0.6 1 0.9 0.4 1.2 0.3 0.4 1 0 1.1-0.1 1.2 0.2 2.5 1 1.2 1.5 0.3 2.9-0.7 1.2-0.1 0.5 0.3 0.2 0.6 0.1 0.6 0.2 0.5 0.4 0.7 0.1 0.5 0.1 0.6 0.2 0.6 0.3 0.6 0.7 1 0.3 0.6 0.1 1.1-0.2 1.4-0.3 1.3-0.8 0.5-0.8 0.2-0.8 0.5-0.6 0.7-0.2 0.8 0.4 1 1.3 1.6 0.2 1.2 0.4 0.9 1.7 0.6 0.5 1.2-0.3 2.1-0.6 2.2 0.1 1.6 1.8 0.2 2-0.5 1.9-0.2 1-0.2 0.9-0.4 0.7-0.2 0.7 0.5 0.3 1.1 0 1.3 0.2 1.1 1 0.4 1.5 0.5 0.6-0.1 0.4-0.2 0.9-0.6 0.5-0.3 1.5-0.1 7.8 1.7 1.7 0.8 1.5 1 2.8 2.3 1.8 1 3.9 1.3 0.9 0 1.6-0.5 4.1-0.6 1.1 0 1.9 0.8 1.1 0.2 0.9-0.4 0.4-0.2 0.5-0.2 0.9-0.2 0.7-0.3 0.2 0 0.2 0.1 0.6 0.5 0.2 0.1 1-0.3 1.7-0.9 8.9-1.4 9.7 1.5 0.8 0.7 1.1 1.9 0.5 0.5 0.3 0.1 1.7 0.2 0.5 0.2 0.2 0.2 0.8 1.1 1.8-0.1 1.9-0.7 2.6-1.4 0.4-0.4 0.5-0.8 0.3-0.2 1.5-0.1 0.6-0.4 0-0.6-1.7-3-0.3-1.2 0.1-1.1 0.8-1.5 0.6-0.7 0.6-0.5 0.6-0.1 1.1 0.9 0.5 0.1 0.7-0.3 3.8-1 0.9-0.4 0.8-0.7 0.5-0.7 1.3-4.3 0.3-0.4 0.8-0.4 0.4-1 0.2-0.4 0.4-0.5 0.6-0.8 0.5-0.3 0.4-0.1 4.6-0.4 0.8-0.4 1-0.7 1-0.4 2.2-0.2 1.4-0.4 2.1-1.9 1.2-0.7 0.5 0 1.5 0.2 0.5-0.1 1.4-0.3 0.1-1.6 0-11 0-5.9 0-20.6 0-2.9 0-17.6 0-5.9 0-14.6 0-2.9 0-11.6 0-5.9 0-14.5 0-2.9 0-11.6 0-5.8 0-20.2 0-2.9 0-17.2 0-5.8 0-8.6 0.5 0.6 0.8 0.6 0.9 1.4 2.4 1.9 1.2 1.4 0.5 0.4 0.5 0.1 0.9 0.1 0.5 0.1 3.5 2.2 6 5 0.5 0.6 1.5 3.2 1.2 2 0.5 1.1 0 0.7-0.4 0.9 0.4 0.7 0.9 0.5 0.8 0.4 0.1 1.3 0.1 0.4 0.3 0.3 0.9 0.4 0.3 0.3 0.1 0.5-0.4 0.6 0 0.4 0.2 0.3 0.5 0.7 0.2 0.4 0.3 1.6 0.3 0.6 0.7 0.5 1.4 0.6 0.2 0.5 0.2 1 0.7-0.1 0 0.4-0.3 0.6 0 0.6 0.5 0.2 0.4-0.2 0.4-0.3 0.5 0 0.6 0.6-1.4 0.8-0.3 0.9-0.1 1.4 2.1 1.9 0.4 1.3-0.3 0.5-1 0.6-0.3 0.4 0.1 0.6 0.5 0.2 0.6 0 0.3 0.3 0.1 0.6-0.4 1.1 0 0.6 0.3 0.5 1.2 0.6 0.5 0.4 0.5 0.9 0.9 3.4-0.5 1 0 0.5 0.6-0.2 0.5-0.3 0.3 0.1 0.5 0.6 0 0.1 1.2 3.1 0.4 4.5-0.1 3.7 0.2 1 1.7 3.1-0.1 0.8-2 2.8-0.9 2-1 1.9-2.7 3.4-1.4 2.6-0.6 0.8-1.4 1-0.2 0.7-0.6 2.7-0.2 1.5 0.2 1.4 0.3 0.6 0.7 1.1 0.2 0.7 0 1.2-1 3.5 0 1.6 0.2 1.9 0.5 1.9 0.6 1.4 0.6 0.7 0.7 0.5 0.4 0.6 0.5 1.6 0.3 0.5 0.1-0.1 1-0.7 3-1.4 2.1-1.6 1.2-0.6 2.6-0.3 2 0.8 1.9 1.2 6.1 1.4 1.4-0.1 4.1-1.2 0.6 0 1.3 0.2 0.7 0 3.9-1.1 2.1-0.1 1.1 0.2 2.2 1.1 4 0.1 2.8 0.7 0.9 0 1.1-0.4 2.6-1.8 0.9-0.8 0.5-0.9 0.2-1-0.1-1-0.4-2.3 0.1-0.8 0.5-0.6 1.3-0.4 1.4-0.3 4.5 0 3-0.7 2.7-1.7 2.3-2.4 1.8-2.7 1.5-4.1 0.9-1.9 1.8-1.9 0.5-1.1 0.4-0.3 2.2-0.4 0.7-0.2 1.1-0.6 2.4-2.3 1.6-2.4 1-0.8 1.5-0.3 2.1 0.4 0.8-0.3 0.9-1.3 0.7-1.8 0.6-0.7 0.9-0.7 0.4-0.4z" id="ZAF1188" name="Northern Cape" data-id="ZAF1188" data-name="Northern Cape">
 </path>
 <path d="M993.7 1421.3l-1.3 1.2-1.3 0.5-0.4-0.1-0.8-0.3-5.2-0.3-0.7 0.2-1.7-0.3-0.7-0.4-0.7-0.7-0.2-0.5-0.3-0.9-0.1-0.9 0.9-0.8 1-1.6 0.4-0.4 0.3-0.3 1-1.5 0.5-0.5 1.5-0.5 1.5 0.3 4.3 1.2 2.2 2.6 1.3 0.5-0.5 1.8-1 1.7z m5.2-20.1l-1.7 0.7-2.2-0.3-1.4-1 0.2-1.4 1.6-1 2.1-0.1 1.5 1.2-0.1 1.9z m-641.7-896l0.5 1.5-0.4 0.4-0.3 1.1-0.6 0.7-0.2 1.7 1.3 0.7 1 1.4 0.3 1.4-1.1 1.7-0.8 0.7-0.8 0.4-0.4 0.7 0 0.7-0.2 1-0.5 0.7 0 1.3 0.1 0.8-0.5 1.4-1.8 1.1-1.1 1.7-6.6 2.9-1.9-0.3-4.1-1.5-1.6 0.7-2.2 1.7-1.8 3.7-1.6 1-7.2 0.9-2.2 1.1-3.4-0.3-1.7 2-2.1 1.8-0.3 2.1 0 2.3 1.2 2.1 0.6 2.4 0.3 1.9-0.2 2.6 1.6 1.8 0.8 1.9 1.9 1.8-2 2.2-3-0.2-3.1 0.2-2.4 1.1-0.9 0.3-0.5 0-0.6-0.6-0.3-0.6-0.3-0.8-0.8-0.8-0.1 0.2 0.2 1.4 0 1.9-0.6 1.2-1.8 0.6-1 0.6-2.2 3-0.2 1.7-1.5 2.2 0.7 2.3-0.7 2.2-7.9 12.9-0.4 2 0.6 2.1 7.2 0.2 5.8-0.8 10.7 0.5 8.2 1.9 3.4 1.5 2.4 2 0.9 3.8 2.4 3.1-0.7 1.3-8.4 3.8-1 1.2-0.6 0.8-1.7 1.9 4.2 0.4 1.2-0.5 1.1 0.2 1.8 0.7 0.8 1.5 5.8 2.8-2.2 3.5 0 0.8 0 1.7-0.2 0-2.2 0.1-7.5 1.7-1 0.5-0.8 0.6-0.8 0.7-0.4 1.3 0.3 1.1 0.8 0.7 1.1 0.2 0 0.4-16.1-1.5-0.2-0.4-0.3-1.6-0.1-0.4-1.4-0.1-0.6-0.2-0.4-0.4 0.2 0.8 0.3 0.3 0.5 0.2 0.4 0.4 0.5 0.8 0 0.4-0.3 0.4-0.3-0.3-0.6-0.2-1.3-0.2-0.6 0.2-0.9 0.3-0.8 0-3.7-1.2-1.5-0.9-0.5-0.2-0.6-0.4-0.3-0.8-0.1-0.5 0-0.4 0.3-0.2 0.7 0-0.7-0.7-1.1-0.3-2-0.2 0.4 0.8 0.7 0.9 0.7 0.6 0.7 0.4-0.8 0.3-1.1-0.3-5.3-1.8-0.9-0.1-1.2 0-0.9 0.2-0.8 0.3-2.4 2-1.9 1-2 0.5-4.4-0.5-1.9 0.1-4 0.9-0.9 0.5-0.8 0.6-1.4 1.5-0.5 1.2 0.2 0.9 0.6 0.6 0.9 0.5-0.7 0.6-0.9 0.3-6 0.9-1.8 0.8-1.1 1.3-0.2 0.9 0.3 1.8-0.5 0.6-0.9 1.7-0.3 0.2-2.7 1.6-1.9 0.7-2 0.4-2 0.1-4.9-1-1.7-1-1.1-0.3-1 0.2-1.9 0.8-1.6 0.3-0.4 0.3-0.4 0.7-0.3 0.3-3.1 1.4-2 0.3-2-0.2-7.6-2.9-1.9-0.4-4.5-0.4-2.2 0.3-1.9 0.9 0.4 0-2.7 0.7-0.8 0.5 1.2 0.2 1.1 0.8 0.6 1.2-0.4 1.2-0.9 0.3-8.2-1.5-6.5 0.9-1.9 0.9-1.6 1.3-2.6 3.5-0.8 0.8-0.9 0.4-0.7 0.1-0.3 0.4-0.2 0.5-0.5 0.5-0.4 0.3-1.5 0.5-0.8 0.6-0.8 0.8-0.7 0.9-0.3 1-0.5-0.2-1.1 0.3-1.9 0.8-3.4 2.6-1.3 1.7 0.6 1.6 0 0.3-0.8 0.2-1.2 0.8-0.7 0.2-0.8-0.1-0.7-0.3-0.7-0.4-2.9-2.2-0.7-0.7-0.8-0.4-7.4 0.2-0.7 0.2-0.8 0.8-0.6 0.2-0.5-0.1-0.3-0.4-0.4-0.7-2.4-1.4-3.5-3.6-2.4-1.4-0.7-0.6-0.7-0.9-0.9-0.7-1.1-0.1-1.1 0.3-0.9 0.7-0.4-0.3-0.4 0-0.4 0.1-0.4 0.2 0.1-0.6 2.8-3.8 0.2-0.6-0.2-1.6-0.7-1.8-1-1.6-0.9-1.2-0.6-0.5-0.6-0.2-3.3 0.7-2.8-0.2-0.6-0.2-0.7-0.6-0.8-1.6-0.7-0.5 0-0.4 1.1-0.2 0.6-0.8 0.3-1.2 0.5-1.3-0.8 0.5-1.1 1.9-0.5 0.4-3.5-0.3-0.6 0.1-1.4 0.5-4.5 0.7-1 0.7-0.2 0.4-0.4 0.2-0.5-0.1-0.5-0.3-0.4-0.7 0.1-0.6 0.3-0.6-0.3-1.9 0-0.4 0.2-0.7 0.4-0.4 0.4-0.5 0.4-1.1-0.1-0.8-0.7-1.9 0-1.2 0.4-0.5 0.6-0.5 0.6-0.9-1.9-3-0.8-0.5-2.7-0.6-4.4-0.5-4.3 0.3-0.6 0.3-0.4 0.2-1.7 0.7-0.8 0.6-0.4 0.4-0.4 0.6-0.7 0.7-0.2 0.4-0.1 0.8 0.1 0.6 0.3 0.3 0.3 0.2 0.3 0.4 0.6 2.3 0.1 1.1-0.4 3.7 0.2 1.1 0.8 0.7-0.9 0.2-1.1-0.6-1.2-1-0.7-0.9-1.1-2.3-0.1-0.6 0-0.4 0.2-0.8 0.1-0.4-0.1-0.2-0.5-0.4-0.5-1.4-0.4-0.6-1.3-0.5-0.4-0.5-0.1-0.8 0.1-0.8 0.3-0.4 0.5-0.2 0.3-0.2 0.2-0.9 0-0.7 0.1-0.6 0.2-0.6 0.3-0.6-0.7 0.1-0.6 0.3-0.6-1-0.1-0.8 0.4-0.8 0.7-0.8 0.6-1.1 0.5-2 0.5-1.2 1.5-1.2 1.8 0.1 1.5-0.3 0.6-2-0.2-1.1-0.9-1.5-0.2-0.7-0.1-1.1-1.3-4.9-1.2-2.5-0.2-1.1-0.5-0.2-2.1-2.6-0.8-0.5-0.3-0.3-0.2-0.5 0-2.3-0.1-1.2-0.3-0.9-1.2-1.9-1.3-1.5-5-3.5 0.4-0.9-0.2-1.1-1.2-2.2-0.6-1.5-1.1-1.5-0.2-0.6-0.4-0.7-2.1-2.1-0.8-0.4-1-0.4-0.6-0.9-0.6-1-0.5-0.8 1.2-0.6 0.7-0.2 0.5 0.2 0.3 0.7 0.3 0.6 0.3 0.5 0.5 0.4-0.2 0.6 0.4 0.4 1.2 1 0.9 1.2 0.6 0.7 0.6 0.2 0.7-0.4-0.2-0.6-1-1.1-0.2-0.4-0.1-1-0.2-0.3-0.2-0.2-0.5 0-0.2-0.1-1-1.1-0.4-0.5-0.2-0.6 0.2-2.4-0.2-0.8-0.6-1.1-1.1-0.5-1.4-0.1-1.4 0.2 0.5 0.9 0.2 0.3-0.6 0.1-0.4 0.3-1 0.7-0.5-0.6-0.2-0.6-0.2-0.9-0.2-0.5-0.3-0.5-0.1-0.6 0.3-0.8-0.2-0.5-0.6-1.6-0.3-1.2 0-0.4 0.1-0.5 0.5-0.6 0.3-0.7-0.3-0.6-1.1-1.5-0.4-0.3 0.1-0.5 0.1-0.1 0.7 0.1 0.3-0.4 0.7-0.6 0.6-0.2 0.1-0.5 0.2-0.4 0-0.4 0-1.7 0.1-0.7 0.7-0.5 1.1-0.5 1.1-0.2 0.7 0-0.4 0.4 0.6 0.9 2.3 2.2 2 0.8 1.8-0.5 1.6-1.2 5.6-5.7 1-2.2 0.7-1.9 1.1-4.5 0.2-2.2-0.2-3.8-0.3-0.9-0.6-1.2 0.3-0.9 1.1-1.5 0.2-2.2-1.8-7.2-0.5-5.9-0.8-2.3-0.3-1.2 0.1-2.4-0.1-1.2-0.5-1.1-0.6-0.7-0.5-1-0.3-0.7 0-0.5 0-0.4 0-0.6-1-3.8-0.8-1.8-1.1-1.9-2.1-2.8-0.4-0.7-0.1-0.5-2.1-3.1-2.2-2.3-0.4-0.9-0.3-1-0.7-0.8-1.5-1.4-1.8-2.8-1.3-1-0.5-1.4-0.6-2.5-0.5-0.7-1.9-1.6-0.4-0.5-0.3-0.7-1.7-2.9 2.5 0.7 0.3-5.7 2.3-3.1 0.7-3.9 2.7-2.6 1.1-3.8 1.3-1.4 1-0.8 0.9-0.1 0.7 0.2 0.8 0.3 0.9 0.7 1.2 0.6 1.7 0.8 2-0.8 2.2-1.3 2.2-3.3 1.9-3.6 1.2-4.2 1.4-2.5 0.8-1.7 2.5 1.5 0.7-1.6 1.3-1.2 2.5-0.2 3.3 2.5 2.8 1.6 2 1.6 1.7 2.1 1.2 2.1 2.1 2.2 4.5 1.5-0.1 6.5-1.4 2.1 1 3.2-1.1 3.7 1.5 10.1 1 2.8 1.3 1.5 0.5 0.8-0.1 0.8-0.3 1.7 0.9 5.1 0 2.2 0.4 1.3 1.2 1.1 0.2 1.3 0.6 0.8 0.3 1.3-0.3 1.1 0 2.2-0.3 1.3 0.8 4.7-0.2 2.5-1 1.9-0.8 3.6 2.4 0.1 0.7 0.2 0.7 0.4 0.4 0.3 0.6 0.5 0.5 0.1 0.7-0.4 0.6-0.1 0.5 0.3 0.2 0.1 0.5-0.1 0.7-0.3 1.6-1.4 0.6-0.3 0.3 0.3-0.7 2.8-0.1 0.7 0.2 0.4 1.3 0.7 0.6 0.3 0.4 0.7 0.8 1.7 0.3 0.5 0.4 0.2 0.8 0 0.2 0.1 0.5 0.5 0.5 0.1 0.4-0.3 0.6-0.2 0.5 0.1 0.4 0.3 0.4 0.5 0.4 0.7 0.5 0.5 0.6 0.1 0.5 0 0.3 0.1 0.1 0.4-0.2 1.2 0 0.4 0.1 0.6 0.1 0.4-0.2 0.8 0 0.4 0.4 1.3 0.5 2.8-0.2 0.5-2 2.1-1 1.7 0.4 2.9 0.3 1.3 0.3 0.9 1.9 3.5 0 1.3-0.7 5.2 2.9 2.9 2.6-1.3 0.3-0.5-0.5-0.7-0.6-1.6 0.2-1.7 0.9-2.2 0.6-1.9 0.9-0.8 1.1 0.6 0.9-0.2 1.5-0.7 1.2-1.7 2.2-1 1.1-0.8 3.1-0.2 2.6-0.7 4.3-3.4 1.5-2 1.3-0.8 2.9-3 1.3-0.2 0.8 0.7 0.6 1.3 0.7 1.1 0 2.3-3.5 4.6-1.4 1.5-1.2 0.9-0.1 2.6 0.7 3.5 1.3 4.1 2.3 4.9 0.6 2.8 1.1 1.5 1.1 1 1.1 0.6 1.1 0.7 1.3 1.9 1.2 1.2 1 1.7 1 0.5 2 2 3.2-0.6 2.6-1.4 1.2 0.2 1.7 0.9 4.5-0.2 3.7-3.1 0.9-2.8 0.4-3.1 0.5-2.1 1.9-2.2 3.4-1.2 2.7-0.4 2.1-0.6 3.6-1.6 2.5-5.2 0.9-3 2.1-0.9 0.8-0.6 0.8-0.9 1.6-2.1 3.5-1.2 1.9-0.4 2.1-1.6 2.6-1.6 1.4-2.7 2.3-1.1 1.4-0.3 2 0.4 1.8-0.6 1.8 0.5 1.6 0.6 3 0.6 2.8-0.7 2.7-1.9 1.2-2 2.7-3.2 1.1-0.3 1-2-0.8-2.2-0.3-0.5 0-0.6 0.4-2.2-0.1-1.7 0.2-0.9 0-0.9 0.4-0.7 0.4-1.1 1.8-0.4 5.5-13.6 1.3-1.9 8.7 4.5 1.7 1.4 2.2 2.3 2 3.1 4.2 1.4 2.8 1.7 3.2 0.2 2.1 0.9 3.4 0.2 2.1 0.7 1.7 0.9 0.5 2 0.1 0.5 1.4 2.4 5.2-4.7 0.9-1.1 1.1-2 3.2-4.5 3-1.7 2-2.1 5.8 0.1 1.2-0.3 1.9-0.8 1.7-0.2 3.2 0.4 4 2.3 1.1 1 0.5 1-0.1 1.2 2.2 1.8 1.7-1 1.5-1.1 1.4-1.9 1.5-0.6 1.3 0.2 2 2.9 3.7 0.9z" id="ZAF1189" name="Western Cape" data-id="ZAF1189" data-name="Western Cape">
 </path>
 <path d="M462 127.8l0 4.2 0.3 1.3 1.3 2.3 0.3 1.2 0.4 0.2 8 0.7 1.1 0.3 1.5 0.9 1.2 0.6 0.9 0.2 1.1 0.2 0.7-0.2 2.9-1.6 5.3-2.3 2-1.4 0.5-1.3 0.5-0.5 0.7-0.2 0.6 0.4 0.3 0.9 0.6 5.2 1.1 1.9 1.6 1 1.6 1.6 0.6 1.6 0.4 0.6 0.6 0.5 4.9 0.8 3.6 2.7 3.5 0.1 2.1-0.3 0.5 0.4 0.3 1.4 0.3 0.4 0.2 0.2 0.5 0.1 0.4-0.1 0.5-0.5 1.7-2.7 0.2-1 0.1-1.2 0.1-0.4 0.5-0.3 1-0.4 1 0 1.1-0.2 1.9 1.8 0.8-0.5 0.7-0.4 0.7-0.1 7 0.8 0.5 0 0.2-0.1 0.4-0.3 0.6-0.4 1-0.1 2.3 0.6 2.2 0.2 1.7 0.4 3.6 1.7 1.4 0.8 0.7 1-0.2 1.4-0.3 1-0.6 0.5-1 0.1-0.6-0.3-0.9-0.5-0.9-0.5-0.7-0.1-1 0.4-0.4 0.7 0.2 1 1 0.7 0.6 0.7 0.4 1.2 0.6 0.5 1 0.2 1.5-0.3 1 0.5 0.7 0.4 2.9 4.7-0.4 4.3-1.9 1.3-1.2 0.4-2.5 0.1-0.6 0.3-0.5 0.2-0.8 0.1-0.3-0.4 0-0.7 0.5-0.6 0-0.5-0.4-0.2-1 0.1-1.1 0.5-0.4 0.8 0 0.9 0.6 2.9 0.2 0.5 0 0.9-0.3 1.3-1.2 1.8-1.1 1.1-1.2 0.8-3.5 0.8 1.5 3.5 0.2 0.6 0.1 0.7 0 0.4-0.4 0.3-0.3 0.1-0.2 0.3 0.1 0.6 0.1 1-0.2 1-0.9 1.2-1.5 0.6-0.8 0.6-3.2 0.7-3.6 0.6-0.8-0.7-1.8 0.1-1-0.9-1.2-0.7-0.8-1-3.8 1.4-3.1 2.2-1.2 5.9-1.1 5.1-1.1 1.5-1.6 0.6-0.8 1.1-2.8 0.2 1.6 7.2-4.1 2.9-2.4 2.2 1.7 3.3 0.3 0.7 0.1 0.8 0 0.4 0.3 0 0.3 0.3 1.6-0.3 0.6-0.3 0.6-0.3 2.2-1 0.8-1 5.7-1.7 0.8 0.7 0.4 0.6 0.6 0.3 0.4 0.4 4.2 0-0.3 1.7-0.5 0.2-0.3 0.3-0.3 0.8-0.3 3-0.7 0.7-0.6 1.3 0.1 1.3-0.4 6.8-0.4 0.1-0.6 0.6-0.2 1 0 1.1-0.2 0.5-1.4 2.2-0.5 0.3-2.9 0.8-0.6 0-0.6-0.2-1.5-1.4-0.6-0.3-1.3 0.2-1.1 1-2 2.3-1.8 1.4-1 0.4-0.4-0.4 0.3-1 0-0.5-0.5-0.1-0.4 0-0.8 0.3-4.6 0.1-2-0.3-1.6-0.8-0.9-1.7-0.6-0.6-0.7 0.5-0.2 0.8 0.2 3.4-1.1-0.7-1.5-1.4-0.2-0.1-1 0.6-0.6 0.6-0.3 0.4-0.4-0.2-0.7-0.6-0.2 0.2-0.5 0.4-1.1 0.3-0.8 0.6-1.3 1.2-0.2 0.3-0.3 0.7 0 0.4-0.2 0.6-0.3 0-0.4-0.4-0.9-0.4-0.7-0.2-0.7 0.3-0.6 0.5-1.3 1.4-0.3 0.6-0.1 0.8 0.2 0.8-0.1 0.6-0.6 0.6-1.2-0.4-0.5 0-1.2 1.5-0.8 0.6-2.7 0.8-0.9 1.2 1 1.5 1.6 1.4 0.9 1.1-0.1 3-0.3 0-0.4 0.2-0.6 1-0.3 1 0.3 0.8 1.2 0.3 0.5 0 0.4 0.2 0.4 0.3 0.1 0.4-0.2 0.1-4.6 0-0.9-0.3-1.3 0-0.6 0.1-0.5 0.4-0.4 1-0.2 0.3-0.8-0.6-0.3-0.1-1.3 0.2-1.1 0.7-0.8 1.1-0.3 1.3 0.1 0.9-0.1 0.3-0.4 0.5-0.2 0.1-0.7 0.1-0.3 0.1-4.2 4-1 1.4-1.1 2.1-0.1 0.5 0.1 0.6 0.5 0.9 0.1 0.5-0.2 0.5-0.4 0.3-0.6 0.2-0.5-0.1-0.3-0.1-0.3-0.2-0.2-0.5-0.2-1.1-0.2-0.9-0.3-1.3-0.3-0.2-0.4-0.2-3.2-0.6-0.6-0.1-1 0.1-0.3 0-0.4-0.2-0.4-0.3-0.7-0.7-0.6-0.7-0.4-0.3-1 0.1-4.9 2.8-1.2 1-0.6 0.8-0.4 0.2-0.3 0.1-0.8-0.3-0.9-0.5-0.5-0.2-0.5 0-0.4 0.2-0.5 0.7-0.5 0.3-0.8 0.5-0.5 0.1-0.3-0.1-0.4-0.3-0.3 0-0.3 0.1-0.5 0.6-2.9 0.8-0.7 0.5-3.4 3-0.3 0.2-0.6 0.2-0.6 0.1-0.5 0-0.5 0-0.5 0.4-0.7 1.2-0.6 0.3 0 0.4 0.2 0.8-0.3 0.7-0.7 1-0.7 0.8-0.9 0.6-0.5 0.8-0.2 0.1-1.1 0-0.5 0.1-0.5 0.3-0.2 0.3-1.3 2.2 0.1 0.4 0.1 0.3 0 0.4-0.9 1.7-0.7 0.9-0.6 0.6-0.4 0-0.5-0.2-0.5 0-0.4 0.7-0.1 0-0.4 0.1-0.5 0-0.4 0.1-1 1-0.7 0.4-0.4 0-0.3-0.1-5-9.9 0.8-0.1 8.5-10.4-0.6-0.7-0.4-0.2-0.6-0.2-0.9-0.1-7.3 0.1-1.2-0.4-0.4-0.6-0.1-0.9-0.5-1.1-0.5-1.6-0.6-0.7-0.2 0-1.3-0.3-0.7 0-0.5 0.3-0.3 0.5-0.1 0.6 0 0.9 0.3 1.2-0.1 0.3-0.4 1-0.1 0.4 0 0.6 0.3 1 0.1 0.2 0.7 0.4 0.3 0.5 0.1 1.3-0.1 0.6-0.3 1.2 0 0.6 0 0.8-0.1 0.5-0.3 0.7-0.3 0.4-0.3 0.3-0.8 0.3-0.3 0.3-0.5 1.1-0.8 1-0.1 1.3 0 0.4 0.1 1.3-0.1 1-0.3 1-1.9 1.7-0.4 0.4-0.3 1.1-0.5 0.8-1.2 1.2-3.7-3.2-0.1-0.8 0.3-0.8 0.3-0.5-0.1-1.1-1.3-1.7-0.7-0.5-1.1-0.2-0.6-0.6-0.3-1.1 0.5-1.2 0.5-1 1.5-1.5 0.4-0.8 0.2-1.2-0.3-3.6-0.4-1.1-0.3-0.9-14.4 3.3-1.2-2.9 0-3.2-1.3-2.4-0.3-3-0.2-1 0-0.8 0.2-0.9 0.1-5.4-1.2-1.9-1-1.2-0.2 0.6-0.2 0.4-0.4 0.8 0 1.2 0.1 0.8 0.3 1.2-0.3 0.5-1.6-0.1-1.4-0.3-0.9 0.2-0.6 0.6-0.2 0.8 0.1 0.6 0.8 0.5 0.1 0.6-0.2 0.5-0.7 0.4-0.9 0.1-1.6-0.2-1 0-0.7 0.3-0.1 0.2-0.5 0.8-1.1 1.1-1.1 0.1-2-0.7-1.9-0.9-1.9-1.2-1.4-0.4-4.1-0.5-0.1-0.7-0.2-0.5-0.3-0.6-1-0.8-1.1-0.1-0.4 0-0.5-0.2-2.6-2.2-1-0.5-1.2-0.3-2.3-0.2-0.9-0.2-1-0.6-4.1-4.7-1.9-1.7-2.3-0.3-0.7-0.6-0.6-0.7-0.5-1.6-0.2-1.3 0-1.1 0.1-1.6 0.3-1.4 0.6-0.8 2.1-0.9 0.6-0.3 0.2-0.4-0.3-0.4-1.3-2-1.6-5.3 0-0.7 0.3-1 0.7-1.1 0.2-1.1-0.2-1.8 0-1 0.4-1.9-0.2-0.8-3.1-2.2-0.7 0.1-0.3 0.2-0.6-0.9-0.5-0.5-0.9-0.3-1.5-0.2-0.6-0.2-0.5-0.6-0.8-0.4-0.8-0.1-0.6-0.1-1.3 0-0.7 0.1-0.6 0-1.1-0.1-0.5-0.3-0.4-0.8-0.4-2.6 0-0.1-0.2-1.3 0-1.3 0.3-1.1 0.6-0.7-0.4-15.5-3.4-0.1 0.1-0.2 2-2.9 0-0.6-0.2-0.6 0-0.4 0.5-0.4 1.3-0.5 0.5-0.4 0.4-0.6 0.2-0.9 0.1-1.2 0-1.2-0.2-0.6-0.6-0.9 0.5-0.9 0.9-0.8 0.7-0.8 0.5-0.9 0-0.3-0.3-0.7-0.4-0.5-0.4-0.3 0-0.7 0.2-1.1 0.7-1.1 2-2.4 0.3-0.5 0.1-0.6 0.1-0.7-0.1-0.6-0.1-0.4 0-0.4 0.7-0.5 0.4-0.5-0.2-0.6-0.5-0.5-0.3-0.5 0.1-0.5 0.1-0.4 0.4-0.8 0.9-3.1 0.3-0.6 1.2-0.4 0.5-0.6 0.7-2 0.4-0.7 0.4-0.4 0.5-0.3 0.6-0.3 0.6-0.4 0.2-0.4 0.1-0.4 0.2-0.4 1.8-1.9 1.1-0.6 1.1 0.2 0.3 0.4 0.2 0.5 0.3 0.3 0.6-0.3 0.4-0.4 3.5-1.7 2.2-0.6 2.3-0.2 2.6 0.5 2.1 0.8 0.7 0.2 0.8-0.1 1.5-0.6 0.6-0.1 0.7 0.2 0.4 0.4 0.7 1.1 0.6 0.7 0.5 0.3 1.4 0.7 1.1 0.7 4.9 3.9 0.4 0.5 0.6 0.6 2.6 0.8 0.4 0.4 0.5 1 0.3 0.5 0.4 0.3 1 0.3 0.4 0.2 1.7 2.4 2.1 1.5 0.7 1 0.9 0.6 2.4-0.6 0.6 0.1 0.4 0.3 0.5 0.4 0.1 0.4-0.3 0.4 0.1 0.3 1-0.2 4.8-1.3 2.4 0 2.1 1.2 3.2 3.8 1.9 1.5 2.4 0.4 1.2-0.3 1-0.4 0.9-0.2 5.6 2.1 2.4 1.7 1.7 0.4 3.3-0.4 1.6 0.3 1.3 0.4 1.4-0.2 2.7-0.7 1-0.4 2.7-2.1 2.1-1.1 1.8-0.2 1.8 0.3 2.1 0.6 2 0.4 9.6-1 3.4-1.7 6-4.7 1-3.1 2.5-6.2 1.5-6.6 4-9.2 1.1-3.4 1.4-2.5 0-1.9 1.4-3.1 0.5-1.7 0-2-0.5-3.8 0.1-1.2 0.3-0.3 0.3 0 1.6-0.6 2.3 0.1 0.7-0.3 1.5-1.2 12.3-3.8 2.2-0.4 0.9 0.1 0.9 0.2 0.8 0.1 1.1 0.2z" id="ZAF1201" name="North West" data-id="ZAF1201" data-name="North West">
 </path>
 <path d="M549.4 245.4l1.6 0.8 0.8 0.2 1.1-0.1 1 0.1 0.5 0.2 0.3 0.2 0.2 0.9 0.2 0.5 0.7 0.8 0.3 0.1 0.3-0.1 0.2-0.1 0.5-0.6 0.6-0.3 0.6 0 0.6 0.3 0.4 0.7 0.6 0.5 0.2 0.5 1.3 0.6 0.1 0.4-0.3 0.7-0.4 1.2 0.6-0.2 2.1-1.9 0.6-0.3 0.7-0.1 1 0 0.7-0.2-0.1-0.5-0.8-0.7-0.4-0.3-0.4 0.1 0.1-0.5 1.4-0.7 2.1 0.8 3.5 2.4 0.6 0.2 0.7 0.2 0.5 0.4 0.5 0.3 0.5-0.1 0.5-0.2 0.4-0.1 0.4 0.1 0.6 0.6 0.4 0 0.4-0.3 0.6-0.8 0.3-0.3 0.5-0.3 0.8-0.2 0.5-0.4 0.4-0.3 0.6 0 0.9 0.1 2 1.4 0.5 0.1 0.4 0.1 0.2 0.2-0.1 0.7 0.2 0.5 0 0.6 0.1 0.5 0.4 0.4 0.3 0.4 0.3 0.5 0.4 1 0.4 0.9 0.5 0.8 0.4 0.1 0.2 0 0.6-0.5 0.2-0.1 0.6-0.2 1.1 0 1 0.1 0.5 0.1 0.4 0.2 0.5 0.6 0.4 0.4 0.6 0.4 0.9 0.3 0.5 0.2 0.8 0.8 1 0.2 0.4 0.1 0.3 0.4-0.2 0.6 0 0.3 0.2 0.4 0.6 0.2 0.6-0.1 0.8-0.3 0.3-0.1 0.7 0.1 0.4 0.1 1.5 1 0.7 0.9 0.3 0.8 0.2 1 0.4 0.6 0.3 0.2 0.1 0.3-0.1 0.6 0.1 0.2 1.5 1.7 0.8 0.5 0.3 0.3 0.1 0.2-0.2 0.5-0.1 0.4 0.2 0.5 0.4 0.3 3.1 4 0.5 0.4 0.6 0 0.4-0.2 0.3-0.4 0.3-0.1 0.6-0.2 0.6 0.1 0.3-0.3 0.1-0.2 0-0.8 0.2-0.5 0.2-0.2 0.4-0.3 0.9-0.2 0.8 0 1 0.3-2.2 1.1-0.2 0.5 0.1 0.3 0 0.4-0.2 0.7-0.1 0.4 0.2 0.3 0.2 0.1 1.6 0.5 0.2 0.2 0.2 0.4 0.2 0.6 0.2 1.3-0.1 0.6-0.1 0.4-0.2 0.2-2.6 1.4-0.7 0.5-0.5 0.7-0.1 0.7 0 0.3 0.3 0.5 0.6 0.9 0.2 0.5 0 0.7-0.2 2 0 0.8 0.2 0.5 0.6 0.6 0.1 0.7-0.1 0.3-0.5 0.9-0.8 2.1-0.3 0.7-0.5 0.8-0.3 0.4-0.1 0.7 0.1 2-0.1 0.4-0.1 0.3-0.4 0.3-0.6 1-0.5 1.3-0.3 0.7 0 0.5 0.1 0.6 0.5 0.7 1 0.8 0.3 0.4 0.3 0.5 0.2 0.9-0.3 1.6-0.3 0.7-1.3 0.9-0.6 0.7-0.4 0.7-0.5 1.3-0.3 0.5-0.4 0.4-0.5 0.1-2.7 0.2-0.6 0.1-0.5 0.3-0.3 0.2-3.1 4-0.7 0.7-0.8 0.5-1.2 0.4-0.6 0.3-0.6 0.4-1.6 2-2.4 0.4-0.8 0.4-0.2 0.1-1 1.1-0.5 0.7-0.2 0.5 0 0.3 0.3 0.7 0 0.8-0.2 0.6-0.3 0.2-0.5 0.2-0.5 0.2-0.8 0.3-0.5 0.1-0.7 0-1.1-0.3-0.3-0.1-2.4 0.5-3.2 1.2-0.7 0.9-0.9 0.8-0.2 0.4-0.2 0.4 0.1 1.1-0.1 0.5-0.2 0.5-1.2 1.1-0.4 0.7-0.2 1-1 2.5-0.3 0.6-0.7-0.4-0.8-0.3-1.5-0.3-0.3-0.3-1.4-2.5-0.7-0.6-2-0.1-0.5-0.7-0.4-2.2-0.2-1-0.5-0.9-0.6-0.8-0.9-0.6-0.6 0.1-2.7 1.8-0.9 0.2-6.5 0.4-0.9 0.4-0.9 1-1.3 2.1-0.9 0.8-0.9 0.4-1.1 0.1-1-0.1-1-0.4-3.1 0.3-0.4-0.1-0.5 0.6-0.6 0.8-1.3 1.9-0.1 0.3-2.1 2.2-1.7 2.3-0.2 0.5-0.1 0.7-0.4 0.1-1.2 0-0.6-0.3-0.4-0.5-0.5-0.5-0.9-0.1-0.7 0.4-0.4 0.7-0.3 0.8-0.4 0.8-1.2 0.5-5.3-0.3 0.3 0.9-0.5 0.4-0.7 0.2-0.4 0.5 0 1.1-0.3 0.6-0.1 0.7-0.4-0.1-0.2 0-0.8 1.3-0.6 0.7-0.6 0.2-0.7 0.2 0.2 0.5 0.6 0.6 0.4 0.5-0.3 0.1-0.7 0.3-0.3-0.4-0.3 0.4 0.2 1.3-1 1.9-2.7 3.3-0.8 0.4-0.5 0.3-0.3 0.4 0 0.6 0.3 1.2 0.1 0.6-0.5 0.4-2.3 0.7-0.8 0.5-0.1 0.5-0.1 1.2-0.1 0.5-0.5 0.6-0.4 0.2-0.4 0.2-0.4 0.3-0.1 0.4 0.4 0.6 0.2 0.4-0.1 0.7-0.2 0.3-0.3 0.3-1.9 2.1-0.5 0.8-0.2 1-0.3 0.2-1.1 0-0.2 0.2-0.1 0.6-0.2 0.5-0.4 0.5-0.3 0.3-1.5 0.9-1 0.5-1.3 0.2-0.8 0.5-0.5 0.2-1.3 0.1-1.3 0.5-0.3 0.2-1.5 1.6-0.2 0.1-0.4-0.1-0.2-0.6-0.5 0-0.3 0.2-0.3 0.9-0.3 0.4-0.5-0.7-0.4 0-0.4 0.5 0 0.9-0.6 1.3 0.4 0.2 0.6 0.6 0.7 0.3 0.6 0.5 1.3 2.1 0.4 0.8 5.1 12.2 0.9 1.1 2.2 1.9 0.7 1 0.6 2.6 0.4 0.7 0.5 0.9 0.5 0.2 0.5-0.1 1.1 0 0.7 0.2 0.4 0.3 0 0.6-0.7 0.7-1 2.5 0 1.5 1.1 2.9-0.1 0.9 0.5 0-0.7 0.2-0.6 0.3 0.6 1.1 0.4 1.1 0.5-0.4 0.4 0 0.4 0.2 0.3 0.5-0.7 1-1 0.1-1-0.1-1 0.3-0.1 1 0.9 0.6 0.7 0.6-1 0.6-0.4-0.1-1.2-0.6-0.3 0-0.4 0.5 0.2 0.5 0.4 0.3 0.6 0.1 0.2 0.3-0.2 0.6-0.7 0.8-0.4 0.2-0.6 0.1-1-0.1-0.1-0.1-0.4-0.5-0.4-0.2-0.2 0.4-0.2 0-0.8 0.1-0.4 0.2-0.6 0.6-1.9-0.1-0.7 0.1 0 0.4 0.3 0.5-0.1 0.4-0.9 0.7-0.8-0.1-0.9-0.3-1-0.3-2.2 0.4-0.5 0.3 0.3 0.6 1 1 0.3 1-0.4 0.2-1.8-0.1-1 0.3-0.8 0.7-0.5 0.9 0.4 1-0.5 0.5-0.6 0.2-1.3 0-0.8 0.2-0.6 0.8-0.5 0.2-0.8-0.4-0.6-0.7-0.7-0.7-1.3-0.1-0.3 0.3-1 0.7-0.4 0.2-0.8-0.1-0.3 0.1-0.3 0.1-0.5 0.5-0.4 0.1-0.5-0.1-0.6-0.4-0.6 0.1-1 0.5-0.4 0 0.4-0.5 0-0.3-0.8-0.4-1-0.1-2.1 0-0.8-0.2-2-1.1-0.5-0.5-0.2-0.4-0.2-1.4-0.7-0.9-0.4-0.5-0.3-0.1-6 1.1-1.5-0.1-0.6-0.8-0.3-1.1-0.8-0.4-0.9-0.2-0.9-0.4-0.5-0.6-0.4-0.7-0.6-0.6-1.2-0.3-0.3 0.5 0 1-0.2 0.8-1.3-0.1-1.6-0.6-0.6 0-2.7 0.8-0.7 0.3-1.4 1.3-0.9 0.4-1.4-1.1-0.7-0.2-0.6 0.3-0.4 0.5 0 0.6 0.2 0.9-0.6 0.7-1 1.1-3 2.2-1.4 0.8-0.9 0.4-1.3-0.2-0.6-0.2-0.9-0.6-0.3-0.1-1.2-0.2-0.4-0.3-0.2-0.6-0.1-1.3-0.3-0.5-1.5-0.2-2.7 0.3-0.7 0-1.8 0.2-1.7-1.1-1.6-1.5-1.6-1-2.2 0.1-1.1-0.2-0.5-0.8-0.3-1-0.7-0.7-1.9-1.1-1.5-1.1-2.5-3.1-4.1-3.7-0.2-0.4-0.1-0.6-0.1-1.2-0.2-0.3-2-0.9-0.4-0.5-0.5-0.4-0.3-0.5-0.7-1.4-0.5 0-0.4-0.1-0.6-0.3-0.3-0.3-4.6-9.7-1.1-1.8-1.4-0.3-0.7-0.1-1.5-0.3-0.7-0.3-0.6-0.4-0.4-0.6-0.2-0.8-0.1-1.2-0.3-0.9-0.5-0.4-1.9-0.3-1.4-0.9-2.1-2.7-0.4-0.2-0.5 0-1 0.1-0.3-0.3-0.2-1-0.2-0.2-1.5 0-0.6-0.4-0.9-0.7-2.1-2.8-0.4-0.8-0.4-2-0.3-0.6 0.4-0.7 3.2-6.7 11-23.5 5-10.8 5.2-11.4 0.1-0.6-0.2-0.3-0.6-0.3-0.5-0.9-0.4-1.5 0.2-3.3 0.9-2.8 0.8-1.3 0.5-1.2 1-3.7 0.2-1.1-0.1-0.6-0.4-0.4-0.4-0.6-0.2-0.6 0.3-0.7 1.1-0.7 1.2-1.3 0.9-1.4 0.5-1.1 1.4-3.8 0.1-0.8 0-1.7 0.1 0 0.4-0.7 0.5 0 0.5 0.2 0.4 0 0.6-0.6 0.7-0.9 0.9-1.7 0-0.4-0.1-0.3-0.1-0.4 1.3-2.2 0.2-0.3 0.5-0.3 0.5-0.1 1.1 0 0.2-0.1 0.5-0.8 0.9-0.6 0.7-0.8 0.7-1 0.3-0.7-0.2-0.8 0-0.4 0.6-0.3 0.7-1.2 0.5-0.4 0.5 0 0.5 0 0.6-0.1 0.6-0.2 0.3-0.2 3.4-3 0.7-0.5 2.9-0.8 0.5-0.6 0.3-0.1 0.3 0 0.4 0.3 0.3 0.1 0.5-0.1 0.8-0.5 0.5-0.3 0.5-0.7 0.4-0.2 0.5 0 0.5 0.2 0.9 0.5 0.8 0.3 0.3-0.1 0.4-0.2 0.6-0.8 1.2-1 4.9-2.8 1-0.1 0.4 0.3 0.6 0.7 0.7 0.7 0.4 0.3 0.4 0.2 0.3 0 1-0.1 0.6 0.1 3.2 0.6 0.4 0.2 0.3 0.2 0.3 1.3 0.2 0.9 0.2 1.1 0.2 0.5 0.3 0.2 0.3 0.1 0.5 0.1 0.6-0.2 0.4-0.3 0.2-0.5-0.1-0.5-0.5-0.9-0.1-0.6 0.1-0.5 1.1-2.1 1-1.4 4.2-4 0.3-0.1 0.7-0.1 0.2-0.1 0.4-0.5 0.1-0.3-0.1-0.9 0.3-1.3 0.8-1.1 1.1-0.7 1.3-0.2 0.3 0.1 0.8 0.6 0.2-0.3 0.4-1 0.5-0.4 0.6-0.1 1.3 0 0.9 0.3 4.6 0 0.2-0.1-0.1-0.4-0.4-0.3-0.4-0.2-0.5 0-1.2-0.3-0.3-0.8 0.3-1 0.6-1 0.4-0.2 0.3 0 0.1-3-0.9-1.1-1.6-1.4-1-1.5 0.9-1.2 2.7-0.8 0.8-0.6 1.2-1.5 0.5 0 1.2 0.4 0.6-0.6 0.1-0.6-0.2-0.8 0.1-0.8 0.3-0.6 1.3-1.4 0.6-0.5 0.7-0.3 0.7 0.2 0.9 0.4 0.4 0.4 0.3 0 0.2-0.6 0-0.4 0.3-0.7 0.2-0.3 1.3-1.2 0.8-0.6 1.1-0.3 0.5-0.4 0.2-0.2 0.7 0.6 0.4 0.2 0.3-0.4 0.6-0.6 1-0.6 0.2 0.1 1.5 1.4 1.1 0.7-0.2-3.4 0.2-0.8 0.7-0.5 0.6 0.6 0.9 1.7 1.6 0.8 2 0.3 4.6-0.1 0.8-0.3 0.4 0 0.5 0.1 0 0.5-0.3 1 0.4 0.4 1-0.4 1.8-1.4 2-2.3 1.1-1 1.3-0.2 0.6 0.3 1.5 1.4 0.6 0.2 0.6 0 2.9-0.8 0.5-0.3 1.4-2.2 0.2-0.5 0-1.1 0.2-1 0.6-0.6 0.4-0.1 0.6-0.2 1 0-0.3-1.1 0.6-0.3 0.9 0 0.4-0.2 0.3-0.3 0.6 0.6 0.5 0.9 0.2 0.4 0.7 0 3.3-0.4 0.2 0.2 0.3 0.4 0.4 0.4 0.5 0.1 0.4-0.3 0-0.7 0.2-0.4 0.8-0.5 1.1-0.3 2.1-0.3 1.1-0.3 0.7-0.7 0.6-0.8 0.6-0.7 1-0.7 0.6-0.1 0.5 0.3 0.9 0.8 0.3 0.5-0.2 0.3-0.5 0.5 0.5 1.3 1.9 3.4 0.6 0.8 1.3 0.5 0.9 0.6 0.9 0.7 0.6 0.7 0.6 0.6 1-0.9 0.5 0 0.3 1.1 0.3 0.6 0.8 0.6 1.2-0.2 0.9-0.3 0.5-0.1 0.3 0.1 0.4 0.4 0.8 0.6z" id="ZAF1206" name="Orange Free State" data-id="ZAF1206" data-name="Orange Free State">
 </path>
 <path d="M549.4 245.4l-0.8-0.6-0.4-0.4-0.3-0.1-0.5 0.1-0.9 0.3-1.2 0.2-0.8-0.6-0.3-0.6-0.3-1.1-0.5 0-1 0.9-0.6-0.6-0.6-0.7-0.9-0.7-0.9-0.6-1.3-0.5-0.6-0.8-1.9-3.4-0.5-1.3 0.5-0.5 0.2-0.3-0.3-0.5-0.9-0.8-0.5-0.3-0.6 0.1-1 0.7-0.6 0.7-0.6 0.8-0.7 0.7-1.1 0.3-2.1 0.3-1.1 0.3-0.8 0.5-0.2 0.4 0 0.7-0.4 0.3-0.5-0.1-0.4-0.4-0.3-0.4-0.2-0.2-3.3 0.4-0.7 0-0.2-0.4-0.5-0.9-0.6-0.6-0.3 0.3-0.4 0.2-0.9 0-0.6 0.3 0.3 1.1-1 0-0.6 0.2 0.4-6.8-0.1-1.3 0.6-1.3 0.7-0.7 0.3-3 0.3-0.8 0.3-0.3 0.5-0.2 0.3-1.7-4.2 0-0.4-0.4-0.6-0.3-0.4-0.6-0.8-0.7-5.7 1.7-0.8 1-2.2 1-0.6 0.3-0.6 0.3-1.6 0.3-0.3-0.3-0.3 0 0-0.4-0.1-0.8-0.3-0.7-1.7-3.3 2.4-2.2 4.1-2.9-1.6-7.2 2.8-0.2 0.8-1.1 1.6-0.6 1.1-1.5 1.1-5.1 1.2-5.9 3.1-2.2 3.8-1.4 0.8 1 1.2 0.7 1 0.9 1.8-0.1 0.8 0.7 3.6-0.6 3.2-0.7 0.8-0.6 1.5-0.6 0.9-1.2 0.2-1-0.1-1-0.1-0.6 0.2-0.3 0.3-0.1 0.4-0.3 0-0.4-0.1-0.7-0.2-0.6-1.5-3.5 3.5-0.8 1.2-0.8 1.1-1.1 1.2-1.8 0.3-1.3 0-0.9-0.2-0.5-0.6-2.9 0-0.9 0.4-0.8 1.1-0.5 1-0.1 0.4 0.2 0 0.5-0.5 0.6 0 0.7 0.3 0.4 0.8-0.1 0.5-0.2 0.6-0.3 2.5-0.1 1.2-0.4 1.9-1.3 0.4-4.3 3.3-0.3 0.5 0.6 2.7 0 2.4-1.2 0.8-1 1.2-0.5 2.4-0.2 1.5 0.3 1.5-0.5 0.5-0.3 0.4-0.5-0.1-1-0.9-0.5-0.8-1.3-0.4-0.4-0.5-1.3 0.9-0.4 4-0.5 1.9-1.4 3.6-0.2 1.1 1.6 0.3 0.5 0.4 0.1 1.2-0.7 0.7-0.2 0.4 0.1 0.2 0.3-0.1 0.4-0.2 0.4-0.6 0.7-0.2 0.3 0 0.5 0.1 0.8 0 0.7-0.2 0.5-0.3 0.3-0.2 0.1-0.2-0.2-0.5-1-0.5-0.3-0.5 0.5 0.2 1.6 0.3 1.1 0.1 0.6-0.1 0.6-0.4 0.5-0.3 0.5-1.9 1.6 0.1 1 2.7 1.1 2-0.7 1-0.8 1.8-0.2 1.2-0.3 2.2 0.7 1.1-0.7 3.5-0.9 0.9 0.1 1.6 0.6 1.5-0.3 0.9 0.5 0 0.8-0.3 1-1.1 2.2-2.6-0.1-0.9 1-0.3 0.8-0.6 1-1.1 0.4-0.3 0.6-0.2 0.2 0.1 0.3-0.2 0.3-0.2 1.1-1.3 1.5-0.9 3.4-2.6 2.5-0.6 1.4 0.2 1.2-0.4 2.1-0.8 1.8 0 1.1-0.2 1.2-0.3 0.6-0.7 0.9-1.6 1.1-1.7 4.7-0.3 1.9-3.4-0.1-0.8-0.7-1.3-0.2-0.5-0.2-5 0-0.2 0.2-1.2 1.6-0.4 1.1-0.6 1-0.6 0.3-1.6-0.1-0.7 0.2-0.5 0.2-1.2 0.9 1.1 2.4 0.6 0.3 0.8 1.9 0.5 1.8 0.6 1 2.3 1.7 0.3 0.3 0.3 0.5 0 1.6 3.1 0.6 2 0.7 5.5-0.8 2 4.2-4.7 3.9-0.5 0.5-0.3 0.3-0.7 0.6-4.5 1.1-0.7 0.7-1.9 0.1-1.5 0.5-1 1-0.7 1.4-0.2 0.2-1.1 0.4-0.6 0.5-0.6 0.9-1 0.6-2.5 1.9-1 2.3 0 0.3 0.3 0.3 0.1 0.4-0.1 1-1.2 0.8-0.6 0.9-0.9 0.8-0.2 1.3 0.2 0.8-0.7 2.3z" id="ZAF1208" name="Gauteng" data-id="ZAF1208" data-name="Gauteng">
 </path>
 <path d="M686.6 262l-2.7 3.4-1.7 1.4-2.1 0-2.1 0.6-3.7 1-1.2-0.2-1.2-0.9-0.5-0.8-0.7-0.4-1.8 0.4-0.6 0.4-0.4 0.3-0.4 0.1-0.7-0.3-1.1-0.7-1.7-0.9-0.3 0-0.6-0.5-0.6-0.2-1.6-0.5-0.6 0-0.8 0.1-1.3 0.4-0.6 0.3-0.4 0.2-0.7 0.8-1 0.1-3.3-0.5-2.8 0.4-0.7-0.4-0.2-0.5-0.1-0.9-0.4-0.3-0.8-0.2-0.7 0.1-0.5 0.4-0.5 0.5-0.2 0.2-1.1-0.1-0.7 0.2-1 0.5-0.6 0.1-0.9 0.6-1.4 1.1-0.4 0.2-2.5 1-0.4 0.3-0.3 0.7-1 0.2-3.6-1-0.7 0.3-0.8 0.7-0.6 0.1-2.5-0.5-0.7-0.4-0.6 0-1.9 0.5-0.8 0.2-0.6 0.2-0.4 0.3-0.4 0.8-0.3 0.9-0.5 1-0.4 0.6-0.3 0.4-0.5 0.2-1.2-0.5-1-0.3-0.8 0-0.9 0.2-0.4 0.3-0.2 0.2-0.2 0.5 0 0.8-0.1 0.2-0.3 0.3-0.6-0.1-0.6 0.2-0.3 0.1-0.3 0.4-0.4 0.2-0.6 0-0.5-0.4-3.1-4-0.4-0.3-0.2-0.5 0.1-0.4 0.2-0.5-0.1-0.2-0.3-0.3-0.8-0.5-1.5-1.7-0.1-0.2 0.1-0.6-0.1-0.3-0.3-0.2-0.4-0.6-0.2-1-0.3-0.8-0.7-0.9-1.5-1-0.4-0.1-0.7-0.1-0.3 0.1-0.8 0.3-0.6 0.1-0.6-0.2-0.2-0.4 0-0.3 0.2-0.6-0.3-0.4-0.4-0.1-1-0.2-0.8-0.8-0.5-0.2-0.9-0.3-0.6-0.4-0.4-0.4-0.5-0.6-0.4-0.2-0.5-0.1-1-0.1-1.1 0-0.6 0.2-0.2 0.1-0.6 0.5-0.2 0-0.4-0.1-0.5-0.8-0.4-0.9-0.4-1-0.3-0.5-0.3-0.4-0.4-0.4-0.1-0.5 0-0.6-0.2-0.5 0.1-0.7-0.2-0.2-0.4-0.1-0.5-0.1-2-1.4-0.9-0.1-0.6 0-0.4 0.3-0.5 0.4-0.8 0.2-0.5 0.3-0.3 0.3-0.6 0.8-0.4 0.3-0.4 0-0.6-0.6-0.4-0.1-0.4 0.1-0.5 0.2-0.5 0.1-0.5-0.3-0.5-0.4-0.7-0.2-0.6-0.2-3.5-2.4-2.1-0.8-1.4 0.7-0.1 0.5 0.4-0.1 0.4 0.3 0.8 0.7 0.1 0.5-0.7 0.2-1 0-0.7 0.1-0.6 0.3-2.1 1.9-0.6 0.2 0.4-1.2 0.3-0.7-0.1-0.4-1.3-0.6-0.2-0.5-0.6-0.5-0.4-0.7-0.6-0.3-0.6 0-0.6 0.3-0.5 0.6-0.2 0.1-0.3 0.1-0.3-0.1-0.7-0.8-0.2-0.5-0.2-0.9-0.3-0.2-0.5-0.2-1-0.1-1.1 0.1-0.8-0.2-1.6-0.8 0.7-2.3-0.2-0.8 0.2-1.3 0.9-0.8 0.6-0.9 1.2-0.8 0.1-1-0.1-0.4-0.3-0.3 0-0.3 1-2.3 2.5-1.9 1-0.6 0.6-0.9 0.6-0.5 1.1-0.4 0.2-0.2 0.7-1.4 1-1 1.5-0.5 1.9-0.1 0.7-0.7 4.5-1.1 0.7-0.6 0.3-0.3 0.5-0.5 4.7-3.9-2-4.2-5.5 0.8-2-0.7-3.1-0.6 0-1.6-0.3-0.5-0.3-0.3-2.3-1.7-0.6-1-0.5-1.8-0.8-1.9-0.6-0.3-1.1-2.4 1.2-0.9 0.5-0.2 0.7-0.2 1.6 0.1 0.6-0.3 0.6-1 0.4-1.1 1.2-1.6 0.2-0.2 5 0 0.5 0.2 1.3 0.2 0.8 0.7 3.4 0.1 0.3-1.9 1.7-4.7 1.6-1.1 0.7-0.9 0.3-0.6 0.2-1.2 0-1.1 0.8-1.8 0.4-2.1-0.2-1.2 0.6-1.4 2.6-2.5 0.9-3.4 1.3-1.5 0.2-1.1 0.2-0.3-0.1-0.3 0.2-0.2 0.3-0.6 1.1-0.4 0.6-1 0.3-0.8 0.9-1 2.6 0.1 1.1-2.2 0.3-1 0-0.8-0.9-0.5-1.5 0.3-1.6-0.6-0.9-0.1-3.5 0.9-1.1 0.7-2.2-0.7-1.2 0.3-1.8 0.2-1 0.8-2 0.7-2.7-1.1-0.1-1 1.9-1.6 0.3-0.5 0.4-0.5 0.1-0.6-0.1-0.6-0.3-1.1-0.2-1.6 0.5-0.5 0.5 0.3 0.5 1 0.2 0.2 0.2-0.1 0.3-0.3 0.2-0.5 0-0.7-0.1-0.8 0-0.5 0.2-0.3 0.6-0.7 0.2-0.4 0.1-0.4-0.2-0.3-0.4-0.1-0.7 0.2-1.2 0.7-0.4-0.1-0.3-0.5-1.1-1.6-3.6 0.2-1.9 1.4-4 0.5-0.9 0.4-4.1 1.3-0.5 0.3-0.8 0.6-1 0.5-1.6 0.4-1.9 0.2-1.1-0.3-0.5-0.9-0.1-0.6 0.2-0.6 0.6-0.5 1.7-0.6 1.8-1 0.5-0.9 0.9-0.5 1.1-0.4 1.2-0.3 1.9-0.6 0.8-0.9 0.3-1.5 0-0.9 0.2-0.8 3.9-1.8 1.4-0.8 1-0.5 1.1-0.3 1-0.1 2.5 0.3 3.7-0.3 1.2 0.5 0-3 2.1-0.2 1.4 0.2 0.8 1.2 0.3 0.2 1.8 3.4 4-1.9 0.4-0.5 0.9-2.2 0.2-1.1 0.7-0.9 1.2-1.1 3.6-1 2-1.3 3.3-1.3 0.1 1.5 0.3 1.5 0 0.7-0.1 0.4-0.5 0.6-0.4 0.2-0.5 0-0.5-0.5-0.2 0.1-0.6 0.6-0.5 0.6-0.1 0.5 0 0.3 0.9 2 0.1 0.9 0 0.8-0.2 0.8-0.5 0.3-0.6 0.6-0.1 0.3 0.1 0.5 0.2 0.3 0.4-0.1 1-0.7 0.3-0.1 0.4 0.1 2.4 2.5 0.4 1.1 0.8 1.1 0.4 0.4 0.4 0.1 0.4 0.2 0.8 0.7 1.5 1.8 1.2 1.2 2.2 0.6 3.1 0.4 3.8-1.2 0.6-1.4 0.9-0.4 0.3-1.3-1.1-1.4-0.5-0.5-0.4-0.6 0.2-1 1.4-0.6 0.9-1.3 0-0.3 5-4.2 6.1-4.7 2.3-1.3 0.7-1.6 0.2-1.7-1.1-2.1 0.1-4.2 1.8-0.9 0.8-0.2 0.9 0.4 1.1 0.7 0.5 0.1 0.5-0.3 0.8-1.2 1.8 0 2.1-0.4 1.9-0.6 5.4 1.3 2.3 1.1 1.9-0.7 0.8-0.8 0.5-1.3 0.3-1.1 1.1-0.6 0.7 0.3 3.2-0.8 0.2-2.1 0.3-0.8 0.9-1.8 3.6 3.6 1.5 0.7 4.6 1.1 0.8 1.5 3.2 0.5 1.3 3 0.8 0.9 0.8 0.6 0.9 0.1 1-0.1 0.5 0 0.4 0.2 0.2 0.5-0.3 0.8-0.8 1.2-2.5 0.8-0.7 0.7 0.3 1.1 1.8 0.6 0.9 0.8 0.6 0.7 0.6 2.6 0.9 2 1 0.9-0.4 1-2.4 0.5-1.6 0.8-0.6 1.3-0.1 2.7 5.2-0.5 1.4-0.3 0.1-0.2 0.1-0.5 0.4-0.5 0.6-0.2 0.9 0.1 0.3-0.1 0.6-0.4 0.3-0.1 3.1 0 1.4 0.3 0.5 0.2 1.8-2.6-0.1-1 0-1.3-0.5-0.8-2.5-0.6-1-0.3-0.6-0.1-0.6-0.4-0.1-1.1 0.6-2.9 1.6-1.1 2.2-0.6 1.9-0.3 1.3-0.5 0.6-1.4 0.4-0.8 0.6-0.3 0.8 0 0.8-0.1 0.4-0.5 0.2-0.6-0.3-0.7-0.8-1.2-5.2-3.5-0.4-0.8-0.1-0.8 0.2-0.7-0.3-0.2 0.1-0.5-3.6 0 1.3-2.3-0.8-1.6 3-7.7 0.2-3 1.1-2.3-1.2-1.8-2.8-0.5-6.7-0.3 1.3-1.2 0.7-0.2 1.8 0.3 0.5-0.2 0.8-0.6 0.5-0.4 0.4-0.1 1.1 0.2 0.6-0.2 0.3-0.3 0.8-0.9 0.4-0.4 0.3-0.1 1 0.3 1.3 0.4 0.7 0.4 0.3 0.1 0.6 0.1 0.4-0.2 0.7-0.4 0.3-0.1 0.2 0.1 0.5 0.6 0.4 0.2 0.5-0.1 0.1-0.2 0.6-0.9 0.4-0.4 0.4-0.3 0.6 0 0.3 0.1 0.3 0.4 0.1 0.6 0.2 0.3 0.4 0.3 0.9 0.2 0.5 0 0.4 0 0.4-0.3 0.2-0.3 0.3-1.6 0.1-0.3 2.1-1.8 0.5-0.1 0.8 0.3 0.6 0.1 0.7-0.1 0.4-0.1 0.6-0.2 0.3 8 0.3 2.2 4.2 9.3 1.2 3.9 0.2 3.9-0.3 3.5 0.1 15.8 0 14.2 0.1 11.2-0.8 2.5-0.2 1.3 0 1.7 0.1 1.6 0.5 1 0.3 1.1 0.4 3.3 0 1.1-0.2 0.7-0.3 0.3-0.4 0.2-0.6 0.6-0.4 0.6-2 5.2-0.2 1.4 0.1 1.6 1.9 5.9-2.7 1.4-1.3 0.3-1.4-0.4-9-5.9-9.9-6.4-1.2-0.4-1.3 0-1.6 0.4-1.3 0.7-8.8 7.9-0.6 1-0.7 2.7-2.5 6.1-3.2 5.6-3.3 4.3-4.4 5.5-1 3.8 0.2 12.7 0.4 3.6 0.4 1.2 0.8 0 0.7-0.2 0.8-0.4 0.7-0.6 0.6-0.7 1 3.1 0.6 0.9 1.3 1.4 0.5 0.8 0.3 1 0 1.3-0.5 2.1 0.2 1.3 1 1.8 4.8 4.3 2.2 3.4 0.7 0.7 0.7 0.5 4.1 1.4z" id="ZAF1209" name="Mpumalanga" data-id="ZAF1209" data-name="Mpumalanga">
 </path>
 <path d="M715 93.7l-0.6 0.2-0.4 0.1-0.7 0.1-0.6-0.1-0.8-0.3-0.5 0.1-2.1 1.8-0.1 0.3-0.3 1.6-0.2 0.3-0.4 0.3-0.4 0-0.5 0-0.9-0.2-0.4-0.3-0.2-0.3-0.1-0.6-0.3-0.4-0.3-0.1-0.6 0-0.4 0.3-0.4 0.4-0.6 0.9-0.1 0.2-0.5 0.1-0.4-0.2-0.5-0.6-0.2-0.1-0.3 0.1-0.7 0.4-0.4 0.2-0.6-0.1-0.3-0.1-0.7-0.4-1.3-0.4-1-0.3-0.3 0.1-0.4 0.4-0.8 0.9-0.3 0.3-0.6 0.2-1.1-0.2-0.4 0.1-0.5 0.4-0.8 0.6-0.5 0.2-1.8-0.3-0.7 0.2-1.3 1.2 6.7 0.3 2.8 0.5 1.2 1.8-1.1 2.3-0.2 3-3 7.7 0.8 1.6-1.3 2.3 3.6 0-0.1 0.5 0.3 0.2-0.2 0.7 0.1 0.8 0.4 0.8 5.2 3.5 0.8 1.2 0.3 0.7-0.2 0.6-0.4 0.5-0.8 0.1-0.8 0-0.6 0.3-0.4 0.8-0.6 1.4-1.3 0.5-1.9 0.3-2.2 0.6-1.6 1.1-0.6 2.9 0.1 1.1 0.6 0.4 0.6 0.1 1 0.3 2.5 0.6 0.5 0.8 0 1.3 0.1 1-1.8 2.6-0.5-0.2-1.4-0.3-3.1 0-0.3 0.1-0.6 0.4-0.3 0.1-0.9-0.1-0.6 0.2-0.4 0.5-0.1 0.5-0.1 0.2-1.4 0.3-5.2 0.5 0.1-2.7 0.6-1.3 1.6-0.8 2.4-0.5 0.4-1-1-0.9-0.9-2-0.6-2.6-0.6-0.7-0.9-0.8-1.8-0.6-0.3-1.1 0.7-0.7 2.5-0.8 0.8-1.2 0.3-0.8-0.2-0.5-0.4-0.2-0.5 0-1 0.1-0.9-0.1-0.8-0.6-0.8-0.9-1.3-3-3.2-0.5-0.8-1.5-4.6-1.1-1.5-0.7-3.6-3.6-0.9 1.8-0.3 0.8-0.2 2.1-3.2 0.8-0.7-0.3-1.1 0.6-0.3 1.1-0.5 1.3-0.8 0.8-1.9 0.7-2.3-1.1-5.4-1.3-1.9 0.6-2.1 0.4-1.8 0-0.8 1.2-0.5 0.3-0.5-0.1-1.1-0.7-0.9-0.4-0.8 0.2-1.8 0.9-0.1 4.2 1.1 2.1-0.2 1.7-0.7 1.6-2.3 1.3-6.1 4.7-5 4.2 0 0.3-0.9 1.3-1.4 0.6-0.2 1 0.4 0.6 0.5 0.5 1.1 1.4-0.3 1.3-0.9 0.4-0.6 1.4-3.8 1.2-3.1-0.4-2.2-0.6-1.2-1.2-1.5-1.8-0.8-0.7-0.4-0.2-0.4-0.1-0.4-0.4-0.8-1.1-0.4-1.1-2.4-2.5-0.4-0.1-0.3 0.1-1 0.7-0.4 0.1-0.2-0.3-0.1-0.5 0.1-0.3 0.6-0.6 0.5-0.3 0.2-0.8 0-0.8-0.1-0.9-0.9-2 0-0.3 0.1-0.5 0.5-0.6 0.6-0.6 0.2-0.1 0.5 0.5 0.5 0 0.4-0.2 0.5-0.6 0.1-0.4 0-0.7-0.3-1.5-0.1-1.5-3.3 1.3-2 1.3-3.6 1-1.2 1.1-0.7 0.9-0.2 1.1-0.9 2.2-0.4 0.5-4 1.9-1.8-3.4-0.3-0.2-0.8-1.2-1.4-0.2-2.1 0.2 0 3-1.2-0.5-3.7 0.3-2.5-0.3-1 0.1-1.1 0.3-1 0.5-1.4 0.8-3.9 1.8-0.2 0.8 0 0.9-0.3 1.5-0.8 0.9-1.9 0.6-1.2 0.3-1.1 0.4-0.9 0.5-0.5 0.9-1.8 1-1.7 0.6-0.6 0.5-0.2 0.6 0.1 0.6 0.5 0.9 1.1 0.3 1.9-0.2 1.6-0.4 1-0.5 0.8-0.6 0.5-0.3 4.1-1.3 0.5 1.3 0.4 0.4 0.8 1.3 0.9 0.5 0.1 1-0.4 0.5-0.5 0.3-1.5 0.5-1.5-0.3-2.4 0.2-1.2 0.5-0.8 1-2.4 1.2-2.7 0-0.5-0.6-3.3 0.3-2.9-4.7-0.7-0.4-1-0.5-1.5 0.3-1-0.2-0.6-0.5-0.4-1.2-0.6-0.7-1-0.7-0.2-1 0.4-0.7 1-0.4 0.7 0.1 0.9 0.5 0.9 0.5 0.6 0.3 1-0.1 0.6-0.5 0.3-1 0.2-1.4-0.7-1-1.4-0.8-3.6-1.7-1.7-0.4-2.2-0.2-2.3-0.6-1 0.1-0.6 0.4-0.4 0.3-0.2 0.1-0.5 0-7-0.8-0.7 0.1-0.7 0.4-0.8 0.5-1.9-1.8-1.1 0.2-1 0-1 0.4-0.5 0.3-0.1 0.4-0.1 1.2-0.2 1-1.7 2.7-0.5 0.5-0.4 0.1-0.5-0.1-0.2-0.2-0.3-0.4-0.3-1.4-0.5-0.4-2.1 0.3-3.5-0.1-3.6-2.7-4.9-0.8-0.6-0.5-0.4-0.6-0.6-1.6-1.6-1.6-1.6-1-1.1-1.9-0.6-5.2-0.3-0.9-0.6-0.4-0.7 0.2-0.5 0.5-0.5 1.3-2 1.4-5.3 2.3-2.9 1.6-0.7 0.2-1.1-0.2-0.9-0.2-1.2-0.6-1.5-0.9-1.1-0.3-8-0.7-0.4-0.2-0.3-1.2-1.3-2.3-0.3-1.3 0-4.2 3-3.2 0.3-0.5 1.4-3.7 1.2-1.5 1.2-1.1 3-1.9 2.9-3 0.4-0.7 0.9-0.6 4.1-1.3 1-0.6 0.7-0.6 0.5-0.9 0.9-4.5 0.1-2.3 3.3-13.5 0.2-1.3-0.4-1.1 1.4-2.4-0.2-0.9 0.2-0.9 0.9-1.6 0.8-2.1 0.5-0.4 0.4 0.2 0.3 0.6 0.4 0.6 0.8 0 0.7-0.5-0.1-0.7-0.3-0.9 0-1 0.6 0.3 0.1-0.5 0.3-0.3 0.9-0.6-0.3 0 0.3-0.6 0.5-0.4 0.5 0 0.6 0.3 0.2-0.6-0.3-0.3-0.4-0.3-0.2-0.6 0.2-0.5 0.5 0 0.5 0.2 0.4 0.4 0.2-0.3 0.4-0.4 0.1-0.3 0.3 0.4 0.4 0.2 0.4 0 0.5-0.3-0.7-0.9 0.5-0.6 1.7-0.6 1.8-0.9 0.8-0.6 0.8-0.7 1.1-1.8 0.7-0.5 0.5 1.6 0.4-0.3 0.5-0.6 0.1-0.3 0.6-0.3 0.7-0.2 0.3 0.1-0.3 0.7 0.6 0.4 0.5-0.3 0.4-0.6 0.4-0.5 0.6-0.3 1.9 0 1.1-0.3 0.9-0.7 0.7-0.9 0.2-1.1-0.3-1.1 0.5-0.4 0.3-1.4 0.9-0.9 0.4-1.4 0.5 0 0.7 0.3 0.6 0.2 0.6-0.2 1.8-1.5 1.3 1.4 0.6 0.3 0.7-0.3 0.2-0.5 0.7-2 0.5-0.3 0.2-0.1-0.3-0.6-0.3-0.6-0.2-0.4 0.1-0.4 0.5 0.1 1 0.1 0.8-0.3-0.3-0.9 1.7-0.5 2-0.8 1.6-1.1 0.7-1.4-0.4-2.2 0-1.1 0.6-0.5 0.8-0.2 1-0.3 0.9-0.5 0.6-0.4 0.8-0.7 0.5-1.1 0.2-1.1-0.4-1.1 0.1-0.5 0.9-0.4 1-0.3 0.7-0.3 0.2-0.3 0.3-0.8 0.2-0.3 0.3-0.2 1-0.3 0.4-0.4 0.4-0.6 0-0.4-0.2-0.4-0.1-0.6 0.1-0.7 0.3-0.5 1.4-1.8 0.4-0.3 0.6-0.2 1.1-0.1 0.4-0.2 1.7-2 0.7-0.6 1.7-1 1.8-0.5 3.8-0.3 3 0.8 0.7-0.2 1-0.9 0.8-0.1 0.9 0.1 1.3 0 1.6-0.5 3.3-2 2.1-0.6 1-0.1 0.9-0.3 0.7-0.5 0.2-1 0.5-0.7 1.1 0 2 0.2 0.8-0.6 1.1-2 0.4-0.5 0.2-0.6-0.3-3.5 1.1-1.4 0.8-0.9 0.8-0.5-0.1-0.2 1-1.3 0.4-0.2 5.6-0.3 0.9-0.3 0.7-0.7 0.9-0.6 1.2-0.2 2.6 0.6 1.3 0.1 0.9-0.3 0.3 0.2 0.3 0.1 0.7 0 1-0.5 1.7-1 0.9-0.2 2.3 0.6 1.2 0.1 0.5-0.5 0.4-0.8 0.9-0.2 1.5 0.1 1.8-0.8 0.9-0.1 0.9 0.6 0.5-0.2 3.1-0.2 1 0.3 2.7 1.8 1.6 0.3 1.1 0.7 1.7 0.1 0.6 0.2 1.3 0.8 0.5 0.2 1 0.2 0.4 0.2 0.9 1 0.2 0.4 1.4 0.2 0.6 0.2 1.4 1 1.1 0.6 0.8 0 2.1-0.2 1.1 0 0.9 0.3 0.7 0.4 0.6 0.6 1.5 1.1 1.6 0.3 1.7 0 1.9-0.3 0.8-0.3 1.8-0.8 0.9-0.3 0.9 0 3 0.3 1.3 0 0.4 0.1 0.7 0.5 0.4 0.1 0.7-0.2 1.2-0.9 0.9-0.3 5.2-0.4 1.5-0.6 1.4 0.4 2.7 0.3 5.1 1.2 1.6 0.7 0.8 0.2 0.8-0.2 1.5-0.8 0.7-0.1 0.5 0.3 0.9 1.2 0.4 0.2 0.3 0.1 0.7 0.5 0.4 0.2 0.4-0.1 0.7-0.3 0.5 0 0.4 0.4 1.1 1.6-0.4 0.9 4.4 13.9 7.5 23.4 0.3 1.6-1 11.5 0.3 2.1 0.9 1.8 4.4 4.8 0.9 1.9 1.8 6.3 1.9 4.5 0.7 1 0.8 0.8 3 2.3 0.6 0.6 0.2 0.8 0.1 0.9z" id="ZAF1210" name="Limpopo" data-id="ZAF1210" data-name="Limpopo">
 </path>
 <path d="M637.9 466.5l-0.2-0.3-0.7-0.5-0.2-0.5-0.1-0.8-0.2-0.6-0.4-0.3-0.7-0.4-0.2-0.3-0.1-0.4 0-1-0.1-0.4-0.3-0.5-0.1-1 0.1-0.8-0.1-0.4-0.2-0.5-0.5-0.7-1.1-0.8-0.6-0.1-0.2-0.4-0.1-0.6-0.1-0.6-0.4-0.4-0.2-0.1-1.2-0.1-0.6-0.3-0.5-0.5-0.7 0.2-0.6-0.2-0.2-0.4-0.3-0.6-0.2-0.3-0.5-0.3-0.2-0.7 0-0.3-0.2-0.4-0.7 0.2-0.2 0.1-0.4 0-0.5-0.1-0.9-0.5-1.1-1-1.6-1-0.7-0.6-0.1-0.3-0.2-0.3-0.3-0.2-0.9 0-0.4 0.1-0.4 0.4-0.2 0.1-0.6-0.4-0.7-0.2-1.1-0.6-0.7-0.1-0.5-0.3-0.7-0.3-1.6 0.4-0.7 0-0.4-0.2-1.1-0.8-1.5-0.5-3.3-2.4-0.3-0.1-0.5 0-0.5 0.2-0.9 0.6-0.5 0.2-0.3 0-2.1 0-0.5 0.3-0.3 0.4-0.4 0.3-0.3 0.1-0.6-0.1-1.2-0.4-1.6-1-7.3-2-0.4-0.2-0.4-0.3-0.1-0.5 0.1-0.9-0.2-0.8-0.2-0.4-0.3-0.2-3-1.5-0.4-0.1-0.2 0.1-0.4 0.3-0.1 0.7-0.1 1.6-0.1 0.7-0.3 0.5-0.2 0.1-0.3 0.1-4.4-1-0.5-0.3-0.4-0.6-1.1-1.8-0.3-0.2-0.9 0-0.7-0.2-0.2-0.1-0.4-0.6-0.4-1.1 0-0.5 0.5-1.9 0.1-0.6 0-0.4-0.8-1.4-0.2-0.3 0.1-0.5 0.2-0.6 1.2-2.9 0.4-0.1 3.1 1.4 0.3 0 0.4-0.3 0.5-0.6 0.9-1.5 0.4-0.5 0.4-0.1 0.6 0.2 0.3-0.1 0.3-0.3 0.6-0.9 0.6-0.7 0.7-0.4 0.4-0.3 0-0.4-0.4-0.8 0-0.4 0.4-0.4 0.6-0.2 0.5-0.3 0.6-0.5 0.5-0.1 0.9 0.2 0.3 0 0.2-0.2 0.7-1.1 0.1-0.3 1-0.8 0.3-0.6 0.1-0.8-0.1-0.5-0.2-0.4-2-1.8-2.3-3-0.4-0.6 3.7-2.2 0.5-0.3 1.3-0.4 0.5-0.2 0.3-0.5-0.1-0.5-0.5-1-0.1-0.8 0-0.5-0.1-0.3-0.6-0.5-0.7-1 0-1.2 0.3-1.5 0.1-1.3 0.9-1.6 0.5-1.5 0.8-1.3 1.3-1.1 3.6-1.1 0.5-0.7 0-0.9 0.1-0.8 0.8-0.5-0.7-0.9-0.3-1.2 0-1.4 0.3-1.1 1-1 1.3-0.6 1.4-0.4 1.2-0.6 0.6-0.4 0.3-0.4 0.3-0.6-0.1-0.8 0.1-0.9 0.9-1.2 0.1-0.8-0.1-0.3-0.6-0.6-0.2-0.3-0.1-0.4 0.1-0.8-0.1-0.3-0.4-1.2-1.3-1.7-0.5-1.9-0.4-0.9-0.6-0.7-0.8-0.6-0.5-0.6-0.2-3.1-1.4-0.6-1.9 0-1.5-0.5-3.8-4.1-1.6-0.7-1.1-0.3-0.6-0.4-0.3-0.7 0-1-0.4-0.6-1-0.4-1.1-0.3-0.7 0-2.5-2.6-1.9-3.3-0.6-0.7-0.6-0.6 0.3-0.6 1-2.5 0.2-1 0.4-0.7 1.2-1.1 0.2-0.5 0.1-0.5-0.1-1.1 0.2-0.4 0.2-0.4 0.9-0.8 0.7-0.9 3.2-1.2 2.4-0.5 0.3 0.1 1.1 0.3 0.7 0 0.5-0.1 0.8-0.3 0.5-0.2 0.5-0.2 0.3-0.2 0.2-0.6 0-0.8-0.3-0.7 0-0.3 0.2-0.5 0.5-0.7 1-1.1 0.2-0.1 0.8-0.4 2.4-0.4 1.6-2 0.6-0.4 0.6-0.3 1.2-0.4 0.8-0.5 0.7-0.7 3.1-4 0.3-0.2 0.5-0.3 0.6-0.1 2.7-0.2 0.5-0.1 0.4-0.4 0.3-0.5 0.5-1.3 0.4-0.7 0.6-0.7 1.3-0.9 0.3-0.7 0.3-1.6-0.2-0.9-0.3-0.5-0.3-0.4-1-0.8-0.5-0.7-0.1-0.6 0-0.5 0.3-0.7 0.5-1.3 0.6-1 0.4-0.3 0.1-0.3 0.1-0.4-0.1-2 0.1-0.7 0.3-0.4 0.5-0.8 0.3-0.7 0.8-2.1 0.5-0.9 0.1-0.3-0.1-0.7-0.6-0.6-0.2-0.5 0-0.8 0.2-2 0-0.7-0.2-0.5-0.6-0.9-0.3-0.5 0-0.3 0.1-0.7 0.5-0.7 0.7-0.5 2.6-1.4 0.2-0.2 0.1-0.4 0.1-0.6-0.2-1.3-0.2-0.6-0.2-0.4-0.2-0.2-1.6-0.5-0.2-0.1-0.2-0.3 0.1-0.4 0.2-0.7 0-0.4-0.1-0.3 0.2-0.5 2.2-1.1 1.2 0.5 0.5-0.2 0.3-0.4 0.4-0.6 0.5-1 0.3-0.9 0.4-0.8 0.4-0.3 0.6-0.2 0.8-0.2 1.9-0.5 0.6 0 0.7 0.4 2.5 0.5 0.6-0.1 0.8-0.7 0.7-0.3 3.6 1 1-0.2 0.3-0.7 0.4-0.3 2.5-1 0.4-0.2 1.4-1.1 0.9-0.6 0.6-0.1 1-0.5 0.7-0.2 1.1 0.1 0.2-0.2 0.5-0.5 0.5-0.4 0.7-0.1 0.8 0.2 0.4 0.3 0.1 0.9 0.2 0.5 0.7 0.4 2.8-0.4 3.3 0.5 1-0.1 0.7-0.8 0.4-0.2 0.6-0.3 1.3-0.4 0.8-0.1 0.6 0 1.6 0.5 0.6 0.2 0.6 0.5 0.3 0 1.7 0.9 1.1 0.7 0.7 0.3 0.4-0.1 0.4-0.3 0.6-0.4 1.8-0.4 0.7 0.4 0.5 0.8 1.2 0.9 1.2 0.2 3.7-1 2.1-0.6 2.1 0 1.7-1.4 2.7-3.4 9.9 3.5 3.2 0.6 20.4 0.3 0-0.7-0.1-0.6-0.2-0.6-0.4-0.5-0.2-0.8-0.3-8.1 1.6-9.1 0.8-4.6-0.1-1.5 3.1 0 0.7 0.2 1.2 1.1 0.7 0.3 1.4 0.3 2.3-0.2 1.4 0 6 1 5.4-0.2 19.7-0.5-0.6 2.1-0.7 6.8-0.9 3.3-0.1 1.1-0.2 1.1-1.7 2.3-0.1 0.5-0.2 1.5-0.1 0.4-0.4 0.8-0.2 1.4-4.9 13.9-3.2 15.3-0.1 1.2-0.1 0.5-0.4 1.3-0.1 0.5 0 0.7 0.2 1 0.1 0.5-2.2 13.1-0.3 1-3.9 6.2-0.3 0.8-0.2 1.2-0.5 1.1-0.8 0.8-1 0.3 0.1 0.6 0.2 0.1 0.6-0.3 0.4 1.8-0.5 2-0.8 1.9-0.4 1.7-0.6 1-4 4.1-0.6 0.5-1.5 0.7-0.6 0.4-0.4 0.6-0.9 1.5-0.6 0.8-5.1 4.4-1.3-1.1-1.8 0.3-1.1 1.2 1.1 1.4 0.3-0.4 0.7-0.6 0.7-0.4 0.8-0.1-0.9 1.7-1.8 1.6-5.8 3-1.6 0.4-1.8-0.1-2.1-0.4 0.2 0.8 0.1 0.2 0.3 0.1 0 0.4-1.4 0.8-9 10.4-2.2 2-0.7 0.4-0.3 0.2-0.1 0.3-0.2 0.9-0.2 0.2-0.6 0.4-1.8 2.6-0.6 0.6-1.6 0.9-0.6 0.6-0.3 0.5-0.2 1.2-0.6 0.3-0.4 0.4-0.3 0.4-0.4 0.9-6.1 8.5-6.1 12.2-0.5 2.1 0.5 2.1-1.8 0-0.5 0.4-0.2 1.4 0.7-0.3 1.6-0.6 0.6-0.5 0 0.4-0.3 0.7-0.4 0.7-1.2 1.4-4.8 4.5-1.4 1.7-2.2 3.9-2.6 6.1-6.7 12-0.9 2.2-0.2 0.8-0.4 0.7-2.2 2.4-7.9 14.8-1.3 1.9-0.7 0.8-0.7 0.3-0.6 0.5-1.5 3.2-4.3 5.8z m-22.9-53.9l-2.2-0.6-3.5-1.9-1.2-0.4-0.7 0-1.8-1.5-0.4 0.3-0.9 1.1 0.2 0.9 0.5 0.7-0.2 0.9-1.7 2.3-0.2 1.6 0.1 1.9 1.9 1.6 0.9 1.1 0.6 1.5 0.1 1.2 1.2 4 1.9 2.3 2.1 5.8 2.3 0.6 1.1 0 2.1-0.7 1.4-0.2 1.6 0.3 1.2 0.7 1.4 1.1 1 0.4 1.3 0.2 1.6 1.1 0.6 0.1 0.4-0.1 0.8-0.6 0.5-0.5 0.4-0.9 0.2-1.5 0.2-0.8 0.1-0.7 0.8-0.1 0.1-0.5 0-0.7-0.2-0.6 0-0.3 0.1-0.3 0.2 0 0.5 0.1 0.5 0 0.2-0.2 0.2-0.5 0.4-0.4 0.4 0.1 0.4 0.3 0.4-0.1 0-0.5-0.1-0.6-0.3-0.3-0.3-0.4-0.8-0.7-0.8-0.5-0.5-0.5-0.1-0.6 0.1-0.6 0.4-0.4-0.1-0.5-0.7-0.1-0.3 0-0.2 0.2-0.3 0.4-0.2 0.1-0.6-0.4-0.4-0.4 0-0.7-0.2-0.3-0.2-0.4-0.6-0.4-0.3-0.2-0.8-0.1-0.2-0.1-1.2-1.3-0.2-0.2 0.3-0.5 0.5-0.2 0.6 0.2 0.3-0.2-0.2-0.3-1-1-0.4-0.5-0.7-1.2-0.4-0.4-0.8-0.3-0.5-0.4-0.5-0.7-0.5-2.1-0.3-0.5-0.8-0.6-1.5 0.5-0.7 0-3.4-0.4z" id="ZAF1216" name="KwaZulu-Natal" data-id="ZAF1216" data-name="KwaZulu-Natal">
 </path>
 <path d="M615 412.6l3.4 0.4 0.7 0 1.5-0.5 0.8 0.6 0.3 0.5 0.5 2.1 0.5 0.7 0.5 0.4 0.8 0.3 0.4 0.4 0.7 1.2 0.4 0.5 1 1 0.2 0.3-0.3 0.2-0.6-0.2-0.5 0.2-0.3 0.5 0.2 0.2 1.2 1.3 0.2 0.1 0.8 0.1 0.3 0.2 0.6 0.4 0.2 0.4 0.2 0.3 0 0.7 0.4 0.4 0.6 0.4 0.2-0.1 0.3-0.4 0.2-0.2 0.3 0 0.7 0.1 0.1 0.5-0.4 0.4-0.1 0.6 0.1 0.6 0.5 0.5 0.8 0.5 0.8 0.7 0.3 0.4 0.3 0.3 0.1 0.6 0 0.5-0.4 0.1-0.4-0.3-0.4-0.1-0.4 0.4-0.2 0.5-0.2 0.2-0.5 0-0.5-0.1-0.2 0-0.1 0.3 0 0.3 0.2 0.6 0 0.7-0.1 0.5-0.8 0.1-0.1 0.7-0.2 0.8-0.2 1.5-0.4 0.9-0.5 0.5-0.8 0.6-0.4 0.1-0.6-0.1-1.6-1.1-1.3-0.2-1-0.4-1.4-1.1-1.2-0.7-1.6-0.3-1.4 0.2-2.1 0.7-1.1 0-2.3-0.6-2.1-5.8-1.9-2.3-1.2-4-0.1-1.2-0.6-1.5-0.9-1.1-1.9-1.6-0.1-1.9 0.2-1.6 1.7-2.3 0.2-0.9-0.5-0.7-0.2-0.9 0.9-1.1 0.4-0.3 1.8 1.5 0.7 0 1.2 0.4 3.5 1.9 2.2 0.6z m22.9 53.9l-3.4 4.5-1.3 0.9-1.5 3.3-2.4 2.9-6.8 6.5-0.8 0.4-2.9 0.9-1 0.5-1 0.7-0.3 0.9-2.9 3.6-1 0.4-0.4 0.3-0.3 1.1-0.4 0.4-0.3 0.3-0.3 0.1-1 0.3-0.8 0.7-1.5 1.6-0.8 0.5-1.8 0.6-1.2 0.9-0.8 0.1-0.8 0.2-0.5-0.1-0.2 0.1-0.3 0.3 0.3 0.8-0.9 2-1.4 0.8-0.2 0.4-0.2 1.3-0.5 0.7-1.5 1.1-1.5 1.7-0.8 1-0.3 0.9-0.1 0.5-0.8 1.5-0.7 0.4-0.3 1.1-3 1.5-0.5 0.6-0.2 0.9-0.4 1-1.3 2-5.7 6.2-4.8 6.6-2.5 1.6-0.4 0.5-6.2 5.8-1.1 1.6-0.4 0.4-0.7 0.3-0.4 0.4-1.8 1.8-0.8 1.1-0.3 1-0.3 0.7-5.2 4-1.2 0.7-1.5 1.3-0.7 0.4-0.2 0.8-1.1 0.9-2.2 1.2-2.2 1.6-1.4 0.8-2.6 0.8-1.1 1.1-0.9 1.5-0.4 1.6-0.4 1.2-1 1.2-4.8 4-1.4 0.5-0.4 0.4-0.6 0.9-0.6 0.4-0.2 0.8-0.2 0.3-2.2 1-0.9 1-0.5 0.3-0.9 0.1-2.3 0.9-0.8 0.5-4.1 4.4-1.6 1.3-3.3 1.3-0.5 0.4-0.2 0.1-1.1 1.6-0.7 0.3-0.4 0-0.5-0.3-0.3 1.4-1.1 1.2-2.5 2.1-1.2 0.7-0.2 0-0.4-0.4-0.2 0.2-0.2 0.6-4.9 3.4-0.4 0.6-3.5 1.7-0.8 0.5-0.3 0.4-0.3 0.8-0.2 0.5-0.4 0.3-0.4 0.2-1 0.1-4 2.2-0.9 0.2-1.1 0.1-1 0.3-2.6 2.3-1 0.3-2.2 0.3-1.6 0.9-4.4 1.9-0.6 0.1-0.3 0.3-0.3 1-0.3 0.2-1 0.2-4.5 2.2-1.8 0.5-1.9 0.1-4-0.5-1.2 0-0.9 0.4-0.8 0.2-1.1-0.5-1.7-1-6.2-1.3-6.4-0.3-4 0.6-3.8 1.2-3.5 1.7-1.5 1.2-1.2 1.5-0.9 1.8-0.7 3.2-0.2 1.3 0.2 0.6 1 0.4 0.2 0.5 0.2 0.4 1.3 1 0.9 1.4 0.4 0.5-0.1 0.4-0.2 0.4-1.5-0.5-1 0.3-0.9 0.6-1.2 0.3-1.5-0.1-2.4-0.8-1.4-0.2-2.3 0.3-1.1 0-1.3-0.8-1.6-0.3-1.6-1.1-1.7-0.7-4-1.1-4.2-0.1-4.2 0.6-2.7 0.8-1.1 0.6-0.7 0.9 0.6 2.3-0.5 1.1-0.8 0.9-0.5 0.4-2.2 2.1-0.3 0.8 0.2 0.7 0.4 0.3 0.5 0.3 0.2 0.4-0.2 0.5-0.8 0.6-0.3 0.5-0.3 0-0.6-0.9-1-0.3-3.1-0.1-2.6-0.7-1.1-0.1-2.9 0.5-0.9-0.1-4-1-2-1.1-1.6-1.5-0.9-0.3-5.7-0.7-0.8-0.4-0.6-0.5-3-1.3-8.3-0.8-1-0.2-2-0.8-5-0.5-8-1.9 0-1.7 0-0.8 2.2-3.5-5.8-2.8-0.8-1.5-1.8-0.7-1.1-0.2-1.2 0.5-4.2-0.4 1.7-1.9 0.6-0.8 1-1.2 8.4-3.8 0.7-1.3-2.4-3.1-0.9-3.8-2.4-2-3.4-1.5-8.2-1.9-10.7-0.5-5.8 0.8-7.2-0.2-0.6-2.1 0.4-2 7.9-12.9 0.7-2.2-0.7-2.3 1.5-2.2 0.2-1.7 2.2-3 1-0.6 1.8-0.6 0.6-1.2 0-1.9-0.2-1.4 0.1-0.2 0.8 0.8 0.3 0.8 0.3 0.6 0.6 0.6 0.5 0 0.9-0.3 2.4-1.1 3.1-0.2 3 0.2 2-2.2-1.9-1.8-0.8-1.9-1.6-1.8 0.2-2.6-0.3-1.9-0.6-2.4-1.2-2.1 0-2.3 0.3-2.1 2.1-1.8 1.7-2 3.4 0.3 2.2-1.1 7.2-0.9 1.6-1 1.8-3.7 2.2-1.7 1.6-0.7 4.1 1.5 1.9 0.3 6.6-2.9 1.1-1.7 1.8-1.1 0.5-1.4-0.1-0.8 0-1.3 0.5-0.7 0.2-1 0-0.7 0.4-0.7 0.8-0.4 0.8-0.7 1.1-1.7-0.3-1.4-1-1.4-1.3-0.7 0.2-1.7 0.6-0.7 0.3-1.1 0.4-0.4-0.5-1.5 0.4-1.7 1.2-0.5 2.8 0 4.3-1.6 7.7-0.8 0.6-8.3 0.5-3 0.9-1.4 0.7-2.7 0-1.1 6.4-0.2 3.2-0.5 2-1.1 1.8-0.5 1.2-1.3 1.8-0.9 2.6-1.9 0.7-0.3 3.7-0.8 7.1-3.4 6.3 1.4 1.3-0.9 0.4-2.7 1.6-1.9 1.1-1.7 0.2-1.3 0.7-1 0.6-1.2-0.3-1.9 1.3-2 0.3-1.3-0.4-2.1-0.4-1.4 0.1-1.1 1.1-1.4 0.3-1.2-0.9-1.4-0.9-1.1-0.7-7.7 1.8-0.2 0.7 0 2.7-0.3 1.5 0.2 0.3 0.5 0.1 1.3 0.2 0.6 0.4 0.3 1.2 0.2 0.3 0.1 0.9 0.6 0.6 0.2 1.3 0.2 0.9-0.4 1.4-0.8 3-2.2 1-1.1 0.6-0.7-0.2-0.9 0-0.6 0.4-0.5 0.6-0.3 0.7 0.2 1.4 1.1 0.9-0.4 1.4-1.3 0.7-0.3 2.7-0.8 0.6 0 1.6 0.6 1.3 0.1 0.2-0.8 0-1 0.3-0.5 1.2 0.3 0.6 0.6 0.4 0.7 0.5 0.6 0.9 0.4 0.9 0.2 0.8 0.4 0.3 1.1 0.6 0.8 1.5 0.1 6-1.1 0.3 0.1 0.4 0.5 0.7 0.9 0.2 1.4 0.2 0.4 0.5 0.5 2 1.1 0.8 0.2 2.1 0 1 0.1 0.8 0.4 0 0.3-0.4 0.5 0.4 0 1-0.5 0.6-0.1 0.6 0.4 0.5 0.1 0.4-0.1 0.5-0.5 0.3-0.1 0.3-0.1 0.8 0.1 0.4-0.2 1-0.7 0.3-0.3 1.3 0.1 0.7 0.7 0.6 0.7 0.8 0.4 0.5-0.2 0.6-0.8 0.8-0.2 1.3 0 0.6-0.2 0.5-0.5-0.4-1 0.5-0.9 0.8-0.7 1-0.3 1.8 0.1 0.4-0.2-0.3-1-1-1-0.3-0.6 0.5-0.3 2.2-0.4 1 0.3 0.9 0.3 0.8 0.1 0.9-0.7 0.1-0.4-0.3-0.5 0-0.4 0.7-0.1 1.9 0.1 0.6-0.6 0.4-0.2 0.8-0.1 0.2 0 0.2-0.4 0.4 0.2 0.4 0.5 0.1 0.1 1 0.1 0.6-0.1 0.4-0.2 0.7-0.8 0.2-0.6-0.2-0.3-0.6-0.1-0.4-0.3-0.2-0.5 0.4-0.5 0.3 0 1.2 0.6 0.4 0.1 1-0.6-0.7-0.6-0.9-0.6 0.1-1 1-0.3 1 0.1 1-0.1 0.7-1-0.3-0.5-0.4-0.2-0.4 0-0.5 0.4-0.4-1.1-0.6-1.1 0.6-0.3 0.7-0.2 1 0.3 0.4 0.1 0.4-0.1 0.9-0.4 0.8 0 0.3 0.4 0.4 1.3 0.5 0.8 0.7 0.6 1.7 0.8 0.3 1.1 1.2 1.2 1.1 1.6 0.2 0.5 0.1 1 0.3 0.4 2.8 2.2 2.5 2.9 1.4 0.9 1.6 0.5 2 0.2 0.4-0.1 0.9-0.4 0.4-0.1 0.6 0.2 0.7 0.7 0.5 0.4 0.9 0.4 1 0.3 5.5 0.5 1.1 0.5 0-1-0.1-0.9-0.1-0.9 0.3-1.1 0.3-0.5 0.8-0.5 0.3-0.3 0.4-0.5 0.2-0.3 0.8-2.5 0-0.5-0.1-0.5-0.6-0.9-0.1-0.5 0.4-0.6 3.9-3.1 0.7-0.7 0.3-1.2-0.1-1.2-0.6-0.5-0.7-0.3-0.5-0.8 0.1-1 0.7-0.8 1-0.6 0.9-0.3 1.3-0.2 0.5-0.2 0.3-0.3 0.6-0.9 0.4-0.3 0.7-0.7 1.2-2.3 0.9-0.8 1.1-0.2 2.3 0.4 1.1-0.4 2-1.3 0.8-0.1 0.8 0 2.2 0.9 1.6 0 4.2-1.6 3-0.6 3-1.3 5.4-3.5 1.8-1.2 0.4 0.6 2.3 3 2 1.8 0.2 0.4 0.1 0.5-0.1 0.8-0.3 0.6-1 0.8-0.1 0.3-0.7 1.1-0.2 0.2-0.3 0-0.9-0.2-0.5 0.1-0.6 0.5-0.5 0.3-0.6 0.2-0.4 0.4 0 0.4 0.4 0.8 0 0.4-0.4 0.3-0.7 0.4-0.6 0.7-0.6 0.9-0.3 0.3-0.3 0.1-0.6-0.2-0.4 0.1-0.4 0.5-0.9 1.5-0.5 0.6-0.4 0.3-0.3 0-3.1-1.4-0.4 0.1-1.2 2.9-0.2 0.6-0.1 0.5 0.2 0.3 0.8 1.4 0 0.4-0.1 0.6-0.5 1.9 0 0.5 0.4 1.1 0.4 0.6 0.2 0.1 0.7 0.2 0.9 0 0.3 0.2 1.1 1.8 0.4 0.6 0.5 0.3 4.4 1 0.3-0.1 0.2-0.1 0.3-0.5 0.1-0.7 0.1-1.6 0.1-0.7 0.4-0.3 0.2-0.1 0.4 0.1 3 1.5 0.3 0.2 0.2 0.4 0.2 0.8-0.1 0.9 0.1 0.5 0.4 0.3 0.4 0.2 7.3 2 1.6 1 1.2 0.4 0.6 0.1 0.3-0.1 0.4-0.3 0.3-0.4 0.5-0.3 2.1 0 0.3 0 0.5-0.2 0.9-0.6 0.5-0.2 0.5 0 0.3 0.1 3.3 2.4 1.5 0.5 1.1 0.8 0.4 0.2 0.7 0 1.6-0.4 0.7 0.3 0.5 0.3 0.7 0.1 1.1 0.6 0.7 0.2 0.6 0.4 0.2-0.1 0.4-0.4 0.4-0.1 0.9 0 0.3 0.2 0.2 0.3 0.1 0.3 0.7 0.6 1.6 1 1.1 1 0.9 0.5 0.5 0.1 0.4 0 0.2-0.1 0.7-0.2 0.2 0.4 0 0.3 0.2 0.7 0.5 0.3 0.2 0.3 0.3 0.6 0.2 0.4 0.6 0.2 0.7-0.2 0.5 0.5 0.6 0.3 1.2 0.1 0.2 0.1 0.4 0.4 0.1 0.6 0.1 0.6 0.2 0.4 0.6 0.1 1.1 0.8 0.5 0.7 0.2 0.5 0.1 0.4-0.1 0.8 0.1 1 0.3 0.5 0.1 0.4 0 1 0.1 0.4 0.2 0.3 0.7 0.4 0.4 0.3 0.2 0.6 0.1 0.8 0.2 0.5 0.7 0.5 0.2 0.3z" id="ZAF1926" name="Eastern Cape" data-id="ZAF1926" data-name="Eastern Cape">
 </path>
 <circle cx="449.9" cy="416.3" id="0">
 </circle>
 <circle cx="462.7" cy="237.7" id="1">
 </circle>
 <circle cx="557.7" cy="209.2" id="2">
 </circle>
</svg>