<?xml version="1.0"?>
<!--
************* Copyright (c) 2017 Pareto Softare, LLC DBA Simplemaps.com *******************		
************* Free for Commercial Use, full terms at  http://simplemaps.com/resources/svg-license ************
************* Attribution is appreciated! http://simplemaps.com ***************************
-->
<svg baseprofile="tiny" fill="#7c7c7c" height="867" stroke="#ffffff" stroke-linecap="round" stroke-linejoin="round" stroke-width="2" version="1.2" viewbox="0 0 1000 867" width="1000" xmlns="http://www.w3.org/2000/svg">
 <path d="M724.3 285.4l-0.3 0.5-0.1 0.7 0 0.9-0.1 0.5-0.7 1.9-0.1 1 0.2 1 0.5 0.7-0.1 0.5-14.7 18.9-1.1 1.1-1.4 0.6-36.2 5.9-0.5 0.2-2.2 0.3-0.9 0.9-0.5 1.3 0.1 1.6 0.6 2.9-0.3 3.9 0.3 1.5 0.7 1.2 1.7 1.9 0.6 1.1 0 1-0.3 1.2-0.1 1.1 0.4 0.8-0.3 0.6-0.6 0.9-0.6 0.5 0-0.1-3.7 0.3-1.8 0.6-2.9 2.1-4.4 2.1-1.5 0.3-0.9-0.5-1.5-1.6-1.1-0.4-1.2 0-0.8 0.3-1.2 1.2-1.7 1-3.7 1.3-1.3 1-0.6 1.1-1 3.4-0.3 2.1-0.4 0.8-0.1 0.7 0.3 0.7 2.6 3.3 1.3 0.5 1.3 0 1.1 0.5 0.4 1.6-0.3 1.6-0.9 1.3-1.3 0.8-1.6 0.2-0.6-0.3-0.7-0.7-0.5-0.2-0.5-0.1-1.2 0.1-0.6 0-2.3-0.9-3.5-1.9-0.7-0.2-3.4-0.1-1-0.1-0.8-0.4-1-0.9-1.6-1.7-0.8-0.4-7 0.1-2.1 0.6-1.8 0.8-1.4 0.9-0.9-1.7-1.4 0.2-1.5 0.7-1.2-0.1-0.9-0.4-0.6 0-0.4-0.2-0.2-1.2-0.2-0.9-6.9-12.8-2.2-2.8-5.1-2.8-0.8-1-0.3-1.7-1-1.7-1.1-1.4-1.1-1-3-1.6-1.2-0.9-0.5-1.3-0.2-2.5-0.8-0.7-3 0.5-1.8-0.5-4.2-2.3-1.1-0.9-1.5-3.2-1.2-0.9-2 1.2-0.2-0.8-1-1.7-0.4-0.5-0.8-0.7-0.8-0.5-0.9 0-1.1 0.6-0.9-1.4-0.7-4.2-1-0.9-1.4-0.4-0.7-1.1-0.9-6.1-0.2-0.9-1.3-1.1-0.5-0.8 0.3-0.4 0-0.9-1.4-5.2-0.5-0.8-1.3-1.2-0.6-0.9-1-2.6-0.5-0.7-0.4-1.3-0.1-4.7 0.2-1.6 4.4-6.4 0.3-0.4 1.9-1.5 0.5-0.3-0.7-3.2 0.4-1.9 0.8-1.3 0.8-0.9 1.6-3.3-0.1-3 0.1-0.9 0.2-0.5 0.7-1.1 0.2-0.8 0-1.1-0.9-4.6 0.1-0.9 1.2-1.7 1.1-2.1 0.3-0.9 0.1-0.9-0.2-1.9 0.1-0.8 0.5-0.8 1.5-1.6 0.3-0.9 0.2-0.9 0.9-1.8 0.2-0.9 0-3.9 0.4-2 0.8-2 1.1-1.9 1.4-1.5 0.6-0.9 0.7-1.9 1.2-2.1 0.4-0.5 0.5-0.2 1.1 0.1 0.5-0.1 1.2-1 1.3-1.3 1.1-1.7 0.5-1.7-0.5-0.6-2-1.5-0.4-0.9 0.1-1 0.5-1.8-0.1-1.1-2-2.3-1.2-1.6 0-1.2 0.4-0.8-0.7-1.3 0.3-0.8 0.5-0.8 0.4-1 0.1-1.1-0.1-1-0.6-1.7-0.8-1.4-0.7-1.6-0.2-2.1 0.2-1.8 0.5-1.4 0.3-1.4-0.5-1.7-1.1-0.6-0.2-0.5-0.2-0.9-0.2-0.4-2.9-2.5 0.8-1.6 2.1-2.5 1.3-2.6 0.8-3.4 0.2-7-0.6-6.2 0.3-1.9 2.7-5.6 0.8-3.7 0.8-1.6 1.6-0.6 0.2-0.4-2.3-2.3-0.2-1.2-0.5-0.6-0.7-0.2-0.9-0.6-1.2-1.7-0.5-1.7-0.1-4.1-0.2-0.9-0.7-1.8-0.2-0.8-0.4-1.2-1.6-1.9-0.3-0.8 0.4-0.4 1.9-0.7 0.6-0.6-2.7 0-1-0.4-0.5-1.1 0-1.5-0.2-1.1-0.3-1-0.6-0.9-2.1-1.5-1-1-0.4-1.4 0.3-2.8-0.2-1.6 0.7 1.1 0.2 1.7-0.5 1.3 1.8-0.3 3.3-1.6 2.3-0.6 0.7-0.4 0.8-0.1 0.8 0.4 0.6 0.5 0.5 0.4 0.6-0.1 0.9-0.5 3.2 3.3 1.5 0.7 1.1-2.3-1.6-0.5 0-1.3 1.1-2.9-0.3-1.5-0.9-1.3 0-1.4 0.5-1.1 0.7-0.9 1.7-1.5 0.7-0.9 0.9-2.1 0.7-1.1 2.4-1.8 1.2-1.1 1.2-3.7 1.6-1.7 3.6-3 1-1.7 0.7-2 0.7-1.6 1.4-0.6 1.5-0.5 3.7-2.3 1-0.8 1.3-2.4 1.9-5.7 3.5-5.8 5.1-13.1 0.2-1.6-0.5-1.4-1.3-1.7-1.8-1.7-5.5-3.4-3.5-2.6-1.8-1.1-2-0.4-1.5-0.6-2.6-2.1-1.3-0.2 1.9-0.7 10.2-1.6 28.2-4.3 17.9-2.8-0.6 1.9-2.6 5-0.9 1.5-0.3 0.3-1.2 1.1-1.1 0.8-2.6 0.6-3.3 1.2-1.1 0.7-0.8 0.9-1.1 1.4-2.4 5-0.9 1.5-0.9 0.9-0.5 0.7-2.7 6.6-1.9 8.4-2.8 7.2-0.5 0.8-1.1 1.3-0.3 0.2-0.8 0.4-2.6 0.8-1.1 0.6-0.5 0.7-1.9 6.9-0.3 0.4-0.4 0.1-1 0-0.5 0.1-0.2 0.3-0.2 0.5-0.3 1-0.1 0.5-0.2 1.8 0.4 0.9 0.5 0.5 1.1 0.8 1.6 0.7 0.8 0.3 0.8 0.5 0.6 0.5 0.6 0.6 0.7 0.5 0.8 0.4 0.8 0 0.7-0.2 0.5-0.2 0.5 0 1 0.5 0.4 0.2 1 1.4 0.6 1.1 0.6 0.7 0.4 0.2 1.4 0.4 0.3 0.2 0.8 0.9 0.4 0.2 0.4-0.1 0.8-0.4 0.3 0 0.3 0.3 0.2 0.5 0.1 1 0.5 1.3 0.2 0.6-0.4 2.1-0.1 0.5 0.1 0.9 1.5 5.2-0.2 0.8-0.4 1-0.2 0.4-0.4 0.3-0.9 0.3-0.3 0.2-0.3 0.9-0.2 2.1 0.2 1.5 0.2 0.7 0.7 1.4 1.8 4.9 0.4 0.7 0.5 0.4 1 0.8 0.3 0.2 0.9-0.1 0.8-0.4 1-0.1 1 0.1 0.9 0.3 1.3 1.1 0.2 0.4 1.4 2.7 0.5 0.6 1 0.5 0.3 0.3 0.5 0.6 0.5 0.3 1 0.1 0.4 0.3 0.4 0.5 0.5 1 0.4 0.4 0.6 0.3 1 0.1 0.4 0.2 1.1 0.6 0.5 0.1 1.4-0.3 0.4 0.1 1.8 0.5 1.5 0.3 0.9 0.3 1.5 0.9 2.7 0.9 1.6 0.1 0.8 0.4 0.6 0.6 0.3 0.2 1.5-0.2 1.5 0.2 0.5 0 1-0.2 0.9 0.2 0.6 0.5 0.2 0.4 0.9 1.5 1 1.5 1.1 1.2 1 0.7 0.4 0.6 0.2 0.7 0.4 1.4 0.3 0.7 0.4 0.4 0.8 0.3 1 0.3 1.2 0.5 0.7 0.5 0.4 0.8 1 3 0.1 0.8-0.4 2-2.2 5.6-0.1 0.5 0 0.6 0.3 1.5 1.4 3.3 0.9 1.5 0.1 0.7-0.3 0.4-1.4 1.1-0.6 0.7-0.5 0.7-0.5 0.8-0.3 0.9-1.4 6.5-0.3 0.9-0.5 0.6-1.4 1.1-0.7 0.4-0.5 0.1-0.9 0.1-1.7-0.2-0.5-0.1-1.3-0.6-0.9-0.4-0.5-0.1-3.9-0.2-1.9 0.2-0.5 0.2-1.6 0.7-0.7 0.5-1.3 1.1-2.7 2.7-1 0.7-2.1 0.8-3 1.6-2.7 0.6-1.1 0.5-0.8 0.6-0.4 0.6-1.1 1.2-0.5 0.4-2.5 1.4-0.6 0.6-0.2 0.7-0.2 2.8-0.3 0.8-0.3 0.5-0.7 0.5-0.5 0.7-1.4 2.4-0.1 0.5 0.1 0.7 0.5 1 0.3 0.6 0.6 0.8 0.2 0.4-0.5 1.1-3.4 4.6-0.4 0.8-0.2 0.5-0.4 2-0.4 0.5-0.5 0.2-0.5 0.1-1.8-0.2-0.5 0-0.5 0.3-0.6 0.9-0.9 0.8-10.4 6.6-0.4 0.5-0.2 0.6 0.1 10.2-0.1 0.6-0.3 0.4-3.8 3.4-1.6 2-0.8 1.2-0.1 0.4 0.1 0.3 0.7 0.4 6.5 2.3 0.9 0.6 7.6 7.6 0.4 0.3 0.9 0.2 1 0 1.4-0.2 0.9 0.2 4 2.2 1 0.1 0.4-0.2 0.2-0.4 0.1-0.5 0.2-2.3 0.4-2.2 0.1-0.5-0.1-0.6-0.8-1.1-0.6-0.7-1-1.4-0.3-0.6-0.3-0.9-0.1-0.9 0.1-0.7 0.2-1-0.2-0.6-1.6-2.4-0.5-1.4 1-1.1 1.4-1 23.5-12.6 0.7-0.1 0.5 0.1 0.4 0.2 1.4 1 2.8 1.6 3.3 1.1 0.8 0.4 1.6 0.9 0.4 0.4 0.5 0.7 2.3 4.5 0.5 0.7 0.3 0.2 1.9 1.3 0.5 0.4 0.5 0.6 2.3 3.9 0.3 0.9 0.2 0.9 0.3 4.7-5 32.7 0.6-0.5 0.8-1.5 2.5-0.9 0.4-0.6 0.1-0.8 0.3-1.1 0.5-0.9 0.6-0.7 2.9-2.1 1-1.2 0.4-1.9 0.6-0.7 0.6-0.3 1.2-0.2 10.6 0.1 1.4 0.3 1.4 0.8 26.6 19.2 0.3 0.4 0.3 0.9 0 0.6-0.1 0.4z" id="ZMB514" name="Luapula" data-id="ZMB514" data-name="Luapula">
 </path>
 <path d="M875.9 79.8l3.3 10.3 4.3 9.4 0.7 8.7-9.3-0.7-8.6-2.2-8.5-0.7-10.1 1.5-7.1 3.6-5.7 3.6-6.5 0.7-6.4-2.1-2.2 5.8-5.7-2.7-6.4 0.5-5.7-3.6-4.3 2.9-5 4.3-4.3 2.2-2.2 5.1-5.7 7.2 6.4 6.6 6.5 10.9 3.6 9.4 2.8 10.2 6.5 4.4 8.5 3.6 2.9 2.9 0.3 21.7-5.5 1.1-0.4-0.3-0.4-0.7-0.6-0.6-1-0.2-0.8 0.5-0.7 1.6-0.5 0.3-1.1 0.3-2.9 1.6-1.6 0.5-2.2 0.3-0.9 0.3-0.4 0.9 0.6 0.7 0.1 0.6-0.4 0.2-1.3 0-0.6 0.3-0.2 0.6 0.3 3.5-0.3 0.9-0.6 0.7-1.7 1-0.6 0.7-1-0.8-1.6-0.6-1.8-0.3-1.4-0.1-1.6 0.3-1.2 0.6-3.8 2.8 0.2 0.6 1.1 1.1 0.5 0.7 0.2 0.6 0.3 0.3 1 0.1 0.7-0.2 0.6-0.3 0.7 0 0.6 0.5 0.4 1.9-1.4 0.6-3.1-0.1-0.7 0.8-0.1 0.9 0.4 0.8 1.8 1.9 0.3 0.5-0.5 1.1-0.4 0.5-0.6 0.5-0.5 0.6-0.2 1.1-3.8 3.3-1.3 0.6-1.9 0 0.8-0.9 0.3-0.8-0.1-1-0.5-0.9-0.9-0.8-0.4 0.8-0.1 2.1-1.3 0.4-1.5-0.5-0.8-1 0.9-1-1.7 0-1.1 2.1-0.8 2.8-0.7 2-0.8 0.4-2.4 0.9-0.9 0.1-0.6 0.2-0.9 0.5-1 0.4-1.3 0.1 1.7 1.8-0.4 0.8-1.2-0.2-1-1.2-0.8 0.3-0.8 0.8-0.4 1-0.2 0.9-1.6 3-6.9 8.8-1.9 3.7-0.7 2.2-0.5 0.8-2 1.8-0.4 0.3-0.9 1.1-0.5 0.3-1.9-0.3-1-0.1-0.8 0.4-0.7 0.8-0.5 0.9-0.5 1.7-0.4 0.8-0.5 0.6-0.7 0.4-1.1 0.2-1.5 0.6-0.8 1.6-0.6 2-0.9 1.8-3.2 2.6-2.5 0.9 0.1-0.4 0-0.6-0.3-0.9-0.3-0.4-26.6-19.2-1.4-0.8-1.4-0.3-10.6-0.1-1.2 0.2-0.6 0.3-0.6 0.7-0.4 1.9-1 1.2-2.9 2.1-0.6 0.7-0.5 0.9-0.3 1.1-0.1 0.8-0.4 0.6-2.5 0.9-0.8 1.5-0.6 0.5 5-32.7-0.3-4.7-0.2-0.9-0.3-0.9-2.3-3.9-0.5-0.6-0.5-0.4-1.9-1.3-0.3-0.2-0.5-0.7-2.3-4.5-0.5-0.7-0.4-0.4-1.6-0.9-0.8-0.4-3.3-1.1-2.8-1.6-1.4-1-0.4-0.2-0.5-0.1-0.7 0.1-23.5 12.6-1.4 1-1 1.1 0.5 1.4 1.6 2.4 0.2 0.6-0.2 1-0.1 0.7 0.1 0.9 0.3 0.9 0.3 0.6 1 1.4 0.6 0.7 0.8 1.1 0.1 0.6-0.1 0.5-0.4 2.2-0.2 2.3-0.1 0.5-0.2 0.4-0.4 0.2-1-0.1-4-2.2-0.9-0.2-1.4 0.2-1 0-0.9-0.2-0.4-0.3-7.6-7.6-0.9-0.6-6.5-2.3-0.7-0.4-0.1-0.3 0.1-0.4 0.8-1.2 1.6-2 3.8-3.4 0.3-0.4 0.1-0.6-0.1-10.2 0.2-0.6 0.4-0.5 10.4-6.6 0.9-0.8 0.6-0.9 0.5-0.3 0.5 0 1.8 0.2 0.5-0.1 0.5-0.2 0.4-0.5 0.4-2 0.2-0.5 0.4-0.8 3.4-4.6 0.5-1.1-0.2-0.4-0.6-0.8-0.3-0.6-0.5-1-0.1-0.7 0.1-0.5 1.4-2.4 0.5-0.7 0.7-0.5 0.3-0.5 0.3-0.8 0.2-2.8 0.2-0.7 0.6-0.6 2.5-1.4 0.5-0.4 1.1-1.2 0.4-0.6 0.8-0.6 1.1-0.5 2.7-0.6 3-1.6 2.1-0.8 1-0.7 2.7-2.7 1.3-1.1 0.7-0.5 1.6-0.7 0.5-0.2 1.9-0.2 3.9 0.2 0.5 0.1 0.9 0.4 1.3 0.6 0.5 0.1 1.7 0.2 0.9-0.1 0.5-0.1 0.7-0.4 1.4-1.1 0.5-0.6 0.3-0.9 1.4-6.5 0.3-0.9 0.5-0.8 0.5-0.7 0.6-0.7 1.4-1.1 0.3-0.4-0.1-0.7-0.9-1.5-1.4-3.3-0.3-1.5 0-0.6 0.1-0.5 2.2-5.6 0.4-2-0.1-0.8-1-3-0.4-0.8-0.7-0.5-1.2-0.5-1-0.3-0.8-0.3-0.4-0.4-0.3-0.7-0.4-1.4-0.2-0.7-0.4-0.6-1-0.7-1.1-1.2-1-1.5-0.9-1.5-0.2-0.4-0.6-0.5-0.9-0.2-1 0.2-0.5 0-1.5-0.2-1.5 0.2-0.3-0.2-0.6-0.6-0.8-0.4-1.6-0.1-2.7-0.9-1.5-0.9-0.9-0.3-1.5-0.3-1.8-0.5-0.4-0.1-1.4 0.3-0.5-0.1-1.1-0.6-0.4-0.2-1-0.1-0.6-0.3-0.4-0.4-0.5-1-0.4-0.5-0.4-0.3-1-0.1-0.5-0.3-0.5-0.6-0.3-0.3-1-0.5-0.5-0.6-1.4-2.7-0.2-0.4-1.3-1.1-0.9-0.3-1-0.1-1 0.1-0.8 0.4-0.9 0.1-0.3-0.2-1-0.8-0.5-0.4-0.4-0.7-1.8-4.9-0.7-1.4-0.2-0.7-0.2-1.5 0.2-2.1 0.3-0.9 0.3-0.2 0.9-0.3 0.4-0.3 0.2-0.4 0.4-1 0.2-0.8-1.5-5.2-0.1-0.9 0.1-0.5 0.4-2.1-0.2-0.6-0.5-1.3-0.1-1-0.2-0.5-0.3-0.3-0.3 0-0.8 0.4-0.4 0.1-0.4-0.2-0.8-0.9-0.3-0.2-1.4-0.4-0.4-0.2-0.6-0.7-0.6-1.1-1-1.4-0.4-0.2-1-0.5-0.5 0-0.5 0.2-0.7 0.2-0.8 0-0.8-0.4-0.7-0.5-0.6-0.6-0.6-0.5-0.8-0.5-0.8-0.3-1.6-0.7-1.1-0.8-0.5-0.5-0.4-0.9 0.2-1.8 0.1-0.5 0.3-1 0.2-0.5 0.2-0.3 0.5-0.1 1 0 0.4-0.1 0.3-0.4 1.9-6.9 0.5-0.7 1.1-0.6 2.6-0.8 0.8-0.4 0.3-0.2 1.1-1.3 0.5-0.8 2.8-7.2 1.9-8.4 2.7-6.6 0.5-0.7 0.9-0.9 0.9-1.5 2.4-5 1.1-1.4 0.8-0.9 1.1-0.7 3.3-1.2 2.6-0.6 1.1-0.8 1.2-1.1 0.3-0.3 0.9-1.5 2.6-5 0.6-1.9 24.1-3.7 39.9-6.1 20.9-3.2 0 2.8-0.4 1.2-0.4 1 0 0.9 0.8 1.1-2.2 0.6-2.5 1.2-2.4 1.5-1.7 2-1.3 2.7-0.8 3.3 0.3 2.8 2.4 1.8-0.3 1.9 1.4 0.7 2.2-0.3 3.2-1.4 1.4 0.4 0.6 1.2-1 1.7 0.3 0.3 0.4 0.8-1.1 0.6-1.4 1-1 1 0.2 0.4 1.4-0.1 1.1-0.3 1.9-0.8 1.7-0.9 1.8-1.3 1.7-1.7 1.2-2-0.7 0.3-0.5 0.1-1-0.4 0.5-1.2 0.6-0.3 0.8-0.2 1.8 0 0.7 0.3 0.1 0.6-0.5 1.7 0.3 1.2 0.8 0.2 1-0.2 0.9 0.3 0.4 0.5 0.3 0.7 0.3 0.6 0.7 0.6 1.7 0.2 1.9-0.1 1.6 0.2 1.2 2.1 4.2 2.9 14.2 15.7 1.6 0.1 1.9-0.9 1.8-1.3 1.4-0.6-0.1-0.8 0.1-0.8 0.3-0.5 1.2-0.5 0.6-1.1 0.3-0.4 1-0.9 0.5-0.2 0.5 1.6 1.3 1 0.3 0.9 1.1-0.8 0.7-1.4 0.3-1.5 0.1-1.4-0.1-0.7-0.8-1.4-0.2-0.6 0.2-0.6 0.8-1.3 0.1-0.7-0.4-1.4-2-1.2-0.4-0.8 1.4-0.7 2 0 1 0.7 1.6 2.2 1 0.7 1 0.1 0.8-0.2 0.6-0.5 4.4-1.5 1-0.3 0.6-0.2 0.3-0.3 0.2-0.1 0.8 0.4 0.3 0.5 0.3 1.6 0.3 0.6 1.1 0.8 1.1 0.1 1.2-0.1 1.3 0.1 1.3 0.6 1.8 2.2 1.4 0.8 3.3 1 1.7 1.4 0.6 2.2 0 3.2 0.6 3.7 2 2.7 8.2 6.3 1.4 0.6 1.8 0 1.7-0.6 2.9-1.6 2-0.2 12.7 3.5-1.6 3.5 0 4.3 1.7 3.4 3.7 0.9 1.7-0.8 1.3-0.9 1.3-0.6 2.2 0.3 2.5 1.5 0.9 0.2 0.8-0.1 1.6-0.4 0.8 0.1 1.7 0.9 3.2 3.2 1.7 1.3 1.7 0.6z" id="ZMB515" name="Northern" data-id="ZMB515" data-name="Northern">
 </path>
 <path d="M807.4 454.6l-1.9 1.4-4.1 0.9-1.8 1.1-3.5 2.7-0.8 0.8-0.3 0.3-0.6-0.4-0.8-0.1-0.7 0.2-0.3 0.6-0.4 1.2-1.6 2-0.8 2.2-1.1 0.2-2.3-0.6-0.8 0.3-1 1.3-2.3 1-1 1.8-1.5 6.3-0.6 1.3-2.1 2.2-0.2 0.1-1.3 1.5 0.4 1.4-0.9 0.7-2.4 0.3-1 0.5-2.3 1.6-1.1 0.3-0.7 0.7 0.1 1.4-0.4 1.5-1.9 0.6 0 0.4-1.4 2-1.4 1.3-0.6 0.7-0.4 1.1-0.8 0.4-0.8 0.3-66.2 0.1-0.1 0.3 0.8 0.5 1 0.3 1.7 0.2 0.5 0.1 0.4 0.3 0.4 0.9 2.3 7 0.4 0.6 0.4 0.3 2.3 0.9 4 1.2 0.9 0.4 0.4 0.2 0.9 1 1.2 0.6 0.6 1.2 0.5 0.7 0.3 0.9 0.1 1-0.2 1.4-0.4 1.1-0.4 0.9-0.9 1.5-0.6 0.8-0.9 0.7-2.3 1.2-0.7 0.5-1.2 1.3-0.7 0.4-0.4 0.4-0.3 0.5-0.4 1-0.4 0.6-0.6 0.7-2.5 2.1-3.3 4.5-0.7 0.7-0.4 0.3-0.5 0-0.5 0-1-0.2-0.5 0.1-0.4 0.2-0.4 0.6-0.3 0.8-0.2 1.2-0.3 0.7-0.5 0.6-0.9 0.5-0.7 0.4-0.9 0.9-0.6 1.6-0.2 1.9-0.5 1.6-0.3 0.2-0.3 0.6-0.4 0.9-0.6 3.3-0.6 4.5 0.6 0.9 1.8 1.6 2.1 2.5 0.4 0.6-4.3-0.3-0.8-0.4-0.9-0.9-0.3-0.3-1.1 0-1.1 0.3-0.8 0.5-0.8 0.1-0.8 0.3-0.6-0.3-0.6-0.6-0.4 0.1-0.5 0.7-0.6 1.7-0.2 0.4-0.5 0.7-0.5 0.3-0.8 0.3-1.3 0.1-0.8 0-0.7-0.1-1.4-0.4-0.6 0.1-0.5 0.3-1.7 1.4-0.4 0.3-0.5 0.1-1.9-0.2-0.5 0.1-6.7 2.7-0.5 0.3-0.5 0.6-0.7 0.6-5.1 2.8-0.7 0.6-0.4 0.3-2.8 0.1-0.5-0.1-0.6 0.1-0.8 0.5-1.2 1.8-0.4 1.1-0.3 2-1 3.7-2.4 4.4-5.6 1.1-7 0.2-7.1-1.9-15 4.7-4.4 0.8-4.6 2-10.6 9.6-6.8 2.3-7.5 0.9-7.4 0.2-14-3.7-2.5 1.5-2.7 5.4-2.2 6.3-2.3 4.1-2.7 1-4.9-1.1-14.4-4.7-14.6-2.4-1.1 0-1 0.2-0.8 0.3-4.3 3-0.7 0.9-0.2 0.9 0.5 1.3 1.2 0.8 2 0.5 4.6 0.7 1.2 0.5 1.1 1 2.2 4.4 1.2 4 0.3 1.5 0 1.3-0.2 0.5-0.8 1.1-1.5 1.2-9.1 2.6-3.6 7.7-0.3 0.2-0.6 0.9-0.3 0.2-0.6-0.1-0.9-0.5-0.5-0.1-1 0.1-0.5 0.3-0.8 0.9-0.6-0.8-0.3-0.7-0.5-0.6-0.9-0.8-1-1-0.3-0.8 0.2-0.3 0.9-0.9 0.2-0.3 0-0.3-0.5-0.7 0-0.5 0.1-1.7-0.1-0.5-0.2-0.4-1.4-0.6-0.3-0.3-0.2-0.4-0.1-1-0.2-0.4-0.4-0.4-4.4-1.4-0.5-0.3-0.1-0.3 0.1-0.8-0.1-0.5-0.6-0.2-1.2 0.1-0.7 0.2-0.4 0.4-0.2 1.2-0.2 0.4-1.1 0.6-0.2 0.3-0.4 1.5-0.4 0.8-0.8 0.5-1.2 1.1-0.9 0.3-0.4 0.3-0.2 0.3-0.4 0.9-0.4 0.2-0.4-0.1-1.3-0.6-1.7-0.6-0.4 0.1-0.3 0.5-0.3 0.6-7 12.9-0.3 0.8-1.4 0.8-0.8-1.3-1-0.2 0-1.1-4.5-19.3-2.1-1.3-20-1.1-0.8-0.2 0.3-0.6 2.1-1.7 0-0.6-0.9-0.8-11.3-6.6-3.4-0.8-4.9-0.6-121.3-3.3 0.1-6-0.4-3.3 0-0.8 0.2-0.5 0.3-0.3 2.6-2.4 0.8-1 0.4-0.1 1-0.1 1 0.2 0.6-0.1 0.7-0.4 0.3-0.5 0.1-0.6-0.2-2.5 0.1-0.9 0.3-0.4 1.3-1.3 1.2-1.9 0.5-1 0.3-0.8 0.1-3.8-0.2-1-2.5-4.6-0.2-0.6-0.1-0.9 0.1-1.7 0.1-0.9 0.3-0.7 0.7-0.9 0.5-0.8 0.2-0.8 0.1-1 0.3-1.1 0.6-0.7 0.4-0.2 1-0.3 0.5-0.3 0.1-0.5 0-1.5 0.2-2.8-0.5-1.8-0.1-1.4 0.1-0.8 0.2-0.6 1-1.6 0.8-2 0.5-1.2 1.5-2.3 0.9-1 0.6-0.4 0.6-0.2 2.1-1.3 1.1-1 1.5-0.3 1.5 0 47.2 5.8 0.8 0.9 0.7 1.2 0.6 0.8 0.9 0.5 1.3 0.4 2.2 0.3 3.8 1.9 0.6 0.6 0.5 0.8 0.6 0.7 0.9 0.3 0.9-0.2 2.9-1.3 0.6-4.6 0.9-1.8 3.5-4.1 5.5-4.3 3.5-5.4 0.8-0.9 1.1-0.8 1.3-0.6 1.5-0.1 0.8 0.2 1.6 0.8 1.1 0.2 0.5-0.2 0.6-0.9 0.9-0.1 7.1 0.5 1.6-0.5 3-2 1.2-0.5 10.5-0.4 1.5-1.3 0.4-0.5 0.6-1.4-0.2-9.8-0.2-0.9 0.1-0.4 0.5-0.8 1.5-2.2 0.2-0.4 0.3-1-0.1-1.6-0.2-1-0.7-1.6-0.7-1.1-4.2-5.5-1-0.8-3.2-1.8-0.4-0.4-0.1-0.3 0.4-0.7 0.9-0.4 1.7-0.6 0.8-0.4 0.4-0.4 0.2-0.8-0.2-3.4 0.1-2.2 0.3-2.4 0.7-1.9 1.8-2.6 0.9-1.7 0.1-0.5 0.1-1-0.1-0.5-0.3-0.3-2.6-1.2-0.7-0.5-0.4-0.3-0.5-0.7-0.5-0.7-0.3-1.3-0.3-0.9-0.5-0.7-0.5-0.7-0.6-0.6-0.6-0.6-0.8-0.3 34.9 1.1 7.3 1 0.1 0.5-0.3 2 0.7 2.1 0.5 0.8 1.1 1.2 0.3 0.3 0.3 0.8 0.2 1.5 0.4 1.3 0.2 1.5 0.5 1.9 0.3 0.4 0.5 0.5 1.2 1 1.5-0.7 2.3-1.7 1.9-2.2 0.8-2.2-0.6-1.8-0.1-1.3 0.4-1.1 0.8-0.5 1.1-0.3 1 0.3 0.6 1.4 0.4 0.6 0.5 0.5 0.6 0.1 0.5-0.5 0.1-0.6-0.1-0.7 0.1-0.6 2.7-3.6 0.8-1.2 0-0.6-0.3-1.1 0.3-0.7 0.5-0.4 1.4-0.1 0.4-0.1 0.2-1.2-0.3-1.1 0-1.2 1.3-1.3 2 0.2 0.4 0.2 1.5 1.1 0.9 0.4 1 0.3 7.1 0.6 1.7 0.4 1.3 1.2 5.7 14.3 0.8 1.7 1.1 1.5 1.7 1.5 1 0.5 0.7 0.1 0.9-0.3 1-0.7 0.6-0.2 0.7-0.2 2.3-0.1 0.7-0.1 1.1-0.4 1-0.2 4.8-0.1 2.9-0.3 0.9-0.3 0.7-0.5 1-1 0.6-0.3 1.1-0.1 0.7 0 0.7 0.1 5.3 1.4 1 0.1 0.8 0 1.7-0.5 1.5-0.3 2.8-0.1 0.8 0.1 4 1.1 1.6 0.2 5.6-0.4 1-0.3 0.8-0.3 1.1-0.7 0.4-0.2 3.3-0.5 6.9-0.3 0.9-0.3 0.4-0.5-0.6-9.7 0.1-0.5 0.6-0.6 12.2-9.5 0.6-0.6 1.5-2.2 1.8-1.9 0.7-0.5 2.9-1.8 3.4-1.3 0.7-0.5 5.5-6.9 3.3-3.3 0.5-0.7 0.2-0.6 0.6 0 2.2-0.4 2 0 1.9 0.9 0.8 1.1 0.6 1.3 0.7 1.1 1.3 0.2 0.9-0.5 1.7-2 1.1-0.6 2-0.9 4.9-3.3 12.1-4.7 1.7-1.1 5-4.7 1.9-0.8 2 0.1 1.6 0.9 1.4 1.2 1.7 1 1 0.1 0.8-0.2 0.6 0 0.8 1 0.2 0.9-0.1 0.9-0.4 0.9-0.4 0.6-0.6 0.5-1.5 0.4-0.6 0.6-0.2 0.8 0.2 1.7-0.1 0.8-0.6 0.3-0.8 0.2-0.7 0.4 0 1.3 0.4 1 0.4 1 0.6 0.9 0.7 0.7 1.3 0.8 1.9 0.7 3.4 0.9 5.5 0.1 1.3-0.2 1.3-2.8 0-22.8 0-25.5 0.1-15.3 0-13.1 0-14.6 0-19.5 1.7-0.3 0.7-0.5 0.3-0.3 0.7-1.1 0.4-0.8 0.3-1 0.4-4.5 0.4-0.9 0.2-0.3 0.7-0.6 6.9-2.9 1.8-0.4 2-0.3 0.4 0 0.6 0.4 0.7 0.7 1.5 1.9 1.6 2.9 0.2 0.9 0.1 1.5 0.3 0.9 0.3 0.6 1.2 1.7 0.4 0.7 0.6 0.7 0.6 0.5 1.2 0.8 0.8 0.4 0.7 0.2 1 0.2 0.6 0.2 0.4 0.5 0.8 1.5 0.5 0.5 1.9 0.7 1 0.2 0.5 0.1 1.2 0.7 1.4 0.5 1.2 0.7 0.9 0.4 2.1 0.3 0.4 0.2 1.2 0.7 0.9 0.3 1.5 0 0.7 0.2 0.8 0.4 1.3 0.7 0.8 0.2 0.6 0 1.4-0.2 1.1 0 0.5 0.1 0.8 0.7 0.5 0.9 0.5 0.6 0.4 0.5 0.8 0.4 0.6 0 0.5 0 0.9-0.3 1-0.1 0.9 0.1 0.5 0.3 0.5 0.5 0.4 0.9 0.2 0.7 0 0.7-0.1 3.9-0.2 1-0.9 1.8-0.2 0.9 0 1 0.1 1 0.3 0.9 0.3 0.4 0.6 0.5 1.1 0.7 2.2 1 0.8 0.5 0.4 0.4 0.5 0.7 0.3 1.1 0 0.7-0.1 0.6-0.7 1.8-0.1 1 0.1 0.5 0.6 0.7 1 1 2.4 1.9 1.2 0.6 0.8 0.3 1.2-0.6 0.7-0.5 0.7-0.5 1-1.4 0.4-0.2 0.4-0.1 0.5 0.3 0.4 0.4 1.1 2.6 0.6 0.9 0.6 0.6 1 0.7 1.6 0.7 0.4 0.4 0.4 0.4 0.2 0.8 0 1.3-0.4 0.8-0.5 0.8-1.2 1.3-0.2 0.4-0.9 2.2 0 0.9 1.2 4.5 0.2 0.9 0 0.6-0.4 2.1 0.3 0.6 0.6 0.6 5.2 3.7 1.7 0.8 0.7 0.5 0.9 0.5 0.5 0.1 1 0 2.8-0.7 1.1 0.1 3 0.9 1.6 0.2 2.3 0.8 0.8 0.1 1.4 0 1.1 0.8 6.4 6.3 1.1 0.8 0.6 0 1 0 0.5-0.1 0.9-0.3 0.6-0.5 0.5-0.8 0.9-2 0.1-0.8 0.1-1.6 0.2-0.5 0.5-0.6 0.8-0.4 1.7-0.6 0.5 0 3.8 0 1.1 0.1 0.5 0.2 2.9 1.5 0.8 0.4 0.7 0.8 0.5 1.1 0.3 1.4 1.3 19.1 0.6 1.7 1.6 3.2 2 2.2 1 1.4 0.2 0.9 0.1 1.5 0 2.9 0 4.4z" id="ZMB516" name="Central" data-id="ZMB516" data-name="Central">
 </path>
 <path d="M605.7 450.5l-0.2 0.6-0.5 0.7-3.3 3.3-5.5 6.9-0.7 0.5-3.4 1.3-2.9 1.8-0.7 0.5-1.8 1.9-1.5 2.2-0.6 0.6-12.2 9.5-0.6 0.6-0.1 0.5 0.6 9.7-0.4 0.5-0.9 0.3-6.9 0.3-3.3 0.5-0.4 0.2-1.1 0.7-0.8 0.3-1 0.3-5.6 0.4-1.6-0.2-4-1.1-0.8-0.1-2.8 0.1-1.5 0.3-1.7 0.5-0.8 0-1-0.1-5.3-1.4-0.7-0.1-0.7 0-1.1 0.1-0.6 0.3-1 1-0.7 0.5-0.9 0.3-2.9 0.3-4.8 0.1-1 0.2-1.1 0.4-0.7 0.1-2.3 0.1-0.7 0.2-0.6 0.2-1 0.7-0.9 0.3-0.7-0.1-1-0.5-1.7-1.5-1.1-1.5-0.8-1.7-5.7-14.3-1.3-1.2-1.7-0.4-7.1-0.6-1-0.3-0.9-0.4-1.5-1.1-0.4-0.2-2-0.2-1.3 1.3 0 1.2 0.3 1.1-0.2 1.2-0.4 0.1-1.4 0.1-0.5 0.4-0.3 0.7 0.3 1.1 0 0.6-0.8 1.2-2.7 3.6-0.1 0.6 0.1 0.7-0.1 0.6-0.5 0.5-0.6-0.1-0.5-0.5-0.4-0.6-0.6-1.4-1-0.3-1.1 0.3-0.8 0.5-0.4 1.1 0.1 1.3 0.6 1.8-0.8 2.2-1.9 2.2-2.3 1.7-1.5 0.7-1.2-1-0.5-0.5-0.3-0.4-0.5-1.9-0.2-1.5-0.4-1.3-0.2-1.5-0.3-0.8-0.3-0.3-1.1-1.2-0.5-0.8-0.7-2.1 0.3-2-0.1-0.5-7.3-1-34.9-1.1-2.9-1.9-1.3-1.1-0.3-0.6-0.4-0.7-0.4-1.1-0.1-1 0.4-5.7 0.3-1.4 0.6-1.6 0.5-0.7 0.2-0.4 1.7-1.3 0.5-0.7 0.3-0.7 0.9-4.3 0.3-0.7 0.3-0.5 1.1-0.6 1.7-0.6 0.8-0.4 0.4-0.3 0.4-0.6 1-2.3 0.6-0.6 1.9-0.9 0.5-0.5 0.5-0.8 0.9-1.5 0.3-1 0.2-0.7 0.1-0.5-0.2-1.5-0.2-0.9-1-2-0.3-1.4 0-1.4 0.2-0.9 0.1-0.6 0.5-0.8 0.9-0.9 4.8-3 0.7-0.5 0.7-1 0.6-0.9 0.5-1.3 2.4-10-0.4-0.3-1-0.2-0.5 0-1.9 0.3-0.5-0.2-0.5-0.3-0.3-0.8-0.3-0.4-0.7-0.3-0.3-0.3-0.3-0.8-0.6-0.7-0.3-0.2-0.7-0.2-1.4-0.1-0.5-0.1-1.1-0.8-0.4-0.2-2.3-0.9-0.7-0.6-0.9-0.9-0.8-0.5-0.9-0.4-0.8-0.6-0.2-0.6-0.1-0.4 0.1-0.5 0.8-1.2 0.8-1.8 0.6-1.3 0.1-0.6-0.4-0.8-1.6-1.8-0.8-0.5-0.4-0.4-0.2-0.8-0.6-0.9-0.7-0.7-0.4-0.4-0.2-0.8 0-0.5 0.6-1 0.3-0.7 0.8-3.8 0.5-1.1 0.7-1.1 0.6-0.7 0.8-0.4 0.9-0.2 1.5-0.1 1.3-0.5 0.7-0.5 0.6-0.6 0.8-1 0.9-1.6 3-3.8 0.7-0.5 0.8-0.3 3.4-0.6 0.9-0.5-0.2-0.6-0.7-0.8-0.7-2-0.2-0.6-0.1-0.7 0-1.2 0.1-0.7 0.2-0.6 0.7-1.3 0-2.7-0.1-0.5-1-3.1-0.2-1.1 0.3-0.1 0.4 0 2 0.4 2.4 0.2 0.7-0.1 1.7-0.4 1-0.1 10.7 1.1 0.6-0.2 0.5-0.4 1.1-1.3 0.4-0.4 1.2-0.6 0.3-0.2 1.3-0.7 1.2-1.4 0.4-0.4 1.7-0.7 0.7-0.5 1.2-1.1 0.7-0.5 1.6-0.5 0.8 0.6 1.3 0.8 1.2 0.9 0 0.5-0.2 0.6 0.3 0.5 2.4 0.4 1.3 0.7 1.2-1.6 1.3-0.5 0.3-0.2 3.7-2.5 0.3-0.3 0.4 0.4 3.7 4.1 2.4 0.7 3.8 0.4 3.9-0.2 2.7-0.7 1.6-1.3 1-1.2 1.1-0.7 2.1 0.2 1.8 0.7 4.8 2.9 1.3 1.6 0.3 2.2 0.5 1.8 1.9 0.6 1.6-0.2 1.3-0.1 6.2 0.6 0.8 0.5 0.3 0.7 0.2 0.9 0.4 0.7 2.1 1.7 1.2-0.5 1.3-1.3 2.1-0.5 1.7 0.7 1.2 1.3 1.5 1 2.3 0 1.7-0.3 1.7 0.2 1.6 0.4 1.5 0.9 7 6.2 1.2 1.8 1.7 4.4 1 1.9 2.9 3.1 0.9 1.6-0.1 2.3-1 1.5-1.3 1-0.9 1.2 0.6 2.2 1.8 2.4 1.8 1.9 1.4 2 0.3 4.6 0.9 0.8 1.3 0 1.3-0.6 0.8-1 1.3-2.5 1.1-0.8 4 0.9 3.4 3.5 5.8 7.6 1.5 1.4 0.6 0.9 0.7 3.2 0.4 0.3 1.1 0.5 0.4 0.3-0.1 0.5-0.4 0.9 0.1 0.8-0.2 0.9 0.1 0.5 0.4 0.4 0.9 0.3 0.3 0.2 0.8 3 0.8 0.5 1.7 0.1 0.8 0.3 1 1.3 2.6 13 1.4 3.6 2.6 2.6 1.1 1.3 1.4 0.3 1.5-0.3 1.6-0.6 1.6 0z" id="ZMB517" name="Copperbelt" data-id="ZMB517" data-name="Copperbelt">
 </path>
 <path d="M703.7 590.9l-0.1-0.2-0.1-10.5-0.4-2.7-0.4-0.3-0.9-0.9-0.7-1.1-0.8-1-0.8-0.5-1.2-0.6-1-0.8-3.3-4.6-0.8-0.6-1.9-0.7-0.6-0.6-0.3-0.6-0.3-1.2-0.3-0.6-0.4-0.6-2.1-2.5-1.8-1.6-0.6-0.9 0.6-4.5 0.6-3.3 0.4-0.9 0.3-0.6 0.3-0.2 0.5-1.6 0.2-1.9 0.6-1.6 0.9-0.9 0.7-0.4 0.9-0.5 0.5-0.6 0.3-0.7 0.2-1.2 0.3-0.8 0.4-0.6 0.4-0.2 0.5-0.1 1 0.2 0.5 0 0.5 0 0.4-0.3 0.7-0.7 3.3-4.5 2.5-2.1 0.6-0.7 0.4-0.6 0.4-1 0.3-0.5 0.4-0.4 0.7-0.4 1.2-1.3 0.7-0.5 2.3-1.2 0.9-0.7 0.6-0.8 0.9-1.5 0.4-0.9 0.4-1.1 0.2-1.4-0.1-1-0.3-0.9-0.5-0.7-0.6-1.2-1.2-0.6-0.9-1-0.4-0.2-0.9-0.4-4-1.2-2.3-0.9-0.4-0.3-0.4-0.6-2.3-7-0.4-0.9-0.4-0.3-0.5-0.1-1.7-0.2-1-0.3-0.8-0.5 0.1-0.3 66.2-0.1 0.8-0.3 0.8-0.4 0.4-1.1 0.6-0.7 1.4-1.3 1.4-2 0-0.4 1.9-0.6 0.4-1.5-0.1-1.4 0.7-0.7 1.1-0.3 2.3-1.6 1-0.5 2.4-0.3 0.9-0.7-0.4-1.4 1.3-1.5 0.2-0.1 2.1-2.2 0.6-1.3 1.5-6.3 1-1.8 2.3-1 1-1.3 0.8-0.3 2.3 0.6 1.1-0.2 0.8-2.2 1.6-2 0.4-1.2 0.3-0.6 0.7-0.2 0.8 0.1 0.6 0.4 0.3-0.3 0.8-0.8 3.5-2.7 1.8-1.1 4.1-0.9 1.9-1.4 0.9-0.6 1.9-0.6 1.4 0.2 1.7 0.5 1.7 0.2 1.4-0.6 6.8-5.1 2-2.8 1-3.3 0.7-3.5 1.5-5 0.5-0.8 1.7-0.4 0.7-0.5 0.5-0.6 0.2-0.9 0.6-1.7 1.3-1.2 1.1-1.3 0.3-2.1 0.5 0 0.2 0.4 0.4 0.8 1.4-0.9 1.9-0.9 1.1-0.9 0.9-1.1 0.5-0.3 1.8-0.2 0.6-0.4 0.4-0.6 0.2-0.8 1.1 0.5 0.7-0.2 0.7-0.4 1-0.4-0.5-1.7-0.1-1.8 0.2-1.8 0.4-1.3 0.1-0.5-0.2-0.9 0.1-0.4 0.5-0.4 0.9 0 0.4-0.2 1.1-1.1 0.4-0.5 0.3-0.8 0.9-0.1 1.8-0.5 1.7-0.7 0.8-0.8 0.2-1.6 1.4-4 0.8-1.4 0.8-0.5 0.7-0.2 0.5-0.4 0.4-1.8 0.8-1.8 0.2-0.9 0-1.1 0.6-2.9 0-2.9 0.2-0.9 0.4-0.6 0.4-0.7 0.3-2.1 0.9-1.1 1.8-8.5 0-3.9 0.2-0.7 0.9-1.1 0.2-0.5 0.1-1.3 0.3-0.6 0.6-0.5 0.8-0.9 0.5-0.9 1.2-2.7 1-1.1 4.3-3.4 0.2-0.8 1.5-1.9 0.7-1.8 0.5-1.8 0.1-1.8 7 1.5 5.1 0 4.3-4.4 1.4-5.1 3.6-3.7 5 0 10.8-0.7 19.3-5.9 11.5-3.6 3.6-8.1 5.7-9.5 0-4.2 1.6-2.4 3.4-1.5 4.2-1.1 0.8 11.2-0.3 3.2-1.2 3.3 0.1 1.4 0.9 1.9 0.3 1.3-0.2 1.3-0.5 1.4-0.8 4.5-3.4 7.9-0.3 2.9 0.1 3 0.7 1.4 2.4 2.3 1 1.2 1 2.9 1.5 6.1 1.7 2.6 3 1 6.3-1.9 3.3 1.2 1.4-0.1 1 0.4 0.1 1.8-0.7 1.4-2.6 1.6-0.6 1.4-1.3 0.2-0.4 0.7-0.1 2.1-0.7 1.1-2.6 1-1 0.9-1.3 2-1.8 1.8-1.9 1.3-1.9 0.4-0.7-0.2-0.7-0.5-0.8-0.4-1.1-0.1-2.3 0.4-0.7 0.3-0.9 1.1-1.5 3-1.2 0.9-0.8 0.2-1.4 1-0.5 0.5-0.2 0.6-0.5 0.4-0.8 0-0.4-0.4-1-1.9-0.6-0.6-0.8-0.3-0.7 0.1-1.3 0.4-0.7 0.4-0.8 0.6-0.7 0.4-0.6-0.6-0.4-0.7-0.4-0.5-0.6-0.1-0.7 0.3-1.2 1.1-0.9 1.2-2.6 5.2-3.1 4.6-1.2 2.4-0.3 1.5 0.5 6.5 0.6 0.9 2.3 1.5 2.1 1.9 0.7 2.1-0.4 2.5-2.3 5.3-1.3 9.7 0.1 1.6 0.3 1.4 0.7 1.5 1.3 2 0.3 1-0.5 1.3-2.5 0.7-2.1 2.7-1.6 3.5-2.3 9.6-1.6 3.4-2.4 1.3-1.6 0.2-0.7 1-0.2 1.4 0.1 1.6-0.4 1.9-1.1 0.8-3.1 0.5-1.2 0.7-2.3 2-1.1 0.2-1.6-0.6-1.2-0.1-0.8 0.7-0.4 1.8 1 2.8 2.7 0.6 3.2 0.1 2.2 1 3.3 4.6 0.4 1-0.7 1-3.1 1.5-0.9 1 0.4 2.3 2.5 1.1 3.2 0.7 2.6 1 1.2 1.1 4.3 5.2 0.3 1.4 0.2 1.3 0.5 1.3 0.7 0.6 1.6 0 0.7 0.3 0.4 0.8 0.1 0.4-0.2 0.5-0.3 4.5 0.5 1.3 1.9 2.6 1.6-0.4 2.7-4.4 1.1-1.3 1.2-0.6 3-0.9 0.8-0.7 0.8-2.3 0.8-0.5 1.3 1.1 2.6 5 1.5 1.8-13.7 4.6-10.7 3.7-14.7 5.1-14.4 4.9-29.8 10.3-6.8 1.3-3.3 1-6.4 3-19.8 6.6-12.2 4-13.8 7.4-7.4 2.7-19.8 4.9-8.9 2.1-1.5 0.1-20.5 4.8-11.9 4.4-7.3 2.6-9 3.4-8 4-6.3 3.2-7.5 0.9-1.4 0.4z" id="ZMB518" name="Eastern" data-id="ZMB518" data-name="Eastern">
 </path>
 <path d="M689.8 563.4l0.3 0.6 0.3 1.2 0.3 0.6 0.6 0.6 1.9 0.7 0.8 0.6 3.3 4.6 1 0.8 1.2 0.6 0.8 0.5 0.8 1 0.7 1.1 0.9 0.9 0.4 0.3 0.4 2.7 0.1 10.5 0.1 0.2 0 0.6 0.6 2.6 0 3.9 0.4 3.9 3.2 11 2.1 4.3 2.8 1.8 1.2 0.4 1.1 1.2 0.9 1.6 0.6 1.6 0.3 1.8 0.3 5.8 0.2 1 1.3 1.8 0.3 0.8-0.3 0.9-1.5 3.1-0.6 1.9 0.2 1.3 2.4 2.6 0.5 0.7 1 2.6-0.2 0.2-4.6 1.9-2.5 0.1-4.1-1.8-2.1-0.3-0.8 0.3-1.2 1.1-0.7 0.4-1.4 0.3-1-0.3-2.2-1.5-3.4-0.8-3.4 0.5-3.4 1-3.3 0.5-3.7-0.4-7.3-2-3.8-0.4-2 0.5-3.5 1.6-3.7 0.6-4.9 1.6-2.1 0.3-1.7-0.2-1.7-0.5-1.8-0.2-2 0.5-3.2 2.7-1.5 1-7.4 0.7-1.3 0.2-18.8 8.8-3 3.2-0.8 0.5-1.7 0.4-1.7 1.1-1.3 1.2-0.9 0.9-1.8 3.5-1.1 1-2.1 0.4-3.8 0.1-1.9 0.3-0.3 0.2-1.3-1.1-1.9-1.2-1.9-0.4-1.4 1.5-1-0.6-0.9 0-0.7 0.4-0.4 0.8-0.9-0.6-0.6 0.3-0.4 0.6-0.4 0.3-0.8-0.1-1.3-0.4-0.6-0.1-1.5 0.2-0.5-0.1-0.8-0.4-5.8-4.6-1.1-0.5-1.7 0-3.4 0.4-1.7-0.3-1.5-0.9-3.7-3.9-1.4-1.1-1.3-0.5-3.2-0.4-1.1-0.4-1.6-1.3-1-0.5-1.7-0.4-8.5 0.5-1.3 0.5-2.5 1.9-0.9 0.1-0.9-0.5-2.6-2.3-1.4-0.8-8.4-3.3-1.8-0.3-1.6-0.5-0.9-1.3-0.8-1.6-1.1-1.4-3.1-1.5-3.5-0.2-3.5 0.8-2.8 1.5-0.8-0.5-0.4-0.5-0.2-0.6 0.2-0.8-1.6-1-2-0.3-3.7 0 3.6-7.7 9.1-2.6 1.5-1.2 0.8-1.1 0.2-0.5 0-1.3-0.3-1.5-1.2-4-2.2-4.4-1.1-1-1.2-0.5-4.6-0.7-2-0.5-1.2-0.8-0.5-1.3 0.2-0.9 0.7-0.9 4.3-3 0.8-0.3 1-0.2 1.1 0 14.6 2.4 14.4 4.7 4.9 1.1 2.7-1 2.3-4.1 2.2-6.3 2.7-5.4 2.5-1.5 14 3.7 7.4-0.2 7.5-0.9 6.8-2.3 10.6-9.6 4.6-2 4.4-0.8 15-4.7 7.1 1.9 7-0.2 5.6-1.1 2.4-4.4 1-3.7 0.3-2 0.4-1.1 1.2-1.8 0.8-0.5 0.6-0.1 0.5 0.1 2.8-0.1 0.4-0.3 0.7-0.6 5.1-2.8 0.7-0.6 0.5-0.6 0.5-0.3 6.7-2.7 0.5-0.1 1.9 0.2 0.5-0.1 0.4-0.3 1.7-1.4 0.5-0.3 0.6-0.1 1.4 0.4 0.7 0.1 0.8 0 1.3-0.1 0.8-0.3 0.5-0.3 0.5-0.7 0.2-0.4 0.6-1.7 0.5-0.7 0.4-0.1 0.6 0.6 0.6 0.3 0.8-0.3 0.8-0.1 0.8-0.5 1.1-0.3 1.1 0 0.3 0.3 0.9 0.9 0.8 0.4 4.3 0.3z" id="ZMB520" name="Lusaka" data-id="ZMB520" data-name="Lusaka">
 </path>
 <path d="M479.8 350.1l-0.3 0.3-3.7 2.5-0.3 0.2-1.3 0.5-1.2 1.6-1.3-0.7-2.4-0.4-0.3-0.5 0.2-0.6 0-0.5-1.2-0.9-1.3-0.8-0.8-0.6-1.6 0.5-0.7 0.5-1.2 1.1-0.7 0.5-1.7 0.7-0.4 0.4-1.2 1.4-1.3 0.7-0.3 0.2-1.2 0.6-0.4 0.4-1.1 1.3-0.5 0.4-0.6 0.2-10.7-1.1-1 0.1-1.7 0.4-0.7 0.1-2.4-0.2-2-0.4-0.4 0-0.3 0.1 0.2 1.1 1 3.1 0.1 0.5 0 2.7-0.7 1.3-0.2 0.6-0.1 0.7 0 1.2 0.1 0.7 0.2 0.6 0.7 2 0.7 0.8 0.2 0.6-0.9 0.5-3.4 0.6-0.8 0.3-0.7 0.5-3 3.8-0.9 1.6-0.8 1-0.6 0.6-0.7 0.5-1.3 0.5-1.5 0.1-0.9 0.2-0.8 0.4-0.6 0.7-0.7 1.1-0.5 1.1-0.8 3.8-0.3 0.7-0.6 1 0 0.5 0.2 0.8 0.4 0.4 0.7 0.7 0.6 0.9 0.2 0.8 0.4 0.4 0.8 0.5 1.6 1.8 0.4 0.8-0.1 0.6-0.6 1.3-0.8 1.8-0.8 1.2-0.1 0.5 0.1 0.4 0.2 0.6 0.8 0.6 0.9 0.4 0.8 0.5 0.9 0.9 0.7 0.6 2.3 0.9 0.4 0.2 1.1 0.8 0.5 0.1 1.4 0.1 0.7 0.2 0.3 0.2 0.6 0.7 0.3 0.8 0.3 0.3 0.7 0.3 0.3 0.4 0.3 0.8 0.5 0.3 0.5 0.2 1.9-0.3 0.5 0 1 0.2 0.4 0.3-2.4 10-0.5 1.3-0.6 0.9-0.7 1-0.7 0.5-4.8 3-0.9 0.9-0.5 0.8-0.1 0.6-0.2 0.9 0 1.4 0.3 1.4 1 2 0.2 0.9 0.2 1.5-0.1 0.5-0.2 0.7-0.3 1-0.9 1.5-0.5 0.8-0.5 0.5-1.9 0.9-0.6 0.6-1 2.3-0.4 0.6-0.4 0.3-0.8 0.4-1.7 0.6-1.1 0.6-0.3 0.5-0.3 0.7-0.9 4.3-0.3 0.7-0.5 0.7-1.7 1.3-0.2 0.4-0.5 0.7-0.6 1.6-0.3 1.4-0.4 5.7 0.1 1 0.4 1.1 0.4 0.7 0.3 0.6 1.3 1.1 2.9 1.9 0.8 0.3 0.6 0.6 0.6 0.6 0.5 0.7 0.5 0.7 0.3 0.9 0.3 1.3 0.5 0.7 0.5 0.7 0.4 0.3 0.7 0.5 2.6 1.2 0.3 0.3 0.1 0.5-0.1 1-0.1 0.5-0.9 1.7-1.8 2.6-0.7 1.9-0.3 2.4-0.1 2.2 0.2 3.4-0.2 0.8-0.4 0.4-0.8 0.4-1.7 0.6-0.9 0.4-0.4 0.7 0.1 0.3 0.4 0.4 3.2 1.8 1 0.8 4.2 5.5 0.7 1.1 0.7 1.6 0.2 1 0.1 1.6-0.3 1-0.2 0.4-1.5 2.2-0.5 0.8-0.1 0.4 0.2 0.9 0.2 9.8-0.6 1.4-0.4 0.5-1.5 1.3-10.5 0.4-1.2 0.5-3 2-1.6 0.5-7.1-0.5-0.9 0.1-0.6 0.9-0.5 0.2-1.1-0.2-1.6-0.8-0.8-0.2-1.5 0.1-1.3 0.6-1.1 0.8-0.8 0.9-3.5 5.4-5.5 4.3-3.5 4.1-0.9 1.8-0.6 4.6-2.9 1.3-0.9 0.2-0.9-0.3-0.6-0.7-0.5-0.8-0.6-0.6-3.8-1.9-2.2-0.3-1.3-0.4-0.9-0.5-0.6-0.8-0.7-1.2-0.8-0.9-47.2-5.8-1.5 0-1.5 0.3-1.1 1-2.1 1.3-2.1-0.1-1.1 0.3-0.4 0.4-1.9 0.9-1.6 0.1-1.2 0.1-0.7-0.1-0.5-0.2-0.8-0.5-0.3-0.3-1-0.4-1.6-0.4-5.5-0.5-1.2 0-0.4 0.2-1.6 0.8-0.8 0.3-3.7 0.8-1.3 0.4-1.2 0.6-1.7 0.7-3.2 0.8-0.9 0-4-0.3-0.8 0.1-0.8 0.1-1.6 0.6-1.4 0.1-0.6-0.1-0.7-0.2-1.3-0.8-0.7-0.5-1.8-2.1-1-1.4-0.5-1.2-0.2-1 0.4-2.8 0-0.5-0.2-2 0.1-1.1 0.5-0.8 0.7-0.5 1.9-0.6 2.2-1.1 1-0.8 0.9-1 0.3-0.9 0.2-3.8 0.4-2 0.3-1 0.8-1.1 0.7-1.2 0.3-0.9 0.4-1.6 0-3.2-0.2-0.7-0.4-0.7-0.9-1.1-0.6-0.5-0.6-0.1-3.3 0.6-0.9-0.2-1.5-0.5-9.6-4.9-0.5-0.2-2.1-0.3-1.9-0.6-1.7-0.2-4.4-1.5-0.7-0.4-0.4-0.4-0.5-0.7-0.5-1.2-0.3-0.9 0-0.5 0.1-2.3-0.1-0.5-0.6-1.6-0.2-0.9-0.5-0.8-0.4-0.6-1-0.9-2-2.4-0.8-0.5-0.3 0-0.6 0.5-1.3 0.5-0.2 0.3-0.3 0.9-0.1 1-0.3 0.4-0.4 0.1-0.3-0.2-0.1-0.7 0.2-1.6-0.1-0.6-1.9-0.4-0.3 0.2 0 0.4 0.2 0.9 0 0.4-0.2 0.4-0.3 0.1-0.4 0-0.9-0.4-0.5-0.1-1 0-0.5-0.8-0.7-0.8-1.1-0.6-1-0.9-0.4-0.5-1.9-2.1-0.3 0.1-0.5 0.7-0.4 0.3-0.8 0.2-0.1 0.3 0.7 0.9 0.1 0.3-0.2 0.3-0.9 0.1-1.2-0.1-0.6-0.1-0.5 0.1-0.9 0.9-0.6 0-0.3-0.2-0.7-1.3-0.3 0.1-0.5 0.6-0.7 0.4-0.4 0-3.3-1-0.7-0.4-0.5-0.5 0-1.6-0.2-0.6-0.4-0.6-0.9-0.9-0.5-0.2-0.4 0-0.2 0.8-0.2 0.3-0.5 0.7 0 0.3 0.7 0.8 0.3 0.4 0 0.4-0.2 0.3-0.5 0.1-0.7 0-0.9-0.2-0.7-0.4-1.6-1.1-1.3-1.2-0.5-0.1-0.4 0.1-1.1 0.6-0.9 0.3-0.4 0.2-0.5 0.7-0.5 0.2-0.5 0-1.3-0.1-0.4 0.2-0.3 0.3-0.8 1.2-0.3 0.2-0.7 0.4-1 0.2-0.7-0.1-0.6-0.2-0.6-0.6-0.5-0.1-0.4 0.1-0.6 0.7-0.5 1.5-0.3 0.5-0.6 0.2-0.3-0.2-0.7-0.8-0.4-0.1-0.3 0.1-0.8 1-0.9 0.9-1.1 0.7-0.9 0.3-0.8 0.1-1-0.2-0.8-0.3-1.3-0.6-0.7-0.2-0.5 0.1-0.7 0.5-0.9 0.2-0.7 0.4-0.9-0.1-0.7-0.1-1.8-0.7-1.6 0-1.3-0.3-0.6-1 0-1.7-0.9 0.4-2 2-1 0.4-0.9 0.1-1 0.3-2.8 1.7-1.5-0.4-1.3-1-1.4-0.5-1.4 0.4-2.9 1.6-3.5 0.9-3 2.3-1.5 0.9-8.8 2.3-2.4 1.2-2.6 2.4-0.9 0.6-1.1 0.4-0.8-0.1-0.8-0.2-1.1-0.1-1.5 0.4-2.1 1.9-1.4 0.8-3.5 0 0.4-0.8 0-0.6-0.4-1.1-3.5 1.3 0.4-1.8 1.9-2.9 1.1-1.4 0.4-0.8-0.3-0.3-0.5-0.1-6.6-0.7-0.8-0.2-1.2-0.8-0.5-0.7-0.4-0.8-0.2-0.9-0.1-1.1 0-1.3-0.2-0.5-0.5-0.5-1-0.6-0.8-0.2-0.6-0.1-1 0.2-2.2 1-1.5 0.3-0.5 0-0.6-0.3-0.4-0.6-0.3-1-0.5-1.3-0.5-0.7-1.1-1.2-7.5-4.9-2.1-0.9-0.7-0.1-0.6 0.1-0.3 0.2-2.1 2.2-0.8 0.4-4 0.2-0.4 0.1-0.4 0.3-0.1 0.5-1 5.1-0.2 0.5-0.6 0.9-1 0.2-1.1-0.3-0.8-0.4-0.7-0.6-0.9-0.5-2.1-0.4-1-0.4-0.5-0.7-0.1-0.7-0.4-0.7-0.5-0.6-0.4-0.2-1.5-0.4-0.7-0.7-2.5-0.2-0.7-0.1-0.5-0.2-2.1-1.4-0.3-0.3-0.7-1.7-0.5-0.4-5.8-3.6-12.4-10.6-0.9-0.6-2.1-1-0.8-0.3-0.7-0.2-1 0.2-0.6 0.5-0.9 1.6-0.6 0.6-1.2 0.7-0.5 0.6-0.4 0.8-0.6 0.7-2.5 1.1-1.4 0.3-1.5 0-0.8-0.1-1-0.4-1.3-1.1-2.1-2.1-1.1-0.7-2.5-1.3-1.6-0.2 0-60.9 172.5 0-1.1-3.2-1.4-2.7-1.9-2.6-4.7-4.8-1.7-2.4-0.8-2.8 0.6-3.5 1.7-3.9 3.1-12.6 1-2.5 6.8-10 0.7-1.5 0.2-1.5-0.8-3.9-0.4-5.3-0.8-2.2-2.2-2.3-1.8-2.7-0.5-3.9 0.6-12.3 0.5-11.2 1.8-4.3 0.2-0.9-0.4-2.1-0.4-6.5-0.7-2.1-0.9-1.7-0.7-1.7 0-2.2 0.5-1.7 1.5-3.5 2.4-3.7 0.3-1 0-1.4-0.2-2.1 0-1.1 0.2-1 1-1.3 2.6-2.1 0.9-1.1-0.1-1.1-3.8-8.4-0.4-2.2 0.3-12.4-1.7-0.3-0.4-1.2 0.3-3.4 0-4.8 0.3-1.5 0.5-1.7-0.3-1.3-1.7-2.5-0.5-1.5-0.6-4.3 2.9 0.1 4 0.8 3.7 1.3 1.9 1.9 0.1 0.8-0.5 1.5-0.1 0.8 0.2 1 0.6 1.7 0.2 1-0.2 2.9 0.6 1.1 1.7-0.3 1.7-0.5 1.5 0 3.1 1 1.7 0.2 3.2 0 1.6 0.2 1.9 0.9 2.5 1.5 2.1 1.9 1 1.8-0.3 1-0.7 0.8-0.7 0.8 0 1.3 0.5 1 1.4 1.3 0.6 0.7 0.4 1.5 0.1 1.9-0.1 1.8-0.3 1.7-0.7 1.4-2.7 4.4-1.1 1.1-3.5 1.1-1.1 0.9 0.7 1.6 1.4 0.6 3.5 0.1 1.6 0.2 1.9 1.2 2.9 2.7 1.7 0.8 2 0.2 1.8-0.4 3.6-1.3 0.8-0.1 1 0.1 0.9-0.2 0.5-0.7 0.3-1 0.4-0.8 0.5-0.7 0.7-0.7 0.8-0.3 1.9-0.4 0.9-0.5 0.8-0.8 1.6-2.2 0.9-0.8 3.3-1.4 6.4 0 3.4-0.7 6.3-3.2 3.6-1.1 3.2 0.3 12.2-1.1 5.1-1.1 8.1-4.1 2.7-0.4 1.1 0.9 0.1 2-0.1 2.2 0.2 1.8 0 0.8-0.7 0.6-1.8 0.7-1 0.8 0.5 0.7 1 0.8 0.4 0.7-0.7 1.6-1 0.8-0.7 1 0 2.1 0.7 1.8 1.9 3.4 0.7 1.5-0.1 0.8-1.2 1.4-0.4 0.9 0 0.8 0.3 1.5 2.3 7.1 0.8 1.5 0.7 0.8 0.6 0.3 0.7 0.1 1.1 0 1.1 0.2 0.6 0.6 0.4 0.8 0.7 0.7 4.9 2.3 1.5 1.3 0.1 0.5 0 0.9-0.7 2.2 0.5 1.2 1.3 0.6 1.7-0.1 0.8-0.4 0.5-0.6 0.6-0.5 1.1-0.2 0.9-0.2 0.4-0.9 0.2-0.8 0.7-0.6 3.9 0.1 2.9 1.9 2.7 2.5 3.3 1.9 1.5 0.3 4.9 0 1-0.1 1.7-0.8 0.6-0.2 0.9 0.2 0.5 0.3 0.3 0.4 4.7 3.8 1.8 0.7 1.2 0.9 1.2 2.7 1.5 0.7 1.1 0.2 14.7-0.2 1.9 0.7 1.7 1.1 1.8 0.9 3-0.2 1.8 0.8 1 0.1 1-0.4 1.6-1.2 0.9-0.4 3.2-0.5 3.3-0.1 2 0.6 1.4 1.2 1.4 1.3 1.5 1.2 3.1 1 6.9 0.5 3.2 0.6 1.6 1 1.5 1.1 1.5 0.7 1.7-0.4 1.3-1.2 1-1.5 1.3-1.1 2.2-0.1 4 0.5 3.6-0.8 3.3-1.9 3-2.9 1.6-3.4 0.4-7.2 0.8-3.4 1.3-1.9 1.3-1.2 0.9-1.4 0.1-2.3-1.1-3.7 0-1.7 1.1-1.2 0.8-0.1 1.9 0.3 0.8-0.1 3.2-1 3.7-0.3 2.4-1 0.6-0.1 1.4 2.1 0.9 4 0.4 4.3-0.2 2.9 2.1 7.6 15.9 9.9 4 6.9 0.4 3.5 4.1 12.1 1.4 1.8 4.6 3.7z" id="ZMB521" name="North-Western" data-id="ZMB521" data-name="North-Western">
 </path>
 <path d="M494 649.9l3.7 0 2 0.3 1.6 1-0.2 0.8 0.2 0.6 0.4 0.5 0.8 0.5 2.8-1.5 3.5-0.8 3.5 0.2 3.1 1.5 1.1 1.4 0.8 1.6 0.9 1.3 1.6 0.5 1.8 0.3 8.4 3.3 1.4 0.8 2.6 2.3 0.9 0.5 0.9-0.1 2.5-1.9 1.3-0.5 8.5-0.5 1.7 0.4 1 0.5 1.6 1.3 1.1 0.4 3.2 0.4 1.3 0.5 1.4 1.1 3.7 3.9 1.5 0.9 1.7 0.3 3.4-0.4 1.7 0 1.1 0.5 5.8 4.6 0.8 0.4 0.5 0.1 1.5-0.2 0.6 0.1 1.3 0.4 0.8 0.1 0.4-0.3 0.4-0.6 0.6-0.3 0.9 0.6 0.4-0.8 0.7-0.4 0.9 0 1 0.6 1.4-1.5 1.9 0.4 1.9 1.2 1.3 1.1-1.3 0.6-2.8 2.8-1.9 2.4-0.2 0.6-1.2 1.8-0.3 1 0.2 0.8 0.8 1.1 0.2 0.5-0.5 3-1.1 3.7-0.4 3.5 1.4 2.6-2 4.7-0.3 2 0.3 1.5 1.4 3.7 0 2.1-2 3.4-0.4 0.7-0.5 3.2-1.2 1.4-3.4 2.6-0.7 1.5-0.3 0-1.5 0.6-1-0.7-1.3 0.1-1.2 0-1.2-1.3-0.1-1.3 0.1-1.1-0.4-0.9-1.6-0.2-1.3 0.3-2.2 1.7-6.3 1.1-1 0.4 0.7 0.5 0.9 0.2 0.9 0.1 1-0.1-0.4 1-0.7 0.8-1.3-0.3-1 0.4-1 0.8-1.1 0.4-0.2-0.7 0.1-1.4-0.4-1.5-1.6-0.7-0.6 1.7-1.4 0.6-1.4 0.1-0.7 0.3-0.4 1.3-2.3 3.1-0.8 0.8-0.5-0.8-1.7-0.8-0.7-0.9 0.8-0.5 0.2-0.6-0.3-0.4-0.7-0.3-0.7 0.3-1.9 0.8-0.3-0.1-0.5-1.6-1.1-0.7-1.5-0.2-1.7 0.3 1.3 0.6 0.5 0 0 0.6-1.2 0 0 0.7 2.1 0.4 1.5 1.3 0.5 1.3-0.9 0.6-2.1 0.4-1.3 0.8-1.1 0.3-1.6-0.9-0.1 1.6 0.2 1.8-0.3 1-1.6-0.7-0.5 1.2-1.8-2.4-1.1-0.5-1.7 0.5 0 0.6 1.1 1.1-0.3 2 0.1 1.2 2.5-1.2-0.4 1.1-1 0.8-2 1.2-0.8 0.3-0.8 0.1-0.6 0.3-0.2 0.7-0.1 1.6-0.2 0.6-0.3 0.6-1.3-1-1.5-0.6-1.3 0.3-0.6 1.6 0 1.9-0.2 0.5-0.5 0.2-0.3 0.4 0.5 1 0.6-0.4 1.1 0.4-1.6 2.1-2.6 1.5-2.9 0.5-2.3-0.5-1.1-1.1 0.1-0.8 0.6-0.9-0.1-1.4-0.9-0.9-1.2-0.1-1.4 0.4-1.3 0.6 0.5-1.7 0.2-1.1 0-0.3-0.5-0.1-0.5 0.2-0.8 0.5-2-0.4-1.1 0.1-1 0.3 1 0.8 0.3 0.7-0.1 1.9-0.9 0.6-5.5-1-0.6 0.7 0 0.6 0.1 0.8-0.1 0.7-1 0.3 0 0.5 2.4 2 0.9 0.6 4 1 0.7 0.5-0.6 0.6-1.3 0.5-2.2 0.4-4.3 2-2.5 0.3-0.8-1.7-0.6 0-0.6 0.9-1.8 1.3-0.6 0.9 2 0 1.3 0.7 0.6 1-0.3 1.4-1.7 1.4-3.5 0.9-1.3 1.3 1.4 0.4 1.1 0.8 2.2 1.8-2.5 1.8-1.4 0.6-1.4 0.1 0.9-1.4-0.1-0.9-2-2-1 1-1.8 2.7-0.5 0.3-1.1 0.3-0.5 0.3-0.5 0.8-0.1 1.3-0.2 0.7-1.5 0.7-0.3 0.2 0.3 2-0.3 0.8-0.5 0.2-0.8 0.1-0.7 0.4-0.4 0.8 0 0.8-0.2 0.9-0.3 0.4 0.3 1.9-1.3 1.4-1.7 1.1-0.9 0.9-1.1 0-2.3 0.4-1.2 0.8 1.7 1.6-0.2 0.3-0.4 0.9 1.6 0.4-1.3 1.5-4.1 3.3-3.6 4.5-1.8 1.1-0.7 1.1-0.2 1.2 0.8 1 0.6-0.2 0.8-0.5 0.9-0.5 1.2-0.1 1.4 0.5 0.2 0.4-0.5 0.8-0.5 1.4 0 1.4 0.1 1.2 0 1-0.7 1.3-1.4-0.5-1 0.2-0.1 0.8 1.3 0.7 0 0.7-0.4 0.2-0.2 0.3-2.4-1.1-0.5-0.1-0.9 0.4-0.1 0.5 0.2 0.6-0.7 1.9 0 0.7-0.4 0.5-1 0.4-0.7-0.1-0.7-0.3-1-0.9 0 0.6-0.1 0.7 0.1 0.6-1.4 0.1-0.1 0.8 0 1-2.1 0.9-1.3 1.6-0.9 0.5 0.4 0.6 0 0.3-0.4 0.9-1.2-0.3-0.8 1-0.6 1.5-0.7 1.2-3 3.6-1.3 1.1 0.4 0.2 0.7 0.6 0.6 0.4-1.7 0.6 0 0.6 0.5 0-0.4 0.5-0.6 0.8-0.2 1 0.7 0.7 1 0 1.1-0.6 1-0.7 0.9-0.5-0.2 1.3-0.7 1-0.9 0.8-1.1 0.6 0.3 0.7-0.5 0.5-0.8 0.4-0.8 0.3 0 0.6 0.3 0.7-0.3 0.4-0.7-0.1-0.9-0.5-0.6 2.1-2.7 2.6-0.1 0.9-1.3 0.4-4.1 0.2-0.9 0.4-3.1 2.1-2-0.7-8.1 3.7-2 0.3-1.4 0.3-1.1 0.7-2.5 2.3-1 0.3-1.2-0.2-4.9-1.6-1.3-0.7-1.2-1-1.3-1.5-1.2-1-1.4-0.5-2.2-0.4-3.6-1.2-6.6-3.6-3.9-0.7-3.1 0.4-0.7-0.1-0.5-0.6-0.7-0.5-0.8-0.3-3.9-0.5-0.8-0.3-0.5-0.5-0.4-0.9-0.7-0.7-0.7-0.3-0.8 0.4-3 2.3-0.8 0.4-2 0.4-1.4 0.8-1.5 0.4-0.5 0.2-0.1 0.4 0.2 1.1-0.1 0.4-1.2 0.3-1.6 0-1.3 0.4-0.6 1-0.5-0.6-4.8 2.5-0.9 0.1-3.7-0.1-5.2-2.5-0.8-1-0.6-1.5 0.1-1.3 1.3-0.5-1.2-1.5-3.8-1.7-0.8-1.4-0.8-0.9-1.7-1.1-1.9-0.9-3.2-0.9-1-0.9-1.1-0.7-2.1 0.2-4.5 2-5.7 1.1-0.6 0.2-0.7 0.8-0.5 0.2-0.5-0.1-0.8-0.4-0.5-0.1-6.4 0-0.9-0.2-2.8-1.1-2.7 0.1-0.8-0.1-1.7-0.8-2.6-2-1.6-0.8-0.6-0.6-0.5-1.1-1-1-1.1-0.7-1.2-0.3-1.4-0.1-0.7-0.3-1.1-1.5-0.4-0.3-1-0.5-0.4-0.4-0.1-0.5 0.1-1.1-0.3-0.6-1.2-1.3-0.6 0-0.8 1.1-0.2-0.6-0.4-0.7-0.6-0.4-0.8-0.2-0.2-0.4-0.7-2.7-0.3-0.1-1.5-1.4-0.3-0.4-1 0-0.6-0.1-0.4-0.4-0.6-0.6 0-0.7 0.6-1.5-0.3-0.3-0.9 0.1-1.6 0.6-0.8-0.1-1.3-1-1-1.4-0.1-0.1 0.8-6.1 0.5-2 1.3-1.5 0.9-0.8 0.4-0.5 0.6-0.9 0.2-0.7 0.1-0.7-0.1-0.5-0.3-0.9-0.1-0.7 0-4.9 0.2-0.9 0.2-0.7 0.6-0.7 1.4-1 0.3-0.3 1.4-2.5 0.9-1 1.6-3 0.1-0.6 0-0.5-0.4-0.7-0.5-0.6-0.3-0.7-0.1-1 0.3-2.3 0.3-1 0.4-0.7 0.7-0.6 2.3-1.2 0.5-0.5 0.6-0.7 1-1.6 0.5-1.1 0.2-0.8 0-0.6-0.1-0.4-0.4-1-0.1-0.6 0.2-1.3 0.7-0.6 0.8-0.4 0.8-0.3 4.4-2.1 0.7-0.7 0.7-1 1.5-2.5 0.5-1.2 0.1-0.9-2.5-8.5-0.4-0.8-0.2-1 0-1.4 0.8-4.3 0.1-1.1-0.1-0.8-0.3-0.3-0.7-0.5-1.3-0.7-1-0.3-9-1.1-0.6-0.2-0.4-0.4-1.1-2.3-0.2-0.9-0.3-1.5-0.2-0.4-0.6-0.6-3-2.1-2.3-2.1-0.5-0.5-0.2-1.1 0.1-0.7 0.5-0.1 1.3-0.3 0.8-0.3 1.1-0.8 8.6-11.7 0.6-0.6 1.6-0.9 0.3-0.2 1.3-1.2 0.4-0.2 1.4-0.3 0.4-0.2 1.1-0.7 1.2-1.3 0.6-0.7 0.3-0.3 0.8-0.4 1.4-0.3 1.2-0.6 0.5-0.6 0.6-1.1 2.1-5 0.3-0.3 0.8-1.4 1-2.4 0.3-0.6 0.6-0.6 0.6-0.7 0.7-1.2 0.3-0.3 0.7-0.5 1.1-0.6 0.7-0.6 0.2-0.4 0.8-0.8 0.5-0.6 0-0.5-0.2-0.3-0.4-0.3-1-0.3-1.1-0.1-1-0.3-0.7-0.5-0.6-0.7-1.7-1.4-0.6-0.6-0.6-1.2-0.1-1.3 0-1 0.1-0.6 0.3-0.3 0.8-0.6 0.4-0.4 0.4-0.6 0-0.4-0.6-0.8-0.2-0.6 0-1.2 0.1-0.7 0.3-0.5 0.4-0.2 0.5-0.6 0.7-0.9 0.8-2.4 1.3-9.5 0-1.1-0.1-0.5-0.4-0.8-0.5-0.6-0.7-0.6-0.9-0.4-0.5 0-0.4 0.1-0.3 0.3-0.6 0.6-0.8 1.1-0.6 0.7-0.7 0.4-1 0.1-1.1-0.1-0.8-0.4-0.7-0.6-0.6-0.7-1.2-1.8-0.2-0.5-0.3-1.5 0.1-0.6 0.3-0.4 1.1-0.7 0.4-0.4 0.3-0.5 0.2-1.2-0.2-0.9-0.5-0.7-0.6-0.5-0.8-0.4-1.9-1.3-0.4-0.3-0.2-0.5-0.2-0.8 0.1-0.6 0.3-0.4 2.3-1.9 0.4-0.4 0.4-0.6 0.4-1.1 0.1-0.6-0.1-0.6-0.5-0.7-1.4-1.4-0.3-0.9 0.1-0.5 0.6-0.7 1.6-0.6 0.5-0.1 1.2 0.4 0.6-0.5 1.2-2.3 0.2-0.7 0.4-1.2 0-0.9-0.2-1.3 0.1-0.7 0.1-0.5 0.3-0.4 0.6-0.6 0.8-0.9 0.4-0.7 0.2-0.6 0-0.6-0.3-0.8-1-1.5-0.4-1.3 121.3 3.3 4.9 0.6 3.4 0.8 11.3 6.6 0.9 0.8 0 0.6-2.1 1.7-0.3 0.6 0.8 0.2 20 1.1 2.1 1.3 4.5 19.3 0 1.1 1 0.2 0.8 1.3 1.4-0.8 0.3-0.8 7-12.9 0.3-0.6 0.3-0.5 0.4-0.1 1.7 0.6 1.3 0.6 0.4 0.1 0.4-0.2 0.4-0.9 0.2-0.3 0.4-0.3 0.9-0.3 1.2-1.1 0.8-0.5 0.4-0.8 0.4-1.5 0.2-0.3 1.1-0.6 0.2-0.4 0.2-1.2 0.4-0.4 0.7-0.2 1.2-0.1 0.6 0.2 0.1 0.5-0.1 0.8 0.1 0.3 0.5 0.3 4.4 1.4 0.4 0.4 0.2 0.4 0.1 1 0.2 0.4 0.3 0.3 1.4 0.6 0.2 0.4 0.1 0.5-0.1 1.7 0 0.5 0.5 0.7 0 0.3-0.2 0.3-0.9 0.9-0.2 0.3 0.3 0.8 1 1 0.9 0.8 0.5 0.6 0.3 0.7 0.6 0.8 0.8-0.9 0.5-0.3 1-0.1 0.5 0.1 0.9 0.5 0.6 0.1 0.3-0.2 0.6-0.9 0.3-0.2z" id="ZMB522" name="Southern" data-id="ZMB522" data-name="Southern">
 </path>
 <path d="M305.5 555.8l-0.6 0.2-0.6 0.4-0.9 1-1.5 2.3-0.5 1.2-0.8 2-1 1.6-0.2 0.6-0.1 0.8 0.1 1.4 0.5 1.8-0.2 2.8 0 1.5-0.1 0.5-0.5 0.3-1 0.3-0.4 0.2-0.6 0.7-0.3 1.1-0.1 1-0.2 0.8-0.5 0.8-0.7 0.9-0.3 0.7-0.1 0.9-0.1 1.7 0.1 0.9 0.2 0.6 2.5 4.6 0.2 1-0.1 3.8-0.3 0.8-0.5 1-1.2 1.9-1.3 1.3-0.3 0.4-0.1 0.9 0.2 2.5-0.1 0.6-0.3 0.5-0.7 0.4-0.6 0.1-1-0.2-1 0.1-0.4 0.1-0.8 1-2.6 2.4-0.3 0.3-0.2 0.5 0 0.8 0.4 3.3-0.1 6 0.4 1.3 1 1.5 0.3 0.8 0 0.6-0.2 0.6-0.4 0.7-0.8 0.9-0.6 0.6-0.3 0.4-0.1 0.5-0.1 0.7 0.2 1.3 0 0.9-0.4 1.2-0.2 0.7-1.2 2.3-0.6 0.5-1.2-0.4-0.5 0.1-1.6 0.6-0.6 0.7-0.1 0.5 0.3 0.9 1.4 1.4 0.5 0.7 0.1 0.6-0.1 0.6-0.4 1.1-0.4 0.6-0.4 0.4-2.3 1.9-0.3 0.4-0.1 0.6 0.2 0.8 0.2 0.5 0.4 0.3 1.9 1.3 0.8 0.4 0.6 0.5 0.5 0.7 0.2 0.9-0.2 1.2-0.3 0.5-0.4 0.4-1.1 0.7-0.3 0.4-0.1 0.6 0.3 1.5 0.2 0.5 1.2 1.8 0.6 0.7 0.7 0.6 0.8 0.4 1.1 0.1 1-0.1 0.7-0.4 0.6-0.7 0.8-1.1 0.6-0.6 0.3-0.3 0.4-0.1 0.5 0 0.9 0.4 0.7 0.6 0.5 0.6 0.4 0.8 0.1 0.5 0 1.1-1.3 9.5-0.8 2.4-0.7 0.9-0.5 0.6-0.4 0.2-0.3 0.5-0.1 0.7 0 1.2 0.2 0.6 0.6 0.8 0 0.4-0.4 0.6-0.4 0.4-0.8 0.6-0.3 0.3-0.1 0.6 0 1 0.1 1.3 0.6 1.2 0.6 0.6 1.7 1.4 0.6 0.7 0.7 0.5 1 0.3 1.1 0.1 1 0.3 0.4 0.3 0.2 0.3 0 0.5-0.5 0.6-0.8 0.8-0.2 0.4-0.7 0.6-1.1 0.6-0.7 0.5-0.3 0.3-0.7 1.2-0.6 0.7-0.6 0.6-0.3 0.6-1 2.4-0.8 1.4-0.3 0.3-2.1 5-0.6 1.1-0.5 0.6-1.2 0.6-1.4 0.3-0.8 0.4-0.3 0.3-0.6 0.7-1.2 1.3-1.1 0.7-0.4 0.2-1.4 0.3-0.4 0.2-1.3 1.2-0.3 0.2-1.6 0.9-0.6 0.6-8.6 11.7-1.1 0.8-0.8 0.3-1.3 0.3-0.5 0.1-0.1 0.7 0.2 1.1 0.5 0.5 2.3 2.1 3 2.1 0.6 0.6 0.2 0.4 0.3 1.5 0.2 0.9 1.1 2.3 0.4 0.4 0.6 0.2 9 1.1 1 0.3 1.3 0.7 0.7 0.5 0.3 0.3 0.1 0.8-0.1 1.1-0.8 4.3 0 1.4 0.2 1 0.4 0.8 2.5 8.5-0.1 0.9-0.5 1.2-1.5 2.5-0.7 1-0.7 0.7-4.4 2.1-0.8 0.3-0.8 0.4-0.7 0.6-0.2 1.3 0.1 0.6 0.4 1 0.1 0.4 0 0.6-0.2 0.8-0.5 1.1-1 1.6-0.6 0.7-0.5 0.5-2.3 1.2-0.7 0.6-0.4 0.7-0.3 1-0.3 2.3 0.1 1 0.3 0.7 0.5 0.6 0.4 0.7 0 0.5-0.1 0.6-1.6 3-0.9 1-1.4 2.5-0.3 0.3-1.4 1-0.6 0.7-0.2 0.7-0.2 0.9 0 4.9 0.1 0.7 0.3 0.9 0.1 0.5-0.1 0.7-0.2 0.7-0.6 0.9-0.4 0.5-0.9 0.8-1.3 1.5-0.5 2-0.8 6.1-1-0.7-1.8 0.8-1.1-1.6-2.2-1.1-5.9-1.2-2.8 0.1-0.9-0.2-0.5-0.4-0.5-0.4-0.4-0.2-7.3-1.1-3.8 0-0.9 0.2-0.6 0.6-0.4 0.7-0.9 0.5-1.3 1.2-0.9 0.4-0.9 0-0.7-0.1-1.4-0.5-0.7-0.5-0.5-0.7-0.7-0.5-2.2-0.4-1.6-0.8-2.6-0.4-3.6-1.3-1.5-0.3-1.5 0.2-3.6 1-0.7 0.3-0.9-0.5-4.5-0.2-1.6-0.2-1.6 0.1-2.5 0.5-11 2.3-3.6 0.7-7.3 1.6-14.6 3-11 2.2-13.5 2.9-1.6 0-6.5 1.3-0.5-1.2 0-1.1 0.6-1.3-2-1.6-1.6-2-1.7-1.3-1.3-0.6-1.2-0.4-2.8-0.2-1.4 0.2-1.5 0.4-1.5 0.1-1.5-0.4-1-1.1 0-1.3 0.1-1.4-0.2-1.4-0.9-1-3.8-1.5-2-1.6-2.1-2.5-1.6-2.6-0.7-2.4-0.5-1.1-3.6-3.8-1.2-0.7-4.1-1.2-5.1-2.2-2.3-1.5-3.4-3.1-2.7-1.5-1.1-0.9-0.8-1.3-0.9-4.2-1.2-2.4-1.8-2.3-3.8-4.2-1.2-0.9-5.1-2.1-1 0-0.5-0.4-0.4-0.7 0-1.6-0.2-0.7-1.1-1.2-2.7-0.8-1.2-0.8-0.7-1.1-0.9-2.5-6.2-9.9-0.7-0.8-0.8-0.5-1.3-0.2-0.5-0.3-0.5-0.5-0.6-1.1-1.3-1.8-0.6-1.2-0.8-0.8-2.3-0.4-0.3-0.2-0.7-0.7-0.4-0.3-0.6 0.5-0.8 0.2-1.3 0.5-0.6 0.1-1.2-0.4-7.3-6.1-0.6-1.2-0.2-1.5-0.4-1.3-0.9-0.6-1.7-0.2-0.3-0.6 0.2-1 0.1-1.2-0.5-1.3-1.5-2.4-0.4-1.2 0.1-1.4 0.5-1.7 0.7-1.6 0.8-1.1 0.1-1.1-1.4-0.7-2.8-0.6-0.2-0.6 0-1.9-0.1-0.9-0.3-0.4-1.1-0.9-0.3-0.5-0.4-1.3-0.2-1.2-0.3-1.1-0.9-1.2 0.7 0 2.2 0-3-4.9-2.3-2.8-0.2-2 0-12.4 0-0.3 0-4 0-9.1 0-9 0-9.1 0-9 0-12-0.1-151.6 1.6 0.2 2.5 1.3 1.1 0.7 2.1 2.1 1.3 1.1 1 0.4 0.8 0.1 1.5 0 1.4-0.3 2.5-1.1 0.6-0.7 0.4-0.8 0.5-0.6 1.2-0.7 0.6-0.6 0.9-1.6 0.6-0.5 1-0.2 0.7 0.2 0.8 0.3 2.1 1 0.9 0.6 12.4 10.6 5.8 3.6 0.5 0.4 0.7 1.7 0.3 0.3 2.1 1.4 0.5 0.2 0.7 0.1 2.5 0.2 0.7 0.7 1.5 0.4 0.4 0.2 0.5 0.6 0.4 0.7 0.1 0.7 0.5 0.7 1 0.4 2.1 0.4 0.9 0.5 0.7 0.6 0.8 0.4 1.1 0.3 1-0.2 0.6-0.9 0.2-0.5 1-5.1 0.1-0.5 0.4-0.3 0.4-0.1 4-0.2 0.8-0.4 2.1-2.2 0.3-0.2 0.6-0.1 0.7 0.1 2.1 0.9 7.5 4.9 1.1 1.2 0.5 0.7 0.5 1.3 0.3 1 0.4 0.6 0.6 0.3 0.5 0 1.5-0.3 2.2-1 1-0.2 0.6 0.1 0.8 0.2 1 0.6 0.5 0.5 0.2 0.5 0 1.3 0.1 1.1 0.2 0.9 0.4 0.8 0.5 0.7 1.2 0.8 0.8 0.2 6.6 0.7 0.5 0.1 0.3 0.3-0.4 0.8-1.1 1.4-1.9 2.9-0.4 1.8 3.5-1.3 0.4 1.1 0 0.6-0.4 0.8 3.5 0 1.4-0.8 2.1-1.9 1.5-0.4 1.1 0.1 0.8 0.2 0.8 0.1 1.1-0.4 0.9-0.6 2.6-2.4 2.4-1.2 8.8-2.3 1.5-0.9 3-2.3 3.5-0.9 2.9-1.6 1.4-0.4 1.4 0.5 1.3 1 1.5 0.4 2.8-1.7 1-0.3 0.9-0.1 1-0.4 2-2 0.9-0.4 0 1.7 0.6 1 1.3 0.3 1.6 0 1.8 0.7 0.7 0.1 0.9 0.1 0.7-0.4 0.9-0.2 0.7-0.5 0.5-0.1 0.7 0.2 1.3 0.6 0.8 0.3 1 0.2 0.8-0.1 0.9-0.3 1.1-0.7 0.9-0.9 0.8-1 0.3-0.1 0.4 0.1 0.7 0.8 0.3 0.2 0.6-0.2 0.3-0.5 0.5-1.5 0.6-0.7 0.4-0.1 0.5 0.1 0.6 0.6 0.6 0.2 0.7 0.1 1-0.2 0.7-0.4 0.3-0.2 0.8-1.2 0.3-0.3 0.4-0.2 1.3 0.1 0.5 0 0.5-0.2 0.5-0.7 0.4-0.2 0.9-0.3 1.1-0.6 0.4-0.1 0.5 0.1 1.3 1.2 1.6 1.1 0.7 0.4 0.9 0.2 0.7 0 0.5-0.1 0.2-0.3 0-0.4-0.3-0.4-0.7-0.8 0-0.3 0.5-0.7 0.2-0.3 0.2-0.8 0.4 0 0.5 0.2 0.9 0.9 0.4 0.6 0.2 0.6 0 1.6 0.5 0.5 0.7 0.4 3.3 1 0.4 0 0.7-0.4 0.5-0.6 0.3-0.1 0.7 1.3 0.3 0.2 0.6 0 0.9-0.9 0.5-0.1 0.6 0.1 1.2 0.1 0.9-0.1 0.2-0.3-0.1-0.3-0.7-0.9 0.1-0.3 0.8-0.2 0.4-0.3 0.5-0.7 0.3-0.1 1.9 2.1 0.4 0.5 1 0.9 1.1 0.6 0.7 0.8 0.5 0.8 1 0 0.5 0.1 0.9 0.4 0.4 0 0.3-0.1 0.2-0.4 0-0.4-0.2-0.9 0-0.4 0.3-0.2 1.9 0.4 0.1 0.6-0.2 1.6 0.1 0.7 0.3 0.2 0.4-0.1 0.3-0.4 0.1-1 0.3-0.9 0.2-0.3 1.3-0.5 0.6-0.5 0.3 0 0.8 0.5 2 2.4 1 0.9 0.4 0.6 0.5 0.8 0.2 0.9 0.6 1.6 0.1 0.5-0.1 2.3 0 0.5 0.3 0.9 0.5 1.2 0.5 0.7 0.4 0.4 0.7 0.4 4.4 1.5 1.7 0.2 1.9 0.6 2.1 0.3 0.5 0.2 9.6 4.9 1.5 0.5 0.9 0.2 3.3-0.6 0.6 0.1 0.6 0.5 0.9 1.1 0.4 0.7 0.2 0.7 0 3.2-0.4 1.6-0.3 0.9-0.7 1.2-0.8 1.1-0.3 1-0.4 2-0.2 3.8-0.3 0.9-0.9 1-1 0.8-2.2 1.1-1.9 0.6-0.7 0.5-0.5 0.8-0.1 1.1 0.2 2 0 0.5-0.4 2.8 0.2 1 0.5 1.2 1 1.4 1.8 2.1 0.7 0.5 1.3 0.8 0.7 0.2 0.6 0.1 1.4-0.1 1.6-0.6 0.8-0.1 0.8-0.1 4 0.3 0.9 0 3.2-0.8 1.7-0.7 1.2-0.6 1.3-0.4 3.7-0.8 0.8-0.3 1.6-0.8 0.4-0.2 1.2 0 5.5 0.5 1.6 0.4 1 0.4 0.3 0.3 0.8 0.5 0.5 0.2 0.7 0.1 1.2-0.1 1.6-0.1 1.9-0.9 0.4-0.4 1.1-0.3 2.1 0.1z" id="ZMB523" name="Western" data-id="ZMB523" data-name="Western">
 </path>
 <path d="M967.5 297.8l-4.2 1.1-3.4 1.5-1.6 2.4 0 4.2-5.7 9.5-3.6 8.1-11.5 3.6-19.3 5.9-10.8 0.7-5 0-3.6 3.7-1.4 5.1-4.3 4.4-5.1 0-7-1.5-0.1 1.8-0.5 1.8-0.7 1.8-1.5 1.9-0.2 0.8-4.3 3.4-1 1.1-1.2 2.7-0.5 0.9-0.8 0.9-0.6 0.5-0.3 0.6-0.1 1.3-0.2 0.5-0.9 1.1-0.2 0.7 0 3.9-1.8 8.5-0.9 1.1-0.3 2.1-0.4 0.7-0.4 0.6-0.2 0.9 0 2.9-0.6 2.9 0 1.1-0.2 0.9-0.8 1.8-0.4 1.8-0.5 0.4-0.7 0.2-0.8 0.5-0.8 1.4-1.4 4-0.2 1.6-0.8 0.8-1.7 0.7-1.8 0.5-0.9 0.1-0.3 0.8-0.4 0.5-1.1 1.1-0.4 0.2-0.9 0-0.5 0.4-0.1 0.4 0.2 0.9-0.1 0.5-0.4 1.3-0.2 1.8 0.1 1.8 0.5 1.7-1 0.4-0.7 0.4-0.7 0.2-1.1-0.5-0.2 0.8-0.4 0.6-0.6 0.4-1.8 0.2-0.5 0.3-0.9 1.1-1.1 0.9-1.9 0.9-1.4 0.9-0.4-0.8-0.2-0.4-0.5 0-0.3 2.1-1.1 1.3-1.3 1.2-0.6 1.7-0.2 0.9-0.5 0.6-0.7 0.5-1.7 0.4-0.5 0.8-1.5 5-0.7 3.5-1 3.3-2 2.8-6.8 5.1-1.4 0.6-1.7-0.2-1.7-0.5-1.4-0.2-1.9 0.6-0.9 0.6 0-4.4 0-2.9-0.1-1.5-0.2-0.9-1-1.4-2-2.2-1.6-3.2-0.6-1.7-1.3-19.1-0.3-1.4-0.5-1.1-0.7-0.8-0.8-0.4-2.9-1.5-0.5-0.2-1.1-0.1-3.8 0-0.5 0-1.7 0.6-0.8 0.4-0.5 0.6-0.2 0.5-0.1 1.6-0.1 0.8-0.9 2-0.5 0.8-0.6 0.5-0.9 0.3-0.5 0.1-1 0-0.6 0-1.1-0.8-6.4-6.3-1.1-0.8-1.4 0-0.8-0.1-2.3-0.8-1.6-0.2-3-0.9-1.1-0.1-2.8 0.7-1 0-0.5-0.1-0.9-0.5-0.7-0.5-1.7-0.8-5.2-3.7-0.6-0.6-0.3-0.6 0.4-2.1 0-0.6-0.2-0.9-1.2-4.5 0-0.9 0.9-2.2 0.2-0.4 1.2-1.3 0.5-0.8 0.4-0.8 0-1.3-0.2-0.8-0.4-0.4-0.4-0.4-1.6-0.7-1-0.7-0.6-0.6-0.6-0.9-1.1-2.6-0.4-0.4-0.5-0.3-0.4 0.1-0.4 0.2-1 1.4-0.7 0.5-0.7 0.5-1.2 0.6-0.8-0.3-1.2-0.6-2.4-1.9-1-1-0.6-0.7-0.1-0.5 0.1-1 0.7-1.8 0.1-0.6 0-0.7-0.3-1.1-0.5-0.7-0.4-0.4-0.8-0.5-2.2-1-1.1-0.7-0.6-0.5-0.3-0.4-0.3-0.9-0.1-1 0-1 0.2-0.9 0.9-1.8 0.2-1 0.1-3.9 0-0.7-0.2-0.7-0.4-0.9-0.5-0.5-0.5-0.3-0.9-0.1-1 0.1-0.9 0.3-0.5 0-0.6 0-0.8-0.4-0.4-0.5-0.5-0.6-0.5-0.9-0.8-0.7-0.5-0.1-1.1 0-1.4 0.2-0.6 0-0.8-0.2-1.3-0.7-0.8-0.4-0.7-0.2-1.5 0-0.9-0.3-1.2-0.7-0.4-0.2-2.1-0.3-0.9-0.4-1.2-0.7-1.4-0.5-1.2-0.7-0.5-0.1-1-0.2-1.9-0.7-0.5-0.5-0.8-1.5-0.4-0.5-0.6-0.2-1-0.2-0.7-0.2-0.8-0.4-1.2-0.8-0.6-0.5-0.6-0.7-0.4-0.7-1.2-1.7-0.3-0.6-0.3-0.9-0.1-1.5-0.2-0.9-1.6-2.9-1.5-1.9-0.7-0.7-0.6-0.4-0.4 0-2 0.3-1.8 0.4-6.9 2.9-0.7 0.6-0.2 0.3-0.4 0.9-0.4 4.5-0.3 1-0.4 0.8-0.7 1.1-0.3 0.3-0.7 0.5-1.7 0.3 0-0.3 0.6-0.5 0.6-0.9 0.3-0.6-0.4-0.8 0.1-1.1 0.3-1.2 0-1-0.6-1.1-1.7-1.9-0.7-1.2-0.3-1.5 0.3-3.9-0.6-2.9-0.1-1.6 0.5-1.3 0.9-0.9 2.2-0.3 0.5-0.2 36.2-5.9 1.4-0.6 1.1-1.1 14.7-18.9 0.1-0.5-0.5-0.7-0.2-1 0.1-1 0.7-1.9 0.1-0.5 0-0.9 0.1-0.7 0.3-0.5 2.5-0.9 3.2-2.6 0.9-1.8 0.6-2 0.8-1.6 1.5-0.6 1.1-0.2 0.7-0.4 0.5-0.6 0.4-0.8 0.5-1.7 0.5-0.9 0.7-0.8 0.8-0.4 1 0.1 1.9 0.3 0.5-0.3 0.9-1.1 0.4-0.3 2-1.8 0.5-0.8 0.7-2.2 1.9-3.7 6.9-8.8 1.6-3 0.2-0.9 0.4-1 0.8-0.8 0.8-0.3 1 1.2 1.2 0.2 0.4-0.8-1.7-1.8 1.3-0.1 1-0.4 0.9-0.5 0.6-0.2 0.9-0.1 2.4-0.9 0.8-0.4 0.7-2 0.8-2.8 1.1-2.1 1.7 0-0.9 1 0.8 1 1.5 0.5 1.3-0.4 0.1-2.1 0.4-0.8 0.9 0.8 0.5 0.9 0.1 1-0.3 0.8-0.8 0.9 1.9 0 1.3-0.6 3.8-3.3 0.2-1.1 0.5-0.6 0.6-0.5 0.4-0.5 0.5-1.1-0.3-0.5-1.8-1.9-0.4-0.8 0.1-0.9 0.7-0.8 3.1 0.1 1.4-0.6-0.4-1.9-0.6-0.5-0.7 0-0.6 0.3-0.7 0.2-1-0.1-0.3-0.3-0.2-0.6-0.5-0.7-1.1-1.1-0.2-0.6 3.8-2.8 1.2-0.6 1.6-0.3 1.4 0.1 1.8 0.3 1.6 0.6 1 0.8 0.6-0.7 1.7-1 0.6-0.7 0.3-0.9-0.3-3.5 0.2-0.6 0.6-0.3 1.3 0 0.4-0.2-0.1-0.6-0.6-0.7 0.4-0.9 0.9-0.3 2.2-0.3 1.6-0.5 2.9-1.6 1.1-0.3 0.5-0.3 0.7-1.6 0.8-0.5 1 0.2 0.6 0.6 0.4 0.7 0.4 0.3 5.5-1.1-0.3-21.7-2.9-2.9-8.5-3.6-6.5-4.4-2.8-10.2-3.6-9.4-6.5-10.9-6.4-6.6 5.7-7.2 2.2-5.1 4.3-2.2 5-4.3 4.3-2.9 5.7 3.6 6.4-0.5 5.7 2.7 2.2-5.8 6.4 2.1 6.5-0.7 5.7-3.6 7.1-3.6 10.1-1.5 8.5 0.7 8.6 2.2 9.3 0.7-0.7-8.7-4.3-9.4-3.3-10.3 1.8 0.2 11.1-0.2 3.5 0.9 3.1 2.1 0.9 1.2 1.6 3.9 1.3 1.9 1.1 0.8 3.2 0.2 7.4 1.6 6.1 0.6 1.1 0.5 1.1 1.3 0.4 0.7 0.2 1.3 0.5 0.6 0.7 0.3 1.4-0.2 0.7 0.1 3.9 2.7 6.4 2.4 1.3 0.8 0.2 5.1 0.4 1.2 0.8 0.7 0.6-0.2 0.5-0.4 1-0.1 0.6 0.4 1.2 1.1 0.8 0.4 0 2.3-1.5 6.3 1 2.3 1.2 0.4 0.9-0.4 1-0.7 1.1-0.3 1 0.5 0.3 0.9 0.2 1.1 0.4 0.8 1.9 0.7 0.8-1.6 0.3-2.6 0.5-2.2 1.9 0.9 4.6 0.3 1.7 1.2 1.3 2.2 0.4 1.1 0.1 1.3-0.3 1-0.4 0.7-0.3 0.8 0.3 1.3 0.8 1.2 2.1 1.3 0.9 1 1.3 2.4 0.7 1 1 0.9 1.1 0.6 3.1 1.2 0.6 0.6 1.3 3.5 0.6 2.4-0.6 1.8-2.6 4-1.6 4.1-0.4 2.1-0.1 2.3 1.2 1.6 6.9 3.1 1.8 1.5 1.4 1.5 1.6 1.3 2.2 0.8 1.6 2.1 1.7 1.2 1.2 1.4 0.2 2.7-0.6 4.9 0.3 2.1 2.3 5.3 0.7 1.1 2.4 2.1 0.6 0.7 1.7 3.9 1.3 1.6 2.4 0.3 0 2.2 0.6 1.6 0.1 1.5-1.4 2.2-1.3 1.2-3.4 2.4-1.1 0.5-1.1 0.7-4.2 4.7-1.3 3.5-1 1.5-1.7 1.1-1.3 0.3-1.6 1.5-1.1 0.5-1.3 0-2.8-0.6-1.2 0.2-1.2 0.5-2.2 0.4-1.1 0.4-1 0.9-1.6 2.5-1.3 0.7-1 0-0.9-0.2-0.8 0.2-0.8 1.6-0.1 1.2 0.7 0.5 1.1 0 1.2-0.2 1.2 1.1 0.6 2.7 0.6 5.2 0.8 2.6 1.2 2.4 1.6 2.2 1.9 1.9 2.7 4.9-0.7 2.6-1.2 2.4-6 9.3-0.1 0.6 0.3 0.9-0.1 0.6-0.5 0.4-1.3 0.5-0.4 0.5-0.1 1.2 0.1 1.2 0 1.1-0.7 1.2-2.2-1.8-0.8 1.2 0.4 7.4-0.1 1.1-0.5 1.6-1.3 2.7 0.3 0.7 1.4 0.5 1.4 0.1 1.5-0.2 1.4 0.2 1.2 1.3 0.5 1.4 0.2 3z" id="ZMB5511" name="Muchinga" data-id="ZMB5511" data-name="Muchinga">
 </path>
 <circle cx="584.3" cy="242.6" id="0">
 </circle>
 <circle cx="672.4" cy="508" id="1">
 </circle>
 <circle cx="900.2" cy="477.8" id="2">
 </circle>
</svg>