<?xml version="1.0"?>
<!--
************* Copyright (c) 2017 Pareto Softare, LLC DBA Simplemaps.com *******************		
************* Free for Commercial Use, full terms at  http://simplemaps.com/resources/svg-license ************
************* Attribution is appreciated! http://simplemaps.com ***************************
-->
<svg baseprofile="tiny" fill="#7c7c7c" height="918" stroke="#ffffff" stroke-linecap="round" stroke-linejoin="round" stroke-width="2" version="1.2" viewbox="0 0 1000 918" width="1000" xmlns="http://www.w3.org/2000/svg">
 <path d="M959.2 146.3l-0.5 0.3-3.3 3.3-2.2 0.9-2.4 0.4-7.3-0.6-1.1-0.5-2.2-1.1-1.1-0.4-17.3-2.2-3.1 0.4-3.3 1.2-6.1 3.7-3.3 1.2-1.8 0.2-5.2-0.2-1.4 0.3-1.1 0.5-2.1 1.5-2.4 1.4-3 1.1-3 0.7-2.7 0.1-1.2-0.3-2.1-0.9-1.2-0.1-1.8 0.3-2.1 0.8-3.6 2.2-1.3 1.5-1.2 1.9-0.9 2.2-1.4 6.3-0.7 1.3-1.1 1.1-4.2 2.1-1.8 1.6-1.7 2-1.2 2.3-0.8 2.4-0.8 4.4-0.6 1.3-2.9 4.9-1.7 2.1-2 1.9-2.5 1.4-0.7 0.6-0.7 0.9-1.1 2-0.7 1-1.4 1.3-3.3 1.9-1.4 1.2-1.1 1.9-0.2 2.4 0.2 2.5 0.4 2.2 0.2 3.6-1.2 3.1-2.1 2.7-10.9 10.8-2.1 3.4-0.3 1.2-2.2 2.2-11.7 6.2-0.5 0.8-1.4 2.3-1.3 2.6-0.8 1.2-0.9 1.1-1.6-0.6-0.7 0-1.4 1-6.7 6.5-1.4 1.1-1.4 0.6-4.4-1.8-1.5 0.5-2.8 1.5-1.2 0.2-0.9-1-0.6-1.3-0.4-1.4-0.2-1.4 0.3-1.5 4.3-11.3 0.2-0.8-0.1-0.8-1-0.3-20.1-1.8-1.7 0.9-1.7 1.8-2 4.3-2.7 3.1-0.2 0.7 0.8 1.7 0.8 0.5 0.9 0.1 0.3 1.2 0.1 1-2.6 11.2-0.4 5.8-1 2.1-0.8 0.9-0.8 0.4-0.9 0.2-2.3-0.1-1.3 0.5-1.5 0.2-1.2-0.1-0.6-0.1-0.7-0.4-2.1-2-3.5-5.9-2.4-0.8-0.8 0.4-0.7 0.8-0.7 0.8-0.8 0.7-0.8 0-0.8-0.5-1.8-1.2-6-3.2-7-2.9-1.2-0.8-0.5-0.8 0-1.2 0.3-1 0.9-2.6 0.5-2.4-0.2-0.5-0.8-0.2-17.9 0.1-1.2-0.8 0-3.2 1.5-11.1 0-1.9-0.2-2.1-1.7-7.6 0.5-1.6 1.8-2.9 4.8-9.2 0.2-1.3-0.6-0.7-1-1-0.2-0.6 0.4-0.7 1.1-1 1.9-1.8 1.6-1.9 1.6-2.3 0.3-0.6 0.5-1.3 1.4-11-0.2-1.6-0.6-0.7-0.7-0.3-1.5-0.5-1.5-0.2-1.3 0.5-1.6 1-0.5 0-0.6-0.5-0.1-1.3-0.4-0.8-0.7-0.5-0.7 0-0.7 0.3-1.7 1-1.5 1.2-0.6 0.2-0.7-0.1-1.7-0.8-0.8 0-3.2 0.2-1.5-0.1-0.5-0.4-0.4-0.6-0.5-2.7-0.1-3.5 0-0.5 1.6-0.9 0.3-0.4 0.1-0.7-0.9-1.2-2.1-1.7-0.7-1-0.3-1.1-0.7-11.7 0.2-1.7 0.6-1.3 2-2.6 0.6-1.2 0.2-0.8-0.1-1-0.3-1.2-0.9-1.7-0.6-0.9-0.7-0.5-1.3-0.7-1.1-0.7 0.8-2.2-0.1-0.9-1.9-4.4-0.7-0.6-1-0.5-4.1-2.5-0.7-0.3-1.5-0.2-0.6-0.3-1.7-1.1-2-0.9-0.6-0.4-0.4-0.6-1-1.9-1.3-2-0.2-0.9-0.1-1.1 1-5.7 1-3 1.1-1.8 0.5-1.3 0.9-4.2 0.3-3.4 0.6-1.7 1.6-2.9 0.3-0.7 0-1.2-0.2-1.5-0.8-2.9-0.7-1.7-1-1.8-0.9-0.5-0.8-0.2-7.3 0.4-0.7-0.1-0.9-0.6-2.2-2.5-0.5-0.9-1.1-3.5-0.5-1.1-0.7-0.6-0.7-0.3-1.7-0.2-0.8 0-4.6 0.5-1.3 0.6-0.9 0.9-0.4 1.4 0.1 0.7 0.6 2.7 0.1 0.9-0.5 1.3-0.9 1-1.1 0.6-2.8 0.7-1.1 0.7-1.2 1.5-0.6 0.3-0.7 0-2.8-0.7-1.5 0.1-1.3 0.5-0.9 0.9-0.8 2-0.4 0.5-0.5 0.4-1.4 0-1.4-0.4-1.3-0.7-0.2-0.7 0.1-1.4 2.2-5 0.8-1.3 0.7-0.6 1.5-1.1 0.4-0.5 0.4-0.8 0.2-1.1 0.1-1.8-0.7-4.3 0-0.9 0.2-1 0.4-1.1 1.6-2.6 0.6-0.6 3.3-2.2 0.5-0.6 0.2-0.8-0.1-1.3-0.3-0.7-0.6-0.4-0.7-0.1-1.4 0.1-0.6-0.1-1-0.8-0.8-1.1-0.1-0.7 0-1.4-0.2-0.9-0.9-0.8-0.7-1.1-0.2-0.6-0.3-1.4 0-1.2 0.5-3.4-0.1-1.2-0.4-0.7-2.7-1-0.6-0.4-0.9-0.8-0.7-1.2-0.2-0.7 0-1.2 0.7-0.9 33.3-28.9 1-1.7 0.5-1.9-1-2.9-0.7-1.3-1.5-1.8-0.5-1.9-0.1-5.3 0.3-1.5 4.1 1.8 3.6-0.1 5.1-2.1 0.2 10.7 0.2 12.6 0.4 25.1 14.3-0.1 9.2 0 34.5-0.3 5.7 1.2 5.1 3.7 2.1 2.2 1.9 1.4 2.1 0.3 2.8-1.2 1.5-1.3 2.4-2.7 1.9-1 1.1 0.3 1 0.8 0.9 0 1.1-1.8 3.2-2 5.6 0.4 13 3.1 2.4 0.9 2.1 1.5 1.8 2.3 2.4 4.5 1.6 1.8 2.5 1.4 1.2 0.9 0.6 1.2 0.4 1.3 0.8 0.8 0.5 0.1 1.5-0.3 0.6 0.4-0.2 1.2 0.2 0.4 2.5 0.4 2.8 0 2.5 0.4 1.9 1.3 4.9 2.5 21.3 1.4 3.2 1.4 3.5 2.9 7.7 8.5 2.5 2.1 5.3 2.9 1.5 1.2 1.2 2.4 0.6 5.1 1.1 2 2 1 13.3 2.1 25.2-0.6 10 1.5 13.2 5.3 20.2 8.2 15.3 6.2 1.4 1.4 0.6 1.9 0.1 3 1.3 5.3 3.4 2.6 0.7 0.3z" id="ZWE524" name="Mashonaland Central" data-id="ZWE524" data-name="Mashonaland Central">
 </path>
 <path d="M723 312.1l3.4-0.7 4.2-1.5 0.5-0.6 0.2-0.7-0.4-1.3-0.6-0.9-0.6-0.8-2.7-1.5-0.7-0.6-0.3-0.8 0.2-1.1 0.8-1.8 0-1.5-0.3-0.9-0.5-0.6-0.3-0.7 0-1.1 0.2-1.5 0.3-0.9 0.6-0.6 1.2-0.3 1.4-0.6 1.5-1.1 3.5-4.2 1.5-4.2 2.1 2 0.7 0.4 0.6 0.1 1.2 0.1 1.5-0.2 1.3-0.5 2.3 0.1 0.9-0.2 0.8-0.4 0.8-0.9 1-2.1 0.4-5.8 2.4 0.1 0.6 0.3 0.4 0.5 0.2 1 0.4 1 0.5 0.9 0.9 0.4 2.4 0.4 4.2-0.1 1.2 0.3 0.6 0.6 0.4 1.5 0.2 1.4-0.1 1.5-0.6 2.3 0 0.9 0.3 0.9 0.8 1.7 0.2 0.8-0.1 1.5 0.1 0.8 0.3 1.4 0.3 1.1 1.2 2.6 0.2 1.1-0.3 0.7-0.5 0.8-1.3 1.3-0.5 0.9-0.2 0.9-0.1 1.4-0.7 0.8-1.1 0.7-4.7 2.1-0.1 0.8 0.5 2.3 0.1 1.5-0.1 0.6-0.5 2.3-1.2 1.4-1.8 0.9-0.4 1-0.1 0.6 0.4 0.6 1.2 0.9 0.1 0.3-0.4 0.5-2.2 1.7-0.7 0.3-1.6 0.2-0.9 0.2-2.2 1.2-0.9 0.2-0.8-0.2-1.2-0.5-2.9-2.6-6.2-4.1-4.9-2.1-1.6-0.4-2.5-1-3.4-3.2z" id="ZWE525" name="Harare" data-id="ZWE525" data-name="Harare">
 </path>
 <path d="M361.2 195.5l-0.1 1 0.7 1 1 0.7 1.8 0.7 0.7 0.6 0.5 0.8 0.6 1.5 0.4 1 0.6 0.7 0.9 0.3 0.8 0 1.3-0.2 0.7 0.1 1.4 0.5 0.6 0.4 0.3 0.5-0.1 0.9-0.4 1.6-0.1 0.8 0.2 0.8 0.3 0.9 0.8 1.1 0.4 0.9-0.1 1.4-0.6 1.5 0.1 0.7 0.3 0.8 0.8 1 0.5 0.9 0.1 1.1-0.1 2.3 0.7 2.2 0.2 1.3 0.3 1.2 0.5 0.8 2.5 1.9 1.2 1.5 1.4 0.9 1.1 0.5 1 0.2 1.4 1.7 1.5 5.9-0.3 4.9-0.3 1.2-1 2.7-0.1 1.7-0.2 0.6-0.9 1-0.6 2.4-0.9 2.2-0.2 0.7-0.1 1 0.1 1.1 0.5 1.7 0 2-0.3 0.6-0.9 1.8-0.7 3.2-0.7 2.1 0 1 0.8 3 0.1 1.1-0.2 0.8-3.6 3.9-2 1.7-0.8 0.9-1 0.6-0.6-0.2-0.9-0.8-1.2-0.3-1.1 0.5-3.4 3-0.2 0.7-0.4 1.6-0.6 1.4-0.1 0.8 0 1 1.5 6.3 0 1.2-0.2 0.9-1.6 3.1-1.1 2.8 0 1.7 0.3 1.3-0.2 0.8-0.4 0.6-1.1 0.6-0.5 0.5-0.4 0.5-0.2 0.7-0.3 1.6-0.6 1.3-0.9 1-2.1 1.6-0.8 0.9-0.1 1 0.2 0.8 0.6 2.1 0.3 1.9 0.3 0.8 0.6 0.7 1.2 0.8 0.8 0.1 2-0.5 0.7 0.1 0.5 0.5 0.3 1-0.1 2.7 0.2 1.5 0.7 2 0.2 0.7-0.1 0.7-0.6 1.3-0.5 0.5-1 0.7-0.9 1-0.2 0.6 0.2 0.9 0.5 0.8 1.3 0.9 1.1 0.4 2.6 0.6 1.3 0.9 0.4 1-0.3 0.4-0.6 0.3-6.9 0.8-3.5 0.8-0.7 0.4-0.5 0.7-0.5 39.4 0.2 1.9 0.5 1.9 1.4 1.2 1 0.7 0.9 0.3 0.9 0.1 1.6 0.1 6.8-0.9 0.8 0 0.7 0.1 2 1 1.6 0.4 5.2 0.3 1.7 0.3 2.3 0.6 12.8 0.4 1.6 0.4 0.8 0.1 1.5-0.1 3-0.6 6.6 0 2.4 0.5 1.8 0.1 5.2-0.3 1.1-0.2 4-1.3 0.8-0.1 8 0.1 0.7-0.2 2.3-0.1 1.5-0.3 2.6-0.9 0.7-0.1 1.7 0.1 2 0.8 2.3 0.7 1.9 0.2 47.7-0.5 1.2 0.2 0.9 0.6 1.7 3.2 0.5 1.5 0.1 1.2-0.6 1.5-1.2 0.9-22.3 9.5-7 1.7-1.2 0.6-0.9 1.2-0.1 2.4 7.5 34.1 0.5 1.6 0.7 1.5 1 1 0.9 0.6 1.6 0.5 0.9 1 1 1.4 2.7 4.7 0.5 1.1 0 1.2-0.4 1.9-0.3 0.6-0.8 1.1-0.6 0.6-0.4 1.3 0 3.8 0.2 0.9 1.1 1.6 1.5 1.1 11.5 12.6 0.8 1.3 0.3 0.9 0.1 1.6-0.4 1-2.8 4.6 0.6 1 16 15.4-1 2.3-0.7 0.7-1.3 1-1 0.2-1-0.2-0.9-0.6-0.7-0.5-1.1-0.8-1.4-0.4-4.2-0.8-0.7 0-1.8 0.3-0.7 0.5-0.3 0.7-0.1 1.6 0.4 1 0.7 0.9 1.9 1.7 0.8 1.1 0.5 1 0.2 1-0.1 1.2-0.4 2.1-0.7 1.1-1.1 1.5-5.6 5-0.5 0.6-0.4 0.8 0.3 1 0.6 0.7 1.7 1.7 0.9 0.7 1 0.6 0.8 0.8 0.4 1 0.1 1.5-0.1 5.3-0.2 1.2-0.6 2-0.9 2.5-0.1 0.9-0.4 1-0.8 1.1-3 2.2-1.7 0.7-1.4 0.3-7.6-1.5-0.7 0.1-0.4 0.4-0.1 0.9 0.2 0.8 0.5 1.3 1.8 7.1 1.2 3 0 1-0.3 0.7-2.2 3.6-1.5 1.2-8.9 5.1-5.6 2.3-0.6 0.4-0.4 0.6-0.4 1 0.1 1.7 0.8 2.7 0 0.7-0.4 0.9-12.5 15.2-2.4 2.3-2.1 1.6-0.8 2.1-3.4 3.6-1.7 0.2-1-0.2-6.6-5.4 8.6-1.9 2.1-0.9 0.9-0.7 0.7-0.8 0.4-0.8 0.3-0.8 0-0.6-0.3-0.6-0.5-0.6-2.5-1.7-0.8-1 0-0.6 0.2-1 0.8-1.5 0.6-1.9-0.1-0.7-0.4-0.4-1.7-0.7-0.5-0.4-0.2-0.6-0.1-1.6-0.6-0.5-0.8 0.1-1.7 0.8-0.9 0.3-1-0.1-0.9-0.4-1.3-1.1-0.6-0.3-1.9-0.4-0.7-0.6-0.1-0.7 0.1-0.5 0.1-1.7 0.6-1.7-0.6-0.6-0.7 0.1-2.5 0.8-2.8 0.5-0.8 0.3-1.6 1.4-0.8 0.4-1 0.1-1.3-0.4-7.2-3.9-0.9-0.2-0.6 0-0.4 0.3-0.2 0.7 0.2 1.6 1.2 5 0 1.2-0.2 0.7-0.6 1.3-0.2 1-0.1 1 0.1 1.4-0.5 0.9-0.8 0.6-1.7 1-0.4 0.6 0.1 0.6 0.6 0.7 1.6 0.5 1 0.1 1.6-0.1 1 0.1 2.2 0.6 1.5-0.1 1.5-0.7 1-0.1 1 0.4 0.9 1.5 1.2 1.3 0.3 1.4-1.6 3.7-3.3 1.4-17.2 13-0.9 0.2-0.7-0.7-1.2-2.7-0.7-2.1-0.5-1.3-0.3-0.6-1.5-2.1-1.4-1.4-0.9-2-0.5-0.4-1.2-0.7-0.9-0.9-0.8-2-2.6-2.1-2.7-3-0.4-0.5-0.1-1.7-0.2-0.6-1.1-1.7-0.6-2.1-0.3-0.6-0.5-0.5-0.7-0.4-1.8-0.7-0.7-0.4-0.5-0.5-0.8-2-0.6-0.7-1 0.1-4.3 1.8-1.3 0.2-5.4 0.2-1.2 0.4-4.7 2.4-0.5-0.1-0.7-0.3-4.5-7-0.7-0.8-0.5 0.4-0.5 1.1-1.8 5.4-0.8 4.3-0.2 3.8-0.4 1.4-0.6 0.7-4 0-5.2-0.9-1.7-0.5-1.5-1-1-1.4-1-0.9-3-1.6-2.1-1.7-9.4-9.2-2.1-1.6-2.3-1.4-1-0.9-4.5-5-2.5-3.9-0.7-0.7-0.8-0.7-0.9-0.9-0.6-1.3-0.3-2.5-0.1-1.7-0.4-1.5-0.8-1.2-1.6-1.1-0.9-1.1-1.1-1.7-1.1-0.4-1.6-0.4-3.3-0.5-2.9-0.7-1.8-1-4.4-3-2.4-1.4-2.6-0.6-6.8-0.9-1 0.1-0.9 0.2-1.1 0.7-1.8 1.5-0.9 0.3-1.1 0.2-2.1-0.2-2.3-0.5-1.9 0.1-1.5 0.3-1.4-0.3-1.5-0.9-0.7-0.2-1.6-0.2-3.2-0.5-17.7 2.2-2.8-0.6-2.3-0.2-2.3 0.1-25 6.1-2 0.7-4.1 2.3-2.2 1.3-0.5-0.5-1.8-1-5.8-1.7-2.3-1-1.8-1.9-0.9-3-1.1-2.6-2.2-2.2-5.1-3.4-2.4-1-5.1-1.2-2.3-0.9-2.5-2.3-3.5-5.5-2.8-1.5-3.9-0.7-1-0.5-1.6-1 0-0.3 0.9-0.4 0.9-1.7 0.9-2.8-0.3-1.1-1.3-1.8-1-1-1.2-1-1.4-0.6-6.8-0.1-5.7-1.6-5-3.1-3.2-4.9-12.2-34.8-3-5.9-3.8-5.2-3.2-5.3-1-2.6-0.5-3.2 0.5-2.8 2-5 0.5-2.8-3.5-10.7-16-14.5-4.5-10.1-0.8-9.9-1.5-4.7-3.2-2.9-4.9-2.5-3.7-3.3-6-8.7-1.8-1.8-4.3-3-8.4-8.9-1.7-2.8-0.6-1.8-1.2-5.6-1-2.7-4.1-6.8-4.1-10.3-2.7-5-3.9-3.1-4.3-2.6-3.5-3.7-5.3-9.1-3.6-9.3-0.9-3.2 0-3.8 5.2-11.5 0.8 1 2.4 1.1 3.9 3 2.5 1.3 1.3 0.1 3.9-0.1 4.3 1.5 1.3 0.3 9.6 0 0.7 0.1 1.2 0.7 0.8 0.2 0.7-0.3 1.1-1.2 0.8-0.3 8.6-1.7 6.7-3 3.1-0.3 1.7 1 1.5 1.4 4.8 1.3 2.8 1.4 2.6 1.7 1.1 1.4 1.2 2.1 5.8 2.4 1.8 2.3-2.1 0.8-0.1 1.9 0.9 2.2 1.3 1.5 7.7 3.7 5.5 0.2 1.4-0.2 7.1-3.7 0.9 1 0.7-1.7 2.1-0.4 2.3-0.1 1.8-0.5 0.1-0.5-0.2-1.7 0.1-0.6 0.8-0.3 2.2-0.5 2.2-1.2 2.9-0.6 1.1-0.6 4.6-3.6 1.1-0.6 1.2 0.5 0.9 1.1 0.7 1.3 0.7 0.8 1.2 0.4 5.8 0.7 1.2 0.6 1.1 0.7 0.8 0.8 0.9 0.3 4.8-0.8 5.8 1.2 9.8 5.4 5.3 1.7 3.4 0.6 2.1 0.8 1.7 1.4 2 2.3 1.7 1.5 2.1 1.1 7.3 2.3 1.8 0.3 1.5-0.4 3.7-3.4 1.6-1 2.1-0.6 3.1-0.3 12-5.6 3 1 4.7-3.1 1.3-0.6 6.1-0.3 2-0.6-0.2 1.8 0.6 1.7 1.8-1.3 1.9 0.5 1.7-1.8 0.7 0.4 1.9 0.5-0.5-1.1-0.7-0.9-1.1-0.4-1.1-0.1 0.8-1.9 1-1.4 1.1-0.5 1.4 0.8 0.3-2.5 7.5-6.4 1.9-3.1-0.8-2.1-0.9-1.1 0.1-1.2 5.4-4.1 1.8-0.4 2.2 0.8 0-1.9-1-0.7-1.1-0.2-0.5-0.5 0.3-1.6 0.6-1.1 16.8-18 4.9-3.7 2.7 1.9 1-0.9 1.9 1 2.3-1.3 1.8-2.3 0.9-2-1.5 1.1-1.2 1.4-1.3 1.1-2.1 0.1 4.4-5.5-0.2-1.6 0.3-0.8 1.2-0.4 3.5 0 4.1-0.6 2.3-0.7 1-0.9 1.1-5.7-0.2-2.1 1.3 0.7 0.2 1.3-0.6 3.4 0.9 0 4.6-15.3 2.3-3.8 2.3-1.5 0.7-1.1-0.8-1.5-0.3-1.4 0.9-1.3 1.6-1 1.3-0.5-1.5-3.9 0.1-1.8 2.6 1.2 0.7-1.5 2.1-1.9 0.8-1.3-2.3-0.4 2-1.5 6.4-2.7 4.5-3.2 1.6-0.4 1.3 0.9 1 1.4 1.2 1.1 1.8-0.6-1.5-1.8-1.2-2 5.4-1.5 2.7-1.2 2-1.4 1.1-1.2 2-3.8-0.7-1.4 0-0.9 1.1-0.4 1.5 0.8 0.8 0.3 0.8-0.2 0.5-0.7 0-0.7-0.2-0.5-0.7 0.1 0.1-1.2 0.2-1.2 0.7 0 4.2 1.5 0.9 0.1 0.4 0.4 0 1.7 0.4 0.5 0.8 0.1 0.7-0.4 2.3 3.1 0.4 0.4z" id="ZWE526" name="Matabeleland North" data-id="ZWE526" data-name="Matabeleland North">
 </path>
 <path d="M657.2 434.8l6.8 1.8 2.2 0.9 2 2 3.2 2.3 5.5 2.4 2.5 0.7 1.9 0.8 2.7 2.4 0.9 0.4 2 0.4 2 0.4 3.4 0 2.7 0.4 1 0.4 1.1 0.6 0.8 0.4 0.9 0.2-0.3 0.7-1.3 2.2-0.2 0.5 0.1 0.9 0.4 1.2 2.6 4.6 3 4.2 0.7 1.1 0.4 1 0.3 1.8-0.1 0.5-1.1 0.3-0.5 0.4-0.6 1.9-0.1 0.9 0.4 1.4-0.1 1.1 0.2 0.7 0.4 0.5 2.6 2.1 1.9 2.1 2.5 2.2 1.9 2.4 1.6 1.5 0.6 0.2 3.2 0.8 3.2 1.8-17.9 14.7-1 1-0.3 0.7 0.6 0.5 0.8 0.3 3.9 0.9 1 0.5 0.7 0.8 0.1 1-0.6 1.1-1.7 1-1.3 0.6-0.8 0.6-0.3 1.2-0.2 11.1-1.4 7.2 0.4 2.2 0.6 1.8 0.1 1.4-0.1 1.4-2.3 11 0 1 0.1 3.4-0.1 0.8-1.4 4.3-0.4 2.5 0.1 1.7 0.1 1.5 0.4 1 0.8 0.7 0.2 0.5-0.2 0.6-1.1 0.6-0.9 0.4-3.7 0.9-1.6 0.1-1.6-0.1-3.8-1.1-3.5-1.9-1-0.4-1.2 0-10.9 0.3-1.2 0.7-1.4 2.8-0.1 0.6 0.5 1.5 0.5 0.6 0.1 1.1 0.6 1.4 0 0.8-1.1 1.5-3 2.2-0.3 0.6-0.3 1.3 0 0.7 0.3 0.9-0.4 1.3 0.1 0.8 1.4 0.2-0.7 0.6-1.5 0.4-19.9 0.8-1.5 0.3-9.6 4.7-1 0.7-0.4 0.7 0.7 0.9 0.3 1.1 0.2 1.8-0.9 4.8-1.5 2.9-0.7 5.6 0.1 3.9 0.3 0.3 0.9-0.3 2.2-1.5 2.1 0.2 2.1 0.6 1.6 1.1 0.8 1 0.6 1.7 0.4 2.2 0.2 2.7-0.1 2.7-1 3.4-0.1 1.4 0.4 0.8 0.6 0.3 0.5 0.5 1.7 2.9 1.4 1.4 1.3 0.6 1.4 0.5 2.4 0.1 0.7 0.2 0.5 0.3 0.3 0.6-0.1 1.4 0 0.8 0.6 1.4 0.8 1 1.1 0.8 0.7 0.3 1.5 0.2 0.6 0.3 0.5 0.4 0.4 0.6 0.5 1.4 0.4 0.6 0.9 1 2.9 1.9 0.8 1 0.2 0.7 0.3 2.4 0.4 0.8 5.2 5.9 0.2 0.8-0.1 1-0.6 1.6-0.2 1.1 0.1 1 0.7 2.1 0 0.9-0.2 2.4 0.1 0.8 0.4 1.5 0.8 1.1 1.5 1.3 0.4 0.5 0.2 0.7 0.4 1.7 0.4 1.4 0 0.8-0.2 0.6-1.7 3-0.5 1.7 0 0.8 0.6 2.8-0.2 1.6-1.3 2.7-0.7 3.2-0.3 0.8-0.5 0.8-1.4 1.8-0.5 0.6-0.1 0.8 0.6 10-0.3 2.1-0.9 1.5-12.7 11.8-1.2 0.1-0.9-0.1-1.7-0.6-2.4-1.4-1 0.1-1.3 1-1.6 0.7-1.1 0.6-0.9 0.1-3.5-0.6-2.3 0-3.2-0.4-1.2-0.3-1.3-0.7-0.7-0.7-1.3-1.4-0.7-0.4-2.9-0.9-1.6-0.9-1.2-1.2-2-2.7-1.3-0.9-2-0.8-1.4-0.9-0.8-0.8-1.1-0.8-0.9-0.6-0.8-0.7-0.7-0.6-0.9-0.6-0.9-0.3-1.5 0-1.4 0.1-1.2 0.5-1.6 0.9-15.1 12.7-2.6 1.3-1.5 0.2-1 0.1-6.5-0.9-2 0-4 0.5-8.9 2.1-5.2-0.2-4.7-1.2-3.5-0.1-0.6-0.1-2.5-0.8-1.4-0.7-0.3-0.5-0.1-0.5 1.7-1.5 18.1-12.5 0.5-0.8 0.4-1.2 6.8-31.8-0.1-0.9-0.8-0.1-5.4 1.8-1.2 0.1-0.7-0.3-0.5-1.6-0.5-1.1-0.8-1.2-1.2-1.1-0.3-0.6-0.2-0.7 0.3-1.2 0.6-1.4 0.8-0.3 0.9-0.6 0.8-0.9 0-1.7 1.2-2.9 0.2-1.5 0-7.1 0.9-0.2 1 0.3 4.2 3 1.2 0.5 1.1-0.6 0.9-0.8 2.2-2.8 0.9-1.9 1-2.6 0.3-1.4 0.1-1.1-0.2-4.4 0-1.2 0.2-0.8 7.6-18.5 0.2-0.9 0.6-6.5 0.2-0.7 8.5-18.1 0.4-1.4 0-1.3-4-6.8-1 0-1.8 1.2-0.5 0-0.5-0.2-0.8-3.4-0.9-1.5-1.8-0.1-8.9 2.2-1.1-0.3-0.6-1.6-0.9-4.2-0.5-1.4-0.7-0.1-0.7 0.1-1.3 0.6-0.7 0.2-5.7 1.3-0.7-0.1-0.8-0.4-5.7-4.4-8.4-4.2-1.1-0.3-1.9-0.1-2.2 1-2.2 0.6-1.4-0.3-1.3-2.7-0.5-1.5-0.2-1.3 0-1.6 1.4-6.6-0.2-1.1-0.4-1.3-1-2.3-0.8-1.5-3.4-3.4-1.1-1.8-1-3-0.1-1.1-0.4-0.8-0.6-0.9-3-2.7-1-1.5-3-5.8-1.3-3.7-1.8-2.2-6.5-6-16-15.4-0.6-1 2.8-4.6 0.4-1-0.1-1.6-0.3-0.9-0.8-1.3-11.5-12.6-1.5-1.1-1.1-1.6-0.2-0.9 0-3.8 0.4-1.3 0.6-0.6 0.8-1.1 0.3-0.6 0.4-1.9 0-1.2-0.5-1.1-2.7-4.7-1-1.4-0.9-1-1.6-0.5-0.9-0.6-1-1-0.7-1.5-0.5-1.6-7.5-34.1 0.1-2.4 0.9-1.2 1.2-0.6 7-1.7 22.3-9.5 1.2-0.9 0.6-1.5-0.1-1.2-0.5-1.5-1.7-3.2-0.9-0.6-1.2-0.2-47.7 0.5-1.9-0.2-2.3-0.7-2-0.8-1.7-0.1-0.7 0.1-2.6 0.9-1.5 0.3-2.3 0.1-0.7 0.2-8-0.1-0.8 0.1-4 1.3-1.1 0.2-5.2 0.3-1.8-0.1-2.4-0.5-6.6 0-3 0.6-1.5 0.1-0.8-0.1-1.6-0.4-12.8-0.4-2.3-0.6-1.7-0.3-5.2-0.3-1.6-0.4-2-1-0.7-0.1-0.8 0-6.8 0.9-1.6-0.1-0.9-0.1-0.9-0.3-1-0.7-1.4-1.2-0.5-1.9-0.2-1.9 0.5-39.4 0.5-0.7 0.7-0.4 3.5-0.8 6.9-0.8 0.6-0.3 0.3-0.4-0.4-1-1.3-0.9-2.6-0.6-1.1-0.4-1.3-0.9-0.5-0.8-0.2-0.9 0.2-0.6 0.9-1 1-0.7 0.5-0.5 0.6-1.3 0.1-0.7-0.2-0.7-0.7-2-0.2-1.5 0.1-2.7-0.3-1-0.5-0.5-0.7-0.1-2 0.5-0.8-0.1-1.2-0.8-0.6-0.7-0.3-0.8-0.3-1.9-0.6-2.1-0.2-0.8 0.1-1 0.8-0.9 2.1-1.6 0.9-1 0.6-1.3 0.3-1.6 0.2-0.7 0.4-0.5 0.5-0.5 1.1-0.6 0.4-0.6 0.2-0.8-0.3-1.3 0-1.7 1.1-2.8 1.6-3.1 0.2-0.9 0-1.2-1.5-6.3 0-1 0.1-0.8 0.6-1.4 0.4-1.6 0.2-0.7 3.4-3 1.1-0.5 1.2 0.3 0.9 0.8 0.6 0.2 1-0.6 0.8-0.9 2-1.7 3.6-3.9 0.2-0.8-0.1-1.1-0.8-3 0-1 0.7-2.1 0.7-3.2 0.9-1.8 0.3-0.6 0-2-0.5-1.7-0.1-1.1 0.1-1 0.2-0.7 0.9-2.2 0.6-2.4 0.9-1 0.2-0.6 0.1-1.7 1-2.7 0.3-1.2 0.3-4.9 4.1 0.7 1.8-0.3 1.5-0.9 12.9-3 2.1-0.3 1.9 0.2 2.9 0.7 0.8-0.1 1.4-0.8 0.7 0.1 1.2 1 1.1 0.7 0.7 0 0.6-0.3 0.9-1.3 0.7-0.8 2.3-1.4 0.6-0.6 5-6.3 1.2-2.6 1.4-2.5 5.1-6 1.2-1 0.9-0.4 0.9-0.1 2.7 0.4 1.2-0.1 0.6-0.3 0.5-0.5 1.1-1.9 0.7-0.8 1.1-0.9 3.7-2.3 1-0.4 6-1.9 1.5-0.2 0.8 0 3.5 0.6 1.1 0 0.8-0.2 0.6-0.3 3.9-3.1 0.7-0.2 0.6 0.2 1.3 1.5 0.6 1.1 0.5 2.1 0.3 0.6 1.1 1.7 0.3 0.5 0.8 1.9 0.7 1.1 0.8 1 1 0.9 8.9 3 3.6 2.9 0.7 0.4 2 0.3 1.6 0.6 1.5 1.3 0.6 0.4 8 2.8 2.2 0.3 1.1-0.2 1.4-0.5 0.9-0.1 0.9 0.1 1.7 0.9 1.2 1 0.9 0.9 0.9 1.8 0.4 1.3 0.6 2.9 0.2 0.7 0.6 1.2 8.5 9.9 0.9 0.5 1.1 0.5 2.3 0.8 0.9 0.6 0.3 0.6-0.9 2.3-0.3 0.5-0.9 0.9-2.2 1.4-1 0.9-0.8 1-0.9 2-0.8 1.2-0.9 0.9-1.1 0.8-0.8 1-0.2 0.7 0 0.8 0.4 0.8 1.5 1.5 0.4 0.7 0.2 0.7 0.3 3.1-0.5 3.3-0.1 3.3-0.1 0.8-0.6 1.4-0.7 1.1-2.1 1.6-0.5 0.4-0.1 0.8 0.2 0.8 1.2 1.3 0.6 0.8 0.3 0.9-0.2 0.7-0.7 1.2-0.8 1.1-1.6 1.2-0.8 1-0.3 0.7-0.6 3.5-0.6 1.4-1.7 2.1-0.3 0.6-0.8 2.1-1.5 2.4-3.4 8.4-0.8 1.1-0.5 1.3-0.2 1.5-0.5 1-0.1 1 0.6 2 0.3 1.4 0.1 0.7-0.1 1.6 0 0.7 0.8 1.9 0.3 1.5 0.4 0.7 0.6 0.8 1.9 1.8 0.4 0.7 0.1 1.6 0.4 1.4 0.3 0.5 3.4 3.2 0.7 1.2 0.6 1.4 0.6 0.8 3.2 3.6 1 0.7 2.8 1.4 0.8 0.6 0.6 0.7 1.1 1.7 1.2 1.4 1 0.6 2 0.5 1.3 0.5 17.6 11.3 4.8 2.3 0.7 0.6 0.4 0.7 0 0.8-0.3 1.7-1.3 3.5-0.2 0.8 0 2.2-0.3 1-1.3 1.2-0.4 0.5-0.2 0.7 0 0.7 0.5 6.3-0.4 2.6 0.1 1.6 0.2 1 0.5 1.1 1 1.6 0.8 0.7 0.9 0.4 1.2 0.3 1.6 0.7 4.9 3 1.3 0.5 0.7-0.1 1.2-0.5 0.7 0 3.2 0.6 0.8 0.1 1 0.2 1.1 0.4 1.6 0.9 0.9 0.8 0.9 1.1 0.8 0.5 0.7 0 1.4-0.3 0.9 0.1 2.7 1.2 1.3 0.3 0.9 0.7 1.1 1.7 0.7 0.6 0.7 0.3 1.9 0.3 4.2 2 0.8 0.3 4.8 0.9 0.7 0 0.5-0.3 1-0.9 0.6-0.4 2-0.6 0.9-0.1 1.1 0.2 4.3 2.1 2.4 0.2 0.8 0.2 3.1 1.6 0.7 0.3 1.6 0.4 1.7 0.1 3.3-0.2 0.8 0.1 4.4 1.2 1.7 0.6 1.6 1 1.1 0.9 2.7 2.9 0.9 0.7 0.9 0.4 2 0.6 3 1.4 2.9 0.6 1.7 0.6 0.9 0.5 1.1 0.9 4.5 4.3z" id="ZWE527" name="Midlands" data-id="ZWE527" data-name="Midlands">
 </path>
 <path d="M989.6 220.7l-0.8 0-2.7 0.8-9.5 3.8-1.2 0.9-3 2.8-8.5 6.2-1 1.4-3.8 7.6-0.2 0.7-0.1 1.6-0.1 0.9-0.7 1.2-0.8 0.8-0.8 0.5-1.9 0.9-1.3 0.3-4 1.6-0.8 0.6-0.5 0.7-0.2 0.7-0.2 2.4-0.4 1.6-0.4 0.7-5.3 5.8-1.4 0.9-1.1 0.6-0.7 0.2-1.4 0.4-1.9 0.8-2.3 0.2-4.4 2.1-0.7 0.7-1.7 2.2-1.9 2.1-1.1 0.7-0.9 0.2-1.4-0.5-0.8-0.2-0.8 0-1.2 0.2-1.3 0.4-2.4 1.1-2 1.3-5.2 5.3-1.2 0.9-2.9 1.6-1.1 1-0.6 0.6-0.7 1.1-1.2 2.4-1 1.3-1.3 1.2-2.7 1.1-2.7 1.5-3.5 1.3-0.8 0.5-0.6 0.6-0.6 1.4-0.9 5.1-0.1 1.6 0.3 2.3-0.1 0.6-0.5 0.7-29.9 30.6-0.1 0.8 0 0.9 0.3 2.3-0.5 1.4-1 1.8-4.8 6.4-0.4 1.6-0.2 4.4 0.3 2.3 0.4 1.3 0.3 0.5 0.1 1.4-1.9 3.7-0.4 1.4 0.4 2.6-0.2 1.4-0.9 0.7-1.3 0.5-5.6 1.3-1.2 0.5-1 0.6-0.5 1.1-0.2 1.2-0.1 1.4-0.3 1.3-0.3 1.1-1.6 1.3-0.7 0.9 0.5 1 1.4 2.3 0.4 2.2 1.1 2.3 0.1 1.1-0.5 1.4-0.7 1.7 0 1 0.6 1.3 0.3 1.5 0.2 0.6 1.2 1.6 1.2 2.4 0.8 1.1 1.4 1.4 1.1 1.7 1.2 1.6 0.6 1.4 0.6 2.6 0.5 1.5 0.7 1.1 0.5 0.4 1.4 0.6 2.3 0.1 1.5 0.3 1.2 0.8 0.3 0.6 2.8 7.1 2.3 11.7 0.6 1.3 0.4 0.4 1.8 1.1 0.4 0.6 0.3 1.4 0.6 1.2 1.2 1.6 0.7 1.2 0.5 1.2 0.2 1.3-0.4 5.7 0.1 2.5-0.4 2.6 0 1.8 0.6 3.3-0.8 2.4-0.8-0.7-1-0.3-1.3-0.3-0.9 0-2.2 0.7-1.2 0.2-2.6-0.6-5.1-2.5-4.7-1.2-2-1.5-4.8-5-1.8-1.2-2.1-0.7-2.2 0.2-6.3 1-2.4-0.1-4.2-2-2.8-0.8-1.2 0.1-0.5 0.4 0.2 0.6 0.9 1 0.4 1.2-0.1 0.6-0.9 1.9-1 2.9-1.8 3.9-1 1.7-0.8 1.1-2.4 2.3-0.8 0.4-0.8-0.2-1.2-0.7-1.5-0.6-1.5 0-0.9-0.2-0.8-0.3-0.2-0.7-0.1-1.4-0.5-1.3-2.4-2.4-0.8-0.5-1-0.4-0.7 0.1-0.6 0.4-1 1-0.7 0.6-0.8 0.2-0.8-0.1-1.3-0.5-1.2-0.7-1.2-0.3-1.7-0.1-3.4 0.3-1.3 0.6-0.6 0.8-0.1 0.6-0.5 0.8-0.1 5.4-1.3 3.2 0 6.6-1.5 0.8-12.4 1.4-20.1 0.5-5.5-0.8-0.4-0.7-0.2-0.7-0.1-1.6 0.1-1.7 0.4-1.6 0.6-1.3-0.2-0.6 0.5-0.7 0.3-1 0-1.7-0.9-0.3-4.4-0.4-1.4 0.2-0.8 0.7-1.4 2.1-0.8 1-1.1 0.5-1.8 0.3-0.8 0.2-0.3 0.5 0.2 1.1 0.5 1.2-0.2 2.9-5.5 5.1-3.2-1.8-3.2-0.8-0.6-0.2-1.6-1.5-1.9-2.4-2.5-2.2-1.9-2.1-2.6-2.1-0.4-0.5-0.2-0.7 0.1-1.1-0.4-1.4 0.1-0.9 0.6-1.9 0.5-0.4 1.1-0.3 0.1-0.5-0.3-1.8-0.4-1-0.7-1.1-3-4.2-2.6-4.6-0.4-1.2-0.1-0.9 0.2-0.5 1.3-2.2 0.3-0.7-0.9-0.2-0.8-0.4-1.1-0.6-1-0.4-2.7-0.4-3.4 0-2-0.4-2-0.4-0.9-0.4-2.7-2.4-1.9-0.8-2.5-0.7-5.5-2.4-3.2-2.3-2-2-2.2-0.9-6.8-1.8 2.2-2.2 0.9-2 1.1-6.3 0.3-1.1 5.5-11.3 1-1.3 0.7-0.3 0.6 0.4 0.7 1.2 1.3 4 0.9 1.3 2.1 4.9 0.6 0.1 1-0.1 2.6-0.9 1-0.7 0.5-0.5-0.5-1.9-0.1-0.7 0.1-0.6 0.5-0.3 0.8 0.1 2.7 0.9 0.5 0.4 1.1 0.9 0.7 0.3 0.9 0.1 1.4-0.2 0.7-0.8-0.7-2.7 0-0.8 0.2-0.8 0.6-0.2 0.7 0.1 2.9 0.7 0.4 0.2 0.8 1.1 0.6-0.6 5.9-10.1 5.5-5.4 0.8-1.1 0.5-1.1 0.3-1.7 1-18.5 0.2-1.1 0.3-1.4 0.7-0.9 0.8-0.7 1.3-1 0.5-0.8 0.1-0.7-0.1-0.7-0.6-1.3-0.7-1.1-3.5-3.9-5.3-4.9-0.9-1-0.6-1.2-0.1-0.7-0.2-4.4 0.1-1.3 0.3-0.7 0.6-0.5 1.8-0.8 1-1 1.2-1.4 2.2-3.5 0.7-1.7 0.2-1.2-0.4-1.3 0.1-0.8 1.2-4.3 0.5-1.1 0.7-0.7 1.7-1.3 0.4-0.7 0-0.7-1.9-4.5-0.3-1.9 0.3-1.6 0.4-0.8 0.5-0.8 2-0.8 1.4-1 0.3-0.7 0-0.7-0.7-2-0.2-0.8 0-1.2 0.3-1.8 0.4-1 0.5-0.2 1.4 0.6 3.5 1.4 1.7 0.9 0.7 0.5 3.4 3.2 2.5 1 1.6 0.4 4.9 2.1 6.2 4.1 2.9 2.6 1.2 0.5 0.8 0.2 0.9-0.2 2.2-1.2 0.9-0.2 1.6-0.2 0.7-0.3 2.2-1.7 0.4-0.5-0.1-0.3-1.2-0.9-0.4-0.6 0.1-0.6 0.4-1 1.8-0.9 1.2-1.4 0.5-2.3 0.1-0.6-0.1-1.5-0.5-2.3 0.1-0.8 4.7-2.1 1.1-0.7 0.7-0.8 0.1-1.4 0.2-0.9 0.5-0.9 1.3-1.3 0.5-0.8 0.3-0.7-0.2-1.1-1.2-2.6-0.3-1.1-0.3-1.4-0.1-0.8 0.1-1.5-0.2-0.8-0.8-1.7-0.3-0.9 0-0.9 0.6-2.3 0.1-1.5-0.2-1.4-0.4-1.5-0.6-0.6-1.2-0.3-4.2 0.1-2.4-0.4-0.9-0.4-0.5-0.9-0.4-1-0.2-1-0.4-0.5-0.6-0.3-2.4-0.1 2.6-11.2-0.1-1-0.3-1.2-0.9-0.1-0.8-0.5-0.8-1.7 0.2-0.7 2.7-3.1 2-4.3 1.7-1.8 1.7-0.9 20.1 1.8 1 0.3 0.1 0.8-0.2 0.8-4.3 11.3-0.3 1.5 0.2 1.4 0.4 1.4 0.6 1.3 0.9 1 1.2-0.2 2.8-1.5 1.5-0.5 4.4 1.8 1.4-0.6 1.4-1.1 6.7-6.5 1.4-1 0.7 0 1.6 0.6 0.9-1.1 0.8-1.2 1.3-2.6 1.4-2.3 0.5-0.8 11.7-6.2 2.2-2.2 0.3-1.2 2.1-3.4 10.9-10.8 2.1-2.7 1.2-3.1-0.2-3.6-0.4-2.2-0.2-2.5 0.2-2.4 1.1-1.9 1.4-1.2 3.3-1.9 1.4-1.3 0.7-1 1.1-2 0.7-0.9 0.7-0.6 2.5-1.4 2-1.9 1.7-2.1 2.9-4.9 0.6-1.3 0.8-4.4 0.8-2.4 1.2-2.3 1.7-2 1.8-1.6 4.2-2.1 1.1-1.1 0.7-1.3 1.4-6.3 0.9-2.2 1.2-1.9 1.3-1.5 3.6-2.2 2.1-0.8 1.8-0.3 1.2 0.1 2.1 0.9 1.2 0.3 2.7-0.1 3-0.7 3-1.1 2.4-1.4 2.1-1.5 1.1-0.5 1.4-0.3 5.2 0.2 1.8-0.2 3.3-1.2 6.1-3.7 3.3-1.2 3.1-0.4 17.3 2.2 1.1 0.4 2.2 1.1 1.1 0.5 7.3 0.6 2.4-0.4 2.2-0.9 3.3-3.3 0.5-0.3 1.2-0.7 1.7-0.7 2-0.3 4 0.2 7.8 1.8 4 0.2 2.1-0.6 3.8-2.4 2.2-0.9 1.5-0.2-0.9 3.8-3.6 14.1-2.1 4.3-2 2.6-9.2 9 0.2 0.9 12.5 22.4 3.3 7.7 1.7 8.2 0.2 5z" id="ZWE528" name="Mashonaland East" data-id="ZWE528" data-name="Mashonaland East">
 </path>
 <path d="M918.1 764.8l-12.2-7.9-2.1-2.6 0.2-2.1-4.5-11.1-1-3.2-0.6-0.7-8.9-4.5 1.4-2.1-0.4-1.3-2.8-2.3-0.7-1.2-0.4-1.3-1.2-6.3-0.5-1.3-1.1-1.6-0.1-1.2 1.8-3 0.5-1.4 0.6-3 4.6-8.7 2.4-7 0.2-2.8 0.5-2.4 1.2-2.1 2.7-3.4 1.3-8.1 1.8-2.6 1.1-6.6 0.6-19.2 6.4-38.2 0.1-13.6-0.8-1.1-0.3-1.3-2.4-1.5-6.6-3.4-8.5-6.6-1.7-0.6-1.2-0.3-1-0.2-2.5 0.1-2.9 0.5-0.8-0.3-0.8-0.5-1.1-1.2-0.8-0.8-0.9-0.6-1.5-0.4-1.1-0.2-1.4-0.3-1.6-0.8-2.7-2-1.9-2-1-1.2-1.1-2-0.5-0.6-0.8-0.7-3.4-1.5-1.4-1.1-1-1.3-0.8-1.7-1.2-4.2-0.7-0.8-1-1.1-3.9-3.7-3-3.5-0.7-1.3-0.8-2.6-0.4-0.7-0.9-0.9-1.5-1-5.9-3.2-0.8-0.8-1.1-1.2-0.6-0.9-0.3-0.8-0.1-0.8-0.4-1.3-0.5-0.6-3.9-3.8-0.6-1.3-0.4-1 0-1.9-0.5-0.5-0.9-0.4-3.1-0.5-1.3-0.3-1.8-0.8-1.1-0.6-0.9-0.8-0.7-0.4-1-0.1-1.3 0.5-0.7 0.2-0.8-0.2-0.8-0.5-0.7-1-0.5-0.8-0.7-0.8-1.1-0.9-3.3-2.4-1.3-0.7-2.5-0.5-1.3-0.7-1.4-1.4-0.5-0.4-0.8-0.2-1.3-0.1-0.9 0.2-1.3 0.7-0.6 0.2-0.8-0.1-1.5-0.7-1.6-1.2-4.7-3.8-20.7-12.8-1.6-2.1 12.4-1.4 1.5-0.8 0-6.6 1.3-3.2 0.1-5.4 0.5-0.8 0.1-0.6 0.6-0.8 1.3-0.6 3.4-0.3 1.7 0.1 1.2 0.3 1.2 0.7 1.3 0.5 0.8 0.1 0.8-0.2 0.7-0.6 1-1 0.6-0.4 0.7-0.1 1 0.4 0.8 0.5 2.4 2.4 0.5 1.3 0.1 1.4 0.2 0.7 0.8 0.3 0.9 0.2 1.5 0 1.5 0.6 1.2 0.7 0.8 0.2 0.8-0.4 2.4-2.3 0.8-1.1 1-1.7 1.8-3.9 1-2.9 0.9-1.9 0.1-0.6-0.4-1.2-0.9-1-0.2-0.6 0.5-0.4 1.2-0.1 2.8 0.8 4.2 2 2.4 0.1 6.3-1 2.2-0.2 2.1 0.7 1.8 1.2 4.8 5 2 1.5 4.7 1.2 5.1 2.5 2.6 0.6 1.2-0.2 2.2-0.7 0.9 0 1.3 0.3 1 0.3 0.8 0.7 0.8-2.4-0.6-3.3 0-1.8 0.4-2.6-0.1-2.5 0.4-5.7-0.2-1.3-0.5-1.2-0.7-1.2-1.2-1.6-0.6-1.2-0.3-1.4-0.4-0.6-1.8-1.1-0.4-0.4-0.6-1.3-2.3-11.7-2.8-7.1-0.3-0.6-1.2-0.8-1.5-0.3-2.3-0.1-1.4-0.6-0.5-0.4-0.7-1.1-0.5-1.5-0.6-2.6-0.6-1.4-1.2-1.6-1.1-1.7-1.4-1.4-0.8-1.1-1.2-2.4-1.2-1.6-0.2-0.6-0.3-1.5-0.6-1.3 0-1 0.7-1.7 0.5-1.4-0.1-1.1-1.1-2.3-0.4-2.2-1.4-2.3-0.5-1 0.7-0.9 1.6-1.3 0.3-1.1 0.3-1.3 0.1-1.4 0.2-1.2 0.5-1.1 1-0.6 1.2-0.5 5.6-1.3 1.3-0.5 0.9-0.7 0.2-1.4-0.4-2.6 0.4-1.4 1.9-3.7-0.1-1.4-0.3-0.5-0.4-1.3-0.3-2.3 0.2-4.4 0.4-1.6 4.8-6.4 1-1.8 0.5-1.4-0.3-2.3 0-0.9 0.1-0.8 29.9-30.6 0.5-0.7 0.1-0.6-0.3-2.3 0.1-1.6 0.9-5.1 0.6-1.4 0.6-0.6 0.8-0.5 3.5-1.3 2.7-1.5 2.7-1.1 1.3-1.2 1-1.3 1.2-2.4 0.7-1.1 0.6-0.6 1.1-1 2.9-1.6 1.2-0.9 5.2-5.3 2-1.3 2.4-1.1 1.3-0.4 1.2-0.2 0.8 0 0.8 0.2 1.4 0.5 0.9-0.2 1.1-0.7 1.9-2.1 1.7-2.2 0.7-0.7 4.4-2.1 2.3-0.2 1.9-0.8 1.4-0.4 0.7-0.2 1.1-0.6 1.4-0.9 5.3-5.8 0.4-0.7 0.4-1.6 0.2-2.4 0.2-0.7 0.5-0.7 0.8-0.6 4-1.6 1.3-0.3 1.9-0.9 0.8-0.5 0.8-0.8 0.7-1.2 0.1-0.9 0.1-1.6 0.2-0.7 3.8-7.6 1-1.4 8.5-6.2 3-2.8 1.2-0.9 9.5-3.8 2.7-0.8 0.8 0 0 1.3 0.5 2.9 1.4 2.7 1.1 0.9 2.8 1.6 0.9 1.2 0.1 2.1-0.8 2.1-2.4 3.8-5 9.8-0.8 1-1.1 0.7-0.8 0.9 0 1.5 1.3 4.5 0.6 1.1 2.2 1.8 4.8 2.2 1.7 2.4 0.6 2.7-0.5 2.6-2.1 5-0.5 5.1 0.4 5.9-0.6 4.9-3.2 2.2-2.1 0.9-1.4 2.3-0.9 2.8-0.3 2.6 0.2 2.6 1.5 3.8 0.2 2.3-0.5 1.8-1 0.9-1 0.7-0.6 1 0.2 1.3 1.5 1.9-0.1 1.1-0.7 2.7 0.3 3 4.5 13.8 0.4 4.5-0.1 1-1.1 2.8-1 1.8-0.7 1-0.3 1.2 0.6 2 1.9 2.8 6 4.9 2.3 2.6 1 2.5-0.6 1.5-3.7 2.8-2.7 4-0.3-0.1 0.2 1.3 1.6 1.9 0.4 1.4-0.8 2.7-2.3 1.7-2.8 1.4-2.5 1.5-2.2 1.2-2.5 0.7-2.2 0.9-1.5 1.8-0.4 2.3 0.5 2.8 1.6 4.8 3.8 7.7 1 3.6-0.2 4.5-0.9 3.6-1.4 2.9-2.2 1.8-3.4 0.3-5.2-0.4-3.8 0.6-12.3 5.8-0.2 1.2 0.9 7.2 0.8 2 1.6 1.1-1.4 1-1.6 0.9-1.3 1.2-0.1 1.6 0.9 3 0.2 1.5-0.2 1.7 0.3 1.8 1 1.1 1.5 0.5 1.7 0.1 7.9-1.2 2.3 0.2 1.3 0.6 0.8 0.6 0.4 1 0.3 1.5 0.6 1.7 1 1 1.2 1 1.1 1.3 0.8 4.6-3.7 16.8-0.2 3.3-0.4 2.4-1 2.3-1.9 3-4.7 5.4-0.3 1.4 0.2 3.9-0.8 5.5 0.2 2.8 1.3 1.6 2.5 0.1 2.3-0.3 1.8 0.7 0.8 2.9 0.1 2.5-0.9 9.8 0 1.2 0.3 1.4 0.2 1.7-0.5 1.3-0.8 1.2-0.4 1.4 0.4 3 1.5 1.5 2.3 0.5 2.9 0.1 2.9-0.8 3.8-3.9 2.4-0.8 2.3 1.3 0.1 2.7-1 5.3 1 2.4 2.2 2.1 2.7 1.8 2.8 1.2 1.3 1.5-0.4 2.6-0.8 3.2-0.2 5.6-2.5 8-0.5 10 0.8 3.2 0.4 1-6.9-0.2-1.7 1.5-0.7 4.2-1 1.9-2 0.6-2.1 0.4-1.2 1.3-0.9 6.6-0.7 2.1-1.7 3.2-0.3 1.3 0.2 1 0.8 1.8 0.1 1.1-0.9 4.1-0.7 2-1 1.7-14 17.4-4 7.8-4.1 8.2-3.3 3.6-5.4 0.9-6-0.7-5.6 0.7-4 5.2-1.3 5.8-0.3 5.6 1.9 14.7 1.7 14.2-0.8 5.2-3 6-6.4 8.3-9.9 12.7 0.7 1.2 1.9 1.2 1.1 1.6 1.2 0 0.3 0.3 0 0.9-0.9 1.7-0.2 0.5 9.3 16 0.3 1.2-4.9-3.2z" id="ZWE529" name="Manicaland" data-id="ZWE529" data-name="Manicaland">
 </path>
 <path d="M576.1 728.4l2 6.5 0.9 2 5.8 6.8 0.6 0.4 1 0.4 3 1.8 0.5 0.5-0.1 1.4 0.3 1.2 1.3 2.9 0.7 1.1 0.6 0.7 1.1 0.2 0.7 0.3 1.2 0.8 0.5 0.7 0.3 1 0.2 3.8 0.3 0.9 0.3 0.4 1.1 0.2 1 0.4 0.5 0.5 0.2 0.7 0.3 1.7 0.3 0.4 1.3 0.7 0.7 0.7 1.9 4.6 0.6 1.2 0.6 0.8 2 1.1 1 0.8 1.1 0.9 1.4 0.8 0.7 0.5 1.3 1.4 2.2 3.7 0.5 0.7 1.4 0.8 2.4 2.2 1 1.7 0.7 1 0.7 0.6 0.8 0.3 1 0.6 0.5 0.8 0.6 1.1 0.5 0.4 0.5 0.2 1-0.2 0.6 0 1.7 0.6 0.7 0.1 1.7 0 1.1 0.5 0.5 0.8 0.5 1.9 0.5 0.5 0.7 0.3 1 0.4 2.7 1.4 0.9 0.5 1.1 0.2 0.6 0.5 0.4 0.5 0.2 0.7 0 0.8-0.2 1.8 0.4 0.6 0.5 0.4 0.8 0.2 10.4 1.3 1.4 0.5 0.7 0.1 0.7-0.2 1.3-0.5 0.7-0.1 3 1.5 3.2 2.2 2.7 1.3 1 1 4 1.4 2.5 0.2 1 0.4 0.4 0.5 0 0.6-0.8 1.1-0.2 0.5 0.1 0.5 1.1 1.6 2.6 2.8 0.7 1 1 1.8 0.6 0.3 1.4-0.1 0.7 0.3 1.6 0.9 2.9 1.2 0.8 0 0.6-0.2 1.4-0.5 0.8 0.1 0.4 0.4 0.1 0.8-0.2 1.6 0.5 0.4 1.7 0.9 0.5 0.7 0.1 0.8 0.1 1.5 0.9 3 0.4 0.9 0.4 0.6 3.3 2 0.7 0.7 0.6 0.8 0.4 0.8 5.7 7.4 0.3 0.6-0.2 1.5 0.1 1 0.9 1.5 0.8 0.8 1 0.6 1.3 0.6 0.4 0.7 0 0.7-0.2 0.6-0.1 2-0.8 1.3-0.1 0.6 0.4 0.4 1.4 0.1 1.1 0.2 1.1 0.5 1.8 1.2 0.9 0.9 0.8 1.2 0.8 0.8 1.3 1.1 0.6 0.9 0.7 1.9 0.5 0.5 0.7 0.2 1.7-0.2 1.2 0 0.6 0.5 0.3 0.6 0 1.6 0.2 0.7 0.4 0.7 1.1 1.4 0.6 1.3 0.3 2 0.5 1.2 0.6 0.7 0.6 0.5 2 0.3 1.3 0.5 0.6 0.5 0.2 0.8-0.2 1.5 0.5 0.4 0.7 0 1.6-0.1 0.9 0.1 1 0.5 0.4 0.6 0.3 1.7 0.3 1.1 0.9 1.7 0.4 0.9 0 1.7 0.3 1 1.5 2.1 0.3 0.9 0.2 1.7 0.4 1 0.7 0.5 0.8 0.3 0.9 0.2 1.5 0 0.5 0.6 1.8 3.5-1.2 0.3-2.2-0.5-4.4-1.9-13.9-3.3-7.6-0.9-3.8-1-4.1 1.7-14.2 1.2-2.5 0.8-3.5 2.4-1.9 0.6-0.9-0.3-1.9-1.4-1.2-0.3-3.7 0.1-8.2-1-2.4 0.1-2.5 0.6-4.8 2.3-2.4 0.8-5.2 0.9-4.7 0.1-4.4-1-4-2.9-1.8-1.6-1.9-1.2-2.4-0.7-3.1-0.2-5.7 0.8-2.2-0.2-3.1-1.6-3.6-2.6-1.9-0.8-3.8-0.5-0.4-1.1-2.5-2.6-1.3-0.6-2.7-0.7-1.3-0.5-3.5-2.2-1.8-0.5-4.6-0.4-3.1-1.7-4.4-0.9-7.4-5-2.6-0.7-8.6 0.4-1.5 0.6-2.3-1.6-2.6 0.3-4.8 2.2-4.3-0.4-2.4 0.5-1.1 2.3-1.4 1.4-3.2-0.3-6.3-1.6-2.7 0.6-4.7 2.6-2.7 1.5-1.9-0.1-0.8-0.2-0.9-0.5-9.7-8.5-0.8-1.3-1-2.7-0.7-1.3-1.2-1.5-0.7-0.5-12 0.4-4.7-0.8-4.8-2.5-3.8-4.2-2.5-5.2-1-5.9 0.6-5.8 1.4-2.9 2.1-3.3 1.5-3.2-0.3-2.7-2.1-1.7-5.1-1.6-2.3-1.5-3.7-0.9-7.7-0.5-3.9-1-18.7-8.8-5.8-1.9-5-3.9-1.7-0.6-3.8-0.3-4.1-1.1-1.4 0.2-1.4 0.7-4.4 1.1-2.1 0.9-2.1 0.4-2.8-0.7-10.3-5.4-5.1-1.8-4.7-0.9-15.2-0.2-9.6-1.9-7.4-0.5-2.1-0.6-1.8-1.2-1.5-1.7-0.7-1.3-1.2-2.8-0.6-1.1-0.9-0.5-0.7 0.1-0.7-0.1-0.5-1.3 0.7-1.8-0.5-0.8-1.4-0.6 0.3-1.3 1-1.6 0.4-1.1-0.3-1.4-3.8-7.8-2.1-2.3-0.8-1.3-0.2-1 0-2.1-0.3-1.1-1.2-2-4.5-5.5-3.3-5.2-3.8-4.7-8.8-6.5-2-2.1-4.4-6.1-1-2.6 0-2.4 1.6-7.2 0.1-2.9-0.9-7.7-0.1-1.3 0.4-3.1-0.1-1.5 0.2-1.8 0.7-1.3 0.9-1.1 0.7-1.6 2-11-0.3-5.5-3.2-10.8 1-4.9 1.6-4.8 0.4-5.4-1-2.4-1.8-1.8-2.3-0.9-5.1-0.1-4.5-2.1-7.2 1.4-10.2-1.4-14.5 0-4.4 0.6-4.8 2.5 2-19.6-2.3-16-6.5-16.8-1.7-2.4-2.3-1.4-2.7-0.8-2.7-0.5-1.5 0-1.3 0.1-1.3-0.1-1.5-0.6-1.4-1.1-2.2-3.2-1.2-1.3-4.3-2.4-4.1-0.4-4.2 0-4.6-0.8-14.4-7.4-4.8-0.9-3 0-2.6-0.5-2.1-1.2-2-2-1.8-2.4-0.9-1.1 2.2-1.3 4.1-2.3 2-0.7 25-6.1 2.3-0.1 2.3 0.2 2.8 0.6 17.7-2.2 3.2 0.5 1.6 0.2 0.7 0.2 1.5 0.9 1.4 0.3 1.5-0.3 1.9-0.1 2.3 0.5 2.1 0.2 1.1-0.2 0.9-0.3 1.8-1.5 1.1-0.7 0.9-0.2 1-0.1 6.8 0.9 2.6 0.6 2.4 1.4 4.4 3 1.8 1 2.9 0.7 3.3 0.5 1.6 0.4 1.1 0.4 1.1 1.7 0.9 1.1 1.6 1.1 0.8 1.2 0.4 1.5 0.1 1.7 0.3 2.5 0.6 1.3 0.9 0.9 0.8 0.7 0.7 0.7 2.5 3.9 4.5 5 1 0.9 2.3 1.4 2.1 1.6 9.4 9.2 2.1 1.7 3 1.6 1 0.9 1 1.4 1.5 1 1.7 0.5 5.2 0.9 4 0 0.6-0.7 0.4-1.4 0.2-3.8 0.8-4.3 1.8-5.4 0.5-1.1 0.5-0.4 0.7 0.8 4.5 7 0.7 0.3 0.5 0.1 4.7-2.4 1.2-0.4 5.4-0.2 1.3-0.2 4.3-1.8 1-0.1 0.6 0.7 0.8 2 0.5 0.5 0.7 0.4 1.8 0.7 0.7 0.4 0.5 0.5 0.3 0.6 0.6 2.1 1.1 1.7 0.2 0.6 0.1 1.7 0.4 0.5 2.7 3 2.6 2.1 0.8 2 0.9 0.9 1.2 0.7 0.5 0.4 0.9 2 1.4 1.4 1.5 2.1 0.3 0.6 0.5 1.3 0.7 2.1 1.2 2.7 0.7 0.7 0.9-0.2 17.2-13 3.3-1.4 2.2 2.6 1.3 0.1 4.1-3.5 1.1 0.1 0.9 0.4 1.5 0.4 1.6 0.8 6.6 5.4 1 0.2 1.7-0.2 3.4-3.6 0.8-2.1 2.1-1.6 2.4-2.3 12.5-15.2 0.4-0.9 0-0.7-0.8-2.7-0.1-1.7 0.4-1 0.4-0.6 0.6-0.4 5.6-2.3 8.9-5.1 1.5-1.2 2.2-3.6 0.3-0.7 0-1-1.2-3-1.8-7.1-0.5-1.3-0.2-0.8 0.1-0.9 0.4-0.4 0.7-0.1 7.6 1.5 1.4-0.3 1.7-0.7 3-2.2 0.8-1.1 0.4-1 0.1-0.9 0.9-2.5 0.6-2 0.2-1.2 0.1-5.3-0.1-1.5-0.4-1-0.8-0.8-1-0.6-0.9-0.7-1.7-1.7-0.6-0.7-0.3-1 0.4-0.8 0.5-0.6 5.6-5 1.1-1.5 0.7-1.1 0.4-2.1 0.1-1.2-0.2-1-0.5-1-0.8-1.1-1.9-1.7-0.7-0.9-0.4-1 0.1-1.6 0.3-0.7 0.7-0.5 1.8-0.3 0.7 0 4.2 0.8 1.4 0.4 1.1 0.8 0.7 0.5 0.9 0.6 1 0.2 1-0.2 1.3-1 0.7-0.7 1-2.3 6.5 6 1.8 2.2 1.3 3.7 3 5.8 1 1.5 3 2.7 0.6 0.9 0.4 0.8 0.1 1.1 1 3 1.1 1.8 3.4 3.4 0.8 1.5 1 2.3 0.4 1.3 0.2 1.1-1.4 6.6 0 1.6 0.2 1.3 0.5 1.5 1.3 2.7 1.4 0.3 2.2-0.6 2.2-1 1.9 0.1 1.1 0.3 8.4 4.2 5.7 4.4 0.8 0.4 0.7 0.1 5.7-1.3 0.7-0.2 1.3-0.6 0.7-0.1 0.7 0.1 0.5 1.4 0.9 4.2 0.6 1.6 1.1 0.3 8.9-2.2 1.8 0.1 0.9 1.5 0.8 3.4 0.5 0.2 0.5 0 1.8-1.2 1 0 4 6.8 0 1.3-0.4 1.4-8.5 18.1-0.2 0.7-0.6 6.5-0.2 0.9-7.6 18.5-0.2 0.8 0 1.2 0.2 4.4-0.1 1.1-0.3 1.4-1 2.6-0.9 1.9-2.2 2.8-0.9 0.8-1.1 0.6-1.2-0.5-4.2-3-1-0.3-0.9 0.2 0 7.1-0.2 1.5-1.2 2.9 0 1.7-0.8 0.9-0.9 0.6-0.8 0.3-0.6 1.4-0.3 1.2 0.2 0.7 0.3 0.6 1.2 1.1 0.8 1.2 0.5 1.1 0.5 1.6 0.7 0.3 1.2-0.1 5.4-1.8 0.8 0.1 0.1 0.9-6.8 31.8-0.4 1.2-0.5 0.8-18.1 12.5-1.7 1.5 0.1 0.5 0.3 0.5 1.4 0.7 2.5 0.8 0.6 0.1 3.5 0.1 4.7 1.2 5.2 0.2 8.9-2.1 4-0.5 2 0z" id="ZWE530" name="Matabeleland South" data-id="ZWE530" data-name="Matabeleland South">
 </path>
 <path d="M432.2 621l-1.6-0.8-1.5-0.4-0.9-0.4-1.1-0.1-4.1 3.5-1.3-0.1-2.2-2.6 1.6-3.7-0.3-1.4-1.2-1.3-0.9-1.5-1-0.4-1 0.1-1.5 0.7-1.5 0.1-2.2-0.6-1-0.1-1.6 0.1-1-0.1-1.6-0.5-0.6-0.7-0.1-0.6 0.4-0.6 1.7-1 0.8-0.6 0.5-0.9-0.1-1.4 0.1-1 0.2-1 0.6-1.3 0.2-0.7 0-1.2-1.2-5-0.2-1.6 0.2-0.7 0.4-0.3 0.6 0 0.9 0.2 7.2 3.9 1.3 0.4 1-0.1 0.8-0.4 1.6-1.4 0.8-0.3 2.8-0.5 2.5-0.8 0.7-0.1 0.6 0.6-0.6 1.7-0.1 1.7-0.1 0.5 0.1 0.7 0.7 0.6 1.9 0.4 0.6 0.3 1.3 1.1 0.9 0.4 1 0.1 0.9-0.3 1.7-0.8 0.8-0.1 0.6 0.5 0.1 1.6 0.2 0.6 0.5 0.4 1.7 0.7 0.4 0.4 0.1 0.7-0.6 1.9-0.8 1.5-0.2 1 0 0.6 0.8 1 2.5 1.7 0.5 0.6 0.3 0.6 0 0.6-0.3 0.8-0.4 0.8-0.7 0.8-0.9 0.7-2.1 0.9-8.6 1.9z" id="ZWE531" name="Bulawayo" data-id="ZWE531" data-name="Bulawayo">
 </path>
 <path d="M763.8 487.1l1.6 2.1 20.7 12.8 4.7 3.8 1.6 1.2 1.5 0.7 0.8 0.1 0.6-0.2 1.3-0.7 0.9-0.2 1.3 0.1 0.8 0.2 0.5 0.4 1.4 1.4 1.3 0.7 2.5 0.5 1.3 0.7 3.3 2.4 1.1 0.9 0.7 0.8 0.5 0.8 0.7 1 0.8 0.5 0.8 0.2 0.7-0.2 1.3-0.5 1 0.1 0.7 0.4 0.9 0.8 1.1 0.6 1.8 0.8 1.3 0.3 3.1 0.5 0.9 0.4 0.5 0.5 0 1.9 0.4 1 0.6 1.3 3.9 3.8 0.5 0.6 0.4 1.3 0.1 0.8 0.3 0.8 0.6 0.9 1.1 1.2 0.8 0.8 5.9 3.2 1.5 1 0.9 0.9 0.4 0.7 0.8 2.6 0.7 1.3 3 3.5 3.9 3.7 1 1.1 0.7 0.8 1.2 4.2 0.8 1.7 1 1.3 1.4 1.1 3.4 1.5 0.8 0.7 0.5 0.6 1.1 2 1 1.2 1.9 2 2.7 2 1.6 0.8 1.4 0.3 1.1 0.2 1.5 0.4 0.9 0.6 0.8 0.8 1.1 1.2 0.8 0.5 0.8 0.3 2.9-0.5 2.5-0.1 1 0.2 1.2 0.3 1.7 0.6 8.5 6.6 6.6 3.4 2.4 1.5 0.3 1.3 0.8 1.1-0.1 13.6-6.4 38.2-0.6 19.2-1.1 6.6-1.8 2.6-1.3 8.1-2.7 3.4-1.2 2.1-0.5 2.4-0.2 2.8-2.4 7-4.6 8.7-0.6 3-0.5 1.4-1.8 3 0.1 1.2 1.1 1.6 0.5 1.3 1.2 6.3 0.4 1.3 0.7 1.2 2.8 2.3 0.4 1.3-1.4 2.1 8.9 4.5 0.6 0.7 1 3.2 4.5 11.1-0.2 2.1 2.1 2.6 12.2 7.9-4.5 5.2-6.2 6.9-6.7 7.4-6.7 7.5-13.4 14.9-26.7 29.8-6.7 7.5-6.7 7.5-6.7 7.5-13.3 15-13.4 14.9-6.7 7.5-6.6 7.5-8.4 5.9-10.1 7.2-3-4.4-1.3-1-1.2-0.1-2.1 0.9-1 0.1-1.1-0.4-1.9-1.3-1-0.2-0.9-0.7-2.6-3.2-1.3-0.9-1.9 0.3-4.3 2.1-0.9 0.2-1.8-3.5-0.5-0.6-1.5 0-0.9-0.2-0.8-0.3-0.7-0.5-0.4-1-0.2-1.7-0.3-0.9-1.5-2.1-0.3-1 0-1.7-0.4-0.9-0.9-1.7-0.3-1.1-0.3-1.7-0.4-0.6-1-0.5-0.9-0.1-1.6 0.1-0.7 0-0.5-0.4 0.2-1.5-0.2-0.8-0.6-0.5-1.3-0.5-2-0.3-0.6-0.5-0.6-0.7-0.5-1.2-0.3-2-0.6-1.3-1.1-1.4-0.4-0.7-0.2-0.7 0-1.6-0.3-0.6-0.6-0.5-1.2 0-1.7 0.2-0.7-0.2-0.5-0.5-0.7-1.9-0.6-0.9-1.3-1.1-0.8-0.8-0.8-1.2-0.9-0.9-1.8-1.2-1.1-0.5-1.1-0.2-1.4-0.1-0.4-0.4 0.1-0.6 0.8-1.3 0.1-2 0.2-0.6 0-0.7-0.4-0.7-1.3-0.6-1-0.6-0.8-0.8-0.9-1.5-0.1-1 0.2-1.5-0.3-0.6-5.7-7.4-0.4-0.8-0.6-0.8-0.7-0.7-3.3-2-0.4-0.6-0.4-0.9-0.9-3-0.1-1.5-0.1-0.8-0.5-0.7-1.7-0.9-0.5-0.4 0.2-1.6-0.1-0.8-0.4-0.4-0.8-0.1-1.4 0.5-0.6 0.2-0.8 0-2.9-1.2-1.6-0.9-0.7-0.3-1.4 0.1-0.6-0.3-1-1.8-0.7-1-2.6-2.8-1.1-1.6-0.1-0.5 0.2-0.5 0.8-1.1 0-0.6-0.4-0.5-1-0.4-2.5-0.2-4-1.4-1-1-2.7-1.3-3.2-2.2-3-1.5-0.7 0.1-1.3 0.5-0.7 0.2-0.7-0.1-1.4-0.5-10.4-1.3-0.8-0.2-0.5-0.4-0.4-0.6 0.2-1.8 0-0.8-0.2-0.7-0.4-0.5-0.6-0.5-1.1-0.2-0.9-0.5-2.7-1.4-1-0.4-0.7-0.3-0.5-0.5-0.5-1.9-0.5-0.8-1.1-0.5-1.7 0-0.7-0.1-1.7-0.6-0.6 0-1 0.2-0.5-0.2-0.5-0.4-0.6-1.1-0.5-0.8-1-0.6-0.8-0.3-0.7-0.6-0.7-1-1-1.7-2.4-2.2-1.4-0.8-0.5-0.7-2.2-3.7-1.3-1.4-0.7-0.5-1.4-0.8-1.1-0.9-1-0.8-2-1.1-0.6-0.8-0.6-1.2-1.9-4.6-0.7-0.7-1.3-0.7-0.3-0.4-0.3-1.7-0.2-0.7-0.5-0.5-1-0.4-1.1-0.2-0.3-0.4-0.3-0.9-0.2-3.8-0.3-1-0.5-0.7-1.2-0.8-0.7-0.3-1.1-0.2-0.6-0.7-0.7-1.1-1.3-2.9-0.3-1.2 0.1-1.4-0.5-0.5-3-1.8-1-0.4-0.6-0.4-5.8-6.8-0.9-2-2-6.5 6.5 0.9 1-0.1 1.5-0.2 2.6-1.3 15.1-12.7 1.6-0.9 1.2-0.5 1.4-0.1 1.5 0 0.9 0.3 0.9 0.6 0.7 0.6 0.8 0.7 0.9 0.6 1.1 0.8 0.8 0.8 1.4 0.9 2 0.8 1.3 0.9 2 2.7 1.2 1.2 1.6 0.9 2.9 0.9 0.7 0.4 1.3 1.4 0.7 0.7 1.3 0.7 1.2 0.3 3.2 0.4 2.3 0 3.5 0.6 0.9-0.1 1.1-0.6 1.6-0.7 1.3-1 1-0.1 2.4 1.4 1.7 0.6 0.9 0.1 1.2-0.1 12.7-11.8 0.9-1.5 0.3-2.1-0.6-10 0.1-0.8 0.5-0.6 1.4-1.8 0.5-0.8 0.3-0.8 0.7-3.2 1.3-2.7 0.2-1.6-0.6-2.8 0-0.8 0.5-1.7 1.7-3 0.2-0.6 0-0.8-0.4-1.4-0.4-1.7-0.2-0.7-0.4-0.5-1.5-1.3-0.8-1.1-0.4-1.5-0.1-0.8 0.2-2.4 0-0.9-0.7-2.1-0.1-1 0.2-1.1 0.6-1.6 0.1-1-0.2-0.8-5.2-5.9-0.4-0.8-0.3-2.4-0.2-0.7-0.8-1-2.9-1.9-0.9-1-0.4-0.6-0.5-1.4-0.4-0.6-0.5-0.4-0.6-0.3-1.5-0.2-0.7-0.3-1.1-0.8-0.8-1-0.6-1.4 0-0.8 0.1-1.4-0.3-0.6-0.5-0.3-0.7-0.2-2.4-0.1-1.4-0.5-1.3-0.6-1.4-1.4-1.7-2.9-0.5-0.5-0.6-0.3-0.4-0.8 0.1-1.4 1-3.4 0.1-2.7-0.2-2.7-0.4-2.2-0.6-1.7-0.8-1-1.6-1.1-2.1-0.6-2.1-0.2-2.2 1.5-0.9 0.3-0.3-0.3-0.1-3.9 0.7-5.6 1.5-2.9 0.9-4.8-0.2-1.8-0.3-1.1-0.7-0.9 0.4-0.7 1-0.7 9.6-4.7 1.5-0.3 19.9-0.8 1.5-0.4 0.7-0.6-1.4-0.2-0.1-0.8 0.4-1.3-0.3-0.9 0-0.7 0.3-1.3 0.3-0.6 3-2.2 1.1-1.5 0-0.8-0.6-1.4-0.1-1.1-0.5-0.6-0.5-1.5 0.1-0.6 1.4-2.8 1.2-0.7 10.9-0.3 1.2 0 1 0.4 3.5 1.9 3.8 1.1 1.6 0.1 1.6-0.1 3.7-0.9 0.9-0.4 1.1-0.6 0.2-0.6-0.2-0.5-0.8-0.7-0.4-1-0.1-1.5-0.1-1.7 0.4-2.5 1.4-4.3 0.1-0.8-0.1-3.4 0-1 2.3-11 0.1-1.4-0.1-1.4-0.6-1.8-0.4-2.2 1.4-7.2 0.2-11.1 0.3-1.2 0.8-0.6 1.3-0.6 1.7-1 0.6-1.1-0.1-1-0.7-0.8-1-0.5-3.9-0.9-0.8-0.3-0.6-0.5 0.3-0.7 1-1 17.9-14.7 5.5-5.1 0.2-2.9-0.5-1.2-0.2-1.1 0.3-0.5 0.8-0.2 1.8-0.3 1.1-0.5 0.8-1 1.4-2.1 0.8-0.7 1.4-0.2 4.4 0.4 0.9 0.3 0 1.7-0.3 1-0.5 0.7 0.2 0.6-0.6 1.3-0.4 1.6-0.1 1.7 0.1 1.6 0.2 0.7 0.4 0.7 5.5 0.8 20.1-0.5z" id="ZWE532" name="Masvingo" data-id="ZWE532" data-name="Masvingo">
 </path>
 <path d="M648.6 4.2l-0.3 1.5 0.1 5.3 0.5 1.9 1.5 1.8 0.7 1.3 1 2.9-0.5 1.9-1 1.7-33.3 28.9-0.7 0.9 0 1.2 0.2 0.7 0.7 1.2 0.9 0.8 0.6 0.4 2.7 1 0.4 0.7 0.1 1.2-0.5 3.4 0 1.2 0.3 1.4 0.2 0.6 0.7 1.1 0.9 0.8 0.2 0.9 0 1.4 0.1 0.7 0.8 1.1 1 0.8 0.6 0.1 1.4-0.1 0.7 0.1 0.6 0.4 0.3 0.7 0.1 1.3-0.2 0.8-0.5 0.6-3.3 2.2-0.6 0.6-1.6 2.6-0.4 1.1-0.2 1 0 0.9 0.7 4.3-0.1 1.8-0.2 1.1-0.4 0.8-0.4 0.5-1.5 1.1-0.7 0.6-0.8 1.3-2.2 5-0.1 1.4 0.2 0.7 1.3 0.7 1.4 0.4 1.4 0 0.5-0.4 0.4-0.5 0.8-2 0.9-0.9 1.3-0.5 1.5-0.1 2.8 0.7 0.7 0 0.6-0.3 1.2-1.5 1.1-0.7 2.8-0.7 1.1-0.6 0.9-1 0.5-1.3-0.1-0.9-0.6-2.7-0.1-0.7 0.4-1.4 0.9-0.9 1.3-0.6 4.6-0.5 0.8 0 1.7 0.2 0.7 0.3 0.7 0.6 0.5 1.1 1.1 3.5 0.5 0.9 2.2 2.5 0.9 0.6 0.7 0.1 7.3-0.4 0.8 0.2 0.9 0.5 1 1.8 0.7 1.7 0.8 2.9 0.2 1.5 0 1.2-0.3 0.7-1.6 2.9-0.6 1.7-0.3 3.4-0.9 4.2-0.5 1.3-1.1 1.8-1 3-1 5.7 0.1 1.1 0.2 0.9 1.3 2 1 1.9 0.4 0.6 0.6 0.4 2 0.9 1.7 1.1 0.6 0.3 1.5 0.2 0.7 0.3 4.1 2.5 1 0.5 0.7 0.6 1.9 4.4 0.1 0.9-0.8 2.2 1.1 0.7 1.3 0.7 0.7 0.5 0.6 0.9 0.9 1.7 0.3 1.2 0.1 1-0.2 0.8-0.6 1.2-2 2.6-0.6 1.3-0.2 1.7 0.7 11.7 0.3 1.1 0.7 1 2.1 1.7 0.9 1.2-0.1 0.7-0.3 0.4-1.6 0.9 0 0.5 0.1 3.5 0.5 2.7 0.4 0.6 0.5 0.4 1.5 0.1 3.2-0.2 0.8 0 1.7 0.8 0.7 0.1 0.6-0.2 1.5-1.2 1.7-1 0.7-0.3 0.7 0 0.7 0.5 0.4 0.8 0.1 1.3 0.6 0.5 0.5 0 1.6-1 1.3-0.5 1.5 0.2 1.5 0.5 0.7 0.3 0.6 0.7 0.2 1.6-1.4 11-0.5 1.3-0.3 0.6-1.6 2.3-1.6 1.9-1.9 1.8-1.1 1-0.4 0.7 0.2 0.6 1 1 0.6 0.7-0.2 1.3-4.8 9.2-1.8 2.9-0.5 1.6 1.7 7.6 0.2 2.1 0 1.9-1.5 11.1 0 3.2 1.2 0.8 17.9-0.1 0.8 0.2 0.2 0.5-0.5 2.4-0.9 2.6-0.3 1 0 1.2 0.5 0.8 1.2 0.8 7 2.9 6 3.2 1.8 1.2 0.8 0.5 0.8 0 0.8-0.7 0.7-0.8 0.7-0.8 0.8-0.4 2.4 0.8 3.5 5.9-1.5 4.2-3.5 4.2-1.5 1.1-1.4 0.6-1.2 0.3-0.6 0.6-0.3 0.9-0.2 1.5 0 1.1 0.3 0.7 0.5 0.6 0.3 0.9 0 1.5-0.8 1.8-0.2 1.1 0.3 0.8 0.7 0.6 2.7 1.5 0.6 0.8 0.6 0.9 0.4 1.3-0.2 0.7-0.5 0.6-4.2 1.5-3.4 0.7-0.7-0.5-1.7-0.9-3.5-1.4-1.4-0.6-0.5 0.2-0.4 1-0.3 1.8 0 1.2 0.2 0.8 0.7 2 0 0.7-0.3 0.7-1.4 1-2 0.8-0.5 0.8-0.4 0.8-0.3 1.6 0.3 1.9 1.9 4.5 0 0.7-0.4 0.7-1.7 1.3-0.7 0.7-0.5 1.1-1.2 4.3-0.1 0.8 0.4 1.3-0.2 1.2-0.7 1.7-2.2 3.5-1.2 1.4-1 1-1.8 0.8-0.6 0.5-0.3 0.7-0.1 1.3 0.2 4.4 0.1 0.7 0.6 1.2 0.9 1 5.3 4.9 3.5 3.9 0.7 1.1 0.6 1.3 0.1 0.7-0.1 0.7-0.5 0.8-1.3 1-0.8 0.7-0.7 0.9-0.3 1.4-0.2 1.1-1 18.5-0.3 1.7-0.5 1.1-0.8 1.1-5.5 5.4-5.9 10.1-0.6 0.6-0.8-1.1-0.4-0.2-2.9-0.7-0.7-0.1-0.6 0.2-0.2 0.8 0 0.8 0.7 2.7-0.7 0.8-1.4 0.2-0.9-0.1-0.7-0.3-1.1-0.9-0.5-0.4-2.7-0.9-0.8-0.1-0.5 0.3-0.1 0.6 0.1 0.7 0.5 1.9-0.5 0.5-1 0.7-2.6 0.9-1 0.1-0.6-0.1-2.1-4.9-0.9-1.3-1.3-4-0.7-1.2-0.6-0.4-0.7 0.3-1 1.3-5.5 11.3-0.3 1.1-1.1 6.3-0.9 2-2.2 2.2-4.5-4.3-1.1-0.9-0.9-0.5-1.7-0.6-2.9-0.6-3-1.4-2-0.6-0.9-0.4-0.9-0.7-2.7-2.9-1.1-0.9-1.6-1-1.7-0.6-4.4-1.2-0.8-0.1-3.3 0.2-1.7-0.1-1.6-0.4-0.7-0.3-3.1-1.6-0.8-0.2-2.4-0.2-4.3-2.1-1.1-0.2-0.9 0.1-2 0.6-0.6 0.4-1 0.9-0.5 0.3-0.7 0-4.8-0.9-0.8-0.3-4.2-2-1.9-0.3-0.7-0.3-0.7-0.6-1.1-1.7-0.9-0.7-1.3-0.3-2.7-1.2-0.9-0.1-1.4 0.3-0.7 0-0.8-0.5-0.9-1.1-0.9-0.8-1.6-0.9-1.1-0.4-1-0.2-0.8-0.1-3.2-0.6-0.7 0-1.2 0.5-0.7 0.1-1.3-0.5-4.9-3-1.6-0.7-1.2-0.3-0.9-0.4-0.8-0.7-1-1.6-0.5-1.1-0.2-1-0.1-1.6 0.4-2.6-0.5-6.3 0-0.7 0.2-0.7 0.4-0.5 1.3-1.2 0.3-1 0-2.2 0.2-0.8 1.3-3.5 0.3-1.7 0-0.8-0.4-0.7-0.7-0.6-4.8-2.3-17.6-11.3-1.3-0.5-2-0.5-1-0.6-1.2-1.4-1.1-1.7-0.6-0.7-0.8-0.6-2.8-1.4-1-0.7-3.2-3.6-0.6-0.8-0.6-1.4-0.7-1.2-3.4-3.2-0.3-0.5-0.4-1.4-0.1-1.6-0.4-0.7-1.9-1.8-0.6-0.8-0.4-0.7-0.3-1.5-0.8-1.9 0-0.7 0.1-1.6-0.1-0.7-0.3-1.4-0.6-2 0.1-1 0.5-1 0.2-1.5 0.5-1.3 0.8-1.1 3.4-8.4 1.5-2.4 0.8-2.1 0.3-0.6 1.7-2.1 0.6-1.4 0.6-3.5 0.3-0.7 0.8-1 1.6-1.2 0.8-1.1 0.7-1.2 0.2-0.7-0.3-0.9-0.6-0.8-1.2-1.3-0.2-0.8 0.1-0.8 0.5-0.4 2.1-1.6 0.7-1.1 0.6-1.4 0.1-0.8 0.1-3.3 0.5-3.3-0.3-3.1-0.2-0.7-0.4-0.7-1.5-1.5-0.4-0.8 0-0.8 0.2-0.7 0.8-1 1.1-0.8 0.9-0.9 0.8-1.2 0.9-2 0.8-1 1-0.9 2.2-1.4 0.9-0.9 0.3-0.5 0.9-2.3-0.3-0.6-0.9-0.6-2.3-0.8-1.1-0.5-0.9-0.5-8.5-9.9-0.6-1.2-0.2-0.7-0.6-2.9-0.4-1.3-0.9-1.8-0.9-0.9-1.2-1-1.7-0.9-0.9-0.1-0.9 0.1-1.4 0.5-1.1 0.2-2.2-0.3-8-2.8-0.6-0.4-1.5-1.3-1.6-0.6-2-0.3-0.7-0.4-3.6-2.9-8.9-3-1-0.9-0.8-1-0.7-1.1-0.8-1.9-0.3-0.5-1.1-1.7-0.3-0.6-0.5-2.1-0.6-1.1-1.3-1.5-0.6-0.2-0.7 0.2-3.9 3.1-0.6 0.3-0.8 0.2-1.1 0-3.5-0.6-0.8 0-1.5 0.2-6 1.9-1 0.4-3.7 2.3-1.1 0.9-0.7 0.8-1.1 1.9-0.5 0.5-0.6 0.3-1.2 0.1-2.7-0.4-0.9 0.1-0.9 0.4-1.2 1-5.1 6-1.4 2.5-1.2 2.6-5 6.3-0.6 0.6-2.3 1.4-0.7 0.8-0.9 1.3-0.6 0.3-0.7 0-1.1-0.7-1.2-1-0.7-0.1-1.4 0.8-0.8 0.1-2.9-0.7-1.9-0.2-2.1 0.3-12.9 3-1.5 0.9-1.8 0.3-4.1-0.7-1.5-5.9-1.4-1.7-1-0.2-1.1-0.5-1.4-0.9-1.2-1.5-2.5-1.9-0.5-0.8-0.3-1.2-0.2-1.3-0.7-2.2 0.1-2.3-0.1-1.1-0.5-0.9-0.8-1-0.3-0.8-0.1-0.7 0.6-1.5 0.1-1.4-0.4-0.9-0.8-1.1-0.3-0.9-0.2-0.8 0.1-0.8 0.4-1.6 0.1-0.9-0.3-0.5-0.6-0.4-1.4-0.5-0.7-0.1-1.3 0.2-0.8 0-0.9-0.3-0.6-0.7-0.4-1-0.6-1.5-0.5-0.8-0.7-0.6-1.8-0.7-1-0.7-0.7-1 0.1-1 0.6 0.5 0.7-3 1.6-1.9 2.2-1.1 2.6-0.4 0-1-0.9 0 0.6-1.1-1.4-2.1 1-0.9 1.9-0.7 1.4-1.6-1.8 0.2-3.1 1.3-1.6 0.3-2.6-0.1-0.3-0.5 0.8-0.9 0.7-1.2 0.7-3.2 1-2 1.7-1.5 2.7-1.5-2.3-1.2 0.3-1.8 1.3-2 1.6-3.5 1.9-0.8 4.3-0.7 7.8-3.1 4.2-0.5 0.2 2.7 5.9-1.1 1-0.3 0.2-2.1 0.9-1.7 1.3-0.9 1.9 0.6 0.5-2.5 1.6-2 1.8-0.6 1.5 1.4-0.2 1.3-0.9 1.2-1.1 1-0.6 0.6 0.2 1.3 0.6 1.4 0.2 1 1 1.6 2.2 1 2.5 0.4 1.8 0.2 1.8 1 0.9 4.8 2.1 1.4-1.2-6.3-1-0.9-0.5-0.3-0.8-0.7-0.7-0.8-0.2-0.9 0.4-0.9 0.6 0 0.8 0.3 0.8-0.3 3.1-5.5 2.2-2.2 2.6 0.3 0.6-0.3 1.5-1 0.5-0.4-0.9-2 1.8-0.9 0.7 1.4 1.2 0.1 1.5-0.1 1.8 0.5-1-2.6 1.3-0.2 2 0.3 1.3-1 2.6 0.5 2.1-4.4 3.1-0.8 1.9 1.5-0.4 2.6 0 2.1 2.8 0.1-0.8 1.3-2.2 2.5-0.5 1.3 0.5 1.1 1.8 1 0.4 1.5 1.2 2.4 2.9 0.5 3.2-0.2 2.2 0.6 1.1-1.6 1.3-1.1 0.8-1.4-0.5-2.3 5.2 1.4 2.7-3.1 0.7-4.4-1.2-2.2-2-0.9 0.7-1.9 1.9-1.9 2-0.8 1.5 0.7 4.2 5.9 0-2.8 0.7-2.2 1.3-1.8 1.5-1.6-2.4 0.1-0.5-0.6 0.8-1.1 1.3-1.1 1.3-0.7 4.1-1.1 1.6-0.1-1.2-1.4-2.1-0.8-2.5-0.4-2.1-0.1 1.1-2.4 1.5-2.1-0.9-1-5.1 2.9-1.9 0.8-2.4 0.3-1.9-0.4-3.5-1.7 1.2-0.8 1.6-0.2 1.7 0.2 1.6 0.8 0.3-0.6 0.6-0.3-2.3-1.5-1.6-1.1-1.7-0.9-8.5-0.5-2.5 0.2 1-2.2 5.1-3.9 1.7-2.1 0.9-4.8 0.5-1.1 3.1-5-0.1-3.1-2.1-5.5-0.4-2.3 0.4-2.9 3.1-7.1-2.2-3.8 0.7-5.3 1.6-5.5 0.7-4.5-0.3-0.7-0.6-0.7-0.6-1-0.2-1.2 0.4-1.5 1.7-2.7 0.4-0.9 2.8-3.5 4.3-4.2 2.4-1.2 2.7-0.5 5.8-0.1 3.1-0.6 1.6-1.5 2.7-5.2 1.3-1.4 2-1.8 2.5-1.6 2.6-0.6 1.1-0.8 4.5-4.8 28.2-13 1.9-0.4 11-1 2.3-1.5 4.8-4 3-0.9 2.7 0.4 2.5 0.7 2.6 0.4 3.1-0.5 7.3-2.4 5.5-0.9 5.3-2.5 2.9-0.6 5.7 0.5 10.9 3 5.5 0.7 5.1-0.8 5-1.5 5.1-0.7 5.1 1.1 3.3 2.2 1.5 0.6 2-0.5 1-0.6 1.9-1.7 1.2-0.4 3.2 0.4 2 0.9z" id="ZWE533" name="Mashonaland West" data-id="ZWE533" data-name="Mashonaland West">
 </path>
 <circle cx="803.3" cy="532.7" id="0">
 </circle>
 <circle cx="803.3" cy="528.6" id="1">
 </circle>
 <circle cx="814" cy="524" id="2">
 </circle>
</svg>